<?xml version="1.0" standalone="no"?>
<!DOCTYPE svg PUBLIC "-//W3C//DTD SVG 20010904//EN"
 "http://www.w3.org/TR/2001/REC-SVG-20010904/DTD/svg10.dtd">
<svg version="1.0" xmlns="http://www.w3.org/2000/svg"
 width="244.000000pt" height="305.000000pt" viewBox="0 0 244.000000 305.000000"
 preserveAspectRatio="xMidYMid meet">
<metadata>
Created by potrace 1.16, written by Peter Selinger 2001-2019
</metadata>
<g transform="translate(0.000000,305.000000) scale(0.100000,-0.100000)"
fill="#000000" stroke="none">
<path d="M887 2887 c-4 -15 -3 -36 3 -48 11 -20 9 -923 -2 -934 -3 -3 -24 7
-48 22 l-42 28 6 195 c7 195 23 367 51 535 16 98 18 141 4 85 -39 -155 -69
-459 -69 -708 0 -139 1 -143 23 -151 12 -5 33 -18 46 -30 30 -26 43 -26 65 -2
10 11 31 25 48 32 l31 13 -6 205 c-4 113 -12 256 -17 316 -12 119 -51 352 -73
425 -13 44 -13 44 -20 17z"/>
<path d="M1569 2904 c-6 -39 -5 -55 2 -60 5 -3 9 -216 9 -475 0 -392 -2 -469
-14 -469 -7 0 -20 7 -27 16 -7 9 -24 20 -38 25 l-24 10 7 182 c8 219 21 361
47 522 20 124 22 152 14 144 -2 -3 -16 -75 -29 -160 -30 -184 -46 -383 -46
-576 l0 -143 33 -13 c17 -8 41 -24 51 -36 l19 -21 26 24 c14 14 39 30 55 36
l29 11 -6 223 c-7 244 -33 475 -72 649 -24 103 -33 133 -36 111z"/>
<path d="M1217 2549 c-40 -138 -67 -366 -67 -571 0 -59 -4 -109 -9 -112 -9 -6
-31 76 -31 114 0 38 -24 120 -34 117 -13 -4 -35 -113 -36 -174 0 -33 4 -43 20
-48 37 -12 60 -53 54 -97 -2 -23 -7 -45 -10 -49 -8 -13 -38 -11 -52 3 -20 20
-35 -4 -22 -38 20 -50 49 -57 82 -19 31 35 39 31 32 -15 -6 -38 -5 -41 23 -50
19 -7 36 -24 47 -47 l18 -37 20 36 c12 20 31 41 44 47 20 9 24 18 24 58 l0 47
29 -32 c17 -17 36 -32 44 -32 22 0 47 34 47 64 0 23 -3 27 -17 21 -41 -18 -58
-11 -67 26 -13 53 -1 84 40 108 l36 22 -6 57 c-10 88 -27 162 -36 162 -7 0
-27 -95 -46 -217 -12 -81 -21 -42 -27 125 -8 211 -22 340 -48 462 -29 128 -33
135 -52 69z m22 -366 c0 -191 -4 -323 -10 -323 -5 0 -8 -21 -7 -47 l1 -48 7
45 c5 32 7 7 8 -82 2 -118 -4 -148 -23 -117 -4 5 -18 14 -31 19 -24 9 -24 11
-24 142 0 230 19 473 57 728 14 100 22 -6 22 -317z"/>
<path d="M754 1863 c-33 -6 -56 -37 -52 -69 3 -27 5 -29 46 -26 37 3 47 -1 77
-31 40 -40 44 -62 14 -78 -18 -9 -21 -18 -17 -54 7 -55 38 -120 84 -174 35
-40 35 -42 20 -66 -9 -14 -20 -25 -24 -25 -12 0 -42 -56 -42 -77 0 -46 92 -91
120 -59 10 13 10 22 1 42 -15 33 -14 69 2 83 10 8 29 5 75 -12 48 -17 66 -19
79 -11 30 19 20 34 -38 58 -70 28 -110 56 -147 104 -43 54 -64 100 -60 130 3
25 5 23 30 -23 29 -55 94 -126 148 -160 95 -59 112 -21 21 49 -67 52 -121 126
-121 167 0 18 -7 32 -20 39 -28 15 -25 37 10 72 26 25 36 29 73 26 47 -3 52 1
44 42 -7 34 -36 52 -83 52 -42 0 -62 -16 -82 -62 -13 -32 -15 -33 -26 -16 -36
61 -81 88 -132 79z"/>
<path d="M1444 1863 c-30 -6 -52 -32 -56 -68 -3 -30 -3 -30 44 -27 40 3 51 0
73 -22 27 -27 33 -71 11 -79 -7 -3 -16 -23 -19 -44 -8 -49 -56 -112 -124 -164
-32 -24 -53 -47 -53 -59 0 -17 4 -18 25 -10 79 30 182 127 206 193 7 20 17 37
22 37 19 0 -5 -77 -39 -127 -43 -63 -89 -99 -163 -129 -57 -23 -68 -39 -40
-57 11 -7 34 -4 80 11 54 17 66 18 78 6 13 -12 13 -21 2 -65 -14 -54 -8 -69
29 -69 24 0 78 37 85 59 7 22 -14 69 -40 91 -38 31 -38 49 -1 91 47 56 69 104
74 168 4 43 1 56 -12 63 -25 14 -19 37 19 75 30 30 40 34 77 31 35 -2 43 1 46
16 6 28 -17 63 -49 76 -47 20 -95 -2 -123 -58 l-23 -46 -21 46 c-11 25 -24 48
-28 50 -16 9 -59 15 -80 11z"/>
<path d="M1083 1575 c-42 -18 -42 -32 1 -41 19 -3 43 -16 54 -27 21 -24 42
-105 42 -167 0 -34 -4 -39 -31 -49 -25 -9 -30 -15 -27 -38 2 -22 9 -29 31 -31
23 -3 27 -8 27 -33 0 -25 -5 -30 -30 -35 -54 -11 -63 -49 -17 -73 21 -10 20
-10 -8 -8 -28 2 -30 5 -33 49 -2 27 -9 48 -16 51 -17 7 -96 -11 -113 -25 -22
-18 -60 0 -99 47 -32 39 -36 50 -31 81 4 20 2 55 -3 78 -5 22 -12 53 -15 67
-9 50 -77 42 -106 -12 -18 -35 -2 -79 73 -204 102 -168 101 -171 -21 -375 -95
-157 -103 -170 -160 -272 -61 -107 -59 -93 24 162 70 218 68 214 118 228 52
15 67 42 67 121 0 50 -18 87 -81 162 -77 92 -87 154 -37 226 l31 46 -23 19
c-14 12 -39 18 -70 18 -81 0 -98 -43 -59 -151 24 -65 21 -111 -11 -152 -16
-20 -289 -183 -380 -227 -29 -14 37 53 178 179 l93 84 46 -7 45 -6 -7 98 c-10
133 -27 156 -22 29 l4 -97 -33 6 c-31 6 -40 0 -131 -82 -201 -180 -283 -257
-279 -261 2 -3 105 28 228 67 122 40 231 75 241 77 10 3 17 15 17 29 0 35 21
39 77 14 59 -26 91 -55 110 -98 17 -40 7 -57 -36 -65 -28 -6 -31 -13 -86 -184
-31 -98 -71 -225 -90 -283 -19 -57 -32 -107 -29 -110 3 -2 17 9 32 26 25 28
86 95 295 323 84 90 84 91 61 169 -6 22 -5 22 88 22 82 0 100 -3 128 -22 56
-39 59 -53 21 -92 l-33 -34 17 -88 c9 -49 22 -114 30 -144 7 -30 16 -68 18
-85 17 -106 74 -354 76 -329 1 6 15 76 31 155 47 226 100 481 100 485 0 2 -14
20 -32 40 -36 41 -33 54 22 92 28 19 46 22 121 22 48 0 90 -4 93 -9 3 -5 0
-27 -8 -48 l-14 -40 130 -144 c232 -256 278 -304 278 -291 0 21 -162 526 -175
548 -8 12 -27 24 -44 27 -37 8 -40 28 -10 76 28 46 55 67 111 86 53 18 68 14
68 -19 0 -22 16 -29 208 -90 114 -37 219 -72 234 -78 67 -25 38 9 -143 171
-179 159 -196 172 -226 167 l-31 -4 5 95 c5 71 3 94 -5 89 -7 -4 -12 -26 -12
-49 0 -23 -7 -67 -15 -97 -8 -30 -15 -62 -15 -70 0 -9 79 -64 196 -135 107
-66 190 -121 182 -123 -7 -1 -62 16 -123 38 -60 23 -138 50 -172 61 -64 20
-75 35 -53 69 7 11 2 21 -21 41 -43 35 -49 93 -19 190 24 79 21 113 -12 130
-27 14 -105 6 -125 -14 -14 -13 -12 -20 16 -60 48 -71 38 -129 -41 -227 -58
-71 -87 -132 -95 -198 -6 -57 -3 -64 154 -341 57 -101 102 -185 100 -188 -3
-2 -73 74 -156 169 -141 160 -151 175 -145 203 4 17 8 64 9 105 3 91 9 106 92
242 72 119 84 168 49 207 -21 23 -68 28 -83 9 -13 -16 -25 -87 -27 -154 -1
-56 -32 -108 -80 -133 -23 -13 -31 -13 -61 2 -20 9 -54 17 -75 17 -40 0 -40 0
-40 -38 0 -41 -14 -62 -42 -62 -22 0 -38 -29 -38 -69 0 -32 -60 -105 -68 -81
-3 7 0 15 5 19 17 10 34 50 41 93 7 38 11 42 47 52 43 13 55 42 23 57 -10 5
-26 13 -35 18 -28 13 -23 54 7 61 16 4 26 14 28 28 4 25 -15 55 -29 47 -17
-11 -30 37 -24 88 11 92 40 147 79 147 12 0 27 4 35 9 25 16 -6 41 -50 41 -31
0 -45 -7 -69 -32 -17 -17 -33 -42 -36 -55 -9 -33 -30 -29 -43 8 -13 36 -47 74
-76 82 -11 3 -35 0 -52 -8z m115 -551 c8 -27 17 -76 20 -109 4 -47 7 -55 13
-35 9 31 11 -515 2 -561 -6 -28 -12 -9 -39 121 -17 85 -41 198 -52 250 l-21
95 23 25 c77 85 76 82 47 134 -22 39 -36 139 -18 133 5 -1 17 -25 25 -53z"/>
<path d="M1221 704 c0 -11 3 -14 6 -6 3 7 2 16 -1 19 -3 4 -6 -2 -5 -13z"/>
</g>
</svg>
