<?xml version="1.0" standalone="no"?>
<!DOCTYPE svg PUBLIC "-//W3C//DTD SVG 20010904//EN"
 "http://www.w3.org/TR/2001/REC-SVG-20010904/DTD/svg10.dtd">
<svg version="1.0" xmlns="http://www.w3.org/2000/svg"
 width="244.000000pt" height="305.000000pt" viewBox="0 0 244.000000 305.000000"
 preserveAspectRatio="xMidYMid meet">
<metadata>
Created by potrace 1.16, written by Peter Selinger 2001-2019
</metadata>
<g transform="translate(0.000000,305.000000) scale(0.100000,-0.100000)"
fill="#000000" stroke="none">
<path d="M872 2803 c-47 -214 -70 -430 -74 -717 -3 -147 -1 -160 16 -170 11
-6 34 -24 53 -40 l33 -28 34 30 c19 17 44 33 55 37 26 8 26 26 6 360 -12 209
-54 527 -70 544 -8 8 -6 -20 10 -109 27 -159 45 -347 51 -552 l7 -203 -41 -28
c-23 -15 -44 -27 -47 -27 -3 0 -5 219 -4 488 1 268 5 476 9 462 9 -29 13 -6 4
28 -11 40 -21 23 -42 -75z"/>
<path d="M1542 2802 c-48 -208 -70 -426 -73 -705 l-1 -167 51 -35 c59 -41 62
-41 85 -16 10 11 31 25 47 32 l31 12 -7 181 c-8 232 -22 403 -46 543 -24 143
-49 253 -57 253 -4 0 -17 -44 -30 -98z m72 -143 c31 -200 46 -387 46 -569 l0
-137 -40 -27 c-22 -14 -42 -26 -45 -26 -3 0 -5 217 -4 483 0 276 4 473 9 461
4 -12 20 -95 34 -185z"/>
<path d="M1311 2810 c-1 -36 -3 -180 -3 -320 -1 -215 -2 -234 -8 -120 -3 74
-7 110 -9 80 l-3 -55 -18 80 c-18 79 -38 139 -40 120 0 -5 -11 -50 -25 -100
-16 -62 -24 -81 -26 -60 -1 17 -5 98 -9 180 -6 142 -7 137 -8 -111 -3 -343
-12 -569 -24 -552 -10 13 -6 -19 8 -72 5 -19 4 -22 -5 -14 -7 6 -16 41 -22 78
-12 89 -29 156 -39 156 -10 0 -27 -84 -33 -157 -4 -53 6 -70 45 -85 18 -7 29
-99 15 -124 -9 -16 -43 -19 -52 -4 -11 18 -25 11 -25 -13 0 -31 27 -67 50 -67
10 0 28 12 39 28 l20 27 1 -64 c0 -48 -3 -62 -13 -58 -17 6 -77 -19 -77 -33 0
-5 7 -10 15 -10 9 0 15 -9 15 -25 0 -14 -4 -25 -10 -25 -27 0 -99 109 -100
151 0 9 -7 22 -15 29 -20 17 -18 40 6 70 18 21 30 25 73 25 51 0 51 1 48 30
-5 39 -17 53 -61 65 -43 12 -77 -7 -101 -58 -8 -17 -18 -32 -21 -32 -3 0 -13
16 -22 36 -34 70 -126 79 -159 15 -23 -46 -15 -60 32 -54 35 5 43 2 75 -30 37
-37 45 -71 20 -81 -35 -13 -11 -110 50 -202 25 -37 45 -69 45 -71 0 -2 -16
-25 -35 -50 -19 -25 -35 -56 -35 -68 0 -39 32 -67 76 -69 l39 -1 0 70 c0 77 4
80 68 56 24 -10 27 -15 27 -61 0 -38 -5 -55 -22 -72 -21 -21 -22 -21 -29 -2
-5 13 -8 14 -8 4 -2 -24 -74 -54 -98 -41 -21 11 -83 77 -83 89 -1 4 -3 44 -5
90 -5 96 -16 122 -51 122 -87 0 -95 -98 -16 -213 16 -23 46 -74 66 -114 32
-63 37 -81 36 -135 -1 -35 1 -82 5 -104 7 -41 6 -43 -66 -125 -41 -46 -107
-124 -148 -172 -40 -48 -76 -85 -79 -83 -2 3 27 60 65 128 125 219 182 327
189 352 7 29 -11 116 -34 161 -8 17 -34 53 -58 81 -77 90 -92 158 -49 222 14
20 25 43 25 51 0 41 -104 57 -140 21 -25 -25 -25 -48 0 -128 30 -96 27 -138
-13 -176 -30 -28 -32 -35 -24 -59 5 -16 7 -29 6 -31 -2 -1 -51 -20 -109 -41
-58 -21 -136 -49 -173 -62 -38 -14 -70 -23 -73 -20 -3 3 81 58 186 124 187
116 191 119 186 148 -2 17 -10 66 -17 110 -18 118 -33 120 -26 2 l5 -98 -31 6
c-23 5 -38 1 -52 -12 -11 -10 -41 -36 -65 -57 -25 -22 -79 -71 -121 -110 -42
-39 -99 -92 -128 -118 -54 -50 -49 -59 16 -34 21 8 125 42 230 77 176 57 193
64 193 85 0 32 16 38 62 23 52 -17 116 -76 128 -117 9 -33 8 -34 -30 -49 l-40
-16 -49 -156 c-95 -298 -122 -392 -119 -401 2 -5 32 23 67 63 35 40 91 101
124 137 34 35 94 102 135 147 73 82 73 83 63 120 -18 64 -19 63 73 63 102 0
116 -4 117 -39 2 -23 2 -24 6 -3 6 33 23 16 23 -23 0 -44 -20 -91 -32 -73 -5
8 -8 1 -8 -20 0 -20 4 -31 10 -27 12 7 13 -24 3 -91 l-8 -49 -6 40 c-4 22 -4
5 -2 -38 4 -52 2 -77 -6 -77 -7 0 -11 -22 -10 -57 1 -56 2 -55 27 60 14 64 27
116 28 114 1 -1 26 -117 54 -257 46 -227 60 -285 60 -254 0 5 21 108 47 229
25 121 51 249 58 285 l12 65 8 -47 c4 -25 4 -61 1 -80 -5 -26 -4 -29 4 -13 8
16 9 13 6 -15 -3 -19 1 -60 9 -90 15 -53 15 -54 9 -10 -3 25 -5 52 -5 60 0 8
-5 100 -11 203 -10 161 -10 190 3 198 8 5 53 9 102 9 95 0 94 0 77 -60 -7 -25
-6 -39 4 -54 19 -30 377 -420 389 -425 6 -2 7 4 3 15 -4 10 -36 113 -72 229
-99 318 -101 324 -138 333 -69 18 -31 107 66 156 63 31 88 29 88 -8 0 -22 14
-29 243 -103 133 -44 244 -78 247 -76 3 3 -13 21 -35 41 -341 311 -337 307
-375 305 l-36 -1 3 96 c4 121 -11 95 -21 -36 l-7 -93 48 6 48 6 95 -87 c177
-162 191 -176 186 -181 -2 -3 -53 23 -113 58 -119 69 -155 89 -210 120 -95 53
-116 105 -84 204 27 84 27 120 -1 139 -29 20 -87 20 -116 0 -28 -19 -28 -27 3
-72 44 -64 30 -131 -47 -229 -66 -84 -81 -122 -72 -189 7 -59 14 -68 70 -87
34 -12 41 -20 61 -73 27 -73 123 -377 123 -390 0 -5 -12 11 -26 36 -35 59
-147 250 -218 371 -80 136 -79 155 15 311 56 92 73 129 77 167 4 44 2 51 -21
66 -14 9 -38 15 -53 13 -26 -3 -29 -8 -42 -68 -7 -36 -10 -79 -7 -96 4 -26 -1
-40 -28 -75 -18 -24 -45 -50 -59 -59 -25 -13 -30 -13 -65 7 -32 18 -41 31 -53
75 -8 29 -19 58 -23 65 -5 8 4 18 30 28 35 15 38 15 51 -2 8 -10 11 -28 7 -43
-19 -75 -18 -79 9 -86 42 -10 90 24 94 67 2 28 -4 43 -34 78 -26 30 -35 47
-28 56 50 72 83 126 92 154 17 48 15 100 -3 107 -25 10 -17 44 20 81 30 30 40
34 77 32 42 -3 43 -2 41 25 -6 88 -129 96 -170 12 -9 -20 -19 -36 -23 -36 -3
0 -12 15 -18 34 -17 45 -34 58 -82 60 -47 1 -77 -24 -82 -69 -3 -30 -3 -30 42
-27 37 3 50 -1 73 -22 29 -27 35 -57 13 -75 -7 -6 -16 -27 -19 -47 -6 -36 -58
-113 -89 -133 -16 -10 -18 -7 -18 19 0 21 5 30 17 30 15 0 15 2 -1 19 -9 10
-30 21 -45 24 -26 5 -29 11 -34 59 -2 29 -3 55 -1 57 2 2 11 -5 21 -17 29 -32
59 -37 77 -10 15 21 22 68 11 68 -3 0 -14 -5 -24 -12 -36 -22 -51 -4 -51 61 0
57 1 60 35 80 40 23 39 17 21 139 -22 143 -29 140 -57 -19 -10 -62 -24 -118
-31 -124 -8 -7 -8 -3 -2 15 10 28 6 664 -6 865 -5 88 -8 109 -9 65z m-22 -602
c7 -75 11 -178 10 -230 -2 -51 0 -104 5 -118 5 -19 5 -21 -3 -10 -10 13 -12
13 -21 0 -14 -22 -13 -91 2 -88 8 2 14 -17 16 -59 3 -54 1 -63 -17 -73 -18 -9
-21 -8 -21 10 0 12 5 18 10 15 6 -4 10 10 10 35 0 27 -4 39 -11 34 -8 -4 -9
16 -5 67 13 150 17 274 10 266 -5 -4 -11 -45 -15 -90 -4 -51 -6 18 -7 184 -1
146 -4 288 -7 315 -3 32 2 20 14 -36 10 -47 24 -147 30 -222z m291 -607 c0
-25 -46 -111 -78 -146 -15 -16 -44 -43 -65 -58 -34 -26 -37 -26 -37 -8 0 11
26 44 59 76 37 36 68 76 83 110 22 51 38 62 38 26z m-646 -35 c16 -33 50 -76
86 -109 33 -30 60 -63 60 -73 0 -16 -2 -17 -10 -4 -5 8 -10 11 -10 7 0 -10
-68 41 -97 73 -40 44 -86 160 -64 160 5 0 21 -24 35 -54z m266 22 c0 -7 -4
-19 -9 -26 -6 -10 -10 -7 -13 12 -4 18 -1 26 8 26 8 0 14 -6 14 -12z m90 -9
c0 -11 -4 -17 -10 -14 -5 3 -10 13 -10 21 0 8 5 14 10 14 6 0 10 -9 10 -21z
m-133 -157 c4 -54 3 -72 -7 -72 -8 0 -10 8 -6 25 8 33 -3 75 -20 75 -10 0 -14
13 -14 42 l0 42 20 -20 c16 -15 22 -39 27 -92z m80 61 c-3 -10 -5 -4 -5 12 0
17 2 24 5 18 2 -7 2 -21 0 -30z m122 -20 c1 -7 -5 -13 -13 -13 -17 0 -27 -34
-19 -71 6 -30 -10 -41 -21 -14 -7 19 13 125 28 144 9 11 12 9 17 -10 4 -13 7
-30 8 -36z m-252 -95 c-3 -7 -5 -2 -5 12 0 14 2 19 5 13 2 -7 2 -19 0 -25z
m298 -173 c4 -14 1 -12 -9 5 -8 14 -15 45 -14 70 l0 45 8 -50 c4 -27 11 -59
15 -70z m-288 68 c-3 -10 -5 -4 -5 12 0 17 2 24 5 18 2 -7 2 -21 0 -30z m240
15 c-3 -8 -6 -5 -6 6 -1 11 2 17 5 13 3 -3 4 -12 1 -19z m-230 -80 c-3 -7 -5
-2 -5 12 0 14 2 19 5 13 2 -7 2 -19 0 -25z m193 5 c0 -10 -5 -25 -10 -33 -9
-13 -11 -13 -20 0 -13 20 -13 33 0 25 6 -3 13 1 16 9 8 21 14 20 14 -1z m-141
-9 c16 10 14 -9 -2 -23 -17 -13 -27 -5 -27 23 0 16 2 18 9 7 5 -7 14 -10 20
-7z m158 -36 c-3 -8 -6 -5 -6 6 -1 11 2 17 5 13 3 -3 4 -12 1 -19z m-233 -53
c5 -22 4 -26 -4 -15 -5 8 -10 24 -10 34 0 26 6 18 14 -19z m276 17 c0 -10 -7
-27 -15 -38 -14 -18 -15 -17 -9 11 10 47 24 62 24 27z m-143 -204 c-3 -8 -6
-5 -6 6 -1 11 2 17 5 13 3 -3 4 -12 1 -19z m105 -58 c4 -44 -8 -54 -18 -15 -6
23 0 55 10 55 2 0 6 -18 8 -40z m-49 -17 c15 -20 27 -48 28 -62 l1 -26 8 25
c11 33 2 -73 -10 -115 -5 -16 -21 -94 -35 -172 -15 -79 -29 -143 -32 -143 -3
0 -1 96 3 213 9 253 9 223 0 275 -9 51 0 53 37 5z"/>
<path d="M1143 2685 c0 -27 2 -38 4 -22 2 15 2 37 0 50 -2 12 -4 0 -4 -28z"/>
<path d="M1134 2295 c0 -66 1 -92 3 -57 2 34 2 88 0 120 -2 31 -3 3 -3 -63z"/>
<path d="M1041 1259 c-7 -23 -10 -43 -8 -46 3 -2 8 9 12 26 4 17 11 29 16 25
5 -3 9 2 9 10 0 32 -18 23 -29 -15z"/>
<path d="M1351 634 c0 -11 3 -14 6 -6 3 7 2 16 -1 19 -3 4 -6 -2 -5 -13z"/>
<path d="M1061 394 c0 -11 3 -14 6 -6 3 7 2 16 -1 19 -3 4 -6 -2 -5 -13z"/>
</g>
</svg>
