<?xml version="1.0" standalone="no"?>
<!DOCTYPE svg PUBLIC "-//W3C//DTD SVG 20010904//EN"
 "http://www.w3.org/TR/2001/REC-SVG-20010904/DTD/svg10.dtd">
<svg version="1.0" xmlns="http://www.w3.org/2000/svg"
 width="244.000000pt" height="305.000000pt" viewBox="0 0 244.000000 305.000000"
 preserveAspectRatio="xMidYMid meet">
<metadata>
Created by potrace 1.16, written by Peter Selinger 2001-2019
</metadata>
<g transform="translate(0.000000,305.000000) scale(0.100000,-0.100000)"
fill="#000000" stroke="none">
<path d="M877 2773 c-44 -230 -71 -492 -58 -556 4 -19 11 38 18 143 11 165 43
408 63 475 5 18 9 -163 9 -452 1 -266 -2 -483 -5 -483 -3 0 -23 15 -46 33
l-41 32 6 108 c4 67 3 107 -3 107 -6 0 -10 -51 -10 -127 l0 -128 38 -23 c20
-12 44 -27 54 -34 13 -10 22 -6 51 19 19 17 40 32 47 35 9 3 12 44 11 143 -1
257 -27 531 -72 739 -10 49 -19 93 -19 98 0 4 -4 8 -8 8 -5 0 -21 -62 -35
-137z"/>
<path d="M1102 2880 c0 -14 2 -19 5 -12 2 6 2 18 0 25 -3 6 -5 1 -5 -13z"/>
<path d="M1546 2878 c-9 -34 -7 -45 4 -28 6 10 10 -152 10 -467 0 -513 0 -513
-45 -463 -10 11 -25 20 -33 20 -13 0 -14 30 -9 228 6 219 20 372 52 552 16 92
18 106 10 99 -2 -3 -16 -70 -29 -150 -26 -155 -42 -343 -51 -586 l-5 -153 38
-24 c20 -13 43 -31 51 -40 12 -15 16 -14 46 12 19 15 43 34 55 42 l22 15 -11
245 c-12 250 -38 479 -71 628 -20 94 -25 103 -34 70z"/>
<path d="M1356 2803 c-18 -233 -26 -416 -26 -610 0 -135 -4 -213 -10 -213 -6
0 -10 41 -10 103 0 171 -59 544 -80 506 -28 -50 -70 -341 -70 -480 0 -44 -4
-69 -11 -69 -8 0 -9 -14 -5 -44 5 -33 3 -45 -8 -49 -9 -4 -16 3 -21 21 -4 15
-10 214 -14 442 -4 228 -8 397 -9 375 -2 -22 -7 -96 -12 -165 -5 -69 -10 -208
-11 -310 -1 -102 -6 -237 -12 -300 l-10 -114 32 -26 c27 -23 31 -33 30 -71 -1
-25 -3 -33 -6 -19 -9 58 -23 77 -60 83 -54 9 -98 -14 -113 -57 -12 -37 -30
-49 -30 -20 0 23 -64 84 -89 84 -34 0 -78 -27 -85 -52 -11 -44 -8 -48 40 -48
40 0 51 -5 80 -36 40 -41 41 -48 14 -71 -11 -10 -20 -27 -20 -38 0 -44 31
-123 70 -177 22 -31 40 -59 40 -63 0 -3 -16 -27 -36 -53 -32 -43 -35 -51 -29
-92 l7 -45 -21 19 c-16 15 -21 30 -20 65 1 58 -11 142 -23 157 -18 24 -50 23
-74 -1 -45 -45 -28 -115 63 -250 31 -47 44 -95 24 -95 -5 0 -12 12 -16 28 -3
15 -31 59 -60 97 -30 39 -59 83 -64 99 -18 47 -13 98 14 138 30 44 30 50 6 72
-14 12 -32 16 -67 14 -40 -2 -51 -8 -63 -29 -13 -23 -12 -34 9 -106 26 -92 22
-143 -15 -177 -28 -26 -360 -226 -375 -226 -6 0 22 30 62 67 39 38 103 99 142
136 69 66 72 68 113 63 l43 -6 0 59 c0 83 -11 152 -23 144 -6 -3 -7 -37 -3
-90 l7 -84 -33 6 c-30 5 -39 0 -110 -67 -184 -174 -290 -279 -286 -283 4 -4
111 31 366 121 89 32 102 39 102 59 0 30 16 35 63 19 57 -20 96 -51 113 -92
20 -49 15 -63 -26 -77 -32 -11 -36 -17 -56 -86 -12 -41 -33 -112 -47 -159 -14
-47 -42 -138 -62 -203 -20 -65 -35 -122 -33 -127 2 -4 78 78 170 183 241 278
222 252 209 289 -20 58 -16 66 40 70 28 1 52 1 54 -3 2 -3 -10 -112 -26 -244
-16 -131 -28 -245 -27 -253 2 -9 13 14 25 49 12 35 45 129 73 208 40 112 51
153 47 183 -6 45 0 47 37 13 29 -27 27 -43 -13 -79 -12 -11 -21 -29 -21 -40 0
-12 23 -134 50 -271 28 -138 56 -277 62 -310 l12 -60 52 260 c29 143 58 293
65 333 l12 73 -32 33 -32 33 21 26 c12 15 28 27 37 27 13 0 14 -8 10 -43 -6
-43 24 -144 119 -392 l34 -90 -6 70 c-7 72 -13 96 -15 54 -1 -30 -2 -25 -53
196 -55 237 -53 227 -25 223 23 -3 25 -10 41 -118 11 -78 15 -91 10 -40 -3 41
-6 95 -7 120 l0 45 42 -1 c24 0 45 -3 48 -6 3 -3 1 -26 -6 -52 l-12 -47 54
-62 c181 -210 321 -368 325 -364 2 2 -28 111 -67 243 -39 131 -76 256 -82 277
-8 31 -15 39 -39 44 -42 8 -50 31 -28 80 20 44 56 74 112 92 44 14 58 9 58
-23 0 -18 10 -25 48 -38 263 -90 406 -137 409 -134 2 2 -76 81 -174 175 -171
165 -179 171 -211 166 l-33 -6 7 90 c5 66 4 91 -5 91 -6 0 -11 -15 -11 -32 0
-18 -7 -60 -15 -93 -25 -106 -45 -84 233 -260 67 -43 120 -80 117 -83 -3 -3
-81 24 -175 59 -168 63 -188 77 -160 105 7 7 -1 22 -25 47 -43 44 -45 82 -13
192 18 60 20 79 10 99 -14 31 -52 42 -101 30 -45 -11 -52 -40 -20 -83 18 -24
21 -39 17 -89 -4 -55 -9 -66 -66 -142 -34 -45 -62 -88 -62 -96 0 -8 -4 -14
-10 -14 -19 0 -10 29 24 82 58 91 76 135 76 182 0 37 -4 48 -24 62 -14 8 -35
14 -48 12 -26 -3 -36 -42 -42 -154 -2 -34 -6 -66 -10 -73 -15 -23 -26 -10 -24
29 1 29 -5 49 -20 68 -48 59 -48 65 -4 132 60 89 80 182 47 210 -23 19 -18 39
20 77 29 29 40 34 72 31 35 -3 38 -1 41 24 5 39 -28 68 -76 68 -43 0 -72 -24
-92 -75 l-12 -30 -18 40 c-21 50 -41 67 -82 70 -18 2 -35 3 -38 4 -3 1 -7 97
-9 214 -1 116 -5 214 -7 216 -2 2 -4 -44 -4 -102 0 -91 -2 -106 -15 -101 -14
6 -15 55 -15 396 1 215 -1 392 -3 394 -2 3 -7 -35 -11 -83z m-140 -395 c-3
-35 -9 -169 -13 -298 -6 -206 -8 -226 -16 -160 -10 94 -3 340 14 443 7 42 14
77 17 77 2 0 1 -28 -2 -62z m111 -460 c-3 -8 -6 -5 -6 6 -1 11 2 17 5 13 3 -3
4 -12 1 -19z m5 -70 c-9 -9 -12 -4 -11 23 0 32 1 33 11 11 8 -17 8 -26 0 -34z
m-186 -6 c-12 -11 -18 7 -10 30 l8 23 4 -23 c2 -13 1 -26 -2 -30z m44 -89 c0
-28 -4 -54 -8 -57 -4 -2 -8 26 -8 64 0 38 4 64 8 57 4 -6 8 -35 8 -64z m194
55 c-13 -46 -23 -55 -24 -22 0 31 6 44 22 44 5 0 6 -10 2 -22z m-311 -85 c15
-9 6 -24 -12 -18 -11 3 -22 1 -25 -4 -9 -13 20 -81 33 -81 15 0 14 -73 -1 -88
-9 -9 -8 -15 4 -24 16 -13 31 -68 18 -68 -11 0 -84 92 -98 123 -6 15 -12 36
-12 46 0 10 -7 24 -15 31 -22 18 -18 48 10 76 21 21 31 24 58 19 18 -4 35 -9
40 -12z m418 -12 c32 -33 36 -52 14 -71 -8 -7 -17 -28 -21 -49 -6 -34 -56
-114 -89 -141 -13 -11 -15 -9 -15 13 0 15 6 32 14 39 9 8 11 27 8 56 -3 28 1
56 13 82 19 43 15 73 -10 64 -8 -3 -15 -1 -15 5 0 12 34 29 58 30 8 1 27 -12
43 -28z m-341 -81 c0 -34 4 -42 25 -50 30 -11 32 -26 6 -33 -36 -9 -51 10 -51
68 0 30 5 55 10 55 6 0 10 -18 10 -40z m50 5 c0 -24 -5 -35 -15 -35 -17 0 -20
16 -5 25 6 3 10 15 10 26 0 10 2 19 5 19 3 0 5 -16 5 -35z m140 -25 c0 -57
-23 -80 -56 -55 -18 13 -18 14 9 24 23 9 27 16 27 51 0 25 4 39 10 35 6 -3 10
-28 10 -55z m-395 -77 c33 -72 31 -109 -3 -59 -22 32 -43 116 -29 116 3 0 17
-26 32 -57z m162 25 c-3 -7 -5 -2 -5 12 0 14 2 19 5 13 2 -7 2 -19 0 -25z
m260 0 c-3 -7 -5 -2 -5 12 0 14 2 19 5 13 2 -7 2 -19 0 -25z m193 7 c0 -30
-36 -105 -50 -105 -15 0 -12 22 10 65 11 22 20 45 20 52 0 7 5 13 10 13 6 0
10 -11 10 -25z m-316 -91 c-7 -36 -8 -37 -15 -14 -10 37 -10 52 1 45 6 -3 10
-1 10 6 0 7 3 10 6 7 3 -3 2 -23 -2 -44z m-89 -53 c14 -35 24 -66 21 -69 -7
-7 -7 -7 -33 48 -12 25 -25 59 -29 75 -11 47 10 19 41 -54z m193 28 c-14 -42
-49 -101 -55 -95 -5 5 35 104 50 124 16 20 18 8 5 -29z m-308 -43 c0 -8 -4
-18 -10 -21 -5 -3 -10 3 -10 14 0 12 5 21 10 21 6 0 10 -6 10 -14z m410 -8 c0
-19 -2 -20 -10 -8 -13 19 -13 30 0 30 6 0 10 -10 10 -22z m-330 -48 c0 -17
-19 -20 -34 -4 -21 21 -11 37 15 24 10 -6 19 -15 19 -20z m280 15 c0 -8 -9
-19 -19 -25 -27 -14 -40 9 -16 27 24 17 35 17 35 -2z m-348 -152 c19 -88 9
-86 -16 3 -17 65 -20 92 -8 80 4 -4 14 -41 24 -83z m392 26 c-34 -113 -46
-115 -18 -4 9 36 20 62 25 60 4 -3 1 -28 -7 -56z m-269 41 c3 -6 -1 -13 -10
-16 -19 -8 -30 0 -20 15 8 14 22 14 30 1z m165 -15 c0 -3 -9 -5 -20 -5 -11 0
-20 7 -20 15 0 13 4 14 20 5 11 -6 20 -13 20 -15z m49 -79 c-14 -51 -32 -70
-55 -58 -10 6 -27 13 -37 16 -23 7 -18 40 6 44 10 2 24 -4 31 -14 12 -16 14
-15 29 7 10 13 17 42 18 64 l1 40 8 -33 c4 -19 4 -48 -1 -66z m-286 -3 c10
-15 37 -17 37 -3 0 16 37 11 44 -6 10 -27 7 -34 -18 -34 -14 0 -28 -4 -31 -10
-3 -5 -10 -10 -15 -10 -14 0 -40 79 -39 118 l2 37 6 -40 c4 -22 10 -46 14 -52z
m458 -46 c-7 -7 -15 -6 -26 3 -21 17 -19 25 8 37 18 9 23 7 25 -10 2 -10 -1
-24 -7 -30z m-601 -2 c0 -26 -14 -33 -25 -15 -9 14 1 40 15 40 5 0 10 -11 10
-25z m660 -86 c0 -11 -4 -17 -10 -14 -5 3 -10 13 -10 21 0 8 5 14 10 14 6 0
10 -9 10 -21z m-757 -45 c-9 -15 -19 -21 -21 -15 -4 13 16 41 29 41 5 0 2 -12
-8 -26z m810 -164 c146 -282 169 -325 178 -334 12 -13 12 -29 -1 -21 -8 5
-103 117 -238 282 -42 51 -43 53 -32 93 6 22 8 56 4 74 -5 29 2 64 11 54 1 -2
36 -68 78 -148z m-849 33 c-140 -260 -234 -424 -234 -408 0 13 121 406 131
426 4 8 26 21 48 28 23 6 53 24 68 39 44 44 39 10 -13 -85z m416 36 c0 8 2 12
5 9 3 -3 2 -13 -1 -22 -5 -14 -9 -15 -15 -4 -5 7 -9 18 -9 23 0 6 5 3 10 -5 8
-12 10 -12 10 -1z m-145 -41 c5 -36 -3 -68 -49 -198 -30 -85 -55 -150 -55
-145 -1 6 17 92 39 193 22 100 40 184 40 187 0 3 4 5 9 5 6 0 13 -19 16 -42z
m101 -71 c-12 -31 -12 -56 0 -199 7 -89 13 -179 13 -198 -1 -30 -78 312 -79
347 0 14 70 96 77 89 2 -2 -2 -20 -11 -39z"/>
<path d="M1112 2760 c0 -14 2 -19 5 -12 2 6 2 18 0 25 -3 6 -5 1 -5 -13z"/>
<path d="M1382 2715 c0 -16 2 -22 5 -12 2 9 2 23 0 30 -3 6 -5 -1 -5 -18z"/>
<path d="M1123 2620 c0 -25 2 -35 4 -22 2 12 2 32 0 45 -2 12 -4 2 -4 -23z"/>
<path d="M1393 2520 c0 -36 2 -50 4 -32 2 17 2 47 0 65 -2 17 -4 3 -4 -33z"/>
<path d="M1134 2385 c0 -49 1 -71 3 -48 2 23 2 64 0 90 -2 26 -3 8 -3 -42z"/>
<path d="M1483 665 c0 -22 2 -30 4 -17 2 12 2 30 0 40 -3 9 -5 -1 -4 -23z"/>
<path d="M1492 590 c0 -19 2 -27 5 -17 2 9 2 25 0 35 -3 9 -5 1 -5 -18z"/>
</g>
</svg>
