<?xml version="1.0" standalone="no"?>
<!DOCTYPE svg PUBLIC "-//W3C//DTD SVG 20010904//EN"
 "http://www.w3.org/TR/2001/REC-SVG-20010904/DTD/svg10.dtd">
<svg version="1.0" xmlns="http://www.w3.org/2000/svg"
 width="244.000000pt" height="305.000000pt" viewBox="0 0 244.000000 305.000000"
 preserveAspectRatio="xMidYMid meet">
<metadata>
Created by potrace 1.16, written by Peter Selinger 2001-2019
</metadata>
<g transform="translate(0.000000,305.000000) scale(0.100000,-0.100000)"
fill="#000000" stroke="none">
<path d="M927 2903 c-4 -5 -4 -21 -1 -34 9 -39 15 -911 7 -942 l-8 -27 -39 32
-39 32 7 190 c7 185 14 277 35 456 6 47 13 105 16 130 4 42 4 43 -5 10 -42
-160 -82 -830 -50 -830 5 0 25 -13 43 -30 19 -16 38 -30 43 -30 4 0 21 12 36
27 l28 27 21 -21 21 -20 -36 -7 c-36 -7 -52 -25 -66 -75 -6 -26 -7 -26 -25 12
-17 37 -58 67 -90 67 -25 0 -65 -46 -65 -75 0 -23 4 -25 39 -25 32 0 46 -6 70
-32 33 -35 40 -72 17 -81 -15 -6 -15 -73 -2 -322 4 -87 4 -90 -3 -29 -15 124
-25 180 -28 162 -3 -9 -16 -18 -30 -20 -14 -2 -35 -15 -46 -29 -20 -28 -20
-25 10 -146 9 -40 -17 -25 -37 20 -25 55 -25 118 0 159 11 18 20 41 20 50 0
22 -30 38 -70 38 -71 0 -88 -45 -55 -140 8 -23 15 -60 15 -82 0 -78 -17 -94
-260 -250 -58 -38 -109 -68 -115 -68 -5 0 51 61 125 135 l135 136 39 -7 39 -6
-6 77 c-4 43 -7 93 -7 112 0 23 -4 32 -11 27 -8 -5 -10 -34 -5 -96 l6 -90 -28
6 c-25 6 -43 -10 -207 -174 -99 -99 -175 -180 -169 -180 6 0 83 27 170 59 88
32 184 68 214 79 43 15 56 25 58 43 2 13 7 28 11 32 11 11 61 -10 61 -25 0 -8
-20 -47 -44 -88 -24 -41 -40 -76 -36 -78 4 -2 42 18 83 44 42 25 80 43 86 39
6 -3 11 -17 11 -30 0 -18 -8 -28 -33 -38 -31 -13 -34 -20 -70 -148 -79 -275
-118 -422 -115 -430 3 -8 178 203 255 306 36 48 53 62 53 43 0 -7 -11 -78 -25
-158 -13 -80 -24 -152 -24 -160 0 -8 49 83 109 203 102 206 108 220 98 254
-13 49 1 62 46 40 19 -9 42 -28 52 -41 16 -25 15 -27 -13 -62 l-29 -37 17 -96
c10 -53 34 -186 54 -296 47 -259 47 -262 51 -250 8 22 114 618 114 638 0 11
-12 33 -27 49 -23 24 -25 31 -14 51 15 28 37 42 80 52 l34 7 -7 -54 c-7 -54
-6 -56 99 -272 58 -120 108 -216 111 -213 3 2 -9 83 -25 178 -17 95 -29 175
-27 177 2 1 19 -16 37 -40 86 -109 252 -309 255 -306 4 4 -28 127 -87 338 -64
225 -63 225 -87 228 -11 2 -26 9 -32 17 -12 15 -5 55 10 55 9 0 102 -51 168
-92 17 -11 32 -16 32 -11 0 5 -25 51 -56 102 -45 74 -54 95 -43 102 23 15 44
5 47 -22 2 -21 12 -29 50 -41 61 -21 205 -75 262 -98 25 -10 63 -23 84 -29
l39 -10 -34 37 c-19 20 -95 99 -169 175 -123 126 -138 138 -163 133 l-28 -6 7
90 c8 114 -7 119 -24 8 -7 -46 -15 -96 -18 -113 -4 -29 1 -34 157 -140 158
-108 207 -147 164 -131 -11 4 -84 33 -163 64 l-143 57 6 33 c5 28 2 38 -20 58
-26 24 -27 29 -22 92 2 37 11 92 18 123 11 51 11 60 -4 83 -22 32 -73 35 -108
7 l-24 -20 23 -40 c27 -48 29 -118 6 -168 -25 -51 -40 -28 -24 37 9 38 9 57 1
78 -13 30 -70 69 -72 49 -2 -28 -22 63 -26 123 -3 36 -9 69 -14 75 -18 18 -9
57 21 87 26 25 36 30 65 25 42 -7 52 13 27 56 -34 60 -110 48 -139 -21 l-16
-37 -14 47 c-13 46 -38 66 -69 56 -5 -2 -10 0 -12 5 -12 37 34 37 64 0 l22
-27 36 32 c20 18 42 32 48 32 16 0 4 493 -16 643 -19 142 -57 350 -63 343 -2
-2 -4 -227 -3 -500 0 -280 -3 -496 -8 -496 -25 0 -42 40 -44 101 -2 63 -2 63
-5 12 -2 -30 -9 -53 -15 -53 -11 0 -10 44 12 430 5 91 14 198 20 237 6 40 10
81 8 90 -3 10 -11 -25 -19 -77 -12 -87 -14 -92 -20 -55 -6 30 -7 22 -6 -35 2
-155 -16 -631 -24 -636 -5 -3 -9 10 -9 28 0 18 -1 236 -1 483 0 424 -8 521
-24 307 -4 -48 -8 -94 -11 -102 -2 -8 -8 -127 -14 -265 -11 -290 -19 -377 -31
-369 -5 3 -9 27 -9 55 0 37 -4 49 -15 49 -12 0 -15 16 -15 83 0 131 -53 438
-70 406 -16 -29 -51 -242 -59 -351 -4 -62 -13 -123 -19 -135 -7 -12 -12 -44
-12 -72 0 -49 -19 -74 -21 -28 -1 12 -5 85 -8 162 -7 134 -8 136 -9 43 -1 -53
-6 -99 -11 -102 -5 -3 -12 -43 -16 -88 -18 -198 -24 -90 -22 374 1 273 -1 489
-4 480 -4 -9 -12 -82 -18 -162 -18 -212 -21 -215 -47 -44 -24 161 -47 254 -57
237z m265 -823 c-4 -156 -9 -215 -13 -175 -3 33 -2 130 2 215 5 85 9 166 9
179 0 13 2 22 4 20 2 -2 1 -110 -2 -239z m212 -221 c-3 -5 -10 -7 -15 -3 -5 3
-7 10 -3 15 3 5 10 7 15 3 5 -3 7 -10 3 -15z m-314 7 c0 -3 -4 -8 -10 -11 -5
-3 -10 -1 -10 4 0 6 5 11 10 11 6 0 10 -2 10 -4z m30 -127 c-12 -22 -30 -25
-30 -6 0 17 21 38 32 31 4 -3 3 -14 -2 -25z m254 12 c12 -13 14 -21 6 -26 -13
-8 -40 12 -40 31 0 20 14 17 34 -5z m-354 -22 c7 -12 9 -41 4 -75 -7 -60 -24
-74 -24 -20 0 21 -6 36 -15 40 -17 6 -19 29 -5 57 14 25 27 24 40 -2z m470 -9
c11 -26 10 -33 -3 -48 -8 -9 -17 -28 -20 -42 -4 -25 -4 -24 -6 3 0 15 -5 27
-11 27 -13 0 -13 46 0 71 15 27 26 24 40 -11z m-304 -88 c-13 -12 -17 8 -10
40 l9 33 3 -33 c2 -19 1 -36 -2 -40z m-31 -2 c3 -10 14 -20 24 -23 9 -2 26
-21 36 -42 l18 -39 19 38 c11 21 28 41 39 43 10 3 19 11 19 18 0 6 8 19 18 29
18 15 20 15 37 -4 12 -13 15 -27 11 -45 -6 -22 -11 -25 -42 -21 -47 6 -79 -24
-89 -85 l-8 -44 -14 50 c-20 66 -28 75 -72 75 -57 0 -81 39 -45 75 18 18 39 7
49 -25z m-196 -54 c10 -24 43 -75 71 -112 35 -45 48 -70 39 -73 -29 -9 -139
153 -139 205 0 34 6 30 29 -20z m135 -74 c21 -40 14 -54 -9 -19 -20 30 -35 84
-34 117 1 18 4 12 13 -20 7 -25 21 -60 30 -78z m305 11 c-11 -26 -23 -42 -26
-35 -3 7 2 23 10 35 8 12 18 43 23 67 8 43 9 43 12 13 2 -19 -6 -53 -19 -80z
m137 73 c-9 -47 -33 -93 -75 -143 -73 -88 -84 -56 -12 36 27 35 54 81 60 102
15 49 36 53 27 5z m-378 -91 c7 -14 12 -29 12 -33 -1 -10 -40 38 -40 49 0 18
17 8 28 -16z m168 -11 c-10 -14 -20 -23 -23 -20 -3 3 2 17 11 32 10 14 20 23
23 20 3 -3 -2 -17 -11 -32z m219 -116 c-4 -15 -10 -26 -15 -23 -9 6 -11 75 -2
89 10 16 23 -37 17 -66z m-595 17 c0 -25 -4 -45 -10 -45 -11 0 -14 73 -3 83
11 12 13 8 13 -38z m230 -10 c0 -8 -4 -15 -9 -15 -13 0 -22 16 -14 24 11 11
23 6 23 -9z m131 -8 c-13 -13 -26 -3 -16 12 3 6 11 8 17 5 6 -4 6 -10 -1 -17z
m-271 -76 c-7 -26 2 -64 21 -88 8 -9 17 -10 29 -3 15 8 17 16 9 47 -5 21 -9
41 -9 46 0 4 19 6 43 6 23 -1 35 -3 26 -6 -18 -4 -32 -40 -23 -55 3 -5 17 -13
31 -19 18 -6 24 -15 21 -32 -2 -12 -9 -22 -15 -21 -7 1 -38 2 -69 3 -53 1 -56
2 -70 36 -15 36 -18 92 -8 120 11 27 23 -3 14 -34z m405 -67 c-8 -44 -20 -52
-95 -56 -63 -3 -65 -2 -65 22 0 18 7 26 25 30 30 7 38 40 16 63 -14 13 -12 15
14 19 17 3 32 2 35 0 3 -3 2 -27 -1 -52 -8 -57 8 -73 40 -41 16 17 21 32 19
68 -1 26 1 52 5 58 9 14 15 -71 7 -111z m218 -5 c-17 -29 -33 -38 -33 -19 0
18 32 60 41 54 5 -3 2 -19 -8 -35z m-803 -78 c0 -21 -16 -2 -24 29 -7 24 -6
24 8 6 9 -11 16 -27 16 -35z m622 27 c-7 -7 -12 -8 -12 -2 0 14 12 26 19 19 2
-3 -1 -11 -7 -17z m113 -116 l-7 -78 113 -229 c61 -127 114 -234 116 -240 8
-19 -49 51 -147 180 -54 72 -103 141 -108 155 -20 54 8 290 34 290 4 0 3 -35
-1 -78z m189 17 c20 -33 36 -63 36 -67 0 -3 -25 18 -55 48 -57 57 -68 80 -36
80 12 0 31 -21 55 -61z m-885 -37 c1 -34 -11 -66 -53 -145 -29 -56 -86 -166
-126 -245 -74 -144 -97 -179 -79 -120 5 18 23 80 39 138 79 282 70 263 120
287 48 23 57 40 59 110 1 42 21 63 33 34 4 -9 7 -35 7 -59z m-122 51 c4 -11
-98 -86 -105 -78 -3 2 13 24 34 49 37 44 63 54 71 29z m469 -128 c8 10 14 23
14 29 0 5 3 7 6 4 6 -7 -22 -78 -31 -78 -6 0 -35 64 -35 77 1 4 8 -5 17 -21
15 -28 16 -29 29 -11z m253 -16 c33 -12 37 -22 21 -64 -8 -22 -6 -32 10 -56
14 -18 30 -75 46 -156 26 -139 30 -192 9 -128 -63 192 -125 389 -125 401 0 17
-1 17 39 3z m-465 -15 c14 -35 4 -89 -27 -157 -87 -188 -121 -257 -123 -254
-3 2 97 342 121 415 6 17 22 15 29 -4z m138 -113 c-4 -12 -2 -74 5 -139 20
-199 11 -197 -22 4 -18 109 -18 111 1 136 22 30 28 30 16 -1z"/>
<path d="M1511 2824 c0 -11 3 -14 6 -6 3 7 2 16 -1 19 -3 4 -6 -2 -5 -13z"/>
<path d="M912 2810 c0 -14 2 -19 5 -12 2 6 2 18 0 25 -3 6 -5 1 -5 -13z"/>
<path d="M1062 2800 c0 -14 2 -19 5 -12 2 6 2 18 0 25 -3 6 -5 1 -5 -13z"/>
<path d="M1502 2765 c0 -16 2 -22 5 -12 2 9 2 23 0 30 -3 6 -5 -1 -5 -18z"/>
<path d="M1442 2675 c0 -16 2 -22 5 -12 2 9 2 23 0 30 -3 6 -5 -1 -5 -18z"/>
<path d="M1081 2574 c0 -11 3 -14 6 -6 3 7 2 16 -1 19 -3 4 -6 -2 -5 -13z"/>
<path d="M1093 2450 c0 -30 2 -43 4 -27 2 15 2 39 0 55 -2 15 -4 2 -4 -28z"/>
</g>
</svg>
