<?xml version="1.0" standalone="no"?>
<!DOCTYPE svg PUBLIC "-//W3C//DTD SVG 20010904//EN"
 "http://www.w3.org/TR/2001/REC-SVG-20010904/DTD/svg10.dtd">
<svg version="1.0" xmlns="http://www.w3.org/2000/svg"
 width="244.000000pt" height="305.000000pt" viewBox="0 0 244.000000 305.000000"
 preserveAspectRatio="xMidYMid meet">
<metadata>
Created by potrace 1.16, written by Peter Selinger 2001-2019
</metadata>
<g transform="translate(0.000000,305.000000) scale(0.100000,-0.100000)"
fill="#000000" stroke="none">
<path d="M1006 2879 c-3 -17 -6 -44 -6 -60 0 -48 -17 -33 -24 21 -13 97 -21
48 -18 -112 1 -90 -1 -304 -5 -476 -4 -173 -4 -320 0 -328 15 -26 -1 -27 -32
-3 l-30 24 0 170 c-1 94 6 249 14 345 7 96 12 176 11 178 -13 12 -35 -262 -41
-510 -5 -206 -5 -201 39 -232 27 -19 11 -36 -34 -36 -47 0 -80 -30 -80 -73 0
-27 2 -28 30 -22 38 8 72 -12 89 -54 11 -25 10 -33 -3 -53 -24 -34 -17 -86 27
-188 5 -10 -1 -19 -19 -27 -30 -14 -40 1 -30 41 10 41 -14 54 -98 54 -41 0
-82 -5 -90 -12 -23 -17 -27 -61 -11 -114 33 -106 12 -163 -91 -248 -56 -47
-195 -142 -222 -151 -9 -3 8 20 38 53 30 33 84 92 119 132 62 71 65 73 101 67
l37 -6 -5 98 c-2 54 -9 103 -14 108 -7 7 -9 -20 -5 -82 l6 -92 -27 5 c-27 6
-49 -15 -175 -160 -56 -64 -84 -95 -120 -133 -23 -24 -38 -45 -35 -48 3 -3 26
4 52 16 78 34 176 68 176 60 0 -4 -11 -23 -25 -41 -14 -19 -21 -36 -16 -38 10
-3 269 123 286 139 19 18 43 8 59 -25 23 -49 21 -73 -9 -80 -33 -8 -40 -24
-74 -163 -17 -65 -46 -181 -66 -258 -19 -76 -34 -143 -32 -148 1 -4 33 33 71
83 37 51 70 89 73 86 3 -3 -5 -46 -17 -95 -12 -50 -20 -95 -18 -101 2 -6 63
93 137 221 129 225 132 233 123 269 -13 54 -4 64 55 57 36 -5 55 -14 76 -38
27 -29 27 -32 12 -52 -41 -57 -41 -52 9 -360 62 -378 60 -370 75 -282 43 251
91 553 91 574 0 14 -12 38 -27 53 l-27 28 21 28 c26 36 59 52 107 52 l39 0 -7
-50 c-6 -47 -4 -55 38 -123 24 -41 53 -89 63 -108 47 -87 136 -229 141 -225 2
3 -1 34 -8 70 -7 36 -10 70 -8 76 2 6 34 -29 71 -79 70 -94 93 -118 83 -85 -3
11 -35 136 -71 279 -64 252 -77 285 -111 285 -28 0 -25 59 6 100 l18 24 142
-73 c78 -40 144 -70 147 -68 5 6 -26 58 -41 69 -6 4 -8 9 -6 11 4 4 77 -22
243 -88 20 -8 37 -11 37 -7 -1 4 -21 30 -46 57 -26 28 -96 106 -157 173 -101
113 -113 123 -138 118 l-28 -5 6 96 c5 72 3 94 -5 89 -7 -4 -12 -28 -12 -54
-1 -26 -7 -75 -14 -110 l-14 -63 72 -55 c39 -30 115 -89 170 -130 54 -40 94
-74 90 -74 -15 0 -211 85 -227 98 -8 7 -38 47 -67 89 -64 92 -71 130 -43 229
30 105 5 149 -75 130 -34 -8 -40 -8 -75 0 -44 10 -60 -10 -51 -70 6 -50 6 -51
-13 -33 -11 9 -25 17 -32 17 -9 0 -11 6 -6 18 46 104 55 165 29 193 -14 16
-15 23 -4 49 16 40 46 60 87 60 29 0 33 3 33 25 0 14 -11 37 -25 51 -22 22
-31 24 -70 18 -55 -8 -58 5 -10 42 l35 26 0 117 c0 201 -29 532 -65 757 -8 51
-15 97 -15 101 0 4 -4 3 -10 -3 -6 -6 -7 -27 -2 -52 4 -23 4 -131 1 -240 -3
-108 -4 -303 -1 -433 l5 -237 -22 -7 c-13 -4 -28 -2 -33 3 -12 12 -4 596 9
667 l7 40 6 -35 c4 -19 6 11 6 67 0 56 -3 100 -8 97 -4 -3 -8 -29 -9 -57 0
-29 -5 -61 -10 -72 -6 -13 -8 26 -6 112 1 72 1 130 0 129 -18 -18 -52 -346
-62 -594 -5 -117 -12 -216 -15 -219 -3 -4 -6 1 -6 11 0 11 -7 16 -17 14 -26
-4 -33 -18 -33 -68 0 -25 -5 -52 -10 -60 -7 -10 -10 17 -10 85 0 164 -37 492
-60 534 -10 18 -14 5 -34 -109 -23 -134 -28 -184 -35 -360 -7 -158 -12 -173
-26 -66 -5 35 -9 45 -16 35 -6 -10 -9 -10 -9 -1 0 6 -3 12 -7 12 -11 0 -33
-50 -33 -76 0 -42 -13 -84 -25 -84 -9 0 -13 41 -14 168 -1 92 -6 235 -11 317
-21 341 -23 418 -9 410 8 -6 10 -4 4 6 -5 7 -8 26 -7 41 3 38 -4 35 -12 -3z
m77 -989 c4 -17 0 -20 -25 -20 -30 0 -31 0 -13 20 10 11 21 20 25 20 4 0 10
-9 13 -20z m347 -10 c0 -4 -13 -10 -29 -12 -28 -4 -29 -4 -14 19 12 18 19 21
29 12 8 -6 14 -15 14 -19z m-425 -18 c0 -18 -20 -15 -23 4 -3 10 1 15 10 12 7
-3 13 -10 13 -16z m491 7 c3 -6 1 -16 -5 -22 -9 -9 -14 -8 -21 3 -9 15 -4 30
10 30 5 0 12 -5 16 -11z m-366 -122 c0 -9 -11 -13 -30 -12 -26 2 -30 -2 -30
-22 0 -54 46 -83 78 -51 9 9 12 6 12 -15 0 -16 8 -30 21 -37 11 -7 27 -27 35
-46 8 -19 16 -34 19 -34 3 0 11 15 19 34 8 19 24 39 35 46 13 7 21 21 21 37 0
21 3 24 12 15 29 -29 78 0 78 46 0 23 -4 27 -30 27 -16 0 -30 5 -30 10 0 6 14
10 32 10 24 0 36 -6 47 -26 13 -23 13 -30 -2 -62 -9 -19 -17 -49 -17 -65 0
-39 -14 -48 -42 -28 -12 9 -30 16 -40 16 -25 0 -57 -38 -69 -85 l-11 -40 -26
58 c-28 66 -55 80 -98 52 -31 -20 -40 -12 -50 45 -3 19 -10 45 -16 57 -8 16
-7 30 2 52 10 26 18 31 46 31 22 0 34 -5 34 -13z m-156 -177 c4 -31 3 -40 -4
-30 -5 8 -10 30 -10 49 0 45 6 37 14 -19z m540 13 c-4 -21 -13 -47 -21 -58
-14 -19 -15 -18 -9 9 4 15 10 41 13 57 3 16 10 29 15 29 5 0 6 -16 2 -37z
m-361 -71 c9 -10 19 -34 23 -53 l5 -34 -40 44 c-23 24 -41 47 -41 52 0 16 36
9 53 -9z m206 -4 c-7 -13 -25 -38 -40 -56 -26 -29 -29 -30 -29 -12 0 26 25 77
42 83 31 13 39 8 27 -15z m316 -205 c-3 -24 -11 -43 -17 -43 -7 0 -7 13 -2 38
5 20 9 62 10 92 1 30 3 60 5 65 6 21 10 -112 4 -152z m-859 -38 c-6 -17 -24
39 -31 97 -12 95 8 92 22 -2 7 -47 11 -89 9 -95z m177 109 c-10 -25 -23 -15
-23 19 1 30 2 31 15 14 7 -11 11 -25 8 -33z m371 25 c-17 -19 -65 -49 -79 -49
-3 0 -5 9 -5 19 0 13 5 18 18 15 9 -3 31 5 47 16 38 25 43 25 19 -1z m132 -37
c-12 -12 -18 8 -10 35 l8 28 4 -28 c2 -16 1 -31 -2 -35z m-361 31 c31 -15 37
-15 45 -3 7 11 10 6 10 -17 l0 -33 -50 31 c-45 28 -58 39 -45 39 2 0 20 -8 40
-17z m562 -45 c-3 -7 -5 -2 -5 12 0 14 2 19 5 13 2 -7 2 -19 0 -25z m-565 -45
c23 -4 26 -8 18 -24 -16 -30 -11 -49 15 -59 17 -7 25 -17 25 -34 0 -30 -36
-42 -58 -20 -15 15 -28 15 -93 -1 -19 -5 -28 -2 -32 9 -5 13 1 16 29 16 41 0
49 14 35 65 -12 44 -5 69 18 60 9 -4 28 -9 43 -12z m58 7 c0 -5 -5 -10 -11
-10 -5 0 -7 5 -4 10 3 6 8 10 11 10 2 0 4 -4 4 -10z m105 0 c3 -5 1 -10 -4
-10 -6 0 -11 5 -11 10 0 6 2 10 4 10 3 0 8 -4 11 -10z m108 -4 c3 -7 2 -31 -3
-52 -10 -45 1 -64 36 -64 13 0 24 -4 24 -9 0 -19 -20 -22 -59 -10 -34 10 -44
9 -65 -4 -31 -21 -56 -12 -56 19 0 17 8 28 26 34 23 9 26 15 20 40 -5 27 -2
32 27 44 41 19 44 19 50 2z m142 -91 c-27 -55 -35 -41 -11 19 13 35 22 48 24
36 2 -11 -4 -35 -13 -55z m-606 -10 c0 -5 -6 1 -14 15 -8 14 -14 30 -14 35 0
6 6 -1 14 -15 8 -14 14 -29 14 -35z m-187 -61 c17 -9 26 -19 22 -24 -17 -16
-226 -131 -230 -127 -7 7 85 85 117 99 16 7 29 20 29 28 0 14 18 40 27 40 2 0
18 -7 35 -16z m1032 0 c4 -10 1 -14 -6 -12 -15 5 -23 28 -10 28 5 0 13 -7 16
-16z m47 -16 c10 -18 9 -20 -6 -15 -9 4 -19 7 -21 7 -2 0 -4 7 -4 15 0 22 18
18 31 -7z m-258 -60 c-7 -60 -13 -79 -24 -72 -9 5 -7 37 7 87 9 30 21 19 17
-15z m-659 -4 c3 -9 6 -31 6 -50 0 -26 -4 -34 -17 -34 -15 0 -17 8 -15 50 4
50 14 64 26 34z m291 -47 c16 -78 30 -91 50 -44 8 20 15 45 15 56 0 28 10 51
23 51 7 0 7 -4 -1 -12 -7 -7 -12 -28 -12 -47 0 -38 -28 -104 -45 -105 -16 -2
-45 66 -45 105 0 19 -6 41 -12 48 -11 11 -10 13 1 9 9 -2 19 -28 26 -61z m663
47 c12 -8 27 -24 33 -36 l11 -21 -29 21 c-35 25 -59 52 -46 52 5 0 19 -7 31
-16z m-996 -110 c14 -13 -76 -272 -102 -294 -3 -3 -17 -30 -29 -60 -24 -56
-51 -102 -51 -86 0 5 4 25 10 45 5 20 31 112 56 206 25 93 46 171 48 172 3 3
50 22 57 22 3 1 8 -2 11 -5z m695 -16 c14 -18 56 -194 51 -210 -7 -18 -88 110
-88 137 0 35 12 85 20 85 4 0 12 -6 17 -12z m-573 -14 c13 -33 5 -95 -16 -131
-44 -79 -89 -160 -124 -226 -20 -37 -39 -65 -41 -63 -5 5 24 92 52 160 19 44
60 111 88 143 16 18 19 32 14 72 -3 27 -3 52 0 55 11 10 21 7 27 -10z m718
-278 c37 -82 66 -151 64 -153 -3 -3 -17 15 -33 39 -15 23 -33 49 -40 55 -42
46 -83 160 -82 233 l0 25 11 -25 c6 -14 42 -92 80 -174z m-67 -35 c14 -39 17
-88 5 -73 -11 12 -50 123 -50 140 0 24 27 -17 45 -67z"/>
<path d="M1491 2824 c0 -11 3 -14 6 -6 3 7 2 16 -1 19 -3 4 -6 -2 -5 -13z"/>
<path d="M1032 2790 c0 -14 2 -19 5 -12 2 6 2 18 0 25 -3 6 -5 1 -5 -13z"/>
<path d="M932 2760 c0 -14 2 -19 5 -12 2 6 2 18 0 25 -3 6 -5 1 -5 -13z"/>
<path d="M922 2690 c0 -19 2 -27 5 -17 2 9 2 25 0 35 -3 9 -5 1 -5 -18z"/>
<path d="M1042 2690 c0 -19 2 -27 5 -17 2 9 2 25 0 35 -3 9 -5 1 -5 -18z"/>
<path d="M1052 2605 c0 -22 3 -65 8 -95 6 -48 7 -50 8 -15 0 22 -3 65 -8 95
-6 48 -7 50 -8 15z"/>
<path d="M1493 2520 c0 -25 2 -35 4 -22 2 12 2 32 0 45 -2 12 -4 2 -4 -23z"/>
<path d="M1074 2260 c0 -69 1 -97 3 -62 2 34 2 90 0 125 -2 34 -3 6 -3 -63z"/>
</g>
</svg>
