<?xml version="1.0" standalone="no"?>
<!DOCTYPE svg PUBLIC "-//W3C//DTD SVG 20010904//EN"
 "http://www.w3.org/TR/2001/REC-SVG-20010904/DTD/svg10.dtd">
<svg version="1.0" xmlns="http://www.w3.org/2000/svg"
 width="244.000000pt" height="305.000000pt" viewBox="0 0 244.000000 305.000000"
 preserveAspectRatio="xMidYMid meet">
<metadata>
Created by potrace 1.16, written by Peter Selinger 2001-2019
</metadata>
<g transform="translate(0.000000,305.000000) scale(0.100000,-0.100000)"
fill="#000000" stroke="none">
<path d="M948 2905 c-3 -6 -9 -28 -12 -50 -4 -30 -3 -34 3 -15 6 15 9 -167 10
-457 1 -266 -1 -483 -3 -483 -2 0 -18 14 -36 30 l-32 30 1 133 c2 208 11 359
32 525 23 189 23 223 -2 77 -32 -190 -62 -775 -40 -775 6 0 26 -14 46 -31 l35
-31 30 26 c30 25 60 26 60 1 0 -7 -13 -15 -28 -18 -29 -6 -52 -40 -52 -77 0
-11 -4 -20 -10 -20 -5 0 -10 9 -10 21 0 28 -53 79 -82 79 -32 0 -68 -39 -68
-73 0 -24 4 -27 36 -27 27 0 43 -7 65 -31 33 -35 37 -60 13 -80 -13 -10 -15
-25 -11 -69 3 -30 2 -80 -2 -110 -5 -30 -9 -45 -10 -33 l-1 21 -39 -19 c-56
-27 -65 -64 -35 -139 12 -29 13 -45 6 -52 -17 -17 -43 36 -49 101 -5 49 -2 65
16 94 11 19 21 41 21 49 0 21 -41 40 -81 36 -46 -4 -61 -36 -47 -98 17 -75 21
-159 8 -189 -7 -18 -52 -57 -123 -108 -142 -100 -227 -155 -227 -147 0 4 57
67 127 141 l126 134 39 -6 39 -7 -7 79 c-11 131 -24 162 -21 50 l3 -98 -27 6
c-24 6 -42 -10 -193 -171 -91 -98 -164 -179 -162 -181 7 -7 390 141 414 160 6
5 12 20 12 33 0 21 2 22 30 13 17 -6 30 -13 30 -15 0 -3 -21 -41 -46 -85 -25
-45 -43 -83 -41 -85 3 -3 38 15 80 41 41 25 79 45 85 45 9 0 27 -49 20 -55 -2
-1 -17 -10 -34 -18 -30 -15 -33 -24 -77 -189 -69 -258 -97 -371 -97 -386 0
-13 28 16 60 64 46 67 223 294 226 291 2 -2 -7 -70 -21 -152 -15 -81 -25 -157
-23 -168 2 -13 24 26 57 99 30 65 74 161 99 212 40 84 43 97 37 142 -6 43 -4
50 10 50 33 0 94 -48 95 -74 0 -6 -12 -27 -26 -47 l-26 -37 16 -79 c8 -43 34
-186 56 -318 23 -132 43 -241 44 -243 4 -3 1 -17 60 338 26 151 48 283 50 293
2 10 -7 31 -21 47 -18 22 -23 37 -19 55 7 27 59 65 90 65 16 0 18 -6 12 -53
-7 -51 -4 -60 56 -188 35 -74 82 -173 103 -221 22 -47 42 -85 44 -82 4 4 -9
93 -35 238 -8 43 -14 88 -14 100 1 21 1 21 15 1 19 -26 82 -107 120 -156 17
-21 52 -67 79 -104 27 -36 51 -64 53 -61 4 4 -23 114 -87 356 -21 80 -41 158
-44 173 -5 20 -17 33 -41 43 -31 13 -35 17 -29 42 4 15 8 29 10 31 2 2 47 -24
101 -57 54 -33 99 -59 101 -57 3 3 -12 34 -72 140 -24 42 -30 62 -22 67 21 14
34 8 39 -20 5 -24 18 -32 119 -71 62 -24 150 -59 195 -78 45 -18 85 -33 88
-33 8 0 -27 42 -145 170 -47 52 -104 114 -125 138 -33 37 -42 42 -66 37 l-28
-6 6 92 c7 106 -10 120 -20 17 -4 -35 -9 -83 -13 -108 l-6 -45 161 -120 c88
-65 159 -120 157 -122 -4 -4 -284 110 -305 124 -2 1 1 15 7 32 9 25 7 32 -14
52 -34 32 -40 80 -20 163 22 96 21 142 -3 156 -26 13 -54 13 -86 -2 -30 -14
-32 -33 -5 -73 34 -52 22 -185 -18 -185 -10 0 -12 6 -8 23 18 57 18 107 2 132
-9 14 -23 25 -31 25 -8 0 -15 8 -16 18 0 14 -2 14 -8 -3 -7 -16 -9 -13 -15 20
-3 22 -9 67 -12 100 -4 33 -13 67 -21 77 -31 35 37 112 94 106 25 -3 28 0 25
22 -2 14 -8 35 -14 48 -10 19 -19 22 -52 20 -35 -3 -45 -9 -66 -42 l-25 -39
-6 38 c-7 44 -24 57 -61 49 -32 -6 -36 6 -12 31 16 15 19 14 48 -14 l32 -31
29 30 c16 16 35 30 43 30 13 0 14 36 9 263 -3 144 -11 289 -16 322 -5 33 -12
87 -16 120 -9 83 -14 119 -31 200 -8 39 -14 75 -15 80 0 6 -5 -3 -10 -20 -5
-18 -5 -33 1 -39 12 -12 14 -936 2 -936 -5 0 -17 9 -28 21 -18 20 -19 41 -19
368 0 190 -2 330 -5 311 l-6 -35 -6 35 c-4 19 -12 97 -19 173 -7 75 -14 135
-16 133 -3 -2 -4 -231 -4 -508 0 -472 -6 -568 -24 -392 -14 125 -24 131 -43
24 -9 -53 -9 -53 -11 -15 -2 50 -11 86 -21 80 -4 -2 -10 50 -14 116 -9 165
-51 406 -66 378 -22 -42 -59 -316 -60 -437 0 -35 -4 -61 -9 -58 -9 6 -20 -38
-22 -88 l-1 -31 -9 30 c-5 17 -13 147 -19 290 -9 245 -35 573 -45 584 -6 6 -6
46 -5 -502 1 -292 -3 -476 -8 -473 -6 3 -13 151 -17 332 -4 179 -10 321 -14
316 -4 -6 -15 53 -26 131 -20 156 -38 237 -47 222z m282 -866 c0 -383 -2 -429
-15 -415 -12 12 -15 59 -17 273 -2 239 -3 247 -8 103 l-6 -155 -1 155 c-1 153
11 340 16 255 4 -62 9 -31 16 98 4 64 9 117 11 117 2 0 4 -194 4 -431z m-130
-167 c0 -13 -12 -22 -22 -16 -10 6 -1 24 13 24 5 0 9 -4 9 -8z m294 -13 c-3
-5 -10 -7 -15 -3 -5 3 -7 10 -3 15 3 5 10 7 15 3 5 -3 7 -10 3 -15z m-23 -117
c6 -16 5 -22 -5 -22 -13 0 -26 21 -26 42 0 17 23 3 31 -20z m-241 14 c0 -2 -3
-11 -6 -20 -9 -23 -24 -20 -24 4 0 11 7 20 15 20 8 0 15 -2 15 -4z m-97 -47
c6 -23 5 -44 -4 -64 l-13 -30 -4 27 c-2 14 -9 32 -17 38 -10 9 -11 18 -3 41
13 38 30 33 41 -12z m447 -14 c0 -26 -18 -45 -36 -38 -17 6 -18 46 -3 75 11
21 12 21 25 3 8 -10 14 -28 14 -40z m-290 -25 c0 -16 -4 -30 -8 -30 -5 0 -7
14 -4 30 2 17 6 30 8 30 2 0 4 -13 4 -30z m-36 -29 c9 -16 22 -31 31 -35 9 -3
23 -22 31 -41 8 -19 16 -35 19 -35 3 0 11 15 19 34 8 19 24 39 35 46 12 6 21
17 21 25 0 8 9 19 19 24 25 14 44 -8 39 -46 -3 -25 -8 -28 -43 -31 -51 -4 -63
-15 -77 -69 l-11 -44 -17 51 c-9 28 -19 53 -22 55 -3 3 -25 6 -49 8 -40 3 -44
6 -47 31 -3 27 12 56 29 56 5 0 15 -13 23 -29z m-111 -180 c21 -29 37 -57 37
-62 0 -17 -41 12 -52 37 -6 13 -15 24 -19 24 -14 0 -59 105 -59 136 0 26 3 23
29 -26 15 -30 44 -79 64 -109z m56 40 c7 -12 10 -25 7 -28 -10 -11 -46 82 -45
117 1 33 2 32 14 -15 6 -28 17 -61 24 -74z m291 13 c-27 -63 -33 -53 -10 16
11 30 20 64 21 75 1 11 4 6 6 -12 3 -19 -4 -52 -17 -79z m130 86 c0 -27 -29
-99 -54 -133 -75 -102 -102 -94 -32 9 25 36 51 84 57 105 13 41 29 52 29 19z
m-360 -95 c6 -8 10 -22 8 -32 -3 -14 -8 -11 -21 15 -18 32 -9 44 13 17z m164
-17 c-10 -18 -19 -28 -21 -21 -5 15 15 53 28 53 5 0 2 -15 -7 -32z m206 -114
c0 -34 -4 -53 -10 -49 -5 3 -10 31 -10 61 0 34 4 53 10 49 6 -3 10 -31 10 -61z
m-570 11 c0 -25 -4 -45 -10 -45 -11 0 -14 49 -4 74 10 26 14 18 14 -29z m-63
-7 c-3 -8 -6 -5 -6 6 -1 11 2 17 5 13 3 -3 4 -12 1 -19z m288 1 c10 -15 -1
-23 -20 -15 -9 3 -13 10 -10 16 8 13 22 13 30 -1z m125 -4 c0 -8 -7 -15 -15
-15 -9 0 -12 6 -9 15 4 8 10 15 15 15 5 0 9 -7 9 -15z m-400 -37 c0 -19 -2
-20 -10 -8 -13 19 -13 30 0 30 6 0 10 -10 10 -22z m530 -55 c0 -75 -16 -107
-55 -110 -17 -1 -47 -4 -67 -7 -35 -6 -38 -5 -38 19 0 18 7 28 25 35 31 12 36
66 8 73 -10 3 -1 5 21 6 l39 1 -7 -49 c-8 -62 7 -76 41 -37 20 24 23 34 17 77
-5 34 -3 49 5 49 7 0 11 -21 11 -57z m-391 -3 c-2 -53 12 -80 43 -80 17 0 18
5 13 44 -9 56 -4 64 36 58 25 -4 29 -6 15 -14 -26 -14 -20 -57 9 -68 18 -7 25
-17 25 -35 0 -24 -18 -34 -34 -18 -3 4 -27 6 -52 6 -43 -1 -47 1 -60 33 -16
39 -19 124 -4 124 6 0 10 -21 9 -50z m-201 -55 c18 -39 14 -50 -8 -30 -20 18
-28 55 -12 55 5 0 14 -11 20 -25z m772 -34 c0 -6 -4 -13 -10 -16 -5 -3 -10 1
-10 9 0 9 5 16 10 16 6 0 10 -4 10 -9z m-605 -21 c3 -5 1 -10 -4 -10 -6 0 -11
5 -11 10 0 6 2 10 4 10 3 0 8 -4 11 -10z m560 -117 l-6 -88 105 -224 c58 -124
104 -226 102 -228 -4 -4 -121 155 -196 265 l-42 62 4 123 c4 105 18 177 35
177 2 0 1 -39 -2 -87z m-795 54 c0 -7 -21 -33 -47 -57 -29 -29 -41 -36 -31
-20 8 14 23 40 32 58 16 32 46 44 46 19z m960 -47 c29 -34 50 -63 47 -66 -3
-3 -29 13 -58 35 -30 23 -57 41 -61 41 -12 0 -9 25 4 38 7 7 13 12 14 12 1 0
26 -27 54 -60z m-826 34 c3 -9 6 -37 5 -62 0 -39 -20 -87 -119 -287 -65 -132
-119 -232 -119 -222 -1 10 10 60 24 110 14 51 33 119 42 152 33 127 44 155 61
155 9 0 29 10 44 23 23 18 28 31 29 72 3 56 7 75 19 75 4 0 11 -7 14 -16z
m326 -154 c6 0 10 8 10 17 0 9 3 13 7 10 7 -8 -16 -57 -27 -57 -7 0 -31 70
-29 86 0 5 7 -6 15 -23 8 -18 19 -33 24 -33z m-225 -32 c-4 -18 -20 -73 -36
-123 -16 -49 -41 -132 -55 -183 -15 -51 -28 -91 -30 -89 -4 3 7 74 36 236 6
30 17 62 25 71 10 11 13 27 8 53 -8 49 1 67 32 67 25 0 26 -2 20 -32z m451
-19 c7 -24 33 -116 58 -204 60 -208 60 -209 32 -150 -28 58 -107 235 -125 282
-15 38 -6 126 12 120 6 -2 16 -23 23 -48z m-237 -276 l-2 -268 -25 220 -25
220 23 48 c12 26 24 47 26 47 2 0 3 -120 3 -267z m-56 176 c-3 -22 0 -87 7
-145 7 -58 10 -107 8 -110 -3 -2 -14 53 -26 122 -19 115 -20 128 -5 150 8 13
17 24 18 24 2 0 1 -18 -2 -41z"/>
<path d="M1492 2800 c0 -14 2 -19 5 -12 2 6 2 18 0 25 -3 6 -5 1 -5 -13z"/>
<path d="M1392 2780 c0 -19 2 -27 5 -17 2 9 2 25 0 35 -3 9 -5 1 -5 -18z"/>
<path d="M1042 2745 c0 -16 2 -22 5 -12 2 9 2 23 0 30 -3 6 -5 -1 -5 -18z"/>
<path d="M1482 2745 c0 -16 2 -22 5 -12 2 9 2 23 0 30 -3 6 -5 -1 -5 -18z"/>
<path d="M1383 2685 c0 -22 2 -30 4 -17 2 12 2 30 0 40 -3 9 -5 -1 -4 -23z"/>
<path d="M1472 2680 c0 -14 2 -19 5 -12 2 6 2 18 0 25 -3 6 -5 1 -5 -13z"/>
<path d="M1033 2640 c0 -30 2 -43 4 -27 2 15 2 39 0 55 -2 15 -4 2 -4 -28z"/>
<path d="M1373 2555 c0 -27 2 -38 4 -22 2 15 2 37 0 50 -2 12 -4 0 -4 -28z"/>
<path d="M1363 2360 c0 -41 2 -58 4 -37 2 20 2 54 0 75 -2 20 -4 3 -4 -38z"/>
<path d="M1362 2215 c0 -16 2 -22 5 -12 2 9 2 23 0 30 -3 6 -5 -1 -5 -18z"/>
</g>
</svg>
