<?xml version="1.0" standalone="no"?>
<!DOCTYPE svg PUBLIC "-//W3C//DTD SVG 20010904//EN"
 "http://www.w3.org/TR/2001/REC-SVG-20010904/DTD/svg10.dtd">
<svg version="1.0" xmlns="http://www.w3.org/2000/svg"
 width="244.000000pt" height="305.000000pt" viewBox="0 0 244.000000 305.000000"
 preserveAspectRatio="xMidYMid meet">
<metadata>
Created by potrace 1.16, written by Peter Selinger 2001-2019
</metadata>
<g transform="translate(0.000000,305.000000) scale(0.100000,-0.100000)"
fill="#000000" stroke="none">
<path d="M1550 2893 c0 -12 -3 -30 -6 -40 -5 -15 -4 -15 5 -3 8 11 11 -120 11
-468 0 -266 -3 -482 -7 -480 -5 2 -26 14 -47 28 l-39 24 7 214 c7 199 31 455
56 581 12 64 12 101 -1 51 -36 -142 -67 -467 -70 -735 -1 -134 -1 -140 20
-151 12 -6 32 -21 45 -33 28 -26 38 -26 60 -2 10 11 31 25 48 32 l31 13 -6
210 c-8 245 -26 425 -62 621 -24 128 -45 193 -45 138z"/>
<path d="M908 2399 c2 -276 -1 -499 -5 -497 -62 29 -72 42 -75 103 -5 109 12
418 32 579 12 87 19 160 17 163 -6 6 -35 -194 -47 -318 -5 -59 -12 -197 -16
-308 -7 -191 -6 -201 12 -207 10 -4 34 -20 53 -36 l33 -29 27 24 c14 14 37 30
50 37 l24 12 -6 242 c-5 221 -21 393 -48 536 -19 103 -43 200 -48 200 -3 0 -5
-225 -3 -501z"/>
<path d="M1141 2884 c0 -11 3 -14 6 -6 3 7 2 16 -1 19 -3 4 -6 -2 -5 -13z"/>
<path d="M1321 2835 c-1 -11 -3 -211 -3 -445 0 -339 -2 -392 -8 -261 -8 164
-28 304 -59 416 l-17 60 -21 -80 c-12 -44 -25 -102 -29 -130 -7 -39 -11 2 -20
185 l-11 235 -2 -455 c-1 -261 -6 -464 -12 -475 -8 -17 -9 -17 -4 5 3 14 -2
45 -10 70 -8 25 -17 66 -20 93 -4 29 -11 47 -19 47 -10 0 -18 -30 -27 -101
l-13 -102 27 -23 c15 -13 27 -30 27 -39 0 -21 -12 -19 -33 5 -16 19 -41 25
-77 20 -25 -3 -59 -41 -66 -73 l-6 -31 -15 30 c-29 56 -53 74 -100 74 -34 0
-46 -5 -59 -24 -8 -14 -14 -35 -12 -48 2 -19 8 -22 35 -20 41 4 69 -11 93 -51
19 -31 19 -31 -1 -63 -17 -28 -18 -38 -8 -82 6 -30 28 -75 55 -114 49 -71 52
-80 26 -106 -32 -32 -52 -66 -52 -87 0 -33 45 -69 85 -69 40 0 42 -5 16 -37
-16 -20 -22 -22 -44 -12 -15 7 -40 32 -58 55 -25 35 -30 50 -25 77 3 19 1 53
-4 75 -5 23 -11 53 -14 68 -7 33 -32 40 -69 19 -59 -33 -50 -84 41 -240 84
-146 87 -178 25 -286 -126 -218 -213 -375 -213 -383 0 -5 -8 -16 -17 -23 -14
-12 -16 -12 -11 1 11 29 87 276 109 352 l22 76 44 13 c52 14 64 36 64 116 0
60 -7 77 -67 155 -79 101 -91 156 -49 223 13 22 25 48 25 57 0 23 -30 38 -78
38 -69 0 -87 -45 -57 -144 34 -112 14 -160 -96 -225 -117 -71 -291 -171 -296
-171 -5 0 212 209 255 245 28 23 39 27 73 21 l40 -6 -7 87 c-10 130 -25 157
-20 40 l3 -97 -31 5 c-35 7 -19 20 -249 -198 -81 -77 -146 -142 -143 -144 2
-2 108 31 235 74 212 71 231 79 231 101 0 32 19 36 71 14 97 -42 147 -155 72
-164 -24 -3 -30 -10 -46 -58 -40 -124 -155 -515 -151 -519 2 -2 16 12 31 30
35 43 277 320 321 368 34 37 33 36 15 119 -5 21 -3 22 79 22 47 0 88 -3 92 -8
4 -4 13 -7 19 -7 17 0 14 -66 -8 -220 -15 -102 -21 -124 -27 -100 -4 18 -5 6
-2 -29 4 -39 2 -61 -6 -66 -7 -4 -10 -25 -8 -51 3 -38 7 -25 32 89 16 72 32
132 35 132 4 0 20 -64 35 -142 15 -79 40 -201 54 -271 l27 -129 17 84 c9 46
26 130 37 188 11 58 29 146 40 195 18 88 19 89 29 55 8 -30 9 -23 6 40 l-3 75
15 -80 c8 -44 12 -96 9 -115 -4 -28 -3 -31 5 -15 9 17 10 15 6 -11 -3 -16 1
-55 9 -85 l13 -54 -4 55 c-16 194 -34 438 -34 452 0 16 11 18 90 18 98 0 97 1
79 -61 -11 -35 -10 -40 15 -71 58 -70 361 -415 364 -413 2 2 -112 395 -146
504 -15 47 -24 59 -55 74 -41 21 -46 41 -22 87 19 37 70 75 118 88 35 10 39 9
46 -11 5 -12 7 -25 5 -28 -1 -3 27 -16 64 -28 269 -93 394 -133 398 -128 3 3
-30 39 -73 80 -43 41 -123 118 -178 171 -93 90 -102 96 -134 92 l-34 -5 5 72
c7 97 -6 134 -16 43 -4 -38 -14 -85 -22 -104 -8 -20 -13 -41 -10 -48 5 -12 54
-46 191 -131 153 -96 197 -125 192 -129 -3 -3 -40 8 -83 25 -44 16 -123 46
-177 67 l-98 37 6 38 c4 26 3 39 -4 39 -6 0 -20 9 -31 20 -26 26 -26 98 0 182
25 80 25 90 -3 116 -26 24 -72 29 -112 10 -31 -14 -31 -28 0 -74 44 -65 29
-134 -51 -236 -50 -63 -71 -115 -80 -194 -6 -50 -4 -58 46 -151 114 -211 135
-250 171 -313 21 -35 36 -66 33 -69 -2 -2 -5 -2 -7 0 -2 2 -41 49 -88 104 -46
55 -112 135 -146 177 -57 72 -61 80 -53 109 5 18 9 62 9 98 0 69 17 134 49
179 11 15 38 62 61 105 46 88 53 143 23 170 -22 20 -65 22 -79 5 -14 -17 -26
-93 -25 -149 2 -51 -23 -97 -70 -132 -43 -32 -72 -13 -92 60 -9 32 -21 66 -27
77 -12 20 -5 30 28 40 27 8 33 -18 20 -82 -10 -50 -11 -48 25 -57 22 -6 33 -1
59 24 37 37 34 64 -12 120 -35 43 -36 51 -4 89 66 79 98 208 59 237 -15 10
-15 14 -1 41 23 44 43 58 96 64 42 5 46 7 43 30 -3 29 -45 70 -72 70 -37 0
-70 -23 -87 -61 -21 -44 -29 -48 -39 -16 -17 57 -68 84 -119 63 -25 -11 -37
-24 -44 -48 l-9 -33 -1 38 c-1 29 5 43 26 61 l27 23 -12 93 c-14 103 -26 137
-37 107 -4 -9 -11 -41 -15 -70 -7 -49 -8 -48 -9 33 -5 325 -25 828 -30 775z
m-94 -757 c-1 -418 -1 -431 -7 -163 -4 225 -6 260 -10 155 -4 -134 -4 -134
-10 -50 l-6 85 -6 -75 c-3 -41 -4 8 -2 110 2 102 7 210 13 240 5 30 12 76 16
103 3 26 8 47 9 47 2 0 3 -204 3 -452z m-39 -160 c12 -105 13 -200 3 -194 -13
8 -15 -31 -4 -61 6 -16 8 -15 14 7 6 22 7 20 8 -12 1 -31 -2 -35 -19 -31 -18
5 -20 14 -20 74 0 39 4 69 10 69 6 0 10 20 10 45 0 25 -4 45 -10 45 -5 0 -10
16 -10 35 0 32 15 51 18 23z m-72 -159 c2 -4 1 -14 -2 -23 -7 -19 -35 -21 -52
-4 -23 23 -35 -6 -18 -46 16 -39 44 -48 66 -21 20 25 25 18 22 -30 -4 -41 -8
-47 -38 -60 -26 -11 -34 -20 -34 -39 0 -31 -4 -32 -31 -5 -23 23 -49 79 -49
105 0 10 -8 26 -17 36 -22 24 -8 67 27 85 26 13 118 14 126 2z m385 -19 c22
-30 24 -59 4 -66 -8 -4 -15 -17 -15 -30 0 -33 -22 -83 -52 -118 -25 -28 -44
-23 -32 8 8 21 -13 46 -38 46 -21 0 -24 6 -33 70 l-6 44 23 -21 c32 -30 62
-21 76 23 11 36 0 56 -21 35 -16 -16 -44 -13 -51 6 -9 23 6 29 70 28 47 0 59
-4 75 -25z m-558 -172 c14 -29 46 -73 71 -98 40 -40 60 -81 39 -80 -12 1 -65
52 -96 93 -41 55 -67 137 -42 137 2 0 15 -24 28 -52z m597 -40 c-11 -24 -43
-66 -70 -93 -45 -45 -50 -47 -50 -26 0 15 18 43 46 73 25 27 55 70 67 96 20
43 22 45 25 21 2 -15 -6 -47 -18 -71z m-346 73 c8 -13 -4 -42 -15 -35 -12 7
-12 44 0 44 6 0 12 -4 15 -9z m106 -8 c0 -10 -4 -24 -9 -31 -6 -10 -10 -8 -14
9 -3 12 -4 26 -1 31 9 14 24 9 24 -9z m48 -143 c-13 -10 -24 -17 -26 -15 -7 7
18 89 30 96 10 6 14 0 16 -27 3 -27 -2 -39 -20 -54z m-220 68 c6 -7 13 -31 18
-52 l7 -39 -26 19 c-19 14 -26 28 -27 52 0 33 10 41 28 20z m109 -35 c-3 -10
-5 -2 -5 17 0 19 2 27 5 18 2 -10 2 -26 0 -35z m170 -95 c-3 -7 -5 -2 -5 12 0
14 2 19 5 13 2 -7 2 -19 0 -25z m-310 -10 c-3 -7 -5 -2 -5 12 0 14 2 19 5 13
2 -7 2 -19 0 -25z m280 0 c-3 -7 -5 -2 -5 12 0 14 2 19 5 13 2 -7 2 -19 0 -25z
m-222 -8 c0 -7 -6 -15 -12 -17 -8 -3 -13 4 -13 17 0 13 5 20 13 18 6 -3 12
-11 12 -18z m183 -4 c3 -12 -1 -17 -10 -14 -7 3 -15 13 -16 22 -3 12 1 17 10
14 7 -3 15 -13 16 -22z m-288 -47 c0 -5 5 -7 11 -3 17 10 2 -94 -17 -123 -13
-20 -52 -35 -41 -15 3 4 10 26 16 50 7 23 16 40 21 37 6 -4 10 1 10 9 0 33
-19 24 -33 -16 l-14 -43 -12 41 c-6 23 -8 49 -5 58 7 18 64 23 64 5z m127 -11
c-3 -8 -6 -5 -6 6 -1 11 2 17 5 13 3 -3 4 -12 1 -19z m120 0 c-3 -8 -6 -5 -6
6 -1 11 2 17 5 13 3 -3 4 -12 1 -19z m110 -25 c-3 -10 -5 -4 -5 12 0 17 2 24
5 18 2 -7 2 -21 0 -30z m-298 -28 c-1 -29 -1 -29 -9 -5 -4 14 -8 34 -9 45 -1
16 1 17 9 5 5 -8 9 -28 9 -45z m256 -10 c-3 -26 -8 -45 -11 -43 -2 3 -1 26 2
52 4 25 9 44 12 42 2 -3 1 -26 -3 -51z m60 -63 c-8 -8 -12 0 -19 38 l-7 35 16
-34 c8 -19 13 -36 10 -39z m-308 6 c-3 -7 -5 -2 -5 12 0 14 2 19 5 13 2 -7 2
-19 0 -25z m52 22 c9 12 11 12 17 -3 8 -23 -26 -64 -38 -45 -4 7 -8 24 -8 38
0 20 2 22 10 10 9 -13 11 -13 19 0z m161 -7 c0 -10 -5 -25 -10 -33 -8 -13 -11
-13 -26 2 -19 18 -11 40 11 31 8 -3 15 0 15 6 0 6 2 11 5 11 3 0 5 -8 5 -17z
m17 -45 c-3 -8 -6 -5 -6 6 -1 11 2 17 5 13 3 -3 4 -12 1 -19z m-109 -239 c-3
-8 -7 -3 -11 10 -4 17 -3 21 5 13 5 -5 8 -16 6 -23z m116 -50 c3 -17 6 -40 6
-51 0 -17 -3 -18 -15 -8 -16 13 -21 90 -6 90 5 0 11 -14 15 -31z m-184 -10 c0
-6 -4 -7 -10 -4 -5 3 -10 11 -10 16 0 6 5 7 10 4 6 -3 10 -11 10 -16z m150 -1
c0 -18 -2 -20 -9 -8 -6 8 -7 18 -5 22 9 14 14 9 14 -14z m-90 -192 c0 -111 -3
-232 -7 -267 l-7 -64 -28 145 c-59 301 -59 304 -12 359 51 61 54 51 54 -173z"/>
<path d="M1203 760 c0 -36 2 -50 4 -32 2 17 2 47 0 65 -2 17 -4 3 -4 -33z"/>
<path d="M1213 545 c0 -27 2 -38 4 -22 2 15 2 37 0 50 -2 12 -4 0 -4 -28z"/>
<path d="M882 2780 c0 -14 2 -19 5 -12 2 6 2 18 0 25 -3 6 -5 1 -5 -13z"/>
<path d="M1133 2695 c0 -27 2 -38 4 -22 2 15 2 37 0 50 -2 12 -4 0 -4 -28z"/>
<path d="M1303 2560 c0 -36 2 -50 4 -32 2 17 2 47 0 65 -2 17 -4 3 -4 -33z"/>
<path d="M1124 2350 c0 -63 1 -89 3 -57 2 31 2 83 0 115 -2 31 -3 5 -3 -58z"/>
<path d="M1083 845 c0 -22 2 -30 4 -17 2 12 2 30 0 40 -3 9 -5 -1 -4 -23z"/>
<path d="M1073 715 c0 -27 2 -38 4 -22 2 15 2 37 0 50 -2 12 -4 0 -4 -28z"/>
<path d="M1371 604 c0 -11 3 -14 6 -6 3 7 2 16 -1 19 -3 4 -6 -2 -5 -13z"/>
</g>
</svg>
