<?xml version="1.0" standalone="no"?>
<!DOCTYPE svg PUBLIC "-//W3C//DTD SVG 20010904//EN"
 "http://www.w3.org/TR/2001/REC-SVG-20010904/DTD/svg10.dtd">
<svg version="1.0" xmlns="http://www.w3.org/2000/svg"
 width="244.000000pt" height="305.000000pt" viewBox="0 0 244.000000 305.000000"
 preserveAspectRatio="xMidYMid meet">
<metadata>
Created by potrace 1.16, written by Peter Selinger 2001-2019
</metadata>
<g transform="translate(0.000000,305.000000) scale(0.100000,-0.100000)"
fill="#000000" stroke="none">
<path d="M1497 2889 c-4 -13 -7 -31 -7 -39 0 -13 1 -13 10 0 6 10 9 -33 8
-130 -1 -95 -4 -131 -8 -105 -6 33 -7 31 -4 -15 10 -143 15 -656 6 -669 -6 -8
-17 -11 -27 -8 -15 6 -16 47 -14 482 2 261 0 477 -3 480 -6 6 -33 -189 -48
-350 -6 -55 -13 -203 -17 -330 -5 -155 -9 -213 -14 -178 -9 69 -15 84 -32 77
-10 -3 -18 -36 -26 -97 -7 -50 -14 -93 -17 -96 -2 -2 -4 47 -4 110 0 142 -15
323 -36 454 -18 111 -28 140 -37 109 -27 -88 -57 -368 -57 -529 0 -75 -3 -105
-10 -95 -5 8 -10 29 -10 46 0 59 -12 94 -30 94 -17 0 -27 -28 -32 -89 -1 -14
-5 28 -8 94 l-6 120 -2 -142 c-1 -79 -6 -143 -10 -143 -5 0 -12 96 -15 214 -4
118 -12 270 -19 338 -7 67 -13 187 -13 266 0 78 -3 142 -7 142 -5 0 -8 -12 -8
-27 0 -16 -5 -35 -10 -43 -8 -12 -10 -10 -11 10 0 14 -4 34 -8 45 -7 16 -9 11
-12 -22 -3 -23 -1 -39 3 -37 10 6 10 -2 -3 -236 -6 -107 -14 -302 -17 -432 -7
-234 -7 -236 -27 -222 -19 14 -20 25 -18 191 2 159 13 338 29 498 4 33 4 58 1
55 -12 -11 -36 -313 -43 -529 l-7 -224 34 -28 33 -27 -48 -7 c-58 -9 -86 -34
-86 -76 0 -28 2 -30 28 -24 56 12 120 -68 86 -106 -32 -35 -1 -158 60 -241 17
-24 18 -31 6 -53 -20 -37 -30 -31 -30 18 0 50 -13 67 -53 67 -27 0 -29 3 -24
27 10 51 -6 63 -81 63 -77 0 -87 -5 -101 -44 -9 -21 -8 -40 4 -79 19 -63 19
-111 1 -126 -11 -9 -14 -2 -20 35 -3 26 -6 69 -6 96 0 34 -3 47 -11 42 -8 -5
-9 -33 -5 -91 l7 -84 -26 7 c-22 5 -32 0 -63 -37 -33 -39 -173 -197 -241 -271
-13 -15 -22 -30 -20 -33 3 -2 38 9 78 26 40 17 77 29 82 27 6 -2 1 -16 -11
-31 -27 -35 -22 -42 16 -22 16 8 91 44 167 80 93 45 137 71 137 82 0 28 37
-14 56 -63 17 -46 9 -74 -22 -74 -7 0 -18 -9 -23 -19 -14 -25 -144 -542 -138
-547 2 -3 19 16 38 41 19 26 44 58 57 73 19 23 22 24 18 7 -21 -92 -27 -126
-24 -135 3 -9 49 64 198 315 70 119 71 121 64 174 l-7 54 58 -5 c50 -4 62 -10
87 -37 28 -31 28 -34 13 -54 -40 -55 -40 -51 14 -383 28 -175 53 -319 55 -321
4 -5 14 50 68 384 l42 261 -28 36 c-21 29 -25 40 -16 55 20 39 61 61 112 61
l49 0 -7 -51 c-6 -42 -3 -55 15 -79 11 -16 21 -32 21 -36 0 -4 32 -58 70 -120
39 -61 70 -114 70 -117 0 -3 14 -28 31 -56 33 -53 55 -67 46 -28 -11 45 -19
97 -15 97 2 0 31 -36 63 -80 32 -44 60 -78 62 -76 2 2 -28 129 -67 282 -69
272 -81 304 -117 304 -30 0 -3 112 29 122 7 3 80 -28 163 -69 82 -40 153 -73
158 -73 5 0 2 12 -8 26 -9 14 -15 28 -12 30 2 3 29 -5 58 -17 30 -11 75 -29
102 -40 26 -10 47 -15 47 -11 0 4 -15 23 -33 42 -18 19 -80 89 -139 155 -132
151 -141 158 -167 150 -20 -6 -21 -3 -22 87 -1 51 -4 80 -5 63 -11 -97 -27
-166 -37 -162 -15 5 -14 67 4 139 9 40 10 66 3 85 -9 27 -12 28 -84 29 -96 2
-112 -6 -108 -54 3 -36 2 -37 -31 -37 -33 0 -35 -2 -45 -49 -10 -45 -12 -48
-26 -32 -12 16 -12 21 3 44 42 66 70 141 75 195 3 38 1 57 -7 57 -6 0 -11 13
-11 28 0 39 46 82 88 82 29 0 32 3 32 30 0 17 -9 39 -21 51 -18 18 -29 20 -71
15 -45 -6 -48 -5 -39 11 5 11 22 25 37 33 l27 15 -7 255 c-4 140 -11 287 -16
325 -5 39 -12 93 -15 120 -9 81 -36 247 -44 269 -7 18 -8 18 -14 -5z m-407
-1014 c5 -6 -5 -10 -26 -11 -40 -1 -42 8 -12 38 22 22 23 22 26 3 2 -11 8 -24
12 -30z m334 19 c23 -23 20 -32 -10 -26 -36 7 -74 -31 -74 -75 0 -31 2 -33 33
-33 18 0 38 -5 45 -12 15 -15 16 -74 2 -83 -5 -3 -10 -19 -10 -35 0 -16 -5
-41 -10 -55 l-10 -26 -26 20 c-15 12 -35 21 -45 21 -22 0 -64 -54 -74 -95 l-7
-30 -20 45 c-35 82 -70 100 -115 59 l-22 -22 -11 27 c-5 15 -10 40 -10 56 0
16 -4 32 -10 35 -14 9 -13 68 2 83 7 7 29 12 50 12 28 0 36 -3 32 -14 -4 -10
-16 -14 -35 -11 -33 4 -38 -14 -17 -60 13 -30 52 -34 67 -7 9 14 10 12 11 -15
0 -22 6 -36 21 -43 11 -7 27 -27 35 -46 8 -19 16 -34 19 -34 3 0 11 15 19 34
8 19 24 39 35 46 13 7 21 21 21 37 0 21 3 24 12 15 29 -29 78 5 78 56 0 20 -4
23 -32 20 -33 -3 -33 -3 -36 45 -3 42 1 53 30 87 38 44 41 45 62 24z m-422
-39 c0 -5 -5 -11 -11 -13 -6 -2 -11 4 -11 13 0 9 5 15 11 13 6 -2 11 -8 11
-13z m496 -3 c2 -7 -3 -12 -12 -12 -9 0 -16 7 -16 16 0 17 22 14 28 -4z m-370
-17 c-3 -3 -9 2 -12 12 -6 14 -5 15 5 6 7 -7 10 -15 7 -18z m25 -320 c28 -27
52 -215 28 -215 -4 0 -6 11 -4 24 4 20 -2 28 -34 45 -39 20 -70 48 -61 56 2 2
20 -7 40 -21 62 -45 79 -8 25 53 -62 72 -63 73 -34 73 14 0 32 -7 40 -15z
m217 6 c0 -6 -19 -31 -42 -58 l-41 -48 6 39 c3 21 14 47 23 57 18 20 54 26 54
10z m14 -113 c-11 -11 -36 -29 -58 -40 -31 -16 -37 -24 -33 -44 2 -13 0 -24
-4 -24 -5 0 -9 24 -9 53 0 33 3 47 9 38 11 -18 39 -8 76 28 33 31 48 22 19
-11z m303 -49 c-6 -69 -27 -106 -27 -48 0 54 12 109 23 109 6 0 8 -23 4 -61z
m-888 -19 c0 -29 -2 -31 -9 -15 -5 11 -9 34 -9 50 -1 23 2 26 9 15 5 -8 9 -31
9 -50z m333 -36 c23 -6 26 -9 18 -30 -12 -30 -4 -51 21 -57 27 -7 26 -53 -2
-60 -12 -3 -28 0 -36 9 -19 18 -47 18 -85 -2 -30 -16 -44 -12 -50 16 -2 11 6
13 35 11 l39 -3 -7 68 -8 67 24 -7 c13 -3 36 -9 51 -12z m274 -43 c-7 -62 -2
-71 46 -71 11 0 18 -5 15 -12 -4 -14 -33 -15 -83 -3 -23 5 -35 2 -47 -10 -24
-23 -57 -11 -57 22 0 16 7 27 19 30 23 6 34 29 26 54 -5 14 2 22 27 33 58 25
61 23 54 -43z m-740 -5 c6 -15 -18 -48 -71 -100 -39 -38 -184 -146 -196 -146
-10 0 58 84 159 198 56 62 96 80 108 48z m885 -23 c-12 -20 -14 -14 -5 12 4 9
9 14 11 11 3 -2 0 -13 -6 -23z m239 -25 c0 -6 -7 -5 -15 2 -8 7 -15 17 -15 22
0 6 7 5 15 -2 8 -7 15 -17 15 -22z m165 -104 c61 -47 119 -90 130 -96 11 -6
15 -13 9 -15 -17 -6 -184 75 -190 92 -4 9 -14 13 -28 10 -29 -7 -90 31 -82 51
3 9 6 20 6 25 0 20 19 7 46 -32 15 -23 30 -36 32 -29 2 6 -5 21 -15 33 -66 73
-35 60 92 -39z m-1204 46 c10 -6 19 -15 19 -20 0 -4 -58 -40 -129 -78 -71 -38
-127 -63 -124 -56 7 19 101 79 146 93 20 7 38 18 38 24 1 7 2 17 4 22 1 6 3
13 3 18 3 10 20 9 43 -3z m454 -133 c14 -70 28 -88 45 -57 7 12 15 43 19 68 3
27 12 47 21 50 12 4 13 2 3 -9 -7 -7 -13 -29 -13 -48 0 -38 -28 -104 -45 -105
-16 -2 -45 66 -45 105 0 19 -6 41 -12 48 -11 11 -10 13 1 9 9 -2 19 -28 26
-61z m-294 -30 c-16 -16 -22 -4 -14 34 l6 34 10 -29 c6 -19 6 -31 -2 -39z
m1005 49 c10 -8 16 -18 11 -22 -4 -4 -7 -2 -7 4 0 7 -6 12 -14 12 -8 0 -18 5
-21 10 -9 15 8 12 31 -4z m-359 -28 c-3 -7 -5 -2 -5 12 0 14 2 19 5 13 2 -7 2
-19 0 -25z m7 -67 c19 -21 50 -113 70 -209 16 -73 6 -72 -41 6 -40 68 -55 110
-60 170 -5 55 3 64 31 33z m-704 -3 c-1 -49 -46 -201 -85 -288 -85 -189 -89
-186 -34 26 56 220 67 257 82 266 18 12 37 10 37 -4z m134 -48 c6 -37 1 -51
-45 -133 -29 -51 -63 -112 -77 -137 -34 -60 -71 -120 -76 -120 -13 0 75 203
93 214 5 4 28 34 51 68 41 59 42 63 33 105 -6 23 -8 45 -5 48 10 10 20 -6 26
-45z m720 -268 c31 -68 56 -126 56 -129 0 -12 -23 14 -56 63 -28 42 -72 164
-74 204 0 16 25 -32 74 -138z m-61 -19 c19 -46 32 -106 18 -83 -5 9 -19 39
-30 68 -23 59 -13 72 12 15z"/>
<path d="M1022 2820 c0 -14 2 -19 5 -12 2 6 2 18 0 25 -3 6 -5 1 -5 -13z"/>
<path d="M1470 2763 c0 -32 5 -65 10 -73 7 -10 10 7 10 58 0 41 -4 72 -10 72
-6 0 -10 -26 -10 -57z"/>
<path d="M941 2784 c0 -11 3 -14 6 -6 3 7 2 16 -1 19 -3 4 -6 -2 -5 -13z"/>
<path d="M1033 2740 c0 -25 2 -35 4 -22 2 12 2 32 0 45 -2 12 -4 2 -4 -23z"/>
<path d="M932 2725 c0 -16 2 -22 5 -12 2 9 2 23 0 30 -3 6 -5 -1 -5 -18z"/>
<path d="M1043 2645 c-1 -27 3 -77 7 -110 6 -54 7 -56 7 -15 1 25 -3 74 -7
110 -7 62 -7 62 -7 15z"/>
<path d="M1063 2395 c0 -44 2 -61 4 -37 2 23 2 59 0 80 -2 20 -4 1 -4 -43z"/>
</g>
</svg>
