<?xml version="1.0" standalone="no"?>
<!DOCTYPE svg PUBLIC "-//W3C//DTD SVG 20010904//EN"
 "http://www.w3.org/TR/2001/REC-SVG-20010904/DTD/svg10.dtd">
<svg version="1.0" xmlns="http://www.w3.org/2000/svg"
 width="244.000000pt" height="305.000000pt" viewBox="0 0 244.000000 305.000000"
 preserveAspectRatio="xMidYMid meet">
<metadata>
Created by potrace 1.16, written by Peter Selinger 2001-2019
</metadata>
<g transform="translate(0.000000,305.000000) scale(0.100000,-0.100000)"
fill="#000000" stroke="none">
<path d="M898 2904 c-12 -18 -59 -277 -73 -403 -20 -167 -32 -581 -17 -581 6
0 30 -15 54 -34 l44 -33 31 26 c17 14 41 33 53 41 l22 16 -11 254 c-11 243
-26 399 -52 530 -19 98 -22 61 -5 -52 28 -174 46 -395 46 -559 l0 -156 -40
-27 c-22 -14 -42 -26 -45 -26 -3 0 -5 219 -4 488 0 281 4 479 9 467 l9 -20 0
20 c0 28 -14 61 -21 49z"/>
<path d="M1291 2894 c0 -11 3 -14 6 -6 3 7 2 16 -1 19 -3 4 -6 -2 -5 -13z"/>
<path d="M1542 2812 c-38 -155 -61 -355 -74 -621 l-12 -254 23 -16 c12 -9 37
-28 54 -42 l31 -27 45 34 c24 19 48 34 52 34 12 0 11 135 -1 360 -11 181 -26
309 -54 460 -21 113 -19 51 4 -97 11 -71 24 -195 30 -274 11 -158 17 -416 10
-421 -3 -2 -20 -13 -38 -26 -18 -13 -36 -21 -41 -18 -9 6 -14 914 -4 929 3 5
9 3 14 -4 7 -11 9 -11 9 2 0 8 -4 19 -9 25 -5 5 -11 18 -13 29 -2 11 -14 -22
-26 -73z"/>
<path d="M1167 2648 c-4 -116 -7 -293 -7 -393 0 -207 -10 -395 -20 -395 -4 0
-13 35 -19 78 -18 115 -32 175 -41 165 -21 -22 -40 -223 -21 -223 4 0 20 -11
35 -25 30 -28 36 -88 12 -121 -13 -16 -18 -17 -35 -6 -34 20 -44 15 -37 -20
12 -62 41 -74 83 -32 14 14 26 24 28 22 1 -2 5 -31 9 -65 7 -63 7 -63 -16 -54
-25 10 -88 -10 -88 -27 0 -6 16 -13 35 -16 32 -6 35 -10 35 -41 0 -47 -17 -45
-69 8 -49 49 -67 78 -76 129 -4 20 -13 39 -21 42 -23 9 -16 35 16 67 25 26 36
30 72 27 42 -3 43 -2 41 26 -4 55 -60 88 -113 66 -26 -11 -40 -31 -54 -72 -8
-27 -21 -21 -34 16 -15 40 -70 71 -108 62 -38 -10 -66 -43 -62 -74 3 -25 6
-26 46 -24 37 3 47 -1 77 -31 40 -40 42 -51 15 -74 -44 -38 -17 -120 88 -262
10 -15 7 -23 -23 -56 -47 -54 -54 -90 -22 -122 15 -15 37 -25 58 -26 l34 -2
-3 66 c-2 37 0 69 5 72 7 4 81 -15 111 -29 2 -1 -2 -31 -9 -66 -12 -64 -12
-64 -48 -67 -20 -1 -46 -8 -58 -16 -31 -21 -47 -19 -83 11 -42 36 -59 73 -58
125 1 55 -11 130 -25 147 -5 6 -22 12 -37 12 -74 0 -80 -95 -13 -201 90 -144
95 -157 103 -264 4 -55 10 -107 14 -116 8 -18 15 -8 -163 -222 -68 -81 -126
-146 -128 -143 -3 3 52 110 122 238 l127 233 -5 56 c-6 65 -34 125 -89 191
-75 91 -88 168 -41 239 l27 41 -23 19 c-30 25 -92 25 -121 1 -27 -22 -29 -56
-6 -121 23 -62 21 -156 -3 -180 -10 -10 -25 -21 -32 -23 -11 -4 -12 -11 -2
-36 6 -18 8 -34 4 -36 -29 -18 -362 -139 -367 -133 -2 2 82 56 186 121 104 65
195 124 201 132 8 10 7 27 -5 68 -9 30 -16 71 -17 93 0 21 -4 47 -9 58 -6 15
-9 8 -10 -30 -2 -47 0 -107 3 -130 1 -5 -13 -9 -31 -7 -29 3 -44 -7 -140 -94
-184 -168 -285 -264 -277 -264 4 0 118 37 251 82 222 74 244 84 244 104 0 31
12 36 51 22 59 -20 99 -52 120 -95 23 -48 20 -58 -25 -77 -34 -14 -43 -37
-130 -331 -15 -49 -31 -99 -35 -110 -16 -37 -43 -137 -38 -141 2 -2 30 26 63
63 32 36 64 71 69 77 6 6 58 65 115 131 58 66 115 131 128 145 19 20 22 32 16
60 -13 68 -16 65 71 68 61 2 88 -2 115 -15 31 -16 35 -22 33 -55 -1 -21 -9
-48 -17 -60 -12 -18 -13 -32 -6 -63 5 -22 10 -75 10 -117 0 -45 4 -78 10 -78
6 0 10 8 11 18 1 21 7 -5 55 -242 27 -137 40 -183 45 -165 4 13 24 108 45 212
20 103 40 185 43 181 3 -3 11 -35 17 -72 l12 -67 1 58 c0 32 -4 67 -10 78 -7
14 -7 53 2 135 9 87 9 118 1 126 -16 16 -15 93 2 107 21 17 97 28 160 23 55
-4 57 -6 51 -29 -17 -70 -16 -77 17 -114 59 -65 242 -270 298 -335 30 -34 56
-59 58 -54 3 8 -19 82 -125 429 -38 123 -38 124 -76 140 -35 13 -38 17 -33 44
10 48 46 88 103 114 60 28 83 25 83 -10 0 -22 15 -29 223 -97 122 -40 228 -75
236 -78 30 -11 -1 20 -174 182 -171 158 -182 167 -212 161 l-33 -6 7 91 c4 65
3 90 -6 90 -6 0 -11 -16 -11 -37 0 -21 -3 -68 -7 -106 l-6 -67 44 6 45 6 90
-83 c49 -46 113 -106 142 -132 29 -26 52 -50 52 -53 0 -7 -76 33 -195 105 -61
36 -123 73 -139 81 -39 20 -74 65 -81 104 -4 21 1 58 14 103 26 87 26 98 1
123 -26 26 -89 27 -120 2 l-23 -19 27 -45 c45 -78 35 -133 -43 -232 -65 -82
-71 -96 -71 -160 0 -78 11 -100 58 -114 42 -13 56 -25 64 -57 3 -11 31 -100
62 -198 32 -98 55 -184 53 -190 -2 -6 -32 41 -67 104 -35 63 -94 166 -131 230
-118 200 -118 197 3 396 58 95 73 160 43 193 -18 20 -60 26 -81 12 -12 -8 -25
-80 -27 -158 -2 -39 -9 -59 -31 -88 -39 -52 -69 -64 -106 -43 -34 20 -90 28
-107 15 -14 -11 -33 47 -33 99 0 30 3 32 62 51 34 11 66 18 71 15 5 -3 7 -34
3 -68 -5 -53 -4 -64 10 -69 30 -11 81 13 94 44 13 33 5 54 -42 108 l-28 33 43
62 c70 99 89 170 57 210 -16 20 -18 31 -11 50 15 39 65 69 109 65 31 -3 37 0
40 18 2 12 -8 34 -21 50 -46 53 -122 31 -155 -46 l-15 -35 -17 40 c-22 52 -41
67 -86 67 -44 0 -74 -26 -77 -68 -2 -28 -1 -29 41 -26 37 3 49 -1 73 -24 34
-33 37 -53 9 -77 -11 -9 -20 -29 -20 -45 0 -32 -18 -61 -74 -119 -49 -52 -66
-55 -66 -9 0 31 3 34 36 41 35 6 36 7 18 26 -14 16 -28 20 -56 17 l-37 -3 6
60 c3 33 7 61 8 63 2 2 14 -8 28 -22 15 -14 33 -26 41 -26 20 0 46 39 46 67 0
27 -1 27 -36 11 -23 -11 -28 -10 -40 7 -14 19 -19 71 -8 99 3 9 21 25 39 36
23 14 31 26 29 42 -21 162 -27 198 -35 198 -5 0 -9 -3 -9 -7 0 -5 -6 -37 -14
-73 -8 -36 -17 -89 -21 -117 -4 -29 -10 -53 -14 -53 -8 0 -31 374 -41 660 -6
181 -6 182 -9 60 l-3 -125 -20 75 -21 75 -13 -40 c-7 -22 -19 -69 -27 -105
-14 -63 -14 -58 -14 163 0 125 -2 230 -5 232 -3 3 -8 -90 -11 -207z m113 -508
c5 -146 12 -287 14 -315 2 -27 2 -36 0 -20 -8 49 -14 61 -23 47 -4 -7 -6 38
-3 100 2 62 2 110 -2 107 -3 -3 -9 -87 -13 -186 -4 -133 -3 -184 6 -199 10
-16 11 -10 6 33 -6 57 9 82 20 32 15 -67 -22 -167 -40 -109 -3 10 -5 215 -3
455 2 386 4 430 16 379 7 -33 17 -178 22 -324z m22 -162 c2 -53 0 -91 -4 -85
-4 7 -7 64 -6 127 1 126 6 108 10 -42z m-368 -405 c27 -53 94 -129 144 -162
29 -20 44 -51 24 -51 -18 0 -99 59 -131 95 -38 44 -70 109 -71 143 0 33 7 27
34 -25z m617 -42 c-31 -59 -78 -109 -135 -142 -58 -33 -66 -35 -66 -14 0 8 14
21 30 30 48 25 137 120 161 172 21 45 23 46 26 21 3 -14 -5 -45 -16 -67z
m-354 27 c-3 -7 -5 -2 -5 12 0 14 2 19 5 13 2 -7 2 -19 0 -25z m80 0 c-3 -7
-5 -2 -5 12 0 14 2 19 5 13 2 -7 2 -19 0 -25z m-58 -58 c0 -10 -3 -8 -9 5 -12
27 -12 43 0 25 5 -8 9 -22 9 -30z m18 -17 c-3 -10 -5 -2 -5 17 0 19 2 27 5 18
2 -10 2 -26 0 -35z m93 -14 c0 -17 -4 -28 -10 -24 -6 4 -10 -15 -10 -49 0 -34
-4 -56 -11 -56 -8 0 -9 19 -4 63 10 85 35 133 35 66z m-156 -64 c5 -35 4 -46
-3 -35 -6 8 -11 31 -11 50 0 26 -3 31 -10 20 -11 -17 -13 -5 -3 29 6 22 7 23
13 5 4 -10 10 -41 14 -69z m-59 -227 c0 -24 -7 -52 -13 -63 -11 -17 -12 -13
-7 25 12 85 23 105 20 38z m42 10 c-3 -8 -6 -5 -6 6 -1 11 2 17 5 13 3 -3 4
-12 1 -19z m143 1 c0 -11 -4 -18 -10 -14 -5 3 -7 12 -3 20 7 21 13 19 13 -6z
m17 -1 c-3 -8 -6 -5 -6 6 -1 11 2 17 5 13 3 -3 4 -12 1 -19z m-140 -10 c-3 -8
-6 -5 -6 6 -1 11 2 17 5 13 3 -3 4 -12 1 -19z m-32 -98 c3 -5 -3 -10 -14 -10
-12 0 -21 5 -21 10 0 6 6 10 14 10 8 0 18 -4 21 -10z m215 1 c0 -12 -20 -25
-27 -18 -7 7 6 27 18 27 5 0 9 -4 9 -9z m-123 -163 c-3 -8 -6 -5 -6 6 -1 11 2
17 5 13 3 -3 4 -12 1 -19z m64 -141 c14 -100 11 -149 -21 -310 -17 -83 -32
-152 -33 -153 -6 -6 -7 485 -1 529 l6 47 20 -25 c11 -14 23 -52 29 -88z m29
86 c-1 -24 -2 -26 -11 -10 -5 9 -7 22 -4 27 10 17 15 11 15 -17z m10 -108 c0
-23 -3 -27 -10 -15 -5 8 -10 29 -10 45 0 23 3 27 10 15 5 -8 10 -28 10 -45z"/>
<path d="M1253 755 c0 -33 2 -45 4 -27 2 18 2 45 0 60 -2 15 -4 0 -4 -33z"/>
<path d="M921 2804 c0 -11 3 -14 6 -6 3 7 2 16 -1 19 -3 4 -6 -2 -5 -13z"/>
<path d="M1303 2580 c0 -25 2 -35 4 -22 2 12 2 32 0 45 -2 12 -4 2 -4 -23z"/>
<path d="M1360 1276 c0 -8 5 -18 10 -21 6 -3 10 1 10 9 0 8 -4 18 -10 21 -5 3
-10 -1 -10 -9z"/>
<path d="M1117 510 c-4 -14 -6 -38 -6 -55 1 -24 3 -21 10 15 10 49 7 80 -4 40z"/>
</g>
</svg>
