<?xml version="1.0" standalone="no"?>
<!DOCTYPE svg PUBLIC "-//W3C//DTD SVG 20010904//EN"
 "http://www.w3.org/TR/2001/REC-SVG-20010904/DTD/svg10.dtd">
<svg version="1.0" xmlns="http://www.w3.org/2000/svg"
 width="244.000000pt" height="305.000000pt" viewBox="0 0 244.000000 305.000000"
 preserveAspectRatio="xMidYMid meet">
<metadata>
Created by potrace 1.16, written by Peter Selinger 2001-2019
</metadata>
<g transform="translate(0.000000,305.000000) scale(0.100000,-0.100000)"
fill="#000000" stroke="none">
<path d="M1052 2890 c0 -14 2 -19 5 -12 2 6 2 18 0 25 -3 6 -5 1 -5 -13z"/>
<path d="M1527 2889 c-10 -35 -8 -59 3 -34 5 12 9 -186 9 -467 1 -269 -2 -488
-5 -488 -3 0 -19 9 -35 21 l-29 20 0 257 c0 245 11 391 41 556 5 32 8 60 6 62
-5 6 -33 -154 -43 -241 -4 -33 -10 -64 -14 -70 -4 -5 -10 -138 -14 -295 -6
-234 -9 -288 -22 -300 -13 -13 -15 39 -12 482 2 273 0 489 -3 479 -12 -30 -39
-396 -48 -645 -6 -144 -14 -243 -20 -249 -8 -8 -11 3 -11 38 0 57 -9 97 -20
90 -4 -2 -10 53 -13 123 -3 70 -15 172 -27 227 -30 152 -30 152 -40 135 -16
-31 -51 -240 -59 -358 -5 -68 -14 -129 -20 -135 -6 -6 -11 -38 -11 -71 0 -45
-3 -57 -11 -49 -7 7 -14 79 -19 185 -6 163 -7 166 -8 56 -1 -64 -6 -119 -11
-122 -5 -4 -12 -41 -16 -84 -17 -185 -24 -78 -26 373 -1 474 -2 478 -15 345
-26 -244 -25 -242 -45 -100 -10 69 -26 158 -36 199 -15 64 -18 70 -25 46 -4
-16 -3 -35 1 -44 12 -21 12 -919 1 -926 -5 -3 -17 1 -27 10 -10 8 -26 20 -36
27 -16 12 -17 30 -7 270 6 158 18 312 30 398 12 78 20 146 17 153 -5 16 -35
-178 -47 -298 -5 -55 -12 -200 -16 -321 l-7 -222 29 -15 c16 -8 38 -24 48 -36
l19 -21 34 30 c38 33 44 35 61 18 19 -19 14 -28 -17 -28 -37 0 -61 -23 -61
-58 0 -45 -16 -58 -28 -24 -16 46 -47 72 -85 72 -41 0 -77 -34 -77 -73 0 -24
2 -25 36 -20 30 5 40 1 70 -28 36 -35 43 -62 21 -84 -15 -14 -16 -143 -4 -295
4 -48 3 -64 -2 -45 -5 17 -9 49 -10 72 -2 62 -9 74 -40 67 -14 -4 -34 -14 -45
-23 -18 -16 -19 -55 0 -150 10 -49 -14 -36 -37 19 -25 62 -23 103 6 158 l25
47 -21 18 c-29 23 -84 22 -109 -3 -25 -25 -25 -52 0 -125 24 -70 24 -83 5
-133 -13 -30 -34 -50 -113 -102 -155 -102 -252 -161 -252 -152 0 4 58 65 128
135 125 125 130 128 168 125 l39 -3 -4 85 c-2 46 -7 94 -12 105 -6 13 -8 -12
-6 -72 l2 -93 -30 6 c-29 5 -41 -5 -193 -161 -89 -91 -162 -170 -162 -175 0
-5 37 4 83 21 45 17 93 35 107 39 14 5 63 23 110 40 47 18 93 34 102 37 11 3
18 15 18 29 0 14 6 27 14 30 15 6 56 -12 56 -24 0 -4 -22 -47 -50 -95 -27 -48
-50 -90 -50 -92 0 -5 55 23 95 48 82 51 98 59 105 46 12 -19 -5 -54 -28 -57
-26 -4 -37 -18 -50 -67 -5 -22 -29 -105 -52 -185 -59 -203 -89 -324 -83 -330
3 -3 8 1 10 8 3 7 33 46 67 86 64 76 71 85 164 203 71 89 72 83 37 -124 -14
-83 -25 -159 -25 -168 0 -17 72 123 142 275 16 36 41 86 54 112 21 41 23 54
15 90 -12 51 -7 62 28 53 27 -7 81 -52 81 -68 0 -5 -11 -22 -25 -39 -14 -16
-25 -41 -25 -55 0 -15 21 -137 46 -272 25 -135 50 -272 56 -304 6 -32 12 -57
13 -55 5 5 108 572 113 619 3 40 0 49 -22 67 -14 11 -26 27 -26 35 0 21 66 77
92 77 19 0 20 -4 15 -50 -6 -47 -2 -59 61 -188 38 -75 84 -170 103 -209 18
-40 36 -73 40 -73 6 0 -47 330 -55 338 -8 8 -8 -1 12 -125 10 -62 15 -110 11
-108 -4 3 -10 17 -13 32 -11 46 -97 326 -114 371 -3 10 4 13 29 10 33 -3 34
-4 40 -58 6 -61 25 -114 37 -106 7 4 190 -215 295 -351 15 -20 27 -29 27 -21
0 12 -57 220 -137 502 -14 50 -22 61 -49 72 -34 14 -49 47 -30 63 9 8 35 -3
90 -35 43 -25 79 -44 81 -42 2 2 -17 37 -41 78 -24 41 -44 80 -44 85 0 13 59
37 71 29 5 -3 9 -16 9 -30 0 -13 2 -24 4 -24 1 0 101 -36 221 -80 120 -44 220
-79 221 -77 1 1 -75 83 -170 181 -166 172 -173 178 -203 172 l-31 -7 5 97 c5
72 3 95 -5 90 -7 -4 -12 -30 -12 -58 0 -27 -7 -75 -16 -106 l-17 -56 31 -26
c18 -14 71 -53 119 -85 162 -110 214 -147 210 -151 -8 -8 -337 128 -336 139 0
7 4 21 9 32 6 15 2 25 -18 41 -33 27 -41 108 -18 187 30 104 16 147 -50 147
-72 0 -91 -30 -54 -85 35 -52 20 -167 -25 -205 -22 -18 -24 2 -4 62 14 44 15
65 8 92 -10 36 -12 37 -81 50 -14 3 -17 -11 -24 -106 -5 -81 -9 -106 -17 -93
-6 11 -6 45 -2 89 5 39 9 100 11 136 1 36 6 88 9 115 6 40 4 54 -9 64 -24 20
-19 49 13 82 23 23 39 29 70 29 37 0 41 2 41 25 0 14 -11 37 -25 50 -43 44
-92 29 -126 -37 l-21 -42 -15 34 c-19 48 -42 70 -70 70 -29 0 -30 16 -2 31 18
9 26 6 53 -20 l32 -31 19 21 c11 11 32 28 47 37 l28 16 0 116 c0 166 -18 449
-35 567 -19 126 -43 257 -54 285 -8 21 -8 21 -14 -3z m-336 -819 c-4 -171 -7
-211 -13 -165 -4 33 -5 98 -3 145 8 142 17 252 19 248 2 -2 0 -104 -3 -228z
m-106 -200 c3 -5 1 -10 -4 -10 -6 0 -11 5 -11 10 0 6 2 10 4 10 3 0 8 -4 11
-10z m311 -17 c-10 -10 -19 5 -10 18 6 11 8 11 12 0 2 -7 1 -15 -2 -18z m-266
-91 c0 -5 -6 -17 -14 -28 -11 -14 -18 -16 -26 -8 -8 8 -7 15 5 28 18 17 35 21
35 8z m250 -28 c0 -18 -14 -18 -30 1 -16 19 -3 40 16 24 8 -6 14 -18 14 -25z
m-361 2 c9 -10 10 -36 5 -86 -4 -45 -10 -67 -15 -58 -5 7 -9 25 -9 39 0 15 -7
32 -15 39 -18 15 -19 34 -5 61 13 23 23 24 39 5z m475 -19 c7 -20 6 -31 -7
-45 -9 -10 -17 -29 -17 -43 0 -13 -5 -31 -10 -39 -7 -11 -10 -7 -10 18 0 18
-5 41 -12 52 -10 15 -9 26 5 55 19 41 37 41 51 2z m-304 -53 c0 -21 -4 -33
-10 -29 -17 10 -11 65 7 65 2 0 3 -16 3 -36z m-30 -39 c0 -7 9 -15 20 -18 11
-3 27 -21 35 -41 9 -20 17 -36 20 -36 3 0 11 16 20 36 8 20 24 38 36 41 11 3
25 17 30 30 14 38 43 26 47 -19 3 -37 3 -37 -33 -34 -47 3 -61 -8 -83 -67
l-19 -49 -13 47 c-15 54 -42 75 -86 70 -28 -4 -32 -1 -37 23 -3 17 1 34 10 45
15 16 17 16 35 1 10 -10 18 -23 18 -29z m-205 -42 c9 -20 33 -60 54 -87 85
-112 95 -149 19 -72 -51 53 -98 135 -98 171 0 35 7 31 25 -12z m115 -11 c0
-12 9 -41 21 -63 23 -47 19 -64 -6 -25 -18 26 -34 86 -35 121 0 17 2 17 10 5
5 -8 10 -25 10 -38z m340 -14 c-12 -53 -37 -104 -46 -95 -3 3 4 23 15 46 12
22 21 49 21 60 0 24 11 54 17 47 3 -3 0 -29 -7 -58z m105 -33 c-26 -53 -112
-152 -122 -141 -8 7 40 87 67 111 12 11 34 44 48 75 23 46 27 51 30 31 2 -13
-8 -48 -23 -76z m-357 -30 c7 -14 12 -29 12 -33 -1 -10 -40 38 -40 49 0 18 17
8 28 -16z m182 18 c-1 -10 -39 -60 -40 -51 0 14 23 58 32 58 4 0 8 -3 8 -7z
m-390 -128 c0 -25 -4 -45 -10 -45 -5 0 -10 20 -10 45 0 25 5 45 10 45 6 0 10
-20 10 -45z m579 -7 c-1 -41 -1 -42 -11 -15 -5 15 -7 34 -4 42 10 27 16 16 15
-27z m-349 -3 c0 -8 -4 -15 -10 -15 -5 0 -10 7 -10 15 0 8 5 15 10 15 6 0 10
-7 10 -15z m138 3 c-6 -18 -28 -21 -28 -4 0 9 7 16 16 16 9 0 14 -5 12 -12z
m-275 -100 c-4 -45 -2 -56 15 -71 29 -26 44 -13 42 37 -3 62 -2 63 30 58 29
-4 30 -5 14 -23 -21 -23 -12 -46 21 -59 28 -11 33 -41 10 -60 -10 -9 -15 -9
-15 -1 0 6 -19 11 -47 11 -27 0 -54 4 -61 8 -24 15 -43 127 -25 145 16 17 21
3 16 -45z m403 17 c6 -34 -7 -83 -29 -113 -5 -7 -28 -11 -54 -10 -26 1 -48 -4
-52 -11 -6 -9 -11 -8 -20 3 -18 22 -9 50 16 54 26 4 36 27 23 52 -8 15 -6 21
11 30 29 16 33 8 30 -55 -2 -60 6 -67 40 -32 17 18 20 30 15 70 -6 54 10 64
20 12z m-559 -47 c-3 -7 -5 -2 -5 12 0 14 2 19 5 13 2 -7 2 -19 0 -25z m774
-47 c-12 -22 -31 -29 -31 -11 0 6 6 19 12 30 16 26 33 9 19 -19z m-808 -28 c2
-10 8 -26 12 -35 4 -10 3 -18 -3 -18 -8 0 -32 50 -32 66 0 12 19 1 23 -13z
m157 -4 c0 -6 -4 -7 -10 -4 -5 3 -10 11 -10 16 0 6 5 7 10 4 6 -3 10 -11 10
-16z m463 6 c-3 -9 -8 -14 -10 -11 -3 3 -2 9 2 15 9 16 15 13 8 -4z m290 -110
c31 -54 23 -57 -22 -11 -22 23 -31 40 -27 51 8 22 20 13 49 -40z m-977 6 c-10
-15 -117 -83 -123 -78 -2 3 20 30 48 61 46 50 54 55 67 43 8 -8 11 -20 8 -26z
m108 13 c17 -45 5 -95 -50 -201 -31 -59 -88 -169 -126 -243 -80 -154 -95 -175
-73 -105 8 28 31 109 51 180 61 223 59 220 103 233 41 13 61 43 61 92 0 33 9
60 20 60 4 0 11 -7 14 -16z m708 -10 c-14 -88 -10 -102 111 -343 65 -128 116
-235 114 -238 -2 -2 -64 74 -137 168 l-134 172 3 91 c2 84 5 112 18 159 6 24
29 15 25 -9z m-356 -120 c8 11 14 24 14 30 0 5 3 7 6 4 6 -7 -22 -78 -31 -78
-8 0 -35 65 -35 82 1 7 8 -3 16 -22 15 -33 16 -34 30 -16z m-203 -60 c5 -49
-14 -100 -122 -324 -47 -98 -47 -93 8 90 22 74 50 168 62 208 24 84 44 94 52
26z m132 -77 c-11 -27 -11 -50 0 -147 20 -160 16 -173 -10 -45 -29 139 -30
160 -4 196 27 38 31 37 14 -4z"/>
<path d="M911 2794 c0 -11 3 -14 6 -6 3 7 2 16 -1 19 -3 4 -6 -2 -5 -13z"/>
<path d="M1073 2740 c0 -25 2 -35 4 -22 2 12 2 32 0 45 -2 12 -4 2 -4 -23z"/>
<path d="M1083 2620 c0 -30 2 -43 4 -27 2 15 2 39 0 55 -2 15 -4 2 -4 -28z"/>
<path d="M1443 2580 c0 -25 2 -35 4 -22 2 12 2 32 0 45 -2 12 -4 2 -4 -23z"/>
<path d="M1093 2465 c0 -27 2 -38 4 -22 2 15 2 37 0 50 -2 12 -4 0 -4 -28z"/>
</g>
</svg>
