<?xml version="1.0" standalone="no"?>
<!DOCTYPE svg PUBLIC "-//W3C//DTD SVG 20010904//EN"
 "http://www.w3.org/TR/2001/REC-SVG-20010904/DTD/svg10.dtd">
<svg version="1.0" xmlns="http://www.w3.org/2000/svg"
 width="244.000000pt" height="305.000000pt" viewBox="0 0 244.000000 305.000000"
 preserveAspectRatio="xMidYMid meet">
<metadata>
Created by potrace 1.16, written by Peter Selinger 2001-2019
</metadata>
<g transform="translate(0.000000,305.000000) scale(0.100000,-0.100000)"
fill="#000000" stroke="none">
<path d="M881 2866 c-51 -203 -80 -445 -88 -727 l-6 -217 22 -7 c12 -4 37 -20
55 -36 29 -25 35 -27 46 -14 7 8 30 25 51 37 l39 22 0 150 c0 225 -25 481 -66
684 -4 18 -9 31 -11 29 -2 -3 5 -60 16 -128 11 -68 25 -182 31 -254 13 -152
20 -439 11 -452 -9 -14 -81 -56 -87 -51 -2 3 -3 220 -2 484 3 393 5 473 15
444 l12 -35 -5 45 c-10 70 -20 78 -33 26z"/>
<path d="M1563 2868 c-47 -136 -93 -544 -93 -828 l0 -115 38 -23 c20 -12 44
-27 53 -34 13 -9 23 -6 50 14 19 14 43 28 53 32 18 6 19 16 12 229 -7 236 -25
416 -56 562 -22 101 -19 65 10 -129 11 -72 25 -239 31 -370 l11 -239 -38 -33
c-22 -18 -45 -33 -51 -34 -18 0 -19 936 -1 942 8 3 8 12 2 32 l-9 27 -12 -33z"/>
<path d="M1291 2805 c-2 -5 -3 -95 -3 -200 0 -104 -2 -179 -4 -165 -3 14 -9
36 -13 50 -5 14 -15 45 -22 68 l-13 44 -22 -69 -22 -68 -1 169 c-1 93 -4 166
-8 163 -3 -4 -7 -109 -8 -235 -2 -236 -25 -686 -36 -697 -4 -3 -12 25 -18 62
-21 123 -32 173 -41 178 -10 6 -14 -6 -30 -99 -17 -99 -14 -113 24 -138 40
-26 52 -67 35 -116 -11 -32 -41 -44 -54 -22 -12 19 -25 10 -25 -18 0 -57 65
-80 90 -31 15 27 33 24 26 -4 -3 -12 1 -35 9 -51 23 -44 20 -58 -12 -49 -42
10 -64 6 -86 -16 -20 -19 -19 -19 24 -28 43 -8 44 -9 47 -51 3 -42 2 -43 -18
-32 -30 16 -97 84 -120 123 -11 18 -20 45 -20 60 0 15 -7 30 -15 33 -23 9 -18
52 11 81 22 22 32 25 70 20 41 -4 44 -3 44 20 0 36 -15 59 -49 73 -43 17 -102
-12 -116 -57 -11 -39 -22 -42 -34 -10 -27 68 -123 96 -162 48 -11 -14 -19 -36
-17 -50 3 -23 7 -25 43 -23 46 4 90 -24 106 -66 8 -20 6 -29 -12 -45 -18 -16
-20 -27 -15 -61 7 -40 56 -136 98 -188 l21 -27 -42 -47 c-22 -26 -41 -57 -41
-69 0 -33 43 -67 87 -69 42 -1 42 0 27 86 -8 48 8 56 79 36 49 -14 52 -17 51
-46 -1 -19 3 -30 10 -29 13 2 11 -30 -6 -88 -11 -37 -12 -38 -16 -12 -3 25 -7
27 -47 27 -24 0 -57 -8 -73 -17 -27 -15 -33 -16 -56 -3 -48 25 -81 80 -82 135
-2 66 -14 137 -27 153 -13 17 -62 15 -80 -3 -43 -43 -30 -96 58 -234 69 -110
76 -130 81 -226 2 -44 5 -92 7 -107 2 -21 -27 -60 -148 -201 -82 -97 -152
-174 -154 -172 -2 2 56 110 128 239 145 261 148 270 110 371 -11 30 -41 80
-65 110 -50 61 -83 127 -84 165 0 14 10 41 23 60 13 19 26 43 30 52 9 26 -30
48 -85 48 -37 0 -50 -5 -62 -22 -21 -29 -20 -53 4 -123 11 -32 20 -78 20 -103
0 -38 -5 -50 -34 -77 -24 -23 -32 -36 -25 -46 17 -27 9 -46 -23 -57 -18 -6
-96 -33 -173 -61 -147 -53 -190 -63 -140 -32 17 10 91 56 165 101 230 141 211
118 185 217 -8 31 -15 74 -15 95 0 20 -5 40 -12 44 -8 5 -10 -18 -5 -90 l5
-97 -32 7 c-31 5 -41 -2 -172 -119 -76 -69 -164 -148 -194 -177 -52 -48 -53
-51 -25 -45 17 3 128 38 248 76 166 54 217 75 217 88 1 39 15 45 65 26 57 -21
108 -64 125 -105 15 -36 4 -55 -38 -63 -27 -5 -31 -16 -118 -291 -50 -157 -88
-286 -84 -286 4 0 50 46 102 103 80 86 129 141 290 323 17 19 17 24 4 61 -8
23 -12 44 -9 47 4 3 44 6 89 6 102 0 154 -20 154 -59 0 -21 2 -23 10 -11 8 13
10 13 10 0 0 -8 -14 -28 -31 -46 l-31 -32 20 -99 c16 -74 18 -109 12 -139 -5
-21 -9 -57 -8 -79 0 -33 2 -29 11 25 l10 65 13 -55 c6 -30 27 -126 45 -212 18
-87 34 -157 35 -155 1 1 21 90 43 197 22 107 45 211 50 230 5 19 17 77 26 128
16 93 16 94 -4 116 -12 13 -21 36 -21 54 0 26 7 36 33 52 27 17 46 20 122 18
99 -3 93 2 79 -73 -5 -28 8 -45 158 -210 237 -260 238 -261 238 -250 0 13
-160 527 -171 547 -5 9 -25 22 -44 28 -41 14 -44 29 -12 84 22 40 80 78 139
91 23 6 27 4 30 -21 3 -32 -17 -23 307 -128 95 -32 175 -55 178 -53 2 3 -18
25 -44 49 -26 24 -82 76 -123 114 -182 168 -207 186 -241 179 l-31 -7 7 85 c4
52 3 87 -3 90 -10 7 -22 -82 -22 -159 l0 -44 43 6 c40 6 45 4 107 -52 130
-116 223 -204 219 -208 -4 -4 -162 84 -337 187 -85 51 -99 98 -62 215 31 99
13 132 -69 132 -28 0 -48 -7 -61 -20 l-20 -20 27 -41 c47 -71 32 -143 -47
-239 -52 -62 -70 -102 -70 -153 0 -76 15 -102 67 -118 l46 -14 69 -214 c38
-118 67 -218 66 -223 -2 -4 -32 42 -67 104 -36 62 -100 173 -144 246 -111 186
-112 207 -7 362 57 84 70 115 70 163 0 30 -6 49 -18 60 -19 18 -59 22 -78 9
-12 -8 -25 -80 -27 -157 -3 -88 -83 -164 -140 -133 -12 7 -42 15 -67 18 l-44
5 -12 60 c-7 33 -9 63 -6 66 4 4 32 14 62 22 42 12 56 13 62 4 11 -17 10 -51
-2 -83 -22 -58 44 -71 96 -19 36 36 36 36 -42 142 -15 22 -15 24 15 58 38 44
77 119 86 166 5 27 2 41 -14 61 -17 21 -19 32 -12 51 16 40 58 67 107 67 40 0
44 2 44 24 0 28 -22 53 -57 67 -47 18 -92 -9 -125 -74 l-14 -28 -18 42 c-20
45 -71 75 -107 64 -31 -10 -59 -46 -59 -77 0 -27 1 -27 44 -22 41 6 48 4 75
-24 36 -36 38 -46 11 -69 -11 -10 -20 -29 -20 -44 0 -14 -12 -44 -26 -65 -25
-38 -102 -114 -115 -114 -8 0 -17 52 -11 68 2 7 12 12 22 12 26 0 50 10 50 22
0 17 -69 39 -90 28 -26 -14 -30 -13 -30 9 0 10 7 22 16 25 13 5 15 15 11 41
-7 44 4 51 31 20 33 -38 63 -31 82 19 13 34 -2 58 -22 38 -24 -24 -47 -13 -59
27 -14 47 1 96 31 106 38 12 42 29 30 127 -6 51 -17 99 -24 106 -11 12 -15 3
-25 -52 -6 -36 -16 -96 -22 -132 -7 -40 -15 -61 -19 -53 -6 11 -22 423 -34
864 -1 50 -3 86 -5 80z m-23 -560 c7 -206 7 -208 13 -95 5 93 6 78 5 -78 -1
-105 2 -192 7 -192 4 0 7 -13 7 -30 0 -16 -4 -30 -10 -30 -5 0 -10 12 -10 26
0 17 -4 23 -12 18 -8 -5 -9 -2 -4 12 4 10 10 44 13 74 6 50 5 54 -10 41 -16
-12 -17 -4 -17 106 0 66 -2 196 -5 289 -3 131 -2 158 6 119 6 -27 13 -144 17
-260z m3 -475 c5 0 9 -33 9 -74 0 -56 -4 -75 -15 -80 -11 -4 -15 2 -15 25 0
18 4 28 10 24 6 -4 10 10 10 34 0 23 -4 41 -10 41 -6 0 -9 23 -8 53 1 43 2 45
5 15 2 -21 8 -38 14 -38z m36 -92 c-2 -13 -4 -5 -4 17 -1 22 1 32 4 23 2 -10
2 -28 0 -40z m-378 -107 c24 -54 119 -149 170 -172 34 -15 42 -39 13 -39 -27
0 -112 56 -150 98 -37 42 -72 111 -72 141 0 35 15 24 39 -28z m651 23 c0 -39
-55 -129 -103 -168 -44 -35 -68 -49 -111 -66 -22 -8 -26 -7 -26 9 0 11 15 25
40 36 55 25 145 117 167 171 20 50 33 56 33 18z m-366 -64 c4 -31 3 -39 -3
-25 -5 11 -10 30 -10 43 -1 13 -5 20 -11 17 -6 -3 -7 1 -4 10 10 24 21 6 28
-45z m46 -10 l-11 -25 6 25 c2 14 5 34 6 45 2 19 2 19 6 0 2 -12 -1 -32 -7
-45z m-23 -37 c-3 -10 -5 -4 -5 12 0 17 2 24 5 18 2 -7 2 -21 0 -30z m93 -41
c0 -7 -4 -10 -10 -7 -5 3 -10 16 -10 28 0 18 2 19 10 7 5 -8 10 -21 10 -28z
m-173 6 c-3 -8 -6 -5 -6 6 -1 11 2 17 5 13 3 -3 4 -12 1 -19z m140 -115 c-2
-16 -4 -5 -4 22 0 28 2 40 4 28 2 -13 2 -35 0 -50z m-120 -5 c-2 -13 -4 -5 -4
17 -1 22 1 32 4 23 2 -10 2 -28 0 -40z m150 30 c-3 -8 -6 -5 -6 6 -1 11 2 17
5 13 3 -3 4 -12 1 -19z m32 -165 c19 -77 23 -103 13 -103 -6 0 -13 24 -17 53
-3 28 -9 60 -11 70 -3 9 -3 17 0 17 3 0 10 -17 15 -37z m-9 -113 c0 -5 -7 -10
-16 -10 -8 0 -12 5 -9 10 3 6 10 10 16 10 5 0 9 -4 9 -10z m-200 -10 c0 -5 -7
-7 -15 -4 -8 4 -15 8 -15 10 0 2 7 4 15 4 8 0 15 -4 15 -10z m137 -217 c27
-27 28 -31 27 -133 -1 -77 -10 -146 -34 -260 -18 -85 -35 -157 -37 -160 -3 -3
-2 56 1 130 4 74 8 206 8 293 1 86 3 157 4 157 2 0 16 -12 31 -27z m63 -74 c0
-6 -4 -7 -10 -4 -5 3 -10 11 -10 16 0 6 5 7 10 4 6 -3 10 -11 10 -16z"/>
<path d="M1302 730 c0 -14 2 -19 5 -12 2 6 2 18 0 25 -3 6 -5 1 -5 -13z"/>
<path d="M1336 543 c-3 -10 -2 -40 3 -68 l9 -50 1 68 c1 67 -3 82 -13 50z"/>
</g>
</svg>
