<?xml version="1.0" standalone="no"?>
<!DOCTYPE svg PUBLIC "-//W3C//DTD SVG 20010904//EN"
 "http://www.w3.org/TR/2001/REC-SVG-20010904/DTD/svg10.dtd">
<svg version="1.0" xmlns="http://www.w3.org/2000/svg"
 width="244.000000pt" height="305.000000pt" viewBox="0 0 244.000000 305.000000"
 preserveAspectRatio="xMidYMid meet">
<metadata>
Created by potrace 1.16, written by Peter Selinger 2001-2019
</metadata>
<g transform="translate(0.000000,305.000000) scale(0.100000,-0.100000)"
fill="#000000" stroke="none">
<path d="M877 2833 c-46 -182 -74 -417 -83 -710 l-7 -202 29 -11 c16 -6 41
-23 55 -36 l27 -25 33 29 c19 16 43 32 53 36 18 6 19 17 13 249 -7 232 -18
351 -51 537 -24 137 -38 200 -45 200 -4 0 -15 -30 -24 -67z m19 -931 c-3 -2
-18 5 -34 17 -17 12 -36 21 -42 21 -17 0 -7 397 14 565 17 137 43 300 54 330
4 11 8 -193 10 -454 1 -261 0 -476 -2 -479z"/>
<path d="M1564 2874 c7 -27 9 -964 3 -971 -3 -2 -23 9 -46 23 l-41 28 0 100
c0 209 20 424 66 726 4 25 4 43 1 39 -4 -3 -18 -73 -31 -157 -28 -167 -44
-370 -48 -592 -3 -142 -3 -144 20 -156 13 -6 36 -24 52 -39 l29 -28 35 29 c19
16 44 36 56 44 l22 15 -11 250 c-6 138 -20 311 -30 385 -17 116 -26 165 -58
308 -3 12 -10 22 -15 22 -6 0 -7 -11 -4 -26z"/>
<path d="M1203 2695 c0 -22 2 -30 4 -17 2 12 2 30 0 40 -3 9 -5 -1 -4 -23z"/>
<path d="M1261 2600 c-3 -63 -3 -64 -14 -30 -8 27 -11 30 -14 15 -2 -11 -8
-29 -13 -40 -32 -69 -70 -377 -70 -566 0 -113 -14 -153 -25 -72 -10 71 -34
185 -40 191 -13 13 -23 -19 -35 -106 l-13 -92 42 -39 c43 -40 50 -66 31 -115
-10 -26 -43 -36 -55 -16 -12 20 -25 10 -25 -19 0 -32 22 -61 46 -61 8 0 25 11
38 25 31 33 39 31 32 -7 -7 -38 1 -54 29 -59 15 -3 21 -14 23 -39 l4 -35 -24
21 c-34 31 -55 35 -94 19 -52 -22 -47 -33 26 -49 41 -9 60 -54 63 -147 2 -81
1 -83 -23 -89 -20 -5 -25 -12 -25 -35 0 -25 4 -31 28 -33 19 -2 27 -9 27 -23
0 -23 -22 -49 -42 -49 -15 0 -38 -19 -38 -32 0 -4 10 -16 22 -28 25 -23 22
-31 -9 -19 -19 7 -23 16 -23 53 0 28 -5 46 -14 49 -16 6 -70 -5 -106 -22 -61
-29 -134 50 -137 148 -3 91 -8 130 -18 140 -23 21 -52 21 -78 0 -22 -16 -27
-29 -27 -62 0 -43 4 -50 104 -222 73 -126 77 -111 -110 -427 -51 -87 -103
-176 -114 -198 -41 -80 -33 -37 29 155 24 72 51 158 62 191 19 60 21 62 65 73
52 13 66 37 67 116 0 59 -9 79 -74 161 -79 99 -88 152 -41 236 26 48 27 49 8
64 -11 8 -41 14 -66 14 -80 0 -98 -44 -61 -150 31 -87 12 -149 -57 -191 -77
-46 -298 -172 -327 -185 -30 -15 71 87 202 203 61 54 64 55 108 49 l45 -7 -6
88 c-10 124 -24 150 -21 36 l2 -91 -36 1 c-34 2 -50 -10 -223 -167 -102 -93
-184 -171 -182 -174 3 -2 113 31 245 74 224 72 241 79 241 101 0 36 26 38 88
7 93 -48 136 -138 72 -150 -16 -4 -34 -11 -38 -18 -9 -11 -50 -132 -90 -266
-11 -36 -36 -116 -56 -179 -19 -63 -34 -116 -32 -118 5 -5 83 78 260 277 100
112 145 169 140 180 -3 8 -8 30 -11 47 l-6 33 90 0 c77 0 95 -3 123 -22 56
-39 59 -53 21 -92 l-33 -34 52 -248 c28 -137 58 -285 67 -329 9 -43 18 -75 20
-70 4 15 103 491 114 555 6 30 12 63 15 72 3 10 -9 32 -30 56 l-35 39 27 25
c44 41 66 48 156 48 94 0 99 -4 76 -65 -6 -15 -7 -32 -3 -40 7 -10 58 -68 158
-179 142 -156 247 -265 243 -250 -3 11 -43 140 -89 288 l-84 270 -37 14 c-45
18 -49 42 -15 93 24 38 127 95 152 85 8 -3 15 -16 15 -29 0 -21 13 -28 143
-70 299 -99 329 -108 339 -105 5 2 -55 62 -133 133 -79 72 -164 149 -189 173
-40 38 -49 43 -80 38 l-35 -5 2 97 c1 86 1 91 -8 47 -5 -27 -16 -81 -25 -119
-14 -57 -14 -70 -3 -77 8 -5 97 -59 198 -121 101 -62 178 -114 172 -116 -10
-3 -305 99 -343 119 -14 8 -16 14 -8 29 15 29 12 44 -12 55 -15 6 -28 26 -37
54 -13 41 -12 51 8 118 26 89 27 125 3 146 -33 30 -142 15 -142 -19 0 -7 11
-30 25 -50 44 -65 31 -133 -45 -228 -55 -70 -76 -113 -90 -184 -11 -59 -4 -76
148 -345 62 -109 112 -201 112 -205 0 -8 -59 56 -162 178 -39 47 -77 90 -83
95 -6 6 -23 27 -39 47 -23 31 -27 44 -22 75 4 21 8 73 10 115 4 76 6 80 76
199 84 139 97 192 61 228 -15 15 -32 21 -53 19 -30 -3 -32 -6 -45 -68 -7 -36
-11 -78 -8 -94 7 -37 -25 -94 -71 -125 -34 -24 -36 -24 -70 -8 -19 10 -53 17
-74 17 -40 0 -40 0 -40 -39 0 -42 -10 -55 -52 -65 -24 -5 -28 -12 -28 -40 0
-47 -10 -72 -21 -54 -6 9 -9 4 -9 -14 0 -16 -4 -28 -9 -28 -9 0 20 124 33 137
4 4 22 13 39 19 18 6 32 17 33 25 1 21 -16 39 -36 39 -35 0 -42 67 -7 72 14 2
23 11 25 26 4 24 -15 55 -28 47 -4 -3 -13 2 -19 9 -14 17 -5 124 15 172 16 38
30 50 72 59 36 8 41 20 13 35 -33 17 -74 11 -105 -15 -16 -14 -30 -25 -31 -25
0 0 1 15 3 34 3 24 11 37 28 45 20 9 24 18 24 51 0 22 2 40 5 40 2 0 15 -11
29 -25 30 -30 40 -31 66 -5 26 26 28 75 3 65 -45 -18 -53 -17 -63 10 -23 61
-13 88 48 133 23 17 24 19 12 102 -7 47 -17 96 -22 110 -10 24 -10 24 -18 5
-4 -11 -15 -71 -26 -132 -10 -62 -22 -113 -26 -113 -4 0 -8 44 -8 98 0 104
-26 437 -36 462 -4 8 -10 69 -14 135 -5 92 -7 105 -9 55z m-34 -463 c-1 -67
-3 -9 -3 128 0 138 2 192 3 122 2 -71 2 -183 0 -250z m-19 -29 c-2 -113 0
-204 5 -201 14 9 7 -46 -9 -61 -13 -13 -14 -28 -8 -84 l8 -67 11 75 11 75 0
-122 c0 -67 -4 -120 -8 -117 -4 3 -8 17 -9 32 -1 26 -1 26 -7 4 -6 -21 -9 -21
-26 -9 -19 14 -19 23 -8 303 12 304 34 542 40 434 2 -30 2 -148 0 -262z m42
-609 c0 -32 -15 -46 -24 -23 -11 28 -6 51 9 51 10 0 15 -10 15 -28z m-57 -523
c-4 -15 -7 -16 -14 -5 -11 17 -12 83 -1 93 9 10 22 -63 15 -88z m47 -57 c0 -5
-3 -9 -7 -9 -5 0 -7 -138 -6 -307 2 -283 1 -304 -13 -258 -7 28 -17 83 -20
123 -4 40 -10 70 -13 67 -7 -7 -49 188 -50 230 -1 21 9 41 31 65 33 35 33 35
36 10 2 -13 -1 -66 -8 -118 -10 -83 -9 -114 4 -101 3 2 8 75 12 161 5 126 9
155 20 151 8 -3 14 -9 14 -14z"/>
<path d="M763 1862 c-29 -4 -65 -50 -61 -76 3 -18 9 -21 44 -18 35 3 47 -2 78
-28 40 -35 44 -54 19 -82 -34 -38 -9 -128 63 -222 18 -24 34 -48 34 -52 0 -5
-14 -22 -30 -39 -43 -45 -54 -88 -29 -119 22 -28 84 -45 101 -28 7 7 6 26 -3
61 -11 44 -11 53 2 66 13 13 22 13 77 -7 48 -18 66 -20 79 -12 31 19 20 34
-41 59 -53 21 -96 52 -133 95 -29 32 -73 116 -73 138 0 35 15 26 36 -20 25
-58 109 -145 166 -174 57 -29 58 -29 58 -4 0 12 -20 35 -53 59 -75 57 -126
126 -127 172 0 14 -9 34 -20 44 -18 16 -18 20 -4 47 18 34 54 50 104 46 32 -3
35 -1 31 22 -5 41 -20 59 -54 68 -52 14 -80 1 -102 -46 -11 -22 -23 -41 -27
-42 -4 0 -15 16 -24 35 -9 20 -21 38 -26 41 -17 11 -63 20 -85 16z"/>
<path d="M1435 1860 c-29 -11 -43 -31 -47 -65 -3 -30 -3 -30 44 -27 40 3 51 0
73 -22 27 -27 33 -60 12 -73 -8 -4 -17 -25 -20 -45 -8 -50 -58 -119 -124 -168
-32 -25 -53 -48 -53 -60 0 -17 4 -18 25 -10 78 30 166 112 199 188 20 44 36
55 36 24 0 -32 -50 -120 -93 -163 -42 -42 -126 -89 -159 -89 -22 0 -23 -23 -2
-41 13 -10 27 -9 82 9 63 21 68 21 80 4 7 -9 10 -28 7 -41 -19 -75 -18 -80 8
-86 28 -7 81 16 95 42 14 24 -3 72 -38 108 -16 17 -30 35 -30 40 0 4 19 32 41
61 64 83 90 185 54 214 -23 19 -18 45 17 79 27 26 40 31 80 31 40 0 48 3 48
19 0 28 -37 69 -69 76 -44 9 -89 -18 -111 -68 l-19 -41 -16 41 c-11 29 -27 46
-50 57 -37 18 -41 18 -70 6z"/>
</g>
</svg>
