<?xml version="1.0" standalone="no"?>
<!DOCTYPE svg PUBLIC "-//W3C//DTD SVG 20010904//EN"
 "http://www.w3.org/TR/2001/REC-SVG-20010904/DTD/svg10.dtd">
<svg version="1.0" xmlns="http://www.w3.org/2000/svg"
 width="244.000000pt" height="305.000000pt" viewBox="0 0 244.000000 305.000000"
 preserveAspectRatio="xMidYMid meet">
<metadata>
Created by potrace 1.16, written by Peter Selinger 2001-2019
</metadata>
<g transform="translate(0.000000,305.000000) scale(0.100000,-0.100000)"
fill="#000000" stroke="none">
<path d="M1560 2900 c0 -8 -3 -26 -6 -40 -4 -20 -3 -22 5 -10 8 11 11 -122 11
-467 0 -266 -3 -483 -7 -483 -4 0 -24 12 -45 26 l-38 27 0 151 c0 210 18 394
66 691 4 22 4 37 0 34 -11 -10 -54 -288 -65 -419 -5 -69 -13 -206 -17 -306
l-6 -181 30 -12 c16 -7 40 -23 52 -36 l22 -23 45 34 c24 19 49 34 54 34 12 0
12 195 -1 395 -15 228 -62 537 -90 585 -8 13 -9 13 -10 0z"/>
<path d="M886 2869 c-8 -42 -6 -60 4 -29 4 14 8 -192 9 -457 1 -271 -3 -483
-8 -483 -5 0 -15 7 -22 16 -7 9 -24 20 -37 25 l-24 9 6 183 c7 180 27 411 47
537 19 121 18 146 -1 55 -33 -155 -50 -331 -57 -572 -6 -223 -5 -233 13 -239
10 -4 35 -20 55 -35 l36 -28 23 24 c12 13 36 29 52 36 l31 13 -7 185 c-4 102
-11 238 -17 301 -17 195 -70 490 -89 490 -4 0 -10 -14 -14 -31z"/>
<path d="M1126 2798 c-3 -57 -9 -251 -13 -433 -5 -244 -10 -320 -17 -292 -5
20 -13 37 -17 37 -7 0 -24 -88 -33 -169 -4 -37 -1 -47 20 -66 13 -12 24 -30
24 -40 0 -17 -2 -16 -23 4 -53 49 -127 25 -153 -50 l-12 -34 -12 30 c-20 52
-49 75 -95 75 -49 0 -85 -31 -85 -73 0 -26 2 -27 39 -21 46 7 84 -13 107 -59
15 -27 14 -30 -5 -48 -12 -11 -21 -28 -21 -38 0 -37 41 -136 75 -179 19 -25
35 -51 35 -58 0 -7 -16 -31 -35 -54 -19 -23 -35 -53 -35 -66 0 -27 34 -62 71
-72 22 -6 25 -10 18 -29 -12 -33 -27 -29 -76 22 -39 41 -43 49 -41 93 2 57
-11 142 -25 160 -14 18 -62 15 -80 -6 -34 -38 -22 -97 42 -206 90 -153 97
-170 85 -214 -10 -38 -283 -526 -290 -519 -2 2 0 17 5 33 5 16 37 115 70 220
l61 191 45 13 c37 10 46 18 56 47 6 20 9 59 7 89 -4 46 -12 63 -61 126 -88
115 -97 161 -53 244 l26 49 -21 17 c-13 11 -38 18 -64 18 -75 0 -92 -47 -56
-153 32 -92 10 -150 -75 -200 -31 -17 -77 -44 -102 -60 -93 -55 -197 -112
-208 -113 -11 -2 20 29 203 200 62 58 63 58 108 52 l46 -7 -7 93 c-9 126 -26
151 -21 30 l3 -92 -31 6 c-29 5 -39 -1 -96 -53 -171 -155 -309 -286 -305 -290
2 -2 110 31 240 74 233 76 236 77 236 105 0 36 20 36 91 1 42 -22 59 -38 79
-74 20 -40 22 -49 11 -63 -7 -9 -21 -16 -31 -16 -10 0 -22 -6 -28 -13 -6 -6
-42 -113 -80 -237 -92 -293 -102 -330 -94 -329 7 1 149 159 321 356 l73 84
-11 44 c-6 24 -11 46 -11 49 0 3 38 6 85 6 l85 0 0 -32 c0 -18 -9 -125 -20
-238 -11 -113 -20 -218 -19 -235 l1 -30 9 30 c5 17 7 41 4 53 -3 14 -2 21 4
18 5 -3 19 34 30 82 12 48 26 93 30 100 5 8 16 -29 29 -90 62 -302 94 -453 96
-455 3 -3 71 326 101 486 8 41 16 76 19 78 4 5 22 -52 56 -187 21 -82 39 -128
25 -62 -4 18 -7 53 -7 79 0 26 -3 41 -7 35 -4 -7 -20 67 -35 164 -20 130 -25
179 -16 188 8 8 13 7 20 -4 8 -13 10 -12 10 3 0 15 11 17 86 17 l86 0 -6 -26
c-18 -72 -17 -78 21 -121 21 -22 110 -122 198 -221 88 -99 161 -179 163 -178
3 3 -148 499 -167 549 -6 16 -23 29 -46 37 -34 11 -37 15 -31 42 12 62 82 120
156 130 21 2 26 -2 28 -23 3 -25 13 -30 180 -84 97 -32 208 -69 246 -82 l70
-23 -30 31 c-16 17 -103 99 -193 181 -154 141 -165 149 -195 144 l-32 -6 3 92
c2 63 0 87 -6 73 -5 -11 -10 -36 -10 -56 -1 -19 -8 -60 -17 -89 -16 -54 -16
-54 7 -73 21 -17 156 -103 207 -132 61 -35 171 -109 167 -113 -2 -2 -23 3 -47
13 -24 9 -94 35 -157 57 -63 21 -127 46 -142 54 -26 13 -27 17 -17 40 10 22 8
28 -19 52 -45 42 -50 94 -18 195 26 80 26 81 7 106 -24 32 -91 41 -127 17 -26
-17 -25 -32 7 -78 11 -17 18 -44 18 -76 0 -51 1 -49 -93 -181 -33 -45 -55
-104 -64 -166 -5 -39 1 -55 66 -176 39 -74 84 -156 99 -184 64 -114 90 -165
82 -165 -15 0 -300 351 -294 362 4 6 10 59 14 118 l6 107 72 120 c62 102 72
126 72 166 0 36 -5 49 -22 61 -27 19 -62 21 -75 4 -13 -17 -27 -102 -25 -154
2 -50 -28 -99 -77 -128 -33 -19 -34 -19 -47 -1 -8 10 -14 13 -14 7 0 -9 -7 -8
-24 3 -30 20 -46 64 -45 119 2 40 2 40 8 9 4 -24 10 -30 19 -24 12 7 12 12 0
30 -11 18 -11 23 2 31 8 5 20 8 25 7 12 -4 19 -62 10 -85 -5 -14 -7 -14 -16
-2 -8 11 -9 9 -4 -10 16 -60 14 -58 48 -50 94 21 112 67 52 137 -19 23 -35 48
-35 56 0 8 13 31 29 51 66 82 98 188 67 218 -45 45 13 122 87 116 44 -3 53 7
43 47 -7 26 -51 55 -84 55 -29 0 -72 -39 -90 -79 l-15 -36 -17 40 c-9 22 -25
47 -34 55 -28 22 -82 18 -111 -10 l-25 -23 0 21 c0 12 9 27 20 34 15 9 20 24
20 53 0 52 -19 168 -29 178 -4 4 -16 -27 -26 -70 -10 -43 -21 -89 -26 -103 -4
-14 -9 182 -10 435 -2 420 -12 487 -19 135 -1 -63 -5 -128 -9 -145 -6 -27 -8
-24 -15 25 -4 30 -17 93 -28 139 -18 71 -23 81 -30 61 -5 -13 -7 -29 -4 -36 3
-7 1 -14 -5 -16 -21 -7 -51 -205 -60 -393 -5 -104 -11 -194 -13 -200 -3 -5 -5
207 -4 473 0 266 -2 485 -5 488 -2 2 -7 -42 -11 -98z m87 -634 c-6 -241 -9
-277 -13 -187 -3 62 -9 116 -14 120 -7 7 -3 -147 10 -301 4 -55 2 -76 -5 -72
-7 5 -11 -7 -11 -33 0 -46 6 -52 20 -18 8 19 9 17 9 -15 1 -21 -2 -38 -6 -38
-22 1 -33 21 -39 71 -5 45 -3 59 11 72 13 14 15 26 9 55 -14 65 -8 399 10 520
9 62 16 118 16 124 0 6 3 9 6 6 3 -3 2 -140 -3 -304z m-103 -416 c0 -23 -27
-35 -43 -19 -35 35 -52 -19 -18 -60 16 -21 22 -22 45 -11 26 11 26 11 26 -28
0 -34 -4 -42 -24 -50 -14 -5 -33 -21 -42 -36 l-18 -26 -23 26 c-13 15 -28 47
-34 71 -6 25 -17 50 -25 56 -20 17 -17 34 12 68 24 29 30 31 85 30 51 -1 59
-4 59 -21z m394 -9 c29 -34 32 -51 12 -68 -7 -6 -16 -26 -20 -43 -6 -32 -52
-108 -65 -108 -3 0 -11 10 -16 22 -6 13 -22 29 -37 36 -23 10 -28 20 -28 47 0
32 2 34 30 30 25 -3 33 1 45 25 8 16 15 36 15 45 0 18 -21 20 -37 4 -15 -15
-43 -4 -43 15 0 15 25 22 87 25 24 1 37 -6 57 -30z m-574 -161 c11 -24 40 -68
65 -98 74 -90 47 -108 -28 -19 -43 49 -67 98 -67 133 0 36 7 33 30 -16z m375
-5 c-5 -15 -7 -15 -23 1 -16 16 -16 18 3 32 18 13 20 13 23 -1 2 -9 1 -23 -3
-32z m262 8 c-5 -43 -63 -134 -103 -164 -24 -18 -24 -18 -24 5 0 13 18 43 41
68 23 25 50 64 61 88 24 53 32 54 25 3z m-373 21 c8 -13 -11 -35 -23 -28 -16
10 -14 36 3 36 8 0 17 -4 20 -8z m-68 -99 c3 -16 8 -36 11 -45 5 -22 -1 -22
-32 -2 -30 19 -33 74 -4 74 12 0 21 -10 25 -27z m111 -20 c-3 -10 -5 -2 -5 17
0 19 2 27 5 18 2 -10 2 -26 0 -35z m146 15 c-6 -30 -27 -57 -46 -58 -7 0 -4
24 10 73 2 9 13 17 23 17 17 0 19 -5 13 -32z m-216 -60 c-3 -8 -6 -5 -6 6 -1
11 2 17 5 13 3 -3 4 -12 1 -19z m260 -40 c-3 -8 -6 -5 -6 6 -1 11 2 17 5 13 3
-3 4 -12 1 -19z m-350 -10 c-3 -8 -6 -5 -6 6 -1 11 2 17 5 13 3 -3 4 -12 1
-19z m68 -16 c0 -18 -20 -15 -23 4 -3 10 1 15 10 12 7 -3 13 -10 13 -16z m205
4 c0 -8 -4 -17 -9 -21 -12 -7 -24 12 -16 25 9 15 25 12 25 -4z m-336 -42 c9
-3 16 -15 16 -26 0 -10 -4 -17 -9 -13 -5 3 -12 -4 -16 -15 -8 -25 -21 -26 -27
-2 -5 17 7 62 16 62 2 0 11 -3 20 -6z m21 -130 c-8 -20 -18 -35 -21 -31 -3 3
2 19 10 36 9 16 17 52 18 78 l2 48 3 -47 c3 -27 -2 -61 -12 -84z m145 106 c0
-5 -4 -10 -10 -10 -5 0 -10 5 -10 10 0 6 5 10 10 10 6 0 10 -4 10 -10z m130 0
c0 -5 -4 -10 -10 -10 -5 0 -10 5 -10 10 0 6 5 10 10 10 6 0 10 -4 10 -10z m65
-85 l-15 -60 6 50 c7 65 17 104 21 85 2 -9 -3 -42 -12 -75z m-271 -10 c4 -26
3 -35 -3 -25 -5 8 -12 38 -15 65 -7 56 6 27 18 -40z m42 -12 c13 -17 13 -17
14 0 0 21 18 23 27 2 5 -15 -22 -55 -38 -55 -6 0 -29 53 -29 66 0 10 14 2 26
-13z m194 -8 c0 -29 -24 -43 -45 -25 -19 16 -8 42 16 35 11 -4 19 -2 19 4 0 6
2 11 5 11 3 0 5 -11 5 -25z m-97 -271 c-7 -19 -10 -18 -16 5 -3 13 -1 18 9 14
7 -2 10 -11 7 -19z m-113 -49 c0 -19 -4 -44 -9 -57 -5 -13 -21 -83 -36 -156
-16 -73 -30 -131 -32 -129 -3 4 39 281 53 350 8 38 24 34 24 -8z m30 -20 c0
-17 -2 -17 -10 -5 -5 8 -10 24 -10 35 0 17 2 17 10 5 5 -8 10 -24 10 -35z
m170 16 c0 -22 -16 -36 -24 -22 -8 12 3 41 15 41 5 0 9 -9 9 -19z m-125 -123
c0 -68 3 -188 7 -268 l7 -145 -29 135 c-46 211 -60 280 -60 300 0 16 58 98 70
99 3 1 5 -54 5 -121z"/>
<path d="M1343 2655 c0 -22 2 -30 4 -17 2 12 2 30 0 40 -3 9 -5 -1 -4 -23z"/>
<path d="M1153 2585 c0 -27 2 -38 4 -22 2 15 2 37 0 50 -2 12 -4 0 -4 -28z"/>
<path d="M1353 2385 c0 -44 2 -61 4 -37 2 23 2 59 0 80 -2 20 -4 1 -4 -43z"/>
<path d="M1392 875 c0 -16 2 -22 5 -12 2 9 2 23 0 30 -3 6 -5 -1 -5 -18z"/>
<path d="M1403 775 c0 -22 2 -30 4 -17 2 12 2 30 0 40 -3 9 -5 -1 -4 -23z"/>
<path d="M1413 665 c0 -22 2 -30 4 -17 2 12 2 30 0 40 -3 9 -5 -1 -4 -23z"/>
</g>
</svg>
