<?xml version="1.0" standalone="no"?>
<!DOCTYPE svg PUBLIC "-//W3C//DTD SVG 20010904//EN"
 "http://www.w3.org/TR/2001/REC-SVG-20010904/DTD/svg10.dtd">
<svg version="1.0" xmlns="http://www.w3.org/2000/svg"
 width="244.000000pt" height="305.000000pt" viewBox="0 0 244.000000 305.000000"
 preserveAspectRatio="xMidYMid meet">
<metadata>
Created by potrace 1.16, written by Peter Selinger 2001-2019
</metadata>
<g transform="translate(0.000000,305.000000) scale(0.100000,-0.100000)"
fill="#000000" stroke="none">
<path d="M1162 2885 c0 -16 2 -22 5 -12 2 9 2 23 0 30 -3 6 -5 -1 -5 -18z"/>
<path d="M890 2886 c0 -8 -3 -22 -7 -32 -4 -12 -3 -15 5 -10 9 5 12 -108 12
-468 0 -262 -2 -476 -5 -476 -3 0 -23 12 -45 26 l-40 27 0 151 c0 185 13 342
45 550 14 88 23 162 20 164 -3 3 -5 2 -5 -2 0 -4 -6 -39 -14 -79 -38 -189 -53
-342 -62 -609 -5 -146 -4 -208 4 -208 6 0 32 -16 57 -36 l47 -35 19 20 c11 11
33 28 49 36 l30 16 0 167 c0 92 -7 239 -15 326 -16 172 -72 486 -86 486 -5 0
-9 -6 -9 -14z"/>
<path d="M1564 2876 c7 -30 11 -965 3 -972 -3 -3 -24 7 -47 22 l-43 28 7 211
c7 210 23 375 51 535 21 119 17 144 -6 35 -29 -141 -47 -312 -58 -550 -6 -121
-10 -228 -10 -238 0 -10 19 -30 41 -45 23 -15 47 -31 54 -37 9 -7 19 -7 28 0
7 6 32 23 56 38 l42 29 -7 176 c-3 97 -11 233 -16 301 -15 191 -71 491 -91
491 -6 0 -8 -11 -4 -24z"/>
<path d="M1551 2844 c0 -11 3 -14 6 -6 3 7 2 16 -1 19 -3 4 -6 -2 -5 -13z"/>
<path d="M1162 2825 c0 -16 2 -22 5 -12 2 9 2 23 0 30 -3 6 -5 -1 -5 -18z"/>
<path d="M1162 2750 c0 -14 -2 -36 -5 -50 -4 -14 -9 -205 -12 -425 -2 -220 -5
-402 -5 -405 0 -3 -5 2 -10 10 -5 8 -10 29 -10 47 0 39 -28 165 -39 176 -10
10 -16 -12 -32 -122 -13 -91 -13 -91 45 -126 19 -12 28 -79 15 -112 -9 -24
-38 -30 -56 -12 -17 17 -35 1 -27 -24 17 -58 63 -74 90 -32 9 14 19 25 23 25
3 0 7 -27 7 -60 1 -60 1 -60 -28 -60 -32 0 -68 -16 -68 -29 0 -5 11 -12 25
-15 26 -7 32 -29 16 -55 -14 -22 -98 72 -112 124 -6 22 -15 47 -20 55 -20 32
-21 42 -10 66 13 30 55 47 99 40 29 -4 32 -2 32 20 0 38 -16 61 -51 73 -46 16
-94 -7 -114 -56 l-17 -38 -19 37 c-22 44 -48 60 -97 61 -26 1 -40 -6 -58 -27
-13 -15 -24 -36 -24 -47 0 -16 7 -19 46 -19 39 0 51 -5 80 -34 37 -37 42 -57
19 -76 -37 -30 -5 -142 65 -230 17 -21 30 -42 30 -47 0 -5 -12 -20 -26 -34
-37 -34 -57 -84 -44 -109 11 -21 60 -50 82 -50 35 1 41 16 27 69 -11 45 -11
53 3 67 14 14 19 14 52 0 40 -17 42 -26 23 -100 -12 -46 -15 -49 -66 -68 -64
-24 -86 -16 -132 47 -24 32 -29 47 -24 75 3 19 -1 64 -8 100 -14 65 -14 65
-50 68 -29 3 -39 -2 -53 -23 -28 -42 -14 -102 43 -192 28 -43 60 -97 72 -120
22 -43 28 -121 12 -139 -5 -5 -43 -67 -84 -139 -167 -292 -207 -358 -207 -340
0 14 134 417 143 432 4 7 26 17 48 23 40 11 53 29 66 91 9 44 -16 105 -70 176
-29 37 -58 81 -65 96 -19 44 -14 98 13 142 13 22 25 45 25 51 0 16 -46 34 -89
34 -68 0 -88 -50 -56 -140 19 -54 19 -113 0 -150 -14 -26 -86 -75 -240 -160
-22 -12 -64 -35 -93 -52 -29 -17 -55 -28 -58 -25 -2 2 57 61 133 131 l138 127
49 -6 48 -6 -6 68 c-11 128 -18 158 -29 138 -9 -17 -3 -128 9 -160 5 -13 0
-15 -32 -10 -35 5 -43 2 -85 -37 -25 -24 -110 -101 -188 -173 -79 -71 -139
-131 -134 -132 5 -2 114 32 243 74 214 71 235 80 240 103 8 34 27 35 90 3 59
-31 87 -62 96 -109 5 -28 3 -31 -33 -45 l-38 -15 -69 -220 c-38 -120 -77 -246
-88 -278 -17 -54 -17 -86 0 -59 4 6 90 102 192 213 102 111 188 207 192 214 3
6 1 30 -5 53 -6 23 -9 45 -6 48 8 8 150 8 181 0 35 -9 41 -30 29 -107 -12 -78
-22 -420 -11 -363 5 22 6 51 3 65 -4 20 -2 22 6 10 9 -11 10 -2 5 38 -4 33 -3
52 4 52 5 0 8 -10 5 -23 -3 -15 -2 -18 5 -9 6 9 13 -6 21 -50 23 -119 83 -403
85 -406 2 -1 15 60 30 135 16 76 37 173 47 217 10 43 19 91 19 105 1 44 16 4
30 -79 16 -95 21 -111 14 -40 -3 30 -6 87 -6 125 0 56 -2 64 -9 40 -9 -34 -4
65 7 122 5 24 1 35 -15 49 -15 13 -21 30 -21 57 0 23 4 36 10 32 6 -3 10 -2
10 3 0 20 64 35 138 33 42 -1 78 -4 81 -7 3 -2 0 -24 -6 -47 -14 -50 -12 -53
81 -152 36 -38 121 -131 188 -206 68 -75 124 -136 126 -134 1 1 -10 45 -27 96
-16 52 -46 148 -66 214 -80 257 -81 259 -114 271 -50 17 -55 27 -33 70 25 50
46 68 106 94 56 24 76 21 76 -12 0 -22 19 -30 236 -101 129 -43 240 -77 246
-75 6 2 -36 46 -93 98 -287 258 -270 245 -308 245 l-35 0 1 95 c1 91 1 92 -8
40 -6 -30 -17 -82 -25 -114 -12 -49 -13 -62 -2 -72 7 -6 72 -48 143 -92 72
-45 156 -97 189 -117 32 -20 56 -38 54 -41 -5 -4 -325 108 -358 126 -16 9 -18
14 -8 35 10 21 7 28 -20 53 -44 41 -50 89 -23 172 26 81 27 122 3 143 -33 30
-142 15 -142 -19 0 -7 11 -30 25 -50 44 -65 32 -135 -35 -215 -58 -68 -81
-113 -95 -179 -17 -83 -22 -72 192 -448 36 -63 63 -115 61 -118 -4 -4 -166
180 -263 298 -44 54 -47 60 -39 95 4 21 6 59 5 84 -4 71 14 120 90 247 62 105
70 122 67 162 -2 36 -8 47 -29 59 -14 8 -36 11 -50 8 -21 -5 -26 -15 -37 -76
-8 -39 -11 -79 -7 -90 3 -11 -1 -33 -9 -49 -18 -36 -84 -94 -99 -90 -7 2 -33
10 -59 18 -27 8 -48 19 -48 25 0 6 -4 5 -8 -2 -14 -22 -34 4 -36 43 -1 27 3
38 12 36 8 -1 11 5 6 22 -5 20 0 25 35 40 52 20 50 20 61 -8 5 -14 4 -39 -2
-66 -13 -50 -1 -64 46 -55 74 13 88 76 31 142 -19 23 -35 45 -35 51 0 5 12 22
26 38 65 73 104 205 69 234 -23 19 -18 39 20 77 30 30 40 34 77 31 38 -2 43 0
46 20 4 28 -47 82 -78 82 -35 0 -75 -27 -95 -64 -11 -20 -22 -36 -25 -36 -3 0
-12 16 -19 35 -30 85 -154 78 -163 -10 -3 -30 -3 -30 43 -27 39 3 51 -1 73
-23 29 -29 33 -56 12 -74 -7 -6 -16 -29 -20 -50 -6 -40 -72 -133 -108 -152
-18 -10 -19 -7 -16 28 2 31 7 39 26 41 12 2 22 8 22 13 0 14 -66 40 -84 33
-13 -5 -16 4 -16 55 0 34 3 61 6 61 3 0 15 -11 26 -25 11 -14 28 -25 38 -25
23 0 50 36 50 68 0 19 -4 23 -17 17 -45 -19 -53 -17 -64 11 -14 38 -5 96 18
111 56 38 54 32 43 118 -14 116 -20 139 -32 127 -9 -9 -48 -201 -48 -234 0 -5
-4 -8 -8 -8 -5 0 -7 37 -4 81 3 60 2 80 -7 75 -8 -5 -11 19 -12 86 -1 51 -5
219 -8 373 -7 256 -7 265 -10 110 l-3 -170 -26 95 -26 95 -18 -65 c-10 -36
-23 -79 -28 -96 -6 -17 -10 -44 -11 -60 0 -24 -2 -26 -8 -9 -9 24 -6 241 4
305 4 26 2 55 -4 70 l-11 25 2 -25z m57 -625 c-4 -214 -8 -394 -8 -398 -1 -5
-5 -5 -11 -2 -12 7 -13 -19 -3 -55 l7 -25 7 30 c6 27 7 26 8 -12 0 -24 -2 -43
-6 -43 -20 1 -31 18 -33 50 -5 62 0 101 10 95 6 -4 10 13 10 44 0 52 -16 78
-24 39 -3 -13 -7 -32 -9 -43 -4 -15 -5 -14 -6 6 0 14 6 48 14 75 11 36 15 100
15 241 0 164 7 268 25 358 2 11 4 24 4 29 1 5 3 7 5 5 2 -2 0 -179 -5 -394z
m-42 -147 c-2 -24 -4 -5 -4 42 0 47 2 66 4 43 2 -24 2 -62 0 -85z m60 -170
c-3 -8 -6 -5 -6 6 -1 11 2 17 5 13 3 -3 4 -12 1 -19z m-306 -239 c22 -47 138
-169 160 -169 5 0 9 -7 9 -15 0 -23 -22 -18 -71 15 -48 31 -100 96 -124 154
-33 78 -10 90 26 15z m649 33 c0 -55 -96 -184 -162 -218 -26 -13 -29 -13 -35
3 -4 11 0 20 12 27 46 26 117 103 141 152 27 55 44 69 44 36z m-381 -29 c0
-25 -1 -26 -9 -8 -12 27 -12 35 0 35 6 0 10 -12 9 -27z m90 20 c0 -5 -4 -17
-9 -28 -8 -18 -9 -17 -9 8 -1 15 4 27 9 27 6 0 10 -3 9 -7z m-52 -120 c-3 -10
-5 -2 -5 17 0 19 2 27 5 18 2 -10 2 -26 0 -35z m-83 21 c13 -34 19 -154 7
-154 -7 0 -11 20 -11 55 0 39 -4 55 -13 55 -9 0 -12 10 -9 30 5 33 16 39 26
14z m177 -42 c-6 -2 -11 -26 -11 -52 0 -27 -5 -52 -12 -56 -15 -10 -2 134 15
154 10 13 13 11 15 -14 2 -15 -1 -30 -7 -32z m-204 -84 c-3 -8 -6 -5 -6 6 -1
11 2 17 5 13 3 -3 4 -12 1 -19z m220 -10 c-3 -8 -6 -5 -6 6 -1 11 2 17 5 13 3
-3 4 -12 1 -19z m-252 -158 c-4 -17 -9 -29 -12 -26 -3 2 -2 19 2 36 4 17 9 29
12 26 3 -2 2 -19 -2 -36z m211 -28 c-4 -3 -12 0 -18 6 -9 9 -9 12 0 12 7 0 13
8 13 18 1 10 3 8 6 -6 3 -13 2 -26 -1 -30z m-126 0 c0 -7 -4 -10 -10 -7 -5 3
-10 16 -10 28 0 18 2 19 10 7 5 -8 10 -21 10 -28z m187 -49 c-3 -10 -5 -4 -5
12 0 17 2 24 5 18 2 -7 2 -21 0 -30z m-241 -50 c-11 -11 -26 10 -26 35 l0 27
15 -29 c9 -16 13 -31 11 -33z m235 4 c-13 -13 -26 -3 -16 12 3 6 11 8 17 5 6
-4 6 -10 -1 -17z m-124 -159 c-3 -8 -6 -5 -6 6 -1 11 2 17 5 13 3 -3 4 -12 1
-19z m-77 -58 c0 -11 -4 -20 -10 -20 -5 0 -10 9 -10 20 0 11 5 20 10 20 6 0
10 -9 10 -20z m56 -193 c1 -116 5 -248 9 -292 4 -44 5 -78 2 -75 -11 12 -81
369 -79 405 2 29 0 36 -8 25 -7 -11 -10 -6 -10 22 0 46 8 68 26 68 8 0 14 4
14 10 0 7 39 50 44 50 1 0 2 -96 2 -213z"/>
<path d="M1204 1980 c0 -69 1 -97 3 -62 2 34 2 90 0 125 -2 34 -3 6 -3 -63z"/>
<path d="M1152 775 c0 -16 2 -22 5 -12 2 9 2 23 0 30 -3 6 -5 -1 -5 -18z"/>
<path d="M1313 2605 c0 -22 2 -30 4 -17 2 12 2 30 0 40 -3 9 -5 -1 -4 -23z"/>
<path d="M1401 1224 c0 -11 3 -14 6 -6 3 7 2 16 -1 19 -3 4 -6 -2 -5 -13z"/>
</g>
</svg>
