<?xml version="1.0" standalone="no"?>
<!DOCTYPE svg PUBLIC "-//W3C//DTD SVG 20010904//EN"
 "http://www.w3.org/TR/2001/REC-SVG-20010904/DTD/svg10.dtd">
<svg version="1.0" xmlns="http://www.w3.org/2000/svg"
 width="244.000000pt" height="305.000000pt" viewBox="0 0 244.000000 305.000000"
 preserveAspectRatio="xMidYMid meet">
<metadata>
Created by potrace 1.16, written by Peter Selinger 2001-2019
</metadata>
<g transform="translate(0.000000,305.000000) scale(0.100000,-0.100000)"
fill="#000000" stroke="none">
<path d="M897 2900 c-10 -24 -45 -206 -61 -315 -20 -132 -36 -368 -36 -532 l0
-132 32 -17 c17 -9 39 -26 49 -37 l17 -21 35 31 c20 17 46 34 58 38 22 7 22 7
15 194 -10 252 -22 393 -46 536 -25 152 -31 177 -36 172 -3 -3 5 -63 16 -133
32 -191 50 -399 50 -575 l0 -156 -40 -27 c-22 -14 -42 -26 -45 -26 -3 0 -5
217 -4 483 0 278 4 474 9 462 l9 -20 -1 20 c0 11 -3 31 -8 45 -5 19 -9 21 -13
10z"/>
<path d="M1557 2883 c-3 -15 -15 -75 -26 -133 -33 -160 -49 -295 -61 -530 -14
-263 -13 -291 21 -307 13 -7 35 -23 48 -37 l24 -25 37 29 c21 17 43 30 49 30
24 0 27 45 20 266 -8 244 -24 388 -65 594 -26 132 -38 160 -47 113z m42 -143
c33 -188 50 -362 57 -580 l7 -205 -41 -28 c-23 -15 -44 -27 -47 -27 -3 0 -5
217 -5 482 0 265 2 479 4 477 3 -3 14 -56 25 -119z"/>
<path d="M1321 2874 c0 -11 3 -14 6 -6 3 7 2 16 -1 19 -3 4 -6 -2 -5 -13z"/>
<path d="M1141 2840 c-1 -14 -2 -230 -2 -480 0 -272 -3 -447 -9 -435 -5 11
-10 101 -11 200 l-3 180 -6 -135 c-3 -74 -7 -123 -8 -109 -1 15 -8 32 -16 38
-11 9 -15 -2 -25 -58 -17 -107 -15 -154 9 -169 12 -7 20 -23 20 -39 l0 -27
-15 21 c-9 12 -32 27 -52 32 -46 13 -76 -4 -100 -54 -9 -19 -19 -35 -22 -35
-3 0 -13 15 -21 33 -40 86 -170 75 -170 -15 0 -28 2 -29 35 -22 41 7 95 -21
113 -61 10 -22 9 -28 -8 -42 -35 -30 -20 -109 37 -193 62 -93 60 -82 20 -135
-38 -49 -44 -73 -27 -104 12 -23 64 -45 89 -38 17 4 18 2 9 -24 -15 -42 -44
-37 -95 17 -40 41 -44 49 -42 92 2 58 -10 143 -24 160 -15 18 -62 14 -81 -7
-10 -11 -18 -35 -18 -55 0 -38 7 -54 96 -211 54 -97 56 -102 56 -175 0 -41 4
-90 9 -108 9 -32 6 -37 -123 -190 -73 -86 -140 -163 -150 -171 -14 -12 -16
-12 -9 4 3 10 24 51 46 89 147 265 189 344 194 369 11 55 -17 145 -66 209
-102 134 -114 182 -65 266 l27 45 -23 19 c-24 20 -80 24 -110 8 -39 -21 -42
-43 -14 -138 22 -78 24 -96 14 -131 -7 -28 -19 -46 -36 -53 -26 -12 -30 -28
-13 -59 9 -17 5 -22 -28 -36 -73 -30 -316 -113 -320 -109 -3 2 19 20 49 38 85
54 226 141 261 161 66 38 69 45 52 118 -8 35 -18 87 -21 114 -10 77 -22 17
-14 -65 4 -36 5 -68 3 -72 -2 -4 -17 -5 -33 -2 -26 6 -41 -4 -142 -97 -179
-162 -260 -241 -255 -245 2 -3 110 30 238 73 213 71 234 80 240 103 4 20 11
25 33 23 46 -3 114 -50 136 -93 27 -53 26 -57 -17 -77 -43 -20 -36 -4 -130
-308 -69 -225 -83 -275 -75 -274 4 0 93 97 197 216 195 221 196 222 180 291
l-7 32 91 0 c80 0 91 -2 91 -17 0 -12 3 -14 8 -6 4 7 13 9 19 5 9 -6 10 -22 3
-62 -5 -30 -17 -109 -27 -175 -16 -106 -18 -115 -25 -80 -4 26 -5 15 -2 -30 3
-49 1 -65 -6 -55 -7 11 -9 -2 -9 -45 l1 -60 32 128 c18 70 36 130 39 134 10 9
12 -1 68 -277 28 -140 52 -256 53 -257 2 -2 15 57 30 130 15 72 38 188 52 257
14 69 29 134 33 145 5 13 17 -20 41 -113 18 -73 34 -131 36 -130 1 2 -6 102
-16 223 -11 121 -20 235 -20 253 l0 33 88 -3 c95 -3 91 0 78 -71 -6 -30 4 -43
190 -250 108 -120 198 -216 201 -213 3 2 -6 40 -20 83 -14 43 -51 164 -83 268
-58 193 -73 225 -104 225 -32 0 -43 25 -27 62 19 43 51 72 110 98 56 25 77 21
77 -14 0 -19 8 -27 33 -35 292 -99 447 -148 447 -141 0 4 -21 27 -47 51 -27
23 -95 86 -153 139 -178 164 -176 163 -210 155 l-30 -7 7 91 c4 59 2 91 -4 91
-9 0 -23 -110 -23 -182 0 -29 1 -29 43 -23 41 6 43 5 127 -71 142 -129 201
-186 196 -191 -2 -2 -89 45 -192 105 -237 138 -251 159 -204 297 25 73 25 90
0 115 -36 36 -140 22 -140 -18 0 -10 11 -34 25 -54 29 -43 31 -80 9 -134 -14
-33 -61 -100 -101 -141 -22 -24 -36 -85 -29 -136 6 -59 16 -71 71 -90 l39 -14
51 -154 c65 -198 88 -279 83 -284 -2 -2 -22 28 -44 68 -22 40 -67 117 -99 172
-32 55 -69 120 -83 145 -14 25 -28 47 -31 50 -16 13 -31 65 -31 108 0 38 9 63
47 127 105 179 114 205 92 248 -16 29 -28 37 -61 37 -37 0 -46 -21 -54 -130
-7 -92 -8 -93 -49 -136 -45 -47 -78 -56 -95 -25 -15 28 -13 31 18 31 15 0 42
9 60 20 45 28 43 64 -7 126 l-39 48 38 51 c53 71 70 109 77 165 5 40 3 51 -11
56 -26 10 -19 50 15 83 25 25 39 31 75 31 40 0 44 2 44 24 0 93 -151 94 -174
0 -9 -34 -20 -30 -40 15 -30 70 -120 77 -152 12 l-12 -23 -7 23 c-6 18 -2 28
22 49 33 28 33 31 12 168 -7 39 -15 72 -20 72 -4 0 -11 -17 -15 -37 -17 -98
-24 -48 -25 207 -1 151 -5 327 -9 390 -4 79 -8 -24 -10 -325 -3 -446 -15 -471
-21 -45 -2 143 -4 181 -8 125 l-6 -80 -13 72 c-8 39 -21 97 -31 130 l-18 58
-17 -70 c-10 -38 -23 -99 -30 -135 l-13 -65 -6 130 c-13 245 -24 400 -26 375z
m134 -501 c23 -163 34 -457 18 -478 -14 -18 -18 -105 -4 -97 13 8 23 -60 15
-97 -11 -54 -45 -65 -43 -14 1 17 3 24 6 14 7 -28 23 -9 23 29 0 21 -4 33 -10
29 -14 -9 -13 117 1 148 7 16 8 55 1 128 l-9 104 -3 -105 c-2 -79 -5 -50 -11
115 -4 121 -9 263 -12 315 -6 113 4 80 28 -91z m-165 -592 c0 -23 -28 -33 -51
-19 -26 16 -29 15 -29 -11 0 -28 26 -67 46 -67 8 0 24 10 36 22 l21 21 -6 -24
c-4 -13 -7 -38 -7 -55 0 -27 -4 -32 -30 -38 -24 -4 -32 -12 -36 -36 -4 -16 -9
-30 -13 -30 -13 0 -61 84 -67 116 -3 19 -12 38 -20 45 -22 18 -16 45 16 73 25
21 39 25 85 23 45 -2 55 -5 55 -20z m393 -1 c30 -28 35 -57 12 -76 -8 -7 -15
-21 -15 -32 0 -37 -59 -128 -82 -128 -5 0 -8 8 -6 18 4 22 -18 52 -38 52 -18
0 -34 32 -34 71 0 30 1 31 18 16 10 -10 26 -17 35 -17 20 0 47 38 47 67 0 24
-14 31 -25 13 -3 -5 -17 -10 -31 -10 -17 0 -24 6 -24 19 0 23 5 25 68 29 40 2
53 -2 75 -22z m-566 -182 c15 -30 42 -68 60 -85 18 -16 33 -34 33 -40 0 -6 5
-7 10 -4 6 4 10 -6 9 -22 0 -15 -3 -22 -6 -15 -2 6 -11 12 -18 12 -18 0 -80
71 -105 119 -18 35 -27 91 -16 91 3 0 17 -25 33 -56z m390 24 c-3 -7 -5 -2 -5
12 0 14 2 19 5 13 2 -7 2 -19 0 -25z m248 0 c-11 -52 -32 -85 -87 -141 -42
-42 -52 -49 -56 -34 -2 11 14 37 43 68 25 27 55 70 66 94 23 53 44 60 34 13z
m-428 0 c-3 -8 -6 -5 -6 6 -1 11 2 17 5 13 3 -3 4 -12 1 -19z m47 13 c7 -11
-3 -41 -14 -41 -11 0 -21 30 -14 41 3 5 9 9 14 9 5 0 11 -4 14 -9z m109 -21
c-3 -11 -9 -20 -13 -20 -14 0 -21 33 -8 41 18 11 27 2 21 -21z m-174 -81 c6
-18 11 -41 11 -51 0 -18 -1 -18 -25 -1 -17 13 -24 28 -25 51 0 42 24 43 39 1z
m108 -16 c-3 -10 -5 -2 -5 17 0 19 2 27 5 18 2 -10 2 -26 0 -35z m143 20 c0
-17 -11 -38 -27 -53 l-26 -25 7 44 c8 52 13 61 32 61 9 0 14 -10 14 -27z m37
-115 c-3 -7 -5 -2 -5 12 0 14 2 19 5 13 2 -7 2 -19 0 -25z m-330 0 c-3 -8 -6
-5 -6 6 -1 11 2 17 5 13 3 -3 4 -12 1 -19z m300 -10 c-3 -8 -6 -5 -6 6 -1 11
2 17 5 13 3 -3 4 -12 1 -19z m-237 -2 c0 -8 -4 -17 -9 -21 -12 -7 -24 12 -16
25 9 15 25 12 25 -4z m197 -9 c-6 -20 -27 -19 -27 2 0 14 5 19 15 14 9 -3 14
-10 12 -16z m-304 -44 c19 -6 21 -29 7 -88 -8 -36 -46 -82 -57 -71 -9 8 28
106 38 100 11 -7 11 7 0 25 -7 11 -13 3 -22 -29 -10 -34 -14 -39 -20 -24 -10
25 -11 89 -2 98 4 3 14 4 22 0 9 -3 24 -9 34 -11z m451 -10 c8 -19 -12 -83
-24 -83 -5 0 -12 16 -16 35 -3 19 -10 35 -15 35 -17 0 -9 29 9 32 24 6 39 -1
46 -19z m-189 8 c3 -5 1 -12 -5 -16 -5 -3 -10 1 -10 9 0 18 6 21 15 7z m-125
-11 c0 -5 -4 -10 -10 -10 -5 0 -10 5 -10 10 0 6 5 10 10 10 6 0 10 -4 10 -10z
m237 -27 c-3 -10 -5 -4 -5 12 0 17 2 24 5 18 2 -7 2 -21 0 -30z m-318 -23 l-1
-25 -8 25 c-4 14 -8 32 -9 40 -1 13 0 13 9 0 5 -8 9 -26 9 -40z m278 8 c-3 -7
-5 -2 -5 12 0 14 2 19 5 13 2 -7 2 -19 0 -25z m59 -95 c-8 -8 -26 44 -26 70 1
14 7 6 16 -21 9 -24 13 -46 10 -49z m-69 45 c-3 -7 -5 -2 -5 12 0 14 2 19 5
13 2 -7 2 -19 0 -25z m-260 -20 c-3 -7 -5 -2 -5 12 0 14 2 19 5 13 2 -7 2 -19
0 -25z m228 -7 c-4 -17 -12 -31 -20 -31 -20 0 -38 28 -31 47 6 15 8 15 17 3 9
-13 12 -13 22 2 16 23 20 15 12 -21z m-165 14 c21 0 19 -25 -3 -39 -14 -8 -20
-8 -27 4 -14 22 -13 53 3 43 6 -4 19 -8 27 -8z m187 -37 c-3 -7 -5 -2 -5 12 0
14 2 19 5 13 2 -7 2 -19 0 -25z m-240 -10 c-3 -8 -6 -5 -6 6 -1 11 2 17 5 13
3 -3 4 -12 1 -19z m120 -240 c-3 -8 -6 -5 -6 6 -1 11 2 17 5 13 3 -3 4 -12 1
-19z m143 -180 c11 -76 20 -143 19 -150 -2 -27 -39 129 -39 167 0 22 -7 51
-15 65 -15 27 -20 72 -8 84 12 12 21 -22 43 -166z m-223 120 c-3 -7 -5 -2 -5
12 0 14 2 19 5 13 2 -7 2 -19 0 -25z m177 -74 c4 -12 0 -55 -9 -95 -9 -41 -27
-134 -42 -207 -14 -73 -28 -130 -31 -128 -3 3 1 104 8 223 9 152 9 229 2 255
-5 20 -8 39 -5 41 7 8 69 -65 77 -89z m-17 74 c-3 -8 -6 -5 -6 6 -1 11 2 17 5
13 3 -3 4 -12 1 -19z m90 -310 c-3 -8 -6 -5 -6 6 -1 11 2 17 5 13 3 -3 4 -12
1 -19z"/>
<path d="M1311 2684 c0 -11 3 -14 6 -6 3 7 2 16 -1 19 -3 4 -6 -2 -5 -13z"/>
<path d="M1123 2600 c0 -30 2 -43 4 -27 2 15 2 39 0 55 -2 15 -4 2 -4 -28z"/>
<path d="M1073 825 c0 -22 2 -30 4 -17 2 12 2 30 0 40 -3 9 -5 -1 -4 -23z"/>
<path d="M1063 720 c0 -25 2 -35 4 -22 2 12 2 32 0 45 -2 12 -4 2 -4 -23z"/>
</g>
</svg>
