<?xml version="1.0" standalone="no"?>
<!DOCTYPE svg PUBLIC "-//W3C//DTD SVG 20010904//EN"
 "http://www.w3.org/TR/2001/REC-SVG-20010904/DTD/svg10.dtd">
<svg version="1.0" xmlns="http://www.w3.org/2000/svg"
 width="244.000000pt" height="305.000000pt" viewBox="0 0 244.000000 305.000000"
 preserveAspectRatio="xMidYMid meet">
<metadata>
Created by potrace 1.16, written by Peter Selinger 2001-2019
</metadata>
<g transform="translate(0.000000,305.000000) scale(0.100000,-0.100000)"
fill="#000000" stroke="none">
<path d="M1528 2405 c2 -278 0 -505 -3 -505 -4 0 -22 12 -42 27 l-36 28 6 225
c6 192 16 327 42 525 4 28 2 34 -4 20 -5 -11 -12 -47 -15 -80 -4 -33 -11 -89
-16 -125 -4 -36 -12 -135 -16 -220 l-8 -155 -8 210 c-4 116 -14 273 -22 350
l-13 140 -3 -395 c-2 -217 -5 -383 -7 -367 -5 31 -22 27 -25 -6 -1 -12 -5 46
-8 128 l-6 150 -2 -185 c-1 -102 -6 -210 -10 -240 -7 -54 -7 -54 -13 40 -17
277 -67 645 -86 626 -3 -3 -16 -59 -29 -125 -21 -111 -38 -262 -53 -486 -6
-81 -7 -85 -13 -45 -4 25 -12 196 -18 380 -10 276 -33 609 -39 550 -1 -8 -1
-191 -1 -406 0 -411 -5 -537 -24 -531 -7 2 -12 64 -14 185 -1 110 -6 182 -12
182 -6 0 -10 28 -10 63 -1 118 -62 548 -77 533 -3 -2 -4 -228 -3 -500 0 -273
-3 -496 -7 -496 -4 0 -23 14 -40 31 -30 28 -33 35 -33 93 0 171 30 543 56 711
4 22 4 38 1 35 -7 -7 -35 -174 -46 -285 -6 -49 -13 -196 -17 -325 l-6 -235 50
-37 50 -36 24 25 c46 50 78 51 91 3 4 -16 0 -18 -27 -13 -37 6 -61 -16 -81
-74 l-13 -38 -17 43 c-19 47 -39 62 -83 62 -31 0 -56 -22 -65 -57 -6 -27 8
-38 44 -35 19 2 34 -6 57 -33 35 -39 41 -69 16 -79 -14 -5 -16 -16 -10 -63 4
-31 13 -70 21 -87 22 -50 39 -173 24 -182 -10 -6 -18 25 -22 91 -3 37 -4 32
-4 -20 -1 -38 -2 -77 -3 -85 -3 -25 -18 32 -19 75 -1 47 -15 65 -49 65 -56 0
-68 -77 -26 -171 42 -93 13 -90 -36 3 -28 52 -35 117 -16 148 34 57 37 72 20
91 -23 25 -85 25 -107 1 -21 -23 -22 -76 -2 -132 19 -53 19 -91 1 -135 -12
-27 -43 -53 -148 -122 -73 -48 -149 -96 -168 -107 -34 -18 -34 -18 -20 0 14
18 184 196 223 234 16 15 24 16 48 8 17 -6 32 -8 35 -5 10 10 -8 217 -19 210
-6 -4 -7 -39 -3 -95 l6 -88 -27 6 c-25 7 -41 -6 -195 -167 -91 -95 -165 -175
-164 -177 4 -3 128 42 303 109 56 21 106 39 112 39 6 0 11 14 11 30 0 17 5 30
12 30 24 0 98 -42 98 -56 0 -7 -16 -43 -35 -78 -39 -73 -45 -98 -17 -73 24 22
46 22 39 0 -54 -184 -147 -525 -147 -543 0 -6 37 35 82 92 46 57 85 105 88
108 7 6 125 158 158 203 27 38 28 31 7 -103 -8 -52 -14 -106 -14 -120 1 -14
14 55 29 152 16 97 31 182 35 188 3 5 18 10 32 10 18 0 24 -4 19 -15 -3 -8
-26 -95 -52 -193 -25 -97 -49 -188 -54 -202 -8 -25 -8 -25 -10 5 -2 18 -8 0
-16 -45 -25 -144 -19 -136 90 140 19 47 46 111 60 143 22 48 25 67 20 108 -6
44 -5 49 13 49 22 0 73 -42 73 -60 0 -6 -11 -26 -25 -44 -14 -18 -25 -40 -25
-48 0 -16 108 -616 114 -633 2 -5 6 10 10 35 13 78 56 320 82 456 13 72 24
139 24 148 0 9 -12 28 -26 41 -19 18 -25 31 -20 47 6 24 64 70 77 62 5 -3 6
-24 3 -47 -5 -37 3 -65 59 -202 36 -88 77 -185 91 -215 23 -49 25 -51 21 -20
-76 522 -73 490 -46 490 24 0 27 -22 11 -66 -13 -33 -16 -28 167 -261 167
-213 186 -234 180 -208 -23 95 -147 537 -156 554 -7 11 -20 21 -30 21 -23 0
-46 25 -32 34 6 4 29 -7 52 -24 23 -16 43 -29 45 -27 2 1 -11 30 -28 65 -35
71 -33 78 38 112 48 24 64 20 64 -14 0 -20 14 -29 113 -66 61 -23 157 -60 211
-81 55 -21 102 -37 104 -34 3 3 -31 42 -74 87 -44 46 -120 125 -169 176 -80
83 -93 93 -117 88 l-28 -6 -1 93 c-1 85 -2 88 -10 42 -4 -27 -14 -78 -20 -113
-10 -58 -10 -64 7 -77 11 -8 80 -57 154 -110 74 -53 144 -102 154 -110 34 -26
11 -26 -45 -1 -30 13 -100 43 -157 67 l-104 43 7 34 c5 27 2 37 -14 48 -40 28
-45 75 -20 184 21 93 21 100 5 125 -13 20 -25 25 -55 25 -23 0 -48 -8 -61 -18
l-23 -19 27 -45 c41 -70 31 -140 -31 -226 -43 -59 -50 -37 -12 38 33 66 42
138 19 165 -8 10 -25 15 -44 13 -29 -3 -32 -6 -42 -60 -14 -70 -21 -88 -32
-88 -14 0 -3 188 14 239 18 58 18 100 -2 122 -14 16 -15 23 -4 49 17 41 46 60
92 60 34 0 38 3 38 25 0 33 -42 75 -75 75 -31 0 -72 -38 -81 -74 -8 -35 -18
-33 -33 9 -16 44 -52 69 -86 61 -30 -8 -32 3 -7 34 18 22 19 22 51 6 17 -10
35 -24 38 -32 8 -20 17 -18 67 19 l45 32 0 121 c1 209 -18 471 -50 664 -16
101 -33 188 -37 192 -4 4 -6 -220 -4 -497z m-298 -366 c0 -368 -2 -428 -14
-417 -8 8 -16 23 -19 34 -4 15 -5 14 -6 -6 -1 -15 -4 -21 -11 -14 -11 11 -1
56 11 48 5 -3 9 39 9 95 0 61 -4 101 -10 101 -14 0 -13 270 2 405 9 81 14 102
19 80 5 -21 7 -10 8 38 0 37 3 67 6 67 3 0 5 -194 5 -431z m-130 -189 c0 -5
-4 -10 -10 -10 -5 0 -10 5 -10 10 0 6 5 10 10 10 6 0 10 -4 10 -10z m285 0
c-3 -5 -10 -10 -16 -10 -5 0 -9 5 -9 10 0 6 7 10 16 10 8 0 12 -4 9 -10z
m-208 -77 c-3 -10 -5 -4 -5 12 0 17 2 24 5 18 2 -7 2 -21 0 -30z m-129 -46 c5
-18 7 -68 4 -111 l-5 -79 -18 24 c-10 13 -19 38 -19 56 0 17 -7 38 -15 47 -20
19 -19 55 2 78 24 27 41 22 51 -15z m78 17 c-3 -9 -6 -18 -6 -20 0 -3 -4 -3
-10 1 -11 7 -2 35 12 35 6 0 7 -7 4 -16z m234 -5 c0 -5 -4 -9 -10 -9 -5 0 -10
7 -10 16 0 8 5 12 10 9 6 -3 10 -10 10 -16z m112 4 c21 -19 24 -56 5 -72 -8
-6 -14 -25 -15 -43 -1 -29 -30 -98 -42 -98 -7 0 -3 206 5 219 9 16 26 14 47
-6z m-317 -97 c5 -22 14 -36 26 -39 11 -3 26 -22 35 -43 l16 -39 19 37 c11 21
28 42 38 48 11 5 22 23 26 40 8 37 22 38 36 3 16 -43 -2 -73 -46 -73 -19 0
-35 -1 -35 -2 -2 -19 -39 -108 -39 -96 -1 10 -8 36 -17 58 -14 36 -20 40 -50
40 -43 0 -61 29 -44 71 16 38 28 37 35 -5z m-188 -105 c-14 -5 -27 20 -26 54
0 30 1 30 18 -10 11 -23 14 -42 8 -44z m120 42 c-3 -10 -5 -4 -5 12 0 17 2 24
5 18 2 -7 2 -21 0 -30z m300 5 c-3 -7 -5 -2 -5 12 0 14 2 19 5 13 2 -7 2 -19
0 -25z m139 -24 c-4 -13 -13 -24 -21 -24 -19 0 -19 -1 2 46 12 29 18 34 21 21
2 -10 1 -29 -2 -43z m-411 -65 c9 -17 14 -36 12 -42 -4 -12 -37 44 -37 63 0
18 9 11 25 -21z m251 -13 c-8 -20 -18 -36 -22 -36 -9 0 5 52 18 68 18 21 20 6
4 -32z m-312 -36 c45 -48 56 -70 36 -70 -15 0 -50 38 -50 54 0 8 -11 17 -25
20 -16 4 -25 13 -25 26 0 31 13 24 64 -30z m416 19 c0 -12 -7 -19 -20 -19 -13
0 -22 -9 -26 -25 -8 -31 -54 -61 -54 -35 0 14 84 108 93 103 4 -2 7 -13 7 -24z
m71 -121 l-9 -33 -1 41 c-1 23 2 57 7 75 l7 34 3 -42 c2 -22 -1 -56 -7 -75z
m-361 26 c0 -8 -4 -12 -10 -9 -5 3 -10 13 -10 21 0 8 5 12 10 9 6 -3 10 -13
10 -21z m121 -7 c-8 -8 -11 -7 -11 4 0 9 3 19 7 23 4 4 9 2 11 -4 3 -7 -1 -17
-7 -23z m-232 -85 c-2 -54 14 -92 37 -92 13 0 15 10 12 53 -3 51 -3 52 27 55
25 2 27 1 13 -8 -27 -17 -23 -59 7 -70 17 -6 25 -17 25 -33 0 -21 -4 -22 -47
-21 -27 1 -52 2 -56 3 -24 4 -50 135 -30 154 11 12 13 8 12 -41z m345 -46 c-9
-54 -31 -73 -85 -70 -36 1 -45 5 -47 23 -2 15 4 24 21 30 42 16 43 63 2 74
-13 3 -8 5 13 6 l34 1 -3 -45 c-2 -25 2 -50 8 -56 18 -18 43 30 44 86 1 46 1
48 10 20 5 -16 6 -47 3 -69z m-497 8 c10 -28 -13 -37 -25 -9 -10 21 -9 25 4
25 8 0 17 -7 21 -16z m643 -34 c0 -5 -4 -10 -10 -10 -5 0 -10 5 -10 10 0 6 5
10 10 10 6 0 10 -4 10 -10z m-110 -14 c0 -3 -4 -8 -10 -11 -5 -3 -10 -1 -10 4
0 6 5 11 10 11 6 0 10 -2 10 -4z m-586 -22 c9 -22 -3 -32 -14 -14 -12 19 -12
30 -1 30 5 0 12 -7 15 -16z m746 -41 c0 -22 -17 -49 -25 -41 -8 8 5 58 16 58
5 0 9 -8 9 -17z m-832 -98 c-15 -23 -24 -30 -26 -20 -4 19 40 83 46 66 2 -6
-7 -27 -20 -46z m132 -1 c0 -25 -34 -104 -116 -267 -64 -128 -123 -241 -131
-252 -13 -19 -14 -18 -7 10 4 17 18 63 31 104 12 41 23 79 23 86 0 6 9 41 20
76 10 35 24 82 29 105 10 36 16 42 51 54 48 16 46 14 54 64 11 71 46 86 46 20z
m676 -15 c0 -56 18 -98 175 -411 33 -65 56 -118 52 -118 -5 0 -27 26 -49 58
-23 31 -76 102 -119 157 -100 131 -107 145 -94 185 6 17 9 44 6 60 -9 41 4
131 17 127 6 -2 11 -28 12 -58z m124 -11 c0 -5 -11 -1 -25 8 -14 9 -25 23 -25
32 0 12 6 10 25 -8 14 -13 25 -27 25 -32z m-890 -8 c0 -15 -7 -20 -27 -20 -25
0 -26 0 -8 20 10 11 22 20 27 20 4 0 8 -9 8 -20z m426 -49 c13 11 14 9 3 -14
-11 -25 -29 -37 -29 -19 0 4 -3 18 -6 32 -5 22 -4 23 6 7 9 -15 14 -16 26 -6z
m-274 -51 c-6 -58 -16 -56 -27 3 -7 35 -6 39 11 35 15 -3 18 -11 16 -38z m505
-166 c29 -109 51 -203 50 -208 -2 -5 -29 58 -62 140 -42 108 -59 166 -63 213
-4 51 -2 63 9 59 9 -3 34 -81 66 -204z m-248 -116 l-2 -273 -22 215 -23 215
22 58 c11 31 22 57 23 57 2 0 2 -123 2 -272z m-43 204 c-14 -27 -14 -44 -1
-169 8 -76 14 -149 14 -163 -1 -28 -58 242 -59 278 0 21 49 96 58 87 2 -2 -4
-17 -12 -33z"/>
<path d="M1204 2185 c0 -71 1 -99 3 -62 2 37 2 96 0 130 -2 34 -3 4 -3 -68z"/>
<path d="M1382 2875 c0 -16 2 -22 5 -12 2 9 2 23 0 30 -3 6 -5 -1 -5 -18z"/>
<path d="M1373 2775 c0 -27 2 -38 4 -22 2 15 2 37 0 50 -2 12 -4 0 -4 -28z"/>
<path d="M1502 2780 c0 -14 2 -19 5 -12 2 6 2 18 0 25 -3 6 -5 1 -5 -13z"/>
<path d="M1062 2760 c0 -14 2 -19 5 -12 2 6 2 18 0 25 -3 6 -5 1 -5 -13z"/>
<path d="M1363 2650 c0 -25 2 -35 4 -22 2 12 2 32 0 45 -2 12 -4 2 -4 -23z"/>
<path d="M1053 2635 c0 -22 2 -30 4 -17 2 12 2 30 0 40 -3 9 -5 -1 -4 -23z"/>
<path d="M1043 2480 c0 -36 2 -50 4 -32 2 17 2 47 0 65 -2 17 -4 3 -4 -33z"/>
<path d="M1353 2480 c0 -36 2 -50 4 -32 2 17 2 47 0 65 -2 17 -4 3 -4 -33z"/>
</g>
</svg>
