<?xml version="1.0" standalone="no"?>
<!DOCTYPE svg PUBLIC "-//W3C//DTD SVG 20010904//EN"
 "http://www.w3.org/TR/2001/REC-SVG-20010904/DTD/svg10.dtd">
<svg version="1.0" xmlns="http://www.w3.org/2000/svg"
 width="244.000000pt" height="305.000000pt" viewBox="0 0 244.000000 305.000000"
 preserveAspectRatio="xMidYMid meet">
<metadata>
Created by potrace 1.16, written by Peter Selinger 2001-2019
</metadata>
<g transform="translate(0.000000,305.000000) scale(0.100000,-0.100000)"
fill="#000000" stroke="none">
<path d="M1372 2895 c0 -16 2 -22 5 -12 2 9 2 23 0 30 -3 6 -5 -1 -5 -18z"/>
<path d="M908 2905 c-3 -6 -9 -28 -12 -50 -4 -29 -3 -33 3 -15 8 25 20 -765
13 -882 l-4 -57 -39 26 -39 26 0 131 c1 188 16 410 40 565 11 73 20 140 20
149 0 36 -9 -1 -29 -118 -26 -158 -39 -303 -47 -556 l-7 -200 31 -13 c17 -7
38 -21 48 -32 23 -25 30 -24 69 10 18 16 38 30 45 33 16 5 14 284 -5 503 -18
211 -72 505 -87 480z"/>
<path d="M1550 2888 c0 -9 -3 -25 -6 -35 -5 -15 -4 -15 5 -3 8 11 11 -120 11
-467 0 -292 -4 -483 -9 -483 -5 0 -26 10 -46 23 l-36 22 5 235 c5 223 25 433
56 578 7 28 10 58 7 65 -7 20 -46 -208 -61 -358 -16 -159 -30 -514 -20 -539 3
-9 11 -16 18 -16 6 0 27 -13 46 -28 l34 -29 49 36 49 36 -6 250 c-5 247 -21
401 -62 615 -17 85 -33 133 -34 98z"/>
<path d="M1090 2849 c0 -19 -5 -90 -10 -159 -6 -69 -15 -276 -20 -460 l-9
-335 30 -27 c17 -17 29 -38 29 -53 0 -35 -14 -31 -25 7 -8 27 -17 34 -48 41
-47 11 -82 -10 -108 -63 l-16 -34 -22 42 c-16 32 -29 44 -61 53 -33 10 -43 9
-65 -5 -31 -21 -51 -64 -35 -80 6 -6 25 -9 44 -8 58 5 124 -69 90 -102 -18
-19 -18 -94 0 -137 8 -19 31 -56 50 -84 20 -27 36 -55 36 -62 0 -7 -12 -25
-26 -40 -34 -36 -46 -70 -39 -105 4 -16 2 -28 -4 -28 -17 0 -25 23 -28 85 -1
33 -6 80 -10 105 -8 43 -10 45 -45 48 -30 3 -40 -1 -54 -23 -28 -43 -9 -113
63 -220 20 -30 33 -62 33 -80 l-1 -30 -14 33 c-8 18 -35 60 -61 94 -78 100
-91 162 -49 228 14 22 25 46 25 54 0 22 -33 36 -84 36 -35 0 -48 -5 -56 -19
-14 -28 -13 -71 5 -121 19 -54 19 -113 0 -149 -14 -28 -78 -72 -275 -189 -156
-93 -154 -89 59 112 l105 98 43 -7 44 -6 -6 78 c-8 102 -15 146 -22 139 -7 -7
-5 -144 3 -169 5 -16 1 -17 -29 -12 -35 7 -39 4 -222 -170 -102 -98 -184 -179
-182 -181 2 -2 109 32 237 76 129 44 235 80 237 80 2 0 3 11 3 24 0 33 10 37
55 23 71 -21 139 -106 122 -151 -3 -8 -19 -17 -36 -21 -16 -3 -32 -14 -35 -23
-3 -9 -41 -138 -86 -286 -45 -147 -79 -270 -77 -272 4 -5 149 158 290 325 87
104 96 119 91 146 -14 67 -13 70 39 75 29 4 47 2 47 -5 0 -5 -16 -127 -34
-270 -18 -143 -33 -261 -31 -262 1 -2 37 93 80 210 62 166 78 222 77 260 -1
26 2 47 7 47 4 0 20 -12 34 -26 29 -29 27 -42 -16 -82 l-24 -23 66 -327 65
-327 13 60 c27 130 113 579 113 591 0 7 -13 29 -30 47 l-30 35 33 31 32 32 2
-53 c3 -50 19 -121 33 -143 4 -5 33 -83 65 -172 32 -89 61 -161 63 -159 2 2 0
32 -4 67 -4 38 -10 56 -13 46 -4 -12 -15 18 -30 80 -13 54 -34 143 -47 198
-13 55 -26 110 -29 122 -4 19 -1 23 19 23 21 0 26 -6 31 -37 10 -60 15 -62 13
-8 l-2 50 45 -3 c24 -2 45 -5 47 -7 1 -1 -3 -23 -10 -48 -13 -52 -18 -44 147
-233 44 -50 111 -128 149 -173 38 -44 71 -79 73 -78 2 2 -1 17 -6 33 -5 16
-35 115 -65 219 -95 323 -89 308 -124 324 -35 16 -43 34 -29 71 13 38 37 61
92 86 63 30 75 30 75 0 0 -14 5 -28 10 -31 19 -12 445 -154 449 -150 2 3 -16
24 -41 47 -24 24 -103 101 -176 171 -119 115 -136 128 -164 125 l-31 -3 1 95
1 95 -18 -101 c-10 -56 -21 -106 -25 -112 -9 -15 5 -27 193 -152 95 -63 169
-116 163 -118 -5 -1 -72 22 -148 51 -77 30 -149 58 -162 62 -21 6 -23 11 -17
45 5 32 3 39 -13 44 -45 15 -55 113 -21 214 19 58 20 64 5 86 -19 30 -48 40
-92 32 -50 -10 -57 -32 -27 -84 37 -62 29 -124 -23 -197 -21 -30 -50 -71 -64
-91 -46 -68 -33 -9 16 70 37 60 48 89 52 130 4 49 2 56 -21 71 -14 9 -36 15
-49 13 -18 -2 -24 -12 -33 -59 -6 -30 -15 -60 -18 -66 -4 -6 -3 -22 2 -35 10
-26 -4 -72 -19 -63 -5 3 -10 20 -10 37 0 18 -11 45 -25 64 -32 42 -32 73 3
126 57 86 81 191 47 204 -25 10 -17 44 20 81 29 29 40 34 72 31 32 -2 38 0 41
18 4 28 -32 70 -65 77 -39 7 -79 -19 -101 -67 l-19 -40 -12 37 c-14 42 -40 63
-91 72 l-35 6 1 137 c1 98 -1 120 -6 77 -3 -33 -7 -48 -8 -33 -1 15 -9 33 -17
42 -13 12 -15 71 -16 393 l-2 378 -13 -150 c-8 -82 -16 -305 -19 -494 -3 -190
-7 -346 -9 -348 -5 -6 -16 145 -16 226 0 107 -26 315 -52 418 l-22 88 -17 -55
c-30 -99 -49 -242 -59 -446 -5 -109 -10 -207 -10 -216 0 -10 -5 -18 -11 -18
-6 0 -8 17 -4 48 4 28 3 42 -3 34 -22 -31 -33 151 -32 533 1 213 -1 390 -4
393 -3 3 -6 -10 -6 -29z m120 -564 c-5 -88 -10 -221 -11 -295 -2 -120 -3 -127
-9 -65 -13 119 -10 295 5 410 8 61 15 112 15 114 0 2 2 2 5 0 2 -3 0 -77 -5
-164z m177 -455 c-7 -25 -14 -35 -19 -27 -16 26 -3 58 28 67 1 0 -4 -18 -9
-40z m-197 -40 c0 -25 -5 -52 -10 -60 -6 -10 -9 10 -8 59 0 45 4 68 9 60 5 -8
9 -34 9 -59z m-127 -37 c14 -8 7 -22 -8 -17 -21 8 -20 -49 1 -67 11 -9 15 -28
13 -68 -1 -31 3 -69 9 -84 19 -46 14 -53 -18 -22 -35 33 -80 119 -80 151 0 12
-7 24 -15 28 -22 8 -18 40 10 70 20 21 30 25 52 20 16 -4 31 -9 36 -11z m431
-14 c29 -35 33 -57 11 -65 -8 -4 -15 -15 -15 -25 0 -31 -26 -85 -61 -129 -45
-56 -55 -53 -32 8 3 9 5 40 4 69 -2 35 2 60 13 75 21 30 22 69 1 62 -21 -8
-19 13 3 25 29 17 49 12 76 -20z m-344 -79 c0 -34 4 -42 25 -50 30 -12 31 -16
4 -30 -33 -18 -49 4 -49 66 0 30 5 54 10 54 6 0 10 -18 10 -40z m50 5 c0 -25
-4 -35 -16 -35 -11 0 -14 5 -9 18 4 9 10 25 12 35 8 27 13 20 13 -18z m140
-25 c0 -52 -16 -72 -51 -63 -26 7 -24 22 6 33 21 8 25 16 25 50 0 25 4 39 10
35 6 -3 10 -28 10 -55z m-394 -75 c19 -38 24 -59 17 -66 -14 -14 -44 34 -50
82 -3 22 -3 39 -1 39 3 0 18 -25 34 -55z m611 19 c-3 -20 -14 -48 -24 -63 -15
-22 -18 -23 -21 -8 -4 21 29 107 42 107 5 0 6 -16 3 -36z m-317 -45 c0 8 3 12
6 9 3 -3 2 -23 -2 -44 -7 -36 -8 -37 -15 -14 -4 14 -7 34 -8 45 -1 16 1 17 9
5 8 -12 10 -12 10 -1z m94 -100 c-32 -64 -54 -81 -28 -21 9 20 24 55 33 77 12
29 17 35 20 20 2 -10 -10 -45 -25 -76z m-185 14 c17 -36 30 -71 28 -77 -4 -11
-67 113 -67 132 0 23 8 11 39 -55z m-123 -30 c-11 -11 -17 4 -9 23 7 18 8 18
11 1 2 -10 1 -21 -2 -24z m434 17 c0 -11 -4 -20 -10 -20 -5 0 -10 9 -10 20 0
11 5 20 10 20 6 0 10 -9 10 -20z m-346 -57 c3 -7 1 -15 -5 -19 -14 -8 -39 15
-39 37 0 17 3 17 20 7 11 -7 22 -18 24 -25z m282 2 c-6 -18 -36 -20 -36 -4 0
16 34 40 38 28 2 -5 1 -16 -2 -24z m48 -138 c-27 -85 -34 -76 -11 14 13 50 23
75 25 61 2 -12 -4 -46 -14 -75z m-401 12 c22 -92 15 -101 -12 -14 -23 74 -25
85 -13 85 5 0 16 -32 25 -71z m127 46 c0 -9 -9 -15 -22 -15 -22 1 -23 1 -4 15
25 19 26 19 26 0z m170 -10 c0 -3 -9 -5 -20 -5 -11 0 -20 7 -20 15 0 13 4 14
20 5 11 -6 20 -13 20 -15z m-236 -93 c6 -11 12 -10 26 3 10 9 27 15 37 13 24
-4 29 -37 6 -44 -10 -3 -27 -10 -37 -16 -15 -8 -22 -6 -33 8 -21 29 -34 91
-26 121 7 25 8 23 13 -22 3 -27 9 -56 14 -63z m293 46 c-4 -28 -15 -63 -25
-80 -16 -26 -20 -27 -32 -14 -7 9 -23 16 -36 16 -25 0 -28 7 -18 34 8 20 43
21 50 1 9 -23 22 -18 39 16 11 20 14 41 10 61 -5 23 -4 29 5 23 9 -5 11 -23 7
-57z m183 -47 c0 -23 -30 -37 -42 -19 -5 8 -1 18 9 26 23 17 33 15 33 -7z
m-627 -31 c6 -23 -3 -32 -22 -20 -15 8 -8 40 8 40 5 0 11 -9 14 -20z m677 -76
c0 -27 -15 -32 -24 -9 -7 19 3 47 15 39 5 -3 9 -16 9 -30z m-769 -57 c-18 -18
-25 1 -11 30 l14 28 4 -24 c2 -13 -1 -28 -7 -34z m749 -31 c0 -15 98 -213 190
-385 34 -62 57 -112 51 -110 -6 2 -72 78 -146 169 -130 159 -135 166 -129 200
4 19 6 56 5 83 -1 26 1 52 4 57 8 13 25 3 25 -14z m-737 -8 c-4 -13 -51 -104
-106 -203 -54 -99 -115 -208 -134 -243 -19 -35 -37 -62 -39 -60 -2 3 27 102
64 222 l67 218 40 14 c22 7 51 27 64 44 28 36 52 40 44 8z m377 -57 c0 -9 -20
-37 -20 -29 0 3 -2 13 -5 21 -4 8 0 14 10 14 8 0 15 -3 15 -6z m-160 -56 c0
-27 -21 -104 -56 -204 -31 -89 -58 -160 -59 -159 -3 3 81 380 90 406 9 27 25
0 25 -43z m105 -58 c-13 -32 -13 -55 1 -217 8 -99 14 -188 12 -197 -2 -9 -21
72 -42 181 l-39 197 38 39 c21 22 40 38 42 36 2 -1 -4 -19 -12 -39z"/>
<path d="M1382 2790 c0 -14 2 -19 5 -12 2 6 2 18 0 25 -3 6 -5 1 -5 -13z"/>
<path d="M1112 2710 c0 -19 2 -27 5 -17 2 9 2 25 0 35 -3 9 -5 1 -5 -18z"/>
<path d="M1393 2635 c0 -22 2 -30 4 -17 2 12 2 30 0 40 -3 9 -5 -1 -4 -23z"/>
<path d="M1123 2570 c0 -25 2 -35 4 -22 2 12 2 32 0 45 -2 12 -4 2 -4 -23z"/>
<path d="M1403 2470 c0 -30 2 -43 4 -27 2 15 2 39 0 55 -2 15 -4 2 -4 -28z"/>
<path d="M1134 2250 c0 -69 1 -97 3 -62 2 34 2 90 0 125 -2 34 -3 6 -3 -63z"/>
<path d="M1472 815 c0 -16 6 -68 13 -115 l14 -85 -6 75 c-6 89 -21 173 -21
125z"/>
<path d="M1502 570 c0 -19 2 -27 5 -17 2 9 2 25 0 35 -3 9 -5 1 -5 -18z"/>
</g>
</svg>
