<?xml version="1.0" standalone="no"?>
<!DOCTYPE svg PUBLIC "-//W3C//DTD SVG 20010904//EN"
 "http://www.w3.org/TR/2001/REC-SVG-20010904/DTD/svg10.dtd">
<svg version="1.0" xmlns="http://www.w3.org/2000/svg"
 width="244.000000pt" height="305.000000pt" viewBox="0 0 244.000000 305.000000"
 preserveAspectRatio="xMidYMid meet">
<metadata>
Created by potrace 1.16, written by Peter Selinger 2001-2019
</metadata>
<g transform="translate(0.000000,305.000000) scale(0.100000,-0.100000)"
fill="#000000" stroke="none">
<path d="M1050 2908 c0 -7 -7 -71 -15 -143 -18 -157 -34 -464 -35 -673 0 -145
-8 -192 -31 -192 -6 0 -9 172 -9 496 1 273 -1 498 -4 502 -3 3 -6 1 -6 -4 0
-5 -9 -62 -20 -127 -31 -188 -48 -384 -55 -624 l-6 -222 29 -15 c42 -21 64
-59 53 -88 -6 -13 -10 -18 -10 -12 -2 25 -43 54 -76 54 -40 0 -65 -28 -65 -73
0 -26 2 -28 29 -22 22 5 35 0 59 -20 40 -34 49 -61 27 -85 -13 -15 -16 -31
-12 -66 3 -32 1 -47 -9 -51 -7 -2 -16 -26 -20 -51 -6 -37 -9 -43 -15 -27 -6
16 -8 17 -8 3 -1 -10 -10 -22 -20 -28 -25 -13 -35 -59 -23 -103 11 -40 -1 -73
-18 -47 -22 35 -23 101 -1 154 26 63 26 73 2 86 -30 16 -76 12 -94 -8 -21 -23
-21 -54 -1 -123 23 -76 14 -166 -18 -190 -21 -16 -22 -21 -11 -49 11 -29 10
-31 -20 -44 -18 -8 -86 -37 -151 -65 -65 -28 -120 -50 -122 -48 -4 4 227 182
287 222 28 18 30 23 23 60 -4 22 -12 76 -19 120 l-13 80 0 -90 c0 -49 0 -93
-1 -97 -1 -4 -11 -4 -23 1 -25 9 -17 17 -143 -125 -105 -117 -179 -198 -190
-206 -5 -4 -7 -9 -4 -12 6 -6 144 46 296 110 45 18 86 34 92 34 5 0 11 12 13
27 2 14 9 28 16 31 18 6 14 -23 -9 -60 -82 -131 -105 -184 -61 -145 10 10 21
17 24 17 4 0 39 20 79 45 77 47 99 54 99 31 0 -8 3 -21 6 -30 4 -11 -4 -20
-28 -32 l-34 -16 -69 -271 c-37 -150 -70 -279 -73 -287 -6 -21 31 25 153 190
59 79 105 134 105 123 0 -10 -11 -83 -25 -161 -28 -159 -29 -170 -16 -156 5 5
54 104 109 220 95 202 100 213 92 255 -5 24 -5 48 0 53 15 15 69 -5 95 -36 31
-37 31 -39 0 -68 -14 -13 -25 -34 -25 -47 0 -12 23 -158 50 -324 28 -166 50
-306 50 -312 0 -36 13 23 44 208 20 116 43 246 51 290 22 119 20 154 -11 186
-20 21 -24 31 -16 46 17 31 46 52 82 59 l33 7 -6 -50 c-5 -46 -1 -60 42 -149
26 -55 72 -150 101 -212 30 -63 56 -109 58 -103 2 5 -6 65 -17 133 -12 68 -24
139 -27 158 -5 29 15 7 121 -135 69 -93 131 -174 137 -180 18 -17 -2 67 -123
528 -5 20 -15 37 -22 37 -7 0 -22 7 -34 15 -19 13 -20 19 -10 45 6 16 16 30
21 30 5 0 45 -23 89 -51 43 -27 81 -48 84 -45 2 2 -16 40 -41 85 -51 89 -53
96 -30 105 22 9 34 -1 34 -28 0 -21 20 -32 202 -104 111 -45 204 -79 206 -77
5 4 -138 165 -251 283 -60 63 -74 72 -96 67 l-26 -6 2 93 c1 63 -1 83 -6 63
-5 -16 -9 -65 -10 -108 l-1 -78 34 6 c32 7 38 3 103 -67 107 -113 183 -197
183 -203 0 -16 -332 222 -347 247 -17 31 -16 105 2 164 19 63 19 99 -1 118
-22 22 -87 21 -108 -2 -15 -18 -15 -22 9 -66 29 -55 31 -90 9 -146 -16 -40
-42 -50 -36 -14 11 58 13 97 8 117 -7 27 -62 62 -70 44 -2 -7 -5 2 -5 19 -1
16 -7 39 -15 49 -10 14 -12 35 -9 71 4 33 1 54 -6 58 -18 11 -13 55 11 86 18
24 29 30 60 30 24 0 41 5 44 14 9 23 -23 73 -51 80 -41 10 -94 -27 -95 -67 0
-23 -20 -12 -20 12 0 26 -22 50 -50 54 -14 2 -25 10 -25 18 0 22 33 22 52 0
18 -22 43 -28 43 -11 0 5 16 20 35 32 l35 23 0 166 c0 250 -27 550 -67 742
-13 61 -19 74 -25 58 -10 -27 -48 -248 -49 -287 -1 -29 -1 -29 -8 -4 -7 25
-21 -343 -21 -567 0 -74 -4 -124 -10 -128 -8 -5 -10 148 -8 493 2 275 2 499 0
498 -14 -14 -52 -502 -52 -676 -1 -108 -26 -281 -29 -193 0 23 -4 50 -8 60 -6
16 -8 15 -14 -7 -5 -17 -7 -3 -8 40 -3 139 -41 431 -61 469 -15 29 -56 -220
-67 -404 -4 -77 -9 -128 -11 -112 -6 49 -22 28 -23 -30 l-1 -58 -10 40 c-5 22
-13 112 -17 200 l-8 160 -2 -145 c-2 -154 -21 -314 -40 -333 -8 -8 -10 120 -9
501 2 282 2 512 1 512 -2 0 -3 -6 -3 -12z m491 -172 c24 -173 39 -357 45 -557
l7 -217 -34 -30 c-19 -17 -37 -32 -41 -32 -5 0 -8 215 -7 478 0 472 5 530 30
358z m-275 -738 c6 -322 5 -358 -10 -373 -15 -15 -16 16 -14 422 1 514 14 489
24 -49z m21 -70 c-1 -46 -3 -11 -3 77 0 88 2 125 3 83 2 -42 2 -114 0 -160z
m-249 -51 c4 -18 -14 -22 -37 -8 -7 5 -10 14 -6 20 10 17 39 9 43 -12z m52 -7
c0 -5 -4 -10 -10 -10 -5 0 -10 5 -10 10 0 6 5 10 10 10 6 0 10 -4 10 -10z
m310 0 c0 -5 -7 -10 -16 -10 -8 0 -12 5 -9 10 3 6 10 10 16 10 5 0 9 -4 9 -10z
m-266 -109 c3 -4 -1 -17 -9 -27 -11 -15 -16 -16 -26 -7 -10 10 -9 15 1 28 14
17 26 19 34 6z m236 -6 c10 -12 10 -19 1 -28 -9 -9 -14 -9 -21 3 -22 34 -4 54
20 25z m-342 -58 c3 -39 -7 -47 -28 -22 -15 18 -5 68 13 62 7 -2 13 -20 15
-40z m448 18 c7 -27 -10 -55 -32 -55 -16 0 -18 19 -4 54 12 33 28 33 36 1z
m-189 -62 c-3 -10 -5 -2 -5 17 0 19 2 27 5 18 2 -10 2 -26 0 -35z m-128 -17
c5 -13 17 -26 26 -29 8 -4 24 -26 34 -49 l18 -43 12 38 c7 21 24 45 37 54 13
8 24 21 24 28 0 16 35 29 50 20 5 -3 10 -22 10 -41 l0 -36 -38 7 c-45 7 -55
-1 -82 -72 l-18 -48 -12 45 c-17 66 -35 81 -81 74 -31 -5 -39 -3 -39 9 0 8 -3
22 -6 31 -4 11 2 19 17 25 35 14 39 13 48 -13z m-137 -136 c20 -30 39 -66 43
-80 7 -25 7 -25 -25 5 -50 47 -101 160 -84 187 5 7 12 -2 19 -23 7 -19 28 -59
47 -89z m55 57 c6 -29 10 -54 7 -56 -5 -6 -22 41 -30 85 -10 57 9 32 23 -29z
m439 22 c-7 -43 -58 -130 -95 -163 -32 -29 -26 -2 14 58 19 29 44 73 55 99 12
26 24 47 27 47 3 0 3 -18 -1 -41z m-101 -6 c-3 -21 -15 -51 -26 -68 -23 -36
-24 -27 -4 22 8 19 15 46 15 59 0 13 5 24 11 24 8 0 9 -13 4 -37z m-242 -99
c2 -13 1 -24 -2 -24 -9 0 -41 55 -41 71 0 21 37 -20 43 -47z m146 2 c-11 -20
-23 -36 -26 -36 -10 0 9 55 25 73 25 28 26 4 1 -37z m-365 -93 c-4 -38 -8 -70
-10 -72 -8 -9 -15 73 -10 104 12 63 27 39 20 -32z m576 -4 c0 -37 -4 -58 -10
-54 -5 3 -10 31 -10 61 0 30 5 54 10 54 6 0 10 -27 10 -61z m-343 -15 c-3 -4
-14 -3 -24 0 -15 6 -15 8 -3 16 16 10 39 -4 27 -16z m128 16 c3 -6 -1 -13 -10
-16 -19 -8 -30 0 -20 15 8 14 22 14 30 1z m-271 -99 c-6 -56 -5 -60 20 -76 15
-10 30 -15 33 -11 4 3 5 31 4 61 -2 58 0 60 49 45 22 -6 23 -8 8 -15 -28 -11
-23 -54 7 -65 28 -11 35 -54 10 -64 -8 -3 -15 -1 -15 4 0 5 -26 10 -57 12
l-57 3 -12 48 c-13 50 -8 117 7 117 5 0 6 -27 3 -59z m394 -17 c-6 -87 -12
-94 -80 -94 -25 0 -48 -5 -50 -10 -2 -7 -10 -6 -22 3 -24 18 -13 55 17 59 29
4 36 47 11 65 -17 12 -17 13 3 13 12 0 29 3 38 6 14 6 16 0 15 -37 -4 -88 2
-97 41 -56 18 19 20 30 15 75 -4 36 -3 52 5 52 8 0 10 -23 7 -76z m212 -22 c0
-11 -9 -27 -20 -37 -22 -20 -26 -9 -8 30 13 29 28 33 28 7z m-793 -44 c-3 -8
-6 -5 -6 6 -1 11 2 17 5 13 3 -3 4 -12 1 -19z m616 -28 c-3 -12 -8 -19 -11
-16 -5 6 5 36 12 36 2 0 2 -9 -1 -20z m-557 -67 c10 -22 15 -68 14 -126 0 -98
-8 -147 -31 -188 -23 -41 -194 -278 -197 -274 -2 2 18 52 46 112 27 59 60 131
72 158 13 28 33 73 46 102 42 92 44 101 35 166 -5 34 -13 71 -17 81 -14 36 17
6 32 -31z m678 -120 c4 -12 23 -28 46 -37 44 -17 33 10 110 -281 23 -88 45
-164 48 -170 3 -5 -2 -4 -11 4 -9 7 -17 17 -17 21 0 5 -48 106 -107 227 -58
120 -109 238 -113 262 -5 32 -3 59 9 90 l16 46 6 -70 c3 -38 9 -80 13 -92z
m149 110 c51 -81 50 -89 -3 -37 -30 29 -50 57 -46 63 12 19 25 12 49 -26z
m-933 -2 c0 -5 -15 -18 -32 -30 -18 -11 -50 -32 -72 -47 -48 -32 -44 -21 17
50 42 47 52 54 68 46 10 -6 19 -15 19 -19z m450 -142 c-7 -22 -16 -39 -19 -39
-11 0 -41 57 -41 77 1 11 6 6 15 -15 17 -39 30 -35 41 11 4 17 9 26 12 18 2
-7 -1 -31 -8 -52z m-220 -66 c0 -51 -9 -78 -77 -225 -42 -92 -78 -166 -80
-164 -2 1 3 22 11 47 43 131 65 207 70 234 3 16 10 41 15 55 6 14 15 44 21 68
17 65 40 56 40 -15z m467 5 c-5 -42 -3 -58 15 -86 18 -30 72 -279 62 -290 -1
-2 -17 43 -34 100 -46 152 -92 301 -97 316 -4 8 5 12 27 12 l33 0 -6 -52z
m-232 -273 c-28 -290 -32 -289 -33 5 l-1 275 26 -50 26 -50 -18 -180z m38 82
c-18 -97 -24 -106 -17 -27 3 36 6 85 7 109 1 42 2 43 12 17 9 -21 8 -45 -2
-99z"/>
<path d="M971 2804 c0 -11 3 -14 6 -6 3 7 2 16 -1 19 -3 4 -6 -2 -5 -13z"/>
<path d="M1422 2800 c0 -14 2 -19 5 -12 2 6 2 18 0 25 -3 6 -5 1 -5 -13z"/>
<path d="M987 2710 c3 -41 10 -86 14 -100 11 -32 1 92 -11 140 -6 24 -7 12 -3
-40z"/>
<path d="M1072 2735 c0 -16 2 -22 5 -12 2 9 2 23 0 30 -3 6 -5 -1 -5 -18z"/>
<path d="M1432 2690 c0 -19 2 -27 5 -17 2 9 2 25 0 35 -3 9 -5 1 -5 -18z"/>
<path d="M1082 2630 c0 -19 2 -27 5 -17 2 9 2 25 0 35 -3 9 -5 1 -5 -18z"/>
<path d="M1093 2505 c0 -33 2 -45 4 -27 2 18 2 45 0 60 -2 15 -4 0 -4 -33z"/>
</g>
</svg>
