<?xml version="1.0" standalone="no"?>
<!DOCTYPE svg PUBLIC "-//W3C//DTD SVG 20010904//EN"
 "http://www.w3.org/TR/2001/REC-SVG-20010904/DTD/svg10.dtd">
<svg version="1.0" xmlns="http://www.w3.org/2000/svg"
 width="244.000000pt" height="305.000000pt" viewBox="0 0 244.000000 305.000000"
 preserveAspectRatio="xMidYMid meet">
<metadata>
Created by potrace 1.16, written by Peter Selinger 2001-2019
</metadata>
<g transform="translate(0.000000,305.000000) scale(0.100000,-0.100000)"
fill="#000000" stroke="none">
<path d="M871 2812 c-46 -200 -81 -549 -81 -814 0 -69 2 -77 21 -83 11 -4 35
-20 53 -36 l33 -29 38 30 c21 17 44 30 51 30 11 0 14 30 14 153 0 244 -26 518
-65 692 -18 82 -18 49 0 -64 28 -170 45 -354 52 -546 l6 -190 -42 -27 c-24
-16 -46 -28 -49 -28 -10 0 -8 928 1 967 5 17 4 34 -1 37 -5 3 -19 -38 -31 -92z"/>
<path d="M1569 2905 c-1 -5 -3 -14 -4 -20 -1 -5 -5 -17 -8 -25 -10 -24 -45
-225 -62 -355 -9 -66 -19 -223 -22 -350 l-5 -230 38 -23 c22 -12 47 -28 56
-34 14 -10 22 -8 45 14 15 14 39 29 52 33 l24 7 -7 217 c-4 119 -13 274 -22
344 -15 137 -49 326 -60 336 -3 3 -4 -7 0 -24 43 -210 66 -445 66 -676 l0
-166 -40 -27 c-22 -14 -42 -26 -45 -26 -3 0 -5 214 -5 476 0 314 3 473 10 469
11 -7 11 9 0 45 -4 14 -9 21 -11 15z"/>
<path d="M912 2840 c0 -14 2 -19 5 -12 2 6 2 18 0 25 -3 6 -5 1 -5 -13z"/>
<path d="M1230 2585 c0 -15 -2 -17 -9 -7 -5 9 -10 -5 -14 -40 -3 -29 -12 -91
-21 -138 -18 -96 -36 -331 -36 -464 0 -117 -14 -103 -36 36 -26 160 -39 169
-60 40 -19 -115 -19 -120 20 -143 41 -24 53 -63 36 -114 -11 -35 -41 -48 -55
-25 -12 19 -25 10 -25 -18 0 -31 27 -62 53 -62 9 0 24 11 33 25 19 29 36 33
33 8 -4 -45 2 -65 21 -70 29 -8 64 -78 51 -101 -9 -15 -10 -15 -11 3 0 26 -59
66 -100 67 -30 1 -70 -25 -57 -38 3 -3 20 -9 38 -13 44 -9 68 -45 80 -124 14
-88 10 -110 -21 -117 -20 -5 -25 -12 -25 -35 0 -24 5 -30 33 -37 24 -7 32 -13
28 -24 -3 -9 -6 -20 -6 -25 0 -4 -14 -12 -32 -17 -72 -18 -59 -66 20 -71 7 -1
12 -14 12 -31 0 -16 4 -30 8 -30 5 0 13 -17 18 -37 13 -53 37 -54 54 -2 13 40
15 41 22 18 5 -17 6 -9 5 25 -1 27 3 51 8 52 6 1 23 5 38 8 24 6 28 11 25 33
-2 21 -10 29 -34 35 -18 4 -35 15 -38 24 -8 21 11 44 35 44 38 0 34 66 -4 72
-20 3 -22 9 -21 69 1 89 27 157 62 165 51 11 62 15 62 23 0 12 -46 34 -74 34
-28 0 -85 -41 -85 -61 -1 -7 -5 -10 -11 -7 -6 4 -11 -6 -11 -22 -1 -21 -3 -23
-6 -7 -6 30 38 107 70 122 26 13 28 17 22 53 -8 45 -1 48 31 14 13 -14 30 -25
38 -25 20 0 46 39 46 67 0 26 -3 27 -29 11 -28 -17 -49 -3 -57 37 -8 46 9 86
46 107 33 19 34 23 20 123 -12 83 -18 105 -30 105 -9 0 -20 -50 -40 -178 -7
-39 -16 -70 -20 -67 -5 3 -9 56 -9 119 -2 222 -40 510 -79 606 -9 21 -11 22
-12 5z m29 -165 c17 -10 41 -282 47 -527 l7 -253 -27 -10 c-15 -5 -29 -16 -32
-25 -15 -39 -24 7 -23 118 1 99 3 113 9 74 12 -70 20 -70 20 0 0 40 -4 63 -12
65 -15 5 -24 507 -11 598 l8 55 3 -45 c2 -24 7 -47 11 -50z"/>
<path d="M1252 1920 c0 -14 2 -19 5 -12 2 6 2 18 0 25 -3 6 -5 1 -5 -13z"/>
<path d="M755 1860 c-32 -12 -57 -46 -53 -72 3 -21 7 -23 46 -20 37 3 46 0 77
-31 38 -38 43 -58 20 -77 -36 -30 -9 -135 59 -223 20 -26 36 -50 36 -53 0 -4
-16 -24 -35 -45 -59 -66 -45 -125 35 -143 44 -11 55 5 41 57 -9 32 -10 50 -2
65 10 19 11 19 81 -1 67 -20 71 -20 88 -3 16 16 16 18 -2 32 -11 8 -27 14 -36
14 -29 0 -126 69 -157 112 -41 57 -63 103 -63 128 0 34 15 22 40 -31 28 -58
115 -143 175 -170 22 -10 41 -16 43 -14 11 11 -10 54 -29 60 -11 4 -43 30 -71
58 -50 51 -78 99 -78 135 0 11 -7 25 -15 32 -22 19 -18 48 11 77 22 22 32 25
69 21 28 -4 45 -1 48 6 8 22 -9 60 -35 79 -25 18 -31 19 -69 8 -34 -10 -44
-20 -58 -52 -9 -21 -19 -39 -22 -39 -4 0 -12 14 -19 31 -20 47 -82 77 -125 59z"/>
<path d="M1435 1858 c-30 -16 -45 -39 -45 -70 0 -27 1 -27 44 -22 39 6 48 3
70 -19 29 -29 34 -72 11 -81 -9 -3 -15 -18 -15 -34 0 -46 -71 -136 -155 -195
-14 -10 -25 -27 -25 -37 0 -25 1 -25 59 4 58 30 155 132 171 181 6 19 16 35
21 35 18 0 9 -52 -17 -95 -49 -85 -124 -144 -226 -178 -22 -8 -23 -21 -3 -37
13 -11 29 -9 88 8 54 16 73 18 80 9 8 -12 4 -62 -9 -104 -14 -49 89 -33 116
17 15 28 4 57 -37 103 -20 22 -31 43 -26 50 4 7 22 33 40 58 61 85 83 180 48
209 -23 19 -18 39 19 76 29 29 41 34 80 34 42 0 46 2 46 24 0 28 -51 76 -81
76 -38 0 -76 -29 -97 -72 l-20 -43 -18 44 c-12 32 -26 47 -50 57 -39 17 -43
17 -69 2z"/>
<path d="M570 1515 l-23 -25 17 -57 c34 -116 37 -133 26 -174 -8 -27 -19 -44
-36 -51 -25 -12 -26 -18 -13 -68 3 -10 -38 -29 -155 -71 -88 -32 -171 -60
-185 -64 -31 -7 57 53 212 146 59 35 119 73 133 84 l26 21 -16 54 c-8 30 -18
81 -22 113 -10 85 -19 59 -16 -44 l4 -89 -31 6 c-34 7 -30 10 -201 -145 -160
-144 -216 -201 -200 -200 8 0 118 35 245 77 209 70 230 79 235 102 8 34 25 34
90 2 91 -45 134 -136 70 -148 -16 -4 -34 -11 -39 -18 -8 -10 -57 -159 -151
-460 -17 -54 -29 -101 -26 -103 4 -4 368 391 393 427 10 14 10 26 3 45 -23 61
-19 65 79 65 75 0 93 -3 121 -22 56 -38 59 -53 22 -91 l-32 -33 49 -244 c75
-369 84 -411 87 -408 1 2 17 71 34 153 17 83 43 202 56 265 14 63 29 142 35
174 10 59 10 59 -23 93 -36 37 -34 50 16 87 22 17 46 22 118 25 49 1 94 -1 98
-5 5 -5 2 -27 -5 -49 -13 -35 -12 -42 3 -59 76 -90 386 -426 389 -422 2 2 -17
71 -42 152 -26 82 -64 205 -85 274 -38 122 -55 150 -91 150 -44 0 -33 64 19
114 33 32 126 75 138 63 3 -2 7 -15 9 -27 2 -12 7 -25 9 -28 9 -8 468 -153
477 -150 4 2 -33 40 -84 85 -51 46 -137 123 -192 173 -93 84 -102 90 -133 85
l-34 -6 7 90 c5 58 4 91 -2 91 -11 0 -23 -91 -23 -166 l0 -44 43 6 c40 6 45 4
107 -52 117 -104 233 -214 225 -214 -9 0 -150 79 -291 162 -140 83 -155 115
-114 246 25 79 25 83 0 110 -27 28 -98 30 -130 4 l-22 -18 31 -49 c17 -27 31
-60 31 -74 -1 -38 -34 -105 -79 -159 -71 -86 -88 -146 -62 -224 10 -29 19 -37
57 -49 l46 -14 64 -195 c61 -188 82 -261 71 -250 -3 3 -53 88 -112 190 -59
102 -125 214 -146 249 -59 98 -56 120 36 273 64 106 75 132 75 170 0 31 -6 50
-18 61 -19 18 -59 22 -78 9 -12 -8 -24 -77 -28 -158 -2 -41 -9 -60 -34 -92
-37 -47 -69 -58 -108 -37 -16 8 -48 15 -70 15 -41 0 -42 -1 -42 -35 0 -41 -14
-63 -45 -67 -17 -2 -24 -13 -30 -43 -11 -52 -37 -106 -48 -99 -5 3 -8 -39 -7
-93 2 -88 2 -90 5 -26 l4 72 39 -43 c47 -51 48 -63 19 -191 -11 -49 -22 -97
-24 -105 -1 -8 -13 -66 -25 -128 -13 -62 -26 -110 -29 -106 -3 3 -6 137 -6
298 l0 292 -28 33 c-15 18 -29 45 -32 59 -13 61 -20 75 -45 79 -31 5 -40 19
-40 66 0 37 0 37 -40 37 -23 0 -55 -7 -72 -16 -40 -21 -73 -7 -113 47 -24 33
-30 52 -32 97 -1 31 -5 77 -10 102 -7 40 -11 45 -36 48 -16 2 -40 -4 -54 -13
-23 -15 -25 -22 -21 -68 3 -41 16 -70 55 -132 84 -134 95 -162 98 -240 1 -38
6 -87 10 -108 8 -42 3 -50 -155 -227 -47 -53 -97 -110 -112 -128 -37 -45 -45
-40 -15 11 14 23 35 60 47 82 206 366 193 339 187 404 -6 74 -32 132 -90 201
-75 91 -86 151 -41 228 l27 45 -23 19 c-34 28 -101 24 -130 -7z"/>
<path d="M1263 695 c0 -22 2 -30 4 -17 2 12 2 30 0 40 -3 9 -5 -1 -4 -23z"/>
<path d="M1263 545 c0 -22 2 -30 4 -17 2 12 2 30 0 40 -3 9 -5 -1 -4 -23z"/>
</g>
</svg>
