<?xml version="1.0" standalone="no"?>
<!DOCTYPE svg PUBLIC "-//W3C//DTD SVG 20010904//EN"
 "http://www.w3.org/TR/2001/REC-SVG-20010904/DTD/svg10.dtd">
<svg version="1.0" xmlns="http://www.w3.org/2000/svg"
 width="244.000000pt" height="305.000000pt" viewBox="0 0 244.000000 305.000000"
 preserveAspectRatio="xMidYMid meet">
<metadata>
Created by potrace 1.16, written by Peter Selinger 2001-2019
</metadata>
<g transform="translate(0.000000,305.000000) scale(0.100000,-0.100000)"
fill="#000000" stroke="none">
<path d="M1061 2894 c0 -11 3 -14 6 -6 3 7 2 16 -1 19 -3 4 -6 -2 -5 -13z"/>
<path d="M1538 2405 c2 -278 -1 -505 -5 -505 -4 1 -23 14 -42 30 l-34 29 6
223 c4 123 14 283 22 356 9 74 14 139 12 145 -4 13 -36 -214 -39 -273 -1 -32
-2 -31 -7 10 -3 25 -7 -70 -8 -211 -1 -191 -4 -263 -14 -280 -12 -22 -14 -17
-22 61 -4 47 -7 270 -5 497 2 226 2 411 1 410 -10 -10 -35 -349 -43 -580 -6
-161 -14 -312 -17 -337 -6 -43 -7 -42 -19 45 -7 50 -18 144 -24 210 -10 113
-25 205 -52 320 -9 43 -12 46 -19 27 -18 -48 -51 -232 -60 -337 -5 -60 -15
-157 -22 -215 -11 -85 -14 -99 -20 -71 -4 18 -8 68 -8 110 -1 42 -4 66 -6 54
-2 -13 -11 -23 -18 -23 -9 0 -16 -19 -20 -57 -4 -32 -8 -62 -10 -68 -2 -5 -4
195 -6 445 -2 425 -3 448 -14 345 -7 -60 -17 -168 -21 -240 -5 -71 -10 -119
-11 -105 -33 257 -67 456 -82 472 -3 4 -5 -218 -3 -492 2 -275 0 -500 -4 -500
-4 0 -22 11 -41 26 l-33 25 0 132 c0 152 16 409 29 482 6 28 12 82 15 120 4
62 4 65 -5 25 -19 -90 -39 -288 -44 -425 -3 -77 -7 -188 -10 -246 l-4 -106 50
-41 51 -41 30 29 c31 32 56 38 76 18 17 -17 15 -39 -3 -32 -32 13 -63 -6 -81
-46 -10 -22 -20 -40 -23 -40 -3 1 -15 15 -26 33 -29 45 -67 62 -102 45 -31
-15 -56 -58 -47 -81 4 -11 15 -14 38 -10 25 4 39 -1 64 -21 40 -35 49 -62 26
-87 -18 -20 -18 -16 10 -235 8 -62 12 -122 8 -135 -5 -21 -7 -19 -14 16 -4 22
-7 63 -7 90 l-1 50 -44 3 c-37 2 -47 -1 -60 -20 -22 -31 -20 -86 4 -133 23
-45 26 -69 8 -63 -22 8 -68 108 -68 147 0 20 11 53 25 76 31 50 31 59 0 73
-60 27 -125 1 -125 -50 0 -13 9 -52 21 -88 23 -72 19 -114 -11 -153 -20 -25
-300 -211 -337 -223 -10 -4 40 53 112 125 127 129 131 132 170 129 l40 -3 -4
78 c-5 118 -20 152 -19 44 0 -48 -2 -90 -5 -93 -3 -3 -14 -1 -24 5 -17 8 -43
-14 -199 -170 -98 -98 -176 -179 -172 -179 6 0 261 89 376 131 39 15 62 29 62
38 1 39 16 46 59 26 23 -10 41 -22 41 -27 0 -4 -11 -26 -25 -48 -14 -22 -25
-42 -25 -46 0 -3 -9 -19 -21 -36 -29 -40 -18 -45 33 -14 78 46 108 60 115 52
11 -10 -11 -40 -33 -44 -10 -2 -22 -7 -27 -11 -9 -9 -169 -563 -164 -568 3 -2
77 85 166 194 90 109 167 200 173 202 6 2 8 -5 5 -15 -3 -11 -11 -55 -18 -99
-7 -44 -20 -129 -30 -190 -10 -60 -17 -111 -15 -112 1 -2 49 99 105 222 95
208 103 230 99 278 -3 47 -1 52 17 49 24 -4 64 -32 79 -54 7 -12 3 -24 -17
-48 -35 -41 -34 -55 9 -280 60 -317 74 -394 74 -404 0 -32 12 22 45 199 20
110 45 244 56 299 25 131 25 157 -6 186 -14 13 -25 29 -25 35 0 19 54 64 80
67 24 3 25 1 22 -49 -3 -44 3 -65 38 -140 23 -48 59 -126 80 -173 42 -96 83
-175 76 -145 -3 11 -8 47 -12 80 -6 47 -9 54 -13 32 -5 -21 -20 20 -62 170
-31 109 -60 206 -64 216 -7 16 -3 18 26 15 21 -2 35 -9 36 -18 10 -84 58 -350
61 -341 2 6 -4 59 -13 117 -10 57 -15 107 -13 110 3 2 25 -21 49 -53 24 -32
46 -60 49 -63 12 -11 207 -246 228 -274 12 -16 22 -24 22 -16 0 19 -149 539
-161 561 -5 11 -18 19 -28 19 -24 0 -42 22 -32 39 7 11 13 11 33 0 14 -8 44
-24 67 -37 l41 -23 -40 76 c-22 41 -40 78 -40 81 0 10 90 45 100 39 6 -3 10
-16 10 -29 0 -20 13 -28 98 -59 218 -81 352 -126 352 -118 0 4 -79 85 -175
180 -164 163 -176 172 -204 166 l-30 -6 6 90 c4 65 3 91 -6 91 -6 0 -11 -17
-11 -42 0 -24 -7 -72 -16 -108 l-15 -65 38 -32 c21 -18 68 -52 105 -75 116
-74 227 -152 223 -156 -7 -7 -345 130 -345 140 0 5 5 19 11 30 9 17 7 24 -16
42 -36 29 -45 84 -28 161 25 109 26 124 9 150 -20 31 -82 35 -116 7 l-21 -17
25 -45 c31 -54 33 -109 6 -165 -28 -58 -48 -81 -60 -69 -7 7 -3 25 15 55 31
55 34 128 6 153 -27 24 -64 17 -73 -14 -28 -99 -28 -99 -24 -37 1 33 -1 52 -5
45 -13 -19 -11 -166 2 -170 12 -4 1 -38 -12 -38 -5 0 -9 15 -10 33 -1 17 -4
43 -8 56 -7 26 10 161 28 227 15 55 14 113 -4 130 -12 12 -13 20 -4 37 25 49
51 67 96 67 48 0 53 11 28 60 -11 21 -25 31 -51 36 -30 6 -40 2 -65 -22 -16
-16 -32 -39 -35 -51 -8 -32 -21 -29 -29 7 -8 35 -48 70 -81 70 -31 0 -31 17 1
32 19 9 29 8 50 -6 14 -9 25 -21 25 -26 0 -18 19 -10 67 26 27 20 49 37 51 39
7 7 -20 523 -33 630 -17 134 -53 326 -63 337 -4 4 -6 -220 -4 -497z m-344
-324 c-4 -122 -9 -220 -11 -218 -6 7 -4 313 3 382 12 121 16 58 8 -164z m-104
-221 c0 -5 -4 -10 -10 -10 -5 0 -10 5 -10 10 0 6 5 10 10 10 6 0 10 -4 10 -10z
m310 2 c0 -13 -12 -22 -22 -16 -10 6 -1 24 13 24 5 0 9 -4 9 -8z m-280 -123
c-10 -17 -30 -27 -30 -13 0 15 22 44 31 39 5 -4 5 -13 -1 -26z m-90 -4 c5 -14
7 -61 3 -106 -5 -68 -8 -79 -19 -65 -6 9 -15 37 -19 61 -3 25 -10 45 -15 45
-18 0 -17 29 1 59 23 37 36 39 49 6z m343 11 c3 -8 3 -17 0 -20 -7 -7 -33 13
-33 25 0 15 27 10 33 -5z m109 -3 c25 -30 28 -50 9 -67 -10 -9 -18 -29 -19
-46 0 -16 -6 -39 -14 -52 -11 -21 -13 -16 -21 57 -11 106 8 151 45 108z m-292
-80 c0 -26 -3 -34 -11 -26 -9 9 -3 63 7 63 2 0 4 -17 4 -37z m-42 -22 c2 -12
14 -26 28 -31 14 -6 31 -25 40 -45 8 -19 16 -35 19 -35 3 0 11 16 20 36 8 20
24 38 34 41 11 3 24 18 30 35 17 48 60 16 47 -35 -5 -23 -12 -27 -45 -27 -45
0 -54 -9 -72 -68 l-12 -43 -19 48 c-19 51 -42 75 -63 67 -22 -9 -55 15 -55 39
0 46 42 61 48 18z m-194 -65 c9 -24 41 -72 71 -106 71 -82 76 -118 8 -53 -7 6
-13 16 -13 22 0 5 -9 12 -20 16 -11 4 -23 21 -29 42 -6 19 -17 40 -25 47 -17
13 -32 76 -18 76 5 0 17 -20 26 -44z m120 12 c4 -17 2 -28 -4 -28 -5 0 -10 14
-10 32 0 36 4 35 14 -4z m332 -15 c-10 -26 -18 -8 -9 23 5 21 8 24 11 11 2
-10 1 -25 -2 -34z m138 15 c-3 -18 -17 -46 -30 -61 -13 -16 -24 -37 -24 -47 0
-10 -8 -21 -18 -25 -11 -3 -24 -16 -30 -30 -6 -13 -20 -29 -32 -35 -38 -20
-22 17 35 81 30 34 55 65 55 69 0 4 7 24 15 44 19 46 39 48 29 4z m-439 -88
c17 -33 18 -40 7 -40 -11 0 -43 56 -35 64 10 9 11 8 28 -24z m283 0 c-9 -28
-25 -46 -33 -39 -2 2 3 19 10 37 18 41 38 44 23 2z m-223 -20 c7 -24 7 -24 -9
-5 -8 11 -16 27 -16 35 0 20 16 1 25 -30z m152 -2 c-3 -8 -6 -5 -6 6 -1 11 2
17 5 13 3 -3 4 -12 1 -19z m-357 -95 c0 -20 -3 -24 -11 -16 -7 7 -9 19 -6 27
10 24 17 19 17 -11z m557 -10 c-3 -10 -5 -4 -5 12 0 17 2 24 5 18 2 -7 2 -21
0 -30z m-337 2 c0 -8 -4 -15 -10 -15 -5 0 -10 7 -10 15 0 8 5 15 10 15 6 0 10
-7 10 -15z m134 0 c-6 -16 -24 -21 -24 -7 0 11 11 22 21 22 5 0 6 -7 3 -15z
m-263 -101 c-3 -48 17 -84 46 -84 12 0 13 11 8 55 l-7 55 37 0 37 0 -22 -18
c-28 -22 -20 -59 13 -64 16 -2 22 -10 22 -28 0 -14 -6 -25 -12 -24 -7 1 -35 2
-63 3 -44 1 -51 4 -65 31 -22 42 -19 147 4 125 3 -3 4 -26 2 -51z m379 -51
c-13 -45 -30 -57 -78 -52 -15 2 -33 0 -40 -5 -8 -5 -18 -4 -24 2 -17 17 -4 46
22 52 35 8 41 57 8 69 -21 8 -20 8 10 13 18 2 34 2 37 0 3 -3 2 -27 -1 -52 -7
-56 6 -70 37 -39 17 17 20 30 16 65 -6 53 5 68 16 23 5 -21 4 -48 -3 -76z
m-533 5 c-3 -8 -6 -5 -6 6 -1 11 2 17 5 13 3 -3 4 -12 1 -19z m763 -32 c0 -7
-7 -19 -15 -26 -16 -13 -20 -3 -9 24 8 20 24 21 24 2z m-190 -10 c0 -3 -4 -8
-10 -11 -5 -3 -10 -1 -10 4 0 6 5 11 10 11 6 0 10 -2 10 -4z m-604 -73 c-10
-11 -26 18 -25 47 0 24 1 23 16 -7 9 -18 13 -36 9 -40z m880 -61 c14 -23 22
-42 19 -42 -11 0 -65 64 -65 78 0 24 20 8 46 -36z m-997 -24 c-53 -46 -64 -32
-17 21 25 29 36 35 47 27 11 -8 5 -18 -30 -48z m145 10 c-2 -46 -38 -127 -150
-333 -27 -50 -62 -116 -78 -147 -17 -32 -32 -56 -34 -53 -2 2 18 82 46 177 28
95 55 189 59 208 7 28 17 39 52 56 49 24 55 32 66 89 8 48 13 57 28 52 7 -2
11 -23 11 -49z m706 -10 c1 -60 6 -73 120 -298 66 -128 118 -236 116 -238 -3
-2 -58 65 -123 148 -171 219 -163 206 -152 243 5 18 9 61 9 97 0 36 3 75 6 88
12 42 24 22 24 -40z m-349 -67 l19 24 -11 -33 c-16 -46 -27 -48 -44 -8 -20 46
-18 59 2 22 l15 -29 19 24z m-301 -41 c0 -11 -4 -20 -10 -20 -5 0 -10 9 -10
20 0 11 5 20 10 20 6 0 10 -9 10 -20z m94 4 c17 -44 3 -96 -65 -257 -40 -92
-74 -165 -76 -163 -2 2 15 68 37 147 23 79 51 177 62 217 20 72 31 86 42 56z
m496 -3 c0 -11 -4 -23 -10 -26 -6 -4 -10 5 -10 19 0 14 5 26 10 26 6 0 10 -9
10 -19z m-361 -105 c-10 -20 -10 -54 -1 -149 17 -170 14 -180 -13 -47 -30 145
-30 171 -4 204 26 32 34 29 18 -8z m18 -348 c-3 -7 -5 -2 -5 12 0 14 2 19 5
13 2 -7 2 -19 0 -25z"/>
<path d="M1072 2810 c0 -19 2 -27 5 -17 2 9 2 25 0 35 -3 9 -5 1 -5 -18z"/>
<path d="M1512 2780 c0 -14 2 -19 5 -12 2 6 2 18 0 25 -3 6 -5 1 -5 -13z"/>
<path d="M901 2774 c0 -11 3 -14 6 -6 3 7 2 16 -1 19 -3 4 -6 -2 -5 -13z"/>
<path d="M1502 2725 c0 -16 2 -22 5 -12 2 9 2 23 0 30 -3 6 -5 -1 -5 -18z"/>
<path d="M1083 2700 c0 -25 2 -35 4 -22 2 12 2 32 0 45 -2 12 -4 2 -4 -23z"/>
<path d="M1421 2694 c0 -11 3 -14 6 -6 3 7 2 16 -1 19 -3 4 -6 -2 -5 -13z"/>
<path d="M1093 2585 c0 -27 2 -38 4 -22 2 15 2 37 0 50 -2 12 -4 0 -4 -28z"/>
<path d="M1433 2580 c0 -25 2 -35 4 -22 2 12 2 32 0 45 -2 12 -4 2 -4 -23z"/>
<path d="M1104 2405 c0 -60 1 -84 3 -52 2 32 2 81 0 110 -2 29 -3 3 -3 -58z"/>
</g>
</svg>
