<?xml version="1.0" standalone="no"?>
<!DOCTYPE svg PUBLIC "-//W3C//DTD SVG 20010904//EN"
 "http://www.w3.org/TR/2001/REC-SVG-20010904/DTD/svg10.dtd">
<svg version="1.0" xmlns="http://www.w3.org/2000/svg"
 width="244.000000pt" height="305.000000pt" viewBox="0 0 244.000000 305.000000"
 preserveAspectRatio="xMidYMid meet">
<metadata>
Created by potrace 1.16, written by Peter Selinger 2001-2019
</metadata>
<g transform="translate(0.000000,305.000000) scale(0.100000,-0.100000)"
fill="#000000" stroke="none">
<path d="M948 2418 c2 -270 0 -498 -3 -505 -4 -12 -7 -12 -21 1 -8 9 -24 21
-35 26 -17 10 -19 23 -19 163 0 158 22 465 40 576 6 35 9 65 7 68 -18 17 -55
-399 -58 -650 -3 -167 -2 -168 22 -184 28 -20 59 -53 59 -64 0 -19 -22 -19
-46 0 -15 12 -37 21 -49 21 -29 0 -65 -40 -65 -73 0 -24 4 -27 37 -27 26 0 45
-8 65 -27 28 -27 37 -66 17 -78 -6 -4 -9 -31 -8 -63 2 -48 0 -56 -18 -63 -25
-9 -43 -38 -43 -69 0 -12 -4 -19 -9 -16 -17 11 -40 -57 -35 -106 3 -37 1 -48
-10 -48 -31 0 -35 99 -6 153 11 20 20 44 20 52 0 20 -32 35 -74 35 -27 0 -40
-6 -53 -26 -16 -26 -16 -30 4 -108 21 -77 20 -140 0 -173 -10 -16 -338 -236
-343 -230 -3 3 50 64 118 136 l123 132 42 -6 43 -6 -6 63 c-3 35 -10 86 -14
113 -7 44 -8 38 -9 -47 l-1 -98 -27 6 c-25 4 -43 -11 -188 -166 -88 -94 -162
-176 -164 -182 -4 -12 25 -4 89 25 25 11 68 28 95 38 100 35 186 68 196 75 13
8 -16 -51 -44 -88 -11 -15 -18 -31 -14 -34 3 -4 55 21 115 55 60 33 114 61
120 61 9 0 32 -58 32 -82 0 -4 -15 -14 -34 -22 -21 -9 -35 -23 -38 -37 -3 -13
-27 -100 -53 -194 -59 -212 -94 -349 -90 -353 2 -3 86 101 186 231 24 31 45
53 47 47 2 -6 -3 -45 -11 -88 -22 -110 -29 -162 -24 -162 3 0 55 93 117 207
106 196 111 209 108 257 l-3 51 38 -1 c27 -1 47 -10 68 -30 36 -34 37 -53 3
-84 -29 -28 -30 -5 17 -275 46 -271 72 -406 75 -402 2 1 16 81 33 177 17 96
42 242 56 324 l26 149 -27 28 c-20 21 -25 34 -20 53 8 34 48 59 94 60 l37 1
-3 -55 c-2 -47 3 -64 32 -115 19 -33 52 -94 73 -135 76 -146 127 -233 131
-222 2 6 -6 59 -18 117 -32 158 -28 161 60 48 41 -53 85 -112 98 -130 12 -18
27 -33 33 -33 6 0 8 4 4 10 -3 5 -21 69 -40 142 -46 183 -94 358 -106 390 -6
15 -21 29 -35 32 -18 5 -24 13 -24 35 0 64 17 74 72 43 18 -11 64 -35 101 -56
38 -20 80 -44 93 -53 14 -8 27 -14 29 -11 3 3 -13 33 -35 68 -23 34 -39 64
-37 66 2 3 31 -7 63 -20 60 -25 274 -106 282 -106 3 0 -249 280 -296 328 -17
18 -29 22 -51 17 l-29 -6 4 93 3 93 -14 -79 c-8 -43 -18 -92 -24 -108 -13 -38
-14 -37 256 -230 40 -28 71 -53 69 -55 -4 -5 -76 22 -148 55 -35 16 -74 33
-88 37 -55 17 -72 36 -65 72 4 25 2 35 -10 39 -21 9 -45 56 -45 91 0 16 9 61
20 101 11 39 20 79 20 87 0 25 -38 55 -69 55 -34 0 -95 -48 -73 -57 46 -19 58
-171 15 -187 -12 -5 -14 1 -8 34 8 50 -4 155 -15 125 -6 -17 -8 -14 -14 15
-14 66 -16 70 -46 70 -28 0 -29 0 -23 53 4 41 2 56 -11 66 -23 20 -20 36 16
77 28 31 36 35 65 31 32 -6 33 -4 33 27 0 19 -8 40 -18 49 -20 19 -77 23 -87
7 -11 -18 -35 -11 -35 10 0 13 13 28 35 41 l35 21 0 111 c0 136 -16 411 -31
527 -17 133 -50 324 -57 332 -4 4 -6 -218 -4 -492 2 -343 0 -500 -8 -500 -5 0
-10 15 -11 33 0 17 -3 26 -6 20 -7 -18 -42 -16 -50 3 -7 19 14 492 25 549 7
39 7 39 13 -25 4 -43 6 -19 5 70 -1 74 2 158 6 185 l7 50 -13 -50 c-12 -47
-13 -48 -18 -20 -3 17 -6 -17 -8 -75 -5 -236 -17 -221 -19 24 0 137 -3 247 -5
245 -15 -15 -56 -477 -56 -639 -1 -97 -5 -137 -20 -180 -17 -49 -19 -52 -20
-22 0 17 -4 32 -10 32 -5 0 -10 -15 -11 -32 0 -18 -4 -42 -8 -53 -4 -11 -10
55 -14 150 -6 156 -32 355 -56 416 l-9 24 -6 -25 c-27 -108 -48 -258 -53 -387
-3 -84 -10 -153 -15 -153 -4 0 -8 14 -8 30 0 47 -20 35 -21 -12 l-1 -43 -10
45 c-19 88 -27 74 -44 -72 -3 -31 -12 -65 -19 -75 -10 -14 -14 54 -20 370 -4
214 -5 441 -3 505 5 124 -6 115 -17 -16 -4 -42 -10 -82 -14 -89 -3 -7 -14 38
-25 100 -10 62 -21 115 -24 119 -4 4 -6 -214 -4 -484z m239 -390 c-2 -29 -3
-6 -3 52 0 58 1 81 3 53 2 -29 2 -77 0 -105z m-177 -154 c0 -9 -10 -14 -27
-14 -25 0 -26 1 -8 20 19 21 35 18 35 -6z m410 0 c0 -8 -7 -14 -15 -14 -15 0
-21 21 -9 33 10 9 24 -2 24 -19z m-335 5 c10 -15 -1 -23 -20 -15 -9 3 -13 10
-10 16 8 13 22 13 30 -1z m405 -4 c0 -8 -9 -15 -20 -15 -20 0 -26 11 -13 23
12 13 33 7 33 -8z m-374 -140 c-17 -17 -36 -12 -36 10 0 16 31 25 44 14 5 -4
1 -15 -8 -24z m260 25 c25 -10 26 -12 11 -27 -14 -14 -17 -14 -31 0 -15 14
-22 37 -12 37 3 0 17 -5 32 -10z m-366 -72 c0 -10 -5 -18 -10 -18 -15 0 -23
27 -16 47 6 15 8 15 16 3 6 -8 10 -23 10 -32z m473 -5 c-3 -9 -9 -11 -15 -5
-5 5 -6 17 -2 26 5 13 9 14 14 5 5 -7 6 -19 3 -26z m-306 -35 c-3 -7 -5 -2 -5
12 0 14 2 19 5 13 2 -7 2 -19 0 -25z m-26 2 c5 0 9 -8 9 -19 0 -10 9 -21 20
-24 13 -3 27 -22 38 -48 l16 -42 18 43 c10 24 26 44 38 47 12 3 20 14 20 27 0
18 5 22 23 20 12 -1 30 -3 40 -3 15 -1 18 -8 15 -38 -2 -21 -7 -37 -13 -37 -5
1 -25 4 -43 8 -27 5 -37 1 -57 -19 -12 -14 -26 -42 -30 -63 l-7 -37 -20 53
c-22 59 -42 72 -100 64 -38 -4 -38 -4 -38 31 0 36 17 50 48 41 8 -2 18 -4 23
-4z m-191 -41 c0 -6 18 -49 41 -96 22 -46 39 -87 36 -89 -7 -7 -53 58 -76 108
-22 50 -27 88 -11 88 6 0 10 -5 10 -11z m93 -41 c9 -27 14 -48 12 -48 -9 0
-35 60 -35 81 0 29 4 24 23 -33z m377 -13 c-16 -43 -23 -23 -8 25 8 26 14 35
16 23 2 -11 -2 -32 -8 -48z m87 7 c-18 -52 -65 -132 -78 -132 -5 0 4 26 19 58
16 31 35 74 42 95 7 24 16 35 22 29 5 -5 4 -24 -5 -50z m-357 -63 c6 -10 10
-28 10 -40 0 -21 -2 -20 -25 11 -14 19 -25 40 -25 47 0 17 28 5 40 -18z m200
26 c0 -10 -45 -75 -52 -75 -18 0 3 57 26 72 13 9 26 10 26 3z m211 -95 c11
-37 5 -95 -16 -165 -2 -5 -4 25 -4 68 -1 43 -6 87 -12 98 -12 23 -5 54 11 44
5 -3 15 -24 21 -45z m-641 0 c-8 -15 -10 -43 -6 -81 7 -62 -7 -83 -18 -28 -14
72 2 165 25 142 8 -8 7 -18 -1 -33z m252 -55 c4 -5 4 -13 2 -17 -6 -10 -44 9
-44 21 0 12 33 9 42 -4z m139 -6 c-12 -10 -27 -16 -33 -13 -14 9 8 29 34 31
l23 2 -24 -20z m-292 -46 c0 -5 -4 -17 -9 -28 -8 -18 -9 -17 -9 8 -1 15 4 27
9 27 6 0 10 -3 9 -7z m116 -23 c15 0 16 -3 7 -12 -21 -21 -14 -58 14 -68 35
-14 31 -56 -6 -53 -14 2 -50 4 -80 5 -45 3 -55 7 -58 22 -3 15 0 17 14 11 45
-18 49 -13 46 49 -4 58 -3 59 20 53 12 -4 32 -7 43 -7z m242 -38 c-7 -60 4
-82 32 -65 20 13 31 8 31 -13 0 -10 -17 -13 -60 -13 -33 1 -66 -4 -73 -10 -10
-8 -17 -7 -25 1 -20 20 -14 48 13 58 19 7 25 17 25 40 0 17 -6 31 -12 31 -7 1
1 5 17 9 57 15 58 14 52 -38z m276 -18 c-8 -21 -23 -17 -23 6 0 13 5 18 14 14
8 -3 12 -12 9 -20z m-154 -76 c-8 -14 -14 -18 -17 -10 -4 13 17 46 25 38 3 -2
-1 -15 -8 -28z m-521 -14 c-4 -3 -12 5 -18 18 -12 22 -12 22 6 6 10 -10 15
-20 12 -24z m803 -23 c6 -16 16 -32 23 -34 14 -6 79 -97 74 -103 -2 -1 -39 30
-83 70 -73 67 -78 74 -60 84 30 17 35 15 46 -17z m-891 -22 c29 -68 17 -112
-86 -319 -53 -107 -108 -219 -121 -248 -14 -29 -27 -51 -30 -49 -4 5 31 143
85 332 30 103 34 109 105 137 14 6 27 122 18 155 -12 41 12 35 29 -8z m-130 7
c9 -12 5 -19 -27 -39 -82 -51 -133 -79 -133 -71 0 15 115 123 131 123 9 1 22
-5 29 -13z m814 -48 c-7 -35 -10 -74 -7 -87 7 -30 200 -440 215 -458 6 -7 8
-16 5 -19 -3 -4 -46 48 -95 115 -93 125 -93 125 -123 278 -6 35 -18 68 -26 74
-16 14 -9 87 14 132 23 46 30 30 17 -35z m-349 -128 c3 0 12 15 20 33 9 19 14
25 15 14 0 -18 -27 -77 -35 -77 -8 0 -35 59 -35 77 1 11 6 5 15 -14 8 -18 17
-33 20 -33z m280 -1 c4 -5 4 -22 0 -37 l-7 -27 -13 25 c-8 14 -14 31 -15 38 0
15 26 16 35 1z m-501 -15 c18 -46 4 -90 -76 -245 -45 -87 -84 -156 -87 -154
-4 5 87 274 99 290 4 6 11 28 15 50 12 67 35 95 49 59z m560 -84 l7 -55 -20
25 c-21 25 -27 73 -14 106 6 16 7 16 13 -2 4 -10 11 -44 14 -74z m-414 -74 c0
-18 2 -55 5 -82 4 -44 3 -42 -10 16 -17 79 -18 100 -5 100 6 0 10 -15 10 -34z
m414 -17 c17 -25 34 -75 46 -131 35 -164 26 -159 -35 18 -57 165 -59 187 -11
113z"/>
<path d="M1501 2834 c0 -11 3 -14 6 -6 3 7 2 16 -1 19 -3 4 -6 -2 -5 -13z"/>
<path d="M1041 2814 c0 -11 3 -14 6 -6 3 7 2 16 -1 19 -3 4 -6 -2 -5 -13z"/>
<path d="M1452 2800 c0 -14 2 -19 5 -12 2 6 2 18 0 25 -3 6 -5 1 -5 -13z"/>
<path d="M1062 2630 c0 -14 2 -19 5 -12 2 6 2 18 0 25 -3 6 -5 1 -5 -13z"/>
<path d="M1071 2554 c0 -11 3 -14 6 -6 3 7 2 16 -1 19 -3 4 -6 -2 -5 -13z"/>
<path d="M1078 2410 c3 -69 6 -127 8 -129 7 -8 3 164 -5 209 -5 27 -6 -5 -3
-80z"/>
<path d="M1494 2170 c0 -107 2 -151 3 -97 2 53 2 141 0 195 -1 53 -3 9 -3 -98z"/>
</g>
</svg>
