<?xml version="1.0" standalone="no"?>
<!DOCTYPE svg PUBLIC "-//W3C//DTD SVG 20010904//EN"
 "http://www.w3.org/TR/2001/REC-SVG-20010904/DTD/svg10.dtd">
<svg version="1.0" xmlns="http://www.w3.org/2000/svg"
 width="244.000000pt" height="305.000000pt" viewBox="0 0 244.000000 305.000000"
 preserveAspectRatio="xMidYMid meet">
<metadata>
Created by potrace 1.16, written by Peter Selinger 2001-2019
</metadata>
<g transform="translate(0.000000,305.000000) scale(0.100000,-0.100000)"
fill="#000000" stroke="none">
<path d="M1568 2405 c2 -278 0 -505 -3 -505 -3 0 -23 12 -45 26 l-40 27 0 142
c0 183 14 360 45 559 25 163 30 209 14 146 -37 -150 -64 -402 -74 -696 l-7
-181 30 -12 c17 -7 40 -23 53 -37 l22 -23 33 28 c18 16 43 32 55 36 l22 7 -6
252 c-4 175 -12 291 -27 385 -24 161 -59 333 -68 343 -4 4 -6 -220 -4 -497z"/>
<path d="M886 2869 c-8 -42 -6 -60 4 -29 4 14 8 -192 9 -458 1 -266 -2 -482
-6 -480 -5 2 -26 14 -47 28 l-39 24 7 195 c6 183 24 392 45 521 22 130 24 145
18 140 -8 -8 -46 -217 -56 -315 -11 -99 -19 -266 -23 -450 -3 -115 -2 -119 20
-131 12 -6 33 -21 46 -33 28 -27 41 -26 76 2 15 12 35 27 45 33 24 13 25 44
14 294 -10 220 -21 338 -45 465 -42 224 -55 260 -68 194z"/>
<path d="M1184 2599 c1 -107 -5 -243 -11 -304 -17 -155 -22 -226 -23 -337 0
-98 -13 -131 -24 -60 -27 187 -37 221 -55 193 -5 -8 -12 -39 -15 -70 -4 -31
-9 -73 -12 -93 -5 -34 -3 -39 30 -60 39 -25 52 -60 41 -109 -8 -36 -30 -47
-57 -30 -26 16 -32 9 -24 -33 10 -51 62 -60 87 -15 15 30 31 22 29 -13 -3 -51
-1 -58 15 -58 9 0 15 -9 15 -24 0 -24 -1 -24 -27 -11 -30 16 -58 12 -86 -13
-20 -18 -7 -32 29 -32 31 0 46 -23 42 -67 l-3 -38 -77 75 c-67 67 -77 81 -83
122 -4 26 -13 49 -21 52 -20 8 -17 37 7 66 17 20 31 25 72 26 58 1 66 14 36
63 -16 27 -24 31 -63 31 -37 0 -48 -5 -70 -31 -14 -17 -26 -37 -26 -45 0 -25
-14 -15 -35 24 -37 68 -128 74 -161 10 -22 -43 -13 -57 34 -51 33 4 44 1 75
-27 39 -34 49 -73 22 -84 -40 -15 -5 -133 64 -220 17 -21 31 -43 31 -48 0 -6
-16 -28 -35 -51 -47 -55 -48 -99 -2 -127 17 -11 43 -19 57 -18 21 3 25 8 24
33 0 17 -4 41 -8 55 -4 16 -2 32 6 43 13 17 17 17 53 4 22 -9 52 -18 67 -21
25 -6 27 -10 21 -37 -4 -20 -1 -34 7 -39 17 -11 4 -79 -17 -87 -11 -4 -13 -14
-9 -37 4 -22 3 -27 -4 -16 -5 8 -10 29 -10 46 0 43 -19 48 -92 23 l-60 -20
-33 23 c-50 33 -62 63 -69 168 -5 79 -10 98 -27 113 -27 22 -32 22 -66 -7 -42
-36 -37 -87 17 -179 95 -161 100 -170 100 -221 0 -46 -11 -68 -121 -260 -158
-274 -161 -278 -166 -273 -2 3 13 56 33 118 20 63 51 159 68 214 l32 99 47 15
c41 13 48 19 57 50 24 88 9 137 -80 246 -67 83 -75 138 -30 208 30 47 30 47
10 67 -15 15 -33 20 -70 20 -47 0 -51 -2 -66 -34 -16 -32 -15 -37 5 -97 11
-34 21 -75 21 -90 0 -39 -25 -92 -52 -108 -62 -39 -314 -184 -342 -197 -32
-15 67 84 202 203 59 53 64 55 102 49 48 -8 47 -14 35 127 -4 48 -10 75 -17
71 -6 -4 -8 -36 -3 -89 l7 -82 -36 1 c-32 1 -51 -13 -221 -168 -101 -93 -183
-171 -181 -174 7 -6 476 148 477 156 6 54 11 58 61 41 53 -17 107 -63 125
-107 16 -40 7 -57 -35 -65 -26 -5 -31 -15 -76 -159 -147 -468 -142 -440 -70
-363 31 33 120 132 197 219 145 163 148 167 132 234 l-7 32 86 0 c91 0 125
-10 161 -50 15 -16 17 -25 9 -38 -7 -11 -8 -37 -3 -72 4 -30 7 -77 7 -105 l0
-50 -14 60 c-9 33 -13 77 -11 98 5 39 -2 47 -23 23 -9 -12 -7 -37 9 -117 12
-56 21 -119 21 -140 0 -22 4 -39 8 -39 5 0 26 -84 47 -187 l39 -187 17 79 c10
44 28 132 41 195 21 105 24 112 29 75 5 -32 6 -29 4 16 -2 31 8 107 20 170 21
100 22 116 9 134 -50 71 -48 64 -28 86 35 38 69 49 159 49 93 0 92 1 74 -61
l-12 -38 79 -89 c238 -267 317 -353 321 -348 4 4 -16 73 -119 399 -48 153 -51
159 -83 173 -19 7 -36 18 -40 23 -10 18 22 77 59 108 56 45 144 66 130 30 -10
-30 7 -37 369 -156 54 -18 103 -31 109 -29 5 2 -12 23 -39 48 -26 24 -97 89
-158 145 -168 157 -170 158 -206 150 l-30 -7 7 85 c4 58 3 86 -5 91 -7 5 -11
-5 -11 -31 0 -21 -7 -65 -15 -96 -21 -82 -19 -95 16 -115 17 -9 56 -33 87 -53
32 -19 104 -64 160 -99 57 -35 99 -66 93 -68 -6 -2 -88 25 -182 59 l-170 63 6
36 c5 32 3 38 -19 48 -39 17 -46 102 -16 198 19 60 21 78 12 99 -13 28 -48 40
-98 32 -64 -11 -68 -22 -33 -83 26 -47 30 -60 24 -97 -9 -53 -16 -66 -76 -141
-49 -60 -89 -156 -89 -212 0 -26 46 -117 179 -353 45 -79 80 -146 78 -148 -4
-3 -149 158 -250 278 l-47 56 8 120 c9 132 -3 101 128 328 13 22 26 59 30 81
5 35 3 44 -17 63 -25 23 -73 28 -86 9 -7 -13 -24 -100 -24 -130 0 -10 1 -30 2
-44 2 -29 -44 -91 -83 -113 -22 -13 -30 -13 -61 2 -19 9 -51 17 -70 17 -34 0
-36 -2 -39 -37 -3 -37 -4 -37 -15 17 -6 30 -13 75 -16 100 l-4 45 66 22 c84
29 93 21 76 -73 -6 -37 -5 -43 13 -48 23 -8 62 6 85 29 26 25 20 58 -18 106
-41 52 -42 59 -12 96 43 51 77 119 83 167 6 40 4 50 -15 67 -19 18 -20 22 -7
48 21 39 58 61 106 61 36 0 40 3 40 24 0 42 -32 71 -80 71 -36 0 -47 -6 -71
-35 -16 -19 -29 -40 -29 -47 0 -22 -19 -14 -26 11 -9 38 -50 70 -89 70 -43 0
-72 -26 -81 -72 l-7 -33 50 7 c46 6 52 4 77 -22 28 -31 34 -62 12 -70 -7 -3
-16 -22 -20 -43 -8 -53 -58 -122 -119 -165 l-52 -37 -3 32 c-4 39 18 65 64 73
38 8 43 20 15 36 -25 13 -67 13 -92 0 -16 -9 -19 -7 -19 14 0 13 7 26 15 30
10 3 15 19 15 46 0 22 2 40 5 40 2 0 15 -11 29 -25 14 -14 32 -25 39 -25 18 0
47 43 47 70 0 23 -12 25 -41 8 -50 -31 -70 83 -23 127 15 14 31 25 37 25 13 0
3 165 -13 205 -11 27 -13 28 -20 10 -4 -11 -15 -67 -25 -125 -18 -112 -35
-151 -36 -85 0 22 -5 121 -10 220 -5 99 -13 289 -17 422 -4 133 -10 244 -13
247 -3 3 -4 -70 -2 -162 l3 -167 -21 75 c-11 41 -22 76 -24 78 -2 2 -10 -18
-18 -45 l-15 -48 -2 125 c-1 69 -5 133 -9 144 -4 10 -7 -69 -7 -175z m36 -454
c-8 -76 -8 -490 0 -490 1 0 3 -13 5 -29 3 -25 2 -27 -10 -15 -17 17 -21 77
-11 179 7 69 6 73 -8 56 -16 -19 -16 -19 -16 5 0 18 -2 21 -9 9 -6 -9 -8 0 -4
25 3 22 9 114 13 205 l7 165 -1 -187 c-1 -102 2 -184 7 -181 4 2 7 117 7 255
0 159 5 275 13 317 l12 66 3 -140 c2 -77 -2 -185 -8 -240z m-40 -441 c0 -41
-4 -63 -10 -59 -16 10 -11 125 6 125 2 0 4 -30 4 -66z m383 -144 c-22 -68
-100 -155 -168 -187 -58 -26 -75 -29 -75 -9 0 7 24 26 54 40 65 32 146 116
172 180 25 61 39 43 17 -24z m-634 15 c28 -63 112 -149 171 -174 36 -15 50
-27 50 -41 0 -21 -1 -21 -83 19 -47 23 -127 102 -152 150 -19 38 -29 91 -16
91 5 0 19 -20 30 -45z m278 -27 c-3 -7 -5 -2 -5 12 0 14 2 19 5 13 2 -7 2 -19
0 -25z m73 0 c0 -5 -4 -8 -10 -8 -5 0 -10 10 -10 23 0 18 2 19 10 7 5 -8 10
-18 10 -22z m-63 -50 c-3 -7 -5 -2 -5 12 0 14 2 19 5 13 2 -7 2 -19 0 -25z
m20 -20 c-2 -13 -4 -5 -4 17 -1 22 1 32 4 23 2 -10 2 -28 0 -40z m20 20 c-3
-7 -5 -2 -5 12 0 14 2 19 5 13 2 -7 2 -19 0 -25z m-90 -70 c-3 -7 -5 -2 -5 12
0 14 2 19 5 13 2 -7 2 -19 0 -25z m140 -90 c-2 -24 -4 -7 -4 37 0 44 2 63 4
43 2 -21 2 -57 0 -80z m-130 -160 c-3 -8 -6 -5 -6 6 -1 11 2 17 5 13 3 -3 4
-12 1 -19z m160 -20 c-3 -7 -5 -2 -5 12 0 14 2 19 5 13 2 -7 2 -19 0 -25z m-7
-89 c0 -5 -7 -9 -15 -9 -15 0 -20 12 -9 23 8 8 24 -1 24 -14z m30 11 c0 -5 -2
-10 -4 -10 -3 0 -8 5 -11 10 -3 6 -1 10 4 10 6 0 11 -4 11 -10z m-190 -22 c0
-12 -1 -19 -3 -17 -1 2 -9 12 -16 22 -12 14 -11 17 3 17 10 0 16 -8 16 -22z
m117 -75 c-2 -16 -4 -3 -4 27 0 30 2 43 4 28 2 -16 2 -40 0 -55z m-50 -65 c-3
-8 -6 -5 -6 6 -1 11 2 17 5 13 3 -3 4 -12 1 -19z m-10 -336 c0 -158 -1 -282
-3 -276 -3 5 -17 75 -33 155 l-28 144 16 130 c17 131 27 168 41 146 4 -7 7
-141 7 -299z m-60 181 c-2 -16 -4 -5 -4 22 0 28 2 40 4 28 2 -13 2 -35 0 -50z"/>
<path d="M1142 465 c0 -16 2 -22 5 -12 2 9 2 23 0 30 -3 6 -5 -1 -5 -18z"/>
</g>
</svg>
