<?xml version="1.0" standalone="no"?>
<!DOCTYPE svg PUBLIC "-//W3C//DTD SVG 20010904//EN"
 "http://www.w3.org/TR/2001/REC-SVG-20010904/DTD/svg10.dtd">
<svg version="1.0" xmlns="http://www.w3.org/2000/svg"
 width="244.000000pt" height="305.000000pt" viewBox="0 0 244.000000 305.000000"
 preserveAspectRatio="xMidYMid meet">
<metadata>
Created by potrace 1.16, written by Peter Selinger 2001-2019
</metadata>
<g transform="translate(0.000000,305.000000) scale(0.100000,-0.100000)"
fill="#000000" stroke="none">
<path d="M882 2813 c-47 -213 -66 -384 -78 -714 -6 -176 -6 -177 15 -184 12
-4 37 -20 55 -36 l33 -28 33 29 c18 16 42 32 52 36 16 5 18 17 18 112 0 218
-30 560 -59 682 -15 62 -12 8 9 -135 14 -92 23 -223 27 -380 l6 -240 -40 -28
c-21 -15 -42 -27 -45 -27 -4 0 -7 214 -8 475 0 320 3 475 10 475 12 0 13 30 2
48 -6 8 -17 -24 -30 -85z"/>
<path d="M1547 2843 c-46 -194 -72 -423 -83 -724 l-7 -197 22 -7 c12 -4 37
-20 55 -36 l33 -28 22 23 c13 14 36 30 52 36 l29 12 0 102 c0 230 -36 617 -69
746 -16 61 -12 7 10 -131 24 -160 37 -331 40 -533 l2 -149 -38 -29 c-22 -16
-43 -24 -48 -19 -4 4 -7 229 -5 505 2 273 3 496 2 496 0 0 -8 -30 -17 -67z"/>
<path d="M1126 2402 c2 -423 0 -470 -12 -412 -7 36 -13 80 -14 99 0 57 -26 20
-39 -58 -16 -101 -15 -148 6 -155 32 -13 -1 -25 -42 -16 -50 11 -75 -3 -101
-60 l-20 -41 -18 42 c-34 75 -124 87 -158 20 -23 -46 -15 -60 32 -54 35 5 43
2 75 -30 38 -38 43 -58 20 -77 -35 -29 -10 -126 56 -221 l42 -60 -31 -32 c-58
-60 -60 -112 -3 -141 22 -12 28 -21 24 -36 -6 -24 -12 -25 -41 -4 -35 24 -56
74 -59 134 -1 30 -5 75 -10 100 -7 41 -11 45 -40 48 -22 2 -38 -3 -54 -19 -34
-34 -22 -92 39 -192 88 -145 108 -204 92 -267 -3 -14 0 -41 7 -60 19 -53 16
-61 -35 -121 -26 -30 -65 -77 -87 -104 -87 -105 -149 -175 -152 -171 -5 5 62
141 87 176 9 14 47 82 84 151 73 140 78 168 50 265 -10 35 -31 73 -61 107 -85
97 -102 169 -58 235 14 20 25 44 25 54 0 40 -104 54 -140 18 -24 -24 -25 -44
-6 -98 36 -102 32 -190 -10 -212 -22 -12 -24 -18 -19 -50 l6 -37 -163 -58
c-90 -32 -169 -60 -177 -63 -35 -13 6 19 86 68 154 94 258 162 270 177 9 11 8
25 -2 60 -8 25 -17 74 -21 110 -10 96 -26 57 -19 -44 l7 -82 -34 5 c-31 5 -40
-1 -148 -102 -197 -184 -252 -238 -243 -241 4 -2 112 32 238 75 221 74 230 78
233 105 4 33 18 34 77 6 55 -26 105 -83 105 -121 0 -21 -7 -29 -35 -38 -34
-11 -36 -15 -69 -123 -111 -360 -137 -449 -132 -455 2 -1 13 8 24 23 11 14 54
62 95 108 108 119 230 258 254 290 20 26 21 30 7 62 -8 19 -14 39 -14 45 0 11
118 14 170 4 29 -6 31 -9 27 -38 -40 -246 -62 -349 -69 -321 -5 19 -6 8 -3
-30 3 -39 1 -55 -5 -45 -7 10 -9 0 -9 -35 l1 -50 20 65 c11 36 31 103 44 150
35 119 36 121 44 75 15 -86 114 -565 116 -562 1 1 28 130 59 287 32 157 61
288 64 292 4 5 27 -62 51 -147 24 -85 45 -154 46 -152 1 1 -6 83 -16 182 -10
99 -21 215 -25 258 l-7 77 82 0 82 0 -6 -26 c-22 -86 -34 -64 151 -270 35 -40
72 -81 81 -91 95 -109 136 -153 139 -149 5 4 -10 58 -77 281 -84 276 -88 285
-122 292 -78 15 -27 118 81 165 52 22 71 18 71 -16 0 -23 14 -29 240 -104 132
-44 240 -77 240 -73 0 6 -261 252 -345 326 -24 20 -37 25 -62 20 l-31 -6 4 98
c7 129 -11 103 -20 -30 l-7 -98 46 7 c26 3 50 3 54 -2 3 -5 33 -33 66 -63 109
-99 206 -194 202 -198 -6 -5 -324 179 -364 211 -50 41 -60 89 -34 169 25 79
26 105 5 135 -20 29 -91 31 -125 3 l-23 -18 27 -46 c46 -78 36 -132 -42 -232
-65 -83 -72 -98 -72 -158 0 -77 11 -97 62 -117 l44 -17 72 -214 c39 -118 72
-221 72 -229 1 -15 -15 8 -61 90 -14 25 -60 106 -104 180 -111 192 -134 239
-134 275 0 33 19 73 104 220 59 102 63 155 15 184 -64 39 -95 -14 -91 -151 1
-39 -4 -54 -31 -90 -34 -44 -69 -57 -75 -26 -2 9 5 19 16 22 10 4 29 17 41 30
28 30 22 74 -15 108 -45 42 -46 52 -12 94 68 86 101 210 62 238 -12 9 -13 17
-5 37 15 42 59 71 103 68 47 -4 53 2 39 44 -16 46 -55 64 -106 47 -30 -10 -41
-21 -58 -59 l-20 -46 -17 40 c-27 65 -69 84 -127 60 -28 -12 -33 -12 -33 0 0
8 7 18 17 23 19 11 19 44 3 148 -13 78 -20 95 -31 68 -4 -10 -8 55 -9 146 0
91 -2 197 -5 235 -2 39 -7 135 -10 214 -14 286 -20 171 -17 -307 1 -283 -2
-481 -7 -472 -5 8 -12 78 -15 155 -4 77 -11 178 -17 225 -10 91 -47 276 -59
299 -12 22 -65 -223 -72 -334 -2 -22 -9 104 -16 279 -7 176 -16 325 -20 332
-4 7 -6 -202 -6 -464z m159 -170 c9 -98 15 -213 13 -257 l-4 -80 -4 105 -3
105 -12 -130 -12 -130 -2 186 c0 102 -3 242 -6 310 -7 173 10 113 30 -109z
m-138 -364 c-3 -7 -5 -2 -5 12 0 14 2 19 5 13 2 -7 2 -19 0 -25z m147 -15
c-15 -43 -18 -97 -5 -89 10 6 25 -43 16 -52 -3 -3 -5 3 -5 14 0 14 -2 16 -9 6
-7 -11 -10 -10 -15 3 -15 40 2 155 24 155 4 0 2 -17 -6 -37z m-225 -89 c21 -5
31 -12 31 -25 0 -22 -12 -24 -40 -7 -26 17 -33 7 -23 -33 7 -26 16 -36 40 -43
26 -8 30 -14 28 -39 -1 -17 -10 -34 -21 -40 -11 -6 -23 -16 -27 -24 -4 -7 -14
-13 -22 -13 -19 0 -55 53 -55 83 0 13 -9 34 -20 47 -26 30 -25 32 9 69 30 32
45 36 100 25z m433 -20 c33 -33 35 -53 8 -77 -11 -9 -20 -29 -20 -43 0 -27
-35 -94 -49 -94 -4 0 -18 11 -31 25 -13 14 -29 25 -36 25 -7 0 -13 18 -16 45
-2 28 0 41 6 35 27 -27 76 15 76 65 0 18 -21 20 -37 4 -17 -17 -42 -4 -37 18
4 14 17 19 56 21 44 2 55 -1 80 -24z m-213 -86 c1 7 5 11 11 7 14 -9 1 -32
-21 -38 -17 -4 -19 0 -19 36 l1 42 14 -30 c7 -16 14 -24 14 -17z m-356 -81 c9
-23 33 -60 52 -82 19 -22 34 -49 34 -60 0 -11 -3 -14 -6 -7 -2 6 -8 10 -12 7
-21 -12 -101 119 -101 165 0 32 14 23 33 -23z m637 16 c0 -33 -47 -118 -84
-152 l-26 -24 0 24 c0 13 16 44 35 68 19 24 40 58 47 77 15 41 28 44 28 7z
m-377 10 c7 -7 -11 -33 -23 -33 -4 0 -10 9 -13 20 -4 14 0 20 12 20 10 0 21
-3 24 -7z m120 1 c9 -9 -4 -34 -18 -34 -14 0 -27 25 -18 34 4 3 12 6 18 6 6 0
14 -3 18 -6z m-209 -80 c16 -15 23 -74 9 -74 -28 0 -56 64 -36 83 9 9 9 9 27
-9z m134 -30 c-3 -27 -4 -26 -9 8 -3 22 -1 34 4 29 5 -5 7 -21 5 -37z m162 21
c0 -21 -33 -65 -50 -65 -3 0 -4 16 -2 36 4 31 17 45 50 53 1 1 2 -10 2 -24z
m-235 -69 c8 -25 12 -46 9 -46 -5 0 -18 34 -28 75 -11 45 3 23 19 -29z m159
27 c-11 -44 -24 -76 -29 -71 -5 5 24 98 31 98 2 0 1 -12 -2 -27z m123 -55 c-3
-7 -5 -2 -5 12 0 14 2 19 5 13 2 -7 2 -19 0 -25z m-377 -14 c0 -8 -5 -12 -10
-9 -6 4 -8 11 -5 16 9 14 15 11 15 -7z m337 -16 c-3 -7 -5 -2 -5 12 0 14 2 19
5 13 2 -7 2 -19 0 -25z m-272 -8 c11 -17 -5 -32 -21 -19 -7 6 -11 15 -8 20 7
12 21 11 29 -1z m225 -4 c0 -8 -7 -16 -15 -20 -10 -4 -15 1 -15 14 0 11 7 20
15 20 8 0 15 -6 15 -14z m-351 -68 c0 -18 -3 -27 -6 -20 -2 6 -9 10 -14 6 -5
-3 -9 4 -9 15 0 16 7 24 28 30 1 1 2 -14 1 -31z m478 -4 c1 -16 0 -23 -3 -16
-3 6 -12 12 -20 12 -16 0 -16 2 -8 25 10 24 29 12 31 -21z m-466 -75 c-12 -39
-46 -89 -62 -89 -20 0 -8 41 16 52 22 10 24 16 19 45 -5 28 -4 32 10 27 13 -5
16 1 18 32 l1 39 4 -35 c3 -19 0 -51 -6 -71z m289 67 c-14 -14 -24 0 -16 21 6
15 8 15 16 3 6 -9 5 -19 0 -24z m153 -93 c20 -38 21 -46 5 -41 -16 6 -38 85
-36 133 1 39 1 38 7 -10 4 -27 15 -64 24 -82z m-379 31 l6 -49 -15 50 c-8 28
-14 59 -14 70 0 19 1 19 9 -1 5 -12 11 -43 14 -70z m88 71 c0 -5 -5 -11 -11
-13 -6 -2 -11 4 -11 13 0 9 5 15 11 13 6 -2 11 -8 11 -13z m223 -45 c-4 -23
-9 -39 -11 -37 -3 2 -2 23 2 46 4 23 9 40 11 37 3 -3 2 -23 -2 -46z m-262 -57
c11 -18 27 -16 27 2 0 8 5 15 10 15 29 0 -3 -68 -32 -70 -11 0 -28 72 -27 115
l2 40 6 -45 c4 -25 10 -51 14 -57z m223 22 c-4 -23 -12 -49 -19 -58 -11 -14
-14 -14 -36 3 -13 12 -21 26 -17 35 6 17 26 21 26 5 0 -16 27 -11 34 6 3 9 7
32 7 52 1 20 3 29 6 18 3 -10 2 -37 -1 -61z m21 -37 c-3 -8 -6 -5 -6 6 -1 11
2 17 5 13 3 -3 4 -12 1 -19z m-10 -70 c-3 -7 -5 -2 -5 12 0 14 2 19 5 13 2 -7
2 -19 0 -25z m-260 -25 c-3 -10 -5 -4 -5 12 0 17 2 24 5 18 2 -7 2 -21 0 -30z
m143 -152 c0 -9 -20 -37 -20 -29 0 3 -2 13 -5 21 -4 8 0 14 10 14 8 0 15 -3
15 -6z m125 -58 c3 -21 10 -58 15 -83 21 -103 41 -233 36 -238 -4 -3 -6 -1 -6
4 0 5 -17 74 -38 154 -35 137 -42 200 -22 200 5 0 12 -17 15 -37z m-215 -25
c0 -36 -26 -18 -28 20 -3 35 -2 36 12 17 9 -11 16 -28 16 -37z m176 26 c-3 -9
-6 -25 -6 -36 0 -17 -3 -18 -14 -8 -12 9 -13 17 -4 36 12 26 34 34 24 8z m-3
-151 c-20 -112 -64 -328 -69 -342 -12 -37 -12 12 1 202 10 142 12 214 5 227
-5 10 -10 27 -10 37 0 13 10 7 42 -24 l42 -42 -11 -58z"/>
<path d="M932 2775 c0 -16 2 -22 5 -12 2 9 2 23 0 30 -3 6 -5 -1 -5 -18z"/>
<path d="M1112 2700 c0 -19 2 -27 5 -17 2 9 2 25 0 35 -3 9 -5 1 -5 -18z"/>
<path d="M1321 2684 c0 -11 3 -14 6 -6 3 7 2 16 -1 19 -3 4 -6 -2 -5 -13z"/>
<path d="M1103 2470 c0 -41 2 -58 4 -37 2 20 2 54 0 75 -2 20 -4 3 -4 -38z"/>
<path d="M1314 2400 c0 -58 1 -81 3 -52 2 28 2 76 0 105 -2 28 -3 5 -3 -53z"/>
<path d="M1053 865 c0 -27 2 -38 4 -22 2 15 2 37 0 50 -2 12 -4 0 -4 -28z"/>
<path d="M1043 770 c0 -25 2 -35 4 -22 2 12 2 32 0 45 -2 12 -4 2 -4 -23z"/>
<path d="M1032 660 c0 -19 2 -27 5 -17 2 9 2 25 0 35 -3 9 -5 1 -5 -18z"/>
<path d="M1001 394 c0 -11 3 -14 6 -6 3 7 2 16 -1 19 -3 4 -6 -2 -5 -13z"/>
</g>
</svg>
