<?xml version="1.0" standalone="no"?>
<!DOCTYPE svg PUBLIC "-//W3C//DTD SVG 20010904//EN"
 "http://www.w3.org/TR/2001/REC-SVG-20010904/DTD/svg10.dtd">
<svg version="1.0" xmlns="http://www.w3.org/2000/svg"
 width="244.000000pt" height="305.000000pt" viewBox="0 0 244.000000 305.000000"
 preserveAspectRatio="xMidYMid meet">
<metadata>
Created by potrace 1.16, written by Peter Selinger 2001-2019
</metadata>
<g transform="translate(0.000000,305.000000) scale(0.100000,-0.100000)"
fill="#000000" stroke="none">
<path d="M1527 2832 c-37 -169 -57 -352 -69 -626 -9 -229 -9 -281 2 -284 7 -3
30 -20 50 -38 34 -31 39 -33 51 -18 8 9 31 28 53 41 l39 25 -7 167 c-11 266
-25 437 -47 576 -11 71 -23 132 -26 135 -3 3 -3 -11 1 -30 25 -144 47 -390 53
-588 l6 -233 -34 -29 c-19 -16 -38 -29 -42 -30 -4 0 -7 225 -7 501 1 275 0
502 -2 504 -2 2 -11 -31 -21 -73z"/>
<path d="M916 2890 c-11 -28 -55 -285 -65 -385 -16 -141 -31 -492 -24 -543 5
-34 12 -46 34 -57 15 -8 34 -24 42 -35 14 -21 15 -21 67 17 l52 38 -6 220 c-3
121 -12 281 -20 356 -15 137 -46 323 -52 316 -2 -2 7 -82 21 -178 22 -156 44
-473 45 -631 0 -54 -1 -57 -37 -79 -21 -13 -41 -25 -45 -27 -5 -2 -8 212 -8
475 0 312 4 473 10 463 8 -12 10 -12 9 5 0 11 -4 29 -9 40 -6 16 -9 17 -14 5z"/>
<path d="M1381 2874 c0 -11 3 -14 6 -6 3 7 2 16 -1 19 -3 4 -6 -2 -5 -13z"/>
<path d="M1080 2482 c0 -372 -10 -542 -31 -542 -5 0 -10 80 -12 178 l-2 177
-3 -182 c-2 -169 -1 -184 19 -217 12 -20 27 -36 35 -36 8 0 14 -7 14 -15 0
-21 -12 -19 -33 5 -35 42 -109 8 -133 -61 l-11 -34 -17 39 c-21 50 -42 65 -88
66 -28 0 -41 -6 -58 -27 -11 -15 -20 -36 -18 -47 3 -18 9 -20 41 -18 32 3 43
-2 72 -31 38 -38 43 -58 20 -77 -21 -17 -19 -69 4 -132 12 -32 21 -81 21 -123
2 -100 1 -105 -13 -105 -9 0 -19 22 -26 58 -19 89 -21 92 -44 92 -76 0 -88
-77 -31 -184 45 -87 39 -106 -12 -36 -70 96 -80 154 -38 226 25 43 26 46 9 64
-25 27 -88 27 -115 0 -11 -11 -20 -32 -20 -47 1 -33 23 -119 33 -129 21 -22
-4 -118 -35 -135 -16 -9 -18 -17 -13 -47 l6 -37 -167 -63 c-92 -34 -168 -61
-170 -59 -3 3 247 174 349 239 7 4 5 28 -6 76 -9 38 -17 85 -17 103 0 19 -5
41 -11 49 -8 11 -9 -12 -6 -81 l5 -96 -33 1 c-29 1 -50 -16 -204 -167 -95 -93
-171 -171 -169 -173 2 -2 69 20 148 47 80 28 180 62 223 76 68 22 77 28 77 49
0 14 6 27 13 30 15 5 112 -40 123 -58 4 -6 -8 -42 -27 -80 -27 -55 -31 -71
-20 -77 7 -5 11 -13 8 -18 -9 -14 -147 -494 -147 -510 0 -14 45 35 145 157 38
47 72 87 75 90 13 13 108 129 131 160 23 31 24 38 12 60 -20 39 -16 60 10 60
13 0 26 -2 29 -5 2 -3 -6 -74 -19 -158 -12 -83 -22 -163 -22 -177 1 -30 34
149 44 240 9 81 20 102 48 98 12 -2 21 -7 20 -13 -1 -5 -15 -59 -32 -120 -16
-60 -41 -159 -57 -218 -15 -59 -30 -103 -34 -97 -4 6 -10 -12 -13 -41 -4 -29
-5 -54 -4 -56 2 -1 44 98 95 221 85 205 92 227 86 269 -5 37 -4 47 7 47 20 0
57 -27 70 -51 9 -17 5 -25 -21 -52 -36 -37 -39 -4 31 -367 71 -367 62 -340 81
-240 9 47 34 177 56 290 22 113 43 222 46 242 6 31 2 41 -24 71 -16 19 -30 39
-30 45 0 14 59 62 76 62 12 0 14 -9 9 -43 -6 -36 -1 -58 28 -128 122 -295 147
-353 147 -343 0 6 -16 121 -35 255 -19 134 -35 250 -35 257 0 7 13 12 30 12
33 0 36 -9 19 -59 -10 -28 -8 -36 15 -69 14 -20 41 -53 59 -73 17 -20 90 -106
162 -192 71 -86 131 -154 133 -152 2 2 -24 99 -59 217 -34 117 -69 240 -77
273 -8 33 -28 89 -44 123 l-30 64 22 23 c28 30 108 68 126 61 8 -3 14 -16 14
-30 0 -19 8 -27 43 -39 363 -129 417 -146 407 -128 -5 11 -14 21 -20 23 -5 1
-81 74 -169 161 -153 153 -160 159 -191 152 l-32 -7 7 85 c4 52 3 87 -3 90
-10 7 -22 -69 -22 -151 l0 -53 43 6 42 6 140 -142 c77 -78 129 -136 115 -128
-135 80 -332 205 -349 220 -11 10 -26 37 -32 59 -10 34 -9 50 10 114 32 107
16 146 -59 146 -64 0 -87 -32 -54 -78 46 -65 33 -146 -37 -235 -24 -32 -46
-52 -48 -46 -1 5 11 37 29 70 44 82 52 117 39 156 -7 23 -19 35 -36 39 -38 10
-57 -7 -64 -57 -4 -24 -11 -57 -16 -73 -8 -27 -10 -28 -26 -12 -28 28 -23 141
8 200 31 58 37 136 13 159 -36 37 25 107 93 107 35 0 39 3 39 25 0 14 -12 37
-26 52 -20 20 -31 24 -57 19 -37 -8 -73 -39 -81 -72 -9 -34 -20 -30 -35 12 -9
25 -23 40 -47 50 -45 19 -60 18 -84 -6 -24 -24 -30 -25 -30 -5 0 8 6 15 13 15
7 0 21 14 31 32 17 29 19 53 17 282 -2 229 -25 664 -36 675 -3 2 -5 -158 -5
-356 0 -298 -3 -367 -15 -396 -8 -20 -16 -49 -17 -64 0 -16 -4 -7 -8 22 -5 39
-7 27 -9 -60 -2 -167 -17 -157 -24 17 -8 183 -30 375 -56 493 -21 94 -26 106
-34 78 -35 -120 -62 -336 -76 -598 -9 -192 -19 -115 -26 205 -5 246 -31 668
-41 679 -2 2 -4 -172 -4 -387z m207 -363 c4 -143 3 -211 -5 -225 -9 -14 -11
26 -12 171 0 105 -2 222 -5 260 -4 58 -3 64 5 35 6 -19 13 -128 17 -241z m10
-356 c-2 -16 -4 -3 -4 27 0 30 2 43 4 28 2 -16 2 -40 0 -55z m-256 -10 c9 -84
12 -232 4 -230 -17 6 -55 80 -55 108 0 15 -7 32 -15 39 -20 16 -19 36 3 65 16
23 61 35 63 18z m453 -15 c20 -28 20 -52 1 -68 -8 -7 -15 -23 -15 -37 0 -26
-22 -74 -50 -110 -17 -22 -17 -20 -14 65 7 146 13 172 40 172 12 0 30 -10 38
-22z m-374 2 c0 -5 -5 -10 -11 -10 -5 0 -7 5 -4 10 3 6 8 10 11 10 2 0 4 -4 4
-10z m30 -98 c0 -15 9 -26 25 -32 16 -6 32 -25 42 -47 l15 -38 20 38 c10 21
30 42 43 47 16 6 25 17 25 32 0 13 4 29 9 36 14 23 34 -39 22 -71 -9 -22 -17
-27 -45 -27 -35 0 -46 -14 -62 -85 -7 -28 -8 -27 -25 25 -10 30 -19 56 -19 58
0 1 -15 2 -33 2 -54 0 -70 30 -45 85 13 29 28 17 28 -23z m149 1 c1 -7 -3 -13
-9 -13 -5 0 -10 15 -9 33 0 27 2 29 9 12 5 -11 9 -26 9 -32z m-354 -59 c18
-44 18 -44 1 -44 -16 0 -26 21 -26 56 0 34 7 30 25 -12z m442 4 c-3 -7 -5 -2
-5 12 0 14 2 19 5 13 2 -7 2 -19 0 -25z m167 -6 c-4 -15 -11 -33 -17 -39 -15
-19 -27 -5 -17 20 4 12 11 30 14 40 9 28 27 9 20 -21z m-467 6 c-3 -8 -6 -5
-6 6 -1 11 2 17 5 13 3 -3 4 -12 1 -19z m33 -99 c12 -23 19 -43 17 -45 -8 -8
-47 48 -47 67 0 29 8 23 30 -22z m254 14 c-7 -28 -34 -67 -41 -59 -5 5 35 86
42 86 3 0 2 -12 -1 -27z m-359 -38 c0 -10 -6 -20 -12 -22 -8 -3 -13 5 -13 22
0 17 5 25 13 23 6 -3 12 -13 12 -23z m465 1 c0 -21 -20 -30 -33 -17 -9 9 -8
14 3 21 21 14 30 12 30 -4z m-551 -89 c1 -30 -3 -46 -9 -42 -5 3 -10 34 -9 68
1 74 17 51 18 -26z m148 41 c28 -26 29 -38 3 -38 -18 0 -40 26 -40 49 0 17 11
13 37 -11z m346 -6 c-6 -18 -32 -42 -45 -42 -15 0 -8 24 13 47 24 25 42 22 32
-5z m118 -55 c-13 -13 -15 24 -3 63 6 22 7 21 10 -14 2 -21 -1 -43 -7 -49z
m-361 22 c0 -5 -4 -9 -10 -9 -5 0 -10 7 -10 16 0 8 5 12 10 9 6 -3 10 -10 10
-16z m121 -12 c-8 -8 -11 -7 -11 4 0 9 3 19 7 23 4 4 9 2 11 -4 3 -7 -1 -17
-7 -23z m-214 -168 c13 -13 33 -4 33 17 0 11 7 13 28 8 35 -8 45 -18 40 -39
-5 -25 -81 -29 -109 -6 -23 18 -37 97 -23 128 5 13 9 1 13 -39 4 -31 11 -62
18 -69z m333 76 c0 -45 -22 -96 -46 -107 -18 -9 -27 -9 -36 0 -8 8 -17 8 -30
1 -14 -7 -20 -6 -24 6 -9 23 3 45 25 45 13 0 23 9 27 24 7 29 -1 46 -22 46 -8
0 -14 4 -14 9 0 4 11 6 25 3 23 -4 25 -8 23 -53 -3 -53 2 -62 25 -54 18 8 27
36 27 90 0 30 3 36 10 25 5 -8 10 -24 10 -35z m44 -30 c-10 -36 -23 -65 -27
-65 -5 0 -7 6 -4 13 2 6 12 38 21 71 10 32 20 56 23 52 3 -3 -3 -35 -13 -71z
m-446 -20 c0 -5 -6 4 -13 20 -8 17 -14 37 -14 45 0 8 7 -1 14 -20 7 -19 13
-39 13 -45z m118 59 c-3 -9 -6 -23 -6 -31 0 -22 -6 -14 -14 20 -5 21 -3 27 10
27 11 0 14 -5 10 -16z m-236 -49 c16 -29 7 -43 -15 -25 -16 13 -21 50 -7 50 5
0 15 -11 22 -25z m130 -45 c0 -11 -2 -20 -4 -20 -2 0 -6 9 -9 20 -3 11 -1 20
4 20 5 0 9 -9 9 -20z m540 -1 c0 -11 -4 -17 -10 -14 -5 3 -10 13 -10 21 0 8 5
14 10 14 6 0 10 -9 10 -21z m-720 -47 c0 -7 -4 -10 -10 -7 -5 3 -10 16 -10 28
0 18 2 19 10 7 5 -8 10 -21 10 -28z m780 -48 c0 -24 -14 -32 -25 -14 -9 14 4
52 16 45 5 -4 9 -17 9 -31z m-870 -78 l-21 -21 18 39 c13 27 19 34 21 21 2
-10 -6 -27 -18 -39z m132 7 c1 -21 1 -51 0 -67 -1 -15 2 -44 8 -64 8 -29 6
-41 -7 -62 -31 -48 -256 -321 -260 -316 -3 3 29 69 70 148 148 281 157 301
157 344 0 22 3 44 7 47 15 15 23 5 25 -30z m738 -14 c13 -38 21 -46 58 -59
l43 -15 39 -125 c77 -247 99 -324 96 -328 -2 -2 -43 70 -92 160 -48 90 -109
202 -135 250 -52 94 -65 129 -55 154 10 26 30 10 46 -37z m76 -8 c-12 -19 -21
-12 -23 15 -1 24 1 25 14 11 9 -8 12 -20 9 -26z m-460 -46 c18 24 17 7 0 -24
-13 -24 -14 -24 -25 -3 -14 27 -14 53 1 28 11 -19 11 -19 24 -1z m178 -24 c10
-15 107 -403 103 -407 -2 -3 -12 17 -22 43 -9 27 -37 98 -61 159 -32 81 -44
125 -44 162 0 48 10 66 24 43z m-99 -131 c13 -25 5 -78 -44 -305 -10 -49 -10
-48 -6 25 17 261 18 297 6 304 -6 4 -11 14 -11 23 0 14 3 13 21 -3 12 -10 27
-30 34 -44z"/>
<path d="M1561 2844 c0 -11 3 -14 6 -6 3 7 2 16 -1 19 -3 4 -6 -2 -5 -13z"/>
<path d="M1063 2755 c0 -22 2 -30 4 -17 2 12 2 30 0 40 -3 9 -5 -1 -4 -23z"/>
<path d="M1372 2760 c0 -19 2 -27 5 -17 2 9 2 25 0 35 -3 9 -5 1 -5 -18z"/>
<path d="M1363 2655 c0 -22 2 -30 4 -17 2 12 2 30 0 40 -3 9 -5 -1 -4 -23z"/>
<path d="M1053 2635 c0 -27 2 -38 4 -22 2 15 2 37 0 50 -2 12 -4 0 -4 -28z"/>
<path d="M1043 2485 c0 -38 2 -53 4 -32 2 20 2 52 0 70 -2 17 -4 1 -4 -38z"/>
<path d="M1353 2490 c0 -30 2 -43 4 -27 2 15 2 39 0 55 -2 15 -4 2 -4 -28z"/>
<path d="M1344 2235 c0 -60 1 -84 3 -52 2 32 2 81 0 110 -2 29 -3 3 -3 -58z"/>
<path d="M922 540 c0 -19 2 -27 5 -17 2 9 2 25 0 35 -3 9 -5 1 -5 -18z"/>
</g>
</svg>
