<?xml version="1.0" standalone="no"?>
<!DOCTYPE svg PUBLIC "-//W3C//DTD SVG 20010904//EN"
 "http://www.w3.org/TR/2001/REC-SVG-20010904/DTD/svg10.dtd">
<svg version="1.0" xmlns="http://www.w3.org/2000/svg"
 width="244.000000pt" height="305.000000pt" viewBox="0 0 244.000000 305.000000"
 preserveAspectRatio="xMidYMid meet">
<metadata>
Created by potrace 1.16, written by Peter Selinger 2001-2019
</metadata>
<g transform="translate(0.000000,305.000000) scale(0.100000,-0.100000)"
fill="#000000" stroke="none">
<path d="M880 2870 c-6 -23 -9 -45 -6 -48 3 -3 7 3 8 14 0 10 4 -28 8 -86 7
-95 3 -841 -4 -848 -2 -1 -22 10 -45 24 l-41 28 0 110 c0 136 23 424 45 566
25 157 27 196 5 95 -37 -177 -56 -380 -62 -669 l-3 -130 45 -28 c68 -42 68
-42 100 -15 16 14 39 28 50 32 18 6 20 15 20 106 0 167 -19 436 -41 579 -18
119 -56 299 -65 309 -1 1 -8 -16 -14 -39z"/>
<path d="M1570 2900 c-1 -8 -3 -23 -5 -32 -2 -10 1 -20 6 -24 5 -3 9 -203 9
-475 0 -392 -2 -469 -14 -469 -7 0 -20 7 -27 16 -7 9 -23 20 -36 25 -21 8 -23
14 -23 86 1 191 20 429 51 627 11 70 18 130 15 133 -5 6 -12 -25 -35 -177 -26
-161 -41 -370 -41 -548 l0 -142 28 -11 c15 -6 39 -21 53 -35 l25 -24 23 24
c13 13 37 30 54 37 l30 13 -6 215 c-7 240 -26 425 -62 606 -23 118 -42 185
-45 155z"/>
<path d="M1269 2704 l-1 -199 -17 50 -18 50 -6 -34 c-4 -18 -4 -37 -1 -42 6
-10 8 -319 4 -464 -3 -89 -3 -90 -10 -30 l-7 60 -3 -80 c-5 -102 -5 -112 3
-160 6 -35 5 -34 -8 10 -11 38 -14 102 -13 260 0 118 4 195 8 175 5 -25 8 -9
9 60 1 52 4 113 6 135 l5 40 -18 -40 c-10 -22 -22 -74 -26 -115 -19 -205 -25
-294 -25 -397 -1 -122 -14 -154 -29 -71 -5 29 -15 82 -22 118 -19 105 -29 102
-49 -14 -17 -94 -14 -134 9 -141 37 -12 60 -53 54 -97 -2 -23 -7 -45 -10 -49
-8 -13 -38 -11 -52 3 -20 20 -35 -4 -22 -38 20 -50 49 -57 82 -19 30 35 39 31
32 -15 -6 -36 -4 -40 19 -49 24 -9 45 -46 33 -58 -3 -4 -14 1 -23 9 -30 25
-52 29 -89 13 -45 -19 -43 -30 10 -44 51 -13 56 -21 63 -119 6 -68 5 -72 -13
-66 -60 22 -124 57 -161 88 -50 43 -113 160 -95 178 7 7 18 -4 36 -40 39 -76
140 -168 204 -184 15 -4 22 -2 22 8 0 16 -26 44 -82 86 -46 35 -98 114 -98
149 0 18 -7 32 -20 39 -28 15 -25 37 10 72 26 25 36 29 73 26 47 -3 52 1 44
42 -7 34 -36 52 -83 52 -42 0 -62 -16 -82 -62 -13 -32 -15 -33 -26 -16 -33 57
-62 79 -104 79 -48 0 -77 -21 -85 -59 -5 -30 7 -39 53 -36 38 2 64 -15 94 -60
17 -26 17 -27 -3 -45 -42 -35 -12 -141 65 -231 35 -41 35 -43 20 -67 -9 -14
-20 -25 -24 -25 -12 0 -42 -56 -42 -77 0 -46 92 -91 120 -59 10 13 10 22 1 42
-14 32 -14 67 0 81 8 8 26 6 67 -8 30 -10 64 -19 74 -19 15 0 17 -3 8 -20 -6
-10 -8 -37 -4 -59 4 -27 1 -49 -10 -72 -9 -18 -13 -42 -10 -53 5 -17 4 -19 -7
-8 -7 6 -12 27 -11 46 2 23 -2 36 -14 40 -18 7 -92 -10 -111 -26 -22 -18 -60
1 -97 46 -31 37 -36 50 -35 92 1 91 -11 144 -36 160 -19 13 -28 13 -47 3 -62
-33 -63 -79 -2 -184 116 -201 117 -203 110 -246 -4 -22 -17 -57 -30 -77 -34
-53 -176 -295 -220 -374 -35 -63 -61 -97 -52 -66 30 94 103 318 120 368 21 62
23 65 69 79 41 13 48 19 57 50 23 84 9 134 -64 223 -81 99 -96 167 -51 228 45
61 26 90 -58 90 -78 0 -93 -40 -56 -153 26 -80 16 -134 -34 -170 -27 -21 -281
-168 -357 -207 l-25 -13 25 28 c14 15 80 77 148 137 l123 111 45 -7 45 -6 -7
93 c-10 130 -25 156 -21 35 l3 -96 -37 1 c-33 2 -49 -10 -223 -166 -103 -93
-185 -171 -182 -174 5 -5 25 1 308 93 165 54 177 59 180 83 3 22 7 26 32 23
64 -7 134 -59 156 -116 13 -35 2 -51 -40 -59 -28 -6 -31 -12 -95 -214 -107
-335 -115 -362 -115 -370 0 -4 15 8 33 28 17 20 73 81 123 135 257 278 256
277 250 309 -3 17 -8 40 -12 53 -6 22 -5 22 88 22 82 0 100 -3 128 -23 56 -38
59 -52 21 -91 l-34 -35 27 -136 c14 -75 26 -151 26 -170 0 -18 4 -35 9 -37 5
-1 23 -70 40 -153 18 -82 33 -150 34 -152 2 -1 18 70 37 157 18 88 37 160 42
160 4 0 7 15 6 33 -1 17 11 92 26 166 l28 133 -31 32 c-37 38 -38 47 -8 72 44
38 66 44 158 44 90 0 91 0 85 -22 -23 -80 -26 -73 110 -223 234 -257 274 -299
274 -286 0 13 -48 169 -127 413 -24 75 -49 140 -56 146 -7 5 -24 12 -39 16
-68 16 5 129 103 161 55 18 69 14 69 -19 0 -22 13 -28 148 -71 81 -26 189 -61
240 -77 51 -17 95 -29 97 -26 3 2 -30 36 -72 74 -43 38 -129 115 -192 172
-108 97 -117 103 -148 97 l-33 -6 7 91 c7 105 -10 127 -21 26 -3 -36 -13 -83
-21 -105 -12 -35 -12 -43 0 -54 7 -8 97 -66 199 -128 102 -63 182 -115 176
-117 -5 -2 -56 13 -112 33 -57 20 -136 48 -175 62 -74 25 -85 38 -63 73 7 11
2 21 -21 41 -44 36 -50 101 -19 193 34 104 12 143 -76 133 -73 -8 -79 -20 -43
-84 30 -53 31 -57 20 -107 -8 -37 -26 -70 -62 -114 -60 -75 -89 -136 -96 -205
-5 -52 -4 -54 126 -286 73 -128 130 -235 128 -238 -3 -2 -72 73 -153 167 -109
125 -148 177 -146 193 1 12 4 60 6 107 4 102 9 114 94 254 73 120 84 166 48
205 -21 23 -68 28 -83 9 -13 -16 -25 -87 -27 -154 -1 -56 -32 -108 -80 -133
-22 -12 -30 -12 -64 3 -22 10 -55 16 -78 14 -35 -3 -39 -6 -36 -28 4 -34 -6
-70 -19 -70 -6 0 -7 5 -4 11 4 6 4 31 0 57 -6 36 -9 42 -15 27 -6 -17 -8 -15
-15 14 -6 26 -4 36 9 43 9 5 16 19 16 32 0 25 -22 51 -33 39 -4 -3 -7 1 -7 10
0 14 3 15 18 6 15 -9 33 -7 83 9 54 17 66 18 78 6 13 -12 13 -21 2 -65 -14
-54 -8 -69 29 -69 24 0 78 37 85 59 7 22 -14 69 -40 91 -39 32 -37 47 9 107
24 32 49 73 55 92 16 49 14 112 -5 125 -12 9 -13 17 -5 38 15 40 64 70 108 66
30 -2 38 1 41 16 6 29 -18 64 -51 76 -49 17 -90 -2 -118 -55 -23 -43 -39 -50
-39 -16 0 28 -36 68 -67 74 -41 8 -89 -16 -100 -49 -15 -45 -7 -54 40 -48 34
5 48 2 70 -16 30 -24 38 -74 12 -84 -8 -3 -15 -18 -15 -33 -1 -48 -51 -116
-127 -174 l-53 -40 0 39 c0 42 23 72 56 72 10 0 25 4 33 9 12 8 12 12 2 25
-19 23 -87 21 -108 -3 -9 -11 -20 -18 -25 -15 -17 11 -7 43 18 61 22 16 26 27
26 63 l-1 43 29 -31 c16 -18 35 -32 43 -32 22 0 47 34 47 64 0 23 -3 27 -17
21 -41 -18 -57 -11 -66 28 -13 53 -2 82 39 106 l36 22 -6 57 c-12 103 -27 165
-38 154 -5 -5 -19 -64 -31 -131 -11 -66 -24 -121 -27 -121 -4 0 -10 85 -14
190 -4 104 -11 225 -16 267 -6 43 -13 193 -16 333 -4 140 -8 257 -10 259 -2 2
-4 -85 -5 -195z m-91 -856 c-11 -23 -10 -86 2 -93 15 -10 13 -128 -2 -123 -19
6 -21 59 -12 308 l9 225 5 -150 c4 -82 3 -158 -2 -167z m33 -82 c7 4 8 -9 4
-37 -3 -24 -2 -64 4 -88 8 -36 7 -41 -4 -30 -8 9 -14 53 -17 124 -3 61 -3 91
-1 67 3 -26 8 -40 14 -36z m369 -168 c0 -36 -39 -105 -86 -154 -43 -44 -131
-94 -166 -94 -37 0 -16 27 36 49 64 26 166 127 186 184 16 41 30 49 30 15z
m-363 -90 c-3 -7 -5 -2 -5 12 0 14 2 19 5 13 2 -7 2 -19 0 -25z m20 -25 c-3
-10 -5 -2 -5 17 0 19 2 27 5 18 2 -10 2 -26 0 -35z m20 25 c-3 -8 -6 -5 -6 6
-1 11 2 17 5 13 3 -3 4 -12 1 -19z m-110 -350 c-3 -7 -5 -2 -5 12 0 14 2 19 5
13 2 -7 2 -19 0 -25z m33 -130 c0 -28 -3 -48 -7 -44 -4 4 -6 22 -5 41 2 19 -2
35 -8 35 -5 0 -10 5 -10 10 0 6 7 10 15 10 11 0 15 -12 15 -52z m127 10 c-16
-73 -26 -88 -26 -46 -1 37 16 88 29 88 4 0 3 -19 -3 -42z m-87 -120 c0 -19 -2
-20 -10 -8 -13 19 -13 30 0 30 6 0 10 -10 10 -22z m17 0 c-3 -8 -6 -5 -6 6 -1
11 2 17 5 13 3 -3 4 -12 1 -19z m-15 -176 c-2 -75 1 -196 7 -268 16 -206 2
-216 -37 -27 -18 87 -41 199 -52 248 -19 89 -19 90 0 110 20 19 20 19 20 -73
0 -50 4 -92 9 -92 4 0 7 33 5 73 -2 53 -1 64 5 42 7 -22 8 -11 5 40 -2 49 -1
62 5 45 9 -25 9 -24 10 6 1 31 10 48 20 38 3 -3 4 -67 3 -142z"/>
<path d="M1191 2874 c0 -11 3 -14 6 -6 3 7 2 16 -1 19 -3 4 -6 -2 -5 -13z"/>
<path d="M1551 2814 c0 -11 3 -14 6 -6 3 7 2 16 -1 19 -3 4 -6 -2 -5 -13z"/>
</g>
</svg>
