<?xml version="1.0" standalone="no"?>
<!DOCTYPE svg PUBLIC "-//W3C//DTD SVG 20010904//EN"
 "http://www.w3.org/TR/2001/REC-SVG-20010904/DTD/svg10.dtd">
<svg version="1.0" xmlns="http://www.w3.org/2000/svg"
 width="244.000000pt" height="305.000000pt" viewBox="0 0 244.000000 305.000000"
 preserveAspectRatio="xMidYMid meet">
<metadata>
Created by potrace 1.16, written by Peter Selinger 2001-2019
</metadata>
<g transform="translate(0.000000,305.000000) scale(0.100000,-0.100000)"
fill="#000000" stroke="none">
<path d="M1353 2880 c0 -25 2 -35 4 -22 2 12 2 32 0 45 -2 12 -4 2 -4 -23z"/>
<path d="M900 2900 c0 -8 -3 -26 -6 -40 -4 -20 -3 -22 5 -10 8 11 11 -122 11
-467 0 -266 -2 -483 -5 -483 -3 0 -23 12 -45 26 l-40 27 0 121 c0 163 25 476
50 621 23 135 21 164 -3 48 -36 -169 -65 -516 -67 -794 0 -20 7 -30 29 -39 16
-6 37 -20 47 -31 18 -20 54 -26 54 -9 0 5 18 20 41 32 l41 23 -6 215 c-4 118
-11 262 -17 319 -12 129 -67 433 -80 446 -6 5 -9 4 -9 -5z"/>
<path d="M1552 2877 c-7 -16 -12 -36 -11 -45 1 -11 4 -7 9 8 4 14 8 -192 9
-457 1 -266 -1 -483 -4 -483 -3 0 -23 12 -45 26 l-40 27 0 91 c0 141 28 488
50 626 21 135 23 146 15 138 -10 -10 -45 -241 -60 -397 -8 -89 -15 -235 -15
-326 0 -160 1 -165 23 -176 12 -7 35 -23 51 -36 l29 -24 26 24 c14 14 37 30
50 37 l24 12 -6 217 c-9 296 -34 519 -81 711 -13 55 -13 55 -24 27z"/>
<path d="M1105 2763 c-4 -70 -8 -146 -10 -168 -2 -22 -6 -137 -10 -255 -4
-118 -13 -250 -21 -294 -19 -106 -18 -155 4 -173 15 -13 12 -14 -28 -8 -58 7
-105 -19 -115 -64 -9 -41 -19 -39 -42 7 -14 28 -28 40 -60 52 -40 13 -44 13
-70 -6 -18 -14 -29 -32 -31 -52 -3 -31 -2 -32 37 -32 67 0 146 -87 96 -106
-21 -9 -19 -82 4 -136 10 -24 35 -64 55 -91 20 -26 36 -50 36 -54 0 -4 -14
-21 -30 -38 -17 -17 -35 -46 -40 -64 -8 -28 -6 -36 15 -57 14 -14 25 -31 25
-39 0 -28 -19 -24 -45 11 -24 31 -27 46 -31 125 -4 105 -14 129 -52 129 -48 0
-67 -22 -67 -77 0 -42 8 -62 49 -129 27 -43 60 -101 74 -129 24 -48 24 -51 8
-95 -9 -25 -16 -53 -16 -62 0 -10 -30 -71 -67 -135 -36 -65 -94 -169 -127
-231 -34 -62 -62 -108 -64 -103 -3 8 107 376 128 427 5 12 24 25 50 33 47 14
70 52 70 115 0 50 -14 81 -70 152 -85 105 -99 167 -55 232 30 45 32 68 4 82
-28 15 -96 15 -114 0 -20 -16 -20 -90 0 -137 19 -45 19 -106 1 -141 -15 -29
-47 -52 -221 -154 -216 -128 -219 -124 -32 47 127 117 132 120 176 120 l46 0
-3 65 c-4 94 -12 141 -24 134 -6 -4 -7 -38 -3 -91 l8 -85 -32 7 c-30 6 -38 2
-94 -52 -34 -32 -117 -109 -185 -172 -67 -63 -122 -118 -122 -122 0 -4 26 1
58 12 31 11 91 31 132 44 251 80 274 90 282 123 10 39 18 39 88 4 58 -29 100
-78 100 -118 0 -17 -9 -25 -34 -34 -26 -8 -37 -19 -45 -43 -113 -368 -163
-538 -158 -543 2 -2 57 57 123 133 65 75 154 177 197 226 55 63 76 94 72 106
-15 36 -23 70 -17 75 5 6 132 9 132 4 0 -2 -13 -120 -29 -263 -16 -143 -28
-261 -27 -262 2 -2 27 75 56 170 57 181 57 183 64 176 3 -2 33 -145 68 -318
l62 -313 65 328 65 328 62 -189 c47 -145 62 -181 63 -152 1 20 -3 37 -8 37 -5
0 -7 21 -5 48 2 33 1 39 -4 18 -5 -22 -16 14 -45 160 -48 236 -47 229 -20 229
12 0 25 4 28 7 7 7 116 1 123 -7 3 -2 0 -24 -6 -47 -13 -49 -17 -41 83 -155
39 -44 119 -137 179 -206 60 -70 111 -125 114 -123 2 3 -17 73 -42 158 -26 84
-63 207 -83 273 -20 66 -40 125 -45 132 -5 6 -23 15 -39 18 -78 17 12 143 123
170 24 6 27 4 30 -22 3 -27 9 -30 233 -105 127 -43 235 -77 240 -77 6 0 -18
25 -51 57 -34 31 -118 110 -187 175 -119 112 -128 118 -158 112 l-31 -7 7 80
c10 110 -6 129 -22 27 -7 -44 -15 -96 -18 -115 -6 -34 -5 -36 67 -81 217 -138
298 -192 294 -196 -2 -3 -73 21 -158 52 -84 31 -161 59 -171 62 -15 5 -18 12
-12 39 5 29 2 38 -21 57 -38 33 -43 99 -14 193 19 60 21 78 12 99 -13 28 -48
40 -96 31 -55 -10 -62 -28 -32 -79 44 -75 33 -139 -42 -233 -43 -55 -82 -124
-82 -147 0 -8 -6 -27 -14 -41 -11 -22 -15 -24 -20 -11 -9 23 -8 27 5 19 7 -4
9 0 5 14 -8 24 13 69 82 180 55 90 67 157 33 191 -26 26 -67 27 -79 4 -10 -19
-24 -96 -23 -125 0 -10 1 -29 2 -42 2 -25 -35 -86 -52 -86 -15 0 -10 36 6 50
24 20 18 54 -20 103 -19 25 -35 50 -35 54 0 5 13 24 29 43 65 79 104 212 67
226 -26 10 -18 48 18 83 28 28 40 32 72 29 33 -2 39 0 42 18 4 28 -32 70 -65
77 -38 7 -81 -17 -100 -58 -20 -41 -30 -44 -39 -11 -10 42 -50 70 -95 69 -40
-2 -40 -2 -34 30 7 38 -11 197 -24 210 -5 5 -12 -4 -16 -22 -19 -90 -25 -17
-24 323 0 209 5 368 10 372 5 3 8 15 8 27 -1 19 -2 19 -6 3 -4 -13 -7 -15 -13
-7 -9 15 -20 -168 -30 -489 -4 -129 -7 -210 -8 -180 -3 94 -32 299 -54 388
-24 97 -26 96 -58 -43 -22 -99 -39 -240 -48 -409 -5 -92 -11 -131 -20 -134
-10 -3 -12 88 -12 473 1 262 0 479 -3 481 -2 3 -8 -53 -12 -123z m107 -565
c-2 -153 -8 -276 -12 -273 -4 3 -11 67 -15 144 -5 109 -3 170 11 275 9 75 18
135 19 133 1 -1 0 -127 -3 -279z m128 -314 c0 -8 -4 -14 -10 -14 -5 0 -10 9
-10 21 0 11 5 17 10 14 6 -3 10 -13 10 -21z m-194 -11 c-10 -10 -19 5 -10 18
6 11 8 11 12 0 2 -7 1 -15 -2 -18z m44 -84 c0 -38 -4 -69 -9 -69 -13 0 -22 28
-11 35 13 8 13 67 0 101 -9 24 -9 25 5 14 11 -9 15 -32 15 -81z m171 20 l-9
-34 -1 31 c-1 17 2 34 6 37 12 13 14 -1 4 -34z m-241 -13 c0 -26 -6 -18 -14
19 -5 22 -4 26 4 15 5 -8 10 -24 10 -34z m-56 -36 c14 -5 26 -16 26 -25 0 -17
-16 -20 -25 -5 -10 16 -35 12 -35 -5 0 -26 30 -75 45 -75 21 0 20 -58 -1 -81
-17 -19 -12 -39 11 -39 14 0 31 -57 20 -68 -4 -4 -17 7 -30 23 -13 17 -34 40
-47 53 -32 33 -47 63 -48 95 0 15 -7 30 -15 33 -25 10 -18 60 11 83 30 23 50
26 88 11z m431 -17 c28 -31 32 -55 11 -72 -7 -6 -16 -30 -20 -52 -4 -28 -17
-51 -36 -69 -17 -16 -30 -32 -30 -37 0 -5 -14 -22 -31 -39 l-32 -29 8 40 c3
22 10 41 13 43 32 12 36 21 19 40 -24 26 -23 79 2 87 20 6 45 60 35 76 -3 5
-14 4 -25 -2 -24 -12 -34 -6 -26 15 5 13 27 21 69 25 9 0 29 -11 43 -26z
m-345 -63 c0 -11 -4 -20 -10 -20 -5 0 -10 9 -10 20 0 11 5 20 10 20 6 0 10 -9
10 -20z m182 -32 c-5 -66 -24 -90 -49 -66 -15 16 -15 18 10 27 23 9 27 16 27
51 0 22 4 40 9 40 4 0 6 -24 3 -52z m-132 2 c0 -22 -4 -28 -15 -24 -8 4 -15
13 -15 21 0 8 5 11 10 8 6 -3 10 1 10 9 0 9 2 16 5 16 3 0 5 -13 5 -30z m-25
-40 c17 0 20 -26 5 -35 -17 -11 -40 15 -40 44 1 22 2 24 11 9 5 -10 17 -18 24
-18z m-238 -37 c12 -27 31 -58 42 -70 12 -13 20 -34 20 -50 -1 -17 -3 -21 -6
-10 -2 9 -8 15 -13 12 -10 -6 -53 59 -68 104 -26 74 -7 84 25 14z m420 25 c-3
-8 -6 -5 -6 6 -1 11 2 17 5 13 3 -3 4 -12 1 -19z m208 -10 c-8 -38 -46 -108
-69 -128 -14 -11 -16 -9 -16 14 0 14 4 26 8 26 5 0 21 27 37 60 31 66 51 79
40 28z m-322 -51 c7 4 8 0 4 -11 -4 -10 -7 -27 -7 -38 0 -32 -7 -18 -13 27 -4
22 -4 34 -1 27 3 -6 11 -9 17 -5z m93 -60 c-7 -24 -18 -52 -25 -63 -10 -16
-11 -14 -5 16 6 34 30 90 39 90 2 0 -2 -19 -9 -43z m-176 -26 c11 -29 18 -56
16 -59 -8 -7 -46 78 -46 102 0 27 5 19 30 -43z m280 -36 c0 -8 -4 -17 -10 -20
-6 -4 -10 5 -10 20 0 15 4 24 10 20 6 -3 10 -12 10 -20z m-393 -17 c-3 -7 -5
-2 -5 12 0 14 2 19 5 13 2 -7 2 -19 0 -25z m73 -13 c7 -9 10 -18 7 -21 -10
-11 -37 5 -37 21 0 19 14 19 30 0z m258 -2 c-4 -22 -38 -30 -38 -10 0 14 13
24 33 26 5 1 7 -7 5 -16z m-371 -135 c-2 -18 -4 -4 -4 32 0 36 2 50 4 33 2
-18 2 -48 0 -65z m472 40 c-1 -48 -2 -50 -10 -23 -9 28 -5 75 6 75 3 0 5 -24
4 -52z m-59 -37 c-7 -31 -18 -60 -23 -66 -6 -6 -7 -3 -4 10 3 11 11 47 18 80
6 33 14 54 17 46 2 -7 -1 -39 -8 -70z m-352 1 c18 -80 13 -86 -9 -12 -21 72
-23 89 -11 75 5 -6 14 -34 20 -63z m103 45 c-13 -13 -26 -3 -16 12 3 6 11 8
17 5 6 -4 6 -10 -1 -17z m153 2 c-8 -14 -24 -10 -24 6 0 9 6 12 15 9 8 -4 12
-10 9 -15z m-216 -39 c0 -22 4 -44 7 -50 8 -13 35 -13 35 0 0 16 27 11 34 -6
4 -9 5 -18 4 -18 -2 -1 -15 -10 -30 -19 -15 -9 -30 -17 -32 -17 -11 0 -37 111
-31 130 9 30 13 25 13 -20z m272 14 c0 -34 -20 -113 -31 -120 -5 -2 -21 3 -36
13 -15 9 -29 18 -31 19 -1 0 0 9 4 18 8 21 30 21 38 -1 12 -29 40 10 41 57 0
22 3 40 8 40 4 0 7 -12 7 -26z m-390 -91 c0 -28 -17 -50 -29 -38 -8 8 -6 18 5
33 18 27 24 28 24 5z m558 -11 c3 -16 -2 -22 -16 -22 -24 0 -38 30 -20 42 19
12 33 4 36 -20z m210 -452 c63 -117 112 -213 110 -216 -2 -2 -68 74 -147 168
l-143 172 6 44 c3 25 6 59 6 76 l1 31 27 -32 c15 -17 78 -127 140 -243z m-515
203 c-5 -12 -7 -12 -14 -1 -13 20 -11 28 5 22 8 -3 12 -12 9 -21z m-133 -46
c0 -23 -15 -89 -34 -147 -19 -58 -39 -125 -46 -149 -6 -23 -13 -41 -16 -39 -4
4 61 344 71 376 9 26 25 0 25 -41z m240 -9 c0 -50 0 -51 -20 -33 -11 10 -20
23 -20 29 0 12 28 56 36 56 2 0 4 -23 4 -52z m-190 -2 c0 -6 -9 -22 -20 -36
l-20 -25 0 54 c0 53 0 54 20 36 11 -10 20 -23 20 -29z m40 -35 c-11 -28 -7
-166 15 -431 l5 -55 -15 60 c-8 33 -29 132 -47 221 l-34 160 40 42 c44 47 55
48 36 3z"/>
<path d="M1132 2645 c0 -16 2 -22 5 -12 2 9 2 23 0 30 -3 6 -5 -1 -5 -18z"/>
<path d="M1373 2625 c0 -22 2 -30 4 -17 2 12 2 30 0 40 -3 9 -5 -1 -4 -23z"/>
<path d="M1143 2390 c0 -47 2 -66 4 -42 2 23 2 61 0 85 -2 23 -4 4 -4 -43z"/>
<path d="M1383 2390 c0 -41 2 -58 4 -37 2 20 2 54 0 75 -2 20 -4 3 -4 -38z"/>
<path d="M1382 2275 c0 -16 2 -22 5 -12 2 9 2 23 0 30 -3 6 -5 -1 -5 -18z"/>
<path d="M1433 885 c0 -22 2 -30 4 -17 2 12 2 30 0 40 -3 9 -5 -1 -4 -23z"/>
<path d="M1443 805 c0 -22 2 -30 4 -17 2 12 2 30 0 40 -3 9 -5 -1 -4 -23z"/>
<path d="M1453 710 c0 -25 2 -35 4 -22 2 12 2 32 0 45 -2 12 -4 2 -4 -23z"/>
<path d="M1463 625 c0 -22 2 -30 4 -17 2 12 2 30 0 40 -3 9 -5 -1 -4 -23z"/>
</g>
</svg>
