<?xml version="1.0" standalone="no"?>
<!DOCTYPE svg PUBLIC "-//W3C//DTD SVG 20010904//EN"
 "http://www.w3.org/TR/2001/REC-SVG-20010904/DTD/svg10.dtd">
<svg version="1.0" xmlns="http://www.w3.org/2000/svg"
 width="244.000000pt" height="305.000000pt" viewBox="0 0 244.000000 305.000000"
 preserveAspectRatio="xMidYMid meet">
<metadata>
Created by potrace 1.16, written by Peter Selinger 2001-2019
</metadata>
<g transform="translate(0.000000,305.000000) scale(0.100000,-0.100000)"
fill="#000000" stroke="none">
<path d="M937 2895 c-11 -37 -36 -189 -51 -315 -19 -161 -26 -265 -31 -478
l-3 -174 33 -19 c18 -11 36 -26 39 -34 8 -22 30 -18 56 10 28 30 57 29 78 -2
14 -22 14 -23 -17 -17 -38 8 -65 -13 -81 -62 -13 -38 -24 -37 -34 2 -9 33 -43
63 -73 64 -30 0 -72 -39 -75 -70 -3 -23 1 -25 39 -28 32 -2 48 -10 68 -33 29
-35 31 -55 9 -81 -15 -16 -15 -25 -4 -75 37 -171 49 -283 30 -283 -5 0 -10 21
-11 48 0 39 -2 43 -10 24 -5 -13 -6 -29 -2 -34 3 -7 1 -8 -5 -4 -7 4 -12 25
-12 46 0 21 -3 45 -6 54 -8 20 -44 21 -70 2 -24 -18 -25 -96 -2 -141 23 -45
31 -75 19 -75 -19 0 -60 73 -71 128 -11 49 -10 55 14 96 14 25 26 51 26 60 0
36 -94 50 -123 18 -21 -23 -21 -52 -2 -116 8 -27 15 -76 15 -108 0 -50 -4 -63
-25 -84 -21 -21 -24 -32 -19 -58 l6 -33 -114 -48 c-62 -26 -133 -56 -157 -66
-24 -11 -46 -17 -49 -15 -2 3 23 24 56 48 99 72 246 177 266 192 18 12 18 16
2 95 -9 45 -16 97 -16 117 0 23 -4 33 -11 28 -8 -5 -9 -34 -4 -95 l6 -89 -28
6 c-26 5 -42 -9 -201 -175 -96 -100 -169 -181 -164 -181 5 0 103 36 218 79
197 75 209 81 215 107 3 17 11 28 19 26 35 -8 80 -32 80 -43 0 -7 -16 -44 -36
-82 -19 -38 -34 -71 -32 -73 3 -2 14 5 26 16 12 11 25 20 29 20 4 0 19 9 33
20 34 26 52 25 48 -2 -2 -14 -12 -24 -28 -28 -33 -8 -40 -25 -94 -225 -25 -93
-58 -212 -72 -263 -14 -52 -24 -96 -21 -98 4 -4 98 112 192 237 11 15 40 52
65 84 25 31 53 69 62 84 10 14 18 24 18 21 0 -3 -11 -83 -25 -179 -14 -95 -25
-183 -24 -195 0 -23 0 -23 57 104 105 236 125 291 119 334 -4 24 -4 46 0 50
10 9 82 -36 89 -56 3 -12 -4 -32 -21 -54 l-27 -35 22 -127 c12 -70 37 -212 56
-316 19 -104 34 -194 35 -200 2 -26 21 68 70 346 l52 298 -27 35 c-17 21 -25
42 -21 53 7 21 44 49 71 54 17 3 19 -2 16 -46 -2 -29 3 -65 12 -85 53 -127
143 -332 158 -361 16 -32 17 -33 17 -10 0 35 -16 109 -18 85 -2 -18 -4 -17
-12 5 -6 14 -21 66 -35 115 -13 50 -37 139 -54 199 -17 60 -28 111 -26 114 3
2 19 -1 36 -6 17 -6 37 -9 45 -6 9 4 15 0 15 -9 0 -21 -17 -31 -24 -15 -10 21
3 -88 28 -237 13 -77 24 -129 25 -115 0 14 -6 66 -14 115 -24 147 -23 148 53
48 101 -134 194 -252 224 -287 l28 -31 -6 30 c-3 17 -36 143 -73 280 -66 247
-68 250 -99 264 -22 10 -32 21 -32 37 l0 23 38 -21 c20 -12 55 -35 76 -50 22
-16 41 -26 44 -24 2 3 -17 43 -42 89 -25 47 -46 87 -46 90 0 8 61 37 76 37 7
0 14 -12 16 -27 3 -25 14 -32 148 -83 247 -95 262 -100 258 -91 -2 5 -73 84
-158 176 -144 155 -156 166 -183 161 l-29 -6 7 90 c5 63 4 90 -4 90 -6 0 -11
-17 -11 -37 0 -21 -3 -69 -7 -106 l-6 -68 39 7 40 6 123 -131 c68 -72 118
-131 112 -131 -14 0 -288 184 -320 215 -31 30 -38 96 -17 168 29 100 14 147
-48 147 -64 0 -83 -39 -46 -95 32 -48 21 -133 -25 -191 -30 -37 -38 -18 -14
35 40 90 17 164 -49 159 -38 -3 -44 -20 -41 -129 2 -88 -6 -112 -17 -53 -7 37
7 221 24 317 7 35 5 52 -4 65 -21 27 -16 55 16 91 26 28 36 32 61 27 37 -7 47
11 29 54 -24 58 -101 51 -135 -13 -24 -45 -31 -46 -38 -7 -9 42 -43 73 -73 66
-24 -7 -29 0 -18 28 9 25 40 19 77 -14 l34 -29 28 29 c16 17 35 30 43 30 13 0
14 35 9 263 -4 144 -11 291 -16 327 -6 36 -13 92 -17 125 -3 33 -9 62 -11 65
-3 3 -3 -26 1 -65 4 -38 12 -110 17 -160 5 -49 12 -185 15 -302 l7 -211 -29
-26 c-16 -14 -35 -26 -41 -26 -10 0 -13 102 -12 483 1 265 5 471 9 457 6 -20
8 -21 8 -5 0 11 -3 31 -7 45 -6 22 -8 23 -14 7 -12 -32 -46 -250 -61 -392 -8
-77 -18 -233 -21 -346 -7 -188 -14 -244 -30 -228 -7 8 -7 861 1 909 4 21 2 46
-3 55 -14 25 -31 -154 -43 -465 -15 -364 -21 -482 -27 -477 -6 7 -22 134 -33
267 -10 127 -14 156 -37 280 -22 119 -28 125 -46 44 -29 -124 -36 -187 -63
-514 -8 -92 -24 -101 -24 -13 0 51 -4 74 -15 83 -20 16 -20 15 -33 -45 -7 -37
-10 56 -11 364 0 228 -3 412 -6 410 -2 -3 -11 -101 -20 -219 -9 -118 -18 -217
-21 -219 -2 -2 -5 22 -5 55 -1 32 -5 73 -10 89 -6 22 -7 16 -4 -25 3 -30 8
-167 11 -305 l5 -250 -35 -22 c-19 -11 -37 -19 -40 -15 -3 3 -6 222 -5 486 0
278 4 473 9 461 11 -25 11 -1 1 35 -7 23 -8 23 -14 5z m321 -551 c4 2 7 -53 6
-122 l-1 -127 6 110 6 110 7 -85 c10 -109 8 -393 -2 -305 -5 41 -7 3 -8 -116
-2 -147 -5 -178 -17 -183 -13 -5 -15 45 -13 417 1 232 3 394 5 359 2 -34 7
-61 11 -58z m-158 -490 c0 -8 -4 -12 -10 -9 -5 3 -10 10 -10 16 0 5 5 9 10 9
6 0 10 -7 10 -16z m290 0 c0 -8 -4 -12 -10 -9 -5 3 -10 10 -10 16 0 5 5 9 10
9 6 0 10 -7 10 -16z m-20 -133 c-1 -13 -4 -12 -15 3 -8 11 -15 27 -15 35 1 13
4 12 15 -3 8 -11 15 -27 15 -35z m-331 26 c6 -8 8 -16 5 -20 -3 -3 0 -15 6
-27 9 -16 9 -25 1 -33 -6 -6 -11 -33 -11 -61 0 -60 -18 -51 -27 13 -3 22 -12
46 -19 52 -18 15 -18 39 2 67 18 25 27 27 43 9z m87 -3 c-3 -9 -6 -18 -6 -20
0 -2 -4 -4 -9 -4 -5 0 -7 9 -4 20 3 11 10 20 15 20 6 0 7 -7 4 -16z m348 -6
c20 -28 20 -52 1 -68 -8 -7 -15 -24 -15 -39 -1 -14 -7 -39 -15 -56 -13 -30
-13 -29 -14 27 -1 31 -6 60 -11 63 -6 4 -8 16 -4 28 23 75 33 82 58 45z m-184
-102 c-7 -7 -10 4 -9 30 1 39 1 39 10 9 5 -18 5 -33 -1 -39z m-130 -7 c0 -9 9
-19 20 -22 13 -3 27 -22 37 -47 11 -28 19 -37 25 -28 10 16 9 -5 -1 -42 -7
-24 -8 -24 -16 10 -12 56 -34 92 -51 86 -9 -3 -26 -3 -40 0 -27 7 -33 41 -12
73 11 18 13 18 25 3 7 -9 13 -24 13 -33z m198 -8 c-3 -34 -5 -36 -42 -39 -22
-2 -45 -11 -53 -20 -18 -24 -16 -1 3 26 8 12 22 22 30 22 8 0 14 7 14 15 0 8
5 24 12 35 18 29 40 5 36 -39z m-386 -48 c10 -27 28 -59 40 -73 51 -56 78 -92
78 -106 0 -22 -39 2 -50 31 -5 13 -18 26 -29 30 -15 4 -21 15 -21 35 0 18 -8
34 -20 43 -21 15 -40 87 -24 87 5 0 17 -21 26 -47z m110 22 c3 -14 1 -28 -3
-31 -5 -3 -9 9 -9 25 0 38 6 40 12 6z m318 -6 c0 -16 -4 -28 -9 -25 -8 5 -3
56 5 56 2 0 4 -14 4 -31z m130 8 c0 -13 -11 -38 -25 -57 -14 -19 -25 -44 -25
-57 0 -14 -6 -23 -15 -23 -8 0 -21 -13 -30 -30 -8 -16 -24 -34 -35 -40 -35
-19 -23 11 33 80 29 36 59 85 66 108 15 46 31 56 31 19z m-414 -105 c16 -40 0
-42 -21 -2 -18 35 -19 43 -4 38 6 -2 17 -18 25 -36z m274 31 c0 -11 -39 -73
-45 -73 -3 0 2 16 10 36 8 20 15 38 15 40 0 2 5 4 10 4 6 0 10 -3 10 -7z m-70
-34 c-7 -11 -14 -19 -16 -16 -7 7 7 37 17 37 6 0 5 -9 -1 -21z m186 -127 c-12
-12 -18 8 -10 35 l8 28 4 -28 c2 -16 1 -31 -2 -35z m-529 16 c-3 -7 -5 -2 -5
12 0 14 2 19 5 13 2 -7 2 -19 0 -25z m203 -4 c0 -8 -4 -12 -10 -9 -5 3 -10 13
-10 21 0 8 5 12 10 9 6 -3 10 -13 10 -21z m127 1 c-4 -8 -11 -15 -17 -15 -7 0
-7 6 0 21 13 23 26 19 17 -6z m-244 -97 c-4 -33 0 -49 14 -67 30 -37 46 -19
38 40 l-7 49 34 -1 c18 -1 26 -3 17 -6 -18 -4 -30 -45 -20 -61 3 -5 15 -11 26
-13 13 -3 21 -13 23 -30 3 -24 1 -25 -40 -23 -24 2 -50 3 -59 3 -25 1 -50 73
-43 121 9 53 23 42 17 -12z m365 3 c2 -22 -4 -56 -12 -75 -14 -34 -18 -36 -60
-36 -24 0 -51 -3 -60 -6 -12 -5 -16 1 -16 24 0 24 5 31 23 34 29 4 38 64 10
71 -10 3 -3 5 16 6 l34 1 -7 -49 c-7 -57 5 -72 35 -45 14 13 19 30 19 71 0 62
15 65 18 4z m212 -75 c0 -7 -7 -19 -15 -26 -16 -13 -20 -3 -9 24 8 20 24 21
24 2z m-180 -21 c0 -8 -4 -15 -10 -15 -5 0 -7 7 -4 15 4 8 8 15 10 15 2 0 4
-7 4 -15z m-570 -62 c0 -7 -4 -13 -9 -13 -10 0 -21 24 -21 48 0 13 3 12 15 -4
8 -10 15 -25 15 -31z m835 -65 l26 -53 -41 43 c-23 23 -38 47 -35 52 12 20 25
9 50 -42z m-811 1 c3 -17 6 -60 6 -95 0 -34 4 -73 9 -86 8 -21 -6 -44 -106
-178 -63 -85 -123 -168 -134 -185 -40 -63 -16 1 57 153 134 277 147 309 142
363 -3 27 -3 51 0 54 12 11 20 3 26 -26z m671 20 c4 -5 10 -31 13 -57 6 -43
10 -49 49 -66 23 -11 44 -27 46 -35 36 -124 117 -424 115 -427 -2 -2 -59 108
-126 244 -115 233 -140 299 -125 340 6 15 20 16 28 1z m-775 -18 c0 -5 -16
-21 -35 -35 -41 -32 -46 -20 -9 23 23 28 44 33 44 12z m444 -125 c-6 -27 -20
-34 -26 -14 -4 11 23 48 30 43 2 -2 0 -14 -4 -29z m-295 -28 c0 -27 -2 -29 -8
-13 -5 11 -6 26 -4 33 8 21 13 13 12 -20z m103 -10 c3 -25 -3 -62 -12 -88 -40
-108 -114 -280 -118 -275 -3 2 5 42 18 87 46 170 81 293 85 306 9 26 23 10 27
-30z m218 -212 c-6 -55 -17 -153 -25 -216 l-13 -115 0 265 -1 265 25 -49 c25
-48 25 -50 14 -150z m50 98 c0 -14 -18 -119 -30 -169 -5 -22 -12 -62 -15 -88
-4 -27 -9 -47 -11 -44 -3 3 2 72 12 155 15 139 15 152 0 182 -9 18 -16 36 -16
39 0 10 59 -64 60 -75z"/>
<path d="M1071 2874 c0 -11 3 -14 6 -6 3 7 2 16 -1 19 -3 4 -6 -2 -5 -13z"/>
<path d="M961 2820 c0 -8 9 -69 19 -135 19 -112 20 -115 14 -40 -4 70 -32 215
-33 175z"/>
<path d="M1082 2795 c0 -16 2 -22 5 -12 2 9 2 23 0 30 -3 6 -5 -1 -5 -18z"/>
<path d="M1542 2790 c0 -14 4 -38 8 -55 7 -27 8 -27 8 -5 0 14 -4 39 -8 55 -7
27 -8 27 -8 5z"/>
<path d="M1412 2755 c0 -16 2 -22 5 -12 2 9 2 23 0 30 -3 6 -5 -1 -5 -18z"/>
<path d="M1093 2680 c0 -25 2 -35 4 -22 2 12 2 32 0 45 -2 12 -4 2 -4 -23z"/>
<path d="M1423 2630 c0 -30 2 -43 4 -27 2 15 2 39 0 55 -2 15 -4 2 -4 -28z"/>
<path d="M1103 2570 c0 -30 2 -43 4 -27 2 15 2 39 0 55 -2 15 -4 2 -4 -28z"/>
<path d="M1433 2480 c0 -36 2 -50 4 -32 2 17 2 47 0 65 -2 17 -4 3 -4 -33z"/>
<path d="M1114 2330 c0 -74 1 -105 3 -67 2 37 2 97 0 135 -2 37 -3 6 -3 -68z"/>
</g>
</svg>
