<?xml version="1.0" standalone="no"?>
<!DOCTYPE svg PUBLIC "-//W3C//DTD SVG 20010904//EN"
 "http://www.w3.org/TR/2001/REC-SVG-20010904/DTD/svg10.dtd">
<svg version="1.0" xmlns="http://www.w3.org/2000/svg"
 width="244.000000pt" height="305.000000pt" viewBox="0 0 244.000000 305.000000"
 preserveAspectRatio="xMidYMid meet">
<metadata>
Created by potrace 1.16, written by Peter Selinger 2001-2019
</metadata>
<g transform="translate(0.000000,305.000000) scale(0.100000,-0.100000)"
fill="#000000" stroke="none">
<path d="M936 2901 c-10 -15 -54 -274 -66 -386 -6 -60 -14 -217 -18 -348 -7
-232 -6 -239 13 -249 11 -6 32 -22 47 -36 l28 -26 23 22 c28 27 60 29 55 5 -2
-11 -15 -20 -32 -23 -22 -4 -32 -13 -40 -37 l-11 -32 -33 40 c-38 45 -66 50
-106 18 -17 -14 -26 -30 -26 -50 0 -27 3 -29 39 -29 32 0 44 -6 70 -35 36 -41
37 -48 15 -69 -11 -12 -15 -31 -13 -69 1 -28 -2 -63 -8 -77 -6 -14 -14 -33
-17 -43 -3 -10 -19 -23 -35 -28 -38 -14 -54 -58 -41 -114 5 -22 10 -46 10 -52
0 -23 -19 -14 -35 17 -22 42 -19 118 5 155 11 17 20 38 20 47 0 38 -93 53
-123 20 -21 -23 -21 -51 -2 -122 8 -30 15 -79 15 -108 0 -44 -4 -57 -29 -83
-25 -26 -28 -35 -20 -56 5 -14 7 -28 5 -31 -9 -8 -319 -132 -323 -128 -4 4
248 187 310 225 35 21 38 26 33 55 -3 17 -11 68 -18 114 -17 111 -33 106 -25
-9 l7 -91 -28 6 c-25 6 -42 -9 -201 -169 -96 -96 -172 -177 -169 -180 3 -3 52
12 109 34 57 21 155 58 217 81 99 38 112 45 112 66 0 17 6 24 18 24 10 0 21
-3 24 -6 4 -3 -17 -44 -44 -90 -28 -46 -49 -87 -46 -89 3 -3 40 15 84 40 96
55 114 61 125 44 19 -31 10 -60 -24 -74 -33 -13 -35 -18 -72 -152 -21 -76 -56
-200 -77 -277 -21 -76 -38 -142 -36 -148 2 -5 24 16 48 47 156 198 183 233
204 257 13 15 25 25 28 23 2 -2 -6 -55 -18 -117 -30 -155 -35 -193 -25 -182 5
5 55 99 112 208 96 187 102 202 100 254 l-2 55 33 -7 c43 -8 97 -61 83 -80
-52 -71 -51 -52 -21 -224 32 -182 74 -411 84 -462 9 -39 17 0 89 407 l37 211
-28 37 c-25 32 -27 40 -16 59 21 39 99 73 113 49 3 -5 2 -26 -2 -48 -7 -37 1
-56 107 -268 62 -126 115 -227 117 -225 2 2 -9 77 -26 167 -16 91 -28 165 -27
167 5 4 45 -31 49 -43 7 -20 211 -274 216 -269 3 2 -10 58 -27 123 -123 448
-121 443 -143 443 -7 0 -21 6 -31 13 -15 11 -16 17 -5 40 7 15 17 27 22 27 11
0 150 -75 190 -103 16 -10 30 -17 33 -14 3 2 -22 47 -56 98 -33 51 -60 100
-60 107 0 22 24 8 30 -17 5 -24 46 -42 280 -129 153 -56 155 -55 75 29 -236
249 -259 270 -287 263 l-28 -6 6 94 c5 62 3 90 -4 83 -5 -5 -13 -54 -16 -108
l-7 -97 40 6 40 6 99 -103 c55 -57 112 -120 128 -138 l29 -35 -32 19 c-17 10
-96 62 -175 114 -130 87 -144 100 -158 138 -12 36 -12 51 -1 100 24 102 25
132 6 153 -23 25 -75 26 -106 1 l-23 -18 27 -46 c30 -51 34 -91 13 -142 -24
-57 -37 -43 -30 30 6 60 5 68 -16 90 -13 14 -29 25 -37 25 -8 0 -13 11 -13 28
0 16 -8 36 -19 46 -14 13 -17 26 -13 64 3 36 0 51 -12 61 -23 19 -20 36 16 76
26 31 36 36 67 33 30 -2 36 0 39 18 2 11 -7 32 -18 47 -30 38 -74 36 -117 -5
l-33 -32 0 32 c0 27 8 38 46 65 l47 32 -6 235 c-4 129 -11 273 -17 320 -18
145 -42 301 -47 297 -2 -3 5 -72 16 -153 22 -161 41 -422 41 -574 l0 -95 -34
-27 c-19 -16 -38 -28 -41 -28 -3 0 -5 223 -5 496 1 273 -1 498 -3 500 -6 6
-47 -212 -47 -248 0 -16 -4 -28 -9 -28 -5 0 -14 53 -21 117 -7 64 -16 127 -19
140 -3 12 -5 -200 -3 -472 3 -457 -1 -534 -22 -479 -3 9 -6 30 -7 47 -1 49
-26 154 -33 137 -3 -8 -9 -37 -14 -65 l-9 -50 -8 55 c-5 30 -10 49 -12 43 -13
-37 -21 0 -26 120 -6 121 -36 324 -56 372 l-8 20 -6 -20 c-21 -69 -48 -256
-53 -359 -6 -138 -10 -158 -24 -136 -7 11 -10 7 -10 -15 0 -16 -4 -36 -9 -44
-14 -22 -29 107 -36 309 -5 170 -26 419 -43 521 -4 22 -6 -185 -4 -461 2 -326
0 -500 -6 -496 -6 4 -11 74 -11 169 -1 203 -17 443 -37 567 -16 95 -32 145
-20 60 16 -119 27 -270 22 -315 -3 -31 -2 -42 3 -30 6 13 11 -19 15 -95 9
-137 4 -311 -7 -309 -5 0 -22 -12 -38 -27 l-30 -29 3 508 c2 279 2 507 1 507
-1 0 -4 -4 -7 -9z m356 -859 c1 -89 -2 -165 -5 -169 -4 -3 -7 72 -7 167 0 95
2 171 5 168 3 -3 6 -78 7 -166z m197 -156 c9 -11 6 -15 -15 -20 -31 -8 -39 -3
-31 19 8 19 31 20 46 1z m-399 -16 c0 -5 -7 -10 -15 -10 -8 0 -15 5 -15 10 0
6 7 10 15 10 8 0 15 -4 15 -10z m320 0 c0 -5 -4 -10 -10 -10 -5 0 -10 5 -10
10 0 6 5 10 10 10 6 0 10 -4 10 -10z m-290 -131 c-6 -10 -15 -19 -20 -19 -15
0 -12 38 3 43 20 7 28 -3 17 -24z m270 -3 c0 -25 -27 -25 -38 -1 -6 13 -8 26
-5 29 9 9 43 -13 43 -28z m-372 -25 c13 -38 2 -57 -27 -42 -24 13 -26 23 -11
52 15 27 26 24 38 -10z m472 3 c11 -29 -1 -54 -26 -54 -14 0 -19 36 -8 64 9
24 23 19 34 -10z m-190 -56 c0 -32 -16 -19 -18 15 -2 24 0 28 8 17 5 -8 10
-23 10 -32z m-156 -4 c9 -3 16 -14 16 -24 0 -10 9 -20 20 -23 11 -3 27 -21 35
-41 9 -20 17 -36 20 -36 2 0 12 16 21 36 10 20 26 39 36 42 10 2 18 10 18 17
0 21 28 37 50 30 17 -5 20 -13 18 -38 -3 -30 -6 -32 -48 -35 -56 -4 -64 -11
-81 -70 l-13 -47 -13 44 c-18 62 -28 71 -84 71 l-49 0 0 34 c0 40 19 53 54 40z
m-184 -68 c6 -19 23 -52 38 -73 69 -96 87 -144 36 -94 -49 48 -86 111 -99 169
-9 43 10 42 25 -2z m109 -36 c23 -65 23 -76 1 -43 -12 18 -24 52 -26 75 -5 45
1 38 25 -32z m357 17 c-4 -18 -15 -43 -26 -57 l-20 -25 9 26 c5 15 15 46 22
70 13 48 25 37 15 -14z m108 15 c-16 -67 -103 -196 -121 -178 -3 3 9 29 27 58
38 60 67 115 74 141 9 29 27 9 20 -21z m-364 -118 c0 -8 -2 -14 -5 -14 -8 0
-45 63 -45 75 1 16 50 -44 50 -61z m164 28 c-19 -39 -34 -49 -34 -24 0 18 38
67 46 59 2 -2 -3 -18 -12 -35z m-394 -102 c0 -33 -4 -60 -10 -60 -11 0 -14
103 -3 113 12 12 13 8 13 -53z m620 -4 c0 -17 -3 -42 -7 -54 -10 -39 -23 -4
-23 63 1 55 2 58 15 41 8 -11 15 -34 15 -50z m-381 -22 c3 -16 1 -17 -13 -5
-19 16 -21 34 -3 29 6 -3 14 -13 16 -24z m135 20 c15 -6 15 -8 -1 -19 -21 -16
-34 -10 -26 10 6 17 6 17 27 9z m-281 -89 c-7 -46 3 -82 28 -96 30 -16 39 3
32 65 -6 44 -4 49 11 43 10 -4 27 -7 38 -7 18 0 18 -1 3 -16 -22 -22 -15 -46
18 -62 34 -17 36 -59 2 -54 -11 2 -37 3 -58 2 -63 -2 -73 6 -87 64 -13 54 -7
112 10 101 5 -3 6 -21 3 -40z m419 -30 c-1 -38 -7 -74 -13 -81 -5 -7 -33 -12
-61 -12 -28 -1 -56 -6 -61 -11 -7 -7 -15 -7 -24 0 -21 18 -15 49 11 59 13 5
27 14 31 19 10 17 -5 51 -23 52 -9 1 1 5 23 8 48 7 54 1 45 -47 -11 -62 9 -82
44 -43 19 21 23 62 11 105 -6 22 -5 28 6 24 11 -4 13 -22 11 -73z m-622 -55
c0 -11 -6 -9 -21 7 -15 14 -19 27 -15 40 7 16 9 16 21 -7 8 -14 14 -32 15 -40z
m664 -34 c-3 -9 -10 -16 -15 -16 -6 0 -5 9 1 21 13 24 24 20 14 -5z m-500 -1
c3 -8 1 -15 -4 -15 -6 0 -10 7 -10 15 0 8 2 15 4 15 2 0 6 -7 10 -15z m611
-106 c0 -73 2 -83 24 -100 13 -10 31 -19 42 -19 10 0 20 -4 23 -9 6 -9 105
-353 120 -414 3 -15 4 -27 1 -27 -2 0 -49 89 -104 198 -54 108 -110 219 -125
246 -32 60 -35 127 -6 174 11 17 21 32 22 32 2 0 3 -36 3 -81z m-883 16 c-30
-37 -91 -88 -77 -65 62 103 77 121 91 110 11 -10 9 -17 -14 -45z m186 -45 c13
-76 0 -210 -23 -246 -10 -16 -65 -91 -122 -166 -96 -127 -128 -164 -104 -120
5 9 56 112 112 227 l104 210 -2 100 c-1 88 0 97 12 75 7 -14 17 -50 23 -80z
m877 20 c32 -33 57 -62 54 -65 -5 -4 -81 40 -137 80 -18 13 -21 20 -11 31 19
23 32 17 94 -46z m-550 -120 c3 0 12 15 20 33 9 19 14 25 15 14 0 -18 -27 -77
-35 -77 -8 0 -35 59 -35 77 1 11 6 5 15 -14 8 -18 17 -33 20 -33z m-235 -11
c0 -19 -132 -410 -137 -406 -2 3 6 56 18 119 15 80 30 126 50 158 25 41 27 50
18 83 -5 21 -7 42 -4 47 8 14 55 13 55 -1z m495 -64 c79 -245 114 -359 111
-363 -3 -2 -41 72 -86 165 -81 165 -91 201 -74 255 10 33 26 15 49 -57z m-180
-180 c-10 -58 -20 -103 -23 -100 -3 3 0 49 7 104 10 77 10 104 1 122 l-12 24
23 -22 22 -22 -18 -106z"/>
<path d="M962 2780 c0 -14 2 -19 5 -12 2 6 2 18 0 25 -3 6 -5 1 -5 -13z"/>
<path d="M1021 2724 c0 -11 3 -14 6 -6 3 7 2 16 -1 19 -3 4 -6 -2 -5 -13z"/>
<path d="M1012 2640 c0 -14 2 -19 5 -12 2 6 2 18 0 25 -3 6 -5 1 -5 -13z"/>
<path d="M1392 2640 c0 -14 2 -19 5 -12 2 6 2 18 0 25 -3 6 -5 1 -5 -13z"/>
<path d="M1381 2504 c0 -11 3 -14 6 -6 3 7 2 16 -1 19 -3 4 -6 -2 -5 -13z"/>
<path d="M1374 2225 c0 -49 1 -71 3 -48 2 23 2 64 0 90 -2 26 -3 8 -3 -42z"/>
<path d="M993 2225 c0 -44 2 -61 4 -37 2 23 2 59 0 80 -2 20 -4 1 -4 -43z"/>
</g>
</svg>
