<?xml version="1.0" standalone="no"?>
<!DOCTYPE svg PUBLIC "-//W3C//DTD SVG 20010904//EN"
 "http://www.w3.org/TR/2001/REC-SVG-20010904/DTD/svg10.dtd">
<svg version="1.0" xmlns="http://www.w3.org/2000/svg"
 width="244.000000pt" height="305.000000pt" viewBox="0 0 244.000000 305.000000"
 preserveAspectRatio="xMidYMid meet">
<metadata>
Created by potrace 1.16, written by Peter Selinger 2001-2019
</metadata>
<g transform="translate(0.000000,305.000000) scale(0.100000,-0.100000)"
fill="#000000" stroke="none">
<path d="M891 2877 c-7 -21 -10 -43 -8 -50 3 -6 6 -1 6 12 1 13 3 22 6 19 9
-9 14 -933 5 -947 -6 -11 -18 -6 -50 20 l-43 34 6 113 c4 71 3 111 -3 107 -13
-8 -13 -265 -1 -265 5 0 30 -15 55 -34 40 -31 46 -33 58 -19 7 9 30 27 52 40
l39 25 -7 186 c-4 103 -11 241 -17 307 -10 127 -52 383 -74 449 l-12 39 -12
-36z"/>
<path d="M1554 2886 c-4 -10 -2 -27 5 -37 14 -23 16 -949 1 -949 -5 0 -24 10
-44 23 l-35 22 -1 170 c0 195 12 346 41 527 11 70 19 133 17 140 -6 17 -47
-222 -58 -339 -5 -55 -12 -194 -15 -309 l-5 -209 52 -34 c33 -21 56 -30 63
-25 7 5 31 21 54 37 48 32 46 9 31 310 -13 273 -54 577 -89 669 -8 21 -10 22
-17 4z"/>
<path d="M1171 2815 c-2 -22 -4 -161 -4 -310 0 -170 -2 -240 -6 -190 -5 54 -8
-7 -9 -187 -1 -159 -6 -268 -11 -268 -6 0 -13 21 -16 48 -4 26 -14 83 -24 127
-17 77 -19 79 -30 51 -6 -15 -14 -67 -18 -115 l-6 -86 28 -15 c44 -23 60 -96
31 -136 -13 -16 -18 -17 -35 -6 -30 18 -41 15 -41 -11 0 -28 26 -67 46 -67 8
0 25 11 38 25 32 35 40 31 32 -14 -3 -23 -2 -42 4 -46 24 -15 9 -34 -26 -33
-23 1 -42 -5 -56 -19 l-20 -21 31 -7 c27 -6 31 -11 31 -41 0 -19 -4 -34 -8
-34 -10 0 -83 76 -106 110 -9 13 -16 37 -16 52 0 16 -9 36 -20 45 -27 24 -25
39 10 75 26 25 36 29 73 26 41 -3 42 -2 40 26 -4 59 -60 88 -119 60 -25 -12
-37 -25 -41 -46 -8 -40 -20 -43 -37 -11 -30 60 -86 84 -135 59 -30 -16 -41
-34 -41 -67 0 -16 7 -19 44 -19 33 0 52 -7 74 -25 39 -32 45 -59 20 -87 -16
-18 -18 -31 -13 -63 8 -52 39 -116 81 -166 l34 -41 -35 -44 c-51 -62 -55 -94
-15 -127 17 -15 42 -27 55 -27 28 0 48 29 34 51 -11 18 -12 86 0 93 5 3 28 -1
53 -9 36 -13 47 -22 57 -51 13 -35 7 -89 -10 -99 -5 -4 -9 -2 -9 4 0 10 -63
-8 -107 -31 -53 -27 -127 52 -129 136 -2 68 -14 138 -27 154 -15 19 -62 14
-82 -8 -13 -15 -17 -31 -13 -68 4 -38 20 -74 74 -162 63 -103 68 -117 68 -165
-1 -55 -7 -66 -159 -325 -18 -30 -54 -95 -80 -143 -26 -48 -49 -86 -52 -83 -5
5 126 426 138 442 5 6 27 16 49 23 47 14 61 39 62 111 1 52 -18 96 -74 162
-21 26 -45 63 -53 82 -21 50 -19 116 5 146 41 53 17 90 -58 90 -69 0 -86 -40
-56 -135 21 -67 19 -130 -6 -165 -18 -25 -331 -217 -385 -236 -11 -4 16 26 60
67 44 41 109 102 145 137 l65 63 48 -6 49 -6 -8 93 c-8 112 -22 157 -25 83 -1
-27 -1 -52 -1 -55 -1 -3 2 -24 6 -48 l6 -43 -35 7 c-34 6 -39 2 -138 -89 -56
-52 -142 -133 -192 -180 l-90 -86 45 13 c90 26 409 135 429 146 12 6 21 19 21
30 0 27 13 31 51 18 56 -19 107 -58 124 -94 22 -47 16 -66 -22 -76 -18 -5 -34
-12 -37 -16 -10 -16 -177 -565 -173 -569 3 -2 69 69 148 159 79 90 151 170
159 178 8 8 32 37 54 63 37 45 38 48 28 89 -6 23 -9 45 -6 50 3 4 42 8 88 8
70 0 88 -4 117 -23 25 -17 34 -30 34 -50 0 -15 -3 -26 -8 -24 -19 6 -34 -51
-26 -103 5 -29 6 -57 3 -61 -3 -5 -2 -37 2 -71 7 -51 9 -57 14 -33 5 29 6 29
17 -15 7 -25 26 -119 43 -210 36 -189 41 -212 45 -208 2 2 19 86 39 188 45
231 81 365 71 263 -4 -34 -2 -53 5 -53 9 0 11 47 11 235 0 11 -5 44 -12 74
-12 52 -11 55 10 73 19 14 41 18 113 18 l90 0 -6 -53 -7 -52 98 -111 c192
-218 287 -323 290 -320 5 4 -156 534 -169 559 -5 9 -16 17 -24 17 -8 0 -24 5
-35 10 -18 10 -18 13 -4 48 22 51 52 81 104 104 51 22 68 19 73 -14 3 -21 27
-31 237 -101 129 -42 236 -75 238 -74 2 2 -78 80 -178 173 -163 152 -185 169
-217 169 l-35 0 1 95 c0 94 0 95 -9 35 -5 -33 -17 -84 -25 -114 -9 -29 -12
-57 -7 -62 12 -12 348 -225 369 -234 11 -4 14 -9 8 -12 -10 -3 -238 74 -331
112 -31 13 -31 15 -20 46 9 23 9 33 1 36 -56 19 -69 99 -34 213 22 72 22 72 3
99 -23 30 -70 39 -114 21 -36 -15 -37 -36 -4 -80 44 -60 30 -126 -49 -228 -61
-80 -78 -117 -84 -188 -5 -69 -1 -78 180 -402 37 -67 68 -126 68 -130 -1 -9
-55 52 -191 216 l-111 133 10 42 c6 23 8 54 5 68 -11 55 15 135 76 239 71 119
88 169 71 211 -9 21 -21 30 -45 35 -19 3 -38 3 -43 0 -11 -7 -24 -80 -26 -151
-2 -54 -7 -65 -49 -115 -31 -37 -60 -41 -117 -19 -54 22 -58 26 -65 79 -4 28
-12 50 -18 50 -7 0 -7 3 -1 9 13 14 96 41 106 35 11 -7 10 -51 -1 -91 -12 -40
6 -58 46 -48 72 18 84 77 28 142 -19 23 -35 44 -35 47 0 3 16 27 36 53 20 27
45 67 55 91 23 54 25 127 4 136 -25 9 -17 36 20 73 32 32 40 35 76 30 49 -6
58 7 34 53 -39 75 -131 54 -171 -38 -11 -25 -12 -26 -19 -7 -16 47 -31 68 -57
81 -38 20 -52 18 -88 -12 -23 -20 -30 -34 -28 -53 3 -24 6 -26 43 -23 70 6
127 -60 84 -96 -10 -9 -19 -27 -19 -40 0 -13 -7 -37 -16 -54 -18 -35 -92 -118
-105 -118 -5 0 -9 16 -9 35 0 32 3 36 30 42 29 5 30 7 15 23 -20 22 -57 30
-79 18 -14 -8 -15 -1 -9 54 3 35 7 65 9 67 2 2 14 -9 27 -24 17 -20 29 -26 44
-21 20 6 43 44 43 71 0 18 -2 18 -34 4 -37 -17 -56 3 -56 58 0 35 6 49 26 68
15 14 31 25 37 25 13 0 2 167 -14 206 -10 27 -12 28 -20 9 -4 -11 -15 -63 -24
-115 -8 -52 -19 -98 -23 -102 -5 -5 -12 197 -16 449 -3 251 -10 461 -14 465
-4 4 -7 -100 -6 -230 0 -130 -1 -211 -3 -179 -2 31 -8 57 -12 57 -4 0 -16 36
-26 80 -10 44 -20 78 -23 75 -3 -2 -13 -37 -23 -77 -20 -83 -19 -88 -28 157
-4 99 -9 162 -10 140z m58 -728 c1 -244 -1 -451 -5 -460 -9 -25 -32 -3 -40 39
-7 41 3 104 17 104 6 0 8 -24 5 -62 -5 -54 -4 -58 5 -28 7 24 7 101 1 230 -8
183 -9 187 -10 73 -1 -74 -6 -123 -12 -123 -5 0 -11 -15 -11 -32 l-2 -33 -6
35 c-4 20 -2 38 4 42 6 4 12 108 16 265 4 142 9 272 12 288 4 17 9 47 12 68 3
20 7 37 9 37 1 0 3 -199 5 -443z m-22 -259 c-3 -7 -5 -2 -5 12 0 14 2 19 5 13
2 -7 2 -19 0 -25z m-254 -288 c18 -30 57 -74 87 -99 30 -24 56 -50 58 -58 6
-25 -28 -13 -80 30 -62 50 -118 138 -117 182 0 34 -1 35 52 -55z m617 58 c0
-64 -92 -182 -172 -221 -41 -20 -52 -2 -17 25 62 49 132 126 152 170 24 51 37
61 37 26z m-373 -35 c-3 -10 -5 -4 -5 12 0 17 2 24 5 18 2 -7 2 -21 0 -30z
m80 -5 c-3 -7 -5 -2 -5 12 0 14 2 19 5 13 2 -7 2 -19 0 -25z m-40 -75 c-3 -10
-5 -4 -5 12 0 17 2 24 5 18 2 -7 2 -21 0 -30z m-77 11 c0 -3 5 -35 10 -72 6
-42 7 -78 1 -97 -8 -24 -9 -15 -10 49 -1 68 -3 77 -17 72 -12 -5 -15 -2 -10
10 3 8 6 22 6 30 0 8 5 14 10 14 6 0 10 -3 10 -6z m179 -36 c1 -5 -6 -8 -14
-8 -12 0 -15 -16 -16 -77 -1 -63 -2 -72 -10 -48 -8 29 4 146 18 169 6 8 20
-15 22 -36z m-202 -100 c-3 -8 -6 -5 -6 6 -1 11 2 17 5 13 3 -3 4 -12 1 -19z
m241 -183 c0 -16 -2 -15 -8 5 -4 14 -8 34 -8 45 0 16 2 15 8 -5 4 -14 8 -34 8
-45z m-77 8 c-8 -15 -10 -15 -11 -2 0 17 10 32 18 25 2 -3 -1 -13 -7 -23z
m-124 -5 c-3 -8 -6 -5 -6 6 -1 11 2 17 5 13 3 -3 4 -12 1 -19z m200 -60 c-3
-8 -6 -5 -6 6 -1 11 2 17 5 13 3 -3 4 -12 1 -19z m-249 -30 c14 -14 16 -28 2
-28 -5 0 -14 9 -20 20 -12 22 -1 27 18 8z m233 -11 c-13 -13 -26 -3 -16 12 3
6 11 8 17 5 6 -4 6 -10 -1 -17z m-124 -159 c-3 -8 -6 -5 -6 6 -1 11 2 17 5 13
3 -3 4 -12 1 -19z m-12 -57 c3 -10 4 -141 3 -290 l-3 -270 -18 87 c-10 48 -27
129 -39 181 -21 91 -21 97 -6 187 19 108 47 155 63 105z m92 -13 c-3 -7 -5 -2
-5 12 0 14 2 19 5 13 2 -7 2 -19 0 -25z m-180 -85 c-3 -10 -5 -4 -5 12 0 17 2
24 5 18 2 -7 2 -21 0 -30z m-10 -115 c-3 -8 -6 -5 -6 6 -1 11 2 17 5 13 3 -3
4 -12 1 -19z"/>
<path d="M1211 804 c0 -11 3 -14 6 -6 3 7 2 16 -1 19 -3 4 -6 -2 -5 -13z"/>
<path d="M1213 700 c0 -25 2 -35 4 -22 2 12 2 32 0 45 -2 12 -4 2 -4 -23z"/>
<path d="M872 2780 c0 -14 2 -19 5 -12 2 6 2 18 0 25 -3 6 -5 1 -5 -13z"/>
<path d="M861 2749 c-18 -82 -42 -297 -46 -404 -4 -131 -3 -134 5 -45 17 181
31 305 42 355 5 28 8 61 5 75 -2 14 -5 22 -6 19z"/>
<path d="M1281 2564 c0 -11 3 -14 6 -6 3 7 2 16 -1 19 -3 4 -6 -2 -5 -13z"/>
<path d="M1283 2500 c0 -25 2 -35 4 -22 2 12 2 32 0 45 -2 12 -4 2 -4 -23z"/>
<path d="M1105 495 c-4 -25 -5 -48 -2 -51 2 -3 8 16 12 41 3 26 4 49 2 52 -3
3 -9 -16 -12 -42z"/>
<path d="M1356 513 c-3 -10 -1 -34 3 -53 9 -34 9 -33 10 18 1 53 -4 66 -13 35z"/>
</g>
</svg>
