<?xml version="1.0" standalone="no"?>
<!DOCTYPE svg PUBLIC "-//W3C//DTD SVG 20010904//EN"
 "http://www.w3.org/TR/2001/REC-SVG-20010904/DTD/svg10.dtd">
<svg version="1.0" xmlns="http://www.w3.org/2000/svg"
 width="244.000000pt" height="305.000000pt" viewBox="0 0 244.000000 305.000000"
 preserveAspectRatio="xMidYMid meet">
<metadata>
Created by potrace 1.16, written by Peter Selinger 2001-2019
</metadata>
<g transform="translate(0.000000,305.000000) scale(0.100000,-0.100000)"
fill="#000000" stroke="none">
<path d="M911 2884 c-45 -173 -79 -457 -87 -745 l-7 -215 31 -13 c17 -7 38
-21 48 -32 22 -25 30 -24 59 5 13 14 34 27 45 31 18 6 20 15 20 98 0 240 -23
512 -66 777 -9 55 -18 51 -10 -5 39 -287 49 -391 55 -590 4 -126 5 -236 3
-242 -2 -7 -10 -13 -17 -13 -6 0 -20 -9 -30 -20 -10 -11 -22 -20 -27 -20 -4 0
-8 219 -7 488 0 299 4 479 9 467 7 -14 8 -8 3 20 -8 53 -10 54 -22 9z"/>
<path d="M1527 2823 c-45 -216 -63 -383 -73 -698 l-6 -200 38 -25 c20 -14 43
-29 50 -35 9 -6 27 1 61 25 26 18 49 34 51 35 1 1 -2 118 -8 261 -9 238 -48
597 -67 614 -3 3 -3 -17 1 -45 31 -231 38 -296 46 -424 5 -80 10 -198 10 -261
l0 -115 -36 -28 c-19 -16 -37 -27 -39 -25 -5 5 -6 161 -5 593 1 230 5 353 11
340 7 -15 7 -11 3 15 -11 61 -20 53 -37 -27z"/>
<path d="M1081 2860 c0 -8 -3 -206 -5 -440 -2 -234 -7 -437 -11 -452 -9 -34
-22 -36 -28 -5 -3 18 -5 17 -6 -7 -1 -33 34 -96 55 -96 8 0 14 -7 14 -15 0
-21 -10 -19 -37 7 -20 18 -28 20 -61 12 -30 -7 -41 -17 -57 -51 -23 -49 -32
-53 -41 -18 -8 32 -59 75 -88 75 -13 0 -35 -10 -50 -21 -21 -16 -26 -28 -24
-53 3 -29 5 -31 41 -28 30 3 42 -2 67 -26 33 -33 40 -76 14 -86 -23 -9 -12
-84 21 -151 34 -70 37 -177 7 -206 -23 -20 -29 -39 -13 -39 11 0 36 -59 27
-67 -15 -16 -54 76 -41 97 4 7 -1 46 -21 138 -3 16 -11 22 -32 22 -35 0 -48
-9 -61 -43 -14 -37 -7 -67 37 -149 20 -37 33 -71 29 -75 -4 -4 -14 2 -21 13
-8 10 -28 36 -44 57 -18 22 -36 61 -43 92 -11 51 -10 56 15 98 14 25 26 52 26
61 0 37 -104 51 -133 18 -22 -24 -21 -56 4 -138 27 -88 21 -140 -19 -174 -23
-19 -28 -30 -21 -45 13 -33 10 -40 -20 -53 -61 -27 -315 -121 -318 -118 -2 2
80 59 182 127 182 121 186 125 181 154 -3 17 -11 67 -18 113 -16 112 -33 107
-25 -8 l7 -91 -33 6 c-30 5 -41 -4 -217 -175 -101 -99 -179 -180 -173 -180 6
0 30 7 54 16 24 9 114 41 199 71 85 30 167 59 183 65 19 7 27 17 27 33 0 13 5
27 11 30 13 8 110 -38 133 -64 17 -18 16 -22 -8 -73 -24 -51 -186 -591 -186
-619 1 -14 14 -1 90 91 21 25 65 77 97 115 33 39 90 107 127 153 65 81 66 84
56 120 -15 56 -13 62 20 62 26 0 30 -4 31 -27 l1 -28 7 25 c5 17 15 26 33 28
30 4 31 15 -10 -138 -67 -254 -70 -265 -72 -235 -2 27 -3 26 -10 -10 -14 -76
-20 -140 -11 -125 5 8 46 107 91 219 71 174 81 209 76 242 -7 44 1 48 40 23
44 -29 47 -48 14 -84 -17 -18 -30 -38 -30 -45 0 -7 14 -82 30 -167 95 -485 94
-481 102 -452 8 30 78 396 104 542 l14 84 -30 34 c-29 33 -29 36 -14 60 17 26
44 44 64 44 9 0 10 -13 6 -44 -6 -40 2 -65 79 -257 80 -198 115 -272 101 -209
-4 14 -17 104 -31 200 -14 96 -29 206 -35 243 -6 38 -8 72 -5 76 6 11 55 1 55
-12 0 -5 -5 -27 -11 -48 l-12 -37 131 -154 c72 -84 156 -184 186 -222 31 -38
56 -62 56 -53 0 8 -21 86 -46 174 -25 87 -58 201 -74 253 -15 55 -23 98 -18
101 6 3 -4 34 -21 67 -17 34 -31 68 -31 77 0 20 67 63 105 67 23 2 30 -1 33
-17 2 -11 7 -24 11 -28 10 -11 441 -161 441 -153 0 1 -77 79 -171 172 -157
156 -173 169 -204 167 l-34 -2 6 92 c4 61 2 89 -4 82 -6 -5 -13 -54 -17 -108
l-6 -98 42 6 43 5 134 -130 c73 -72 131 -133 129 -135 -4 -4 -97 52 -256 152
-63 40 -108 76 -117 94 -19 35 -19 102 0 154 20 55 19 99 -3 118 -24 22 -84
22 -111 0 l-21 -18 26 -49 c36 -67 29 -129 -22 -203 -20 -30 -41 -56 -46 -59
-22 -14 -17 9 16 72 57 106 45 184 -28 184 -29 0 -29 1 -46 -87 -8 -41 -18
-63 -26 -63 -16 0 -17 2 -14 102 1 52 8 91 20 116 26 54 29 116 6 141 -23 26
-14 54 29 87 24 18 43 25 67 22 32 -3 33 -2 31 30 -1 41 -26 61 -74 62 -40 0
-70 -25 -90 -75 l-12 -30 -8 32 c-11 38 -62 83 -93 83 -13 0 -31 -9 -41 -20
-22 -24 -35 -26 -35 -5 0 8 6 15 13 15 8 0 24 20 37 45 l23 45 -11 343 c-12
332 -29 577 -41 577 -3 0 -5 -173 -3 -385 2 -255 -1 -385 -8 -385 -5 0 -13
-19 -17 -42 -6 -33 -9 -8 -13 102 l-6 145 -2 -210 c-1 -115 -7 -217 -12 -225
-7 -10 -10 10 -10 66 0 115 -18 332 -36 449 -15 96 -40 204 -47 212 -8 7 -36
-114 -51 -217 -18 -119 -35 -339 -37 -450 -2 -140 -17 -32 -18 130 -2 211 -19
560 -35 700 -7 63 -14 108 -15 100z m198 -568 c14 -121 15 -370 2 -404 -7 -15
-10 38 -10 168 -1 105 -4 227 -7 270 -9 112 1 89 15 -34z m18 -534 c-2 -18 -4
-4 -4 32 0 36 2 50 4 33 2 -18 2 -48 0 -65z m188 -13 c28 -29 32 -57 10 -75
-8 -7 -15 -23 -15 -36 0 -31 -14 -63 -42 -97 l-23 -28 3 83 c5 133 9 160 23
169 18 11 14 13 44 -16z m-441 -27 c3 -24 7 -80 9 -126 l2 -83 -27 33 c-15 18
-30 52 -34 75 -3 23 -12 48 -20 54 -20 16 -17 42 6 67 34 36 56 29 64 -20z
m127 -106 c16 -5 48 -42 49 -56 0 -6 -6 -2 -12 7 -7 9 -28 17 -47 19 -42 4
-58 38 -40 84 l12 29 12 -39 c6 -22 18 -42 26 -44z m123 56 c8 -33 7 -40 -6
-36 -14 5 -23 58 -10 58 6 0 12 -10 16 -22z m56 -2 c5 -13 5 -37 1 -53 -6 -24
-14 -29 -49 -34 -37 -5 -40 -4 -31 13 5 10 19 18 29 18 16 0 20 7 20 33 0 30
6 47 17 47 2 0 8 -11 13 -24z m-406 -82 c10 -22 13 -41 8 -46 -12 -12 -28 10
-35 50 -9 43 5 41 27 -4z m443 4 c-3 -7 -5 -2 -5 12 0 14 2 19 5 13 2 -7 2
-19 0 -25z m173 23 c0 -24 -24 -71 -36 -71 -17 0 -17 0 1 44 14 32 35 49 35
27z m-473 -23 c-3 -8 -6 -5 -6 6 -1 11 2 17 5 13 3 -3 4 -12 1 -19z m162 -67
c-1 -23 -17 -60 -18 -41 -1 8 -4 24 -7 36 -4 14 -1 21 10 21 9 0 16 -7 15 -16z
m-129 -32 c12 -23 19 -43 16 -46 -6 -7 -46 58 -46 75 0 22 9 13 30 -29z m255
14 c-3 -16 -16 -37 -27 -48 -11 -11 -19 -15 -17 -10 24 64 34 85 42 85 5 0 6
-12 2 -27z m-355 -44 c0 -24 -23 -21 -28 4 -2 10 3 17 12 17 10 0 16 -9 16
-21z m458 4 c-4 -22 -22 -20 -26 1 -2 10 3 16 13 16 10 0 15 -7 13 -17z m-48
-29 c0 -15 -36 -64 -47 -64 -20 0 -16 21 9 47 20 22 38 30 38 17z m125 -49
c-4 -25 -10 -43 -13 -41 -7 8 -4 74 4 87 12 20 15 1 9 -46z m-615 -7 c0 -16
-4 -28 -10 -28 -5 0 -10 19 -10 43 0 31 3 38 10 27 5 -8 10 -27 10 -42z m142
35 c18 -16 25 -43 11 -43 -16 1 -43 28 -43 44 0 20 9 20 32 -1z m227 -29 c-6
-16 -13 -24 -16 -17 -5 13 16 58 23 50 3 -2 -1 -17 -7 -33z m-129 -12 c0 -7
-4 -10 -10 -7 -5 3 -10 16 -10 28 0 18 2 19 10 7 5 -8 10 -21 10 -28z m-166
-107 c9 -30 19 -62 23 -72 4 -12 3 -15 -4 -8 -11 11 -43 101 -43 122 0 27 9
11 24 -42z m79 -62 c17 -17 18 -17 24 5 3 15 11 21 20 18 8 -3 21 -6 28 -6 16
0 26 -25 19 -44 -3 -8 -13 -12 -25 -9 -10 3 -26 0 -34 -7 -35 -29 -89 83 -69
142 7 19 9 13 14 -29 3 -31 13 -60 23 -70z m327 72 c0 -68 -46 -139 -75 -115
-8 6 -24 10 -37 8 -19 -2 -23 2 -23 22 0 18 7 26 25 30 34 8 42 59 11 67 -23
6 -29 23 -8 23 31 -1 41 -19 38 -69 -2 -35 1 -51 10 -51 22 0 38 35 39 83 0
30 4 46 10 42 6 -3 10 -21 10 -40z m45 -30 c-9 -36 -20 -64 -22 -61 -3 3 3 35
12 71 10 36 20 63 23 60 3 -2 -3 -34 -13 -70z m-295 55 c0 -5 -9 -10 -19 -10
-11 0 -22 -8 -24 -17 -4 -14 -5 -13 -6 4 -1 19 9 27 42 32 4 0 7 -3 7 -9z
m396 -107 c-10 -10 -19 5 -10 18 6 11 8 11 12 0 2 -7 1 -15 -2 -18z m-716 -63
c0 -13 -1 -13 -10 0 -5 8 -10 22 -10 30 0 13 1 13 10 0 5 -8 10 -22 10 -30z
m774 -33 c-3 -15 -10 -24 -15 -21 -11 6 -12 48 -2 58 13 12 24 -11 17 -37z
m-733 -133 c3 -50 8 -95 12 -101 6 -10 -37 -70 -198 -272 -79 -99 -115 -131
-77 -68 11 17 67 125 126 239 89 175 106 215 106 253 0 33 4 45 13 43 8 -3 14
-36 18 -94z m716 88 c7 -4 18 -25 25 -47 11 -32 20 -41 55 -52 l42 -14 29 -97
c79 -257 103 -344 99 -348 -2 -2 -28 42 -57 98 -29 57 -56 108 -60 113 -4 6
-42 74 -84 153 -82 154 -101 227 -49 194z m-823 -17 c-4 -8 -10 -15 -15 -15
-4 0 -6 7 -3 15 4 8 10 15 15 15 4 0 6 -7 3 -15z m927 -17 c23 -26 24 -29 2
-21 -18 7 -33 22 -33 36 0 13 12 7 31 -15z m-461 -74 c0 -14 -14 -33 -21 -28
-15 9 -10 31 6 31 8 0 15 -1 15 -3z m190 -56 c6 -29 31 -129 56 -222 24 -93
43 -171 41 -172 -9 -10 -137 341 -137 376 0 83 23 93 40 18z m-104 -117 c-2
-9 -10 -47 -17 -86 -7 -38 -21 -106 -31 -150 l-18 -80 6 90 c3 50 9 125 13
169 5 57 3 86 -6 103 -23 45 -13 49 23 9 19 -22 32 -47 30 -55z m-399 -263
c-3 -8 -6 -5 -6 6 -1 11 2 17 5 13 3 -3 4 -12 1 -19z"/>
<path d="M1372 2775 c0 -16 2 -22 5 -12 2 9 2 23 0 30 -3 6 -5 -1 -5 -18z"/>
<path d="M1362 2635 c0 -16 2 -22 5 -12 2 9 2 23 0 30 -3 6 -5 -1 -5 -18z"/>
<path d="M1052 2565 c0 -16 2 -22 5 -12 2 9 2 23 0 30 -3 6 -5 -1 -5 -18z"/>
<path d="M1353 2510 c0 -30 2 -43 4 -27 2 15 2 39 0 55 -2 15 -4 2 -4 -28z"/>
<path d="M1043 2400 c0 -36 2 -50 4 -32 2 17 2 47 0 65 -2 17 -4 3 -4 -33z"/>
<path d="M972 850 c0 -19 2 -27 5 -17 2 9 2 25 0 35 -3 9 -5 1 -5 -18z"/>
<path d="M955 745 c-4 -37 -5 -69 -2 -71 2 -3 8 25 12 61 4 37 5 69 2 71 -2 3
-8 -25 -12 -61z"/>
<path d="M942 630 c0 -19 2 -27 5 -17 2 9 2 25 0 35 -3 9 -5 1 -5 -18z"/>
</g>
</svg>
