<?xml version="1.0" standalone="no"?>
<!DOCTYPE svg PUBLIC "-//W3C//DTD SVG 20010904//EN"
 "http://www.w3.org/TR/2001/REC-SVG-20010904/DTD/svg10.dtd">
<svg version="1.0" xmlns="http://www.w3.org/2000/svg"
 width="244.000000pt" height="305.000000pt" viewBox="0 0 244.000000 305.000000"
 preserveAspectRatio="xMidYMid meet">
<metadata>
Created by potrace 1.16, written by Peter Selinger 2001-2019
</metadata>
<g transform="translate(0.000000,305.000000) scale(0.100000,-0.100000)"
fill="#000000" stroke="none">
<path d="M1501 2855 c-26 -124 -27 -127 -35 -60 -15 125 -21 89 -21 -122 0
-120 -5 -336 -9 -480 -7 -209 -7 -265 4 -278 7 -8 9 -15 4 -15 -5 0 -19 15
-31 33 -21 30 -23 47 -25 158 -1 96 -3 110 -7 61 -3 -34 -10 -62 -16 -61 -5 0
-12 -8 -16 -18 -6 -15 -8 -14 -8 7 -2 41 -21 2 -21 -42 0 -20 -4 -39 -8 -42
-5 -3 -12 70 -15 162 -6 154 -33 362 -55 422 -9 23 -10 23 -15 5 -20 -64 -48
-293 -54 -437 -3 -93 -10 -168 -15 -168 -4 0 -8 21 -9 48 0 26 -4 56 -9 67
l-9 20 -1 -20 c-1 -11 -4 -14 -7 -7 -7 18 -23 15 -24 -5 -4 -50 -18 86 -18
177 -2 186 -42 613 -59 632 -4 4 -6 -66 -5 -155 1 -107 -1 -154 -7 -137 -8 21
-9 20 -5 -10 3 -19 8 -173 11 -341 6 -292 6 -306 -12 -313 -41 -16 -42 3 -41
490 1 255 -1 464 -5 464 -7 0 -11 -19 -32 -145 -29 -173 -45 -362 -52 -591
l-7 -232 32 -17 c43 -22 34 -39 -22 -43 -52 -3 -77 -27 -77 -74 0 -25 2 -27
30 -22 38 8 72 -14 90 -55 11 -28 10 -34 -5 -51 -21 -24 -16 -88 14 -155 l19
-43 -30 -22 -30 -22 7 49 c4 36 3 52 -7 60 -7 6 -51 10 -98 9 -80 -1 -85 -2
-99 -28 -13 -23 -14 -34 -2 -85 23 -95 25 -157 7 -172 -9 -8 -16 -19 -16 -26
0 -8 -3 -15 -7 -17 -5 -1 -25 -28 -47 -60 -36 -53 -44 -59 -144 -102 -58 -25
-107 -44 -109 -42 -4 3 55 49 232 179 16 12 43 34 59 48 30 26 30 27 18 75 -6
27 -15 75 -18 107 -10 82 -17 63 -15 -38 l2 -85 -28 6 c-25 5 -35 -2 -83 -57
-30 -35 -95 -107 -145 -162 -101 -111 -119 -135 -89 -122 10 4 53 20 94 36 41
15 92 35 112 43 21 9 38 14 38 10 0 -3 -14 -26 -31 -50 -17 -25 -29 -47 -27
-49 4 -4 245 115 286 142 30 18 48 5 62 -46 8 -30 7 -38 -6 -46 -57 -35 -48
-12 -149 -410 -40 -159 -46 -199 -25 -165 20 33 144 189 147 186 2 -2 -5 -50
-17 -106 -11 -56 -20 -107 -20 -114 0 -6 23 30 51 79 109 193 137 242 173 304
31 54 36 71 34 115 l-3 51 47 -1 c32 0 54 -6 69 -19 38 -36 41 -51 14 -83 -14
-17 -25 -40 -25 -53 0 -27 99 -632 105 -637 1 -2 8 27 14 65 7 37 23 133 37
213 13 80 31 190 39 245 9 55 18 106 20 113 2 6 -9 28 -26 47 -26 29 -29 37
-19 55 16 30 69 60 107 60 40 0 47 -11 35 -54 -7 -24 -6 -41 2 -58 58 -108
227 -397 235 -403 5 -2 0 39 -10 92 -10 53 -17 98 -15 100 2 3 43 -48 91 -112
48 -64 89 -114 91 -113 3 3 -24 111 -111 443 -14 55 -28 108 -31 117 -3 9 -18
20 -34 23 -23 5 -30 12 -30 31 0 30 26 84 40 84 6 0 69 -30 141 -66 72 -36
133 -63 136 -60 3 3 -7 22 -22 41 -15 20 -24 39 -21 42 3 3 23 -1 43 -10 21
-9 83 -32 138 -53 55 -20 103 -38 108 -41 19 -11 3 16 -30 52 -20 22 -82 89
-137 150 -135 148 -145 157 -173 150 -23 -5 -23 -4 -24 87 -2 91 -2 92 -9 33
-4 -33 -8 -82 -9 -108 l-1 -49 38 7 c37 6 39 5 117 -82 44 -48 99 -108 122
-133 23 -24 40 -47 37 -49 -6 -7 -288 187 -319 219 -37 38 -43 99 -19 191 16
63 17 73 3 97 -11 20 -24 28 -49 30 -54 4 -74 -16 -73 -74 l1 -49 -7 46 c-8
55 -25 79 -56 79 -36 0 -51 -25 -37 -64 7 -18 12 -48 11 -67 l-1 -34 -11 26
c-7 14 -18 34 -26 43 -12 15 -12 22 3 54 26 54 33 146 13 167 -19 18 -13 41
20 79 18 20 32 26 64 26 41 0 41 0 35 32 -3 17 -11 37 -17 44 -16 20 -65 27
-88 12 -17 -10 -23 -10 -33 0 -11 11 -8 17 11 33 13 11 31 23 38 28 12 6 14
40 14 172 -1 197 -23 515 -37 528 -7 7 -4 -51 6 -119 5 -36 13 -173 16 -305
l6 -240 -36 -28 -36 -28 0 98 c0 54 -3 264 -7 466 -4 261 -3 371 5 376 7 4 8
19 3 41 -8 35 -8 35 -20 -25z m-418 -965 c4 -16 0 -20 -19 -20 -26 0 -27 1
-18 24 9 22 31 20 37 -4z m336 -4 c9 -11 7 -15 -8 -19 -24 -6 -31 0 -24 19 7
18 17 18 32 0z m-411 -24 c2 -7 -3 -12 -12 -12 -9 0 -16 7 -16 16 0 17 22 14
28 -4z m487 7 c10 -15 -1 -23 -20 -15 -9 3 -13 10 -10 16 8 13 22 13 30 -1z
m-365 -123 c0 -9 -10 -12 -35 -9 -34 3 -35 3 -29 -24 4 -16 11 -36 16 -45 10
-21 48 -24 66 -6 9 9 12 6 12 -15 0 -16 8 -30 21 -37 11 -7 28 -28 36 -48 14
-34 16 -35 29 -17 8 10 14 25 14 32 0 7 11 20 25 29 14 9 25 25 25 35 0 12 5
16 15 13 29 -12 65 6 79 39 14 32 14 32 15 5 1 -15 -3 -30 -9 -33 -5 -3 -10
-23 -10 -44 0 -48 -17 -65 -44 -45 -11 8 -27 14 -36 14 -24 0 -57 -39 -73 -85
l-14 -40 -11 39 c-13 44 -47 86 -71 86 -9 0 -28 -6 -43 -14 -31 -16 -38 -8
-38 47 0 18 -7 41 -15 51 -15 20 -12 49 7 74 14 17 68 16 68 -2z m268 2 c-6
-18 -58 -19 -58 -2 0 9 12 14 31 14 20 0 29 -4 27 -12z m-420 -184 c17 -72 8
-82 -12 -13 -18 60 -19 69 -8 69 4 0 13 -25 20 -56z m542 31 c0 -26 -39 -115
-51 -115 -4 0 1 23 12 50 10 28 19 59 19 70 0 11 5 20 10 20 6 0 10 -11 10
-25z m-380 -75 c17 -9 40 -58 40 -87 0 -15 -50 39 -69 75 -13 25 -3 29 29 12z
m221 -7 c-5 -10 -24 -36 -41 -58 l-33 -40 6 39 c7 44 32 76 59 76 15 0 17 -4
9 -17z m-546 -220 c5 -21 4 -33 -3 -33 -15 0 -22 38 -20 120 l1 75 7 -65 c4
-36 11 -80 15 -97z m891 121 c8 -30 -1 -93 -16 -108 -7 -7 -10 12 -10 62 0 72
14 96 26 46z m-716 -24 c0 -11 -4 -20 -10 -20 -5 0 -10 9 -10 20 0 11 5 20 10
20 6 0 10 -9 10 -20z m185 -10 c8 0 15 -7 15 -15 0 -24 -27 -17 -62 16 l-33
30 32 -15 c18 -9 39 -16 48 -16z m185 15 c0 -6 -62 -45 -72 -45 -22 0 -3 27
25 37 41 13 47 14 47 8z m127 -17 c-3 -8 -6 -5 -6 6 -1 11 2 17 5 13 3 -3 4
-12 1 -19z m-359 -75 c20 -5 22 -10 16 -39 -5 -30 -3 -35 20 -44 18 -7 26 -17
26 -34 0 -30 -26 -38 -58 -18 -18 12 -31 12 -69 2 -46 -11 -50 -10 -56 17 -1
4 14 7 33 7 l35 1 -4 64 c-3 59 -2 63 15 56 11 -4 29 -10 42 -12z m269 -43
l-7 -60 30 0 c16 0 32 -5 36 -11 11 -18 -16 -27 -53 -17 -34 9 -73 3 -84 -14
-11 -16 -39 4 -39 28 0 17 8 28 26 34 23 9 26 15 21 44 -5 29 -2 34 21 43 53
21 55 18 49 -47z m138 -50 c-15 -29 -29 -49 -32 -46 -3 3 4 21 15 39 11 19 24
50 28 68 6 27 9 30 12 12 2 -12 -9 -45 -23 -73z m-603 28 c23 -54 15 -61 -11
-9 -23 44 -25 51 -13 51 4 0 15 -19 24 -42z m715 10 c-3 -8 -6 -5 -6 6 -1 11
2 17 5 13 3 -3 4 -12 1 -19z m-977 -103 c0 -8 -9 -19 -20 -25 -23 -12 -25 -8
-8 20 15 24 28 26 28 5z m45 -6 c-10 -15 -25 -10 -19 6 4 8 10 12 15 9 5 -3 7
-10 4 -15z m1111 -64 c44 -41 75 -75 71 -75 -15 0 -197 110 -197 119 0 4 10
13 23 19 12 6 23 11 23 11 1 1 37 -33 80 -74z m-240 -7 c-1 -83 8 -104 53
-122 33 -12 42 -23 51 -53 45 -159 107 -399 104 -402 -7 -7 -193 386 -206 435
-7 27 -21 57 -31 67 -18 18 -17 42 5 100 16 41 24 33 24 -25z m-962 -9 c-25
-28 -74 -62 -74 -52 0 15 61 73 77 73 14 0 13 -3 -3 -21z m301 -41 c4 -23 3
-38 -3 -38 -12 0 -22 34 -22 75 1 38 15 16 25 -37z m270 52 c3 -6 -1 -7 -9 -4
-18 7 -21 14 -7 14 6 0 13 -4 16 -10z m103 -1 c-12 -7 -18 -22 -18 -47 0 -38
-28 -104 -45 -105 -17 0 -45 66 -44 103 0 34 1 33 13 -13 19 -70 32 -79 51
-34 8 20 15 49 15 65 0 33 7 42 29 42 14 -1 13 -2 -1 -11z m-363 -174 c7 -41
4 -50 -31 -102 -47 -70 -53 -57 -29 55 20 88 21 92 40 92 9 0 16 -17 20 -45z
m32 23 c-3 -8 -6 -5 -6 6 -1 11 2 17 5 13 3 -3 4 -12 1 -19z m532 8 c8 -9 10
-28 5 -51 -5 -31 -1 -44 31 -92 33 -49 121 -261 112 -270 -3 -3 -131 225 -172
306 -12 24 -15 46 -10 77 7 46 15 53 34 30z m-652 -147 c-15 -84 -22 -99 -92
-198 -51 -71 -77 -94 -51 -43 19 38 106 223 106 226 0 10 42 97 46 94 2 -2 -2
-38 -9 -79z m23 -127 c-16 -40 -34 -90 -40 -112 -17 -64 -28 -54 -15 13 7 34
15 73 20 87 8 27 55 94 61 88 2 -2 -10 -37 -26 -76z m447 56 c-3 -8 -6 -5 -6
6 -1 11 2 17 5 13 3 -3 4 -12 1 -19z"/>
<path d="M1003 2815 c0 -22 2 -30 4 -17 2 12 2 30 0 40 -3 9 -5 -1 -4 -23z"/>
<path d="M971 2804 c0 -11 3 -14 6 -6 3 7 2 16 -1 19 -3 4 -6 -2 -5 -13z"/>
<path d="M1532 2800 c0 -14 2 -19 5 -12 2 6 2 18 0 25 -3 6 -5 1 -5 -13z"/>
<path d="M980 2714 c0 -53 4 -73 14 -77 11 -5 13 6 9 56 -8 92 -22 105 -23 21z"/>
<path d="M1542 2730 c0 -14 2 -19 5 -12 2 6 2 18 0 25 -3 6 -5 1 -5 -13z"/>
<path d="M1553 2665 c0 -22 2 -30 4 -17 2 12 2 30 0 40 -3 9 -5 -1 -4 -23z"/>
<path d="M1412 2650 c0 -19 2 -27 5 -17 2 9 2 25 0 35 -3 9 -5 1 -5 -18z"/>
<path d="M1403 2540 c0 -25 2 -35 4 -22 2 12 2 32 0 45 -2 12 -4 2 -4 -23z"/>
<path d="M972 2520 c0 -14 2 -19 5 -12 2 6 2 18 0 25 -3 6 -5 1 -5 -13z"/>
<path d="M1394 2370 c0 -52 1 -74 3 -47 2 26 2 68 0 95 -2 26 -3 4 -3 -48z"/>
</g>
</svg>
