<?xml version="1.0" standalone="no"?>
<!DOCTYPE svg PUBLIC "-//W3C//DTD SVG 20010904//EN"
 "http://www.w3.org/TR/2001/REC-SVG-20010904/DTD/svg10.dtd">
<svg version="1.0" xmlns="http://www.w3.org/2000/svg"
 width="244.000000pt" height="305.000000pt" viewBox="0 0 244.000000 305.000000"
 preserveAspectRatio="xMidYMid meet">
<metadata>
Created by potrace 1.16, written by Peter Selinger 2001-2019
</metadata>
<g transform="translate(0.000000,305.000000) scale(0.100000,-0.100000)"
fill="#000000" stroke="none">
<path d="M1048 2408 c2 -291 -1 -498 -6 -494 -9 5 -27 447 -27 646 1 63 -1 93
-4 65 l-4 -50 -18 85 c-15 67 -18 73 -13 30 20 -196 36 -409 41 -564 5 -150 4
-178 -8 -174 -8 3 -22 -8 -31 -24 -10 -15 -22 -28 -28 -28 -7 0 -10 156 -10
496 1 273 -1 498 -4 502 -3 3 -6 1 -6 -5 0 -5 -9 -60 -20 -121 -35 -193 -50
-360 -57 -608 l-6 -242 29 -18 c51 -33 64 -52 64 -91 -1 -33 -2 -36 -12 -18
-6 11 -20 30 -31 43 -43 47 -132 14 -125 -46 3 -24 7 -27 36 -24 26 3 39 -3
67 -31 38 -38 43 -58 19 -78 -11 -9 -15 -27 -13 -59 2 -31 -3 -55 -14 -70 -9
-14 -17 -36 -17 -50 0 -20 -2 -22 -10 -10 -8 13 -10 12 -10 -2 0 -10 -7 -18
-16 -18 -27 0 -46 -63 -34 -116 7 -30 7 -51 1 -57 -13 -13 -31 25 -38 83 -4
39 -1 56 16 85 11 20 21 45 21 55 0 41 -85 55 -120 20 -24 -24 -25 -39 -4
-105 8 -27 16 -78 17 -113 2 -59 0 -66 -26 -88 -23 -20 -27 -30 -22 -53 4 -17
1 -32 -7 -38 -17 -14 -298 -126 -303 -121 -3 2 37 33 88 68 119 84 241 171
246 176 4 3 -17 147 -30 204 -5 25 -7 8 -7 -60 l0 -95 -28 3 c-26 3 -47 -15
-196 -170 -91 -95 -165 -175 -163 -177 3 -3 348 122 414 149 16 8 22 16 18 30
-6 23 5 33 27 24 14 -5 14 -9 -1 -37 -9 -18 -36 -63 -60 -100 -25 -38 -43 -71
-40 -73 2 -3 50 23 107 56 56 34 109 59 116 56 8 -3 14 -19 14 -35 0 -24 -5
-32 -25 -37 -34 -8 -47 -37 -86 -180 -17 -65 -40 -150 -51 -189 -36 -130 -56
-210 -54 -213 3 -2 223 272 260 323 8 11 16 18 19 15 2 -3 -8 -79 -24 -169
-16 -91 -27 -167 -24 -169 2 -2 54 96 115 219 106 212 111 224 102 261 -12 45
2 62 42 52 28 -7 76 -50 76 -69 0 -6 -11 -22 -25 -35 -14 -13 -25 -32 -25 -43
0 -10 20 -130 45 -265 24 -136 50 -278 56 -317 7 -38 14 -65 15 -60 7 20 114
614 114 631 0 9 -11 32 -25 50 -14 18 -25 37 -25 41 0 19 57 63 89 69 l34 7
-7 -51 c-7 -51 -5 -55 100 -263 58 -115 108 -209 110 -207 2 2 -8 71 -22 152
-14 82 -24 155 -22 162 2 8 54 -50 116 -128 62 -79 126 -159 143 -178 l30 -35
-6 35 c-4 19 -15 64 -25 100 -130 468 -119 437 -154 447 -34 10 -43 39 -21 69
10 15 21 11 99 -36 48 -29 89 -50 92 -47 3 3 -7 26 -23 52 -77 126 -74 119
-56 133 26 19 38 14 48 -20 10 -31 17 -34 224 -110 118 -43 215 -77 217 -76 1
2 -76 83 -170 182 -163 169 -174 178 -202 172 l-30 -7 3 93 c2 61 0 86 -6 73
-5 -11 -10 -59 -12 -105 l-4 -85 40 3 c40 3 43 0 140 -100 193 -202 191 -198
66 -116 -41 26 -75 48 -77 48 -2 0 -43 27 -92 60 -113 76 -132 109 -112 197
20 89 24 152 10 168 -19 22 -93 19 -114 -4 -17 -18 -16 -22 8 -68 31 -57 32
-93 6 -150 -23 -52 -46 -58 -35 -10 24 114 13 151 -50 163 -29 5 -35 10 -29
26 3 10 0 26 -7 34 -8 10 -10 32 -5 68 4 42 2 58 -9 70 -22 22 -18 50 11 85
21 25 34 31 64 31 46 0 56 12 40 49 -11 27 -46 51 -74 51 -21 0 -67 -40 -77
-69 l-10 -25 -18 40 c-15 32 -26 42 -51 47 -19 4 -30 12 -28 19 7 21 43 20 63
-2 23 -25 29 -25 58 2 14 13 34 30 46 38 20 15 20 18 11 268 -9 240 -30 493
-38 445 -2 -12 2 -64 8 -115 6 -51 14 -199 17 -328 l6 -235 -36 -28 c-20 -15
-38 -27 -41 -27 -3 0 -6 217 -6 483 0 347 3 478 11 467 9 -12 10 -12 5 3 -3
10 -6 28 -6 38 0 11 -4 18 -8 15 -5 -3 -22 -82 -38 -175 -16 -93 -30 -169 -31
-167 -2 2 -10 70 -19 152 -8 82 -18 152 -22 156 -4 4 -6 -214 -5 -485 1 -472
-3 -527 -25 -358 -14 100 -28 110 -37 27 -8 -73 -25 -80 -25 -10 0 25 -6 51
-13 59 -9 9 -16 53 -20 129 -7 108 -37 299 -56 349 l-9 22 -6 -25 c-25 -98
-48 -265 -53 -375 -4 -71 -8 -124 -10 -117 -9 26 -23 10 -23 -25 0 -21 -4 -44
-8 -51 -13 -19 -32 129 -32 244 0 136 -17 393 -36 534 -8 63 -16 115 -17 117
-1 1 -1 -224 1 -499z m243 -376 c1 -90 -2 -166 -5 -169 -3 -4 -6 66 -6 154 0
88 -2 189 -5 224 l-4 64 9 -55 c5 -30 10 -128 11 -218z m-266 -152 c0 -10 -8
-14 -24 -12 -32 3 -39 11 -21 23 21 13 45 7 45 -11z m60 -10 c3 -5 -1 -10 -9
-10 -9 0 -16 5 -16 10 0 6 4 10 9 10 6 0 13 -4 16 -10z m315 -6 c0 -8 -5 -12
-10 -9 -6 4 -8 11 -5 16 9 14 15 11 15 -7z m-270 -108 c0 -7 -7 -19 -15 -26
-13 -10 -18 -11 -28 -1 -9 10 -8 15 7 27 25 18 36 18 36 0z m254 -11 c8 -21
-14 -30 -31 -12 -9 8 -12 20 -9 26 8 13 33 4 40 -14z m-364 -31 c7 -17 6 -32
-1 -45 -10 -20 -11 -20 -30 2 -10 12 -17 24 -15 28 1 3 6 14 9 24 9 25 26 21
37 -9z m476 1 c4 -17 1 -32 -10 -44 -9 -10 -16 -26 -16 -37 0 -15 -4 -12 -15
10 -18 33 -19 50 -5 77 15 27 38 24 46 -6z m-196 -57 c0 -10 -4 -18 -10 -18
-5 0 -10 15 -10 33 0 24 3 28 10 17 5 -8 10 -23 10 -32z m-156 -4 c9 -3 16
-14 16 -24 0 -10 9 -20 20 -23 11 -3 27 -21 35 -41 9 -20 18 -36 21 -36 3 0
12 16 20 36 8 20 24 38 35 41 10 3 19 11 19 18 0 21 28 37 50 30 17 -5 20 -13
18 -38 -3 -30 -5 -32 -46 -33 -47 0 -63 -15 -85 -79 l-14 -40 -12 43 c-18 64
-43 85 -92 77 l-39 -7 0 35 c0 41 19 55 54 41z m-184 -69 c6 -19 32 -64 56
-100 52 -75 54 -103 5 -54 -37 38 -75 107 -86 157 -9 44 10 42 25 -3z m108
-30 c11 -33 19 -61 17 -63 -7 -7 -33 54 -40 93 -10 54 -1 42 23 -30z m342 -26
c-24 -57 -40 -53 -20 5 11 30 21 63 22 73 0 10 3 3 5 -16 3 -18 -1 -46 -7 -62z
m115 21 c-16 -49 -68 -121 -106 -148 -30 -21 -22 2 25 72 25 35 55 84 67 108
28 54 36 35 14 -32z m-365 -61 c18 -42 6 -46 -19 -6 -25 40 -26 48 -7 41 8 -3
20 -19 26 -35z m190 37 c0 -3 -10 -22 -22 -43 -16 -27 -24 -33 -26 -21 -4 18
25 68 39 68 5 0 9 -2 9 -4z m-408 -150 c-2 -31 -8 -54 -13 -50 -10 6 -12 107
-2 117 13 13 18 -11 15 -67z m604 -21 c-4 -14 -11 -23 -16 -20 -12 7 -13 88
-2 99 11 12 25 -49 18 -79z m-366 14 c0 -5 -7 -9 -15 -9 -15 0 -20 12 -9 23 8
8 24 -1 24 -14z m140 11 c0 -13 -28 -25 -38 -16 -3 4 0 11 8 16 20 13 30 12
30 0z m-288 -102 c-3 -44 -1 -56 17 -72 35 -32 51 -15 44 50 -6 52 -4 57 11
51 10 -4 27 -7 38 -7 18 0 18 -1 4 -16 -26 -26 -17 -59 19 -65 11 -3 21 -12
23 -22 4 -21 -18 -53 -27 -38 -4 5 -33 11 -66 13 l-59 3 -13 50 c-7 28 -10 65
-7 82 10 51 21 30 16 -29z m420 -1 c0 -25 -6 -58 -14 -74 -11 -24 -20 -28 -58
-31 -25 -1 -56 -3 -70 -5 -21 -2 -25 2 -25 23 0 18 6 26 21 28 25 4 36 31 22
56 -12 21 -11 22 26 32 l29 7 -7 -56 c-9 -66 3 -79 40 -42 24 24 26 31 20 78
-6 39 -4 49 4 41 7 -7 12 -32 12 -57z m-626 -42 c9 -14 13 -29 9 -33 -7 -7
-45 34 -45 49 0 18 20 9 36 -16z m174 -78 c0 -5 -4 -5 -10 -2 -5 3 -10 14 -10
23 0 15 2 15 10 2 5 -8 10 -19 10 -23z m483 13 c-3 -12 -8 -19 -11 -16 -5 6 5
36 12 36 2 0 2 -9 -1 -20z m138 -23 c-10 -9 -11 -8 -5 6 3 10 9 15 12 12 3 -3
0 -11 -7 -18z m-873 -20 c9 -10 -4 -28 -53 -77 -36 -36 -65 -61 -65 -57 0 13
90 147 99 147 5 0 13 -6 19 -13z m147 -29 c20 -49 23 -226 5 -273 -10 -25
-214 -300 -231 -311 -12 -7 10 42 99 221 128 257 125 247 108 333 -15 81 -7
94 19 30z m705 -15 c0 -21 5 -55 11 -76 9 -32 18 -42 54 -58 24 -11 46 -27 49
-37 63 -213 116 -408 113 -416 -2 -5 -45 73 -96 174 -52 102 -108 212 -126
245 -41 73 -51 122 -35 169 15 47 30 46 30 -1z m169 -26 c53 -58 50 -63 -18
-20 -59 37 -74 57 -48 66 16 6 23 1 66 -46z m-534 -117 c3 0 12 15 20 33 9 19
14 25 15 14 0 -18 -27 -77 -35 -77 -8 0 -35 59 -35 77 1 11 6 5 15 -14 8 -18
17 -33 20 -33z m-240 -42 c-8 -24 -40 -125 -72 -225 -31 -100 -59 -180 -61
-178 -3 2 6 62 18 132 15 87 30 142 47 172 20 35 24 52 20 86 -7 49 -3 55 34
55 l27 0 -13 -42z m490 -15 c8 -32 36 -123 61 -202 46 -144 52 -189 16 -109
-11 24 -45 96 -77 162 -51 107 -56 123 -50 162 9 62 30 57 50 -13z m-156 -112
c0 -9 -9 -59 -20 -111 l-19 -95 7 85 c4 47 7 104 8 128 0 36 2 40 13 25 6 -9
12 -24 11 -32z"/>
<path d="M1557 2765 c4 -33 10 -71 14 -85 5 -15 6 -1 2 35 -3 32 -9 71 -14 85
-4 14 -5 0 -2 -35z"/>
<path d="M962 2780 c0 -19 2 -27 5 -17 2 9 2 25 0 35 -3 9 -5 1 -5 -18z"/>
<path d="M1022 2720 c0 -14 2 -19 5 -12 2 6 2 18 0 25 -3 6 -5 1 -5 -13z"/>
<path d="M1391 2674 c0 -11 3 -14 6 -6 3 7 2 16 -1 19 -3 4 -6 -2 -5 -13z"/>
<path d="M1383 2550 c0 -30 2 -43 4 -27 2 15 2 39 0 55 -2 15 -4 2 -4 -28z"/>
<path d="M1374 2385 c0 -49 1 -71 3 -48 2 23 2 64 0 90 -2 26 -3 8 -3 -42z"/>
<path d="M994 2135 c0 -77 2 -107 3 -67 2 40 2 103 0 140 -2 37 -3 4 -3 -73z"/>
</g>
</svg>
