<?xml version="1.0" standalone="no"?>
<!DOCTYPE svg PUBLIC "-//W3C//DTD SVG 20010904//EN"
 "http://www.w3.org/TR/2001/REC-SVG-20010904/DTD/svg10.dtd">
<svg version="1.0" xmlns="http://www.w3.org/2000/svg"
 width="244.000000pt" height="305.000000pt" viewBox="0 0 244.000000 305.000000"
 preserveAspectRatio="xMidYMid meet">
<metadata>
Created by potrace 1.16, written by Peter Selinger 2001-2019
</metadata>
<g transform="translate(0.000000,305.000000) scale(0.100000,-0.100000)"
fill="#000000" stroke="none">
<path d="M921 2905 c-1 -5 -1 -234 -1 -508 l1 -498 -41 27 -40 27 0 141 c0
158 13 356 35 515 8 58 16 129 19 156 9 90 -22 -75 -39 -205 -17 -134 -39
-634 -28 -638 8 -2 55 -32 85 -54 13 -10 22 -6 51 19 19 17 41 33 48 35 19 6
-4 520 -31 703 -20 130 -56 303 -59 280z"/>
<path d="M1348 2869 c-1 -24 -1 -55 0 -69 7 -79 0 -822 -7 -842 -13 -32 -18
-12 -25 92 -15 229 -40 410 -74 525 l-9 30 -12 -40 c-13 -48 -47 -251 -58
-355 -7 -63 -10 -33 -17 190 -14 459 -23 467 -26 25 -2 -293 -5 -399 -12 -370
-5 22 -13 96 -17 165 l-6 125 -7 -160 c-4 -88 -11 -191 -14 -229 -6 -61 -4
-71 12 -84 17 -13 15 -14 -23 -8 -57 8 -92 -9 -112 -58 l-17 -39 -21 36 c-12
19 -33 43 -47 52 -48 32 -116 -5 -116 -62 0 -20 5 -23 44 -23 38 0 48 -5 75
-35 36 -42 38 -54 11 -78 -17 -14 -20 -25 -14 -55 9 -54 52 -147 80 -173 29
-27 31 -52 6 -77 -31 -31 -52 -66 -52 -85 0 -29 41 -77 67 -77 21 0 22 -2 11
-20 -16 -26 -38 -26 -38 0 0 12 -5 17 -14 14 -22 -9 -59 61 -53 99 3 18 0 61
-7 97 -12 65 -12 65 -48 68 -32 3 -37 0 -52 -31 -21 -45 -8 -90 62 -212 29
-49 53 -96 53 -105 4 -52 3 -78 -3 -74 -3 2 -11 -8 -16 -23 -8 -23 -9 -15 -9
42 1 77 -12 111 -69 181 -64 78 -83 169 -46 222 32 47 33 51 12 72 -13 13 -33
20 -58 20 -73 0 -91 -40 -61 -134 35 -114 19 -164 -75 -224 -143 -92 -205
-130 -261 -161 -60 -34 -60 -34 82 108 l142 142 44 -6 44 -7 -4 64 c-6 106
-14 149 -24 142 -7 -4 -8 -37 -4 -91 l8 -85 -33 7 c-31 7 -37 1 -211 -171 -98
-98 -177 -179 -176 -181 2 -1 68 20 148 48 79 27 180 62 223 77 68 23 81 31
92 59 13 30 15 31 48 21 48 -15 106 -64 123 -105 16 -40 12 -49 -31 -67 -30
-12 -35 -21 -58 -102 -14 -49 -51 -176 -82 -283 -31 -106 -55 -195 -53 -197 2
-2 33 31 70 73 36 43 74 87 84 98 10 11 64 78 121 148 l103 128 -11 40 c-6 22
-8 44 -5 49 3 6 30 10 60 10 48 0 54 -2 58 -22 l4 -23 2 23 c1 15 7 22 21 22
11 0 20 -6 20 -12 -1 -7 -18 -94 -39 -193 -24 -113 -40 -171 -43 -155 -3 14
-4 6 -2 -17 2 -24 -1 -43 -6 -43 -6 0 -10 -19 -9 -42 1 -37 9 -18 56 125 48
148 73 195 73 137 0 -10 9 -63 19 -117 11 -54 36 -186 57 -293 l38 -195 47
240 c26 132 53 277 60 322 7 45 15 80 18 78 4 -2 34 -88 66 -190 33 -103 61
-183 62 -178 2 5 -10 126 -26 268 -16 143 -27 263 -24 268 7 11 91 3 103 -9 5
-5 4 -28 -2 -51 -11 -40 -11 -43 28 -88 21 -26 50 -62 64 -80 45 -59 252 -300
261 -303 5 -2 7 2 4 10 -2 7 -36 126 -75 263 -39 138 -75 259 -79 271 -6 12
-22 24 -40 27 -45 9 -43 54 5 106 50 57 155 92 139 48 -10 -26 -4 -30 160 -87
50 -17 99 -35 110 -41 39 -18 169 -58 173 -54 3 3 -73 80 -168 172 -147 144
-177 168 -203 168 l-31 0 1 95 c1 89 1 91 -8 40 -10 -63 -25 -128 -34 -151 -9
-24 18 -47 205 -170 91 -60 159 -109 152 -109 -11 0 -92 30 -265 98 -67 27
-68 28 -62 58 5 26 0 37 -25 62 -37 38 -40 85 -8 190 l21 73 -20 27 c-26 35
-79 41 -114 13 l-24 -20 24 -44 c19 -36 23 -54 19 -100 -4 -47 -12 -66 -55
-125 -28 -38 -58 -93 -69 -123 -16 -48 -18 -51 -24 -29 -6 19 6 51 51 135 67
129 79 173 55 211 -14 20 -24 25 -49 22 -29 -3 -33 -7 -45 -58 -7 -30 -11 -74
-9 -97 4 -43 -21 -103 -43 -103 -13 0 -13 27 0 35 21 13 10 68 -24 114 l-35
47 45 64 c24 35 49 80 54 99 15 53 12 101 -5 107 -25 10 -17 48 19 83 28 28
40 32 72 29 37 -3 39 -1 36 22 -7 47 -29 70 -70 70 -45 -1 -67 -16 -91 -65
l-18 -38 -13 37 c-14 45 -61 77 -99 70 -26 -5 -26 -5 -27 58 -6 287 -40 978
-50 987 -2 2 -5 -16 -6 -40z m-119 -852 c1 -263 -2 -396 -9 -392 -6 4 -10 72
-11 168 0 89 -4 153 -8 142 -17 -43 -22 256 -6 385 8 69 15 132 16 140 1 8 5
2 9 -15 4 -16 8 -209 9 -428z m101 -129 c0 -18 -2 -20 -9 -8 -6 8 -7 18 -5 22
9 14 14 9 14 -14z m-183 -20 c-3 -7 -5 -2 -5 12 0 14 2 19 5 13 2 -7 2 -19 0
-25z m43 -80 c0 -39 -3 -68 -7 -64 -9 9 -10 145 -1 139 5 -2 8 -36 8 -75z
m-71 17 c-1 -29 -1 -29 -9 -5 -4 14 -8 34 -9 45 -1 16 1 17 9 5 5 -8 9 -28 9
-45z m242 3 l-9 -33 -1 36 c-1 20 2 39 6 43 13 12 15 -10 4 -46z m-275 -59
c20 -16 7 -31 -17 -18 -12 6 -23 8 -26 5 -10 -9 7 -56 27 -76 24 -24 26 -67 4
-98 -14 -20 -14 -22 1 -22 16 0 35 -38 35 -68 0 -11 -20 5 -55 43 -41 45 -56
70 -61 102 -3 23 -12 48 -20 54 -20 16 -17 42 8 74 18 23 26 26 55 22 19 -4
41 -11 49 -18z m397 -7 c30 -31 34 -54 13 -71 -7 -6 -16 -29 -20 -50 -7 -44
-109 -177 -114 -150 -5 25 16 69 33 69 19 0 19 14 0 30 -24 20 -18 72 11 99
15 14 24 32 22 45 -3 19 -9 21 -37 14 -20 -6 -12 18 10 29 36 19 53 16 82 -15z
m-307 -132 c28 -11 31 -25 7 -34 -27 -11 -43 21 -41 78 l1 51 4 -43 c3 -35 9
-45 29 -52z m153 39 c-3 -58 -17 -83 -42 -73 -24 9 -21 23 8 34 21 8 25 16 25
50 0 22 2 40 5 40 4 0 5 -23 4 -51z m-129 6 c0 -16 -6 -25 -15 -25 -8 0 -15 7
-15 16 0 8 5 12 10 9 6 -3 10 1 10 9 0 9 2 16 5 16 3 0 5 -11 5 -25z m-260
-59 c0 -6 14 -33 30 -59 30 -47 41 -95 19 -81 -25 15 -69 100 -69 132 0 19 4
31 10 27 6 -3 10 -12 10 -19z m417 2 c-3 -8 -6 -5 -6 6 -1 11 2 17 5 13 3 -3
4 -12 1 -19z m193 -1 c0 -27 -48 -127 -61 -127 -15 0 -11 22 18 87 29 66 43
78 43 40z m-309 -99 c-6 -23 -9 -27 -10 -11 -1 12 -4 29 -8 39 -4 12 -3 15 5
10 7 -4 12 -1 13 6 0 9 2 9 5 1 3 -6 1 -26 -5 -45z m89 -39 c-25 -68 -44 -97
-35 -54 9 41 44 119 50 113 3 -3 -3 -30 -15 -59z m-171 -4 c22 -60 27 -85 12
-69 -15 16 -51 124 -42 124 5 0 19 -25 30 -55z m268 -42 c-3 -10 -5 -4 -5 12
0 17 2 24 5 18 2 -7 2 -21 0 -30z m-367 20 c0 -5 -5 -15 -10 -23 -8 -12 -10
-11 -10 8 0 12 5 22 10 22 6 0 10 -3 10 -7z m65 -43 c3 -5 4 -14 0 -20 -8 -13
-35 -1 -35 16 0 16 26 19 35 4z m255 -4 c0 -20 -19 -31 -32 -18 -6 6 -7 15 -4
21 10 16 36 13 36 -3z m-373 -113 c-2 -16 -4 -5 -4 22 0 28 2 40 4 28 2 -13 2
-35 0 -50z m407 -39 c-9 -30 -19 -52 -22 -50 -4 5 12 86 26 131 6 19 6 19 10
-3 2 -13 -4 -48 -14 -78z m53 44 c-2 -13 -4 -5 -4 17 -1 22 1 32 4 23 2 -10 2
-28 0 -40z m-404 5 c19 -117 19 -112 4 -68 -20 60 -28 105 -18 105 5 0 11 -17
14 -37z m117 28 c0 -12 -20 -25 -27 -18 -7 7 6 27 18 27 5 0 9 -4 9 -9z m131
-4 c-1 -12 -15 -9 -19 4 -3 6 1 10 8 8 6 -3 11 -8 11 -12z m-196 -84 c6 -24
31 -31 37 -11 6 16 38 2 38 -16 0 -15 -59 -50 -68 -41 -12 12 -30 106 -24 127
6 21 7 21 10 -7 1 -16 5 -40 7 -52z m260 18 c-6 -38 -18 -75 -30 -89 -7 -9
-65 30 -65 44 0 22 31 30 42 10 16 -29 38 0 38 51 0 29 4 42 11 37 7 -4 8 -23
4 -53z m133 -63 c18 -18 15 -40 -5 -36 -10 2 -18 13 -19 26 -1 25 6 28 24 10z
m92 -159 c0 -5 -4 -9 -10 -9 -5 0 -10 7 -10 16 0 8 5 12 10 9 6 -3 10 -10 10
-16z m115 -264 c59 -115 112 -215 117 -222 6 -7 8 -17 6 -22 -3 -10 -70 70
-210 250 l-67 86 6 77 c6 74 7 77 23 59 10 -10 66 -112 125 -228z m-886 128
c-28 -54 -55 -102 -59 -108 -6 -9 -88 -162 -134 -253 -10 -19 -20 -32 -22 -29
-6 6 115 418 127 433 7 9 79 36 101 38 3 1 10 4 14 9 4 4 11 7 16 7 5 0 -14
-44 -43 -97z m411 41 c0 -8 -4 -12 -10 -9 -5 3 -10 13 -10 21 0 8 5 12 10 9 6
-3 10 -13 10 -21z m185 -202 c20 -101 35 -186 32 -188 -6 -7 -98 308 -97 336
0 14 3 36 7 50 6 22 7 23 14 5 5 -11 24 -103 44 -203z m-75 142 c0 -50 -2 -55
-16 -44 -31 26 -34 46 -12 73 12 15 23 27 25 27 2 0 3 -25 3 -56z m-189 14 c9
-17 6 -25 -15 -47 l-26 -26 0 52 c0 43 3 51 15 47 9 -4 20 -15 26 -26z m61
-500 c-5 -5 -8 22 -7 64 2 65 2 67 -4 18 l-6 -55 -12 60 c-7 33 -21 107 -32
165 -11 58 -22 117 -26 132 -5 21 0 34 31 68 27 30 39 38 45 28 6 -10 9 -8 11
7 2 11 4 -92 5 -229 2 -137 -1 -254 -5 -258z m245 120 c-3 -8 -6 -5 -6 6 -1
11 2 17 5 13 3 -3 4 -12 1 -19z"/>
<path d="M1213 2300 c0 -47 2 -66 4 -42 2 23 2 61 0 85 -2 23 -4 4 -4 -43z"/>
<path d="M1196 825 c-3 -9 -5 -42 -4 -73 l1 -57 7 70 c7 75 6 85 -4 60z"/>
<path d="M1203 600 c0 -36 2 -50 4 -32 2 17 2 47 0 65 -2 17 -4 3 -4 -33z"/>
<path d="M1112 2880 c0 -14 2 -19 5 -12 2 6 2 18 0 25 -3 6 -5 1 -5 -13z"/>
<path d="M1541 2888 c-1 -9 -4 -24 -8 -34 -4 -12 -3 -15 5 -10 9 5 12 -108 12
-468 0 -374 -3 -476 -12 -476 -7 1 -28 14 -47 30 l-34 29 11 263 c7 145 19
308 27 363 15 106 18 141 10 134 -16 -17 -46 -342 -52 -555 l-6 -242 29 -15
c16 -8 38 -25 48 -36 l19 -21 26 24 c14 13 36 29 49 35 21 11 22 17 22 139 0
191 -18 428 -46 608 -23 149 -51 271 -53 232z"/>
<path d="M1522 2810 c0 -14 2 -19 5 -12 2 6 2 18 0 25 -3 6 -5 1 -5 -13z"/>
<path d="M1512 2755 c0 -16 2 -22 5 -12 2 9 2 23 0 30 -3 6 -5 -1 -5 -18z"/>
<path d="M1103 2735 c0 -22 2 -30 4 -17 2 12 2 30 0 40 -3 9 -5 -1 -4 -23z"/>
<path d="M1333 2645 c0 -33 2 -45 4 -27 2 18 2 45 0 60 -2 15 -4 0 -4 -33z"/>
<path d="M1093 2560 c0 -36 2 -50 4 -32 2 17 2 47 0 65 -2 17 -4 3 -4 -33z"/>
<path d="M1324 2400 c0 -52 1 -74 3 -47 2 26 2 68 0 95 -2 26 -3 4 -3 -48z"/>
<path d="M1033 845 c0 -22 2 -30 4 -17 2 12 2 30 0 40 -3 9 -5 -1 -4 -23z"/>
<path d="M1023 755 c0 -22 2 -30 4 -17 2 12 2 30 0 40 -3 9 -5 -1 -4 -23z"/>
<path d="M1013 665 c0 -22 2 -30 4 -17 2 12 2 30 0 40 -3 9 -5 -1 -4 -23z"/>
</g>
</svg>
