<?xml version="1.0" standalone="no"?>
<!DOCTYPE svg PUBLIC "-//W3C//DTD SVG 20010904//EN"
 "http://www.w3.org/TR/2001/REC-SVG-20010904/DTD/svg10.dtd">
<svg version="1.0" xmlns="http://www.w3.org/2000/svg"
 width="244.000000pt" height="305.000000pt" viewBox="0 0 244.000000 305.000000"
 preserveAspectRatio="xMidYMid meet">
<metadata>
Created by potrace 1.16, written by Peter Selinger 2001-2019
</metadata>
<g transform="translate(0.000000,305.000000) scale(0.100000,-0.100000)"
fill="#000000" stroke="none">
<path d="M1007 2881 c-4 -18 -7 -47 -7 -63 0 -43 -17 -25 -24 27 -4 25 -10 45
-14 45 -4 0 -7 -223 -7 -495 0 -272 -2 -495 -5 -495 -3 1 -17 12 -32 25 l-28
24 -2 173 -1 173 -7 -185 c-7 -193 -8 -189 36 -216 28 -17 7 -34 -41 -34 -36
0 -48 -5 -61 -24 -8 -14 -14 -35 -12 -48 2 -18 9 -23 35 -23 33 0 78 -34 88
-66 3 -10 -1 -29 -10 -43 -20 -30 -14 -84 16 -154 11 -25 18 -45 17 -46 -2 -1
-13 -7 -25 -13 -28 -16 -37 -3 -28 37 10 48 -8 57 -105 56 -83 -1 -85 -2 -98
-30 -12 -24 -12 -36 2 -86 31 -110 20 -155 -56 -226 -47 -44 -248 -184 -263
-184 -6 0 116 139 194 223 33 35 40 38 74 32 l39 -5 -7 92 c-10 126 -28 152
-21 31 l5 -92 -28 5 c-25 5 -40 -9 -180 -166 -84 -94 -152 -173 -150 -175 2
-2 53 16 114 40 60 24 112 42 114 40 2 -3 -9 -23 -24 -45 -15 -22 -26 -42 -23
-45 2 -2 74 31 160 75 86 44 161 80 166 80 11 0 42 -65 42 -90 0 -12 -9 -20
-29 -25 -22 -5 -31 -14 -39 -43 -34 -116 -132 -516 -129 -525 2 -6 19 11 37
39 51 73 110 147 110 136 0 -5 -7 -47 -16 -92 -8 -45 -14 -86 -12 -91 2 -6 46
63 97 153 52 90 110 189 129 220 32 54 34 60 24 100 -6 23 -8 46 -5 51 3 5 28
7 56 4 41 -4 56 -10 80 -37 27 -30 27 -33 12 -53 -42 -58 -42 -55 4 -331 61
-365 63 -377 67 -374 3 4 89 524 100 604 5 45 3 53 -21 82 -22 26 -24 35 -15
52 17 32 70 60 114 60 l39 0 -7 -50 -7 -51 123 -209 c68 -114 124 -201 126
-192 1 9 -4 48 -12 87 -8 38 -13 71 -11 73 1 2 35 -40 74 -92 75 -99 97 -123
87 -90 -3 11 -35 136 -71 278 -36 143 -71 266 -77 273 -6 7 -18 13 -28 13 -24
0 -31 22 -19 63 18 67 25 67 181 -12 78 -39 144 -69 146 -66 3 3 -4 19 -16 35
-12 16 -22 33 -22 39 0 5 30 -4 68 -19 114 -48 202 -79 202 -72 -1 4 -20 28
-43 53 -23 26 -94 104 -157 173 -105 116 -117 127 -143 122 l-28 -6 7 90 c5
64 3 90 -5 90 -6 0 -11 -19 -11 -47 0 -42 -11 -105 -26 -154 -5 -17 50 -64
240 -204 52 -38 92 -71 87 -73 -4 -1 -54 18 -112 42 -88 38 -110 52 -141 91
-21 26 -38 52 -38 59 0 7 -11 22 -25 34 -34 29 -40 65 -26 136 35 176 30 187
-92 182 -46 -1 -89 -6 -96 -10 -10 -6 -11 -22 -7 -57 4 -27 5 -49 2 -49 -2 0
-15 10 -29 22 l-24 22 18 42 c30 66 35 130 14 154 -36 40 24 117 85 108 28 -4
30 -2 30 28 0 49 -41 78 -97 69 -53 -8 -55 5 -7 42 l37 27 -7 206 c-9 255 -29
479 -55 633 -12 66 -21 124 -21 130 0 6 -3 7 -7 4 -3 -4 -6 -223 -6 -486 1
-507 1 -501 -43 -484 -15 6 -16 35 -11 317 4 171 10 329 15 351 8 40 8 40 20
-35 l11 -75 -5 74 c-3 41 -5 108 -5 150 0 85 -18 82 -20 -4 -1 -27 -5 -63 -10
-80 -5 -19 -7 27 -6 118 2 161 -5 155 -28 -23 -20 -155 -34 -347 -36 -505 -2
-135 -6 -156 -20 -134 -8 12 -10 12 -18 0 -7 -11 -10 -10 -13 5 -3 10 -8 -3
-12 -31 -16 -116 -21 -122 -23 -30 -5 197 -37 480 -62 547 -8 22 -8 22 -14 3
-28 -96 -57 -358 -57 -519 0 -75 -3 -106 -10 -96 -5 8 -10 35 -11 60 0 47 -17
105 -18 66 -1 -15 -4 -16 -16 -6 -12 10 -15 9 -15 -6 0 -16 -2 -17 -10 -4 -7
11 -10 -4 -10 -50 0 -60 -12 -102 -24 -89 -3 3 -8 77 -11 165 -3 87 -12 263
-20 389 -16 264 -17 335 -3 352 6 8 7 22 1 40 l-10 28 -6 -34z m76 -990 c3
-14 -2 -20 -19 -24 -26 -5 -32 11 -12 31 17 17 25 15 31 -7z m347 -11 c0 -9
-50 -23 -57 -16 -2 2 4 13 13 25 13 15 21 18 31 9 7 -6 13 -14 13 -18z m-430
-20 c0 -11 -4 -20 -10 -20 -5 0 -10 9 -10 20 0 11 5 20 10 20 6 0 10 -9 10
-20z m495 10 c11 -17 -5 -32 -21 -19 -7 6 -11 15 -8 20 7 12 21 11 29 -1z
m-148 -35 c-7 -13 -14 -20 -15 -14 -2 5 2 16 8 24 18 21 20 18 7 -10z m-217
-88 c0 -9 -11 -13 -30 -12 -40 2 -44 -6 -26 -50 16 -37 49 -48 74 -23 9 9 12
6 12 -15 0 -16 8 -30 21 -37 11 -7 27 -27 35 -46 8 -19 16 -34 19 -34 3 0 11
15 19 34 8 19 24 39 35 46 13 6 21 21 21 37 0 21 2 23 15 13 24 -20 62 -4 74
31 14 40 9 47 -29 43 -21 -3 -30 1 -30 11 0 10 10 15 30 15 23 0 33 -7 46 -32
12 -23 14 -36 6 -48 -6 -10 -13 -38 -17 -64 -9 -55 -17 -63 -47 -42 -12 9 -30
16 -40 16 -25 0 -57 -38 -70 -85 -6 -23 -13 -34 -15 -25 -3 8 -15 34 -26 58
-25 50 -55 62 -93 37 -31 -20 -40 -12 -50 45 -3 19 -10 45 -16 57 -8 16 -7 30
2 52 10 26 18 31 46 31 22 0 34 -5 34 -13z m-157 -177 l6 -45 -14 32 c-8 18
-12 39 -9 48 9 21 10 18 17 -35z m544 23 c-8 -39 -27 -87 -32 -81 -8 7 19 108
29 108 5 0 6 -12 3 -27z m-369 -80 c12 -10 24 -36 28 -58 l7 -40 -42 50 c-22
27 -41 53 -41 57 0 14 27 8 48 -9z m211 -5 c-7 -13 -25 -38 -40 -56 -26 -29
-29 -30 -29 -12 0 26 25 77 42 83 31 13 39 8 27 -15z m316 -185 c-4 -35 -11
-63 -17 -63 -6 0 -8 11 -4 28 4 15 10 61 14 102 5 58 8 66 10 35 2 -22 1 -68
-3 -102z m-859 -57 c-6 -17 -24 38 -32 93 -3 28 -3 58 1 68 8 19 39 -141 31
-161z m350 114 c7 0 15 6 17 13 3 6 6 -3 6 -20 l1 -33 -44 27 c-24 14 -48 34
-54 44 -9 14 -3 13 25 -6 19 -14 42 -25 49 -25z m-178 7 c5 -37 -15 -34 -20 3
-3 19 -1 29 6 27 6 -2 12 -16 14 -30z m392 23 c0 -9 -79 -60 -93 -60 -4 0 -7
7 -7 15 0 8 8 15 18 15 9 0 31 9 47 19 36 24 35 23 35 11z m120 -19 c0 -11 -4
-23 -10 -26 -6 -4 -10 5 -10 19 0 14 5 26 10 26 6 0 10 -9 10 -19z m197 -48
c-3 -10 -5 -2 -5 17 0 19 2 27 5 18 2 -10 2 -26 0 -35z m-580 -35 c31 -11 33
-15 27 -45 -5 -28 -3 -34 19 -42 34 -13 41 -37 15 -55 -18 -13 -23 -13 -44 1
-21 13 -31 14 -70 3 -39 -11 -47 -11 -55 1 -6 11 -1 15 25 17 41 4 47 16 35
71 -9 40 -6 61 8 61 4 0 22 -5 40 -12z m73 2 c0 -5 -5 -10 -11 -10 -5 0 -7 5
-4 10 3 6 8 10 11 10 2 0 4 -4 4 -10z m105 0 c3 -5 1 -10 -4 -10 -6 0 -11 5
-11 10 0 6 2 10 4 10 3 0 8 -4 11 -10z m108 -2 c2 -7 0 -30 -5 -51 -10 -46 -6
-54 33 -62 16 -4 28 -12 26 -18 -4 -13 -24 -13 -73 -2 -22 5 -35 2 -47 -9 -20
-20 -31 -20 -51 -1 -19 20 -10 44 20 56 26 9 33 46 12 67 -9 9 -7 12 13 12 13
0 31 5 39 10 20 13 28 12 33 -2z m137 -98 c-30 -58 -35 -45 -7 20 12 29 23 46
25 37 2 -8 -6 -34 -18 -57z m-595 -10 c7 -25 7 -25 -8 -4 -9 11 -19 34 -22 50
l-6 29 14 -25 c8 -14 18 -36 22 -50z m-186 -90 c-45 -31 -210 -120 -222 -120
-19 0 73 77 116 97 20 9 37 22 37 29 0 7 7 20 16 28 14 15 18 15 45 -1 l30
-18 -22 -15z m1021 35 c0 -8 -4 -15 -9 -15 -13 0 -22 16 -14 24 11 11 23 6 23
-9z m51 -17 c10 -18 9 -20 -6 -15 -9 4 -19 7 -21 7 -2 0 -4 7 -4 15 0 22 18
18 31 -7z m-917 -64 c3 -9 6 -31 6 -50 0 -26 -4 -34 -17 -34 -15 0 -17 8 -15
50 4 50 14 64 26 34z m287 -36 c7 -42 24 -88 34 -88 10 0 27 46 34 89 5 35 11
46 26 49 18 2 19 2 3 -8 -12 -7 -18 -24 -18 -48 0 -38 -28 -103 -45 -106 -16
-2 -45 66 -45 105 0 19 -6 41 -12 48 -11 11 -10 13 2 9 9 -3 18 -23 21 -50z
m369 20 c0 -34 -15 -67 -25 -57 -8 9 6 89 16 89 5 0 9 -15 9 -32z m298 16 c12
-8 27 -24 33 -35 9 -18 8 -19 -8 -11 -24 13 -69 62 -57 62 5 0 20 -7 32 -16z
m-1007 -175 c-10 -41 -35 -109 -55 -151 -20 -43 -52 -112 -71 -154 -20 -42
-38 -75 -40 -72 -5 4 100 417 107 423 6 5 73 32 76 30 1 -1 -6 -35 -17 -76z
m707 48 c11 -13 52 -182 52 -213 0 -21 -57 56 -77 103 -9 23 -12 49 -7 79 7
46 14 53 32 31z m-567 -48 c7 -45 -5 -73 -76 -189 -11 -19 -38 -69 -59 -110
-64 -124 -71 -117 -20 20 30 81 58 134 97 183 26 34 29 44 24 87 -3 26 -3 51
0 54 15 15 28 -3 34 -45z m738 -302 c61 -130 54 -131 -33 -3 -44 64 -62 102
-72 149 -24 110 -16 118 25 27 21 -47 57 -124 80 -173z m-109 59 c18 -41 38
-136 26 -125 -5 5 -66 167 -66 176 0 15 25 -17 40 -51z"/>
<path d="M1462 2800 c0 -14 2 -19 5 -12 2 6 2 18 0 25 -3 6 -5 1 -5 -13z"/>
<path d="M1032 2775 c0 -16 2 -22 5 -12 2 9 2 23 0 30 -3 6 -5 -1 -5 -18z"/>
<path d="M932 2760 c0 -14 2 -19 5 -12 2 6 2 18 0 25 -3 6 -5 1 -5 -13z"/>
<path d="M1043 2700 c0 -25 2 -35 4 -22 2 12 2 32 0 45 -2 12 -4 2 -4 -23z"/>
<path d="M922 2690 c0 -19 2 -27 5 -17 2 9 2 25 0 35 -3 9 -5 1 -5 -18z"/>
<path d="M906 2608 c-3 -24 -8 -101 -10 -173 -2 -71 -2 -105 0 -75 2 30 9 106
15 168 10 112 8 163 -5 80z"/>
<path d="M1051 2604 c0 -11 3 -14 6 -6 3 7 2 16 -1 19 -3 4 -6 -2 -5 -13z"/>
<path d="M1063 2495 c0 -27 2 -38 4 -22 2 15 2 37 0 50 -2 12 -4 0 -4 -28z"/>
<path d="M1074 2290 c0 -58 1 -81 3 -52 2 28 2 76 0 105 -2 28 -3 5 -3 -53z"/>
</g>
</svg>
