<?xml version="1.0" standalone="no"?>
<!DOCTYPE svg PUBLIC "-//W3C//DTD SVG 20010904//EN"
 "http://www.w3.org/TR/2001/REC-SVG-20010904/DTD/svg10.dtd">
<svg version="1.0" xmlns="http://www.w3.org/2000/svg"
 width="244.000000pt" height="305.000000pt" viewBox="0 0 244.000000 305.000000"
 preserveAspectRatio="xMidYMid meet">
<metadata>
Created by potrace 1.16, written by Peter Selinger 2001-2019
</metadata>
<g transform="translate(0.000000,305.000000) scale(0.100000,-0.100000)"
fill="#000000" stroke="none">
<path d="M907 2895 c-12 -40 -46 -233 -62 -353 -20 -156 -37 -575 -25 -608 5
-13 14 -24 19 -24 6 0 27 -15 47 -32 25 -22 39 -29 42 -20 2 7 23 26 47 42 38
26 43 34 40 62 -2 18 -4 102 -5 187 -3 227 -30 487 -65 621 -8 30 -12 39 -9
20 2 -19 14 -96 24 -171 21 -143 40 -410 40 -570 l0 -96 -38 -27 c-21 -14 -41
-26 -45 -26 -4 0 -7 217 -7 483 0 315 4 477 10 467 9 -13 10 -13 9 0 -1 8 -4
26 -8 40 -7 23 -8 23 -14 5z"/>
<path d="M1532 2808 c-48 -230 -72 -464 -72 -710 l0 -176 33 -21 c17 -11 39
-26 48 -32 14 -10 23 -7 55 19 21 18 44 32 51 32 10 0 13 22 13 83 0 122 -19
450 -31 542 -16 124 -59 349 -68 358 -5 5 -18 -38 -29 -95z m78 -223 c11 -84
24 -258 30 -386 l11 -233 -38 -33 c-21 -18 -41 -32 -45 -33 -5 0 -8 217 -7
483 1 530 4 544 49 202z"/>
<path d="M1101 2880 c-1 -14 -2 -193 -1 -398 1 -323 -1 -375 -15 -388 -13 -14
-15 0 -15 137 0 84 -2 150 -4 148 -2 -2 -6 -113 -7 -247 l-3 -243 28 -22 c22
-18 27 -29 24 -52 -4 -26 -5 -27 -12 -10 -26 69 -23 66 -72 61 -53 -5 -79 -25
-95 -74 l-12 -36 -19 41 c-45 95 -168 86 -168 -11 0 -25 2 -26 40 -20 36 6 43
3 75 -29 37 -37 45 -64 20 -73 -39 -15 -6 -148 59 -233 14 -19 26 -38 26 -43
0 -4 -15 -28 -32 -53 -24 -34 -32 -56 -32 -86 1 -21 -2 -39 -7 -39 -15 0 -31
42 -25 66 7 26 -12 153 -25 168 -4 5 -23 6 -42 2 -28 -5 -38 -13 -46 -38 -15
-43 -1 -88 59 -188 30 -50 48 -90 45 -100 -5 -11 -10 -6 -20 18 -8 18 -32 54
-54 80 -21 26 -46 61 -55 79 -22 44 -20 115 4 155 11 18 20 41 20 50 0 40 -95
53 -130 18 -25 -25 -25 -55 1 -136 27 -83 22 -139 -16 -172 -20 -17 -26 -30
-23 -54 3 -30 0 -33 -57 -56 -74 -30 -243 -92 -270 -99 -27 -7 43 42 215 152
138 88 141 91 135 120 -3 17 -11 67 -17 113 -16 111 -33 107 -24 -7 l7 -90
-33 5 c-30 5 -40 -2 -108 -67 -41 -40 -124 -119 -183 -175 -60 -57 -105 -104
-100 -104 4 0 110 34 236 77 210 71 227 78 227 100 0 36 23 38 87 6 48 -23 62
-36 80 -73 23 -50 17 -80 -17 -80 -26 0 -45 -31 -68 -115 -11 -38 -45 -153
-76 -255 -31 -102 -56 -191 -56 -198 0 -16 29 16 216 233 188 218 175 198 157
245 -18 45 -18 47 17 50 64 5 70 2 72 -37 1 -37 1 -37 5 -6 4 30 35 54 50 39
3 -3 -17 -102 -43 -221 -34 -152 -51 -208 -54 -188 -4 19 -8 5 -13 -46 -4 -41
-6 -75 -4 -77 2 -2 14 27 26 64 54 157 94 270 113 316 15 36 19 62 14 94 -5
37 -3 43 11 40 9 -2 25 -15 36 -31 l21 -27 -32 -33 c-18 -18 -32 -39 -32 -47
0 -13 116 -611 123 -635 4 -10 128 610 127 635 0 8 -14 29 -31 46 l-31 32 21
31 c30 41 41 39 41 -8 0 -41 26 -126 104 -336 25 -66 45 -112 46 -101 0 10
-11 109 -24 220 -14 110 -26 219 -28 241 l-3 39 50 -3 c28 -1 52 -4 54 -7 2
-2 -2 -24 -9 -49 -12 -44 -12 -45 22 -87 64 -78 341 -393 348 -396 9 -3 -17
97 -70 268 -23 74 -52 172 -66 217 -23 76 -27 82 -59 93 -45 15 -46 44 -2 100
22 29 47 48 81 61 55 21 66 18 66 -16 0 -21 10 -27 93 -54 50 -17 146 -49 212
-72 66 -22 134 -45 150 -50 24 -7 8 13 -80 99 -60 60 -146 141 -189 181 -71
66 -82 72 -111 67 l-31 -6 3 92 c3 108 -12 71 -20 -50 l-4 -72 46 5 46 6 145
-141 c156 -152 156 -152 -25 -45 -38 23 -103 61 -143 84 -114 67 -131 110 -91
241 21 70 17 101 -15 122 -20 14 -94 9 -110 -8 -21 -21 -20 -29 9 -72 45 -66
31 -124 -60 -249 -31 -42 -55 -86 -55 -100 0 -15 -4 -22 -11 -17 -19 11 -2 61
52 149 59 97 74 162 44 195 -20 22 -67 27 -83 8 -13 -17 -24 -89 -23 -154 1
-40 -3 -55 -20 -70 l-22 -19 7 37 c7 40 -9 82 -45 121 -10 12 -19 24 -19 29 0
5 18 35 41 68 35 51 68 137 69 176 0 6 -9 21 -19 33 -24 27 -17 54 22 87 24
20 39 25 69 22 42 -4 53 8 38 46 -11 30 -47 56 -78 56 -27 0 -92 -59 -92 -84
0 -28 -16 -17 -34 24 -19 43 -59 62 -109 53 -33 -7 -44 -20 -56 -69 l-9 -39
-1 46 c-1 40 3 48 30 68 l31 23 -6 77 c-4 42 -11 211 -16 376 -17 512 -24 528
-31 65 -4 -228 -10 -427 -14 -442 -13 -49 -25 -30 -26 40 -1 48 -3 59 -8 37
-4 -18 -10 28 -14 117 -4 93 -16 194 -31 271 -38 187 -40 189 -64 77 -33 -144
-40 -208 -52 -415 -5 -104 -10 -199 -10 -209 0 -11 -2 -17 -5 -15 -2 3 -7 176
-9 384 -3 212 -12 440 -19 515 -8 74 -15 124 -16 110z m174 -546 c15 -122 18
-274 6 -399 -4 -49 -9 9 -14 198 -4 148 -10 283 -14 300 -3 18 -3 29 1 26 3
-3 13 -59 21 -125z m57 -466 c-9 -9 -12 -4 -11 23 0 32 1 33 11 11 8 -17 8
-26 0 -34z m-36 -83 c0 -44 -3 -70 -7 -63 -14 21 -9 138 5 138 1 0 2 -34 2
-75z m-233 -24 c15 -2 6 -21 -9 -21 -14 0 -15 -7 -11 -37 4 -20 12 -40 18 -44
8 -4 10 -26 7 -63 -3 -30 -1 -57 2 -58 4 -2 11 -19 15 -38 l7 -35 -21 19 c-31
29 -80 108 -87 144 -4 17 -13 37 -20 43 -21 17 -17 40 12 70 19 19 34 26 53
24 14 -2 29 -4 34 -4z m431 -16 c29 -26 34 -56 12 -74 -7 -6 -16 -27 -19 -46
-7 -41 -79 -145 -102 -145 -11 0 -4 39 9 53 9 9 11 19 5 28 -15 24 -11 99 6
99 8 0 18 15 23 33 10 36 7 47 -14 47 -8 0 -14 4 -14 9 0 8 19 15 56 20 6 0
23 -10 38 -24z m-344 -85 c0 -35 4 -42 28 -51 26 -10 26 -11 8 -24 -13 -10
-24 -11 -37 -4 -15 8 -19 21 -19 64 0 30 5 55 10 55 6 0 10 -18 10 -40z m141
-4 c14 -15 11 -26 -6 -26 -11 0 -15 10 -14 38 1 21 3 28 6 17 3 -11 9 -24 14
-29z m49 -11 c0 -50 -19 -76 -50 -68 -26 7 -21 27 8 31 19 3 22 10 22 48 0 28
4 43 10 39 6 -3 10 -26 10 -50z m-410 -40 c0 -9 9 -33 20 -55 22 -43 25 -60
10 -60 -14 0 -50 75 -50 105 0 14 5 25 10 25 6 0 10 -7 10 -15z m177 -17 c-3
-7 -5 -2 -5 12 0 14 2 19 5 13 2 -7 2 -19 0 -25z m260 0 c-3 -7 -5 -2 -5 12 0
14 2 19 5 13 2 -7 2 -19 0 -25z m203 29 c0 -24 -35 -108 -50 -122 -19 -17 -20
-17 -20 0 0 23 50 125 61 125 5 0 9 -1 9 -3z m-321 -91 c-2 -23 -17 -60 -18
-46 -1 8 -4 24 -7 36 -4 14 -1 21 10 21 9 0 16 -5 15 -11z m-98 -73 c16 -37
26 -69 24 -71 -6 -6 -4 -9 -32 48 -24 48 -41 110 -28 98 5 -5 21 -38 36 -75z
m205 54 c-9 -36 -57 -139 -63 -133 -4 4 39 124 54 149 9 15 15 6 9 -16z m-324
-79 c-15 -15 -24 -6 -16 16 5 12 10 14 17 7 8 -8 8 -14 -1 -23z m418 1 c0 -11
-4 -17 -10 -14 -5 3 -10 13 -10 21 0 8 5 14 10 14 6 0 10 -9 10 -21z m-345
-32 c24 -18 11 -41 -16 -27 -10 6 -19 17 -19 25 0 19 11 19 35 2z m274 -28
c-24 -14 -36 11 -14 27 18 13 20 13 23 -2 2 -9 -2 -20 -9 -25z m-335 -110 c22
-92 14 -101 -13 -14 -23 74 -25 85 -13 85 5 0 16 -32 26 -71z m391 -10 c-10
-33 -20 -57 -22 -55 -5 5 16 116 25 131 15 24 13 -23 -3 -76z m-327 -51 c11
-11 16 -10 27 5 9 13 20 17 35 12 26 -8 23 -38 -5 -43 -11 -2 -27 -10 -36 -18
-13 -12 -17 -9 -32 21 -10 21 -16 57 -16 88 l2 52 6 -52 c4 -29 12 -58 19 -65z
m62 102 c0 -5 -10 -10 -22 -10 -19 0 -20 2 -8 10 19 13 30 13 30 0z m155 0 c3
-5 -1 -10 -9 -10 -9 0 -16 5 -16 10 0 6 4 10 9 10 6 0 13 -4 16 -10z m65 -30
c0 -39 -26 -120 -39 -120 -3 0 -14 7 -24 15 -11 7 -26 11 -34 8 -11 -4 -14 0
-11 18 2 16 11 25 26 27 12 2 22 -1 22 -7 0 -6 7 -11 15 -11 20 0 38 46 32 83
-2 15 0 27 5 27 4 0 8 -18 8 -40z m-461 -69 c14 -9 9 -41 -7 -41 -15 0 -34 28
-27 40 8 12 16 13 34 1z m611 -30 c8 -16 6 -21 -11 -26 -26 -9 -30 -5 -22 23
7 27 19 28 33 3z m-670 -85 c0 -8 -4 -18 -10 -21 -5 -3 -10 3 -10 14 0 12 5
21 10 21 6 0 10 -6 10 -14z m755 -46 c18 -35 4 -41 -19 -8 -18 26 -20 38 -6
38 5 0 16 -13 25 -30z m-740 -39 c3 -11 3 -30 0 -44 -4 -14 -2 -42 4 -63 9
-31 7 -42 -7 -64 -25 -38 -180 -225 -230 -279 l-44 -46 53 100 c139 265 199
386 199 400 0 21 17 19 25 -4z m763 -26 c13 -11 40 -25 60 -30 41 -12 36 -1
107 -230 26 -82 51 -163 56 -179 27 -85 8 -59 -103 144 -47 85 -103 187 -125
225 -23 39 -44 81 -48 95 -7 23 -7 24 11 10 10 -8 29 -23 42 -35z m-398 -31
c0 -14 -14 -33 -21 -28 -15 9 -10 31 6 31 8 0 15 -1 15 -3z m153 -31 c3 -16
22 -98 42 -183 19 -85 34 -162 33 -170 -2 -8 -27 55 -56 142 -43 128 -51 164
-46 197 8 47 19 53 27 14z m-63 -142 c0 -9 -5 -34 -11 -56 -5 -22 -23 -105
-38 -185 -34 -168 -37 -151 -16 94 10 121 12 183 5 196 -21 40 -8 43 25 6 19
-22 35 -46 35 -55z"/>
<path d="M1362 2880 c0 -14 2 -19 5 -12 2 6 2 18 0 25 -3 6 -5 1 -5 -13z"/>
<path d="M1352 2780 c0 -14 2 -19 5 -12 2 6 2 18 0 25 -3 6 -5 1 -5 -13z"/>
<path d="M1082 2715 c0 -16 2 -22 5 -12 2 9 2 23 0 30 -3 6 -5 -1 -5 -18z"/>
<path d="M1343 2625 c0 -27 2 -38 4 -22 2 15 2 37 0 50 -2 12 -4 0 -4 -28z"/>
<path d="M1073 2555 c0 -38 2 -53 4 -32 2 20 2 52 0 70 -2 17 -4 1 -4 -38z"/>
<path d="M1333 2420 c0 -25 2 -35 4 -22 2 12 2 32 0 45 -2 12 -4 2 -4 -23z"/>
<path d="M990 750 c-7 -61 -11 -113 -8 -115 2 -3 10 45 18 105 7 61 10 113 8
116 -3 2 -11 -45 -18 -106z"/>
<path d="M972 590 c0 -19 2 -27 5 -17 2 9 2 25 0 35 -3 9 -5 1 -5 -18z"/>
</g>
</svg>
