<?xml version="1.0" standalone="no"?>
<!DOCTYPE svg PUBLIC "-//W3C//DTD SVG 20010904//EN"
 "http://www.w3.org/TR/2001/REC-SVG-20010904/DTD/svg10.dtd">
<svg version="1.0" xmlns="http://www.w3.org/2000/svg"
 width="244.000000pt" height="305.000000pt" viewBox="0 0 244.000000 305.000000"
 preserveAspectRatio="xMidYMid meet">
<metadata>
Created by potrace 1.16, written by Peter Selinger 2001-2019
</metadata>
<g transform="translate(0.000000,305.000000) scale(0.100000,-0.100000)"
fill="#000000" stroke="none">
<path d="M957 2753 c2 -87 0 -313 -4 -502 l-8 -343 -30 28 -31 29 7 240 c4
132 15 305 24 384 9 79 14 145 12 147 -15 15 -44 -336 -51 -606 l-5 -205 31
-20 c52 -33 49 -48 -9 -40 -47 6 -52 5 -72 -21 -11 -14 -21 -37 -21 -50 0 -21
5 -24 39 -24 32 0 43 -6 65 -34 30 -39 32 -58 11 -76 -8 -7 -15 -23 -15 -37 0
-35 21 -115 37 -140 13 -19 12 -23 -9 -37 -35 -25 -41 -20 -34 27 5 31 3 47
-6 54 -7 6 -50 11 -95 11 -118 1 -130 -17 -98 -141 8 -32 15 -69 15 -83 0 -35
-27 -80 -72 -122 -46 -42 -268 -195 -274 -189 -3 3 8 18 23 33 44 46 197 215
204 226 3 5 22 6 43 3 l36 -7 -1 73 c0 80 -15 174 -19 129 -2 -14 -2 -58 0
-99 l2 -74 -27 7 c-16 4 -31 3 -34 -2 -5 -8 -49 -56 -254 -280 -33 -35 -57
-66 -54 -68 3 -3 59 17 126 44 66 27 123 47 125 44 3 -2 -6 -20 -21 -38 -14
-19 -21 -34 -15 -34 6 0 74 32 151 70 76 39 146 70 154 70 9 0 22 -19 31 -47
21 -61 21 -61 -17 -76 -26 -11 -34 -23 -43 -58 -7 -24 -31 -118 -53 -209 -23
-91 -51 -198 -61 -239 -19 -72 -18 -104 1 -69 5 9 27 39 49 67 22 28 40 55 40
61 0 5 4 10 8 10 5 0 14 10 21 22 10 20 11 16 6 -27 -2 -27 -7 -66 -10 -85 -6
-34 -5 -34 10 -15 9 11 44 67 77 125 34 58 85 145 115 195 45 75 52 94 47 120
-13 57 -11 60 31 63 49 3 102 -27 111 -63 4 -18 -1 -33 -19 -55 -14 -16 -23
-37 -21 -47 2 -10 26 -155 54 -322 28 -168 53 -307 55 -310 3 -2 5 -1 5 2 0 4
23 144 50 312 28 168 50 315 50 326 0 12 -11 34 -25 51 -18 21 -22 34 -16 46
19 36 52 55 101 60 58 5 69 -8 51 -59 -8 -22 -8 -37 0 -52 38 -76 254 -426
257 -418 2 6 -4 43 -13 82 -9 39 -14 74 -11 76 4 4 62 -70 100 -130 10 -15 22
-27 27 -27 4 0 4 12 0 27 -10 31 -60 227 -87 338 -41 171 -53 203 -79 209 -21
5 -25 12 -25 41 0 21 9 44 23 59 l22 26 110 -57 c235 -122 252 -127 199 -57
-31 40 -30 40 36 14 27 -11 72 -29 100 -40 l50 -20 -36 50 c-19 27 -38 50 -42
52 -4 2 -57 58 -116 126 -100 113 -111 122 -137 117 l-27 -6 3 98 4 98 -14
-88 c-18 -108 -30 -135 -41 -92 -4 18 -1 52 9 91 22 80 21 100 -2 123 -15 15
-34 19 -90 19 -80 0 -96 -11 -86 -57 7 -34 0 -41 -38 -34 -32 6 -33 12 -7 65
21 44 27 132 10 143 -20 12 -10 57 20 87 25 25 36 29 60 24 28 -5 30 -3 30 23
0 44 -30 75 -71 73 -56 -2 -67 12 -29 39 l33 24 -7 242 c-7 242 -22 423 -52
603 -19 118 -24 133 -34 100 -11 -35 -11 -60 0 -35 5 12 8 -29 8 -110 0 -90
-3 -119 -9 -95 -6 28 -7 24 -4 -20 3 -30 8 -189 11 -353 7 -276 6 -299 -11
-317 -10 -11 -22 -17 -27 -14 -5 3 -8 204 -7 485 2 263 0 482 -4 486 -4 3 -7
4 -7 1 0 -3 -11 -93 -25 -199 -16 -126 -27 -280 -32 -439 -5 -191 -9 -236 -17
-202 -6 28 -13 41 -22 38 -7 -3 -15 0 -17 7 -2 7 -8 -17 -12 -53 -13 -114 -24
-112 -24 5 -1 177 -20 351 -53 499 -14 62 -22 48 -42 -69 -23 -142 -29 -199
-35 -370 -7 -154 -12 -167 -27 -60 -4 28 -9 44 -11 37 -4 -10 -9 -8 -19 5 -13
17 -13 17 -14 1 0 -10 -4 -18 -10 -18 -5 0 -11 54 -13 128 -2 85 -3 64 -3 -66
-1 -119 -5 -197 -11 -203 -8 -8 -13 48 -17 178 -4 103 -11 244 -16 313 -20
251 -24 404 -12 396 14 -8 15 18 2 49 -6 16 -10 8 -15 -33 -9 -61 -20 -53 -30
20 -13 94 -21 46 -18 -109z m483 -883 c0 -4 -13 -5 -28 -2 -25 3 -28 8 -24 28
l5 25 23 -22 c13 -12 24 -25 24 -29z m-350 -1 c0 -3 -11 -4 -25 -1 -28 5 -31
12 -13 30 10 10 15 9 25 -5 7 -9 13 -20 13 -24z m-90 -4 c0 -8 -7 -15 -15 -15
-9 0 -12 6 -9 15 4 8 10 15 15 15 5 0 9 -7 9 -15z m490 -11 c0 -14 -12 -19
-23 -8 -9 9 4 35 14 28 5 -3 9 -12 9 -20z m-66 -127 c7 -20 7 -34 -2 -47 -7
-11 -12 -31 -12 -44 0 -14 -4 -36 -10 -51 -9 -25 -11 -25 -39 -10 -17 8 -37
15 -45 15 -23 0 -53 -38 -69 -84 l-14 -41 -11 40 c-17 60 -47 88 -85 81 -17
-4 -34 -11 -38 -17 -12 -20 -27 0 -34 44 -3 23 -11 52 -18 65 -17 35 9 76 51
80 24 3 32 -1 32 -13 0 -14 -6 -16 -35 -11 -35 7 -36 6 -29 -21 13 -55 23 -65
60 -61 30 3 34 1 34 -18 0 -13 8 -24 20 -27 11 -3 27 -21 35 -41 9 -20 18 -36
21 -36 3 0 10 13 15 29 6 16 21 37 35 46 15 10 24 25 24 42 0 21 3 24 12 15
32 -32 78 -3 78 51 0 20 -4 24 -30 22 -17 -1 -33 2 -36 7 -11 17 7 25 43 19
29 -5 40 -12 47 -34z m-451 -162 l6 -40 -14 30 c-16 34 -20 75 -6 60 5 -6 11
-28 14 -50z m534 13 c-3 -8 -6 -5 -6 6 -1 11 2 17 5 13 3 -3 4 -12 1 -19z
m-359 -65 c11 -10 23 -34 27 -53 l6 -35 -41 44 c-22 24 -40 47 -40 52 0 15 27
10 48 -8z m208 -10 c-17 -33 -66 -81 -66 -65 0 40 38 92 67 92 11 0 11 -5 -1
-27z m-537 -231 c1 -7 -3 -11 -8 -8 -13 9 -34 144 -25 164 5 11 11 -10 20 -63
7 -44 13 -86 13 -93z m687 112 c-4 -19 -11 -32 -17 -29 -13 8 -11 42 3 68 15
29 22 8 14 -39z m-126 26 c-6 -11 -28 -29 -50 -40 -47 -24 -50 -24 -50 -5 0 8
8 15 19 15 10 0 33 11 52 24 42 30 42 30 29 6z m-387 -36 c-10 -25 -23 -15
-23 19 1 30 2 31 15 14 7 -11 11 -25 8 -33z m694 -10 c-6 -62 -27 -99 -27 -48
0 49 12 104 23 104 6 0 8 -21 4 -56z m-522 21 c11 -1 21 -9 23 -18 4 -22 -6
-21 -45 3 -35 21 -45 37 -15 25 9 -4 26 -8 37 -10z m-33 -82 c23 -4 26 -8 18
-24 -16 -30 -11 -49 15 -59 17 -7 25 -17 25 -34 0 -30 -27 -39 -53 -18 -14 13
-26 13 -64 5 -26 -6 -51 -9 -55 -7 -17 10 -7 23 20 26 25 3 27 6 28 53 3 78 2
78 22 70 9 -3 29 -9 44 -12z m273 -49 l0 -59 33 -3 c20 -2 32 -8 29 -15 -4
-13 -20 -13 -78 -2 -27 5 -40 3 -53 -11 -22 -21 -49 -9 -54 25 -3 15 4 24 24
31 23 9 26 14 21 44 -5 31 -3 34 26 44 18 5 37 9 42 7 6 -1 10 -28 10 -61z
m-455 -68 c-1 -16 -39 57 -39 74 0 8 9 -3 19 -24 11 -22 20 -44 20 -50z m836
26 c-9 -8 -26 10 -26 26 1 15 2 15 15 -2 8 -11 13 -21 11 -24z m68 -83 l19
-32 -29 7 c-42 11 -56 28 -48 60 6 24 8 25 23 12 9 -8 25 -29 35 -47z m13 44
c11 -10 63 -49 116 -88 53 -38 96 -73 96 -77 1 -9 -63 14 -117 41 -23 11 -57
42 -76 68 -20 27 -40 54 -46 61 -16 18 4 15 27 -5z m-1111 -37 c10 -8 17 -16
14 -18 -12 -10 -168 -95 -195 -107 l-30 -13 29 30 c15 17 48 41 72 53 25 14
45 33 49 46 6 26 32 30 61 9z m160 -70 c10 -41 1 -81 -20 -84 -14 -3 -17 0
-12 13 3 9 6 34 6 56 0 43 16 53 26 15z m376 2 c-7 -7 -12 -27 -12 -46 0 -34
-24 -97 -41 -108 -14 -8 -49 76 -48 116 l1 35 8 -42 c11 -52 28 -85 40 -78 9
6 22 47 35 108 3 15 11 27 17 27 9 0 9 -3 0 -12z m628 -33 c34 -36 19 -40 -21
-5 -22 19 -29 30 -18 30 8 0 26 -11 39 -25z m-363 -27 c-3 -7 -5 -2 -5 12 0
14 2 19 5 13 2 -7 2 -19 0 -25z m-681 -66 c-3 -10 -13 -44 -21 -77 -17 -66
-158 -381 -163 -362 -1 7 22 104 51 217 53 204 53 205 88 222 43 23 52 22 45
0z m719 -70 c10 -32 21 -70 26 -86 5 -16 10 -41 10 -55 1 -21 3 -20 8 8 6 33
9 29 69 -99 34 -73 60 -135 58 -137 -6 -7 -84 111 -106 160 -10 23 -19 36 -19
28 -1 -22 -49 45 -82 114 -29 60 -34 90 -23 133 6 21 8 22 25 6 10 -9 25 -41
34 -72z m-600 41 c4 -16 8 -35 9 -43 4 -18 -21 -69 -85 -177 -25 -43 -58 -100
-73 -126 -15 -27 -29 -47 -32 -45 -10 11 60 168 106 235 48 71 51 79 45 120
-3 23 -3 47 0 53 11 18 25 10 30 -17z m664 -323 c5 -19 12 -51 15 -70 l7 -35
-17 35 c-17 38 -54 139 -54 149 1 16 41 -49 49 -79z"/>
<path d="M1470 2743 c0 -54 3 -73 10 -63 13 20 13 127 0 135 -6 4 -10 -22 -10
-72z"/>
<path d="M932 2780 c0 -14 2 -19 5 -12 2 6 2 18 0 25 -3 6 -5 1 -5 -13z"/>
<path d="M1030 2741 c0 -17 4 -32 8 -35 4 -2 6 11 4 30 -5 42 -12 45 -12 5z"/>
<path d="M1042 2655 c0 -16 2 -22 5 -12 2 9 2 23 0 30 -3 6 -5 -1 -5 -18z"/>
<path d="M1053 2580 c0 -25 2 -35 4 -22 2 12 2 32 0 45 -2 12 -4 2 -4 -23z"/>
<path d="M1063 2455 c0 -38 2 -53 4 -32 2 20 2 52 0 70 -2 17 -4 1 -4 -38z"/>
</g>
</svg>
