<?xml version="1.0" standalone="no"?>
<!DOCTYPE svg PUBLIC "-//W3C//DTD SVG 20010904//EN"
 "http://www.w3.org/TR/2001/REC-SVG-20010904/DTD/svg10.dtd">
<svg version="1.0" xmlns="http://www.w3.org/2000/svg"
 width="244.000000pt" height="305.000000pt" viewBox="0 0 244.000000 305.000000"
 preserveAspectRatio="xMidYMid meet">
<metadata>
Created by potrace 1.16, written by Peter Selinger 2001-2019
</metadata>
<g transform="translate(0.000000,305.000000) scale(0.100000,-0.100000)"
fill="#000000" stroke="none">
<path d="M901 2874 c-43 -169 -69 -384 -82 -687 l-11 -252 22 -15 c12 -8 36
-27 53 -42 l32 -26 35 29 c19 16 42 35 51 42 17 15 18 91 4 382 -9 196 -51
496 -72 515 -3 3 -3 -11 1 -30 37 -193 66 -508 66 -732 l0 -106 -37 -23 c-21
-13 -41 -25 -45 -27 -5 -2 -8 214 -8 480 0 320 4 478 10 468 7 -11 8 -5 4 20
-9 48 -11 48 -23 4z"/>
<path d="M1543 2864 c-44 -152 -74 -404 -80 -684 l-5 -255 50 -37 50 -36 22
23 c12 13 35 29 50 35 l29 12 -5 161 c-3 89 -9 223 -15 297 -10 133 -48 404
-56 397 -2 -3 5 -72 16 -153 29 -211 41 -367 40 -534 l0 -145 -35 -22 c-20
-13 -40 -23 -45 -23 -13 0 -12 923 1 936 5 5 6 22 2 38 l-8 29 -11 -39z"/>
<path d="M1127 2698 c-4 -79 -10 -255 -14 -393 -4 -137 -9 -240 -11 -227 -4
25 -17 29 -25 8 -6 -14 -14 -69 -22 -145 -4 -38 -1 -48 20 -67 15 -14 22 -29
19 -39 -6 -14 -8 -14 -20 3 -17 25 -67 35 -99 20 -13 -6 -33 -29 -43 -52 l-19
-40 -21 40 c-13 25 -33 46 -50 53 -56 23 -116 -13 -110 -65 3 -27 6 -29 44
-26 36 3 44 -1 72 -33 36 -40 39 -57 17 -75 -35 -29 2 -166 64 -235 31 -35 31
-41 2 -74 -16 -18 -35 -46 -42 -62 -10 -26 -9 -34 8 -57 11 -15 34 -31 51 -37
33 -9 38 -20 24 -43 -14 -21 -58 3 -92 50 -25 34 -30 49 -26 78 7 46 -15 150
-35 163 -25 16 -69 0 -79 -29 -16 -41 0 -99 47 -177 85 -136 93 -158 97 -260
2 -50 7 -100 11 -109 8 -19 -3 -34 -169 -236 -59 -73 -111 -131 -113 -128 -3
3 10 33 29 68 20 35 66 122 103 193 38 72 77 146 87 165 38 73 15 182 -60 281
-61 80 -68 93 -76 148 -5 36 -2 51 19 86 14 24 25 50 25 59 0 21 -32 36 -79
36 -75 0 -85 -38 -47 -177 21 -75 10 -131 -30 -161 -23 -16 -25 -22 -15 -40
15 -29 14 -39 -6 -45 -10 -3 -90 -33 -177 -66 -88 -33 -162 -59 -164 -57 -2 3
38 31 90 64 238 153 288 188 288 202 0 8 -7 37 -15 64 -8 27 -15 68 -15 92 0
24 -5 46 -11 50 -8 5 -10 -18 -7 -85 l4 -91 -32 6 c-29 5 -39 -2 -155 -112
-68 -65 -154 -147 -191 -181 -36 -35 -62 -63 -57 -63 5 0 83 25 172 56 89 31
195 67 235 81 62 21 72 28 72 48 0 35 15 38 67 15 59 -26 80 -45 104 -93 23
-44 20 -52 -27 -72 -19 -8 -36 -20 -38 -27 -2 -7 -28 -92 -56 -188 -28 -96
-65 -217 -81 -267 -16 -51 -29 -96 -29 -100 0 -12 52 42 149 156 260 306 243
283 235 321 -13 67 -15 65 65 68 44 2 77 -1 81 -7 5 -9 -15 -290 -34 -471 l-4
-45 14 44 c7 24 11 56 8 70 -5 21 -3 23 6 11 9 -12 10 -10 6 12 -5 23 9 134
40 320 4 21 11 38 16 38 12 0 6 -66 -16 -175 -18 -94 -19 -102 -2 -55 l13 35
21 -95 c12 -52 38 -182 59 -289 20 -106 38 -189 40 -185 1 5 28 135 58 288 31
154 57 281 58 283 2 1 21 -68 42 -155 33 -129 41 -150 43 -117 2 22 -1 41 -7
43 -7 2 -9 25 -6 60 2 34 1 45 -3 27 -5 -22 -14 12 -35 140 -31 195 -33 215
-13 215 10 0 16 -13 19 -37 l4 -38 1 41 c2 39 4 42 35 48 30 6 116 0 124 -8 2
-2 -2 -24 -9 -49 l-12 -45 59 -69 c32 -37 117 -137 188 -220 72 -84 132 -151
134 -149 2 2 -5 32 -16 67 -11 35 -45 152 -76 259 -66 227 -72 242 -104 250
-41 10 -47 32 -20 81 18 33 38 51 80 73 62 33 89 30 89 -8 0 -22 9 -27 83 -52
45 -15 145 -49 221 -75 77 -27 142 -46 145 -43 3 2 -17 26 -45 51 -27 26 -107
103 -177 171 -121 117 -130 124 -160 118 l-32 -6 2 97 c1 73 -1 89 -7 63 -7
-29 -13 -132 -11 -178 1 -9 12 -10 41 -6 39 6 41 6 132 -82 159 -154 178 -173
178 -179 0 -6 -90 44 -163 90 -26 16 -83 53 -127 80 -109 68 -131 120 -95 220
19 53 19 110 -1 129 -21 22 -86 20 -114 -2 l-23 -19 27 -45 c18 -31 26 -59 26
-90 0 -47 -6 -59 -101 -191 -30 -43 -34 -55 -33 -110 1 -78 13 -100 63 -117
37 -12 42 -18 60 -74 49 -150 112 -369 108 -373 -4 -4 -67 98 -67 109 0 3 -46
85 -101 184 -82 144 -102 189 -106 229 -5 53 4 75 92 225 67 112 57 207 -21
198 -26 -3 -29 -8 -42 -68 -7 -36 -11 -77 -8 -93 7 -37 -5 -65 -50 -110 -39
-40 -57 -43 -62 -11 -1 13 8 24 30 35 18 8 39 28 46 42 15 31 7 51 -39 105
l-29 32 45 65 c62 91 84 186 50 215 -23 19 -18 39 20 77 29 29 40 34 72 32 37
-3 38 -3 36 31 -2 41 -24 60 -73 60 -40 0 -82 -35 -95 -80 -8 -24 -9 -23 -26
18 -24 56 -68 77 -118 56 -40 -17 -41 -17 -41 -3 0 6 9 18 21 28 20 16 21 21
10 106 -6 50 -11 96 -11 103 0 6 -6 12 -14 12 -10 0 -18 -22 -26 -72 -6 -40
-15 -84 -20 -98 -5 -15 -9 170 -11 445 -2 449 -13 497 -20 88 -1 -84 -6 -150
-10 -147 -5 3 -9 16 -9 28 0 30 -40 227 -49 244 -8 14 -45 -126 -58 -218 -7
-53 -7 -54 -14 -20 -3 19 -7 -55 -8 -165 -2 -110 -6 -220 -11 -245 -4 -26 -7
158 -6 428 0 259 -2 472 -5 472 -3 0 -9 -64 -12 -142z m163 -533 c11 -152 10
-257 -5 -352 -5 -29 -3 -43 4 -43 17 0 13 -37 -5 -44 -14 -5 -15 3 -10 67 3
39 8 96 12 125 3 30 2 75 -2 100 -8 44 -9 39 -16 -58 -10 -155 -11 -224 -4
-264 9 -45 23 -47 29 -3 3 25 4 22 5 -14 2 -39 -1 -48 -18 -52 -14 -4 -20 0
-21 11 0 14 -2 13 -9 -3 -10 -24 -13 668 -3 770 l7 70 12 -75 c7 -41 17 -147
24 -235z m-217 -401 c28 -5 37 -11 37 -26 0 -20 -9 -21 -52 -3 -15 6 -18 2
-18 -22 0 -41 34 -72 61 -55 18 11 19 9 19 -32 0 -38 -3 -45 -25 -50 -13 -3
-31 -18 -38 -32 l-14 -26 -21 27 c-12 15 -27 46 -34 69 -6 22 -17 48 -25 57
-19 22 -16 33 13 68 27 33 36 35 97 25z m419 -21 c33 -32 35 -52 8 -76 -11 -9
-20 -29 -20 -43 0 -26 -35 -94 -48 -94 -3 0 -16 10 -27 23 -11 13 -28 26 -37
30 -13 5 -18 17 -18 47 0 38 1 39 21 28 18 -11 23 -10 40 11 10 13 19 34 19
47 0 24 -14 32 -25 14 -3 -5 -15 -10 -26 -10 -13 0 -19 7 -19 23 0 20 5 22 52
24 45 2 57 -1 80 -24z m-557 -150 c7 -29 33 -69 71 -110 21 -23 34 -73 18 -73
-24 0 -114 144 -114 183 0 35 16 35 25 0z m625 5 c-1 -36 -34 -102 -75 -147
-69 -76 -77 -43 -10 43 24 32 50 73 57 92 14 39 28 45 28 12z m-367 -1 c9 -23
-8 -40 -22 -23 -13 15 -7 36 9 36 4 0 10 -6 13 -13z m117 4 c0 -17 -12 -41
-20 -41 -11 0 -21 30 -14 41 7 12 34 12 34 0z m70 -99 c0 -26 -6 -41 -20 -50
-19 -11 -20 -10 -20 22 0 29 20 66 36 66 2 0 4 -17 4 -38z m-247 -15 c5 -21 7
-41 3 -44 -12 -13 -46 31 -46 59 0 44 32 33 43 -15z m104 -4 c-3 -10 -5 -2 -5
17 0 19 2 27 5 18 2 -10 2 -26 0 -35z m70 -45 c-3 -8 -6 -5 -6 6 -1 11 2 17 5
13 3 -3 4 -12 1 -19z m-260 -35 c-3 -10 -5 -4 -5 12 0 17 2 24 5 18 2 -7 2
-21 0 -30z m40 -15 c-3 -8 -6 -5 -6 6 -1 11 2 17 5 13 3 -3 4 -12 1 -19z m310
0 c-3 -8 -6 -5 -6 6 -1 11 2 17 5 13 3 -3 4 -12 1 -19z m-47 -12 c0 -8 -4 -17
-9 -21 -12 -7 -24 12 -16 25 9 15 25 12 25 -4z m-200 -12 c0 -9 -5 -14 -12
-12 -18 6 -21 28 -4 28 9 0 16 -7 16 -16z m330 -66 c-1 -40 -2 -42 -13 -20 -7
12 -16 19 -20 16 -4 -4 -7 2 -7 14 0 11 8 23 18 25 9 3 18 5 20 6 1 0 2 -18 2
-41z m-439 22 c10 -6 19 -21 18 -33 0 -16 -2 -18 -7 -7 -11 23 -33 23 -39 0
-9 -32 -23 -23 -23 15 0 37 14 44 51 25z m135 -17 c-10 -10 -19 5 -10 18 6 11
8 11 12 0 2 -7 1 -15 -2 -18z m134 7 c0 -5 -4 -10 -10 -10 -5 0 -10 5 -10 10
0 6 5 10 10 10 6 0 10 -4 10 -10z m135 -44 c9 4 16 -4 20 -23 4 -15 11 -38 17
-50 18 -38 4 -50 -24 -20 -27 29 -39 69 -36 121 l1 31 4 -32 c3 -22 8 -30 18
-27z m-342 -31 l6 -50 -14 50 c-8 28 -15 57 -15 65 1 33 18 -15 23 -65z m277
-1 c-16 -76 -22 -63 -8 17 6 35 13 58 15 52 3 -7 -1 -38 -7 -69z m-33 34 c-3
-7 -5 -2 -5 12 0 14 2 19 5 13 2 -7 2 -19 0 -25z m-303 -66 c-4 -18 -10 -32
-15 -32 -12 0 -11 14 3 45 15 32 20 27 12 -13z m291 -18 l-16 -38 -21 21 c-14
14 -18 27 -14 40 7 17 8 17 21 -1 14 -18 15 -17 27 9 18 41 22 13 3 -31z
m-173 21 c25 10 32 -14 12 -36 -17 -19 -19 -19 -31 -3 -7 10 -13 27 -13 38 0
15 3 17 8 8 5 -7 16 -10 24 -7z m-45 -57 c-3 -7 -5 -2 -5 12 0 14 2 19 5 13 2
-7 2 -19 0 -25z m120 -230 c-3 -8 -6 -5 -6 6 -1 11 2 17 5 13 3 -3 4 -12 1
-19z m-74 -64 c-8 -22 -23 -6 -23 24 1 25 2 26 15 9 7 -11 11 -25 8 -33z m162
-2 c-5 -13 -8 -14 -15 -3 -5 9 -3 22 3 33 10 16 12 16 15 3 2 -9 1 -24 -3 -33z
m-66 -3 l1 25 31 -30 c47 -44 52 -65 33 -153 -9 -42 -20 -94 -24 -116 -4 -22
-16 -83 -26 -135 l-19 -95 -7 50 c-9 72 -8 485 2 455 l8 -25 1 24z"/>
<path d="M1254 2060 c0 -102 2 -143 3 -92 2 50 2 134 0 185 -1 50 -3 9 -3 -93z"/>
<path d="M1261 804 c0 -11 3 -14 6 -6 3 7 2 16 -1 19 -3 4 -6 -2 -5 -13z"/>
<path d="M1263 690 c0 -30 2 -43 4 -27 2 15 2 39 0 55 -2 15 -4 2 -4 -28z"/>
<path d="M1253 530 c0 -30 2 -43 4 -27 2 15 2 39 0 55 -2 15 -4 2 -4 -28z"/>
<path d="M1343 2670 c0 -25 2 -35 4 -22 2 12 2 32 0 45 -2 12 -4 2 -4 -23z"/>
<path d="M1153 2625 c0 -22 2 -30 4 -17 2 12 2 30 0 40 -3 9 -5 -1 -4 -23z"/>
<path d="M1354 2385 c0 -49 1 -71 3 -48 2 23 2 64 0 90 -2 26 -3 8 -3 -42z"/>
<path d="M1403 785 c0 -22 2 -30 4 -17 2 12 2 30 0 40 -3 9 -5 -1 -4 -23z"/>
<path d="M1413 675 c0 -22 2 -30 4 -17 2 12 2 30 0 40 -3 9 -5 -1 -4 -23z"/>
<path d="M1081 624 c0 -11 3 -14 6 -6 3 7 2 16 -1 19 -3 4 -6 -2 -5 -13z"/>
<path d="M1071 584 c0 -11 3 -14 6 -6 3 7 2 16 -1 19 -3 4 -6 -2 -5 -13z"/>
</g>
</svg>
