<?xml version="1.0" standalone="no"?>
<!DOCTYPE svg PUBLIC "-//W3C//DTD SVG 20010904//EN"
 "http://www.w3.org/TR/2001/REC-SVG-20010904/DTD/svg10.dtd">
<svg version="1.0" xmlns="http://www.w3.org/2000/svg"
 width="244.000000pt" height="305.000000pt" viewBox="0 0 244.000000 305.000000"
 preserveAspectRatio="xMidYMid meet">
<metadata>
Created by potrace 1.16, written by Peter Selinger 2001-2019
</metadata>
<g transform="translate(0.000000,305.000000) scale(0.100000,-0.100000)"
fill="#000000" stroke="none">
<path d="M891 2900 c-1 -8 -4 -26 -8 -39 -4 -17 -3 -22 5 -17 9 5 12 -111 12
-468 0 -262 -3 -476 -7 -476 -5 0 -19 9 -33 20 -14 11 -31 20 -37 20 -33 0 -9
483 37 750 21 124 23 136 15 128 -9 -9 -44 -200 -59 -325 -8 -65 -18 -220 -22
-345 l-7 -227 29 -11 c16 -6 41 -22 55 -36 l25 -24 25 21 c13 11 37 28 53 37
l29 17 -6 225 c-7 257 -16 356 -53 560 -24 132 -51 228 -53 190z"/>
<path d="M1565 2868 c8 -44 12 -955 4 -962 -4 -4 -25 6 -49 21 l-43 28 7 205
c7 214 23 375 56 569 20 116 21 168 1 69 -44 -228 -58 -352 -70 -618 -11 -262
-12 -250 26 -271 18 -10 42 -28 53 -39 l21 -21 34 30 c18 16 43 32 55 36 22 7
22 8 16 204 -8 216 -19 357 -41 501 -22 139 -55 280 -66 280 -6 0 -7 -14 -4
-32z"/>
<path d="M1251 2844 c0 -11 3 -14 6 -6 3 7 2 16 -1 19 -3 4 -6 -2 -5 -13z"/>
<path d="M1212 2688 c-1 -103 -8 -191 -17 -230 -23 -101 -35 -220 -41 -413 -8
-231 -13 -240 -40 -80 -30 180 -43 185 -64 27 l-13 -92 43 -40 c39 -36 42 -41
36 -80 -3 -23 -8 -45 -11 -51 -8 -12 -39 -11 -52 2 -20 20 -32 1 -22 -33 15
-54 47 -62 83 -23 29 31 37 32 35 3 -4 -46 2 -63 24 -73 12 -6 30 -26 40 -45
10 -19 22 -34 28 -32 6 1 9 -9 7 -23 -4 -31 -21 -38 -26 -10 -3 11 -21 36 -41
56 -30 30 -42 35 -68 32 -18 -3 -39 -13 -49 -24 -15 -17 -15 -18 12 -24 16 -4
36 -9 46 -11 28 -8 49 -70 51 -151 2 -74 1 -77 -23 -83 -35 -8 -36 -61 -1 -70
28 -6 46 -44 28 -58 -7 -6 -23 -12 -37 -14 -19 -2 -26 -10 -28 -30 -3 -23 0
-28 20 -28 13 0 28 -4 35 -8 17 -11 33 -58 33 -98 0 -27 5 -37 23 -43 12 -5
27 -6 32 -3 6 3 2 -4 -7 -15 -16 -18 -18 -49 -19 -324 l-1 -304 -18 84 c-10
46 -16 102 -14 125 3 35 2 37 -5 11 -8 -34 -7 -38 -50 173 l-19 93 49 56 c49
56 52 70 20 106 -10 12 -15 35 -13 70 1 37 -1 48 -8 37 -8 -13 -10 -12 -10 3
0 12 -8 17 -29 17 -33 0 -46 23 -43 73 2 26 0 27 -43 27 -25 0 -57 -7 -70 -16
-37 -24 -71 -11 -108 42 -26 37 -32 56 -34 102 -1 31 -5 77 -10 102 -7 42 -10
45 -41 48 -53 5 -75 -21 -69 -83 3 -40 19 -75 76 -169 90 -152 91 -167 20
-286 -28 -47 -93 -160 -146 -253 -53 -92 -98 -165 -100 -163 -3 2 27 103 66
224 l71 220 45 11 c53 13 65 34 65 111 0 65 -11 91 -70 165 -79 100 -89 154
-43 232 l27 46 -23 18 c-31 25 -102 25 -124 1 -21 -23 -22 -78 -2 -125 19 -46
19 -110 0 -147 -14 -26 -142 -107 -350 -220 l-60 -33 75 75 c41 40 107 102
147 137 72 63 73 63 119 56 l47 -7 -7 59 c-4 32 -9 82 -13 112 -4 42 -8 50
-15 36 -10 -16 -3 -131 10 -163 4 -12 -2 -14 -32 -8 -43 8 -28 19 -264 -197
-85 -78 -150 -143 -145 -144 4 -2 114 32 243 74 227 75 235 79 238 106 4 33
16 34 86 3 58 -26 106 -82 106 -124 0 -17 -7 -24 -30 -28 -16 -4 -34 -12 -40
-19 -18 -21 -182 -556 -174 -564 3 -3 8 -1 12 5 4 6 88 100 187 209 217 239
208 226 195 260 -23 61 -19 65 79 65 75 0 93 -3 121 -22 56 -39 59 -52 21 -92
l-34 -36 22 -107 c12 -60 29 -137 37 -173 7 -36 28 -132 44 -215 27 -132 40
-179 40 -149 0 8 114 574 125 621 4 15 -5 33 -29 59 -29 32 -32 40 -23 56 24
39 80 58 173 58 l87 0 -8 -38 c-4 -20 -7 -44 -8 -53 -1 -10 80 -106 180 -215
100 -110 191 -210 202 -224 27 -33 26 -16 -3 72 -13 40 -52 165 -87 277 l-64
204 -37 15 c-45 18 -49 42 -15 93 22 35 93 76 136 81 19 2 26 -3 30 -22 6 -23
28 -32 240 -103 128 -43 238 -76 243 -75 6 2 -74 80 -177 174 -170 152 -192
169 -224 169 -25 0 -35 4 -33 14 5 22 4 163 -1 168 -3 2 -8 -24 -12 -59 -4
-35 -14 -83 -21 -108 -8 -25 -14 -48 -14 -52 0 -9 113 -83 277 -181 104 -63
155 -102 107 -83 -10 5 -88 32 -171 62 -201 70 -194 66 -180 105 10 26 9 33
-2 37 -7 2 -22 13 -32 23 -26 26 -25 114 1 197 21 68 17 92 -20 112 -30 16
-86 12 -111 -9 l-23 -19 27 -41 c29 -43 35 -98 17 -146 -6 -15 -35 -58 -65
-97 -57 -73 -85 -142 -85 -210 0 -45 16 -78 156 -325 57 -100 104 -185 104
-188 0 -8 -29 24 -194 215 -108 125 -116 137 -110 165 4 17 7 53 6 82 -4 86
15 140 85 252 54 86 67 116 71 158 4 46 2 53 -21 68 -14 9 -38 15 -54 13 -25
-3 -29 -8 -36 -48 -4 -25 -9 -70 -11 -102 -3 -68 -38 -128 -86 -148 -28 -11
-36 -11 -60 3 -15 10 -47 17 -69 17 -41 0 -41 0 -41 -38 0 -41 -14 -62 -41
-62 -24 0 -40 -24 -46 -70 -3 -22 -10 -43 -16 -47 -16 -10 0 95 17 112 8 8 21
15 30 15 8 0 22 7 30 16 20 19 5 54 -23 54 -45 0 -54 60 -11 70 18 4 26 14 28
33 3 23 -2 29 -28 39 l-32 11 7 70 c10 106 36 157 79 157 12 0 27 4 35 9 25
16 -6 41 -51 41 -30 0 -46 -7 -68 -29 -21 -21 -30 -25 -34 -15 -8 22 13 61 40
73 20 9 24 18 24 51 0 46 11 51 34 15 9 -14 25 -25 36 -25 23 0 50 36 50 68 0
19 -4 23 -17 17 -45 -19 -53 -17 -64 11 -13 35 -5 95 14 106 55 30 58 38 47
126 -6 45 -15 95 -21 110 -10 25 -12 26 -19 7 -4 -11 -15 -71 -26 -132 -10
-64 -21 -107 -26 -100 -4 6 -8 53 -8 102 0 122 -25 393 -45 487 -20 96 -42
161 -46 133 -2 -11 -6 45 -9 125 l-6 145 -2 -167z m15 -480 c-1 -62 -3 -12 -3
112 0 124 2 174 3 113 2 -62 2 -164 0 -225z m-7 -332 c13 -13 13 -56 1 -56 -5
0 -12 12 -14 28 -2 15 -2 -30 1 -100 3 -71 2 -128 -2 -128 -4 0 -16 5 -27 10
-17 10 -19 22 -19 138 1 174 16 447 32 562 13 95 13 95 16 -175 1 -159 6 -273
12 -279z m7 -148 c-3 -7 -5 -2 -5 12 0 14 2 19 5 13 2 -7 2 -19 0 -25z m0
-120 c-2 -13 -4 -5 -4 17 -1 22 1 32 4 23 2 -10 2 -28 0 -40z"/>
<path d="M763 1862 c-29 -4 -65 -50 -61 -76 3 -18 9 -21 44 -18 70 6 136 -67
98 -109 -37 -41 -10 -136 63 -227 33 -41 34 -44 19 -65 -62 -84 -66 -91 -60
-111 10 -34 33 -54 71 -61 50 -9 58 3 42 64 -11 44 -11 53 2 66 13 13 22 13
77 -7 48 -18 66 -20 79 -12 30 18 21 35 -29 54 -85 32 -160 99 -198 176 -20
40 -27 84 -12 84 4 0 16 -19 27 -43 35 -75 138 -172 203 -192 38 -11 28 30
-15 61 -82 60 -143 143 -143 194 0 11 -7 23 -15 26 -23 9 -18 52 10 80 22 22
33 25 73 22 45 -3 47 -2 44 22 -4 38 -28 67 -62 74 -46 9 -84 -15 -105 -66
l-17 -43 -19 40 c-11 22 -23 43 -27 47 -13 13 -64 24 -89 20z"/>
<path d="M1433 1860 c-27 -11 -56 -53 -51 -76 2 -14 14 -18 56 -18 44 -1 57
-5 73 -25 22 -27 24 -54 5 -70 -7 -6 -16 -28 -20 -49 -8 -47 -52 -106 -119
-158 -57 -44 -79 -92 -35 -79 65 21 163 114 200 190 23 47 38 58 38 28 0 -34
-47 -118 -88 -160 -35 -35 -107 -78 -164 -97 -22 -7 -23 -20 -3 -36 13 -11 28
-9 85 7 61 18 71 19 82 6 9 -11 9 -24 0 -59 -7 -24 -12 -48 -12 -53 0 -18 50
-21 81 -6 56 29 55 86 -1 140 -17 16 -30 33 -30 38 0 6 18 33 39 61 67 87 92
186 56 216 -23 19 -18 39 20 77 30 30 40 34 77 31 38 -2 43 0 46 20 4 28 -47
82 -78 82 -38 0 -77 -28 -98 -72 l-20 -43 -18 44 c-12 32 -26 47 -50 57 -38
16 -41 16 -71 4z"/>
<path d="M1202 784 c-1 -23 -4 -70 -7 -105 -4 -54 -3 -59 5 -31 6 18 9 65 7
105 -1 40 -4 54 -5 31z"/>
</g>
</svg>
