<?xml version="1.0" standalone="no"?>
<!DOCTYPE svg PUBLIC "-//W3C//DTD SVG 20010904//EN"
 "http://www.w3.org/TR/2001/REC-SVG-20010904/DTD/svg10.dtd">
<svg version="1.0" xmlns="http://www.w3.org/2000/svg"
 width="244.000000pt" height="305.000000pt" viewBox="0 0 244.000000 305.000000"
 preserveAspectRatio="xMidYMid meet">
<metadata>
Created by potrace 1.16, written by Peter Selinger 2001-2019
</metadata>
<g transform="translate(0.000000,305.000000) scale(0.100000,-0.100000)"
fill="#000000" stroke="none">
<path d="M1476 2903 c-6 -21 -30 -180 -46 -308 -11 -89 -30 -479 -30 -605 1
-64 1 -66 43 -101 l42 -36 39 33 39 34 -2 187 c-2 251 -17 454 -47 647 -13 88
-26 161 -28 164 -2 2 -7 -5 -10 -15z m11 -105 c-3 -7 -5 -2 -5 12 0 14 2 19 5
13 2 -7 2 -19 0 -25z m0 -80 c-2 -13 -4 -3 -4 22 0 25 2 35 4 23 2 -13 2 -33
0 -45z m0 -605 c-1 -109 -2 -22 -2 192 0 215 1 304 2 198 2 -105 2 -281 0
-390z"/>
<path d="M976 2899 c-6 -17 -32 -185 -46 -299 -13 -103 -30 -437 -30 -575 l1
-100 44 -38 44 -38 42 42 41 41 -6 217 c-8 264 -20 411 -47 601 -20 138 -33
181 -43 149z"/>
<path d="M1228 2585 c-28 -96 -49 -285 -55 -510 l-7 -220 -18 124 c-9 68 -20
126 -23 129 -12 12 -19 -14 -28 -114 l-10 -105 27 -26 c24 -22 27 -31 24 -76
-3 -50 -4 -52 -30 -49 -24 2 -28 -1 -28 -23 0 -61 43 -86 73 -42 16 22 16 21
16 -19 1 -28 6 -44 16 -48 9 -3 23 -22 31 -41 14 -35 34 -40 34 -9 0 8 12 27
26 41 20 20 26 36 26 67 l-1 41 15 -27 c26 -50 74 -27 74 36 0 27 -18 34 -38
14 -13 -13 -20 -1 -23 42 -4 51 2 70 28 94 l27 25 -11 106 c-17 161 -25 159
-50 -15 l-18 -125 -7 210 c-9 278 -51 587 -70 520z"/>
<path d="M851 1844 c-27 -34 -27 -71 -1 -79 11 -3 24 -3 30 0 16 10 70 -50 70
-79 0 -14 -5 -26 -11 -26 -8 0 -10 -20 -6 -65 3 -49 14 -84 42 -139 l38 -73
-27 -45 c-14 -24 -26 -58 -26 -74 0 -40 34 -76 68 -72 27 3 27 4 23 72 -3 55
-1 68 10 64 8 -3 31 -11 52 -19 34 -12 37 -16 37 -50 0 -28 5 -38 20 -42 28
-7 27 -49 -2 -62 -12 -6 -25 -21 -29 -35 -5 -21 -7 -19 -10 15 -3 33 -8 41
-27 43 -13 2 -34 -4 -47 -12 -37 -24 -52 -20 -80 23 -21 31 -26 53 -30 123 -5
102 -12 135 -32 142 -15 6 -53 -10 -65 -28 -13 -19 -9 -95 7 -133 19 -46 19
-53 -1 -24 -25 34 -30 141 -10 181 31 64 14 93 -56 92 -59 -1 -68 -17 -69
-126 l-2 -91 -7 67 c-10 99 -22 97 -19 -2 l4 -85 -27 -5 c-15 -3 -41 -23 -60
-47 -18 -22 -81 -99 -140 -169 -60 -71 -108 -132 -108 -136 0 -14 50 3 190 64
178 78 204 93 208 118 4 25 19 22 62 -13 29 -22 44 -50 55 -98 5 -22 2 -28
-23 -38 -28 -12 -32 -20 -52 -109 -12 -53 -26 -110 -30 -127 -17 -57 -80 -335
-80 -351 0 -14 2 -14 15 0 9 8 81 113 160 232 122 184 144 221 138 243 -16 63
-14 66 55 65 46 -1 67 -6 83 -20 38 -34 40 -48 13 -86 l-25 -34 16 -100 c8
-54 22 -142 30 -194 8 -52 20 -126 25 -165 6 -38 16 -99 22 -135 10 -60 12
-63 20 -35 4 17 15 77 23 135 8 58 28 193 44 300 l29 195 -25 33 -25 34 19 26
c28 37 60 52 116 52 54 0 65 -13 49 -58 -9 -27 6 -87 26 -102 4 -3 40 -54 79
-115 40 -60 76 -115 80 -120 5 -6 30 -43 57 -83 26 -39 50 -72 53 -72 6 0 2
21 -64 315 -51 229 -58 252 -85 275 -15 14 -28 34 -28 45 0 31 36 83 72 105
43 26 58 25 58 -4 0 -28 7 -32 225 -125 76 -33 141 -58 143 -56 7 7 -19 43
-105 146 -43 52 -90 110 -104 129 -53 69 -76 89 -98 83 -22 -5 -22 -4 -15 70
11 128 -7 125 -23 -3 l-14 -115 63 -59 c35 -32 94 -83 131 -113 38 -30 66 -58
63 -61 -4 -3 -15 4 -26 16 -12 12 -24 22 -29 22 -4 0 -16 8 -27 18 -10 10 -52
44 -91 75 -108 85 -119 118 -87 258 13 56 14 76 4 99 -13 31 -49 44 -87 29
-35 -13 -38 -35 -14 -83 34 -69 25 -131 -33 -231 -39 -65 -42 -50 -6 26 51
109 35 225 -29 204 -24 -7 -33 -43 -35 -146 -2 -54 -8 -85 -22 -109 -29 -50
-46 -57 -86 -36 -51 27 -72 19 -76 -29 -2 -22 -7 -43 -11 -47 -4 -5 -5 7 -3
26 3 29 1 34 -22 40 -33 8 -37 55 -6 63 15 4 20 14 20 42 0 34 3 37 47 53 26
9 49 15 52 13 2 -3 3 -20 2 -37 -7 -94 -7 -93 17 -96 33 -5 72 34 72 71 0 17
-12 50 -26 75 l-26 44 37 78 c38 83 57 181 36 194 -17 11 -12 58 8 84 14 15
30 22 55 22 32 0 36 3 36 25 0 92 -88 116 -127 34 l-19 -40 -18 41 c-36 82
-126 57 -126 -35 0 -21 5 -24 42 -27 34 -2 45 -8 57 -30 12 -21 13 -31 4 -50
-7 -13 -15 -39 -18 -58 -9 -48 -44 -106 -98 -162 l-44 -47 7 38 c9 50 16 61
56 77 30 13 33 17 24 34 -14 26 -56 36 -77 19 -9 -8 -26 -36 -39 -63 l-22 -48
-11 37 c-12 44 -47 85 -72 85 -23 0 -64 -34 -56 -47 4 -6 20 -13 36 -16 21 -5
32 -15 40 -39 16 -46 27 -188 14 -188 -6 0 -8 11 -6 24 4 21 -1 27 -29 39 -71
30 -158 150 -157 217 0 21 2 18 13 -13 27 -73 131 -194 159 -184 19 7 9 50
-17 72 -43 36 -85 106 -96 161 -6 29 -16 56 -21 59 -15 10 -10 41 11 65 15 17
30 23 55 22 31 -1 35 1 35 24 0 28 -17 65 -34 76 -20 14 -63 8 -79 -9 -8 -10
-19 -31 -23 -47 l-7 -28 -14 32 c-26 64 -86 80 -122 34z m628 -275 c-20 -88
-87 -176 -158 -206 -27 -12 -32 -18 -28 -39 2 -13 0 -24 -4 -24 -5 0 -9 23 -9
51 0 44 2 50 14 40 20 -16 42 -4 95 54 38 41 54 69 82 143 14 35 18 26 8 -19z
m-732 -241 c-3 -7 -5 -2 -5 12 0 14 2 19 5 13 2 -7 2 -19 0 -25z m791 -268
c-10 -74 -9 -77 26 -162 38 -92 44 -115 23 -83 -28 42 -77 176 -77 210 0 30
28 121 35 113 1 -2 -2 -37 -7 -78z m-591 -22 c-2 -13 -4 -5 -4 17 -1 22 1 32
4 23 2 -10 2 -28 0 -40z m254 -10 c7 -48 24 -88 38 -88 11 0 31 70 31 109 0
17 4 31 9 31 4 0 6 -24 3 -52 -5 -56 -37 -122 -54 -112 -16 10 -38 71 -38 107
0 18 -6 39 -12 46 -11 11 -10 13 2 9 9 -3 18 -23 21 -50z m-723 22 c-7 -11
-17 -20 -22 -20 -5 0 -1 9 9 20 10 11 20 20 22 20 2 0 -2 -9 -9 -20z m1142
-283 c0 -7 11 -37 25 -65 31 -65 66 -155 61 -159 -2 -2 -13 20 -26 49 -12 29
-33 76 -45 103 -32 72 -36 85 -25 85 6 0 10 -6 10 -13z"/>
</g>
</svg>
