<?xml version="1.0" standalone="no"?>
<!DOCTYPE svg PUBLIC "-//W3C//DTD SVG 20010904//EN"
 "http://www.w3.org/TR/2001/REC-SVG-20010904/DTD/svg10.dtd">
<svg version="1.0" xmlns="http://www.w3.org/2000/svg"
 width="244.000000pt" height="305.000000pt" viewBox="0 0 244.000000 305.000000"
 preserveAspectRatio="xMidYMid meet">
<metadata>
Created by potrace 1.16, written by Peter Selinger 2001-2019
</metadata>
<g transform="translate(0.000000,305.000000) scale(0.100000,-0.100000)"
fill="#000000" stroke="none">
<path d="M1570 2905 c-1 -5 -3 -17 -5 -25 -36 -145 -59 -270 -70 -380 -4 -36
-8 -78 -11 -95 -2 -16 -7 -132 -11 -256 l-6 -225 31 -13 c17 -7 38 -21 48 -32
22 -24 36 -24 58 0 10 11 31 25 48 32 l31 13 -7 211 c-9 276 -21 404 -51 545
-26 121 -26 95 0 -80 8 -58 17 -118 20 -135 2 -16 9 -136 16 -265 l12 -234
-39 -33 c-22 -18 -45 -33 -51 -33 -16 0 -19 946 -3 952 6 2 6 14 1 33 -5 17
-10 26 -11 20z"/>
<path d="M881 2863 c-6 -21 -17 -76 -25 -123 -8 -47 -19 -107 -25 -135 -5 -27
-12 -84 -16 -125 -4 -41 -9 -86 -11 -100 -2 -14 -6 -123 -10 -242 l-7 -217 29
-11 c16 -6 41 -23 57 -38 l27 -26 20 22 c11 12 34 29 50 37 l30 16 0 142 c0
222 -28 535 -60 667 -14 60 -11 11 10 -140 22 -162 47 -583 36 -621 -6 -22
-65 -69 -86 -69 -10 0 -5 932 5 973 5 17 3 27 -3 27 -6 0 -16 -17 -21 -37z"/>
<path d="M911 2820 c0 -8 4 -24 9 -35 l9 -20 0 20 c0 11 -4 27 -9 35 -9 13
-10 13 -9 0z"/>
<path d="M1188 2640 c3 -140 0 -213 -12 -300 -10 -63 -20 -197 -23 -298 -3
-100 -9 -185 -13 -187 -3 -2 -16 50 -27 116 -12 66 -24 123 -26 126 -15 14
-26 -16 -37 -104 -11 -91 -11 -98 6 -110 52 -34 57 -41 60 -85 4 -58 -15 -89
-45 -70 -30 18 -41 15 -41 -12 0 -38 31 -69 62 -61 14 4 28 15 31 26 9 33 26
21 25 -17 -1 -24 4 -41 15 -49 9 -7 17 -21 17 -33 0 -19 -2 -20 -29 -6 -25 12
-33 12 -64 -1 -52 -21 -53 -32 -3 -39 46 -7 56 -20 56 -73 0 -26 -12 -30 -30
-8 -7 8 -18 15 -26 15 -22 0 -103 108 -110 148 -4 20 -13 45 -21 54 -37 42 25
106 93 95 40 -7 44 -2 32 41 -18 65 -114 75 -152 17 -9 -14 -16 -31 -16 -40 0
-27 -19 -16 -36 21 -31 65 -113 78 -155 26 -11 -14 -19 -35 -17 -46 3 -17 11
-20 52 -21 41 0 52 -5 77 -33 32 -36 37 -60 14 -68 -20 -8 -20 -80 1 -130 9
-22 30 -59 48 -84 18 -25 35 -50 39 -57 4 -6 -9 -30 -28 -53 -43 -52 -49 -88
-18 -122 18 -20 82 -33 95 -20 7 7 6 28 -3 61 -11 44 -11 53 2 65 12 12 24 11
80 -6 63 -19 65 -21 61 -49 -2 -16 1 -36 8 -44 15 -18 4 -71 -17 -79 -11 -5
-14 -14 -9 -37 3 -18 2 -28 -4 -24 -6 3 -10 25 -10 47 l0 41 -54 -6 c-29 -3
-63 -11 -74 -18 -30 -19 -63 0 -102 56 -24 35 -30 53 -25 72 3 14 1 47 -4 72
-6 25 -13 58 -16 74 -4 21 -11 27 -31 27 -61 0 -93 -47 -73 -109 6 -20 29 -64
50 -98 22 -34 39 -65 39 -68 0 -2 14 -27 31 -55 27 -43 31 -61 34 -132 1 -46
6 -96 9 -113 7 -28 -2 -41 -107 -160 -63 -71 -133 -150 -156 -175 l-42 -45 42
80 c23 44 46 85 50 90 3 6 43 76 88 157 58 104 81 157 81 182 0 65 -35 152
-89 220 -84 106 -98 156 -58 216 13 19 26 43 30 52 16 45 -104 67 -143 26 -25
-27 -25 -37 0 -118 32 -104 25 -175 -17 -191 -25 -9 -26 -17 -12 -68 3 -9 -18
-21 -61 -36 -36 -13 -110 -40 -165 -60 -143 -51 -145 -52 -114 -27 24 20 57
40 272 173 84 51 88 55 83 84 -2 17 -10 67 -17 113 -16 113 -34 108 -26 -8 l7
-91 -34 6 c-32 6 -40 1 -144 -93 -60 -55 -118 -108 -129 -118 -10 -11 -47 -45
-82 -77 -34 -31 -58 -57 -53 -57 8 0 196 59 402 127 77 25 85 31 88 56 4 35
20 34 94 -5 44 -23 65 -42 79 -71 25 -47 20 -62 -23 -80 -31 -13 -36 -22 -71
-133 -21 -65 -45 -135 -52 -154 -17 -47 -85 -275 -85 -286 0 -10 28 19 243
256 78 85 148 161 155 169 7 7 10 21 7 30 -15 36 -23 70 -17 75 3 3 43 6 88 6
93 0 144 -17 165 -57 11 -21 10 -27 -19 -56 -33 -34 -40 -64 -22 -95 5 -9 16
-57 24 -107 11 -75 89 -448 99 -480 2 -5 16 52 31 125 16 74 34 158 41 185 12
44 14 46 16 20 1 -21 4 -16 8 20 4 28 3 54 0 59 -4 4 -3 20 2 35 5 14 15 68
23 119 l15 93 -32 28 c-29 27 -30 31 -18 54 22 41 71 57 173 57 89 0 90 0 84
-22 -23 -80 -26 -74 100 -213 64 -71 141 -155 170 -185 29 -30 66 -71 84 -90
l31 -35 -6 34 c-4 18 -41 138 -82 265 -41 127 -77 241 -80 253 -4 16 -17 26
-44 33 -45 13 -48 26 -17 81 27 49 128 105 159 88 11 -5 19 -18 19 -29 0 -16
34 -29 208 -85 114 -36 220 -71 235 -77 69 -27 45 -1 -213 231 -116 104 -127
112 -157 106 l-31 -6 5 98 c4 66 2 95 -5 88 -5 -5 -13 -57 -17 -114 l-7 -103
41 7 c38 6 46 4 86 -30 86 -70 256 -227 252 -232 -3 -2 -38 14 -79 38 -115 66
-128 73 -222 125 -126 70 -147 117 -106 234 25 70 25 95 0 120 -35 35 -140 21
-140 -19 0 -11 12 -37 26 -58 21 -31 24 -45 20 -77 -8 -47 -29 -89 -71 -141
-72 -89 -87 -135 -69 -223 5 -25 15 -33 57 -49 l50 -20 39 -119 c92 -278 106
-324 99 -324 -3 0 -22 28 -42 63 -19 34 -76 131 -125 214 -49 84 -99 172 -112
195 -36 67 -27 106 57 246 60 100 71 126 71 164 0 31 -6 50 -18 61 -22 20 -65
22 -79 5 -13 -16 -25 -99 -24 -154 1 -50 -41 -114 -87 -133 -25 -10 -35 -10
-58 2 -71 36 -124 26 -110 -20 3 -10 2 -24 -3 -31 -9 -15 -28 70 -33 148 l-3
45 50 17 c28 10 61 17 75 15 21 -2 25 -7 24 -32 -1 -16 -5 -44 -9 -62 -6 -29
-5 -33 17 -38 14 -4 41 0 61 9 61 25 59 70 -9 153 l-25 31 30 35 c35 39 78
126 87 175 5 26 2 38 -16 57 -27 29 -21 54 21 90 23 18 42 25 75 25 39 0 44 2
44 23 0 31 -32 64 -71 72 -38 9 -77 -16 -99 -63 -19 -40 -26 -40 -43 1 -17 39
-33 53 -72 60 -42 7 -84 -17 -92 -53 -8 -41 -3 -45 42 -42 69 6 125 -58 86
-96 -10 -9 -21 -34 -24 -54 -7 -46 -53 -105 -124 -159 l-53 -40 6 43 c8 54 17
64 59 72 40 8 42 13 18 32 -22 16 -67 18 -94 4 -16 -9 -19 -7 -19 9 0 11 9 25
20 31 13 7 19 19 18 35 -2 26 -18 35 -18 11 0 -8 -4 -18 -10 -21 -6 -4 -10 18
-10 60 0 42 4 64 10 60 6 -3 10 -23 10 -43 0 -28 3 -33 10 -22 9 13 13 12 30
-8 28 -33 64 -38 77 -9 28 56 21 79 -15 56 -27 -17 -49 -5 -57 30 -11 49 2 84
40 109 39 24 39 27 25 127 -23 156 -33 145 -70 -69 -5 -33 -10 -61 -10 -63 0
-2 -4 -3 -10 -3 -6 0 -10 48 -10 123 -1 67 -5 167 -11 222 -6 55 -14 199 -18
320 -7 218 -7 219 -10 75 -3 -150 -3 -150 -32 -36 -12 46 -18 42 -35 -26 -12
-53 -12 -53 -14 67 -1 66 -5 143 -9 170 -4 28 -5 -33 -3 -135z m83 -245 c6
-29 9 -145 7 -283 -2 -127 0 -232 5 -232 4 0 7 59 7 132 0 72 2 129 4 127 2
-2 5 -76 8 -164 3 -88 3 -149 0 -135 l-4 24 -14 -24 -13 -25 -2 25 c-1 23 -2
23 -8 -5 -3 -16 -6 38 -7 120 0 83 -4 245 -7 360 -6 210 -4 216 24 80z m-1
-699 c0 -41 -3 -77 -8 -79 -4 -3 -7 30 -8 74 0 43 3 79 8 79 4 0 8 -33 8 -74z
m-360 -86 c0 -19 69 -119 102 -150 18 -16 57 -42 86 -57 33 -17 52 -34 52 -45
0 -17 -2 -17 -42 -1 -24 9 -52 24 -63 33 -11 9 -33 24 -48 34 -55 34 -136 196
-98 196 6 0 11 -5 11 -10z m667 -26 c-8 -48 -60 -127 -110 -166 -43 -34 -109
-68 -133 -68 -31 0 -11 28 34 49 67 32 156 119 177 175 21 55 40 61 32 10z
m-359 -74 c0 -22 -1 -22 -8 5 -4 17 -8 39 -8 50 0 16 2 15 8 -5 4 -14 8 -36 8
-50z m49 48 c-3 -8 -6 -5 -6 6 -1 11 2 17 5 13 3 -3 4 -12 1 -19z m-30 -80
c-2 -13 -4 -5 -4 17 -1 22 1 32 4 23 2 -10 2 -28 0 -40z m70 -150 c-2 -24 -4
-7 -4 37 0 44 2 63 4 43 2 -21 2 -57 0 -80z m-10 -140 c-3 -8 -6 -5 -6 6 -1
11 2 17 5 13 3 -3 4 -12 1 -19z m40 -35 c-3 -10 -5 -4 -5 12 0 17 2 24 5 18 2
-7 2 -21 0 -30z m-168 -100 c0 -16 -3 -22 -6 -13 -3 8 -10 21 -16 28 -7 8 -5
12 7 12 11 0 16 -8 15 -27z m150 10 c-7 -10 -15 -20 -16 -22 -2 -2 -3 5 -3 17
0 14 6 22 16 22 14 0 15 -3 3 -17z m-32 -90 c-2 -16 -4 -5 -4 22 0 28 2 40 4
28 2 -13 2 -35 0 -50z m-17 -43 c0 -5 -4 -10 -10 -10 -5 0 -10 5 -10 10 0 6 5
10 10 10 6 0 10 -4 10 -10z m18 -79 c11 -11 13 -32 9 -85 -3 -45 -2 -62 4 -46
5 16 7 -8 4 -63 -6 -105 -10 -133 -40 -262 l-23 -100 4 290 c3 160 5 297 5
305 0 10 3 9 11 -5 7 -11 18 -27 26 -34z m46 -47 c9 -24 7 -77 -4 -94 -7 -11
-10 -8 -10 16 0 17 -3 46 -6 63 -7 32 9 44 20 15z"/>
<path d="M1282 800 c0 -14 2 -19 5 -12 2 6 2 18 0 25 -3 6 -5 1 -5 -13z"/>
<path d="M1142 465 c0 -16 2 -22 5 -12 2 9 2 23 0 30 -3 6 -5 -1 -5 -18z"/>
</g>
</svg>
