<?xml version="1.0" standalone="no"?>
<!DOCTYPE svg PUBLIC "-//W3C//DTD SVG 20010904//EN"
 "http://www.w3.org/TR/2001/REC-SVG-20010904/DTD/svg10.dtd">
<svg version="1.0" xmlns="http://www.w3.org/2000/svg"
 width="244.000000pt" height="305.000000pt" viewBox="0 0 244.000000 305.000000"
 preserveAspectRatio="xMidYMid meet">
<metadata>
Created by potrace 1.16, written by Peter Selinger 2001-2019
</metadata>
<g transform="translate(0.000000,305.000000) scale(0.100000,-0.100000)"
fill="#000000" stroke="none">
<path d="M882 2875 c-49 -184 -80 -442 -89 -726 l-6 -227 41 -21 c22 -11 45
-28 50 -37 8 -14 17 -11 67 23 l58 38 -7 220 c-3 121 -11 263 -16 315 -11 103
-52 342 -58 336 -2 -2 6 -64 17 -137 34 -230 63 -680 44 -705 -14 -18 -80 -54
-86 -47 -4 3 -7 220 -6 482 1 422 2 473 15 446 l14 -30 -6 35 c-4 19 -10 44
-14 55 -6 17 -9 13 -18 -20z"/>
<path d="M1557 2842 c-44 -158 -76 -423 -84 -698 l-6 -220 31 -13 c17 -7 38
-21 48 -32 22 -24 36 -24 58 0 10 11 31 25 48 32 l31 13 -6 230 c-6 213 -20
371 -49 536 -18 103 -21 52 -4 -62 22 -147 34 -297 42 -498 l6 -175 -42 -28
c-23 -15 -46 -27 -51 -27 -13 0 -12 937 1 945 12 8 13 42 1 49 -5 3 -16 -20
-24 -52z"/>
<path d="M1597 2805 c3 -22 7 -42 9 -44 8 -9 2 45 -6 64 -7 14 -8 8 -3 -20z"/>
<path d="M1192 2780 c0 -19 2 -27 5 -17 2 9 2 25 0 35 -3 9 -5 1 -5 -18z"/>
<path d="M1267 2677 c-5 -26 -5 -72 -2 -102 5 -39 4 -55 -4 -55 -7 0 -10 3 -8
8 2 4 -1 23 -8 42 l-12 35 -11 -35 c-10 -34 -10 -32 -13 30 -2 51 -4 39 -10
-55 -4 -66 -10 -131 -13 -145 -16 -74 -27 -185 -33 -352 -6 -186 -16 -232 -28
-140 -10 69 -34 184 -40 190 -14 14 -28 -38 -40 -144 l-7 -60 36 -25 c40 -27
52 -64 38 -114 -9 -31 -27 -36 -64 -20 -26 11 -24 -46 2 -70 17 -15 24 -16 45
-7 14 7 28 19 31 27 8 21 26 19 23 -2 -4 -48 2 -71 21 -76 13 -3 20 -14 20
-30 l0 -25 -36 18 c-37 20 -80 13 -104 -15 -9 -10 -3 -15 30 -20 60 -10 80
-42 80 -126 l0 -68 -46 16 c-102 35 -207 142 -221 226 -7 47 9 48 26 1 18 -49
119 -155 176 -183 25 -13 48 -21 51 -18 11 11 -9 55 -30 65 -63 28 -146 132
-146 182 0 14 -9 33 -20 43 -27 23 -25 33 11 69 27 28 34 30 75 24 l44 -6 0
35 c0 41 -29 65 -83 67 -42 1 -65 -15 -84 -59 -17 -42 -26 -41 -41 1 -9 25
-23 38 -52 50 -64 26 -120 -5 -120 -66 0 -21 4 -23 51 -23 45 0 54 -4 80 -33
35 -39 35 -42 8 -73 -16 -19 -19 -32 -15 -62 8 -47 43 -119 85 -171 17 -21 31
-40 31 -41 0 -1 -13 -18 -30 -36 -16 -19 -35 -47 -41 -62 -10 -24 -9 -32 8
-55 44 -59 133 -48 105 13 -15 33 -15 68 -1 82 8 8 26 6 67 -8 67 -23 91 -24
98 -4 8 19 24 20 24 2 0 -8 -11 -19 -25 -25 -32 -15 -35 -61 -5 -69 11 -3 20
-13 19 -22 -1 -21 -17 -60 -18 -43 -1 17 -41 -24 -41 -42 0 -8 5 -18 10 -21 6
-3 10 -11 10 -17 0 -7 -6 -6 -15 2 -9 7 -15 29 -15 51 l0 39 -45 0 c-25 0 -57
-7 -70 -16 -56 -37 -139 40 -141 130 -2 68 -14 138 -27 154 -10 13 -55 16 -73
4 -23 -15 -35 -53 -28 -87 3 -20 34 -82 68 -138 81 -134 88 -152 91 -249 2
-46 6 -90 9 -99 5 -10 -11 -38 -46 -80 -68 -83 -250 -289 -255 -289 -6 0 32
72 148 277 119 210 122 220 93 319 -10 36 -32 73 -65 112 -57 66 -89 126 -89
166 0 16 14 52 30 82 l31 52 -23 16 c-33 23 -103 21 -128 -4 -25 -25 -25 -48
0 -128 31 -98 27 -138 -15 -178 -30 -28 -34 -37 -25 -53 16 -30 13 -37 -22
-48 -18 -6 -91 -32 -163 -58 -159 -57 -187 -66 -181 -56 3 4 71 48 151 97 81
49 163 99 183 112 21 12 43 25 50 28 15 7 16 43 1 81 -5 15 -13 55 -16 88 -3
33 -10 65 -15 70 -7 7 -9 -22 -5 -88 l5 -98 -32 7 c-31 5 -41 -1 -132 -82
-216 -191 -293 -264 -280 -264 14 0 91 24 339 105 132 43 147 51 147 71 0 32
13 37 59 23 80 -24 160 -119 130 -155 -6 -8 -19 -14 -28 -14 -9 0 -21 -4 -28
-8 -11 -7 -196 -572 -189 -579 2 -2 39 36 82 84 43 48 110 120 147 161 38 41
95 105 127 143 l59 69 -15 35 c-8 20 -12 40 -9 45 4 6 46 10 94 10 75 0 93 -3
121 -23 56 -38 60 -53 23 -88 -18 -16 -33 -36 -33 -44 0 -8 13 -74 29 -147 15
-73 46 -216 67 -317 l38 -185 13 55 c27 116 85 389 104 494 l20 110 -30 27
c-37 33 -39 48 -8 74 38 34 75 44 164 44 l85 0 -6 -26 c-20 -80 -25 -70 110
-219 145 -160 272 -295 278 -295 4 0 -88 295 -149 483 -28 85 -30 88 -67 98
-42 11 -46 24 -23 68 18 37 59 71 112 95 49 22 73 16 73 -18 0 -23 8 -28 83
-51 45 -14 153 -49 240 -76 87 -28 160 -49 163 -47 4 5 -83 86 -275 257 -95
85 -106 92 -135 87 l-32 -6 4 97 c5 133 -13 111 -22 -25 l-7 -103 45 6 45 7
143 -128 c79 -70 145 -129 147 -131 2 -2 2 -5 -1 -8 -2 -3 -70 32 -149 76 -79
45 -161 91 -182 102 -55 31 -75 52 -88 97 -10 33 -9 49 6 97 29 95 30 118 6
142 -24 24 -75 28 -116 9 -32 -14 -32 -35 0 -78 47 -63 30 -127 -61 -241 -50
-61 -58 -77 -62 -122 -2 -29 0 -67 5 -86 8 -30 16 -37 58 -51 56 -19 48 -3
138 -285 47 -144 60 -195 44 -174 -7 9 -262 446 -279 479 -31 57 -20 101 56
227 76 126 91 168 76 209 -6 16 -17 32 -23 36 -22 14 -66 8 -75 -9 -13 -25
-25 -101 -23 -149 1 -31 -6 -51 -29 -83 -42 -57 -71 -69 -116 -48 -19 9 -52
17 -74 17 l-39 0 -3 -47 c-2 -37 -7 -49 -21 -51 -17 -4 -18 -2 -3 21 15 22 15
26 -4 50 -23 29 -25 48 -8 95 11 29 10 35 -5 47 -21 15 -22 26 -3 19 8 -3 42
2 75 11 93 27 102 17 76 -87 -6 -23 -3 -28 17 -33 47 -12 108 27 108 70 0 13
-18 44 -40 71 -36 40 -39 49 -28 64 104 142 136 235 88 260 -29 16 -25 38 16
76 29 28 43 34 80 34 37 0 44 3 44 19 0 33 -11 51 -42 67 -52 27 -100 3 -144
-72 -10 -17 -13 -16 -26 16 -22 53 -45 65 -110 61 -28 -2 -58 -38 -58 -70 0
-28 1 -28 45 -24 39 5 47 2 75 -25 35 -35 38 -57 10 -72 -13 -7 -20 -21 -20
-39 0 -40 -55 -118 -115 -163 -81 -61 -90 -107 -13 -69 59 28 153 124 175 177
20 50 33 57 33 18 0 -36 -53 -126 -97 -165 -36 -31 -126 -79 -150 -79 -6 0
-16 -12 -21 -27 -9 -25 -10 -22 -11 27 -1 67 15 139 35 161 9 10 31 20 50 23
39 8 41 13 17 32 -27 20 -80 17 -103 -6 -20 -20 -20 -20 -20 10 0 24 6 33 26
40 24 10 26 14 20 50 -3 22 -4 40 -2 40 3 0 16 -11 30 -25 39 -39 70 -31 85
23 11 37 1 48 -27 31 -29 -18 -52 -4 -52 30 0 16 -3 37 -6 46 -4 11 7 29 37
56 l43 39 -13 93 c-22 155 -32 153 -62 -15 -11 -62 -24 -117 -28 -121 -4 -4
-11 81 -15 190 -3 109 -11 223 -17 253 -6 30 -14 138 -17 240 -6 144 -9 174
-15 137z m2 -469 c2 -203 0 -279 -8 -274 -7 5 -11 -2 -11 -17 0 -14 7 -27 15
-31 13 -5 15 20 16 187 1 128 4 175 9 142 11 -72 24 -527 16 -558 -7 -28 -26
-37 -26 -13 0 8 -4 16 -9 18 -4 2 -11 28 -14 58 -4 36 -3 48 3 35 5 -11 10
-33 11 -50 1 -20 4 -11 9 25 8 57 10 152 3 113 -4 -22 -4 -22 -24 -2 -18 18
-19 36 -19 346 0 262 3 325 13 315 9 -10 13 -86 16 -294z m-17 -601 c-9 -18
-11 -11 -10 38 0 59 0 60 10 22 7 -27 7 -45 0 -60z m-22 -92 l1 20 9 -20 c8
-19 9 -19 9 -1 1 11 3 17 6 14 10 -10 -7 -58 -20 -58 -14 0 -25 32 -24 65 1
13 4 10 9 -10 5 -21 8 -24 10 -10z m87 -347 c-3 -8 -6 -5 -6 6 -1 11 2 17 5
13 3 -3 4 -12 1 -19z m-138 -140 c-1 -42 -3 -48 -9 -28 -12 36 -12 80 0 80 6
0 10 -24 9 -52z m127 30 c-3 -13 -6 -36 -6 -53 0 -23 -3 -27 -10 -15 -7 12
-10 8 -10 -15 0 -16 -7 -41 -15 -55 -12 -22 -11 -29 7 -58 18 -30 20 -45 15
-120 -3 -50 -2 -76 3 -62 4 14 8 54 9 90 l1 65 25 -25 c24 -25 24 -26 10 -92
-7 -36 -21 -80 -29 -97 -9 -16 -16 -50 -16 -73 0 -38 -33 -214 -45 -243 -2 -5
-3 114 -2 265 1 151 -1 298 -5 325 -4 31 -4 41 2 25 8 -24 8 -24 9 -2 1 12 6
22 11 22 6 0 10 18 10 40 0 22 5 40 10 40 6 0 10 14 10 30 0 17 5 30 11 30 7
0 9 -9 5 -22z"/>
<path d="M1272 800 c0 -14 2 -19 5 -12 2 6 2 18 0 25 -3 6 -5 1 -5 -13z"/>
</g>
</svg>
