<?xml version="1.0" standalone="no"?>
<!DOCTYPE svg PUBLIC "-//W3C//DTD SVG 20010904//EN"
 "http://www.w3.org/TR/2001/REC-SVG-20010904/DTD/svg10.dtd">
<svg version="1.0" xmlns="http://www.w3.org/2000/svg"
 width="244.000000pt" height="305.000000pt" viewBox="0 0 244.000000 305.000000"
 preserveAspectRatio="xMidYMid meet">
<metadata>
Created by potrace 1.16, written by Peter Selinger 2001-2019
</metadata>
<g transform="translate(0.000000,305.000000) scale(0.100000,-0.100000)"
fill="#000000" stroke="none">
<path d="M872 2803 c-48 -219 -67 -394 -76 -711 l-5 -162 27 -17 c15 -9 39
-28 55 -42 l27 -25 28 25 c15 14 39 33 53 41 21 13 26 25 27 59 4 100 -29 553
-48 664 -12 66 -24 135 -27 153 -3 18 -7 31 -10 29 -2 -3 8 -85 22 -183 27
-182 44 -412 45 -586 l0 -96 -37 -23 c-21 -13 -42 -25 -46 -27 -4 -2 -6 222
-5 497 2 276 0 501 -3 501 -3 0 -15 -44 -27 -97z"/>
<path d="M1542 2798 c-50 -231 -72 -457 -71 -723 l0 -150 49 -32 c58 -39 61
-39 84 -14 10 11 31 25 48 32 l31 13 -7 210 c-4 116 -14 267 -22 336 -15 134
-55 362 -62 356 -2 -2 8 -78 22 -168 32 -204 46 -378 46 -562 l0 -143 -40 -27
c-22 -14 -42 -26 -45 -26 -3 0 -5 217 -5 483 0 347 3 478 11 467 9 -12 10 -12
5 3 -3 10 -6 25 -6 33 0 8 -3 14 -8 14 -4 0 -17 -46 -30 -102z"/>
<path d="M911 2844 c0 -11 3 -14 6 -6 3 7 2 16 -1 19 -3 4 -6 -2 -5 -13z"/>
<path d="M1162 2835 c-1 -11 -4 -204 -5 -430 -2 -234 -8 -423 -14 -440 -6 -17
-6 -43 -2 -59 8 -29 5 -45 -7 -34 -3 3 -9 36 -15 73 -12 88 -29 155 -39 155
-10 0 -27 -78 -34 -157 -5 -50 -5 -52 29 -73 34 -21 35 -24 35 -81 0 -65 -15
-83 -51 -61 -26 16 -29 15 -29 -11 0 -28 26 -67 46 -67 8 0 26 12 40 27 13 14
26 24 27 22 7 -10 -6 -118 -13 -114 -12 7 -80 -21 -80 -33 0 -5 9 -12 20 -15
20 -5 28 -41 11 -51 -16 -10 -89 81 -102 126 -7 23 -18 50 -26 59 -18 22 -16
40 8 69 18 21 30 25 73 25 51 0 51 1 48 30 -5 39 -17 53 -61 65 -43 12 -77 -7
-101 -58 -8 -17 -18 -32 -21 -32 -3 0 -13 16 -22 36 -33 69 -124 79 -160 17
-25 -44 -15 -62 33 -56 35 5 43 2 75 -30 37 -37 45 -71 20 -81 -35 -13 -11
-110 50 -202 25 -37 45 -68 45 -70 0 -2 -16 -24 -35 -50 -57 -75 -39 -135 42
-138 l38 -1 -3 66 c-2 37 0 69 5 72 4 2 30 -2 57 -10 l48 -14 -4 -55 c-5 -62
-31 -101 -48 -74 -7 10 -10 11 -10 3 0 -7 -8 -13 -17 -13 -10 0 -27 -7 -37
-15 -28 -21 -41 -19 -81 16 -46 40 -64 76 -58 114 2 17 -2 59 -9 95 -13 62
-15 65 -45 68 -22 2 -38 -3 -54 -19 -34 -34 -22 -92 40 -193 81 -132 102 -186
100 -253 0 -32 2 -77 6 -99 7 -41 6 -43 -71 -131 -44 -49 -108 -124 -144 -166
-35 -43 -68 -77 -73 -77 -8 0 -1 15 118 225 130 230 137 245 130 295 -8 49
-39 140 -53 149 -4 3 -24 27 -45 52 -71 88 -84 159 -42 221 14 20 25 44 25 52
0 38 -106 50 -140 16 -25 -25 -25 -55 1 -136 28 -88 22 -139 -22 -175 -27 -22
-30 -28 -20 -47 17 -31 14 -38 -21 -49 -18 -6 -98 -34 -177 -62 -79 -28 -146
-49 -148 -47 -3 2 19 20 49 38 56 36 204 128 266 165 20 13 44 27 52 32 13 8
12 17 -3 74 -9 36 -17 83 -17 104 0 21 -5 45 -11 53 -8 11 -9 -12 -6 -83 l5
-98 -33 7 c-31 6 -40 -1 -191 -138 -86 -78 -173 -157 -193 -175 -20 -18 -31
-32 -25 -33 12 0 92 25 336 105 135 44 148 50 148 72 0 35 23 38 83 10 60 -27
107 -80 107 -119 0 -20 -8 -28 -37 -40 -36 -14 -39 -19 -66 -109 -16 -52 -51
-164 -78 -249 -27 -85 -51 -171 -55 -190 l-5 -35 20 24 c12 13 101 111 198
219 98 108 178 203 177 211 -1 9 -5 33 -9 55 l-8 38 98 -3 c83 -3 99 -7 111
-24 8 -11 18 -18 22 -15 12 9 13 -35 1 -66 -10 -27 -12 -28 -20 -9 -6 13 -7
-11 -4 -66 7 -97 -3 -221 -16 -213 -5 3 -9 -23 -8 -58 l1 -63 19 90 c10 50 22
97 25 105 5 12 103 -438 104 -474 0 -28 12 19 50 199 24 110 46 218 50 240 7
39 7 39 18 15 9 -21 10 -15 7 35 l-4 60 9 -50 c5 -27 7 -65 4 -82 -4 -21 -2
-33 5 -33 14 0 14 15 0 219 -14 199 -18 191 114 191 l90 0 -6 -32 c-3 -18 -8
-41 -12 -50 -6 -16 52 -87 211 -258 24 -25 52 -56 63 -69 48 -55 123 -132 127
-129 2 2 -15 62 -37 134 -149 474 -131 428 -169 440 -24 8 -36 19 -38 34 -6
36 45 97 104 125 70 33 84 32 84 -4 0 -29 0 -29 208 -95 114 -37 224 -73 245
-80 20 -8 37 -11 37 -6 0 4 -86 85 -190 180 -188 170 -191 172 -227 165 -28
-5 -35 -4 -30 8 12 31 19 146 9 162 -7 14 -11 6 -15 -36 -4 -30 -9 -80 -13
-112 l-6 -58 48 6 49 6 90 -82 c157 -144 196 -181 192 -186 -3 -2 -47 20 -98
50 -87 50 -113 64 -224 127 -58 32 -72 47 -91 96 -16 41 -15 46 5 105 38 113
22 159 -55 159 -38 0 -84 -22 -84 -40 0 -5 11 -26 25 -46 28 -41 33 -95 13
-141 -7 -15 -34 -56 -60 -90 -65 -82 -82 -125 -73 -182 10 -65 20 -79 65 -92
22 -7 44 -17 49 -23 9 -12 130 -385 138 -426 3 -14 -32 38 -77 115 -45 77
-113 193 -151 257 -88 148 -89 169 -22 283 83 143 103 186 103 226 0 45 -31
73 -76 67 -25 -3 -29 -9 -41 -68 -7 -36 -11 -80 -8 -98 5 -26 0 -41 -26 -76
-44 -62 -73 -72 -132 -46 -35 16 -48 28 -53 48 -3 15 -10 43 -15 62 -10 41 6
60 53 60 33 0 45 -30 29 -74 -16 -41 -13 -55 13 -62 30 -7 84 20 95 49 11 30
4 50 -35 95 -19 22 -34 43 -34 47 0 3 18 30 40 59 63 83 92 198 55 212 -25 10
-17 44 20 81 30 30 40 34 77 32 48 -4 56 7 38 51 -27 66 -126 58 -165 -13 -11
-21 -22 -37 -25 -37 -3 1 -14 20 -25 43 -15 32 -28 43 -53 50 -42 10 -93 -17
-102 -53 -11 -41 -3 -48 45 -42 37 4 47 1 69 -21 29 -29 33 -58 11 -77 -8 -7
-15 -25 -15 -40 0 -29 -61 -120 -99 -146 -20 -15 -21 -14 -21 20 0 30 4 36 22
36 20 0 21 1 3 20 -11 12 -31 20 -50 20 l-32 0 1 60 c0 33 2 60 3 60 1 0 14
-12 28 -26 33 -32 56 -28 77 16 20 39 10 58 -19 39 -30 -18 -51 -5 -59 36 -8
42 10 92 36 100 38 12 41 28 29 123 -11 88 -22 123 -34 110 -3 -3 -15 -54 -25
-113 -11 -60 -23 -112 -27 -116 -4 -4 -7 110 -5 254 1 144 -2 352 -6 462 l-9
200 -3 -275 c-2 -187 -5 -253 -10 -205 -12 112 -67 340 -70 290 0 -5 -11 -50
-24 -99 l-24 -89 -9 224 c-5 123 -10 215 -11 204z m102 -415 c8 -52 20 -143
26 -201 11 -114 11 -371 -1 -363 -10 6 -19 -22 -19 -61 0 -18 6 -35 13 -38 18
-6 16 -115 -3 -127 -26 -16 -30 -11 -29 33 1 23 4 32 6 19 6 -31 23 -17 23 19
0 17 -4 28 -9 25 -5 -3 -12 57 -15 137 -6 156 -14 659 -10 655 1 -2 9 -46 18
-98z m316 -819 c0 -53 -95 -182 -158 -215 -56 -29 -40 10 32 75 43 40 71 75
87 113 23 52 39 63 39 27z m-646 -35 c17 -34 51 -77 92 -115 71 -65 80 -91 25
-63 -67 32 -141 127 -156 200 -10 49 9 39 39 -22z m356 19 c0 -14 -4 -25 -10
-25 -11 0 -14 33 -3 43 11 11 13 8 13 -18z m-90 -5 c0 -11 -4 -20 -10 -20 -5
0 -10 9 -10 20 0 11 5 20 10 20 6 0 10 -9 10 -20z m-40 -151 c9 -52 9 -74 1
-82 -12 -12 -14 -4 -11 49 1 17 -6 38 -14 47 -9 9 -16 30 -16 48 0 57 27 15
40 -62z m77 54 c-3 -10 -5 -4 -5 12 0 17 2 24 5 18 2 -7 2 -21 0 -30z m113 -6
c0 -10 -7 -25 -15 -33 -9 -9 -15 -34 -15 -60 0 -31 -4 -43 -11 -38 -12 7 -5
86 13 143 7 24 13 30 19 20 5 -8 9 -22 9 -32z m-233 -109 c-3 -8 -6 -5 -6 6
-1 11 2 17 5 13 3 -3 4 -12 1 -19z m240 0 c-3 -8 -6 -5 -6 6 -1 11 2 17 5 13
3 -3 4 -12 1 -19z m20 -115 c-3 -10 -5 -2 -5 17 0 19 2 27 5 18 2 -10 2 -26 0
-35z m22 -73 c0 -9 -4 -8 -9 5 -5 11 -9 27 -9 35 0 9 4 8 9 -5 5 -11 9 -27 9
-35z m-225 -11 c-8 -14 -24 8 -24 36 0 18 1 18 16 -3 8 -12 12 -27 8 -33z
m140 17 c-3 -14 -10 -26 -15 -26 -5 0 -9 2 -9 4 0 2 -3 12 -7 22 -4 12 -3 15
5 10 7 -4 15 0 18 9 10 24 16 11 8 -19z m23 2 c-3 -7 -5 -2 -5 12 0 14 2 19 5
13 2 -7 2 -19 0 -25z m-200 0 c-3 -8 -6 -5 -6 6 -1 11 2 17 5 13 3 -3 4 -12 1
-19z m243 -66 c0 -27 -15 -52 -32 -52 -5 0 -4 9 2 19 5 11 10 29 10 40 0 12 5
21 10 21 6 0 10 -13 10 -28z m-266 -32 c7 -24 6 -24 -8 -6 -9 11 -16 29 -16
40 1 17 2 18 9 6 5 -8 12 -26 15 -40z m123 -172 c-3 -8 -6 -5 -6 6 -1 11 2 17
5 13 3 -3 4 -12 1 -19z m100 -87 c-3 -11 -8 -7 -15 12 -7 16 -9 34 -5 40 8 13
25 -31 20 -52z m-56 27 c23 -25 41 -88 42 -143 1 -43 -57 -347 -73 -380 -8
-17 -9 -17 -4 5 2 14 6 141 7 282 1 142 4 258 6 258 2 0 12 -10 22 -22z m58
-91 c-1 -31 -1 -31 -9 -7 -11 36 -11 52 0 45 6 -3 10 -21 9 -38z"/>
<path d="M1262 1960 c0 -86 2 -98 10 -69 6 24 6 62 0 105 l-9 69 -1 -105z"/>
<path d="M1293 2585 c0 -22 2 -30 4 -17 2 12 2 30 0 40 -3 9 -5 -1 -4 -23z"/>
<path d="M1143 2550 c0 -30 2 -43 4 -27 2 15 2 39 0 55 -2 15 -4 2 -4 -28z"/>
<path d="M1056 1274 c-4 -15 -5 -29 -1 -32 3 -3 5 2 5 12 0 9 5 14 10 11 6 -3
10 1 10 9 0 27 -18 27 -24 0z"/>
<path d="M1092 670 c0 -19 2 -27 5 -17 2 9 2 25 0 35 -3 9 -5 1 -5 -18z"/>
<path d="M1376 480 c8 -56 14 -64 14 -19 0 19 -5 41 -10 49 -7 10 -8 1 -4 -30z"/>
<path d="M1071 394 c0 -11 3 -14 6 -6 3 7 2 16 -1 19 -3 4 -6 -2 -5 -13z"/>
</g>
</svg>
