<?xml version="1.0" standalone="no"?>
<!DOCTYPE svg PUBLIC "-//W3C//DTD SVG 20010904//EN"
 "http://www.w3.org/TR/2001/REC-SVG-20010904/DTD/svg10.dtd">
<svg version="1.0" xmlns="http://www.w3.org/2000/svg"
 width="244.000000pt" height="305.000000pt" viewBox="0 0 244.000000 305.000000"
 preserveAspectRatio="xMidYMid meet">
<metadata>
Created by potrace 1.16, written by Peter Selinger 2001-2019
</metadata>
<g transform="translate(0.000000,305.000000) scale(0.100000,-0.100000)"
fill="#000000" stroke="none">
<path d="M1029 2788 c-12 -118 -13 -121 -26 -88 -12 34 -13 33 -5 -20 4 -30 5
-100 3 -155 -2 -55 -6 -217 -10 -359 -4 -194 -9 -260 -18 -264 -10 -3 -13 97
-12 480 1 266 5 472 9 458 4 -14 9 -41 10 -60 1 -21 4 -28 7 -16 3 11 -1 46
-8 79 -15 72 -20 63 -43 -74 -28 -163 -45 -363 -52 -606 l-7 -235 38 -32 c28
-24 37 -37 32 -51 -7 -16 -9 -17 -25 -1 -43 38 -112 4 -112 -54 0 -30 1 -31
33 -25 29 6 37 2 60 -25 27 -31 37 -80 17 -80 -6 0 -10 -27 -10 -60 0 -53 -2
-60 -20 -60 -14 0 -23 -12 -34 -47 -8 -27 -15 -39 -16 -28 -1 13 -6 7 -12 -15
-18 -67 -20 -87 -10 -123 6 -21 7 -37 4 -37 -20 1 -33 21 -38 64 -6 38 -2 57
16 96 27 59 22 77 -24 86 -46 8 -63 1 -78 -32 -10 -21 -9 -39 5 -92 9 -37 17
-91 17 -120 0 -45 -4 -57 -27 -78 -24 -23 -26 -28 -16 -55 12 -31 12 -31 -45
-56 -31 -14 -77 -34 -102 -45 -93 -43 -133 -58 -137 -54 -2 2 33 33 79 68 155
118 175 133 202 155 l28 22 -12 73 c-25 150 -29 160 -27 63 l1 -90 -25 3 c-22
3 -38 -11 -95 -75 -38 -43 -107 -120 -153 -171 -46 -51 -82 -95 -79 -97 3 -3
81 26 174 64 93 38 170 65 172 61 2 -5 -15 -36 -38 -70 -23 -34 -35 -60 -28
-60 7 0 60 27 116 60 87 50 132 70 132 57 0 -1 4 -17 9 -35 9 -31 8 -34 -23
-48 l-32 -16 -71 -281 c-39 -155 -69 -283 -68 -285 1 -2 29 34 61 78 33 45 83
114 113 153 l54 72 -7 -45 c-4 -25 -16 -94 -27 -154 -11 -59 -18 -110 -16
-112 2 -2 54 97 115 219 109 219 111 225 105 275 -5 49 -4 52 17 52 34 0 86
-28 100 -55 11 -21 10 -27 -14 -55 -14 -17 -26 -38 -26 -46 0 -9 20 -140 45
-292 25 -152 48 -294 51 -315 3 -21 7 -37 9 -35 5 5 105 608 105 633 0 13 -11
37 -25 53 -14 17 -25 34 -25 40 0 22 71 72 101 72 l31 0 -7 -49 c-6 -47 -3
-55 100 -260 59 -117 109 -211 111 -209 3 4 -24 174 -42 263 -5 25 1 20 42
-35 27 -36 51 -67 55 -70 3 -3 35 -45 69 -94 35 -50 65 -85 67 -80 3 8 -66
292 -127 524 -7 26 -18 38 -40 47 -33 12 -37 30 -17 76 l12 28 103 -61 c57
-34 106 -60 108 -57 2 2 -11 30 -31 62 -19 32 -33 61 -30 63 4 4 73 -21 150
-54 135 -58 235 -95 235 -86 0 4 -17 25 -38 48 -20 22 -90 100 -156 173 -106
119 -121 132 -145 126 l-26 -6 2 98 c1 77 0 89 -7 58 -5 -22 -9 -73 -9 -113
l-1 -73 33 6 c33 6 37 3 153 -125 65 -72 121 -136 123 -142 4 -11 -88 51 -244
164 -44 32 -85 68 -92 81 -17 31 -16 90 4 174 15 67 15 73 -1 97 -19 30 -68
35 -104 10 l-22 -15 25 -49 c27 -54 31 -90 14 -139 -18 -51 -34 -32 -31 36 3
53 1 63 -21 85 -14 14 -28 39 -32 56 -4 18 -15 34 -26 37 -17 6 -18 13 -13 59
5 41 3 55 -10 65 -23 19 -20 45 9 80 19 21 36 31 63 33 34 3 37 5 35 33 -2 32
-34 65 -63 65 -10 0 -32 -11 -48 -25 -28 -24 -30 -24 -35 -6 -3 14 8 32 40 61
l44 42 -6 137 c-12 289 -16 359 -26 464 -6 60 -17 141 -25 180 -12 63 -13 65
-8 17 3 -30 12 -107 20 -170 7 -63 17 -225 20 -360 l7 -245 -32 -33 c-18 -17
-35 -32 -37 -32 -3 0 -4 225 -4 501 1 275 -1 503 -4 506 -3 4 -6 0 -6 -8 0 -8
-9 -63 -20 -124 -25 -134 -39 -269 -49 -480 -7 -130 -8 -89 -7 212 1 204 -2
366 -6 359 -13 -24 -40 -319 -48 -536 -5 -147 -12 -229 -23 -260 l-15 -45 -1
40 c-1 47 -18 37 -24 -15 -2 -19 -5 3 -6 50 -3 147 -41 452 -61 489 -15 28
-55 -228 -69 -449 -4 -69 -9 -108 -10 -88 -1 45 -21 62 -21 18 0 -18 -4 -29
-10 -25 -5 3 -10 18 -10 33 0 33 -19 69 -20 37 -1 -57 -21 -169 -35 -193 -13
-24 -15 23 -14 476 0 277 -2 506 -4 509 -3 2 -11 -51 -18 -119z m240 -758 c6
-179 13 -336 17 -349 6 -18 4 -22 -6 -16 -9 6 -11 4 -5 -4 4 -8 -1 -21 -14
-32 l-21 -20 1 438 c2 498 13 492 28 -17z m18 18 c-2 -13 -4 -3 -4 22 0 25 2
35 4 23 2 -13 2 -33 0 -45z m0 -150 c-2 -24 -4 -5 -4 42 0 47 2 66 4 43 2 -24
2 -62 0 -85z m-257 -24 c0 -14 -21 -19 -33 -7 -9 9 13 34 24 27 5 -3 9 -12 9
-20z m448 14 c19 -19 14 -28 -13 -28 -24 0 -34 18 -18 33 9 10 17 9 31 -5z
m-388 -19 c0 -5 -7 -9 -15 -9 -15 0 -20 12 -9 23 8 8 24 -1 24 -14z m310 6 c0
-8 -7 -15 -15 -15 -26 0 -18 20 13 29 1 1 2 -6 2 -14z m-273 -139 c-15 -16
-47 -12 -47 5 0 14 43 28 54 19 5 -5 2 -15 -7 -24z m253 10 c0 -8 -3 -17 -8
-20 -10 -6 -43 19 -35 27 12 13 43 7 43 -7z m95 -37 c5 -14 1 -27 -9 -37 -21
-21 -29 -10 -21 27 8 36 21 40 30 10z m-451 -6 c8 -21 -10 -41 -24 -27 -11 11
-3 44 10 44 4 0 11 -8 14 -17z m129 -52 c4 -1 7 -7 7 -15 0 -7 11 -21 24 -29
13 -9 30 -33 37 -54 l12 -38 18 42 c10 23 27 47 38 53 12 6 21 17 21 25 0 8 6
15 13 16 6 0 22 2 35 3 19 2 22 -2 22 -37 l0 -39 -43 6 c-51 8 -59 1 -86 -70
l-18 -47 -13 39 c-24 75 -36 86 -86 78 l-44 -6 0 39 c0 40 0 41 63 34z m-173
-52 c0 -5 14 -39 30 -75 17 -36 35 -77 41 -92 10 -26 10 -26 -10 -8 -43 39
-108 214 -71 191 6 -3 10 -11 10 -16z m86 -34 c6 -25 7 -45 3 -45 -8 0 -14 15
-24 70 -10 49 7 28 21 -25z m447 22 c-12 -55 -84 -180 -96 -167 -7 7 87 199
95 194 3 -2 4 -14 1 -27z m-87 6 c-3 -10 -8 -30 -12 -45 -3 -16 -11 -28 -16
-28 -6 0 -7 8 -3 18 3 9 9 29 12 45 3 15 10 27 15 27 5 0 7 -8 4 -17z m-274
-80 c20 -23 32 -63 19 -63 -9 0 -51 60 -51 74 0 12 17 6 32 -11z m198 12 c0
-15 -54 -88 -57 -78 -6 18 27 83 43 83 8 0 14 -2 14 -5z m-396 -82 c-5 -16 -9
-53 -10 -83 -1 -76 -5 -89 -14 -60 -12 37 -12 128 0 151 16 30 34 24 24 -8z
m588 -19 c10 -33 0 -130 -12 -117 -13 13 -19 154 -7 150 6 -2 15 -17 19 -33z
m-352 -60 c0 -19 -15 -18 -34 2 -21 21 -20 22 9 16 14 -2 25 -11 25 -18z m140
18 c0 -5 -11 -14 -25 -20 -20 -9 -25 -9 -25 2 0 13 14 20 43 25 4 0 7 -3 7 -7z
m119 -101 c-1 -26 -3 -23 -20 34 -8 28 -8 29 6 11 8 -11 15 -31 14 -45z m-412
27 c-3 -8 -6 -5 -6 6 -1 11 2 17 5 13 3 -3 4 -12 1 -19z m124 -15 c2 1 -1 -3
-8 -9 -21 -18 -15 -50 12 -62 17 -8 25 -20 25 -36 0 -24 -26 -44 -32 -25 -2 6
-30 11 -63 12 -46 2 -60 6 -60 17 0 8 7 13 15 11 44 -10 45 -8 42 56 l-4 63
35 -15 c19 -8 36 -13 38 -12z m215 -37 c-8 -60 4 -78 33 -52 15 14 19 14 24 3
10 -26 -9 -40 -44 -33 -21 3 -44 1 -61 -8 -21 -11 -30 -12 -44 -2 -21 16 -10
56 16 56 23 0 35 33 21 59 -9 17 -7 20 12 24 50 10 50 10 43 -47z m268 -27
c-12 -13 -21 -16 -28 -9 -6 6 -2 18 15 36 20 21 25 23 27 9 2 -9 -4 -25 -14
-36z m-787 -11 c-3 -8 -6 -5 -6 6 -1 11 2 17 5 13 3 -3 4 -12 1 -19z m143 -61
c0 -5 -4 -5 -10 -2 -5 3 -10 14 -10 23 0 15 2 15 10 2 5 -8 10 -19 10 -23z
m483 13 c-3 -11 -9 -20 -15 -20 -5 0 -4 9 2 20 6 11 12 20 14 20 2 0 2 -9 -1
-20z m297 -36 c0 -8 -4 -14 -10 -14 -5 0 -10 9 -10 21 0 11 5 17 10 14 6 -3
10 -13 10 -21z m-198 -45 c-6 -98 3 -126 43 -139 41 -13 50 -27 69 -107 8 -32
30 -119 50 -193 36 -136 44 -186 23 -140 -6 14 -45 95 -85 180 -134 279 -142
300 -142 347 0 42 24 113 39 113 3 0 4 -27 3 -61z m184 4 c53 -83 53 -94 0
-43 -59 56 -73 79 -55 91 8 5 15 9 16 9 1 0 19 -26 39 -57z m-830 -40 c4 -26
1 -69 -6 -102 -42 -195 -41 -193 -113 -296 -124 -178 -134 -183 -63 -33 46 97
65 139 124 273 31 72 34 85 29 145 -3 36 -9 74 -12 85 -6 18 -5 18 14 -3 11
-13 23 -43 27 -69z m-136 62 c7 -9 11 -17 9 -19 -19 -17 -163 -105 -167 -102
-2 3 15 25 38 50 24 25 49 55 57 66 17 24 46 26 63 5z m500 -39 c0 -2 -7 -7
-16 -10 -8 -3 -12 -2 -9 4 6 10 25 14 25 6z m-65 -131 c6 0 15 16 22 35 7 20
12 27 12 16 1 -23 -20 -86 -29 -86 -12 0 -40 59 -39 82 0 18 3 16 12 -12 7
-19 17 -35 22 -35z m-202 -52 c5 -45 -1 -61 -81 -230 -47 -101 -87 -182 -88
-180 -3 3 89 301 104 337 6 14 16 46 22 73 7 26 18 47 25 47 7 0 15 -19 18
-47z m477 30 c0 -28 -12 -63 -20 -63 -4 0 -11 11 -14 24 -3 13 -9 31 -12 40
-5 12 0 16 20 16 18 0 26 -5 26 -17z m-239 -362 l-29 -226 -1 280 -1 280 30
-54 29 -53 -28 -227z m267 212 c22 -36 34 -73 46 -147 8 -55 14 -101 13 -103
-2 -2 -23 59 -47 135 -23 75 -45 143 -47 150 -11 27 6 10 35 -35z m-223 -60
c-4 -30 -9 -52 -12 -49 -3 3 -2 36 2 73 5 37 10 60 13 49 2 -10 1 -43 -3 -73z"/>
<path d="M1432 2785 c0 -16 2 -22 5 -12 2 9 2 23 0 30 -3 6 -5 -1 -5 -18z"/>
<path d="M1062 2770 c0 -14 2 -19 5 -12 2 6 2 18 0 25 -3 6 -5 1 -5 -13z"/>
<path d="M1443 2680 c0 -25 2 -35 4 -22 2 12 2 32 0 45 -2 12 -4 2 -4 -23z"/>
<path d="M1073 2670 c0 -25 2 -35 4 -22 2 12 2 32 0 45 -2 12 -4 2 -4 -23z"/>
<path d="M1081 2564 c0 -11 3 -14 6 -6 3 7 2 16 -1 19 -3 4 -6 -2 -5 -13z"/>
<path d="M1082 2515 c0 -16 2 -22 5 -12 2 9 2 23 0 30 -3 6 -5 -1 -5 -18z"/>
<path d="M1094 2365 c0 -49 1 -71 3 -48 2 23 2 64 0 90 -2 26 -3 8 -3 -42z"/>
</g>
</svg>
