<?xml version="1.0" standalone="no"?>
<!DOCTYPE svg PUBLIC "-//W3C//DTD SVG 20010904//EN"
 "http://www.w3.org/TR/2001/REC-SVG-20010904/DTD/svg10.dtd">
<svg version="1.0" xmlns="http://www.w3.org/2000/svg"
 width="244.000000pt" height="305.000000pt" viewBox="0 0 244.000000 305.000000"
 preserveAspectRatio="xMidYMid meet">
<metadata>
Created by potrace 1.16, written by Peter Selinger 2001-2019
</metadata>
<g transform="translate(0.000000,305.000000) scale(0.100000,-0.100000)"
fill="#000000" stroke="none">
<path d="M1568 2404 c2 -278 -1 -504 -5 -502 -4 2 -26 14 -47 27 l-39 25 6
210 c7 252 11 292 72 671 4 23 3 26 -4 10 -9 -22 -44 -223 -61 -350 -10 -75
-29 -424 -30 -527 0 -38 4 -48 21 -53 11 -4 36 -21 55 -37 l35 -31 32 30 c18
17 41 35 51 41 18 9 19 21 17 173 -2 215 -16 400 -41 546 -22 132 -49 254 -59
265 -3 4 -5 -220 -3 -498z"/>
<path d="M890 2888 c0 -7 -3 -24 -5 -38 -5 -22 -4 -22 4 -5 6 13 10 -150 10
-462 1 -266 -1 -483 -4 -483 -3 0 -23 12 -45 26 l-40 27 0 108 c0 152 18 391
40 549 31 207 32 225 15 160 -37 -140 -69 -498 -75 -832 0 -9 9 -19 19 -23 11
-3 36 -19 56 -35 l37 -30 41 35 c22 19 44 35 49 35 13 0 9 323 -7 500 -8 91
-28 234 -45 318 -16 83 -30 154 -30 157 0 3 -4 5 -10 5 -5 0 -10 -6 -10 -12z"/>
<path d="M1195 2610 c0 -93 -7 -205 -17 -280 -21 -151 -27 -241 -28 -378 0
-57 -4 -101 -9 -98 -5 3 -17 55 -27 116 -28 169 -43 173 -64 17 -12 -90 -12
-91 10 -109 13 -11 29 -22 37 -26 19 -11 27 -71 14 -104 -11 -28 -43 -38 -56
-18 -12 19 -25 10 -25 -18 0 -57 65 -80 90 -31 14 26 32 24 30 -3 -4 -49 1
-66 20 -71 14 -4 20 -14 20 -33 0 -27 0 -27 -21 -8 -24 22 -75 21 -101 -3 -21
-19 -9 -33 28 -33 42 0 61 -38 68 -136 7 -90 7 -90 -18 -102 -18 -8 -26 -20
-26 -36 0 -25 22 -51 33 -39 9 8 9 -30 1 -51 -3 -9 -10 -14 -14 -11 -14 9 -32
-24 -27 -50 3 -16 0 -24 -7 -22 -6 2 -12 22 -14 45 l-3 42 -42 0 c-23 -1 -53
-7 -67 -15 -36 -21 -54 -18 -85 13 -48 47 -56 68 -60 149 -5 106 -16 133 -55
133 -17 0 -39 -9 -51 -21 -36 -36 -22 -90 60 -227 97 -163 97 -168 -9 -350
-44 -75 -85 -144 -90 -152 -5 -8 -30 -51 -54 -95 -25 -44 -52 -89 -60 -100
-14 -18 -14 -17 -4 20 5 22 38 123 71 225 l62 185 45 15 c37 13 47 22 57 50
26 75 9 134 -66 228 -76 96 -90 162 -46 222 14 19 25 40 25 48 0 25 -33 41
-82 42 -40 0 -50 -4 -64 -25 -18 -27 -16 -53 12 -150 15 -55 16 -63 1 -97 -11
-26 -32 -48 -69 -71 -89 -57 -339 -199 -343 -195 -2 2 61 64 141 137 l145 134
45 -7 45 -6 -7 98 c-9 133 -26 156 -21 29 l3 -97 -31 6 c-26 5 -38 -1 -80 -38
-83 -71 -320 -292 -324 -301 -4 -11 -11 -13 262 75 203 66 217 72 217 95 0 13
7 26 15 29 25 10 128 -47 153 -85 33 -51 29 -76 -15 -92 -40 -15 -39 -14 -159
-409 -19 -63 -39 -128 -44 -143 -5 -16 -6 -27 -2 -25 12 4 382 411 394 433 4
7 3 27 -2 46 -17 59 -18 59 79 59 75 0 93 -3 121 -23 56 -38 59 -52 21 -91
l-33 -34 26 -129 c15 -70 33 -162 41 -203 35 -187 75 -353 75 -314 0 5 14 74
31 154 16 80 41 201 54 270 13 69 28 146 33 172 8 43 7 49 -19 80 -32 37 -34
46 -16 69 26 35 74 49 162 49 93 0 92 1 74 -61 -13 -43 -28 -22 150 -218 201
-222 233 -256 241 -259 5 -2 2 16 -5 40 -172 556 -160 525 -200 538 -45 15
-49 22 -32 62 19 43 51 72 110 98 56 25 77 21 77 -14 0 -23 14 -29 243 -104
133 -43 244 -77 247 -75 3 3 -11 18 -30 35 -19 17 -55 49 -80 72 -25 23 -88
79 -140 126 -52 47 -104 93 -115 103 -14 13 -29 17 -51 12 l-32 -5 6 91 c4 68
2 90 -7 85 -6 -4 -11 -26 -11 -50 0 -24 -7 -65 -15 -92 -8 -27 -15 -56 -15
-64 0 -9 56 -50 135 -99 185 -114 274 -174 250 -168 -30 8 -358 127 -364 132
-2 3 1 17 8 31 11 25 9 29 -19 53 -43 36 -49 88 -21 179 11 39 21 80 21 91 0
51 -73 78 -135 49 -31 -14 -32 -29 0 -76 43 -63 30 -128 -45 -223 -23 -29 -50
-69 -60 -89 -22 -43 -40 -133 -32 -162 5 -21 79 -162 157 -298 73 -130 105
-190 101 -190 -2 0 -42 44 -88 97 -45 54 -93 109 -104 123 -12 14 -42 49 -68
79 l-45 54 5 81 c9 151 11 158 86 281 100 165 103 236 13 239 l-39 1 -13 -65
c-8 -36 -12 -78 -9 -93 7 -36 -13 -75 -59 -116 -39 -34 -60 -38 -89 -16 -11 8
-39 15 -63 15 -42 0 -43 -1 -43 -33 0 -18 -7 -42 -15 -53 -13 -17 -14 -16 -8
18 4 29 2 39 -11 44 -18 7 -23 69 -6 79 18 11 11 54 -10 65 -11 6 -20 15 -20
20 0 6 8 5 18 -1 15 -9 32 -7 83 10 60 20 65 20 77 4 7 -10 10 -24 7 -31 -3
-8 -8 -31 -11 -51 -7 -46 11 -58 63 -40 63 20 70 75 18 134 -19 22 -35 45 -35
51 0 6 14 29 31 50 67 83 102 206 64 220 -25 10 -17 49 16 84 28 29 36 32 75
27 45 -5 48 -2 44 38 -5 50 -68 77 -119 50 -17 -8 -40 -34 -53 -58 l-21 -42
-8 31 c-27 98 -165 105 -172 8 -2 -28 -1 -29 39 -26 68 6 131 -63 90 -97 -8
-7 -17 -28 -21 -49 -9 -49 -53 -108 -118 -158 -57 -44 -79 -92 -35 -79 66 21
167 117 200 191 21 49 44 60 33 17 -26 -110 -126 -212 -239 -242 l-39 -10 6
64 c5 63 25 112 50 120 7 2 24 6 40 9 24 6 26 9 17 26 -13 25 -75 27 -108 4
-21 -14 -22 -14 -22 10 0 15 8 30 20 36 15 8 20 21 20 50 0 47 5 49 32 15 24
-31 52 -32 72 -3 15 20 22 68 11 68 -2 0 -16 -5 -31 -12 -23 -11 -28 -10 -40
7 -8 10 -14 36 -14 57 0 37 7 47 54 81 22 16 24 74 6 169 -20 101 -28 87 -62
-107 -6 -38 -11 -73 -10 -77 1 -5 -2 -8 -6 -8 -10 0 -22 150 -22 280 0 47 -7
132 -15 190 -8 58 -15 168 -15 244 0 77 -3 136 -7 132 -4 -4 -7 -50 -6 -104
l1 -97 -18 55 c-10 30 -19 46 -19 35 -1 -11 -2 -181 -1 -379 1 -319 -1 -358
-15 -353 -8 4 -15 1 -16 -6 0 -7 -4 -3 -9 8 -8 18 -9 17 -9 -6 -1 -14 2 -55 6
-90 l6 -64 13 40 12 40 -5 -45 c-6 -55 -24 -101 -38 -97 -14 5 -15 199 -3 447
14 293 28 315 25 39 -1 -145 2 -226 8 -226 12 0 9 757 -3 827 -5 31 -8 -4 -7
-110z m34 -967 c0 -48 -2 -54 -11 -36 -9 20 -4 93 7 93 3 0 5 -26 4 -57z m34
-96 c3 -8 1 -20 -4 -28 -6 -10 -9 -7 -9 14 0 29 5 35 13 14z m-33 -27 c1 11 4
9 10 -5 13 -29 12 -45 -3 -45 -13 0 -38 66 -28 76 3 3 9 -5 12 -18 4 -13 8
-16 9 -8z m75 -472 c-3 -24 -10 -52 -15 -63 -4 -11 -11 -28 -14 -37 -3 -10
-11 -18 -18 -17 -10 0 -10 2 0 6 7 2 12 22 12 44 0 21 5 39 10 39 6 0 10 13
10 28 0 26 7 42 18 42 2 0 1 -19 -3 -42z m-125 -25 c0 -68 -5 -66 -14 5 -4 33
-3 52 4 52 6 0 10 -24 10 -57z m47 -428 c0 -165 -3 -284 -7 -265 -9 39 -26
117 -38 169 -7 33 13 352 25 381 3 8 5 26 5 40 l-1 25 8 -25 c4 -14 8 -160 8
-325z m10 323 c-3 -8 -6 -5 -6 6 -1 11 2 17 5 13 3 -3 4 -12 1 -19z m-54 -140
c-10 -177 -21 -194 -46 -69 l-15 74 32 33 c17 19 32 34 32 34 1 0 0 -33 -3
-72z"/>
<path d="M764 1862 c-30 -4 -55 -34 -57 -68 -2 -28 -1 -29 39 -26 35 3 47 -2
78 -28 38 -34 45 -60 21 -80 -17 -14 -19 -60 -6 -107 8 -27 38 -77 95 -158 7
-9 -2 -26 -27 -56 -63 -73 -43 -138 45 -143 29 -1 33 2 32 24 0 14 -4 39 -7
55 -5 20 -3 37 5 48 13 17 16 17 76 -5 48 -17 67 -20 80 -12 30 19 19 36 -37
57 -29 11 -76 42 -105 68 -50 46 -106 136 -106 172 0 30 16 18 36 -25 32 -74
136 -173 202 -193 40 -12 27 31 -20 65 -66 48 -127 126 -134 172 -4 22 -13 42
-20 45 -22 8 -16 52 11 79 22 22 33 25 73 22 55 -4 63 10 33 58 -44 71 -161
34 -161 -51 0 -27 -16 -16 -28 19 -7 19 -19 39 -26 45 -19 16 -66 28 -92 23z"/>
</g>
</svg>
