<?xml version="1.0" standalone="no"?>
<!DOCTYPE svg PUBLIC "-//W3C//DTD SVG 20010904//EN"
 "http://www.w3.org/TR/2001/REC-SVG-20010904/DTD/svg10.dtd">
<svg version="1.0" xmlns="http://www.w3.org/2000/svg"
 width="244.000000pt" height="305.000000pt" viewBox="0 0 244.000000 305.000000"
 preserveAspectRatio="xMidYMid meet">
<metadata>
Created by potrace 1.16, written by Peter Selinger 2001-2019
</metadata>
<g transform="translate(0.000000,305.000000) scale(0.100000,-0.100000)"
fill="#000000" stroke="none">
<path d="M1279 2759 c0 -90 -4 -186 -7 -214 l-7 -50 -14 54 c-11 43 -16 50
-23 37 -5 -9 -6 -31 -2 -49 8 -36 9 -19 -7 -394 -7 -156 -17 -283 -22 -283 -5
0 -6 19 -2 43 3 23 2 37 -2 30 -12 -17 -5 365 8 457 18 125 20 159 10 130 -8
-22 -9 -19 -11 20 -2 37 -3 41 -9 20 l-8 -25 -5 25 c-3 14 -6 -36 -7 -110 -1
-74 -6 -190 -11 -256 -5 -67 -10 -170 -11 -228 -1 -58 -5 -106 -9 -106 -11 0
-16 18 -31 120 -23 164 -40 167 -61 10 l-12 -93 37 -29 c34 -28 37 -34 37 -84
0 -60 -16 -77 -52 -55 -23 14 -37 7 -33 -17 2 -9 4 -20 4 -24 2 -13 32 -38 47
-38 8 0 24 11 36 25 29 34 40 31 33 -8 -5 -24 -1 -38 14 -56 26 -29 27 -45 4
-36 -21 8 -21 8 -53 6 -14 -1 -34 -8 -45 -17 -17 -13 -18 -16 -5 -24 8 -5 25
-10 36 -10 31 0 46 -23 42 -66 l-3 -37 -53 42 c-61 49 -112 122 -112 163 0 17
-7 31 -20 38 -28 15 -25 37 10 72 28 27 36 30 75 25 44 -4 45 -4 45 23 0 44
-30 72 -77 74 -49 1 -77 -20 -94 -72 l-12 -36 -17 35 c-27 52 -54 72 -100 72
-51 0 -80 -25 -80 -69 0 -32 0 -32 40 -27 47 7 82 -12 105 -57 14 -28 14 -31
-5 -47 -45 -39 -19 -117 88 -263 11 -14 11 -20 0 -31 -72 -76 -83 -111 -45
-147 52 -49 119 -34 97 22 -14 37 -13 71 3 84 8 7 30 4 72 -10 33 -11 61 -21
62 -22 5 -4 -24 -166 -31 -173 -4 -5 -5 4 -1 20 7 26 6 27 -38 27 -25 0 -59
-8 -75 -17 -39 -22 -70 -9 -112 48 -22 32 -30 52 -29 83 1 55 -11 138 -24 154
-13 17 -62 15 -81 -4 -40 -39 -33 -87 26 -182 91 -147 111 -191 104 -233 -3
-21 -36 -89 -74 -151 -37 -62 -101 -170 -141 -241 -41 -70 -77 -130 -82 -133
-10 -6 2 33 78 266 l58 174 37 11 c53 15 70 36 76 93 6 66 -9 106 -64 172 -86
103 -105 178 -59 240 14 19 25 41 25 50 0 38 -113 55 -143 22 -22 -25 -21 -52
5 -133 19 -59 20 -73 9 -108 -14 -50 -36 -66 -216 -169 -218 -123 -221 -124
-145 -50 36 35 103 96 148 137 83 73 83 73 128 66 l45 -6 -7 98 c-9 133 -26
157 -21 30 l3 -97 -33 6 c-30 6 -39 1 -86 -41 -28 -27 -68 -62 -87 -79 -127
-113 -240 -220 -236 -224 3 -2 33 5 68 16 35 11 143 46 241 77 167 53 177 57
177 81 0 36 20 38 81 11 59 -27 92 -57 108 -100 14 -36 9 -43 -34 -57 -34 -11
-34 -12 -95 -203 -34 -106 -74 -232 -90 -282 -16 -49 -26 -92 -24 -95 6 -5 12
2 238 250 181 199 174 186 150 268 l-7 24 101 -4 c83 -2 105 -7 129 -24 38
-29 41 -60 7 -95 l-27 -28 21 -103 c14 -65 20 -127 18 -168 -2 -36 -2 -53 1
-37 8 51 20 27 42 -91 29 -147 53 -254 56 -250 2 2 20 84 40 183 23 109 43
183 51 188 9 5 14 27 14 65 0 31 7 93 15 136 l15 80 -32 33 c-37 38 -34 53 22
91 28 19 46 22 122 22 l90 0 -7 -50 c-8 -55 -4 -61 78 -150 24 -25 103 -111
176 -193 74 -81 136 -145 138 -143 9 9 -165 552 -180 564 -7 5 -24 12 -39 16
-30 7 -34 20 -19 58 16 42 56 78 109 98 67 26 70 25 74 -7 3 -26 11 -31 138
-73 199 -67 351 -113 356 -107 2 2 -21 26 -53 53 -32 27 -90 78 -128 114 -192
179 -197 182 -233 175 l-33 -6 7 89 c8 104 -9 139 -20 39 -3 -34 -13 -83 -21
-110 -18 -60 -27 -51 204 -192 99 -60 176 -111 171 -113 -14 -5 -354 117 -359
128 -2 3 0 17 4 32 6 23 2 32 -24 54 -28 23 -31 31 -31 83 0 31 9 82 20 114
23 64 19 102 -13 118 -26 15 -105 5 -124 -14 -14 -14 -13 -20 15 -62 48 -73
33 -138 -59 -248 -51 -61 -79 -131 -79 -198 0 -35 69 -174 179 -358 48 -81 84
-154 71 -146 -6 4 -76 82 -156 173 -133 154 -144 169 -138 197 3 17 7 66 9
110 2 89 6 98 96 246 49 80 59 103 59 142 0 52 -23 77 -72 77 -22 0 -29 -5
-33 -27 -3 -16 -10 -49 -16 -74 -5 -25 -7 -58 -3 -73 8 -33 -35 -100 -79 -123
-27 -14 -33 -14 -64 1 -18 9 -54 16 -78 16 l-45 0 5 -42 c2 -24 2 -34 -1 -23
-3 11 -12 34 -20 52 -17 37 -18 83 -3 83 7 0 9 11 6 29 -6 28 -4 29 56 48 88
29 98 16 72 -88 -6 -23 -3 -27 19 -33 31 -8 81 15 96 44 12 23 -6 76 -34 99
-39 32 -39 49 -2 94 69 84 99 203 60 232 -15 11 -15 14 0 43 23 44 57 64 103
60 35 -3 38 -1 41 23 4 32 -46 79 -83 79 -30 0 -82 -44 -99 -84 -12 -28 -14
-29 -21 -11 -17 50 -32 69 -64 82 -58 24 -111 -10 -111 -71 0 -25 2 -26 39
-20 46 7 76 -6 96 -45 13 -26 13 -30 -4 -45 -10 -9 -21 -35 -25 -56 -7 -45
-72 -130 -124 -162 l-33 -21 3 44 c3 40 5 44 36 50 42 9 48 15 32 35 -10 12
-27 15 -68 12 -39 -2 -56 1 -58 10 -1 7 0 8 3 2 8 -18 33 39 33 76 0 41 7 42
35 7 30 -36 71 -27 83 20 12 41 7 48 -24 37 -37 -14 -40 -13 -54 20 -19 46 -6
91 35 118 39 25 39 22 24 129 -19 145 -30 149 -54 21 -33 -183 -31 -176 -38
-148 -11 50 -30 481 -33 759 -2 156 -6 286 -9 289 -3 3 -5 -69 -6 -159z m-92
-271 c-3 -8 -6 -5 -6 6 -1 11 2 17 5 13 3 -3 4 -12 1 -19z m50 -515 c-3 -10
-5 -2 -5 17 0 19 2 27 5 18 2 -10 2 -26 0 -35z m-52 -141 c1 -32 1 -41 -2 -22
-2 19 -9 39 -14 45 -5 5 -9 23 -9 40 1 54 22 0 25 -63z m35 -48 c0 -41 -4 -63
-10 -59 -12 8 -12 0 -1 -45 5 -19 12 -48 16 -65 l6 -30 -17 24 c-12 17 -18 43
-17 80 0 58 13 161 19 161 2 0 4 -30 4 -66z m-40 -96 c0 -27 -4 -48 -10 -48
-6 0 -10 27 -10 63 0 44 3 58 10 47 5 -8 10 -36 10 -62z m-256 -115 c23 -55
108 -141 172 -173 47 -23 63 -57 22 -45 -110 34 -227 158 -228 243 0 35 13 26
34 -25z m656 27 c0 -33 -48 -118 -90 -160 -38 -38 -90 -70 -137 -84 -43 -14
-25 22 23 46 57 28 158 134 174 182 13 39 30 48 30 16z m-373 -52 c-3 -7 -5
-2 -5 12 0 14 2 19 5 13 2 -7 2 -19 0 -25z m58 -25 c-9 -50 -17 -34 -9 18 4
24 9 38 12 31 2 -7 1 -29 -3 -49z m-48 -15 c-3 -8 -6 -5 -6 6 -1 11 2 17 5 13
3 -3 4 -12 1 -19z m20 -25 c-3 -10 -5 -4 -5 12 0 17 2 24 5 18 2 -7 2 -21 0
-30z m80 -115 c-2 -18 -4 -4 -4 32 0 36 2 50 4 33 2 -18 2 -48 0 -65z m-160
-5 c-2 -16 -4 -3 -4 27 0 30 2 43 4 28 2 -16 2 -40 0 -55z m150 -175 c-3 -7
-5 -2 -5 12 0 14 2 19 5 13 2 -7 2 -19 0 -25z m-180 -25 c-3 -10 -5 -4 -5 12
0 17 2 24 5 18 2 -7 2 -21 0 -30z m31 -91 c2 -7 -2 -10 -12 -6 -9 3 -16 11
-16 16 0 13 23 5 28 -10z m139 -69 c-2 -16 -4 -3 -4 27 0 30 2 43 4 28 2 -16
2 -40 0 -55z m43 73 c0 -2 -7 -6 -15 -10 -8 -3 -15 -1 -15 4 0 6 7 10 15 10 8
0 15 -2 15 -4z m-120 -157 c0 -6 -4 -7 -10 -4 -5 3 -10 11 -10 16 0 6 5 7 10
4 6 -3 10 -11 10 -16z m17 -1 c-3 -8 -6 -5 -6 6 -1 11 2 17 5 13 3 -3 4 -12 1
-19z m-8 -558 c0 -30 -2 -56 -3 -57 -2 -2 -18 70 -37 159 -34 162 -42 295 -24
366 7 25 8 26 15 7 7 -17 9 -18 9 -2 1 9 7 26 14 37 10 17 13 -21 19 -217 4
-131 7 -263 7 -293z m-86 404 c-7 -49 -7 -49 -13 -14 -3 19 -1 43 4 52 15 25
17 17 9 -38z"/>
<path d="M1171 764 c0 -11 3 -14 6 -6 3 7 2 16 -1 19 -3 4 -6 -2 -5 -13z"/>
<path d="M1162 685 c0 -16 2 -22 5 -12 2 9 2 23 0 30 -3 6 -5 -1 -5 -18z"/>
<path d="M887 2904 c-10 -10 -9 -52 1 -58 8 -5 5 -936 -3 -944 -3 -3 -15 4
-28 15 -12 11 -30 23 -39 26 -16 6 -18 20 -18 107 0 145 17 372 41 540 29 201
32 240 14 165 -38 -161 -62 -403 -64 -650 l-1 -180 54 -37 c54 -36 55 -36 72
-17 10 11 33 27 51 36 l33 15 0 97 c0 134 -18 430 -31 526 -12 89 -56 315 -67
346 -4 11 -11 17 -15 13z"/>
<path d="M1184 2760 c0 -80 2 -112 3 -72 2 39 2 105 0 145 -1 39 -3 7 -3 -73z"/>
<path d="M1568 2876 c-3 -14 -1 -26 3 -26 5 0 9 -214 9 -475 0 -279 -4 -475
-9 -475 -5 0 -28 12 -51 28 l-43 27 7 185 c8 213 20 344 47 519 20 124 20 174
1 84 -35 -162 -62 -463 -62 -691 0 -128 1 -133 23 -141 12 -5 35 -21 50 -35
l29 -27 33 30 c19 16 44 32 56 36 l22 7 -6 212 c-7 237 -26 420 -63 610 -27
143 -38 174 -46 132z"/>
<path d="M1332 460 c0 -14 2 -19 5 -12 2 6 2 18 0 25 -3 6 -5 1 -5 -13z"/>
</g>
</svg>
