<?xml version="1.0" standalone="no"?>
<!DOCTYPE svg PUBLIC "-//W3C//DTD SVG 20010904//EN"
 "http://www.w3.org/TR/2001/REC-SVG-20010904/DTD/svg10.dtd">
<svg version="1.0" xmlns="http://www.w3.org/2000/svg"
 width="244.000000pt" height="305.000000pt" viewBox="0 0 244.000000 305.000000"
 preserveAspectRatio="xMidYMid meet">
<metadata>
Created by potrace 1.16, written by Peter Selinger 2001-2019
</metadata>
<g transform="translate(0.000000,305.000000) scale(0.100000,-0.100000)"
fill="#000000" stroke="none">
<path d="M1136 2773 c-3 -76 -9 -286 -13 -468 -5 -235 -10 -317 -16 -285 -5
25 -13 56 -19 70 -10 24 -11 24 -18 5 -4 -11 -13 -60 -19 -110 -12 -86 -12
-90 8 -107 12 -9 25 -18 30 -20 5 -2 10 -32 12 -68 4 -60 2 -65 -16 -64 -11 1
-28 5 -37 9 -14 6 -18 2 -18 -17 0 -53 52 -87 80 -53 20 25 25 18 22 -31 -3
-31 -9 -47 -21 -51 -51 -16 -60 -25 -55 -57 l6 -31 -35 37 c-20 20 -41 56 -48
80 -7 23 -18 50 -26 59 -21 25 -16 45 19 74 25 21 40 26 72 23 31 -2 41 1 42
12 1 29 -25 67 -55 79 -42 18 -96 -8 -113 -55 -12 -35 -28 -46 -28 -19 0 8
-12 28 -27 44 -26 27 -48 35 -95 32 -27 -2 -58 -38 -58 -66 0 -22 4 -25 40
-25 69 0 147 -94 95 -114 -38 -14 -8 -124 60 -216 19 -26 35 -51 35 -55 0 -4
-16 -25 -35 -48 -53 -61 -45 -116 20 -137 65 -22 72 -10 49 83 -9 37 9 57 44
48 15 -4 29 -16 30 -25 2 -11 0 -16 -7 -12 -6 4 -18 -20 -31 -60 -11 -37 -25
-73 -30 -79 -14 -17 -58 -10 -82 12 -47 42 -58 69 -63 158 -6 103 -16 125 -53
125 -33 0 -45 -8 -61 -37 -25 -47 -13 -80 87 -242 68 -110 70 -150 14 -249
-134 -234 -235 -408 -243 -416 -16 -18 -10 5 59 218 l67 209 40 14 c52 18 63
30 70 76 11 70 -3 112 -66 193 -83 108 -96 161 -54 229 31 51 31 69 0 83 -40
18 -92 15 -115 -8 -25 -25 -25 -42 0 -115 38 -111 24 -158 -63 -213 -103 -65
-318 -184 -323 -179 -3 2 44 49 103 104 59 54 122 112 138 127 26 23 36 27 72
22 51 -7 51 -5 39 115 -13 118 -31 118 -23 0 l7 -88 -35 1 c-31 1 -52 -16
-220 -168 -102 -93 -183 -171 -181 -174 3 -2 111 30 240 72 187 61 236 80 236
94 1 40 15 47 65 28 59 -23 102 -60 120 -104 16 -38 7 -62 -24 -62 -9 0 -22
-4 -29 -9 -12 -7 -182 -539 -182 -565 1 -12 12 0 244 258 l158 177 -12 45 c-7
24 -10 47 -8 50 9 9 170 6 180 -4 5 -5 4 -50 -3 -107 -6 -54 -11 -149 -12
-211 -1 -61 -5 -107 -9 -100 -4 6 -7 -14 -7 -44 1 -53 3 -49 34 75 18 72 36
123 38 115 3 -8 29 -127 57 -265 28 -137 53 -251 54 -252 3 -3 84 381 99 470
5 31 13 57 17 57 5 0 20 -53 35 -117 30 -133 38 -158 29 -93 -3 25 -6 70 -5
100 0 38 -2 47 -7 31 -6 -18 -11 1 -20 70 -7 52 -18 129 -24 172 -9 59 -9 80
0 89 9 9 12 7 13 -8 0 -17 1 -17 9 3 7 17 19 22 62 25 29 1 70 2 92 0 37 -3
38 -4 31 -35 -4 -18 -9 -41 -11 -52 -3 -12 6 -31 23 -50 16 -16 104 -114 197
-218 93 -103 171 -186 173 -183 2 2 -33 123 -78 267 -45 145 -84 272 -87 282
-2 10 -17 21 -33 24 -43 8 -53 25 -36 66 20 47 63 84 121 103 51 17 65 11 66
-27 0 -13 58 -36 240 -97 132 -44 240 -77 240 -73 0 5 -21 28 -47 52 -27 23
-97 89 -158 145 -166 154 -170 157 -204 149 l-29 -6 5 97 c5 72 3 95 -5 90 -7
-4 -12 -24 -12 -44 0 -21 -7 -64 -15 -95 -8 -32 -15 -66 -15 -75 0 -12 44 -45
128 -97 202 -126 264 -167 259 -171 -2 -3 -86 26 -186 62 l-183 67 6 33 c6 27
2 37 -24 62 -37 37 -40 89 -10 184 25 79 25 93 0 118 -34 34 -140 21 -140 -17
0 -10 11 -35 25 -55 44 -65 31 -123 -55 -232 -52 -66 -90 -157 -90 -214 0 -23
80 -179 207 -400 82 -143 75 -139 -84 46 -185 215 -173 197 -162 234 5 18 9
65 9 104 0 77 13 109 109 270 53 90 60 129 31 167 -17 22 -29 27 -54 25 -27
-3 -32 -8 -39 -43 -5 -22 -12 -53 -17 -68 -5 -17 -5 -39 1 -53 12 -32 -7 -70
-56 -113 -41 -36 -65 -39 -90 -11 -9 10 -27 18 -38 17 -24 -3 -46 49 -45 108
1 35 2 36 5 8 3 -23 8 -30 19 -26 17 6 19 30 2 36 -19 7 2 25 32 29 25 3 25 3
22 -69 -2 -72 -2 -73 23 -73 39 0 84 27 91 54 8 33 0 54 -36 96 -16 19 -30 40
-30 46 0 6 13 28 29 48 40 50 72 118 78 167 5 32 2 44 -16 60 -19 18 -20 22
-7 48 21 39 58 61 106 61 36 0 40 3 40 24 0 35 -30 66 -72 73 -33 5 -41 2 -73
-30 -19 -19 -35 -42 -35 -51 0 -25 -19 -19 -26 8 -8 33 -44 64 -80 72 -39 8
-82 -28 -86 -71 -3 -29 -2 -30 38 -27 32 3 47 -2 72 -23 35 -29 40 -49 19 -74
-8 -9 -19 -34 -25 -57 -12 -40 -60 -113 -75 -114 -5 0 -7 11 -5 24 4 30 -18
56 -48 56 -20 0 -24 5 -24 29 0 16 -3 44 -6 62 -6 33 -6 33 10 13 8 -12 27
-24 41 -26 21 -4 29 0 40 23 21 39 20 63 -2 54 -39 -16 -50 -16 -64 1 -11 13
-11 18 -1 21 7 3 12 23 12 52 0 41 4 50 25 61 22 12 25 20 25 65 0 53 -16 154
-26 164 -9 10 -23 -22 -29 -71 -4 -26 -11 -48 -16 -48 -5 0 -9 -12 -9 -27 0
-16 -5 -35 -10 -43 -6 -10 -10 144 -12 445 -1 425 -11 482 -18 105 l-2 -135
-13 70 c-7 39 -21 102 -30 140 l-18 70 -17 -60 c-39 -130 -53 -216 -60 -350
-5 -99 -7 -15 -8 283 0 233 -2 426 -5 428 -2 2 -7 -58 -11 -133z m83 -448 c-4
-104 -9 -235 -10 -290 l-3 -100 -6 85 -6 85 -2 -110 c0 -60 3 -132 7 -160 10
-55 3 -118 -10 -109 -5 3 -9 -8 -9 -25 0 -32 15 -50 23 -29 3 7 6 -1 6 -19 1
-26 -2 -30 -19 -26 -14 4 -21 15 -22 37 -3 53 3 101 13 104 11 5 12 89 0 96
-10 7 -4 319 10 436 10 90 31 222 34 218 1 -2 -1 -88 -6 -193z m-82 -457 c-3
-7 -5 -2 -5 12 0 14 2 19 5 13 2 -7 2 -19 0 -25z m-204 -303 c16 -30 51 -75
78 -100 31 -29 49 -54 48 -68 0 -12 -3 -16 -6 -9 -2 6 -10 12 -17 12 -16 0
-88 76 -113 120 -23 39 -39 100 -26 100 4 0 21 -25 36 -55z m641 28 c-12 -49
-45 -105 -91 -154 -25 -27 -50 -49 -54 -49 -22 0 -4 37 43 89 28 31 60 75 70
99 21 47 42 57 32 15z m-377 -6 c-6 -20 -27 -19 -27 2 0 14 5 19 15 14 9 -3
14 -10 12 -16z m103 4 c0 -23 -16 -36 -25 -21 -9 14 1 40 15 40 5 0 10 -9 10
-19z m-171 -79 c5 -9 12 -35 16 -57 l8 -40 -27 28 c-16 17 -26 39 -26 58 0 32
14 38 29 11z m241 -13 c0 -19 -7 -37 -17 -45 -27 -20 -34 -17 -27 14 16 64 44
85 44 31z m-133 -16 c-3 -10 -5 -4 -5 12 0 17 2 24 5 18 2 -7 2 -21 0 -30z
m170 -95 c-3 -8 -6 -5 -6 6 -1 11 2 17 5 13 3 -3 4 -12 1 -19z m-310 -10 c-3
-8 -6 -5 -6 6 -1 11 2 17 5 13 3 -3 4 -12 1 -19z m55 -20 c-15 -15 -26 -4 -18
18 5 13 9 15 18 6 9 -9 9 -15 0 -24z m180 0 c-9 -9 -12 -7 -12 12 0 19 3 21
12 12 9 -9 9 -15 0 -24z m-265 -100 c-2 -13 -4 -5 -4 17 -1 22 1 32 4 23 2
-10 2 -28 0 -40z m42 -8 l-1 -25 -8 25 c-4 14 -8 32 -9 40 -1 13 0 13 9 0 5
-8 9 -26 9 -40z m258 3 c-3 -10 -5 -2 -5 17 0 19 2 27 5 18 2 -10 2 -26 0 -35z
m-313 -57 c-3 -14 -10 -26 -15 -26 -4 0 -3 14 3 31 12 36 22 33 12 -5z m303 2
c-3 -7 -5 -2 -5 12 0 14 2 19 5 13 2 -7 2 -19 0 -25z m-240 -10 c-3 -7 -5 -2
-5 12 0 14 2 19 5 13 2 -7 2 -19 0 -25z m213 15 c0 -10 -5 -25 -10 -33 -9 -13
-12 -12 -25 4 -17 22 -11 38 10 29 8 -3 15 0 15 6 0 6 2 11 5 11 3 0 5 -8 5
-17z m-143 -10 c5 -14 -24 -36 -37 -28 -20 12 -11 42 12 40 12 -1 23 -6 25
-12z m160 -35 c-3 -8 -6 -5 -6 6 -1 11 2 17 5 13 3 -3 4 -12 1 -19z m-109
-239 c-3 -8 -7 -3 -11 10 -4 17 -3 21 5 13 5 -5 8 -16 6 -23z m-98 -52 c0 -34
-15 -66 -25 -55 -10 9 6 99 16 92 5 -3 9 -20 9 -37z m17 -9 c-3 -8 -6 -5 -6 6
-1 11 2 17 5 13 3 -3 4 -12 1 -19z m57 -10 c-10 -30 -11 -113 -2 -333 l8 -180
-30 135 c-16 74 -35 162 -42 195 -8 33 -13 66 -12 73 1 6 2 23 3 37 1 25 55
95 73 95 6 0 7 -9 2 -22z m-124 -238 c-17 -67 -19 -70 -14 -25 3 28 11 79 17
115 11 60 12 62 15 25 1 -22 -7 -74 -18 -115z"/>
<path d="M1560 2893 c0 -12 -3 -30 -6 -40 -5 -15 -4 -15 5 -3 8 11 11 -120 11
-467 0 -266 -2 -483 -5 -483 -3 0 -23 12 -45 26 l-40 27 0 143 c0 168 14 348
41 529 28 195 30 219 9 120 -32 -149 -48 -297 -61 -559 l-12 -250 22 -15 c12
-9 37 -28 55 -43 l33 -27 52 37 52 37 -5 250 c-5 256 -19 386 -66 615 -20 100
-40 150 -40 103z"/>
<path d="M890 2886 c0 -8 -3 -22 -7 -32 -4 -12 -3 -15 5 -10 9 5 12 -108 12
-468 0 -262 -2 -476 -5 -476 -3 0 -24 12 -47 27 l-41 28 7 200 c6 202 23 383
51 554 9 52 14 96 11 98 -6 6 -46 -216 -57 -319 -5 -51 -14 -196 -19 -323 -9
-224 -8 -230 11 -245 11 -8 36 -28 55 -44 l35 -29 27 25 c15 14 37 31 50 37
21 11 22 16 22 177 0 245 -17 436 -56 632 -19 95 -34 175 -34 177 0 3 -4 5
-10 5 -5 0 -10 -6 -10 -14z"/>
<path d="M1321 2834 c0 -11 3 -14 6 -6 3 7 2 16 -1 19 -3 4 -6 -2 -5 -13z"/>
<path d="M1333 2640 c0 -25 2 -35 4 -22 2 12 2 32 0 45 -2 12 -4 2 -4 -23z"/>
<path d="M1163 2530 c0 -30 2 -43 4 -27 2 15 2 39 0 55 -2 15 -4 2 -4 -28z"/>
<path d="M1344 2225 c0 -88 2 -123 3 -77 2 46 2 118 0 160 -1 42 -3 5 -3 -83z"/>
<path d="M1441 1244 c0 -11 3 -14 6 -6 3 7 2 16 -1 19 -3 4 -6 -2 -5 -13z"/>
<path d="M1383 825 c0 -22 2 -30 4 -17 2 12 2 30 0 40 -3 9 -5 -1 -4 -23z"/>
<path d="M1393 700 c0 -25 2 -35 4 -22 2 12 2 32 0 45 -2 12 -4 2 -4 -23z"/>
</g>
</svg>
