<?xml version="1.0" standalone="no"?>
<!DOCTYPE svg PUBLIC "-//W3C//DTD SVG 20010904//EN"
 "http://www.w3.org/TR/2001/REC-SVG-20010904/DTD/svg10.dtd">
<svg version="1.0" xmlns="http://www.w3.org/2000/svg"
 width="244.000000pt" height="305.000000pt" viewBox="0 0 244.000000 305.000000"
 preserveAspectRatio="xMidYMid meet">
<metadata>
Created by potrace 1.16, written by Peter Selinger 2001-2019
</metadata>
<g transform="translate(0.000000,305.000000) scale(0.100000,-0.100000)"
fill="#000000" stroke="none">
<path d="M1382 2895 c0 -16 2 -22 5 -12 2 9 2 23 0 30 -3 6 -5 -1 -5 -18z"/>
<path d="M930 2900 c0 -8 -3 -26 -6 -40 -4 -20 -3 -22 5 -10 8 11 11 -122 11
-467 0 -266 -2 -483 -6 -483 -3 0 -21 12 -40 28 l-34 27 0 143 c0 181 15 399
41 570 22 154 24 199 3 97 -34 -174 -56 -450 -64 -832 0 -7 6 -13 13 -13 7 0
29 -14 49 -30 l37 -31 46 33 46 33 -6 225 c-3 124 -11 275 -16 335 -12 137
-57 407 -70 420 -6 5 -9 4 -9 -5z"/>
<path d="M1082 2880 c0 -14 2 -19 5 -12 2 6 2 18 0 25 -3 6 -5 1 -5 -13z"/>
<path d="M1516 2869 c-8 -42 -6 -60 4 -29 4 14 8 -192 9 -457 1 -266 -1 -483
-4 -483 -3 0 -21 10 -41 23 l-36 22 6 220 c5 191 13 296 42 530 4 28 4 47 1
44 -12 -10 -45 -313 -53 -479 l-8 -165 -8 225 c-4 124 -14 293 -22 375 l-13
150 -3 -355 c-3 -403 -2 -378 -15 -388 -16 -11 -33 -78 -41 -157 -4 -38 -8
-65 -9 -60 -2 6 -8 89 -15 185 -19 283 -61 554 -80 519 -31 -57 -72 -408 -74
-631 -1 -64 -4 -93 -11 -87 -6 6 -11 92 -12 207 -3 211 -20 582 -33 697 -4 44
-8 -59 -9 -280 -1 -329 -14 -555 -33 -555 -4 0 -9 82 -11 183 l-2 182 -3 -193
c-2 -186 -1 -194 21 -226 12 -18 28 -31 35 -29 6 3 12 1 12 -5 0 -20 -14 -20
-38 -2 -48 38 -106 14 -119 -50 -8 -40 -16 -38 -37 11 -30 67 -111 78 -141 19
-25 -48 -20 -60 26 -60 70 0 125 -76 84 -117 -20 -19 -11 -90 16 -145 24 -47
28 -208 5 -208 -14 0 -36 69 -36 114 0 27 -25 46 -50 38 -61 -20 -66 -85 -15
-186 41 -82 44 -98 11 -67 -35 33 -75 113 -82 164 -5 37 -2 52 21 91 26 45 27
48 10 66 -13 14 -31 20 -60 20 -68 0 -83 -37 -54 -138 10 -37 19 -77 19 -90 0
-28 -34 -97 -52 -106 -14 -7 -21 -11 -164 -106 -55 -36 -117 -76 -139 -89
l-40 -24 36 39 c19 21 80 85 135 142 l99 104 43 -7 43 -6 -7 78 c-11 132 -23
162 -21 50 1 -53 -2 -97 -6 -97 -5 0 -17 4 -27 10 -16 8 -44 -16 -194 -172
-96 -100 -173 -184 -172 -186 2 -1 100 33 217 76 177 66 215 83 217 100 6 40
25 43 80 16 63 -31 72 -55 43 -112 -12 -23 -21 -52 -21 -64 0 -13 -34 -144
-74 -293 -41 -148 -73 -271 -71 -273 2 -2 83 96 180 217 l176 220 -3 53 c-3
49 -1 53 20 56 12 2 22 1 22 -1 0 -3 -11 -82 -25 -177 -14 -95 -24 -182 -24
-193 1 -19 11 43 54 331 5 36 10 42 31 42 13 0 24 -5 24 -11 0 -34 -105 -418
-110 -403 -4 11 -9 -5 -14 -40 -3 -32 -5 -60 -3 -62 2 -2 40 88 85 200 65 162
82 215 82 255 0 28 4 51 9 51 15 0 71 -51 71 -64 0 -7 -11 -25 -25 -40 -14
-15 -25 -36 -25 -48 0 -21 34 -216 75 -433 13 -71 28 -148 31 -170 4 -22 9
-35 10 -30 6 17 74 393 96 527 l22 127 -27 25 c-34 32 -34 46 1 79 45 43 59
36 54 -25 -3 -48 5 -74 87 -278 50 -124 91 -222 91 -219 0 9 -28 215 -44 324
-8 55 -18 123 -21 150 -4 28 -9 58 -11 68 -4 13 1 17 21 17 26 0 27 -2 21 -36
-4 -19 -9 -41 -12 -48 -4 -10 284 -385 342 -446 10 -10 9 5 -6 60 -28 103 -88
321 -111 401 -24 83 -24 96 -4 79 27 -22 24 -7 -11 64 -41 81 -38 101 19 127
56 25 64 24 70 -9 5 -26 18 -33 213 -105 115 -42 210 -75 212 -73 2 2 -70 80
-160 173 -146 150 -166 168 -193 166 l-31 -2 4 97 c5 109 -6 118 -19 15 -4
-37 -11 -87 -15 -111 -8 -49 -17 -38 119 -134 183 -130 221 -158 211 -158 -14
0 -307 120 -317 130 -5 4 -4 18 3 30 10 19 8 26 -15 50 -34 36 -41 89 -21 166
21 82 20 127 -2 147 -32 29 -112 16 -112 -19 0 -8 10 -33 21 -56 34 -67 18
-147 -45 -223 -37 -46 -41 -24 -7 44 51 100 36 189 -30 179 -18 -2 -25 -12
-32 -43 -16 -79 -28 -115 -37 -110 -12 8 -1 193 16 244 18 58 18 105 -1 121
-23 19 -18 39 20 77 28 28 41 34 67 31 29 -3 33 0 36 23 2 14 -5 36 -16 49
-36 45 -121 17 -136 -46 -8 -31 -22 -31 -30 1 -9 34 -52 75 -80 75 -13 0 -31
-9 -41 -20 -17 -19 -35 -19 -35 2 0 5 6 8 14 5 9 -4 19 5 26 23 22 53 33 54
85 8 46 -41 47 -41 64 -22 9 11 28 28 44 37 l27 17 0 141 c0 238 -23 499 -67
742 -16 95 -27 114 -37 66z m-286 -830 c0 -359 -2 -420 -14 -410 -8 6 -18 11
-22 10 -22 -4 -23 4 -8 41 12 31 15 59 10 122 -15 203 -16 386 -3 488 l13 105
-2 -185 -2 -185 8 155 c4 85 8 183 9 218 0 34 3 62 6 62 3 0 5 -190 5 -421z
m-53 -281 c-2 -18 -4 -6 -4 27 0 33 2 48 4 33 2 -15 2 -42 0 -60z m-122 -70
c4 -40 5 -95 3 -123 l-3 -50 -23 37 c-13 20 -26 54 -29 75 -3 21 -12 42 -20
46 -7 4 -13 14 -13 21 0 22 40 66 60 66 15 0 19 -11 25 -72z m305 44 c0 -15
-2 -15 -10 -2 -13 20 -13 33 0 25 6 -3 10 -14 10 -23z m116 3 c15 -24 15 -29
-1 -83 -17 -54 -51 -132 -59 -132 -3 0 -1 118 3 213 1 35 34 37 57 2z m-326
-80 c0 -28 5 -37 23 -44 12 -5 31 -25 42 -44 l19 -36 24 39 c13 22 30 40 38
40 8 0 14 10 14 23 0 12 5 29 10 37 9 13 11 13 20 0 5 -8 10 -30 10 -47 0 -33
-4 -36 -65 -45 -14 -2 -24 -18 -36 -57 l-16 -54 -6 39 c-9 53 -25 72 -67 77
-30 3 -35 7 -38 31 -4 36 5 76 18 76 6 0 10 -16 10 -35z m-190 -71 c7 -19 9
-38 5 -42 -10 -10 -35 29 -35 55 0 35 17 28 30 -13z m133 16 c3 -11 1 -20 -4
-20 -5 0 -9 9 -9 20 0 11 2 20 4 20 2 0 6 -9 9 -20z m294 -12 c-3 -7 -5 -2 -5
12 0 14 2 19 5 13 2 -7 2 -19 0 -25z m153 17 c0 -20 -22 -65 -32 -65 -11 0
-10 25 4 55 12 27 28 33 28 10z m-421 -97 c5 -13 11 -34 15 -48 l7 -25 -20 24
c-12 13 -21 34 -21 47 0 30 8 31 19 2z m253 0 c-6 -27 -33 -70 -39 -65 -6 7
28 87 37 87 5 0 6 -10 2 -22z m-346 -54 c-5 -13 -10 -14 -18 -6 -6 6 -8 18 -4
28 5 13 10 14 18 6 6 -6 8 -18 4 -28z m444 16 c0 -13 -7 -20 -20 -20 -18 0
-19 3 -10 20 6 11 15 20 20 20 6 0 10 -9 10 -20z m75 -109 c-5 -34 -9 -41 -16
-29 -7 13 -2 68 12 127 6 24 9 -62 4 -98z m-141 32 c-39 -28 -47 -3 -11 35
l22 24 3 -23 c2 -14 -3 -28 -14 -36z m-455 -20 c1 -18 -3 -33 -9 -33 -5 0 -10
24 -9 53 0 38 3 47 9 32 5 -11 9 -35 9 -52z m137 42 c23 -35 13 -54 -14 -27
-23 23 -30 52 -12 52 5 0 17 -11 26 -25z m94 -36 c0 -11 -4 -17 -10 -14 -5 3
-10 15 -10 26 0 11 5 17 10 14 6 -3 10 -15 10 -26z m121 -6 c-10 -17 -10 -16
-11 3 0 23 13 41 18 25 2 -6 -1 -18 -7 -28z m-226 -87 c-5 -22 -1 -44 10 -65
24 -47 41 -34 37 28 -2 29 1 51 6 51 6 0 17 3 26 6 9 3 16 1 16 -5 0 -6 -6
-11 -14 -11 -15 0 -29 -38 -20 -52 3 -5 17 -13 30 -18 14 -6 24 -18 24 -29 0
-23 -16 -36 -25 -21 -5 8 -14 7 -28 -3 -20 -12 -25 -11 -46 9 -19 18 -26 36
-29 84 -3 41 -1 60 7 60 8 0 10 -11 6 -34z m330 -72 c-3 -20 -13 -35 -25 -39
-11 -4 -20 -11 -20 -17 0 -7 -5 -6 -14 2 -8 6 -25 10 -38 8 -19 -2 -23 2 -23
21 0 33 51 50 60 20 4 -10 10 -19 15 -19 18 0 42 49 40 82 -3 49 3 59 7 13 3
-21 2 -54 -2 -71z m-371 1 l6 -40 -14 35 c-7 20 -16 51 -20 70 l-6 35 14 -30
c8 -17 17 -48 20 -70z m307 85 c5 0 8 -15 8 -32 -1 -26 -3 -28 -6 -9 -3 13
-13 26 -24 28 -10 3 -19 10 -19 15 0 6 7 7 16 4 9 -3 20 -6 25 -6z m-431 -48
c0 -10 5 -23 11 -29 6 -6 8 -17 4 -23 -11 -18 -44 28 -38 51 7 24 23 25 23 1z
m540 -32 c-6 -23 -14 -40 -16 -37 -3 3 0 24 7 46 16 54 24 46 9 -9z m110 -10
c0 -5 -4 -10 -10 -10 -5 0 -10 5 -10 10 0 6 5 10 10 10 6 0 10 -4 10 -10z
m-690 -66 c0 -8 -4 -14 -9 -14 -11 0 -22 26 -14 34 9 9 23 -3 23 -20z m736
-20 c-3 -9 -6 -20 -6 -25 0 -5 -4 -9 -10 -9 -11 0 -14 33 -3 43 12 13 25 7 19
-9z m-744 -211 c-129 -259 -204 -403 -212 -408 -5 -3 -8 0 -5 7 2 7 27 95 55
195 65 235 61 226 106 242 44 16 54 26 54 60 0 14 8 33 18 44 17 19 17 18 20
-22 2 -31 -6 -58 -36 -118z m729 96 c7 -66 5 -61 124 -299 53 -106 95 -196 93
-201 -6 -15 -263 340 -260 358 2 10 5 47 6 83 5 120 6 122 19 118 6 -3 15 -29
18 -59z m-806 13 c-15 -16 -16 -15 -4 12 7 15 15 23 17 16 3 -7 -3 -19 -13
-28z m927 -27 c11 -19 10 -19 -8 -5 -34 27 -54 52 -47 63 6 10 32 -18 55 -58z
m-902 0 c0 -8 -7 -15 -16 -15 -14 0 -14 3 -4 15 7 8 14 15 16 15 2 0 4 -7 4
-15z m430 -50 c12 8 13 -5 0 -25 -7 -11 -11 -9 -19 13 -13 35 -13 61 0 29 5
-13 13 -20 19 -17z m188 -31 c2 -10 26 -109 53 -218 27 -110 47 -201 46 -203
-2 -1 -33 78 -70 177 -58 157 -66 186 -60 225 6 46 25 57 31 19z m-200 -426
l-3 -133 -19 217 c-19 214 -19 219 0 265 l19 48 3 -132 c1 -73 1 -193 0 -265z
m-37 344 c-15 -27 -14 -98 4 -267 7 -77 12 -141 11 -142 -3 -3 -37 171 -57
293 -11 71 -11 72 16 108 29 38 45 42 26 8z"/>
<path d="M1372 2810 c0 -19 2 -27 5 -17 2 9 2 25 0 35 -3 9 -5 1 -5 -18z"/>
<path d="M1072 2785 c0 -16 2 -22 5 -12 2 9 2 23 0 30 -3 6 -5 -1 -5 -18z"/>
<path d="M1502 2780 c0 -19 2 -27 5 -17 2 9 2 25 0 35 -3 9 -5 1 -5 -18z"/>
<path d="M1363 2700 c0 -25 2 -35 4 -22 2 12 2 32 0 45 -2 12 -4 2 -4 -23z"/>
<path d="M1063 2650 c0 -30 2 -43 4 -27 2 15 2 39 0 55 -2 15 -4 2 -4 -28z"/>
<path d="M1353 2565 c0 -33 2 -45 4 -27 2 18 2 45 0 60 -2 15 -4 0 -4 -33z"/>
<path d="M1053 2480 c0 -36 2 -50 4 -32 2 17 2 47 0 65 -2 17 -4 3 -4 -33z"/>
<path d="M1344 2265 c0 -71 1 -99 3 -62 2 37 2 96 0 130 -2 34 -3 4 -3 -68z"/>
</g>
</svg>
