<?xml version="1.0" standalone="no"?>
<!DOCTYPE svg PUBLIC "-//W3C//DTD SVG 20010904//EN"
 "http://www.w3.org/TR/2001/REC-SVG-20010904/DTD/svg10.dtd">
<svg version="1.0" xmlns="http://www.w3.org/2000/svg"
 width="244.000000pt" height="305.000000pt" viewBox="0 0 244.000000 305.000000"
 preserveAspectRatio="xMidYMid meet">
<metadata>
Created by potrace 1.16, written by Peter Selinger 2001-2019
</metadata>
<g transform="translate(0.000000,305.000000) scale(0.100000,-0.100000)"
fill="#000000" stroke="none">
<path d="M897 2903 c-2 -4 -7 -24 -11 -43 -4 -26 -3 -30 3 -15 7 14 10 -19 12
-105 3 -191 -2 -834 -7 -839 -2 -3 -14 5 -27 17 -13 12 -28 22 -34 22 -21 0
-25 40 -18 198 8 210 21 359 46 525 21 145 21 201 0 75 -42 -245 -61 -473 -60
-698 l0 -115 52 -33 c31 -21 56 -30 63 -25 6 4 29 20 52 35 l40 27 -4 188 c-6
289 -33 532 -80 723 -18 71 -20 75 -27 63z"/>
<path d="M1556 2881 c-5 -14 -4 -27 3 -34 14 -14 16 -947 2 -947 -5 0 -26 10
-46 23 l-36 22 5 240 c3 158 12 288 25 380 11 77 22 160 25 185 13 99 -14 -18
-34 -151 -26 -171 -49 -671 -31 -677 7 -2 32 -19 56 -37 l43 -33 22 23 c12 13
35 29 51 35 34 15 34 11 19 305 -14 272 -46 521 -83 645 -12 41 -14 43 -21 21z"/>
<path d="M1171 2550 c-2 -173 -7 -301 -11 -285 -4 17 -8 -65 -9 -187 -1 -207
-11 -275 -25 -170 -12 82 -39 202 -46 202 -11 0 -30 -107 -30 -171 0 -54 2
-60 29 -73 16 -9 31 -23 35 -31 11 -28 7 -80 -8 -100 -12 -17 -17 -18 -40 -7
-35 16 -36 16 -36 -11 0 -28 26 -67 46 -67 8 0 26 12 41 26 14 14 26 24 28 22
1 -2 5 -29 9 -60 l6 -58 -38 0 c-26 0 -45 -7 -56 -19 -17 -18 -16 -19 13 -26
27 -6 31 -11 31 -41 0 -19 -4 -34 -8 -34 -11 0 -98 91 -111 117 -6 12 -11 33
-11 47 0 15 -9 34 -20 43 -26 23 -25 35 6 72 22 27 32 31 76 31 50 0 50 0 43
28 -10 41 -40 66 -79 66 -41 0 -64 -17 -84 -64 -13 -32 -15 -33 -26 -16 -6 11
-23 33 -37 50 -51 58 -149 32 -149 -40 0 -21 4 -24 41 -24 52 0 72 -11 99 -56
l22 -35 -21 -20 c-37 -35 -20 -110 49 -207 22 -32 40 -63 40 -69 0 -6 -16 -30
-35 -53 -43 -52 -44 -80 -4 -114 49 -41 108 -29 88 19 -10 26 -11 93 -1 98 4
3 29 -2 56 -10 48 -14 48 -14 42 -51 -4 -26 -3 -31 3 -17 8 19 9 19 16 2 4
-10 3 -32 -2 -50 -8 -27 -13 -32 -36 -29 -15 1 -45 -6 -69 -18 -23 -11 -48
-20 -57 -20 -8 0 -34 21 -59 46 -41 43 -44 50 -39 87 6 44 -10 144 -26 165
-15 19 -62 14 -82 -8 -30 -33 -16 -105 37 -192 123 -198 123 -197 31 -358 -11
-19 -60 -105 -108 -190 -139 -245 -143 -249 -91 -89 19 57 49 151 67 209 18
58 36 110 40 116 5 6 27 16 49 23 51 15 63 43 58 127 -3 51 -9 68 -41 110 -83
110 -90 124 -95 178 -4 45 0 60 21 91 26 38 25 63 -4 81 -21 13 -91 5 -110
-12 -24 -22 -24 -56 2 -139 34 -112 8 -155 -151 -243 -19 -11 -82 -47 -140
-81 -58 -33 -109 -61 -114 -61 -5 0 28 35 75 78 46 42 110 103 144 135 59 57
61 58 108 52 l47 -6 -6 98 c-9 129 -27 150 -22 26 l3 -92 -35 5 c-33 4 -41 -1
-155 -107 -192 -180 -256 -241 -252 -245 1 -2 112 33 245 78 223 74 242 82
242 104 0 32 12 36 59 20 58 -21 96 -53 116 -96 22 -48 18 -60 -25 -74 -32
-10 -36 -17 -63 -101 -60 -189 -146 -479 -143 -482 2 -2 63 65 137 149 74 83
162 183 197 222 58 66 62 74 56 106 -13 68 -16 65 76 68 76 2 90 0 120 -20 35
-24 47 -54 35 -86 -5 -14 -7 -14 -15 -2 -8 12 -10 11 -10 -7 0 -12 -4 -24 -9
-27 -10 -7 -2 -97 10 -110 5 -6 8 -21 8 -35 -1 -25 -2 -25 -9 4 -6 22 -8 9 -7
-45 1 -41 -2 -100 -6 -130 -4 -37 -1 -26 12 30 10 47 20 78 23 70 3 -8 20 -87
37 -175 17 -88 37 -185 44 -215 l13 -55 44 225 c24 124 47 227 51 230 4 3 9
16 12 30 3 14 4 1 2 -27 -2 -32 0 -53 6 -53 11 0 5 277 -7 337 -5 28 -3 33 24
47 21 11 58 16 112 16 87 0 93 -5 71 -63 -8 -20 -5 -31 12 -54 36 -49 370
-423 374 -419 3 3 -52 189 -139 468 -29 92 -32 98 -64 108 -28 10 -34 16 -34
40 0 52 71 115 152 135 24 6 27 4 30 -21 3 -27 10 -31 233 -106 127 -43 234
-77 238 -75 4 1 -52 58 -125 127 -254 238 -233 222 -269 218 l-33 -3 1 90 c1
89 1 89 -9 35 -5 -30 -16 -77 -23 -104 -7 -26 -11 -54 -9 -61 3 -7 90 -66 194
-131 104 -66 185 -120 180 -122 -4 -2 -75 21 -156 51 -225 83 -204 71 -192
104 10 26 7 32 -21 60 -26 27 -31 39 -31 81 0 27 7 71 15 98 29 97 12 144 -53
144 -40 0 -82 -19 -82 -37 0 -8 11 -31 25 -51 45 -66 31 -127 -55 -236 -56
-71 -80 -133 -80 -204 0 -37 15 -72 87 -206 47 -88 104 -192 125 -229 22 -38
38 -71 35 -73 -2 -2 -70 73 -151 168 -142 167 -147 174 -140 208 4 19 6 56 5
82 -3 78 16 133 85 250 77 128 89 179 54 216 -12 13 -33 22 -50 22 -24 0 -31
-5 -35 -27 -4 -16 -11 -47 -16 -71 -5 -24 -7 -58 -4 -75 5 -27 0 -41 -30 -80
-41 -54 -74 -67 -110 -43 -13 9 -36 16 -49 16 -18 0 -27 6 -31 23 -14 62 -24
112 -22 112 1 1 22 9 46 18 56 21 64 12 55 -65 -5 -51 -4 -57 15 -63 38 -12
101 36 95 73 -1 6 -2 16 -3 21 0 5 -17 28 -36 51 -37 44 -37 45 7 101 61 80
88 190 53 219 -23 19 -18 39 20 77 32 32 40 35 75 30 40 -5 40 -5 40 27 0 43
-26 66 -77 66 -43 0 -67 -19 -96 -75 -14 -27 -16 -28 -22 -10 -17 52 -26 65
-54 80 -19 9 -41 13 -56 9 -32 -8 -65 -49 -65 -80 0 -22 3 -23 45 -17 39 5 49
2 69 -16 33 -31 39 -59 15 -79 -10 -9 -19 -27 -19 -40 0 -39 -27 -85 -80 -137
l-50 -49 0 42 c0 39 2 43 30 49 30 5 30 6 13 25 -13 15 -27 19 -56 16 l-37 -4
6 61 c4 33 8 61 9 63 2 2 14 -8 28 -22 15 -14 31 -26 37 -26 19 0 50 40 50 65
0 29 0 29 -36 13 -23 -11 -28 -10 -40 7 -8 10 -14 38 -14 62 0 38 4 45 35 65
30 20 35 28 35 63 0 53 -19 168 -29 178 -9 9 -23 -42 -42 -153 -22 -131 -28
-95 -30 175 -1 149 -5 360 -9 470 l-6 200 -4 -240 c-4 -225 -4 -232 -10 -105
-4 91 -7 114 -9 70 -3 -62 -3 -64 -13 -30 -6 19 -16 53 -23 75 l-13 40 -12
-44 c-6 -24 -15 -62 -20 -85 -7 -37 -8 -38 -10 -11 -1 17 -6 113 -9 215 -7
184 -7 182 -10 -130z m57 -467 c1 -247 -2 -454 -6 -461 -22 -33 -52 66 -38
123 11 44 27 17 21 -38 -4 -46 -3 -49 6 -21 8 21 8 88 1 225 -10 193 -10 193
-9 49 1 -80 1 -135 -1 -122 -5 32 -22 17 -23 -21 l-2 -32 -6 35 c-4 21 -1 45
6 60 9 18 13 86 13 234 0 147 5 239 17 312 9 57 17 104 18 104 0 0 2 -201 3
-447z m-275 -543 c18 -30 57 -74 87 -99 56 -45 73 -71 47 -71 -20 0 -87 50
-120 90 -39 46 -67 104 -66 137 0 31 -1 33 52 -57z m617 57 c0 -66 -109 -201
-182 -226 -24 -9 -28 -7 -28 9 0 10 9 21 19 25 33 10 129 114 153 165 25 54
38 63 38 27z m-393 -19 c-3 -8 -6 -5 -6 6 -1 11 2 17 5 13 3 -3 4 -12 1 -19z
m100 -25 c-3 -10 -5 -2 -5 17 0 19 2 27 5 18 2 -10 2 -26 0 -35z m20 25 c-3
-8 -6 -5 -6 6 -1 11 2 17 5 13 3 -3 4 -12 1 -19z m-100 -25 c-3 -10 -5 -4 -5
12 0 17 2 24 5 18 2 -7 2 -21 0 -30z m40 -80 c-3 -10 -5 -2 -5 17 0 19 2 27 5
18 2 -10 2 -26 0 -35z m-67 -42 c8 -46 8 -79 2 -102 -9 -30 -10 -24 -11 45 -1
72 -2 77 -18 65 -15 -13 -16 -11 -10 11 4 14 7 31 7 38 0 6 4 12 9 12 5 0 14
-31 21 -69z m169 17 c1 -11 -4 -15 -14 -12 -12 5 -15 -6 -16 -67 -1 -59 -3
-67 -9 -41 -9 39 -3 113 12 151 10 25 11 25 18 6 5 -11 9 -28 9 -37z m-202
-90 c-3 -8 -6 -5 -6 6 -1 11 2 17 5 13 3 -3 4 -12 1 -19z m241 -183 c0 -16 -2
-15 -8 5 -11 34 -11 60 0 35 5 -11 8 -29 8 -40z m-75 12 c-4 -19 -8 -25 -13
-16 -5 7 -3 20 3 30 15 23 16 20 10 -14z m-118 4 c3 -5 1 -12 -5 -16 -5 -3
-10 1 -10 9 0 18 6 21 15 7z m192 -63 c-3 -8 -6 -5 -6 6 -1 11 2 17 5 13 3 -3
4 -12 1 -19z m-242 -48 c3 -5 -3 -10 -14 -10 -12 0 -21 5 -21 10 0 6 6 10 14
10 8 0 18 -4 21 -10z m225 0 c0 -5 -7 -10 -16 -10 -8 0 -12 5 -9 10 3 6 10 10
16 10 5 0 9 -4 9 -10z m-123 -162 c-3 -8 -6 -5 -6 6 -1 11 2 17 5 13 3 -3 4
-12 1 -19z m-9 -353 c-1 -149 -6 -254 -10 -235 -73 340 -71 330 -59 415 7 45
22 95 34 114 l21 35 8 -30 c4 -16 7 -150 6 -299z m89 293 c-3 -8 -6 -5 -6 6
-1 11 2 17 5 13 3 -3 4 -12 1 -19z m-180 -105 c-3 -10 -5 -4 -5 12 0 17 2 24
5 18 2 -7 2 -21 0 -30z"/>
<path d="M1213 740 c0 -47 2 -66 4 -42 2 23 2 61 0 85 -2 23 -4 4 -4 -43z"/>
<path d="M1292 2830 c0 -19 2 -27 5 -17 2 9 2 25 0 35 -3 9 -5 1 -5 -18z"/>
<path d="M1542 2820 c0 -14 2 -19 5 -12 2 6 2 18 0 25 -3 6 -5 1 -5 -13z"/>
<path d="M1152 2325 c0 -16 2 -22 5 -12 2 9 2 23 0 30 -3 6 -5 -1 -5 -18z"/>
<path d="M1071 1204 c0 -11 3 -14 6 -6 3 7 2 16 -1 19 -3 4 -6 -2 -5 -13z"/>
<path d="M1356 513 c-2 -10 -1 -36 4 -58 8 -39 8 -39 9 18 1 57 -3 72 -13 40z"/>
</g>
</svg>
