<?xml version="1.0" standalone="no"?>
<!DOCTYPE svg PUBLIC "-//W3C//DTD SVG 20010904//EN"
 "http://www.w3.org/TR/2001/REC-SVG-20010904/DTD/svg10.dtd">
<svg version="1.0" xmlns="http://www.w3.org/2000/svg"
 width="244.000000pt" height="305.000000pt" viewBox="0 0 244.000000 305.000000"
 preserveAspectRatio="xMidYMid meet">
<metadata>
Created by potrace 1.16, written by Peter Selinger 2001-2019
</metadata>
<g transform="translate(0.000000,305.000000) scale(0.100000,-0.100000)"
fill="#000000" stroke="none">
<path d="M1540 2898 c0 -7 -3 -24 -6 -38 -4 -20 -3 -22 5 -10 8 11 11 -122 11
-467 0 -266 -3 -483 -7 -483 -5 0 -25 16 -46 35 l-39 36 7 177 c7 189 29 446
45 532 12 63 12 100 -1 50 -41 -171 -80 -810 -49 -810 5 0 26 -14 46 -32 25
-22 40 -29 48 -22 7 5 32 21 55 37 37 25 41 31 41 69 0 115 -22 487 -36 588
-20 158 -54 339 -65 346 -5 3 -9 -1 -9 -8z"/>
<path d="M920 2895 c0 -5 0 -232 0 -502 0 -271 -2 -493 -5 -493 -4 0 -22 12
-41 26 l-34 26 0 137 c0 121 16 360 36 526 4 33 4 57 0 54 -25 -23 -69 -740
-46 -747 6 -2 31 -19 55 -37 43 -33 43 -34 62 -13 10 11 30 26 45 34 27 14 28
16 28 107 0 186 -21 476 -45 632 -23 145 -51 275 -55 250z"/>
<path d="M1076 2866 c-19 -76 -46 -543 -46 -798 0 -121 2 -141 21 -172 12 -20
27 -36 35 -36 8 0 14 -7 14 -15 0 -21 -13 -19 -35 5 -37 41 -101 16 -129 -50
l-14 -35 -10 25 c-30 75 -103 96 -150 43 -13 -14 -22 -35 -20 -47 3 -18 9 -21
38 -18 65 6 130 -70 94 -109 -21 -23 -14 -117 10 -154 22 -33 23 -205 2 -205
-10 0 -17 16 -21 48 -11 78 -24 102 -55 102 -69 0 -80 -96 -21 -191 37 -60 43
-93 11 -64 -40 36 -81 113 -87 162 -4 41 -1 58 21 99 l26 49 -21 18 c-12 9
-38 17 -59 17 -68 0 -86 -49 -54 -144 19 -54 15 -123 -9 -159 -14 -22 -337
-227 -358 -227 -6 0 49 59 123 130 l133 130 43 -6 43 -5 -7 98 c-9 129 -28
151 -22 26 l4 -91 -30 4 c-28 4 -46 -10 -206 -165 -96 -93 -172 -172 -169
-175 3 -3 82 21 175 53 266 93 267 93 274 121 5 18 12 24 27 23 30 -3 113 -55
113 -71 0 -7 -15 -40 -32 -73 -23 -41 -29 -62 -22 -67 8 -5 4 -30 -13 -87 -13
-44 -39 -134 -58 -200 -18 -66 -42 -150 -53 -187 -11 -38 -18 -68 -17 -68 4 0
153 173 270 313 l106 128 -11 37 c-15 56 -13 62 21 62 28 0 30 -2 25 -28 -11
-53 -76 -515 -73 -518 1 -2 43 92 92 209 79 189 89 218 88 270 -1 31 0 57 2
57 17 0 58 -28 71 -48 15 -23 15 -25 -17 -58 l-32 -33 16 -83 c110 -566 111
-573 119 -538 4 19 24 121 43 225 20 105 45 237 56 294 l21 103 -31 32 c-17
18 -31 37 -31 42 0 17 55 64 74 64 15 0 17 -6 11 -40 -8 -44 -2 -62 94 -290
82 -192 83 -194 76 -145 -2 22 -5 49 -5 60 0 17 -2 17 -10 5 -7 -10 -8 0 -5
35 3 39 2 43 -4 20 -5 -16 -9 -27 -10 -23 -3 17 -93 362 -98 374 -6 16 42 20
51 5 3 -5 16 -80 28 -167 12 -87 23 -153 25 -147 3 7 -5 79 -16 160 -12 82
-21 152 -21 156 0 11 48 8 55 -3 3 -5 1 -28 -5 -50 l-11 -40 68 -82 c61 -76
163 -197 188 -224 6 -6 35 -40 65 -77 30 -36 56 -64 58 -62 5 4 -23 103 -102
365 -19 63 -40 138 -47 165 -7 28 -23 72 -36 99 l-25 48 28 29 c27 28 109 63
125 53 5 -3 9 -15 9 -28 0 -21 21 -30 218 -101 119 -43 224 -80 232 -83 8 -3
-66 77 -165 177 -173 175 -181 182 -212 176 l-33 -6 -1 93 c-1 100 -2 97 -30
-60 -7 -44 -9 -76 -3 -81 5 -4 89 -61 187 -125 97 -65 177 -120 177 -123 0 -7
-30 4 -198 69 l-153 60 6 38 c5 32 3 39 -13 44 -45 15 -52 81 -21 196 19 68
20 81 8 106 -12 24 -21 30 -56 32 -78 6 -101 -25 -63 -83 23 -35 27 -108 8
-151 -19 -43 -90 -134 -100 -128 -5 3 8 35 28 71 46 83 55 114 43 158 -7 25
-17 37 -36 41 -31 8 -57 -6 -61 -32 -1 -10 -7 -42 -14 -71 -10 -46 -13 -51
-29 -42 -29 15 -27 143 3 200 29 56 37 148 14 161 -24 13 -20 33 15 73 27 30
37 35 75 35 39 0 44 3 44 23 0 60 -75 96 -124 60 -14 -10 -31 -33 -38 -50 -7
-18 -15 -33 -18 -33 -3 0 -14 17 -23 39 -11 24 -28 43 -46 50 -32 14 -77 6
-85 -15 -7 -19 -26 -18 -26 1 0 8 6 15 14 15 8 0 24 15 35 34 17 27 21 48 19
107 l-2 74 -3 -67 c-2 -38 -8 -68 -12 -68 -18 0 -23 106 -26 518 -2 233 -6
427 -9 430 -3 3 -6 -8 -6 -24 0 -16 -7 -105 -15 -199 -8 -93 -17 -305 -21
-470 -4 -165 -10 -309 -14 -319 -4 -11 -10 52 -13 140 -4 87 -13 211 -21 274
-14 113 -51 298 -61 308 -3 3 -5 3 -5 1 0 -2 -11 -54 -25 -114 -26 -113 -55
-403 -55 -550 0 -55 -3 -75 -10 -65 -5 8 -11 112 -12 230 l-2 215 -6 -150 c-4
-118 -7 -141 -13 -107 -5 23 -13 42 -18 42 -7 0 -9 146 -7 395 2 217 2 395 2
395 -1 0 -5 -11 -8 -24z m126 -734 c-3 -173 -8 -250 -14 -244 -7 7 -9 82 -4
219 5 180 13 292 20 281 1 -2 0 -117 -2 -256z m-25 -364 c-2 -18 -4 -6 -4 27
0 33 2 48 4 33 2 -15 2 -42 0 -60z m-137 -25 c1 -20 8 -111 15 -186 4 -43 2
-47 -11 -36 -22 18 -54 84 -54 112 0 14 -7 30 -15 37 -19 16 -19 40 1 68 19
27 64 30 64 5z m450 -3 c24 -24 26 -53 5 -70 -8 -7 -15 -24 -15 -39 0 -15 -16
-51 -35 -81 l-34 -55 5 70 c13 189 14 195 35 195 10 0 28 -9 39 -20z m-340
-98 c0 -14 8 -26 23 -31 13 -5 32 -25 41 -45 9 -20 19 -36 21 -36 3 0 11 16
19 35 9 20 26 39 41 45 19 7 25 17 25 39 0 43 17 47 30 7 16 -49 1 -74 -47
-78 -36 -3 -38 -5 -53 -56 l-16 -53 -15 47 c-14 49 -25 59 -70 68 -32 7 -44
42 -28 82 8 23 12 25 19 14 6 -8 10 -25 10 -38z m40 16 c0 -21 -3 -29 -10 -22
-5 5 -7 19 -4 32 9 31 14 27 14 -10z m-242 -86 c10 -30 9 -33 -6 -30 -12 2
-18 15 -20 43 -4 45 9 39 26 -13z m139 16 c-3 -7 -5 -2 -5 12 0 14 2 19 5 13
2 -7 2 -19 0 -25z m300 0 c-3 -7 -5 -2 -5 12 0 14 2 19 5 13 2 -7 2 -19 0 -25z
m165 -3 c-4 -36 -26 -63 -36 -47 -7 12 21 82 32 82 4 0 6 -16 4 -35z m-427
-102 c9 -20 13 -38 11 -41 -7 -6 -46 60 -46 76 0 22 19 3 35 -35z m250 14 c-6
-23 -45 -69 -45 -53 0 13 41 88 46 83 3 -2 2 -16 -1 -30z m-351 -32 c6 -17 -9
-29 -24 -20 -5 3 -10 15 -10 25 0 22 25 18 34 -5z m455 -17 c1 -5 -6 -8 -14
-8 -15 0 -21 31 -8 44 7 6 20 -17 22 -36z m-550 -68 c1 -33 -2 -41 -9 -30 -5
8 -9 38 -9 65 1 64 17 32 18 -35z m151 35 c17 -18 21 -28 13 -36 -12 -12 -53
25 -53 48 0 20 14 16 40 -12z m461 -68 c-13 -13 -15 34 -3 73 6 21 7 18 10
-19 2 -24 -2 -49 -7 -54z m-121 69 c0 -16 -26 -46 -41 -46 -14 0 -11 22 8 42
19 22 33 23 33 4z m-240 -42 c0 -8 -4 -12 -10 -9 -5 3 -10 13 -10 21 0 8 5 12
10 9 6 -3 10 -13 10 -21z m121 -7 c-8 -8 -11 -7 -11 4 0 9 3 19 7 23 4 4 9 2
11 -4 3 -7 -1 -17 -7 -23z m-211 -167 c28 -18 32 -10 28 45 -3 40 -1 55 8 55
7 0 19 3 28 6 9 3 16 1 16 -4 0 -6 -9 -14 -21 -17 -30 -10 -22 -57 11 -65 18
-4 25 -12 25 -30 0 -20 -4 -24 -23 -22 -13 2 -29 -1 -36 -7 -8 -7 -20 -4 -40
12 -21 17 -29 34 -33 69 -3 26 -2 55 3 65 5 13 9 1 14 -40 3 -35 11 -62 20
-67z m325 37 c-4 -22 -18 -48 -33 -62 -23 -21 -28 -22 -46 -10 -14 11 -23 11
-33 4 -15 -13 -29 12 -19 36 7 20 56 19 71 -1 20 -29 45 8 46 69 0 45 2 48 10
27 6 -13 7 -42 4 -63z m50 8 c-10 -36 -21 -65 -25 -65 -8 0 -2 30 20 103 19
65 24 32 5 -38z m-441 -35 c5 -28 2 -25 -13 15 -11 28 -19 59 -20 70 0 25 24
-38 33 -85z m317 90 c5 0 9 -10 9 -22 -1 -21 -2 -21 -11 -5 -5 9 -17 17 -24
17 -8 0 -15 5 -15 11 0 6 7 8 16 5 9 -3 20 -6 25 -6z m250 -86 c-11 -26 -31
-33 -31 -11 0 7 6 25 12 39 11 22 14 24 22 11 5 -9 4 -25 -3 -39z m-671 -14
c0 -5 -4 -10 -10 -10 -5 0 -10 5 -10 10 0 6 5 10 10 10 6 0 10 -4 10 -10z
m720 -54 c0 -8 -4 -18 -10 -21 -5 -3 -10 3 -10 14 0 12 5 21 10 21 6 0 10 -6
10 -14z m-770 -48 c0 -10 -5 -18 -10 -18 -15 0 -23 27 -16 47 6 15 8 15 16 3
6 -8 10 -23 10 -32z m17 -74 c-6 -35 -17 -59 -111 -234 -25 -47 -71 -133 -103
-193 -31 -59 -58 -105 -60 -103 -3 3 13 60 103 364 18 61 29 82 42 82 30 0 82
38 82 61 0 30 18 59 37 59 12 0 14 -7 10 -36z m723 -10 c0 -47 31 -112 213
-454 l39 -75 -34 35 c-19 19 -86 101 -151 182 -113 142 -116 147 -107 179 6
19 10 67 10 106 0 58 3 73 15 73 11 0 15 -12 15 -46z m94 20 c3 -8 2 -12 -4
-9 -6 3 -10 10 -10 16 0 14 7 11 14 -7z m-914 -2 c0 -4 -9 -15 -20 -25 -22
-19 -25 -15 -10 14 11 19 30 26 30 11z m456 -77 c17 23 18 16 3 -22 -10 -27
-11 -27 -25 -9 -8 11 -14 27 -14 35 1 13 3 12 12 -3 11 -19 11 -19 24 -1z
m-182 -37 c3 -13 6 -36 6 -53 0 -30 -122 -353 -128 -336 -2 5 15 76 36 157 22
82 45 173 53 202 14 56 23 65 33 30z m122 -95 c-13 -26 -13 -46 0 -178 20
-203 14 -217 -20 -45 -16 80 -30 154 -33 165 -2 12 8 35 28 58 36 43 48 43 25
0z"/>
<path d="M1522 2800 c0 -14 2 -19 5 -12 2 6 2 18 0 25 -3 6 -5 1 -5 -13z"/>
<path d="M891 2774 c0 -11 3 -14 6 -6 3 7 2 16 -1 19 -3 4 -6 -2 -5 -13z"/>
<path d="M1092 2760 c0 -19 2 -27 5 -17 2 9 2 25 0 35 -3 9 -5 1 -5 -18z"/>
<path d="M882 2720 c0 -14 2 -19 5 -12 2 6 2 18 0 25 -3 6 -5 1 -5 -13z"/>
<path d="M1103 2655 c0 -27 2 -38 4 -22 2 15 2 37 0 50 -2 12 -4 0 -4 -28z"/>
<path d="M1413 2575 c0 -27 2 -38 4 -22 2 15 2 37 0 50 -2 12 -4 0 -4 -28z"/>
<path d="M1114 2475 c0 -49 1 -71 3 -48 2 23 2 64 0 90 -2 26 -3 8 -3 -42z"/>
<path d="M1423 2400 c0 -36 2 -50 4 -32 2 17 2 47 0 65 -2 17 -4 3 -4 -33z"/>
</g>
</svg>
