<?xml version="1.0" standalone="no"?>
<!DOCTYPE svg PUBLIC "-//W3C//DTD SVG 20010904//EN"
 "http://www.w3.org/TR/2001/REC-SVG-20010904/DTD/svg10.dtd">
<svg version="1.0" xmlns="http://www.w3.org/2000/svg"
 width="244.000000pt" height="305.000000pt" viewBox="0 0 244.000000 305.000000"
 preserveAspectRatio="xMidYMid meet">
<metadata>
Created by potrace 1.16, written by Peter Selinger 2001-2019
</metadata>
<g transform="translate(0.000000,305.000000) scale(0.100000,-0.100000)"
fill="#000000" stroke="none">
<path d="M1162 2885 c0 -16 2 -22 5 -12 2 9 2 23 0 30 -3 6 -5 -1 -5 -18z"/>
<path d="M876 2833 c-48 -215 -69 -402 -82 -734 -7 -176 -6 -177 15 -184 12
-4 38 -20 57 -37 l34 -30 33 28 c19 16 41 34 51 39 39 24 15 508 -41 808 -14
76 -27 136 -30 134 -2 -3 5 -58 17 -123 32 -192 48 -356 56 -575 l7 -205 -39
-24 c-21 -14 -43 -26 -47 -28 -4 -2 -6 222 -5 497 2 276 0 501 -4 501 -3 0
-13 -30 -22 -67z"/>
<path d="M1548 2823 c-52 -231 -74 -440 -77 -733 l-1 -165 37 -23 c21 -12 45
-27 54 -34 14 -9 23 -7 48 15 17 14 40 28 51 32 18 6 20 15 20 98 -1 253 -29
549 -70 735 -22 97 -19 67 10 -118 26 -168 40 -352 40 -530 l0 -147 -38 -27
c-21 -14 -41 -26 -45 -26 -4 0 -7 214 -7 476 0 360 3 473 12 468 8 -5 9 -2 5
10 -4 10 -7 24 -7 32 0 8 -3 14 -8 14 -4 0 -15 -35 -24 -77z"/>
<path d="M1300 2810 c-1 -41 -2 -163 -2 -270 0 -107 -2 -175 -5 -150 -2 24 -8
47 -12 50 -3 3 -13 34 -20 70 -18 93 -27 103 -41 50 -38 -148 -38 -148 -41 20
-3 151 -3 148 -10 -85 -3 -132 -8 -278 -10 -325 l-3 -85 -6 90 c-5 65 -7 37
-6 -103 1 -105 -2 -192 -5 -192 -10 0 -19 28 -19 56 0 39 -31 164 -40 164 -9
0 -25 -67 -35 -151 -7 -55 -7 -55 29 -80 41 -27 51 -53 42 -105 -8 -39 -29
-53 -57 -36 -27 17 -29 15 -29 -16 0 -28 26 -62 48 -62 6 0 24 11 40 25 l29
25 2 -60 1 -60 -31 0 c-34 0 -69 -15 -69 -30 0 -6 9 -10 19 -10 25 0 29 -8 22
-44 l-6 -29 -45 47 c-47 49 -69 87 -70 122 0 12 -7 27 -15 34 -20 17 -18 40 6
70 18 21 30 25 73 25 51 0 51 1 48 30 -5 39 -17 53 -59 64 -47 13 -78 -3 -100
-50 -10 -21 -20 -39 -23 -39 -3 0 -14 16 -25 37 -35 64 -115 77 -156 25 -11
-14 -19 -35 -17 -46 3 -18 9 -21 46 -18 37 3 46 0 77 -31 38 -38 43 -58 20
-77 -40 -33 -6 -137 89 -265 6 -9 -2 -27 -27 -57 -61 -74 -42 -139 40 -142 42
-1 39 -8 32 92 -3 47 9 53 66 34 l50 -17 0 -53 c-1 -35 -6 -58 -18 -69 -16
-16 -17 -16 -18 12 -1 24 -3 25 -6 7 -2 -12 -9 -22 -15 -22 -6 0 -30 -10 -54
-22 l-43 -21 -35 24 c-46 31 -78 88 -71 125 3 16 -1 58 -8 94 -12 59 -16 65
-41 68 -15 2 -38 -4 -52 -13 -45 -29 -30 -108 42 -212 62 -91 88 -155 90 -228
2 -39 6 -89 9 -110 6 -40 5 -41 -135 -205 -78 -91 -146 -167 -152 -169 -12 -4
1 21 113 221 49 86 100 180 114 209 l26 51 -16 74 c-14 64 -25 85 -74 147 -91
115 -101 160 -53 247 26 50 27 51 8 65 -26 20 -96 19 -125 -1 -19 -14 -22 -23
-18 -58 2 -22 12 -67 22 -98 22 -73 14 -121 -27 -158 -25 -23 -28 -31 -19 -48
16 -30 15 -31 -26 -49 -76 -31 -317 -113 -326 -110 -7 2 157 107 319 203 67
40 69 45 50 112 -9 32 -16 76 -16 98 0 21 -5 46 -11 54 -7 11 -9 -12 -6 -83
l4 -97 -33 6 c-31 6 -41 -2 -224 -167 -105 -96 -187 -175 -182 -177 5 -1 114
32 243 75 213 71 234 80 239 103 3 14 12 26 21 28 27 5 123 -52 146 -87 34
-51 30 -75 -14 -93 l-38 -15 -73 -234 c-100 -322 -103 -331 -94 -327 10 4 279
298 349 382 50 59 52 64 43 97 -17 59 -18 59 78 59 111 0 152 -20 152 -74 0
-39 -19 -61 -21 -24 -1 13 -5 3 -10 -22 -6 -29 -6 -60 1 -87 11 -45 3 -186
-11 -178 -4 3 -7 -25 -7 -62 l1 -68 17 87 c9 49 19 90 22 93 5 5 7 -3 64 -283
21 -100 38 -181 40 -180 2 3 71 330 90 431 3 15 9 25 14 22 5 -3 11 3 13 12 2
10 2 -1 0 -24 -3 -27 0 -43 7 -43 11 0 7 187 -6 316 l-7 61 33 12 c18 6 69 11
113 11 l79 0 -4 -32 c-3 -18 -8 -40 -12 -49 -7 -17 -11 -13 198 -244 175 -192
198 -217 202 -212 2 2 -35 129 -84 283 l-87 279 -35 11 c-26 8 -36 18 -38 36
-4 36 45 94 105 123 69 33 83 32 83 -5 0 -27 4 -31 63 -49 34 -10 142 -44 240
-76 98 -31 180 -55 183 -52 2 2 -40 44 -93 93 -54 49 -120 110 -148 135 -130
120 -133 122 -168 115 l-33 -6 9 76 c6 49 6 83 0 97 -9 18 -12 10 -18 -48 -3
-38 -7 -88 -8 -110 l-2 -40 48 0 c47 0 49 -2 191 -130 79 -71 140 -131 136
-133 -14 -5 -383 214 -398 236 -26 40 -30 92 -10 151 23 69 23 113 0 134 -25
23 -94 22 -123 -2 l-23 -19 27 -41 c29 -44 35 -98 17 -147 -6 -15 -34 -57 -62
-93 -62 -79 -78 -121 -71 -181 8 -64 18 -78 63 -91 22 -7 44 -17 49 -23 14
-18 144 -426 138 -433 -4 -3 -61 92 -254 427 -65 113 -61 138 50 315 39 62 52
91 55 132 4 46 2 53 -21 68 -14 9 -38 15 -54 13 -25 -3 -29 -8 -36 -48 -5 -25
-9 -72 -10 -105 -2 -50 -7 -67 -32 -97 -46 -58 -64 -64 -126 -40 -58 21 -73
44 -81 122 -3 32 -1 34 39 46 64 19 72 2 48 -98 -6 -23 -4 -28 18 -33 33 -9
85 19 98 52 10 27 -10 71 -51 108 -11 10 -20 22 -20 27 0 4 20 35 45 69 62 84
85 180 50 209 -23 19 -18 39 19 76 29 29 41 34 80 34 50 0 55 8 35 54 -29 62
-130 51 -163 -18 -21 -44 -32 -46 -41 -7 -17 80 -136 90 -162 14 -15 -43 -7
-51 42 -46 37 5 47 2 69 -20 29 -29 33 -58 11 -77 -8 -7 -15 -24 -15 -39 0
-14 -8 -39 -19 -56 -19 -31 -96 -115 -106 -115 -3 0 -5 18 -5 40 0 36 2 40 25
40 23 0 24 2 13 20 -9 14 -24 20 -49 20 l-36 0 1 60 c0 33 2 60 3 60 1 0 14
-12 28 -26 33 -32 56 -28 77 16 19 37 9 65 -14 42 -21 -21 -48 -14 -59 15 -16
44 -3 88 38 121 l36 28 -12 85 c-26 178 -34 172 -72 -53 -6 -38 -14 -68 -18
-68 -3 0 -8 163 -10 363 -4 389 -16 720 -21 587z m-35 -388 c8 -56 16 -162 17
-234 1 -96 3 -119 8 -83 5 36 7 16 7 -70 0 -76 -2 -107 -7 -85 -7 35 -7 35 -9
5 0 -16 6 -52 14 -79 8 -27 15 -59 14 -70 -1 -23 -4 -16 -13 27 -4 15 -11 27
-16 27 -14 0 -13 -97 1 -102 12 -4 16 -109 5 -127 -4 -6 -14 -11 -22 -11 -10
0 -14 12 -13 43 1 38 2 39 8 12 l7 -30 7 25 c4 14 6 36 6 50 0 23 -1 23 -8 5
-5 -12 -11 42 -14 135 -8 199 -16 672 -11 668 2 -2 10 -50 19 -106z m-332
-857 c28 -51 150 -179 162 -167 3 3 5 -6 5 -19 0 -13 -4 -19 -8 -14 -4 6 -13
11 -20 13 -65 13 -182 159 -182 227 0 28 15 15 43 -40z m644 21 c-10 -62 -80
-155 -144 -193 -73 -42 -67 -15 11 58 49 46 82 87 97 119 26 58 44 65 36 16z
m-378 -19 c0 -27 -2 -29 -9 -12 -12 28 -12 57 0 50 6 -3 10 -21 9 -38z m90 26
c0 -5 -4 -17 -9 -28 -8 -18 -9 -17 -9 8 -1 15 4 27 9 27 6 0 10 -3 9 -7z m-52
-110 c-3 -10 -5 -4 -5 12 0 17 2 24 5 18 2 -7 2 -21 0 -30z m103 -4 c0 -24 -4
-38 -10 -34 -6 4 -10 -14 -10 -47 0 -29 -5 -60 -11 -68 -16 -23 -4 142 12 168
8 12 15 22 16 22 2 0 3 -18 3 -41z m-179 -25 c12 -52 11 -114 -1 -114 -5 0
-10 25 -10 56 0 48 -2 55 -16 50 -13 -5 -15 -2 -10 16 3 13 6 30 6 38 0 26 21
-5 31 -46z m206 -186 c-3 -7 -5 -2 -5 12 0 14 2 19 5 13 2 -7 2 -19 0 -25z
m21 -93 c0 -16 -2 -15 -8 5 -11 34 -11 60 0 35 5 -11 8 -29 8 -40z m-83 -3
c-5 -13 -8 -14 -15 -3 -5 8 -3 19 3 26 14 15 22 1 12 -23z m-125 7 c0 -5 -4
-9 -10 -9 -5 0 -10 7 -10 16 0 8 5 12 10 9 6 -3 10 -10 10 -16z m147 -11 c-3
-7 -5 -2 -5 12 0 14 2 19 5 13 2 -7 2 -19 0 -25z m45 -40 c-9 -9 -12 -7 -12
12 0 19 3 21 12 12 9 -9 9 -15 0 -24z m-265 -10 c-3 -7 -5 -2 -5 12 0 14 2 19
5 13 2 -7 2 -19 0 -25z m249 -46 c-14 -14 -16 -14 -16 -1 0 20 23 44 29 28 2
-6 -4 -18 -13 -27z m-232 12 c4 -10 1 -14 -6 -12 -15 5 -23 28 -10 28 5 0 13
-7 16 -16z m113 -166 c-3 -8 -6 -5 -6 6 -1 11 2 17 5 13 3 -3 4 -12 1 -19z
m69 -117 c9 -53 12 -60 13 -23 1 19 5 31 11 27 13 -8 13 -65 0 -65 -6 0 -10
-19 -10 -42 1 -24 -3 -63 -9 -88 -6 -25 -23 -101 -37 -170 -13 -68 -27 -127
-30 -130 -3 -3 -3 31 1 75 4 44 8 175 9 292 l1 212 22 -26 c13 -14 25 -42 29
-62z m24 62 c0 -19 -3 -24 -10 -17 -6 6 -8 18 -4 27 9 24 14 21 14 -10z"/>
<path d="M1264 1980 c0 -69 1 -97 3 -62 2 34 2 90 0 125 -2 34 -3 6 -3 -63z"/>
<path d="M1153 2675 c0 -27 2 -38 4 -22 2 15 2 37 0 50 -2 12 -4 0 -4 -28z"/>
<path d="M1070 1286 c0 -8 5 -18 10 -21 6 -3 10 1 10 9 0 8 -4 18 -10 21 -5 3
-10 -1 -10 -9z"/>
<path d="M1102 675 c0 -16 2 -22 5 -12 2 9 2 23 0 30 -3 6 -5 -1 -5 -18z"/>
<path d="M1361 515 c1 -11 5 -33 9 -50 l8 -30 1 35 c0 19 -4 42 -9 50 -8 12
-10 11 -9 -5z"/>
</g>
</svg>
