<?xml version="1.0" standalone="no"?>
<!DOCTYPE svg PUBLIC "-//W3C//DTD SVG 20010904//EN"
 "http://www.w3.org/TR/2001/REC-SVG-20010904/DTD/svg10.dtd">
<svg version="1.0" xmlns="http://www.w3.org/2000/svg"
 width="244.000000pt" height="305.000000pt" viewBox="0 0 244.000000 305.000000"
 preserveAspectRatio="xMidYMid meet">
<metadata>
Created by potrace 1.16, written by Peter Selinger 2001-2019
</metadata>
<g transform="translate(0.000000,305.000000) scale(0.100000,-0.100000)"
fill="#000000" stroke="none">
<path d="M960 2905 c0 -4 -9 -57 -20 -118 -29 -169 -48 -397 -54 -644 -4 -206
-3 -222 13 -228 30 -9 61 -49 51 -65 -7 -12 -11 -12 -28 3 -42 38 -112 1 -112
-59 0 -20 5 -24 31 -24 41 0 66 -15 84 -50 15 -29 11 -60 -7 -60 -7 0 -9 -21
-5 -60 6 -55 5 -60 -12 -60 -29 0 -51 -27 -51 -63 0 -21 -3 -27 -9 -19 -12 20
-33 -93 -22 -121 5 -13 6 -29 2 -36 -13 -20 -33 14 -38 64 -5 36 0 53 22 90
26 45 26 47 9 66 -27 30 -93 23 -113 -13 -14 -24 -14 -33 2 -92 25 -95 23
-168 -7 -203 -17 -20 -22 -37 -19 -58 3 -23 -1 -33 -18 -43 -34 -21 -271 -123
-275 -119 -2 2 35 34 83 70 232 175 228 171 227 208 -2 58 -22 190 -29 197 -4
4 -6 -36 -4 -88 4 -95 3 -99 -31 -86 -10 4 -44 -27 -106 -96 -163 -183 -223
-252 -220 -255 4 -4 101 33 228 86 54 23 100 41 103 41 8 0 6 -28 -2 -32 -11
-4 -46 -68 -41 -74 3 -2 52 23 109 56 57 33 109 60 115 60 17 0 31 -21 39 -57
6 -30 4 -33 -26 -45 l-32 -14 -73 -289 c-39 -160 -71 -292 -69 -293 2 -2 14
12 27 31 13 19 50 72 83 117 33 46 66 93 73 106 13 25 35 34 27 11 -10 -25
-41 -227 -35 -227 3 0 22 33 43 73 20 39 68 133 107 207 63 121 70 140 68 185
-3 45 -1 50 19 53 29 4 79 -23 99 -53 15 -23 15 -26 -10 -56 -14 -17 -26 -36
-26 -43 0 -12 21 -144 75 -481 14 -88 28 -161 30 -163 1 -2 6 14 9 35 3 21 24
146 45 278 59 360 57 336 26 373 -21 25 -24 35 -16 51 19 34 62 61 99 61 l34
0 -6 -53 c-7 -50 -4 -57 48 -157 30 -58 81 -156 113 -218 32 -62 59 -107 61
-100 1 7 -6 65 -17 127 -11 63 -19 116 -18 118 2 1 43 -54 93 -122 49 -69 90
-122 92 -117 3 11 -114 496 -129 534 -6 15 -21 29 -36 33 -23 5 -24 9 -19 48
3 23 5 43 5 45 2 6 51 1 55 -7 3 -5 25 -18 48 -30 24 -12 50 -25 58 -30 97
-57 123 -71 127 -68 2 3 -12 31 -31 63 -20 32 -34 59 -32 61 1 2 68 -24 147
-57 79 -33 146 -60 148 -60 3 0 -48 70 -58 80 -4 3 -33 37 -66 75 -33 39 -77
89 -99 112 -21 23 -45 52 -54 64 -11 16 -21 20 -41 16 l-27 -6 2 92 c2 62 0
82 -5 62 -5 -16 -9 -64 -10 -106 l-1 -76 35 1 c32 1 42 -7 144 -124 60 -69
108 -127 106 -129 -4 -4 -99 61 -222 153 -109 81 -122 118 -86 257 16 63 16
68 0 93 -19 29 -50 33 -92 14 -26 -12 -37 -58 -13 -58 6 0 9 -3 5 -6 -3 -4 0
-13 8 -21 23 -22 17 -143 -6 -143 -5 0 -8 28 -7 62 2 41 -2 63 -10 66 -7 2
-12 21 -12 43 0 47 -28 80 -60 72 -21 -6 -22 -4 -15 37 5 31 3 50 -11 75 -17
32 -17 33 5 68 24 39 49 52 81 42 17 -6 20 -2 20 28 0 55 -50 84 -100 57 -14
-7 -20 -6 -25 8 -6 16 4 28 48 57 13 9 14 42 6 260 -9 270 -32 545 -45 532 -2
-2 3 -66 11 -143 8 -76 18 -245 22 -376 l6 -236 -29 -26 c-16 -14 -33 -26 -37
-26 -4 0 -7 223 -5 495 2 272 0 495 -3 495 -3 0 -12 -34 -18 -75 -7 -41 -17
-75 -22 -75 -5 0 -9 -42 -10 -92 -2 -211 -16 -201 -19 12 -1 145 -5 203 -11
179 -15 -63 -38 -338 -45 -536 -4 -106 -11 -193 -15 -193 -5 0 -9 -11 -9 -25
0 -34 -20 -32 -21 3 -1 17 -6 7 -13 -28 -12 -55 -12 -54 -19 85 -9 185 -42
433 -60 451 -15 16 -54 -255 -64 -446 -7 -138 -8 -142 -17 -90 -8 41 -11 48
-14 28 -4 -36 -20 -36 -24 -1 -2 14 -9 28 -15 31 -10 3 -13 -16 -13 -72 0 -68
-21 -146 -39 -146 -3 0 -6 225 -6 499 0 275 -1 498 -2 497 -2 -1 -10 -47 -18
-102 -18 -108 -30 -314 -40 -667 -4 -125 -9 -226 -12 -224 -7 7 -4 906 3 953
4 26 2 44 -5 48 -6 4 -11 4 -11 1z m311 -898 l12 -358 -22 -20 -21 -20 1 438
c2 503 12 489 30 -40z m139 -133 c0 -8 -7 -14 -15 -14 -15 0 -21 21 -9 33 10
9 24 -2 24 -19z m-387 9 c11 -10 -13 -32 -29 -26 -11 4 -12 9 -3 19 13 15 22
18 32 7z m77 -2 c0 -14 -18 -23 -30 -16 -6 4 -8 11 -5 16 8 12 35 12 35 0z
m376 -2 c8 -14 -18 -31 -30 -19 -9 9 0 30 14 30 5 0 12 -5 16 -11z m-336 -127
c0 -4 -9 -13 -19 -19 -15 -10 -22 -9 -31 2 -10 12 -8 16 11 24 24 9 39 6 39
-7z m250 -2 c0 -4 -6 -12 -13 -18 -14 -12 -53 11 -43 26 6 11 56 4 56 -8z
m-370 -61 c0 -11 -4 -17 -10 -14 -5 3 -10 15 -10 26 0 11 5 17 10 14 6 -3 10
-15 10 -26z m446 -6 c-11 -11 -19 6 -11 24 8 17 8 17 12 0 3 -10 2 -21 -1 -24z
m-65 -6 c-10 -9 -11 -8 -5 6 3 10 9 15 12 12 3 -3 0 -11 -7 -18z m-234 -42 c3
-11 14 -26 24 -33 9 -6 23 -29 30 -49 l12 -38 18 42 c10 23 27 47 38 53 12 6
21 19 21 29 0 12 7 17 23 15 12 -1 30 -3 41 -3 16 -1 17 -6 11 -38 -4 -21 -8
-39 -9 -40 -1 -1 -19 2 -40 8 -48 13 -70 -4 -89 -70 l-14 -46 -13 47 c-17 65
-40 84 -85 71 -39 -12 -42 -10 -50 39 l-6 35 41 -1 c31 -1 42 -6 47 -21z
m-163 -93 c16 -42 31 -83 34 -91 4 -9 1 -12 -6 -7 -18 11 -59 97 -67 139 -12
62 8 41 39 -41z m61 -1 c-6 -5 -25 47 -25 67 1 9 7 -1 15 -23 8 -21 12 -41 10
-44z m360 32 c-9 -37 -18 -20 -9 19 4 18 9 27 11 20 3 -7 2 -24 -2 -39z m80
10 c-8 -42 -49 -128 -66 -139 -6 -4 -10 -3 -8 2 2 5 18 46 34 91 31 86 52 110
40 46z m-353 -70 c18 -21 30 -63 18 -63 -11 0 -50 54 -50 69 0 16 15 13 32 -6z
m198 4 c0 -16 -59 -86 -60 -70 0 19 20 67 33 75 18 11 27 10 27 -5z m203 -140
c-1 -45 -6 -93 -12 -107 -9 -19 -10 -7 -5 56 4 61 2 89 -9 110 -19 38 -12 63
12 40 12 -13 16 -35 14 -99z m-602 77 c-2 -10 -6 -59 -10 -109 l-6 -90 -14 68
c-11 55 -11 76 -1 113 12 42 39 58 31 18z m232 -82 c5 -8 7 -16 4 -18 -6 -6
-47 18 -47 27 0 12 35 4 43 -9z m138 -2 c-28 -24 -41 -25 -41 -6 0 13 18 20
55 24 6 1 -1 -8 -14 -18z m64 -119 c0 -55 0 -56 28 -53 20 2 27 -2 27 -14 0
-14 -7 -16 -43 -11 -28 4 -53 1 -70 -8 -23 -12 -29 -12 -42 2 -19 18 -16 33
11 47 28 16 35 28 29 56 -5 21 -1 28 22 36 15 6 30 9 33 6 3 -2 5 -29 5 -61z
m-237 49 c9 0 10 -5 2 -19 -16 -32 -12 -49 17 -63 33 -16 38 -31 18 -52 -15
-14 -19 -14 -37 -1 -15 10 -35 12 -63 8 -42 -5 -63 6 -50 27 5 8 11 7 21 -1
25 -20 42 5 34 49 -9 50 -3 65 24 58 11 -3 27 -6 34 -6z m492 -41 c0 -10 -4
-19 -10 -19 -5 0 -10 12 -10 26 0 14 4 23 10 19 6 -3 10 -15 10 -26z m-780
-29 c0 -5 -4 -10 -10 -10 -5 0 -10 5 -10 10 0 6 5 10 10 10 6 0 10 -4 10 -10z
m645 -41 c-9 -17 -19 -28 -22 -25 -6 6 23 56 32 56 3 0 -2 -14 -10 -31z m-507
-35 c-4 -3 -12 5 -18 18 -12 22 -12 22 6 6 10 -10 15 -20 12 -24z m760 -27 c2
-15 9 -27 16 -27 14 0 43 -31 70 -74 l19 -29 -29 21 c-49 34 -126 121 -119
132 12 20 40 6 43 -23z m-838 -19 c20 -44 27 -123 11 -132 -5 -3 -12 16 -16
42 -7 53 -10 65 -20 105 -11 41 3 33 25 -15z m-123 -1 c-4 -13 -146 -102 -152
-95 -2 2 23 32 55 66 53 57 61 62 80 52 12 -6 19 -17 17 -23z m778 -115 c4
-14 19 -28 43 -37 l37 -15 56 -223 c31 -122 56 -223 54 -224 -2 -4 -59 115
-161 342 -39 87 -74 183 -74 203 0 13 8 40 18 60 l17 37 3 -60 c1 -33 4 -70 7
-83z m-275 84 c0 -2 -7 -7 -16 -10 -8 -3 -12 -2 -9 4 6 10 25 14 25 6z m-45
-140 l-16 -38 -20 36 c-10 20 -19 44 -18 53 1 10 6 3 12 -15 12 -40 28 -37 42
9 7 25 11 29 13 14 1 -11 -4 -38 -13 -59z m-341 -13 c-23 -158 -33 -184 -117
-310 -45 -66 -84 -120 -86 -118 -4 4 200 465 206 465 1 0 0 -17 -3 -37z m586
-3 c0 -10 -4 -21 -9 -24 -10 -7 -23 33 -15 46 8 13 24 -1 24 -22z m-476 4 c16
-43 3 -86 -76 -246 -45 -92 -83 -166 -85 -164 -6 6 69 229 92 276 12 25 25 65
29 89 4 24 9 48 12 53 8 13 21 9 28 -8z m260 -105 c16 -26 16 -36 -9 -240 -14
-118 -28 -218 -30 -224 -2 -5 -4 114 -4 265 -1 232 1 271 12 250 7 -14 21 -37
31 -51z m33 -66 c-3 -10 -5 -4 -5 12 0 17 2 24 5 18 2 -7 2 -21 0 -30z m268
-58 c14 -33 40 -174 32 -181 -3 -4 -45 117 -84 246 -8 24 37 -32 52 -65z
m-278 -12 c-3 -10 -5 -4 -5 12 0 17 2 24 5 18 2 -7 2 -21 0 -30z"/>
<path d="M1052 2800 c0 -14 2 -19 5 -12 2 6 2 18 0 25 -3 6 -5 1 -5 -13z"/>
<path d="M1442 2800 c0 -14 2 -19 5 -12 2 6 2 18 0 25 -3 6 -5 1 -5 -13z"/>
<path d="M1522 2760 c0 -19 2 -27 5 -17 2 9 2 25 0 35 -3 9 -5 1 -5 -18z"/>
<path d="M992 2755 c0 -16 2 -22 5 -12 2 9 2 23 0 30 -3 6 -5 -1 -5 -18z"/>
<path d="M1062 2710 c0 -19 2 -27 5 -17 2 9 2 25 0 35 -3 9 -5 1 -5 -18z"/>
<path d="M1083 2475 c0 -44 2 -61 4 -37 2 23 2 59 0 80 -2 20 -4 1 -4 -43z"/>
<path d="M1094 2225 c0 -55 1 -76 3 -47 2 29 2 74 0 100 -2 26 -3 2 -3 -53z"/>
</g>
</svg>
