<?xml version="1.0" standalone="no"?>
<!DOCTYPE svg PUBLIC "-//W3C//DTD SVG 20010904//EN"
 "http://www.w3.org/TR/2001/REC-SVG-20010904/DTD/svg10.dtd">
<svg version="1.0" xmlns="http://www.w3.org/2000/svg"
 width="244.000000pt" height="305.000000pt" viewBox="0 0 244.000000 305.000000"
 preserveAspectRatio="xMidYMid meet">
<metadata>
Created by potrace 1.16, written by Peter Selinger 2001-2019
</metadata>
<g transform="translate(0.000000,305.000000) scale(0.100000,-0.100000)"
fill="#000000" stroke="none">
<path d="M876 2828 c-51 -221 -73 -431 -78 -732 -3 -160 -2 -169 17 -180 11
-6 35 -24 54 -39 l33 -28 27 23 c14 14 38 32 53 41 l27 17 -4 148 c-8 242 -24
428 -51 587 -13 82 -27 151 -29 154 -7 6 -6 -7 5 -74 30 -180 51 -394 57 -581
l6 -210 -39 -24 c-21 -14 -43 -26 -47 -28 -4 -2 -6 222 -5 497 2 276 0 501 -3
501 -4 0 -14 -33 -23 -72z"/>
<path d="M1547 2828 c-49 -214 -75 -462 -78 -738 l-1 -165 35 -22 c20 -12 38
-27 42 -33 10 -16 40 -12 59 9 10 11 31 25 47 31 l30 13 -6 161 c-10 264 -24
425 -51 582 -14 82 -27 151 -30 153 -7 8 -4 -21 16 -144 28 -166 50 -424 50
-586 l0 -136 -40 -27 c-22 -14 -42 -26 -45 -26 -3 0 -5 217 -4 483 0 312 4
475 10 462 8 -17 9 -17 4 5 -2 14 -5 31 -5 38 0 6 -4 12 -8 12 -4 0 -15 -33
-25 -72z"/>
<path d="M911 2844 c0 -11 3 -14 6 -6 3 7 2 16 -1 19 -3 4 -6 -2 -5 -13z"/>
<path d="M1267 2713 c-4 -3 -7 -40 -7 -82 -1 -69 -2 -74 -14 -52 -13 23 -14
22 -29 -35 l-17 -59 4 113 c3 63 1 111 -2 107 -4 -4 -10 -77 -14 -163 -3 -86
-13 -233 -22 -327 -9 -93 -16 -212 -16 -262 0 -55 -4 -93 -10 -93 -5 0 -10 3
-10 8 -1 52 -39 232 -50 232 -9 0 -26 -76 -34 -157 -5 -51 -4 -53 29 -73 37
-23 51 -61 40 -111 -8 -33 -30 -48 -48 -30 -33 33 -51 -14 -21 -57 20 -29 40
-28 68 3 30 32 40 32 32 -1 -9 -35 1 -61 24 -67 13 -3 20 -14 20 -30 l0 -25
-36 19 c-31 15 -41 16 -67 6 -43 -18 -44 -35 -3 -42 57 -11 77 -41 83 -129 l6
-77 -29 14 c-16 8 -51 25 -79 38 -81 39 -153 127 -170 207 -9 46 7 40 33 -13
37 -77 138 -172 200 -187 17 -5 22 -2 22 12 0 22 -17 40 -63 69 -55 34 -117
124 -117 170 0 10 -7 24 -15 31 -23 19 -18 46 13 75 22 21 35 25 72 23 45 -3
45 -3 42 27 -10 90 -133 97 -162 10 -6 -19 -15 -35 -19 -35 -4 0 -15 16 -24
36 -20 40 -73 68 -112 58 -32 -8 -67 -51 -63 -78 3 -18 9 -21 44 -18 35 3 47
-2 78 -28 38 -34 45 -60 21 -80 -35 -29 -13 -114 51 -208 24 -35 44 -65 44
-68 0 -3 -16 -24 -35 -47 -47 -55 -48 -99 -2 -127 65 -40 99 -19 79 47 -7 22
-7 44 -2 59 l9 23 57 -19 c66 -23 100 -25 107 -7 4 9 6 9 6 0 1 -7 -8 -17 -19
-23 -21 -11 -29 -70 -10 -70 16 0 12 -67 -5 -74 -17 -6 -21 -56 -5 -56 6 0 10
-7 10 -17 0 -14 -2 -14 -20 2 -13 12 -20 31 -20 57 l0 38 -47 0 c-27 0 -57 -7
-67 -15 -28 -21 -41 -19 -81 16 -47 41 -58 65 -57 114 1 22 -4 67 -11 100 -13
59 -13 60 -49 63 -30 3 -40 -1 -54 -23 -27 -41 -13 -94 53 -203 78 -130 84
-145 88 -228 3 -40 7 -90 11 -111 6 -40 5 -41 -141 -212 -81 -94 -150 -170
-152 -167 -5 5 28 66 125 235 113 198 134 247 127 294 -10 62 -41 126 -87 181
-83 98 -99 170 -53 238 31 45 31 53 3 72 -45 32 -132 13 -141 -30 -2 -13 4
-45 13 -72 39 -110 31 -201 -19 -217 -23 -7 -28 -34 -10 -52 6 -6 9 -15 6 -20
-9 -14 -366 -147 -374 -139 -2 2 82 56 187 121 104 65 195 124 201 131 9 11 8
28 -5 72 -9 32 -16 76 -16 98 0 59 -19 81 -21 24 -3 -63 -3 -60 5 -108 l6 -43
-35 7 c-33 6 -40 2 -127 -77 -199 -180 -298 -272 -294 -276 2 -2 114 33 250
79 228 76 246 84 246 105 0 13 7 26 16 30 24 9 126 -48 151 -86 34 -51 30 -75
-14 -93 -38 -14 -38 -15 -82 -159 -25 -79 -61 -196 -81 -259 -20 -63 -40 -128
-44 -145 l-7 -30 33 35 c18 20 53 58 77 85 24 28 69 77 100 110 31 33 89 97
129 142 73 82 73 82 63 120 -18 64 -19 63 75 63 87 0 112 -7 152 -43 30 -27
28 -42 -9 -75 l-31 -28 32 -160 c17 -87 40 -197 50 -244 11 -47 27 -122 36
-167 10 -46 19 -81 21 -80 2 2 17 69 34 148 16 79 32 155 35 169 3 14 19 94
35 179 l30 154 -33 34 c-37 38 -34 53 22 91 28 19 46 22 121 22 97 0 96 0 79
-59 -8 -28 -6 -38 11 -60 57 -73 374 -416 376 -407 2 6 -35 133 -81 281 -83
269 -83 270 -115 281 -46 15 -53 31 -31 75 22 43 50 67 108 93 48 22 72 16 72
-18 0 -23 13 -29 236 -101 130 -42 238 -74 241 -72 2 3 -17 25 -44 49 -26 23
-82 75 -123 114 -179 168 -202 186 -236 179 l-32 -5 6 90 c3 64 1 90 -7 90 -6
0 -11 -16 -11 -37 0 -21 -3 -68 -7 -106 l-6 -67 45 6 c51 7 52 7 221 -156 43
-41 85 -79 93 -83 8 -4 14 -12 14 -18 0 -6 -6 -6 -17 1 -181 101 -343 196
-361 213 -41 38 -48 87 -24 171 12 41 22 83 22 95 0 43 -77 66 -135 39 -31
-14 -32 -29 0 -76 43 -63 30 -133 -40 -217 -22 -27 -49 -62 -58 -77 -24 -39
-31 -106 -15 -152 11 -32 21 -42 58 -56 l45 -17 67 -199 c36 -109 66 -208 67
-219 1 -19 1 -19 -13 0 -7 11 -60 101 -117 200 -56 99 -115 200 -131 224 -21
34 -28 57 -28 96 0 45 8 64 69 167 75 124 90 171 70 209 -16 31 -28 39 -61 39
-38 0 -48 -25 -53 -123 -2 -45 -4 -85 -4 -90 -1 -4 -20 -28 -42 -52 -44 -47
-70 -55 -103 -30 -11 8 -39 15 -63 15 l-43 0 0 -38 c0 -40 -14 -62 -39 -62
-12 0 -11 3 2 18 22 24 22 51 0 59 -10 4 -21 11 -25 17 -9 14 -10 62 -1 53 10
-10 33 13 33 34 0 23 -28 51 -42 43 -15 -10 -4 163 13 199 9 20 24 30 56 39
42 10 43 11 27 29 -21 24 -81 25 -106 2 -17 -15 -18 -15 -18 11 0 19 7 30 26
38 22 10 25 17 21 44 -7 43 -1 47 28 18 13 -13 31 -24 39 -24 20 0 46 39 46
67 0 26 -3 27 -29 11 -28 -17 -49 -3 -57 37 -8 46 9 86 47 107 29 17 30 20 24
65 -14 113 -28 174 -37 165 -5 -5 -18 -60 -29 -123 -11 -63 -24 -118 -28 -122
-4 -4 -11 77 -15 180 -3 104 -14 240 -24 303 -10 66 -17 172 -17 248 0 72 0
132 -1 132 0 0 -4 -3 -7 -7z m-9 -541 c-2 -177 1 -272 7 -272 6 0 9 80 8 222
-1 154 1 209 8 178 11 -56 34 -633 26 -654 -9 -23 -27 -20 -27 4 0 11 -4 20
-10 20 -5 0 -10 15 -10 33 0 21 3 27 9 19 5 -9 10 6 14 40 11 90 10 96 -18 93
l-25 -3 1 336 c1 237 4 325 11 297 5 -22 8 -162 6 -313z m-1 -424 c-3 -7 -5
-2 -5 12 0 14 2 19 5 13 2 -7 2 -19 0 -25z m2 -110 c1 -15 -3 -30 -9 -33 -6
-4 -10 14 -9 47 0 39 3 48 9 33 5 -11 9 -32 9 -47z m-42 -115 c-3 -10 -5 -4
-5 12 0 17 2 24 5 18 2 -7 2 -21 0 -30z m36 -24 c-5 -18 -14 -34 -21 -37 -17
-5 -15 34 3 52 8 8 15 21 16 28 0 9 2 9 5 1 3 -6 1 -26 -3 -44z m-96 -341 c-3
-8 -6 -5 -6 6 -1 11 2 17 5 13 3 -3 4 -12 1 -19z m146 -135 c-7 -35 -11 -41
-23 -32 -11 8 -12 12 -2 16 6 2 12 19 12 37 0 33 13 59 18 34 1 -7 -1 -32 -5
-55z m-115 17 c6 -22 11 -52 11 -67 -2 -26 -2 -26 -6 -4 -4 19 -7 21 -14 10
-6 -10 -9 -7 -9 12 0 15 -3 41 -6 58 -9 45 9 38 24 -9z m49 -122 c-3 -8 -6 -5
-6 6 -1 11 2 17 5 13 3 -3 4 -12 1 -19z m28 10 c-3 -7 1 -71 9 -143 13 -124
14 -127 15 -53 1 104 7 115 36 79 24 -27 24 -28 9 -97 -21 -96 -24 -104 -34
-79 -4 12 -9 -22 -13 -85 -6 -92 -42 -280 -47 -240 -4 36 3 549 8 613 1 9 6
17 12 17 5 0 7 -6 5 -12z m22 -100 c-3 -7 -5 -2 -5 12 0 14 2 19 5 13 2 -7 2
-19 0 -25z"/>
<path d="M1440 1861 c-26 -7 -67 -72 -55 -91 3 -5 24 -7 48 -4 36 5 46 2 70
-20 29 -27 35 -57 13 -75 -7 -6 -16 -28 -20 -49 -7 -45 -62 -117 -119 -155
-46 -31 -57 -44 -57 -69 0 -14 5 -15 37 -5 51 16 145 106 179 172 16 30 32 55
37 55 16 0 5 -48 -22 -95 -53 -90 -119 -143 -224 -179 -14 -5 -16 -9 -7 -26
13 -25 23 -25 100 -1 l61 19 9 -23 c5 -14 5 -37 -1 -57 -5 -18 -9 -38 -9 -45
0 -21 45 -26 78 -9 54 28 56 76 7 133 -19 23 -35 44 -35 48 0 3 18 30 40 59
63 83 92 198 55 212 -25 10 -17 44 19 80 27 27 42 34 73 34 50 0 54 4 41 42
-25 71 -130 67 -165 -6 -19 -42 -29 -45 -36 -13 -13 51 -63 80 -117 68z"/>
</g>
</svg>
