<?xml version="1.0" standalone="no"?>
<!DOCTYPE svg PUBLIC "-//W3C//DTD SVG 20010904//EN"
 "http://www.w3.org/TR/2001/REC-SVG-20010904/DTD/svg10.dtd">
<svg version="1.0" xmlns="http://www.w3.org/2000/svg"
 width="244.000000pt" height="305.000000pt" viewBox="0 0 244.000000 305.000000"
 preserveAspectRatio="xMidYMid meet">
<metadata>
Created by potrace 1.16, written by Peter Selinger 2001-2019
</metadata>
<g transform="translate(0.000000,305.000000) scale(0.100000,-0.100000)"
fill="#000000" stroke="none">
<path d="M885 2888 c-4 -15 -3 -32 1 -39 12 -19 14 -938 2 -945 -5 -3 -19 3
-31 13 -12 11 -30 23 -39 26 -16 6 -18 21 -18 114 0 140 16 350 40 533 22 158
22 166 15 159 -10 -11 -45 -261 -55 -394 -5 -77 -10 -205 -10 -285 l0 -146 54
-36 55 -35 21 22 c12 13 36 29 53 36 l30 13 -6 205 c-4 113 -12 258 -17 321
-11 120 -50 343 -74 420 -13 43 -14 44 -21 18z"/>
<path d="M1578 2404 c2 -321 0 -504 -7 -504 -5 0 -28 12 -50 27 -41 26 -41 27
-41 87 0 212 24 477 66 746 4 25 4 43 1 40 -3 -3 -17 -75 -31 -160 -29 -173
-46 -388 -46 -587 0 -123 1 -132 20 -138 11 -4 34 -18 51 -32 25 -22 34 -24
48 -15 9 7 33 22 53 34 l38 23 0 115 c0 284 -50 722 -97 847 -4 12 -7 -205 -5
-483z"/>
<path d="M1193 2860 c0 -25 2 -35 4 -22 2 12 2 32 0 45 -2 12 -4 2 -4 -23z"/>
<path d="M1271 2874 c0 -11 3 -14 6 -6 3 7 2 16 -1 19 -3 4 -6 -2 -5 -13z"/>
<path d="M1271 2675 l-2 -180 -19 55 c-22 67 -22 69 -20 -211 1 -204 0 -227
-16 -233 -15 -6 -16 -19 -11 -114 3 -59 8 -118 11 -132 3 -14 -1 -7 -8 15 -17
48 -23 491 -6 465 7 -11 9 -3 8 30 -1 25 2 72 6 105 9 62 0 71 -14 13 -8 -31
-8 -30 -11 17 -1 29 -5 3 -10 -65 -4 -63 -12 -169 -18 -235 -6 -66 -11 -168
-12 -226 -1 -114 -13 -161 -23 -93 -17 109 -38 210 -45 217 -11 11 -31 -73
-37 -153 -5 -65 -5 -65 28 -85 24 -15 34 -29 38 -55 11 -75 -10 -104 -56 -80
-32 18 -38 9 -24 -34 17 -51 67 -60 91 -15 17 32 30 21 24 -21 -4 -32 -1 -42
13 -47 23 -9 41 -34 42 -58 0 -12 -3 -15 -8 -9 -22 33 -99 47 -128 23 -21 -17
-17 -26 14 -34 53 -13 72 -32 72 -75 l0 -39 -43 29 c-42 28 -115 108 -129 139
-4 9 -7 28 -7 43 -1 17 -9 32 -21 38 -28 15 -25 37 10 72 26 26 36 30 75 26
42 -3 45 -2 45 22 -1 33 -21 58 -58 71 -44 15 -82 -5 -109 -59 -18 -37 -22
-40 -28 -22 -3 11 -18 34 -32 50 -21 26 -32 30 -73 30 -55 0 -80 -23 -80 -71
0 -25 2 -26 43 -22 46 4 68 -9 102 -60 17 -27 17 -28 -4 -48 -45 -42 -21 -111
87 -259 11 -15 8 -24 -28 -64 -22 -26 -40 -57 -40 -70 0 -31 40 -66 83 -73 29
-4 36 -2 42 15 3 12 1 30 -4 41 -13 23 -14 61 -3 79 7 9 21 8 68 -8 73 -24 90
-25 103 -2 9 15 10 14 11 -6 0 -13 -4 -21 -9 -18 -16 10 -34 -23 -28 -52 7
-37 -16 -171 -27 -154 -4 7 -8 29 -8 48 0 34 0 34 -45 34 -25 0 -58 -8 -73
-17 -37 -21 -67 -9 -106 43 -22 29 -29 49 -31 88 0 28 -5 76 -10 106 -7 47
-11 55 -32 58 -40 6 -68 -7 -81 -37 -17 -42 -2 -83 79 -220 51 -84 71 -128 71
-152 0 -36 -17 -67 -196 -372 -54 -93 -100 -164 -102 -159 -2 6 28 104 66 218
l68 208 47 15 c52 16 67 42 67 118 0 53 -18 91 -77 160 -77 91 -91 157 -48
221 44 64 26 92 -58 92 -78 0 -93 -39 -56 -148 34 -101 13 -155 -79 -207 -190
-109 -327 -183 -330 -180 -3 3 16 21 102 100 6 6 50 45 98 89 l88 78 46 -7 46
-7 -7 99 c-9 130 -29 152 -22 25 l5 -92 -33 6 c-30 5 -39 0 -92 -48 -33 -29
-119 -106 -192 -172 -72 -65 -130 -121 -127 -123 3 -3 85 20 183 52 328 104
303 94 303 121 0 35 21 39 77 14 56 -25 97 -61 113 -101 15 -35 3 -54 -39 -62
-27 -6 -31 -14 -75 -149 -102 -321 -133 -423 -129 -428 3 -3 14 6 25 20 11 14
50 57 87 95 79 82 222 241 268 297 30 38 31 40 17 73 -23 57 -23 57 85 53 81
-2 105 -7 127 -24 50 -37 52 -50 15 -88 -37 -39 -37 -36 -6 -171 9 -38 19 -97
22 -130 3 -33 9 -62 13 -65 4 -3 22 -74 39 -159 17 -85 32 -156 34 -158 3 -3
47 202 63 289 3 21 10 35 15 32 5 -3 9 12 9 33 0 22 11 97 25 167 l25 128 -30
34 c-16 19 -30 38 -30 43 0 13 43 49 73 60 35 14 184 14 192 1 3 -5 -1 -25 -9
-44 -18 -43 -26 -31 174 -251 220 -241 220 -241 220 -227 0 8 -18 68 -39 135
-22 67 -60 189 -86 271 l-46 148 -41 16 c-36 14 -39 18 -34 45 9 44 42 83 89
105 78 37 86 37 98 3 12 -33 -19 -21 442 -168 26 -9 50 -14 52 -11 4 4 -95 96
-305 282 -67 60 -78 66 -107 61 l-32 -6 6 91 c7 109 -11 125 -21 19 -3 -39
-11 -79 -16 -89 -26 -48 -15 -62 118 -144 244 -152 272 -169 269 -173 -2 -2
-80 24 -173 58 -93 34 -177 63 -186 66 -19 6 -23 29 -9 52 7 10 -1 23 -25 46
-29 28 -34 39 -34 78 0 25 9 74 20 109 25 79 25 93 0 118 -26 26 -99 27 -129
3 -19 -17 -20 -20 -6 -43 60 -103 54 -148 -36 -260 -62 -78 -76 -110 -86 -196
-6 -57 -3 -63 185 -387 40 -71 72 -131 69 -133 -2 -3 -49 46 -104 108 -202
230 -205 235 -197 260 4 13 8 59 9 103 2 91 17 130 105 270 41 66 50 88 50
126 0 32 -6 51 -18 62 -22 20 -65 22 -79 5 -13 -16 -25 -86 -27 -154 -1 -59
-36 -113 -84 -133 -25 -10 -35 -10 -60 3 -17 9 -49 16 -72 16 -40 0 -40 0 -40
-39 0 -22 -5 -43 -12 -47 -8 -5 -9 -2 -5 9 7 19 -12 69 -24 62 -4 -3 -10 9
-14 26 -6 24 -3 34 9 41 22 13 20 55 -4 70 -11 7 -20 16 -20 20 0 5 9 3 20 -4
17 -11 31 -9 82 9 89 31 100 18 73 -88 -6 -23 -3 -27 19 -33 31 -8 81 15 96
44 15 27 6 51 -36 101 -34 41 -34 42 -18 68 9 14 25 35 35 46 50 56 80 195 44
209 -24 9 -17 36 20 73 30 30 40 34 77 31 40 -2 43 -1 46 24 6 52 -68 94 -117
67 -14 -8 -36 -30 -49 -49 -30 -46 -36 -47 -47 -8 -7 23 -21 38 -47 51 -33 16
-40 17 -72 3 -26 -11 -37 -23 -44 -48 -5 -18 -7 -36 -5 -40 2 -4 24 -5 48 -1
38 5 47 2 69 -20 29 -29 34 -72 11 -81 -8 -3 -15 -18 -15 -33 0 -50 -72 -145
-136 -179 -31 -17 -55 -57 -41 -70 3 -3 25 4 50 16 56 27 159 133 177 183 18
48 34 48 27 0 -14 -84 -111 -184 -220 -225 l-49 -19 7 78 c7 81 23 113 56 113
24 0 49 10 49 21 0 5 -12 15 -27 22 -29 15 -86 7 -98 -13 -10 -17 -25 -11 -25
9 0 11 13 29 30 41 26 18 29 26 24 56 -3 21 -1 34 5 34 6 0 11 -4 11 -10 0 -5
11 -17 25 -26 35 -23 63 -10 71 32 7 39 0 54 -18 36 -33 -33 -68 -1 -68 62 0
36 8 47 59 85 l25 18 -17 103 c-25 151 -28 150 -57 -15 -12 -66 -25 -124 -29
-128 -4 -4 -11 72 -15 170 -3 98 -11 228 -17 288 -6 61 -14 207 -18 325 l-8
215 -2 -180z m-78 -825 c2 -19 2 -25 0 -12 -2 12 -9 22 -15 22 -7 0 -8 -20 -3
-62 11 -93 11 -157 0 -160 -17 -5 -18 28 -9 282 l9 245 7 -140 c3 -77 9 -156
11 -175z m44 58 c-3 -7 -5 -2 -5 12 0 14 2 19 5 13 2 -7 2 -19 0 -25z m-21
-195 c0 -32 3 -71 7 -87 7 -26 6 -28 -7 -17 -12 10 -16 33 -16 87 0 41 4 74 9
74 5 0 8 -26 7 -57z m-288 -143 c29 -62 112 -143 180 -176 29 -13 50 -29 47
-34 -10 -16 -28 -12 -93 21 -88 44 -172 148 -172 214 0 38 12 30 38 -25z m289
-62 c-3 -7 -5 -2 -5 12 0 14 2 19 5 13 2 -7 2 -19 0 -25z m40 0 c-3 -7 -5 -2
-5 12 0 14 2 19 5 13 2 -7 2 -19 0 -25z m-20 -35 c-3 -10 -5 -2 -5 17 0 19 2
27 5 18 2 -10 2 -26 0 -35z m-90 -320 c-3 -10 -5 -2 -5 17 0 19 2 27 5 18 2
-10 2 -26 0 -35z m29 -97 c3 -13 4 -35 2 -47 -2 -17 -6 -11 -14 24 -6 26 -7
47 -3 47 5 0 11 -11 15 -24z m144 16 c0 -5 -3 -12 -7 -16 -5 -4 -13 -29 -19
-54 -8 -31 -12 -38 -13 -22 -1 34 18 100 29 100 6 0 10 -4 10 -8z m-100 -153
c0 -6 -4 -7 -10 -4 -5 3 -10 11 -10 16 0 6 5 7 10 4 6 -3 10 -11 10 -16z m17
-1 c-3 -8 -6 -5 -6 6 -1 11 2 17 5 13 3 -3 4 -12 1 -19z m-13 -329 c4 -318 3
-320 -44 -82 -16 82 -36 177 -45 212 -16 63 -16 65 4 85 l21 20 0 -79 c0 -44
5 -87 10 -95 7 -10 8 5 4 46 -7 70 3 157 17 149 5 -4 9 2 9 13 0 18 10 35 17
29 1 -2 5 -136 7 -298z"/>
<path d="M1182 755 c0 -16 2 -22 5 -12 2 9 2 23 0 30 -3 6 -5 -1 -5 -18z"/>
<path d="M862 2780 c0 -14 2 -19 5 -12 2 6 2 18 0 25 -3 6 -5 1 -5 -13z"/>
<path d="M1204 2220 c0 -52 1 -74 3 -47 2 26 2 68 0 95 -2 26 -3 4 -3 -48z"/>
</g>
</svg>
