<?xml version="1.0" standalone="no"?>
<!DOCTYPE svg PUBLIC "-//W3C//DTD SVG 20010904//EN"
 "http://www.w3.org/TR/2001/REC-SVG-20010904/DTD/svg10.dtd">
<svg version="1.0" xmlns="http://www.w3.org/2000/svg"
 width="244.000000pt" height="305.000000pt" viewBox="0 0 244.000000 305.000000"
 preserveAspectRatio="xMidYMid meet">
<metadata>
Created by potrace 1.16, written by Peter Selinger 2001-2019
</metadata>
<g transform="translate(0.000000,305.000000) scale(0.100000,-0.100000)"
fill="#000000" stroke="none">
<path d="M1041 2890 c-1 -19 -2 -219 -3 -445 -1 -367 -2 -390 -9 -225 -10 236
-24 395 -38 440 -10 32 -10 31 -6 -20 3 -30 6 -134 7 -230 1 -146 3 -159 7
-80 l6 95 7 -100 c5 -55 8 -162 8 -237 0 -115 -2 -138 -15 -138 -12 0 -15 23
-18 128 l-3 127 -2 -140 c-2 -134 -8 -165 -34 -165 -4 0 -8 217 -7 483 0 312
4 475 10 462 8 -17 9 -17 4 5 -2 14 -5 32 -5 40 0 9 -3 10 -9 5 -5 -6 -23 -95
-40 -200 -29 -182 -51 -478 -51 -691 l0 -81 37 -24 c44 -29 58 -50 49 -74 -6
-16 -9 -15 -31 9 -47 50 -123 26 -128 -40 -2 -27 0 -29 31 -26 58 6 134 -93
86 -112 -14 -5 -16 -16 -11 -61 5 -47 3 -55 -13 -60 -12 -4 -20 -17 -22 -38
-2 -18 -7 -31 -11 -29 -4 1 -19 -11 -34 -28 -23 -28 -25 -37 -20 -90 4 -37 3
-61 -4 -66 -15 -9 -18 -4 -30 60 -11 54 -11 59 16 108 l28 51 -23 19 c-29 23
-82 23 -103 0 -21 -23 -21 -59 -1 -129 24 -82 15 -158 -21 -187 -24 -19 -26
-25 -16 -43 16 -31 16 -31 -31 -52 -72 -33 -271 -111 -275 -107 -2 1 71 55
161 120 91 64 167 120 171 125 3 5 -2 38 -10 73 -8 35 -15 80 -15 100 0 20 -5
40 -12 44 -8 5 -10 -16 -5 -84 l7 -91 -28 5 c-26 5 -42 -8 -195 -167 -91 -96
-164 -176 -161 -178 2 -2 22 3 44 12 44 19 61 25 230 87 147 54 144 52 148 84
2 15 10 26 19 26 20 0 14 -16 -54 -122 -53 -84 -64 -119 -26 -86 10 8 43 28
73 45 30 16 72 39 93 51 45 26 53 23 59 -19 4 -28 1 -33 -28 -45 -27 -11 -36
-23 -49 -66 -28 -96 -135 -497 -135 -508 0 -7 57 60 126 147 69 87 129 159
134 161 4 2 4 -19 -1 -45 -26 -137 -49 -277 -46 -280 2 -2 54 97 117 218 107
212 112 224 107 270 -5 38 -3 49 10 53 25 10 80 -12 97 -39 21 -32 20 -40 -9
-69 -14 -14 -25 -32 -25 -41 0 -9 20 -128 45 -263 24 -136 50 -278 56 -317 7
-38 14 -65 15 -60 7 18 114 616 114 632 0 9 -11 31 -25 49 -14 18 -25 37 -25
41 0 19 57 63 89 69 l34 7 -5 -51 c-5 -49 -1 -58 109 -269 63 -120 112 -207
109 -193 -17 86 -47 283 -44 291 2 5 64 -67 138 -160 74 -93 136 -168 138
-166 2 1 -32 130 -74 285 l-78 283 -33 13 c-21 9 -33 21 -33 33 0 29 11 51 25
51 13 0 102 -48 158 -84 15 -10 30 -16 33 -13 4 3 -17 45 -46 92 -42 69 -50
89 -39 96 21 13 34 5 37 -24 4 -29 -6 -24 277 -128 88 -32 161 -57 162 -55 2
1 -74 82 -168 180 -162 167 -173 177 -201 170 l-30 -6 7 85 c5 58 4 87 -4 91
-7 5 -11 -3 -11 -22 0 -16 -3 -64 -7 -107 l-6 -77 39 6 40 7 129 -131 c121
-122 158 -165 124 -145 -92 54 -331 220 -348 240 -25 33 -28 108 -6 170 31 85
11 135 -54 135 -69 0 -87 -30 -51 -85 33 -49 19 -185 -18 -185 -11 0 -12 9 -6
43 11 55 8 105 -6 122 -6 8 -25 17 -41 20 -24 5 -29 12 -29 35 0 16 -6 35 -13
42 -9 8 -12 28 -9 59 3 33 -1 54 -13 72 -16 25 -16 28 4 61 24 39 38 46 87 46
30 0 34 3 34 25 0 30 -41 75 -67 75 -31 -1 -65 -26 -84 -61 -17 -32 -18 -33
-19 -9 -1 35 -21 58 -55 62 -34 3 -38 16 -13 32 13 8 22 5 42 -13 l25 -24 35
30 c19 17 40 33 47 35 20 7 13 355 -12 583 -15 134 -41 306 -46 302 -2 -3 5
-72 16 -153 23 -171 41 -428 41 -590 0 -119 1 -117 -67 -158 -10 -6 -13 92
-12 476 1 291 4 473 10 458 6 -19 7 -15 3 15 -10 74 -21 56 -43 -77 -38 -221
-36 -218 -50 -73 -7 72 -16 142 -20 158 -3 15 -5 -196 -3 -468 2 -325 -1 -495
-7 -495 -10 0 -12 6 -32 143 -7 42 -15 77 -19 77 -4 0 -12 -28 -17 -62 l-10
-63 -8 55 c-5 30 -10 49 -12 42 -11 -32 -23 7 -23 76 -1 147 -54 459 -71 417
-21 -50 -51 -263 -56 -395 -5 -118 -8 -140 -17 -115 l-10 30 -11 -50 -11 -50
-12 80 c-6 44 -14 157 -17 250 -8 223 -50 653 -54 555z m246 -927 c-1 -49 -3
-9 -3 87 0 96 2 136 3 88 2 -49 2 -127 0 -175z m-264 -78 c8 -19 -4 -25 -31
-18 -18 4 -20 8 -11 19 15 18 35 18 42 -1z m54 -21 c-9 -9 -28 6 -21 18 4 6
10 6 17 -1 6 -6 8 -13 4 -17z m333 6 c0 -5 -7 -10 -16 -10 -8 0 -12 5 -9 10 3
6 10 10 16 10 5 0 9 -4 9 -10z m-280 -114 c0 -7 -7 -19 -15 -26 -13 -10 -18
-11 -28 -1 -9 10 -8 15 7 27 25 18 36 18 36 0z m260 -16 c0 -18 -22 -22 -37
-7 -21 21 -8 40 18 27 10 -6 19 -15 19 -20z m-370 -51 c0 -31 -1 -32 -24 -23
-17 6 -21 31 -10 58 10 25 34 0 34 -35z m472 26 c9 -21 8 -28 -7 -45 -21 -23
-35 -18 -35 15 0 55 23 72 42 30z m-195 -67 c-3 -7 -5 -2 -5 12 0 14 2 19 5
13 2 -7 2 -19 0 -25z m-146 2 c5 0 9 -7 9 -15 0 -8 9 -19 21 -25 11 -7 27 -27
35 -46 8 -19 17 -34 20 -34 3 0 12 16 20 36 8 20 24 38 35 41 10 3 19 11 19
18 0 20 27 37 50 30 15 -5 20 -15 20 -40 0 -33 0 -33 -45 -32 -50 2 -65 -11
-88 -78 l-14 -40 -12 43 c-18 63 -43 85 -90 77 -36 -6 -39 -5 -44 22 -6 31 17
58 41 48 8 -3 18 -5 23 -5z m-187 -64 c3 -13 26 -57 51 -97 48 -78 51 -97 9
-58 -39 36 -84 120 -84 157 0 37 14 36 24 -2z m111 -85 c-8 -8 -35 68 -34 96
0 20 5 12 19 -32 11 -32 17 -61 15 -64z m465 102 c0 -31 -56 -137 -91 -172
-49 -49 -47 -21 5 56 25 38 50 83 57 101 12 34 29 43 29 15z m-120 -57 c-6
-19 -17 -40 -25 -46 -12 -10 -12 -4 1 36 26 80 26 82 31 61 3 -9 -1 -33 -7
-51z m-260 -57 c18 -42 5 -47 -19 -8 -25 40 -26 50 -7 43 8 -3 20 -19 26 -35z
m190 35 c0 -4 -10 -23 -22 -43 -18 -28 -23 -32 -26 -18 -4 20 23 67 38 67 6 0
10 -3 10 -6z m-415 -131 c-2 -32 -4 -67 -5 -78 l-1 -20 -9 20 c-10 24 -13 97
-4 119 13 34 23 13 19 -41z m613 -16 c2 -35 -1 -57 -8 -57 -5 0 -10 20 -10 44
0 24 -3 52 -7 62 -4 12 -2 15 8 12 9 -3 15 -23 17 -61z m-371 -13 c-3 -4 -14
-3 -24 0 -15 6 -15 8 -3 16 16 10 39 -4 27 -16z m138 5 c-8 -12 -35 -12 -35 0
0 11 22 20 33 14 4 -2 5 -9 2 -14z m-283 -69 c-2 -16 -8 -33 -13 -36 -10 -6
-12 36 -3 60 10 26 21 9 16 -24z m423 9 c8 -33 -12 -119 -29 -132 -6 -4 -29
-7 -51 -7 -22 1 -53 -2 -68 -6 -27 -6 -28 -5 -25 22 2 22 9 30 27 32 21 3 23
8 18 42 -4 33 -2 39 17 44 37 10 39 7 34 -43 -6 -62 2 -77 30 -62 27 15 35 43
27 97 -7 51 10 62 20 13z m-305 -9 c12 0 12 -2 2 -8 -7 -5 -14 -21 -15 -37 -2
-23 3 -30 23 -35 29 -7 38 -41 15 -60 -10 -8 -15 -9 -15 -1 0 7 -22 11 -59 11
-61 0 -96 19 -74 41 7 7 14 5 23 -6 27 -32 40 -18 40 46 0 59 1 61 23 55 12
-3 29 -6 37 -6z m-325 -56 c22 -34 4 -56 -19 -23 -18 26 -21 49 -7 49 5 0 16
-12 26 -26z m820 -43 c3 -5 1 -12 -5 -16 -5 -3 -10 1 -10 9 0 18 6 21 15 7z
m-655 -39 c0 -15 -2 -15 -10 -2 -13 20 -13 33 0 25 6 -3 10 -14 10 -23z m491
-5 c-8 -8 -11 -7 -11 4 0 20 13 34 18 19 3 -7 -1 -17 -7 -23z m-596 -30 c44
-68 37 -262 -12 -347 -33 -55 -193 -263 -199 -257 -3 2 46 106 107 231 l112
227 -12 69 c-6 37 -14 75 -17 84 -9 24 3 19 21 -7z m-140 3 c4 -6 -23 -41 -60
-78 -75 -75 -76 -74 -20 21 37 64 64 83 80 57z m860 -53 c0 -94 8 -110 57
-128 40 -15 44 -19 59 -75 9 -32 38 -133 63 -223 25 -91 44 -166 42 -168 -2
-3 -150 282 -240 464 -28 57 -32 107 -11 153 10 22 21 40 24 40 3 0 6 -28 6
-63z m163 -9 c28 -29 49 -54 47 -56 -4 -5 -114 58 -121 69 -5 8 12 39 21 39 2
0 26 -24 53 -52z m-533 -128 c3 0 12 15 20 33 9 19 14 25 15 14 0 -18 -27 -77
-35 -77 -8 0 -35 59 -35 77 1 11 6 5 15 -14 8 -18 17 -33 20 -33z m-237 -12
c-3 -7 -36 -109 -73 -225 -38 -117 -70 -211 -73 -209 -2 2 8 62 21 133 21 107
31 138 57 175 30 43 31 48 20 82 -6 19 -9 40 -5 46 9 15 58 13 53 -2z m488
-34 c7 -21 35 -113 64 -203 28 -89 50 -165 47 -167 -2 -2 -40 72 -86 165 -83
169 -85 177 -65 239 7 24 27 7 40 -34z m-565 -47 c-10 -9 -11 -8 -5 6 3 10 9
15 12 12 3 -3 0 -11 -7 -18z m393 -166 c-10 -55 -19 -99 -21 -97 -2 2 1 52 8
110 7 68 15 104 21 98 6 -6 3 -47 -8 -111z"/>
<path d="M962 2795 c0 -16 2 -22 5 -12 2 9 2 23 0 30 -3 6 -5 -1 -5 -18z"/>
<path d="M1022 2790 c0 -14 2 -19 5 -12 2 6 2 18 0 25 -3 6 -5 1 -5 -13z"/>
<path d="M1403 2740 c0 -25 2 -35 4 -22 2 12 2 32 0 45 -2 12 -4 2 -4 -23z"/>
<path d="M972 2730 c0 -19 2 -27 5 -17 2 9 2 25 0 35 -3 9 -5 1 -5 -18z"/>
<path d="M1013 2685 c0 -22 2 -30 4 -17 2 12 2 30 0 40 -3 9 -5 -1 -4 -23z"/>
<path d="M1393 2625 c0 -27 2 -38 4 -22 2 15 2 37 0 50 -2 12 -4 0 -4 -28z"/>
<path d="M1383 2505 c0 -38 2 -53 4 -32 2 20 2 52 0 70 -2 17 -4 1 -4 -38z"/>
<path d="M1374 2290 c0 -69 1 -97 3 -62 2 34 2 90 0 125 -2 34 -3 6 -3 -63z"/>
</g>
</svg>
