<?xml version="1.0" standalone="no"?>
<!DOCTYPE svg PUBLIC "-//W3C//DTD SVG 20010904//EN"
 "http://www.w3.org/TR/2001/REC-SVG-20010904/DTD/svg10.dtd">
<svg version="1.0" xmlns="http://www.w3.org/2000/svg"
 width="244.000000pt" height="305.000000pt" viewBox="0 0 244.000000 305.000000"
 preserveAspectRatio="xMidYMid meet">
<metadata>
Created by potrace 1.16, written by Peter Selinger 2001-2019
</metadata>
<g transform="translate(0.000000,305.000000) scale(0.100000,-0.100000)"
fill="#000000" stroke="none">
<path d="M886 2889 c-55 -199 -96 -547 -96 -817 l0 -153 33 -14 c18 -7 41 -23
51 -34 18 -20 20 -20 38 -4 11 10 36 26 55 38 l36 20 -2 135 c-3 273 -21 456
-67 694 -28 145 -37 171 -48 135z m28 -76 c47 -273 88 -740 72 -824 -6 -32
-60 -89 -85 -89 -7 0 -10 163 -11 475 0 436 6 543 24 438z"/>
<path d="M1570 2884 c0 -11 -4 -24 -9 -29 -9 -10 -42 -183 -61 -315 -15 -108
-30 -356 -30 -497 0 -113 1 -122 20 -128 11 -4 34 -18 51 -32 25 -22 34 -24
48 -15 9 7 33 22 55 34 l38 23 -5 225 c-6 238 -26 430 -57 570 -22 94 -19 61
11 -134 26 -171 48 -628 30 -634 -6 -2 -25 -15 -40 -28 -16 -13 -34 -24 -40
-24 -14 0 -15 936 -1 945 10 6 8 40 -3 51 -4 4 -7 -2 -7 -12z"/>
<path d="M1242 2640 c0 -14 2 -19 5 -12 2 6 2 18 0 25 -3 6 -5 1 -5 -13z"/>
<path d="M1217 2573 c-3 -26 -14 -91 -25 -143 -21 -98 -42 -350 -42 -497 0
-45 -4 -83 -9 -83 -4 0 -16 48 -26 107 -30 183 -43 193 -64 50 -16 -113 -15
-120 20 -141 40 -24 54 -60 39 -108 -11 -37 -40 -52 -55 -28 -12 19 -25 10
-25 -18 0 -57 65 -80 90 -31 16 29 28 23 27 -15 -1 -27 7 -41 36 -69 38 -36
42 -44 29 -64 -5 -9 -16 -4 -36 17 -37 40 -85 44 -120 10 -19 -18 -18 -19 20
-26 69 -12 88 -43 99 -165 l7 -66 -32 -11 c-26 -10 -31 -16 -28 -39 2 -19 10
-29 28 -33 44 -10 35 -65 -12 -72 -27 -4 -47 -33 -32 -48 6 -6 24 -13 39 -16
40 -7 45 -12 45 -40 0 -14 7 -41 15 -60 15 -36 12 -60 -6 -48 -5 3 -7 15 -4
27 2 12 2 16 -1 9 -10 -21 -24 -3 -24 31 0 41 -12 60 -41 64 -30 5 -39 19 -39
66 0 36 -1 37 -39 37 -21 0 -55 -7 -75 -15 -32 -14 -39 -14 -65 0 -47 24 -76
73 -77 130 -2 66 -14 137 -27 153 -13 17 -62 15 -81 -4 -42 -42 -31 -91 51
-220 75 -119 85 -146 88 -234 1 -41 5 -86 9 -100 8 -30 6 -33 -173 -238 -68
-78 -126 -140 -129 -137 -3 2 2 15 10 27 8 13 68 117 133 233 116 207 117 210
112 261 -7 67 -37 134 -86 192 -50 61 -81 120 -81 156 0 16 14 52 30 82 l31
52 -23 16 c-13 9 -43 16 -70 16 -37 0 -50 -5 -62 -22 -21 -29 -20 -53 4 -123
11 -32 20 -78 20 -103 0 -36 -5 -49 -31 -73 -26 -24 -29 -33 -24 -61 l6 -33
-177 -63 c-97 -35 -181 -61 -186 -60 -6 2 70 52 169 112 244 147 220 122 200
205 -9 38 -17 87 -17 109 0 23 -5 44 -12 48 -8 5 -10 -18 -5 -90 l5 -97 -33 7
c-31 6 -40 0 -132 -82 -204 -183 -283 -257 -279 -262 3 -2 26 3 53 11 456 146
430 136 437 168 7 36 18 36 93 -1 48 -24 65 -39 84 -74 26 -50 19 -69 -29 -79
-30 -6 -35 -21 -141 -357 -16 -52 -39 -122 -49 -155 -11 -33 -18 -62 -16 -64
5 -6 38 29 219 228 213 234 198 213 180 257 -8 20 -12 40 -9 45 3 5 45 9 93 9
75 0 93 -3 121 -22 56 -38 59 -53 22 -91 l-33 -34 51 -249 c80 -390 83 -405
86 -402 2 2 94 443 130 621 5 23 0 36 -27 63 -37 38 -35 51 15 88 22 17 46 22
128 24 l101 4 -7 -29 c-21 -86 -40 -57 240 -358 56 -61 111 -122 123 -135 14
-17 20 -20 21 -10 0 8 -32 116 -71 240 -39 124 -75 241 -81 260 -13 46 -32 66
-69 74 -32 6 -36 23 -15 64 20 39 55 68 109 92 55 25 77 21 77 -13 0 -20 9
-27 53 -41 249 -82 423 -136 430 -133 8 2 -319 303 -365 335 -11 8 -30 11 -47
7 l-29 -6 5 93 c4 62 2 90 -5 83 -5 -5 -13 -54 -16 -107 l-7 -98 44 6 c44 6
45 6 133 -72 49 -43 111 -99 137 -124 27 -25 53 -46 58 -48 5 -2 9 -8 9 -13 0
-13 -20 -3 -194 96 -211 120 -202 114 -220 152 -21 43 -20 75 4 143 25 70 25
95 0 120 -36 36 -140 20 -140 -21 0 -8 11 -31 25 -51 43 -63 26 -140 -50 -223
-68 -73 -91 -157 -65 -232 9 -24 21 -33 58 -44 l47 -15 58 -174 c77 -234 88
-272 77 -265 -5 3 -43 65 -85 138 -42 73 -99 170 -127 217 -116 197 -116 185
-3 365 75 120 88 166 55 208 -23 29 -70 37 -87 15 -12 -16 -25 -98 -24 -151 1
-44 -16 -82 -51 -113 -33 -31 -61 -37 -94 -19 -16 8 -48 15 -71 15 -40 0 -41
-1 -40 -34 1 -41 -17 -66 -48 -66 -26 0 -35 -17 -35 -64 0 -37 -28 -82 -41
-69 -6 6 -7 18 -3 27 5 14 9 15 15 4 5 -8 9 11 9 48 0 63 11 81 43 68 7 -2 20
1 29 8 24 19 7 54 -30 61 -51 10 -50 62 1 69 17 2 22 10 22 33 0 23 -5 30 -25
35 -31 7 -37 47 -20 135 13 65 41 105 74 105 12 0 28 5 36 10 24 15 -12 44
-56 44 -29 0 -42 -7 -64 -33 -23 -29 -28 -31 -34 -16 -9 23 18 63 51 76 22 8
25 14 20 44 -7 44 4 51 31 20 33 -38 63 -31 82 19 13 34 -2 58 -22 38 -24 -24
-47 -13 -59 27 -14 47 1 96 31 106 38 12 42 29 30 127 -6 51 -17 99 -24 106
-11 12 -15 3 -25 -52 -6 -36 -16 -96 -22 -132 -15 -87 -29 -66 -29 44 0 144
-20 373 -42 477 -12 55 -24 118 -28 140 -4 22 -8 36 -9 30 -1 -5 -5 -4 -10 3
-5 9 -10 -3 -14 -35z m67 -293 c8 -69 18 -240 22 -382 l7 -256 -31 -16 -30
-15 -5 42 c-2 23 -5 227 -5 452 -1 370 0 405 13 355 7 -30 21 -111 29 -180z
m-39 -789 c-3 -12 -11 -21 -16 -21 -10 0 -12 43 -2 54 12 12 25 -11 18 -33z
m7 -678 c2 -121 2 -123 5 -31 l4 96 22 -21 c12 -12 32 -34 44 -48 l23 -25 -20
-90 c-11 -49 -34 -156 -51 -239 -17 -82 -33 -152 -35 -154 -2 -2 -4 134 -4
302 0 198 -4 307 -10 307 -5 0 -10 7 -10 15 0 8 7 15 15 15 12 0 15 -22 17
-127z"/>
<path d="M753 1863 c-29 -5 -53 -40 -53 -74 0 -25 2 -26 43 -22 36 4 48 1 74
-21 43 -36 50 -63 24 -87 -12 -11 -21 -32 -21 -49 0 -33 60 -154 96 -191 30
-32 30 -40 -2 -70 -64 -59 -68 -120 -9 -145 40 -16 54 -17 74 -5 13 8 13 15 1
50 -10 31 -10 47 -2 65 l11 24 70 -21 c68 -20 72 -20 89 -3 16 16 16 18 -2 32
-11 8 -27 14 -36 14 -25 0 -111 57 -148 98 -39 42 -71 106 -72 140 0 35 14 26
34 -23 23 -54 118 -148 178 -175 23 -10 44 -17 46 -15 11 10 -10 54 -28 60
-25 8 -104 85 -130 127 -11 18 -20 45 -20 59 0 15 -7 32 -15 39 -22 19 -18 48
11 77 22 22 32 25 70 20 41 -4 44 -3 44 20 0 36 -15 59 -49 73 -43 17 -102
-12 -116 -57 -11 -40 -20 -41 -37 -6 -23 46 -77 75 -125 66z"/>
<path d="M1435 1858 c-30 -17 -44 -40 -45 -70 0 -27 1 -27 44 -22 41 6 48 4
75 -24 36 -35 39 -57 11 -72 -12 -7 -20 -21 -20 -38 0 -49 -68 -135 -154 -195
-14 -10 -26 -27 -26 -37 0 -25 1 -25 59 4 62 32 145 117 168 173 21 49 33 55
33 16 0 -77 -113 -198 -213 -230 -58 -18 -69 -35 -36 -56 13 -8 35 -5 85 11
53 17 70 19 76 9 11 -17 10 -51 -2 -83 -9 -21 -8 -31 4 -42 21 -21 88 -1 105
32 17 30 8 55 -35 107 -30 36 -33 44 -22 59 105 142 132 225 89 262 -43 37 19
108 95 108 40 0 44 2 44 24 0 41 -33 71 -78 71 -47 0 -78 -23 -100 -75 l-15
-35 -17 40 c-9 22 -23 45 -31 51 -22 18 -72 25 -94 12z"/>
</g>
</svg>
