<?xml version="1.0" standalone="no"?>
<!DOCTYPE svg PUBLIC "-//W3C//DTD SVG 20010904//EN"
 "http://www.w3.org/TR/2001/REC-SVG-20010904/DTD/svg10.dtd">
<svg version="1.0" xmlns="http://www.w3.org/2000/svg"
 width="244.000000pt" height="305.000000pt" viewBox="0 0 244.000000 305.000000"
 preserveAspectRatio="xMidYMid meet">
<metadata>
Created by potrace 1.16, written by Peter Selinger 2001-2019
</metadata>
<g transform="translate(0.000000,305.000000) scale(0.100000,-0.100000)"
fill="#000000" stroke="none">
<path d="M887 2894 c-48 -155 -87 -468 -94 -746 l-6 -228 34 -14 c19 -8 43
-24 53 -35 19 -21 20 -21 40 -2 12 10 36 26 54 35 l32 17 0 142 c0 246 -20
453 -67 692 -28 143 -37 170 -46 139z m23 -73 c38 -143 91 -720 76 -824 -5
-32 -15 -49 -41 -70 -19 -15 -38 -27 -44 -27 -7 0 -10 165 -11 480 0 264 2
480 4 480 3 0 10 -18 16 -39z"/>
<path d="M1570 2884 c0 -11 -4 -24 -9 -29 -9 -10 -42 -183 -61 -315 -15 -108
-30 -356 -30 -497 0 -113 1 -122 20 -128 11 -4 34 -18 51 -32 25 -22 34 -24
48 -15 9 7 33 22 55 34 l38 23 -5 225 c-6 238 -26 430 -57 570 -22 94 -19 61
11 -134 26 -171 48 -628 30 -634 -6 -2 -25 -15 -40 -28 -16 -13 -34 -24 -40
-24 -14 0 -15 936 -1 945 10 6 8 40 -3 51 -4 4 -7 -2 -7 -12z"/>
<path d="M1252 2810 c0 -19 2 -27 5 -17 2 9 2 25 0 35 -3 9 -5 1 -5 -18z"/>
<path d="M1212 2676 c-1 -99 -9 -182 -22 -250 -20 -106 -40 -347 -40 -494 0
-110 -14 -98 -36 33 -18 107 -31 152 -41 142 -8 -9 -32 -144 -32 -187 -1 -29
4 -39 30 -54 40 -24 54 -60 39 -108 -11 -37 -40 -52 -55 -28 -12 19 -25 10
-25 -18 0 -57 65 -80 90 -31 14 26 34 24 27 -2 -8 -30 8 -66 32 -74 11 -3 26
-22 33 -41 15 -42 29 -43 48 -1 8 17 28 38 44 46 25 12 28 17 23 47 -7 43 4
50 31 19 33 -38 63 -31 82 19 13 34 -2 58 -22 38 -24 -24 -47 -13 -59 27 -14
47 1 96 31 106 38 12 42 29 30 127 -6 51 -17 99 -24 106 -11 12 -15 3 -24 -50
-6 -34 -16 -94 -23 -132 -15 -90 -29 -68 -29 48 0 50 -5 153 -11 230 -14 194
-72 470 -81 391 -1 -11 -5 39 -8 110 l-6 130 -2 -149z m73 -401 c10 -81 17
-225 18 -384 l2 -254 -24 -9 -24 -9 5 123 c3 68 3 113 1 101 -2 -13 -9 -23
-15 -23 -6 0 -8 11 -3 28 8 34 8 10 1 372 -5 278 -4 300 9 245 7 -33 21 -118
30 -190z m-38 -547 c-3 -7 -5 -2 -5 12 0 14 2 19 5 13 2 -7 2 -19 0 -25z m0
-115 c-3 -10 -5 -2 -5 17 0 19 2 27 5 18 2 -10 2 -26 0 -35z"/>
<path d="M753 1863 c-29 -5 -53 -40 -53 -74 0 -25 2 -26 43 -22 33 4 48 0 70
-17 42 -34 53 -68 27 -92 -11 -10 -20 -32 -20 -48 0 -33 60 -154 96 -191 13
-14 24 -29 24 -33 0 -5 -16 -26 -35 -47 -48 -53 -54 -84 -24 -115 27 -27 77
-39 99 -25 12 8 12 15 2 44 -16 45 -15 76 3 83 8 4 45 -2 81 -12 62 -16 66
-16 82 0 16 16 16 18 -2 32 -11 8 -27 14 -36 14 -25 0 -111 57 -148 98 -39 42
-71 106 -72 140 0 35 14 26 34 -23 23 -54 118 -148 178 -175 23 -10 44 -17 46
-15 11 10 -10 54 -28 60 -25 8 -104 85 -130 127 -11 18 -20 46 -20 61 0 15 -7
30 -15 33 -23 9 -18 52 11 81 22 22 32 25 70 20 41 -4 44 -3 44 20 0 36 -15
59 -49 73 -43 17 -102 -12 -116 -57 -11 -40 -20 -41 -37 -6 -23 46 -77 75
-125 66z"/>
<path d="M1435 1858 c-30 -17 -44 -40 -45 -70 0 -27 1 -27 44 -22 41 6 48 4
75 -24 36 -35 39 -57 11 -72 -13 -7 -20 -21 -20 -39 0 -46 -71 -136 -154 -194
-14 -10 -26 -27 -26 -37 0 -25 1 -25 59 4 62 32 145 117 168 173 21 49 33 55
33 16 0 -75 -108 -193 -210 -230 -56 -21 -68 -38 -39 -56 13 -8 35 -5 85 11
53 17 70 19 76 9 11 -17 10 -51 -2 -83 -22 -58 51 -72 100 -19 28 30 22 58
-25 115 l-35 42 44 61 c73 105 95 187 57 219 -43 37 19 108 95 108 40 0 44 2
44 24 0 41 -33 71 -78 71 -47 0 -78 -23 -100 -75 l-15 -35 -17 40 c-9 22 -23
45 -31 51 -22 18 -72 25 -94 12z"/>
<path d="M1085 1580 c-12 -4 -27 -15 -34 -24 -11 -14 -8 -16 28 -22 55 -9 76
-38 91 -124 15 -90 11 -113 -20 -120 -20 -5 -25 -12 -25 -35 0 -25 4 -31 28
-33 47 -6 34 -64 -17 -73 -10 -2 -24 -12 -30 -21 -15 -25 5 -42 57 -47 4 -1 7
-11 7 -23 0 -18 -2 -20 -9 -9 -5 8 -20 16 -32 18 -30 5 -39 19 -39 66 0 37 0
37 -40 37 -22 0 -56 -7 -76 -15 -45 -18 -73 -8 -111 41 -21 29 -28 49 -29 88
-2 67 -14 138 -27 154 -13 17 -62 15 -81 -4 -42 -42 -31 -91 51 -220 75 -119
85 -146 88 -234 1 -41 5 -87 9 -101 8 -30 13 -24 -173 -236 -68 -79 -126 -141
-129 -138 -3 2 2 15 10 27 8 13 68 117 133 233 116 207 117 210 112 261 -7 67
-37 134 -86 192 -50 61 -81 120 -81 156 0 16 14 52 30 82 l31 52 -23 16 c-13
9 -43 16 -70 16 -37 0 -50 -5 -62 -22 -21 -29 -20 -53 4 -123 11 -32 20 -78
20 -103 0 -37 -5 -49 -34 -76 -30 -27 -32 -34 -24 -59 6 -16 8 -30 7 -31 -11
-10 -353 -126 -362 -123 -5 1 48 38 119 81 145 87 257 156 263 162 2 2 -3 35
-12 73 -10 38 -17 84 -17 102 0 19 -5 41 -11 49 -8 11 -9 -12 -6 -83 l5 -98
-33 7 c-31 6 -40 0 -132 -82 -210 -188 -283 -257 -279 -261 5 -5 15 -2 294 88
178 57 192 63 192 86 0 37 25 38 94 4 51 -25 68 -39 87 -75 26 -50 19 -69 -29
-79 -30 -6 -35 -19 -143 -362 -17 -55 -40 -127 -50 -159 -10 -33 -19 -62 -19
-65 0 -3 17 12 38 34 44 48 337 370 364 401 18 20 18 24 4 59 -9 20 -13 41
-10 46 3 5 45 9 93 9 75 0 93 -3 121 -22 56 -39 59 -53 21 -92 l-33 -34 52
-254 c29 -139 59 -286 68 -326 8 -40 16 -71 18 -70 2 3 69 314 111 521 l26
128 -33 34 c-32 33 -33 34 -16 60 26 40 74 55 172 55 l86 0 -6 -27 c-20 -79
-25 -70 110 -218 212 -233 274 -297 274 -283 0 7 -32 114 -71 238 -39 124 -75
241 -81 260 -13 46 -32 66 -69 74 -32 6 -36 23 -15 64 20 39 55 68 109 92 55
25 77 21 77 -13 0 -27 -23 -18 293 -118 104 -33 191 -58 193 -56 4 4 -329 308
-368 335 -11 8 -30 11 -47 7 l-29 -6 5 93 c4 62 2 90 -5 83 -5 -5 -13 -54 -16
-107 l-7 -98 44 6 c44 6 45 6 133 -72 49 -43 111 -99 137 -124 27 -25 53 -46
58 -48 5 -2 9 -8 9 -13 0 -13 -20 -3 -194 96 -211 120 -202 114 -220 152 -21
43 -20 75 4 143 25 70 25 95 0 120 -36 36 -140 20 -140 -21 0 -8 11 -31 25
-51 43 -63 26 -140 -50 -223 -68 -73 -91 -157 -65 -232 9 -24 21 -33 58 -44
l47 -15 58 -174 c77 -234 88 -272 77 -265 -5 3 -43 65 -85 138 -42 73 -99 170
-127 217 -116 197 -116 185 -3 365 75 120 88 166 55 208 -23 29 -70 37 -87 15
-12 -16 -25 -98 -24 -151 1 -44 -16 -82 -51 -113 -33 -31 -61 -37 -94 -19 -16
8 -48 15 -70 15 -41 0 -41 0 -41 -39 0 -48 -8 -61 -36 -61 -31 0 -52 -28 -55
-75 -2 -22 -7 -44 -12 -49 -13 -13 -13 49 1 97 8 29 15 37 33 37 12 0 29 6 38
13 21 16 6 57 -20 57 -46 0 -56 60 -12 70 20 5 25 12 25 35 0 23 -5 30 -25 35
-22 5 -25 11 -26 55 -2 106 32 185 80 185 12 0 28 5 36 10 24 15 -12 44 -55
44 -40 0 -99 -49 -109 -90 -8 -29 -26 -32 -26 -3 0 47 -89 106 -135 89z m114
-590 c2 -34 14 -51 39 -53 19 -1 22 -7 23 -52 0 -31 3 -43 8 -32 6 16 12 12
43 -27 l36 -46 -30 -138 c-16 -75 -39 -184 -51 -242 l-22 -105 -3 305 -2 305
-28 25 c-36 32 -44 54 -35 99 6 34 7 35 14 11 4 -14 8 -36 8 -50z"/>
<path d="M1267 708 c-3 -18 -2 -58 3 -88 7 -53 7 -51 9 33 1 90 -3 110 -12 55z"/>
</g>
</svg>
