<?xml version="1.0" standalone="no"?>
<!DOCTYPE svg PUBLIC "-//W3C//DTD SVG 20010904//EN"
 "http://www.w3.org/TR/2001/REC-SVG-20010904/DTD/svg10.dtd">
<svg version="1.0" xmlns="http://www.w3.org/2000/svg"
 width="244.000000pt" height="305.000000pt" viewBox="0 0 244.000000 305.000000"
 preserveAspectRatio="xMidYMid meet">
<metadata>
Created by potrace 1.16, written by Peter Selinger 2001-2019
</metadata>
<g transform="translate(0.000000,305.000000) scale(0.100000,-0.100000)"
fill="#000000" stroke="none">
<path d="M890 2888 c0 -7 -3 -24 -6 -38 -4 -20 -3 -22 5 -10 8 11 11 -120 11
-462 0 -263 -3 -478 -7 -478 -5 0 -19 9 -33 20 -14 11 -31 20 -39 20 -12 0
-13 36 -8 223 6 215 19 361 52 556 17 103 15 132 -4 49 -28 -130 -52 -341 -61
-548 -14 -319 -15 -299 16 -311 15 -5 40 -21 56 -34 l30 -25 36 30 c21 16 44
35 52 42 13 11 14 46 8 253 -7 246 -22 380 -64 590 -13 66 -24 123 -24 127 0
5 -4 8 -10 8 -5 0 -10 -6 -10 -12z"/>
<path d="M1560 2888 c0 -7 -3 -24 -5 -38 -5 -22 -4 -22 4 -5 6 13 10 -131 12
-415 2 -419 0 -521 -6 -528 -2 -2 -22 9 -46 25 l-42 28 7 197 c7 227 19 355
46 519 11 64 20 124 20 134 0 86 -47 -192 -65 -382 -8 -87 -16 -233 -18 -326
-5 -163 -4 -168 17 -178 11 -6 35 -24 51 -40 l30 -29 58 43 c55 40 57 43 57
88 0 134 -23 472 -41 594 -23 162 -59 325 -71 325 -4 0 -8 -6 -8 -12z"/>
<path d="M1300 2794 c0 -38 -3 -141 -7 -228 l-6 -160 -18 70 c-35 140 -33 138
-53 59 -10 -39 -22 -86 -27 -105 -6 -19 -14 -64 -18 -100 -6 -47 -9 12 -11
215 l-3 280 -9 -210 c-4 -115 -7 -328 -6 -473 2 -144 0 -262 -4 -262 -4 0 -9
10 -12 23 -19 108 -37 191 -41 195 -10 11 -18 -10 -31 -80 -20 -113 -19 -126
16 -146 30 -17 37 -29 46 -76 6 -36 -12 -76 -35 -76 -11 0 -23 5 -26 10 -12
19 -25 10 -25 -18 0 -29 26 -62 49 -62 6 0 23 12 38 26 14 14 26 24 28 22 1
-2 0 -28 -2 -58 -5 -52 -7 -56 -31 -58 -15 -1 -35 -11 -45 -21 -19 -19 -19
-19 2 -26 23 -7 24 -10 12 -38 -6 -17 -11 -15 -45 20 -40 40 -66 88 -66 123 0
11 -7 23 -15 26 -23 9 -18 52 10 80 21 21 34 25 73 23 44 -3 47 -1 44 21 -10
93 -131 104 -163 15 -16 -43 -23 -44 -39 -5 -17 42 -47 60 -96 60 -34 0 -47
-5 -64 -27 -11 -15 -20 -36 -18 -47 3 -18 9 -21 46 -18 37 3 46 0 77 -31 37
-37 45 -71 20 -81 -18 -7 -20 -59 -3 -107 9 -29 56 -106 93 -155 7 -9 2 -21
-16 -41 -15 -15 -34 -40 -43 -55 -16 -24 -16 -29 -1 -58 21 -41 72 -61 104
-41 11 7 11 17 1 60 -17 72 -5 85 56 64 24 -8 44 -20 44 -26 0 -6 -3 -7 -7 -3
-4 4 -15 -19 -23 -51 -15 -53 -20 -60 -63 -82 -44 -23 -47 -23 -72 -7 -14 9
-39 35 -55 58 -23 32 -29 48 -25 72 3 17 -1 60 -8 96 -13 63 -15 65 -46 68
-87 9 -95 -85 -18 -205 129 -201 129 -194 -16 -444 -62 -107 -128 -220 -146
-252 -18 -32 -35 -56 -37 -54 -3 3 28 102 68 222 l73 218 45 17 c39 15 46 23
57 61 22 74 5 128 -70 220 -73 90 -84 151 -41 225 25 43 26 46 9 64 -13 15
-31 20 -65 20 -81 0 -98 -44 -59 -154 36 -103 15 -144 -115 -220 -145 -85
-275 -156 -287 -156 -5 0 17 24 49 53 33 28 99 87 146 131 l86 78 45 -7 46 -6
-7 88 c-11 131 -24 156 -21 41 l2 -98 -32 6 c-31 6 -43 -3 -223 -166 -105 -95
-189 -175 -186 -178 3 -2 114 31 246 74 223 72 240 79 240 101 0 36 25 38 88
7 93 -47 137 -138 72 -150 -16 -4 -34 -11 -39 -18 -5 -6 -37 -101 -71 -211
-34 -110 -73 -234 -86 -275 -13 -41 -24 -79 -24 -84 0 -6 24 17 52 49 29 33
122 135 206 228 115 127 152 173 146 185 -4 9 -9 32 -12 50 l-4 32 88 0 c135
-1 128 13 110 -238 -9 -115 -16 -224 -15 -243 l1 -34 8 35 c5 19 6 46 3 59 -4
17 -3 22 6 17 9 -6 11 1 7 26 -4 18 -2 56 3 83 8 48 9 48 10 13 0 -21 5 -38 9
-38 4 0 16 -39 25 -88 51 -253 80 -392 83 -390 1 2 24 109 49 238 26 129 50
238 54 243 4 4 17 -39 28 -95 17 -80 21 -92 20 -55 0 27 -5 51 -10 54 -4 3 -6
35 -3 72 4 49 3 58 -4 36 -7 -21 -8 0 -5 69 4 82 2 101 -11 110 -18 14 -32 96
-16 96 6 0 13 -8 15 -17 4 -14 5 -12 6 5 1 31 36 42 132 42 87 0 92 -5 69 -65
-6 -15 -7 -33 -3 -40 14 -25 398 -444 400 -437 2 4 -37 133 -86 287 l-89 280
-33 11 c-43 14 -49 47 -17 94 24 36 93 77 138 82 20 2 26 -2 28 -23 3 -25 16
-30 245 -106 133 -44 244 -78 247 -76 5 4 -8 17 -165 158 -54 50 -111 101
-125 115 -68 66 -93 82 -125 76 l-31 -6 3 97 c1 65 -1 90 -6 73 -5 -14 -10
-41 -10 -60 -1 -19 -8 -57 -16 -84 -8 -27 -15 -53 -15 -58 0 -4 39 -33 88 -64
48 -31 99 -65 114 -75 15 -10 30 -19 32 -19 3 0 32 -16 63 -36 32 -20 69 -43
81 -51 48 -30 11 -21 -154 38 -93 34 -177 63 -186 66 -21 6 -22 16 -7 45 10
18 7 24 -19 45 -44 34 -51 93 -23 179 25 77 26 102 5 132 -17 25 -75 30 -119
10 -31 -14 -32 -29 0 -76 45 -65 30 -136 -46 -227 -47 -56 -73 -108 -89 -178
-13 -59 -10 -68 128 -313 54 -99 107 -195 116 -214 l17 -35 -37 40 c-20 22
-90 103 -156 179 -115 134 -120 141 -114 175 3 20 7 70 9 112 3 83 18 122 96
239 68 103 79 188 26 212 -13 6 -34 8 -47 5 -20 -5 -25 -16 -36 -75 -7 -38
-10 -81 -7 -95 10 -38 -48 -116 -98 -132 -23 -8 -104 31 -110 53 -3 12 -5 10
-6 -5 -1 -32 -16 -29 -31 6 -14 35 -9 67 9 63 9 -2 11 3 6 15 -3 10 -7 22 -8
26 -3 13 76 38 87 27 11 -11 12 -54 2 -96 -7 -27 -5 -33 13 -39 13 -4 36 1 59
12 53 26 55 64 8 127 -20 25 -36 50 -36 56 0 5 13 24 29 42 66 76 102 198 67
227 -23 19 -20 45 11 75 29 30 61 41 98 34 60 -12 30 78 -32 96 -42 11 -83
-10 -108 -57 -21 -38 -35 -48 -35 -22 0 8 -13 29 -29 47 -51 57 -135 35 -143
-37 -3 -30 -3 -30 44 -27 40 3 51 0 73 -22 28 -28 32 -58 11 -75 -7 -6 -16
-27 -19 -46 -6 -36 -43 -94 -86 -132 -13 -13 -26 -23 -28 -23 -1 0 -3 14 -3
31 0 22 5 32 20 36 39 10 11 43 -41 47 -32 2 -32 3 -35 59 -1 31 0 57 3 57 3
0 14 -11 25 -25 11 -14 28 -25 38 -25 23 0 50 36 50 67 0 26 -3 27 -29 11 -41
-25 -70 18 -57 86 5 25 16 40 40 54 32 19 33 21 29 73 -5 73 -22 157 -33 164
-5 3 -13 -18 -18 -47 -5 -29 -15 -82 -22 -118 -14 -79 -27 -97 -28 -38 -1 24
-4 247 -7 497 -3 250 -7 457 -10 459 -3 3 -5 -26 -5 -64z m-81 -659 c-9 -471
-7 -424 -19 -405 -7 11 -10 4 -10 -27 0 -43 14 -59 23 -25 3 9 5 0 6 -20 1
-46 -24 -53 -40 -10 -13 32 -6 115 10 120 17 6 14 82 -4 88 -28 11 -9 404 31
643 3 18 7 31 8 30 2 -2 -1 -179 -5 -394z m18 -77 c-3 -8 -6 -5 -6 6 -1 11 2
17 5 13 3 -3 4 -12 1 -19z m-307 -488 c15 -32 50 -76 93 -116 38 -36 66 -68
63 -71 -23 -23 -137 71 -169 140 -22 45 -32 97 -20 97 5 0 20 -23 33 -50z
m650 33 c-1 -51 -66 -147 -131 -196 -94 -69 -94 -35 -1 50 44 40 77 81 92 113
24 51 40 64 40 33z m-299 -46 c-8 -8 -11 -4 -11 14 0 33 14 47 18 19 2 -12 -1
-27 -7 -33z m-81 23 c0 -11 -4 -20 -10 -20 -5 0 -10 9 -10 20 0 11 5 20 10 20
6 0 10 -9 10 -20z m-43 -116 c14 -52 14 -124 1 -124 -4 0 -8 20 -8 44 0 26 -6
51 -15 60 -18 18 -21 80 -3 74 7 -3 18 -27 25 -54z m80 19 c-3 -10 -5 -4 -5
12 0 17 2 24 5 18 2 -7 2 -21 0 -30z m99 -36 c-9 -7 -16 -32 -18 -62 -3 -38
-6 -46 -12 -31 -11 22 9 133 27 155 10 12 13 8 15 -18 2 -21 -2 -37 -12 -44z
m-219 -79 c-3 -8 -6 -5 -6 6 -1 11 2 17 5 13 3 -3 4 -12 1 -19z m260 -90 c-3
-8 -6 -5 -6 6 -1 11 2 17 5 13 3 -3 4 -12 1 -19z m-293 -72 c-3 -15 -8 -25
-11 -23 -2 3 -1 17 3 31 3 15 8 25 11 23 2 -3 1 -17 -3 -31z m97 -11 c14 9 11
-11 -5 -24 -15 -12 -26 4 -26 37 1 15 2 15 11 -1 6 -9 14 -15 20 -12z m156 -7
c-3 -7 -5 -2 -5 12 0 14 2 19 5 13 2 -7 2 -19 0 -25z m-200 -15 c-3 -10 -5 -4
-5 12 0 17 2 24 5 18 2 -7 2 -21 0 -30z m173 11 c0 -22 -2 -24 -15 -14 -11 9
-12 15 -2 25 16 19 17 19 17 -11z m-204 -58 c1 -7 5 -23 9 -35 5 -16 3 -20 -9
-15 -10 4 -16 19 -16 42 0 33 11 39 16 8z m274 -10 c0 -21 -6 -36 -15 -40 -12
-4 -14 0 -9 22 14 63 24 71 24 18z m-143 -198 c-3 -8 -6 -5 -6 6 -1 11 2 17 5
13 3 -3 4 -12 1 -19z m-88 -74 c-16 -20 -21 -12 -13 21 6 23 8 25 16 11 6 -11
6 -22 -3 -32z m68 -212 c1 -136 4 -267 7 -292 5 -42 4 -43 -4 -10 -6 19 -26
111 -45 203 -33 156 -35 172 -24 228 7 36 22 73 36 90 14 16 26 29 26 29 1 0
3 -111 4 -248z m-68 166 c-1 -7 -5 -24 -9 -38 -7 -22 -8 -21 -9 13 -1 20 4 37
9 37 6 0 10 -6 9 -12z"/>
<path d="M1195 1976 c-5 -54 -3 -90 4 -102 8 -15 10 5 11 84 0 56 -2 102 -4
102 -2 0 -7 -38 -11 -84z"/>
<path d="M1173 2580 c0 -25 2 -35 4 -22 2 12 2 32 0 45 -2 12 -4 2 -4 -23z"/>
<path d="M1323 2450 c0 -41 2 -58 4 -37 2 20 2 54 0 75 -2 20 -4 3 -4 -38z"/>
<path d="M1171 2474 c0 -11 3 -14 6 -6 3 7 2 16 -1 19 -3 4 -6 -2 -5 -13z"/>
<path d="M1411 1234 c0 -11 3 -14 6 -6 3 7 2 16 -1 19 -3 4 -6 -2 -5 -13z"/>
<path d="M1112 600 c0 -14 2 -19 5 -12 2 6 2 18 0 25 -3 6 -5 1 -5 -13z"/>
</g>
</svg>
