<?xml version="1.0" standalone="no"?>
<!DOCTYPE svg PUBLIC "-//W3C//DTD SVG 20010904//EN"
 "http://www.w3.org/TR/2001/REC-SVG-20010904/DTD/svg10.dtd">
<svg version="1.0" xmlns="http://www.w3.org/2000/svg"
 width="244.000000pt" height="305.000000pt" viewBox="0 0 244.000000 305.000000"
 preserveAspectRatio="xMidYMid meet">
<metadata>
Created by potrace 1.16, written by Peter Selinger 2001-2019
</metadata>
<g transform="translate(0.000000,305.000000) scale(0.100000,-0.100000)"
fill="#000000" stroke="none">
<path d="M1498 2898 c-4 -9 -5 -26 -3 -37 6 -33 8 -216 5 -601 -3 -320 -4
-346 -11 -210 -4 85 -10 271 -14 414 -4 142 -11 253 -15 246 -4 -7 -11 22 -15
64 -16 174 -20 99 -20 -375 0 -274 -3 -499 -6 -499 -18 0 -39 74 -39 133 0 46
-4 66 -14 70 -9 4 -17 -3 -21 -16 -7 -22 -7 -22 -14 3 -7 21 -9 18 -15 -25 -4
-27 -8 -57 -10 -65 -1 -8 -5 53 -10 135 -11 222 -49 485 -66 454 -16 -28 -50
-299 -57 -450 -7 -147 -8 -151 -16 -89 -9 64 -9 64 -22 35 l-13 -30 -1 28 c-1
16 -5 26 -11 22 -6 -4 -10 22 -10 72 0 182 -41 678 -58 709 -4 7 -5 -78 -4
-189 2 -111 1 -200 -1 -197 -10 9 -15 63 -16 155 -1 55 -5 85 -10 76 -6 -9
-13 17 -21 73 -8 48 -17 89 -22 92 -4 3 -8 -4 -8 -15 0 -10 -3 -27 -7 -37 -4
-12 -3 -15 5 -10 9 5 12 -107 12 -463 0 -259 -3 -471 -7 -471 -5 0 -21 12 -37
26 l-29 26 5 256 c3 142 2 235 -3 207 -4 -27 -8 -151 -8 -275 l-1 -225 31 -18
c42 -24 33 -43 -20 -39 -54 4 -81 -17 -81 -66 0 -30 3 -34 21 -29 29 8 63 -10
82 -43 21 -35 21 -56 1 -64 -14 -5 -15 -16 -10 -64 l7 -59 -30 5 c-33 5 -43
-6 -52 -63 l-6 -40 -2 42 c-1 49 -22 66 -74 61 -22 -2 -36 -11 -46 -30 -14
-24 -14 -33 2 -92 20 -75 22 -135 6 -170 -10 -22 -294 -236 -313 -236 -7 0 58
79 163 198 50 57 59 63 90 60 l34 -3 -2 77 c-1 42 -6 89 -12 105 -6 20 -8 2
-5 -64 l5 -92 -28 5 c-24 5 -33 -2 -76 -53 -27 -32 -56 -65 -64 -74 -9 -8 -36
-40 -61 -70 -25 -29 -62 -73 -84 -96 -25 -28 -33 -43 -23 -43 8 0 75 25 148
55 73 30 134 53 135 52 2 -2 -12 -26 -31 -55 -19 -28 -35 -56 -35 -61 0 -6 24
3 53 19 28 15 88 48 132 73 44 24 85 42 92 40 12 -5 23 -36 23 -70 0 -14 -9
-24 -28 -31 -27 -9 -30 -17 -99 -291 -38 -154 -67 -281 -63 -281 4 0 42 49 84
109 81 115 114 152 103 116 -3 -11 -13 -60 -22 -110 -8 -49 -18 -101 -21 -115
-9 -41 9 -14 79 120 155 297 157 303 155 356 -3 48 -3 49 29 52 25 3 40 -4 70
-32 29 -26 36 -38 28 -49 -53 -75 -53 -37 -1 -365 63 -394 59 -381 80 -242 10
63 33 207 52 319 19 112 34 209 34 216 0 7 -11 24 -25 39 -33 36 -32 48 11 86
27 23 44 30 67 28 32 -3 32 -4 32 -58 0 -51 9 -72 109 -263 59 -114 110 -207
111 -205 2 2 -5 48 -15 103 -27 140 -26 148 10 104 33 -40 110 -148 142 -197
39 -62 37 -51 -53 313 -62 248 -56 232 -89 244 -34 11 -37 26 -15 77 l15 36
42 -25 c81 -47 195 -107 202 -107 3 0 -10 25 -29 56 -35 54 -40 78 -13 57 16
-12 319 -136 323 -131 1 2 -66 82 -150 178 -138 159 -155 175 -183 174 l-31
-2 6 89 c7 112 -11 122 -21 12 -4 -43 -9 -94 -12 -113 -6 -40 -19 -28 191
-188 79 -60 126 -102 113 -102 -14 0 -274 123 -280 133 -5 7 -7 23 -6 37 1 15
-6 34 -19 47 -30 30 -37 88 -19 167 19 80 20 138 4 154 -16 16 -80 16 -96 0
-18 -18 -15 -42 9 -83 25 -42 22 -116 -5 -143 -22 -22 -27 -12 -18 39 9 50 -5
129 -19 107 -6 -9 -9 -5 -9 14 0 49 -17 78 -45 78 -25 0 -26 1 -19 50 5 41 3
54 -11 70 -15 17 -16 24 -5 49 18 45 44 63 82 59 37 -3 45 12 29 55 -15 38
-53 54 -88 36 -16 -7 -31 -15 -35 -17 -5 -2 -8 5 -8 16 0 12 14 32 31 45 l32
25 -2 193 c-2 230 -14 405 -42 589 -26 178 -33 210 -41 188z m-268 -848 l0
-441 -21 20 c-22 20 -22 23 -15 293 6 251 24 568 32 568 2 0 4 -198 4 -440z
m-148 -182 c-18 -18 -33 0 -20 22 11 17 14 18 21 4 6 -10 5 -20 -1 -26z m-59
7 c4 -8 3 -16 -1 -19 -13 -8 -35 11 -28 23 10 15 23 14 29 -4z m387 6 c0 -14
-18 -23 -30 -16 -6 4 -8 11 -5 16 8 12 35 12 35 0z m65 -9 c0 -18 -20 -15 -23
4 -3 10 1 15 10 12 7 -3 13 -10 13 -16z m-351 -136 c-13 -10 -23 -11 -31 -4
-19 16 -16 26 10 30 32 6 45 -9 21 -26z m259 17 c4 -3 2 -12 -4 -19 -12 -15
-49 -2 -49 16 0 11 43 14 53 3z m83 -70 c-11 -11 -19 6 -11 24 8 17 8 17 12 0
3 -10 2 -21 -1 -24z m-446 6 c0 -5 -4 -9 -10 -9 -5 0 -10 7 -10 16 0 8 5 12
10 9 6 -3 10 -10 10 -16z m60 -12 c0 -5 -4 -5 -10 -2 -5 3 -10 14 -10 23 0 15
2 15 10 2 5 -8 10 -19 10 -23z m310 -38 c-12 -61 -24 -79 -42 -61 -32 32 -80
-2 -99 -70 l-11 -43 -19 49 c-27 72 -40 82 -86 68 -20 -6 -39 -10 -41 -8 -2 3
-6 22 -9 43 l-5 39 41 0 c32 -1 41 -5 41 -18 0 -10 9 -22 21 -28 11 -7 27 -27
35 -46 14 -34 34 -38 34 -8 0 8 11 26 24 39 14 13 26 32 28 42 2 12 13 17 38
17 26 1 37 7 45 23 14 34 16 22 5 -38z m-410 -32 c0 -7 11 -42 25 -77 31 -80
28 -98 -7 -34 -30 56 -46 124 -29 124 6 0 11 -6 11 -13z m445 -26 c-4 -17 -10
-33 -14 -36 -5 -2 -3 13 2 35 13 46 22 46 12 1z m85 26 c0 -38 -64 -176 -76
-164 -3 2 9 38 26 80 16 41 30 80 30 86 0 6 5 11 10 11 6 0 10 -6 10 -13z
m-456 -32 c5 -22 4 -26 -4 -15 -5 8 -10 24 -10 34 0 26 6 18 14 -19z m98 -57
c9 -7 19 -29 23 -48 7 -32 6 -33 -9 -21 -16 13 -46 63 -46 76 0 9 15 6 32 -7z
m198 -1 c0 -7 -14 -28 -31 -47 l-30 -35 6 30 c10 45 55 88 55 52z m-396 -43
c3 -9 -1 -25 -9 -37 -8 -12 -15 -44 -16 -72 0 -37 -3 -45 -9 -30 -12 29 -12
87 1 124 12 34 24 40 33 15z m594 -27 c15 -43 15 -70 -2 -132 l-14 -50 1 76
c1 51 -3 82 -12 93 -13 16 -9 46 7 46 4 0 13 -15 20 -33z m-731 -84 c2 -54 -1
-73 -8 -66 -22 22 -23 143 -1 143 4 0 8 -35 9 -77z m328 27 c3 -5 15 -10 26
-10 10 0 19 -7 19 -15 0 -8 -4 -15 -9 -15 -15 0 -68 49 -54 50 6 0 15 -4 18
-10z m195 -5 c0 -2 -13 -11 -30 -20 -26 -13 -30 -13 -30 -1 0 13 16 22 48 25
6 0 12 -1 12 -4z m-214 -80 c29 -12 34 -18 25 -32 -11 -21 3 -53 23 -53 13 0
26 -20 26 -40 0 -5 -10 -14 -21 -21 -17 -9 -23 -8 -30 2 -7 13 -62 17 -98 8
-8 -2 -17 4 -19 14 -3 15 2 17 25 15 l28 -3 -3 63 c-1 34 0 62 3 62 3 0 22 -7
41 -15z m253 -48 c-9 -51 -6 -57 32 -57 20 0 29 -4 26 -12 -2 -8 -23 -13 -54
-13 -27 0 -57 -6 -65 -13 -13 -10 -19 -10 -32 3 -22 23 -20 31 15 56 24 17 29
27 25 45 -5 18 0 26 21 38 35 18 42 7 32 -47z m-440 21 c0 -27 -2 -29 -8 -13
-5 11 -6 26 -4 33 8 21 13 13 12 -20z m-89 -19 c0 -11 -4 -17 -10 -14 -5 3
-10 15 -10 26 0 11 5 17 10 14 6 -3 10 -15 10 -26z m767 -31 c-3 -8 -6 -5 -6
6 -1 11 2 17 5 13 3 -3 4 -12 1 -19z m-637 -43 c7 -9 8 -15 2 -15 -5 0 -12 7
-16 15 -3 8 -4 15 -2 15 2 0 9 -7 16 -15z m512 -7 c-7 -7 -12 -8 -12 -2 0 14
12 26 19 19 2 -3 -1 -11 -7 -17z m-737 -28 c6 -10 -133 -156 -140 -148 -9 9
48 80 71 88 16 6 24 17 24 33 0 13 3 27 7 30 10 10 31 8 38 -3z m820 -27 c-5
-10 -13 -49 -19 -86 -12 -72 -26 -80 -26 -16 0 43 27 119 42 119 6 0 7 -7 3
-17z m200 -50 c35 -38 62 -69 61 -71 -5 -4 -155 89 -162 100 -6 9 20 38 34 38
3 0 33 -30 67 -67z m-846 16 c15 -44 14 -85 -3 -112 -8 -12 -22 -43 -30 -68
-9 -25 -47 -111 -84 -190 -38 -79 -74 -159 -81 -177 -31 -76 -20 -9 30 187
l54 209 32 11 c43 16 56 43 57 113 1 65 9 73 25 27z m270 -31 c0 -16 -2 -18
-6 -8 -3 8 -11 18 -17 22 -7 5 -4 8 7 8 11 0 17 -7 16 -22z m17 -74 c12 -46
26 -48 41 -4 10 31 12 32 12 10 1 -14 -7 -37 -16 -50 -16 -22 -19 -60 -23
-315 l-5 -290 -28 226 -28 227 28 50 c27 48 27 51 14 103 -8 30 -16 60 -18 67
-3 6 -1 12 4 12 5 0 14 -16 19 -36z m459 -289 c47 -104 84 -193 82 -198 -1 -5
-39 46 -84 114 -78 119 -82 128 -102 228 -33 165 -37 171 104 -144z m-675 241
c0 -2 -3 -11 -6 -20 -9 -23 -24 -20 -24 4 0 11 7 20 15 20 8 0 15 -2 15 -4z
m480 -15 c5 -11 10 -35 10 -53 0 -19 7 -43 15 -55 15 -21 117 -313 109 -313
-2 0 -43 77 -89 172 -82 164 -95 209 -79 252 8 21 21 20 34 -3z m-323 -173
c-3 -7 -5 -2 -5 12 0 14 2 19 5 13 2 -7 2 -19 0 -25z m-267 -133 c-47 -135
-60 -159 -40 -72 5 23 14 68 20 100 7 34 22 69 37 88 14 16 27 29 28 27 2 -2
-19 -66 -45 -143z"/>
<path d="M1022 2800 c0 -14 2 -19 5 -12 2 6 2 18 0 25 -3 6 -5 1 -5 -13z"/>
<path d="M1412 2800 c0 -14 2 -19 5 -12 2 6 2 18 0 25 -3 6 -5 1 -5 -13z"/>
<path d="M930 2690 c-7 -56 -10 -103 -8 -106 3 -2 11 41 18 96 7 55 11 102 8
105 -3 3 -11 -40 -18 -95z"/>
<path d="M1472 2755 c0 -16 2 -22 5 -12 2 9 2 23 0 30 -3 6 -5 -1 -5 -18z"/>
<path d="M1402 2730 c0 -14 2 -19 5 -12 2 6 2 18 0 25 -3 6 -5 1 -5 -13z"/>
<path d="M1393 2585 c0 -22 2 -30 4 -17 2 12 2 30 0 40 -3 9 -5 -1 -4 -23z"/>
<path d="M913 2520 c0 -30 2 -43 4 -27 2 15 2 39 0 55 -2 15 -4 2 -4 -28z"/>
<path d="M1383 2455 c0 -33 2 -45 4 -27 2 18 2 45 0 60 -2 15 -4 0 -4 -33z"/>
<path d="M1374 2235 c0 -66 1 -92 3 -57 2 34 2 88 0 120 -2 31 -3 3 -3 -63z"/>
</g>
</svg>
