<?xml version="1.0" standalone="no"?>
<!DOCTYPE svg PUBLIC "-//W3C//DTD SVG 20010904//EN"
 "http://www.w3.org/TR/2001/REC-SVG-20010904/DTD/svg10.dtd">
<svg version="1.0" xmlns="http://www.w3.org/2000/svg"
 width="244.000000pt" height="305.000000pt" viewBox="0 0 244.000000 305.000000"
 preserveAspectRatio="xMidYMid meet">
<metadata>
Created by potrace 1.16, written by Peter Selinger 2001-2019
</metadata>
<g transform="translate(0.000000,305.000000) scale(0.100000,-0.100000)"
fill="#000000" stroke="none">
<path d="M997 2907 c-10 -25 -44 -297 -56 -442 -6 -66 -11 -215 -13 -331 l-3
-212 39 -36 40 -36 38 38 38 37 0 110 c0 264 -35 702 -68 855 -6 28 -9 31 -15
17z m28 -204 c3 -43 8 -94 11 -113 10 -93 24 -370 24 -495 0 -145 -1 -150 -45
-177 -6 -4 -10 156 -11 433 -1 416 5 525 21 352z"/>
<path d="M1463 2895 c-31 -60 -73 -530 -73 -824 l0 -145 40 -38 41 -37 39 39
40 40 0 138 c-1 281 -43 770 -62 726 -5 -13 -7 -7 -3 16 2 19 1 51 -3 70 -7
32 -9 33 -19 15z m22 -135 c3 -5 1 -10 -4 -10 -6 0 -11 5 -11 10 0 6 2 10 4
10 3 0 8 -4 11 -10z m11 -159 c6 -80 10 -98 15 -71 5 26 6 23 3 -15 -2 -27 0
-160 4 -295 7 -231 7 -238 12 -120 l6 125 2 -119 c2 -114 1 -121 -24 -153 -14
-18 -29 -33 -35 -33 -5 0 -9 157 -9 408 0 401 9 497 26 273z m11 27 c-3 -8 -6
-5 -6 6 -1 11 2 17 5 13 3 -3 4 -12 1 -19z m20 -260 c-2 -18 -4 -6 -4 27 0 33
2 48 4 33 2 -15 2 -42 0 -60z"/>
<path d="M1221 2554 c-16 -74 -40 -329 -48 -509 l-7 -160 -13 104 c-7 58 -15
112 -19 120 -10 25 -23 -31 -31 -132 -6 -87 -6 -89 21 -114 24 -22 27 -31 24
-76 -3 -50 -4 -52 -30 -50 -25 2 -28 -1 -28 -32 0 -60 45 -81 68 -32 9 20 11
17 11 -18 1 -28 7 -44 20 -52 11 -7 25 -29 32 -50 l12 -38 18 43 c10 23 25 45
34 48 10 4 15 20 15 47 0 40 0 41 16 19 31 -44 63 -21 64 46 0 19 -5 22 -27
20 -27 -3 -28 -1 -31 43 -2 38 2 52 24 78 26 32 27 35 21 127 -7 97 -20 144
-32 113 -3 -8 -12 -62 -19 -120 -12 -96 -14 -99 -15 -44 -6 264 -39 615 -61
654 -5 10 -11 -2 -19 -35z m48 -335 c6 -83 11 -246 11 -363 0 -199 -1 -213
-20 -229 -20 -17 -20 -16 -19 426 2 446 7 476 28 166z"/>
<path d="M887 1855 c-18 -17 -31 -70 -22 -85 3 -5 19 -10 35 -10 19 0 35 -9
49 -26 23 -29 28 -74 10 -74 -24 0 -3 -126 33 -203 l35 -73 -23 -45 c-41 -76
-23 -154 34 -147 27 3 27 4 23 72 -3 64 -2 68 15 61 11 -4 33 -13 51 -19 28
-9 31 -14 26 -39 -5 -23 -1 -33 21 -51 31 -24 28 -47 -9 -64 -19 -9 -24 -8
-28 9 -7 25 -47 25 -80 -1 l-25 -20 -31 35 c-32 36 -33 41 -36 110 -4 82 -18
165 -29 166 -46 5 -66 -19 -66 -80 1 -50 8 -71 66 -200 35 -81 37 -91 41 -207
l3 -122 -80 -133 c-44 -73 -80 -128 -80 -122 0 6 17 55 39 109 21 55 52 135
70 180 48 124 40 207 -34 356 -49 99 -59 168 -30 218 30 53 11 93 -46 93 -35
0 -37 -2 -54 -50 -8 -21 -14 -32 -15 -25 0 7 -5 10 -11 6 -8 -5 -10 -33 -6
-91 5 -73 4 -84 -9 -79 -23 9 -71 -45 -224 -254 -19 -27 -45 -62 -58 -79 -37
-49 -21 -44 216 70 107 52 122 63 122 84 0 28 10 31 42 13 76 -44 101 -120 51
-156 -23 -17 -30 -35 -50 -133 -13 -63 -28 -134 -33 -159 -24 -106 -56 -266
-55 -277 0 -21 17 -20 29 2 6 11 34 56 62 100 60 95 129 207 166 273 24 41 27
54 22 100 l-6 52 48 0 c56 0 108 -27 119 -60 5 -16 0 -32 -16 -53 l-22 -30 42
-301 c46 -326 52 -359 57 -353 5 4 57 350 81 534 l15 121 -22 32 c-20 28 -21
34 -9 57 18 34 59 53 114 53 l47 0 -7 -48 c-7 -54 -1 -66 130 -277 105 -169
119 -191 127 -190 4 0 14 -9 23 -20 15 -19 16 -18 10 15 -4 19 -31 148 -61
285 -55 248 -64 273 -106 287 -23 8 2 78 43 119 46 46 56 48 65 13 6 -22 31
-37 153 -96 80 -39 155 -72 166 -73 11 -2 31 -7 44 -11 20 -6 16 3 -29 62
-164 213 -232 293 -253 296 -21 3 -22 7 -19 79 2 42 0 79 -5 82 -5 3 -10 -29
-12 -71 -1 -42 -7 -81 -12 -87 -7 -7 -8 24 -3 90 6 89 4 102 -12 122 -20 23
-30 26 -77 24 -39 -1 -54 -38 -33 -79 l16 -30 -32 15 c-40 20 -62 8 -66 -38
-8 -104 -17 -114 -52 -57 -18 30 -18 30 15 92 18 34 38 88 46 120 11 52 11 61
-5 91 -16 30 -17 35 -2 63 20 38 34 47 69 43 27 -3 28 -1 25 40 -2 34 -8 46
-29 58 -36 20 -74 8 -89 -29 -13 -31 -30 -40 -30 -17 0 20 -44 57 -68 57 -28
0 -52 -36 -52 -78 0 -29 3 -33 23 -32 40 4 46 0 62 -31 15 -28 15 -33 1 -54
-9 -14 -16 -37 -16 -53 0 -39 -32 -102 -75 -148 -41 -43 -58 -94 -31 -94 26 0
93 77 127 146 18 35 33 64 35 64 8 0 -22 -82 -47 -126 -31 -56 -46 -70 -101
-102 l-38 -21 0 47 c0 81 17 122 56 138 39 17 42 24 14 49 -34 31 -71 10 -96
-54 l-22 -53 -17 52 c-21 63 -51 82 -90 56 -33 -21 -32 -35 4 -47 36 -13 52
-47 59 -127 l5 -63 -30 18 c-53 32 -89 68 -116 114 -22 38 -51 119 -43 119 2
0 18 -29 36 -64 33 -66 103 -146 127 -146 25 0 13 38 -27 86 -49 60 -80 121
-80 159 0 16 -8 37 -17 47 -15 17 -15 21 0 53 14 30 22 35 52 35 33 0 35 2 35
35 0 39 -28 75 -59 75 -23 0 -61 -45 -61 -72 0 -26 -16 -14 -25 19 -12 48 -67
70 -98 38z m-98 -555 c0 -40 -1 -42 -10 -20 -6 14 -12 59 -15 100 l-4 75 15
-55 c8 -30 14 -75 14 -100z m498 8 c-3 -8 -6 -5 -6 6 -1 11 2 17 5 13 3 -3 4
-12 1 -19z m122 -45 c-4 -65 -3 -68 19 -71 13 -2 32 4 42 13 18 16 18 16 13
-3 -3 -12 -13 -28 -24 -38 -17 -15 -21 -15 -53 0 -45 21 -67 20 -73 -4 -5 -18
-7 -18 -34 -4 -37 19 -38 51 -3 64 23 9 26 15 21 45 -5 28 -3 35 11 35 9 0 26
7 36 15 40 30 48 20 45 -52z m388 -43 c12 -19 32 -48 46 -65 13 -16 30 -41 37
-54 12 -23 9 -22 -31 9 -146 113 -184 167 -107 151 22 -5 40 -18 55 -41z
m-1035 -8 c-15 -15 -19 -29 -15 -54 l4 -34 -100 -51 c-55 -28 -97 -45 -93 -38
4 6 33 36 65 66 32 30 79 73 104 97 44 42 75 54 35 14z m1148 -91 c115 -148
119 -172 8 -44 -15 17 -33 44 -42 60 -8 16 -22 36 -31 43 -20 16 -39 50 -28
50 4 -1 46 -50 93 -109z m-349 -169 c34 -22 38 -29 54 -110 9 -48 23 -113 31
-146 14 -55 12 -91 -2 -50 -4 10 -38 92 -76 182 -67 159 -79 213 -60 259 4 12
9 -5 12 -47 5 -62 7 -66 41 -88z m-357 74 c4 -30 13 -62 21 -72 13 -18 14 -17
25 10 6 16 14 49 17 73 3 24 9 43 13 43 11 0 1 -78 -16 -123 -20 -54 -18 -75
15 -126 l30 -46 -34 -225 -33 -225 -1 285 c-2 284 -2 285 -26 325 -16 26 -25
55 -25 82 0 24 -5 43 -12 46 -8 4 -7 6 3 6 13 1 18 -12 23 -53z m453 -298 c-3
-8 -6 -5 -6 6 -1 11 2 17 5 13 3 -3 4 -12 1 -19z m46 -183 l6 -40 -14 40 c-7
22 -13 51 -13 65 l0 25 7 -25 c4 -14 11 -43 14 -65z"/>
</g>
</svg>
