<?xml version="1.0" standalone="no"?>
<!DOCTYPE svg PUBLIC "-//W3C//DTD SVG 20010904//EN"
 "http://www.w3.org/TR/2001/REC-SVG-20010904/DTD/svg10.dtd">
<svg version="1.0" xmlns="http://www.w3.org/2000/svg"
 width="244.000000pt" height="305.000000pt" viewBox="0 0 244.000000 305.000000"
 preserveAspectRatio="xMidYMid meet">
<metadata>
Created by potrace 1.16, written by Peter Selinger 2001-2019
</metadata>
<g transform="translate(0.000000,305.000000) scale(0.100000,-0.100000)"
fill="#000000" stroke="none">
<path d="M950 2905 c0 -5 0 -234 0 -509 l1 -498 -40 31 c-36 29 -40 37 -44 84
-3 44 -4 41 -5 -20 -1 -40 2 -73 7 -73 5 0 23 -12 41 -26 24 -21 28 -29 19
-40 -9 -11 -14 -11 -32 1 -47 33 -107 2 -107 -55 0 -28 2 -30 39 -30 32 0 43
-6 65 -34 30 -40 32 -58 10 -77 -13 -11 -15 -24 -10 -66 l6 -53 -30 0 c-34 0
-50 -22 -50 -70 0 -18 -4 -29 -10 -25 -5 3 -10 22 -10 40 0 41 -24 58 -78 53
-27 -2 -40 -10 -51 -30 -14 -24 -13 -33 7 -102 19 -65 20 -82 11 -125 -10 -50
-13 -52 -122 -130 -143 -100 -230 -156 -226 -143 2 6 38 46 79 89 41 43 94
100 117 127 40 46 44 48 82 41 l40 -7 -6 79 c-9 135 -21 161 -22 50 -1 -93 -2
-98 -21 -92 -26 8 -41 -3 -147 -120 -50 -55 -118 -129 -151 -165 -33 -36 -57
-66 -54 -67 4 -2 80 26 170 61 89 35 162 61 162 57 0 -3 -14 -26 -30 -51 -16
-25 -26 -46 -21 -48 5 -2 28 8 52 21 169 92 198 107 207 107 9 0 42 -70 42
-91 0 -5 -14 -15 -31 -21 -17 -6 -34 -21 -40 -35 -5 -13 -38 -137 -74 -274
-37 -138 -69 -257 -72 -265 -15 -39 21 -1 106 112 51 69 95 123 98 120 3 -2
-5 -53 -17 -111 -11 -59 -19 -109 -17 -112 4 -3 47 63 47 72 0 2 32 62 72 132
136 242 127 222 121 275 -6 46 -5 48 19 48 41 0 86 -20 102 -45 22 -33 20 -45
-9 -75 l-25 -26 44 -260 c64 -374 69 -400 73 -387 2 6 28 155 58 330 l54 318
-26 27 c-46 48 -10 104 75 115 48 6 56 -4 43 -54 -10 -36 -7 -43 81 -203 50
-91 107 -193 126 -228 19 -35 36 -61 39 -59 2 3 -6 55 -17 117 -12 61 -20 114
-17 116 2 3 42 -45 87 -106 46 -60 85 -109 87 -107 4 4 -35 167 -87 362 -17
66 -36 137 -41 158 -8 29 -17 41 -40 49 -32 11 -38 38 -17 83 14 31 26 31 80
1 132 -73 238 -124 238 -116 0 6 -16 32 -36 60 -20 27 -32 50 -27 50 5 0 71
-25 148 -55 76 -30 140 -53 141 -52 4 3 -38 51 -183 210 -116 126 -129 137
-154 132 l-28 -6 6 93 c6 100 -7 114 -18 20 -4 -31 -10 -79 -14 -107 l-7 -50
87 -65 c49 -36 118 -87 154 -113 90 -66 93 -70 31 -48 -148 52 -240 113 -240
161 0 10 -8 25 -18 32 -46 33 -51 75 -22 180 25 90 25 99 0 126 -24 26 -59 28
-100 7 -25 -13 -29 -13 -34 0 -7 20 -60 19 -76 0 -10 -12 -10 -24 -1 -54 14
-47 15 -94 1 -86 -5 3 -10 13 -10 22 0 9 -8 25 -17 35 -16 18 -15 21 3 61 23
46 32 141 15 152 -21 12 -11 56 19 86 23 24 37 30 62 27 31 -3 33 -1 31 26 -3
48 -31 69 -80 62 -57 -7 -66 10 -23 45 l33 28 -6 238 c-8 289 -24 453 -69 677
-9 45 -13 55 -19 40 -4 -10 -8 -28 -8 -39 -1 -17 1 -17 9 -5 6 10 9 -104 8
-330 -1 -197 -4 -313 -8 -270 -5 54 -7 26 -7 -103 0 -147 -3 -181 -16 -194
-32 -33 -37 -6 -37 215 0 216 18 470 30 422 3 -14 6 24 6 83 0 122 -10 115
-19 -12 -4 -47 -11 -89 -17 -95 -7 -7 -9 36 -6 141 3 83 6 155 7 159 1 5 1 20
0 33 -5 112 -48 -255 -62 -541 -7 -137 -17 -248 -21 -248 -5 0 -13 -10 -18
-22 l-9 -23 0 23 c-1 38 -21 24 -22 -15 -1 -21 -4 -49 -8 -63 -4 -14 -10 48
-14 145 -8 221 -48 480 -67 444 -19 -35 -52 -277 -57 -416 -3 -84 -10 -153
-15 -153 -4 0 -8 18 -8 40 0 41 -19 58 -21 18 -1 -21 -2 -20 -11 5 -5 15 -14
27 -18 27 -5 0 -11 44 -13 98 -2 63 -4 38 -5 -73 -2 -150 -4 -174 -22 -202
-11 -18 -21 -33 -22 -33 -2 0 -3 71 -3 157 0 87 -4 287 -8 445 -6 207 -5 292
3 307 7 13 8 36 3 59 -7 34 -9 28 -23 -63 l-17 -100 -7 50 c-9 59 -34 164 -36
150z m570 -995 c0 -5 -4 -10 -10 -10 -5 0 -10 5 -10 10 0 6 5 10 10 10 6 0 10
-4 10 -10z m-430 -41 c0 -5 -9 -9 -20 -9 -19 0 -27 20 -13 33 7 8 33 -11 33
-24z m334 15 c9 -23 8 -24 -14 -24 -19 0 -27 20 -13 33 11 11 20 8 27 -9z
m-419 -4 c3 -6 -1 -13 -10 -16 -19 -8 -30 0 -20 15 8 14 22 14 30 1z m477 -22
c-15 -15 -26 -4 -18 18 5 13 9 15 18 6 9 -9 9 -15 0 -24z m-79 -105 c5 -3 0
-11 -9 -18 -20 -14 -54 0 -54 23 0 11 39 8 63 -5z m-273 -1 c0 -4 -9 -13 -19
-19 -15 -10 -22 -9 -30 1 -6 7 -8 16 -4 19 9 10 53 9 53 -1z m282 -80 c-6 -15
-13 -44 -17 -65 -5 -32 -9 -37 -26 -33 -10 4 -28 8 -39 12 -32 9 -58 -13 -78
-68 l-20 -53 -11 40 c-19 73 -46 90 -112 72 -22 -6 -28 -3 -33 16 -3 12 -6 34
-6 50 0 15 -4 27 -10 27 -5 0 -10 10 -10 23 0 20 2 19 20 -10 17 -28 24 -32
55 -29 30 2 35 -1 35 -20 0 -13 8 -24 20 -27 12 -3 28 -23 38 -48 l19 -44 12
38 c7 21 24 45 37 54 13 8 24 23 24 33 0 13 6 17 20 13 41 -11 67 5 76 44 4
25 9 31 12 20 2 -10 -1 -31 -6 -45z m-412 21 c0 -19 -3 -24 -10 -17 -6 6 -8
18 -4 27 9 24 14 21 14 -10z m-14 -150 c16 -43 31 -82 33 -87 2 -5 -2 -6 -8
-2 -16 10 -57 94 -66 134 -13 60 12 33 41 -45z m59 32 c4 -21 3 -25 -3 -15
-15 24 -26 67 -14 55 6 -5 13 -23 17 -40z m455 -47 c-11 -26 -25 -50 -30 -53
-13 -8 -13 -9 10 60 31 90 33 94 37 65 2 -14 -5 -47 -17 -72z m-348 -15 c19
-22 32 -73 19 -73 -11 0 -61 69 -61 82 0 14 27 8 42 -9z m208 10 c0 -5 -9 -23
-20 -40 -22 -36 -51 -45 -43 -14 9 34 63 80 63 54z m-435 -95 c-14 -24 -16
-43 -11 -101 7 -86 -9 -61 -19 30 -5 44 -3 69 10 98 15 36 17 38 27 21 8 -14
7 -26 -7 -48z m747 -10 c-9 -9 -12 -4 -11 23 0 32 1 33 11 11 8 -17 8 -26 0
-34z m-880 -118 c-2 -3 -10 4 -18 14 -17 24 -18 100 -1 129 10 19 13 12 17
-58 3 -44 4 -82 2 -85z m898 20 c-10 -23 -10 -22 -5 9 3 18 6 50 7 70 1 32 2
31 5 -9 2 -25 -1 -57 -7 -70z m-340 70 c0 -5 -13 -16 -30 -25 -34 -18 -40 -18
-40 -5 0 8 38 29 68 39 1 1 2 -3 2 -9z m-166 -21 c5 -5 7 -11 4 -15 -7 -6 -68
23 -68 32 0 8 53 -5 64 -17z m477 -112 c-13 -13 -15 15 -3 53 7 24 7 23 10 -9
2 -18 -1 -38 -7 -44z m-520 43 c18 0 20 -3 11 -12 -21 -21 -14 -58 13 -68 15
-6 25 -17 25 -29 0 -24 -36 -48 -43 -28 -2 8 -23 11 -65 9 -50 -2 -62 1 -62
13 0 11 8 15 28 13 26 -3 27 -2 28 52 0 72 1 72 23 60 11 -5 30 -10 42 -10z
m254 -49 c0 -54 1 -56 27 -56 14 0 30 -4 34 -8 16 -15 -17 -24 -55 -14 -29 8
-44 7 -68 -5 -23 -11 -34 -13 -42 -5 -19 19 -12 47 15 57 23 9 26 15 21 43 -5
31 -2 34 26 43 18 5 34 8 37 6 3 -2 5 -29 5 -61z m155 -21 c-7 -16 -21 -37
-33 -47 l-21 -18 16 26 c9 14 22 45 30 70 10 35 14 39 16 21 2 -13 -2 -37 -8
-52z m-723 -2 c-3 -8 -6 -5 -6 6 -1 11 2 17 5 13 3 -3 4 -12 1 -19z m141 -58
c-2 -7 -10 1 -17 16 -12 27 -11 28 4 12 10 -9 16 -21 13 -28z m820 -38 c2 -12
-1 -22 -6 -22 -14 0 -43 36 -35 44 14 13 38 1 41 -22z m-1028 -7 c15 -18 22
-12 -72 -69 -113 -68 -121 -66 -43 12 72 73 93 83 115 57z m140 -17 c21 -34
27 -112 11 -123 -5 -3 -15 -22 -22 -43 -7 -20 -54 -123 -104 -228 -51 -105
-96 -201 -100 -213 -4 -12 -9 -20 -12 -17 -7 7 100 421 115 442 4 5 24 17 44
26 42 20 54 54 46 139 -3 27 -3 49 -1 49 2 0 12 -15 23 -32z m920 22 c0 -5 -2
-10 -4 -10 -3 0 -8 5 -11 10 -3 6 -1 10 4 10 6 0 11 -4 11 -10z m-247 -83 c-4
-50 -10 -67 -21 -67 -12 0 -13 9 -9 44 6 41 27 100 33 93 2 -2 1 -33 -3 -70z
m264 40 c24 -13 76 -78 68 -85 -4 -4 -115 87 -115 94 0 8 26 3 47 -9z m-527
-11 c0 -2 -7 -6 -15 -10 -8 -3 -15 -1 -15 4 0 6 7 10 15 10 8 0 15 -2 15 -4z
m-75 -136 c3 0 15 19 26 43 11 23 17 34 14 24 -3 -10 -5 -27 -5 -37 0 -10 -8
-28 -19 -41 l-18 -23 -15 30 c-8 16 -18 43 -21 59 -5 24 -2 21 13 -12 10 -24
22 -43 25 -43z m-223 -45 c8 -35 2 -49 -61 -169 -76 -145 -121 -224 -121 -215
-1 30 95 273 122 308 10 14 16 32 12 45 -7 28 13 79 28 74 7 -3 16 -22 20 -43z
m508 41 c0 -15 -14 -35 -21 -30 -15 9 -10 34 6 34 8 0 15 -2 15 -4z m63 -71
c10 -42 17 -85 17 -97 0 -20 -1 -20 -19 3 -39 50 -53 89 -46 130 11 62 30 47
48 -36z m153 -250 c61 -127 61 -127 24 -85 -94 106 -138 194 -155 305 -3 22
-8 49 -11 60 -4 19 29 -46 142 -280z m-576 123 c0 -51 -5 -47 -14 10 -4 29 -3
41 4 37 5 -3 10 -25 10 -47z m438 -29 c14 -16 29 -58 42 -119 11 -51 18 -95
16 -97 -2 -2 -12 17 -21 44 -9 26 -27 75 -40 108 -29 75 -40 113 -28 100 4 -5
18 -22 31 -36z"/>
<path d="M1461 2774 c0 -11 3 -14 6 -6 3 7 2 16 -1 19 -3 4 -6 -2 -5 -13z"/>
<path d="M920 2779 c0 -3 -9 -70 -20 -149 -10 -80 -24 -230 -30 -335 -12 -230
-12 -225 -2 -225 5 0 12 89 15 198 4 108 16 267 26 351 11 85 18 157 16 160
-3 2 -5 2 -5 0z"/>
<path d="M1052 2670 c0 -19 2 -27 5 -17 2 9 2 25 0 35 -3 9 -5 1 -5 -18z"/>
<path d="M1063 2565 c0 -27 2 -38 4 -22 2 15 2 37 0 50 -2 12 -4 0 -4 -28z"/>
<path d="M1493 2460 c0 -47 2 -66 4 -42 2 23 2 61 0 85 -2 23 -4 4 -4 -43z"/>
<path d="M1073 2425 c0 -38 2 -53 4 -32 2 20 2 52 0 70 -2 17 -4 1 -4 -38z"/>
</g>
</svg>
