<?xml version="1.0" standalone="no"?>
<!DOCTYPE svg PUBLIC "-//W3C//DTD SVG 20010904//EN"
 "http://www.w3.org/TR/2001/REC-SVG-20010904/DTD/svg10.dtd">
<svg version="1.0" xmlns="http://www.w3.org/2000/svg"
 width="244.000000pt" height="305.000000pt" viewBox="0 0 244.000000 305.000000"
 preserveAspectRatio="xMidYMid meet">
<metadata>
Created by potrace 1.16, written by Peter Selinger 2001-2019
</metadata>
<g transform="translate(0.000000,305.000000) scale(0.100000,-0.100000)"
fill="#000000" stroke="none">
<path d="M1501 2800 c-13 -69 -25 -132 -29 -140 -3 -8 -12 41 -20 110 -10 78
-18 117 -22 105 -4 -11 -5 -33 -3 -50 8 -51 8 -925 1 -925 -23 0 -47 132 -49
273 l-2 82 -8 -85 c-4 -47 -12 -101 -17 -120 l-8 -35 -9 45 c-6 32 -9 38 -12
23 -3 -13 -9 -23 -14 -23 -5 0 -9 38 -9 84 0 149 -52 479 -70 445 -18 -33 -51
-275 -57 -411 -3 -81 -10 -145 -15 -142 -4 3 -8 19 -8 35 0 41 -20 27 -21 -14
0 -23 -6 -10 -20 43 -13 53 -19 111 -19 195 0 126 -20 380 -41 531 -12 85 -13
87 -21 49 -5 -24 -5 -41 1 -43 5 -2 9 -108 9 -260 0 -263 -9 -275 -24 -34 -4
67 -11 125 -16 128 -4 3 -8 16 -8 29 0 13 -4 26 -8 29 -5 3 -5 -16 -1 -42 4
-26 8 -81 8 -122 1 -43 6 -81 12 -87 8 -8 13 -97 17 -273 5 -253 4 -262 -14
-258 -17 3 -20 16 -25 113 l-5 110 -2 -127 c-1 -70 -6 -129 -11 -132 -18 -12
-24 154 -17 537 3 215 8 393 11 395 8 9 6 50 -4 56 -11 7 -46 -176 -66 -349
-8 -71 -18 -240 -22 -375 l-6 -245 36 -28 c22 -16 37 -37 37 -49 0 -19 -1 -20
-25 -4 -54 36 -130 3 -123 -54 3 -22 7 -25 36 -22 25 3 39 -3 62 -27 30 -30
40 -74 19 -86 -6 -4 -9 -30 -8 -58 3 -45 0 -52 -16 -55 -27 -5 -45 -30 -45
-65 0 -15 -4 -26 -9 -22 -20 12 -33 -38 -28 -101 4 -52 2 -61 -10 -57 -36 14
-43 101 -13 151 36 59 19 92 -48 92 -60 0 -75 -51 -46 -150 22 -75 15 -157
-16 -182 -18 -14 -21 -25 -16 -49 6 -33 18 -26 -184 -111 -52 -22 -101 -42
-107 -45 -7 -3 -13 -1 -12 3 0 5 43 38 95 74 120 83 234 169 234 178 -1 4 -7
34 -15 67 -8 33 -15 79 -15 103 0 30 -4 41 -11 36 -8 -5 -10 -32 -5 -90 l6
-84 -28 6 c-30 6 -20 16 -309 -295 -23 -25 -41 -47 -39 -48 2 -2 86 28 187 66
100 39 184 69 186 68 1 -2 -18 -34 -43 -71 -24 -38 -43 -71 -40 -73 2 -2 61
28 131 67 77 43 131 68 137 62 5 -5 11 -25 14 -44 6 -32 4 -36 -24 -46 -27 -9
-33 -19 -50 -79 -31 -104 -119 -434 -127 -472 -7 -35 -7 -34 36 20 25 30 76
94 114 144 40 51 71 83 73 75 1 -8 -9 -76 -22 -149 -14 -74 -24 -136 -22 -138
2 -2 23 36 48 84 25 49 63 122 85 163 111 207 113 213 102 253 -5 20 -7 42 -4
47 12 20 89 2 112 -25 30 -34 29 -53 -2 -85 l-26 -27 56 -324 c31 -178 58
-325 60 -327 1 -2 8 28 14 65 12 69 27 156 61 338 47 255 46 238 16 278 -20
25 -26 42 -21 57 9 28 62 60 99 60 28 0 29 0 22 -49 -7 -54 -19 -27 139 -321
43 -80 81 -149 85 -153 4 -5 -1 38 -11 95 -30 166 -32 178 -23 177 5 0 60 -67
123 -149 63 -82 116 -148 118 -146 4 3 -26 118 -104 400 -45 165 -47 169 -80
182 -18 8 -33 18 -33 23 0 24 24 71 36 71 8 0 59 -25 114 -56 56 -31 103 -54
106 -51 3 3 -13 33 -35 66 -23 33 -41 62 -41 64 0 3 93 -31 207 -74 114 -43
209 -77 211 -74 2 2 -71 83 -164 180 -157 166 -169 176 -196 169 l-30 -6 7 91
c6 65 4 91 -4 91 -6 0 -11 -13 -11 -28 0 -16 -3 -64 -7 -107 l-6 -77 39 6 c39
7 40 6 129 -86 162 -169 182 -192 155 -178 -58 30 -321 213 -340 237 -24 31
-26 96 -5 167 8 27 15 61 15 76 0 51 -56 75 -115 48 -31 -14 -31 -17 1 -79 25
-48 26 -53 15 -105 -17 -73 -37 -67 -33 9 3 52 1 59 -27 88 -17 17 -31 39 -31
49 0 20 -25 50 -42 50 -6 0 -7 18 -3 49 5 37 3 52 -9 64 -24 23 -19 51 13 86
22 24 38 31 65 31 33 0 36 3 36 28 0 38 -19 60 -56 68 -24 4 -37 0 -61 -20
-19 -16 -34 -22 -38 -16 -12 19 5 47 44 74 l39 27 -5 192 c-4 199 -28 505 -39
516 -4 3 -4 -19 0 -49 13 -114 26 -350 26 -491 l0 -147 -34 -26 c-19 -14 -37
-22 -40 -18 -10 16 -5 927 5 933 6 3 6 21 1 45 -8 36 -10 31 -31 -86z m-214
-767 c-2 -32 -3 -8 -3 52 0 61 1 87 3 58 2 -29 2 -78 0 -110z m-273 -149 c9
-23 8 -24 -14 -24 -19 0 -27 20 -13 33 11 11 20 8 27 -9z m471 -22 c-34 -4
-42 3 -25 23 12 14 15 14 33 -2 19 -18 19 -18 -8 -21z m-405 13 c0 -8 -7 -15
-15 -15 -8 0 -15 7 -15 15 0 8 7 15 15 15 8 0 15 -7 15 -15z m330 0 c0 -8 -7
-15 -15 -15 -26 0 -18 20 13 29 1 1 2 -6 2 -14z m-295 -139 c-22 -16 -35 -12
-35 9 0 16 31 25 44 13 6 -5 2 -14 -9 -22z m275 8 c0 -7 -5 -16 -10 -19 -13
-8 -43 22 -36 34 8 13 46 1 46 -15z m-380 -50 c0 -26 -17 -33 -26 -9 -8 20 3
48 16 40 5 -3 10 -17 10 -31z m480 5 c0 -20 -25 -37 -37 -25 -3 3 -1 17 5 32
13 28 32 24 32 -7z m-193 -41 c-3 -8 -6 -5 -6 6 -1 11 2 17 5 13 3 -3 4 -12 1
-19z m-137 -20 c0 -10 9 -22 21 -28 11 -7 28 -28 36 -48 14 -34 16 -35 29 -17
8 10 14 25 14 32 0 7 11 20 25 29 14 9 25 22 25 29 0 16 25 23 58 17 15 -3 22
-11 22 -26 0 -37 -15 -49 -52 -42 -41 7 -70 -17 -92 -79 l-13 -40 -12 43 c-18
65 -42 85 -97 76 l-44 -6 0 35 c0 37 7 42 57 42 15 0 23 -6 23 -17z m-200 -33
c0 -8 18 -49 40 -91 23 -42 39 -82 37 -88 -5 -14 -87 111 -87 133 0 9 -3 26
-6 39 -4 13 -2 22 5 22 6 0 11 -7 11 -15z m99 -60 c0 -18 -1 -17 -14 5 -8 14
-14 36 -14 50 1 24 1 24 14 -5 8 -16 14 -39 14 -50z m446 -23 c-25 -55 -60
-102 -77 -102 -4 0 16 45 45 101 36 70 53 94 55 80 2 -12 -8 -47 -23 -79z
m-69 64 c-5 -27 -26 -70 -31 -64 -2 2 1 23 7 46 11 44 32 59 24 18z m-286 -78
c19 -21 28 -58 13 -58 -7 0 -38 45 -51 73 -8 16 18 6 38 -15z m195 -5 c-36
-55 -42 -63 -48 -57 -7 7 9 52 25 71 6 7 17 13 25 13 13 0 13 -4 -2 -27z
m-410 -60 c-4 -16 -9 -53 -10 -83 -3 -77 -6 -90 -15 -55 -12 45 -11 124 0 146
16 30 34 24 25 -8z m626 -21 c8 -39 0 -122 -12 -122 -5 0 -9 22 -9 49 0 27 -3
63 -7 81 -5 25 -3 32 8 28 7 -2 16 -19 20 -36z m-378 -52 c20 -18 -13 -18 -34
1 l-24 20 25 -7 c14 -3 29 -10 33 -14z m131 -7 c-12 -9 -21 -10 -28 -3 -14 14
11 31 32 22 12 -4 12 -7 -4 -19z m-289 -53 c-4 -12 -9 -19 -12 -17 -3 3 -2 15
2 27 4 12 9 19 12 17 3 -3 2 -15 -2 -27z m434 -20 c0 -23 -1 -23 -9 -5 -5 11
-9 29 -9 40 -1 17 1 17 9 5 5 -8 9 -26 9 -40z m-308 2 c-6 -2 -11 -17 -11 -33
0 -22 6 -32 25 -39 29 -11 33 -41 9 -61 -13 -10 -17 -10 -24 0 -5 9 -30 14
-66 15 -45 1 -59 5 -59 16 0 8 7 13 15 11 44 -10 45 -8 42 55 l-4 62 42 -11
c23 -7 37 -13 31 -15z m237 -40 c-2 -47 0 -56 12 -53 33 8 45 5 45 -9 0 -11
-14 -15 -58 -16 -32 -1 -63 -6 -69 -12 -16 -16 -38 -2 -38 24 0 17 8 28 26 34
23 9 26 15 21 44 -5 29 -2 34 21 43 15 5 31 8 35 5 4 -2 7 -29 5 -60z m-561
-7 c8 -22 -6 -33 -17 -15 -13 20 -12 30 0 30 6 0 13 -7 17 -15z m823 -31 c0
-8 -4 -12 -10 -9 -5 3 -10 10 -10 16 0 5 5 9 10 9 6 0 10 -7 10 -16z m-670
-45 c0 -6 -4 -7 -10 -4 -5 3 -10 11 -10 16 0 6 5 7 10 4 6 -3 10 -11 10 -16z
m516 -5 c-4 -9 -9 -15 -11 -12 -3 3 -3 13 1 22 4 9 9 15 11 12 3 -3 3 -13 -1
-22z m314 -25 c0 -6 -4 -7 -10 -4 -5 3 -10 11 -10 16 0 6 5 7 10 4 6 -3 10
-11 10 -16z m-1073 -4 c2 -6 -32 -42 -74 -80 -52 -47 -72 -60 -59 -40 74 114
92 136 110 133 11 -2 21 -8 23 -13z m865 -50 c-6 -94 1 -113 52 -135 l42 -19
52 -188 c57 -207 68 -251 59 -243 -3 3 -60 114 -126 248 -104 207 -121 248
-121 289 0 30 7 60 20 81 11 17 21 32 23 32 2 0 1 -29 -1 -65z m-686 -31 c3
-24 4 -54 1 -67 -3 -12 -15 -66 -26 -120 -23 -114 -13 -94 -115 -232 -44 -60
-81 -112 -83 -114 -2 -2 -5 -2 -8 1 -3 3 33 83 79 179 129 268 134 281 125
342 -5 29 -11 63 -14 77 l-5 25 19 -23 c11 -13 23 -43 27 -68z m883 6 c31 -35
49 -60 41 -55 -8 5 -38 24 -67 42 -29 18 -56 33 -62 33 -17 0 -18 25 -2 37 23
17 28 14 90 -57z m-612 14 c-3 -3 -12 -4 -19 -1 -8 3 -5 6 6 6 11 1 17 -2 13
-5z m48 -134 c3 0 12 15 20 33 9 19 14 25 15 14 0 -18 -27 -77 -35 -77 -8 0
-32 54 -38 85 -5 24 -2 21 13 -12 10 -24 22 -43 25 -43z m-245 -9 c0 -4 -5
-23 -12 -41 -10 -30 -12 -32 -19 -14 -15 37 -10 64 11 64 11 0 20 -4 20 -9z
m499 -17 c1 -10 32 -104 67 -208 35 -104 63 -190 62 -192 -2 -1 -43 74 -91
167 -79 152 -87 173 -81 207 4 20 9 41 11 45 8 13 28 2 32 -19z m-559 -43 c0
-15 -7 -36 -15 -47 -14 -19 -14 -19 -15 2 0 38 12 84 21 78 5 -3 9 -18 9 -33z
m6 -103 c-18 -60 -85 -249 -97 -273 l-9 -20 4 20 c3 11 12 60 21 108 9 48 20
100 26 115 10 26 56 92 64 92 2 0 -2 -19 -9 -42z m387 -30 l-11 -43 -1 55 c-1
41 2 51 11 42 8 -8 8 -23 1 -54z m-16 -85 c-3 -10 -5 -4 -5 12 0 17 2 24 5 18
2 -7 2 -21 0 -30z"/>
<path d="M961 2804 c0 -11 3 -14 6 -6 3 7 2 16 -1 19 -3 4 -6 -2 -5 -13z"/>
<path d="M1012 2800 c0 -14 2 -19 5 -12 2 6 2 18 0 25 -3 6 -5 1 -5 -13z"/>
<path d="M1541 2810 c0 -8 7 -46 14 -85 14 -69 14 -69 9 -14 -5 55 -22 129
-23 99z"/>
<path d="M972 2760 c0 -14 2 -19 5 -12 2 6 2 18 0 25 -3 6 -5 1 -5 -13z"/>
<path d="M1402 2660 c0 -19 2 -27 5 -17 2 9 2 25 0 35 -3 9 -5 1 -5 -18z"/>
<path d="M1387 2555 c-4 -38 -6 -106 -5 -150 1 -67 2 -57 9 55 10 148 7 206
-4 95z"/>
<path d="M983 2380 c0 -47 2 -66 4 -42 2 23 2 61 0 85 -2 23 -4 4 -4 -43z"/>
</g>
</svg>
