<?xml version="1.0" standalone="no"?>
<!DOCTYPE svg PUBLIC "-//W3C//DTD SVG 20010904//EN"
 "http://www.w3.org/TR/2001/REC-SVG-20010904/DTD/svg10.dtd">
<svg version="1.0" xmlns="http://www.w3.org/2000/svg"
 width="244.000000pt" height="305.000000pt" viewBox="0 0 244.000000 305.000000"
 preserveAspectRatio="xMidYMid meet">
<metadata>
Created by potrace 1.16, written by Peter Selinger 2001-2019
</metadata>
<g transform="translate(0.000000,305.000000) scale(0.100000,-0.100000)"
fill="#000000" stroke="none">
<path d="M976 2866 c3 -27 1 -250 -6 -497 l-13 -447 -23 15 c-23 14 -24 21
-27 161 l-3 147 -2 -157 -2 -158 38 -36 37 -35 -57 6 c-51 6 -58 4 -72 -17 -9
-12 -16 -35 -16 -50 0 -25 3 -28 34 -28 26 0 41 -7 60 -31 30 -35 31 -46 11
-85 -8 -16 -15 -37 -15 -47 0 -15 23 -86 44 -138 4 -9 2 -16 -6 -16 -7 0 -21
-4 -31 -8 -16 -7 -18 -3 -16 27 5 54 -10 64 -93 66 -40 0 -78 -4 -85 -10 -17
-14 -16 -77 3 -150 14 -55 14 -64 -1 -101 -9 -22 -30 -55 -48 -74 -28 -30
-226 -185 -267 -208 -17 -10 -23 -18 88 115 144 172 135 164 172 157 l33 -7
-7 76 c-3 43 -6 90 -6 106 0 15 -5 28 -11 28 -9 0 -10 -25 -5 -90 l7 -91 -24
6 c-21 6 -36 -8 -118 -105 -52 -62 -120 -142 -151 -178 -31 -37 -56 -68 -54
-69 2 -3 90 31 161 62 67 29 69 29 45 -10 -16 -26 -18 -35 -8 -35 8 0 18 4 23
9 15 15 247 131 262 131 14 0 37 -40 46 -81 6 -22 2 -28 -26 -41 -31 -15 -33
-21 -64 -149 -86 -354 -103 -432 -99 -436 2 -2 16 13 30 34 15 21 42 60 61 88
39 55 42 49 26 -48 -4 -26 -7 -47 -6 -47 3 0 113 187 148 250 14 25 41 74 60
110 31 57 35 70 30 114 l-6 49 47 -5 c34 -4 56 -14 77 -34 35 -33 35 -37 7
-77 -25 -35 -25 -66 -3 -197 8 -47 29 -175 45 -285 27 -172 39 -235 40 -199 0
11 10 74 49 327 47 303 48 323 22 357 -25 35 -25 39 -3 66 25 30 56 44 96 44
43 0 47 -6 36 -55 -10 -43 5 -79 105 -250 29 -49 69 -121 90 -160 44 -82 59
-101 51 -65 -14 69 -26 132 -26 141 0 14 38 -34 79 -99 37 -58 49 -62 32 -10
-6 18 -17 67 -26 108 -9 41 -22 100 -30 130 -8 30 -28 109 -44 175 -26 108
-31 120 -55 128 -28 9 -32 29 -15 74 13 35 41 66 48 55 13 -18 311 -177 311
-166 0 4 -9 22 -21 40 -11 19 -18 34 -15 34 4 0 35 -12 69 -26 102 -43 109
-45 101 -31 -7 11 -191 235 -204 247 -3 3 -21 23 -40 45 -23 27 -42 40 -59 40
l-25 0 1 95 1 95 -9 -73 c-6 -40 -15 -85 -21 -100 -10 -27 -10 -27 -20 -5 -8
16 -6 40 6 87 30 122 17 146 -81 146 -70 0 -85 -11 -81 -61 3 -31 1 -34 -24
-31 -33 3 -48 -20 -48 -74 0 -31 -2 -35 -15 -24 -22 19 -19 39 20 112 38 70
58 179 36 192 -19 12 -12 53 15 86 21 24 33 30 58 28 29 -3 31 -1 28 27 -5 42
-29 65 -68 65 -45 0 -53 19 -20 45 l28 22 -11 279 c-11 289 -20 386 -47 564
-16 99 -33 160 -34 118 0 -9 -3 -25 -6 -35 -5 -15 -4 -15 5 -3 8 11 10 -18 10
-110 -2 -123 -2 -124 -11 -55 -5 39 -8 87 -6 107 2 20 1 34 -2 32 -2 -3 -10
16 -17 43 -12 48 -12 47 -7 -27 3 -41 0 -131 -6 -200 -6 -69 -12 -183 -14
-255 -4 -129 -4 -129 3 -23 4 59 10 110 14 114 4 4 7 -115 7 -264 0 -233 -2
-272 -15 -272 -12 0 -15 27 -18 158 l-3 157 -2 -158 c-3 -229 -21 -194 -24 46
l-2 192 -6 -175 c-4 -147 -6 -165 -13 -114 -7 53 -10 61 -26 57 -15 -4 -20
-20 -28 -91 l-9 -87 -7 160 c-13 265 -49 537 -68 504 -16 -30 -48 -299 -56
-474 l-7 -180 -11 78 c-7 56 -15 81 -27 88 -14 8 -18 4 -23 -28 -4 -21 -8 -42
-9 -48 -2 -5 -6 87 -9 207 -4 119 -14 285 -22 370 -26 267 -49 381 -38 191 3
-54 3 -96 0 -93 -3 3 -13 48 -22 100 -17 99 -43 157 -29 66z m254 -816 c0
-439 0 -440 -20 -423 -19 16 -20 30 -20 208 0 210 25 655 36 655 2 0 4 -198 4
-440z m-253 -42 c-1 -40 -3 -10 -3 67 0 77 1 110 3 73 2 -37 2 -100 0 -140z
m448 -127 c7 -19 5 -20 -26 -14 -21 4 -25 9 -21 28 3 21 7 22 23 12 10 -6 21
-18 24 -26z m-335 15 c0 -7 11 -21 25 -30 14 -9 25 -22 25 -29 0 -6 -5 -4 -11
5 -5 10 -25 20 -44 24 -37 7 -42 13 -23 32 16 16 28 15 28 -2z m-80 -50 c-14
-14 -24 0 -16 21 6 15 8 15 16 3 6 -9 5 -19 0 -24z m465 6 c0 -18 -20 -15 -23
4 -3 10 1 15 10 12 7 -3 13 -10 13 -16z m-335 -107 c0 -10 -9 -13 -30 -10 -26
3 -30 0 -30 -21 0 -54 45 -85 78 -52 9 9 12 5 12 -18 0 -18 7 -34 19 -41 11
-7 25 -29 32 -50 l12 -38 18 43 c10 23 25 45 34 48 9 4 15 19 15 41 0 31 1 33
16 19 35 -35 74 -9 74 50 0 24 -3 26 -30 21 -22 -5 -30 -3 -30 8 0 10 11 15
34 15 28 0 36 -5 46 -30 9 -22 10 -37 2 -57 -6 -16 -13 -45 -17 -65 -6 -39
-23 -58 -34 -40 -3 6 -18 13 -33 17 -34 9 -63 -19 -79 -77 l-11 -43 -18 48
c-10 27 -24 55 -30 63 -16 18 -50 18 -78 -2 -21 -14 -23 -14 -32 11 -6 14 -10
37 -10 51 0 13 -5 33 -12 43 -9 14 -8 26 2 50 10 26 18 31 46 31 23 0 34 -5
34 -15z m-150 -180 c0 -5 -5 -3 -10 5 -5 8 -10 20 -10 25 0 6 5 3 10 -5 5 -8
10 -19 10 -25z m179 -72 c16 -35 26 -143 14 -143 -15 0 -96 61 -90 67 3 3 19
-4 35 -16 17 -12 35 -21 41 -21 19 0 12 49 -10 68 -21 18 -49 63 -49 81 0 19
47 -10 59 -36z m191 31 c0 -14 -34 -62 -51 -72 -16 -10 -19 -9 -19 7 0 24 37
71 56 71 8 0 14 -3 14 -6z m-525 -176 c4 -42 3 -68 -3 -68 -14 0 -22 37 -22
105 1 77 15 54 25 -37z m165 62 c12 -23 4 -64 -11 -55 -9 6 -13 75 -4 75 2 0
9 -9 15 -20z m385 9 c-9 -14 -86 -69 -97 -69 -4 0 -8 9 -8 19 0 14 5 18 19 14
10 -3 30 6 47 21 30 26 50 34 39 15z m270 -75 c-3 -30 -10 -52 -14 -49 -4 2
-4 26 0 52 4 26 8 55 9 63 1 11 3 12 7 2 3 -7 2 -38 -2 -68z m-536 -35 c34
-10 36 -13 33 -45 -4 -28 0 -35 22 -45 30 -14 33 -31 10 -53 -19 -20 -22 -20
-41 0 -9 9 -26 14 -37 11 -86 -20 -86 -20 -86 -4 0 10 11 17 28 19 27 3 27 4
24 66 -1 34 0 62 4 62 4 0 23 -5 43 -11z m276 -55 c0 -56 1 -59 25 -60 14 0
26 -3 28 -7 6 -18 0 -27 -17 -27 -11 0 -23 5 -26 10 -9 15 -62 12 -79 -5 -16
-17 -41 -11 -50 11 -8 21 3 41 25 47 16 4 20 12 17 39 -3 29 1 35 27 45 17 6
35 10 40 9 6 -2 10 -29 10 -62z m-445 -29 c0 -5 -5 -3 -10 5 -5 8 -10 20 -10
25 0 6 5 3 10 -5 5 -8 10 -19 10 -25z m781 -77 c1 -7 1 -18 0 -25 -1 -7 25
-26 57 -42 61 -31 122 -76 122 -91 0 -10 -206 104 -230 127 -13 13 -13 16 4
29 24 17 46 18 47 2z m185 -52 c112 -90 121 -103 49 -71 -32 14 -65 31 -73 37
-22 18 -74 98 -64 98 5 0 45 -29 88 -64z m-977 -72 c1 -20 -5 -34 -14 -38 -17
-6 -20 19 -8 75 5 28 7 30 14 14 4 -11 8 -34 8 -51z m264 13 c8 -54 23 -97 36
-97 5 0 13 17 19 38 8 29 10 32 11 12 0 -14 -8 -38 -19 -55 -19 -28 -20 -48
-21 -315 l-1 -285 -31 224 -31 223 29 54 c28 52 29 56 16 101 -18 62 -29 143
-21 143 4 0 10 -19 13 -43z m90 36 c-7 -2 -14 -17 -14 -31 -1 -18 -3 -21 -6
-9 -6 24 3 47 19 46 10 0 10 -2 1 -6z m-668 -33 c-3 -5 -16 -15 -28 -21 -22
-12 -22 -12 -3 10 19 21 43 30 31 11z m265 -100 c0 -43 -50 -200 -100 -315
-65 -146 -75 -167 -66 -125 59 261 101 415 117 431 20 20 49 26 49 9z m592
-51 c-11 -42 -10 -44 46 -128 49 -76 130 -256 119 -268 -3 -2 -23 31 -45 74
-22 43 -63 119 -91 168 -51 90 -58 119 -45 184 5 22 10 29 17 22 6 -6 6 -24
-1 -52z m-571 18 c-8 -8 -11 -7 -11 4 0 20 13 34 18 19 3 -7 -1 -17 -7 -23z
m618 -58 c16 -47 13 -55 -9 -26 -21 26 -27 57 -11 57 5 0 14 -14 20 -31z m147
-210 c44 -103 40 -127 -7 -47 -22 36 -49 124 -49 155 0 17 18 -17 56 -108z
m-826 -63 c-22 -68 -35 -87 -24 -38 9 44 36 114 41 108 3 -2 -5 -34 -17 -70z
m877 -68 c-3 -8 -6 -5 -6 6 -1 11 2 17 5 13 3 -3 4 -12 1 -19z"/>
<path d="M961 2844 c0 -11 3 -14 6 -6 3 7 2 16 -1 19 -3 4 -6 -2 -5 -13z"/>
<path d="M942 2720 c-7 -52 -15 -131 -17 -175 -3 -55 2 -31 15 75 11 85 19
164 17 175 -1 11 -8 -23 -15 -75z"/>
<path d="M1412 2680 c0 -14 2 -19 5 -12 2 6 2 18 0 25 -3 6 -5 1 -5 -13z"/>
<path d="M1402 2575 c0 -16 2 -22 5 -12 2 9 2 23 0 30 -3 6 -5 -1 -5 -18z"/>
<path d="M1393 2440 c0 -41 2 -58 4 -37 2 20 2 54 0 75 -2 20 -4 3 -4 -38z"/>
<path d="M913 2400 c0 -36 2 -50 4 -32 2 17 2 47 0 65 -2 17 -4 3 -4 -33z"/>
</g>
</svg>
