<?xml version="1.0" standalone="no"?>
<!DOCTYPE svg PUBLIC "-//W3C//DTD SVG 20010904//EN"
 "http://www.w3.org/TR/2001/REC-SVG-20010904/DTD/svg10.dtd">
<svg version="1.0" xmlns="http://www.w3.org/2000/svg"
 width="244.000000pt" height="305.000000pt" viewBox="0 0 244.000000 305.000000"
 preserveAspectRatio="xMidYMid meet">
<metadata>
Created by potrace 1.16, written by Peter Selinger 2001-2019
</metadata>
<g transform="translate(0.000000,305.000000) scale(0.100000,-0.100000)"
fill="#000000" stroke="none">
<path d="M1091 2885 c-1 -16 -1 -189 -1 -384 1 -341 -12 -557 -32 -545 -13 8
-10 -23 6 -61 8 -19 22 -35 30 -35 9 0 16 -6 16 -13 0 -26 -13 -26 -33 -1 -36
46 -105 16 -128 -54 l-12 -35 -19 39 c-23 49 -43 64 -84 64 -38 0 -77 -41 -72
-74 3 -18 9 -20 41 -18 31 3 42 -1 67 -28 33 -35 39 -74 14 -84 -24 -9 -12
-94 21 -157 29 -55 36 -167 12 -191 -7 -7 -19 -22 -25 -33 -11 -19 -11 -19
-11 5 2 44 -13 145 -24 158 -5 6 -21 12 -35 12 -62 0 -70 -90 -17 -188 47 -84
41 -107 -9 -40 -70 96 -82 164 -40 235 25 43 25 45 8 64 -24 26 -87 26 -114
-1 -25 -25 -25 -39 0 -119 14 -48 17 -74 11 -108 -10 -51 -23 -68 -94 -115
-88 -60 -221 -145 -247 -158 -24 -13 -24 -12 -10 6 8 10 66 71 128 135 111
114 115 117 146 108 17 -5 32 -9 33 -9 7 0 0 178 -7 200 -5 16 -8 -8 -9 -73
l-1 -97 -27 6 c-25 7 -40 -7 -195 -166 -92 -96 -166 -175 -165 -177 3 -2 98
31 321 111 54 20 100 36 102 36 2 0 4 8 4 18 0 9 4 23 9 31 19 30 141 -44 141
-86 0 -8 -11 -36 -25 -62 -13 -25 -40 -104 -59 -176 -33 -122 -94 -349 -110
-405 l-7 -25 23 26 c13 14 95 115 182 223 l159 197 -12 41 c-13 41 -8 55 19
58 37 5 42 0 36 -32 -20 -113 -46 -356 -41 -386 4 -24 3 -32 -3 -24 -6 9 -11
-4 -16 -44 -3 -31 -5 -58 -4 -60 2 -1 29 68 61 154 32 87 70 188 84 225 19 53
24 79 19 113 -7 52 5 57 47 19 34 -32 34 -43 -1 -82 l-29 -31 38 -203 c20
-112 47 -260 60 -329 l23 -124 23 124 c13 69 37 195 53 280 45 243 46 251 16
283 -33 36 -33 47 4 82 36 34 45 28 41 -28 -2 -32 16 -90 78 -252 44 -116 80
-203 81 -195 0 9 -13 117 -30 240 -38 286 -38 272 3 268 34 -3 36 -10 23 -73
-6 -27 6 -45 126 -195 210 -261 228 -281 228 -270 0 11 -33 134 -115 425 -20
72 -45 139 -54 150 -29 34 -42 74 -31 95 20 38 120 97 141 84 5 -3 9 -16 9
-30 0 -13 2 -24 4 -24 2 0 102 -36 222 -80 120 -44 219 -78 220 -77 2 2 -75
83 -171 181 -163 167 -176 178 -204 173 l-30 -6 6 91 c5 68 3 89 -5 84 -7 -4
-12 -28 -12 -54 0 -26 -7 -69 -15 -97 -9 -27 -13 -55 -11 -61 4 -10 249 -187
329 -238 16 -10 27 -20 24 -22 -4 -4 -326 121 -335 131 -3 3 0 17 7 31 10 23
8 29 -19 54 -27 25 -30 34 -30 88 0 33 7 79 15 102 31 88 11 140 -54 140 -70
0 -89 -37 -51 -95 22 -33 26 -88 9 -132 -13 -35 -91 -152 -101 -153 -15 0 -8
18 32 93 46 85 54 144 25 177 -28 31 -68 23 -76 -15 -4 -16 -11 -48 -16 -71
-5 -23 -6 -51 -1 -64 18 -48 -9 -38 -35 14 -36 72 -35 121 5 197 37 73 48 148
24 168 -23 19 -20 45 10 80 22 26 33 31 70 31 40 0 44 2 44 25 0 14 -11 37
-25 50 -43 44 -98 27 -130 -42 l-18 -37 -20 41 c-19 39 -50 63 -82 63 -7 0
-27 -12 -44 -26 -30 -25 -31 -25 -31 -5 0 12 5 20 11 18 7 -1 21 13 31 31 20
32 20 41 8 410 -16 485 -26 603 -30 332 -1 -107 -2 -260 -1 -340 1 -103 -3
-161 -14 -200 -8 -30 -16 -68 -17 -85 -1 -16 -5 31 -8 105 l-6 135 -2 -189
c-1 -104 -4 -187 -7 -185 -2 3 -11 110 -19 239 -10 159 -23 275 -40 359 -14
68 -27 126 -29 128 -5 5 -33 -112 -48 -200 -6 -37 -19 -172 -28 -300 l-17
-232 -7 285 c-4 157 -12 364 -18 460 -10 180 -25 328 -28 275z m139 -846 c0
-351 -2 -420 -13 -410 -8 6 -17 8 -20 5 -3 -3 -10 -3 -16 1 -7 4 -6 18 5 43
13 30 16 85 19 287 2 217 1 226 -4 70 -6 -178 -6 -179 -13 -86 -11 133 -10
225 4 343 12 93 13 99 19 58 5 -38 6 -33 7 33 1 42 4 77 7 77 3 0 5 -190 5
-421z m-53 -281 c-2 -18 -4 -4 -4 32 0 36 2 50 4 33 2 -18 2 -48 0 -65z m-121
-35 c-1 -21 3 -81 8 -133 l8 -95 -20 25 c-30 39 -52 87 -52 113 0 14 -7 30
-15 37 -33 27 -3 90 44 90 25 0 27 -3 27 -37z m428 15 c20 -28 20 -57 1 -64
-9 -4 -15 -19 -15 -35 0 -35 -29 -96 -58 -122 -19 -18 -19 -17 -15 55 2 40 9
91 14 113 6 23 10 45 9 50 -4 20 1 25 24 25 14 0 32 -10 40 -22z m-332 -70 c0
-13 2 -29 2 -37 1 -8 8 -16 16 -19 17 -5 50 -42 49 -57 0 -5 -4 -2 -10 8 -6
10 -22 17 -39 17 -37 0 -54 29 -45 76 7 38 24 46 27 12z m188 -13 c1 -11 2
-32 1 -47 -1 -25 -5 -28 -36 -28 -38 0 -48 -12 -60 -75 -7 -37 -9 -38 -15 -15
-11 35 -11 52 -2 46 5 -3 16 11 26 30 9 20 25 38 36 41 13 3 21 18 25 45 7 40
21 41 25 3z m-383 -72 c13 -44 6 -64 -14 -38 -14 20 -18 75 -5 75 4 0 12 -17
19 -37z m140 5 c-3 -7 -5 -2 -5 12 0 14 2 19 5 13 2 -7 2 -19 0 -25z m280 0
c-3 -7 -5 -2 -5 12 0 14 2 19 5 13 2 -7 2 -19 0 -25z m163 5 c-1 -34 -24 -80
-34 -65 -8 13 15 92 26 92 5 0 8 -12 8 -27z m-409 -109 c12 -25 19 -48 16 -50
-6 -7 -35 40 -43 70 -10 41 5 30 27 -20z m229 14 c0 -13 -10 -34 -21 -48 l-20
-25 7 25 c11 41 23 70 29 70 3 0 5 -10 5 -22z m-330 -37 c0 -11 -4 -23 -10
-26 -6 -4 -10 5 -10 19 0 14 5 26 10 26 6 0 10 -9 10 -19z m430 -17 c0 -8 -4
-14 -9 -14 -11 0 -22 26 -14 34 9 9 23 -3 23 -20z m-508 -87 c-9 -18 -11 -14
-11 28 1 46 1 48 11 22 7 -20 7 -35 0 -50z m140 56 c17 -15 25 -43 12 -43 -18
0 -44 24 -44 40 0 24 8 25 32 3z m318 3 c0 -16 -26 -46 -41 -46 -14 0 -11 22
8 42 19 22 33 23 33 4z m106 -54 c-12 -11 -17 7 -9 34 l8 29 3 -28 c2 -16 1
-31 -2 -35z m-336 17 c0 -11 -4 -17 -10 -14 -5 3 -10 15 -10 26 0 11 5 17 10
14 6 -3 10 -15 10 -26z m121 -2 c-8 -8 -11 -7 -11 4 0 9 3 19 7 23 4 4 9 2 11
-4 3 -7 -1 -17 -7 -23z m143 -136 c-28 -77 -33 -68 -11 19 16 60 23 75 25 55
2 -15 -4 -49 -14 -74z m-399 -59 c-7 -8 -45 130 -38 141 3 6 14 -23 24 -64 9
-41 16 -76 14 -77z m56 17 c21 -13 29 -11 29 7 0 11 8 14 28 12 21 -2 27 -8
27 -27 0 -20 -5 -24 -28 -25 -16 -1 -32 -8 -37 -16 -8 -13 -10 -13 -10 1 0 9
-6 19 -14 22 -17 7 -32 72 -27 117 4 30 5 27 12 -24 3 -32 13 -62 20 -67z m69
106 c0 -3 -9 -14 -20 -25 -13 -13 -22 -16 -26 -8 -4 6 1 17 11 25 19 13 35 17
35 8z m167 -11 c2 -7 -6 -10 -21 -7 -14 3 -23 10 -20 15 8 12 36 6 41 -8z m63
-23 c0 -69 -38 -137 -63 -112 -6 6 -22 11 -35 11 -19 0 -23 5 -20 23 4 28 44
36 62 12 11 -16 13 -16 27 1 7 9 14 37 14 61 0 23 3 43 8 43 4 0 7 -18 7 -39z
m-480 -42 c7 -11 9 -28 5 -37 -5 -14 -9 -13 -20 8 -8 14 -14 31 -15 38 0 19
18 14 30 -9z m623 -54 c-3 -8 -9 -15 -14 -15 -10 0 -12 24 -3 33 11 11 24 -3
17 -18z m-669 -31 c7 -19 -2 -37 -15 -29 -12 8 -12 45 0 45 5 0 12 -7 15 -16z
m723 -71 c-4 -17 -4 -17 -12 0 -4 9 -4 25 0 35 8 16 8 16 12 0 3 -10 3 -26 0
-35z m-697 -54 c0 -18 -24 -76 -59 -142 -32 -62 -89 -172 -127 -245 -38 -73
-70 -128 -72 -123 -2 6 8 48 22 93 14 46 40 137 59 203 l33 120 46 22 c33 16
48 30 53 50 14 56 45 72 45 22z m690 -7 c0 -30 29 -96 120 -277 66 -131 119
-240 117 -241 -4 -5 -29 26 -171 210 -102 133 -107 142 -101 175 4 20 7 66 6
104 -1 54 1 67 14 67 11 0 15 -11 15 -38z m-785 9 c-3 -6 -11 -11 -17 -11 -6
0 -6 6 2 15 14 17 26 13 15 -4z m436 -76 c12 8 11 -6 -1 -25 -11 -18 -15 -13
-24 25 -5 24 -4 26 4 12 6 -9 15 -15 21 -12z m-181 -18 c0 -23 -99 -403 -99
-382 -1 32 47 373 54 384 9 15 45 14 45 -2z m355 -9 c3 -13 23 -101 45 -196
22 -95 40 -178 40 -185 -1 -6 -17 31 -36 83 -79 212 -85 233 -78 277 7 47 21
56 29 21z m-186 -300 l-2 -263 -13 110 c-12 106 -12 107 -10 30 l3 -80 -13 60
c-35 166 -54 268 -54 291 0 32 50 100 60 83 5 -8 10 -5 15 10 3 11 8 21 11 21
2 0 3 -118 3 -262z"/>
<path d="M1186 815 c-3 -9 -5 -38 -5 -63 2 -47 2 -47 9 13 8 62 7 78 -4 50z"/>
<path d="M1193 645 c0 -33 2 -45 4 -27 2 18 2 45 0 60 -2 15 -4 0 -4 -33z"/>
<path d="M1530 2892 c0 -11 -3 -29 -6 -39 -5 -15 -4 -15 5 -3 8 11 11 -120 11
-467 0 -266 -3 -483 -7 -483 -5 0 -23 13 -42 29 l-34 28 2 164 c2 188 16 392
36 529 8 52 16 115 19 140 12 101 -13 -26 -33 -165 -32 -223 -53 -705 -31
-705 5 0 25 -13 43 -30 19 -16 38 -30 42 -30 4 0 23 14 42 30 18 17 38 30 43
30 21 0 4 456 -26 680 -16 119 -50 300 -59 308 -3 3 -5 -4 -5 -16z"/>
<path d="M938 2399 c3 -406 1 -499 -10 -499 -25 0 -78 60 -78 88 0 104 23 478
35 574 8 64 15 125 14 135 -2 39 -28 -118 -34 -207 -4 -52 -8 -111 -10 -130
-2 -19 -7 -126 -11 -236 l-7 -202 24 -12 c13 -7 36 -23 50 -36 l25 -24 25 26
c13 14 34 30 47 35 20 8 22 15 22 76 0 162 -22 508 -41 637 -16 112 -45 262
-53 273 0 1 0 -223 2 -498z"/>
<path d="M1372 2865 c0 -16 2 -22 5 -12 2 9 2 23 0 30 -3 6 -5 -1 -5 -18z"/>
<path d="M1362 2800 c0 -14 2 -19 5 -12 2 6 2 18 0 25 -3 6 -5 1 -5 -13z"/>
<path d="M902 2745 c0 -16 2 -22 5 -12 2 9 2 23 0 30 -3 6 -5 -1 -5 -18z"/>
<path d="M1072 2710 c0 -19 2 -27 5 -17 2 9 2 25 0 35 -3 9 -5 1 -5 -18z"/>
<path d="M1063 2565 c0 -38 2 -53 4 -32 2 20 2 52 0 70 -2 17 -4 1 -4 -38z"/>
<path d="M1343 2505 c0 -38 2 -53 4 -32 2 20 2 52 0 70 -2 17 -4 1 -4 -38z"/>
<path d="M1054 2290 c0 -74 1 -105 3 -67 2 37 2 97 0 135 -2 37 -3 6 -3 -68z"/>
<path d="M1052 2120 c0 -14 2 -19 5 -12 2 6 2 18 0 25 -3 6 -5 1 -5 -13z"/>
</g>
</svg>
