<?xml version="1.0" standalone="no"?>
<!DOCTYPE svg PUBLIC "-//W3C//DTD SVG 20010904//EN"
 "http://www.w3.org/TR/2001/REC-SVG-20010904/DTD/svg10.dtd">
<svg version="1.0" xmlns="http://www.w3.org/2000/svg"
 width="244.000000pt" height="305.000000pt" viewBox="0 0 244.000000 305.000000"
 preserveAspectRatio="xMidYMid meet">
<metadata>
Created by potrace 1.16, written by Peter Selinger 2001-2019
</metadata>
<g transform="translate(0.000000,305.000000) scale(0.100000,-0.100000)"
fill="#000000" stroke="none">
<path d="M898 2904 c-9 -14 -45 -198 -62 -314 -19 -128 -36 -394 -36 -553 l0
-117 28 -11 c15 -6 39 -22 54 -36 l26 -25 22 25 c12 14 36 31 52 38 l30 12 -6
181 c-12 318 -39 571 -75 691 -14 46 -13 15 4 -71 30 -162 47 -335 52 -549 l6
-221 -41 -27 c-23 -15 -44 -27 -47 -27 -3 0 -5 219 -4 488 0 281 4 479 9 467
l9 -20 0 20 c0 28 -14 61 -21 49z"/>
<path d="M1331 2894 c0 -11 3 -14 6 -6 3 7 2 16 -1 19 -3 4 -6 -2 -5 -13z"/>
<path d="M1546 2833 c-46 -206 -85 -582 -86 -825 l0 -78 41 -27 c23 -16 47
-32 54 -37 8 -6 30 2 65 25 l53 34 -7 215 c-4 118 -11 256 -16 305 -15 134
-53 373 -58 353 -2 -10 4 -60 12 -111 25 -142 44 -366 47 -532 3 -213 4 -206
-38 -233 -19 -12 -38 -20 -42 -17 -8 9 -11 470 -4 730 3 123 9 211 14 200 7
-19 8 -19 8 3 1 12 -4 22 -10 22 -6 0 -8 9 -4 20 3 11 2 20 -4 20 -5 0 -16
-30 -25 -67z"/>
<path d="M1341 2360 c-2 -287 -6 -454 -12 -436 -4 17 -11 93 -14 170 -4 78
-11 173 -16 211 -6 39 -12 81 -14 95 -6 44 -37 174 -45 188 -8 16 -30 -60 -57
-198 l-18 -95 -6 150 c-4 83 -7 192 -8 243 -1 70 -4 93 -13 89 -7 -2 -12 -15
-10 -28 9 -69 9 -841 0 -825 -5 9 -13 56 -17 104 -5 48 -9 78 -10 67 l-2 -20
-9 20 c-7 18 -9 18 -20 -10 -6 -16 -14 -67 -17 -112 -6 -78 -5 -84 17 -101 14
-11 20 -24 16 -31 -6 -9 -13 -8 -27 5 -26 23 -84 22 -111 -2 -11 -11 -25 -32
-32 -48 l-12 -30 -21 36 c-12 20 -33 44 -47 53 -53 35 -133 -8 -124 -67 3 -20
8 -23 40 -20 43 4 83 -18 104 -59 13 -27 13 -30 -6 -46 -38 -33 -16 -123 50
-211 22 -29 40 -58 40 -65 0 -6 -16 -32 -35 -56 -43 -54 -44 -81 -4 -115 41
-35 86 -35 95 0 4 14 2 30 -5 37 -13 13 -14 56 -2 76 7 12 13 12 24 3 7 -7 17
-9 20 -5 17 16 8 -95 -9 -129 -19 -36 -54 -56 -55 -31 0 14 -2 13 -9 -5 -13
-32 -33 -27 -74 18 -38 42 -52 79 -42 107 4 9 2 40 -5 67 -19 85 -26 96 -57
96 -41 0 -62 -28 -62 -81 0 -45 11 -69 113 -234 27 -44 31 -62 38 -157 4 -59
10 -111 13 -117 7 -11 -292 -376 -301 -367 -2 2 14 34 35 72 22 38 53 94 69
124 17 30 58 107 92 170 59 107 63 119 59 167 -5 59 -53 163 -96 209 -68 71
-82 160 -37 226 l25 38 -20 20 c-31 31 -102 28 -128 -5 -19 -24 -19 -28 -5
-83 8 -31 17 -87 20 -124 5 -66 5 -68 -28 -97 -29 -27 -31 -33 -21 -55 14 -32
17 -31 -180 -102 -145 -53 -200 -65 -148 -32 14 9 93 57 175 108 198 122 191
114 171 180 -9 30 -16 72 -17 94 0 23 -4 50 -8 60 -13 35 -19 -4 -12 -91 l6
-81 -36 1 c-34 2 -50 -10 -228 -172 -105 -96 -190 -175 -188 -177 4 -4 87 20
177 51 36 13 122 42 193 66 113 38 127 45 127 65 0 31 15 38 53 24 61 -24 105
-61 121 -101 22 -54 21 -56 -20 -69 -38 -13 -40 -16 -77 -135 -101 -321 -138
-447 -134 -451 4 -4 172 183 336 374 54 63 62 78 56 100 -16 68 -18 67 73 70
46 2 82 -1 82 -6 0 -6 8 -9 18 -8 22 1 22 -11 -14 -216 -16 -92 -32 -161 -36
-155 -4 7 -8 -7 -8 -29 0 -23 -2 -57 -5 -75 -5 -29 -4 -31 4 -9 5 14 21 70 36
125 14 55 31 113 38 129 12 33 7 52 92 -366 21 -104 39 -187 41 -185 3 3 68
315 96 459 20 108 31 124 43 67 4 -17 9 -28 12 -26 2 3 0 22 -6 43 -5 22 -12
55 -14 75 -2 19 -9 45 -16 56 -13 25 -14 72 -2 92 11 18 17 6 25 -54 4 -27 16
-96 27 -153 22 -119 24 -168 4 -107 -24 72 -15 12 15 -95 24 -90 29 -99 29
-62 1 23 -3 42 -8 42 -4 0 -6 11 -4 23 4 20 -16 261 -32 394 -2 18 1 35 6 39
17 10 139 8 150 -3 6 -6 6 -19 -1 -37 -21 -56 -30 -43 248 -349 68 -76 127
-136 129 -133 2 2 -10 51 -27 108 -106 349 -133 434 -141 444 -5 7 -23 14 -39
18 -23 4 -30 11 -30 29 0 41 52 101 110 126 59 25 80 22 80 -12 0 -21 15 -28
178 -81 97 -32 201 -67 231 -77 29 -11 56 -18 58 -15 5 4 -88 95 -242 237
-126 116 -117 110 -152 104 l-33 -6 7 91 c4 65 3 90 -6 90 -6 0 -11 -13 -11
-28 0 -16 -3 -64 -7 -106 l-6 -78 45 7 46 7 73 -69 c41 -37 105 -99 144 -137
l70 -68 -65 35 c-36 19 -123 69 -194 110 -170 98 -191 135 -146 255 25 66 25
97 0 122 -26 26 -89 27 -120 2 l-23 -19 28 -47 c23 -39 27 -55 23 -96 -5 -50
-15 -67 -95 -174 -41 -55 -54 -127 -34 -189 10 -29 19 -37 56 -47 l45 -13 36
-116 c19 -64 49 -157 65 -206 40 -123 36 -133 -15 -45 -24 41 -88 152 -142
245 -122 209 -125 227 -55 345 89 151 101 175 101 210 0 47 -24 80 -58 80 -15
0 -32 -4 -38 -8 -13 -8 -27 -99 -26 -155 2 -43 -8 -66 -46 -108 -28 -32 -57
-38 -66 -13 -8 21 1 34 23 34 24 0 61 41 61 67 0 19 -26 58 -67 101 -11 11 -5
25 31 75 43 61 76 138 76 177 0 11 -9 28 -20 37 -28 24 -25 34 16 77 32 33 41
37 78 34 40 -3 41 -2 39 26 -3 44 -29 66 -78 66 -46 0 -75 -23 -95 -75 l-11
-29 -18 39 c-10 22 -26 47 -35 54 -24 20 -83 17 -107 -5 -18 -16 -19 -16 -19
5 0 12 7 24 15 27 18 7 19 54 4 160 -10 65 -14 75 -24 60 -10 -14 -14 26 -19
211 -16 524 -23 539 -25 53z m-66 -19 c25 -188 34 -450 18 -483 -15 -30 -18
-102 -4 -94 15 10 19 -18 5 -32 -21 -19 -27 6 -19 75 11 101 17 288 8 279 -4
-4 -11 -58 -14 -119 -5 -104 -6 -98 -7 68 -1 99 -5 239 -8 310 -4 72 -4 128
-1 125 4 -3 13 -61 22 -129z m-202 -577 c28 -5 37 -11 37 -26 0 -21 1 -21 -64
-1 -17 6 -18 2 -12 -28 10 -50 29 -65 62 -50 23 10 26 10 20 -4 -3 -9 -6 -29
-6 -45 0 -21 -6 -29 -25 -34 -15 -4 -30 -18 -36 -32 -8 -23 -11 -24 -26 -13
-20 18 -52 87 -53 115 0 12 -7 24 -15 28 -25 9 -17 42 16 70 32 28 42 29 102
20z m427 -23 c32 -32 38 -58 16 -67 -8 -3 -17 -22 -21 -42 -7 -39 -41 -102
-55 -102 -5 0 -17 11 -28 25 -11 14 -27 25 -35 25 -11 0 -16 13 -18 44 -4 42
-3 43 18 33 28 -13 49 3 58 44 9 38 4 43 -29 28 -19 -9 -30 -9 -38 -1 -21 21
-1 37 51 40 46 2 55 -1 81 -27z m-195 -63 c-7 -40 -18 -57 -37 -58 -5 0 -7 19
-7 43 1 23 3 33 6 22 7 -30 23 -43 23 -18 0 24 9 53 17 53 3 0 2 -19 -2 -42z
m-385 -76 c0 -22 66 -121 86 -129 8 -3 14 -18 14 -36 l0 -31 -31 30 c-50 48
-109 161 -91 178 11 12 22 6 22 -12z m217 -14 c-3 -7 -5 -2 -5 12 0 14 2 19 5
13 2 -7 2 -19 0 -25z m407 -68 c-15 -27 -44 -65 -64 -84 -61 -56 -64 -21 -4
46 18 21 46 61 61 90 26 49 28 51 31 26 2 -17 -8 -48 -24 -78z m-355 76 c8
-10 8 -16 -2 -25 -16 -13 -27 -5 -27 21 0 21 13 23 29 4z m121 -5 c0 -23 -16
-36 -25 -21 -9 14 1 40 15 40 5 0 10 -9 10 -19z m-189 -88 c5 -13 9 -33 9 -44
0 -18 -1 -19 -25 -3 -18 12 -25 25 -25 50 0 26 3 32 16 27 8 -3 20 -17 25 -30z
m121 -3 c-6 -39 -9 -38 -14 4 -2 22 0 32 7 29 6 -2 9 -17 7 -33z m148 1 c0
-20 -8 -34 -25 -45 -24 -16 -25 -15 -25 3 0 33 19 71 35 71 10 0 15 -10 15
-29z m-76 -48 c-4 -16 -10 -32 -15 -37 -5 -5 -4 6 1 25 6 18 10 35 10 36 0 2
2 3 5 3 3 0 2 -12 -1 -27z m-277 -50 c-3 -10 -5 -4 -5 12 0 17 2 24 5 18 2 -7
2 -21 0 -30z m40 -15 c-3 -8 -6 -5 -6 6 -1 11 2 17 5 13 3 -3 4 -12 1 -19z
m333 12 c0 -5 -5 -10 -11 -10 -5 0 -7 5 -4 10 3 6 8 10 11 10 2 0 4 -4 4 -10z
m-275 -20 c3 -5 3 -15 -1 -21 -6 -11 -23 6 -24 24 0 10 18 9 25 -3z m223 -7
c-5 -25 -28 -28 -28 -4 0 12 6 21 16 21 9 0 14 -7 12 -17z m130 -79 c2 -37 1
-38 -11 -16 -7 12 -16 19 -20 16 -4 -4 -7 2 -7 13 0 51 34 40 38 -13z m-315
21 c4 -8 2 -17 -3 -20 -6 -4 -10 3 -10 14 0 25 6 27 13 6z m137 -7 c0 -16 -3
-19 -11 -11 -6 6 -8 16 -5 22 11 17 16 13 16 -11z m148 -115 c7 -13 9 -23 4
-23 -14 0 -32 65 -31 111 2 44 2 44 8 -11 4 -30 12 -65 19 -77z m-365 52 l6
-50 -14 50 c-17 59 -19 73 -6 60 5 -6 11 -32 14 -60z m296 -6 c-7 -35 -14 -58
-17 -51 -4 14 18 125 25 119 2 -3 -1 -34 -8 -68z m-32 19 c-3 -8 -6 -5 -6 6
-1 11 2 17 5 13 3 -3 4 -12 1 -19z m-199 -50 c7 11 11 10 20 -1 9 -11 6 -19
-13 -37 l-24 -23 -11 27 c-5 15 -10 35 -10 44 0 13 2 13 15 -4 11 -15 17 -16
23 -6z m182 -32 c-8 -23 -13 -25 -29 -16 -26 13 -32 25 -25 44 8 20 24 21 24
1 0 -23 21 -18 28 8 4 15 7 17 9 6 2 -8 -1 -28 -7 -43z m17 -98 c-3 -8 -6 -5
-6 6 -1 11 2 17 5 13 3 -3 4 -12 1 -19z m-120 -160 c-3 -8 -6 -5 -6 6 -1 11 2
17 5 13 3 -3 4 -12 1 -19z m93 -50 c0 -23 -3 -29 -11 -21 -6 6 -8 20 -4 32 9
30 15 26 15 -11z m-170 -9 c0 -10 -4 -19 -10 -19 -5 0 -10 12 -10 26 0 14 4
23 10 19 6 -3 10 -15 10 -26z m157 -39 c26 -30 28 -54 9 -129 -8 -31 -22 -99
-31 -151 -10 -52 -24 -117 -31 -145 -12 -46 -13 -39 -6 85 4 74 7 192 7 262
-1 138 0 138 52 78z"/>
<path d="M1322 2730 c0 -19 2 -27 5 -17 2 9 2 25 0 35 -3 9 -5 1 -5 -18z"/>
<path d="M1113 2525 c0 -33 2 -45 4 -27 2 18 2 45 0 60 -2 15 -4 0 -4 -33z"/>
<path d="M1313 2540 c0 -25 2 -35 4 -22 2 12 2 32 0 45 -2 12 -4 2 -4 -23z"/>
<path d="M1000 1285 c0 -8 7 -15 15 -15 8 0 15 7 15 15 0 8 -7 15 -15 15 -8 0
-15 -7 -15 -15z"/>
<path d="M1063 855 c0 -22 2 -30 4 -17 2 12 2 30 0 40 -3 9 -5 -1 -4 -23z"/>
<path d="M1052 750 c0 -14 2 -19 5 -12 2 6 2 18 0 25 -3 6 -5 1 -5 -13z"/>
<path d="M1042 640 c0 -19 2 -27 5 -17 2 9 2 25 0 35 -3 9 -5 1 -5 -18z"/>
</g>
</svg>
