<?xml version="1.0" standalone="no"?>
<!DOCTYPE svg PUBLIC "-//W3C//DTD SVG 20010904//EN"
 "http://www.w3.org/TR/2001/REC-SVG-20010904/DTD/svg10.dtd">
<svg version="1.0" xmlns="http://www.w3.org/2000/svg"
 width="244.000000pt" height="305.000000pt" viewBox="0 0 244.000000 305.000000"
 preserveAspectRatio="xMidYMid meet">
<metadata>
Created by potrace 1.16, written by Peter Selinger 2001-2019
</metadata>
<g transform="translate(0.000000,305.000000) scale(0.100000,-0.100000)"
fill="#000000" stroke="none">
<path d="M1082 2895 c0 -16 2 -22 5 -12 2 9 2 23 0 30 -3 6 -5 -1 -5 -18z"/>
<path d="M1531 2854 c-15 -75 -12 -93 4 -29 11 43 13 -20 14 -437 1 -269 -1
-488 -5 -488 -3 0 -21 12 -40 28 l-34 27 0 171 c0 163 18 409 40 539 14 86 10
112 -5 35 -23 -108 -44 -343 -51 -565 l-7 -210 29 -13 c15 -8 34 -22 42 -33
14 -20 52 -27 52 -9 0 5 18 21 40 35 l40 25 0 98 c-1 296 -62 834 -100 875 -4
4 -12 -18 -19 -49z"/>
<path d="M906 2869 c-8 -43 -6 -58 4 -34 5 12 9 -182 9 -457 1 -263 -1 -478
-4 -478 -3 0 -21 10 -41 23 l-36 22 6 245 c3 135 10 277 15 315 5 39 14 106
20 150 6 44 13 96 16 115 2 19 -2 10 -10 -20 -30 -115 -65 -513 -65 -738 0
-79 3 -94 18 -99 9 -4 32 -19 51 -35 l33 -29 27 24 c14 14 37 30 50 37 l24 12
-7 197 c-9 261 -15 348 -32 461 -24 163 -56 320 -64 320 -4 0 -10 -14 -14 -31z"/>
<path d="M1382 2875 c0 -16 2 -22 5 -12 2 9 2 23 0 30 -3 6 -5 -1 -5 -18z"/>
<path d="M1072 2820 c-34 -368 -44 -869 -17 -920 8 -16 22 -33 32 -38 10 -6
14 -16 9 -27 -5 -15 -9 -14 -27 9 -11 14 -29 26 -40 26 -17 0 -79 -26 -79 -33
0 -1 -7 -20 -14 -42 l-14 -39 -15 34 c-8 19 -23 42 -33 52 -51 44 -134 11
-134 -53 0 -29 1 -29 40 -23 35 6 43 3 70 -24 30 -31 41 -77 18 -84 -19 -7
-10 -98 17 -156 36 -77 35 -168 -1 -207 -25 -27 -25 -27 -22 -4 2 23 -8 105
-19 142 -7 28 -61 18 -86 -15 -18 -24 -19 -31 -8 -75 7 -26 26 -69 42 -96 37
-61 39 -95 3 -52 -41 49 -76 113 -85 157 -8 35 -6 47 16 89 14 27 25 55 25 63
0 31 -79 48 -120 26 -28 -15 -31 -51 -10 -126 11 -38 20 -80 20 -94 0 -42 -32
-88 -85 -121 -77 -49 -270 -166 -296 -179 -13 -7 37 49 111 125 l135 136 47
-6 47 -6 -6 83 c-9 124 -23 151 -20 41 l2 -93 -32 6 c-29 6 -40 -3 -207 -167
-97 -94 -175 -174 -173 -176 2 -2 96 29 208 68 112 39 212 73 222 76 9 3 17
13 17 22 0 9 4 22 9 30 13 20 94 -13 126 -51 l25 -29 -30 -59 c-17 -33 -29
-63 -28 -67 2 -9 -13 -62 -53 -193 -35 -116 -98 -344 -95 -347 2 -3 104 115
263 306 67 80 117 148 112 151 -5 3 -12 20 -15 38 -6 28 -3 33 20 42 15 5 30
10 33 10 7 0 -1 -78 -38 -339 -17 -117 -29 -215 -26 -217 2 -2 20 38 40 89
142 359 139 350 133 400 -4 35 -2 47 8 47 13 0 76 -58 76 -70 0 -3 -13 -19
-30 -35 -16 -16 -30 -35 -30 -43 0 -8 28 -157 62 -331 51 -260 63 -310 70
-281 13 59 106 542 113 585 5 36 3 43 -25 70 -37 36 -37 44 -2 78 44 42 60 36
54 -21 -4 -42 5 -71 82 -257 81 -196 86 -206 80 -150 -4 33 -10 78 -15 100 -8
38 -8 38 -4 -9 3 -27 3 -48 1 -45 -5 5 -106 394 -106 408 0 15 47 14 53 -1 4
-10 6 -10 6 0 1 7 15 12 37 12 39 0 40 -2 18 -76 -5 -17 17 -49 102 -150 59
-71 124 -147 143 -170 20 -22 56 -64 80 -93 24 -28 46 -50 48 -47 4 4 -12 61
-116 419 -23 76 -50 151 -61 167 -35 49 -35 81 -3 112 30 29 109 62 124 52 5
-3 9 -16 9 -29 0 -19 9 -26 58 -43 31 -11 135 -48 231 -81 96 -34 176 -60 178
-58 2 2 -78 82 -178 178 -165 158 -185 174 -215 172 l-32 -2 5 97 c3 70 2 93
-6 82 -6 -8 -11 -30 -11 -49 0 -18 -7 -64 -17 -102 -9 -38 -14 -71 -12 -73 2
-2 87 -58 189 -126 198 -131 206 -136 175 -128 -30 9 -338 128 -343 133 -3 3
0 17 7 31 11 25 9 29 -20 53 -42 35 -48 93 -20 175 39 109 23 156 -50 156 -46
0 -79 -14 -79 -34 0 -8 11 -34 25 -57 14 -24 25 -56 25 -70 0 -38 -26 -96 -74
-161 -69 -95 -74 -67 -8 45 60 100 48 187 -24 187 -29 0 -36 -12 -47 -75 -11
-68 -12 -87 -3 -108 5 -10 4 -17 -3 -17 -7 0 -15 8 -18 17 -4 10 -15 29 -25
42 -26 34 -25 123 2 166 21 34 50 118 50 146 0 9 -9 26 -20 39 -17 20 -18 25
-6 49 25 47 50 63 98 59 38 -2 43 0 46 20 5 31 -48 82 -85 82 -32 0 -76 -39
-88 -77 -9 -32 -19 -29 -34 12 -13 36 -53 65 -90 65 -11 0 -29 -12 -41 -27
-17 -22 -23 -24 -30 -13 -10 16 -4 30 13 30 7 0 20 13 30 29 15 25 17 55 15
223 l-2 193 -6 -185 c-3 -102 -7 -171 -8 -155 -1 17 -9 65 -17 108 -11 59 -15
164 -16 425 l-2 347 -13 -135 c-7 -74 -16 -288 -20 -475 -4 -187 -10 -349 -14
-359 -4 -11 -10 54 -14 143 -4 90 -14 216 -21 280 -13 106 -49 288 -59 298 -5
5 -42 -151 -55 -237 -13 -79 -31 -332 -31 -432 0 -51 -3 -68 -10 -58 -5 8 -10
56 -11 105 -1 63 -4 81 -9 60 l-8 -30 -1 27 c0 15 -7 39 -13 55 -9 20 -15 133
-18 393 -3 201 -7 354 -8 340z m129 -695 c-5 -205 -8 -247 -15 -200 -12 81 4
482 19 463 1 -2 -1 -120 -4 -263z m-24 -367 c-2 -18 -4 -4 -4 32 0 36 2 50 4
33 2 -18 2 -48 0 -65z m-130 -95 c2 -48 8 -103 13 -120 5 -18 5 -33 1 -33 -23
0 -71 85 -71 125 0 14 -7 28 -15 31 -18 7 -20 37 -4 65 12 23 50 41 63 29 5
-5 10 -48 13 -97z m447 75 c19 -27 20 -52 3 -66 -7 -6 -14 -23 -15 -38 -1 -16
-17 -52 -34 -81 -33 -54 -55 -70 -42 -31 4 13 8 54 10 93 3 58 10 132 13 143
1 1 12 2 25 2 14 0 32 -10 40 -22z m-344 -89 c0 -22 6 -32 23 -38 13 -5 32
-25 41 -45 9 -20 19 -36 21 -36 3 0 11 16 19 35 9 20 26 39 41 45 19 7 25 17
25 39 0 16 4 32 9 35 12 8 21 -18 21 -60 0 -34 -3 -37 -65 -46 -14 -2 -24 -18
-35 -57 l-17 -53 -14 53 c-13 51 -16 54 -52 60 -20 3 -40 9 -43 12 -8 8 -8 73
1 87 11 18 25 1 25 -31z m46 -6 c-5 -12 -10 -13 -17 -6 -8 8 -7 18 2 34 12 21
14 22 17 6 2 -10 1 -25 -2 -34z m-253 -60 c15 -38 14 -53 -3 -53 -8 0 -30 61
-30 83 0 21 20 2 33 -30z m144 5 c-3 -7 -5 -2 -5 12 0 14 2 19 5 13 2 -7 2
-19 0 -25z m469 16 c-3 -9 -6 -23 -6 -32 0 -28 -18 -48 -30 -36 -13 13 14 84
31 84 6 0 8 -7 5 -16z m-169 -16 c-3 -8 -6 -5 -6 6 -1 11 2 17 5 13 3 -3 4
-12 1 -19z m-267 -88 c0 -10 5 -22 10 -25 6 -3 10 -14 10 -23 -1 -14 -4 -13
-20 7 -20 24 -28 77 -10 66 6 -3 10 -15 10 -25z m260 25 c0 -16 -29 -72 -43
-83 -13 -11 -11 -3 6 37 11 28 25 51 29 51 4 0 8 -2 8 -5z m-357 -60 c7 -16
-8 -29 -23 -20 -10 6 -2 35 10 35 4 0 10 -7 13 -15z m447 -12 c0 -20 -3 -24
-11 -16 -7 7 -9 19 -6 27 10 24 17 19 17 -11z m-370 -70 c0 -7 -4 -13 -9 -13
-17 0 -41 31 -41 52 0 21 0 21 25 -2 14 -13 25 -29 25 -37z m-160 -13 c0 -26
-3 -31 -10 -20 -5 8 -10 31 -10 50 0 26 3 31 10 20 5 -8 10 -31 10 -50z m480
46 c0 -16 -26 -46 -41 -46 -14 0 -11 22 8 42 19 22 33 23 33 4z m-240 -44 c0
-23 -17 -4 -23 25 -5 26 -4 26 9 8 8 -10 14 -25 14 -33z m360 11 c0 -27 -3
-34 -11 -26 -7 7 -9 23 -5 37 9 37 16 32 16 -11z m-234 -10 c-11 -11 -17 4 -9
23 7 18 8 18 11 1 2 -10 1 -21 -2 -24z m-284 -121 c20 -65 21 -72 10 -72 -7 0
-42 114 -42 136 0 19 16 -12 32 -64z m69 -53 c21 -13 27 -11 34 10 9 30 60 13
60 -20 0 -19 -4 -23 -23 -21 -13 2 -32 -4 -43 -14 -17 -16 -19 -16 -19 -1 0
10 -4 17 -9 17 -11 0 -30 47 -32 80 -5 58 4 70 11 16 4 -32 14 -62 21 -67z
m364 30 c-24 -73 -31 -52 -9 27 12 40 20 58 22 45 2 -12 -4 -44 -13 -72z
m-285 72 c0 -5 -9 -12 -19 -16 -11 -3 -22 -14 -24 -23 -3 -10 -5 -6 -6 10 -1
24 7 32 42 37 4 0 7 -3 7 -8z m150 -1 c0 -5 -4 -10 -10 -10 -5 0 -10 5 -10 10
0 6 5 10 10 10 6 0 10 -4 10 -10z m88 -45 c-6 -71 -39 -113 -71 -90 -15 11
-24 12 -34 4 -15 -13 -29 11 -20 35 7 19 55 26 61 10 17 -43 64 22 52 71 -4
16 -2 25 5 25 8 0 10 -18 7 -55z m-58 35 c0 -5 -4 -10 -10 -10 -5 0 -10 5 -10
10 0 6 5 10 10 10 6 0 10 -4 10 -10z m240 -69 c0 -10 -7 -24 -15 -31 -12 -10
-16 -9 -21 4 -6 16 11 46 27 46 5 0 9 -8 9 -19z m-679 -44 c-8 -8 -11 -7 -11
4 0 20 13 34 18 19 3 -7 -1 -17 -7 -23z m729 -34 c0 -5 -4 -15 -10 -23 -11
-18 -25 -7 -17 15 6 15 27 21 27 8z m-770 -49 c0 -15 -6 -24 -15 -24 -17 0
-18 4 -9 37 8 29 24 20 24 -13z m740 -85 c0 -40 13 -69 173 -369 27 -52 56
-104 64 -115 15 -22 17 -39 4 -31 -5 3 -53 61 -107 128 -54 68 -101 125 -104
128 -3 3 -23 27 -43 53 -30 41 -34 52 -26 73 5 14 9 58 9 98 0 40 3 76 6 79
14 13 24 -6 24 -44z m-724 9 c-3 -17 -12 -43 -19 -57 -34 -66 -218 -403 -237
-433 l-21 -33 6 30 c3 17 32 115 63 219 l57 189 45 17 c36 14 47 25 62 59 22
51 54 58 44 9z m-106 -13 c-7 -9 -15 -13 -18 -10 -3 2 1 11 8 20 7 9 15 13 18
10 3 -2 -1 -11 -8 -20z m467 -49 c14 18 15 18 8 -6 -12 -40 -23 -46 -35 -16
-13 35 -12 46 2 22 11 -19 11 -19 25 0z m-174 -63 c4 -41 -4 -70 -61 -220 -36
-95 -67 -171 -69 -170 -1 2 16 75 38 162 23 88 45 180 50 205 18 87 34 96 42
23z m114 -74 c-11 -28 -12 -56 0 -169 19 -197 12 -215 -21 -50 -16 80 -31 154
-33 165 -2 12 8 35 28 58 37 45 45 43 26 -4z m20 -391 c-3 -8 -6 -5 -6 6 -1
11 2 17 5 13 3 -3 4 -12 1 -19z"/>
<path d="M1092 2800 c0 -14 2 -19 5 -12 2 6 2 18 0 25 -3 6 -5 1 -5 -13z"/>
<path d="M1103 2690 c0 -25 2 -35 4 -22 2 12 2 32 0 45 -2 12 -4 2 -4 -23z"/>
<path d="M1401 2664 c0 -11 3 -14 6 -6 3 7 2 16 -1 19 -3 4 -6 -2 -5 -13z"/>
<path d="M1113 2540 c0 -30 2 -43 4 -27 2 15 2 39 0 55 -2 15 -4 2 -4 -28z"/>
<path d="M1411 2494 c0 -11 3 -14 6 -6 3 7 2 16 -1 19 -3 4 -6 -2 -5 -13z"/>
<path d="M1124 2275 c0 -88 2 -123 3 -77 2 46 2 118 0 160 -1 42 -3 5 -3 -83z"/>
<path d="M1482 870 c0 -19 2 -27 5 -17 2 9 2 25 0 35 -3 9 -5 1 -5 -18z"/>
<path d="M1492 805 c0 -16 5 -64 12 -105 8 -41 14 -64 14 -50 0 14 -5 61 -13
105 -7 44 -13 67 -13 50z"/>
</g>
</svg>
