<?xml version="1.0" standalone="no"?>
<!DOCTYPE svg PUBLIC "-//W3C//DTD SVG 20010904//EN"
 "http://www.w3.org/TR/2001/REC-SVG-20010904/DTD/svg10.dtd">
<svg version="1.0" xmlns="http://www.w3.org/2000/svg"
 width="244.000000pt" height="305.000000pt" viewBox="0 0 244.000000 305.000000"
 preserveAspectRatio="xMidYMid meet">
<metadata>
Created by potrace 1.16, written by Peter Selinger 2001-2019
</metadata>
<g transform="translate(0.000000,305.000000) scale(0.100000,-0.100000)"
fill="#000000" stroke="none">
<path d="M961 2905 c0 -5 -3 -152 -5 -325 -3 -173 -8 -392 -12 -487 l-7 -171
-24 15 c-22 15 -23 19 -25 177 l-2 161 -6 -170 -5 -170 40 -38 40 -38 -51 6
c-62 6 -93 -13 -97 -60 -2 -28 1 -30 33 -33 40 -4 90 -45 90 -74 0 -11 -6 -31
-14 -46 -17 -32 -4 -116 25 -168 l18 -32 -32 -5 c-40 -6 -52 5 -37 34 11 20
10 25 -8 40 -25 19 -158 25 -179 7 -18 -15 -16 -91 4 -155 16 -52 16 -55 -3
-91 -38 -73 -96 -126 -261 -239 -34 -24 -65 -43 -68 -43 -10 0 20 39 77 99 29
31 75 82 102 114 48 56 51 58 87 52 l37 -7 -5 99 c-3 54 -10 103 -16 108 -6 7
-8 -21 -4 -83 l6 -93 -28 6 c-24 5 -33 -1 -72 -47 -24 -29 -75 -86 -114 -128
-121 -132 -156 -172 -151 -177 2 -3 44 12 93 32 48 20 99 40 112 43 l24 5 -28
-37 c-15 -20 -24 -36 -20 -36 4 0 78 36 164 79 87 44 162 77 168 73 16 -10 43
-68 43 -92 0 -13 -9 -24 -25 -30 -14 -5 -30 -20 -35 -32 -15 -34 -141 -539
-138 -549 4 -11 108 126 108 141 0 5 5 10 11 10 12 0 10 -31 -7 -110 -4 -19
-4 -32 0 -28 4 3 64 100 132 215 l126 208 -6 52 -6 53 42 0 c88 0 141 -63 99
-116 -12 -15 -21 -36 -21 -48 0 -26 99 -628 104 -633 5 -5 13 42 67 384 l43
273 -29 30 -29 30 21 28 c27 37 59 52 112 52 l44 0 -7 -54 -6 -55 88 -148 c49
-81 105 -173 124 -203 19 -30 38 -64 42 -75 15 -38 16 1 2 68 -7 37 -10 67 -6
67 3 0 30 -32 58 -72 29 -39 52 -68 52 -65 0 14 -131 534 -140 555 -5 12 -16
22 -24 22 -42 0 -44 63 -2 115 23 28 25 29 43 13 24 -22 324 -171 330 -164 3
3 -5 17 -17 33 -12 15 -17 29 -11 31 5 2 42 -10 82 -27 40 -17 74 -29 76 -27
4 4 -190 231 -256 299 -36 37 -51 47 -68 42 -23 -5 -23 -3 -25 87 -1 51 -3 75
-5 53 -2 -22 -8 -64 -14 -94 -10 -48 -12 -52 -26 -38 -14 14 -14 22 1 81 33
132 20 156 -84 156 -76 0 -84 -5 -82 -58 1 -31 -1 -34 -23 -28 -35 9 -55 -17
-55 -70 0 -49 -10 -56 -29 -20 -12 22 -10 30 24 84 48 78 68 181 42 210 -17
18 -17 22 -1 55 18 37 62 64 89 54 22 -9 28 9 15 48 -12 35 -18 39 -82 50 -46
7 -47 15 -7 39 l31 19 -6 196 c-9 256 -22 426 -46 586 -27 179 -31 199 -41
183 -12 -18 -11 -60 1 -53 13 8 14 -117 1 -130 -5 -6 -5 -161 1 -370 10 -364
6 -423 -25 -412 -16 5 -22 564 -7 698 20 172 22 204 14 196 -5 -4 -11 -29 -15
-55 -6 -33 -7 -20 -5 46 6 189 -18 76 -50 -228 -7 -74 -17 -241 -21 -370 -4
-129 -8 -228 -9 -220 -2 8 -5 36 -9 61 -4 34 -11 48 -24 52 -17 4 -20 -6 -30
-86 -7 -50 -14 -93 -17 -96 -2 -2 -4 49 -4 115 0 177 -29 456 -57 548 -9 31
-19 2 -37 -104 -23 -136 -35 -276 -37 -420 -1 -125 -8 -127 -24 -9 -4 34 -11
48 -24 52 -15 4 -20 -3 -27 -37 -7 -33 -10 -13 -14 99 l-6 140 -2 -182 c-1
-101 -6 -183 -11 -183 -4 0 -11 84 -15 188 -4 103 -12 257 -19 342 -6 85 -12
214 -12 287 0 73 -3 125 -7 115 -4 -9 -7 -28 -7 -41 -1 -35 -14 -17 -27 37 -7
26 -12 43 -13 37z m468 -1012 c26 -32 23 -35 -18 -27 -22 5 -30 11 -27 21 4 8
6 19 6 24 0 17 19 9 39 -18z m-349 2 c0 -8 5 -15 10 -15 6 0 10 -4 10 -8 0 -5
-13 -7 -30 -4 -33 5 -37 11 -18 30 16 16 28 15 28 -3z m-80 -40 c0 -8 -4 -15
-9 -15 -13 0 -22 16 -14 24 11 11 23 6 23 -9z m490 -12 c0 -13 -3 -13 -15 -3
-8 7 -12 16 -9 21 8 13 24 1 24 -18z m-362 -8 c-3 -3 -9 2 -12 12 -6 14 -5 15
5 6 7 -7 10 -15 7 -18z m213 -16 c-9 -22 -10 -22 -10 -3 -1 11 2 24 6 27 12
12 14 0 4 -24z m-211 -74 c-3 -5 -17 -9 -32 -8 -24 1 -28 -2 -28 -23 0 -54 45
-85 78 -52 9 9 12 5 12 -19 0 -22 5 -32 20 -36 12 -3 28 -23 38 -48 l19 -44
12 38 c7 21 24 45 37 54 15 9 24 25 24 41 0 20 3 23 12 14 32 -32 78 -3 78 51
0 21 -4 24 -32 23 -17 0 -33 5 -35 12 -3 8 8 12 35 12 22 0 44 -6 49 -12 18
-23 21 -56 8 -75 -7 -10 -15 -39 -19 -65 -8 -50 -18 -57 -50 -33 -43 32 -87 3
-107 -70 -11 -39 -12 -40 -22 -15 -42 102 -56 112 -109 86 -39 -20 -49 -12
-55 48 -3 25 -10 46 -14 46 -13 0 -11 35 3 65 10 22 17 26 47 23 20 -2 34 -7
31 -13z m28 -230 c16 -16 40 -165 27 -165 -13 0 -83 40 -94 54 -18 22 -2 20
34 -4 66 -44 75 -6 15 66 -22 27 -40 53 -40 57 0 8 49 1 58 -8z m212 6 c0 -6
-18 -31 -40 -56 -22 -25 -40 -39 -40 -31 0 25 20 70 37 84 20 14 43 16 43 3z
m-381 -152 c-15 -28 -29 -9 -29 40 l0 34 21 -26 c16 -22 18 -30 8 -48z m396
41 c-10 -11 -38 -31 -62 -44 l-43 -25 0 24 c0 17 5 22 18 19 9 -3 35 8 57 25
43 32 59 33 30 1z m-580 -65 c5 -68 5 -69 -9 -35 -16 40 -21 129 -7 115 6 -6
12 -41 16 -80z m882 20 c-5 -37 -17 -42 -17 -7 0 18 5 32 10 32 6 0 9 -11 7
-25z m-555 -62 c23 -4 26 -8 18 -23 -16 -30 -12 -50 14 -59 35 -14 40 -38 11
-57 -22 -15 -26 -15 -40 0 -19 19 -27 19 -79 5 -31 -8 -41 -8 -47 3 -6 9 0 14
24 18 l32 5 -3 64 c-3 62 -3 63 20 56 13 -4 35 -9 50 -12z m163 7 c3 -5 1 -10
-4 -10 -6 0 -11 5 -11 10 0 6 2 10 4 10 3 0 8 -4 11 -10z m113 -52 l-3 -63 39
-5 c36 -5 38 -6 22 -19 -14 -12 -23 -12 -50 -3 -43 16 -62 15 -80 -4 -23 -22
-56 -9 -56 22 0 17 8 27 26 34 23 9 26 15 21 43 -5 30 -2 34 26 44 58 19 59
18 55 -49z m455 -130 c34 -44 34 -49 -2 -37 -45 16 -81 53 -74 77 3 13 -3 32
-16 48 -12 15 -21 31 -21 36 0 9 69 -66 113 -124z m-929 96 c3 -8 2 -12 -4 -9
-6 3 -10 10 -10 16 0 14 7 11 14 -7z m-184 -82 l23 -19 -64 -35 c-35 -19 -86
-47 -113 -62 -26 -15 -51 -25 -54 -22 -8 8 45 48 101 76 28 14 50 30 50 35 -1
15 16 45 26 45 5 0 19 -8 31 -18z m1215 -52 c41 -32 83 -63 93 -69 9 -5 14
-12 11 -15 -3 -4 -31 5 -61 18 -37 16 -68 41 -97 75 -24 28 -38 51 -32 51 6 0
45 -27 86 -60z m-764 -62 c8 -53 26 -91 39 -83 9 6 22 47 35 108 3 15 11 27
17 27 9 0 9 -3 0 -12 -7 -7 -12 -28 -12 -47 0 -38 -29 -104 -45 -104 -16 1
-45 66 -45 103 0 20 -6 42 -12 49 -11 11 -10 13 2 9 9 -3 18 -23 21 -50z
m-283 -8 c-4 -39 -28 -54 -28 -18 0 13 3 33 6 46 9 34 26 12 22 -28z m1033
-12 c11 -21 11 -21 -20 1 -17 12 -31 27 -31 32 0 16 38 -9 51 -33z m-389 -65
c9 -10 23 -34 31 -54 19 -46 59 -210 53 -216 -7 -7 -65 83 -92 143 -23 53 -33
144 -16 144 5 0 16 -8 24 -17z m-695 -10 c-3 -10 -10 -43 -17 -73 -6 -30 -15
-64 -19 -75 -26 -64 -135 -295 -138 -292 -4 4 78 322 103 399 9 26 23 49 32
51 35 9 43 7 39 -10z m124 5 c0 -2 2 -22 5 -46 5 -39 -2 -55 -72 -180 -78
-139 -132 -223 -119 -187 34 97 55 141 103 210 30 44 59 83 65 87 7 4 6 21 -3
51 -12 44 -8 67 11 67 5 0 9 -1 10 -2z m760 -408 c8 -21 5 -20 -21 10 -39 47
-58 87 -65 141 -5 42 -3 41 36 -41 23 -47 45 -96 50 -110z m-99 82 c19 -32 42
-120 27 -105 -13 13 -59 133 -50 133 3 0 14 -13 23 -28z"/>
<path d="M1021 2804 c0 -11 3 -14 6 -6 3 7 2 16 -1 19 -3 4 -6 -2 -5 -13z"/>
<path d="M920 2699 c-14 -101 -30 -297 -28 -364 0 -27 6 20 13 105 7 85 18
195 25 244 14 112 6 124 -10 15z"/>
<path d="M1033 2735 c0 -22 2 -30 4 -17 2 12 2 30 0 40 -3 9 -5 -1 -4 -23z"/>
<path d="M1043 2650 c0 -25 2 -35 4 -22 2 12 2 32 0 45 -2 12 -4 2 -4 -23z"/>
<path d="M1053 2550 c0 -25 2 -35 4 -22 2 12 2 32 0 45 -2 12 -4 2 -4 -23z"/>
<path d="M1063 2430 c0 -41 2 -58 4 -37 2 20 2 54 0 75 -2 20 -4 3 -4 -38z"/>
</g>
</svg>
