<?xml version="1.0" standalone="no"?>
<!DOCTYPE svg PUBLIC "-//W3C//DTD SVG 20010904//EN"
 "http://www.w3.org/TR/2001/REC-SVG-20010904/DTD/svg10.dtd">
<svg version="1.0" xmlns="http://www.w3.org/2000/svg"
 width="244.000000pt" height="305.000000pt" viewBox="0 0 244.000000 305.000000"
 preserveAspectRatio="xMidYMid meet">
<metadata>
Created by potrace 1.16, written by Peter Selinger 2001-2019
</metadata>
<g transform="translate(0.000000,305.000000) scale(0.100000,-0.100000)"
fill="#000000" stroke="none">
<path d="M1570 2905 c-1 -5 -3 -17 -5 -25 -36 -145 -59 -270 -70 -380 -4 -36
-8 -78 -11 -95 -2 -16 -7 -132 -11 -256 l-6 -225 31 -13 c17 -7 38 -21 48 -32
22 -24 36 -24 58 0 10 11 31 25 48 32 l31 13 -7 215 c-4 119 -11 259 -17 311
-12 118 -51 348 -57 332 -2 -7 3 -56 12 -110 28 -175 35 -245 47 -477 l12
-229 -39 -33 c-22 -18 -45 -33 -51 -33 -16 0 -19 946 -3 952 6 2 6 14 1 33 -5
17 -10 26 -11 20z"/>
<path d="M881 2863 c-47 -176 -91 -572 -91 -820 l0 -123 28 -11 c15 -6 39 -22
55 -37 l27 -26 20 22 c11 12 35 29 52 38 l31 16 -7 237 c-7 253 -15 349 -42
505 -23 128 -30 108 -10 -27 32 -213 57 -659 39 -682 -13 -16 -71 -55 -82 -55
-10 0 -6 925 5 973 10 42 -14 33 -25 -10z"/>
<path d="M1288 2774 c-1 -54 -1 -162 0 -239 l2 -140 -15 64 c-8 35 -17 66 -20
69 -9 10 -5 -32 11 -108 11 -51 17 -147 20 -300 2 -124 6 -252 8 -285 2 -33 2
-46 -1 -30 -2 17 -6 37 -9 45 -4 13 -6 13 -15 0 -7 -11 -8 -1 -3 30 8 53 8 49
4 125 l-4 60 -6 -70 c-5 -55 -7 -36 -8 86 -3 212 -14 520 -19 515 -3 -3 -13
-35 -23 -73 l-18 -68 -1 114 c-1 63 -3 112 -5 110 -2 -2 -7 -92 -10 -199 -4
-107 -11 -235 -16 -285 -6 -49 -10 -145 -10 -212 0 -67 -4 -124 -8 -127 -5 -3
-18 49 -29 115 -12 66 -24 123 -26 126 -15 14 -26 -16 -37 -104 -13 -106 -16
-97 44 -136 24 -16 31 -96 11 -123 -12 -16 -17 -17 -34 -6 -30 18 -41 15 -41
-12 0 -38 31 -69 62 -61 14 4 28 15 31 26 8 29 27 23 26 -8 0 -16 3 -45 7 -67
7 -37 6 -38 -14 -27 -17 9 -29 8 -56 -3 -47 -20 -51 -33 -12 -40 19 -4 36 -12
38 -18 6 -17 -3 -58 -12 -58 -5 0 -30 21 -56 47 -46 46 -74 95 -74 129 0 10
-7 25 -16 35 -39 43 23 107 92 96 40 -7 44 -2 32 41 -18 65 -114 75 -152 17
-9 -14 -16 -31 -16 -40 0 -27 -19 -16 -36 21 -31 65 -113 78 -155 26 -11 -14
-19 -35 -17 -46 3 -17 11 -20 52 -21 41 0 52 -5 77 -33 32 -36 37 -60 14 -68
-20 -8 -20 -80 1 -130 9 -22 30 -59 48 -84 18 -25 35 -50 39 -57 4 -6 -9 -30
-28 -53 -43 -52 -49 -88 -18 -122 18 -20 82 -33 95 -20 7 7 6 28 -3 61 -10 39
-10 53 0 64 10 13 18 13 61 -1 41 -13 50 -20 50 -39 0 -13 6 -23 14 -23 11 0
12 -10 5 -47 -11 -56 -16 -63 -27 -33 -7 20 -10 21 -15 7 -4 -10 -17 -17 -33
-17 -14 0 -42 -7 -60 -16 -45 -22 -74 -9 -111 47 -21 32 -28 56 -29 93 -1 28
-4 65 -8 81 -4 17 -9 40 -12 53 -5 27 -48 30 -83 6 -20 -15 -23 -23 -19 -68 4
-41 18 -73 76 -170 50 -82 73 -130 74 -155 1 -20 2 -58 3 -86 1 -27 5 -63 9
-80 7 -28 -3 -41 -144 -203 -82 -94 -153 -172 -156 -172 -3 0 5 19 19 43 13
23 72 128 131 234 116 209 120 223 91 320 -9 31 -37 79 -70 121 -30 39 -59 82
-65 97 -17 45 -11 96 16 143 l27 45 -23 19 c-32 26 -103 24 -130 -4 -25 -27
-25 -25 5 -127 33 -111 20 -174 -39 -194 -8 -3 -8 -13 1 -35 6 -18 8 -34 5
-36 -4 -2 -41 -16 -82 -31 -220 -78 -273 -96 -276 -93 -4 5 57 44 234 153 78
48 145 91 148 96 3 5 -2 32 -10 61 -9 29 -18 80 -22 113 -5 45 -8 55 -16 42
-8 -14 -5 -103 5 -162 1 -6 -13 -9 -33 -7 -32 3 -44 -6 -140 -93 -57 -53 -144
-131 -191 -173 -48 -42 -85 -79 -84 -80 4 -4 184 51 375 115 107 35 115 40
118 65 4 33 16 34 74 9 74 -31 134 -107 113 -141 -3 -5 -21 -16 -38 -24 -35
-14 -38 -22 -151 -386 -57 -184 -58 -190 -52 -190 2 0 89 93 193 208 103 114
193 213 201 221 7 7 10 21 7 30 -15 36 -23 70 -17 75 3 3 43 6 89 6 106 0 143
-16 144 -63 1 -30 2 -30 8 -7 4 15 10 20 14 13 8 -12 -1 -43 -12 -43 -4 0 -14
-13 -23 -28 -15 -25 -15 -35 -2 -102 16 -88 18 -154 4 -145 -6 4 -10 -8 -10
-29 0 -20 5 -36 10 -36 6 0 10 13 10 29 0 55 17 41 28 -22 14 -81 73 -361 76
-365 2 -1 15 57 31 130 15 73 33 159 41 191 8 32 14 70 14 83 0 14 5 23 13 22
8 -2 13 14 14 52 2 30 8 78 14 107 10 44 10 56 -4 76 -8 13 -17 41 -19 63 -3
36 0 40 32 56 39 18 57 21 149 19 61 -1 63 -2 57 -23 -24 -81 -30 -70 146
-264 89 -99 180 -199 201 -222 20 -23 37 -36 37 -29 0 7 -36 127 -81 267 -44
140 -83 265 -86 277 -4 16 -17 26 -44 33 -45 12 -47 24 -20 79 24 47 34 55 96
79 55 22 85 16 85 -17 0 -19 48 -38 325 -125 159 -51 158 -50 154 -40 -4 10
-127 123 -292 272 -75 67 -85 72 -115 67 l-32 -6 6 96 c5 61 3 95 -3 95 -9 0
-23 -117 -23 -193 0 -28 1 -28 43 -22 l42 6 148 -132 c81 -73 145 -134 143
-137 -3 -2 -91 45 -196 105 -166 93 -195 113 -211 145 -24 47 -24 77 1 156 25
79 25 87 0 112 -35 35 -140 21 -140 -19 0 -11 12 -37 26 -58 42 -62 22 -129
-72 -245 -50 -61 -61 -104 -50 -181 7 -43 9 -46 58 -64 l51 -20 69 -209 c37
-115 68 -216 68 -224 0 -8 -25 28 -56 80 -139 238 -201 343 -222 382 -36 67
-27 108 57 247 60 100 71 124 71 163 0 31 -6 50 -18 61 -22 20 -65 22 -80 5
-11 -15 -22 -79 -25 -153 -1 -37 -9 -59 -30 -86 -38 -50 -76 -65 -114 -46 -16
9 -45 18 -65 22 -35 7 -37 9 -46 63 -12 66 -5 76 60 87 56 10 65 -2 49 -66
-14 -53 -8 -68 27 -69 22 0 71 29 82 50 13 25 -7 75 -44 109 -14 14 -26 27
-26 31 0 3 18 29 39 58 39 51 81 146 81 181 0 10 -9 26 -20 36 -28 25 -25 42
14 81 29 29 41 34 80 34 41 0 46 2 46 23 0 31 -32 64 -71 72 -38 9 -77 -16
-99 -63 -19 -40 -26 -40 -43 1 -17 39 -33 53 -72 60 -42 7 -84 -17 -92 -53 -8
-41 -3 -45 42 -42 70 6 127 -60 84 -96 -10 -9 -19 -26 -19 -39 0 -12 -4 -33
-9 -47 -11 -27 -115 -136 -131 -136 -6 0 -10 17 -10 39 0 36 2 39 35 45 19 4
35 10 35 13 0 15 -39 32 -72 33 -31 0 -38 4 -38 20 0 11 5 20 10 20 7 0 9 15
5 40 -7 44 5 52 28 20 8 -12 26 -23 39 -25 25 -5 36 8 52 57 6 21 -12 34 -27
19 -18 -18 -47 -13 -56 11 -12 33 -5 100 11 109 8 5 25 17 38 27 22 18 22 20
11 105 -23 170 -34 162 -71 -57 -10 -58 -16 -74 -25 -65 -2 3 -9 230 -15 504
-7 275 -14 502 -16 504 -2 2 -5 -40 -6 -95z m19 -906 c-3 -8 -6 -5 -6 6 -1 11
2 17 5 13 3 -3 4 -12 1 -19z m-23 -140 c8 -40 -2 -94 -20 -109 -12 -9 -14 -5
-13 27 0 32 2 36 10 19 7 -14 8 -3 4 38 -5 60 8 79 19 25z m23 -55 c-3 -10 -5
-2 -5 17 0 19 2 27 5 18 2 -10 2 -26 0 -35z m-397 -63 c0 -19 69 -119 102
-150 18 -17 50 -40 71 -52 45 -26 51 -54 10 -43 -16 3 -37 14 -48 24 -11 9
-33 25 -48 35 -55 34 -136 196 -98 196 6 0 11 -5 11 -10z m667 -26 c-12 -72
-102 -178 -181 -212 -50 -22 -53 2 -4 36 73 52 135 118 153 166 21 55 40 61
32 10z m-400 -6 c-3 -8 -6 -5 -6 6 -1 11 2 17 5 13 3 -3 4 -12 1 -19z m20 -15
c-3 -10 -5 -4 -5 12 0 17 2 24 5 18 2 -7 2 -21 0 -30z m80 0 c-3 -10 -5 -4 -5
12 0 17 2 24 5 18 2 -7 2 -21 0 -30z m-58 -63 c0 -10 -3 -8 -9 5 -12 27 -12
43 0 25 5 -8 9 -22 9 -30z m18 -17 c-3 -10 -5 -2 -5 17 0 19 2 27 5 18 2 -10
2 -26 0 -35z m-85 -35 c-9 -9 -12 -4 -11 23 0 32 1 33 11 11 8 -17 8 -26 0
-34z m177 4 c0 -24 -1 -25 -9 -7 -12 28 -12 47 0 40 6 -3 10 -18 9 -33z m-19
-57 c0 -30 -4 -55 -10 -55 -11 0 -13 52 -4 88 10 36 14 26 14 -33z m-141 -50
c-5 -13 -8 0 -7 40 0 56 1 58 8 20 4 -22 4 -49 -1 -60z m-32 13 c-3 -8 -6 -5
-6 6 -1 11 2 17 5 13 3 -3 4 -12 1 -19z m-17 -76 c0 -15 -2 -15 -10 -2 -13 20
-13 33 0 25 6 -3 10 -14 10 -23z m255 -138 c5 -41 4 -46 -6 -29 -7 11 -17 23
-23 27 -7 5 -6 8 3 8 10 0 12 10 8 43 -4 29 -3 35 3 21 4 -12 11 -43 15 -70z
m-58 44 c-3 -7 -5 -2 -5 12 0 14 2 19 5 13 2 -7 2 -19 0 -25z m-25 -10 c-8 -8
-9 -4 -5 13 4 13 8 18 11 10 2 -7 -1 -18 -6 -23z m-135 0 c-3 -8 -6 -5 -6 6
-1 11 2 17 5 13 3 -3 4 -12 1 -19z m20 0 c-3 -8 -6 -5 -6 6 -1 11 2 17 5 13 3
-3 4 -12 1 -19z m-42 -98 c3 -5 -1 -10 -9 -10 -9 0 -16 5 -16 10 0 6 4 10 9
10 6 0 13 -4 16 -10z m225 0 c0 -5 -9 -10 -20 -10 -11 0 -20 5 -20 10 0 6 9
10 20 10 11 0 20 -4 20 -10z m-193 -22 c-3 -8 -6 -5 -6 6 -1 11 2 17 5 13 3
-3 4 -12 1 -19z m123 -223 c0 -8 5 -14 12 -12 17 3 30 -71 23 -133 -9 -70 -11
-82 -17 -100 -3 -8 -20 -78 -36 -155 l-31 -140 5 125 c3 69 7 202 7 297 2 164
3 171 20 153 9 -11 17 -26 17 -35z"/>
<path d="M1302 770 c0 -14 2 -19 5 -12 2 6 2 18 0 25 -3 6 -5 1 -5 -13z"/>
<path d="M1312 705 c0 -16 2 -22 5 -12 2 9 2 23 0 30 -3 6 -5 -1 -5 -18z"/>
<path d="M911 2820 c0 -8 4 -24 9 -35 l9 -20 0 20 c0 11 -4 27 -9 35 -9 13
-10 13 -9 0z"/>
<path d="M1163 2625 c0 -27 2 -38 4 -22 2 15 2 37 0 50 -2 12 -4 0 -4 -28z"/>
<path d="M1346 495 c4 -27 8 -52 10 -54 9 -10 3 75 -6 89 -7 10 -8 -1 -4 -35z"/>
<path d="M1111 444 c0 -11 3 -14 6 -6 3 7 2 16 -1 19 -3 4 -6 -2 -5 -13z"/>
</g>
</svg>
