<?xml version="1.0" standalone="no"?>
<!DOCTYPE svg PUBLIC "-//W3C//DTD SVG 20010904//EN"
 "http://www.w3.org/TR/2001/REC-SVG-20010904/DTD/svg10.dtd">
<svg version="1.0" xmlns="http://www.w3.org/2000/svg"
 width="244.000000pt" height="305.000000pt" viewBox="0 0 244.000000 305.000000"
 preserveAspectRatio="xMidYMid meet">
<metadata>
Created by potrace 1.16, written by Peter Selinger 2001-2019
</metadata>
<g transform="translate(0.000000,305.000000) scale(0.100000,-0.100000)"
fill="#000000" stroke="none">
<path d="M1030 2894 c0 -10 -3 -30 -5 -44 -5 -21 -4 -22 3 -5 6 12 9 -82 9
-240 0 -283 -12 -312 -24 -57 -4 86 -10 146 -13 132 -5 -19 -8 -9 -14 39 -4
35 -10 61 -12 58 -3 -3 -1 -40 5 -82 6 -42 11 -102 11 -134 0 -31 5 -62 11
-68 13 -13 26 -553 13 -553 -29 1 -33 20 -37 150 l-3 135 -2 -162 c-1 -90 -6
-163 -11 -163 -13 0 -22 284 -19 632 3 277 8 353 21 286 2 -13 2 -3 0 22 -8
75 -20 66 -37 -27 -43 -235 -71 -574 -64 -788 3 -102 5 -111 25 -120 26 -11
48 -48 39 -64 -5 -8 -12 -6 -22 4 -20 20 -78 19 -98 -1 -19 -18 -31 -59 -22
-73 4 -5 21 -7 39 -4 29 4 37 0 60 -27 27 -32 37 -80 16 -80 -7 0 -10 -21 -7
-60 3 -59 3 -60 -23 -60 -27 0 -39 -19 -39 -67 0 -15 -5 -21 -14 -17 -18 7
-32 -68 -23 -122 7 -42 -18 -48 -33 -8 -16 41 -12 76 15 129 l26 50 -22 18
c-28 22 -81 22 -102 -1 -21 -23 -21 -54 -1 -133 21 -81 13 -157 -17 -180 -17
-13 -20 -22 -14 -47 6 -30 5 -32 -47 -56 -102 -46 -251 -106 -255 -102 -4 4
105 87 197 149 30 21 73 52 95 71 l39 33 -12 41 c-7 23 -15 71 -19 107 -8 93
-21 71 -16 -29 l4 -86 -29 6 c-27 6 -40 -6 -190 -167 -89 -95 -160 -174 -158
-176 3 -3 97 31 280 101 38 15 72 25 77 24 5 -2 -10 -32 -32 -67 -22 -35 -38
-65 -36 -68 3 -2 62 28 132 67 77 43 131 68 137 62 5 -5 11 -25 14 -44 6 -32
4 -36 -24 -46 -25 -9 -32 -19 -50 -79 -16 -53 -97 -357 -129 -478 -7 -29 47
30 136 150 41 55 76 102 78 104 2 2 6 2 9 -2 5 -5 -29 -225 -42 -272 -11 -35
12 -4 54 75 138 262 167 318 179 341 9 19 10 34 2 63 -13 48 -3 60 46 50 32
-6 95 -52 95 -69 0 -2 -14 -20 -31 -39 l-30 -35 26 -148 c15 -81 40 -226 56
-322 25 -150 39 -212 39 -174 0 5 20 124 46 264 25 140 50 282 56 316 11 61
10 62 -20 101 -29 36 -30 40 -16 60 19 28 66 52 100 52 26 0 26 -1 20 -49 -6
-48 -4 -53 110 -265 63 -119 117 -216 118 -216 2 0 -5 46 -16 103 -10 56 -21
122 -24 147 -5 43 -5 44 11 25 8 -11 64 -82 123 -157 59 -75 108 -135 110
-134 1 2 -7 39 -18 82 -12 44 -37 138 -56 209 -19 72 -39 144 -44 160 -5 17
-14 49 -20 73 -9 36 -18 46 -46 58 -23 10 -34 21 -34 35 0 28 18 59 34 59 7 0
61 -25 120 -55 58 -31 106 -53 106 -50 0 3 -16 30 -35 60 -19 30 -31 56 -27
59 4 2 34 -6 67 -19 198 -76 330 -124 333 -120 2 2 -36 46 -86 97 -49 51 -126
131 -170 178 -77 82 -80 84 -107 72 l-27 -13 7 90 c5 60 3 91 -4 95 -7 5 -11
-3 -11 -22 0 -16 -3 -64 -7 -107 l-6 -78 39 8 39 7 132 -138 c72 -76 130 -140
128 -142 -2 -2 -16 5 -32 16 -15 11 -88 59 -161 107 -73 48 -144 101 -157 119
-30 39 -33 100 -10 166 19 55 19 90 -1 119 -14 20 -23 23 -61 18 -66 -7 -70
-16 -39 -87 26 -57 27 -65 16 -111 -16 -67 -36 -59 -32 12 3 44 -1 60 -18 82
-12 15 -26 25 -31 22 -5 -4 -9 7 -9 24 0 29 -22 61 -41 61 -7 0 -8 20 -4 55 6
45 4 56 -9 61 -9 4 -16 18 -16 33 0 39 45 79 95 83 36 3 40 6 37 28 -3 29 -45
70 -72 70 -10 0 -32 -11 -48 -25 -27 -23 -30 -23 -37 -8 -4 13 4 27 28 49 18
17 39 33 45 35 12 5 -2 499 -18 604 l-9 60 5 -70 c2 -38 7 -180 11 -315 l6
-245 -37 -28 c-28 -22 -37 -25 -42 -14 -3 8 -4 236 -2 507 3 480 3 490 -14
418 -9 -40 -20 -97 -24 -125 -3 -29 -10 -53 -14 -53 -4 0 -10 30 -14 68 -11
109 -18 163 -23 159 -2 -3 -4 -227 -4 -498 1 -425 -1 -491 -13 -476 -16 21
-26 79 -36 222 -5 72 -8 84 -9 45 -1 -30 -8 -80 -15 -110 l-13 -55 -8 45 c-6
32 -9 38 -12 23 -10 -56 -20 -12 -26 110 -5 123 -40 364 -57 396 -6 11 -9 10
-13 -5 -22 -69 -49 -284 -55 -419 -5 -145 -7 -155 -17 -112 -10 47 -24 54 -26
13 0 -12 -8 0 -19 29 -14 37 -19 80 -19 165 -1 146 -17 371 -37 525 -14 111
-24 155 -24 109z m7 -576 c-3 -8 -6 -5 -6 6 -1 11 2 17 5 13 3 -3 4 -12 1 -19z
m250 -290 c-2 -29 -3 -8 -3 47 0 55 1 79 3 53 2 -26 2 -71 0 -100z m-207 -154
c0 -16 -16 -19 -25 -4 -8 13 4 32 16 25 5 -4 9 -13 9 -21z m416 -12 c-10 -2
-24 -1 -33 2 -12 5 -13 9 -3 21 11 14 15 14 33 -2 17 -16 17 -18 3 -21z m-478
11 c2 -8 -5 -13 -17 -13 -12 0 -21 6 -21 16 0 18 31 15 38 -3z m392 2 c0 -8
-7 -15 -15 -15 -9 0 -12 6 -9 15 4 8 10 15 15 15 5 0 9 -7 9 -15z m-20 -135
c0 -18 -22 -22 -37 -7 -21 21 -8 40 18 27 10 -6 19 -15 19 -20z m-260 12 c0
-4 -9 -13 -19 -19 -15 -10 -22 -9 -30 1 -6 7 -8 16 -4 19 9 10 53 9 53 -1z
m355 -53 c0 -13 -6 -24 -12 -24 -7 0 -13 3 -13 8 0 4 0 16 0 28 0 12 5 19 13
17 6 -3 12 -16 12 -29z m-475 -5 c0 -31 -23 -28 -28 4 -2 15 2 22 12 22 11 0
16 -9 16 -26z m150 -56 c0 -10 9 -22 21 -28 11 -7 27 -27 35 -46 8 -19 16 -34
19 -34 3 0 11 16 20 36 8 20 24 38 35 41 11 3 20 14 20 24 0 11 8 20 18 21 56
4 57 4 57 -32 l0 -35 -47 0 c-53 0 -70 -14 -90 -78 l-12 -38 -18 50 c-23 61
-45 76 -92 62 -38 -10 -46 -2 -46 48 0 25 3 27 40 26 31 0 40 -4 40 -17z
m-200 -29 c0 -5 18 -46 40 -90 44 -89 50 -111 21 -85 -44 40 -100 186 -71 186
6 0 10 -5 10 -11z m94 -49 l6 -35 -15 30 c-16 33 -21 82 -6 55 5 -8 11 -31 15
-50z m453 -34 c-25 -53 -64 -106 -79 -106 -4 0 16 46 45 102 37 72 53 95 55
80 2 -12 -8 -46 -21 -76z m-74 52 c-7 -39 -23 -61 -23 -32 0 30 11 64 21 64 5
0 6 -15 2 -32z m-283 -68 c11 -11 20 -32 20 -46 l0 -27 -19 24 c-46 60 -47 95
-1 49z m200 9 c0 -20 -41 -79 -50 -74 -10 6 4 51 22 72 13 16 28 17 28 2z
m-421 -98 c-6 -18 -9 -50 -5 -71 3 -21 3 -46 -1 -56 -6 -16 -7 -16 -14 2 -12
29 -10 133 2 156 17 32 31 7 18 -31z m629 13 c13 -27 5 -134 -9 -134 -5 0 -9
22 -9 49 0 27 -3 63 -6 80 -8 38 8 41 24 5z m-375 -64 c20 -18 -13 -18 -34 1
l-24 20 25 -7 c14 -3 29 -10 33 -14z m138 0 c-12 -11 -27 -17 -32 -14 -17 10
-9 23 19 27 15 2 29 5 32 5 3 1 -6 -7 -19 -18z m138 -78 c-1 -33 -2 -34 -9
-12 -12 36 -12 62 0 55 6 -3 10 -23 9 -43z m-74 -45 c-6 -49 -5 -59 6 -55 48
18 59 19 59 5 0 -20 -22 -27 -80 -27 -27 0 -50 -5 -52 -11 -2 -5 -11 -7 -21
-3 -27 10 -19 58 11 62 20 3 23 8 20 39 -2 28 2 37 22 48 14 7 29 11 33 8 5
-3 6 -32 2 -66z m-258 57 c18 -5 21 -11 16 -40 -5 -29 -2 -35 21 -44 16 -6 26
-17 26 -29 0 -24 -36 -48 -43 -28 -2 8 -22 11 -60 10 -54 -3 -75 6 -62 27 3 6
15 6 30 0 30 -11 37 4 28 65 -6 48 -2 51 44 39z m-297 -64 c0 -11 -4 -20 -10
-20 -5 0 -10 2 -10 4 0 2 -3 11 -6 20 -4 11 -1 16 10 16 9 0 16 -8 16 -20z
m820 -30 c0 -5 -2 -10 -4 -10 -3 0 -8 5 -11 10 -3 6 -1 10 4 10 6 0 11 -4 11
-10z m-670 -48 c0 -15 -2 -15 -10 -2 -13 20 -13 33 0 25 6 -3 10 -14 10 -23z
m518 2 c-7 -15 -14 -21 -16 -15 -5 16 5 41 17 41 7 0 6 -10 -1 -26z m-763 -24
c5 -9 -126 -142 -133 -135 -2 2 8 20 22 42 15 21 36 53 47 71 20 31 52 42 64
22z m865 -35 c-7 -32 2 -133 13 -140 1 -1 20 -9 42 -17 39 -15 40 -17 66 -109
84 -296 99 -352 96 -355 -2 -2 -61 112 -131 253 -127 253 -128 256 -124 314 3
38 11 65 23 79 24 26 26 23 15 -25z m-690 -21 c7 -19 10 -54 7 -77 -8 -60 -45
-235 -53 -250 -18 -31 -188 -257 -191 -254 -2 2 37 87 85 188 49 101 99 206
112 232 18 39 21 59 17 110 -3 34 -8 73 -13 87 -7 22 -6 24 9 12 9 -8 21 -29
27 -48z m866 4 c22 -24 49 -54 59 -67 l20 -24 -25 13 c-26 13 -131 79 -140 87
-5 5 29 33 40 33 3 0 24 -19 46 -42z m-589 -14 c-3 -3 -12 -4 -19 -1 -8 3 -5
6 6 6 11 1 17 -2 13 -5z m84 -91 c-6 -21 -17 -47 -24 -57 -13 -17 -14 -17 -29
6 -8 13 -18 39 -22 58 -6 34 -5 33 15 -10 19 -42 21 -44 35 -26 7 11 17 36 20
55 4 20 9 31 11 24 2 -6 -1 -29 -6 -50z m-281 -52 c0 -5 -6 -23 -14 -41 -13
-31 -13 -31 -19 -9 -12 43 -8 59 13 59 11 0 20 -4 20 -9z m512 -57 c13 -48 48
-151 113 -339 l7 -20 -14 20 c-8 11 -50 87 -92 168 -70 133 -77 152 -71 185
14 73 33 68 57 -14z m-573 9 c7 -23 4 -35 -10 -54 -17 -22 -19 -23 -19 -4 0
29 12 96 17 92 2 -3 7 -18 12 -34z m-40 -247 c-29 -85 -54 -154 -55 -153 -2 1
7 55 20 119 16 84 30 128 50 158 15 23 30 39 33 37 3 -3 -19 -76 -48 -161z
m440 137 c0 -10 -7 -45 -15 -78 -14 -60 -14 -60 -9 -11 3 27 5 62 5 77 0 16 5
29 10 29 6 0 10 -8 9 -17z"/>
<path d="M1542 2805 c0 -16 2 -22 5 -12 2 9 2 23 0 30 -3 6 -5 -1 -5 -18z"/>
<path d="M1012 2755 c0 -16 2 -22 5 -12 2 9 2 23 0 30 -3 6 -5 -1 -5 -18z"/>
<path d="M1551 2744 c0 -11 3 -14 6 -6 3 7 2 16 -1 19 -3 4 -6 -2 -5 -13z"/>
<path d="M1403 2670 c0 -25 2 -35 4 -22 2 12 2 32 0 45 -2 12 -4 2 -4 -23z"/>
<path d="M1562 2690 c-1 -14 3 -43 7 -65 l9 -40 0 35 c0 19 -4 49 -8 65 -7 27
-8 28 -8 5z"/>
<path d="M1393 2560 c0 -25 2 -35 4 -22 2 12 2 32 0 45 -2 12 -4 2 -4 -23z"/>
<path d="M1384 2410 c0 -58 1 -81 3 -52 2 28 2 76 0 105 -2 28 -3 5 -3 -53z"/>
<path d="M983 2380 c0 -47 2 -66 4 -42 2 23 2 61 0 85 -2 23 -4 4 -4 -43z"/>
</g>
</svg>
