<?xml version="1.0" standalone="no"?>
<!DOCTYPE svg PUBLIC "-//W3C//DTD SVG 20010904//EN"
 "http://www.w3.org/TR/2001/REC-SVG-20010904/DTD/svg10.dtd">
<svg version="1.0" xmlns="http://www.w3.org/2000/svg"
 width="244.000000pt" height="305.000000pt" viewBox="0 0 244.000000 305.000000"
 preserveAspectRatio="xMidYMid meet">
<metadata>
Created by potrace 1.16, written by Peter Selinger 2001-2019
</metadata>
<g transform="translate(0.000000,305.000000) scale(0.100000,-0.100000)"
fill="#000000" stroke="none">
<path d="M939 2882 c-3 -18 -2 -35 3 -39 9 -5 5 -938 -4 -938 -2 0 -20 13 -40
28 -30 23 -38 36 -41 70 -3 32 -4 27 -5 -20 -2 -46 2 -63 11 -63 23 0 80 -67
73 -85 -5 -15 -10 -13 -37 9 -17 14 -41 26 -54 26 -33 0 -65 -31 -68 -65 -2
-28 0 -30 40 -33 34 -3 46 -9 67 -37 30 -39 32 -57 10 -76 -13 -10 -14 -24 -9
-66 5 -38 3 -53 -6 -53 -15 0 -38 -30 -39 -52 0 -9 -14 -30 -31 -47 -28 -29
-31 -36 -27 -88 4 -65 -12 -80 -30 -30 -17 47 -15 62 15 129 26 59 26 61 8 74
-26 19 -90 18 -110 -3 -19 -18 -17 -58 5 -153 21 -88 9 -123 -58 -175 -67 -52
-293 -197 -298 -192 -2 2 53 63 123 136 l126 132 39 -6 39 -7 -7 99 c-3 54
-11 103 -16 108 -7 7 -9 -21 -5 -83 l6 -94 -27 7 c-25 6 -41 -7 -199 -172 -95
-98 -169 -179 -164 -181 5 -2 71 21 147 51 77 30 162 62 189 72 28 10 56 23
63 28 27 21 20 -2 -18 -62 -22 -34 -40 -64 -40 -66 0 -12 24 -1 121 55 95 55
105 59 117 43 6 -9 12 -32 12 -50 0 -26 -4 -33 -20 -33 -31 0 -45 -33 -100
-235 -83 -303 -91 -337 -88 -346 2 -5 59 63 127 151 68 88 125 160 127 160 2
0 1 -6 -1 -13 -6 -16 -45 -248 -45 -267 0 -8 16 14 36 50 200 367 195 356 187
414 l-6 49 38 -6 c38 -6 95 -50 95 -73 0 -7 -12 -26 -26 -44 l-26 -31 36 -212
c48 -278 78 -438 82 -434 1 1 28 147 59 325 54 314 55 323 38 347 -10 13 -21
25 -25 25 -17 0 -7 42 16 65 26 26 92 43 108 27 6 -6 6 -22 -1 -48 -12 -42
-15 -34 102 -259 77 -147 121 -225 128 -225 4 0 3 17 -2 37 -20 91 -46 253
-40 253 3 0 55 -64 115 -141 59 -77 110 -139 112 -137 4 5 -121 485 -139 532
-6 17 -22 32 -39 38 -30 11 -37 42 -18 78 13 24 14 23 159 -58 62 -35 115 -62
117 -60 2 2 -14 31 -34 63 -21 33 -41 66 -46 73 -4 7 21 2 61 -14 37 -14 97
-36 133 -49 36 -12 89 -32 119 -44 29 -12 55 -20 56 -19 1 2 -70 81 -158 176
-150 163 -162 174 -189 168 l-30 -6 7 84 c5 57 4 86 -4 90 -7 5 -11 -7 -11
-36 0 -24 -7 -70 -15 -101 -8 -32 -15 -62 -15 -66 0 -10 139 -116 262 -201 43
-30 76 -56 73 -58 -5 -5 -91 27 -177 67 -37 17 -78 33 -92 37 -38 9 -51 30
-38 59 9 20 8 27 -7 37 -44 31 -53 104 -25 198 17 58 13 118 -8 132 -24 15
-77 9 -98 -12 l-21 -21 26 -43 c36 -61 31 -144 -10 -160 -14 -5 -15 0 -9 39 8
58 -2 115 -21 115 -9 0 -15 10 -15 26 0 36 -17 64 -40 64 -17 0 -20 7 -20 52
0 33 -6 58 -16 69 -14 16 -14 20 0 48 21 40 57 63 93 59 25 -3 28 0 26 26 -4
57 -63 86 -109 51 -50 -37 -47 13 4 53 l37 30 -7 228 c-3 126 -13 292 -22 370
-20 175 -55 364 -68 364 -6 0 -8 -12 -4 -27 4 -20 10 -855 6 -955 0 -5 -4 -8
-10 -8 -6 0 -11 40 -12 98 l-2 97 -5 -75 c-5 -61 -9 -75 -23 -78 -16 -3 -18 7
-19 90 -2 165 2 271 13 368 14 118 15 246 2 325 -8 51 -9 34 -10 -115 -1 -96
-6 -222 -11 -280 -9 -93 -10 -70 -12 208 0 171 3 312 7 312 5 0 6 15 3 33 l-5
32 -7 -35 c-17 -81 -40 -327 -50 -534 -5 -121 -16 -246 -24 -276 -10 -42 -14
-48 -14 -25 -2 49 -17 62 -26 23 -6 -24 -10 6 -16 115 -8 137 -37 343 -57 398
-9 22 -10 23 -15 4 -23 -76 -49 -262 -54 -382 -3 -79 -10 -143 -15 -143 -4 0
-8 10 -9 23 0 21 -1 21 -9 2 -5 -11 -9 -33 -10 -50 -2 -26 -4 -23 -12 15 -5
25 -13 68 -17 95 l-9 50 -1 -50 c-3 -101 -28 -245 -42 -245 -6 0 -9 186 -9
491 1 270 -1 493 -3 495 -3 3 -10 -47 -17 -111 -8 -64 -17 -118 -20 -120 -4
-3 -10 21 -14 53 -4 31 -15 91 -24 132 -16 67 -19 71 -23 42z m244 -903 c-4
-5 -6 42 -3 104 l5 112 3 -104 c1 -57 -1 -108 -5 -112z m-168 -100 c0 -8 -12
-15 -30 -17 -30 -4 -30 -4 -11 17 21 23 41 23 41 0z m470 0 c0 -7 -8 -15 -17
-17 -18 -3 -25 18 -11 32 10 10 28 1 28 -15z m-67 -7 c2 -7 -3 -12 -12 -12 -9
0 -16 7 -16 16 0 17 22 14 28 -4z m-328 -2 c0 -5 -7 -10 -15 -10 -8 0 -15 5
-15 10 0 6 7 10 15 10 8 0 15 -4 15 -10z m27 -137 c-14 -14 -19 -15 -29 -4
-11 10 -9 15 6 27 27 20 47 0 23 -23z m261 23 c21 -11 22 -14 8 -25 -13 -11
-18 -10 -31 2 -16 16 -20 37 -7 37 4 -1 17 -6 30 -14z m-360 -74 c-2 -7 -7
-14 -12 -15 -15 -3 -30 29 -22 49 7 18 8 18 22 -1 8 -11 13 -26 12 -33z m468
2 c-3 -8 -10 -14 -16 -14 -11 0 -14 43 -3 54 10 10 26 -23 19 -40z m-309 -36
c-3 -7 -5 -2 -5 12 0 14 2 19 5 13 2 -7 2 -19 0 -25z m-26 2 c5 0 9 -8 9 -19
0 -10 8 -21 18 -23 10 -3 28 -25 39 -48 l20 -44 12 37 c7 21 24 45 37 54 13 8
24 21 24 28 0 15 33 25 61 18 16 -4 19 -12 17 -37 -3 -30 -5 -31 -52 -32 -55
-1 -80 -23 -91 -84 l-7 -35 -19 49 c-24 65 -30 69 -86 70 -46 1 -48 2 -51 33
-3 32 14 46 46 37 8 -2 18 -4 23 -4z m-159 -120 c61 -117 64 -132 18 -80 -22
25 -40 53 -40 62 0 9 -5 18 -11 20 -5 2 -13 24 -16 48 -3 25 -3 43 0 40 3 -3
25 -43 49 -90z m58 70 c0 -11 7 -37 15 -57 13 -31 13 -34 0 -23 -8 7 -19 29
-25 49 -12 45 -12 51 0 51 6 0 10 -9 10 -20z m374 -55 c-24 -52 -29 -35 -8 27
14 39 19 47 22 31 2 -12 -4 -38 -14 -58z m106 53 c0 -28 -55 -140 -80 -163
-30 -27 -24 -6 20 81 22 43 40 84 40 91 0 7 5 13 10 13 6 0 10 -10 10 -22z
m-380 -90 c11 -12 20 -31 20 -42 -1 -19 -3 -19 -25 7 -14 15 -25 35 -25 43 0
19 6 18 30 -8z m196 -6 c-18 -34 -46 -60 -46 -43 0 16 20 54 34 63 22 15 26 7
12 -20z m214 -58 c12 -30 12 -108 0 -144 -10 -32 -13 -21 -15 60 -1 36 -5 75
-9 88 -12 32 12 29 24 -4z m-628 -61 c-5 -80 -7 -91 -18 -80 -9 9 -10 118 -2
140 16 38 25 13 20 -60z m252 -25 c-3 -4 -14 -2 -24 5 -18 11 -19 12 -2 18 17
6 35 -9 26 -23z m146 21 c0 -5 -9 -13 -20 -19 -15 -8 -20 -8 -20 3 0 8 2 16 5
19 8 8 35 5 35 -3z m-301 -61 c-1 -7 -5 -24 -9 -38 -7 -22 -8 -21 -9 13 -1 20
4 37 9 37 6 0 10 -6 9 -12z m431 -9 c0 -6 -4 -7 -10 -4 -5 3 -10 11 -10 16 0
6 5 7 10 4 6 -3 10 -11 10 -16z m-316 -9 c18 0 18 -1 1 -20 -22 -24 -14 -47
20 -60 36 -14 32 -56 -5 -52 -14 1 -47 2 -74 2 -48 0 -66 10 -66 38 0 9 6 8
25 -4 37 -24 47 -10 39 53 -7 55 -6 56 17 50 13 -4 33 -7 43 -7z m244 -47 c-3
-61 1 -66 46 -48 14 6 17 4 14 -11 -3 -16 -13 -19 -61 -21 -32 -1 -64 -7 -71
-12 -9 -7 -16 -7 -24 1 -20 20 -13 46 16 60 20 10 26 20 24 38 -1 13 -8 27
-14 31 -10 6 7 11 60 18 10 1 12 -14 10 -56z m280 -13 c-7 -11 -16 -20 -20
-20 -5 0 -8 9 -8 20 0 13 7 20 20 20 18 0 19 -2 8 -20z m-828 -24 c0 -3 -4 -8
-10 -11 -5 -3 -10 -1 -10 4 0 6 5 11 10 11 6 0 10 -2 10 -4z m665 -46 c-4 -12
-9 -19 -12 -17 -3 3 -2 15 2 27 4 12 9 19 12 17 3 -3 2 -15 -2 -27z m-515 -6
c0 -8 -4 -12 -10 -9 -5 3 -10 13 -10 21 0 8 5 12 10 9 6 -3 10 -13 10 -21z
m-319 -37 c-8 -8 -11 -7 -11 4 0 20 13 34 18 19 3 -7 -1 -17 -7 -23z m219 -9
c12 -21 20 -51 20 -80 0 -41 -18 -84 -127 -303 -69 -140 -128 -253 -130 -252
-3 3 4 27 78 295 l42 152 43 19 c36 16 44 25 50 56 3 20 4 60 2 90 -3 30 -3
55 -1 55 2 0 12 -15 23 -32z m934 -39 c26 -39 46 -73 43 -75 -9 -9 -140 123
-133 134 17 27 43 9 90 -59z m-233 14 c-18 -63 -13 -118 15 -180 15 -32 64
-136 110 -232 46 -96 83 -175 81 -177 -3 -3 -180 234 -194 261 -19 35 -47 188
-48 255 0 48 5 74 18 94 24 36 31 28 18 -21z m-827 18 c16 -18 14 -20 -61 -64
-43 -25 -80 -43 -82 -42 -4 4 111 123 120 124 3 1 14 -7 23 -18z m471 -171 c3
0 12 15 20 33 9 19 14 25 15 14 0 -18 -27 -77 -35 -77 -8 0 -35 59 -35 77 1
11 6 5 15 -14 8 -18 17 -33 20 -33z m274 1 c10 -6 12 -19 6 -47 l-7 -39 -14
25 c-14 27 -19 70 -6 70 4 0 13 -4 21 -9z m-486 -47 c7 -36 2 -51 -73 -203
-45 -89 -84 -161 -87 -158 -9 9 129 408 141 404 6 -2 14 -21 19 -43z m546 -63
c1 -20 -1 -21 -14 -11 -16 13 -21 71 -7 84 7 8 19 -31 21 -73z m-406 -111 l6
-85 -15 74 c-9 40 -13 80 -9 89 9 24 12 12 18 -78z m394 57 c12 -17 26 -43 32
-57 11 -27 53 -242 48 -247 -2 -1 -27 70 -57 160 -29 89 -55 165 -57 170 -2 4
-1 7 4 7 4 0 18 -15 30 -33z"/>
<path d="M896 2669 c-10 -62 -19 -151 -21 -198 -1 -47 -1 -70 1 -51 2 19 13
106 25 193 11 87 19 160 16 163 -2 2 -12 -46 -21 -107z"/>
<path d="M1052 2760 c0 -14 2 -19 5 -12 2 6 2 18 0 25 -3 6 -5 1 -5 -13z"/>
<path d="M1485 2730 c-4 -28 -5 -53 -2 -56 2 -3 7 19 11 47 4 28 5 53 3 56 -3
2 -8 -19 -12 -47z"/>
<path d="M1063 2665 c0 -22 2 -30 4 -17 2 12 2 30 0 40 -3 9 -5 -1 -4 -23z"/>
<path d="M1073 2575 c0 -22 2 -30 4 -17 2 12 2 30 0 40 -3 9 -5 -1 -4 -23z"/>
<path d="M1083 2395 c0 -38 2 -53 4 -32 2 20 2 52 0 70 -2 17 -4 1 -4 -38z"/>
<path d="M1483 2380 c0 -47 2 -66 4 -42 2 23 2 61 0 85 -2 23 -4 4 -4 -43z"/>
<path d="M862 2299 c-1 -42 -4 -112 -7 -155 -4 -67 -3 -73 5 -39 6 22 9 91 7
155 -2 83 -3 94 -5 39z"/>
</g>
</svg>
