<?xml version="1.0" standalone="no"?>
<!DOCTYPE svg PUBLIC "-//W3C//DTD SVG 20010904//EN"
 "http://www.w3.org/TR/2001/REC-SVG-20010904/DTD/svg10.dtd">
<svg version="1.0" xmlns="http://www.w3.org/2000/svg"
 width="244.000000pt" height="305.000000pt" viewBox="0 0 244.000000 305.000000"
 preserveAspectRatio="xMidYMid meet">
<metadata>
Created by potrace 1.16, written by Peter Selinger 2001-2019
</metadata>
<g transform="translate(0.000000,305.000000) scale(0.100000,-0.100000)"
fill="#000000" stroke="none">
<path d="M934 2897 c-3 -9 -3 -20 0 -26 4 -5 2 -12 -4 -16 -5 -3 -10 -12 -10
-18 0 -7 4 -6 10 3 11 17 11 -26 10 -746 l0 -196 -41 33 -42 33 7 200 c8 210
15 304 41 496 18 141 18 181 -1 80 -28 -150 -45 -340 -51 -577 -4 -176 -3
-243 5 -243 6 0 27 -14 47 -31 l35 -31 31 27 c37 30 65 29 87 -2 14 -22 14
-23 -14 -17 -37 7 -80 -25 -89 -66 -7 -32 -25 -41 -25 -12 0 28 -43 72 -77 78
-26 5 -37 1 -57 -19 -14 -15 -26 -38 -26 -52 0 -23 4 -25 40 -25 66 0 120 -71
85 -110 -21 -23 -17 -89 9 -140 9 -18 16 -42 16 -53 0 -12 5 -47 12 -79 9 -43
9 -61 1 -69 -11 -11 -13 -3 -27 111 -2 19 -3 -2 -1 -47 2 -46 0 -83 -5 -83 -9
0 -20 51 -20 94 0 40 -15 56 -53 56 -22 0 -31 -7 -42 -33 -16 -39 -9 -80 24
-145 36 -71 21 -83 -23 -19 -51 73 -61 148 -26 196 31 44 24 73 -23 88 -32 11
-42 10 -63 -3 -34 -23 -39 -54 -18 -116 20 -60 21 -126 4 -169 -9 -20 -49 -53
-129 -107 -163 -111 -231 -153 -231 -144 0 4 58 67 129 141 128 132 130 133
165 127 41 -8 39 -12 36 87 -3 110 -19 138 -18 32 l1 -90 -28 3 c-23 3 -41
-11 -112 -85 -47 -48 -124 -127 -171 -176 -47 -48 -83 -89 -81 -92 6 -5 43 8
219 75 74 29 150 57 169 63 24 8 38 21 48 44 l13 33 38 -15 c68 -29 71 -36 34
-111 -18 -37 -31 -69 -28 -71 3 -3 24 9 48 26 47 35 58 38 58 15 0 -8 -13 -20
-29 -25 -21 -8 -33 -21 -41 -45 -27 -80 -148 -539 -144 -543 2 -3 11 4 18 15
15 21 181 235 273 351 31 40 59 71 60 69 2 -2 -3 -45 -12 -97 -8 -52 -15 -105
-14 -119 0 -14 14 54 29 150 16 96 29 176 29 178 2 7 51 1 51 -7 0 -5 -9 -42
-19 -82 -61 -235 -84 -316 -96 -329 -7 -8 -16 -37 -20 -65 -6 -49 -5 -49 8
-20 25 52 108 247 142 330 24 60 31 91 27 123 -4 37 -2 42 15 42 24 0 73 -43
73 -64 0 -8 -12 -29 -27 -46 l-26 -31 27 -157 c15 -86 38 -213 51 -282 13 -69
27 -145 31 -170 4 -25 8 -40 10 -35 3 9 94 517 109 611 5 35 2 46 -19 71 -14
17 -26 36 -26 42 0 14 45 53 72 64 19 7 20 4 16 -45 -6 -56 -12 -38 130 -372
25 -60 48 -104 50 -98 3 11 -44 364 -53 390 -8 22 12 12 31 -16 9 -15 34 -47
54 -72 20 -25 83 -103 140 -175 57 -72 108 -132 113 -134 5 -2 7 1 4 6 -3 5
-36 122 -72 259 -80 304 -79 300 -116 308 -32 6 -41 36 -10 36 11 0 21 -4 23
-8 5 -12 98 -72 98 -63 0 5 -17 39 -38 77 -20 38 -37 76 -37 84 0 14 57 49 82
50 6 0 13 -12 15 -27 3 -25 15 -31 193 -99 105 -39 198 -75 209 -79 35 -15 13
12 -148 180 -143 149 -163 166 -186 161 l-27 -5 3 97 c3 86 2 91 -7 47 -19
-101 -32 -185 -28 -188 12 -10 149 -111 233 -171 52 -39 94 -71 92 -73 -4 -4
-299 116 -309 126 -4 4 -3 20 4 34 11 24 9 29 -14 47 -39 31 -43 77 -18 182
22 90 19 119 -13 140 -20 14 -64 8 -87 -11 l-24 -20 24 -44 c32 -59 27 -138
-14 -196 -48 -70 -61 -48 -20 33 30 60 32 109 5 136 -24 24 -65 26 -74 4 -3
-9 -7 -32 -7 -52 -1 -28 -3 -31 -6 -12 -8 46 -23 46 -23 0 0 -25 -5 -52 -10
-60 -24 -38 1 184 30 255 12 32 5 95 -10 95 -21 0 -8 50 20 80 26 28 35 32 65
27 33 -5 35 -4 35 21 0 43 -26 72 -63 72 -40 -1 -63 -18 -87 -66 l-19 -39 -6
31 c-4 17 -18 44 -32 59 -20 21 -32 26 -54 21 -33 -6 -36 0 -13 32 14 20 17
21 42 8 15 -8 36 -23 46 -35 l19 -21 36 31 c20 16 41 33 46 37 17 14 0 505
-24 675 -29 208 -52 316 -63 286 -5 -13 -5 -26 2 -33 10 -10 15 -946 5 -946
-3 0 -21 10 -41 23 l-36 22 6 235 c3 129 12 297 21 374 9 76 15 146 13 155 -5
21 -38 -249 -39 -314 -2 -87 -17 -11 -18 90 -1 50 -8 153 -16 230 -8 77 -15
151 -16 165 0 23 -1 23 -8 5 -5 -11 -5 -47 -2 -80 3 -33 6 -82 5 -110 -1 -27
-3 -183 -4 -345 -2 -162 -5 -285 -7 -272 -5 26 -23 30 -24 5 0 -15 -2 -15 -9
2 -6 14 -9 -6 -9 -60 -2 -111 -18 -131 -24 -29 -16 257 -45 478 -75 579 l-9
30 -8 -30 c-4 -16 -11 -46 -16 -65 -21 -90 -38 -241 -56 -505 -3 -44 -8 -83
-12 -87 -4 -4 -7 0 -7 10 -1 9 -4 127 -8 262 -8 261 -21 510 -34 600 -4 32 -9
-133 -12 -395 -3 -247 -9 -456 -14 -464 -19 -30 -26 21 -27 219 -1 119 -4 194
-9 180 -6 -19 -8 -10 -9 35 -2 124 -59 526 -77 544 -2 2 -6 -3 -10 -12z m296
-857 c0 -369 -2 -419 -15 -414 -8 4 -16 18 -16 33 l-2 26 -4 -28 c-2 -15 -8
-25 -12 -22 -11 6 -1 55 10 55 5 0 9 48 9 108 0 78 -3 103 -11 92 -11 -16 -4
380 8 455 l7 40 7 -30 c5 -22 7 -12 8 38 0 37 3 67 6 67 3 0 5 -189 5 -420z
m155 -179 c3 -5 1 -12 -5 -16 -5 -3 -10 1 -10 9 0 18 6 21 15 7z m-285 -11 c0
-5 -2 -10 -4 -10 -3 0 -8 5 -11 10 -3 6 -1 10 4 10 6 0 11 -4 11 -10z m77 -67
c-3 -10 -5 -2 -5 17 0 19 2 27 5 18 2 -10 2 -26 0 -35z m-132 -45 c8 -30 9
-60 7 -138 -2 -57 -4 -63 -17 -49 -8 8 -19 36 -24 63 -5 26 -14 53 -20 59 -16
16 -14 48 6 69 22 24 41 23 48 -4z m76 -5 c-8 -15 -10 -15 -11 -2 0 17 10 32
18 25 2 -3 -1 -13 -7 -23z m242 12 c4 -8 2 -17 -3 -20 -6 -4 -10 -4 -10 -1 0
2 -3 11 -6 20 -3 9 -2 16 4 16 5 0 12 -7 15 -15z m111 -7 c20 -28 20 -52 2
-67 -7 -6 -16 -30 -19 -53 -3 -22 -13 -48 -21 -57 -15 -14 -16 -10 -18 44 -3
111 4 155 27 155 7 0 21 -10 29 -22z m-319 -97 c4 -17 14 -31 26 -34 10 -3 26
-22 35 -43 l16 -39 20 39 c11 21 28 41 39 43 10 3 19 12 19 20 0 8 5 23 11 34
10 20 11 20 24 2 18 -23 19 -57 2 -71 -6 -6 -28 -12 -47 -14 -34 -3 -36 -5
-51 -63 -15 -59 -16 -59 -21 -25 -11 66 -25 90 -53 90 -57 0 -80 34 -54 81 13
25 26 17 34 -20z m-192 -56 c13 -37 13 -45 2 -45 -15 0 -40 64 -30 80 10 16
12 13 28 -35z m567 11 c0 -26 -39 -82 -40 -57 0 22 23 81 32 81 4 0 8 -11 8
-24z m-440 -2 c0 -8 -4 -12 -10 -9 -5 3 -10 10 -10 16 0 5 5 9 10 9 6 0 10 -7
10 -16z m297 -16 c-3 -8 -6 -5 -6 6 -1 11 2 17 5 13 3 -3 4 -12 1 -19z m-272
-78 c21 -41 18 -60 -5 -31 -18 21 -28 61 -15 61 2 0 11 -13 20 -30z m249 -28
c-24 -36 -30 -12 -8 30 14 26 19 29 22 15 2 -10 -4 -30 -14 -45z m116 19 c0
-11 -10 -27 -21 -35 -12 -8 -30 -28 -40 -45 -17 -28 -49 -43 -49 -23 0 11 92
122 102 122 4 0 8 -9 8 -19z m-388 -84 c5 -10 7 -21 5 -24 -11 -10 -47 19 -53
42 -4 15 -13 25 -24 25 -20 0 -30 17 -22 38 5 14 74 -46 94 -81z m76 68 c-3
-3 -9 2 -12 12 -6 14 -5 15 5 6 7 -7 10 -15 7 -18z m329 -87 c-3 -8 -6 -5 -6
6 -1 11 2 17 5 13 3 -3 4 -12 1 -19z m-317 -14 c0 -8 -4 -12 -10 -9 -5 3 -10
13 -10 21 0 8 5 12 10 9 6 -3 10 -13 10 -21z m121 -7 c-8 -8 -11 -7 -11 4 0 9
3 19 7 23 4 4 9 2 11 -4 3 -7 -1 -17 -7 -23z m-232 -87 c-1 -35 4 -56 16 -70
26 -29 38 -14 30 36 -6 41 -5 45 21 54 31 12 47 3 21 -11 -26 -15 -22 -58 8
-69 18 -7 25 -17 25 -35 0 -25 -14 -33 -25 -15 -4 7 -13 7 -26 0 -25 -14 -74
11 -83 42 -12 47 -6 118 10 118 2 0 3 -23 3 -50z m351 -9 c0 -80 -18 -102 -85
-104 -44 -1 -50 1 -53 21 -2 16 4 25 21 31 14 6 28 15 32 20 10 17 -4 49 -23
54 -9 3 -2 5 16 6 l33 1 -7 -49 c-4 -33 -2 -51 6 -56 22 -14 43 22 45 77 2 57
2 58 10 58 3 0 5 -27 5 -59z m-507 -23 c4 -12 4 -25 1 -28 -8 -7 -34 31 -28
41 9 16 22 10 27 -13z m-53 -79 c0 -11 -4 -17 -10 -14 -5 3 -10 15 -10 26 0
11 5 17 10 14 6 -3 10 -15 10 -26z m587 9 c-3 -8 -6 -5 -6 6 -1 11 2 17 5 13
3 -3 4 -12 1 -19z m152 -60 c-11 -19 -14 -20 -17 -6 -2 9 2 27 9 40 11 19 14
20 17 6 2 -9 -2 -27 -9 -40z m-19 -89 c0 -54 2 -59 132 -328 48 -101 86 -186
84 -189 -3 -2 -63 74 -134 169 -112 150 -128 177 -121 197 5 13 9 52 9 86 0
76 9 128 21 120 5 -3 9 -27 9 -55z m-780 48 c0 -2 -12 -19 -26 -38 -23 -29
-25 -31 -19 -9 9 29 24 50 36 50 5 0 9 -1 9 -3z m110 -39 c0 -33 -25 -91 -127
-294 -70 -140 -129 -252 -131 -250 -4 5 107 404 119 428 5 9 22 19 38 23 36 8
47 20 56 65 11 60 16 70 31 70 10 0 14 -12 14 -42z m800 -5 c34 -47 30 -48
-27 -6 -20 14 -30 29 -27 38 9 24 18 18 54 -32z m-464 -82 c13 11 14 9 3 -14
-15 -33 -25 -34 -33 -4 -9 34 -6 55 5 28 8 -20 12 -21 25 -10z m-276 -51 c0
-22 -4 -40 -10 -40 -5 0 -10 4 -10 9 0 5 -3 23 -6 40 -5 24 -3 31 10 31 12 0
16 -10 16 -40z m468 8 c6 -18 13 -44 16 -58 4 -14 27 -101 51 -195 24 -93 43
-171 41 -172 -2 -2 -35 80 -75 183 -64 165 -71 191 -65 230 7 52 19 56 32 12z
m86 14 c-1 -7 -2 -21 -2 -32 -3 -35 -22 -21 -22 16 0 24 4 34 13 32 6 -3 12
-10 11 -16z m-296 -434 l-3 -133 -22 205 c-19 174 -24 150 -8 -37 7 -81 -7
-26 -36 138 l-22 126 24 32 c29 40 44 40 24 0 -9 -17 -15 -35 -13 -41 2 -5 15
17 28 49 l25 58 3 -132 c1 -73 1 -193 0 -265z"/>
<path d="M1204 2210 c0 -63 1 -89 3 -57 2 31 2 83 0 115 -2 31 -3 5 -3 -58z"/>
<path d="M1192 1930 c0 -14 2 -19 5 -12 2 6 2 18 0 25 -3 6 -5 1 -5 -13z"/>
<path d="M1072 2870 c0 -14 2 -19 5 -12 2 6 2 18 0 25 -3 6 -5 1 -5 -13z"/>
<path d="M1062 2765 c0 -16 2 -22 5 -12 2 9 2 23 0 30 -3 6 -5 -1 -5 -18z"/>
<path d="M1492 2755 c0 -16 2 -22 5 -12 2 9 2 23 0 30 -3 6 -5 -1 -5 -18z"/>
<path d="M1372 2750 c0 -14 2 -19 5 -12 2 6 2 18 0 25 -3 6 -5 1 -5 -13z"/>
<path d="M1053 2655 c0 -22 2 -30 4 -17 2 12 2 30 0 40 -3 9 -5 -1 -4 -23z"/>
<path d="M1363 2595 c0 -33 2 -45 4 -27 2 18 2 45 0 60 -2 15 -4 0 -4 -33z"/>
<path d="M1043 2490 c0 -30 2 -43 4 -27 2 15 2 39 0 55 -2 15 -4 2 -4 -28z"/>
<path d="M1353 2430 c0 -30 2 -43 4 -27 2 15 2 39 0 55 -2 15 -4 2 -4 -28z"/>
<path d="M922 560 c0 -14 2 -19 5 -12 2 6 2 18 0 25 -3 6 -5 1 -5 -13z"/>
</g>
</svg>
