<?xml version="1.0" standalone="no"?>
<!DOCTYPE svg PUBLIC "-//W3C//DTD SVG 20010904//EN"
 "http://www.w3.org/TR/2001/REC-SVG-20010904/DTD/svg10.dtd">
<svg version="1.0" xmlns="http://www.w3.org/2000/svg"
 width="244.000000pt" height="305.000000pt" viewBox="0 0 244.000000 305.000000"
 preserveAspectRatio="xMidYMid meet">
<metadata>
Created by potrace 1.16, written by Peter Selinger 2001-2019
</metadata>
<g transform="translate(0.000000,305.000000) scale(0.100000,-0.100000)"
fill="#000000" stroke="none">
<path d="M938 2905 c-3 -6 -9 -28 -12 -50 -4 -30 -3 -34 3 -15 6 15 9 -167 10
-459 1 -535 7 -493 -57 -436 l-24 20 7 200 c4 110 15 277 26 370 10 94 21 195
23 225 5 55 5 55 -4 10 -5 -25 -18 -115 -30 -200 -23 -174 -40 -650 -23 -650
5 0 28 -16 51 -35 38 -33 40 -38 30 -61 l-12 -25 -13 26 c-14 25 -48 45 -79
45 -24 0 -64 -47 -64 -75 0 -23 4 -25 40 -25 30 0 45 -6 65 -27 35 -38 41 -64
20 -79 -14 -11 -17 -23 -13 -65 4 -42 2 -55 -13 -70 -11 -11 -19 -30 -19 -44
0 -14 -3 -24 -7 -23 -16 6 -54 -31 -62 -58 -4 -16 -4 -47 0 -69 12 -66 -11
-79 -29 -16 -17 55 -15 86 8 131 11 22 20 46 20 54 0 36 -95 50 -122 19 -19
-22 -17 -67 8 -149 17 -59 17 -64 0 -107 -16 -42 -29 -53 -174 -150 -87 -58
-166 -109 -177 -113 -19 -7 23 41 170 190 64 65 74 71 110 71 l40 0 -3 55 c-1
30 -5 80 -8 110 -9 81 -20 35 -14 -60 l5 -80 -30 6 c-28 5 -37 -1 -99 -68 -38
-40 -114 -119 -169 -176 -55 -56 -98 -104 -95 -107 3 -3 99 30 214 73 187 70
209 81 212 103 5 31 19 46 32 33 7 -7 -7 -39 -44 -100 -30 -49 -53 -91 -51
-92 2 -2 49 22 105 53 60 33 106 53 111 48 5 -5 11 -23 15 -40 6 -29 3 -33
-28 -46 -29 -12 -35 -21 -47 -68 -7 -30 -28 -106 -47 -169 -72 -248 -101 -376
-81 -349 2 2 25 33 52 69 27 36 52 67 55 70 19 17 120 151 120 158 0 6 7 12
15 16 8 3 15 0 15 -7 0 -17 -39 -238 -46 -259 -3 -10 -2 -18 3 -18 4 0 39 60
76 133 38 72 87 166 109 207 36 69 39 80 34 129 l-6 54 36 -6 c37 -6 94 -50
94 -73 0 -7 -12 -27 -27 -44 l-26 -32 27 -156 c15 -86 38 -215 51 -287 13 -71
26 -147 30 -169 3 -21 8 -36 10 -34 2 1 22 109 45 238 23 129 46 260 51 290
24 131 24 130 -5 156 -14 14 -26 31 -26 38 0 22 48 63 81 70 52 10 52 10 45
-50 -5 -45 -3 -62 12 -87 11 -18 61 -113 112 -212 85 -166 110 -209 110 -193
0 4 -7 38 -15 76 -8 39 -19 101 -25 138 -6 38 -13 78 -16 89 -7 27 34 -19 148
-168 50 -64 94 -117 98 -117 4 0 -9 55 -27 123 -19 67 -45 165 -59 217 -55
209 -61 224 -95 237 -28 11 -31 15 -24 40 14 59 16 58 217 -59 26 -16 49 -28
52 -28 3 0 -15 33 -39 74 -25 40 -45 76 -45 79 0 3 28 -6 63 -20 34 -13 94
-36 132 -49 39 -13 88 -33 110 -43 22 -10 54 -21 70 -25 28 -7 25 -2 -36 61
-36 37 -112 116 -169 176 -84 87 -108 107 -129 105 l-25 -3 1 95 c2 103 0 100
-29 -74 -11 -64 -10 -70 8 -82 30 -21 133 -95 186 -134 26 -19 66 -48 88 -64
23 -15 40 -30 37 -32 -5 -5 -275 101 -309 122 -3 2 -3 18 2 35 8 26 6 34 -16
52 -36 31 -40 85 -15 185 19 71 20 87 9 110 -17 36 -73 42 -109 13 l-24 -20
24 -45 c19 -37 23 -56 19 -101 -5 -61 -9 -68 -30 -60 -12 5 -13 14 -5 49 8 34
6 50 -8 80 -11 22 -23 35 -31 32 -9 -3 -14 7 -16 32 -2 27 -9 40 -25 47 -18 8
-22 17 -22 64 0 31 -4 57 -10 59 -22 7 -11 54 19 84 26 26 36 30 65 25 33 -5
35 -4 35 23 0 46 -36 77 -86 71 -5 0 -21 -11 -33 -22 -18 -17 -25 -19 -31 -8
-12 18 6 48 41 67 16 10 31 22 33 28 2 5 0 125 -5 265 -8 256 -24 421 -60 604
-10 55 -19 102 -19 105 -1 18 -20 -30 -20 -50 0 -20 2 -22 10 -10 6 10 10
-151 10 -462 0 -263 -4 -478 -8 -478 -28 0 -32 31 -34 235 l-2 210 -6 -199
c-4 -147 -8 -200 -17 -204 -10 -3 -13 27 -13 130 0 187 13 402 21 358 4 -21 7
8 8 75 1 61 3 133 5 160 2 28 1 35 -1 17 -2 -18 -8 -30 -12 -28 -8 5 -17 -113
-31 -409 -5 -104 -7 -25 -6 259 1 341 -1 400 -11 355 -14 -64 -40 -365 -48
-569 -3 -80 -11 -174 -17 -210 l-12 -65 -12 50 c-8 31 -13 40 -13 25 -1 -14
-5 -31 -10 -39 -5 -8 -9 27 -10 90 -3 170 -52 483 -71 448 -23 -43 -59 -299
-60 -421 0 -79 -13 -124 -23 -81 -2 10 -7 -4 -12 -32 l-9 -50 -12 60 c-7 33
-14 116 -15 185 -2 122 -3 120 -9 -60 -7 -180 -22 -284 -41 -296 -6 -4 -9 178
-7 500 2 277 0 497 -3 488 -4 -9 -10 -51 -15 -92 -4 -41 -9 -78 -10 -82 -1 -5
-2 -27 -3 -50 -2 -62 -11 -41 -31 74 -27 150 -35 184 -42 173z m249 -867 c-2
-35 -3 -9 -3 57 0 66 1 94 3 63 2 -32 2 -86 0 -120z m250 -130 c-3 -8 -6 -5
-6 6 -1 11 2 17 5 13 3 -3 4 -12 1 -19z m-250 -10 c-3 -8 -6 -5 -6 6 -1 11 2
17 5 13 3 -3 4 -12 1 -19z m-172 -18 c0 -10 -12 -16 -35 -18 l-35 -4 20 22
c21 23 50 23 50 0z m471 9 c9 -16 -12 -33 -31 -25 -14 5 -15 9 -5 21 15 18 26
19 36 4z m-66 -20 c0 -5 -7 -9 -15 -9 -15 0 -20 12 -9 23 8 8 24 -1 24 -14z
m-335 1 c3 -5 -1 -10 -9 -10 -9 0 -16 5 -16 10 0 6 4 10 9 10 6 0 13 -4 16
-10z m35 -131 c-12 -22 -25 -24 -36 -7 -8 12 24 40 38 32 4 -3 3 -14 -2 -25z
m260 16 c19 -23 -3 -43 -24 -22 -9 9 -16 20 -16 26 0 16 26 13 40 -4z m-360
-72 c0 -25 -1 -26 -24 -17 -16 6 -22 54 -9 68 11 10 33 -24 33 -51z m468 23
c2 -9 -2 -24 -9 -32 -17 -21 -33 -2 -25 31 7 28 29 29 34 1z m-306 -43 c-3
-16 -7 -22 -10 -15 -4 13 4 42 11 42 2 0 2 -12 -1 -27z m-27 -30 c5 -12 16
-24 25 -26 9 -2 24 -21 34 -41 9 -20 19 -36 21 -36 3 0 11 16 20 36 8 20 24
38 35 41 11 3 20 13 20 23 0 20 29 31 60 23 21 -6 23 -14 14 -51 -6 -21 -11
-23 -43 -17 -48 8 -71 -10 -92 -71 l-17 -49 -7 30 c-4 17 -14 42 -22 58 -12
24 -19 27 -62 27 -45 0 -49 2 -54 28 -3 15 0 33 6 40 15 19 50 10 62 -15z
m-186 -60 c13 -27 39 -74 58 -106 40 -67 38 -82 -5 -36 -36 38 -77 112 -86
157 -11 47 7 39 33 -15z m113 -60 c7 -9 7 -13 -1 -13 -17 0 -41 55 -40 92 0
31 2 29 16 -17 8 -27 20 -56 25 -62z m348 70 c-6 -34 -26 -83 -34 -83 -1 0 4
27 13 60 17 66 32 82 21 23z m75 -63 c-15 -29 -35 -62 -46 -73 -10 -12 -19
-24 -19 -29 0 -4 -7 -8 -15 -8 -12 0 -8 12 16 53 17 28 43 77 57 107 24 49 27
52 30 28 2 -14 -9 -50 -23 -78z m-345 -25 c21 -40 5 -53 -18 -15 -12 19 -22
38 -22 42 0 15 28 -4 40 -27z m176 -3 c-17 -33 -36 -50 -36 -32 0 25 37 76 48
65 2 -2 -4 -17 -12 -33z m226 -68 c9 -33 -1 -139 -12 -127 -13 14 -20 165 -7
160 6 -2 14 -16 19 -33z m-627 -41 c-2 -38 -4 -70 -5 -73 0 -3 -5 2 -10 10
-17 27 -9 130 10 130 5 0 7 -30 5 -67z m248 -7 c3 -8 3 -17 0 -20 -9 -9 -34
15 -27 25 8 13 21 11 27 -5z m147 5 c0 -4 -9 -12 -20 -19 -16 -10 -20 -10 -20
1 0 8 2 16 5 19 7 7 35 6 35 -1z m-295 -63 c-15 -43 -9 -88 13 -111 31 -30 47
-11 43 54 -2 45 0 51 14 45 9 -3 26 -6 37 -6 18 0 18 -1 4 -16 -26 -26 -17
-59 19 -65 24 -5 31 -34 14 -55 -9 -11 -15 -12 -26 -2 -8 6 -36 11 -63 9 -57
-2 -65 7 -76 87 -7 55 -2 82 17 82 7 0 9 -8 4 -22z m424 -31 c-1 -31 -1 -31
-9 -7 -11 36 -11 52 0 45 6 -3 10 -21 9 -38z m-74 -37 c0 -57 12 -71 39 -45
14 15 17 15 22 1 10 -26 -4 -34 -62 -35 -31 0 -62 -5 -69 -11 -9 -7 -16 -6
-24 4 -18 22 -9 50 16 54 27 4 35 25 23 56 -8 21 -6 25 13 29 38 7 42 2 42
-53z m295 13 c0 -5 -9 -19 -19 -32 -22 -29 -36 -13 -15 17 15 21 34 30 34 15z
m-845 -53 c3 -5 1 -10 -4 -10 -6 0 -11 5 -11 10 0 6 2 10 4 10 3 0 8 -4 11
-10z m153 -51 c-3 -8 -7 -3 -11 10 -4 17 -3 21 5 13 5 -5 8 -16 6 -23z m508 5
c-4 -9 -9 -15 -11 -12 -3 3 -3 13 1 22 4 9 9 15 11 12 3 -3 3 -13 -1 -22z
m301 -26 c-3 -8 -6 -5 -6 6 -1 11 2 17 5 13 3 -3 4 -12 1 -19z m-907 -28 c37
-73 31 -93 -107 -367 -70 -138 -129 -250 -131 -248 -6 5 104 397 119 427 5 9
25 22 44 28 29 10 36 18 46 53 6 23 8 65 5 95 -3 28 -4 52 -1 52 2 0 14 -18
25 -40z m701 -36 c-18 -93 -21 -82 110 -353 55 -112 98 -206 96 -208 -4 -4
-140 171 -181 234 -72 109 -79 383 -10 403 0 0 -7 -34 -15 -76z m217 8 c55
-82 59 -90 26 -62 -39 33 -114 108 -114 114 0 6 33 13 43 9 4 -3 24 -30 45
-61z m-1038 23 c7 -9 11 -17 9 -19 -6 -4 -132 -78 -144 -84 -5 -3 -7 -2 -3 3
4 4 29 32 55 61 50 57 63 63 83 39z m465 -165 c3 0 12 15 20 33 9 19 14 25 15
14 0 -18 -27 -77 -35 -77 -8 0 -35 59 -35 77 1 11 6 5 15 -14 8 -18 17 -33 20
-33z m268 1 c24 -9 25 -12 15 -51 -10 -38 -8 -44 27 -96 28 -44 41 -78 55
-148 32 -163 30 -174 -9 -61 -21 61 -41 117 -44 125 -9 23 -77 231 -77 236 0
6 6 5 33 -5z m-479 -23 c3 -13 6 -34 6 -47 0 -24 -157 -358 -165 -350 -8 9
130 419 141 419 7 0 14 -10 18 -22z m538 -63 c4 -36 -5 -47 -16 -19 -9 24 -7
66 3 60 5 -3 11 -22 13 -41z m-397 -77 c0 -24 3 -79 8 -122 4 -44 5 -77 3 -75
-2 2 -12 48 -21 101 -12 73 -14 102 -5 117 6 12 12 21 13 21 1 0 2 -19 2 -42z"/>
<path d="M1052 2800 c0 -14 2 -19 5 -12 2 6 2 18 0 25 -3 6 -5 1 -5 -13z"/>
<path d="M1442 2800 c0 -14 2 -19 5 -12 2 6 2 18 0 25 -3 6 -5 1 -5 -13z"/>
<path d="M1495 2780 c-4 -23 -5 -44 -2 -46 3 -3 8 13 12 36 4 23 5 44 2 46 -3
3 -8 -13 -12 -36z"/>
<path d="M1062 2690 c0 -19 2 -27 5 -17 2 9 2 25 0 35 -3 9 -5 1 -5 -18z"/>
<path d="M1452 2700 c0 -14 2 -19 5 -12 2 6 2 18 0 25 -3 6 -5 1 -5 -13z"/>
<path d="M1078 2510 c2 -58 6 -107 8 -109 7 -8 3 124 -6 169 -5 29 -6 9 -2
-60z"/>
</g>
</svg>
