<?xml version="1.0" standalone="no"?>
<!DOCTYPE svg PUBLIC "-//W3C//DTD SVG 20010904//EN"
 "http://www.w3.org/TR/2001/REC-SVG-20010904/DTD/svg10.dtd">
<svg version="1.0" xmlns="http://www.w3.org/2000/svg"
 width="244.000000pt" height="305.000000pt" viewBox="0 0 244.000000 305.000000"
 preserveAspectRatio="xMidYMid meet">
<metadata>
Created by potrace 1.16, written by Peter Selinger 2001-2019
</metadata>
<g transform="translate(0.000000,305.000000) scale(0.100000,-0.100000)"
fill="#000000" stroke="none">
<path d="M1437 2812 c-28 -188 -45 -396 -48 -582 -1 -74 -5 -144 -10 -155 -7
-19 -8 -19 -8 3 -1 24 -16 30 -24 10 -3 -7 -6 -4 -7 7 -3 32 -18 -22 -19 -70
-1 -22 -5 -46 -10 -53 -4 -7 -11 64 -14 165 -6 178 -26 342 -51 424 l-13 44
-12 -41 c-21 -78 -42 -249 -48 -407 -3 -87 -10 -160 -15 -163 -4 -3 -8 12 -9
33 0 21 -4 47 -9 58 l-9 20 -1 -20 c-1 -18 -2 -17 -15 5 -13 22 -14 23 -15 5
l-1 -20 -9 20 c-6 13 -9 -7 -9 -61 -1 -57 -5 -85 -15 -93 -8 -7 -16 -8 -19 -4
-3 4 -5 64 -5 133 -1 69 -6 217 -12 330 -7 113 -10 269 -8 348 3 148 -4 186
-16 80 -8 -70 -21 -64 -31 17 -4 27 -10 54 -13 60 -7 11 -20 -28 -20 -60 l-1
-20 9 20 c11 25 13 -370 3 -704 l-6 -242 -33 32 -33 32 -4 121 -3 121 -2 -140
-2 -140 35 -23 c55 -35 44 -59 -18 -40 -51 16 -87 -8 -87 -57 0 -33 2 -35 35
-35 58 0 113 -74 81 -109 -9 -10 -16 -33 -16 -52 0 -35 24 -115 41 -135 5 -7
0 -19 -17 -33 -32 -27 -38 -23 -28 21 9 39 6 60 -9 70 -18 12 -65 9 -69 -3 -3
-9 -9 -9 -25 0 -28 15 -86 14 -101 -1 -17 -17 -15 -107 3 -159 16 -44 14 -69
-6 -121 -12 -29 -304 -248 -332 -248 -4 0 47 61 114 136 l122 135 38 -6 39 -7
-7 99 c-8 132 -25 159 -20 30 l4 -98 -26 6 c-24 5 -42 -11 -189 -171 -90 -97
-161 -178 -159 -180 2 -3 63 19 136 47 72 28 134 49 138 46 3 -4 -6 -22 -21
-42 -15 -19 -23 -35 -17 -35 5 0 72 31 148 70 76 38 141 70 145 70 11 0 38
-68 38 -95 0 -17 -7 -24 -29 -28 -19 -4 -30 -13 -33 -29 -3 -13 -24 -95 -48
-183 -74 -281 -96 -375 -89 -373 4 2 43 52 88 112 45 60 81 104 81 97 0 -7 -7
-43 -16 -81 -20 -88 -15 -119 10 -70 11 19 66 114 123 211 l104 177 -7 52 -7
53 47 -5 c34 -4 56 -14 77 -34 35 -33 36 -50 7 -81 -14 -15 -21 -34 -20 -53 4
-46 102 -623 107 -629 3 -2 5 -1 5 2 0 7 45 283 79 482 27 154 26 171 -4 207
-23 27 -24 33 -12 52 18 28 75 56 114 56 40 0 44 -6 32 -58 -10 -46 -10 -46
68 -178 17 -27 42 -70 56 -95 14 -24 46 -80 71 -124 25 -44 46 -83 46 -88 0
-4 4 -6 9 -3 4 3 0 47 -11 97 -10 50 -17 93 -15 95 2 3 35 -36 73 -85 37 -50
70 -89 72 -87 1 2 -3 30 -11 62 -16 68 -115 450 -123 477 -3 10 -19 23 -35 29
-21 7 -29 16 -29 34 0 30 26 84 41 84 6 0 80 -35 165 -79 84 -43 155 -76 158
-73 4 4 -19 43 -41 72 -2 2 -8 -1 -12 -8 -6 -10 -20 -2 -52 27 -24 23 -37 41
-30 41 7 0 26 -14 43 -30 23 -23 33 -28 43 -20 9 8 19 8 32 1 32 -19 184 -73
189 -68 3 2 -13 24 -34 48 -22 24 -63 71 -93 104 -29 33 -58 65 -63 71 -6 7
-31 35 -55 64 -40 45 -48 51 -74 46 l-28 -6 7 90 c5 64 3 90 -5 90 -7 0 -11
-20 -11 -52 0 -29 -7 -74 -14 -100 -8 -25 -12 -49 -9 -52 4 -3 1 -6 -5 -6 -22
0 -23 65 -2 144 32 119 21 133 -100 134 -93 0 -103 -7 -94 -65 7 -48 4 -50
-31 -27 l-24 15 20 47 c29 67 37 140 15 148 -25 10 -19 49 14 84 25 27 35 31
61 26 22 -4 31 -2 36 10 9 25 -26 84 -51 85 -60 3 -70 5 -73 16 -3 7 7 18 21
24 31 14 28 -5 26 204 -2 220 -15 417 -40 580 -40 266 -46 270 -44 28 1 -118
-1 -163 -6 -133 -7 34 -7 26 -4 -35 2 -44 7 -195 10 -335 6 -227 5 -257 -10
-269 -8 -7 -23 -10 -32 -7 -15 6 -16 35 -10 319 7 336 12 418 27 396 6 -9 9
14 8 63 -2 88 -19 96 -20 10 0 -31 -4 -66 -9 -77 -5 -13 -9 22 -9 95 0 77 3
108 10 95 6 -13 7 -4 3 30 -4 28 -7 51 -9 52 -1 2 -9 -45 -18 -105z m-15 -919
c25 -23 22 -30 -11 -25 -22 3 -28 8 -24 23 6 23 11 24 35 2z m-338 -9 c8 -22
5 -24 -22 -17 -18 4 -20 8 -11 19 15 18 25 18 33 -2z m-84 -19 c0 -8 -4 -15
-9 -15 -13 0 -22 16 -14 24 11 11 23 6 23 -9z m490 1 c0 -8 -4 -17 -9 -21 -12
-7 -24 12 -16 25 9 15 25 12 25 -4z m-77 -128 c19 -22 23 -53 7 -63 -5 -3 -10
-14 -10 -23 0 -9 -5 -34 -10 -54 l-11 -37 -34 16 c-50 24 -78 8 -103 -59 l-20
-53 -11 43 c-20 74 -58 97 -113 68 -26 -14 -27 -13 -34 17 -4 18 -8 39 -9 47
-1 8 -7 25 -14 38 -8 14 -9 28 -3 39 8 13 11 11 16 -15 9 -40 29 -55 66 -50
26 4 30 1 30 -18 0 -13 8 -24 20 -27 11 -3 27 -21 35 -41 9 -20 18 -36 21 -36
3 0 10 13 15 29 6 16 21 37 35 46 15 10 24 25 24 42 0 21 3 24 12 15 32 -32
78 -3 78 51 0 20 -5 24 -30 22 -27 -2 -46 15 -33 29 11 10 58 -6 76 -26z
m-283 8 c0 -17 -52 -16 -58 2 -2 8 7 12 27 12 19 0 31 -5 31 -14z m-147 -198
c8 -32 14 -58 12 -58 -9 0 -34 58 -40 95 -11 58 9 32 28 -37z m526 18 c-14
-49 -22 -41 -13 13 4 23 11 38 15 34 5 -5 4 -26 -2 -47z m-361 -53 c11 -10 24
-34 27 -53 l7 -35 -27 25 c-15 14 -33 37 -41 53 -13 23 -13 27 0 27 7 0 23 -8
34 -17z m208 -10 c-17 -33 -66 -81 -66 -65 0 40 38 92 67 92 11 0 11 -5 -1
-27z m-556 -99 c-8 -27 -8 -26 -9 16 0 32 2 40 9 29 5 -9 6 -28 0 -45z m887
-42 c-6 -60 -19 -93 -32 -80 -3 3 0 39 7 81 14 93 33 92 25 -1z m-191 0 c-12
-12 -18 8 -10 35 l8 28 4 -28 c2 -16 1 -31 -2 -35z m-719 -19 c-2 -16 -4 -5
-4 22 0 28 2 40 4 28 2 -13 2 -35 0 -50z m213 41 c0 -8 -4 -14 -10 -14 -5 0
-10 9 -10 21 0 11 5 17 10 14 6 -3 10 -13 10 -21z m369 10 c-12 -14 -61 -44
-74 -44 -14 0 -3 30 13 30 9 1 28 7 42 15 32 18 35 18 19 -1z m-194 -9 c11 -1
21 -9 23 -18 4 -22 -6 -21 -45 3 -35 21 -45 37 -15 25 9 -4 26 -8 37 -10z
m-347 -115 l0 -25 -8 25 c-4 14 -8 34 -8 45 l-1 20 9 -20 c5 -11 8 -31 8 -45z
m314 33 c23 -4 26 -8 18 -24 -16 -30 -11 -49 15 -59 17 -7 25 -17 25 -34 0
-30 -27 -39 -53 -18 -14 13 -26 13 -64 5 -51 -12 -63 -10 -63 13 0 10 10 13
33 12 l32 -3 -4 64 c-3 59 -2 63 15 57 11 -4 31 -10 46 -13z m269 -24 c-9 -83
-9 -84 33 -89 32 -4 37 -7 25 -17 -11 -9 -25 -9 -56 0 -35 9 -45 8 -68 -7 -21
-14 -29 -15 -41 -5 -23 19 -17 48 12 59 23 9 26 15 21 43 -5 30 -2 34 26 44
45 14 52 10 48 -28z m-458 -62 c14 -32 22 -55 16 -52 -15 10 -59 102 -52 109
8 8 5 12 36 -57z m603 4 c-25 -48 -35 -45 -12 5 11 25 22 41 24 35 2 -5 -4
-23 -12 -40z m335 -53 c31 -24 90 -70 133 -102 42 -32 75 -60 73 -63 -5 -4
-97 33 -151 62 -22 11 -54 40 -73 65 -69 95 -66 101 18 38z m-37 -39 l18 -31
-23 7 c-34 10 -51 29 -44 48 9 22 27 12 49 -24z m-1091 7 c9 -7 17 -16 17 -19
0 -7 -120 -75 -175 -99 l-40 -18 55 49 c30 28 66 61 80 75 27 29 37 31 63 12z
m157 -45 c16 -31 13 -111 -5 -111 -8 0 -17 -12 -21 -27 -15 -68 -42 -137 -107
-272 -38 -80 -73 -157 -78 -170 -5 -13 -12 -22 -14 -19 -4 4 9 59 87 361 20
75 22 79 59 94 32 12 41 22 50 56 6 22 9 56 7 74 -4 37 6 43 22 14z m390 -15
c0 -3 -4 -8 -10 -11 -5 -3 -10 -1 -10 4 0 6 5 11 10 11 6 0 10 -2 10 -4z m262
-48 c-2 -27 -8 -45 -13 -42 -9 5 -3 68 8 87 8 14 10 3 5 -45z m-342 -68 c17
-31 27 -24 41 30 7 27 15 48 17 45 9 -9 -10 -82 -28 -105 l-19 -25 -20 45
c-11 25 -20 61 -20 80 l1 35 8 -42 c5 -23 14 -51 20 -63z m364 -47 c10 -35 46
-195 46 -205 0 -14 -28 23 -68 90 -31 51 -38 84 -26 129 5 18 10 21 24 13 10
-6 21 -18 24 -27z m-581 -17 c8 -30 5 -46 -18 -94 -15 -31 -30 -59 -34 -62 -3
-3 -13 -18 -22 -35 -78 -144 -128 -227 -114 -190 4 11 18 49 30 85 25 73 70
167 91 188 26 26 36 54 30 87 -13 68 22 88 37 21z m719 -275 c27 -56 47 -105
45 -108 -3 -2 -18 14 -33 37 -16 23 -38 54 -50 68 -11 15 -24 35 -27 46 -7 18
-37 157 -37 166 1 3 12 -20 26 -50 15 -30 48 -102 76 -159z m-102 49 c18 -26
64 -179 56 -188 -4 -4 -86 199 -86 213 0 11 10 3 30 -25z"/>
<path d="M1491 2834 c0 -11 3 -14 6 -6 3 7 2 16 -1 19 -3 4 -6 -2 -5 -13z"/>
<path d="M926 2789 c-3 -17 -5 -43 -5 -58 1 -14 5 -2 10 28 10 58 6 83 -5 30z"/>
<path d="M1032 2800 c0 -14 2 -19 5 -12 2 6 2 18 0 25 -3 6 -5 1 -5 -13z"/>
<path d="M1042 2700 c0 -19 2 -27 5 -17 2 9 2 25 0 35 -3 9 -5 1 -5 -18z"/>
<path d="M911 2690 c-1 -8 -8 -73 -16 -145 -8 -71 -14 -177 -13 -235 l1 -105
7 122 c4 67 13 174 20 236 7 62 10 120 7 128 -5 12 -6 12 -6 -1z"/>
<path d="M1051 2623 c-1 -23 3 -44 7 -47 4 -2 6 12 4 32 -5 56 -10 62 -11 15z"/>
<path d="M1063 2490 c0 -36 2 -50 4 -32 2 17 2 47 0 65 -2 17 -4 3 -4 -33z"/>
<path d="M1074 2300 c0 -63 1 -89 3 -57 2 31 2 83 0 115 -2 31 -3 5 -3 -58z"/>
</g>
</svg>
