<?xml version="1.0" standalone="no"?>
<!DOCTYPE svg PUBLIC "-//W3C//DTD SVG 20010904//EN"
 "http://www.w3.org/TR/2001/REC-SVG-20010904/DTD/svg10.dtd">
<svg version="1.0" xmlns="http://www.w3.org/2000/svg"
 width="244.000000pt" height="305.000000pt" viewBox="0 0 244.000000 305.000000"
 preserveAspectRatio="xMidYMid meet">
<metadata>
Created by potrace 1.16, written by Peter Selinger 2001-2019
</metadata>
<g transform="translate(0.000000,305.000000) scale(0.100000,-0.100000)"
fill="#000000" stroke="none">
<path d="M882 2803 c-50 -229 -69 -409 -74 -688 -3 -189 -3 -189 20 -201 13
-6 36 -24 51 -38 l29 -27 33 29 c19 16 43 32 53 36 18 6 19 16 12 218 -7 218
-19 379 -36 483 -23 140 -54 285 -60 285 -4 0 -16 -44 -28 -97z m24 -900 c-2
-3 -23 8 -45 23 l-41 27 0 108 c0 217 35 582 73 749 10 47 12 -18 15 -424 1
-264 0 -481 -2 -483z"/>
<path d="M1555 2863 c8 -45 9 -952 1 -960 -3 -4 -16 3 -29 15 -13 12 -28 22
-34 22 -22 0 -25 44 -19 209 11 254 35 477 73 676 3 17 3 27 -1 24 -11 -10
-46 -218 -61 -359 -8 -74 -18 -233 -21 -352 l-7 -216 34 -15 c19 -7 40 -21 48
-30 19 -23 34 -21 61 8 13 14 29 25 36 25 25 0 30 33 27 168 -8 309 -33 546
-79 750 -17 74 -42 104 -29 35z"/>
<path d="M1302 2860 c0 -14 2 -19 5 -12 2 6 2 18 0 25 -3 6 -5 1 -5 -13z"/>
<path d="M1162 2850 c-2 -22 -11 -842 -11 -945 0 -69 -19 -27 -36 80 -9 54
-20 106 -25 114 -14 25 -28 -25 -36 -128 -6 -83 -5 -90 14 -100 38 -20 52 -42
52 -80 0 -20 -6 -46 -14 -56 -12 -17 -17 -18 -40 -7 -35 16 -44 -4 -21 -47 20
-39 39 -39 75 -1 l29 31 -3 -63 c-2 -57 -4 -63 -24 -64 -12 -1 -34 -9 -49 -19
-27 -18 -27 -18 -5 -26 15 -6 22 -17 22 -34 0 -35 -12 -31 -54 16 -39 43 -56
77 -56 112 0 13 -9 30 -19 39 -42 36 5 92 77 93 40 1 47 4 50 22 5 35 -38 75
-81 75 -44 0 -59 -11 -82 -58 -19 -40 -20 -39 -43 8 -40 80 -172 59 -160 -25
3 -19 8 -22 41 -19 32 3 43 -2 72 -31 38 -38 43 -58 20 -77 -35 -29 -14 -112
53 -212 l45 -68 -37 -40 c-61 -67 -47 -125 35 -145 40 -10 52 13 37 69 -10 39
-10 48 3 61 13 14 20 13 58 -2 l43 -18 -5 -53 c-2 -31 -11 -60 -20 -70 -16
-15 -17 -14 -18 13 -1 23 -3 25 -6 8 -3 -14 -20 -30 -49 -44 -55 -26 -77 -19
-117 39 -25 35 -29 51 -33 134 -3 80 -7 96 -25 110 -27 23 -33 23 -65 -5 -21
-18 -26 -32 -26 -64 1 -46 11 -68 85 -192 39 -65 52 -96 55 -136 4 -49 1 -58
-70 -181 -41 -71 -103 -180 -137 -242 -35 -61 -68 -112 -73 -112 -5 0 -6 5 -3
10 4 6 34 101 69 212 l62 202 47 15 c41 13 48 19 57 50 21 78 8 133 -54 212
-89 114 -101 172 -52 247 26 42 27 45 10 63 -23 26 -104 26 -127 1 -21 -23
-22 -67 -2 -122 20 -57 19 -119 -4 -155 -17 -28 -166 -123 -336 -215 l-60 -33
65 64 c230 225 224 219 261 209 19 -6 37 -10 42 -10 10 0 -3 178 -15 205 -5
12 -7 -17 -5 -78 l3 -97 -33 6 c-31 6 -40 -1 -213 -166 -99 -95 -179 -174
-177 -176 2 -2 108 31 235 74 213 70 232 79 232 100 0 35 24 36 86 5 47 -23
62 -37 82 -75 28 -54 22 -72 -26 -81 -30 -6 -23 10 -102 -247 -73 -238 -98
-325 -94 -329 2 -2 5 -2 7 0 6 8 240 274 306 348 82 92 83 94 71 126 -5 14
-10 35 -10 47 0 19 5 20 95 16 66 -2 98 -7 104 -16 5 -8 12 -14 17 -15 11 -2
11 -83 0 -94 -4 -4 -11 -2 -15 5 -4 7 -7 -50 -7 -127 1 -100 -3 -144 -11 -152
-8 -8 -13 -36 -12 -68 1 -54 2 -52 21 47 11 56 24 102 27 102 4 0 28 -107 55
-237 26 -131 49 -239 50 -241 2 -1 24 105 50 235 26 131 51 240 56 243 4 3 10
19 13 35 2 17 3 5 1 -25 -2 -41 0 -50 7 -35 7 16 9 13 5 -15 -2 -20 2 -63 10
-95 l13 -60 -4 50 c-13 143 -27 447 -20 453 3 4 50 9 102 11 l95 3 -4 -33 c-3
-19 -8 -41 -12 -50 -5 -12 15 -42 71 -106 43 -49 132 -151 197 -226 66 -75
121 -135 123 -134 1 2 -32 115 -73 253 -42 137 -80 264 -86 282 -7 24 -19 38
-43 48 -44 18 -48 27 -32 67 18 43 78 92 128 105 43 11 49 8 49 -23 0 -20 23
-30 218 -95 308 -103 288 -100 216 -32 -314 297 -322 305 -357 298 l-32 -6 4
93 c3 99 -5 115 -14 26 -3 -29 -13 -73 -21 -97 -9 -23 -13 -49 -10 -57 5 -15
86 -70 221 -150 100 -60 168 -106 163 -111 -3 -2 -35 8 -74 22 -38 14 -114 42
-169 61 -124 45 -127 47 -113 79 10 22 8 28 -20 54 -29 26 -32 35 -32 86 0 32
10 88 22 126 l22 68 -24 25 c-25 27 -84 34 -121 15 -25 -14 -24 -33 6 -83 24
-42 26 -75 9 -131 -3 -11 -30 -52 -59 -91 -61 -82 -88 -148 -88 -213 1 -51 -2
-46 162 -346 51 -92 90 -170 88 -172 -2 -2 -30 29 -63 68 -53 65 -78 94 -164
194 -64 74 -71 88 -64 124 3 19 7 69 8 110 1 81 7 96 100 257 59 102 68 151
35 182 -16 15 -34 21 -54 19 -28 -3 -31 -7 -41 -58 -6 -31 -13 -62 -16 -70 -3
-8 -1 -26 4 -39 11 -31 -31 -105 -73 -127 -28 -14 -34 -14 -75 3 -41 17 -44
21 -55 73 -7 30 -17 61 -22 67 -11 14 28 33 69 33 20 0 24 -5 24 -28 0 -15 -4
-42 -9 -60 -8 -28 -7 -34 11 -43 17 -9 28 -8 55 6 55 30 56 84 2 139 -16 17
-29 34 -29 38 0 5 18 32 39 61 62 83 89 189 56 217 -23 19 -18 43 16 78 26 26
39 32 75 32 40 0 44 2 44 24 0 41 -33 71 -78 71 -45 0 -74 -20 -92 -66 -7 -16
-15 -29 -19 -29 -3 1 -15 20 -26 42 -23 48 -58 63 -106 46 -33 -11 -49 -35
-49 -73 0 -25 2 -26 43 -20 34 5 47 3 68 -14 35 -27 42 -56 18 -77 -10 -9 -19
-29 -19 -43 0 -39 -75 -151 -102 -151 -15 0 -8 49 9 59 26 14 -2 41 -43 41
l-34 0 0 60 c0 33 2 60 5 60 3 0 16 -12 29 -26 16 -19 28 -25 43 -20 20 6 43
44 43 71 0 17 -26 20 -35 5 -3 -5 -14 -10 -24 -10 -21 0 -31 26 -31 82 0 30 6
41 37 66 l37 30 -12 98 c-7 54 -16 102 -21 107 -10 10 -26 -51 -42 -156 -7
-43 -15 -79 -18 -81 -3 -2 -5 96 -3 217 1 122 -1 328 -6 457 l-9 235 -3 -280
c-2 -220 -4 -264 -11 -205 -9 77 -45 257 -58 293 -6 16 -13 2 -29 -59 -11 -43
-23 -92 -25 -109 -2 -16 -5 20 -7 80 -3 143 -16 387 -18 355z m67 -764 c2
-382 0 -454 -12 -459 -27 -10 -40 11 -43 72 -2 46 1 63 12 69 19 10 16 98 -3
95 -8 -2 -10 18 -7 70 2 39 6 140 8 222 3 113 32 385 41 385 0 0 2 -204 4
-454z m-292 -515 c21 -44 125 -161 145 -161 4 0 8 -8 8 -18 0 -33 -30 -20 -89
37 -56 55 -101 131 -101 171 0 33 14 23 37 -29z m633 32 c0 -57 -125 -223
-167 -223 -28 0 -11 31 47 86 34 33 69 77 82 105 22 50 38 63 38 32z m-289
-46 c-8 -8 -11 -4 -11 14 0 33 14 47 18 19 2 -12 -1 -27 -7 -33z m26 31 c-3
-8 -6 -5 -6 6 -1 11 2 17 5 13 3 -3 4 -12 1 -19z m-107 -8 c0 -11 -4 -20 -10
-20 -5 0 -10 9 -10 20 0 11 5 20 10 20 6 0 10 -9 10 -20z m-50 -85 c16 -42 24
-155 11 -155 -6 0 -11 17 -11 39 0 46 -9 73 -21 65 -5 -3 -9 13 -9 35 0 46 16
54 30 16z m87 -12 c-3 -10 -5 -4 -5 12 0 17 2 24 5 18 2 -7 2 -21 0 -30z m113
-9 c0 -22 -4 -33 -12 -31 -9 1 -14 -14 -16 -45 -3 -54 -22 -66 -22 -15 0 46
29 139 40 132 6 -4 10 -22 10 -41z m-233 -106 c-3 -8 -6 -5 -6 6 -1 11 2 17 5
13 3 -3 4 -12 1 -19z m240 0 c-3 -8 -6 -5 -6 6 -1 11 2 17 5 13 3 -3 4 -12 1
-19z m37 -173 c6 -27 5 -27 -8 5 -8 19 -14 51 -14 70 l1 35 7 -40 c4 -22 10
-53 14 -70z m-257 -7 c-3 -7 -5 -2 -5 12 0 14 2 19 5 13 2 -7 2 -19 0 -25z
m39 12 c16 0 18 -9 4 -30 -11 -18 -17 -13 -24 25 -3 17 -3 24 0 18 3 -7 12
-13 20 -13z m136 -15 c-5 -29 -17 -32 -26 -8 -4 9 -1 20 6 25 21 13 25 9 20
-17z m62 -82 c-5 -14 -15 -28 -22 -31 -11 -3 -12 0 -3 16 6 11 11 31 11 43 0
18 3 20 12 11 8 -8 9 -20 2 -39z m-264 18 c0 -11 3 -27 6 -35 5 -12 2 -15 -10
-10 -17 7 -23 64 -6 64 6 0 10 -9 10 -19z m128 -202 c-3 -8 -7 -3 -11 10 -4
17 -3 21 5 13 5 -5 8 -16 6 -23z m101 -76 c1 -21 -17 -15 -24 7 -9 27 6 50 16
24 4 -10 8 -25 8 -31z m-109 -171 c-1 -97 -5 -213 -9 -257 l-6 -80 -19 105
c-10 58 -25 131 -33 164 -26 108 -15 208 28 255 20 21 23 22 31 7 5 -10 9 -97
8 -194z"/>
<path d="M1196 1978 c-5 -27 -5 -63 -1 -80 13 -63 17 -168 6 -168 -13 0 -15
-57 -2 -65 17 -10 23 79 14 221 -8 120 -10 133 -17 92z"/>
<path d="M1211 824 c0 -11 3 -14 6 -6 3 7 2 16 -1 19 -3 4 -6 -2 -5 -13z"/>
<path d="M1213 625 c0 -27 2 -38 4 -22 2 15 2 37 0 50 -2 12 -4 0 -4 -28z"/>
<path d="M1293 2600 c0 -36 2 -50 4 -32 2 17 2 47 0 65 -2 17 -4 3 -4 -33z"/>
<path d="M1143 2515 c0 -27 2 -38 4 -22 2 15 2 37 0 50 -2 12 -4 0 -4 -28z"/>
<path d="M1142 2440 c0 -14 2 -19 5 -12 2 6 2 18 0 25 -3 6 -5 1 -5 -13z"/>
<path d="M1060 1286 c0 -9 5 -16 10 -16 6 0 10 4 10 9 0 6 -4 13 -10 16 -5 3
-10 -1 -10 -9z"/>
<path d="M1051 1244 c0 -11 3 -14 6 -6 3 7 2 16 -1 19 -3 4 -6 -2 -5 -13z"/>
<path d="M1092 650 c0 -19 2 -27 5 -17 2 9 2 25 0 35 -3 9 -5 1 -5 -18z"/>
</g>
</svg>
