<?xml version="1.0" standalone="no"?>
<!DOCTYPE svg PUBLIC "-//W3C//DTD SVG 20010904//EN"
 "http://www.w3.org/TR/2001/REC-SVG-20010904/DTD/svg10.dtd">
<svg version="1.0" xmlns="http://www.w3.org/2000/svg"
 width="244.000000pt" height="305.000000pt" viewBox="0 0 244.000000 305.000000"
 preserveAspectRatio="xMidYMid meet">
<metadata>
Created by potrace 1.16, written by Peter Selinger 2001-2019
</metadata>
<g transform="translate(0.000000,305.000000) scale(0.100000,-0.100000)"
fill="#000000" stroke="none">
<path d="M872 2825 c-51 -222 -70 -385 -79 -682 l-6 -222 29 -11 c16 -6 41
-22 55 -36 l26 -25 32 30 c18 17 41 33 52 36 18 6 19 16 19 151 0 80 -4 143
-9 140 -4 -3 -6 -58 -4 -123 2 -65 1 -122 -4 -128 -13 -16 -71 -55 -83 -55
-13 0 -14 929 0 950 8 12 10 8 11 -15 1 -22 3 -24 6 -9 2 12 -2 37 -10 55
l-14 34 -21 -90z"/>
<path d="M1562 2863 c-47 -160 -80 -430 -89 -724 l-6 -217 36 -17 c20 -9 41
-23 48 -31 15 -19 33 -18 50 3 8 9 29 22 47 30 l32 13 0 140 c0 86 -4 140 -10
140 -6 0 -8 -42 -4 -117 l7 -118 -41 -32 c-23 -18 -46 -33 -51 -33 -13 0 -16
936 -3 944 9 5 9 42 0 51 -2 3 -10 -12 -16 -32z"/>
<path d="M1181 2790 c-2 -19 -3 -120 -1 -225 1 -107 -3 -210 -9 -236 -6 -26
-14 -142 -17 -258 -7 -201 -16 -256 -29 -173 -14 83 -37 197 -41 202 -11 10
-22 -27 -34 -113 -15 -98 -15 -97 46 -133 15 -9 19 -23 19 -62 0 -60 -16 -83
-45 -64 -30 19 -40 15 -40 -17 0 -32 22 -61 46 -61 8 0 25 11 38 25 32 34 39
31 31 -14 -5 -30 -3 -40 9 -44 9 -4 16 -16 16 -27 0 -17 -4 -19 -27 -14 -16 4
-30 8 -32 10 -6 6 -61 -26 -61 -36 0 -5 18 -14 40 -20 38 -10 40 -13 40 -51 0
-38 -1 -39 -22 -28 -41 21 -118 113 -129 154 -15 54 -16 57 -34 81 -15 20 -14
23 15 54 28 30 34 32 75 28 44 -5 45 -5 45 23 0 32 -29 64 -66 73 -35 9 -83
-20 -100 -60 -14 -32 -34 -39 -34 -10 0 7 -13 25 -29 40 -39 37 -105 41 -133
6 -10 -13 -18 -35 -16 -49 3 -23 7 -25 43 -23 30 2 48 -3 69 -19 37 -29 52
-70 32 -85 -37 -27 -10 -143 52 -223 44 -56 44 -58 13 -94 -45 -50 -55 -84
-36 -114 21 -32 57 -47 90 -39 24 6 26 11 20 34 -22 92 -15 117 33 102 92 -28
94 -30 88 -69 -5 -26 -4 -32 3 -21 16 23 14 -34 -3 -95 l-14 -50 -1 41 -1 41
-42 -7 c-24 -3 -59 -12 -79 -20 -33 -12 -39 -11 -67 9 -44 31 -75 86 -67 118
3 14 1 47 -4 72 -6 25 -13 58 -16 74 -4 22 -11 27 -34 27 -47 0 -76 -31 -75
-78 1 -32 19 -70 79 -172 l77 -131 3 -90 c2 -49 7 -98 10 -109 4 -14 -3 -31
-22 -54 -15 -18 -82 -96 -147 -172 -66 -76 -121 -141 -123 -143 -2 -2 -5 -2
-7 0 -4 4 13 36 172 320 64 114 82 155 82 186 0 64 -36 154 -84 208 -85 98
-102 161 -61 230 14 24 25 50 25 59 0 35 -96 50 -138 20 -28 -19 -28 -53 -2
-129 11 -32 20 -78 20 -103 0 -37 -5 -49 -34 -76 -26 -24 -32 -35 -25 -51 17
-43 26 -38 -230 -126 -63 -22 -118 -38 -122 -37 -5 2 79 57 186 122 137 83
195 125 195 137 0 10 -7 44 -15 76 -8 31 -15 74 -15 95 0 20 -5 40 -12 44 -8
5 -10 -18 -5 -90 l5 -97 -31 6 c-28 6 -40 -1 -99 -52 -161 -141 -318 -285
-318 -294 0 -5 24 0 53 10 28 10 139 47 245 81 181 58 192 63 192 86 0 34 19
38 71 17 60 -24 82 -42 108 -83 31 -51 27 -67 -17 -80 l-38 -10 -54 -167 c-29
-93 -70 -222 -91 -288 -21 -65 -37 -121 -35 -122 3 -3 111 109 165 172 19 22
76 85 128 140 119 129 127 139 113 164 -5 11 -10 31 -10 45 0 26 0 26 88 26
100 0 152 -21 152 -62 0 -19 2 -20 10 -8 8 13 10 13 10 0 0 -8 -14 -28 -31
-46 l-31 -32 16 -79 c19 -95 20 -120 13 -203 l-6 -65 12 60 12 60 13 -65 c8
-36 20 -94 27 -130 8 -36 22 -103 32 -150 l18 -85 12 55 c7 30 22 100 33 155
12 55 30 136 40 180 10 44 24 112 30 150 7 39 16 80 20 91 7 17 3 27 -16 45
-37 35 -33 84 9 109 27 17 46 20 122 18 99 -3 93 2 79 -73 -5 -28 8 -45 167
-220 95 -104 183 -201 196 -215 44 -47 44 -49 -77 340 -29 91 -58 175 -65 186
-8 12 -28 24 -45 28 -29 5 -32 9 -25 33 16 67 74 118 157 138 23 6 27 3 33
-23 6 -29 12 -32 183 -87 97 -31 203 -66 235 -77 64 -23 85 -17 47 14 -14 11
-63 55 -110 97 -248 226 -242 222 -278 216 l-34 -6 7 90 c5 61 4 91 -3 91 -6
0 -13 -35 -17 -77 -12 -143 -16 -128 35 -125 36 3 51 -2 72 -20 153 -136 267
-242 263 -246 -2 -3 -90 44 -195 104 -138 79 -196 118 -211 140 -23 38 -25
101 -4 151 20 46 19 107 -1 127 -18 18 -85 21 -115 6 -25 -14 -24 -29 6 -86
14 -26 25 -57 25 -69 0 -29 -45 -110 -102 -185 -45 -58 -48 -66 -48 -121 0
-81 13 -103 68 -120 46 -15 47 -16 68 -84 12 -39 43 -135 68 -214 25 -80 46
-147 46 -149 0 -2 -7 1 -15 8 -8 7 -15 16 -15 20 0 5 -59 109 -131 231 -153
259 -158 277 -112 361 16 29 51 87 77 129 54 86 64 143 32 178 -21 23 -68 28
-83 9 -12 -15 -25 -93 -27 -158 -1 -35 -9 -54 -35 -88 -41 -50 -68 -59 -110
-37 -18 9 -49 18 -69 19 -39 4 -42 9 -55 88 l-6 37 59 19 c79 27 97 7 68 -75
-10 -27 -10 -36 0 -42 22 -13 80 1 102 24 29 31 22 62 -25 114 -19 21 -35 41
-35 45 0 4 18 30 41 58 70 89 92 168 58 211 -25 33 -19 59 25 92 23 17 46 25
74 25 38 0 42 2 42 25 0 64 -99 89 -152 38 -15 -15 -28 -32 -28 -39 0 -29 -19
-22 -37 14 -11 20 -31 43 -46 50 -50 24 -117 -14 -117 -68 0 -29 1 -30 43 -24
33 5 47 2 68 -15 35 -27 42 -56 18 -77 -10 -9 -19 -29 -19 -44 0 -33 -46 -106
-94 -147 -45 -41 -53 -41 -58 -3 -6 38 0 46 40 55 17 3 32 11 32 15 0 17 -42
32 -81 28 -32 -3 -39 0 -39 15 0 9 7 20 16 24 13 5 15 14 10 44 -7 45 2 49 32
14 36 -41 69 -29 79 28 6 40 3 43 -26 25 -26 -16 -47 -5 -54 29 -9 47 4 82 40
110 35 27 35 27 28 87 -10 92 -26 159 -35 149 -5 -4 -18 -59 -29 -122 -19
-106 -26 -130 -35 -120 -6 7 -26 590 -26 761 0 86 -3 159 -7 161 -5 3 -7 -86
-6 -196 1 -130 -2 -184 -7 -152 -4 28 -17 77 -28 109 l-19 60 -19 -73 -19 -74
-5 184 c-3 101 -7 168 -9 149z m91 -580 l2 -195 6 130 c6 118 7 111 6 -68 -1
-176 2 -215 17 -189 2 4 2 1 0 -6 -1 -8 -3 -22 -3 -33 0 -10 -4 -19 -10 -19
-5 0 -10 10 -10 23 0 18 -2 19 -11 7 -8 -11 -9 -6 -3 20 10 48 9 91 -3 99 -6
3 -12 116 -16 276 -4 242 -4 264 9 210 8 -37 14 -136 16 -255z m-1 -444 c5 -6
9 -37 9 -69 0 -44 -5 -65 -20 -84 l-20 -26 7 34 c3 19 10 36 15 37 11 5 10 70
-2 77 -5 3 -9 27 -9 53 2 34 3 39 6 17 3 -16 9 -34 14 -39z m36 -98 c-2 -18
-4 -6 -4 27 0 33 2 48 4 33 2 -15 2 -42 0 -60z m-387 -83 c15 -45 96 -134 160
-175 84 -54 53 -72 -36 -21 -75 43 -154 151 -154 210 0 33 17 25 30 -14z m660
13 c0 -78 -108 -197 -215 -238 -44 -17 -29 14 23 48 65 42 146 129 163 175 15
41 29 49 29 15z m-367 -68 c4 -30 3 -38 -3 -25 -8 19 -14 83 -6 74 2 -2 6 -24
9 -49z m54 13 c-3 -10 -5 -4 -5 12 0 17 2 24 5 18 2 -7 2 -21 0 -30z m-30 -70
c-3 -10 -5 -2 -5 17 0 19 2 27 5 18 2 -10 2 -26 0 -35z m-80 -25 c-3 -7 -5 -2
-5 12 0 14 2 19 5 13 2 -7 2 -19 0 -25z m160 0 c-3 -7 -5 -2 -5 12 0 14 2 19
5 13 2 -7 2 -19 0 -25z m-20 -115 c-2 -16 -4 -3 -4 27 0 30 2 43 4 28 2 -16 2
-40 0 -55z m30 25 c-3 -8 -6 -5 -6 6 -1 11 2 17 5 13 3 -3 4 -12 1 -19z m47
-230 c4 -22 3 -38 -2 -38 -6 0 -13 21 -17 48 -3 26 -8 58 -11 72 -3 16 1 13 9
-10 8 -19 17 -52 21 -72z m-226 -56 c2 -7 -2 -10 -12 -6 -9 3 -16 11 -16 16 0
13 23 5 28 -10z m202 8 c0 -5 -7 -10 -16 -10 -8 0 -12 5 -9 10 3 6 10 10 16
10 5 0 9 -4 9 -10z m-31 -320 c4 -39 4 -76 -1 -83 -4 -6 -8 -27 -8 -46 0 -31
-11 -88 -54 -271 -15 -65 -15 -65 -10 90 3 85 6 218 6 296 l1 140 29 -28 c25
-24 30 -40 37 -98z m31 14 c0 -8 -4 -14 -10 -14 -5 0 -10 9 -10 21 0 11 5 17
10 14 6 -3 10 -13 10 -21z"/>
<path d="M1292 800 c0 -14 2 -19 5 -12 2 6 2 18 0 25 -3 6 -5 1 -5 -13z"/>
<path d="M1302 730 c0 -14 2 -19 5 -12 2 6 2 18 0 25 -3 6 -5 1 -5 -13z"/>
<path d="M1602 2770 c0 -19 2 -27 5 -17 2 9 2 25 0 35 -3 9 -5 1 -5 -18z"/>
<path d="M923 2765 c17 -93 40 -269 52 -400 l14 -150 -4 135 c-3 125 -45 425
-61 439 -4 3 -4 -7 -1 -24z"/>
<path d="M1615 2690 c2 -19 9 -66 15 -105 6 -38 18 -140 25 -225 l14 -155 -4
126 c-5 134 -30 340 -45 374 -7 15 -9 12 -5 -15z"/>
<path d="M1335 538 c-3 -7 -1 -33 4 -58 l9 -45 1 58 c1 55 -4 71 -14 45z"/>
</g>
</svg>
