<?xml version="1.0" standalone="no"?>
<!DOCTYPE svg PUBLIC "-//W3C//DTD SVG 20010904//EN"
 "http://www.w3.org/TR/2001/REC-SVG-20010904/DTD/svg10.dtd">
<svg version="1.0" xmlns="http://www.w3.org/2000/svg"
 width="244.000000pt" height="305.000000pt" viewBox="0 0 244.000000 305.000000"
 preserveAspectRatio="xMidYMid meet">
<metadata>
Created by potrace 1.16, written by Peter Selinger 2001-2019
</metadata>
<g transform="translate(0.000000,305.000000) scale(0.100000,-0.100000)"
fill="#000000" stroke="none">
<path d="M1011 2898 c0 -14 -4 -34 -8 -44 -4 -12 -3 -15 5 -10 9 5 12 -19 12
-94 0 -72 -3 -99 -11 -94 -8 5 -9 -8 -5 -42 3 -27 9 -190 12 -361 6 -284 5
-313 -10 -319 -9 -3 -24 0 -33 7 -14 12 -15 42 -9 289 3 151 8 304 10 340 4
61 4 62 -4 15 -5 -34 -7 10 -6 132 0 100 -2 179 -5 175 -15 -16 -59 -338 -68
-497 -15 -243 -17 -478 -4 -482 49 -17 52 -56 5 -52 -42 4 -69 -9 -82 -41 -17
-40 -7 -62 24 -54 32 8 62 -10 82 -48 15 -29 15 -33 -1 -61 -20 -34 -15 -87
15 -150 25 -52 25 -54 -6 -61 -34 -9 -52 7 -34 29 10 12 10 21 2 39 -10 23
-16 24 -96 24 -80 1 -85 -1 -101 -25 -16 -23 -16 -30 0 -92 9 -36 19 -77 21
-89 5 -27 -3 -62 -15 -62 -9 0 -31 106 -31 153 0 19 -5 39 -12 43 -8 5 -10
-16 -5 -84 l6 -91 -28 5 c-23 5 -33 0 -57 -29 -16 -19 -85 -96 -152 -171 -68
-76 -122 -139 -119 -142 2 -3 20 2 38 10 94 40 189 74 189 66 0 -5 -11 -22
-25 -38 -24 -28 -34 -58 -17 -50 68 32 282 143 298 154 20 13 23 13 38 -11 25
-37 33 -95 14 -95 -29 0 -49 -27 -67 -95 -51 -187 -122 -477 -118 -481 3 -3
15 10 28 28 13 18 29 39 36 46 7 8 27 34 44 58 17 25 33 43 35 41 3 -2 -4 -46
-16 -97 -11 -52 -18 -95 -16 -97 4 -4 33 43 136 222 35 61 73 126 86 145 40
61 47 84 36 121 -13 48 -6 59 36 59 46 0 79 -17 105 -52 l21 -28 -27 -28 c-15
-15 -27 -38 -27 -51 0 -27 99 -634 105 -639 1 -2 8 27 14 65 6 37 27 158 45
268 19 110 38 228 41 263 7 60 6 65 -21 93 l-28 29 21 28 c26 36 59 52 106 52
l39 0 -7 -50 c-6 -47 -4 -55 33 -118 22 -37 79 -133 126 -214 48 -82 89 -148
90 -148 3 0 -14 96 -28 158 -4 17 -4 32 1 32 4 0 37 -41 73 -91 91 -127 89
-125 90 -116 0 12 -130 525 -140 552 -5 12 -23 28 -40 34 -28 9 -31 14 -26 35
11 43 24 74 35 81 6 3 74 -26 152 -65 77 -39 144 -69 147 -66 3 4 -5 20 -17
37 -26 35 -21 47 12 31 37 -18 232 -89 236 -86 4 4 -33 49 -108 130 -31 34
-90 98 -131 143 -67 73 -77 81 -102 76 l-28 -7 6 94 c5 62 3 90 -4 83 -5 -5
-13 -54 -16 -108 l-7 -99 38 6 c38 7 39 6 124 -86 133 -144 162 -178 153 -178
-8 0 -185 119 -270 181 -29 21 -59 54 -69 75 -17 35 -17 42 -1 114 28 132 19
170 -40 170 -19 0 -45 -5 -56 -11 -14 -8 -23 -8 -31 0 -16 16 -52 14 -67 -4
-8 -9 -10 -28 -5 -54 7 -40 -9 -67 -21 -37 -3 9 -12 16 -20 16 -18 0 -18 10
-1 35 16 24 37 103 37 141 0 15 -8 32 -17 39 -14 11 -15 16 -4 43 20 47 45 65
86 60 33 -4 35 -2 35 25 0 15 -4 37 -10 47 -12 23 -62 35 -87 21 -11 -5 -25
-6 -33 -1 -12 7 -11 12 4 29 10 11 28 23 39 27 20 6 20 11 14 253 -4 135 -14
300 -22 366 -8 65 -15 126 -15 134 0 8 -2 12 -6 9 -3 -3 2 -79 10 -169 9 -90
19 -249 22 -354 l6 -190 -31 -29 c-17 -16 -33 -27 -36 -25 -3 3 -7 219 -10
480 -4 413 -3 468 9 424 18 -65 19 -27 2 45 -15 60 -20 56 -36 -34 -5 -33 -12
-61 -14 -63 -2 -3 -7 25 -11 61 -12 114 -20 72 -16 -86 2 -83 -2 -221 -8 -307
-6 -86 -12 -232 -13 -324 -1 -92 -5 -170 -10 -173 -15 -9 -28 46 -29 124 -1
60 -3 69 -9 42 -4 -19 -8 -27 -9 -17 0 9 -5 17 -10 17 -5 0 -12 -8 -14 -17 -3
-13 -5 -11 -7 7 -1 23 -2 23 -10 5 -5 -11 -9 -38 -9 -60 -1 -22 -5 -46 -10
-53 -4 -7 -11 60 -14 155 -9 228 -48 488 -67 452 -23 -43 -59 -361 -61 -534 0
-108 -12 -108 -25 0 -5 45 -9 55 -15 40 -4 -11 -8 -14 -8 -7 -2 24 -19 11 -26
-20 -6 -22 -11 47 -16 196 -4 126 -15 297 -24 380 -17 158 -42 300 -44 254z
m62 -1026 c-7 -2 -20 -2 -29 0 -13 2 -11 7 8 27 l22 25 6 -25 c4 -15 2 -25 -7
-27z m357 8 c0 -9 -37 -20 -44 -13 -3 3 -1 14 5 25 8 15 13 17 25 7 8 -6 14
-15 14 -19z m-428 -32 c-15 -15 -26 -4 -18 18 5 13 9 15 18 6 9 -9 9 -15 0
-24z m493 22 c11 -17 -5 -32 -21 -19 -7 6 -11 15 -8 20 7 12 21 11 29 -1z
m-361 -124 c-3 -8 -16 -12 -35 -10 -25 3 -29 0 -29 -22 0 -54 45 -85 78 -52 9
9 12 6 12 -15 0 -16 8 -30 21 -37 11 -7 28 -28 36 -48 14 -34 16 -35 29 -17 8
10 14 25 14 32 0 7 11 20 25 29 16 10 25 26 26 43 0 14 3 20 6 14 13 -34 83
-2 83 37 0 27 17 34 25 9 4 -13 1 -27 -9 -38 -9 -10 -16 -33 -16 -52 0 -52
-12 -65 -41 -45 -13 9 -31 16 -41 16 -20 0 -61 -52 -75 -95 l-10 -30 -11 39
c-13 44 -48 86 -71 86 -9 0 -28 -7 -43 -14 -32 -17 -33 -16 -43 44 -4 24 -12
52 -18 61 -7 12 -7 26 3 48 11 27 17 31 51 31 28 0 37 -4 33 -14z m270 5 c3
-5 -4 -11 -17 -15 -35 -9 -47 -7 -47 9 0 16 55 22 64 6z m-431 -176 c4 -27 3
-35 -3 -25 -5 8 -10 28 -10 44 0 39 6 30 13 -19z m542 8 c-4 -21 -13 -49 -21
-63 l-15 -25 6 30 c3 17 8 45 11 63 4 17 11 32 16 32 6 0 7 -15 3 -37z m-156
-75 c-6 -12 -25 -38 -40 -56 l-29 -33 0 28 c0 34 24 71 54 83 28 10 30 7 15
-22z m-211 5 c12 -10 24 -36 28 -58 l7 -40 -42 50 c-22 27 -41 53 -41 57 0 14
27 8 48 -9z m531 -100 c-1 -43 -2 -45 -9 -18 -11 44 -11 65 0 65 6 0 9 -21 9
-47z m-870 -108 c1 -58 -19 -21 -26 50 -8 74 8 108 18 40 4 -27 8 -68 8 -90z
m301 105 c11 -11 34 -23 50 -27 30 -5 43 -33 16 -33 -18 0 -96 60 -96 74 0 11
10 6 30 -14z m-117 -36 c-10 -25 -23 -15 -23 19 1 30 2 31 15 14 7 -11 11 -25
8 -33z m371 25 c-17 -19 -65 -49 -79 -49 -3 0 -5 12 -5 28 0 21 2 24 10 12 8
-13 15 -12 47 7 48 28 51 28 27 2z m132 -37 c-12 -12 -18 8 -10 35 l8 28 4
-28 c2 -16 1 -31 -2 -35z m201 -19 c-2 -16 -4 -3 -4 27 0 30 2 43 4 28 2 -16
2 -40 0 -55z m-34 -56 c-3 -20 -9 -34 -13 -32 -5 3 -3 21 3 40 13 44 18 40 10
-8z m-537 17 c22 -6 24 -10 18 -40 -5 -30 -3 -35 20 -44 18 -7 26 -17 26 -34
0 -30 -26 -38 -58 -18 -18 12 -31 12 -69 3 -29 -8 -49 -9 -56 -2 -16 16 0 28
31 23 36 -5 44 11 32 63 -10 44 -3 68 17 61 8 -4 26 -9 39 -12z m169 6 c3 -5
1 -10 -4 -10 -6 0 -11 5 -11 10 0 6 2 10 4 10 3 0 8 -4 11 -10z m102 -45 c-6
-56 0 -68 35 -70 24 -2 34 -13 22 -25 -6 -6 -25 -5 -51 2 -35 9 -47 8 -67 -6
-31 -20 -56 -11 -56 20 0 17 8 27 25 34 27 10 35 52 13 66 -10 6 42 29 76 33
5 1 6 -24 3 -54z m143 -54 c-28 -56 -34 -51 -10 9 11 28 21 54 21 58 1 4 3 -1
6 -10 2 -9 -5 -35 -17 -57z m-600 -10 c-1 -13 -29 45 -29 59 0 8 6 0 14 -19 8
-18 15 -36 15 -40z m-320 -48 c-48 -73 -52 -76 -115 -101 -28 -11 -67 -28 -87
-36 -21 -9 -38 -14 -38 -12 0 5 168 136 175 136 3 0 15 9 27 19 45 38 73 59
76 57 1 -2 -16 -30 -38 -63z m54 1 c3 -9 6 -17 6 -20 0 -6 -61 -36 -65 -32 -6
5 36 68 45 68 4 0 11 -7 14 -16z m1090 -10 c9 -3 16 -12 16 -20 0 -7 19 -26
43 -42 42 -30 96 -82 84 -82 -6 0 -197 108 -207 117 -5 5 29 33 41 33 4 0 14
-3 23 -6z m-184 -83 c0 -73 21 -105 80 -124 11 -3 32 -68 69 -208 29 -112 55
-213 57 -224 9 -48 -169 336 -184 394 -9 41 -25 75 -39 88 -26 25 -26 25 -12
76 13 48 29 48 29 -2z m-661 -18 c6 -22 7 -42 1 -52 -7 -12 -9 -9 -10 14 0 17
-3 40 -6 53 -4 12 -4 22 -1 22 3 0 11 -16 16 -37z m282 -15 c7 -42 24 -88 34
-88 10 0 27 46 34 89 5 35 11 46 26 49 18 2 19 2 3 -8 -12 -7 -18 -24 -18 -48
0 -38 -28 -103 -45 -106 -16 -2 -45 66 -45 105 0 19 -6 41 -12 48 -11 11 -10
13 2 9 9 -3 18 -23 21 -50z m-621 2 c-24 -21 -47 -37 -49 -34 -8 8 62 74 78
74 10 0 -2 -16 -29 -40z m358 -140 c2 -39 -4 -55 -45 -117 -26 -40 -49 -71
-50 -69 -5 5 38 199 49 219 18 34 43 16 46 -33z m564 -9 c-3 -44 1 -58 24 -89
15 -20 31 -39 34 -42 10 -8 36 -69 69 -160 17 -46 27 -80 22 -75 -6 6 -51 83
-101 173 -82 148 -90 167 -84 200 8 46 13 54 27 49 8 -3 11 -23 9 -56z m-667
-123 c-10 -70 -25 -105 -80 -183 -72 -100 -71 -97 25 118 29 64 55 117 57 117
3 0 2 -24 -2 -52z m15 -144 c-32 -81 -66 -155 -55 -119 4 11 11 44 16 74 7 47
55 139 66 128 2 -2 -11 -39 -27 -83z"/>
<path d="M1432 2795 c0 -16 2 -22 5 -12 2 9 2 23 0 30 -3 6 -5 -1 -5 -18z"/>
<path d="M988 2784 c-5 -4 -8 -37 -8 -73 0 -45 3 -62 11 -54 5 5 9 38 7 72 -2
35 -6 59 -10 55z"/>
<path d="M1542 2720 c0 -19 2 -27 5 -17 2 9 2 25 0 35 -3 9 -5 1 -5 -18z"/>
<path d="M1422 2690 c0 -14 2 -19 5 -12 2 6 2 18 0 25 -3 6 -5 1 -5 -13z"/>
<path d="M1413 2620 c0 -25 2 -35 4 -22 2 12 2 32 0 45 -2 12 -4 2 -4 -23z"/>
<path d="M1403 2510 c0 -36 2 -50 4 -32 2 17 2 47 0 65 -2 17 -4 3 -4 -33z"/>
<path d="M1394 2295 c0 -77 2 -107 3 -67 2 40 2 103 0 140 -2 37 -3 4 -3 -73z"/>
</g>
</svg>
