<?xml version="1.0" standalone="no"?>
<!DOCTYPE svg PUBLIC "-//W3C//DTD SVG 20010904//EN"
 "http://www.w3.org/TR/2001/REC-SVG-20010904/DTD/svg10.dtd">
<svg version="1.0" xmlns="http://www.w3.org/2000/svg"
 width="244.000000pt" height="305.000000pt" viewBox="0 0 244.000000 305.000000"
 preserveAspectRatio="xMidYMid meet">
<metadata>
Created by potrace 1.16, written by Peter Selinger 2001-2019
</metadata>
<g transform="translate(0.000000,305.000000) scale(0.100000,-0.100000)"
fill="#000000" stroke="none">
<path d="M1493 2870 c-7 -25 -15 -69 -19 -97 -3 -29 -10 -53 -15 -53 -5 0 -9
-33 -10 -72 -1 -40 -5 -100 -9 -133 -5 -41 -8 8 -8 153 0 117 -2 215 -4 218
-12 11 -46 -359 -54 -588 -4 -109 -11 -195 -16 -192 -4 3 -8 -6 -8 -20 0 -14
-4 -26 -10 -26 -5 0 -10 12 -10 27 0 43 -10 20 -18 -43 -7 -52 -9 -40 -15 96
-7 150 -41 420 -57 449 -17 31 -54 -228 -66 -459 -7 -131 -9 -139 -16 -86 -8
63 -18 86 -18 43 0 -15 -4 -27 -10 -27 -5 0 -10 12 -10 26 0 14 -4 22 -10 19
-6 -4 -11 43 -13 122 -2 101 -3 86 -5 -68 -1 -150 -5 -200 -16 -215 -8 -10
-17 -17 -20 -14 -2 3 -8 219 -11 480 -3 261 -6 480 -7 485 0 6 -7 -26 -14 -70
-21 -120 -45 -547 -42 -748 2 -97 -1 -177 -5 -177 -4 0 -7 223 -7 496 1 272
-1 498 -4 501 -3 4 -6 2 -6 -3 0 -6 -11 -86 -25 -180 -29 -206 -45 -423 -45
-634 l0 -159 30 -21 c42 -30 34 -46 -22 -42 -38 3 -48 0 -62 -19 -9 -13 -16
-36 -16 -52 0 -26 2 -28 33 -22 29 6 37 2 60 -25 28 -33 36 -75 15 -83 -9 -2
-12 -22 -11 -60 2 -56 1 -57 -26 -57 -38 0 -51 -17 -53 -70 l-1 -45 -4 44 c-5
51 -24 70 -70 71 -24 0 -37 -7 -50 -26 -16 -25 -16 -30 0 -93 10 -36 17 -92
17 -124 0 -48 -4 -62 -24 -80 -14 -14 -24 -33 -24 -51 1 -34 -36 -69 -89 -87
-18 -5 -58 -23 -90 -38 -32 -16 -69 -32 -83 -36 -34 -11 -27 -5 217 181 78 60
80 65 63 141 -6 23 -11 65 -12 93 -1 27 -7 50 -12 50 -5 0 -7 -37 -3 -90 l6
-89 -28 5 c-23 5 -32 -1 -62 -38 -18 -23 -57 -68 -84 -98 -104 -114 -177 -201
-173 -206 3 -2 68 22 144 55 76 32 141 55 142 50 2 -5 -10 -31 -27 -57 -17
-26 -27 -48 -23 -50 5 -1 51 21 103 49 183 101 177 100 186 32 5 -38 3 -41
-25 -51 -23 -8 -32 -18 -37 -44 -4 -18 -34 -143 -67 -277 -32 -134 -57 -245
-55 -247 2 -2 40 48 85 111 88 122 106 141 98 103 -9 -39 -34 -171 -40 -213
-6 -37 -4 -35 34 35 22 41 67 127 99 191 33 64 69 133 81 153 15 27 20 51 18
89 -3 47 -1 52 19 55 31 5 88 -24 103 -53 11 -20 9 -27 -15 -59 l-27 -36 36
-218 c19 -119 43 -264 51 -321 9 -58 17 -107 19 -109 2 -2 9 27 15 65 6 37 29
180 51 316 22 136 40 254 40 261 0 7 -11 26 -25 42 -33 38 -32 46 10 83 25 22
46 31 70 31 l35 0 -6 -52 c-5 -52 -4 -56 107 -265 62 -117 114 -211 115 -210
1 1 -6 47 -16 102 -11 55 -19 111 -20 124 0 24 1 23 25 -10 13 -19 28 -38 33
-44 4 -5 23 -32 42 -60 54 -79 100 -137 100 -127 0 8 -105 437 -130 532 -7 26
-18 38 -40 47 -34 13 -39 37 -14 84 l15 30 42 -25 c73 -42 199 -107 203 -104
1 2 -13 28 -32 57 -18 30 -32 56 -30 58 2 2 32 -9 67 -26 35 -16 87 -37 114
-47 28 -10 55 -20 60 -24 23 -15 97 -40 93 -31 -1 5 -70 86 -152 181 -136 157
-151 171 -175 165 l-27 -6 3 93 c4 116 -12 89 -20 -35 l-6 -89 38 7 c37 6 39
4 92 -56 30 -34 59 -67 64 -73 76 -86 126 -146 121 -146 -6 0 -158 106 -208
144 -14 12 -45 35 -68 51 -23 17 -48 42 -56 57 -18 34 -17 106 1 183 11 47 12
64 2 85 -15 31 -67 39 -103 15 l-24 -16 25 -49 c27 -54 32 -102 12 -139 -25
-50 -34 -34 -29 54 4 76 3 85 -12 79 -12 -5 -16 0 -16 21 0 39 -18 65 -45 65
-23 0 -23 2 -18 55 5 46 3 58 -12 69 -20 15 -15 40 16 80 16 20 29 26 60 26
35 0 39 3 39 25 0 30 -41 75 -68 75 -10 0 -27 -7 -38 -15 -27 -20 -36 -18 -32
7 2 13 17 32 35 43 30 19 32 23 31 75 -1 40 -2 45 -5 19 -3 -26 -14 -46 -39
-69 -20 -17 -37 -30 -40 -27 -2 2 -3 217 -2 478 2 379 5 465 14 429 7 -27 12
-35 12 -20 0 14 -5 48 -12 75 l-12 50 -11 -45z m-222 -862 l13 -358 -22 -20
-22 -21 1 438 c2 503 12 490 30 -39z m-181 -117 c0 -20 -17 -37 -27 -28 -7 8
7 47 18 47 5 0 9 -9 9 -19z m316 -20 c-8 -13 -36 -15 -36 -3 0 4 5 13 12 20
14 14 34 0 24 -17z m-383 5 c7 -18 -1 -26 -18 -19 -8 2 -11 11 -8 19 7 18 19
18 26 0z m456 0 c9 -10 8 -15 -3 -19 -16 -7 -26 1 -26 20 0 17 14 17 29 -1z
m-355 -140 c-13 -10 -23 -11 -31 -4 -19 16 -16 26 10 30 32 6 45 -9 21 -26z
m266 15 c0 -16 -19 -23 -40 -16 -30 10 -24 25 10 25 17 0 30 -4 30 -9z m71
-74 c-13 -13 -15 1 -4 30 7 17 8 17 11 -1 2 -10 -1 -23 -7 -29z m-441 12 c0
-5 -4 -9 -10 -9 -5 0 -10 7 -10 16 0 8 5 12 10 9 6 -3 10 -10 10 -16z m60 -10
c0 -6 -4 -7 -10 -4 -5 3 -10 11 -10 16 0 6 5 7 10 4 6 -3 10 -11 10 -16z m322
-6 c-5 -10 -13 -37 -17 -60 -4 -24 -8 -43 -9 -43 -2 0 -17 5 -34 11 -44 15
-67 -1 -90 -63 l-19 -52 -17 52 c-21 62 -44 78 -88 63 -17 -6 -33 -9 -35 -7
-3 2 -7 22 -10 43 l-5 39 43 -2 c34 -1 45 -6 48 -20 2 -10 12 -24 21 -31 10
-7 24 -30 31 -50 l12 -38 18 42 c10 23 27 47 38 53 12 6 21 19 21 30 0 13 5
18 15 14 26 -10 62 5 68 28 4 12 9 19 12 16 4 -3 2 -15 -3 -25z m-391 -158
c19 -52 23 -73 13 -60 -29 36 -54 99 -53 135 0 19 3 28 6 20 4 -8 19 -51 34
-95z m48 45 c1 -13 0 -13 -9 0 -5 8 -9 26 -9 40 l1 25 8 -25 c4 -14 8 -32 9
-40z m361 3 c-10 -16 -11 -15 -6 7 3 14 6 32 7 40 1 8 4 5 6 -7 2 -12 -1 -30
-7 -40z m90 38 c0 -38 -63 -171 -75 -159 -5 5 29 103 45 130 6 10 10 25 10 33
0 8 5 15 10 15 6 0 10 -8 10 -19z m-351 -97 c12 -15 21 -36 21 -47 0 -20 0
-20 -21 -1 -12 10 -27 31 -35 46 -13 24 -13 28 0 28 8 0 24 -12 35 -26z m191
21 c0 -13 -30 -63 -46 -76 -15 -12 -16 -11 -9 21 4 19 12 41 17 48 10 12 38
17 38 7z m-400 -45 c8 -15 7 -26 -6 -45 -24 -37 -13 -153 21 -219 14 -27 23
-51 21 -53 -8 -8 -68 118 -63 131 3 7 1 36 -5 66 -7 38 -6 64 3 96 8 24 14 44
16 44 1 0 7 -9 13 -20z m599 -40 c7 -23 9 -60 6 -83 -3 -23 -7 -50 -9 -59 -1
-10 -6 -21 -10 -25 -5 -4 -6 21 -2 57 4 48 2 72 -9 93 -13 26 -11 57 4 57 5 0
13 -18 20 -40z m-731 -77 c1 -55 -1 -74 -9 -66 -14 14 -23 85 -15 117 12 49
23 26 24 -51z m509 12 c-34 -30 -47 -32 -47 -5 0 13 5 18 14 14 8 -3 23 -1 33
5 30 17 30 12 0 -14z m-159 9 c12 -4 22 -13 22 -20 0 -19 -14 -17 -41 6 -25
20 -20 24 19 14z m-34 -84 c24 -9 25 -12 14 -30 -12 -19 -9 -24 20 -48 37 -31
38 -35 17 -56 -13 -12 -19 -13 -43 -1 -19 10 -38 12 -64 6 -39 -9 -48 -6 -48
16 0 9 9 13 28 11 26 -3 27 -2 28 52 0 66 2 73 13 66 4 -3 20 -10 35 -16z
m248 -52 l-3 -60 30 7 c32 7 40 -2 20 -22 -7 -7 -21 -8 -42 -2 -34 10 -67 4
-67 -12 0 -13 -13 -11 -34 4 -21 15 -14 57 8 57 8 0 19 7 26 15 10 12 9 20 -5
42 -10 16 -15 25 -11 21 4 -3 22 0 39 7 18 7 34 11 37 8 2 -2 3 -31 2 -65z
m-530 -10 c-7 -7 -12 -8 -12 -2 0 14 12 26 19 19 2 -3 -1 -11 -7 -17z m796 10
c-6 -18 -28 -21 -28 -4 0 9 7 16 16 16 9 0 14 -5 12 -12z m-155 -76 c-3 -12
-9 -22 -14 -22 -5 0 -3 11 3 25 13 30 20 28 11 -3z m267 -35 c0 -7 18 -37 40
-66 22 -30 39 -56 36 -58 -6 -6 -126 115 -126 127 0 6 11 10 25 10 14 0 25 -6
25 -13z m-959 -13 c11 -13 11 -17 -1 -25 -8 -4 -40 -24 -70 -43 -76 -48 -111
-68 -115 -64 -2 2 27 36 66 76 70 73 96 85 120 56z m772 -28 c-3 -25 -3 -64 1
-88 6 -39 11 -46 48 -63 l42 -20 53 -210 c29 -115 51 -214 50 -218 -2 -5 -13
15 -26 45 -14 29 -60 129 -103 221 -43 92 -78 171 -78 174 0 3 -7 20 -16 39
-19 40 -14 102 10 139 9 14 18 25 20 25 2 0 1 -20 -1 -44z m-632 -50 c8 -45 4
-76 -11 -76 -4 0 -10 26 -13 58 -4 32 -9 67 -13 78 -6 18 -6 18 11 3 9 -10 21
-38 26 -63z m254 24 c3 -6 -1 -7 -9 -4 -18 7 -21 14 -7 14 6 0 13 -4 16 -10z
m103 3 c-10 -2 -18 -12 -18 -20 0 -9 -3 -14 -6 -10 -12 11 5 37 23 36 17 -1
17 -2 1 -6z m-88 -79 c0 -9 5 -25 11 -36 11 -21 12 -21 25 -3 8 10 14 29 14
42 0 13 5 23 11 23 10 0 8 -14 -14 -77 -13 -39 -18 -40 -36 -11 -17 28 -32 90
-20 82 5 -3 9 -12 9 -20z m-186 -104 c6 -47 3 -55 -83 -227 -50 -98 -90 -176
-90 -173 -1 3 13 48 30 100 17 52 33 103 35 113 1 9 17 47 35 83 18 36 33 82
34 102 3 51 3 52 19 52 9 0 16 -17 20 -50z m476 25 c0 -14 -4 -25 -10 -25 -5
0 -10 4 -10 9 0 5 -3 16 -6 25 -4 11 -1 16 10 16 10 0 16 -9 16 -25z m-607
-75 c-8 -46 -21 -99 -28 -117 -14 -33 -138 -214 -143 -208 -2 1 15 44 37 94
23 50 60 133 82 184 23 50 45 103 50 116 16 42 17 18 2 -69z m392 -182 c-42
-353 -42 -354 -44 -43 l-1 280 31 -52 30 -52 -16 -133z m32 85 c-3 -10 -5 -4
-5 12 0 17 2 24 5 18 2 -7 2 -21 0 -30z m242 -3 c14 -20 29 -66 41 -128 10
-53 17 -98 15 -100 -2 -2 -21 52 -44 120 -51 154 -52 161 -12 108z"/>
<path d="M982 2815 c0 -16 2 -22 5 -12 2 9 2 23 0 30 -3 6 -5 -1 -5 -18z"/>
<path d="M1441 2774 c0 -11 3 -14 6 -6 3 7 2 16 -1 19 -3 4 -6 -2 -5 -13z"/>
<path d="M992 2750 c0 -19 2 -27 5 -17 2 9 2 25 0 35 -3 9 -5 1 -5 -18z"/>
<path d="M1063 2700 c0 -25 2 -35 4 -22 2 12 2 32 0 45 -2 12 -4 2 -4 -23z"/>
<path d="M1532 2715 c0 -16 2 -22 5 -12 2 9 2 23 0 30 -3 6 -5 -1 -5 -18z"/>
<path d="M1540 2659 c0 -13 5 -62 11 -109 6 -47 14 -182 18 -300 l7 -215 2
178 c1 107 -4 235 -14 320 -14 132 -24 183 -24 126z"/>
<path d="M1073 2615 c0 -22 2 -30 4 -17 2 12 2 30 0 40 -3 9 -5 -1 -4 -23z"/>
<path d="M1078 2482 c4 -114 9 -128 10 -32 1 47 -2 90 -6 97 -4 6 -6 -23 -4
-65z"/>
</g>
</svg>
