<?xml version="1.0" standalone="no"?>
<!DOCTYPE svg PUBLIC "-//W3C//DTD SVG 20010904//EN"
 "http://www.w3.org/TR/2001/REC-SVG-20010904/DTD/svg10.dtd">
<svg version="1.0" xmlns="http://www.w3.org/2000/svg"
 width="244.000000pt" height="305.000000pt" viewBox="0 0 244.000000 305.000000"
 preserveAspectRatio="xMidYMid meet">
<metadata>
Created by potrace 1.16, written by Peter Selinger 2001-2019
</metadata>
<g transform="translate(0.000000,305.000000) scale(0.100000,-0.100000)"
fill="#000000" stroke="none">
<path d="M1560 2905 c-1 -5 -3 -17 -6 -25 -2 -8 -15 -71 -29 -140 -32 -166
-53 -372 -61 -616 l-7 -200 31 -13 c17 -7 38 -21 48 -32 22 -24 36 -24 58 0
10 11 31 25 48 32 l30 12 -6 181 c-11 303 -47 632 -78 701 -7 17 -8 16 -4 -5
40 -209 65 -469 67 -699 l1 -145 -38 -28 c-21 -15 -41 -28 -46 -28 -12 0 -10
948 2 952 6 2 6 14 1 33 -5 17 -10 26 -11 20z"/>
<path d="M900 2897 c0 -4 -9 -49 -21 -100 -29 -132 -57 -342 -63 -487 -3 -69
-8 -179 -11 -246 -6 -126 -2 -154 21 -154 7 0 29 -14 48 -30 l34 -30 29 23
c15 13 38 29 51 36 21 11 22 18 22 119 0 239 -37 628 -70 752 l-10 35 5 -40
c2 -22 14 -112 26 -200 19 -149 41 -608 29 -623 -10 -14 -72 -54 -76 -50 -2 3
-4 186 -4 409 -1 535 -1 549 11 524 7 -15 8 -12 4 15 -5 29 -25 68 -25 47z"/>
<path d="M1156 2703 c-3 -109 -7 -341 -9 -515 -1 -175 -5 -318 -8 -318 -4 0
-12 37 -19 83 -16 109 -30 161 -40 151 -20 -22 -40 -224 -21 -224 4 0 20 -11
35 -25 30 -28 36 -88 12 -121 -13 -16 -18 -17 -35 -6 -43 26 -54 5 -25 -49 13
-26 20 -30 41 -24 14 3 34 16 44 28 18 22 18 21 19 -40 l0 -63 -33 0 c-21 0
-41 -8 -52 -20 -18 -20 -17 -20 8 -20 23 0 27 -4 27 -29 0 -44 -13 -44 -52 -3
-43 44 -68 92 -68 127 0 14 -7 28 -15 31 -23 9 -18 52 11 81 22 22 31 25 71
19 l45 -6 -6 33 c-7 38 -48 77 -80 77 -27 0 -74 -43 -82 -77 -8 -32 -16 -29
-39 15 -45 84 -165 69 -165 -22 0 -25 2 -26 40 -20 36 6 43 3 75 -29 38 -38
43 -58 20 -77 -35 -29 3 -159 68 -236 15 -18 27 -35 27 -39 0 -4 -16 -25 -35
-48 -29 -33 -35 -49 -33 -77 2 -29 10 -38 40 -55 30 -16 42 -18 55 -9 18 12
18 17 6 97 -5 34 -3 37 18 37 29 0 89 -22 89 -32 0 -4 -4 -8 -9 -8 -5 0 -15
-25 -21 -56 -11 -53 -14 -56 -57 -75 -50 -21 -73 -18 -104 14 -42 44 -50 66
-54 144 -5 106 -16 133 -54 133 -37 0 -71 -34 -71 -69 0 -33 35 -108 101 -216
51 -84 53 -89 55 -168 2 -45 6 -98 9 -117 6 -33 0 -42 -115 -180 -142 -170
-175 -205 -163 -175 4 11 40 81 81 155 41 74 95 175 120 224 l45 89 -17 73
c-12 51 -29 89 -56 126 -101 138 -115 190 -72 260 12 20 22 43 22 51 0 22 -31
37 -78 37 -70 0 -89 -50 -56 -147 18 -53 20 -133 4 -163 -5 -10 -19 -22 -30
-25 -22 -7 -25 -26 -10 -55 9 -17 5 -22 -27 -35 -82 -34 -315 -117 -319 -113
-2 3 56 42 129 88 188 119 236 151 242 161 3 4 -1 35 -10 68 -8 32 -15 76 -15
97 0 22 -5 46 -11 54 -7 11 -9 -13 -7 -82 l4 -98 -36 5 c-33 5 -40 1 -120 -77
-47 -46 -131 -125 -185 -175 -55 -51 -93 -92 -85 -92 8 0 116 35 240 77 201
69 225 80 228 100 5 33 21 36 73 13 51 -23 93 -63 109 -105 13 -34 2 -51 -39
-59 -16 -3 -31 -14 -34 -24 -2 -10 -35 -117 -72 -238 -85 -278 -95 -316 -84
-309 5 3 95 103 200 221 132 151 188 221 184 232 -4 9 -9 31 -12 48 l-6 33 90
0 c132 0 126 10 111 -203 -10 -143 -10 -179 1 -190 10 -10 11 -5 6 23 -3 19
-1 53 4 75 l10 40 -4 -50 c-3 -31 -1 -43 3 -31 6 14 15 -11 30 -90 12 -60 31
-152 42 -204 10 -52 22 -113 26 -135 7 -39 8 -39 15 -12 4 15 27 125 50 245
23 119 45 210 47 202 3 -8 13 -53 23 -100 13 -62 17 -70 12 -30 -3 30 -6 84
-5 120 0 50 -1 59 -8 40 -6 -16 -7 11 -4 76 5 87 4 102 -10 107 -11 4 -16 19
-16 42 0 22 4 34 10 30 6 -3 10 0 10 8 0 7 11 19 25 25 29 13 181 16 188 4 3
-4 -1 -24 -8 -45 -13 -37 -12 -40 22 -84 54 -70 355 -405 360 -400 4 5 -44
171 -123 424 -43 139 -45 143 -77 151 -29 8 -32 12 -31 48 1 32 9 45 42 75 48
42 120 68 133 47 5 -7 9 -21 9 -30 0 -17 19 -24 352 -134 70 -23 124 -37 120
-30 -4 6 -47 49 -97 96 -49 47 -94 90 -100 96 -5 6 -47 43 -92 83 -74 66 -85
72 -113 66 l-31 -7 7 91 c4 59 3 91 -3 91 -10 0 -23 -98 -23 -172 l0 -38 43 6
c42 5 42 5 162 -104 66 -60 134 -124 150 -142 28 -31 29 -32 5 -20 -40 20
-249 143 -317 185 -44 28 -67 50 -79 76 -18 41 -17 59 11 160 18 64 18 68 1
94 -17 25 -22 27 -72 23 -78 -7 -85 -18 -51 -79 45 -81 36 -128 -44 -235 -65
-85 -83 -134 -73 -192 10 -56 19 -67 64 -82 23 -7 43 -17 46 -22 6 -9 144
-439 144 -448 0 -11 -38 52 -165 276 -160 283 -159 278 -89 399 86 148 104
187 104 221 0 46 -31 76 -73 72 -29 -3 -33 -7 -40 -48 -4 -25 -9 -70 -11 -102
-4 -105 -74 -175 -142 -143 -18 8 -47 16 -65 18 -28 2 -35 8 -42 34 -11 38 -1
76 13 53 13 -21 13 5 0 30 -8 16 -4 20 33 33 23 7 48 12 55 10 13 -5 15 -57 3
-88 -10 -24 4 -55 25 -55 25 0 73 29 84 50 15 27 6 51 -36 101 -19 23 -31 46
-27 52 4 7 22 33 40 58 58 81 81 182 48 209 -23 19 -18 39 20 77 31 31 40 35
75 31 40 -4 44 0 41 37 -3 26 -46 65 -72 65 -38 0 -77 -29 -95 -71 l-19 -41
-17 42 c-21 49 -76 79 -114 61 -29 -13 -57 -55 -52 -78 3 -15 11 -17 46 -15
36 3 46 -1 72 -26 35 -36 37 -45 10 -72 -11 -11 -20 -32 -20 -48 0 -15 -7 -39
-16 -52 -23 -34 -86 -100 -96 -100 -4 0 -8 16 -8 35 0 19 3 34 8 34 4 -1 16
-1 27 0 19 1 19 1 0 21 -11 10 -35 20 -52 22 l-33 2 0 58 c0 32 3 58 6 58 3 0
15 -11 26 -25 11 -14 28 -25 38 -25 20 0 50 45 50 75 0 17 -25 21 -35 5 -11
-18 -43 -10 -49 13 -13 48 -6 88 19 112 13 14 29 25 35 25 13 0 13 67 -1 149
-19 117 -30 105 -54 -56 -10 -62 -21 -113 -25 -113 -4 0 -8 35 -9 78 0 42 -5
142 -11 222 -5 80 -11 244 -12 365 l-2 220 -6 -155 -5 -155 -16 55 c-9 30 -20
69 -24 85 -7 27 -10 22 -32 -55 -14 -47 -28 -112 -33 -145 -4 -38 -7 47 -7
228 0 158 -2 289 -5 292 -3 3 -8 -83 -12 -192z m124 -548 c4 -137 11 -266 15
-285 7 -32 7 -33 -9 -18 -13 13 -16 40 -17 135 -2 117 -2 116 -11 -57 -9 -179
-3 -304 13 -265 4 11 8 34 8 50 1 23 -2 26 -9 15 -7 -10 -9 8 -8 60 1 59 2 64
5 25 3 -27 9 -52 14 -56 14 -8 14 -118 1 -131 -6 -6 -18 -8 -27 -4 -15 5 -16
48 -14 452 3 401 4 440 17 387 7 -33 17 -164 22 -308z m-344 -580 c11 -31 40
-67 90 -115 41 -38 74 -74 74 -80 0 -21 -31 -8 -81 33 -55 44 -119 144 -119
185 0 36 17 25 36 -23z m631 8 c-9 -53 -55 -121 -115 -170 -59 -48 -72 -52
-72 -23 0 11 4 20 9 20 20 0 131 125 148 166 22 54 38 57 30 7z m-367 -15 c0
-36 -4 -35 -14 5 -4 16 -2 27 4 27 5 0 10 -14 10 -32z m82 2 c-2 -16 -6 -30
-8 -30 -2 0 -4 14 -4 30 0 17 4 30 8 30 5 0 7 -13 4 -30z m-115 -165 c4 -46 2
-65 -6 -65 -7 0 -11 20 -11 55 0 30 -4 55 -10 55 -5 0 -10 17 -10 38 l1 37 15
-28 c8 -15 18 -56 21 -92z m70 78 c-3 -10 -5 -4 -5 12 0 17 2 24 5 18 2 -7 2
-21 0 -30z m94 -31 c-6 -2 -11 -26 -11 -52 0 -27 -5 -52 -11 -56 -17 -10 -5
131 12 153 13 15 14 14 17 -13 2 -15 -1 -30 -7 -32z m-204 -84 c-3 -8 -6 -5
-6 6 -1 11 2 17 5 13 3 -3 4 -12 1 -19z m220 0 c-3 -8 -6 -5 -6 6 -1 11 2 17
5 13 3 -3 4 -12 1 -19z m-252 -168 c-4 -17 -9 -30 -11 -27 -2 2 -1 18 2 36 4
17 9 30 11 27 3 -2 2 -19 -2 -36z m85 -10 c5 0 7 -7 4 -15 -9 -23 -24 -7 -23
23 1 17 3 21 6 10 2 -10 8 -18 13 -18z m126 -17 c-5 -11 -10 -13 -17 -6 -7 7
-7 17 3 32 10 18 14 19 16 6 2 -9 1 -23 -2 -32z m21 15 c-3 -8 -6 -5 -6 6 -1
11 2 17 5 13 3 -3 4 -12 1 -19z m43 -73 c0 -33 -4 -45 -15 -45 -17 0 -20 16
-5 25 6 3 10 19 10 36 0 16 2 29 5 29 3 0 5 -20 5 -45z m-248 -23 c13 -15 4
-27 -11 -17 -6 3 -10 23 -10 43 1 28 3 31 6 12 3 -14 10 -31 15 -38z m115
-174 c-3 -8 -6 -5 -6 6 -1 11 2 17 5 13 3 -3 4 -12 1 -19z m-77 -58 c0 -10 -4
-22 -10 -25 -6 -4 -10 7 -10 25 0 18 4 29 10 25 6 -3 10 -15 10 -25z m140 -29
c27 -59 24 -141 -15 -332 -20 -101 -37 -185 -38 -186 -5 -5 -7 531 -2 547 5
16 9 17 25 8 10 -7 24 -23 30 -37z"/>
<path d="M1251 814 c0 -11 3 -14 6 -6 3 7 2 16 -1 19 -3 4 -6 -2 -5 -13z"/>
<path d="M1253 675 c0 -33 2 -45 4 -27 2 18 2 45 0 60 -2 15 -4 0 -4 -33z"/>
<path d="M1313 2585 c0 -22 2 -30 4 -17 2 12 2 30 0 40 -3 9 -5 -1 -4 -23z"/>
<path d="M1091 475 l1 -60 9 44 c5 26 5 50 -1 60 -7 11 -9 -2 -9 -44z"/>
</g>
</svg>
