<?xml version="1.0" standalone="no"?>
<!DOCTYPE svg PUBLIC "-//W3C//DTD SVG 20010904//EN"
 "http://www.w3.org/TR/2001/REC-SVG-20010904/DTD/svg10.dtd">
<svg version="1.0" xmlns="http://www.w3.org/2000/svg"
 width="244.000000pt" height="305.000000pt" viewBox="0 0 244.000000 305.000000"
 preserveAspectRatio="xMidYMid meet">
<metadata>
Created by potrace 1.16, written by Peter Selinger 2001-2019
</metadata>
<g transform="translate(0.000000,305.000000) scale(0.100000,-0.100000)"
fill="#000000" stroke="none">
<path d="M885 2880 c-5 -22 -4 -35 3 -38 14 -4 17 -942 3 -942 -4 0 -20 9 -34
20 -14 11 -30 20 -35 20 -20 0 -24 44 -18 194 10 216 24 372 47 519 11 70 19
133 17 139 -6 16 -45 -212 -58 -332 -6 -52 -13 -195 -17 -317 l-6 -222 24 -10
c14 -5 39 -21 56 -35 l30 -25 23 24 c12 13 36 29 53 36 l30 13 -7 220 c-3 122
-11 264 -16 316 -12 117 -56 362 -74 415 l-14 39 -7 -34z"/>
<path d="M1566 2891 c-4 -6 -2 -19 4 -30 13 -25 14 -961 1 -961 -5 0 -28 12
-51 28 l-43 27 7 190 c8 227 19 347 47 517 11 70 19 133 17 140 -8 22 -47
-234 -63 -402 -8 -91 -15 -236 -15 -323 l0 -157 27 -11 c14 -5 37 -21 50 -35
l24 -26 34 30 c18 17 43 33 54 37 20 6 21 14 21 113 0 252 -37 614 -81 787
-23 88 -24 91 -33 76z"/>
<path d="M1551 2834 c0 -11 3 -14 6 -6 3 7 2 16 -1 19 -3 4 -6 -2 -5 -13z"/>
<path d="M1217 2550 c-37 -121 -65 -358 -68 -584 -1 -58 -5 -108 -10 -111 -8
-6 -12 10 -29 130 -15 101 -21 125 -30 125 -13 0 -19 -24 -31 -122 l-12 -91
36 -31 c36 -31 40 -43 38 -104 -1 -37 -24 -51 -53 -33 -28 17 -38 6 -27 -31
15 -54 47 -62 83 -23 29 31 37 32 35 3 -4 -50 1 -66 25 -72 14 -3 29 -18 36
-36 18 -44 27 -45 46 -4 9 19 28 40 41 45 19 7 23 16 23 49 0 46 11 51 34 15
9 -14 25 -25 36 -25 23 0 50 36 50 68 0 19 -4 23 -17 17 -45 -19 -53 -17 -64
11 -13 35 -5 95 14 106 8 4 24 16 37 26 22 18 22 19 10 108 -7 49 -17 98 -23
109 -10 19 -10 19 -17 0 -4 -11 -15 -71 -25 -133 -20 -126 -35 -131 -35 -12
-1 207 -31 476 -68 597 l-18 58 -17 -55z m12 -484 c-1 -446 -3 -473 -19 -457
-9 9 -25 21 -35 27 -18 10 -18 23 -7 310 7 192 18 347 31 434 12 74 21 141 21
148 0 6 2 12 5 12 3 0 5 -213 4 -474z"/>
<path d="M753 1858 c-36 -9 -56 -37 -51 -71 3 -19 8 -21 44 -19 32 3 47 -2 72
-23 43 -36 49 -61 22 -90 -19 -20 -21 -31 -16 -69 7 -44 65 -147 99 -175 24
-19 22 -26 -18 -70 -47 -51 -54 -89 -23 -118 53 -50 120 -35 98 21 -13 35 -13
69 1 83 8 8 29 5 75 -10 49 -16 69 -19 82 -11 29 19 19 34 -41 58 -77 32 -121
67 -163 130 -34 51 -56 126 -37 126 5 0 15 -17 22 -37 24 -65 143 -178 209
-198 18 -5 22 -2 22 14 0 14 -17 33 -48 55 -75 54 -132 132 -132 180 0 15 -8
30 -20 36 -26 14 -19 45 17 78 21 19 35 23 72 20 44 -3 46 -2 43 22 -6 40 -28
67 -62 74 -47 9 -82 -12 -107 -64 -21 -44 -21 -44 -28 -19 -8 31 -51 74 -80
81 -11 2 -35 1 -52 -4z"/>
<path d="M1424 1851 c-30 -18 -51 -62 -39 -81 3 -5 26 -7 50 -3 38 5 47 2 69
-20 29 -29 33 -58 11 -77 -8 -7 -15 -24 -15 -39 -1 -46 -59 -123 -132 -177
-31 -21 -48 -41 -48 -55 0 -16 4 -19 23 -14 63 19 176 127 203 194 20 51 39
54 31 6 -9 -57 -74 -143 -139 -186 -33 -21 -72 -41 -88 -44 -38 -8 -47 -23
-27 -43 15 -14 22 -14 86 5 95 28 102 19 76 -88 -6 -23 -3 -27 19 -33 31 -8
81 15 96 44 12 23 -6 76 -34 99 -38 32 -39 49 -3 94 19 23 44 61 56 84 25 50
28 125 6 143 -23 19 -18 39 20 77 30 30 40 34 77 31 38 -2 43 0 46 20 4 28
-47 82 -78 82 -36 0 -80 -32 -97 -72 -19 -42 -28 -42 -36 1 -11 55 -83 83
-133 52z"/>
<path d="M1102 1579 c-63 -13 -66 -48 -5 -49 35 0 60 -36 72 -104 18 -104 16
-122 -20 -135 -25 -9 -30 -15 -27 -38 2 -20 10 -29 28 -33 18 -4 26 -14 28
-32 3 -23 -2 -28 -30 -36 -26 -6 -34 -14 -36 -35 -3 -22 1 -27 18 -27 32 0 60
-18 60 -39 0 -23 28 -103 38 -111 4 -3 5 -43 2 -90 -4 -47 -5 -188 -2 -315 3
-126 2 -228 -1 -225 -3 3 -15 48 -26 100 -11 52 -31 148 -45 213 -35 159 -35
165 19 222 l45 48 -25 43 c-14 23 -25 53 -25 66 0 50 -11 68 -40 68 -31 0 -45
24 -42 73 2 26 0 27 -42 27 -24 0 -58 -8 -74 -17 -38 -22 -68 -10 -108 43 -22
29 -29 49 -31 88 0 28 -5 76 -10 106 l-8 55 -39 0 c-30 0 -43 -6 -58 -26 -28
-37 -16 -82 45 -182 95 -156 100 -167 95 -211 -3 -27 -26 -76 -65 -141 -33
-55 -97 -165 -143 -244 -46 -80 -85 -141 -87 -135 -1 5 28 103 66 219 l68 210
36 10 c57 16 71 36 74 107 4 70 -5 91 -84 190 -23 30 -48 75 -55 102 -12 46
-11 50 15 97 15 27 27 54 27 60 0 40 -105 54 -140 19 -25 -25 -25 -50 0 -120
25 -70 25 -107 0 -147 -23 -38 -91 -82 -320 -206 -30 -16 -61 -34 -68 -40 -7
-5 -15 -8 -17 -5 -3 3 32 38 77 79 46 41 111 100 145 133 62 58 63 59 109 52
l47 -6 -7 76 c-3 43 -6 90 -6 106 0 15 -5 28 -11 28 -9 0 -10 -26 -6 -90 l6
-91 -33 6 c-30 6 -40 0 -137 -86 -57 -51 -106 -96 -109 -99 -3 -3 -42 -39 -88
-79 -45 -41 -80 -76 -78 -79 3 -2 20 1 38 6 370 116 448 144 448 160 0 37 15
45 56 32 60 -20 109 -57 127 -95 24 -50 21 -62 -12 -70 -41 -9 -54 -28 -85
-130 -15 -49 -52 -167 -82 -261 -30 -94 -54 -177 -54 -185 0 -8 17 4 37 26 20
22 64 69 97 105 120 128 240 262 254 282 12 16 13 30 5 64 -6 24 -8 46 -5 49
3 3 44 5 92 5 74 0 92 -3 120 -22 56 -39 59 -52 21 -92 l-34 -35 42 -208 c72
-352 101 -480 101 -437 0 6 18 98 40 205 23 107 52 250 66 319 l25 124 -30 27
c-45 39 -38 70 26 102 36 19 197 24 208 7 3 -5 -1 -26 -10 -46 -17 -41 -15
-46 40 -106 22 -23 110 -119 195 -211 85 -93 156 -164 158 -158 2 6 -3 30 -12
53 -8 24 -38 117 -66 208 -97 313 -88 291 -131 308 -28 11 -39 21 -39 36 0 46
61 108 129 131 58 20 58 20 64 -14 6 -29 12 -32 240 -105 128 -42 239 -76 247
-76 9 1 3 11 -15 26 -16 15 -70 63 -120 109 -233 213 -237 216 -272 210 l-33
-6 7 91 c7 106 -10 127 -21 24 -4 -37 -13 -82 -21 -101 -8 -19 -11 -41 -7 -48
9 -16 76 -61 265 -174 76 -46 136 -85 134 -87 -2 -3 -53 13 -113 35 -60 21
-144 51 -187 66 l-78 28 6 38 c5 31 3 38 -13 43 -45 15 -54 99 -21 208 25 80
18 113 -26 124 -35 9 -95 -2 -113 -20 -12 -12 -11 -19 12 -52 19 -28 26 -51
26 -87 0 -55 -17 -93 -71 -157 -48 -57 -79 -127 -86 -193 -6 -56 7 -84 167
-362 31 -55 65 -116 75 -135 l18 -35 -23 20 c-12 11 -81 89 -154 173 -92 109
-130 160 -129 175 2 12 5 63 7 113 4 101 10 115 100 259 48 75 56 96 56 136 0
57 -18 79 -66 79 -29 0 -34 -4 -39 -27 -3 -16 -10 -48 -15 -73 -6 -25 -8 -59
-5 -75 5 -24 0 -39 -29 -77 -41 -54 -82 -69 -118 -44 -12 9 -42 16 -65 16
l-43 0 0 -38 c0 -43 -14 -62 -47 -62 -18 0 -23 -7 -28 -37 -9 -52 -24 -90 -43
-105 -18 -15 -19 -23 24 140 2 6 14 12 28 12 60 0 67 61 8 73 -51 10 -50 62 1
69 17 2 22 10 22 33 0 23 -5 30 -25 35 -31 7 -35 30 -20 120 13 76 40 120 73
120 12 0 28 4 36 9 25 16 -6 41 -51 41 -32 0 -46 -6 -69 -31 -16 -17 -32 -42
-35 -55 -8 -33 -20 -30 -40 9 -34 68 -63 87 -112 76z"/>
</g>
</svg>
