<?xml version="1.0" standalone="no"?>
<!DOCTYPE svg PUBLIC "-//W3C//DTD SVG 20010904//EN"
 "http://www.w3.org/TR/2001/REC-SVG-20010904/DTD/svg10.dtd">
<svg version="1.0" xmlns="http://www.w3.org/2000/svg"
 width="244.000000pt" height="305.000000pt" viewBox="0 0 244.000000 305.000000"
 preserveAspectRatio="xMidYMid meet">
<metadata>
Created by potrace 1.16, written by Peter Selinger 2001-2019
</metadata>
<g transform="translate(0.000000,305.000000) scale(0.100000,-0.100000)"
fill="#000000" stroke="none">
<path d="M976 2901 c-9 -13 -34 -184 -51 -336 -8 -77 -18 -251 -22 -387 l-6
-247 31 -26 c44 -37 41 -48 -12 -40 -37 6 -47 4 -65 -14 -12 -12 -21 -34 -21
-51 0 -27 3 -30 34 -30 26 0 41 -7 60 -31 30 -35 32 -56 10 -87 -13 -19 -14
-31 -5 -72 6 -28 18 -67 26 -87 8 -20 14 -37 13 -39 -2 -1 -16 -6 -32 -10 -29
-7 -29 -6 -23 28 3 19 1 41 -3 48 -11 18 -157 25 -176 9 -18 -15 -18 -67 2
-141 15 -60 11 -129 -7 -111 -5 5 -15 52 -23 104 l-13 94 -2 -93 c-1 -92 -1
-92 -24 -87 -20 6 -37 -9 -119 -107 -177 -210 -209 -248 -203 -248 2 0 50 18
106 41 55 22 103 38 106 36 2 -3 -3 -17 -12 -31 -10 -14 -13 -26 -9 -26 5 0
73 32 151 72 132 68 143 72 159 57 9 -10 18 -37 21 -61 5 -40 3 -44 -22 -53
-27 -9 -30 -19 -66 -170 -21 -88 -41 -171 -44 -185 -2 -14 -16 -70 -29 -125
-14 -54 -24 -100 -22 -102 4 -4 60 68 76 97 16 31 60 85 60 73 0 -7 -10 -55
-25 -121 -3 -12 -1 -22 5 -22 5 0 10 4 10 10 0 5 27 55 60 111 33 55 60 103
60 105 0 2 25 47 55 100 53 91 55 98 49 145 l-7 49 38 0 c43 0 88 -24 105 -55
10 -19 8 -29 -15 -63 -16 -24 -24 -48 -21 -59 3 -10 26 -153 51 -318 25 -164
48 -301 50 -304 3 -2 5 -1 5 4 0 8 72 483 90 589 9 55 8 60 -17 92 -24 32 -25
37 -12 60 17 33 58 54 103 54 43 0 47 -6 36 -55 -10 -44 6 -80 130 -295 40
-69 83 -145 96 -170 28 -54 29 -46 8 55 -9 42 -14 79 -11 81 2 3 26 -28 53
-68 26 -40 49 -75 51 -77 14 -20 5 31 -33 189 -24 102 -51 214 -59 250 -20 94
-31 119 -60 132 -28 13 -29 18 -15 69 16 58 32 65 82 36 104 -60 278 -144 278
-135 0 5 -9 21 -20 35 -11 15 -18 28 -16 30 2 3 41 -11 87 -31 45 -20 84 -35
85 -33 3 3 -112 148 -223 280 -48 57 -61 67 -80 62 -23 -5 -23 -4 -24 87 -1
107 -5 100 -14 -27 -7 -81 -8 -88 -22 -70 -15 20 -14 48 3 168 10 69 -8 86
-91 86 -73 0 -87 -10 -83 -60 3 -32 1 -34 -26 -31 -36 5 -46 -10 -46 -67 0
-37 -2 -42 -15 -31 -20 16 -19 39 3 75 49 79 79 213 52 230 -19 12 -10 53 20
85 24 25 35 31 55 26 23 -6 25 -4 25 27 0 42 -26 67 -68 67 -43 0 -51 19 -19
45 26 20 27 23 25 125 l-2 105 -3 -90 c-4 -81 -6 -92 -30 -117 -15 -16 -31
-28 -37 -28 -6 0 -5 5 2 12 9 9 11 65 10 203 l-2 190 -6 -180 c-3 -114 -6 -10
-7 285 0 256 -2 470 -3 475 -4 22 -30 -83 -30 -122 0 -24 -4 -43 -10 -43 -13
0 -13 83 1 97 6 6 8 25 3 47 -3 20 -8 35 -10 33 -3 -2 -13 -73 -24 -158 -21
-168 -39 -435 -41 -624 -1 -118 -1 -119 -13 -63 -9 48 -13 55 -27 48 -12 -7
-19 -32 -25 -92 -8 -80 -9 -76 -20 127 -11 204 -38 425 -54 454 -18 34 -55
-239 -66 -489 l-8 -175 -10 83 c-8 59 -16 86 -27 93 -14 7 -18 1 -25 -34 -7
-35 -10 -18 -14 93 l-6 135 -2 -177 c-1 -111 -6 -178 -12 -178 -6 0 -10 43
-10 108 -1 121 -15 409 -30 615 -7 98 -7 142 1 155 7 11 8 29 2 52 -9 33 -10
30 -21 -50 -7 -47 -16 -121 -21 -165 -8 -71 -9 -61 -8 88 1 92 1 167 0 167 -1
0 -4 -4 -7 -9z m300 -939 c7 -312 7 -313 -14 -333 l-22 -20 1 438 c2 408 3
431 15 333 7 -58 16 -246 20 -418z m-231 233 c7 -222 4 -275 -15 -245 -12 19
-13 483 -1 476 5 -3 12 -107 16 -231z m376 -307 c13 -25 10 -27 -22 -21 -21 4
-25 9 -21 28 5 27 27 24 43 -7z m-311 -23 c0 -5 -51 4 -59 11 -2 2 2 11 9 19
12 14 15 14 31 -4 11 -11 19 -23 19 -26z m-92 -7 c-6 -18 -28 -21 -28 -4 0 9
7 16 16 16 9 0 14 -5 12 -12z m462 -3 c0 -8 -7 -15 -15 -15 -8 0 -15 7 -15 15
0 8 7 15 15 15 8 0 15 -7 15 -15z m-340 -16 c0 -6 -4 -7 -10 -4 -5 3 -10 11
-10 16 0 6 5 7 10 4 6 -3 10 -11 10 -16z m0 -94 c0 -11 -8 -14 -30 -10 -27 5
-30 3 -30 -21 0 -39 18 -64 45 -64 13 0 29 8 34 18 9 14 10 11 11 -18 0 -24 6
-39 19 -47 11 -7 25 -29 32 -50 l12 -38 18 43 c10 23 25 45 34 48 9 4 15 18
15 35 0 16 5 29 10 29 6 0 10 -4 10 -10 0 -5 11 -10 25 -10 28 0 45 25 45 66
0 24 -3 26 -30 21 -23 -5 -30 -3 -30 9 0 11 9 14 37 12 31 -2 39 -8 47 -30 7
-18 6 -35 -1 -50 -6 -13 -14 -41 -17 -62 -6 -44 -22 -68 -34 -50 -11 18 -50
26 -71 15 -11 -6 -28 -35 -39 -63 l-20 -53 -11 43 c-12 44 -41 82 -63 82 -7 0
-25 -7 -40 -14 -32 -17 -35 -14 -44 45 -4 24 -11 49 -16 56 -10 13 -3 49 14
71 15 18 68 16 68 -3z m19 -241 c22 -28 28 -64 11 -64 -10 0 -60 69 -60 82 0
18 30 6 49 -18z m201 18 c0 -10 -31 -55 -47 -67 -7 -5 -16 -25 -19 -42 -8 -41
6 -43 53 -7 36 28 42 25 16 -7 -16 -19 -64 -49 -78 -49 -9 0 -6 73 5 112 6 21
18 44 26 53 16 16 44 21 44 7z m-525 -182 c5 -56 3 -71 -5 -58 -15 24 -26 156
-12 143 6 -5 13 -44 17 -85z m173 41 c-2 -8 -9 -16 -15 -19 -9 -2 -13 8 -13
35 1 36 1 37 16 18 8 -11 13 -26 12 -34z m164 -1 c4 0 9 10 11 23 3 13 5 8 6
-15 1 -44 -4 -46 -49 -15 -45 30 -52 54 -8 27 18 -11 36 -20 40 -20z m479 -62
l-9 -33 -1 36 c-1 20 2 52 7 70 l7 34 3 -37 c2 -20 -1 -51 -7 -70z m-516 -15
c17 -4 20 -11 17 -44 -3 -29 0 -39 11 -39 20 0 39 -24 31 -43 -9 -23 -34 -29
-51 -11 -12 11 -25 14 -47 9 -50 -12 -69 -11 -73 3 -3 7 4 12 19 12 38 0 47
16 36 61 -13 48 -5 74 20 64 9 -4 26 -10 37 -12z m263 -45 l-3 -63 32 -5 c25
-4 30 -8 24 -19 -8 -12 -16 -13 -48 -3 -39 12 -83 7 -83 -9 0 -14 -17 -11 -34
7 -23 23 -19 43 10 54 23 9 26 15 21 43 -5 30 -2 34 26 44 58 19 58 18 55 -49z
m454 -29 c18 -23 65 -80 105 -127 40 -48 70 -88 68 -90 -5 -6 -82 49 -152 110
-65 56 -117 123 -108 139 14 22 54 8 87 -32z m-902 -4 c0 -5 -5 -3 -10 5 -5 8
-10 20 -10 25 0 6 5 3 10 -5 5 -8 10 -19 10 -25z m804 -1 c3 -8 2 -12 -4 -9
-6 3 -10 10 -10 16 0 14 7 11 14 -7z m-1114 -94 c-38 -57 -50 -66 -127 -102
-47 -22 -86 -38 -89 -36 -2 2 53 50 123 106 70 56 128 100 131 98 2 -3 -15
-32 -38 -66z m150 10 c13 -9 11 -13 -10 -30 -35 -27 -168 -100 -181 -100 -18
0 37 48 80 69 20 11 42 31 49 45 12 27 36 33 62 16z m410 -95 c0 -48 27 -112
41 -98 6 6 15 38 22 72 10 51 15 61 32 60 17 -1 17 -2 3 -6 -11 -3 -18 -14
-18 -30 0 -13 -8 -54 -17 -89 l-17 -65 27 -49 c33 -59 33 -68 -2 -310 l-29
-195 -1 280 c-1 261 -2 283 -21 318 -11 21 -23 59 -27 85 -3 26 -11 50 -17 54
-7 5 -4 8 7 8 13 0 17 -8 17 -35z m359 -47 c1 -10 -4 -18 -9 -18 -16 0 -23 27
-15 58 l8 27 7 -25 c5 -14 8 -33 9 -42z m325 35 c14 -15 24 -29 22 -31 -7 -6
-42 20 -55 39 -17 28 5 23 33 -8z m-947 -20 c-3 -10 -5 -4 -5 12 0 17 2 24 5
18 2 -7 2 -21 0 -30z m746 -271 c26 -108 50 -208 52 -222 8 -35 -82 153 -106
223 -22 66 -49 198 -43 209 3 4 15 3 27 -3 19 -9 29 -38 70 -207z m-672 150
c6 -46 4 -52 -100 -244 -34 -65 -67 -120 -71 -123 -9 -6 15 70 43 135 8 19 36
66 62 104 46 66 47 69 40 123 -5 44 -4 54 7 51 7 -3 16 -23 19 -46z m565 13
c9 -49 2 -51 -18 -4 -13 32 -14 39 -3 39 8 0 17 -15 21 -35z m-621 -81 c-22
-34 -27 -27 -14 21 9 33 13 36 21 21 7 -12 5 -24 -7 -42z m-108 -117 c-8 -36
-27 -87 -43 -112 -16 -26 -39 -63 -51 -83 -35 -57 -28 -31 28 102 28 66 55
132 60 145 17 43 20 15 6 -52z m769 -74 c18 -29 50 -143 34 -127 -9 10 -62
154 -56 154 2 0 12 -12 22 -27z"/>
<path d="M1512 2740 c0 -19 2 -27 5 -17 2 9 2 25 0 35 -3 9 -5 1 -5 -18z"/>
<path d="M1052 2670 c0 -19 2 -27 5 -17 2 9 2 25 0 35 -3 9 -5 1 -5 -18z"/>
<path d="M1527 2620 c3 -41 7 -77 9 -79 7 -8 2 93 -6 124 -5 18 -6 1 -3 -45z"/>
<path d="M1063 2575 c0 -27 2 -38 4 -22 2 15 2 37 0 50 -2 12 -4 0 -4 -28z"/>
<path d="M1543 2480 c0 -30 2 -43 4 -27 2 15 2 39 0 55 -2 15 -4 2 -4 -28z"/>
<path d="M1073 2435 c0 -44 2 -61 4 -37 2 23 2 59 0 80 -2 20 -4 1 -4 -43z"/>
<path d="M1554 2305 c0 -55 1 -76 3 -47 2 29 2 74 0 100 -2 26 -3 2 -3 -53z"/>
</g>
</svg>
