<?xml version="1.0" standalone="no"?>
<!DOCTYPE svg PUBLIC "-//W3C//DTD SVG 20010904//EN"
 "http://www.w3.org/TR/2001/REC-SVG-20010904/DTD/svg10.dtd">
<svg version="1.0" xmlns="http://www.w3.org/2000/svg"
 width="244.000000pt" height="305.000000pt" viewBox="0 0 244.000000 305.000000"
 preserveAspectRatio="xMidYMid meet">
<metadata>
Created by potrace 1.16, written by Peter Selinger 2001-2019
</metadata>
<g transform="translate(0.000000,305.000000) scale(0.100000,-0.100000)"
fill="#000000" stroke="none">
<path d="M911 2860 c-47 -219 -69 -419 -76 -701 l-7 -234 41 -25 c23 -13 41
-28 41 -32 0 -17 29 -7 60 22 35 32 59 29 80 -11 10 -18 9 -19 -15 -13 -34 8
-73 -18 -92 -64 l-16 -37 -13 31 c-16 39 -59 74 -89 74 -12 0 -34 -10 -49 -21
-21 -16 -26 -28 -24 -53 3 -29 5 -31 41 -28 30 3 42 -2 67 -26 33 -33 38 -63
15 -82 -22 -18 -18 -57 15 -158 17 -52 30 -113 30 -141 0 -62 -19 -79 -22 -19
l-1 43 -6 -45 -6 -44 -12 27 c-7 15 -13 42 -13 58 0 62 -40 88 -85 55 -29 -21
-24 -99 9 -165 31 -61 26 -79 -10 -36 -57 68 -72 163 -34 220 11 17 20 36 20
44 0 23 -33 40 -77 41 -35 0 -46 -5 -60 -26 -16 -25 -16 -30 7 -118 27 -107
23 -154 -16 -185 -21 -17 -24 -25 -19 -54 6 -33 5 -35 -37 -52 -121 -50 -293
-114 -296 -110 -2 2 32 27 75 56 43 29 103 71 133 92 30 21 77 52 103 69 45
28 48 34 44 62 -3 17 -11 68 -18 114 -16 113 -34 108 -25 -8 l7 -90 -29 6
c-27 5 -43 -8 -211 -172 -100 -97 -179 -179 -177 -181 8 -8 455 155 457 166 3
23 8 44 13 49 10 9 96 -36 102 -53 4 -8 -8 -43 -25 -76 -17 -34 -30 -63 -28
-65 1 -2 23 10 47 26 50 33 70 37 70 15 0 -8 -15 -21 -34 -29 -39 -16 -25 20
-136 -364 -34 -118 -60 -216 -57 -218 4 -5 139 154 281 333 81 101 81 101 86
70 4 -25 8 -16 18 46 6 44 15 83 18 88 9 15 54 10 54 -5 0 -8 -16 -68 -36
-133 -20 -65 -43 -143 -51 -173 -21 -78 -34 -95 -26 -35 3 28 3 48 1 45 -3 -3
-11 -44 -17 -93 -7 -48 -15 -95 -18 -105 -4 -11 -3 -14 4 -7 6 6 52 103 103
216 86 194 91 209 85 253 -4 25 -3 46 1 46 18 0 73 -40 84 -60 10 -18 7 -26
-20 -57 -23 -25 -30 -42 -26 -57 4 -11 13 -57 21 -101 8 -44 26 -141 40 -215
13 -74 32 -175 41 -223 9 -48 18 -86 20 -85 1 2 26 127 54 278 28 151 55 295
60 320 7 34 5 50 -6 65 -7 11 -21 30 -29 41 -15 21 -14 24 17 53 18 17 41 31
52 31 16 0 18 -5 13 -44 -6 -41 1 -62 77 -234 46 -103 89 -205 97 -225 13 -36
35 -54 25 -19 -6 19 -51 301 -60 377 -6 47 -5 49 9 30 20 -26 27 -34 115 -140
75 -89 184 -222 207 -253 7 -8 15 -13 18 -10 5 5 -114 442 -141 516 -12 32
-24 46 -50 57 -33 14 -43 28 -26 39 5 3 39 -15 76 -40 37 -24 70 -44 73 -44 2
0 -4 12 -15 28 -11 15 -23 38 -27 51 -4 14 -16 38 -26 55 -27 45 -24 52 26 72
48 18 60 14 67 -21 3 -21 11 -24 243 -107 148 -52 195 -68 195 -64 0 1 -76 80
-170 175 -161 165 -172 173 -201 167 l-30 -6 7 90 c4 57 3 90 -3 90 -9 0 -23
-111 -23 -181 0 -28 1 -28 43 -23 l42 6 128 -130 c70 -72 127 -133 127 -136 0
-7 -64 31 -190 111 -155 100 -169 111 -186 150 -15 35 -15 42 1 103 28 103 30
128 10 150 -23 25 -85 26 -114 3 l-21 -18 25 -47 c38 -72 29 -151 -25 -211
-36 -39 -40 -20 -10 44 37 82 20 159 -36 159 -30 0 -44 -20 -44 -61 0 -67 -20
-55 -22 13 l-2 63 -3 -60 c-2 -33 -6 -71 -9 -85 -5 -22 -7 -23 -13 -7 -7 19 9
175 20 192 4 6 12 35 19 67 12 53 11 58 -8 83 -21 26 -21 28 -4 57 24 42 55
60 94 56 27 -2 34 1 36 18 5 32 -34 74 -69 74 -44 0 -66 -15 -91 -63 l-21 -42
-10 35 c-14 54 -45 83 -84 76 -38 -6 -41 2 -14 35 l19 23 36 -24 c20 -14 36
-28 36 -32 0 -17 32 -6 73 25 l44 32 -4 165 c-2 91 -8 230 -14 310 -9 141 -38
354 -47 346 -2 -3 3 -56 12 -118 25 -176 36 -338 36 -518 l0 -165 -35 -22
c-19 -13 -37 -23 -40 -23 -3 0 -5 214 -5 476 0 326 3 473 10 469 7 -4 8 3 4
22 -4 15 -8 30 -10 32 -5 6 -24 -48 -24 -69 0 -10 -7 -50 -14 -87 -18 -82 -45
-301 -47 -370 l-2 -48 -7 50 c-5 28 -9 84 -9 125 -1 41 -8 138 -16 215 -8 77
-15 149 -15 159 0 11 -2 17 -5 14 -3 -3 -6 -192 -7 -419 0 -228 -3 -404 -5
-391 -2 12 -8 22 -12 22 -20 0 -29 -31 -37 -115 l-7 -90 -13 120 c-7 66 -18
172 -24 235 -11 115 -46 313 -60 339 -15 28 -54 -175 -75 -399 -4 -36 -11 -94
-16 -130 -5 -36 -9 -87 -10 -115 l-1 -50 -8 55 c-4 30 -11 172 -14 315 -6 223
-29 558 -41 590 -2 6 -4 -182 -4 -416 -1 -457 -5 -527 -27 -508 -11 9 -14 56
-15 213 -1 110 -4 190 -8 176 -5 -16 -10 15 -14 85 -7 114 -35 326 -44 335 -6
5 -1 -45 22 -215 8 -60 18 -214 21 -340 l7 -230 -41 -27 c-27 -19 -42 -23 -45
-15 -10 27 -6 930 5 947 7 11 8 22 1 35 -9 15 -13 9 -22 -35z m377 -680 c4
-69 5 -172 2 -230 l-5 -105 -8 160 c-14 309 -15 393 -6 345 5 -25 13 -101 17
-170z m-193 -331 c-10 -15 -25 -10 -19 6 4 8 10 12 15 9 5 -3 7 -10 4 -15z
m305 0 c0 -5 -4 -9 -10 -9 -5 0 -10 7 -10 16 0 8 5 12 10 9 6 -3 10 -10 10
-16z m-103 -71 c-2 -13 -4 -5 -4 17 -1 22 1 32 4 23 2 -10 2 -28 0 -40z m73
-39 c0 -11 -4 -17 -10 -14 -5 3 -10 15 -10 26 0 11 5 17 10 14 6 -3 10 -15 10
-26z m-341 7 c6 -7 12 -31 12 -52 2 -70 -3 -144 -10 -144 -11 0 -29 37 -37 76
-4 21 -13 45 -21 52 -18 18 -17 25 8 56 23 30 32 32 48 12z m82 -19 c-8 -8
-11 -7 -11 4 0 20 13 34 18 19 3 -7 -1 -17 -7 -23z m379 6 c8 -16 15 -31 17
-35 2 -3 -3 -12 -9 -20 -7 -7 -19 -35 -26 -63 -7 -27 -20 -57 -28 -65 -15 -15
-17 1 -15 144 1 66 37 88 61 39z m-191 -90 c1 -7 -3 -13 -9 -13 -5 0 -10 17
-9 38 1 33 2 34 9 12 4 -14 8 -31 9 -37z m-122 -34 c11 -4 28 -24 38 -45 17
-36 18 -37 32 -18 15 19 15 19 10 -1 -4 -11 -9 -33 -13 -50 -8 -29 -8 -28 -24
25 -13 46 -20 55 -40 58 -64 7 -70 11 -70 45 0 18 6 39 12 45 10 10 15 6 23
-19 6 -18 20 -36 32 -40z m185 33 c10 -38 -8 -60 -55 -63 -34 -3 -43 -1 -39 9
2 8 15 17 27 22 14 5 25 20 29 40 5 26 9 30 20 21 8 -6 16 -20 18 -29z m-410
-62 c13 -33 14 -40 3 -40 -17 0 -35 31 -35 59 0 33 13 24 32 -19z m450 13 c-3
-16 -7 -22 -10 -15 -4 13 4 42 11 42 2 0 2 -12 -1 -27z m144 -5 c-7 -34 -22
-56 -32 -46 -9 10 16 78 28 78 6 0 8 -12 4 -32z m-466 0 c0 -19 -2 -20 -10 -8
-13 19 -13 30 0 30 6 0 10 -10 10 -22z m30 -94 c7 -19 10 -38 7 -41 -6 -5 -37
50 -37 67 0 24 19 7 30 -26z m265 -13 c-19 -39 -39 -41 -23 -3 16 38 32 56 36
44 2 -6 -4 -24 -13 -41z m115 4 c0 -18 -7 -28 -25 -35 -14 -5 -25 -14 -25 -20
0 -13 -37 -50 -50 -50 -5 0 -10 4 -10 9 0 9 98 121 106 121 2 0 4 -11 4 -25z
m-446 -35 c45 -48 56 -70 36 -70 -13 0 -50 37 -50 50 0 6 -11 15 -25 20 -15 6
-25 17 -25 30 0 31 13 25 64 -30z m136 -76 c0 -16 -16 -19 -25 -4 -8 13 4 32
16 25 5 -4 9 -13 9 -21z m121 -7 c-8 -8 -11 -7 -11 4 0 9 3 19 7 23 4 4 9 2
11 -4 3 -7 -1 -17 -7 -23z m127 -144 c-11 -40 -47 -60 -103 -57 -35 1 -40 4
-40 25 0 17 6 25 22 27 36 5 42 72 7 72 -8 0 -14 5 -14 10 0 9 47 4 59 -7 3
-2 4 -26 2 -54 -2 -44 0 -50 15 -47 26 5 45 47 39 86 -3 18 -2 38 2 45 12 19
22 -62 11 -100z m-371 53 c-2 -54 27 -96 51 -73 10 11 11 23 4 50 -12 42 -8
47 32 46 29 0 30 -1 8 -10 -32 -12 -28 -62 5 -67 22 -3 39 -34 29 -50 -9 -15
-107 -5 -124 12 -18 18 -30 136 -14 136 6 0 10 -19 9 -44z m-157 -42 c0 -8 -4
-14 -10 -14 -12 0 -31 35 -23 44 9 8 33 -14 33 -30z m680 -14 c0 -5 -2 -10 -4
-10 -3 0 -8 5 -11 10 -3 6 -1 10 4 10 6 0 11 -4 11 -10z m-743 -35 c9 -25 -4
-29 -17 -6 -7 15 -7 21 0 21 6 0 13 -7 17 -15z m180 -7 c-3 -8 -6 -5 -6 6 -1
11 2 17 5 13 3 -3 4 -12 1 -19z m613 -35 c0 -23 -17 -49 -26 -41 -9 10 4 58
16 58 6 0 10 -8 10 -17z m-879 -106 c-29 -30 -34 -17 -8 23 18 28 22 31 25 16
2 -10 -5 -28 -17 -39z m144 14 c3 -16 5 -51 4 -77 0 -27 2 -67 6 -89 6 -38 3
-44 -51 -115 -107 -139 -217 -275 -224 -278 -4 -1 26 62 67 140 158 306 176
347 170 393 -4 23 -3 45 0 49 13 12 22 5 28 -23z m713 17 c7 -7 12 -24 12 -38
0 -36 24 -67 64 -80 26 -8 37 -20 45 -43 19 -61 94 -312 106 -359 7 -27 10
-48 7 -48 -4 0 -34 53 -68 118 -33 64 -93 179 -133 255 -63 119 -72 143 -67
172 7 37 15 42 34 23z m113 -15 c14 -16 31 -36 38 -46 13 -16 12 -16 -10 -4
-52 28 -69 43 -69 59 0 25 12 22 41 -9z m-474 -124 c-15 -21 -15 -21 -26 -1
-15 29 -14 37 4 22 12 -10 16 -9 22 6 4 10 8 13 11 6 2 -6 -3 -21 -11 -33z
m-287 -6 c0 -10 -3 -29 -7 -41 -4 -18 -8 -20 -14 -10 -15 22 -11 68 6 68 8 0
15 -8 15 -17z m538 -184 c80 -289 80 -294 9 -129 -95 221 -98 231 -91 283 3
27 11 46 17 44 6 -2 35 -91 65 -198z m42 179 c0 -27 -19 -63 -20 -38 0 8 -3
25 -6 38 -5 16 -2 22 10 22 10 0 16 -8 16 -22z m-216 -206 c-25 -137 -47 -242
-51 -238 -2 2 4 73 13 159 14 141 14 158 0 185 -25 48 -18 51 18 9 l34 -37
-14 -78z"/>
<path d="M1561 2784 c0 -11 3 -14 6 -6 3 7 2 16 -1 19 -3 4 -6 -2 -5 -13z"/>
<path d="M952 2770 c0 -14 2 -19 5 -12 2 6 2 18 0 25 -3 6 -5 1 -5 -13z"/>
<path d="M1381 2764 c0 -11 3 -14 6 -6 3 7 2 16 -1 19 -3 4 -6 -2 -5 -13z"/>
<path d="M1042 2650 c0 -19 2 -27 5 -17 2 9 2 25 0 35 -3 9 -5 1 -5 -18z"/>
<path d="M1372 2635 c0 -16 2 -22 5 -12 2 9 2 23 0 30 -3 6 -5 -1 -5 -18z"/>
<path d="M1363 2510 c0 -30 2 -43 4 -27 2 15 2 39 0 55 -2 15 -4 2 -4 -28z"/>
<path d="M1033 2505 c0 -27 2 -38 4 -22 2 15 2 37 0 50 -2 12 -4 0 -4 -28z"/>
<path d="M1353 2220 c0 -47 2 -66 4 -42 2 23 2 61 0 85 -2 23 -4 4 -4 -43z"/>
<path d="M927 721 c-4 -18 -7 -45 -6 -60 1 -17 4 -11 10 19 5 25 8 52 6 60 -2
8 -6 0 -10 -19z"/>
</g>
</svg>
