<?xml version="1.0" standalone="no"?>
<!DOCTYPE svg PUBLIC "-//W3C//DTD SVG 20010904//EN"
 "http://www.w3.org/TR/2001/REC-SVG-20010904/DTD/svg10.dtd">
<svg version="1.0" xmlns="http://www.w3.org/2000/svg"
 width="244.000000pt" height="305.000000pt" viewBox="0 0 244.000000 305.000000"
 preserveAspectRatio="xMidYMid meet">
<metadata>
Created by potrace 1.16, written by Peter Selinger 2001-2019
</metadata>
<g transform="translate(0.000000,305.000000) scale(0.100000,-0.100000)"
fill="#000000" stroke="none">
<path d="M1091 2894 c0 -11 3 -14 6 -6 3 7 2 16 -1 19 -3 4 -6 -2 -5 -13z"/>
<path d="M1538 2405 c2 -290 -1 -505 -6 -505 -5 0 -17 9 -27 20 -10 11 -25 20
-33 20 -13 0 -14 32 -9 248 4 136 9 279 12 317 4 66 4 67 -5 20 -9 -48 -30
-428 -30 -546 0 -53 2 -57 29 -69 16 -6 37 -22 47 -35 l18 -23 40 34 c22 19
44 34 49 34 15 0 1 471 -17 616 -21 157 -55 357 -64 366 -4 4 -6 -220 -4 -497z"/>
<path d="M931 2895 c-1 -5 -1 -232 -1 -502 0 -271 -2 -493 -5 -493 -4 0 -22
12 -42 27 l-36 28 6 200 c6 169 26 391 53 585 4 25 4 43 1 40 -3 -3 -14 -63
-26 -135 -24 -151 -41 -392 -41 -586 0 -131 1 -137 23 -152 12 -8 33 -24 46
-36 l25 -21 30 28 c17 16 39 32 49 35 14 5 17 19 17 79 0 175 -22 486 -45 643
-22 150 -51 288 -54 260z"/>
<path d="M1101 2488 c0 -211 -5 -379 -10 -382 -5 -3 -12 -34 -16 -68 -4 -35
-12 -68 -17 -75 -15 -19 1 -71 28 -92 13 -10 24 -29 24 -42 0 -22 -2 -21 -29
11 -27 33 -29 34 -68 22 -39 -12 -57 -33 -75 -92 -3 -10 -10 -3 -20 20 -22 53
-44 70 -88 70 -44 0 -70 -26 -70 -72 0 -25 2 -26 33 -21 26 4 40 -1 65 -21 40
-35 49 -62 26 -87 -24 -27 -13 -105 26 -176 38 -72 38 -114 0 -189 -16 -32
-30 -57 -30 -54 -1 3 -3 42 -5 88 -2 45 -9 91 -15 102 -20 38 -79 19 -95 -30
-9 -28 10 -89 51 -165 49 -90 38 -101 -18 -18 -74 108 -85 160 -48 233 11 22
20 46 20 54 0 39 -99 50 -124 14 -20 -28 -20 -48 0 -128 22 -82 13 -133 -27
-171 -35 -32 -319 -212 -326 -206 -2 3 52 62 121 132 l125 128 42 -7 42 -7 -7
77 c-3 42 -6 90 -6 106 0 15 -5 28 -11 28 -9 0 -10 -25 -5 -90 l7 -90 -31 6
c-28 6 -39 -3 -195 -162 -91 -93 -165 -172 -165 -176 0 -3 64 16 142 44 79 27
176 61 216 75 62 21 72 28 72 48 0 34 13 38 59 19 39 -15 101 -74 101 -95 0
-17 -21 -53 -40 -69 -19 -17 -179 -564 -168 -575 2 -2 40 42 85 98 46 56 126
154 178 217 100 121 99 118 79 194 -6 24 -4 26 28 26 19 0 39 -5 45 -11 8 -8
13 -8 17 0 7 10 46 16 46 7 0 -3 -13 -58 -29 -123 -16 -65 -39 -162 -52 -216
-14 -64 -25 -94 -30 -85 -6 9 -9 3 -9 -17 0 -16 -3 -48 -6 -70 -3 -26 11 1 41
80 94 246 116 318 114 369 -4 59 9 68 45 29 32 -34 32 -38 1 -75 -14 -16 -25
-39 -25 -51 0 -35 67 -412 108 -607 7 -34 16 8 108 505 20 107 18 132 -11 151
-33 21 -32 44 3 77 38 37 45 34 38 -15 -5 -36 2 -65 40 -168 26 -69 61 -165
80 -215 18 -49 33 -81 33 -70 1 11 -13 124 -29 250 -16 127 -30 236 -30 243 0
14 66 17 75 2 3 -5 1 -27 -6 -48 -11 -39 -11 -40 47 -114 95 -122 307 -378
310 -375 3 3 -103 389 -132 482 -28 90 -36 105 -55 105 -23 0 -36 43 -23 78
14 38 76 83 123 89 39 5 41 4 41 -19 0 -23 11 -29 125 -72 68 -26 137 -51 152
-56 16 -5 58 -20 96 -34 37 -14 67 -22 67 -18 0 4 -78 85 -173 180 -158 158
-176 173 -200 167 l-27 -7 -1 98 -1 99 -14 -80 c-7 -44 -16 -98 -19 -120 l-7
-40 64 -44 c34 -24 116 -80 181 -124 65 -44 116 -82 113 -84 -4 -5 -182 63
-289 111 -52 23 -57 27 -48 45 16 30 13 49 -9 56 -12 4 -24 22 -31 46 -13 41
-6 96 23 196 10 35 9 45 -5 67 -14 21 -25 26 -58 26 -46 0 -79 -14 -79 -34 0
-7 12 -34 26 -60 33 -59 27 -115 -20 -183 -77 -113 -86 -125 -86 -111 0 7 20
53 45 101 28 54 45 101 45 122 0 44 -31 77 -67 73 -24 -3 -28 -9 -40 -68 -7
-36 -12 -83 -10 -104 3 -52 -18 -58 -27 -8 -3 21 -15 47 -26 57 -29 26 -26 86
6 134 48 73 68 177 39 201 -22 18 -19 35 16 75 26 29 38 35 70 35 36 0 39 2
39 28 0 32 -36 72 -64 72 -40 0 -95 -48 -96 -82 0 -30 -14 -20 -32 22 -29 69
-111 79 -140 17 l-15 -31 -5 27 c-3 15 -1 27 4 27 6 0 18 10 29 23 17 20 18
42 19 267 0 234 -25 697 -39 712 -3 4 -4 -151 -3 -345 4 -342 -6 -508 -29
-523 -5 -3 -9 -27 -9 -54 0 -27 -3 -51 -7 -53 -5 -3 -8 11 -7 31 3 92 -27 447
-46 537 -35 175 -34 173 -58 70 -34 -144 -49 -295 -55 -537 -4 -192 -17 -114
-17 105 0 224 -15 594 -29 712 -6 47 -9 -53 -10 -307z m129 -455 c0 -280 -4
-423 -10 -413 -5 8 -10 65 -10 127 0 72 -4 113 -11 115 -14 5 -18 342 -4 453
9 79 9 79 16 35 6 -40 7 -38 7 25 1 84 1 85 7 85 3 0 5 -192 5 -427z m-48
-286 c-9 -28 -10 -23 -10 43 0 72 1 73 11 32 7 -29 7 -52 -1 -75z m-130 -3
c-1 -10 2 -41 8 -69 12 -66 20 -175 11 -175 -12 0 -71 99 -71 120 0 12 -8 35
-17 50 -14 24 -15 34 -5 55 19 42 80 57 74 19z m432 -6 c20 -28 20 -52 3 -67
-8 -6 -14 -25 -15 -42 -1 -28 -68 -146 -78 -136 -4 4 13 172 22 215 4 21 2 32
-5 32 -7 0 -9 5 -6 10 12 19 63 11 79 -12z m-332 -83 c0 -29 5 -38 23 -45 41
-16 41 -32 -1 -28 -37 3 -39 5 -44 43 -6 38 5 83 17 72 3 -3 5 -22 5 -42z m44
-22 c-2 -3 -9 -2 -14 1 -7 4 -6 17 1 37 l12 32 3 -33 c2 -17 1 -34 -2 -37z
m142 -6 c-3 -39 -5 -42 -35 -45 -36 -4 -47 -17 -58 -77 -7 -37 -9 -38 -15 -15
-11 35 -11 52 -2 46 5 -3 16 11 26 30 9 20 25 38 36 41 14 4 21 18 26 50 5 35
9 42 16 29 5 -9 8 -35 6 -59z m-378 -60 c7 -21 9 -41 5 -45 -12 -12 -35 31
-35 67 0 41 12 32 30 -22z m570 -22 c-6 -19 -16 -35 -21 -35 -14 0 -11 34 8
76 15 34 18 36 21 16 2 -12 -2 -38 -8 -57z m-163 43 c-3 -8 -6 -5 -6 6 -1 11
2 17 5 13 3 -3 4 -12 1 -19z m-19 -115 c-8 -16 -19 -37 -25 -48 -7 -11 -14
-29 -18 -39 -3 -10 -8 -16 -12 -13 -3 4 5 33 19 64 14 32 29 67 33 78 7 18 9
18 12 3 3 -10 -2 -30 -9 -45z m-212 12 c19 -46 17 -55 -6 -26 -18 21 -28 61
-14 61 3 0 12 -16 20 -35z m-104 -47 c-15 -15 -26 -4 -18 18 5 13 9 15 18 6 9
-9 9 -15 0 -24z m418 1 c0 -11 -4 -17 -10 -14 -5 3 -10 15 -10 26 0 11 5 17
10 14 6 -3 10 -15 10 -26z m-493 -66 c-3 -10 -5 -2 -5 17 0 19 2 27 5 18 2
-10 2 -26 0 -35z m147 24 c13 -20 5 -30 -18 -21 -9 3 -16 15 -16 26 0 22 18
20 34 -5z m294 7 c-4 -20 -34 -41 -44 -31 -8 8 24 47 38 47 5 0 8 -7 6 -16z
m-218 -20 c0 -8 -4 -12 -10 -9 -5 3 -10 13 -10 21 0 8 5 12 10 9 6 -3 10 -13
10 -21z m-126 -178 c3 -14 3 -26 -2 -26 -10 0 -42 109 -41 140 1 23 24 -39 43
-114z m386 40 c-28 -88 -38 -78 -15 14 10 42 21 68 26 63 6 -6 1 -37 -11 -77z
m-337 -43 c11 -18 22 -16 33 6 7 15 14 17 32 10 31 -12 30 -49 -2 -49 -13 0
-29 -7 -36 -15 -11 -14 -14 -13 -26 7 -26 46 -34 70 -34 107 0 59 14 59 20 -1
3 -29 9 -59 13 -65z m297 72 c0 -30 -18 -87 -35 -109 -12 -16 -17 -17 -31 -5
-9 8 -26 13 -36 11 -15 -3 -19 1 -16 20 2 15 11 24 26 26 12 2 22 -1 22 -7 0
-17 37 -13 44 5 3 9 6 37 6 62 0 34 3 43 10 32 5 -8 10 -24 10 -35z m-230 25
c0 -5 -7 -10 -15 -10 -8 0 -15 -5 -15 -12 0 -6 -3 -9 -6 -5 -11 10 4 37 21 37
8 0 15 -4 15 -10z m165 0 c4 -6 -5 -10 -20 -10 -15 0 -24 4 -20 10 3 6 12 10
20 10 8 0 17 -4 20 -10z m-399 -115 c-9 -25 -36 0 -36 33 l0 26 21 -21 c14
-13 19 -28 15 -38z m604 -4 c0 -22 -16 -36 -24 -22 -8 12 3 41 15 41 5 0 9 -9
9 -19z m-40 -31 c0 -5 -5 -10 -11 -10 -5 0 -7 5 -4 10 3 6 8 10 11 10 2 0 4
-4 4 -10z m-620 -35 c0 -8 -4 -17 -10 -20 -6 -4 -10 5 -10 20 0 15 4 24 10 20
6 -3 10 -12 10 -20z m720 -35 c0 -11 -4 -20 -10 -20 -5 0 -10 9 -10 20 0 11 5
20 10 20 6 0 10 -9 10 -20z m-700 -61 c0 -12 -24 -67 -54 -122 -29 -56 -79
-154 -111 -217 -68 -134 -96 -183 -101 -177 -2 2 7 37 20 78 13 41 41 136 62
212 l38 139 39 15 c24 10 47 30 63 54 27 43 44 50 44 18z m690 -9 c0 -17 47
-123 119 -267 66 -131 118 -239 116 -241 -3 -4 -89 102 -215 266 -61 80 -63
84 -52 115 6 18 10 57 7 87 -2 30 -1 58 1 62 11 18 24 6 24 -22z m-349 -65
c12 8 11 -6 -1 -25 -11 -18 -15 -13 -24 25 -5 24 -4 26 4 12 6 -9 15 -15 21
-12z m198 -165 c18 -80 38 -170 46 -201 8 -30 15 -60 14 -65 -1 -20 -110 293
-116 333 -6 46 4 101 16 87 5 -5 23 -74 40 -154z m-210 -157 l-2 -258 -18 175
c-13 130 -17 149 -13 75 2 -55 6 -122 9 -150 4 -45 4 -46 -5 -15 -17 67 -60
295 -60 320 1 14 15 41 32 60 28 32 30 33 23 10 -3 -14 -8 -45 -9 -70 -2 -25
-2 -31 1 -15 5 35 33 125 39 125 2 0 3 -116 3 -257z"/>
<path d="M1204 2055 c0 -93 2 -133 3 -88 2 45 2 122 0 170 -1 48 -3 12 -3 -82z"/>
<path d="M1512 2800 c0 -14 2 -19 5 -12 2 6 2 18 0 25 -3 6 -5 1 -5 -13z"/>
<path d="M1081 2784 c0 -11 3 -14 6 -6 3 7 2 16 -1 19 -3 4 -6 -2 -5 -13z"/>
<path d="M1490 2680 c-7 -50 -11 -92 -8 -95 2 -3 10 36 17 86 7 50 11 92 8 95
-2 2 -10 -36 -17 -86z"/>
<path d="M1352 2705 c0 -16 2 -22 5 -12 2 9 2 23 0 30 -3 6 -5 -1 -5 -18z"/>
<path d="M1072 2645 c0 -16 2 -22 5 -12 2 9 2 23 0 30 -3 6 -5 -1 -5 -18z"/>
<path d="M1343 2580 c0 -25 2 -35 4 -22 2 12 2 32 0 45 -2 12 -4 2 -4 -23z"/>
<path d="M1063 2495 c0 -22 2 -30 4 -17 2 12 2 30 0 40 -3 9 -5 -1 -4 -23z"/>
<path d="M1063 2395 c0 -33 2 -45 4 -27 2 18 2 45 0 60 -2 15 -4 0 -4 -33z"/>
<path d="M1334 2275 c0 -71 1 -99 3 -62 2 37 2 96 0 130 -2 34 -3 4 -3 -68z"/>
<path d="M1053 2020 c0 -25 2 -35 4 -22 2 12 2 32 0 45 -2 12 -4 2 -4 -23z"/>
<path d="M985 771 c-9 -77 -15 -145 -13 -151 2 -7 12 54 22 134 10 81 16 149
14 152 -3 2 -13 -59 -23 -135z"/>
<path d="M963 565 c0 -22 2 -30 4 -17 2 12 2 30 0 40 -3 9 -5 -1 -4 -23z"/>
</g>
</svg>
