<?xml version="1.0" standalone="no"?>
<!DOCTYPE svg PUBLIC "-//W3C//DTD SVG 20010904//EN"
 "http://www.w3.org/TR/2001/REC-SVG-20010904/DTD/svg10.dtd">
<svg version="1.0" xmlns="http://www.w3.org/2000/svg"
 width="244.000000pt" height="305.000000pt" viewBox="0 0 244.000000 305.000000"
 preserveAspectRatio="xMidYMid meet">
<metadata>
Created by potrace 1.16, written by Peter Selinger 2001-2019
</metadata>
<g transform="translate(0.000000,305.000000) scale(0.100000,-0.100000)"
fill="#000000" stroke="none">
<path d="M876 2841 c-50 -219 -73 -422 -83 -717 l-6 -202 22 -7 c12 -4 37 -20
56 -36 l33 -30 34 29 c18 16 42 32 52 36 18 6 19 16 13 234 -4 125 -11 270
-16 322 -10 100 -42 282 -48 276 -2 -2 5 -68 16 -147 32 -228 52 -619 33 -644
-14 -20 -74 -57 -80 -50 -4 4 -8 212 -10 463 -2 336 1 463 9 479 9 16 9 29 2
45 -9 20 -12 14 -27 -51z"/>
<path d="M1566 2892 c-10 -16 -55 -255 -71 -377 -9 -66 -18 -227 -22 -357 -6
-228 -5 -238 13 -244 10 -4 33 -18 50 -31 37 -28 46 -28 68 -4 10 11 31 25 47
31 l29 12 0 92 c-1 233 -34 592 -69 736 -15 60 -12 18 9 -116 25 -168 39 -343
41 -528 l1 -150 -38 -28 c-21 -15 -41 -28 -46 -28 -4 0 -8 214 -8 476 0 326 3
473 10 469 7 -4 8 3 4 22 -8 34 -10 37 -18 25z"/>
<path d="M1212 2840 c0 -14 2 -19 5 -12 2 6 2 18 0 25 -3 6 -5 1 -5 -13z"/>
<path d="M1252 2720 c-1 -80 -6 -139 -10 -132 -11 16 -36 -70 -57 -188 -17
-100 -35 -329 -35 -452 0 -52 -4 -88 -10 -88 -5 0 -10 3 -10 8 0 27 -32 195
-41 219 l-12 28 -12 -47 c-7 -25 -16 -75 -19 -111 l-7 -65 35 -21 c40 -25 55
-70 39 -118 -10 -28 -29 -34 -65 -18 -14 6 -18 2 -18 -17 0 -29 26 -68 46 -68
8 0 25 11 38 25 30 32 40 32 32 -1 -9 -36 1 -61 27 -68 13 -3 30 -22 41 -45
10 -22 23 -38 28 -35 5 4 8 -7 6 -22 -4 -38 -21 -33 -29 8 -4 18 -7 28 -8 21
0 -6 -14 1 -31 17 -38 35 -60 41 -99 24 -40 -17 -40 -31 2 -39 61 -13 78 -45
92 -171 l7 -61 -32 -11 c-26 -10 -31 -16 -28 -39 2 -19 10 -29 23 -31 30 -6
38 -18 31 -46 -5 -19 -13 -26 -32 -26 -16 0 -27 -7 -33 -23 -12 -30 0 -40 50
-46 4 -1 14 -16 23 -35 18 -39 23 -117 5 -99 -5 5 -10 26 -11 44 0 42 -22 79
-46 79 -28 0 -42 21 -42 62 l0 38 -45 0 c-26 0 -57 -7 -71 -17 -23 -15 -28
-15 -59 0 -47 23 -88 89 -80 129 4 16 2 49 -3 72 -6 22 -13 53 -17 69 -5 23
-10 27 -39 27 -42 0 -68 -28 -68 -72 0 -45 12 -73 68 -159 71 -110 86 -152 89
-238 2 -42 6 -89 9 -106 6 -27 -3 -41 -110 -165 -64 -74 -129 -150 -145 -169
-51 -62 -42 -25 19 81 155 270 192 346 192 392 0 64 -30 136 -83 198 -59 70
-77 108 -77 163 0 33 8 57 27 86 l27 41 -23 19 c-32 26 -104 26 -131 -1 -25
-25 -25 -33 0 -112 26 -84 27 -161 0 -188 -11 -11 -25 -20 -31 -20 -7 0 -8
-14 -4 -39 l6 -39 -58 -20 c-32 -11 -116 -41 -186 -66 -71 -25 -132 -46 -135
-46 -8 0 22 19 233 150 83 51 155 98 162 104 9 8 8 24 -3 66 -8 30 -17 79 -21
108 -3 28 -10 52 -16 52 -6 0 -8 -32 -4 -91 l7 -91 -30 7 c-27 6 -39 0 -99
-52 -103 -89 -316 -284 -319 -294 -4 -10 33 1 293 89 178 59 200 70 203 90 2
13 9 25 16 28 34 13 137 -52 160 -101 23 -49 20 -65 -14 -71 -46 -10 -38 9
-140 -314 -28 -91 -60 -191 -70 -222 -12 -37 -14 -55 -7 -52 7 3 100 104 207
224 128 143 194 224 192 236 -1 11 -5 34 -8 51 l-7 33 87 0 c93 0 124 -10 164
-53 l23 -25 -36 -34 -37 -35 51 -249 c29 -137 59 -284 68 -327 9 -42 17 -76
19 -74 2 2 33 149 70 326 l66 323 -33 34 c-38 39 -35 53 21 92 28 19 46 22
121 22 48 0 90 -3 92 -8 3 -4 -1 -24 -8 -45 -12 -34 -11 -40 8 -65 52 -66 379
-424 384 -419 2 3 -36 129 -84 282 l-88 279 -38 15 c-35 13 -38 17 -33 44 10
48 46 88 103 114 60 28 80 25 85 -9 3 -21 27 -31 238 -100 129 -43 239 -77
244 -75 5 2 -76 79 -179 172 -178 161 -189 170 -225 168 -38 -2 -38 -1 -35 30
11 89 12 124 5 142 -7 20 -8 16 -27 -153 l-5 -53 48 6 49 6 95 -87 c178 -164
191 -176 188 -180 -10 -9 -380 210 -398 236 -25 35 -27 101 -6 159 21 58 20
104 -2 124 -25 23 -94 22 -123 -2 l-23 -19 27 -41 c29 -44 35 -98 17 -147 -6
-15 -32 -54 -59 -88 -65 -82 -74 -102 -74 -161 1 -78 14 -100 67 -115 l46 -13
71 -219 c39 -121 69 -222 66 -224 -3 -3 -51 75 -108 173 -56 98 -122 212 -146
253 -65 113 -61 137 50 315 61 97 73 159 38 194 -16 16 -32 21 -54 19 -30 -3
-31 -5 -44 -73 -7 -38 -10 -84 -7 -100 4 -24 -1 -39 -26 -70 -17 -22 -42 -47
-55 -55 -21 -12 -28 -12 -60 3 -20 9 -54 17 -75 17 -40 0 -40 0 -40 -39 0 -43
-11 -56 -58 -66 -31 -6 -32 -8 -31 -53 1 -33 -5 -58 -22 -86 l-23 -39 35 -31
c73 -65 71 -58 43 -181 -14 -61 -28 -130 -32 -155 l-6 -45 -7 35 c-5 28 -7 23
-6 -25 0 -70 -22 -187 -34 -179 -4 2 -7 138 -5 302 2 258 0 299 -13 316 -15
17 -14 18 4 16 39 -4 45 0 45 33 0 65 17 102 52 112 26 8 33 15 33 35 0 20 -6
26 -26 28 -17 2 -31 12 -38 28 -13 30 -7 44 18 44 47 0 51 63 4 75 -26 6 -26
7 -20 80 9 105 30 143 84 157 42 10 43 11 27 29 -26 28 -85 25 -114 -6 -29
-30 -42 -24 -29 14 6 18 22 34 41 42 28 11 30 15 24 51 -3 21 -4 38 -2 38 3 0
16 -11 30 -25 14 -14 32 -25 40 -25 20 0 46 39 46 67 0 20 -2 21 -24 11 -36
-16 -52 -5 -60 41 -8 50 6 81 46 104 30 17 30 18 24 75 -12 98 -27 165 -37
155 -5 -5 -18 -60 -29 -123 -12 -63 -25 -119 -31 -125 -5 -5 -9 36 -9 112 0
135 -25 409 -42 463 -6 19 -14 125 -18 235 l-6 200 -2 -145z m-10 -636 c-5
-24 -8 48 -6 196 1 129 3 237 5 240 8 12 9 -400 1 -436z m59 -133 c12 -293 12
-304 -6 -317 -10 -8 -22 -14 -26 -14 -3 0 -7 181 -7 403 0 370 1 395 13 317 8
-47 19 -222 26 -389z m-41 -124 c0 -22 -3 -28 -9 -18 -5 7 -11 9 -13 5 -3 -5
-3 -3 -1 4 1 8 3 23 3 33 0 11 5 17 10 14 6 -3 10 -21 10 -38z m-10 -89 c0
-19 -2 -20 -10 -8 -13 19 -13 30 0 30 6 0 10 -10 10 -22z m0 -110 c0 -21 -3
-29 -10 -22 -5 5 -7 19 -4 32 9 31 14 27 14 -10z"/>
<path d="M922 2780 c0 -14 2 -19 5 -12 2 6 2 18 0 25 -3 6 -5 1 -5 -13z"/>
<path d="M753 1859 c-36 -10 -56 -39 -51 -72 3 -19 8 -21 46 -19 37 3 47 -1
77 -31 38 -38 44 -61 18 -75 -39 -22 -8 -135 60 -225 41 -52 44 -62 23 -74
-27 -16 -67 -86 -60 -107 10 -34 35 -55 71 -62 49 -9 58 4 42 65 -10 39 -10
53 0 65 11 13 19 12 68 -5 68 -23 99 -24 107 -3 8 22 0 31 -34 39 -16 3 -55
23 -88 44 -65 43 -130 129 -139 186 -7 46 12 46 27 0 28 -85 230 -250 230
-187 0 24 -9 35 -61 70 -59 40 -108 105 -115 154 -4 21 -13 43 -20 49 -21 18
-17 47 12 76 22 22 31 25 70 19 l44 -6 0 34 c0 37 -21 60 -62 70 -43 10 -78
-9 -96 -54 -9 -22 -20 -40 -24 -40 -4 0 -15 16 -24 36 -11 23 -29 41 -50 50
-19 8 -35 14 -36 13 -2 0 -18 -5 -35 -10z"/>
<path d="M1433 1855 c-32 -13 -43 -32 -43 -70 0 -21 3 -22 43 -18 35 4 47 1
70 -21 29 -27 36 -70 12 -80 -8 -3 -15 -18 -15 -33 0 -15 -9 -43 -21 -62 -21
-35 -97 -111 -111 -111 -15 0 -48 -40 -48 -59 0 -61 179 77 221 170 13 27 27
49 32 49 18 0 -1 -66 -33 -118 -38 -63 -93 -107 -168 -138 -58 -23 -69 -39
-41 -57 11 -7 35 -4 83 10 l66 21 11 -20 c8 -15 8 -33 -2 -65 -13 -47 -5 -63
31 -63 25 0 78 37 85 59 7 23 -19 74 -55 106 -27 24 -26 31 15 81 68 82 97
193 60 224 -23 19 -18 39 20 77 30 30 40 34 77 31 37 -2 43 0 46 18 2 12 -8
34 -21 50 -45 51 -130 28 -158 -43 -5 -13 -13 -23 -18 -23 -5 0 -11 10 -14 23
-15 56 -70 84 -124 62z"/>
<path d="M1258 764 c2 -49 7 -102 11 -119 4 -16 6 15 3 70 -3 55 -8 109 -12
119 -3 11 -5 -21 -2 -70z"/>
</g>
</svg>
