<?xml version="1.0" standalone="no"?>
<!DOCTYPE svg PUBLIC "-//W3C//DTD SVG 20010904//EN"
 "http://www.w3.org/TR/2001/REC-SVG-20010904/DTD/svg10.dtd">
<svg version="1.0" xmlns="http://www.w3.org/2000/svg"
 width="244.000000pt" height="305.000000pt" viewBox="0 0 244.000000 305.000000"
 preserveAspectRatio="xMidYMid meet">
<metadata>
Created by potrace 1.16, written by Peter Selinger 2001-2019
</metadata>
<g transform="translate(0.000000,305.000000) scale(0.100000,-0.100000)"
fill="#000000" stroke="none">
<path d="M887 2883 c-3 -15 -1 -29 4 -31 10 -4 13 -952 3 -952 -3 0 -24 13
-48 29 l-42 29 2 104 c7 289 25 483 60 676 9 46 13 86 11 88 -8 8 -55 -263
-66 -376 -6 -58 -14 -200 -17 -316 l-7 -212 22 -7 c12 -4 37 -20 55 -36 29
-25 35 -27 46 -14 7 8 30 25 51 37 l39 22 0 146 c0 250 -23 481 -72 720 -23
115 -33 136 -41 93z"/>
<path d="M1302 2880 c0 -14 2 -19 5 -12 2 6 2 18 0 25 -3 6 -5 1 -5 -13z"/>
<path d="M1565 2858 c9 -49 12 -945 3 -953 -3 -3 -25 7 -48 22 l-43 28 6 205
c7 202 21 355 52 539 16 99 14 136 -3 54 -34 -160 -60 -430 -64 -672 -2 -140
-1 -155 16 -165 10 -6 34 -23 53 -38 l36 -28 33 28 c18 15 42 34 54 42 l22 16
-11 244 c-11 258 -28 410 -62 569 -11 53 -23 108 -26 124 -9 45 -26 32 -18
-15z"/>
<path d="M1156 2658 c-3 -123 -8 -351 -10 -506 -3 -156 -7 -286 -10 -289 -2
-3 -8 12 -11 33 -14 86 -37 199 -42 207 -11 18 -22 -20 -34 -113 l-12 -93 36
-31 c36 -31 40 -43 38 -104 -1 -37 -24 -51 -53 -33 -28 17 -38 6 -27 -31 15
-53 47 -62 81 -23 12 14 25 25 28 25 4 0 8 -27 9 -60 l1 -60 -33 0 c-32 0 -86
-38 -59 -41 7 -1 18 -2 25 -3 6 0 13 -16 15 -33 5 -47 -17 -42 -64 13 -51 61
-63 83 -64 116 0 17 -8 31 -20 38 -26 14 -19 45 18 79 21 19 33 22 69 18 41
-4 43 -3 43 22 0 38 -24 67 -60 75 -44 8 -84 -15 -107 -64 l-19 -41 -17 39
c-19 43 -52 65 -96 64 -41 -1 -70 -18 -77 -47 -10 -40 -1 -50 43 -47 31 3 47
-2 71 -23 42 -35 49 -62 23 -87 -18 -16 -20 -26 -15 -56 9 -54 36 -111 78
-165 35 -46 36 -50 21 -70 -76 -105 -76 -103 -42 -141 24 -28 74 -42 96 -27
11 7 11 17 0 59 -10 40 -10 54 0 66 11 13 17 13 57 -1 24 -8 44 -18 44 -21 -3
-36 -29 -117 -41 -123 -100 -50 -126 -47 -175 17 -22 29 -29 49 -31 88 0 28
-5 76 -10 106 -8 54 -9 55 -44 58 -45 4 -71 -23 -71 -72 0 -39 23 -88 101
-215 61 -100 64 -134 24 -208 -78 -140 -267 -462 -271 -459 -3 4 105 352 129
418 8 20 21 29 55 37 55 14 67 40 62 127 -3 55 -9 68 -48 119 -61 78 -89 124
-96 162 -6 31 -2 41 40 118 15 29 15 31 -5 48 -30 24 -103 23 -129 -3 -25 -25
-25 -42 0 -115 23 -66 25 -112 8 -150 -12 -27 -48 -51 -198 -138 -169 -97
-212 -119 -209 -109 4 10 143 139 237 219 48 42 55 45 92 39 l40 -6 0 37 c0
76 -13 173 -23 173 -6 0 -8 -32 -4 -90 l7 -91 -33 6 c-26 4 -38 0 -63 -22 -17
-16 -47 -41 -66 -58 -19 -16 -82 -73 -139 -126 -57 -54 -115 -106 -129 -118
-17 -14 -20 -20 -10 -21 8 0 120 34 248 75 228 74 233 76 239 105 6 35 6 35
64 15 53 -19 81 -41 108 -86 29 -48 27 -68 -9 -75 -16 -4 -34 -11 -39 -18 -13
-16 -161 -475 -176 -545 -7 -34 -6 -33 52 30 33 35 84 91 113 124 29 33 92
102 139 154 47 51 89 99 93 105 4 7 1 30 -7 52 -7 21 -11 42 -8 46 7 13 170 9
199 -4 25 -12 26 -15 20 -68 -13 -110 -16 -320 -5 -320 6 0 8 17 5 47 -4 35
-3 41 3 23 8 -21 9 -22 11 -5 1 11 23 -88 51 -219 27 -131 50 -241 53 -243 5
-5 4 -7 57 259 24 120 45 215 47 213 3 -3 13 -46 22 -97 l18 -93 1 57 c1 32
-4 60 -10 64 -7 4 -9 33 -6 83 4 56 3 65 -3 36 -6 -29 -7 -20 -4 35 3 41 6 77
6 80 0 3 -1 23 -2 45 -2 25 -4 32 -7 17 -7 -34 -23 -16 -23 26 1 53 42 72 155
72 92 0 92 0 75 -59 -9 -32 -6 -37 42 -95 94 -113 349 -388 355 -383 1 2 -10
44 -26 93 -47 143 -129 407 -136 436 -8 32 -20 43 -57 52 -64 15 -14 111 79
153 60 28 83 25 83 -10 0 -21 17 -29 241 -101 132 -43 242 -76 244 -74 2 2
-82 82 -187 177 -181 164 -192 172 -223 167 l-32 -6 3 97 c3 66 1 91 -5 78 -5
-11 -10 -38 -10 -59 -1 -22 -8 -63 -18 -92 -13 -43 -14 -56 -4 -68 7 -8 65
-46 129 -85 162 -97 259 -161 244 -161 -17 0 -345 119 -355 129 -5 5 -4 19 3
32 11 20 10 25 -12 43 -53 44 -61 96 -28 191 26 76 26 110 -2 129 -40 28 -138
13 -138 -21 0 -8 11 -31 25 -51 43 -64 26 -150 -46 -226 -38 -40 -76 -118 -88
-181 -12 -61 -3 -82 121 -300 126 -222 155 -284 107 -225 -12 14 -47 54 -79
90 -32 36 -90 103 -129 150 l-70 85 5 70 c12 170 11 167 86 291 82 134 95 187
59 223 -15 15 -32 21 -53 19 -30 -3 -32 -6 -45 -68 -7 -36 -11 -78 -8 -93 6
-36 -14 -75 -60 -116 -36 -31 -68 -40 -80 -21 -3 5 -20 13 -38 18 -21 5 -34
16 -38 33 -7 24 -7 24 -8 -3 -2 -66 -41 2 -41 71 0 34 2 37 50 52 41 13 54 13
68 3 15 -11 15 -17 4 -58 -6 -26 -12 -50 -12 -55 0 -15 40 -20 71 -9 60 21 65
76 12 137 -25 30 -34 47 -27 55 91 120 129 233 89 266 -23 19 -18 39 20 77 28
28 41 34 67 32 44 -4 60 7 52 34 -26 88 -135 84 -173 -6 l-18 -42 -15 35 c-30
70 -83 93 -135 60 -23 -14 -33 -27 -33 -45 0 -39 2 -40 47 -37 34 3 47 -1 68
-22 28 -28 32 -58 10 -76 -8 -7 -15 -20 -15 -29 -1 -29 -37 -95 -75 -135 -29
-32 -38 -37 -46 -25 -15 24 -10 49 9 49 27 0 32 9 19 31 -8 13 -23 19 -49 19
l-38 0 0 60 c0 33 3 60 7 60 4 0 17 -12 28 -27 17 -21 27 -25 48 -19 20 5 28
14 33 42 8 43 4 48 -31 32 -24 -11 -29 -10 -41 7 -30 41 -14 107 33 135 34 20
35 21 28 73 -12 99 -28 168 -36 160 -8 -8 -27 -96 -44 -197 -13 -77 -19 -21
-18 167 0 167 -1 177 -7 77 l-6 -115 -3 105 c-2 58 -7 215 -11 350 -6 237 -6
239 -9 85 -3 -174 -1 -173 -41 -22 -7 26 -15 45 -17 43 -3 -3 -7 -137 -9 -298
-5 -388 -14 -584 -25 -567 -11 17 -13 -30 -2 -58 6 -16 8 -15 14 7 5 19 7 14
8 -23 1 -45 0 -47 -19 -37 -17 9 -20 21 -20 75 0 35 5 67 10 70 6 3 10 26 10
50 0 24 -4 47 -10 50 -5 3 -10 -3 -10 -14 0 -12 -5 -21 -11 -21 -6 0 -8 9 -3
23 4 12 7 92 7 177 0 147 0 150 7 50 6 -98 6 -93 8 75 1 106 8 215 17 265 8
47 15 92 14 100 -1 23 -29 -68 -38 -125 -6 -32 -9 45 -9 214 0 144 -3 265 -5
268 -3 2 -8 -96 -11 -219z m-237 -1075 c9 -24 45 -69 97 -120 83 -82 95 -109
32 -77 -69 35 -158 156 -158 214 0 32 15 23 29 -17z m661 29 c0 -26 -25 -84
-56 -129 -48 -70 -154 -140 -154 -102 0 6 12 21 28 32 69 54 120 110 142 157
21 44 40 65 40 42z m-299 -43 c-6 -24 -9 -28 -10 -12 -1 24 9 56 16 50 2 -3 0
-20 -6 -38z m-81 -6 c0 -32 -5 -28 -14 10 -4 19 -3 26 4 22 5 -3 10 -18 10
-32z m37 -80 c-3 -10 -5 -2 -5 17 0 19 2 27 5 18 2 -10 2 -26 0 -35z m-78 -24
c14 -63 14 -119 1 -119 -5 0 -10 25 -10 55 0 30 -3 54 -7 53 -10 -4 -13 5 -13
43 0 44 17 27 29 -32z m182 16 c3 -20 0 -29 -9 -27 -8 1 -12 -15 -12 -53 0
-35 -4 -55 -11 -55 -15 0 -5 120 11 151 14 25 17 23 21 -16z m-214 -107 c-3
-8 -6 -5 -6 6 -1 11 2 17 5 13 3 -3 4 -12 1 -19z m220 -10 c-3 -8 -6 -5 -6 6
-1 11 2 17 5 13 3 -3 4 -12 1 -19z m-240 -90 c-3 -7 -5 -2 -5 12 0 14 2 19 5
13 2 -7 2 -19 0 -25z m-13 -72 c-3 -15 -8 -25 -11 -23 -2 3 -1 17 3 31 3 15 8
25 11 23 2 -3 1 -17 -3 -31z m53 -8 c-3 -8 -6 -5 -6 6 -1 11 2 17 5 13 3 -3 4
-12 1 -19z m33 -16 c0 -7 -4 -10 -10 -7 -5 3 -10 16 -10 28 0 18 2 19 10 7 5
-8 10 -21 10 -28z m121 -5 c-13 -13 -15 1 -4 30 7 17 8 17 11 -1 2 -10 -1 -23
-7 -29z m26 1 c-3 -8 -6 -5 -6 6 -1 11 2 17 5 13 3 -3 4 -12 1 -19z m-218 -35
c0 -11 -3 -13 -6 -5 -2 6 -10 9 -15 6 -7 -4 -8 -2 -4 4 11 18 26 14 25 -5z
m252 -56 c-6 -6 -14 -8 -18 -4 -4 4 -1 13 5 19 7 7 13 23 14 38 1 19 2 16 5
-9 3 -18 0 -38 -6 -44z m-231 -3 c0 -8 -6 -11 -15 -8 -8 4 -15 15 -15 26 0 17
3 18 15 8 8 -7 15 -19 15 -26z m107 -156 c-3 -8 -6 -5 -6 6 -1 11 2 17 5 13 3
-3 4 -12 1 -19z m-77 -52 c0 -8 -4 -18 -10 -21 -5 -3 -10 3 -10 14 0 12 5 21
10 21 6 0 10 -6 10 -14z m57 -209 c1 -122 4 -253 7 -292 6 -81 3 -72 -45 145
-17 80 -31 165 -31 189 0 30 -3 40 -9 30 -6 -10 -9 -1 -9 27 0 23 6 46 13 52
10 9 12 3 10 -26 -2 -29 0 -26 8 13 6 31 18 57 32 67 12 10 22 18 22 18 0 0 1
-100 2 -223z"/>
<path d="M1551 2834 c0 -11 3 -14 6 -6 3 7 2 16 -1 19 -3 4 -6 -2 -5 -13z"/>
<path d="M1312 2650 c0 -19 2 -27 5 -17 2 9 2 25 0 35 -3 9 -5 1 -5 -18z"/>
<path d="M1204 1975 c0 -66 1 -92 3 -57 2 34 2 88 0 120 -2 31 -3 3 -3 -63z"/>
<path d="M1182 1945 c0 -16 2 -22 5 -12 2 9 2 23 0 30 -3 6 -5 -1 -5 -18z"/>
<path d="M1387 1294 c-4 -4 -7 -14 -7 -23 0 -11 3 -12 11 -4 6 6 10 16 7 23
-2 6 -7 8 -11 4z"/>
<path d="M1401 1244 c0 -11 3 -14 6 -6 3 7 2 16 -1 19 -3 4 -6 -2 -5 -13z"/>
<path d="M1097 506 c-4 -10 -7 -30 -6 -44 1 -25 1 -25 10 6 11 37 7 67 -4 38z"/>
</g>
</svg>
