<?xml version="1.0" standalone="no"?>
<!DOCTYPE svg PUBLIC "-//W3C//DTD SVG 20010904//EN"
 "http://www.w3.org/TR/2001/REC-SVG-20010904/DTD/svg10.dtd">
<svg version="1.0" xmlns="http://www.w3.org/2000/svg"
 width="244.000000pt" height="305.000000pt" viewBox="0 0 244.000000 305.000000"
 preserveAspectRatio="xMidYMid meet">
<metadata>
Created by potrace 1.16, written by Peter Selinger 2001-2019
</metadata>
<g transform="translate(0.000000,305.000000) scale(0.100000,-0.100000)"
fill="#000000" stroke="none">
<path d="M1552 2852 c-25 -112 -51 -268 -62 -357 -17 -151 -32 -457 -25 -517
6 -53 10 -59 40 -74 18 -8 36 -22 39 -30 8 -21 29 -17 69 14 19 15 42 32 51
37 15 9 16 32 6 257 -5 135 -16 293 -24 351 -21 147 -48 289 -54 283 -2 -3 3
-47 11 -98 38 -217 57 -434 57 -649 l0 -116 -40 -27 c-22 -14 -42 -26 -45 -26
-3 0 -5 217 -4 483 0 304 4 475 10 462 7 -15 7 -11 3 15 -10 56 -19 54 -32 -8z"/>
<path d="M872 2798 c-53 -257 -71 -439 -72 -710 0 -163 1 -168 23 -179 12 -6
34 -23 50 -37 l27 -26 28 25 c15 14 40 33 56 43 l28 18 -7 166 c-12 316 -44
622 -65 622 -4 0 -3 -21 1 -47 22 -118 40 -315 46 -508 l6 -210 -40 -28 c-21
-15 -42 -27 -46 -27 -4 0 -7 217 -6 483 0 278 4 474 9 462 10 -24 13 -2 4 33
-11 41 -20 23 -42 -80z"/>
<path d="M1311 2864 c0 -11 3 -14 6 -6 3 7 2 16 -1 19 -3 4 -6 -2 -5 -13z"/>
<path d="M1151 2840 c-1 -14 -2 -227 -2 -475 1 -446 1 -450 -18 -413 -10 20
-22 54 -25 75 -10 56 -16 73 -26 73 -10 0 -27 -81 -33 -158 -4 -49 -2 -54 23
-69 24 -14 28 -24 33 -77 6 -68 -3 -87 -33 -68 -29 18 -40 15 -40 -11 0 -31
27 -67 50 -67 10 0 28 12 39 28 l22 27 -6 -50 c-9 -69 -12 -75 -34 -75 -26 0
-57 -30 -41 -40 7 -4 10 -18 8 -31 l-3 -24 -29 30 c-30 32 -65 99 -66 126 0 9
-7 22 -15 29 -24 20 -18 46 17 75 26 22 39 26 70 22 37 -5 38 -4 38 27 0 43
-28 68 -76 68 -42 0 -73 -26 -90 -75 l-11 -32 -16 37 c-41 96 -177 94 -177 -4
0 -28 2 -29 34 -23 37 7 70 -6 98 -39 21 -26 23 -62 3 -70 -32 -12 -10 -108
42 -186 62 -93 60 -81 19 -134 -52 -69 -46 -114 19 -136 59 -19 67 -10 59 65
l-7 65 27 0 c49 0 66 -16 66 -63 0 -46 -17 -88 -39 -95 -11 -4 -12 4 -8 34 l6
39 -15 -41 c-25 -68 -81 -78 -130 -23 -41 48 -54 77 -45 101 6 15 3 47 -9 93
-15 61 -21 70 -42 73 -32 4 -78 -33 -78 -62 0 -35 20 -85 55 -141 18 -27 48
-81 68 -120 32 -64 36 -79 41 -178 l5 -108 -42 -47 c-23 -27 -89 -103 -146
-170 -57 -68 -105 -121 -107 -119 -2 2 53 107 123 233 112 201 128 235 127
274 -1 70 -31 143 -85 212 -84 105 -96 154 -54 223 14 22 25 48 25 57 0 42
-105 54 -140 16 -25 -27 -25 -37 0 -118 31 -103 26 -168 -16 -191 -22 -11 -24
-18 -19 -49 6 -35 6 -36 -42 -52 -26 -9 -104 -37 -173 -62 -68 -25 -128 -45
-132 -44 -9 3 36 34 230 154 139 86 143 90 139 119 -23 153 -32 195 -40 195
-6 0 -8 -33 -4 -90 l7 -91 -33 6 c-30 6 -39 0 -123 -77 -50 -46 -134 -123
-188 -172 -53 -49 -95 -91 -92 -93 7 -8 470 147 478 160 4 7 6 18 3 25 -8 23
23 24 72 2 59 -26 91 -55 110 -98 17 -40 7 -57 -36 -65 -28 -6 -32 -13 -66
-124 -20 -65 -56 -181 -80 -258 -25 -77 -47 -153 -50 -170 l-6 -30 27 30 c39
44 197 215 211 230 7 7 47 52 89 100 60 70 74 92 69 109 -4 11 -9 33 -12 48
l-5 28 96 0 c57 0 96 -4 96 -10 0 -5 6 -10 14 -10 25 0 27 -16 11 -92 -8 -40
-15 -89 -15 -108 0 -19 -3 -53 -7 -75 l-7 -40 -7 30 c-4 17 -5 -3 -2 -44 4
-54 3 -72 -6 -67 -8 5 -11 -10 -10 -51 l1 -58 24 105 c27 117 32 135 39 128 3
-2 27 -114 55 -249 28 -134 52 -248 53 -253 2 -5 22 83 45 195 24 112 45 215
48 229 4 14 9 43 13 65 l7 40 14 -59 c11 -46 16 -55 22 -40 5 13 7 7 3 -16 -2
-19 2 -57 10 -85 l14 -50 -5 60 c-2 33 -11 145 -20 249 -12 154 -12 191 -2
198 7 4 52 8 101 8 95 0 96 -1 76 -59 -14 -40 -13 -42 137 -206 197 -217 267
-291 262 -275 -3 8 -27 85 -53 170 -26 85 -65 210 -87 278 -37 115 -41 123
-68 129 -47 9 -54 26 -32 70 25 49 46 67 105 92 54 23 77 19 77 -15 0 -22 16
-29 238 -100 130 -42 241 -79 246 -82 33 -19 -35 48 -192 192 -175 159 -185
166 -217 160 l-32 -6 4 99 c5 128 -12 104 -21 -30 l-7 -98 48 6 c48 6 49 5
109 -52 34 -32 99 -92 144 -133 46 -40 78 -76 72 -78 -6 -2 -24 5 -39 16 -15
11 -90 55 -167 97 -167 95 -192 115 -206 167 -10 33 -8 51 9 108 12 37 21 78
21 89 0 51 -73 78 -135 49 -31 -14 -32 -29 0 -76 45 -67 31 -125 -59 -243 -63
-84 -77 -132 -55 -201 13 -38 19 -44 60 -56 l46 -15 68 -210 c37 -116 69 -216
72 -224 9 -22 -11 -14 -23 10 -6 12 -34 63 -63 112 -29 50 -78 133 -108 185
-30 52 -65 113 -78 135 -32 53 -33 126 -3 175 11 19 29 49 38 65 10 17 31 53
49 80 17 28 34 71 37 96 5 39 3 50 -15 68 -33 33 -91 24 -98 -16 -1 -10 -5
-53 -8 -97 -3 -64 -9 -86 -30 -116 -37 -54 -75 -68 -117 -43 -26 15 -35 29
-46 73 -7 30 -18 61 -24 68 -14 17 -8 22 37 29 l37 6 -3 -69 c-4 -67 -3 -69
21 -72 14 -1 40 7 58 18 45 28 44 72 -3 127 -19 23 -35 46 -35 52 0 6 13 25
29 43 65 75 106 209 67 224 -26 10 -19 49 16 83 25 25 40 31 74 31 53 0 61 11
37 53 -38 65 -119 57 -158 -16 -11 -20 -23 -37 -26 -37 -3 0 -13 18 -21 39
-13 32 -23 41 -53 50 -50 14 -82 -1 -101 -44 -8 -20 -12 -40 -9 -44 2 -5 25
-6 49 -4 38 5 48 2 70 -20 29 -29 33 -58 12 -76 -7 -6 -16 -29 -20 -50 -4 -27
-20 -54 -51 -87 -43 -48 -44 -48 -45 -21 0 15 5 27 12 27 6 0 3 9 -7 20 -10
11 -31 20 -47 20 -28 0 -28 1 -28 60 l0 59 25 -24 c30 -31 49 -32 69 -3 30 43
12 90 -21 57 -26 -26 -40 -2 -39 60 1 58 3 62 34 81 33 20 34 22 27 73 -10 84
-26 156 -35 162 -9 6 -12 -7 -35 -139 -8 -49 -16 -91 -18 -92 -1 -1 -1 124 1
279 1 155 -2 361 -6 457 l-9 175 -3 -320 -3 -320 -13 125 c-7 69 -20 154 -29
190 -9 36 -19 76 -21 89 -3 14 -9 31 -13 39 -7 13 -14 -9 -54 -173 l-15 -60
-2 150 c-3 157 -15 378 -19 335z m115 -416 c17 -102 35 -556 22 -565 -5 -3
-11 -23 -15 -44 -5 -29 -2 -40 10 -47 13 -7 17 -24 17 -72 0 -55 -3 -64 -20
-69 -16 -4 -20 0 -20 21 0 19 3 23 9 13 6 -9 10 -3 13 21 2 21 -2 40 -10 48
-10 9 -12 28 -7 74 3 33 7 115 9 181 2 79 1 98 -3 55 -4 -36 -10 -58 -13 -50
-7 14 -16 532 -10 526 1 -2 9 -43 18 -92z m51 -306 c-3 -8 -6 -5 -6 6 -1 11 2
17 5 13 3 -3 4 -12 1 -19z m-180 -240 c-3 -7 -5 -2 -5 12 0 14 2 19 5 13 2 -7
2 -19 0 -25z m-208 -298 c8 -26 35 -65 77 -109 60 -64 76 -91 55 -91 -18 0
-110 91 -134 133 -29 49 -39 107 -19 107 5 0 14 -18 21 -40z m646 8 c-11 -51
-49 -109 -106 -163 -45 -42 -54 -47 -57 -31 -3 12 15 38 52 75 30 31 65 77 76
104 24 55 45 63 35 15z m-382 -25 c-5 -12 -7 -12 -14 -1 -5 7 -9 22 -9 33 1
19 1 19 15 2 7 -11 11 -26 8 -34z m98 10 c-9 -17 -10 -17 -17 1 -4 11 -2 21 7
27 18 11 24 -5 10 -28z m26 15 c-3 -8 -6 -5 -6 6 -1 11 2 17 5 13 3 -3 4 -12
1 -19z m-165 -156 c12 -72 7 -95 -14 -74 -8 8 -8 15 2 27 10 12 10 21 0 45 -7
16 -19 30 -27 30 -9 0 -12 8 -9 28 2 15 5 31 5 37 1 5 8 2 17 -6 8 -9 20 -48
26 -87z m191 13 c-12 -9 -17 -25 -17 -54 1 -23 -2 -41 -7 -41 -22 0 1 157 24
172 21 13 21 -62 0 -77z m-106 38 c-3 -10 -5 -4 -5 12 0 17 2 24 5 18 2 -7 2
-21 0 -30z m-140 -105 c-3 -8 -6 -5 -6 6 -1 11 2 17 5 13 3 -3 4 -12 1 -19z
m316 -183 l7 -30 -14 30 c-9 17 -15 50 -14 75 l1 45 7 -45 c4 -25 10 -58 13
-75z m-306 73 c-3 -7 -5 -2 -5 12 0 14 2 19 5 13 2 -7 2 -19 0 -25z m256 -5
c-10 -61 -23 -95 -17 -43 3 25 8 53 10 63 9 30 13 18 7 -20z m-246 -45 c-3 -7
-5 -2 -5 12 0 14 2 19 5 13 2 -7 2 -19 0 -25z m207 -25 c-9 -37 -11 -38 -29
-23 -19 16 -20 41 -1 34 8 -3 17 -1 21 5 11 19 16 12 9 -16z m-151 4 c4 3 7
-1 7 -10 0 -22 -20 -33 -31 -16 -14 23 -11 43 4 30 8 -6 17 -8 20 -4z m-46
-29 c-3 -8 -6 -5 -6 6 -1 11 2 17 5 13 3 -3 4 -12 1 -19z m259 -40 c-12 -40
-17 -50 -22 -46 -5 6 13 58 20 58 3 0 4 -6 2 -12z m-282 -33 c3 -8 1 -15 -4
-15 -6 0 -10 7 -10 15 0 8 2 15 4 15 2 0 6 -7 10 -15z m133 -177 c-3 -8 -6 -5
-6 6 -1 11 2 17 5 13 3 -3 4 -12 1 -19z m112 -70 c1 -16 -3 -28 -8 -28 -13 0
-23 48 -15 73 7 22 7 22 15 2 4 -11 8 -32 8 -47z m-22 -90 c3 -30 1 -70 -5
-89 -6 -19 -14 -52 -17 -74 -3 -22 -17 -87 -30 -145 l-24 -105 7 200 c8 253 8
263 -2 305 l-8 35 37 -36 c30 -30 37 -44 42 -91z m51 -138 l0 -25 -8 25 c-4
14 -8 45 -8 70 l1 45 8 -45 c4 -25 7 -56 7 -70z"/>
<path d="M922 2805 c0 -11 4 -33 8 -50 l8 -30 0 30 c0 17 -3 39 -8 50 l-9 20
1 -20z"/>
<path d="M1133 2560 c0 -30 2 -43 4 -27 2 15 2 39 0 55 -2 15 -4 2 -4 -28z"/>
<path d="M1035 1279 c-4 -11 -4 -23 -1 -26 3 -4 6 -1 6 6 0 7 5 9 10 6 6 -3
10 1 10 9 0 24 -18 28 -25 5z"/>
<path d="M1093 865 c0 -22 2 -30 4 -17 2 12 2 30 0 40 -3 9 -5 -1 -4 -23z"/>
<path d="M1083 750 c0 -25 2 -35 4 -22 2 12 2 32 0 45 -2 12 -4 2 -4 -23z"/>
</g>
</svg>
