<?xml version="1.0" standalone="no"?>
<!DOCTYPE svg PUBLIC "-//W3C//DTD SVG 20010904//EN"
 "http://www.w3.org/TR/2001/REC-SVG-20010904/DTD/svg10.dtd">
<svg version="1.0" xmlns="http://www.w3.org/2000/svg"
 width="244.000000pt" height="305.000000pt" viewBox="0 0 244.000000 305.000000"
 preserveAspectRatio="xMidYMid meet">
<metadata>
Created by potrace 1.16, written by Peter Selinger 2001-2019
</metadata>
<g transform="translate(0.000000,305.000000) scale(0.100000,-0.100000)"
fill="#000000" stroke="none">
<path d="M970 2893 c0 -10 -3 -29 -7 -42 -4 -16 -2 -22 4 -18 8 5 9 -131 6
-451 -2 -251 -6 -461 -7 -466 -1 -5 -16 4 -34 20 l-32 29 10 260 c6 143 15
298 20 345 12 100 11 129 0 80 -12 -50 -28 -301 -34 -530 l-5 -195 31 -20 c52
-33 49 -48 -9 -40 -41 5 -52 3 -66 -13 -10 -11 -19 -32 -20 -48 -2 -25 2 -30
28 -34 39 -7 58 -19 80 -52 16 -27 16 -29 0 -54 -20 -30 -16 -80 10 -157 15
-44 15 -47 -4 -66 -23 -23 -31 -12 -23 36 2 19 -1 39 -8 48 -14 17 -70 21 -70
5 0 -7 -6 -7 -19 0 -11 5 -36 10 -56 10 -49 0 -62 -32 -45 -110 23 -109 23
-134 2 -177 -22 -43 -48 -66 -182 -165 -172 -127 -172 -127 -15 56 106 123
111 127 142 121 l33 -6 -1 68 c0 37 -4 86 -8 108 -7 33 -9 24 -10 -53 -1 -91
-1 -92 -23 -87 -20 5 -40 -13 -130 -117 -126 -146 -192 -228 -187 -232 2 -2
57 18 121 44 65 27 120 45 123 39 4 -5 2 -9 -3 -9 -10 0 -35 -50 -28 -57 3 -3
40 14 83 38 43 23 102 55 131 71 62 34 75 29 94 -34 13 -43 12 -43 -37 -73
-15 -10 -34 -78 -118 -432 -15 -61 -27 -119 -27 -129 0 -10 19 9 44 45 51 73
70 99 92 126 17 22 17 26 -7 -93 -14 -73 -8 -80 21 -25 13 27 48 90 77 141 29
51 53 95 53 97 0 3 18 35 41 72 38 62 40 70 34 120 l-6 53 36 0 c43 0 88 -24
105 -55 10 -19 8 -28 -14 -62 -19 -28 -25 -48 -21 -69 3 -16 26 -159 51 -319
39 -249 54 -331 54 -288 0 6 16 113 36 239 70 452 66 403 38 439 -13 18 -24
37 -24 42 0 6 16 25 35 42 28 24 45 31 77 31 l41 0 -7 -53 c-6 -53 -5 -54 97
-239 56 -103 106 -184 111 -181 5 4 6 1 3 -4 -7 -10 21 -78 29 -70 2 2 -3 38
-11 81 -8 43 -15 85 -15 94 0 9 29 -23 65 -72 36 -48 65 -83 65 -76 0 6 -13
64 -29 128 -16 64 -45 187 -66 273 -35 151 -37 155 -67 167 -26 9 -29 15 -24
36 21 82 36 91 96 55 19 -12 62 -35 95 -52 33 -17 82 -44 109 -59 27 -16 50
-27 53 -24 8 7 -41 76 -55 76 -10 0 -10 -5 -2 -20 7 -13 -26 2 -105 48 -63 37
-115 72 -115 78 0 15 46 38 59 30 6 -4 11 -18 11 -32 0 -13 6 -24 13 -24 8 0
38 -17 68 -38 33 -23 62 -36 76 -34 12 2 64 -15 114 -37 51 -23 93 -40 95 -38
4 3 -209 263 -253 309 -22 23 -44 36 -57 35 -20 -2 -21 2 -17 88 4 110 -6 108
-19 -4 -5 -45 -13 -89 -19 -98 -21 -38 -24 37 -5 119 16 72 16 83 3 107 -14
25 -19 26 -94 26 l-80 0 -3 -52 c-2 -29 -6 -53 -10 -53 -4 0 -17 8 -30 18
l-23 18 20 44 c22 47 29 150 11 150 -21 0 -9 49 20 80 22 23 36 31 57 28 24
-2 28 1 31 22 4 36 -31 70 -73 70 -46 0 -54 18 -20 46 l28 22 -6 234 c-4 128
-11 283 -17 343 -14 143 -51 385 -59 385 -4 0 -6 -64 -4 -142 1 -124 0 -134
-8 -78 -5 36 -14 92 -19 125 -6 33 -11 71 -10 84 0 14 -2 22 -5 19 -3 -3 -7
-93 -9 -199 -2 -107 -6 -257 -8 -334 -4 -87 -3 -108 1 -55 5 63 8 27 9 -142 1
-147 -2 -228 -8 -228 -6 0 -11 39 -12 93 l-2 92 -5 -95 c-6 -103 -15 -108 -26
-17 -4 31 -11 57 -16 57 -5 0 -9 6 -9 13 0 7 -8 13 -19 14 -16 1 -20 -9 -28
-75 l-9 -77 -8 160 c-12 257 -48 518 -66 484 -22 -42 -57 -370 -61 -579 l-2
-75 -9 83 c-8 63 -13 82 -23 78 -8 -3 -16 0 -19 7 -3 9 -5 9 -5 0 -1 -7 -5
-13 -11 -13 -6 0 -10 46 -10 118 0 139 -15 361 -35 527 -8 66 -15 123 -15 127
0 4 -4 8 -8 8 -4 0 -7 -57 -6 -127 l3 -128 -14 90 c-7 50 -17 114 -21 143 -7
50 -24 83 -24 45z m260 -843 l0 -441 -22 20 c-21 20 -21 22 -15 319 6 258 23
542 34 542 2 0 3 -198 3 -440z m184 -163 c13 -20 6 -28 -21 -21 -15 4 -19 11
-16 25 6 22 22 21 37 -4z m-315 -8 c11 -19 11 -21 -4 -15 -9 3 -23 6 -31 6 -8
0 -11 6 -8 15 9 21 27 19 43 -6z m-87 -14 c0 -5 -5 -11 -11 -13 -6 -2 -11 4
-11 13 0 9 5 15 11 13 6 -2 11 -8 11 -13z m458 -7 c0 -16 -3 -19 -11 -11 -6 6
-8 16 -5 22 11 17 16 13 16 -11z m-61 -133 c10 -22 11 -33 2 -47 -6 -10 -11
-26 -11 -36 0 -11 -5 -33 -11 -50 -10 -29 -11 -30 -37 -16 -15 8 -33 14 -39
14 -23 0 -52 -38 -64 -82 l-11 -43 -20 53 c-24 65 -51 82 -97 59 -36 -18 -36
-17 -45 45 -4 26 -11 50 -17 53 -10 7 -2 53 14 73 5 6 23 12 39 12 19 0 28 -4
25 -12 -2 -7 -18 -12 -35 -12 -36 2 -38 -3 -17 -53 14 -33 17 -35 50 -30 32 5
35 3 35 -18 0 -12 7 -26 15 -29 9 -3 23 -22 31 -41 8 -19 16 -35 19 -35 3 0
11 16 19 35 8 19 22 38 31 41 8 3 15 17 15 30 0 21 3 23 32 17 36 -7 58 14 58
58 0 23 -3 26 -30 23 -28 -3 -41 12 -24 28 13 14 60 -10 73 -37z m-410 -190
c0 -18 -1 -17 -14 5 -8 14 -14 39 -14 55 l1 30 13 -35 c7 -19 14 -44 14 -55z
m492 34 c-6 -16 -10 -18 -10 -7 -1 22 12 55 16 42 2 -6 -1 -22 -6 -35z m-345
-47 c26 -17 45 -82 24 -82 -9 0 -60 72 -60 85 0 7 23 6 36 -3z m214 -2 c0 -6
-16 -27 -35 -48 -30 -32 -34 -34 -35 -16 0 26 36 74 56 74 8 0 14 -5 14 -10z
m-526 -167 c8 -112 -9 -128 -19 -19 -6 62 0 126 10 114 1 -2 5 -45 9 -95z
m651 30 c-4 -19 -9 -23 -17 -15 -9 9 -8 19 2 39 15 32 25 16 15 -24z m160 -78
l-15 -50 6 80 c3 44 9 85 13 90 13 21 10 -72 -4 -120z m-644 68 c-9 -15 -10
-12 -10 17 0 29 1 32 10 18 7 -12 7 -24 0 -35z m185 -20 c-7 -8 -65 29 -71 45
-4 12 0 11 19 -2 34 -22 46 -20 48 7 1 12 3 8 5 -11 3 -19 2 -36 -1 -39z m168
44 c-4 -12 -55 -47 -68 -47 -3 0 -6 9 -6 19 0 13 5 18 18 15 9 -3 26 2 37 10
25 19 26 19 19 3z m-217 -94 c18 -4 20 -9 13 -33 -8 -29 3 -50 26 -50 15 0 25
-25 18 -44 -9 -23 -34 -27 -51 -10 -12 12 -25 14 -52 9 -55 -11 -64 -11 -68 2
-2 7 8 13 24 15 27 3 28 5 29 58 1 72 1 73 22 65 9 -4 27 -10 39 -12z m257 9
c2 -4 0 -27 -4 -52 -9 -51 1 -72 34 -68 13 2 21 -3 21 -12 0 -16 -18 -17 -71
-5 -22 5 -35 2 -47 -9 -18 -18 -42 -12 -52 12 -4 11 3 24 20 38 20 16 26 28
23 50 -2 24 2 31 27 40 39 15 43 15 49 6z m-439 -92 c7 -24 7 -24 -9 -5 -8 11
-15 29 -15 40 0 16 1 17 8 5 5 -8 12 -26 16 -40z m935 -95 c95 -74 149 -119
145 -123 -4 -5 -143 56 -163 72 -15 11 -82 109 -82 120 0 7 17 -5 100 -69z
m-1150 15 c0 -5 -4 -10 -10 -10 -5 0 -10 5 -10 10 0 6 5 10 10 10 6 0 10 -4
10 -10z m197 -104 c5 -37 2 -47 -11 -52 -23 -9 -24 -6 -18 59 5 68 21 64 29
-7z m288 -86 c10 -16 24 -2 34 33 8 27 9 28 10 8 1 -13 -9 -39 -20 -58 l-22
-35 -14 33 c-7 18 -16 60 -18 94 l-5 60 14 -62 c8 -35 18 -67 21 -73z m69 122
c-7 -4 -14 -18 -17 -32 -4 -21 -4 -20 -6 8 -1 24 3 32 17 32 11 0 13 -3 6 -8z
m-654 -27 c-13 -14 -28 -25 -33 -25 -6 0 0 11 13 25 13 14 28 25 33 25 6 0 0
-11 -13 -25z m897 -37 c-3 -7 -5 -2 -5 12 0 14 2 19 5 13 2 -7 2 -19 0 -25z
m-643 -85 c-11 -60 -32 -118 -100 -270 -35 -79 -64 -148 -65 -155 0 -10 -2
-10 -6 -1 -2 7 19 107 48 223 51 208 52 211 83 225 45 20 48 19 40 -22z m591
-32 c-6 -46 -4 -54 28 -103 53 -79 138 -280 125 -294 -4 -3 -77 135 -169 316
-22 42 -16 130 8 130 12 0 14 -10 8 -49z m-256 -278 c-2 -307 1 -309 -44 32
l-18 139 29 53 c15 29 30 53 31 53 2 0 2 -125 2 -277z m291 235 c0 -18 -2 -20
-9 -8 -6 8 -7 18 -5 22 9 14 14 9 14 -14z m156 -194 c30 -70 54 -129 54 -131
0 -6 -41 44 -68 83 -12 18 -29 61 -38 95 -8 35 -18 73 -21 84 -4 16 -3 17 7 8
7 -6 37 -69 66 -139z m-811 -59 c-15 -41 -29 -74 -31 -72 -5 5 22 111 35 135
25 47 23 11 -4 -63z"/>
<path d="M952 2800 c0 -14 2 -19 5 -12 2 6 2 18 0 25 -3 6 -5 1 -5 -13z"/>
<path d="M1421 2804 c0 -11 3 -14 6 -6 3 7 2 16 -1 19 -3 4 -6 -2 -5 -13z"/>
<path d="M1011 2794 c0 -11 3 -14 6 -6 3 7 2 16 -1 19 -3 4 -6 -2 -5 -13z"/>
<path d="M1471 2794 c0 -11 3 -14 6 -6 3 7 2 16 -1 19 -3 4 -6 -2 -5 -13z"/>
<path d="M942 2730 c0 -19 2 -27 5 -17 2 9 2 25 0 35 -3 9 -5 1 -5 -18z"/>
<path d="M1412 2690 c0 -19 2 -27 5 -17 2 9 2 25 0 35 -3 9 -5 1 -5 -18z"/>
<path d="M1402 2605 c0 -16 2 -22 5 -12 2 9 2 23 0 30 -3 6 -5 -1 -5 -18z"/>
<path d="M1384 2250 c0 -63 1 -89 3 -57 2 31 2 83 0 115 -2 31 -3 5 -3 -58z"/>
</g>
</svg>
