<?xml version="1.0" standalone="no"?>
<!DOCTYPE svg PUBLIC "-//W3C//DTD SVG 20010904//EN"
 "http://www.w3.org/TR/2001/REC-SVG-20010904/DTD/svg10.dtd">
<svg version="1.0" xmlns="http://www.w3.org/2000/svg"
 width="244.000000pt" height="305.000000pt" viewBox="0 0 244.000000 305.000000"
 preserveAspectRatio="xMidYMid meet">
<metadata>
Created by potrace 1.16, written by Peter Selinger 2001-2019
</metadata>
<g transform="translate(0.000000,305.000000) scale(0.100000,-0.100000)"
fill="#000000" stroke="none">
<path d="M940 2905 c0 -6 -9 -53 -19 -105 -32 -156 -52 -370 -60 -625 l-8
-240 41 -37 c23 -20 46 -37 52 -38 6 0 21 11 34 25 28 30 59 29 71 -1 6 -18 4
-20 -17 -16 -31 6 -61 -20 -69 -59 -8 -38 -22 -45 -30 -17 -12 38 -56 78 -86
78 -32 0 -69 -41 -69 -76 0 -21 5 -24 39 -24 32 0 44 -6 65 -31 26 -31 35 -79
15 -79 -12 0 -10 -26 11 -236 12 -111 8 -205 -8 -189 -3 3 -5 39 -3 80 4 110
-2 130 -43 133 -67 5 -87 -45 -57 -136 27 -79 26 -93 -4 -59 -46 52 -57 135
-25 197 11 22 20 46 20 54 0 22 -35 38 -78 34 -49 -4 -65 -34 -50 -98 17 -75
21 -159 8 -190 -6 -15 -30 -41 -53 -57 -106 -75 -264 -181 -287 -193 -27 -14
-29 -16 118 140 38 41 80 88 93 103 20 26 26 28 65 22 l44 -6 -6 78 c-11 131
-23 162 -21 50 l2 -98 -29 7 c-26 5 -35 0 -74 -42 -24 -27 -101 -109 -169
-181 -69 -73 -122 -133 -118 -133 8 0 327 119 388 145 28 12 37 21 37 40 0 13
4 26 8 29 11 7 82 -25 82 -37 0 -5 -16 -40 -35 -79 -20 -39 -34 -73 -31 -75 2
-3 32 14 65 37 62 42 81 44 81 10 0 -13 -12 -25 -33 -34 -30 -12 -36 -21 -49
-72 -9 -33 -37 -138 -63 -234 -69 -257 -74 -275 -70 -278 2 -2 15 12 29 30
104 133 210 269 236 303 66 87 62 84 56 45 -17 -105 -54 -365 -53 -367 1 -1
46 99 100 222 90 206 96 226 91 269 -5 32 -3 46 5 46 28 0 90 -52 91 -77 0 -6
-12 -26 -27 -43 l-26 -32 22 -121 c60 -335 91 -511 92 -521 2 -27 40 176 99
534 l19 115 -24 25 c-14 15 -25 33 -25 41 0 25 42 67 74 75 l29 7 -6 -55 c-5
-43 -3 -63 12 -94 10 -21 46 -102 80 -179 34 -77 70 -158 81 -180 l21 -40 -6
55 c-3 30 -15 111 -26 179 -11 68 -19 132 -17 141 2 12 28 -15 80 -83 139
-185 199 -262 213 -276 9 -9 2 31 -21 115 -19 71 -53 199 -75 284 -22 85 -43
158 -47 161 -4 4 -16 9 -27 11 -13 2 -21 12 -23 31 -2 15 1 27 6 27 5 0 42
-23 83 -50 41 -28 75 -46 77 -41 2 5 -13 35 -33 67 -19 33 -35 65 -35 72 0 6
-4 12 -10 12 -22 0 -9 41 16 50 37 14 41 13 47 -18 5 -25 16 -32 89 -59 46
-17 137 -52 202 -77 66 -25 120 -45 122 -43 1 1 -33 40 -76 87 -44 47 -114
124 -157 172 -71 80 -81 87 -108 83 l-31 -5 4 97 c5 115 -6 118 -20 6 -5 -43
-11 -94 -14 -113 -4 -31 -1 -38 33 -62 21 -15 88 -64 148 -108 61 -45 117 -85
125 -90 8 -5 12 -11 9 -14 -6 -6 -286 109 -302 124 -5 4 -4 18 3 30 10 19 8
26 -15 50 -34 36 -41 89 -21 166 22 86 21 141 -3 154 -26 13 -54 13 -86 -2
-30 -14 -32 -33 -5 -73 32 -48 23 -153 -16 -197 -27 -29 -35 -2 -13 46 36 79
21 131 -43 145 l-36 9 -6 -67 c-3 -36 -6 -81 -6 -98 0 -18 -5 -33 -11 -33 -9
0 -10 19 -4 68 4 37 9 101 11 142 3 41 7 98 10 125 5 39 3 54 -10 64 -23 20
-20 36 16 77 28 31 36 35 65 31 32 -6 33 -5 33 28 0 42 -22 65 -63 65 -40 -1
-64 -19 -78 -59 -13 -38 -25 -40 -34 -3 -13 53 -34 75 -66 68 -32 -6 -34 -4
-19 25 15 28 38 24 72 -13 30 -32 30 -32 46 -12 10 11 29 28 45 37 26 17 27
20 27 110 0 145 -19 462 -35 577 -23 167 -47 300 -55 300 -9 0 -20 -38 -19
-65 1 -13 4 -10 9 10 4 17 8 -190 9 -458 l1 -489 -29 24 c-17 13 -33 37 -37
56 -13 65 3 491 25 656 12 87 20 161 18 163 -6 5 -37 -191 -38 -239 -2 -96
-15 -92 -22 7 -13 180 -30 355 -35 351 -2 -3 -4 -215 -4 -473 0 -298 -3 -445
-9 -405 -4 35 -13 69 -18 76 -6 7 -12 68 -14 137 l-3 124 -2 -146 c-2 -178
-12 -286 -23 -249 -4 14 -7 46 -8 72 -1 26 -5 50 -11 53 -5 3 -10 36 -10 73
-1 113 -52 443 -67 428 -20 -20 -63 -320 -63 -443 0 -29 -4 -53 -10 -53 -5 0
-10 -19 -11 -42 0 -24 -4 -61 -8 -83 -7 -38 -8 -36 -14 35 -3 41 -9 170 -12
285 -6 212 -31 550 -43 572 -4 6 -6 -210 -4 -480 2 -459 1 -491 -14 -475 -15
15 -17 52 -18 330 -1 172 -3 284 -6 248 l-5 -65 -13 110 c-18 155 -53 358 -63
370 -6 5 -9 5 -9 0z m6 -1003 c-3 -2 -21 9 -40 25 l-36 28 0 110 c0 212 43
701 68 770 4 11 8 -193 10 -454 1 -261 0 -476 -2 -479z m284 138 c0 -369 -2
-419 -15 -414 -13 5 -15 41 -17 228 -2 182 -3 201 -8 111 l-6 -110 -2 130 c-1
72 1 175 6 230 l7 100 6 -105 6 -105 -1 132 c-1 73 2 125 6 115 4 -9 7 11 7
46 1 34 3 62 6 62 3 0 5 -189 5 -420z m-130 -180 c0 -5 -4 -10 -10 -10 -5 0
-10 5 -10 10 0 6 5 10 10 10 6 0 10 -4 10 -10z m290 0 c0 -5 -4 -10 -10 -10
-5 0 -10 5 -10 10 0 6 5 10 10 10 6 0 10 -4 10 -10z m-20 -126 c0 -19 -16 -18
-24 2 -11 27 -7 37 9 24 8 -7 15 -19 15 -26z m-240 19 c0 -14 -19 -38 -25 -32
-8 8 5 39 16 39 5 0 9 -3 9 -7z m349 -30 c9 -21 9 -30 -4 -49 -8 -13 -15 -34
-15 -46 -1 -13 -7 -34 -14 -48 -13 -23 -14 -21 -9 22 3 28 1 48 -6 52 -24 15
-2 109 24 100 7 -3 18 -17 24 -31z m-438 -5 c4 -14 4 -57 1 -94 -4 -59 -7 -65
-18 -49 -8 11 -14 33 -14 51 0 17 -7 37 -15 44 -18 15 -19 34 -4 61 14 27 41
20 50 -13z m149 -59 c0 -16 -4 -28 -9 -25 -8 5 -3 56 5 56 2 0 4 -14 4 -31z
m-7 -53 c9 -2 24 -20 32 -40 9 -20 17 -36 20 -36 3 0 11 16 19 35 8 19 22 38
31 41 8 3 23 22 32 41 16 35 17 36 33 15 11 -13 15 -32 12 -52 -4 -28 -8 -31
-36 -30 -17 1 -36 2 -42 1 -12 -1 -27 -33 -43 -91 -6 -25 -9 -28 -10 -13 -1
13 -8 40 -17 62 -14 36 -20 41 -60 47 -41 6 -44 8 -44 38 0 18 6 38 13 45 10
10 15 6 27 -23 8 -19 23 -37 33 -40z m-212 -28 c7 -23 37 -72 66 -108 56 -69
68 -99 33 -80 -11 6 -26 23 -35 39 -8 16 -21 31 -29 34 -8 3 -17 19 -21 36 -4
17 -13 35 -21 39 -17 9 -32 82 -17 82 5 0 16 -19 24 -42z m428 -5 c-9 -57 -24
-99 -38 -108 -16 -9 -14 0 9 47 11 23 20 54 20 68 0 22 7 40 15 40 1 0 -1 -21
-6 -47z m131 26 c0 -19 -60 -139 -70 -139 -5 0 -15 -12 -22 -27 -14 -29 -43
-51 -54 -40 -6 6 28 58 68 101 10 11 27 43 39 72 20 46 39 63 39 33z m-426
-97 c21 -40 15 -54 -9 -19 -8 13 -18 49 -20 78 -4 47 -3 48 4 14 4 -22 15 -55
25 -73z m66 -31 c-1 -10 -6 -7 -15 9 -19 33 -18 50 0 26 8 -11 15 -27 15 -35z
m150 19 c-6 -12 -14 -20 -17 -17 -2 3 1 14 8 26 7 11 15 18 17 16 2 -2 -2 -13
-8 -25z m200 -104 c0 -19 -4 -38 -10 -41 -6 -4 -10 10 -10 34 0 23 5 41 10 41
6 0 10 -15 10 -34z m-540 -1 c0 -8 -4 -17 -10 -20 -6 -4 -10 5 -10 20 0 15 4
24 10 20 6 -3 10 -12 10 -20z m321 -18 c-8 -8 -11 -7 -11 4 0 9 3 19 7 23 4 4
9 2 11 -4 3 -7 -1 -17 -7 -23z m-121 8 c0 -9 -6 -12 -15 -9 -8 4 -12 10 -9 15
8 14 24 10 24 -6z m246 -153 c-12 -41 -27 -49 -91 -53 -45 -3 -50 -1 -53 19
-3 16 4 25 22 32 20 7 26 17 26 39 0 20 -6 31 -17 34 -10 3 -3 5 15 6 l32 1 0
-55 c0 -30 4 -55 8 -55 5 0 19 10 31 21 20 19 22 28 17 69 -3 25 -3 50 1 54
13 13 19 -76 9 -112z m-369 64 c-5 -36 -2 -50 15 -71 27 -35 43 -19 39 39 -2
40 0 44 24 48 14 3 28 1 31 -3 3 -5 -2 -9 -10 -9 -11 0 -16 -10 -16 -30 0 -23
6 -33 25 -40 18 -7 25 -17 25 -36 0 -21 -3 -25 -17 -19 -10 4 -38 8 -63 9 -37
1 -47 5 -57 26 -16 31 -17 130 -2 130 7 0 9 -15 6 -44z m-197 -110 c-1 -21 -1
-21 -15 -2 -21 27 -20 53 0 36 8 -7 15 -22 15 -34z m164 9 c3 -8 1 -15 -4 -15
-6 0 -10 7 -10 15 0 8 2 15 4 15 2 0 6 -7 10 -15z m575 -47 c-7 -13 -14 -18
-16 -11 -3 7 1 22 8 35 7 13 14 18 16 11 3 -7 -1 -22 -8 -35z m-825 -72 c-32
-42 -46 -39 -23 5 14 29 24 38 31 31 7 -7 4 -18 -8 -36z m802 -27 c-6 -58 -5
-59 104 -290 60 -128 108 -234 106 -236 -11 -12 -259 345 -249 359 3 6 7 53 9
104 2 101 10 138 26 128 7 -4 8 -28 4 -65z m147 12 c45 -60 47 -68 5 -39 -57
41 -68 52 -68 70 0 31 24 19 63 -31z m-813 -14 c0 -40 -8 -70 -31 -118 -128
-258 -214 -428 -216 -425 -4 3 13 68 67 261 54 195 49 183 81 190 43 10 57 29
64 90 5 37 12 55 21 55 10 0 14 -15 14 -53z m311 -74 c10 -27 11 -27 25 -9 17
24 18 16 2 -19 -16 -35 -24 -32 -36 15 -11 46 -6 53 9 13z m-264 -45 c-3 -8
-6 -5 -6 6 -1 11 2 17 5 13 3 -3 4 -12 1 -19z m73 15 c-1 -19 -113 -413 -117
-409 -4 3 35 264 42 284 3 8 8 37 11 65 8 64 9 67 40 67 13 0 24 -3 24 -7z
m420 -8 c0 -12 76 -299 109 -414 16 -53 1 -29 -36 61 -119 283 -114 270 -108
321 5 31 12 47 21 47 8 0 14 -7 14 -15z m-222 -437 l-3 -133 -23 217 -22 217
22 47 23 46 3 -131 c1 -72 1 -191 0 -263z m-49 323 c-7 -19 -5 -74 5 -181 9
-85 14 -155 13 -157 -2 -1 -16 67 -31 152 l-27 156 21 29 c27 38 32 38 19 1z"/>
<path d="M1383 2765 c0 -22 2 -30 4 -17 2 12 2 30 0 40 -3 9 -5 -1 -4 -23z"/>
<path d="M1052 2770 c0 -14 2 -19 5 -12 2 6 2 18 0 25 -3 6 -5 1 -5 -13z"/>
<path d="M1043 2650 c0 -25 2 -35 4 -22 2 12 2 32 0 45 -2 12 -4 2 -4 -23z"/>
<path d="M1373 2640 c0 -25 2 -35 4 -22 2 12 2 32 0 45 -2 12 -4 2 -4 -23z"/>
<path d="M1363 2480 c0 -36 2 -50 4 -32 2 17 2 47 0 65 -2 17 -4 3 -4 -33z"/>
</g>
</svg>
