<?xml version="1.0" standalone="no"?>
<!DOCTYPE svg PUBLIC "-//W3C//DTD SVG 20010904//EN"
 "http://www.w3.org/TR/2001/REC-SVG-20010904/DTD/svg10.dtd">
<svg version="1.0" xmlns="http://www.w3.org/2000/svg"
 width="244.000000pt" height="305.000000pt" viewBox="0 0 244.000000 305.000000"
 preserveAspectRatio="xMidYMid meet">
<metadata>
Created by potrace 1.16, written by Peter Selinger 2001-2019
</metadata>
<g transform="translate(0.000000,305.000000) scale(0.100000,-0.100000)"
fill="#000000" stroke="none">
<path d="M885 2887 c-4 -14 -2 -34 4 -45 10 -20 6 -930 -4 -941 -3 -2 -15 5
-28 16 -12 11 -31 23 -41 27 -18 6 -19 16 -13 194 7 196 25 389 52 556 20 123
13 138 -9 19 -36 -196 -47 -309 -52 -543 l-6 -245 56 -37 c54 -36 55 -36 72
-17 10 11 33 27 51 36 l33 15 0 112 c0 153 -18 420 -36 546 -15 104 -60 319
-69 328 -2 2 -7 -7 -10 -21z"/>
<path d="M1567 2896 c-4 -9 -2 -26 3 -36 13 -24 14 -960 1 -960 -5 0 -28 12
-51 28 l-43 27 7 180 c8 216 21 358 47 524 11 68 18 126 15 128 -5 5 -11 -21
-31 -142 -26 -154 -36 -272 -42 -502 l-6 -222 28 -11 c16 -6 39 -22 52 -36
l24 -26 34 30 c18 17 43 33 54 37 20 6 21 14 21 128 -1 291 -43 655 -98 842
-7 24 -9 26 -15 11z"/>
<path d="M1551 2824 c0 -11 3 -14 6 -6 3 7 2 16 -1 19 -3 4 -6 -2 -5 -13z"/>
<path d="M1241 2632 c0 -19 -5 -31 -11 -27 -6 3 -10 -5 -10 -19 0 -14 -7 -51
-15 -83 -32 -120 -53 -326 -56 -537 -1 -105 -13 -147 -23 -84 -3 18 -12 72
-20 121 -24 142 -36 140 -57 -12 l-12 -94 36 -30 c34 -27 37 -33 37 -83 0 -60
-16 -77 -52 -55 -23 14 -37 7 -33 -17 2 -9 4 -20 4 -24 2 -13 32 -38 47 -38 8
0 24 11 36 25 28 32 42 32 34 -1 -8 -29 1 -67 13 -59 10 5 45 -33 55 -58 12
-35 -4 -35 -37 -2 -28 28 -38 32 -63 27 -16 -4 -38 -13 -49 -19 -17 -11 -18
-14 -5 -23 8 -5 25 -10 37 -10 35 0 60 -36 72 -104 18 -104 16 -122 -20 -135
-25 -9 -30 -15 -27 -38 2 -21 9 -29 28 -31 14 -2 29 -8 34 -12 13 -13 -21 -60
-43 -60 -24 0 -43 -23 -36 -43 4 -8 23 -17 44 -21 35 -5 39 -9 45 -45 3 -22 3
-47 -1 -57 -4 -11 -3 -15 4 -11 13 8 23 -26 13 -43 -8 -13 -40 47 -40 77 0 45
-12 63 -41 63 -34 0 -42 11 -42 61 l0 39 -46 0 c-25 0 -55 -7 -65 -15 -28 -21
-50 -19 -86 11 -41 35 -60 74 -59 121 1 53 -12 135 -24 151 -10 13 -55 16 -73
4 -23 -15 -36 -54 -29 -89 3 -20 25 -65 47 -102 91 -146 111 -190 104 -231 -3
-22 -43 -102 -94 -187 -48 -81 -112 -190 -142 -240 -30 -51 -57 -93 -61 -93
-6 0 20 84 118 380 16 49 22 56 55 65 53 14 70 36 76 93 6 66 -9 106 -64 172
-86 103 -105 178 -59 240 14 19 25 40 25 48 0 25 -33 41 -82 42 -37 0 -50 -5
-62 -22 -21 -30 -20 -57 5 -130 24 -71 20 -115 -14 -152 -20 -22 -275 -175
-367 -220 -30 -15 -24 -7 35 51 39 37 105 99 148 137 77 68 77 68 123 61 l45
-6 -7 98 c-9 133 -26 157 -22 31 l4 -96 -37 1 c-34 2 -49 -10 -223 -167 -103
-92 -185 -170 -182 -173 3 -3 33 4 68 15 35 11 143 46 241 77 166 53 177 58
177 81 0 35 21 39 77 14 59 -26 91 -55 110 -99 14 -32 13 -36 -3 -48 -10 -7
-23 -13 -30 -13 -24 0 -42 -31 -69 -117 -51 -167 -134 -428 -140 -445 -18 -47
20 -9 284 282 131 144 128 138 105 218 -6 22 -5 22 88 22 82 0 100 -3 128 -22
56 -39 59 -52 21 -92 l-34 -35 33 -158 c18 -87 47 -232 66 -322 29 -140 44
-198 44 -167 0 4 21 108 46 229 25 122 54 267 65 321 l19 99 -30 30 c-33 32
-36 44 -17 68 26 34 74 49 160 49 89 0 102 -6 86 -45 -14 -36 -9 -60 19 -91
15 -16 83 -93 152 -169 69 -77 149 -164 177 -195 l53 -55 -14 45 c-62 206
-161 509 -171 526 -8 12 -28 24 -46 28 -29 6 -31 8 -25 37 12 62 92 127 163
132 23 2 28 -2 31 -24 3 -24 13 -30 125 -67 222 -73 358 -114 362 -110 4 3
-210 200 -352 325 -21 18 -35 22 -59 18 l-31 -5 5 96 c4 71 2 95 -7 90 -6 -4
-11 -24 -11 -44 -1 -20 -5 -57 -11 -82 -25 -118 -43 -93 157 -214 232 -140
226 -137 221 -142 -2 -2 -53 13 -113 35 -60 22 -144 52 -186 67 -78 27 -90 39
-69 73 7 10 -1 23 -25 46 -29 28 -34 39 -34 78 0 25 9 74 20 109 25 80 25 93
-1 119 -18 18 -30 21 -72 16 -73 -7 -84 -26 -46 -85 21 -33 28 -55 24 -74 -3
-16 -8 -42 -11 -59 -3 -16 -28 -57 -56 -90 -58 -70 -87 -130 -95 -197 -6 -55
9 -89 132 -302 103 -178 127 -222 122 -227 -3 -2 -71 73 -153 167 -109 125
-148 177 -146 193 3 20 7 87 10 177 2 25 25 74 76 160 86 144 98 183 66 223
-16 20 -30 27 -56 27 -29 0 -34 -4 -39 -27 -3 -16 -10 -47 -15 -69 -5 -23 -7
-56 -4 -75 5 -27 0 -42 -26 -77 -40 -55 -74 -69 -118 -48 -18 9 -51 16 -72 16
-40 0 -40 0 -40 -39 0 -40 -11 -56 -45 -63 -19 -3 -28 -22 -39 -78 -3 -14 -12
-34 -20 -45 -15 -19 -15 -19 -16 10 0 23 3 26 10 15 7 -11 10 1 10 42 0 60 5
68 47 73 53 6 48 58 -7 70 -26 6 -31 11 -28 33 2 18 10 28 28 32 20 5 25 12
25 35 0 23 -5 30 -25 35 -31 7 -35 30 -20 120 13 76 40 120 73 120 12 0 28 4
36 9 25 16 -6 41 -48 41 -28 0 -45 -8 -69 -31 -27 -27 -33 -29 -38 -14 -9 22
16 65 43 76 19 7 23 16 23 49 0 46 11 51 34 14 24 -35 56 -29 78 16 21 41 11
56 -26 39 -37 -17 -51 0 -51 62 0 36 5 53 16 59 9 5 26 18 39 28 l23 19 -15
102 c-24 155 -31 152 -61 -23 -12 -74 -24 -121 -29 -114 -4 7 -8 61 -8 119 0
132 -25 388 -47 477 -9 37 -19 99 -23 137 -4 39 -8 55 -9 37z m-4 -408 c-2
-148 -7 -282 -11 -299 -6 -22 -5 -26 3 -15 8 11 10 -27 10 -135 -1 -90 -4
-142 -9 -130 -8 18 -9 17 -9 -7 l-1 -27 -30 17 c-30 17 -30 18 -30 102 2 355
43 801 71 773 6 -6 8 -121 6 -279z m13 -730 c0 -26 -17 -33 -26 -9 -8 20 3 48
16 40 5 -3 10 -17 10 -31z m-8 -866 c-3 -288 -10 -380 -25 -296 -5 30 -25 125
-77 363 -19 90 -17 100 36 153 l33 33 4 -93 c3 -88 3 -86 5 30 1 90 5 122 15
122 9 0 11 -68 9 -312z"/>
<path d="M1223 1805 c0 -33 2 -45 4 -27 2 18 2 45 0 60 -2 15 -4 0 -4 -33z"/>
<path d="M1212 600 c0 -14 2 -19 5 -12 2 6 2 18 0 25 -3 6 -5 1 -5 -13z"/>
<path d="M755 1863 c-34 -8 -55 -34 -55 -69 0 -32 0 -32 40 -27 47 7 82 -12
105 -57 14 -28 14 -31 -5 -50 -42 -42 -14 -131 80 -252 l20 -26 -40 -47 c-46
-53 -50 -82 -17 -113 52 -49 119 -34 97 22 -13 35 -13 69 1 83 8 8 29 5 75
-10 49 -16 69 -19 82 -11 29 19 19 34 -39 58 -31 12 -70 32 -87 44 -60 43
-122 141 -122 192 0 33 14 23 33 -25 27 -65 140 -170 205 -190 18 -5 22 -2 22
14 0 12 -21 36 -57 63 -67 50 -123 128 -123 169 0 18 -7 32 -20 39 -28 15 -25
37 10 72 28 27 36 30 75 25 44 -4 45 -4 45 23 0 44 -30 72 -77 74 -49 1 -77
-20 -94 -72 l-12 -36 -17 35 c-30 58 -74 83 -125 72z"/>
<path d="M1428 1855 c-26 -14 -51 -69 -41 -88 2 -4 21 -4 42 -1 46 7 76 -7 96
-45 13 -26 13 -30 -5 -46 -11 -10 -20 -29 -20 -42 0 -47 -58 -125 -132 -179
-30 -21 -48 -42 -48 -54 0 -24 1 -24 46 -5 50 21 152 121 182 180 31 60 44 38
18 -30 -31 -81 -127 -161 -238 -198 -22 -8 -23 -21 -3 -37 13 -11 28 -9 85 7
94 28 101 19 75 -88 -6 -23 -3 -27 19 -33 31 -8 81 15 96 44 15 27 6 51 -36
101 -36 43 -36 44 6 99 47 61 70 116 70 169 0 34 -4 51 -15 55 -24 9 -17 36
20 73 30 30 40 34 77 31 40 -2 43 -1 46 23 8 71 -89 101 -147 45 -16 -15 -32
-39 -35 -53 -8 -30 -22 -23 -29 16 -11 52 -81 82 -129 56z"/>
</g>
</svg>
