<?xml version="1.0" standalone="no"?>
<!DOCTYPE svg PUBLIC "-//W3C//DTD SVG 20010904//EN"
 "http://www.w3.org/TR/2001/REC-SVG-20010904/DTD/svg10.dtd">
<svg version="1.0" xmlns="http://www.w3.org/2000/svg"
 width="244.000000pt" height="305.000000pt" viewBox="0 0 244.000000 305.000000"
 preserveAspectRatio="xMidYMid meet">
<metadata>
Created by potrace 1.16, written by Peter Selinger 2001-2019
</metadata>
<g transform="translate(0.000000,305.000000) scale(0.100000,-0.100000)"
fill="#000000" stroke="none">
<path d="M1401 2904 c0 -11 3 -14 6 -6 3 7 2 16 -1 19 -3 4 -6 -2 -5 -13z"/>
<path d="M907 2838 c-31 -135 -57 -329 -67 -497 -13 -216 -13 -421 0 -421 5 0
25 -13 43 -30 42 -36 47 -37 76 -6 30 31 56 38 74 17 26 -30 28 -39 7 -34 -37
10 -77 -16 -95 -59 -17 -45 -19 -44 -43 4 -39 76 -145 72 -154 -7 -3 -29 -1
-30 43 -35 35 -4 53 -13 72 -35 30 -34 35 -70 11 -79 -21 -8 -15 -84 10 -137
27 -57 49 -226 27 -204 -6 6 -11 30 -14 55 -3 42 -4 41 -5 -12 -2 -70 -19 -76
-27 -10 -10 80 -18 97 -47 100 -37 4 -68 -29 -68 -72 0 -18 14 -61 32 -95 17
-33 28 -64 24 -68 -12 -12 -64 57 -81 106 -20 60 -19 79 10 130 14 23 25 48
25 53 0 37 -104 52 -133 20 -22 -24 -21 -42 3 -125 30 -106 17 -146 -63 -205
-99 -73 -307 -197 -307 -184 0 4 59 65 132 135 131 127 133 128 170 122 l38
-7 0 39 c0 75 -13 173 -23 173 -6 0 -8 -32 -4 -91 l7 -91 -30 7 c-27 6 -40 -5
-212 -175 -101 -100 -174 -179 -163 -177 11 3 85 29 165 57 80 28 174 62 210
74 53 19 66 27 68 47 2 13 7 28 12 32 11 12 99 -28 106 -47 3 -9 -8 -43 -26
-77 -17 -33 -30 -63 -27 -65 2 -2 25 10 51 26 53 34 69 37 64 13 -2 -10 -17
-21 -34 -26 -29 -8 -33 -16 -58 -100 -14 -51 -42 -146 -62 -212 -50 -172 -75
-267 -71 -271 2 -2 51 53 108 122 57 70 120 146 139 169 19 23 53 65 75 93 22
28 43 51 46 52 4 0 2 -21 -3 -47 -5 -27 -17 -109 -28 -183 -11 -74 -22 -148
-25 -165 -6 -36 8 -9 119 239 71 158 76 173 70 218 -4 26 -4 48 0 48 14 0 85
-52 90 -67 4 -9 -6 -29 -24 -49 -22 -26 -28 -41 -25 -62 43 -234 116 -617 120
-620 3 -3 5 1 5 9 0 8 16 95 35 194 20 99 44 232 56 295 11 63 22 123 25 132
3 9 -8 31 -26 51 -16 19 -30 39 -30 44 0 15 53 60 79 68 23 7 24 6 19 -45 -6
-55 9 -98 106 -305 18 -38 45 -100 61 -137 16 -37 30 -66 32 -65 2 3 -40 281
-57 376 -6 30 -8 56 -6 58 2 3 44 -44 93 -103 48 -59 106 -129 128 -155 22
-25 60 -70 84 -98 24 -29 45 -51 47 -48 2 2 -15 66 -37 143 -22 76 -44 153
-49 169 -25 98 -63 221 -71 237 -5 10 -16 18 -24 18 -20 0 -48 31 -37 42 6 6
34 -8 75 -36 35 -25 68 -46 71 -46 4 0 -14 38 -40 85 -51 95 -50 105 12 125
40 14 54 7 54 -25 0 -18 7 -26 28 -31 15 -4 99 -34 186 -66 155 -56 232 -82
225 -73 -2 2 -80 81 -174 175 -157 158 -172 171 -199 166 l-29 -6 7 73 c10
108 -5 131 -21 32 -7 -44 -15 -96 -18 -115 l-6 -35 176 -118 c97 -66 174 -121
172 -124 -3 -2 -58 17 -123 42 -66 26 -139 53 -162 62 -42 15 -44 17 -37 49 5
29 2 38 -21 57 -37 32 -42 93 -15 183 26 88 26 99 1 124 -27 27 -83 27 -110 0
l-21 -21 26 -43 c39 -67 32 -134 -22 -204 -37 -49 -49 -26 -18 35 31 62 33
115 5 143 -37 37 -74 22 -83 -35 -3 -23 -4 -19 -6 15 -1 33 -4 41 -11 30 -13
-21 -13 -177 1 -182 12 -4 1 -38 -12 -38 -5 0 -9 17 -10 38 0 20 -4 45 -8 56
-9 24 13 195 29 225 15 30 17 114 2 119 -24 8 -12 53 21 83 25 23 40 29 67 27
29 -2 36 1 38 18 2 11 -7 32 -18 47 -38 49 -113 31 -140 -33 -7 -16 -15 -30
-19 -30 -3 0 -14 18 -23 40 -22 54 -57 69 -103 47 -30 -14 -35 -14 -35 -2 0 9
6 12 15 9 9 -4 19 3 26 20 16 34 43 33 86 -4 l35 -31 31 31 c17 16 36 30 43
30 7 0 15 9 19 20 9 29 -13 503 -30 631 -18 137 -56 341 -62 335 -2 -2 -4
-227 -3 -500 0 -273 -2 -496 -5 -496 -4 0 -22 12 -41 26 l-34 26 0 123 c0 156
16 399 35 533 16 110 18 138 10 130 -8 -8 -45 -290 -47 -357 l-2 -56 -6 70
c-4 42 -7 -35 -8 -191 -2 -219 -4 -264 -17 -274 -8 -7 -16 -11 -17 -9 -1 2 -4
218 -7 479 -6 467 -6 473 -19 340 -20 -216 -21 -224 -27 -460 -3 -124 -9 -259
-12 -300 l-6 -75 -18 165 c-32 301 -39 354 -61 445 l-21 90 -12 -36 c-22 -61
-53 -267 -72 -474 -21 -234 -29 -215 -34 80 -3 173 -3 175 -6 48 -3 -108 -6
-131 -17 -127 -9 4 -16 -3 -19 -18 -3 -13 -4 158 -3 380 0 221 -2 402 -6 402
-12 0 -38 -304 -38 -452 0 -53 -4 -99 -8 -102 -5 -3 -12 46 -15 108 -7 119
-49 394 -71 459 l-12 37 -17 -72z m18 -926 c-4 -10 -16 -5 -45 18 l-40 32 0
91 c0 220 38 612 73 761 10 42 12 -28 15 -419 1 -258 0 -476 -3 -483z m274
243 c-11 -303 -12 -317 -18 -205 -8 123 11 453 24 438 2 -2 -1 -106 -6 -233z
m-99 -305 c0 -5 -4 -10 -10 -10 -5 0 -10 5 -10 10 0 6 5 10 10 10 6 0 10 -4
10 -10z m77 -92 c-2 -13 -4 -3 -4 22 0 25 2 35 4 23 2 -13 2 -33 0 -45z m197
-29 c-8 -14 -21 -10 -28 7 -10 25 5 40 20 19 7 -10 11 -22 8 -26z m-339 9 c8
-31 9 -61 6 -138 l-2 -65 -19 23 c-10 13 -22 43 -25 67 -4 24 -13 46 -21 49
-21 8 -17 36 8 63 27 29 46 29 53 1z m76 -11 c-8 -8 -11 -7 -11 4 0 20 13 34
18 19 3 -7 -1 -17 -7 -23z m382 4 c16 -28 14 -61 -4 -61 -5 0 -9 -9 -9 -20 0
-26 -30 -100 -41 -100 -4 0 -8 21 -8 48 0 26 -1 61 -2 77 -6 80 31 112 64 56z
m-307 -99 c-12 -11 -17 7 -9 34 l8 29 3 -28 c2 -16 1 -31 -2 -35z m-39 17 c3
-19 14 -34 28 -39 12 -5 30 -24 39 -44 9 -20 19 -36 21 -36 3 0 11 16 19 35 9
20 26 39 39 44 16 6 26 20 31 43 l7 33 19 -24 c11 -13 20 -29 20 -36 0 -24
-31 -45 -66 -45 -19 0 -34 -1 -34 -2 0 -2 -9 -27 -19 -57 l-18 -55 -11 45
c-16 61 -22 67 -67 71 -33 2 -41 7 -43 27 -5 31 6 71 18 71 6 0 13 -14 17 -31z
m-190 -105 c-14 -14 -37 20 -36 55 l0 36 21 -42 c12 -24 19 -46 15 -49z m120
39 c-3 -10 -5 -4 -5 12 0 17 2 24 5 18 2 -7 2 -21 0 -30z m324 0 c-10 -17 -10
-16 -11 3 0 23 13 41 18 25 2 -6 -1 -18 -7 -28z m149 23 c0 -26 -18 -63 -34
-69 -16 -6 -15 -2 6 56 11 29 28 37 28 13z m-439 -116 c21 -46 7 -55 -16 -10
-15 29 -21 69 -8 57 3 -4 14 -25 24 -47z m263 -12 c-9 -18 -19 -28 -21 -21 -2
6 4 27 13 45 9 18 19 28 21 21 2 -6 -4 -27 -13 -45z m114 -3 c-6 -13 -15 -22
-19 -19 -5 3 -18 -10 -29 -30 -22 -36 -45 -52 -55 -36 -8 12 94 122 106 114 4
-2 3 -16 -3 -29z m-444 -25 c25 -27 46 -54 46 -60 0 -23 -32 -8 -51 24 -11 19
-29 36 -39 39 -20 5 -29 47 -11 47 4 0 29 -22 55 -50z m473 -77 c-3 -10 -5 -4
-5 12 0 17 2 24 5 18 2 -7 2 -21 0 -30z m-340 12 c9 -25 -4 -29 -17 -6 -7 15
-7 21 0 21 6 0 13 -7 17 -15z m124 -18 c-8 -8 -11 -7 -11 4 0 9 3 19 7 23 4 4
9 2 11 -4 3 -7 -1 -17 -7 -23z m126 -148 c-8 -32 -15 -40 -41 -47 -34 -9 -93
-9 -102 1 -12 12 8 46 29 49 31 4 37 57 8 65 -34 9 -24 21 12 14 32 -7 32 -7
29 -59 -3 -41 -1 -52 11 -52 25 0 42 31 43 82 2 65 5 70 14 24 4 -21 3 -56 -3
-77z m-369 55 c0 -35 5 -51 21 -67 18 -19 23 -20 31 -7 5 8 6 34 3 57 -3 24
-2 43 3 43 5 0 19 3 32 6 12 4 22 2 22 -4 0 -5 -9 -12 -21 -15 -31 -8 -23 -59
11 -67 18 -4 25 -13 25 -30 0 -22 -4 -24 -53 -23 -35 0 -59 6 -70 16 -19 19
-31 137 -14 137 7 0 11 -19 10 -46z m602 -71 c-1 -20 -28 -55 -34 -45 -8 13
10 52 24 52 6 0 10 -3 10 -7z m-198 -25 c-7 -7 -12 -8 -12 -2 0 14 12 26 19
19 2 -3 -1 -11 -7 -17z m-592 -66 c0 -26 -25 -5 -28 24 -2 28 -2 28 13 10 8
-11 15 -26 15 -34z m874 -58 c34 -61 33 -65 -9 -24 -19 19 -35 42 -35 52 0 31
17 20 44 -28z m-144 -23 c0 -55 7 -73 119 -296 66 -130 111 -229 101 -220 -10
9 -58 68 -106 132 -49 64 -104 133 -121 153 l-33 37 6 94 c7 121 13 159 24
159 6 0 10 -27 10 -59z m-710 4 c0 -36 -15 -72 -84 -202 -46 -87 -105 -200
-132 -252 -27 -52 -50 -88 -51 -80 -2 8 25 108 60 223 l62 209 45 16 c46 17
47 20 65 104 9 46 35 34 35 -18z m-105 15 c-10 -16 -69 -55 -60 -39 16 28 48
58 57 53 4 -3 6 -9 3 -14z m455 -110 c6 0 10 8 11 18 0 9 3 12 5 5 7 -16 -16
-57 -26 -47 -4 5 -11 20 -14 34 -6 21 -5 22 4 8 6 -10 15 -18 20 -18z m260
-24 c9 -26 72 -407 67 -412 -4 -4 -117 378 -124 417 -4 24 -2 26 22 21 15 -2
30 -14 35 -26z m-541 7 c-2 -32 -15 -68 -21 -58 -6 10 -11 52 -9 68 2 16 31 6
30 -10z m95 -5 c3 -13 6 -34 6 -47 0 -21 -139 -365 -146 -359 -2 3 97 373 111
416 7 19 22 14 29 -10z m485 5 c0 -10 -4 -27 -9 -38 -7 -16 -9 -13 -9 18 -1
20 4 37 9 37 6 0 10 -8 9 -17z m-355 -96 c-15 -31 -15 -46 0 -183 26 -238 17
-233 -28 18 l-23 127 29 36 c37 44 42 44 22 2z"/>
<path d="M1412 2800 c0 -14 2 -19 5 -12 2 6 2 18 0 25 -3 6 -5 1 -5 -13z"/>
<path d="M1512 2775 c0 -16 2 -22 5 -12 2 9 2 23 0 30 -3 6 -5 -1 -5 -18z"/>
<path d="M1083 2745 c0 -22 2 -30 4 -17 2 12 2 30 0 40 -3 9 -5 -1 -4 -23z"/>
<path d="M1423 2695 c0 -22 2 -30 4 -17 2 12 2 30 0 40 -3 9 -5 -1 -4 -23z"/>
<path d="M1093 2640 c0 -25 2 -35 4 -22 2 12 2 32 0 45 -2 12 -4 2 -4 -23z"/>
<path d="M1433 2545 c0 -27 2 -38 4 -22 2 15 2 37 0 50 -2 12 -4 0 -4 -28z"/>
<path d="M1103 2490 c0 -41 2 -58 4 -37 2 20 2 54 0 75 -2 20 -4 3 -4 -38z"/>
</g>
</svg>
