<?xml version="1.0" standalone="no"?>
<!DOCTYPE svg PUBLIC "-//W3C//DTD SVG 20010904//EN"
 "http://www.w3.org/TR/2001/REC-SVG-20010904/DTD/svg10.dtd">
<svg version="1.0" xmlns="http://www.w3.org/2000/svg"
 width="244.000000pt" height="305.000000pt" viewBox="0 0 244.000000 305.000000"
 preserveAspectRatio="xMidYMid meet">
<metadata>
Created by potrace 1.16, written by Peter Selinger 2001-2019
</metadata>
<g transform="translate(0.000000,305.000000) scale(0.100000,-0.100000)"
fill="#000000" stroke="none">
<path d="M910 2896 c0 -7 -2 -29 -5 -47 -4 -26 -3 -30 4 -14 6 13 10 -148 10
-458 l1 -477 -40 26 -40 27 0 151 c0 178 12 334 41 544 12 84 19 155 17 158
-8 7 -48 -269 -58 -396 -5 -69 -12 -207 -15 -307 l-6 -182 33 -14 c18 -8 39
-21 47 -30 17 -22 26 -21 53 2 13 11 34 28 47 39 l24 19 -11 274 c-11 267 -31
445 -68 619 -10 44 -21 80 -26 80 -4 0 -8 -6 -8 -14z"/>
<path d="M1353 2875 c0 -22 2 -30 4 -17 2 12 2 30 0 40 -3 9 -5 -1 -4 -23z"/>
<path d="M1112 2880 c0 -14 2 -19 5 -12 2 6 2 18 0 25 -3 6 -5 1 -5 -13z"/>
<path d="M1538 2884 c-3 -12 -2 -28 3 -35 10 -16 12 -949 2 -949 -4 0 -24 12
-45 26 l-38 27 0 91 c0 152 19 422 41 580 21 154 21 210 0 84 -27 -163 -41
-325 -47 -548 l-7 -235 49 -34 c38 -27 51 -31 63 -22 9 6 31 21 50 33 l34 22
-6 221 c-8 251 -19 376 -49 555 -26 156 -42 214 -50 184z"/>
<path d="M1349 2810 c-1 -14 0 -29 1 -35 4 -18 0 -828 -4 -833 -15 -15 -24 21
-30 115 -13 213 -40 400 -74 518 -8 26 -10 27 -15 10 -27 -88 -61 -323 -69
-480 -2 -27 -7 92 -12 265 -13 483 -23 505 -25 60 -3 -343 -5 -390 -16 -355
-8 22 -15 97 -16 170 l-3 130 -7 -160 c-3 -88 -10 -197 -14 -243 -7 -75 -6
-84 11 -98 18 -14 16 -15 -23 -10 -60 9 -91 -7 -113 -56 l-19 -43 -16 38 c-36
88 -165 80 -165 -10 0 -20 5 -23 44 -23 38 0 48 -5 75 -35 34 -39 39 -62 16
-71 -39 -15 -4 -154 60 -238 14 -18 25 -37 25 -42 0 -5 -13 -25 -29 -45 -39
-47 -47 -82 -27 -111 9 -12 16 -28 16 -35 0 -24 -18 -13 -40 22 -16 26 -20 45
-17 68 4 18 1 61 -6 97 -12 62 -13 65 -43 68 -42 4 -67 -25 -66 -79 1 -31 16
-69 65 -157 70 -127 82 -159 66 -182 -8 -11 -9 -9 -5 10 4 16 -2 10 -14 -15
l-20 -40 5 43 c8 61 -9 111 -59 180 -25 33 -51 74 -60 90 -23 44 -21 123 4
155 40 50 17 87 -52 87 -72 0 -89 -49 -54 -149 31 -85 13 -146 -57 -195 -74
-52 -318 -198 -323 -193 -3 2 57 64 133 136 133 128 139 132 172 126 22 -4 37
-2 41 6 8 11 7 23 -6 144 -9 86 -23 41 -16 -54 l5 -73 -30 6 c-29 7 -40 -2
-212 -170 -100 -97 -180 -178 -178 -180 5 -5 439 146 454 158 6 5 13 19 15 31
9 62 162 -39 170 -113 2 -19 -4 -28 -34 -42 -32 -15 -39 -25 -53 -75 -8 -32
-45 -159 -81 -282 -36 -123 -63 -225 -61 -228 3 -2 67 71 143 163 77 91 161
192 187 223 41 48 47 60 41 86 -15 68 -14 70 45 73 37 2 57 -1 62 -10 7 -10 9
-10 9 0 0 6 9 12 20 12 11 0 20 -3 20 -7 0 -5 -18 -91 -39 -193 -24 -115 -40
-175 -43 -160 -3 14 -4 3 -1 -25 2 -36 1 -46 -7 -35 -7 11 -10 2 -9 -35 1 -46
5 -38 55 118 30 92 59 165 63 162 5 -2 12 -26 16 -52 3 -27 26 -149 50 -273
24 -124 47 -243 51 -265 7 -39 8 -38 25 50 28 138 47 237 74 390 14 77 26 147
28 155 5 21 19 -14 63 -154 26 -85 39 -114 46 -105 7 10 8 6 4 -12 -3 -15 1
-44 8 -65 20 -54 19 -42 -13 246 -16 140 -28 257 -25 261 4 7 104 3 111 -4 2
-3 -2 -25 -8 -49 -12 -42 -11 -47 12 -76 106 -131 334 -402 340 -402 8 0 2 23
-81 309 -78 271 -73 258 -109 266 -22 5 -31 12 -31 26 0 45 55 112 109 135 48
20 58 18 64 -14 4 -21 14 -31 39 -39 18 -6 105 -37 193 -68 242 -86 228 -85
149 -3 -38 39 -116 118 -174 175 -92 91 -108 103 -132 99 l-28 -5 -1 97 c-1
110 -4 110 -20 -3 -6 -44 -13 -93 -15 -110 -4 -27 0 -34 47 -65 355 -238 355
-238 111 -142 l-143 57 6 32 c5 28 1 37 -20 56 -39 33 -43 89 -15 193 l23 85
-23 24 c-26 27 -63 32 -105 13 -31 -14 -31 -30 -4 -75 17 -27 20 -46 17 -93
-4 -50 -11 -68 -46 -117 -40 -54 -68 -105 -89 -163 l-10 -25 -5 28 c-4 20 9
52 54 131 69 124 82 182 49 215 -14 14 -32 21 -49 19 -24 -3 -28 -9 -42 -74
-11 -45 -13 -79 -8 -94 6 -16 3 -32 -10 -54 -18 -31 -41 -35 -33 -6 12 46 4
90 -23 125 -31 41 -32 38 22 125 52 82 68 165 37 190 -23 19 -18 39 20 77 31
31 40 35 70 30 28 -5 35 -2 40 14 8 26 -19 67 -51 80 -37 13 -88 -14 -109 -57
-9 -19 -18 -34 -20 -34 -3 0 -11 15 -19 34 -17 40 -60 66 -96 59 -24 -4 -25
-3 -26 59 -2 107 -22 621 -30 750 -7 120 -20 196 -25 138z m-120 -793 c1 -263
-2 -396 -9 -392 -6 4 -10 70 -11 163 -1 86 -4 146 -8 132 -4 -15 -10 36 -14
125 -6 111 -3 181 8 270 8 66 15 127 16 135 1 8 5 4 9 -10 4 -14 8 -204 9
-423z m98 -139 c-3 -7 -5 -2 -5 12 0 14 2 19 5 13 2 -7 2 -19 0 -25z m-180 0
c-3 -8 -6 -5 -6 6 -1 11 2 17 5 13 3 -3 4 -12 1 -19z m43 -83 c0 -35 -4 -66
-8 -69 -4 -2 -8 28 -7 69 0 40 3 71 8 68 4 -2 7 -33 7 -68z m-71 12 c-1 -31
-1 -31 -9 -7 -11 36 -11 52 0 45 6 -3 10 -21 9 -38z m242 2 l-9 -34 -1 31 c-1
17 2 34 6 37 12 13 14 -1 4 -34z m-297 -49 c14 -5 26 -17 26 -25 0 -12 -4 -14
-19 -5 -28 14 -31 13 -31 -15 0 -14 11 -37 25 -51 29 -29 33 -78 8 -106 -15
-17 -15 -18 1 -18 17 0 36 -37 36 -68 -1 -11 -16 0 -46 33 -45 51 -74 103 -74
135 0 10 -7 23 -15 30 -21 18 -19 44 8 74 24 28 42 31 81 16z m420 -21 c30
-35 32 -51 11 -69 -8 -7 -15 -21 -15 -32 0 -33 -27 -82 -75 -133 l-46 -50 5
34 c3 19 13 39 22 46 13 9 14 16 5 33 -16 30 -14 92 3 92 16 0 41 54 31 69 -4
8 -12 8 -26 1 -25 -14 -27 14 -1 29 31 18 60 12 86 -20z m-308 -129 c31 -12
31 -30 0 -30 -29 0 -37 17 -34 78 l1 47 4 -43 c3 -35 9 -45 29 -52z m154 42
c0 -56 -17 -86 -43 -76 -24 9 -21 23 8 34 21 8 25 16 25 50 0 22 2 40 5 40 3
0 5 -22 5 -48z m-130 8 c0 -20 -5 -30 -15 -30 -8 0 -15 5 -15 10 0 6 5 10 10
10 6 0 10 9 10 20 0 11 2 20 5 20 3 0 5 -13 5 -30z m-209 -158 c5 -2 9 -15 9
-28 0 -33 -15 -23 -51 34 -19 29 -29 59 -29 81 l1 36 31 -60 c17 -33 34 -61
39 -63z m366 96 c-3 -8 -6 -5 -6 6 -1 11 2 17 5 13 3 -3 4 -12 1 -19z m193 0
c0 -33 -48 -131 -60 -123 -15 9 -12 41 5 55 8 7 20 30 27 51 12 43 28 52 28
17z m-310 -103 c-6 -30 -8 -33 -9 -13 -1 25 8 62 14 56 2 -2 -1 -21 -5 -43z
m-81 -37 c28 -81 26 -95 -4 -33 -21 44 -33 95 -21 95 2 0 14 -28 25 -62z m175
15 c-9 -21 -20 -49 -25 -62 -19 -48 -18 -13 1 40 11 29 20 55 20 56 0 2 5 3
10 3 6 0 3 -16 -6 -37z m-287 -65 c-3 -7 -5 -2 -5 12 0 14 2 19 5 13 2 -7 2
-19 0 -25z m380 0 c-3 -7 -5 -2 -5 12 0 14 2 19 5 13 2 -7 2 -19 0 -25z m-58
-34 c-8 -10 -15 -12 -23 -4 -7 7 -4 14 10 24 22 17 32 3 13 -20z m-255 20 c9
-3 16 -13 16 -21 0 -10 -6 -13 -16 -9 -9 3 -18 6 -20 6 -2 0 -4 7 -4 15 0 17
2 18 24 9z m-107 -116 c-2 -13 -4 -5 -4 17 -1 22 1 32 4 23 2 -10 2 -28 0 -40z
m460 0 c-2 -13 -4 -5 -4 17 -1 22 1 32 4 23 2 -10 2 -28 0 -40z m-399 -26 c18
-80 13 -86 -9 -12 -21 72 -23 89 -11 75 5 -6 14 -34 20 -63z m103 45 c-13 -13
-26 -3 -16 12 3 6 11 8 17 5 6 -4 6 -10 -1 -17z m146 -3 c-9 -9 -28 6 -21 18
4 6 10 6 17 -1 6 -6 8 -13 4 -17z m94 -59 c-13 -38 -18 -47 -15 -25 9 58 27
116 31 100 2 -9 -5 -42 -16 -75z m-31 45 c0 -32 -21 -120 -31 -125 -13 -9 -69
24 -69 41 0 22 29 29 44 9 11 -16 13 -16 26 0 8 10 14 35 14 56 -1 22 2 39 7
39 5 0 9 -9 9 -20z m-256 -79 c8 -12 11 -11 22 4 15 20 44 14 44 -9 0 -21 -61
-50 -71 -34 -14 22 -29 109 -22 121 5 7 10 -5 13 -28 3 -22 10 -46 14 -54z
m-155 -32 c-13 -24 -39 -25 -39 -1 0 25 7 31 30 25 16 -4 18 -9 9 -24z m543
-21 c-16 -16 -37 4 -28 28 6 16 8 16 23 1 13 -13 15 -19 5 -29z m88 -131 c0
-5 -4 -5 -10 -2 -5 3 -10 14 -10 23 0 15 2 15 10 2 5 -8 10 -19 10 -23z m117
-266 c69 -133 123 -245 120 -247 -2 -2 -66 75 -141 171 l-138 176 8 42 c4 23
6 57 5 75 -1 22 2 33 10 30 6 -2 67 -113 136 -247z m-863 218 c4 6 11 11 16
11 11 0 2 -27 -20 -60 -10 -14 -41 -70 -70 -125 -96 -185 -163 -305 -167 -301
-5 5 118 418 128 432 5 6 27 17 49 24 22 7 40 18 40 24 0 6 4 5 9 -3 6 -9 11
-10 15 -2z m386 -45 c0 -8 -4 -12 -10 -9 -5 3 -10 13 -10 21 0 8 5 12 10 9 6
-3 10 -13 10 -21z m185 -198 c20 -103 35 -190 33 -192 -7 -7 -98 302 -98 332
0 16 3 40 7 53 10 38 18 11 58 -193z m-268 121 c-26 -39 -37 -32 -37 25 l1 53
25 -29 c22 -25 23 -30 11 -49z m193 11 l0 -51 -25 23 c-29 28 -31 37 -8 62 26
29 33 22 33 -34z m-129 3 c5 8 9 -87 9 -226 0 -132 -4 -245 -8 -252 -4 -6 -7
23 -6 65 2 75 2 75 -5 17 -7 -69 -3 -82 -45 145 -14 74 -28 144 -31 156 -5 24
66 116 73 94 3 -9 6 -9 13 1z"/>
<path d="M1213 2280 c0 -41 2 -58 4 -37 2 20 2 54 0 75 -2 20 -4 3 -4 -38z"/>
<path d="M1196 825 c-3 -9 -5 -44 -4 -78 l1 -62 7 75 c6 81 6 90 -4 65z"/>
<path d="M1203 600 c0 -36 2 -50 4 -32 2 17 2 47 0 65 -2 17 -4 3 -4 -33z"/>
<path d="M1103 2735 c0 -22 2 -30 4 -17 2 12 2 30 0 40 -3 9 -5 -1 -4 -23z"/>
<path d="M1333 2640 c0 -30 2 -43 4 -27 2 15 2 39 0 55 -2 15 -4 2 -4 -28z"/>
<path d="M1093 2555 c0 -27 2 -38 4 -22 2 15 2 37 0 50 -2 12 -4 0 -4 -28z"/>
<path d="M1324 2415 c0 -55 1 -76 3 -47 2 29 2 74 0 100 -2 26 -3 2 -3 -53z"/>
<path d="M1033 850 c0 -30 2 -43 4 -27 2 15 2 39 0 55 -2 15 -4 2 -4 -28z"/>
<path d="M1022 760 c0 -19 2 -27 5 -17 2 9 2 25 0 35 -3 9 -5 1 -5 -18z"/>
<path d="M1013 670 c0 -25 2 -35 4 -22 2 12 2 32 0 45 -2 12 -4 2 -4 -23z"/>
</g>
</svg>
