<?xml version="1.0" standalone="no"?>
<!DOCTYPE svg PUBLIC "-//W3C//DTD SVG 20010904//EN"
 "http://www.w3.org/TR/2001/REC-SVG-20010904/DTD/svg10.dtd">
<svg version="1.0" xmlns="http://www.w3.org/2000/svg"
 width="244.000000pt" height="305.000000pt" viewBox="0 0 244.000000 305.000000"
 preserveAspectRatio="xMidYMid meet">
<metadata>
Created by potrace 1.16, written by Peter Selinger 2001-2019
</metadata>
<g transform="translate(0.000000,305.000000) scale(0.100000,-0.100000)"
fill="#000000" stroke="none">
<path d="M907 2903 c-8 -14 -46 -213 -62 -326 -15 -104 -34 -438 -35 -584 0
-60 3 -73 18 -77 9 -3 33 -20 51 -37 l34 -30 26 24 c14 14 36 30 49 36 22 11
22 15 22 186 0 252 -32 575 -69 700 -12 40 -13 11 -1 -40 22 -98 50 -388 56
-586 l7 -215 -39 -25 c-21 -13 -42 -25 -46 -27 -5 -2 -8 214 -7 480 0 297 4
475 9 463 7 -14 8 -8 3 20 -6 44 -9 50 -16 38z"/>
<path d="M1142 2880 c0 -14 2 -19 5 -12 2 6 2 18 0 25 -3 6 -5 1 -5 -13z"/>
<path d="M1317 2768 c-4 -73 -10 -205 -13 -293 l-7 -160 -17 100 c-10 55 -23
120 -30 145 l-12 45 -14 -45 c-34 -110 -55 -263 -64 -454 -5 -109 -11 -201
-14 -204 -4 -3 -7 190 -8 429 -1 307 -3 396 -9 304 -3 -71 -8 -240 -9 -375 -1
-176 -4 -235 -11 -210 -6 19 -12 42 -15 50 -10 28 -23 -12 -35 -111 l-11 -93
26 -21 c14 -11 26 -28 26 -38 0 -22 -12 -22 -27 2 -6 10 -26 21 -43 24 -45 9
-86 -15 -100 -58 -12 -36 -30 -48 -30 -19 0 25 -65 84 -92 84 -31 0 -67 -26
-78 -56 -15 -39 -4 -53 40 -47 34 5 43 1 70 -25 31 -31 40 -77 18 -85 -8 -2
-12 -20 -11 -49 1 -47 32 -117 77 -177 14 -19 26 -39 26 -44 0 -4 -16 -29 -35
-54 -19 -25 -35 -56 -35 -69 0 -39 70 -88 99 -69 12 7 14 -14 5 -39 -9 -24
-38 -19 -74 10 -42 36 -59 73 -58 125 1 55 -11 130 -25 147 -17 22 -65 14 -83
-13 -24 -36 -11 -96 36 -176 90 -152 100 -178 100 -259 0 -41 4 -90 9 -108 9
-31 5 -37 -97 -165 -136 -169 -181 -222 -186 -216 -2 2 23 54 56 114 193 356
191 352 185 414 -5 65 -31 121 -89 199 -74 99 -85 156 -43 222 30 47 30 52 7
73 -27 24 -97 22 -122 -3 -25 -25 -25 -33 0 -112 32 -103 23 -189 -22 -204
-16 -5 -18 -12 -13 -43 l6 -38 -58 -22 c-183 -71 -295 -112 -299 -109 -2 2 81
59 184 125 l187 121 -1 38 c-3 67 -29 210 -37 197 -4 -6 -5 -50 -2 -97 l5 -85
-29 5 c-26 6 -39 -2 -108 -67 -189 -177 -304 -289 -296 -289 5 0 101 32 213
71 113 39 214 73 225 76 32 9 45 24 45 49 0 30 14 30 78 -2 59 -29 94 -71 96
-116 1 -26 -4 -32 -33 -41 -32 -11 -35 -17 -61 -107 -15 -52 -53 -178 -84
-279 -31 -102 -55 -189 -53 -194 1 -5 64 62 139 149 75 88 144 168 155 179 10
11 36 42 57 68 38 46 39 49 27 88 -7 21 -9 44 -6 49 3 6 42 10 87 10 l80 0 -7
-107 c-3 -60 -8 -119 -10 -133 -2 -14 -6 -68 -10 -120 -3 -52 -8 -113 -10
-135 -3 -34 -2 -31 10 15 8 30 12 66 9 80 -5 20 -3 22 6 10 9 -12 10 -9 6 15
-6 31 18 203 30 214 6 6 1 -63 -11 -134 -2 -16 1 -10 9 15 8 28 15 39 19 30 3
-8 29 -136 58 -285 29 -148 54 -265 55 -260 2 6 26 123 54 260 27 138 53 261
56 275 5 19 16 -12 44 -125 29 -115 38 -140 39 -108 1 23 -4 45 -10 48 -6 4
-8 29 -5 63 4 43 3 48 -3 22 -7 -31 -9 -32 -10 -9 0 15 -12 96 -26 180 -14 84
-24 158 -21 166 8 20 24 15 29 -9 4 -20 4 -19 6 5 1 25 4 27 49 28 26 1 57 3
69 4 41 4 54 -15 41 -61 l-12 -42 190 -220 c104 -121 190 -219 192 -217 5 5
-46 184 -141 493 -19 65 -25 74 -50 79 -43 9 -50 33 -23 84 18 34 35 50 79 73
62 31 87 29 87 -7 0 -22 17 -29 218 -97 119 -40 224 -75 232 -77 8 -3 -66 75
-165 172 -172 168 -181 176 -212 170 l-33 -6 7 91 c4 65 3 90 -6 90 -6 0 -11
-13 -11 -28 0 -16 -3 -63 -6 -106 l-7 -76 44 5 c42 6 46 4 99 -46 128 -120
220 -212 217 -215 -3 -4 -115 60 -212 121 -38 24 -85 52 -103 61 -80 41 -105
113 -72 208 11 33 20 70 20 83 0 52 -65 79 -125 51 -31 -14 -31 -25 0 -84 36
-68 23 -128 -49 -219 -61 -77 -70 -97 -70 -160 0 -73 14 -101 54 -110 44 -10
55 -25 85 -122 15 -49 42 -137 61 -197 54 -173 47 -172 -48 4 -25 47 -77 142
-117 211 -86 153 -95 192 -58 265 14 27 44 81 66 119 52 88 65 132 50 174 -11
32 -39 46 -76 39 -20 -4 -34 -67 -37 -163 -1 -56 -41 -120 -85 -136 -27 -11
-35 -5 -45 28 -6 19 -4 21 19 17 19 -3 34 3 57 26 36 36 33 63 -13 121 -16 20
-29 40 -29 43 0 4 18 34 40 66 22 32 47 85 55 117 14 55 14 59 -5 85 -15 21
-18 33 -11 51 15 39 60 69 100 65 38 -3 47 8 37 47 -12 47 -89 63 -128 28 -12
-10 -27 -33 -35 -52 l-15 -34 -17 39 c-20 44 -37 61 -66 64 -39 4 -55 0 -75
-20 l-20 -20 0 21 c0 11 10 29 21 38 21 17 21 20 9 120 -8 67 -16 101 -24 98
-6 -2 -13 -14 -15 -28 -3 -22 -4 -23 -12 -4 -5 13 -8 -1 -9 -45 -1 -36 -5 -74
-10 -85 -5 -12 -9 180 -9 468 1 269 -1 490 -4 493 -2 2 -7 -55 -10 -128z m-70
-285 c-3 -10 -5 -4 -5 12 0 17 2 24 5 18 2 -7 2 -21 0 -30z m28 -153 c18 -133
24 -436 11 -509 -5 -27 -5 -46 2 -50 5 -3 11 -24 12 -46 5 -74 1 -92 -20 -98
-17 -4 -20 0 -19 31 1 24 3 29 6 14 7 -36 23 -15 23 31 0 31 -3 38 -10 27 -14
-21 -13 115 1 141 7 13 8 55 2 127 l-8 107 -6 -105 -5 -105 -4 150 c-4 129 -5
109 -10 -135 l-5 -285 -3 356 c-2 311 3 487 14 476 2 -1 11 -59 19 -127z m149
-563 c31 5 41 2 67 -22 30 -30 40 -75 15 -75 -8 0 -16 -16 -20 -41 -11 -67
-53 -122 -70 -91 -15 27 -33 42 -50 42 -11 0 -16 9 -16 28 0 15 -3 38 -7 51
l-6 23 28 -18 c27 -18 28 -18 46 5 11 13 19 34 19 47 0 24 -14 32 -25 14 -9
-15 -42 -12 -49 5 -8 23 4 48 18 36 7 -6 29 -8 50 -4z m-310 -13 c2 -6 0 -17
-4 -24 -7 -11 -14 -12 -35 -2 -35 16 -35 16 -35 -15 0 -27 25 -63 43 -63 6 0
19 7 29 17 17 15 18 14 18 -31 0 -36 -4 -48 -17 -52 -37 -11 -48 -22 -51 -48
-2 -14 -7 -26 -10 -26 -13 0 -62 83 -68 116 -3 19 -12 38 -20 45 -21 17 -17
43 11 73 22 23 31 26 80 24 30 -2 57 -8 59 -14z m-170 -186 c14 -29 42 -70 61
-91 25 -25 35 -45 33 -60 -3 -21 -5 -20 -36 13 -43 45 -82 111 -92 155 -11 51
4 43 34 -17z m203 20 c-3 -7 -5 -2 -5 12 0 14 2 19 5 13 2 -7 2 -19 0 -25z
m180 0 c-3 -7 -5 -2 -5 12 0 14 2 19 5 13 2 -7 2 -19 0 -25z m233 5 c0 -34
-47 -116 -90 -160 -65 -66 -70 -23 -5 49 45 50 75 100 75 125 0 7 5 13 10 13
6 0 10 -12 10 -27z m-367 -19 c-7 -19 -23 -7 -23 18 0 17 3 18 14 8 8 -6 12
-18 9 -26z m107 11 c0 -14 -4 -25 -9 -25 -12 0 -23 29 -15 41 10 18 24 9 24
-16z m80 -82 c0 -31 -5 -40 -26 -50 -26 -12 -26 -12 -20 25 4 30 27 62 43 62
2 0 3 -17 3 -37z m-246 5 c3 -13 6 -33 6 -46 0 -19 -2 -21 -19 -10 -26 16 -34
78 -10 78 9 0 19 -10 23 -22z m103 -25 c-3 -10 -5 -2 -5 17 0 19 2 27 5 18 2
-10 2 -26 0 -35z m-180 -85 c-3 -7 -5 -2 -5 12 0 14 2 19 5 13 2 -7 2 -19 0
-25z m30 -10 c-3 -8 -6 -5 -6 6 -1 11 2 17 5 13 3 -3 4 -12 1 -19z m300 -10
c-3 -7 -5 -2 -5 12 0 14 2 19 5 13 2 -7 2 -19 0 -25z m-237 -14 c0 -8 -4 -14
-10 -14 -5 0 -10 9 -10 21 0 11 5 17 10 14 6 -3 10 -13 10 -21z m200 12 c0 -8
-7 -16 -15 -20 -15 -5 -21 14 -8 27 11 12 23 8 23 -7z m-315 -48 c29 -13 35
-39 6 -31 -15 4 -20 -3 -26 -33 -5 -28 -9 -34 -16 -23 -15 25 -10 99 7 99 2 0
15 -5 29 -12z m443 -49 l-4 -44 -15 33 c-8 18 -18 29 -22 25 -4 -3 -7 3 -7 15
0 21 28 35 43 22 5 -4 7 -27 5 -51z m-301 29 c-3 -8 -6 -5 -6 6 -1 11 2 17 5
13 3 -3 4 -12 1 -19z m128 13 c3 -5 1 -12 -5 -16 -5 -3 -10 1 -10 9 0 18 6 21
15 7z m129 -58 c8 3 19 -13 29 -46 18 -55 17 -60 -5 -52 -22 8 -39 51 -42 105
-2 25 -1 32 1 17 3 -18 9 -27 17 -24z m-326 -28 c0 -16 -2 -15 -8 5 -4 14 -8
36 -8 50 0 22 1 22 8 -5 4 -16 8 -39 8 -50z m267 10 c-4 -25 -9 -44 -12 -41
-2 2 -1 25 2 51 4 25 9 44 12 41 2 -2 1 -25 -2 -51z m-322 -38 c-3 -20 -10
-37 -14 -37 -12 0 -11 7 3 47 15 41 19 38 11 -10z m115 -3 c19 12 24 -15 6
-35 -21 -23 -29 -16 -39 31 -6 32 -6 33 8 16 7 -10 19 -16 25 -12z m158 3 c16
22 18 5 4 -33 l-11 -28 -21 21 c-14 14 -18 27 -14 40 7 17 8 17 18 0 9 -18 10
-18 24 0z m-209 -29 c-3 -7 -5 -2 -5 12 0 14 2 19 5 13 2 -7 2 -19 0 -25z
m240 -20 c-3 -7 -5 -2 -5 12 0 14 2 19 5 13 2 -7 2 -19 0 -25z m-120 -240 c-3
-8 -6 -5 -6 6 -1 11 2 17 5 13 3 -3 4 -12 1 -19z m-97 -45 c0 -23 -9 -48 -21
-63 l-20 -25 6 40 c10 69 15 85 25 85 6 0 10 -17 10 -37z m23 4 c3 -8 1 -20
-4 -28 -6 -10 -9 -7 -9 14 0 29 5 35 13 14z m157 -13 c0 -8 -5 -12 -10 -9 -6
4 -8 11 -5 16 9 14 15 11 15 -7z m-28 -21 c44 -46 50 -74 32 -156 -9 -39 -20
-90 -24 -112 -4 -22 -16 -83 -26 -135 l-19 -95 -7 55 c-8 74 -10 455 -1 463
11 11 18 8 45 -20z"/>
<path d="M1263 745 c0 -44 2 -61 4 -37 2 23 2 59 0 80 -2 20 -4 1 -4 -43z"/>
<path d="M1253 545 c0 -27 2 -38 4 -22 2 15 2 37 0 50 -2 12 -4 0 -4 -28z"/>
<path d="M1537 2833 c-41 -157 -68 -400 -74 -658 l-5 -250 49 -36 49 -35 43
32 c23 18 46 34 51 36 27 9 -28 765 -60 840 -10 21 -10 20 -6 -8 36 -233 56
-473 55 -659 l0 -150 -36 -23 c-19 -12 -38 -20 -42 -17 -11 12 -9 897 2 938 7
24 7 41 1 47 -7 7 -16 -14 -27 -57z"/>
<path d="M1343 2560 c0 -36 2 -50 4 -32 2 17 2 47 0 65 -2 17 -4 3 -4 -33z"/>
<path d="M1163 2460 c0 -25 2 -35 4 -22 2 12 2 32 0 45 -2 12 -4 2 -4 -23z"/>
<path d="M1352 2125 c0 -16 2 -22 5 -12 2 9 2 23 0 30 -3 6 -5 -1 -5 -18z"/>
<path d="M1393 810 c0 -25 2 -35 4 -22 2 12 2 32 0 45 -2 12 -4 2 -4 -23z"/>
<path d="M1402 695 c0 -16 2 -22 5 -12 2 9 2 23 0 30 -3 6 -5 -1 -5 -18z"/>
<path d="M1081 594 c0 -11 3 -14 6 -6 3 7 2 16 -1 19 -3 4 -6 -2 -5 -13z"/>
</g>
</svg>
