<?xml version="1.0" standalone="no"?>
<!DOCTYPE svg PUBLIC "-//W3C//DTD SVG 20010904//EN"
 "http://www.w3.org/TR/2001/REC-SVG-20010904/DTD/svg10.dtd">
<svg version="1.0" xmlns="http://www.w3.org/2000/svg"
 width="244.000000pt" height="305.000000pt" viewBox="0 0 244.000000 305.000000"
 preserveAspectRatio="xMidYMid meet">
<metadata>
Created by potrace 1.16, written by Peter Selinger 2001-2019
</metadata>
<g transform="translate(0.000000,305.000000) scale(0.100000,-0.100000)"
fill="#000000" stroke="none">
<path d="M946 2879 c-8 -43 -7 -58 4 -34 5 12 9 -184 9 -462 1 -266 -3 -483
-7 -483 -4 0 -23 16 -42 35 l-34 35 12 252 c7 139 21 329 32 422 20 174 21
238 1 99 -28 -196 -40 -346 -47 -575 -5 -180 -4 -248 4 -248 6 0 28 -14 48
-32 l36 -32 18 22 c23 28 50 29 50 2 0 -15 -7 -20 -29 -20 -24 0 -32 -6 -44
-37 -9 -21 -16 -31 -16 -22 -1 29 -48 69 -80 69 -33 0 -54 -24 -66 -72 -7 -27
-6 -28 31 -28 48 0 94 -40 94 -82 0 -15 -5 -28 -11 -28 -6 0 -9 -23 -7 -60 2
-40 -1 -63 -9 -68 -7 -4 -17 -26 -22 -47 -5 -22 -9 -32 -10 -21 -1 15 -8 10
-32 -20 -29 -37 -30 -41 -24 -109 l6 -70 -21 24 c-28 32 -28 123 0 169 11 18
20 39 20 47 0 20 -32 35 -73 35 -49 0 -60 -18 -53 -87 17 -156 17 -176 6 -203
-13 -32 -5 -25 -195 -160 -77 -54 -141 -97 -144 -95 -2 2 52 65 119 140 l123
136 39 -6 39 -7 -7 99 c-9 133 -26 158 -21 30 l4 -98 -26 6 c-23 5 -40 -9
-157 -137 -161 -176 -198 -218 -190 -218 8 0 180 66 224 85 18 8 68 29 111 45
65 25 77 34 77 52 -1 14 6 24 17 26 26 5 21 -9 -32 -100 -27 -45 -46 -84 -41
-86 4 -2 33 13 64 32 30 20 58 36 61 36 4 0 19 9 33 21 25 19 27 19 39 3 23
-32 16 -65 -16 -77 -16 -6 -31 -20 -34 -31 -3 -12 -24 -93 -47 -181 -23 -88
-46 -176 -50 -195 -4 -19 -15 -63 -25 -98 -9 -35 -15 -67 -13 -73 2 -5 48 52
103 127 55 75 112 150 128 168 27 30 27 30 22 6 -13 -63 -45 -264 -45 -279 1
-9 11 4 22 29 12 25 59 122 106 215 81 164 84 172 78 223 -6 49 -5 52 16 52
34 0 87 -36 94 -65 4 -18 -1 -33 -21 -56 -18 -22 -25 -39 -21 -54 3 -13 28
-157 56 -321 28 -164 52 -299 54 -301 4 -5 6 3 62 344 51 307 50 302 9 360
-15 20 -15 23 12 53 20 23 38 32 63 33 l35 2 -3 -51 c-3 -45 5 -67 78 -220
107 -223 133 -274 137 -270 2 2 -6 59 -17 127 -37 216 -36 197 -13 174 10 -11
34 -42 53 -68 19 -26 44 -60 55 -75 11 -15 42 -56 68 -91 26 -35 47 -59 47
-54 0 5 -25 108 -56 229 -31 120 -60 242 -66 269 -12 56 -32 85 -60 85 -11 0
-18 7 -18 18 0 28 12 62 21 62 9 0 146 -80 192 -112 16 -11 31 -18 33 -15 3 2
-14 37 -37 76 -23 40 -40 74 -38 76 2 2 47 -14 99 -35 166 -68 274 -109 277
-106 1 1 -65 78 -148 172 -135 153 -152 169 -180 167 l-31 -1 7 83 c5 56 4 85
-4 89 -7 5 -11 -6 -11 -33 0 -22 -5 -72 -12 -110 -14 -81 -25 -65 127 -181
142 -108 182 -140 170 -139 -6 0 -73 28 -150 63 l-140 63 3 34 c2 25 -3 40
-17 53 -29 26 -36 90 -17 163 21 81 20 126 -2 146 -24 22 -64 21 -92 -1 l-22
-18 26 -53 c27 -52 29 -82 11 -139 -14 -42 -30 -18 -27 39 2 39 -2 65 -17 92
-14 28 -20 33 -23 20 -2 -10 -9 2 -16 30 -8 30 -18 47 -27 47 -13 0 -15 9 -9
48 5 37 2 52 -10 65 -24 23 -20 49 14 85 24 27 36 33 63 30 30 -3 32 -1 30 30
-2 44 -19 62 -60 62 -24 0 -41 -8 -59 -27 l-26 -28 4 35 c2 26 11 40 35 55 39
25 40 38 31 305 -9 259 -22 408 -53 580 -8 47 -15 91 -15 98 0 6 -3 12 -7 12
-5 0 -7 -223 -5 -495 2 -325 -1 -495 -7 -495 -16 0 -29 32 -26 65 1 17 -2 156
-6 310 -6 224 -5 302 7 389 17 124 12 156 -7 42 -6 -42 -13 -75 -14 -74 -2 2
-9 57 -15 123 -7 66 -15 128 -19 137 -3 9 -5 -211 -3 -490 2 -398 0 -504 -9
-495 -17 17 -38 149 -40 253 l-2 85 -8 -90 c-4 -49 -12 -103 -18 -120 -9 -28
-9 -28 -10 18 -1 53 -18 64 -24 15 -2 -18 -5 1 -5 42 -4 138 -48 470 -66 488
-18 18 -64 -311 -68 -488 0 -41 -3 -60 -5 -42 -5 42 -23 32 -23 -14 0 -19 -4
-34 -9 -34 -10 0 -17 79 -26 280 -12 256 -43 605 -53 596 -2 -3 -4 -229 -4
-503 l-1 -498 -10 295 c-5 162 -10 336 -9 385 0 53 -3 80 -7 65 -7 -22 -9 -20
-15 20 -38 243 -48 279 -60 219z m284 -840 c0 -379 -2 -429 -15 -416 -12 12
-15 66 -17 310 -2 162 0 293 5 290 4 -2 7 18 7 45 0 60 12 202 16 202 2 0 4
-194 4 -431z m-43 -111 c-1 -46 -3 -11 -3 77 0 88 2 125 3 83 2 -42 2 -114 0
-160z m290 -45 c2 -6 -5 -14 -17 -18 -26 -8 -33 -3 -24 19 7 19 35 18 41 -1z
m-377 -13 c0 -5 -7 -10 -15 -10 -8 0 -15 5 -15 10 0 6 7 10 15 10 8 0 15 -4
15 -10z m305 0 c3 -5 -1 -10 -9 -10 -9 0 -16 5 -16 10 0 6 4 10 9 10 6 0 13
-4 16 -10z m-280 -129 c-7 -24 -35 -29 -35 -6 0 13 31 38 38 30 2 -2 1 -13 -3
-24z m243 17 c16 -16 15 -38 -1 -38 -14 0 -39 35 -30 44 9 9 18 7 31 -6z
m-344 -34 c9 -23 7 -64 -3 -64 -18 0 -33 30 -27 55 7 28 21 33 30 9z m456 -23
c0 -18 -18 -41 -32 -41 -9 0 -11 41 -2 64 8 21 34 2 34 -23z m-293 -48 c-3
-10 -5 -2 -5 17 0 19 2 27 5 18 2 -10 2 -26 0 -35z m-43 1 c9 -3 16 -12 16
-20 0 -7 9 -18 21 -24 11 -7 27 -27 35 -46 8 -19 16 -34 19 -34 3 0 11 15 19
34 8 19 24 39 35 46 12 6 21 17 21 25 0 17 31 28 54 19 16 -6 21 -30 10 -58
-4 -11 -19 -16 -49 -16 -48 0 -53 -4 -75 -69 l-16 -44 -13 44 c-19 64 -36 79
-81 74 -36 -5 -38 -3 -42 25 -3 21 0 34 11 40 20 12 16 11 35 4z m261 -120
c-8 -20 -18 -35 -21 -31 -3 3 -1 14 4 24 5 10 13 38 18 63 8 42 9 43 12 14 2
-18 -4 -49 -13 -70z m-430 59 c3 -16 26 -62 50 -103 47 -78 53 -92 32 -85 -30
12 -107 151 -107 195 0 30 17 24 25 -7z m120 -93 c6 -9 4 -11 -4 -5 -18 11
-41 69 -40 102 0 21 5 14 18 -28 10 -31 22 -62 26 -69z m415 78 c-12 -55 -36
-103 -70 -142 -18 -20 -35 -35 -37 -32 -6 5 44 103 56 110 5 4 17 29 26 56 18
55 38 60 25 8z m-338 -103 c3 -15 1 -22 -7 -19 -13 5 -35 47 -35 66 0 19 38
-22 42 -47z m153 10 c-10 -19 -22 -35 -26 -35 -10 0 7 48 23 67 20 25 22 3 3
-32z m212 -55 c10 -36 4 -135 -7 -123 -11 11 -19 153 -9 153 5 0 12 -13 16
-30z m-581 -11 c-3 -17 -6 -47 -6 -66 0 -20 -4 -32 -10 -28 -11 7 -13 67 -4
103 10 34 27 27 20 -9z m229 -40 c10 -15 -1 -23 -20 -15 -9 3 -13 10 -10 16 8
13 22 13 30 -1z m129 -10 c-9 -15 -34 -10 -28 5 3 8 12 12 20 9 8 -3 11 -9 8
-14z m-271 -82 c-6 -52 10 -87 38 -87 19 0 20 5 17 50 -1 27 0 50 5 50 4 0 22
0 40 0 26 -1 29 -2 15 -11 -27 -15 -23 -58 7 -69 17 -7 25 -17 25 -34 0 -24
-26 -44 -32 -24 -2 6 -28 12 -57 12 l-54 1 -14 49 c-8 28 -12 64 -8 83 9 48
24 32 18 -20z m401 -2 l6 -40 -14 35 c-17 41 -20 68 -7 55 5 -6 12 -28 15 -50z
m-72 -33 c-5 -57 9 -73 40 -46 20 19 20 19 17 -6 -3 -21 -10 -25 -40 -26 -19
-1 -52 -4 -72 -8 -35 -7 -37 -5 -37 19 0 18 7 28 25 35 19 7 25 17 25 40 0 21
-5 30 -17 31 -10 1 -2 5 17 8 19 4 38 6 41 4 3 -1 4 -24 1 -51z m-527 -11 c9
-18 11 -32 5 -36 -11 -7 -42 49 -33 59 10 9 11 8 28 -23z m164 -91 c0 -10 -3
-8 -9 5 -12 27 -12 43 0 25 5 -8 9 -22 9 -30z m462 7 c-10 -9 -11 -8 -5 6 3
10 9 15 12 12 3 -3 0 -11 -7 -18z m299 -13 c0 -8 -4 -12 -10 -9 -5 3 -10 10
-10 16 0 5 5 9 10 9 6 0 10 -7 10 -16z m-865 -24 c8 -16 15 -54 15 -85 0 -48
-8 -74 -54 -168 -29 -62 -79 -168 -111 -237 -75 -161 -92 -183 -61 -74 8 27
29 103 46 169 51 199 57 213 90 220 46 10 55 29 55 121 0 46 1 84 2 84 1 0 9
-13 18 -30z m-135 1 c0 -10 -92 -112 -97 -107 -5 4 39 77 65 108 14 16 32 16
32 -1z m801 -41 c-6 -28 -11 -62 -11 -77 0 -24 56 -157 159 -377 28 -60 49
-111 47 -113 -4 -4 -143 187 -189 259 -22 34 -50 220 -41 273 7 43 32 100 41
92 3 -3 0 -29 -6 -57z m188 -17 c33 -37 58 -69 56 -71 -5 -5 -142 85 -151 99
-6 10 13 39 26 39 5 0 36 -30 69 -67z m-520 -123 c5 0 13 15 17 33 4 17 9 27
11 20 5 -14 -26 -83 -36 -83 -9 0 -31 61 -30 81 0 8 7 -1 15 -18 8 -18 18 -33
23 -33z m247 -82 c12 -40 40 -134 63 -208 22 -74 41 -139 40 -145 0 -18 -145
289 -155 329 -3 15 -3 47 1 72 9 60 21 48 51 -48z m-479 60 c-3 -13 -19 -68
-37 -123 -17 -55 -44 -140 -60 -190 -31 -96 -36 -96 -20 1 25 138 33 166 57
194 22 26 24 36 18 75 -7 52 -2 65 27 65 16 0 19 -5 15 -22z m222 -310 c-1
-270 -1 -272 -14 -173 -7 55 -19 159 -26 231 -12 130 -12 131 11 172 13 23 25
42 27 42 2 0 2 -123 2 -272z m-63 180 c0 -18 2 -71 6 -118 l7 -85 -18 100
c-14 75 -16 104 -7 117 6 10 11 18 12 18 0 0 0 -15 0 -32z"/>
<path d="M1402 2805 c0 -16 2 -22 5 -12 2 9 2 23 0 30 -3 6 -5 -1 -5 -18z"/>
<path d="M1393 2715 c0 -22 2 -30 4 -17 2 12 2 30 0 40 -3 9 -5 -1 -4 -23z"/>
<path d="M1032 2720 c0 -14 2 -19 5 -12 2 6 2 18 0 25 -3 6 -5 1 -5 -13z"/>
<path d="M1383 2600 c0 -25 2 -35 4 -22 2 12 2 32 0 45 -2 12 -4 2 -4 -23z"/>
<path d="M1373 2430 c0 -41 2 -58 4 -37 2 20 2 54 0 75 -2 20 -4 3 -4 -38z"/>
</g>
</svg>
