<?xml version="1.0" standalone="no"?>
<!DOCTYPE svg PUBLIC "-//W3C//DTD SVG 20010904//EN"
 "http://www.w3.org/TR/2001/REC-SVG-20010904/DTD/svg10.dtd">
<svg version="1.0" xmlns="http://www.w3.org/2000/svg"
 width="244.000000pt" height="305.000000pt" viewBox="0 0 244.000000 305.000000"
 preserveAspectRatio="xMidYMid meet">
<metadata>
Created by potrace 1.16, written by Peter Selinger 2001-2019
</metadata>
<g transform="translate(0.000000,305.000000) scale(0.100000,-0.100000)"
fill="#000000" stroke="none">
<path d="M980 2905 c-1 -5 -5 -30 -10 -55 -23 -111 -50 -381 -55 -550 -3 -102
-7 -228 -10 -280 l-5 -95 45 -38 44 -38 42 42 41 41 -6 217 c-4 119 -11 270
-17 336 -13 154 -47 394 -59 414 -5 9 -10 12 -10 6z m7 -762 c-1 -125 -2 -25
-2 222 0 248 1 350 2 228 2 -122 2 -324 0 -450z"/>
<path d="M1476 2900 c-25 -78 -55 -378 -68 -681 l-11 -286 41 -41 c23 -23 44
-42 45 -42 2 0 23 19 47 41 l43 41 -12 289 c-11 282 -42 591 -62 615 -5 6 -7
19 -3 27 3 9 1 24 -4 34 -9 15 -11 15 -16 3z"/>
<path d="M1228 2585 c-28 -95 -48 -284 -55 -510 l-7 -220 -18 124 c-9 68 -20
126 -23 129 -12 12 -19 -14 -28 -114 l-10 -105 27 -26 c24 -22 27 -31 24 -76
-3 -50 -4 -52 -30 -49 -24 2 -28 -1 -28 -23 0 -61 43 -86 73 -42 16 22 16 21
16 -19 1 -28 6 -44 16 -48 9 -3 23 -22 31 -41 8 -19 16 -35 19 -35 3 0 11 16
19 35 8 19 22 38 31 41 10 4 15 20 15 53 l1 46 15 -27 c27 -50 74 -27 74 36 0
27 -18 34 -38 14 -13 -13 -20 -1 -23 42 -4 51 2 70 28 94 l27 25 -11 106 c-17
162 -27 159 -51 -16 l-17 -124 -7 210 c-9 278 -51 587 -70 520z"/>
<path d="M860 1850 c-12 -12 -20 -33 -20 -55 0 -33 2 -35 30 -33 38 3 80 -35
80 -74 0 -15 -4 -28 -10 -28 -13 0 -13 -65 1 -115 6 -22 24 -67 41 -101 l31
-61 -27 -45 c-32 -54 -33 -87 -5 -122 15 -20 29 -26 48 -24 28 3 27 1 20 96
-1 17 0 34 3 37 3 3 26 -3 51 -12 44 -16 47 -19 47 -54 0 -28 5 -38 20 -42 28
-7 27 -49 -2 -62 -12 -6 -25 -21 -29 -35 -5 -21 -7 -19 -10 15 -5 48 -27 56
-77 29 -24 -13 -38 -15 -50 -8 -27 16 -63 96 -57 123 3 13 0 56 -6 97 -14 79
-29 96 -69 74 -39 -21 -39 -105 1 -181 11 -22 24 -52 30 -67 16 -44 -14 -7
-47 56 -37 73 -42 137 -15 190 25 49 26 65 6 82 -23 19 -87 15 -103 -6 -14
-20 -13 -42 8 -154 20 -105 7 -136 -95 -217 -46 -38 -99 -76 -117 -86 l-33
-19 35 28 c19 16 54 46 76 66 23 21 45 38 50 39 5 0 23 18 41 38 l32 38 -11
111 c-7 62 -16 112 -21 112 -5 0 -8 -41 -5 -93 l4 -93 -26 3 c-21 3 -35 -9
-90 -77 -36 -45 -73 -91 -83 -103 -10 -12 -26 -31 -35 -42 -39 -47 -89 -111
-96 -124 -12 -20 16 -9 207 77 147 66 167 78 167 99 0 27 10 29 50 8 38 -19
80 -82 80 -117 0 -21 -6 -29 -25 -34 -18 -4 -28 -16 -35 -45 -9 -33 -75 -316
-115 -491 -7 -32 -9 -58 -4 -58 5 0 74 99 155 221 146 220 146 221 142 272
l-3 52 63 -1 c46 -1 67 -6 83 -20 38 -34 40 -48 13 -86 l-25 -34 16 -100 c8
-54 22 -142 30 -194 8 -52 20 -126 25 -165 6 -38 16 -99 22 -135 10 -60 12
-63 20 -35 4 17 15 77 23 135 8 58 28 193 45 300 l29 194 -26 34 -25 34 19 26
c28 37 60 52 116 52 55 0 65 -13 48 -61 -8 -24 -7 -37 6 -62 9 -18 19 -34 23
-37 4 -3 59 -84 123 -182 108 -164 145 -213 152 -206 5 4 -7 60 -59 283 -64
279 -64 277 -98 306 -29 24 -30 27 -19 61 13 40 45 80 78 97 30 15 33 14 33
-11 0 -25 -8 -21 210 -116 132 -58 190 -78 190 -67 0 7 -109 142 -213 263 -58
66 -86 92 -103 92 -23 0 -23 1 -17 87 5 64 3 84 -5 79 -7 -4 -12 -34 -12 -74
0 -37 -4 -72 -8 -79 -4 -6 -5 31 -4 83 5 120 -7 144 -71 144 -64 0 -85 -33
-52 -83 27 -42 15 -183 -17 -203 -8 -5 -9 -1 -4 12 4 10 13 42 19 70 12 60 -2
109 -35 117 -47 13 -56 -8 -64 -139 -4 -86 -14 -115 -48 -146 -23 -22 -27 -22
-63 -1 -18 10 -39 14 -55 10 -21 -6 -24 -11 -20 -33 l5 -27 -22 22 c-11 11
-25 21 -31 21 -5 0 -10 12 -10 26 0 17 6 28 20 31 16 4 20 14 20 44 0 22 5 39
11 39 6 0 26 7 45 16 41 20 48 15 45 -28 -7 -94 -7 -93 17 -96 33 -5 72 34 72
71 0 17 -12 50 -26 75 l-26 44 38 81 c39 84 56 178 35 191 -17 11 -12 59 8 84
14 15 30 22 55 22 34 0 36 2 36 33 0 44 -25 77 -58 77 -36 0 -46 -8 -69 -54
l-20 -40 -13 38 c-29 88 -130 65 -130 -29 0 -21 5 -24 42 -27 34 -2 45 -8 57
-30 12 -21 13 -31 4 -50 -7 -13 -15 -39 -18 -58 -9 -48 -44 -106 -98 -162
l-44 -47 7 38 c9 50 16 61 56 77 30 13 33 17 24 34 -14 26 -56 36 -77 19 -9
-8 -26 -36 -39 -63 l-22 -48 -11 37 c-12 44 -47 85 -72 85 -23 0 -64 -34 -56
-47 4 -6 20 -13 36 -16 21 -5 32 -15 40 -39 16 -46 27 -188 14 -188 -6 0 -8
11 -5 25 3 20 -1 27 -22 35 -14 5 -40 20 -57 32 -41 30 -109 146 -108 184 0
25 3 22 20 -24 23 -59 128 -178 150 -170 22 8 11 48 -20 77 -42 39 -91 121
-91 150 0 15 -7 39 -15 55 -19 37 -19 48 4 74 12 15 30 22 55 22 32 0 36 3 36
25 0 95 -109 116 -133 25 l-9 -35 -14 34 c-26 61 -76 79 -114 41z m597 -343
c-28 -61 -86 -123 -136 -144 -27 -12 -32 -18 -28 -39 2 -13 0 -24 -4 -24 -5 0
-9 23 -9 51 0 44 2 50 14 40 20 -16 42 -4 93 52 43 47 82 113 84 144 1 13 3
11 6 -5 2 -12 -7 -46 -20 -75z m270 -174 c-3 -10 -5 -2 -5 17 0 19 2 27 5 18
2 -10 2 -26 0 -35z m-770 -291 c5 -42 -1 -62 -43 -160 -26 -61 -50 -110 -52
-107 -2 2 13 45 34 97 39 96 48 159 32 238 l-7 35 15 -28 c8 -15 18 -49 21
-75z m578 42 c-4 -43 -15 -58 -15 -21 0 24 9 57 15 57 2 0 2 -16 0 -36z m-334
-56 c7 -48 24 -88 38 -88 11 0 31 70 31 109 0 17 4 31 9 31 4 0 6 -24 3 -52
-5 -56 -37 -122 -54 -112 -16 10 -38 71 -38 107 0 18 -6 39 -12 46 -11 11 -10
13 2 9 9 -3 18 -23 21 -50z m819 0 c0 -6 -6 -5 -15 2 -8 7 -15 14 -15 16 0 2
7 1 15 -2 8 -4 15 -11 15 -16z m-1530 -3 c-7 -8 -17 -15 -23 -15 -6 0 -2 7 9
15 25 19 30 19 14 0z m347 -322 c-13 -26 -27 -59 -30 -73 -3 -14 -13 -34 -21
-45 -15 -20 -15 -20 -9 3 3 12 9 25 14 28 5 3 9 11 9 18 0 19 51 128 57 123 2
-3 -7 -27 -20 -54z"/>
</g>
</svg>
