<?xml version="1.0" standalone="no"?>
<!DOCTYPE svg PUBLIC "-//W3C//DTD SVG 20010904//EN"
 "http://www.w3.org/TR/2001/REC-SVG-20010904/DTD/svg10.dtd">
<svg version="1.0" xmlns="http://www.w3.org/2000/svg"
 width="244.000000pt" height="305.000000pt" viewBox="0 0 244.000000 305.000000"
 preserveAspectRatio="xMidYMid meet">
<metadata>
Created by potrace 1.16, written by Peter Selinger 2001-2019
</metadata>
<g transform="translate(0.000000,305.000000) scale(0.100000,-0.100000)"
fill="#000000" stroke="none">
<path d="M1026 2785 c3 -104 2 -123 -7 -95 -6 19 -9 51 -7 71 2 21 0 35 -4 33
-4 -3 -10 18 -14 46 -4 28 -11 53 -16 56 -6 4 -7 -15 -3 -50 4 -31 2 -249 -5
-486 -11 -349 -11 -432 0 -445 20 -24 -2 -17 -34 11 l-29 26 5 246 c4 148 3
213 -2 162 -4 -47 -8 -166 -9 -266 l-1 -181 26 -12 c34 -15 26 -35 -17 -39
-43 -4 -79 -37 -79 -72 0 -24 3 -26 30 -22 24 3 36 -2 60 -28 31 -33 40 -75
18 -82 -17 -6 -12 -92 9 -150 18 -52 18 -52 -15 -63 -22 -6 -23 -4 -20 35 3
52 -8 59 -90 59 -105 0 -118 -22 -87 -142 20 -78 19 -91 -10 -137 -45 -71
-179 -188 -274 -239 l-26 -14 21 24 c11 13 63 75 114 137 68 81 98 111 109
106 9 -3 22 -8 29 -11 14 -6 15 131 1 182 -5 20 -7 0 -5 -62 l2 -92 -24 6
c-18 4 -29 0 -41 -14 -34 -44 -217 -260 -243 -288 -16 -16 -28 -33 -28 -37 0
-4 24 2 52 13 58 24 151 59 155 59 1 0 -9 -16 -22 -36 -23 -33 -31 -54 -22
-54 7 0 278 149 291 159 17 14 43 -14 56 -59 11 -37 -1 -60 -30 -60 -12 0 -21
-13 -29 -42 -24 -89 -110 -455 -116 -493 -7 -46 -10 -48 69 64 28 39 52 69 54
67 2 -3 -4 -41 -13 -86 -26 -128 -24 -127 102 105 34 61 75 137 94 170 25 47
33 72 33 115 1 54 2 55 31 58 37 5 88 -22 105 -53 11 -20 9 -28 -11 -56 -29
-41 -29 -34 27 -394 39 -249 54 -329 54 -289 0 11 43 298 70 464 25 158 25
185 -1 221 -12 18 -18 37 -14 48 9 29 67 61 109 61 l37 0 -6 -53 c-6 -48 -4
-58 28 -112 34 -60 59 -104 126 -225 46 -84 81 -136 81 -120 0 7 -7 39 -16 72
-8 33 -14 67 -12 75 2 9 32 -25 71 -81 37 -53 70 -96 72 -96 6 0 -4 55 -20
110 -7 25 -35 137 -61 249 -47 196 -50 205 -76 215 -22 8 -28 17 -28 39 0 32
26 87 41 87 5 0 70 -32 144 -71 74 -39 135 -66 135 -61 0 5 -10 21 -21 36 -12
15 -19 29 -17 32 5 4 189 -67 221 -86 43 -26 23 6 -79 126 -60 70 -127 149
-149 175 -33 41 -44 48 -67 44 l-27 -4 6 91 c8 114 -11 114 -21 1 -3 -43 -9
-91 -12 -108 -5 -28 1 -35 92 -110 54 -44 108 -87 119 -95 41 -29 87 -71 83
-76 -8 -8 -177 76 -199 99 -12 12 -43 55 -70 96 -56 86 -60 114 -32 224 16 61
16 70 2 95 -14 26 -19 27 -94 28 -98 1 -109 -5 -100 -64 5 -35 4 -43 -7 -38
-7 3 -21 9 -31 12 -12 5 -16 12 -11 23 44 101 54 164 28 192 -32 35 17 109 72
109 38 0 44 17 23 64 -13 28 -37 37 -85 29 -42 -7 -44 7 -4 40 l30 26 0 153
c0 270 -19 510 -56 730 -18 101 -38 126 -29 35 10 -101 12 -272 4 -292 -6 -15
-8 -11 -9 20 -3 79 -19 221 -28 260 -12 51 -17 -156 -12 -582 2 -238 0 -303
-10 -303 -10 0 -11 50 -7 233 3 167 3 196 -3 102 -4 -71 -8 -178 -9 -237 0
-60 -5 -108 -10 -108 -10 0 -21 48 -21 91 0 15 -4 31 -10 34 -5 3 -10 14 -10
25 0 13 -5 17 -19 13 -16 -4 -21 -17 -26 -81 -10 -116 -12 -110 -19 63 -10
252 -48 538 -66 504 -16 -29 -49 -310 -57 -479 l-8 -175 -9 82 c-7 71 -11 81
-28 80 -10 -1 -21 -10 -23 -22 -2 -11 -6 -29 -8 -40 -3 -11 -5 34 -6 100 -2
243 -36 666 -59 750 -6 19 -8 -19 -6 -100z m204 -735 l0 -441 -22 20 c-21 20
-21 22 -15 313 5 250 23 548 34 548 2 0 3 -198 3 -440z m-253 -47 c-2 -27 -3
-5 -3 47 0 52 1 74 3 48 2 -27 2 -69 0 -95z m116 -112 c4 -15 -2 -20 -24 -23
-33 -5 -33 -4 -19 23 14 24 36 25 43 0z m317 4 c16 -19 14 -21 -30 -29 -28 -5
-31 -5 -17 4 9 6 17 18 17 25 0 19 14 19 30 0z m-398 -47 c-15 -15 -26 -4 -18
18 5 13 9 15 18 6 9 -9 9 -15 0 -24z m463 2 c-5 -8 -11 -8 -17 -2 -6 6 -7 16
-3 22 5 8 11 8 17 2 6 -6 7 -16 3 -22z m-335 -105 c0 -11 -8 -13 -30 -8 -28 5
-30 4 -30 -25 0 -32 22 -62 45 -62 7 0 21 7 29 16 15 14 16 12 16 -19 0 -22 6
-37 15 -41 9 -3 23 -22 31 -41 8 -19 16 -35 19 -35 3 0 11 16 19 35 8 19 22
38 31 41 9 4 15 19 15 43 1 29 3 33 11 19 23 -40 79 -9 79 43 0 27 -2 29 -30
24 -23 -4 -30 -2 -30 10 0 12 8 15 32 13 41 -4 67 -47 50 -82 -6 -11 -14 -40
-17 -63 -7 -44 -22 -64 -34 -45 -3 6 -18 13 -33 17 -34 9 -63 -19 -79 -77
l-11 -43 -20 53 c-24 66 -54 84 -94 57 -33 -22 -45 -11 -51 49 -3 26 -10 49
-14 52 -12 7 -11 27 1 58 8 21 16 26 45 26 24 0 35 -5 35 -15z m356 -169 c-4
-19 -11 -38 -16 -41 -9 -6 -5 38 6 74 9 27 16 1 10 -33z m-141 -66 c-9 -29
-58 -76 -63 -61 -7 20 18 68 41 79 27 12 31 9 22 -18z m-190 -4 c9 -13 19 -56
22 -96 l6 -71 -35 21 c-38 22 -77 60 -62 60 5 0 20 -9 34 -20 14 -11 31 -20
38 -20 20 0 14 45 -9 66 -19 17 -49 65 -49 79 0 16 42 2 55 -19z m486 -164
c-12 -77 -16 -90 -27 -79 -4 3 -1 26 5 51 6 25 11 66 11 93 1 39 3 45 11 29 8
-13 8 -40 0 -94z m-651 68 c12 -23 4 -64 -11 -55 -9 6 -13 75 -4 75 2 0 9 -9
15 -20z m370 1 c-9 -18 -69 -61 -84 -61 -3 0 -6 9 -6 20 0 13 5 18 15 14 8 -3
29 6 47 20 40 31 42 31 28 7z m-536 -71 c6 -59 5 -63 -9 -46 -9 12 -15 41 -15
75 0 73 16 54 24 -29z m646 48 c0 -23 -3 -29 -11 -21 -6 6 -8 20 -4 32 9 30
15 26 15 -11z m-360 -81 c31 -11 35 -15 32 -44 -3 -27 1 -35 22 -45 15 -6 26
-20 26 -30 0 -25 -40 -40 -58 -22 -16 16 -68 19 -77 4 -9 -15 -42 -12 -49 5
-4 12 3 15 30 15 l36 0 -7 65 c-3 36 -3 65 2 65 4 0 24 -6 43 -13z m272 8 c3
-3 2 -26 -2 -52 -10 -61 -4 -73 32 -73 19 0 28 -4 25 -12 -4 -14 -23 -15 -73
-3 -22 5 -35 2 -47 -9 -18 -18 -42 -12 -52 12 -4 11 3 24 21 38 21 18 26 28
22 53 -4 25 -1 31 13 31 10 0 21 5 24 10 7 11 28 13 37 5z m133 -99 c-22 -52
-29 -40 -8 14 9 23 19 38 20 33 2 -5 -4 -26 -12 -47z m221 -93 c6 -13 30 -35
53 -51 22 -15 49 -39 58 -52 l17 -24 -45 26 c-158 90 -180 108 -146 122 24 10
52 1 63 -21z m-199 -78 c-6 -32 -14 -52 -19 -47 -10 10 10 102 21 102 4 0 3
-25 -2 -55z m-340 -26 c7 -34 16 -66 21 -71 14 -14 32 23 39 82 3 28 9 50 13
50 13 0 -15 -124 -33 -150 -15 -22 -17 -59 -18 -310 l-1 -285 -29 195 c-35
241 -35 255 -4 305 26 43 31 75 15 105 -12 23 -29 140 -21 140 4 0 12 -28 18
-61z m-267 -5 c0 -19 -6 -34 -15 -38 -16 -6 -20 28 -8 72 8 31 23 9 23 -34z
m-327 14 c-18 -18 -35 -30 -37 -27 -8 7 43 59 57 59 6 0 -3 -14 -20 -32z m257
-182 c-11 -46 -34 -112 -50 -145 -17 -34 -30 -63 -30 -65 0 -12 -53 -116 -57
-113 -2 3 5 40 16 84 11 43 29 119 41 168 38 162 38 163 68 173 37 12 38 1 12
-102z m612 39 c-2 -42 3 -57 39 -111 51 -79 144 -310 96 -239 -8 11 -49 87
-91 168 -73 140 -78 152 -71 194 9 61 31 52 27 -12z m-570 23 c-7 -7 -12 -8
-12 -2 0 14 12 26 19 19 2 -3 -1 -11 -7 -17z m608 -63 c0 -8 -2 -15 -4 -15 -2
0 -6 7 -10 15 -3 8 -1 15 4 15 6 0 10 -7 10 -15z m155 -184 c36 -85 64 -156
62 -158 -8 -7 -104 143 -115 178 -12 39 -26 146 -18 139 3 -3 34 -75 71 -159z
m-816 -75 c-18 -47 -33 -85 -35 -83 -8 7 24 127 40 152 30 45 28 22 -5 -69z"/>
<path d="M1011 2834 c0 -11 3 -14 6 -6 3 7 2 16 -1 19 -3 4 -6 -2 -5 -13z"/>
<path d="M1472 2810 c0 -14 2 -19 5 -12 2 6 2 18 0 25 -3 6 -5 1 -5 -13z"/>
<path d="M1422 2800 c0 -14 2 -19 5 -12 2 6 2 18 0 25 -3 6 -5 1 -5 -13z"/>
<path d="M1413 2705 c0 -22 2 -30 4 -17 2 12 2 30 0 40 -3 9 -5 -1 -4 -23z"/>
<path d="M937 2670 c-4 -25 -9 -81 -11 -125 -4 -67 -3 -61 9 35 14 110 15 184
2 90z"/>
<path d="M1403 2595 c0 -27 2 -38 4 -22 2 15 2 37 0 50 -2 12 -4 0 -4 -28z"/>
<path d="M1392 2510 c0 -19 2 -27 5 -17 2 9 2 25 0 35 -3 9 -5 1 -5 -18z"/>
<path d="M1384 2250 c0 -63 1 -89 3 -57 2 31 2 83 0 115 -2 31 -3 5 -3 -58z"/>
</g>
</svg>
