<?xml version="1.0" standalone="no"?>
<!DOCTYPE svg PUBLIC "-//W3C//DTD SVG 20010904//EN"
 "http://www.w3.org/TR/2001/REC-SVG-20010904/DTD/svg10.dtd">
<svg version="1.0" xmlns="http://www.w3.org/2000/svg"
 width="244.000000pt" height="305.000000pt" viewBox="0 0 244.000000 305.000000"
 preserveAspectRatio="xMidYMid meet">
<metadata>
Created by potrace 1.16, written by Peter Selinger 2001-2019
</metadata>
<g transform="translate(0.000000,305.000000) scale(0.100000,-0.100000)"
fill="#000000" stroke="none">
<path d="M907 2903 c-12 -19 -55 -251 -71 -380 -20 -159 -33 -603 -18 -603 6
0 31 -16 56 -35 33 -25 48 -31 51 -22 3 7 23 24 45 37 l40 25 0 140 c0 206
-18 441 -46 605 -14 79 -27 147 -30 150 -6 6 2 -67 17 -145 20 -107 39 -329
45 -521 l7 -200 -39 -24 c-21 -14 -42 -26 -46 -28 -5 -2 -8 216 -7 485 1 268
5 477 9 463 6 -20 8 -21 8 -5 0 34 -13 71 -21 58z"/>
<path d="M1362 2890 c0 -14 2 -19 5 -12 2 6 2 18 0 25 -3 6 -5 1 -5 -13z"/>
<path d="M1102 2880 c0 -14 2 -19 5 -12 2 6 2 18 0 25 -3 6 -5 1 -5 -13z"/>
<path d="M1531 2798 c-30 -146 -48 -280 -60 -450 -14 -186 -14 -428 -1 -428 5
0 25 -13 43 -30 41 -36 57 -37 83 -9 10 12 30 25 43 30 l24 10 -7 212 c-7 225
-25 420 -53 579 -27 157 -26 106 1 -89 25 -173 53 -626 41 -661 -4 -14 -42
-43 -77 -60 -5 -2 -8 214 -7 480 1 294 4 473 10 458 7 -21 8 -20 4 9 -3 18 -5
37 -5 42 0 5 -4 9 -9 9 -4 0 -18 -46 -30 -102z"/>
<path d="M1359 2839 c0 -13 0 -205 1 -426 1 -222 -2 -418 -6 -438 -11 -61 -24
-38 -25 48 -1 62 -3 74 -9 47 -6 -28 -8 -20 -9 40 -3 145 -45 432 -70 478 -19
35 -68 -233 -80 -443 -6 -93 -8 -110 -9 -59 -4 155 -24 591 -31 667 -6 56 -9
-41 -11 -308 -1 -288 -5 -381 -12 -357 -6 17 -14 32 -18 32 -4 0 -13 -50 -20
-112 l-13 -112 30 -25 c35 -31 43 -49 32 -76 -7 -19 -8 -19 -8 3 -2 41 -18 59
-61 66 -54 8 -95 -13 -111 -59 -13 -35 -29 -47 -29 -21 0 8 -11 28 -25 44 -46
55 -121 51 -144 -7 -19 -45 -11 -56 37 -52 35 2 47 -2 72 -27 32 -33 40 -76
15 -86 -35 -13 -4 -128 59 -216 20 -28 36 -52 36 -55 0 -3 -16 -25 -35 -51
-19 -25 -35 -54 -35 -64 0 -36 22 -70 46 -70 30 0 38 -15 18 -35 -15 -15 -19
-13 -55 26 -35 37 -39 48 -38 88 1 59 -11 143 -24 159 -15 19 -62 14 -82 -8
-30 -33 -16 -102 37 -190 56 -93 73 -127 82 -164 10 -41 -12 -16 -42 48 -13
27 -43 75 -67 105 -74 94 -83 151 -38 232 27 48 27 49 8 63 -11 9 -41 16 -67
16 -37 0 -50 -5 -62 -22 -21 -29 -20 -43 5 -119 29 -89 22 -154 -18 -189 -24
-19 -29 -30 -22 -45 12 -30 11 -33 -13 -46 -35 -19 -332 -129 -336 -124 -2 2
20 19 50 38 345 222 328 210 328 227 -1 8 -7 42 -15 75 -8 33 -15 77 -15 98 0
21 -5 37 -11 37 -9 0 -10 -25 -6 -90 l7 -89 -30 5 c-24 5 -37 0 -67 -26 -78
-69 -333 -314 -333 -321 0 -8 119 30 333 105 125 44 137 51 137 73 0 33 19 37
71 15 56 -24 105 -73 114 -112 8 -37 2 -48 -37 -58 -32 -8 -32 -10 -100 -232
-37 -124 -77 -252 -88 -284 -11 -32 -18 -61 -16 -63 5 -6 49 42 241 266 l157
183 -12 38 c-7 21 -9 43 -6 49 4 6 29 11 57 11 l49 0 1 -37 2 -38 6 35 c5 27
11 36 30 38 17 3 22 0 19 -10 -3 -7 -22 -96 -44 -198 -31 -147 -40 -179 -46
-155 -6 25 -7 23 -5 -13 2 -23 -1 -42 -5 -42 -5 0 -8 -19 -8 -42 0 -23 2 -39
5 -37 2 3 34 90 70 194 44 129 65 205 65 237 0 52 12 56 43 13 17 -24 17 -25
-13 -56 -16 -18 -30 -39 -30 -48 0 -9 28 -158 62 -331 l62 -314 12 49 c6 28
36 173 65 323 29 149 55 272 58 272 3 0 35 -86 71 -191 35 -106 66 -187 67
-182 2 5 -10 120 -27 256 -16 135 -30 252 -30 260 0 21 25 28 72 21 43 -7 43
-8 23 -80 -7 -22 28 -68 180 -239 44 -50 105 -121 135 -158 30 -36 56 -63 58
-58 1 4 -1 26 -7 47 -8 34 -114 394 -142 481 -7 23 -19 35 -45 43 -38 13 -43
33 -20 78 20 37 54 67 100 86 53 22 64 20 68 -11 3 -31 -11 -25 297 -128 90
-30 166 -54 168 -52 3 4 -15 21 -240 236 -112 107 -121 113 -152 107 l-33 -6
5 92 c5 121 -12 96 -21 -29 l-7 -93 46 7 45 6 98 -95 c53 -52 117 -113 142
-137 l45 -42 -70 35 c-128 66 -310 183 -327 213 -22 35 -23 97 -3 153 20 57
19 103 -3 123 -25 23 -84 21 -113 -2 -26 -21 -25 -24 21 -97 20 -33 5 -106
-35 -161 -80 -112 -95 -138 -95 -167 0 -24 -3 -27 -10 -16 -18 28 -10 55 45
144 62 103 77 159 50 200 -21 32 -80 38 -88 9 -11 -39 -21 -120 -18 -150 3
-38 -26 -100 -41 -85 -7 7 -6 17 1 30 18 34 13 58 -24 106 -19 26 -35 50 -35
54 0 4 20 36 45 71 55 79 77 161 52 189 -25 27 -21 53 14 91 27 30 35 33 69
28 42 -5 50 3 41 43 -4 15 -20 32 -40 42 -45 23 -88 6 -116 -45 -23 -43 -32
-46 -41 -13 -9 38 -49 69 -90 70 l-36 1 -3 50 c-1 28 -7 194 -13 370 -11 315
-27 564 -37 573 -3 3 -5 -6 -6 -19z m-83 -506 c13 -106 15 -165 8 -300 l-8
-168 -7 110 c-8 133 -18 498 -13 493 2 -2 11 -63 20 -135z m-130 -461 c-12
-11 -18 7 -10 30 l8 23 4 -23 c2 -13 1 -26 -2 -30z m194 17 c0 -10 -4 -19 -10
-19 -5 0 -10 12 -10 26 0 14 4 23 10 19 6 -3 10 -15 10 -26z m-44 -94 c0 -41
-3 -72 -8 -69 -14 9 -8 144 6 144 1 0 2 -34 2 -75z m75 14 c-10 -23 -10 -23
-10 7 -1 17 2 34 7 38 11 12 14 -18 3 -45z m-298 -56 c4 -2 7 -11 7 -20 0 -13
-3 -13 -15 -3 -10 9 -19 10 -26 3 -12 -12 7 -69 27 -77 18 -7 19 -77 2 -95
-11 -10 -10 -15 3 -24 18 -14 34 -67 20 -67 -20 0 -101 114 -107 151 -4 21
-13 44 -20 50 -21 17 -17 47 11 75 21 21 31 24 58 19 18 -4 35 -9 40 -12z
m422 -8 c28 -27 32 -57 11 -74 -8 -7 -17 -30 -21 -51 -7 -39 -86 -150 -106
-150 -14 0 1 53 19 68 12 9 13 15 4 24 -18 18 -15 83 4 99 9 7 20 24 25 38 12
31 -3 50 -26 31 -16 -13 -20 -3 -7 16 20 30 67 30 97 -1z m-345 -86 c0 -32 4
-42 20 -46 11 -3 20 -12 20 -19 0 -18 -28 -30 -41 -17 -13 13 -22 123 -9 123
5 0 10 -18 10 -41z m185 -22 c-5 -52 -18 -69 -42 -60 -20 8 -15 33 7 33 17 0
20 7 20 46 0 29 4 43 11 39 6 -4 8 -27 4 -58z m-35 -3 c0 -2 -7 -4 -15 -4 -10
0 -15 10 -15 33 l0 32 15 -29 c8 -15 15 -30 15 -32z m-352 -75 c18 -34 32 -73
32 -87 l0 -25 -21 27 c-20 26 -59 115 -59 136 0 25 19 5 48 -51z m419 39 c-3
-8 -6 -5 -6 6 -1 11 2 17 5 13 3 -3 4 -12 1 -19z m197 -11 c-14 -49 -47 -107
-60 -107 -18 0 -19 -3 17 74 17 36 35 63 40 60 6 -3 7 -15 3 -27z m-323 -51
c7 4 8 -8 3 -33 -8 -46 -14 -55 -14 -22 0 13 -3 35 -5 49 -3 14 -3 19 1 12 3
-6 10 -9 15 -6z m-82 -94 c26 -66 11 -69 -18 -3 -21 51 -30 102 -11 71 5 -9
18 -39 29 -68z m167 -9 c-36 -78 -43 -61 -9 23 16 40 29 62 31 52 2 -10 -8
-43 -22 -75z m-286 -4 c0 -11 -4 -18 -10 -14 -5 3 -7 12 -3 20 7 21 13 19 13
-6z m410 -5 c0 -8 -4 -14 -10 -14 -5 0 -10 9 -10 21 0 11 5 17 10 14 6 -3 10
-13 10 -21z m-71 -55 c-24 -14 -36 11 -14 27 18 13 20 13 23 -2 2 -9 -2 -20
-9 -25z m-262 16 c3 -9 3 -19 -1 -22 -7 -7 -36 16 -36 28 0 15 30 10 37 -6z
m-63 -129 c9 -38 15 -71 13 -73 -6 -5 -37 108 -37 132 0 31 8 13 24 -59z m381
7 c-22 -79 -25 -87 -30 -81 -5 5 22 125 32 141 14 23 13 -8 -2 -60z m-265 42
c0 -8 -7 -15 -16 -15 -14 0 -14 3 -4 15 7 8 14 15 16 15 2 0 4 -7 4 -15z m160
-6 c0 -5 -7 -9 -15 -9 -8 0 -15 7 -15 15 0 9 6 12 15 9 8 -4 15 -10 15 -15z
m-214 -99 c8 -8 15 -6 24 5 14 17 39 20 42 5 3 -25 2 -30 -7 -30 -5 -1 -21 -8
-34 -17 -19 -12 -25 -13 -32 -2 -15 24 -29 108 -21 126 5 13 8 3 12 -29 3 -27
11 -53 16 -58z m274 65 c0 -53 -29 -118 -49 -109 -9 3 -26 9 -38 11 -14 3 -23
13 -23 24 0 28 30 36 47 13 14 -19 14 -19 29 0 8 11 14 37 14 58 0 21 5 38 10
38 6 0 10 -16 10 -35z m144 -91 c3 -9 3 -20 0 -25 -9 -15 -34 10 -27 27 7 19
19 18 27 -2z m95 -150 c6 -15 9 -29 6 -32 -11 -11 36 -50 55 -45 31 8 55 -13
72 -64 15 -42 101 -326 115 -378 10 -37 -7 -9 -136 222 -147 265 -146 263
-124 263 15 0 15 2 0 18 -18 20 -22 42 -9 42 5 0 14 -12 21 -26z m-782 -238
c-23 -28 -79 -95 -125 -150 -45 -54 -89 -108 -97 -119 -8 -12 -17 -18 -20 -16
-3 3 18 48 46 100 28 52 72 132 97 179 25 47 60 114 80 150 19 36 37 70 41 75
3 6 9 -30 13 -79 l8 -88 -43 -52z m403 155 c0 -9 -20 -37 -20 -29 0 3 -2 13
-5 21 -4 8 0 14 10 14 8 0 15 -3 15 -6z m190 -220 c23 -106 40 -195 38 -197
-2 -2 -28 70 -57 160 -47 143 -53 169 -46 212 10 69 18 48 65 -175z m-80 138
c0 -64 -6 -67 -39 -20 l-20 27 25 27 c14 15 27 27 29 27 3 0 5 -27 5 -61z
m-58 -266 l-41 -198 7 125 c9 160 8 298 -2 330 -7 22 -3 19 34 -17 l43 -41
-41 -199z"/>
<path d="M1093 2740 c0 -25 2 -35 4 -22 2 12 2 32 0 45 -2 12 -4 2 -4 -23z"/>
<path d="M1341 2664 c0 -11 3 -14 6 -6 3 7 2 16 -1 19 -3 4 -6 -2 -5 -13z"/>
<path d="M1083 2585 c0 -27 2 -38 4 -22 2 15 2 37 0 50 -2 12 -4 0 -4 -28z"/>
<path d="M1333 2505 c0 -33 2 -45 4 -27 2 18 2 45 0 60 -2 15 -4 0 -4 -33z"/>
<path d="M1074 2340 c0 -69 1 -97 3 -62 2 34 2 90 0 125 -2 34 -3 6 -3 -63z"/>
<path d="M1013 815 c0 -22 2 -30 4 -17 2 12 2 30 0 40 -3 9 -5 -1 -4 -23z"/>
<path d="M1002 735 c0 -16 2 -22 5 -12 2 9 2 23 0 30 -3 6 -5 -1 -5 -18z"/>
<path d="M993 645 c0 -22 2 -30 4 -17 2 12 2 30 0 40 -3 9 -5 -1 -4 -23z"/>
</g>
</svg>
