<?xml version="1.0" standalone="no"?>
<!DOCTYPE svg PUBLIC "-//W3C//DTD SVG 20010904//EN"
 "http://www.w3.org/TR/2001/REC-SVG-20010904/DTD/svg10.dtd">
<svg version="1.0" xmlns="http://www.w3.org/2000/svg"
 width="244.000000pt" height="305.000000pt" viewBox="0 0 244.000000 305.000000"
 preserveAspectRatio="xMidYMid meet">
<metadata>
Created by potrace 1.16, written by Peter Selinger 2001-2019
</metadata>
<g transform="translate(0.000000,305.000000) scale(0.100000,-0.100000)"
fill="#000000" stroke="none">
<path d="M1006 2815 c2 -71 1 -85 -4 -48 -4 28 -11 55 -16 60 -8 8 -4 -53 13
-192 12 -100 14 -685 2 -704 -5 -7 -14 -10 -21 -6 -9 6 -12 102 -11 394 0 212
-1 406 -3 431 -2 25 0 60 6 77 8 29 3 81 -8 71 -2 -2 -15 -74 -28 -159 -27
-168 -42 -355 -52 -636 l-6 -181 31 -16 c34 -18 41 -35 14 -37 -74 -6 -99 -19
-108 -59 -8 -36 1 -53 25 -45 30 9 69 -13 87 -50 16 -33 15 -36 -2 -55 -27
-30 -13 -108 36 -199 35 -66 39 -78 28 -98 -16 -31 -29 -20 -29 26 0 44 -12
58 -55 63 -26 3 -30 6 -27 31 6 45 -13 57 -84 57 -100 0 -107 -17 -76 -183 5
-29 5 -50 0 -53 -20 -12 -30 16 -35 95 -4 49 -10 78 -16 74 -6 -4 -7 -39 -3
-95 l7 -89 -24 6 c-20 6 -37 -8 -113 -92 -49 -54 -91 -100 -94 -103 -27 -27
-122 -141 -119 -144 2 -2 41 11 87 29 45 18 82 31 82 28 0 -3 -9 -18 -21 -35
-12 -16 -19 -31 -16 -34 2 -3 77 30 165 73 106 52 162 84 165 97 5 17 8 17 22
6 21 -18 55 -84 55 -107 0 -10 -14 -24 -33 -33 -22 -10 -34 -24 -38 -45 -4
-16 -23 -95 -42 -175 -54 -220 -67 -272 -77 -309 -5 -19 -8 -37 -5 -39 2 -2
25 25 50 60 26 34 50 64 55 66 4 2 1 -23 -6 -55 -16 -69 -18 -91 -5 -77 6 5
67 103 136 219 l126 210 -7 52 -6 53 43 0 c52 0 85 -15 112 -52 l19 -26 -27
-36 -27 -36 42 -268 c47 -300 61 -384 66 -379 4 3 93 543 100 605 5 36 1 49
-21 79 l-27 35 19 26 c28 37 61 53 108 50 l40 -3 -3 -49 c-4 -46 1 -56 125
-261 70 -117 129 -210 131 -206 1 4 -4 35 -12 69 -8 34 -11 62 -6 62 4 0 34
-36 66 -80 31 -44 59 -78 61 -76 2 2 -28 129 -67 282 -47 186 -76 282 -86 289
-51 32 -54 38 -39 79 27 75 24 76 203 -12 89 -44 162 -76 162 -72 0 4 -9 19
-21 34 -28 35 -15 33 104 -14 55 -22 101 -39 103 -38 3 4 -104 126 -224 256
-83 90 -98 103 -120 97 l-25 -6 7 90 c5 63 4 91 -3 91 -6 0 -11 -17 -11 -37 0
-21 -3 -69 -7 -107 l-6 -69 37 7 c36 7 39 5 91 -51 63 -68 63 -67 139 -155 32
-38 56 -68 53 -68 -11 0 -223 152 -258 185 -48 45 -99 123 -99 150 0 13 7 42
15 65 19 55 19 114 0 134 -11 11 -35 15 -83 14 -89 -1 -104 -10 -100 -56 3
-36 2 -37 -32 -37 -34 0 -35 -2 -38 -40 -4 -50 -17 -64 -32 -35 -10 19 -9 27
9 49 58 73 91 212 58 245 -33 33 22 106 79 106 32 0 34 2 34 34 0 49 -30 68
-93 60 -46 -7 -49 -6 -39 12 6 11 22 26 36 34 l26 13 -1 151 c-1 83 -5 198 -9
256 -4 62 -5 6 -2 -136 l5 -242 -22 -12 c-13 -6 -24 -10 -26 -8 -4 3 -24 536
-29 773 -2 66 1 127 5 136 4 9 4 29 0 45 -8 28 -9 27 -16 -19 -8 -53 -25 -73
-25 -30 0 15 -4 33 -8 40 -4 6 -6 -39 -6 -100 1 -62 -2 -148 -7 -192 -13 -125
-18 -214 -25 -437 -3 -115 -10 -208 -15 -208 -5 0 -10 73 -11 163 l-2 162 -6
-125 c-4 -104 -6 -118 -13 -83 -16 79 -44 64 -53 -28 -11 -111 -23 -101 -24
21 -1 195 -46 567 -67 547 -22 -23 -53 -283 -60 -505 -3 -111 -7 -201 -9 -200
-1 2 -7 48 -14 103 -6 55 -15 103 -18 107 -15 16 -31 -10 -40 -67 l-10 -60 -1
90 c-4 278 -38 698 -65 802 -12 46 -13 44 -10 -52z m74 -907 c0 -6 6 -19 14
-27 13 -14 10 -16 -30 -16 -24 0 -44 2 -44 4 0 8 43 51 52 51 4 0 8 -5 8 -12z
m342 -15 c25 -23 23 -30 -10 -25 -23 3 -34 -3 -55 -28 -15 -17 -27 -25 -27
-17 0 7 14 26 30 40 17 15 30 32 30 37 0 15 11 12 32 -7z m-422 -43 c0 -11 -4
-20 -10 -20 -5 0 -10 9 -10 20 0 11 5 20 10 20 6 0 10 -9 10 -20z m498 2 c2
-7 -3 -12 -12 -12 -9 0 -16 7 -16 16 0 17 22 14 28 -4z m-359 -35 c0 -21 -1
-21 -9 -2 -12 28 -12 37 0 30 6 -3 10 -16 9 -28z m1 -57 c0 -30 -1 -31 -37
-24 l-36 7 6 -38 c4 -21 12 -42 19 -47 21 -13 48 -9 54 7 10 24 22 17 17 -9
-4 -17 2 -31 21 -47 14 -12 31 -38 37 -58 l12 -36 18 42 c10 23 27 47 38 53
13 7 21 21 21 37 0 21 3 24 12 15 28 -28 78 3 78 49 0 25 -3 28 -32 26 -17 -1
-33 3 -35 11 -3 8 8 12 36 12 30 0 43 -5 51 -19 13 -25 13 -68 0 -76 -5 -3
-10 -21 -10 -39 0 -38 -25 -78 -38 -59 -4 7 -21 15 -38 19 -36 7 -65 -21 -84
-81 l-13 -40 -19 45 c-35 82 -63 97 -111 60 -26 -20 -26 -20 -36 -1 -6 11 -11
35 -11 54 0 19 -6 40 -14 46 -14 12 -11 57 7 79 5 6 25 12 43 12 24 0 34 5 34
15 0 8 2 15 5 15 3 0 5 -14 5 -30z m226 -247 c-8 -16 -28 -43 -45 -61 -58 -62
-32 -91 37 -42 41 29 44 30 31 9 -9 -13 -35 -35 -58 -48 -35 -19 -42 -28 -38
-47 2 -13 0 -24 -6 -24 -6 0 -8 31 -4 87 7 95 24 132 68 144 13 4 25 7 27 8 1
1 -4 -11 -12 -26z m-212 -2 c9 -10 20 -36 23 -57 l6 -39 -41 48 c-23 27 -42
52 -42 58 0 16 36 10 54 -10z m-64 -80 c0 -3 16 -17 35 -30 29 -19 38 -21 50
-11 13 11 15 6 15 -39 0 -28 -4 -51 -9 -51 -4 0 -6 11 -3 25 3 20 -1 27 -24
35 -32 12 -71 45 -85 72 -7 14 -6 16 6 12 8 -4 15 -9 15 -13z m597 -60 c-3
-33 -10 -67 -17 -78 -9 -14 -10 -4 -5 51 3 38 8 73 11 78 13 20 16 4 11 -51z
m-890 -33 c-3 -7 -5 -2 -5 12 0 14 2 19 5 13 2 -7 2 -19 0 -25z m316 -28 c32
-12 37 -18 33 -36 -7 -28 2 -54 20 -54 7 0 18 -9 24 -20 9 -16 6 -22 -15 -36
-22 -15 -26 -15 -40 0 -21 20 -48 20 -87 0 -30 -16 -44 -12 -50 15 -2 10 7 14
32 15 l35 1 -4 69 c-2 37 1 67 5 65 5 -2 26 -11 47 -19z m295 -52 l-3 -63 33
-3 c20 -2 32 -8 29 -15 -4 -13 -34 -14 -83 -2 -21 5 -35 2 -45 -8 -17 -16 -48
-14 -60 5 -12 17 -7 29 17 42 28 16 35 28 29 57 -5 22 -1 27 27 36 58 19 59
19 56 -49z m-688 -13 c0 -8 -9 -23 -20 -32 -12 -11 -20 -30 -20 -50 0 -28 -6
-36 -45 -59 -25 -14 -48 -24 -51 -21 -8 7 34 67 88 128 23 27 44 49 46 49 1 0
2 -7 2 -15z m-130 -101 c0 -4 -16 -26 -35 -50 -32 -39 -140 -102 -152 -90 -3
3 21 24 52 48 32 24 72 55 89 70 31 27 46 34 46 22z m1186 -19 c4 -18 22 -33
60 -52 44 -21 122 -84 89 -72 -36 14 -225 122 -225 129 0 11 18 18 47 19 16 1
24 -6 29 -24z m-575 -97 c7 -42 24 -88 34 -88 10 0 27 46 34 88 3 27 12 47 21
50 12 4 13 2 3 -9 -7 -7 -13 -29 -13 -48 0 -38 -29 -104 -45 -104 -16 1 -45
66 -45 103 0 20 -6 42 -12 49 -11 11 -10 13 2 9 9 -3 18 -23 21 -50z m378 -20
c1 -20 -3 -26 -14 -22 -16 7 -19 33 -8 74 l7 25 7 -25 c4 -14 7 -37 8 -52z
m-1034 12 c-10 -11 -23 -20 -28 -20 -6 0 -2 9 8 20 10 11 23 20 28 20 6 0 2
-9 -8 -20z m395 -105 c0 -33 -11 -68 -41 -128 -23 -45 -51 -93 -61 -107 l-20
-25 7 45 c16 102 79 260 105 260 5 0 10 -20 10 -45z m722 16 c3 -3 29 -94 57
-201 28 -107 53 -206 57 -220 14 -52 -16 -3 -72 120 -52 115 -108 294 -97 313
5 8 43 0 55 -12z m-157 -1 c3 -5 1 -27 -6 -48 -13 -43 -11 -48 62 -147 42 -58
103 -174 95 -183 -3 -3 0 -12 7 -20 8 -10 8 -13 0 -9 -6 4 -52 79 -103 168
-88 153 -92 162 -85 205 6 42 17 55 30 34z m-702 -257 c-7 -44 -31 -94 -68
-143 -22 -28 -26 -31 -20 -11 10 35 83 191 89 191 3 0 2 -17 -1 -37z m16 -104
c-11 -30 -22 -60 -25 -68 -2 -8 -7 -11 -10 -8 -8 7 15 88 33 115 23 37 24 21
2 -39z"/>
<path d="M1522 2800 c0 -14 2 -19 5 -12 2 6 2 18 0 25 -3 6 -5 1 -5 -13z"/>
<path d="M1531 2754 c0 -11 3 -14 6 -6 3 7 2 16 -1 19 -3 4 -6 -2 -5 -13z"/>
<path d="M1542 2685 c0 -16 6 -77 13 -135 l14 -105 -6 89 c-5 95 -20 203 -21
151z"/>
<path d="M1422 2650 c0 -19 2 -27 5 -17 2 9 2 25 0 35 -3 9 -5 1 -5 -18z"/>
<path d="M1413 2540 c0 -25 2 -35 4 -22 2 12 2 32 0 45 -2 12 -4 2 -4 -23z"/>
<path d="M1403 2405 c0 -38 2 -53 4 -32 2 20 2 52 0 70 -2 17 -4 1 -4 -38z"/>
</g>
</svg>
