<?xml version="1.0" standalone="no"?>
<!DOCTYPE svg PUBLIC "-//W3C//DTD SVG 20010904//EN"
 "http://www.w3.org/TR/2001/REC-SVG-20010904/DTD/svg10.dtd">
<svg version="1.0" xmlns="http://www.w3.org/2000/svg"
 width="244.000000pt" height="305.000000pt" viewBox="0 0 244.000000 305.000000"
 preserveAspectRatio="xMidYMid meet">
<metadata>
Created by potrace 1.16, written by Peter Selinger 2001-2019
</metadata>
<g transform="translate(0.000000,305.000000) scale(0.100000,-0.100000)"
fill="#000000" stroke="none">
<path d="M890 2893 c0 -10 -3 -29 -5 -43 -5 -22 -4 -22 4 -5 6 13 10 -150 10
-462 1 -266 -1 -483 -4 -483 -3 0 -24 12 -47 27 l-41 28 7 203 c7 225 17 333
47 526 11 70 18 130 16 133 -6 5 -42 -199 -57 -313 -8 -62 -28 -439 -30 -565
0 -9 13 -22 29 -29 16 -6 37 -20 47 -31 24 -27 37 -24 90 16 l47 36 -1 147
c-1 178 -16 403 -37 532 -24 148 -57 300 -67 300 -4 0 -8 -8 -8 -17z"/>
<path d="M1182 2880 c0 -14 2 -19 5 -12 2 6 2 18 0 25 -3 6 -5 1 -5 -13z"/>
<path d="M1279 2760 c-2 -80 -3 -181 -2 -225 l2 -80 -20 70 c-11 38 -22 71
-24 73 -2 3 -10 -17 -17 -44 l-13 -49 -6 60 c-5 51 -6 42 -9 -55 l-4 -115 -6
75 c-6 74 -7 73 -8 -35 -1 -60 -6 -177 -11 -260 -6 -82 -11 -187 -11 -232 0
-88 -14 -111 -25 -40 -16 106 -38 207 -46 207 -8 0 -25 -77 -33 -158 -4 -44
-2 -56 14 -70 11 -9 29 -25 40 -34 22 -20 26 -61 10 -103 -10 -27 -18 -28 -62
-10 -14 6 -18 2 -18 -17 0 -29 26 -68 46 -68 8 0 25 11 38 25 31 33 37 32 33
-10 -3 -24 1 -39 14 -51 34 -31 24 -44 -28 -37 -40 4 -51 2 -66 -15 -17 -19
-17 -20 14 -26 18 -3 38 -11 46 -17 13 -11 19 -79 7 -79 -39 0 -152 128 -160
182 -4 21 -13 43 -20 49 -22 18 -17 46 14 74 22 21 35 25 72 24 42 -3 45 -1
42 21 -10 93 -131 104 -163 15 -16 -43 -24 -44 -37 -6 -12 34 -44 58 -88 67
-37 7 -83 -27 -86 -66 -3 -23 1 -25 42 -28 34 -2 53 -11 77 -35 35 -33 43 -71
18 -81 -18 -7 -20 -53 -4 -106 6 -21 31 -64 55 -96 24 -32 44 -62 44 -67 0 -5
-16 -28 -35 -51 -40 -49 -45 -86 -15 -116 23 -23 63 -35 86 -26 16 6 16 33 -1
91 -3 11 0 28 7 38 12 17 16 16 76 -4 l63 -21 -5 -42 c-4 -25 -3 -34 2 -22 7
17 9 17 15 3 3 -8 -2 -44 -12 -79 l-19 -63 -7 38 c-7 36 -9 37 -49 37 -22 -1
-52 -7 -66 -15 -36 -20 -45 -19 -85 16 -47 42 -67 81 -57 111 5 13 5 34 1 48
-4 14 -7 41 -8 60 -1 45 -16 60 -58 60 -26 0 -36 -6 -49 -31 -24 -47 -11 -90
67 -219 98 -163 97 -168 -22 -370 -50 -85 -107 -184 -127 -220 -55 -101 -72
-126 -72 -110 0 8 30 109 68 224 l67 209 44 13 c52 15 58 23 67 90 8 64 -14
117 -79 198 -70 86 -84 158 -42 216 31 42 32 66 3 81 -31 17 -97 13 -119 -7
-24 -22 -24 -47 1 -126 39 -124 24 -154 -114 -236 -140 -83 -282 -162 -291
-162 -7 0 52 56 210 199 79 71 81 72 122 66 50 -7 48 -12 37 128 -10 111 -28
99 -21 -14 l6 -90 -29 6 c-18 4 -37 1 -48 -7 -24 -17 -192 -170 -296 -270 -67
-65 -76 -76 -51 -69 17 6 128 42 247 81 208 68 217 72 220 98 3 23 7 27 33 24
48 -5 117 -53 143 -100 27 -49 21 -66 -28 -77 -21 -5 -31 -15 -39 -38 -5 -18
-25 -81 -44 -142 -100 -314 -123 -395 -114 -395 5 0 278 302 365 404 18 21 31
44 28 51 -3 8 -8 30 -12 49 l-6 36 88 0 c147 0 188 -42 174 -175 -4 -38 -8
-60 -9 -47 0 13 -5 21 -10 18 -19 -12 -18 45 1 70 28 35 17 40 -15 8 -18 -18
-25 -34 -22 -48 29 -126 36 -189 31 -251 -5 -71 -4 -75 9 -20 6 24 15 -8 46
-154 21 -101 40 -189 42 -194 3 -9 55 231 73 336 8 46 15 41 25 -16 6 -42 7
-42 8 15 0 31 -3 58 -8 60 -8 3 8 119 28 203 10 40 9 43 -33 100 -18 24 2 61
41 78 41 18 68 21 151 19 l54 -2 -8 -32 c-16 -67 -14 -70 185 -292 106 -119
195 -215 197 -214 3 4 -162 544 -171 558 -3 5 -21 14 -40 20 -40 13 -43 29
-17 77 20 38 71 78 120 94 36 12 48 6 54 -26 2 -17 43 -33 237 -98 129 -42
236 -75 238 -73 4 3 -51 58 -132 131 -77 70 -125 114 -178 164 -52 48 -61 52
-91 47 l-34 -6 5 92 c3 67 2 89 -6 78 -6 -8 -11 -34 -11 -56 0 -23 -7 -61 -15
-84 -8 -23 -15 -50 -15 -59 1 -10 75 -62 195 -136 106 -66 192 -122 190 -123
-7 -7 -343 113 -358 128 -5 4 -3 17 5 29 11 19 9 24 -19 50 -45 40 -51 85 -24
174 26 88 26 119 3 140 -25 23 -94 22 -123 -2 l-23 -19 27 -41 c47 -71 36
-137 -39 -233 -54 -70 -83 -132 -91 -198 -6 -48 -3 -54 100 -242 58 -106 118
-215 133 -243 37 -67 15 -48 -95 80 -162 187 -192 228 -185 244 4 9 9 56 11
105 4 99 10 117 98 266 43 74 55 103 55 137 0 48 -25 73 -72 73 -24 0 -28 -5
-33 -37 -3 -21 -10 -54 -15 -73 -5 -19 -6 -47 -3 -61 6 -33 -17 -79 -57 -113
-37 -30 -52 -32 -85 -10 -16 11 -40 15 -69 12 l-45 -3 -6 40 c-3 22 -8 51 -11
65 -4 24 0 28 57 48 33 12 66 19 71 16 7 -4 8 -30 4 -69 -6 -58 -5 -63 15 -68
39 -10 99 32 99 68 0 12 -18 45 -39 72 l-40 49 41 55 c68 89 95 181 63 213
-23 23 -18 55 15 88 27 27 36 30 70 25 44 -6 55 3 46 38 -9 37 -34 55 -74 55
-47 0 -80 -23 -99 -68 l-15 -35 -17 39 c-23 51 -45 68 -87 68 -42 0 -74 -29
-77 -70 -2 -29 -1 -29 44 -26 41 3 49 0 72 -28 30 -35 33 -52 13 -69 -8 -6
-19 -32 -25 -57 -12 -46 -67 -115 -123 -155 l-28 -20 0 41 c0 42 2 43 54 55
27 6 28 7 11 25 -21 23 -84 27 -103 8 -9 -9 -12 -7 -12 9 0 11 7 26 15 33 9 7
15 29 15 51 0 22 2 39 5 39 2 0 15 -11 29 -25 30 -30 40 -31 66 -5 26 26 28
76 3 65 -41 -18 -58 -11 -67 26 -12 51 -1 86 34 104 26 13 30 21 30 55 0 60
-21 190 -31 190 -5 0 -9 -2 -9 -5 0 -3 -6 -38 -14 -78 -8 -40 -18 -91 -21
-114 -4 -24 -10 -45 -15 -48 -10 -6 -17 140 -34 650 -11 317 -14 363 -17 245z
m-58 -565 c-6 -143 -11 -277 -11 -297 0 -21 -3 -38 -7 -38 -13 0 -5 498 9 590
19 128 22 53 9 -255z m-36 -292 c-7 -50 -25 -58 -25 -10 0 17 4 27 8 20 4 -6
6 44 6 110 -1 67 1 149 5 182 4 43 7 15 9 -100 2 -88 0 -179 -3 -202z m44
-114 c-1 -166 -3 -189 -16 -177 -8 8 -16 41 -18 74 l-5 59 15 -45 14 -45 -5
40 c-2 22 -5 47 -6 55 -1 27 15 230 19 230 2 0 3 -86 2 -191z m-42 9 c-2 -13
-4 -5 -4 17 -1 22 1 32 4 23 2 -10 2 -28 0 -40z m-7 -109 c0 -28 -5 -49 -11
-49 -6 0 -9 21 -7 54 3 67 18 63 18 -5z m-251 -113 c26 -60 94 -132 158 -168
52 -29 62 -41 44 -52 -17 -11 -110 46 -156 95 -46 49 -84 118 -85 152 0 31 19
18 39 -27z m645 17 c-24 -100 -122 -207 -214 -233 -42 -12 -41 14 3 36 17 9
47 28 65 42 42 32 122 139 122 163 0 10 7 19 15 19 12 0 14 -7 9 -27z m-361
-58 c5 -28 4 -34 -3 -20 -8 19 -14 73 -6 64 2 -2 6 -22 9 -44z m52 -5 c-4 -23
-9 -39 -11 -37 -3 2 -2 23 2 46 4 23 9 40 11 37 3 -3 2 -23 -2 -46z m-28 -47
c-3 -10 -5 -4 -5 12 0 17 2 24 5 18 2 -7 2 -21 0 -30z m80 -115 c-2 -18 -4 -4
-4 32 0 36 2 50 4 33 2 -18 2 -48 0 -65z m-160 -10 c-2 -13 -4 -3 -4 22 0 25
2 35 4 23 2 -13 2 -33 0 -45z m190 -200 c-3 -7 -5 -2 -5 12 0 14 2 19 5 13 2
-7 2 -19 0 -25z m-187 -78 c0 -5 -8 -10 -17 -10 -15 0 -16 2 -3 10 19 12 20
12 20 0z m17 -77 c-2 -16 -4 -3 -4 27 0 30 2 43 4 28 2 -16 2 -40 0 -55z m163
73 c0 -2 -7 -6 -15 -10 -8 -3 -15 -1 -15 4 0 6 7 10 15 10 8 0 15 -2 15 -4z
m-103 -158 c-3 -8 -6 -5 -6 6 -1 11 2 17 5 13 3 -3 4 -12 1 -19z m-9 -363 l-1
-260 -23 105 c-40 182 -44 229 -28 345 7 58 19 115 26 128 12 21 12 20 19 -18
4 -22 7 -157 7 -300z"/>
<path d="M1560 2888 c0 -9 -3 -25 -6 -35 -5 -15 -4 -15 5 -3 8 11 11 -120 11
-467 0 -266 -3 -483 -7 -483 -4 0 -25 12 -46 27 l-40 28 6 230 c5 167 13 277
31 400 14 94 28 188 31 210 l5 40 -10 -35 c-31 -111 -61 -361 -71 -605 l-11
-259 21 -16 c13 -8 37 -27 55 -42 l33 -28 24 21 c13 12 37 28 53 36 l29 15 -6
222 c-4 121 -14 280 -22 351 -17 148 -62 385 -76 400 -6 5 -9 3 -9 -7z"/>
</g>
</svg>
