<?xml version="1.0" standalone="no"?>
<!DOCTYPE svg PUBLIC "-//W3C//DTD SVG 20010904//EN"
 "http://www.w3.org/TR/2001/REC-SVG-20010904/DTD/svg10.dtd">
<svg version="1.0" xmlns="http://www.w3.org/2000/svg"
 width="244.000000pt" height="305.000000pt" viewBox="0 0 244.000000 305.000000"
 preserveAspectRatio="xMidYMid meet">
<metadata>
Created by potrace 1.16, written by Peter Selinger 2001-2019
</metadata>
<g transform="translate(0.000000,305.000000) scale(0.100000,-0.100000)"
fill="#000000" stroke="none">
<path d="M930 2893 c0 -12 -3 -30 -6 -40 -5 -15 -4 -15 5 -3 8 11 11 -120 11
-468 l0 -483 -41 28 -41 28 6 225 c3 128 14 294 26 385 21 172 23 191 15 183
-16 -16 -47 -341 -54 -563 -8 -234 -7 -251 10 -263 10 -8 30 -25 46 -38 34
-29 35 -29 58 -4 21 23 38 25 54 6 10 -11 5 -15 -26 -23 -31 -7 -40 -14 -48
-41 -11 -39 -17 -40 -33 -4 -12 28 -48 52 -76 52 -28 0 -66 -41 -66 -71 0 -27
3 -29 38 -29 60 0 118 -72 86 -105 -16 -16 -21 -67 -10 -103 4 -11 0 -24 -9
-32 -8 -7 -15 -25 -15 -41 0 -22 -5 -29 -19 -29 -10 0 -31 -12 -46 -26 -25
-23 -27 -30 -21 -70 3 -24 8 -55 12 -69 11 -43 -21 -30 -34 14 -17 56 -15 106
8 146 26 47 25 59 -5 73 -92 42 -139 -18 -100 -128 19 -54 19 -113 0 -150 -8
-16 -43 -49 -78 -72 -129 -88 -271 -178 -281 -178 -6 0 50 61 124 135 l135
136 39 -7 39 -6 -6 68 c-4 38 -7 88 -7 112 0 25 -5 42 -12 42 -8 0 -9 -27 -5
-96 l7 -95 -28 6 c-25 5 -43 -11 -206 -175 -99 -99 -175 -180 -168 -180 9 0
315 112 425 155 9 4 17 18 17 31 0 19 5 24 25 24 14 0 25 -3 25 -6 0 -4 -23
-44 -51 -90 -29 -47 -50 -87 -47 -90 3 -3 45 18 93 46 48 27 92 50 96 50 11 0
29 -34 29 -54 0 -9 -15 -22 -33 -30 -37 -15 -30 4 -126 -341 -59 -210 -69
-258 -49 -235 24 29 203 255 232 293 15 21 30 36 33 34 4 -5 -25 -197 -44
-292 -3 -16 -3 -28 0 -25 3 3 54 99 113 214 100 197 107 213 105 264 l-2 55
33 -7 c31 -6 88 -55 88 -75 0 -5 -12 -24 -27 -41 l-26 -32 27 -161 c16 -89 39
-218 51 -287 13 -69 27 -143 31 -165 3 -22 8 -35 10 -30 6 17 114 625 114 643
0 9 -12 28 -27 44 -24 25 -25 30 -14 52 16 29 46 46 86 49 l30 2 -3 -52 c-3
-48 3 -64 89 -235 51 -101 101 -200 111 -221 11 -22 21 -37 23 -35 3 2 -9 78
-24 168 -16 91 -28 166 -26 168 2 2 11 -9 22 -23 10 -15 32 -43 48 -63 17 -21
46 -57 65 -82 58 -76 123 -151 127 -146 7 7 -143 546 -155 557 -4 4 -16 9 -27
11 -14 2 -21 12 -23 37 -6 60 9 59 129 -13 61 -37 113 -65 115 -63 3 3 -57
108 -106 184 -8 12 -11 25 -8 29 12 11 28 -6 28 -30 0 -18 10 -25 48 -38 26
-9 108 -40 182 -68 162 -62 192 -72 188 -60 -2 5 -75 84 -162 175 -148 155
-162 166 -189 161 l-28 -6 7 90 c8 114 -8 119 -24 8 -6 -46 -14 -96 -17 -113
-5 -29 0 -34 165 -149 94 -66 168 -121 166 -123 -2 -3 -67 21 -143 52 -76 31
-146 59 -156 62 -15 5 -18 12 -12 41 5 29 3 39 -14 51 -32 24 -38 97 -16 193
17 72 17 83 4 107 -19 34 -75 41 -109 13 l-24 -19 28 -48 c24 -40 27 -55 22
-92 -7 -52 -23 -86 -37 -77 -6 3 -8 27 -3 60 7 60 -9 97 -46 109 -13 4 -20 15
-20 30 0 34 -10 55 -26 55 -11 0 -13 11 -8 53 5 42 3 55 -10 66 -23 20 -20 36
16 77 27 31 36 35 64 31 37 -6 49 9 35 46 -23 60 -100 66 -134 10 -11 -19 -25
-16 -23 5 2 29 25 61 56 77 l30 16 0 97 c0 236 -29 568 -66 772 -16 83 -33
134 -34 100 0 -8 -3 -26 -6 -40 -4 -20 -3 -22 5 -10 8 11 11 -120 11 -462 0
-305 -4 -478 -10 -478 -5 0 -17 11 -26 26 -9 14 -23 23 -30 20 -11 -4 -14 21
-14 132 0 75 3 182 8 237 7 99 7 99 13 40 4 -39 6 -5 7 97 1 86 -2 159 -7 162
-9 6 -17 -90 -28 -374 l-8 -185 -5 110 c-3 61 -3 241 0 400 3 160 2 304 -1
320 -4 17 -7 27 -8 23 -15 -98 -41 -418 -46 -558 -3 -102 -11 -221 -17 -265
l-12 -80 -12 55 c-6 30 -12 45 -13 32 0 -13 -5 -20 -11 -17 -5 3 -10 45 -10
93 0 124 -50 445 -67 429 -18 -18 -54 -245 -62 -386 -4 -78 -10 -115 -17 -114
-7 1 -15 -20 -20 -50 l-7 -52 -10 63 c-5 34 -13 62 -17 62 -8 0 -30 -109 -30
-151 0 -34 -11 -69 -20 -69 -5 0 -8 222 -7 494 1 272 1 494 0 493 -2 -3 -33
-268 -33 -286 0 -38 -11 7 -35 144 -14 83 -30 154 -36 160 -5 5 -9 1 -9 -12z
m267 -625 c-3 -8 -6 -5 -6 6 -1 11 2 17 5 13 3 -3 4 -12 1 -19z m-8 -230 c-1
-95 -4 -153 -8 -128 -6 47 -2 300 5 300 2 0 3 -78 3 -172z m248 -120 c-3 -8
-6 -5 -6 6 -1 11 2 17 5 13 3 -3 4 -12 1 -19z m52 -32 c9 -11 6 -15 -15 -20
-31 -8 -37 -5 -28 18 8 20 28 21 43 2z m-404 -16 c3 -5 -1 -10 -10 -10 -9 0
-13 5 -10 10 3 6 8 10 10 10 2 0 7 -4 10 -10z m325 0 c0 -5 -4 -10 -10 -10 -5
0 -10 5 -10 10 0 6 5 10 10 10 6 0 10 -4 10 -10z m-290 -131 c-12 -21 -25 -25
-35 -8 -8 11 25 40 37 33 5 -3 3 -14 -2 -25z m251 21 c21 -12 26 -40 6 -40 -7
0 -18 5 -25 12 -12 12 -17 38 -6 38 3 0 14 -5 25 -10z m-352 -51 c15 -43 -1
-65 -30 -41 -22 19 -25 42 -7 60 18 18 25 15 37 -19z m470 9 c9 -23 -10 -58
-31 -58 -12 0 -10 54 4 68 16 16 17 16 27 -10z m-301 -53 c-3 -29 -18 -34 -18
-7 0 17 8 32 17 32 1 0 2 -11 1 -25z m-33 -32 c5 -12 16 -24 25 -26 9 -2 24
-21 34 -41 9 -20 19 -36 21 -36 3 0 11 16 20 36 8 20 24 38 35 41 11 3 20 14
20 23 0 10 9 21 20 25 26 8 63 -12 56 -32 -3 -8 -6 -21 -6 -30 0 -12 -8 -13
-37 -8 -50 8 -73 -10 -94 -71 l-17 -49 -12 47 c-15 58 -24 66 -80 70 -38 3
-45 6 -48 26 -2 13 -1 30 2 38 8 22 49 13 61 -13z m-192 -54 c10 -23 36 -68
58 -100 38 -57 47 -79 31 -79 -26 0 -122 160 -122 203 0 29 14 19 33 -24z
m106 -29 c23 -65 24 -77 2 -45 -11 17 -23 51 -26 75 -6 47 0 39 24 -30z m351
-4 c-22 -67 -36 -56 -15 11 12 41 21 57 23 44 2 -12 -2 -37 -8 -55z m86 -29
c-26 -53 -84 -123 -93 -113 -3 3 13 36 35 73 23 37 49 86 59 108 17 40 17 40
21 12 2 -17 -7 -50 -22 -80z m-346 -28 c18 -42 5 -47 -19 -8 -25 40 -26 50 -7
43 8 -3 20 -19 26 -35z m170 -4 c-23 -38 -36 -41 -25 -6 7 24 35 54 42 47 3
-3 -5 -21 -17 -41z m224 -57 c9 -36 7 -106 -4 -113 -12 -7 -11 -9 -16 73 -4
61 8 84 20 40z m-612 -52 c-2 -31 -8 -56 -13 -56 -10 0 -13 103 -3 113 14 14
19 -3 16 -57z m241 0 c3 -8 3 -17 0 -20 -9 -9 -34 15 -27 25 8 13 21 11 27 -5z
m130 -11 c-21 -16 -28 -12 -20 9 4 9 13 13 22 10 14 -6 13 -8 -2 -19z m-280
-79 c-5 -45 -2 -57 16 -75 33 -33 53 -18 45 35 -8 54 -3 62 37 56 17 -2 26 -8
20 -11 -6 -4 -12 -18 -13 -31 -2 -18 4 -28 25 -38 20 -10 27 -20 25 -35 -3
-21 -8 -22 -73 -18 -38 1 -73 5 -77 7 -12 8 -29 111 -22 138 11 46 23 28 17
-28z m427 2 c0 -16 -4 -28 -9 -28 -10 0 -21 61 -14 74 8 13 23 -16 23 -46z
m-81 -25 c-1 -27 -1 -54 0 -60 2 -18 21 -16 43 4 22 19 37 9 22 -15 -8 -12
-27 -18 -64 -20 -30 -1 -59 -7 -66 -12 -8 -7 -15 -5 -23 4 -19 22 -9 49 19 56
30 7 38 41 15 63 -14 14 -12 16 12 20 16 2 32 5 36 6 5 0 8 -20 6 -46z m301 2
c0 -16 -26 -55 -37 -55 -17 0 -16 5 3 35 14 22 34 34 34 20z m-840 -71 c0 -8
-5 -12 -10 -9 -6 4 -8 11 -5 16 9 14 15 11 15 -7z m651 -31 c-8 -15 -10 -15
-11 -2 0 17 10 32 18 25 2 -3 -1 -13 -7 -23z m-491 7 c0 -5 -4 -10 -10 -10 -5
0 -10 5 -10 10 0 6 5 10 10 10 6 0 10 -4 10 -10z m593 -95 c-8 -38 -11 -81 -8
-95 4 -14 49 -113 102 -220 104 -213 125 -260 119 -260 -7 0 -203 265 -220
298 -39 76 -39 290 0 333 10 11 18 18 20 17 1 -2 -5 -34 -13 -73z m-686 -51
c-3 -24 -28 -88 -62 -155 -32 -63 -90 -176 -128 -252 -39 -75 -72 -135 -75
-133 -2 3 5 33 16 68 11 35 32 108 47 163 60 219 60 220 104 233 46 14 51 24
59 122 l5 75 19 -40 c12 -26 17 -55 15 -81z m897 49 c24 -38 42 -69 41 -71 -7
-8 -126 118 -121 127 15 24 38 8 80 -56z m-1028 26 c8 -13 -14 -32 -88 -73
l-53 -30 50 57 c49 55 77 69 91 46z m459 -159 c3 0 12 15 20 33 9 19 14 25 15
14 0 -18 -27 -77 -35 -77 -8 0 -35 59 -35 77 1 11 6 5 15 -14 8 -18 17 -33 20
-33z m270 0 c23 -9 26 -14 20 -38 -12 -42 -8 -61 20 -103 24 -37 53 -152 68
-269 6 -43 -129 335 -140 393 -6 30 -5 31 32 17z m-471 -42 c5 -39 -1 -57 -74
-207 -45 -90 -83 -162 -85 -159 -4 4 31 117 120 396 10 28 33 10 39 -30z m132
-95 c-4 -9 -2 -61 5 -114 16 -138 6 -145 -16 -11 -14 90 -15 115 -5 127 16 20
24 19 16 -2z"/>
<path d="M912 2790 c0 -19 2 -27 5 -17 2 9 2 25 0 35 -3 9 -5 1 -5 -18z"/>
<path d="M1491 2739 c-7 -44 -10 -83 -8 -85 2 -3 10 32 17 76 7 44 10 83 7 86
-2 3 -10 -32 -16 -77z"/>
<path d="M1062 2750 c0 -19 2 -27 5 -17 2 9 2 25 0 35 -3 9 -5 1 -5 -18z"/>
<path d="M1452 2680 c0 -19 2 -27 5 -17 2 9 2 25 0 35 -3 9 -5 1 -5 -18z"/>
<path d="M1072 2645 c0 -16 2 -22 5 -12 2 9 2 23 0 30 -3 6 -5 -1 -5 -18z"/>
<path d="M1083 2520 c0 -36 2 -50 4 -32 2 17 2 47 0 65 -2 17 -4 3 -4 -33z"/>
<path d="M1094 2290 c0 -58 1 -81 3 -52 2 28 2 76 0 105 -2 28 -3 5 -3 -53z"/>
<path d="M1483 2040 c0 -36 2 -50 4 -32 2 17 2 47 0 65 -2 17 -4 3 -4 -33z"/>
</g>
</svg>
