<?xml version="1.0" standalone="no"?>
<!DOCTYPE svg PUBLIC "-//W3C//DTD SVG 20010904//EN"
 "http://www.w3.org/TR/2001/REC-SVG-20010904/DTD/svg10.dtd">
<svg version="1.0" xmlns="http://www.w3.org/2000/svg"
 width="244.000000pt" height="305.000000pt" viewBox="0 0 244.000000 305.000000"
 preserveAspectRatio="xMidYMid meet">
<metadata>
Created by potrace 1.16, written by Peter Selinger 2001-2019
</metadata>
<g transform="translate(0.000000,305.000000) scale(0.100000,-0.100000)"
fill="#000000" stroke="none">
<path d="M1536 2895 c-9 -25 -7 -47 4 -40 7 4 10 -157 10 -475 0 -533 5 -498
-61 -447 l-30 22 6 215 c5 195 33 484 55 585 10 41 13 91 6 84 -2 -2 -16 -74
-31 -159 -26 -155 -42 -368 -46 -619 l-2 -134 39 -28 c59 -43 58 -43 108 -7
l47 33 -5 235 c-3 129 -13 294 -21 365 -14 115 -61 374 -69 383 -2 1 -6 -4
-10 -13z"/>
<path d="M916 2867 c-4 -19 -2 -33 4 -35 11 -4 15 -932 4 -932 -8 0 -68 42
-77 55 -18 25 13 526 48 755 13 89 14 135 1 73 -36 -171 -65 -502 -66 -750 l0
-112 28 -15 c15 -8 36 -24 46 -35 l19 -21 26 23 c14 13 37 31 49 40 24 15 24
17 23 184 -2 196 -23 443 -52 610 -11 65 -23 133 -26 151 -8 44 -19 48 -27 9z"/>
<path d="M1111 2880 c-1 -14 -1 -200 -1 -414 1 -346 -1 -387 -14 -373 -11 11
-16 42 -19 113 -2 82 -3 72 -6 -56 -2 -85 -6 -184 -10 -220 l-6 -65 -33 -1
c-40 -1 -68 -25 -83 -72 l-12 -35 -19 39 c-24 50 -43 64 -89 64 -43 0 -69 -27
-69 -71 0 -26 2 -27 46 -26 37 2 48 -2 65 -23 29 -38 34 -69 14 -84 -34 -25
-6 -132 57 -220 35 -48 35 -66 3 -96 -31 -29 -45 -77 -32 -108 13 -29 -1 -42
-19 -17 -8 11 -14 40 -13 70 1 73 -14 146 -32 158 -26 16 -65 0 -78 -32 -16
-37 -1 -97 40 -164 16 -26 29 -51 29 -56 0 -4 9 -20 21 -35 16 -20 19 -34 14
-54 -7 -26 -8 -26 -20 16 -7 23 -32 67 -55 98 -74 98 -87 161 -50 234 11 22
20 46 20 54 0 21 -31 36 -74 36 -67 0 -80 -41 -49 -162 16 -61 16 -72 3 -110
-17 -48 -37 -62 -360 -256 -14 -9 36 46 110 122 l135 137 43 -5 43 -6 -7 80
c-11 132 -23 159 -21 50 l1 -95 -30 3 c-26 2 -49 -17 -204 -173 -96 -96 -172
-175 -170 -175 21 0 436 153 442 163 4 6 8 20 8 30 0 22 15 21 65 -2 65 -29
117 -104 102 -145 -3 -8 -18 -16 -34 -18 -27 -3 -29 -7 -110 -288 -45 -156
-81 -286 -79 -287 2 -2 25 22 52 54 26 32 56 67 66 78 36 42 176 212 215 262
40 51 41 53 28 90 -7 21 -11 41 -8 45 2 5 27 8 55 8 50 0 50 0 45 -28 -3 -16
-8 -65 -11 -108 -5 -78 -5 -78 8 20 10 75 18 103 32 113 17 12 19 12 22 -6 2
-10 -6 -57 -16 -103 -11 -45 -30 -137 -43 -203 -19 -95 -25 -113 -30 -90 l-7
30 -1 -30 c-1 -16 -4 -55 -6 -85 -5 -44 10 -10 70 168 62 185 74 231 69 263
-7 45 3 49 34 16 28 -30 28 -33 -6 -72 l-29 -32 22 -134 c12 -74 40 -222 61
-329 l39 -195 21 110 c37 193 94 499 98 524 2 15 -6 34 -25 56 -35 39 -35 45
-6 73 32 30 36 28 30 -15 -3 -29 13 -90 66 -248 38 -115 70 -200 70 -187 1 13
-8 96 -18 185 -11 89 -23 195 -27 235 l-7 72 51 0 c28 0 53 -4 57 -10 3 -5 -1
-24 -8 -43 -11 -25 -12 -39 -4 -53 11 -20 124 -161 143 -179 6 -5 55 -64 109
-130 124 -151 119 -146 111 -110 -17 80 -150 523 -162 543 -8 12 -23 22 -35
22 -46 0 -35 68 20 120 36 34 105 65 123 54 4 -3 8 -15 8 -28 0 -20 13 -28 98
-59 242 -88 355 -127 358 -124 3 2 -77 84 -177 181 -170 167 -182 177 -211
171 l-30 -7 7 91 c6 65 4 91 -4 91 -6 0 -11 -16 -11 -38 0 -21 -7 -64 -15 -95
-8 -32 -15 -66 -15 -76 0 -11 62 -58 186 -141 102 -68 188 -128 190 -132 3 -5
-19 1 -48 13 -29 11 -111 43 -181 71 l-128 50 7 33 c5 29 2 38 -21 57 -38 33
-43 89 -16 176 26 85 26 104 3 132 -30 38 -132 24 -132 -18 0 -9 12 -35 25
-57 14 -22 25 -52 25 -66 0 -39 -26 -97 -71 -156 -35 -47 -54 -81 -75 -138 -7
-19 -8 -19 -11 2 -4 22 8 51 81 186 41 78 46 127 16 157 -25 25 -66 26 -79 2
-5 -10 -13 -58 -16 -108 -7 -89 -29 -150 -45 -124 -4 7 -2 24 5 37 16 31 4 71
-31 104 -28 26 -31 61 -8 80 27 22 75 128 81 178 4 36 1 50 -11 60 -24 20 -20
42 15 79 24 26 38 32 70 32 36 0 39 2 39 28 0 17 -10 37 -23 50 -45 43 -105
20 -138 -52 l-18 -41 -6 30 c-13 61 -50 86 -113 78 -42 -6 -49 -14 -65 -88 -3
-11 -5 1 -6 26 -1 40 3 48 30 68 31 23 31 25 25 85 -4 33 -11 192 -16 351 -17
534 -24 558 -31 100 -6 -403 -12 -481 -31 -453 -6 8 -7 -5 -3 -37 4 -32 3 -46
-3 -40 -5 6 -12 93 -16 195 -6 195 -15 291 -40 405 -31 141 -30 141 -54 40
-31 -136 -43 -233 -51 -420 l-8 -170 -2 145 c-3 302 -33 905 -40 810z m119
-853 c0 -270 -3 -406 -10 -402 -6 4 -11 78 -12 183 0 99 -4 155 -7 127 -5 -37
-8 -12 -14 100 -7 137 -4 196 19 373 16 125 24 4 24 -381z m-83 -144 c-3 -10
-5 -4 -5 12 0 17 2 24 5 18 2 -7 2 -21 0 -30z m-39 -25 c13 -13 17 -58 4 -58
-4 0 -12 16 -18 35 -11 36 -7 44 14 23z m82 -74 c0 -35 -4 -64 -8 -64 -4 0 -8
31 -8 69 0 38 4 67 8 65 4 -3 8 -34 8 -70z m-116 -30 c9 -8 16 -21 16 -27 0
-8 -4 -7 -12 1 -18 18 -38 15 -38 -5 0 -10 9 -32 20 -50 20 -34 29 -91 16
-111 -4 -6 0 -23 9 -36 9 -14 15 -34 13 -44 -5 -32 -94 87 -103 137 -4 22 -13
45 -21 52 -21 17 -17 40 13 71 30 31 64 36 87 12z m410 -15 c30 -35 33 -54 11
-67 -9 -4 -18 -22 -20 -40 -5 -42 -26 -79 -73 -132 l-39 -44 5 32 c2 18 12 38
22 45 16 11 16 15 4 32 -21 28 -17 78 6 98 12 10 20 29 20 47 0 32 -9 37 -28
18 -13 -13 -16 0 -4 18 6 11 31 20 59 23 6 0 23 -13 37 -30z m-308 -129 c13
-5 24 -14 24 -19 0 -11 -35 -21 -47 -12 -12 7 -24 106 -15 116 4 4 8 -12 10
-35 3 -33 8 -43 28 -50z m157 26 c-7 -50 -18 -65 -43 -59 -28 7 -25 22 6 33
21 8 25 16 24 43 -3 46 -1 54 9 38 5 -7 6 -32 4 -55z m-133 24 c0 -21 -5 -30
-16 -30 -9 0 -13 5 -10 13 3 6 9 20 12 30 9 25 14 21 14 -13z m-245 -93 c26
-55 32 -87 16 -87 -11 0 -51 93 -51 119 0 32 7 25 35 -32z m162 21 c-3 -7 -5
-2 -5 12 0 14 2 19 5 13 2 -7 2 -19 0 -25z m240 0 c-3 -7 -5 -2 -5 12 0 14 2
19 5 13 2 -7 2 -19 0 -25z m188 -5 c-3 -21 -19 -58 -33 -83 -27 -45 -27 -45
-30 -17 -2 16 3 36 11 45 8 10 20 34 28 55 7 20 17 37 22 37 5 0 6 -17 2 -37z
m-300 -68 c-7 -28 -14 -43 -14 -35 -1 8 -4 26 -8 39 -4 16 -3 22 5 17 6 -3 14
3 17 15 13 41 14 12 0 -36z m-90 -56 c31 -80 28 -105 -5 -32 -22 49 -36 103
-28 103 3 0 17 -32 33 -71z m190 40 c-10 -43 -45 -122 -52 -115 -4 3 1 23 9
43 9 21 22 53 28 71 16 41 24 42 15 1z m-295 -63 c0 -8 -4 -18 -10 -21 -5 -3
-10 3 -10 14 0 12 5 21 10 21 6 0 10 -6 10 -14z m390 -12 c0 -8 -4 -14 -10
-14 -5 0 -10 9 -10 21 0 11 5 17 10 14 6 -3 10 -13 10 -21z m-326 -37 c6 -9 7
-19 3 -23 -9 -9 -37 15 -37 33 0 18 20 12 34 -10z m255 -18 c-24 -14 -36 11
-14 27 18 13 20 13 23 -2 2 -9 -2 -20 -9 -25z m-305 -149 c6 -43 5 -42 -14 15
-11 33 -19 71 -19 85 1 20 4 16 14 -15 7 -23 15 -61 19 -85z m356 23 c-18 -64
-24 -45 -8 29 8 40 14 54 16 39 2 -13 -2 -44 -8 -68z m-94 49 c-9 -9 -37 8
-31 18 5 8 11 7 21 -1 8 -6 12 -14 10 -17z m-208 -94 c9 -9 15 -8 26 7 8 11
19 16 30 12 21 -8 21 -47 -1 -47 -9 0 -24 -7 -34 -16 -16 -14 -18 -12 -33 28
-16 46 -20 69 -16 108 2 14 6 1 9 -27 4 -29 12 -58 19 -65z m48 97 c-21 -16
-32 -13 -21 4 3 6 14 11 23 11 15 -1 15 -2 -2 -15z m199 -102 c-17 -43 -28
-52 -40 -33 -3 6 -15 10 -26 10 -12 0 -19 7 -19 20 0 23 31 41 38 22 6 -19 30
-14 42 7 5 11 11 35 12 53 l1 33 4 -34 c3 -19 -3 -54 -12 -78z m-405 -9 c0 -7
-5 -16 -10 -19 -15 -9 -40 13 -34 30 7 16 44 7 44 -11z m558 -22 c2 -15 -2
-22 -12 -22 -11 0 -16 9 -16 26 0 31 23 28 28 -4z m-628 -86 c0 -8 -9 -24 -21
-37 -16 -19 -19 -20 -15 -6 3 11 9 30 12 43 6 24 24 24 24 0z m710 -49 c0 -5
-4 -5 -10 -2 -5 3 -10 14 -10 23 0 15 2 15 10 2 5 -8 10 -19 10 -23z m0 -41
c0 -11 29 -70 178 -359 39 -76 65 -133 57 -127 -8 6 -51 59 -97 117 -46 57
-105 132 -131 165 -44 56 -48 64 -41 97 4 20 6 60 5 90 -2 49 -1 53 13 42 9
-8 16 -19 16 -25z m-710 9 c0 -5 -69 -135 -80 -150 -4 -5 -44 -82 -90 -170
-80 -156 -108 -202 -98 -160 3 11 32 108 63 217 50 170 61 198 82 207 14 6 28
9 33 6 5 -3 24 8 42 24 31 28 48 38 48 26z m360 -51 c0 -14 -14 -33 -21 -28
-15 9 -10 31 6 31 8 0 15 -1 15 -3z m140 -16 c0 -5 39 -202 59 -298 11 -52 19
-95 17 -97 -1 -2 -20 52 -41 119 -21 68 -44 142 -52 166 -14 43 -9 112 8 112
5 0 9 -1 9 -2z m-161 -300 l-2 -253 -13 130 -12 130 3 -115 c4 -137 -3 -113
-60 202 l-12 67 39 43 c22 24 37 35 34 25 -15 -46 -14 -67 1 -24 9 26 18 47
20 47 2 0 2 -114 2 -252z"/>
<path d="M1213 2300 c0 -47 2 -66 4 -42 2 23 2 61 0 85 -2 23 -4 4 -4 -43z"/>
<path d="M1202 2020 c0 -19 2 -27 5 -17 2 9 2 25 0 35 -3 9 -5 1 -5 -18z"/>
<path d="M1193 705 c0 -33 2 -45 4 -27 2 18 2 45 0 60 -2 15 -4 0 -4 -33z"/>
<path d="M1352 2880 c0 -14 2 -19 5 -12 2 6 2 18 0 25 -3 6 -5 1 -5 -13z"/>
<path d="M1343 2745 c0 -22 2 -30 4 -17 2 12 2 30 0 40 -3 9 -5 -1 -4 -23z"/>
<path d="M1093 2695 c0 -22 2 -30 4 -17 2 12 2 30 0 40 -3 9 -5 -1 -4 -23z"/>
<path d="M1333 2580 c0 -25 2 -35 4 -22 2 12 2 32 0 45 -2 12 -4 2 -4 -23z"/>
<path d="M1083 2525 c0 -38 2 -53 4 -32 2 20 2 52 0 70 -2 17 -4 1 -4 -38z"/>
<path d="M1324 2280 c0 -74 1 -105 3 -67 2 37 2 97 0 135 -2 37 -3 6 -3 -68z"/>
<path d="M1003 685 c0 -22 2 -30 4 -17 2 12 2 30 0 40 -3 9 -5 -1 -4 -23z"/>
<path d="M993 605 c0 -22 2 -30 4 -17 2 12 2 30 0 40 -3 9 -5 -1 -4 -23z"/>
</g>
</svg>
