<?xml version="1.0" standalone="no"?>
<!DOCTYPE svg PUBLIC "-//W3C//DTD SVG 20010904//EN"
 "http://www.w3.org/TR/2001/REC-SVG-20010904/DTD/svg10.dtd">
<svg version="1.0" xmlns="http://www.w3.org/2000/svg"
 width="244.000000pt" height="305.000000pt" viewBox="0 0 244.000000 305.000000"
 preserveAspectRatio="xMidYMid meet">
<metadata>
Created by potrace 1.16, written by Peter Selinger 2001-2019
</metadata>
<g transform="translate(0.000000,305.000000) scale(0.100000,-0.100000)"
fill="#000000" stroke="none">
<path d="M1537 2832 c-47 -210 -77 -518 -77 -785 0 -123 1 -128 23 -136 12 -5
31 -18 41 -30 25 -28 35 -27 76 9 19 16 41 29 49 30 12 0 13 36 7 228 -7 227
-23 402 -51 562 -8 47 -15 89 -15 94 0 5 -2 7 -5 4 -3 -2 4 -65 15 -139 26
-179 38 -318 46 -530 l6 -175 -40 -32 c-22 -18 -43 -32 -46 -32 -3 0 -6 217
-6 483 0 329 4 477 10 467 8 -11 9 -7 4 15 -12 53 -19 46 -37 -33z"/>
<path d="M907 2893 c-14 -22 -57 -283 -72 -433 -7 -80 -17 -231 -20 -335 l-7
-191 55 -41 c49 -37 57 -40 69 -26 7 9 28 25 47 37 l34 22 -2 184 c-1 102 -8
250 -16 329 -15 143 -52 371 -62 381 -3 3 -3 -11 1 -30 35 -196 53 -386 62
-635 l7 -200 -40 -28 c-21 -15 -42 -27 -46 -27 -4 0 -7 217 -6 483 0 278 4
474 9 462 10 -24 11 -1 1 35 -5 17 -9 21 -14 13z"/>
<path d="M1102 2880 c0 -14 2 -19 5 -12 2 6 2 18 0 25 -3 6 -5 1 -5 -13z"/>
<path d="M1361 2855 c-1 -11 -1 -207 -1 -435 0 -228 -2 -430 -6 -447 -15 -74
-24 -23 -26 145 l-2 177 -6 -135 -5 -135 -7 143 c-5 84 -18 194 -33 266 -37
186 -38 188 -64 76 -33 -148 -40 -203 -48 -373 -3 -86 -8 -156 -9 -154 -2 2
-8 160 -14 353 -17 520 -27 567 -29 127 -1 -307 -3 -371 -14 -367 -24 9 -34
-19 -41 -109 -5 -63 -4 -93 5 -103 9 -11 8 -14 -2 -15 -87 -5 -115 -22 -135
-82 l-11 -32 -15 35 c-22 51 -52 74 -96 73 -43 -1 -72 -31 -72 -75 0 -27 2
-29 33 -23 41 7 76 -11 101 -54 18 -31 18 -35 3 -46 -39 -28 -10 -146 57 -234
14 -19 26 -40 26 -46 0 -6 -14 -28 -32 -49 -30 -37 -40 -77 -28 -115 3 -7 0
-15 -6 -18 -17 -6 -35 46 -28 81 3 18 1 50 -4 72 -6 21 -13 51 -16 67 -5 22
-12 27 -36 27 -17 0 -39 -9 -51 -21 -33 -33 -20 -91 46 -206 33 -57 54 -105
52 -117 -3 -17 -8 -12 -24 24 -12 25 -41 71 -66 103 -32 40 -50 75 -58 111
-11 51 -10 57 15 101 14 26 26 54 26 61 0 33 -105 48 -134 18 -21 -21 -20 -59
5 -149 24 -88 16 -136 -27 -170 -24 -19 -25 -24 -14 -44 6 -13 8 -27 3 -31 -4
-5 -64 -29 -133 -55 -69 -25 -142 -53 -163 -62 -69 -30 -48 -6 50 57 187 122
264 173 269 181 2 5 -2 35 -11 68 -8 32 -15 77 -15 99 0 23 -5 44 -11 48 -8 5
-10 -19 -8 -82 l4 -89 -28 3 c-34 4 -42 -3 -245 -197 -85 -80 -149 -147 -144
-149 8 -2 431 140 452 153 5 3 10 17 10 31 0 28 10 29 65 6 57 -24 79 -42 99
-79 24 -48 21 -69 -13 -81 -16 -6 -34 -20 -40 -31 -20 -36 -161 -510 -161
-538 0 -8 86 84 190 204 202 231 194 217 174 295 l-6 28 55 0 56 0 -4 -67 c-4
-66 -4 -66 4 -16 5 29 11 60 15 68 6 16 31 20 40 7 2 -4 -8 -62 -23 -127 -16
-66 -37 -160 -47 -210 -16 -78 -20 -86 -26 -60 -5 23 -6 19 -4 -17 2 -26 -1
-51 -6 -56 -5 -5 -8 -22 -6 -37 2 -18 27 45 78 195 41 121 73 229 72 238 -1 9
-3 26 -4 37 -4 29 21 25 46 -8 l21 -29 -33 -29 c-17 -16 -32 -37 -32 -47 0
-15 115 -611 123 -636 4 -11 127 602 127 629 0 9 -14 33 -30 52 -28 32 -29 35
-14 58 29 44 44 39 44 -13 0 -32 20 -107 61 -227 65 -193 78 -224 79 -189 0
11 -11 110 -25 220 -14 109 -25 214 -25 232 l0 32 56 0 56 0 -7 -37 c-5 -21
-8 -45 -9 -54 -1 -15 53 -82 239 -293 44 -51 93 -107 108 -125 15 -18 30 -31
33 -29 2 3 -14 65 -36 139 -22 74 -59 199 -82 278 -43 144 -43 144 -80 159
-46 18 -48 37 -12 93 19 30 40 47 81 65 63 28 83 26 83 -11 0 -14 1 -25 3 -25
2 0 108 -36 235 -79 128 -44 232 -76 232 -72 0 4 -21 27 -47 51 -27 24 -110
101 -185 172 -129 122 -139 129 -168 123 l-31 -7 7 91 c4 59 3 91 -3 91 -10 0
-23 -98 -23 -173 l0 -39 40 7 c39 7 44 4 93 -41 154 -142 238 -224 229 -224
-6 0 -73 37 -149 82 -76 45 -150 89 -164 98 -48 28 -66 45 -83 77 -21 41 -20
64 4 143 25 81 25 95 0 120 -26 26 -89 27 -120 2 l-23 -19 27 -45 c46 -79 35
-133 -50 -245 -42 -54 -57 -84 -63 -120 l-8 -48 -12 29 c-10 25 -7 35 31 103
80 141 87 158 88 199 0 47 -22 74 -61 74 -35 0 -49 -18 -49 -63 0 -21 -5 -47
-10 -57 -6 -11 -7 -28 -1 -42 10 -27 1 -55 -29 -86 -29 -31 -35 -23 -14 21 20
43 14 71 -26 117 -36 42 -37 49 -6 85 62 72 108 217 72 231 -26 10 -19 53 14
86 25 25 37 29 72 27 47 -4 56 7 38 50 -12 30 -46 51 -82 51 -23 0 -88 -63
-88 -86 0 -27 -17 -14 -32 25 -13 31 -23 41 -51 49 -19 5 -50 7 -68 3 -28 -6
-35 -13 -46 -46 -7 -25 -12 -33 -13 -20 -4 37 2 50 33 76 l31 26 -12 114 c-6
63 -14 220 -18 349 -5 206 -28 550 -33 495z m-85 -534 c13 -104 15 -166 8
-289 l-8 -157 -7 170 c-4 94 -10 226 -13 294 -3 68 -3 122 -1 119 3 -3 13 -65
21 -137z m-126 -423 c0 -23 -3 -29 -11 -21 -6 6 -8 20 -4 32 9 30 15 26 15
-11z m190 -13 c0 -8 -4 -17 -10 -20 -6 -4 -10 5 -10 20 0 15 4 24 10 20 6 -3
10 -12 10 -20z m-233 -71 c2 -37 1 -37 -6 -8 -4 17 -11 37 -16 44 -5 8 -3 11
6 8 8 -3 15 -20 16 -44z m189 -23 c0 -38 -4 -67 -8 -65 -15 10 -9 134 7 134 0
0 1 -31 1 -69z m-223 -40 c8 -8 5 -11 -12 -11 -22 0 -23 -3 -18 -37 4 -20 13
-41 22 -45 18 -11 20 -79 3 -96 -10 -10 -10 -15 -1 -20 15 -9 36 -63 27 -71
-8 -9 -82 78 -99 118 -8 18 -15 41 -15 51 0 10 -7 23 -15 30 -22 18 -18 40 12
72 27 28 72 33 96 9z m422 -6 c28 -27 32 -57 11 -74 -7 -6 -16 -28 -20 -49 -6
-37 -87 -152 -108 -152 -15 0 0 53 20 68 12 9 13 15 4 24 -17 17 -16 98 2 98
15 0 39 57 30 72 -3 5 -15 6 -26 2 -14 -4 -19 -2 -16 7 4 12 35 26 66 28 7 1
24 -10 37 -24z m-317 -136 c26 -10 26 -11 9 -24 -35 -26 -57 1 -57 71 0 47 15
51 18 4 3 -34 8 -43 30 -51z m156 28 c-6 -55 -15 -67 -46 -60 -24 7 -18 27 10
31 19 3 22 10 22 48 0 28 4 43 10 39 6 -4 8 -27 4 -58z m-34 -3 c0 -2 -7 -4
-15 -4 -10 0 -15 10 -15 33 l0 32 15 -29 c8 -15 15 -30 15 -32z m-370 -29 c0
-9 9 -33 20 -55 21 -42 26 -75 10 -65 -31 19 -65 135 -40 135 6 0 10 -7 10
-15z m177 -7 c-3 -8 -6 -5 -6 6 -1 11 2 17 5 13 3 -3 4 -12 1 -19z m458 -10
c-7 -35 -49 -113 -65 -123 -19 -12 -10 26 21 91 34 69 55 85 44 32z m-316 -62
c-2 -23 -17 -60 -18 -46 -1 8 -4 24 -7 36 -4 14 -1 21 10 21 9 0 16 -5 15 -11z
m-101 -58 c11 -29 23 -61 27 -70 4 -10 3 -18 -1 -18 -5 0 -19 24 -31 53 -30
73 -34 87 -24 87 4 0 17 -24 29 -52z m181 -29 c-13 -32 -27 -59 -31 -59 -11 0
-11 3 19 76 15 36 29 61 31 54 2 -6 -6 -38 -19 -71z m-293 -26 c-11 -11 -19 6
-11 24 8 17 8 17 12 0 3 -10 2 -21 -1 -24z m405 0 c-9 -16 -10 -14 -11 12 0
21 3 26 11 18 8 -8 8 -16 0 -30z m-321 -39 c0 -11 -6 -14 -16 -10 -9 3 -18 6
-20 6 -2 0 -4 9 -4 20 0 18 3 19 20 10 11 -6 20 -18 20 -26z m258 -5 c-19 -13
-28 -11 -28 6 0 21 34 38 38 18 2 -9 -2 -19 -10 -24z m-328 -104 c6 -27 14
-59 17 -70 4 -14 2 -17 -5 -10 -11 11 -42 109 -42 134 0 28 17 -3 30 -54z
m375 -30 c-24 -80 -29 -62 -8 26 10 42 19 65 21 52 2 -11 -4 -47 -13 -78z
m-101 70 c3 -9 0 -15 -9 -15 -8 0 -15 7 -15 15 0 8 4 15 9 15 5 0 11 -7 15
-15z m153 -22 c-3 -10 -5 -4 -5 12 0 17 2 24 5 18 2 -7 2 -21 0 -30z m-307 17
c0 -5 -7 -10 -15 -10 -8 0 -15 5 -15 10 0 6 7 10 15 10 8 0 15 -4 15 -10z
m214 -58 c-20 -90 -36 -110 -64 -78 -6 8 -18 12 -27 9 -11 -4 -14 0 -11 18 2
16 11 25 26 27 12 2 22 -1 22 -7 0 -17 27 -13 34 5 3 9 6 34 7 57 0 36 2 39
10 19 5 -13 6 -36 3 -50z m-289 19 c1 -21 7 -47 15 -56 13 -16 15 -16 26 0 8
11 20 15 33 10 32 -10 25 -33 -16 -50 -34 -14 -38 -14 -47 2 -23 38 -36 133
-18 133 4 0 7 -18 7 -39z m-145 -77 c0 -19 -28 -30 -42 -16 -6 6 -8 17 -5 26
7 18 47 10 47 -10z m579 -13 c8 -15 7 -20 -5 -25 -23 -9 -24 -8 -24 19 0 30
15 33 29 6z m-668 -124 c-8 -8 -11 -5 -11 9 0 27 14 41 18 19 2 -9 -1 -22 -7
-28z m760 -19 c11 -21 11 -22 -4 -9 -10 7 -17 17 -17 22 0 15 9 10 21 -13z
m-735 -110 l4 -83 -109 -130 c-60 -71 -125 -148 -145 -170 l-37 -40 33 65
c109 209 241 450 245 446 3 -2 6 -42 9 -88z m754 57 c12 -13 25 -24 29 -23 3
1 23 -2 43 -6 37 -8 38 -10 58 -80 12 -39 25 -82 30 -96 27 -76 81 -263 78
-271 -2 -5 -45 66 -96 158 -51 92 -110 198 -132 235 -59 102 -64 140 -10 83z
m-390 -31 c0 -14 -14 -33 -21 -28 -15 9 -10 31 6 31 8 0 15 -1 15 -3z m183
-191 c20 -98 37 -185 36 -193 0 -8 -23 53 -50 135 -53 165 -62 235 -30 235 4
0 23 -80 44 -177z m-124 72 c34 -39 36 -50 20 -110 -5 -22 -23 -105 -38 -185
-33 -162 -36 -145 -18 99 10 125 10 171 1 197 -15 44 -4 43 35 -1z"/>
<path d="M1091 2804 c0 -11 3 -14 6 -6 3 7 2 16 -1 19 -3 4 -6 -2 -5 -13z"/>
<path d="M1342 2710 c0 -19 2 -27 5 -17 2 9 2 25 0 35 -3 9 -5 1 -5 -18z"/>
<path d="M1083 2620 c0 -25 2 -35 4 -22 2 12 2 32 0 45 -2 12 -4 2 -4 -23z"/>
<path d="M1333 2495 c0 -27 2 -38 4 -22 2 15 2 37 0 50 -2 12 -4 0 -4 -28z"/>
<path d="M1073 2425 c0 -22 2 -30 4 -17 2 12 2 30 0 40 -3 9 -5 -1 -4 -23z"/>
<path d="M1003 765 c0 -22 2 -30 4 -17 2 12 2 30 0 40 -3 9 -5 -1 -4 -23z"/>
<path d="M993 685 c0 -22 2 -30 4 -17 2 12 2 30 0 40 -3 9 -5 -1 -4 -23z"/>
<path d="M983 605 c0 -22 2 -30 4 -17 2 12 2 30 0 40 -3 9 -5 -1 -4 -23z"/>
</g>
</svg>
