<?xml version="1.0" standalone="no"?>
<!DOCTYPE svg PUBLIC "-//W3C//DTD SVG 20010904//EN"
 "http://www.w3.org/TR/2001/REC-SVG-20010904/DTD/svg10.dtd">
<svg version="1.0" xmlns="http://www.w3.org/2000/svg"
 width="244.000000pt" height="305.000000pt" viewBox="0 0 244.000000 305.000000"
 preserveAspectRatio="xMidYMid meet">
<metadata>
Created by potrace 1.16, written by Peter Selinger 2001-2019
</metadata>
<g transform="translate(0.000000,305.000000) scale(0.100000,-0.100000)"
fill="#000000" stroke="none">
<path d="M976 2893 c-28 -94 -63 -454 -71 -740 l-6 -222 26 -17 c14 -9 31 -26
36 -36 10 -19 8 -20 -38 -13 -56 7 -78 -8 -89 -63 -6 -31 -5 -32 28 -32 25 0
43 -8 62 -26 27 -28 35 -77 15 -90 -27 -16 25 -217 62 -240 14 -9 10 -50 -6
-64 -13 -11 -15 -8 -15 18 0 17 -4 42 -10 57 -8 20 -16 25 -37 23 -26 -3 -28
-1 -25 30 5 51 -11 62 -89 62 -62 0 -70 -2 -85 -26 -16 -23 -16 -30 1 -102 18
-79 18 -117 0 -117 -13 0 -22 47 -24 118 -1 35 -5 57 -12 57 -9 0 -10 -26 -6
-90 6 -89 5 -90 -16 -85 -24 6 -77 -48 -206 -210 -36 -44 -78 -95 -95 -113
-16 -17 -26 -32 -22 -32 12 0 160 62 171 71 20 19 25 8 10 -21 -9 -16 -12 -30
-8 -30 4 0 73 33 154 74 l147 75 21 -23 c12 -13 24 -39 28 -58 5 -32 2 -37
-22 -49 -23 -11 -32 -27 -47 -84 -30 -110 -119 -497 -115 -501 4 -4 67 83 67
94 1 8 36 52 43 52 2 0 -1 -28 -9 -62 -7 -35 -11 -64 -9 -66 2 -2 14 16 28 40
13 24 50 88 82 143 32 55 68 118 81 140 64 112 63 110 54 151 -5 21 -10 42
-10 47 0 4 18 7 41 7 47 0 92 -23 110 -57 11 -20 9 -27 -11 -55 -13 -18 -23
-44 -22 -58 4 -51 93 -624 97 -629 3 -2 5 -1 5 3 0 6 67 452 89 593 7 47 5 57
-17 89 -22 32 -23 39 -11 61 18 34 63 55 107 51 l37 -3 -3 -52 c-3 -49 1 -61
72 -185 178 -316 190 -331 166 -208 -4 25 -7 46 -6 48 2 1 22 -27 46 -63 23
-37 44 -64 46 -62 3 2 -6 51 -20 108 -13 57 -28 120 -32 139 -10 44 -8 37 -34
145 -37 160 -39 165 -66 175 -29 12 -33 57 -7 101 21 35 42 44 57 25 17 -21
306 -165 306 -152 0 6 -7 20 -15 30 -25 34 -17 33 56 -1 39 -19 73 -33 74 -31
4 4 -107 145 -213 271 -57 67 -70 77 -90 72 l-24 -6 7 87 c6 64 5 85 -4 80 -6
-4 -11 -37 -11 -82 0 -69 -2 -74 -21 -74 -19 0 -21 4 -15 48 19 156 19 165 0
179 -21 16 -107 17 -135 2 -16 -8 -18 -17 -13 -44 6 -32 5 -34 -28 -37 -29 -3
-33 -7 -36 -33 -1 -16 -5 -41 -8 -55 l-6 -25 -18 22 c-18 22 -17 24 21 100 46
93 60 171 34 197 -34 34 20 120 73 114 25 -3 27 0 25 31 -2 42 -21 62 -62 63
-42 1 -47 13 -19 46 23 27 23 30 18 212 l-5 185 -3 -182 c-2 -149 -5 -182 -17
-187 -12 -4 -15 8 -17 72 l-2 77 -5 -68 c-3 -37 -10 -68 -16 -70 -13 -3 -19
459 -5 481 7 12 10 -12 11 -83 2 -60 4 -80 7 -50 2 28 -4 155 -13 283 -10 141
-13 238 -8 245 5 7 7 25 4 42 l-6 30 -13 -40 c-6 -22 -14 -58 -16 -80 -2 -22
-3 -3 -2 43 1 91 -8 108 -18 35 -30 -222 -52 -526 -57 -808 -1 -73 -4 -72 -14
8 -4 31 -11 47 -21 47 -8 0 -14 -1 -15 -2 0 -2 -6 -43 -13 -93 l-12 -90 -12
225 c-11 214 -35 419 -52 449 -18 33 -56 -250 -66 -504 l-7 -170 -11 88 c-8
57 -17 91 -26 97 -17 11 -26 -15 -31 -90 -2 -42 -3 -40 -9 20 l-7 65 -1 -77
c-1 -43 -6 -78 -10 -78 -5 0 -12 107 -15 238 -4 130 -12 291 -19 357 -7 66
-13 175 -13 242 0 117 -1 121 -12 75 -7 -26 -13 -67 -13 -92 -1 -25 -5 -63
-10 -85 -6 -29 -8 -2 -7 98 2 75 2 137 0 137 -1 0 -4 -8 -7 -17z m67 -722 c1
-172 -1 -225 -10 -228 -10 -4 -13 62 -12 309 1 246 4 295 11 228 5 -47 10
-186 11 -309z m233 -204 c7 -317 7 -318 -14 -338 l-22 -20 1 438 c2 406 3 431
15 338 7 -55 16 -243 20 -418z m-166 -103 c0 -5 -52 7 -59 12 -2 2 4 13 14 24
18 20 18 20 31 -6 8 -15 14 -28 14 -30z m312 26 c12 -17 28 -28 35 -25 8 2 16
-2 20 -11 9 -25 -4 -27 -33 -5 -15 11 -38 21 -51 21 -19 0 -24 4 -19 16 3 9 6
20 6 25 0 18 20 8 42 -21z m-402 -41 c0 -5 -7 -9 -15 -9 -15 0 -20 12 -9 23 8
8 24 -1 24 -14z m120 -10 c0 -6 -4 -7 -10 -4 -5 3 -10 11 -10 16 0 6 5 7 10 4
6 -3 10 -11 10 -16z m196 -21 c-8 -30 -12 -36 -14 -21 -3 19 13 63 22 63 2 0
-2 -19 -8 -42z m-189 -35 c-3 -10 -5 -4 -5 12 0 17 2 24 5 18 2 -7 2 -21 0
-30z m-7 -38 c0 -11 -8 -13 -30 -8 -27 5 -30 3 -30 -21 0 -15 5 -36 10 -47 13
-24 56 -25 69 -1 9 14 10 11 11 -18 0 -24 6 -39 19 -47 11 -7 25 -29 32 -50
l12 -38 18 43 c10 23 25 45 34 48 9 4 15 19 15 43 1 32 2 34 14 19 13 -18 51
-24 60 -10 2 4 7 25 11 46 l8 39 -32 -6 c-23 -5 -31 -3 -31 8 0 10 11 15 35
15 31 0 38 -5 50 -32 12 -28 12 -36 -1 -55 -8 -12 -14 -36 -14 -53 0 -17 -5
-40 -10 -51 -11 -19 -11 -19 -40 3 -42 31 -72 15 -98 -53 l-19 -53 -17 52
c-10 29 -26 57 -37 63 -21 11 -59 3 -72 -15 -12 -17 -37 23 -37 60 0 18 -4 36
-10 39 -13 8 -13 38 2 70 9 19 19 25 45 25 22 0 33 -5 33 -15z m6 -223 c17
-11 34 -48 34 -74 -1 -21 -4 -20 -35 16 -19 22 -35 45 -35 53 0 14 18 17 36 5z
m209 -19 c-10 -16 -26 -35 -36 -43 -10 -8 -22 -30 -25 -47 -8 -43 9 -43 59 -2
20 17 37 26 37 22 0 -18 -82 -83 -104 -83 -9 0 -7 70 4 115 10 42 32 65 63 65
19 0 19 -1 2 -27z m-188 -123 c6 0 14 10 16 23 3 13 5 8 6 -15 0 -21 -2 -38
-5 -38 -22 0 -104 65 -104 83 0 4 17 -5 37 -22 21 -17 43 -31 50 -31z m-331
-80 c-6 -27 -26 40 -25 83 l1 42 14 -55 c8 -30 12 -62 10 -70z m284 7 c33 -11
35 -15 32 -49 -2 -28 1 -38 11 -38 21 0 38 -25 31 -43 -9 -24 -35 -29 -55 -11
-16 15 -24 15 -65 4 -39 -11 -47 -11 -55 1 -6 11 -1 15 24 19 l32 5 -3 63 c-1
34 1 62 5 62 4 0 24 -6 43 -13z m278 -49 l-3 -63 33 -3 c17 -2 32 -7 32 -12 0
-18 -23 -22 -66 -10 -39 11 -47 11 -62 -4 -23 -20 -27 -20 -46 0 -23 23 -19
43 10 54 23 9 26 15 21 43 -5 30 -2 34 26 44 58 19 59 18 55 -49z m563 -170
c33 -43 57 -78 54 -78 -26 0 -158 115 -211 185 -41 53 -47 73 -26 78 20 5 90
-67 183 -185z m-178 110 c9 -25 3 -23 -32 13 -17 17 -31 38 -31 47 0 13 7 9
28 -13 15 -16 31 -38 35 -47z m-1161 -83 c-31 -45 -49 -61 -110 -91 -81 -40
-100 -40 -50 -2 18 14 43 34 54 44 20 18 78 64 113 91 32 24 29 12 -7 -42z
m168 25 c8 -5 12 -11 10 -13 -40 -30 -221 -130 -226 -124 -8 8 57 54 109 76
32 14 47 26 47 39 0 32 28 43 60 22z m-70 -10 c0 -5 -5 -10 -11 -10 -5 0 -7 5
-4 10 3 6 8 10 11 10 2 0 4 -4 4 -10z m483 -100 c7 -59 25 -96 39 -82 5 5 14
37 21 71 10 51 15 61 32 60 17 -1 17 -2 3 -6 -11 -3 -18 -14 -18 -30 0 -13 -8
-54 -17 -89 l-17 -65 27 -49 c34 -60 33 -75 -3 -315 l-28 -190 -1 284 c-1 265
-2 286 -21 316 -11 18 -23 54 -27 81 -3 27 -11 52 -17 56 -7 5 -5 8 5 8 12 0
18 -13 22 -50z m344 -37 c-3 -10 -5 -4 -5 12 0 17 2 24 5 18 2 -7 2 -21 0 -30z
m364 20 c13 -15 12 -15 -8 -4 -24 12 -29 21 -14 21 5 0 15 -7 22 -17z m-294
-71 c19 -12 121 -427 109 -439 -3 -4 -6 0 -6 7 0 7 -13 40 -29 74 -35 74 -78
213 -87 281 -4 28 -11 58 -16 68 -9 18 6 23 29 9z m-609 -70 l-3 -37 -13 43
c-7 23 -10 47 -6 54 12 18 25 -19 22 -60z m570 36 c16 -52 23 -88 17 -88 -5 0
-55 106 -55 116 0 2 6 4 14 4 8 0 19 -15 24 -32z m-608 -46 c0 -9 -14 -37 -31
-62 -33 -47 -33 -46 -4 37 18 49 35 62 35 25z m-56 -196 c-47 -87 -88 -155
-90 -153 -5 4 24 78 51 132 23 46 118 185 123 181 1 -2 -36 -74 -84 -160z
m-88 -18 c-9 -29 -32 -78 -51 -108 -56 -89 -48 -59 38 133 26 60 34 46 13 -25z
m805 -40 c14 -25 39 -118 33 -118 -5 0 -22 41 -40 98 -14 46 -11 55 7 20z"/>
<path d="M1043 2740 c0 -25 2 -35 4 -22 2 12 2 32 0 45 -2 12 -4 2 -4 -23z"/>
<path d="M1512 2700 c0 -19 2 -27 5 -17 2 9 2 25 0 35 -3 9 -5 1 -5 -18z"/>
<path d="M1052 2645 c0 -22 3 -65 8 -95 6 -48 7 -50 8 -15 0 22 -3 65 -8 95
-6 48 -7 50 -8 15z"/>
<path d="M1527 2585 c3 -44 9 -120 14 -170 7 -78 7 -75 2 30 -3 66 -9 143 -13
170 -7 38 -7 31 -3 -30z"/>
<path d="M1074 2385 c0 -49 1 -71 3 -48 2 23 2 64 0 90 -2 26 -3 8 -3 -42z"/>
<path d="M1081 2174 c0 -11 3 -14 6 -6 3 7 2 16 -1 19 -3 4 -6 -2 -5 -13z"/>
</g>
</svg>
