<?xml version="1.0" standalone="no"?>
<!DOCTYPE svg PUBLIC "-//W3C//DTD SVG 20010904//EN"
 "http://www.w3.org/TR/2001/REC-SVG-20010904/DTD/svg10.dtd">
<svg version="1.0" xmlns="http://www.w3.org/2000/svg"
 width="244.000000pt" height="305.000000pt" viewBox="0 0 244.000000 305.000000"
 preserveAspectRatio="xMidYMid meet">
<metadata>
Created by potrace 1.16, written by Peter Selinger 2001-2019
</metadata>
<g transform="translate(0.000000,305.000000) scale(0.100000,-0.100000)"
fill="#000000" stroke="none">
<path d="M1152 2890 c0 -14 2 -19 5 -12 2 6 2 18 0 25 -3 6 -5 1 -5 -13z"/>
<path d="M1558 2404 c2 -278 -1 -504 -5 -502 -41 19 -75 47 -80 67 -12 46 18
511 43 669 24 156 28 189 20 181 -7 -7 -46 -251 -56 -356 -17 -164 -25 -543
-12 -543 6 0 27 -13 45 -30 19 -16 40 -30 47 -30 7 0 28 14 47 30 18 16 39 30
45 30 16 0 3 451 -17 610 -19 143 -61 360 -72 371 -5 5 -7 -219 -5 -497z"/>
<path d="M900 2883 c0 -10 -3 -29 -5 -43 -5 -22 -4 -22 4 -5 6 13 10 -148 10
-457 1 -263 -1 -478 -4 -478 -3 0 -23 12 -45 26 l-40 27 0 106 c0 151 17 383
40 546 20 143 24 201 9 130 -35 -162 -58 -427 -60 -680 -1 -114 1 -131 16
-140 10 -5 33 -23 52 -39 l34 -29 19 21 c11 11 34 29 51 39 l31 18 -6 230 c-4
127 -14 284 -22 350 -19 158 -64 395 -75 395 -5 0 -9 -8 -9 -17z"/>
<path d="M1541 2844 c0 -11 3 -14 6 -6 3 7 2 16 -1 19 -3 4 -6 -2 -5 -13z"/>
<path d="M1311 2820 c-2 -14 -3 -155 -3 -315 0 -202 -3 -267 -8 -215 -5 41 -6
83 -3 94 3 11 1 16 -5 12 -5 -3 -12 15 -16 42 -10 72 -42 170 -49 146 -6 -20
-22 -92 -36 -159 l-9 -40 -2 45 c-2 25 -6 115 -10 200 -5 132 -7 106 -8 -176
-1 -182 -5 -373 -9 -425 -7 -88 -8 -80 -14 111 l-5 205 1 -215 c1 -118 5 -228
10 -245 4 -17 4 -27 -1 -22 -5 5 -18 61 -29 125 -12 64 -25 117 -30 117 -12
-1 -34 -113 -35 -177 0 -42 3 -49 29 -62 24 -13 29 -22 34 -68 6 -65 -10 -91
-44 -69 -34 20 -47 -1 -26 -44 20 -42 39 -44 74 -9 14 14 26 24 28 22 1 -2 0
-29 -2 -60 -5 -51 -8 -58 -27 -58 -28 0 -66 -29 -48 -36 13 -6 17 -54 4 -54
-27 0 -92 101 -92 143 0 14 -7 30 -15 37 -22 19 -18 48 11 77 22 22 32 25 70
20 42 -4 44 -3 44 22 -1 35 -21 60 -60 71 -48 14 -78 -3 -102 -56 l-20 -47
-18 41 c-21 47 -44 62 -94 62 -40 0 -76 -36 -76 -76 0 -22 3 -24 38 -18 34 5
44 2 75 -26 39 -34 49 -73 22 -84 -33 -12 -10 -113 44 -194 20 -30 40 -60 45
-67 7 -9 0 -24 -22 -49 -58 -66 -53 -124 13 -146 31 -10 40 -10 52 3 13 12 13
20 3 49 -14 38 -7 88 13 88 6 -1 28 -9 47 -18 32 -16 35 -20 32 -56 -6 -63
-19 -89 -42 -83 -11 3 -20 1 -20 -4 0 -15 -60 -40 -80 -34 -11 3 -35 25 -55
48 -30 35 -36 48 -35 87 2 60 -10 142 -23 158 -14 18 -62 15 -80 -6 -33 -36
-22 -98 34 -191 78 -131 89 -156 89 -208 0 -38 -9 -62 -40 -113 -21 -36 -64
-112 -96 -170 -114 -210 -163 -290 -149 -247 2 6 15 48 29 92 13 44 43 139 65
211 l41 131 39 11 c52 16 62 31 68 100 6 67 -4 94 -73 184 -72 94 -81 146 -39
226 l25 47 -21 18 c-32 26 -104 23 -123 -5 -21 -30 -20 -55 5 -133 19 -56 20
-71 10 -105 -14 -48 -45 -72 -221 -175 -74 -43 -146 -86 -159 -94 -49 -31 -8
14 124 138 l130 123 44 -6 44 -6 -7 76 c-3 43 -6 90 -6 106 0 15 -5 28 -11 28
-9 0 -10 -26 -6 -91 l6 -90 -30 6 c-34 8 -31 10 -257 -203 -78 -74 -140 -137
-138 -139 2 -2 108 30 235 72 217 72 231 78 231 101 0 36 20 38 82 11 56 -25
91 -63 103 -110 6 -24 3 -29 -29 -42 -20 -9 -41 -26 -46 -38 -5 -12 -40 -121
-76 -242 -88 -292 -86 -285 -82 -294 2 -5 53 47 113 116 230 261 276 317 269
333 -3 8 -8 30 -11 47 l-6 33 81 0 c103 0 112 -4 114 -49 l1 -36 4 33 c6 48
23 39 23 -14 0 -49 -15 -88 -31 -79 -5 4 -9 -8 -8 -27 1 -31 1 -32 9 -8 7 22
8 20 9 -15 0 -22 -2 -65 -6 -95 -7 -54 -8 -54 -14 -20 -4 19 -5 2 -2 -37 3
-50 2 -73 -6 -73 -7 0 -11 -20 -10 -52 1 -49 3 -43 27 65 14 64 27 115 29 113
2 -2 26 -113 53 -247 28 -134 51 -248 53 -253 2 -5 27 107 56 250 29 142 56
275 60 294 6 32 8 27 20 -48 6 -45 10 -86 7 -91 -5 -8 14 -125 19 -119 2 2 -5
111 -15 243 -15 216 -16 241 -2 253 10 7 48 12 100 12 l85 0 -8 -38 c-4 -20
-7 -44 -8 -53 -1 -9 48 -72 108 -141 61 -68 146 -166 190 -217 44 -51 81 -86
83 -79 1 7 -27 110 -64 228 -36 118 -73 239 -82 269 -14 48 -20 56 -54 69 -41
16 -46 29 -24 70 22 42 67 80 115 97 49 17 61 13 61 -20 0 -21 17 -29 223 -98
305 -102 279 -96 236 -56 -358 339 -347 330 -384 327 l-30 -3 4 89 c2 63 0 87
-8 82 -6 -4 -11 -25 -11 -47 0 -23 -8 -69 -17 -105 -9 -35 -15 -65 -13 -67 3
-3 75 -49 160 -103 178 -113 244 -159 215 -151 -33 9 -348 126 -353 132 -3 3
0 17 7 32 11 24 10 29 -13 47 -51 44 -58 89 -26 181 25 73 26 117 2 138 -24
22 -90 22 -120 1 l-23 -16 26 -43 c29 -51 33 -120 9 -166 -8 -17 -35 -56 -59
-87 -47 -61 -69 -112 -80 -185 -7 -42 -3 -54 61 -174 37 -70 96 -179 131 -241
36 -63 62 -116 60 -118 -3 -3 -45 44 -94 103 -50 59 -118 141 -152 181 -36 43
-58 78 -54 85 4 6 10 58 14 114 6 100 8 105 54 185 90 153 96 167 98 209 1 33
-4 45 -23 61 -35 28 -73 20 -81 -17 -4 -16 -11 -48 -16 -71 -5 -22 -6 -49 -3
-60 11 -30 -8 -70 -51 -109 -44 -40 -55 -42 -97 -18 -27 16 -34 30 -63 143 -3
9 9 18 31 26 32 11 36 10 44 -8 6 -12 6 -34 -1 -59 -8 -32 -8 -43 4 -55 18
-18 27 -18 62 1 53 27 55 74 6 130 -19 22 -35 44 -35 48 0 5 18 34 40 65 60
83 87 186 55 212 -23 19 -18 49 15 82 25 25 37 29 72 27 45 -4 54 6 44 46 -8
32 -59 58 -97 50 -28 -6 -79 -60 -79 -83 0 -24 -16 -11 -29 24 -32 89 -161 74
-161 -18 0 -27 2 -28 38 -23 46 7 84 -11 96 -47 8 -21 6 -32 -7 -46 -9 -10
-17 -27 -17 -37 0 -27 -40 -101 -70 -130 l-27 -26 -5 26 c-4 20 -1 28 14 34
18 7 18 7 1 23 -10 8 -30 18 -45 22 -21 5 -28 12 -28 30 0 13 -3 39 -6 57 l-7
34 31 -28 c37 -35 66 -30 81 15 14 40 7 49 -29 35 -16 -6 -32 -8 -36 -4 -4 4
-8 32 -8 64 -1 54 1 58 32 76 26 16 32 25 32 54 0 49 -20 176 -30 186 -10 11
-26 -40 -36 -113 -8 -54 -8 -54 -15 45 -4 55 -8 206 -9 335 -2 226 -14 502
-19 450z m-84 -392 c-1 -51 0 -250 1 -442 1 -192 0 -351 -3 -354 -3 -3 -5 64
-6 149 0 85 -6 188 -14 229 l-13 75 3 -115 c3 -63 7 -139 11 -168 4 -34 2 -58
-5 -65 -14 -14 -15 -81 -1 -72 6 4 10 -5 10 -20 0 -23 -2 -24 -20 -15 -18 10
-21 19 -18 73 2 43 7 61 16 59 7 -1 12 10 12 30 0 41 -10 79 -19 74 -9 -6 -2
322 9 434 11 103 30 220 35 220 2 0 3 -42 2 -92z m104 -555 c-9 -16 -10 -16
-11 -1 0 9 3 25 7 35 7 16 8 17 11 1 2 -10 -1 -25 -7 -35z m239 -263 c0 -5 -9
-34 -20 -64 -20 -52 -89 -134 -132 -157 -38 -21 -17 24 41 86 33 35 66 83 76
109 10 25 21 43 26 40 5 -3 9 -9 9 -14z m-630 -42 c14 -31 48 -77 82 -111 76
-74 77 -108 2 -49 -54 42 -107 123 -119 180 -10 49 9 38 35 -20z m350 17 c0
-14 -4 -25 -10 -25 -11 0 -14 33 -3 43 11 11 13 8 13 -18z m-90 -5 c0 -11 -4
-20 -10 -20 -5 0 -10 9 -10 20 0 11 5 20 10 20 6 0 10 -9 10 -20z m-42 -138
c11 -64 8 -92 -10 -92 -5 0 -7 13 -3 30 8 37 -2 70 -21 70 -9 0 -14 11 -14 33
0 77 32 49 48 -41z m79 41 c-3 -10 -5 -2 -5 17 0 19 2 27 5 18 2 -10 2 -26 0
-35z m113 18 c0 -11 3 -26 6 -35 4 -10 1 -16 -9 -16 -20 0 -30 -33 -22 -71 6
-24 4 -30 -6 -27 -16 6 -15 69 2 131 10 39 29 51 29 18z m-243 -123 c-3 -8 -6
-5 -6 6 -1 11 2 17 5 13 3 -3 4 -12 1 -19z m280 0 c-3 -8 -6 -5 -6 6 -1 11 2
17 5 13 3 -3 4 -12 1 -19z m17 -180 c5 -10 4 -18 -2 -18 -12 0 -22 50 -21 99
2 32 3 30 9 -14 4 -27 10 -58 14 -67z m-287 55 c-3 -10 -5 -2 -5 17 0 19 2 27
5 18 2 -10 2 -26 0 -35z m240 15 c-3 -7 -5 -2 -5 12 0 14 2 19 5 13 2 -7 2
-19 0 -25z m-230 -70 c-3 -7 -5 -2 -5 12 0 14 2 19 5 13 2 -7 2 -19 0 -25z
m49 -1 c18 7 18 -11 1 -26 -17 -13 -27 -4 -26 23 0 12 3 16 5 9 3 -7 12 -9 20
-6z m139 -17 c-5 -17 -10 -19 -21 -9 -15 13 -20 34 -5 24 5 -3 13 0 16 6 11
17 18 3 10 -21z m22 -12 c-3 -8 -6 -5 -6 6 -1 11 2 17 5 13 3 -3 4 -12 1 -19z
m-200 -10 c-3 -8 -6 -5 -6 6 -1 11 2 17 5 13 3 -3 4 -12 1 -19z m-27 -63 c0
-17 -2 -17 -10 -5 -5 8 -10 24 -10 35 0 17 2 17 10 5 5 -8 10 -24 10 -35z
m264 18 c-4 -16 -11 -32 -17 -38 -6 -7 -8 -2 -3 15 3 14 6 31 6 38 0 6 5 12
10 12 6 0 8 -11 4 -27z m-137 -195 c-3 -8 -6 -5 -6 6 -1 11 2 17 5 13 3 -3 4
-12 1 -19z m103 -66 c0 -28 -3 -33 -10 -22 -13 20 -13 73 0 65 6 -3 10 -23 10
-43z m-111 -192 c-1 -107 -4 -222 -8 -255 l-6 -60 -18 100 c-11 55 -28 138
-39 185 -17 72 -18 94 -9 140 12 59 58 121 73 98 4 -7 7 -101 7 -208z"/>
<path d="M1213 595 c0 -33 2 -45 4 -27 2 18 2 45 0 60 -2 15 -4 0 -4 -33z"/>
<path d="M881 2794 c0 -11 3 -14 6 -6 3 7 2 16 -1 19 -3 4 -6 -2 -5 -13z"/>
<path d="M1143 2660 c0 -25 2 -35 4 -22 2 12 2 32 0 45 -2 12 -4 2 -4 -23z"/>
<path d="M1293 2480 c0 -36 2 -50 4 -32 2 17 2 47 0 65 -2 17 -4 3 -4 -33z"/>
<path d="M1046 1274 c-4 -15 -5 -29 -1 -32 3 -3 5 2 5 12 0 9 5 14 10 11 6 -3
10 1 10 9 0 27 -18 27 -24 0z"/>
<path d="M1031 1214 c0 -11 3 -14 6 -6 3 7 2 16 -1 19 -3 4 -6 -2 -5 -13z"/>
<path d="M1352 630 c0 -14 2 -19 5 -12 2 6 2 18 0 25 -3 6 -5 1 -5 -13z"/>
<path d="M1362 580 c0 -14 2 -19 5 -12 2 6 2 18 0 25 -3 6 -5 1 -5 -13z"/>
</g>
</svg>
