<?xml version="1.0" standalone="no"?>
<!DOCTYPE svg PUBLIC "-//W3C//DTD SVG 20010904//EN"
 "http://www.w3.org/TR/2001/REC-SVG-20010904/DTD/svg10.dtd">
<svg version="1.0" xmlns="http://www.w3.org/2000/svg"
 width="244.000000pt" height="305.000000pt" viewBox="0 0 244.000000 305.000000"
 preserveAspectRatio="xMidYMid meet">
<metadata>
Created by potrace 1.16, written by Peter Selinger 2001-2019
</metadata>
<g transform="translate(0.000000,305.000000) scale(0.100000,-0.100000)"
fill="#000000" stroke="none">
<path d="M921 2797 c-36 -195 -52 -364 -59 -621 l-7 -249 38 -24 c39 -25 53
-45 43 -62 -4 -6 -20 -2 -41 11 -58 33 -114 7 -115 -54 0 -26 3 -28 39 -28 32
0 44 -6 65 -31 29 -34 34 -70 12 -88 -8 -7 -12 -19 -11 -29 16 -79 15 -81 -13
-84 -23 -3 -29 -10 -39 -48 -6 -25 -12 -38 -13 -30 -1 8 -9 -5 -19 -29 -12
-30 -16 -60 -13 -88 4 -34 1 -43 -11 -43 -35 0 -36 101 -1 163 l25 46 -25 16
c-15 10 -39 15 -63 13 -30 -2 -41 -9 -51 -30 -11 -23 -9 -39 9 -108 26 -103
20 -165 -19 -196 -23 -19 -25 -24 -15 -47 15 -33 13 -35 -122 -90 -60 -25
-127 -52 -149 -62 -21 -9 -40 -15 -42 -13 -2 2 24 24 58 48 34 25 90 65 123
90 33 25 79 58 103 74 62 42 63 44 47 111 -8 33 -19 85 -24 115 -9 51 -9 48
-8 -42 l2 -97 -30 2 c-27 2 -48 -17 -196 -173 -92 -96 -166 -176 -165 -177 4
-4 119 37 260 91 65 26 121 45 123 43 4 -5 -14 -40 -41 -80 -10 -15 -16 -30
-13 -33 5 -5 72 29 177 90 58 33 66 33 79 -5 17 -48 14 -58 -21 -72 -32 -13
-34 -19 -67 -143 -42 -160 -112 -415 -118 -431 -15 -39 24 4 122 132 60 79
111 142 113 140 3 -2 -6 -58 -18 -125 -12 -67 -20 -124 -17 -127 3 -3 22 28
43 68 20 41 56 108 79 149 109 195 108 191 102 247 -5 51 -4 53 18 53 35 0 70
-16 94 -41 27 -30 26 -47 -4 -79 l-25 -27 40 -234 c56 -327 71 -414 74 -417 4
-3 63 326 102 561 13 82 13 90 -3 112 -10 13 -21 25 -25 25 -13 0 -9 29 8 55
16 25 61 45 102 45 24 0 24 -1 17 -55 -6 -55 -6 -56 71 -198 42 -78 92 -171
111 -207 60 -111 66 -104 33 44 -11 50 -20 104 -20 120 1 30 1 30 16 11 64
-87 190 -244 195 -244 6 -1 -44 199 -111 443 -30 108 -35 119 -62 128 -21 8
-28 16 -28 37 0 15 6 36 14 46 14 19 15 19 58 -4 23 -13 70 -38 104 -56 33
-18 73 -40 88 -50 14 -10 29 -15 32 -12 3 2 -13 33 -36 67 -22 35 -38 65 -36
67 2 2 37 -9 77 -25 181 -72 235 -92 247 -92 20 0 39 -22 -186 222 -93 102
-111 116 -136 115 l-30 -2 2 95 c1 69 -1 87 -8 67 -5 -16 -10 -66 -11 -110
l-2 -82 37 3 c41 3 45 0 190 -160 48 -54 84 -98 79 -98 -5 0 -61 35 -123 78
-219 149 -205 135 -221 202 -5 24 -2 57 13 116 20 78 20 84 4 108 -20 32 -72
35 -107 7 l-24 -19 24 -42 c33 -59 30 -151 -5 -164 -13 -5 -15 0 -9 34 9 51
-4 155 -15 125 -6 -16 -9 -12 -15 20 -9 50 -21 65 -51 65 -22 0 -23 3 -17 50
4 39 2 54 -11 69 -20 22 -13 46 26 84 22 21 37 27 61 25 30 -3 32 -1 30 26 -3
40 -30 66 -69 66 -18 0 -36 -4 -39 -10 -11 -18 -35 -11 -35 10 0 13 13 28 35
41 l35 21 -2 121 -2 122 -3 -107 -4 -106 -34 -26 c-18 -14 -36 -26 -39 -26 -3
0 -6 212 -6 471 0 356 3 468 12 463 8 -5 9 -2 5 10 -4 10 -7 27 -7 37 0 11 -4
18 -9 15 -4 -3 -16 -53 -26 -111 -10 -58 -20 -104 -21 -102 -2 1 -8 42 -14 90
-19 158 -25 129 -22 -121 1 -136 -1 -359 -5 -497 -7 -215 -10 -247 -21 -227
-8 13 -17 59 -22 103 -10 108 -16 112 -39 29 l-9 -35 -1 38 c-1 41 -21 52 -21
11 0 -14 -4 -23 -10 -19 -5 3 -10 40 -10 81 0 92 -16 242 -36 349 -21 112 -25
121 -34 104 -19 -34 -52 -276 -57 -421 -3 -87 -10 -155 -14 -152 -5 3 -9 23
-9 45 0 48 -20 44 -21 -4 -1 -74 -32 71 -35 168 -4 115 -23 403 -29 437 -2 13
-9 70 -15 127 -10 103 -19 142 -21 85 0 -16 1 -83 2 -149 5 -258 5 -325 -2
-325 -8 0 -19 127 -20 239 -1 53 -4 76 -8 61 -6 -21 -9 -16 -15 29 -4 29 -9
51 -12 48 -3 -3 -1 -37 5 -76 6 -38 11 -98 11 -133 0 -35 5 -69 11 -75 7 -7
11 -100 12 -279 2 -247 1 -269 -15 -272 -16 -3 -18 11 -21 155 l-3 158 -2
-177 c-1 -111 -6 -178 -12 -178 -13 0 -17 939 -4 982 3 9 1 19 -4 22 -6 3 -19
-45 -31 -107z m366 -649 c-3 -8 -6 -5 -6 6 -1 11 2 17 5 13 3 -3 4 -12 1 -19z
m0 -95 c-2 -16 -4 -3 -4 27 0 30 2 43 4 28 2 -16 2 -40 0 -55z m0 -65 c-3 -8
-6 -5 -6 6 -1 11 2 17 5 13 3 -3 4 -12 1 -19z m-273 -119 c-3 -5 -17 -9 -31
-9 -25 0 -26 0 -8 20 14 15 21 17 31 9 8 -6 11 -15 8 -20z m71 10 c10 -15 -1
-23 -20 -15 -9 3 -13 10 -10 16 8 13 22 13 30 -1z m335 -5 c0 -9 -5 -14 -12
-12 -18 6 -21 28 -4 28 9 0 16 -7 16 -16z m70 7 c0 -14 -18 -23 -30 -16 -6 4
-8 11 -5 16 8 12 35 12 35 0z m-374 -147 c-16 -15 -19 -16 -34 -1 -14 15 -14
17 9 26 32 12 47 -3 25 -25z m265 26 c12 0 12 -27 -1 -35 -12 -7 -40 18 -40
35 0 7 7 9 16 6 9 -3 20 -6 25 -6z m-371 -72 c0 -10 -5 -18 -10 -18 -15 0 -23
27 -16 47 6 15 8 15 16 3 6 -8 10 -23 10 -32z m476 -4 c-5 -13 -10 -14 -18 -6
-6 6 -8 18 -4 28 5 13 10 14 18 6 6 -6 8 -18 4 -28z m-326 -45 c0 -9 11 -24
24 -32 13 -9 30 -33 37 -54 l12 -38 19 44 c10 25 26 45 38 48 11 3 20 13 20
23 0 20 29 31 61 23 16 -5 19 -12 17 -42 -2 -25 -7 -35 -17 -33 -63 14 -70 13
-90 -7 -11 -11 -26 -41 -32 -66 l-12 -46 -17 51 c-10 28 -22 56 -28 62 -6 6
-34 11 -62 10 l-50 -1 0 37 c0 37 1 37 40 37 31 0 40 -4 40 -16z m-200 -31 c0
-7 18 -49 39 -93 38 -79 44 -109 14 -70 -23 31 -73 138 -73 158 0 9 5 17 10
17 6 0 10 -6 10 -12z m99 -68 c0 -8 -6 -4 -14 10 -8 14 -14 36 -14 50 0 22 2
21 14 -10 7 -19 14 -42 14 -50z m371 15 c-16 -43 -23 -22 -8 27 9 29 14 37 16
22 2 -11 -2 -33 -8 -49z m100 50 c0 -30 -42 -122 -71 -155 -35 -39 -34 -38 18
83 36 82 53 106 53 72z m-383 -97 c13 -12 23 -33 23 -47 0 -23 -2 -22 -30 15
-42 56 -39 75 7 32z m202 0 c-15 -30 -40 -58 -50 -58 -13 0 10 53 28 68 26 19
35 14 22 -10z m221 -74 c10 -28 10 -49 0 -95 -7 -33 -15 -57 -18 -54 -3 3 -4
32 -3 65 1 33 -3 69 -9 80 -13 23 -6 55 9 45 5 -3 15 -21 21 -41z m-636 9 c-5
-16 -8 -56 -7 -90 2 -66 -10 -85 -21 -32 -14 74 -2 149 25 149 8 0 8 -9 3 -27z
m246 -80 c0 -10 -4 -11 -19 -3 -30 16 -33 28 -6 22 14 -2 25 -11 25 -19z m141
6 c-24 -20 -41 -25 -41 -11 0 14 19 28 42 29 l23 2 -24 -20z m-299 -61 c-7 -7
-12 -8 -12 -2 0 14 12 26 19 19 2 -3 -1 -11 -7 -17z m121 -8 c16 0 17 -2 3
-21 -18 -26 -11 -48 21 -60 35 -13 29 -55 -7 -51 -14 1 -50 4 -80 5 -41 1 -55
6 -55 17 0 8 7 13 15 11 43 -10 45 -8 42 53 -4 58 -3 59 20 53 12 -4 31 -7 41
-7z m243 -45 c-5 -45 -3 -57 9 -61 8 -4 21 -1 29 5 14 12 26 5 26 -16 0 -9
-17 -13 -57 -13 -32 0 -69 -1 -83 -2 -37 -4 -41 38 -6 52 28 10 36 52 14 67
-9 5 -3 10 17 14 59 13 58 14 51 -46z m-556 -20 c0 -21 -17 -18 -30 4 -15 28
-13 33 10 21 11 -6 20 -17 20 -25z m150 -66 c0 -6 -4 -7 -10 -4 -5 3 -10 11
-10 16 0 6 5 7 10 4 6 -3 10 -11 10 -16z m528 1 c-14 -22 -24 -19 -15 5 4 8
11 15 17 15 6 0 6 -7 -2 -20z m-781 -36 c3 -10 -114 -130 -121 -123 -2 2 18
35 45 72 46 62 67 77 76 51z m188 -79 c5 -27 1 -67 -8 -107 -9 -35 -20 -89
-26 -121 -6 -31 -15 -66 -21 -77 -25 -47 -182 -261 -188 -256 -2 2 29 71 68
153 147 304 153 320 146 382 -3 31 -8 70 -12 86 l-5 30 20 -23 c11 -13 23 -43
26 -67z m678 28 c-7 -78 8 -111 56 -130 l38 -15 58 -214 c32 -118 56 -216 53
-219 -2 -3 -24 37 -48 88 -24 50 -79 164 -122 251 -85 173 -92 208 -58 264 11
17 22 32 24 32 2 0 2 -26 -1 -57z m218 -15 c38 -39 67 -73 65 -75 -6 -7 -186
102 -186 113 0 14 21 34 38 34 7 0 45 -32 83 -72z m-577 -128 c3 0 12 15 20
33 9 20 15 25 15 14 1 -18 -25 -77 -34 -77 -8 0 -35 59 -35 77 1 11 6 5 15
-14 8 -18 16 -33 19 -33z m267 -53 c6 -28 22 -76 35 -107 39 -96 105 -295 95
-285 -5 6 -49 85 -96 178 -85 165 -86 168 -80 221 9 69 28 66 46 -7z m-522 21
c-5 -18 -9 -34 -9 -36 0 -2 -4 0 -10 3 -5 3 -10 19 -10 36 0 22 5 29 19 29 17
0 19 -4 10 -32z m-50 -46 c1 -13 -8 -35 -19 -49 -23 -30 -24 -26 -8 52 9 44
13 54 19 39 4 -10 8 -30 8 -42z m-34 -197 c-41 -119 -65 -172 -52 -115 3 14
11 55 17 92 8 44 23 84 42 113 17 25 32 44 34 42 2 -2 -16 -61 -41 -132z m420
45 l-14 -75 6 70 c3 39 6 76 6 83 0 7 4 9 8 5 5 -5 2 -42 -6 -83z"/>
<path d="M1412 2710 c0 -14 2 -19 5 -12 2 6 2 18 0 25 -3 6 -5 1 -5 -13z"/>
<path d="M1551 2720 c0 -8 6 -68 14 -135 9 -66 19 -181 24 -255 7 -111 8 -121
9 -55 1 44 -3 130 -8 190 -10 109 -36 283 -39 255z"/>
<path d="M1402 2645 c0 -16 2 -22 5 -12 2 9 2 23 0 30 -3 6 -5 -1 -5 -18z"/>
<path d="M1393 2545 c0 -27 2 -38 4 -22 2 15 2 37 0 50 -2 12 -4 0 -4 -28z"/>
<path d="M983 2380 c0 -47 2 -66 4 -42 2 23 2 61 0 85 -2 23 -4 4 -4 -43z"/>
<path d="M1384 2330 c0 -52 1 -74 3 -47 2 26 2 68 0 95 -2 26 -3 4 -3 -48z"/>
</g>
</svg>
