<?xml version="1.0" standalone="no"?>
<!DOCTYPE svg PUBLIC "-//W3C//DTD SVG 20010904//EN"
 "http://www.w3.org/TR/2001/REC-SVG-20010904/DTD/svg10.dtd">
<svg version="1.0" xmlns="http://www.w3.org/2000/svg"
 width="244.000000pt" height="305.000000pt" viewBox="0 0 244.000000 305.000000"
 preserveAspectRatio="xMidYMid meet">
<metadata>
Created by potrace 1.16, written by Peter Selinger 2001-2019
</metadata>
<g transform="translate(0.000000,305.000000) scale(0.100000,-0.100000)"
fill="#000000" stroke="none">
<path d="M882 2881 c-14 -39 -15 -66 -2 -36 10 24 11 2 12 -532 1 -222 -2
-406 -5 -410 -4 -3 -17 3 -30 14 -12 11 -30 23 -39 26 -16 6 -18 21 -18 114 0
146 16 357 41 536 23 167 20 207 -5 65 -31 -183 -37 -246 -43 -488 l-5 -245
55 -36 56 -36 21 22 c12 13 36 29 52 36 l31 13 -7 210 c-10 309 -43 574 -94
751 l-8 30 -12 -34z"/>
<path d="M1568 2877 c-3 -15 -1 -24 3 -21 5 3 9 -211 9 -475 0 -510 0 -511
-45 -461 -10 11 -24 20 -31 20 -8 0 -17 12 -20 26 -12 47 15 474 41 653 14 95
24 175 22 177 -6 6 -45 -228 -57 -336 -16 -153 -25 -540 -12 -540 6 0 31 -15
55 -34 44 -33 46 -34 62 -16 9 10 33 26 52 35 l36 17 -6 217 c-8 245 -27 430
-63 610 -28 139 -38 168 -46 128z"/>
<path d="M862 2785 c0 -16 2 -22 5 -12 2 9 2 23 0 30 -3 6 -5 -1 -5 -18z"/>
<path d="M1220 2561 c-46 -171 -70 -371 -70 -586 0 -108 -14 -158 -24 -89 -18
112 -38 210 -46 218 -12 12 -29 -56 -35 -144 l-6 -75 33 -20 c34 -21 50 -62
40 -111 -6 -32 -26 -41 -58 -24 -32 18 -38 9 -25 -33 18 -52 67 -61 91 -16 18
33 31 22 24 -21 -6 -36 -4 -40 20 -50 15 -5 36 -26 47 -45 12 -19 23 -35 25
-35 1 0 11 16 20 35 9 19 28 41 43 48 22 11 26 18 24 50 -2 20 2 37 7 37 6 0
10 -4 10 -10 0 -17 48 -42 68 -36 20 7 46 72 31 81 -4 3 -17 0 -27 -6 -30 -19
-49 -4 -57 40 -9 54 0 76 40 100 39 23 39 21 24 128 -10 71 -25 120 -34 111
-2 -2 -13 -57 -25 -123 -12 -66 -25 -124 -31 -129 -5 -6 -9 35 -9 111 0 153
-25 402 -52 518 -27 120 -33 129 -48 76z m18 -566 c1 -203 -3 -379 -8 -390 -6
-14 -9 -15 -9 -5 -1 9 -15 21 -33 28 l-31 11 6 248 c7 264 15 360 44 543 l18
114 6 -89 c4 -50 7 -256 7 -460z"/>
<path d="M960 1857 c-14 -6 -35 -31 -47 -55 -18 -37 -22 -40 -28 -22 -3 11
-18 34 -32 50 -21 26 -32 30 -73 30 -55 0 -80 -23 -80 -72 0 -25 3 -28 25 -22
36 9 68 -2 98 -32 30 -29 35 -69 12 -78 -9 -3 -15 -18 -15 -38 1 -60 21 -99
108 -218 11 -15 8 -24 -28 -64 -46 -54 -50 -83 -17 -114 53 -50 124 -32 98 24
-13 29 -14 64 -3 81 6 10 24 7 75 -9 51 -17 72 -20 85 -12 31 20 18 36 -48 62
-104 42 -206 161 -198 230 3 25 6 23 30 -24 42 -80 158 -184 206 -184 36 0 26
27 -25 64 -75 54 -133 131 -133 177 0 18 -7 32 -20 39 -28 15 -25 37 10 72 27
27 36 30 75 26 52 -6 60 5 38 50 -9 18 -27 35 -45 41 -38 13 -37 13 -68 -2z"/>
<path d="M1434 1856 c-33 -15 -44 -33 -44 -72 0 -22 3 -23 43 -18 34 5 47 2
70 -16 30 -24 38 -74 12 -84 -8 -3 -15 -18 -15 -33 0 -50 -72 -145 -136 -179
-31 -17 -55 -57 -42 -70 3 -2 22 3 43 12 57 23 159 126 184 185 12 27 24 49
28 49 17 0 -10 -86 -42 -135 -40 -60 -101 -108 -174 -136 -49 -18 -57 -35 -28
-53 13 -8 31 -6 79 11 45 15 66 19 75 11 15 -12 17 -74 3 -83 -5 -3 -10 -14
-10 -25 0 -25 43 -34 78 -16 64 33 65 66 7 136 -37 44 -37 45 7 101 15 21 37
57 48 80 24 54 27 134 5 143 -24 9 -17 36 20 73 30 30 40 34 77 32 45 -4 54 6
44 46 -8 32 -59 58 -96 50 -27 -6 -60 -36 -86 -81 -10 -17 -13 -16 -27 19 -12
26 -27 42 -51 52 -41 18 -33 17 -72 1z"/>
<path d="M1337 1579 c-33 -9 -65 -42 -79 -81 -13 -36 -28 -31 -49 13 -21 46
-54 69 -99 69 -33 0 -60 -14 -60 -31 0 -3 20 -12 44 -19 57 -16 78 -58 80
-161 1 -70 0 -73 -24 -79 -20 -5 -25 -12 -25 -35 0 -25 4 -31 28 -33 16 -2 31
-10 33 -17 9 -23 -15 -55 -41 -55 -27 0 -48 -29 -36 -48 4 -7 20 -15 36 -18
40 -7 42 -9 49 -51 10 -55 27 -93 41 -93 14 0 42 66 47 109 2 19 12 27 43 35
52 15 54 44 6 67 -56 26 -62 63 -11 70 19 3 26 11 28 32 3 24 -2 30 -28 40
l-31 12 6 60 c12 111 38 165 79 165 34 0 52 16 38 33 -17 20 -41 25 -75 16z"/>
<path d="M565 1520 c-20 -22 -17 -58 11 -155 24 -86 9 -119 -85 -180 -39 -25
-73 -45 -75 -45 -1 0 -59 -31 -127 -70 -116 -65 -150 -79 -118 -48 8 7 74 67
147 132 l132 118 46 -7 45 -6 -7 98 c-9 133 -25 156 -22 31 l3 -98 -32 6 c-30
6 -43 -4 -220 -162 -103 -92 -190 -169 -192 -171 -2 -2 -2 -6 2 -9 3 -3 86 20
184 51 98 31 206 66 241 77 54 17 62 23 62 44 0 35 21 39 77 14 59 -26 91 -55
110 -98 17 -40 13 -47 -32 -62 -34 -11 -34 -12 -95 -203 -34 -106 -75 -234
-92 -285 -16 -51 -28 -95 -26 -97 4 -4 68 65 332 355 82 90 82 92 60 168 -6
22 -5 22 88 22 82 0 100 -3 128 -22 56 -39 59 -52 20 -93 l-34 -35 12 -57 c67
-335 122 -586 128 -580 2 2 18 69 34 148 17 79 44 209 61 289 16 80 33 158 36
173 5 23 -1 35 -28 63 -37 38 -35 51 15 88 22 17 46 22 118 25 50 1 94 -1 100
-7 6 -6 4 -22 -6 -45 -14 -34 -13 -37 12 -71 50 -65 377 -415 380 -407 3 10
-154 514 -169 543 -5 9 -25 22 -44 28 -41 13 -44 30 -14 79 27 45 55 67 108
86 58 20 58 20 64 -13 5 -26 15 -31 164 -79 259 -85 324 -105 329 -101 4 5
-38 43 -261 242 -111 99 -122 106 -152 101 l-33 -6 7 91 c4 65 3 90 -6 90 -6
0 -11 -16 -11 -38 0 -21 -7 -64 -15 -95 -8 -32 -15 -66 -15 -75 0 -10 29 -34
73 -61 39 -24 95 -59 122 -76 28 -18 85 -54 128 -80 43 -26 76 -49 74 -51 -2
-2 -73 22 -158 52 -85 31 -169 61 -187 67 -31 10 -33 13 -27 47 5 31 3 38 -19
49 -42 23 -48 102 -16 196 11 32 20 66 20 77 0 10 -9 27 -20 38 -26 26 -99 27
-129 3 -19 -17 -20 -20 -6 -43 63 -107 56 -143 -53 -283 -67 -86 -91 -201 -54
-262 60 -98 242 -428 238 -432 -2 -2 -71 73 -153 167 -105 122 -147 178 -146
193 2 12 5 61 7 108 5 100 17 133 100 263 48 77 56 97 56 137 0 38 -5 51 -22
63 -27 19 -62 21 -75 4 -13 -16 -25 -86 -27 -154 -1 -59 -36 -113 -84 -133
-25 -10 -35 -10 -60 3 -17 9 -49 16 -72 16 -40 0 -40 0 -40 -38 0 -43 -14 -62
-47 -62 -18 0 -23 -7 -28 -37 -10 -57 -26 -93 -46 -104 -18 -9 -19 -28 -20
-297 -1 -158 -4 -298 -8 -312 -5 -18 -14 13 -35 115 -16 77 -37 174 -46 215
-34 141 -34 131 8 175 59 61 64 74 41 107 -11 15 -23 45 -26 65 -8 52 -20 73
-43 73 -27 0 -52 42 -44 74 6 25 5 26 -43 26 -28 0 -58 -7 -71 -16 -33 -23
-65 -11 -106 40 -31 37 -36 50 -35 92 2 59 -10 134 -24 152 -5 6 -24 12 -42
12 -24 0 -37 -7 -50 -26 -26 -41 -12 -96 49 -194 100 -159 111 -192 80 -253
-9 -18 -61 -108 -117 -202 -55 -93 -118 -199 -139 -235 -21 -36 -38 -61 -38
-57 0 9 101 321 130 402 16 46 22 51 64 64 40 13 47 19 56 50 24 87 9 138 -66
227 -78 91 -94 164 -49 224 45 61 26 90 -58 90 -31 0 -49 -6 -62 -20z"/>
</g>
</svg>
