<?xml version="1.0" standalone="no"?>
<!DOCTYPE svg PUBLIC "-//W3C//DTD SVG 20010904//EN"
 "http://www.w3.org/TR/2001/REC-SVG-20010904/DTD/svg10.dtd">
<svg version="1.0" xmlns="http://www.w3.org/2000/svg"
 width="244.000000pt" height="305.000000pt" viewBox="0 0 244.000000 305.000000"
 preserveAspectRatio="xMidYMid meet">
<metadata>
Created by potrace 1.16, written by Peter Selinger 2001-2019
</metadata>
<g transform="translate(0.000000,305.000000) scale(0.100000,-0.100000)"
fill="#000000" stroke="none">
<path d="M1000 2896 c0 -14 -4 -28 -10 -31 -5 -3 -10 3 -10 15 0 12 -4 19 -9
16 -5 -3 -7 -34 -4 -68 3 -35 -2 -133 -11 -218 -9 -85 -19 -271 -23 -412 -5
-203 -9 -258 -19 -258 -10 0 -14 31 -17 133 l-3 132 -2 -140 -2 -140 32 -27
33 -27 -27 -1 c-63 0 -107 -34 -108 -82 0 -25 4 -27 43 -30 37 -3 44 -7 62
-40 17 -32 18 -39 6 -62 -22 -40 -7 -117 38 -201 l40 -74 -20 -26 c-26 -32
-39 -24 -39 25 0 59 -8 70 -47 70 -34 0 -35 1 -30 29 9 41 -17 61 -80 61 -70
0 -88 -21 -79 -92 19 -152 19 -159 4 -153 -16 6 -28 66 -28 139 0 26 -3 36 -9
28 -4 -8 -6 -49 -3 -93 l4 -79 -31 6 c-18 4 -31 2 -31 -3 0 -6 -19 -31 -42
-56 -59 -62 -232 -266 -236 -278 -4 -10 30 1 78 26 32 17 40 6 14 -20 -27 -26
-6 -31 39 -8 23 12 99 49 170 82 103 48 127 64 127 80 0 49 62 1 85 -65 15
-46 7 -69 -30 -78 -14 -4 -25 -14 -25 -22 0 -15 -60 -267 -110 -466 -11 -43
-20 -81 -20 -85 0 -7 44 49 60 77 15 26 20 5 11 -46 -9 -47 -9 -48 7 -28 10
12 24 35 33 50 9 16 60 99 114 184 129 206 127 202 114 239 -18 52 -7 64 56
59 35 -3 62 -12 76 -24 38 -34 40 -49 13 -85 -28 -38 -29 -25 7 -249 45 -282
71 -435 75 -439 2 -2 4 -2 4 0 0 5 81 527 95 615 6 34 3 45 -19 71 -33 39 -33
43 4 78 23 22 41 29 83 33 64 5 72 -3 58 -55 -10 -35 -8 -43 31 -108 23 -38
47 -77 54 -85 6 -8 42 -64 79 -125 36 -60 73 -117 82 -125 14 -13 15 -11 9 23
-4 20 -3 37 1 37 4 0 22 -21 38 -45 28 -42 45 -56 45 -37 0 10 -76 324 -109
447 -23 87 -30 102 -54 113 -35 17 -36 54 -2 105 23 33 55 50 55 29 0 -5 24
-19 53 -32 28 -13 99 -46 155 -73 101 -47 128 -53 102 -22 -18 22 -4 19 75
-14 38 -16 71 -28 73 -26 6 5 -13 28 -167 203 -122 139 -137 152 -160 147
l-27 -6 2 93 c2 80 2 86 -6 40 -16 -106 -21 -122 -35 -122 -19 0 -19 21 0 93
19 73 19 97 -1 125 -13 18 -25 22 -73 22 -72 0 -95 -15 -89 -58 4 -29 2 -31
-31 -34 -23 -2 -37 -9 -38 -18 -12 -97 -22 -110 -48 -61 -10 21 -12 32 -4 37
6 3 26 38 45 77 25 54 34 85 34 124 0 29 -4 53 -10 53 -22 0 -9 53 20 82 24
23 37 29 60 26 19 -3 31 0 35 10 8 20 -24 80 -46 87 -33 11 -98 -5 -110 -26
-11 -21 -29 -17 -29 7 0 8 8 14 18 14 9 0 34 16 55 35 l37 35 0 158 c0 86 -5
222 -10 302 -16 220 -54 510 -69 510 -3 0 -5 -220 -3 -490 3 -420 1 -490 -11
-490 -23 0 -25 40 -22 438 2 263 6 377 14 385 14 14 15 94 1 102 -5 3 -10 16
-11 28 -1 18 -3 16 -10 -8 -20 -68 -50 -388 -60 -647 l-11 -278 31 -35 c17
-20 31 -38 31 -40 0 -3 -13 -2 -29 1 -39 8 -81 -31 -81 -75 0 -27 3 -30 37
-33 47 -4 74 -42 56 -80 -5 -13 -15 -44 -22 -71 -13 -54 -52 -123 -87 -152
-26 -22 -36 -65 -17 -72 7 -3 37 19 68 48 30 28 55 47 55 40 0 -20 -74 -94
-109 -108 -27 -12 -32 -18 -28 -39 2 -13 0 -24 -4 -24 -13 0 -10 107 4 160 10
37 19 48 50 63 44 22 46 31 12 53 -46 30 -75 8 -112 -86 l-10 -25 -7 25 c-25
85 -65 116 -112 85 -31 -20 -27 -37 13 -47 33 -9 54 -47 52 -97 0 -25 -1 -25
-9 -4 -5 12 -15 25 -23 30 -27 15 -76 99 -88 149 -6 27 -16 59 -22 71 -7 16
-6 31 3 52 13 32 17 34 63 31 23 -1 27 2 27 24 0 36 -20 75 -42 82 -10 3 -33
2 -51 -1 l-32 -7 35 37 c29 30 36 33 38 18 2 -10 17 -32 34 -49 25 -27 29 -37
26 -80 l-3 -49 -34 3 c-33 4 -34 3 -27 -29 3 -18 11 -38 17 -46 15 -18 48 -17
55 2 8 20 23 9 17 -13 -2 -11 8 -30 26 -50 17 -17 31 -38 31 -46 0 -31 20 -25
34 9 8 19 22 38 31 41 9 4 15 19 15 40 0 35 13 46 24 19 9 -26 44 -17 61 15
24 47 20 62 -17 58 -33 -3 -33 -3 -36 48 -3 44 1 54 27 82 28 29 30 35 25 84
-14 131 -19 153 -34 153 -12 0 -18 -24 -27 -104 -7 -57 -14 -109 -16 -115 -2
-6 -7 81 -10 194 -9 265 -46 548 -67 509 -26 -47 -59 -364 -61 -569 0 -74 -3
-130 -5 -124 -3 6 -10 55 -17 110 -9 75 -16 99 -27 99 -11 0 -18 -21 -26 -85
-13 -98 -14 -91 -24 170 l-7 195 1 -213 c1 -116 -2 -212 -5 -212 -3 0 -9 111
-12 248 -4 155 -14 308 -28 412 -13 106 -18 189 -15 233 4 37 4 67 1 67 -3 0
-5 -11 -5 -24z m4 -1044 c2 -4 0 -14 -5 -22 -8 -13 -10 -13 -18 0 -10 15 -6
30 9 30 5 0 11 -4 14 -8z m157 -472 c10 0 20 6 22 13 3 6 6 -12 6 -40 1 -29
-3 -53 -8 -53 -4 0 -6 11 -4 23 4 19 -2 27 -30 40 -35 17 -107 89 -107 108 0
5 24 -13 52 -40 29 -28 60 -51 69 -51z m-14 -109 c-6 -31 1 -51 19 -51 7 0 18
-9 24 -20 9 -16 6 -22 -15 -36 -22 -15 -26 -15 -40 0 -21 20 -38 20 -81 0 -27
-13 -37 -14 -49 -4 -27 23 -18 39 19 33 40 -6 49 9 35 62 -6 19 -7 44 -4 55 6
18 8 18 51 2 40 -15 45 -20 41 -41z m263 -12 c-16 -57 -8 -72 35 -67 38 4 41
1 22 -26 -13 -17 -15 -17 -45 -2 -39 20 -66 20 -86 1 -19 -19 -31 -19 -50 1
-18 18 -6 54 18 54 18 0 27 26 20 56 -5 19 -2 24 12 24 11 1 30 7 44 15 34 18
45 -1 30 -56z m-750 3 c0 -9 -45 -72 -57 -81 -5 -3 -25 -27 -45 -53 -34 -41
-126 -118 -142 -118 -8 0 124 162 140 172 6 4 23 25 39 48 24 35 65 55 65 32z
m1132 -38 c48 -52 117 -144 118 -157 0 -10 -66 28 -97 56 -13 11 -23 30 -23
42 0 12 -9 30 -19 39 -16 15 -35 66 -25 66 2 0 23 -21 46 -46z m-1042 -79 c14
-16 6 -35 -16 -35 -8 0 -14 10 -14 25 0 28 12 32 30 10z m1245 -82 c47 -36 83
-68 81 -70 -12 -12 -116 49 -144 85 -31 38 -38 52 -27 52 3 0 43 -30 90 -67z
m-1335 12 c0 -3 -36 -23 -80 -45 -44 -22 -80 -36 -80 -32 0 10 108 65 158 81
1 1 2 -1 2 -4z m541 -47 c7 -42 24 -88 34 -88 10 0 27 46 34 88 3 27 12 47 21
50 12 4 13 2 3 -9 -7 -7 -13 -28 -13 -47 0 -34 -24 -97 -41 -108 -16 -9 -49
60 -49 102 0 22 -6 46 -12 53 -11 11 -10 13 2 9 9 -3 18 -23 21 -50z m401
-178 c20 -47 41 -112 48 -145 7 -33 14 -66 17 -75 12 -38 -33 32 -69 110 -55
116 -55 118 -67 178 -14 70 -15 70 12 42 13 -14 40 -63 59 -110z m-758 68
c-28 -167 -117 -439 -131 -401 -2 7 0 20 5 30 5 10 29 98 52 197 37 153 57
206 75 206 3 0 2 -15 -1 -32z m133 -10 c-3 -8 -6 -5 -6 6 -1 11 2 17 5 13 3
-3 4 -12 1 -19z m-74 -215 c-11 -16 -39 -63 -63 -105 -45 -80 -61 -94 -41 -36
14 42 115 192 119 178 2 -5 -5 -22 -15 -37z m848 -181 c14 -36 -7 -17 -35 31
-14 23 -27 60 -30 82 -6 38 -4 36 25 -25 17 -36 35 -75 40 -88z m-62 16 c10
-30 9 -31 -4 -14 -8 11 -15 26 -15 33 0 22 8 14 19 -19z"/>
<path d="M1011 2814 c0 -11 3 -14 6 -6 3 7 2 16 -1 19 -3 4 -6 -2 -5 -13z"/>
<path d="M1022 2760 c0 -14 2 -19 5 -12 2 6 2 18 0 25 -3 6 -5 1 -5 -13z"/>
<path d="M942 2745 c0 -16 2 -22 5 -12 2 9 2 23 0 30 -3 6 -5 -1 -5 -18z"/>
<path d="M1032 2700 c0 -14 2 -19 5 -12 2 6 2 18 0 25 -3 6 -5 1 -5 -13z"/>
<path d="M925 2642 c-4 -40 -5 -76 -2 -78 7 -7 20 121 15 138 -3 7 -8 -20 -13
-60z"/>
<path d="M1043 2590 c0 -30 2 -43 4 -27 2 15 2 39 0 55 -2 15 -4 2 -4 -28z"/>
<path d="M913 2495 c0 -33 2 -45 4 -27 2 18 2 45 0 60 -2 15 -4 0 -4 -33z"/>
<path d="M1053 2460 c0 -36 2 -50 4 -32 2 17 2 47 0 65 -2 17 -4 3 -4 -33z"/>
<path d="M904 2325 c0 -60 1 -84 3 -52 2 32 2 81 0 110 -2 29 -3 3 -3 -58z"/>
</g>
</svg>
