<?xml version="1.0" standalone="no"?>
<!DOCTYPE svg PUBLIC "-//W3C//DTD SVG 20010904//EN"
 "http://www.w3.org/TR/2001/REC-SVG-20010904/DTD/svg10.dtd">
<svg version="1.0" xmlns="http://www.w3.org/2000/svg"
 width="244.000000pt" height="305.000000pt" viewBox="0 0 244.000000 305.000000"
 preserveAspectRatio="xMidYMid meet">
<metadata>
Created by potrace 1.16, written by Peter Selinger 2001-2019
</metadata>
<g transform="translate(0.000000,305.000000) scale(0.100000,-0.100000)"
fill="#000000" stroke="none">
<path d="M1488 2878 l-4 -33 -12 25 c-11 23 -12 21 -8 -19 3 -25 -2 -106 -9
-180 -24 -230 -35 -409 -35 -568 0 -95 -4 -153 -10 -153 -6 0 -11 35 -12 83
l-2 82 -5 -90 -6 -90 -8 80 c-7 79 -19 108 -36 89 -5 -5 -14 -56 -21 -114 -6
-58 -14 -107 -16 -109 -2 -2 -4 54 -4 125 0 152 -14 330 -36 469 -18 110 -28
140 -37 109 -27 -94 -48 -284 -56 -509 l-7 -200 -13 107 c-14 106 -23 139 -37
125 -10 -10 -22 -99 -23 -168 -1 -47 3 -59 24 -77 21 -18 25 -31 25 -75 0 -62
-5 -70 -31 -54 -30 18 -45 -4 -29 -42 21 -51 36 -57 65 -25 l25 27 0 -40 c0
-28 5 -43 15 -47 9 -3 24 -25 34 -48 l18 -43 12 38 c7 21 24 45 37 54 17 11
24 25 24 47 1 26 2 28 11 14 12 -21 42 -23 58 -5 6 8 14 29 17 47 l7 33 -36
-7 -37 -7 0 52 c0 43 5 57 30 86 17 18 30 38 30 44 0 15 38 -8 50 -32 10 -18
9 -19 -14 -13 -50 12 -86 -22 -86 -81 0 -20 5 -24 37 -27 45 -4 76 -45 57 -76
-6 -10 -15 -36 -18 -59 -4 -23 -13 -49 -20 -59 -12 -16 -14 -16 -34 4 -12 12
-30 22 -40 22 -25 0 -57 -37 -72 -84 l-12 -39 -27 54 c-33 67 -52 79 -89 59
-36 -21 -34 -42 5 -52 23 -6 34 -17 43 -41 16 -44 26 -187 13 -187 -6 0 -8 11
-5 25 3 20 -1 27 -23 35 -36 14 -76 45 -97 78 -32 48 -19 46 37 -7 31 -29 61
-51 68 -48 20 7 9 47 -21 76 -39 36 -79 108 -87 156 -4 22 -11 50 -18 63 -7
15 -8 31 -1 50 8 23 16 27 52 30 40 3 42 5 42 35 0 74 -65 103 -117 51 -19
-19 -28 -23 -34 -13 -10 17 -1 32 17 25 8 -3 14 -1 14 4 0 6 14 22 31 37 l32
28 -6 285 c-6 259 -17 406 -46 605 -6 39 -11 74 -11 78 0 5 -5 5 -11 2 -6 -4
-8 -14 -5 -22 3 -8 1 -11 -4 -8 -6 3 -10 13 -10 22 0 27 -11 7 -22 -39 -25
-114 -49 -360 -59 -626 l-12 -292 39 -34 39 -34 -45 4 c-56 6 -88 -16 -96 -67
-6 -35 -6 -35 31 -35 29 0 43 -7 61 -28 24 -27 33 -76 14 -76 -17 0 -11 -87
10 -144 12 -30 32 -71 46 -92 25 -37 25 -37 7 -62 -28 -37 -38 -32 -41 18 -4
57 -22 78 -62 72 -32 -4 -39 9 -20 38 17 27 -17 50 -75 50 -72 0 -90 -20 -81
-92 18 -145 19 -164 5 -150 -7 7 -19 47 -25 90 l-12 77 -1 -86 c-1 -85 -1 -86
-24 -82 -19 4 -34 -8 -78 -59 -30 -34 -56 -65 -59 -68 -28 -26 -182 -212 -178
-215 3 -3 26 4 52 16 50 22 67 20 46 -6 -20 -25 2 -18 112 31 174 78 215 101
221 125 6 21 7 21 29 7 26 -17 54 -60 63 -99 5 -22 1 -29 -27 -46 -30 -18 -35
-28 -52 -104 -17 -73 -69 -281 -96 -389 -5 -19 -10 -44 -10 -55 0 -18 2 -18
23 5 13 14 26 34 30 44 13 34 19 9 7 -34 -10 -36 -8 -63 3 -49 12 14 97 151
97 155 0 3 13 24 29 47 40 59 116 178 130 205 7 13 11 47 9 75 l-3 52 45 3
c52 3 85 -12 113 -50 l19 -26 -26 -35 -27 -35 31 -199 c17 -109 38 -241 46
-293 19 -127 26 -162 30 -157 2 2 27 148 55 326 l51 322 -27 35 -27 36 19 26
c11 15 31 33 44 39 27 14 105 17 113 5 3 -5 1 -26 -5 -46 -10 -36 -7 -42 65
-160 41 -68 103 -166 136 -217 l62 -94 -5 48 c-2 26 -3 47 -2 47 2 0 22 -29
46 -65 23 -36 44 -63 46 -62 3 4 -61 272 -113 475 -24 92 -30 105 -57 118 -26
14 -29 20 -24 50 10 57 65 119 79 86 2 -5 39 -25 83 -46 44 -21 113 -54 152
-74 71 -35 98 -38 73 -7 -18 21 -5 19 79 -15 41 -17 75 -29 77 -28 1 2 -66 82
-151 178 -130 149 -157 175 -181 175 l-28 0 1 90 1 90 -9 -90 c-6 -49 -11 -91
-13 -92 -2 -2 -11 -1 -20 3 -20 8 -20 34 -1 98 33 108 13 146 -74 146 -71 0
-93 -13 -89 -53 3 -30 0 -32 -32 -37 -33 -5 -35 -8 -43 -55 -10 -59 -12 -62
-32 -45 -21 17 -19 46 5 80 54 76 81 186 56 225 -21 32 -20 47 5 79 13 17 34
28 60 32 22 4 42 10 44 14 8 14 -17 70 -35 80 -29 15 -109 1 -121 -22 -8 -14
-14 -17 -21 -10 -13 13 -2 46 12 37 5 -3 28 9 50 27 l40 33 -2 175 -2 175 -6
-164 c-3 -110 -9 -166 -16 -168 -9 -3 -14 47 -18 174 -3 98 -13 285 -22 415
-9 131 -14 267 -12 303 6 66 -8 104 -14 43z m-511 -70 c-3 -7 -5 -2 -5 12 0
14 2 19 5 13 2 -7 2 -19 0 -25z m20 10 c-3 -8 -6 -5 -6 6 -1 11 2 17 5 13 3
-3 4 -12 1 -19z m2 -500 c1 -371 -3 -443 -23 -392 -8 22 -8 650 1 765 13 175
21 46 22 -373z m357 -828 c-14 -22 -31 -40 -36 -40 -16 0 -33 -51 -21 -63 12
-12 55 14 88 52 12 14 25 22 28 19 10 -10 -53 -75 -91 -93 -30 -14 -35 -21
-31 -41 2 -13 0 -24 -6 -24 -18 0 0 171 21 199 17 23 60 43 71 35 2 -2 -8 -22
-23 -44z m-260 -175 c10 -8 27 -15 38 -15 15 0 17 -5 13 -28 -6 -31 -1 -42 27
-58 30 -16 30 -31 2 -49 -23 -16 -27 -16 -41 -1 -21 21 -50 20 -86 -1 -27 -16
-29 -16 -49 2 -30 27 -25 34 22 28 l41 -6 -7 65 c-8 80 0 93 40 63z m315 -35
c-10 -82 -9 -85 32 -90 36 -5 37 -6 23 -25 -14 -19 -16 -19 -44 -2 -36 20 -66
22 -84 4 -16 -16 -48 -14 -59 5 -12 17 -7 29 17 42 28 16 35 28 29 56 -5 22
-1 27 27 37 53 17 64 12 59 -27z m467 -42 c55 -62 186 -213 201 -233 16 -19
16 -19 -14 -1 -134 83 -286 237 -254 257 24 15 37 10 67 -23z m-1148 3 c0 -10
-11 -26 -23 -34 -14 -9 -23 -25 -23 -38 1 -18 -15 -34 -68 -71 -119 -82 -116
-61 10 69 49 50 92 92 97 92 4 1 7 -7 7 -18z m1030 -112 c0 -22 -12 -24 -41
-8 -20 10 -20 11 -3 24 23 16 44 9 44 -16z m-1269 -89 c-29 -25 -65 -36 -59
-19 2 4 21 21 43 37 48 35 62 19 16 -18z m710 -12 c7 -48 24 -88 38 -88 9 0
28 65 33 109 2 14 10 26 18 29 12 4 13 2 3 -9 -7 -7 -13 -31 -13 -53 0 -42
-33 -111 -49 -102 -17 11 -41 74 -41 108 0 19 -6 40 -12 47 -11 11 -10 13 2 9
9 -3 18 -23 21 -50z m692 15 c16 -8 27 -17 24 -19 -3 -3 -27 6 -54 21 -49 26
-22 25 30 -2z m-946 -80 c-4 -32 -22 -98 -42 -146 -39 -96 -94 -201 -102 -193
-15 15 70 255 117 330 11 19 20 41 20 50 0 9 3 16 6 16 4 0 4 -26 1 -57z m544
-85 l-9 -33 -1 32 c-1 17 2 40 6 50 12 30 16 -9 4 -49z m163 54 c4 -6 96 -362
111 -427 8 -39 -22 13 -56 94 -30 72 -89 286 -89 324 0 17 24 24 34 9z m-94
-201 c0 -5 6 -16 13 -23 20 -21 82 -119 101 -161 26 -56 12 -56 -20 0 -34 60
-82 141 -102 171 -9 14 -10 22 -3 22 6 0 11 -4 11 -9z m-793 -146 c-3 -19 -13
-43 -23 -52 -16 -16 -16 -16 -9 7 4 14 11 29 16 35 5 5 9 17 9 27 0 10 3 18 6
18 4 0 4 -16 1 -35z m13 -76 c-11 -24 -20 -38 -20 -32 0 20 33 98 37 87 2 -6
-5 -31 -17 -55z"/>
<path d="M1522 2775 c0 -16 2 -22 5 -12 2 9 2 23 0 30 -3 6 -5 -1 -5 -18z"/>
<path d="M1441 2754 c0 -11 3 -14 6 -6 3 7 2 16 -1 19 -3 4 -6 -2 -5 -13z"/>
<path d="M1532 2705 c0 -16 3 -50 7 -75 6 -33 9 -37 9 -15 0 17 -3 50 -7 75
-6 33 -9 37 -9 15z"/>
<path d="M1423 2605 c0 -27 2 -38 4 -22 2 15 2 37 0 50 -2 12 -4 0 -4 -28z"/>
<path d="M1558 2445 c2 -77 6 -142 8 -144 7 -8 2 173 -6 229 -5 34 -6 0 -2
-85z"/>
<path d="M1413 2480 c0 -36 2 -50 4 -32 2 17 2 47 0 65 -2 17 -4 3 -4 -33z"/>
<path d="M1404 2280 c0 -74 1 -105 3 -67 2 37 2 97 0 135 -2 37 -3 6 -3 -68z"/>
</g>
</svg>
