<?xml version="1.0" standalone="no"?>
<!DOCTYPE svg PUBLIC "-//W3C//DTD SVG 20010904//EN"
 "http://www.w3.org/TR/2001/REC-SVG-20010904/DTD/svg10.dtd">
<svg version="1.0" xmlns="http://www.w3.org/2000/svg"
 width="244.000000pt" height="305.000000pt" viewBox="0 0 244.000000 305.000000"
 preserveAspectRatio="xMidYMid meet">
<metadata>
Created by potrace 1.16, written by Peter Selinger 2001-2019
</metadata>
<g transform="translate(0.000000,305.000000) scale(0.100000,-0.100000)"
fill="#000000" stroke="none">
<path d="M941 2861 c-40 -185 -60 -388 -68 -696 l-6 -240 27 -15 c15 -8 32
-22 37 -32 13 -24 35 -23 53 3 15 22 46 23 53 2 3 -7 -10 -16 -29 -21 -25 -6
-35 -15 -43 -40 -11 -38 -22 -41 -31 -7 -8 30 -40 55 -72 55 -31 0 -72 -43
-72 -75 0 -22 4 -25 39 -25 32 0 44 -6 65 -31 26 -31 35 -79 15 -79 -6 0 -9
-23 -8 -62 2 -35 -2 -73 -9 -85 -7 -12 -12 -32 -13 -45 0 -13 -3 -17 -6 -11
-3 9 -15 5 -39 -13 -28 -22 -34 -33 -34 -63 0 -20 4 -50 9 -67 5 -17 6 -37 2
-43 -12 -19 -30 11 -43 71 -11 52 -10 58 16 108 26 49 26 53 10 71 -23 25 -85
26 -107 1 -21 -23 -21 -51 -2 -122 8 -30 15 -79 15 -108 0 -43 -5 -57 -25 -78
-21 -21 -24 -32 -20 -58 7 -37 23 -27 -174 -112 -68 -30 -126 -52 -129 -50 -2
3 31 30 75 62 43 32 118 87 167 123 l88 66 -6 40 c-4 22 -13 74 -20 115 l-13
75 -2 -93 c-1 -91 -1 -92 -24 -87 -24 6 -64 -31 -222 -205 -33 -36 -77 -85
-100 -109 -49 -53 -56 -55 195 44 176 70 185 75 190 103 4 26 8 28 28 21 12
-5 22 -11 22 -14 0 -10 -41 -88 -68 -127 -14 -21 -22 -41 -19 -44 3 -3 42 17
87 45 45 28 85 51 90 51 10 0 20 -25 20 -51 0 -13 -10 -24 -29 -30 -32 -11
-35 -20 -130 -390 -22 -85 -43 -163 -47 -172 -18 -48 25 -2 125 131 61 81 120
158 131 172 l21 25 -5 -30 c-7 -41 -35 -222 -41 -265 l-5 -35 21 40 c12 22 60
120 105 217 78 164 83 180 78 222 -6 39 -4 46 10 46 29 0 75 -29 90 -57 13
-26 12 -30 -16 -62 -21 -23 -28 -40 -24 -55 3 -11 29 -156 56 -320 43 -259 60
-339 60 -300 0 11 67 400 75 434 3 14 10 69 17 123 10 94 10 98 -11 120 -11
13 -21 31 -21 41 0 26 55 76 84 76 32 0 37 -8 26 -54 -9 -43 12 -98 128 -331
32 -66 63 -130 67 -143 17 -57 15 -3 -6 122 -12 75 -24 134 -26 132 -3 -2 0
-37 6 -77 7 -39 10 -73 8 -75 -5 -6 -137 417 -132 426 2 4 16 5 31 2 25 -5 26
-6 20 -56 -6 -45 -4 -56 15 -80 12 -16 28 -52 35 -80 11 -46 12 -48 13 -16 1
32 6 27 112 -115 61 -83 117 -159 125 -169 7 -11 16 -18 18 -15 2 2 -25 117
-60 254 -35 138 -67 263 -71 278 -4 20 -16 32 -40 42 -25 11 -33 19 -29 31 3
8 6 22 6 30 0 24 29 16 90 -26 32 -22 64 -40 69 -40 6 0 11 -4 11 -8 0 -8 43
-32 56 -32 7 0 -32 74 -76 141 -22 34 -37 65 -34 70 11 19 33 8 36 -17 2 -15
10 -31 18 -35 25 -14 374 -149 377 -145 3 3 -73 90 -206 234 -42 46 -81 91
-88 99 -8 10 -21 13 -40 9 l-29 -7 2 93 c2 76 1 85 -6 48 -5 -25 -9 -72 -9
-106 l-1 -61 38 1 c37 1 44 -4 151 -122 62 -68 110 -126 107 -129 -9 -10 -299
202 -317 232 -23 36 -24 98 -4 155 37 106 -5 167 -90 128 -30 -14 -32 -32 -5
-76 22 -36 25 -78 9 -135 -10 -38 -37 -48 -31 -11 2 10 4 41 5 67 2 40 -2 52
-20 67 -13 10 -23 24 -23 32 0 10 -3 9 -10 -2 -8 -12 -10 -10 -10 11 0 14 -9
34 -19 46 -15 15 -18 30 -14 65 4 33 1 53 -12 72 -16 24 -16 28 -1 51 24 37
62 58 91 51 22 -6 25 -3 25 22 0 73 -76 99 -123 42 -24 -29 -25 -29 -31 -7 -5
17 3 31 39 64 l45 41 -2 129 -2 128 -3 -117 -4 -116 -34 -26 c-18 -14 -36 -26
-39 -26 -3 0 -6 215 -5 478 0 309 4 470 10 457 8 -17 9 -17 4 5 -2 14 -5 34
-5 45 -1 51 -19 -20 -41 -157 -12 -81 -25 -145 -28 -143 -4 2 -7 -27 -8 -63
-4 -269 -18 -602 -25 -602 -5 0 -8 210 -6 490 2 270 0 478 -4 463 -13 -54 -29
-252 -43 -544 -8 -163 -19 -307 -24 -320 -9 -21 -10 -19 -10 18 -1 23 -4 50
-8 60 -6 16 -8 15 -14 -7 -5 -17 -7 -6 -8 35 -3 158 -50 500 -66 483 -2 -2
-13 -46 -24 -98 -21 -95 -40 -272 -42 -385 -1 -42 -3 -52 -8 -35 -7 24 -7 24
-14 -9 -4 -18 -7 -48 -8 -65 0 -17 -7 2 -14 42 -7 41 -15 76 -18 78 -3 3 -10
-35 -16 -83 -7 -48 -15 -101 -19 -118 -6 -30 -6 -30 -12 10 -3 22 -3 238 0
480 3 242 2 449 -2 460 -4 12 -7 14 -7 5 -3 -66 -25 -278 -31 -289 -4 -7 -12
29 -19 80 -7 51 -15 96 -18 99 -3 3 -3 -13 0 -35 21 -138 28 -291 25 -526 -3
-245 -5 -269 -22 -288 -10 -11 -23 -18 -27 -15 -5 3 -9 217 -9 475 0 311 3
468 10 464 11 -7 11 8 1 45 -7 22 -9 18 -20 -29z m319 -576 c2 -59 4 -64 9
-30 3 22 4 -108 2 -289 -2 -265 -6 -332 -17 -343 -12 -12 -14 48 -13 419 2
373 11 487 19 243z m27 -347 c-1 -46 -3 -11 -3 77 0 88 2 125 3 83 2 -42 2
-114 0 -160z m192 -62 c-2 -2 -14 -7 -26 -10 -26 -8 -32 11 -11 32 10 10 15 9
27 -3 8 -8 13 -16 10 -19z m-379 -4 c0 -13 -12 -22 -22 -16 -10 6 -1 24 13 24
5 0 9 -4 9 -8z m300 -2 c0 -5 -4 -10 -10 -10 -5 0 -10 5 -10 10 0 6 5 10 10
10 6 0 10 -4 10 -10z m-270 -112 c0 -25 -18 -44 -30 -32 -8 8 -7 16 5 28 20
19 25 20 25 4z m238 0 c16 -16 15 -38 -2 -38 -13 0 -26 20 -26 41 0 13 14 11
28 -3z m-333 -55 c8 -34 -10 -53 -31 -31 -21 21 -10 86 11 68 7 -6 16 -23 20
-37z m440 17 c8 -26 -3 -60 -20 -60 -19 0 -26 26 -15 55 11 30 26 32 35 5z
m-188 -67 c-3 -10 -5 -2 -5 17 0 19 2 27 5 18 2 -10 2 -26 0 -35z m-143 1 c9
-3 16 -14 16 -24 0 -10 9 -20 20 -23 12 -3 28 -23 38 -48 l19 -44 12 38 c7 21
24 45 37 54 13 8 24 21 24 28 0 8 10 17 21 20 29 9 49 -13 42 -47 -5 -25 -9
-27 -49 -26 -25 0 -47 -2 -51 -5 -3 -4 -13 -30 -23 -59 l-17 -52 -11 45 c-17
66 -26 74 -74 74 -40 0 -43 2 -46 29 -2 16 2 32 10 37 16 10 13 10 32 3z
m-169 -63 c3 -16 28 -64 56 -107 27 -43 49 -83 49 -88 0 -6 -18 7 -40 29 -42
41 -79 108 -87 162 -7 41 13 45 22 4z m104 -32 c10 -30 22 -63 26 -73 13 -30
-13 -10 -30 24 -14 28 -32 120 -20 109 2 -3 13 -30 24 -60z m336 14 c-3 -22
-15 -52 -27 -69 -11 -16 -18 -22 -15 -14 2 8 12 41 21 74 19 64 32 70 21 9z
m105 27 c0 -52 -90 -200 -121 -200 -10 0 0 18 63 119 15 24 30 56 33 72 7 33
25 39 25 9z m-196 -116 c-10 -15 -20 -21 -22 -15 -2 6 4 24 14 39 10 14 19 21
21 15 3 -7 -4 -24 -13 -39z m-168 19 c22 -30 16 -52 -6 -24 -20 23 -26 41 -14
41 4 0 13 -8 20 -17z m378 -75 c9 -34 7 -81 -4 -98 -5 -8 -10 -13 -11 -10 0 3
-2 33 -4 68 -4 61 7 84 19 40z m-574 -44 c0 -34 -4 -53 -10 -49 -18 11 -12
105 7 105 2 0 3 -25 3 -56z m224 -9 c3 -9 0 -15 -9 -15 -16 0 -27 14 -18 24
10 10 21 7 27 -9z m131 5 c3 -6 -1 -13 -10 -16 -19 -8 -30 0 -20 15 8 14 22
14 30 1z m-270 -88 c-5 -39 -3 -53 13 -72 12 -15 25 -21 35 -17 13 5 15 16 10
58 -6 47 -4 52 11 46 10 -4 25 -7 34 -7 12 0 13 -3 4 -12 -21 -21 -14 -58 13
-68 17 -7 25 -17 25 -34 0 -24 -2 -24 -62 -19 -35 3 -69 11 -77 18 -18 18 -29
155 -11 155 9 0 10 -13 5 -48z m397 11 c2 -16 -1 -49 -6 -76 -10 -52 -9 -52
-103 -61 -53 -5 -53 -5 -53 24 0 22 5 29 23 32 28 4 36 46 13 64 -14 10 -12
12 19 16 l35 4 0 -58 c0 -44 3 -58 15 -58 28 0 48 47 42 95 -4 25 -3 45 3 45
5 0 10 -12 12 -27z m201 -74 c-17 -29 -33 -38 -33 -19 0 18 32 60 41 54 5 -3
2 -19 -8 -35z m-773 -50 c0 -6 -4 -7 -10 -4 -5 3 -10 11 -10 16 0 6 5 7 10 4
6 -3 10 -11 10 -16z m150 -20 c0 -5 -4 -9 -10 -9 -5 0 -10 7 -10 16 0 8 5 12
10 9 6 -3 10 -10 10 -16z m460 17 c0 -3 -4 -8 -10 -11 -5 -3 -10 -1 -10 4 0 6
5 11 10 11 6 0 10 -2 10 -4z m-552 -212 c3 -85 0 -129 -9 -145 -7 -13 -53 -82
-103 -152 -50 -71 -99 -140 -108 -155 -10 -15 -18 -22 -18 -16 0 10 29 77 115
259 98 211 104 228 95 270 -5 22 -9 58 -9 80 l0 40 17 -30 c12 -22 17 -62 20
-151z m654 119 c-5 -76 9 -108 55 -130 l38 -18 57 -215 c31 -118 56 -218 55
-223 -1 -4 -57 109 -125 251 -96 203 -122 267 -122 300 0 23 5 42 10 42 6 0
10 8 10 18 0 19 8 32 20 32 3 0 4 -26 2 -57z m185 -10 c23 -37 40 -69 38 -71
-7 -8 -115 113 -111 125 11 27 33 11 73 -54z m-969 15 c3 -15 -95 -85 -104
-75 -2 2 14 25 37 51 41 46 61 54 67 24z m468 -113 c-3 -13 -11 -36 -17 -51
l-10 -28 -14 28 c-19 36 -19 56 -1 30 14 -18 15 -18 26 14 14 38 25 43 16 7z
m-221 -73 c5 -30 -1 -55 -24 -113 -41 -103 -112 -252 -117 -246 -6 5 98 366
111 387 12 20 23 10 30 -28z m225 -334 c-13 -120 -25 -218 -27 -218 -1 0 -3
123 -3 273 l0 272 26 -55 26 -55 -22 -217z m49 165 c-19 -136 -26 -142 -25
-20 1 109 2 116 17 98 13 -16 14 -31 8 -78z"/>
<path d="M972 2805 c0 -16 2 -22 5 -12 2 9 2 23 0 30 -3 6 -5 -1 -5 -18z"/>
<path d="M1532 2775 c0 -16 2 -22 5 -12 2 9 2 23 0 30 -3 6 -5 -1 -5 -18z"/>
<path d="M1072 2750 c0 -19 2 -27 5 -17 2 9 2 25 0 35 -3 9 -5 1 -5 -18z"/>
<path d="M1432 2740 c0 -19 2 -27 5 -17 2 9 2 25 0 35 -3 9 -5 1 -5 -18z"/>
<path d="M1543 2705 c0 -22 2 -30 4 -17 2 12 2 30 0 40 -3 9 -5 -1 -4 -23z"/>
<path d="M1083 2655 c0 -22 2 -30 4 -17 2 12 2 30 0 40 -3 9 -5 -1 -4 -23z"/>
<path d="M1442 2630 c0 -19 2 -27 5 -17 2 9 2 25 0 35 -3 9 -5 1 -5 -18z"/>
<path d="M1550 2639 c1 -13 5 -55 10 -94 5 -38 12 -128 16 -200 4 -71 8 -132
10 -134 14 -16 1 221 -22 399 -7 50 -14 66 -14 29z"/>
<path d="M1093 2505 c0 -33 2 -45 4 -27 2 18 2 45 0 60 -2 15 -4 0 -4 -33z"/>
<path d="M1104 2260 c0 -69 1 -97 3 -62 2 34 2 90 0 125 -2 34 -3 6 -3 -63z"/>
</g>
</svg>
