<?xml version="1.0" standalone="no"?>
<!DOCTYPE svg PUBLIC "-//W3C//DTD SVG 20010904//EN"
 "http://www.w3.org/TR/2001/REC-SVG-20010904/DTD/svg10.dtd">
<svg version="1.0" xmlns="http://www.w3.org/2000/svg"
 width="244.000000pt" height="305.000000pt" viewBox="0 0 244.000000 305.000000"
 preserveAspectRatio="xMidYMid meet">
<metadata>
Created by potrace 1.16, written by Peter Selinger 2001-2019
</metadata>
<g transform="translate(0.000000,305.000000) scale(0.100000,-0.100000)"
fill="#000000" stroke="none">
<path d="M1550 2893 c0 -12 -3 -30 -6 -40 -5 -15 -4 -15 5 -3 8 11 11 -120 11
-467 0 -266 -2 -483 -5 -483 -8 0 -69 43 -77 55 -21 28 -1 428 32 655 11 74
22 153 25 175 11 91 -14 -22 -35 -153 -25 -163 -40 -369 -40 -565 l0 -147 27
-11 c15 -5 33 -19 40 -29 17 -24 48 -26 57 -5 3 8 22 23 41 32 l36 17 -2 176
c-4 259 -22 446 -66 670 -22 116 -43 175 -43 123z"/>
<path d="M900 2883 c0 -10 -3 -29 -5 -43 -5 -22 -4 -22 4 -5 6 13 10 -148 10
-457 1 -263 -1 -478 -4 -478 -8 0 -69 43 -78 55 -4 6 -7 59 -6 118 1 59 -2
111 -5 114 -3 4 -6 -55 -6 -131 0 -132 1 -137 23 -145 12 -5 31 -18 41 -30 24
-27 48 -27 72 0 10 12 30 25 43 30 l24 10 -7 227 c-9 314 -22 433 -73 675 -15
70 -33 103 -33 60z"/>
<path d="M1151 2845 c-1 -16 -2 -235 -1 -485 l0 -455 -20 44 c-11 24 -20 53
-20 66 0 42 -12 85 -25 85 -7 0 -16 -30 -23 -77 -17 -113 -16 -128 15 -153 20
-16 27 -29 25 -52 -1 -17 2 -36 9 -44 27 -32 -19 -72 -49 -42 -23 23 -35 -6
-18 -46 18 -43 37 -46 73 -10 l26 26 -7 -32 c-3 -18 -6 -45 -6 -59 0 -22 -6
-29 -32 -36 -31 -9 -33 -12 -30 -50 l4 -40 -31 33 c-38 41 -61 84 -61 113 0
12 -8 31 -17 41 -13 14 -15 25 -7 46 12 35 50 54 97 48 35 -4 37 -2 37 22 -1
87 -119 103 -157 21 -18 -39 -33 -50 -33 -25 0 8 -12 28 -26 45 -21 26 -33 31
-68 31 -50 0 -76 -22 -79 -66 -2 -28 0 -29 38 -26 34 3 45 -2 73 -29 34 -33
42 -73 17 -83 -35 -13 -4 -128 59 -216 20 -28 36 -54 36 -58 0 -4 -13 -22 -30
-40 -54 -60 -52 -114 7 -138 34 -15 73 -11 73 7 0 5 -5 29 -12 53 -9 35 -9 48
1 60 12 14 17 14 49 0 20 -8 37 -16 39 -18 2 -1 -1 -27 -7 -56 -11 -58 -28
-86 -42 -72 -6 6 -19 0 -33 -14 -34 -34 -53 -30 -102 22 -40 41 -44 50 -43 92
2 93 -11 152 -37 169 -22 15 -26 15 -51 -4 -24 -18 -27 -27 -26 -74 0 -48 8
-66 70 -169 96 -159 97 -155 -36 -391 -57 -101 -119 -212 -138 -247 -19 -35
-36 -61 -39 -59 -2 3 23 94 57 203 34 110 63 206 66 215 3 9 25 22 50 29 53
15 64 35 64 111 0 57 -15 92 -74 169 -71 92 -84 159 -41 222 30 44 31 64 6 78
-29 15 -97 12 -115 -5 -26 -27 -28 -53 -7 -121 42 -134 32 -153 -127 -252 -70
-43 -158 -95 -197 -116 l-70 -38 65 63 c232 225 226 220 256 209 43 -17 54 -7
49 42 -2 24 -7 69 -11 101 -9 94 -27 58 -19 -39 l7 -84 -31 6 c-30 6 -39 0
-124 -82 -51 -49 -132 -127 -181 -172 -48 -46 -86 -85 -84 -87 3 -3 108 30
234 73 220 74 229 78 232 105 4 33 13 33 79 3 87 -41 135 -138 76 -152 -38 -9
-50 -20 -58 -52 -3 -15 -21 -76 -40 -137 -58 -186 -115 -388 -111 -392 2 -2
90 96 196 218 l192 221 -11 38 c-18 60 -18 60 69 60 106 0 144 -18 137 -63 -3
-18 -15 -104 -27 -192 -13 -88 -26 -161 -31 -163 -5 -2 -9 -27 -8 -55 1 -51 1
-51 10 -17 5 19 16 71 25 115 17 83 33 127 34 92 0 -10 9 -57 20 -105 10 -48
33 -159 51 -247 17 -88 32 -161 33 -163 2 -1 17 73 35 165 52 271 74 364 83
350 5 -7 6 9 2 36 -4 28 -2 47 3 47 13 0 25 -115 18 -161 -4 -28 -3 -30 5 -14
9 17 10 15 6 -11 -3 -17 1 -53 9 -80 l14 -49 -5 55 c-27 319 -33 445 -21 452
6 4 49 8 95 8 91 0 94 -3 71 -69 -12 -34 -21 -20 101 -161 207 -239 272 -311
277 -306 6 5 -128 458 -159 539 -7 18 -21 30 -42 35 -27 8 -31 13 -29 41 2 61
73 125 148 133 26 3 30 -1 33 -23 3 -29 3 -29 319 -135 182 -61 177 -62 102 9
-292 276 -311 292 -345 291 l-34 -1 7 88 c4 64 3 89 -6 89 -6 0 -11 -18 -11
-44 0 -24 -9 -72 -19 -106 l-20 -62 24 -22 c13 -11 53 -39 89 -61 151 -92 278
-176 273 -181 -2 -3 -45 10 -93 29 -49 19 -129 49 -177 67 l-88 33 6 38 c5 31
3 38 -13 43 -44 14 -53 89 -22 188 25 80 25 103 0 128 -26 26 -89 27 -120 2
l-23 -19 27 -45 c45 -77 35 -135 -40 -230 -54 -69 -80 -126 -89 -194 -7 -47
-4 -57 43 -150 28 -54 86 -164 130 -244 44 -80 78 -147 76 -149 -2 -2 -5 -2
-7 0 -2 2 -39 47 -83 99 -200 238 -214 258 -204 286 6 14 10 60 10 102 0 88 9
110 94 255 45 77 56 103 56 139 0 31 -6 50 -18 61 -24 22 -69 22 -80 0 -13
-25 -25 -100 -23 -146 0 -21 -6 -51 -14 -67 -16 -32 -70 -80 -89 -80 -31 0
-64 41 -76 92 -7 29 -17 58 -22 65 -14 18 -3 30 32 35 38 6 45 -12 30 -77 -11
-51 -5 -65 32 -65 26 0 78 49 78 74 0 13 -16 44 -35 69 -19 25 -35 48 -35 52
0 3 18 32 40 64 42 61 70 128 70 166 0 12 -9 32 -20 45 -18 20 -18 25 -5 51
21 40 53 59 102 59 47 0 52 9 32 54 -14 31 -57 49 -93 40 -27 -6 -76 -60 -76
-82 0 -25 -19 -10 -30 24 -30 89 -160 72 -160 -20 0 -25 2 -25 44 -20 39 6 48
3 70 -19 29 -29 34 -65 11 -73 -8 -4 -15 -17 -15 -30 0 -35 -23 -84 -57 -123
-26 -29 -31 -31 -37 -16 -3 10 -1 24 5 31 16 19 -4 42 -39 46 -26 3 -27 6 -29
63 -2 50 0 56 9 38 22 -45 70 -40 87 10 13 35 0 60 -21 39 -16 -16 -45 -15
-50 1 -2 6 -2 37 0 67 3 45 8 58 24 65 39 18 43 37 29 137 -7 51 -17 97 -21
102 -9 9 -21 -32 -38 -124 -7 -43 -10 6 -12 225 -1 154 -6 348 -10 430 -5 120
-7 68 -10 -255 -3 -404 -3 -405 -12 -205 -5 110 -13 202 -19 203 -5 2 -9 13
-9 25 0 12 -10 61 -22 110 -16 65 -24 84 -31 72 -5 -9 -6 -23 -3 -31 3 -8 2
-14 -3 -14 -9 0 -31 -89 -31 -126 0 -13 -4 -24 -10 -24 -6 0 -10 53 -11 138
-2 144 -14 369 -18 317z m75 -767 c0 -327 -1 -394 -6 -243 -3 116 -7 194 -10
175 -3 -27 -5 -20 -10 30 -6 59 -7 54 -8 -45 -1 -60 3 -128 8 -150 11 -46 2
-135 -11 -114 -11 18 -12 -4 -3 -51 5 -22 9 -28 15 -18 6 9 9 4 9 -15 0 -25
-2 -27 -20 -17 -17 9 -20 21 -20 75 0 53 3 65 16 65 14 0 15 7 10 42 -4 23
-11 45 -15 48 -12 8 6 443 23 555 9 55 16 103 16 108 0 4 1 7 3 7 2 0 3 -204
3 -452z m-82 -193 c3 -8 1 -15 -4 -15 -6 0 -10 7 -10 15 0 8 2 15 4 15 2 0 6
-7 10 -15z m185 -29 c-9 -8 -10 -7 -5 7 3 10 7 24 7 30 1 7 3 4 6 -7 3 -10 -1
-23 -8 -30z m-386 -288 c14 -29 48 -75 76 -103 27 -27 50 -58 51 -69 0 -18 -1
-18 -27 -1 -60 38 -143 159 -143 207 0 33 18 19 43 -34z m602 -32 c-16 -38
-110 -146 -126 -146 -23 0 -4 38 42 87 27 29 60 74 72 100 19 42 22 45 25 23
1 -14 -4 -43 -13 -64z m-351 65 c8 -13 -4 -42 -15 -35 -12 7 -12 44 0 44 6 0
12 -4 15 -9z m106 -3 c0 -7 -4 -19 -9 -27 -11 -17 -25 3 -17 24 7 18 26 20 26
3z m17 -10 c-3 -8 -6 -5 -6 6 -1 11 2 17 5 13 3 -3 4 -12 1 -19z m-171 -116
c7 -29 10 -52 8 -52 -11 0 -50 48 -48 60 0 8 2 23 2 33 3 36 27 10 38 -41z
m91 6 c-2 -13 -4 -5 -4 17 -1 22 1 32 4 23 2 -10 2 -28 0 -40z m104 -37 l-21
-21 0 39 c0 24 7 46 18 57 16 17 17 16 20 -19 2 -26 -3 -42 -17 -56z m-185
-89 c-4 -3 -12 0 -19 7 -9 11 -9 14 1 18 6 3 13 12 13 21 1 10 4 4 6 -11 3
-16 2 -31 -1 -35z m241 36 c-3 -8 -6 -5 -6 6 -1 11 2 17 5 13 3 -3 4 -12 1
-19z m-67 -25 c0 -7 -4 -13 -10 -13 -5 0 -10 12 -10 28 0 21 2 24 10 12 5 -8
10 -21 10 -27z m37 5 c-3 -8 -6 -5 -6 6 -1 11 2 17 5 13 3 -3 4 -12 1 -19z
m47 -170 c5 -10 4 -18 -2 -18 -12 0 -22 50 -21 99 2 32 3 30 9 -14 4 -27 10
-58 14 -67z m-296 32 c0 -22 -1 -22 -8 5 -4 17 -8 39 -8 50 0 16 2 15 8 -5 4
-14 8 -36 8 -50z m239 13 c-3 -10 -5 -2 -5 17 0 19 2 27 5 18 2 -10 2 -26 0
-35z m-184 -37 c22 8 23 -19 2 -36 -19 -16 -22 -13 -30 25 -4 19 -3 25 2 17 6
-7 17 -10 26 -6z m153 2 c-15 -49 -16 -50 -31 -38 -20 17 -19 23 8 36 12 7 23
12 24 13 1 0 1 -5 -1 -11z m21 -20 c-3 -7 -5 -2 -5 12 0 14 2 19 5 13 2 -7 2
-19 0 -25z m-220 -20 c-3 -7 -5 -2 -5 12 0 14 2 19 5 13 2 -7 2 -19 0 -25z
m111 -249 c-3 -8 -7 -3 -11 10 -4 17 -3 21 5 13 5 -5 8 -16 6 -23z m106 -41
c8 -32 7 -58 -1 -58 -5 0 -17 12 -27 27 -11 14 -14 23 -8 19 8 -5 12 0 12 13
0 28 16 27 24 -1z m-116 -174 c2 -87 0 -206 -4 -264 l-7 -105 -28 145 c-16 80
-34 170 -40 201 -7 30 -9 72 -5 92 7 40 52 100 70 94 7 -2 12 -56 14 -163z"/>
<path d="M1203 775 c0 -27 2 -38 4 -22 2 15 2 37 0 50 -2 12 -4 0 -4 -28z"/>
<path d="M1213 585 c0 -27 2 -38 4 -22 2 15 2 37 0 50 -2 12 -4 0 -4 -28z"/>
<path d="M867 2717 c-38 -214 -62 -485 -44 -504 4 -3 7 23 7 58 0 77 22 286
45 427 9 57 15 105 13 108 -3 2 -12 -38 -21 -89z"/>
<path d="M1303 2655 c0 -22 2 -30 4 -17 2 12 2 30 0 40 -3 9 -5 -1 -4 -23z"/>
<path d="M1133 2555 c0 -27 2 -38 4 -22 2 15 2 37 0 50 -2 12 -4 0 -4 -28z"/>
<path d="M1037 1278 c-4 -12 -4 -24 -2 -27 3 -2 5 1 5 8 0 7 5 9 10 6 6 -3 10
1 10 9 0 25 -17 27 -23 4z"/>
<path d="M1017 1220 c-3 -11 -1 -20 4 -20 5 0 9 9 9 20 0 11 -2 20 -4 20 -2 0
-6 -9 -9 -20z"/>
<path d="M1093 860 c0 -25 2 -35 4 -22 2 12 2 32 0 45 -2 12 -4 2 -4 -23z"/>
<path d="M1083 745 c0 -27 2 -38 4 -22 2 15 2 37 0 50 -2 12 -4 0 -4 -28z"/>
<path d="M1072 620 c0 -19 2 -27 5 -17 2 9 2 25 0 35 -3 9 -5 1 -5 -18z"/>
<path d="M1362 620 c0 -14 2 -19 5 -12 2 6 2 18 0 25 -3 6 -5 1 -5 -13z"/>
</g>
</svg>
