<?xml version="1.0" standalone="no"?>
<!DOCTYPE svg PUBLIC "-//W3C//DTD SVG 20010904//EN"
 "http://www.w3.org/TR/2001/REC-SVG-20010904/DTD/svg10.dtd">
<svg version="1.0" xmlns="http://www.w3.org/2000/svg"
 width="244.000000pt" height="305.000000pt" viewBox="0 0 244.000000 305.000000"
 preserveAspectRatio="xMidYMid meet">
<metadata>
Created by potrace 1.16, written by Peter Selinger 2001-2019
</metadata>
<g transform="translate(0.000000,305.000000) scale(0.100000,-0.100000)"
fill="#000000" stroke="none">
<path d="M885 2887 c-4 -14 -3 -33 2 -44 10 -21 11 -928 1 -938 -4 -4 -25 8
-47 26 l-41 32 0 101 c0 176 21 403 60 660 6 38 9 71 6 73 -5 5 -42 -200 -56
-313 -13 -106 -29 -533 -21 -551 3 -6 29 -27 58 -46 l52 -35 21 23 c12 13 36
29 53 36 l30 13 -7 214 c-9 297 -33 503 -82 702 -20 77 -21 80 -29 47z"/>
<path d="M1578 2404 c2 -321 0 -504 -7 -504 -5 0 -28 12 -51 27 l-41 27 6 181
c6 210 19 352 46 524 11 68 18 126 15 128 -13 13 -55 -285 -66 -470 -18 -311
-17 -393 8 -401 9 -4 32 -20 51 -36 l34 -31 26 24 c14 12 39 29 55 37 l29 15
-6 215 c-4 118 -14 276 -22 350 -16 134 -56 355 -72 397 -4 12 -7 -205 -5
-483z"/>
<path d="M1251 2695 c-1 -76 -6 -122 -10 -110 -7 16 -11 8 -25 -40 -40 -136
-66 -361 -66 -571 0 -104 -14 -146 -25 -77 -33 197 -48 244 -59 192 -37 -173
-36 -198 8 -226 40 -26 54 -70 36 -114 -12 -29 -42 -39 -55 -19 -3 6 -13 10
-22 10 -12 0 -14 -6 -8 -27 15 -62 61 -81 89 -38 25 37 37 31 30 -15 -6 -36
-4 -40 20 -50 16 -6 33 -24 41 -44 22 -51 33 -52 54 -4 11 25 29 47 42 53 20
8 24 16 22 48 -3 43 8 47 31 12 20 -30 39 -32 66 -5 26 26 28 76 3 65 -37 -16
-56 -10 -66 18 -16 48 -1 93 38 116 40 23 41 31 22 150 -20 126 -37 104 -67
-91 -7 -43 -17 -75 -21 -72 -5 3 -9 44 -9 92 0 138 -18 359 -37 452 -9 47 -19
162 -23 255 l-6 170 -3 -130z m-19 -415 c2 -135 1 -227 -2 -205 -4 26 -8 1
-11 -75 -5 -116 -1 -168 11 -120 4 14 7 -3 7 -42 1 -37 -3 -80 -8 -95 -7 -22
-8 -17 -3 20 3 27 1 54 -4 60 -6 7 -12 21 -15 32 -3 11 -2 -37 1 -107 3 -79 1
-128 -5 -128 -5 0 -18 6 -28 14 -18 13 -18 25 -7 317 8 204 18 345 31 429 11
69 21 131 21 139 0 8 2 12 4 10 3 -2 6 -114 8 -249z m0 -650 c-2 -16 -6 -30
-8 -30 -2 0 -4 14 -4 30 0 17 4 30 8 30 5 0 7 -13 4 -30z"/>
<path d="M1212 2765 c0 -16 2 -22 5 -12 2 9 2 23 0 30 -3 6 -5 -1 -5 -18z"/>
<path d="M744 1855 c-32 -13 -44 -32 -44 -66 0 -15 7 -19 36 -19 52 0 84 -20
114 -72 8 -14 6 -22 -10 -35 -12 -11 -20 -29 -20 -48 1 -56 22 -97 108 -215
11 -15 8 -24 -28 -64 -46 -54 -50 -83 -17 -114 52 -49 119 -34 97 22 -13 35
-13 69 1 83 8 8 29 5 75 -10 49 -16 69 -19 82 -11 29 19 19 34 -39 58 -90 36
-150 90 -193 173 -16 33 -22 83 -8 83 4 -1 18 -24 31 -53 33 -71 133 -162 199
-182 33 -10 29 29 -5 52 -39 26 -111 100 -134 136 -10 18 -19 43 -19 57 0 14
-9 33 -20 43 -27 23 -25 33 10 69 28 27 36 30 75 25 43 -4 45 -3 45 22 -1 34
-20 59 -58 72 -43 15 -82 -6 -106 -55 -18 -36 -21 -38 -30 -21 -22 36 -61 73
-86 78 -14 3 -39 0 -56 -8z"/>
<path d="M1435 1858 c-30 -16 -45 -39 -45 -70 0 -27 1 -27 44 -22 39 6 48 3
70 -19 29 -29 34 -72 11 -81 -8 -3 -15 -18 -15 -33 0 -15 -9 -43 -20 -61 -26
-42 -104 -119 -130 -127 -20 -6 -35 -38 -25 -54 20 -34 176 95 216 178 13 28
27 51 31 51 16 0 7 -45 -19 -98 -34 -67 -93 -118 -176 -154 -63 -27 -75 -43
-46 -61 12 -8 34 -5 80 11 55 18 66 19 78 6 13 -12 13 -21 2 -65 -11 -43 -11
-53 0 -60 20 -14 70 -2 96 23 36 34 34 41 -42 145 -15 20 -14 24 21 70 71 92
98 198 59 227 -42 31 35 110 102 104 30 -2 38 1 41 16 8 41 -38 86 -88 86 -23
0 -90 -56 -90 -75 0 -29 -20 -24 -36 10 -16 34 -58 65 -86 65 -7 0 -22 -6 -33
-12z"/>
<path d="M1083 1575 c-18 -8 -33 -18 -33 -23 0 -11 24 -22 49 -22 32 0 61 -44
71 -106 17 -103 14 -121 -21 -133 -25 -9 -30 -15 -27 -38 2 -22 9 -29 31 -31
16 -2 27 -9 27 -18 0 -27 -20 -54 -40 -54 -21 0 -40 -27 -33 -47 2 -7 20 -15
38 -19 26 -5 36 -13 44 -36 13 -38 14 -98 2 -98 -12 0 -25 56 -16 70 10 17
-25 50 -52 50 -28 0 -46 38 -37 76 6 23 4 24 -36 24 -23 0 -58 -7 -76 -16 -45
-21 -72 -10 -114 47 -23 32 -30 52 -29 83 2 37 -3 74 -17 144 -6 31 -65 31
-94 0 -38 -41 -24 -91 66 -235 93 -148 93 -163 -9 -333 -41 -69 -107 -180
-146 -247 -40 -68 -74 -123 -76 -123 -5 0 15 66 82 270 l58 174 48 15 c41 13
48 19 57 50 24 88 10 135 -70 230 -73 87 -88 162 -45 221 14 19 25 42 25 52 0
36 -96 51 -138 22 -28 -19 -29 -61 -2 -132 23 -60 19 -118 -11 -156 -16 -20
-365 -226 -384 -226 -13 0 24 37 153 152 l123 110 45 -7 46 -7 -7 94 c-4 51
-11 102 -15 112 -11 32 -20 -63 -10 -114 5 -25 9 -48 10 -52 0 -4 -18 -6 -39
-5 -37 2 -48 -6 -229 -168 -104 -93 -186 -171 -182 -173 4 -2 82 20 171 49 90
28 199 63 242 76 68 21 77 27 77 48 0 33 13 38 59 24 52 -15 110 -64 128 -107
17 -40 7 -57 -36 -65 -32 -7 -37 -20 -150 -382 -27 -88 -53 -168 -57 -179 -4
-12 -3 -17 4 -15 5 2 99 101 207 219 182 199 196 217 191 245 -14 76 -21 70
85 70 89 0 98 -2 132 -28 20 -15 37 -33 37 -40 0 -6 -14 -26 -32 -44 l-32 -33
33 -157 c60 -293 105 -496 108 -487 7 22 105 497 118 569 l14 80 -35 36 -35
36 35 31 c42 36 76 44 171 40 77 -3 73 1 59 -73 -6 -32 -16 -20 225 -284 145
-158 171 -185 171 -172 0 27 -171 556 -183 563 -6 4 -19 8 -28 8 -31 0 -41 25
-26 62 19 44 62 82 114 103 51 20 73 15 73 -19 0 -19 7 -27 33 -34 17 -6 124
-40 235 -77 112 -36 208 -65 214 -63 5 2 -48 55 -119 118 -70 63 -149 134
-175 159 -70 65 -85 73 -118 66 l-29 -6 6 90 c7 110 -11 127 -21 20 -3 -39
-11 -79 -16 -89 -24 -44 -13 -64 63 -110 229 -139 328 -202 324 -206 -2 -3
-28 4 -58 15 -30 11 -112 41 -184 67 -71 25 -132 48 -134 50 -2 2 1 15 7 30
11 23 9 28 -23 58 -30 29 -35 40 -35 78 0 25 9 71 20 104 25 75 25 99 0 124
-28 28 -102 28 -130 0 -20 -20 -20 -20 10 -67 47 -74 37 -126 -43 -224 -59
-73 -85 -127 -93 -193 -7 -61 -5 -67 173 -379 47 -82 82 -151 80 -154 -3 -2
-72 73 -154 167 -106 123 -147 178 -146 193 2 12 5 61 7 109 5 98 18 132 107
276 60 96 69 152 29 184 -26 21 -63 24 -77 6 -13 -16 -25 -86 -27 -154 -1 -39
-8 -59 -29 -88 -39 -50 -72 -62 -115 -42 -18 9 -51 16 -72 16 -39 0 -40 -1
-40 -34 0 -52 -9 -66 -40 -66 -19 0 -30 -6 -33 -17 -4 -14 -5 -13 -6 4 -1 16
6 23 30 28 55 12 48 57 -11 69 -25 5 -30 10 -30 35 0 25 4 30 28 33 21 2 28 9
30 31 3 24 -2 30 -28 40 l-32 12 6 60 c12 110 39 165 80 165 12 0 27 4 35 9
20 13 0 37 -37 44 -41 8 -122 -50 -122 -88 0 -29 -19 -24 -35 9 -33 68 -80 94
-132 71z m206 -607 c-6 -12 -22 -31 -34 -44 -22 -22 -22 -26 -22 -318 0 -163
-3 -299 -5 -302 -3 -3 -17 53 -32 123 -14 70 -35 175 -47 233 -12 58 -19 117
-16 130 4 14 23 36 42 50 29 21 34 31 35 63 0 32 3 37 24 37 27 0 31 8 42 76
l8 49 8 -38 c5 -25 4 -46 -3 -59z"/>
<path d="M1192 670 c1 -91 1 -93 8 -32 4 35 4 78 0 95 -5 21 -8 0 -8 -63z"/>
<path d="M1192 520 c0 -14 2 -19 5 -12 2 6 2 18 0 25 -3 6 -5 1 -5 -13z"/>
</g>
</svg>
