<?xml version="1.0" standalone="no"?>
<!DOCTYPE svg PUBLIC "-//W3C//DTD SVG 20010904//EN"
 "http://www.w3.org/TR/2001/REC-SVG-20010904/DTD/svg10.dtd">
<svg version="1.0" xmlns="http://www.w3.org/2000/svg"
 width="244.000000pt" height="305.000000pt" viewBox="0 0 244.000000 305.000000"
 preserveAspectRatio="xMidYMid meet">
<metadata>
Created by potrace 1.16, written by Peter Selinger 2001-2019
</metadata>
<g transform="translate(0.000000,305.000000) scale(0.100000,-0.100000)"
fill="#000000" stroke="none">
<path d="M886 2842 c-45 -197 -70 -427 -81 -739 l-7 -172 29 -17 c15 -10 40
-29 55 -42 l27 -25 28 30 c16 17 38 33 51 37 20 7 22 13 22 84 0 147 -20 468
-35 581 -17 118 -51 274 -40 181 3 -25 14 -110 25 -190 22 -164 46 -564 36
-604 -3 -14 -11 -26 -17 -26 -6 0 -22 -9 -36 -20 -15 -11 -28 -19 -30 -16 -8
7 -9 863 -2 926 11 89 -5 97 -25 12z"/>
<path d="M1557 2893 c-9 -14 -55 -260 -66 -353 -18 -138 -31 -356 -30 -490 l0
-125 51 -34 c33 -21 56 -30 63 -25 7 5 31 22 54 37 l42 28 -5 119 c-3 66 -8
175 -11 243 -7 144 -28 322 -54 444 -25 116 -26 87 -2 -57 31 -190 51 -426 51
-621 l0 -106 -40 -27 c-22 -14 -42 -26 -45 -26 -3 0 -5 214 -5 476 0 326 3
473 10 469 7 -4 8 3 4 22 -8 34 -10 37 -17 26z"/>
<path d="M1162 2860 c0 -14 2 -19 5 -12 2 6 2 18 0 25 -3 6 -5 1 -5 -13z"/>
<path d="M1295 2628 c-8 -229 -9 -232 -22 -169 -7 36 -15 67 -18 69 -8 9 -5
-29 10 -123 9 -49 18 -162 20 -250 3 -88 7 -190 10 -227 3 -49 0 -67 -8 -65
-8 1 -13 -15 -15 -45 -2 -28 1 -48 7 -48 16 0 24 -65 14 -107 -7 -29 -14 -38
-31 -39 l-22 -1 -2 216 c0 119 -1 223 0 231 5 49 8 498 4 514 -10 38 -58 -163
-72 -294 -5 -55 -8 -2 -10 195 l-3 270 -9 -210 c-5 -115 -7 -316 -6 -447 2
-130 0 -234 -3 -232 -4 2 -12 43 -19 91 -14 104 -29 158 -40 146 -10 -10 -30
-137 -30 -187 0 -20 5 -36 10 -36 6 0 22 -11 35 -25 48 -47 25 -159 -26 -127
-32 20 -42 15 -35 -20 12 -62 41 -74 82 -33 14 14 27 25 29 25 3 0 5 -27 5
-61 0 -60 -1 -61 -24 -55 -18 4 -33 -1 -53 -19 -27 -24 -27 -24 -5 -25 18 0
22 -6 22 -30 0 -38 -9 -38 -47 3 -38 39 -63 88 -63 120 0 14 -7 30 -15 37 -22
18 -18 48 11 77 22 22 30 24 71 18 l46 -7 -6 37 c-14 86 -119 97 -159 17 -23
-47 -24 -48 -43 -7 -18 36 -58 65 -92 65 -42 0 -90 -59 -77 -94 4 -10 16 -12
44 -9 35 5 43 2 75 -30 38 -38 43 -58 20 -77 -36 -30 -4 -144 66 -232 16 -20
29 -40 29 -43 0 -4 -16 -25 -35 -48 -57 -66 -43 -128 31 -143 39 -8 64 18 46
47 -16 25 -15 74 1 87 8 7 22 6 45 -4 31 -13 33 -15 26 -51 -15 -80 -19 -88
-66 -113 -43 -22 -48 -23 -74 -10 -42 23 -78 85 -77 131 1 21 -4 67 -11 101
-12 60 -14 63 -44 66 -21 2 -38 -4 -53 -19 -35 -35 -21 -88 61 -230 38 -67 71
-136 72 -153 1 -17 3 -56 3 -86 1 -30 5 -69 9 -86 7 -28 -2 -41 -134 -200 -78
-93 -146 -171 -152 -173 -6 -2 3 21 19 50 54 95 219 403 226 421 9 24 -11 125
-33 168 -10 20 -37 60 -60 89 -75 95 -88 156 -45 219 30 44 32 68 6 82 -25 13
-87 13 -111 0 -29 -16 -33 -59 -10 -124 33 -97 24 -187 -20 -201 -21 -7 -22
-14 -9 -64 3 -11 -25 -26 -96 -54 -173 -66 -259 -96 -265 -90 -3 3 0 7 6 10 5
2 83 51 173 108 89 58 166 105 170 105 4 0 15 8 24 18 16 17 16 23 2 68 -8 27
-18 78 -21 113 -10 95 -28 50 -20 -50 l6 -78 -32 5 c-30 5 -41 -2 -133 -87
-164 -151 -277 -261 -273 -265 4 -4 458 149 477 160 6 4 11 19 11 33 0 22 3
24 27 18 81 -20 157 -93 151 -144 -2 -19 -11 -27 -35 -33 -18 -5 -33 -10 -33
-12 0 -2 -14 -48 -31 -102 -83 -268 -139 -458 -137 -466 2 -5 39 33 83 84 44
51 103 118 130 148 174 190 188 210 176 236 -6 14 -11 36 -11 49 0 23 4 25 48
26 154 3 156 1 149 -120 -14 -219 -17 -346 -7 -316 5 17 7 46 4 65 -4 26 -3
31 5 20 8 -11 9 0 6 40 -2 30 -1 44 2 30 3 -14 8 -27 12 -30 8 -5 9 -13 67
-304 21 -104 39 -185 41 -180 2 5 25 116 52 248 26 131 51 234 54 229 3 -5 11
-38 17 -74 6 -35 14 -80 19 -99 9 -34 9 -33 10 17 1 28 -4 55 -10 59 -7 4 -9
30 -6 73 4 43 3 55 -2 36 -8 -27 -9 -26 -11 20 -2 28 -2 57 -1 65 11 66 12 92
4 87 -12 -8 -33 35 -33 68 0 29 17 42 23 18 3 -11 5 -8 6 9 1 36 35 44 155 40
l49 -2 -6 -33 c-3 -17 -8 -39 -11 -47 -4 -10 56 -87 184 -233 105 -119 195
-217 200 -217 6 0 6 9 0 23 -5 12 -44 138 -87 280 -75 249 -79 259 -105 264
-43 9 -52 26 -33 66 23 49 52 77 102 99 51 23 73 18 73 -14 0 -22 18 -30 223
-97 122 -41 228 -76 236 -79 28 -11 2 17 -149 158 -85 79 -166 154 -180 168
-19 18 -31 22 -56 18 l-32 -6 5 92 c4 62 2 90 -5 83 -5 -5 -12 -54 -16 -107
l-6 -98 42 6 c42 6 44 5 128 -72 47 -44 112 -105 145 -137 l60 -58 -45 22
c-68 33 -312 180 -338 202 -39 36 -46 89 -23 167 26 86 26 105 0 131 -17 17
-30 20 -65 16 -73 -8 -79 -20 -43 -83 29 -52 30 -56 19 -108 -8 -42 -24 -71
-66 -123 -62 -77 -78 -124 -69 -194 7 -53 14 -61 67 -80 21 -7 40 -20 43 -28
10 -25 122 -384 128 -408 3 -13 4 -23 2 -23 -2 0 -42 69 -88 153 -47 83 -110
197 -141 252 -78 139 -77 154 14 310 65 112 76 140 71 189 -4 51 -79 77 -101
36 -6 -11 -13 -58 -15 -103 -2 -45 -4 -85 -4 -90 -2 -15 -84 -97 -97 -97 -27
0 -89 41 -96 63 l-6 22 -1 -22 c-2 -42 -29 -26 -36 21 -11 74 -2 88 72 110 18
6 24 2 29 -19 4 -15 2 -44 -5 -64 -9 -31 -8 -38 7 -49 10 -7 28 -10 42 -7 70
18 80 78 24 144 l-36 42 44 67 c67 100 88 183 53 212 -23 19 -18 39 20 77 29
29 40 34 71 31 41 -3 50 7 40 48 -7 27 -58 55 -85 47 -44 -14 -66 -32 -82 -68
-15 -34 -19 -37 -24 -20 -23 70 -70 104 -119 86 -30 -12 -56 -48 -56 -78 0
-21 3 -22 43 -17 33 5 47 2 68 -15 36 -28 43 -58 18 -79 -10 -9 -19 -27 -19
-40 0 -37 -27 -85 -70 -127 l-40 -39 0 31 c0 20 7 36 17 42 26 14 -2 41 -43
41 l-34 0 0 60 c0 33 2 60 5 60 2 0 15 -11 29 -25 14 -14 32 -25 40 -25 16 0
46 48 46 75 0 18 -2 18 -36 3 -23 -11 -28 -10 -40 7 -24 32 -18 93 12 120 15
14 31 25 35 25 12 0 11 57 -2 143 -18 122 -28 115 -54 -43 -18 -104 -34 -138
-36 -74 0 21 -2 243 -4 492 -1 249 -5 455 -8 458 -2 3 -8 -100 -12 -228z
m-366 -1041 c13 -38 81 -123 122 -152 16 -11 29 -28 29 -37 0 -23 -5 -22 -44
2 -57 35 -135 151 -136 203 0 29 18 19 29 -16z m638 -3 c-6 -33 -34 -84 -77
-137 -8 -10 -34 -32 -57 -48 -69 -48 -63 -14 11 58 38 37 75 85 88 114 27 58
43 64 35 13z m-286 -27 c-8 -8 -11 -4 -11 14 0 33 14 47 18 19 2 -12 -1 -27
-7 -33z m-114 21 c-3 -8 -6 -5 -6 6 -1 11 2 17 5 13 3 -3 4 -12 1 -19z m33 -9
c0 -11 -4 -17 -10 -14 -5 3 -10 15 -10 26 0 11 5 17 10 14 6 -3 10 -15 10 -26z
m107 9 c-3 -8 -6 -5 -6 6 -1 11 2 17 5 13 3 -3 4 -12 1 -19z m-70 -95 c-3 -10
-5 -2 -5 17 0 19 2 27 5 18 2 -10 2 -26 0 -35z m113 3 c0 -21 -6 -36 -15 -40
-11 -4 -15 -20 -15 -58 0 -40 -3 -49 -12 -40 -9 9 -9 28 0 83 7 39 15 75 18
80 12 20 24 7 24 -25z m-189 -32 c12 -52 11 -114 -1 -114 -5 0 -10 23 -10 50
0 36 -4 52 -15 56 -15 6 -21 45 -8 58 11 11 24 -9 34 -50z m196 -86 c-3 -8 -6
-5 -6 6 -1 11 2 17 5 13 3 -3 4 -12 1 -19z m-260 -120 c-2 -13 -4 -5 -4 17 -1
22 1 32 4 23 2 -10 2 -28 0 -40z m30 30 c-3 -8 -6 -5 -6 6 -1 11 2 17 5 13 3
-3 4 -12 1 -19z m-46 -101 c-13 -13 -15 1 -4 30 7 17 8 17 11 -1 2 -10 -1 -23
-7 -29z m56 21 c-3 -8 -6 -5 -6 6 -1 11 2 17 5 13 3 -3 4 -12 1 -19z m177 -12
c-3 -14 -10 -26 -15 -26 -5 0 -9 2 -9 4 0 2 -3 12 -7 22 -4 12 -3 15 5 10 7
-4 15 0 18 9 10 24 16 11 8 -19z m23 2 c-3 -7 -5 -2 -5 12 0 14 2 19 5 13 2
-7 2 -19 0 -25z m-155 -10 c-2 -10 -8 -18 -13 -18 -5 0 -9 8 -9 18 0 10 6 19
14 19 8 0 11 -8 8 -19z m-72 -56 c0 -15 5 -33 12 -40 9 -9 9 -12 1 -12 -15 0
-19 7 -28 48 -4 20 -3 32 4 32 6 0 11 -13 11 -28z m270 0 c0 -10 -7 -27 -16
-38 -15 -18 -15 -18 -10 6 3 14 6 31 6 38 0 6 5 12 10 12 6 0 10 -8 10 -18z
m-143 -204 c-3 -8 -6 -5 -6 6 -1 11 2 17 5 13 3 -3 4 -12 1 -19z m-82 -67 c-6
-20 -25 -30 -25 -13 1 26 14 52 22 44 6 -6 7 -19 3 -31z m145 -21 c30 -75 29
-118 -8 -302 -20 -98 -39 -178 -42 -178 -3 0 -5 28 -5 63 -1 34 -2 145 -4 247
-3 203 0 226 30 207 10 -6 23 -23 29 -37z"/>
<path d="M1252 820 c0 -14 2 -19 5 -12 2 6 2 18 0 25 -3 6 -5 1 -5 -13z"/>
<path d="M1253 640 c0 -36 2 -50 4 -32 2 17 2 47 0 65 -2 17 -4 3 -4 -33z"/>
<path d="M1173 2600 c0 -30 2 -43 4 -27 2 15 2 39 0 55 -2 15 -4 2 -4 -28z"/>
<path d="M1323 2475 c0 -33 2 -45 4 -27 2 18 2 45 0 60 -2 15 -4 0 -4 -33z"/>
<path d="M1321 2394 c0 -11 3 -14 6 -6 3 7 2 16 -1 19 -3 4 -6 -2 -5 -13z"/>
<path d="M1257 1913 c-7 -172 -3 -253 14 -253 5 0 9 19 9 43 0 32 -3 38 -11
27 -10 -15 -8 36 6 205 3 33 2 80 -3 105 -6 36 -10 9 -15 -127z"/>
<path d="M1397 1294 c-4 -4 -7 -14 -7 -23 0 -11 3 -12 11 -4 6 6 10 16 7 23
-2 6 -7 8 -11 4z"/>
<path d="M1411 1244 c0 -11 3 -14 6 -6 3 7 2 16 -1 19 -3 4 -6 -2 -5 -13z"/>
<path d="M1082 450 c0 -14 2 -19 5 -12 2 6 2 18 0 25 -3 6 -5 1 -5 -13z"/>
</g>
</svg>
