<?xml version="1.0" standalone="no"?>
<!DOCTYPE svg PUBLIC "-//W3C//DTD SVG 20010904//EN"
 "http://www.w3.org/TR/2001/REC-SVG-20010904/DTD/svg10.dtd">
<svg version="1.0" xmlns="http://www.w3.org/2000/svg"
 width="244.000000pt" height="305.000000pt" viewBox="0 0 244.000000 305.000000"
 preserveAspectRatio="xMidYMid meet">
<metadata>
Created by potrace 1.16, written by Peter Selinger 2001-2019
</metadata>
<g transform="translate(0.000000,305.000000) scale(0.100000,-0.100000)"
fill="#000000" stroke="none">
<path d="M1568 2404 c2 -278 -1 -504 -5 -502 -4 2 -25 14 -45 27 l-38 23 0
126 c0 218 16 386 66 712 13 84 -4 36 -21 -60 -32 -183 -45 -307 -55 -510 -14
-297 -14 -297 11 -305 11 -4 35 -20 54 -36 l33 -29 42 35 c23 19 47 35 52 35
19 0 3 484 -22 645 -23 155 -58 326 -68 337 -4 4 -6 -220 -4 -498z"/>
<path d="M886 2869 c-8 -42 -6 -60 4 -29 4 14 8 -192 9 -457 1 -266 -1 -483
-4 -483 -3 0 -24 12 -47 27 l-41 28 7 200 c6 209 24 402 50 545 17 90 19 116
11 108 -3 -3 -16 -66 -29 -140 -25 -139 -41 -330 -50 -594 l-6 -152 29 -12
c16 -6 37 -20 47 -31 21 -23 47 -24 65 -3 7 8 25 22 41 30 l28 15 0 167 c0 92
-5 226 -10 299 -14 184 -72 513 -90 513 -4 0 -10 -14 -14 -31z"/>
<path d="M1187 2628 c-4 -153 -11 -299 -16 -325 -11 -52 -20 -228 -21 -363 0
-110 -16 -95 -35 32 -16 103 -23 128 -35 128 -12 0 -17 -22 -30 -120 -12 -90
-10 -97 47 -128 19 -11 27 -71 14 -104 -11 -28 -43 -38 -56 -18 -15 24 -27 8
-22 -27 10 -58 43 -69 81 -28 31 33 38 32 36 -7 -3 -52 -1 -55 25 -62 15 -4
25 -14 25 -25 0 -27 -12 -33 -32 -14 -24 22 -73 21 -98 -2 -23 -21 -12 -35 26
-35 33 0 56 -33 52 -75 l-3 -38 -71 66 c-73 68 -104 116 -104 160 0 14 -7 27
-15 31 -21 8 -19 39 4 67 16 19 29 24 72 25 60 1 68 13 39 62 -35 57 -117 46
-147 -19 -10 -21 -20 -39 -23 -39 -3 0 -14 17 -25 38 -36 67 -123 75 -158 14
-27 -45 -18 -62 31 -55 33 4 44 1 75 -27 39 -34 49 -73 22 -84 -40 -15 -1
-149 65 -225 17 -18 30 -38 30 -43 0 -6 -16 -28 -35 -51 -47 -55 -48 -99 -2
-127 17 -11 43 -19 57 -18 21 3 25 8 24 33 0 17 -4 41 -8 55 -4 16 -2 32 6 43
13 17 17 17 53 4 64 -24 96 -29 111 -16 8 6 14 7 14 3 0 -5 -9 -15 -20 -22
-24 -15 -26 -57 -4 -70 13 -7 15 -17 9 -43 -7 -29 -9 -31 -16 -14 -7 19 -8 19
-8 -2 -1 -12 -6 -25 -11 -28 -6 -3 -7 -18 -4 -32 5 -18 3 -24 -5 -19 -6 4 -11
25 -11 47 0 24 -5 42 -14 45 -7 3 -41 -4 -76 -16 l-62 -21 -34 23 c-36 25 -79
92 -69 108 4 6 3 45 0 86 -6 63 -11 78 -30 90 -21 14 -27 14 -53 0 -35 -18
-48 -58 -34 -108 5 -18 39 -82 76 -142 59 -97 66 -114 66 -160 0 -44 -7 -63
-45 -125 -25 -40 -45 -75 -45 -77 0 -2 -26 -47 -58 -101 -33 -54 -76 -129 -97
-166 -20 -37 -39 -66 -42 -63 -5 4 66 236 112 366 22 62 24 65 69 79 40 13 47
19 56 50 23 84 11 126 -61 219 -85 107 -99 170 -54 232 45 61 26 90 -59 90
-35 0 -48 -5 -60 -22 -21 -29 -20 -53 4 -123 41 -118 22 -150 -140 -248 -63
-38 -128 -75 -145 -83 -16 -8 -48 -26 -70 -39 -22 -14 -43 -25 -47 -25 -8 0
218 213 265 250 23 18 36 21 68 16 38 -6 39 -5 39 22 0 72 -14 182 -23 182 -6
0 -8 -32 -4 -90 l7 -91 -33 6 c-29 6 -39 0 -107 -61 -156 -140 -300 -277 -295
-282 2 -2 110 30 239 73 226 75 234 79 240 106 7 35 16 36 81 5 101 -46 140
-139 68 -158 -26 -7 -34 -16 -47 -56 -60 -185 -145 -463 -150 -492 l-7 -35 31
35 c18 19 71 78 119 130 48 52 125 137 171 188 l83 93 -12 38 c-18 62 -19 61
78 61 75 0 93 -3 121 -22 56 -39 59 -53 21 -92 l-33 -34 20 -103 c33 -167 35
-182 33 -219 -1 -23 1 -30 7 -22 6 8 21 -45 42 -150 l34 -162 33 150 c18 82
33 160 33 174 1 23 2 23 10 5 6 -15 9 -5 10 35 0 30 12 107 25 170 21 103 22
117 9 138 -8 13 -22 26 -30 29 -33 12 -4 62 53 92 12 6 60 11 107 11 94 0 95
-1 75 -59 -14 -40 -16 -37 168 -241 219 -241 223 -246 223 -234 0 6 -34 121
-76 255 -42 134 -79 255 -83 269 -4 14 -22 32 -40 42 -51 25 -54 32 -38 70 18
43 76 91 128 107 46 14 59 9 59 -24 0 -22 16 -29 235 -100 130 -43 238 -75
241 -72 3 2 -66 70 -153 150 -222 204 -217 200 -252 192 l-30 -6 6 90 c4 65 3
91 -6 91 -6 0 -11 -17 -11 -43 0 -23 -7 -69 -15 -100 -21 -79 -20 -82 23 -108
185 -111 344 -213 335 -216 -9 -3 -342 112 -351 122 -3 2 1 18 6 35 10 28 9
32 -13 42 -25 11 -45 59 -45 108 0 14 9 54 20 90 25 81 25 95 0 120 -33 33
-140 21 -140 -15 0 -9 11 -33 25 -53 44 -64 29 -129 -50 -228 -53 -67 -77
-118 -91 -196 -5 -32 0 -51 39 -125 24 -49 59 -112 76 -141 17 -29 31 -55 31
-57 0 -2 23 -43 51 -92 28 -48 55 -97 61 -108 16 -32 -39 26 -176 185 l-125
145 5 95 c8 143 10 150 78 264 92 153 104 198 65 237 -14 14 -30 19 -52 17
-30 -3 -33 -6 -43 -58 -6 -31 -13 -62 -16 -70 -3 -8 -1 -25 3 -38 11 -30 -9
-69 -56 -111 -41 -35 -50 -37 -93 -15 -17 8 -49 14 -69 12 -31 -2 -37 -7 -35
-22 2 -10 0 -30 -4 -45 -7 -25 -8 -24 -17 14 -5 22 -10 72 -11 111 l-1 72 65
21 c37 12 68 17 73 12 11 -11 12 -46 3 -92 -9 -44 9 -56 61 -38 62 20 69 66
18 130 -41 52 -42 59 -12 96 70 83 111 214 73 229 -26 10 -19 53 15 85 25 23
40 29 75 29 40 0 44 2 44 24 0 41 -33 71 -78 71 -45 0 -74 -20 -92 -66 -15
-35 -28 -37 -36 -5 -9 38 -50 70 -89 70 -43 0 -72 -26 -81 -72 l-7 -33 50 7
c46 6 52 4 77 -22 28 -31 34 -62 12 -70 -7 -3 -16 -22 -20 -43 -8 -54 -59
-124 -121 -167 -40 -27 -55 -44 -55 -60 0 -21 2 -23 27 -13 75 28 157 106 195
184 25 52 43 59 33 13 -11 -46 -41 -97 -88 -146 -44 -46 -74 -65 -139 -88
l-41 -14 5 75 c6 86 20 109 74 119 38 8 43 20 15 36 -28 15 -73 12 -99 -6 -21
-15 -22 -14 -22 15 0 24 4 31 20 31 17 0 20 7 20 45 0 25 2 45 5 45 2 0 15
-11 29 -25 14 -14 32 -25 39 -25 18 0 47 43 47 70 0 23 -12 25 -41 8 -17 -11
-22 -10 -35 6 -14 20 -19 72 -8 100 3 9 20 25 38 35 l32 20 -8 85 c-5 47 -13
98 -19 113 -10 26 -12 27 -19 8 -4 -11 -15 -67 -25 -125 -9 -58 -21 -109 -26
-115 -5 -5 -9 25 -9 75 -1 188 -34 552 -54 582 -8 13 -17 38 -21 56 -9 41 -20
34 -31 -20 -7 -33 -10 6 -14 157 l-5 200 -8 -277z m42 -340 c-1 -133 -4 -222
-9 -208 -16 50 -11 440 6 440 2 0 4 -105 3 -232z m-39 -200 c-1 -95 0 -204 3
-243 2 -38 2 -51 0 -27 -2 23 -9 42 -15 42 -6 0 -8 -19 -4 -52 16 -127 17
-178 7 -178 -6 0 -14 12 -17 27 -12 45 10 603 23 603 2 0 4 -78 3 -172z m28
-248 c0 -22 -1 -22 -8 5 -4 17 -8 41 -8 55 0 22 1 22 8 -5 4 -16 8 -41 8 -55z
m-2 -137 c0 -32 3 -69 8 -83 8 -22 7 -23 -8 -11 -12 10 -16 31 -16 82 0 38 4
69 9 69 5 0 8 -26 7 -57z m-288 -129 c34 -68 114 -148 177 -175 36 -16 55 -30
55 -41 0 -15 -4 -16 -27 -8 -100 37 -186 111 -223 193 -37 79 -19 108 18 31z
m289 -66 c-3 -7 -5 -2 -5 12 0 14 2 19 5 13 2 -7 2 -19 0 -25z m40 -10 c-3 -7
-5 -2 -5 12 0 14 2 19 5 13 2 -7 2 -19 0 -25z m-20 -15 c-3 -10 -5 -4 -5 12 0
17 2 24 5 18 2 -7 2 -21 0 -30z m90 -325 c-3 -8 -6 -5 -6 6 -1 11 2 17 5 13 3
-3 4 -12 1 -19z m-151 -92 c8 -9 14 -34 14 -63 0 -35 -3 -44 -10 -33 -5 8 -10
29 -10 47 0 17 -4 35 -10 38 -11 7 -14 25 -4 25 3 0 12 -6 20 -14z m138 2 c-4
-6 -11 -25 -15 -42 -7 -29 -7 -29 -8 12 -1 32 3 42 15 42 9 0 12 -5 8 -12z
m-97 -160 c-3 -7 -5 -2 -5 12 0 14 2 19 5 13 2 -7 2 -19 0 -25z m20 10 c-3 -8
-6 -5 -6 6 -1 11 2 17 5 13 3 -3 4 -12 1 -19z m-9 -329 c0 -160 -1 -290 -3
-288 -1 2 -15 64 -30 137 l-27 133 16 144 c16 147 23 178 35 170 5 -2 8 -135
9 -296z m-54 164 c-3 -54 -8 -105 -11 -113 -6 -18 -32 81 -33 126 0 37 25 66
33 37 3 -10 5 -3 6 15 0 17 3 32 6 32 3 0 3 -44 -1 -97z"/>
<path d="M1274 2750 c0 -74 1 -105 3 -67 2 37 2 97 0 135 -2 37 -3 6 -3 -68z"/>
</g>
</svg>
