<?xml version="1.0" standalone="no"?>
<!DOCTYPE svg PUBLIC "-//W3C//DTD SVG 20010904//EN"
 "http://www.w3.org/TR/2001/REC-SVG-20010904/DTD/svg10.dtd">
<svg version="1.0" xmlns="http://www.w3.org/2000/svg"
 width="244.000000pt" height="305.000000pt" viewBox="0 0 244.000000 305.000000"
 preserveAspectRatio="xMidYMid meet">
<metadata>
Created by potrace 1.16, written by Peter Selinger 2001-2019
</metadata>
<g transform="translate(0.000000,305.000000) scale(0.100000,-0.100000)"
fill="#000000" stroke="none">
<path d="M887 2895 c-7 -21 -33 -144 -42 -197 -3 -18 -8 -40 -10 -48 -15 -52
-37 -309 -42 -502 l-6 -226 42 -21 c23 -12 44 -28 48 -36 7 -20 14 -19 43 8
14 12 38 28 54 35 l29 13 -7 217 c-3 119 -11 262 -16 317 -10 105 -41 287 -48
281 -2 -2 3 -53 12 -113 31 -220 56 -646 39 -669 -14 -18 -80 -54 -86 -47 -4
3 -7 220 -7 481 0 262 3 472 6 469 4 -4 13 -30 20 -59 12 -44 13 -47 9 -13 -2
22 -11 60 -18 85 -11 36 -15 41 -20 25z"/>
<path d="M1562 2857 c-46 -158 -79 -420 -88 -708 l-7 -225 31 -13 c17 -7 38
-21 48 -32 22 -24 36 -24 58 0 10 11 31 25 48 32 l31 13 -7 235 c-6 223 -19
367 -47 526 -19 108 -22 59 -4 -62 22 -148 33 -283 41 -491 l6 -177 -42 -28
c-23 -15 -45 -25 -50 -22 -4 3 -8 211 -8 463 0 430 6 553 23 438 4 -26 10 -45
13 -42 6 7 -18 125 -27 131 -4 2 -13 -15 -19 -38z"/>
<path d="M1261 2638 c0 -38 -5 -68 -11 -68 -5 0 -10 8 -10 17 0 29 -8 10 -29
-67 -38 -145 -58 -324 -60 -542 -1 -121 -14 -156 -26 -70 -10 72 -34 184 -40
191 -11 11 -23 -22 -34 -96 -16 -104 -15 -108 24 -134 38 -27 49 -54 39 -105
-8 -41 -23 -50 -54 -34 -40 21 -48 -21 -12 -62 21 -24 38 -22 68 7 32 32 36
32 29 -7 -6 -38 2 -54 30 -59 15 -3 21 -13 23 -42 l3 -37 -27 25 c-37 35 -85
37 -117 5 -18 -17 -18 -18 20 -25 68 -12 88 -48 95 -170 3 -57 2 -60 -24 -73
-35 -17 -41 -72 -8 -72 14 0 20 -7 21 -22 1 -22 1 -22 9 2 6 18 8 20 9 7 2
-28 -18 -57 -38 -57 -24 0 -45 -25 -37 -45 3 -9 16 -20 28 -25 22 -9 22 -9 -4
-9 -29 -1 -43 23 -40 72 2 26 0 27 -43 27 -25 0 -57 -7 -70 -16 -56 -37 -139
40 -141 130 -2 68 -14 138 -27 154 -13 17 -62 15 -81 -4 -40 -40 -29 -98 41
-205 82 -127 95 -162 98 -258 1 -47 5 -93 9 -103 6 -12 -32 -62 -144 -192 -83
-97 -153 -176 -155 -176 -7 0 16 49 49 105 143 247 206 369 206 397 0 69 -31
145 -86 212 -92 110 -102 157 -54 242 l31 52 -23 16 c-29 20 -97 21 -126 0
-28 -19 -28 -47 -1 -136 28 -92 22 -143 -21 -179 -27 -23 -30 -30 -21 -47 17
-31 14 -38 -21 -49 -18 -6 -91 -32 -163 -58 -159 -57 -187 -66 -181 -56 3 4
71 48 151 97 81 49 163 99 183 112 21 12 43 25 49 28 16 7 17 48 3 74 -6 11
-13 47 -16 82 -11 106 -26 103 -21 -5 l4 -97 -32 6 c-35 6 -63 -15 -275 -210
-30 -28 -77 -71 -103 -94 -27 -24 -47 -45 -45 -47 2 -2 97 28 213 66 116 38
227 74 248 79 30 9 37 16 37 35 0 33 13 38 59 24 52 -15 110 -64 128 -107 16
-40 7 -57 -36 -65 -26 -6 -31 -15 -79 -164 -96 -301 -132 -417 -128 -420 2 -2
39 36 82 84 44 48 104 115 134 148 31 33 87 95 125 138 l69 78 -11 42 c-6 23
-9 45 -7 49 3 5 45 8 93 8 75 0 93 -3 121 -22 56 -39 60 -54 23 -89 -18 -16
-33 -35 -33 -42 0 -6 30 -155 67 -331 l67 -320 13 55 c27 115 85 389 104 493
l20 109 -32 33 c-31 32 -32 33 -15 59 26 40 74 55 172 55 l87 0 -8 -32 c-4
-18 -9 -42 -12 -53 -3 -15 29 -56 123 -160 150 -165 272 -295 278 -295 3 0 -4
26 -14 57 -10 32 -44 139 -75 238 -31 99 -63 201 -71 227 -14 43 -20 49 -56
58 -37 10 -39 13 -33 38 11 46 56 93 112 119 61 28 83 25 83 -11 0 -22 8 -28
63 -45 34 -10 142 -44 240 -76 98 -31 180 -55 183 -53 4 5 -15 23 -229 217
-139 126 -149 133 -180 127 l-33 -6 4 97 c5 133 -13 111 -22 -25 l-7 -103 45
6 46 7 97 -87 c155 -139 195 -177 191 -181 -2 -1 -69 33 -148 78 -80 44 -162
90 -183 101 -55 31 -75 52 -88 98 -11 35 -10 49 9 108 27 83 27 106 2 131 -34
34 -140 19 -140 -20 0 -9 11 -31 25 -50 47 -63 31 -126 -61 -241 -63 -80 -76
-127 -55 -205 10 -37 15 -42 58 -55 55 -17 43 8 133 -272 28 -87 54 -165 57
-173 3 -8 1 -14 -3 -14 -5 0 -28 35 -52 78 -23 42 -68 120 -99 172 -141 239
-148 253 -148 300 0 38 12 63 72 162 39 65 74 133 77 153 7 34 -5 72 -28 87
-21 14 -65 8 -74 -9 -13 -25 -25 -101 -23 -149 1 -31 -6 -51 -29 -83 -42 -57
-71 -69 -116 -48 -19 9 -53 17 -76 17 -36 0 -40 -2 -35 -21 3 -11 1 -34 -5
-50 -8 -22 -16 -29 -36 -29 -25 1 -26 1 -7 12 11 6 23 16 27 22 10 16 -11 46
-32 46 -12 0 -20 7 -20 18 0 15 -2 15 -11 2 -9 -12 -10 -12 -5 3 3 10 6 25 6
32 0 7 12 16 26 19 35 9 31 57 -6 66 -31 7 -36 42 -21 127 13 71 38 105 80
114 42 9 47 15 28 34 -23 23 -86 19 -114 -7 l-23 -21 0 30 c0 26 5 33 31 42
30 10 31 13 25 51 -3 22 -4 40 -2 40 3 0 16 -11 30 -25 39 -39 70 -31 85 23
11 37 1 48 -27 31 -31 -19 -49 -5 -55 43 -5 49 11 83 49 100 28 13 30 38 14
134 -24 138 -31 135 -60 -26 -12 -63 -25 -119 -29 -123 -4 -4 -11 81 -15 190
-3 109 -14 243 -22 298 -9 55 -18 147 -20 205 -6 137 -11 172 -13 88z m-4
-538 c0 -115 -2 -150 -7 -115 -5 28 -8 163 -7 300 0 225 1 236 8 115 3 -74 7
-209 6 -300z m42 -55 c12 -213 14 -375 5 -399 -8 -21 -31 -20 -37 2 -3 11 -5
7 -6 -10 0 -15 -4 -29 -9 -32 -4 -2 -8 51 -8 117 -1 104 1 113 8 62 12 -93 14
-95 22 -23 7 56 5 70 -8 83 -9 9 -16 28 -16 43 0 21 2 24 10 12 6 -10 10 69
11 235 2 276 9 252 28 -90z m-49 -534 c0 -26 -10 -51 -21 -51 -10 0 -12 53 -2
63 12 13 23 7 23 -12z m54 -468 c-3 -27 -8 -59 -11 -73 -5 -23 -6 -24 -13 -5
-7 17 -9 16 -11 -10 -6 -78 -4 -175 3 -175 4 0 8 18 8 40 l0 40 35 -38 34 -38
-20 -95 c-11 -52 -23 -107 -26 -124 -3 -16 -9 -34 -13 -40 -4 -5 -10 -35 -14
-65 -3 -30 -13 -80 -20 -110 -13 -51 -14 -31 -14 241 -1 162 -4 308 -8 323 -4
19 -3 26 6 24 13 -3 39 76 40 119 0 18 6 25 27 32 2 1 0 -20 -3 -46z m-111
-14 c6 -49 -1 -78 -14 -57 -11 17 -11 98 0 98 4 0 11 -19 14 -41z"/>
<path d="M1276 603 c9 -78 14 -79 14 -5 0 35 -4 62 -10 62 -6 0 -8 -21 -4 -57z"/>
<path d="M750 1861 c-27 -7 -62 -64 -53 -86 3 -9 15 -12 37 -8 42 7 91 -18
110 -56 14 -26 14 -31 -4 -51 -40 -46 -14 -121 85 -256 14 -19 13 -23 -19 -59
-45 -50 -53 -81 -28 -114 43 -58 131 -46 104 14 -15 33 -15 68 -1 82 8 8 26 6
67 -8 30 -10 66 -19 79 -19 21 0 24 3 27 31 1 5 -24 20 -55 33 -93 38 -161
101 -195 181 -15 38 -19 75 -6 75 4 0 14 -16 21 -36 18 -49 119 -155 176 -183
25 -13 48 -21 51 -18 11 11 -9 55 -30 65 -63 28 -146 132 -146 182 0 14 -9 33
-20 43 -27 23 -25 33 10 69 28 27 35 30 75 23 l45 -6 0 35 c0 39 -23 61 -75
70 -38 7 -73 -16 -91 -60 -18 -43 -27 -43 -42 0 -9 25 -23 38 -53 50 -21 9
-40 16 -42 15 -1 -1 -13 -4 -27 -8z"/>
<path d="M1434 1855 c-33 -13 -44 -32 -44 -70 0 -21 3 -22 45 -18 39 5 47 2
75 -25 35 -35 38 -57 10 -72 -13 -7 -20 -21 -20 -39 0 -40 -55 -118 -115 -163
-81 -61 -90 -107 -13 -69 59 28 153 124 175 177 10 24 23 42 28 41 29 -10 -32
-135 -92 -188 -32 -28 -99 -63 -155 -82 -22 -8 -23 -21 -3 -37 13 -10 28 -10
80 5 98 26 106 18 80 -87 -6 -23 -3 -28 17 -33 47 -12 108 27 108 70 0 13 -18
44 -40 71 -36 40 -39 49 -28 64 60 82 81 115 93 151 21 59 19 96 -5 109 -30
16 -24 38 18 77 31 29 43 34 76 31 43 -3 52 7 42 47 -8 32 -59 58 -96 50 -31
-7 -80 -57 -80 -81 0 -25 -19 -15 -33 19 -24 56 -70 75 -123 52z"/>
</g>
</svg>
