<?xml version="1.0" standalone="no"?>
<!DOCTYPE svg PUBLIC "-//W3C//DTD SVG 20010904//EN"
 "http://www.w3.org/TR/2001/REC-SVG-20010904/DTD/svg10.dtd">
<svg version="1.0" xmlns="http://www.w3.org/2000/svg"
 width="244.000000pt" height="305.000000pt" viewBox="0 0 244.000000 305.000000"
 preserveAspectRatio="xMidYMid meet">
<metadata>
Created by potrace 1.16, written by Peter Selinger 2001-2019
</metadata>
<g transform="translate(0.000000,305.000000) scale(0.100000,-0.100000)"
fill="#000000" stroke="none">
<path d="M1447 2814 c-9 -60 -21 -145 -27 -189 -12 -100 -30 -453 -30 -594 l0
-106 38 -38 39 -37 42 39 43 40 -11 278 c-6 153 -16 321 -22 373 -14 138 -40
313 -49 329 -4 7 -14 -34 -23 -95z m23 -450 l0 -466 -32 31 -31 30 6 248 c7
257 38 623 53 623 2 0 4 -210 4 -466z"/>
<path d="M997 2900 c-26 -69 -57 -392 -67 -688 l-9 -286 40 -38 40 -39 41 40
41 41 -12 302 c-11 295 -29 497 -55 622 -7 33 -16 54 -19 46z m3 -539 l0 -459
-31 29 -32 30 7 227 c6 199 15 322 42 570 4 34 8 62 10 62 2 0 4 -207 4 -459z"/>
<path d="M1226 2580 c-26 -104 -54 -433 -56 -644 0 -33 -2 -57 -4 -55 -3 2 -9
50 -15 105 -6 56 -14 109 -17 119 -7 16 -8 16 -16 -5 -5 -13 -12 -65 -15 -116
-6 -90 -5 -94 21 -124 19 -23 26 -43 26 -73 0 -46 -13 -76 -24 -58 -4 6 -14
11 -22 11 -19 0 -19 -64 1 -80 18 -15 52 -4 58 18 3 9 5 -2 6 -24 1 -28 6 -44
16 -48 9 -3 23 -22 31 -41 8 -19 16 -35 19 -35 3 0 11 16 19 35 8 19 22 38 31
41 10 4 15 20 16 48 0 37 1 39 11 19 22 -46 68 -18 68 41 0 27 -18 34 -37 15
-9 -9 -14 -5 -19 15 -11 44 2 106 25 123 24 16 27 56 11 167 -17 114 -25 107
-42 -32 -6 -56 -13 -100 -15 -98 -2 1 -8 103 -13 225 -9 209 -30 404 -49 454
-9 22 -9 22 -15 -3z m3 -532 c0 -244 -3 -437 -6 -430 -2 6 -12 12 -20 12 -14
0 -15 33 -10 308 4 261 22 552 34 552 2 0 3 -199 2 -442z"/>
<path d="M886 1854 c-19 -19 -30 -58 -22 -79 3 -9 18 -15 34 -15 16 0 36 -8
45 -18 21 -23 34 -82 18 -82 -16 0 -14 -90 4 -141 8 -24 26 -64 40 -89 l24
-46 -29 -48 -28 -49 -11 54 c-5 30 -11 65 -13 78 -2 13 -11 29 -21 35 -15 9
-22 7 -38 -13 -28 -34 -25 -99 11 -188 17 -42 29 -77 27 -79 -8 -8 -71 132
-78 174 -6 37 -3 56 13 89 25 53 21 84 -14 101 -35 17 -75 1 -84 -33 -4 -15 1
-65 11 -113 24 -124 17 -141 -109 -249 -56 -48 -111 -96 -123 -107 -24 -20
-32 -7 -10 16 7 7 48 59 90 115 73 97 79 102 107 96 l30 -5 -1 73 c0 41 -4 94
-8 119 -7 43 -8 44 -16 16 -4 -15 -5 -59 -2 -97 6 -68 5 -69 -18 -69 -22 0
-32 -10 -87 -85 -4 -5 -18 -23 -32 -40 -91 -114 -174 -231 -166 -233 5 -2 56
19 112 46 57 27 131 62 166 78 52 23 65 34 69 57 4 22 10 26 25 21 77 -24 130
-143 73 -164 -14 -5 -25 -12 -25 -14 0 -3 -24 -117 -54 -253 -56 -257 -72
-342 -63 -333 6 6 222 350 259 413 25 42 27 52 19 89 -6 23 -8 46 -5 50 8 13
93 9 122 -6 15 -8 34 -26 41 -39 12 -23 11 -30 -9 -61 -21 -35 -21 -40 -10
-129 21 -164 80 -551 85 -555 3 -3 5 -2 5 1 0 4 16 116 35 249 63 431 61 402
36 437 -41 57 7 111 99 111 l53 0 -6 -51 c-7 -57 -3 -65 127 -269 30 -47 76
-120 102 -162 27 -42 50 -75 52 -74 4 4 -14 94 -63 321 -20 94 -42 192 -47
218 -8 37 -17 51 -39 62 -24 13 -27 18 -19 44 12 44 27 67 61 95 39 33 59 33
59 1 0 -20 12 -30 83 -63 171 -82 268 -124 273 -119 3 3 -39 63 -93 133 -54
70 -114 148 -133 173 -23 30 -45 47 -62 49 l-25 3 5 91 c3 66 2 89 -6 84 -7
-4 -17 7 -26 29 -13 31 -19 35 -53 35 -63 0 -80 -38 -47 -102 21 -40 15 -110
-16 -172 -28 -59 -37 -55 -10 5 23 52 27 151 7 168 -8 6 -24 12 -37 13 -30 4
-40 -28 -44 -137 -3 -80 -18 -128 -51 -155 -14 -11 -21 -11 -45 3 -38 23 -71
22 -77 -2 -4 -17 -9 -18 -28 -9 -37 17 -40 40 -10 64 20 16 26 28 23 50 -3 25
2 31 36 46 21 10 42 15 48 12 5 -4 8 -34 6 -68 -3 -60 -3 -61 24 -64 22 -3 32
3 47 28 23 39 13 93 -26 141 -11 14 -8 27 22 90 37 79 57 190 36 203 -36 23
18 117 63 109 32 -6 39 9 26 57 -8 29 -17 41 -35 46 -35 9 -52 0 -77 -42 l-21
-36 -13 31 c-18 43 -55 59 -89 37 -20 -13 -25 -25 -25 -56 0 -37 2 -40 28 -40
47 0 82 -54 57 -87 -8 -10 -15 -34 -15 -54 0 -38 -63 -149 -94 -166 -9 -5 -19
-23 -22 -41 -9 -45 12 -42 62 11 50 52 71 86 96 151 19 50 19 50 13 11 -9 -52
-38 -119 -71 -158 -26 -31 -90 -77 -108 -77 -12 0 -1 108 14 142 7 15 26 31
41 37 16 5 29 14 29 19 0 14 -35 42 -53 42 -24 0 -56 -39 -68 -84 l-11 -40
-21 54 c-27 67 -64 87 -98 53 -24 -23 -18 -43 11 -43 31 0 50 -42 57 -119 l6
-71 -46 25 c-66 37 -126 125 -141 205 -7 35 -7 35 8 10 9 -14 15 -32 16 -41 0
-19 72 -117 103 -141 52 -41 65 0 18 54 -53 61 -91 130 -91 167 0 19 -7 42
-16 52 -14 15 -14 21 0 53 9 21 22 36 33 37 59 4 58 3 54 34 -5 44 -18 64 -48
71 -21 6 -31 1 -50 -20 -13 -15 -23 -37 -23 -49 -1 -19 -3 -18 -17 8 -34 65
-73 83 -107 49z m809 -544 l-15 -45 6 63 c6 79 18 111 22 62 1 -19 -4 -55 -13
-80z m-568 -4 c28 -9 31 -13 26 -43 -5 -28 -2 -34 21 -43 35 -13 34 -45 -3
-63 -27 -13 -30 -13 -34 4 -6 24 -39 25 -78 2 -27 -16 -29 -16 -50 3 -28 25
-49 67 -48 96 0 18 5 13 19 -19 13 -29 27 -44 44 -49 40 -10 46 1 39 73 -6 63
-5 66 13 58 10 -4 33 -13 51 -19z m642 -135 c28 -27 74 -69 101 -92 27 -23 48
-44 46 -47 -2 -2 -48 18 -101 45 -94 47 -96 49 -91 77 4 20 1 35 -10 48 -36
39 7 15 55 -31z m-810 -60 c22 -67 14 -116 -45 -259 -94 -228 -124 -306 -125
-322 0 -8 -3 -10 -5 -4 -4 10 80 404 88 407 1 1 16 9 33 17 21 11 31 26 38 55
9 41 5 105 -8 140 -5 13 -5 17 2 10 6 -5 15 -25 22 -44z m554 -63 c-6 -78 -10
-63 127 -423 16 -44 30 -82 30 -85 0 -7 -25 31 -52 80 -14 25 -35 61 -47 80
-13 19 -38 61 -56 92 l-33 57 8 108 c8 99 17 163 25 163 2 0 1 -33 -2 -72z
m-310 -11 c3 -24 11 -57 17 -73 11 -27 12 -28 25 -10 8 10 17 42 21 72 3 30
10 54 13 54 14 0 -8 -110 -28 -144 -20 -32 -21 -48 -22 -317 l-1 -284 -34 224
c-35 236 -35 235 7 290 22 27 24 62 8 93 -14 25 -28 138 -19 138 4 0 10 -19
13 -43z"/>
</g>
</svg>
