<?xml version="1.0" standalone="no"?>
<!DOCTYPE svg PUBLIC "-//W3C//DTD SVG 20010904//EN"
 "http://www.w3.org/TR/2001/REC-SVG-20010904/DTD/svg10.dtd">
<svg version="1.0" xmlns="http://www.w3.org/2000/svg"
 width="244.000000pt" height="305.000000pt" viewBox="0 0 244.000000 305.000000"
 preserveAspectRatio="xMidYMid meet">
<metadata>
Created by potrace 1.16, written by Peter Selinger 2001-2019
</metadata>
<g transform="translate(0.000000,305.000000) scale(0.100000,-0.100000)"
fill="#000000" stroke="none">
<path d="M997 2905 c-13 -41 -47 -295 -56 -425 -6 -74 -12 -228 -15 -343 l-5
-208 39 -40 40 -41 41 41 41 41 -7 242 c-9 331 -58 794 -78 733z m3 -542 l0
-457 -31 30 -31 29 7 200 c8 249 40 655 51 655 2 0 4 -206 4 -457z"/>
<path d="M1463 2898 c-27 -34 -72 -546 -73 -818 l0 -156 39 -38 39 -38 42 41
43 41 -7 248 c-4 136 -14 308 -22 382 -13 128 -43 342 -49 348 -1 1 -7 -3 -12
-10z m-8 -976 c-3 -3 -14 3 -25 13 -18 17 -20 30 -20 174 0 148 20 458 37 594
5 39 9 -92 11 -357 1 -231 0 -421 -3 -424z"/>
<path d="M1226 2585 c-15 -39 -45 -340 -52 -520 l-8 -190 -14 115 c-7 63 -16
117 -18 119 -14 14 -24 -27 -30 -116 -7 -100 -6 -102 20 -133 38 -46 35 -155
-4 -130 -23 15 -30 12 -30 -12 1 -67 34 -90 64 -46 16 22 16 21 16 -19 0 -28
5 -43 15 -47 9 -3 23 -22 31 -41 8 -19 16 -35 19 -35 3 0 11 16 19 35 8 19 22
38 31 41 10 4 15 19 15 47 0 40 0 41 16 19 19 -27 40 -28 54 -3 24 46 4 91
-27 60 -9 -9 -14 -5 -19 15 -11 44 2 106 25 123 24 16 28 76 11 177 -17 103
-26 93 -41 -42 -7 -57 -13 -101 -15 -99 -3 3 -7 73 -19 332 -6 121 -29 308
-44 347 -7 20 -8 20 -15 3z m4 -535 l0 -441 -21 20 c-22 20 -22 23 -16 313 4
253 23 548 34 548 1 0 3 -198 3 -440z"/>
<path d="M887 1858 c-10 -8 -21 -32 -24 -56 l-6 -42 36 0 c29 0 39 -6 56 -34
23 -37 27 -66 10 -66 -24 0 -3 -126 33 -203 l35 -73 -25 -48 c-32 -61 -33
-103 -2 -128 13 -10 33 -18 44 -16 19 3 21 8 18 72 -3 54 -1 67 10 63 7 -3 29
-11 50 -18 34 -11 36 -14 31 -45 -5 -29 -2 -35 21 -44 35 -13 34 -45 -3 -64
-27 -14 -29 -14 -34 4 -6 24 -43 26 -75 4 -56 -39 -99 29 -100 160 -2 128 -38
175 -82 104 -25 -41 -21 -72 26 -187 18 -47 32 -86 31 -88 -2 -1 -22 35 -45
80 -35 68 -42 92 -42 139 0 32 7 72 16 92 20 40 14 62 -21 78 -34 15 -72 -3
-81 -39 -4 -15 -14 -33 -22 -39 -12 -9 -14 -26 -9 -87 l5 -76 -26 -3 c-22 -2
-53 -38 -161 -178 -89 -117 -128 -176 -118 -178 8 -2 68 23 133 55 66 33 135
65 154 73 45 18 60 33 60 59 0 28 22 26 60 -5 63 -54 79 -124 33 -146 -15 -7
-29 -22 -31 -33 -3 -22 -36 -182 -53 -257 -6 -26 -12 -53 -13 -60 -1 -7 -12
-56 -25 -108 -17 -71 -20 -101 -12 -120 5 -14 10 -19 10 -12 1 7 14 32 30 55
15 23 61 96 101 162 40 66 88 146 107 177 32 53 34 60 25 102 -5 25 -7 48 -4
51 13 13 99 4 129 -14 42 -26 50 -54 24 -90 -12 -16 -21 -38 -21 -49 0 -28 79
-581 89 -617 8 -33 14 -2 72 406 l32 225 -24 33 c-22 30 -22 34 -8 59 20 36
54 52 112 52 l49 0 -7 -50 c-6 -47 -4 -54 40 -127 139 -230 218 -352 226 -347
5 3 9 0 9 -5 0 -6 5 -11 11 -11 7 0 9 9 5 22 -3 13 -17 75 -32 138 -95 429
-90 414 -125 425 -18 6 -20 13 -16 41 10 62 73 125 124 124 17 -1 17 -1 -1
-15 -10 -8 -15 -19 -11 -26 12 -19 288 -146 335 -154 37 -6 43 -5 34 6 -6 8
-33 43 -60 79 -27 36 -75 95 -106 132 -31 37 -62 77 -68 88 -6 12 -27 28 -46
36 l-34 14 6 83 c4 59 3 78 -5 67 -6 -8 -11 -37 -12 -65 0 -27 -5 -61 -10 -75
-5 -16 -7 11 -4 75 7 127 -4 148 -72 143 -60 -4 -74 -24 -50 -72 19 -40 17
-43 -17 -21 -13 9 -31 13 -40 9 -17 -6 -19 -14 -33 -104 l-8 -55 -26 45 -27
44 36 70 c26 52 36 85 40 136 3 44 1 70 -7 74 -17 11 -13 35 10 67 16 22 28
29 55 29 33 0 34 1 34 39 0 30 -6 44 -22 55 -35 25 -64 19 -94 -18 l-27 -34
-22 32 c-39 58 -100 40 -107 -34 -3 -32 -1 -35 27 -38 17 -2 38 -11 48 -19 18
-17 24 -68 8 -77 -4 -3 -11 -25 -14 -49 -7 -51 -49 -129 -83 -156 -28 -22 -45
-81 -22 -81 28 0 125 116 146 175 6 17 11 22 11 13 1 -23 -32 -97 -63 -138
-14 -19 -47 -47 -73 -63 l-46 -29 5 64 c7 80 23 114 59 127 16 5 29 14 29 20
0 12 -40 41 -57 41 -20 0 -49 -38 -63 -83 l-12 -42 -20 53 c-24 65 -54 84 -93
58 -33 -22 -32 -33 9 -50 27 -11 35 -22 45 -59 6 -25 11 -64 11 -86 l0 -40
-45 26 c-25 14 -59 45 -77 71 -33 48 -71 138 -65 155 2 6 11 -12 21 -39 39
-104 156 -220 156 -155 0 10 -18 41 -41 67 -49 58 -78 118 -79 159 0 17 -7 39
-15 49 -28 37 2 83 56 88 31 3 34 5 30 33 -5 43 -18 64 -46 71 -30 7 -53 -9
-70 -49 l-11 -27 -25 37 c-26 42 -61 53 -92 31z m-103 -525 c3 -25 0 -57 -5
-71 -11 -30 -87 -112 -104 -112 -5 0 -34 -23 -64 -50 -29 -28 -57 -50 -62 -50
-14 0 7 36 47 80 19 20 34 41 34 45 0 4 14 25 31 46 25 32 37 39 65 39 l34 0
1 83 c0 87 14 82 23 -10z m403 -25 c-3 -8 -6 -5 -6 6 -1 11 2 17 5 13 3 -3 4
-12 1 -19z m221 -45 c-3 -65 -2 -68 20 -71 13 -2 32 4 42 13 18 16 18 16 13
-3 -3 -12 -14 -29 -24 -38 -19 -17 -21 -17 -48 -1 -39 23 -72 22 -78 -2 -4
-17 -9 -18 -28 -9 -40 18 -43 61 -4 71 14 4 19 14 19 40 0 30 4 36 38 50 20 8
41 15 45 16 5 1 7 -29 5 -66z m418 -150 c41 -36 72 -68 70 -70 -6 -6 -163 74
-171 87 -6 10 11 50 21 50 3 0 39 -30 80 -67z m-856 -73 c0 -34 -16 -85 -61
-195 -34 -83 -74 -181 -90 -220 -15 -38 -28 -65 -28 -60 -1 9 45 219 70 327 7
26 19 42 44 57 41 24 50 51 42 134 -5 59 -5 60 8 32 8 -16 14 -50 15 -75z
m234 -14 c7 -53 28 -97 41 -84 4 3 12 36 18 72 8 49 15 66 27 65 10 0 11 -2 3
-6 -7 -2 -13 -22 -13 -42 0 -21 -11 -59 -25 -85 -25 -47 -25 -48 -26 -329 l-1
-282 -34 224 -34 225 30 46 c34 53 36 72 15 123 -8 20 -15 54 -15 76 0 29 -5
41 -17 44 -14 4 -14 5 3 6 19 1 23 -6 28 -53z m303 22 c-3 -8 -6 -5 -6 6 -1
11 2 17 5 13 3 -3 4 -12 1 -19z m3 -82 c0 -7 13 -47 29 -87 70 -180 103 -271
98 -275 -2 -3 -39 52 -80 121 -71 119 -75 127 -66 161 6 19 7 49 4 65 -4 18
-3 29 4 29 6 0 11 -6 11 -14z"/>
</g>
</svg>
