<?xml version="1.0" standalone="no"?>
<!DOCTYPE svg PUBLIC "-//W3C//DTD SVG 20010904//EN"
 "http://www.w3.org/TR/2001/REC-SVG-20010904/DTD/svg10.dtd">
<svg version="1.0" xmlns="http://www.w3.org/2000/svg"
 width="244.000000pt" height="305.000000pt" viewBox="0 0 244.000000 305.000000"
 preserveAspectRatio="xMidYMid meet">
<metadata>
Created by potrace 1.16, written by Peter Selinger 2001-2019
</metadata>
<g transform="translate(0.000000,305.000000) scale(0.100000,-0.100000)"
fill="#000000" stroke="none">
<path d="M885 2888 c-4 -14 -3 -34 3 -45 8 -16 7 -932 -2 -940 -2 -2 -22 9
-45 24 l-42 27 1 116 c2 155 25 425 51 593 11 76 19 141 17 143 -5 5 -44 -207
-57 -316 -6 -41 -13 -154 -16 -250 -3 -96 -8 -205 -10 -242 l-5 -66 59 -40
c59 -39 60 -39 77 -20 10 10 33 26 51 35 l33 15 0 107 c0 130 -17 408 -31 516
-12 92 -56 316 -69 348 -8 21 -8 21 -15 -5z"/>
<path d="M1578 2404 c2 -318 -1 -504 -7 -504 -5 0 -28 12 -51 28 l-43 27 7
180 c8 216 21 358 47 524 11 68 18 126 15 128 -5 5 -11 -21 -31 -142 -24 -147
-34 -267 -41 -502 l-7 -222 28 -11 c16 -6 39 -22 52 -36 l24 -26 34 30 c18 17
43 33 54 37 20 6 21 14 21 128 0 155 -16 379 -36 527 -16 117 -48 282 -61 319
-5 11 -7 -207 -5 -485z"/>
<path d="M1551 2824 c0 -11 3 -14 6 -6 3 7 2 16 -1 19 -3 4 -6 -2 -5 -13z"/>
<path d="M1263 2700 c0 -25 2 -35 4 -22 2 12 2 32 0 45 -2 12 -4 2 -4 -23z"/>
<path d="M1198 2570 c-3 -74 -11 -159 -17 -188 -13 -70 -30 -292 -32 -420 -1
-102 -13 -142 -23 -80 -3 18 -12 72 -20 121 -24 142 -38 139 -57 -13 l-12 -93
36 -30 c34 -27 37 -33 37 -83 0 -60 -16 -77 -52 -55 -23 14 -37 7 -33 -17 2
-9 4 -20 4 -24 2 -13 32 -38 47 -38 8 0 24 11 36 25 28 32 42 32 34 -1 -10
-37 1 -61 29 -68 21 -5 25 -13 25 -40 l0 -34 -28 28 c-30 30 -62 31 -107 3
-17 -11 -18 -14 -5 -23 8 -5 25 -10 37 -10 50 0 75 -58 77 -174 1 -56 -1 -60
-24 -66 -37 -9 -41 -57 -6 -66 41 -10 32 -54 -15 -78 -38 -19 -30 -47 17 -63
40 -13 41 -15 55 -81 9 -42 19 -66 27 -64 9 2 11 -14 6 -65 -7 -68 -7 -243 1
-443 6 -136 -7 -157 -29 -48 -9 46 -16 93 -16 106 0 12 -4 30 -10 40 -5 9 -20
68 -34 131 -27 123 -26 132 20 178 l24 24 0 -40 c0 -22 4 -43 10 -46 6 -3 9
15 9 47 -1 29 0 60 0 68 1 8 -3 33 -8 55 -5 22 -9 31 -10 21 -2 -36 -16 -5
-21 47 -5 50 -6 52 -37 55 -39 4 -58 32 -49 73 5 28 5 29 -38 29 -25 0 -58 -8
-74 -17 -39 -22 -70 -9 -112 48 -22 32 -30 52 -29 83 1 55 -11 138 -24 154
-16 20 -64 14 -87 -10 -32 -34 -22 -88 30 -173 93 -151 113 -194 106 -236 -3
-21 -31 -78 -60 -126 -30 -49 -74 -122 -97 -163 -72 -129 -134 -230 -140 -230
-4 0 17 73 46 163 97 297 85 270 127 282 53 14 70 36 76 93 6 66 -9 106 -64
172 -86 103 -105 178 -59 240 14 19 25 41 25 50 0 38 -113 55 -143 22 -22 -25
-21 -58 4 -135 17 -53 19 -70 10 -104 -6 -22 -19 -47 -28 -56 -18 -15 -308
-184 -368 -214 -33 -16 65 84 193 196 71 63 73 63 118 56 l45 -6 -7 98 c-9
133 -25 156 -22 31 l3 -98 -32 6 c-36 7 -24 16 -303 -236 -103 -93 -119 -110
-104 -110 4 0 87 25 183 56 324 103 301 94 301 121 0 35 20 37 81 10 59 -27
92 -57 108 -100 14 -36 9 -43 -34 -57 -38 -13 -37 -10 -155 -390 -27 -85 -52
-163 -56 -174 -17 -44 18 -9 267 264 156 171 147 154 123 238 -6 22 -5 22 88
22 82 0 100 -3 128 -22 56 -39 59 -52 21 -92 l-34 -35 31 -153 c78 -379 102
-491 107 -496 3 -3 5 -1 5 5 0 5 9 52 21 104 11 52 24 114 28 139 5 25 25 125
46 224 l37 178 -33 34 c-29 30 -31 36 -20 57 21 40 72 57 165 57 88 0 101 -7
85 -45 -17 -44 -8 -63 64 -142 39 -43 110 -121 157 -172 127 -139 166 -181
172 -181 3 0 -23 89 -58 198 -34 108 -75 236 -90 284 -26 87 -27 88 -66 98
-38 11 -39 13 -33 43 10 46 70 104 127 123 54 17 68 13 68 -20 0 -22 13 -28
148 -71 81 -26 187 -60 236 -76 48 -17 93 -28 99 -26 8 2 -162 160 -348 322
-23 20 -37 25 -61 20 l-31 -5 5 96 c6 109 -11 126 -21 22 -3 -35 -11 -85 -18
-111 -16 -57 -35 -40 203 -182 97 -58 180 -110 184 -117 4 -6 3 -9 -3 -7 -5 2
-91 33 -191 68 -186 65 -203 76 -169 110 10 10 5 18 -22 40 -44 37 -51 91 -22
185 26 85 26 101 0 127 -18 18 -30 21 -72 16 -73 -7 -84 -26 -46 -85 21 -33
28 -55 24 -74 -3 -16 -8 -42 -11 -59 -3 -16 -28 -57 -56 -90 -58 -70 -87 -130
-95 -197 -6 -55 -1 -68 132 -302 123 -217 126 -222 122 -226 -3 -3 -60 59
-246 271 -51 58 -60 74 -55 95 4 14 8 62 9 106 3 93 14 121 99 258 31 49 59
104 62 123 9 49 -20 87 -69 91 -31 3 -37 0 -41 -20 -13 -60 -17 -97 -19 -144
-2 -38 -9 -59 -31 -88 -40 -53 -66 -63 -110 -42 -18 9 -52 16 -74 16 l-41 0
-3 -48 c-3 -44 -5 -47 -33 -50 l-30 -2 28 16 c35 19 32 44 -8 63 -34 16 -45
29 -44 51 0 10 3 8 9 -5 8 -19 9 -19 9 1 1 13 9 24 21 27 30 8 27 55 -4 67
-33 12 -39 36 -26 116 13 87 34 116 89 127 41 8 42 9 25 28 -24 27 -91 26
-121 -3 l-23 -21 0 24 c0 29 9 43 33 52 12 5 17 17 17 47 0 46 11 51 34 15 28
-43 80 -23 88 35 2 20 -1 24 -17 22 -54 -9 -58 -7 -67 23 -14 50 -2 87 38 113
l36 23 -7 62 c-23 203 -43 195 -77 -32 -6 -43 -14 -68 -18 -60 -4 8 -11 93
-14 189 -9 234 -25 353 -67 514 -13 49 -32 29 -22 -24 8 -47 10 -559 1 -554
-4 2 -9 -8 -12 -23 -2 -16 -3 105 -1 267 2 162 0 336 -4 385 l-7 90 -6 -135z
m12 -675 c16 10 12 -24 -6 -55 -13 -21 -15 -38 -9 -76 7 -43 9 -46 16 -24 4
14 7 42 8 63 1 20 6 37 12 37 7 0 9 -15 4 -47 -4 -27 -7 -81 -6 -120 0 -40 -2
-73 -4 -73 -3 0 -9 15 -14 33 -7 25 -9 27 -10 9 -1 -20 -3 -21 -22 -11 -22 11
-22 13 -15 243 3 127 12 287 19 356 l12 125 3 -233 c1 -149 6 -231 12 -227z
m40 -395 c0 -20 -5 -30 -15 -30 -15 0 -21 40 -8 53 14 15 23 6 23 -23z m49
-477 c0 -21 -4 -47 -8 -58 -7 -18 -8 -17 -14 7 -8 30 2 88 14 88 5 0 9 -17 8
-37z"/>
<path d="M755 1863 c-34 -8 -55 -34 -55 -69 0 -32 0 -32 40 -27 47 7 82 -12
105 -57 14 -27 14 -30 -6 -49 -19 -17 -21 -27 -15 -67 6 -47 44 -121 92 -180
l25 -32 -41 -47 c-46 -53 -50 -82 -17 -113 52 -49 119 -34 97 22 -15 39 -12
74 6 84 10 5 36 1 75 -12 45 -16 63 -18 76 -10 30 19 20 34 -38 58 -31 12 -70
32 -87 44 -59 42 -122 139 -122 187 0 38 13 30 34 -22 28 -67 137 -168 204
-188 18 -5 22 -2 22 14 0 12 -21 36 -57 63 -67 50 -123 128 -123 169 0 18 -7
32 -20 39 -28 15 -25 37 10 72 28 27 36 30 75 25 44 -4 45 -4 45 23 0 44 -30
72 -77 74 -49 1 -77 -20 -94 -72 l-12 -36 -19 37 c-26 52 -77 81 -123 70z"/>
<path d="M1435 1859 c-31 -17 -45 -40 -45 -71 0 -27 1 -28 39 -22 46 7 76 -6
96 -45 13 -26 13 -30 -5 -46 -11 -10 -20 -30 -20 -45 0 -40 -58 -118 -123
-168 -36 -27 -57 -51 -57 -63 0 -16 4 -19 23 -14 65 20 184 133 208 198 17 48
33 48 24 0 -19 -101 -113 -191 -247 -236 -22 -8 -23 -21 -3 -37 13 -11 28 -9
85 7 94 28 101 19 75 -88 -6 -23 -3 -27 19 -33 31 -8 81 15 96 44 15 27 6 51
-36 101 -19 22 -31 46 -27 52 4 7 23 35 43 62 64 87 85 180 46 208 -17 13 -17
15 -2 45 23 44 57 64 103 60 34 -3 38 -1 41 23 8 71 -89 101 -147 45 -16 -15
-32 -39 -35 -53 -8 -30 -22 -23 -29 16 -10 48 -81 82 -122 60z"/>
<path d="M1180 598 c0 -74 5 -73 14 5 4 36 2 57 -4 57 -6 0 -10 -27 -10 -62z"/>
</g>
</svg>
