<?xml version="1.0" standalone="no"?>
<!DOCTYPE svg PUBLIC "-//W3C//DTD SVG 20010904//EN"
 "http://www.w3.org/TR/2001/REC-SVG-20010904/DTD/svg10.dtd">
<svg version="1.0" xmlns="http://www.w3.org/2000/svg"
 width="244.000000pt" height="305.000000pt" viewBox="0 0 244.000000 305.000000"
 preserveAspectRatio="xMidYMid meet">
<metadata>
Created by potrace 1.16, written by Peter Selinger 2001-2019
</metadata>
<g transform="translate(0.000000,305.000000) scale(0.100000,-0.100000)"
fill="#000000" stroke="none">
<path d="M1112 2890 c0 -14 2 -19 5 -12 2 6 2 18 0 25 -3 6 -5 1 -5 -13z"/>
<path d="M1561 2905 c-1 -5 -1 -234 -1 -507 0 -274 -2 -498 -5 -498 -3 0 -23
12 -45 26 l-40 27 0 81 c0 44 5 155 10 246 9 142 18 231 45 435 4 29 3 34 -4
20 -35 -79 -83 -815 -53 -815 5 0 27 -16 49 -35 l40 -34 23 24 c12 13 36 29
52 36 l31 13 -6 245 c-4 163 -13 293 -26 386 -23 164 -66 378 -70 350z"/>
<path d="M900 2888 c0 -7 -3 -24 -6 -38 -4 -20 -3 -22 5 -10 8 11 11 -120 11
-462 0 -263 -2 -478 -5 -478 -3 0 -24 12 -46 27 l-41 27 6 191 c8 213 19 355
41 495 15 100 18 126 11 119 -3 -2 -14 -58 -25 -124 -25 -145 -41 -367 -41
-567 0 -143 1 -148 23 -159 12 -7 35 -23 51 -36 l29 -24 26 24 c14 14 37 30
50 37 l24 12 -6 217 c-4 119 -13 275 -21 346 -16 148 -66 415 -78 415 -4 0 -8
-6 -8 -12z"/>
<path d="M1352 2860 c0 -19 2 -27 5 -17 2 9 2 25 0 35 -3 9 -5 1 -5 -18z"/>
<path d="M1112 2830 c0 -14 2 -19 5 -12 2 6 2 18 0 25 -3 6 -5 1 -5 -13z"/>
<path d="M882 2800 c0 -14 2 -19 5 -12 2 6 2 18 0 25 -3 6 -5 1 -5 -13z"/>
<path d="M1338 2710 c-5 -63 -11 -223 -15 -355 l-7 -240 -16 145 c-9 80 -27
190 -40 245 l-23 100 -14 -45 c-35 -117 -72 -408 -73 -561 0 -27 -6 -51 -14
-58 -21 -17 -26 85 -26 487 0 276 3 351 13 346 6 -5 5 1 -3 11 -14 17 -16 11
-21 -66 -4 -46 -10 -199 -13 -339 -4 -140 -12 -277 -18 -305 -6 -27 -12 -87
-12 -133 l-1 -82 -35 2 c-49 2 -75 -15 -95 -64 l-17 -43 -14 35 c-24 55 -42
70 -89 70 -49 0 -85 -31 -85 -73 0 -26 2 -27 38 -21 34 5 44 2 75 -26 39 -34
49 -73 21 -84 -37 -14 1 -144 67 -227 16 -20 29 -39 29 -42 0 -2 -16 -24 -35
-48 -38 -48 -46 -97 -20 -119 18 -15 20 -40 2 -40 -21 0 -48 56 -47 97 1 58
-11 147 -22 161 -15 18 -63 15 -80 -5 -39 -46 -29 -87 55 -231 l61 -104 -12
-56 c-6 -31 -17 -59 -24 -63 -9 -6 -9 -11 1 -23 11 -13 8 -23 -14 -63 -16 -27
-53 -93 -83 -148 -30 -55 -58 -105 -63 -111 -5 -6 -23 -37 -40 -70 -32 -60
-54 -92 -45 -64 2 8 19 62 36 120 17 58 47 152 66 210 l34 106 42 14 c54 19
70 48 65 122 -3 57 -8 67 -105 203 -12 17 -25 54 -28 82 -5 41 -2 58 20 99
l26 49 -21 18 c-29 23 -101 23 -122 -1 -22 -24 -21 -52 4 -132 20 -61 21 -71
8 -111 -19 -58 -45 -77 -324 -233 l-70 -39 30 32 c36 39 156 157 205 201 31
27 40 30 79 25 l44 -5 -6 67 c-4 38 -7 85 -7 106 0 21 -5 37 -11 37 -9 0 -10
-26 -6 -90 l6 -91 -32 6 c-36 6 -23 17 -262 -210 -74 -71 -133 -130 -131 -133
3 -2 109 31 235 73 215 73 231 80 231 102 0 36 25 38 88 7 42 -21 63 -40 79
-69 30 -54 29 -64 -11 -80 -19 -8 -37 -19 -41 -25 -6 -9 -60 -185 -134 -433
-21 -70 -35 -126 -32 -125 4 2 43 44 87 93 235 264 305 348 300 360 -3 8 -8
30 -12 49 l-6 36 59 0 c33 0 62 -2 65 -5 2 -3 -8 -114 -24 -247 -15 -134 -27
-253 -26 -266 2 -13 27 55 57 150 29 95 57 177 61 181 9 10 13 -8 80 -348 29
-143 53 -261 54 -262 1 -2 22 93 45 210 79 393 85 417 91 410 4 -5 25 -69 49
-143 56 -179 59 -187 60 -127 1 30 -3 46 -9 42 -5 -3 -10 -2 -10 3 0 5 -18 93
-40 197 -22 103 -37 191 -35 195 3 4 44 8 91 9 l87 2 -6 -33 c-3 -18 -8 -40
-12 -49 -4 -10 8 -32 32 -61 104 -124 355 -409 358 -406 2 2 -28 107 -66 233
-38 127 -76 254 -85 283 -13 44 -21 55 -52 70 -30 14 -37 23 -35 44 4 56 82
122 153 130 21 2 26 -2 28 -24 3 -26 14 -30 243 -107 229 -76 255 -81 202 -35
-6 6 -75 70 -151 142 -181 172 -186 175 -221 167 l-29 -6 6 92 c4 68 2 90 -7
85 -6 -4 -11 -27 -11 -52 0 -24 -7 -71 -17 -104 -9 -33 -14 -61 -12 -63 2 -2
32 -21 65 -43 254 -163 323 -208 320 -211 -3 -4 -357 125 -365 133 -2 2 1 16
8 31 12 25 10 29 -18 53 -43 35 -49 86 -22 174 26 84 26 118 3 139 -21 19 -83
22 -113 7 -25 -14 -24 -34 3 -78 34 -55 22 -150 -26 -197 -40 -40 -90 -130
-100 -180 -13 -64 -31 -73 -30 -15 0 27 14 61 44 112 23 40 54 92 67 115 33
58 35 119 3 145 -13 11 -35 18 -49 16 -22 -3 -28 -11 -39 -53 -11 -44 -13 -75
-11 -137 0 -18 -42 -88 -54 -88 -19 0 -18 33 2 51 30 28 26 61 -14 113 -19 26
-35 49 -35 52 0 3 13 23 29 43 66 83 104 213 67 227 -25 10 -19 49 13 83 24
26 36 31 75 31 41 0 46 2 46 23 0 35 -27 66 -65 73 -44 8 -79 -13 -102 -61
-17 -36 -33 -46 -33 -20 0 8 -13 29 -29 47 -26 30 -33 32 -82 30 -51 -2 -52
-2 -34 18 15 16 17 30 11 87 -4 38 -13 93 -20 123 l-12 55 -15 -70 c-13 -67
-14 -50 -19 340 -4 316 -7 384 -12 295z m-127 -527 c-3 -149 -9 -274 -12 -278
-4 -3 -10 63 -13 147 -6 114 -3 184 8 278 9 68 16 126 16 129 0 2 2 2 3 0 2
-2 1 -126 -2 -276z m-65 -310 c-11 -11 -19 6 -11 24 8 17 8 17 12 0 3 -10 2
-21 -1 -24z m186 -5 c-9 -9 -12 -7 -12 12 0 19 3 21 12 12 9 -9 9 -15 0 -24z
m-142 -79 c0 -38 -4 -69 -8 -69 -4 0 -8 33 -7 74 0 41 3 72 8 69 4 -2 7 -35 7
-74z m176 25 c-9 -28 -12 -31 -14 -14 -4 26 4 50 16 50 5 0 4 -16 -2 -36z
m-249 -26 c-3 -7 -5 -2 -5 12 0 14 2 19 5 13 2 -7 2 -19 0 -25z m-25 -41 c11
-19 -9 -32 -27 -17 -10 9 -19 10 -26 3 -14 -14 9 -71 32 -78 24 -8 26 -61 3
-87 -16 -16 -15 -19 4 -35 23 -20 41 -73 24 -73 -6 0 -22 15 -36 33 -14 17
-35 41 -45 52 -27 29 -41 60 -41 90 0 14 -7 28 -15 31 -26 10 -18 60 12 84 22
17 36 21 68 15 22 -3 43 -11 47 -18z m403 -2 c28 -27 33 -70 10 -79 -8 -3 -15
-18 -15 -33 -1 -32 -16 -62 -48 -95 -13 -13 -34 -36 -47 -53 -13 -16 -26 -27
-29 -24 -11 10 6 69 20 69 22 0 27 20 10 39 -17 19 -22 81 -7 81 19 0 41 32
41 61 0 29 -13 39 -25 19 -10 -16 -27 -11 -23 7 3 16 33 30 71 32 10 1 29 -10
42 -24z m-318 -136 c25 -9 25 -11 10 -27 -15 -14 -19 -14 -31 -2 -14 16 -28
105 -17 116 3 3 7 -13 9 -36 3 -34 8 -43 29 -51z m155 59 c-9 -9 -12 -7 -12
12 0 19 3 21 12 12 9 -9 9 -15 0 -24z m-132 -18 c0 -22 -4 -28 -15 -24 -18 7
-19 20 -2 39 17 19 17 19 17 -15z m116 -68 c-15 -15 -17 -15 -32 0 -15 15 -14
17 12 30 25 12 30 12 32 0 2 -8 -3 -22 -12 -30z m-363 -38 c37 -76 41 -98 13
-75 -20 16 -66 110 -66 133 0 34 15 18 53 -58z m164 54 c-3 -8 -6 -5 -6 6 -1
11 2 17 5 13 3 -3 4 -12 1 -19z m453 5 c-1 -28 -37 -101 -63 -127 -14 -14 -27
-31 -30 -38 -3 -7 -6 -4 -6 8 -1 11 13 41 29 67 17 26 30 49 30 52 0 2 4 15
10 29 11 30 30 35 30 9z m-329 -99 c-5 -21 -10 -32 -10 -24 -1 8 -4 26 -8 39
-4 17 -3 22 5 17 7 -4 12 -2 12 5 0 7 2 10 5 7 3 -3 1 -23 -4 -44z m-81 -58
c11 -33 18 -61 15 -64 -5 -5 -21 31 -41 98 -21 64 2 35 26 -34z m177 37 c-7
-37 -37 -106 -43 -101 -5 6 36 128 43 128 3 0 3 -12 0 -27z m90 -80 c-3 -10
-5 -4 -5 12 0 17 2 24 5 18 2 -7 2 -21 0 -30z m-377 11 c0 -8 -4 -12 -10 -9
-5 3 -10 10 -10 16 0 5 5 9 10 9 6 0 10 -7 10 -16z m69 -28 c8 -10 9 -16 1
-21 -13 -8 -30 3 -30 21 0 18 14 18 29 0z m259 -3 c-4 -22 -38 -30 -38 -10 0
14 13 24 33 26 5 1 7 -7 5 -16z m-368 -83 c0 -10 -4 -22 -10 -25 -6 -4 -10 7
-10 25 0 18 4 29 10 25 6 -3 10 -15 10 -25z m469 -45 c1 -16 -1 -17 -9 -5 -5
8 -9 31 -9 50 l1 35 8 -30 c4 -16 8 -39 9 -50z m-414 -7 c8 -34 12 -64 10 -66
-5 -6 -35 91 -35 116 0 40 11 18 25 -50z m107 57 c0 -5 -5 -11 -11 -13 -6 -2
-11 4 -11 13 0 9 5 15 11 13 6 -2 11 -8 11 -13z m145 -11 c-9 -9 -28 6 -21 18
4 6 10 6 17 -1 6 -6 8 -13 4 -17z m98 -49 c-21 -78 -30 -80 -15 -4 14 70 19
83 26 76 4 -3 -2 -36 -11 -72z m-40 -4 c-6 -39 -18 -75 -30 -89 -2 -2 -16 4
-32 14 -15 10 -29 19 -31 20 -1 0 0 9 4 18 8 21 23 21 39 -1 11 -15 13 -15 25
6 6 13 12 38 13 57 1 18 5 30 10 27 5 -3 6 -26 2 -52z m-269 15 c0 -19 7 -42
14 -51 13 -16 15 -16 26 0 15 20 44 13 44 -9 0 -17 -60 -50 -70 -39 -13 14
-30 75 -30 104 0 41 15 36 16 -5z m-130 -101 c-7 -18 -26 -20 -26 -2 0 18 24
41 28 27 2 -6 1 -17 -2 -25z m564 31 c0 -2 3 -11 6 -20 4 -12 0 -16 -15 -16
-12 0 -21 2 -21 4 0 2 -3 11 -6 20 -4 12 0 16 15 16 12 0 21 -2 21 -4z m134
-314 c33 -59 80 -145 106 -192 62 -111 101 -190 96 -190 -2 0 -72 81 -155 180
-146 175 -150 180 -140 212 5 18 9 50 9 70 0 58 19 40 84 -80z m-424 69 c0 -9
-20 -37 -20 -29 0 3 -2 13 -5 21 -4 8 0 14 10 14 8 0 15 -3 15 -6z m-145 -53
c5 -35 -4 -75 -45 -207 -28 -91 -53 -167 -57 -170 -3 -3 -4 1 -1 9 3 8 22 104
44 213 21 108 42 197 46 197 4 0 10 -19 13 -42z m46 -2 c8 -17 8 -29 0 -45
-19 -34 -31 -24 -31 24 0 49 14 59 31 21z m199 -21 c0 -25 -2 -45 -5 -45 -3 0
-15 9 -27 20 -20 18 -20 20 -4 45 24 37 36 31 36 -20z m-151 -44 c-10 -32 -10
-74 -1 -194 19 -242 14 -251 -29 -52 -21 99 -38 188 -39 197 0 18 69 102 77
94 2 -2 -1 -22 -8 -45z"/>
<path d="M1532 2790 c0 -19 2 -27 5 -17 2 9 2 25 0 35 -3 9 -5 1 -5 -18z"/>
<path d="M1372 2580 c0 -14 2 -19 5 -12 2 6 2 18 0 25 -3 6 -5 1 -5 -13z"/>
<path d="M1143 2410 c0 -41 2 -58 4 -37 2 20 2 54 0 75 -2 20 -4 3 -4 -38z"/>
<path d="M1384 2285 c0 -55 1 -76 3 -47 2 29 2 74 0 100 -2 26 -3 2 -3 -53z"/>
<path d="M1142 2280 c0 -14 2 -19 5 -12 2 6 2 18 0 25 -3 6 -5 1 -5 -13z"/>
<path d="M1432 840 c0 -14 2 -19 5 -12 2 6 2 18 0 25 -3 6 -5 1 -5 -13z"/>
<path d="M1443 775 c0 -22 2 -30 4 -17 2 12 2 30 0 40 -3 9 -5 -1 -4 -23z"/>
<path d="M1452 685 c0 -16 2 -22 5 -12 2 9 2 23 0 30 -3 6 -5 -1 -5 -18z"/>
<path d="M1462 610 c0 -14 2 -19 5 -12 2 6 2 18 0 25 -3 6 -5 1 -5 -13z"/>
</g>
</svg>
