<?xml version="1.0" standalone="no"?>
<!DOCTYPE svg PUBLIC "-//W3C//DTD SVG 20010904//EN"
 "http://www.w3.org/TR/2001/REC-SVG-20010904/DTD/svg10.dtd">
<svg version="1.0" xmlns="http://www.w3.org/2000/svg"
 width="244.000000pt" height="305.000000pt" viewBox="0 0 244.000000 305.000000"
 preserveAspectRatio="xMidYMid meet">
<metadata>
Created by potrace 1.16, written by Peter Selinger 2001-2019
</metadata>
<g transform="translate(0.000000,305.000000) scale(0.100000,-0.100000)"
fill="#000000" stroke="none">
<path d="M930 2904 c-1 -5 0 -233 0 -507 l1 -498 -41 27 -40 27 0 141 c0 154
21 426 45 576 18 119 18 159 -1 65 -27 -132 -44 -310 -54 -554 -10 -246 -7
-271 24 -271 7 0 23 -11 36 -25 29 -31 34 -31 68 0 30 28 42 31 60 13 19 -19
14 -25 -22 -32 -29 -6 -37 -14 -53 -51 -19 -47 -33 -58 -33 -26 0 24 -42 69
-72 76 -35 9 -77 -11 -88 -40 -18 -48 -13 -55 34 -55 38 0 48 -5 75 -35 35
-41 37 -51 15 -76 -14 -15 -15 -30 -9 -86 4 -37 8 -86 10 -108 1 -22 5 -78 8
-125 8 -103 -9 -65 -19 43 l-7 67 -38 0 c-67 0 -88 -63 -49 -149 24 -51 25
-61 6 -61 -17 0 -55 74 -63 123 -5 34 4 61 37 114 13 20 13 25 -5 42 -35 34
-98 31 -121 -4 -16 -24 -15 -31 6 -115 33 -125 24 -153 -68 -215 -163 -109
-284 -185 -298 -185 -5 0 52 61 126 135 132 133 136 136 175 133 l40 -3 -4 70
c-1 39 -7 88 -11 110 -7 31 -8 19 -8 -55 l0 -95 -29 2 c-25 2 -50 -19 -203
-172 -96 -96 -172 -176 -169 -179 5 -6 15 -3 259 87 162 60 175 67 187 96 7
17 16 31 19 31 10 0 64 -31 64 -37 0 -3 -18 -40 -41 -81 -22 -40 -38 -76 -36
-79 3 -2 37 17 77 42 40 25 74 44 77 42 2 -3 5 -17 6 -33 1 -21 -3 -29 -18
-32 -25 -5 -55 -31 -55 -48 0 -7 -16 -68 -36 -136 -36 -122 -74 -257 -99 -353
-15 -55 -12 -69 9 -39 8 10 38 49 67 85 30 36 96 118 148 183 52 64 95 116 96
116 2 0 1 -8 -1 -18 -12 -54 -55 -335 -52 -344 2 -5 49 86 105 203 94 199 101
217 96 261 -5 44 -4 47 15 43 33 -6 61 -24 78 -50 15 -23 15 -26 -14 -62 l-30
-38 44 -235 c24 -129 51 -273 59 -319 8 -47 17 -86 19 -88 2 -2 9 27 15 64 12
66 83 455 100 541 8 40 6 47 -20 77 -16 18 -29 37 -29 42 0 16 54 61 81 68 34
8 39 0 30 -50 -6 -35 0 -55 45 -155 92 -204 163 -345 164 -325 0 19 -41 270
-56 343 -3 17 -4 32 -2 32 3 0 65 -75 139 -166 74 -92 144 -178 157 -193 26
-30 27 -37 -11 99 -14 47 -41 146 -61 220 -61 223 -62 224 -101 243 -30 14
-33 19 -26 39 5 13 14 22 20 20 7 -1 48 -25 93 -52 44 -28 83 -49 85 -46 3 3
-21 46 -52 97 -54 87 -56 93 -39 106 30 22 52 16 56 -15 3 -23 12 -30 68 -51
61 -22 169 -61 304 -110 33 -11 61 -21 63 -21 3 0 -71 79 -163 176 -161 168
-170 175 -200 169 l-32 -5 5 92 c3 67 2 89 -6 78 -6 -8 -11 -33 -11 -55 0 -22
-6 -65 -14 -94 -13 -52 -13 -53 13 -76 14 -13 50 -40 79 -59 168 -115 242
-169 238 -173 -2 -2 -50 15 -107 38 -57 23 -126 50 -154 61 -61 24 -73 34 -57
50 19 19 14 41 -14 63 -35 28 -43 98 -20 175 21 71 20 113 -2 133 -24 22 -74
21 -102 -1 l-23 -19 27 -45 c35 -61 32 -120 -11 -193 -9 -16 -14 -17 -24 -8
-9 9 -8 19 5 46 32 69 11 147 -40 147 -16 0 -24 6 -25 18 -1 11 -4 8 -8 -8
-10 -36 -23 74 -15 132 5 33 2 47 -10 57 -25 21 -19 56 16 90 26 26 40 31 68
29 33 -3 35 -1 33 26 -5 67 -81 90 -128 40 -14 -15 -25 -35 -25 -45 0 -32 -16
-21 -28 20 -15 48 -34 65 -67 59 -27 -6 -33 10 -13 30 17 17 23 15 61 -18 l34
-30 19 21 c10 12 32 28 48 36 l29 15 -7 196 c-9 256 -14 329 -36 492 -24 176
-49 287 -61 269 -5 -8 -9 -23 -9 -34 0 -17 2 -17 10 -5 6 10 10 -151 10 -462
0 -527 2 -516 -60 -438 -17 22 -27 40 -21 40 8 0 11 75 11 243 0 226 9 340 44
567 3 19 -1 10 -9 -20 -8 -30 -20 -96 -26 -147 -7 -51 -15 -90 -19 -88 -4 2
-10 -131 -14 -297 -7 -279 -13 -347 -29 -321 -4 6 -6 218 -4 472 1 253 -1 461
-4 461 -13 0 -36 -277 -44 -525 -8 -246 -15 -345 -26 -345 -5 0 -9 21 -9 48
-1 26 -7 58 -15 72 -8 15 -14 53 -15 95 0 123 -54 424 -70 394 -16 -30 -52
-239 -60 -354 -5 -66 -14 -136 -20 -155 -5 -19 -10 -54 -10 -78 0 -26 -4 -41
-10 -37 -5 3 -10 23 -10 43 0 20 -3 54 -6 75 -9 53 -30 32 -39 -40 -15 -125
-20 -9 -15 392 3 231 2 426 -1 434 -7 15 -27 -148 -36 -292 -3 -54 -9 -94 -13
-90 -4 4 -12 55 -19 113 -17 139 -59 350 -61 304z m262 -825 c-5 -161 -9 -212
-12 -164 -4 39 -3 133 1 210 5 77 8 153 8 169 1 16 3 27 6 25 2 -3 1 -111 -3
-240z m210 -214 c0 -5 -5 -11 -11 -13 -6 -2 -11 4 -11 13 0 9 5 15 11 13 6 -2
11 -8 11 -13z m-312 -5 c0 -5 -4 -10 -10 -10 -5 0 -10 5 -10 10 0 6 5 10 10
10 6 0 10 -4 10 -10z m30 -121 c-12 -22 -30 -25 -30 -6 0 17 21 38 32 31 4 -3
3 -14 -2 -25z m254 8 c6 -9 7 -19 3 -23 -9 -9 -37 15 -37 33 0 18 20 12 34
-10z m-343 -48 c0 -19 -3 -56 -7 -84 -5 -39 -8 -45 -15 -30 -4 11 -8 34 -8 51
-1 19 -7 34 -16 38 -20 7 -19 36 1 65 14 20 18 21 31 8 8 -7 14 -29 14 -48z
m455 34 c18 -24 17 -48 -1 -63 -8 -7 -15 -23 -15 -36 0 -35 -17 -29 -24 9 -11
49 -9 76 4 92 16 19 20 19 36 -2z m-296 -70 c0 -26 -3 -34 -11 -26 -9 9 -3 63
7 63 2 0 4 -17 4 -37z m-40 -29 c0 -8 11 -19 24 -24 14 -5 32 -26 42 -50 l19
-42 17 42 c10 23 26 44 36 46 9 3 25 19 35 36 18 31 18 31 38 11 16 -16 18
-24 10 -46 -9 -23 -16 -27 -50 -27 -45 0 -57 -12 -74 -71 l-13 -44 -12 46
c-14 56 -26 67 -77 71 -37 3 -40 5 -43 37 -2 20 2 37 9 42 16 9 39 -7 39 -27z
m-190 -64 c13 -27 45 -76 72 -107 49 -58 57 -73 37 -73 -31 0 -149 173 -149
218 0 26 18 9 40 -38z m110 16 c0 -19 9 -51 21 -70 11 -20 19 -41 16 -48 -2
-7 -16 12 -31 42 -26 56 -34 110 -16 110 6 0 10 -15 10 -34z m340 -40 c-11
-41 -49 -101 -50 -79 0 18 22 63 32 63 4 0 8 13 8 29 0 16 3 38 7 48 14 34 16
-15 3 -61z m130 53 c0 -52 -104 -209 -139 -209 -15 0 7 39 58 103 21 27 44 67
51 88 14 42 30 52 30 18z m-370 -133 c-1 -6 -10 0 -20 13 -11 13 -20 28 -20
35 1 6 10 0 20 -13 11 -13 20 -28 20 -35z m170 47 c0 -5 -9 -19 -20 -33 -16
-20 -19 -21 -14 -5 11 31 34 58 34 38z m200 -134 c0 -21 -4 -39 -10 -39 -5 0
-10 21 -10 46 0 27 4 43 10 39 6 -3 10 -24 10 -46z m-580 7 c0 -19 -4 -38 -10
-41 -6 -4 -10 10 -10 34 0 23 5 41 10 41 6 0 10 -15 10 -34z m635 -34 c-4 -26
-10 -41 -12 -34 -3 7 -2 34 2 60 4 26 10 41 12 34 3 -7 2 -34 -2 -60z m-415
22 c0 -16 -16 -19 -25 -4 -8 13 4 32 16 25 5 -4 9 -13 9 -21z m128 -11 c-15
-18 -21 -9 -13 18 6 16 9 18 16 8 4 -8 3 -19 -3 -26z m-263 -63 c-9 -42 3 -88
27 -101 28 -15 39 4 31 58 l-6 43 39 -1 c34 0 36 -2 17 -9 -35 -14 -31 -55 7
-69 20 -6 30 -17 30 -30 0 -24 -18 -37 -32 -23 -5 5 -27 7 -49 5 -46 -7 -65 6
-78 53 -11 39 -4 104 11 104 5 0 7 -13 3 -30z m402 -10 c4 -47 -14 -108 -35
-114 -9 -2 -42 -6 -72 -8 -53 -3 -55 -2 -55 22 0 18 7 26 25 30 30 7 40 48 16
66 -14 10 -13 12 13 16 36 5 42 -6 32 -53 -9 -40 -4 -59 15 -59 26 0 47 47 41
96 -3 30 -1 44 6 41 7 -2 13 -18 14 -37z m140 -22 c-3 -7 -5 -2 -5 12 0 14 2
19 5 13 2 -7 2 -19 0 -25z m83 -36 c0 -11 -9 -27 -20 -37 -22 -20 -26 -9 -8
30 13 29 28 33 28 7z m-660 -52 c0 -5 -5 -10 -11 -10 -5 0 -7 5 -4 10 3 6 8
10 11 10 2 0 4 -4 4 -10z m462 -12 c-7 -7 -12 -8 -12 -2 0 14 12 26 19 19 2
-3 -1 -11 -7 -17z m-612 -14 c12 -31 12 -34 2 -34 -8 0 -32 43 -32 55 0 16 22
1 30 -21z m892 -56 c39 -62 59 -98 55 -98 -11 0 -97 96 -97 108 0 20 27 14 42
-10z m-157 -59 l-7 -59 117 -236 c64 -130 115 -238 113 -240 -3 -3 -23 21
-194 246 l-73 95 9 123 c10 128 14 147 32 136 6 -4 7 -29 3 -65z m-699 14 c7
-46 4 -54 -75 -208 -46 -88 -106 -204 -133 -258 -27 -54 -52 -97 -54 -94 -5 4
98 372 117 418 7 18 23 30 49 38 33 10 41 17 50 49 5 20 10 49 10 63 0 26 7
39 21 39 4 0 11 -21 15 -47z m-116 25 c0 -14 -78 -73 -86 -65 -3 3 9 21 26 41
32 36 60 47 60 24z m471 -117 l19 24 -11 -33 c-16 -46 -27 -48 -44 -8 -20 46
-18 59 2 22 l15 -29 19 24z m267 -76 c2 -27 8 -55 13 -62 10 -11 59 -271 58
-303 -1 -16 -85 236 -118 352 -11 36 -17 69 -15 71 3 3 17 2 32 -2 24 -7 27
-13 30 -56z m-474 11 c6 -39 1 -57 -44 -155 -27 -61 -61 -136 -75 -168 -14
-31 -27 -54 -30 -51 -3 2 8 45 23 94 16 49 44 142 62 207 19 65 39 117 46 117
6 0 15 -20 18 -44z m134 -75 c-9 -14 -9 -52 1 -161 6 -79 10 -144 8 -146 -2
-2 -14 59 -28 136 l-25 139 23 26 c28 30 38 33 21 6z"/>
<path d="M1412 2880 c0 -14 2 -19 5 -12 2 6 2 18 0 25 -3 6 -5 1 -5 -13z"/>
<path d="M911 2834 c0 -11 3 -14 6 -6 3 7 2 16 -1 19 -3 4 -6 -2 -5 -13z"/>
<path d="M1072 2750 c0 -19 2 -27 5 -17 2 9 2 25 0 35 -3 9 -5 1 -5 -18z"/>
<path d="M1433 2745 c0 -22 2 -30 4 -17 2 12 2 30 0 40 -3 9 -5 -1 -4 -23z"/>
<path d="M1083 2645 c0 -22 2 -30 4 -17 2 12 2 30 0 40 -3 9 -5 -1 -4 -23z"/>
<path d="M1442 2630 c0 -19 2 -27 5 -17 2 9 2 25 0 35 -3 9 -5 1 -5 -18z"/>
<path d="M1093 2500 c0 -30 2 -43 4 -27 2 15 2 39 0 55 -2 15 -4 2 -4 -28z"/>
<path d="M1104 2260 c0 -58 1 -81 3 -52 2 28 2 76 0 105 -2 28 -3 5 -3 -53z"/>
</g>
</svg>
