<?xml version="1.0" standalone="no"?>
<!DOCTYPE svg PUBLIC "-//W3C//DTD SVG 20010904//EN"
 "http://www.w3.org/TR/2001/REC-SVG-20010904/DTD/svg10.dtd">
<svg version="1.0" xmlns="http://www.w3.org/2000/svg"
 width="244.000000pt" height="305.000000pt" viewBox="0 0 244.000000 305.000000"
 preserveAspectRatio="xMidYMid meet">
<metadata>
Created by potrace 1.16, written by Peter Selinger 2001-2019
</metadata>
<g transform="translate(0.000000,305.000000) scale(0.100000,-0.100000)"
fill="#000000" stroke="none">
<path d="M901 2853 c-50 -240 -68 -410 -78 -714 l-6 -215 32 -14 c17 -7 40
-23 50 -36 17 -22 20 -22 32 -8 8 9 31 28 52 41 l39 25 -6 176 c-11 322 -30
514 -61 647 -16 64 -15 58 10 -135 25 -190 35 -336 35 -506 l0 -160 -27 -20
c-16 -11 -34 -24 -41 -28 -10 -6 -12 86 -10 498 2 278 0 506 -3 506 -3 0 -12
-26 -18 -57z"/>
<path d="M1382 2890 c0 -14 2 -19 5 -12 2 6 2 18 0 25 -3 6 -5 1 -5 -13z"/>
<path d="M1082 2870 c0 -19 2 -27 5 -17 2 9 2 25 0 35 -3 9 -5 1 -5 -18z"/>
<path d="M1540 2893 c0 -5 -12 -69 -26 -143 -30 -160 -50 -367 -59 -616 -7
-183 -4 -224 19 -224 7 0 23 -11 36 -25 29 -31 51 -32 76 -4 10 12 29 25 42
30 l23 9 -6 197 c-6 206 -38 556 -55 608 -11 33 -12 44 16 -190 8 -66 17 -226
20 -355 l6 -235 -36 -22 c-20 -13 -38 -23 -41 -23 -3 0 -5 215 -4 478 0 309 4
470 10 457 7 -16 8 -12 4 14 -3 18 -5 37 -5 42 0 5 -4 9 -10 9 -5 0 -10 -3
-10 -7z"/>
<path d="M1391 2478 c0 -225 -5 -369 -11 -373 -5 -3 -12 -28 -16 -56 -4 -27
-11 -52 -15 -55 -5 -3 -9 -29 -9 -59 0 -30 -4 -57 -10 -60 -6 -4 -10 21 -10
67 -1 188 -50 591 -80 647 -11 20 -48 -143 -65 -286 -8 -67 -17 -194 -21 -282
-4 -88 -10 -158 -14 -156 -4 2 -10 165 -14 362 -4 197 -13 414 -20 483 l-13
125 -5 -360 c-4 -250 -10 -387 -20 -450 l-15 -90 -4 190 -4 190 -3 -207 -2
-206 30 -25 c17 -14 30 -33 30 -42 0 -14 -6 -12 -31 9 -17 14 -41 26 -53 26
-33 0 -73 -35 -81 -70 -7 -31 -25 -42 -25 -15 0 8 -13 29 -29 47 -24 27 -36
33 -71 33 -43 0 -57 -12 -71 -62 -9 -29 -3 -33 43 -33 30 0 46 -7 69 -29 32
-32 38 -75 13 -85 -24 -9 -12 -85 26 -162 40 -81 40 -137 1 -205 -17 -30 -31
-45 -34 -37 -2 7 0 21 4 30 8 15 2 58 -20 138 -16 59 -101 23 -101 -42 0 -35
36 -120 70 -168 20 -29 26 -50 13 -50 -11 0 -84 104 -105 149 -25 52 -22 100
7 143 14 20 25 44 25 52 0 38 -104 51 -135 16 -20 -22 -17 -64 10 -160 19 -70
11 -116 -28 -152 -27 -24 -29 -30 -19 -52 14 -32 5 -39 -84 -70 -38 -13 -111
-40 -163 -60 -51 -21 -95 -35 -97 -33 -2 2 82 59 186 128 107 70 190 131 190
139 0 8 -7 37 -15 64 -8 27 -15 71 -15 97 0 26 -5 51 -11 55 -8 5 -10 -20 -7
-90 l4 -96 -31 5 c-26 5 -38 -2 -95 -56 -157 -149 -300 -292 -297 -295 2 -2
82 24 178 57 96 34 200 70 232 81 48 17 57 24 57 43 0 13 4 26 9 29 14 9 98
-30 126 -58 31 -31 31 -52 1 -96 -23 -35 -50 -114 -121 -360 -20 -69 -45 -152
-56 -184 -10 -33 -17 -61 -15 -63 10 -10 377 432 377 454 1 10 -2 35 -6 56
l-8 37 36 0 c25 0 37 -5 40 -18 4 -15 5 -15 6 -1 1 20 23 30 41 19 10 -6 2
-48 -35 -196 -53 -208 -67 -254 -59 -184 3 25 7 51 10 58 2 7 0 11 -5 8 -5 -3
-11 -34 -15 -68 -4 -35 -9 -81 -12 -103 l-5 -40 16 35 c9 19 35 80 56 135 22
55 44 109 49 120 32 70 50 132 50 175 0 28 3 50 8 50 9 -1 33 -20 55 -47 18
-20 17 -22 -13 -56 l-31 -36 20 -113 c12 -62 40 -210 63 -328 l42 -215 12 55
c7 30 29 141 49 245 20 105 44 227 52 271 l17 82 -33 41 -33 41 32 30 c47 44
60 40 54 -17 -5 -43 3 -71 82 -272 48 -123 89 -220 91 -215 1 5 -14 128 -35
274 -21 146 -34 268 -29 271 4 3 19 4 33 1 27 -5 30 -22 13 -71 -10 -29 -8
-34 42 -94 29 -34 60 -69 69 -78 8 -9 69 -80 135 -157 65 -78 121 -140 123
-138 1 2 -31 119 -73 261 -41 142 -75 262 -75 269 0 6 -14 39 -32 73 -40 75
-36 85 43 127 61 32 89 30 89 -7 0 -20 13 -28 123 -66 67 -23 158 -55 202 -71
44 -15 91 -31 105 -35 17 -4 -34 52 -154 170 -169 164 -182 175 -210 169 l-31
-5 2 98 c2 116 -13 78 -19 -46 l-3 -76 41 3 c40 3 43 1 175 -127 74 -72 129
-130 124 -131 -10 0 -60 30 -263 157 -122 77 -143 121 -107 223 19 55 19 114
-1 134 -8 9 -31 16 -50 16 -73 0 -93 -35 -53 -91 42 -60 14 -172 -62 -245 -35
-34 -48 -26 -21 13 31 45 60 106 67 144 9 46 -23 89 -66 89 -23 0 -30 -5 -34
-27 -3 -16 -10 -47 -15 -71 -6 -24 -7 -55 -3 -70 l6 -27 -26 31 c-24 28 -27
40 -27 105 0 57 5 81 20 104 11 17 25 54 31 82 11 46 10 55 -4 71 -25 27 -21
53 15 91 27 28 36 32 65 28 40 -7 50 7 36 50 -22 65 -117 58 -150 -11 -9 -20
-19 -36 -23 -36 -3 0 -12 16 -19 36 -22 61 -119 86 -136 34 -7 -24 -25 -27
-25 -5 0 9 12 27 28 40 l27 23 3 219 c3 203 -10 511 -28 663 -4 40 -8 -74 -9
-302z m-106 -333 c3 -93 2 -199 -3 -235 -8 -56 -10 -42 -11 106 0 94 -3 220
-6 280 -3 84 -2 99 5 64 5 -25 12 -121 15 -215z m12 -387 c-2 -18 -4 -4 -4 32
0 36 2 50 4 33 2 -18 2 -48 0 -65z m-255 -18 c-2 -8 1 -32 7 -55 6 -22 12 -72
13 -112 4 -70 3 -72 -15 -55 -26 23 -57 86 -57 115 0 14 -7 30 -15 37 -34 28
-1 93 43 88 18 -2 26 -8 24 -18z m461 -17 c18 -32 18 -32 -2 -50 -13 -10 -21
-30 -21 -48 -1 -16 -6 -39 -13 -51 -19 -32 -57 -78 -61 -73 -3 2 0 27 5 54 5
28 9 66 9 85 0 27 5 95 9 118 1 2 13 2 28 0 18 -2 33 -14 46 -35z m-203 -80
c0 -7 -7 -13 -15 -13 -11 0 -15 11 -15 38 l1 37 14 -25 c8 -14 14 -31 15 -37z
m-150 12 c0 -28 5 -37 23 -44 13 -5 32 -26 41 -46 17 -34 19 -35 33 -18 14 17
14 17 8 -2 -3 -11 -9 -33 -12 -49 -6 -27 -7 -26 -22 25 -16 52 -18 54 -56 59
-38 5 -40 7 -43 44 -4 43 2 66 18 66 5 0 10 -16 10 -35z m198 -18 c3 -43 1
-47 -23 -53 -14 -3 -29 -4 -32 0 -3 3 -13 0 -21 -7 -13 -10 -14 -9 -3 11 6 12
21 22 31 22 17 0 20 7 20 41 0 58 24 46 28 -14z m39 -44 c-3 -10 -5 -4 -5 12
0 17 2 24 5 18 2 -7 2 -21 0 -30z m-444 -9 c11 -23 14 -41 8 -51 -8 -14 -10
-14 -18 3 -14 27 -24 84 -15 84 5 0 16 -16 25 -36z m144 14 c-3 -8 -6 -5 -6 6
-1 11 2 17 5 13 3 -3 4 -12 1 -19z m468 -10 c-8 -36 -29 -65 -38 -51 -7 11 23
83 35 83 6 0 7 -13 3 -32z m-426 -113 c21 -48 21 -49 2 -30 -11 11 -24 36 -27
55 -9 44 -2 38 25 -25z m241 26 c-4 -16 -20 -46 -34 -67 -14 -21 -26 -44 -26
-51 0 -7 -5 -13 -11 -13 -12 0 -14 -4 31 88 36 74 55 94 40 43z m-359 -64 c-8
-8 -11 -5 -11 9 0 27 14 41 18 19 2 -9 -1 -22 -7 -28z m459 17 c0 -14 -4 -23
-10 -19 -5 3 -10 15 -10 26 0 10 5 19 10 19 6 0 10 -12 10 -26z m-66 -71 c-39
-28 -47 -3 -11 35 l22 24 3 -23 c2 -14 -3 -28 -14 -36z m-322 30 c18 -16 25
-43 11 -43 -12 0 -43 33 -43 47 0 17 10 17 32 -4z m459 -53 c-9 -23 -10 -21
-10 16 -1 22 2 44 7 48 11 12 14 -37 3 -64z m-591 18 c0 -10 -4 -18 -10 -18
-5 0 -10 15 -10 33 0 24 3 28 10 17 5 -8 10 -23 10 -32z m230 0 c0 -14 -18 -9
-24 8 -11 28 -6 39 9 20 8 -11 15 -23 15 -28z m-156 -119 c9 -39 15 -73 13
-75 -4 -5 -47 119 -47 136 0 6 4 10 8 10 5 0 16 -32 26 -71z m441 -1 c-9 -29
-19 -59 -21 -67 -2 -8 -6 -12 -9 -10 -4 5 19 106 32 139 4 11 7 12 10 3 3 -7
-3 -37 -12 -65z m-58 -33 c-4 -22 -15 -44 -23 -48 -8 -4 -14 -15 -14 -23 0
-13 -3 -13 -22 0 -12 9 -33 16 -46 16 -34 0 -26 41 10 51 22 6 28 3 33 -12 15
-46 54 5 56 71 1 40 2 41 8 15 4 -16 3 -48 -2 -70z m-313 -23 c16 -16 18 -16
27 1 12 21 55 22 63 1 8 -20 -2 -37 -19 -30 -7 2 -22 -2 -34 -10 -18 -13 -22
-13 -42 7 -16 16 -22 36 -25 83 -3 57 -2 58 5 13 4 -26 15 -55 25 -65z m76
101 c0 -5 -11 -13 -25 -20 -20 -9 -25 -8 -25 2 0 12 14 19 43 24 4 0 7 -2 7
-6z m164 1 c9 -3 16 -16 16 -28 -1 -19 -2 -19 -11 -3 -5 9 -17 17 -24 17 -8 0
-15 5 -15 10 0 11 11 13 34 4z m-414 -106 c0 -4 -5 -10 -11 -14 -15 -9 -29 14
-29 46 l0 25 20 -25 c11 -14 20 -28 20 -32z m645 -18 c-6 -9 -9 -9 -16 1 -10
17 0 34 13 21 6 -6 7 -16 3 -22z m-713 -42 c7 -18 -2 -39 -13 -32 -12 7 -12
44 0 44 5 0 11 -6 13 -12z m778 -55 c0 -26 -12 -30 -29 -9 -10 11 -10 20 -1
37 10 17 14 19 21 8 5 -8 9 -24 9 -36z m-737 -139 l5 -107 -135 -169 c-74 -92
-139 -171 -144 -174 -11 -7 -12 9 0 22 10 10 86 154 177 334 43 85 64 136 64
161 0 36 7 52 20 44 4 -2 10 -53 13 -111z m725 93 c6 -6 13 -24 17 -39 5 -19
19 -31 53 -46 44 -18 48 -23 64 -78 109 -368 114 -383 103 -372 -8 8 -147 261
-222 406 -29 56 -53 111 -53 122 0 22 22 27 38 7z m92 -39 c0 -6 -7 -5 -15 2
-8 7 -15 17 -15 22 0 6 7 5 15 -2 8 -7 15 -17 15 -22z m-460 -54 c0 -14 -14
-33 -21 -28 -15 9 -10 31 6 31 8 0 15 -1 15 -3z m179 -41 c5 -21 30 -121 56
-221 25 -101 45 -185 43 -187 -2 -2 -34 78 -71 178 -58 157 -66 188 -61 225 8
52 20 54 33 5z m-98 -105 c6 -11 -3 -78 -28 -202 -20 -102 -38 -184 -40 -182
-2 2 3 72 12 156 18 178 19 246 5 255 -5 3 -10 13 -10 22 0 13 5 11 26 -8 14
-13 30 -32 35 -41z"/>
<path d="M1372 2805 c0 -16 2 -22 5 -12 2 9 2 23 0 30 -3 6 -5 -1 -5 -18z"/>
<path d="M1072 2790 c0 -14 2 -19 5 -12 2 6 2 18 0 25 -3 6 -5 1 -5 -13z"/>
<path d="M1572 2790 c0 -14 2 -19 5 -12 2 6 2 18 0 25 -3 6 -5 1 -5 -13z"/>
<path d="M1363 2700 c0 -25 2 -35 4 -22 2 12 2 32 0 45 -2 12 -4 2 -4 -23z"/>
<path d="M1063 2660 c0 -25 2 -35 4 -22 2 12 2 32 0 45 -2 12 -4 2 -4 -23z"/>
<path d="M1353 2540 c0 -30 2 -43 4 -27 2 15 2 39 0 55 -2 15 -4 2 -4 -28z"/>
<path d="M1053 2510 c0 -30 2 -43 4 -27 2 15 2 39 0 55 -2 15 -4 2 -4 -28z"/>
<path d="M1344 2195 c0 -104 2 -146 3 -92 2 54 2 139 0 190 -1 51 -3 7 -3 -98z"/>
<path d="M970 805 c-6 -53 -10 -99 -7 -101 2 -3 10 39 17 91 6 53 10 99 7 101
-2 3 -10 -39 -17 -91z"/>
<path d="M952 665 c0 -16 2 -22 5 -12 2 9 2 23 0 30 -3 6 -5 -1 -5 -18z"/>
</g>
</svg>
