<?xml version="1.0" standalone="no"?>
<!DOCTYPE svg PUBLIC "-//W3C//DTD SVG 20010904//EN"
 "http://www.w3.org/TR/2001/REC-SVG-20010904/DTD/svg10.dtd">
<svg version="1.0" xmlns="http://www.w3.org/2000/svg"
 width="244.000000pt" height="305.000000pt" viewBox="0 0 244.000000 305.000000"
 preserveAspectRatio="xMidYMid meet">
<metadata>
Created by potrace 1.16, written by Peter Selinger 2001-2019
</metadata>
<g transform="translate(0.000000,305.000000) scale(0.100000,-0.100000)"
fill="#000000" stroke="none">
<path d="M867 2773 c-49 -253 -61 -371 -71 -695 l-5 -147 33 -20 c17 -11 42
-29 55 -40 l24 -21 32 28 c17 15 40 32 50 37 16 10 18 27 17 160 0 239 -20
461 -58 653 -19 96 -34 176 -34 178 0 2 -4 4 -8 4 -5 0 -21 -62 -35 -137z m29
-871 c-3 -2 -24 11 -47 29 l-42 34 6 185 c7 204 28 416 57 587 11 61 21 115
22 120 2 4 4 -208 5 -471 2 -264 1 -481 -1 -484z"/>
<path d="M1560 2888 c0 -9 -3 -24 -7 -34 -4 -12 -3 -15 5 -10 9 5 12 -108 12
-468 0 -262 -3 -476 -7 -476 -4 0 -24 12 -45 26 l-38 27 0 147 c0 190 14 367
45 558 26 162 29 185 14 137 -34 -114 -64 -384 -75 -686 l-6 -186 30 -12 c17
-7 38 -21 48 -32 17 -19 54 -26 54 -11 0 5 19 19 42 32 l41 23 -7 211 c-3 116
-13 274 -22 351 -17 157 -61 395 -75 410 -6 5 -9 3 -9 -7z"/>
<path d="M1181 2800 c-2 -14 -4 -119 -5 -235 -1 -232 -26 -705 -36 -705 -4 0
-13 35 -20 78 -18 118 -31 172 -40 172 -7 0 -19 -58 -35 -171 -7 -45 -6 -47
29 -68 40 -25 55 -70 39 -118 -10 -28 -16 -29 -68 -21 -16 2 -19 -2 -17 -22 4
-29 29 -60 49 -60 8 0 24 11 37 25 32 35 40 31 32 -15 -5 -31 -3 -42 9 -46 8
-4 15 -14 15 -24 0 -15 -5 -17 -27 -11 -32 9 -51 5 -77 -18 -17 -15 -16 -16
20 -27 35 -10 39 -14 42 -47 5 -53 -12 -47 -84 27 -52 53 -63 71 -69 109 -4
25 -13 48 -21 51 -17 7 -18 35 -1 57 20 26 56 41 95 37 35 -3 37 -2 35 26 -6
88 -134 98 -163 12 -12 -36 -30 -49 -30 -21 0 8 -13 29 -28 46 -52 58 -152 37
-152 -33 0 -25 3 -28 36 -28 19 0 45 -5 57 -11 50 -27 75 -90 41 -103 -14 -5
-16 -16 -11 -58 7 -56 33 -113 78 -167 16 -20 29 -39 29 -44 0 -5 -16 -28 -35
-51 -49 -60 -47 -104 6 -131 63 -33 90 -12 70 56 -8 27 -9 45 -1 58 10 19 11
19 71 -1 60 -20 61 -21 55 -52 -4 -20 -3 -26 3 -17 19 30 20 -25 1 -89 -17
-60 -19 -62 -19 -27 -1 37 -1 37 -41 37 -23 0 -54 -7 -71 -16 -39 -20 -61 -12
-104 39 -29 33 -35 49 -35 82 2 56 -11 148 -23 163 -10 13 -55 16 -73 4 -23
-15 -35 -53 -28 -87 3 -20 29 -72 56 -117 76 -126 88 -153 88 -204 0 -42 -15
-73 -142 -296 -78 -137 -144 -246 -145 -241 -2 4 28 104 65 222 l68 215 49 15
50 16 9 57 c12 77 -1 118 -64 195 -50 62 -80 125 -80 167 0 11 11 39 25 61 13
22 25 48 25 57 0 23 -30 38 -75 38 -78 0 -95 -35 -65 -132 41 -131 26 -163
-118 -248 -263 -157 -290 -172 -277 -150 4 6 68 67 143 136 134 123 138 125
179 122 23 -2 43 0 44 5 1 4 -2 52 -6 107 -5 65 -11 98 -17 93 -7 -4 -9 -38
-4 -95 l6 -90 -30 7 c-28 6 -39 -1 -118 -71 -150 -134 -292 -267 -292 -275 0
-6 83 19 367 115 101 34 112 40 122 67 11 32 14 32 77 9 35 -14 86 -63 101
-98 16 -40 7 -57 -36 -65 -26 -5 -31 -14 -59 -104 -16 -54 -56 -180 -87 -280
-31 -100 -56 -186 -54 -191 2 -6 38 28 79 75 41 47 130 147 198 222 132 147
125 131 105 219 -5 21 -3 22 78 22 98 0 152 -20 157 -59 3 -19 6 -21 13 -10 7
12 9 12 9 -1 0 -8 -14 -28 -30 -45 l-31 -32 15 -74 c19 -90 21 -123 13 -214
l-6 -70 13 65 13 65 7 -40 c50 -261 86 -419 86 -379 0 30 81 399 90 408 5 5
10 30 10 55 1 26 7 78 14 116 13 66 13 71 -5 91 -25 27 -24 76 2 100 18 16 37
19 118 19 105 0 100 4 87 -65 -7 -34 -3 -39 190 -253 179 -199 223 -242 196
-190 -5 10 -28 79 -50 153 -79 266 -114 375 -123 387 -6 6 -24 15 -41 18 -27
6 -30 10 -24 37 10 49 46 89 103 115 60 28 83 25 83 -9 0 -22 19 -30 236 -101
130 -43 238 -77 240 -74 3 2 -17 24 -44 48 -26 24 -110 102 -186 172 -131 122
-140 128 -171 123 l-33 -6 6 90 c3 64 1 90 -7 90 -6 0 -11 -17 -11 -41 0 -23
-8 -73 -17 -111 -14 -61 -15 -71 -2 -79 8 -4 57 -35 109 -68 52 -33 134 -84
182 -113 48 -29 88 -56 88 -60 0 -4 -44 9 -97 28 -54 20 -137 49 -185 66 -88
32 -93 36 -79 73 7 15 2 26 -21 45 -41 35 -47 93 -19 184 26 84 26 108 3 129
-24 21 -90 22 -120 1 -28 -19 -28 -25 3 -70 26 -39 33 -93 16 -138 -6 -13 -37
-61 -70 -105 -58 -79 -81 -137 -81 -208 0 -29 36 -103 164 -333 47 -85 85
-158 84 -162 -3 -7 -23 16 -200 226 -71 85 -97 123 -92 135 4 9 8 55 9 102 3
94 17 137 78 232 83 129 100 200 55 231 -27 19 -62 21 -76 4 -11 -15 -23 -85
-23 -138 0 -59 -7 -77 -48 -119 -40 -42 -67 -51 -89 -29 -7 7 -33 15 -60 18
l-47 5 -12 60 c-6 33 -10 61 -9 63 11 10 111 40 118 36 5 -4 8 -36 6 -73 l-3
-66 33 2 c37 1 82 36 82 63 0 17 -39 80 -66 107 -12 13 -13 18 -2 33 57 78 77
111 91 154 22 63 21 78 -2 105 -25 29 -15 58 30 89 23 16 45 22 69 20 29 -2
35 0 38 18 4 27 -35 71 -68 79 -36 8 -88 -28 -107 -73 l-16 -37 -17 40 c-20
48 -37 63 -76 71 -24 5 -36 0 -63 -25 -22 -21 -31 -38 -29 -53 3 -20 8 -23 45
-20 37 3 47 -1 73 -26 33 -34 38 -57 14 -70 -8 -5 -18 -24 -20 -43 -6 -34 -28
-76 -62 -114 -20 -23 -72 -65 -81 -65 -5 0 -6 34 -2 73 1 4 11 7 24 7 39 0 50
14 28 34 -21 19 -55 24 -83 12 -14 -6 -18 -3 -18 11 0 10 6 25 12 31 7 7 11
28 9 47 -3 42 3 43 33 9 16 -19 28 -25 43 -20 20 6 43 44 43 71 0 18 -2 18
-34 4 -37 -17 -56 3 -56 58 0 35 6 49 26 68 15 14 31 25 37 25 13 0 2 166 -14
206 -15 41 -23 21 -44 -113 -10 -62 -21 -113 -25 -113 -9 0 -20 236 -30 630
l-7 295 -3 -205 c-2 -151 -5 -191 -11 -150 -4 30 -16 82 -27 115 l-19 60 -16
-57 c-9 -31 -18 -64 -19 -75 -1 -10 -5 65 -8 167 -3 102 -7 174 -9 160z m46
-703 c2 -237 0 -444 -3 -459 -3 -18 -10 -25 -20 -21 -17 6 -20 133 -3 150 17
17 25 213 9 213 -10 0 -11 51 -7 243 5 199 12 307 21 307 0 0 2 -195 3 -433z
m-50 -124 c-2 -32 -3 -6 -3 57 0 63 1 89 3 58 2 -32 2 -84 0 -115z m23 -111
c-6 -2 -10 -12 -10 -23 0 -10 -4 -19 -10 -19 -5 0 -10 11 -10 24 0 13 -3 33
-6 43 -6 16 -5 16 9 -2 16 -19 16 -19 18 10 l1 30 9 -30 c5 -19 5 -31 -1 -33z
m-33 -199 c-2 -16 -4 -5 -4 22 0 28 2 40 4 28 2 -13 2 -35 0 -50z m-239 -89
c28 -57 105 -140 154 -165 63 -32 65 -60 4 -39 -75 25 -196 168 -196 232 0 31
15 20 38 -28z m616 -55 c-33 -60 -106 -127 -163 -151 -38 -15 -41 -15 -41 0 0
10 14 23 30 31 47 20 134 110 166 171 26 51 29 53 32 28 2 -17 -8 -48 -24 -79z
m-335 43 c0 -14 -2 -13 -9 3 -5 12 -9 14 -9 6 -1 -8 -4 -12 -7 -8 -9 9 6 28
17 22 5 -4 9 -14 8 -23z m81 5 c0 -7 -4 -6 -10 3 -8 12 -10 10 -11 -10 0 -14
-4 -34 -9 -45 -7 -14 -8 -8 -3 20 3 22 8 43 10 48 6 10 23 -1 23 -16z m-72
-58 c-3 -8 -7 -3 -11 10 -4 17 -3 21 5 13 5 -5 8 -16 6 -23z m19 -36 c-3 -10
-5 -2 -5 17 0 19 2 27 5 18 2 -10 2 -26 0 -35z m-80 -20 c-3 -10 -5 -4 -5 12
0 17 2 24 5 18 2 -7 2 -21 0 -30z m160 5 c-3 -8 -6 -5 -6 6 -1 11 2 17 5 13 3
-3 4 -12 1 -19z m-140 -130 c-2 -18 -4 -4 -4 32 0 36 2 50 4 33 2 -18 2 -48 0
-65z m120 -5 c-2 -16 -4 -5 -4 22 0 28 2 40 4 28 2 -13 2 -35 0 -50z m30 35
c-3 -7 -5 -2 -5 12 0 14 2 19 5 13 2 -7 2 -19 0 -25z m38 -220 c4 -45 3 -48
-4 -18 -17 69 -21 106 -10 88 5 -10 12 -42 14 -70z m-198 30 c-3 -8 -6 -5 -6
6 -1 11 2 17 5 13 3 -3 4 -12 1 -19z m-22 -88 c3 -5 -1 -10 -9 -10 -9 0 -16 5
-16 10 0 6 4 10 9 10 6 0 13 -4 16 -10z m205 1 c0 -5 -7 -11 -15 -15 -15 -5
-20 5 -8 17 9 10 23 9 23 -2z m-53 -83 c-3 -8 -6 -5 -6 6 -1 11 2 17 5 13 3
-3 4 -12 1 -19z m-60 -80 c-3 -8 -6 -5 -6 6 -1 11 2 17 5 13 3 -3 4 -12 1 -19z
m-9 -356 l-2 -263 -28 128 c-15 70 -31 149 -34 175 -8 62 14 236 35 267 l16
24 7 -34 c4 -19 6 -152 6 -297z m-76 192 l-9 -59 -7 48 c-6 33 -5 52 4 62 19
23 21 15 12 -51z"/>
<path d="M1207 1743 c-11 -10 -8 -83 3 -83 6 0 10 20 10 45 0 46 -2 50 -13 38z"/>
<path d="M1212 760 c0 -14 2 -19 5 -12 2 6 2 18 0 25 -3 6 -5 1 -5 -13z"/>
<path d="M1281 2804 c0 -11 3 -14 6 -6 3 7 2 16 -1 19 -3 4 -6 -2 -5 -13z"/>
<path d="M1336 532 c-3 -5 -1 -30 3 -58 l9 -49 1 58 c1 55 -2 66 -13 49z"/>
</g>
</svg>
