<?xml version="1.0" standalone="no"?>
<!DOCTYPE svg PUBLIC "-//W3C//DTD SVG 20010904//EN"
 "http://www.w3.org/TR/2001/REC-SVG-20010904/DTD/svg10.dtd">
<svg version="1.0" xmlns="http://www.w3.org/2000/svg"
 width="244.000000pt" height="305.000000pt" viewBox="0 0 244.000000 305.000000"
 preserveAspectRatio="xMidYMid meet">
<metadata>
Created by potrace 1.16, written by Peter Selinger 2001-2019
</metadata>
<g transform="translate(0.000000,305.000000) scale(0.100000,-0.100000)"
fill="#000000" stroke="none">
<path d="M897 2904 c-11 -19 -56 -257 -72 -385 -20 -156 -32 -599 -17 -599 6
0 30 -15 54 -34 l44 -33 31 26 c17 14 41 33 54 42 l22 15 -12 250 c-6 137 -18
299 -26 359 -15 119 -42 255 -52 264 -3 3 -3 -5 0 -19 31 -130 57 -384 64
-625 l6 -210 -41 -28 c-23 -15 -44 -27 -47 -27 -3 0 -5 217 -4 483 0 278 4
474 9 462 l9 -20 -1 20 c0 33 -13 71 -21 59z"/>
<path d="M1322 2880 c0 -14 2 -19 5 -12 2 6 2 18 0 25 -3 6 -5 1 -5 -13z"/>
<path d="M1542 2803 c-12 -54 -29 -141 -37 -193 -17 -108 -46 -510 -44 -613 2
-68 2 -69 42 -95 22 -15 46 -31 53 -36 8 -7 23 -2 46 15 18 14 42 29 52 33 18
6 19 17 13 244 -6 248 -22 405 -63 609 -13 68 -24 125 -24 128 0 3 -4 5 -8 5
-5 0 -19 -44 -30 -97z m52 -38 c41 -235 66 -511 66 -721 l0 -91 -40 -27 c-22
-14 -42 -26 -45 -26 -3 0 -5 217 -5 482 0 265 2 479 4 477 3 -2 12 -45 20 -94z"/>
<path d="M1141 2810 c-1 -41 -2 -262 -2 -490 0 -246 -4 -407 -9 -395 -5 11 -9
36 -9 55 -1 44 -37 141 -45 120 -14 -38 -26 -110 -26 -161 0 -50 3 -59 25 -73
22 -15 24 -21 19 -57 -5 -29 -3 -43 6 -49 7 -4 10 -15 7 -24 -7 -18 -42 -22
-52 -6 -11 18 -25 11 -25 -13 0 -28 26 -67 46 -67 8 0 23 9 34 20 l20 20 0
-24 c0 -58 -11 -82 -43 -92 -27 -7 -32 -14 -30 -36 1 -16 -2 -28 -7 -28 -17 0
-60 62 -71 103 -7 23 -18 49 -26 58 -21 25 -16 45 19 74 26 22 39 26 70 22 37
-5 38 -4 38 27 0 92 -141 92 -164 0 -7 -26 -26 -33 -26 -9 0 8 -13 29 -28 46
-54 60 -152 37 -152 -36 0 -32 0 -33 43 -28 38 5 47 2 75 -27 35 -35 40 -61
16 -81 -34 -28 -2 -139 65 -223 17 -21 31 -43 31 -47 0 -5 -16 -29 -35 -55
-35 -45 -41 -67 -29 -99 9 -23 62 -48 90 -41 26 7 30 -4 14 -35 -17 -31 -49
-22 -97 25 -40 41 -44 48 -42 93 2 54 -9 129 -23 156 -9 17 -53 23 -74 9 -23
-15 -36 -54 -29 -90 3 -19 31 -75 61 -125 84 -137 84 -139 95 -268 l10 -120
-133 -156 c-73 -85 -139 -162 -145 -171 -7 -9 -15 -14 -17 -11 -2 2 34 74 81
159 198 359 186 325 153 431 -13 44 -37 86 -75 133 -79 99 -93 161 -50 224 45
66 27 95 -56 90 -46 -3 -55 -7 -68 -30 -14 -24 -13 -33 7 -96 12 -37 22 -90
22 -117 0 -41 -5 -52 -33 -79 -26 -24 -32 -36 -26 -51 16 -41 22 -37 -131 -93
-161 -60 -220 -79 -220 -73 0 4 86 61 190 126 130 81 190 124 190 136 0 10 -7
44 -15 76 -8 31 -15 74 -15 95 0 22 -5 38 -11 38 -9 0 -10 -25 -6 -89 l7 -90
-35 6 c-32 5 -40 0 -102 -59 -37 -35 -93 -86 -123 -114 -30 -27 -86 -79 -125
-117 -60 -57 -66 -66 -40 -58 162 51 247 78 346 113 108 37 117 42 123 69 7
36 22 36 84 5 54 -28 86 -59 102 -100 13 -35 2 -51 -40 -59 -22 -5 -31 -14
-38 -39 -6 -18 -40 -130 -77 -248 -37 -118 -73 -234 -80 -257 -7 -24 -10 -43
-7 -42 4 0 77 79 162 175 85 96 174 196 198 222 36 40 41 51 36 77 -15 72 -18
70 79 73 l87 3 1 -33 c1 -32 2 -32 8 -6 4 19 10 25 19 19 10 -6 7 -39 -13
-161 -14 -85 -25 -166 -26 -180 0 -23 -1 -23 -9 -5 -6 15 -8 6 -8 -30 0 -27
-2 -68 -6 -90 -3 -22 10 20 28 93 18 73 36 135 39 139 3 3 8 -5 12 -18 8 -38
105 -513 106 -524 2 -16 26 86 59 255 17 85 40 192 51 237 23 100 25 166 4
183 -17 14 -20 67 -6 89 12 19 14 11 41 -174 31 -211 31 -217 5 -120 -13 50
-22 72 -19 49 3 -22 18 -89 34 -150 26 -100 29 -105 29 -61 1 31 -3 46 -9 42
-7 -4 -9 2 -5 18 4 14 -1 111 -10 217 -8 107 -12 197 -7 202 9 9 160 13 169 4
3 -3 1 -24 -6 -46 -6 -22 -8 -46 -4 -54 22 -39 378 -426 381 -414 3 13 -136
477 -158 525 -5 12 -25 29 -45 37 -40 17 -42 24 -19 68 21 41 48 64 102 88 58
26 70 25 74 -7 3 -27 11 -31 237 -106 129 -42 236 -76 238 -74 5 5 -77 85
-259 250 -104 95 -108 98 -144 91 -36 -7 -36 -6 -30 22 14 74 17 124 8 140
-11 19 -16 -3 -27 -128 l-7 -67 49 2 49 2 137 -124 c76 -68 135 -126 133 -128
-6 -7 -76 31 -234 124 -99 59 -147 93 -157 113 -19 37 -19 96 0 150 19 55 19
104 -1 124 -18 18 -85 21 -115 6 -25 -14 -24 -29 6 -86 37 -70 22 -132 -55
-224 -53 -64 -70 -102 -70 -157 0 -67 17 -95 70 -113 l44 -15 68 -215 c37
-118 67 -219 65 -224 -4 -14 -284 485 -292 520 -8 40 13 91 87 213 49 80 58
103 58 142 0 52 -21 79 -62 79 -34 0 -44 -15 -52 -80 -10 -75 -10 -72 -2 -96
8 -26 -44 -100 -87 -124 -27 -14 -29 -14 -48 9 -25 30 -24 39 4 34 31 -6 91
36 95 68 2 16 -9 41 -33 71 -19 26 -35 51 -35 56 0 5 16 29 35 53 61 76 96
202 60 215 -25 10 -17 48 19 83 28 28 40 32 72 29 33 -2 39 0 42 18 5 35 -34
74 -74 74 -49 0 -71 -14 -96 -63 l-21 -42 -10 30 c-28 88 -122 109 -162 36
l-14 -26 -1 31 c0 23 7 36 24 47 25 17 24 13 11 127 -13 109 -26 128 -42 63
-8 -29 -11 8 -16 162 -21 610 -23 626 -25 146 -1 -250 -4 -452 -7 -450 -6 7
-13 154 -14 314 -1 88 -4 125 -11 115 -8 -12 -10 -9 -10 12 0 25 -18 114 -41
203 -15 56 -23 36 -63 -165 l-13 -65 -7 125 c-17 335 -23 424 -25 350z m106
-322 c-3 -7 -5 -2 -5 12 0 14 2 19 5 13 2 -7 2 -19 0 -25z m27 -138 c9 -63 19
-191 24 -285 6 -147 5 -177 -10 -220 -12 -34 -17 -42 -18 -26 0 14 5 38 11 55
8 22 8 60 2 131 l-10 100 -2 -114 c0 -63 -3 -112 -5 -110 -6 6 -19 595 -13
589 3 -3 13 -57 21 -120z m31 -607 c10 -43 -4 -111 -26 -116 -16 -4 -19 0 -18
31 1 21 3 29 6 20 9 -34 23 -18 23 25 0 31 -3 38 -10 27 -7 -11 -10 -7 -10 17
0 39 25 36 35 -4z m201 2 c27 -27 31 -57 9 -75 -8 -7 -15 -19 -15 -28 0 -21
-40 -99 -62 -119 -17 -15 -18 -15 -18 2 0 25 -29 55 -52 55 -14 0 -18 8 -18
33 0 17 -3 43 -7 56 l-6 24 21 -21 c12 -12 28 -22 36 -22 20 0 46 39 46 67 0
26 -3 27 -29 11 -24 -14 -51 -4 -51 20 0 16 9 19 61 20 52 2 64 -2 85 -23z
m-577 -170 c11 -24 40 -66 65 -92 42 -43 60 -83 37 -83 -15 0 -102 100 -115
133 -35 86 -23 124 13 42z m640 -6 c-17 -47 -61 -110 -106 -149 -31 -28 -39
-31 -41 -17 -2 10 19 42 49 75 29 31 61 77 72 101 22 51 44 44 26 -10z m-422
19 c-3 -8 -6 -5 -6 6 -1 11 2 17 5 13 3 -3 4 -12 1 -19z m46 10 c2 -7 1 -22
-3 -33 -7 -19 -7 -19 -19 3 -12 22 -8 42 9 42 4 0 10 -6 13 -12z m107 -13 c0
-28 -15 -33 -24 -8 -4 9 -1 20 6 25 18 11 18 11 18 -17z m27 3 c-3 -8 -6 -5
-6 6 -1 11 2 17 5 13 3 -3 4 -12 1 -19z m-203 -66 c2 -4 7 -24 11 -46 l8 -38
-27 17 c-29 19 -38 75 -12 75 8 0 17 -3 20 -8z m113 -39 c-3 -10 -5 -2 -5 17
0 19 2 27 5 18 2 -10 2 -26 0 -35z m143 15 c-1 -23 -8 -38 -25 -51 l-25 -18 0
31 c0 39 16 70 35 70 10 0 15 -10 15 -32z m-323 -100 c-3 -8 -6 -5 -6 6 -1 11
2 17 5 13 3 -3 4 -12 1 -19z m30 -10 c-3 -8 -6 -5 -6 6 -1 11 2 17 5 13 3 -3
4 -12 1 -19z m300 -10 c-3 -8 -6 -5 -6 6 -1 11 2 17 5 13 3 -3 4 -12 1 -19z
m-242 -18 c-5 -8 -11 -8 -17 -2 -6 6 -7 16 -3 22 5 8 11 8 17 2 6 -6 7 -16 3
-22z m200 12 c0 -18 -20 -15 -23 4 -3 10 1 15 10 12 7 -3 13 -10 13 -16z
m-305 -58 c0 -8 -4 -14 -10 -14 -15 0 -12 -27 4 -33 10 -4 16 3 19 21 4 25 4
24 6 -5 1 -40 -25 -109 -45 -117 -8 -3 -14 1 -14 8 0 8 -3 23 -6 33 -4 13 -3
15 4 5 7 -11 11 -7 16 13 4 15 5 30 1 33 -3 3 -5 -3 -5 -13 0 -14 -3 -15 -15
-5 -14 12 -21 80 -10 92 10 10 55 -5 55 -18z m449 8 c9 -16 1 -86 -12 -98 -2
-2 -10 14 -17 36 -7 21 -17 37 -21 34 -5 -3 -9 4 -9 15 0 17 11 25 42 30 4 0
12 -7 17 -17z m-55 -127 c6 -28 5 -28 -8 5 -8 19 -14 55 -14 80 l1 45 8 -50
c4 -27 10 -63 13 -80z m-326 30 c0 -16 -2 -15 -8 5 -4 14 -8 36 -8 50 0 22 1
22 8 -5 4 -16 8 -39 8 -50z m268 20 c-6 -30 -12 -52 -14 -50 -7 6 9 105 17
105 4 0 2 -25 -3 -55z m-207 -41 c19 12 20 -12 2 -35 l-19 -24 -11 28 c-15 40
-14 52 4 37 8 -6 19 -9 24 -6z m165 -18 c-7 -29 -25 -34 -44 -11 -16 19 -5 34
20 28 12 -3 20 0 20 8 0 7 2 10 5 7 4 -3 3 -17 -1 -32z m-217 -18 c-3 -7 -5
-2 -5 12 0 14 2 19 5 13 2 -7 2 -19 0 -25z m120 -250 c-3 -8 -6 -5 -6 6 -1 11
2 17 5 13 3 -3 4 -12 1 -19z m-80 -65 c-3 -10 -5 -4 -5 12 0 17 2 24 5 18 2
-7 2 -21 0 -30z m160 5 c-3 -8 -6 -5 -6 6 -1 11 2 17 5 13 3 -3 4 -12 1 -19z
m-31 -6 c12 -10 29 -33 39 -52 17 -33 17 -37 -26 -242 -24 -114 -45 -205 -47
-203 -3 3 1 103 8 224 10 165 10 227 1 251 -6 18 -11 35 -11 36 0 9 17 2 36
-14z"/>
<path d="M1313 2690 c0 -25 2 -35 4 -22 2 12 2 32 0 45 -2 12 -4 2 -4 -23z"/>
<path d="M1123 2500 c0 -25 2 -35 4 -22 2 12 2 32 0 45 -2 12 -4 2 -4 -23z"/>
<path d="M1303 2435 c0 -33 2 -45 4 -27 2 18 2 45 0 60 -2 15 -4 0 -4 -33z"/>
<path d="M1073 795 c0 -22 2 -30 4 -17 2 12 2 30 0 40 -3 9 -5 -1 -4 -23z"/>
<path d="M1062 680 c0 -19 2 -27 5 -17 2 9 2 25 0 35 -3 9 -5 1 -5 -18z"/>
</g>
</svg>
