<?xml version="1.0" standalone="no"?>
<!DOCTYPE svg PUBLIC "-//W3C//DTD SVG 20010904//EN"
 "http://www.w3.org/TR/2001/REC-SVG-20010904/DTD/svg10.dtd">
<svg version="1.0" xmlns="http://www.w3.org/2000/svg"
 width="244.000000pt" height="305.000000pt" viewBox="0 0 244.000000 305.000000"
 preserveAspectRatio="xMidYMid meet">
<metadata>
Created by potrace 1.16, written by Peter Selinger 2001-2019
</metadata>
<g transform="translate(0.000000,305.000000) scale(0.100000,-0.100000)"
fill="#000000" stroke="none">
<path d="M1556 2901 c-4 -6 -2 -19 4 -30 12 -24 14 -971 1 -971 -4 0 -20 9
-34 20 -14 11 -31 20 -38 20 -9 0 -11 51 -6 233 6 236 14 336 43 510 9 54 14
100 12 103 -8 8 -39 -170 -53 -306 -7 -74 -17 -230 -21 -346 -6 -210 -6 -212
15 -219 12 -3 35 -18 52 -32 21 -18 35 -24 44 -17 6 5 31 21 54 37 48 32 47
14 31 332 -12 228 -31 390 -65 554 -25 119 -29 129 -39 112z"/>
<path d="M898 2875 c-3 -14 -1 -28 3 -31 13 -8 11 -944 -2 -944 -6 0 -26 12
-45 28 l-34 27 0 140 c0 217 28 518 66 700 4 17 4 27 0 24 -27 -25 -74 -420
-81 -686 l-5 -213 32 -13 c18 -8 41 -24 52 -35 l18 -21 46 34 c25 19 49 35 55
35 11 0 3 286 -14 500 -10 134 -39 318 -64 415 -19 70 -21 74 -27 40z"/>
<path d="M1291 2824 c0 -11 3 -14 6 -6 3 7 2 16 -1 19 -3 4 -6 -2 -5 -13z"/>
<path d="M1171 2830 c-1 -3 -3 -149 -5 -325 -3 -307 -14 -625 -22 -634 -9 -10
-14 10 -28 100 -8 51 -18 105 -24 119 l-9 24 -12 -22 c-6 -12 -14 -64 -18
-115 l-6 -94 32 -19 c37 -22 47 -52 35 -103 -9 -37 -26 -44 -66 -26 -23 9 -24
-15 -3 -55 19 -37 47 -39 73 -5 27 34 33 32 32 -12 -1 -21 1 -48 5 -60 6 -19
3 -21 -29 -20 -25 1 -43 -6 -58 -21 l-22 -22 32 -6 c24 -5 32 -12 32 -28 0
-46 -15 -47 -57 -3 -57 60 -73 87 -73 124 0 22 -6 36 -20 43 -28 15 -25 37 10
72 26 25 36 29 73 26 37 -3 42 0 45 18 5 36 -38 76 -81 76 -44 0 -65 -15 -84
-59 -7 -18 -15 -33 -18 -33 -2 0 -14 18 -25 40 -35 68 -120 74 -152 10 -21
-42 -11 -56 36 -52 24 2 42 -4 64 -23 40 -34 49 -61 26 -86 -35 -39 -10 -133
60 -225 29 -38 34 -50 25 -66 -6 -10 -16 -21 -23 -24 -8 -3 -22 -23 -31 -45
-18 -39 -18 -40 2 -66 43 -59 132 -48 105 12 -14 31 -16 82 -3 90 5 3 35 -4
65 -16 52 -19 56 -23 56 -53 0 -47 -20 -100 -33 -87 -10 10 -77 -10 -104 -32
-22 -16 -60 2 -94 45 -29 36 -34 50 -36 107 -2 36 -5 77 -7 91 -2 14 -4 31 -5
38 0 7 -12 17 -25 23 -20 10 -30 8 -55 -10 -25 -18 -31 -29 -31 -61 0 -39 15
-72 104 -225 70 -121 72 -114 -96 -407 -78 -136 -143 -246 -146 -244 -3 4 56
203 106 351 26 78 28 80 72 96 41 15 46 21 58 66 19 67 4 116 -59 199 -85 110
-99 170 -54 236 14 20 25 44 25 52 0 22 -32 36 -83 36 -36 0 -48 -5 -61 -25
-21 -32 -20 -50 4 -120 40 -117 21 -152 -135 -246 -109 -65 -241 -140 -260
-148 -13 -5 196 195 253 242 37 31 47 35 68 27 14 -6 30 -10 35 -10 10 0 12
57 3 152 -10 103 -28 73 -20 -33 l7 -88 -33 5 c-35 6 -12 25 -331 -273 -38
-36 -67 -66 -65 -69 6 -6 468 146 469 154 5 52 11 56 51 43 78 -26 138 -86
138 -138 0 -17 -8 -24 -32 -31 -32 -7 -34 -11 -80 -152 -59 -182 -115 -366
-124 -405 -8 -35 10 -16 250 255 133 150 137 156 132 192 -3 20 -9 43 -12 52
-5 14 5 16 79 16 81 0 137 -13 137 -32 0 -4 7 -8 15 -8 10 0 15 -10 15 -29 0
-39 -20 -51 -21 -14 -1 21 -4 17 -11 -17 -5 -25 -8 -76 -6 -115 3 -78 1 -138
-6 -235 -4 -62 -4 -61 11 23 16 91 27 97 38 22 8 -49 76 -389 79 -392 2 -2 22
95 46 215 24 119 50 231 57 247 l14 30 -6 -42 c-3 -24 -1 -44 5 -48 9 -6 8
149 -3 330 -2 33 2 41 23 52 29 15 186 18 195 3 3 -5 -1 -26 -10 -46 -16 -40
-15 -44 31 -94 17 -19 89 -100 160 -180 70 -80 144 -163 165 -184 l38 -40 -25
85 c-35 115 -100 328 -131 421 -22 71 -27 79 -56 86 -79 20 -12 141 93 169 45
13 60 7 60 -22 0 -21 13 -28 128 -66 282 -95 352 -117 352 -109 0 4 -37 40
-82 81 -45 41 -129 118 -187 172 -99 92 -108 98 -138 92 l-33 -6 7 91 c4 65 3
90 -6 90 -6 0 -11 -18 -11 -44 0 -24 -8 -71 -18 -103 -10 -32 -17 -64 -15 -70
4 -12 35 -32 255 -169 71 -43 128 -82 128 -86 0 -4 -35 5 -77 21 -43 16 -124
45 -181 66 l-103 38 6 37 c5 32 3 39 -13 44 -44 14 -54 98 -22 191 11 32 20
69 20 82 0 52 -67 79 -134 53 -33 -12 -33 -29 -1 -76 45 -67 29 -137 -59 -248
-25 -32 -53 -81 -61 -109 -29 -98 -25 -113 91 -326 59 -108 118 -215 131 -238
14 -24 21 -43 16 -42 -4 0 -55 57 -113 126 -58 70 -112 134 -120 143 -8 8 -28
33 -44 54 -27 36 -28 40 -16 81 7 25 9 52 6 62 -18 46 6 123 77 246 80 138 95
198 59 230 -13 12 -32 17 -53 15 -31 -3 -33 -5 -46 -68 -7 -36 -11 -81 -8
-100 5 -30 0 -43 -30 -83 -39 -52 -71 -65 -107 -46 -12 7 -36 15 -52 19 -31 6
-37 17 -49 97 l-7 41 46 16 c26 9 51 13 56 10 6 -4 7 -32 3 -70 -8 -73 3 -86
56 -64 67 28 70 77 8 147 -17 20 -26 39 -22 46 4 7 24 36 45 66 58 83 75 166
41 203 -16 18 -16 21 1 53 20 36 50 53 106 57 31 3 35 6 32 27 -9 85 -121 91
-163 10 -11 -22 -22 -39 -24 -39 -3 0 -11 15 -18 33 -19 43 -40 59 -81 60 -45
1 -86 -35 -86 -75 0 -29 1 -29 45 -23 40 7 47 4 75 -23 35 -36 37 -46 10 -69
-11 -10 -20 -28 -20 -41 0 -13 -7 -37 -16 -54 -18 -35 -92 -118 -105 -118 -5
0 -9 16 -9 35 0 29 4 36 25 41 47 12 20 44 -37 44 l-38 0 6 58 c4 31 8 59 10
61 2 2 14 -9 27 -24 17 -20 29 -26 44 -21 20 6 43 44 43 71 0 17 -26 20 -35 5
-3 -5 -14 -10 -24 -10 -21 0 -31 26 -31 82 0 32 5 41 35 60 31 21 35 28 35 69
0 54 -18 160 -30 172 -8 10 -24 -51 -40 -158 -21 -136 -30 -95 -31 145 -1 129
-5 336 -8 460 l-7 225 -4 -240 c-4 -235 -4 -237 -10 -95 -4 99 -7 123 -9 75
-3 -68 -3 -69 -12 -30 -5 22 -14 44 -19 49 -4 4 -6 14 -3 22 2 7 0 21 -5 31
-13 21 -14 18 -33 -74 -7 -34 -15 -60 -17 -58 -2 2 -8 89 -12 192 -4 103 -8
186 -9 183z m61 -345 c-3 -5 -5 -202 -3 -436 1 -254 -2 -429 -7 -433 -5 -3
-17 3 -26 13 -21 23 -19 132 2 139 11 3 13 -8 8 -54 -5 -52 -4 -55 5 -23 7 25
7 98 1 230 l-10 194 1 -150 c1 -82 1 -140 -1 -127 -2 12 -7 22 -12 22 -5 0
-11 -10 -14 -22 -2 -13 -2 -5 0 17 3 22 9 148 13 280 8 242 27 419 41 380 4
-11 5 -24 2 -30z m-304 -899 c18 -50 74 -116 131 -156 57 -40 71 -76 23 -59
-73 25 -182 160 -182 226 0 34 14 28 28 -11z m642 14 c0 -57 -73 -163 -141
-206 -84 -52 -80 -17 6 56 46 39 73 72 93 112 28 60 42 72 42 38z m-373 -37
c-3 -10 -5 -4 -5 12 0 17 2 24 5 18 2 -7 2 -21 0 -30z m80 -10 c-3 -10 -5 -2
-5 17 0 19 2 27 5 18 2 -10 2 -26 0 -35z m-40 -75 c-2 -13 -4 -5 -4 17 -1 22
1 32 4 23 2 -10 2 -28 0 -40z m-68 -45 c4 -28 4 -70 1 -94 -7 -43 -8 -42 -9
18 -1 68 -8 96 -22 87 -10 -6 -12 17 -3 41 10 26 24 4 33 -52z m152 4 c-6 -6
-12 -40 -12 -76 -1 -61 -2 -63 -9 -26 -8 38 4 138 18 160 4 6 8 -3 10 -19 2
-16 -1 -33 -7 -39z m16 -79 c-3 -8 -6 -5 -6 6 -1 11 2 17 5 13 3 -3 4 -12 1
-19z m20 -80 c-3 -8 -6 -5 -6 6 -1 11 2 17 5 13 3 -3 4 -12 1 -19z m22 -98 c0
-9 -4 -8 -9 5 -5 11 -9 27 -9 35 0 9 4 8 9 -5 5 -11 9 -27 9 -35z m-232 8 c-3
-8 -6 -5 -6 6 -1 11 2 17 5 13 3 -3 4 -12 1 -19z m33 -18 c0 -13 -1 -13 -10 0
-5 8 -10 22 -10 30 0 13 1 13 10 0 5 -8 10 -22 10 -30z m122 13 c-3 -16 -7
-22 -10 -15 -4 13 4 42 11 42 2 0 2 -12 -1 -27z m77 -49 c3 -16 1 -17 -13 -5
-19 16 -21 34 -3 29 6 -3 14 -13 16 -24z m-249 -49 c10 -12 10 -15 -4 -15 -9
0 -16 7 -16 15 0 8 2 15 4 15 2 0 9 -7 16 -15z m230 -4 c0 -5 -7 -11 -15 -15
-15 -5 -20 5 -8 17 9 10 23 9 23 -2z m-122 -162 c-3 -8 -7 -3 -11 10 -4 17 -3
21 5 13 5 -5 8 -16 6 -23z m-10 -350 c-2 -147 -4 -267 -5 -266 0 1 -11 54 -23
117 -11 63 -28 146 -37 183 -13 58 -14 80 -3 150 9 56 19 89 33 105 l21 23 9
-23 c4 -12 7 -142 5 -289z m89 289 c-3 -8 -6 -5 -6 6 -1 11 2 17 5 13 3 -3 4
-12 1 -19z m-180 -105 c-3 -10 -5 -4 -5 12 0 17 2 24 5 18 2 -7 2 -21 0 -30z
m-10 -95 c-3 -8 -6 -5 -6 6 -1 11 2 17 5 13 3 -3 4 -12 1 -19z"/>
<path d="M1213 700 c0 -25 2 -35 4 -22 2 12 2 32 0 45 -2 12 -4 2 -4 -23z"/>
<path d="M1154 2395 c0 -55 1 -76 3 -47 2 29 2 74 0 100 -2 26 -3 2 -3 -53z"/>
<path d="M1080 1275 c0 -8 5 -15 10 -15 6 0 10 7 10 15 0 8 -4 15 -10 15 -5 0
-10 -7 -10 -15z"/>
<path d="M1071 1234 c0 -11 3 -14 6 -6 3 7 2 16 -1 19 -3 4 -6 -2 -5 -13z"/>
<path d="M1357 485 c3 -22 7 -42 9 -44 8 -9 2 45 -6 64 -7 14 -8 8 -3 -20z"/>
</g>
</svg>
