<?xml version="1.0" standalone="no"?>
<!DOCTYPE svg PUBLIC "-//W3C//DTD SVG 20010904//EN"
 "http://www.w3.org/TR/2001/REC-SVG-20010904/DTD/svg10.dtd">
<svg version="1.0" xmlns="http://www.w3.org/2000/svg"
 width="244.000000pt" height="305.000000pt" viewBox="0 0 244.000000 305.000000"
 preserveAspectRatio="xMidYMid meet">
<metadata>
Created by potrace 1.16, written by Peter Selinger 2001-2019
</metadata>
<g transform="translate(0.000000,305.000000) scale(0.100000,-0.100000)"
fill="#000000" stroke="none">
<path d="M991 2895 c-1 -15 -3 -17 -10 -7 -9 15 -18 -26 -46 -208 -16 -107
-31 -319 -40 -581 l-7 -176 29 -18 c15 -10 32 -24 36 -32 14 -23 51 -14 86 22
l34 34 -6 253 c-6 282 -30 552 -57 661 -10 40 -18 63 -19 52z m6 -62 c-3 -10
-5 -4 -5 12 0 17 2 24 5 18 2 -7 2 -21 0 -30z m2 -515 c1 -366 -3 -443 -22
-395 -8 22 -9 700 -1 795 15 166 23 24 23 -400z"/>
<path d="M1489 2889 c0 -13 -3 -18 -6 -11 -11 29 -18 7 -19 -60 0 -40 -10
-158 -22 -263 -19 -168 -21 -177 -16 -80 2 61 6 133 9 160 l4 50 -10 -40 c-6
-24 -11 -170 -12 -355 -1 -285 -2 -297 -7 -125 l-6 190 -3 -140 c-6 -249 -3
-286 25 -316 30 -32 30 -41 0 -33 -50 12 -86 -22 -86 -81 0 -22 4 -25 40 -25
51 0 71 -31 52 -84 -7 -18 -12 -40 -12 -50 0 -31 -51 -126 -86 -161 -36 -36
-48 -75 -26 -82 7 -3 40 22 73 54 32 33 59 54 59 48 0 -22 -83 -107 -118 -122
-28 -12 -33 -18 -29 -39 2 -13 0 -24 -6 -24 -6 0 -8 31 -4 86 6 84 23 131 50
139 47 13 48 14 37 35 -29 55 -96 26 -120 -52 l-12 -42 -26 54 c-34 68 -53 80
-90 60 -36 -21 -34 -42 5 -52 23 -6 34 -17 43 -41 16 -44 26 -187 13 -187 -6
0 -8 11 -5 25 3 20 -1 27 -23 35 -47 18 -91 59 -119 111 -32 57 -29 78 3 26
28 -45 109 -120 124 -114 19 7 9 50 -17 72 -40 34 -85 111 -92 156 -4 24 -13
54 -21 66 -12 19 -12 26 2 52 13 27 21 31 57 31 l41 0 -7 42 c-9 53 -21 68
-58 68 -20 0 -38 -10 -59 -32 -28 -31 -30 -32 -35 -12 -6 24 -42 44 -78 44
-31 0 -66 -40 -66 -76 0 -27 3 -30 38 -32 61 -4 104 -71 66 -103 -26 -21 -11
-101 37 -196 l41 -82 -22 -31 c-26 -37 -40 -27 -40 30 0 20 -7 46 -16 58 -13
19 -21 22 -50 16 -34 -6 -35 -6 -23 20 19 40 -10 66 -72 66 -69 0 -83 -23 -69
-116 13 -90 13 -144 0 -124 -8 14 -18 74 -23 143 -1 15 -6 27 -11 27 -5 0 -7
-35 -3 -85 6 -84 6 -85 -17 -85 -27 0 -42 -16 -227 -235 -97 -116 -98 -118
-55 -100 46 19 49 19 36 -5 -6 -11 -9 -20 -7 -20 5 0 111 48 244 110 81 39
103 53 103 69 0 45 68 6 93 -52 24 -58 22 -73 -11 -85 -30 -10 -36 -30 -92
-277 -10 -44 -30 -125 -44 -180 -14 -55 -26 -104 -26 -110 0 -5 14 6 30 25 17
19 28 28 26 20 -2 -8 -7 -30 -10 -49 l-6 -34 18 24 c10 13 61 93 113 176 52
84 107 174 124 200 23 38 29 60 30 103 l0 55 45 3 c52 3 85 -12 113 -50 l19
-26 -26 -34 -26 -35 31 -199 c16 -109 37 -242 45 -294 19 -127 26 -162 30
-157 4 3 73 428 94 581 10 66 9 70 -16 103 l-26 35 19 26 c27 36 60 52 110 52
50 0 57 -9 45 -54 -8 -28 -6 -41 12 -73 40 -70 248 -393 253 -393 3 0 2 17 -2
38 l-7 37 41 -54 c39 -52 52 -51 32 2 -5 13 -11 37 -14 53 -8 52 -109 449
-119 467 -5 9 -14 17 -21 17 -7 0 -18 4 -25 9 -20 12 4 83 41 121 l31 31 13
-25 c8 -14 18 -26 24 -26 5 0 72 -29 148 -65 75 -36 141 -65 145 -65 5 0 6 7
2 15 -7 19 -11 19 64 -10 35 -14 64 -24 66 -22 1 1 -66 82 -150 179 -141 166
-153 177 -179 172 l-29 -6 8 92 c5 69 4 91 -5 86 -6 -4 -11 -34 -11 -71 0 -72
-6 -95 -25 -95 -23 0 -25 14 -10 76 18 73 19 136 3 152 -17 17 -119 15 -141
-3 -15 -10 -17 -21 -12 -44 6 -28 4 -31 -18 -31 -46 0 -57 -10 -57 -50 0 -74
-19 -90 -45 -39 -16 29 -15 32 7 62 59 79 88 208 53 237 -10 8 -13 20 -9 34
14 43 39 65 82 72 37 6 42 9 42 33 0 15 -9 37 -21 50 -18 19 -28 22 -63 17
-24 -4 -48 -14 -58 -27 -18 -21 -38 -18 -38 7 0 8 8 14 18 14 9 0 30 14 46 30
16 17 34 30 39 30 14 0 -1 497 -18 620 -7 52 -12 73 -10 45 26 -386 29 -635 9
-642 -7 -2 -13 74 -18 249 -4 139 -12 294 -17 343 -6 50 -12 153 -15 229 -2
77 -6 142 -9 144 -3 3 -5 -6 -6 -19z m-376 -1579 c33 -13 37 -18 35 -47 -1
-18 0 -34 2 -35 3 -2 14 -8 25 -14 29 -16 24 -35 -15 -58 -19 -11 -32 -16 -28
-11 11 12 -11 35 -34 35 -11 0 -33 -8 -49 -17 -27 -16 -29 -16 -49 2 -29 26
-25 32 18 31 l37 -1 -3 54 c-3 56 3 85 16 79 4 -2 24 -10 45 -18z m305 -53
l-3 -62 33 0 c34 0 42 -15 16 -36 -13 -10 -20 -10 -44 4 -34 20 -64 22 -82 4
-16 -16 -48 -14 -59 5 -12 18 -6 31 19 43 21 9 27 27 23 68 -2 10 5 17 16 17
10 1 29 7 43 14 14 8 28 12 33 9 4 -2 6 -32 5 -66z m442 -9 c21 -23 179 -205
209 -242 15 -18 15 -18 -4 -8 -62 34 -135 98 -191 168 -35 43 -64 85 -64 92 0
19 27 14 50 -10z m-1120 3 c0 -5 -11 -23 -25 -39 -14 -17 -25 -35 -25 -41 0
-12 -156 -131 -171 -131 -19 0 11 38 81 101 40 35 84 76 98 90 29 28 42 35 42
20z m1014 -107 c11 -29 -6 -42 -33 -25 -12 8 -12 12 -2 25 17 20 27 20 35 0z
m-553 -116 c7 -48 24 -88 38 -88 9 0 28 65 33 109 2 14 10 26 18 29 12 4 13 2
3 -9 -7 -7 -13 -31 -13 -53 0 -42 -33 -111 -49 -102 -17 11 -41 74 -41 108 0
19 -6 40 -12 47 -11 11 -10 13 2 9 9 -3 18 -23 21 -50z m-721 7 c-7 -9 -23
-21 -34 -27 -16 -8 -14 -3 8 21 29 31 51 36 26 6z m468 -47 c-3 -40 -12 -89
-21 -108 -36 -81 -47 -108 -47 -115 0 -7 -79 -166 -86 -174 -35 -38 45 199
113 334 11 22 23 61 27 88 11 72 19 56 14 -25z m972 42 c19 -11 31 -19 25 -19
-5 0 -26 8 -45 19 -19 11 -30 19 -25 19 6 0 26 -8 45 -19z m-261 -127 c57
-218 102 -406 98 -409 -2 -2 -18 28 -35 68 -30 70 -62 183 -83 291 -5 29 -12
60 -15 70 -3 11 0 17 10 17 9 0 19 -15 25 -37z m-162 5 c-3 -8 -6 -5 -6 6 -1
11 2 17 5 13 3 -3 4 -12 1 -19z m147 -303 c20 -30 38 -67 42 -82 l6 -28 -16
25 c-8 14 -21 36 -28 50 -6 14 -17 32 -23 40 -14 17 -27 50 -20 50 2 0 20 -25
39 -55z m-888 -60 c-4 -14 -10 -25 -15 -25 -5 0 -4 13 2 30 13 35 22 32 13 -5z
m17 -40 c-3 -9 -8 -14 -10 -11 -3 3 -2 9 2 15 9 16 15 13 8 -4z"/>
<path d="M1451 2804 c0 -11 3 -14 6 -6 3 7 2 16 -1 19 -3 4 -6 -2 -5 -13z"/>
<path d="M1516 2775 c4 -27 10 -66 15 -85 7 -27 7 -23 3 21 -3 32 -9 70 -14
85 -7 22 -8 17 -4 -21z"/>
<path d="M1442 2740 c0 -19 2 -27 5 -17 2 9 2 25 0 35 -3 9 -5 1 -5 -18z"/>
<path d="M1227 2584 c-27 -100 -47 -283 -54 -497 -3 -114 -7 -206 -9 -204 -2
1 -8 45 -15 97 -6 52 -16 106 -22 120 l-10 25 -8 -29 c-4 -16 -11 -70 -15
-120 -6 -89 -6 -91 20 -113 22 -20 26 -31 26 -77 0 -52 -11 -78 -25 -56 -3 5
-13 10 -21 10 -21 0 -18 -53 5 -81 l18 -23 27 29 26 28 0 -40 c0 -28 5 -43 15
-47 9 -3 24 -25 34 -48 l18 -43 12 36 c6 20 22 45 35 57 19 16 24 28 20 54 -4
33 -4 33 12 11 23 -32 51 -29 69 7 25 49 21 63 -20 56 l-35 -7 0 57 c0 48 4
59 25 76 22 17 25 27 24 81 0 70 -12 154 -23 164 -14 14 -23 -19 -37 -125
l-14 -107 -2 105 c-5 237 -39 565 -63 609 -6 11 -9 10 -13 -5z"/>
</g>
</svg>
