<?xml version="1.0" standalone="no"?>
<!DOCTYPE svg PUBLIC "-//W3C//DTD SVG 20010904//EN"
 "http://www.w3.org/TR/2001/REC-SVG-20010904/DTD/svg10.dtd">
<svg version="1.0" xmlns="http://www.w3.org/2000/svg"
 width="244.000000pt" height="305.000000pt" viewBox="0 0 244.000000 305.000000"
 preserveAspectRatio="xMidYMid meet">
<metadata>
Created by potrace 1.16, written by Peter Selinger 2001-2019
</metadata>
<g transform="translate(0.000000,305.000000) scale(0.100000,-0.100000)"
fill="#000000" stroke="none">
<path d="M938 2904 c-14 -22 -48 -227 -67 -404 -13 -114 -21 -260 -22 -380 -1
-194 -1 -195 23 -209 13 -8 35 -25 49 -38 l26 -24 17 26 c16 24 56 35 56 15 0
-5 0 -13 0 -17 0 -4 -12 -8 -27 -10 -33 -5 -53 -27 -53 -62 -1 -24 -2 -24 -20
10 -43 82 -139 72 -152 -16 -3 -17 4 -21 37 -23 67 -6 123 -76 89 -113 -11
-13 -15 -32 -13 -67 3 -31 -1 -54 -8 -61 -7 -7 -13 -25 -13 -41 0 -23 -5 -30
-29 -35 -16 -3 -35 -13 -42 -21 -16 -20 -20 -91 -6 -121 7 -17 7 -27 0 -34
-17 -17 -43 42 -43 98 0 31 7 59 20 78 11 17 20 38 20 47 0 38 -93 53 -123 20
-22 -24 -21 -50 2 -138 23 -83 15 -148 -19 -176 -18 -15 -21 -24 -16 -52 l6
-33 -92 -38 c-51 -21 -124 -51 -161 -67 -73 -31 -98 -32 -50 -2 15 10 30 21
33 25 3 3 41 30 85 61 178 122 205 142 205 154 0 7 -7 39 -15 71 -8 31 -15 77
-15 100 0 26 -5 43 -11 43 -9 0 -10 -25 -6 -90 l7 -89 -28 5 c-24 5 -41 -9
-163 -133 -149 -150 -210 -216 -205 -220 3 -4 97 29 286 100 130 49 145 58
148 80 3 25 37 44 48 26 3 -5 -19 -50 -50 -99 -31 -50 -51 -90 -45 -90 7 0 28
10 48 22 20 13 48 30 63 38 14 8 40 23 57 33 l31 18 10 -26 c16 -42 12 -54
-24 -69 -32 -13 -34 -18 -71 -152 -41 -153 -80 -293 -94 -339 -15 -48 -23 -95
-17 -95 3 0 27 29 54 64 60 81 182 235 204 260 18 20 18 20 18 0 -1 -10 -11
-80 -24 -154 -13 -74 -22 -136 -21 -138 4 -4 87 151 163 304 56 111 60 124 52
159 -5 22 -6 43 -3 48 16 26 123 -34 123 -70 0 -7 -13 -25 -28 -41 l-28 -29
22 -119 c27 -146 81 -445 90 -497 4 -21 8 -37 9 -35 5 4 102 538 110 604 6 45
4 53 -19 81 -14 17 -26 35 -26 40 0 18 55 61 87 68 39 8 47 -4 34 -52 -10 -34
-6 -45 63 -182 80 -158 149 -293 153 -300 11 -17 7 25 -18 164 -15 87 -27 161
-25 162 2 2 62 -71 135 -163 72 -91 131 -160 131 -153 0 7 -13 61 -29 119 -16
58 -48 175 -71 260 -23 85 -43 160 -45 167 -2 7 -20 19 -39 27 -33 14 -35 16
-26 47 5 17 12 34 14 37 3 2 55 -26 116 -63 61 -37 114 -65 117 -62 2 3 -14
33 -36 67 -23 34 -41 64 -41 68 0 4 -9 18 -20 32 -23 30 -26 50 -6 50 8 0 16
-12 18 -27 3 -24 14 -31 113 -68 233 -89 284 -107 294 -104 5 2 -63 80 -151
172 -149 156 -164 168 -190 163 l-29 -6 7 90 c5 65 4 90 -5 90 -6 0 -11 -18
-11 -44 0 -23 -3 -71 -6 -105 l-7 -62 39 7 39 6 124 -127 c67 -69 121 -129
118 -131 -6 -6 -141 78 -257 160 -94 66 -112 103 -91 193 24 102 25 132 6 153
-24 27 -86 27 -109 1 -17 -19 -17 -21 8 -64 29 -50 33 -92 11 -143 -21 -52
-36 -34 -28 37 5 53 3 62 -17 84 -13 14 -29 25 -37 25 -8 0 -13 12 -13 30 0
19 -7 34 -19 42 -16 10 -18 20 -14 63 4 39 2 54 -11 64 -23 19 -20 36 16 76
26 31 36 36 67 33 30 -2 36 0 39 18 3 24 -30 70 -57 77 -26 7 -79 -21 -87 -46
-6 -19 -7 -19 -16 -3 -15 26 5 63 47 87 l35 21 0 91 c-1 183 -21 504 -39 607
-22 125 -26 96 -6 -40 8 -52 20 -214 26 -359 l13 -264 -35 -28 c-19 -16 -38
-29 -42 -29 -4 0 -7 223 -7 496 1 273 0 498 -3 500 -6 6 -35 -146 -43 -223 -4
-34 -10 -61 -14 -58 -3 2 -13 62 -21 132 l-14 128 -5 -490 c-4 -385 -8 -485
-17 -465 -6 14 -17 67 -24 118 -13 100 -24 104 -35 12 -5 -41 -9 -50 -15 -35
-4 11 -8 38 -8 60 -1 26 -4 35 -10 27 -13 -21 -21 10 -21 83 0 101 -45 393
-63 412 -17 16 -65 -288 -68 -432 -2 -76 -7 -94 -20 -74 -6 10 -9 3 -10 -21 0
-19 -4 -44 -8 -55 -11 -28 -29 135 -36 325 -6 176 -20 356 -37 480 -10 77 -12
82 -19 50 -5 -19 -4 -48 0 -65 10 -34 9 -890 0 -899 -6 -7 -23 463 -23 649 1
76 -2 96 -6 65 -4 -25 -8 -38 -9 -30 -16 107 -39 228 -40 204 -1 -17 7 -71 16
-120 13 -66 17 -142 17 -294 0 -140 2 -173 5 -105 l6 100 8 -155 c11 -202 7
-276 -14 -272 -8 1 -22 -9 -29 -23 -7 -14 -17 -25 -22 -25 -4 0 -8 219 -7 488
1 268 5 476 9 462 6 -20 8 -21 8 -5 0 32 -13 71 -20 59z m339 -676 c-3 -8 -6
-5 -6 6 -1 11 2 17 5 13 3 -3 4 -12 1 -19z m14 -198 c0 -89 -3 -165 -6 -168
-3 -3 -5 73 -5 168 0 95 2 171 5 168 3 -3 5 -78 6 -168z m198 -144 c9 -11 6
-15 -15 -20 -31 -8 -37 -5 -28 18 8 20 28 21 43 2z m-399 -16 c0 -5 -7 -10
-15 -10 -8 0 -15 5 -15 10 0 6 7 10 15 10 8 0 15 -4 15 -10z m320 0 c0 -5 -4
-10 -10 -10 -5 0 -10 5 -10 10 0 6 5 10 10 10 6 0 10 -4 10 -10z m-290 -130
c-15 -28 -27 -32 -34 -13 -5 11 -1 22 10 30 23 16 37 7 24 -17z m251 20 c22
-12 26 -40 4 -40 -12 0 -35 28 -35 44 0 9 9 7 31 -4z m-357 -36 c8 -20 8 -59
0 -67 -7 -7 -44 35 -44 50 0 11 21 33 31 33 4 0 10 -7 13 -16z m475 -6 c9 -25
-6 -58 -26 -58 -14 0 -17 37 -7 64 9 23 23 20 33 -6z m-189 -60 c0 -32 -15
-19 -16 13 -1 20 2 26 7 17 5 -7 9 -21 9 -30z m80 -47 l0 -33 -43 6 c-51 8
-59 1 -86 -69 l-18 -46 -12 43 c-18 61 -27 68 -82 68 l-49 0 0 34 c0 22 6 36
16 40 20 7 54 -10 54 -28 0 -8 9 -16 20 -19 11 -3 27 -21 35 -41 9 -20 17 -36
20 -36 3 0 11 16 20 36 8 20 24 38 35 41 11 3 20 10 20 16 0 6 7 18 16 28 24
27 54 5 54 -40z m-301 -89 c7 -13 10 -28 8 -35 -7 -21 -37 51 -42 100 l-5 48
13 -45 c8 -25 19 -55 26 -68z m331 3 c-12 -25 -26 -45 -31 -45 -5 0 -3 13 5
28 8 16 21 51 28 78 13 47 13 48 16 16 2 -19 -6 -52 -18 -77z m-445 50 c9 -25
27 -58 40 -73 27 -33 58 -92 52 -99 -16 -15 -111 131 -121 185 -8 47 9 39 29
-13z m569 7 c-11 -44 -50 -115 -85 -152 -48 -52 -48 -20 0 50 23 33 48 78 57
100 18 44 38 45 28 2z m-204 -96 c-24 -41 -30 -44 -30 -18 0 19 39 67 47 58 3
-3 -5 -21 -17 -40z m-176 12 c18 -25 21 -53 6 -43 -16 10 -42 65 -31 65 6 0
17 -10 25 -22z m403 -96 c3 -23 3 -52 -1 -67 -12 -47 -26 -15 -26 58 0 78 17
83 27 9z m-615 -26 c-2 -31 -8 -56 -13 -56 -10 0 -12 113 -2 123 13 13 18 -11
15 -67z m235 -12 c-9 -9 -28 6 -21 18 4 6 10 6 17 -1 6 -6 8 -13 4 -17z m140
18 c9 -6 7 -11 -7 -20 -17 -11 -20 -10 -20 8 0 21 7 25 27 12z m139 -114 c-9
-90 -16 -98 -86 -99 -33 -1 -66 -2 -72 -3 -7 -1 -14 9 -16 21 -2 15 5 25 25
35 21 10 27 20 25 38 -1 13 -8 28 -15 32 -8 5 -5 8 10 8 12 0 29 3 39 7 15 6
17 1 10 -51 -7 -65 9 -83 45 -50 16 15 20 29 19 69 -3 64 -2 68 11 59 8 -4 9
-27 5 -66z m-423 15 c-4 -39 -1 -52 17 -71 34 -36 45 -23 42 43 -4 51 -2 57
13 51 9 -3 23 -6 31 -6 11 0 12 -4 4 -19 -16 -32 -12 -50 15 -57 25 -6 41 -36
30 -54 -4 -6 -16 -8 -28 -4 -12 4 -40 6 -62 6 -22 -1 -45 1 -51 5 -24 18 -45
128 -27 146 15 16 20 4 16 -40z m-203 -73 c0 -11 -6 -9 -21 7 -15 14 -19 27
-15 40 7 16 9 16 21 -7 8 -14 14 -32 15 -40z m820 6 c0 -3 -4 -8 -10 -11 -5
-3 -10 -1 -10 4 0 6 5 11 10 11 6 0 10 -2 10 -4z m-650 -59 c0 -5 -4 -5 -10
-2 -5 3 -10 14 -10 23 0 15 2 15 10 2 5 -8 10 -19 10 -23z m482 1 c-8 -8 -9
-4 -5 13 4 13 8 18 11 10 2 -7 -1 -18 -6 -23z m-597 -39 c25 -48 33 -123 24
-217 -8 -79 -13 -92 -51 -147 -52 -74 -199 -265 -204 -265 -3 0 13 35 34 78
70 139 169 346 182 380 12 31 10 92 -5 170 -8 40 0 41 20 1z m719 -34 c-4 -92
8 -119 56 -134 35 -10 41 -17 50 -54 6 -23 34 -120 61 -216 27 -96 47 -176 45
-178 -2 -2 -46 80 -98 184 -53 103 -109 216 -127 249 -37 73 -41 133 -11 182
11 17 21 32 23 32 2 0 2 -29 1 -65z m-861 39 c9 -9 -11 -34 -63 -80 -42 -37
-44 -37 -26 -9 57 93 71 107 89 89z m1007 -22 c0 -4 23 -31 50 -60 28 -29 50
-54 50 -57 0 -5 -88 49 -143 88 -27 18 -27 20 -11 38 13 14 21 16 35 8 11 -5
19 -13 19 -17z m-495 -161 c-8 -17 -18 -31 -20 -31 -7 0 -35 58 -35 72 1 7 8
1 16 -14 19 -36 23 -35 37 5 7 21 12 26 15 15 2 -9 -4 -30 -13 -47z m-325
-227 c-69 -205 -77 -210 -40 -26 13 67 26 101 45 124 14 17 24 37 21 44 -3 7
-8 28 -11 48 -7 32 -5 35 22 38 15 2 29 -2 31 -8 1 -6 -29 -105 -68 -220z
m595 61 c26 -82 56 -176 66 -207 35 -105 19 -84 -66 89 -83 169 -92 197 -79
262 11 51 26 23 79 -144z m-210 -89 c-10 -58 -20 -104 -22 -102 -2 2 1 49 7
105 8 76 8 106 -1 123 l-11 23 22 -22 23 -22 -18 -105z"/>
<path d="M1421 2894 c0 -11 3 -14 6 -6 3 7 2 16 -1 19 -3 4 -6 -2 -5 -13z"/>
<path d="M1411 2824 c0 -11 3 -14 6 -6 3 7 2 16 -1 19 -3 4 -6 -2 -5 -13z"/>
<path d="M1552 2760 c0 -19 2 -27 5 -17 2 9 2 25 0 35 -3 9 -5 1 -5 -18z"/>
<path d="M1023 2735 c0 -22 2 -30 4 -17 2 12 2 30 0 40 -3 9 -5 -1 -4 -23z"/>
<path d="M1402 2730 c0 -19 2 -27 5 -17 2 9 2 25 0 35 -3 9 -5 1 -5 -18z"/>
<path d="M1393 2650 c0 -25 2 -35 4 -22 2 12 2 32 0 45 -2 12 -4 2 -4 -23z"/>
<path d="M1383 2490 c0 -30 2 -43 4 -27 2 15 2 39 0 55 -2 15 -4 2 -4 -28z"/>
<path d="M1374 2265 c0 -71 1 -99 3 -62 2 37 2 96 0 130 -2 34 -3 4 -3 -68z"/>
</g>
</svg>
