<?xml version="1.0" standalone="no"?>
<!DOCTYPE svg PUBLIC "-//W3C//DTD SVG 20010904//EN"
 "http://www.w3.org/TR/2001/REC-SVG-20010904/DTD/svg10.dtd">
<svg version="1.0" xmlns="http://www.w3.org/2000/svg"
 width="244.000000pt" height="305.000000pt" viewBox="0 0 244.000000 305.000000"
 preserveAspectRatio="xMidYMid meet">
<metadata>
Created by potrace 1.16, written by Peter Selinger 2001-2019
</metadata>
<g transform="translate(0.000000,305.000000) scale(0.100000,-0.100000)"
fill="#000000" stroke="none">
<path d="M1068 2493 c2 -235 1 -461 -3 -502 -6 -66 -8 -72 -22 -58 -13 13 -16
55 -17 274 0 142 -3 231 -7 198 -5 -50 -6 -53 -7 -18 -3 62 -32 279 -47 348
-18 83 -18 46 0 -58 23 -134 45 -407 45 -573 l0 -151 -41 -32 -40 -33 3 506
c2 278 0 506 -3 506 -10 0 -39 -148 -59 -306 -11 -82 -25 -266 -32 -408 -11
-248 -11 -260 7 -270 10 -6 33 -24 51 -39 l34 -29 43 36 c44 36 56 36 76 -1
10 -21 9 -21 -22 -16 -28 4 -37 1 -56 -23 -12 -15 -24 -38 -27 -51 -8 -29 -21
-30 -29 0 -13 41 -46 67 -86 67 -41 0 -66 -18 -75 -56 -8 -32 -2 -38 48 -39
31 -1 46 -7 64 -29 24 -27 33 -76 14 -76 -15 0 -12 -75 6 -144 10 -37 17 -105
18 -173 1 -109 -6 -142 -24 -113 -6 9 -5 19 0 24 12 12 11 138 -1 181 -6 24
-7 18 -6 -27 1 -31 -1 -54 -5 -51 -5 2 -8 19 -8 37 0 37 -15 56 -45 56 -57 0
-71 -79 -30 -165 13 -27 21 -54 17 -59 -8 -15 -58 50 -71 93 -17 58 -14 88 16
138 l27 46 -23 18 c-29 23 -79 24 -110 3 -19 -14 -22 -23 -18 -58 3 -22 10
-59 16 -81 6 -22 11 -64 11 -93 0 -44 -4 -57 -26 -77 -21 -19 -24 -29 -19 -57
l6 -33 -162 -63 c-89 -35 -163 -61 -165 -59 -4 4 126 95 279 197 64 42 68 47
62 75 -3 17 -10 67 -17 113 -15 112 -33 107 -24 -8 l7 -90 -31 6 c-29 6 -39
-2 -200 -167 -93 -95 -168 -174 -167 -176 3 -2 88 27 287 98 47 17 100 35 118
40 24 8 32 15 32 34 0 13 5 27 11 30 12 8 99 -23 99 -35 0 -4 -21 -47 -46 -94
-25 -47 -43 -86 -39 -86 3 0 30 18 60 40 30 22 64 40 75 40 25 0 22 -19 -3
-32 -9 -4 -25 -12 -34 -17 -12 -5 -30 -50 -54 -137 -20 -71 -55 -194 -77 -274
-23 -79 -39 -146 -36 -149 2 -2 10 2 17 11 6 9 81 101 166 204 85 104 156 191
158 193 11 15 7 -28 -23 -214 -18 -115 -31 -212 -29 -214 3 -2 9 8 14 22 5 14
50 114 99 224 80 178 88 203 84 246 -4 44 -2 47 19 47 23 0 79 -45 79 -64 0
-5 -12 -23 -27 -38 l-27 -28 13 -88 c7 -48 29 -177 51 -287 21 -110 41 -220
45 -245 5 -25 9 -40 11 -35 3 8 101 519 119 617 3 21 -3 36 -25 62 -17 18 -30
38 -30 43 0 15 53 61 75 65 18 3 20 -3 21 -52 0 -45 12 -80 62 -190 92 -205
133 -288 127 -260 -18 96 -56 382 -51 387 4 4 13 -2 20 -13 19 -27 261 -320
309 -374 21 -25 37 -38 34 -30 -2 9 -17 60 -32 115 -39 146 -124 435 -130 445
-3 5 -19 11 -35 15 -21 5 -30 13 -30 26 0 26 18 24 70 -11 24 -16 46 -27 48
-25 3 2 -12 34 -32 70 -20 36 -36 68 -36 70 0 10 103 56 115 51 8 -3 15 -17
17 -32 3 -24 12 -30 83 -55 44 -15 143 -50 220 -78 77 -27 141 -48 143 -46 2
2 -77 83 -175 180 -166 164 -180 176 -208 171 l-30 -6 2 97 c1 65 -1 88 -7 68
-4 -16 -8 -67 -9 -113 l-1 -82 38 6 c37 6 39 5 177 -130 76 -74 137 -137 134
-140 -2 -2 -84 47 -183 108 -227 143 -240 163 -196 304 30 95 13 132 -60 132
-40 0 -70 -16 -70 -37 0 -8 10 -31 22 -51 37 -61 16 -174 -42 -227 -32 -29
-34 -10 -6 48 15 29 29 70 32 89 8 47 -18 88 -55 88 -36 0 -51 -17 -51 -60 -1
-19 -7 -48 -15 -65 l-13 -30 -3 50 c-2 45 -3 46 -6 13 -2 -21 -8 -38 -14 -38
-20 0 0 134 35 225 20 52 20 104 1 111 -25 10 -17 53 14 85 23 23 39 29 70 29
39 0 41 2 41 29 0 40 -44 75 -84 67 -39 -8 -63 -31 -77 -75 l-12 -36 -18 42
c-21 50 -59 78 -94 69 -28 -7 -31 0 -11 27 19 24 49 21 84 -8 17 -14 33 -25
37 -25 4 0 23 14 42 30 18 17 38 30 43 30 6 0 9 40 8 98 -2 95 -2 95 -5 20 -4
-76 -4 -77 -42 -107 -22 -17 -42 -31 -45 -31 -3 0 -6 214 -6 475 0 261 4 475
8 475 5 0 6 14 4 32 -5 31 -5 31 -14 9 -25 -68 -67 -338 -75 -489 -3 -56 -8
-100 -11 -98 -2 3 -8 76 -13 163 -9 181 -28 382 -38 400 -3 6 -5 -174 -4 -400
0 -227 -1 -403 -4 -392 -7 28 -22 43 -25 25 -1 -8 -5 50 -8 130 l-6 145 -3
-195 c-2 -182 -15 -341 -20 -250 -1 19 -6 73 -11 120 -5 47 -14 135 -20 195
-10 112 -46 319 -60 344 -6 11 -9 10 -13 -5 -19 -65 -49 -249 -58 -350 -5 -65
-15 -162 -23 -214 -12 -90 -13 -92 -19 -50 -3 25 -9 149 -12 275 -5 220 -29
574 -43 643 -4 18 -6 -160 -4 -395z m219 -458 c0 -162 -1 -170 -7 -80 -11 140
-10 389 0 315 5 -30 8 -136 7 -235z m-201 -192 c-10 -10 -19 5 -10 18 6 11 8
11 12 0 2 -7 1 -15 -2 -18z m304 11 c0 -8 -5 -12 -10 -9 -6 4 -8 11 -5 16 9
14 15 11 15 -7z m-93 -81 c-3 -10 -5 -2 -5 17 0 19 2 27 5 18 2 -10 2 -26 0
-35z m-261 -59 c8 -26 8 -43 1 -52 -5 -6 -7 -38 -5 -69 5 -55 4 -56 -12 -35
-10 12 -21 42 -24 67 -4 25 -11 45 -17 45 -15 0 -10 43 7 68 21 31 36 23 50
-24z m83 25 c-7 -14 -14 -18 -21 -11 -13 13 -2 32 18 32 12 0 13 -4 3 -21z
m250 -5 c3 -16 1 -17 -13 -5 -19 16 -21 34 -3 29 6 -3 14 -13 16 -24z m118 4
c26 -24 30 -53 10 -65 -8 -4 -17 -24 -21 -43 -8 -43 -28 -90 -38 -90 -17 0
-14 186 3 206 15 18 19 18 46 -8z m-188 -95 c1 -7 -3 -13 -9 -13 -5 0 -10 17
-9 38 1 33 2 34 9 12 4 -14 8 -31 9 -37z m-145 -7 c3 -13 15 -26 26 -29 11 -3
27 -21 35 -41 9 -20 17 -36 20 -36 3 0 11 16 19 35 9 20 26 39 40 44 16 7 27
21 31 41 6 25 9 29 21 19 8 -6 14 -29 14 -51 0 -38 -1 -39 -34 -36 -44 3 -61
-12 -77 -69 l-13 -47 -15 46 c-23 65 -36 78 -76 73 -30 -4 -34 -2 -40 24 -13
61 34 86 49 27z m-200 -59 c9 -24 43 -73 76 -110 53 -60 70 -87 56 -87 -18 0
-39 17 -51 41 -8 15 -24 30 -35 34 -13 4 -20 15 -20 31 0 14 -11 35 -25 48
-26 24 -46 86 -28 86 6 0 18 -19 27 -43z m126 -2 c0 -17 -2 -17 -10 -5 -5 8
-10 24 -10 35 0 17 2 17 10 5 5 -8 10 -24 10 -35z m317 -2 c-3 -10 -5 -2 -5
17 0 19 2 27 5 18 2 -10 2 -26 0 -35z m149 15 c-7 -35 -24 -60 -36 -53 -10 6
21 85 34 85 5 0 6 -14 2 -32z m-441 -89 c9 -17 14 -36 12 -42 -4 -12 -37 44
-37 63 0 18 9 11 25 -21z m274 -7 c-6 -18 -15 -32 -20 -32 -12 0 -11 6 7 41
19 39 28 33 13 -9z m107 -28 c-3 -8 -15 -14 -26 -14 -12 0 -20 -7 -20 -17 0
-20 -28 -53 -47 -53 -24 0 -14 21 40 77 38 41 53 51 55 39 2 -10 1 -24 -2 -32z
m-529 -86 c-3 -8 -6 -5 -6 6 -1 11 2 17 5 13 3 -3 4 -12 1 -19z m223 -4 c0 -8
-4 -14 -9 -14 -11 0 -22 26 -14 34 9 9 23 -3 23 -20z m121 -7 c-8 -8 -11 -7
-11 4 0 9 3 19 7 23 4 4 9 2 11 -4 3 -7 -1 -17 -7 -23z m-248 -85 c-4 -37 -1
-52 14 -71 30 -37 47 -19 39 40 l-7 49 32 0 c31 0 32 -1 15 -19 -23 -26 -17
-54 14 -61 18 -4 25 -13 25 -30 0 -23 -4 -25 -42 -24 -75 3 -90 10 -100 51
-11 42 -6 113 8 113 4 0 6 -21 2 -48z m377 9 c0 -59 -11 -101 -29 -110 -9 -5
-38 -10 -66 -12 -48 -4 -50 -3 -50 21 0 18 6 26 22 28 33 5 41 42 13 64 l-22
18 31 0 c31 0 31 0 30 -50 -2 -56 1 -63 24 -54 21 8 30 38 28 92 0 23 3 42 9
42 5 0 10 -17 10 -39z m150 -77 c0 -8 -4 -12 -10 -9 -5 3 -10 13 -10 21 0 8 5
12 10 9 6 -3 10 -13 10 -21z m-746 -20 c11 -28 6 -38 -9 -18 -8 10 -15 22 -15
27 0 13 18 7 24 -9z m186 -14 c0 -5 -2 -10 -4 -10 -3 0 -8 5 -11 10 -3 6 -1
10 4 10 6 0 11 -4 11 -10z m601 -73 c-18 -18 -25 1 -11 30 l14 28 4 -24 c2
-13 -1 -28 -7 -34z m-851 -25 c0 -18 -56 -80 -64 -71 -6 6 45 89 55 89 5 0 9
-8 9 -18z m125 -19 c3 -15 6 -58 6 -96 0 -37 4 -78 9 -91 9 -24 10 -22 -212
-304 -27 -35 -51 -62 -54 -60 -2 3 48 107 111 232 108 214 115 231 115 287 0
62 13 79 25 32z m727 -37 c8 -57 11 -61 62 -79 45 -15 37 3 120 -280 25 -86
46 -163 46 -170 0 -14 -25 28 -107 183 -33 63 -83 158 -112 211 -41 77 -51
105 -51 143 0 40 3 47 17 44 13 -2 20 -17 25 -52z m107 9 c11 -19 17 -35 13
-35 -14 0 -63 56 -55 63 12 13 21 7 42 -28z m-483 -80 c10 14 14 15 14 4 0 -8
-7 -22 -15 -32 -13 -18 -14 -18 -24 2 -15 26 -14 52 1 27 11 -19 11 -19 24 -1z
m-296 -46 c0 -17 -4 -28 -10 -24 -5 3 -10 17 -10 31 0 13 5 24 10 24 6 0 10
-14 10 -31z m80 25 c0 -4 -13 -50 -29 -103 -16 -53 -43 -149 -62 -213 -18 -65
-34 -116 -36 -115 -5 6 62 411 70 425 8 12 57 17 57 6z m429 -61 c56 -192 92
-326 89 -335 -6 -17 -138 308 -138 340 0 36 9 62 21 62 5 0 17 -30 28 -67z
m85 52 c3 -8 0 -27 -7 -42 l-12 -26 -6 24 c-11 40 -10 59 5 59 8 0 16 -7 20
-15z m-214 -152 c0 -34 -52 -314 -58 -309 -2 3 4 75 13 161 9 86 15 164 12
173 -3 9 -8 26 -12 37 -5 15 -1 14 19 -8 14 -15 26 -40 26 -54z"/>
<path d="M1052 2815 c0 -16 2 -22 5 -12 2 9 2 23 0 30 -3 6 -5 -1 -5 -18z"/>
<path d="M1560 2817 c0 -4 9 -62 19 -129 19 -115 38 -313 44 -453 2 -42 4 -33
5 30 1 50 -3 142 -9 205 -10 113 -46 340 -55 349 -2 2 -4 1 -4 -2z"/>
<path d="M1382 2760 c0 -14 2 -19 5 -12 2 6 2 18 0 25 -3 6 -5 1 -5 -13z"/>
<path d="M1043 2695 c0 -22 2 -30 4 -17 2 12 2 30 0 40 -3 9 -5 -1 -4 -23z"/>
<path d="M1373 2635 c0 -27 2 -38 4 -22 2 15 2 37 0 50 -2 12 -4 0 -4 -28z"/>
<path d="M1033 2570 c0 -30 2 -43 4 -27 2 15 2 39 0 55 -2 15 -4 2 -4 -28z"/>
<path d="M1363 2495 c0 -38 2 -53 4 -32 2 20 2 52 0 70 -2 17 -4 1 -4 -38z"/>
<path d="M1622 2150 c0 -14 2 -19 5 -12 2 6 2 18 0 25 -3 6 -5 1 -5 -13z"/>
</g>
</svg>
