<?xml version="1.0" standalone="no"?>
<!DOCTYPE svg PUBLIC "-//W3C//DTD SVG 20010904//EN"
 "http://www.w3.org/TR/2001/REC-SVG-20010904/DTD/svg10.dtd">
<svg version="1.0" xmlns="http://www.w3.org/2000/svg"
 width="244.000000pt" height="305.000000pt" viewBox="0 0 244.000000 305.000000"
 preserveAspectRatio="xMidYMid meet">
<metadata>
Created by potrace 1.16, written by Peter Selinger 2001-2019
</metadata>
<g transform="translate(0.000000,305.000000) scale(0.100000,-0.100000)"
fill="#000000" stroke="none">
<path d="M940 2900 c-2 -8 -2 -24 -1 -35 6 -57 9 -955 3 -959 -4 -2 -23 10
-42 27 l-36 32 7 235 c7 217 21 381 49 554 14 90 6 97 -10 9 -28 -156 -40
-293 -51 -558 -8 -223 -8 -280 2 -284 7 -2 28 -18 47 -36 25 -22 33 -37 29
-49 -6 -16 -10 -15 -38 8 -49 42 -98 31 -118 -25 -14 -40 -8 -49 35 -49 27 0
42 -8 65 -32 33 -36 37 -59 13 -79 -13 -11 -15 -24 -10 -66 5 -42 3 -53 -8
-53 -7 0 -19 -15 -26 -32 -7 -18 -26 -47 -43 -65 -26 -28 -29 -36 -26 -89 5
-70 -15 -87 -27 -22 -10 61 -7 93 16 131 26 42 25 51 -5 65 -38 17 -80 15 -98
-6 -21 -23 -21 -63 -1 -132 18 -60 14 -118 -10 -155 -16 -24 -333 -241 -342
-233 -2 3 53 64 122 137 l127 132 40 -7 40 -6 -6 62 c-4 35 -7 83 -7 106 0 27
-5 44 -11 44 -9 0 -10 -25 -6 -91 l7 -91 -28 6 c-24 6 -37 -4 -122 -91 -210
-216 -244 -253 -238 -258 3 -4 59 15 124 40 66 25 137 53 159 61 22 9 59 24
83 35 23 10 42 15 42 10 0 -5 -16 -37 -36 -71 -20 -33 -35 -62 -33 -64 2 -2
53 25 114 60 60 35 113 60 118 55 11 -11 25 -64 20 -78 -3 -7 -12 -13 -21 -13
-9 0 -22 -4 -29 -8 -14 -9 -170 -568 -161 -577 2 -2 20 17 41 43 20 26 73 94
118 152 44 58 83 107 86 110 7 6 0 -43 -22 -168 -9 -51 -14 -99 -12 -105 2 -7
16 13 30 43 15 30 50 98 78 150 109 199 119 225 112 276 l-6 47 38 -6 c38 -6
95 -50 95 -73 0 -7 -12 -26 -26 -43 -22 -27 -25 -37 -19 -73 7 -45 55 -317 80
-453 8 -44 17 -97 21 -118 3 -21 8 -36 10 -35 1 2 19 96 38 208 20 113 43 243
51 290 30 162 30 156 1 183 -14 13 -26 31 -26 39 0 25 50 67 87 74 47 9 57 -4
44 -52 -12 -43 -18 -28 108 -269 82 -156 122 -227 127 -223 1 2 -1 21 -6 43
-21 92 -47 255 -41 255 3 -1 28 -31 56 -67 92 -122 167 -215 170 -211 2 2 -9
53 -25 113 -17 61 -44 162 -61 225 -64 243 -58 227 -91 234 -29 6 -30 8 -25
43 4 20 11 41 16 46 8 8 120 -48 238 -120 38 -22 46 -14 21 20 -41 52 -78 110
-75 113 2 2 39 -10 83 -27 126 -49 237 -90 267 -99 21 -7 3 18 -85 113 -230
248 -210 229 -241 223 l-28 -6 7 90 c8 114 -8 119 -24 8 -6 -46 -14 -96 -17
-113 -5 -29 0 -34 147 -138 84 -60 160 -112 168 -117 8 -5 12 -12 9 -15 -6 -5
-250 92 -289 114 -10 6 -14 21 -12 41 2 24 -4 38 -23 56 -31 29 -33 84 -8 192
15 66 15 77 2 100 -25 46 -119 39 -119 -9 0 -11 10 -37 22 -58 19 -33 21 -45
12 -87 -6 -33 -14 -50 -26 -52 -15 -3 -16 3 -11 47 5 48 -12 120 -25 106 -4
-3 -11 13 -17 37 -8 32 -16 44 -35 48 -22 5 -24 10 -21 57 1 28 -2 54 -8 58
-21 13 -12 61 18 89 22 21 37 27 62 24 28 -2 35 1 37 18 5 34 -34 74 -73 74
-18 0 -38 -7 -45 -15 -17 -21 -30 -19 -30 4 0 11 16 33 37 50 l36 30 -7 243
c-7 255 -22 419 -56 603 -11 61 -20 114 -20 119 0 5 -3 7 -6 4 -3 -4 -5 -229
-4 -502 0 -336 -3 -496 -10 -496 -6 0 -11 46 -12 123 l-2 122 -5 -100 c-5 -88
-8 -100 -25 -103 -19 -4 -19 4 -13 249 3 140 10 270 16 289 5 19 11 82 13 140
3 58 3 93 1 77 -3 -15 -8 -25 -12 -23 -4 3 -9 -27 -10 -67 -3 -92 -19 -269
-26 -275 -3 -3 -5 116 -4 264 1 150 5 258 9 244 6 -20 8 -21 8 -5 0 27 -15 84
-17 65 -1 -8 -6 -46 -12 -85 -19 -134 -29 -259 -39 -479 -6 -129 -15 -240 -23
-265 l-14 -45 -8 45 c-8 40 -9 42 -13 14 -9 -74 -19 -34 -25 102 -4 81 -11
177 -17 213 -16 96 -41 202 -47 197 -21 -22 -63 -320 -63 -453 0 -61 -4 -93
-10 -89 -5 3 -11 16 -11 28 -1 12 -7 0 -13 -27 l-12 -50 -12 66 c-7 36 -13 85
-13 109 -1 24 -5 1 -9 -51 -11 -140 -20 -196 -36 -217 -11 -15 -14 54 -15 482
-1 450 -3 491 -15 415 -7 -47 -13 -105 -13 -129 -1 -63 -11 -45 -27 51 -18 99
-41 189 -44 168z m247 -867 c-2 -32 -3 -6 -3 57 0 63 1 89 3 58 2 -32 2 -84 0
-115z m-173 -164 c-3 -5 -17 -9 -31 -9 -25 0 -26 0 -8 20 14 15 21 17 31 9 8
-6 11 -15 8 -20z m471 10 c0 -7 -8 -15 -17 -17 -18 -3 -25 18 -11 32 10 10 28
1 28 -15z m-65 -4 c0 -8 -7 -15 -15 -15 -16 0 -20 12 -8 23 11 12 23 8 23 -8z
m-335 -5 c3 -5 -1 -10 -9 -10 -9 0 -16 5 -16 10 0 6 4 10 9 10 6 0 13 -4 16
-10z m32 -137 c-14 -14 -19 -15 -29 -4 -11 10 -9 15 6 27 27 20 47 0 23 -23z
m259 27 c25 -10 26 -12 11 -27 -14 -14 -17 -14 -31 0 -15 14 -22 37 -12 37 3
0 17 -5 32 -10z m-356 -75 c0 -17 -10 -24 -26 -18 -15 5 -19 44 -7 57 8 8 33
-22 33 -39z m468 9 c-5 -28 -28 -29 -28 -1 0 13 3 27 7 31 10 10 25 -10 21
-30z m-311 -46 c-3 -7 -5 -2 -5 12 0 14 2 19 5 13 2 -7 2 -19 0 -25z m-36 2
c10 -6 19 -17 19 -24 0 -8 8 -16 18 -18 10 -3 26 -22 36 -42 9 -20 19 -36 21
-36 3 0 11 16 20 36 8 20 24 38 35 41 11 3 20 13 20 23 0 20 29 31 61 23 16
-4 19 -12 17 -37 -3 -30 -5 -31 -50 -31 -55 0 -68 -10 -89 -73 l-16 -47 -11
40 c-19 66 -34 80 -89 80 -47 0 -48 1 -51 32 -2 23 1 32 15 36 10 3 19 5 21 6
2 0 12 -4 23 -9z m-142 -134 c29 -54 50 -100 48 -102 -7 -8 -55 52 -81 101
-14 27 -26 63 -26 79 0 16 2 27 4 25 2 -2 27 -48 55 -103z m60 50 c6 -22 8
-42 6 -44 -6 -7 -35 63 -35 85 0 27 17 3 29 -41z m365 -21 c-24 -52 -29 -35
-8 27 14 39 19 47 22 31 2 -12 -4 -38 -14 -58z m106 53 c0 -33 -42 -117 -79
-158 -27 -31 -30 -32 -22 -10 5 14 25 56 45 94 20 37 36 74 36 82 0 8 5 14 10
14 6 0 10 -10 10 -22z m-380 -90 c11 -12 20 -31 20 -42 -1 -19 -3 -18 -25 9
-38 46 -34 74 5 33z m196 -6 c-18 -34 -46 -60 -46 -43 0 16 20 54 34 63 22 15
26 7 12 -20z m224 -106 c0 -61 -11 -116 -22 -110 -5 4 -7 27 -3 53 3 25 1 61
-4 80 -6 19 -8 38 -4 44 11 18 33 -26 33 -67z m-634 33 c-3 -17 -6 -53 -6 -80
0 -27 -4 -49 -10 -49 -11 0 -14 118 -4 144 11 29 27 17 20 -15z m248 -71 c-3
-4 -14 -2 -24 5 -18 11 -19 12 -2 18 17 6 35 -9 26 -23z m137 11 c-25 -20 -37
-19 -28 3 2 8 15 14 28 15 l24 2 -24 -20z m-300 -81 l-9 -33 -1 36 c-1 20 2
39 6 43 13 12 15 -10 4 -46z m439 16 c0 -8 -4 -12 -10 -9 -5 3 -10 13 -10 21
0 8 5 12 10 9 6 -3 10 -13 10 -21z m-317 -4 c16 0 16 -2 1 -25 -18 -28 -12
-42 23 -56 35 -13 29 -55 -7 -51 -14 1 -47 2 -74 2 -49 0 -66 10 -66 39 0 11
4 10 23 -2 38 -24 50 -8 42 53 -7 52 -7 53 16 47 13 -4 32 -7 42 -7z m242 -45
c-5 -45 -4 -56 9 -61 9 -4 23 -1 31 6 18 15 30 7 22 -14 -4 -11 -21 -14 -61
-14 -30 1 -61 -4 -69 -10 -11 -10 -17 -9 -26 2 -17 21 -10 50 14 55 28 5 34
19 25 52 -7 24 -5 28 13 32 50 10 50 10 42 -48z m285 -4 c0 -5 -7 -14 -15 -21
-12 -10 -15 -10 -15 2 0 8 3 18 7 21 9 10 23 9 23 -2z m-680 -94 c0 -5 -4 -5
-10 -2 -5 3 -10 14 -10 23 0 15 2 15 10 2 5 -8 10 -19 10 -23z m514 18 c-4 -8
-11 -15 -16 -15 -6 0 -5 6 2 15 7 8 14 15 16 15 2 0 1 -7 -2 -15z m-830 -40
c-4 -8 -8 -15 -10 -15 -2 0 -4 7 -4 15 0 8 4 15 10 15 5 0 7 -7 4 -15z m216
-17 c42 -68 32 -103 -101 -370 -66 -134 -125 -247 -130 -253 -5 -5 -3 13 5 40
8 28 36 128 62 224 l48 173 42 19 c36 15 44 23 50 54 4 21 4 61 1 91 -3 30 -4
54 -1 54 2 0 13 -15 24 -32z m897 15 c4 -10 24 -42 46 -71 21 -30 37 -55 35
-58 -3 -2 -36 25 -74 61 -56 53 -66 67 -54 75 23 15 40 12 47 -7z m-196 -44
c-22 -92 -17 -109 99 -352 60 -127 109 -232 107 -233 -3 -3 -154 195 -182 239
-24 37 -60 208 -59 283 0 42 6 70 18 88 23 37 29 28 17 -25z m-821 26 c7 -9
10 -18 6 -22 -13 -13 -150 -92 -154 -88 -6 6 111 125 123 125 7 0 18 -7 25
-15z m465 -175 c3 0 12 15 20 33 9 19 14 25 15 14 0 -18 -27 -77 -35 -77 -8 0
-35 59 -35 77 1 11 6 5 15 -14 8 -18 17 -33 20 -33z m274 1 c10 -6 12 -19 6
-47 l-7 -39 -14 25 c-14 27 -19 70 -6 70 4 0 13 -4 21 -9z m-485 -44 c6 -41 1
-56 -80 -216 -47 -95 -88 -171 -90 -169 -1 2 17 64 41 138 72 221 86 264 90
278 10 29 33 10 39 -31z m545 -66 c1 -24 0 -24 -14 -5 -15 20 -20 66 -7 78 7
8 19 -31 21 -73z m-406 -116 l6 -90 -14 75 c-8 41 -12 83 -9 93 9 29 11 19 17
-78z m399 57 c18 -26 33 -70 48 -142 11 -58 23 -116 26 -130 12 -55 -9 -5 -56
131 -26 79 -51 152 -55 162 -12 30 9 18 37 -21z m-385 -184 c-3 -7 -5 -2 -5
12 0 14 2 19 5 13 2 -7 2 -19 0 -25z"/>
<path d="M1492 2755 c0 -16 2 -22 5 -12 2 9 2 23 0 30 -3 6 -5 -1 -5 -18z"/>
<path d="M1062 2690 c0 -14 2 -19 5 -12 2 6 2 18 0 25 -3 6 -5 1 -5 -13z"/>
<path d="M1073 2550 c0 -30 2 -43 4 -27 2 15 2 39 0 55 -2 15 -4 2 -4 -28z"/>
<path d="M1083 2415 c0 -44 2 -61 4 -37 2 23 2 59 0 80 -2 20 -4 1 -4 -43z"/>
<path d="M1483 2380 c0 -47 2 -66 4 -42 2 23 2 61 0 85 -2 23 -4 4 -4 -43z"/>
</g>
</svg>
