<?xml version="1.0" standalone="no"?>
<!DOCTYPE svg PUBLIC "-//W3C//DTD SVG 20010904//EN"
 "http://www.w3.org/TR/2001/REC-SVG-20010904/DTD/svg10.dtd">
<svg version="1.0" xmlns="http://www.w3.org/2000/svg"
 width="244.000000pt" height="305.000000pt" viewBox="0 0 244.000000 305.000000"
 preserveAspectRatio="xMidYMid meet">
<metadata>
Created by potrace 1.16, written by Peter Selinger 2001-2019
</metadata>
<g transform="translate(0.000000,305.000000) scale(0.100000,-0.100000)"
fill="#000000" stroke="none">
<path d="M920 2893 c0 -12 -3 -29 -7 -39 -4 -12 -3 -15 5 -10 9 5 12 -108 12
-468 0 -262 -3 -476 -7 -476 -5 1 -25 15 -46 33 l-38 33 11 244 c9 215 17 304
46 515 4 28 4 47 0 44 -23 -21 -65 -497 -66 -755 0 -84 2 -92 23 -102 12 -7
34 -21 49 -33 l26 -22 38 31 c34 28 40 30 59 18 21 -14 36 -54 16 -41 -6 3
-25 4 -41 0 -22 -5 -34 -18 -51 -53 l-23 -46 -12 29 c-16 39 -43 63 -80 71
-40 8 -84 -27 -84 -67 0 -28 2 -29 44 -29 37 0 48 -5 70 -31 25 -30 36 -79 17
-79 -21 0 -20 -43 4 -153 26 -119 34 -226 15 -197 -5 8 -11 42 -12 75 l-1 60
-7 -60 c-6 -63 -17 -58 -22 9 -3 45 -23 62 -60 53 -17 -5 -30 -18 -37 -38 -13
-38 -7 -69 24 -129 30 -57 19 -88 -14 -42 -54 76 -65 152 -31 215 11 20 20 44
20 52 0 21 -32 35 -79 35 -33 0 -44 -5 -58 -26 -16 -24 -15 -30 5 -100 39
-130 27 -168 -74 -235 -128 -85 -262 -169 -281 -175 -19 -7 40 57 170 184 73
71 82 77 120 77 l42 0 -4 95 c-4 129 -22 154 -20 30 l1 -95 -29 2 c-25 2 -51
-20 -208 -177 -99 -99 -177 -180 -173 -180 14 0 433 153 446 163 6 5 12 18 12
28 0 26 14 31 47 17 66 -28 67 -33 23 -115 -22 -40 -37 -73 -33 -73 5 0 33 16
63 35 64 41 72 43 68 13 -2 -15 -11 -24 -25 -26 -12 -2 -26 -9 -32 -15 -5 -7
-35 -100 -65 -207 -31 -107 -65 -226 -76 -265 -22 -78 -25 -99 -10 -90 9 6 88
101 268 324 29 36 58 71 64 76 12 12 7 -38 -23 -224 -11 -68 -19 -131 -17
-139 2 -9 19 17 37 58 19 41 54 117 78 168 75 161 76 165 74 219 -2 57 3 59
57 25 44 -28 46 -49 12 -88 -18 -21 -29 -43 -26 -52 3 -9 19 -93 36 -187 49
-275 80 -439 84 -443 2 -2 7 16 11 40 4 24 20 111 36 193 16 83 40 211 53 285
l25 135 -29 30 c-17 17 -30 35 -30 40 0 20 55 65 80 65 26 0 27 -2 23 -48 -4
-40 2 -63 40 -147 86 -194 149 -330 154 -335 8 -7 -5 91 -33 259 -13 80 -22
146 -20 148 2 2 24 -22 50 -54 128 -159 289 -353 292 -351 3 4 -142 514 -156
548 -6 14 -24 31 -40 37 -29 11 -42 43 -17 43 6 0 43 -20 82 -45 38 -24 71
-42 73 -40 3 2 -16 40 -42 83 -25 43 -46 84 -46 91 0 11 57 41 79 41 5 0 11
-12 13 -27 3 -30 -3 -27 213 -103 44 -15 111 -40 149 -54 38 -14 71 -25 73
-23 2 2 -72 82 -164 176 -159 164 -169 172 -199 167 l-31 -6 3 97 c3 66 1 91
-5 78 -5 -11 -10 -38 -10 -60 -1 -22 -7 -65 -15 -94 -13 -52 -13 -53 13 -76
14 -13 64 -49 110 -80 124 -83 212 -147 208 -151 -5 -5 -306 113 -320 125 -4
5 -2 20 4 35 12 25 10 29 -15 50 -37 29 -45 98 -22 176 30 99 14 150 -47 150
-34 0 -77 -20 -77 -35 0 -7 12 -34 26 -60 25 -44 26 -51 16 -96 -16 -68 -72
-151 -72 -107 0 7 10 36 21 64 35 85 7 156 -54 140 -12 -3 -27 0 -34 6 -11 8
-13 -11 -13 -106 0 -114 -13 -157 -23 -73 -5 46 8 196 23 265 14 61 12 108 -5
122 -23 19 -18 39 20 77 31 31 40 35 70 30 34 -6 35 -5 35 27 0 68 -78 90
-131 37 -16 -16 -29 -37 -29 -45 0 -29 -15 -16 -34 29 -19 48 -45 63 -87 50
-22 -7 -23 -7 -7 16 22 34 49 34 82 0 l28 -30 49 37 49 36 0 151 c0 250 -21
474 -67 728 -8 48 -19 87 -24 87 -5 0 -9 -6 -9 -14 0 -8 -3 -23 -6 -33 -5 -15
-4 -15 5 -3 8 11 11 -118 11 -462 0 -263 -3 -478 -7 -478 -3 0 -22 12 -41 27
l-35 26 6 241 c4 150 14 294 26 381 11 77 22 163 25 190 5 44 4 43 -8 -15 -27
-123 -56 -385 -57 -505 -1 -182 -12 -312 -27 -327 -11 -11 -13 74 -12 467 1
554 1 520 -5 514 -11 -12 -36 -347 -45 -599 -5 -151 -13 -297 -17 -325 l-7
-50 -7 65 c-6 70 -23 204 -44 365 -19 137 -45 252 -55 234 -14 -25 -51 -232
-60 -329 -32 -364 -45 -404 -51 -160 -2 101 -4 113 -8 62 -3 -34 -10 -61 -16
-60 -5 2 -11 -6 -13 -17 -2 -11 -8 -24 -14 -30 -6 -6 -8 138 -6 409 3 421 -1
460 -22 201 -6 -77 -13 -174 -17 -215 l-6 -75 -19 145 c-23 185 -57 372 -69
385 -5 5 -9 1 -9 -12z m274 -823 c-9 -203 -9 -204 -14 -90 -5 111 11 386 18
325 2 -16 0 -122 -4 -235z m-108 -227 c-10 -10 -19 5 -10 18 6 11 8 11 12 0 2
-7 1 -15 -2 -18z m314 17 c0 -5 -4 -10 -10 -10 -5 0 -10 5 -10 10 0 6 5 10 10
10 6 0 10 -4 10 -10z m-223 -62 c-3 -8 -6 -5 -6 6 -1 11 2 17 5 13 3 -3 4 -12
1 -19z m203 -70 c0 -13 -17 -9 -30 7 -6 8 -8 20 -4 26 5 9 11 7 21 -6 7 -11
13 -22 13 -27z m-344 -14 c8 -26 8 -43 1 -52 -5 -7 -7 -37 -4 -70 6 -56 6 -57
-12 -35 -10 12 -22 42 -25 67 -4 24 -14 50 -21 56 -20 16 -19 22 6 54 27 34
41 29 55 -20z m80 21 c-3 -9 -11 -13 -16 -10 -8 5 -7 11 1 21 14 18 24 11 15
-11z m368 3 c20 -28 20 -55 1 -74 -8 -9 -15 -28 -15 -43 0 -15 -7 -36 -15 -47
-14 -18 -15 -16 -14 21 0 22 -2 56 -6 75 -7 37 7 90 24 90 6 0 17 -10 25 -22z
m-298 -106 c-13 -12 -17 8 -10 40 l9 33 3 -33 c2 -19 1 -36 -2 -40z m-9 -23
c11 -4 28 -23 37 -43 9 -20 19 -36 21 -36 3 0 11 16 19 35 9 20 26 39 41 45
15 6 25 17 25 29 0 26 17 36 36 20 9 -7 14 -25 12 -43 -3 -29 -6 -31 -50 -34
-27 -2 -48 -4 -48 -5 0 -1 -9 -27 -19 -57 l-18 -55 -8 35 c-12 57 -31 80 -68
80 -55 0 -76 43 -40 82 17 19 18 19 28 -13 6 -18 20 -36 32 -40z m-223 -37
c11 -26 46 -75 78 -110 57 -61 69 -82 48 -82 -12 0 -60 49 -60 61 0 4 -9 11
-20 14 -11 3 -20 15 -20 25 0 10 -11 32 -25 48 -25 30 -45 92 -29 92 5 0 18
-21 28 -48z m113 1 c-3 -10 -5 -2 -5 17 0 19 2 27 5 18 2 -10 2 -26 0 -35z
m343 22 c0 -14 -4 -25 -9 -25 -4 0 -6 11 -3 25 2 14 6 25 8 25 2 0 4 -11 4
-25z m140 10 c0 -20 -22 -65 -32 -65 -11 0 -10 23 2 54 10 28 30 35 30 11z
m-450 -97 c24 -40 28 -71 6 -48 -14 15 -39 80 -30 80 2 0 13 -15 24 -32z m274
-36 c-24 -36 -30 -12 -8 30 14 26 19 29 22 15 2 -10 -4 -30 -14 -45z m122 13
c-4 -14 -13 -25 -21 -25 -8 0 -21 -13 -30 -30 -8 -16 -24 -34 -34 -40 -40 -21
-29 9 27 74 56 65 70 70 58 21z m-336 4 c0 -6 -4 -7 -10 -4 -5 3 -10 11 -10
16 0 6 5 7 10 4 6 -3 10 -11 10 -16z m362 -121 c-9 -9 -12 -4 -11 23 0 32 1
33 11 11 8 -17 8 -26 0 -34z m-342 6 c0 -16 -16 -19 -25 -4 -8 13 4 32 16 25
5 -4 9 -13 9 -21z m126 -11 c-11 -11 -19 6 -11 24 8 17 8 17 12 0 3 -10 2 -21
-1 -24z m-252 -87 c-5 -36 -3 -47 15 -65 32 -32 44 -17 37 40 l-7 49 38 -1
c34 0 35 -1 15 -10 -33 -13 -27 -61 8 -69 18 -4 25 -12 25 -30 0 -23 -3 -25
-49 -23 -27 1 -55 4 -63 7 -24 10 -45 74 -38 117 9 53 26 39 19 -15z m386 5
c0 -21 -5 -52 -11 -69 -11 -33 -38 -44 -109 -46 -31 -1 -35 2 -35 24 0 18 7
26 25 30 35 8 41 57 8 69 -21 8 -20 8 10 13 41 6 45 -1 37 -56 -8 -54 9 -71
37 -36 13 16 19 38 18 64 -2 55 -2 58 10 51 6 -3 10 -23 10 -44z m220 -75 c0
-7 -7 -19 -15 -26 -16 -13 -20 -3 -9 24 8 20 24 21 24 2z m-190 -26 c0 -5 -5
-10 -11 -10 -5 0 -7 5 -4 10 3 6 8 10 11 10 2 0 4 -4 4 -10z m-600 -56 c0 -8
-7 -14 -15 -14 -10 0 -15 10 -15 26 0 22 2 25 15 14 8 -7 15 -19 15 -26z m868
-41 c11 -16 27 -44 36 -63 17 -35 17 -35 -28 12 -43 43 -59 78 -37 78 5 0 18
-12 29 -27z m-848 -45 c0 -44 -10 -69 -72 -187 -39 -75 -100 -190 -135 -256
-64 -124 -74 -134 -48 -49 9 27 27 90 40 139 14 50 36 124 49 165 22 70 26 76
67 96 45 22 57 40 58 90 1 29 16 54 33 54 4 0 8 -23 8 -52z m708 -6 c-2 -57 2
-67 115 -292 65 -128 116 -235 114 -237 -2 -2 -29 29 -60 69 -31 40 -90 117
-131 170 l-75 97 5 116 c2 65 7 121 10 126 15 24 24 3 22 -49z m-836 8 c-42
-39 -60 -39 -30 -1 13 17 32 30 43 30 17 0 15 -4 -13 -29z m484 -85 c17 22 19
3 3 -26 -10 -20 -11 -20 -24 -2 -8 10 -14 25 -14 33 0 11 3 10 11 -4 11 -19
11 -19 24 -1z m-296 -42 c0 -25 -1 -26 -16 -11 -9 9 -13 21 -10 27 13 20 26
11 26 -16z m103 -18 c6 -37 1 -57 -22 -108 -16 -34 -45 -102 -66 -152 -21 -49
-43 -94 -48 -100 -7 -7 -8 -5 -5 5 3 8 29 102 59 208 29 106 58 192 65 192 6
0 14 -20 17 -45z m460 5 c15 -70 67 -403 64 -406 -2 -2 -9 15 -16 38 -7 24
-27 93 -46 153 -19 61 -43 143 -54 183 l-20 73 32 -3 c28 -3 33 -8 40 -38z
m27 20 c0 -11 -4 -20 -10 -20 -5 0 -10 9 -10 20 0 11 5 20 10 20 6 0 10 -9 10
-20z m-362 -106 c-8 -23 -7 -66 6 -184 9 -84 14 -155 12 -157 -3 -3 -23 99
-55 272 -6 34 -3 45 17 73 29 38 36 37 20 -4z"/>
<path d="M901 2794 c0 -11 3 -14 6 -6 3 7 2 16 -1 19 -3 4 -6 -2 -5 -13z"/>
<path d="M1422 2755 c0 -16 2 -22 5 -12 2 9 2 23 0 30 -3 6 -5 -1 -5 -18z"/>
<path d="M1438 2555 c2 -71 6 -132 8 -134 7 -7 2 142 -6 204 -5 38 -6 13 -2
-70z"/>
<path d="M1092 2570 c0 -14 2 -19 5 -12 2 6 2 18 0 25 -3 6 -5 1 -5 -13z"/>
<path d="M1101 2464 c0 -11 3 -14 6 -6 3 7 2 16 -1 19 -3 4 -6 -2 -5 -13z"/>
</g>
</svg>
