<?xml version="1.0" standalone="no"?>
<!DOCTYPE svg PUBLIC "-//W3C//DTD SVG 20010904//EN"
 "http://www.w3.org/TR/2001/REC-SVG-20010904/DTD/svg10.dtd">
<svg version="1.0" xmlns="http://www.w3.org/2000/svg"
 width="244.000000pt" height="305.000000pt" viewBox="0 0 244.000000 305.000000"
 preserveAspectRatio="xMidYMid meet">
<metadata>
Created by potrace 1.16, written by Peter Selinger 2001-2019
</metadata>
<g transform="translate(0.000000,305.000000) scale(0.100000,-0.100000)"
fill="#000000" stroke="none">
<path d="M910 2896 c0 -7 -2 -29 -5 -47 -4 -26 -3 -30 4 -14 6 13 10 -148 10
-458 l1 -477 -40 26 -40 27 0 152 c0 180 13 359 40 539 23 149 24 189 4 101
-24 -108 -53 -416 -58 -617 l-5 -197 50 -36 c48 -34 69 -43 69 -27 0 4 18 19
40 32 l39 25 1 90 c0 120 -18 451 -30 545 -17 128 -62 350 -71 350 -5 0 -9 -6
-9 -14z"/>
<path d="M1386 2873 c-13 -91 -36 -480 -42 -726 -4 -167 -10 -270 -17 -274 -5
-3 -8 -2 -5 3 8 12 -8 253 -27 414 -14 127 -52 316 -61 307 -8 -8 -32 -114
-48 -212 -18 -115 -46 -476 -39 -508 4 -18 3 -19 -6 -7 -6 8 -12 72 -13 145
-1 101 -3 116 -7 65 l-6 -65 -8 43 c-4 23 -12 42 -18 42 -7 0 -10 122 -9 378
1 207 0 386 -1 397 -1 11 -7 -34 -15 -100 -17 -151 -34 -503 -34 -700 0 -132
2 -154 20 -182 11 -18 27 -33 35 -33 8 0 15 -7 15 -15 0 -8 -4 -15 -10 -15 -5
0 -10 4 -10 9 0 5 -13 14 -29 21 -45 18 -81 2 -107 -49 l-21 -43 -23 40 c-35
62 -87 78 -134 41 -17 -14 -26 -30 -26 -50 0 -28 2 -29 44 -29 38 0 48 -5 75
-35 35 -40 39 -60 14 -74 -23 -13 -20 -77 6 -137 25 -56 31 -224 8 -224 -12 0
-21 27 -41 123 -5 22 -12 27 -35 27 -74 0 -84 -79 -25 -188 34 -63 40 -82 27
-82 -9 0 -60 69 -85 114 -24 43 -23 118 2 158 37 61 19 88 -59 88 -33 0 -44
-5 -58 -26 -16 -25 -16 -30 2 -93 26 -97 28 -116 15 -156 -10 -30 -28 -47
-108 -99 -114 -74 -270 -166 -280 -166 -4 0 56 61 133 136 136 132 140 135
180 132 l40 -3 -3 45 c-7 123 -14 173 -23 159 -6 -8 -7 -50 -3 -98 l6 -83 -31
7 c-30 6 -39 -1 -211 -171 -99 -98 -178 -179 -176 -181 2 -3 177 57 401 137
39 14 51 23 53 41 2 13 7 28 12 33 10 10 140 -48 140 -63 0 -6 -11 -36 -25
-68 -14 -31 -23 -63 -21 -70 3 -7 -19 -93 -49 -192 -61 -202 -105 -364 -101
-369 2 -1 34 34 72 79 38 46 94 112 124 148 82 96 126 152 156 193 23 33 25
41 15 69 -17 48 -14 59 15 59 26 0 27 -1 21 -52 -3 -29 -19 -145 -36 -257 -17
-113 -29 -206 -27 -208 2 -2 27 51 56 119 126 295 129 302 123 346 -7 53 11
56 57 11 29 -29 30 -33 15 -53 -49 -68 -49 -45 -5 -277 23 -118 50 -261 60
-318 11 -57 22 -106 24 -108 2 -2 7 13 10 34 10 53 73 387 97 507 10 54 19
102 19 106 0 4 -14 21 -30 39 -34 35 -30 57 15 87 38 25 54 13 45 -34 -7 -41
18 -110 149 -412 40 -92 41 -93 35 -45 -4 28 -10 68 -14 90 -7 36 -8 37 -10
10 -1 -23 -6 -14 -21 40 -66 233 -99 354 -99 364 0 8 11 11 28 9 26 -3 28 -6
43 -98 9 -52 22 -138 30 -190 7 -52 15 -86 17 -74 1 11 -9 93 -23 181 -14 88
-25 166 -25 172 0 6 11 11 25 11 29 0 32 -17 10 -60 -15 -28 -14 -30 45 -102
165 -200 314 -377 317 -375 3 3 -96 353 -132 470 -14 43 -25 80 -25 83 0 2 11
2 25 -2 24 -6 24 -5 -15 66 -45 82 -44 90 25 121 54 25 62 24 68 -9 5 -22 15
-31 54 -44 26 -9 124 -44 218 -77 93 -33 171 -58 174 -55 3 3 -73 81 -169 175
-156 152 -178 169 -202 165 l-28 -6 -1 93 -1 92 -20 -114 c-10 -62 -18 -114
-16 -116 2 -1 68 -46 148 -100 189 -127 202 -137 197 -141 -4 -4 -102 31 -192
68 -33 14 -77 31 -98 38 -38 12 -39 13 -32 48 6 30 3 38 -20 56 -38 31 -44 94
-16 185 23 76 20 115 -9 131 -40 22 -120 2 -120 -29 0 -9 12 -34 25 -56 29
-47 30 -55 10 -121 -15 -50 -77 -135 -90 -122 -3 3 10 37 30 75 30 55 36 75
31 108 -5 45 -29 67 -66 63 -22 -3 -26 -10 -38 -68 -7 -36 -19 -71 -26 -79
-20 -20 -13 178 8 238 20 55 20 105 1 121 -22 18 -19 35 17 75 28 32 36 36 72
33 49 -4 56 12 26 60 -17 28 -25 32 -60 32 -31 0 -47 -6 -65 -26 -14 -15 -25
-35 -25 -45 0 -30 -19 -22 -34 15 -15 36 -50 66 -77 66 -9 0 -28 -9 -41 -20
-24 -18 -38 -18 -38 2 0 4 7 8 15 8 9 0 25 16 36 35 20 34 21 34 47 18 15 -9
39 -27 53 -40 l26 -23 19 21 c10 11 31 27 46 35 l28 15 0 162 c0 238 -33 558
-76 748 -13 56 -19 69 -25 54 -11 -29 -11 -47 1 -40 7 4 10 -155 10 -469 0
-327 -3 -476 -11 -476 -5 0 -26 12 -45 28 l-34 27 0 87 c0 207 33 580 66 748
4 19 4 32 1 29 -9 -8 -43 -223 -56 -349 -6 -58 -15 -193 -21 -300 -11 -201
-15 -230 -30 -230 -20 0 -25 116 -25 532 0 241 -1 438 -2 438 -1 0 -4 -17 -7
-37z m-180 -560 c-3 -49 -7 -165 -8 -260 -1 -95 -6 -169 -10 -165 -20 20 -1
512 20 512 2 0 2 -39 -2 -87z m-29 -555 c-2 -18 -4 -6 -4 27 0 33 2 48 4 33 2
-15 2 -42 0 -60z m-136 -20 c1 -13 4 -67 8 -121 3 -53 3 -97 -1 -97 -12 0 -49
69 -55 104 -3 20 -12 41 -19 47 -8 6 -14 19 -14 28 0 50 79 88 81 39z m450 0
c22 -28 24 -51 4 -68 -8 -7 -15 -21 -15 -31 0 -23 -39 -109 -49 -109 -6 0 -7
66 -2 203 1 34 34 37 62 5z m-314 -129 c11 -4 28 -23 37 -43 10 -22 22 -34 28
-30 8 5 9 -1 5 -17 -4 -13 -7 -31 -8 -39 0 -8 -9 10 -18 40 -16 52 -19 55 -51
58 -19 2 -41 8 -47 14 -16 13 -17 53 -1 81 11 21 12 20 23 -17 7 -24 19 -42
32 -47z m9 23 c-12 -11 -17 7 -9 34 l8 29 3 -28 c2 -16 1 -31 -2 -35z m174 -1
c0 -36 -17 -51 -57 -51 -20 0 -36 -7 -42 -17 -14 -24 -14 -7 0 18 5 11 21 24
33 29 15 5 25 20 30 40 5 28 8 31 21 20 8 -7 15 -24 15 -39z m-415 -47 c18
-45 18 -44 0 -44 -8 0 -17 12 -21 28 -3 15 -7 33 -10 40 -9 29 17 9 31 -24z
m605 7 c0 -26 -24 -60 -35 -49 -7 7 17 78 27 78 4 0 8 -13 8 -29z m-150 3 c0
-8 -5 -12 -10 -9 -6 4 -8 11 -5 16 9 14 15 11 15 -7z m-30 -115 c-7 -16 -16
-29 -21 -29 -12 0 -12 3 8 52 12 30 19 37 21 25 2 -10 -2 -32 -8 -48z m-245
-4 l16 -40 -26 28 c-14 15 -25 38 -25 50 0 28 15 12 35 -38z m355 0 c0 -18 -5
-25 -20 -25 -24 0 -25 8 -3 32 21 23 23 23 23 -7z m-457 -9 c3 -8 -1 -17 -9
-20 -23 -9 -24 -8 -24 14 0 23 25 27 33 6z m-95 -91 c1 -31 -1 -35 -8 -20 -5
11 -8 40 -8 65 0 37 1 41 8 20 4 -14 8 -43 8 -65z m637 -3 c-5 -38 -10 -51
-16 -41 -12 19 -11 46 3 94 15 52 22 23 13 -53z m-135 53 c0 -17 -8 -29 -25
-37 -38 -17 -42 -2 -10 32 16 17 30 30 32 30 2 0 3 -11 3 -25z m-351 -11 c23
-30 18 -52 -7 -32 -23 17 -32 30 -32 46 0 20 17 14 39 -14z m95 -20 c9 -23 7
-36 -3 -30 -12 8 -21 46 -11 46 4 0 11 -7 14 -16z m127 -27 c-13 -13 -15 1 -4
30 7 17 8 17 11 -1 2 -10 -1 -23 -7 -29z m-235 -82 c-9 -35 12 -85 36 -85 19
0 20 4 14 50 -4 28 -3 50 1 50 4 0 18 3 31 6 12 4 22 2 22 -4 0 -5 -9 -12 -21
-15 -31 -8 -23 -59 11 -67 18 -4 25 -13 25 -29 0 -20 -6 -23 -42 -26 -65 -5
-85 17 -91 95 -3 47 -2 61 8 55 6 -4 9 -17 6 -30z m357 8 c9 -43 -11 -109 -36
-120 -12 -6 -40 -9 -62 -8 -34 2 -40 6 -40 26 0 16 7 25 25 29 34 8 42 59 11
67 -12 3 -21 9 -21 14 0 10 7 11 38 3 20 -6 22 -10 16 -54 -7 -54 7 -73 34
-46 11 11 17 34 17 66 0 55 9 66 18 23z m-406 -51 c7 -26 12 -51 12 -57 -1
-14 -37 87 -38 104 -2 27 13 0 26 -47z m583 10 c0 -10 -6 -27 -14 -38 -14 -18
-15 -18 -21 -1 -5 11 -1 25 10 37 22 25 25 25 25 2z m-685 -41 c3 -5 1 -12 -5
-16 -5 -3 -10 1 -10 9 0 18 6 21 15 7z m540 -21 c-4 -12 -9 -19 -12 -17 -3 3
-2 15 2 27 4 12 9 19 12 17 3 -3 2 -15 -2 -27z m190 -29 c-7 -23 -25 -29 -25
-8 0 14 21 39 28 33 2 -3 1 -14 -3 -25z m-780 -41 c7 -21 0 -40 -16 -40 -5 0
-9 14 -9 30 0 34 15 40 25 10z m861 -81 c15 -29 14 -30 -4 -20 -19 10 -32 32
-32 52 0 17 19 -1 36 -32z m-836 -19 c0 -14 -33 -86 -74 -160 -40 -74 -101
-188 -136 -253 -35 -64 -65 -115 -67 -113 -3 2 7 42 20 88 14 46 43 142 65
213 l39 130 49 25 c40 20 50 30 52 55 5 38 32 71 44 53 4 -7 8 -24 8 -38z
m713 37 c3 -7 3 -25 0 -39 -5 -28 21 -86 157 -348 44 -85 79 -158 77 -162 -1
-4 -40 41 -86 100 -47 59 -109 137 -139 174 -52 65 -54 69 -46 110 5 24 7 54
5 68 -1 14 0 44 4 67 6 43 18 55 28 30z m-813 -15 c0 -10 -22 -32 -32 -32 -5
0 -3 9 4 20 13 20 28 27 28 12z m0 -47 c0 -8 -7 -15 -16 -15 -14 0 -14 3 -4
15 7 8 14 15 16 15 2 0 4 -7 4 -15z m905 4 c11 -17 -1 -21 -15 -4 -8 9 -8 15
-2 15 6 0 14 -5 17 -11z m-445 -69 c-10 -18 -14 -20 -21 -9 -11 18 -11 32 0
24 5 -3 13 0 16 6 13 20 17 1 5 -21z m-186 -12 c12 -45 5 -70 -54 -220 -59
-147 -87 -207 -76 -163 69 277 106 405 116 405 4 0 10 -10 14 -22z m122 -96
c-13 -26 -13 -45 0 -178 20 -203 14 -216 -19 -44 -16 80 -31 155 -34 166 -3
15 6 33 28 58 36 42 47 41 25 -2z"/>
<path d="M1402 2805 c0 -16 2 -22 5 -12 2 9 2 23 0 30 -3 6 -5 -1 -5 -18z"/>
<path d="M1093 2735 c0 -22 2 -30 4 -17 2 12 2 30 0 40 -3 9 -5 -1 -4 -23z"/>
<path d="M1413 2690 c0 -30 2 -43 4 -27 2 15 2 39 0 55 -2 15 -4 2 -4 -28z"/>
<path d="M1103 2615 c0 -22 2 -30 4 -17 2 12 2 30 0 40 -3 9 -5 -1 -4 -23z"/>
<path d="M1423 2555 c0 -33 2 -45 4 -27 2 18 2 45 0 60 -2 15 -4 0 -4 -33z"/>
<path d="M1114 2410 c0 -52 1 -74 3 -47 2 26 2 68 0 95 -2 26 -3 4 -3 -48z"/>
<path d="M1434 2335 c0 -66 1 -92 3 -57 2 34 2 88 0 120 -2 31 -3 3 -3 -63z"/>
</g>
</svg>
