<?xml version="1.0" standalone="no"?>
<!DOCTYPE svg PUBLIC "-//W3C//DTD SVG 20010904//EN"
 "http://www.w3.org/TR/2001/REC-SVG-20010904/DTD/svg10.dtd">
<svg version="1.0" xmlns="http://www.w3.org/2000/svg"
 width="244.000000pt" height="305.000000pt" viewBox="0 0 244.000000 305.000000"
 preserveAspectRatio="xMidYMid meet">
<metadata>
Created by potrace 1.16, written by Peter Selinger 2001-2019
</metadata>
<g transform="translate(0.000000,305.000000) scale(0.100000,-0.100000)"
fill="#000000" stroke="none">
<path d="M1509 2904 c0 -5 0 -233 1 -506 1 -274 -3 -498 -7 -498 -28 0 -32 48
-35 399 -2 199 -6 352 -10 339 -3 -13 -6 -18 -7 -13 -20 180 -31 268 -33 270
-2 2 -2 -221 0 -496 2 -316 -1 -499 -7 -499 -17 0 -40 152 -42 285 l-2 90 -7
-105 c-4 -58 -13 -116 -18 -130 l-11 -25 0 27 c-1 14 -4 35 -8 45 -6 14 -9 10
-13 -17 -4 -21 -9 19 -14 99 -10 177 -49 441 -63 427 -15 -15 -51 -263 -60
-414 -4 -70 -9 -117 -11 -104 -6 38 -22 24 -23 -20 0 -39 -1 -41 -11 -18 -5
14 -16 135 -23 270 -8 135 -16 274 -20 310 -14 164 -28 280 -32 276 -3 -2 -5
-175 -5 -383 -1 -328 -2 -360 -10 -238 -5 77 -10 210 -11 295 -1 85 -4 133 -7
105 l-5 -50 -12 65 c-7 36 -17 95 -24 133 -6 37 -14 67 -18 67 -3 0 -5 -223
-3 -495 2 -272 -1 -495 -5 -495 -4 0 -21 13 -38 28 l-30 28 7 235 c4 129 15
299 24 378 8 79 13 145 11 147 -15 15 -44 -360 -49 -608 l-3 -187 35 -23 c23
-16 36 -33 38 -51 4 -32 -7 -35 -31 -7 -34 40 -99 19 -113 -35 -9 -34 2 -44
40 -38 29 5 37 1 60 -29 29 -39 34 -76 10 -85 -13 -5 -15 -16 -10 -58 5 -46 4
-53 -13 -58 -13 -3 -22 -17 -27 -42 -5 -26 -9 -33 -15 -23 -7 10 -9 9 -9 -5 0
-10 -7 -26 -16 -34 -12 -12 -15 -31 -12 -76 3 -68 -13 -87 -31 -36 -16 47 -13
90 9 124 37 57 21 95 -40 95 -20 0 -41 -5 -48 -12 -16 -16 -15 -79 3 -153 23
-95 9 -132 -74 -193 -104 -77 -261 -184 -261 -177 0 3 54 66 121 140 112 124
123 133 146 124 13 -5 28 -9 33 -9 12 0 0 192 -13 205 -6 7 -8 -21 -4 -82 l6
-92 -27 5 c-25 5 -41 -10 -180 -166 -85 -94 -152 -173 -150 -175 2 -3 87 29
188 70 102 40 187 72 189 70 2 -3 -15 -34 -38 -71 -23 -37 -41 -70 -39 -74 2
-4 52 22 112 58 103 61 110 64 122 47 23 -31 17 -64 -11 -71 -14 -3 -30 -14
-35 -23 -8 -16 -127 -477 -137 -531 -4 -22 -3 -23 9 -9 36 44 74 94 148 194
44 60 80 105 80 99 0 -6 -11 -77 -25 -159 -14 -81 -24 -152 -23 -157 2 -6 26
36 52 93 27 57 74 154 104 214 48 95 56 118 56 170 l1 60 33 -2 c40 -1 82 -37
82 -68 0 -12 -9 -30 -20 -40 -11 -10 -20 -30 -20 -46 0 -32 99 -631 106 -638
2 -2 4 0 4 5 0 11 39 250 74 459 32 185 32 187 0 224 -20 24 -23 34 -15 50 16
30 68 63 94 59 20 -3 22 -8 19 -54 -3 -47 4 -65 99 -257 57 -114 104 -205 106
-204 1 2 -8 68 -21 148 -13 79 -21 146 -19 149 3 3 8 0 10 -6 3 -10 215 -300
229 -313 15 -15 12 19 -10 95 -13 49 -46 174 -72 278 -49 188 -49 189 -83 203
-30 13 -33 17 -27 46 4 17 10 35 15 40 5 5 48 -14 102 -47 51 -30 95 -54 97
-51 3 3 -22 51 -74 141 -21 35 -22 43 -9 47 15 7 35 -20 29 -38 -3 -6 37 -28
88 -49 197 -80 313 -125 317 -121 2 2 -48 62 -111 132 -218 242 -202 227 -232
219 l-27 -7 7 91 c4 54 3 90 -2 90 -8 0 -24 -87 -37 -204 -2 -20 74 -85 203
-176 65 -45 131 -104 110 -96 -26 8 -224 93 -263 112 -34 16 -37 20 -31 51 5
27 2 36 -16 51 -31 25 -38 108 -16 182 20 68 20 114 0 134 -28 29 -114 14
-114 -19 0 -8 10 -35 22 -59 19 -39 20 -52 12 -103 -6 -41 -13 -58 -24 -58 -9
0 -14 8 -12 20 1 11 3 42 5 69 2 41 -2 51 -20 63 -13 9 -23 23 -24 32 0 12 -2
11 -9 -4 -8 -18 -9 -17 -9 6 -1 15 -10 38 -21 52 -16 20 -19 34 -14 71 5 36 3
51 -11 65 -19 22 -15 46 16 85 16 20 29 26 60 26 39 0 40 1 37 32 -4 41 -46
73 -82 64 -15 -4 -35 -21 -46 -38 l-19 -31 -7 27 c-6 24 0 33 41 71 l47 44
-11 273 c-11 285 -18 361 -52 568 -19 112 -28 151 -30 124z m-279 -860 c0
-403 -1 -434 -16 -419 -15 15 -16 51 -10 378 5 331 12 477 22 477 2 0 4 -196
4 -436z m-43 -116 c-1 -40 -3 -8 -3 72 0 80 2 112 3 73 2 -40 2 -106 0 -145z
m-154 -43 c7 -18 -6 -27 -27 -19 -17 7 -20 16 -9 27 11 12 31 8 36 -8z m445 3
c19 -19 14 -28 -13 -28 -18 0 -25 5 -25 20 0 22 20 26 38 8z m-388 -19 c0 -5
-7 -9 -15 -9 -15 0 -20 12 -9 23 8 8 24 -1 24 -14z m310 1 c0 -5 -7 -10 -15
-10 -8 0 -15 5 -15 10 0 6 7 10 15 10 8 0 15 -4 15 -10z m-270 -112 c0 -22
-17 -41 -29 -34 -15 10 -14 33 2 39 21 9 27 8 27 -5z m250 -18 c0 -18 -22 -22
-37 -7 -21 21 -8 40 18 27 10 -6 19 -15 19 -20z m-351 -57 c1 -27 -11 -30 -29
-8 -11 13 -11 21 0 43 12 25 13 26 21 7 4 -11 8 -30 8 -42z m445 30 c5 -17 2
-31 -8 -41 -21 -22 -30 -9 -22 33 8 42 21 45 30 8z m-287 -60 c-3 -10 -5 -2
-5 17 0 19 2 27 5 18 2 -10 2 -26 0 -35z m-43 1 c9 -3 16 -12 16 -20 0 -7 9
-18 21 -24 11 -7 28 -28 36 -48 l16 -37 13 32 c8 18 25 40 39 49 14 9 25 22
25 29 0 8 10 17 21 20 30 10 52 -15 43 -49 -6 -24 -10 -27 -40 -23 -43 6 -60
-7 -82 -66 l-19 -48 -12 43 c-19 63 -37 80 -79 72 -24 -5 -37 -2 -43 7 -15 24
-10 57 9 62 9 3 18 5 19 6 1 0 8 -2 17 -5z m-87 -238 c-2 -6 -20 12 -39 39
-37 50 -72 140 -63 156 7 10 107 -181 102 -195z m343 117 c-12 -21 -18 -29
-14 -18 4 11 12 40 18 65 9 38 11 41 14 18 2 -15 -6 -44 -18 -65z m120 72 c0
-46 -100 -219 -117 -202 -6 6 100 215 110 216 4 1 7 -6 7 -14z m-446 -59 c14
-44 13 -48 0 -34 -9 8 -17 35 -20 59 -5 50 0 45 20 -25z m80 -32 c9 -8 16 -19
16 -24 0 -5 3 -15 6 -24 13 -34 -17 -14 -36 24 -21 41 -14 53 14 24z m175 -24
c-26 -45 -44 -54 -28 -13 12 33 28 53 41 53 5 0 -1 -18 -13 -40z m-377 -108
c-2 -37 -8 -71 -13 -76 -6 -6 -9 -5 -10 5 0 7 -2 32 -5 54 -5 41 11 103 24 91
4 -4 5 -38 4 -74z m582 52 c8 -22 6 -85 -4 -109 -7 -16 -9 -11 -9 21 -1 23 -4
56 -7 73 -7 32 9 44 20 15z m-346 -67 c3 -16 1 -17 -17 -8 -30 16 -34 28 -8
27 13 -1 23 -9 25 -19z m125 8 c0 -6 -7 -11 -16 -13 -12 -3 -15 1 -11 13 7 17
25 17 27 0z m-277 -81 c-4 -20 -10 -34 -13 -30 -3 3 -2 21 1 42 4 20 10 34 13
30 3 -3 2 -21 -1 -42z m408 12 c4 -18 2 -44 -3 -57 l-10 -24 0 26 c-1 15 -4
41 -7 58 -4 18 -2 31 4 31 5 0 13 -15 16 -34z m-310 -2 c11 -4 13 -14 10 -34
-5 -22 0 -31 25 -49 35 -26 37 -33 15 -56 -12 -11 -19 -13 -24 -5 -4 6 -32 11
-63 11 -50 1 -57 3 -57 21 0 17 3 18 15 8 8 -7 22 -10 31 -6 13 5 14 16 9 61
-8 57 -2 65 39 49z m242 -44 c-9 -64 -2 -76 31 -55 24 16 24 16 21 -7 -3 -20
-9 -23 -58 -26 -30 -2 -57 -8 -61 -13 -9 -16 -39 19 -32 37 3 9 16 20 29 25
29 10 33 56 7 67 -14 5 -12 8 12 13 58 13 58 13 51 -41z m-516 -37 c0 -7 -4
-13 -8 -13 -15 0 -32 24 -32 44 0 18 1 19 20 1 11 -10 20 -24 20 -32z m757
-25 c-3 -8 -6 -5 -6 6 -1 11 2 17 5 13 3 -3 4 -12 1 -19z m-146 -41 c-8 -8
-11 -7 -11 4 0 20 13 34 18 19 3 -7 -1 -17 -7 -23z m-761 -7 c0 -5 -5 -10 -11
-10 -5 0 -7 5 -4 10 3 6 8 10 11 10 2 0 4 -4 4 -10z m60 -24 c0 -6 -28 -38
-61 -71 -63 -62 -64 -54 -2 42 22 36 38 50 48 47 8 -4 15 -11 15 -18z m804
-51 c-17 -85 -13 -105 41 -220 83 -175 165 -358 162 -362 -6 -5 -189 256 -210
298 -38 77 -39 279 -2 335 9 14 18 24 20 22 2 -1 -3 -34 -11 -73z m-659 35
c32 -63 22 -103 -83 -321 -54 -112 -104 -219 -112 -236 -7 -18 -16 -33 -20
-33 -4 0 14 82 40 183 26 100 50 194 53 208 5 19 18 31 46 42 46 19 53 36 53
123 0 35 1 64 3 64 3 0 11 -13 20 -30z m841 -51 c51 -67 43 -67 -48 -2 -39 28
-46 38 -37 49 20 25 37 15 85 -47z m-534 -99 l9 -25 20 25 c15 20 18 21 12 5
-3 -11 -13 -31 -22 -44 l-15 -24 -12 34 c-7 19 -12 45 -12 59 0 15 2 19 5 10
3 -8 10 -26 15 -40z m-213 -32 c0 -7 -9 -33 -19 -58 -16 -38 -19 -41 -19 -19
-1 15 -4 41 -7 58 -6 28 -4 31 20 31 14 0 26 -6 25 -12z m459 -15 c5 -16 19
-59 30 -98 12 -38 37 -122 56 -184 20 -63 34 -116 32 -118 -1 -2 -20 34 -41
79 -21 46 -56 120 -77 166 -25 55 -38 97 -38 126 0 62 20 77 38 29z m-239
-300 l-2 -278 -17 145 c-39 311 -39 299 -11 358 14 28 26 52 28 52 2 0 2 -125
2 -277z m-263 179 c-12 -50 -95 -297 -95 -282 -1 9 8 67 20 130 15 85 27 124
45 148 31 39 37 40 30 4z m200 -9 c-1 -21 2 -67 6 -103 5 -40 4 -57 -1 -44
-14 32 -24 130 -17 159 9 35 12 31 12 -12z"/>
<path d="M1401 2794 c0 -11 3 -14 6 -6 3 7 2 16 -1 19 -3 4 -6 -2 -5 -13z"/>
<path d="M1481 2764 c0 -11 3 -14 6 -6 3 7 2 16 -1 19 -3 4 -6 -2 -5 -13z"/>
<path d="M1473 2705 c0 -22 2 -30 4 -17 2 12 2 30 0 40 -3 9 -5 -1 -4 -23z"/>
<path d="M1382 2590 c0 -19 2 -27 5 -17 2 9 2 25 0 35 -3 9 -5 1 -5 -18z"/>
<path d="M1373 2470 c0 -41 2 -58 4 -37 2 20 2 54 0 75 -2 20 -4 3 -4 -38z"/>
</g>
</svg>
