<?xml version="1.0" standalone="no"?>
<!DOCTYPE svg PUBLIC "-//W3C//DTD SVG 20010904//EN"
 "http://www.w3.org/TR/2001/REC-SVG-20010904/DTD/svg10.dtd">
<svg version="1.0" xmlns="http://www.w3.org/2000/svg"
 width="244.000000pt" height="305.000000pt" viewBox="0 0 244.000000 305.000000"
 preserveAspectRatio="xMidYMid meet">
<metadata>
Created by potrace 1.16, written by Peter Selinger 2001-2019
</metadata>
<g transform="translate(0.000000,305.000000) scale(0.100000,-0.100000)"
fill="#000000" stroke="none">
<path d="M1518 2882 c-2 -17 -1 -29 4 -26 4 3 8 -211 8 -475 0 -265 -4 -481
-8 -481 -26 0 -32 31 -34 190 l-2 165 -3 -158 c-3 -120 -7 -157 -16 -154 -15
5 -15 476 1 486 5 3 10 46 11 95 1 49 6 120 12 158 6 38 8 72 6 75 -3 3 -8
-17 -12 -44 -4 -26 -10 -59 -15 -73 -7 -23 -27 -300 -34 -475 -1 -38 -3 110
-4 329 -1 220 -4 397 -6 395 -9 -10 -37 -313 -51 -549 -8 -140 -18 -271 -23
-290 l-9 -35 -8 45 -8 45 -12 -35 c-10 -31 -12 -19 -18 111 -6 133 -36 349
-57 402 -8 22 -8 22 -14 -3 -32 -134 -56 -303 -57 -402 0 -85 -16 -155 -19
-93 -2 25 -4 22 -14 -20 l-12 -50 -14 65 -14 65 -8 -65 c-13 -102 -29 -170
-39 -170 -6 0 -9 182 -7 495 2 272 0 495 -3 495 -7 0 -15 -53 -25 -167 -4 -40
-10 -73 -14 -73 -4 0 -10 19 -14 43 -3 23 -14 78 -23 122 -13 62 -18 74 -23
55 -4 -14 -3 -30 1 -35 8 -12 12 -945 4 -945 -4 0 -22 11 -42 25 l-37 24 3
168 c2 189 15 371 36 515 21 135 17 165 -5 43 -19 -107 -36 -343 -45 -596 l-5
-156 38 -24 c26 -17 38 -32 40 -53 l4 -29 -28 22 c-56 44 -124 17 -124 -51 0
-25 2 -26 35 -21 30 5 39 1 65 -27 33 -36 38 -63 14 -87 -12 -12 -14 -27 -9
-64 6 -41 4 -49 -9 -49 -18 0 -36 -30 -36 -59 0 -12 -6 -21 -13 -21 -7 0 -21
-14 -31 -31 -14 -24 -17 -42 -12 -79 7 -52 -6 -74 -23 -41 -19 34 -13 109 12
152 l22 40 -24 20 c-32 27 -86 25 -105 -3 -21 -29 -20 -50 5 -128 27 -86 15
-136 -45 -184 -47 -38 -268 -184 -294 -193 -9 -4 39 53 108 126 l125 133 40
-6 40 -5 -6 100 c-4 55 -10 103 -13 106 -3 4 -6 -35 -6 -85 l0 -91 -28 5 c-24
5 -34 -1 -72 -43 -24 -26 -97 -104 -162 -172 -65 -68 -116 -126 -114 -128 2
-2 90 28 195 68 105 39 194 69 197 66 4 -3 -15 -36 -40 -73 -26 -36 -45 -68
-43 -71 4 -4 117 55 127 66 3 3 31 19 63 35 62 31 71 29 82 -17 6 -24 3 -29
-27 -41 l-34 -15 -77 -282 c-42 -155 -75 -284 -74 -286 2 -2 57 64 122 147 65
82 121 150 124 150 6 0 -29 -226 -44 -290 -12 -47 12 -6 122 205 99 192 108
215 108 265 0 44 3 55 17 58 26 5 83 -26 98 -53 11 -20 9 -27 -15 -59 -31 -41
-31 -36 29 -361 19 -99 39 -213 46 -253 7 -40 14 -72 15 -70 2 2 20 95 39 208
20 113 43 241 51 285 30 161 30 158 1 185 -14 14 -26 34 -26 46 0 26 51 64 97
71 l36 6 -7 -52 c-7 -50 -4 -56 57 -174 152 -290 171 -322 162 -281 -19 91
-46 266 -42 270 4 4 174 -205 235 -289 30 -43 28 -26 -23 163 -25 91 -58 214
-73 274 -26 104 -29 110 -59 123 -26 11 -33 19 -33 42 0 52 20 55 91 16 143
-78 172 -88 137 -48 -23 29 -98 152 -98 163 0 5 7 10 15 10 9 0 15 -10 15 -26
0 -20 9 -29 46 -46 77 -33 387 -149 390 -145 2 2 -73 83 -167 181 -157 161
-174 176 -199 171 l-27 -6 4 98 c3 71 1 94 -6 83 -6 -8 -11 -35 -11 -60 0 -25
-6 -68 -14 -97 -11 -39 -11 -56 -2 -67 6 -9 87 -69 180 -136 93 -66 165 -120
160 -120 -11 0 -208 78 -286 114 -52 23 -54 26 -37 59 10 18 8 24 -15 42 -31
25 -44 96 -27 160 5 22 14 57 20 79 18 71 -18 106 -93 92 -46 -9 -50 -27 -21
-83 14 -25 25 -57 25 -71 0 -41 -22 -102 -37 -102 -11 0 -12 13 -7 65 6 60 5
68 -16 90 -13 14 -29 25 -37 25 -8 0 -13 12 -13 29 0 19 -8 35 -21 45 -18 12
-20 20 -14 55 5 31 3 48 -9 66 -22 33 -20 48 10 84 22 26 33 31 71 31 l46 0
-7 32 c-8 43 -22 56 -64 64 -30 6 -39 3 -58 -20 -27 -31 -44 -34 -44 -6 0 11
20 36 46 57 l46 38 -6 210 c-8 239 -27 445 -57 620 -24 135 -34 164 -41 117z
m-331 -849 c-2 -32 -3 -8 -3 52 0 61 1 87 3 58 2 -29 2 -78 0 -110z m-170
-148 c8 -21 -1 -28 -27 -20 -17 5 -19 10 -9 21 15 18 28 18 36 -1z m479 -2
c17 -17 17 -18 -10 -21 -33 -4 -41 1 -33 23 8 20 21 19 43 -2z m-416 -14 c0
-5 -7 -9 -15 -9 -15 0 -20 12 -9 23 8 8 24 -1 24 -14z m330 6 c0 -8 -7 -15
-15 -15 -26 0 -18 20 13 29 1 1 2 -6 2 -14z m-292 -141 c-17 -18 -38 -11 -38
11 0 16 31 25 45 13 5 -5 3 -14 -7 -24z m272 6 c0 -18 -22 -22 -37 -7 -21 21
-8 40 18 27 10 -6 19 -15 19 -20z m-375 -31 c8 -23 -7 -45 -24 -35 -12 8 -15
39 -4 49 12 12 22 7 28 -14z m473 -3 c5 -22 -18 -50 -30 -38 -12 12 2 64 16
59 6 -2 12 -11 14 -21z m-311 -48 c-3 -8 -6 -5 -6 6 -1 11 2 17 5 13 3 -3 4
-12 1 -19z m-26 -8 c5 0 9 -7 9 -15 0 -8 9 -19 21 -25 11 -7 27 -27 35 -46 8
-19 16 -34 19 -34 3 0 11 15 19 34 8 19 24 39 35 46 12 6 21 19 21 29 0 14 7
17 30 16 41 -2 54 -17 46 -50 -7 -26 -10 -27 -46 -21 -48 8 -73 -12 -91 -74
l-12 -41 -19 48 c-22 60 -42 75 -86 67 -37 -7 -52 5 -52 43 0 22 23 34 48 27
8 -2 18 -4 23 -4z m-188 -57 c3 -16 22 -54 41 -86 51 -84 56 -112 12 -64 -40
45 -76 116 -76 152 0 34 16 32 23 -2z m100 -43 c16 -55 16 -55 -3 -30 -11 14
-20 32 -20 40 0 8 -3 26 -6 40 -13 50 14 5 29 -50z m447 -24 c-22 -49 -75
-116 -92 -116 -6 0 2 19 16 43 14 23 41 71 59 107 28 57 32 62 35 38 2 -14 -6
-47 -18 -72z m-95 5 c-8 -17 -17 -31 -19 -31 -2 0 4 26 13 58 13 45 17 51 19
30 2 -15 -4 -40 -13 -57z m-255 -32 c6 -10 10 -26 10 -36 -1 -14 -6 -12 -25
12 -14 17 -25 35 -25 42 0 17 28 5 40 -18z m190 19 c0 -7 -11 -26 -25 -43 -22
-27 -24 -28 -25 -9 0 11 9 30 20 42 24 25 30 27 30 10z m-418 -135 c-5 -79 -7
-91 -18 -80 -9 9 -10 130 -1 145 18 28 24 8 19 -65z m627 -2 c-1 -65 -17 -101
-18 -41 -1 25 -4 63 -7 85 -5 38 -4 39 10 21 10 -12 16 -38 15 -65z m-372 -5
c3 -3 2 -9 -2 -15 -7 -13 -45 3 -45 19 0 9 38 5 47 -4z m143 6 c0 -11 -37 -32
-44 -25 -8 9 14 33 30 33 8 0 14 -3 14 -8z m-309 -94 l-9 -33 -1 36 c-1 20 2
39 6 43 13 12 15 -10 4 -46z m438 4 c-1 -33 -2 -34 -9 -12 -12 36 -12 62 0 55
6 -3 10 -23 9 -43z m-309 8 c11 0 11 -3 2 -12 -7 -7 -12 -24 -12 -39 0 -21 5
-28 23 -31 28 -4 33 -54 5 -52 -10 0 -45 1 -78 2 -44 2 -62 6 -67 17 -7 21 4
32 19 17 7 -7 21 -12 31 -12 18 0 19 5 13 53 -6 59 -1 71 29 63 11 -3 27 -6
35 -6z m232 -43 c-5 -61 3 -73 35 -52 24 16 24 16 21 -7 -3 -20 -9 -23 -53
-25 -27 -2 -61 -4 -75 -5 -36 -4 -42 38 -7 51 31 12 39 34 21 59 -13 19 -12
21 13 25 45 6 48 3 45 -46z m298 1 c-1 -19 -29 -53 -37 -45 -8 9 14 57 27 57
5 0 10 -6 10 -12z m-696 -84 c10 -25 -1 -29 -14 -5 -6 12 -7 21 -1 21 5 0 12
-7 15 -16z m509 -4 c-3 -12 -8 -19 -11 -16 -5 6 5 36 12 36 2 0 2 -9 -1 -20z
m100 -100 c-19 -90 -24 -74 114 -357 57 -119 102 -217 100 -219 -3 -3 -57 66
-165 214 -56 75 -72 121 -86 243 -8 60 6 141 30 177 9 13 17 22 19 20 1 -1 -4
-37 -12 -78z m-698 40 c35 -67 24 -103 -106 -361 -67 -132 -123 -238 -125
-236 -2 2 21 95 51 206 30 111 55 204 55 207 0 2 20 13 45 24 51 22 59 39 53
129 -3 67 4 76 27 31z m894 -15 c56 -83 54 -90 -8 -30 -42 41 -57 61 -48 67
20 13 24 10 56 -37z m-1023 21 c13 -10 16 -18 8 -25 -14 -15 -156 -102 -160
-99 -3 4 119 137 127 138 3 0 14 -6 25 -14z m424 -46 c0 -5 -7 -7 -15 -4 -8 4
-15 8 -15 10 0 2 7 4 15 4 8 0 15 -4 15 -10z m117 4 c-3 -3 -12 -4 -19 -1 -8
3 -5 6 6 6 11 1 17 -2 13 -5z m-73 -134 c3 0 12 12 20 28 20 37 20 9 0 -30
-13 -26 -18 -28 -30 -17 -7 8 -16 30 -19 49 l-6 35 15 -32 c8 -18 17 -33 20
-33z m-210 -47 c6 -44 1 -57 -81 -226 -48 -98 -89 -175 -90 -170 -2 5 23 88
55 184 32 95 64 193 71 217 16 56 37 54 45 -5z m502 33 c3 -7 -1 -29 -9 -47
l-15 -34 -9 25 c-26 65 -26 70 2 70 14 0 28 -6 31 -14z m34 -84 c0 -7 -4 -10
-10 -7 -5 3 -10 16 -10 28 0 18 2 19 10 7 5 -8 10 -21 10 -28z m-11 -53 c16
-21 30 -65 48 -150 13 -67 22 -123 20 -126 -3 -2 -26 60 -52 139 -27 79 -50
149 -53 156 -8 22 12 12 37 -19z m-389 -18 c0 -15 2 -50 5 -77 l5 -49 -15 55
c-17 65 -19 100 -5 100 6 0 10 -13 10 -29z"/>
<path d="M1063 2695 c0 -22 2 -30 4 -17 2 12 2 30 0 40 -3 9 -5 -1 -4 -23z"/>
<path d="M1452 2670 c0 -19 2 -27 5 -17 2 9 2 25 0 35 -3 9 -5 1 -5 -18z"/>
<path d="M1072 2600 c0 -19 2 -27 5 -17 2 9 2 25 0 35 -3 9 -5 1 -5 -18z"/>
<path d="M1083 2440 c0 -36 2 -50 4 -32 2 17 2 47 0 65 -2 17 -4 3 -4 -33z"/>
<path d="M1473 2365 c0 -27 2 -38 4 -22 2 15 2 37 0 50 -2 12 -4 0 -4 -28z"/>
<path d="M1093 2215 c0 -38 2 -53 4 -32 2 20 2 52 0 70 -2 17 -4 1 -4 -38z"/>
</g>
</svg>
