<?xml version="1.0" standalone="no"?>
<!DOCTYPE svg PUBLIC "-//W3C//DTD SVG 20010904//EN"
 "http://www.w3.org/TR/2001/REC-SVG-20010904/DTD/svg10.dtd">
<svg version="1.0" xmlns="http://www.w3.org/2000/svg"
 width="244.000000pt" height="305.000000pt" viewBox="0 0 244.000000 305.000000"
 preserveAspectRatio="xMidYMid meet">
<metadata>
Created by potrace 1.16, written by Peter Selinger 2001-2019
</metadata>
<g transform="translate(0.000000,305.000000) scale(0.100000,-0.100000)"
fill="#000000" stroke="none">
<path d="M920 2895 c0 -11 -3 -31 -5 -45 -5 -22 -4 -22 4 -5 6 13 10 -150 10
-462 1 -266 -2 -483 -6 -483 -5 1 -23 14 -42 30 l-34 29 2 153 c2 208 9 306
32 486 23 179 20 228 -4 67 -27 -173 -36 -283 -42 -520 l-6 -220 52 -33 51
-32 35 30 c18 16 38 30 43 30 13 0 13 296 0 475 -12 158 -64 493 -80 509 -7 7
-10 4 -10 -9z"/>
<path d="M1362 2890 c0 -14 2 -19 5 -12 2 6 2 18 0 25 -3 6 -5 1 -5 -13z"/>
<path d="M1101 2850 c-1 -30 -1 -211 -1 -402 0 -234 -3 -348 -10 -348 -5 0
-11 -10 -11 -22 -1 -13 -5 -5 -9 17 -5 27 -8 0 -9 -84 l-1 -125 30 -25 c27
-23 29 -29 21 -56 -5 -16 -10 -22 -10 -13 -2 39 -24 68 -58 74 -43 8 -80 -15
-100 -64 l-15 -37 -19 37 c-35 67 -85 85 -133 47 -17 -14 -26 -30 -26 -50 0
-27 2 -29 41 -29 33 0 47 -6 70 -31 28 -30 40 -79 19 -79 -37 0 -11 -124 45
-208 19 -30 35 -61 35 -69 0 -8 -13 -31 -30 -50 -24 -27 -30 -43 -30 -78 0
-25 -4 -45 -10 -45 -12 0 -22 39 -18 71 2 24 -9 117 -18 152 -4 12 -16 17 -40
17 -30 0 -37 -5 -49 -33 -19 -45 -8 -84 49 -189 25 -47 46 -90 46 -97 0 -20
-18 -11 -24 12 -3 13 -23 46 -44 73 -22 27 -47 63 -56 81 -23 45 -21 118 5
154 29 41 22 71 -21 85 -45 15 -88 0 -101 -34 -7 -19 -5 -41 11 -88 47 -148
32 -173 -200 -316 -196 -121 -195 -121 -45 31 l140 142 42 -6 43 -6 -7 98 c-3
54 -10 103 -15 108 -7 7 -9 -22 -6 -83 l4 -92 -30 5 c-29 6 -42 -5 -211 -175
-99 -99 -175 -180 -170 -180 5 0 39 11 75 25 36 13 136 50 222 81 145 52 157
59 160 83 2 21 7 25 28 23 37 -5 98 -48 120 -85 30 -49 26 -75 -14 -92 -32
-13 -35 -20 -64 -122 -17 -59 -53 -187 -80 -283 -28 -96 -49 -177 -46 -179 2
-2 14 9 26 25 13 16 39 47 58 70 19 23 42 50 51 61 217 267 240 297 234 312
-4 9 -9 31 -12 48 l-6 33 48 0 47 0 -6 -38 c-15 -100 -28 -214 -23 -218 2 -3
10 39 16 93 19 155 21 163 42 163 23 0 23 -12 4 -93 -18 -79 -65 -292 -66
-303 0 -5 -5 0 -10 11 -7 16 -9 14 -6 -13 2 -18 0 -35 -5 -38 -4 -3 -8 -22 -8
-42 1 -36 1 -36 24 23 79 207 128 361 124 397 -4 46 13 48 45 6 l20 -27 -32
-36 c-21 -25 -30 -43 -26 -58 3 -12 14 -71 24 -132 33 -181 90 -478 94 -482 2
-2 16 61 31 139 15 79 33 172 41 208 8 36 22 118 31 183 l17 117 -26 28 c-34
35 -34 42 3 77 32 31 33 30 30 -30 -1 -27 24 -110 79 -265 44 -124 80 -218 80
-210 1 9 -12 119 -28 245 -42 324 -41 300 -11 299 65 -4 63 -3 56 -31 -3 -16
-8 -37 -11 -49 -5 -16 32 -68 171 -239 98 -120 180 -213 182 -207 2 7 -24 110
-58 229 -94 332 -92 327 -115 332 -69 12 -33 116 56 161 52 27 67 25 71 -7 3
-25 13 -31 123 -71 66 -24 162 -60 214 -79 51 -19 95 -32 97 -30 2 2 -72 81
-164 177 -162 166 -169 172 -200 166 l-31 -7 6 92 c7 109 -10 119 -21 12 -4
-38 -9 -86 -12 -108 l-5 -40 123 -86 c68 -48 147 -102 177 -120 29 -18 49 -35
44 -36 -10 -4 -313 114 -326 126 -4 5 -3 19 3 33 10 22 8 28 -19 56 -26 26
-31 38 -31 80 0 27 7 71 15 98 8 27 15 63 15 80 0 55 -54 80 -115 52 -30 -14
-32 -33 -5 -73 24 -36 27 -110 6 -158 -8 -18 -32 -56 -54 -86 -23 -29 -43 -59
-45 -65 -2 -6 -7 -8 -11 -5 -4 4 16 50 43 103 33 62 51 109 51 131 0 44 -31
77 -67 73 -24 -3 -28 -10 -40 -68 -7 -36 -11 -77 -9 -92 6 -30 -1 -58 -15 -58
-4 0 -11 17 -15 38 -4 20 -15 49 -25 64 -20 28 -26 93 -9 103 6 4 24 33 40 65
34 67 40 139 15 160 -23 19 -18 39 20 77 29 29 40 34 72 31 35 -3 38 -1 35 22
-7 48 -29 70 -71 70 -31 0 -44 -6 -65 -31 -14 -17 -26 -37 -26 -45 0 -8 -4
-14 -10 -14 -5 0 -10 7 -10 16 0 28 -65 84 -98 84 -35 0 -47 -12 -59 -60 l-10
-35 -5 32 c-4 26 1 38 24 60 l28 27 0 155 c0 182 -18 621 -29 736 -6 55 -9
-37 -10 -292 0 -205 -5 -394 -10 -420 -28 -140 -25 -135 -31 -53 l-6 75 -2
-80 c-1 -44 2 -86 7 -94 10 -16 2 -53 -10 -45 -5 3 -9 56 -9 118 0 209 -27
438 -68 581 -11 37 -13 31 -42 -111 -27 -136 -40 -265 -40 -406 0 -65 -4 -118
-9 -118 -4 0 -9 100 -10 223 -1 223 -16 553 -31 676 l-7 66 -2 -55z m129 -811
c0 -283 -3 -418 -10 -414 -6 4 -11 108 -12 283 -2 249 -3 261 -8 112 l-5 -165
-9 150 c-7 119 -6 179 7 293 15 132 21 162 32 162 2 0 4 -189 5 -421z m-78
-134 c3 -14 1 -28 -3 -31 -5 -3 -9 9 -9 25 0 38 6 40 12 6z m37 -127 c1 -26
-3 -49 -7 -52 -4 -2 -8 27 -8 66 0 39 3 62 7 51 4 -10 8 -39 8 -65z m-133 -18
c8 0 14 -4 14 -10 0 -5 -7 -10 -15 -10 -20 0 -19 -16 6 -68 16 -32 20 -54 16
-85 -3 -22 -1 -49 4 -59 6 -11 9 -27 7 -36 -2 -12 -15 -2 -46 36 -32 41 -42
62 -42 91 0 24 -7 42 -20 54 -11 9 -20 21 -20 26 0 20 53 72 67 67 8 -4 21 -6
29 -6z m436 -36 c9 -20 8 -31 -5 -54 -9 -15 -17 -38 -17 -51 0 -23 -50 -108
-77 -131 -14 -12 -15 -10 -9 17 5 17 7 54 7 82 -2 38 4 64 21 93 22 39 22 42
6 54 -24 17 -23 24 5 28 30 5 56 -9 69 -38z m-316 -114 c33 -13 30 -30 -5 -30
-33 0 -41 14 -41 69 0 53 14 62 18 11 3 -33 8 -43 28 -50z m20 23 c-2 -3 -10
-2 -16 2 -9 5 -9 10 -1 18 6 6 12 20 13 32 0 11 3 5 5 -13 3 -19 2 -36 -1 -39z
m144 7 c0 -52 -16 -72 -51 -63 -26 7 -24 22 6 33 21 8 25 16 25 50 0 25 4 39
10 35 6 -3 10 -28 10 -55z m-388 -63 c29 -71 31 -77 19 -77 -16 0 -39 40 -46
83 -10 50 6 47 27 -6z m155 11 c-3 -7 -5 -2 -5 12 0 14 2 19 5 13 2 -7 2 -19
0 -25z m260 0 c-3 -7 -5 -2 -5 12 0 14 2 19 5 13 2 -7 2 -19 0 -25z m176 0
c-3 -18 -13 -46 -22 -63 -15 -28 -16 -29 -19 -7 -4 24 27 102 40 102 4 0 5
-15 1 -32z m-302 -47 c11 17 10 -12 -1 -56 -7 -28 -8 -28 -9 -5 -1 14 -4 36
-6 50 -3 14 -2 19 1 11 5 -11 8 -11 15 0z m-111 -31 c0 -5 11 -34 25 -64 34
-74 31 -94 -4 -26 -32 62 -48 115 -31 105 5 -3 10 -10 10 -15z m196 -73 c-20
-39 -34 -60 -31 -44 8 40 58 142 63 128 2 -6 -13 -44 -32 -84z m-290 -14 c-11
-11 -19 6 -11 24 8 17 8 17 12 0 3 -10 2 -21 -1 -24z m414 16 c0 -11 -4 -17
-10 -14 -5 3 -10 13 -10 21 0 8 5 14 10 14 6 0 10 -9 10 -21z m-60 -54 c-12
-15 -40 -21 -40 -8 0 3 8 15 17 25 21 23 43 7 23 -17z m-280 10 c7 -9 10 -18
7 -21 -10 -11 -37 5 -37 21 0 19 14 19 30 0z m-57 -149 c18 -80 7 -77 -17 6
-18 64 -20 87 -7 73 5 -6 16 -41 24 -79z m381 -8 c-24 -81 -30 -64 -8 24 10
40 20 64 22 54 2 -11 -4 -46 -14 -78z m-331 -25 c10 -16 37 -17 37 -2 0 21 45
4 48 -18 3 -18 -1 -23 -20 -23 -13 0 -30 -6 -37 -12 -22 -23 -49 39 -49 112
l1 45 6 -45 c4 -25 10 -51 14 -57z m72 87 c-3 -5 -15 -10 -26 -10 -11 0 -17 5
-14 10 3 6 15 10 26 10 11 0 17 -4 14 -10z m145 0 c0 -5 -4 -10 -9 -10 -6 0
-13 5 -16 10 -3 6 1 10 9 10 9 0 16 -4 16 -10z m65 -74 c-8 -53 -30 -85 -47
-68 -7 7 -23 12 -36 12 -19 0 -23 5 -20 22 4 29 35 35 53 11 20 -27 37 -5 44
59 3 30 7 43 9 29 2 -13 1 -43 -3 -65z m-444 -49 c-15 -15 -36 6 -27 28 5 15
7 15 22 0 13 -12 14 -19 5 -28z m594 -2 c0 -10 -6 -20 -12 -22 -8 -3 -13 5
-13 22 0 17 5 25 13 23 6 -3 12 -13 12 -23z m-664 -108 c-8 -8 -11 -5 -11 9 0
27 14 41 18 19 2 -9 -1 -22 -7 -28z m729 7 c0 -14 -5 -24 -11 -22 -6 2 -10 7
-10 11 1 4 1 14 1 22 0 8 5 15 10 15 6 0 10 -12 10 -26z m5 -108 c10 -27 65
-141 122 -253 58 -113 103 -206 101 -209 -4 -4 -89 101 -210 260 -53 70 -67
94 -61 110 4 12 8 50 9 86 1 36 3 67 3 70 2 11 19 -19 36 -64z m-715 34 c0
-10 -26 -68 -59 -127 -32 -59 -89 -166 -126 -238 -62 -120 -85 -159 -85 -142
0 3 25 91 56 194 31 103 59 198 61 210 6 28 18 37 66 52 20 7 37 17 37 23 0
14 30 48 42 48 4 0 8 -9 8 -20z m360 -56 c0 -14 -14 -33 -21 -28 -15 9 -10 31
6 31 8 0 15 -1 15 -3z m154 -26 c3 -13 10 -45 15 -73 6 -27 24 -113 41 -190
16 -77 30 -142 29 -145 0 -3 -25 67 -55 155 -41 120 -54 174 -54 217 0 57 15
79 24 36z m-175 -290 l-2 -253 -13 125 -13 125 4 -110 c4 -127 3 -125 -40 98
l-32 168 29 40 c35 48 52 51 32 4 -7 -19 -14 -42 -14 -52 1 -10 10 10 22 45
11 34 22 62 24 62 2 0 3 -114 3 -252z"/>
<path d="M1213 2320 c0 -36 2 -50 4 -32 2 17 2 47 0 65 -2 17 -4 3 -4 -33z"/>
<path d="M1193 685 c0 -33 2 -45 4 -27 2 18 2 45 0 60 -2 15 -4 0 -4 -33z"/>
<path d="M1530 2885 c0 -11 -3 -31 -5 -45 -5 -22 -4 -22 4 -5 6 13 10 -148 10
-457 1 -263 -2 -478 -5 -478 -3 0 -21 12 -41 27 l-36 28 7 225 c3 124 8 257
11 295 4 61 3 64 -5 25 -5 -25 -14 -164 -21 -310 -9 -213 -9 -265 1 -268 7 -3
30 -20 51 -39 l37 -34 21 22 c11 12 30 27 43 33 l23 12 -1 235 c-2 257 -12
380 -51 594 -22 126 -43 192 -43 140z"/>
<path d="M902 2800 c0 -14 2 -19 5 -12 2 6 2 18 0 25 -3 6 -5 1 -5 -13z"/>
<path d="M1512 2790 c0 -14 2 -19 5 -12 2 6 2 18 0 25 -3 6 -5 1 -5 -13z"/>
<path d="M1352 2760 c0 -14 2 -19 5 -12 2 6 2 18 0 25 -3 6 -5 1 -5 -13z"/>
<path d="M1491 2663 c-7 -49 -15 -94 -17 -100 -2 -7 0 -13 4 -13 8 0 36 189
29 196 -2 2 -9 -35 -16 -83z"/>
<path d="M1083 2655 c0 -22 2 -30 4 -17 2 12 2 30 0 40 -3 9 -5 -1 -4 -23z"/>
<path d="M1342 2610 c0 -19 2 -27 5 -17 2 9 2 25 0 35 -3 9 -5 1 -5 -18z"/>
<path d="M1073 2460 c0 -47 2 -66 4 -42 2 23 2 61 0 85 -2 23 -4 4 -4 -43z"/>
<path d="M1334 2390 c0 -52 1 -74 3 -47 2 26 2 68 0 95 -2 26 -3 4 -3 -48z"/>
<path d="M983 625 c0 -22 2 -30 4 -17 2 12 2 30 0 40 -3 9 -5 -1 -4 -23z"/>
</g>
</svg>
