<?xml version="1.0" standalone="no"?>
<!DOCTYPE svg PUBLIC "-//W3C//DTD SVG 20010904//EN"
 "http://www.w3.org/TR/2001/REC-SVG-20010904/DTD/svg10.dtd">
<svg version="1.0" xmlns="http://www.w3.org/2000/svg"
 width="244.000000pt" height="305.000000pt" viewBox="0 0 244.000000 305.000000"
 preserveAspectRatio="xMidYMid meet">
<metadata>
Created by potrace 1.16, written by Peter Selinger 2001-2019
</metadata>
<g transform="translate(0.000000,305.000000) scale(0.100000,-0.100000)"
fill="#000000" stroke="none">
<path d="M897 2903 c-3 -4 -8 -26 -11 -48 -4 -30 -3 -34 3 -15 6 15 9 -167 10
-457 1 -266 -2 -483 -5 -483 -3 0 -24 15 -46 33 l-41 32 6 175 c7 188 29 423
52 560 16 92 18 136 4 80 -37 -148 -65 -430 -71 -717 l-2 -132 55 -39 56 -39
34 28 c79 66 73 43 65 228 -12 293 -27 442 -62 620 -19 96 -36 177 -38 179 -2
2 -6 0 -9 -5z"/>
<path d="M1292 2890 c0 -14 2 -19 5 -12 2 6 2 18 0 25 -3 6 -5 1 -5 -13z"/>
<path d="M1557 2879 c-9 -34 -9 -41 3 -34 7 4 10 -155 10 -469 0 -262 -3 -476
-7 -476 -4 0 -24 12 -45 26 l-38 27 0 152 c0 184 14 368 40 530 20 122 23 152
16 144 -9 -9 -46 -248 -55 -359 -5 -63 -13 -200 -16 -305 l-6 -190 38 -23 c21
-12 46 -28 55 -34 14 -10 21 -9 40 8 13 11 36 26 51 34 l28 14 -1 105 c-3 255
-27 508 -67 716 -27 144 -37 170 -46 134z"/>
<path d="M1171 2874 c0 -11 3 -14 6 -6 3 7 2 16 -1 19 -3 4 -6 -2 -5 -13z"/>
<path d="M1290 2780 c-2 -47 -3 -155 -2 -240 l2 -155 -19 80 c-11 44 -23 94
-28 110 -10 30 -10 30 -26 -25 -8 -30 -17 -64 -20 -75 -3 -11 -6 36 -7 105 -3
112 -4 103 -11 -90 -4 -119 -12 -259 -18 -312 -6 -54 -11 -147 -11 -208 0
-113 -14 -148 -25 -62 -9 64 -35 195 -40 201 -9 8 -23 -46 -34 -129 -12 -92
-14 -85 42 -123 23 -15 33 -86 17 -117 -11 -21 -21 -22 -62 -5 -14 6 -18 2
-18 -17 0 -29 26 -68 46 -68 8 0 25 11 38 25 32 35 40 31 32 -14 -3 -23 -2
-42 4 -46 24 -15 9 -34 -26 -33 -23 1 -42 -5 -56 -19 l-20 -20 36 -7 c34 -7
36 -9 36 -46 0 -22 -4 -40 -8 -40 -5 0 -34 26 -65 58 -49 52 -77 105 -77 148
0 7 -7 14 -15 18 -25 9 -17 43 17 71 25 21 40 26 72 23 40 -3 41 -2 39 26 -6
88 -135 96 -163 10 -12 -34 -30 -46 -30 -20 0 8 -11 28 -25 44 -55 65 -155 40
-155 -39 0 -16 7 -19 43 -19 49 0 81 -19 102 -60 14 -27 14 -31 -6 -49 -19
-17 -21 -27 -15 -67 6 -48 40 -116 83 -167 30 -37 29 -45 -7 -87 -53 -61 -52
-105 3 -135 18 -9 42 -16 52 -13 18 3 20 11 17 70 -2 36 1 68 6 72 5 3 32 -2
61 -12 52 -16 52 -16 47 -52 -4 -22 -3 -28 3 -16 15 38 23 -3 11 -56 -13 -51
-30 -51 -24 0 4 27 4 27 -4 2 -6 -20 -16 -26 -50 -31 -23 -3 -48 -11 -54 -17
-19 -19 -44 -14 -78 14 -41 35 -61 75 -59 121 1 53 -12 136 -24 151 -15 19
-62 14 -83 -9 -25 -28 -21 -89 9 -142 14 -23 45 -78 71 -122 55 -95 61 -153
24 -221 -102 -182 -261 -454 -265 -450 -4 3 102 346 129 418 7 18 19 28 42 32
56 11 67 26 73 97 6 74 -5 104 -67 179 -45 55 -66 94 -75 143 -6 29 -2 45 19
81 31 53 33 72 7 86 -30 15 -97 12 -115 -6 -20 -20 -20 -69 -1 -124 19 -54 19
-113 0 -149 -10 -20 -61 -56 -172 -121 -87 -51 -173 -102 -191 -113 -61 -36
-43 -10 60 85 194 179 182 170 230 166 l43 -3 -3 55 c-1 30 -5 80 -8 110 -6
49 -7 52 -16 30 -9 -24 -3 -124 9 -157 5 -13 0 -15 -31 -9 -36 7 -39 5 -164
-108 -204 -185 -256 -235 -252 -239 6 -5 458 144 478 156 6 5 12 17 12 27 0
27 12 31 53 18 77 -24 155 -119 126 -154 -6 -8 -19 -14 -29 -14 -10 0 -23 -6
-29 -14 -7 -8 -46 -124 -88 -258 -91 -292 -95 -309 -91 -314 2 -2 45 43 95 99
327 368 304 340 297 372 -3 17 -8 40 -11 53 -5 21 -3 22 81 22 48 0 97 -5 109
-11 39 -21 68 -55 61 -74 -5 -13 -9 -14 -15 -3 -7 10 -9 8 -9 -6 0 -11 -7 -27
-15 -36 -13 -14 -14 -26 -6 -62 13 -56 17 -184 8 -263 -6 -57 -6 -58 3 -10 20
109 21 107 60 -80 20 -99 40 -197 44 -219 4 -21 9 -36 11 -35 2 2 19 87 39
189 20 102 39 195 42 207 2 14 10 20 18 17 10 -4 14 22 19 123 3 70 1 133 -3
138 -5 6 -10 28 -12 49 -2 30 3 43 21 58 21 16 38 18 115 16 91 -3 91 -3 87
-28 -12 -74 -14 -71 184 -294 105 -118 191 -211 193 -207 1 4 -27 103 -64 221
-36 118 -73 240 -82 270 -19 68 -25 76 -62 84 -34 6 -37 20 -16 70 15 36 61
75 113 96 41 15 63 8 63 -22 0 -22 18 -30 223 -97 122 -41 229 -76 237 -79 17
-5 -144 156 -272 271 -80 72 -90 78 -118 72 l-31 -7 7 91 c9 115 -7 120 -24 9
-7 -46 -15 -96 -18 -113 -5 -29 -1 -32 186 -150 106 -66 194 -123 196 -127 5
-7 -100 29 -304 103 -63 23 -63 24 -57 56 5 28 1 37 -21 56 -38 33 -43 96 -14
196 22 75 22 81 6 105 -13 21 -24 26 -59 26 -42 0 -87 -21 -87 -41 0 -6 11
-27 25 -47 27 -39 32 -91 15 -138 -6 -15 -32 -54 -59 -88 -66 -83 -81 -116
-88 -190 l-6 -64 68 -123 c106 -193 115 -210 152 -277 20 -35 33 -65 31 -67
-4 -5 -62 61 -227 258 -64 77 -72 91 -66 115 4 15 9 64 10 108 3 89 6 96 91
239 65 109 78 171 45 204 -23 23 -63 28 -78 9 -13 -16 -25 -86 -27 -154 -1
-52 -9 -67 -65 -121 -28 -27 -48 -29 -77 -9 -11 8 -35 16 -54 18 -33 3 -35 5
-47 63 -7 33 -12 63 -13 66 0 6 82 32 105 33 6 1 10 -29 10 -69 l0 -70 35 2
c24 1 42 10 57 28 34 39 34 37 -42 142 -15 20 -14 24 21 70 20 26 45 66 55 88
23 50 25 130 4 139 -25 9 -17 37 21 73 32 30 43 34 78 31 35 -3 41 0 44 18 5
35 -39 78 -81 78 -41 0 -71 -22 -97 -73 l-17 -35 -13 38 c-12 39 -58 76 -93
76 -28 0 -79 -56 -75 -82 3 -20 8 -23 45 -20 37 3 47 -1 73 -26 35 -35 38 -57
10 -72 -13 -7 -20 -21 -20 -38 0 -33 -44 -106 -91 -150 -38 -36 -49 -33 -49
12 0 31 3 34 36 41 l37 6 -20 21 c-13 13 -34 20 -57 20 l-36 0 6 57 c4 31 8
58 10 60 2 2 14 -9 27 -24 17 -20 29 -26 44 -21 20 6 43 44 43 71 0 18 -2 18
-34 4 -37 -17 -56 3 -56 58 0 35 6 49 26 68 15 14 31 25 37 25 13 0 2 166 -14
206 -15 40 -23 21 -43 -106 -10 -58 -21 -109 -25 -113 -13 -13 -21 155 -22
442 -1 146 -5 331 -9 411 -6 133 -7 138 -10 60z m-62 -691 c1 -243 0 -449 -3
-460 -9 -27 -32 -12 -39 26 -8 40 3 115 16 115 6 0 7 -24 3 -57 -5 -42 -3 -54
4 -43 13 18 14 134 4 286 l-8 109 -7 -105 c-3 -58 -11 -123 -16 -145 l-10 -40
-1 37 c0 20 -4 45 -7 55 -4 13 -3 14 3 5 6 -8 9 24 8 90 l-2 103 6 -85 c5 -66
8 -30 12 160 4 135 12 278 19 318 7 39 13 72 14 72 1 0 2 -198 4 -441z m-21
-251 c-3 -8 -6 -5 -6 6 -1 11 2 17 5 13 3 -3 4 -12 1 -19z m-40 -165 c-3 -10
-5 -4 -5 12 0 17 2 24 5 18 2 -7 2 -21 0 -30z m-235 -99 c29 -59 88 -126 136
-155 60 -37 67 -67 12 -47 -69 24 -168 140 -185 218 -10 46 10 37 37 -16z
m638 21 c0 -63 -89 -178 -165 -214 -53 -25 -55 -25 -55 -7 0 8 23 29 51 47 53
34 134 132 145 175 8 32 24 31 24 -1z m-373 -27 c-3 -7 -5 -2 -5 12 0 14 2 19
5 13 2 -7 2 -19 0 -25z m80 -5 c-3 -10 -5 -4 -5 12 0 17 2 24 5 18 2 -7 2 -21
0 -30z m-40 -80 c-3 -10 -5 -4 -5 12 0 17 2 24 5 18 2 -7 2 -21 0 -30z m93
-15 c-1 -28 -2 -30 -11 -15 -6 10 -8 25 -5 33 9 24 16 16 16 -18z m-171 10
c-1 -7 -5 -24 -9 -38 -7 -22 -8 -21 -9 13 -1 20 4 37 9 37 6 0 10 -6 9 -12z
m20 -110 c0 -16 -3 -28 -9 -28 -6 0 -9 25 -9 58 1 47 3 52 9 27 4 -16 8 -42 9
-57z m127 -26 c-13 -13 -17 9 -9 55 l8 48 3 -49 c2 -26 1 -51 -2 -54z m69
-198 c4 -32 3 -44 -3 -34 -5 8 -12 40 -15 70 -7 67 8 36 18 -36z m-218 44 c-3
-7 -5 -2 -5 12 0 14 2 19 5 13 2 -7 2 -19 0 -25z m25 7 c3 -14 1 -25 -3 -25
-5 0 -9 11 -9 25 0 14 2 25 4 25 2 0 6 -11 8 -25z m115 -7 c-3 -8 -6 -5 -6 6
-1 11 2 17 5 13 3 -3 4 -12 1 -19z m20 0 c-3 -8 -6 -5 -6 6 -1 11 2 17 5 13 3
-3 4 -12 1 -19z m-177 -108 c13 -8 13 -10 -2 -10 -9 0 -20 5 -23 10 -8 13 5
13 25 0z m27 -12 c-3 -8 -6 -5 -6 6 -1 11 2 17 5 13 3 -3 4 -12 1 -19z m193
12 c0 -5 -7 -10 -15 -10 -8 0 -15 5 -15 10 0 6 7 10 15 10 8 0 15 -4 15 -10z
m-123 -162 c-3 -8 -6 -5 -6 6 -1 11 2 17 5 13 3 -3 4 -12 1 -19z m-13 -65 c4
-16 5 -147 4 -292 l-2 -264 -34 154 c-39 175 -41 213 -24 322 15 98 44 138 56
80z m-83 -96 c-13 -13 -15 11 -4 40 7 16 8 15 11 -6 2 -13 -1 -28 -7 -34z
m196 -169 c-3 -7 -5 -2 -5 12 0 14 2 19 5 13 2 -7 2 -19 0 -25z"/>
<path d="M1213 755 c0 -38 2 -53 4 -32 2 20 2 52 0 70 -2 17 -4 1 -4 -38z"/>
<path d="M1163 2535 c0 -27 2 -38 4 -22 2 15 2 37 0 50 -2 12 -4 0 -4 -28z"/>
<path d="M1347 523 c-3 -10 -2 -38 3 -63 l7 -45 2 63 c1 62 -3 78 -12 45z"/>
</g>
</svg>
