<?xml version="1.0" standalone="no"?>
<!DOCTYPE svg PUBLIC "-//W3C//DTD SVG 20010904//EN"
 "http://www.w3.org/TR/2001/REC-SVG-20010904/DTD/svg10.dtd">
<svg version="1.0" xmlns="http://www.w3.org/2000/svg"
 width="244.000000pt" height="305.000000pt" viewBox="0 0 244.000000 305.000000"
 preserveAspectRatio="xMidYMid meet">
<metadata>
Created by potrace 1.16, written by Peter Selinger 2001-2019
</metadata>
<g transform="translate(0.000000,305.000000) scale(0.100000,-0.100000)"
fill="#000000" stroke="none">
<path d="M887 2895 c-7 -21 -33 -144 -42 -197 -3 -18 -8 -40 -10 -48 -15 -52
-37 -309 -42 -501 l-6 -227 37 -17 c20 -10 43 -27 51 -38 14 -20 15 -20 37 -1
13 10 25 21 28 24 3 3 18 11 34 18 l29 13 -7 217 c-3 119 -11 262 -16 317 -10
105 -41 287 -48 281 -2 -2 3 -53 12 -113 31 -220 56 -646 39 -669 -14 -18 -80
-54 -86 -47 -4 3 -7 220 -7 481 0 262 3 472 6 469 4 -4 13 -30 20 -59 12 -44
13 -47 9 -13 -2 22 -11 60 -18 85 -11 36 -15 41 -20 25z"/>
<path d="M1562 2861 c-44 -146 -79 -428 -88 -712 l-7 -225 31 -13 c17 -7 38
-21 48 -32 22 -24 36 -24 58 0 10 11 31 25 48 32 l31 13 -7 235 c-6 223 -19
367 -47 526 -19 108 -22 59 -4 -62 22 -148 33 -280 41 -490 l6 -178 -42 -28
c-23 -15 -45 -25 -50 -22 -12 7 -11 926 0 941 6 6 7 21 2 34 -7 20 -9 18 -20
-19z"/>
<path d="M1596 2800 c8 -43 14 -51 14 -19 0 13 -5 31 -10 39 -7 11 -8 5 -4
-20z"/>
<path d="M1221 2564 c-5 -22 -14 -57 -20 -79 -22 -85 -42 -268 -48 -442 -6
-181 -16 -227 -28 -135 -10 72 -34 184 -40 191 -11 11 -23 -22 -34 -96 -16
-104 -15 -108 24 -134 38 -27 49 -54 39 -105 -8 -41 -23 -50 -54 -34 -40 21
-48 -21 -12 -62 21 -24 38 -22 68 7 32 32 38 31 30 -1 -9 -36 1 -61 28 -68 14
-3 29 -19 36 -36 18 -44 25 -44 49 -5 11 19 32 40 47 45 24 10 26 14 20 50 -3
22 -4 40 -2 40 3 0 16 -11 30 -25 39 -39 70 -31 85 23 11 37 1 48 -27 31 -31
-19 -49 -5 -55 43 -5 49 11 83 49 100 19 9 24 18 23 47 0 44 -24 179 -32 188
-10 10 -22 -35 -42 -149 -10 -60 -21 -108 -25 -108 -4 0 -10 87 -13 193 -3
105 -11 230 -18 277 -11 84 -53 267 -63 277 -2 3 -9 -12 -15 -33z m59 -239
c12 -81 28 -410 29 -588 1 -84 -1 -98 -16 -104 -10 -3 -25 -12 -34 -20 -15
-12 -16 26 -17 454 -1 495 1 505 38 258z"/>
<path d="M755 1861 c-21 -4 -35 -16 -47 -40 -22 -45 -15 -61 26 -54 42 7 91
-18 111 -57 14 -27 14 -30 -7 -50 -21 -19 -21 -24 -11 -75 10 -47 40 -103 98
-181 14 -19 13 -23 -14 -53 -46 -52 -57 -86 -37 -116 20 -31 61 -48 94 -40 20
5 23 10 17 33 -26 106 -17 119 62 91 68 -23 99 -24 107 -3 7 19 0 34 -17 34
-7 0 -36 11 -64 25 -89 41 -182 155 -183 223 0 33 14 27 29 -14 18 -49 119
-155 176 -183 25 -13 48 -21 51 -18 11 11 -9 55 -30 65 -63 28 -146 132 -146
182 0 14 -9 33 -20 43 -27 23 -25 33 11 69 27 28 34 30 75 24 l44 -6 0 35 c0
38 -23 60 -75 69 -38 7 -73 -16 -91 -60 -18 -43 -27 -43 -42 0 -8 22 -24 39
-46 50 -19 9 -36 15 -38 15 -1 -1 -16 -4 -33 -8z"/>
<path d="M1434 1855 c-33 -13 -44 -32 -44 -70 0 -21 3 -22 45 -18 39 5 47 2
75 -25 35 -35 38 -57 10 -72 -13 -7 -20 -21 -20 -39 0 -40 -55 -118 -115 -163
-81 -61 -90 -107 -13 -69 59 28 153 124 175 177 10 24 22 43 26 41 5 -1 8 -6
8 -10 -1 -4 -1 -15 -1 -25 0 -29 -73 -136 -114 -167 -19 -15 -61 -38 -93 -50
-63 -26 -71 -36 -48 -55 13 -11 27 -10 80 5 98 26 106 18 80 -87 -6 -23 -3
-28 17 -33 47 -12 108 27 108 70 0 13 -18 44 -40 71 -36 40 -39 49 -28 64 104
142 136 235 88 260 -30 16 -24 38 18 77 31 29 43 34 76 31 43 -3 52 7 42 47
-8 32 -59 58 -96 50 -31 -7 -80 -57 -80 -81 0 -25 -19 -15 -33 19 -24 56 -70
75 -123 52z"/>
<path d="M1094 1582 c-12 -2 -29 -11 -38 -21 -16 -18 -15 -19 21 -26 67 -12
85 -42 99 -171 l6 -61 -31 -11 c-25 -9 -31 -16 -31 -41 0 -25 4 -30 28 -33 21
-2 28 -9 30 -31 3 -23 -1 -28 -27 -33 -17 -4 -36 -13 -43 -21 -17 -20 2 -48
33 -48 35 0 49 -13 50 -43 0 -34 33 -115 42 -106 4 4 7 2 7 -4 0 -47 -56 9
-66 67 -10 53 -22 71 -49 71 -26 0 -40 26 -37 73 2 26 0 27 -43 27 -25 0 -57
-7 -70 -16 -56 -37 -139 40 -141 130 -2 68 -14 138 -27 154 -10 13 -55 16 -73
4 -22 -14 -36 -54 -30 -87 4 -18 35 -79 69 -136 83 -137 89 -155 92 -252 1
-45 5 -89 9 -98 5 -10 -10 -37 -46 -80 -65 -79 -249 -289 -254 -289 -6 0 19
52 50 105 150 259 206 367 206 398 0 62 -30 135 -83 204 -97 127 -105 163 -57
249 l31 52 -23 16 c-29 20 -97 21 -126 0 -28 -19 -28 -47 -1 -136 28 -92 22
-143 -21 -179 -27 -23 -30 -30 -21 -47 17 -31 14 -38 -21 -49 -18 -6 -91 -32
-163 -58 -159 -57 -187 -66 -181 -56 3 4 71 48 151 97 160 97 213 129 234 143
14 9 13 28 -8 106 -6 22 -11 57 -11 77 0 20 -5 40 -11 44 -9 5 -11 -17 -7 -85
l6 -91 -33 6 c-35 6 -62 -15 -275 -210 -30 -28 -77 -71 -103 -94 -27 -24 -47
-45 -45 -47 2 -2 97 28 213 66 116 38 227 74 248 79 30 9 37 16 37 35 0 33 13
38 59 24 52 -15 110 -64 128 -107 16 -40 7 -57 -36 -65 -31 -7 -24 10 -121
-297 -28 -91 -60 -192 -71 -224 -10 -33 -17 -61 -15 -63 2 -2 39 35 82 83 44
48 108 120 144 159 36 39 92 101 124 139 l60 67 -11 42 c-6 23 -9 45 -7 49 3
5 43 8 90 8 90 0 122 -10 162 -52 l22 -25 -35 -32 c-19 -17 -35 -38 -35 -46 0
-8 13 -74 29 -147 15 -73 45 -215 66 -316 21 -100 39 -181 41 -179 1 1 16 67
33 147 17 80 37 177 46 215 8 39 25 119 36 179 l20 109 -33 34 c-36 37 -34 50
16 87 22 17 46 22 128 24 l101 4 -7 -27 c-20 -79 -21 -75 60 -165 42 -47 127
-138 188 -204 61 -65 115 -125 119 -132 4 -8 12 -14 16 -14 8 0 -19 88 -145
487 -26 81 -27 83 -65 93 -43 12 -47 25 -24 69 18 37 59 71 112 95 49 22 73
16 73 -18 0 -22 8 -28 63 -45 34 -10 142 -44 240 -76 98 -31 180 -55 183 -53
2 3 -13 20 -33 38 -21 19 -83 75 -138 125 -189 174 -206 187 -241 180 l-31 -5
5 97 c3 65 1 95 -6 88 -5 -5 -13 -56 -16 -112 l-7 -103 45 6 45 7 143 -129
c79 -70 145 -129 147 -131 2 -2 2 -5 0 -8 -3 -2 -70 32 -150 76 -79 45 -161
90 -182 102 -55 31 -75 52 -88 97 -10 34 -9 50 9 114 27 91 27 101 2 126 -34
34 -140 19 -140 -20 0 -9 11 -31 25 -50 46 -62 29 -129 -62 -242 -62 -76 -75
-126 -54 -204 10 -36 15 -42 58 -55 l47 -15 72 -219 c40 -121 70 -222 68 -224
-6 -6 0 -14 -99 159 -49 85 -104 179 -123 209 -58 91 -85 159 -79 197 3 19 36
83 72 143 75 124 90 166 75 207 -6 16 -17 32 -23 36 -22 14 -66 8 -75 -9 -13
-25 -25 -101 -23 -149 1 -31 -6 -51 -29 -83 -42 -57 -71 -69 -116 -48 -19 9
-53 17 -76 17 -36 0 -40 -2 -35 -21 10 -36 -12 -77 -41 -81 -23 -3 -28 -9 -34
-46 -4 -23 -18 -61 -32 -85 -24 -39 -26 -40 -26 -16 0 15 7 46 15 69 8 23 15
53 15 66 0 20 5 24 29 24 40 0 64 25 51 51 -6 10 -19 19 -29 19 -23 0 -55 35
-48 53 3 8 19 17 36 20 25 5 31 11 31 32 0 20 -7 29 -31 37 l-32 11 7 68 c9
105 37 159 80 159 12 0 27 4 35 9 23 15 -11 41 -52 41 -42 0 -83 -30 -102 -76
-16 -40 -30 -44 -39 -10 -7 29 -57 82 -83 88 -10 2 -28 2 -39 0z m246 -842
c-14 -72 -90 -424 -95 -435 -2 -5 -3 121 -3 280 0 160 2 293 4 297 2 3 26 -17
53 -45 49 -51 49 -53 41 -97z"/>
</g>
</svg>
