<?xml version="1.0" standalone="no"?>
<!DOCTYPE svg PUBLIC "-//W3C//DTD SVG 20010904//EN"
 "http://www.w3.org/TR/2001/REC-SVG-20010904/DTD/svg10.dtd">
<svg version="1.0" xmlns="http://www.w3.org/2000/svg"
 width="244.000000pt" height="305.000000pt" viewBox="0 0 244.000000 305.000000"
 preserveAspectRatio="xMidYMid meet">
<metadata>
Created by potrace 1.16, written by Peter Selinger 2001-2019
</metadata>
<g transform="translate(0.000000,305.000000) scale(0.100000,-0.100000)"
fill="#000000" stroke="none">
<path d="M1531 2860 c-15 -70 -12 -97 4 -35 11 43 13 -20 14 -437 0 -269 -1
-488 -4 -488 -8 0 -68 43 -78 55 -18 22 9 504 39 690 15 97 17 121 9 113 -3
-3 -14 -59 -25 -124 -21 -132 -40 -413 -40 -593 l0 -116 37 -25 c20 -14 41
-29 48 -34 9 -7 68 29 112 68 8 7 -19 529 -32 626 -20 154 -55 339 -65 345 -5
3 -13 -18 -19 -45z"/>
<path d="M918 2400 c2 -275 0 -500 -3 -500 -4 0 -22 12 -41 26 l-34 26 0 117
c0 158 17 386 40 565 11 82 18 151 15 154 -3 3 -5 3 -5 -1 0 -3 -11 -80 -25
-171 -24 -161 -53 -675 -39 -697 3 -5 10 -9 16 -9 6 0 26 -14 45 -31 l35 -30
27 24 c14 14 37 30 50 37 l24 12 -7 211 c-7 228 -18 365 -41 522 -17 114 -46
245 -54 245 -3 0 -5 -225 -3 -500z"/>
<path d="M1342 2860 c0 -14 2 -19 5 -12 2 6 2 18 0 25 -3 6 -5 1 -5 -13z"/>
<path d="M1121 2865 c-1 -5 -2 -199 -2 -430 -1 -408 -4 -441 -27 -295 -7 43
-8 42 -16 -40 -5 -47 -10 -119 -12 -160 l-3 -75 -45 -5 c-49 -6 -70 -24 -85
-75 -8 -27 -9 -28 -16 -10 -4 11 -19 35 -32 52 -20 27 -31 33 -62 33 -45 0
-84 -35 -79 -72 3 -20 8 -23 37 -20 40 3 75 -18 95 -57 13 -25 13 -31 1 -47
-32 -43 -14 -127 47 -214 21 -31 38 -62 38 -70 0 -8 -14 -28 -30 -43 -46 -44
-50 -75 -16 -122 9 -12 12 -25 7 -33 -6 -11 -14 -6 -31 18 -17 24 -23 48 -26
114 -5 110 -15 136 -52 136 -41 0 -62 -28 -62 -81 0 -36 12 -65 64 -155 55
-97 63 -117 60 -154 -3 -29 -1 -39 8 -34 7 4 8 3 4 -5 -4 -6 -11 -9 -15 -6 -9
5 -31 -38 -31 -61 0 -8 5 -12 10 -9 10 6 -59 -134 -103 -210 -13 -22 -46 -82
-73 -134 -27 -51 -50 -87 -52 -79 -2 8 17 80 42 159 24 79 51 169 60 200 14
52 19 57 56 69 49 16 62 37 66 104 3 63 -7 87 -64 161 -77 100 -89 164 -47
243 l25 47 -21 18 c-12 9 -38 17 -59 17 -67 0 -87 -51 -55 -140 19 -54 19
-113 0 -150 -10 -20 -66 -61 -182 -133 -93 -57 -175 -107 -183 -112 -8 -4 46
54 120 129 l135 137 43 -5 43 -6 -7 98 c-9 132 -27 157 -20 30 l4 -97 -33 2
c-30 2 -47 -12 -204 -167 -94 -93 -170 -170 -168 -172 4 -4 401 132 427 145 8
4 16 20 18 35 4 30 6 31 63 11 55 -20 77 -40 101 -93 22 -49 19 -57 -26 -72
-30 -9 -34 -17 -49 -73 -8 -34 -43 -156 -76 -270 -34 -115 -61 -215 -61 -223
0 -9 63 60 141 153 77 92 152 182 167 198 16 17 37 44 48 60 18 26 19 33 7 55
-26 51 -19 60 48 60 l61 0 -5 -88 -5 -87 11 85 c10 67 16 85 30 88 21 4 22
-20 3 -103 -7 -33 -24 -118 -37 -190 -19 -103 -25 -124 -30 -100 -6 26 -7 25
-8 -15 -1 -25 -3 -63 -6 -85 -4 -35 62 157 94 274 15 54 25 45 40 -39 6 -36
33 -173 59 -305 l46 -240 23 115 c33 165 51 258 77 400 l22 125 19 -48 c28
-75 29 -47 1 45 -17 58 -24 95 -19 121 3 20 9 37 13 37 4 0 19 -64 34 -142 15
-79 31 -165 36 -191 15 -72 10 -70 -15 8 -13 39 -24 63 -24 55 -1 -8 15 -62
34 -120 l35 -105 -4 65 c-7 85 -35 354 -42 402 l-6 38 61 0 c33 0 63 -4 66
-10 3 -5 1 -27 -6 -49 -11 -38 -11 -40 37 -99 117 -143 329 -391 331 -388 2 1
-33 128 -77 282 -44 153 -80 280 -80 282 0 2 -16 10 -35 18 -29 12 -35 19 -35
44 0 42 58 104 117 124 52 18 63 15 63 -18 0 -25 9 -29 290 -128 47 -16 102
-36 124 -44 21 -8 40 -13 42 -11 3 2 -77 84 -177 181 -171 167 -183 177 -212
170 l-30 -6 5 81 c6 109 -6 120 -22 19 -25 -157 -37 -135 144 -254 184 -121
221 -148 191 -140 -30 7 -284 105 -316 121 -26 14 -27 17 -16 46 9 23 9 33 1
36 -56 19 -68 92 -33 208 21 72 21 79 6 103 -12 21 -25 28 -56 30 -45 4 -81
-11 -81 -34 0 -8 9 -32 20 -54 37 -73 24 -136 -50 -234 -45 -59 -80 -140 -80
-183 0 -30 -17 -21 -21 12 -4 30 7 58 73 176 66 119 77 172 44 208 -21 23 -58
28 -73 9 -12 -15 -31 -126 -30 -176 0 -33 -28 -82 -51 -90 -19 -6 -14 36 5 47
29 16 22 72 -15 117 -18 21 -32 43 -32 49 0 5 16 33 36 60 46 65 64 109 67
163 1 32 -3 46 -16 53 -26 15 -21 37 17 75 28 28 42 34 75 34 37 0 41 2 41 25
0 31 -41 75 -70 75 -38 0 -78 -29 -91 -65 -7 -19 -15 -35 -19 -35 -3 0 -13 19
-24 41 -21 47 -47 59 -107 52 -40 -5 -42 -4 -25 9 17 13 18 24 12 94 -3 43
-10 95 -15 114 -5 19 -12 157 -16 305 -12 464 -22 471 -23 19 -1 -232 -5 -436
-8 -454 -13 -62 -24 -6 -24 123 0 70 -4 127 -9 127 -4 0 -11 35 -14 78 -6 70
-34 222 -55 297 -8 28 -9 26 -26 -39 -26 -105 -46 -225 -46 -283 0 -29 -4 -53
-10 -53 -6 0 -10 66 -11 178 -1 148 -22 520 -28 487z m106 -849 c-1 -260 -6
-392 -12 -376 -9 25 -9 25 -14 3 -4 -16 -10 -20 -20 -14 -11 7 -10 14 8 40 25
35 25 79 2 351 -12 137 -10 209 11 359 21 153 28 53 25 -363z m-74 -136 c-7
-28 -13 -25 -13 6 0 14 4 23 9 20 5 -3 7 -15 4 -26z m177 -2 c0 -19 -2 -20
-10 -8 -13 19 -13 30 0 30 6 0 10 -10 10 -22z m-140 -92 c0 -38 -3 -66 -7 -62
-4 3 -7 40 -7 80 -1 41 2 69 6 63 4 -7 8 -43 8 -81z m173 44 c-3 -11 -7 -20
-9 -20 -2 0 -4 9 -4 20 0 11 4 20 9 20 5 0 7 -9 4 -20z m-246 -22 c-3 -7 -5
-2 -5 12 0 14 2 19 5 13 2 -7 2 -19 0 -25z m-25 -61 c17 -27 -6 -39 -30 -15
-9 9 -13 8 -17 -4 -8 -21 11 -65 35 -78 25 -13 27 -56 3 -82 -15 -17 -15 -20
5 -39 12 -11 22 -32 22 -47 l-1 -27 -30 35 c-16 19 -38 44 -48 55 -26 29 -41
60 -41 88 0 14 -7 30 -15 37 -22 18 -18 48 11 76 21 22 31 25 62 19 20 -4 40
-12 44 -18z m393 -2 c28 -27 32 -57 11 -74 -7 -6 -16 -29 -20 -51 -3 -22 -17
-52 -31 -67 -13 -16 -36 -43 -50 -60 -15 -18 -30 -33 -35 -33 -15 0 6 63 25
74 11 6 22 12 24 14 3 1 -5 9 -17 18 -29 20 -31 80 -4 89 19 5 42 44 42 70 0
17 -26 20 -35 5 -10 -16 -27 -11 -23 7 3 16 33 30 71 32 10 1 29 -10 42 -24z
m-338 -77 c-3 -7 -5 -2 -5 12 0 14 2 19 5 13 2 -7 2 -19 0 -25z m180 0 c-3 -7
-5 -2 -5 12 0 14 2 19 5 13 2 -7 2 -19 0 -25z m-337 -163 c5 -3 10 -18 10 -33
0 -26 0 -26 -19 -7 -32 34 -61 94 -61 128 1 31 2 30 30 -25 16 -31 34 -59 40
-63z m207 88 c4 -12 -25 -26 -38 -17 -5 3 -9 14 -9 24 0 16 4 18 22 11 12 -4
24 -13 25 -18z m116 -14 c-11 -11 -43 -1 -43 12 0 5 10 13 23 18 16 6 23 5 25
-6 2 -8 0 -19 -5 -24z m34 9 c-3 -7 -5 -2 -5 12 0 14 2 19 5 13 2 -7 2 -19 0
-25z m207 5 c-9 -43 -41 -105 -69 -137 l-25 -29 0 25 c0 14 9 37 20 51 12 14
30 47 41 72 22 50 43 61 33 18z m-305 -67 c-1 -6 -5 -22 -9 -36 -7 -23 -8 -23
-9 -3 -1 12 -3 28 -6 36 -4 8 0 14 10 14 8 0 15 -5 14 -11z m-89 -72 c12 -36
20 -68 17 -70 -6 -6 -47 100 -47 121 0 29 9 14 30 -51z m175 35 c-9 -41 -35
-102 -41 -97 -5 5 36 128 43 128 2 0 1 -14 -2 -31z m-279 -86 c-11 -11 -19 6
-11 24 8 17 8 17 12 0 3 -10 2 -21 -1 -24z m361 0 c-3 -10 -5 -4 -5 12 0 17 2
24 5 18 2 -7 2 -21 0 -30z m-303 -9 c20 -8 21 -34 1 -34 -8 0 -15 2 -15 4 0 2
-3 11 -6 20 -7 18 -4 19 20 10z m256 -14 c0 -11 -7 -20 -15 -20 -27 0 -18 30
13 39 1 1 2 -8 2 -19z m-358 -92 c-3 -61 -12 -60 -12 2 0 29 3 50 7 47 3 -4 6
-26 5 -49z m445 -40 c-2 -18 -4 -4 -4 32 0 36 2 50 4 33 2 -18 2 -48 0 -65z
m-47 6 c-18 -63 -24 -47 -9 23 7 32 14 50 17 39 2 -10 -2 -38 -8 -62z m-341 5
c7 -34 10 -64 7 -67 -3 -3 -6 -1 -6 4 -1 5 -7 35 -14 67 -8 31 -11 57 -6 57 4
0 13 -27 19 -61z m102 38 c-13 -13 -26 -3 -16 12 3 6 11 8 17 5 6 -4 6 -10 -1
-17z m146 -3 c-9 -9 -28 6 -21 18 4 6 10 6 17 -1 6 -6 8 -13 4 -17z m-194 -91
c11 -18 27 -16 27 3 0 24 35 12 38 -14 3 -17 -2 -22 -17 -22 -12 0 -21 -4 -21
-10 0 -5 -6 -10 -13 -10 -18 0 -37 66 -36 116 l2 39 6 -45 c4 -25 10 -51 14
-57z m234 -7 c-7 -22 -18 -41 -23 -43 -18 -5 -57 34 -51 51 8 20 37 21 37 1 0
-24 20 -17 30 11 6 14 11 40 12 57 l1 32 4 -35 c2 -19 -2 -53 -10 -74z m-389
-4 c18 -12 4 -42 -19 -42 -20 0 -23 8 -13 34 7 18 13 19 32 8z m542 -44 c0 -5
-8 -8 -17 -6 -12 2 -19 14 -21 33 l-2 30 20 -24 c11 -13 20 -28 20 -33z m116
-220 c18 -29 71 -129 119 -223 48 -93 92 -174 96 -179 5 -6 9 -14 9 -20 0 -17
-41 27 -124 132 -44 57 -101 128 -125 159 -42 52 -43 57 -33 87 7 18 12 47 12
64 0 18 3 32 8 32 4 0 21 -24 38 -52z m-376 16 c0 -14 -14 -33 -21 -28 -15 9
-10 31 6 31 8 0 15 -1 15 -3z m-98 -51 c22 -20 23 -31 1 -55 -24 -26 -28 -23
-31 27 -2 49 2 53 30 28z m193 -28 c0 -25 -2 -45 -4 -45 -9 0 -41 34 -41 43 0
12 30 47 39 47 4 0 6 -20 6 -45z m-117 -237 c-1 -151 -4 -223 -8 -178 l-6 75
-4 -60 c-5 -58 -6 -55 -42 123 -24 122 -34 191 -28 205 4 12 23 36 40 52 33
30 33 30 25 5 -4 -14 -9 -56 -10 -95 l-3 -70 8 70 c8 71 19 125 26 125 2 0 3
-114 2 -252z"/>
<path d="M1214 2285 c0 -55 1 -76 3 -47 2 29 2 74 0 100 -2 26 -3 2 -3 -53z"/>
<path d="M1203 605 c0 -38 2 -53 4 -32 2 20 2 52 0 70 -2 17 -4 1 -4 -38z"/>
<path d="M901 2834 c0 -11 3 -14 6 -6 3 7 2 16 -1 19 -3 4 -6 -2 -5 -13z"/>
<path d="M1332 2720 c0 -14 2 -19 5 -12 2 6 2 18 0 25 -3 6 -5 1 -5 -13z"/>
<path d="M1103 2695 c0 -22 2 -30 4 -17 2 12 2 30 0 40 -3 9 -5 -1 -4 -23z"/>
<path d="M1323 2535 c0 -27 2 -38 4 -22 2 15 2 37 0 50 -2 12 -4 0 -4 -28z"/>
<path d="M1093 2485 c0 -44 2 -61 4 -37 2 23 2 59 0 80 -2 20 -4 1 -4 -43z"/>
<path d="M1023 710 c0 -25 2 -35 4 -22 2 12 2 32 0 45 -2 12 -4 2 -4 -23z"/>
<path d="M1013 625 c0 -22 2 -30 4 -17 2 12 2 30 0 40 -3 9 -5 -1 -4 -23z"/>
</g>
</svg>
