<?xml version="1.0" standalone="no"?>
<!DOCTYPE svg PUBLIC "-//W3C//DTD SVG 20010904//EN"
 "http://www.w3.org/TR/2001/REC-SVG-20010904/DTD/svg10.dtd">
<svg version="1.0" xmlns="http://www.w3.org/2000/svg"
 width="244.000000pt" height="305.000000pt" viewBox="0 0 244.000000 305.000000"
 preserveAspectRatio="xMidYMid meet">
<metadata>
Created by potrace 1.16, written by Peter Selinger 2001-2019
</metadata>
<g transform="translate(0.000000,305.000000) scale(0.100000,-0.100000)"
fill="#000000" stroke="none">
<path d="M1009 2910 c-1 -5 -3 -14 -4 -20 -1 -5 -3 -23 -4 -40 -1 -41 -16 -38
-27 8 -7 27 -12 -56 -18 -313 -13 -567 -13 -609 -4 -627 5 -12 5 -18 -2 -18
-5 0 -10 4 -10 8 0 5 -11 15 -25 22 -24 13 -25 16 -28 144 l-3 131 -2 -146 -2
-146 26 -12 c36 -16 25 -35 -23 -39 -43 -3 -70 -24 -73 -57 -4 -38 0 -43 36
-42 29 1 41 -5 60 -28 25 -32 31 -69 13 -81 -16 -10 -5 -110 17 -156 20 -43
18 -48 -22 -51 -27 -2 -29 0 -26 31 5 52 -10 62 -93 62 -108 0 -123 -25 -88
-156 16 -60 16 -65 0 -99 -28 -58 -102 -130 -211 -203 -55 -38 -108 -73 -116
-77 -8 -5 14 24 50 65 36 40 90 102 120 137 52 59 57 63 93 59 l37 -4 -1 76
c-1 43 -5 91 -9 107 -6 20 -8 -1 -7 -63 l2 -93 -26 6 c-23 5 -36 -5 -106 -82
-139 -152 -226 -254 -222 -258 3 -2 31 7 64 21 33 14 79 31 103 39 l42 13 -30
-41 c-16 -22 -28 -42 -26 -44 2 -2 77 33 167 79 90 45 169 83 174 83 9 0 54
-80 55 -98 0 -4 -16 -15 -35 -23 -19 -8 -35 -17 -35 -20 0 -3 -32 -130 -70
-282 -39 -151 -68 -277 -66 -279 3 -3 15 11 28 30 77 113 94 137 102 137 4 0
5 -10 2 -22 -8 -28 -34 -168 -31 -168 3 0 65 100 65 105 0 2 40 70 88 152 124
207 121 201 110 241 -15 55 -6 65 54 60 42 -5 57 -11 81 -38 27 -30 27 -33 12
-53 -40 -56 -41 -52 9 -359 55 -337 57 -350 62 -345 4 4 104 616 104 639 0 9
-12 30 -26 47 -25 30 -25 33 -10 56 23 34 71 57 114 53 l37 -3 -3 -52 c-4 -50
0 -58 79 -190 45 -76 90 -149 99 -163 10 -14 28 -46 40 -70 29 -56 35 -42 17
44 -16 78 -7 82 38 15 17 -25 45 -63 63 -85 l33 -39 -5 35 c-6 36 -108 434
-129 505 -9 29 -19 41 -37 45 -16 4 -26 14 -28 28 -5 30 27 92 47 92 9 0 79
-32 156 -70 76 -38 141 -67 143 -65 3 2 -3 16 -12 31 -10 14 -15 28 -13 31 3
2 56 -16 119 -40 62 -25 115 -43 117 -41 5 4 -91 115 -185 214 -34 36 -76 82
-94 103 -27 31 -38 37 -59 32 l-26 -6 2 98 c1 86 0 91 -7 43 -14 -92 -32 -170
-40 -170 -17 0 -17 71 1 136 24 86 24 99 0 123 -17 17 -32 19 -100 17 -45 -1
-84 -6 -88 -10 -4 -3 -6 -22 -5 -42 3 -46 -3 -54 -33 -41 -30 14 -30 14 -5 68
21 46 28 149 10 149 -20 0 -10 49 16 80 22 26 33 31 63 28 35 -2 36 -2 34 32
-2 50 -35 74 -90 65 -52 -8 -55 3 -12 40 l32 26 -6 252 c-3 139 -13 311 -21
382 -22 178 -46 329 -54 337 -4 4 -6 -209 -5 -474 1 -389 -1 -483 -12 -494
-11 -11 -15 -11 -27 3 -10 13 -12 78 -10 330 1 173 7 335 13 361 17 78 23 176
10 168 -6 -4 -11 -29 -11 -57 0 -27 -4 -49 -10 -49 -13 0 -13 96 0 121 6 11 8
35 4 57 l-8 37 -7 -35 c-19 -85 -49 -412 -55 -602 -4 -115 -11 -208 -16 -208
-4 0 -8 9 -8 19 0 11 -4 22 -8 25 -19 12 -33 -15 -41 -83 -5 -40 -12 -75 -15
-79 -3 -3 -6 35 -6 84 0 181 -32 484 -59 556 -8 22 -8 22 -14 3 -27 -89 -57
-364 -57 -524 0 -78 -3 -111 -10 -101 -5 8 -10 35 -11 60 -1 54 -9 74 -31 78
-12 2 -18 -9 -25 -40 -6 -33 -9 -1 -13 132 l-6 175 -2 -212 c-1 -117 -6 -213
-11 -213 -5 0 -12 91 -15 203 -4 111 -14 281 -23 377 -8 96 -13 226 -11 288 2
61 3 112 1 112 -2 0 -4 -4 -4 -10z m74 -1019 c4 -15 -2 -20 -24 -23 -33 -5
-33 -4 -19 23 14 24 36 25 43 0z m337 4 c15 -18 14 -20 -22 -29 -17 -4 -28 -2
-28 4 0 5 5 10 10 10 6 0 10 7 10 15 0 19 14 19 30 0z m-420 -40 c0 -8 -4 -15
-10 -15 -5 0 -10 7 -10 15 0 8 5 15 10 15 6 0 10 -7 10 -15z m498 3 c-6 -18
-28 -21 -28 -4 0 9 7 16 16 16 9 0 14 -5 12 -12z m-152 -30 c-11 -15 -16 -18
-16 -7 0 16 21 42 28 34 2 -2 -3 -14 -12 -27z m-209 -80 c-2 -8 -18 -12 -35
-11 -29 2 -32 -1 -32 -27 0 -48 48 -78 78 -48 9 9 12 6 12 -15 0 -16 8 -30 21
-37 11 -7 27 -27 35 -46 8 -19 16 -34 19 -34 3 0 11 15 19 34 8 19 24 39 35
46 13 7 21 21 21 37 0 21 3 24 12 15 31 -31 77 -1 78 50 0 23 -4 27 -27 25
-39 -3 -45 17 -6 21 25 3 35 -2 49 -23 15 -22 16 -32 6 -59 -7 -18 -12 -44
-12 -57 0 -14 -6 -33 -13 -43 -13 -18 -15 -18 -40 -1 -49 31 -74 13 -115 -85
-6 -14 -11 -19 -11 -11 -1 8 -11 34 -23 58 -26 51 -56 63 -94 38 -14 -9 -27
-15 -29 -13 -13 16 -25 52 -25 77 0 16 -4 33 -10 36 -13 8 -13 41 0 66 8 14
21 19 51 19 28 0 39 -4 36 -12z m370 -165 c-3 -10 -5 -4 -5 12 0 17 2 24 5 18
2 -7 2 -21 0 -30z m-359 -61 c12 -8 32 -64 32 -91 0 -7 -18 9 -40 35 -22 27
-40 52 -40 56 0 10 31 10 48 0z m222 0 c0 -4 -19 -30 -42 -57 l-41 -50 6 40
c4 23 15 47 28 58 22 18 49 23 49 9z m313 -189 c-7 -36 -14 -67 -17 -71 -14
-13 -15 10 -4 93 9 75 13 86 22 66 7 -16 6 -43 -1 -88z m-694 75 c11 -29 -6
-68 -20 -47 -12 19 -11 69 1 69 6 0 14 -10 19 -22z m177 -28 c7 0 15 6 17 13
3 6 6 -2 6 -20 l1 -32 -45 26 c-25 14 -50 34 -56 45 -9 17 -6 17 27 -6 21 -14
44 -26 50 -26z m224 41 c0 -13 -59 -57 -87 -66 -19 -5 -23 -2 -23 13 0 14 5
19 18 16 9 -3 33 6 52 20 41 29 40 29 40 17z m-586 -53 c3 -29 5 -64 5 -78 -2
-39 -27 46 -28 93 -1 56 15 45 23 -15z m691 -6 c-13 -13 -23 22 -12 42 11 20
12 20 15 -7 2 -16 1 -32 -3 -35z m-378 -54 c28 -10 33 -16 29 -34 -7 -28 2
-54 20 -54 7 0 18 -9 24 -20 9 -16 6 -22 -15 -36 -23 -15 -26 -15 -41 1 -13
12 -25 15 -48 10 -49 -12 -79 -11 -83 2 -3 7 9 13 29 15 l33 3 -3 63 c-3 68
-1 70 55 50z m73 2 c0 -5 -5 -10 -11 -10 -5 0 -7 5 -4 10 3 6 8 10 11 10 2 0
4 -4 4 -10z m105 0 c3 -5 1 -10 -4 -10 -6 0 -11 5 -11 10 0 6 2 10 4 10 3 0 8
-4 11 -10z m112 -52 c-2 -62 -2 -63 26 -66 16 -2 27 -9 27 -19 0 -16 0 -16
-86 4 -11 3 -28 -2 -37 -11 -20 -20 -31 -20 -51 -1 -19 20 -10 44 21 56 22 8
24 14 19 42 -6 30 -4 34 26 44 58 18 58 18 55 -49z m153 -6 c0 -5 -7 -17 -16
-28 -8 -10 -14 -14 -11 -9 2 6 7 18 10 28 7 17 17 23 17 9z m327 -88 c6 -6 59
-46 117 -90 59 -43 103 -80 98 -82 -5 -1 -38 10 -73 26 -35 16 -74 32 -86 36
-28 9 -98 88 -125 140 l-20 38 39 -28 c21 -16 43 -34 50 -40z m-31 -61 c-2 -2
-15 2 -30 8 -18 9 -26 20 -26 38 l1 26 29 -34 c16 -19 28 -36 26 -38z m-1111
45 c14 -6 25 -16 25 -22 0 -11 -231 -139 -238 -132 -2 3 11 18 30 35 30 27 71
49 121 65 10 3 17 15 17 29 0 21 7 37 16 37 2 0 15 -5 29 -12z m456 -120 c7
-42 24 -88 34 -88 10 0 27 46 34 89 5 35 11 46 26 49 18 2 19 2 3 -8 -12 -7
-18 -24 -18 -48 0 -38 -28 -103 -45 -106 -16 -2 -45 66 -45 105 0 19 -6 41
-12 48 -11 11 -10 13 2 9 9 -3 18 -23 21 -50z m719 -9 c0 -6 -13 -1 -30 11
-16 12 -30 26 -30 31 0 6 14 1 30 -11 17 -12 30 -26 30 -31z m-1002 4 c-3 -42
-28 -59 -28 -20 0 32 9 57 22 57 5 0 8 -17 6 -37z m642 0 c0 -23 -4 -33 -9
-27 -9 8 -4 64 5 64 2 0 4 -17 4 -37z m45 -200 c15 -63 25 -116 22 -119 -6 -7
-57 68 -80 118 -16 35 -23 118 -11 131 3 3 14 1 24 -5 12 -8 27 -48 45 -125z
m-742 90 c-3 -21 -10 -46 -14 -55 -5 -9 -9 -26 -9 -37 0 -11 -19 -62 -43 -113
-24 -51 -56 -121 -72 -155 -16 -35 -30 -61 -32 -59 -2 2 10 57 27 122 18 66
43 162 56 214 24 94 41 120 75 120 15 0 17 -6 12 -37z m133 -19 c7 -51 9 -45
-80 -204 -107 -192 -116 -205 -116 -190 0 48 103 248 162 316 16 18 17 28 9
65 -5 23 -8 47 -5 51 12 19 23 5 30 -38z m713 -253 c39 -85 70 -155 68 -157
-6 -6 -112 153 -123 185 -13 40 -29 139 -20 131 2 -3 37 -75 75 -159z m-70 -8
c10 -21 22 -58 25 -83 l7 -45 -25 56 c-42 95 -48 152 -7 72z"/>
<path d="M1022 2835 c0 -16 2 -22 5 -12 2 9 2 23 0 30 -3 6 -5 -1 -5 -18z"/>
<path d="M942 2800 c0 -14 2 -19 5 -12 2 6 2 18 0 25 -3 6 -5 1 -5 -13z"/>
<path d="M1033 2755 c0 -22 2 -30 4 -17 2 12 2 30 0 40 -3 9 -5 -1 -4 -23z"/>
<path d="M932 2740 c0 -19 2 -27 5 -17 2 9 2 25 0 35 -3 9 -5 1 -5 -18z"/>
<path d="M1043 2675 c0 -22 2 -30 4 -17 2 12 2 30 0 40 -3 9 -5 -1 -4 -23z"/>
<path d="M912 2617 c-12 -81 -16 -165 -8 -156 2 2 7 31 10 64 3 33 9 86 12
118 10 87 0 68 -14 -26z"/>
<path d="M1493 2580 c0 -25 2 -35 4 -22 2 12 2 32 0 45 -2 12 -4 2 -4 -23z"/>
<path d="M1053 2575 c0 -22 2 -30 4 -17 2 12 2 30 0 40 -3 9 -5 -1 -4 -23z"/>
<path d="M1063 2440 c0 -41 2 -58 4 -37 2 20 2 54 0 75 -2 20 -4 3 -4 -38z"/>
<path d="M894 2340 c0 -58 1 -81 3 -52 2 28 2 76 0 105 -2 28 -3 5 -3 -53z"/>
</g>
</svg>
