<?xml version="1.0" standalone="no"?>
<!DOCTYPE svg PUBLIC "-//W3C//DTD SVG 20010904//EN"
 "http://www.w3.org/TR/2001/REC-SVG-20010904/DTD/svg10.dtd">
<svg version="1.0" xmlns="http://www.w3.org/2000/svg"
 width="244.000000pt" height="305.000000pt" viewBox="0 0 244.000000 305.000000"
 preserveAspectRatio="xMidYMid meet">
<metadata>
Created by potrace 1.16, written by Peter Selinger 2001-2019
</metadata>
<g transform="translate(0.000000,305.000000) scale(0.100000,-0.100000)"
fill="#000000" stroke="none">
<path d="M892 2808 c-45 -217 -62 -377 -69 -635 -5 -188 -3 -253 5 -253 7 0
29 -16 51 -35 l38 -35 31 28 c16 15 40 34 53 43 l22 15 -12 268 c-11 246 -35
465 -61 556 -9 33 -9 33 -4 -10 3 -25 14 -110 25 -190 12 -87 22 -237 26 -375
l6 -230 -38 -27 c-21 -15 -42 -25 -46 -22 -11 7 -10 849 1 927 15 103 -6 85
-28 -25z"/>
<path d="M1381 2885 c-1 -11 -1 -183 -1 -382 1 -304 -2 -377 -17 -453 -9 -49
-21 -90 -25 -90 -5 0 -5 -17 -2 -39 4 -24 2 -41 -5 -45 -8 -5 -11 14 -11 61 0
186 -37 510 -71 628 l-12 40 -13 -37 c-32 -93 -59 -302 -70 -556 -3 -84 -8
-151 -10 -149 -3 2 -7 116 -9 253 -5 248 -19 531 -33 674 -5 51 -9 -49 -13
-310 -6 -368 -15 -486 -42 -527 -13 -20 4 -62 35 -88 25 -21 29 -30 21 -47 -9
-20 -10 -20 -22 10 -15 36 -38 46 -81 37 -33 -7 -70 -48 -70 -76 0 -30 -19
-22 -34 15 -20 47 -57 70 -100 62 -42 -8 -55 -23 -58 -66 -3 -34 -3 -34 36
-31 32 2 44 -3 72 -30 37 -36 43 -59 19 -79 -31 -25 -11 -121 42 -200 31 -46
30 -99 -2 -146 -30 -44 -32 -75 -5 -92 21 -13 28 -46 8 -40 -6 2 -16 13 -22
24 -6 10 -15 22 -20 26 -5 3 -9 24 -8 45 1 21 -4 68 -11 103 -13 62 -15 65
-45 68 -24 2 -34 -2 -48 -23 -25 -38 -14 -98 36 -182 49 -86 49 -114 0 -47
-77 104 -83 115 -88 164 -4 41 0 57 23 95 26 45 26 47 9 66 -14 16 -28 19 -68
17 -45 -3 -52 -6 -65 -32 -12 -25 -11 -37 8 -101 32 -112 25 -186 -19 -200
-19 -6 -21 -12 -15 -44 l6 -38 -63 -26 c-94 -40 -282 -107 -286 -103 -2 2 50
39 115 81 65 42 127 83 138 91 11 8 38 26 60 40 61 40 65 47 50 102 -8 26 -16
73 -20 105 -10 91 -27 58 -19 -39 l7 -84 -35 3 c-32 2 -47 -10 -216 -172 -100
-96 -180 -176 -178 -178 3 -4 227 71 379 127 61 22 87 37 87 48 1 40 15 46 64
27 60 -23 116 -78 114 -110 -1 -14 -6 -25 -10 -25 -4 0 -8 -6 -8 -14 0 -8 -9
-17 -19 -21 -20 -6 -29 -30 -90 -230 -59 -195 -101 -348 -98 -352 2 -2 37 36
78 84 41 48 90 105 110 127 111 128 190 229 190 244 -1 9 -4 34 -7 55 l-6 37
36 0 c34 0 36 -2 37 -32 l1 -33 7 30 c5 23 12 31 34 33 32 4 32 18 -9 -143
-14 -55 -33 -134 -43 -175 -15 -63 -19 -70 -23 -45 -3 17 -4 8 -2 -20 2 -29 0
-44 -5 -37 -5 9 -10 -3 -14 -35 -3 -26 -4 -49 -2 -51 1 -1 12 23 25 55 12 32
35 90 51 128 72 175 83 210 81 263 -1 28 1 52 4 52 12 0 56 -34 65 -51 7 -15
3 -25 -21 -50 -16 -18 -30 -40 -30 -49 0 -10 11 -71 25 -136 13 -66 41 -207
62 -314 l37 -195 13 55 c12 54 34 165 89 457 l26 143 -31 35 c-30 34 -30 37
-15 61 16 23 44 44 60 44 4 0 4 -20 1 -44 -6 -39 3 -69 69 -243 73 -191 103
-259 104 -238 0 6 -16 118 -35 250 -19 132 -35 253 -35 268 0 27 2 28 33 22
42 -9 41 -8 31 -52 -4 -21 -8 -41 -8 -45 -2 -14 364 -442 371 -435 4 5 -49
192 -122 432 -20 66 -45 127 -55 137 -11 10 -22 34 -26 54 -5 30 -2 40 21 64
31 32 107 66 124 55 6 -3 11 -16 11 -29 0 -19 16 -27 143 -71 78 -26 178 -60
222 -76 44 -15 82 -25 84 -24 1 2 -30 36 -70 75 -41 40 -120 117 -176 172 -95
93 -104 99 -133 93 l-31 -7 7 91 c5 66 4 91 -5 91 -6 0 -11 -13 -11 -28 0 -16
-3 -63 -6 -106 l-7 -76 44 5 44 6 134 -131 c74 -72 132 -132 130 -134 -2 -2
-51 25 -109 60 -58 34 -138 82 -177 106 -58 34 -77 52 -93 85 -25 53 -25 66 0
138 11 32 20 69 20 82 0 52 -65 79 -125 51 -32 -14 -32 -35 1 -79 22 -29 25
-41 20 -83 -6 -50 -34 -107 -84 -166 -46 -54 -48 -29 -3 45 48 80 61 143 37
180 -18 27 -66 35 -83 13 -13 -16 -26 -101 -24 -150 1 -21 0 -38 -3 -38 -2 0
-16 20 -30 44 -37 63 -36 129 4 199 38 67 49 137 26 159 -25 25 -19 51 18 87
30 29 40 33 70 28 35 -6 36 -5 36 27 0 42 -26 66 -71 66 -45 0 -75 -22 -89
-65 -12 -36 -30 -39 -30 -6 0 29 -43 68 -85 75 -35 7 -42 5 -61 -19 -14 -18
-24 -23 -29 -16 -4 7 4 20 18 32 47 36 49 60 37 441 -10 298 -33 651 -39 583z
m-93 -790 c0 -77 -3 -162 -8 -190 -6 -39 -8 -19 -9 85 0 74 -3 200 -6 280 l-4
145 14 -90 c7 -49 13 -153 13 -230z m11 -307 c-1 -63 -2 -68 -10 -38 -8 32 -3
110 7 110 2 0 4 -33 3 -72z m185 -40 c35 -33 42 -64 16 -78 -13 -7 -20 -21
-20 -43 -1 -18 -6 -41 -13 -53 -16 -27 -54 -74 -60 -74 -8 0 3 143 15 188 9
34 8 46 -2 52 -9 6 -8 10 6 19 26 15 30 14 58 -11z m-437 -25 c1 -21 6 -81 12
-133 5 -52 9 -95 8 -97 -9 -8 -63 79 -73 119 -7 27 -20 55 -28 64 -21 20 -20
26 5 58 13 17 30 26 48 26 24 0 27 -4 28 -37z m129 -113 c35 -14 30 -30 -10
-30 -22 0 -36 6 -40 16 -10 25 -7 64 7 87 11 20 12 19 15 -21 3 -35 8 -45 28
-52z m118 43 c6 -17 3 -23 -8 -23 -12 0 -16 10 -16 38 1 38 10 32 24 -15z m56
-12 c0 -48 -8 -58 -52 -63 -32 -3 -35 -2 -27 14 5 10 19 18 29 18 17 0 20 7
20 46 0 40 2 45 15 34 8 -7 15 -29 15 -49z m-408 -59 c8 -21 12 -46 8 -57 -5
-15 -10 -10 -23 23 -9 24 -17 49 -17 57 0 28 17 15 32 -23z m618 18 c0 -12 -7
-35 -16 -52 -22 -43 -38 -17 -18 30 8 19 14 36 14 38 0 2 5 4 10 4 6 0 10 -9
10 -20z m-463 -12 c-3 -8 -6 -5 -6 6 -1 11 2 17 5 13 3 -3 4 -12 1 -19z m288
12 c3 -5 1 -10 -4 -10 -6 0 -11 5 -11 10 0 6 2 10 4 10 3 0 8 -4 11 -10z
m-136 -74 c-2 -23 -17 -60 -18 -46 -1 8 -4 24 -7 36 -4 14 -1 21 10 21 9 0 16
-5 15 -11z m103 -54 c-48 -92 -54 -103 -59 -98 -3 3 11 40 32 83 21 42 41 71
43 65 2 -7 -5 -29 -16 -50z m-209 -11 c38 -83 41 -91 29 -91 -5 0 -13 12 -16
26 -4 14 -15 38 -26 53 -22 31 -35 71 -23 71 4 0 20 -27 36 -59z m-118 -21
c-5 -8 -11 -8 -17 -2 -6 6 -7 16 -3 22 5 8 11 8 17 2 6 -6 7 -16 3 -22z m445
10 c0 -11 -4 -20 -9 -20 -11 0 -22 26 -14 34 12 12 23 5 23 -14z m-375 -50
c10 -11 16 -23 12 -26 -9 -9 -47 16 -47 31 0 21 14 19 35 -5z m313 4 c-4 -20
-34 -41 -44 -31 -8 8 24 47 38 47 5 0 8 -7 6 -16z m128 -42 c-12 -12 -18 8
-10 35 l8 28 4 -28 c2 -16 1 -31 -2 -35z m-589 16 c-3 -7 -5 -2 -5 12 0 14 2
19 5 13 2 -7 2 -19 0 -25z m84 -126 c10 -36 16 -68 14 -71 -3 -2 -7 2 -9 10
-2 8 -11 36 -20 63 -9 27 -16 56 -16 64 0 30 14 0 31 -66z m420 -27 c-25 -63
-26 -45 -3 43 13 53 18 61 20 37 1 -16 -6 -52 -17 -80z m-351 -20 c18 -16 20
-16 26 -1 3 9 17 16 30 16 23 0 25 -3 28 -31 1 -6 -16 -17 -37 -24 -35 -12
-38 -11 -57 12 -22 28 -36 105 -24 125 6 8 10 -3 12 -33 2 -31 10 -53 22 -64z
m70 96 c0 -12 -39 -21 -45 -11 -3 5 3 11 12 13 29 8 33 7 33 -2z m164 3 c17
-7 22 -34 6 -34 -5 0 -10 5 -10 10 0 6 -7 10 -15 10 -8 0 -15 5 -15 10 0 11
11 13 34 4z m75 -37 c-1 -41 -10 -66 -32 -97 -15 -21 -20 -23 -37 -12 -11 6
-29 12 -41 12 -32 0 -21 42 14 51 20 5 27 4 27 -6 0 -23 22 -29 37 -10 7 11
13 38 13 63 0 26 4 41 10 37 6 -3 10 -21 9 -38z m151 -88 c0 -11 -4 -17 -10
-14 -5 3 -10 13 -10 21 0 8 5 14 10 14 6 0 10 -9 10 -21z m-700 -63 c0 -8 -4
-18 -10 -21 -5 -3 -10 3 -10 14 0 12 5 21 10 21 6 0 10 -6 10 -14z m766 -31
c4 -14 4 -29 0 -32 -11 -12 -37 23 -30 40 9 25 23 21 30 -8z m-737 -115 c-1
-30 2 -71 6 -90 7 -34 2 -42 -102 -171 -128 -160 -183 -225 -183 -216 0 3 54
109 120 234 66 126 122 244 126 263 3 19 8 42 10 50 10 30 24 -14 23 -70z
m742 34 c13 -22 38 -43 64 -54 l41 -18 63 -206 c35 -114 61 -210 58 -213 -3
-3 -18 17 -32 43 -15 27 -73 136 -131 241 -94 174 -121 243 -95 243 5 0 19
-16 32 -36z m-381 -60 c0 -14 -14 -33 -21 -28 -15 9 -10 31 6 31 8 0 15 -1 15
-3z m217 -221 c29 -119 51 -218 50 -220 -8 -7 -127 334 -127 362 0 36 10 75
19 75 3 0 30 -98 58 -217z m-136 75 c6 -12 -2 -74 -26 -195 -20 -97 -38 -179
-41 -182 -4 -4 -4 12 -1 34 18 127 29 342 18 362 -19 37 -12 48 15 22 14 -13
30 -32 35 -41z"/>
<path d="M1547 2894 c-10 -17 -56 -275 -67 -378 -11 -111 -30 -435 -30 -525 0
-65 1 -67 37 -91 20 -14 42 -29 49 -34 8 -7 29 1 64 25 l52 34 -6 225 c-3 124
-10 266 -16 315 -14 123 -42 296 -47 291 -3 -2 5 -69 16 -148 21 -148 48 -601
37 -641 -5 -18 -63 -67 -81 -67 -3 0 -5 215 -4 478 0 275 4 469 9 457 l9 -20
-1 20 c0 34 -13 71 -21 59z"/>
<path d="M1572 2790 c0 -14 2 -19 5 -12 2 6 2 18 0 25 -3 6 -5 1 -5 -13z"/>
<path d="M1362 2760 c0 -14 2 -19 5 -12 2 6 2 18 0 25 -3 6 -5 1 -5 -13z"/>
<path d="M1353 2605 c0 -22 2 -30 4 -17 2 12 2 30 0 40 -3 9 -5 -1 -4 -23z"/>
<path d="M1061 2614 c0 -11 3 -14 6 -6 3 7 2 16 -1 19 -3 4 -6 -2 -5 -13z"/>
<path d="M1062 2560 c0 -14 2 -19 5 -12 2 6 2 18 0 25 -3 6 -5 1 -5 -13z"/>
<path d="M1344 2405 c0 -60 1 -84 3 -52 2 32 2 81 0 110 -2 29 -3 3 -3 -58z"/>
<path d="M1053 2375 c0 -44 2 -61 4 -37 2 23 2 59 0 80 -2 20 -4 1 -4 -43z"/>
<path d="M975 780 c-4 -34 -5 -63 -2 -66 2 -3 7 23 11 57 4 33 5 63 3 66 -3 2
-8 -23 -12 -57z"/>
<path d="M963 660 c0 -25 2 -35 4 -22 2 12 2 32 0 45 -2 12 -4 2 -4 -23z"/>
</g>
</svg>
