<?xml version="1.0" standalone="no"?>
<!DOCTYPE svg PUBLIC "-//W3C//DTD SVG 20010904//EN"
 "http://www.w3.org/TR/2001/REC-SVG-20010904/DTD/svg10.dtd">
<svg version="1.0" xmlns="http://www.w3.org/2000/svg"
 width="244.000000pt" height="305.000000pt" viewBox="0 0 244.000000 305.000000"
 preserveAspectRatio="xMidYMid meet">
<metadata>
Created by potrace 1.16, written by Peter Selinger 2001-2019
</metadata>
<g transform="translate(0.000000,305.000000) scale(0.100000,-0.100000)"
fill="#000000" stroke="none">
<path d="M897 2904 c-11 -19 -56 -256 -72 -384 -8 -69 -18 -231 -22 -361 -6
-233 -6 -237 15 -243 11 -4 35 -20 54 -36 l33 -29 25 23 c14 12 38 30 53 40
l29 18 -7 186 c-8 247 -29 459 -60 612 -30 154 -39 187 -48 174z m-1 -1002
c-3 -2 -24 11 -47 29 l-42 34 7 175 c9 253 30 455 68 659 11 58 13 5 16 -413
1 -264 0 -481 -2 -484z"/>
<path d="M1560 2888 c0 -9 -3 -24 -7 -34 -4 -12 -3 -15 5 -10 9 5 12 -108 12
-468 0 -331 -3 -476 -11 -476 -6 0 -26 12 -46 27 l-36 28 6 235 c6 216 23 384
63 610 4 19 4 33 1 30 -12 -11 -56 -279 -66 -400 -5 -69 -13 -211 -16 -317
l-7 -191 35 -17 c19 -9 43 -25 52 -35 16 -18 18 -17 62 16 24 19 49 34 54 34
20 0 4 392 -26 630 -19 145 -51 315 -64 338 -9 15 -10 15 -11 0z"/>
<path d="M1131 2874 c0 -11 3 -14 6 -6 3 7 2 16 -1 19 -3 4 -6 -2 -5 -13z"/>
<path d="M1326 2798 c-3 -51 -9 -203 -13 -338 l-7 -245 -12 105 c-7 58 -22
146 -35 195 l-23 90 -18 -60 c-33 -108 -48 -217 -59 -420 -6 -110 -15 -207
-20 -215 -5 -8 -9 179 -10 430 -2 283 -5 409 -9 345 -4 -55 -8 -172 -9 -261
-1 -198 -11 -350 -22 -332 -12 18 -18 8 -29 -52 -17 -89 -13 -153 10 -173 12
-10 18 -22 14 -28 -4 -7 -13 -4 -24 6 -23 21 -83 24 -105 5 -9 -7 -24 -29 -34
-49 l-18 -35 -16 30 c-25 48 -54 69 -99 69 -47 0 -81 -33 -76 -74 3 -24 7 -26
41 -23 45 4 80 -16 102 -58 14 -28 14 -31 -5 -47 -11 -10 -20 -30 -20 -45 0
-42 33 -120 74 -173 41 -55 43 -64 18 -91 -34 -36 -52 -68 -52 -91 0 -28 34
-60 71 -68 33 -7 35 -13 15 -41 -14 -19 -15 -19 -43 2 -46 34 -74 83 -73 128
2 56 -10 138 -23 154 -14 18 -62 15 -79 -5 -40 -47 -30 -95 45 -215 100 -159
103 -188 30 -316 -25 -42 -85 -149 -135 -237 -93 -165 -116 -200 -103 -155 13
47 117 375 126 401 7 19 23 30 57 40 52 16 59 29 61 115 1 43 -5 60 -38 111
-21 33 -44 64 -50 67 -17 11 -48 77 -56 118 -6 29 -2 45 19 80 31 53 33 74 7
88 -25 13 -87 13 -112 0 -24 -13 -26 -69 -4 -130 18 -51 19 -110 3 -145 -7
-16 -46 -47 -98 -79 -125 -78 -302 -177 -307 -173 -2 2 60 62 139 133 136 124
143 129 182 127 22 -1 43 3 47 8 6 10 5 41 -7 158 -9 90 -25 38 -18 -57 l6
-83 -33 5 c-30 6 -40 1 -80 -36 -25 -24 -109 -101 -187 -173 -78 -71 -142
-132 -142 -136 0 -7 187 50 305 92 28 10 78 28 112 40 42 14 63 27 63 38 0 36
15 43 59 30 55 -16 117 -71 131 -115 13 -39 4 -54 -31 -54 -9 0 -22 -6 -28
-14 -14 -16 -183 -555 -179 -568 3 -8 55 50 332 362 60 67 66 78 60 105 -15
72 -17 70 74 73 l83 3 -5 -43 c-3 -24 -13 -122 -21 -218 -8 -96 -17 -197 -19
-225 l-5 -50 14 50 c8 27 12 61 9 75 -4 17 -3 21 4 12 6 -9 16 14 32 77 13 50
27 91 32 91 4 0 8 -3 8 -7 0 -9 58 -305 75 -383 8 -36 19 -91 25 -123 7 -32
13 -57 15 -55 2 2 29 132 61 291 31 158 61 284 64 280 4 -5 22 -64 39 -132 42
-161 50 -179 50 -123 1 23 -4 42 -9 42 -7 0 -9 20 -6 53 3 33 3 41 -2 22 -6
-23 -14 6 -36 135 -15 91 -30 176 -33 190 -4 23 0 26 39 35 24 6 72 9 107 7
63 -3 63 -3 56 -30 -19 -78 -28 -64 175 -292 106 -118 195 -216 200 -218 5 -2
-2 30 -15 70 -12 40 -51 165 -86 278 -34 113 -66 210 -71 216 -5 7 -22 14 -38
18 -73 14 -3 130 99 165 47 15 48 15 54 -18 6 -27 14 -31 242 -106 130 -42
238 -75 239 -73 2 1 -79 80 -180 173 -172 159 -186 170 -219 168 l-36 -3 7 84
c8 101 -10 129 -20 31 -3 -35 -13 -81 -20 -103 -8 -21 -11 -43 -8 -49 9 -13
102 -74 256 -168 71 -43 125 -80 119 -82 -6 -2 -80 21 -164 53 -85 31 -162 58
-172 61 -15 5 -17 12 -13 38 6 28 2 38 -24 63 -25 26 -30 38 -30 79 0 26 7 66
14 88 28 80 30 111 7 134 -24 24 -75 28 -116 9 -31 -14 -31 -28 0 -74 46 -68
31 -132 -59 -248 -25 -32 -53 -81 -61 -109 -29 -99 -26 -110 104 -346 111
-200 144 -264 128 -251 -3 3 -72 82 -152 175 -133 156 -145 172 -139 200 4 17
8 66 9 110 2 89 11 110 97 252 60 99 73 158 39 192 -12 12 -34 21 -51 21 -24
0 -31 -5 -35 -27 -4 -16 -11 -48 -16 -72 -6 -24 -7 -57 -4 -73 12 -54 -81
-157 -106 -117 -13 21 -12 24 26 42 66 32 66 76 1 151 -14 16 -26 30 -26 31 0
1 14 20 31 41 69 85 101 203 64 234 -23 19 -18 39 20 77 31 31 40 34 77 31 37
-3 43 0 46 18 4 28 -33 71 -68 79 -41 9 -84 -19 -106 -68 l-18 -39 -17 40
c-29 67 -93 87 -141 44 -16 -14 -18 -13 -18 5 0 12 7 23 15 27 18 7 20 75 4
162 -11 62 -27 93 -31 58 -1 -10 -5 33 -8 96 l-6 115 -3 -160 c-2 -88 -7 -173
-11 -190 -4 -16 -8 185 -8 448 0 263 -2 481 -5 483 -2 2 -7 -37 -11 -88z
m-115 -633 c-4 -171 -9 -265 -10 -210 -1 55 -6 109 -11 120 -10 22 -6 -167 5
-268 8 -69 2 -94 -19 -75 -14 14 -10 42 5 32 13 -8 10 68 -4 93 -9 16 -10 66
-5 194 6 152 35 435 44 426 2 -1 -1 -142 -5 -312z m-108 -414 c5 -5 6 -14 3
-20 -9 -14 -43 -14 -51 -1 -11 18 -25 10 -25 -14 0 -13 8 -34 19 -47 17 -21
21 -22 46 -11 26 12 27 12 21 -10 -3 -13 -6 -33 -6 -45 0 -13 -6 -23 -14 -23
-8 0 -25 -13 -39 -29 -24 -29 -25 -29 -42 -11 -18 20 -44 84 -45 111 0 9 -7
19 -15 23 -25 9 -17 43 17 71 28 24 38 26 77 21 25 -3 49 -10 54 -15z m401
-11 c31 -38 32 -45 6 -67 -11 -10 -20 -28 -20 -41 0 -26 -27 -89 -42 -98 -5
-3 -20 6 -33 20 -13 14 -31 26 -40 26 -11 0 -15 10 -15 39 0 35 2 38 24 34 20
-4 28 1 41 27 22 43 14 64 -20 48 -19 -8 -29 -8 -37 0 -22 22 -1 37 55 40 50
3 57 0 81 -28z m-324 -73 c0 -24 16 -13 23 18 3 11 5 1 6 -22 1 -46 -8 -53
-33 -27 -17 17 -22 69 -6 59 6 -3 10 -16 10 -28z m-245 -99 c15 -29 40 -67 56
-83 16 -17 29 -42 29 -55 l0 -24 -31 30 c-61 58 -118 184 -83 184 2 0 15 -24
29 -52z m202 30 c-3 -8 -6 -5 -6 6 -1 11 2 17 5 13 3 -3 4 -12 1 -19z m165
-30 c-7 -7 -14 -3 -21 10 -9 17 -8 23 6 31 14 8 19 6 21 -11 2 -11 -1 -25 -6
-30z m35 20 c-3 -7 -5 -2 -5 12 0 14 2 19 5 13 2 -7 2 -19 0 -25z m233 10 c-1
-38 -35 -102 -81 -149 -33 -34 -43 -40 -46 -27 -2 9 3 25 11 35 52 63 77 99
88 129 14 39 28 45 28 12z m-380 -7 c0 -26 -16 -35 -24 -15 -10 25 -7 34 9 34
8 0 15 -9 15 -19z m-66 -93 c11 -56 9 -60 -19 -42 -18 12 -25 25 -25 49 0 28
3 32 19 28 11 -3 21 -17 25 -35z m114 -4 c-3 -27 -4 -26 -9 8 -3 22 -1 34 4
29 5 -5 7 -21 5 -37z m152 12 c0 -25 -6 -38 -26 -51 l-27 -17 7 38 c6 32 28
64 43 64 2 0 3 -15 3 -34z m-233 -38 c-3 -8 -6 -5 -6 6 -1 11 2 17 5 13 3 -3
4 -12 1 -19z m160 0 c-3 -8 -6 -5 -6 6 -1 11 2 17 5 13 3 -3 4 -12 1 -19z
m-10 -40 c-3 -8 -6 -5 -6 6 -1 11 2 17 5 13 3 -3 4 -12 1 -19z m-270 -20 c-3
-7 -5 -2 -5 12 0 14 2 19 5 13 2 -7 2 -19 0 -25z m369 -25 c-11 -11 -19 6 -11
24 8 17 8 17 12 0 3 -10 2 -21 -1 -24z m-329 5 c-3 -8 -6 -5 -6 6 -1 11 2 17
5 13 3 -3 4 -12 1 -19z m63 -18 c0 -11 -4 -20 -10 -20 -5 0 -10 2 -10 4 0 2
-3 11 -6 20 -4 11 -1 16 10 16 9 0 16 -8 16 -20z m220 5 c0 -8 -7 -15 -15 -15
-8 0 -15 7 -15 15 0 8 7 15 15 15 8 0 15 -7 15 -15z m-335 -51 c14 -9 25 -24
25 -33 -1 -14 -2 -14 -11 1 -12 21 -39 12 -39 -13 0 -26 -16 -24 -23 3 -6 20
7 58 19 58 2 0 16 -7 29 -16z m460 -4 c3 -11 3 -40 0 -64 -5 -33 -3 -50 10
-70 25 -37 14 -52 -17 -23 -30 28 -51 93 -45 140 4 31 4 31 5 -5 2 -30 6 -36
22 -35 13 1 19 7 17 17 -2 8 -9 14 -15 13 -7 -2 -12 5 -12 15 0 35 25 44 35
12z m-313 -22 c-9 -9 -12 -7 -12 12 0 19 3 21 12 12 9 -9 9 -15 0 -24z m138
16 c0 -8 -5 -12 -10 -9 -6 4 -8 11 -5 16 9 14 15 11 15 -7z m-217 -69 c4 -31
3 -41 -2 -25 -14 46 -22 95 -12 85 5 -6 11 -32 14 -60z m292 -20 l-15 -50 6
50 c3 28 8 59 12 70 l6 20 3 -20 c2 -11 -4 -42 -12 -70z m-28 33 c-3 -8 -6 -5
-6 6 -1 11 2 17 5 13 3 -3 4 -12 1 -19z m-327 -63 c-6 -15 -13 -25 -16 -22 -3
3 0 22 8 43 7 20 14 30 16 22 2 -8 -2 -27 -8 -43z m130 15 c9 13 11 13 20 0 6
-10 3 -21 -12 -37 -25 -27 -33 -22 -43 27 -7 33 -6 34 9 15 13 -17 17 -18 26
-5z m190 -3 c0 -13 -6 -31 -12 -40 -12 -15 -15 -15 -38 3 -24 18 -24 20 -7 37
16 16 17 16 17 0 0 -24 21 -21 27 3 7 27 13 25 13 -3z m-243 -39 c-3 -8 -6 -5
-6 6 -1 11 2 17 5 13 3 -3 4 -12 1 -19z m260 -20 c-3 -8 -6 -5 -6 6 -1 11 2
17 5 13 3 -3 4 -12 1 -19z m-130 -230 c-3 -8 -6 -5 -6 6 -1 11 2 17 5 13 3 -3
4 -12 1 -19z m-108 -53 c0 -16 -6 -41 -14 -55 -8 -14 -15 -38 -15 -55 -1 -33
-48 -210 -49 -185 -1 15 43 281 55 329 4 20 7 22 15 10 5 -7 9 -27 8 -44z m31
-5 c0 -10 -4 -22 -10 -25 -6 -4 -10 7 -10 25 0 18 4 29 10 25 6 -3 10 -15 10
-25z m170 3 c0 -20 -3 -24 -11 -16 -7 7 -9 19 -6 27 10 24 17 19 17 -11z
m-125 -115 c0 -68 3 -186 7 -263 5 -100 4 -129 -3 -100 -20 81 -79 371 -79
390 0 10 17 36 37 57 20 21 37 38 38 38 0 0 1 -55 0 -122z"/>
<path d="M1142 2750 c0 -19 2 -27 5 -17 2 9 2 25 0 35 -3 9 -5 1 -5 -18z"/>
<path d="M1353 2605 c0 -22 2 -30 4 -17 2 12 2 30 0 40 -3 9 -5 -1 -4 -23z"/>
<path d="M1153 2515 c0 -27 2 -38 4 -22 2 15 2 37 0 50 -2 12 -4 0 -4 -28z"/>
<path d="M1403 885 c0 -22 2 -30 4 -17 2 12 2 30 0 40 -3 9 -5 -1 -4 -23z"/>
<path d="M1413 785 c0 -22 2 -30 4 -17 2 12 2 30 0 40 -3 9 -5 -1 -4 -23z"/>
<path d="M1423 670 c0 -25 2 -35 4 -22 2 12 2 32 0 45 -2 12 -4 2 -4 -23z"/>
</g>
</svg>
