<?xml version="1.0" standalone="no"?>
<!DOCTYPE svg PUBLIC "-//W3C//DTD SVG 20010904//EN"
 "http://www.w3.org/TR/2001/REC-SVG-20010904/DTD/svg10.dtd">
<svg version="1.0" xmlns="http://www.w3.org/2000/svg"
 width="244.000000pt" height="305.000000pt" viewBox="0 0 244.000000 305.000000"
 preserveAspectRatio="xMidYMid meet">
<metadata>
Created by potrace 1.16, written by Peter Selinger 2001-2019
</metadata>
<g transform="translate(0.000000,305.000000) scale(0.100000,-0.100000)"
fill="#000000" stroke="none">
<path d="M1102 2890 c0 -14 2 -19 5 -12 2 6 2 18 0 25 -3 6 -5 1 -5 -13z"/>
<path d="M1550 2900 c0 -8 -3 -26 -6 -40 -4 -20 -3 -22 5 -10 8 11 11 -122 11
-467 0 -266 -2 -483 -5 -483 -3 0 -24 12 -47 27 l-41 28 6 215 c6 195 30 437
57 579 12 64 12 101 -1 51 -38 -153 -63 -396 -74 -722 l-5 -148 38 -23 c20
-14 43 -32 51 -41 12 -15 16 -14 46 12 19 15 44 34 56 43 l23 16 -12 258 c-7
142 -19 308 -28 369 -21 159 -54 329 -65 341 -6 5 -9 4 -9 -5z"/>
<path d="M905 2888 c-4 -10 -4 -25 -1 -33 7 -19 9 -945 2 -952 -3 -3 -21 7
-40 22 l-36 27 0 137 c0 174 16 390 40 560 11 74 18 136 16 138 -7 7 -35 -173
-50 -317 -8 -80 -17 -236 -21 -348 l-6 -202 24 -9 c13 -5 37 -21 54 -35 l30
-26 19 21 c10 12 31 27 46 35 l28 15 0 167 c0 207 -22 456 -54 627 -32 165
-41 196 -51 173z"/>
<path d="M1350 2748 c-7 -84 -14 -317 -17 -518 -2 -200 -6 -366 -7 -368 -2 -2
-7 63 -10 145 -8 197 -30 387 -57 503 l-23 95 -13 -45 c-36 -122 -46 -198 -69
-532 -6 -89 -19 -110 -38 -58 -5 14 -12 221 -15 460 l-6 435 -12 -170 c-12
-157 -18 -318 -27 -680 l-3 -140 -37 -6 c-45 -7 -83 -41 -92 -82 l-7 -31 -23
47 c-19 36 -32 48 -57 55 -61 16 -107 -15 -107 -72 0 -25 2 -26 38 -20 32 5
43 2 70 -20 40 -35 49 -62 26 -87 -13 -15 -16 -30 -11 -75 5 -46 15 -70 51
-123 25 -37 46 -71 46 -76 0 -6 -15 -28 -32 -50 -27 -32 -33 -47 -31 -82 1
-41 -8 -55 -23 -32 -3 6 -8 39 -10 73 -7 107 -17 150 -37 154 -87 17 -110 -87
-43 -189 46 -69 66 -109 66 -132 0 -17 -5 -14 -24 19 -13 23 -42 66 -65 96
-26 36 -44 72 -51 104 -8 43 -6 55 15 97 14 27 25 55 25 63 0 37 -97 47 -131
13 -23 -23 -23 -48 5 -146 23 -83 -1 -142 -76 -186 -24 -13 -95 -56 -158 -94
-64 -39 -127 -75 -140 -82 -14 -6 38 49 115 124 l140 136 43 -6 44 -7 -7 99
c-9 129 -29 151 -23 26 l4 -91 -30 4 c-35 5 -30 9 -259 -213 -71 -69 -127
-126 -125 -129 3 -2 107 30 231 73 211 71 227 78 227 100 0 32 18 37 66 17 46
-19 80 -48 100 -86 23 -45 18 -65 -21 -78 -19 -6 -35 -13 -35 -15 0 -5 -134
-455 -161 -538 -12 -40 -1 -32 72 52 35 41 119 138 187 215 129 149 125 141
106 219 -6 27 -6 27 45 27 44 0 51 -3 51 -19 0 -19 -16 -150 -46 -389 -9 -68
-14 -125 -12 -127 5 -5 23 46 110 293 40 117 48 150 43 183 -8 46 4 51 40 14
32 -31 31 -35 -5 -70 -16 -16 -30 -38 -30 -49 0 -28 123 -642 127 -630 2 9 92
461 114 577 l13 67 -32 33 c-39 40 -40 50 -6 76 38 30 45 26 38 -16 -4 -30 5
-67 41 -168 26 -71 59 -164 73 -205 23 -64 27 -71 30 -45 2 16 -1 31 -6 33 -5
1 -8 24 -6 50 2 35 1 40 -4 17 -6 -24 -16 8 -50 161 -23 106 -42 196 -42 202
0 6 32 10 75 11 86 1 97 -8 72 -58 -18 -36 -24 -26 127 -201 54 -63 133 -154
174 -202 42 -48 77 -86 79 -85 3 3 -71 254 -139 475 -30 96 -34 104 -61 109
-16 3 -31 12 -34 19 -17 45 45 125 114 148 50 17 63 14 63 -13 0 -25 16 -36
75 -54 28 -8 128 -43 224 -76 96 -34 176 -60 178 -58 4 5 -325 322 -356 344
-13 9 -32 12 -49 8 l-28 -6 3 98 c2 66 0 91 -6 78 -5 -11 -10 -38 -10 -61 -1
-22 -8 -65 -17 -94 l-16 -54 26 -21 c15 -12 103 -70 196 -130 94 -60 168 -110
166 -112 -4 -4 -299 103 -338 123 -25 13 -26 17 -16 39 10 21 7 28 -21 54 -22
21 -31 39 -32 63 -2 58 3 92 16 125 12 29 19 70 16 100 -5 55 -151 58 -151 2
0 -5 11 -27 25 -49 44 -69 29 -131 -59 -245 -26 -33 -49 -70 -52 -82 -3 -13
-10 -23 -15 -23 -20 0 -6 36 45 123 59 99 73 147 57 189 -12 31 -54 47 -80 31
-18 -11 -32 -80 -35 -160 -1 -37 -7 -58 -20 -70 -18 -17 -18 -17 -12 23 5 37
2 48 -29 93 -19 28 -35 53 -35 56 0 3 17 32 38 63 21 31 44 72 50 91 17 47 15
106 -3 121 -22 18 -19 35 17 75 28 33 36 36 77 34 45 -3 46 -2 44 27 -3 35
-44 74 -80 74 -28 0 -93 -58 -93 -84 0 -27 -19 -18 -33 17 -17 40 -35 55 -73
62 -40 8 -75 -14 -90 -55 l-12 -35 -1 33 c-1 24 7 40 28 60 l29 27 -8 165 c-4
91 -8 136 -9 100 -1 -41 -5 -60 -10 -51 -7 11 -9 11 -14 0 -3 -8 -6 165 -6
385 0 219 -2 400 -4 402 -2 2 -10 -65 -17 -148z m-141 -433 c-4 -77 -9 -212
-10 -300 -2 -136 -3 -149 -9 -85 -13 129 -11 281 5 405 8 66 15 122 15 124 0
2 2 2 4 0 2 -2 0 -67 -5 -144z m-59 -417 c0 -23 -3 -29 -11 -21 -6 6 -8 20 -4
32 9 30 15 26 15 -11z m39 -108 c0 -25 -3 -51 -8 -59 -6 -9 -9 15 -9 65 0 52
2 72 8 59 5 -11 9 -40 9 -65z m-81 29 c2 -36 -9 -26 -23 20 -5 17 -4 22 6 19
8 -3 15 -20 17 -39z m-44 -65 c21 -21 20 -27 -3 -19 -11 3 -21 2 -24 -2 -7
-13 13 -73 24 -73 7 0 10 -22 7 -59 -2 -38 2 -64 10 -74 8 -9 12 -26 10 -39
-3 -20 -9 -16 -51 37 -29 37 -50 74 -53 97 -4 21 -13 43 -20 49 -21 17 -17 40
13 71 30 31 64 36 87 12z m431 -11 c28 -31 32 -55 11 -72 -7 -6 -16 -28 -20
-49 -3 -23 -24 -60 -53 -97 -42 -52 -48 -57 -51 -36 -2 12 4 31 13 41 13 14
14 23 6 39 -16 28 -14 67 5 85 8 9 18 32 21 51 4 28 2 35 -11 35 -24 0 -19 18
7 23 42 8 46 7 72 -20z m-345 -87 c0 -38 3 -45 22 -48 12 -2 23 -9 26 -15 6
-20 -55 -16 -62 3 -10 26 -7 104 4 104 6 0 10 -20 10 -44z m50 9 c0 -25 -4
-35 -16 -35 -11 0 -14 5 -9 18 4 9 10 25 12 35 8 27 13 20 13 -18z m140 -20
c0 -51 -18 -74 -54 -68 -29 6 -25 20 10 33 20 8 24 16 24 50 0 25 4 39 10 35
6 -3 10 -26 10 -50z m-401 -67 c28 -66 34 -88 22 -88 -15 0 -51 74 -51 105 0
36 8 31 29 -17z m168 10 c-3 -7 -5 -2 -5 12 0 14 2 19 5 13 2 -7 2 -19 0 -25z
m260 0 c-3 -7 -5 -2 -5 12 0 14 2 19 5 13 2 -7 2 -19 0 -25z m193 7 c0 -27
-33 -99 -50 -110 -17 -11 -11 33 10 67 11 18 20 41 20 51 0 9 5 17 10 17 6 0
10 -11 10 -25z m-311 -69 c-2 -23 -17 -60 -18 -46 -1 8 -4 24 -7 36 -4 14 -1
21 10 21 9 0 16 -5 15 -11z m-95 -79 c16 -37 26 -70 23 -74 -7 -7 -52 89 -63
132 -11 47 9 19 40 -58z m182 9 c-14 -29 -26 -58 -26 -64 0 -7 -4 -12 -10 -12
-14 0 -15 -1 42 130 6 15 12 20 15 12 3 -7 -7 -37 -21 -66z m-306 -30 c-14
-14 -22 -2 -14 18 5 14 9 15 15 4 4 -7 4 -17 -1 -22z m420 3 c0 -11 -4 -17
-10 -14 -5 3 -10 13 -10 21 0 8 5 14 10 14 6 0 10 -9 10 -21z m-349 -29 c26
-14 24 -32 -3 -28 -13 2 -24 11 -26 21 -4 20 2 21 29 7z m299 1 c0 -5 -7 -17
-16 -26 -13 -12 -20 -13 -28 -5 -8 8 -6 15 8 26 23 16 36 18 36 5z m-347 -186
l6 -40 -16 35 c-8 19 -17 55 -19 80 l-4 45 14 -40 c7 -22 16 -58 19 -80z m393
74 c-7 -46 -34 -115 -41 -107 -3 3 -1 18 4 34 6 16 15 48 21 72 14 54 25 55
16 1z m-336 -89 c22 -14 30 -12 30 6 0 25 44 13 48 -13 3 -19 -1 -23 -22 -23
-14 0 -28 -4 -31 -10 -21 -35 -56 30 -54 102 l2 53 6 -53 c4 -30 13 -57 21
-62z m60 100 c0 -5 -4 -10 -9 -10 -6 0 -13 5 -16 10 -3 6 1 10 9 10 9 0 16 -4
16 -10z m160 0 c0 -5 -7 -10 -15 -10 -8 0 -15 5 -15 10 0 6 7 10 15 10 8 0 15
-4 15 -10z m45 -107 c-18 -47 -26 -51 -46 -27 -7 8 -21 13 -31 10 -15 -3 -19
0 -16 17 4 27 35 34 52 11 12 -16 14 -15 29 7 10 13 18 39 19 59 l1 35 4 -34
c3 -19 -3 -54 -12 -78z m195 -2 c0 -26 -17 -36 -36 -20 -14 12 -14 14 2 26 25
18 34 16 34 -6z m-616 -18 c4 -9 3 -20 -1 -24 -13 -13 -37 7 -30 25 8 21 23
20 31 -1z m666 -104 c0 -11 -4 -17 -10 -14 -5 3 -10 13 -10 21 0 8 5 14 10 14
6 0 10 -9 10 -21z m-758 -31 c-24 -24 -30 -11 -11 24 8 15 14 17 22 9 8 -8 5
-17 -11 -33z m814 -174 c42 -82 103 -198 136 -258 32 -60 57 -110 55 -112 -2
-2 -30 29 -63 68 -32 40 -81 99 -109 133 -134 162 -127 150 -115 197 7 23 9
54 6 70 -5 26 2 64 10 55 2 -2 38 -71 80 -153z m-919 -86 c-63 -112 -124 -223
-136 -246 -13 -24 -24 -42 -26 -40 -2 2 26 103 63 223 l68 220 31 3 c18 2 46
17 69 39 29 27 40 32 42 20 2 -9 -48 -107 -111 -219z m493 163 c0 -9 -20 -37
-20 -29 0 3 -2 13 -5 21 -4 8 0 14 10 14 8 0 15 -3 15 -6z m-159 -62 c2 -32
-14 -91 -51 -202 -30 -86 -56 -154 -58 -152 -2 2 7 52 21 112 14 59 35 152 47
207 23 102 38 115 41 35z m103 -54 c-12 -30 -12 -55 1 -202 8 -92 14 -181 14
-198 -1 -27 -33 112 -59 250 -5 28 -12 64 -15 80 -5 24 0 37 25 68 39 46 53
48 34 2z"/>
<path d="M1113 2760 c0 -25 2 -35 4 -22 2 12 2 32 0 45 -2 12 -4 2 -4 -23z"/>
<path d="M1383 2660 c0 -25 2 -35 4 -22 2 12 2 32 0 45 -2 12 -4 2 -4 -23z"/>
<path d="M1123 2580 c0 -25 2 -35 4 -22 2 12 2 32 0 45 -2 12 -4 2 -4 -23z"/>
<path d="M1393 2490 c0 -30 2 -43 4 -27 2 15 2 39 0 55 -2 15 -4 2 -4 -28z"/>
<path d="M1134 2365 c0 -66 1 -92 3 -57 2 34 2 88 0 120 -2 31 -3 3 -3 -63z"/>
<path d="M1452 885 c-1 -44 25 -215 26 -175 1 14 -5 68 -12 120 -8 52 -14 77
-14 55z"/>
<path d="M1483 635 c0 -22 2 -30 4 -17 2 12 2 30 0 40 -3 9 -5 -1 -4 -23z"/>
</g>
</svg>
