<?xml version="1.0" standalone="no"?>
<!DOCTYPE svg PUBLIC "-//W3C//DTD SVG 20010904//EN"
 "http://www.w3.org/TR/2001/REC-SVG-20010904/DTD/svg10.dtd">
<svg version="1.0" xmlns="http://www.w3.org/2000/svg"
 width="244.000000pt" height="305.000000pt" viewBox="0 0 244.000000 305.000000"
 preserveAspectRatio="xMidYMid meet">
<metadata>
Created by potrace 1.16, written by Peter Selinger 2001-2019
</metadata>
<g transform="translate(0.000000,305.000000) scale(0.100000,-0.100000)"
fill="#000000" stroke="none">
<path d="M1068 2478 c2 -238 0 -462 -3 -497 -6 -57 -8 -62 -22 -48 -13 13 -16
55 -16 279 0 145 -3 236 -6 203 -6 -59 -6 -57 -19 60 -16 157 -34 273 -40 257
-2 -7 3 -68 12 -135 24 -180 36 -344 36 -503 l0 -142 -34 -26 c-19 -14 -37
-26 -41 -26 -3 0 -5 225 -3 500 2 275 0 500 -3 500 -6 0 -32 -130 -59 -290
-11 -61 -26 -297 -35 -525 l-5 -150 50 -43 51 -44 39 36 c43 38 61 39 78 1 11
-23 10 -24 -19 -18 -36 7 -75 -24 -84 -68 -8 -33 -21 -38 -30 -10 -23 73 -103
97 -145 44 -11 -15 -20 -36 -18 -47 2 -16 11 -20 47 -21 35 -1 49 -7 67 -29
25 -28 33 -76 13 -76 -14 0 -7 -88 16 -202 24 -119 9 -294 -20 -221 -3 10 -1
19 4 21 13 4 13 146 0 182 -6 18 -7 6 -5 -39 3 -41 1 -59 -5 -50 -5 8 -9 28
-9 44 0 36 -16 55 -45 55 -57 0 -71 -74 -30 -166 29 -66 29 -64 11 -64 -20 0
-76 116 -76 157 0 19 12 54 26 78 l25 44 -20 20 c-31 31 -95 29 -117 -4 -18
-27 -16 -46 11 -158 20 -77 15 -109 -21 -142 -19 -18 -25 -32 -22 -56 3 -31 1
-33 -67 -61 -105 -44 -249 -98 -252 -94 -4 3 64 51 207 147 146 97 147 98 132
156 -7 25 -16 73 -19 107 -6 58 -7 59 -15 26 -4 -19 -5 -61 -1 -93 l6 -57 -31
6 c-29 6 -40 -3 -202 -166 -95 -94 -170 -173 -168 -176 3 -2 31 6 64 17 32 12
122 44 199 71 77 28 148 52 157 55 11 3 18 15 18 29 0 12 4 25 9 28 12 8 101
-24 101 -36 0 -6 -20 -46 -45 -91 -25 -44 -44 -82 -41 -84 4 -5 100 58 104 69
2 4 13 8 24 8 27 0 20 -34 -9 -38 -12 -2 -26 -9 -31 -15 -11 -14 -166 -557
-160 -562 3 -3 322 379 340 408 19 32 17 7 -46 -392 -8 -51 7 -28 57 89 25 58
67 152 93 210 38 83 48 117 48 160 1 49 3 55 21 52 22 -4 75 -50 75 -65 0 -5
-13 -24 -29 -42 -27 -31 -28 -36 -19 -87 20 -119 110 -593 112 -596 2 -1 15
62 30 140 15 79 38 197 51 263 13 66 26 142 30 169 4 27 9 54 11 61 3 7 -8 29
-25 48 -17 19 -31 39 -31 44 0 18 56 63 79 63 21 0 22 -3 16 -43 -6 -40 1 -61
87 -250 51 -113 94 -202 96 -197 2 5 -8 88 -23 185 -14 97 -25 181 -23 187 2
6 84 -87 183 -206 98 -118 180 -214 182 -212 2 2 -5 34 -16 72 -16 60 -123
428 -137 477 -3 10 -21 25 -40 34 -19 9 -34 23 -34 30 0 17 25 17 42 -1 17
-16 78 -49 78 -41 0 3 -16 36 -35 74 -38 77 -38 77 34 105 47 18 57 15 63 -23
3 -21 25 -31 208 -96 113 -40 213 -76 223 -80 9 -4 17 -4 17 0 0 3 -80 85
-177 181 -166 162 -180 174 -207 168 l-29 -6 6 85 c4 47 3 88 -2 91 -10 6 -21
-74 -21 -152 l0 -54 38 7 c38 6 39 6 175 -127 76 -73 137 -136 137 -140 0 -4
-45 20 -101 55 -55 34 -130 80 -166 103 -130 80 -147 117 -114 237 26 95 26
102 1 127 -35 35 -130 22 -130 -18 0 -9 12 -35 25 -57 29 -47 30 -65 10 -127
-17 -48 -69 -117 -80 -106 -4 4 5 31 19 61 15 29 29 70 33 90 8 50 -17 87 -57
87 -34 0 -50 -22 -50 -72 -1 -18 -7 -46 -15 -63 -13 -29 -13 -29 -16 35 -2 55
-3 58 -6 20 -5 -55 -23 -79 -23 -30 1 45 24 154 44 205 20 52 20 104 1 111
-24 10 -17 49 14 83 23 25 37 31 70 31 39 0 41 2 41 29 0 35 -40 71 -77 71
-27 0 -83 -50 -83 -74 0 -30 -20 -26 -34 8 -17 40 -58 70 -86 63 -25 -6 -26
14 -2 36 19 17 26 15 94 -35 13 -10 22 -6 52 20 20 18 42 32 48 32 14 0 5 410
-12 566 -12 107 -48 326 -56 333 -7 7 -5 -11 11 -100 24 -141 44 -365 51 -565
l6 -191 -40 -32 c-22 -17 -43 -31 -47 -31 -3 0 -5 227 -3 504 2 278 0 499 -4
492 -20 -35 -78 -430 -78 -530 -1 -116 -17 -33 -24 119 -7 166 -25 366 -35
377 -3 4 -5 -174 -4 -395 0 -221 -1 -394 -4 -384 -5 20 -22 23 -25 5 -1 -7 -5
50 -8 127 l-6 140 -3 -190 c-1 -104 -6 -208 -10 -230 -7 -36 -8 -32 -15 45 -7
83 -14 153 -36 350 -14 122 -50 278 -60 259 -13 -25 -51 -244 -60 -351 -5 -57
-14 -132 -19 -168 -6 -36 -11 -90 -12 -120 l-1 -55 -8 55 c-4 30 -11 168 -14
305 -6 238 -30 568 -44 628 -4 15 -6 -167 -4 -405z m199 -130 c-3 -7 -5 -2 -5
12 0 14 2 19 5 13 2 -7 2 -19 0 -25z m20 -313 c0 -121 -3 -155 -7 -105 -9 117
-9 418 0 345 4 -33 8 -141 7 -240z m-197 -181 c0 -8 -5 -12 -10 -9 -6 4 -8 11
-5 16 9 14 15 11 15 -7z m296 -11 c-10 -10 -19 5 -10 18 6 11 8 11 12 0 2 -7
1 -15 -2 -18z m-89 -70 c-3 -10 -5 -2 -5 17 0 19 2 27 5 18 2 -10 2 -26 0 -35z
m-167 -9 c0 -15 -22 -44 -31 -39 -11 7 7 45 21 45 6 0 10 -3 10 -6z m-91 -48
c11 -30 12 -41 1 -61 -8 -15 -10 -39 -6 -69 4 -25 5 -46 2 -46 -10 0 -37 61
-41 91 -2 16 -10 36 -19 44 -16 17 -12 39 12 68 21 24 34 17 51 -27z m330 18
c3 -16 1 -17 -13 -5 -19 16 -21 34 -3 29 6 -3 14 -13 16 -24z m118 4 c28 -26
29 -42 3 -75 -11 -14 -20 -37 -20 -52 0 -14 -9 -37 -20 -51 l-20 -25 -2 65
c-3 94 0 131 13 146 15 18 19 18 46 -8z m-188 -90 c1 -10 -3 -18 -9 -18 -5 0
-10 17 -9 38 0 30 2 33 9 17 5 -11 9 -28 9 -37z m59 -27 c-3 -32 -6 -35 -38
-39 -46 -5 -55 -14 -71 -69 l-13 -47 -15 46 c-22 62 -35 75 -71 70 -24 -3 -32
0 -42 23 -8 18 -9 31 -2 43 17 26 31 24 43 -7 7 -16 21 -31 32 -34 11 -3 26
-21 34 -41 9 -20 18 -36 21 -36 3 0 12 16 20 35 8 20 25 40 38 45 15 5 25 20
30 40 5 28 8 31 22 20 9 -9 14 -26 12 -49z m-405 -43 c9 -23 15 -43 14 -45 -9
-9 -36 26 -42 55 -9 46 9 40 28 -10z m597 21 c0 -28 -18 -59 -35 -59 -11 0
-10 7 3 40 19 43 32 52 32 19z m-470 -16 c0 -22 -2 -25 -10 -13 -13 20 -13 40
0 40 6 0 10 -12 10 -27z m317 -10 c-3 -10 -5 -4 -5 12 0 17 2 24 5 18 2 -7 2
-21 0 -30z m-292 -73 c17 -33 18 -40 7 -40 -9 0 -32 44 -32 60 0 18 9 10 25
-20z m285 18 c0 -7 -9 -26 -20 -43 -23 -34 -25 -27 -8 22 12 33 28 45 28 21z
m-307 -119 c3 -11 2 -19 -1 -19 -13 1 -49 35 -56 53 -3 11 -15 21 -26 24 -14
4 -20 14 -20 31 0 25 2 24 49 -22 27 -27 52 -57 54 -67z m407 86 c0 -18 -7
-28 -25 -35 -14 -5 -25 -16 -25 -24 0 -14 -36 -46 -52 -46 -19 0 -4 25 43 76
29 30 53 54 55 54 2 0 4 -11 4 -25z m-533 -107 c-3 -7 -5 -2 -5 12 0 14 2 19
5 13 2 -7 2 -19 0 -25z m223 -4 c0 -8 -4 -14 -9 -14 -11 0 -22 26 -14 34 9 9
23 -3 23 -20z m127 -6 c-16 -10 -21 -2 -13 19 6 15 9 15 16 3 6 -9 5 -17 -3
-22z m-254 -83 c-6 -49 14 -95 43 -95 14 0 16 9 12 55 l-5 55 31 0 c29 -1 30
-2 13 -15 -26 -19 -18 -58 13 -65 18 -4 25 -12 25 -30 0 -23 -4 -25 -42 -24
-74 3 -88 10 -99 52 -11 42 -7 112 7 112 5 0 6 -20 2 -45z m377 -11 c0 -25 -7
-59 -16 -75 -13 -27 -20 -30 -52 -28 -21 2 -43 -1 -51 -5 -7 -5 -17 -4 -23 2
-15 15 -5 46 17 51 40 7 48 52 13 69 -22 10 -21 11 10 11 l32 1 0 -55 c0 -59
4 -64 32 -38 13 12 18 30 18 70 0 34 4 52 10 48 6 -3 10 -26 10 -51z m150 -54
c0 -5 -5 -10 -11 -10 -5 0 -7 5 -4 10 3 6 8 10 11 10 2 0 4 -4 4 -10z m-746
-26 c11 -27 7 -37 -9 -24 -16 14 -20 40 -6 40 5 0 12 -7 15 -16z m623 -16 c-3
-8 -6 -5 -6 6 -1 11 2 17 5 13 3 -3 4 -12 1 -19z m-437 -3 c0 -8 -2 -15 -4
-15 -2 0 -6 7 -10 15 -3 8 -1 15 4 15 6 0 10 -7 10 -15z m606 -50 c-4 -14 -11
-25 -16 -25 -13 0 -13 16 1 42 14 26 23 16 15 -17z m-856 -40 c0 -8 -16 -32
-36 -53 l-36 -37 28 53 c27 52 44 66 44 37z m124 -21 c3 -9 6 -46 6 -82 0 -37
4 -82 9 -100 9 -31 5 -38 -126 -203 -74 -93 -137 -168 -139 -166 -3 2 48 107
111 233 101 199 116 234 115 274 -1 25 -1 48 -1 53 2 13 19 7 25 -9z m728 -38
c8 -56 8 -56 61 -77 46 -18 36 6 117 -269 28 -96 53 -181 55 -187 13 -39 -17
12 -139 241 -119 222 -136 259 -136 300 0 40 3 47 17 44 13 -2 20 -17 25 -52z
m109 6 c12 -17 17 -32 12 -32 -16 1 -64 50 -58 61 10 15 24 7 46 -29z m-485
-77 c17 23 19 2 3 -27 -11 -21 -12 -21 -25 -3 -8 10 -14 26 -14 34 1 13 3 12
12 -3 11 -19 11 -19 24 -1z m-294 -51 c-3 -25 -7 -32 -13 -23 -13 21 -11 59 4
59 9 0 12 -11 9 -36z m78 33 c0 -10 -129 -450 -129 -442 -1 6 13 93 29 195 16
102 30 194 30 206 0 26 19 44 47 44 13 0 23 -1 23 -3z m467 -198 c29 -107 51
-197 50 -202 -5 -17 -137 310 -137 340 0 40 10 65 23 60 6 -2 35 -91 64 -198z
m46 189 c2 -7 -1 -26 -6 -43 l-11 -30 -7 25 c-11 41 -10 60 5 60 8 0 16 -6 19
-12z m-213 -156 c0 -15 -9 -70 -19 -122 -10 -52 -22 -117 -26 -143 -3 -27 -9
-47 -11 -44 -3 3 2 78 11 167 13 122 14 169 6 187 -17 37 -13 41 14 10 14 -15
25 -40 25 -55z"/>
<path d="M942 2825 c0 -11 4 -31 8 -45 l8 -25 0 25 c0 14 -3 34 -8 45 l-9 20
1 -20z"/>
<path d="M1052 2810 c0 -19 2 -27 5 -17 2 9 2 25 0 35 -3 9 -5 1 -5 -18z"/>
<path d="M1382 2760 c0 -19 2 -27 5 -17 2 9 2 25 0 35 -3 9 -5 1 -5 -18z"/>
<path d="M1043 2695 c0 -22 2 -30 4 -17 2 12 2 30 0 40 -3 9 -5 -1 -4 -23z"/>
<path d="M1373 2640 c0 -25 2 -35 4 -22 2 12 2 32 0 45 -2 12 -4 2 -4 -23z"/>
<path d="M1033 2560 c0 -36 2 -50 4 -32 2 17 2 47 0 65 -2 17 -4 3 -4 -33z"/>
<path d="M1363 2485 c0 -38 2 -53 4 -32 2 20 2 52 0 70 -2 17 -4 1 -4 -38z"/>
</g>
</svg>
