<?xml version="1.0" standalone="no"?>
<!DOCTYPE svg PUBLIC "-//W3C//DTD SVG 20010904//EN"
 "http://www.w3.org/TR/2001/REC-SVG-20010904/DTD/svg10.dtd">
<svg version="1.0" xmlns="http://www.w3.org/2000/svg"
 width="244.000000pt" height="305.000000pt" viewBox="0 0 244.000000 305.000000"
 preserveAspectRatio="xMidYMid meet">
<metadata>
Created by potrace 1.16, written by Peter Selinger 2001-2019
</metadata>
<g transform="translate(0.000000,305.000000) scale(0.100000,-0.100000)"
fill="#000000" stroke="none">
<path d="M884 2886 c-3 -14 -2 -32 2 -39 11 -14 12 -932 2 -942 -4 -4 -25 8
-47 26 l-41 32 0 101 c0 176 21 403 60 660 6 38 9 71 6 73 -5 5 -42 -204 -56
-312 -13 -108 -30 -536 -22 -551 4 -7 30 -28 59 -47 l52 -35 21 23 c12 13 36
29 53 36 l30 13 -7 214 c-9 297 -33 503 -82 702 -20 78 -21 80 -30 46z"/>
<path d="M1578 2404 c2 -321 0 -504 -7 -504 -5 0 -28 12 -51 27 l-41 27 6 181
c6 210 19 352 46 524 11 68 18 126 15 128 -13 13 -55 -285 -66 -470 -18 -311
-17 -393 8 -401 9 -4 32 -20 51 -36 l34 -31 26 24 c14 12 39 29 55 37 l29 15
-6 215 c-4 118 -14 276 -22 350 -16 134 -56 355 -72 397 -4 12 -7 -205 -5
-483z"/>
<path d="M1212 2609 c-1 -42 -11 -118 -21 -170 -23 -108 -41 -317 -41 -465 0
-104 -14 -146 -25 -77 -33 197 -48 244 -59 192 -36 -170 -36 -199 5 -223 45
-27 57 -70 34 -128 -8 -19 -40 -24 -50 -8 -3 6 -13 10 -22 10 -12 0 -14 -6 -8
-27 15 -62 61 -81 89 -38 25 37 37 31 30 -15 -6 -38 -5 -41 25 -51 23 -8 34
-19 38 -40 3 -16 12 -34 19 -40 8 -6 13 -23 13 -38 -1 -17 -3 -20 -6 -8 -2 9
-9 17 -14 17 -5 0 -9 7 -9 16 0 18 -34 50 -68 64 -25 11 -92 -10 -92 -28 0
-11 24 -22 49 -22 32 0 59 -42 70 -110 17 -105 15 -117 -20 -129 -25 -9 -30
-15 -27 -38 2 -22 9 -29 31 -31 22 -3 27 -8 27 -32 0 -24 -5 -31 -27 -36 -59
-14 -64 -59 -8 -70 24 -4 35 -13 39 -30 4 -14 4 -30 0 -36 -4 -6 -3 -8 3 -5 6
4 13 -5 17 -21 13 -62 48 -69 61 -13 4 17 10 29 15 26 5 -3 10 13 12 36 3 38
6 42 32 45 61 6 59 50 -2 66 -27 7 -32 13 -32 38 0 24 5 29 28 32 21 2 28 9
30 31 3 23 -2 29 -28 39 l-32 11 6 61 c12 111 39 166 80 166 12 0 28 5 36 10
13 8 13 11 0 23 -28 27 -65 28 -96 5 -16 -12 -32 -26 -35 -31 -11 -15 -21 13
-15 38 3 13 18 30 34 37 23 11 27 19 25 51 -3 43 8 47 31 12 20 -30 39 -32 66
-5 26 26 28 76 3 65 -37 -16 -56 -10 -66 18 -16 48 -1 93 38 116 40 23 41 31
22 150 -20 126 -37 104 -67 -91 -7 -43 -16 -78 -20 -78 -4 0 -11 87 -15 193
-7 189 -24 358 -45 427 -5 19 -11 62 -11 95 -1 49 -3 54 -9 30 -4 -16 -8 -22
-9 -12 0 10 -5 16 -10 12 -6 -3 -12 16 -14 42 -2 35 -4 27 -5 -28z m21 -445
c1 -197 -1 -345 -4 -328 -5 24 -7 26 -14 11 -10 -24 1 -158 14 -167 10 -6 7
-67 -3 -78 -3 -3 -7 10 -7 29 -1 23 -3 27 -6 12 -5 -27 -12 -28 -38 -9 -18 13
-19 23 -7 322 7 170 19 345 26 389 14 79 14 76 18 -185 l3 -265 3 319 c1 176
5 317 8 314 3 -3 6 -167 7 -364z m2 -408 c0 -15 -4 -21 -9 -16 -5 5 -6 16 -3
24 9 22 12 20 12 -8z m25 -232 c0 -8 -4 -12 -10 -9 -5 3 -10 10 -10 16 0 5 5
9 10 9 6 0 10 -7 10 -16z"/>
<path d="M744 1855 c-32 -13 -44 -32 -44 -66 0 -15 7 -19 36 -19 52 0 84 -20
114 -72 8 -14 6 -22 -10 -35 -12 -11 -20 -29 -20 -48 1 -56 22 -97 108 -215
11 -15 8 -24 -28 -64 -46 -54 -50 -83 -17 -114 52 -49 119 -34 97 22 -13 35
-13 69 1 83 8 8 29 5 75 -10 49 -16 69 -19 82 -11 29 19 19 34 -39 58 -90 36
-150 90 -193 173 -16 33 -22 83 -8 83 4 -1 18 -24 31 -53 33 -71 133 -162 199
-182 33 -10 29 29 -5 52 -39 26 -111 100 -134 136 -10 18 -19 43 -19 57 0 14
-9 33 -20 43 -27 23 -25 33 10 69 28 27 36 30 75 25 43 -4 45 -3 45 22 -1 34
-20 59 -58 72 -43 15 -82 -6 -106 -55 -18 -36 -21 -38 -30 -21 -22 36 -61 73
-86 78 -14 3 -39 0 -56 -8z"/>
<path d="M1435 1858 c-30 -16 -45 -39 -45 -70 0 -27 1 -27 44 -22 39 6 48 3
70 -19 29 -29 34 -72 11 -81 -8 -3 -15 -18 -15 -33 0 -15 -9 -43 -20 -61 -26
-42 -104 -119 -130 -127 -20 -6 -35 -38 -25 -54 20 -34 176 95 216 178 13 28
27 51 31 51 16 0 7 -47 -18 -95 -33 -65 -100 -126 -172 -155 -73 -30 -80 -36
-59 -57 16 -16 21 -16 87 4 89 26 100 18 81 -59 -11 -42 -11 -52 0 -59 20 -14
70 -2 96 23 36 34 34 41 -42 145 -15 20 -14 24 21 70 71 92 98 198 59 227 -42
31 35 110 102 104 30 -2 38 1 41 16 8 41 -38 86 -88 86 -23 0 -90 -56 -90 -75
0 -29 -20 -24 -36 10 -16 34 -58 65 -86 65 -7 0 -22 -6 -33 -12z"/>
<path d="M572 1524 c-28 -19 -29 -61 -2 -132 23 -60 19 -118 -11 -156 -16 -20
-365 -226 -384 -226 -13 0 24 37 153 152 l123 110 45 -7 46 -7 -7 94 c-4 51
-11 102 -15 112 -11 32 -20 -63 -10 -114 5 -25 9 -48 10 -52 0 -4 -18 -6 -39
-5 -37 2 -48 -6 -229 -168 -104 -93 -186 -171 -182 -173 4 -2 82 20 171 49 90
28 199 63 242 76 68 21 77 27 77 48 0 33 13 38 59 24 52 -15 110 -64 128 -107
17 -40 7 -57 -36 -65 -32 -7 -37 -20 -150 -382 -27 -88 -53 -168 -57 -179 -4
-12 -3 -17 4 -15 5 2 99 101 207 219 182 199 196 217 191 245 -14 76 -21 70
85 70 89 0 98 -2 132 -28 20 -15 37 -33 37 -40 0 -6 -14 -26 -32 -44 l-32 -33
33 -157 c60 -295 105 -496 108 -487 6 18 121 580 126 616 5 32 2 41 -24 62
-37 31 -37 48 1 80 37 31 73 38 165 34 77 -3 73 1 59 -73 -5 -28 5 -42 121
-170 224 -245 275 -299 275 -286 0 27 -172 556 -183 563 -7 4 -19 8 -28 8 -55
0 -35 90 29 133 81 54 132 59 132 13 0 -19 7 -27 33 -34 17 -6 124 -40 235
-77 112 -36 208 -65 214 -63 5 2 -48 55 -119 118 -70 63 -149 134 -175 159
-70 65 -85 73 -118 66 l-29 -6 6 90 c7 110 -11 127 -21 20 -3 -39 -11 -79 -16
-89 -24 -44 -13 -64 63 -110 229 -139 328 -202 324 -206 -2 -3 -28 4 -58 15
-30 11 -112 41 -184 67 -71 25 -132 48 -134 50 -2 2 1 15 7 30 11 23 9 28 -23
58 -30 29 -35 40 -35 79 0 25 9 74 20 109 25 79 25 93 0 118 -28 28 -102 28
-130 0 -20 -20 -20 -20 10 -67 17 -26 30 -56 30 -66 0 -43 -25 -99 -70 -154
-63 -78 -88 -130 -96 -197 -7 -61 -5 -67 173 -379 47 -82 82 -151 80 -154 -3
-2 -72 73 -154 167 -106 123 -147 178 -146 193 2 12 5 61 7 109 5 98 18 132
107 276 60 96 69 152 29 184 -26 21 -63 24 -77 6 -13 -16 -25 -86 -27 -154 -1
-39 -8 -59 -29 -88 -39 -50 -72 -62 -115 -42 -18 9 -51 16 -72 16 -39 0 -40
-1 -40 -34 0 -51 -9 -66 -40 -66 -26 0 -28 -4 -39 -61 -8 -40 -18 -62 -29 -66
-39 -15 -41 -29 -38 -324 1 -158 -1 -295 -4 -305 -4 -11 -11 5 -19 47 -7 35
-28 135 -47 221 -44 203 -44 208 6 254 45 42 48 59 20 114 -11 22 -20 49 -20
60 0 35 -19 60 -46 60 -29 0 -48 37 -38 76 6 23 4 24 -36 24 -23 0 -58 -7 -76
-16 -45 -21 -72 -10 -114 47 -23 32 -30 52 -29 83 2 37 -3 74 -17 144 -6 31
-65 31 -94 0 -38 -41 -24 -91 66 -235 93 -148 93 -163 -9 -333 -41 -69 -106
-180 -146 -247 -39 -68 -74 -123 -76 -123 -5 0 13 60 82 270 l58 174 48 15
c41 13 48 19 57 50 24 88 10 135 -70 230 -73 87 -88 162 -45 221 14 19 25 42
25 52 0 36 -96 51 -138 22z"/>
<path d="M1202 740 l1 -115 8 79 c5 43 4 95 0 115 -7 27 -9 6 -9 -79z"/>
</g>
</svg>
