<?xml version="1.0" standalone="no"?>
<!DOCTYPE svg PUBLIC "-//W3C//DTD SVG 20010904//EN"
 "http://www.w3.org/TR/2001/REC-SVG-20010904/DTD/svg10.dtd">
<svg version="1.0" xmlns="http://www.w3.org/2000/svg"
 width="244.000000pt" height="305.000000pt" viewBox="0 0 244.000000 305.000000"
 preserveAspectRatio="xMidYMid meet">
<metadata>
Created by potrace 1.16, written by Peter Selinger 2001-2019
</metadata>
<g transform="translate(0.000000,305.000000) scale(0.100000,-0.100000)"
fill="#000000" stroke="none">
<path d="M887 2904 c-10 -10 -9 -52 1 -58 8 -5 6 -935 -2 -943 -3 -3 -24 10
-47 28 l-41 34 6 178 c7 192 18 325 42 482 8 55 17 120 19 145 10 95 -24 -72
-45 -225 -14 -101 -23 -227 -26 -385 l-5 -235 55 -37 c54 -36 55 -36 72 -17
10 11 33 27 51 36 l33 15 0 102 c0 134 -17 421 -31 521 -12 88 -56 315 -67
346 -4 11 -11 17 -15 13z"/>
<path d="M1568 2876 c-3 -14 -1 -26 3 -26 5 0 9 -214 9 -475 0 -279 -4 -475
-9 -475 -5 0 -28 12 -51 28 l-43 27 7 185 c8 210 20 353 41 490 24 152 26 168
16 144 -14 -32 -50 -274 -60 -399 -4 -60 -9 -188 -10 -283 -2 -171 -2 -172 21
-181 13 -5 36 -20 52 -34 l30 -26 32 29 c18 15 42 31 53 35 19 6 21 14 21 108
0 234 -27 521 -70 746 -23 118 -34 148 -42 107z"/>
<path d="M1279 2629 c0 -96 -2 -169 -4 -164 -1 6 -11 38 -20 73 -10 34 -22 59
-26 55 -5 -5 -5 -40 -1 -79 4 -39 5 -106 1 -150 -4 -43 -8 -148 -8 -232 -1
-84 -5 -151 -10 -148 -13 8 -21 -62 -10 -90 11 -32 12 -47 0 -40 -5 3 -12 -4
-16 -17 l-7 -22 -8 25 c-4 14 -8 34 -9 44 -1 18 0 19 12 3 10 -14 12 21 11
185 -1 119 1 172 5 128 5 -66 7 -54 13 95 4 94 10 186 13 205 9 51 -13 13 -25
-43 -6 -29 -8 13 -7 141 1 100 -1 182 -5 182 -5 0 -8 -89 -8 -197 0 -109 -5
-272 -10 -363 -5 -91 -10 -209 -11 -262 -1 -54 -5 -98 -9 -98 -11 0 -16 18
-31 120 -23 164 -40 167 -61 10 l-12 -93 37 -29 c34 -28 37 -34 37 -84 0 -60
-16 -77 -52 -55 -23 14 -37 7 -33 -17 2 -9 4 -20 4 -24 2 -13 32 -38 47 -38 8
0 24 11 36 25 30 34 40 31 33 -8 -5 -24 -2 -39 9 -50 23 -22 21 -50 -1 -39
-20 9 -58 3 -88 -15 -24 -14 -17 -23 27 -32 28 -6 33 -11 36 -40 5 -52 -10
-55 -58 -14 -53 46 -100 118 -100 155 0 17 -7 31 -20 38 -28 15 -25 37 10 72
28 27 36 30 75 25 44 -4 45 -4 45 23 0 44 -30 72 -77 74 -49 1 -77 -20 -94
-72 l-12 -36 -17 35 c-27 52 -54 72 -100 72 -51 0 -80 -25 -80 -69 0 -32 0
-32 40 -27 47 7 82 -12 105 -57 14 -27 14 -30 -6 -49 -18 -16 -21 -28 -16 -60
7 -53 38 -117 82 -168 22 -26 33 -47 29 -57 -3 -9 -10 -16 -14 -16 -13 0 -60
-75 -60 -96 0 -46 92 -93 118 -61 9 11 10 22 2 41 -14 37 -13 71 3 85 10 8 28
5 68 -10 30 -11 55 -22 57 -24 2 -2 -2 -30 -9 -64 l-12 -61 -42 0 c-24 0 -57
-8 -73 -17 -39 -22 -70 -9 -112 48 -22 32 -30 52 -29 83 1 55 -11 138 -24 154
-13 17 -62 15 -81 -4 -40 -39 -33 -87 26 -182 91 -147 111 -191 104 -232 -3
-22 -37 -91 -76 -156 -39 -64 -70 -118 -70 -119 0 -6 -141 -240 -150 -249 -10
-10 3 34 79 269 58 179 55 173 95 180 47 9 68 36 74 94 6 65 -9 105 -64 171
-86 103 -105 178 -59 240 14 19 25 41 25 50 0 38 -113 55 -143 22 -22 -25 -21
-52 5 -133 19 -59 20 -73 9 -108 -13 -47 -37 -67 -166 -141 -161 -94 -261
-144 -245 -126 8 10 75 73 148 138 l133 120 45 -7 45 -6 -7 98 c-9 133 -26
157 -21 30 l3 -97 -33 6 c-31 6 -42 -2 -224 -167 -105 -95 -187 -175 -181
-177 6 -2 82 20 169 48 87 28 193 63 235 77 69 22 78 27 78 49 0 36 20 38 81
11 59 -27 92 -57 108 -100 14 -36 9 -43 -34 -57 -31 -10 -37 -18 -54 -73 -54
-173 -150 -474 -156 -489 -18 -46 29 -1 210 199 212 235 203 220 179 301 -6
22 -5 22 79 22 121 0 167 -21 167 -76 0 -15 -10 -38 -21 -50 -22 -23 -22 -24
-5 -111 9 -48 21 -108 27 -133 5 -25 27 -130 49 -234 35 -165 50 -223 50 -190
0 19 80 397 85 402 3 3 5 -7 5 -22 0 -16 4 -25 10 -21 13 8 13 72 1 77 -6 2
-2 46 10 107 l20 104 -30 31 c-36 37 -37 42 -14 64 43 44 66 52 157 52 l89 0
-6 -33 c-3 -17 -8 -39 -11 -47 -6 -16 28 -57 258 -309 76 -83 141 -150 143
-148 4 4 -162 542 -173 558 -2 4 -20 13 -39 19 -51 17 -46 56 16 123 15 16
107 57 128 57 6 0 11 -12 13 -27 3 -26 11 -31 128 -70 187 -63 353 -114 357
-110 2 2 -18 24 -45 48 -338 311 -324 300 -364 297 -24 -2 -32 1 -30 11 10 48
13 141 5 156 -8 13 -12 3 -17 -46 -4 -35 -14 -86 -23 -113 -13 -40 -13 -50 -2
-61 8 -7 93 -61 189 -120 177 -108 203 -125 184 -125 -11 0 -208 68 -279 96
-22 9 -50 20 -62 25 -20 7 -21 11 -10 40 10 26 9 33 -2 37 -7 2 -22 13 -32 23
-26 26 -25 118 1 194 23 66 19 97 -15 115 -29 16 -102 8 -123 -14 -14 -13 -13
-19 11 -55 49 -74 34 -149 -53 -252 -52 -64 -80 -133 -80 -202 0 -39 16 -72
189 -376 39 -69 69 -127 66 -129 -4 -4 -3 -6 -184 203 -116 133 -121 142 -116
175 3 19 8 69 9 111 4 83 9 95 97 240 47 76 59 104 59 137 0 54 -28 84 -73 80
-30 -3 -33 -6 -40 -53 -5 -27 -9 -75 -10 -105 -2 -43 -8 -63 -30 -91 -36 -48
-77 -65 -109 -48 -12 7 -44 16 -70 19 -47 6 -47 6 -50 -24 -3 -26 -6 -22 -18
27 -11 47 -11 63 -1 78 12 21 6 43 -10 34 -5 -4 -9 -2 -9 2 0 5 30 18 68 29
94 29 104 18 77 -87 -6 -23 -3 -27 19 -33 29 -7 80 14 94 41 14 24 -3 72 -38
108 -16 17 -30 34 -30 39 0 4 16 27 36 51 64 78 92 188 58 226 -14 16 -14 20
0 48 23 43 58 63 103 59 33 -3 38 0 41 20 4 29 -48 82 -81 82 -32 0 -84 -43
-101 -84 -12 -28 -14 -29 -21 -11 -17 50 -32 69 -64 82 -58 24 -111 -10 -111
-71 0 -25 2 -26 39 -20 46 7 76 -6 96 -45 13 -26 13 -30 -5 -46 -11 -10 -20
-27 -20 -37 0 -37 -30 -89 -79 -138 -28 -27 -55 -50 -61 -50 -5 0 -10 18 -10
40 0 37 2 40 28 40 37 0 44 8 31 32 -9 17 -19 20 -60 16 -43 -4 -49 -3 -49 13
0 11 5 19 10 19 6 0 10 20 10 45 0 25 3 45 7 45 4 0 17 -12 28 -27 30 -36 71
-27 83 20 12 41 7 48 -24 37 -37 -14 -40 -13 -54 20 -19 46 -6 91 35 118 39
25 39 22 24 129 -12 91 -17 113 -28 113 -8 0 -33 -115 -47 -214 -13 -95 -23
-20 -31 240 -4 142 -10 243 -14 224 -4 -19 -7 70 -7 198 0 129 -3 237 -6 240
-3 3 -6 -73 -7 -169z m-68 -887 c-13 -4 -15 -69 -2 -76 5 -3 11 -19 13 -35 4
-26 2 -28 -14 -17 -14 9 -18 24 -18 78 0 39 4 68 10 68 6 0 11 19 12 43 2 42
2 42 5 -8 3 -29 0 -51 -6 -53z m-44 -74 c-2 -18 -4 -6 -4 27 0 33 2 48 4 33 2
-15 2 -42 0 -60z m-243 -95 c22 -54 112 -145 168 -171 39 -18 51 -42 21 -42
-32 0 -120 58 -157 103 -38 47 -66 104 -66 137 0 33 14 23 34 -27z m656 27 c0
-25 -33 -92 -67 -136 -28 -37 -82 -77 -135 -99 -56 -23 -51 5 5 39 58 33 152
136 167 181 13 38 30 47 30 15z m-372 -41 c-3 -8 -7 -3 -11 10 -4 17 -3 21 5
13 5 -5 8 -16 6 -23z m65 11 c-3 -12 -8 -19 -11 -16 -5 6 5 36 12 36 2 0 2 -9
-1 -20z m-53 -58 c0 -15 -2 -15 -10 -2 -13 20 -13 33 0 25 6 -3 10 -14 10 -23z
m41 -3 c-9 -22 -10 -22 -10 -3 -1 11 2 24 6 27 12 12 14 0 4 -24z m-24 -26
c-3 -10 -5 -4 -5 12 0 17 2 24 5 18 2 -7 2 -21 0 -30z m-80 -35 c-3 -7 -5 -2
-5 12 0 14 2 19 5 13 2 -7 2 -19 0 -25z m160 10 c-3 -8 -6 -5 -6 6 -1 11 2 17
5 13 3 -3 4 -12 1 -19z m-20 -130 c-2 -13 -4 -3 -4 22 0 25 2 35 4 23 2 -13 2
-33 0 -45z m-150 30 c-3 -8 -6 -5 -6 6 -1 11 2 17 5 13 3 -3 4 -12 1 -19z
m180 0 c-3 -8 -6 -5 -6 6 -1 11 2 17 5 13 3 -3 4 -12 1 -19z m-150 -40 c-2
-13 -4 -5 -4 17 -1 22 1 32 4 23 2 -10 2 -28 0 -40z m-68 -182 c-9 -8 -10 -5
-5 14 3 14 6 32 7 40 1 8 4 2 6 -14 3 -16 -1 -34 -8 -40z m-7 -48 c-9 -9 -12
-7 -12 12 0 19 3 21 12 12 9 -9 9 -15 0 -24z m48 -14 c0 -2 -9 -4 -21 -4 -11
0 -18 4 -14 10 5 8 35 3 35 -6z m195 6 c3 -5 -1 -10 -9 -10 -9 0 -16 5 -16 10
0 6 4 10 9 10 6 0 13 -4 16 -10z m-168 -87 c-3 -10 -5 -2 -5 17 0 19 2 27 5
18 2 -10 2 -26 0 -35z m60 -75 c-3 -8 -6 -5 -6 6 -1 11 2 17 5 13 3 -3 4 -12
1 -19z m-20 -86 c-2 -20 0 -147 5 -281 5 -134 7 -245 5 -248 -7 -6 -60 266
-65 330 -2 31 -7 57 -11 57 -4 0 -4 31 0 69 6 56 13 73 36 97 32 33 37 29 30
-24z m20 -4 c-3 -8 -6 -5 -6 6 -1 11 2 17 5 13 3 -3 4 -12 1 -19z m-98 -60 c0
-31 -1 -31 -10 -10 -5 13 -7 28 -3 33 10 16 14 9 13 -23z"/>
<path d="M1172 805 c0 -16 2 -22 5 -12 2 9 2 23 0 30 -3 6 -5 -1 -5 -18z"/>
<path d="M1162 735 c0 -16 2 -22 5 -12 2 9 2 23 0 30 -3 6 -5 -1 -5 -18z"/>
<path d="M1120 493 c0 -55 5 -54 14 5 4 26 2 42 -4 42 -5 0 -10 -21 -10 -47z"/>
<path d="M1342 460 c0 -14 2 -19 5 -12 2 6 2 18 0 25 -3 6 -5 1 -5 -13z"/>
</g>
</svg>
