<?xml version="1.0" standalone="no"?>
<!DOCTYPE svg PUBLIC "-//W3C//DTD SVG 20010904//EN"
 "http://www.w3.org/TR/2001/REC-SVG-20010904/DTD/svg10.dtd">
<svg version="1.0" xmlns="http://www.w3.org/2000/svg"
 width="244.000000pt" height="305.000000pt" viewBox="0 0 244.000000 305.000000"
 preserveAspectRatio="xMidYMid meet">
<metadata>
Created by potrace 1.16, written by Peter Selinger 2001-2019
</metadata>
<g transform="translate(0.000000,305.000000) scale(0.100000,-0.100000)"
fill="#000000" stroke="none">
<path d="M897 2903 c-3 -4 -8 -26 -11 -48 -4 -30 -3 -34 3 -15 6 15 9 -167 10
-458 1 -266 -2 -482 -6 -480 -5 2 -25 14 -47 27 l-39 25 7 190 c7 204 26 408
50 546 19 104 19 148 1 65 -37 -164 -61 -417 -67 -690 -2 -136 -2 -140 20
-151 13 -6 33 -21 46 -33 28 -26 48 -27 70 -2 10 11 31 25 47 31 29 12 29 13
29 94 0 106 -27 491 -40 581 -12 81 -59 318 -64 323 -2 2 -6 0 -9 -5z"/>
<path d="M1184 2795 c0 -66 1 -92 3 -57 2 34 2 88 0 120 -2 31 -3 3 -3 -63z"/>
<path d="M1560 2893 c0 -12 -3 -30 -6 -40 -5 -15 -4 -15 5 -3 8 11 11 -120 11
-467 0 -266 -2 -483 -5 -483 -3 0 -24 12 -47 27 l-41 28 6 230 c6 219 18 341
52 534 8 47 15 93 14 101 -1 30 -29 -103 -49 -237 -22 -152 -48 -655 -34 -660
9 -3 54 -32 85 -55 14 -9 22 -7 48 15 17 14 41 29 53 32 l21 7 -7 242 c-6 244
-25 415 -67 626 -20 100 -39 150 -39 103z"/>
<path d="M1280 2750 c-3 -74 -4 -171 -3 -215 l2 -80 -21 73 c-11 40 -22 71
-25 68 -3 -2 -10 -26 -17 -53 l-13 -48 -7 74 c-9 88 -26 79 -26 -14 0 -38 3
-55 9 -46 10 15 6 -72 -10 -209 -5 -47 -12 -164 -15 -260 -4 -96 -8 -177 -10
-179 -9 -10 -14 10 -24 85 -19 136 -37 182 -54 137 -4 -9 -9 -58 -13 -108 l-6
-92 31 -19 c35 -20 47 -56 37 -105 -8 -35 -30 -47 -56 -31 -26 16 -29 15 -29
-11 0 -31 27 -67 50 -67 11 0 27 11 36 25 24 37 35 31 32 -17 -1 -26 3 -43 10
-46 7 -2 12 -12 12 -23 0 -16 -4 -17 -25 -9 -28 11 -64 1 -84 -24 -11 -13 -9
-16 16 -21 51 -12 53 -13 53 -55 l0 -41 -28 19 c-73 53 -132 138 -132 191 0
10 -7 21 -15 25 -25 9 -17 43 17 71 26 22 39 26 71 22 46 -6 55 8 33 51 -20
39 -29 44 -72 44 -40 0 -79 -30 -88 -68 -8 -31 -24 -31 -32 0 -19 77 -152 93
-170 22 -10 -43 0 -55 43 -49 33 4 42 0 71 -27 34 -34 42 -74 17 -84 -37 -14
-1 -140 64 -220 17 -21 31 -45 31 -52 0 -7 -13 -27 -30 -44 -59 -60 -50 -120
21 -141 37 -12 43 -11 55 5 10 14 10 24 3 38 -13 25 -15 76 -3 88 6 6 33 2 70
-11 57 -20 60 -22 56 -50 -3 -19 0 -29 8 -29 16 0 9 -60 -13 -110 l-15 -35 5
37 c5 34 3 38 -21 44 -17 4 -45 -1 -81 -16 -51 -21 -57 -21 -79 -6 -56 36 -73
74 -80 181 -4 55 -10 103 -14 106 -20 19 -51 18 -75 -2 -23 -17 -27 -28 -27
-68 0 -40 9 -62 51 -131 77 -128 89 -155 89 -206 0 -42 -14 -72 -132 -278
-123 -216 -172 -293 -154 -241 4 11 28 85 53 165 89 283 75 253 127 269 40 13
47 19 56 50 5 20 10 55 10 77 0 41 -10 60 -106 193 -29 42 -47 104 -38 134 4
12 18 39 31 60 23 37 24 40 7 58 -23 26 -104 26 -127 1 -21 -23 -22 -67 -2
-122 19 -54 19 -113 0 -149 -10 -21 -61 -56 -177 -124 -235 -136 -247 -141
-168 -67 36 34 104 97 152 140 84 76 88 79 120 69 18 -5 37 -9 41 -9 8 0 3 85
-10 174 -9 63 -22 20 -17 -54 3 -36 7 -71 9 -78 4 -10 -4 -11 -29 -6 -31 5
-40 1 -82 -38 -27 -23 -69 -61 -93 -83 -25 -22 -80 -73 -123 -114 -43 -40 -86
-79 -95 -86 -10 -8 -16 -16 -13 -18 6 -6 174 44 350 105 118 41 125 45 128 72
3 26 6 28 35 22 57 -12 117 -54 139 -101 18 -36 19 -46 8 -59 -7 -9 -20 -16
-30 -16 -10 0 -22 -6 -28 -12 -16 -19 -186 -558 -178 -565 3 -3 136 139 213
227 17 19 65 73 107 120 83 91 79 80 59 168 -5 22 -3 22 84 22 77 0 95 -3 123
-22 56 -38 59 -53 22 -91 l-33 -34 20 -100 c13 -63 19 -119 16 -149 -5 -40 -4
-46 6 -32 11 13 19 -16 51 -170 21 -103 39 -191 41 -196 2 -5 20 77 41 183 22
105 43 191 47 191 4 0 10 -19 12 -43 l4 -42 1 47 c1 26 -3 50 -8 53 -6 3 -8
16 -6 28 3 12 12 60 21 107 9 47 18 92 21 101 2 9 -7 31 -21 48 -34 39 -29 69
14 98 29 20 47 23 122 23 97 0 96 1 78 -61 -11 -36 -10 -40 22 -77 119 -138
369 -413 369 -406 0 8 -136 454 -158 518 -14 41 -23 52 -54 64 -23 9 -38 22
-38 32 0 31 54 100 95 120 62 30 87 30 95 0 5 -21 21 -30 115 -63 203 -71 376
-125 373 -117 -2 5 -66 66 -143 137 -77 71 -160 148 -185 171 -39 37 -50 42
-78 38 l-34 -5 6 77 c8 93 -8 133 -17 44 -4 -33 -14 -81 -22 -107 -13 -36 -14
-50 -4 -61 6 -8 62 -44 123 -81 168 -100 249 -154 243 -160 -5 -5 -302 98
-338 118 -15 8 -16 13 -6 40 10 26 9 33 -2 37 -56 19 -66 96 -30 220 l22 72
-23 25 c-29 31 -96 35 -130 7 l-22 -18 31 -49 c26 -41 30 -55 24 -89 -8 -53
-26 -90 -74 -147 -46 -55 -76 -122 -85 -188 -6 -47 -3 -56 52 -158 31 -59 66
-124 77 -143 11 -19 44 -79 75 -133 30 -54 52 -100 50 -102 -3 -4 -218 242
-280 321 -16 20 -17 35 -9 148 l9 125 70 118 c79 133 92 178 60 218 -27 35
-79 32 -89 -5 -23 -82 -29 -123 -20 -138 12 -22 -18 -81 -59 -116 -36 -30 -47
-31 -86 -11 -36 18 -104 20 -105 3 -1 -16 -15 43 -24 99 -6 41 -5 42 27 52 18
5 48 14 66 20 29 9 34 8 41 -11 4 -12 3 -41 -3 -65 -8 -36 -7 -46 5 -54 33
-22 109 24 109 66 0 12 -17 43 -37 69 -41 53 -43 41 20 136 32 48 57 111 57
146 0 13 -9 32 -21 43 -19 18 -20 21 -5 49 22 43 54 62 103 62 38 0 43 3 43
23 0 27 -30 62 -60 72 -39 12 -87 -13 -107 -55 -21 -46 -30 -49 -39 -16 -17
69 -106 94 -150 42 -13 -15 -24 -38 -24 -52 0 -24 2 -25 46 -18 41 6 48 4 75
-22 34 -32 37 -59 9 -74 -11 -6 -17 -17 -14 -24 6 -17 -27 -92 -53 -121 -30
-33 -93 -85 -103 -85 -13 0 -13 46 0 69 5 10 26 22 46 25 35 7 35 8 18 27 -19
21 -64 25 -95 9 -16 -9 -19 -7 -19 8 0 11 7 25 15 32 9 7 15 29 15 51 0 22 2
39 5 39 3 0 16 -12 29 -26 16 -19 28 -25 43 -20 20 6 43 44 43 71 0 17 -26 20
-35 5 -11 -18 -43 -10 -49 13 -13 50 -6 88 20 112 15 14 31 25 35 25 21 0 1
200 -21 223 -9 10 -23 -51 -41 -166 -24 -160 -31 -100 -49 473 -16 502 -16
489 -20 340z m-60 -592 c-7 -164 -17 -298 -22 -298 -4 0 -9 -21 -9 -47 l-2
-48 -6 50 c-4 28 -9 55 -13 60 -4 6 -3 17 3 25 6 11 9 7 10 -15 l1 -30 8 30
c4 17 8 137 9 267 1 139 6 268 14 310 11 66 12 69 16 33 2 -22 -2 -174 -9
-337z m-43 -170 c-2 -29 -3 -6 -3 52 0 58 1 81 3 53 2 -29 2 -77 0 -105z m48
-347 c-9 -49 -26 -25 -32 48 -4 40 -2 66 6 75 7 8 15 68 19 143 l7 128 3 -180
c2 -99 0 -195 -3 -214z m-45 57 c0 -20 -4 -40 -10 -43 -6 -4 -10 16 -10 52 0
41 3 54 10 43 5 -8 10 -32 10 -52z m394 -106 c-20 -82 -97 -177 -176 -216 -48
-24 -68 -26 -68 -6 0 5 19 19 42 31 58 30 139 114 168 176 25 53 45 62 34 15z
m-640 -25 c29 -61 102 -135 164 -166 23 -12 42 -28 42 -36 0 -19 2 -19 -56 7
-67 29 -157 122 -178 184 -18 55 -19 64 -7 64 5 0 20 -24 35 -53z m253 1 c-3
-7 -5 -2 -5 12 0 14 2 19 5 13 2 -7 2 -19 0 -25z m26 -33 c5 -28 4 -34 -3 -20
-8 19 -14 73 -6 64 2 -2 6 -22 9 -44z m47 -22 c-11 -17 -11 -17 -6 0 3 10 7
31 7 45 l2 27 4 -27 c2 -15 -1 -35 -7 -45z m-23 -30 c-3 -10 -5 -4 -5 12 0 17
2 24 5 18 2 -7 2 -21 0 -30z m-80 -115 c-2 -18 -4 -4 -4 32 0 36 2 50 4 33 2
-18 2 -48 0 -65z m160 -5 c-2 -16 -4 -3 -4 27 0 30 2 43 4 28 2 -16 2 -40 0
-55z m-140 0 c-3 -10 -5 -4 -5 12 0 17 2 24 5 18 2 -7 2 -21 0 -30z m-10 -175
c-3 -7 -5 -2 -5 12 0 14 2 19 5 13 2 -7 2 -19 0 -25z m180 -30 c-3 -7 -5 -2
-5 12 0 14 2 19 5 13 2 -7 2 -19 0 -25z m-7 -78 c0 -5 -7 -10 -16 -10 -8 0
-12 5 -9 10 3 6 10 10 16 10 5 0 9 -4 9 -10z m-163 -77 c-2 -16 -4 -3 -4 27 0
30 2 43 4 28 2 -16 2 -40 0 -55z m60 -85 c-3 -8 -6 -5 -6 6 -1 11 2 17 5 13 3
-3 4 -12 1 -19z m-9 -355 c-1 -145 -2 -262 -4 -260 -2 2 -51 233 -61 287 -7
36 24 256 39 280 12 19 13 19 20 -12 4 -18 6 -151 6 -295z m-77 130 c-7 -13
-9 -3 -6 37 3 45 2 48 -4 20 l-8 -35 -2 38 c0 21 5 44 12 51 10 11 13 4 15
-40 2 -30 -2 -62 -7 -71z"/>
<path d="M1201 1720 c0 -14 4 -34 9 -45 7 -17 9 -16 9 10 0 17 -4 37 -9 45 -8
12 -10 10 -9 -10z"/>
<path d="M1102 1200 c0 -14 2 -19 5 -12 2 6 2 18 0 25 -3 6 -5 1 -5 -13z"/>
<path d="M1132 465 c0 -16 2 -22 5 -12 2 9 2 23 0 30 -3 6 -5 -1 -5 -18z"/>
</g>
</svg>
