<?xml version="1.0" standalone="no"?>
<!DOCTYPE svg PUBLIC "-//W3C//DTD SVG 20010904//EN"
 "http://www.w3.org/TR/2001/REC-SVG-20010904/DTD/svg10.dtd">
<svg version="1.0" xmlns="http://www.w3.org/2000/svg"
 width="244.000000pt" height="305.000000pt" viewBox="0 0 244.000000 305.000000"
 preserveAspectRatio="xMidYMid meet">
<metadata>
Created by potrace 1.16, written by Peter Selinger 2001-2019
</metadata>
<g transform="translate(0.000000,305.000000) scale(0.100000,-0.100000)"
fill="#000000" stroke="none">
<path d="M1570 2905 c-1 -5 -3 -17 -5 -25 -34 -132 -63 -294 -79 -455 -3 -27
-9 -152 -12 -276 l-7 -225 31 -13 c17 -7 38 -21 48 -32 23 -25 36 -24 63 5 13
13 34 27 47 30 23 6 24 9 24 104 -1 243 -34 600 -70 738 l-10 39 5 -45 c2 -25
11 -90 19 -145 18 -117 32 -291 41 -496 l7 -146 -43 -31 c-24 -18 -47 -32 -51
-32 -4 0 -8 214 -8 476 0 314 3 473 10 469 6 -3 10 0 9 7 -2 21 -17 64 -19 53z"/>
<path d="M876 2833 c-48 -215 -71 -412 -82 -719 -6 -191 -6 -192 15 -199 12
-4 38 -21 57 -37 l35 -31 27 25 c15 14 37 30 48 36 32 17 35 73 18 352 -13
235 -53 534 -76 570 -7 12 -8 10 -4 -5 32 -120 75 -575 76 -796 l0 -75 -41
-28 c-23 -14 -44 -24 -48 -21 -8 8 -3 921 5 963 4 20 3 32 -4 32 -6 0 -17 -30
-26 -67z"/>
<path d="M1168 2598 c2 -143 -2 -316 -11 -448 -8 -118 -13 -230 -10 -247 3
-20 1 -33 -5 -33 -6 0 -14 17 -17 38 -27 163 -38 204 -50 188 -7 -8 -18 -57
-25 -107 -15 -100 -17 -92 44 -132 24 -16 31 -96 11 -123 -12 -16 -17 -17 -34
-6 -30 18 -41 15 -41 -12 0 -38 31 -69 62 -61 14 4 28 15 31 26 8 29 27 23 26
-8 0 -16 3 -45 7 -67 7 -37 6 -38 -14 -27 -17 9 -29 8 -56 -3 -44 -18 -55 -36
-22 -36 30 0 45 -25 36 -60 -6 -25 -7 -24 -54 25 -48 49 -76 98 -76 131 0 10
-7 25 -16 35 -38 42 25 107 92 96 40 -7 44 -2 32 41 -18 65 -114 75 -152 17
-9 -14 -16 -31 -16 -40 0 -27 -19 -16 -34 19 -17 41 -48 60 -96 58 -41 -2 -83
-42 -78 -75 3 -18 10 -21 52 -22 41 0 52 -5 77 -33 33 -36 36 -54 14 -72 -36
-30 -9 -135 59 -223 20 -26 36 -49 36 -51 0 -2 -16 -23 -35 -46 -59 -70 -44
-130 36 -145 47 -9 55 4 39 60 -9 31 -9 48 -1 63 10 20 12 20 68 3 52 -15 58
-20 61 -46 4 -35 -15 -105 -28 -105 -6 0 -10 10 -11 23 l0 22 -9 -22 c-5 -13
-18 -23 -29 -23 -11 0 -36 -8 -55 -17 -47 -22 -77 -8 -116 54 -23 36 -29 55
-24 76 3 16 1 48 -4 71 -6 22 -13 53 -17 69 -4 21 -11 27 -33 27 -47 0 -72
-25 -72 -73 0 -23 8 -56 18 -73 9 -18 43 -77 76 -133 57 -99 59 -105 62 -184
2 -45 6 -95 9 -112 6 -27 -4 -42 -97 -150 -120 -140 -217 -241 -196 -205 8 14
68 121 133 239 101 183 118 220 117 255 -3 69 -32 138 -88 208 -30 37 -59 79
-64 93 -17 46 -12 98 15 137 31 45 31 53 3 72 -35 25 -100 21 -127 -8 l-22
-24 26 -96 c30 -110 25 -154 -21 -191 -23 -19 -25 -24 -15 -43 15 -28 8 -39
-32 -51 -18 -5 -88 -30 -157 -56 -69 -26 -136 -49 -150 -52 l-25 -6 25 20 c14
11 61 41 105 67 101 60 242 149 256 163 7 7 6 29 -5 74 -9 35 -19 87 -22 114
-5 38 -8 45 -14 30 -5 -11 -7 -29 -5 -40 2 -11 6 -46 9 -77 l6 -57 -39 2 c-36
2 -47 -6 -226 -167 -104 -94 -184 -171 -178 -173 6 -2 116 31 244 74 229 76
234 79 237 107 3 26 6 28 35 22 47 -10 116 -54 138 -89 30 -49 25 -72 -19 -89
-37 -15 -37 -15 -86 -169 -117 -372 -127 -409 -116 -409 4 0 10 4 12 9 2 5 41
51 88 102 47 51 134 147 193 212 79 86 107 123 102 135 -15 37 -23 71 -17 76
10 11 171 6 197 -6 21 -9 25 -18 25 -54 0 -23 -4 -53 -8 -66 -5 -13 -5 -70 0
-128 7 -73 6 -110 -1 -122 -13 -21 -14 -55 -2 -62 5 -3 12 18 15 47 9 61 18
51 34 -38 6 -33 25 -125 42 -204 16 -79 30 -149 30 -154 0 -31 13 17 44 168
55 261 66 308 72 314 4 3 3 -14 -1 -39 -5 -31 -4 -42 3 -35 15 14 17 221 2
274 -17 64 -8 88 40 101 53 14 186 9 183 -7 -18 -93 -29 -73 144 -264 87 -96
177 -196 201 -223 23 -27 42 -43 42 -36 0 25 -168 550 -181 566 -5 7 -23 14
-39 18 -64 12 -19 103 73 147 64 30 84 29 93 -6 6 -25 14 -29 139 -69 44 -14
138 -44 208 -67 71 -22 130 -39 133 -36 5 5 -11 20 -181 177 -176 162 -191
173 -225 165 l-32 -7 7 90 c5 55 4 92 -2 95 -10 6 -23 -88 -23 -170 l0 -43 43
6 42 6 148 -133 c81 -73 145 -134 143 -136 -2 -3 -35 12 -73 33 -37 21 -81 45
-98 54 -16 9 -74 42 -128 74 -129 76 -147 114 -112 230 31 102 12 146 -61 146
-48 0 -86 -23 -77 -48 4 -9 18 -34 31 -54 23 -35 23 -40 12 -88 -9 -36 -32
-78 -76 -137 -61 -82 -64 -88 -64 -144 0 -85 10 -104 63 -119 34 -9 48 -19 56
-39 25 -65 131 -406 129 -413 -2 -5 -17 15 -34 44 -17 29 -66 114 -109 188
-43 74 -95 164 -116 199 -61 102 -57 125 49 295 63 101 79 170 47 206 -20 22
-67 27 -82 8 -12 -16 -24 -84 -27 -154 -2 -39 -9 -59 -32 -87 -43 -54 -70 -62
-127 -38 -26 11 -49 21 -52 21 -3 0 -9 0 -14 0 -5 0 -11 19 -15 43 -4 23 -9
51 -12 63 -5 18 1 23 40 34 25 7 53 10 62 6 17 -6 16 -17 -2 -98 -5 -23 -2
-28 19 -33 30 -8 82 17 97 45 13 24 -8 75 -46 111 -30 28 -30 40 0 68 65 62
113 220 73 242 -26 15 -21 37 17 75 29 29 41 34 80 34 41 0 46 2 46 23 -1 31
-22 55 -59 68 -46 16 -87 -4 -112 -53 -22 -44 -24 -44 -47 4 -35 69 -144 68
-159 -2 -8 -41 -3 -45 42 -42 69 6 125 -57 84 -94 -10 -9 -19 -28 -19 -41 0
-42 -56 -124 -111 -163 l-29 -21 0 40 c0 36 3 40 30 46 17 4 30 9 30 12 0 15
-39 32 -72 33 -31 0 -38 4 -38 20 0 11 5 20 10 20 7 0 9 15 5 40 -7 44 5 52
28 20 8 -12 26 -23 40 -25 21 -4 27 1 40 32 16 40 7 67 -15 45 -14 -14 -44
-16 -53 -3 -8 14 -14 74 -9 96 3 11 21 30 41 43 35 24 35 24 29 80 -10 85 -26
162 -35 162 -4 0 -13 -28 -19 -62 -6 -35 -17 -91 -23 -125 -6 -35 -15 -63 -19
-63 -5 0 -9 111 -10 248 -1 136 -6 339 -9 452 l-8 205 -3 -210 c-3 -179 -5
-195 -10 -110 -3 55 -7 80 -9 55 l-3 -45 -13 40 c-10 32 -13 35 -14 15 0 -14
4 -43 9 -65 18 -73 41 -348 39 -460 -1 -60 2 -118 6 -128 4 -11 3 -23 -4 -30
-8 -8 -11 -5 -11 11 0 29 -18 28 -22 0 -2 -13 -3 40 -2 117 1 139 1 139 -5 35
-6 -89 -8 -67 -11 140 -3 135 -5 293 -5 352 0 59 -3 110 -7 113 -3 3 -14 -27
-24 -67 l-19 -73 -7 50 c-3 28 -7 112 -7 188 -1 75 -4 137 -9 137 -4 0 -6
-105 -4 -232z m122 -893 c0 -53 -9 -82 -26 -89 -11 -4 -14 4 -13 37 1 37 2 39
10 17 6 -18 7 -9 4 31 -3 31 -2 59 2 63 12 11 23 -17 23 -59z m-362 -130 c26
-53 86 -121 142 -160 44 -31 54 -57 18 -47 -73 18 -183 142 -195 219 -8 47 9
41 35 -12z m649 12 c-12 -75 -113 -194 -179 -210 -40 -10 -43 9 -4 32 51 32
142 135 156 176 15 45 34 46 27 2z m-380 -34 c-3 -10 -5 -4 -5 12 0 17 2 24 5
18 2 -7 2 -21 0 -30z m80 5 c-3 -7 -5 -2 -5 12 0 14 2 19 5 13 2 -7 2 -19 0
-25z m-57 -63 c0 -5 -5 -3 -10 5 -5 8 -10 20 -10 25 0 6 5 3 10 -5 5 -8 10
-19 10 -25z m17 -12 c-3 -10 -5 -4 -5 12 0 17 2 24 5 18 2 -7 2 -21 0 -30z
m-71 -98 l1 -80 -6 70 c-4 48 -10 69 -18 68 -14 -3 -18 38 -6 51 15 14 27 -32
29 -109z m168 82 c5 -19 3 -26 -6 -25 -9 2 -14 -19 -18 -72 l-5 -75 -8 49 c-4
28 -3 66 3 90 20 78 23 80 34 33z m3 -109 c-3 -8 -6 -5 -6 6 -1 11 2 17 5 13
3 -3 4 -12 1 -19z m42 -187 c4 -28 4 -54 0 -57 -5 -3 -9 2 -9 10 0 9 -4 16
-10 16 -5 0 -10 5 -10 11 0 5 5 7 12 3 8 -5 9 5 4 37 -4 24 -4 41 -1 37 3 -3
9 -29 14 -57z m-200 6 c1 -5 -3 -5 -9 -2 -5 3 -10 16 -9 28 0 21 1 21 9 2 5
-11 9 -24 9 -28z m124 15 c-3 -12 -9 -22 -14 -22 -5 0 -3 11 3 25 13 30 20 28
11 -3z m-156 -4 c-3 -8 -6 -5 -6 6 -1 11 2 17 5 13 3 -3 4 -12 1 -19z m-17
-108 c0 -5 -4 -10 -10 -10 -5 0 -10 5 -10 10 0 6 5 10 10 10 6 0 10 -4 10 -10z
m235 0 c-3 -5 -13 -10 -21 -10 -8 0 -12 5 -9 10 3 6 13 10 21 10 8 0 12 -4 9
-10z m-128 -162 c-3 -8 -6 -5 -6 6 -1 11 2 17 5 13 3 -3 4 -12 1 -19z m-87
-47 c0 -17 -4 -33 -10 -36 -6 -4 -10 8 -10 29 0 20 5 36 10 36 6 0 10 -13 10
-29z m180 -102 c0 -47 -32 -234 -65 -369 l-24 -105 5 85 c3 47 6 180 7 296 l2
211 37 -41 c28 -31 37 -50 38 -77z m-13 89 c-3 -8 -6 -5 -6 6 -1 11 2 17 5 13
3 -3 4 -12 1 -19z"/>
<path d="M1307 775 c3 -27 7 -52 9 -54 7 -8 2 54 -6 79 -6 17 -7 9 -3 -25z"/>
<path d="M1153 2450 c0 -47 2 -66 4 -42 2 23 2 61 0 85 -2 23 -4 4 -4 -43z"/>
<path d="M1282 1920 c0 -14 2 -19 5 -12 2 6 2 18 0 25 -3 6 -5 1 -5 -13z"/>
<path d="M1080 1286 c0 -8 5 -18 10 -21 6 -3 10 1 10 9 0 8 -4 18 -10 21 -5 3
-10 -1 -10 -9z"/>
<path d="M1071 1234 c0 -11 3 -14 6 -6 3 7 2 16 -1 19 -3 4 -6 -2 -5 -13z"/>
<path d="M1356 483 c9 -51 14 -54 14 -10 0 20 -5 39 -11 42 -7 5 -8 -5 -3 -32z"/>
<path d="M1102 450 c0 -14 2 -19 5 -12 2 6 2 18 0 25 -3 6 -5 1 -5 -13z"/>
</g>
</svg>
