<?xml version="1.0" standalone="no"?>
<!DOCTYPE svg PUBLIC "-//W3C//DTD SVG 20010904//EN"
 "http://www.w3.org/TR/2001/REC-SVG-20010904/DTD/svg10.dtd">
<svg version="1.0" xmlns="http://www.w3.org/2000/svg"
 width="244.000000pt" height="305.000000pt" viewBox="0 0 244.000000 305.000000"
 preserveAspectRatio="xMidYMid meet">
<metadata>
Created by potrace 1.16, written by Peter Selinger 2001-2019
</metadata>
<g transform="translate(0.000000,305.000000) scale(0.100000,-0.100000)"
fill="#000000" stroke="none">
<path d="M1142 2885 c0 -16 2 -22 5 -12 2 9 2 23 0 30 -3 6 -5 -1 -5 -18z"/>
<path d="M1546 2888 c-9 -34 -6 -57 4 -33 5 12 9 -186 9 -467 1 -269 -1 -488
-4 -488 -3 0 -24 12 -47 27 l-41 28 7 195 c7 230 18 357 47 538 11 74 19 136
17 138 -7 6 -47 -223 -59 -340 -6 -59 -14 -209 -17 -333 l-7 -224 31 -19 c17
-11 38 -28 48 -39 18 -20 19 -20 61 14 23 19 47 35 54 35 21 0 9 405 -20 625
-16 122 -59 349 -68 358 -5 5 -11 -2 -15 -15z"/>
<path d="M900 2883 c0 -10 -3 -29 -5 -43 -5 -22 -4 -22 4 -5 6 13 10 -148 10
-457 1 -263 -1 -478 -4 -478 -3 0 -20 10 -38 22 -18 13 -34 24 -37 26 -18 12
14 535 45 746 17 111 14 143 -4 43 -37 -212 -61 -500 -61 -735 0 -70 3 -84 18
-89 9 -4 32 -19 51 -35 l33 -29 27 24 c14 14 36 30 49 36 21 11 22 16 22 169
0 256 -29 540 -77 755 -13 62 -33 91 -33 50z"/>
<path d="M1321 2835 c-1 -11 -2 -207 -3 -435 0 -321 -2 -383 -8 -275 -5 77
-13 174 -19 215 -14 104 -52 261 -61 255 -4 -2 -10 -21 -14 -42 -3 -21 -15
-81 -25 -133 l-19 -95 -2 135 c-7 383 -17 332 -19 -95 -2 -451 -3 -459 -20
-420 -10 22 -21 66 -25 97 -12 97 -27 87 -46 -32 -16 -104 -14 -125 15 -138
20 -9 25 -19 25 -49 l0 -38 -16 32 c-12 23 -27 36 -51 42 -54 15 -84 -4 -109
-74 l-12 -30 -12 30 c-20 53 -49 75 -97 75 -46 0 -70 -22 -75 -70 -3 -23 0
-25 43 -25 51 -1 65 -9 91 -53 17 -28 17 -30 -3 -53 -16 -18 -19 -31 -14 -64
8 -49 46 -130 80 -169 14 -16 25 -33 25 -37 0 -5 -16 -29 -35 -55 -19 -25 -35
-56 -35 -68 0 -34 44 -70 86 -70 25 0 33 -4 29 -14 -3 -7 -5 -17 -5 -22 0 -14
-29 -20 -54 -10 -43 16 -81 77 -83 134 0 28 -5 76 -10 106 -7 50 -10 55 -36
58 -16 2 -40 -4 -54 -13 -42 -28 -29 -90 44 -216 106 -184 106 -179 -10 -384
-13 -22 -38 -67 -56 -100 -98 -178 -136 -244 -139 -240 -2 2 11 50 28 107 113
365 97 329 148 346 52 17 63 36 63 111 1 67 -6 82 -69 165 -75 98 -89 162 -47
224 14 20 25 44 25 53 0 32 -88 51 -131 29 -24 -13 -25 -64 -4 -134 8 -27 15
-65 15 -85 0 -73 -23 -91 -318 -262 -79 -47 -109 -52 -56 -10 14 11 76 68 136
127 l111 106 44 -7 43 -6 -6 88 c-10 130 -24 157 -21 40 l2 -98 -27 7 c-19 4
-35 0 -52 -14 -43 -33 -346 -325 -342 -329 4 -4 435 139 454 151 7 4 12 18 12
32 0 28 4 29 61 9 49 -17 84 -47 105 -87 23 -45 18 -65 -21 -78 -32 -11 -36
-16 -61 -98 -91 -299 -142 -477 -139 -481 3 -2 15 9 27 25 13 16 47 56 77 89
79 87 110 123 166 190 28 33 58 67 67 77 41 41 51 66 39 99 -20 58 -19 59 79
59 53 0 90 -4 90 -10 0 -6 6 -9 13 -8 17 4 15 -60 -8 -217 -17 -114 -20 -125
-27 -90 -5 27 -6 17 -3 -32 2 -42 0 -73 -6 -73 -5 0 -9 -21 -8 -47 1 -42 5
-33 30 72 16 66 32 127 36 135 7 17 4 28 69 -294 l48 -240 18 85 c26 125 35
170 67 329 27 136 29 143 39 110 13 -43 15 -19 3 34 -5 21 -6 48 -2 59 10 27
34 -142 26 -180 -5 -22 -4 -25 5 -13 9 12 10 9 5 -15 -3 -16 1 -50 9 -75 l14
-45 -4 45 c-9 101 -34 424 -34 446 0 23 2 24 84 24 47 0 88 -4 91 -10 3 -5 1
-27 -6 -49 -11 -38 -11 -39 42 -103 127 -153 334 -386 337 -379 2 7 -51 190
-134 458 -33 108 -36 112 -69 123 -26 9 -35 17 -35 34 0 53 70 115 158 141 17
5 22 2 22 -12 0 -10 4 -24 9 -31 8 -13 470 -176 477 -169 2 2 -56 59 -129 128
-266 251 -242 232 -278 224 l-32 -7 6 56 c3 31 3 73 -1 94 -5 35 -7 32 -19
-38 -7 -41 -16 -93 -19 -116 l-6 -41 191 -122 c106 -68 190 -125 188 -128 -3
-2 -40 9 -83 25 -44 17 -113 42 -154 57 -127 47 -130 49 -117 86 9 23 9 33 1
36 -55 19 -70 106 -35 207 26 74 26 91 1 116 -34 34 -140 22 -140 -16 0 -8 11
-32 25 -52 43 -63 29 -131 -45 -227 -51 -66 -80 -133 -87 -198 -5 -49 -2 -59
58 -172 34 -66 91 -171 126 -234 35 -62 63 -118 63 -125 -1 -12 -6 -6 -145
164 -161 197 -154 187 -145 222 5 16 9 63 8 102 -1 79 12 111 102 264 52 90
63 149 31 181 -23 23 -63 28 -78 9 -12 -16 -25 -98 -24 -151 1 -47 -18 -86
-59 -121 -58 -48 -81 -34 -109 66 -14 47 -22 62 -35 60 -10 -2 -16 4 -16 14 0
10 3 15 6 11 4 -3 13 0 21 8 37 38 69 -6 52 -70 -16 -58 -10 -64 57 -56 21 2
54 42 54 65 0 13 -16 44 -35 69 -19 25 -35 50 -35 55 0 5 16 29 35 54 59 75
94 199 60 212 -25 9 -17 55 15 88 26 25 36 29 73 26 41 -3 42 -2 40 27 -3 36
-44 75 -80 75 -28 0 -93 -58 -93 -84 0 -24 -18 -19 -25 7 -18 58 -76 87 -124
63 -30 -16 -41 -34 -41 -70 0 -20 5 -22 49 -22 40 1 52 -3 70 -24 24 -29 27
-53 7 -69 -7 -6 -16 -27 -19 -46 -7 -40 -64 -128 -78 -120 -13 9 -11 35 3 35
6 0 3 9 -7 20 -10 11 -27 20 -37 20 -21 0 -24 6 -33 70 l-6 44 25 -23 c40 -38
75 -13 76 53 0 13 -5 16 -17 11 -40 -16 -50 -16 -57 1 -4 10 -2 21 5 25 7 4
10 24 7 49 -3 39 -1 45 24 59 19 11 28 24 28 41 0 32 -18 159 -26 184 -6 18
-7 18 -16 2 -5 -10 -13 -39 -18 -64 -7 -41 -8 -36 -9 43 -4 273 -25 810 -30
760z m-95 -757 c0 -392 0 -411 -6 -168 -4 210 -6 245 -10 150 l-4 -125 -6 90
-6 90 -4 -90 c-3 -97 -3 -120 5 -175 2 -19 2 -26 -1 -15 -4 11 -10 25 -14 30
-12 15 7 435 25 549 8 55 15 101 15 103 0 1 1 3 3 3 2 0 3 -199 3 -442z m-106
-324 c0 -6 -7 -17 -16 -25 -12 -10 -20 -10 -35 -1 -36 23 -46 -7 -19 -57 14
-27 44 -27 71 2 18 18 21 19 15 4 -3 -10 -6 -35 -6 -56 0 -33 -3 -38 -32 -46
-27 -8 -34 -16 -38 -44 l-5 -33 -33 46 c-18 25 -36 62 -39 81 -3 19 -12 40
-19 46 -21 17 -17 47 10 74 21 21 33 25 85 23 40 -1 61 -6 61 -14z m80 -11 c0
-22 -2 -25 -10 -13 -7 11 -10 7 -10 -17 0 -17 3 -39 7 -49 6 -16 7 -16 14 2 6
15 8 12 8 -13 1 -26 -2 -30 -19 -26 -18 5 -20 14 -20 74 0 55 3 69 15 69 10 0
15 -10 15 -27z m359 -167 c-14 -50 -46 -101 -95 -149 -36 -36 -39 -37 -42 -18
-2 14 14 40 47 78 28 31 58 76 67 100 20 53 38 43 23 -11z m-616 -8 c14 -29
46 -73 71 -98 46 -46 62 -85 29 -73 -27 10 -88 80 -112 128 -18 37 -29 95 -17
95 3 0 16 -24 29 -52z m253 15 c-3 -8 -6 -17 -6 -19 0 -3 -4 -2 -10 1 -17 11
-12 45 6 38 8 -3 13 -12 10 -20z m95 -16 c-7 -7 -12 -5 -17 7 -4 11 -1 21 7
27 17 11 26 -18 10 -34z m-157 -54 c2 -10 8 -33 11 -52 l7 -34 -26 19 c-18 14
-25 28 -26 52 0 35 25 46 34 15z m236 -15 c-1 -24 -8 -38 -26 -51 l-25 -19 6
39 c10 56 13 63 30 63 10 0 15 -10 15 -32z m-133 -15 c-3 -10 -5 -4 -5 12 0
17 2 24 5 18 2 -7 2 -21 0 -30z m170 -95 c-3 -7 -5 -2 -5 12 0 14 2 19 5 13 2
-7 2 -19 0 -25z m-30 -15 c-3 -10 -5 -4 -5 12 0 17 2 24 5 18 2 -7 2 -21 0
-30z m-280 5 c-3 -8 -6 -5 -6 6 -1 11 2 17 5 13 3 -3 4 -12 1 -19z m243 -18
c0 -21 -25 -4 -28 20 -4 21 -2 22 12 7 9 -8 16 -21 16 -27z m-183 5 c-4 -8
-11 -15 -17 -15 -14 0 -13 27 3 33 16 6 21 1 14 -18z m-126 -35 c10 -6 19 -21
19 -33 0 -15 -3 -18 -8 -9 -6 9 -13 -1 -21 -29 -7 -22 -10 -43 -8 -46 3 -2 8
9 12 26 4 19 11 28 20 25 8 -4 15 3 18 18 2 13 2 3 0 -21 -5 -51 -22 -91 -38
-91 -18 0 -48 126 -35 150 12 23 15 24 41 10z m146 -22 c-3 -8 -6 -5 -6 6 -1
11 2 17 5 13 3 -3 4 -12 1 -19z m120 0 c-3 -8 -6 -5 -6 6 -1 11 2 17 5 13 3
-3 4 -12 1 -19z m-188 -53 c-1 -29 -1 -29 -9 -5 -4 14 -8 34 -9 45 -1 16 1 17
9 5 5 -8 9 -28 9 -45z m258 8 c-3 -10 -5 -4 -5 12 0 17 2 24 5 18 2 -7 2 -21
0 -30z m-10 -55 c-3 -7 -5 -2 -5 12 0 14 2 19 5 13 2 -7 2 -19 0 -25z m69 -26
c-9 -8 -14 0 -21 33 l-6 30 16 -28 c9 -16 14 -31 11 -35z m-309 6 c-3 -7 -5
-2 -5 12 0 14 2 19 5 13 2 -7 2 -19 0 -25z m209 -3 c-7 -28 -23 -29 -40 -2
-14 21 -1 33 19 17 12 -10 15 -9 15 5 0 10 3 16 6 12 4 -3 3 -18 0 -32z m-159
13 c2 6 9 12 14 12 16 0 10 -26 -10 -44 -17 -15 -19 -15 -25 -1 -3 9 -6 24 -6
33 0 15 2 15 11 2 8 -11 12 -12 16 -2z m180 -40 c-3 -8 -6 -5 -6 6 -1 11 2 17
5 13 3 -3 4 -12 1 -19z m-109 -239 c-3 -8 -7 -3 -11 10 -4 17 -3 21 5 13 5 -5
8 -16 6 -23z m112 -26 c0 -10 3 -36 6 -58 6 -38 6 -39 -9 -20 -18 22 -23 95
-7 95 6 0 10 -8 10 -17z m-30 -24 c0 -11 -4 -18 -10 -14 -5 3 -7 12 -3 20 7
21 13 19 13 -6z m-157 -14 c-7 -21 -13 -19 -13 6 0 11 4 18 10 14 5 -3 7 -12
3 -20z m66 -240 c-3 -140 -8 -257 -10 -260 -3 -2 -18 59 -33 138 -15 78 -32
160 -36 182 -18 81 -12 121 21 160 17 19 38 35 48 35 15 0 16 -23 10 -255z"/>
<path d="M1203 750 c0 -41 2 -58 4 -37 2 20 2 54 0 75 -2 20 -4 3 -4 -38z"/>
<path d="M1213 550 c0 -36 2 -50 4 -32 2 17 2 47 0 65 -2 17 -4 3 -4 -33z"/>
<path d="M1133 2685 c0 -27 2 -38 4 -22 2 15 2 37 0 50 -2 12 -4 0 -4 -28z"/>
<path d="M1303 2560 c0 -36 2 -50 4 -32 2 17 2 47 0 65 -2 17 -4 3 -4 -33z"/>
<path d="M1124 2340 c0 -69 1 -97 3 -62 2 34 2 90 0 125 -2 34 -3 6 -3 -63z"/>
<path d="M1083 840 c0 -25 2 -35 4 -22 2 12 2 32 0 45 -2 12 -4 2 -4 -23z"/>
<path d="M1073 720 c0 -25 2 -35 4 -22 2 12 2 32 0 45 -2 12 -4 2 -4 -23z"/>
<path d="M1371 604 c0 -11 3 -14 6 -6 3 7 2 16 -1 19 -3 4 -6 -2 -5 -13z"/>
</g>
</svg>
