<?xml version="1.0" standalone="no"?>
<!DOCTYPE svg PUBLIC "-//W3C//DTD SVG 20010904//EN"
 "http://www.w3.org/TR/2001/REC-SVG-20010904/DTD/svg10.dtd">
<svg version="1.0" xmlns="http://www.w3.org/2000/svg"
 width="244.000000pt" height="305.000000pt" viewBox="0 0 244.000000 305.000000"
 preserveAspectRatio="xMidYMid meet">
<metadata>
Created by potrace 1.16, written by Peter Selinger 2001-2019
</metadata>
<g transform="translate(0.000000,305.000000) scale(0.100000,-0.100000)"
fill="#000000" stroke="none">
<path d="M1530 2895 c0 -11 -3 -31 -5 -45 -5 -22 -4 -22 4 -5 6 13 10 -150 10
-462 1 -266 -2 -483 -6 -483 -5 0 -23 14 -42 32 l-34 32 6 230 c4 127 13 283
21 346 24 194 27 237 11 150 -32 -171 -44 -308 -50 -530 -5 -184 -9 -238 -21
-250 -12 -12 -14 51 -15 480 -1 306 -5 474 -10 440 -15 -103 -29 -305 -39
-570 -6 -146 -14 -278 -19 -295 -8 -27 -9 -24 -10 25 -1 31 -7 80 -15 110 -7
30 -17 102 -21 160 -6 91 -46 325 -58 337 -13 12 -67 -281 -67 -362 0 -33 -7
-87 -15 -118 -8 -32 -15 -78 -15 -102 0 -25 -4 -45 -10 -45 -5 0 -10 24 -11
53 -1 112 -25 110 -46 -3 -9 -53 -11 23 -10 408 1 259 -1 472 -4 472 -8 0 -15
-59 -30 -258 -7 -84 -16 -149 -19 -145 -4 5 -13 49 -19 98 -21 156 -53 305
-63 299 -6 -4 -7 -20 -4 -37 7 -35 9 -948 2 -955 -3 -2 -21 8 -40 23 l-36 27
0 108 c0 151 17 387 41 569 21 159 21 215 0 89 -29 -175 -42 -329 -48 -553
l-5 -240 47 -37 48 -38 30 30 c36 35 62 38 77 10 6 -11 7 -20 3 -21 -4 0 -21
-2 -38 -2 -25 -2 -33 -9 -49 -44 -21 -47 -31 -53 -40 -25 -11 33 -54 65 -87
65 -39 0 -69 -32 -69 -73 0 -27 2 -28 33 -23 60 9 127 -68 92 -107 -14 -16
-15 -31 -4 -151 20 -235 21 -251 11 -261 -6 -6 -12 28 -17 99 -7 103 -8 109
-28 108 -75 -3 -97 -46 -71 -132 21 -69 22 -75 9 -80 -18 -6 -55 84 -55 132 0
27 8 57 20 77 36 59 18 88 -53 88 -66 0 -80 -43 -50 -154 20 -77 12 -130 -26
-165 -34 -31 -321 -214 -327 -208 -2 2 51 61 118 131 l122 128 44 -7 45 -7 -6
59 c-4 32 -6 79 -7 106 0 28 -4 47 -11 47 -9 0 -10 -25 -6 -90 4 -50 4 -90 1
-90 -3 0 -14 5 -25 10 -17 9 -41 -12 -194 -166 -97 -97 -174 -178 -172 -180 4
-4 388 131 418 146 10 6 19 19 19 30 0 10 3 21 8 23 13 7 72 -13 72 -26 0 -7
-20 -47 -45 -91 -25 -43 -45 -82 -45 -87 0 -5 11 -3 25 3 14 6 24 17 21 24 -3
8 0 11 8 8 7 -3 28 6 48 20 20 13 45 27 57 31 18 5 21 2 21 -19 0 -20 -7 -27
-32 -34 -31 -8 -33 -12 -65 -123 -99 -347 -130 -459 -124 -459 3 1 29 29 56
64 65 83 205 252 244 296 29 33 31 33 27 10 -36 -198 -63 -381 -55 -373 5 5
52 101 105 213 88 185 97 211 98 265 1 54 3 60 21 57 33 -5 62 -23 75 -48 11
-20 10 -27 -14 -54 -34 -41 -33 -57 10 -280 51 -265 74 -392 74 -404 0 -35 15
36 64 306 31 169 56 318 56 331 0 13 -11 34 -25 47 -14 13 -25 29 -25 35 0 18
53 63 83 70 l27 7 -2 -58 c-2 -55 3 -70 81 -234 45 -96 89 -190 98 -209 8 -18
16 -32 17 -30 2 2 -2 36 -8 74 -8 45 -14 61 -17 45 -3 -17 -15 11 -37 90 -19
63 -47 158 -63 210 -16 52 -29 98 -29 102 0 4 13 8 29 8 30 0 41 -14 41 -53 0
-36 55 -333 58 -315 2 9 -4 58 -12 107 -9 50 -16 98 -16 107 0 14 25 -14 238
-279 52 -65 96 -116 98 -114 5 5 -143 534 -155 557 -4 8 -22 22 -40 29 -23 11
-31 21 -29 35 4 28 23 24 94 -19 32 -19 59 -33 61 -31 4 4 -21 51 -59 114 -25
41 -19 58 28 71 44 12 54 8 54 -23 0 -21 19 -31 203 -98 214 -80 255 -94 247
-85 -3 4 -84 85 -180 182 -159 159 -177 175 -202 170 l-27 -6 -3 98 -3 98 -13
-90 c-7 -49 -16 -104 -18 -120 -5 -28 -1 -34 53 -70 162 -109 302 -209 299
-213 -2 -2 -62 20 -133 48 -227 92 -204 78 -197 120 5 32 3 39 -14 44 -22 7
-42 53 -42 95 0 15 9 59 20 99 11 39 20 79 20 87 0 44 -81 71 -131 45 -25 -14
-24 -35 2 -72 35 -48 35 -104 2 -168 -45 -87 -73 -77 -33 11 40 88 13 157 -56
146 -20 -4 -35 -1 -38 6 -3 7 -5 -39 -4 -101 0 -62 -2 -115 -5 -118 -3 -3 -9
15 -15 40 -9 42 -5 98 24 314 5 42 4 56 -10 71 -36 39 20 111 85 111 36 0 39
2 39 29 0 20 -9 36 -26 50 -49 38 -92 23 -126 -42 l-21 -42 -12 34 c-12 38
-48 71 -76 71 -22 0 -24 11 -7 28 18 18 30 15 62 -15 19 -17 33 -23 41 -17 6
5 29 20 49 34 l38 25 -6 250 c-5 253 -20 410 -57 610 -19 101 -39 157 -39 110z
m-337 -813 c-3 -122 -8 -220 -10 -218 -7 6 -4 285 3 368 4 43 8 77 10 75 2 -2
1 -103 -3 -225z m-103 -222 c0 -5 -4 -10 -10 -10 -5 0 -10 5 -10 10 0 6 5 10
10 10 6 0 10 -4 10 -10z m310 0 c0 -5 -4 -10 -10 -10 -5 0 -10 5 -10 10 0 6 5
10 10 10 6 0 10 -4 10 -10z m-280 -121 c-12 -22 -30 -25 -30 -6 0 17 21 38 32
31 4 -3 3 -14 -2 -25z m-90 -35 c0 -62 -12 -127 -21 -113 -5 8 -9 26 -9 40 0
15 -7 32 -15 39 -19 16 -19 40 1 69 14 20 18 21 30 9 8 -8 14 -27 14 -44z
m345 46 c11 -17 -5 -32 -21 -19 -8 6 -14 15 -14 20 0 12 27 11 35 -1z m119
-32 c8 -22 6 -32 -8 -47 -10 -11 -16 -23 -13 -28 3 -4 -2 -24 -11 -43 l-15
-35 -9 65 c-5 44 -4 74 4 93 13 35 39 32 52 -5z m-308 -76 c-12 -12 -18 8 -10
35 l8 28 4 -28 c2 -16 1 -31 -2 -35z m-36 -1 c6 -16 20 -31 31 -34 11 -3 26
-22 34 -42 15 -34 35 -40 35 -9 0 8 15 30 34 49 19 19 39 42 44 52 16 27 44
-2 40 -41 -3 -29 -6 -31 -48 -36 -44 -5 -46 -7 -66 -58 l-21 -52 -12 40 c-17
56 -44 82 -77 74 -29 -7 -44 7 -44 42 0 19 17 44 31 44 4 0 12 -13 19 -29z
m-185 -78 c14 -32 34 -65 45 -75 33 -31 72 -87 68 -99 -6 -17 -93 79 -122 134
-23 42 -35 97 -22 97 3 0 16 -26 31 -57z m442 10 c-3 -10 -5 -2 -5 17 0 19 2
27 5 18 2 -10 2 -26 0 -35z m114 -34 c-12 -16 -21 -33 -21 -39 0 -17 -83 -110
-97 -110 -7 0 -13 3 -13 6 0 8 40 64 68 94 12 14 35 50 50 80 25 52 27 53 30
26 2 -18 -4 -40 -17 -57z m-452 44 c0 -25 -1 -26 -9 -8 -12 27 -12 35 0 35 6
0 10 -12 9 -27z m31 -83 c11 -22 17 -40 12 -40 -9 0 -42 53 -42 69 0 20 9 11
30 -29z m290 0 c-7 -16 -16 -30 -21 -30 -12 0 -11 6 7 41 20 39 31 30 14 -11z
m-230 -6 c15 -38 12 -42 -10 -14 -22 28 -25 40 -10 40 6 0 15 -12 20 -26z
m161 -11 c-8 -15 -10 -15 -11 -2 0 17 10 32 18 25 2 -3 -1 -13 -7 -23z m-361
-90 c0 -16 -5 -35 -10 -43 -7 -11 -10 -4 -10 28 0 23 5 42 10 42 6 0 10 -12
10 -27z m570 -3 c0 -10 -4 -22 -10 -25 -6 -4 -10 7 -10 25 0 18 4 29 10 25 6
-3 10 -15 10 -25z m-350 -15 c0 -8 -4 -15 -10 -15 -5 0 -10 7 -10 15 0 8 5 15
10 15 6 0 10 -7 10 -15z m140 6 c0 -12 -20 -25 -27 -18 -7 7 6 27 18 27 5 0 9
-4 9 -9z m-274 -107 c-1 -45 3 -58 19 -70 30 -22 40 -12 40 42 0 52 1 54 41
54 l26 0 -22 -18 c-28 -22 -20 -59 13 -64 16 -2 22 -10 22 -28 0 -24 -2 -25
-60 -22 -33 2 -66 9 -72 14 -18 15 -30 68 -25 111 7 57 20 44 18 -19z m391
-10 c-2 -36 -11 -72 -18 -79 -8 -7 -41 -15 -74 -17 -58 -3 -60 -2 -60 22 0 17
7 26 25 30 21 5 25 12 23 41 -1 31 9 48 31 49 5 0 6 -24 2 -54 -7 -62 2 -74
35 -47 20 16 24 27 22 70 -1 32 2 51 9 51 7 0 9 -22 5 -66z m233 -53 c0 -5 -8
-17 -17 -27 -20 -20 -32 -1 -13 21 14 17 30 20 30 6z m-812 -56 c14 -31 15
-35 4 -35 -4 0 -13 14 -19 30 -14 36 -1 40 15 5z m895 -92 c15 -25 26 -47 24
-50 -8 -7 -78 78 -72 87 11 17 19 10 48 -37z m-853 -19 c0 -35 -14 -70 -67
-172 -36 -70 -96 -184 -131 -255 -36 -70 -66 -126 -68 -124 -2 2 25 102 59
222 l62 219 40 15 c48 18 51 22 60 80 12 82 45 93 45 15z m-116 38 c7 -11 -3
-23 -46 -55 -55 -40 -64 -33 -21 18 36 43 56 54 67 37z m815 -54 c-2 -62 0
-67 118 -300 110 -218 130 -263 99 -224 -190 241 -267 347 -260 358 4 5 8 51
9 101 2 51 6 100 10 110 15 36 26 15 24 -45z m-353 -74 c8 11 14 24 14 30 0 5
3 7 6 4 6 -7 -22 -78 -31 -78 -8 0 -35 65 -35 82 1 7 8 -3 16 -22 15 -33 16
-34 30 -16z m-309 -36 c-3 -8 -6 -5 -6 6 -1 11 2 17 5 13 3 -3 4 -12 1 -19z
m109 -23 c6 -42 0 -60 -72 -225 -43 -98 -80 -178 -82 -176 -1 2 11 52 29 112
17 60 45 160 63 221 17 63 36 113 43 113 6 0 15 -20 19 -45z m491 13 c-3 -7
-5 -2 -5 12 0 14 2 19 5 13 2 -7 2 -19 0 -25z m-357 -83 c-13 -15 -12 -57 5
-260 4 -47 0 -34 -19 55 -14 63 -25 129 -25 146 -1 30 35 91 47 80 2 -3 -1
-13 -8 -21z m17 -347 c-3 -8 -6 -5 -6 6 -1 11 2 17 5 13 3 -3 4 -12 1 -19z"/>
<path d="M911 2824 c0 -11 3 -14 6 -6 3 7 2 16 -1 19 -3 4 -6 -2 -5 -13z"/>
<path d="M1512 2790 c0 -14 2 -19 5 -12 2 6 2 18 0 25 -3 6 -5 1 -5 -13z"/>
<path d="M1082 2665 c0 -16 2 -22 5 -12 2 9 2 23 0 30 -3 6 -5 -1 -5 -18z"/>
<path d="M1433 2635 c0 -22 2 -30 4 -17 2 12 2 30 0 40 -3 9 -5 -1 -4 -23z"/>
<path d="M1093 2535 c0 -27 2 -38 4 -22 2 15 2 37 0 50 -2 12 -4 0 -4 -28z"/>
<path d="M1443 2500 c0 -25 2 -35 4 -22 2 12 2 32 0 45 -2 12 -4 2 -4 -23z"/>
<path d="M1104 2285 c0 -82 2 -115 3 -72 2 43 2 110 0 150 -1 40 -3 5 -3 -78z"/>
</g>
</svg>
