<?xml version="1.0" standalone="no"?>
<!DOCTYPE svg PUBLIC "-//W3C//DTD SVG 20010904//EN"
 "http://www.w3.org/TR/2001/REC-SVG-20010904/DTD/svg10.dtd">
<svg version="1.0" xmlns="http://www.w3.org/2000/svg"
 width="244.000000pt" height="305.000000pt" viewBox="0 0 244.000000 305.000000"
 preserveAspectRatio="xMidYMid meet">
<metadata>
Created by potrace 1.16, written by Peter Selinger 2001-2019
</metadata>
<g transform="translate(0.000000,305.000000) scale(0.100000,-0.100000)"
fill="#000000" stroke="none">
<path d="M906 2893 c-9 -29 -46 -231 -57 -313 -19 -145 -29 -317 -30 -484 0
-146 2 -171 16 -179 9 -5 31 -22 50 -38 l33 -30 24 24 c13 13 36 31 51 41 l29
17 -7 172 c-3 95 -10 231 -16 302 -10 129 -46 375 -56 385 -6 5 -3 -22 21
-185 23 -152 36 -340 36 -504 l0 -148 -39 -26 c-21 -14 -42 -23 -45 -20 -10
10 -7 943 3 943 5 0 7 12 5 27 -7 35 -11 39 -18 16z"/>
<path d="M1098 2524 c3 -330 2 -385 -12 -418 -9 -21 -16 -47 -16 -57 0 -11 -4
-19 -10 -19 -6 0 -10 -30 -10 -69 0 -65 2 -71 30 -95 25 -21 29 -30 24 -53
l-7 -28 -12 35 c-23 67 -112 62 -147 -8 -23 -47 -24 -48 -43 -7 -22 44 -65 69
-106 60 -35 -8 -62 -44 -57 -77 3 -20 8 -23 41 -20 32 3 43 -2 72 -31 38 -38
43 -58 20 -77 -32 -27 -14 -117 40 -200 41 -63 41 -86 0 -145 -32 -48 -32 -68
1 -99 24 -22 26 -46 4 -46 -18 0 -60 88 -55 117 3 15 -1 57 -8 93 -12 60 -16
65 -41 68 -42 5 -66 -23 -66 -75 0 -46 11 -72 67 -165 56 -91 34 -85 -37 9
-58 79 -64 92 -68 145 -4 51 -1 64 23 100 l28 42 -23 18 c-17 14 -36 18 -69
16 -37 -2 -48 -8 -60 -30 -14 -24 -14 -33 4 -95 11 -37 20 -92 20 -122 0 -47
-3 -56 -31 -80 -24 -20 -30 -30 -23 -46 17 -43 30 -34 -161 -107 -163 -62
-180 -68 -180 -60 0 4 28 25 63 46 34 22 117 76 185 120 119 78 123 82 118
111 -3 17 -11 67 -18 113 -16 112 -33 107 -25 -8 l6 -91 -32 6 c-29 5 -39 -1
-107 -66 -165 -156 -291 -281 -288 -285 4 -3 208 65 396 132 63 23 72 29 72
50 0 34 19 38 71 16 90 -40 136 -130 81 -158 -36 -18 -42 -27 -56 -80 -8 -27
-43 -147 -80 -268 -69 -229 -72 -241 -56 -231 9 6 333 381 368 426 10 13 9 23
-3 53 -20 46 -14 56 36 56 37 0 39 -2 40 -32 l1 -33 7 30 c4 22 13 31 30 33
28 4 30 17 -30 -236 -27 -112 -45 -169 -50 -160 -6 9 -9 3 -9 -17 0 -16 -3
-48 -6 -70 -4 -31 3 -20 31 50 84 209 125 331 125 378 l0 47 25 -16 c45 -29
48 -48 15 -83 -17 -17 -30 -39 -30 -50 0 -10 11 -72 25 -137 13 -66 41 -207
62 -314 l37 -195 13 55 c20 86 113 571 113 587 0 9 -14 31 -30 50 l-30 34 20
30 c12 16 26 29 31 29 5 0 12 0 17 0 4 0 6 -20 4 -43 -2 -31 10 -78 48 -182
50 -134 69 -179 70 -162 0 4 -25 77 -55 161 -47 134 -53 160 -47 198 10 56 25
55 36 -2 5 -25 26 -117 46 -205 21 -88 34 -161 29 -163 -14 -5 -10 -23 16 -77
27 -56 30 -48 15 40 -29 177 -59 450 -51 458 13 13 77 -5 74 -21 -19 -89 -30
-69 169 -300 100 -118 184 -209 186 -204 2 6 -27 113 -64 239 -37 125 -72 246
-78 267 -8 28 -21 45 -43 59 -47 27 -45 67 5 117 35 35 105 66 124 54 4 -3 8
-14 8 -24 0 -10 5 -22 10 -25 25 -16 440 -152 440 -145 0 4 -77 83 -172 175
-164 159 -174 166 -205 160 l-32 -6 6 93 c4 62 2 90 -4 83 -6 -5 -13 -54 -17
-108 l-6 -98 43 6 43 7 133 -127 c72 -70 129 -130 127 -132 -12 -13 -349 201
-368 233 -22 35 -23 104 -3 159 20 55 19 99 -3 118 -25 22 -84 22 -112 -1
l-23 -19 28 -47 c38 -65 31 -128 -22 -203 -91 -127 -83 -118 -83 -94 0 13 9
36 20 51 63 89 87 192 52 223 -42 38 -92 10 -92 -51 0 -20 -4 -43 -9 -51 -6
-9 -5 -24 0 -39 11 -28 3 -65 -12 -57 -5 4 -9 14 -9 23 0 10 -11 34 -25 54
-34 50 -33 101 3 159 51 80 69 173 37 185 -24 10 -17 40 17 79 28 32 36 36 72
33 40 -3 41 -2 39 26 -3 41 -30 66 -70 66 -49 0 -71 -15 -90 -62 l-16 -41 -20
42 c-36 76 -118 94 -149 33 -14 -29 -17 -31 -22 -14 -5 14 2 29 24 50 l30 30
0 229 c0 217 -22 638 -38 732 -4 23 -7 -139 -7 -361 0 -318 -3 -419 -15 -478
l-15 -75 -6 95 c-6 92 -6 91 -5 -32 1 -69 -2 -129 -5 -132 -3 -3 -11 90 -17
207 -11 197 -36 387 -63 482 -11 39 -12 39 -21 15 -33 -85 -62 -313 -74 -583
-3 -76 -8 -137 -10 -135 -2 2 -6 137 -9 298 -4 278 -19 566 -33 690 -4 30 -5
-116 -4 -326z m159 -96 c-3 -8 -6 -5 -6 6 -1 11 2 17 5 13 3 -3 4 -12 1 -19z
m28 -248 c4 -80 2 -185 -3 -235 l-9 -90 -2 135 c0 74 -3 200 -6 280 -3 105 -2
132 5 100 5 -25 12 -110 15 -190z m15 -392 c0 -51 -3 -68 -10 -58 -11 17 -13
73 -4 108 11 38 14 25 14 -50z m-245 -39 c5 -6 4 -9 -3 -9 -17 0 -15 -35 3
-71 9 -17 15 -52 14 -82 0 -29 2 -65 6 -82 l7 -30 -36 40 c-20 22 -43 65 -53
95 -10 30 -23 59 -30 63 -20 12 -16 32 13 67 26 30 52 33 79 9z m439 -10 c31
-37 33 -55 6 -69 -14 -8 -20 -21 -20 -47 0 -27 -10 -50 -42 -91 -38 -49 -43
-53 -46 -33 -2 13 1 28 6 33 5 5 7 28 5 51 -3 27 1 57 11 81 21 50 20 76 -1
76 -16 1 -16 2 1 15 30 23 52 18 80 -16z m-318 -129 c28 -11 32 -27 7 -32 -34
-7 -53 4 -55 31 -4 68 15 119 20 53 3 -35 8 -45 28 -52z m124 24 c0 -2 -7 -4
-15 -4 -11 0 -15 11 -15 38 l1 37 14 -34 c8 -18 15 -35 15 -37z m44 4 c-6 -54
-10 -58 -45 -58 -35 0 -36 23 -1 28 19 3 22 10 22 49 0 39 2 44 15 33 10 -8
13 -24 9 -52z m-401 -63 c10 -24 17 -52 15 -62 -3 -16 -6 -15 -20 7 -19 29
-34 100 -22 100 5 0 17 -20 27 -45z m154 13 c-3 -7 -5 -2 -5 12 0 14 2 19 5
13 2 -7 2 -19 0 -25z m280 0 c-3 -7 -5 -2 -5 12 0 14 2 19 5 13 2 -7 2 -19 0
-25z m183 12 c0 -29 -27 -90 -39 -90 -15 0 -14 19 7 67 18 46 32 55 32 23z
m-311 -74 c-2 -23 -17 -60 -18 -46 -1 8 -4 24 -7 36 -4 14 -1 21 10 21 9 0 16
-5 15 -11z m-99 -77 c17 -38 30 -72 27 -75 -6 -6 -50 72 -65 115 -20 58 5 32
38 -40z m208 39 c-6 -18 -19 -44 -28 -58 -9 -14 -20 -34 -25 -45 -4 -11 -9
-15 -11 -9 -6 13 55 144 66 144 5 0 4 -15 -2 -32z m102 -40 c0 -16 -3 -19 -11
-11 -6 6 -8 16 -5 22 11 17 16 13 16 -11z m-430 -8 c0 -11 -4 -20 -10 -20 -5
0 -10 9 -10 20 0 11 5 20 10 20 6 0 10 -9 10 -20z m80 -57 c0 -7 -6 -13 -14
-13 -18 0 -39 26 -31 39 8 13 45 -9 45 -26z m300 19 c0 -12 -23 -32 -37 -32
-17 0 -17 27 0 33 19 8 37 8 37 -1z m117 -24 c-3 -8 -6 -5 -6 6 -1 11 2 17 5
13 3 -3 4 -12 1 -19z m-487 -127 c10 -39 15 -71 11 -71 -10 0 -41 100 -41 130
0 37 10 17 30 -59z m430 66 c0 -19 -41 -139 -46 -134 -7 7 29 147 38 147 4 0
8 -6 8 -13z m-300 -16 c0 -6 -9 -9 -19 -8 -11 0 -17 5 -15 9 7 11 34 10 34 -1z
m167 -8 c3 -7 -3 -9 -16 -6 -12 3 -21 10 -21 15 0 13 32 6 37 -9z m61 -70 c-5
-20 -17 -47 -25 -60 -14 -21 -17 -22 -33 -8 -9 8 -27 15 -39 15 -18 0 -22 5
-19 23 4 28 44 36 62 12 11 -15 13 -15 25 -1 8 9 16 37 19 64 5 42 6 44 13 19
4 -15 3 -44 -3 -64z m-313 37 c0 -46 29 -87 41 -57 8 22 50 22 58 1 8 -21 -1
-34 -23 -34 -9 0 -22 -5 -29 -12 -25 -25 -73 63 -64 120 6 37 17 25 17 -18z
m469 -76 c7 -19 -2 -37 -15 -29 -12 8 -12 45 0 45 5 0 12 -7 15 -16z m-694
-90 c0 -8 -4 -14 -10 -14 -5 0 -10 9 -10 21 0 11 5 17 10 14 6 -3 10 -13 10
-21z m764 -20 c4 -15 4 -29 1 -33 -10 -9 -34 29 -28 45 8 22 20 17 27 -12z
m-735 -118 c-2 -23 1 -57 5 -76 7 -33 2 -41 -98 -165 -145 -179 -178 -217
-182 -212 -3 2 24 58 59 123 154 287 176 331 182 364 4 19 10 39 13 44 9 16
23 -35 21 -78z m813 -10 c33 -14 38 -22 61 -93 42 -128 89 -286 98 -323 7 -32
7 -34 -7 -15 -8 11 -38 63 -66 115 -28 52 -59 109 -69 127 -10 18 -35 63 -55
100 -21 37 -46 82 -56 98 -10 17 -18 44 -18 60 l1 30 37 -42 c20 -23 53 -49
74 -57z m-452 -5 c0 -9 -20 -37 -20 -29 0 3 -2 13 -5 21 -4 8 0 14 10 14 8 0
15 -3 15 -6z m81 -144 c7 -12 -1 -70 -26 -195 -20 -97 -38 -179 -41 -181 -7
-7 -4 46 10 174 14 128 14 205 1 245 l-8 25 27 -25 c16 -14 32 -33 37 -43z"/>
<path d="M1543 2864 c-42 -139 -81 -483 -86 -752 l-4 -182 36 -27 c20 -15 38
-31 39 -35 7 -16 32 -8 77 25 l46 32 -5 235 c-3 129 -10 276 -15 325 -14 115
-43 287 -48 281 -3 -2 5 -69 16 -148 23 -159 41 -410 41 -564 l0 -101 -40 -27
c-22 -14 -42 -26 -45 -26 -3 0 -5 215 -5 478 0 311 4 472 10 462 9 -13 10 -13
9 0 -1 8 -4 26 -8 39 -6 23 -7 22 -18 -15z"/>
<path d="M1571 2794 c0 -11 3 -14 6 -6 3 7 2 16 -1 19 -3 4 -6 -2 -5 -13z"/>
<path d="M1061 2524 c0 -11 3 -14 6 -6 3 7 2 16 -1 19 -3 4 -6 -2 -5 -13z"/>
<path d="M1341 2404 c0 -11 3 -14 6 -6 3 7 2 16 -1 19 -3 4 -6 -2 -5 -13z"/>
<path d="M1053 2220 c0 -47 2 -66 4 -42 2 23 2 61 0 85 -2 23 -4 4 -4 -43z"/>
<path d="M992 830 c0 -19 2 -27 5 -17 2 9 2 25 0 35 -3 9 -5 1 -5 -18z"/>
<path d="M982 760 c0 -19 2 -27 5 -17 2 9 2 25 0 35 -3 9 -5 1 -5 -18z"/>
<path d="M973 685 c0 -22 2 -30 4 -17 2 12 2 30 0 40 -3 9 -5 -1 -4 -23z"/>
<path d="M962 600 c0 -19 2 -27 5 -17 2 9 2 25 0 35 -3 9 -5 1 -5 -18z"/>
</g>
</svg>
