<?xml version="1.0" standalone="no"?>
<!DOCTYPE svg PUBLIC "-//W3C//DTD SVG 20010904//EN"
 "http://www.w3.org/TR/2001/REC-SVG-20010904/DTD/svg10.dtd">
<svg version="1.0" xmlns="http://www.w3.org/2000/svg"
 width="244.000000pt" height="305.000000pt" viewBox="0 0 244.000000 305.000000"
 preserveAspectRatio="xMidYMid meet">
<metadata>
Created by potrace 1.16, written by Peter Selinger 2001-2019
</metadata>
<g transform="translate(0.000000,305.000000) scale(0.100000,-0.100000)"
fill="#000000" stroke="none">
<path d="M1455 2855 c0 -38 -3 -101 -7 -140 -4 -42 -4 -58 1 -40 5 18 9 -133
10 -362 0 -220 -3 -393 -8 -393 -5 0 -15 7 -22 17 -11 13 -14 74 -14 302 0
157 3 261 6 231 5 -50 6 -51 7 -14 1 23 4 70 6 105 4 50 3 55 -3 24 l-8 -40
-3 40 c-6 93 -19 -95 -16 -240 3 -105 1 -126 -3 -70 -7 79 -7 78 -10 -47 -1
-71 -3 -167 -3 -215 l-1 -87 42 -38 c23 -22 45 -37 50 -33 5 3 7 -4 4 -15 -6
-22 -23 -38 -23 -21 0 18 -43 51 -65 51 -29 0 -52 -27 -60 -72 l-7 -37 38 -3
c48 -4 77 -44 56 -78 -6 -11 -12 -31 -12 -45 0 -37 -55 -146 -90 -180 -31 -30
-41 -75 -16 -75 17 0 68 49 108 104 37 52 36 35 -3 -29 -29 -48 -70 -85 -113
-101 -18 -7 -19 -4 -13 53 8 79 23 110 58 122 16 5 29 14 29 20 0 12 -40 41
-57 41 -21 0 -53 -42 -64 -84 l-11 -41 -18 48 c-26 68 -38 80 -74 73 -51 -11
-61 -42 -17 -57 15 -6 34 -22 41 -37 14 -30 26 -142 16 -142 -24 0 -89 46
-111 77 -39 58 -30 59 24 4 27 -28 57 -51 65 -51 25 0 19 36 -12 72 -44 51
-79 118 -87 168 -4 24 -12 52 -18 61 -7 12 -7 26 3 48 11 27 17 31 52 31 l40
0 -6 38 c-9 47 -41 76 -78 68 -35 -7 -35 3 -3 34 25 23 25 25 25 199 0 220
-15 463 -41 650 -18 138 -28 183 -29 130 -1 -23 -1 -23 -13 4 -10 23 -11 -74
-9 -469 3 -452 2 -497 -12 -485 -13 11 -16 45 -18 215 l-3 201 -2 -197 c-3
-165 -6 -198 -18 -198 -12 0 -15 24 -18 123 l-3 122 -2 -132 -2 -133 38 -35
c20 -19 43 -35 50 -35 6 0 12 -9 12 -20 0 -25 -7 -25 -28 -1 -10 11 -33 23
-52 26 -44 8 -77 -16 -86 -61 -6 -30 -4 -31 34 -38 27 -4 48 -15 61 -32 22
-28 28 -74 10 -74 -8 0 -10 -21 -7 -64 3 -50 13 -82 42 -139 37 -73 37 -76 21
-101 -23 -34 -35 -24 -35 27 0 53 -8 64 -45 69 -27 3 -30 6 -27 35 4 40 -18
53 -86 53 -63 0 -76 -14 -68 -77 19 -150 19 -163 4 -163 -16 0 -28 62 -28 145
0 28 -3 36 -10 25 -5 -8 -6 -52 -3 -98 l6 -83 -25 6 c-22 6 -34 -5 -107 -97
-45 -57 -109 -135 -142 -174 -32 -40 -59 -75 -59 -78 0 -3 17 1 37 10 85 36
85 36 78 14 -6 -17 4 -15 75 20 45 21 93 46 105 54 13 8 35 18 49 22 14 3 40
19 57 35 38 36 58 28 88 -34 28 -58 27 -74 -8 -92 -31 -16 -30 -13 -71 -197
-10 -47 -26 -113 -34 -145 -8 -32 -17 -71 -20 -88 -3 -16 -13 -57 -21 -89 -9
-32 -13 -61 -11 -64 3 -2 18 16 33 41 33 55 45 59 36 15 -4 -22 -2 -30 4 -23
6 6 65 102 132 215 91 152 121 210 117 227 -4 13 -9 34 -12 48 -6 24 -4 25 42
25 55 0 108 -27 119 -59 4 -13 -2 -33 -19 -57 -13 -20 -23 -41 -20 -48 2 -6
22 -139 44 -296 23 -157 45 -298 49 -315 8 -32 24 60 77 436 l27 195 -24 33
c-22 30 -22 34 -8 59 19 35 54 52 106 52 50 0 57 -9 44 -57 -9 -33 -7 -43 23
-97 49 -90 184 -319 196 -333 5 -7 10 -16 10 -20 0 -4 8 -17 16 -28 15 -19 16
-17 10 30 l-7 50 22 -33 c12 -18 23 -31 26 -29 2 3 -10 67 -27 143 -90 404
-93 414 -111 414 -47 0 -42 74 10 129 34 37 47 39 55 8 5 -17 43 -40 159 -97
83 -41 156 -76 161 -78 4 -3 5 5 1 17 -8 25 -3 26 36 5 17 -8 32 -14 34 -12 2
3 -71 96 -237 303 -27 33 -47 49 -59 47 -17 -3 -19 5 -20 85 l-2 88 -8 -66
c-8 -64 -26 -126 -33 -118 -2 2 1 50 7 107 9 93 8 104 -8 122 -13 14 -31 20
-60 20 -53 0 -70 -18 -61 -65 7 -34 6 -35 -18 -26 -35 14 -56 -6 -62 -59 -9
-74 -13 -78 -36 -42 l-21 33 36 77 c38 81 58 184 38 196 -16 10 -14 44 6 77
14 24 24 29 56 29 l40 0 -6 37 c-8 49 -29 67 -77 68 -47 0 -49 6 -15 33 25 20
25 20 25 189 0 280 -22 550 -62 756 -6 34 -14 53 -19 46 -5 -8 -8 -4 -11 12
-2 13 -4 -7 -3 -46z m22 -17 c-3 -8 -6 -5 -6 6 -1 11 2 17 5 13 3 -3 4 -12 1
-19z m-324 -1575 c-5 -28 -2 -34 21 -43 35 -13 34 -45 -3 -64 -27 -14 -29 -14
-34 4 -6 25 -37 26 -79 4 -29 -15 -32 -15 -44 1 -17 23 -10 33 19 28 35 -7 48
16 36 61 -6 20 -8 45 -4 55 5 17 8 17 49 3 42 -15 44 -18 39 -49z m34 45 c-3
-8 -6 -5 -6 6 -1 11 2 17 5 13 3 -3 4 -12 1 -19z m218 -51 l0 -62 38 2 c42 3
46 -6 17 -32 -20 -18 -22 -18 -49 -2 -39 23 -72 22 -78 -2 -4 -17 -9 -18 -28
-9 -40 18 -43 61 -4 71 14 4 19 14 19 40 0 30 4 36 38 49 20 8 39 13 42 10 3
-2 5 -32 5 -65z m-710 3 c3 -5 -1 -17 -9 -27 -37 -46 -86 -114 -86 -121 0 -7
-115 -97 -148 -116 -9 -5 -1 10 18 34 19 23 53 66 75 95 103 134 134 161 150
135z m59 1 c7 -11 -27 -55 -64 -81 -39 -28 -37 -16 5 43 35 46 49 55 59 38z
m1094 -184 c10 -13 -2 -10 -47 13 -67 33 -75 42 -66 71 6 19 10 17 54 -23 26
-24 53 -51 59 -61z m-142 46 c-11 -11 -19 6 -11 24 8 17 8 17 12 0 3 -10 2
-21 -1 -24z m-502 -97 c7 -53 28 -97 41 -84 4 3 12 36 18 72 8 49 15 66 27 65
10 0 11 -2 3 -6 -7 -2 -13 -22 -13 -42 0 -21 -11 -59 -25 -85 -25 -47 -25 -48
-26 -329 l-1 -282 -29 190 c-38 257 -38 263 -6 310 31 45 33 68 12 118 -8 20
-15 54 -15 76 0 29 -5 41 -17 44 -14 4 -14 5 3 6 19 1 23 -6 28 -53z m781 -24
c-7 -7 -34 18 -47 42 -8 16 -3 14 21 -8 17 -16 29 -32 26 -34z m-52 -1 c6 -6
7 -11 2 -11 -10 0 -95 49 -95 55 0 6 80 -31 93 -44z m-1018 -119 c-15 -31 -34
-74 -42 -95 -21 -51 -25 -42 -13 23 19 102 30 131 53 139 32 12 32 -2 2 -67z
m-45 52 c0 -24 -64 -299 -79 -339 -39 -105 -43 -116 -48 -112 -4 5 95 435 104
450 5 9 23 10 23 1z m653 -26 c2 -13 19 -61 37 -108 34 -91 46 -128 38 -120
-3 3 -29 42 -57 87 -48 76 -52 86 -46 123 7 44 20 52 28 18z m123 -350 c46
-89 24 -73 -36 27 -33 55 -60 104 -60 110 0 15 68 -83 96 -137z m53 -17 c6
-19 9 -36 7 -38 -2 -2 -11 17 -20 44 -9 26 -12 43 -7 38 4 -6 13 -25 20 -44z"/>
<path d="M972 2840 c0 -14 2 -19 5 -12 2 6 2 18 0 25 -3 6 -5 1 -5 -13z"/>
<path d="M961 2795 c-1 -6 -10 -89 -21 -185 -11 -96 -19 -224 -18 -285 l1
-110 7 135 c9 151 16 227 32 346 6 44 8 87 5 95 -3 8 -6 9 -6 4z"/>
<path d="M1432 2760 c0 -14 2 -19 5 -12 2 6 2 18 0 25 -3 6 -5 1 -5 -13z"/>
<path d="M1423 2680 c0 -25 2 -35 4 -22 2 12 2 32 0 45 -2 12 -4 2 -4 -23z"/>
<path d="M965 2538 c-4 -46 -5 -96 -3 -113 2 -16 8 19 12 78 5 59 6 110 3 113
-3 3 -8 -32 -12 -78z"/>
<path d="M1226 2584 c-15 -39 -45 -337 -52 -509 -7 -168 -9 -182 -16 -120 -15
135 -19 155 -32 155 -16 0 -25 -53 -27 -152 -2 -59 1 -70 25 -99 22 -26 26
-40 24 -78 -3 -45 -3 -46 -35 -43 -37 4 -40 -5 -22 -57 13 -37 41 -41 63 -9
16 22 16 21 16 -19 0 -28 5 -43 15 -47 9 -3 23 -22 31 -41 8 -19 16 -35 19
-35 3 0 11 16 19 35 8 19 22 38 31 41 9 4 15 19 15 43 1 32 2 34 14 19 27 -36
62 -16 68 37 3 27 0 30 -27 30 -29 0 -30 2 -33 46 -2 38 2 52 24 78 27 32 27
34 20 134 -6 91 -16 130 -31 116 -2 -3 -11 -52 -18 -110 -13 -96 -14 -100 -19
-54 -2 28 -6 108 -7 179 -3 167 -39 476 -56 476 -1 0 -6 -7 -9 -16z m4 -534
c0 -439 0 -440 -20 -423 -19 16 -20 30 -20 238 0 198 5 303 26 548 4 42 8 77
10 77 2 0 4 -198 4 -440z"/>
</g>
</svg>
