<?xml version="1.0" standalone="no"?>
<!DOCTYPE svg PUBLIC "-//W3C//DTD SVG 20010904//EN"
 "http://www.w3.org/TR/2001/REC-SVG-20010904/DTD/svg10.dtd">
<svg version="1.0" xmlns="http://www.w3.org/2000/svg"
 width="244.000000pt" height="305.000000pt" viewBox="0 0 244.000000 305.000000"
 preserveAspectRatio="xMidYMid meet">
<metadata>
Created by potrace 1.16, written by Peter Selinger 2001-2019
</metadata>
<g transform="translate(0.000000,305.000000) scale(0.100000,-0.100000)"
fill="#000000" stroke="none">
<path d="M882 2874 c-52 -177 -92 -538 -92 -832 l0 -122 28 -11 c15 -6 39 -22
54 -36 l26 -25 22 25 c12 14 36 31 53 38 l30 13 -7 228 c-7 232 -22 392 -52
550 -26 131 -29 98 -5 -49 33 -206 63 -675 44 -698 -13 -16 -71 -55 -83 -55
-14 0 -14 957 1 962 6 2 7 12 1 27 -8 22 -9 21 -20 -15z"/>
<path d="M1566 2877 c-52 -186 -81 -426 -92 -749 l-7 -207 34 -14 c19 -8 40
-21 48 -30 18 -23 22 -22 80 14 l51 32 0 146 c-1 239 -36 609 -62 651 -6 10
-7 6 -4 -15 39 -216 70 -696 50 -749 -3 -9 -12 -16 -19 -16 -6 0 -20 -9 -30
-20 -45 -50 -45 -48 -45 443 0 254 4 477 9 494 5 18 6 35 1 38 -4 3 -11 -5
-14 -18z"/>
<path d="M1253 2820 c0 -25 2 -35 4 -22 2 12 2 32 0 45 -2 12 -4 2 -4 -23z"/>
<path d="M912 2825 c0 -16 2 -22 5 -12 2 9 2 23 0 30 -3 6 -5 -1 -5 -18z"/>
<path d="M1212 2687 c-1 -109 -8 -189 -21 -255 -21 -104 -41 -346 -41 -492 0
-96 -15 -121 -25 -42 -10 67 -36 196 -41 202 -10 10 -22 -26 -33 -97 -16 -107
-15 -111 23 -134 38 -22 52 -59 41 -110 -8 -33 -30 -48 -48 -30 -20 20 -37 12
-37 -18 0 -32 22 -61 46 -61 8 0 25 11 38 25 32 34 39 31 32 -12 -6 -35 -4
-40 23 -55 17 -9 37 -33 45 -52 8 -20 18 -36 21 -36 3 0 14 20 25 44 13 32 25
45 42 48 20 3 23 8 21 46 -2 48 5 52 35 17 33 -38 58 -32 80 19 15 33 1 59
-20 38 -15 -15 -45 -15 -54 0 -4 6 -7 32 -6 57 0 40 5 50 37 77 l38 31 -8 59
c-10 90 -26 155 -35 149 -4 -3 -13 -35 -20 -72 -24 -140 -32 -173 -39 -173 -4
0 -11 90 -15 199 -5 140 -14 241 -31 338 -23 130 -51 227 -57 193 -1 -8 -5 46
-8 120 l-6 135 -2 -158z m53 -262 c25 -138 35 -282 37 -539 l3 -248 -24 -9
-24 -9 6 122 c3 68 2 110 -2 93 -7 -26 -9 -28 -16 -11 -5 11 -4 26 2 35 7 10
7 63 2 151 -8 136 -10 552 -3 515 3 -11 11 -56 19 -100z m-18 -692 c-3 -10 -5
-4 -5 12 0 17 2 24 5 18 2 -7 2 -21 0 -30z m0 -125 c-2 -13 -4 -5 -4 17 -1 22
1 32 4 23 2 -10 2 -28 0 -40z"/>
<path d="M1602 2775 c0 -16 2 -22 5 -12 2 9 2 23 0 30 -3 6 -5 -1 -5 -18z"/>
<path d="M745 1860 c-31 -12 -47 -36 -43 -65 3 -25 7 -27 49 -29 51 -2 73 -15
95 -58 13 -26 13 -29 -6 -45 -45 -39 -19 -117 88 -263 11 -15 8 -23 -22 -59
-45 -54 -52 -76 -31 -107 21 -32 57 -48 90 -40 24 6 26 10 20 34 -26 106 -17
118 74 89 44 -13 69 -17 80 -10 26 16 24 32 -6 44 -84 32 -137 66 -173 109
-42 51 -70 106 -70 140 0 32 15 23 29 -17 18 -50 114 -149 174 -179 43 -23 48
-23 54 -7 5 12 -3 24 -27 42 -82 62 -150 148 -150 189 0 13 -9 35 -20 49 -15
19 -17 30 -9 44 18 34 56 52 99 46 39 -5 40 -4 40 24 0 16 -9 37 -21 48 -50
46 -112 31 -143 -34 -17 -37 -20 -38 -30 -21 -37 64 -94 94 -141 76z"/>
<path d="M1435 1855 c-36 -20 -45 -32 -45 -67 0 -27 1 -27 43 -22 36 5 47 2
69 -17 37 -34 44 -65 18 -79 -13 -7 -20 -21 -20 -38 0 -16 -13 -48 -28 -73
-29 -44 -95 -109 -112 -109 -14 0 -43 -48 -36 -59 21 -33 173 89 213 171 15
31 31 57 36 57 18 2 4 -60 -24 -105 -52 -83 -118 -132 -222 -168 -21 -7 -19
-25 6 -40 12 -8 34 -5 83 11 37 12 71 20 76 17 11 -7 10 -55 -3 -93 -6 -18 -8
-35 -5 -39 14 -13 81 0 103 20 33 31 28 61 -17 113 -23 26 -37 52 -33 58 4 7
19 28 34 47 44 56 67 104 74 155 7 40 5 48 -14 61 -30 21 -26 42 15 80 29 28
43 34 80 34 40 0 44 2 44 25 0 39 -33 65 -84 65 -37 0 -48 -5 -70 -31 -14 -17
-26 -37 -26 -45 0 -25 -19 -15 -33 19 -25 58 -72 78 -122 52z"/>
<path d="M1077 1573 c-34 -18 -34 -31 1 -39 46 -10 50 -12 66 -36 17 -26 41
-171 32 -194 -3 -8 -14 -14 -25 -14 -47 0 -43 -64 4 -72 13 -2 21 -12 23 -30
3 -23 -1 -28 -25 -34 -15 -4 -33 -11 -39 -16 -14 -10 -7 -47 10 -50 6 0 16 -2
22 -2 25 -3 42 -29 49 -74 10 -64 22 -85 47 -79 16 5 19 2 15 -15 -7 -26 3
-84 12 -69 8 12 17 6 53 -35 l28 -30 -25 -114 c-14 -63 -38 -173 -53 -245
l-27 -130 -5 305 -5 305 -32 33 c-29 30 -32 38 -28 80 4 31 2 40 -3 28 -8 -19
-9 -19 -14 2 -4 15 -14 22 -31 22 -28 0 -37 16 -37 66 0 33 -1 34 -40 34 -21
0 -55 -8 -74 -17 -44 -21 -72 -10 -112 43 -22 29 -29 49 -30 88 -2 67 -14 138
-27 154 -14 18 -51 15 -78 -7 -42 -34 -33 -81 41 -206 91 -157 92 -158 95
-248 1 -45 5 -93 9 -107 5 -21 -8 -41 -91 -136 -54 -61 -122 -139 -152 -173
-30 -34 -56 -60 -58 -57 -4 3 27 59 140 256 123 216 129 234 102 326 -18 62
-37 95 -92 156 -66 75 -79 146 -38 206 30 44 32 68 6 82 -29 15 -93 12 -119
-6 -28 -19 -28 -52 -2 -130 11 -32 20 -79 20 -103 0 -37 -5 -48 -36 -76 -31
-28 -34 -36 -25 -53 17 -32 14 -37 -36 -54 -27 -9 -106 -37 -176 -62 -71 -25
-134 -46 -140 -46 -12 0 32 39 45 40 4 0 34 17 65 37 32 21 69 44 82 51 14 7
62 36 108 65 91 57 93 60 68 141 -8 27 -15 65 -15 85 0 20 -5 43 -11 51 -7 11
-9 -12 -6 -83 l4 -97 -33 6 c-27 5 -38 1 -66 -24 -204 -181 -349 -317 -342
-319 5 -2 102 27 214 63 113 36 220 70 238 76 25 7 32 14 32 33 0 35 16 39 68
20 57 -21 100 -58 119 -103 17 -40 7 -57 -36 -65 -24 -5 -32 -14 -44 -54 -8
-26 -33 -106 -57 -178 -60 -186 -109 -349 -106 -352 1 -1 57 57 123 130 67 72
143 155 170 184 109 116 126 141 112 164 -5 7 -9 26 -9 42 l0 27 89 0 c75 0
93 -3 121 -22 56 -39 59 -53 22 -91 -33 -34 -33 -35 -23 -88 12 -66 61 -303
96 -463 14 -65 25 -123 26 -130 2 -31 27 81 105 468 l36 178 -31 32 c-17 18
-31 37 -31 43 0 7 17 25 37 40 33 26 45 28 136 31 l100 4 -7 -29 c-20 -80 -25
-69 110 -218 70 -77 161 -176 202 -220 73 -78 75 -79 68 -45 -3 19 -34 121
-67 225 -33 105 -69 215 -78 245 -15 46 -24 58 -57 76 -21 11 -38 23 -36 27 1
4 2 17 2 29 0 31 77 101 128 116 49 15 62 10 62 -23 0 -21 12 -27 133 -65 72
-23 183 -58 245 -79 61 -21 112 -35 112 -31 0 4 -62 63 -137 132 -254 230
-242 220 -277 214 l-32 -6 3 97 c5 127 -12 103 -21 -30 l-7 -98 45 6 46 7 88
-78 c48 -43 114 -105 147 -137 l60 -59 -85 45 c-185 98 -305 173 -327 207 -28
41 -29 70 -3 145 11 32 20 69 20 82 0 53 -71 80 -135 51 -31 -14 -31 -32 0
-83 42 -67 28 -129 -46 -213 -55 -63 -79 -112 -79 -165 0 -76 15 -102 67 -118
l47 -15 68 -204 c38 -113 67 -212 65 -220 -3 -10 -7 -7 -16 10 -6 14 -24 46
-40 72 -16 25 -40 66 -54 90 -13 23 -59 101 -102 172 -42 72 -79 144 -82 162
-7 45 6 77 76 190 34 53 66 117 73 141 9 39 8 48 -9 71 -21 29 -66 40 -87 23
-14 -11 -25 -77 -29 -161 -2 -35 -10 -56 -35 -87 -40 -51 -62 -59 -104 -39
-17 9 -51 16 -76 16 -42 0 -44 -1 -38 -24 10 -41 -9 -76 -43 -76 -30 0 -41
-18 -41 -71 0 -14 -7 -34 -15 -45 -13 -18 -14 -16 -15 22 0 69 16 101 56 109
31 5 35 9 32 33 -2 20 -9 28 -28 31 -29 4 -40 17 -40 49 0 17 6 22 24 22 23 0
36 16 36 46 0 8 -14 20 -31 26 l-32 11 7 69 c10 112 32 149 94 163 36 8 41 20
13 35 -33 17 -88 12 -104 -10 -8 -11 -17 -17 -20 -13 -4 3 -7 -1 -7 -10 0 -9
-4 -17 -10 -17 -5 0 -12 -11 -16 -25 -7 -28 -24 -24 -24 6 0 11 -4 17 -10 14
-5 -3 -10 -1 -10 5 0 15 -47 53 -75 61 -12 4 -34 0 -48 -8z"/>
<path d="M1267 633 c8 -91 13 -92 13 -5 0 40 -4 72 -10 72 -5 0 -7 -27 -3 -67z"/>
</g>
</svg>
