<?xml version="1.0" standalone="no"?>
<!DOCTYPE svg PUBLIC "-//W3C//DTD SVG 20010904//EN"
 "http://www.w3.org/TR/2001/REC-SVG-20010904/DTD/svg10.dtd">
<svg version="1.0" xmlns="http://www.w3.org/2000/svg"
 width="244.000000pt" height="305.000000pt" viewBox="0 0 244.000000 305.000000"
 preserveAspectRatio="xMidYMid meet">
<metadata>
Created by potrace 1.16, written by Peter Selinger 2001-2019
</metadata>
<g transform="translate(0.000000,305.000000) scale(0.100000,-0.100000)"
fill="#000000" stroke="none">
<path d="M957 2895 c-11 -35 -37 -196 -52 -325 -9 -69 -18 -242 -22 -385 l-6
-260 27 -15 c15 -8 32 -23 38 -34 10 -18 7 -19 -40 -12 -59 8 -89 -11 -94 -59
-3 -28 0 -30 32 -33 45 -4 90 -46 90 -83 0 -15 -5 -29 -12 -31 -18 -6 -10 -82
16 -147 l24 -59 -32 -5 c-35 -5 -45 4 -39 37 8 39 -18 53 -98 54 -105 2 -116
-21 -82 -166 13 -55 14 -75 5 -84 -19 -19 -25 -4 -36 92 -14 119 -31 118 -22
-1 l7 -91 -25 6 c-20 5 -34 -4 -84 -57 -92 -96 -261 -291 -256 -296 2 -2 25 5
52 16 98 43 154 64 159 59 3 -2 -2 -15 -11 -28 -9 -12 -16 -26 -16 -30 0 -5
73 28 162 73 l162 81 18 -22 c9 -12 20 -38 24 -57 7 -37 5 -40 -40 -68 -14 -8
-92 -287 -126 -445 -4 -19 -13 -55 -19 -79 -16 -57 -8 -62 23 -14 14 21 42 61
62 88 l37 50 -6 -47 c-4 -27 -10 -60 -13 -74 -10 -37 9 -24 39 29 13 23 61
103 106 177 109 177 120 200 110 225 -4 11 -8 30 -8 43 -1 19 4 22 43 22 52 0
109 -35 114 -69 2 -14 -5 -33 -19 -47 -26 -28 -27 -15 42 -434 21 -129 39
-239 39 -244 0 -40 16 39 54 275 64 391 62 368 32 408 -27 36 -25 51 13 85 14
13 41 21 77 24 l57 5 -7 -56 c-8 -61 -15 -45 108 -245 16 -26 53 -90 84 -142
30 -52 56 -97 58 -99 10 -11 12 8 5 44 -26 120 -20 134 23 63 14 -24 37 -56
51 -73 l25 -30 -6 35 c-4 19 -22 96 -42 170 -19 74 -38 153 -43 175 -18 88
-48 180 -62 190 -9 5 -23 15 -33 21 -17 10 -17 13 0 56 22 58 40 75 60 56 17
-17 326 -171 332 -166 2 2 -8 21 -22 41 -13 20 -21 37 -17 37 4 0 41 -14 80
-32 40 -17 76 -29 79 -25 6 6 -3 18 -125 158 -138 159 -162 181 -189 174 l-24
-6 7 86 c5 59 3 85 -4 85 -7 0 -11 -27 -11 -74 0 -101 -11 -128 -37 -87 -9 14
-9 32 2 77 19 78 19 129 -1 148 -20 20 -149 23 -161 4 -4 -7 -7 -29 -8 -48 0
-33 -2 -35 -31 -32 -34 4 -44 -12 -44 -75 0 -39 -12 -42 -30 -9 -11 22 -10 30
19 75 32 50 61 134 61 180 0 14 -7 32 -15 41 -31 34 33 117 83 107 27 -5 36 6
28 38 -9 36 -34 55 -71 55 -46 0 -54 18 -22 45 15 11 27 29 27 39 0 15 -7 12
-40 -14 -22 -17 -40 -27 -40 -21 0 6 5 11 10 11 13 0 13 267 -1 480 -5 91 -11
239 -12 329 -2 135 -4 157 -13 125 -8 -29 -12 -34 -17 -20 -4 10 -7 29 -7 42
0 13 -3 24 -7 24 -5 0 -6 -53 -5 -117 2 -65 -1 -152 -7 -193 -6 -41 -16 -202
-23 -357 -6 -156 -15 -283 -20 -283 -4 0 -9 78 -10 173 l-2 172 -6 -145 c-4
-118 -6 -136 -13 -97 -6 36 -12 47 -27 47 -15 0 -20 -10 -25 -47 -15 -120 -19
-111 -26 52 -9 245 -49 521 -69 484 -23 -43 -60 -356 -60 -516 0 -69 -4 -113
-10 -113 -5 0 -10 15 -10 33 0 67 -12 107 -31 107 -14 0 -19 -11 -24 -47 -4
-27 -8 -52 -9 -58 -2 -5 -6 91 -9 215 -9 286 -48 692 -66 675 -3 -3 -5 -45 -5
-93 1 -55 -1 -66 -3 -29 -2 31 -8 57 -13 57 -15 0 -12 -114 3 -128 15 -16 23
-738 8 -761 -8 -13 -12 -13 -27 0 -15 13 -16 38 -10 319 3 168 8 328 10 355 3
45 3 46 -4 10 -4 -26 -7 12 -8 105 0 89 3 137 8 125 l9 -20 -1 20 c0 11 -3 31
-7 45 -7 23 -8 23 -14 5z m484 -1017 c10 -19 9 -20 -12 -15 -13 4 -29 7 -35 7
-7 0 -9 10 -6 25 3 20 7 23 23 15 10 -6 24 -20 30 -32z m-355 15 c20 -27 17
-34 -13 -27 -37 9 -38 11 -23 29 16 19 20 19 36 -2z m-86 -38 c0 -8 -7 -15
-15 -15 -16 0 -20 12 -8 23 11 12 23 8 23 -8z m490 0 c0 -8 -4 -15 -10 -15 -5
0 -10 7 -10 15 0 8 5 15 10 15 6 0 10 -7 10 -15z m-350 -47 c0 -38 -5 -34 -13
10 -4 21 -3 31 3 27 6 -3 10 -20 10 -37z m-3 -60 c-2 -8 -17 -12 -35 -10 -34
3 -39 -7 -26 -56 8 -26 48 -39 69 -22 13 10 15 8 15 -13 0 -15 9 -31 24 -40
13 -9 30 -33 37 -54 l12 -38 18 42 c10 23 27 47 38 53 13 7 21 21 21 37 0 21
3 24 12 15 33 -33 78 -2 78 53 0 23 -3 26 -32 23 -18 -2 -33 2 -35 10 -3 8 8
12 36 12 52 0 72 -31 53 -84 -7 -18 -12 -44 -12 -57 0 -14 -6 -33 -13 -43 -13
-18 -15 -18 -40 -1 -49 32 -78 11 -115 -85 -9 -24 -10 -24 -21 15 -20 76 -71
106 -114 68 -18 -17 -19 -17 -33 2 -8 10 -14 33 -14 51 0 18 -4 36 -10 39 -13
8 -13 51 0 76 8 14 21 19 51 19 28 0 39 -4 36 -12z m3 -228 c17 -9 40 -58 40
-88 0 -8 -18 8 -40 34 -22 27 -40 52 -40 56 0 11 18 10 40 -2z m230 1 c0 -6
-18 -31 -40 -56 -40 -46 -52 -85 -27 -85 7 0 33 14 57 32 42 32 43 32 26 5
-10 -14 -38 -37 -62 -51 l-44 -25 0 29 c0 58 21 130 43 145 24 17 47 20 47 6z
m-380 -151 c-18 -33 -30 -23 -30 26 l0 47 21 -26 c16 -21 18 -31 9 -47z m177
10 c14 0 23 -6 23 -15 0 -8 -3 -15 -7 -15 -19 1 -88 47 -102 70 -14 22 -12 22
24 -8 22 -17 50 -32 62 -32z m-361 -36 c5 -54 4 -67 -6 -57 -7 6 -14 42 -17
80 -4 51 -3 65 6 57 6 -6 14 -42 17 -80z m874 -24 c-19 -36 -23 -15 -8 47 l13
58 3 -42 c2 -23 -2 -52 -8 -63z m-570 -11 c36 -11 38 -13 33 -45 -5 -29 -2
-35 21 -44 31 -12 35 -45 6 -60 -16 -9 -24 -7 -37 5 -12 12 -25 15 -47 10 -49
-12 -79 -11 -83 2 -3 7 9 13 29 15 l33 3 -3 63 c-2 34 0 62 4 62 3 0 24 -5 44
-11z m80 1 c0 -5 -5 -10 -11 -10 -5 0 -7 5 -4 10 3 6 8 10 11 10 2 0 4 -4 4
-10z m218 -52 l-3 -63 39 -5 c35 -4 37 -7 23 -19 -13 -10 -24 -11 -48 -2 -44
15 -65 14 -83 -5 -23 -22 -56 -9 -56 22 0 17 8 27 25 34 26 10 32 34 15 60 -7
12 -1 17 28 26 64 20 64 20 60 -48z m491 -40 c120 -133 183 -211 165 -204 -24
9 -133 89 -191 140 -47 42 -78 90 -68 106 14 23 49 7 94 -42z m-1274 -55 c-14
-16 -36 -43 -48 -61 -20 -30 -117 -85 -187 -107 -31 -9 -33 -11 75 71 50 37
105 80 123 96 44 38 72 38 37 1z m49 -9 c8 -21 1 -31 -36 -50 -41 -21 -46 -11
-14 31 30 39 41 43 50 19z m1092 -14 c2 -34 4 -40 15 -40 33 0 180 -93 167
-106 -6 -5 -220 105 -238 123 -13 13 -13 16 5 29 24 18 50 14 51 -6z m-474
-72 c-7 -7 -12 -28 -12 -48 0 -36 -29 -102 -45 -102 -17 0 -45 67 -44 107 l1
40 8 -42 c5 -23 14 -52 21 -64 11 -22 12 -22 25 -4 7 10 16 38 20 64 8 53 11
61 27 61 8 0 8 -3 -1 -12z m282 -50 c4 -22 3 -38 -2 -38 -15 0 -23 29 -16 56
8 31 10 29 18 -18z m-985 29 c-2 -1 -14 -11 -26 -21 -13 -11 -23 -16 -23 -13
0 10 31 37 42 37 6 0 9 -1 7 -3z m351 -132 c0 -25 -10 -68 -23 -97 -28 -62
-76 -142 -83 -135 -14 13 48 230 74 260 24 27 32 20 32 -28z m713 20 c9 -8 18
-29 22 -47 4 -18 27 -109 52 -202 24 -93 42 -173 40 -179 -2 -6 -13 14 -26 44
-13 30 -39 87 -58 127 -19 40 -43 113 -53 162 -10 49 -21 94 -25 100 -10 16
32 12 48 -5z m-143 -6 c0 -7 -5 -28 -11 -49 -11 -36 -9 -40 35 -101 25 -35 52
-73 60 -83 18 -23 89 -197 83 -203 -4 -3 -152 251 -196 334 -14 28 -3 113 15
113 8 0 14 -5 14 -11z m-696 -239 c-11 -44 -30 -86 -61 -132 -26 -38 -48 -66
-50 -64 -2 2 13 41 35 87 22 46 49 106 61 133 12 26 24 47 26 45 2 -2 -3 -33
-11 -69z m12 -111 c-9 -18 -16 -38 -16 -45 0 -7 -5 -16 -10 -19 -7 -4 -8 3 -4
22 11 47 36 99 41 86 2 -7 -3 -27 -11 -44z"/>
<path d="M1442 2805 c0 -16 2 -22 5 -12 2 9 2 23 0 30 -3 6 -5 -1 -5 -18z"/>
<path d="M1521 2794 c0 -11 3 -14 6 -6 3 7 2 16 -1 19 -3 4 -6 -2 -5 -13z"/>
<path d="M1433 2735 c0 -22 2 -30 4 -17 2 12 2 30 0 40 -3 9 -5 -1 -4 -23z"/>
<path d="M1423 2640 c0 -25 2 -35 4 -22 2 12 2 32 0 45 -2 12 -4 2 -4 -23z"/>
<path d="M1547 2604 c2 -44 9 -105 13 -135 7 -45 8 -40 3 27 -2 44 -9 105 -13
135 -7 45 -8 40 -3 -27z"/>
<path d="M1413 2555 c0 -22 2 -30 4 -17 2 12 2 30 0 40 -3 9 -5 -1 -4 -23z"/>
<path d="M1404 2385 c0 -49 1 -71 3 -48 2 23 2 64 0 90 -2 26 -3 8 -3 -42z"/>
<path d="M1574 2290 c0 -58 1 -81 3 -52 2 28 2 76 0 105 -2 28 -3 5 -3 -53z"/>
<path d="M1583 2020 c0 -30 2 -43 4 -27 2 15 2 39 0 55 -2 15 -4 2 -4 -28z"/>
</g>
</svg>
