<?xml version="1.0" standalone="no"?>
<!DOCTYPE svg PUBLIC "-//W3C//DTD SVG 20010904//EN"
 "http://www.w3.org/TR/2001/REC-SVG-20010904/DTD/svg10.dtd">
<svg version="1.0" xmlns="http://www.w3.org/2000/svg"
 width="244.000000pt" height="305.000000pt" viewBox="0 0 244.000000 305.000000"
 preserveAspectRatio="xMidYMid meet">
<metadata>
Created by potrace 1.16, written by Peter Selinger 2001-2019
</metadata>
<g transform="translate(0.000000,305.000000) scale(0.100000,-0.100000)"
fill="#000000" stroke="none">
<path d="M980 2918 c0 -3 -7 -41 -14 -84 -35 -186 -65 -582 -66 -844 0 -66 0
-66 45 -104 l46 -37 28 30 c16 17 35 31 41 31 10 0 11 52 6 238 -4 130 -11
289 -17 352 -12 149 -49 402 -60 415 -5 5 -9 6 -9 3z m7 -786 c-1 -130 -2 -23
-2 238 0 261 1 368 2 237 2 -130 2 -344 0 -475z"/>
<path d="M1483 2902 c-9 -6 -13 -23 -29 -127 -3 -16 -7 -37 -9 -45 -12 -41
-35 -362 -41 -568 l-7 -232 43 -40 42 -39 45 37 44 37 -6 260 c-3 143 -10 285
-15 315 -9 54 -9 54 -5 -15 3 -38 7 -173 9 -300 l5 -230 -13 275 c-8 151 -16
307 -19 345 -4 46 -3 58 2 35 l8 -35 1 35 c0 19 -3 55 -7 80 l-8 45 -3 -40
c-2 -31 -5 -21 -15 45 -17 110 -18 130 -5 110 7 -11 8 -5 4 20 -8 42 -7 40
-21 32z"/>
<path d="M1512 2765 c0 -16 2 -22 5 -12 2 9 2 23 0 30 -3 6 -5 -1 -5 -18z"/>
<path d="M1227 2584 c-27 -100 -47 -283 -54 -502 -3 -116 -7 -211 -9 -210 -1
2 -9 54 -18 117 -9 63 -18 116 -21 119 -12 13 -19 -15 -29 -114 l-10 -105 27
-25 c26 -24 32 -43 28 -94 -3 -43 -10 -55 -23 -42 -35 35 -54 -21 -23 -65 19
-27 40 -21 60 16 14 26 14 25 15 -20 0 -33 5 -49 15 -53 9 -3 24 -25 34 -48
l18 -43 12 38 c7 20 22 43 33 51 15 11 20 25 20 58 l-1 43 15 -27 c26 -50 74
-27 74 36 0 27 -18 34 -37 15 -16 -16 -25 5 -25 63 0 43 4 54 28 73 l28 22
-11 107 c-17 161 -26 160 -51 -10 l-17 -119 -2 100 c-6 250 -39 579 -63 624
-6 11 -9 10 -13 -5z"/>
<path d="M859 1849 c-14 -14 -19 -30 -17 -52 3 -28 7 -32 35 -35 20 -2 40 -13
53 -29 21 -27 27 -73 10 -73 -13 0 -13 -65 1 -115 6 -22 24 -67 41 -101 l31
-61 -27 -45 c-14 -24 -26 -58 -26 -74 0 -40 34 -76 68 -72 27 3 27 4 23 72 -3
55 -1 68 10 64 8 -3 31 -11 52 -19 34 -12 37 -16 37 -51 0 -26 4 -38 14 -38 7
0 20 -7 27 -16 11 -14 9 -20 -19 -43 -18 -14 -33 -35 -34 -46 0 -11 -4 -2 -7
20 -7 47 -24 54 -77 29 -43 -20 -59 -14 -88 36 -14 23 -20 56 -22 114 -4 104
-14 140 -42 144 -30 5 -62 -32 -62 -71 0 -39 10 -74 44 -152 22 -49 23 -55 7
-35 -33 42 -61 105 -67 154 -6 38 -2 57 17 97 29 63 20 83 -40 87 -51 4 -71
-10 -72 -52 0 -17 -3 -25 -6 -18 -12 31 -23 -7 -23 -84 0 -82 -1 -84 -24 -84
-18 0 -54 -37 -165 -172 -96 -115 -138 -174 -130 -179 13 -7 63 8 114 35 17 8
59 28 95 44 162 72 160 71 160 97 0 14 5 25 11 25 26 0 81 -45 99 -81 27 -52
26 -77 -4 -85 -14 -3 -27 -13 -31 -21 -22 -59 -124 -528 -119 -549 6 -24 7
-24 35 18 47 69 77 115 171 262 86 133 89 140 86 190 l-3 51 50 3 c57 3 89
-11 118 -50 l20 -27 -27 -31 c-21 -25 -25 -39 -21 -64 3 -17 16 -105 30 -196
46 -303 65 -423 69 -427 5 -6 47 246 91 557 l14 95 -26 33 -25 34 19 26 c11
15 31 33 44 39 27 14 115 17 123 5 3 -5 1 -26 -5 -46 -10 -35 -7 -41 58 -144
37 -59 91 -142 120 -186 29 -43 53 -80 53 -83 0 -13 47 -59 57 -56 6 2 14 -5
18 -17 4 -12 9 -20 11 -17 4 4 -22 117 -82 367 -40 165 -55 215 -64 218 -5 2
-19 11 -30 20 -19 16 -20 20 -8 52 16 44 36 71 68 93 33 23 40 21 40 -7 0 -21
13 -30 98 -66 53 -23 119 -53 147 -67 27 -13 68 -28 90 -32 22 -5 48 -12 58
-16 36 -15 12 19 -111 160 -15 17 -47 55 -71 85 -78 96 -94 110 -118 110 -22
0 -23 3 -25 83 l-1 82 -10 -87 c-14 -125 -29 -111 -22 20 8 129 1 145 -65 144
-56 -1 -91 -31 -72 -62 6 -11 12 -27 12 -35 0 -14 -2 -14 -23 0 -38 25 -63 -1
-71 -75 -4 -33 -10 -60 -14 -60 -4 0 -18 16 -31 35 l-24 36 41 82 c47 96 61
167 37 190 -37 37 2 104 63 109 32 3 37 7 40 32 4 36 -31 76 -67 76 -34 0 -44
-8 -69 -48 l-20 -33 -18 38 c-37 76 -124 46 -124 -42 0 -21 5 -24 42 -27 34
-2 45 -8 57 -30 12 -21 13 -31 4 -50 -6 -13 -14 -36 -18 -53 -9 -48 -46 -114
-87 -156 -39 -40 -53 -78 -31 -86 20 -7 107 82 142 144 18 32 29 47 25 33 -25
-91 -85 -169 -150 -196 -30 -13 -35 -19 -31 -40 2 -13 0 -24 -6 -24 -13 0 -2
162 13 191 7 11 27 27 46 35 30 13 33 17 24 34 -29 55 -96 25 -120 -53 l-13
-42 -19 45 c-35 81 -68 100 -108 60 -25 -25 -20 -35 19 -43 21 -5 32 -15 41
-39 16 -45 26 -188 13 -188 -6 0 -8 11 -6 23 4 19 -1 26 -26 37 -71 29 -151
138 -164 223 -3 20 -4 37 -3 37 2 0 13 -27 25 -60 24 -66 128 -186 152 -178
23 8 11 47 -24 81 -43 41 -83 111 -92 161 -3 21 -12 47 -18 57 -10 15 -9 25 3
47 13 22 24 28 59 30 l43 3 -5 36 c-15 90 -100 100 -128 16 l-12 -38 -15 35
c-25 61 -74 78 -113 39z m-104 -526 c5 -47 -4 -80 -32 -113 -14 -18 -112 -99
-221 -183 -7 -5 -16 -7 -19 -3 -8 7 19 33 87 86 25 19 73 59 108 89 l63 54 -6
86 c-4 66 -3 79 5 56 6 -16 12 -49 15 -72z m664 -60 c-4 -65 -3 -68 19 -71 13
-2 35 4 49 13 l25 17 -18 -32 c-25 -42 -38 -46 -77 -25 -45 24 -71 17 -77 -20
-6 -29 -6 -29 -12 -6 -4 12 -11 20 -17 17 -12 -8 -43 22 -38 38 2 6 13 15 25
21 17 7 22 18 22 45 0 33 4 37 43 52 23 9 46 17 51 17 4 1 6 -29 5 -66z m450
-40 c143 -171 180 -217 176 -222 -3 -2 -17 6 -31 20 -40 37 -205 249 -195 249
6 0 28 -21 50 -47z m-129 -89 c0 -8 -5 -12 -10 -9 -6 4 -8 11 -5 16 9 14 15
11 15 -7z m-780 -109 c0 -25 -17 -81 -46 -150 -25 -60 -56 -135 -68 -165 -36
-86 -78 -172 -82 -167 -3 2 5 31 17 63 20 55 35 92 78 189 76 169 75 168 73
239 -1 37 -4 78 -7 90 -2 11 4 3 15 -19 11 -22 20 -58 20 -80z m241 3 c7 -48
24 -88 38 -88 9 0 28 65 33 109 2 14 10 26 18 29 12 4 13 2 3 -9 -7 -7 -13
-31 -13 -53 0 -42 -33 -111 -49 -102 -17 11 -41 74 -41 108 0 19 -6 40 -12 47
-11 11 -10 13 2 9 9 -3 18 -23 21 -50z m468 -213 l0 -20 -8 20 c-5 11 -11 38
-14 60 l-6 40 14 -40 c7 -22 14 -49 14 -60z m40 -155 c30 -127 36 -158 26
-148 -6 6 -65 243 -65 263 0 37 10 6 39 -115z"/>
</g>
</svg>
