<?xml version="1.0" standalone="no"?>
<!DOCTYPE svg PUBLIC "-//W3C//DTD SVG 20010904//EN"
 "http://www.w3.org/TR/2001/REC-SVG-20010904/DTD/svg10.dtd">
<svg version="1.0" xmlns="http://www.w3.org/2000/svg"
 width="244.000000pt" height="305.000000pt" viewBox="0 0 244.000000 305.000000"
 preserveAspectRatio="xMidYMid meet">
<metadata>
Created by potrace 1.16, written by Peter Selinger 2001-2019
</metadata>
<g transform="translate(0.000000,305.000000) scale(0.100000,-0.100000)"
fill="#000000" stroke="none">
<path d="M960 2900 c-1 -8 -2 -26 -1 -40 3 -94 0 -955 -5 -953 -2 1 -19 14
-36 28 l-31 26 7 222 c6 191 19 367 40 547 5 42 5 43 -4 10 -21 -78 -42 -329
-49 -563 l-6 -249 26 -15 c29 -17 62 -66 52 -76 -3 -4 -21 3 -40 14 -46 28
-80 19 -99 -27 -18 -43 -12 -54 31 -54 25 0 40 -8 59 -31 30 -35 31 -46 12
-83 -8 -16 -12 -44 -9 -70 5 -37 2 -44 -15 -48 -13 -4 -23 -18 -27 -39 -4 -18
-17 -41 -29 -50 -18 -14 -21 -28 -21 -83 0 -44 -4 -66 -11 -66 -32 0 -32 102
-2 166 22 45 23 46 4 60 -24 17 -88 18 -104 2 -16 -16 -15 -83 3 -142 35 -114
16 -147 -145 -261 -19 -13 -66 -47 -105 -75 -38 -27 -74 -50 -79 -50 -8 0 4
15 143 173 86 97 86 97 125 92 l39 -6 -6 53 c-4 29 -7 77 -7 106 0 32 -4 52
-11 52 -9 0 -10 -25 -6 -91 l7 -91 -29 7 c-22 5 -32 2 -43 -13 -15 -22 -146
-168 -202 -227 -49 -50 -90 -104 -85 -110 4 -4 168 59 236 90 17 8 35 15 40
15 4 0 19 6 33 13 57 30 59 27 23 -34 -20 -33 -33 -62 -30 -65 3 -3 23 6 46
20 22 14 43 26 46 26 2 0 29 16 59 35 30 19 59 35 64 35 11 0 32 -45 32 -71 0
-12 -11 -24 -27 -31 -16 -7 -29 -13 -30 -13 -7 -3 -143 -559 -140 -568 2 -6
21 14 43 45 88 127 177 248 180 246 1 -2 -8 -62 -22 -133 -13 -72 -24 -132
-24 -134 0 -18 33 42 124 220 98 194 104 209 96 245 -5 21 -7 42 -4 46 15 24
102 -11 123 -50 8 -15 5 -27 -14 -55 -14 -20 -25 -43 -25 -52 0 -21 100 -628
104 -632 3 -4 107 624 106 646 0 8 -12 27 -26 43 -26 26 -26 28 -10 52 23 37
60 58 93 54 29 -3 30 -4 22 -78 -3 -28 214 -469 219 -446 2 8 -6 67 -17 130
-12 63 -21 121 -21 128 0 6 14 -8 32 -33 79 -110 171 -229 174 -226 2 1 -6 39
-17 82 -11 44 -40 160 -65 257 -52 207 -59 228 -78 228 -7 0 -19 7 -26 15 -14
17 -4 74 15 81 7 3 68 -26 135 -65 66 -39 123 -71 126 -71 7 0 -44 89 -64 113
-28 32 -4 29 94 -13 130 -56 204 -83 210 -77 2 2 -31 44 -74 93 -43 49 -88
102 -100 118 -12 15 -42 51 -67 78 -38 42 -50 49 -70 44 l-25 -6 -1 92 -2 93
-12 -80 c-6 -44 -15 -94 -19 -111 -6 -27 -3 -33 36 -64 24 -19 50 -40 58 -47
8 -6 59 -46 113 -89 54 -42 96 -78 94 -80 -7 -7 -269 113 -278 127 -4 8 -6 24
-2 37 4 16 -2 31 -17 47 -30 32 -36 95 -16 170 9 32 16 73 16 91 0 58 -63 84
-111 45 l-23 -18 22 -36 c28 -48 34 -94 19 -136 -19 -54 -34 -49 -29 9 4 54
-5 126 -16 116 -3 -4 -11 12 -17 36 -8 36 -14 44 -37 46 -26 3 -26 5 -21 55 4
41 2 56 -11 66 -23 20 -20 36 16 77 26 29 37 35 61 31 16 -2 31 1 33 8 6 15
-14 67 -29 77 -18 12 -55 9 -77 -4 -10 -7 -22 -9 -26 -5 -12 11 16 54 43 66
l25 11 -7 208 c-8 246 -28 483 -55 645 -11 65 -20 122 -21 125 -1 4 -4 -4 -8
-18 -4 -14 -5 -29 -2 -35 14 -22 5 -945 -9 -945 -6 0 -10 95 -11 263 -1 144
-5 323 -9 397 -8 126 -34 338 -44 347 -2 3 -2 -31 1 -74 3 -43 2 -271 -2 -506
-7 -383 -9 -426 -22 -407 -8 12 -18 57 -22 100 -7 82 -16 107 -27 74 -17 -55
-23 -59 -23 -20 -1 51 -10 41 -20 -21 -6 -39 -8 -23 -14 92 -11 219 -50 475
-67 444 -21 -38 -59 -338 -61 -484 0 -44 -2 -75 -4 -70 -2 6 -7 24 -11 40 l-7
30 -7 -30 c-4 -19 -9 -25 -12 -15 -24 69 -28 102 -28 211 0 118 -30 491 -48
589 -4 25 -6 -80 -4 -240 2 -157 2 -283 -1 -280 -3 3 -11 73 -17 155 -6 83
-15 159 -20 170 -4 11 -13 58 -19 105 -12 89 -28 156 -31 130z m270 -855 l0
-436 -22 20 c-19 19 -21 30 -19 118 1 54 4 106 7 117 4 12 2 16 -5 12 -6 -4
-11 0 -11 8 0 9 4 16 8 16 5 0 12 100 16 223 6 216 15 357 22 357 2 0 4 -196
4 -435z m-43 -67 c-2 -24 -4 -7 -4 37 0 44 2 63 4 43 2 -21 2 -57 0 -80z
m-163 -109 c-3 -5 -14 -9 -25 -9 -17 0 -18 3 -9 21 9 16 14 18 26 9 7 -7 11
-16 8 -21z m386 -1 c0 -5 -7 -8 -15 -8 -15 0 -20 21 -8 33 7 7 23 -11 23 -25z
m-315 11 c10 -15 -1 -23 -20 -15 -9 3 -13 10 -10 16 8 13 22 13 30 -1z m378
-4 c1 -5 -6 -11 -15 -13 -11 -2 -18 3 -18 13 0 17 30 18 33 0z m-353 -140
c-14 -17 -30 -11 -30 10 0 15 33 26 38 13 2 -5 -2 -15 -8 -23z m254 22 c15
-11 15 -15 4 -24 -16 -14 -54 9 -43 26 8 14 17 14 39 -2z m-349 -64 c5 -17 2
-23 -9 -23 -11 0 -16 10 -16 32 0 34 13 29 25 -9z m441 -9 c-3 -8 -10 -12 -16
-9 -7 4 -6 14 2 28 12 24 24 8 14 -19z m-318 -33 c6 -1 12 -8 12 -16 0 -8 9
-19 21 -25 11 -7 27 -27 35 -46 14 -34 34 -38 34 -8 0 8 12 27 27 42 15 15 28
30 29 35 1 4 2 11 3 16 1 10 54 7 70 -4 5 -3 6 -17 2 -33 -7 -24 -12 -27 -50
-27 -50 -1 -66 -17 -83 -84 l-11 -45 -14 50 c-19 65 -35 79 -86 79 -41 0 -42
1 -45 36 -3 32 -1 35 20 33 13 -1 29 -3 36 -3z m-168 -54 c0 -7 16 -46 35 -86
35 -73 39 -103 9 -65 -43 54 -86 189 -54 169 6 -3 10 -12 10 -18z m84 -30 c8
-26 12 -47 10 -47 -8 0 -34 68 -34 86 0 26 8 12 24 -39z m356 -2 c-6 -15 -13
-25 -16 -22 -3 3 0 22 8 43 7 20 14 30 16 22 2 -8 -2 -27 -8 -43z m86 18 c-7
-39 -35 -102 -61 -137 -28 -38 -24 -10 10 64 19 41 35 83 35 93 0 9 5 17 11
17 7 0 9 -13 5 -37z m-359 -61 c12 -8 33 -55 33 -74 0 -16 -29 12 -46 43 -20
40 -16 50 13 31z m203 1 c0 -15 -40 -73 -50 -73 -11 0 4 46 22 67 11 14 28 17
28 6z m200 -87 c8 -24 8 -52 1 -96 -14 -85 -21 -87 -21 -4 0 38 -3 87 -7 108
-8 48 10 42 27 -8z m-602 -7 c-6 -17 -8 -49 -5 -73 7 -48 -6 -83 -16 -44 -16
57 -4 148 19 148 10 0 11 -6 2 -31z m240 -63 c3 -14 0 -15 -22 -5 -32 15 -34
30 -3 25 12 -1 23 -10 25 -20z m122 2 c-24 -20 -36 -18 -27 4 2 8 15 14 27 14
l22 0 -22 -18z m-157 -68 c17 0 17 -1 3 -16 -23 -22 -20 -51 7 -60 38 -12 46
-34 21 -58 -13 -14 -18 -14 -35 -2 -13 9 -35 12 -64 8 -41 -4 -45 -3 -45 18 0
18 3 20 14 11 7 -6 21 -9 30 -5 13 5 15 16 9 62 -6 55 -6 55 18 49 13 -4 32
-7 42 -7z m224 -38 c-7 -60 4 -82 32 -65 21 13 31 8 31 -15 0 -11 -10 -13 -45
-10 -25 3 -54 0 -67 -7 -31 -16 -48 -8 -48 21 0 17 8 27 25 34 26 10 32 34 15
60 -7 11 -4 17 13 22 47 13 50 11 44 -40z m-533 -15 c15 -24 -2 -34 -19 -11
-8 10 -15 23 -15 27 0 13 22 3 34 -16z m647 -70 c-10 -9 -11 -8 -5 6 3 10 9
15 12 12 3 -3 0 -11 -7 -18z m-491 -7 c0 -5 -2 -10 -4 -10 -3 0 -8 5 -11 10
-3 6 -1 10 4 10 6 0 11 -4 11 -10z m-244 -34 c5 -14 -101 -135 -110 -125 -3 3
10 28 29 55 19 27 35 54 35 61 0 10 14 20 33 22 4 1 10 -5 13 -13z m159 -26
c29 -56 20 -113 -39 -239 -170 -365 -178 -382 -183 -377 -2 2 17 81 42 177 25
96 51 193 57 217 9 36 17 45 53 61 40 18 42 21 48 73 4 30 3 68 -2 86 -12 41
3 42 24 2z m858 -36 c89 -94 88 -100 -5 -43 -111 68 -119 76 -94 95 11 8 23
14 28 14 4 0 36 -30 71 -66z m-210 -26 c-5 -83 -5 -83 47 -198 28 -63 65 -146
82 -185 17 -38 39 -87 49 -108 40 -81 16 -59 -64 57 -85 122 -94 140 -108 222
-6 38 -18 86 -25 108 -18 50 -18 108 0 151 8 19 17 35 19 35 3 0 3 -37 0 -82z
m-331 -104 c4 -4 14 8 22 27 9 19 15 28 16 21 0 -18 -30 -82 -39 -82 -9 0 -31
62 -30 86 0 13 4 8 12 -13 7 -17 15 -35 19 -39z m-232 -16 c0 -24 -12 -58 -20
-58 -10 0 -22 48 -15 60 9 14 35 12 35 -2z m475 3 c3 -5 9 -29 14 -53 5 -24
34 -117 65 -207 31 -90 54 -166 51 -169 -2 -2 -40 71 -85 163 -78 164 -92 212
-74 259 7 18 20 21 29 7z m-246 -313 c-1 -150 -3 -266 -5 -258 -2 8 -15 107
-28 220 l-25 205 27 53 c14 28 27 52 29 52 2 0 2 -123 2 -272z m-61 72 c0 -33
-1 -32 -9 10 -4 25 -7 59 -7 75 0 26 1 25 9 -10 4 -22 8 -56 7 -75z m-254 -34
c-20 -64 -40 -116 -44 -116 -15 0 27 180 51 214 13 20 25 31 27 26 2 -5 -13
-61 -34 -124z"/>
<path d="M1411 2824 c0 -11 3 -14 6 -6 3 7 2 16 -1 19 -3 4 -6 -2 -5 -13z"/>
<path d="M941 2804 c0 -11 3 -14 6 -6 3 7 2 16 -1 19 -3 4 -6 -2 -5 -13z"/>
<path d="M1475 2780 c-4 -23 -5 -43 -2 -46 2 -3 7 14 11 37 4 23 5 44 2 46 -2
2 -7 -14 -11 -37z"/>
<path d="M1402 2735 c0 -16 2 -22 5 -12 2 9 2 23 0 30 -3 6 -5 -1 -5 -18z"/>
<path d="M1022 2725 c0 -16 2 -22 5 -12 2 9 2 23 0 30 -3 6 -5 -1 -5 -18z"/>
<path d="M1393 2655 c0 -27 2 -38 4 -22 2 15 2 37 0 50 -2 12 -4 0 -4 -28z"/>
<path d="M1383 2510 c0 -30 2 -43 4 -27 2 15 2 39 0 55 -2 15 -4 2 -4 -28z"/>
<path d="M1374 2265 c0 -71 1 -99 3 -62 2 37 2 96 0 130 -2 34 -3 4 -3 -68z"/>
</g>
</svg>
