<?xml version="1.0" standalone="no"?>
<!DOCTYPE svg PUBLIC "-//W3C//DTD SVG 20010904//EN"
 "http://www.w3.org/TR/2001/REC-SVG-20010904/DTD/svg10.dtd">
<svg version="1.0" xmlns="http://www.w3.org/2000/svg"
 width="244.000000pt" height="305.000000pt" viewBox="0 0 244.000000 305.000000"
 preserveAspectRatio="xMidYMid meet">
<metadata>
Created by potrace 1.16, written by Peter Selinger 2001-2019
</metadata>
<g transform="translate(0.000000,305.000000) scale(0.100000,-0.100000)"
fill="#000000" stroke="none">
<path d="M1542 2813 c-46 -208 -67 -397 -78 -695 l-7 -186 43 -29 c24 -15 49
-32 55 -37 9 -7 23 -1 44 17 17 14 41 29 52 32 22 7 22 8 15 236 -4 126 -11
266 -16 312 -13 113 -52 348 -57 343 -3 -2 5 -66 16 -143 26 -175 38 -313 46
-529 l7 -171 -41 -33 c-23 -18 -44 -31 -46 -29 -4 4 -7 523 -6 809 1 111 4
151 12 140 8 -11 9 -9 3 10 -15 55 -21 47 -42 -47z"/>
<path d="M896 2883 c-38 -130 -74 -391 -86 -633 -15 -316 -15 -329 14 -339 13
-5 36 -21 50 -35 25 -23 56 -26 56 -5 0 5 18 19 40 31 39 22 40 24 40 78 0
254 -38 660 -75 800 -8 30 -12 39 -9 20 2 -19 13 -93 24 -165 40 -276 56 -695
27 -695 -8 0 -22 -9 -32 -20 -45 -50 -45 -49 -45 449 0 282 4 472 9 476 6 3 8
15 6 27 -6 29 -12 33 -19 11z"/>
<path d="M1131 2860 c-1 -25 -2 -243 -2 -485 0 -245 -4 -429 -9 -415 -4 14 -9
57 -10 95 -1 49 -4 64 -10 50 -5 -12 -9 -15 -9 -6 -2 29 -19 -4 -30 -57 -17
-80 -14 -152 6 -167 9 -7 13 -17 9 -24 -6 -9 -11 -9 -22 0 -20 17 -83 13 -104
-6 -11 -10 -25 -33 -31 -53 l-12 -36 -17 35 c-27 52 -56 73 -97 72 -43 -1 -73
-28 -76 -68 -2 -27 0 -28 47 -29 41 -1 52 -6 77 -34 32 -36 37 -60 14 -68 -24
-9 -19 -90 9 -149 13 -27 37 -67 54 -89 25 -30 30 -42 21 -57 -5 -10 -13 -19
-18 -19 -5 0 -19 -20 -32 -45 l-24 -44 21 -28 c12 -15 31 -30 44 -33 30 -7 34
-20 16 -45 -14 -19 -16 -18 -51 19 -42 45 -57 78 -50 109 5 21 -18 154 -29
164 -9 10 -74 -7 -86 -22 -22 -27 -6 -98 41 -177 91 -155 99 -175 99 -252 0
-39 5 -88 11 -109 12 -43 24 -24 -136 -212 -146 -171 -154 -181 -155 -172 0 5
14 34 31 65 209 381 219 400 219 439 0 68 -29 142 -81 208 -84 107 -99 171
-54 237 14 20 25 44 25 52 0 38 -106 50 -140 16 -25 -25 -25 -45 1 -132 27
-88 22 -143 -17 -176 -21 -19 -25 -29 -20 -53 5 -27 2 -32 -32 -46 -42 -17
-304 -113 -310 -113 -15 0 30 35 91 71 62 37 265 165 276 175 2 2 -2 32 -10
66 -7 35 -14 66 -15 71 -1 4 -2 25 -3 47 0 23 -6 40 -12 40 -9 0 -10 -25 -6
-89 l6 -90 -32 6 c-30 4 -44 -6 -197 -148 -199 -183 -215 -199 -204 -199 5 0
114 34 242 77 215 71 232 78 232 100 0 13 7 26 15 29 25 10 128 -47 153 -85
33 -51 29 -76 -14 -92 l-37 -14 -77 -251 c-43 -139 -81 -267 -85 -285 -6 -30
-5 -32 8 -19 30 31 275 308 330 372 l56 67 -15 37 c-8 20 -12 40 -7 44 8 9 52
13 116 11 37 -1 37 -2 39 -43 1 -43 1 -43 5 -6 4 37 27 58 37 33 2 -7 -2 -48
-10 -92 -7 -43 -22 -125 -31 -183 -16 -91 -19 -100 -25 -70 -5 23 -5 16 -3
-22 3 -35 1 -58 -6 -60 -6 -2 -9 -22 -7 -46 3 -38 8 -25 42 105 22 81 42 151
46 156 6 7 29 -95 65 -283 26 -138 58 -290 60 -288 2 2 28 129 59 283 32 154
59 285 60 290 2 6 14 -25 27 -67 12 -43 24 -76 26 -74 2 2 -11 59 -28 127 -37
147 -45 197 -31 211 13 13 16 2 47 -179 14 -84 23 -163 20 -175 -3 -13 3 -50
14 -83 l19 -60 -4 45 c-26 265 -42 465 -38 472 3 4 41 8 86 8 79 0 80 0 74
-22 -22 -77 -23 -76 85 -198 56 -63 134 -151 174 -195 40 -44 82 -91 93 -105
11 -14 23 -23 25 -20 3 3 -7 46 -23 95 -15 50 -55 176 -87 280 l-58 190 -35
11 c-45 15 -49 46 -12 99 20 29 43 46 82 62 60 24 80 21 80 -12 0 -24 -3 -23
340 -136 167 -54 162 -55 90 14 -309 292 -316 299 -352 292 l-34 -7 3 94 c4
116 -11 90 -21 -35 l-6 -88 45 7 c44 6 47 5 93 -37 26 -24 91 -84 144 -133 54
-50 96 -92 93 -94 -7 -7 -349 191 -377 219 -42 41 -50 89 -28 162 25 78 25
119 2 140 -23 21 -90 22 -119 2 -24 -17 -22 -32 9 -77 22 -31 24 -95 4 -142
-8 -19 -38 -64 -67 -101 -45 -57 -53 -75 -57 -119 -2 -28 0 -67 5 -86 8 -29
16 -36 58 -51 l49 -17 33 -108 c19 -60 50 -158 69 -218 19 -59 33 -110 31
-113 -4 -4 -218 362 -272 464 -38 72 -29 116 49 243 54 88 70 124 74 162 4 37
0 53 -13 68 -20 22 -67 27 -82 8 -13 -16 -25 -86 -27 -153 -1 -38 -8 -59 -30
-88 -46 -60 -78 -70 -89 -28 -4 15 1 21 23 26 36 8 70 40 70 66 0 22 -30 79
-41 79 -4 0 -14 11 -23 25 -15 23 -15 26 12 57 43 51 62 85 79 140 15 51 11
98 -7 98 -22 0 -9 53 19 81 24 24 38 29 75 29 50 0 55 9 35 53 -12 27 -47 47
-80 47 -25 0 -89 -61 -89 -84 0 -25 -19 -19 -26 8 -8 32 -42 62 -78 69 -32 5
-76 -10 -76 -27 0 -5 -5 -4 -12 3 -11 10 -9 16 10 28 19 13 22 24 22 77 0 33
-5 79 -11 101 -18 71 -19 72 -34 45 -13 -22 -14 5 -16 220 -1 135 -5 297 -9
360 -4 76 -7 -36 -9 -325 -2 -456 -14 -558 -26 -230 -4 99 -9 183 -11 187 -2
3 -11 45 -19 91 -15 86 -41 197 -49 204 -6 6 -36 -126 -55 -240 l-17 -102 -8
250 c-8 256 -21 443 -25 355z m144 -520 c18 -132 24 -446 11 -534 -6 -33 -5
-46 2 -42 13 8 21 -35 18 -87 -2 -35 -17 -56 -38 -57 -5 0 -7 19 -7 43 1 23 3
33 6 22 7 -29 23 -43 23 -20 0 11 3 30 6 43 5 16 3 22 -7 20 -15 -3 -15 5 -3
252 3 63 2 111 -3 106 -4 -4 -11 -58 -14 -119 -5 -104 -6 -98 -7 68 -1 99 -5
239 -8 310 -4 72 -4 128 -1 125 3 -3 13 -61 22 -130z m-170 -589 c9 -23 -12
-37 -35 -23 -42 26 -52 5 -24 -50 12 -24 21 -29 40 -25 22 4 24 1 24 -34 0
-28 -4 -39 -15 -39 -8 0 -25 -12 -38 -26 -23 -25 -25 -25 -42 -8 -21 22 -48
82 -41 93 3 5 -3 16 -14 26 -27 25 -25 41 10 76 26 26 35 29 79 27 32 -2 53
-8 56 -17z m385 4 c36 -19 51 -63 26 -80 -9 -7 -16 -20 -16 -29 0 -23 -27 -87
-46 -108 -15 -16 -18 -15 -41 13 -14 16 -31 29 -39 29 -8 0 -14 10 -14 23 0
12 -3 32 -6 44 -6 21 -4 22 25 13 28 -8 33 -6 46 20 27 53 17 74 -25 48 -17
-11 -22 -10 -30 2 -15 23 -12 28 18 33 55 8 74 7 102 -8z m-548 -193 c15 -31
41 -72 58 -90 18 -18 30 -40 28 -50 -4 -14 -13 -8 -46 26 -48 49 -82 110 -82
147 0 39 13 29 42 -33z m195 26 c-3 -7 -5 -2 -5 12 0 14 2 19 5 13 2 -7 2 -19
0 -25z m200 10 c-3 -8 -6 -5 -6 6 -1 11 2 17 5 13 3 -3 4 -12 1 -19z m233 -19
c-13 -44 -53 -109 -89 -143 -30 -29 -31 -29 -31 -7 0 13 15 41 34 63 19 22 44
60 56 85 23 49 44 51 30 2z m-385 8 c0 -26 -20 -25 -23 2 -3 16 1 22 10 19 7
-3 13 -12 13 -21z m125 3 c0 -23 -25 -27 -33 -6 -7 16 1 26 20 26 7 0 13 -9
13 -20z m-190 -75 c0 -7 3 -27 6 -45 l7 -32 -25 16 c-23 15 -43 68 -31 80 9 8
43 -7 43 -19z m270 -10 c0 -25 -6 -37 -21 -45 -27 -15 -33 -8 -25 34 4 21 14
36 24 39 9 3 18 5 20 6 1 0 2 -15 2 -34z m-153 -22 c-3 -10 -5 -4 -5 12 0 17
2 24 5 18 2 -7 2 -21 0 -30z m65 -65 c-8 -8 -9 -4 -5 13 4 13 8 18 11 10 2 -7
-1 -18 -6 -23z m135 -15 c-3 -10 -5 -4 -5 12 0 17 2 24 5 18 2 -7 2 -21 0 -30z
m-365 -15 c-9 -9 -12 -7 -12 12 0 19 3 21 12 12 9 -9 9 -15 0 -24z m325 0 c-3
-8 -6 -5 -6 6 -1 11 2 17 5 13 3 -3 4 -12 1 -19z m-259 -16 c2 -7 -3 -12 -12
-12 -9 0 -16 7 -16 16 0 17 22 14 28 -4z m215 12 c8 -8 -3 -34 -14 -34 -5 0
-9 9 -9 20 0 19 11 26 23 14z m-338 -54 c4 -6 11 -8 16 -5 17 11 9 -78 -11
-119 -20 -43 -60 -78 -60 -53 0 7 8 24 18 37 17 26 24 70 10 70 -10 0 -11 64
-1 73 9 10 21 9 28 -3z m291 -27 c-10 -10 -19 5 -10 18 6 11 8 11 12 0 2 -7 1
-15 -2 -18z m184 -8 c0 -19 -4 -35 -10 -35 -5 0 -10 9 -10 20 0 11 -7 20 -15
20 -9 0 -12 6 -9 15 4 8 15 15 25 15 15 0 19 -7 19 -35z m-310 15 c0 -5 -4
-10 -10 -10 -5 0 -10 5 -10 10 0 6 5 10 10 10 6 0 10 -4 10 -10z m247 -27 c-3
-10 -5 -4 -5 12 0 17 2 24 5 18 2 -7 2 -21 0 -30z m-334 -46 c7 -37 11 -64 7
-60 -9 10 -30 95 -30 119 0 32 9 9 23 -59z m293 3 c-8 -34 -18 -65 -22 -69 -3
-3 -4 3 -1 14 3 11 9 40 12 65 8 47 14 64 21 57 3 -2 -2 -32 -10 -67z m71 -67
c-10 -9 -14 -2 -21 37 l-6 35 17 -32 c9 -18 13 -36 10 -40z m-116 14 c-12 -30
-18 -32 -44 -13 -10 8 -15 20 -11 30 5 14 9 14 22 4 12 -11 17 -10 26 5 15 23
19 6 7 -26z m-187 3 c3 0 6 8 6 17 0 16 1 16 18 0 16 -17 16 -19 -8 -37 -23
-18 -26 -18 -37 -3 -7 9 -13 26 -13 37 1 20 2 20 14 4 7 -10 16 -18 20 -18z
m89 -261 c-4 -15 -8 -17 -14 -8 -6 11 4 28 18 29 0 0 -1 -9 -4 -21z m-84 -80
c-14 -28 -19 -23 -19 19 1 34 2 36 15 18 10 -13 11 -24 4 -37z m167 -7 c-12
-12 -18 8 -10 35 l8 28 4 -28 c2 -16 1 -31 -2 -35z m14 -75 c0 -12 -6 -47 -14
-77 -8 -30 -27 -119 -42 -198 -15 -78 -29 -140 -32 -138 -2 3 2 89 8 192 7
104 10 220 7 259 l-6 70 39 -42 c23 -24 40 -52 40 -66z"/>
<path d="M1021 1303 c0 -7 -6 -12 -12 -10 -19 4 -21 -20 -3 -27 22 -8 27 -3
21 26 -2 12 -5 17 -6 11z"/>
<path d="M1333 2855 c0 -22 2 -30 4 -17 2 12 2 30 0 40 -3 9 -5 -1 -4 -23z"/>
<path d="M1322 2750 c0 -19 2 -27 5 -17 2 9 2 25 0 35 -3 9 -5 1 -5 -18z"/>
<path d="M1113 2605 c0 -38 2 -53 4 -32 2 20 2 52 0 70 -2 17 -4 1 -4 -38z"/>
<path d="M1313 2540 c0 -41 2 -58 4 -37 2 20 2 54 0 75 -2 20 -4 3 -4 -38z"/>
<path d="M1104 2235 c0 -60 1 -84 3 -52 2 32 2 81 0 110 -2 29 -3 3 -3 -58z"/>
<path d="M1053 790 c0 -25 2 -35 4 -22 2 12 2 32 0 45 -2 12 -4 2 -4 -23z"/>
<path d="M1043 680 c0 -25 2 -35 4 -22 2 12 2 32 0 45 -2 12 -4 2 -4 -23z"/>
</g>
</svg>
