<?xml version="1.0" standalone="no"?>
<!DOCTYPE svg PUBLIC "-//W3C//DTD SVG 20010904//EN"
 "http://www.w3.org/TR/2001/REC-SVG-20010904/DTD/svg10.dtd">
<svg version="1.0" xmlns="http://www.w3.org/2000/svg"
 width="244.000000pt" height="305.000000pt" viewBox="0 0 244.000000 305.000000"
 preserveAspectRatio="xMidYMid meet">
<metadata>
Created by potrace 1.16, written by Peter Selinger 2001-2019
</metadata>
<g transform="translate(0.000000,305.000000) scale(0.100000,-0.100000)"
fill="#000000" stroke="none">
<path d="M926 2902 c-9 -14 -47 -252 -62 -382 -8 -69 -17 -231 -20 -360 l-6
-235 38 -25 c20 -14 43 -29 50 -35 10 -7 22 -1 44 20 24 23 34 27 47 19 29
-18 25 -31 -12 -38 -24 -5 -39 -14 -44 -29 -5 -12 -13 -33 -18 -46 -9 -24 -10
-24 -29 15 -24 46 -63 68 -104 59 -39 -8 -52 -27 -48 -67 3 -32 5 -33 41 -30
31 3 42 -1 67 -28 33 -36 38 -61 14 -81 -13 -10 -14 -28 -9 -103 3 -50 10
-125 16 -166 7 -50 8 -88 1 -115 l-10 -40 -1 40 c-1 22 -4 70 -8 108 l-6 67
-33 0 c-51 0 -78 -32 -71 -84 3 -23 13 -55 21 -71 31 -59 11 -74 -28 -22 -30
41 -34 136 -7 180 11 19 21 42 21 50 0 21 -30 37 -69 37 -75 0 -89 -31 -60
-137 28 -102 23 -166 -17 -198 -26 -20 -27 -25 -16 -49 12 -26 11 -27 -51 -56
-50 -23 -176 -74 -267 -107 -33 -12 18 27 165 127 190 129 188 127 170 188 -8
26 -15 67 -15 92 0 25 -5 52 -11 60 -7 11 -9 -11 -7 -78 l4 -92 -30 5 c-29 6
-42 -5 -210 -174 -99 -100 -175 -181 -169 -181 5 0 84 27 174 61 90 33 190 70
221 81 48 16 57 24 60 46 2 22 7 26 28 24 47 -5 54 -23 28 -78 -13 -27 -25
-51 -28 -54 -12 -11 -41 -62 -38 -65 2 -2 39 18 83 45 80 49 94 50 95 8 0 -11
-14 -23 -34 -32 -37 -16 -36 -13 -117 -301 -65 -235 -77 -285 -71 -285 4 1 77
88 162 195 85 107 160 195 166 195 13 0 33 62 36 115 3 38 5 40 37 43 25 3 32
0 29 -10 -3 -7 -31 -96 -62 -198 -72 -232 -80 -246 -51 -80 8 47 15 94 14 105
-1 20 -41 -200 -53 -290 -5 -45 4 -29 88 142 112 229 111 225 107 286 -3 42
-1 47 18 47 21 0 91 -55 91 -72 0 -6 -13 -25 -29 -43 l-29 -33 24 -128 c13
-71 37 -201 53 -289 17 -88 33 -177 37 -198 3 -21 8 -37 9 -35 2 2 26 129 55
283 28 154 55 299 59 323 8 40 6 47 -20 77 -16 18 -29 37 -29 42 0 16 54 61
81 68 34 8 40 -2 29 -49 -10 -44 -10 -44 161 -401 57 -120 57 -120 13 144 -14
79 -23 145 -21 147 3 3 225 -264 294 -354 7 -8 15 -14 17 -11 3 2 -22 99 -54
214 -33 116 -67 239 -77 275 -16 56 -22 67 -50 79 -26 12 -33 21 -33 43 0 29
8 35 25 19 6 -5 30 -20 55 -33 25 -14 62 -35 83 -48 20 -12 37 -20 37 -17 0 3
-25 47 -55 98 -30 51 -52 96 -48 100 5 4 22 9 38 11 26 3 30 0 33 -25 2 -15 8
-27 13 -27 5 0 56 -17 112 -39 223 -85 276 -103 286 -100 5 2 -62 80 -151 172
-159 166 -162 168 -196 162 -29 -5 -33 -4 -28 12 7 25 10 152 3 159 -5 5 -15
-77 -20 -166 -2 -35 -2 -35 38 -32 39 3 43 0 170 -127 71 -72 127 -132 124
-135 -4 -5 -117 65 -266 164 -68 45 -86 62 -99 97 -16 40 -15 47 5 126 29 115
16 147 -59 147 -15 0 -37 -8 -49 -17 l-21 -18 26 -49 c22 -41 25 -58 21 -98
-7 -54 -43 -116 -59 -100 -6 6 -4 21 6 40 22 42 21 115 -1 134 -21 18 -73 29
-73 16 0 -5 -4 -7 -8 -4 -4 3 -7 48 -6 101 1 70 -2 100 -12 110 -23 22 -16 49
20 84 27 26 40 32 67 29 28 -2 35 1 37 18 5 33 -34 74 -72 74 -35 0 -62 -23
-88 -74 l-15 -29 -7 37 c-10 53 -39 79 -79 70 -31 -6 -31 -6 -16 17 22 33 32
33 69 3 26 -23 35 -25 49 -16 9 7 31 22 49 33 l32 21 -2 121 -2 122 -3 -107
c-4 -107 -4 -107 -33 -125 -17 -9 -30 -21 -30 -25 0 -4 -7 -8 -15 -8 -13 0
-15 59 -15 465 0 255 4 466 9 469 8 5 7 54 -2 62 -6 6 -44 -182 -58 -289 -7
-49 -15 -83 -19 -75 -4 7 -13 78 -19 158 -7 80 -16 160 -19 178 -4 18 -6 -191
-5 -465 2 -460 -3 -566 -21 -388 -8 80 -27 116 -37 69 -4 -16 -7 -48 -8 -71
-2 -70 -21 -62 -21 9 0 35 -5 69 -11 75 -6 6 -15 63 -20 127 -10 142 -47 357
-63 373 -6 6 -9 -5 -36 -140 -11 -54 -23 -148 -26 -210 -4 -62 -13 -127 -20
-146 -8 -18 -14 -53 -14 -77 0 -24 -4 -44 -9 -44 -11 0 -18 97 -26 335 -6 184
-33 527 -43 556 -4 10 -6 -206 -4 -479 3 -454 2 -496 -13 -481 -13 13 -17 60
-22 307 -3 160 -9 289 -13 287 -4 -3 -10 24 -13 58 -9 89 -39 268 -44 263 -3
-2 6 -69 18 -148 18 -115 23 -199 27 -435 l4 -292 -29 -25 c-15 -14 -31 -26
-35 -26 -5 0 -8 216 -8 481 0 264 4 478 8 475 5 -3 6 8 4 25 -4 30 -7 34 -16
21z m366 -812 c3 -63 2 -144 -2 -180 -6 -59 -7 -54 -8 51 -1 64 -4 172 -7 240
-3 92 -2 109 4 64 5 -33 11 -112 13 -175z m-206 -237 c-10 -10 -19 5 -10 18 6
11 8 11 12 0 2 -7 1 -15 -2 -18z m314 7 c0 -5 -4 -10 -10 -10 -5 0 -10 5 -10
10 0 6 5 10 10 10 6 0 10 -4 10 -10z m-20 -126 c0 -8 -6 -14 -14 -14 -16 0
-29 27 -20 41 8 13 34 -9 34 -27z m-260 12 c0 -15 -18 -31 -26 -23 -7 7 7 37
17 37 5 0 9 -6 9 -14z m-90 -37 c8 -30 8 -45 1 -52 -6 -6 -12 -29 -12 -51 l-1
-41 -12 47 c-6 26 -17 53 -23 60 -16 15 -16 33 -3 59 17 31 38 22 50 -22z
m464 9 c8 -21 6 -32 -7 -46 -9 -10 -17 -29 -17 -43 0 -13 -5 -31 -10 -39 -7
-11 -10 -5 -10 23 0 21 -4 46 -9 55 -4 10 -4 32 1 50 11 40 38 40 52 0z m-194
-65 c0 -13 -4 -23 -10 -23 -5 0 -10 17 -10 38 0 27 3 33 10 22 5 -8 10 -25 10
-37z m-145 -23 c3 -10 15 -20 25 -23 11 -3 27 -21 35 -41 9 -20 17 -36 20 -36
2 0 14 18 25 40 11 22 27 40 35 40 9 0 20 11 25 24 15 39 39 42 52 6 12 -32
-8 -57 -48 -58 -46 -2 -55 -10 -75 -70 l-16 -46 -11 45 c-14 56 -26 67 -77 71
-37 3 -40 5 -43 37 -5 54 37 62 53 11z m-196 -55 c11 -24 42 -73 70 -107 52
-65 59 -78 40 -78 -33 0 -139 157 -139 206 0 35 6 30 29 -21z m441 -48 c-12
-31 -26 -59 -31 -62 -16 -10 -10 18 11 53 11 18 20 41 20 51 0 11 3 28 7 38 7
17 8 16 11 -3 2 -11 -7 -46 -18 -77z m117 1 c-43 -81 -108 -151 -124 -134 -3
2 19 35 48 73 29 37 62 88 73 113 19 41 21 43 24 19 2 -14 -8 -46 -21 -71z
m-447 53 c0 -17 9 -46 21 -65 11 -20 19 -41 16 -48 -2 -7 -13 5 -25 27 -26 51
-39 115 -23 115 6 0 11 -13 11 -29z m93 -104 c6 -22 6 -22 -14 2 -22 27 -26
49 -5 32 8 -6 16 -22 19 -34z m162 12 c-9 -17 -19 -29 -21 -26 -7 7 18 57 28
57 5 0 1 -14 -7 -31z m215 -104 c0 -19 -4 -37 -10 -40 -6 -4 -10 12 -10 40 0
28 4 44 10 40 6 -3 10 -21 10 -40z m-580 13 c0 -13 -5 -30 -10 -38 -7 -11 -10
-5 -10 23 0 20 5 37 10 37 6 0 10 -10 10 -22z m632 -58 c-14 -37 -20 -10 -8
40 10 42 11 43 14 15 1 -17 -1 -41 -6 -55z m-416 22 c-10 -10 -29 15 -21 28 6
9 10 8 17 -4 6 -10 7 -20 4 -24z m138 19 c3 -5 -1 -14 -9 -21 -13 -10 -15 -9
-15 9 0 21 14 28 24 12z m136 -96 c0 -36 -18 -105 -28 -106 -4 0 -15 -2 -24
-4 -10 -2 -39 -5 -65 -7 -43 -3 -48 -1 -51 19 -3 17 3 26 21 32 14 6 28 14 31
19 9 15 -5 51 -23 55 -9 3 0 5 20 6 20 0 38 -1 41 -4 3 -3 2 -22 -2 -43 -8
-44 -3 -62 16 -62 26 0 47 47 41 94 -4 24 -3 46 0 50 10 10 23 -16 23 -49z
m-406 4 c-8 -50 11 -91 40 -87 18 3 20 9 17 54 l-2 51 30 -5 c27 -4 28 -6 16
-19 -26 -25 -15 -58 20 -64 14 -3 20 -12 20 -29 0 -19 -5 -24 -20 -22 -11 2
-38 3 -60 2 -22 0 -45 3 -51 7 -19 14 -35 80 -28 117 9 50 26 45 18 -5z m545
-6 c0 -25 -1 -25 -8 -8 -5 11 -7 23 -4 28 8 14 13 7 12 -20z m-759 -74 c7 -11
9 -24 5 -27 -7 -7 -35 25 -35 40 0 16 19 8 30 -13z m642 -41 c-7 -7 -12 -8
-12 -2 0 14 12 26 19 19 2 -3 -1 -11 -7 -17z m157 -8 c-6 -16 -15 -30 -20 -30
-5 0 -3 14 6 30 9 17 17 30 20 30 2 0 -1 -13 -6 -30z m-869 -64 c0 -6 -16 -27
-35 -46 -19 -19 -35 -30 -35 -26 0 8 27 61 44 83 10 15 26 8 26 -11z m850 -56
c0 -46 21 -76 65 -90 38 -12 31 4 99 -235 13 -44 31 -108 41 -143 10 -34 16
-64 14 -66 -2 -3 -24 34 -49 82 -24 48 -81 158 -127 245 -74 140 -83 164 -83
211 0 29 3 56 7 60 13 13 33 -27 33 -64z m-715 39 c4 -12 9 -58 10 -103 2 -45
6 -92 9 -106 5 -20 -9 -45 -79 -135 -47 -60 -108 -140 -137 -178 -28 -37 -53
-66 -55 -63 -2 2 49 109 114 237 l117 234 -2 68 c-3 66 10 89 23 46z m864 -28
c23 -27 41 -51 41 -55 0 -4 -100 54 -119 70 -2 2 -1 10 2 19 11 27 34 16 76
-34z m-513 -96 c17 23 19 2 3 -27 -11 -21 -12 -21 -25 -3 -8 10 -14 26 -14 34
1 13 3 12 12 -3 11 -19 11 -19 24 -1z m278 -240 c36 -120 64 -221 62 -222 -2
-2 -40 77 -84 175 -83 182 -88 202 -66 271 9 29 24 -8 88 -224z m-194 63 c0
-23 -28 -183 -40 -228 -8 -30 -9 -27 -5 20 15 164 17 247 6 254 -6 4 -11 13
-11 19 1 19 50 -46 50 -65z"/>
<path d="M1392 2750 c0 -19 2 -27 5 -17 2 9 2 25 0 35 -3 9 -5 1 -5 -18z"/>
<path d="M1561 2764 c-1 -12 8 -81 19 -155 11 -74 24 -195 28 -269 7 -105 9
-118 11 -60 0 41 -4 125 -10 185 -11 115 -46 335 -48 299z"/>
<path d="M1032 2690 c0 -19 2 -27 5 -17 2 9 2 25 0 35 -3 9 -5 1 -5 -18z"/>
<path d="M1382 2630 c0 -19 2 -27 5 -17 2 9 2 25 0 35 -3 9 -5 1 -5 -18z"/>
<path d="M1023 2585 c0 -22 2 -30 4 -17 2 12 2 30 0 40 -3 9 -5 -1 -4 -23z"/>
<path d="M1373 2485 c0 -33 2 -45 4 -27 2 18 2 45 0 60 -2 15 -4 0 -4 -33z"/>
<path d="M1364 2255 c0 -66 1 -92 3 -57 2 34 2 88 0 120 -2 31 -3 3 -3 -63z"/>
</g>
</svg>
