<?xml version="1.0" standalone="no"?>
<!DOCTYPE svg PUBLIC "-//W3C//DTD SVG 20010904//EN"
 "http://www.w3.org/TR/2001/REC-SVG-20010904/DTD/svg10.dtd">
<svg version="1.0" xmlns="http://www.w3.org/2000/svg"
 width="244.000000pt" height="305.000000pt" viewBox="0 0 244.000000 305.000000"
 preserveAspectRatio="xMidYMid meet">
<metadata>
Created by potrace 1.16, written by Peter Selinger 2001-2019
</metadata>
<g transform="translate(0.000000,305.000000) scale(0.100000,-0.100000)"
fill="#000000" stroke="none">
<path d="M971 2905 c-1 -5 -1 -235 -1 -510 l1 -500 -35 34 -35 34 -4 141 -3
141 -2 -158 -2 -158 36 -31 c40 -36 34 -60 -11 -40 -14 7 -32 12 -40 12 -25 0
-55 -38 -55 -70 0 -27 3 -30 32 -30 42 0 88 -43 88 -82 0 -15 -5 -28 -11 -28
-18 0 -5 -131 16 -163 16 -25 16 -29 1 -52 -29 -44 -47 -26 -27 27 11 31 -4
68 -28 68 -30 0 -51 -11 -51 -26 0 -10 -6 -8 -21 7 -30 30 -89 23 -107 -13
-11 -24 -10 -38 4 -95 19 -74 20 -123 3 -166 -10 -24 -205 -180 -304 -243
l-30 -19 23 30 c13 16 67 80 120 142 92 106 99 112 132 110 l35 -2 -4 85 c-2
47 -7 94 -12 105 -6 13 -8 -13 -5 -72 l3 -92 -27 6 c-23 4 -32 -1 -56 -34 -16
-21 -45 -56 -65 -78 -68 -75 -207 -240 -205 -242 2 -2 210 80 264 104 19 8 14
-15 -10 -47 -12 -16 -19 -32 -16 -35 5 -5 65 25 195 96 77 43 88 40 103 -28 8
-32 6 -36 -24 -54 -31 -18 -33 -23 -95 -281 -87 -359 -84 -338 -35 -265 64 93
127 178 130 174 2 -2 -3 -41 -11 -86 -9 -46 -14 -88 -12 -94 4 -12 228 401
229 423 1 8 -3 32 -7 53 -7 37 -7 37 27 37 46 0 83 -19 103 -53 16 -27 16 -29
-9 -62 -31 -40 -36 17 54 -545 11 -69 20 -129 20 -134 0 -5 2 -7 4 -5 5 4 22
109 81 493 l25 159 -25 33 c-31 40 -31 43 0 76 28 30 59 42 96 36 22 -3 24 -7
21 -55 -3 -45 2 -62 41 -135 149 -276 197 -361 197 -349 0 8 -7 49 -16 92 -25
123 -17 124 65 8 42 -60 71 -93 68 -79 -3 14 -33 144 -68 289 -62 255 -65 264
-91 273 -23 8 -28 16 -28 41 0 18 9 43 19 56 l18 24 73 -41 c39 -23 74 -42 78
-42 3 0 37 -18 75 -41 38 -22 70 -39 73 -37 2 3 -10 25 -26 51 -16 26 -25 47
-19 47 5 0 49 -16 97 -36 116 -48 132 -54 132 -49 0 2 -33 42 -72 88 -40 47
-106 124 -147 171 -63 74 -78 86 -98 81 -23 -5 -23 -4 -24 87 l-2 93 -8 -76
c-4 -42 -14 -91 -22 -110 -13 -30 -16 -32 -23 -15 -4 11 -2 44 5 75 24 106 25
150 6 171 -20 22 -55 26 -85 10 -13 -7 -21 -7 -25 0 -10 16 -59 11 -71 -7 -6
-10 -8 -27 -3 -38 4 -11 8 -30 8 -43 l1 -23 -29 22 -29 21 19 43 c29 66 35
131 15 154 -33 36 25 117 75 107 27 -5 29 -4 29 28 0 44 -27 68 -73 64 -51 -3
-57 10 -21 40 l31 27 -8 250 c-9 279 -20 411 -50 595 -18 112 -28 151 -30 124
0 -5 -2 -19 -5 -32 -2 -14 0 -21 6 -17 7 4 10 -63 9 -197 -1 -217 -12 -218
-25 -3 -4 65 -13 142 -19 170 -12 49 -13 47 -14 -70 -1 -66 -5 -196 -10 -290
-6 -93 -13 -251 -16 -350 -6 -156 -9 -177 -21 -160 -9 12 -14 47 -15 94 0 49
-3 69 -8 56 l-8 -20 -5 20 c-5 16 -6 17 -7 3 0 -10 -5 -18 -10 -18 -5 0 -11 8
-13 18 -3 9 -9 -17 -15 -58 l-10 -75 -3 80 c-4 139 -10 217 -25 337 -20 157
-35 225 -45 207 -18 -31 -50 -294 -57 -459 -7 -174 -7 -175 -18 -102 -8 59
-12 71 -22 61 -11 -11 -13 -10 -13 5 0 9 -4 15 -9 11 -13 -8 -19 52 -25 260
-6 171 -10 223 -38 445 -9 77 -13 90 -19 66 -5 -16 -6 -32 -4 -36 9 -15 14
-240 5 -245 -6 -4 -10 27 -10 79 0 46 -4 86 -8 88 -5 2 -16 37 -24 78 -9 41
-16 71 -17 65z m259 -855 l0 -441 -22 20 c-21 20 -21 23 -15 290 5 241 25 571
34 571 2 0 3 -198 3 -440z m207 -18 c-1 -53 -3 -7 -3 103 0 110 2 154 3 97 2
-57 2 -147 0 -200z m-23 -145 c13 -20 6 -28 -21 -21 -15 4 -19 11 -16 25 6 22
22 21 37 -4z m-320 -3 c8 -20 8 -24 -1 -24 -17 0 -35 19 -29 29 10 16 23 14
30 -5z m-74 -20 c0 -8 -7 -14 -15 -14 -15 0 -21 21 -9 33 10 9 24 -2 24 -19z
m452 1 c0 -5 -5 -11 -11 -13 -6 -2 -11 4 -11 13 0 9 5 15 11 13 6 -2 11 -8 11
-13z m-75 -124 c15 -19 17 -67 3 -76 -5 -3 -10 -21 -10 -38 0 -51 -10 -58 -54
-45 -35 11 -40 10 -57 -11 -10 -13 -24 -41 -30 -64 l-11 -41 -21 54 c-27 66
-45 79 -88 63 -41 -16 -49 -10 -49 37 0 21 -4 42 -10 45 -5 3 -10 18 -10 33 1
26 1 26 18 -8 15 -30 23 -35 51 -36 25 0 35 -5 37 -18 1 -10 12 -24 23 -32 10
-8 25 -31 32 -51 l12 -38 18 43 c10 23 25 45 34 48 8 3 15 17 15 29 0 21 4 23
33 18 38 -6 54 8 59 51 3 25 -1 29 -26 32 -33 3 -40 9 -32 22 8 13 48 2 63
-17z m-259 7 c-6 -17 -50 -17 -55 0 -3 8 6 12 27 12 21 0 30 -4 28 -12z m-138
-204 c10 -38 17 -70 16 -72 -7 -6 -46 99 -46 124 0 40 8 26 30 -52z m495 40
c-8 -46 -24 -88 -30 -82 -3 3 -1 18 4 34 5 16 12 41 15 57 9 40 19 33 11 -9z
m-348 -62 c12 -8 33 -55 33 -74 0 -16 -40 22 -56 54 -15 29 -5 38 23 20z m213
0 c0 -5 -16 -26 -36 -48 l-35 -39 6 30 c4 17 14 38 22 48 17 18 43 23 43 9z
m-533 -89 c-3 -10 -5 -4 -5 12 0 17 2 24 5 18 2 -7 2 -21 0 -30z m833 -23 c0
-42 -20 -133 -32 -145 -7 -7 -8 0 -4 20 4 17 9 58 13 93 6 63 23 87 23 32z
m-851 -42 c0 -45 -3 -57 -9 -43 -16 36 -11 105 7 105 2 0 3 -28 2 -62z m188 5
c-3 -10 -5 -2 -5 17 0 19 2 27 5 18 2 -10 2 -26 0 -35z m479 -1 c-12 -11 -18
7 -10 30 l8 23 4 -23 c2 -13 1 -26 -2 -30z m-331 18 c4 -6 15 -8 26 -5 15 5
19 1 19 -14 0 -12 -3 -21 -6 -21 -12 0 -64 34 -64 42 0 12 18 10 25 -2z m205
2 c0 -8 -52 -42 -64 -42 -3 0 -6 6 -6 13 0 7 15 18 33 24 17 5 33 11 35 12 1
0 2 -3 2 -7z m-214 -89 c16 -4 19 -10 16 -35 -4 -24 1 -35 22 -52 18 -14 25
-27 21 -38 -9 -24 -34 -30 -52 -13 -11 11 -25 14 -51 9 -21 -4 -41 -7 -46 -8
-6 0 -12 7 -14 17 -3 13 2 18 15 17 41 -5 43 -2 36 62 -6 58 -5 61 13 53 10
-4 28 -10 40 -12z m252 -45 l-3 -63 30 0 c20 0 30 -5 30 -15 0 -15 -9 -16 -71
-4 -21 4 -36 1 -47 -10 -8 -9 -22 -13 -30 -10 -33 12 -30 64 3 64 23 0 32 24
20 54 -8 22 -6 25 28 34 20 6 39 10 40 11 2 1 2 -27 0 -61z m-538 5 c0 -7 -4
-13 -10 -13 -5 0 -10 12 -10 28 0 21 2 24 10 12 5 -8 10 -21 10 -27z m115 -71
c-8 -9 -44 78 -39 93 5 11 12 -1 25 -37 9 -29 16 -54 14 -56z m560 29 c-23
-45 -26 -38 -7 17 9 27 18 40 20 30 2 -9 -4 -30 -13 -47z m384 -105 c67 -54
124 -102 127 -107 5 -9 -140 51 -174 72 -17 11 -99 123 -111 153 -6 14 16 -2
158 -118z m-1162 20 c-2 -6 -11 -12 -20 -14 -11 -2 -14 2 -10 17 3 12 11 17
19 14 8 -3 13 -11 11 -17z m994 -9 c6 -13 23 -31 37 -40 31 -18 104 -88 99
-93 -7 -8 -217 116 -217 128 0 10 32 27 53 28 9 0 22 -11 28 -23z m-812 -38
c16 -47 13 -90 -7 -113 -10 -12 -24 -43 -31 -71 -13 -53 -171 -419 -178 -412
-4 4 78 340 98 405 8 23 22 38 47 50 31 15 38 23 45 62 4 25 6 60 4 78 -4 41
8 41 22 1z m-276 -44 c-33 -29 -52 -33 -32 -7 22 29 54 52 57 41 2 -5 -9 -21
-25 -34z m892 -14 c-4 -28 -11 -51 -16 -51 -12 0 -11 26 2 73 14 53 23 40 14
-22z m-344 17 c1 -40 21 -100 36 -105 5 -2 15 11 20 29 7 20 11 25 12 14 1
-10 -9 -34 -21 -54 l-21 -35 -10 24 c-16 43 -35 159 -26 159 5 0 9 -15 10 -32z
m99 28 c0 -2 -7 -7 -16 -10 -8 -3 -12 -2 -9 4 6 10 25 14 25 6z m183 -186 c-2
-43 2 -60 21 -84 13 -17 34 -53 48 -81 28 -55 82 -215 75 -222 -8 -8 -177 335
-177 360 0 44 12 88 24 84 7 -3 10 -25 9 -57z m-502 23 c-8 -15 -10 -15 -11
-2 0 17 10 32 18 25 2 -3 -1 -13 -7 -23z m248 -295 l-1 -273 -18 120 c-9 66
-23 165 -30 221 l-13 101 29 51 c16 29 30 52 32 52 1 0 2 -123 1 -272z m437
72 c71 -161 84 -190 79 -190 -2 0 -29 37 -60 82 -55 79 -75 130 -89 228 l-7
45 15 -30 c8 -16 36 -77 62 -135z m-509 58 c-3 -7 -5 -2 -5 12 0 14 2 19 5 13
2 -7 2 -19 0 -25z m-278 -135 c-17 -48 -32 -89 -34 -92 -12 -11 9 98 26 137
32 76 38 44 8 -45z"/>
<path d="M1432 2890 c0 -14 2 -19 5 -12 2 6 2 18 0 25 -3 6 -5 1 -5 -13z"/>
<path d="M1422 2835 c0 -16 2 -22 5 -12 2 9 2 23 0 30 -3 6 -5 -1 -5 -18z"/>
<path d="M942 2755 c0 -16 2 -22 5 -12 2 9 2 23 0 30 -3 6 -5 -1 -5 -18z"/>
<path d="M1412 2745 c0 -16 2 -22 5 -12 2 9 2 23 0 30 -3 6 -5 -1 -5 -18z"/>
<path d="M921 2627 c-7 -51 -14 -155 -15 -232 -2 -77 -2 -113 0 -80 2 33 11
136 20 228 9 92 14 170 12 172 -2 2 -10 -37 -17 -88z"/>
<path d="M1403 2660 c0 -25 2 -35 4 -22 2 12 2 32 0 45 -2 12 -4 2 -4 -23z"/>
<path d="M1392 2520 c0 -14 2 -19 5 -12 2 6 2 18 0 25 -3 6 -5 1 -5 -13z"/>
<path d="M1384 2275 c0 -55 1 -76 3 -47 2 29 2 74 0 100 -2 26 -3 2 -3 -53z"/>
</g>
</svg>
