<?xml version="1.0" standalone="no"?>
<!DOCTYPE svg PUBLIC "-//W3C//DTD SVG 20010904//EN"
 "http://www.w3.org/TR/2001/REC-SVG-20010904/DTD/svg10.dtd">
<svg version="1.0" xmlns="http://www.w3.org/2000/svg"
 width="244.000000pt" height="305.000000pt" viewBox="0 0 244.000000 305.000000"
 preserveAspectRatio="xMidYMid meet">
<metadata>
Created by potrace 1.16, written by Peter Selinger 2001-2019
</metadata>
<g transform="translate(0.000000,305.000000) scale(0.100000,-0.100000)"
fill="#000000" stroke="none">
<path d="M884 2886 c-3 -14 -2 -32 4 -39 13 -16 15 -934 2 -942 -6 -3 -28 9
-51 27 l-41 33 6 170 c6 174 19 340 36 455 21 136 23 155 16 149 -13 -12 -45
-242 -55 -399 -11 -153 -16 -409 -9 -414 1 -1 26 -18 54 -38 l52 -36 22 23
c12 13 35 29 51 35 l29 12 0 112 c0 253 -28 540 -71 741 -32 150 -34 154 -45
111z"/>
<path d="M1578 2401 c1 -302 -1 -501 -7 -501 -5 0 -28 12 -51 28 l-42 27 6
190 c8 202 26 399 52 552 9 52 14 96 11 99 -16 16 -62 -344 -74 -576 -11 -203
-6 -298 15 -305 9 -3 32 -19 51 -35 l34 -30 33 29 c18 16 42 32 53 36 20 6 21
14 21 118 0 261 -44 670 -88 813 -16 55 -17 41 -14 -445z"/>
<path d="M1181 2794 c0 -11 3 -14 6 -6 3 7 2 16 -1 19 -3 4 -6 -2 -5 -13z"/>
<path d="M862 2780 c0 -14 2 -19 5 -12 2 6 2 18 0 25 -3 6 -5 1 -5 -13z"/>
<path d="M1269 2640 l-1 -145 -17 55 c-9 30 -19 48 -22 40 -3 -8 -2 -99 1
-203 3 -120 1 -188 -5 -190 -12 -4 -15 -514 -4 -566 6 -29 6 -32 -6 -20 -17
17 -21 78 -11 179 7 70 6 73 -8 50 l-15 -25 -1 28 c0 16 -4 26 -10 22 -6 -4
-10 8 -10 29 0 19 5 38 10 41 6 4 10 -7 10 -26 0 -18 3 -29 6 -26 4 4 6 104 5
224 -1 155 3 244 14 308 18 109 18 144 -1 90 -12 -37 -13 -29 -11 107 1 81 -2
150 -6 154 -4 4 -7 -76 -8 -177 0 -101 -4 -220 -9 -264 -5 -44 -12 -165 -16
-268 -7 -183 -17 -236 -29 -160 -42 251 -49 260 -75 109 -17 -101 -14 -118 25
-143 39 -26 53 -71 36 -116 -11 -27 -43 -37 -56 -17 -3 6 -13 10 -22 10 -12 0
-14 -6 -8 -27 15 -62 61 -81 89 -38 24 37 35 31 33 -17 -2 -32 2 -43 13 -43 8
0 16 -10 18 -22 4 -26 3 -27 -33 -13 -19 7 -35 6 -60 -5 -42 -17 -45 -33 -7
-40 47 -10 57 -20 60 -64 l3 -41 -35 21 c-35 21 -103 94 -125 136 -6 12 -11
32 -11 45 0 13 -9 31 -20 41 -27 23 -25 33 10 69 28 27 36 30 75 25 43 -4 45
-3 45 22 -1 74 -103 103 -150 43 -11 -13 -20 -31 -20 -38 0 -28 -20 -23 -36 8
-9 18 -24 38 -33 43 -65 40 -141 11 -141 -53 0 -16 9 -20 50 -24 82 -8 133
-70 90 -110 -19 -17 -21 -27 -16 -62 9 -54 38 -113 82 -164 39 -45 37 -57 -10
-101 -37 -35 -43 -77 -16 -106 49 -53 122 -39 100 19 -5 15 -10 37 -10 50 0
40 16 44 88 23 l68 -20 -12 -86 c-7 -47 -13 -95 -14 -106 l-1 -20 -9 20 c-4
11 -6 30 -3 42 5 21 2 23 -37 23 -23 0 -58 -7 -76 -16 -45 -21 -72 -10 -115
48 -25 35 -30 50 -25 77 3 19 1 52 -4 75 -5 22 -12 53 -15 69 -5 23 -10 27
-39 27 -57 0 -84 -43 -67 -105 5 -19 41 -89 80 -154 93 -156 93 -156 -26 -357
-49 -82 -113 -191 -143 -243 -29 -52 -55 -90 -57 -85 -2 6 27 104 65 219 l68
209 47 15 c38 12 48 20 57 47 27 80 10 139 -61 224 -44 52 -78 123 -79 162 0
15 14 49 30 75 26 41 28 49 16 61 -8 8 -37 17 -64 20 -41 4 -53 1 -71 -17 -26
-26 -26 -51 0 -129 24 -70 20 -115 -11 -155 -16 -20 -140 -97 -305 -187 -22
-12 -45 -27 -52 -32 -7 -5 -17 -8 -24 -6 -6 2 53 61 130 132 l142 129 46 -7
46 -6 -7 96 c-9 135 -28 160 -23 31 l4 -97 -32 6 c-31 5 -43 -3 -224 -166
-106 -95 -190 -175 -187 -177 5 -5 74 16 313 94 157 51 173 59 173 79 0 32 14
37 58 23 63 -21 109 -58 127 -101 18 -46 11 -62 -34 -71 -28 -6 -32 -13 -71
-139 -23 -73 -61 -196 -86 -272 -52 -163 -54 -183 -17 -141 14 17 72 80 128
140 242 261 247 267 241 300 -14 76 -21 70 85 70 89 0 98 -2 132 -28 20 -15
37 -32 37 -37 0 -5 -14 -25 -32 -45 l-31 -36 21 -103 c12 -57 23 -134 23 -172
1 -53 3 -61 8 -34 l7 35 7 -40 c12 -70 70 -335 72 -333 4 4 66 302 74 348 l5
35 7 -35 c5 -28 7 -22 8 30 0 36 10 112 21 170 l20 104 -32 33 c-29 29 -30 35
-19 56 21 40 72 57 166 57 46 0 86 -4 90 -10 3 -5 -1 -25 -9 -43 -13 -31 -12
-37 5 -63 10 -16 38 -49 62 -74 24 -25 91 -97 148 -160 142 -159 179 -196 179
-183 0 6 -36 125 -81 265 -44 139 -83 263 -86 274 -3 14 -18 25 -45 33 -38 12
-39 14 -32 44 12 56 49 93 122 122 50 20 72 14 72 -18 0 -23 13 -28 178 -82
97 -31 201 -65 230 -76 76 -27 94 -25 57 8 -16 14 -70 63 -120 108 -232 212
-237 216 -272 210 l-32 -6 6 91 c7 107 -11 126 -21 21 -3 -37 -13 -84 -21
-104 -14 -35 -14 -37 8 -57 12 -12 47 -35 77 -53 104 -59 311 -189 307 -193
-2 -2 -68 19 -148 47 -79 28 -163 58 -187 66 -43 15 -43 16 -37 53 5 32 3 39
-13 44 -45 15 -55 106 -22 201 11 32 20 66 20 77 0 52 -101 80 -150 40 l-22
-18 31 -49 c17 -27 31 -58 31 -68 0 -45 -26 -99 -77 -163 -64 -81 -82 -118
-90 -194 -5 -54 -4 -57 72 -194 42 -77 102 -182 132 -234 29 -52 52 -96 49
-99 -5 -5 -17 8 -185 202 -111 128 -121 143 -115 170 3 17 7 64 9 106 3 86 19
126 105 264 41 66 50 88 50 127 0 37 -5 50 -22 62 -27 19 -62 21 -75 4 -12
-16 -26 -90 -25 -138 1 -56 -5 -73 -40 -112 -41 -45 -68 -54 -107 -34 -17 9
-48 16 -71 16 -39 0 -40 -1 -41 -37 -1 -33 -2 -35 -8 -13 -4 14 -13 24 -18 23
-16 -3 -27 68 -12 77 7 5 10 21 6 42 l-5 35 66 21 c58 18 69 19 81 6 13 -12
13 -21 2 -65 -11 -43 -11 -53 0 -60 22 -15 72 -1 97 27 33 38 33 36 -43 141
-15 20 -14 24 21 70 20 26 45 66 55 88 23 50 25 130 4 139 -25 9 -17 37 21 73
32 29 43 34 78 31 37 -2 41 0 44 22 3 30 -28 67 -65 76 -36 9 -88 -21 -108
-62 -9 -19 -19 -34 -23 -34 -5 0 -14 16 -21 35 -31 88 -161 76 -161 -15 0 -29
0 -30 44 -24 39 6 48 3 70 -19 29 -29 33 -58 11 -77 -8 -7 -15 -23 -15 -37 0
-47 -58 -125 -131 -178 l-48 -34 5 41 c4 48 19 68 48 68 34 0 52 16 38 33 -19
22 -63 27 -94 11 -27 -14 -28 -13 -28 8 0 13 8 28 19 35 14 9 17 20 14 47 -4
42 8 46 31 11 9 -14 25 -25 36 -25 23 0 50 36 50 68 0 19 -4 23 -17 17 -37
-16 -56 -10 -66 18 -16 48 -1 93 38 116 39 23 40 27 24 134 -11 75 -23 107
-34 95 -4 -4 -16 -61 -28 -127 -11 -66 -23 -118 -27 -116 -4 2 -10 84 -14 182
-3 98 -14 230 -22 293 -11 81 -15 162 -12 272 3 87 1 163 -4 170 -4 7 -8 -52
-9 -132z m-89 -941 c0 -44 -4 -68 -10 -64 -18 11 -12 135 7 135 2 0 3 -32 3
-71z m-252 -128 c28 -62 112 -145 175 -174 43 -20 64 -47 35 -47 -22 1 -96 38
-135 67 -47 36 -113 138 -113 175 0 41 12 34 38 -21z m649 16 c-7 -47 -61
-131 -105 -165 -35 -27 -124 -72 -143 -72 -24 0 -5 30 25 40 51 17 158 120
187 179 27 58 44 66 36 18z m-370 -39 c-3 -7 -5 -2 -5 12 0 14 2 19 5 13 2 -7
2 -19 0 -25z m65 7 c3 -13 1 -22 -3 -19 -9 5 -13 44 -5 44 2 0 6 -11 8 -25z
m-55 -47 c-3 -8 -6 -5 -6 6 -1 11 2 17 5 13 3 -3 4 -12 1 -19z m40 0 c-3 -8
-6 -5 -6 6 -1 11 2 17 5 13 3 -3 4 -12 1 -19z m-20 -25 c-3 -10 -5 -4 -5 12 0
17 2 24 5 18 2 -7 2 -21 0 -30z m70 -175 c-3 -7 -5 -2 -5 12 0 14 2 19 5 13 2
-7 2 -19 0 -25z m-170 -155 c-3 -10 -5 -2 -5 17 0 19 2 27 5 18 2 -10 2 -26 0
-35z m-20 -75 c-3 -8 -6 -5 -6 6 -1 11 2 17 5 13 3 -3 4 -12 1 -19z m52 -25
c0 -16 -3 -22 -6 -13 -3 8 -10 21 -16 28 -7 8 -5 12 7 12 11 0 16 -8 15 -27z
m161 18 c0 -5 -7 -11 -15 -15 -9 -3 -15 0 -15 9 0 8 7 15 15 15 8 0 15 -4 15
-9z m-143 -83 c-3 -7 -5 -2 -5 12 0 14 2 19 5 13 2 -7 2 -19 0 -25z m50 -80
c-3 -7 -5 -2 -5 12 0 14 2 19 5 13 2 -7 2 -19 0 -25z m-17 12 c0 -5 -2 -10 -4
-10 -3 0 -8 5 -11 10 -3 6 -1 10 4 10 6 0 11 -4 11 -10z m2 -222 c-1 -101 2
-214 6 -253 4 -38 5 -88 2 -110 -4 -35 -9 -22 -34 95 -45 210 -46 381 -3 434
11 14 23 24 25 21 2 -2 4 -86 4 -187z m-73 40 l-2 -83 -9 57 c-9 52 -5 108 7
108 3 0 4 -37 4 -82z"/>
<path d="M1182 805 c0 -16 2 -22 5 -12 2 9 2 23 0 30 -3 6 -5 -1 -5 -18z"/>
<path d="M1172 720 c0 -14 2 -19 5 -12 2 6 2 18 0 25 -3 6 -5 1 -5 -13z"/>
</g>
</svg>
