<?xml version="1.0" standalone="no"?>
<!DOCTYPE svg PUBLIC "-//W3C//DTD SVG 20010904//EN"
 "http://www.w3.org/TR/2001/REC-SVG-20010904/DTD/svg10.dtd">
<svg version="1.0" xmlns="http://www.w3.org/2000/svg"
 width="244.000000pt" height="305.000000pt" viewBox="0 0 244.000000 305.000000"
 preserveAspectRatio="xMidYMid meet">
<metadata>
Created by potrace 1.16, written by Peter Selinger 2001-2019
</metadata>
<g transform="translate(0.000000,305.000000) scale(0.100000,-0.100000)"
fill="#000000" stroke="none">
<path d="M890 2895 c0 -11 -3 -31 -6 -45 -4 -20 -3 -22 5 -10 8 11 11 -120 11
-462 0 -263 -3 -478 -6 -478 -3 0 -23 12 -45 28 l-39 27 0 135 c0 212 14 370
65 700 3 24 0 19 -10 -15 -39 -133 -74 -495 -75 -767 0 -79 2 -87 21 -93 11
-4 36 -20 55 -37 l34 -30 28 27 c15 15 38 31 51 36 l24 10 -6 237 c-6 257 -21
405 -62 607 -25 120 -45 178 -45 130z"/>
<path d="M1560 2886 c0 -8 -3 -23 -6 -33 -5 -15 -4 -15 5 -3 8 11 11 -120 11
-467 0 -266 -2 -483 -5 -483 -3 0 -24 12 -47 27 l-41 28 6 215 c6 198 22 374
47 509 10 54 12 106 4 85 -29 -69 -87 -759 -70 -828 3 -14 13 -26 20 -26 8 0
28 -11 44 -25 32 -26 57 -32 67 -15 4 6 23 21 42 33 l36 23 -2 155 c-3 264
-23 474 -66 684 -14 68 -25 127 -25 130 0 3 -4 5 -10 5 -5 0 -10 -6 -10 -14z"/>
<path d="M1542 2800 c0 -14 2 -19 5 -12 2 6 2 18 0 25 -3 6 -5 1 -5 -13z"/>
<path d="M1268 2699 c-3 -20 -4 -74 -1 -120 5 -75 -1 -104 -10 -53 -2 10 -7
26 -10 34 -3 8 -7 22 -10 30 -3 9 -9 1 -15 -20 -9 -31 -10 -26 -11 48 -1 50
-5 82 -11 82 -7 0 -9 -32 -4 -97 5 -72 2 -119 -9 -178 -19 -95 -37 -321 -37
-463 0 -102 -13 -137 -25 -64 -17 103 -37 198 -44 205 -10 10 -16 -13 -32
-122 -12 -84 -12 -85 12 -103 13 -10 29 -22 36 -28 18 -15 26 -72 13 -104 -8
-23 -14 -27 -33 -21 -45 13 -52 11 -49 -15 4 -29 29 -60 49 -60 8 0 24 11 37
25 32 35 40 31 32 -15 -6 -37 -4 -41 19 -50 18 -7 25 -17 25 -36 0 -26 -1 -26
-18 -11 -24 22 -64 25 -96 7 -36 -19 -33 -26 17 -38 24 -7 48 -20 55 -33 19
-29 29 -199 13 -199 -7 0 -19 -7 -28 -16 -14 -13 -14 -21 -2 -56 10 -33 14
-37 20 -22 6 14 8 11 8 -14 1 -26 -4 -34 -24 -42 -30 -11 -34 -46 -7 -66 14
-11 15 -13 2 -14 -26 0 -40 22 -40 62 0 37 -1 38 -35 38 -19 0 -53 -7 -75 -16
-49 -20 -77 -9 -117 42 -20 27 -24 46 -28 123 -6 112 -14 131 -60 131 -41 0
-65 -29 -65 -80 0 -34 8 -50 104 -215 71 -123 73 -118 -75 -372 -49 -83 -98
-169 -110 -190 -37 -67 -61 -104 -65 -100 -2 2 23 86 55 188 33 101 63 196 66
211 8 33 19 42 68 57 42 14 55 32 63 93 8 56 -11 101 -76 182 -79 100 -90 156
-44 234 l27 45 -23 19 c-25 20 -90 24 -121 8 -24 -13 -26 -69 -4 -130 19 -55
19 -124 -1 -155 -8 -13 -64 -52 -122 -86 -59 -35 -138 -81 -177 -104 -38 -23
-79 -45 -89 -48 -17 -7 -17 -6 -5 10 8 9 72 70 144 135 l130 119 48 -6 49 -6
-6 56 c-3 30 -9 81 -12 112 -5 46 -8 53 -16 39 -10 -18 -4 -128 9 -162 5 -15
1 -16 -31 -10 -36 7 -40 5 -149 -93 -62 -55 -150 -136 -197 -180 -70 -66 -80
-79 -55 -71 95 28 443 143 457 151 9 5 18 19 20 31 2 18 9 22 28 20 43 -4 114
-47 138 -82 32 -48 26 -80 -17 -94 -34 -11 -36 -14 -79 -151 -24 -77 -64 -204
-89 -283 -25 -79 -44 -145 -41 -147 2 -2 95 98 206 222 148 164 202 229 197
241 -4 10 -9 32 -12 51 l-6 33 95 -3 c85 -4 98 -7 131 -32 20 -15 37 -33 37
-40 0 -6 -14 -26 -32 -44 l-31 -33 16 -77 c9 -43 39 -188 67 -322 28 -135 52
-246 54 -248 3 -4 64 272 75 342 8 46 46 245 56 289 2 12 -7 29 -27 48 -67 63
1 118 148 118 l87 0 -7 -27 c-3 -16 -8 -38 -12 -50 -5 -17 12 -41 82 -120 181
-201 314 -342 314 -331 0 6 -22 81 -49 167 -84 268 -111 357 -111 369 0 7 -21
22 -46 32 -34 15 -44 24 -40 36 3 9 6 20 6 25 0 21 74 88 115 104 53 20 75 15
75 -18 0 -17 8 -26 33 -34 184 -63 440 -144 443 -140 2 2 -22 28 -53 57 -32
30 -87 81 -123 114 -188 176 -190 178 -226 171 l-34 -6 7 91 c8 114 -8 119
-25 8 -7 -46 -16 -96 -18 -113 -5 -29 -2 -32 195 -154 111 -68 200 -126 198
-128 -3 -3 -152 48 -315 108 -62 23 -62 23 -56 56 5 27 2 36 -21 55 -40 35
-44 99 -14 195 21 68 22 77 8 101 -11 21 -23 28 -55 30 -49 4 -94 -12 -94 -33
0 -9 11 -33 25 -53 45 -66 30 -130 -54 -234 -50 -62 -74 -115 -86 -193 -6 -44
0 -60 99 -235 165 -292 181 -324 128 -264 -109 123 -272 316 -272 322 0 4 4
57 10 117 9 117 14 129 98 267 66 109 75 163 36 202 -18 19 -73 21 -78 4 -19
-65 -31 -140 -24 -158 10 -28 -11 -68 -57 -109 -39 -34 -60 -38 -89 -16 -11 8
-39 15 -63 15 -42 0 -43 -1 -43 -34 0 -44 -9 -66 -26 -66 -19 0 -18 16 1 24
21 8 19 34 -5 48 -21 14 -28 72 -10 83 17 10 11 54 -9 64 -10 6 -22 7 -26 3
-14 -13 6 182 21 206 16 24 20 26 67 36 36 8 34 20 -7 40 -35 17 -59 14 -88
-12 -17 -14 -18 -13 -18 14 0 21 7 32 23 39 18 8 21 17 19 48 -4 43 3 46 30
12 24 -30 41 -32 68 -5 26 26 28 75 3 65 -42 -17 -52 -16 -63 5 -16 31 -6 102
17 117 54 36 53 32 42 118 -21 179 -36 170 -69 -41 -6 -38 -15 -73 -19 -77 -5
-5 -12 76 -15 180 -4 103 -12 220 -18 258 -6 39 -14 153 -17 255 -4 109 -9
170 -13 149z m-37 -831 c-2 -18 -8 -25 -17 -21 -8 3 -14 -1 -14 -8 0 -11 -3
-11 -10 1 -7 11 -10 6 -10 -20 0 -54 12 -110 21 -104 5 3 9 -9 9 -25 0 -17 -4
-31 -10 -31 -5 0 -10 -7 -10 -16 0 -9 -6 -14 -12 -12 -19 7 -21 101 -8 378 16
341 29 392 27 104 -1 -153 1 -227 8 -221 6 6 9 102 7 261 -2 138 0 280 5 316
6 47 9 -22 13 -255 3 -176 3 -332 1 -347z m-14 -120 c-3 -8 -6 -5 -6 6 -1 11
2 17 5 13 3 -3 4 -12 1 -19z m13 -95 c0 -41 -3 -54 -11 -46 -10 10 -3 103 7
103 2 0 4 -26 4 -57z m8 -140 c6 -2 12 7 12 19 0 12 2 19 5 16 8 -8 -6 -88
-15 -88 -10 0 -30 57 -29 79 1 11 3 10 7 -4 4 -11 13 -21 20 -22z m79 -345
c-3 -8 -6 -5 -6 6 -1 11 2 17 5 13 3 -3 4 -12 1 -19z m-16 -139 l-9 -54 -1 51
c0 28 2 54 6 57 12 13 13 0 4 -54z m-121 28 c0 -13 5 -28 12 -35 10 -9 8 -16
-5 -29 -16 -16 -17 -16 -17 4 0 11 -3 35 -6 52 -4 20 -3 31 5 31 6 0 11 -10
11 -23z m97 -94 c-3 -10 -5 -2 -5 17 0 19 2 27 5 18 2 -10 2 -26 0 -35z m-57
-39 c0 -8 -4 -12 -10 -9 -5 3 -10 10 -10 16 0 5 5 9 10 9 6 0 10 -7 10 -16z
m17 -6 c-3 -8 -6 -5 -6 6 -1 11 2 17 5 13 3 -3 4 -12 1 -19z m-9 -324 c1 -163
0 -295 -2 -293 -2 2 -14 55 -27 116 -22 108 -23 119 -11 275 13 168 19 211 31
204 3 -3 7 -138 9 -302z m-41 234 c-3 -8 -6 -5 -6 6 -1 11 2 17 5 13 3 -3 4
-12 1 -19z m-8 -93 c0 -33 -4 -80 -8 -105 l-7 -45 -13 55 c-24 107 -26 148 -5
171 17 19 19 19 25 2 4 -10 8 -45 8 -78z"/>
<path d="M741 1856 c-26 -14 -39 -37 -40 -68 -1 -15 8 -18 45 -18 39 0 51 -5
80 -34 37 -37 42 -57 19 -76 -37 -31 -7 -144 60 -226 19 -23 35 -46 35 -51 0
-5 -13 -22 -29 -37 -45 -43 -57 -80 -37 -111 25 -37 75 -55 105 -36 11 7 11
17 0 60 -11 44 -11 53 2 66 13 13 23 12 81 -7 55 -18 69 -19 82 -9 21 17 20
30 -1 38 -109 36 -185 98 -229 185 -24 47 -31 88 -16 88 4 0 18 -21 30 -46 38
-78 134 -169 200 -189 42 -12 23 35 -26 68 -55 37 -121 125 -129 171 -3 20
-12 41 -19 47 -23 19 -16 56 13 79 21 16 38 21 73 18 43 -3 45 -2 42 22 -9 63
-59 90 -120 64 -22 -9 -38 -25 -47 -49 -9 -19 -17 -35 -20 -35 -3 0 -11 16
-20 35 -10 24 -25 40 -49 50 -43 18 -54 18 -85 1z"/>
<path d="M1424 1851 c-30 -18 -51 -62 -39 -81 4 -6 24 -7 46 -4 35 6 44 3 70
-22 32 -31 37 -55 14 -74 -8 -7 -15 -21 -15 -32 0 -49 -100 -177 -151 -193
-19 -6 -34 -39 -24 -54 21 -34 179 100 216 183 23 54 44 62 34 14 -9 -44 -49
-111 -89 -151 -30 -30 -87 -63 -153 -88 -26 -10 -31 -37 -7 -46 8 -3 47 3 85
15 67 19 70 19 79 1 7 -12 6 -33 -2 -63 -16 -61 -5 -74 52 -57 69 21 78 66 25
135 -19 26 -35 50 -35 55 0 4 14 26 31 47 45 57 69 109 76 164 5 40 3 51 -11
56 -16 6 -21 30 -10 58 11 28 71 58 111 54 35 -3 38 -1 35 22 -9 68 -76 100
-130 61 -16 -11 -35 -34 -42 -51 -15 -36 -28 -38 -36 -6 -14 59 -81 88 -130
57z"/>
</g>
</svg>
