<?xml version="1.0" standalone="no"?>
<!DOCTYPE svg PUBLIC "-//W3C//DTD SVG 20010904//EN"
 "http://www.w3.org/TR/2001/REC-SVG-20010904/DTD/svg10.dtd">
<svg version="1.0" xmlns="http://www.w3.org/2000/svg"
 width="244.000000pt" height="305.000000pt" viewBox="0 0 244.000000 305.000000"
 preserveAspectRatio="xMidYMid meet">
<metadata>
Created by potrace 1.16, written by Peter Selinger 2001-2019
</metadata>
<g transform="translate(0.000000,305.000000) scale(0.100000,-0.100000)"
fill="#000000" stroke="none">
<path d="M1475 2838 c-9 -40 -21 -107 -25 -148 -7 -69 -7 -66 -7 47 0 68 -3
126 -6 130 -4 3 -7 2 -7 -3 0 -5 -9 -88 -20 -184 -11 -96 -23 -269 -27 -383
-3 -114 -10 -210 -15 -213 -4 -3 -8 1 -8 9 0 10 -7 13 -19 10 -15 -4 -20 -20
-28 -86 l-10 -82 -2 80 c-4 196 -40 538 -61 574 -18 33 -55 -239 -66 -489 l-8
-175 -9 87 c-8 75 -12 86 -28 85 -13 -1 -20 -13 -25 -42 l-8 -40 -7 35 c-5 28
-7 21 -8 -32 0 -37 -5 -70 -11 -73 -6 -4 -11 35 -12 107 l-2 113 -3 -105 c-2
-58 -8 -109 -13 -114 -7 -7 -9 74 -8 224 2 197 3 217 9 125 3 -60 4 -31 0 65
-3 96 -6 257 -6 358 0 100 -3 182 -7 182 -3 0 -9 -27 -13 -60 -4 -33 -10 -58
-14 -56 -4 3 -6 -7 -4 -22 2 -15 -1 -63 -6 -107 -9 -73 -9 -66 -8 78 1 86 -1
157 -4 157 -3 0 -11 -30 -17 -67 -40 -228 -62 -492 -62 -745 l0 -156 27 -20
c32 -24 23 -42 -22 -42 -39 0 -75 -37 -75 -77 0 -22 3 -24 25 -19 33 8 61 -7
81 -46 13 -25 14 -35 4 -54 -17 -30 -8 -130 15 -173 19 -38 19 -37 -19 -47
-29 -7 -29 -6 -23 29 9 56 -6 66 -93 64 -69 -2 -75 -4 -89 -28 -13 -24 -13
-35 3 -106 10 -43 17 -87 15 -96 -7 -33 -24 -18 -31 27 -23 135 -27 144 -24
49 l3 -93 -24 6 c-28 7 -27 8 -179 -176 -154 -187 -147 -175 -88 -151 27 10
71 29 98 40 27 12 51 19 54 17 2 -3 -5 -20 -17 -39 -11 -19 -21 -37 -21 -40 0
-8 294 145 298 155 12 28 47 -24 53 -77 3 -24 -1 -32 -23 -43 -15 -7 -29 -20
-32 -30 -8 -28 -73 -299 -101 -415 -14 -60 -25 -116 -25 -124 0 -9 28 26 61
76 34 50 64 90 66 87 2 -2 -3 -41 -11 -86 -26 -133 -35 -145 136 165 99 179
99 179 92 232 l-6 53 36 0 c44 0 91 -22 106 -49 14 -27 13 -35 -10 -61 -24
-28 -25 -65 -5 -186 8 -49 28 -181 45 -294 17 -112 33 -206 34 -208 2 -2 9 27
15 65 97 621 93 579 63 621 -29 40 -28 45 13 81 27 24 45 31 76 31 l41 0 -7
-50 c-6 -45 -3 -56 26 -108 18 -31 48 -86 67 -122 19 -36 48 -86 63 -113 16
-26 29 -50 29 -53 0 -3 11 -22 25 -42 28 -41 30 -36 13 38 -8 37 -14 47 -18
34 -5 -13 -15 6 -34 64 -16 46 -26 85 -23 88 9 9 27 -24 41 -77 9 -33 15 -44
16 -29 l0 25 21 -25 c11 -14 43 -58 70 -98 28 -41 53 -72 55 -69 3 2 -7 51
-20 108 -14 57 -44 182 -67 277 -39 162 -43 174 -70 188 -33 17 -37 40 -13 87
9 18 18 33 19 35 2 2 66 -29 144 -67 77 -39 143 -71 146 -71 2 0 -5 16 -17 35
-11 20 -19 38 -17 40 3 2 57 -18 122 -45 64 -27 117 -45 117 -42 -1 8 -51 69
-194 233 -84 96 -104 114 -126 112 l-26 -3 3 93 c2 69 0 83 -7 57 -7 -30 -13
-123 -11 -168 1 -9 11 -11 34 -7 31 6 36 2 132 -111 151 -176 151 -176 55
-110 -116 81 -217 162 -236 190 -26 40 -28 93 -8 173 17 67 17 77 3 101 -14
25 -19 27 -89 28 -102 1 -113 -6 -104 -62 7 -46 1 -52 -28 -30 -22 16 -22 26
-3 62 7 15 17 52 21 81 5 43 3 57 -11 73 -32 36 15 110 71 110 31 0 34 3 34
30 0 17 -9 39 -21 51 -17 17 -28 19 -65 13 -53 -8 -57 4 -12 40 l32 25 -3 208
c-1 114 -5 210 -7 213 -3 2 -4 -85 -3 -193 l1 -198 -29 -29 -30 -29 -7 462
c-4 254 -4 481 0 505 10 66 -1 49 -21 -30z m-206 -643 c6 -99 11 -263 11 -365
0 -173 -1 -187 -20 -203 -20 -17 -20 -16 -19 426 2 453 8 485 28 142z m-175
-301 c9 -23 8 -24 -26 -24 -30 0 -31 0 -13 20 22 24 31 25 39 4z m326 -14 c0
-4 -13 -10 -30 -12 -35 -5 -35 -5 -13 22 13 14 20 17 30 8 7 -6 13 -14 13 -18z
m60 -26 c0 -8 -4 -14 -9 -14 -11 0 -22 26 -14 34 9 9 23 -3 23 -20z m-460 1
c0 -8 -7 -15 -15 -15 -9 0 -12 6 -9 15 4 8 10 15 15 15 5 0 9 -7 9 -15z m120
-110 c0 -10 -9 -14 -30 -11 -26 3 -30 0 -30 -21 0 -54 46 -83 78 -51 9 9 12 5
12 -18 0 -18 7 -34 19 -41 11 -7 25 -29 32 -50 l12 -38 18 43 c10 23 25 45 34
48 9 4 15 19 15 37 0 24 3 28 12 19 30 -30 78 0 78 47 0 26 -3 28 -30 25 -22
-3 -30 1 -30 12 0 11 9 14 32 12 39 -4 68 -49 50 -78 -6 -9 -13 -38 -17 -64
-7 -46 -22 -67 -34 -49 -11 17 -49 25 -70 14 -11 -6 -28 -34 -39 -63 l-19 -52
-17 52 c-10 29 -26 57 -37 63 -21 11 -60 3 -70 -14 -13 -19 -28 4 -35 51 -3
26 -10 52 -15 58 -5 6 -4 27 2 47 9 34 13 37 44 37 24 0 35 -5 35 -15z m349
-192 c-7 -21 -14 -32 -16 -26 -3 7 1 30 8 50 7 21 14 32 16 26 3 -7 -1 -30 -8
-50z m-497 8 c2 -17 1 -28 -4 -25 -8 5 -12 54 -4 54 2 0 6 -13 8 -29z m364
-48 c-3 -10 -19 -33 -36 -51 -29 -32 -41 -82 -20 -82 6 0 22 8 37 17 20 13 25
14 21 3 -2 -7 -21 -24 -41 -37 l-37 -23 0 40 c0 71 20 129 49 144 30 16 35 14
27 -11z m-202 1 c18 -17 32 -62 23 -71 -9 -9 -67 59 -67 79 0 14 28 9 44 -8z
m499 -166 c-3 -49 -10 -88 -16 -88 -6 0 -7 20 -3 53 3 28 6 72 6 97 0 27 4 40
9 35 5 -6 7 -49 4 -97z m-819 -20 c6 -60 5 -62 -9 -33 -8 17 -14 55 -14 85 0
72 15 38 23 -52z m176 49 c0 -33 -25 -12 -28 24 -2 32 -1 33 13 15 8 -11 15
-28 15 -39z m126 22 c19 -11 38 -18 44 -14 5 3 10 -3 10 -14 0 -12 -4 -21 -8
-21 -9 0 -92 59 -92 66 0 8 14 3 46 -17z m346 -24 c-12 -22 -27 -2 -18 22 5
12 10 13 17 6 7 -7 8 -17 1 -28z m-346 -72 c16 -4 19 -10 16 -35 -4 -24 1 -35
22 -52 18 -14 25 -27 21 -38 -10 -24 -34 -30 -52 -12 -10 10 -25 13 -41 9 -73
-18 -82 -18 -82 2 0 14 7 19 28 18 26 0 27 2 28 55 1 72 1 73 22 65 9 -4 26
-10 38 -12z m256 -45 c-4 -56 -4 -56 28 -63 17 -4 29 -12 27 -18 -4 -13 -24
-13 -73 -2 -22 5 -35 2 -47 -10 -13 -12 -21 -14 -37 -5 -29 15 -25 48 6 60 22
9 26 15 22 41 -4 27 -1 33 26 45 17 7 36 12 41 10 6 -2 9 -27 7 -58z m136 -33
c-12 -25 -24 -43 -26 -41 -2 2 4 18 12 35 9 16 16 37 16 46 0 9 4 13 10 10 5
-3 1 -24 -12 -50z m-579 5 c11 -24 11 -24 -3 -6 -9 11 -16 24 -16 30 0 12 5 7
19 -24z m-269 -34 c0 -3 -18 -31 -39 -64 -35 -53 -47 -62 -121 -96 -45 -20
-83 -36 -85 -34 -4 4 227 196 238 197 4 1 7 -1 7 -3z m104 -52 c9 -3 16 -11
16 -18 0 -12 -8 -18 -85 -61 -27 -15 -69 -38 -92 -52 -24 -14 -43 -20 -43 -14
0 13 98 86 128 96 12 3 22 14 22 24 0 30 19 38 54 25z m966 -4 c0 -5 -7 -7
-15 -4 -8 4 -15 8 -15 10 0 2 7 4 15 4 8 0 15 -4 15 -10z m-190 -82 c0 -24 3
-54 7 -67 5 -21 4 -22 -16 -12 -22 12 -26 35 -15 90 9 45 24 38 24 -11z m-357
-28 c7 -59 25 -96 39 -82 5 5 14 37 21 71 6 33 15 61 19 61 9 0 6 -16 -20
-123 l-16 -68 29 -53 28 -53 -17 -139 c-43 -339 -43 -339 -45 -25 -1 265 -2
286 -21 316 -11 18 -23 54 -27 81 -3 27 -11 52 -17 56 -7 5 -5 8 5 8 12 0 18
-13 22 -50z m652 10 c16 -16 24 -30 19 -30 -6 0 -23 14 -39 30 -16 17 -24 30
-19 30 6 0 23 -13 39 -30z m-918 -42 c-3 -8 -6 -5 -6 6 -1 11 2 17 5 13 3 -3
4 -12 1 -19z m676 -53 c34 -14 35 -17 62 -127 14 -62 38 -157 51 -211 14 -55
23 -101 20 -104 -4 -4 -56 100 -56 112 0 2 -15 36 -34 77 -52 115 -100 268
-83 268 3 0 20 -7 40 -15z m-599 -51 c6 -44 1 -55 -89 -227 -52 -100 -95 -176
-95 -170 0 32 82 225 123 287 38 58 44 73 36 93 -13 35 -11 63 5 63 8 0 16
-17 20 -46z m-57 -56 c-3 -8 -6 -5 -6 6 -1 11 2 17 5 13 3 -3 4 -12 1 -19z
m-111 -137 c-9 -34 -28 -80 -43 -103 -28 -44 -73 -103 -73 -95 0 3 42 102 95
222 7 17 16 39 20 50 16 42 17 -13 1 -74z"/>
<path d="M1451 2794 c0 -11 3 -14 6 -6 3 7 2 16 -1 19 -3 4 -6 -2 -5 -13z"/>
<path d="M1522 2720 c0 -19 2 -27 5 -17 2 9 2 25 0 35 -3 9 -5 1 -5 -18z"/>
<path d="M1053 2700 c0 -25 2 -35 4 -22 2 12 2 32 0 45 -2 12 -4 2 -4 -23z"/>
<path d="M1532 2650 c0 -19 6 -91 13 -160 l14 -125 -5 115 c-6 122 -21 238
-22 170z"/>
<path d="M1061 2634 c0 -11 3 -14 6 -6 3 7 2 16 -1 19 -3 4 -6 -2 -5 -13z"/>
<path d="M1062 2585 c0 -16 2 -22 5 -12 2 9 2 23 0 30 -3 6 -5 -1 -5 -18z"/>
<path d="M1073 2465 c0 -33 2 -45 4 -27 2 18 2 45 0 60 -2 15 -4 0 -4 -33z"/>
<path d="M1084 2240 c0 -69 1 -97 3 -62 2 34 2 90 0 125 -2 34 -3 6 -3 -63z"/>
</g>
</svg>
