<?xml version="1.0" standalone="no"?>
<!DOCTYPE svg PUBLIC "-//W3C//DTD SVG 20010904//EN"
 "http://www.w3.org/TR/2001/REC-SVG-20010904/DTD/svg10.dtd">
<svg version="1.0" xmlns="http://www.w3.org/2000/svg"
 width="244.000000pt" height="305.000000pt" viewBox="0 0 244.000000 305.000000"
 preserveAspectRatio="xMidYMid meet">
<metadata>
Created by potrace 1.16, written by Peter Selinger 2001-2019
</metadata>
<g transform="translate(0.000000,305.000000) scale(0.100000,-0.100000)"
fill="#000000" stroke="none">
<path d="M1024 2888 c2 -16 0 -28 -4 -28 -4 0 -11 -32 -14 -72 -5 -49 -10 -67
-17 -57 -5 8 -9 24 -9 36 0 34 -21 123 -28 123 -6 0 -6 -459 1 -843 1 -93 -2
-147 -8 -147 -5 0 -22 12 -37 25 l-28 24 -2 183 -1 183 -8 -195 c-8 -177 -7
-196 8 -205 30 -18 54 -46 48 -55 -3 -5 -27 -6 -54 -3 -43 5 -50 3 -65 -18 -9
-13 -16 -36 -16 -51 0 -25 2 -26 34 -21 30 5 39 1 65 -28 34 -37 39 -63 15
-86 -12 -12 -14 -27 -9 -64 7 -49 7 -49 -22 -49 -42 0 -53 -12 -62 -66 l-9
-49 -1 48 c-1 41 -4 49 -27 57 -89 34 -127 -28 -88 -144 20 -58 12 -126 -19
-160 -25 -28 -302 -216 -318 -216 -6 0 3 12 18 27 16 16 71 75 123 131 l94
104 40 -6 39 -7 -7 62 c-3 34 -6 82 -6 105 0 27 -5 44 -11 44 -9 0 -10 -25 -6
-91 l7 -91 -28 7 c-25 5 -34 0 -72 -42 -24 -26 -93 -101 -154 -167 -61 -65
-113 -122 -114 -127 -2 -5 34 5 80 22 45 17 94 35 108 39 14 5 49 18 78 29 28
12 52 18 52 15 0 -4 -16 -28 -35 -54 -19 -26 -35 -53 -35 -59 0 -6 60 21 134
59 73 39 140 70 148 70 15 0 38 -40 38 -66 0 -8 -14 -21 -32 -28 -30 -13 -33
-19 -69 -157 -21 -79 -55 -204 -74 -277 -20 -73 -35 -137 -33 -142 2 -5 38 36
80 93 43 56 87 113 99 127 l20 25 -6 -50 c-3 -27 -13 -85 -22 -128 -8 -43 -13
-80 -12 -82 2 -2 58 94 124 213 118 214 120 218 117 275 l-3 57 31 0 c38 0 84
-23 104 -51 14 -20 13 -25 -15 -64 -28 -39 -29 -44 -20 -91 6 -27 31 -170 56
-319 40 -229 55 -305 55 -272 0 9 42 266 74 450 33 187 33 204 0 238 -22 23
-24 30 -14 49 16 30 69 60 109 60 l33 0 -6 -52 c-6 -49 -4 -58 29 -112 19 -32
35 -59 35 -60 0 -1 38 -72 85 -157 47 -84 85 -146 85 -137 0 9 -9 63 -20 119
-18 88 -20 124 -7 108 20 -24 127 -162 142 -183 11 -16 30 -40 43 -55 20 -22
22 -23 18 -6 -17 67 -109 418 -120 460 -8 28 -17 62 -20 77 -4 17 -16 29 -36
36 -25 9 -30 16 -30 43 0 18 7 40 16 50 15 17 23 14 141 -48 68 -35 126 -63
128 -61 2 1 -12 26 -31 53 -18 28 -30 51 -25 53 4 1 61 -18 127 -44 169 -66
226 -85 222 -74 -2 7 -142 157 -298 318 -25 26 -37 32 -56 28 l-24 -6 -1 97
-1 98 -13 -85 c-8 -47 -16 -101 -20 -120 -5 -33 -2 -37 42 -70 27 -19 98 -71
159 -116 61 -45 119 -86 130 -92 45 -27 -13 -8 -137 44 -172 71 -182 77 -174
114 5 22 0 34 -20 54 -25 25 -26 32 -23 99 2 40 10 94 18 120 13 42 13 51 -1
75 -15 28 -51 39 -95 28 -18 -5 -27 -17 -36 -51 -12 -46 -28 -43 -28 5 0 32
-17 50 -47 50 -22 0 -23 3 -17 53 5 42 3 55 -10 66 -23 19 -20 45 10 81 23 26
33 31 65 29 49 -4 54 2 39 45 -18 55 -73 74 -112 39 -17 -15 -21 -15 -29 -3
-7 11 -1 22 23 43 18 15 36 27 41 27 11 0 2 360 -14 545 -11 134 -56 426 -67
437 -4 4 -6 -220 -4 -497 2 -380 0 -505 -9 -505 -7 0 -9 10 -7 24 5 23 2 24
-23 19 -26 -5 -29 -3 -30 23 0 16 -2 43 -3 59 -5 52 13 482 21 501 6 13 10 -2
14 -46 4 -43 6 -19 5 70 -1 74 2 162 6 195 l7 60 -13 -55 c-10 -44 -14 -50
-18 -30 -3 14 -6 -20 -7 -75 -2 -55 -6 -120 -11 -145 -5 -29 -8 31 -7 172 1
119 -1 211 -5 204 -14 -24 -47 -373 -54 -561 -4 -131 -10 -195 -19 -205 -7 -8
-15 -24 -18 -35 -4 -18 -5 -18 -6 3 -2 38 -21 24 -21 -15 0 -21 -4 -44 -9 -51
-4 -7 -11 53 -14 140 -9 209 -49 470 -67 437 -17 -31 -51 -273 -57 -404 -3
-77 -9 -147 -14 -155 -6 -10 -8 -1 -9 28 0 42 -19 61 -21 20 l0 -23 -9 23 c-5
12 -16 22 -25 22 -12 0 -15 -14 -15 -68 0 -48 -5 -75 -17 -92 -17 -24 -18 -13
-28 315 -6 187 -8 401 -5 475 4 74 3 146 -2 160 -8 25 -8 24 -4 -2z m56 -1002
c0 -18 -17 -29 -30 -21 -8 5 -7 11 1 21 15 18 29 18 29 0z m340 -12 c0 -8 -9
-14 -20 -14 -22 0 -26 10 -8 28 13 13 28 7 28 -14z m-410 1 c0 -8 -7 -15 -15
-15 -8 0 -15 7 -15 15 0 8 7 15 15 15 8 0 15 -7 15 -15z m488 -3 c2 -7 -6 -12
-17 -12 -21 0 -27 11 -14 24 9 9 26 2 31 -12z m-384 -136 c-13 -10 -23 -11
-31 -4 -19 16 -16 26 10 30 32 6 45 -9 21 -26z m277 9 c0 -14 -23 -17 -40 -6
-20 13 -4 31 20 23 11 -5 20 -12 20 -17z m85 -62 c-11 -11 -17 4 -9 23 7 18 8
18 11 1 2 -10 1 -21 -2 -24z m-479 5 c-3 -8 -6 -5 -6 6 -1 11 2 17 5 13 3 -3
4 -12 1 -19z m73 -4 c0 -8 -4 -12 -10 -9 -5 3 -10 10 -10 16 0 5 5 9 10 9 6 0
10 -7 10 -16z m343 1 c-3 -9 -8 -14 -10 -11 -3 3 -2 9 2 15 9 16 15 13 8 -4z
m-253 -47 c0 -10 9 -22 21 -28 11 -7 27 -27 35 -46 8 -19 16 -34 19 -34 3 0
11 15 19 34 8 19 24 39 35 46 12 6 21 18 21 28 0 14 9 17 46 17 l46 1 -7 -40
c-3 -22 -7 -42 -9 -43 -2 -2 -15 1 -30 7 -15 5 -34 10 -41 10 -23 0 -54 -41
-67 -85 l-11 -40 -14 41 c-25 76 -56 94 -115 69 -13 -5 -20 0 -28 20 -19 51
-14 60 35 60 36 0 45 -3 45 -17z m-162 -121 c14 -31 22 -60 19 -63 -11 -11
-59 87 -63 129 -5 47 -4 46 44 -66z m46 63 c4 -25 3 -31 -4 -20 -5 8 -10 26
-10 39 0 32 6 24 14 -19z m456 -63 c-21 -44 -46 -75 -54 -66 -2 2 7 26 20 52
12 27 29 65 36 85 l13 37 3 -31 c2 -18 -6 -52 -18 -77z m-60 75 c0 -10 -7 -27
-15 -38 -13 -17 -13 -15 -3 19 12 41 18 47 18 19z m-290 -82 c11 -11 20 -24
20 -29 0 -5 3 -16 6 -25 12 -30 -15 -16 -41 21 -14 21 -25 41 -25 45 0 14 20
8 40 -12z m210 12 c0 -13 -50 -82 -60 -82 -14 0 8 64 27 78 19 14 33 16 33 4z
m-435 -92 c-15 -16 -16 -31 -11 -97 5 -51 4 -73 -3 -64 -5 8 -12 44 -16 81 -5
52 -3 75 10 106 16 38 17 38 28 16 8 -17 6 -26 -8 -42z m649 -39 c-1 -51 -19
-140 -24 -116 -1 6 -1 41 0 78 1 40 -3 74 -10 82 -6 8 -9 24 -5 35 l7 22 16
-23 c10 -15 16 -43 16 -78z m137 24 c5 -55 -6 -111 -24 -118 -9 -3 -12 18 -13
90 0 93 0 94 18 71 9 -12 18 -32 19 -43z m-918 -114 c-2 -3 -8 0 -14 6 -18 18
-23 90 -8 125 14 33 14 32 19 -47 3 -44 4 -82 3 -84z m397 62 c0 -17 -6 -16
-41 4 -39 23 -37 32 6 19 19 -6 35 -17 35 -23z m150 19 c0 -14 -48 -33 -55
-22 -4 6 4 14 17 19 30 12 38 13 38 3z m-208 -79 c13 -4 15 -13 11 -39 -5 -29
-2 -35 21 -45 14 -7 26 -20 26 -30 0 -25 -33 -42 -49 -26 -7 7 -37 12 -66 12
-30 0 -55 5 -55 10 0 6 13 10 28 10 26 0 27 2 28 50 1 75 2 78 22 70 9 -4 25
-9 34 -12z m261 -48 l-6 -55 32 0 c21 0 31 -5 31 -15 0 -12 -12 -15 -62 -13
-42 2 -63 -1 -65 -9 -7 -20 -43 4 -43 28 0 12 10 23 25 29 27 10 34 47 13 68
-9 9 -7 12 13 12 13 0 31 4 39 9 24 16 29 3 23 -54z m287 6 c0 -13 -29 -35
-37 -28 -7 8 15 37 28 37 5 0 9 -4 9 -9z m-853 -33 c-3 -8 -6 -5 -6 6 -1 11 2
17 5 13 3 -3 4 -12 1 -19z m143 -62 c0 -5 -7 -1 -15 10 -8 10 -14 24 -14 29 0
6 6 1 14 -9 8 -11 15 -24 15 -30z m550 24 c0 -5 -5 -10 -11 -10 -5 0 -7 5 -4
10 3 6 8 10 11 10 2 0 4 -4 4 -10z m275 -60 c4 -11 17 -31 30 -44 13 -13 31
-38 40 -57 16 -31 12 -28 -46 26 -90 84 -96 95 -55 95 16 0 27 -7 31 -20z
m-1034 0 c10 -6 19 -14 19 -19 0 -8 -193 -121 -207 -121 -13 0 141 148 155
149 7 1 22 -4 33 -9z m834 -7 c-14 -35 -23 -134 -16 -161 5 -15 34 -81 66
-147 32 -66 78 -163 103 -215 25 -52 47 -99 50 -104 3 -5 0 -6 -5 -3 -21 13
-167 223 -179 258 -7 20 -20 78 -29 130 -9 51 -22 97 -28 101 -15 9 -10 75 10
121 16 36 42 55 28 20z m-687 -28 c14 -31 16 -101 3 -109 -5 -3 -21 -35 -35
-71 -31 -78 -197 -417 -202 -412 -2 2 22 99 54 217 l58 213 40 18 c48 20 54
32 54 110 0 63 10 75 28 34z m282 -25 c0 -5 -7 -7 -15 -4 -8 4 -15 8 -15 10 0
2 7 4 15 4 8 0 15 -4 15 -10z m117 4 c-3 -3 -12 -4 -19 -1 -8 3 -5 6 6 6 11 1
17 -2 13 -5z m-79 -126 c9 -9 15 -2 25 23 8 19 17 41 21 49 3 8 3 -1 0 -20 -4
-19 -13 -48 -21 -64 -13 -25 -17 -27 -30 -14 -15 16 -33 78 -32 113 0 11 6 -2
13 -28 7 -27 18 -53 24 -59z m-216 -55 c4 -44 -2 -60 -70 -193 -42 -80 -82
-158 -90 -173 -28 -56 -23 -17 13 89 20 60 52 137 70 171 19 33 31 70 29 80
-7 26 12 73 30 73 9 0 15 -15 18 -47z m508 30 c0 -10 -4 -24 -9 -31 -7 -11
-10 -10 -15 3 -10 28 -7 45 9 45 8 0 15 -8 15 -17z m55 -63 c8 -40 14 -75 12
-76 -6 -6 -45 40 -48 56 -3 18 11 103 17 98 2 -2 10 -37 19 -78z m-416 -134
c1 -42 -5 -29 -12 24 -4 30 -3 38 3 25 5 -11 9 -33 9 -49z m401 40 c0 -7 7
-20 16 -27 21 -17 31 -44 49 -132 25 -119 16 -115 -30 13 -43 121 -54 160 -44
160 5 0 9 -6 9 -14z"/>
<path d="M1042 2780 c0 -14 2 -19 5 -12 2 6 2 18 0 25 -3 6 -5 1 -5 -13z"/>
<path d="M921 2754 c0 -11 3 -14 6 -6 3 7 2 16 -1 19 -3 4 -6 -2 -5 -13z"/>
<path d="M912 2695 c0 -16 2 -22 5 -12 2 9 2 23 0 30 -3 6 -5 -1 -5 -18z"/>
<path d="M1052 2690 c0 -14 2 -19 5 -12 2 6 2 18 0 25 -3 6 -5 1 -5 -13z"/>
<path d="M898 2609 c-4 -25 -9 -95 -12 -155 l-5 -109 14 135 c15 132 16 220 3
129z"/>
<path d="M1063 2585 c0 -27 2 -38 4 -22 2 15 2 37 0 50 -2 12 -4 0 -4 -28z"/>
<path d="M1073 2435 c0 -44 2 -61 4 -37 2 23 2 59 0 80 -2 20 -4 1 -4 -43z"/>
<path d="M1494 2275 c0 -49 1 -71 3 -48 2 23 2 64 0 90 -2 26 -3 8 -3 -42z"/>
<path d="M1083 2220 c0 -47 2 -66 4 -42 2 23 2 61 0 85 -2 23 -4 4 -4 -43z"/>
</g>
</svg>
