<?xml version="1.0" standalone="no"?>
<!DOCTYPE svg PUBLIC "-//W3C//DTD SVG 20010904//EN"
 "http://www.w3.org/TR/2001/REC-SVG-20010904/DTD/svg10.dtd">
<svg version="1.0" xmlns="http://www.w3.org/2000/svg"
 width="244.000000pt" height="305.000000pt" viewBox="0 0 244.000000 305.000000"
 preserveAspectRatio="xMidYMid meet">
<metadata>
Created by potrace 1.16, written by Peter Selinger 2001-2019
</metadata>
<g transform="translate(0.000000,305.000000) scale(0.100000,-0.100000)"
fill="#000000" stroke="none">
<path d="M1082 2890 c0 -14 2 -19 5 -12 2 6 2 18 0 25 -3 6 -5 1 -5 -13z"/>
<path d="M1540 2900 c0 -8 -3 -26 -5 -40 -5 -22 -4 -22 4 -5 6 13 10 -152 10
-467 1 -269 -3 -488 -7 -488 -5 0 -17 9 -27 20 -10 11 -24 20 -32 20 -29 0
-14 447 23 693 18 115 14 160 -5 55 -22 -125 -40 -347 -47 -553 l-6 -210 36
-18 c20 -9 39 -24 42 -32 9 -22 25 -18 64 15 19 17 40 30 47 30 16 0 17 107 3
365 -11 197 -30 355 -61 510 -19 90 -39 144 -39 105z"/>
<path d="M910 2888 c0 -7 -3 -24 -5 -38 -5 -22 -4 -22 4 -5 6 13 10 -150 10
-462 1 -266 -2 -483 -5 -483 -8 0 -67 42 -75 52 -15 23 13 517 41 707 21 141
21 191 0 74 -34 -195 -60 -503 -60 -720 0 -86 2 -93 23 -104 12 -7 35 -23 51
-36 l29 -24 26 24 c24 21 76 57 83 57 2 0 12 -16 22 -35 11 -19 25 -35 33 -35
7 0 13 -6 13 -13 0 -26 -13 -26 -32 -2 -36 46 -105 22 -133 -47 l-18 -43 -10
30 c-16 50 -46 75 -89 75 -47 0 -78 -28 -78 -70 0 -30 1 -30 40 -24 36 6 43 3
70 -26 31 -33 40 -75 18 -83 -21 -6 -12 -92 16 -153 36 -78 36 -166 1 -214
l-25 -33 1 34 c0 66 -16 142 -32 152 -38 24 -89 -18 -89 -73 0 -10 18 -54 40
-97 22 -43 39 -84 38 -92 -3 -16 -63 61 -92 117 -22 43 -20 114 4 154 11 18
20 41 20 50 0 40 -95 53 -130 18 -25 -25 -25 -38 1 -120 35 -108 15 -160 -84
-223 -125 -79 -278 -169 -282 -165 -3 3 54 62 126 133 l130 127 40 -6 39 -6
-1 77 c-1 43 -5 92 -9 108 -10 39 -12 27 -10 -72 l1 -83 -28 6 c-23 4 -37 -3
-78 -41 -89 -81 -305 -298 -301 -302 2 -2 101 30 221 72 120 41 219 75 221 75
1 0 5 14 9 31 6 27 10 30 33 24 15 -4 45 -16 67 -28 52 -29 59 -70 20 -129
-15 -22 -28 -56 -30 -76 -2 -21 -22 -95 -43 -167 -36 -117 -85 -287 -98 -340
-4 -17 -1 -16 18 6 13 15 46 53 75 85 153 175 284 338 279 350 -3 7 -8 29 -12
48 -6 35 -5 36 25 36 36 0 38 -12 21 -115 -18 -110 -60 -429 -57 -432 2 -1 43
97 91 220 80 200 88 226 83 269 -4 30 -2 48 4 48 19 0 46 -19 63 -45 16 -25
16 -26 -14 -58 -27 -28 -30 -37 -25 -72 11 -76 119 -617 122 -609 3 10 71 363
104 538 l20 109 -30 31 c-17 18 -31 37 -31 42 0 17 57 67 71 62 9 -3 12 -19
10 -49 -2 -36 12 -80 80 -251 46 -114 85 -205 87 -203 2 1 0 31 -4 66 -4 38
-10 56 -13 45 -4 -11 -27 62 -59 186 -29 111 -52 206 -52 210 0 3 30 6 66 7
l66 0 -7 -35 c-3 -20 -8 -41 -11 -48 -4 -11 329 -421 368 -454 15 -12 15 -9 2
35 -8 26 -39 131 -69 233 -95 325 -93 320 -131 341 -13 7 -24 17 -24 22 0 5 7
4 15 -3 13 -11 14 -8 9 17 -5 26 -1 34 31 60 32 27 73 44 110 47 5 1 12 -12
15 -28 4 -23 13 -31 50 -43 25 -8 128 -44 229 -79 102 -35 186 -62 188 -60 3
3 -339 334 -361 348 -6 5 -23 5 -38 2 l-27 -5 6 90 c4 65 3 91 -6 91 -7 0 -11
-19 -11 -48 0 -27 -7 -71 -15 -98 -8 -27 -15 -56 -15 -64 0 -8 85 -71 190
-140 104 -68 187 -126 185 -128 -3 -3 -206 71 -318 115 -35 15 -37 17 -31 49
5 29 2 37 -19 54 -38 30 -44 92 -18 179 25 83 26 100 5 129 -27 38 -134 26
-134 -16 0 -10 11 -34 25 -54 29 -42 31 -69 11 -126 -20 -56 -116 -177 -116
-147 0 4 15 33 34 64 48 79 62 125 50 158 -12 36 -57 62 -81 47 -20 -13 -42
-129 -32 -168 8 -29 -8 -36 -18 -8 -4 9 -15 28 -25 41 -26 34 -25 134 2 168
41 53 62 183 30 183 -22 0 -9 53 19 81 23 23 39 29 70 29 37 0 41 2 41 25 0
33 -42 75 -74 75 -31 0 -82 -42 -90 -75 -8 -32 -22 -32 -30 1 -9 36 -54 74
-86 74 -15 0 -36 -10 -50 -25 -16 -17 -26 -22 -31 -14 -4 7 7 25 27 44 33 32
34 34 32 111 l-1 79 -6 -65 -6 -65 -19 120 c-16 105 -18 166 -15 484 2 201 1
342 -3 315 -18 -133 -29 -328 -34 -619 -7 -369 -17 -454 -28 -230 -9 204 -23
331 -47 454 -31 153 -33 156 -53 75 -10 -38 -22 -94 -27 -124 -14 -79 -39
-381 -39 -475 0 -55 -3 -75 -10 -65 -5 8 -10 33 -10 55 0 22 -10 74 -22 115
-20 69 -22 106 -27 445 l-6 370 -13 -145 c-8 -80 -16 -286 -19 -457 -3 -172
-9 -313 -13 -313 -4 0 -10 82 -14 183 -10 272 -24 424 -57 604 -16 89 -29 165
-29 168 0 3 -4 5 -10 5 -5 0 -10 -6 -10 -12z m291 -773 c-5 -214 -8 -248 -15
-190 -11 87 5 473 18 453 1 -2 0 -120 -3 -263z m-24 -357 c-2 -18 -4 -4 -4 32
0 36 2 50 4 33 2 -18 2 -48 0 -65z m-131 -14 c-3 -8 -1 -62 4 -121 5 -59 8
-108 6 -111 -10 -10 -58 72 -63 108 -3 23 -12 44 -19 47 -20 7 -17 57 4 75 33
29 79 30 68 2z m448 -6 c20 -28 20 -64 1 -72 -9 -3 -15 -18 -15 -36 0 -29 -19
-69 -47 -98 -7 -7 -13 -18 -13 -23 0 -6 -5 -7 -10 -4 -6 4 -7 12 -3 18 4 6 8
43 10 82 2 57 9 141 12 153 1 1 12 2 25 2 14 0 32 -10 40 -22z m-297 -70 c-2
-17 -9 -34 -15 -36 -15 -5 -15 10 0 43 15 34 20 32 15 -7z m-47 -13 c0 -29 5
-37 25 -45 16 -6 32 -25 42 -47 l15 -38 20 38 c10 21 30 42 43 47 20 8 25 17
25 45 0 36 13 47 24 19 3 -9 6 -31 6 -49 0 -35 -13 -45 -55 -45 -28 0 -40 -18
-51 -75 l-7 -40 -18 55 c-10 30 -19 56 -19 58 0 1 -15 2 -34 2 -40 0 -48 9
-48 55 0 19 3 38 7 44 13 22 25 10 25 -24z m-205 -78 c13 -38 6 -57 -13 -34
-5 6 -13 27 -17 46 -10 46 13 37 30 -12z m142 11 c-3 -7 -5 -2 -5 12 0 14 2
19 5 13 2 -7 2 -19 0 -25z m300 0 c-3 -7 -5 -2 -5 12 0 14 2 19 5 13 2 -7 2
-19 0 -25z m173 25 c0 -29 -23 -83 -35 -83 -19 0 -19 1 1 50 14 35 34 54 34
33z m-435 -125 c10 -24 21 -47 23 -53 3 -5 -3 -3 -13 5 -10 8 -24 29 -32 47
-15 38 -16 43 -5 43 5 0 17 -19 27 -42z m245 18 c0 -13 -9 -34 -21 -47 l-20
-24 7 25 c19 69 34 90 34 46z m-349 -59 c-13 -13 -31 0 -24 19 4 11 8 12 20 3
9 -8 10 -16 4 -22z m449 6 c0 -20 -3 -24 -11 -16 -7 7 -9 19 -6 27 10 24 17
19 17 -11z m-530 -76 c0 -16 -4 -26 -10 -22 -5 3 -10 23 -10 43 0 28 3 33 10
22 5 -8 10 -28 10 -43z m142 36 c19 -17 24 -43 9 -43 -15 0 -41 30 -41 46 0
18 9 18 32 -3z m338 -3 c0 -16 -26 -40 -44 -40 -12 0 -6 24 11 42 21 23 33 23
33 -2z m120 -27 c0 -27 -3 -34 -11 -26 -7 7 -9 23 -5 37 9 37 16 32 16 -11z
m-366 11 c9 -22 -3 -32 -14 -14 -12 19 -12 30 -1 30 5 0 12 -7 15 -16z m132
-21 c-11 -11 -17 4 -9 23 7 18 8 18 11 1 2 -10 1 -21 -2 -24z m-285 -118 c5
-22 12 -48 15 -57 3 -10 1 -18 -3 -18 -8 0 -43 114 -43 137 0 17 20 -23 31
-62z m51 18 c-3 -35 19 -83 38 -83 5 0 13 12 16 26 4 14 9 21 13 16 3 -5 15
-11 26 -13 14 -3 20 -12 20 -29 0 -20 -4 -24 -23 -22 -13 2 -29 -2 -37 -8 -32
-26 -79 60 -68 125 7 45 18 36 15 -12z m383 -44 c-24 -73 -31 -52 -9 28 12 44
20 60 22 45 2 -12 -4 -45 -13 -73z m-285 74 c0 -5 -12 -16 -25 -26 -24 -17
-25 -17 -25 2 0 17 12 25 43 30 4 0 7 -2 7 -6z m171 -3 c5 0 9 -6 9 -14 0 -11
-5 -12 -25 -3 -27 13 -35 33 -9 23 9 -3 20 -6 25 -6z m69 -29 c0 -43 -11 -75
-34 -105 -14 -17 -16 -17 -37 -2 -17 11 -26 13 -36 5 -9 -8 -14 -7 -19 5 -9
25 2 43 30 48 19 4 27 0 31 -13 4 -11 10 -19 15 -19 18 0 42 62 36 91 -3 16
-1 29 4 29 6 0 10 -18 10 -39z m169 -77 c-22 -26 -33 1 -12 32 18 28 18 28 21
6 2 -13 -2 -30 -9 -38z m-659 0 c0 -8 -5 -12 -10 -9 -6 4 -8 11 -5 16 9 14 15
11 15 -7z m713 -70 c-4 -10 -9 -12 -15 -6 -12 12 -1 35 12 27 5 -3 6 -13 3
-21z m-763 -29 c0 -12 -7 -25 -15 -29 -16 -6 -20 18 -9 48 8 22 24 10 24 -19z
m15 -77 c-4 -18 -28 -73 -55 -123 -86 -164 -133 -249 -172 -317 -21 -36 -38
-72 -39 -80 0 -9 -2 -9 -5 -1 -4 9 53 217 110 397 10 32 19 42 56 56 33 13 48
25 55 46 14 41 24 54 41 54 12 0 14 -7 9 -32z m725 -7 c0 -39 1 -42 177 -381
67 -128 71 -141 41 -110 -18 19 -56 64 -83 99 -28 35 -64 80 -81 100 -17 20
-47 58 -66 84 -32 42 -35 51 -27 80 5 17 9 62 9 99 0 54 3 68 15 68 11 0 15
-11 15 -39z m-825 0 c-3 -6 -11 -11 -17 -11 -6 0 -6 6 2 15 14 17 26 13 15 -4z
m463 -59 c9 7 13 9 10 3 -2 -5 -8 -19 -12 -30 -7 -19 -8 -19 -21 5 -16 29 -20
54 -4 27 9 -15 13 -16 27 -5z m-176 -59 c4 -39 -4 -71 -42 -173 -26 -69 -55
-146 -65 -173 -10 -26 -19 -46 -21 -44 -3 2 90 391 101 425 9 27 23 9 27 -35z
m116 -70 c-9 -25 -9 -69 1 -195 7 -90 15 -174 18 -188 3 -14 3 -23 0 -19 -4 3
-16 52 -27 110 -12 57 -28 136 -36 174 -8 39 -14 72 -14 75 0 9 62 81 66 77 2
-2 -2 -17 -8 -34z"/>
<path d="M1522 2790 c0 -19 2 -27 5 -17 2 9 2 25 0 35 -3 9 -5 1 -5 -18z"/>
<path d="M1102 2690 c0 -19 2 -27 5 -17 2 9 2 25 0 35 -3 9 -5 1 -5 -18z"/>
<path d="M1113 2515 c0 -38 2 -53 4 -32 2 20 2 52 0 70 -2 17 -4 1 -4 -38z"/>
<path d="M1412 2500 c0 -19 2 -27 5 -17 2 9 2 25 0 35 -3 9 -5 1 -5 -18z"/>
<path d="M1124 2230 c0 -52 1 -74 3 -47 2 26 2 68 0 95 -2 26 -3 4 -3 -48z"/>
<path d="M1423 2105 c0 -22 2 -30 4 -17 2 12 2 30 0 40 -3 9 -5 -1 -4 -23z"/>
<path d="M1492 800 c0 -19 2 -27 5 -17 2 9 2 25 0 35 -3 9 -5 1 -5 -18z"/>
<path d="M1502 730 c0 -14 5 -59 12 -100 8 -41 14 -64 14 -50 0 14 -5 59 -12
100 -8 41 -14 64 -14 50z"/>
</g>
</svg>
