<?xml version="1.0" standalone="no"?>
<!DOCTYPE svg PUBLIC "-//W3C//DTD SVG 20010904//EN"
 "http://www.w3.org/TR/2001/REC-SVG-20010904/DTD/svg10.dtd">
<svg version="1.0" xmlns="http://www.w3.org/2000/svg"
 width="244.000000pt" height="305.000000pt" viewBox="0 0 244.000000 305.000000"
 preserveAspectRatio="xMidYMid meet">
<metadata>
Created by potrace 1.16, written by Peter Selinger 2001-2019
</metadata>
<g transform="translate(0.000000,305.000000) scale(0.100000,-0.100000)"
fill="#000000" stroke="none">
<path d="M926 2901 c-28 -44 -75 -400 -86 -641 -14 -315 -14 -337 10 -345 11
-4 34 -18 50 -32 l30 -25 31 26 c36 30 51 32 75 9 16 -17 15 -18 -17 -24 -37
-8 -79 -50 -79 -80 0 -10 -4 -19 -10 -19 -5 0 -10 7 -10 16 0 9 -16 32 -35 51
-30 30 -40 35 -67 29 -43 -9 -68 -33 -68 -68 0 -26 3 -28 39 -28 52 0 101 -39
101 -81 0 -16 -4 -29 -10 -29 -19 0 -22 -49 -6 -102 26 -92 38 -190 30 -265
-3 -40 -10 -73 -14 -73 -13 0 -22 34 -11 38 14 5 15 162 2 162 -6 0 -12 -15
-14 -32 l-4 -33 -1 35 c-2 42 -17 60 -48 60 -55 0 -71 -77 -34 -159 33 -73 23
-97 -17 -38 -51 75 -56 138 -17 205 l27 45 -23 19 c-31 25 -106 25 -120 -1
-14 -28 -13 -71 5 -121 8 -23 15 -69 15 -102 0 -54 -3 -62 -32 -88 -28 -26
-30 -32 -20 -54 10 -23 9 -27 -16 -40 -47 -24 -314 -127 -318 -123 -4 3 97 74
158 112 47 29 189 130 198 140 7 9 6 31 -5 71 -8 32 -15 79 -15 106 0 26 -5
50 -11 54 -8 5 -10 -20 -7 -90 l4 -96 -31 5 c-28 6 -41 -5 -210 -175 -99 -99
-178 -180 -175 -180 8 0 196 65 290 100 47 17 99 36 115 42 41 15 55 27 55 49
0 10 3 20 8 22 9 6 81 -18 94 -31 6 -6 -5 -37 -32 -86 -23 -42 -39 -76 -35
-76 11 0 100 54 103 62 7 17 32 7 32 -13 0 -13 -10 -23 -29 -30 -36 -13 -37
-15 -107 -264 -31 -110 -64 -228 -74 -262 -10 -35 -15 -63 -12 -63 6 1 193
225 252 303 48 63 100 121 100 110 0 -6 -9 -71 -20 -144 -12 -74 -23 -156 -26
-184 l-5 -50 51 105 c28 58 59 123 69 145 71 158 74 165 69 210 -3 25 -3 47 1
49 13 9 70 -24 87 -49 17 -26 16 -27 -14 -58 l-31 -32 44 -235 c81 -441 78
-428 87 -395 9 35 61 316 93 499 l22 129 -29 32 c-15 18 -28 37 -28 42 0 17
55 61 80 65 24 3 25 2 22 -52 -2 -42 3 -67 21 -105 13 -27 57 -123 98 -213 41
-89 75 -156 77 -148 2 7 -11 98 -27 202 -17 103 -29 189 -27 192 3 3 275 -324
315 -379 25 -35 29 -19 11 44 -27 94 -102 356 -116 407 -23 84 -31 97 -63 103
-22 5 -31 12 -31 27 0 25 20 26 51 2 39 -30 119 -73 119 -65 0 4 -11 26 -25
48 -41 68 -65 114 -65 125 0 15 65 44 84 37 9 -4 16 -17 16 -29 0 -20 14 -28
118 -66 64 -23 159 -58 211 -77 52 -19 97 -33 100 -30 3 3 -71 82 -164 176
-159 159 -172 170 -201 165 l-31 -4 3 96 c3 70 1 87 -5 63 -5 -19 -11 -68 -13
-110 l-3 -76 40 3 c39 3 43 0 170 -128 71 -71 126 -130 122 -130 -16 0 -102
52 -269 164 -105 69 -125 114 -94 202 27 78 29 117 6 142 -26 27 -79 29 -110
4 l-23 -19 28 -49 c24 -43 27 -57 21 -96 -6 -43 -52 -128 -68 -128 -13 0 -9
29 9 63 48 94 4 192 -67 147 -11 -7 -17 -5 -22 8 -4 9 -7 -7 -8 -38 -2 -78
-13 -138 -24 -122 -9 14 7 157 30 277 12 66 12 71 -7 91 -16 17 -18 26 -10 46
16 41 61 71 98 65 34 -6 37 -2 33 38 -8 77 -134 69 -154 -10 -8 -31 -22 -32
-30 -2 -3 13 -15 36 -27 51 -19 24 -27 27 -56 23 -34 -6 -34 -5 -20 16 20 31
49 32 77 2 29 -31 35 -31 74 -2 17 13 39 26 49 30 16 6 17 20 12 164 -11 302
-43 646 -62 663 -3 3 -3 -14 1 -37 22 -147 37 -337 42 -533 l6 -225 -36 -22
c-20 -13 -38 -23 -41 -23 -3 0 -5 215 -5 478 0 326 4 472 10 462 8 -11 9 -7 4
15 -4 17 -10 34 -14 38 -9 10 -47 -199 -69 -378 l-17 -140 -7 140 c-6 118 -33
384 -40 391 -1 1 -1 -208 0 -464 1 -257 0 -460 -2 -452 -2 8 -6 36 -10 62 -5
38 -10 46 -26 45 -17 -1 -19 -9 -20 -67 -1 -36 -4 -76 -8 -89 -6 -24 -14 32
-42 324 -9 88 -39 266 -55 318 -9 28 -14 16 -34 -75 -19 -87 -27 -148 -57
-417 -22 -202 -28 -180 -37 129 -6 211 -28 524 -44 636 -4 27 -6 -119 -4 -324
5 -435 -3 -632 -24 -611 -10 11 -14 53 -15 164 -2 168 -28 454 -55 619 -26
156 -29 115 -4 -55 22 -152 39 -413 40 -589 l0 -105 -34 -27 c-19 -16 -38 -28
-41 -28 -3 0 -4 227 -3 505 2 278 2 505 1 505 -1 0 -4 -4 -7 -9z m364 -776 c1
-44 1 -125 -1 -180 l-2 -100 -8 135 c-3 74 -7 182 -7 240 1 95 1 99 8 45 5
-33 9 -96 10 -140z m-203 -277 c-3 -8 -6 -5 -6 6 -1 11 2 17 5 13 3 -3 4 -12
1 -19z m313 12 c0 -5 -4 -10 -10 -10 -5 0 -10 5 -10 10 0 6 5 10 10 10 6 0 10
-4 10 -10z m-20 -132 c0 -13 -17 -9 -30 7 -6 8 -8 20 -4 26 5 9 11 7 21 -6 7
-11 13 -22 13 -27z m-351 4 c13 -31 13 -38 5 -125 -5 -51 -8 -56 -19 -40 -7
10 -16 37 -20 60 -3 23 -13 47 -20 53 -15 13 -10 35 13 63 21 23 28 22 41 -11z
m91 8 c-11 -20 -30 -28 -30 -12 0 11 22 32 32 32 5 0 4 -9 -2 -20z m375 -19
c13 -26 13 -31 -5 -51 -11 -13 -20 -37 -20 -54 0 -17 -7 -40 -15 -50 -14 -18
-15 -15 -15 36 0 31 -4 59 -9 62 -11 7 7 78 22 88 15 9 24 2 42 -31z m-196
-73 c1 -10 -3 -18 -9 -18 -5 0 -10 17 -9 38 0 30 2 33 9 17 5 -11 9 -28 9 -37z
m71 -19 c0 -38 -12 -49 -51 -49 -43 0 -62 -20 -74 -80 l-8 -35 -18 55 c-10 30
-19 56 -19 58 0 1 -14 2 -31 2 -43 0 -69 17 -69 44 0 26 24 51 40 41 5 -3 10
-15 10 -26 0 -12 10 -23 26 -29 17 -7 31 -25 42 -51 l16 -42 18 42 c10 25 27
45 42 51 16 6 27 20 31 40 7 30 8 31 26 14 10 -9 19 -25 19 -35z m-417 -51 c9
-23 15 -43 14 -45 -9 -9 -36 26 -42 55 -9 46 9 40 28 -10z m122 14 c2 -12 0
-24 -6 -27 -5 -4 -9 8 -9 26 0 35 8 35 15 1z m335 -3 c0 -16 -4 -28 -9 -25 -5
4 -8 14 -6 24 2 9 4 20 4 25 1 4 3 7 6 7 3 0 5 -14 5 -31z m140 12 c0 -10 -11
-35 -25 -55 -14 -20 -25 -46 -25 -57 0 -11 -10 -24 -23 -30 -13 -6 -27 -20
-32 -31 -12 -26 -51 -53 -59 -40 -3 5 21 39 53 76 32 36 66 86 75 111 18 46
36 59 36 26z m-445 -101 c21 -41 18 -60 -5 -30 -18 23 -27 60 -15 60 2 0 11
-13 20 -30z m284 1 c-12 -33 -39 -62 -39 -42 0 19 29 71 40 71 5 0 5 -12 -1
-29z m-355 -40 c51 -59 64 -81 48 -81 -9 0 -29 18 -78 72 -23 25 -41 68 -27
67 4 0 30 -26 57 -58z m289 29 c-3 -12 -8 -19 -11 -16 -5 6 5 36 12 36 2 0 2
-9 -1 -20z m194 -117 c-3 -10 -5 -4 -5 12 0 17 2 24 5 18 2 -7 2 -21 0 -30z
m-560 5 c-3 -8 -6 -5 -6 6 -1 11 2 17 5 13 3 -3 4 -12 1 -19z m223 -4 c0 -14
-12 -19 -23 -8 -9 9 4 35 14 28 5 -3 9 -12 9 -20z m126 -11 c-11 -11 -19 6
-11 24 8 17 8 17 12 0 3 -10 2 -21 -1 -24z m-253 -87 c-4 -35 -1 -48 16 -65
30 -30 43 -17 39 38 l-3 46 35 2 c31 2 32 1 12 -7 -32 -13 -28 -63 5 -68 22
-3 39 -34 29 -51 -5 -8 -59 -6 -112 4 -26 6 -47 71 -38 120 9 49 23 34 17 -19z
m387 5 c0 -21 -5 -52 -11 -69 -11 -33 -38 -44 -109 -46 -31 -1 -35 2 -35 24 0
18 7 26 25 30 30 7 38 41 15 64 -15 15 -14 16 15 16 l31 0 -7 -49 c-8 -58 9
-77 38 -41 12 15 18 39 18 72 0 30 4 47 10 43 6 -3 10 -23 10 -44z m137 -53
c-3 -8 -6 -5 -6 6 -1 11 2 17 5 13 3 -3 4 -12 1 -19z m-743 -34 c11 -27 7 -37
-9 -24 -16 14 -20 40 -6 40 5 0 12 -7 15 -16z m186 -14 c0 -5 -5 -10 -11 -10
-5 0 -7 5 -4 10 3 6 8 10 11 10 2 0 4 -4 4 -10z m450 0 c0 -5 -5 -10 -11 -10
-5 0 -7 5 -4 10 3 6 8 10 11 10 2 0 4 -4 4 -10z m156 -45 c-4 -14 -11 -25 -16
-25 -13 0 -13 16 1 42 14 26 23 16 15 -17z m-856 -53 c0 -5 -14 -21 -31 -38
-30 -28 -31 -28 -19 -4 7 14 17 31 23 38 11 14 27 16 27 4z m124 -29 c3 -21 6
-64 6 -95 0 -31 4 -68 10 -82 8 -23 -2 -40 -105 -173 -163 -210 -167 -215
-171 -211 -2 2 29 67 69 144 154 300 170 339 164 393 -3 27 -3 52 0 55 13 13
21 4 27 -31z m716 18 c5 -11 10 -33 10 -50 0 -35 30 -71 59 -71 10 0 24 -7 31
-15 17 -20 134 -424 125 -433 -1 -2 -31 52 -65 120 -34 68 -91 176 -127 241
-62 112 -83 177 -70 212 9 21 24 19 37 -4z m133 -28 c21 -25 36 -47 34 -50 -8
-7 -97 60 -97 72 0 13 10 25 19 24 3 0 23 -21 44 -46z m-494 -114 c-11 -22
-12 -22 -25 -4 -19 25 -18 41 1 25 12 -10 16 -9 22 6 4 10 8 13 10 7 3 -7 -1
-22 -8 -34z m-260 -129 c-23 -74 -51 -171 -64 -215 -13 -44 -24 -74 -24 -68
-1 14 34 237 50 323 6 30 13 65 15 77 4 21 40 36 56 23 4 -3 -11 -66 -33 -140z
m471 102 c0 -13 78 -290 101 -360 6 -19 9 -36 6 -38 -2 -2 -38 74 -80 169 -75
174 -77 180 -61 257 5 24 6 24 20 6 8 -11 14 -26 14 -34z m-510 6 c-1 -28 -2
-30 -11 -15 -6 10 -8 25 -5 33 9 24 16 16 16 -18z m590 6 c0 -14 -4 -23 -10
-19 -5 3 -10 15 -10 26 0 10 5 19 10 19 6 0 10 -12 10 -26z m-206 -142 c-2 -9
-15 -81 -30 -160 -14 -79 -28 -141 -30 -139 -3 2 3 72 12 154 16 141 16 154 0
194 l-16 44 34 -38 c19 -21 32 -46 30 -55z"/>
<path d="M941 2844 c0 -11 3 -14 6 -6 3 7 2 16 -1 19 -3 4 -6 -2 -5 -13z"/>
<path d="M1381 2704 c0 -11 3 -14 6 -6 3 7 2 16 -1 19 -3 4 -6 -2 -5 -13z"/>
<path d="M1373 2590 c0 -25 2 -35 4 -22 2 12 2 32 0 45 -2 12 -4 2 -4 -23z"/>
<path d="M1033 2585 c0 -22 2 -30 4 -17 2 12 2 30 0 40 -3 9 -5 -1 -4 -23z"/>
<path d="M1363 2435 c0 -27 2 -38 4 -22 2 15 2 37 0 50 -2 12 -4 0 -4 -28z"/>
<path d="M1023 2410 c0 -30 2 -43 4 -27 2 15 2 39 0 55 -2 15 -4 2 -4 -28z"/>
<path d="M1353 2190 c0 -25 2 -35 4 -22 2 12 2 32 0 45 -2 12 -4 2 -4 -23z"/>
</g>
</svg>
