<?xml version="1.0" standalone="no"?>
<!DOCTYPE svg PUBLIC "-//W3C//DTD SVG 20010904//EN"
 "http://www.w3.org/TR/2001/REC-SVG-20010904/DTD/svg10.dtd">
<svg version="1.0" xmlns="http://www.w3.org/2000/svg"
 width="244.000000pt" height="305.000000pt" viewBox="0 0 244.000000 305.000000"
 preserveAspectRatio="xMidYMid meet">
<metadata>
Created by potrace 1.16, written by Peter Selinger 2001-2019
</metadata>
<g transform="translate(0.000000,305.000000) scale(0.100000,-0.100000)"
fill="#000000" stroke="none">
<path d="M1031 2841 c-6 -39 -11 -86 -11 -105 0 -45 -18 -47 -22 -3 -2 17 -3
-47 -3 -143 0 -361 -10 -690 -21 -690 -12 0 -13 918 0 938 8 13 -1 69 -10 60
-10 -10 -54 -332 -63 -463 -19 -266 -23 -502 -9 -514 7 -6 24 -19 37 -29 30
-24 23 -59 -8 -42 -50 26 -116 -13 -109 -64 2 -17 9 -20 35 -18 24 2 37 -4 57
-25 36 -38 41 -61 21 -83 -14 -16 -16 -30 -11 -70 6 -48 6 -50 -17 -50 -32 0
-47 -18 -47 -57 0 -23 -5 -33 -16 -33 -13 0 -15 -12 -12 -80 3 -79 -3 -97 -20
-62 -27 52 -19 116 21 175 10 15 8 21 -12 38 -13 10 -38 19 -58 19 -29 0 -36
-5 -47 -32 -11 -26 -11 -40 1 -87 7 -31 16 -81 20 -113 5 -52 3 -58 -21 -83
-19 -19 -26 -36 -26 -64 0 -37 -2 -39 -62 -66 -35 -16 -96 -43 -137 -62 -40
-19 -75 -32 -78 -29 -5 4 9 16 192 156 53 41 101 82 105 91 6 9 5 32 -1 55 -6
21 -14 67 -19 103 l-7 66 -2 -93 c-1 -90 -1 -92 -23 -87 -13 3 -28 2 -33 -2
-22 -17 -297 -334 -293 -339 4 -3 160 58 281 110 46 20 47 10 2 -59 -19 -30
-30 -55 -25 -55 10 0 83 38 166 87 83 50 91 50 103 7 11 -40 1 -64 -25 -64
-20 0 -28 -24 -69 -190 -20 -80 -42 -170 -50 -200 -45 -171 -52 -221 -25 -170
7 12 31 48 54 79 23 31 63 85 89 119 26 35 47 60 47 55 0 -4 -11 -68 -25 -142
-30 -162 -30 -168 -1 -111 12 25 66 131 119 236 92 182 96 192 86 227 -5 21
-7 42 -4 47 16 26 104 -5 125 -45 11 -21 10 -27 -14 -55 -14 -17 -26 -38 -26
-46 0 -7 20 -134 44 -281 24 -148 47 -290 51 -316 3 -27 8 -47 10 -45 2 2 18
91 35 198 17 107 35 213 39 235 5 22 15 79 22 127 13 93 16 82 -36 155 -15 21
55 83 94 83 38 0 42 -7 31 -55 -8 -36 -3 -50 103 -256 61 -120 112 -217 114
-216 1 2 -7 55 -18 118 -11 62 -18 121 -17 129 2 8 50 -49 108 -127 57 -78
106 -140 108 -139 2 2 -29 129 -68 282 -69 269 -82 304 -116 304 -7 0 -14 6
-16 12 -6 18 13 88 24 88 8 0 60 -26 103 -52 96 -59 116 -70 121 -65 3 2 -9
28 -26 57 -17 29 -29 55 -26 57 2 3 83 -27 178 -65 95 -38 175 -68 177 -66 3
3 -159 192 -209 244 -8 9 -34 37 -58 63 -36 40 -47 46 -69 41 l-26 -7 5 87 c3
47 2 89 -3 92 -5 3 -9 -8 -9 -24 0 -16 -3 -64 -7 -106 l-6 -77 37 6 c31 6 40
4 57 -16 11 -13 42 -46 67 -74 73 -78 155 -175 151 -179 -4 -4 -80 49 -237
164 -112 83 -130 125 -97 234 30 99 14 146 -50 146 -29 0 -65 -20 -65 -36 0
-3 9 -22 20 -44 31 -60 26 -160 -7 -160 -12 0 -14 9 -9 45 8 50 -10 115 -31
115 -7 0 -13 9 -13 21 0 30 -18 59 -38 59 -15 0 -17 9 -14 60 3 39 0 60 -7 60
-19 0 -12 49 11 80 17 24 29 30 60 30 35 0 38 2 38 29 0 20 -9 36 -26 50 -33
26 -45 26 -79 0 -22 -18 -29 -19 -35 -9 -11 17 23 66 50 75 19 6 20 15 18 158
l-2 152 -3 -133 -4 -133 -32 -29 c-18 -16 -35 -30 -39 -30 -9 0 -3 934 5 947
4 6 3 23 -1 38 -7 24 -11 11 -26 -71 -9 -54 -21 -115 -26 -134 -5 -19 -14
-100 -20 -179 -6 -80 -13 -147 -16 -150 -3 -4 -4 114 -2 261 1 147 0 259 -4
248 -14 -37 -39 -341 -45 -538 -3 -111 -10 -205 -15 -208 -4 -3 -8 -16 -8 -29
0 -37 -18 -39 -22 -3 -3 29 -5 26 -14 -22 -9 -52 -10 -47 -17 94 -6 131 -37
376 -54 431 -6 19 -6 19 -14 -3 -16 -43 -48 -297 -56 -437 -6 -115 -8 -131
-14 -92 -9 58 -19 73 -19 28 0 -19 -4 -30 -10 -26 -5 3 -10 18 -10 33 -1 26
-1 26 -15 8 -9 -12 -15 -42 -15 -73 0 -33 -7 -67 -17 -86 -17 -31 -18 -23 -26
308 -4 187 -6 413 -5 503 2 89 3 162 2 162 0 0 -6 -31 -13 -69z m239 -834 l12
-358 -21 -20 -21 -20 1 438 c2 503 12 489 29 -40z m17 -39 c-2 -13 -4 -5 -4
17 -1 22 1 32 4 23 2 -10 2 -28 0 -40z m-205 -100 c-15 -15 -26 -4 -18 18 5
13 9 15 18 6 9 -9 9 -15 0 -24z m-52 7 c0 -8 -9 -15 -20 -15 -20 0 -26 11 -13
23 12 13 33 7 33 -8z m375 5 c3 -6 -1 -13 -10 -16 -19 -8 -30 0 -20 15 8 14
22 14 30 1z m83 -7 c2 -8 -6 -13 -22 -13 -25 0 -33 10 -19 24 10 10 36 3 41
-11z m-364 -137 c-13 -10 -23 -11 -31 -4 -19 16 -16 26 10 30 32 6 45 -9 21
-26z m261 15 c3 -5 1 -12 -5 -16 -14 -9 -52 4 -45 16 8 12 42 12 50 0z m-365
-56 c0 -14 -4 -25 -10 -25 -5 0 -10 11 -10 25 0 14 5 25 10 25 6 0 10 -11 10
-25z m450 -1 c0 -14 -5 -24 -11 -22 -6 2 -10 7 -10 11 1 4 1 14 1 22 0 8 5 15
10 15 6 0 10 -12 10 -26z m-309 -46 c1 -5 2 -12 3 -18 0 -5 11 -16 23 -25 12
-8 27 -32 34 -52 l12 -38 18 42 c10 23 27 47 38 53 12 6 21 17 21 25 0 8 6 15
13 16 6 0 22 2 35 3 19 2 22 -2 22 -34 0 -47 -4 -50 -46 -37 -43 13 -57 2 -83
-68 l-18 -48 -17 51 c-21 61 -44 78 -87 63 -24 -8 -31 -7 -34 4 -3 8 -7 22
-10 30 -8 27 5 40 40 40 19 0 36 -3 36 -7z m-157 -106 c16 -42 31 -83 34 -91
4 -10 1 -12 -7 -6 -18 10 -71 125 -71 153 0 41 15 22 44 -56z m66 -11 c0 -3
-4 -1 -9 5 -5 5 -12 27 -15 49 l-6 40 15 -45 c8 -25 15 -47 15 -49z m350 28
c-18 -43 -24 -28 -8 23 8 27 14 36 16 25 2 -10 -2 -32 -8 -48z m79 -12 c-17
-44 -70 -129 -77 -123 -3 3 9 36 26 73 17 38 36 82 43 98 12 29 13 29 17 7 2
-13 -2 -38 -9 -55z m-347 -34 c21 -24 32 -63 19 -63 -11 0 -51 57 -51 73 0 13
16 8 32 -10z m198 12 c0 -13 -30 -63 -46 -76 -15 -12 -16 -11 -9 21 4 19 12
41 17 48 10 12 38 17 38 7z m-399 -83 c-6 -11 -11 -56 -11 -99 -1 -88 -15 -83
-26 8 -7 62 17 142 37 122 8 -8 8 -17 0 -31z m595 -17 c8 -44 -5 -153 -16
-135 -4 7 -6 36 -3 65 3 30 0 61 -6 74 -12 22 -6 45 9 36 5 -3 12 -21 16 -40z
m-365 -45 c5 0 9 -7 9 -15 0 -18 -5 -18 -31 -5 -23 13 -26 35 -3 26 9 -3 20
-6 25 -6z m150 -4 c-17 -20 -51 -27 -51 -11 0 12 13 17 54 24 5 0 3 -5 -3 -13z
m-165 -78 c5 4 1 -2 -9 -14 -24 -29 -21 -47 13 -66 34 -19 37 -30 14 -53 -12
-12 -19 -13 -30 -4 -8 6 -37 12 -66 13 -34 1 -53 6 -56 15 -4 11 2 12 23 7 35
-9 44 4 36 52 -4 20 -5 45 -3 54 3 15 7 15 36 3 19 -8 37 -11 42 -7z m211 -36
c-7 -60 2 -78 31 -63 14 7 23 8 27 1 12 -20 -7 -32 -44 -26 -22 3 -47 0 -63
-8 -21 -11 -30 -12 -44 -2 -21 16 -10 56 16 56 21 0 33 25 24 53 -7 21 9 37
40 37 17 0 18 -6 13 -48z m283 1 c-1 -14 -27 -43 -39 -43 -16 0 -14 16 5 34
16 17 34 21 34 9z m-804 -40 c-10 -10 -19 5 -10 18 6 11 8 11 12 0 2 -7 1 -15
-2 -18z m134 -57 c0 -5 -7 -1 -15 10 -8 10 -14 24 -14 29 0 6 6 1 14 -9 8 -11
15 -24 15 -30z m495 -6 c-4 -12 -9 -19 -12 -17 -3 3 -2 15 2 27 4 12 9 19 12
17 3 -3 2 -15 -2 -27z m294 -70 c57 -84 51 -95 -14 -27 -55 57 -61 68 -48 80
13 14 22 6 62 -53z m-988 40 c10 -6 19 -15 19 -19 0 -5 -30 -28 -67 -52 -38
-23 -78 -49 -90 -57 -13 -8 -23 -10 -23 -6 0 10 127 144 136 144 3 0 14 -5 25
-10z m785 -16 c-4 -14 -4 -53 0 -86 7 -59 8 -61 49 -79 28 -12 44 -27 47 -41
4 -19 79 -304 104 -398 15 -57 -18 6 -120 223 -112 240 -131 299 -114 351 18
53 46 78 34 30z m-651 -14 c16 -30 21 -130 7 -130 -5 0 -14 -37 -22 -82 -18
-118 -38 -165 -120 -278 -40 -55 -74 -100 -76 -100 -5 0 27 76 107 248 16 35
29 65 29 67 0 3 16 39 36 80 36 79 37 92 18 198 -7 35 2 34 21 -3z m385 -24
c0 -2 -9 -6 -20 -9 -11 -3 -18 -1 -14 4 5 9 34 13 34 5z m-51 -128 c-7 -21
-15 -38 -18 -38 -13 0 -41 58 -40 82 1 22 1 22 9 -4 14 -46 22 -53 37 -33 7
11 14 30 14 44 1 20 2 22 6 7 3 -11 -1 -37 -8 -58z m-235 -30 c15 -56 4 -91
-76 -252 -45 -91 -83 -164 -85 -163 -4 5 81 267 99 302 8 17 18 50 22 74 4 24
9 48 12 53 9 15 22 8 28 -14z m479 -12 c-4 -51 -19 -50 -29 3 -6 29 -4 33 12
29 14 -3 18 -11 17 -32z m-231 -343 l-30 -228 -1 280 -1 280 31 -52 30 -52
-29 -228z m43 157 c-4 -34 -9 -59 -12 -56 -3 3 -2 32 2 66 4 34 9 59 12 56 3
-3 2 -32 -2 -66z m235 35 c21 -34 41 -111 53 -205 7 -54 6 -51 -49 113 -43
128 -44 157 -4 92z"/>
<path d="M982 2800 c0 -14 2 -19 5 -12 2 6 2 18 0 25 -3 6 -5 1 -5 -13z"/>
<path d="M1523 2789 c11 -43 37 -277 46 -404 7 -105 8 -111 10 -45 2 121 -37
453 -55 469 -4 3 -4 -6 -1 -20z"/>
<path d="M1442 2720 c0 -19 2 -27 5 -17 2 9 2 25 0 35 -3 9 -5 1 -5 -18z"/>
<path d="M1061 2714 c0 -11 3 -14 6 -6 3 7 2 16 -1 19 -3 4 -6 -2 -5 -13z"/>
<path d="M1073 2645 c0 -27 2 -38 4 -22 2 15 2 37 0 50 -2 12 -4 0 -4 -28z"/>
<path d="M1083 2495 c0 -27 2 -38 4 -22 2 15 2 37 0 50 -2 12 -4 0 -4 -28z"/>
<path d="M1094 2265 c0 -66 1 -92 3 -57 2 34 2 88 0 120 -2 31 -3 3 -3 -63z"/>
</g>
</svg>
