<?xml version="1.0" standalone="no"?>
<!DOCTYPE svg PUBLIC "-//W3C//DTD SVG 20010904//EN"
 "http://www.w3.org/TR/2001/REC-SVG-20010904/DTD/svg10.dtd">
<svg version="1.0" xmlns="http://www.w3.org/2000/svg"
 width="244.000000pt" height="305.000000pt" viewBox="0 0 244.000000 305.000000"
 preserveAspectRatio="xMidYMid meet">
<metadata>
Created by potrace 1.16, written by Peter Selinger 2001-2019
</metadata>
<g transform="translate(0.000000,305.000000) scale(0.100000,-0.100000)"
fill="#000000" stroke="none">
<path d="M1550 2900 c0 -8 -3 -26 -6 -40 -4 -20 -3 -22 5 -10 8 11 11 -122 11
-467 0 -271 -4 -483 -9 -483 -5 0 -15 7 -22 16 -7 9 -24 20 -38 25 l-24 10 7
202 c7 206 25 405 51 557 8 47 14 94 14 105 -2 37 -48 -232 -59 -346 -6 -63
-13 -212 -17 -331 -5 -207 -5 -218 13 -224 11 -4 33 -20 50 -36 l31 -29 34 31
c19 16 43 33 53 36 18 6 19 17 13 238 -7 288 -19 400 -69 641 -18 90 -38 143
-38 105z"/>
<path d="M896 2869 c-8 -43 -6 -58 4 -34 5 12 9 -182 9 -457 1 -263 -1 -478
-4 -478 -3 0 -23 12 -45 26 l-40 27 0 76 c1 162 21 426 45 596 14 98 24 179
22 182 -6 5 -33 -150 -52 -294 -14 -111 -35 -569 -27 -593 2 -6 12 -10 22 -10
10 0 20 -3 22 -7 2 -5 15 -19 31 -32 l27 -25 28 26 c15 14 37 31 50 37 22 12
23 14 21 184 -3 215 -21 439 -48 582 -44 238 -51 261 -65 194z"/>
<path d="M1106 2858 c-10 -46 -44 -681 -51 -933 -1 -56 -3 -60 -26 -62 -13 0
-31 -1 -40 -2 -27 -2 -49 -25 -63 -66 l-14 -40 -13 30 c-23 55 -49 75 -94 75
-48 0 -75 -22 -78 -65 -2 -27 0 -28 47 -29 40 -1 52 -7 72 -29 27 -32 31 -62
9 -83 -8 -9 -15 -26 -15 -39 0 -40 39 -130 75 -177 19 -23 35 -48 35 -54 0 -6
-11 -21 -24 -33 -40 -38 -51 -75 -36 -122 7 -21 11 -42 7 -45 -12 -12 -42 52
-44 96 -2 46 -10 106 -19 148 -3 17 -11 22 -34 22 -82 0 -92 -92 -23 -201 78
-124 84 -141 69 -190 l-14 -44 -1 48 c-1 56 -17 90 -78 170 -70 91 -80 150
-36 224 l27 46 -23 18 c-32 26 -95 25 -121 -1 -25 -25 -25 -28 1 -120 23 -82
20 -124 -11 -163 -21 -26 -189 -133 -315 -201 l-70 -38 140 136 140 137 42 -5
c27 -4 43 -1 45 7 3 7 0 54 -6 105 -13 121 -31 123 -22 2 l7 -90 -30 6 c-27 6
-44 -7 -215 -167 -102 -96 -182 -175 -178 -177 4 -1 111 33 237 75 224 76 230
79 233 106 3 26 6 28 30 22 81 -20 135 -69 148 -132 6 -28 3 -32 -24 -38 -37
-8 -47 -19 -60 -65 -5 -19 -42 -140 -81 -269 -39 -129 -71 -239 -71 -245 0
-12 82 77 259 283 73 84 130 159 127 167 -3 7 -8 28 -11 47 l-7 35 44 3 c74 6
81 2 75 -39 -12 -75 -57 -464 -56 -485 0 -21 74 182 104 287 8 27 18 53 23 58
5 5 35 -123 71 -304 35 -172 64 -314 65 -316 2 -1 32 145 68 325 l64 328 64
-192 c36 -106 65 -191 66 -190 1 1 -1 28 -4 60 -3 38 -8 54 -13 45 -5 -8 -7 7
-5 37 2 28 1 37 -2 20 -3 -21 -16 23 -43 150 -45 211 -45 215 -20 215 14 0 21
-8 24 -27 l4 -28 2 28 c1 26 3 27 61 27 65 0 66 -1 49 -60 l-12 -38 84 -98
c202 -233 301 -345 306 -340 2 2 -23 96 -56 208 -113 378 -103 352 -142 364
-43 14 -45 28 -17 84 24 46 84 87 138 92 21 3 26 -2 28 -25 2 -15 5 -27 6 -27
2 0 108 -36 236 -80 129 -44 235 -78 237 -77 1 2 -81 83 -184 181 -179 169
-188 177 -219 171 l-33 -6 6 91 c7 109 -11 125 -21 19 -3 -39 -11 -79 -16 -89
-23 -44 -12 -63 63 -111 234 -149 316 -203 313 -206 -3 -3 -197 64 -308 107
-60 24 -65 29 -48 60 8 15 4 24 -21 48 -42 39 -48 90 -20 180 25 84 26 101 5
130 -19 28 -91 31 -124 4 l-21 -17 27 -48 c22 -40 26 -57 22 -98 -5 -49 -9
-55 -104 -189 -12 -16 -28 -50 -35 -75 -19 -65 -38 -78 -29 -21 4 27 29 82 65
143 46 77 60 109 63 149 4 47 2 54 -21 69 -42 27 -71 17 -80 -30 -5 -22 -13
-54 -18 -71 -6 -20 -6 -41 0 -57 8 -20 5 -32 -15 -61 -14 -20 -29 -36 -34 -36
-15 0 -12 30 5 46 24 24 18 58 -20 107 -19 25 -35 48 -35 51 0 3 20 35 45 71
65 96 83 175 45 208 -27 23 -26 30 14 72 31 33 40 36 78 34 50 -4 59 11 34 60
-33 63 -120 48 -156 -27 -18 -38 -26 -40 -36 -9 -16 53 -61 79 -119 70 -31 -5
-40 -12 -55 -47 l-19 -41 0 32 c-1 24 7 37 36 60 l36 30 -11 90 c-7 49 -13
109 -13 134 -1 24 -3 35 -6 24 -2 -11 -8 -29 -13 -40 -5 -11 -11 -27 -14 -35
-2 -8 -5 169 -5 394 0 225 -2 410 -4 412 -3 4 -13 -141 -32 -471 -3 -44 -5
-145 -6 -225 l-2 -145 -7 115 c-10 146 -25 250 -52 365 l-21 90 -14 -45 c-36
-119 -60 -293 -65 -470 -1 -47 -5 3 -8 110 l-6 195 -1 -223 c-1 -123 -4 -227
-7 -230 -3 -3 -9 -2 -13 2 -5 4 -8 217 -8 472 0 255 -1 464 -2 464 -2 0 -5
-10 -7 -22z m103 -677 c-5 -156 -10 -286 -12 -288 -12 -11 -17 321 -7 397 13
97 17 137 19 164 0 11 3 17 5 15 2 -2 0 -132 -5 -288z m-59 -291 c0 -11 -4
-20 -10 -20 -5 0 -10 9 -10 20 0 11 5 20 10 20 6 0 10 -9 10 -20z m190 -6 c0
-8 -4 -14 -10 -14 -5 0 -10 9 -10 21 0 11 5 17 10 14 6 -3 10 -13 10 -21z
m-150 -89 c0 -35 -3 -66 -8 -69 -4 -2 -8 29 -8 69 0 40 4 71 8 69 5 -3 8 -34
8 -69z m-77 36 c2 -10 1 -25 -4 -32 -7 -11 -9 -11 -9 3 0 9 -3 23 -6 32 -3 9
-2 16 4 16 5 0 12 -9 15 -19z m-56 -67 c21 -6 39 -32 28 -42 -2 -3 -12 1 -20
8 -10 9 -19 10 -26 3 -12 -12 7 -69 27 -77 18 -7 19 -77 2 -95 -11 -10 -9 -15
8 -29 21 -17 39 -72 24 -72 -5 0 -20 15 -34 33 -14 17 -35 41 -45 52 -26 28
-41 60 -41 88 0 14 -7 30 -15 37 -22 18 -18 48 10 75 24 25 43 29 82 19z m438
-19 c28 -27 32 -57 10 -75 -8 -7 -15 -25 -15 -41 0 -28 -83 -148 -108 -157
-22 -7 -13 46 10 62 20 15 21 16 5 34 -18 20 -24 82 -8 82 19 0 41 32 41 61 0
29 -13 39 -25 19 -9 -15 -25 -2 -19 15 5 13 26 21 67 24 10 0 29 -10 42 -24z
m-345 -89 c0 -39 3 -45 23 -48 29 -4 29 -22 -1 -26 -25 -4 -28 2 -37 71 -4 30
-2 47 4 47 6 0 11 -20 11 -44z m184 -14 c-7 -54 -23 -76 -47 -66 -24 9 -21 23
8 34 21 8 25 16 25 50 0 24 4 39 10 35 5 -3 7 -26 4 -53z m-134 18 c0 -21 -5
-30 -16 -30 -9 0 -13 5 -10 13 3 6 9 20 12 30 9 25 14 21 14 -13z m-251 -106
c31 -67 39 -100 21 -89 -16 10 -58 88 -65 123 -11 54 11 37 44 -34z m408 34
c-3 -7 -5 -2 -5 12 0 14 2 19 5 13 2 -7 2 -19 0 -25z m209 5 c-9 -40 -46 -110
-67 -129 -18 -16 -19 -16 -19 8 0 14 9 37 20 51 11 14 27 42 35 61 18 43 40
49 31 9z m-321 -70 c-3 -8 -5 -24 -6 -36 -1 -20 -2 -20 -9 3 -12 38 -11 47 5
47 10 0 14 -6 10 -14z m-85 -77 c11 -33 18 -61 16 -64 -6 -5 -43 75 -52 113
-11 51 13 16 36 -49z m186 51 c-8 -34 -47 -119 -52 -115 -3 4 32 114 43 131 9
15 15 6 9 -16z m-301 -66 c3 -5 1 -12 -5 -16 -5 -3 -10 1 -10 9 0 18 6 21 15
7z m395 -17 c0 -8 -4 -14 -10 -14 -5 0 -10 9 -10 21 0 11 5 17 10 14 6 -3 10
-13 10 -21z m-320 -48 c-13 -13 -45 17 -35 34 5 8 12 6 26 -6 13 -12 16 -21 9
-28z m252 2 c-6 -6 -15 -7 -22 -3 -8 5 -6 13 7 27 16 18 18 19 21 3 2 -9 -1
-22 -6 -27z m-375 -90 c-2 -13 -4 -3 -4 22 0 25 2 35 4 23 2 -13 2 -33 0 -45z
m480 0 c-2 -13 -4 -3 -4 22 0 25 2 35 4 23 2 -13 2 -33 0 -45z m-418 -20 c6
-26 11 -55 10 -65 -1 -25 -37 76 -38 107 -1 36 15 12 28 -42z m116 52 c3 -6
-1 -13 -10 -16 -19 -8 -30 0 -20 15 8 14 22 14 30 1z m151 -18 c-9 -9 -37 8
-31 18 5 8 11 7 21 -1 8 -6 12 -14 10 -17z m98 -34 c-8 -35 -20 -67 -26 -73
-8 -7 -9 -5 -6 5 3 9 11 41 18 73 6 31 15 57 20 57 4 0 2 -28 -6 -62z m-304
-58 c9 -6 18 -3 25 7 14 19 45 11 45 -11 0 -8 -14 -22 -32 -30 -46 -23 -61 -5
-64 76 -3 60 -2 61 5 15 4 -27 13 -52 21 -57z m256 25 c-4 -23 -12 -50 -19
-59 -12 -16 -15 -16 -45 1 -35 20 -41 40 -16 50 10 4 22 -1 29 -11 12 -16 14
-16 29 6 9 12 17 38 17 58 1 19 3 27 6 16 3 -10 2 -37 -1 -61z m-406 -60 c0
-16 -6 -25 -15 -25 -18 0 -20 21 -3 38 17 17 18 16 18 -13z m580 5 c0 -11 -7
-20 -15 -20 -8 0 -15 2 -15 4 0 2 -3 11 -6 20 -4 12 0 16 15 16 14 0 21 -6 21
-20z m-689 -153 c-10 -9 -11 -8 -5 6 3 10 9 15 12 12 3 -3 0 -11 -7 -18z m825
-165 c68 -130 101 -190 161 -299 19 -35 33 -63 30 -63 -6 0 -147 165 -235 274
-62 78 -70 91 -61 113 5 13 9 47 9 75 0 70 14 56 96 -100z m-887 10 c-73 -136
-99 -182 -124 -222 -12 -19 -34 -59 -49 -89 -15 -29 -30 -51 -33 -48 -4 5 8
47 99 338 29 94 30 95 68 106 28 7 41 7 44 -1 2 -6 12 -2 22 11 37 44 25 1
-27 -95z m451 79 c0 -9 -20 -37 -20 -29 0 3 -2 13 -5 21 -4 8 0 14 10 14 8 0
15 -3 15 -6z m-149 -48 c1 -21 1 -45 0 -53 -2 -22 -99 -317 -100 -305 -1 9 56
293 74 373 8 35 25 26 26 -15z m64 -22 c6 -14 -30 -60 -39 -50 -2 2 -7 26 -11
53 l-8 49 26 -19 c14 -10 29 -25 32 -33z m190 -6 c0 -25 -4 -45 -9 -45 -13 0
-46 31 -46 44 0 12 43 55 50 49 2 -2 4 -24 5 -48z m-150 -22 c-17 -39 -17 -73
-5 -250 7 -101 11 -186 8 -188 -3 -4 -78 358 -78 377 0 12 61 78 72 78 6 0 7
-8 3 -17z"/>
<path d="M1122 2745 c0 -16 2 -22 5 -12 2 9 2 23 0 30 -3 6 -5 -1 -5 -18z"/>
<path d="M1373 2655 c0 -22 2 -30 4 -17 2 12 2 30 0 40 -3 9 -5 -1 -4 -23z"/>
<path d="M1133 2555 c0 -27 2 -38 4 -22 2 15 2 37 0 50 -2 12 -4 0 -4 -28z"/>
<path d="M1384 2465 c0 -55 1 -76 3 -47 2 29 2 74 0 100 -2 26 -3 2 -3 -53z"/>
<path d="M1443 840 c0 -25 2 -35 4 -22 2 12 2 32 0 45 -2 12 -4 2 -4 -23z"/>
<path d="M1453 745 c0 -22 2 -30 4 -17 2 12 2 30 0 40 -3 9 -5 -1 -4 -23z"/>
<path d="M1463 665 c0 -22 2 -30 4 -17 2 12 2 30 0 40 -3 9 -5 -1 -4 -23z"/>
</g>
</svg>
