<?xml version="1.0" standalone="no"?>
<!DOCTYPE svg PUBLIC "-//W3C//DTD SVG 20010904//EN"
 "http://www.w3.org/TR/2001/REC-SVG-20010904/DTD/svg10.dtd">
<svg version="1.0" xmlns="http://www.w3.org/2000/svg"
 width="244.000000pt" height="305.000000pt" viewBox="0 0 244.000000 305.000000"
 preserveAspectRatio="xMidYMid meet">
<metadata>
Created by potrace 1.16, written by Peter Selinger 2001-2019
</metadata>
<g transform="translate(0.000000,305.000000) scale(0.100000,-0.100000)"
fill="#000000" stroke="none">
<path d="M926 2893 c-8 -29 -34 -180 -50 -298 -18 -125 -36 -408 -36 -565 0
-105 0 -106 28 -122 15 -9 36 -26 46 -37 l19 -21 34 31 c28 24 38 28 49 18 21
-18 17 -27 -17 -34 -18 -4 -34 -16 -39 -28 -4 -12 -12 -33 -18 -47 l-9 -25
-16 37 c-8 20 -27 44 -41 53 -48 32 -116 -5 -116 -62 0 -20 5 -23 41 -23 67 0
126 -75 85 -109 -14 -12 -16 -188 -2 -301 4 -39 3 -48 -3 -30 -5 14 -13 52
-17 85 -3 33 -9 54 -11 48 -3 -7 -15 -13 -28 -13 -13 0 -31 -8 -40 -17 -17
-17 -17 -60 1 -150 9 -47 -9 -41 -34 11 -29 57 -28 106 3 163 23 44 23 48 8
65 -22 25 -101 25 -119 1 -18 -24 -17 -47 5 -134 23 -88 16 -153 -19 -181 -18
-15 -21 -24 -16 -52 4 -23 2 -35 -6 -39 -7 -3 -82 -33 -166 -67 -85 -34 -155
-60 -157 -58 -2 2 32 28 76 58 44 30 124 86 177 124 107 75 105 71 83 175 -6
29 -11 69 -11 87 0 19 -5 34 -11 34 -9 0 -10 -25 -6 -90 l6 -89 -28 5 c-24 5
-44 -11 -203 -172 -97 -98 -175 -180 -173 -182 3 -4 215 71 363 128 71 28 82
35 82 56 0 20 5 24 30 24 48 0 47 -23 -4 -107 -25 -41 -46 -79 -46 -84 0 -4
39 16 88 45 73 45 88 51 94 37 13 -31 8 -52 -15 -60 -42 -16 -39 -9 -127 -326
-23 -82 -46 -161 -50 -175 -5 -14 -12 -41 -15 -60 l-6 -35 23 26 c13 14 55 66
93 114 39 48 86 106 105 129 19 23 46 57 59 74 13 18 26 30 29 28 2 -3 -8 -77
-23 -166 -25 -151 -28 -204 -6 -149 5 13 50 107 101 209 89 179 92 187 86 238
-4 33 -2 52 4 52 21 0 83 -31 96 -48 20 -26 17 -38 -16 -72 -17 -17 -28 -35
-26 -39 3 -4 21 -101 41 -217 20 -115 42 -236 49 -269 8 -33 17 -82 21 -108 3
-27 8 -47 10 -45 3 3 60 303 100 533 20 111 19 128 -10 155 -14 13 -25 29 -25
35 0 21 55 64 85 67 l30 3 -3 -51 c-3 -48 4 -67 107 -275 61 -123 110 -219
111 -214 0 6 -13 89 -30 185 -16 96 -30 179 -30 184 0 4 30 -30 68 -76 146
-183 226 -278 230 -274 4 5 -132 506 -148 543 -5 12 -22 24 -39 28 -31 7 -37
19 -25 49 9 24 21 20 119 -39 49 -30 91 -52 93 -50 3 2 -21 45 -52 95 -31 49
-56 94 -56 99 0 10 24 21 45 21 8 0 15 -12 17 -26 3 -23 14 -31 78 -56 125
-51 350 -130 350 -124 0 4 -61 68 -204 214 -118 121 -133 133 -159 128 l-28
-6 7 90 c5 65 4 90 -5 90 -6 0 -11 -16 -11 -37 0 -21 -3 -69 -7 -106 l-6 -68
40 7 40 6 126 -128 c69 -71 124 -130 122 -132 -6 -6 -43 17 -192 115 -93 61
-148 104 -158 123 -19 37 -19 96 0 150 37 105 1 159 -92 134 -33 -9 -35 -30
-7 -85 28 -53 28 -87 -1 -156 -19 -44 -40 -44 -30 0 14 66 16 106 6 125 -13
25 -71 56 -72 39 0 -7 -7 11 -14 38 -8 29 -12 69 -9 95 5 35 2 49 -10 59 -25
21 -19 53 16 90 26 28 36 32 65 28 21 -4 33 -2 34 6 5 52 -21 87 -63 87 -43 0
-68 -17 -85 -58 l-16 -37 -13 47 c-15 49 -37 65 -74 53 -24 -8 -26 7 -4 29 17
18 38 11 67 -24 l18 -21 33 28 c18 15 41 33 51 38 16 10 17 21 8 140 l-10 130
-2 -120 -1 -120 -35 -22 c-19 -13 -37 -23 -40 -23 -3 0 -5 212 -5 471 0 311 3
468 10 464 12 -7 12 12 0 40 -6 16 -9 17 -14 5 -7 -20 -42 -219 -52 -295 -7
-58 -8 -55 -25 100 -10 88 -22 175 -26 193 -4 19 -7 -195 -6 -475 1 -283 -2
-495 -7 -478 -17 62 -33 174 -40 275 l-6 105 -2 -101 c-3 -136 -13 -229 -23
-212 -5 7 -9 32 -9 54 0 23 -7 55 -15 70 -8 16 -15 55 -15 88 0 90 -46 375
-63 393 -16 15 -64 -275 -69 -410 -1 -49 -7 -82 -15 -89 -7 -6 -13 -31 -13
-59 0 -26 -4 -50 -9 -53 -10 -7 -18 82 -26 309 -9 227 -42 602 -52 591 -3 -2
-4 -226 -4 -498 1 -558 -13 -642 -25 -148 -4 173 -10 306 -14 295 -4 -12 -9 6
-13 49 -7 79 -37 249 -43 243 -2 -2 6 -64 17 -138 18 -114 33 -340 43 -644 2
-67 1 -71 -33 -107 -19 -21 -39 -38 -43 -38 -4 0 -6 227 -5 505 1 278 1 505 0
505 -1 0 -4 -8 -7 -17z m362 -743 c5 -85 6 -189 2 -230 -6 -65 -7 -55 -8 71
-1 80 -4 188 -7 240 -3 52 -3 90 -1 84 3 -5 9 -80 14 -165z m-201 -296 c-9 -9
-28 6 -21 18 4 6 10 6 17 -1 6 -6 8 -13 4 -17z m323 12 c0 -11 -19 -15 -25 -6
-3 5 1 10 9 10 9 0 16 -2 16 -4z m-290 -127 c-12 -22 -30 -25 -30 -6 0 17 21
38 32 31 4 -3 3 -14 -2 -25z m256 -15 c-6 -16 -8 -16 -22 4 -19 28 -8 51 14
29 8 -9 12 -23 8 -33z m-352 -7 c7 -19 5 -40 -6 -74 -15 -44 -16 -46 -17 -17
-1 17 -8 37 -16 44 -18 15 -19 34 -3 60 16 25 30 21 42 -13z m469 -1 c7 -20 5
-31 -6 -44 -8 -9 -17 -28 -20 -42 -4 -25 -4 -24 -6 3 0 15 -5 27 -11 27 -13 0
-13 46 1 71 13 26 30 20 42 -15z m-194 -69 c1 -10 -3 -15 -9 -12 -5 3 -10 21
-9 38 0 27 2 29 9 12 5 -11 9 -28 9 -38z m-139 -22 c0 -7 9 -15 20 -18 11 -3
27 -21 35 -41 9 -20 17 -36 20 -36 3 0 11 16 19 35 9 20 26 39 41 45 14 5 25
16 25 24 0 7 6 19 14 25 17 14 46 -10 46 -37 0 -34 -16 -45 -53 -39 -42 7 -55
-5 -78 -72 l-16 -46 -7 35 c-14 62 -31 80 -80 80 -37 0 -45 4 -50 23 -8 31 -8
34 10 52 15 15 18 15 35 -1 11 -9 19 -23 19 -29z m-195 -57 c14 -29 43 -75 65
-103 41 -51 51 -79 26 -69 -35 13 -126 159 -126 201 0 35 8 28 35 -29z m124
-56 c7 -13 10 -28 8 -35 -7 -21 -37 51 -42 100 l-5 48 13 -45 c8 -25 19 -55
26 -68z m327 45 c-7 -35 -44 -102 -52 -94 -3 3 4 23 14 44 11 21 24 57 28 78
5 24 10 33 12 22 2 -11 1 -33 -2 -50z m124 41 c0 -37 -45 -120 -90 -168 -60
-63 -64 -34 -6 40 26 33 54 80 63 105 19 49 33 59 33 23z m-377 -121 c6 -22 6
-22 -14 2 -22 27 -26 49 -5 32 8 -6 16 -22 19 -34z m177 34 c0 -11 -39 -59
-40 -49 0 14 23 58 32 58 4 0 8 -4 8 -9z m203 -111 c7 -32 0 -60 -14 -60 -5 0
-9 23 -9 51 0 54 13 59 23 9z m-593 -15 c0 -25 -4 -45 -10 -45 -11 0 -14 73
-3 83 11 12 13 8 13 -38z m228 -14 c3 -8 -1 -12 -9 -9 -7 2 -15 10 -17 17 -3
8 1 12 9 9 7 -2 15 -10 17 -17z m134 4 c0 -5 -5 -11 -11 -13 -6 -2 -11 4 -11
13 0 9 5 15 11 13 6 -2 11 -8 11 -13z m-272 -99 c0 -45 4 -58 22 -70 31 -22
41 -10 34 44 -7 52 -3 60 23 53 14 -3 18 -14 17 -41 -1 -31 3 -38 21 -40 23
-3 41 -39 26 -51 -4 -4 -37 -5 -71 -3 -62 4 -64 5 -78 38 -16 38 -19 124 -4
124 6 0 10 -24 10 -54z m407 -12 c-2 -36 -11 -72 -18 -79 -8 -7 -43 -15 -79
-17 -64 -3 -65 -2 -65 22 0 18 6 26 23 28 18 3 22 10 22 38 0 20 -5 34 -12 35
-7 1 1 5 17 8 17 4 33 6 38 4 4 -2 4 -29 1 -59 -5 -42 -4 -54 7 -54 38 1 63
51 49 99 -8 30 -5 41 13 41 6 0 8 -26 4 -66z m-560 4 c-3 -7 -5 -2 -5 12 0 14
2 19 5 13 2 -7 2 -19 0 -25z m-62 -49 c19 -35 10 -54 -11 -25 -13 19 -20 56
-9 56 2 0 12 -14 20 -31z m815 -31 c0 -7 -5 -20 -10 -28 -8 -12 -10 -9 -10 13
0 15 5 27 10 27 6 0 10 -6 10 -12z m-31 -146 c1 -59 15 -79 60 -93 35 -10 40
-16 51 -58 7 -25 23 -82 35 -126 50 -171 74 -260 70 -263 -1 -2 -60 107 -129
242 -133 259 -144 291 -115 363 l12 28 7 -25 c5 -14 8 -44 9 -68z m-854 68 c3
-5 -15 -31 -40 -57 -46 -47 -46 -48 -29 -13 36 74 55 93 69 70z m140 -17 c6
-16 17 -164 18 -235 0 -14 -9 -37 -19 -51 -10 -13 -58 -75 -105 -138 -156
-205 -159 -204 -50 16 144 291 146 298 135 355 -10 49 -8 70 6 70 4 0 11 -8
15 -17z m857 -18 c53 -61 70 -85 59 -85 -5 0 -16 6 -23 13 -7 7 -34 26 -60 41
-51 30 -55 35 -36 54 18 18 26 15 60 -23z m-496 -130 c-18 -41 -29 -39 -45 7
l-11 33 20 -25 19 -25 12 35 c7 19 14 29 16 23 2 -6 -3 -28 -11 -48z m-246
-13 c0 -9 -30 -106 -86 -281 -19 -58 -34 -110 -34 -117 0 -7 -4 -15 -8 -18 -5
-3 -6 14 -2 37 28 168 44 237 60 269 11 21 15 40 10 43 -8 5 -4 50 6 67 7 11
54 10 54 0z m465 -37 c40 -125 115 -376 115 -387 0 -12 -25 36 -110 217 -50
106 -53 119 -45 172 8 53 22 52 40 -2z m-160 -81 c15 -23 16 -35 5 -103 -14
-97 -38 -202 -39 -176 0 11 6 72 14 135 12 97 12 119 0 143 -17 34 -3 35 20 1z"/>
<path d="M1402 2810 c0 -14 2 -19 5 -12 2 6 2 18 0 25 -3 6 -5 1 -5 -13z"/>
<path d="M1552 2800 c0 -14 2 -19 5 -12 2 6 2 18 0 25 -3 6 -5 1 -5 -13z"/>
<path d="M1032 2740 c0 -19 2 -27 5 -17 2 9 2 25 0 35 -3 9 -5 1 -5 -18z"/>
<path d="M1393 2715 c0 -27 2 -38 4 -22 2 15 2 37 0 50 -2 12 -4 0 -4 -28z"/>
<path d="M1560 2738 c0 -14 4 -47 9 -74 5 -27 17 -139 26 -249 9 -110 18 -204
21 -210 9 -22 -9 277 -22 370 -8 55 -18 118 -21 140 -6 47 -13 59 -13 23z"/>
<path d="M1023 2630 c0 -25 2 -35 4 -22 2 12 2 32 0 45 -2 12 -4 2 -4 -23z"/>
<path d="M1383 2590 c0 -30 2 -43 4 -27 2 15 2 39 0 55 -2 15 -4 2 -4 -28z"/>
<path d="M1373 2440 c0 -41 2 -58 4 -37 2 20 2 54 0 75 -2 20 -4 3 -4 -38z"/>
</g>
</svg>
