<?xml version="1.0" standalone="no"?>
<!DOCTYPE svg PUBLIC "-//W3C//DTD SVG 20010904//EN"
 "http://www.w3.org/TR/2001/REC-SVG-20010904/DTD/svg10.dtd">
<svg version="1.0" xmlns="http://www.w3.org/2000/svg"
 width="244.000000pt" height="305.000000pt" viewBox="0 0 244.000000 305.000000"
 preserveAspectRatio="xMidYMid meet">
<metadata>
Created by potrace 1.16, written by Peter Selinger 2001-2019
</metadata>
<g transform="translate(0.000000,305.000000) scale(0.100000,-0.100000)"
fill="#000000" stroke="none">
<path d="M882 2880 c-14 -40 -15 -61 -2 -40 11 18 11 28 13 -528 1 -222 -2
-406 -6 -409 -5 -3 -18 4 -30 14 -12 11 -30 23 -39 26 -16 6 -18 21 -18 114 0
146 16 357 41 536 11 82 18 151 16 153 -5 6 -32 -144 -47 -261 -6 -44 -13
-188 -16 -320 l-6 -240 55 -36 56 -36 21 22 c12 13 36 29 53 36 l30 13 -7 205
c-10 326 -39 565 -90 740 l-13 45 -11 -34z"/>
<path d="M1568 2883 c-2 -18 -1 -30 4 -27 4 3 8 -211 8 -475 0 -510 0 -511
-45 -461 -10 11 -24 20 -31 20 -8 0 -17 12 -20 26 -12 47 15 474 41 653 14 95
24 175 22 177 -6 6 -45 -228 -57 -336 -5 -52 -13 -194 -17 -316 l-6 -220 30
-13 c17 -7 41 -23 53 -36 l23 -24 30 25 c17 14 42 30 56 35 l24 10 -6 217 c-4
119 -14 278 -23 352 -15 137 -55 355 -72 400 -9 24 -9 24 -14 -7z"/>
<path d="M862 2785 c0 -16 2 -22 5 -12 2 9 2 23 0 30 -3 6 -5 -1 -5 -18z"/>
<path d="M1201 2630 c-1 -85 -4 -162 -6 -170 -27 -132 -43 -301 -46 -482 -1
-113 -13 -159 -23 -92 -17 109 -38 210 -45 217 -11 11 -31 -73 -37 -153 -5
-65 -5 -65 28 -85 24 -15 34 -29 38 -55 11 -75 -10 -104 -56 -80 -32 18 -38 9
-24 -34 17 -51 67 -60 91 -15 17 32 30 21 24 -21 -4 -35 -2 -40 23 -52 18 -9
28 -22 30 -41 l3 -29 -30 23 c-32 24 -83 28 -107 8 -22 -18 -17 -26 30 -39 55
-15 74 -54 78 -155 3 -67 2 -70 -24 -83 -34 -16 -39 -61 -8 -69 29 -8 29 -73
0 -73 -21 0 -42 -30 -32 -46 4 -6 16 -16 27 -22 19 -11 19 -11 -2 -12 -30 0
-56 40 -47 74 5 23 3 26 -22 27 -48 2 -68 -2 -92 -18 -34 -21 -65 -9 -106 41
-31 37 -36 50 -35 92 2 66 -11 147 -25 156 -22 15 -66 8 -86 -14 -34 -36 -21
-95 44 -198 71 -112 96 -164 96 -195 0 -32 -20 -72 -129 -255 -48 -80 -106
-178 -129 -217 -40 -69 -56 -89 -48 -60 13 41 84 257 111 337 l32 95 46 14
c52 16 67 42 67 118 0 53 -18 91 -76 159 -77 90 -92 158 -49 222 44 64 26 92
-58 92 -31 0 -49 -6 -62 -20 -20 -22 -18 -48 10 -150 25 -92 11 -124 -84 -185
-39 -25 -73 -45 -74 -45 -2 0 -59 -31 -128 -69 -68 -38 -126 -68 -128 -66 -4
5 -4 5 157 149 l132 118 46 -7 45 -6 -7 98 c-9 133 -26 157 -21 30 l3 -97 -33
6 c-30 6 -42 -3 -220 -162 -103 -92 -190 -169 -192 -171 -2 -2 -2 -6 2 -9 3
-3 86 19 184 51 328 104 303 94 303 121 0 35 21 39 77 14 59 -26 91 -55 110
-98 17 -40 13 -47 -32 -62 -38 -13 -25 20 -150 -373 -37 -115 -64 -211 -62
-213 3 -3 14 7 26 22 11 14 67 77 124 138 57 61 139 149 181 196 82 90 82 91
60 168 l-7 24 100 -4 c91 -3 103 -5 136 -31 20 -15 37 -33 37 -40 0 -6 -14
-26 -32 -44 -36 -37 -37 -12 11 -243 84 -403 101 -476 101 -433 0 5 14 75 30
154 17 79 44 209 60 289 17 80 33 157 36 172 5 22 0 35 -25 63 -17 20 -31 39
-31 44 0 13 43 49 73 60 35 14 184 14 192 1 3 -5 -1 -25 -9 -44 -14 -33 -13
-36 12 -69 52 -67 377 -416 380 -408 3 10 -154 514 -169 543 -5 9 -25 22 -44
28 -41 13 -44 30 -14 79 28 46 55 67 113 87 51 17 65 12 66 -28 0 -12 39 -29
163 -68 89 -28 197 -63 240 -77 43 -14 80 -23 83 -21 5 5 2 7 -221 206 -149
134 -162 143 -192 137 l-32 -6 6 91 c4 64 3 90 -6 90 -6 0 -11 -17 -11 -42 0
-24 -5 -61 -11 -83 -26 -98 -28 -95 53 -144 40 -24 96 -59 123 -76 28 -17 85
-53 128 -79 43 -27 77 -50 75 -51 -2 -2 -80 23 -173 56 -94 34 -178 63 -187
66 -19 6 -21 16 -9 48 6 15 0 27 -26 51 -28 27 -33 38 -33 77 0 25 9 74 20
109 25 79 25 93 0 118 -25 25 -95 27 -128 5 l-21 -16 29 -57 c27 -51 29 -62
22 -104 -5 -27 -22 -63 -38 -84 -117 -146 -152 -254 -106 -329 60 -98 242
-428 238 -432 -2 -2 -71 73 -153 167 -106 123 -147 178 -146 193 2 12 5 61 7
108 5 95 15 124 75 219 22 36 50 82 61 102 26 48 27 119 2 141 -22 20 -65 22
-79 5 -13 -16 -25 -86 -27 -154 -1 -59 -36 -113 -84 -133 -25 -10 -35 -10 -60
3 -17 9 -49 16 -72 16 -40 0 -40 0 -40 -39 0 -42 -19 -65 -47 -58 -15 3 -13 6
10 15 15 6 27 17 27 25 0 19 -21 37 -42 37 -10 0 -18 7 -18 15 0 8 -4 15 -10
15 -5 0 -10 9 -10 21 0 14 6 19 18 17 48 -8 60 52 15 74 -27 13 -28 16 -25 82
3 70 25 133 52 147 8 4 28 10 43 14 32 7 31 24 -2 41 -28 14 -64 7 -90 -17
-27 -25 -31 -24 -31 9 0 20 8 32 30 44 27 15 29 21 24 53 -3 21 -1 35 5 35 6
0 11 -4 11 -10 0 -17 48 -42 68 -36 20 7 46 72 31 81 -4 3 -17 0 -27 -6 -30
-19 -49 -4 -57 40 -9 54 0 76 40 100 39 23 40 28 24 134 -10 67 -26 114 -34
105 -2 -2 -13 -57 -25 -123 -12 -66 -25 -124 -29 -128 -5 -5 -11 79 -15 185
-8 216 -26 364 -58 483 l-21 79 -13 -34 c-11 -32 -12 -24 -16 90 l-4 125 -3
-155z m31 -378 c-1 -141 -6 -270 -12 -287 -6 -20 -8 58 -5 235 2 146 4 278 5
294 0 16 3 26 7 22 4 -4 6 -122 5 -264z m-22 -352 c8 12 10 11 10 -7 0 -12 -3
-29 -6 -38 -6 -13 -9 -14 -16 -3 -5 7 -6 -37 -2 -106 7 -113 6 -118 -12 -114
-18 3 -19 15 -18 233 1 126 8 293 15 370 l14 140 3 -245 c2 -161 6 -240 12
-230z m27 -32 c-3 -7 -5 -2 -5 12 0 14 2 19 5 13 2 -7 2 -19 0 -25z m-10 -147
c-1 -66 -5 -117 -9 -115 -12 8 -5 234 8 234 1 0 2 -54 1 -119z m10 -43 c-3 -8
-6 -5 -6 6 -1 11 2 17 5 13 3 -3 4 -12 1 -19z m11 -176 c-4 -37 -28 -40 -28
-4 0 19 5 29 16 29 10 0 14 -8 12 -25z m-54 -472 c3 -21 2 -49 -3 -62 -8 -21
-9 -19 -15 17 -16 94 -16 94 -2 89 8 -3 16 -23 20 -44z m106 -3 c0 -47 -13
-79 -23 -55 -8 21 4 108 14 102 5 -3 9 -24 9 -47z m-72 -97 c5 0 7 -24 5 -52
-5 -58 -5 -98 -3 -268 1 -63 1 -160 0 -215 -2 -113 -10 -102 -35 48 -8 48 -16
91 -19 96 -3 4 -17 61 -31 125 l-25 117 33 41 32 40 3 -41 c2 -22 7 -41 11
-41 5 0 8 44 6 98 -1 60 1 89 6 75 5 -13 12 -23 17 -23z"/>
<path d="M1182 650 c0 -80 2 -88 9 -51 5 24 5 66 0 95 -8 46 -9 42 -9 -44z"/>
<path d="M1263 2660 c0 -25 2 -35 4 -22 2 12 2 32 0 45 -2 12 -4 2 -4 -23z"/>
<path d="M960 1857 c-14 -6 -35 -31 -47 -55 -18 -37 -22 -40 -28 -22 -3 11
-18 34 -32 50 -21 26 -32 30 -73 30 -55 0 -80 -23 -80 -72 0 -25 3 -28 25 -22
36 9 68 -2 98 -32 30 -29 35 -69 12 -78 -9 -3 -15 -18 -15 -38 1 -60 21 -99
108 -218 11 -15 8 -24 -28 -64 -22 -26 -40 -57 -40 -70 0 -31 40 -66 83 -73
29 -4 36 -2 42 15 3 12 1 30 -4 41 -13 23 -14 61 -3 78 6 10 24 7 75 -9 51
-17 72 -20 85 -12 31 20 18 36 -48 62 -104 42 -206 161 -198 230 3 25 6 22 35
-30 48 -84 154 -178 201 -178 36 0 26 27 -25 64 -75 54 -133 131 -133 177 0
18 -7 32 -20 39 -28 15 -25 37 10 72 28 27 36 30 75 25 43 -4 45 -3 45 22 -1
33 -19 57 -54 71 -34 13 -35 12 -66 -3z"/>
<path d="M1434 1856 c-33 -15 -44 -33 -44 -72 0 -22 3 -23 43 -18 34 5 47 2
70 -16 30 -24 38 -74 12 -84 -8 -3 -15 -18 -15 -33 0 -50 -72 -145 -136 -179
-31 -17 -55 -57 -42 -70 3 -2 22 3 43 12 57 23 159 126 184 185 12 27 24 49
28 49 17 0 -10 -86 -42 -135 -40 -60 -101 -108 -174 -136 -49 -18 -57 -35 -28
-53 13 -8 31 -6 79 11 45 15 66 19 75 11 15 -12 17 -74 3 -83 -5 -3 -10 -14
-10 -25 0 -25 43 -34 78 -16 64 33 65 66 7 136 -37 44 -37 45 7 101 15 21 37
57 48 80 24 54 27 134 5 143 -24 9 -17 36 20 73 30 30 40 34 77 32 45 -4 54 6
44 46 -8 32 -59 58 -96 50 -27 -6 -60 -36 -86 -81 -10 -17 -13 -16 -27 18 -9
21 -28 43 -46 52 -36 19 -37 19 -77 2z"/>
</g>
</svg>
