<?xml version="1.0" standalone="no"?>
<!DOCTYPE svg PUBLIC "-//W3C//DTD SVG 20010904//EN"
 "http://www.w3.org/TR/2001/REC-SVG-20010904/DTD/svg10.dtd">
<svg version="1.0" xmlns="http://www.w3.org/2000/svg"
 width="244.000000pt" height="305.000000pt" viewBox="0 0 244.000000 305.000000"
 preserveAspectRatio="xMidYMid meet">
<metadata>
Created by potrace 1.16, written by Peter Selinger 2001-2019
</metadata>
<g transform="translate(0.000000,305.000000) scale(0.100000,-0.100000)"
fill="#000000" stroke="none">
<path d="M931 2893 c-1 -12 -4 -29 -8 -39 -4 -12 -3 -15 5 -10 9 5 12 -107 12
-463 0 -258 -3 -472 -7 -474 -5 -3 -23 8 -42 23 l-33 28 1 134 c2 208 10 341
32 502 20 155 23 206 9 146 -27 -114 -60 -515 -60 -735 l0 -80 40 -23 c22 -12
40 -27 40 -32 0 -18 22 -10 57 20 18 17 39 30 45 30 15 0 4 423 -17 600 -25
216 -72 452 -74 373z"/>
<path d="M1382 2890 c0 -14 2 -19 5 -12 2 6 2 18 0 25 -3 6 -5 1 -5 -13z"/>
<path d="M1082 2880 c0 -14 2 -19 5 -12 2 6 2 18 0 25 -3 6 -5 1 -5 -13z"/>
<path d="M1520 2885 c0 -11 -3 -31 -5 -45 -5 -22 -4 -22 4 -5 6 13 10 -148 10
-458 1 -263 -2 -477 -6 -475 -5 2 -23 12 -42 23 l-33 20 6 225 c3 124 12 281
21 350 26 218 26 221 15 180 -19 -74 -41 -304 -48 -510 l-7 -215 -8 310 c-7
264 -31 613 -36 520 -1 -24 -3 -27 -12 -15 -9 12 -9 11 -4 -5 4 -11 10 -165
12 -343 5 -277 3 -325 -9 -340 -21 -24 -36 -75 -44 -152 -4 -36 -11 -72 -15
-80 -6 -10 -7 -5 -3 14 15 64 -28 503 -63 647 l-17 73 -13 -44 c-33 -112 -55
-295 -70 -575 -9 -182 -20 -109 -22 145 -1 232 -16 544 -30 640 -6 35 -9 -69
-10 -285 -1 -320 -14 -545 -33 -545 -4 0 -9 84 -11 188 l-2 187 -3 -198 c-2
-187 -1 -201 19 -228 11 -16 27 -29 35 -29 16 0 18 -9 4 -30 -8 -13 -10 -13
-10 1 0 17 -39 39 -68 39 -27 -1 -50 -24 -68 -66 l-17 -39 -13 31 c-16 39 -59
74 -89 74 -33 0 -64 -30 -67 -65 -3 -29 -1 -30 39 -33 35 -3 48 -9 68 -36 29
-38 31 -61 9 -83 -19 -19 -12 -75 17 -142 24 -56 28 -211 5 -211 -17 0 -26 25
-35 95 -5 46 -8 50 -34 53 -75 9 -89 -75 -32 -184 38 -73 44 -94 19 -73 -34
28 -76 102 -86 152 -9 44 -9 57 5 82 45 84 43 97 -21 115 -28 7 -41 6 -59 -5
-34 -22 -37 -55 -14 -130 25 -81 26 -104 4 -150 -17 -36 -101 -99 -258 -195
-38 -24 -81 -50 -95 -58 l-25 -16 25 30 c14 16 74 80 135 142 108 112 111 113
148 108 42 -7 40 -11 37 87 -3 110 -19 138 -18 32 l1 -90 -30 3 c-26 2 -47
-16 -201 -174 -95 -97 -170 -179 -168 -182 4 -4 69 19 304 109 56 21 107 39
113 39 5 0 17 16 25 35 13 32 16 34 41 24 75 -28 100 -57 88 -101 -5 -18 -4
-19 4 -8 5 8 13 11 17 7 9 -8 -15 -39 -26 -32 -8 5 -28 -41 -28 -65 0 -12 -90
-344 -141 -519 -12 -41 -6 -53 13 -25 8 10 87 111 176 223 149 187 162 206
156 235 -13 69 -13 71 18 74 27 3 28 2 23 -25 -12 -62 -39 -275 -35 -279 3 -2
12 51 22 118 26 190 25 185 52 191 31 6 31 3 -7 -146 -17 -67 -40 -158 -50
-202 -11 -43 -22 -81 -24 -83 -2 -3 -2 20 0 49 3 31 -2 15 -10 -36 -20 -115
-16 -134 11 -59 12 32 36 95 54 139 18 44 44 109 58 145 14 36 28 94 31 129
l6 65 38 -33 c20 -18 37 -38 37 -43 0 -6 -11 -23 -25 -40 -14 -16 -25 -40 -25
-53 0 -20 20 -130 103 -580 l11 -60 26 140 c15 77 42 224 60 327 37 205 38
182 -15 254 -12 17 40 74 68 74 16 0 18 -5 11 -33 -4 -17 -7 -41 -6 -52 1 -19
173 -458 177 -453 2 2 -14 124 -34 271 -20 147 -35 270 -32 272 2 3 13 5 23 5
21 0 22 -11 8 -59 -9 -32 -6 -39 29 -85 80 -106 302 -381 310 -384 4 -1 -7 50
-25 115 -17 65 -50 185 -73 266 -23 82 -41 151 -41 154 0 3 7 3 15 -1 22 -8
19 8 -16 74 -17 33 -29 67 -27 76 3 17 80 63 106 64 6 0 12 -11 12 -25 0 -17
8 -29 23 -35 71 -30 401 -149 405 -146 2 3 -57 67 -131 143 -74 76 -148 153
-164 171 -23 27 -36 33 -59 30 l-29 -3 2 95 c2 89 1 92 -8 40 -5 -30 -14 -74
-19 -98 -20 -88 -34 -74 250 -272 44 -30 78 -56 76 -57 -5 -6 -305 114 -319
127 -4 4 -3 18 3 32 10 22 8 28 -19 56 -38 37 -40 74 -11 185 16 62 18 82 9
100 -16 29 -28 37 -62 37 -67 0 -84 -36 -46 -97 31 -50 21 -120 -27 -190 -20
-29 -40 -50 -45 -48 -4 3 5 34 22 68 38 81 39 138 3 166 -36 29 -59 14 -67
-42 -14 -103 -53 -139 -44 -39 l6 57 -13 -50 c-11 -46 -13 -48 -19 -23 -4 14
-5 32 -3 40 2 7 7 27 11 43 7 27 8 28 15 10 6 -14 9 -6 10 30 0 28 7 61 15 75
19 33 19 104 0 120 -23 19 -18 39 20 77 29 29 40 34 65 30 34 -7 44 4 36 38
-15 61 -79 74 -127 26 -16 -16 -29 -37 -29 -45 0 -28 -14 -17 -35 27 -26 56
-63 70 -104 39 -27 -20 -41 -20 -41 0 0 4 6 8 14 8 8 0 24 16 35 36 24 40 24
40 88 -19 l31 -29 47 38 47 39 -6 235 c-7 254 -22 417 -56 605 -20 110 -40
169 -40 120z m-290 -846 c0 -359 -2 -420 -14 -410 -8 6 -20 10 -27 9 -16 -3
-13 39 3 59 7 8 8 48 4 105 -17 253 -18 361 -5 475 11 98 14 111 20 78 5 -33
6 -27 8 33 0 39 3 72 6 72 3 0 5 -190 5 -421z m-53 -281 c-2 -18 -4 -6 -4 27
0 33 2 48 4 33 2 -15 2 -42 0 -60z m-123 -60 c11 -125 12 -178 5 -178 -14 0
-50 69 -56 107 -4 21 -13 43 -22 50 -15 10 -14 15 3 47 13 25 26 36 42 36 20
0 23 -6 28 -62z m420 40 c17 -24 22 -68 7 -68 -5 0 -11 -18 -15 -39 -6 -40
-42 -111 -55 -111 -8 0 -6 53 5 178 5 52 9 62 24 62 10 0 26 -10 34 -22z
m-116 -13 c-3 -3 -9 2 -12 12 -6 14 -5 15 5 6 7 -7 10 -15 7 -18z m-208 -70
c0 -28 5 -37 24 -45 14 -5 30 -18 35 -29 14 -25 14 -42 0 -18 -5 9 -21 17 -34
17 -53 0 -66 24 -49 88 10 34 24 26 24 -13z m196 1 c12 -51 2 -71 -41 -76 -39
-5 -40 -6 -57 -65 -9 -33 -17 -51 -17 -40 -1 11 -4 31 -8 45 -3 14 -2 22 2 17
5 -4 19 11 32 33 13 22 30 40 37 40 8 0 17 16 20 35 8 40 23 46 32 11z m-391
-62 c19 -45 19 -54 1 -54 -14 0 -26 29 -26 68 0 32 7 27 25 -14z m580 4 c-4
-13 -9 -31 -11 -40 -6 -22 -24 -24 -24 -3 0 21 22 65 32 65 5 0 6 -10 3 -22z
m-440 2 c3 -5 1 -10 -4 -10 -6 0 -11 5 -11 10 0 6 2 10 4 10 3 0 8 -4 11 -10z
m30 -106 c21 -50 18 -64 -5 -34 -17 22 -28 70 -15 70 3 0 12 -16 20 -36z m245
13 c0 -26 -25 -66 -35 -56 -5 6 24 79 32 79 2 0 3 -10 3 -23z m100 -37 c0 -11
-7 -20 -15 -20 -15 0 -21 21 -8 33 12 13 23 7 23 -13z m-442 -7 c-4 -22 -22
-20 -26 1 -2 10 3 16 13 16 10 0 15 -7 13 -17z m379 -70 c-8 -8 -23 -13 -32
-11 -16 3 -14 7 11 38 28 33 29 33 32 11 2 -13 -3 -30 -11 -38z m-458 -20 c1
-17 -3 -34 -7 -37 -5 -3 -9 21 -10 52 -1 41 1 51 8 37 5 -11 9 -34 9 -52z
m156 6 c-9 -14 -42 7 -48 30 -3 11 -2 23 1 26 9 9 54 -44 47 -56z m75 0 c0
-11 -4 -17 -10 -14 -5 3 -10 15 -10 26 0 11 5 17 10 14 6 -3 10 -15 10 -26z
m121 -6 c-10 -17 -10 -16 -11 3 0 23 13 41 18 25 2 -6 -1 -18 -7 -28z m-277
-123 l6 -35 -14 35 c-8 19 -15 44 -15 55 l0 20 8 -20 c5 -11 11 -36 15 -55z
m51 32 c-8 -33 13 -84 34 -80 13 3 15 14 13 51 -2 26 1 47 7 47 5 0 16 3 25 6
9 3 16 1 16 -5 0 -6 -6 -11 -14 -11 -15 0 -29 -38 -20 -52 3 -5 17 -13 30 -18
17 -7 24 -17 24 -35 0 -26 -14 -33 -25 -14 -5 7 -14 5 -30 -5 -21 -14 -24 -13
-46 10 -17 18 -24 39 -27 86 -4 46 -2 59 8 53 7 -4 9 -17 5 -33z m335 -16 c0
-44 -5 -60 -26 -86 -20 -23 -29 -28 -40 -20 -7 7 -23 10 -36 8 -19 -2 -23 2
-23 22 0 18 6 26 23 28 12 2 22 8 22 13 0 6 5 7 10 4 6 -3 10 -15 10 -26 0
-10 4 -19 9 -19 19 0 35 34 38 79 2 55 2 51 8 51 3 0 5 -24 5 -54z m-62 29 c2
-2 2 -14 -1 -27 l-4 -23 -8 23 c-4 12 -14 22 -21 22 -8 0 -14 5 -14 11 0 9 36
4 48 -6z m-433 -55 c18 -35 11 -58 -11 -39 -13 10 -21 69 -9 69 2 0 12 -14 20
-30z m535 -20 c-6 -23 -14 -40 -16 -37 -3 3 0 24 7 46 16 54 24 46 9 -9z m110
-21 c0 -6 -4 -7 -10 -4 -5 3 -10 11 -10 16 0 6 5 7 10 4 6 -3 10 -11 10 -16z
m-523 -11 c-3 -8 -6 -5 -6 6 -1 11 2 17 5 13 3 -3 4 -12 1 -19z m-172 -55 c-7
-17 -8 -17 -15 2 -9 24 -2 41 12 27 6 -6 7 -19 3 -29z m740 -10 c-8 -31 -13
-39 -20 -31 -9 9 6 58 17 58 6 0 7 -11 3 -27z m-723 -170 c-116 -235 -235
-464 -239 -460 -2 3 5 38 17 79 11 40 36 127 55 193 48 171 47 169 94 184 37
11 41 15 47 52 4 22 14 48 23 57 15 14 16 13 19 -25 2 -26 -4 -56 -16 -80z
m704 66 c1 -48 14 -78 143 -338 45 -90 79 -166 76 -169 -3 -3 -6 -3 -8 -1 -2
2 -30 40 -63 83 -186 248 -194 260 -187 281 4 11 8 49 9 85 1 36 3 76 3 88 2
43 26 17 27 -29z m101 14 c7 -10 18 -27 25 -38 11 -19 10 -19 -12 -4 -31 21
-57 59 -40 59 7 0 19 -8 27 -17z m-880 -45 c-3 -8 -6 -5 -6 6 -1 11 2 17 5 13
3 -3 4 -12 1 -19z m433 -43 c12 8 13 -5 0 -25 -7 -11 -11 -9 -19 13 -13 35
-13 61 0 29 5 -13 13 -20 19 -17z m193 -51 c5 -21 28 -119 53 -217 24 -98 44
-182 44 -185 -1 -8 -19 35 -87 213 -44 114 -50 137 -45 183 5 62 23 65 35 6z
m-205 -406 l-3 -133 -19 217 c-19 213 -19 217 0 265 l19 48 3 -132 c1 -73 1
-193 0 -265z m-40 329 c-9 -28 -8 -70 0 -170 21 -234 10 -223 -34 34 l-17 106
28 37 c15 20 29 35 31 33 2 -2 -2 -20 -8 -40z"/>
<path d="M1204 2145 c0 -82 2 -115 3 -72 2 43 2 110 0 150 -1 40 -3 5 -3 -78z"/>
<path d="M911 2804 c0 -11 3 -14 6 -6 3 7 2 16 -1 19 -3 4 -6 -2 -5 -13z"/>
<path d="M1071 2784 c0 -11 3 -14 6 -6 3 7 2 16 -1 19 -3 4 -6 -2 -5 -13z"/>
<path d="M1502 2780 c0 -14 2 -19 5 -12 2 6 2 18 0 25 -3 6 -5 1 -5 -13z"/>
<path d="M1362 2720 c0 -19 2 -27 5 -17 2 9 2 25 0 35 -3 9 -5 1 -5 -18z"/>
<path d="M1063 2655 c0 -22 2 -30 4 -17 2 12 2 30 0 40 -3 9 -5 -1 -4 -23z"/>
<path d="M1353 2580 c0 -25 2 -35 4 -22 2 12 2 32 0 45 -2 12 -4 2 -4 -23z"/>
<path d="M1053 2475 c0 -33 2 -45 4 -27 2 18 2 45 0 60 -2 15 -4 0 -4 -33z"/>
<path d="M1343 2215 c0 -38 2 -53 4 -32 2 20 2 52 0 70 -2 17 -4 1 -4 -38z"/>
</g>
</svg>
