<?xml version="1.0" standalone="no"?>
<!DOCTYPE svg PUBLIC "-//W3C//DTD SVG 20010904//EN"
 "http://www.w3.org/TR/2001/REC-SVG-20010904/DTD/svg10.dtd">
<svg version="1.0" xmlns="http://www.w3.org/2000/svg"
 width="244.000000pt" height="305.000000pt" viewBox="0 0 244.000000 305.000000"
 preserveAspectRatio="xMidYMid meet">
<metadata>
Created by potrace 1.16, written by Peter Selinger 2001-2019
</metadata>
<g transform="translate(0.000000,305.000000) scale(0.100000,-0.100000)"
fill="#000000" stroke="none">
<path d="M882 2874 c-46 -158 -80 -441 -89 -731 l-6 -222 24 -10 c14 -5 39
-21 57 -36 l31 -26 22 25 c12 13 34 30 50 36 l29 12 0 145 c0 79 -4 142 -8
139 -5 -3 -7 -61 -4 -128 l4 -123 -42 -28 c-23 -15 -46 -25 -51 -21 -13 8 -12
951 2 956 6 2 7 12 1 27 -8 22 -9 21 -20 -15z"/>
<path d="M1566 2883 c-9 -31 -34 -154 -50 -253 -24 -145 -35 -275 -42 -502
l-7 -207 34 -14 c19 -8 40 -21 48 -30 18 -23 24 -22 81 16 l49 32 0 135 c1
206 -29 556 -55 643 -14 46 -12 0 6 -113 31 -201 52 -588 34 -634 -3 -9 -12
-16 -19 -16 -6 0 -20 -9 -30 -20 -47 -51 -46 -53 -43 480 2 275 2 500 1 500
-1 0 -4 -8 -7 -17z"/>
<path d="M911 2824 c0 -11 3 -14 6 -6 3 7 2 16 -1 19 -3 4 -6 -2 -5 -13z"/>
<path d="M1600 2769 c0 -16 4 -28 9 -25 8 5 3 56 -5 56 -2 0 -4 -14 -4 -31z"/>
<path d="M921 2775 c0 -5 8 -60 18 -121 11 -61 25 -183 31 -270 7 -87 15 -161
17 -164 11 -10 -6 256 -22 360 -15 98 -42 218 -44 195z"/>
<path d="M1227 2583 c-10 -18 -47 -194 -56 -271 -6 -45 -14 -168 -17 -272 -7
-182 -16 -233 -29 -152 -13 86 -37 207 -41 211 -10 11 -22 -24 -33 -96 -16
-107 -15 -111 23 -134 38 -22 52 -59 41 -110 -8 -33 -30 -48 -48 -30 -20 20
-37 12 -37 -18 0 -32 22 -61 46 -61 8 0 25 11 38 25 32 34 39 31 31 -14 -6
-34 -4 -40 15 -46 11 -4 32 -24 47 -46 14 -21 27 -39 28 -39 2 0 12 16 24 35
11 19 32 40 47 45 24 10 26 14 20 50 -7 46 2 50 32 15 33 -38 58 -32 80 19 16
36 3 53 -25 35 -28 -17 -49 -6 -56 29 -9 45 2 74 41 108 l35 32 -12 86 c-19
140 -32 152 -51 49 -24 -140 -32 -173 -39 -173 -4 0 -11 89 -15 198 -7 195
-29 372 -61 480 -16 52 -20 59 -28 45z m48 -228 c3 -27 10 -84 15 -125 5 -41
12 -191 16 -332 6 -247 6 -258 -12 -264 -11 -4 -27 -16 -36 -28 -17 -20 -18 3
-17 459 1 439 2 474 15 410 8 -38 16 -92 19 -120z"/>
<path d="M745 1858 c-35 -20 -46 -37 -43 -64 3 -24 7 -26 52 -28 42 -2 53 -7
77 -36 33 -39 34 -43 15 -62 -39 -39 -21 -116 50 -220 l46 -68 -35 -39 c-19
-21 -38 -49 -42 -60 -14 -46 50 -99 103 -86 20 5 23 10 17 33 -27 108 -19 118
70 91 47 -15 73 -19 84 -12 26 16 24 32 -6 44 -84 32 -137 66 -173 109 -42 51
-70 106 -70 140 0 32 15 23 29 -17 18 -50 114 -149 172 -179 26 -13 49 -20 53
-17 15 15 3 35 -36 63 -63 45 -126 125 -134 168 -4 20 -15 47 -26 59 -20 22
-20 22 2 52 24 34 56 46 100 37 28 -5 30 -3 30 24 0 32 -20 57 -58 71 -46 17
-96 -12 -107 -62 -9 -39 -19 -37 -46 11 -15 26 -32 43 -49 46 -14 3 -32 8 -40
10 -8 2 -24 -2 -35 -8z"/>
<path d="M1435 1854 c-36 -19 -45 -31 -45 -66 0 -27 1 -27 43 -22 33 5 47 2
68 -15 36 -28 43 -58 18 -79 -10 -9 -19 -28 -19 -42 0 -47 -64 -132 -132 -176
-33 -21 -57 -58 -45 -70 9 -10 73 26 127 72 57 48 110 121 110 149 0 8 5 15
10 15 21 0 9 -58 -21 -106 -52 -83 -118 -132 -222 -168 -21 -7 -19 -25 6 -40
12 -8 34 -5 84 12 51 16 69 19 75 9 11 -17 10 -46 -4 -84 -10 -27 -10 -36 0
-42 21 -13 80 1 102 24 29 30 21 67 -25 119 -37 40 -37 41 6 96 43 55 65 102
73 152 6 40 4 50 -13 67 -29 29 -27 38 15 77 29 28 43 34 80 34 40 0 44 2 44
25 0 39 -33 65 -84 65 -37 0 -48 -5 -70 -31 -14 -17 -26 -37 -26 -45 0 -25
-19 -15 -33 19 -24 56 -72 77 -122 51z"/>
<path d="M1077 1573 c-34 -18 -34 -31 1 -38 69 -15 92 -57 92 -167 0 -72 -1
-77 -22 -80 -18 -2 -23 -10 -23 -33 0 -23 5 -30 25 -35 20 -5 25 -12 25 -35 0
-24 -5 -31 -25 -33 -35 -5 -49 -19 -43 -42 6 -21 6 -21 39 -25 34 -3 41 -12
48 -55 4 -23 14 -53 23 -67 l17 -25 18 24 c9 12 20 44 24 69 6 45 8 47 46 53
36 6 39 9 36 34 -2 19 -9 28 -24 30 -29 4 -58 37 -51 57 4 8 17 15 31 15 43 0
49 52 9 72 -27 13 -28 17 -26 82 2 107 26 148 91 161 17 3 32 10 32 15 0 15
-36 30 -73 30 -27 0 -42 -8 -66 -35 -17 -20 -31 -46 -31 -58 0 -18 -2 -19 -10
-7 -9 13 -10 13 -10 0 -1 -8 -12 6 -25 32 -27 51 -32 56 -73 68 -19 5 -37 3
-55 -7z"/>
<path d="M572 1520 c-27 -25 -27 -58 -2 -130 11 -30 19 -75 20 -99 0 -37 -5
-49 -33 -75 -26 -24 -32 -36 -26 -51 13 -34 10 -41 -23 -52 -18 -6 -98 -34
-177 -62 -79 -28 -148 -50 -152 -49 -5 2 24 23 64 47 351 214 330 194 302 287
-8 27 -15 65 -15 84 0 19 -5 42 -11 50 -7 11 -9 -12 -6 -83 l4 -97 -31 5 c-22
5 -37 1 -51 -12 -11 -10 -54 -47 -95 -83 -41 -35 -95 -83 -120 -106 -25 -22
-69 -63 -97 -89 -57 -51 -67 -70 -31 -55 13 5 123 41 246 81 168 54 222 75
222 88 1 39 15 45 69 25 73 -26 131 -87 131 -139 0 -8 -17 -19 -39 -26 l-38
-11 -63 -197 c-34 -108 -73 -229 -86 -269 -44 -133 -45 -134 152 84 45 49 95
103 110 120 113 123 127 143 113 165 -5 7 -9 26 -9 42 l0 27 89 0 c75 0 93 -3
121 -22 56 -39 59 -53 22 -91 -39 -40 -41 -15 23 -312 21 -93 41 -190 45 -215
11 -55 38 -167 39 -158 1 3 17 82 36 175 20 92 49 237 66 322 l31 153 -31 32
c-17 18 -31 37 -31 43 0 7 17 25 37 40 33 26 45 28 136 31 l100 4 -7 -29 c-20
-80 -25 -69 110 -218 235 -259 274 -298 274 -282 0 16 -44 165 -59 202 -5 11
-23 67 -41 125 -70 228 -64 213 -105 235 -20 11 -37 23 -36 28 0 4 1 17 1 29
0 31 77 101 128 116 49 15 62 10 62 -23 0 -21 14 -27 178 -80 97 -31 207 -67
245 -80 37 -12 67 -20 67 -16 0 5 -62 64 -137 132 -76 68 -155 139 -175 158
-61 55 -76 63 -107 56 l-29 -6 4 98 c7 129 -11 103 -20 -30 l-7 -98 45 6 46 7
87 -78 c49 -44 115 -105 148 -138 l60 -58 -100 52 c-180 96 -289 165 -312 200
-28 41 -29 79 -3 150 26 70 25 92 -3 118 -26 24 -72 29 -112 10 -32 -14 -32
-34 0 -80 42 -62 28 -132 -41 -212 -68 -79 -84 -111 -84 -169 0 -76 15 -102
67 -118 l47 -15 68 -204 c64 -192 82 -273 48 -207 -8 15 -65 112 -127 215
-152 256 -157 265 -150 312 3 23 32 84 75 154 80 133 93 176 64 215 -21 28
-65 39 -86 22 -14 -11 -25 -77 -29 -161 -2 -49 -38 -106 -81 -129 -20 -11 -29
-11 -57 3 -17 9 -52 16 -77 16 -42 0 -44 -1 -38 -24 10 -39 -9 -76 -38 -76
-29 0 -46 -25 -46 -67 0 -16 -11 -44 -24 -62 -21 -28 -23 -37 -14 -57 6 -13
15 -24 19 -24 4 0 21 -17 38 -39 l31 -38 -30 -134 c-16 -74 -39 -181 -52 -239
l-23 -105 -3 308 c-2 257 -5 307 -16 307 -21 0 -56 54 -56 85 0 39 -18 65 -44
65 -27 0 -36 17 -36 66 0 33 -1 34 -40 34 -21 0 -55 -8 -74 -17 -46 -21 -74
-9 -116 49 -25 33 -30 50 -26 72 7 33 -11 144 -27 164 -15 19 -62 14 -83 -9
-35 -39 -23 -86 55 -221 72 -122 100 -203 86 -247 -3 -10 -1 -40 5 -66 12 -54
24 -34 -140 -222 -134 -153 -153 -174 -157 -169 -2 1 40 79 93 172 181 318
181 320 144 429 -16 47 -72 133 -101 155 -15 11 -49 91 -49 114 0 23 28 83 52
113 6 7 2 18 -13 32 -31 28 -97 29 -127 1z"/>
</g>
</svg>
