<?xml version="1.0" standalone="no"?>
<!DOCTYPE svg PUBLIC "-//W3C//DTD SVG 20010904//EN"
 "http://www.w3.org/TR/2001/REC-SVG-20010904/DTD/svg10.dtd">
<svg version="1.0" xmlns="http://www.w3.org/2000/svg"
 width="244.000000pt" height="305.000000pt" viewBox="0 0 244.000000 305.000000"
 preserveAspectRatio="xMidYMid meet">
<metadata>
Created by potrace 1.16, written by Peter Selinger 2001-2019
</metadata>
<g transform="translate(0.000000,305.000000) scale(0.100000,-0.100000)"
fill="#000000" stroke="none">
<path d="M1037 2868 c-3 -24 -11 -98 -18 -165 -7 -68 -14 -121 -16 -120 -1 2
-14 70 -28 151 -13 81 -28 153 -32 159 -8 13 -21 -23 -21 -58 l-1 -20 9 20 c5
12 9 -182 9 -457 1 -263 -1 -478 -4 -478 -3 0 -21 10 -40 23 l-35 22 0 154 c0
85 -2 152 -4 150 -2 -2 -6 -76 -9 -164 l-6 -160 45 -32 c24 -18 49 -33 55 -33
7 0 9 -9 5 -22 -3 -13 -6 -29 -6 -35 0 -7 -4 -13 -10 -13 -5 0 -10 6 -10 13 0
8 -10 23 -23 35 -48 45 -127 16 -127 -48 0 -27 2 -29 30 -24 37 8 73 -14 96
-57 14 -28 14 -32 0 -48 -10 -11 -16 -36 -16 -64 0 -26 -4 -55 -9 -65 -6 -9
-12 -29 -15 -43 -4 -17 -16 -31 -35 -39 -42 -17 -57 -58 -41 -116 10 -33 10
-48 2 -56 -9 -9 -16 -2 -27 25 -21 50 -19 100 5 147 11 22 20 46 20 54 0 37
-87 49 -120 16 -24 -24 -25 -53 -5 -111 9 -23 16 -65 17 -92 1 -61 -17 -87
-103 -146 -102 -69 -250 -163 -254 -159 -2 2 52 61 119 132 l122 129 37 -7 37
-7 -1 83 c-1 46 -5 97 -9 113 -6 20 -8 0 -8 -65 l1 -95 -29 3 c-26 2 -48 -17
-193 -168 -90 -94 -161 -173 -158 -176 2 -3 44 11 93 30 49 19 142 53 207 77
102 37 117 45 117 65 0 26 12 36 33 28 20 -7 9 -32 -56 -133 -27 -40 -47 -75
-45 -76 2 -2 30 12 63 30 142 81 157 87 166 73 5 -7 9 -23 9 -36 0 -17 -7 -24
-30 -28 -27 -6 -32 -13 -51 -77 -49 -164 -139 -500 -136 -504 1 -1 64 74 139
168 75 93 139 166 141 161 3 -4 1 -30 -4 -57 -20 -104 -49 -270 -48 -280 0 -5
51 91 114 215 112 222 114 226 108 279 l-6 54 34 -7 c32 -6 89 -50 89 -69 0
-4 -11 -23 -25 -41 -14 -18 -25 -41 -25 -50 0 -9 25 -153 55 -319 30 -166 55
-305 55 -311 0 -35 13 27 45 209 20 116 45 252 56 304 25 121 24 137 -6 165
-14 13 -25 30 -25 39 0 23 67 77 97 77 25 0 26 -1 19 -47 -6 -46 -2 -56 100
-261 59 -117 109 -211 111 -208 2 2 -5 53 -16 112 -28 148 -36 221 -24 209 17
-17 247 -307 265 -334 22 -32 23 -13 4 55 -8 27 -26 92 -40 144 -14 52 -34
129 -46 170 -12 41 -28 99 -36 128 -13 46 -20 56 -49 68 -38 15 -44 37 -21 69
13 19 14 19 42 0 16 -10 56 -34 88 -52 57 -33 80 -37 58 -11 -20 24 -82 140
-82 153 0 13 35 27 44 17 3 -3 6 -15 6 -27 0 -19 23 -30 183 -89 100 -37 197
-74 216 -82 74 -33 64 -21 -228 273 -65 66 -77 73 -102 68 l-28 -6 6 92 c5 69
3 90 -5 85 -7 -4 -12 -27 -12 -51 0 -24 -7 -70 -15 -101 -17 -66 -17 -65 62
-120 32 -21 63 -43 70 -49 6 -5 57 -41 112 -79 55 -38 99 -71 97 -74 -5 -4
-306 116 -334 133 -1 1 2 15 8 30 10 25 8 31 -16 50 -35 28 -44 107 -20 188
19 65 21 118 4 135 -16 16 -89 15 -110 -2 -23 -17 -23 -31 4 -74 13 -21 21
-50 20 -76 0 -47 -25 -116 -41 -116 -14 0 -14 7 0 68 15 63 6 99 -29 115 -15
6 -30 16 -34 22 -5 6 -8 7 -8 0 -1 -5 -8 8 -16 30 -8 22 -15 66 -14 98 1 38
-4 62 -14 72 -33 33 24 102 89 107 28 2 41 8 43 21 5 23 -51 77 -80 77 -25 0
-70 -41 -82 -75 -6 -17 -10 -13 -26 23 -10 23 -26 43 -35 43 -8 1 -21 2 -27 3
-7 0 -13 8 -13 16 0 24 35 24 60 0 l22 -21 50 37 50 37 -3 116 c-7 252 -16
411 -29 516 -22 168 -57 345 -68 338 -5 -3 -6 -20 -3 -37 8 -36 8 -957 1 -964
-3 -3 -14 3 -25 13 -18 16 -20 32 -22 164 l-2 146 -3 -137 c-2 -87 -7 -138
-14 -138 -18 0 7 575 31 696 7 34 10 70 8 80 -2 10 -10 -21 -18 -71 -10 -65
-15 -83 -20 -65 -4 14 -10 -134 -15 -328 -4 -198 -11 -355 -17 -358 -5 -4 -8
185 -6 490 2 272 0 487 -3 477 -14 -37 -40 -324 -45 -491 -5 -198 -23 -382
-35 -374 -5 3 -9 23 -9 45 0 37 -14 53 -22 27 -3 -7 -8 48 -11 122 -7 149 -49
411 -63 397 -19 -19 -64 -304 -64 -405 0 -75 -7 -105 -21 -96 -5 3 -9 -12 -10
-33 -1 -75 -16 -82 -23 -10 -4 37 -11 67 -16 67 -4 0 -13 -37 -19 -82 -15
-105 -22 -141 -27 -135 -2 2 -5 230 -6 505 0 276 -2 502 -3 502 -1 0 -5 -19
-8 -42z m151 -830 c-1 -113 -4 -158 -7 -118 -6 70 -3 300 5 300 2 0 3 -82 2
-182z m-161 -154 c2 -7 -11 -13 -31 -16 -31 -3 -33 -2 -25 15 11 20 50 20 56
1z m53 -14 c0 -5 -4 -10 -10 -10 -5 0 -10 5 -10 10 0 6 5 10 10 10 6 0 10 -4
10 -10z m325 0 c3 -5 -1 -10 -10 -10 -9 0 -13 5 -10 10 3 6 8 10 10 10 2 0 7
-4 10 -10z m-285 -131 c-12 -22 -25 -24 -36 -7 -8 12 24 40 38 32 4 -3 3 -14
-2 -25z m264 6 c8 -21 -14 -30 -31 -12 -9 8 -12 20 -9 26 8 13 33 4 40 -14z
m-363 -32 c17 -46 -12 -73 -41 -38 -10 12 -10 21 -2 40 15 32 30 32 43 -2z
m469 6 c9 -16 8 -26 -5 -45 -29 -45 -57 -17 -35 36 15 35 25 38 40 9z m-300
-49 c0 -16 -4 -30 -10 -30 -11 0 -14 43 -3 53 11 12 13 8 13 -23z m-35 -37 c5
-12 17 -24 27 -26 10 -3 25 -21 33 -41 9 -20 17 -36 20 -36 3 0 11 16 20 36 8
20 23 38 33 41 10 2 22 14 27 26 7 14 19 22 35 22 22 0 25 -4 25 -35 0 -33 -1
-35 -33 -32 -49 3 -68 -12 -90 -70 l-20 -53 -11 40 c-17 65 -33 80 -83 80 -40
0 -43 2 -46 29 -6 47 44 62 63 19z m-196 -45 c7 -18 32 -63 56 -100 42 -62 54
-88 38 -88 -26 0 -123 159 -123 203 0 28 17 19 29 -15z m107 -16 c4 -20 13
-49 21 -64 7 -16 10 -28 5 -28 -12 0 -39 61 -48 105 -5 27 -3 36 4 31 6 -4 14
-23 18 -44z m474 31 c0 -23 -54 -132 -77 -158 -33 -35 -63 -58 -63 -48 0 6 25
48 55 93 31 46 58 94 61 107 7 27 24 31 24 6z m-117 -25 c-7 -39 -28 -84 -44
-93 -6 -4 -4 6 4 22 9 16 18 45 22 66 4 20 11 37 16 37 5 0 6 -15 2 -32z
m-263 -83 c21 -39 5 -51 -18 -13 -12 19 -22 38 -22 41 0 14 28 -6 40 -28z
m170 -10 c-23 -38 -36 -41 -25 -6 7 24 35 54 42 47 3 -3 -5 -21 -17 -41z
m-389 -98 c-3 -76 -21 -85 -21 -11 0 57 6 81 18 69 3 -3 5 -29 3 -58z m609 -2
c0 -54 -18 -63 -25 -12 -8 49 1 79 16 56 5 -8 9 -27 9 -44z m-370 -10 c0 -8
-4 -15 -9 -15 -13 0 -22 16 -14 24 11 11 23 6 23 -9z m140 6 c0 -12 -20 -25
-27 -18 -7 7 6 27 18 27 5 0 9 -4 9 -9z m-286 -94 c-5 -43 -3 -56 13 -76 13
-16 26 -22 37 -18 14 5 15 16 10 63 -7 52 -5 57 10 51 10 -4 27 -7 39 -7 16 0
18 -3 9 -12 -7 -7 -12 -24 -12 -39 0 -21 5 -28 23 -31 16 -2 23 -11 25 -31 3
-28 3 -28 -40 -22 -24 3 -58 7 -76 9 -18 2 -34 5 -36 7 -11 14 -25 103 -20
128 11 52 25 35 18 -22z m414 -16 c-4 -86 -16 -101 -77 -101 -26 0 -52 -5 -57
-10 -8 -8 -15 -6 -23 4 -18 22 -9 50 16 54 27 4 36 27 22 54 -13 24 -12 24 25
34 l29 7 -6 -56 c-8 -66 3 -79 40 -46 22 22 24 29 18 77 -5 37 -3 52 5 52 9 0
11 -20 8 -69z m222 -34 c0 -19 -27 -53 -36 -44 -8 8 15 57 28 57 4 0 8 -6 8
-13z m-670 -75 c0 -15 -2 -15 -10 -2 -13 20 -13 33 0 25 6 -3 10 -14 10 -23z
m483 13 c-3 -9 -8 -14 -10 -11 -3 3 -2 9 2 15 9 16 15 13 8 -4z m-582 -82 c17
-53 4 -106 -55 -217 -29 -56 -86 -165 -126 -244 -40 -78 -74 -141 -76 -139 -2
1 5 30 15 62 10 33 38 131 62 218 l44 159 45 21 c51 25 65 58 58 144 -4 42 -2
50 8 42 7 -6 18 -26 25 -46z m694 -41 l-7 -79 116 -238 c64 -131 115 -240 113
-241 -6 -6 -222 281 -242 321 -18 36 -20 53 -14 155 5 101 18 160 35 160 3 0
2 -35 -1 -78z m182 26 c18 -29 30 -54 27 -57 -5 -6 -84 77 -84 89 0 8 11 20
19 20 4 0 21 -23 38 -52z m-987 13 c0 -12 -142 -103 -149 -96 -3 3 22 32 54
65 48 49 61 57 77 49 10 -5 18 -14 18 -18z m444 -151 c3 0 12 12 20 28 8 15
15 21 16 14 0 -14 -28 -72 -35 -72 -8 0 -35 59 -35 77 1 11 6 5 15 -14 8 -18
16 -33 19 -33z m-201 -45 c6 -38 1 -56 -27 -117 -89 -193 -127 -270 -131 -266
-3 3 15 67 39 144 24 76 53 172 65 212 25 84 45 94 54 27z m490 10 c-1 -16 -3
-40 -4 -51 -1 -12 8 -34 19 -50 14 -19 28 -69 41 -149 11 -65 19 -121 17 -123
-2 -2 -32 83 -66 190 -35 106 -65 199 -68 206 -3 10 4 13 29 10 31 -3 34 -6
32 -33z m-353 -96 c-8 -15 -8 -45 0 -114 17 -132 7 -140 -15 -12 -18 103 -18
108 0 127 23 26 29 25 15 -1z"/>
<path d="M1512 2825 c0 -16 2 -22 5 -12 2 9 2 23 0 30 -3 6 -5 -1 -5 -18z"/>
<path d="M900 2723 c-22 -128 -40 -308 -38 -388 1 -51 3 -62 5 -30 6 101 25
283 39 379 16 113 12 142 -6 39z"/>
<path d="M1073 2650 c0 -30 2 -43 4 -27 2 15 2 39 0 55 -2 15 -4 2 -4 -28z"/>
<path d="M1442 2680 c0 -14 2 -19 5 -12 2 6 2 18 0 25 -3 6 -5 1 -5 -13z"/>
<path d="M1083 2540 c0 -25 2 -35 4 -22 2 12 2 32 0 45 -2 12 -4 2 -4 -23z"/>
<path d="M1094 2350 c0 -58 1 -81 3 -52 2 28 2 76 0 105 -2 28 -3 5 -3 -53z"/>
</g>
</svg>
