<?xml version="1.0" standalone="no"?>
<!DOCTYPE svg PUBLIC "-//W3C//DTD SVG 20010904//EN"
 "http://www.w3.org/TR/2001/REC-SVG-20010904/DTD/svg10.dtd">
<svg version="1.0" xmlns="http://www.w3.org/2000/svg"
 width="244.000000pt" height="305.000000pt" viewBox="0 0 244.000000 305.000000"
 preserveAspectRatio="xMidYMid meet">
<metadata>
Created by potrace 1.16, written by Peter Selinger 2001-2019
</metadata>
<g transform="translate(0.000000,305.000000) scale(0.100000,-0.100000)"
fill="#000000" stroke="none">
<path d="M949 2904 c0 -5 -2 -19 -3 -32 -2 -13 1 -25 6 -28 9 -6 9 -932 -1
-938 -3 -2 -21 9 -40 25 l-34 28 6 223 c4 123 11 261 16 308 5 47 13 114 16
150 4 36 5 62 1 59 -10 -10 -34 -248 -41 -409 -15 -389 -16 -360 11 -372 13
-6 31 -22 39 -35 19 -29 32 -29 61 -2 13 12 30 19 38 16 26 -10 18 -27 -15
-34 -24 -5 -35 -15 -49 -47 -11 -23 -19 -33 -19 -23 -1 26 -55 77 -81 77 -29
0 -70 -44 -70 -75 0 -22 4 -25 39 -25 32 0 44 -6 65 -31 25 -29 36 -79 17 -79
-15 0 -21 -42 -12 -82 6 -27 5 -42 -5 -55 -7 -10 -14 -28 -14 -40 0 -13 -3
-22 -7 -21 -5 1 -20 -4 -35 -12 -43 -20 -50 -62 -26 -159 7 -31 -23 -20 -37
13 -21 50 -18 93 10 151 l25 50 -21 17 c-12 11 -38 18 -60 18 -55 0 -68 -29
-50 -108 25 -112 25 -153 -1 -192 -26 -39 -328 -256 -328 -236 0 7 72 88 166
189 71 75 75 78 109 71 l35 -6 0 38 c0 76 -13 174 -23 174 -6 0 -7 -33 -3 -90
l7 -90 -29 6 c-23 5 -33 1 -50 -21 -11 -14 -70 -79 -130 -143 -155 -166 -181
-198 -157 -188 11 5 31 12 45 16 28 9 242 91 310 120 36 15 46 24 50 48 4 26
8 28 28 21 27 -10 27 -14 -3 -64 -14 -22 -25 -47 -25 -55 0 -8 13 7 29 33 37
63 48 74 62 60 8 -8 -1 -25 -36 -62 -25 -27 -52 -48 -59 -45 -12 4 -42 -44
-33 -53 3 -2 41 19 85 47 45 27 86 50 91 50 9 0 21 -33 21 -58 0 -7 -14 -19
-32 -26 -30 -13 -34 -20 -59 -117 -14 -57 -47 -185 -73 -283 -25 -99 -44 -181
-42 -183 2 -3 66 78 141 179 125 166 137 179 131 143 -10 -64 -17 -131 -11
-120 2 6 11 50 19 98 9 55 23 99 37 118 18 26 20 36 12 64 -13 41 0 65 33 65
22 0 24 -3 19 -22 -52 -174 -127 -408 -130 -408 -2 0 -2 17 0 37 2 21 -2 9
-10 -27 -31 -140 -20 -124 132 195 55 118 61 135 56 178 -5 41 -3 47 13 47 31
0 83 -38 90 -65 5 -20 0 -33 -19 -53 l-26 -27 55 -324 c47 -282 64 -367 64
-323 0 6 23 144 50 307 28 163 50 308 50 323 0 15 -11 40 -25 56 -19 23 -22
32 -14 48 13 24 67 58 93 58 16 0 18 -6 14 -52 -5 -51 -1 -62 101 -275 58
-122 107 -219 109 -214 3 8 -43 287 -54 326 -8 31 36 -22 155 -183 57 -78 106
-141 107 -139 3 3 -102 420 -132 524 -11 39 -20 53 -33 53 -10 0 -24 6 -30 14
-13 16 -5 66 11 66 13 0 107 -53 166 -93 24 -16 45 -27 48 -25 2 3 -10 27 -28
54 -53 83 -88 151 -81 158 16 16 33 4 33 -22 0 -23 6 -31 33 -40 26 -9 302
-117 356 -140 19 -7 -1 22 -50 76 -19 20 -73 80 -119 132 -47 52 -95 106 -106
119 -16 17 -29 22 -48 19 l-26 -5 -1 91 -1 91 -13 -75 c-6 -41 -15 -91 -19
-111 -9 -42 -20 -32 201 -198 62 -47 111 -86 109 -88 -2 -2 -62 21 -132 52
-71 31 -137 59 -147 62 -15 5 -17 12 -13 39 5 26 2 37 -19 58 -21 21 -25 34
-25 81 0 31 8 86 17 121 16 59 16 68 2 92 -16 30 -64 41 -99 22 -25 -14 -26
-40 0 -82 22 -37 25 -75 9 -131 -10 -38 -37 -48 -31 -11 2 10 4 40 5 67 1 38
-3 50 -21 63 -12 8 -22 23 -23 32 0 14 -2 13 -8 -3 -6 -15 -9 -11 -14 22 -4
22 -13 45 -20 52 -10 7 -13 26 -9 59 3 36 0 51 -12 61 -23 20 -20 36 16 77 28
31 36 35 65 31 31 -5 33 -4 33 21 0 73 -76 99 -124 42 l-25 -31 -7 25 c-6 25
9 44 74 92 13 10 14 45 3 290 -6 153 -18 331 -26 394 -23 174 -46 290 -57 290
-6 0 -8 -14 -5 -32 10 -53 12 -946 3 -955 -4 -4 -13 0 -20 9 -9 13 -15 102
-20 325 -5 252 -4 328 9 417 8 60 14 111 11 113 -5 5 -13 -43 -22 -125 -4 -34
-8 -61 -9 -60 -2 2 -9 57 -15 122 -22 229 -25 197 -25 -275 0 -261 -3 -485 -6
-499 l-6 -25 -6 25 c-15 61 -27 191 -29 308 l-1 127 -8 -155 c-5 -85 -12 -171
-18 -190 l-9 -35 -1 42 c-1 23 -4 49 -8 59 -6 16 -7 16 -13 -2 -4 -10 -10 37
-14 105 -11 188 -51 429 -66 400 -22 -43 -59 -322 -61 -463 -1 -45 -4 -62 -8
-46 -6 22 -8 23 -14 7 -4 -10 -7 -37 -8 -60 l-1 -42 -9 35 c-5 19 -13 132 -19
250 -14 305 -40 613 -53 626 -1 1 -1 -222 1 -497 2 -342 0 -499 -8 -499 -6 0
-10 43 -10 118 0 218 -14 607 -20 582 -5 -19 -9 -11 -14 35 -9 72 -46 268 -52
274 -2 2 -4 0 -5 -5z m281 -865 c0 -371 -2 -428 -14 -416 -12 11 -15 75 -18
333 -1 175 0 303 3 284 5 -30 7 -27 8 21 1 73 13 209 17 209 2 0 4 -194 4
-431z m-43 -111 c-1 -46 -3 -11 -3 77 0 88 2 125 3 83 2 -42 2 -114 0 -160z
m292 -45 c7 -15 4 -18 -20 -19 -16 -1 -29 4 -29 11 0 29 34 34 49 8z m-388
-16 c-1 -12 -15 -9 -19 4 -3 6 1 10 8 8 6 -3 11 -8 11 -12z m309 3 c0 -5 -4
-10 -10 -10 -5 0 -10 5 -10 10 0 6 5 10 10 10 6 0 10 -4 10 -10z m-270 -112
c0 -7 -5 -20 -10 -28 -8 -12 -11 -13 -22 -2 -11 11 -9 16 6 28 24 17 26 17 26
2z m240 -3 c10 -12 10 -19 2 -27 -9 -9 -15 -7 -26 7 -23 32 0 49 24 20z m-335
-56 c4 -19 2 -34 -8 -44 -13 -13 -16 -11 -27 15 -16 38 -5 87 15 70 7 -6 17
-25 20 -41z m441 15 c8 -32 -19 -65 -37 -47 -9 9 -9 19 1 42 15 38 28 39 36 5z
m-289 -61 c-3 -10 -5 -2 -5 17 0 19 2 27 5 18 2 -10 2 -26 0 -35z m-43 1 c9
-3 16 -12 16 -20 0 -7 9 -18 21 -24 11 -7 27 -27 35 -46 8 -19 16 -34 19 -34
3 0 11 16 19 35 8 19 22 38 31 42 9 3 21 16 26 29 17 47 72 22 62 -29 -5 -25
-9 -27 -43 -25 -50 2 -66 -12 -81 -73 l-13 -50 -14 48 c-18 64 -33 77 -82 75
-39 -3 -40 -2 -40 31 0 45 10 54 44 41z m-165 -80 c11 -25 34 -65 50 -90 43
-63 53 -84 42 -84 -31 0 -121 145 -121 195 0 36 6 31 29 -21z m91 16 c0 -17 7
-45 16 -61 8 -17 13 -33 10 -36 -7 -8 -34 49 -41 90 -5 25 -4 37 4 37 6 0 11
-14 11 -30z m350 8 c0 -13 -11 -45 -25 -73 -14 -27 -23 -43 -21 -35 3 8 10 41
17 73 13 57 29 77 29 35z m100 2 c0 -45 -65 -164 -105 -192 -24 -17 -14 17 23
75 21 34 45 79 53 100 14 40 29 49 29 17z m-353 -121 l14 -34 -26 28 c-27 30
-33 51 -13 45 7 -3 18 -20 25 -39z m173 32 c0 -5 -9 -19 -20 -32 -21 -26 -27
-11 -10 22 11 19 30 26 30 10z m196 -96 c3 -19 3 -52 -2 -72 l-7 -38 -8 40
c-11 56 -11 105 1 105 5 0 12 -16 16 -35z m-585 -78 c-8 -8 -11 4 -11 39 0 66
14 80 18 19 2 -26 -2 -53 -7 -58z m234 42 c10 -15 -1 -23 -20 -15 -9 3 -13 10
-10 16 8 13 22 13 30 -1z m128 -4 c0 -6 -7 -11 -16 -13 -12 -3 -15 1 -11 13 7
17 25 17 27 0z m-268 -87 c-5 -44 -2 -57 15 -78 19 -24 21 -24 34 -7 9 11 12
33 9 60 l-5 43 36 -4 c32 -4 34 -6 20 -19 -22 -22 -14 -57 14 -61 17 -3 22
-10 22 -32 l0 -29 -52 6 c-84 9 -96 17 -105 65 -10 48 -5 108 8 108 5 0 7 -24
4 -52z m398 20 c5 -32 -9 -116 -22 -129 -3 -4 -36 -9 -73 -12 -67 -5 -68 -4
-68 19 0 17 8 27 25 34 27 10 34 47 13 68 -9 9 -8 12 4 12 9 0 24 3 33 6 14 6
16 0 15 -42 -2 -69 -2 -74 14 -74 28 0 49 49 42 101 -7 54 9 69 17 17z m-596
-77 c6 -17 8 -32 5 -35 -8 -8 -31 26 -32 47 0 27 14 20 27 -12z m626 -61 c-3
-12 -8 -19 -11 -16 -5 6 5 36 12 36 2 0 2 -9 -1 -20z m113 -36 c-3 -8 -10 -44
-16 -80 l-11 -66 77 -171 c42 -95 92 -203 111 -241 65 -129 40 -100 -156 180
-39 56 -43 68 -50 144 -8 100 1 191 23 225 18 28 31 33 22 9z m-666 -95 c0
-39 -7 -70 -24 -105 -99 -201 -206 -428 -206 -434 0 -5 -4 -11 -9 -14 -11 -7
-12 -11 51 229 54 206 61 225 83 225 8 0 26 10 40 23 23 19 27 32 32 101 6 71
7 76 19 55 7 -13 13 -49 14 -80z m834 18 c27 -31 47 -59 45 -62 -4 -4 -109 64
-133 86 -11 10 12 41 27 36 6 -2 33 -29 61 -60z m-508 -102 c10 13 14 15 14 4
-1 -15 -28 -55 -33 -48 -7 8 -27 72 -26 83 0 6 7 -5 16 -24 14 -33 16 -34 29
-15z m274 -229 c34 -115 64 -216 66 -225 8 -29 -85 163 -125 259 -38 92 -43
124 -25 179 9 28 22 -5 84 -213z m-290 -108 c0 -149 -2 -269 -4 -267 -2 2 -14
101 -27 219 l-22 215 23 53 c12 28 24 52 26 52 2 0 4 -122 4 -272z m-57 82 l5
-115 -18 99 c-14 71 -16 105 -9 119 6 10 12 17 13 15 2 -1 6 -55 9 -118z m14
-157 c-3 -10 -5 -4 -5 12 0 17 2 24 5 18 2 -7 2 -21 0 -30z"/>
<path d="M1042 2795 c0 -16 2 -22 5 -12 2 9 2 23 0 30 -3 6 -5 -1 -5 -18z"/>
<path d="M1392 2760 c0 -14 2 -19 5 -12 2 6 2 18 0 25 -3 6 -5 1 -5 -13z"/>
<path d="M922 2740 c0 -14 2 -19 5 -12 2 6 2 18 0 25 -3 6 -5 1 -5 -13z"/>
<path d="M1032 2680 c0 -19 2 -27 5 -17 2 9 2 25 0 35 -3 9 -5 1 -5 -18z"/>
<path d="M1382 2640 c0 -19 2 -27 5 -17 2 9 2 25 0 35 -3 9 -5 1 -5 -18z"/>
<path d="M1373 2505 c0 -27 2 -38 4 -22 2 15 2 37 0 50 -2 12 -4 0 -4 -28z"/>
</g>
</svg>
