<?xml version="1.0" standalone="no"?>
<!DOCTYPE svg PUBLIC "-//W3C//DTD SVG 20010904//EN"
 "http://www.w3.org/TR/2001/REC-SVG-20010904/DTD/svg10.dtd">
<svg version="1.0" xmlns="http://www.w3.org/2000/svg"
 width="244.000000pt" height="305.000000pt" viewBox="0 0 244.000000 305.000000"
 preserveAspectRatio="xMidYMid meet">
<metadata>
Created by potrace 1.16, written by Peter Selinger 2001-2019
</metadata>
<g transform="translate(0.000000,305.000000) scale(0.100000,-0.100000)"
fill="#000000" stroke="none">
<path d="M907 2900 c-47 -120 -97 -550 -97 -842 0 -132 1 -138 23 -149 12 -6
34 -23 50 -37 l27 -26 28 26 c15 14 37 31 50 37 21 11 22 18 22 119 -1 149
-17 446 -30 528 -20 135 -43 255 -47 251 -2 -2 5 -62 16 -133 25 -158 38 -315
47 -545 l7 -175 -39 -25 c-21 -13 -42 -25 -46 -27 -5 -2 -8 214 -7 480 0 279
4 475 9 463 l9 -20 -1 20 c0 11 -3 31 -8 45 -5 18 -9 21 -13 10z"/>
<path d="M1556 2902 c-8 -14 -63 -320 -70 -392 -17 -177 -26 -328 -26 -450 l0
-135 38 -23 c20 -12 45 -28 54 -34 14 -10 22 -8 46 15 15 15 33 27 40 27 22 0
30 36 26 130 -10 294 -16 396 -29 493 -17 129 -46 290 -51 284 -3 -3 5 -68 41
-302 10 -66 24 -322 24 -447 l1 -116 -37 -23 c-21 -13 -41 -25 -45 -27 -5 -2
-8 214 -8 480 0 320 4 478 10 468 7 -11 8 -5 4 20 -8 41 -10 45 -18 32z"/>
<path d="M1108 2845 c-4 -32 -4 -64 1 -70 4 -5 8 -174 9 -375 0 -318 -1 -361
-13 -335 -8 17 -14 37 -15 44 0 9 -3 11 -9 5 -13 -13 -29 -139 -26 -203 l2
-53 -34 5 c-39 7 -87 -27 -97 -68 -8 -33 -18 -32 -35 5 -28 65 -107 83 -149
34 -32 -37 -26 -70 12 -66 16 2 42 -2 57 -8 49 -21 79 -90 44 -104 -36 -13 2
-146 64 -224 17 -22 31 -43 31 -46 0 -3 -16 -26 -35 -52 -39 -51 -43 -73 -18
-115 24 -40 6 -50 -23 -14 -18 23 -24 41 -23 75 1 53 -10 128 -23 153 -11 21
-46 22 -76 1 -17 -11 -22 -25 -22 -57 0 -45 7 -61 83 -192 26 -44 47 -92 47
-107 0 -44 -15 -33 -29 21 -8 32 -32 74 -67 119 -29 38 -58 82 -64 96 -17 46
-11 97 16 144 l27 45 -23 19 c-31 25 -94 24 -121 -3 -23 -23 -23 -40 6 -150
21 -81 15 -130 -22 -158 -21 -17 -24 -26 -19 -54 l6 -32 -77 -29 c-43 -15
-120 -44 -172 -63 -51 -19 -95 -32 -98 -30 -2 3 40 33 94 67 299 191 274 172
269 205 -2 17 -10 67 -17 113 -17 112 -34 107 -25 -7 l7 -90 -33 5 c-31 6 -42
-3 -215 -167 -100 -95 -180 -175 -178 -177 2 -2 107 31 234 74 214 72 231 79
231 101 0 34 22 38 76 13 60 -26 82 -45 100 -89 19 -46 19 -49 -23 -68 -35
-17 -39 -24 -66 -113 -35 -115 -103 -334 -128 -413 -10 -32 -14 -57 -9 -55 4
2 95 101 200 221 l193 219 -12 38 c-17 59 -17 60 50 60 l62 0 -6 -67 c-15
-166 -15 -197 1 -73 14 112 20 135 35 138 25 5 23 -16 -20 -228 -30 -147 -39
-179 -45 -155 -5 23 -6 19 -4 -17 2 -26 -1 -51 -6 -56 -5 -5 -8 -25 -6 -43 2
-26 15 6 57 141 30 96 56 179 59 185 8 13 12 -3 78 -332 32 -161 59 -291 60
-290 1 1 30 143 65 315 34 172 66 309 69 305 4 -5 31 -85 60 -180 30 -95 55
-171 56 -170 2 2 -36 361 -51 479 l-6 48 66 0 c63 0 65 -1 65 -26 0 -14 -5
-34 -11 -45 -13 -26 -7 -35 117 -174 55 -61 135 -151 178 -200 44 -50 83 -91
87 -93 9 -4 -1 31 -151 521 -12 38 -29 57 -50 57 -10 0 -23 6 -29 14 -28 33
39 119 116 151 52 22 63 19 63 -14 l0 -29 240 -80 c132 -44 237 -76 234 -70
-4 6 -55 57 -113 112 -58 56 -138 132 -178 170 -68 65 -74 68 -108 62 l-36 -7
6 33 c10 55 12 139 4 144 -9 5 -16 -32 -24 -134 l-5 -73 47 6 48 6 138 -132
c76 -72 136 -133 134 -136 -3 -2 -67 33 -143 78 -77 44 -155 90 -174 101 -61
33 -90 76 -90 130 0 27 7 65 15 85 21 49 19 106 -3 126 -21 19 -83 22 -113 7
-26 -14 -24 -38 6 -82 41 -60 30 -116 -39 -208 -76 -102 -80 -110 -81 -181 0
-76 10 -94 66 -110 45 -14 43 -10 120 -259 64 -207 64 -207 51 -195 -8 8 -100
169 -220 385 -13 25 -29 50 -34 56 -4 6 -6 18 -3 26 3 7 -1 33 -10 57 -8 24
-15 49 -15 55 0 6 31 65 70 131 75 129 89 169 69 206 -16 31 -28 39 -61 39
-38 0 -47 -23 -53 -126 -3 -73 -8 -93 -31 -128 -27 -40 -27 -40 -38 -16 -8 18
-8 24 2 28 7 2 19 17 28 34 14 27 14 32 -2 56 -9 15 -28 39 -42 54 l-25 28 36
52 c70 103 100 210 62 224 -25 10 -17 48 16 82 26 26 39 32 75 32 40 0 44 2
44 25 0 14 -9 34 -20 45 -48 48 -112 31 -147 -38 l-22 -43 -19 44 c-24 55 -31
59 -93 59 -47 -1 -62 9 -38 24 12 7 6 124 -11 199 -5 22 -14 175 -20 340 -6
165 -13 309 -15 320 -2 11 -4 49 -4 84 -1 35 -4 62 -7 58 -3 -3 -5 -220 -5
-482 2 -386 -1 -476 -11 -473 -9 3 -15 41 -20 129 -3 68 -12 167 -18 219 -17
139 -56 328 -66 318 -12 -13 -56 -248 -68 -366 l-14 -137 -1 149 c-1 163 -18
506 -30 601 l-7 60 -6 -60z m172 -540 c12 -112 4 -401 -11 -411 -5 -3 -9 96
-9 219 0 123 -2 253 -5 288 -8 102 11 26 25 -96z m-127 -420 c-5 -13 -23 -22
-23 -11 0 15 14 35 21 31 4 -3 6 -12 2 -20z m174 -7 c-3 -8 -6 -5 -6 6 -1 11
2 17 5 13 3 -3 4 -12 1 -19z m-32 -83 c1 -41 -3 -75 -7 -75 -10 0 -11 134 -1
143 3 4 7 7 7 7 1 0 1 -34 1 -75z m70 20 c-14 -39 -14 -39 -15 -9 0 16 5 35
12 42 18 18 18 10 3 -33z m-249 21 c3 -8 4 -24 2 -36 -2 -17 -5 -14 -14 14
-10 34 0 53 12 22z m-45 -76 c10 -6 19 -17 19 -25 0 -18 -12 -19 -27 -4 -6 6
-16 9 -21 5 -16 -9 -1 -55 24 -75 29 -23 32 -66 7 -94 -10 -11 -13 -22 -8 -24
24 -8 33 -20 40 -50 8 -40 -7 -43 -32 -7 -10 15 -30 38 -44 53 -33 33 -49 63
-49 94 0 14 -7 30 -15 37 -20 17 -19 42 3 67 28 33 68 41 103 23z m424 -15
c28 -27 33 -70 10 -79 -8 -3 -15 -18 -15 -33 -1 -32 -16 -62 -48 -95 -12 -13
-34 -36 -47 -52 -30 -35 -37 -31 -29 14 4 20 14 35 26 37 22 6 23 16 3 33 -23
19 -20 81 5 87 19 5 48 69 36 81 -4 3 -16 0 -28 -7 -12 -8 -24 -9 -30 -3 -16
16 24 38 75 41 10 0 29 -10 42 -24z m-320 -135 c13 -5 26 -15 31 -22 4 -7 4
-10 -1 -6 -4 4 -14 3 -22 -4 -11 -9 -17 -8 -27 3 -15 15 -28 104 -17 115 3 3
7 -13 9 -36 3 -32 8 -43 27 -50z m156 27 c-8 -51 -23 -73 -40 -63 -18 11 -13
33 9 39 16 4 20 14 20 48 0 26 4 39 9 34 5 -6 6 -31 2 -58z m-31 -2 c0 -2 -7
-5 -15 -9 -12 -4 -15 3 -15 32 l0 37 15 -29 c8 -15 15 -30 15 -31z m-360 -65
c13 -28 30 -56 37 -62 7 -6 13 -22 13 -36 0 -25 0 -25 -21 -6 -26 23 -54 77
-64 122 -10 48 8 39 35 -18z m177 18 c-3 -7 -5 -2 -5 12 0 14 2 19 5 13 2 -7
2 -19 0 -25z m240 10 c-3 -8 -6 -5 -6 6 -1 11 2 17 5 13 3 -3 4 -12 1 -19z
m213 0 c0 -25 -54 -125 -81 -151 -18 -17 -19 -17 -19 3 0 12 13 40 28 63 16
23 34 57 41 75 15 37 31 42 31 10z m-321 -72 c-1 -6 -5 -22 -9 -36 -7 -23 -8
-23 -9 -3 -1 12 -3 28 -6 36 -4 8 0 14 10 14 8 0 15 -5 14 -11z m-90 -79 c11
-31 17 -57 12 -57 -4 0 -15 24 -26 53 -29 83 -29 83 -17 72 6 -6 20 -36 31
-68z m162 -13 c-30 -67 -35 -50 -8 27 15 44 23 57 25 42 2 -12 -6 -43 -17 -69z
m-271 -16 c0 -16 -3 -19 -11 -11 -6 6 -8 16 -5 22 11 17 16 13 16 -11z m380
-4 c0 -8 -5 -12 -10 -9 -6 4 -8 11 -5 16 9 14 15 11 15 -7z m-303 -50 c-12
-13 -37 6 -37 28 l0 22 22 -21 c12 -13 19 -25 15 -29z m251 19 c-4 -22 -38
-30 -38 -10 0 14 13 24 33 26 5 1 7 -7 5 -16z m-378 -109 c-8 -27 -8 -26 -9
16 0 32 2 40 9 29 5 -9 6 -28 0 -45z m467 -21 c-2 -16 -4 -3 -4 27 0 30 2 43
4 28 2 -16 2 -40 0 -55z m-401 -3 c8 -35 13 -65 10 -67 -6 -7 -36 88 -36 115
0 39 10 20 26 -48z m100 43 c-10 -10 -19 5 -10 18 6 11 8 11 12 0 2 -7 1 -15
-2 -18z m154 12 c0 -8 -4 -15 -9 -15 -13 0 -22 16 -14 24 11 11 23 6 23 -9z
m95 -61 c-20 -68 -30 -66 -15 2 14 65 21 82 27 67 2 -7 -3 -38 -12 -69z m-294
-41 c11 -12 14 -12 21 1 8 14 38 23 38 12 0 -2 3 -11 6 -19 3 -10 -6 -20 -27
-31 -18 -9 -33 -16 -35 -16 -11 0 -27 51 -30 99 l-3 56 9 -44 c5 -24 15 -50
21 -58z m250 25 c-17 -77 -21 -81 -60 -62 -20 10 -31 22 -29 32 4 23 36 27 40
6 3 -17 4 -17 21 0 11 11 17 33 17 59 0 31 3 38 12 29 9 -9 8 -24 -1 -64z
m-401 -47 c0 -12 -23 -31 -37 -31 -13 0 -18 31 -7 42 7 7 44 -2 44 -11z m544
-14 c13 -20 5 -30 -18 -21 -9 3 -16 15 -16 26 0 22 18 20 34 -5z m-644 -137
c-6 -11 -13 -20 -16 -20 -2 0 0 9 6 20 6 11 13 20 16 20 2 0 0 -9 -6 -20z m14
-116 l7 -70 -53 -66 c-103 -127 -221 -263 -231 -267 -6 -2 3 20 20 50 16 30
67 124 113 209 75 139 129 225 135 218 1 -2 5 -35 9 -74z m366 27 c0 -9 -20
-37 -20 -29 0 3 -2 13 -5 21 -4 8 0 14 10 14 8 0 15 -3 15 -6z m169 -191 c43
-219 44 -225 20 -155 -67 196 -87 283 -73 320 12 30 21 2 53 -165z m-269 140
c22 -22 18 -45 -11 -61 -16 -8 -19 -6 -19 13 0 13 -3 33 -6 46 -8 28 9 29 36
2z m200 -31 l0 -52 -26 26 c-25 25 -25 34 1 64 19 23 25 13 25 -38z m-17 -126
c-66 -340 -74 -364 -65 -203 9 171 8 288 -2 320 -7 22 -2 19 35 -17 l43 -42
-11 -58z"/>
<path d="M1333 2630 c0 -30 2 -43 4 -27 2 15 2 39 0 55 -2 15 -4 2 -4 -28z"/>
<path d="M1093 2620 c0 -25 2 -35 4 -22 2 12 2 32 0 45 -2 12 -4 2 -4 -23z"/>
<path d="M1084 2400 c0 -58 1 -81 3 -52 2 28 2 76 0 105 -2 28 -3 5 -3 -53z"/>
<path d="M1323 2420 c0 -47 2 -66 4 -42 2 23 2 61 0 85 -2 23 -4 4 -4 -43z"/>
<path d="M1002 630 c0 -19 2 -27 5 -17 2 9 2 25 0 35 -3 9 -5 1 -5 -18z"/>
</g>
</svg>
