<?xml version="1.0" standalone="no"?>
<!DOCTYPE svg PUBLIC "-//W3C//DTD SVG 20010904//EN"
 "http://www.w3.org/TR/2001/REC-SVG-20010904/DTD/svg10.dtd">
<svg version="1.0" xmlns="http://www.w3.org/2000/svg"
 width="244.000000pt" height="305.000000pt" viewBox="0 0 244.000000 305.000000"
 preserveAspectRatio="xMidYMid meet">
<metadata>
Created by potrace 1.16, written by Peter Selinger 2001-2019
</metadata>
<g transform="translate(0.000000,305.000000) scale(0.100000,-0.100000)"
fill="#000000" stroke="none">
<path d="M1062 2900 c0 -14 2 -19 5 -12 2 6 2 18 0 25 -3 6 -5 1 -5 -13z"/>
<path d="M937 2833 c-40 -194 -57 -359 -66 -653 -7 -227 -6 -256 8 -265 8 -5
28 -23 44 -38 l30 -28 30 30 c33 35 40 37 57 16 16 -20 5 -33 -24 -28 -30 6
-56 -28 -56 -75 0 -39 -16 -34 -25 8 -19 85 -145 76 -145 -10 0 -29 1 -30 39
-24 35 6 41 3 65 -28 30 -40 33 -63 10 -85 -11 -12 -14 -28 -10 -62 3 -25 2
-73 -3 -106 -5 -33 -9 -52 -10 -42 -1 21 -3 21 -45 3 -39 -16 -50 -52 -35
-112 15 -55 15 -69 4 -73 -5 -2 -19 22 -30 53 -20 58 -18 79 16 164 13 31 12
35 -5 48 -28 20 -80 18 -99 -4 -21 -23 -21 -59 -1 -130 21 -73 14 -159 -16
-182 -15 -11 -20 -25 -18 -50 l3 -34 -130 -57 c-72 -31 -141 -60 -155 -64 -31
-9 -6 11 179 145 l131 95 -6 35 c-3 19 -12 71 -19 115 l-13 80 -1 -92 c-1 -94
-4 -101 -31 -83 -16 10 -6 20 -195 -185 -60 -66 -118 -128 -128 -138 -10 -10
-17 -20 -15 -23 2 -2 95 31 206 74 195 74 202 78 202 105 0 30 16 35 45 13 18
-13 16 -18 -34 -105 -29 -51 -51 -94 -49 -96 2 -2 43 21 92 51 57 36 92 52 98
46 17 -17 4 -45 -26 -62 -17 -9 -33 -29 -38 -45 -12 -43 -127 -485 -134 -515
-7 -31 -21 -48 144 168 41 53 88 117 106 140 42 59 42 45 7 -168 -16 -96 -28
-176 -26 -178 1 -1 30 60 65 135 34 76 80 176 102 223 33 72 39 93 36 140 l-3
55 30 -2 c19 -1 40 -14 58 -33 27 -30 27 -33 13 -53 -48 -66 -47 -50 -15 -227
16 -91 41 -235 55 -320 22 -133 34 -188 34 -154 0 5 16 99 35 209 78 442 78
435 47 468 -28 30 -28 49 1 82 24 27 84 41 79 17 -11 -54 -1 -94 46 -197 133
-291 158 -339 146 -287 -5 23 -54 329 -54 337 0 11 60 -64 182 -225 61 -83
115 -150 119 -150 6 0 -29 140 -111 445 -30 112 -34 121 -64 135 -24 12 -30
20 -28 40 2 14 5 27 7 28 4 4 66 -28 75 -39 10 -11 81 -51 85 -48 2 2 -16 39
-41 83 -24 43 -44 82 -44 86 0 11 60 31 71 24 5 -3 9 -16 9 -29 0 -20 13 -28
98 -61 53 -21 146 -57 206 -81 60 -23 112 -41 114 -38 3 3 -26 38 -64 78 -38
39 -113 118 -166 175 -87 90 -101 102 -123 96 l-26 -6 2 78 c1 44 0 88 -1 99
-4 27 -18 -86 -19 -153 l-1 -52 38 6 c36 5 38 4 128 -93 128 -138 167 -183
162 -183 -6 0 -238 155 -301 201 -23 17 -47 40 -54 52 -17 31 -16 98 4 173 16
59 16 68 2 92 -15 28 -51 39 -94 28 -35 -9 -37 -32 -9 -87 23 -45 24 -55 15
-104 -10 -54 -35 -105 -52 -105 -13 0 -11 19 6 65 31 88 11 145 -52 145 l-30
0 -7 -90 c-4 -50 -4 -95 -1 -100 3 -6 1 -10 -4 -10 -10 0 -17 50 -13 90 1 8 7
80 12 159 9 125 9 146 -5 161 -21 23 -19 38 11 77 21 28 31 33 65 33 35 0 39
2 39 26 0 87 -103 98 -138 14 -9 -22 -20 -40 -23 -40 -4 0 -10 16 -13 35 -7
36 -38 65 -69 65 -15 0 -16 3 -7 20 14 26 26 25 56 -5 14 -14 27 -25 31 -25 3
0 21 14 40 30 18 17 39 30 45 30 25 0 -4 548 -42 790 -5 36 -10 69 -10 74 0 5
-2 7 -5 4 -3 -3 1 -54 9 -114 22 -163 34 -318 41 -529 l5 -190 -40 -28 -41
-29 3 506 c2 278 0 506 -4 506 -5 0 -8 -4 -8 -8 0 -5 -11 -73 -24 -153 -13
-79 -27 -162 -30 -184 -2 -22 -7 -53 -10 -70 -2 -16 -7 -151 -11 -298 -3 -148
-9 -275 -12 -283 -20 -53 -24 27 -21 485 2 275 2 498 1 497 -10 -10 -36 -363
-47 -618 -7 -169 -15 -310 -18 -314 -3 -3 -9 29 -13 71 -4 43 -11 72 -15 65
-4 -6 -10 43 -14 110 -8 152 -49 401 -62 387 -13 -13 -55 -285 -61 -395 -3
-70 -9 -117 -13 -107 -5 13 -10 -9 -16 -60 -8 -78 -8 -79 -15 -35 -4 25 -8 65
-8 89 -1 68 -19 38 -32 -54 -23 -172 -27 -127 -29 345 -3 462 -9 527 -25 273
-5 -62 -11 -113 -15 -113 -4 0 -11 33 -15 73 -7 76 -22 156 -24 122 0 -11 6
-67 14 -125 10 -70 14 -199 15 -386 0 -280 0 -281 -23 -302 -13 -12 -26 -22
-30 -22 -4 0 -7 217 -6 483 0 296 4 474 9 462 7 -14 8 -8 3 20 -3 22 -7 41 -8
43 -1 1 -9 -33 -18 -75z m323 -563 l3 -75 6 55 c6 53 6 52 14 -39 4 -52 6
-155 5 -230 l-2 -136 -6 150 c-5 138 -6 129 -8 -103 -2 -210 -5 -256 -17 -268
-13 -14 -15 33 -13 418 1 377 9 477 18 228z m-166 -411 c-3 -5 -10 -7 -15 -3
-5 3 -7 10 -3 15 3 5 10 7 15 3 5 -3 7 -10 3 -15z m297 -2 c-13 -13 -26 -3
-16 12 3 6 11 8 17 5 6 -4 6 -10 -1 -17z m-261 -106 c0 -22 -15 -35 -30 -26
-7 4 -7 13 0 26 14 25 30 25 30 0z m244 -6 c6 -17 -9 -29 -24 -20 -5 3 -10 15
-10 25 0 22 25 18 34 -5z m-335 -49 c0 -12 -4 -41 -8 -66 l-8 -45 -8 40 c-4
22 -14 46 -21 53 -12 11 -11 18 2 45 16 29 17 30 30 12 8 -10 14 -28 13 -39z
m427 46 c20 -13 26 -51 11 -66 -8 -8 -18 -34 -23 -58 l-8 -43 -4 40 c-2 22 -7
45 -12 50 -6 7 -5 26 2 48 12 38 16 42 34 29z m-174 -72 c3 -16 1 -30 -4 -30
-4 0 -8 14 -8 30 0 17 2 30 4 30 2 0 6 -13 8 -30z m-132 -40 c0 -10 9 -20 20
-23 12 -3 28 -23 38 -48 l19 -44 12 38 c7 21 23 45 36 53 13 8 25 24 28 34 8
30 45 26 53 -5 10 -42 -1 -57 -39 -50 -40 8 -61 -12 -81 -76 l-13 -44 -12 45
c-18 62 -36 81 -73 73 -32 -6 -48 7 -48 41 0 25 31 48 47 34 7 -6 13 -18 13
-28z m-180 -60 c7 -19 25 -51 39 -70 71 -95 82 -134 20 -75 -44 43 -89 131
-89 173 0 31 12 20 30 -28z m98 8 c5 -24 17 -61 27 -83 17 -40 17 -40 -3 -22
-19 18 -42 85 -42 126 0 34 8 24 18 -21z m327 -5 c-8 -52 -36 -115 -42 -96 -2
6 2 24 10 40 8 15 17 45 21 66 10 54 20 46 11 -10z m120 15 c-14 -64 -107
-204 -127 -192 -13 8 -5 26 41 87 22 28 47 71 56 95 20 50 40 57 30 10z m-365
-89 c6 -11 9 -25 7 -32 -2 -7 -11 3 -21 21 -9 17 -12 32 -7 32 6 0 15 -9 21
-21z m170 7 c0 -8 -9 -24 -19 -37 l-20 -24 6 25 c9 39 33 65 33 36z m-361
-114 c0 -15 -4 -36 -9 -47 -6 -15 -9 -6 -9 33 -1 33 3 51 9 47 6 -3 10 -18 9
-33z m551 -13 c0 -24 -4 -38 -10 -34 -5 3 -10 22 -10 41 0 19 5 34 10 34 6 0
10 -18 10 -41z m-623 -11 c-3 -7 -5 -2 -5 12 0 14 2 19 5 13 2 -7 2 -19 0 -25z
m287 7 c3 -9 0 -15 -9 -15 -8 0 -15 7 -15 15 0 8 4 15 9 15 5 0 11 -7 15 -15z
m131 5 c3 -6 -1 -13 -10 -16 -19 -8 -30 0 -20 15 8 14 22 14 30 1z m-262 -98
c-4 -37 -1 -52 14 -71 30 -36 46 -19 38 39 -7 49 1 65 28 54 11 -4 14 -16 10
-44 -5 -34 -3 -39 18 -42 18 -2 25 -10 27 -31 4 -30 8 -29 -98 -12 -14 2 -28
4 -32 4 -13 2 -30 84 -23 118 9 51 25 39 18 -15z m381 13 c9 -49 -12 -114 -38
-120 -58 -11 -116 -13 -121 -5 -11 18 6 49 28 52 29 4 36 47 11 65 -17 12 -17
13 3 13 12 0 29 3 39 7 15 6 16 1 10 -49 -8 -66 6 -85 37 -47 15 19 18 34 14
71 -7 55 8 65 17 13z m216 -73 c0 -15 -28 -47 -35 -40 -11 11 5 48 21 48 8 0
14 -4 14 -8z m-780 -36 c0 -8 3 -23 6 -33 5 -12 4 -15 -3 -8 -16 15 -26 55
-14 55 6 0 11 -6 11 -14z m150 -31 c0 -5 -5 -3 -10 5 -5 8 -10 20 -10 25 0 6
5 3 10 -5 5 -8 10 -19 10 -25z m-94 -200 c5 -117 4 -122 -21 -155 -14 -19 -66
-91 -117 -160 -132 -183 -132 -183 -23 45 130 270 138 292 131 361 -3 33 -3
64 1 68 15 14 25 -42 29 -159z m809 112 c35 -60 32 -63 -14 -14 -36 39 -43 57
-21 57 5 0 21 -20 35 -43z m-927 12 c2 -9 -11 -23 -33 -34 -19 -11 -35 -22
-35 -26 0 -3 -11 -11 -25 -17 -33 -15 -32 -9 8 34 17 20 36 42 40 50 11 19 41
14 45 -7z m786 -40 c7 -71 16 -85 57 -94 37 -8 36 -6 100 -245 28 -107 54
-199 57 -205 3 -5 -2 -4 -11 4 -9 7 -17 17 -17 22 0 4 -52 113 -115 240 -85
172 -115 242 -115 270 0 90 34 96 44 8z m-335 -88 c-7 -23 -15 -41 -19 -41
-11 0 -43 70 -36 77 3 4 6 2 6 -3 0 -6 7 -19 14 -30 14 -18 15 -18 27 14 16
46 23 33 8 -17z m-211 -67 c3 -44 -7 -73 -72 -225 -42 -95 -76 -169 -76 -164
0 6 22 89 49 185 27 96 54 194 61 218 15 57 34 49 38 -14z m458 31 c3 -14 3
-36 0 -50 -4 -15 -1 -34 8 -48 7 -12 21 -71 30 -132 9 -60 19 -126 22 -145 3
-19 4 -33 1 -30 -4 4 -78 255 -112 383 l-13 47 29 0 c22 0 30 -6 35 -25z
m-239 -350 l-25 -220 0 275 -1 275 25 -55 26 -55 -25 -220z m55 202 c0 -29
-19 -148 -36 -222 -2 -11 -1 21 2 70 4 50 7 118 7 152 0 52 2 60 14 49 7 -8
13 -30 13 -49z"/>
<path d="M1532 2840 c0 -14 2 -19 5 -12 2 6 2 18 0 25 -3 6 -5 1 -5 -13z"/>
<path d="M1072 2815 c0 -16 2 -22 5 -12 2 9 2 23 0 30 -3 6 -5 -1 -5 -18z"/>
<path d="M972 2790 c0 -19 2 -27 5 -17 2 9 2 25 0 35 -3 9 -5 1 -5 -18z"/>
<path d="M1083 2710 c0 -25 2 -35 4 -22 2 12 2 32 0 45 -2 12 -4 2 -4 -23z"/>
<path d="M1422 2685 c0 -16 2 -22 5 -12 2 9 2 23 0 30 -3 6 -5 -1 -5 -18z"/>
<path d="M1093 2585 c0 -27 2 -38 4 -22 2 15 2 37 0 50 -2 12 -4 0 -4 -28z"/>
<path d="M1433 2575 c0 -27 2 -38 4 -22 2 15 2 37 0 50 -2 12 -4 0 -4 -28z"/>
<path d="M1104 2395 c0 -60 1 -84 3 -52 2 32 2 81 0 110 -2 29 -3 3 -3 -58z"/>
<path d="M1113 2210 c0 -41 2 -58 4 -37 2 20 2 54 0 75 -2 20 -4 3 -4 -38z"/>
</g>
</svg>
