<?xml version="1.0" standalone="no"?>
<!DOCTYPE svg PUBLIC "-//W3C//DTD SVG 20010904//EN"
 "http://www.w3.org/TR/2001/REC-SVG-20010904/DTD/svg10.dtd">
<svg version="1.0" xmlns="http://www.w3.org/2000/svg"
 width="244.000000pt" height="305.000000pt" viewBox="0 0 244.000000 305.000000"
 preserveAspectRatio="xMidYMid meet">
<metadata>
Created by potrace 1.16, written by Peter Selinger 2001-2019
</metadata>
<g transform="translate(0.000000,305.000000) scale(0.100000,-0.100000)"
fill="#000000" stroke="none">
<path d="M1440 2904 c-1 -10 -9 -84 -20 -164 -11 -80 -25 -258 -32 -397 -6
-138 -15 -250 -19 -247 -4 2 -12 -4 -18 -13 -9 -16 -10 -15 -11 7 -1 39 -20 3
-21 -40 0 -19 -4 -44 -8 -55 -4 -11 -10 54 -14 150 -6 171 -26 335 -51 416
l-13 44 -11 -40 c-23 -81 -43 -244 -49 -397 -3 -87 -10 -155 -14 -152 -5 3 -9
23 -9 45 0 42 -16 54 -22 17 -4 -20 -6 -18 -15 12 -6 19 -13 28 -14 20 -2 -8
-6 44 -9 115 -6 129 -6 128 -8 -65 -2 -175 -4 -198 -22 -227 -11 -18 -21 -33
-23 -33 -1 0 -1 35 2 78 2 42 -2 239 -9 437 -10 277 -10 369 -1 396 7 23 8 44
3 60 -8 19 -12 5 -23 -71 l-13 -95 -19 103 c-10 56 -22 102 -25 102 -4 0 -6
-228 -4 -506 l3 -506 -37 29 -36 28 6 255 c3 140 12 302 20 360 16 107 19 157
12 149 -15 -15 -38 -264 -47 -502 l-10 -279 41 -36 c29 -24 38 -38 31 -45 -7
-7 -18 -7 -36 1 -14 7 -35 12 -45 12 -30 0 -60 -36 -60 -70 0 -28 3 -30 36
-30 27 0 42 -7 65 -32 33 -36 37 -59 13 -79 -13 -11 -15 -24 -10 -66 6 -51 5
-53 -18 -53 -34 0 -56 -25 -56 -66 0 -19 -4 -34 -10 -34 -5 0 -10 18 -10 40 0
45 -18 60 -73 60 -35 0 -59 -18 -64 -49 -2 -9 6 -51 17 -93 18 -65 19 -84 9
-122 -12 -50 -35 -70 -243 -210 -157 -105 -154 -100 69 132 68 70 71 73 108
66 l37 -6 -6 89 c-10 129 -25 158 -20 40 l3 -98 -27 6 c-25 6 -41 -9 -194
-172 -92 -98 -163 -179 -159 -180 4 -2 80 26 168 61 88 34 162 62 164 60 2 -2
-11 -25 -28 -52 -17 -27 -31 -51 -31 -54 0 -3 58 25 129 63 71 38 133 69 139
69 12 0 45 -86 38 -98 -3 -5 -18 -12 -34 -15 -26 -5 -29 -12 -60 -129 -65
-251 -111 -424 -117 -441 -14 -34 11 -15 52 41 22 31 66 90 97 130 64 84 67
79 36 -62 -28 -128 -26 -127 62 29 160 282 167 297 161 349 l-6 49 43 -6 c45
-6 100 -48 100 -77 0 -9 -11 -27 -25 -40 -21 -20 -24 -30 -19 -59 3 -20 14
-85 24 -146 11 -60 26 -150 34 -200 9 -49 22 -128 31 -175 8 -47 15 -89 15
-94 0 -5 2 -7 4 -5 6 6 108 607 108 636 0 12 -11 36 -26 53 -25 30 -25 32 -9
57 29 44 127 71 139 39 3 -8 1 -30 -4 -49 -10 -34 -5 -45 95 -224 58 -103 116
-208 129 -233 14 -27 24 -37 24 -26 0 34 -45 231 -48 210 -2 -11 2 -40 7 -64
5 -25 9 -46 7 -47 -4 -4 -96 241 -96 253 0 18 59 -63 65 -89 4 -15 11 -25 15
-22 5 3 48 -46 96 -110 47 -63 91 -115 96 -115 5 0 6 5 3 10 -4 6 -22 70 -40
143 -19 73 -45 175 -60 227 -14 52 -30 114 -36 138 -9 32 -19 46 -38 53 -14 6
-28 15 -32 20 -8 14 16 82 30 87 11 4 130 -54 249 -120 30 -16 55 -28 58 -26
2 2 -13 28 -32 57 -20 29 -34 55 -31 57 2 3 20 -2 38 -10 105 -47 249 -99 249
-90 0 3 -12 18 -27 33 -25 25 -126 135 -247 269 -34 37 -43 42 -68 37 l-28 -7
7 93 c7 109 -10 119 -21 12 -4 -38 -9 -86 -12 -109 l-6 -41 69 -48 c37 -27 91
-67 120 -89 28 -23 70 -54 93 -70 23 -15 40 -30 37 -32 -5 -5 -87 27 -179 69
-76 36 -108 69 -108 112 0 9 -7 18 -15 22 -21 7 -45 56 -45 88 0 15 9 62 20
105 22 87 17 123 -20 135 -28 9 -90 -3 -90 -17 0 -6 -8 -4 -18 5 -23 21 -66
22 -82 2 -10 -12 -10 -24 -1 -54 6 -21 11 -54 10 -72 l-1 -34 -10 30 c-6 17
-18 38 -26 48 -14 16 -14 21 2 55 22 46 33 146 17 156 -21 13 -12 57 19 87 23
24 37 30 62 27 27 -2 34 1 36 18 2 11 -7 33 -19 48 -20 25 -27 28 -65 22 -57
-7 -67 10 -26 44 l32 26 0 110 c0 333 -61 901 -91 853 -5 -8 -9 -25 -9 -39 0
-20 2 -22 10 -10 6 10 9 -108 8 -340 -1 -223 -4 -312 -8 -240 -5 100 -6 87 -8
-96 -2 -171 -5 -214 -17 -224 -34 -28 -36 -4 -36 333 0 183 0 348 -1 367 -1
19 0 88 1 153 2 65 0 121 -3 124 -3 4 -6 -2 -6 -13z m80 -994 c0 -5 -4 -10
-10 -10 -5 0 -10 5 -10 10 0 6 5 10 10 10 6 0 10 -4 10 -10z m-430 -41 c0 -12
-27 -11 -35 1 -11 17 5 32 21 19 8 -6 14 -15 14 -20z m333 16 c7 -17 -8 -29
-28 -21 -17 6 -9 36 10 36 7 0 15 -7 18 -15z m-417 -6 c3 -6 2 -15 -2 -19 -12
-12 -38 5 -30 19 9 14 23 14 32 0z m476 -21 c-15 -15 -26 -4 -18 18 5 13 9 15
18 6 9 -9 9 -15 0 -24z m-79 -105 c5 -3 0 -11 -9 -18 -20 -14 -54 0 -54 23 0
11 39 8 63 -5z m-273 -1 c0 -4 -9 -13 -19 -19 -15 -10 -22 -9 -30 1 -6 7 -8
16 -4 19 9 10 53 9 53 -1z m282 -86 c-6 -12 -13 -38 -17 -59 -5 -29 -10 -37
-22 -33 -68 27 -95 14 -121 -56 l-20 -53 -11 43 c-21 75 -54 93 -123 67 -13
-5 -18 1 -23 32 -4 21 -11 51 -17 66 -14 37 -3 46 14 10 11 -24 19 -28 51 -27
32 0 37 -3 37 -22 0 -13 8 -24 18 -26 10 -3 26 -22 36 -42 9 -20 19 -36 22
-36 3 0 10 13 15 29 6 16 21 37 35 46 13 8 24 24 24 33 0 15 6 18 30 14 37 -5
56 10 66 51 7 29 8 30 12 8 2 -13 -1 -33 -6 -45z m-413 27 c0 -25 -1 -25 -8
-8 -5 11 -7 23 -4 28 8 14 13 7 12 -20z m1 -181 c27 -68 20 -77 -15 -19 -30
53 -47 105 -38 120 6 11 12 0 53 -101z m40 89 c0 -11 3 -28 7 -38 3 -10 3 -15
-1 -12 -12 11 -25 69 -15 69 5 0 9 -9 9 -19z m405 -11 c-4 -12 -9 -19 -12 -17
-3 3 -2 15 2 27 4 12 9 19 12 17 3 -3 2 -15 -2 -27z m75 5 c0 -25 -49 -139
-57 -131 -2 2 5 32 16 67 12 34 21 68 21 76 0 7 5 13 10 13 6 0 10 -11 10 -25z
m-370 -85 c11 -11 20 -24 20 -29 0 -5 3 -16 6 -25 12 -30 -15 -16 -41 21 -14
21 -25 41 -25 45 0 14 20 8 40 -12z m210 13 c0 -5 -9 -23 -20 -40 -22 -36 -51
-45 -43 -14 9 34 63 80 63 54z m-427 -47 c3 -8 -1 -29 -10 -47 -13 -26 -14
-45 -7 -105 11 -82 1 -90 -15 -13 -14 65 -14 105 1 146 13 36 23 41 31 19z
m747 -43 c0 -7 -4 -13 -10 -13 -5 0 -10 12 -10 28 0 21 2 24 10 12 5 -8 10
-21 10 -27z m-887 -67 c4 -79 4 -80 -14 -57 -21 26 -25 85 -8 128 14 35 16 28
22 -71z m909 5 c0 -22 -6 -49 -12 -58 -9 -15 -10 -12 -6 16 3 18 6 47 6 64 0
17 3 28 6 24 4 -3 6 -24 6 -46z m-520 4 c22 -29 0 -33 -33 -5 l-24 20 25 -3
c14 -1 28 -6 32 -12z m168 10 c0 -5 -55 -35 -65 -35 -15 0 -2 22 18 30 25 10
47 12 47 5z m316 -121 c-13 -33 -24 -2 -13 34 12 36 12 36 15 9 2 -16 1 -35
-2 -43z m-516 22 c-19 -19 -11 -56 15 -66 31 -12 35 -55 5 -63 -10 -3 -21 0
-23 6 -2 7 -27 10 -65 9 -51 -2 -62 0 -62 13 0 11 8 15 28 13 26 -3 27 -2 28
52 0 30 1 58 2 61 1 3 20 1 42 -4 26 -8 37 -14 30 -21z m245 -35 l0 -56 33 3
c24 2 32 -1 30 -10 -3 -9 -26 -13 -67 -13 -43 0 -65 -4 -71 -14 -7 -12 -11
-12 -24 -2 -25 21 -19 50 10 61 23 9 26 15 21 44 -5 31 -3 34 26 43 18 5 34 8
37 5 3 -2 5 -29 5 -61z m175 37 c0 -19 -46 -115 -59 -122 -16 -11 -14 0 14 52
14 26 25 55 25 64 0 10 5 18 10 18 6 0 10 -6 10 -12z m-743 -60 c-3 -8 -6 -5
-6 6 -1 11 2 17 5 13 3 -3 4 -12 1 -19z m143 -62 c0 -5 -7 -1 -15 10 -8 10
-14 24 -14 29 0 6 6 1 14 -9 8 -11 15 -24 15 -30z m815 -16 c4 -6 4 -18 1 -27
-5 -12 -9 -13 -21 -3 -8 7 -15 19 -15 26 0 16 26 19 35 4z m-1025 -25 c7 -9
11 -17 9 -18 -26 -20 -146 -90 -167 -98 -21 -8 -11 7 43 60 71 72 93 83 115
56z m1060 5 c0 -5 -2 -10 -4 -10 -3 0 -8 5 -11 10 -3 6 -1 10 4 10 6 0 11 -4
11 -10z m-915 -30 c16 -31 21 -120 6 -120 -5 0 -16 -19 -24 -42 -21 -61 -210
-449 -215 -443 -3 3 2 31 12 62 9 32 36 129 59 216 l44 159 41 18 c48 22 57
44 50 125 -5 61 4 70 27 25z m668 -58 c-4 -43 -10 -62 -19 -62 -19 0 -18 51 1
97 8 20 17 34 19 32 3 -2 2 -32 -1 -67z m272 42 c24 -15 71 -84 58 -84 -10 0
-93 83 -93 92 0 12 8 10 35 -8z m-575 -103 c-9 -32 -28 -71 -35 -71 -8 0 -35
59 -35 77 1 11 6 5 15 -14 13 -31 35 -45 35 -24 0 14 19 61 24 61 3 0 1 -13
-4 -29z m-258 -85 c6 -27 4 -47 -6 -65 -132 -252 -167 -314 -172 -308 -3 2 0
15 5 28 6 13 27 69 47 124 20 55 47 114 60 132 17 22 23 40 19 56 -8 29 11 80
27 75 7 -3 16 -22 20 -42z m508 30 c0 -8 -4 -18 -10 -21 -5 -3 -10 -4 -10 -1
0 2 -3 11 -6 20 -4 11 -1 16 10 16 9 0 16 -6 16 -14z m60 -43 c7 -32 15 -75
20 -95 4 -21 5 -38 1 -38 -12 1 -71 97 -71 118 0 29 17 72 29 72 5 0 15 -26
21 -57z m130 -217 c39 -82 68 -151 66 -153 -2 -2 -17 14 -32 37 -16 22 -48 66
-71 96 -24 32 -45 71 -48 92 -3 20 -10 56 -16 79 -5 23 -9 50 -9 60 0 20 9 4
110 -211z m-551 65 c1 -35 -5 -22 -12 24 -5 28 -4 34 3 20 5 -11 9 -31 9 -44z"/>
<path d="M931 2834 c0 -11 3 -14 6 -6 3 7 2 16 -1 19 -3 4 -6 -2 -5 -13z"/>
<path d="M1482 2768 c-6 -29 -13 -93 -15 -143 -3 -52 -2 -71 2 -45 7 48 7 46
24 -165 2 -24 4 -13 5 26 1 36 -3 103 -9 149 -9 64 -9 100 1 153 14 81 8 101
-8 25z"/>
<path d="M922 2770 c0 -19 2 -27 5 -17 2 9 2 25 0 35 -3 9 -5 1 -5 -18z"/>
<path d="M1053 2665 c0 -22 2 -30 4 -17 2 12 2 30 0 40 -3 9 -5 -1 -4 -23z"/>
<path d="M1063 2570 c0 -25 2 -35 4 -22 2 12 2 32 0 45 -2 12 -4 2 -4 -23z"/>
<path d="M1073 2435 c0 -44 2 -61 4 -37 2 23 2 59 0 80 -2 20 -4 1 -4 -43z"/>
</g>
</svg>
