<?xml version="1.0" standalone="no"?>
<!DOCTYPE svg PUBLIC "-//W3C//DTD SVG 20010904//EN"
 "http://www.w3.org/TR/2001/REC-SVG-20010904/DTD/svg10.dtd">
<svg version="1.0" xmlns="http://www.w3.org/2000/svg"
 width="244.000000pt" height="305.000000pt" viewBox="0 0 244.000000 305.000000"
 preserveAspectRatio="xMidYMid meet">
<metadata>
Created by potrace 1.16, written by Peter Selinger 2001-2019
</metadata>
<g transform="translate(0.000000,305.000000) scale(0.100000,-0.100000)"
fill="#000000" stroke="none">
<path d="M960 2886 c0 -13 -3 -33 -6 -43 -5 -15 -4 -15 5 -3 8 11 11 -118 11
-463 l0 -478 -35 28 -35 28 0 160 c1 151 10 331 26 490 4 39 4 68 1 65 -12
-11 -28 -212 -37 -465 l-9 -270 40 -35 c27 -24 37 -39 31 -48 -7 -10 -15 -9
-40 5 -29 16 -34 17 -59 3 -25 -14 -48 -64 -37 -82 3 -4 20 -8 39 -8 57 0 99
-70 69 -115 -12 -19 -15 -36 -10 -70 7 -45 7 -45 -22 -45 -32 0 -47 -24 -55
-85 -3 -20 -4 -15 -6 17 -1 36 -6 50 -20 58 -27 14 -84 13 -99 -2 -17 -17 -15
-80 4 -145 18 -61 14 -111 -11 -149 -16 -25 -203 -168 -297 -227 -23 -14 -26
-14 -22 -2 4 8 9 15 13 15 3 0 53 56 111 125 l105 125 38 -5 38 -5 -7 102 c-4
57 -8 105 -10 107 -2 2 -4 -36 -4 -86 l0 -91 -28 2 c-24 1 -47 -21 -175 -168
-81 -93 -147 -172 -147 -177 0 -10 5 -9 162 58 69 29 129 53 132 53 12 0 5
-22 -19 -57 -13 -20 -23 -39 -20 -41 2 -2 32 11 67 31 35 19 89 49 121 66 32
18 62 29 67 26 5 -3 15 -24 22 -47 13 -43 12 -43 -37 -73 -18 -11 -48 -123
-144 -530 -5 -22 -8 -41 -7 -43 4 -3 82 100 142 187 48 71 51 68 30 -40 -30
-156 -30 -156 37 -29 89 168 115 216 146 270 28 49 30 61 25 109 l-7 54 42 -6
c42 -5 74 -26 91 -58 6 -11 1 -28 -17 -54 l-25 -38 27 -171 c37 -237 76 -470
80 -474 1 -1 12 59 25 135 34 216 80 507 80 515 0 3 -12 20 -26 37 -20 24 -23
34 -15 50 19 34 62 61 99 61 l35 0 -6 -51 c-6 -51 -4 -56 90 -233 54 -99 108
-203 121 -229 13 -27 25 -47 27 -45 2 1 -6 48 -16 103 -33 179 -34 166 2 115
80 -112 141 -191 144 -188 3 2 -2 26 -11 53 -8 28 -17 66 -20 85 -3 19 -9 46
-14 60 -5 14 -27 103 -51 198 -34 141 -45 172 -59 172 -32 0 -43 24 -29 69 14
46 28 50 74 23 17 -10 61 -35 98 -56 37 -20 83 -45 102 -56 43 -24 44 -16 5
41 -22 33 -26 45 -15 47 8 2 67 -19 131 -47 65 -28 119 -50 120 -48 3 3 -158
199 -238 290 -49 55 -63 65 -74 56 -23 -19 -28 -3 -27 89 2 85 1 85 -8 32 -5
-30 -14 -80 -20 -110 l-11 -55 43 -37 c24 -21 94 -77 156 -125 62 -48 110 -89
108 -91 -2 -2 -51 17 -110 44 -101 45 -155 86 -155 119 0 7 -12 28 -27 45 -34
40 -40 105 -19 186 9 34 16 73 16 86 0 48 -61 74 -112 47 -15 -8 -22 -8 -28 1
-5 9 -20 11 -43 7 l-35 -5 5 52 c4 38 1 60 -10 77 -29 45 30 116 87 105 28 -6
29 -5 23 30 -9 55 -24 67 -74 60 -57 -7 -66 10 -23 45 l33 28 -7 223 c-10 308
-37 584 -73 728 l-6 25 -7 -25 c-5 -14 -8 -34 -8 -45 l-1 -20 9 20 c5 12 8
-138 8 -355 -1 -356 -2 -364 -9 -170 -9 237 -23 412 -42 525 -11 66 -14 75
-20 52 -4 -15 -4 -33 0 -40 15 -24 14 -104 -11 -757 -3 -63 -5 -126 -6 -140
-1 -24 -1 -24 -15 -6 -10 14 -15 48 -16 110 -1 50 -4 82 -6 72 -5 -20 -27 -46
-37 -46 -3 0 -7 8 -7 18 -1 9 -7 -12 -14 -48 l-13 -65 -1 81 c-2 158 -46 513
-66 532 -2 2 -7 -9 -10 -24 -3 -16 -8 -38 -11 -49 -16 -72 -35 -252 -41 -380
-7 -147 -7 -149 -19 -95 -6 30 -12 47 -13 38 -1 -25 -21 -22 -21 3 0 11 -4 17
-10 14 -6 -3 -10 4 -10 17 -1 206 -37 674 -58 751 -4 15 -6 -64 -5 -176 1
-135 -1 -186 -7 -152 -4 28 -9 85 -9 128 -1 43 -5 76 -10 73 -5 -3 -14 30 -21
74 -12 78 -30 117 -30 66z m270 -841 l0 -436 -22 20 c-21 20 -21 23 -15 293 6
247 25 558 34 558 1 0 3 -196 3 -435z m207 -52 c-2 -21 -4 -4 -4 37 0 41 2 58
4 38 2 -21 2 -55 0 -75z m59 -90 c-10 -10 -19 5 -10 18 6 11 8 11 12 0 2 -7 1
-15 -2 -18z m-396 -34 c0 -12 -27 -11 -35 1 -11 17 5 32 21 19 8 -6 14 -15 14
-20z m313 16 c8 -18 -11 -31 -25 -17 -11 11 -3 32 12 32 4 0 10 -7 13 -15z
m-397 -24 c-4 -5 -13 -8 -22 -4 -11 4 -12 8 -3 20 14 16 36 2 25 -16z m459 10
c7 -12 -12 -24 -25 -16 -11 7 -4 25 10 25 5 0 11 -4 15 -9z m-351 -135 c-13
-10 -23 -11 -31 -4 -19 16 -16 26 10 30 32 6 45 -9 21 -26z m266 14 c0 -4 -7
-13 -15 -20 -10 -9 -15 -9 -15 -1 0 6 -7 11 -15 11 -15 0 -20 12 -10 22 8 7
55 -3 55 -12z m-310 -72 c0 -19 4 -20 55 -22 22 -1 29 -6 27 -18 -1 -10 7 -22
19 -28 11 -7 27 -27 35 -46 14 -34 34 -38 34 -8 0 8 11 26 24 39 14 13 26 32
28 42 2 12 13 17 38 17 29 1 37 6 53 36 14 27 17 30 13 10 -5 -25 -13 -66 -22
-108 -3 -17 -10 -22 -24 -18 -11 3 -29 8 -39 12 -27 7 -57 -26 -72 -78 l-11
-43 -20 53 c-23 62 -46 78 -90 63 -17 -6 -32 -11 -34 -11 -2 0 -6 17 -9 38 -3
20 -10 45 -16 54 -5 10 -9 28 -9 40 0 19 2 20 10 8 5 -8 10 -23 10 -32z m-66
17 c3 -8 1 -15 -4 -15 -6 0 -10 7 -10 15 0 8 2 15 4 15 2 0 6 -7 10 -15z m-24
-117 c6 -24 18 -60 27 -81 22 -50 9 -59 -15 -10 -34 65 -47 133 -27 133 2 0 9
-19 15 -42z m62 17 c3 -14 1 -25 -3 -25 -5 0 -9 11 -9 25 0 14 2 25 4 25 2 0
6 -11 8 -25z m439 -52 c-6 -21 -20 -49 -32 -63 -11 -14 -18 -18 -15 -10 3 8
15 47 28 85 23 73 39 63 19 -12z m-69 25 c-6 -6 -7 0 -4 19 5 21 7 23 10 9 2
-10 0 -22 -6 -28z m-275 -46 c12 -8 33 -55 33 -75 0 -7 -14 3 -30 21 -39 42
-41 78 -3 54z m203 -7 c0 -8 -14 -29 -31 -47 l-31 -33 7 30 c10 47 55 88 55
50z m210 -104 c0 -21 -3 -20 -26 14 -23 34 -24 41 -13 68 l13 30 13 -44 c7
-24 13 -55 13 -68z m-607 67 c2 -7 -2 -26 -11 -42 -11 -23 -13 -50 -9 -110 7
-95 -7 -73 -17 26 -5 44 -3 80 4 103 12 36 25 45 33 23z m694 -75 c-2 -16 -4
-5 -4 22 0 28 2 40 4 28 2 -13 2 -35 0 -50z m-828 -28 c0 -71 -9 -95 -23 -59
-8 20 -8 98 0 118 14 35 23 12 23 -59z m854 -19 c-8 -53 -19 -35 -14 26 3 41
5 48 12 31 4 -12 5 -38 2 -57z m-497 28 c9 3 14 -1 14 -14 0 -26 -9 -25 -45 6
-24 20 -25 23 -7 14 13 -6 30 -9 38 -6z m151 -9 c-33 -29 -50 -32 -45 -8 2 9
13 17 25 18 13 1 26 5 30 8 3 4 9 7 12 7 3 0 -7 -12 -22 -25z m-178 -102 c-11
-30 -2 -53 22 -53 10 0 19 -2 19 -4 0 -2 3 -11 6 -19 3 -8 -2 -22 -11 -31 -15
-14 -19 -14 -37 -2 -14 10 -35 13 -69 9 -40 -5 -49 -3 -49 10 0 11 8 15 28 14
26 -2 27 -1 28 53 0 30 1 58 2 61 1 3 17 1 36 -5 30 -9 33 -13 25 -33z m236
-22 c0 -55 0 -56 28 -53 20 2 27 -2 27 -14 0 -14 -7 -16 -48 -10 -34 4 -54 2
-67 -8 -26 -18 -45 -9 -45 21 0 16 7 27 20 30 24 6 35 36 21 60 -8 14 -4 19
22 28 18 6 34 9 37 7 3 -2 5 -29 5 -61z m245 19 l-8 -35 -1 31 c-1 17 2 34 6
37 11 12 12 3 3 -33z m-107 -53 c-30 -60 -41 -57 -13 4 11 24 20 53 20 64 l1
20 8 -20 c6 -14 1 -35 -16 -68z m-677 26 c-10 -10 -19 5 -10 18 6 11 8 11 12
0 2 -7 1 -15 -2 -18z m134 -63 c6 -11 8 -20 6 -20 -3 0 -10 9 -16 20 -6 11 -8
20 -6 20 3 0 10 -9 16 -20z m-230 -39 c0 -9 -77 -91 -113 -120 -15 -12 -15
-11 0 19 8 18 29 40 44 49 18 10 29 24 29 39 0 15 6 22 20 22 11 0 20 -4 20
-9z m980 1 c0 -10 19 -30 89 -96 76 -71 65 -70 -64 7 -99 58 -98 57 -79 78 17
19 54 26 54 11z m-805 -42 c16 -32 21 -120 6 -120 -5 0 -15 -17 -21 -37 -26
-81 -198 -458 -206 -451 -2 3 9 54 25 114 16 60 42 158 57 217 27 108 28 109
65 124 43 17 51 39 50 129 0 30 2 54 4 54 3 0 11 -13 20 -30z m628 -58 c-4
-46 -10 -62 -21 -62 -12 0 -13 9 -8 45 5 43 24 91 31 83 2 -2 1 -31 -2 -66z
m-265 24 c-7 -8 -15 -12 -17 -11 -5 6 10 25 20 25 5 0 4 -6 -3 -14z m-68 -99
c12 -34 26 -28 39 16 8 26 9 28 10 9 1 -24 -27 -82 -40 -82 -3 0 -13 23 -22
51 -28 84 -17 89 13 6z m266 -84 c-4 -29 -1 -46 8 -56 7 -7 21 -28 31 -46 23
-45 106 -283 101 -289 -3 -2 -46 77 -96 177 -65 131 -89 188 -85 206 17 81 15
78 31 64 12 -10 15 -24 10 -56z m-496 43 c0 -8 -4 -18 -10 -21 -5 -3 -10 3
-10 14 0 12 5 21 10 21 6 0 10 -6 10 -14z m622 -101 c15 -33 43 -98 64 -145
20 -47 43 -100 52 -118 30 -65 2 -42 -57 47 -58 89 -66 111 -96 261 -9 46 4
30 37 -45z m-384 -347 l-3 -143 -28 226 -28 226 28 51 28 51 3 -134 c1 -74 1
-198 0 -277z m-71 265 c-3 -10 -5 -2 -5 17 0 19 2 27 5 18 2 -10 2 -26 0 -35z
m-261 -101 c-46 -143 -59 -151 -31 -20 11 56 51 135 61 125 2 -2 -12 -49 -30
-105z"/>
<path d="M936 2749 c-4 -33 -5 -63 -3 -66 3 -2 8 23 12 57 4 34 5 63 2 66 -2
3 -7 -23 -11 -57z"/>
<path d="M1401 2684 c0 -11 3 -14 6 -6 3 7 2 16 -1 19 -3 4 -6 -2 -5 -13z"/>
<path d="M1384 2385 c0 -49 1 -71 3 -48 2 23 2 64 0 90 -2 26 -3 8 -3 -42z"/>
</g>
</svg>
