<?xml version="1.0" standalone="no"?>
<!DOCTYPE svg PUBLIC "-//W3C//DTD SVG 20010904//EN"
 "http://www.w3.org/TR/2001/REC-SVG-20010904/DTD/svg10.dtd">
<svg version="1.0" xmlns="http://www.w3.org/2000/svg"
 width="244.000000pt" height="305.000000pt" viewBox="0 0 244.000000 305.000000"
 preserveAspectRatio="xMidYMid meet">
<metadata>
Created by potrace 1.16, written by Peter Selinger 2001-2019
</metadata>
<g transform="translate(0.000000,305.000000) scale(0.100000,-0.100000)"
fill="#000000" stroke="none">
<path d="M1121 2865 c-1 -27 -2 -237 -3 -465 0 -320 -3 -402 -11 -357 -6 32
-16 57 -22 57 -7 0 -17 -29 -24 -69 -14 -86 -14 -151 -1 -151 6 0 10 -7 10
-15 0 -15 -20 -14 -69 1 -23 7 -59 -23 -72 -61 -7 -19 -16 -35 -21 -35 -4 0
-15 16 -24 36 -41 87 -164 73 -164 -18 0 -27 1 -28 40 -22 36 6 43 3 75 -29
37 -37 45 -71 20 -81 -18 -7 -20 -59 -3 -107 9 -29 57 -108 92 -155 7 -8 -2
-25 -27 -55 -47 -55 -50 -94 -7 -129 20 -16 27 -29 22 -38 -13 -20 -35 -6 -65
40 -20 31 -26 50 -22 73 3 16 -1 59 -8 95 -13 61 -16 65 -43 68 -46 5 -69 -19
-69 -70 0 -46 1 -48 89 -203 51 -89 56 -105 53 -145 -3 -25 -8 -56 -12 -69 -6
-16 -5 -22 2 -18 7 4 16 -13 23 -43 l12 -50 -38 -48 c-103 -126 -247 -292
-251 -288 -5 5 186 362 220 410 45 66 15 204 -67 299 -45 53 -76 119 -76 161
0 11 11 39 25 61 13 22 25 48 25 57 0 23 -30 38 -75 38 -46 0 -90 -40 -81 -73
43 -150 48 -215 17 -246 -10 -10 -25 -21 -32 -23 -11 -4 -12 -11 -2 -37 12
-32 12 -32 -33 -52 -25 -10 -48 -19 -51 -19 -5 0 -159 -56 -238 -86 -17 -7
-18 -5 -8 7 11 14 214 146 296 192 66 38 69 45 52 118 -8 35 -18 87 -22 114
-6 46 -7 48 -13 20 -4 -17 -3 -57 0 -90 4 -33 5 -63 3 -67 -2 -4 -17 -5 -32
-2 -26 6 -46 -10 -215 -167 -102 -95 -184 -175 -181 -177 4 -4 426 133 458
150 9 5 17 18 17 29 0 30 23 33 74 9 58 -28 106 -81 106 -120 0 -23 -6 -30
-33 -39 -26 -9 -36 -20 -46 -49 -77 -245 -161 -526 -157 -529 4 -4 118 122
251 276 160 185 147 163 131 209 -8 22 -12 43 -9 46 4 3 37 6 74 6 l68 0 -4
-72 -4 -73 9 64 c10 70 25 96 40 71 6 -8 8 -19 6 -25 -2 -5 -19 -91 -37 -190
-26 -139 -36 -173 -41 -150 -5 20 -6 11 -3 -23 2 -32 0 -50 -5 -47 -6 4 -10
-14 -9 -42 l0 -48 20 65 c40 129 68 226 75 254 5 20 9 24 14 15 4 -8 34 -146
66 -307 32 -162 60 -290 61 -285 2 4 30 140 63 302 33 162 62 296 63 298 2 1
25 -74 52 -167 27 -93 50 -168 51 -167 2 1 -8 106 -21 232 -14 127 -25 245
-25 263 l0 32 76 0 76 0 -7 -33 c-4 -17 -11 -37 -16 -42 -5 -6 -1 -22 10 -38
26 -40 372 -429 377 -424 6 5 -17 86 -79 287 -87 282 -86 279 -121 288 -69 18
-31 107 66 156 64 31 88 29 88 -8 0 -19 8 -27 33 -35 304 -103 444 -146 440
-137 -3 6 -86 85 -184 176 -166 153 -181 165 -214 163 l-35 -2 7 89 c4 65 3
90 -6 90 -6 0 -11 -16 -11 -37 0 -21 -3 -69 -7 -106 l-6 -69 44 7 44 7 143
-132 c79 -73 141 -134 139 -136 -6 -7 -297 159 -363 206 -26 19 -54 72 -54
102 0 13 9 52 20 86 25 80 25 97 0 122 -27 27 -100 28 -123 2 -22 -24 -22 -26
8 -70 44 -64 30 -131 -45 -227 -65 -83 -73 -102 -73 -165 0 -70 14 -95 60
-110 21 -7 42 -16 46 -20 9 -8 148 -442 143 -447 -2 -2 -68 110 -147 249 -183
321 -181 301 -61 497 54 87 69 133 58 176 -8 31 -45 50 -79 41 -20 -5 -26 -14
-32 -53 -4 -27 -8 -73 -9 -105 -1 -47 -6 -62 -32 -94 -35 -44 -52 -52 -60 -30
-4 10 7 28 31 51 45 42 43 68 -11 127 -37 41 -37 42 8 99 61 80 88 190 53 219
-22 18 -19 35 16 75 26 30 37 35 73 35 24 0 45 3 48 6 12 11 -9 59 -35 78 -26
19 -30 19 -69 6 -33 -12 -46 -24 -64 -59 l-22 -44 -11 35 c-7 20 -19 42 -29
50 -23 21 -71 28 -99 15 -29 -13 -44 0 -19 18 10 8 18 24 18 37 0 48 -23 182
-33 194 -8 10 -26 416 -29 639 0 30 -3 36 -10 25 -6 -9 -8 -152 -4 -383 3
-203 2 -393 -2 -424 -13 -108 -24 -28 -26 197 -1 134 -4 195 -7 150 l-6 -75
-7 66 c-8 79 -46 267 -57 288 -10 17 -49 -142 -66 -274 l-12 -90 -6 95 c-4 52
-9 172 -13 265 -8 209 -20 356 -23 280z m153 -526 c8 -63 16 -159 19 -214 2
-55 2 -82 -1 -60 -4 30 -9 7 -17 -85 l-12 -125 -2 181 c0 99 -4 237 -7 305 -4
68 -4 121 0 118 4 -4 13 -58 20 -120z m-127 -461 c-3 -8 -6 -5 -6 6 -1 11 2
17 5 13 3 -3 4 -12 1 -19z m180 -10 c-3 -8 -6 -5 -6 6 -1 11 2 17 5 13 3 -3 4
-12 1 -19z m-39 -37 c-8 -32 -8 -48 0 -62 7 -10 9 -26 5 -34 -5 -13 -7 -14
-14 -3 -12 19 -11 79 2 117 16 45 20 34 7 -18z m-214 -71 c14 -5 26 -16 26
-25 0 -18 -14 -19 -40 -3 -27 17 -34 5 -21 -35 12 -35 34 -52 52 -41 5 3 9
-11 9 -31 0 -27 -7 -42 -27 -60 -16 -13 -34 -25 -41 -25 -17 0 -52 60 -52 90
0 14 -9 33 -20 43 -19 16 -19 19 -5 47 25 48 64 61 119 40z m430 -21 c31 -37
33 -55 6 -69 -13 -7 -20 -21 -20 -41 0 -38 -29 -89 -50 -89 -31 1 -70 47 -70
84 0 29 3 33 19 29 14 -4 24 3 35 26 9 16 16 37 16 46 0 17 -25 21 -35 5 -11
-17 -35 -11 -35 9 0 20 18 27 77 30 24 1 37 -6 57 -30z m-357 -61 c-3 -8 -6
-5 -6 6 -1 11 2 17 5 13 3 -3 4 -12 1 -19z m180 0 c-3 -8 -6 -5 -6 6 -1 11 2
17 5 13 3 -3 4 -12 1 -19z m-34 -22 c4 4 7 0 7 -8 0 -17 -24 -31 -34 -21 -3 4
-6 20 -6 37 1 30 1 31 13 8 7 -12 16 -19 20 -16z m-358 -79 c9 -24 30 -59 46
-78 29 -34 39 -74 17 -67 -21 7 -89 116 -95 153 -8 49 12 45 32 -8z m192 11
c-3 -7 -5 -2 -5 12 0 14 2 19 5 13 2 -7 2 -19 0 -25z m68 12 c7 -11 -22 -33
-35 -25 -5 3 -10 14 -10 25 0 13 5 17 20 13 11 -3 22 -9 25 -13z m375 -8 c0
-26 -67 -143 -90 -157 -23 -14 -8 49 19 81 16 18 35 49 42 68 16 43 29 47 29
8z m-250 4 c0 -8 -5 -18 -10 -21 -13 -8 -42 14 -34 26 9 15 44 10 44 -5z
m-222 -68 c5 -7 13 -28 17 -47 6 -27 4 -32 -6 -26 -32 19 -49 40 -49 62 0 25
21 31 38 11z m145 -27 c-7 -44 -13 -53 -13 -18 0 14 -2 32 -5 40 -4 8 0 14 9
14 11 0 13 -9 9 -36z m167 20 c0 -19 -40 -71 -54 -71 -4 0 -5 15 -2 32 7 47
56 80 56 39z m-246 -74 c8 -26 11 -47 7 -47 -8 0 -31 68 -31 90 0 22 9 6 24
-43z m156 -2 c-18 -54 -31 -52 -15 2 8 26 15 50 16 53 0 3 3 -1 6 -7 2 -7 -1
-29 -7 -48z m137 -17 c-3 -7 -5 -2 -5 12 0 14 2 19 5 13 2 -7 2 -19 0 -25z
m-400 -35 c-3 -10 -5 -4 -5 12 0 17 2 24 5 18 2 -7 2 -21 0 -30z m359 0 c-10
-10 -19 5 -10 18 6 11 8 11 12 0 2 -7 1 -15 -2 -18z m-276 -24 c0 -18 -35 -5
-38 14 -3 16 -1 17 17 7 12 -6 21 -15 21 -21z m219 -10 c-24 -14 -36 11 -14
27 18 13 20 13 23 -2 2 -9 -2 -20 -9 -25z m131 -55 c0 -23 -1 -24 -16 -9 -9 8
-13 22 -10 31 8 22 26 7 26 -22z m-490 4 c0 -16 -3 -19 -11 -11 -6 6 -8 16 -5
22 11 17 16 13 16 -11z m11 -75 c-9 -17 -10 -17 -17 1 -5 12 -3 21 4 24 7 2
13 20 14 40 1 36 2 36 5 -5 2 -24 0 -51 -6 -60z m463 -34 c19 -28 23 -60 4
-41 -20 20 -38 85 -37 132 2 45 2 45 9 -11 4 -31 14 -67 24 -80z m-396 46 c12
-70 8 -84 -7 -28 -19 71 -24 109 -13 98 5 -5 14 -37 20 -70z m93 52 c-13 -13
-26 -3 -16 12 3 6 11 8 17 5 6 -4 6 -10 -1 -17z m140 10 c-1 -12 -15 -9 -19 4
-3 6 1 10 8 8 6 -3 11 -8 11 -12z m89 -66 c-7 -31 -15 -50 -17 -44 -3 7 1 39
8 70 6 32 14 52 17 44 2 -7 -1 -39 -8 -70z m-279 -18 c11 -34 29 -45 29 -18 0
23 27 18 33 -6 4 -13 0 -22 -11 -26 -9 -4 -20 -11 -24 -17 -18 -27 -49 54 -46
119 1 27 1 27 5 5 2 -14 9 -40 14 -57z m229 -35 c-6 -21 -14 -38 -18 -38 -18
1 -54 41 -48 55 7 20 22 19 31 -2 6 -17 7 -17 21 1 8 11 15 38 16 60 l1 41 4
-40 c3 -22 0 -57 -7 -77z m-376 -29 c-22 -25 -34 -24 -34 1 0 12 9 24 23 29
28 11 34 -4 11 -30z m393 -71 c-3 -8 -6 -5 -6 6 -1 11 2 17 5 13 3 -3 4 -12 1
-19z m-117 -147 c0 -9 -20 -37 -20 -29 0 3 -2 13 -5 21 -4 8 0 14 10 14 8 0
15 -3 15 -6z m159 -210 c33 -177 36 -227 8 -124 -8 32 -25 92 -36 133 -27 94
-35 144 -27 166 13 33 24 -2 55 -175z m-249 118 c-17 -32 -30 -22 -30 24 l1
42 19 -23 c15 -18 17 -28 10 -43z m178 -7 c-3 -18 -4 -18 -20 -2 -17 15 -17
18 0 41 l17 24 3 -22 c2 -13 2 -31 0 -41z m-1 -82 c-9 -72 -70 -365 -78 -375
-5 -5 -7 17 -4 50 18 198 24 366 15 390 -18 47 -11 50 31 10 35 -35 40 -45 36
-75z"/>
<path d="M1552 2869 c-20 -64 -59 -309 -71 -439 -6 -63 -13 -203 -17 -311 l-7
-195 31 -13 c17 -7 38 -21 48 -32 22 -24 36 -24 58 0 10 11 31 25 48 32 l30
12 -7 206 c-6 217 -24 414 -52 569 -27 152 -26 97 2 -92 18 -128 28 -243 33
-413 l7 -236 -42 -28 c-23 -16 -44 -29 -47 -29 -9 0 -7 948 2 952 4 2 5 16 2
31 -5 27 -5 27 -18 -14z"/>
<path d="M886 2832 c-45 -198 -67 -400 -81 -744 l-7 -156 28 -18 c16 -10 41
-28 55 -41 l25 -23 25 21 c13 11 36 28 52 37 l27 16 0 126 c-1 175 -25 474
-51 624 -12 69 -24 124 -26 122 -2 -2 5 -64 16 -137 29 -191 41 -350 41 -540
l0 -167 -36 -27 c-19 -15 -37 -25 -39 -23 -7 6 -5 928 2 966 11 62 -15 32 -31
-36z"/>
<path d="M1343 2850 c0 -30 2 -43 4 -27 2 15 2 39 0 55 -2 15 -4 2 -4 -28z"/>
<path d="M1103 2625 c0 -22 2 -30 4 -17 2 12 2 30 0 40 -3 9 -5 -1 -4 -23z"/>
<path d="M1323 2590 c0 -30 2 -43 4 -27 2 15 2 39 0 55 -2 15 -4 2 -4 -28z"/>
<path d="M1094 2340 c0 -69 1 -97 3 -62 2 34 2 90 0 125 -2 34 -3 6 -3 -63z"/>
<path d="M1030 743 c-3 -29 -1 -48 3 -44 5 5 7 28 5 52 l-3 44 -5 -52z"/>
<path d="M1022 650 c0 -19 2 -27 5 -17 2 9 2 25 0 35 -3 9 -5 1 -5 -18z"/>
</g>
</svg>
