<?xml version="1.0" standalone="no"?>
<!DOCTYPE svg PUBLIC "-//W3C//DTD SVG 20010904//EN"
 "http://www.w3.org/TR/2001/REC-SVG-20010904/DTD/svg10.dtd">
<svg version="1.0" xmlns="http://www.w3.org/2000/svg"
 width="244.000000pt" height="305.000000pt" viewBox="0 0 244.000000 305.000000"
 preserveAspectRatio="xMidYMid meet">
<metadata>
Created by potrace 1.16, written by Peter Selinger 2001-2019
</metadata>
<g transform="translate(0.000000,305.000000) scale(0.100000,-0.100000)"
fill="#000000" stroke="none">
<path d="M872 2813 c-49 -212 -72 -429 -75 -707 -2 -169 -1 -179 18 -190 11
-6 35 -24 53 -39 l34 -28 32 28 c18 15 41 33 52 39 17 10 19 23 17 150 -4 216
-21 435 -49 593 -13 80 -27 147 -31 150 -3 3 -3 -10 1 -29 37 -209 65 -516 66
-722 l0 -106 -37 -23 c-21 -13 -42 -25 -46 -27 -4 -2 -7 221 -5 497 2 276 0
501 -4 501 -3 0 -15 -39 -26 -87z"/>
<path d="M1202 2880 c0 -14 2 -19 5 -12 2 6 2 18 0 25 -3 6 -5 1 -5 -13z"/>
<path d="M1261 2720 c-2 -148 -5 -178 -13 -150 l-11 35 -9 -30 c-47 -159 -65
-289 -74 -536 -7 -178 -17 -222 -29 -131 -12 84 -34 185 -43 194 -9 9 -26 -62
-37 -158 -6 -51 -5 -52 29 -73 38 -24 52 -61 41 -112 -8 -33 -30 -48 -48 -30
-33 33 -51 -14 -21 -57 20 -29 40 -28 68 3 30 32 40 32 32 -1 -9 -35 2 -64 24
-64 20 0 30 -19 30 -55 l0 -24 -25 23 c-34 31 -56 36 -94 20 -40 -17 -39 -32
3 -40 48 -9 71 -39 85 -112 15 -79 7 -120 -25 -132 -31 -12 -34 -59 -4 -67 11
-3 20 -11 20 -18 0 -8 3 -22 6 -32 5 -15 4 -15 -5 -3 -9 13 -11 13 -11 -1 0
-9 -9 -19 -20 -22 -32 -8 -37 -37 -9 -58 18 -14 20 -19 8 -19 -25 0 -42 27
-41 65 l1 35 -47 0 c-26 0 -56 -7 -66 -15 -28 -21 -41 -19 -81 16 -46 41 -66
80 -60 116 3 15 -1 57 -8 93 -13 63 -15 65 -46 68 -53 5 -74 -22 -68 -83 4
-39 19 -73 64 -145 79 -128 85 -143 88 -230 2 -42 6 -92 10 -111 6 -35 2 -41
-141 -207 -82 -94 -150 -169 -152 -167 -3 2 45 93 106 202 163 295 153 271
141 340 -13 71 -29 104 -82 167 -22 27 -49 65 -59 85 -19 38 -25 126 -8 136 6
3 17 20 26 38 16 30 16 32 -6 49 -42 34 -133 17 -144 -27 -3 -13 1 -42 10 -66
39 -104 34 -200 -12 -221 -26 -12 -30 -28 -13 -59 9 -17 5 -22 -27 -35 -61
-25 -338 -124 -349 -124 -8 0 90 62 313 199 24 14 55 35 68 46 25 20 25 20 10
80 -8 33 -18 84 -21 114 -11 83 -26 40 -20 -56 l5 -82 -32 5 c-30 4 -42 -4
-133 -86 -55 -50 -144 -130 -198 -178 -54 -48 -95 -88 -90 -89 16 -6 488 156
495 169 4 7 9 21 12 32 5 14 12 17 34 11 46 -11 112 -55 133 -88 30 -49 25
-72 -19 -89 -36 -14 -38 -18 -71 -124 -19 -60 -55 -176 -82 -257 -26 -81 -51
-162 -54 -180 -7 -32 -7 -32 12 -12 119 122 388 432 386 444 -1 9 -4 33 -8 53
l-8 38 87 0 c93 0 124 -10 164 -53 l23 -25 -36 -34 -37 -35 32 -159 c17 -87
40 -195 50 -239 10 -44 26 -119 35 -168 10 -48 20 -86 22 -84 1 2 17 71 34
153 16 82 32 156 34 164 1 8 17 87 34 174 l32 159 -33 34 c-37 38 -34 53 22
91 28 19 46 22 121 22 98 0 102 -4 79 -65 -8 -22 -6 -32 12 -55 48 -61 373
-418 382 -419 4 -1 5 7 1 17 -7 16 -84 262 -143 457 -27 85 -30 91 -63 101
-69 23 -37 107 62 158 62 33 89 30 89 -8 0 -17 7 -27 23 -31 12 -4 117 -38
234 -76 116 -38 214 -69 218 -69 16 0 -9 25 -184 184 -173 157 -186 167 -215
162 l-32 -6 3 97 c4 121 -11 97 -21 -34 l-7 -93 45 6 c44 6 48 5 93 -37 165
-149 243 -223 239 -226 -3 -4 -236 123 -286 156 -14 9 -38 23 -53 31 -77 39
-100 107 -68 202 27 80 27 113 -1 132 -29 20 -87 20 -116 0 -28 -19 -28 -27 3
-72 42 -61 30 -133 -35 -212 -78 -97 -85 -111 -84 -175 1 -76 11 -94 65 -114
l44 -16 72 -219 c40 -121 71 -221 69 -224 -2 -2 -31 42 -63 98 -32 56 -96 165
-142 243 -104 176 -111 209 -60 302 17 33 45 79 61 103 60 88 74 156 38 192
-11 11 -33 20 -50 20 -39 0 -50 -27 -55 -139 -3 -83 -3 -84 -46 -127 -45 -46
-71 -53 -103 -29 -11 8 -39 15 -63 15 l-43 0 0 -38 c0 -40 -14 -62 -39 -62
-11 0 -11 4 3 19 22 24 17 55 -9 60 -11 2 -23 8 -27 15 -10 15 -10 58 0 52 4
-2 16 2 26 9 26 20 14 61 -20 69 l-26 7 7 76 c10 107 28 141 82 155 42 10 43
11 27 29 -23 25 -75 24 -107 -1 -14 -11 -28 -17 -30 -13 -9 16 13 54 39 65 22
10 25 17 21 44 -7 43 -1 47 28 18 13 -13 31 -24 39 -24 20 0 46 39 46 67 0 26
-3 27 -29 11 -28 -17 -49 -3 -57 37 -8 46 9 86 47 108 30 17 31 19 24 70 -12
101 -28 168 -36 160 -5 -5 -18 -61 -30 -124 -11 -62 -24 -118 -28 -122 -4 -4
-11 79 -14 185 -4 106 -14 238 -23 293 -9 56 -19 203 -23 335 l-7 235 -3 -185z
m-3 -555 c0 -180 -3 -286 -8 -265 -7 30 -16 587 -10 615 1 6 6 -3 10 -20 4
-16 8 -165 8 -330z m40 -55 c13 -196 7 -471 -10 -481 -11 -6 -14 56 -14 354
-1 361 7 399 24 127z m-31 -312 c-2 -13 -4 -3 -4 22 0 25 2 35 4 23 2 -13 2
-33 0 -45z m-18 -192 c-9 -8 -10 4 -5 53 3 35 7 76 8 90 1 14 4 -10 5 -53 3
-52 0 -83 -8 -90z m1 -112 c0 -15 -6 -24 -15 -24 -15 0 -21 40 -9 53 12 11 24
-3 24 -29z m-79 -424 c1 34 18 -27 18 -70 1 -33 -2 -41 -9 -30 -5 8 -10 29
-10 47 0 17 -4 35 -10 38 -5 3 -10 12 -10 18 0 7 4 6 10 -3 9 -13 10 -13 11 0z
m129 -45 c0 -30 -4 -55 -10 -55 -11 0 -14 93 -3 103 12 12 13 8 13 -48z m-31
-93 c-9 -15 -8 -60 5 -217 17 -197 17 -198 -5 -308 -13 -61 -25 -103 -28 -94
-8 22 -6 167 4 356 6 114 5 152 -4 147 -13 -9 -13 -12 0 58 6 32 16 64 22 71
17 18 21 11 6 -13z m-32 -14 c-3 -8 -6 -5 -6 6 -1 11 2 17 5 13 3 -3 4 -12 1
-19z m95 -112 c15 -21 15 -29 2 -92 -8 -38 -17 -80 -20 -94 -11 -48 -24 5 -31
121 -6 108 -6 111 13 99 10 -6 27 -22 36 -34z"/>
<path d="M1547 2823 c-53 -246 -76 -465 -78 -737 l-1 -160 39 -28 c54 -39 64
-43 82 -29 29 21 76 51 84 54 12 4 -10 486 -28 614 -21 149 -47 290 -52 277
-2 -7 6 -67 17 -135 29 -169 49 -405 50 -580 l0 -146 -38 -27 c-21 -14 -41
-26 -45 -26 -4 0 -7 215 -7 478 0 342 3 473 11 462 8 -12 9 -10 5 10 -3 14 -6
31 -6 38 0 6 -4 12 -8 12 -5 0 -16 -35 -25 -77z"/>
<path d="M763 1863 c-29 -6 -65 -51 -61 -77 3 -18 9 -21 46 -18 37 3 46 0 77
-31 38 -38 43 -58 20 -77 -37 -30 -5 -142 65 -230 17 -21 30 -41 30 -45 0 -4
-16 -25 -35 -48 -59 -69 -42 -131 39 -144 45 -7 53 10 36 72 -19 69 -6 78 76
52 49 -16 69 -19 82 -11 29 19 19 37 -28 54 -94 34 -167 103 -205 194 -31 73
-11 91 23 21 37 -77 138 -172 200 -187 17 -5 22 -2 22 12 0 22 -17 40 -63 69
-55 34 -117 124 -117 170 0 10 -7 24 -15 31 -22 19 -18 46 11 75 22 22 34 26
73 23 46 -3 46 -3 43 27 -11 90 -132 97 -163 10 -7 -19 -16 -35 -19 -35 -3 0
-14 16 -25 37 -12 21 -33 42 -52 50 -18 7 -34 12 -35 12 -2 -1 -13 -4 -25 -6z"/>
<path d="M1443 1862 c-29 -4 -53 -38 -53 -74 0 -27 1 -27 43 -22 36 5 46 2 70
-20 29 -27 35 -57 13 -75 -7 -6 -16 -29 -20 -50 -7 -46 -60 -113 -119 -154
-46 -31 -57 -44 -57 -69 0 -14 5 -15 37 -5 52 16 154 114 183 176 25 54 40 65
40 29 0 -31 -56 -125 -98 -166 -32 -30 -96 -66 -154 -85 -22 -8 -23 -21 -2
-38 13 -10 27 -9 85 8 l70 21 10 -25 c6 -17 5 -38 -3 -65 -10 -33 -9 -41 3
-49 22 -13 41 -11 77 11 45 28 44 72 -3 127 -19 23 -35 44 -35 48 0 3 18 30
40 59 63 84 90 187 55 216 -23 19 -18 39 19 76 29 29 41 34 80 34 25 0 46 4
46 9 0 28 -23 62 -50 76 -45 24 -93 6 -123 -46 -25 -45 -33 -48 -40 -16 -13
49 -60 78 -114 69z"/>
</g>
</svg>
