<?xml version="1.0" standalone="no"?>
<!DOCTYPE svg PUBLIC "-//W3C//DTD SVG 20010904//EN"
 "http://www.w3.org/TR/2001/REC-SVG-20010904/DTD/svg10.dtd">
<svg version="1.0" xmlns="http://www.w3.org/2000/svg"
 width="244.000000pt" height="305.000000pt" viewBox="0 0 244.000000 305.000000"
 preserveAspectRatio="xMidYMid meet">
<metadata>
Created by potrace 1.16, written by Peter Selinger 2001-2019
</metadata>
<g transform="translate(0.000000,305.000000) scale(0.100000,-0.100000)"
fill="#000000" stroke="none">
<path d="M1060 2890 c-2 -26 0 -237 6 -625 3 -239 -3 -368 -16 -344 -5 8 -11
152 -15 322 -4 169 -12 307 -16 307 -5 0 -9 10 -9 23 0 31 -49 319 -55 326 -6
6 -6 54 -5 -506 0 -271 -3 -493 -7 -493 -4 0 -21 12 -38 27 -24 21 -31 37 -36
82 l-6 56 -2 -72 c-1 -70 0 -73 27 -87 15 -8 35 -24 46 -37 l18 -22 22 25 c27
32 51 41 66 23 16 -20 5 -33 -23 -28 -29 6 -44 -12 -55 -63 l-9 -39 -17 37
c-9 21 -25 42 -35 48 -52 27 -111 -5 -111 -61 0 -29 2 -30 30 -24 26 6 36 1
65 -28 38 -38 44 -67 19 -88 -12 -10 -15 -24 -10 -57 7 -49 -3 -159 -13 -144
-3 6 -19 8 -35 5 -20 -4 -32 -15 -43 -40 -12 -31 -12 -41 2 -90 19 -66 6 -94
-20 -44 -28 55 -30 121 -6 169 11 23 21 48 21 56 0 34 -85 49 -114 20 -20 -20
-20 -79 -1 -134 32 -90 12 -149 -66 -203 -30 -20 -97 -66 -149 -102 -52 -36
-104 -71 -114 -77 -18 -10 -18 -9 1 16 11 14 67 76 124 137 l104 111 39 -7 39
-6 -7 77 c-3 42 -6 90 -6 106 0 15 -5 28 -11 28 -8 0 -10 -26 -5 -90 l7 -90
-28 6 c-23 4 -34 -1 -63 -33 -20 -21 -91 -98 -159 -171 -68 -73 -122 -135
-119 -137 2 -2 87 27 188 66 102 38 191 72 198 74 7 3 15 18 18 35 7 33 20 37
48 17 17 -12 15 -19 -34 -106 -28 -51 -49 -95 -47 -97 2 -2 25 10 51 26 25 17
51 30 56 30 6 0 10 4 10 9 0 5 14 17 32 25 25 13 33 14 40 4 17 -27 -1 -58
-34 -58 -13 0 -22 -17 -37 -68 -33 -114 -132 -504 -128 -508 2 -2 21 21 43 50
93 129 238 315 242 311 2 -2 -8 -83 -23 -180 -15 -97 -25 -178 -23 -180 2 -3
26 44 53 103 26 59 63 139 80 177 61 131 66 149 63 200 l-3 50 30 -3 c33 -4
75 -37 75 -60 0 -8 -11 -30 -24 -47 l-25 -32 19 -114 c28 -176 91 -534 94
-536 2 -3 31 159 86 477 11 63 22 127 24 142 4 21 -2 36 -25 62 -27 31 -28 37
-17 56 16 26 74 63 90 58 8 -3 11 -23 9 -56 -2 -43 4 -66 38 -138 23 -47 41
-88 41 -90 0 -3 69 -154 105 -229 l14 -30 -5 30 c-2 17 -16 101 -30 189 -13
87 -23 160 -21 162 1 2 69 -85 151 -192 82 -107 150 -193 152 -192 2 3 -67
273 -135 525 -8 31 -20 46 -47 62 -29 17 -34 25 -28 44 3 12 8 24 10 25 3 4
65 -29 74 -39 8 -8 77 -49 83 -49 3 0 -14 36 -39 80 -24 44 -44 84 -44 88 0
11 67 32 74 24 3 -3 6 -15 6 -28 0 -19 16 -29 123 -70 67 -26 160 -62 206 -81
46 -18 86 -33 88 -33 13 0 -15 32 -166 189 -137 144 -168 171 -189 169 l-26
-3 1 90 1 90 -13 -75 c-8 -41 -17 -94 -21 -116 l-6 -42 58 -41 c214 -149 296
-211 279 -211 -5 0 -77 29 -160 65 l-150 64 0 35 c0 23 -7 42 -22 56 -15 13
-24 34 -25 58 -2 56 0 71 18 149 17 67 17 73 1 97 -14 21 -26 26 -57 26 -36 0
-70 -19 -70 -40 0 -5 9 -24 20 -42 26 -43 26 -119 0 -175 -32 -72 -55 -49 -25
24 18 43 19 93 2 117 -7 9 -29 21 -49 25 l-36 8 -7 -66 c-3 -36 -7 -88 -7
-116 0 -46 0 -48 -9 -20 -6 19 -6 63 1 125 6 52 10 111 9 130 -1 19 2 58 6 85
6 41 4 53 -9 64 -24 20 -19 49 13 82 22 21 39 29 65 29 33 0 36 3 36 28 -1 88
-110 94 -141 7 -13 -36 -29 -47 -29 -20 0 34 -31 76 -60 82 -33 6 -36 13 -18
31 17 17 22 15 57 -14 l31 -25 46 38 46 38 -7 210 c-3 116 -11 260 -16 320
-13 149 -57 427 -69 439 -7 7 -10 3 -10 -9 0 -11 -3 -31 -5 -45 -5 -22 -4 -22
4 -5 6 13 10 -150 10 -462 1 -266 -3 -483 -7 -483 -5 0 -19 11 -32 25 -23 25
-23 26 -24 292 0 200 5 297 17 381 9 62 17 120 16 130 -1 22 -24 -96 -34 -171
-3 -32 -8 -57 -10 -55 -2 2 -9 66 -15 143 -21 272 -25 233 -24 -248 1 -279 -2
-484 -7 -481 -5 3 -9 29 -9 57 0 29 -5 70 -12 92 -6 22 -14 74 -18 115 l-7 75
-1 -90 c-1 -49 -5 -115 -9 -145 -6 -49 -8 -52 -14 -25 -4 17 -7 47 -8 68 0 21
-5 36 -9 33 -4 -2 -13 64 -20 147 -7 84 -22 195 -32 247 -11 52 -20 100 -21
105 0 6 -5 -1 -10 -15 -18 -44 -49 -249 -56 -366 -3 -62 -10 -111 -14 -108 -4
2 -11 -28 -15 -68 -7 -67 -8 -70 -16 -38 -4 19 -10 127 -13 240 -8 272 -47
741 -55 650z m170 -846 c0 -387 -2 -434 -15 -420 -12 12 -15 58 -17 268 -2
227 -3 238 -8 108 l-6 -145 -1 155 c0 85 3 187 7 225 l7 70 3 -70 c3 -66 4
-63 10 40 4 61 8 131 9 158 0 26 3 47 6 47 3 0 5 -196 5 -436z m-136 -185 c-3
-5 -10 -7 -15 -3 -5 3 -7 10 -3 15 3 5 10 7 15 3 5 -3 7 -10 3 -15z m292 -6
c-10 -10 -19 5 -10 18 6 11 8 11 12 0 2 -7 1 -15 -2 -18z m-252 -92 c3 -4 -1
-17 -9 -27 -11 -15 -16 -16 -26 -7 -10 10 -9 15 1 28 14 17 26 19 34 6z m237
-34 c-13 -13 -31 1 -31 25 0 21 1 21 20 3 13 -12 17 -22 11 -28z m-337 -3 c8
-32 -3 -114 -15 -114 -5 0 -9 11 -9 24 0 13 -7 29 -15 36 -19 16 -19 30 1 58
20 29 30 28 38 -4z m446 -6 c12 -23 12 -28 0 -43 -8 -10 -20 -34 -26 -54 -10
-30 -12 -32 -13 -12 -1 14 -6 38 -12 55 -8 22 -8 39 0 59 13 33 30 31 51 -5z
m-293 -65 c-3 -10 -5 -2 -5 17 0 19 2 27 5 18 2 -10 2 -26 0 -35z m-27 -19 c0
-7 9 -18 21 -24 11 -7 27 -27 35 -46 8 -19 16 -34 19 -34 3 0 11 16 19 35 8
19 22 38 31 42 9 3 21 16 26 29 10 27 44 32 53 8 3 -8 3 -27 0 -40 -5 -21 -11
-24 -34 -20 -40 6 -65 -16 -80 -70 l-14 -48 -15 46 c-23 65 -38 80 -74 72 -32
-7 -47 6 -47 40 0 25 31 48 47 34 7 -6 13 -16 13 -24z m-185 -52 c3 -16 28
-61 55 -102 28 -40 50 -77 50 -81 0 -15 -38 14 -51 38 -7 13 -16 23 -21 23
-12 0 -58 108 -58 137 0 31 17 21 25 -15z m124 -70 c7 -13 10 -28 8 -35 -8
-20 -47 76 -46 113 l1 35 12 -45 c7 -25 18 -55 25 -68z m297 24 c-9 -30 -21
-58 -26 -61 -14 -9 -12 11 4 43 7 15 17 45 21 67 5 23 10 33 12 23 3 -10 -3
-42 -11 -72z m124 46 c-18 -60 -50 -119 -85 -157 -22 -23 -40 -35 -42 -28 -6
16 8 41 51 91 19 23 42 62 51 87 19 47 39 54 25 7z m-350 -104 c0 -27 -16 -14
-29 24 -11 31 -11 31 9 13 11 -10 20 -27 20 -37z m149 0 c-7 -13 -14 -18 -16
-11 -3 7 1 22 8 35 7 13 14 18 16 11 3 -7 -1 -22 -8 -35z m-349 -80 c0 -45
-15 -68 -23 -36 -7 27 1 68 14 68 5 0 9 -15 9 -32z m550 -13 c0 -19 -4 -37
-10 -40 -6 -4 -10 12 -10 40 0 28 4 44 10 40 6 -3 10 -21 10 -40z m-623 -32
c-3 -10 -5 -4 -5 12 0 17 2 24 5 18 2 -7 2 -21 0 -30z m291 19 c2 -7 -3 -12
-12 -12 -9 0 -16 7 -16 16 0 17 22 14 28 -4z m125 3 c0 -6 -7 -11 -16 -13 -12
-3 -15 1 -11 13 7 17 25 17 27 0z m-259 -105 c1 -42 6 -64 16 -70 26 -17 35
-5 35 46 0 53 1 54 43 54 23 -1 24 -2 10 -11 -27 -15 -23 -58 7 -69 17 -7 25
-17 25 -34 0 -23 -2 -24 -62 -19 -39 3 -68 11 -75 20 -16 21 -27 96 -19 129
11 41 19 20 20 -46z m380 -25 c-18 -69 -25 -76 -70 -74 -24 2 -46 0 -50 -4
-18 -17 -35 -6 -32 21 2 19 9 28 26 30 18 3 22 10 22 42 0 23 5 40 14 43 22 9
27 -3 20 -53 -8 -58 9 -75 39 -39 15 19 18 34 14 70 -3 26 -3 50 1 54 9 9 22
-65 16 -90z m-577 -58 c-2 -6 -11 0 -21 15 -10 15 -14 32 -10 39 8 14 37 -36
31 -54z m163 -18 c0 -5 -4 -9 -10 -9 -5 0 -10 7 -10 16 0 8 5 12 10 9 6 -3 10
-10 10 -16z m600 14 c-1 -13 -29 -59 -30 -48 0 21 13 55 21 55 5 0 9 -3 9 -7z
m-871 -124 c-61 -74 -75 -78 -37 -12 46 83 48 85 64 72 12 -9 7 -19 -27 -60z
m165 35 c20 -51 5 -103 -70 -256 -42 -84 -96 -195 -120 -247 -25 -51 -47 -92
-49 -89 -2 2 15 76 39 163 24 88 50 184 57 213 12 48 17 55 55 72 46 22 54 34
54 90 0 42 8 70 20 70 4 0 11 -7 14 -16z m670 -2 c3 -5 0 -27 -6 -50 -13 -52
-8 -68 116 -331 53 -112 95 -206 92 -208 -2 -2 -37 41 -78 97 -40 56 -94 131
-120 167 l-47 65 0 81 c1 127 22 213 43 179z m141 -38 c20 -25 35 -47 33 -50
-6 -6 -98 64 -98 75 0 10 11 21 20 21 4 0 24 -20 45 -46z m-479 -99 c20 27 17
0 -3 -31 l-17 -26 -13 43 c-17 58 -15 73 4 29 14 -33 16 -34 29 -15z m-224
-20 c3 -3 -16 -76 -42 -163 -26 -86 -55 -185 -65 -220 -10 -34 -20 -61 -21
-59 -8 8 49 305 62 325 10 15 13 34 8 57 -3 19 -4 42 0 50 5 14 47 21 58 10z
m438 -42 c7 -27 16 -61 21 -78 31 -105 79 -288 76 -291 -2 -2 -23 42 -47 99
-23 56 -55 131 -70 167 -20 48 -26 76 -23 108 7 56 27 54 43 -5z m-232 -415
l-3 -143 -23 225 -24 225 24 52 23 53 3 -134 c1 -74 1 -199 0 -278z m-52 234
l2 -117 -20 98 c-18 94 -19 100 -2 118 9 10 18 19 18 19 1 0 2 -53 2 -118z"/>
<path d="M1042 2765 c0 -16 2 -22 5 -12 2 9 2 23 0 30 -3 6 -5 -1 -5 -18z"/>
<path d="M1491 2774 c0 -11 3 -14 6 -6 3 7 2 16 -1 19 -3 4 -6 -2 -5 -13z"/>
<path d="M907 2665 c-26 -169 -37 -318 -35 -455 1 -85 3 -99 5 -45 5 148 24
379 39 483 8 57 13 109 11 115 -2 7 -11 -37 -20 -98z"/>
<path d="M1033 2640 c0 -36 2 -50 4 -32 2 17 2 47 0 65 -2 17 -4 3 -4 -33z"/>
<path d="M1372 2605 c0 -16 2 -22 5 -12 2 9 2 23 0 30 -3 6 -5 -1 -5 -18z"/>
<path d="M1363 2445 c0 -27 2 -38 4 -22 2 15 2 37 0 50 -2 12 -4 0 -4 -28z"/>
</g>
</svg>
