<?xml version="1.0" standalone="no"?>
<!DOCTYPE svg PUBLIC "-//W3C//DTD SVG 20010904//EN"
 "http://www.w3.org/TR/2001/REC-SVG-20010904/DTD/svg10.dtd">
<svg version="1.0" xmlns="http://www.w3.org/2000/svg"
 width="244.000000pt" height="305.000000pt" viewBox="0 0 244.000000 305.000000"
 preserveAspectRatio="xMidYMid meet">
<metadata>
Created by potrace 1.16, written by Peter Selinger 2001-2019
</metadata>
<g transform="translate(0.000000,305.000000) scale(0.100000,-0.100000)"
fill="#000000" stroke="none">
<path d="M1058 2405 c2 -357 0 -505 -7 -500 -7 4 -11 75 -11 203 -1 251 -33
609 -66 732 -4 14 -8 30 -9 35 -5 27 -8 28 -15 5 -4 -14 -8 -34 -8 -45 l-1
-20 9 20 c5 12 9 -182 9 -457 1 -263 -2 -478 -5 -478 -3 0 -21 12 -41 27 l-35
27 7 195 c6 175 22 381 41 541 4 30 4 53 1 50 -14 -13 -46 -360 -53 -572 l-6
-238 47 -43 c39 -35 46 -47 39 -60 -9 -16 -12 -15 -34 8 -47 50 -120 23 -120
-44 0 -31 1 -32 34 -26 28 6 38 2 60 -22 35 -38 41 -61 21 -83 -11 -13 -16
-32 -14 -64 2 -31 -2 -51 -14 -64 -9 -10 -17 -31 -17 -46 0 -15 -4 -25 -9 -22
-4 3 -19 -6 -32 -20 -23 -25 -28 -61 -17 -138 6 -36 -21 -27 -31 11 -16 56
-13 94 9 136 24 45 19 74 -15 83 -39 10 -69 0 -84 -28 -13 -23 -14 -35 -2 -85
40 -174 39 -176 -218 -350 -58 -39 -108 -69 -111 -67 -2 3 0 8 6 12 6 4 57 59
113 122 128 142 127 141 158 129 13 -5 26 -9 29 -9 7 0 3 122 -5 170 -7 39 -9
32 -10 -48 l-1 -92 -27 6 c-19 5 -30 2 -39 -11 -7 -10 -37 -43 -66 -74 -29
-31 -87 -94 -128 -141 -41 -47 -81 -91 -88 -99 -7 -7 -11 -15 -9 -17 1 -2 92
31 200 74 189 74 197 78 197 105 0 17 5 27 15 27 24 0 18 -15 -41 -116 -31
-53 -54 -98 -51 -100 5 -5 21 4 144 83 63 40 79 41 86 6 6 -32 -7 -53 -34 -53
-20 0 -33 -37 -84 -240 -14 -58 -40 -156 -56 -219 -16 -62 -28 -115 -26 -117
2 -3 36 40 76 93 40 54 81 109 91 123 11 14 35 47 55 75 19 27 35 44 35 38 0
-7 -12 -83 -26 -169 -14 -86 -23 -158 -21 -160 4 -4 127 240 127 251 0 2 18
42 41 87 35 72 40 90 37 138 l-3 55 35 -3 c67 -5 102 -69 60 -107 -12 -11 -20
-31 -20 -49 0 -36 98 -628 105 -635 3 -2 5 1 5 8 0 6 22 144 50 306 28 162 50
307 50 323 0 17 -10 38 -25 52 -14 13 -25 28 -25 33 0 20 72 77 97 77 25 0 25
-1 19 -51 -4 -28 -3 -56 2 -62 5 -7 51 -101 102 -211 52 -109 95 -195 97 -190
1 5 -8 77 -21 159 -13 83 -21 152 -18 155 2 3 7 0 9 -6 9 -27 247 -338 250
-328 3 10 -42 193 -114 466 -24 89 -28 98 -54 103 -34 8 -39 21 -25 62 l11 31
89 -54 c49 -30 91 -53 93 -50 3 2 -16 39 -41 82 -50 86 -54 99 -30 108 23 9
23 9 32 -26 7 -30 16 -34 197 -106 105 -40 199 -77 210 -80 22 -6 -1 21 -195
232 -105 114 -118 125 -145 122 l-30 -4 2 97 2 96 -17 -100 c-10 -55 -21 -105
-25 -112 -4 -7 2 -21 15 -33 22 -20 49 -41 241 -184 43 -32 76 -60 74 -62 -5
-5 -287 114 -303 127 -9 7 -9 17 -1 39 10 26 9 32 -10 45 -42 30 -48 78 -23
186 22 92 22 99 6 123 -12 20 -25 26 -52 26 -42 0 -74 -15 -74 -35 0 -8 9 -29
20 -47 25 -41 27 -126 4 -170 -21 -41 -41 -23 -25 23 24 69 5 139 -37 139 -7
0 -12 8 -13 18 0 14 -2 14 -9 -3 -8 -18 -9 -18 -10 5 0 14 -7 36 -15 50 -9 16
-12 41 -8 71 4 33 1 53 -10 70 -15 22 -15 28 -1 54 21 42 42 55 85 55 35 0 37
2 33 27 -7 39 -21 61 -45 68 -31 10 -74 -12 -91 -48 l-15 -32 -16 38 c-9 20
-23 38 -31 38 -9 1 -22 2 -28 3 -20 2 -15 30 5 34 11 2 25 -5 33 -17 16 -22
44 -29 44 -11 0 5 16 20 35 32 l35 23 0 135 c0 182 -16 442 -35 570 -27 184
-47 280 -56 274 -12 -7 -12 -54 0 -54 13 0 15 -936 3 -944 -5 -3 -17 2 -25 12
-14 15 -17 61 -19 337 -2 176 1 354 6 395 5 41 6 73 3 70 -5 -5 -15 -74 -17
-120 -3 -59 -19 20 -31 153 -7 75 -14 135 -16 133 -6 -6 -3 -916 2 -949 3 -14
1 -29 -5 -32 -5 -3 -10 -5 -11 -3 -14 74 -29 236 -30 343 l-2 140 -8 -165 c-5
-91 -12 -183 -17 -205 l-10 -40 -1 40 c-1 22 -4 51 -8 65 -7 25 -7 25 -13 -5
-4 -17 -9 24 -13 97 -11 172 -50 438 -64 424 -16 -15 -52 -268 -61 -415 -3
-70 -8 -116 -10 -103 -6 42 -22 11 -23 -46 l-1 -57 -13 70 c-7 39 -15 156 -19
260 -7 191 -29 482 -43 564 -5 23 -7 -185 -5 -464z m172 -361 c0 -387 -2 -434
-15 -420 -12 12 -15 58 -17 268 -2 227 -3 238 -8 108 l-6 -145 -2 148 c-1 104
1 147 9 147 8 0 10 15 6 46 -3 29 -1 41 4 33 5 -9 9 10 9 51 0 71 11 200 16
200 2 0 4 -196 4 -436z m-195 -164 c0 -9 -7 -14 -20 -12 -26 5 -29 8 -20 22
10 16 40 8 40 -10z m55 -10 c0 -5 -4 -10 -10 -10 -5 0 -10 5 -10 10 0 6 5 10
10 10 6 0 10 -4 10 -10z m310 2 c0 -13 -12 -22 -22 -16 -10 6 -1 24 13 24 5 0
9 -4 9 -8z m-270 -114 c0 -7 -5 -20 -10 -28 -7 -12 -12 -12 -21 -3 -9 9 -9 16
1 28 15 18 30 20 30 3z m250 -18 c0 -18 -22 -22 -37 -7 -21 21 -8 40 18 27 10
-6 19 -15 19 -20z m-352 -29 c12 -33 2 -54 -21 -45 -17 6 -22 30 -11 58 9 24
21 19 32 -13z m448 4 c8 -34 -24 -75 -39 -50 -9 18 9 75 24 75 5 0 11 -11 15
-25z m-289 -62 c-3 -10 -5 -2 -5 17 0 19 2 27 5 18 2 -10 2 -26 0 -35z m-43 1
c9 -3 16 -12 16 -20 0 -7 9 -18 21 -24 11 -7 28 -28 36 -48 l16 -37 13 32 c8
18 25 40 39 49 14 9 25 22 25 29 0 16 25 26 45 19 9 -4 15 -19 15 -41 0 -34
-1 -35 -35 -30 -44 6 -61 -7 -83 -66 l-19 -48 -12 43 c-19 64 -36 79 -81 72
-33 -5 -38 -3 -43 17 -10 37 -8 47 11 52 9 3 18 5 19 6 1 0 8 -2 17 -5z m-174
-50 c0 -9 23 -56 51 -105 29 -49 49 -92 47 -95 -7 -7 -71 71 -91 111 -21 43
-32 105 -18 105 6 0 11 -7 11 -16z m439 -47 c-6 -26 -17 -52 -25 -58 -18 -14
-18 -10 1 34 8 20 15 49 15 64 0 19 3 24 11 16 7 -7 7 -24 -2 -56z m111 40 c0
-34 -54 -138 -90 -172 -41 -39 -39 -13 4 52 41 62 66 111 66 130 0 7 5 13 10
13 6 0 10 -11 10 -23z m-450 -18 c0 -11 7 -35 15 -55 8 -19 10 -32 4 -28 -15
9 -39 68 -39 94 0 12 5 18 10 15 6 -3 10 -15 10 -26z m99 -91 c6 -17 9 -33 7
-35 -5 -6 -46 53 -46 66 0 21 29 -2 39 -31z m155 -4 c-10 -15 -20 -21 -22 -15
-2 6 4 24 14 39 10 14 19 21 21 15 3 -7 -4 -24 -13 -39z m-372 -107 c-2 -31
-8 -55 -13 -51 -10 6 -12 84 -3 109 12 30 20 1 16 -58z m578 -3 c0 -34 -4 -53
-10 -49 -5 3 -10 31 -10 61 0 34 4 53 10 49 6 -3 10 -31 10 -61z m-342 -1 c5
-17 -23 -16 -37 1 -9 10 -7 13 11 12 12 0 23 -7 26 -13z m125 2 c0 -6 -7 -11
-16 -13 -12 -3 -15 1 -11 13 7 17 25 17 27 0z m-270 -85 c-6 -54 14 -100 44
-100 13 0 15 9 10 55 -6 58 1 70 32 60 16 -5 19 -12 14 -39 -5 -30 -2 -36 23
-47 15 -8 29 -19 31 -25 5 -16 -28 -48 -36 -35 -4 5 -31 12 -60 13 l-54 4 -13
44 c-13 45 -9 120 7 120 4 0 5 -22 2 -50z m385 -88 c-12 -24 -20 -27 -66 -30
-28 -2 -52 -7 -52 -12 0 -5 -7 -7 -15 -4 -25 10 -18 53 10 64 30 11 34 54 8
69 -16 9 -16 10 4 11 12 0 29 3 39 7 15 5 16 0 12 -45 -7 -70 5 -85 38 -48 22
25 25 36 20 72 -3 23 -2 45 2 49 13 13 13 -105 0 -133z m-578 39 c16 -30 13
-46 -6 -31 -26 22 -37 50 -20 50 9 0 20 -9 26 -19z m767 -53 c-3 -8 -6 -5 -6
6 -1 11 2 17 5 13 3 -3 4 -12 1 -19z m-607 -29 c0 -6 -4 -7 -10 -4 -5 3 -10
11 -10 16 0 6 5 7 10 4 6 -3 10 -11 10 -16z m-94 -57 c26 -61 14 -105 -89
-315 -53 -108 -103 -213 -112 -233 -32 -77 -24 -21 21 152 26 99 49 190 52
203 3 16 19 30 48 42 36 17 44 25 50 55 4 20 4 60 1 90 -6 61 5 63 29 6z
m-147 29 c10 -7 0 -23 -43 -70 -61 -67 -70 -65 -29 7 43 77 46 79 72 63z m808
-88 l-2 -98 103 -219 c56 -121 100 -221 98 -223 -6 -7 -206 277 -222 314 -20
47 -19 231 2 283 9 22 18 40 20 40 1 0 2 -44 1 -97z m146 44 c9 -13 30 -38 47
-56 18 -17 31 -34 29 -36 -4 -3 -119 72 -135 87 -10 11 6 28 25 28 10 0 26
-11 34 -23z m-471 -127 c21 26 21 22 -2 -22 -17 -36 -26 -35 -39 3 -16 47 -12
70 6 29 l15 -34 20 24z m-242 -32 c1 -14 -53 -192 -101 -338 -34 -102 -36 -90
-9 61 15 79 28 125 46 152 21 32 24 45 18 87 -6 49 -6 50 20 50 14 0 26 -6 26
-12z m460 -30 c6 -24 31 -113 56 -198 68 -234 70 -235 -46 20 -55 119 -61 139
-55 177 8 56 31 57 45 1z m-242 -420 l-3 -143 -25 225 -25 225 25 54 25 55 3
-137 c1 -75 1 -200 0 -279z m-58 333 c-7 -13 -6 -44 1 -99 16 -117 6 -143 -12
-32 -13 81 -14 99 -2 123 7 15 16 27 19 27 2 0 0 -9 -6 -19z"/>
<path d="M1492 2810 c0 -14 2 -19 5 -12 2 6 2 18 0 25 -3 6 -5 1 -5 -13z"/>
<path d="M932 2770 c0 -14 2 -19 5 -12 2 6 2 18 0 25 -3 6 -5 1 -5 -13z"/>
<path d="M1033 2745 c0 -22 2 -30 4 -17 2 12 2 30 0 40 -3 9 -5 -1 -4 -23z"/>
<path d="M1393 2745 c0 -22 2 -30 4 -17 2 12 2 30 0 40 -3 9 -5 -1 -4 -23z"/>
<path d="M1482 2760 c0 -14 2 -19 5 -12 2 6 2 18 0 25 -3 6 -5 1 -5 -13z"/>
<path d="M1382 2650 c0 -19 2 -27 5 -17 2 9 2 25 0 35 -3 9 -5 1 -5 -18z"/>
<path d="M1022 2640 c0 -14 2 -19 5 -12 2 6 2 18 0 25 -3 6 -5 1 -5 -13z"/>
<path d="M1373 2515 c0 -33 2 -45 4 -27 2 18 2 45 0 60 -2 15 -4 0 -4 -33z"/>
</g>
</svg>
