<?xml version="1.0" standalone="no"?>
<!DOCTYPE svg PUBLIC "-//W3C//DTD SVG 20010904//EN"
 "http://www.w3.org/TR/2001/REC-SVG-20010904/DTD/svg10.dtd">
<svg version="1.0" xmlns="http://www.w3.org/2000/svg"
 width="244.000000pt" height="305.000000pt" viewBox="0 0 244.000000 305.000000"
 preserveAspectRatio="xMidYMid meet">
<metadata>
Created by potrace 1.16, written by Peter Selinger 2001-2019
</metadata>
<g transform="translate(0.000000,305.000000) scale(0.100000,-0.100000)"
fill="#000000" stroke="none">
<path d="M910 2895 c0 -11 -3 -31 -6 -45 -4 -20 -3 -22 5 -10 8 11 11 -120 11
-462 0 -263 -3 -478 -7 -478 -5 0 -26 15 -48 34 l-39 33 12 254 c7 140 19 297
26 349 26 179 29 205 22 199 -11 -10 -46 -273 -56 -420 -5 -79 -10 -207 -10
-285 0 -136 1 -141 23 -152 12 -7 34 -21 49 -33 l26 -22 29 22 c15 12 39 30
52 40 l25 18 -12 256 c-13 268 -29 423 -63 597 -19 98 -39 151 -39 105z"/>
<path d="M1380 2893 c0 -10 -7 -92 -15 -183 -9 -91 -18 -315 -22 -498 -3 -183
-9 -335 -13 -337 -4 -2 -10 66 -14 152 -4 86 -14 211 -22 277 -15 124 -52 301
-61 292 -7 -6 -20 -64 -43 -186 -12 -60 -25 -198 -32 -322 -6 -119 -15 -215
-20 -212 -4 3 -8 19 -7 37 0 18 -9 73 -20 122 -20 82 -21 121 -22 438 0 191
-4 347 -8 347 -11 0 -31 -332 -38 -625 -6 -236 -4 -264 12 -298 9 -20 24 -37
31 -37 8 0 14 -9 14 -20 0 -26 -6 -25 -34 6 -19 23 -27 26 -59 20 -39 -7 -77
-46 -77 -77 0 -28 -16 -23 -30 10 -18 45 -47 66 -91 66 -45 0 -66 -18 -75 -63
l-6 -32 45 0 c39 0 51 -5 76 -32 34 -36 40 -72 15 -82 -25 -10 -12 -95 26
-163 36 -67 41 -143 13 -183 -10 -14 -23 -36 -30 -50 -11 -24 -12 -23 -12 15
1 59 -12 148 -24 163 -17 22 -65 14 -83 -13 -24 -37 -14 -99 30 -170 49 -81
48 -112 -2 -48 -61 78 -73 101 -79 153 -5 43 -2 56 21 90 31 47 31 52 8 73
-22 20 -102 23 -120 5 -16 -16 -15 -77 3 -128 19 -54 19 -113 0 -149 -8 -16
-48 -50 -92 -78 -140 -89 -285 -175 -289 -170 -3 2 57 64 132 137 l137 132 43
-7 44 -6 -7 98 c-8 133 -24 156 -21 30 l3 -99 -29 6 c-21 5 -36 0 -60 -20 -44
-37 -337 -326 -333 -330 2 -2 68 20 147 47 80 28 181 63 224 77 70 24 81 31
93 60 16 38 28 37 101 -5 51 -29 72 -65 54 -94 -7 -10 -12 -26 -12 -34 0 -8
-4 -15 -10 -15 -15 0 -26 -28 -65 -161 -96 -325 -121 -419 -111 -416 10 3 46
45 273 315 l95 113 -7 55 -6 54 35 0 c20 0 36 -2 36 -4 0 -2 -16 -115 -35
-252 -34 -242 -40 -297 -28 -264 3 8 41 104 84 213 61 153 79 210 79 248 0 27
3 49 8 49 7 0 72 -58 72 -65 0 -2 -14 -20 -32 -40 l-31 -36 57 -302 c54 -281
73 -370 75 -340 1 7 28 151 61 320 33 169 60 312 60 318 0 6 -13 26 -30 45
-32 36 -29 55 12 84 39 28 48 21 41 -33 -5 -45 2 -68 83 -269 49 -122 90 -220
91 -218 2 1 -3 43 -9 92 -10 71 -13 83 -19 59 -4 -16 -7 -26 -8 -21 0 5 -23
95 -51 201 -27 106 -50 198 -50 204 0 9 48 17 51 9 0 -2 9 -50 19 -108 18 -98
19 -90 3 53 l-6 57 32 0 c34 0 36 -6 21 -62 l-11 -37 93 -109 c51 -59 135
-158 187 -220 52 -62 95 -111 97 -109 2 2 -3 25 -12 52 -47 155 -136 470 -139
489 -1 11 -14 43 -29 70 -14 27 -26 55 -26 62 0 17 56 58 99 73 47 15 49 15
53 -16 3 -25 11 -31 68 -51 236 -83 358 -124 375 -129 11 -2 -61 75 -160 171
-169 166 -182 176 -211 171 l-31 -5 3 97 c3 101 1 97 -25 -37 -6 -30 -13 -65
-17 -77 -5 -20 13 -35 170 -138 96 -64 178 -120 181 -125 9 -15 -310 102 -330
121 -5 6 -5 13 3 21 15 15 16 48 2 48 -5 0 -19 9 -30 20 -25 25 -27 104 -5
176 28 94 12 144 -48 144 -72 0 -97 -39 -57 -90 24 -30 26 -96 5 -146 -16 -39
-82 -124 -96 -124 -5 0 9 33 31 73 50 91 55 156 16 183 -14 8 -35 14 -47 12
-20 -3 -24 -12 -35 -76 -7 -39 -10 -82 -7 -95 4 -21 4 -21 -8 -2 -7 11 -18 24
-26 28 -23 14 -17 148 9 198 29 57 36 134 14 158 -16 18 -16 22 -2 50 22 42
58 63 98 59 28 -3 33 0 36 20 5 35 -34 72 -76 72 -36 0 -92 -45 -92 -74 0 -9
-4 -16 -10 -16 -5 0 -10 7 -10 16 0 9 -15 31 -34 50 -42 42 -76 44 -111 7 -20
-23 -25 -25 -25 -10 0 10 11 28 25 40 14 12 28 38 31 57 4 23 2 30 -4 22 -6
-9 -13 16 -22 75 -16 107 -24 763 -10 763 6 0 10 5 10 11 0 5 -4 8 -8 5 -5 -3
-7 19 -4 49 2 30 2 55 -2 55 -3 0 -6 -8 -6 -17z m-178 -763 c-4 -192 -8 -254
-15 -225 -13 59 3 509 18 493 2 -2 0 -122 -3 -268z m-25 -377 c-2 -21 -4 -6
-4 32 0 39 2 55 4 38 2 -18 2 -50 0 -70z m-130 -30 c1 -21 6 -78 11 -128 5
-49 8 -92 6 -94 -6 -7 -45 43 -60 76 -7 18 -14 43 -14 56 0 13 -9 32 -19 41
-32 29 1 86 49 86 23 0 26 -4 27 -37z m447 15 c20 -28 20 -52 1 -68 -8 -7 -15
-24 -15 -39 0 -15 -16 -51 -35 -81 l-35 -55 7 100 c3 55 6 115 6 133 0 28 4
32 28 32 17 0 34 -8 43 -22z m-294 -73 c0 -24 -5 -35 -15 -35 -18 0 -19 11 -3
45 15 33 18 32 18 -10z m-50 -14 c0 -33 4 -40 21 -43 13 -2 30 -18 41 -38 10
-19 24 -34 30 -32 6 2 8 -6 4 -20 -3 -13 -6 -30 -7 -38 0 -8 -9 10 -18 40 -16
53 -18 55 -56 60 -38 5 -40 7 -43 44 -4 43 2 66 18 66 5 0 10 -18 10 -39z
m195 -17 c0 -49 0 -49 -35 -52 -19 -2 -41 -9 -49 -15 -10 -8 -9 -3 3 14 9 15
26 29 36 32 15 4 20 14 20 42 0 25 4 35 13 33 7 -3 12 -23 12 -54z m-402 -56
c11 -27 14 -45 7 -52 -10 -10 -40 49 -40 79 0 28 15 15 33 -27z m151 27 c3 -8
1 -15 -4 -15 -6 0 -10 7 -10 15 0 8 2 15 4 15 2 0 6 -7 10 -15z m293 -17 c-3
-7 -5 -2 -5 12 0 14 2 19 5 13 2 -7 2 -19 0 -25z m165 -13 c-5 -17 -16 -31
-25 -33 -11 -2 -15 2 -12 10 22 62 27 70 35 62 5 -5 6 -22 2 -39z m-427 -81
c20 -50 18 -64 -5 -35 -18 20 -28 71 -15 71 3 0 12 -16 20 -36z m230 -30 c-24
-38 -28 -23 -8 27 15 37 18 40 21 21 2 -13 -4 -35 -13 -48z m118 2 c6 -16 -2
-28 -14 -20 -12 7 -11 34 0 34 5 0 11 -6 14 -14z m-449 -5 c3 -5 -1 -14 -9
-21 -13 -10 -15 -9 -15 9 0 21 14 28 24 12z m517 -114 c-13 -13 -15 50 -3 80
5 13 8 5 10 -26 2 -24 -2 -49 -7 -54z m-459 66 c18 -16 25 -43 11 -43 -12 0
-43 33 -43 47 0 17 10 17 32 -4z m338 5 c0 -14 -30 -48 -42 -48 -13 0 -9 22 9
42 18 21 33 23 33 6z m-470 -40 c0 -10 -4 -18 -10 -18 -5 0 -10 15 -10 33 0
24 3 28 10 17 5 -8 10 -23 10 -32z m362 17 c-2 -14 -8 -25 -13 -25 -12 0 -11
7 1 31 14 26 18 24 12 -6z m-138 -1 c8 -21 8 -24 -3 -24 -5 0 -11 9 -14 20 -6
24 8 27 17 4z m-139 -183 c5 -33 4 -31 -15 14 -11 28 -20 64 -19 80 1 27 2 26
15 -14 8 -25 16 -61 19 -80z m373 11 c-12 -45 -44 -78 -61 -64 -7 6 -23 12
-37 14 -35 4 -34 39 2 49 22 6 28 3 33 -12 15 -46 55 5 56 71 1 44 1 44 9 12
4 -19 3 -50 -2 -70z m68 76 c-4 -32 -27 -101 -37 -112 -5 -6 -9 -8 -9 -5 0 5
27 101 35 127 7 20 13 14 11 -10z m-400 -33 c0 -24 7 -51 14 -60 12 -14 15
-14 31 1 25 22 63 15 67 -13 3 -19 -1 -23 -25 -23 -16 0 -34 -5 -41 -12 -23
-23 -62 48 -62 113 0 54 15 49 16 -6z m94 36 c0 -10 -42 -23 -49 -15 -7 6 20
24 37 24 6 0 12 -4 12 -9z m155 -1 c3 -5 -1 -10 -9 -10 -9 0 -16 5 -16 10 0 6
4 10 9 10 6 0 13 -4 16 -10z m22 -22 c-3 -8 -6 -5 -6 6 -1 11 2 17 5 13 3 -3
4 -12 1 -19z m253 -43 c-1 -5 -7 -19 -15 -29 -12 -15 -18 -17 -27 -8 -9 9 -8
16 5 30 9 10 17 25 17 33 0 12 2 11 10 -1 5 -8 10 -19 10 -25z m-670 -56 c0
-20 -15 -26 -24 -10 -8 13 4 42 15 35 5 -3 9 -14 9 -25z m710 -31 c0 -7 -4
-19 -9 -27 -11 -17 -23 1 -15 23 7 19 24 21 24 4z m-771 -69 c-14 -26 -29 -24
-29 4 0 30 10 40 26 26 10 -8 11 -16 3 -30z m-126 -343 c-76 -140 -139 -253
-141 -251 -2 2 15 66 38 142 23 76 53 175 66 221 16 55 31 85 42 88 52 16 82
35 82 52 0 11 10 32 23 48 l22 29 3 -38 c3 -32 -17 -74 -135 -291z m868 268
c5 -47 47 -135 196 -412 25 -46 43 -85 41 -88 -5 -4 -259 310 -275 340 -7 13
-7 29 -1 48 6 16 8 43 4 60 -8 40 4 110 18 105 6 -2 14 -26 17 -53z m96 21 c6
-14 9 -25 6 -25 -7 0 -32 33 -33 43 0 16 16 5 27 -18z m-466 -84 c7 11 9 10 9
-3 0 -9 -4 -20 -10 -23 -5 -3 -10 -4 -10 -1 0 2 -2 10 -3 18 -2 7 -2 9 1 4 2
-4 8 -2 13 5z m-166 -42 c6 -34 -2 -65 -61 -220 -37 -98 -68 -178 -70 -177 -1
2 19 89 46 193 26 105 50 202 54 218 9 39 23 33 31 -14z m116 -72 c-15 -15
-14 -71 4 -256 8 -85 13 -156 11 -158 -1 -2 -17 70 -35 159 -17 90 -34 175
-37 189 -4 21 3 36 28 64 18 22 34 32 36 25 2 -6 -1 -17 -7 -23z m346 -339
c-3 -8 -6 -5 -6 6 -1 11 2 17 5 13 3 -3 4 -12 1 -19z"/>
<path d="M1532 2849 c-16 -68 -13 -97 3 -34 11 43 13 -19 14 -432 0 -266 -2
-483 -6 -483 -4 0 -22 10 -41 23 l-34 22 5 250 c3 178 11 294 26 404 12 84 20
155 18 158 -6 5 -34 -190 -47 -322 -5 -60 -13 -200 -17 -311 l-6 -202 24 -12
c13 -7 36 -23 50 -36 l26 -25 34 31 c19 16 42 32 52 36 20 6 21 13 7 315 -5
118 -16 265 -25 325 -21 148 -55 327 -64 337 -4 4 -13 -15 -19 -44z"/>
<path d="M1082 2860 c0 -19 2 -27 5 -17 2 9 2 25 0 35 -3 9 -5 1 -5 -18z"/>
<path d="M891 2794 c0 -11 3 -14 6 -6 3 7 2 16 -1 19 -3 4 -6 -2 -5 -13z"/>
<path d="M1403 2695 c0 -27 2 -38 4 -22 2 15 2 37 0 50 -2 12 -4 0 -4 -28z"/>
<path d="M1102 2690 c0 -19 2 -27 5 -17 2 9 2 25 0 35 -3 9 -5 1 -5 -18z"/>
<path d="M1413 2560 c0 -36 2 -50 4 -32 2 17 2 47 0 65 -2 17 -4 3 -4 -33z"/>
<path d="M1113 2560 c0 -25 2 -35 4 -22 2 12 2 32 0 45 -2 12 -4 2 -4 -23z"/>
<path d="M1424 2330 c0 -63 1 -89 3 -57 2 31 2 83 0 115 -2 31 -3 5 -3 -58z"/>
<path d="M1124 2300 c0 -52 1 -74 3 -47 2 26 2 68 0 95 -2 26 -3 4 -3 -48z"/>
<path d="M1512 690 c-1 -19 3 -53 7 -75 8 -35 9 -36 9 -10 0 17 -3 50 -7 75
-8 42 -9 43 -9 10z"/>
</g>
</svg>
