<?xml version="1.0" standalone="no"?>
<!DOCTYPE svg PUBLIC "-//W3C//DTD SVG 20010904//EN"
 "http://www.w3.org/TR/2001/REC-SVG-20010904/DTD/svg10.dtd">
<svg version="1.0" xmlns="http://www.w3.org/2000/svg"
 width="244.000000pt" height="305.000000pt" viewBox="0 0 244.000000 305.000000"
 preserveAspectRatio="xMidYMid meet">
<metadata>
Created by potrace 1.16, written by Peter Selinger 2001-2019
</metadata>
<g transform="translate(0.000000,305.000000) scale(0.100000,-0.100000)"
fill="#000000" stroke="none">
<path d="M1557 2889 c-55 -242 -82 -458 -93 -770 l-7 -195 31 -13 c17 -7 38
-21 48 -32 23 -25 33 -24 74 11 19 17 41 30 49 30 12 0 13 31 7 213 -4 116
-11 255 -17 307 -14 136 -49 352 -60 370 -8 12 -9 11 -5 -5 25 -95 55 -368 67
-606 l12 -232 -39 -33 c-21 -18 -43 -32 -49 -30 -14 4 -19 920 -5 946 6 11 6
28 1 41 l-8 23 -6 -25z"/>
<path d="M880 2808 c-43 -188 -65 -385 -76 -699 -6 -179 -5 -187 13 -193 11
-4 35 -20 53 -36 39 -35 46 -36 59 -12 5 10 26 27 45 37 l36 20 0 95 c0 137
-18 406 -35 540 -16 122 -43 261 -52 270 -3 3 -3 -8 1 -25 14 -70 46 -308 56
-410 15 -169 13 -455 -3 -455 -8 0 -22 -9 -32 -20 -45 -50 -45 -49 -45 449 0
303 4 472 10 476 12 8 13 42 1 49 -5 4 -19 -36 -31 -86z"/>
<path d="M1126 2397 c2 -418 0 -465 -12 -407 -7 36 -13 80 -14 98 0 31 -1 32
-16 18 -21 -22 -44 -218 -26 -224 7 -2 12 -9 12 -16 0 -9 -15 -11 -53 -8 -49
4 -56 2 -75 -23 -12 -15 -22 -36 -22 -46 0 -28 -19 -32 -26 -6 -3 14 -19 37
-35 53 -54 51 -137 27 -142 -41 -2 -29 -1 -30 47 -30 41 -1 52 -5 77 -33 33
-37 36 -57 13 -70 -13 -7 -16 -21 -12 -64 4 -51 30 -105 94 -195 14 -20 13
-23 -15 -55 -60 -68 -60 -112 -2 -143 22 -11 28 -20 24 -35 -7 -26 -13 -25
-46 5 -38 36 -58 79 -52 112 3 15 -1 57 -8 93 l-14 65 -38 -1 c-83 -3 -86 -78
-7 -207 27 -45 59 -100 69 -122 23 -46 35 -121 24 -150 -5 -11 -1 -40 7 -67
14 -43 14 -49 0 -65 -8 -10 -60 -72 -115 -138 -56 -66 -117 -138 -137 -160
l-37 -40 40 80 c22 44 56 107 74 140 139 247 140 248 138 295 -1 45 -34 159
-49 170 -21 15 -82 100 -96 134 -23 54 -20 96 9 138 14 20 25 44 25 52 0 38
-106 50 -140 16 -25 -25 -25 -39 0 -118 32 -102 24 -183 -20 -197 -21 -7 -23
-16 -9 -63 3 -9 -34 -28 -116 -58 -66 -24 -144 -54 -173 -65 -29 -12 -55 -19
-58 -16 -3 3 21 22 53 42 91 58 193 122 256 163 66 42 62 23 36 185 -17 108
-33 100 -25 -12 l7 -90 -33 5 c-31 4 -41 -3 -137 -93 -201 -188 -266 -252
-256 -253 6 0 114 35 240 78 215 72 230 79 230 101 1 34 17 36 78 8 60 -27
107 -80 107 -120 0 -20 -7 -28 -35 -37 -34 -11 -36 -15 -69 -123 -80 -257
-124 -404 -130 -432 l-6 -30 31 35 c184 203 235 260 322 361 l47 56 -15 37
c-9 20 -13 41 -10 46 9 14 155 13 155 -1 0 -8 4 -8 14 0 29 24 28 -13 -5 -201
-26 -142 -36 -183 -41 -162 -4 17 -5 6 -2 -24 3 -36 1 -52 -6 -47 -6 4 -10
-11 -10 -41 0 -26 2 -45 4 -43 5 6 66 224 66 236 0 6 7 28 17 49 l16 39 19
-90 c10 -49 37 -183 59 -298 23 -114 43 -206 45 -205 5 6 114 557 114 579 0
39 16 8 40 -79 36 -131 33 -89 -5 60 -41 162 -38 145 -36 186 2 53 18 37 30
-30 38 -203 51 -292 47 -306 -3 -10 1 -37 9 -62 12 -40 14 -42 14 -15 1 17 -8
120 -19 230 -11 110 -20 208 -20 218 0 15 11 17 81 17 80 0 81 0 75 -22 -22
-79 -20 -86 75 -188 13 -15 85 -95 159 -178 74 -84 136 -149 138 -144 1 5 -27
108 -64 228 -37 120 -74 244 -83 274 -15 48 -21 56 -52 66 -44 15 -49 43 -14
96 19 28 42 47 80 64 61 26 85 23 85 -11 0 -20 14 -27 118 -62 268 -91 366
-123 369 -119 2 2 -18 22 -44 46 -48 44 -85 78 -247 229 -82 77 -91 82 -121
77 l-33 -6 5 92 c4 62 2 90 -5 83 -5 -5 -13 -54 -16 -108 l-7 -98 48 6 48 6
140 -135 c77 -74 137 -135 133 -136 -14 -1 -347 196 -376 223 -12 11 -27 38
-34 59 -9 32 -8 47 11 103 26 80 27 117 3 138 -25 23 -94 22 -122 -1 l-23 -19
27 -45 c46 -79 35 -132 -48 -243 -60 -78 -69 -100 -68 -160 2 -69 15 -91 66
-106 l46 -13 35 -111 c19 -60 50 -159 69 -220 53 -167 58 -172 -130 155 -159
277 -159 275 -74 418 83 140 91 159 88 205 -4 48 -37 75 -80 64 -22 -6 -26
-14 -32 -59 -4 -29 -8 -75 -9 -103 -2 -38 -9 -59 -31 -88 -31 -40 -59 -61 -70
-50 -14 15 -4 40 24 56 60 36 61 75 4 140 -19 20 -34 39 -34 41 0 2 14 21 31
42 40 50 66 102 78 153 7 33 5 47 -11 77 -18 33 -18 38 -3 60 24 38 61 57 100
52 26 -3 36 0 40 13 13 40 -35 89 -86 89 -25 0 -89 -61 -89 -84 0 -27 -19 -18
-33 17 -8 17 -20 37 -28 43 -24 19 -72 23 -101 8 -32 -17 -40 0 -11 21 16 12
16 22 6 113 -12 108 -20 133 -34 111 -5 -8 -9 51 -9 141 0 181 -20 602 -29
612 -3 4 -5 -210 -3 -475 2 -265 0 -478 -4 -474 -4 4 -13 94 -20 199 -14 208
-34 348 -63 443 l-18 60 -21 -90 c-21 -89 -39 -196 -44 -265 -2 -19 -9 109
-16 285 -7 176 -16 323 -20 327 -4 4 -6 -205 -6 -465z m149 -57 c19 -137 25
-456 11 -534 -6 -33 -6 -47 1 -43 6 4 13 -2 16 -13 3 -11 1 -18 -4 -14 -5 3
-9 0 -9 -7 0 -10 -3 -10 -11 -2 -7 7 -9 32 -5 69 4 33 8 115 10 184 l4 125
-13 -130 -12 -130 -2 185 c0 102 -4 244 -7 315 -4 72 -4 128 -1 125 3 -3 13
-62 22 -130z m-128 -472 c-3 -7 -5 -2 -5 12 0 14 2 19 5 13 2 -7 2 -19 0 -25z
m-47 -125 c0 -23 -23 -32 -35 -13 -12 19 -35 10 -35 -13 0 -32 37 -69 61 -62
16 5 19 1 19 -28 0 -28 -6 -39 -38 -61 -21 -14 -43 -26 -49 -26 -14 0 -53 78
-47 94 3 7 -4 21 -16 31 -27 25 -25 41 10 76 26 26 35 29 80 27 44 -3 50 -6
50 -25z m383 15 c45 -23 61 -69 31 -86 -8 -5 -18 -24 -20 -43 -6 -35 -40 -99
-53 -99 -4 0 -18 11 -31 25 -13 14 -29 25 -37 25 -9 0 -13 13 -13 40 0 37 2
40 28 40 29 0 52 30 52 65 0 17 -26 20 -35 5 -11 -17 -35 -11 -35 9 0 28 73
41 113 19z m-207 -97 c3 -11 7 -11 19 -1 13 11 14 10 8 -6 -7 -19 -22 -34 -35
-34 -5 0 -8 19 -7 43 0 23 3 35 6 27 2 -8 7 -21 9 -29z m-343 -84 c9 -23 33
-60 52 -82 39 -45 48 -83 16 -65 -37 19 -101 124 -101 165 0 37 13 30 33 -18z
m611 -56 c-14 -27 -39 -62 -55 -77 -29 -28 -29 -28 -29 -5 0 13 11 37 26 53
14 17 37 54 52 82 25 48 27 49 30 24 2 -17 -8 -48 -24 -77z m-358 78 c3 -6 1
-16 -5 -22 -9 -9 -14 -8 -21 3 -5 8 -10 18 -10 23 0 11 28 8 36 -4z m127 5 c9
-9 -4 -34 -18 -34 -14 0 -27 25 -18 34 4 3 12 6 18 6 6 0 14 -3 18 -6z m-197
-103 c3 -14 7 -32 10 -38 5 -17 -7 -16 -34 3 -30 21 -32 75 -2 67 11 -3 23
-17 26 -32z m280 7 c-5 -30 -28 -58 -48 -58 -13 0 4 64 20 78 26 20 34 14 28
-20z m-159 -25 c-3 -10 -5 -4 -5 12 0 17 2 24 5 18 2 -7 2 -21 0 -30z m-74
-38 l6 -30 -14 30 c-16 34 -21 72 -6 45 5 -8 11 -28 14 -45z m147 -20 c-15
-39 -23 -25 -8 16 6 18 13 29 15 23 2 -6 -1 -24 -7 -39z m137 -12 c-3 -10 -5
-4 -5 12 0 17 2 24 5 18 2 -7 2 -21 0 -30z m-377 -15 c0 -16 -3 -19 -11 -11
-6 6 -8 16 -5 22 11 17 16 13 16 -11z m337 -10 c-3 -7 -5 -2 -5 12 0 14 2 19
5 13 2 -7 2 -19 0 -25z m-272 -16 c0 -18 -20 -15 -23 4 -3 10 1 15 10 12 7 -3
13 -10 13 -16z m225 4 c0 -16 -18 -31 -27 -22 -8 8 5 36 17 36 5 0 10 -6 10
-14z m-350 -47 c0 -5 5 -7 10 -4 14 9 13 -64 -1 -106 -12 -35 -46 -79 -61 -79
-18 0 -6 39 17 54 20 13 23 22 18 46 -5 25 -3 29 11 24 11 -4 16 0 16 14 0 15
-5 20 -20 17 -21 -4 -24 3 -14 29 7 18 24 22 24 5z m479 -33 c-1 -18 -3 -23
-6 -13 -3 11 -11 16 -19 13 -15 -6 -18 3 -8 28 10 26 34 6 33 -28z m-183 7
c-10 -10 -19 5 -10 18 6 11 8 11 12 0 2 -7 1 -15 -2 -18z m-126 9 c0 -13 -12
-22 -22 -16 -10 6 -1 24 13 24 5 0 9 -4 9 -8z m257 -39 c-3 -10 -5 -2 -5 17 0
19 2 27 5 18 2 -10 2 -26 0 -35z m-351 -33 c6 -33 7 -57 3 -55 -4 3 -10 22
-14 42 -3 21 -9 49 -12 63 -3 14 -2 21 3 17 5 -5 14 -35 20 -67z m304 -6 c-16
-76 -22 -63 -8 15 7 35 14 59 16 53 2 -7 -2 -37 -8 -68z m-256 -33 c8 -12 11
-11 21 3 11 15 13 15 26 0 11 -14 10 -19 -11 -35 -14 -10 -28 -19 -32 -19 -11
0 -28 72 -27 115 l2 40 6 -45 c4 -25 10 -51 15 -59z m222 24 c-4 -23 -12 -49
-19 -58 -11 -15 -14 -14 -35 3 -13 11 -20 24 -16 34 7 18 24 22 24 6 0 -16 27
-11 34 6 3 9 7 32 7 52 1 20 3 29 6 18 3 -10 2 -37 -1 -61z m104 -15 c24 -47
24 -51 6 -44 -8 3 -16 15 -19 27 -2 12 -8 30 -12 40 -14 33 5 16 25 -23z m-93
-87 c-3 -10 -5 -4 -5 12 0 17 2 24 5 18 2 -7 2 -21 0 -30z m-260 -15 c-3 -8
-6 -5 -6 6 -1 11 2 17 5 13 3 -3 4 -12 1 -19z m137 -182 c-5 -14 -9 -15 -15
-5 -5 8 -3 17 4 21 15 9 19 4 11 -16z m-85 -43 c6 -12 6 -24 -1 -38 -11 -19
-11 -19 -19 0 -18 46 -2 76 20 38z m177 -5 c-3 -13 -6 -30 -6 -38 -1 -12 -3
-11 -11 3 -12 20 -3 57 13 57 6 0 8 -10 4 -22z m-27 -49 c33 -39 34 -40 23
-97 -22 -124 -73 -366 -78 -372 -3 -3 -3 33 1 80 16 201 21 347 13 375 -18 66
-7 70 41 14z"/>
<path d="M1112 2720 c0 -14 2 -19 5 -12 2 6 2 18 0 25 -3 6 -5 1 -5 -13z"/>
<path d="M1322 2675 c0 -16 2 -22 5 -12 2 9 2 23 0 30 -3 6 -5 -1 -5 -18z"/>
<path d="M1103 2470 c0 -41 2 -58 4 -37 2 20 2 54 0 75 -2 20 -4 3 -4 -38z"/>
<path d="M1313 2405 c0 -44 2 -61 4 -37 2 23 2 59 0 80 -2 20 -4 1 -4 -43z"/>
<path d="M1053 860 c0 -25 2 -35 4 -22 2 12 2 32 0 45 -2 12 -4 2 -4 -23z"/>
<path d="M1043 775 c0 -22 2 -30 4 -17 2 12 2 30 0 40 -3 9 -5 -1 -4 -23z"/>
<path d="M1033 660 c0 -25 2 -35 4 -22 2 12 2 32 0 45 -2 12 -4 2 -4 -23z"/>
</g>
</svg>
