<?xml version="1.0" standalone="no"?>
<!DOCTYPE svg PUBLIC "-//W3C//DTD SVG 20010904//EN"
 "http://www.w3.org/TR/2001/REC-SVG-20010904/DTD/svg10.dtd">
<svg version="1.0" xmlns="http://www.w3.org/2000/svg"
 width="244.000000pt" height="305.000000pt" viewBox="0 0 244.000000 305.000000"
 preserveAspectRatio="xMidYMid meet">
<metadata>
Created by potrace 1.16, written by Peter Selinger 2001-2019
</metadata>
<g transform="translate(0.000000,305.000000) scale(0.100000,-0.100000)"
fill="#000000" stroke="none">
<path d="M951 2860 c-23 -105 -42 -246 -56 -425 -17 -214 -20 -515 -5 -515 19
0 60 -48 60 -70 l0 -21 -26 20 c-15 12 -37 21 -50 21 -33 0 -64 -34 -64 -70 0
-27 3 -30 34 -30 26 0 41 -7 60 -31 26 -31 35 -79 15 -79 -6 0 -9 -21 -8 -56
2 -50 0 -56 -22 -67 -15 -8 -25 -23 -27 -40 -2 -15 -15 -40 -29 -55 -23 -24
-25 -32 -19 -84 4 -46 3 -58 -8 -58 -32 0 -36 108 -6 158 11 18 20 39 20 47 0
33 -86 48 -114 19 -20 -20 -20 -71 0 -141 22 -77 15 -146 -20 -178 -23 -21
-25 -27 -14 -50 10 -22 9 -28 -3 -36 -26 -16 -291 -131 -294 -127 -2 2 33 32
78 66 154 116 212 162 228 181 14 17 15 27 3 88 -7 37 -13 85 -14 106 0 21 -5
37 -11 37 -9 0 -10 -25 -5 -91 l7 -91 -30 7 c-20 4 -32 2 -38 -8 -4 -8 -40
-50 -80 -93 -123 -137 -221 -249 -219 -252 4 -3 122 42 248 95 59 25 111 44
114 41 3 -3 -9 -29 -27 -57 -17 -29 -29 -54 -26 -57 5 -5 82 35 127 66 14 10
39 25 57 34 29 14 33 14 47 0 25 -25 21 -73 -8 -84 -13 -5 -27 -13 -30 -18 -7
-12 -81 -296 -112 -432 -14 -58 -27 -113 -30 -122 -8 -27 9 -21 28 10 9 15 39
59 67 97 28 39 68 94 88 123 20 29 37 51 39 49 2 -2 -8 -63 -21 -137 -14 -73
-23 -135 -21 -137 2 -2 52 92 112 209 101 200 108 216 105 266 -2 48 -1 52 21
52 30 0 84 -33 98 -60 9 -17 7 -26 -14 -51 -30 -36 -30 -38 -11 -155 53 -326
87 -529 90 -532 3 -4 2 -9 61 351 49 302 49 299 8 354 -16 22 -15 24 20 59 28
28 42 35 68 32 28 -3 33 -7 31 -28 -1 -14 -3 -36 -4 -50 -1 -14 22 -72 51
-130 29 -58 81 -161 116 -230 35 -69 63 -123 63 -120 1 3 -8 55 -19 115 -31
171 -34 191 -23 180 5 -5 52 -67 103 -137 51 -71 94 -128 95 -128 5 0 -14 85
-71 314 -58 237 -59 240 -92 259 -30 18 -33 24 -28 51 12 57 17 57 101 6 28
-17 66 -38 85 -47 19 -8 47 -24 63 -35 37 -27 35 -6 -8 61 -19 30 -33 56 -32
58 2 1 75 -26 163 -61 87 -35 161 -63 162 -61 2 2 -63 80 -145 174 -137 158
-150 170 -177 166 l-29 -5 6 67 c3 38 2 77 -3 88 -6 15 -9 7 -9 -30 -1 -27 -4
-73 -7 -102 l-7 -51 39 4 c38 5 40 4 109 -77 39 -45 90 -104 114 -130 24 -27
39 -49 33 -49 -10 0 -194 129 -273 191 -53 41 -68 100 -45 179 21 78 21 123
-2 143 -24 22 -64 21 -92 -1 l-23 -19 27 -45 c30 -51 32 -83 12 -133 -17 -39
-39 -48 -32 -12 13 58 9 122 -7 139 -8 7 -17 30 -21 51 -6 33 -10 37 -36 37
-29 0 -29 0 -23 50 5 40 2 54 -11 69 -23 25 -14 52 26 86 21 18 39 25 55 22
28 -5 37 6 29 38 -13 50 -62 70 -106 43 -10 -7 -22 -9 -25 -6 -13 12 5 44 35
61 l30 18 -1 92 c-1 51 -5 153 -9 227 -6 111 -7 98 -3 -75 l4 -210 -35 -27
c-19 -16 -37 -28 -40 -28 -4 0 -6 215 -5 478 0 309 4 470 10 457 8 -17 9 -17
4 5 -2 14 -5 34 -5 45 -1 46 -20 -15 -32 -103 -7 -51 -16 -86 -20 -79 -4 7 -8
-15 -8 -48 0 -33 -3 -98 -7 -145 -7 -80 -8 -82 -14 -40 -11 66 -10 246 1 313
8 51 4 124 -6 114 -14 -14 -54 -492 -54 -652 0 -99 -13 -171 -33 -191 -4 -4
-8 8 -8 27 -1 31 -2 30 -13 -16 -12 -49 -13 -47 -19 85 -8 179 -42 428 -60
446 -15 16 -55 -259 -64 -446 -5 -99 -9 -131 -13 -103 -8 57 -20 66 -21 17
l-1 -39 -15 48 c-8 27 -17 46 -20 43 -3 -3 -9 -44 -14 -91 -5 -47 -14 -96 -21
-108 -11 -18 -14 36 -19 308 -3 182 -5 407 -4 500 2 170 2 170 -11 90 -7 -44
-13 -98 -13 -120 -1 -30 -4 -36 -11 -25 -8 11 -10 -7 -8 -60 2 -97 -12 -658
-18 -687 -2 -13 -9 -23 -14 -23 -6 0 -10 175 -9 488 1 268 5 476 9 462 l8 -25
0 25 c0 14 -3 34 -7 45 -6 16 -11 8 -20 -35z m315 -728 c4 -128 10 -234 13
-236 3 -2 4 -39 0 -83 -3 -43 -2 -91 3 -107 7 -29 -2 -58 -29 -84 -11 -11 -13
57 -12 420 2 457 12 494 25 90z m21 -154 c-2 -24 -4 -5 -4 42 0 47 2 66 4 43
2 -24 2 -62 0 -85z m-260 -102 c-2 -6 -14 -12 -26 -14 -20 -3 -21 -1 -12 17
12 21 45 19 38 -3z m383 -2 c0 -8 -7 -14 -15 -14 -15 0 -21 21 -9 33 10 9 24
-2 24 -19z m-312 -2 c2 -7 -3 -12 -12 -12 -9 0 -16 7 -16 16 0 17 22 14 28 -4z
m377 8 c3 -6 -1 -13 -10 -16 -19 -8 -30 0 -20 15 8 14 22 14 30 1z m-351 -141
c-18 -20 -34 -17 -34 6 0 14 28 25 43 17 5 -2 1 -12 -9 -23z m257 8 c-1 -4 -1
-11 -1 -17 0 -14 -11 -12 -34 5 -23 17 -12 37 15 27 11 -5 20 -11 20 -15z
m-361 -53 c0 -14 -4 -23 -10 -19 -5 3 -10 15 -10 26 0 10 5 19 10 19 6 0 10
-12 10 -26z m452 14 c6 -17 -1 -38 -13 -38 -5 0 -9 11 -9 25 0 26 14 34 22 13z
m-328 -54 c9 -3 16 -12 16 -19 0 -7 11 -20 24 -28 13 -9 30 -33 37 -54 l12
-38 18 42 c10 23 27 47 38 53 12 6 21 19 21 29 0 15 6 18 31 15 43 -5 50 -12
43 -42 -10 -40 -11 -41 -50 -30 -46 12 -68 -6 -87 -71 l-14 -46 -12 45 c-19
68 -36 82 -88 74 l-43 -6 0 35 c0 25 5 37 18 40 9 3 18 5 19 6 1 0 8 -2 17 -5z
m-164 -55 c0 -6 16 -44 35 -86 35 -75 39 -105 10 -67 -42 54 -86 188 -55 169
6 -3 10 -11 10 -16z m90 -53 c0 -34 -18 -4 -24 39 l-6 40 15 -30 c8 -16 14
-39 15 -49z m350 18 c-7 -19 -15 -33 -18 -30 -3 3 1 25 8 47 8 23 16 37 18 30
2 -6 -2 -27 -8 -47z m87 22 c-7 -46 -41 -118 -66 -140 -27 -25 -27 -22 13 65
18 41 36 82 39 92 11 29 20 19 14 -17z m-355 -73 c18 -22 30 -63 17 -63 -9 0
-49 59 -49 73 0 13 16 8 32 -10z m198 11 c0 -13 -42 -74 -50 -74 -12 0 7 62
22 72 16 9 28 10 28 2z m206 -110 c5 -27 -13 -152 -21 -142 -1 2 -5 50 -8 108
-5 92 -4 103 9 86 7 -11 16 -34 20 -52z m-602 34 c-4 -13 -8 -52 -9 -88 -2
-81 -5 -92 -15 -60 -12 36 -12 114 0 144 12 33 36 36 24 4z m231 -77 c9 -22 0
-23 -26 -2 l-24 20 22 -2 c12 -1 25 -8 28 -16z m129 -6 c-25 -19 -34 -19 -34
0 0 10 10 15 27 15 26 0 26 -1 7 -15z m-277 -57 c-3 -8 -6 -5 -6 6 -1 11 2 17
5 13 3 -3 4 -12 1 -19z m111 -8 c9 0 10 -5 2 -19 -16 -32 -12 -51 15 -61 17
-7 25 -17 25 -34 0 -29 -19 -38 -43 -21 -11 8 -34 11 -62 7 -41 -4 -45 -3 -45
17 0 18 3 20 18 12 30 -16 42 5 35 62 -6 49 -6 50 18 44 13 -4 30 -7 37 -7z
m232 -37 c-4 -75 -4 -75 30 -68 23 5 30 3 30 -9 0 -12 -11 -15 -54 -14 -30 1
-61 -4 -69 -11 -12 -9 -18 -9 -30 3 -19 20 -10 56 13 56 23 0 34 33 21 59 -9
17 -7 20 12 24 49 9 49 9 47 -40z m270 -8 c0 -1 -7 -8 -15 -15 -13 -10 -15 -9
-15 8 0 15 5 20 15 16 8 -4 15 -7 15 -9z m-794 -42 c-10 -10 -19 5 -10 18 6
11 8 11 12 0 2 -7 1 -15 -2 -18z m635 -40 c-12 -20 -14 -14 -5 12 4 9 9 14 11
11 3 -2 0 -13 -6 -23z m-493 -19 c-3 -14 -5 -12 -10 9 -3 19 -2 25 4 19 6 -6
8 -18 6 -28z m759 -21 c9 -16 31 -46 49 -68 17 -22 35 -47 39 -54 14 -25 -47
24 -97 77 -34 37 -43 53 -35 61 17 17 25 14 44 -16z m-827 -58 c7 -24 10 -57
7 -72 -3 -15 -15 -77 -26 -137 -17 -89 -27 -119 -55 -160 -112 -165 -156 -228
-156 -222 0 6 82 195 165 381 61 137 58 117 37 206 -18 75 -18 79 -2 64 10 -9
23 -36 30 -60z m643 13 c-8 -80 6 -121 46 -132 18 -5 37 -19 42 -30 13 -32
111 -418 106 -422 -4 -4 -143 292 -199 425 -31 72 -39 103 -34 129 5 31 30 82
41 82 2 0 1 -24 -2 -52z m-783 27 c8 -9 9 -19 4 -24 -19 -16 -146 -92 -149
-89 -5 5 113 128 123 128 5 0 15 -7 22 -15z m510 -39 c0 -2 -7 -7 -16 -10 -8
-3 -12 -2 -9 4 6 10 25 14 25 6z m-45 -140 l-16 -38 -20 36 c-10 20 -19 44
-19 53 1 10 7 4 15 -15 17 -39 30 -35 41 11 6 24 9 27 11 12 2 -11 -3 -38 -12
-59z m244 -37 l-12 -23 -9 24 c-5 13 -6 30 -3 39 5 13 8 13 21 -1 13 -13 14
-20 3 -39z m-468 1 c4 -19 2 -48 -6 -69 -17 -49 -147 -312 -152 -307 -2 2 19
70 47 152 28 82 55 169 60 194 6 25 12 51 15 58 9 23 29 7 36 -28z m255 -91
c12 -22 10 -54 -11 -225 -14 -109 -27 -208 -29 -219 -2 -11 -4 104 -5 255 -1
300 -5 284 45 189z m33 -42 c0 -18 -4 -50 -9 -72 -7 -34 -8 -28 -7 36 1 42 5
75 10 72 4 -2 7 -19 6 -36z m235 -20 c22 -38 74 -243 64 -253 -2 -2 -27 64
-55 146 -28 83 -47 150 -42 150 4 0 20 -19 33 -43z"/>
<path d="M1525 2750 c4 -30 16 -122 26 -205 15 -122 18 -133 14 -60 -3 50 -7
101 -9 115 -3 14 -10 63 -16 110 -7 47 -14 87 -17 90 -3 3 -2 -20 2 -50z"/>
<path d="M1062 2750 c0 -19 2 -27 5 -17 2 9 2 25 0 35 -3 9 -5 1 -5 -18z"/>
<path d="M992 2745 c0 -16 2 -22 5 -12 2 9 2 23 0 30 -3 6 -5 -1 -5 -18z"/>
<path d="M1073 2620 c0 -25 2 -35 4 -22 2 12 2 32 0 45 -2 12 -4 2 -4 -23z"/>
<path d="M1083 2510 c0 -30 2 -43 4 -27 2 15 2 39 0 55 -2 15 -4 2 -4 -28z"/>
<path d="M1093 2350 c0 -30 2 -43 4 -27 2 15 2 39 0 55 -2 15 -4 2 -4 -28z"/>
</g>
</svg>
