<?xml version="1.0" standalone="no"?>
<!DOCTYPE svg PUBLIC "-//W3C//DTD SVG 20010904//EN"
 "http://www.w3.org/TR/2001/REC-SVG-20010904/DTD/svg10.dtd">
<svg version="1.0" xmlns="http://www.w3.org/2000/svg"
 width="244.000000pt" height="305.000000pt" viewBox="0 0 244.000000 305.000000"
 preserveAspectRatio="xMidYMid meet">
<metadata>
Created by potrace 1.16, written by Peter Selinger 2001-2019
</metadata>
<g transform="translate(0.000000,305.000000) scale(0.100000,-0.100000)"
fill="#000000" stroke="none">
<path d="M938 2404 c2 -348 0 -504 -7 -504 -6 0 -11 4 -11 8 0 4 -14 16 -32
26 l-31 19 6 226 c6 197 21 390 43 534 4 23 4 39 0 36 -14 -13 -46 -305 -51
-475 -3 -98 -7 -215 -10 -259 l-5 -80 51 -38 52 -38 21 20 c26 25 52 27 59 6
5 -10 -4 -16 -29 -21 -36 -7 -54 -28 -54 -66 -1 -21 -2 -21 -17 7 -19 38 -52
64 -79 65 -35 0 -74 -37 -74 -71 0 -27 3 -29 39 -29 32 0 44 -6 70 -35 36 -41
36 -43 15 -74 -12 -16 -15 -37 -12 -72 4 -34 1 -52 -8 -60 -8 -6 -14 -24 -14
-40 0 -22 -5 -29 -19 -29 -10 0 -31 -12 -46 -26 -29 -26 -30 -48 -9 -138 5
-22 4 -28 -7 -24 -41 13 -53 131 -19 183 37 55 18 85 -54 85 -68 0 -77 -35
-45 -172 19 -84 6 -123 -56 -170 -78 -58 -297 -198 -309 -198 -6 0 50 61 124
135 135 136 135 136 173 129 l38 -6 -7 99 c-3 54 -11 103 -16 108 -7 7 -9 -21
-5 -83 l6 -93 -27 6 c-25 5 -44 -11 -201 -170 -96 -96 -172 -177 -169 -180 5
-5 108 31 258 89 19 8 68 26 108 41 61 23 72 30 72 50 0 30 18 42 35 24 12
-12 6 -27 -37 -97 -27 -46 -48 -85 -45 -88 2 -3 43 18 90 45 47 28 92 51 101
51 15 0 32 -53 21 -70 -3 -5 -15 -10 -25 -10 -11 0 -26 -10 -33 -23 -16 -25
-160 -543 -155 -558 3 -8 29 22 105 120 10 13 32 40 49 60 17 20 50 63 74 96
24 32 45 54 47 48 2 -5 -7 -77 -21 -159 -14 -82 -24 -150 -22 -151 1 -1 51 93
110 209 103 199 109 214 107 266 l-2 55 33 -7 c32 -6 88 -51 88 -69 0 -6 -11
-25 -25 -43 -14 -18 -25 -40 -25 -49 0 -24 110 -629 116 -634 2 -2 4 0 4 5 0
6 25 149 55 319 30 171 55 315 55 321 0 6 -11 24 -25 40 -31 36 -31 43 0 76
24 26 76 45 94 33 6 -3 8 -27 4 -53 -5 -46 0 -58 111 -278 63 -126 116 -224
116 -218 0 6 -13 85 -30 175 -16 90 -28 165 -26 167 2 1 61 -69 131 -158 70
-89 129 -159 132 -157 2 3 -8 47 -23 98 -14 52 -30 108 -34 124 -25 98 -73
275 -81 303 -8 23 -21 37 -44 46 -30 13 -33 17 -26 43 4 15 14 29 22 31 8 1
60 -24 117 -57 56 -33 102 -54 102 -47 0 7 -25 51 -55 100 -30 48 -55 92 -55
97 0 20 25 2 28 -20 2 -12 13 -26 25 -30 12 -5 56 -22 97 -39 41 -16 118 -46
170 -65 52 -20 104 -39 114 -43 19 -7 19 -6 3 16 -9 13 -82 93 -163 178 -136
142 -150 153 -176 148 l-29 -6 7 90 c4 58 3 90 -3 90 -6 0 -13 -31 -16 -68 -4
-38 -12 -83 -18 -100 -6 -18 -9 -38 -6 -45 2 -7 79 -66 171 -131 91 -65 165
-121 162 -123 -4 -4 -87 27 -154 58 -24 11 -68 29 -98 40 -63 24 -69 31 -53
61 10 19 8 25 -16 44 -36 29 -45 105 -21 187 20 69 20 97 0 125 -19 28 -72 30
-105 3 l-23 -18 27 -46 c30 -51 34 -91 12 -143 -19 -47 -36 -35 -28 21 8 61
-2 91 -37 112 -19 11 -30 25 -30 40 0 13 -9 32 -20 43 -16 16 -18 28 -13 67 4
38 2 52 -11 62 -23 20 -20 36 16 77 28 31 36 35 65 31 34 -6 37 -2 33 38 -6
57 -78 74 -123 29 -23 -23 -28 -24 -33 -10 -8 22 19 62 56 81 29 15 30 18 30
83 -1 280 -39 697 -79 865 -10 41 -21 60 -21 36 0 -8 -3 -25 -5 -39 -5 -22 -4
-22 4 -5 6 13 10 -150 10 -462 1 -266 -3 -483 -7 -483 -21 0 -32 30 -34 95 -2
70 -2 70 -5 13 -3 -42 -8 -58 -18 -58 -12 0 -15 23 -15 128 0 71 3 178 8 238
l7 109 6 -85 c4 -61 6 -33 6 98 1 100 -2 182 -6 182 -9 0 -31 -350 -33 -520
l-1 -125 -6 90 c-3 50 -4 250 -1 445 3 195 2 366 -2 380 -5 20 -7 21 -7 5 -1
-11 -8 -69 -16 -130 -8 -60 -19 -218 -25 -350 -6 -132 -16 -278 -22 -325 l-12
-85 -12 55 c-6 30 -12 45 -13 32 0 -13 -5 -21 -9 -18 -5 3 -12 65 -15 138 -5
120 -35 313 -56 371 -8 21 -8 21 -14 2 -30 -108 -57 -301 -57 -409 0 -71 -3
-87 -14 -83 -10 4 -16 -8 -22 -46 l-7 -52 -10 63 c-5 34 -13 62 -17 62 -8 0
-30 -109 -30 -151 0 -35 -11 -69 -22 -69 -5 0 -8 198 -6 502 3 513 1 532 -28
243 -8 -80 -5 -91 -44 133 -12 67 -25 124 -29 126 -3 2 -5 -223 -3 -500z m252
-349 c-4 -104 -8 -165 -9 -135 -6 112 3 347 13 328 1 -2 -1 -88 -4 -193z m299
-169 c9 -11 6 -15 -14 -18 -29 -6 -36 -1 -28 18 7 18 27 18 42 0z m-401 -17
c-2 -6 -8 -10 -13 -10 -5 0 -11 4 -13 10 -2 6 4 11 13 11 9 0 15 -5 13 -11z
m327 1 c3 -5 -1 -10 -9 -10 -9 0 -16 5 -16 10 0 6 4 10 9 10 6 0 13 -4 16 -10z
m-295 -131 c-11 -20 -25 -25 -35 -10 -7 12 24 43 36 35 5 -3 5 -13 -1 -25z
m256 17 c15 -12 16 -17 7 -27 -10 -10 -15 -9 -28 1 -16 13 -21 40 -7 40 5 0
17 -6 28 -14z m-357 -47 c8 -23 8 -36 0 -45 -9 -11 -15 -9 -31 11 -15 19 -17
29 -8 45 15 28 26 25 39 -11z m467 5 c4 -17 1 -31 -9 -42 -22 -22 -31 -10 -23
33 8 41 23 46 32 9z m-300 -49 c-1 -29 -16 -35 -16 -7 0 16 8 32 16 32 1 0 1
-11 0 -25z m-31 -32 c5 -12 16 -24 25 -26 9 -2 26 -24 37 -47 l20 -44 12 37
c7 21 24 45 37 54 13 8 24 21 24 28 0 17 31 28 54 19 10 -4 16 -18 16 -39 0
-32 -1 -32 -46 -33 -57 -2 -71 -13 -86 -70 l-11 -44 -18 47 c-23 62 -25 63
-79 67 -38 3 -45 7 -48 26 -2 13 -1 30 2 38 8 22 49 13 61 -13z m-201 -36 c3
-13 27 -57 54 -98 66 -101 65 -99 52 -99 -30 0 -114 124 -126 186 -7 38 10 48
20 11z m131 -88 l18 -34 -22 19 c-21 19 -42 75 -40 111 1 11 7 2 14 -21 7 -22
21 -56 30 -75z m335 37 c-6 -19 -18 -40 -27 -48 -15 -11 -16 -11 -8 7 4 11 15
41 24 67 11 31 17 40 19 27 2 -11 -2 -35 -8 -53z m110 32 c-4 -18 -17 -51 -29
-73 -24 -41 -82 -108 -89 -101 -5 6 26 65 54 102 13 17 24 33 24 36 0 3 7 22
15 42 19 44 36 39 25 -6z m-194 -86 c-17 -33 -36 -50 -36 -32 0 25 37 76 48
65 2 -2 -4 -17 -12 -33z m-180 11 c16 -21 19 -57 4 -48 -18 11 -42 65 -29 65
7 0 18 -8 25 -17z m399 -84 c7 -30 -2 -125 -11 -117 -2 3 -6 39 -8 81 -5 76 6
96 19 36z m-615 -29 c0 -33 -4 -60 -10 -60 -11 0 -14 103 -3 113 12 12 13 8
13 -53z m240 -20 c0 -17 -3 -19 -19 -8 -21 13 -19 28 5 28 8 0 14 -9 14 -20z
m133 -5 c-21 -16 -28 -12 -20 9 4 9 13 13 22 10 14 -6 13 -8 -2 -19z m-280
-84 c-5 -41 -2 -52 16 -70 33 -33 46 -22 46 37 0 28 3 52 8 52 4 0 21 0 37 0
30 0 30 0 10 -20 -23 -23 -17 -48 17 -61 18 -6 23 -15 21 -32 -3 -20 -7 -22
-63 -19 -33 2 -67 5 -75 8 -19 5 -41 98 -33 136 9 46 22 21 16 -31z m422 -25
c-4 -39 -12 -74 -19 -78 -6 -4 -34 -8 -61 -8 -28 0 -56 -5 -61 -10 -8 -8 -15
-6 -23 4 -18 22 -9 50 16 54 12 2 24 9 26 17 8 19 -3 55 -17 56 -6 1 5 5 24 9
42 10 50 1 39 -47 -13 -61 10 -83 46 -43 14 15 17 31 13 70 -5 51 -2 64 14 54
6 -4 7 -35 3 -78z m225 2 c-1 -18 -25 -48 -39 -48 -8 0 -7 9 4 30 16 30 35 40
35 18z m-840 -63 c0 -8 -2 -15 -4 -15 -2 0 -6 7 -10 15 -3 8 -1 15 4 15 6 0
10 -7 10 -15z m154 -20 c3 -8 1 -15 -4 -15 -6 0 -10 7 -10 15 0 8 2 15 4 15 2
0 6 -7 10 -15z m498 -7 c-7 -7 -12 -8 -12 -2 0 14 12 26 19 19 2 -3 -1 -11 -7
-17z m110 -60 c-6 -18 -14 -54 -17 -79 -7 -45 -2 -58 109 -285 64 -130 115
-239 113 -240 -2 -2 -19 18 -39 44 -210 275 -195 250 -209 367 -10 91 0 171
25 210 22 34 31 26 18 -17z m-708 -8 c9 -22 16 -54 16 -70 0 -27 -258 -555
-267 -547 -2 2 6 35 17 73 11 38 39 138 63 223 l43 155 42 14 c49 16 57 34 56
130 0 34 3 62 7 62 4 0 14 -18 23 -40z m913 -28 c23 -37 39 -69 37 -71 -9 -9
-127 117 -120 128 16 25 43 7 83 -57z m-1030 22 c3 -9 -117 -94 -134 -94 -2 0
17 25 44 55 46 52 81 67 90 39z m457 -154 c3 0 12 12 20 28 8 15 15 21 16 14
0 -14 -28 -72 -35 -72 -8 0 -35 59 -35 77 1 11 6 5 15 -14 8 -18 16 -33 19
-33z m281 -3 c15 -12 16 -19 7 -46 -10 -29 -7 -59 8 -71 25 -21 46 -81 66
-193 13 -71 22 -132 20 -134 -2 -2 -11 17 -19 44 -9 26 -41 125 -71 219 -31
94 -56 176 -56 183 0 15 22 14 45 -2z m-483 -40 c6 -27 3 -48 -11 -79 -37 -86
-143 -299 -147 -295 -3 2 20 82 51 178 30 96 55 177 55 181 0 4 5 19 10 33 13
35 33 27 42 -18z m133 -87 c-4 -6 -1 -60 5 -121 7 -61 10 -113 7 -115 -2 -3
-12 45 -22 106 -14 88 -15 113 -5 125 14 17 24 20 15 5z"/>
<path d="M912 2790 c0 -14 2 -19 5 -12 2 6 2 18 0 25 -3 6 -5 1 -5 -13z"/>
<path d="M1501 2794 c0 -11 3 -14 6 -6 3 7 2 16 -1 19 -3 4 -6 -2 -5 -13z"/>
<path d="M1441 2764 c0 -11 3 -14 6 -6 3 7 2 16 -1 19 -3 4 -6 -2 -5 -13z"/>
<path d="M1062 2730 c0 -14 2 -19 5 -12 2 6 2 18 0 25 -3 6 -5 1 -5 -13z"/>
<path d="M1491 2734 c0 -11 3 -14 6 -6 3 7 2 16 -1 19 -3 4 -6 -2 -5 -13z"/>
<path d="M1453 2670 c0 -25 2 -35 4 -22 2 12 2 32 0 45 -2 12 -4 2 -4 -23z"/>
<path d="M1483 2665 c0 -22 2 -30 4 -17 2 12 2 30 0 40 -3 9 -5 -1 -4 -23z"/>
<path d="M1073 2655 c0 -22 2 -30 4 -17 2 12 2 30 0 40 -3 9 -5 -1 -4 -23z"/>
<path d="M1082 2515 c0 -16 2 -22 5 -12 2 9 2 23 0 30 -3 6 -5 -1 -5 -18z"/>
<path d="M1094 2310 c0 -52 1 -74 3 -47 2 26 2 68 0 95 -2 26 -3 4 -3 -48z"/>
<path d="M1092 2170 c0 -19 2 -27 5 -17 2 9 2 25 0 35 -3 9 -5 1 -5 -18z"/>
</g>
</svg>
