<?xml version="1.0" standalone="no"?>
<!DOCTYPE svg PUBLIC "-//W3C//DTD SVG 20010904//EN"
 "http://www.w3.org/TR/2001/REC-SVG-20010904/DTD/svg10.dtd">
<svg version="1.0" xmlns="http://www.w3.org/2000/svg"
 width="244.000000pt" height="305.000000pt" viewBox="0 0 244.000000 305.000000"
 preserveAspectRatio="xMidYMid meet">
<metadata>
Created by potrace 1.16, written by Peter Selinger 2001-2019
</metadata>
<g transform="translate(0.000000,305.000000) scale(0.100000,-0.100000)"
fill="#000000" stroke="none">
<path d="M926 2893 c-12 -40 -48 -267 -61 -392 -20 -189 -32 -581 -17 -581 6
0 27 -13 45 -30 19 -16 38 -30 42 -30 4 0 21 11 37 25 24 20 33 23 44 14 21
-17 17 -26 -16 -33 -19 -3 -34 -14 -39 -28 -5 -13 -13 -34 -19 -48 l-9 -25
-16 37 c-20 47 -58 72 -94 63 -40 -10 -63 -34 -63 -67 0 -26 3 -28 41 -28 67
0 125 -76 83 -111 -12 -10 -15 -26 -10 -78 3 -36 2 -84 -3 -106 -5 -22 -9 -35
-10 -29 -2 16 -58 4 -76 -16 -17 -19 -17 -65 0 -147 10 -45 -8 -42 -30 4 -31
65 -31 117 -1 173 l26 49 -22 15 c-31 22 -91 21 -111 -2 -21 -23 -21 -54 -2
-118 8 -27 15 -75 15 -107 0 -49 -4 -62 -26 -84 -21 -21 -25 -32 -19 -59 3
-19 5 -34 3 -34 -2 0 -75 -29 -163 -64 -88 -35 -162 -62 -165 -59 -3 2 2 8 10
13 8 5 67 45 130 90 63 44 136 94 163 111 26 17 47 36 47 42 0 7 -7 44 -15 82
-8 39 -15 87 -15 108 0 26 -4 36 -11 31 -8 -5 -10 -34 -5 -96 l6 -90 -28 7
c-26 5 -42 -8 -205 -172 -97 -97 -175 -178 -174 -180 4 -3 106 32 267 92 69
26 137 51 152 57 20 7 28 17 28 33 0 13 4 26 9 29 14 9 61 -12 61 -26 -1 -7
-21 -47 -45 -88 -24 -41 -42 -76 -40 -78 2 -3 40 16 83 42 43 25 84 46 90 46
7 0 12 -14 12 -31 0 -24 -6 -32 -29 -40 -23 -8 -33 -21 -45 -57 -35 -110 -147
-524 -143 -528 4 -4 195 230 260 319 16 22 36 41 46 44 24 6 54 86 46 123 -4
19 -2 36 5 45 15 18 60 20 60 4 0 -13 -106 -352 -120 -384 -13 -31 -12 0 5 95
16 90 18 117 10 108 -7 -6 -54 -312 -50 -317 2 -2 50 88 105 200 94 188 101
207 98 253 -4 61 11 68 62 34 54 -37 59 -53 27 -86 -15 -15 -27 -38 -27 -49 0
-20 34 -218 90 -517 11 -60 20 -114 20 -119 0 -37 15 32 59 273 70 385 68 370
37 407 -14 17 -26 35 -26 40 0 19 58 64 86 66 29 2 29 2 26 -48 -3 -46 6 -68
107 -275 60 -124 110 -221 110 -217 1 5 -13 88 -30 184 -16 96 -29 179 -27
184 2 5 21 -14 43 -43 38 -51 152 -192 221 -273 l34 -40 -6 30 c-12 56 -132
490 -143 518 -6 16 -18 27 -30 27 -26 0 -44 25 -36 50 8 26 24 25 69 -5 49
-33 147 -87 151 -83 2 2 -9 22 -25 45 -16 23 -43 68 -60 99 -26 45 -29 58 -19
65 22 14 44 5 47 -19 3 -16 15 -29 40 -39 88 -37 368 -133 379 -131 7 2 -63
79 -155 171 -150 152 -170 168 -194 163 l-28 -5 6 92 c5 62 3 89 -4 82 -5 -5
-13 -54 -17 -108 l-7 -98 40 7 40 6 125 -128 c69 -71 122 -130 117 -132 -5 -2
-83 45 -172 105 -149 100 -164 112 -178 151 -12 35 -12 51 -1 99 24 112 25
132 6 153 -23 25 -75 26 -106 1 l-23 -18 28 -53 c23 -44 27 -61 21 -97 -4 -25
-17 -55 -31 -71 l-25 -27 6 35 c21 122 13 152 -44 163 -25 5 -31 12 -31 31 0
14 -5 28 -11 32 -8 4 -9 25 -5 61 5 45 3 59 -14 80 -19 24 -19 27 -2 55 24 43
56 62 92 54 20 -4 30 -1 31 7 5 52 -20 87 -63 87 -43 0 -68 -17 -85 -58 l-16
-37 -13 47 c-15 49 -37 65 -74 53 -27 -8 -27 20 -1 35 16 8 26 5 49 -15 17
-14 33 -25 37 -25 3 0 25 15 48 32 23 18 43 33 44 33 0 0 -3 116 -8 258 -8
234 -31 494 -46 507 -3 3 -3 -17 1 -45 19 -140 35 -378 36 -530 l0 -170 -35
-22 c-19 -13 -37 -23 -40 -23 -3 0 -5 214 -5 476 0 261 4 473 8 470 5 -3 6 9
4 25 -2 17 -8 27 -12 22 -7 -7 -38 -175 -56 -306 -3 -26 -8 -46 -10 -45 -1 2
-10 75 -19 163 -9 88 -19 170 -23 183 -4 12 -6 -206 -5 -485 2 -473 -4 -580
-22 -391 -3 43 -11 80 -16 84 -5 3 -10 33 -11 67 -1 64 -2 59 -14 -100 -7 -95
-24 -112 -24 -24 0 36 -5 61 -12 63 -7 3 -14 49 -20 124 -8 116 -43 335 -58
363 -6 11 -9 10 -13 -5 -19 -64 -49 -255 -54 -349 -3 -67 -11 -119 -19 -132
-8 -12 -14 -42 -14 -67 0 -25 -4 -47 -9 -50 -11 -7 -17 71 -31 384 -10 217
-35 488 -45 499 -3 3 -5 -200 -5 -450 0 -249 0 -470 0 -489 0 -21 -4 -30 -9
-25 -5 6 -13 151 -17 323 -4 172 -10 308 -14 303 -3 -6 -12 37 -20 96 -7 60
-15 100 -18 90 -2 -9 2 -50 8 -90 6 -39 15 -151 20 -247 5 -96 12 -231 16
-300 4 -69 3 -122 -1 -118 -4 4 -21 -9 -37 -28 -19 -21 -35 -31 -40 -26 -5 5
-8 215 -6 506 2 273 2 496 1 496 -1 0 -4 -8 -7 -17z m362 -748 c5 -94 6 -199
2 -235 -6 -53 -7 -38 -8 81 -1 80 -5 188 -8 240 -4 52 -4 92 -1 89 3 -3 10
-82 15 -175z m-198 -280 c0 -9 -6 -12 -15 -9 -8 4 -12 10 -9 15 8 14 24 10 24
-6z m314 -6 c-3 -5 -10 -7 -15 -3 -5 3 -7 10 -3 15 3 5 10 7 15 3 5 -3 7 -10
3 -15z m-28 -136 c-7 -16 -9 -16 -21 7 -16 30 -8 48 13 27 9 -10 12 -23 8 -34z
m-256 23 c0 -16 -18 -31 -27 -22 -8 8 5 36 17 36 5 0 10 -6 10 -14z m-100 -17
c13 -23 3 -132 -11 -123 -5 3 -9 16 -9 28 0 13 -7 29 -15 36 -18 15 -19 34 -5
61 14 25 27 24 40 -2z m470 -3 c12 -24 11 -34 -9 -66 -5 -8 -13 -24 -17 -35
-5 -16 -9 -10 -16 27 -8 46 2 98 20 98 5 0 14 -11 22 -24z m-190 -74 c0 -13
-4 -20 -10 -17 -5 3 -10 21 -10 38 0 24 3 28 10 17 5 -8 10 -25 10 -38z m-140
-27 c0 -7 9 -15 20 -18 11 -3 27 -21 35 -41 9 -20 17 -36 20 -36 2 0 14 18 25
40 11 22 26 40 33 40 6 0 20 14 29 30 16 27 20 29 38 18 20 -13 26 -43 12 -64
-4 -6 -24 -11 -46 -12 -49 -2 -61 -12 -77 -70 l-13 -47 -13 44 c-17 59 -29 71
-72 71 -57 0 -81 39 -45 75 15 15 18 15 35 -1 11 -9 19 -23 19 -29z m-205 -35
c3 -16 29 -60 57 -97 62 -85 72 -103 57 -103 -33 0 -139 156 -139 206 0 34 17
30 25 -6z m445 -75 c-12 -25 -26 -45 -32 -45 -5 0 -1 15 10 34 11 18 24 53 28
77 8 43 9 43 12 11 2 -20 -5 -51 -18 -77z m140 86 c0 -33 -48 -125 -90 -170
-22 -24 -43 -41 -46 -38 -6 6 19 58 38 79 27 27 67 94 73 121 8 31 25 37 25 8z
m-472 -28 c2 -14 12 -43 23 -64 11 -22 15 -39 9 -39 -15 0 -50 79 -50 114 0
35 13 27 18 -11z m95 -93 c7 -29 -8 -25 -21 5 -16 34 -15 40 2 26 8 -6 16 -21
19 -31z m177 35 c0 -12 -24 -55 -32 -55 -12 0 -10 17 4 40 12 18 28 27 28 15z
m-451 -163 c0 -13 -3 -20 -9 -17 -5 3 -9 27 -9 53 1 42 2 44 9 17 4 -16 8 -40
9 -53z m61 33 c0 -25 -4 -45 -10 -45 -5 0 -10 20 -10 45 0 25 5 45 10 45 6 0
10 -20 10 -45z m590 -1 c0 -27 -4 -43 -10 -39 -5 3 -10 24 -10 46 0 21 5 39
10 39 6 0 10 -21 10 -46z m-361 -20 c3 -16 1 -17 -13 -5 -19 16 -21 34 -3 29
6 -3 14 -13 16 -24z m135 17 c3 -5 -1 -14 -9 -21 -13 -10 -15 -9 -15 9 0 21
14 28 24 12z m133 -118 c-3 -36 -11 -71 -18 -78 -8 -7 -43 -15 -79 -17 -61 -3
-65 -2 -68 19 -3 17 3 26 21 32 14 5 27 16 29 23 8 22 -3 48 -21 49 -9 1 0 5
19 8 19 4 38 5 43 3 4 -2 5 -25 1 -51 -7 -56 7 -73 37 -45 15 13 19 30 19 76
0 41 3 57 11 52 8 -4 10 -29 6 -71z m-406 8 c-2 -41 1 -51 20 -65 32 -22 42
-10 35 45 -7 54 -3 58 39 48 17 -3 25 -7 19 -8 -14 -1 -25 -37 -17 -56 2 -8
14 -15 26 -17 16 -2 22 -10 22 -28 0 -19 -5 -24 -20 -22 -11 2 -42 3 -68 2
-45 -1 -48 1 -62 34 -15 36 -20 107 -8 119 12 13 17 -4 14 -52z m-211 -56 c7
-14 10 -28 7 -32 -8 -8 -36 26 -37 45 0 20 16 14 30 -13z m652 -47 c-7 -7 -12
-8 -12 -2 0 14 12 26 19 19 2 -3 -1 -11 -7 -17z m-477 2 c3 -5 1 -10 -4 -10
-6 0 -11 5 -11 10 0 6 2 10 4 10 3 0 8 -4 11 -10z m599 -103 c10 -86 19 -102
63 -115 l39 -12 57 -202 c32 -112 57 -210 57 -218 0 -8 -56 93 -125 225 -113
218 -124 245 -125 293 0 46 15 101 25 90 1 -1 6 -29 9 -61z m-849 43 c3 -5
-14 -31 -40 -57 -47 -50 -50 -38 -8 30 24 38 37 45 48 27z m1015 -60 c29 -33
48 -60 44 -60 -7 0 -104 62 -128 82 -9 7 10 38 24 38 5 0 31 -27 60 -60z
m-875 33 c4 -10 9 -58 11 -107 3 -49 7 -92 10 -97 9 -16 -24 -75 -100 -174
-42 -55 -95 -124 -117 -153 -23 -30 -43 -52 -45 -49 -3 2 40 95 95 205 135
271 133 265 125 334 -6 57 5 79 21 41z m360 -140 c-16 -36 -17 -37 -31 -19 -8
11 -14 27 -14 35 0 11 4 10 14 -5 14 -18 15 -17 27 16 7 19 14 29 16 23 2 -6
-3 -28 -12 -50z m272 -214 c64 -210 76 -263 43 -194 -89 184 -133 286 -137
317 -7 46 4 91 20 85 7 -2 40 -96 74 -208z m-198 41 c0 -31 -46 -261 -48 -240
0 8 6 71 14 140 13 109 13 127 0 147 -24 36 -17 41 10 8 14 -16 25 -41 24 -55z"/>
<path d="M952 2815 c0 -11 4 -33 8 -50 7 -27 8 -27 8 -5 0 14 -4 36 -8 50 -6
20 -8 21 -8 5z"/>
<path d="M1402 2810 c0 -14 2 -19 5 -12 2 6 2 18 0 25 -3 6 -5 1 -5 -13z"/>
<path d="M1562 2730 c0 -19 2 -27 5 -17 2 9 2 25 0 35 -3 9 -5 1 -5 -18z"/>
<path d="M1022 2645 c0 -16 2 -22 5 -12 2 9 2 23 0 30 -3 6 -5 -1 -5 -18z"/>
<path d="M1371 2444 c0 -11 3 -14 6 -6 3 7 2 16 -1 19 -3 4 -6 -2 -5 -13z"/>
</g>
</svg>
