<?xml version="1.0" standalone="no"?>
<!DOCTYPE svg PUBLIC "-//W3C//DTD SVG 20010904//EN"
 "http://www.w3.org/TR/2001/REC-SVG-20010904/DTD/svg10.dtd">
<svg version="1.0" xmlns="http://www.w3.org/2000/svg"
 width="244.000000pt" height="305.000000pt" viewBox="0 0 244.000000 305.000000"
 preserveAspectRatio="xMidYMid meet">
<metadata>
Created by potrace 1.16, written by Peter Selinger 2001-2019
</metadata>
<g transform="translate(0.000000,305.000000) scale(0.100000,-0.100000)"
fill="#000000" stroke="none">
<path d="M1122 2900 c0 -14 2 -19 5 -12 2 6 2 18 0 25 -3 6 -5 1 -5 -13z"/>
<path d="M915 2898 c-32 -90 -74 -425 -86 -690 -12 -245 -9 -298 13 -298 7 0
27 -14 45 -32 l33 -32 27 26 c16 14 38 31 51 37 21 11 22 18 22 109 -1 231
-26 537 -60 735 -16 90 -24 79 -11 -14 35 -235 43 -325 50 -538 4 -130 6 -240
4 -246 -3 -10 -68 -55 -78 -55 -3 0 -5 227 -3 505 2 278 2 505 0 505 -1 0 -5
-6 -7 -12z"/>
<path d="M1527 2823 c-42 -201 -77 -569 -77 -825 0 -68 2 -77 20 -83 11 -4 34
-18 50 -32 l30 -25 30 25 c16 14 39 28 50 32 18 6 20 15 20 108 0 224 -27 555
-55 687 l-14 65 5 -55 c3 -30 12 -102 19 -159 8 -57 19 -214 26 -349 l12 -245
-39 -33 c-21 -18 -42 -33 -46 -34 -5 0 -8 215 -8 478 0 311 4 472 10 462 8
-13 10 -12 10 3 0 9 -4 17 -9 17 -5 0 -7 9 -4 20 3 11 1 20 -4 20 -5 0 -17
-35 -26 -77z"/>
<path d="M1342 2870 c0 -14 2 -19 5 -12 2 6 2 18 0 25 -3 6 -5 1 -5 -13z"/>
<path d="M1108 2690 c-5 -74 -11 -232 -14 -350 -3 -132 -11 -243 -21 -288 -9
-41 -13 -100 -11 -133 4 -58 4 -60 -18 -55 -51 13 -93 -21 -116 -94 -3 -10
-11 -2 -21 22 -19 44 -57 71 -100 70 -37 -1 -68 -35 -65 -72 3 -22 7 -25 36
-22 40 4 76 -18 98 -59 14 -28 14 -32 0 -48 -34 -38 -5 -153 60 -238 13 -17
24 -34 24 -38 0 -3 -16 -27 -35 -52 -42 -54 -44 -84 -10 -116 17 -15 24 -29
19 -41 -6 -16 -8 -16 -26 1 -32 29 -47 67 -46 114 1 65 -15 140 -33 152 -24
15 -67 0 -75 -26 -14 -43 -4 -89 32 -155 81 -148 101 -193 96 -217 -8 -42 -19
-37 -26 10 -7 54 -25 92 -78 163 -74 100 -85 159 -43 242 l25 49 -22 15 c-32
23 -91 20 -113 -4 -22 -24 -22 -60 -1 -131 9 -29 16 -73 16 -97 0 -37 -5 -49
-32 -74 -29 -27 -31 -32 -21 -59 11 -28 10 -30 -25 -45 -92 -39 -297 -114
-303 -112 -4 2 76 59 178 127 162 108 184 126 178 145 -3 11 -10 46 -16 76
-26 135 -28 138 -26 38 l3 -96 -31 5 c-28 4 -44 -9 -208 -168 -98 -94 -176
-174 -173 -176 4 -4 105 30 346 115 97 34 105 39 108 65 3 26 6 28 30 22 15
-3 45 -16 66 -28 72 -40 106 -147 47 -147 -10 0 -23 -6 -28 -12 -11 -13 -41
-110 -108 -343 -21 -71 -44 -150 -52 -174 -7 -24 -12 -45 -10 -47 2 -2 62 64
133 148 71 83 148 174 171 200 70 80 77 93 64 129 -19 56 -17 59 54 59 l65 0
-6 -62 c-3 -35 -14 -149 -25 -254 -10 -105 -19 -197 -18 -205 0 -13 32 82 90
271 13 44 24 67 27 55 10 -59 104 -545 110 -574 8 -37 14 -10 92 399 18 91 35
169 40 173 4 5 17 -27 29 -70 33 -120 82 -272 76 -234 -3 18 -5 49 -5 68 0 19
-4 32 -9 28 -6 -3 -8 18 -6 52 3 41 2 47 -3 23 -6 -29 -11 -14 -31 100 -13 74
-28 153 -33 174 -7 30 -6 41 4 47 23 15 27 10 31 -33 l4 -43 1 43 2 42 66 0
67 0 -6 -33 c-3 -17 -8 -39 -12 -48 -4 -12 31 -61 122 -168 70 -84 156 -186
191 -227 34 -41 62 -69 62 -62 0 7 -9 45 -21 83 -11 39 -45 155 -74 258 -30
103 -59 196 -65 206 -5 10 -23 24 -40 29 -62 22 -22 108 72 155 61 31 78 29
78 -6 0 -25 -15 -18 319 -136 79 -28 146 -49 148 -47 2 2 -78 82 -178 177
-166 159 -184 174 -215 172 l-33 -2 6 92 c4 62 2 89 -5 82 -5 -5 -13 -54 -17
-107 l-7 -98 44 6 43 6 138 -132 c75 -73 137 -136 137 -141 0 -5 -53 24 -117
63 -193 117 -250 155 -267 179 -20 29 -20 109 -1 164 32 87 10 135 -60 135
-39 0 -75 -18 -75 -38 0 -4 11 -27 25 -51 14 -23 25 -56 25 -71 0 -41 -31
-107 -79 -168 -51 -64 -61 -90 -60 -150 2 -79 10 -95 58 -113 39 -14 46 -22
61 -65 15 -41 99 -324 116 -389 8 -29 -60 88 -146 250 -114 216 -123 237 -128
287 -4 44 1 57 62 167 77 137 90 193 56 229 -23 24 -62 29 -78 10 -10 -14 -23
-102 -22 -158 0 -22 -10 -51 -27 -78 -28 -42 -47 -53 -56 -29 -3 6 -6 2 -6
-10 -1 -29 -15 -29 -35 -1 -22 31 -20 36 8 31 35 -7 86 31 86 63 0 27 -26 84
-38 84 -4 0 -13 10 -20 21 -12 19 -10 27 23 74 64 94 95 208 60 221 -25 10
-17 53 14 85 23 23 39 29 70 29 37 0 41 2 41 25 0 32 -41 75 -72 75 -34 0 -68
-27 -88 -72 l-17 -39 -24 48 c-19 37 -31 49 -57 56 -20 4 -40 3 -52 -3 -28
-15 -49 -1 -25 16 16 12 17 24 12 103 -3 49 -10 99 -16 110 -6 11 -12 57 -13
103 -1 73 -2 67 -8 -47 -5 -71 -13 -141 -18 -155 -8 -18 -11 90 -13 390 -2
425 -7 426 -25 5 -7 -168 -8 -175 -16 -105 -11 108 -35 239 -51 285 l-14 40
-16 -70 c-27 -117 -47 -244 -49 -309 -2 -54 -2 -51 -8 29 -5 70 -7 44 -8 -112
-1 -122 -6 -204 -12 -208 -5 -3 -11 -5 -12 -3 -1 2 -4 203 -7 448 -5 358 -7
419 -13 310z m174 -535 c0 -82 -3 -163 -6 -180 -14 -74 -18 -253 -7 -288 7
-21 17 -35 22 -32 5 4 9 -1 9 -9 0 -9 -3 -16 -7 -17 -5 0 -18 -2 -30 -3 l-23
-3 0 387 c0 213 3 403 7 421 13 63 35 -111 35 -276z m15 -127 c-3 -7 -5 -2 -5
12 0 14 2 19 5 13 2 -7 2 -19 0 -25z m-144 -148 c-3 -11 -7 -20 -9 -20 -2 0
-4 9 -4 20 0 11 4 20 9 20 5 0 7 -9 4 -20z m174 -12 c-3 -8 -6 -5 -6 6 -1 11
2 17 5 13 3 -3 4 -12 1 -19z m-31 -6 c-11 -35 -14 -87 -5 -98 5 -6 6 -19 3
-29 -9 -24 -24 0 -24 40 0 33 18 105 26 105 3 0 3 -8 0 -18z m-218 -102 c15 0
22 -6 22 -20 0 -11 -4 -20 -10 -20 -5 0 -10 5 -10 10 0 15 -30 12 -36 -4 -8
-20 23 -76 41 -76 10 0 15 -11 15 -33 0 -39 -39 -83 -65 -73 -17 6 -45 64 -45
94 0 11 -7 25 -15 32 -22 18 -18 43 10 75 19 19 32 25 48 21 12 -3 32 -6 45
-6z m409 -12 c26 -25 30 -60 8 -78 -8 -7 -15 -24 -15 -39 0 -29 -34 -91 -50
-91 -5 0 -21 10 -35 22 -31 27 -35 83 -7 93 19 5 42 44 42 70 0 17 -26 20 -35
5 -9 -15 -25 -12 -25 5 0 36 83 45 117 13z m-340 -70 c-3 -8 -6 -5 -6 6 -1 11
2 17 5 13 3 -3 4 -12 1 -19z m180 0 c-3 -8 -6 -5 -6 6 -1 11 2 17 5 13 3 -3 4
-12 1 -19z m-144 -71 c21 -8 22 -23 1 -31 -23 -9 -34 2 -34 32 0 15 4 22 8 16
4 -6 15 -13 25 -17z m-234 -32 c11 -25 29 -58 41 -72 20 -25 27 -63 13 -63
-17 0 -75 101 -80 139 -3 22 -3 41 0 41 3 0 15 -20 26 -45z m178 13 c-3 -7 -5
-2 -5 12 0 14 2 19 5 13 2 -7 2 -19 0 -25z m185 -10 c-12 -12 -42 -4 -42 12 0
6 10 14 23 19 16 6 23 5 25 -6 2 -8 -1 -20 -6 -25z m35 20 c-3 -8 -6 -5 -6 6
-1 11 2 17 5 13 3 -3 4 -12 1 -19z m213 5 c0 -46 -88 -192 -91 -152 -1 8 -5 3
-9 -11 l-8 -25 -1 24 c-1 13 14 44 32 70 19 25 39 61 47 79 13 35 30 43 30 15z
m-463 -71 c6 -4 14 -25 18 -47 l6 -40 -30 33 c-42 44 -38 82 6 54z m144 -31
c-4 -33 -5 -34 -12 -11 -11 38 -10 47 4 47 9 0 11 -11 8 -36z m163 17 c-7 -27
-33 -58 -46 -58 -13 0 1 63 16 72 23 16 38 9 30 -14z m-239 -72 c8 -25 10 -46
6 -46 -8 0 -31 67 -31 90 0 23 11 4 25 -44z m155 -1 c-7 -25 -17 -48 -21 -51
-13 -8 -11 6 7 60 20 59 31 52 14 -9z m-263 -47 c-3 -7 -5 -2 -5 12 0 14 2 19
5 13 2 -7 2 -19 0 -25z m355 0 c-9 -9 -12 -7 -12 12 0 19 3 21 12 12 9 -9 9
-15 0 -24z m-282 -13 c7 -9 10 -18 7 -21 -10 -11 -37 5 -37 21 0 19 14 19 30
0z m240 0 c0 -16 -27 -32 -37 -21 -7 7 16 36 28 36 5 0 9 -7 9 -15z m-353
-107 c-2 -13 -4 -3 -4 22 0 25 2 35 4 23 2 -13 2 -33 0 -45z m463 32 c0 -5 -5
-12 -10 -15 -6 -4 -8 -21 -4 -41 4 -20 2 -34 -4 -34 -11 0 -22 47 -22 92 0 26
2 28 20 18 11 -6 20 -15 20 -20z m-401 -63 c14 -66 10 -86 -7 -30 -18 65 -25
109 -15 98 6 -5 15 -36 22 -68z m92 50 c-13 -13 -26 -3 -16 12 3 6 11 8 17 5
6 -4 6 -10 -1 -17z m147 4 c3 -8 -1 -12 -9 -9 -7 2 -15 10 -17 17 -3 8 1 12 9
9 7 -2 15 -10 17 -17z m82 -57 c-18 -74 -24 -61 -9 17 7 35 15 57 17 50 3 -8
-1 -38 -8 -67z m-285 17 c1 -47 23 -82 37 -57 12 21 24 20 32 -1 5 -11 -1 -23
-16 -35 -13 -10 -26 -18 -29 -18 -17 0 -46 120 -34 139 9 16 10 14 10 -28z
m248 19 c3 -11 1 -20 -4 -20 -5 0 -9 9 -9 20 0 11 2 20 4 20 2 0 6 -9 9 -20z
m-346 -52 c-3 -8 -6 -5 -6 6 -1 11 2 17 5 13 3 -3 4 -12 1 -19z m339 -20 c-11
-55 -19 -63 -50 -43 -27 18 -34 39 -16 50 6 4 18 1 26 -6 13 -10 17 -10 25 2
5 8 9 20 9 28 0 8 3 12 6 8 4 -3 4 -21 0 -39z m-356 -38 c0 -11 -7 -20 -15
-20 -18 0 -19 12 -3 28 16 16 18 15 18 -8z m367 -82 c-3 -7 -5 -2 -5 12 0 14
2 19 5 13 2 -7 2 -19 0 -25z m-583 -394 c-66 -80 -127 -155 -136 -167 -32 -40
-19 -5 48 127 103 203 135 259 163 289 l26 29 9 -66 8 -66 -118 -146z m466
240 c0 -7 -4 -16 -10 -19 -5 -3 -10 -4 -10 -1 0 2 -2 11 -5 19 -4 8 0 14 10
14 8 0 15 -6 15 -13z m-139 -113 c-40 -154 -85 -311 -88 -308 -2 2 6 51 17
108 11 57 27 145 36 194 22 120 25 127 37 86 8 -24 7 -46 -2 -80z m59 49 c0
-4 -9 -18 -20 -31 l-19 -24 -1 49 c0 48 0 49 20 31 11 -10 20 -21 20 -25z
m170 -7 c0 -45 0 -46 -20 -28 -11 10 -20 23 -20 28 0 10 29 47 37 47 1 0 3
-21 3 -47z m-69 -88 l8 -50 -4 50 c-2 28 -7 61 -11 75 l-7 25 27 -25 c54 -49
59 -70 38 -163 -11 -45 -30 -138 -43 -206 -17 -90 -25 -118 -30 -100 -12 42
-9 498 3 469 5 -14 14 -47 19 -75z"/>
<path d="M1254 2220 c0 -69 1 -97 3 -62 2 34 2 90 0 125 -2 34 -3 6 -3 -63z"/>
<path d="M1263 635 c0 -33 2 -45 4 -27 2 18 2 45 0 60 -2 15 -4 0 -4 -33z"/>
<path d="M1253 480 c0 -36 2 -50 4 -32 2 17 2 47 0 65 -2 17 -4 3 -4 -33z"/>
<path d="M1572 2800 c0 -14 2 -19 5 -12 2 6 2 18 0 25 -3 6 -5 1 -5 -13z"/>
<path d="M1352 2740 c0 -19 2 -27 5 -17 2 9 2 25 0 35 -3 9 -5 1 -5 -18z"/>
<path d="M1143 2580 c0 -25 2 -35 4 -22 2 12 2 32 0 45 -2 12 -4 2 -4 -23z"/>
<path d="M1363 2540 c0 -25 2 -35 4 -22 2 12 2 32 0 45 -2 12 -4 2 -4 -23z"/>
<path d="M1423 805 c0 -27 2 -38 4 -22 2 15 2 37 0 50 -2 12 -4 0 -4 -28z"/>
<path d="M1433 705 c0 -22 2 -30 4 -17 2 12 2 30 0 40 -3 9 -5 -1 -4 -23z"/>
</g>
</svg>
