<?xml version="1.0" standalone="no"?>
<!DOCTYPE svg PUBLIC "-//W3C//DTD SVG 20010904//EN"
 "http://www.w3.org/TR/2001/REC-SVG-20010904/DTD/svg10.dtd">
<svg version="1.0" xmlns="http://www.w3.org/2000/svg"
 width="244.000000pt" height="305.000000pt" viewBox="0 0 244.000000 305.000000"
 preserveAspectRatio="xMidYMid meet">
<metadata>
Created by potrace 1.16, written by Peter Selinger 2001-2019
</metadata>
<g transform="translate(0.000000,305.000000) scale(0.100000,-0.100000)"
fill="#000000" stroke="none">
<path d="M897 2904 c-3 -6 -3 -22 0 -35 8 -28 16 -937 8 -957 -3 -9 -16 -5
-45 14 -45 30 -44 25 -41 194 3 149 20 385 37 495 8 55 17 120 19 145 4 40 3
38 -9 -15 -35 -149 -66 -489 -66 -730 0 -85 2 -94 20 -100 11 -4 34 -18 51
-32 21 -18 35 -24 44 -17 6 5 31 22 54 37 l42 28 -6 187 c-7 246 -20 396 -50
567 -28 160 -48 235 -58 219z"/>
<path d="M1300 2825 c-1 -44 -3 -179 -2 -300 0 -143 -3 -197 -7 -155 -4 36
-15 90 -24 120 -9 30 -20 69 -25 85 -10 33 -11 31 -30 -50 -25 -104 -27 -101
-32 55 l-6 155 -2 -215 c-1 -118 -7 -289 -13 -380 -5 -91 -10 -191 -10 -223 1
-66 -14 -68 -23 -4 -27 183 -38 218 -55 173 -18 -45 -27 -206 -12 -206 7 0 23
-11 36 -25 29 -28 34 -89 11 -121 -13 -16 -18 -17 -35 -6 -43 25 -54 5 -26
-48 19 -37 38 -38 71 -5 14 14 27 25 29 25 3 0 5 -27 5 -60 l0 -60 -33 0 c-49
0 -77 -32 -37 -43 15 -4 20 -14 20 -36 0 -17 -4 -31 -8 -31 -10 0 -73 66 -96
100 -9 13 -16 39 -16 57 0 22 -6 36 -20 43 -27 14 -25 32 6 69 22 27 32 31 75
31 43 0 49 3 49 21 0 11 -14 34 -30 51 -26 25 -36 29 -62 24 -40 -8 -58 -23
-75 -63 -7 -18 -15 -33 -17 -33 -3 0 -15 18 -27 40 -41 72 -134 77 -158 8 -16
-46 -15 -48 35 -48 40 0 51 -5 80 -36 39 -41 42 -54 13 -79 -16 -16 -19 -26
-13 -60 8 -49 41 -117 83 -169 34 -42 34 -41 -16 -96 -12 -14 -25 -39 -29 -56
-5 -26 -1 -35 26 -57 35 -30 71 -35 89 -13 9 11 9 20 2 35 -13 23 -15 88 -3
94 4 2 25 -1 47 -7 37 -11 40 -15 39 -47 -1 -18 0 -28 3 -21 3 6 9 10 14 6 5
-3 9 5 9 17 0 12 3 20 6 16 3 -3 1 -30 -6 -61 -10 -48 -14 -55 -33 -54 -13 1
-44 -8 -70 -21 -59 -29 -82 -21 -127 41 -24 33 -30 50 -27 73 7 38 -13 158
-27 167 -21 14 -63 8 -81 -12 -32 -35 -16 -102 47 -205 115 -187 115 -182 -7
-396 -49 -85 -113 -198 -143 -252 -30 -54 -56 -97 -58 -94 -4 3 48 174 108
351 32 98 34 100 73 113 55 18 65 36 65 113 0 69 -7 84 -91 191 -54 70 -63
146 -24 203 30 44 30 48 5 71 -25 23 -95 22 -121 -1 -24 -22 -24 -50 2 -136
25 -80 18 -128 -23 -164 -37 -32 -368 -227 -375 -221 -3 4 81 86 211 205 68
63 69 64 114 57 l45 -7 -6 78 c-4 42 -7 90 -7 106 0 15 -5 28 -11 28 -8 0 -10
-26 -7 -90 l6 -90 -34 6 c-31 6 -39 1 -116 -72 -46 -44 -131 -124 -191 -178
-59 -55 -106 -101 -104 -103 2 -1 111 33 243 77 131 44 240 80 242 80 1 0 2
11 2 25 0 20 5 25 27 25 39 0 110 -37 134 -71 12 -17 22 -44 23 -61 1 -27 -3
-32 -32 -40 -18 -5 -35 -14 -37 -21 -13 -42 -110 -351 -139 -446 -20 -63 -34
-117 -32 -119 4 -3 131 138 315 348 74 84 82 98 77 125 -14 75 -20 70 77 73
81 3 89 1 112 -22 14 -14 25 -22 25 -18 0 4 5 -1 10 -10 11 -18 -1 -60 -24
-83 -10 -10 -11 -25 -5 -57 4 -24 8 -63 8 -88 -1 -38 -2 -41 -9 -20 -6 17 -8
4 -7 -45 1 -38 -2 -92 -5 -120 -4 -27 1 -12 11 35 25 118 25 119 38 53 7 -32
29 -139 49 -238 20 -99 37 -181 39 -183 2 -2 55 255 104 508 l7 35 7 -51 c4
-28 4 -66 1 -85 -5 -28 -4 -32 7 -22 10 11 11 45 0 199 -9 132 -9 190 -2 197
6 6 54 13 106 15 91 4 95 3 95 -16 0 -11 -5 -33 -10 -48 -10 -24 -6 -32 42
-88 131 -153 341 -387 343 -384 3 3 -44 162 -140 475 -27 86 -31 93 -62 104
-43 14 -46 21 -30 61 18 42 74 92 122 108 39 13 51 8 57 -25 3 -16 44 -34 232
-97 126 -43 231 -76 233 -74 4 4 -132 136 -267 260 -87 80 -98 87 -127 81
l-32 -6 5 93 c4 67 3 89 -5 78 -6 -8 -11 -33 -11 -56 0 -22 -7 -62 -16 -87 -9
-26 -14 -53 -11 -60 3 -8 54 -44 114 -82 188 -120 248 -158 258 -167 17 -16
-44 3 -200 62 -101 38 -149 62 -148 71 1 8 5 24 8 36 5 16 2 23 -13 28 -12 3
-28 24 -37 49 -16 42 -16 48 4 125 26 99 26 123 3 144 -33 30 -132 15 -132
-18 0 -9 12 -36 26 -61 24 -41 25 -47 14 -96 -8 -37 -26 -73 -64 -123 -68 -90
-65 -83 -81 -162 -17 -81 -19 -76 128 -345 127 -232 126 -231 80 -183 -21 23
-56 63 -78 90 -22 27 -56 68 -76 90 -19 22 -52 60 -72 85 l-36 46 8 113 c9
122 16 141 110 297 53 90 60 129 31 167 -17 22 -29 27 -53 25 -29 -3 -31 -6
-44 -68 -7 -36 -11 -78 -8 -93 2 -16 -2 -41 -10 -56 -14 -29 -79 -91 -94 -91
-5 0 -29 9 -55 20 -34 16 -47 28 -52 48 -10 45 -14 61 -20 82 -4 15 1 23 23
31 68 26 78 17 67 -67 -5 -47 -4 -53 14 -59 12 -3 34 1 50 9 54 28 56 72 7
132 -19 23 -35 45 -35 49 0 3 18 30 40 59 63 84 90 187 55 216 -23 19 -18 39
20 77 32 32 40 35 75 30 38 -5 40 -4 40 22 0 46 -26 71 -73 71 -50 -1 -71 -15
-96 -66 l-19 -39 -18 44 c-29 73 -107 89 -148 29 -9 -12 -16 -32 -16 -45 0
-21 3 -22 48 -16 44 5 51 3 70 -22 25 -32 29 -70 7 -79 -8 -3 -15 -17 -15 -31
0 -34 -23 -77 -67 -126 -43 -48 -55 -49 -51 -6 2 25 8 33 26 35 23 3 23 4 6
23 -10 11 -30 19 -51 19 l-33 0 0 60 c0 33 2 60 5 60 2 0 15 -11 29 -25 31
-31 40 -31 66 -3 35 38 25 74 -16 56 -36 -17 -54 4 -54 63 0 45 3 51 35 71 39
26 42 42 25 162 -18 121 -32 111 -54 -39 -8 -54 -19 -102 -23 -106 -4 -4 -10
155 -12 354 -3 395 -16 733 -21 592z m-72 -736 c2 -242 0 -449 -3 -460 -5 -15
-10 -17 -26 -9 -16 9 -19 22 -19 75 0 35 5 67 10 70 13 8 13 82 1 89 -5 4 -12
0 -15 -6 -3 -7 -3 1 0 17 4 17 10 140 14 275 3 135 13 278 20 318 8 39 15 72
15 72 1 0 2 -198 3 -441z m-275 -549 c18 -30 55 -72 84 -95 28 -22 52 -48 52
-57 1 -23 -2 -23 -47 6 -73 46 -143 146 -141 203 0 31 -1 33 52 -57z m617 60
c0 -25 -33 -92 -66 -137 -25 -33 -104 -93 -123 -93 -22 0 -10 29 23 54 58 44
106 99 129 149 23 50 37 60 37 27z m-289 -31 l-9 -34 -1 31 c-1 17 2 34 6 37
12 13 14 -1 4 -34z m-81 -1 c0 -36 -4 -35 -14 5 -4 16 -2 27 4 27 5 0 10 -14
10 -32z m37 -90 c-2 -13 -4 -5 -4 17 -1 22 1 32 4 23 2 -10 2 -28 0 -40z m-68
-98 c0 -45 -3 -59 -9 -45 -5 11 -9 42 -9 68 -1 29 -5 46 -11 42 -12 -7 -14 58
-2 69 12 13 30 -66 31 -134z m162 72 c-6 -2 -11 -26 -11 -52 0 -27 -5 -52 -11
-56 -17 -10 -6 115 12 147 l14 24 3 -30 c2 -16 -1 -31 -7 -33z m16 -94 c-3 -8
-6 -5 -6 6 -1 11 2 17 5 13 3 -3 4 -12 1 -19z m42 -178 c0 -9 -4 -8 -9 5 -5
11 -9 27 -9 35 0 9 4 8 9 -5 5 -11 9 -27 9 -35z m-209 -3 c0 -10 -4 -15 -10
-12 -5 3 -10 18 -10 33 0 21 2 24 10 12 5 -8 10 -23 10 -33z m-33 11 c-3 -8
-6 -5 -6 6 -1 11 2 17 5 13 3 -3 4 -12 1 -19z m154 -21 c-13 -13 -15 1 -4 30
7 17 8 17 11 -1 2 -10 -1 -23 -7 -29z m-180 -71 c13 -14 11 -26 -4 -20 -7 2
-13 21 -14 42 0 23 1 28 4 12 3 -14 9 -29 14 -34z m240 -19 c-6 -6 -14 -8 -18
-4 -4 4 -1 13 5 19 7 7 13 23 14 38 1 19 2 16 5 -9 3 -18 0 -38 -6 -44z m-124
-159 c-3 -8 -6 -5 -6 6 -1 11 2 17 5 13 3 -3 4 -12 1 -19z m-12 -58 c5 -17 3
-552 -2 -546 -7 7 -73 356 -73 388 0 51 19 127 39 155 20 28 28 28 36 3z m105
-11 c0 -11 -4 -17 -10 -14 -5 3 -10 15 -10 26 0 11 5 17 10 14 6 -3 10 -15 10
-26z"/>
<path d="M1206 1910 c3 -131 1 -190 -6 -180 -8 12 -10 12 -9 -5 1 -11 4 -31 8
-45 16 -53 22 64 12 245 l-10 180 5 -195z"/>
<path d="M1213 660 c0 -25 2 -35 4 -22 2 12 2 32 0 45 -2 12 -4 2 -4 -23z"/>
<path d="M1555 2887 c-4 -9 -3 -30 3 -45 12 -33 14 -929 2 -937 -5 -3 -24 5
-44 17 l-35 23 0 190 c-1 188 14 374 44 550 16 97 18 142 4 85 -35 -147 -69
-503 -69 -742 0 -93 2 -107 18 -112 9 -4 32 -20 51 -36 l34 -30 34 30 c18 17
38 30 43 30 23 0 27 47 19 257 -8 239 -19 355 -50 528 -26 151 -44 215 -54
192z"/>
<path d="M1161 2864 c0 -11 3 -14 6 -6 3 7 2 16 -1 19 -3 4 -6 -2 -5 -13z"/>
<path d="M1153 2560 c0 -36 2 -50 4 -32 2 17 2 47 0 65 -2 17 -4 3 -4 -33z"/>
<path d="M1061 1214 c0 -11 3 -14 6 -6 3 7 2 16 -1 19 -3 4 -6 -2 -5 -13z"/>
<path d="M1342 600 c0 -14 2 -19 5 -12 2 6 2 18 0 25 -3 6 -5 1 -5 -13z"/>
<path d="M1365 498 c-2 -7 0 -29 4 -48 l9 -35 1 48 c1 45 -5 60 -14 35z"/>
</g>
</svg>
