<?xml version="1.0" standalone="no"?>
<!DOCTYPE svg PUBLIC "-//W3C//DTD SVG 20010904//EN"
 "http://www.w3.org/TR/2001/REC-SVG-20010904/DTD/svg10.dtd">
<svg version="1.0" xmlns="http://www.w3.org/2000/svg"
 width="244.000000pt" height="305.000000pt" viewBox="0 0 244.000000 305.000000"
 preserveAspectRatio="xMidYMid meet">
<metadata>
Created by potrace 1.16, written by Peter Selinger 2001-2019
</metadata>
<g transform="translate(0.000000,305.000000) scale(0.100000,-0.100000)"
fill="#000000" stroke="none">
<path d="M990 2905 c-1 -5 -1 -230 0 -500 l1 -489 -20 18 c-18 16 -21 33 -24
135 l-3 116 -2 -117 c-2 -100 -4 -117 -17 -112 -9 4 -15 1 -15 -7 0 -16 72
-86 92 -91 8 -2 29 13 46 33 l32 37 0 153 c0 165 -14 431 -30 569 -20 166 -32
240 -40 235 -5 -3 -11 3 -13 12 -3 10 -6 14 -7 8z"/>
<path d="M1452 2865 c3 -25 2 -45 -2 -45 -4 0 -3 -21 1 -47 11 -65 11 -853 1
-853 -5 0 -16 8 -25 18 -14 15 -17 42 -17 159 0 78 5 210 11 295 7 84 12 181
13 214 1 34 4 60 9 57 4 -2 7 12 7 31 0 19 -4 37 -9 40 -20 13 -51 -373 -51
-629 l0 -183 40 -36 40 -36 41 40 42 40 -7 248 c-7 245 -24 444 -51 617 -8 50
-15 93 -15 96 0 4 -7 10 -16 13 -14 6 -16 0 -12 -39z"/>
<path d="M963 2745 c0 -22 2 -30 4 -17 2 12 2 30 0 40 -3 9 -5 -1 -4 -23z"/>
<path d="M953 2665 c0 -22 2 -30 4 -17 2 12 2 30 0 40 -3 9 -5 -1 -4 -23z"/>
<path d="M973 2620 c0 -25 2 -35 4 -22 2 12 2 32 0 45 -2 12 -4 2 -4 -23z"/>
<path d="M937 2565 c-4 -33 -9 -150 -12 -260 -3 -110 -7 -228 -10 -263 -3 -39
-1 -60 5 -57 6 4 10 77 10 174 0 93 5 227 11 299 11 134 8 214 -4 107z"/>
<path d="M1226 2585 c-15 -40 -46 -346 -52 -520 l-8 -190 -13 114 c-7 63 -15
117 -18 120 -15 15 -26 -26 -32 -117 -6 -99 -5 -101 21 -133 22 -26 26 -40 24
-78 -3 -45 -3 -46 -35 -43 -37 4 -40 -5 -22 -57 13 -37 41 -41 63 -9 16 22 16
21 16 -19 0 -28 5 -43 15 -47 9 -3 23 -22 31 -41 8 -19 16 -35 19 -35 3 0 11
16 19 35 8 19 22 38 31 41 9 4 15 19 15 42 0 33 1 34 18 19 10 -10 24 -17 30
-17 16 0 32 33 32 65 0 22 -4 25 -27 23 -27 -3 -28 -1 -31 43 -2 38 2 52 23
77 21 25 25 40 24 88 -1 97 -18 178 -34 162 -3 -2 -10 -51 -17 -109 -11 -91
-14 -99 -18 -59 -3 25 -7 99 -8 165 -3 142 -18 311 -38 414 -15 81 -19 90 -28
66z m4 -535 l0 -441 -21 20 c-21 20 -22 23 -16 313 4 253 23 548 34 548 1 0 3
-198 3 -440z"/>
<path d="M963 2510 c0 -30 2 -43 4 -27 2 15 2 39 0 55 -2 15 -4 2 -4 -28z"/>
<path d="M954 2335 c0 -66 1 -92 3 -57 2 34 2 88 0 120 -2 31 -3 3 -3 -63z"/>
<path d="M870 1850 c-11 -11 -20 -33 -20 -49 0 -24 5 -29 32 -35 18 -3 42 -16
55 -28 24 -23 31 -72 12 -84 -21 -13 -2 -111 36 -194 l37 -78 -18 -31 c-10
-17 -21 -31 -25 -31 -8 0 -19 52 -19 91 0 33 -29 54 -61 44 -19 -6 -20 -4 -14
24 10 45 -8 61 -66 61 -40 0 -51 -4 -64 -24 -14 -20 -14 -34 -5 -88 6 -35 10
-82 8 -104 l-4 -39 -12 28 c-7 16 -12 55 -12 87 0 33 -5 62 -11 66 -8 5 -10
-18 -8 -82 4 -86 3 -89 -17 -86 -23 3 -62 -39 -174 -188 -36 -47 -80 -102 -99
-123 -35 -39 -37 -56 -4 -38 11 5 37 12 59 15 47 5 300 127 319 153 17 23 40
11 73 -37 30 -45 29 -87 -3 -102 -26 -12 -36 -36 -55 -139 -6 -30 -17 -79 -25
-109 -27 -104 -76 -332 -72 -337 2 -2 12 9 22 24 16 23 19 25 24 10 5 -12 44
45 134 195 l129 213 -6 53 -6 52 47 0 c54 0 108 -27 118 -59 4 -14 -1 -31 -14
-50 -12 -16 -21 -38 -21 -49 0 -27 79 -580 89 -617 8 -32 24 59 77 436 l27
195 -24 33 c-22 30 -22 34 -8 59 20 37 56 53 109 50 l45 -3 -3 -52 c-3 -52 -1
-57 130 -274 110 -183 134 -217 136 -194 3 25 4 26 18 8 14 -17 15 -17 10 2
-16 63 -56 238 -65 285 -16 84 -58 260 -62 263 -2 1 -13 7 -24 13 -28 16 -24
66 10 110 34 45 66 60 91 44 12 -7 13 -10 4 -7 -11 3 -16 -2 -16 -15 0 -16 27
-33 126 -80 69 -33 142 -68 162 -78 24 -13 40 -16 44 -9 3 6 13 8 21 5 13 -5
12 -2 -2 21 -16 25 -74 100 -100 130 -5 6 -41 52 -80 102 -51 67 -76 91 -92
91 -22 0 -23 4 -25 88 -1 86 -1 86 -8 27 l-7 -60 -1 65 c-3 93 -16 114 -73
118 -33 2 -50 -2 -59 -13 -14 -17 -13 -20 15 -89 8 -17 5 -17 -22 3 -44 33
-73 16 -74 -42 -1 -23 -4 -55 -8 -72 l-6 -30 -26 44 -26 43 36 71 c39 80 53
171 31 212 -11 20 -10 29 7 57 15 27 26 34 56 36 35 3 37 5 37 37 0 24 -7 39
-26 54 -45 36 -88 22 -108 -33 -6 -16 -9 -14 -29 15 -41 61 -103 43 -109 -31
-3 -32 -1 -35 27 -38 42 -5 68 -31 61 -62 -27 -133 -42 -170 -100 -239 -36
-43 -47 -81 -23 -81 16 0 86 72 121 125 14 22 26 36 26 32 0 -10 -46 -98 -62
-118 -17 -20 -87 -69 -101 -69 -13 0 -3 106 13 142 7 15 26 31 41 37 16 5 29
14 29 20 0 12 -40 41 -57 41 -20 0 -49 -38 -63 -83 l-12 -42 -20 53 c-24 65
-54 84 -93 58 -33 -21 -32 -35 4 -47 15 -6 34 -22 41 -37 14 -30 26 -142 16
-142 -4 0 -24 9 -46 20 -38 19 -83 75 -108 133 -20 45 -14 44 17 -5 16 -25 45
-61 65 -81 71 -71 92 -31 26 49 -46 56 -80 123 -80 158 0 14 -5 36 -11 50 -9
19 -9 32 1 56 10 25 18 30 46 30 18 0 35 4 38 8 10 17 -15 82 -35 93 -29 15
-68 3 -81 -26 -14 -30 -25 -32 -33 -4 -13 39 -83 51 -115 19z m283 -587 c-5
-28 -2 -34 21 -43 35 -13 34 -45 -3 -64 -27 -14 -29 -14 -34 4 -6 25 -39 26
-77 3 -24 -14 -31 -14 -44 -4 -26 21 -18 36 17 36 l32 0 -3 54 c-4 79 -2 82
51 63 43 -15 45 -18 40 -49z m34 45 c-3 -8 -6 -5 -6 6 -1 11 2 17 5 13 3 -3 4
-12 1 -19z m221 -52 c-3 -57 -1 -61 19 -64 14 -2 32 6 48 22 29 29 30 29 10
-11 -25 -51 -42 -59 -75 -40 -38 23 -71 22 -77 -2 -4 -17 -9 -18 -28 -9 -40
18 -43 61 -4 71 14 4 19 14 19 40 0 30 4 36 38 49 20 8 41 13 45 10 5 -2 7
-32 5 -66z m-718 9 c0 -6 -31 -57 -40 -65 -10 -10 -50 -69 -50 -75 0 -10 -54
-66 -92 -97 -21 -16 -38 -26 -38 -21 0 10 90 129 159 211 39 46 61 63 61 47z
m54 -42 c-12 -16 -31 -33 -43 -39 -12 -6 -36 -24 -52 -40 -24 -23 -29 -25 -23
-9 5 11 12 25 16 30 5 6 20 24 33 40 14 17 25 34 25 38 0 4 10 12 23 16 34 13
44 -5 21 -36z m1077 -105 c38 -34 67 -64 64 -66 -4 -4 -142 63 -157 77 -10 9
2 51 14 51 5 0 41 -28 79 -62z m-617 -92 c7 -53 28 -97 41 -84 4 3 12 36 18
72 8 49 15 66 27 65 10 0 11 -2 3 -6 -7 -2 -13 -22 -13 -42 0 -21 -11 -59 -25
-85 -25 -47 -25 -48 -26 -329 l-1 -282 -33 225 -34 225 30 46 c33 52 35 72 14
122 -8 20 -15 54 -15 76 0 29 -5 41 -17 44 -14 4 -14 5 3 6 19 1 23 -6 28 -53z
m-295 -167 c-28 -68 -55 -135 -60 -148 -21 -54 -18 -7 6 103 14 65 25 119 25
121 0 1 14 8 31 15 21 9 32 22 37 44 5 25 7 27 10 10 2 -12 -20 -77 -49 -145z
m657 -58 c30 -80 53 -149 51 -154 -1 -4 -31 39 -66 97 l-63 105 7 63 c5 35 10
56 13 48 2 -8 29 -80 58 -159z m-706 126 c0 -12 -25 -141 -46 -235 -20 -93
-61 -223 -63 -201 -1 3 13 66 29 140 17 73 38 171 48 216 9 46 20 83 25 83 4
0 7 -1 7 -3z m810 -421 c0 -12 -5 -7 -19 24 -11 24 -11 24 3 6 9 -11 16 -24
16 -30z"/>
</g>
</svg>
