<?xml version="1.0" standalone="no"?>
<!DOCTYPE svg PUBLIC "-//W3C//DTD SVG 20010904//EN"
 "http://www.w3.org/TR/2001/REC-SVG-20010904/DTD/svg10.dtd">
<svg version="1.0" xmlns="http://www.w3.org/2000/svg"
 width="244.000000pt" height="305.000000pt" viewBox="0 0 244.000000 305.000000"
 preserveAspectRatio="xMidYMid meet">
<metadata>
Created by potrace 1.16, written by Peter Selinger 2001-2019
</metadata>
<g transform="translate(0.000000,305.000000) scale(0.100000,-0.100000)"
fill="#000000" stroke="none">
<path d="M902 2803 c-35 -176 -52 -335 -62 -573 -14 -329 -16 -302 24 -324 19
-10 37 -25 40 -32 3 -8 10 -14 16 -14 11 0 89 57 103 75 16 22 -12 537 -40
715 -25 156 -27 104 -4 -71 13 -93 24 -244 28 -386 l6 -234 -34 -29 c-19 -16
-38 -29 -42 -30 -4 0 -7 227 -5 505 2 278 0 505 -3 505 -3 0 -16 -48 -27 -107z"/>
<path d="M1102 2880 c0 -14 2 -19 5 -12 2 6 2 18 0 25 -3 6 -5 1 -5 -13z"/>
<path d="M1351 2742 c-7 -81 -15 -308 -18 -505 -7 -440 -12 -458 -28 -92 -6
148 -31 327 -58 415 l-14 45 -21 -95 c-34 -148 -42 -220 -49 -433 -3 -109 -10
-200 -16 -204 -6 -3 -8 11 -5 36 2 22 -1 42 -6 44 -20 7 -28 133 -35 497 -7
448 -16 396 -31 -175 l-9 -380 27 -30 c21 -22 27 -38 24 -60 -4 -30 -4 -30
-16 10 -10 34 -17 41 -49 49 -31 8 -42 6 -65 -11 -15 -11 -31 -34 -37 -51 -12
-41 -21 -40 -34 1 -12 35 -55 67 -90 67 -30 0 -71 -44 -71 -75 0 -23 4 -25 44
-25 37 0 48 -5 70 -31 25 -30 36 -79 17 -79 -37 0 -14 -112 40 -198 42 -69 47
-93 23 -113 -24 -20 -44 -65 -44 -99 0 -16 -4 -30 -10 -30 -13 0 -24 46 -16
67 7 16 -7 95 -25 141 -11 28 -49 29 -74 2 -29 -32 -16 -101 39 -199 26 -47
45 -91 44 -98 -2 -7 -32 30 -67 83 -54 81 -65 104 -69 149 -4 45 0 58 24 95
l28 42 -23 19 c-28 23 -93 25 -115 4 -26 -26 -27 -51 -5 -115 31 -89 24 -174
-16 -206 -26 -20 -27 -26 -17 -48 8 -18 8 -27 -1 -34 -19 -15 -320 -132 -326
-127 -2 3 -2 6 0 8 177 116 359 245 359 255 0 4 -7 32 -15 62 -8 30 -15 73
-15 95 0 22 -5 47 -11 55 -7 11 -9 -12 -7 -80 l3 -95 -30 3 c-27 2 -49 -16
-210 -178 -99 -99 -175 -180 -170 -180 6 0 91 30 190 66 99 36 199 72 222 81
34 12 43 20 43 38 0 32 12 37 51 21 51 -21 87 -53 109 -96 22 -43 14 -62 -31
-79 -22 -8 -29 -24 -58 -128 -18 -65 -41 -145 -51 -178 -10 -33 -28 -96 -40
-140 -12 -44 -26 -92 -30 -107 -14 -45 9 -25 97 85 45 56 124 154 177 219 92
112 95 117 86 150 -18 61 -15 68 35 68 25 0 45 -3 45 -6 0 -4 -14 -112 -31
-241 -16 -130 -29 -242 -27 -250 2 -9 36 78 76 192 56 156 73 216 70 246 -4
45 8 50 40 16 28 -30 28 -33 -7 -72 l-28 -33 14 -78 c39 -218 105 -569 107
-572 3 -3 48 229 86 443 16 88 31 171 35 185 5 20 -1 32 -25 55 -16 16 -30 34
-30 40 0 13 52 65 64 65 5 0 5 -20 2 -45 -7 -46 9 -100 125 -420 28 -78 29
-79 24 -31 -3 27 -5 61 -6 75 0 23 -1 24 -9 6 -5 -11 -9 -15 -9 -10 -1 6 -21
99 -46 208 -25 110 -45 205 -45 213 0 24 39 16 44 -8 3 -13 7 -32 9 -43 3 -11
5 1 6 27 1 45 2 46 29 43 15 -2 33 -4 41 -4 10 -1 12 -10 7 -37 -4 -19 -9 -41
-12 -48 -3 -7 41 -69 98 -138 57 -68 136 -166 177 -216 68 -84 98 -112 86 -79
-3 6 -39 131 -80 277 -41 146 -80 267 -87 269 -26 9 -58 50 -51 68 13 37 55
84 93 103 53 27 70 26 70 -6 0 -29 4 -32 225 -109 83 -29 163 -58 179 -64 16
-6 31 -9 33 -7 3 3 -71 82 -163 176 -161 163 -170 171 -200 165 l-32 -5 5 92
c3 62 1 88 -5 78 -6 -8 -12 -55 -14 -105 l-3 -90 40 3 c39 3 42 0 175 -134
149 -150 144 -154 -40 -35 -52 34 -116 75 -141 91 -74 48 -95 112 -64 200 32
91 12 150 -51 150 -33 0 -74 -24 -74 -43 0 -7 12 -30 26 -51 42 -62 25 -136
-57 -239 -21 -26 -40 -53 -42 -60 -2 -7 -7 -9 -11 -5 -4 3 15 50 43 103 54
102 62 145 35 183 -12 17 -24 22 -47 20 -30 -3 -32 -6 -40 -53 -5 -27 -10 -70
-11 -95 -4 -66 -5 -70 -16 -70 -5 0 -10 12 -10 26 0 27 -29 84 -42 84 -4 0 -8
20 -8 45 0 25 4 45 8 45 16 0 65 115 70 162 3 37 0 53 -13 68 -22 24 -13 51
27 85 22 19 40 25 62 23 28 -3 31 0 34 25 8 69 -84 94 -132 36 -14 -17 -26
-37 -26 -45 0 -8 -4 -14 -10 -14 -5 0 -10 6 -10 14 0 28 -49 74 -86 81 -43 8
-58 -4 -72 -55 l-8 -35 -6 29 c-5 24 0 35 23 57 l29 27 -2 194 c-2 172 -3 181
-8 83 -3 -60 -7 -100 -8 -88 -1 12 -7 25 -12 28 -7 4 -10 137 -10 392 1 212 0
387 -3 389 -2 2 -9 -62 -16 -144z m-70 -477 c8 -84 9 -162 3 -260 l-9 -140 -5
145 c-5 123 -6 106 -8 -117 -1 -161 -6 -264 -12 -268 -7 -4 -10 133 -10 403 0
479 10 539 41 237z m15 -469 c-1 -35 -4 -62 -8 -59 -14 8 -7 123 6 123 1 0 2
-29 2 -64z m-226 -43 c0 -2 -7 -11 -15 -19 -15 -15 -11 -39 12 -65 9 -11 14
-38 13 -75 -1 -33 1 -72 6 -89 6 -27 6 -29 -9 -17 -31 26 -75 103 -82 142 -4
21 -12 44 -20 50 -31 26 24 91 70 83 14 -3 25 -7 25 -10z m409 -7 c28 -26 33
-55 10 -74 -11 -10 -19 -29 -19 -48 0 -30 -44 -109 -77 -136 -15 -12 -15 -10
-8 17 4 17 7 54 7 84 -1 30 2 59 7 65 4 6 13 26 19 43 9 28 8 34 -6 43 -15 8
-15 11 -2 19 20 13 45 9 69 -13z m-303 -136 c29 -12 31 -26 4 -33 -30 -8 -50
19 -50 67 0 56 14 69 18 16 3 -33 8 -43 28 -50z m117 28 c-11 -20 -23 -4 -23
30 l1 37 13 -30 c7 -16 11 -33 9 -37z m47 12 c0 -56 -8 -70 -41 -70 -36 0 -38
17 -4 30 21 8 25 16 25 50 0 25 4 39 10 35 6 -3 10 -24 10 -45z m-384 -77 c22
-58 25 -71 14 -78 -9 -5 -50 85 -50 109 0 31 18 15 36 -31z m151 15 c-3 -7 -5
-2 -5 12 0 14 2 19 5 13 2 -7 2 -19 0 -25z m260 0 c-3 -7 -5 -2 -5 12 0 14 2
19 5 13 2 -7 2 -19 0 -25z m183 17 c0 -23 -31 -95 -41 -95 -14 0 -10 36 8 75
17 36 33 46 33 20z m-308 -74 c7 11 8 9 4 -4 -3 -10 -6 -28 -7 -40 -1 -20 -2
-20 -9 3 -9 29 -12 64 -3 41 5 -11 7 -11 15 0z m95 -78 c-14 -27 -28 -57 -32
-68 -4 -11 -9 -15 -12 -8 -2 6 5 32 17 57 11 25 26 58 32 73 9 22 12 24 15 11
3 -10 -7 -39 -20 -65z m-182 -4 c15 -38 25 -72 23 -75 -5 -4 -68 126 -68 139
0 4 4 7 8 7 5 0 21 -32 37 -71z m-119 -26 c-11 -11 -19 6 -11 24 8 17 8 17 12
0 3 -10 2 -21 -1 -24z m414 16 c0 -11 -4 -17 -10 -14 -5 3 -10 13 -10 21 0 8
5 14 10 14 6 0 10 -9 10 -21z m-330 -61 c0 -13 -27 -9 -40 7 -19 23 -1 39 21
19 10 -9 19 -21 19 -26z m270 22 c0 -11 -7 -23 -15 -27 -25 -9 -30 5 -9 26 24
25 24 25 24 1z m-341 -135 c7 -27 14 -58 17 -67 3 -10 1 -18 -3 -18 -8 0 -43
114 -43 141 0 27 18 -7 29 -56z m386 -30 c-9 -31 -19 -54 -22 -51 -5 5 10 84
25 131 6 19 6 19 10 -2 2 -11 -4 -47 -13 -78z m-260 64 c-4 -5 -13 -9 -22 -9
-13 0 -13 3 -3 15 13 15 35 11 25 -6z m149 5 c25 -10 19 -22 -9 -16 -14 2 -25
8 -25 13 0 10 12 11 34 3z m61 -89 c-21 -61 -26 -65 -68 -52 -29 9 -37 17 -35
32 4 25 38 32 50 11 5 -9 13 -16 17 -16 13 0 31 49 32 88 l2 37 6 -35 c4 -19
2 -48 -4 -65z m-271 -14 c14 -13 16 -13 22 2 8 21 40 22 48 1 10 -27 7 -34
-17 -34 -13 0 -29 -6 -36 -12 -21 -22 -49 38 -49 107 l0 40 9 -44 c5 -25 15
-52 23 -60z m456 5 c0 -7 -7 -19 -15 -26 -13 -10 -18 -11 -28 -1 -9 10 -8 15
7 27 25 18 36 18 36 0z m-605 -53 c-5 -15 -7 -15 -22 0 -14 13 -14 19 -3 32
12 15 14 15 23 0 5 -9 6 -23 2 -32z m645 -54 c0 -17 -4 -28 -10 -24 -5 3 -10
17 -10 31 0 13 5 24 10 24 6 0 10 -14 10 -31z m-729 -52 c-8 -8 -11 -5 -11 9
0 27 14 41 18 19 2 -9 -1 -22 -7 -28z m22 -113 l6 -96 -82 -107 c-110 -144
-187 -241 -192 -241 -6 0 1 16 122 260 62 124 115 237 118 253 11 53 22 26 28
-69z m724 51 c23 -25 51 -45 62 -45 26 0 25 2 66 -136 19 -66 47 -159 61 -207
15 -48 24 -90 21 -94 -3 -3 -25 33 -48 78 -23 46 -61 120 -84 164 -129 241
-149 285 -128 285 3 0 26 -20 50 -45z m-377 -51 c0 -7 -4 -16 -10 -19 -5 -3
-10 -4 -10 -1 0 2 -2 11 -5 19 -4 8 0 14 10 14 8 0 15 -6 15 -13z m-155 -36
c5 -36 -4 -72 -55 -218 -33 -96 -59 -166 -57 -155 15 86 93 415 98 415 4 0 10
-19 14 -42z m170 -55 c-7 27 10 20 40 -15 25 -30 26 -36 20 -94 -3 -35 -20
-123 -36 -196 -28 -128 -29 -130 -24 -59 18 253 12 277 -9 41 l-13 -145 -1
255 c-1 231 0 252 14 225 8 -16 12 -22 9 -12z"/>
<path d="M1253 2325 c0 -38 2 -53 4 -32 2 20 2 52 0 70 -2 17 -4 1 -4 -38z"/>
<path d="M1277 785 c3 -22 7 -42 9 -44 8 -9 2 45 -6 64 -7 14 -8 8 -3 -20z"/>
<path d="M1526 2858 c-54 -258 -90 -657 -77 -854 6 -77 7 -82 42 -112 49 -43
48 -44 125 23 l23 20 -9 235 c-8 222 -30 462 -49 540 -14 56 -12 10 4 -107 20
-145 32 -326 34 -508 l2 -150 -36 -22 c-19 -13 -37 -23 -40 -23 -3 0 -4 223
-3 495 2 272 0 495 -3 495 -4 0 -10 -15 -13 -32z"/>
<path d="M952 2785 c0 -16 2 -22 5 -12 2 9 2 23 0 30 -3 6 -5 -1 -5 -18z"/>
<path d="M1562 2770 c0 -14 2 -19 5 -12 2 6 2 18 0 25 -3 6 -5 1 -5 -13z"/>
<path d="M1112 2760 c0 -14 2 -19 5 -12 2 6 2 18 0 25 -3 6 -5 1 -5 -13z"/>
<path d="M1383 2700 c0 -25 2 -35 4 -22 2 12 2 32 0 45 -2 12 -4 2 -4 -23z"/>
<path d="M1123 2615 c0 -27 2 -38 4 -22 2 15 2 37 0 50 -2 12 -4 0 -4 -28z"/>
<path d="M1393 2540 c0 -25 2 -35 4 -22 2 12 2 32 0 45 -2 12 -4 2 -4 -23z"/>
<path d="M1133 2395 c0 -44 2 -61 4 -37 2 23 2 59 0 80 -2 20 -4 1 -4 -43z"/>
<path d="M1402 2350 c0 -19 2 -27 5 -17 2 9 2 25 0 35 -3 9 -5 1 -5 -18z"/>
<path d="M1141 2004 c0 -11 3 -14 6 -6 3 7 2 16 -1 19 -3 4 -6 -2 -5 -13z"/>
<path d="M1463 815 c0 -22 2 -30 4 -17 2 12 2 30 0 40 -3 9 -5 -1 -4 -23z"/>
<path d="M1471 739 c0 -19 4 -52 9 -74 7 -31 7 -24 3 30 -6 74 -13 101 -12 44z"/>
<path d="M1493 580 c0 -25 2 -35 4 -22 2 12 2 32 0 45 -2 12 -4 2 -4 -23z"/>
</g>
</svg>
