<?xml version="1.0" standalone="no"?>
<!DOCTYPE svg PUBLIC "-//W3C//DTD SVG 20010904//EN"
 "http://www.w3.org/TR/2001/REC-SVG-20010904/DTD/svg10.dtd">
<svg version="1.0" xmlns="http://www.w3.org/2000/svg"
 width="244.000000pt" height="305.000000pt" viewBox="0 0 244.000000 305.000000"
 preserveAspectRatio="xMidYMid meet">
<metadata>
Created by potrace 1.16, written by Peter Selinger 2001-2019
</metadata>
<g transform="translate(0.000000,305.000000) scale(0.100000,-0.100000)"
fill="#000000" stroke="none">
<path d="M972 2849 c-38 -224 -61 -499 -63 -766 l-1 -153 31 -26 c41 -34 40
-48 -4 -40 -49 10 -71 1 -85 -34 -17 -40 -8 -56 34 -64 23 -4 42 -17 56 -35
24 -35 25 -49 3 -73 -27 -30 -2 -136 56 -237 16 -27 17 -38 9 -57 -20 -43 -33
-26 -40 51 -3 26 -7 30 -35 33 -30 3 -33 6 -33 37 0 43 -20 55 -93 55 -77 0
-86 -18 -61 -139 10 -49 15 -94 10 -98 -15 -15 -36 31 -37 81 -1 28 -5 62 -10
76 -6 16 -7 -9 -5 -73 l4 -97 -26 3 c-27 4 -39 -8 -182 -183 -30 -37 -75 -91
-100 -120 -49 -59 -46 -60 59 -14 65 29 64 29 56 4 -3 -11 -4 -20 0 -20 13 0
290 143 297 153 16 26 68 -51 68 -101 0 -21 -6 -30 -26 -38 -25 -9 -29 -20
-75 -219 -26 -115 -55 -240 -64 -276 -25 -108 -26 -108 63 18 10 15 12 11 7
-27 -5 -45 -5 -45 12 -22 10 13 68 109 130 214 97 165 110 193 102 215 -19 50
-13 63 32 63 47 0 92 -23 110 -57 11 -20 10 -27 -9 -53 -12 -16 -22 -41 -22
-55 0 -34 89 -628 95 -634 3 -2 5 -2 5 1 0 3 20 141 45 307 25 166 45 313 45
327 0 14 -10 39 -21 56 -19 26 -20 33 -8 55 17 31 58 53 101 53 51 0 58 -9 47
-59 -8 -38 -7 -48 14 -85 13 -22 50 -86 82 -141 77 -132 118 -202 131 -226 22
-38 26 -33 20 21 -5 46 -4 52 6 37 7 -10 23 -33 36 -50 l23 -32 -6 40 c-4 22
-27 128 -52 235 -25 107 -51 217 -57 245 -8 37 -17 51 -31 53 -32 6 -38 18
-31 56 7 35 58 106 77 106 5 0 9 -10 10 -22 0 -19 25 -35 157 -100 86 -42 158
-75 161 -73 2 3 -4 14 -14 25 -28 30 -15 32 44 4 30 -13 55 -23 56 -22 3 3
-118 158 -212 271 -55 66 -69 78 -88 73 -23 -6 -23 -5 -19 82 3 59 1 81 -5 67
-5 -11 -10 -45 -10 -76 -1 -37 -6 -61 -16 -69 -22 -18 -27 5 -14 65 21 96 22
124 5 150 -14 22 -24 25 -71 25 -61 0 -77 -15 -68 -64 5 -26 4 -28 -26 -24
-39 4 -51 -12 -51 -69 0 -51 -12 -61 -35 -27 -16 25 -15 28 24 108 34 67 41
92 41 139 0 31 -4 57 -10 57 -18 0 -10 44 14 73 14 17 34 29 52 30 24 2 29 7
32 33 4 37 -20 60 -68 69 -47 8 -49 13 -17 37 l27 20 -2 141 -2 142 -3 -132
-4 -131 -34 1 -35 1 2 335 c1 302 10 362 19 131 2 -57 3 -64 7 -30 2 25 -4
132 -13 238 -10 106 -15 212 -13 235 3 23 3 34 1 25 -7 -28 -23 -21 -23 9 0
57 -12 9 -30 -118 -24 -173 -39 -392 -41 -602 -2 -201 -12 -273 -21 -153 -4
48 -12 82 -20 87 -7 4 -14 6 -16 5 -2 -2 -9 -50 -16 -107 -13 -96 -14 -99 -15
-44 -6 254 -38 594 -61 634 -18 33 -54 -242 -68 -519 l-8 -165 -8 80 c-15 144
-41 165 -53 42 -6 -63 -11 -72 -40 -68 -6 1 -14 -3 -18 -9 -21 -34 -25 14 -24
313 2 377 15 355 29 -48 l8 -250 -3 250 c-3 138 -11 313 -20 390 -9 77 -15
167 -14 200 1 33 0 65 -1 70 -4 21 -18 -42 -19 -87 -2 -77 -21 -68 -21 9 0 48
3 63 10 53 8 -12 10 -10 10 10 0 14 -4 31 -9 39 -6 9 -12 -8 -19 -50z m485
-36 c-3 -10 -5 -4 -5 12 0 17 2 24 5 18 2 -7 2 -21 0 -30z m-181 -846 c7 -317
7 -318 -14 -338 l-22 -20 1 438 c2 408 3 431 15 338 7 -55 16 -243 20 -418z
m189 -107 c8 0 15 -6 15 -13 0 -26 -13 -26 -36 -2 -13 15 -34 25 -50 25 -20 0
-25 4 -20 16 3 9 6 23 6 32 0 12 11 6 35 -20 20 -21 42 -38 50 -38z m-368 48
c-2 -7 9 -28 24 -46 29 -32 35 -64 23 -109 -5 -18 -11 -21 -35 -16 -24 5 -29
2 -29 -15 0 -11 4 -32 10 -46 11 -31 53 -36 69 -8 8 14 10 10 11 -19 0 -24 6
-39 15 -43 9 -3 24 -25 34 -48 l18 -43 12 38 c7 21 21 43 32 50 13 8 19 23 19
46 0 32 1 33 18 18 29 -26 49 -21 62 18 14 42 6 59 -25 51 -16 -4 -25 -1 -29
10 -12 32 -6 82 14 105 l20 24 -16 -38 c-21 -54 -15 -71 26 -77 42 -6 72 -49
54 -78 -6 -10 -15 -37 -19 -61 -8 -48 -56 -137 -86 -161 -10 -8 -22 -30 -25
-47 -9 -47 15 -43 71 10 25 24 45 40 45 36 0 -15 -61 -77 -95 -98 l-35 -20 0
47 c0 81 17 122 56 138 41 17 43 28 9 50 -39 25 -69 7 -93 -57 l-19 -53 -18
53 c-21 64 -50 83 -90 57 -33 -21 -32 -35 4 -47 29 -10 51 -45 51 -81 l0 -21
-24 22 c-34 32 -78 118 -88 171 -5 25 -11 57 -14 71 -9 42 11 69 51 69 30 0
35 3 35 25 0 48 -21 75 -62 82 l-39 6 22 23 c24 26 43 32 36 12z m-79 -60 c-6
-18 -28 -21 -28 -4 0 9 7 16 16 16 9 0 14 -5 12 -12z m146 -468 c8 0 17 10 19
23 3 13 5 8 6 -15 0 -21 -1 -38 -4 -38 -18 0 -66 34 -94 65 -47 54 -37 61 14
10 24 -25 51 -45 59 -45z m-44 -73 c33 -11 35 -15 32 -49 -2 -28 1 -38 11 -38
21 0 38 -25 31 -43 -9 -24 -35 -29 -56 -10 -18 16 -23 16 -63 2 -31 -11 -47
-13 -54 -6 -17 17 -13 27 8 27 45 0 51 9 44 71 -3 33 -2 59 3 59 5 0 25 -6 44
-13z m283 -17 c-1 -14 -3 -41 -5 -60 -3 -34 -2 -35 36 -40 37 -5 39 -6 23 -21
-15 -16 -20 -16 -62 0 -44 15 -47 15 -61 -3 -12 -16 -18 -18 -39 -8 -34 16
-33 49 1 62 23 9 26 15 21 43 -5 30 -2 34 26 44 47 15 62 11 60 -17z m540
-191 c37 -49 65 -89 61 -89 -10 0 -74 48 -99 74 -43 44 -125 154 -125 168 0
45 34 13 163 -153z m-173 134 c30 -36 50 -73 40 -73 -5 0 -10 5 -10 10 0 6 -5
10 -12 10 -19 0 -68 52 -68 72 0 15 4 17 18 9 9 -5 24 -18 32 -28z m-980 -102
c0 -4 -11 -13 -25 -19 -23 -11 -25 -9 -25 12 0 12 3 26 6 29 8 8 44 -10 44
-22z m-84 -17 c-25 -18 -31 -12 -14 15 8 14 16 17 23 10 7 -7 4 -15 -9 -25z
m-92 4 c-11 -13 -28 -35 -37 -50 -9 -14 -26 -29 -37 -33 -12 -4 -17 -11 -14
-18 4 -7 4 -9 -1 -5 -4 4 -23 1 -43 -8 -19 -8 -37 -13 -39 -11 -4 5 170 146
181 147 5 0 1 -10 -10 -22z m589 -88 c7 -59 25 -96 39 -82 5 5 14 37 21 71 10
51 15 61 32 60 15 -1 16 -2 3 -6 -11 -3 -17 -18 -20 -46 -3 -23 -11 -64 -19
-90 -13 -46 -12 -50 14 -97 34 -60 33 -75 -2 -315 l-29 -190 -1 284 c-1 265
-2 286 -21 316 -11 18 -23 54 -27 81 -3 27 -11 52 -17 56 -7 5 -5 8 5 8 12 0
18 -13 22 -50z m-551 15 c-25 -19 -92 -47 -92 -40 0 10 76 55 95 55 19 0 18
-1 -3 -15z m918 -105 c9 0 45 -148 38 -156 -3 -2 -20 28 -37 68 -48 107 -47
102 -27 95 10 -4 21 -7 26 -7z m65 -38 c4 -20 24 -111 46 -201 22 -90 38 -168
36 -174 -8 -24 -68 148 -91 263 -14 69 -26 133 -26 142 0 32 28 8 35 -30z
m-626 -37 c1 -16 -1 -17 -9 -5 -5 8 -9 29 -9 45 1 29 1 29 9 5 4 -14 8 -34 9
-45z m-39 7 c0 -15 -17 -55 -37 -90 -39 -65 -55 -77 -30 -20 9 18 23 57 32 86
18 56 35 68 35 24z m-27 -144 c-6 -7 -31 -53 -58 -103 -53 -101 -69 -123 -56
-79 16 56 108 210 119 199 3 -2 0 -10 -5 -17z m-126 -98 c-5 -38 -54 -136 -63
-127 -5 5 57 167 64 167 2 0 2 -18 -1 -40z m847 -110 l7 -35 -16 34 c-17 37
-20 60 -6 46 5 -6 12 -26 15 -45z"/>
<path d="M1032 2800 c0 -14 2 -19 5 -12 2 6 2 18 0 25 -3 6 -5 1 -5 -13z"/>
<path d="M1041 2724 c0 -11 3 -14 6 -6 3 7 2 16 -1 19 -3 4 -6 -2 -5 -13z"/>
<path d="M1511 2702 c0 -12 4 -66 10 -119 6 -53 14 -157 18 -232 l8 -136 2
103 c1 95 -8 211 -29 352 -4 30 -8 45 -9 32z"/>
<path d="M1053 2615 c0 -22 2 -30 4 -17 2 12 2 30 0 40 -3 9 -5 -1 -4 -23z"/>
<path d="M1063 2500 c0 -25 2 -35 4 -22 2 12 2 32 0 45 -2 12 -4 2 -4 -23z"/>
<path d="M1074 2315 c0 -60 1 -84 3 -52 2 32 2 81 0 110 -2 29 -3 3 -3 -58z"/>
<path d="M1514 2140 c0 -91 2 -128 3 -82 2 45 2 119 0 165 -1 45 -3 8 -3 -83z"/>
<path d="M1083 2030 c0 -30 2 -43 4 -27 2 15 2 39 0 55 -2 15 -4 2 -4 -28z"/>
</g>
</svg>
