<?xml version="1.0" standalone="no"?>
<!DOCTYPE svg PUBLIC "-//W3C//DTD SVG 20010904//EN"
 "http://www.w3.org/TR/2001/REC-SVG-20010904/DTD/svg10.dtd">
<svg version="1.0" xmlns="http://www.w3.org/2000/svg"
 width="244.000000pt" height="305.000000pt" viewBox="0 0 244.000000 305.000000"
 preserveAspectRatio="xMidYMid meet">
<metadata>
Created by potrace 1.16, written by Peter Selinger 2001-2019
</metadata>
<g transform="translate(0.000000,305.000000) scale(0.100000,-0.100000)"
fill="#000000" stroke="none">
<path d="M885 2887 c-4 -14 -2 -33 3 -44 9 -17 7 -931 -2 -940 -2 -2 -22 9
-46 24 l-43 28 7 185 c6 194 24 387 51 554 17 107 15 143 -4 49 -38 -199 -52
-329 -57 -568 l-6 -250 56 -37 c54 -36 55 -36 72 -17 10 11 33 27 51 36 l33
15 0 112 c0 153 -18 420 -36 546 -15 104 -60 319 -69 328 -2 2 -7 -7 -10 -21z"/>
<path d="M1578 2404 c2 -318 -1 -504 -7 -504 -5 0 -28 12 -51 28 l-43 27 7
180 c8 216 21 358 47 524 11 68 18 126 15 128 -5 5 -11 -21 -31 -142 -25 -150
-35 -270 -42 -502 l-6 -222 28 -11 c16 -6 39 -22 52 -36 l24 -26 34 30 c18 17
43 33 54 37 20 6 21 14 21 128 0 155 -16 379 -36 527 -16 117 -48 282 -61 319
-5 11 -7 -207 -5 -485z"/>
<path d="M1551 2824 c0 -11 3 -14 6 -6 3 7 2 16 -1 19 -3 4 -6 -2 -5 -13z"/>
<path d="M1251 2615 c-2 -38 -4 -45 -11 -30 -6 14 -9 16 -10 5 -1 -8 -6 -4
-10 10 -6 20 -8 15 -9 -25 -1 -27 -8 -77 -15 -110 -27 -116 -45 -312 -47 -513
-1 -93 -13 -130 -23 -70 -3 18 -12 72 -20 121 -24 142 -38 139 -57 -13 l-12
-93 36 -30 c34 -27 37 -33 37 -83 0 -60 -16 -77 -52 -55 -23 14 -37 7 -33 -17
2 -9 4 -20 4 -24 2 -13 32 -38 47 -38 8 0 24 11 36 25 28 32 42 32 34 -1 -10
-37 1 -61 29 -68 16 -4 27 -18 35 -41 6 -19 15 -35 18 -35 16 1 29 17 36 43 4
17 16 31 31 37 21 8 25 16 25 50 0 46 11 51 34 15 28 -43 80 -23 88 35 3 26
-4 28 -49 15 -19 -6 -25 -2 -34 21 -13 35 -5 95 14 106 8 4 24 16 37 26 22 18
23 20 11 103 -15 104 -21 129 -31 129 -7 0 -32 -117 -46 -214 -10 -73 -24 -36
-24 65 0 124 -18 340 -37 444 -9 50 -20 128 -23 175 -5 66 -7 74 -9 35z m-17
-430 c-3 -193 -8 -323 -14 -329 -15 -15 -12 -102 6 -172 11 -46 13 -68 5 -81
-9 -15 -11 -11 -12 22 -1 24 -3 31 -6 18 -5 -27 -12 -28 -38 -9 -18 13 -18 24
-7 327 7 173 19 348 26 389 13 73 14 69 18 -190 l3 -265 3 325 c2 179 7 316
11 305 5 -11 7 -164 5 -340z m2 -432 c-10 -26 -18 -8 -9 23 5 21 8 24 11 11 2
-10 1 -25 -2 -34z"/>
<path d="M755 1863 c-34 -8 -55 -34 -55 -69 0 -32 0 -32 40 -27 47 7 82 -12
105 -57 14 -28 14 -31 -5 -47 -44 -38 -14 -134 80 -255 l20 -26 -40 -47 c-46
-53 -50 -82 -17 -113 52 -49 119 -34 97 22 -13 35 -13 69 1 83 8 8 29 5 75
-10 49 -16 69 -19 82 -11 29 19 19 34 -39 58 -31 12 -70 32 -87 44 -59 42
-122 139 -122 187 0 38 13 30 34 -21 27 -67 138 -169 204 -189 18 -5 22 -2 22
14 0 12 -21 36 -57 63 -67 50 -123 128 -123 169 0 18 -7 32 -20 39 -28 15 -25
37 10 72 28 27 36 30 75 25 44 -4 45 -4 45 23 0 44 -30 72 -77 74 -49 1 -77
-20 -94 -72 l-12 -36 -17 35 c-30 58 -74 83 -125 72z"/>
<path d="M1428 1855 c-26 -14 -51 -69 -41 -88 2 -4 21 -4 42 -1 46 7 76 -7 96
-45 13 -26 13 -30 -5 -46 -11 -10 -20 -30 -20 -45 0 -40 -58 -118 -123 -168
-36 -27 -57 -51 -57 -63 0 -16 4 -19 23 -14 65 20 184 133 208 198 15 41 29
49 29 15 -1 -90 -117 -206 -252 -251 -22 -8 -23 -21 -3 -37 13 -11 28 -9 85 7
94 28 101 19 75 -88 -6 -23 -3 -27 19 -33 31 -8 81 15 96 44 15 27 6 51 -36
101 -36 43 -36 44 6 99 66 85 95 200 56 222 -25 14 -19 37 19 75 30 30 40 34
77 31 40 -2 43 -1 46 23 8 71 -89 101 -147 45 -16 -15 -32 -39 -35 -53 -8 -30
-22 -23 -29 16 -11 52 -81 82 -129 56z"/>
<path d="M1110 1581 c-14 -3 -34 -12 -45 -18 -17 -11 -18 -14 -5 -23 8 -5 25
-10 37 -10 36 0 61 -37 73 -109 16 -91 11 -124 -20 -131 -20 -5 -25 -12 -25
-35 0 -25 5 -31 30 -35 23 -4 29 -10 27 -25 -5 -28 -21 -45 -42 -45 -23 0 -42
-23 -34 -43 3 -8 21 -18 40 -21 33 -7 38 -16 37 -63 -1 -7 3 -10 8 -7 5 3 9
-2 9 -10 0 -26 23 -66 37 -66 10 0 12 -6 7 -22 -4 -13 -8 -156 -9 -318 -1
-162 -3 -297 -4 -300 -3 -6 -99 420 -101 452 -4 39 -1 44 46 92 l45 47 -26 45
c-24 41 -32 69 -34 117 -1 12 -9 17 -31 17 -24 0 -33 6 -40 26 -6 14 -7 36 -4
50 6 23 4 24 -42 24 -27 0 -58 -7 -68 -15 -28 -21 -50 -19 -86 11 -41 35 -60
74 -59 121 1 53 -12 135 -24 151 -16 20 -64 14 -87 -10 -31 -33 -21 -91 32
-175 91 -148 111 -192 104 -234 -3 -21 -36 -89 -74 -151 -37 -62 -101 -170
-142 -240 -41 -71 -77 -128 -81 -128 -6 0 20 82 118 380 16 49 22 56 55 65 53
14 70 36 76 93 6 66 -9 106 -64 172 -86 103 -105 178 -59 240 14 19 25 40 25
48 0 25 -33 41 -82 42 -37 0 -50 -5 -62 -22 -21 -30 -20 -55 5 -133 36 -108
14 -150 -116 -220 -27 -15 -90 -51 -140 -80 -161 -93 -169 -95 -90 -18 39 37
105 99 148 137 77 68 77 68 123 61 l45 -6 -7 98 c-9 133 -26 157 -21 31 l3
-98 -36 5 c-33 5 -42 -1 -181 -127 -80 -73 -165 -150 -188 -171 -24 -21 -40
-41 -37 -44 2 -3 33 4 68 15 35 11 143 46 241 77 166 53 177 58 177 81 0 35
21 39 77 14 59 -26 91 -55 110 -99 14 -32 13 -36 -3 -48 -10 -7 -23 -13 -30
-13 -24 0 -42 -31 -69 -117 -51 -167 -134 -428 -140 -445 -18 -47 20 -9 284
282 131 144 128 138 105 218 -6 22 -5 22 88 22 82 0 100 -3 128 -22 56 -39 59
-52 21 -92 l-34 -35 31 -153 c78 -379 102 -491 107 -496 3 -3 5 -2 5 2 0 4 21
108 46 229 25 122 54 267 65 321 l20 99 -33 34 c-28 29 -30 35 -19 56 21 40
72 57 166 57 93 0 97 -3 81 -61 -9 -34 -7 -40 20 -72 67 -81 377 -417 381
-414 2 2 -14 58 -36 123 -22 65 -62 192 -90 280 -28 89 -57 166 -64 171 -6 6
-25 13 -41 17 -26 6 -28 10 -22 39 9 45 70 103 128 123 53 17 68 13 68 -20 0
-21 13 -27 133 -66 72 -23 178 -58 234 -76 159 -53 165 -65 -87 161 -74 66
-144 128 -155 138 -14 13 -29 17 -51 12 l-31 -5 5 96 c6 109 -11 126 -21 22
-3 -35 -11 -85 -18 -111 -16 -56 -36 -38 204 -183 163 -99 221 -139 171 -120
-10 4 -97 35 -191 68 -176 62 -187 70 -163 108 6 11 1 21 -21 40 -42 35 -48
92 -20 184 26 85 26 101 0 127 -18 18 -30 21 -72 16 -73 -7 -84 -26 -46 -85
21 -33 28 -55 24 -74 -3 -16 -8 -42 -11 -59 -3 -16 -28 -57 -56 -90 -58 -70
-87 -130 -95 -197 -6 -55 8 -87 132 -302 101 -175 127 -222 122 -226 -3 -4
-68 68 -246 271 -55 63 -60 73 -54 100 4 17 8 53 9 80 2 115 3 119 78 245 86
144 98 183 66 223 -16 20 -30 27 -56 27 -29 0 -34 -4 -39 -27 -3 -16 -10 -47
-15 -69 -5 -23 -7 -56 -4 -75 5 -27 0 -42 -26 -77 -40 -55 -74 -69 -118 -48
-18 9 -51 16 -72 16 -40 0 -40 0 -40 -38 0 -41 -14 -62 -42 -62 -20 0 -38 -29
-38 -60 0 -25 -29 -84 -37 -76 -10 10 8 77 18 70 7 -4 10 7 8 30 -4 37 12 59
35 50 7 -3 20 2 31 10 26 19 10 47 -33 60 -51 14 -50 61 1 68 17 2 22 10 22
33 0 23 -5 30 -25 35 -31 7 -35 29 -21 117 12 79 36 115 80 124 41 8 47 15 31
34 -33 39 -149 -3 -151 -55 0 -23 -1 -23 -9 -5 -8 17 -9 16 -11 -10 -1 -27 -2
-27 -6 -6 -4 19 -7 21 -14 10 -6 -11 -9 -8 -9 9 0 39 -59 82 -100 73z"/>
<path d="M1200 708 c0 -50 2 -89 4 -87 9 10 14 179 6 179 -6 0 -10 -40 -10
-92z"/>
<path d="M1201 554 c0 -11 3 -14 6 -6 3 7 2 16 -1 19 -3 4 -6 -2 -5 -13z"/>
</g>
</svg>
