<?xml version="1.0" standalone="no"?>
<!DOCTYPE svg PUBLIC "-//W3C//DTD SVG 20010904//EN"
 "http://www.w3.org/TR/2001/REC-SVG-20010904/DTD/svg10.dtd">
<svg version="1.0" xmlns="http://www.w3.org/2000/svg"
 width="244.000000pt" height="305.000000pt" viewBox="0 0 244.000000 305.000000"
 preserveAspectRatio="xMidYMid meet">
<metadata>
Created by potrace 1.16, written by Peter Selinger 2001-2019
</metadata>
<g transform="translate(0.000000,305.000000) scale(0.100000,-0.100000)"
fill="#000000" stroke="none">
<path d="M887 2894 c-48 -157 -86 -458 -94 -741 l-6 -233 34 -14 c19 -8 43
-24 53 -35 19 -21 20 -21 40 -3 12 11 36 27 54 38 l32 18 0 141 c0 178 -15
374 -40 540 -20 128 -46 241 -35 150 3 -22 14 -101 24 -175 38 -259 49 -640
19 -640 -5 0 -22 -10 -38 -22 -16 -12 -32 -19 -35 -16 -3 3 -4 220 -3 484 3
393 5 473 15 444 l12 -35 -5 45 c-8 58 -19 81 -27 54z"/>
<path d="M1567 2878 c-3 -13 -13 -52 -22 -88 -42 -167 -75 -499 -75 -751 l0
-117 29 -12 c16 -6 37 -20 47 -31 20 -23 37 -24 53 -5 7 8 28 22 48 31 l36 17
-6 227 c-7 240 -26 432 -57 571 -22 97 -19 51 10 -130 26 -164 49 -632 31
-638 -6 -2 -25 -15 -40 -28 -16 -13 -34 -24 -40 -24 -14 0 -15 936 -1 945 10
6 9 40 -2 50 -3 3 -8 -4 -11 -17z"/>
<path d="M1270 2710 c-2 -30 -4 -89 -3 -130 l2 -75 -16 50 -16 50 -13 -35 -12
-35 -2 55 c-1 30 -5 73 -10 95 -5 26 -6 -1 -3 -75 4 -83 1 -139 -11 -202 -18
-93 -35 -328 -36 -473 0 -113 -13 -102 -36 30 -18 107 -31 152 -41 142 -8 -9
-32 -144 -32 -187 -1 -30 4 -38 33 -54 40 -21 53 -64 35 -114 -11 -32 -41 -44
-54 -22 -12 19 -25 10 -25 -18 0 -57 65 -80 90 -31 17 30 28 22 27 -18 -1 -27
5 -40 21 -51 13 -8 22 -25 22 -39 0 -25 0 -25 -26 -8 -36 23 -81 22 -106 -3
l-22 -21 42 -7 c50 -8 66 -25 81 -86 12 -49 15 -166 5 -155 -13 12 -44 -14
-44 -37 0 -25 22 -51 33 -39 9 9 8 -39 -1 -53 -4 -6 -17 -14 -29 -18 -29 -9
-30 -39 -1 -58 13 -9 17 -17 11 -21 -22 -14 -47 20 -46 62 l2 41 -39 0 c-22 0
-58 -7 -81 -16 -39 -16 -42 -16 -67 3 -48 36 -67 71 -68 126 -2 68 -14 139
-27 155 -12 16 -58 16 -80 -1 -10 -6 -20 -28 -23 -47 -6 -39 16 -87 99 -220
50 -80 70 -152 60 -214 -3 -20 0 -49 7 -66 10 -25 10 -34 -2 -52 -19 -29 -298
-348 -304 -348 -3 0 6 19 20 43 13 23 75 132 136 241 111 198 112 200 107 252
-7 67 -36 134 -86 192 -87 106 -99 162 -51 239 l31 48 -22 18 c-33 26 -113 23
-133 -5 -21 -30 -20 -53 5 -124 29 -85 22 -149 -21 -185 -28 -24 -30 -30 -20
-49 7 -13 8 -26 3 -31 -14 -14 -342 -131 -355 -127 -6 2 38 33 98 69 238 144
284 174 284 186 0 7 -7 38 -15 70 -8 31 -15 73 -15 93 0 19 -5 42 -11 50 -8
11 -9 -12 -6 -83 l5 -98 -33 7 c-31 6 -41 -2 -212 -154 -231 -207 -231 -206
-142 -178 428 137 429 138 429 163 0 34 22 38 77 13 59 -26 91 -55 110 -98 16
-40 7 -57 -36 -65 -26 -5 -30 -15 -79 -164 -28 -87 -67 -212 -88 -278 -20 -66
-39 -127 -41 -135 -7 -21 165 162 399 426 18 20 18 24 4 59 -9 20 -13 41 -10
46 8 13 171 11 197 -2 12 -6 34 -23 50 -37 l27 -26 -36 -37 -36 -37 52 -253
c29 -140 60 -287 68 -327 8 -40 16 -71 17 -70 2 2 26 113 54 248 28 135 58
274 66 310 20 84 19 93 -6 116 -37 33 -43 53 -22 76 31 35 77 48 169 48 l86 0
-6 -27 c-20 -79 -25 -70 110 -218 212 -233 274 -297 274 -283 0 7 -32 114 -71
238 -39 124 -75 241 -81 260 -13 46 -32 66 -69 74 -32 6 -36 23 -15 64 20 39
55 68 109 92 55 25 77 21 77 -13 0 -27 -23 -18 293 -118 104 -33 191 -58 193
-56 4 4 -329 308 -368 335 -11 8 -30 11 -48 7 l-29 -6 6 93 c4 62 2 90 -5 83
-5 -5 -13 -54 -16 -107 l-7 -98 44 6 44 6 146 -128 c80 -71 146 -132 146 -136
1 -12 -25 1 -193 97 -211 120 -202 114 -220 152 -21 43 -20 75 4 143 25 70 25
95 0 120 -36 36 -141 20 -140 -21 0 -8 12 -32 25 -54 14 -22 25 -53 25 -70 0
-41 -31 -102 -75 -150 -68 -73 -91 -157 -65 -232 9 -24 21 -33 58 -44 l47 -15
48 -144 c74 -227 96 -301 87 -295 -5 3 -43 65 -85 138 -42 73 -99 170 -127
217 -116 197 -116 188 -1 370 72 113 85 163 53 203 -23 29 -70 37 -88 15 -11
-15 -22 -79 -25 -154 -1 -38 -9 -60 -30 -88 -38 -49 -70 -61 -113 -41 -17 8
-50 15 -72 15 -39 0 -39 0 -39 -39 0 -40 -8 -61 -23 -61 -5 0 -6 15 -3 33 3
23 0 37 -11 46 -18 15 -22 66 -6 76 21 13 11 55 -16 67 -25 12 -26 13 -19 92
8 103 20 135 54 142 73 16 78 25 31 49 -33 17 -63 13 -92 -13 -17 -14 -18 -13
-18 12 0 19 7 29 26 36 23 9 26 15 21 45 -7 44 4 51 31 20 33 -38 63 -31 82
19 13 34 -2 58 -22 38 -24 -24 -47 -13 -59 27 -14 47 1 96 31 106 38 12 42 29
30 127 -6 51 -17 99 -24 106 -11 12 -15 3 -24 -50 -6 -34 -16 -94 -23 -132 -7
-41 -15 -63 -19 -55 -4 8 -10 95 -14 194 -3 99 -11 212 -17 250 -6 39 -14 158
-18 265 -4 107 -9 170 -11 140z m-4 -520 c1 -143 -1 -244 -6 -230 -7 21 -8 16
-9 -23 -1 -27 3 -46 8 -43 5 4 12 0 14 -6 3 -7 6 79 8 192 2 279 16 151 21
-194 2 -208 1 -250 -11 -254 -12 -4 -13 14 -8 114 3 70 2 111 -3 99 -8 -19 -9
-19 -9 -1 -1 15 -4 16 -16 6 -13 -11 -15 27 -14 336 1 259 4 337 12 304 5 -25
11 -160 13 -300z m3 -484 c1 -42 -5 -29 -12 24 -4 30 -3 38 3 25 5 -11 9 -33
9 -49z m-10 -68 c1 -15 -3 -30 -9 -33 -6 -4 -10 14 -9 47 0 39 3 48 9 33 5
-11 9 -32 9 -47z m-29 -123 c13 8 24 -35 12 -47 -13 -13 -20 0 -25 48 -3 21
-2 29 0 16 2 -12 8 -20 13 -17z m27 3 c-3 -8 -6 -5 -6 6 -1 11 2 17 5 13 3 -3
4 -12 1 -19z m60 -350 c-3 -8 -6 -5 -6 6 -1 11 2 17 5 13 3 -3 4 -12 1 -19z
m-138 -140 c-1 -45 -2 -49 -9 -23 -11 44 -11 75 0 75 6 0 9 -23 9 -52z m130
25 c-1 -16 -5 -39 -9 -53 -6 -20 -8 -14 -9 28 -1 28 3 52 9 52 6 0 10 -12 9
-27z m-32 -90 c-3 -10 -5 -2 -5 17 0 19 2 27 5 18 2 -10 2 -26 0 -35z m-40
-45 c-3 -8 -6 -5 -6 6 -1 11 2 17 5 13 3 -3 4 -12 1 -19z m20 -10 c-3 -7 -5
-2 -5 12 0 14 2 19 5 13 2 -7 2 -19 0 -25z m3 -29 c0 -6 7 -18 16 -27 13 -13
15 -32 12 -98 -2 -46 -1 -81 4 -78 4 3 8 40 8 82 l1 77 23 -26 c23 -27 23 -27
8 -107 -9 -45 -19 -79 -23 -77 -8 6 -19 -45 -19 -89 0 -28 -34 -204 -45 -231
-2 -5 -3 124 -2 287 1 164 5 298 10 298 4 0 7 -5 7 -11z"/>
<path d="M1272 800 c0 -14 2 -19 5 -12 2 6 2 18 0 25 -3 6 -5 1 -5 -13z"/>
<path d="M743 1860 c-26 -11 -43 -40 -43 -73 0 -23 3 -24 43 -20 36 4 48 1 74
-21 39 -33 46 -59 22 -87 -10 -12 -19 -35 -19 -50 0 -29 58 -150 89 -184 32
-36 31 -42 -9 -91 -22 -27 -40 -58 -40 -70 0 -43 84 -89 120 -65 12 8 12 15 2
44 -16 45 -15 76 3 83 8 4 45 -2 81 -12 62 -16 66 -16 82 0 16 16 16 18 -2 32
-11 8 -27 14 -36 14 -26 0 -116 62 -155 107 -38 45 -65 100 -65 133 0 33 15
23 34 -24 23 -55 117 -149 176 -175 42 -19 45 -19 49 -3 2 10 -11 28 -35 47
-89 69 -144 140 -144 188 0 15 -7 30 -15 33 -23 9 -18 52 11 81 22 22 32 25
70 20 41 -4 44 -3 44 20 0 93 -128 107 -166 17 -16 -38 -20 -38 -38 -3 -23 47
-91 76 -133 59z"/>
<path d="M1435 1858 c-30 -17 -44 -40 -45 -70 0 -27 1 -27 44 -22 41 6 48 4
75 -24 36 -35 39 -57 11 -72 -13 -7 -20 -21 -20 -39 0 -15 -14 -48 -31 -74
-28 -43 -51 -65 -121 -118 -16 -11 -28 -29 -28 -40 0 -24 1 -24 60 6 63 32
144 114 167 171 21 50 33 57 33 17 0 -75 -108 -193 -210 -230 -56 -21 -68 -38
-39 -56 13 -8 35 -5 85 11 53 17 70 19 76 9 11 -17 10 -51 -2 -83 -22 -58 38
-70 96 -21 34 29 29 57 -21 117 -31 37 -34 45 -23 60 105 142 132 225 89 262
-43 37 19 108 95 108 40 0 44 2 44 24 0 41 -33 71 -78 71 -47 0 -78 -23 -100
-75 l-15 -35 -18 43 c-14 31 -28 47 -53 57 -42 18 -45 18 -71 3z"/>
</g>
</svg>
