<?xml version="1.0" standalone="no"?>
<!DOCTYPE svg PUBLIC "-//W3C//DTD SVG 20010904//EN"
 "http://www.w3.org/TR/2001/REC-SVG-20010904/DTD/svg10.dtd">
<svg version="1.0" xmlns="http://www.w3.org/2000/svg"
 width="244.000000pt" height="305.000000pt" viewBox="0 0 244.000000 305.000000"
 preserveAspectRatio="xMidYMid meet">
<metadata>
Created by potrace 1.16, written by Peter Selinger 2001-2019
</metadata>
<g transform="translate(0.000000,305.000000) scale(0.100000,-0.100000)"
fill="#000000" stroke="none">
<path d="M895 2883 c-4 -15 -10 -46 -15 -68 -41 -187 -65 -406 -75 -702 l-7
-181 29 -18 c15 -10 40 -29 55 -42 l28 -25 19 25 c11 14 34 31 51 38 l30 12 0
127 c0 69 -5 193 -10 275 -10 147 -45 414 -55 424 -8 9 -6 -29 10 -134 21
-146 34 -329 36 -499 2 -182 2 -175 -14 -175 -8 0 -22 -9 -32 -20 -10 -11 -23
-19 -29 -17 -12 4 -16 946 -3 954 10 6 9 41 -3 48 -5 3 -12 -7 -15 -22z"/>
<path d="M1558 2894 c-10 -16 -45 -198 -62 -324 -28 -205 -46 -650 -26 -650 5
0 25 -14 43 -30 39 -34 58 -37 78 -13 8 9 29 22 47 30 l32 13 -5 173 c-8 231
-22 397 -45 542 -24 146 -31 178 -36 173 -2 -3 3 -45 11 -94 29 -179 45 -354
51 -554 l7 -205 -41 -28 c-23 -15 -44 -27 -47 -27 -3 0 -5 217 -4 483 0 278 4
474 9 462 10 -24 11 -1 1 35 -4 14 -10 20 -13 14z"/>
<path d="M1351 2865 c-1 -5 -1 -218 -1 -472 0 -311 -3 -463 -10 -463 -5 0 -11
1 -12 3 -1 1 -4 67 -8 147 -8 158 -20 256 -51 395 -30 137 -30 136 -46 90 -18
-52 -53 -248 -53 -297 0 -21 -4 -38 -8 -38 -5 0 -12 100 -15 223 -8 246 -18
410 -25 403 -2 -3 -4 -197 -4 -433 0 -424 0 -427 -17 -358 l-17 70 -11 -45
c-7 -25 -15 -80 -19 -123 -6 -68 -5 -79 11 -91 24 -17 3 -31 -25 -16 -44 24
-120 -21 -120 -71 0 -31 -19 -22 -35 16 -33 79 -157 79 -165 0 -4 -40 -1 -43
43 -38 40 5 46 2 75 -31 35 -40 40 -63 17 -72 -20 -8 -20 -68 0 -125 9 -23 33
-67 56 -96 33 -44 38 -56 29 -73 -6 -11 -14 -20 -18 -20 -14 0 -42 -58 -42
-88 0 -21 8 -37 25 -50 27 -21 31 -37 14 -47 -11 -7 -68 50 -70 69 0 6 -2 45
-4 86 -5 102 -16 130 -54 130 -50 0 -81 -50 -67 -106 4 -14 38 -81 77 -147 61
-106 70 -127 66 -162 -2 -22 -7 -48 -11 -58 -6 -13 -5 -16 7 -11 12 4 15 -1
14 -28 -1 -18 2 -47 6 -65 8 -29 3 -38 -55 -105 -35 -40 -89 -104 -120 -143
-32 -38 -74 -88 -93 -110 -36 -40 -36 -40 16 60 29 55 60 112 71 127 10 14 18
29 18 33 0 3 27 56 61 116 62 113 70 145 54 220 -10 48 -36 95 -89 162 -70 90
-82 154 -41 215 14 20 25 44 25 54 0 42 -102 53 -138 15 -27 -29 -27 -39 -2
-112 33 -95 24 -186 -20 -200 -19 -6 -21 -12 -15 -45 l6 -37 -143 -53 c-79
-29 -158 -59 -176 -66 -49 -20 -38 0 21 37 149 93 319 203 323 211 3 4 -2 27
-10 50 -7 24 -17 74 -21 112 -11 98 -27 63 -20 -41 l7 -82 -34 5 c-31 6 -41
-2 -215 -165 -100 -94 -184 -175 -187 -180 -8 -12 113 25 319 98 151 53 160
58 163 83 2 16 7 28 12 28 22 0 117 -49 137 -71 47 -52 49 -109 4 -109 -33 0
-43 -20 -92 -181 -27 -90 -65 -215 -85 -277 -19 -62 -34 -117 -32 -122 3 -7
95 93 315 346 l81 94 -13 45 c-8 24 -10 47 -6 49 19 12 165 5 179 -8 3 -3 -10
-86 -29 -184 -30 -155 -35 -172 -41 -137 -5 27 -5 18 -3 -25 3 -44 2 -60 -5
-50 -7 11 -10 8 -10 -16 0 -17 -3 -47 -6 -65 -14 -70 7 -18 56 141 28 90 52
165 54 167 2 2 15 -56 30 -129 15 -73 38 -185 51 -248 13 -63 29 -142 36 -175
9 -46 13 -55 20 -40 4 11 29 130 55 265 60 311 64 328 74 310 4 -8 29 -88 56
-177 27 -89 50 -160 52 -158 2 2 -9 121 -24 264 -14 144 -23 265 -20 269 4 3
32 7 62 8 68 2 81 -11 60 -61 -18 -42 -16 -46 50 -118 22 -23 102 -114 179
-201 76 -88 140 -155 142 -149 6 17 -150 527 -167 548 -6 7 -22 16 -35 19 -62
16 0 127 90 161 49 19 65 14 65 -19 0 -20 15 -27 143 -69 78 -25 182 -60 230
-77 49 -17 91 -30 93 -27 5 5 -112 120 -261 256 -91 83 -103 91 -131 86 l-32
-5 4 92 c5 116 -10 90 -21 -34 l-7 -88 44 6 c43 6 46 5 108 -52 35 -33 100
-94 144 -137 l81 -78 -60 30 c-33 17 -120 68 -194 113 -111 68 -138 90 -155
122 -19 39 -19 41 -2 105 29 103 31 129 11 151 -21 23 -70 26 -110 8 -31 -14
-31 -30 -4 -75 17 -27 20 -46 17 -93 -4 -50 -10 -66 -49 -116 -67 -89 -80
-113 -86 -163 -8 -69 12 -110 67 -131 50 -19 37 9 129 -289 28 -90 50 -166 48
-168 -4 -3 -107 171 -107 181 0 2 -31 59 -70 126 -38 67 -70 126 -70 132 0 5
-10 31 -21 58 -27 63 -21 97 32 181 69 110 102 186 94 217 -10 39 -34 62 -66
62 -39 0 -49 -24 -53 -130 -4 -75 -8 -94 -28 -119 -12 -17 -28 -30 -35 -30
-24 -2 -24 21 1 44 37 34 34 72 -9 122 -19 23 -35 44 -35 47 0 3 18 29 40 58
59 78 91 201 55 214 -25 10 -17 44 20 81 29 29 40 34 72 31 42 -3 51 10 34 54
-23 61 -120 51 -154 -14 -10 -21 -22 -38 -26 -38 -4 0 -13 15 -19 34 -16 43
-68 71 -105 57 -29 -11 -42 -4 -25 16 13 17 4 148 -16 219 -10 33 -16 142 -21
339 -6 252 -18 461 -24 430z m-77 -520 c19 -153 28 -298 16 -265 -6 19 -8 10
-10 -40 -1 -36 -5 -87 -10 -115 -5 -34 -8 14 -9 150 0 110 -4 245 -7 300 -4
55 -4 98 -1 95 4 -3 13 -60 21 -125z m-127 -467 c-3 -8 -6 -5 -6 6 -1 11 2 17
5 13 3 -3 4 -12 1 -19z m187 7 c3 -8 1 -15 -4 -15 -6 0 -10 7 -10 15 0 8 2 15
4 15 2 0 6 -7 10 -15z m-34 -24 c-14 -27 -13 -84 2 -99 10 -9 8 -16 -5 -29
-16 -16 -17 -13 -17 58 0 42 3 79 7 82 14 15 23 6 13 -12z m-214 -112 c33 -27
12 -35 -38 -14 -23 9 -24 -15 -2 -56 11 -23 21 -30 35 -26 16 4 19 0 19 -29 0
-37 -39 -83 -71 -84 -18 0 -49 60 -49 94 0 13 -7 29 -15 36 -22 19 -18 48 11
77 21 21 32 24 61 20 19 -3 41 -11 49 -18z m413 -5 c25 -31 27 -69 6 -78 -8
-3 -15 -17 -15 -31 0 -38 -27 -84 -55 -95 -14 -5 -25 -18 -25 -28 0 -19 -43
-66 -52 -57 -13 13 6 67 28 77 29 14 30 20 4 43 -30 27 -27 71 5 79 25 6 45
39 45 73 0 10 -5 13 -17 8 -45 -18 -55 -18 -51 1 3 19 33 31 80 33 18 1 34 -8
47 -25z m-352 -76 c-3 -7 -5 -2 -5 12 0 14 2 19 5 13 2 -7 2 -19 0 -25z m180
10 c-3 -8 -6 -5 -6 6 -1 11 2 17 5 13 3 -3 4 -12 1 -19z m-28 -18 c6 0 11 -4
11 -10 0 -11 -40 -34 -41 -23 0 4 -2 22 -4 38 -3 27 -2 28 9 13 7 -10 18 -18
25 -18z m-369 -72 c8 -18 28 -54 47 -79 18 -26 33 -57 32 -70 l-1 -24 -8 25
c-4 14 -8 19 -9 11 -3 -36 -91 108 -91 149 0 30 16 24 30 -12z m197 10 c-3 -8
-6 -5 -6 6 -1 11 2 17 5 13 3 -3 4 -12 1 -19z m67 -3 c5 -14 -20 -29 -35 -19
-5 3 -9 13 -9 24 0 13 5 17 19 13 11 -3 22 -11 25 -18z m153 3 c-3 -8 -6 -5
-6 6 -1 11 2 17 5 13 3 -3 4 -12 1 -19z m223 3 c0 -36 -74 -161 -95 -161 -13
0 6 53 30 85 14 17 30 46 36 63 12 35 29 43 29 13z m-252 -8 c-2 -10 -10 -18
-18 -18 -8 0 -16 8 -18 18 -2 12 3 17 18 17 15 0 20 -5 18 -17z m-226 -65 c21
-17 36 -84 17 -73 -32 19 -49 40 -49 62 0 26 9 29 32 11z m152 -27 c-9 -34
-14 -39 -14 -13 0 11 -3 28 -6 36 -5 12 -2 15 10 10 11 -4 14 -13 10 -33z
m-84 -46 c7 -25 10 -48 7 -51 -3 -3 -11 13 -17 36 -6 23 -14 48 -17 57 -4 10
-2 14 4 10 6 -4 16 -27 23 -52z m174 28 c-10 -41 -34 -96 -40 -91 -3 4 6 37
31 106 9 23 15 12 9 -15z m-277 -85 c-3 -7 -5 -2 -5 12 0 14 2 19 5 13 2 -7 2
-19 0 -25z m373 11 c0 -11 -4 -17 -10 -14 -5 3 -10 13 -10 21 0 8 5 14 10 14
6 0 10 -9 10 -21z m-57 -34 c-7 -19 -33 -20 -33 -1 0 15 20 26 32 19 4 -2 5
-10 1 -18z m-243 -1 c0 -9 -5 -14 -12 -12 -18 6 -21 28 -4 28 9 0 16 -7 16
-16z m-111 -76 c-1 -18 -4 -44 -8 -57 l-6 -24 -12 26 c-10 22 -10 25 2 20 20
-7 19 17 -2 32 -18 13 -10 35 13 35 9 0 14 -10 13 -32z m298 -5 c-11 -10 -26
8 -20 23 5 15 7 14 15 -1 6 -9 7 -19 5 -22z m144 -16 c-8 -8 -11 -4 -11 14 0
33 14 47 18 19 2 -12 -1 -27 -7 -33z m26 31 c-3 -8 -6 -5 -6 6 -1 11 2 17 5
13 3 -3 4 -12 1 -19z m-412 -60 c15 -70 12 -91 -4 -31 -17 63 -24 109 -16 101
4 -4 13 -35 20 -70z m96 49 c-13 -13 -26 -3 -16 12 3 6 11 8 17 5 6 -4 6 -10
-1 -17z m242 -45 c-14 -54 -41 -115 -29 -67 2 11 10 46 16 78 6 31 15 55 20
52 4 -3 1 -31 -7 -63z m-298 -29 c6 -25 30 -31 38 -10 3 9 9 8 22 -4 16 -15
15 -18 -14 -38 l-30 -22 -11 22 c-7 11 -13 44 -15 72 -1 29 -1 41 1 27 3 -14
7 -35 9 -47z m252 23 c-3 -30 -10 -64 -17 -75 -11 -21 -12 -21 -41 -4 -16 10
-28 24 -27 33 4 20 38 26 38 6 0 -9 4 -16 10 -16 15 0 30 36 30 74 0 20 3 36
6 36 4 0 4 -24 1 -54z m100 -28 c-3 -8 -6 -5 -6 6 -1 11 2 17 5 13 3 -3 4 -12
1 -19z m43 -67 c0 -11 -4 -10 -19 3 -11 10 -17 24 -14 32 4 12 8 11 19 -3 7
-10 14 -24 14 -32z m-536 14 c-18 -28 -50 -35 -40 -9 3 9 6 20 6 25 0 5 11 9
25 9 25 0 25 -1 9 -25z m123 -47 c-3 -8 -6 -5 -6 6 -1 11 2 17 5 13 3 -3 4
-12 1 -19z m280 -10 c-3 -7 -5 -2 -5 12 0 14 2 19 5 13 2 -7 2 -19 0 -25z
m-134 -179 c-4 -15 -8 -17 -14 -8 -6 11 4 28 18 29 0 0 -1 -9 -4 -21z m178
-214 c22 -115 38 -210 36 -212 -9 -8 -97 330 -97 370 0 40 7 63 17 53 2 -2 22
-97 44 -211z m-267 162 c8 -21 6 -31 -7 -44 -16 -16 -17 -16 -17 7 0 14 -3 36
-7 49 -9 34 19 23 31 -12z m196 19 c0 -7 -3 -27 -6 -44 l-6 -31 -18 22 c-16
20 -17 23 -1 44 18 26 31 29 31 9z m-13 -136 c-6 -50 -81 -410 -84 -406 -2 1
4 100 12 219 10 146 11 225 5 243 -21 53 -11 59 31 19 35 -35 40 -45 36 -75z"/>
<path d="M932 2780 c0 -14 2 -19 5 -12 2 6 2 18 0 25 -3 6 -5 1 -5 -13z"/>
<path d="M1332 2700 c0 -19 2 -27 5 -17 2 9 2 25 0 35 -3 9 -5 1 -5 -18z"/>
<path d="M1103 2685 c0 -22 2 -30 4 -17 2 12 2 30 0 40 -3 9 -5 -1 -4 -23z"/>
<path d="M1323 2485 c0 -38 2 -53 4 -32 2 20 2 52 0 70 -2 17 -4 1 -4 -38z"/>
<path d="M1093 2460 c0 -47 2 -66 4 -42 2 23 2 61 0 85 -2 23 -4 4 -4 -43z"/>
<path d="M1043 885 c0 -22 2 -30 4 -17 2 12 2 30 0 40 -3 9 -5 -1 -4 -23z"/>
<path d="M1033 795 c0 -22 2 -30 4 -17 2 12 2 30 0 40 -3 9 -5 -1 -4 -23z"/>
<path d="M1022 700 c0 -19 2 -27 5 -17 2 9 2 25 0 35 -3 9 -5 1 -5 -18z"/>
</g>
</svg>
