<?xml version="1.0" standalone="no"?>
<!DOCTYPE svg PUBLIC "-//W3C//DTD SVG 20010904//EN"
 "http://www.w3.org/TR/2001/REC-SVG-20010904/DTD/svg10.dtd">
<svg version="1.0" xmlns="http://www.w3.org/2000/svg"
 width="244.000000pt" height="305.000000pt" viewBox="0 0 244.000000 305.000000"
 preserveAspectRatio="xMidYMid meet">
<metadata>
Created by potrace 1.16, written by Peter Selinger 2001-2019
</metadata>
<g transform="translate(0.000000,305.000000) scale(0.100000,-0.100000)"
fill="#000000" stroke="none">
<path d="M926 2901 c-9 -13 -54 -270 -61 -346 -4 -38 -8 -81 -10 -95 -2 -14
-6 -83 -9 -155 -3 -71 -9 -185 -12 -252 l-5 -122 42 -28 c23 -15 48 -32 55
-38 9 -6 20 -1 38 18 29 31 48 34 72 10 16 -17 15 -18 -23 -26 -33 -6 -44 -14
-57 -41 -9 -19 -16 -39 -16 -45 0 -6 -4 -11 -10 -11 -5 0 -10 7 -10 16 0 9
-16 32 -35 51 -31 31 -40 35 -68 29 -40 -8 -55 -23 -63 -64 l-6 -32 45 0 c39
0 49 -5 76 -35 36 -41 37 -48 15 -70 -18 -17 -18 -22 9 -233 15 -119 7 -216
-16 -193 -7 7 -7 14 1 23 7 9 9 45 5 108 -4 61 -9 86 -13 70 -6 -21 -8 -23
-15 -7 -4 10 -18 17 -36 17 -57 0 -78 -81 -39 -153 23 -42 26 -71 8 -65 -21 7
-68 108 -68 145 0 19 12 54 26 79 26 43 26 45 8 65 -28 31 -103 23 -123 -13
-14 -24 -13 -35 8 -117 27 -105 23 -150 -16 -180 -21 -17 -24 -26 -19 -53 6
-31 4 -34 -36 -52 -94 -41 -291 -116 -295 -112 -4 3 109 82 307 215 50 33 51
36 46 70 -4 20 -12 71 -18 114 -15 109 -33 100 -24 -14 l7 -91 -29 7 c-27 5
-42 -7 -207 -170 -98 -97 -175 -178 -173 -181 3 -3 23 2 44 10 22 8 91 33 154
56 234 84 250 91 250 116 0 13 4 25 10 29 11 7 75 -18 84 -34 4 -6 -12 -43
-34 -82 -23 -39 -40 -73 -37 -76 3 -2 35 15 72 38 54 34 69 39 76 28 15 -24 5
-43 -29 -53 -30 -8 -34 -15 -56 -90 -55 -183 -137 -488 -133 -492 2 -3 26 23
53 56 27 34 85 105 129 158 44 54 96 119 115 144 36 49 55 61 46 31 -7 -24
-43 -245 -51 -313 l-6 -55 24 50 c183 378 180 371 172 428 -7 55 3 60 55 25
55 -38 58 -51 21 -93 -18 -21 -30 -43 -28 -49 3 -7 15 -66 27 -132 11 -65 34
-189 50 -274 16 -85 32 -172 36 -193 3 -21 8 -36 10 -35 3 4 38 187 88 467
l33 184 -29 33 c-23 26 -27 37 -20 51 16 29 45 51 72 55 24 3 25 1 23 -42 -3
-51 1 -63 69 -210 109 -233 131 -280 135 -276 4 3 -23 180 -48 324 -6 35 -10
65 -8 67 3 2 41 -42 86 -98 174 -216 235 -288 240 -283 4 4 -68 271 -131 485
-20 69 -24 75 -54 83 -25 7 -32 14 -32 33 0 14 5 25 10 25 6 0 46 -23 90 -50
44 -28 80 -47 80 -42 0 4 -18 39 -41 77 -67 114 -65 104 -23 121 38 16 50 12
56 -20 3 -22 26 -32 263 -116 80 -28 149 -50 155 -48 5 2 -66 79 -157 171
-154 156 -167 168 -194 162 l-29 -7 7 91 c4 66 3 91 -6 91 -6 0 -11 -16 -11
-37 0 -21 -3 -69 -7 -106 l-6 -68 42 7 c41 7 42 6 111 -62 106 -104 198 -209
170 -194 -23 12 -169 106 -278 178 -82 54 -97 100 -67 212 20 73 19 96 -5 120
-23 23 -57 26 -95 8 -31 -14 -31 -24 1 -87 24 -46 25 -53 15 -98 -13 -51 -54
-113 -67 -101 -4 4 0 25 9 45 26 62 30 99 13 131 -12 24 -23 31 -55 34 l-39 3
-7 -72 c-4 -40 -11 -85 -16 -100 -11 -35 -6 58 11 235 11 110 11 125 -4 141
-23 25 -20 35 16 76 27 31 36 36 67 33 33 -3 36 0 39 24 4 34 -29 68 -66 68
-38 0 -71 -26 -89 -69 l-16 -36 -11 37 c-17 57 -42 81 -77 74 -32 -6 -34 -4
-19 25 15 26 42 24 70 -6 13 -14 28 -25 33 -25 5 0 29 14 53 32 l44 31 -2 136
-2 136 -6 -121 c-5 -121 -5 -121 -36 -148 -18 -14 -35 -26 -38 -26 -4 0 -6
222 -6 493 0 270 0 497 -1 502 -4 36 -53 -221 -65 -342 -8 -85 -23 -117 -24
-51 0 53 -29 378 -35 393 -2 6 -4 -201 -5 -460 -1 -258 -3 -465 -5 -460 -2 6
-6 36 -10 68 -10 91 -43 71 -46 -28 -1 -67 -17 -89 -19 -25 0 30 -5 73 -10 95
-6 22 -15 92 -20 156 -9 113 -45 320 -60 348 -6 11 -9 10 -13 -5 -19 -60 -47
-232 -52 -314 -4 -52 -13 -128 -21 -169 -8 -40 -14 -94 -15 -120 -1 -43 -1
-44 -10 -16 -5 16 -13 154 -19 305 -10 272 -23 448 -39 545 -5 31 -9 -133 -10
-430 -1 -421 -3 -477 -16 -465 -11 12 -16 61 -20 235 -6 206 -20 366 -46 528
-21 128 -20 60 1 -99 12 -96 23 -250 27 -390 l6 -230 -24 -23 c-13 -12 -32
-27 -42 -32 -17 -10 -18 11 -15 495 2 278 2 506 1 506 -1 0 -4 -4 -7 -9z m362
-741 c6 -85 7 -191 2 -235 l-7 -80 -2 80 c0 44 -4 152 -7 240 -4 88 -4 158 -1
155 3 -3 10 -75 15 -160z m-198 -299 c0 -6 -4 -13 -10 -16 -5 -3 -10 1 -10 9
0 9 5 16 10 16 6 0 10 -4 10 -9z m310 0 c0 -6 -4 -13 -10 -16 -5 -3 -10 1 -10
9 0 9 5 16 10 16 6 0 10 -4 10 -9z m-20 -133 c0 -4 -6 -8 -14 -8 -14 0 -28 35
-18 45 7 6 32 -23 32 -37z m-346 -87 c-4 -42 -8 -78 -10 -80 -6 -7 -24 49 -24
73 0 13 -7 29 -15 36 -20 16 -19 40 2 69 l16 24 19 -23 c16 -20 18 -33 12 -99z
m86 105 c0 -15 -18 -31 -26 -23 -7 7 7 37 17 37 5 0 9 -6 9 -14z m374 -28 c8
-21 6 -32 -7 -46 -9 -10 -17 -30 -17 -44 0 -32 -9 -58 -21 -58 -5 0 -6 20 -3
44 4 27 2 46 -5 50 -14 9 -14 27 -1 61 13 34 41 30 54 -7z m-195 -70 c1 -10
-3 -18 -9 -18 -5 0 -10 17 -9 38 0 30 2 33 9 17 5 -11 9 -28 9 -37z m-149 -14
c0 -8 11 -19 25 -24 15 -6 32 -25 41 -45 8 -19 16 -35 19 -35 2 0 14 18 25 40
11 22 27 40 36 40 8 0 20 14 25 30 6 17 14 30 17 30 21 -1 33 -21 30 -51 -3
-31 -6 -34 -42 -37 -51 -3 -61 -12 -77 -69 l-13 -46 -17 54 c-10 30 -19 55
-19 57 0 1 -12 2 -27 2 -58 0 -73 10 -73 45 0 18 6 35 13 38 15 6 37 -11 37
-29z m-192 -61 c12 -27 44 -74 72 -106 56 -65 68 -99 25 -71 -14 9 -25 20 -25
25 0 5 -13 21 -30 36 -16 14 -30 34 -30 44 0 10 -8 26 -19 36 -20 19 -38 83
-24 83 5 0 19 -21 31 -47z m449 0 c-3 -10 -5 -2 -5 17 0 19 2 27 5 18 2 -10 2
-26 0 -35z m133 5 c-5 -17 -16 -38 -25 -48 -8 -9 -15 -26 -15 -39 0 -13 -9
-26 -24 -32 -13 -6 -29 -22 -34 -34 -6 -13 -20 -29 -32 -35 -35 -19 -24 10 26
70 25 30 57 79 71 108 26 56 48 63 33 10z m-473 -5 c-3 -10 -5 -4 -5 12 0 17
2 24 5 18 2 -7 2 -21 0 -30z m33 -73 c11 -22 16 -40 10 -40 -10 0 -40 52 -40
70 0 19 10 10 30 -30z m300 25 c0 -4 -7 -19 -15 -35 -22 -42 -38 -37 -18 5 14
30 33 47 33 30z m-240 -36 c0 -6 -4 -7 -10 -4 -5 3 -10 11 -10 16 0 6 5 7 10
4 6 -3 10 -11 10 -16z m160 -10 c-7 -11 -14 -19 -16 -16 -7 7 7 37 17 37 6 0
5 -9 -1 -21z m210 -96 c0 -28 -3 -34 -10 -23 -13 20 -13 60 0 60 6 0 10 -17
10 -37z m-570 0 c0 -22 -2 -25 -10 -13 -13 20 -13 40 0 40 6 0 10 -12 10 -27z
m216 -21 c-10 -10 -29 15 -21 28 6 9 10 8 17 -4 6 -10 7 -20 4 -24z m130 1
c-11 -11 -19 6 -11 24 8 17 8 17 12 0 3 -10 2 -21 -1 -24z m-256 -86 c0 -56
12 -77 43 -77 17 0 18 5 12 50 l-7 50 39 -1 c33 0 35 -1 15 -10 -33 -13 -27
-61 8 -69 32 -8 37 -57 5 -52 -11 1 -40 4 -65 5 -36 2 -47 7 -57 27 -15 30
-17 130 -3 130 6 0 10 -24 10 -53z m392 21 c4 -94 -13 -123 -73 -127 -24 -1
-53 -3 -64 -4 -32 -3 -33 40 -2 52 14 6 28 14 31 19 9 15 -5 51 -23 55 -9 3 1
5 22 6 l38 1 -3 -52 c-2 -43 0 -53 14 -56 24 -5 41 33 39 90 -1 53 18 68 21
16z m-602 -121 c0 -5 -7 -4 -15 3 -8 7 -15 20 -15 29 1 13 3 13 15 -3 8 -11
15 -24 15 -29z m790 -14 c0 -22 -17 -50 -25 -42 -5 6 14 59 22 59 1 0 3 -8 3
-17z m-896 -114 c-38 -39 -41 -30 -8 23 22 33 29 39 32 25 2 -11 -8 -31 -24
-48z m876 12 c0 -9 5 -33 11 -54 8 -32 18 -41 53 -57 l43 -18 58 -203 c32
-112 60 -211 63 -219 14 -41 -22 17 -81 130 -36 69 -91 172 -122 230 -56 103
-77 175 -61 216 5 13 9 14 21 4 8 -7 15 -20 15 -29z m-714 7 c4 -12 7 -53 6
-91 0 -38 4 -82 8 -98 8 -26 0 -39 -73 -137 -136 -181 -192 -251 -198 -252 -4
0 47 107 113 238 112 223 119 240 117 292 -1 30 -1 58 0 63 2 16 20 6 27 -15z
m853 -19 c18 -22 30 -43 27 -46 -6 -6 -82 43 -92 59 -7 11 5 28 20 28 7 0 27
-18 45 -41z m51 -59 c0 -5 -5 -10 -11 -10 -5 0 -7 5 -4 10 3 6 8 10 11 10 2 0
4 -4 4 -10z m-554 -35 c17 23 19 2 3 -27 -11 -21 -12 -21 -25 -3 -8 10 -14 26
-14 34 1 13 3 12 12 -3 11 -19 11 -19 24 -1z m-281 -25 c7 11 55 14 55 3 1
-21 -115 -393 -118 -379 -2 8 7 71 19 138 29 164 34 208 20 208 -6 0 -11 10
-11 21 0 17 3 19 14 10 10 -8 16 -9 21 -1z m502 -41 c70 -243 106 -364 110
-378 15 -43 -18 11 -42 69 -15 36 -45 102 -66 148 -46 97 -54 128 -45 177 9
47 27 40 43 -16z m70 29 c-3 -8 -6 -5 -6 6 -1 11 2 17 5 13 3 -3 4 -12 1 -19z
m-212 -178 c-3 -30 -15 -95 -25 -145 l-20 -90 7 85 c9 122 9 222 0 245 -6 13
0 10 18 -10 24 -27 26 -35 20 -85z"/>
<path d="M952 2795 c0 -16 2 -22 5 -12 2 9 2 23 0 30 -3 6 -5 -1 -5 -18z"/>
<path d="M1561 2775 c0 -11 8 -80 19 -153 11 -73 22 -192 26 -265 4 -73 10
-139 15 -147 18 -32 -18 378 -45 515 -8 39 -14 61 -15 50z"/>
<path d="M1032 2660 c0 -19 2 -27 5 -17 2 9 2 25 0 35 -3 9 -5 1 -5 -18z"/>
<path d="M1373 2550 c0 -25 2 -35 4 -22 2 12 2 32 0 45 -2 12 -4 2 -4 -23z"/>
<path d="M1023 2505 c0 -22 2 -30 4 -17 2 12 2 30 0 40 -3 9 -5 -1 -4 -23z"/>
<path d="M1363 2355 c0 -33 2 -45 4 -27 2 18 2 45 0 60 -2 15 -4 0 -4 -33z"/>
</g>
</svg>
