<?xml version="1.0" standalone="no"?>
<!DOCTYPE svg PUBLIC "-//W3C//DTD SVG 20010904//EN"
 "http://www.w3.org/TR/2001/REC-SVG-20010904/DTD/svg10.dtd">
<svg version="1.0" xmlns="http://www.w3.org/2000/svg"
 width="244.000000pt" height="305.000000pt" viewBox="0 0 244.000000 305.000000"
 preserveAspectRatio="xMidYMid meet">
<metadata>
Created by potrace 1.16, written by Peter Selinger 2001-2019
</metadata>
<g transform="translate(0.000000,305.000000) scale(0.100000,-0.100000)"
fill="#000000" stroke="none">
<path d="M1486 2762 c2 -142 2 -144 -7 -62 -18 157 -22 163 -30 45 -5 -60 -13
-153 -19 -205 -6 -52 -14 -207 -17 -343 -3 -136 -10 -250 -15 -253 -4 -3 -9
59 -10 138 l-2 143 -6 -125 c-3 -69 -7 -111 -8 -95 -5 65 -15 105 -28 105 -17
0 -21 -17 -30 -120 l-8 -85 -7 55 c-4 30 -7 107 -8 170 -2 188 -43 492 -62
458 -16 -29 -48 -324 -55 -513 l-7 -190 -13 108 c-7 60 -15 111 -18 115 -14
14 -28 -20 -35 -84 -6 -60 -8 -45 -14 111 -10 263 -26 505 -42 625 -8 58 -15
113 -15 123 0 9 -4 17 -8 17 -5 0 -8 -35 -7 -77 1 -43 0 -55 -2 -28 -2 28 -8
54 -14 60 -5 5 -9 18 -10 30 -1 17 -2 16 -9 -5 -11 -34 -12 -62 -2 -56 8 5 6
-200 -3 -239 -2 -11 1 -148 7 -305 11 -263 8 -353 -10 -335 -4 3 -10 59 -13
123 l-5 117 -2 -127 c-2 -108 -4 -126 -17 -122 -12 5 -15 37 -18 172 l-3 167
-2 -178 -2 -178 27 -23 27 -23 -47 -7 c-52 -8 -77 -33 -77 -77 0 -22 4 -26 30
-26 56 0 99 -60 73 -102 -26 -41 0 -156 51 -230 24 -34 25 -41 15 -65 -20 -43
-38 -32 -41 27 -3 51 -4 52 -35 55 -31 3 -33 6 -33 42 0 33 -4 39 -27 47 -16
5 -48 6 -73 3 -37 -4 -47 -10 -59 -34 -12 -26 -12 -39 3 -100 20 -86 20 -102
2 -109 -18 -7 -26 22 -26 101 0 39 -4 62 -11 62 -9 0 -10 -24 -5 -84 l7 -83
-24 4 c-21 4 -38 -12 -121 -114 -54 -65 -116 -140 -138 -166 -22 -27 -38 -51
-34 -54 3 -3 28 4 55 16 66 28 77 27 56 -5 -9 -14 -15 -27 -13 -30 2 -2 24 7
48 19 234 120 270 140 270 154 0 8 5 13 12 11 22 -8 49 -55 55 -96 5 -38 3
-42 -20 -47 -15 -4 -28 -14 -31 -23 -7 -28 -85 -362 -105 -455 -10 -48 -16
-87 -12 -87 3 0 23 25 45 56 21 30 40 54 42 52 2 -2 -3 -31 -11 -63 -12 -52
-13 -78 -2 -64 5 6 46 77 75 129 13 25 50 88 80 140 88 150 92 160 90 215 l-3
50 37 3 c45 4 89 -18 108 -52 12 -24 11 -29 -10 -58 -23 -31 -23 -34 -12 -122
6 -50 20 -149 31 -221 11 -72 27 -177 35 -234 9 -57 18 -106 20 -108 2 -2 8
29 14 69 6 40 18 118 27 173 29 191 55 375 55 396 0 11 -10 33 -22 50 -21 28
-21 32 -7 57 20 36 55 53 104 50 l40 -3 -3 -51 c-3 -49 1 -59 94 -220 54 -93
108 -188 122 -212 13 -23 25 -42 26 -42 5 0 -12 93 -19 112 -4 10 -3 18 3 18
5 0 15 -13 22 -30 7 -16 15 -30 19 -30 3 0 17 -18 31 -40 43 -70 43 -62 -8
160 -78 339 -85 363 -114 374 -32 12 -36 35 -14 88 18 41 41 64 51 48 6 -9
278 -150 290 -150 3 0 -1 13 -10 29 l-15 30 92 -39 c51 -21 95 -37 97 -35 2 3
-21 33 -51 67 -29 35 -65 77 -78 94 -14 17 -56 68 -94 113 -61 72 -72 82 -94
76 l-25 -6 6 91 c7 104 -7 115 -16 13 -6 -74 -14 -103 -28 -103 -13 0 -10 67
6 135 11 47 12 64 2 85 -11 22 -19 25 -74 28 -84 4 -107 -9 -98 -54 6 -33 5
-34 -28 -34 -38 0 -47 -15 -47 -77 0 -39 -12 -43 -28 -8 -10 22 -7 31 19 72
48 77 76 201 49 218 -5 3 -10 20 -10 36 0 40 39 79 80 79 27 0 30 3 30 33 0
51 -27 70 -84 62 -25 -4 -46 -3 -46 1 0 5 14 21 32 35 l32 27 -2 203 c-2 112
-7 260 -13 329 -14 175 -49 434 -60 444 -2 3 -3 -61 -3 -142z m-36 -513 c0
-298 -1 -320 -17 -308 -14 13 -15 38 -9 259 6 232 14 370 22 370 2 0 4 -145 4
-321z m-220 -199 l0 -441 -21 20 c-22 20 -22 23 -16 313 5 254 23 548 34 548
1 0 3 -198 3 -440z m-106 -193 c26 -26 32 -58 20 -104 -5 -18 -11 -21 -35 -16
-24 4 -29 2 -29 -13 1 -64 40 -94 72 -54 l18 22 0 -40 c0 -27 5 -42 15 -46 9
-3 23 -22 31 -41 8 -19 16 -35 19 -35 3 0 11 16 19 35 8 19 22 38 31 41 9 4
15 19 15 43 1 32 2 34 14 19 7 -10 20 -18 29 -18 21 0 47 38 47 68 0 22 -3 24
-29 19 -33 -7 -41 4 -41 57 0 21 11 47 32 74 36 47 40 49 64 25 17 -17 17 -18
-2 -21 -50 -7 -61 -13 -72 -37 -7 -14 -12 -37 -12 -50 0 -22 5 -25 35 -25 24
0 37 -6 45 -19 13 -25 13 -68 0 -76 -5 -3 -10 -19 -10 -35 0 -16 -5 -41 -10
-55 l-10 -26 -26 20 c-15 12 -33 21 -40 21 -21 0 -50 -37 -63 -82 l-13 -42
-21 54 c-12 29 -29 58 -38 63 -22 14 -79 -9 -80 -32 -1 -22 -27 38 -31 75 -2
16 -9 39 -16 52 -21 37 4 76 51 80 33 3 37 6 37 31 0 16 -10 41 -22 56 -18 23
-27 26 -55 22 -40 -7 -41 -1 -6 35 l28 29 6 -24 c3 -13 18 -35 33 -50z m-110
-21 c-6 -16 -8 -17 -16 -2 -11 19 0 42 13 29 6 -6 7 -18 3 -27z m466 8 c0 -8
-4 -14 -10 -14 -5 0 -10 9 -10 21 0 11 5 17 10 14 6 -3 10 -13 10 -21z m-121
-336 c-13 -24 -79 -102 -79 -92 0 3 5 26 11 51 10 36 18 48 43 58 38 16 41 14
25 -17z m-207 10 c20 -16 38 -79 38 -136 l0 -42 -27 17 c-38 23 -73 55 -84 76
-14 24 -8 22 37 -18 21 -19 45 -35 52 -35 22 0 13 36 -19 76 -47 59 -53 74
-31 74 10 0 25 -6 34 -12z m239 -85 c-11 -21 -46 -53 -83 -76 l-28 -17 1 32
c0 18 3 27 6 21 8 -21 28 -15 69 22 45 40 48 41 35 18z m264 -89 c-3 -30 -11
-54 -16 -54 -12 0 -11 18 3 82 14 65 23 47 13 -28z m-511 -44 c11 0 13 -8 9
-35 -5 -30 -2 -36 21 -45 34 -13 35 -47 0 -62 -22 -10 -27 -9 -35 5 -12 21
-41 22 -81 1 -30 -15 -32 -15 -45 2 -20 27 -16 31 25 30 l37 -1 -3 68 -4 68
31 -15 c16 -9 37 -16 45 -16z m43 8 c-3 -8 -6 -5 -6 6 -1 11 2 17 5 13 3 -3 4
-12 1 -19z m208 -48 c-7 -59 -7 -59 22 -65 15 -4 32 -8 37 -9 5 -1 1 -9 -8
-18 -14 -15 -19 -15 -44 -2 -35 18 -51 18 -72 -1 -19 -17 -45 -12 -54 11 -8
21 3 41 26 47 15 4 19 12 16 37 -3 27 1 34 27 45 54 24 58 21 50 -45z m-700 1
c7 -12 -35 -74 -88 -130 -40 -42 -140 -121 -152 -121 -7 0 85 117 158 203 48
55 69 67 82 48z m55 -5 c0 -15 -61 -78 -68 -72 -5 5 52 85 61 86 4 0 7 -7 7
-14z m1191 -180 c46 -37 86 -72 87 -77 4 -10 -74 21 -117 47 -14 8 -41 38 -58
65 -54 80 -50 79 88 -35z m-207 48 c5 -19 22 -32 69 -54 34 -15 71 -37 81 -49
24 -26 13 -27 -28 -2 -17 11 -58 34 -91 53 -102 56 -102 56 -85 68 26 17 48
11 54 -16z m36 6 c0 -5 -4 -10 -10 -10 -5 0 -10 5 -10 10 0 6 5 10 10 10 6 0
10 -4 10 -10z m-567 -93 c3 -24 11 -57 17 -73 11 -27 12 -28 25 -10 8 10 17
42 21 72 5 41 10 54 23 53 10 0 11 -2 4 -6 -7 -2 -13 -22 -13 -42 0 -21 -11
-59 -25 -85 -25 -47 -25 -48 -26 -329 l-1 -282 -33 224 -33 224 29 47 c31 51
36 79 18 112 -14 25 -28 138 -19 138 4 0 10 -19 13 -43z m-623 -21 c-14 -13
-27 -22 -29 -20 -7 6 31 44 43 44 6 0 -1 -11 -14 -24z m347 -23 c-3 -10 -5 -4
-5 12 0 17 2 24 5 18 2 -7 2 -21 0 -30z m-53 -75 c-28 -163 -32 -177 -87 -311
-64 -156 -61 -136 29 232 20 84 34 110 56 111 4 0 5 -15 2 -32z m56 19 c0 -1
-13 -34 -30 -72 -31 -73 -36 -71 -19 5 14 64 17 70 34 70 8 0 15 -1 15 -3z
m550 -57 c-15 -54 -24 -45 -15 16 4 31 10 43 17 36 6 -6 6 -24 -2 -52z m76
-117 c-6 -7 -56 81 -56 99 0 37 16 23 37 -33 13 -34 21 -64 19 -66z m60 -161
c42 -92 26 -90 -27 3 -60 107 -109 202 -109 212 0 15 114 -164 136 -215z m77
-10 c3 -9 15 -37 27 -62 l21 -45 -26 28 c-33 35 -72 119 -79 172 l-6 40 29
-58 c16 -32 31 -65 34 -75z m-848 -9 c-4 -10 -13 -38 -22 -63 -19 -57 -27 -66
-18 -20 11 61 26 100 37 100 6 0 7 -8 3 -17z"/>
<path d="M1441 2874 c0 -11 3 -14 6 -6 3 7 2 16 -1 19 -3 4 -6 -2 -5 -13z"/>
<path d="M955 2760 c-4 -28 -5 -53 -2 -56 2 -3 7 19 11 47 4 28 5 53 3 56 -3
2 -8 -19 -12 -47z"/>
<path d="M1415 2697 c-4 -42 -5 -81 -3 -89 3 -7 8 25 12 71 4 46 5 86 2 88 -2
2 -7 -29 -11 -70z"/>
<path d="M932 2559 c-7 -63 -11 -140 -11 -170 1 -30 8 16 15 101 8 85 13 162
11 170 -2 8 -8 -37 -15 -101z"/>
<path d="M1403 2540 c0 -30 2 -43 4 -27 2 15 2 39 0 55 -2 15 -4 2 -4 -28z"/>
<path d="M964 2335 c0 -71 1 -99 3 -62 2 37 2 96 0 130 -2 34 -3 4 -3 -68z"/>
<path d="M1394 2375 c0 -49 1 -71 3 -48 2 23 2 64 0 90 -2 26 -3 8 -3 -42z"/>
</g>
</svg>
