<?xml version="1.0" standalone="no"?>
<!DOCTYPE svg PUBLIC "-//W3C//DTD SVG 20010904//EN"
 "http://www.w3.org/TR/2001/REC-SVG-20010904/DTD/svg10.dtd">
<svg version="1.0" xmlns="http://www.w3.org/2000/svg"
 width="244.000000pt" height="305.000000pt" viewBox="0 0 244.000000 305.000000"
 preserveAspectRatio="xMidYMid meet">
<metadata>
Created by potrace 1.16, written by Peter Selinger 2001-2019
</metadata>
<g transform="translate(0.000000,305.000000) scale(0.100000,-0.100000)"
fill="#000000" stroke="none">
<path d="M947 2873 c-53 -349 -65 -494 -68 -768 l-2 -180 24 -14 c34 -19 60
-57 53 -76 -5 -13 -10 -12 -32 10 -13 14 -36 25 -49 25 -31 0 -73 -42 -73 -75
0 -22 4 -25 39 -25 32 0 44 -6 65 -31 29 -34 32 -55 11 -83 -10 -13 -12 -32
-8 -63 5 -37 3 -46 -15 -59 -11 -8 -22 -27 -24 -42 -2 -15 -8 -26 -15 -25 -7
2 -13 -3 -13 -11 0 -7 -7 -19 -15 -26 -10 -9 -15 -32 -15 -76 0 -71 -14 -84
-29 -26 -16 55 -14 74 14 127 24 45 25 49 9 66 -27 30 -89 26 -111 -7 -15 -23
-15 -32 -3 -83 7 -31 15 -86 17 -123 4 -59 2 -69 -19 -90 -16 -16 -23 -34 -23
-62 l0 -39 -148 -64 c-82 -36 -150 -63 -153 -61 -2 3 29 28 69 56 39 29 114
85 165 125 l94 72 -6 40 c-4 22 -11 71 -15 108 -13 102 -24 95 -19 -11 l6 -93
-28 6 c-27 6 -39 -6 -189 -172 -88 -98 -158 -179 -157 -181 4 -3 201 73 314
122 45 19 82 31 82 27 0 -5 -16 -35 -35 -67 -19 -32 -35 -61 -35 -66 0 -4 44
19 98 52 53 33 103 60 110 60 13 0 32 -39 32 -66 0 -8 -14 -21 -31 -28 -31
-13 -33 -17 -80 -202 -27 -104 -59 -233 -72 -287 -23 -94 -21 -122 5 -73 28
51 208 290 214 283 2 -1 -5 -52 -16 -112 -11 -61 -22 -126 -25 -145 -3 -22 36
46 106 184 107 213 110 220 104 267 -7 47 -6 49 17 49 32 0 87 -35 97 -63 6
-17 3 -29 -16 -51 -30 -36 -31 -23 33 -406 24 -145 44 -269 44 -274 0 -40 16
43 61 317 55 334 55 327 13 384 -16 22 -15 24 19 58 25 25 44 35 65 35 39 0
43 -7 31 -56 -9 -37 -4 -49 103 -266 62 -125 113 -226 114 -225 2 1 -8 67 -22
146 -14 79 -23 148 -21 154 1 5 21 -17 44 -49 101 -145 173 -236 173 -222 0
30 -129 530 -141 544 -6 7 -19 16 -30 19 -14 5 -19 16 -19 41 0 44 22 54 60
25 16 -11 33 -21 37 -21 5 0 25 -11 46 -25 20 -14 37 -23 37 -20 0 3 18 -6 40
-20 22 -14 40 -21 40 -15 0 6 -18 39 -39 73 -22 34 -39 63 -37 64 2 2 240 -90
346 -135 20 -8 -39 65 -179 221 -102 114 -117 127 -140 122 l-26 -6 2 93 c1
77 0 85 -7 48 -5 -25 -9 -73 -9 -107 l-1 -62 36 6 c20 3 39 1 43 -4 6 -10 76
-89 180 -204 24 -27 39 -49 33 -49 -22 0 -294 203 -313 233 -24 40 -24 83 -2
170 16 61 16 70 2 95 -17 31 -49 39 -90 22 -34 -15 -36 -34 -9 -75 30 -45 25
-147 -7 -159 -12 -5 -14 2 -8 43 7 55 -10 121 -32 121 -7 0 -13 11 -13 24 0
38 -10 56 -32 56 -17 0 -19 6 -17 50 2 28 -3 56 -9 62 -21 21 -13 59 18 90 25
25 36 29 60 24 27 -5 30 -3 30 22 0 66 -60 93 -114 51 l-26 -20 0 25 c0 17 12
34 35 53 l35 28 0 125 c0 220 -32 661 -47 647 -2 -3 3 -74 11 -158 9 -85 19
-252 22 -371 l7 -218 -29 -22 c-16 -13 -33 -23 -39 -23 -10 0 -9 940 1 957 3
4 1 15 -4 23 -5 11 -14 -15 -26 -82 -9 -54 -21 -114 -26 -133 -5 -19 -16 -129
-24 -245 l-13 -210 -3 325 c-2 219 -5 309 -11 275 -16 -95 -39 -410 -39 -537
0 -117 -9 -190 -31 -243 -6 -15 -8 -8 -8 25 -1 48 -17 45 -24 -5 -2 -16 -5 6
-6 50 -2 141 -41 446 -61 484 -16 29 -55 -222 -69 -434 -4 -72 -9 -113 -10
-92 -2 51 -21 47 -22 -5 l-1 -43 -15 58 c-9 32 -17 56 -19 55 -1 -2 -8 -44
-14 -93 -13 -110 -19 -135 -31 -135 -6 0 -9 189 -7 480 2 264 0 480 -4 480 -6
0 -11 -33 -25 -165 l-7 -70 -13 65 -12 65 5 -62 c3 -33 7 -71 9 -84 3 -12 0
-171 -5 -353 -9 -274 -13 -333 -26 -346 -13 -13 -15 38 -12 493 2 279 0 507
-3 507 -4 0 -9 -17 -12 -37z m319 -870 c6 -327 5 -363 -10 -378 -15 -15 -16
16 -15 417 2 517 16 496 25 -39z m21 -70 c-2 -37 -3 -9 -3 62 0 72 1 102 3 68
2 -34 2 -93 0 -130z m-259 -56 c3 -12 -4 -17 -22 -17 -28 0 -33 9 -14 28 15
15 32 10 36 -11z m447 2 c0 -7 -8 -15 -17 -17 -18 -3 -25 18 -11 32 10 10 28
1 28 -15z m-375 -10 c0 -5 -7 -9 -15 -9 -8 0 -15 7 -15 15 0 9 6 12 15 9 8 -4
15 -10 15 -15z m301 -2 c-13 -13 -26 -3 -16 12 3 6 11 8 17 5 6 -4 6 -10 -1
-17z m-271 -109 c0 -7 -5 -20 -10 -28 -8 -12 -11 -13 -22 -2 -11 11 -9 16 6
28 24 17 26 17 26 2z m243 0 c11 -9 14 -18 7 -28 -7 -12 -12 -12 -29 4 -31 28
-12 49 22 24z m-349 -44 c10 -27 7 -56 -6 -52 -15 5 -24 68 -10 68 6 0 13 -7
16 -16z m451 -4 c8 -24 -13 -56 -27 -42 -10 10 0 62 12 62 5 0 12 -9 15 -20z
m-188 -42 c-3 -7 -5 -2 -5 12 0 14 2 19 5 13 2 -7 2 -19 0 -25z m-143 -14 c9
-3 16 -14 16 -24 0 -10 9 -20 20 -23 12 -3 28 -23 38 -48 l19 -44 12 38 c7 21
24 45 37 54 13 8 24 21 24 28 0 17 23 25 50 18 17 -4 20 -12 18 -37 -3 -29 -5
-31 -45 -31 -51 0 -69 -16 -86 -75 l-14 -45 -16 57 c-19 61 -29 68 -92 65 -27
-2 -30 1 -33 30 -2 23 1 32 15 36 10 3 19 5 20 6 1 0 8 -2 17 -5z m-87 -237
c-1 -5 -17 9 -34 31 -32 40 -76 149 -66 165 6 10 104 -183 100 -196z m28 98
c4 -11 -2 -7 -14 10 -12 18 -21 44 -20 65 l1 35 13 -45 c7 -25 16 -54 20 -65z
m340 73 c-4 -18 -14 -44 -22 -58 -13 -24 -14 -24 -7 10 8 44 22 80 30 80 3 0
2 -15 -1 -32z m61 -71 c-27 -58 -62 -105 -70 -96 -3 3 11 39 32 80 21 41 42
85 47 99 l8 25 4 -28 c3 -16 -6 -48 -21 -80z m-317 -38 c6 -17 6 -29 1 -29
-11 0 -40 52 -40 71 0 20 27 -9 39 -42z m181 46 c0 -10 -45 -75 -52 -75 -10 0
3 43 20 63 14 16 32 23 32 12z m199 -144 c-1 -52 -14 -119 -19 -96 -1 6 -3 50
-4 99 -2 76 -1 86 11 70 7 -10 13 -41 12 -73z m-593 57 c-3 -13 -6 -49 -6 -81
0 -64 -14 -69 -23 -9 -7 42 8 112 25 112 6 0 8 -9 4 -22z m229 -65 c3 -10 -1
-13 -12 -11 -9 2 -18 8 -20 14 -5 16 25 13 32 -3z m120 -10 c-21 -15 -30 -10
-22 11 4 10 13 13 23 9 15 -6 15 -7 -1 -20z m-268 -60 c-3 -10 -5 -4 -5 12 0
17 2 24 5 18 2 -7 2 -21 0 -30z m400 5 c-3 -8 -6 -5 -6 6 -1 11 2 17 5 13 3
-3 4 -12 1 -19z m-289 -8 c9 0 10 -5 2 -19 -16 -32 -12 -51 15 -61 17 -7 25
-17 25 -34 0 -25 -26 -44 -32 -24 -3 7 -25 11 -56 9 -40 -1 -54 2 -58 14 -8
21 3 32 17 18 6 -6 18 -9 26 -6 11 4 13 17 7 61 -7 54 -6 55 17 49 13 -4 30
-7 37 -7z m230 -47 c-3 -60 -1 -62 42 -52 8 2 15 -3 15 -11 0 -11 -14 -15 -60
-17 -33 -1 -61 -6 -63 -12 -7 -21 -32 2 -32 29 0 22 5 29 23 32 27 4 35 39 12
61 -16 16 -11 18 53 26 10 1 13 -13 10 -56z m262 -12 c-11 -21 -30 -29 -30
-12 0 12 31 43 37 37 3 -2 0 -14 -7 -25z m-640 -71 c6 -11 7 -20 2 -20 -6 0
-12 9 -15 20 -3 11 -3 20 -1 20 2 0 8 -9 14 -20z m483 0 c-3 -12 -8 -19 -11
-16 -5 6 5 36 12 36 2 0 2 -9 -1 -20z m-763 -17 c0 -5 -7 -17 -15 -27 -15 -20
-20 -10 -9 18 6 16 24 22 24 9z m197 -50 c37 -96 1 -333 -60 -395 -12 -12
-100 -135 -139 -196 -10 -15 -18 -23 -18 -17 0 12 89 213 106 240 7 11 20 39
28 61 8 23 26 68 41 100 15 32 29 73 32 90 5 29 -7 106 -22 147 -4 9 -3 17 3
17 6 0 19 -21 29 -47z m872 -24 c24 -38 42 -72 40 -74 -9 -8 -131 123 -125
134 16 26 43 7 85 -60z m-211 -14 c1 -42 4 -80 7 -86 4 -5 23 -18 44 -29 23
-11 40 -28 43 -42 3 -13 26 -102 52 -198 25 -96 48 -186 51 -200 6 -26 -86
159 -180 360 -61 133 -70 178 -47 232 9 21 19 38 23 38 3 0 6 -34 7 -75z
m-781 38 c3 -9 -62 -60 -124 -97 -30 -17 -9 15 39 63 50 49 77 60 85 34z m458
-167 l-16 -38 -20 36 c-10 20 -19 44 -19 53 1 10 7 4 15 -15 17 -39 30 -35 41
11 6 24 9 27 11 12 2 -11 -3 -38 -12 -59z m250 -34 c-11 -44 -23 -47 -34 -7
-12 46 -7 59 20 44 16 -8 19 -17 14 -37z m-470 -6 c6 -39 1 -57 -55 -177 -34
-74 -69 -149 -77 -167 -9 -18 -18 -31 -20 -28 -6 5 24 107 78 266 22 63 39
123 39 133 0 9 6 17 14 17 10 0 17 -15 21 -44z m249 -226 c-7 -58 -20 -154
-28 -215 l-14 -110 0 275 -1 275 29 -60 28 -60 -14 -105z m35 85 c-1 -22 -5
-53 -9 -70 -5 -20 -7 -3 -6 51 0 45 4 77 8 70 4 -6 7 -29 7 -51z m237 -8 c15
-27 58 -237 50 -244 -2 -3 -25 61 -50 141 -26 80 -49 153 -52 163 -8 23 31
-21 52 -60z m-259 -129 c-3 -7 -5 -2 -5 12 0 14 2 19 5 13 2 -7 2 -19 0 -25z"/>
<path d="M971 2834 c0 -11 3 -14 6 -6 3 7 2 16 -1 19 -3 4 -6 -2 -5 -13z"/>
<path d="M1432 2800 c0 -14 2 -19 5 -12 2 6 2 18 0 25 -3 6 -5 1 -5 -13z"/>
<path d="M1061 2764 c0 -11 3 -14 6 -6 3 7 2 16 -1 19 -3 4 -6 -2 -5 -13z"/>
<path d="M1532 2745 c0 -16 2 -22 5 -12 2 9 2 23 0 30 -3 6 -5 -1 -5 -18z"/>
<path d="M1442 2720 c0 -14 2 -19 5 -12 2 6 2 18 0 25 -3 6 -5 1 -5 -13z"/>
<path d="M1073 2665 c0 -22 2 -30 4 -17 2 12 2 30 0 40 -3 9 -5 -1 -4 -23z"/>
<path d="M1083 2555 c0 -33 2 -45 4 -27 2 18 2 45 0 60 -2 15 -4 0 -4 -33z"/>
<path d="M1094 2390 c0 -52 1 -74 3 -47 2 26 2 68 0 95 -2 26 -3 4 -3 -48z"/>
<path d="M1103 2180 c0 -25 2 -35 4 -22 2 12 2 32 0 45 -2 12 -4 2 -4 -23z"/>
</g>
</svg>
