<?xml version="1.0" standalone="no"?>
<!DOCTYPE svg PUBLIC "-//W3C//DTD SVG 20010904//EN"
 "http://www.w3.org/TR/2001/REC-SVG-20010904/DTD/svg10.dtd">
<svg version="1.0" xmlns="http://www.w3.org/2000/svg"
 width="244.000000pt" height="305.000000pt" viewBox="0 0 244.000000 305.000000"
 preserveAspectRatio="xMidYMid meet">
<metadata>
Created by potrace 1.16, written by Peter Selinger 2001-2019
</metadata>
<g transform="translate(0.000000,305.000000) scale(0.100000,-0.100000)"
fill="#000000" stroke="none">
<path d="M1056 2423 c1 -280 -2 -505 -7 -508 -18 -12 -22 60 -23 410 -1 287
-3 341 -10 265 l-10 -95 -12 100 c-7 55 -18 120 -23 145 l-10 45 5 -55 c3 -30
12 -102 20 -160 8 -62 14 -199 15 -335 0 -126 4 -239 8 -250 6 -14 0 -27 -25
-52 -18 -18 -38 -33 -44 -33 -7 0 -10 157 -10 483 0 315 4 477 10 467 9 -13
10 -13 9 0 0 8 -4 24 -8 35 -6 15 -12 1 -24 -55 -39 -178 -62 -400 -73 -705
l-6 -190 51 -43 51 -43 17 21 c28 33 52 43 69 29 24 -20 17 -36 -14 -31 -37 5
-58 -17 -67 -70 l-7 -42 -19 40 c-24 49 -44 64 -85 64 -37 0 -77 -41 -72 -74
2 -16 11 -20 47 -21 35 -1 49 -7 67 -29 27 -30 31 -61 11 -80 -14 -15 -16
-206 -3 -286 5 -29 4 -40 -2 -30 -5 8 -13 41 -17 74 -5 43 -10 55 -18 47 -6
-6 -18 -11 -27 -11 -9 0 -25 -9 -35 -20 -18 -20 -18 -52 1 -147 8 -44 -9 -42
-31 3 -31 66 -31 109 0 166 l28 51 -23 19 c-30 25 -85 23 -111 -3 -23 -23 -23
-20 6 -152 19 -88 15 -118 -22 -155 -23 -23 -25 -29 -15 -54 10 -28 10 -29
-45 -53 -30 -14 -59 -25 -63 -25 -3 0 -51 -18 -105 -40 -54 -22 -100 -38 -102
-36 -4 4 74 60 237 170 47 32 90 64 96 72 8 10 7 29 -2 71 -7 32 -17 83 -22
113 -10 53 -10 52 -10 -40 l1 -95 -30 3 c-26 3 -47 -15 -197 -169 -92 -94
-165 -173 -162 -176 3 -3 29 4 58 16 29 11 98 37 153 57 226 81 220 78 223
107 2 15 8 27 13 27 17 0 49 -20 49 -30 0 -5 -23 -48 -51 -95 -49 -84 -57
-114 -22 -83 26 22 164 101 169 96 2 -2 5 -15 6 -27 3 -22 -2 -26 -48 -49 -17
-8 -24 -31 -109 -337 -25 -93 -51 -183 -56 -199 -5 -16 -7 -31 -5 -33 2 -3 71
79 152 181 82 102 151 186 155 186 5 0 -38 -288 -55 -370 -6 -25 105 190 180
353 35 75 40 94 34 127 -12 66 24 75 83 22 33 -32 34 -42 2 -72 -14 -13 -25
-34 -25 -48 0 -13 16 -110 36 -215 19 -106 44 -244 55 -307 18 -101 29 -145
29 -113 0 9 8 56 63 353 55 294 54 284 24 324 -15 19 -27 39 -27 43 0 17 55
62 84 69 l29 7 -5 -53 c-5 -51 -1 -62 74 -217 44 -91 83 -162 86 -159 3 3 0
16 -6 29 -6 12 -41 87 -77 166 -59 130 -65 149 -59 188 3 24 12 43 19 43 7 0
22 -34 34 -78 13 -42 40 -136 62 -209 21 -73 36 -139 33 -147 -3 -8 4 -31 15
-53 26 -49 26 -38 -4 146 -14 85 -24 161 -23 170 2 10 14 1 34 -27 53 -72 278
-342 281 -338 4 3 -14 73 -61 246 -7 25 -30 105 -51 179 -37 128 -40 134 -72
147 -25 11 -33 20 -33 39 0 35 20 32 99 -15 37 -22 70 -40 74 -40 3 0 -14 34
-38 75 -38 63 -54 105 -42 105 1 0 17 4 35 9 30 9 33 8 46 -22 12 -29 25 -36
147 -80 74 -26 170 -61 213 -77 44 -16 82 -28 84 -25 2 2 -74 83 -169 180
-165 168 -175 176 -205 170 l-31 -5 3 97 c4 118 -11 83 -20 -45 l-6 -84 42 7
41 7 133 -133 c74 -74 134 -137 134 -141 0 -10 -100 51 -289 178 -63 42 -78
57 -91 92 -13 38 -13 49 3 110 31 121 18 162 -49 162 -72 0 -91 -30 -54 -85
27 -40 26 -116 -1 -172 -11 -24 -27 -43 -35 -43 -18 0 -18 14 1 49 42 83 23
161 -40 161 -18 0 -35 6 -38 13 -2 6 -7 -26 -11 -73 -11 -119 -11 -119 -20
-127 -8 -8 -7 10 13 251 10 112 9 131 -4 146 -22 24 -19 41 14 78 24 26 37 32
70 32 37 0 41 2 41 25 0 14 -11 37 -25 50 -44 44 -98 27 -130 -42 l-18 -38
-12 34 c-12 38 -48 71 -76 71 -25 0 -24 17 2 30 22 12 41 3 67 -33 13 -17 16
-16 53 18 21 19 44 35 51 35 13 0 5 393 -12 565 -11 115 -41 307 -47 301 -2
-2 5 -71 16 -152 23 -161 41 -420 41 -577 0 -97 0 -97 -32 -127 -18 -16 -37
-30 -41 -30 -4 0 -7 225 -7 501 1 276 0 503 -3 505 -8 8 -47 -203 -64 -343 -3
-29 -9 -53 -13 -53 -4 0 -11 35 -14 78 -20 237 -30 315 -36 292 -4 -14 -4 -95
0 -180 3 -85 5 -229 4 -320 -2 -91 -4 -226 -5 -300 -1 -125 -2 -130 -10 -70
-5 36 -15 76 -22 89 l-12 24 -6 -29 c-4 -16 -7 -48 -8 -71 -2 -62 -21 -65 -21
-3 0 28 -7 67 -15 87 -8 19 -15 63 -15 97 0 117 -54 414 -70 385 -15 -27 -52
-265 -57 -364 -3 -59 -11 -109 -19 -122 -8 -12 -14 -45 -14 -73 0 -27 -4 -50
-9 -50 -11 0 -18 99 -26 340 -6 169 -30 482 -44 565 -4 22 -6 -186 -5 -462z
m232 -279 c5 -82 5 -183 2 -224 -6 -63 -7 -52 -8 70 -1 80 -5 183 -8 230 -4
47 -4 82 0 79 3 -3 10 -73 14 -155z m-204 -285 c-3 -5 -10 -7 -15 -3 -5 3 -7
10 -3 15 3 5 10 7 15 3 5 -3 7 -10 3 -15z m316 1 c0 -5 -4 -10 -10 -10 -5 0
-10 5 -10 10 0 6 5 10 10 10 6 0 10 -4 10 -10z m-270 -104 c0 -7 -6 -19 -14
-25 -19 -16 -32 5 -16 24 16 19 30 19 30 1z m250 -22 c0 -18 -14 -18 -30 1
-16 19 -3 40 16 24 8 -6 14 -18 14 -25z m-354 -11 c6 -19 6 -42 -1 -70 -13
-53 -25 -65 -25 -26 0 17 -7 36 -15 43 -20 16 -19 39 2 62 22 24 27 23 39 -9z
m468 -5 c8 -21 6 -32 -7 -46 -9 -10 -17 -29 -17 -43 0 -13 -5 -31 -10 -39 -7
-11 -10 -7 -10 18 0 18 -5 42 -11 53 -14 28 7 91 29 87 9 -2 21 -15 26 -30z
m-194 -60 c0 -10 -4 -18 -10 -18 -5 0 -10 15 -10 33 0 24 3 28 10 17 5 -8 10
-23 10 -32z m-140 -33 c0 -7 9 -15 20 -18 11 -3 27 -21 35 -41 9 -20 18 -36
21 -36 3 0 12 16 20 36 8 20 23 38 32 41 10 2 25 18 35 35 15 27 20 29 32 17
14 -15 18 -31 16 -63 -1 -15 -7 -17 -29 -13 -45 9 -73 -12 -92 -67 l-16 -50
-14 48 c-15 56 -38 75 -84 69 -29 -3 -35 0 -40 23 -5 18 -2 32 10 45 16 18 18
18 36 3 10 -10 18 -23 18 -29z m-205 -35 c3 -16 31 -62 61 -102 56 -76 70
-111 35 -86 -47 33 -121 153 -121 195 0 33 17 28 25 -7z m115 -20 c0 -14 7
-36 15 -50 22 -38 17 -59 -5 -24 -21 33 -41 142 -21 114 6 -8 11 -26 11 -40z
m444 -48 c-28 -56 -94 -132 -114 -132 -15 0 12 48 50 90 18 19 44 60 59 90 22
46 26 51 29 31 2 -13 -9 -49 -24 -79z m-98 62 c-4 -15 -9 -38 -12 -53 -7 -32
-43 -84 -44 -61 0 8 9 29 20 45 11 17 20 45 20 63 0 17 5 32 11 32 7 0 9 -10
5 -26z m-258 -89 c7 -14 12 -29 12 -33 -1 -10 -40 38 -40 49 0 18 17 8 28 -16z
m178 13 c-3 -7 -9 -21 -12 -30 -6 -16 -24 -26 -24 -13 0 13 25 55 32 55 6 0 7
-6 4 -12z m-386 -123 c0 -25 -4 -45 -10 -45 -5 0 -10 20 -10 45 0 25 5 45 10
45 6 0 10 -20 10 -45z m580 0 c0 -19 -4 -35 -10 -35 -5 0 -10 16 -10 35 0 19
5 35 10 35 6 0 10 -16 10 -35z m-350 -10 c0 -8 -4 -15 -9 -15 -13 0 -22 16
-14 24 11 11 23 6 23 -9z m138 3 c-6 -18 -28 -21 -28 -4 0 9 7 16 16 16 9 0
14 -5 12 -12z m-276 -98 c-4 -39 -1 -55 13 -70 33 -37 47 -26 43 33 -3 55 -2
57 38 57 23 0 24 -1 10 -16 -27 -26 -17 -59 19 -65 14 -3 20 -12 20 -29 0 -24
-2 -25 -55 -22 -77 5 -87 9 -99 44 -16 45 -14 118 3 118 10 0 12 -12 8 -50z
m403 10 c5 -29 2 -50 -12 -77 -16 -35 -22 -38 -63 -40 -25 -2 -54 -4 -65 -5
-15 -2 -20 3 -20 22 0 18 6 26 22 28 26 4 36 27 23 52 -14 26 -13 27 16 33 24
4 25 2 24 -37 -4 -85 3 -93 41 -53 17 18 20 30 15 70 -6 57 9 63 19 7z m-615
-70 c7 -17 10 -34 6 -37 -9 -9 -35 28 -36 50 0 27 16 20 30 -13z m167 -52 c-3
-8 -6 -5 -6 6 -1 11 2 17 5 13 3 -3 4 -12 1 -19z m643 7 c0 -15 -24 -54 -31
-49 -10 6 10 54 23 54 4 0 8 -2 8 -5z m-880 -68 c0 -7 -23 -35 -52 -62 l-51
-50 33 60 c18 33 38 63 43 67 14 8 27 1 27 -15z m146 -115 c2 -46 5 -96 9
-111 4 -21 0 -38 -17 -62 -35 -52 -228 -298 -238 -304 -12 -8 -2 14 119 257
l104 208 -7 58 c-4 32 -3 61 1 65 15 16 27 -31 29 -111z m704 69 c0 -67 16
-95 62 -112 l42 -16 63 -214 c34 -118 62 -220 60 -227 -1 -7 -32 47 -70 120
-37 73 -96 189 -132 258 -63 121 -76 170 -59 214 12 32 34 17 34 -23z m142
-12 c21 -23 37 -43 35 -45 -7 -8 -107 68 -102 76 11 19 30 10 67 -31z m-492
-93 c-16 -48 -26 -52 -45 -17 -20 40 -19 64 2 27 15 -28 16 -29 29 -11 8 10
14 25 14 34 0 8 3 12 6 8 3 -3 1 -22 -6 -41z m-250 -31 c0 -19 -120 -406 -132
-425 -7 -12 -8 -11 -4 5 3 11 15 79 26 150 12 72 28 144 36 161 8 17 14 46 13
65 -2 19 1 40 5 47 10 17 56 15 56 -3z m316 -183 c-4 -26 -16 -92 -26 -147
-19 -104 -27 -79 -10 35 12 90 15 171 5 195 -5 13 -1 11 15 -8 19 -24 21 -35
16 -75z"/>
<path d="M951 2804 c0 -11 3 -14 6 -6 3 7 2 16 -1 19 -3 4 -6 -2 -5 -13z"/>
<path d="M1032 2750 c0 -19 2 -27 5 -17 2 9 2 25 0 35 -3 9 -5 1 -5 -18z"/>
<path d="M1392 2745 c0 -16 2 -22 5 -12 2 9 2 23 0 30 -3 6 -5 -1 -5 -18z"/>
<path d="M1383 2640 c0 -25 2 -35 4 -22 2 12 2 32 0 45 -2 12 -4 2 -4 -23z"/>
<path d="M1373 2505 c0 -33 2 -45 4 -27 2 18 2 45 0 60 -2 15 -4 0 -4 -33z"/>
<path d="M1363 2300 c0 -47 2 -66 4 -42 2 23 2 61 0 85 -2 23 -4 4 -4 -43z"/>
</g>
</svg>
