<?xml version="1.0" standalone="no"?>
<!DOCTYPE svg PUBLIC "-//W3C//DTD SVG 20010904//EN"
 "http://www.w3.org/TR/2001/REC-SVG-20010904/DTD/svg10.dtd">
<svg version="1.0" xmlns="http://www.w3.org/2000/svg"
 width="244.000000pt" height="305.000000pt" viewBox="0 0 244.000000 305.000000"
 preserveAspectRatio="xMidYMid meet">
<metadata>
Created by potrace 1.16, written by Peter Selinger 2001-2019
</metadata>
<g transform="translate(0.000000,305.000000) scale(0.100000,-0.100000)"
fill="#000000" stroke="none">
<path d="M890 2888 c0 -7 -3 -24 -6 -38 -4 -20 -3 -22 5 -10 8 11 11 -120 11
-462 0 -263 -3 -478 -7 -478 -5 0 -19 9 -33 20 -14 11 -31 20 -39 20 -12 0
-13 37 -8 233 7 226 19 355 52 546 17 102 15 133 -4 49 -37 -168 -67 -488 -71
-750 l-1 -97 33 -14 c18 -8 39 -21 47 -30 17 -21 45 -22 62 -1 7 8 26 22 42
31 l30 15 -6 247 c-4 135 -13 293 -21 351 -20 146 -68 380 -78 380 -4 0 -8 -6
-8 -12z"/>
<path d="M1161 2884 c0 -11 3 -14 6 -6 3 7 2 16 -1 19 -3 4 -6 -2 -5 -13z"/>
<path d="M1302 2880 c0 -14 2 -19 5 -12 2 6 2 18 0 25 -3 6 -5 1 -5 -13z"/>
<path d="M1560 2888 c0 -7 -3 -24 -5 -38 -5 -22 -4 -22 4 -5 6 13 10 -131 12
-415 2 -419 0 -521 -6 -528 -2 -2 -22 9 -46 25 l-42 28 7 197 c7 227 19 355
46 519 11 64 20 124 20 134 0 96 -57 -267 -70 -445 -5 -80 -12 -209 -14 -288
l-4 -142 26 -14 c15 -8 36 -23 46 -35 20 -22 51 -28 61 -11 4 6 25 22 47 36
l40 26 -6 176 c-4 98 -12 233 -17 301 -15 189 -71 491 -91 491 -4 0 -8 -6 -8
-12z"/>
<path d="M1291 2580 c-3 -171 -4 -172 -37 -45 l-18 70 -17 -55 c-10 -30 -18
-67 -18 -82 -1 -15 -5 -30 -11 -33 -5 -3 -10 -25 -10 -48 -1 -35 -2 -39 -11
-24 -11 19 -7 253 6 332 6 37 6 38 -8 20 -12 -16 -16 -92 -21 -420 -3 -220 -6
-406 -6 -414 0 -37 -12 5 -29 103 -27 148 -36 153 -57 34 -20 -113 -19 -126
16 -146 30 -17 37 -29 46 -76 6 -36 -12 -76 -35 -76 -11 0 -23 5 -26 10 -12
19 -25 10 -25 -18 0 -16 9 -37 20 -47 17 -15 24 -16 45 -7 14 7 28 19 31 27
12 30 19 14 20 -45 l1 -60 -32 0 c-18 0 -39 -8 -49 -18 -15 -18 -15 -19 8 -30
18 -8 22 -16 19 -36 -3 -14 -7 -26 -10 -26 -7 0 -87 90 -100 113 -7 12 -12 35
-13 50 0 15 -7 30 -15 33 -23 9 -18 52 10 80 21 21 34 25 73 23 44 -3 47 -1
44 21 -10 93 -131 104 -163 15 -15 -39 -25 -44 -34 -16 -3 10 -17 31 -30 45
-35 38 -105 37 -135 -1 -11 -15 -20 -36 -18 -47 3 -18 9 -21 46 -18 37 3 46 0
77 -31 39 -39 44 -63 18 -82 -36 -27 -2 -139 69 -229 21 -26 28 -43 22 -51 -5
-7 -24 -31 -41 -55 -18 -24 -33 -49 -33 -56 0 -23 44 -64 75 -69 50 -9 60 4
44 63 -17 69 -4 86 49 68 36 -13 37 -15 35 -59 -3 -60 -19 -97 -40 -97 -10 0
-31 -7 -47 -15 -38 -20 -69 -8 -111 42 -25 30 -30 46 -32 97 -1 34 -5 81 -10
106 -7 42 -10 45 -41 48 -53 5 -75 -21 -70 -83 4 -40 18 -71 73 -160 53 -85
69 -121 73 -157 5 -51 7 -46 -137 -293 -29 -49 -75 -130 -103 -178 -27 -49
-52 -86 -55 -83 -3 3 11 54 31 113 19 59 51 155 69 213 36 108 37 110 99 135
32 13 37 20 47 63 17 79 0 127 -80 222 -21 25 -43 59 -49 75 -16 41 -14 104 3
124 54 61 37 101 -43 101 -77 0 -98 -46 -65 -140 19 -54 19 -113 0 -150 -10
-19 -47 -48 -107 -83 -156 -92 -280 -158 -287 -155 -4 2 55 59 131 128 l139
125 50 -2 51 -3 -6 63 c-16 149 -18 161 -28 143 -10 -17 -3 -132 9 -163 4 -11
-3 -12 -33 -8 -36 5 -43 2 -89 -40 -27 -26 -88 -81 -134 -123 -172 -158 -196
-181 -181 -181 8 0 119 35 245 77 222 74 230 78 233 105 4 35 23 35 93 0 58
-30 99 -80 99 -120 0 -18 -7 -25 -30 -29 -16 -4 -34 -11 -39 -18 -5 -6 -32
-85 -61 -176 -28 -91 -67 -214 -86 -274 -19 -60 -33 -110 -30 -113 2 -2 22 15
44 39 343 376 363 400 357 416 -15 37 -23 71 -17 76 3 3 45 6 93 6 69 0 91 -4
109 -18 21 -17 22 -21 12 -88 -14 -89 -24 -423 -12 -374 5 19 7 48 4 64 -5 20
-3 26 6 21 8 -5 10 5 7 36 -2 24 -2 36 0 26 2 -9 8 -15 12 -12 9 5 22 -51 72
-298 18 -86 33 -156 35 -155 1 2 21 95 44 208 23 113 46 221 50 240 8 42 12
33 33 -75 10 -52 14 -62 11 -30 -8 90 -11 270 -4 285 7 16 -12 62 -26 60 -5 0
-10 19 -12 42 -2 24 0 40 4 36 4 -4 18 2 32 12 20 17 40 20 115 20 l90 0 -6
-32 c-3 -18 -8 -40 -11 -49 -4 -8 2 -26 14 -40 67 -78 386 -426 388 -424 2 2
-27 99 -63 217 -117 374 -108 351 -146 364 -43 14 -49 47 -17 94 23 35 92 76
138 82 21 2 26 -2 28 -24 2 -20 11 -29 35 -37 18 -5 126 -40 240 -76 115 -37
210 -65 213 -62 2 2 -79 80 -181 173 -175 159 -188 169 -224 167 l-37 -1 2 96
c3 91 2 93 -7 42 -6 -30 -17 -82 -25 -114 -12 -49 -13 -62 -2 -72 7 -6 65 -44
128 -82 192 -118 262 -163 258 -167 -4 -4 -324 107 -355 123 -19 11 -21 16
-12 39 8 23 6 30 -20 53 -43 39 -49 87 -22 170 26 81 27 122 3 143 -25 23 -94
22 -122 -1 l-23 -19 27 -45 c45 -77 34 -137 -41 -228 -52 -63 -79 -117 -93
-187 -11 -60 -5 -73 149 -347 61 -109 110 -201 108 -203 -2 -2 -73 76 -156
173 -149 173 -152 178 -146 213 4 20 8 70 9 112 1 84 15 118 101 248 59 89 71
155 36 190 -21 21 -56 27 -77 13 -13 -9 -27 -79 -28 -147 -2 -97 -89 -180
-148 -141 -13 8 -41 17 -62 20 -47 6 -48 7 -50 53 -1 26 3 37 12 35 8 -1 11 5
6 22 -5 20 -1 25 27 35 17 6 40 11 49 11 24 0 32 -37 18 -83 -14 -45 0 -61 42
-51 79 18 92 70 35 140 -19 23 -35 47 -35 53 0 6 13 25 29 43 66 76 102 198
67 227 -23 19 -20 45 11 75 29 30 61 41 98 34 60 -12 30 78 -32 96 -43 12 -84
-10 -106 -56 -19 -39 -37 -50 -37 -23 0 8 -13 29 -29 47 -51 57 -135 35 -143
-37 -3 -30 -3 -30 44 -27 40 3 51 0 73 -22 28 -28 32 -57 11 -75 -7 -6 -16
-27 -19 -47 -7 -40 -64 -123 -103 -149 l-25 -16 3 38 c2 31 7 39 26 41 12 2
22 7 22 12 0 15 -53 38 -76 34 -19 -3 -21 1 -21 56 -1 33 1 60 3 60 2 0 14
-11 28 -25 14 -14 32 -25 40 -25 20 0 46 39 46 67 0 26 -3 27 -29 11 -41 -25
-70 18 -57 86 5 25 16 40 40 54 32 19 33 22 29 68 -6 77 -24 174 -33 174 -4 0
-13 -30 -20 -67 -21 -123 -33 -174 -42 -179 -5 -4 -6 9 -3 29 4 19 1 85 -5
148 -7 63 -16 247 -19 409 -6 249 -8 269 -10 130z m-72 -450 c-4 -217 -8 -399
-9 -405 0 -5 -5 -3 -10 5 -8 12 -10 9 -10 -12 0 -14 3 -35 7 -45 6 -16 8 -15
14 7 5 19 7 14 8 -23 1 -44 0 -46 -18 -35 -11 6 -21 26 -24 42 -6 40 3 106 14
106 5 0 9 20 9 45 0 32 -4 45 -14 45 -11 0 -13 29 -13 148 l1 147 6 -120 c5
-110 6 -102 8 88 1 138 8 242 19 308 9 54 17 98 18 97 2 -2 -1 -181 -6 -398z
m-289 -561 c23 -48 138 -169 160 -169 6 0 10 -6 10 -14 0 -42 -112 31 -163
106 -35 52 -59 128 -40 128 5 0 20 -23 33 -51z m646 19 c-11 -56 -68 -138
-123 -179 -50 -38 -83 -49 -83 -29 0 5 7 15 16 22 73 58 134 125 154 168 27
57 46 66 36 18z m-376 -15 c0 -22 -2 -25 -10 -13 -13 20 -13 40 0 40 6 0 10
-12 10 -27z m90 8 c0 -11 -4 -23 -10 -26 -6 -4 -10 5 -10 19 0 14 5 26 10 26
6 0 10 -9 10 -19z m-131 -122 c14 -64 14 -132 1 -124 -5 3 -10 31 -10 61 0 43
-3 54 -16 54 -11 0 -14 5 -10 16 3 9 6 25 6 35 0 36 18 10 29 -42z m78 24 c-3
-10 -5 -4 -5 12 0 17 2 24 5 18 2 -7 2 -21 0 -30z m103 -15 c0 -25 -3 -29 -10
-18 -8 12 -10 8 -11 -15 -1 -16 -1 -42 0 -57 1 -14 -3 -29 -8 -33 -15 -8 -14
54 0 111 13 52 29 58 29 12z m7 -110 c-3 -8 -6 -5 -6 6 -1 11 2 17 5 13 3 -3
4 -12 1 -19z m-253 -152 c-3 -21 -8 -35 -11 -32 -2 2 -1 20 3 40 3 21 8 35 11
32 2 -2 1 -20 -3 -40z m89 -33 c-7 -18 -23 -5 -23 18 0 16 2 18 14 7 7 -7 11
-19 9 -25z m122 -1 c-5 -14 -7 -14 -15 -2 -5 9 -4 20 3 28 14 17 22 0 12 -26z
m-180 -92 c5 -8 3 -11 -6 -8 -8 3 -15 20 -16 44 -2 37 -1 37 6 8 4 -17 11 -37
16 -44z m245 11 c0 -12 -20 -25 -27 -18 -7 7 6 27 18 27 5 0 9 -4 9 -9z m-133
-173 c-3 -8 -6 -5 -6 6 -1 11 2 17 5 13 3 -3 4 -12 1 -19z m-77 -50 c0 -7 -5
-20 -10 -28 -8 -12 -10 -9 -10 13 0 15 5 27 10 27 6 0 10 -6 10 -12z m54 -70
c-3 -46 -1 -175 4 -288 5 -113 8 -206 7 -208 -5 -6 -69 329 -73 382 -3 40 -7
54 -13 45 -6 -10 -9 -3 -8 21 0 35 17 89 18 60 1 -7 13 5 28 28 15 23 31 42
35 42 4 0 5 -37 2 -82z m143 -150 c-2 -13 -4 -5 -4 17 -1 22 1 32 4 23 2 -10
2 -28 0 -40z"/>
<path d="M1198 1990 c-2 -49 0 -100 4 -112 3 -13 6 28 7 90 1 61 -1 112 -3
112 -3 0 -6 -40 -8 -90z"/>
<path d="M1151 764 c0 -11 3 -14 6 -6 3 7 2 16 -1 19 -3 4 -6 -2 -5 -13z"/>
<path d="M1313 2600 c0 -36 2 -50 4 -32 2 17 2 47 0 65 -2 17 -4 3 -4 -33z"/>
</g>
</svg>
