<?xml version="1.0" standalone="no"?>
<!DOCTYPE svg PUBLIC "-//W3C//DTD SVG 20010904//EN"
 "http://www.w3.org/TR/2001/REC-SVG-20010904/DTD/svg10.dtd">
<svg version="1.0" xmlns="http://www.w3.org/2000/svg"
 width="244.000000pt" height="305.000000pt" viewBox="0 0 244.000000 305.000000"
 preserveAspectRatio="xMidYMid meet">
<metadata>
Created by potrace 1.16, written by Peter Selinger 2001-2019
</metadata>
<g transform="translate(0.000000,305.000000) scale(0.100000,-0.100000)"
fill="#000000" stroke="none">
<path d="M877 2773 c-14 -76 -31 -172 -37 -213 -13 -92 -30 -387 -30 -532 0
-96 2 -107 19 -113 10 -3 31 -17 47 -30 29 -25 54 -33 54 -17 0 4 18 19 40 32
l39 25 1 125 c0 167 -17 431 -35 555 -19 124 -58 305 -66 305 -3 0 -18 -62
-32 -137z m33 -393 c0 -264 -3 -480 -7 -480 -5 1 -25 15 -46 33 l-38 33 11
244 c10 221 28 396 61 584 6 36 13 66 15 66 2 0 4 -216 4 -480z"/>
<path d="M1537 2833 c-46 -186 -75 -447 -78 -712 -3 -180 -1 -195 16 -205 10
-6 32 -23 48 -37 l30 -26 54 40 c29 22 53 45 53 51 -2 115 -22 494 -30 561
-15 121 -60 378 -69 388 -4 4 -15 -23 -24 -60z m23 -453 c0 -330 -3 -480 -11
-480 -5 0 -26 12 -45 28 l-34 27 0 115 c1 175 17 401 40 550 23 154 39 240 46
240 2 0 4 -216 4 -480z"/>
<path d="M1101 2874 c0 -11 3 -14 6 -6 3 7 2 16 -1 19 -3 4 -6 -2 -5 -13z"/>
<path d="M1356 2798 c-17 -228 -21 -348 -21 -626 0 -166 -3 -302 -7 -302 -5 0
-8 10 -8 23 -2 103 -21 406 -29 462 -13 84 -52 248 -57 242 -18 -17 -56 -225
-65 -352 -18 -249 -23 -298 -35 -302 -22 -7 -26 56 -33 467 -4 287 -8 389 -13
330 -7 -79 -10 -142 -23 -550 -3 -85 -8 -189 -11 -230 l-6 -75 31 -18 c28 -16
31 -23 30 -65 l-1 -47 -9 43 c-11 57 -12 58 -61 65 -55 7 -93 -13 -109 -58
-13 -35 -29 -47 -29 -21 0 24 -49 74 -80 81 -37 8 -85 -16 -94 -47 -11 -44 -8
-48 40 -48 37 0 51 -5 75 -29 31 -32 39 -75 14 -85 -34 -13 -4 -126 55 -208
22 -31 40 -59 40 -62 0 -3 -16 -26 -35 -52 -37 -48 -42 -72 -24 -106 14 -27 3
-36 -19 -15 -11 12 -17 35 -18 70 -2 69 -14 139 -27 155 -5 6 -22 12 -38 12
-34 0 -59 -32 -59 -75 0 -35 37 -117 81 -182 32 -48 52 -112 31 -99 -7 4 -12
13 -12 20 0 8 -25 48 -55 89 -93 127 -104 176 -58 254 l27 46 -23 18 c-15 12
-39 19 -67 19 -36 0 -47 -5 -61 -26 -14 -22 -15 -32 -5 -67 34 -117 37 -143
18 -184 -15 -33 -37 -51 -139 -114 -194 -119 -244 -149 -254 -149 -4 1 55 62
132 136 l140 134 43 -5 42 -6 0 44 c0 76 -12 167 -23 167 -6 0 -8 -32 -4 -91
l7 -91 -31 7 c-28 6 -37 1 -102 -61 -179 -170 -298 -286 -295 -289 3 -4 244
74 308 99 19 8 63 24 97 36 54 19 63 26 63 47 0 13 6 26 14 29 26 10 125 -45
151 -84 36 -52 33 -78 -10 -92 -33 -11 -35 -15 -71 -128 -62 -198 -134 -444
-134 -456 0 -6 12 3 26 19 14 17 80 93 147 170 237 272 222 250 208 296 -7 21
-9 44 -6 49 3 6 26 10 51 10 43 0 44 -1 44 -31 0 -17 -12 -125 -26 -240 -14
-116 -24 -217 -22 -226 2 -9 13 13 25 48 44 126 101 284 113 314 6 17 10 49 7
73 -5 49 0 51 37 17 29 -27 27 -43 -13 -79 -12 -11 -21 -29 -21 -40 0 -12 28
-160 62 -331 l62 -310 13 60 c35 168 113 577 113 593 0 10 -11 29 -25 42 -30
28 -31 44 -5 70 32 32 43 25 36 -23 -5 -34 1 -62 30 -142 19 -55 54 -153 77
-219 44 -124 53 -132 38 -31 -5 33 -9 49 -11 35 -1 -24 -98 367 -99 403 -1 33
43 17 50 -18 6 -29 7 -28 8 8 l1 38 48 -7 c26 -3 48 -8 50 -9 2 -1 -2 -23 -9
-49 l-11 -46 58 -68 c275 -321 314 -365 321 -358 2 2 -29 110 -68 242 -40 131
-77 256 -82 276 -9 30 -18 40 -44 49 -29 9 -33 15 -33 44 0 53 76 119 146 127
25 3 29 -1 32 -24 3 -22 11 -29 50 -41 26 -8 127 -42 224 -76 98 -34 181 -61
184 -61 12 0 -13 25 -182 185 -164 155 -177 166 -205 160 l-30 -7 7 91 c5 66
4 91 -5 91 -6 0 -11 -16 -11 -37 0 -21 -7 -65 -15 -98 -8 -33 -14 -67 -15 -75
0 -9 77 -65 186 -135 102 -66 182 -121 177 -122 -9 -3 -60 14 -210 70 -133 51
-135 53 -128 88 5 23 1 33 -20 52 -39 33 -44 98 -15 193 19 60 21 78 12 99
-13 29 -48 40 -97 31 -50 -10 -60 -35 -30 -77 19 -24 25 -46 25 -81 0 -57 -15
-89 -81 -176 -27 -35 -49 -70 -49 -78 0 -8 -4 -14 -10 -14 -5 0 -10 -12 -10
-26 0 -14 -4 -23 -10 -19 -12 7 -14 42 -2 47 4 2 20 28 35 58 15 30 40 75 54
100 62 103 39 194 -44 178 -20 -4 -32 -52 -37 -156 -2 -42 -9 -68 -20 -80 -9
-9 -23 -26 -31 -37 -10 -15 -16 -17 -26 -8 -16 16 -4 43 20 43 40 0 30 85 -18
139 -27 31 -27 40 5 82 65 85 94 200 59 229 -23 19 -18 39 20 77 32 32 40 35
75 30 34 -4 40 -2 40 13 0 39 -23 70 -58 80 -29 8 -40 6 -64 -11 -15 -11 -37
-37 -47 -57 l-18 -36 -12 36 c-18 56 -43 71 -125 77 -4 1 -5 8 -2 17 3 9 3 66
-1 128 -4 61 -9 103 -11 94 -2 -10 -9 -15 -18 -11 -13 5 -14 60 -14 390 1 212
-1 387 -3 389 -2 3 -7 -33 -11 -78z m-146 -534 c-5 -109 -10 -244 -11 -299
l-2 -100 -9 100 c-10 115 -5 315 13 428 6 43 13 76 15 74 2 -2 -1 -93 -6 -203z
m-60 -369 c0 -14 -4 -25 -10 -25 -11 0 -14 33 -3 43 11 11 13 8 13 -18z m226
-77 l-15 -43 -1 36 c0 19 5 40 12 47 19 19 20 7 4 -40z m-186 -35 c0 -51 -13
-77 -24 -48 -3 8 0 17 6 21 6 4 8 26 4 58 -5 36 -3 47 4 36 5 -8 10 -38 10
-67z m-134 -23 c7 0 15 -7 18 -16 5 -12 2 -15 -10 -10 -9 3 -20 4 -24 1 -12
-8 7 -68 25 -78 18 -10 20 -78 3 -96 -11 -10 -10 -14 5 -22 11 -6 17 -22 17
-42 l-1 -32 -40 45 c-45 50 -69 97 -69 134 0 13 -7 26 -15 30 -41 15 14 104
58 92 12 -3 27 -6 33 -6z m438 -21 c29 -35 32 -46 13 -68 -8 -9 -19 -35 -25
-58 -7 -23 -31 -66 -55 -95 -38 -47 -42 -51 -45 -30 -2 13 2 30 10 39 8 10 12
35 10 69 -3 37 1 60 12 76 21 30 22 69 1 62 -9 -4 -15 0 -15 9 0 15 17 23 52
26 9 0 28 -13 42 -30z m-344 -79 c0 -34 4 -42 25 -50 30 -11 31 -16 6 -30 -31
-16 -51 12 -51 71 0 27 5 49 10 49 6 0 10 -18 10 -40z m190 -15 c0 -58 -15
-77 -51 -68 -26 7 -24 22 6 33 21 8 25 16 25 50 0 22 5 40 10 40 6 0 10 -25
10 -55z m-140 15 c0 -21 -5 -30 -16 -30 -9 0 -13 5 -10 13 3 6 9 20 12 30 9
25 14 21 14 -13z m-256 -93 c27 -55 33 -87 17 -87 -11 0 -47 72 -56 113 -12
46 11 31 39 -26z m163 21 c-3 -7 -5 -2 -5 12 0 14 2 19 5 13 2 -7 2 -19 0 -25z
m433 -57 c-11 -23 -25 -41 -30 -41 -15 0 -12 15 17 77 24 52 27 55 30 31 3
-14 -5 -45 -17 -67z m-300 8 c0 8 3 12 6 9 3 -3 2 -23 -2 -44 -7 -36 -8 -37
-15 -14 -4 14 -7 34 -8 45 -1 16 1 17 9 5 8 -12 10 -12 10 -1z m-87 -85 c16
-36 26 -69 23 -72 -3 -3 -7 -3 -8 -1 -35 58 -64 139 -49 139 3 0 19 -30 34
-66z m180 -8 c-15 -36 -31 -66 -35 -66 -9 0 30 109 45 128 21 27 17 1 -10 -62z
m-293 -10 c0 -8 -4 -18 -10 -21 -5 -3 -10 3 -10 14 0 12 5 21 10 21 6 0 10 -6
10 -14z m410 -6 c0 -11 -2 -20 -4 -20 -2 0 -6 9 -9 20 -3 11 -1 20 4 20 5 0 9
-9 9 -20z m-330 -50 c0 -17 -19 -20 -34 -4 -21 21 -11 37 15 24 10 -6 19 -15
19 -20z m280 21 c0 -5 -7 -17 -16 -26 -13 -12 -20 -13 -28 -5 -8 8 -6 15 8 26
23 16 36 18 36 5z m-348 -154 c18 -80 7 -77 -16 5 -18 63 -20 87 -7 73 5 -6
15 -41 23 -78z m408 74 c0 -20 -42 -143 -47 -137 -8 8 28 146 38 146 5 0 9 -4
9 -9z m-290 -16 c0 -9 -9 -15 -22 -15 -22 1 -23 1 -4 15 25 19 26 19 26 0z
m160 -6 c0 -5 -7 -9 -15 -9 -8 0 -15 7 -15 15 0 9 6 12 15 9 8 -4 15 -10 15
-15z m-227 -86 c10 -15 37 -17 37 -3 0 16 37 11 44 -6 8 -21 -1 -34 -23 -34
-9 0 -23 -6 -30 -12 -22 -23 -49 39 -49 112 l1 45 6 -45 c4 -25 10 -51 14 -57z
m286 3 c-14 -49 -35 -74 -50 -58 -7 6 -23 12 -36 12 -24 0 -27 7 -17 34 8 21
34 20 50 -1 19 -27 36 -4 42 59 5 50 6 51 13 20 4 -19 3 -48 -2 -66z m-429
-51 c0 -27 -12 -32 -29 -12 -8 10 -7 17 1 25 19 19 28 14 28 -13z m-92 -142
c-1 -41 -13 -69 -83 -193 -45 -80 -106 -189 -135 -242 -29 -54 -55 -96 -58
-94 -4 5 115 400 129 427 4 9 29 22 54 29 33 9 50 21 61 41 8 16 14 32 14 36
0 12 11 43 15 43 2 0 3 -21 3 -47z m783 -110 c30 -60 90 -174 133 -256 43 -81
72 -144 64 -141 -7 3 -73 79 -146 170 l-133 164 11 38 c5 22 7 60 4 86 -4 26
-3 46 3 46 5 0 34 -48 64 -107z m-401 28 c0 -9 -20 -37 -20 -29 0 3 -2 13 -5
21 -4 8 0 14 10 14 8 0 15 -3 15 -6z m-157 -43 c6 -36 -3 -72 -50 -210 -32
-92 -59 -166 -60 -164 -2 1 11 63 27 137 17 74 35 154 40 179 18 90 21 100 29
100 5 0 11 -19 14 -42z m104 -69 c-10 -25 -12 -58 -6 -129 17 -231 21 -305 17
-300 -3 3 -22 92 -43 198 l-38 193 38 39 c21 22 40 38 42 36 2 -1 -3 -18 -10
-37z"/>
<path d="M1111 2754 c0 -11 3 -14 6 -6 3 7 2 16 -1 19 -3 4 -6 -2 -5 -13z"/>
<path d="M1382 2710 c0 -19 2 -27 5 -17 2 9 2 25 0 35 -3 9 -5 1 -5 -18z"/>
<path d="M1123 2625 c0 -22 2 -30 4 -17 2 12 2 30 0 40 -3 9 -5 -1 -4 -23z"/>
<path d="M1393 2560 c0 -36 2 -50 4 -32 2 17 2 47 0 65 -2 17 -4 3 -4 -33z"/>
<path d="M1133 2380 c0 -47 2 -66 4 -42 2 23 2 61 0 85 -2 23 -4 4 -4 -43z"/>
<path d="M1404 2240 c0 -58 1 -81 3 -52 2 28 2 76 0 105 -2 28 -3 5 -3 -53z"/>
<path d="M1464 795 c5 -41 11 -73 13 -71 7 7 -9 146 -16 146 -4 0 -2 -34 3
-75z"/>
<path d="M1483 665 c0 -22 2 -30 4 -17 2 12 2 30 0 40 -3 9 -5 -1 -4 -23z"/>
<path d="M1493 585 c0 -22 2 -30 4 -17 2 12 2 30 0 40 -3 9 -5 -1 -4 -23z"/>
</g>
</svg>
