<?xml version="1.0" standalone="no"?>
<!DOCTYPE svg PUBLIC "-//W3C//DTD SVG 20010904//EN"
 "http://www.w3.org/TR/2001/REC-SVG-20010904/DTD/svg10.dtd">
<svg version="1.0" xmlns="http://www.w3.org/2000/svg"
 width="244.000000pt" height="305.000000pt" viewBox="0 0 244.000000 305.000000"
 preserveAspectRatio="xMidYMid meet">
<metadata>
Created by potrace 1.16, written by Peter Selinger 2001-2019
</metadata>
<g transform="translate(0.000000,305.000000) scale(0.100000,-0.100000)"
fill="#000000" stroke="none">
<path d="M1560 2900 c0 -8 -3 -26 -6 -40 -4 -20 -3 -22 5 -10 8 11 11 -122 11
-467 0 -266 -3 -483 -7 -483 -4 0 -24 12 -45 26 l-38 27 0 161 c0 165 17 373
44 551 9 55 18 116 21 135 5 35 5 35 -5 5 -33 -102 -66 -397 -75 -692 -7 -190
-7 -191 15 -198 12 -4 36 -20 54 -36 l33 -28 22 23 c13 14 36 30 52 36 l29 12
0 108 c0 231 -30 556 -70 745 -19 92 -38 152 -40 125z"/>
<path d="M891 2877 c-6 -16 -11 -36 -10 -45 1 -11 4 -7 9 8 9 27 12 -106 14
-623 1 -170 -2 -311 -7 -314 -5 -3 -19 4 -31 16 -12 12 -27 21 -33 21 -6 0
-14 17 -18 38 -9 57 13 437 36 602 11 80 22 163 25 185 l4 40 -10 -35 c-35
-133 -70 -493 -70 -733 0 -114 1 -118 23 -126 13 -5 37 -21 54 -35 l30 -25 23
24 c12 13 36 29 52 36 l31 13 -7 185 c-3 102 -11 240 -17 306 -12 138 -55 400
-74 454 l-13 36 -11 -28z"/>
<path d="M1132 2870 c0 -14 2 -19 5 -12 2 6 2 18 0 25 -3 6 -5 1 -5 -13z"/>
<path d="M1331 2834 c0 -11 3 -14 6 -6 3 7 2 16 -1 19 -3 4 -6 -2 -5 -13z"/>
<path d="M1118 2650 c-4 -91 -11 -252 -14 -357 -5 -153 -10 -193 -20 -193 -8
0 -14 -3 -14 -7 0 -5 -7 -48 -14 -98 -13 -87 -9 -125 14 -125 6 0 10 -10 10
-22 0 -20 -1 -20 -19 -4 -48 44 -119 18 -142 -51 l-12 -36 -15 29 c-28 56 -52
74 -98 74 -34 0 -47 -5 -64 -27 -11 -15 -20 -36 -18 -47 3 -18 9 -21 44 -18
32 3 47 -2 72 -23 42 -36 49 -61 23 -89 -20 -21 -21 -28 -11 -70 12 -55 51
-136 75 -156 38 -31 37 -47 -5 -95 -23 -26 -40 -57 -40 -70 0 -25 31 -61 62
-71 19 -6 26 -44 7 -44 -48 0 -93 67 -96 145 -1 33 -6 80 -10 105 -7 40 -11
45 -36 48 -16 2 -40 -4 -54 -13 -23 -15 -25 -22 -21 -68 4 -42 18 -74 72 -163
95 -158 95 -173 -4 -344 -21 -36 -77 -134 -125 -218 -48 -84 -89 -151 -91
-150 -2 2 24 87 56 188 33 102 64 201 70 220 8 31 16 37 56 49 54 16 64 35 64
119 0 60 -12 84 -85 177 -61 76 -70 142 -29 211 25 43 26 46 9 64 -27 30 -108
28 -129 -2 -21 -30 -20 -52 5 -126 24 -72 20 -119 -14 -156 -31 -35 -364 -233
-374 -223 -2 2 58 62 132 132 l136 128 45 -7 46 -6 -7 98 c-4 53 -12 102 -17
107 -7 7 -9 -20 -5 -83 l6 -93 -33 6 c-30 6 -39 1 -107 -61 -179 -164 -298
-278 -294 -282 2 -2 110 31 239 73 221 73 236 79 236 102 0 36 25 38 87 7 63
-32 89 -62 99 -111 6 -31 4 -33 -25 -39 -17 -4 -34 -11 -39 -18 -8 -10 -63
-178 -118 -361 -13 -44 -32 -107 -43 -140 -19 -61 -19 -83 3 -54 10 14 230
263 340 384 38 41 40 55 20 123 -6 22 -5 22 74 22 45 0 83 -3 85 -7 2 -5 1
-42 -4 -83 -30 -299 -39 -389 -38 -415 l1 -30 9 30 c5 17 6 38 3 49 -4 11 -2
16 3 13 6 -4 22 39 37 97 15 56 31 108 35 115 4 6 15 -30 25 -81 9 -51 21
-111 26 -133 5 -22 24 -112 41 -199 18 -88 34 -156 36 -150 1 5 25 122 53 259
28 138 54 266 59 285 l8 35 11 -27 c6 -15 26 -84 43 -153 18 -68 34 -124 35
-122 1 1 -1 36 -5 77 -5 41 -9 66 -11 55 -1 -11 -17 65 -36 170 -23 130 -30
193 -23 200 13 13 178 20 191 7 6 -6 4 -22 -6 -46 l-15 -36 67 -78 c151 -175
336 -382 339 -379 1 2 -6 30 -16 63 -11 32 -41 129 -66 214 -96 316 -86 291
-127 308 -46 18 -49 41 -13 94 24 36 88 74 135 80 21 2 26 -2 28 -23 3 -28
-20 -19 477 -184 21 -7 -68 81 -254 252 -105 97 -117 104 -146 99 l-31 -6 4
90 c3 62 1 90 -7 90 -6 0 -11 -19 -11 -46 0 -25 -7 -73 -16 -107 -13 -49 -13
-62 -2 -72 15 -14 85 -61 180 -119 124 -78 200 -128 196 -131 -4 -5 -312 106
-345 123 -20 11 -21 16 -11 38 10 22 8 28 -20 53 -44 41 -50 87 -23 178 25 87
26 102 5 131 -12 17 -25 22 -62 22 -26 0 -56 -7 -67 -16 -19 -14 -19 -15 8
-63 39 -71 37 -125 -8 -187 -19 -27 -49 -69 -66 -93 -33 -45 -59 -124 -59
-179 0 -18 13 -56 28 -85 16 -29 73 -132 127 -230 54 -98 96 -180 93 -182 -4
-5 -230 257 -276 320 -20 27 -21 35 -11 63 6 18 9 45 6 59 -13 69 10 144 79
257 55 90 68 121 72 162 4 45 1 53 -19 68 -28 19 -65 21 -76 4 -15 -24 -32
-123 -26 -155 6 -37 -22 -89 -64 -123 -33 -25 -37 -25 -50 3 -10 21 -8 25 22
35 75 28 81 69 20 142 l-35 42 35 48 c69 94 96 200 61 236 -20 19 -9 49 27 80
24 20 39 25 71 22 38 -2 41 -1 44 23 4 32 -47 79 -85 79 -25 0 -76 -44 -99
-85 -10 -17 -12 -15 -30 21 -26 54 -64 71 -115 51 -42 -17 -63 -6 -29 15 16
10 20 23 19 58 -2 69 -23 175 -34 172 -5 -1 -13 26 -16 60 -4 52 -6 41 -8 -57
-1 -66 -8 -137 -14 -159 -10 -31 -12 17 -11 260 1 165 2 355 3 424 3 161 3
156 -9 144 -5 -5 -13 -119 -17 -254 -7 -244 -7 -245 -20 -170 -7 41 -23 115
-35 164 -18 75 -23 86 -30 66 -5 -13 -7 -29 -4 -36 3 -7 1 -14 -5 -16 -19 -6
-49 -207 -59 -388 -6 -102 -14 -196 -18 -210 -4 -14 -9 180 -12 430 -4 388 -6
431 -12 290z m93 -490 c-4 -168 -9 -271 -10 -230 -2 41 -6 98 -11 125 -9 55
-5 -130 6 -264 5 -67 4 -73 -11 -67 -14 5 -16 2 -11 -16 3 -13 6 -32 6 -43 0
-23 16 -9 23 20 3 11 5 1 6 -22 1 -45 -8 -53 -31 -29 -20 19 -19 132 1 128 11
-2 12 6 5 45 -14 78 -8 397 10 528 9 65 16 123 16 129 0 5 2 7 4 5 3 -2 1
-142 -3 -309z m-103 -414 c4 -20 -25 -33 -41 -17 -19 19 -37 12 -37 -14 0 -33
35 -68 61 -60 17 6 19 1 19 -34 0 -28 -4 -41 -14 -41 -7 0 -25 -12 -39 -26
-14 -14 -31 -23 -37 -19 -15 10 -37 55 -44 97 -4 20 -13 39 -21 42 -23 9 -18
35 15 67 27 27 34 30 82 26 39 -3 54 -9 56 -21z m396 -7 c31 -37 32 -49 6 -72
-11 -9 -20 -26 -20 -38 0 -23 -39 -99 -51 -99 -4 0 -16 11 -27 25 -11 14 -27
25 -35 25 -10 0 -16 13 -19 39 -3 38 -2 39 24 36 23 -3 31 2 43 25 27 53 17
74 -25 48 -17 -11 -22 -10 -30 2 -15 23 -12 28 18 33 73 11 90 8 116 -24z
m-570 -165 c10 -25 36 -65 58 -87 25 -26 38 -48 36 -62 -3 -18 -9 -15 -46 23
-48 49 -82 110 -82 147 0 38 13 30 34 -21z m203 24 c-3 -8 -6 -5 -6 6 -1 11 2
17 5 13 3 -3 4 -12 1 -19z m168 -25 c-5 -15 -7 -15 -23 1 -16 16 -16 18 3 32
18 13 20 13 23 -1 2 -9 1 -23 -3 -32z m32 25 c-3 -8 -6 -5 -6 6 -1 11 2 17 5
13 3 -3 4 -12 1 -19z m233 -1 c0 -35 -45 -118 -85 -157 -35 -33 -35 -34 -35
-9 0 13 15 41 35 63 19 21 42 58 52 82 20 48 33 57 33 21z m-376 5 c8 -13 -11
-35 -23 -28 -16 10 -14 36 3 36 8 0 17 -4 20 -8z m-74 -91 c0 -5 3 -23 6 -41
l7 -32 -27 17 c-20 13 -26 26 -26 52 0 31 2 33 20 23 11 -6 20 -14 20 -19z
m117 -28 c-3 -10 -5 -2 -5 17 0 19 2 27 5 18 2 -10 2 -26 0 -35z m153 18 c0
-20 -8 -34 -25 -45 -28 -18 -30 -14 -19 43 9 42 44 44 44 2z m-222 -66 c0 -16
-2 -15 -8 5 -11 34 -11 60 0 35 5 -11 8 -29 8 -40z m146 11 c-3 -15 -8 -25
-11 -23 -2 3 -1 17 3 31 3 15 8 25 11 23 2 -3 1 -17 -3 -31z m123 -38 c-3 -7
-5 -2 -5 12 0 14 2 19 5 13 2 -7 2 -19 0 -25z m-40 -20 c-3 -7 -5 -2 -5 12 0
14 2 19 5 13 2 -7 2 -19 0 -25z m-317 13 c0 -6 -4 -13 -10 -16 -5 -3 -10 1
-10 9 0 9 5 16 10 16 6 0 10 -4 10 -9z m58 -35 c3 -12 -1 -17 -10 -14 -7 3
-15 13 -16 22 -3 12 1 17 10 14 7 -3 15 -13 16 -22z m222 10 c0 -19 -27 -28
-33 -11 -7 15 1 25 20 25 7 0 13 -6 13 -14z m-342 -65 c2 -15 0 -21 -7 -16 -6
3 -15 -4 -20 -17 -9 -21 -10 -19 -10 13 -1 20 2 39 6 43 12 12 28 0 31 -23z
m470 -10 c2 -20 -2 -37 -10 -42 -10 -7 -10 -14 0 -41 24 -59 26 -71 11 -66
-32 10 -59 69 -59 127 0 40 3 52 10 41 8 -13 10 -12 10 3 0 35 35 15 38 -22z
m-459 -93 c-7 -21 -16 -38 -21 -38 -11 0 -10 11 7 40 8 14 15 48 16 75 l2 50
4 -45 c3 -25 -1 -62 -8 -82z m151 101 c0 -5 -4 -9 -10 -9 -5 0 -10 7 -10 16 0
8 5 12 10 9 6 -3 10 -10 10 -16z m130 -5 c0 -8 -4 -12 -10 -9 -5 3 -10 10 -10
16 0 5 5 9 10 9 6 0 10 -7 10 -16z m-216 -80 l6 -49 -15 50 c-8 28 -14 59 -14
70 0 19 1 19 9 -1 5 -12 11 -43 14 -70z m290 7 c-19 -86 -29 -89 -13 -5 13 72
18 88 24 82 3 -3 -2 -37 -11 -77z m-267 17 c-3 -8 -6 -5 -6 6 -1 11 2 17 5 13
3 -3 4 -12 1 -19z m40 -43 c6 10 15 15 22 11 18 -12 13 -33 -14 -50 -24 -16
-26 -16 -35 9 -15 40 -12 65 4 36 12 -22 14 -23 23 -6z m188 -7 c-10 -45 -16
-50 -43 -28 -26 22 -20 44 9 35 12 -4 21 -1 25 9 11 28 16 17 9 -16z m-102
-275 c-5 -12 -7 -12 -14 -1 -13 20 -11 28 5 22 8 -3 12 -12 9 -21z m-122 -86
c-7 -23 -16 -64 -21 -92 -10 -61 -53 -226 -57 -221 -4 4 55 364 63 386 5 12 9
10 17 -8 8 -17 7 -35 -2 -65z m209 26 c0 -34 -1 -36 -16 -21 -13 12 -14 20 -5
37 16 30 21 26 21 -16z m-170 2 c0 -8 -4 -17 -10 -20 -6 -4 -10 5 -10 20 0 15
4 24 10 20 6 -3 10 -12 10 -20z m45 -122 c0 -71 3 -189 7 -263 l7 -135 -19 85
c-44 191 -70 320 -70 340 0 19 55 97 70 99 3 1 5 -56 5 -126z"/>
<path d="M1440 1280 c0 -13 5 -18 15 -14 8 4 15 12 15 20 0 8 -7 14 -15 14 -8
0 -15 -9 -15 -20z"/>
<path d="M1353 2540 c0 -25 2 -35 4 -22 2 12 2 32 0 45 -2 12 -4 2 -4 -23z"/>
<path d="M1153 2495 c0 -27 2 -38 4 -22 2 15 2 37 0 50 -2 12 -4 0 -4 -28z"/>
<path d="M1402 840 c0 -14 2 -19 5 -12 2 6 2 18 0 25 -3 6 -5 1 -5 -13z"/>
<path d="M1413 755 c0 -22 2 -30 4 -17 2 12 2 30 0 40 -3 9 -5 -1 -4 -23z"/>
<path d="M1423 655 c0 -27 2 -38 4 -22 2 15 2 37 0 50 -2 12 -4 0 -4 -28z"/>
</g>
</svg>
