<?xml version="1.0" standalone="no"?>
<!DOCTYPE svg PUBLIC "-//W3C//DTD SVG 20010904//EN"
 "http://www.w3.org/TR/2001/REC-SVG-20010904/DTD/svg10.dtd">
<svg version="1.0" xmlns="http://www.w3.org/2000/svg"
 width="244.000000pt" height="305.000000pt" viewBox="0 0 244.000000 305.000000"
 preserveAspectRatio="xMidYMid meet">
<metadata>
Created by potrace 1.16, written by Peter Selinger 2001-2019
</metadata>
<g transform="translate(0.000000,305.000000) scale(0.100000,-0.100000)"
fill="#000000" stroke="none">
<path d="M946 2873 c-20 -99 -38 -215 -50 -328 -19 -167 -33 -625 -19 -625 6
0 23 -12 38 -26 21 -20 25 -28 15 -34 -7 -5 -25 -4 -39 1 -40 16 -71 3 -87
-37 -18 -44 -12 -54 32 -54 60 0 112 -74 79 -110 -21 -24 -17 -99 8 -150 22
-43 21 -52 -8 -73 -25 -18 -25 -18 -24 5 0 13 4 32 9 43 15 39 -47 74 -77 44
-8 -8 -17 -8 -32 1 -12 6 -38 10 -59 8 -29 -2 -40 -9 -50 -30 -11 -23 -10 -39
8 -107 29 -114 27 -125 -39 -221 -44 -65 -68 -90 -102 -107 -55 -28 -185 -83
-195 -83 -5 0 39 35 97 78 58 42 119 88 136 102 17 14 47 37 66 52 l35 28 -13
57 c-8 32 -15 76 -15 98 -1 22 -6 49 -11 60 -6 13 -8 -12 -5 -78 l4 -98 -27 6
c-24 5 -34 -1 -71 -42 -24 -26 -83 -91 -131 -143 -120 -132 -152 -170 -144
-170 4 0 58 20 119 44 61 24 121 47 134 51 l23 7 -25 -41 c-15 -23 -21 -41
-15 -41 5 0 71 32 146 70 75 39 140 70 144 70 13 0 39 -56 39 -84 0 -18 -9
-30 -30 -41 -16 -9 -30 -18 -30 -20 0 -3 -11 -47 -24 -98 -68 -256 -116 -451
-114 -458 2 -5 37 36 78 91 41 56 76 96 79 89 2 -6 -2 -39 -9 -72 -6 -34 -14
-73 -16 -87 -2 -14 17 11 42 55 26 44 85 143 131 220 83 139 83 140 77 193
l-6 52 38 0 c83 0 139 -67 95 -114 -11 -12 -21 -34 -21 -49 0 -32 99 -629 105
-636 3 -2 5 0 5 5 0 5 9 61 20 124 46 270 80 483 80 507 0 14 -11 38 -25 55
-24 28 -24 30 -8 54 21 33 64 54 109 54 l37 0 -7 -54 c-6 -51 -4 -56 48 -142
29 -49 81 -138 115 -198 34 -59 68 -118 77 -130 15 -20 15 -18 9 34 -4 30 -11
65 -16 78 -5 13 -9 33 -9 44 0 28 13 16 85 -81 33 -45 61 -77 63 -73 3 11
-126 521 -139 543 -5 10 -21 22 -34 25 -15 4 -25 13 -25 24 0 26 29 90 41 90
6 0 81 -36 166 -80 86 -44 159 -78 161 -75 3 2 -8 23 -23 45 -15 22 -26 43
-23 45 3 3 49 -13 103 -35 53 -23 102 -39 107 -38 6 2 -37 58 -95 123 -195
222 -190 217 -219 210 l-26 -7 5 89 c4 60 2 85 -5 78 -5 -5 -12 -50 -14 -100
l-3 -90 36 3 c41 4 27 16 188 -165 45 -51 78 -93 73 -93 -10 0 -223 147 -232
160 -3 4 -15 12 -28 19 -12 6 -34 30 -48 53 -28 45 -33 94 -14 158 15 51 12
106 -6 124 -18 18 -56 21 -84 6 -13 -7 -21 -7 -25 0 -9 15 -61 12 -74 -4 -7
-9 -9 -29 -5 -54 l6 -41 -31 12 c-22 8 -29 16 -25 27 44 98 54 169 29 190 -22
18 -19 35 16 75 26 29 38 35 63 33 25 -2 32 1 34 18 2 11 -7 32 -18 47 -18 22
-30 27 -66 27 -24 0 -44 3 -44 8 0 13 15 29 38 41 18 10 22 20 22 61 0 30 -4
50 -11 50 -7 0 -9 -12 -5 -33 5 -28 2 -35 -28 -60 -19 -15 -36 -27 -38 -27 -2
0 -3 223 -3 495 0 272 -3 495 -6 495 -8 0 -19 -52 -19 -86 0 -13 -4 -24 -10
-24 -5 0 -10 13 -10 29 0 38 -11 91 -19 91 -3 0 -6 -93 -6 -207 0 -280 -16
-729 -27 -745 -14 -23 -29 12 -27 67 0 28 0 59 -1 70 l-1 20 -9 -20 c-7 -17
-9 -17 -9 -2 -1 19 -21 24 -21 5 0 -10 -2 -10 -9 0 -10 17 -21 -16 -21 -66 0
-20 -4 -31 -10 -27 -5 3 -10 45 -10 93 0 144 -30 407 -57 496 -9 31 -19 2 -36
-104 -26 -157 -29 -182 -36 -347 -7 -150 -11 -161 -27 -68 -3 22 -9 34 -11 27
-4 -10 -9 -8 -19 5 -12 17 -13 16 -14 -6 0 -13 -3 -21 -6 -18 -4 4 -10 105
-15 225 -7 206 -14 282 -41 482 -7 47 -12 88 -12 92 -1 3 -3 9 -6 11 -3 3 -4
-63 -2 -146 2 -114 0 -148 -8 -137 -9 12 -10 9 -5 -15 3 -16 8 -165 12 -330 5
-261 4 -302 -9 -313 -9 -7 -23 -9 -33 -6 -19 8 -19 78 -1 544 3 77 2 83 -4 35
-4 -38 -7 23 -6 163 1 206 -4 263 -18 195z m484 -1000 c0 -10 -6 -13 -16 -9
-9 3 -20 6 -25 6 -6 0 -5 9 1 21 9 16 14 18 26 8 8 -6 14 -18 14 -26z m-350
23 c0 -2 3 -12 7 -21 5 -14 2 -16 -18 -10 -31 9 -32 11 -24 24 6 10 35 16 35
7z m-80 -31 c0 -8 -7 -15 -15 -15 -16 0 -20 12 -8 23 11 12 23 8 23 -8z m490
0 c0 -8 -4 -15 -10 -15 -5 0 -10 7 -10 15 0 8 5 15 10 15 6 0 10 -7 10 -15z
m-104 -105 c7 0 21 -11 30 -25 15 -24 15 -29 1 -63 -9 -20 -18 -50 -19 -67 -3
-32 -11 -34 -69 -20 -34 9 -65 -22 -80 -80 -11 -39 -12 -39 -21 -15 -27 69
-42 89 -70 95 -19 5 -37 1 -52 -9 -22 -14 -25 -14 -30 0 -3 9 -6 28 -6 44 0
15 -6 40 -14 55 -8 15 -12 35 -8 43 4 11 11 3 23 -26 14 -32 24 -42 42 -42 12
0 28 5 35 12 9 9 12 6 12 -14 0 -16 9 -32 24 -41 13 -9 30 -33 37 -54 l12 -38
18 42 c10 23 27 47 38 53 12 6 21 19 21 30 0 16 5 18 35 13 33 -5 36 -3 51 32
15 37 13 49 -9 51 -7 0 -20 2 -29 2 -10 1 -18 9 -18 18 0 11 5 14 16 10 9 -3
22 -6 30 -6z m-256 -13 c0 -8 -11 -12 -27 -11 -42 2 -45 3 -38 14 9 15 65 12
65 -3z m-155 -170 c4 -17 8 -41 11 -52 2 -11 -5 -2 -16 20 -20 42 -26 80 -11
70 5 -3 12 -20 16 -38z m540 7 c-6 -32 -31 -84 -41 -84 -2 0 3 19 11 41 8 23
15 50 15 60 0 11 5 19 11 19 7 0 9 -12 4 -36z m-375 -64 c18 -10 45 -69 35
-78 -7 -8 -37 22 -58 57 -19 32 -11 39 23 21z m216 -17 c-8 -16 -26 -39 -40
-52 -22 -21 -26 -22 -26 -7 0 23 27 73 42 79 32 13 39 8 24 -20z m-552 -114
c2 -35 7 -79 11 -96 5 -21 4 -33 -2 -33 -14 0 -23 50 -23 133 0 86 10 83 14
-4z m886 21 c0 -42 -20 -133 -32 -145 -10 -10 -9 1 9 133 6 48 23 57 23 12z
m-700 -27 c0 -7 -4 -13 -10 -13 -5 0 -10 12 -10 28 0 21 2 24 10 12 5 -8 10
-21 10 -27z m510 7 c0 -16 -4 -30 -10 -30 -11 0 -14 43 -3 53 11 12 13 8 13
-23z m-141 4 c-12 -14 -61 -44 -74 -44 -3 0 -5 9 -5 20 0 13 5 17 14 14 8 -3
27 1 43 10 36 19 38 19 22 0z m-175 -25 c5 -5 7 -11 4 -15 -6 -6 -68 23 -68
31 0 8 53 -6 64 -16z m-407 -26 c-3 -10 -5 -4 -5 12 0 17 2 24 5 18 2 -7 2
-21 0 -30z m348 -39 c20 -5 23 -10 18 -40 -5 -29 -2 -35 21 -44 30 -11 35 -44
9 -59 -13 -7 -23 -5 -36 7 -16 14 -24 14 -64 4 -29 -8 -50 -9 -56 -3 -15 15 2
32 31 29 l27 -3 -4 64 c-3 57 -1 63 14 57 9 -3 27 -9 40 -12z m273 -46 l-3
-63 33 3 c22 1 32 -2 32 -12 0 -23 -12 -25 -57 -13 -34 9 -45 8 -66 -6 -32
-21 -57 -12 -57 19 0 17 8 27 25 34 26 10 32 34 15 60 -7 12 -1 17 28 26 20 7
41 12 45 13 5 1 7 -27 5 -61z m-442 -86 c-7 -6 -46 75 -45 95 0 10 11 -6 25
-36 13 -30 22 -56 20 -59z m588 42 c-10 -19 -23 -34 -27 -34 -5 0 -5 6 0 13 6
6 16 30 24 52 9 28 14 34 17 21 2 -10 -4 -34 -14 -52z m-829 -64 c3 -6 -1 -13
-10 -16 -19 -8 -30 0 -20 15 8 14 22 14 30 1z m-45 -13 c0 -7 -9 -18 -20 -25
-22 -14 -25 -9 -10 19 12 21 30 26 30 6z m1108 -13 c2 -12 17 -27 37 -37 37
-18 118 -87 111 -94 -5 -5 -164 78 -210 110 -27 19 -28 21 -10 34 27 20 68 13
72 -13z m-864 -41 c14 -48 17 -91 7 -97 -10 -7 -14 5 -26 77 -6 37 9 53 19 20z
m679 -111 c4 -6 23 -16 42 -22 28 -9 37 -19 45 -48 16 -60 87 -334 94 -367 12
-51 -8 -17 -78 133 -36 78 -77 178 -89 222 -15 54 -28 82 -39 86 -10 3 -18 13
-19 22 -2 34 3 67 14 87 10 17 12 11 18 -41 3 -33 9 -65 12 -72z m-300 96 c-6
-7 -13 -33 -17 -57 -8 -50 -33 -104 -45 -96 -18 11 -41 75 -40 112 l1 38 8
-42 c5 -23 14 -51 20 -63 19 -36 29 -18 54 93 4 15 11 27 17 27 8 0 8 -4 2
-12z m-684 -20 c-8 -7 -23 -20 -34 -28 -19 -14 -19 -14 -5 5 18 26 42 46 48
40 2 -2 -2 -10 -9 -17z m325 -135 c3 -21 6 -45 6 -54 0 -20 -79 -143 -87 -135
-3 3 -1 25 5 48 6 24 16 70 22 103 11 54 22 74 41 75 4 0 9 -17 13 -37z m568
-30 c-3 -41 1 -55 21 -79 13 -16 36 -51 50 -79 32 -63 100 -235 95 -241 -3 -2
-19 24 -38 59 -18 34 -52 94 -75 132 -76 125 -95 171 -89 207 9 51 13 60 27
55 8 -3 11 -21 9 -54z m-658 -115 c-17 -92 -21 -99 -88 -193 -53 -73 -74 -85
-41 -22 8 15 33 71 56 125 23 53 48 104 54 112 7 8 15 23 18 33 13 36 13 14 1
-55z m19 -125 c-9 -27 -19 -52 -23 -58 -3 -5 -12 -29 -20 -53 -7 -23 -15 -40
-17 -39 -7 8 29 142 45 169 25 43 33 33 15 -19z"/>
<path d="M993 2786 c-7 -9 -11 -46 -10 -102 1 -49 3 -75 5 -59 3 23 6 26 11
12 4 -10 6 23 6 73 0 49 0 90 0 90 0 -1 -5 -7 -12 -14z"/>
<path d="M1423 2700 c0 -25 2 -35 4 -22 2 12 2 32 0 45 -2 12 -4 2 -4 -23z"/>
<path d="M1540 2706 c0 -10 7 -70 15 -134 9 -64 19 -209 24 -322 l10 -205 -4
205 c-2 113 -12 264 -21 335 -14 118 -24 166 -24 121z"/>
<path d="M1413 2615 c0 -22 2 -30 4 -17 2 12 2 30 0 40 -3 9 -5 -1 -4 -23z"/>
<path d="M1403 2500 c0 -30 2 -43 4 -27 2 15 2 39 0 55 -2 15 -4 2 -4 -28z"/>
<path d="M1394 2280 c0 -80 2 -112 3 -72 2 39 2 105 0 145 -1 39 -3 7 -3 -73z"/>
</g>
</svg>
