<?xml version="1.0" standalone="no"?>
<!DOCTYPE svg PUBLIC "-//W3C//DTD SVG 20010904//EN"
 "http://www.w3.org/TR/2001/REC-SVG-20010904/DTD/svg10.dtd">
<svg version="1.0" xmlns="http://www.w3.org/2000/svg"
 width="244.000000pt" height="305.000000pt" viewBox="0 0 244.000000 305.000000"
 preserveAspectRatio="xMidYMid meet">
<metadata>
Created by potrace 1.16, written by Peter Selinger 2001-2019
</metadata>
<g transform="translate(0.000000,305.000000) scale(0.100000,-0.100000)"
fill="#000000" stroke="none">
<path d="M1046 2873 c-3 -21 -11 -99 -17 -173 -16 -199 -19 -203 -44 -45 -13
77 -29 165 -36 195 -11 47 -13 51 -19 30 -4 -14 -3 -30 2 -36 11 -15 6 -944
-5 -944 -4 0 -24 12 -43 28 -34 27 -34 27 -34 112 0 123 18 387 35 520 24 191
26 221 6 125 -22 -107 -51 -471 -51 -644 l0 -120 28 -15 c15 -8 36 -23 46 -35
l19 -21 34 30 c38 33 44 35 61 18 19 -19 14 -27 -20 -30 -28 -2 -36 -10 -53
-45 -11 -23 -22 -42 -25 -43 -3 0 -11 14 -19 31 -8 19 -27 37 -48 46 -31 12
-38 12 -59 -1 -28 -19 -46 -51 -42 -74 2 -12 15 -16 47 -17 36 -1 48 -7 67
-31 28 -34 31 -69 8 -78 -14 -5 -16 -17 -11 -69 3 -34 2 -84 -3 -112 -4 -27
-8 -40 -9 -28 -1 20 -4 21 -28 12 -49 -18 -63 -38 -63 -88 1 -25 7 -57 14 -70
14 -26 11 -51 -6 -51 -15 0 -48 83 -48 124 0 25 10 56 26 84 l27 45 -23 19
c-47 38 -130 10 -130 -43 0 -11 9 -52 21 -89 27 -90 16 -135 -44 -183 -51 -40
-274 -183 -302 -193 -11 -4 38 53 110 125 129 131 130 132 168 127 l37 -6 -1
82 c-1 121 -17 156 -18 41 l-1 -92 -28 5 c-25 5 -43 -11 -196 -166 -92 -94
-166 -173 -164 -176 6 -5 369 125 383 137 5 5 17 9 27 9 12 0 18 8 18 24 0 14
4 27 9 30 14 9 61 -12 61 -26 0 -8 -22 -49 -50 -93 -27 -44 -50 -83 -50 -88 0
-8 45 15 130 67 59 37 70 37 70 2 0 -16 -10 -27 -32 -37 -31 -13 -34 -21 -75
-164 -57 -200 -112 -409 -109 -412 1 -2 72 82 156 187 85 104 155 188 156 187
1 -1 -11 -85 -27 -186 -16 -101 -28 -186 -26 -187 4 -4 35 58 128 251 91 191
89 186 80 228 -11 44 -3 57 31 50 28 -5 78 -48 78 -65 0 -6 -11 -23 -25 -40
-14 -16 -25 -40 -25 -53 0 -22 18 -125 90 -515 20 -103 30 -143 30 -113 0 6
25 146 55 311 30 165 55 309 55 320 0 11 -11 34 -25 50 -14 17 -25 34 -25 39
0 17 55 61 84 69 l29 7 -6 -48 c-6 -44 -3 -57 42 -149 27 -56 74 -153 105
-216 30 -63 55 -106 55 -95 1 11 -11 85 -24 165 -14 80 -25 154 -25 165 1 20
1 20 15 1 8 -11 25 -31 37 -45 36 -41 220 -270 246 -304 28 -40 28 -26 -2 81
-13 48 -45 164 -71 257 -51 189 -63 218 -97 225 -24 6 -37 45 -21 61 5 5 42
-10 85 -36 43 -25 79 -45 82 -45 6 0 -61 121 -75 134 -18 20 -8 42 24 54 45
16 47 16 47 -12 0 -29 12 -39 70 -59 25 -8 119 -43 209 -76 91 -34 166 -60
167 -58 2 1 -75 83 -169 181 -167 173 -173 178 -204 172 l-31 -7 5 98 c3 71 2
94 -6 83 -6 -8 -11 -35 -11 -60 0 -25 -7 -69 -14 -98 -13 -47 -13 -54 2 -71
10 -11 93 -71 186 -135 93 -64 165 -116 159 -116 -11 0 -335 129 -342 136 -2
2 1 16 8 31 12 25 10 29 -15 49 -22 18 -28 32 -32 78 -3 35 1 73 11 103 35
108 20 153 -49 153 -72 0 -90 -29 -54 -88 27 -44 26 -113 -2 -168 -12 -24 -25
-44 -29 -44 -17 0 -17 18 1 71 15 43 17 64 10 89 -11 39 -25 50 -62 50 -14 0
-29 6 -31 13 -3 6 -6 -15 -7 -48 -1 -33 -5 -85 -9 -115 l-7 -55 -8 38 c-5 23
-4 68 3 111 7 40 11 91 11 112 -1 21 1 60 5 87 6 38 4 51 -10 67 -15 17 -16
24 -5 50 17 41 46 60 92 60 35 0 38 2 38 29 0 20 -9 36 -26 50 -48 38 -92 23
-125 -41 l-22 -42 -16 44 c-14 39 -22 46 -54 54 -39 10 -43 22 -14 40 13 8 22
5 45 -17 15 -15 32 -27 36 -27 4 0 28 17 53 37 l46 38 -7 213 c-9 301 -29 491
-70 689 -13 63 -26 92 -26 60 0 -8 -3 -23 -7 -33 -4 -12 -3 -15 5 -10 10 6 12
-105 12 -473 0 -265 -4 -481 -8 -481 -4 0 -20 12 -35 26 l-29 25 5 302 c3 245
8 326 26 431 11 71 19 131 17 133 -5 5 -24 -101 -37 -212 -6 -49 -15 -98 -20
-107 -5 -10 -10 -93 -10 -185 -2 -261 -12 -406 -27 -411 -10 -3 -12 90 -10
496 2 275 2 499 0 498 -5 -6 -31 -246 -37 -346 -3 -58 -10 -208 -15 -334 -5
-137 -13 -233 -19 -239 -8 -8 -11 4 -11 41 0 29 -6 65 -14 80 -7 15 -16 77
-20 137 -7 129 -50 375 -62 362 -14 -13 -56 -260 -64 -366 -5 -68 -13 -128
-19 -134 -6 -6 -11 -35 -11 -64 0 -29 -4 -53 -10 -53 -12 0 -11 -12 -19 220
l-7 185 -2 -142 c-1 -78 -6 -144 -11 -147 -5 -4 -12 -41 -16 -84 -17 -187 -24
-76 -24 373 0 295 4 472 9 460 7 -14 8 -8 3 20 -8 52 -9 53 -17 8z m144 -798
c-4 -121 -8 -186 -9 -145 -5 128 5 379 14 368 1 -2 -1 -102 -5 -223z m-103
-221 c-9 -9 -28 6 -21 18 4 6 10 6 17 -1 6 -6 8 -13 4 -17z m313 6 c0 -5 -4
-10 -10 -10 -5 0 -10 5 -10 10 0 6 5 10 10 10 6 0 10 -4 10 -10z m-280 -121
c-11 -20 -22 -24 -33 -12 -9 9 23 44 34 37 5 -3 4 -14 -1 -25z m260 -5 c0 -18
-14 -18 -30 1 -16 19 -3 40 16 24 8 -6 14 -18 14 -25z m-357 -6 c9 -32 -4
-152 -14 -136 -5 7 -9 25 -9 39 0 15 -7 32 -15 39 -18 15 -18 20 -5 54 12 32
36 34 43 4z m463 5 c18 -24 17 -48 -1 -63 -8 -7 -15 -24 -15 -39 0 -14 -5 -33
-10 -41 -7 -11 -10 -7 -10 18 0 18 -5 42 -11 53 -7 14 -7 29 2 54 14 39 25 43
45 18z m-300 -91 c-12 -12 -18 8 -10 35 l8 28 4 -28 c2 -16 1 -31 -2 -35z
m-26 -17 c0 -7 9 -15 20 -18 11 -3 27 -22 35 -42 15 -34 35 -40 35 -10 0 8 22
37 48 65 46 48 49 50 64 33 11 -12 14 -28 11 -47 -5 -26 -9 -28 -40 -23 -42 7
-67 -14 -84 -73 l-12 -41 -19 48 c-22 58 -41 74 -79 66 -24 -4 -30 -1 -40 21
-10 22 -9 29 6 46 17 19 19 19 37 4 10 -10 18 -23 18 -29z m-201 -51 c11 -25
35 -62 53 -84 42 -48 72 -100 59 -100 -15 0 -84 77 -113 128 -23 40 -37 102
-23 102 2 0 13 -20 24 -46z m111 -4 c0 -14 9 -40 21 -59 22 -37 21 -51 -3 -24
-19 23 -38 78 -38 112 0 20 2 23 10 11 5 -8 10 -26 10 -40z m340 -19 c-6 -27
-20 -57 -31 -67 -24 -22 -24 -13 1 28 11 18 20 43 20 55 0 29 12 61 18 45 2
-7 -1 -35 -8 -61z m130 44 c0 -47 -108 -205 -140 -205 -14 0 13 51 49 92 34
40 71 103 71 123 0 8 5 15 10 15 6 0 10 -11 10 -25z m-380 -101 c15 -37 12
-42 -10 -15 -22 26 -26 41 -10 41 6 0 15 -12 20 -26z m169 -4 c-6 -16 -15 -30
-20 -30 -12 0 -11 4 3 35 16 35 29 31 17 -5z m-379 -105 c0 -25 -4 -45 -10
-45 -11 0 -14 73 -3 83 11 12 13 8 13 -38z m-61 -79 c1 -96 -5 -80 -12 29 -4
55 -3 80 2 65 5 -14 9 -56 10 -94z m641 72 c0 -32 -3 -39 -10 -28 -13 20 -13
70 0 70 6 0 10 -19 10 -42z m-350 -3 c0 -8 -4 -15 -10 -15 -5 0 -10 7 -10 15
0 8 5 15 10 15 6 0 10 -7 10 -15z m140 6 c0 -12 -20 -25 -27 -18 -7 7 6 27 18
27 5 0 9 -4 9 -9z m-277 -101 c-5 -40 -2 -54 12 -70 34 -37 47 -26 43 38 -2
41 0 57 10 56 6 -1 21 -2 32 -2 19 -2 19 -4 5 -26 -19 -28 -11 -54 18 -58 16
-2 22 -10 22 -28 0 -14 -6 -25 -12 -24 -7 1 -38 2 -69 3 -53 1 -56 2 -70 36
-17 43 -16 125 2 125 10 0 12 -13 7 -50z m400 21 c8 -41 -2 -97 -22 -115 -9
-8 -42 -16 -76 -18 -58 -3 -60 -2 -60 22 0 17 6 26 20 29 27 5 36 21 29 52 -4
21 -1 28 15 32 19 5 21 1 21 -48 0 -54 7 -69 26 -57 23 15 36 55 30 93 -7 45
9 54 17 10z m227 -77 c0 -13 -21 -44 -30 -44 -14 0 -12 24 2 38 13 13 28 16
28 6z m-810 -83 c0 -21 -16 -2 -24 29 -7 24 -6 24 8 6 9 -11 16 -27 16 -35z
m613 34 c-3 -9 -8 -14 -10 -11 -3 3 -2 9 2 15 9 16 15 13 8 -4z m296 -117 c29
-48 13 -49 -28 -3 -32 37 -36 47 -24 59 8 8 23 -8 52 -56z m-869 -18 c0 -49
-3 -55 -164 -363 -49 -92 -90 -166 -93 -164 -4 4 30 126 98 358 18 63 21 66
59 78 44 13 60 38 60 92 0 17 5 40 11 51 16 29 29 6 29 -52z m-121 46 c10 -12
1 -22 -48 -55 -34 -22 -61 -36 -61 -32 0 11 80 101 90 101 4 0 13 -6 19 -14z
m818 -46 l-7 -61 120 -241 c66 -133 118 -243 116 -246 -4 -3 -101 121 -233
297 -25 33 -40 63 -37 73 3 9 6 59 8 110 4 96 11 128 28 128 7 0 9 -21 5 -60z
m-363 -100 c3 0 12 12 20 28 8 15 15 21 16 14 0 -14 -28 -72 -35 -72 -8 0 -35
59 -35 77 1 11 6 5 15 -14 8 -18 16 -33 19 -33z m-193 -50 c5 -39 -1 -59 -53
-175 -33 -71 -69 -151 -80 -178 -12 -26 -22 -46 -24 -44 -2 2 18 77 45 168 27
90 57 190 66 222 19 68 37 71 46 7z m479 -10 c3 -30 8 -60 12 -66 4 -6 16 -67
28 -135 11 -68 23 -135 26 -149 3 -14 3 -22 -1 -19 -6 6 -50 145 -100 314 -13
44 -27 88 -30 98 -7 16 -3 18 26 15 33 -3 34 -4 39 -58z m-344 -66 c-10 -22
-12 -48 -6 -104 4 -41 10 -102 14 -135 l5 -60 -14 70 c-7 39 -18 89 -24 113
-16 63 -13 96 10 126 26 34 34 29 15 -10z"/>
<path d="M1421 2794 c0 -11 3 -14 6 -6 3 7 2 16 -1 19 -3 4 -6 -2 -5 -13z"/>
<path d="M1072 2750 c0 -19 2 -27 5 -17 2 9 2 25 0 35 -3 9 -5 1 -5 -18z"/>
<path d="M1432 2680 c0 -14 2 -19 5 -12 2 6 2 18 0 25 -3 6 -5 1 -5 -13z"/>
<path d="M1443 2580 c0 -25 2 -35 4 -22 2 12 2 32 0 45 -2 12 -4 2 -4 -23z"/>
<path d="M1093 2490 c0 -30 2 -43 4 -27 2 15 2 39 0 55 -2 15 -4 2 -4 -28z"/>
</g>
</svg>
