<?xml version="1.0" standalone="no"?>
<!DOCTYPE svg PUBLIC "-//W3C//DTD SVG 20010904//EN"
 "http://www.w3.org/TR/2001/REC-SVG-20010904/DTD/svg10.dtd">
<svg version="1.0" xmlns="http://www.w3.org/2000/svg"
 width="244.000000pt" height="305.000000pt" viewBox="0 0 244.000000 305.000000"
 preserveAspectRatio="xMidYMid meet">
<metadata>
Created by potrace 1.16, written by Peter Selinger 2001-2019
</metadata>
<g transform="translate(0.000000,305.000000) scale(0.100000,-0.100000)"
fill="#000000" stroke="none">
<path d="M1023 2833 c3 -43 2 -87 -3 -98 -7 -16 -9 -13 -9 17 -1 43 -22 138
-30 138 -3 0 -6 -80 -6 -177 -1 -98 -3 -304 -6 -458 -4 -154 -3 -188 0 -75 l7
205 2 -217 c1 -154 -1 -218 -9 -218 -7 0 -9 -10 -5 -24 l6 -25 -29 27 c-27 24
-30 34 -34 97 l-3 70 -2 -86 c-2 -85 -2 -85 30 -109 29 -21 30 -24 12 -31 -10
-4 -31 -8 -45 -8 -35 -1 -61 -32 -57 -68 3 -24 7 -28 29 -25 19 2 33 -5 53
-28 26 -31 36 -80 16 -80 -17 0 -11 -87 9 -144 10 -29 30 -71 44 -91 20 -29
24 -42 16 -57 -14 -26 -29 -22 -29 6 0 50 -17 76 -50 76 -30 0 -31 1 -25 34 6
29 3 36 -17 47 -32 17 -118 12 -141 -9 -20 -18 -20 -21 -1 -167 5 -39 3 -54
-9 -63 -13 -11 -16 -2 -22 75 -9 120 -13 125 -14 17 -1 -90 -1 -91 -25 -87
-23 5 -58 -33 -246 -266 -19 -24 -40 -49 -47 -56 -25 -26 1 -22 74 11 42 19
80 34 84 34 10 0 -19 -51 -35 -62 -6 -4 -8 -10 -5 -13 8 -7 276 131 305 157
20 17 21 18 37 1 19 -21 37 -67 37 -93 0 -11 -11 -22 -29 -28 -17 -6 -30 -19
-34 -34 -11 -52 -90 -388 -106 -456 -10 -40 -15 -74 -12 -76 3 -2 28 29 56 70
27 40 51 72 52 70 2 -2 -4 -36 -12 -76 -8 -40 -14 -75 -12 -77 4 -4 40 55 144
237 99 173 111 200 102 240 -12 49 -5 60 36 60 46 0 87 -21 105 -54 12 -24 11
-29 -8 -56 -12 -16 -22 -44 -22 -62 0 -36 88 -620 95 -626 2 -2 7 18 10 45 4
26 25 163 46 303 21 140 39 268 39 283 0 16 -9 42 -21 58 -13 19 -18 36 -14
50 10 29 64 59 108 59 l37 0 -2 -57 c-2 -56 1 -64 81 -203 122 -211 153 -262
157 -257 4 4 -6 62 -22 122 -7 27 35 -21 84 -95 19 -30 37 -49 39 -43 3 7 -7
58 -21 115 -14 57 -40 164 -56 238 -49 213 -47 207 -80 219 -17 5 -30 14 -30
18 0 23 23 84 36 98 15 14 22 12 78 -19 77 -43 222 -116 230 -116 4 0 -1 11
-10 25 -9 14 -14 28 -11 31 3 4 47 -10 97 -31 51 -20 94 -34 97 -31 5 4 -97
133 -151 191 -10 11 -43 50 -73 88 -45 54 -60 67 -81 65 l-24 -3 1 95 c1 52 0
92 -2 90 -3 -3 -10 -45 -16 -93 -6 -48 -15 -95 -20 -105 -17 -30 -25 35 -11
87 37 140 23 172 -74 170 -82 -2 -96 -10 -96 -59 0 -37 -1 -39 -30 -37 -35 2
-37 10 -10 68 22 48 27 138 9 156 -31 31 24 103 78 103 37 0 43 18 22 64 -13
28 -37 37 -85 29 -45 -7 -47 19 -3 44 l32 18 -7 250 c-4 138 -11 293 -17 345
-13 129 -50 373 -58 382 -3 4 -5 -68 -4 -160 1 -162 1 -164 -9 -72 -5 52 -15
122 -22 155 -12 55 -13 58 -21 31 -5 -19 -4 -31 5 -36 10 -6 9 -55 -5 -236 -9
-126 -15 -251 -13 -279 3 -33 5 -20 6 40 1 50 7 97 12 105 7 10 9 -73 7 -245
-1 -165 -6 -260 -12 -260 -6 0 -12 57 -15 140 l-6 140 -2 -142 c-1 -91 -6
-143 -12 -143 -7 0 -10 67 -10 196 1 108 -1 198 -4 202 -3 3 -7 -69 -7 -159
-1 -144 -3 -158 -13 -117 -9 39 -14 45 -28 37 -12 -7 -18 -31 -24 -96 l-9 -88
-6 75 c-4 41 -7 118 -8 170 -2 162 -44 460 -61 429 -22 -41 -59 -401 -60 -583
0 -44 -2 -77 -5 -74 -3 3 -9 41 -13 84 -5 62 -11 79 -24 82 -12 2 -19 -7 -26
-40 -6 -33 -10 4 -16 167 -10 288 -47 685 -63 685 -3 0 -3 -35 0 -77z m206
-785 c0 -244 -3 -437 -6 -430 -2 6 -12 12 -20 12 -14 0 -15 32 -10 308 5 263
23 552 34 552 2 0 3 -199 2 -442z m-129 -169 c0 -6 -62 -19 -68 -14 -1 1 8 14
20 30 20 26 22 26 35 9 7 -10 13 -21 13 -25z m308 19 c17 -17 15 -28 -7 -28
-10 0 -30 -9 -45 -21 -34 -27 -33 -15 2 26 31 38 34 39 50 23z m-388 -42 c0
-8 -4 -17 -9 -21 -12 -7 -24 12 -16 25 9 15 25 12 25 -4z m460 -1 c0 -8 -7
-15 -15 -15 -8 0 -15 7 -15 15 0 8 7 15 15 15 8 0 15 -7 15 -15z m-337 -27 c6
-22 5 -22 -8 -4 -17 22 -20 40 -6 32 5 -3 11 -16 14 -28z m-1 -80 c-3 -13 -11
-16 -35 -11 l-30 6 6 -38 c9 -54 40 -71 71 -39 15 14 16 12 16 -19 0 -22 6
-37 15 -41 9 -3 23 -22 31 -41 8 -19 16 -35 19 -35 3 0 11 16 19 35 8 19 22
38 31 41 9 4 15 19 15 43 1 29 3 33 11 19 22 -39 79 -4 79 49 0 20 -4 23 -30
18 -22 -4 -30 -1 -30 10 0 10 10 15 34 15 28 0 36 -5 46 -30 10 -24 10 -37 1
-56 -6 -14 -11 -37 -11 -52 -1 -15 -7 -38 -14 -51 -11 -20 -15 -22 -22 -8 -5
8 -21 18 -35 22 -34 8 -65 -22 -80 -79 l-11 -40 -21 54 c-28 69 -63 87 -101
51 -27 -26 -33 -21 -42 40 -4 24 -13 52 -20 63 -9 13 -10 26 -3 45 13 34 30
46 66 46 23 0 29 -4 25 -17z m209 -245 c-11 -21 -29 -46 -40 -55 -20 -17 -21
-17 -21 2 0 30 20 67 44 78 35 17 37 14 17 -25z m-186 3 c9 -13 19 -57 22 -96
l6 -72 -29 18 c-38 23 -84 65 -84 77 0 5 18 -5 39 -22 21 -17 44 -31 50 -31
21 0 11 37 -20 76 -50 63 -54 74 -25 74 16 0 32 -9 41 -24z m214 -87 c-20 -29
-74 -69 -91 -69 -5 0 -8 12 -7 28 0 15 3 21 6 15 8 -21 25 -15 68 22 49 42 52
43 24 4z m103 -61 c-17 -17 -25 32 -11 60 l14 26 3 -39 c2 -21 -1 -42 -6 -47z
m163 -53 l-15 -50 6 80 c3 44 9 85 13 90 13 21 10 -72 -4 -120z m-816 30 c0
-31 -2 -36 -9 -20 -5 11 -9 38 -9 60 0 31 2 36 9 20 5 -11 9 -38 9 -60z m291
-28 c31 -11 35 -15 32 -45 -3 -27 1 -34 22 -42 16 -6 26 -17 26 -30 0 -27 -39
-42 -58 -24 -18 18 -62 17 -86 -1 -14 -11 -23 -12 -33 -4 -23 19 -14 34 20 34
l32 0 -3 63 c-2 34 0 62 5 62 4 0 24 -6 43 -13z m275 -52 l-7 -65 31 0 c22 0
31 -5 31 -16 0 -13 -6 -15 -27 -10 -69 17 -80 17 -96 2 -18 -18 -42 -12 -52
12 -4 11 3 24 21 38 21 18 26 28 22 53 -4 25 -1 31 13 31 10 0 21 5 24 10 3 6
15 10 26 10 19 0 20 -4 14 -65z m-687 0 c6 -5 -56 -90 -80 -110 -56 -48 -179
-138 -183 -134 -2 2 46 64 106 137 102 124 111 132 132 121 12 -6 23 -13 25
-14z m13 -38 c-10 -9 -11 -8 -5 6 3 10 9 15 12 12 3 -3 0 -11 -7 -18z m800 0
c-10 -9 -11 -8 -5 6 3 10 9 15 12 12 3 -3 0 -11 -7 -18z m306 -39 c14 -13 47
-41 73 -63 26 -22 68 -56 93 -75 43 -32 58 -51 40 -49 -5 0 -44 19 -88 42 -69
36 -86 50 -122 105 -44 64 -43 79 4 40z m-87 -53 c0 -19 8 -28 37 -40 20 -9
51 -27 69 -40 17 -13 34 -22 36 -20 3 3 5 -2 5 -10 0 -21 -6 -19 -58 13 -24
15 -60 36 -81 46 -20 11 -47 28 -60 38 -20 15 -21 19 -8 28 8 5 25 10 38 10
17 0 22 -6 22 -25z m-537 -88 c3 -24 11 -57 17 -73 11 -27 12 -28 25 -10 8 10
17 42 21 72 3 30 10 54 14 54 13 0 -11 -113 -30 -146 -19 -29 -20 -52 -21
-315 -1 -304 -2 -304 -40 -25 -23 173 -21 212 10 253 23 29 27 64 10 95 -14
25 -28 138 -19 138 4 0 10 -19 13 -43z m-271 -49 c-18 -18 -22 -6 -15 38 l7
39 9 -33 c7 -23 7 -36 -1 -44z m-328 41 c-10 -11 -28 -26 -39 -32 -19 -9 -19
-9 -5 9 19 25 42 44 53 44 6 0 2 -9 -9 -21z m933 -11 c-3 -7 -5 -2 -5 12 0 14
2 19 5 13 2 -7 2 -19 0 -25z m-659 -120 c-5 -29 -16 -78 -24 -108 -20 -70
-117 -295 -122 -280 -2 6 1 23 6 38 6 15 29 108 53 207 23 99 47 183 53 187 6
4 18 8 27 8 14 0 15 -7 7 -52z m34 2 c-16 -36 -17 -37 -20 -14 -2 14 2 32 9
40 22 27 28 14 11 -26z m578 22 c0 -9 -4 -31 -9 -49 -8 -27 -4 -39 36 -99 25
-38 54 -86 64 -106 26 -50 62 -148 57 -154 -3 -2 -46 75 -96 171 -93 175 -95
182 -76 243 5 18 24 14 24 -6z m57 -138 c-1 -2 -13 13 -26 31 -15 22 -21 41
-16 52 5 14 11 7 26 -31 10 -28 17 -51 16 -52z m112 -101 c41 -94 82 -198 77
-192 -2 2 -24 33 -49 69 -31 45 -49 86 -60 133 -8 37 -12 67 -8 67 4 0 22 -35
40 -77z m-814 -118 c-15 -41 -29 -74 -31 -72 -5 5 22 111 35 135 25 47 23 11
-4 -63z"/>
<path d="M1471 2824 c0 -11 3 -14 6 -6 3 7 2 16 -1 19 -3 4 -6 -2 -5 -13z"/>
<path d="M961 2794 c0 -11 3 -14 6 -6 3 7 2 16 -1 19 -3 4 -6 -2 -5 -13z"/>
<path d="M952 2735 c0 -16 2 -22 5 -12 2 9 2 23 0 30 -3 6 -5 -1 -5 -18z"/>
<path d="M1412 2675 c0 -16 2 -22 5 -12 2 9 2 23 0 30 -3 6 -5 -1 -5 -18z"/>
<path d="M931 2589 c-7 -51 -14 -183 -16 -293 l-4 -201 9 180 c4 99 13 229 19
289 15 133 8 152 -8 25z"/>
<path d="M1403 2565 c0 -22 2 -30 4 -17 2 12 2 30 0 40 -3 9 -5 -1 -4 -23z"/>
<path d="M1393 2435 c0 -33 2 -45 4 -27 2 18 2 45 0 60 -2 15 -4 0 -4 -33z"/>
</g>
</svg>
