<?xml version="1.0" standalone="no"?>
<!DOCTYPE svg PUBLIC "-//W3C//DTD SVG 20010904//EN"
 "http://www.w3.org/TR/2001/REC-SVG-20010904/DTD/svg10.dtd">
<svg version="1.0" xmlns="http://www.w3.org/2000/svg"
 width="244.000000pt" height="305.000000pt" viewBox="0 0 244.000000 305.000000"
 preserveAspectRatio="xMidYMid meet">
<metadata>
Created by potrace 1.16, written by Peter Selinger 2001-2019
</metadata>
<g transform="translate(0.000000,305.000000) scale(0.100000,-0.100000)"
fill="#000000" stroke="none">
<path d="M1508 2905 c-3 -5 -16 -73 -28 -150 -12 -77 -24 -147 -26 -155 -3 -8
-7 -40 -8 -70 -23 -489 -34 -495 -26 -15 3 165 2 318 -1 340 -3 22 -7 31 -8
20 -1 -11 -8 -74 -16 -140 -7 -66 -19 -233 -25 -370 -6 -138 -17 -275 -24
-305 l-14 -55 -1 48 c-1 51 -18 65 -23 20 -2 -16 -7 33 -11 107 -7 134 -42
382 -57 409 -15 28 -56 -222 -67 -416 -4 -76 -9 -123 -11 -105 -5 46 -20 40
-24 -10 l-3 -43 -13 53 c-6 29 -13 85 -13 125 -2 54 -4 40 -10 -56 -8 -131
-24 -222 -40 -233 -6 -4 -9 183 -7 494 2 275 0 495 -3 490 -4 -6 -13 -70 -20
-142 -8 -77 -15 -121 -19 -106 -3 14 -7 -126 -9 -310 -3 -352 -8 -421 -29
-428 -10 -3 -12 91 -10 497 2 275 0 497 -4 493 -4 -4 -18 -82 -32 -174 -28
-179 -46 -427 -46 -652 l0 -140 35 -32 c19 -17 35 -41 35 -53 0 -26 -11 -27
-28 -1 -8 13 -23 20 -45 20 -42 0 -56 -10 -66 -46 -12 -42 -4 -54 30 -47 23 4
34 0 59 -27 30 -32 40 -75 18 -82 -7 -3 -11 -25 -9 -60 1 -48 -1 -56 -19 -61
-14 -4 -21 -17 -26 -47 -5 -28 -10 -37 -15 -28 -7 11 -9 11 -9 0 0 -7 -7 -20
-15 -29 -12 -11 -15 -32 -14 -74 4 -97 -22 -97 -29 -1 -3 47 0 68 18 102 l22
44 -22 18 c-33 27 -84 24 -104 -7 -15 -23 -15 -31 5 -113 25 -102 21 -153 -14
-191 -19 -20 -23 -31 -16 -49 9 -24 25 -29 32 -9 3 7 6 5 6 -5 1 -10 -3 -19
-9 -19 -21 -3 -26 -5 -196 -79 -64 -28 -118 -49 -121 -47 -2 3 18 20 44 40
143 105 240 181 255 198 15 17 15 24 2 71 -7 29 -14 74 -14 100 0 26 -5 50
-12 54 -8 5 -10 -16 -5 -84 l7 -91 -28 5 c-26 5 -39 -7 -164 -149 -75 -85
-144 -162 -153 -171 -10 -9 -16 -19 -13 -21 2 -2 87 29 188 69 102 41 187 73
188 71 2 -2 -15 -35 -38 -75 -24 -39 -41 -72 -39 -74 2 -2 54 25 114 60 102
59 111 63 123 47 19 -26 11 -56 -20 -71 -15 -7 -29 -20 -32 -30 -16 -52 -136
-531 -136 -542 0 -6 55 62 121 152 l122 163 -8 -55 c-4 -30 -16 -102 -26 -158
-11 -57 -19 -108 -17 -114 2 -6 52 90 111 212 100 206 108 227 105 274 -2 41
0 51 14 54 26 5 84 -26 98 -54 12 -22 11 -27 -13 -52 -15 -16 -27 -37 -27 -48
0 -12 20 -144 45 -295 25 -151 48 -291 51 -312 3 -21 7 -37 9 -35 2 2 15 73
29 158 15 85 37 218 51 295 32 180 32 202 -1 236 -20 21 -24 31 -16 46 18 33
50 55 84 56 l33 2 -3 -50 c-3 -45 5 -66 81 -220 46 -93 92 -187 102 -208 10
-21 20 -36 22 -33 4 3 -25 188 -43 281 -6 27 -2 24 37 -26 24 -31 82 -109 129
-172 46 -64 86 -115 88 -113 3 4 -26 120 -121 490 -18 72 -23 79 -54 92 -18 8
-33 18 -33 23 0 14 22 71 27 71 10 0 164 -93 169 -102 3 -4 12 -8 20 -8 12 0
11 5 -3 28 -10 15 -20 29 -23 32 -17 16 -62 119 -56 129 12 19 26 12 26 -13 0
-13 6 -28 13 -34 7 -6 78 -37 157 -68 80 -31 166 -65 193 -75 26 -11 47 -16
47 -11 -1 4 -20 28 -43 53 -23 25 -93 103 -156 173 -106 117 -116 126 -143
121 l-28 -7 6 94 c3 60 2 88 -4 78 -5 -8 -13 -57 -17 -108 l-7 -92 39 6 39 6
114 -125 c62 -69 118 -133 123 -142 9 -17 -217 133 -289 192 -59 48 -73 96
-51 178 32 118 18 165 -48 165 -34 0 -65 -21 -65 -43 0 -7 9 -27 20 -45 22
-36 26 -92 9 -141 -12 -34 -36 -37 -31 -5 15 101 15 101 -15 133 -17 17 -33
28 -36 24 -4 -3 -7 3 -7 14 0 11 -9 32 -20 46 -16 20 -19 34 -14 71 5 36 3 51
-11 65 -19 22 -15 46 16 85 16 20 29 26 60 26 35 0 39 3 39 25 0 14 -11 37
-26 51 -31 32 -68 27 -101 -13 l-22 -27 -10 27 c-8 21 -17 27 -41 27 -19 0
-30 5 -30 14 0 26 21 29 45 6 l24 -23 36 32 c20 17 40 31 45 31 6 0 9 42 8
103 -2 100 -2 101 -5 21 -4 -78 -5 -83 -38 -113 -19 -17 -37 -31 -40 -31 -3 0
-5 217 -4 483 1 265 5 471 9 457 6 -20 8 -21 8 -5 -1 35 -13 80 -20 70z m-242
-907 c6 -322 5 -358 -10 -373 -15 -15 -16 17 -14 422 1 516 14 490 24 -49z
m21 -75 c-1 -43 -3 -10 -3 72 0 83 2 118 3 78 2 -40 2 -107 0 -150z m141 141
c-1 -30 -7 -58 -12 -61 -5 -4 -7 10 -3 33 4 21 7 49 7 62 0 12 2 22 5 22 3 0
4 -25 3 -56z m-2 -161 c-10 -10 -19 5 -10 18 6 11 8 11 12 0 2 -7 1 -15 -2
-18z m-393 -18 c7 -18 -6 -27 -27 -19 -17 7 -20 16 -9 27 11 12 31 8 36 -8z
m57 -16 c0 -5 -4 -9 -10 -9 -5 0 -10 7 -10 16 0 8 5 12 10 9 6 -3 10 -10 10
-16z m310 1 c0 -5 -7 -10 -16 -10 -8 0 -12 5 -9 10 3 6 10 10 16 10 5 0 9 -4
9 -10z m-266 -108 c7 -12 -22 -45 -33 -37 -15 9 -14 32 2 38 18 8 25 8 31 -1z
m246 -18 c0 -7 -5 -16 -10 -19 -13 -8 -38 16 -33 32 5 15 43 4 43 -13z m94
-62 c-28 -43 -48 -6 -22 41 l11 22 10 -24 c7 -15 8 -28 1 -39z m-446 24 c2 -9
1 -24 -3 -33 -10 -27 -39 8 -30 36 8 25 28 23 33 -3z m259 -53 c-3 -10 -5 -2
-5 17 0 19 2 27 5 18 2 -10 2 -26 0 -35z m-127 -18 c0 -7 11 -20 24 -28 13 -9
30 -33 37 -54 l12 -38 18 42 c10 23 27 47 38 53 12 6 21 17 21 24 0 18 22 26
49 19 13 -3 21 -13 21 -27 0 -37 -14 -48 -52 -41 -41 8 -51 -2 -78 -72 l-18
-48 -11 40 c-18 68 -37 87 -78 79 -38 -7 -53 4 -53 43 0 15 7 23 23 25 29 5
47 -1 47 -17z m-100 -220 c-1 -17 -58 56 -80 102 -11 23 -20 57 -20 75 0 28 7
18 50 -67 28 -55 50 -104 50 -110z m345 119 c-20 -48 -28 -40 -10 11 8 22 15
49 16 60 1 14 3 12 6 -6 2 -15 -3 -44 -12 -65z m110 49 c-7 -43 -58 -133 -93
-166 l-24 -22 14 31 c34 81 94 193 102 194 4 0 5 -17 1 -37z m-429 -80 c-7 -7
-36 65 -35 89 0 15 7 4 20 -31 10 -30 17 -56 15 -58z m66 10 c18 -22 30 -63
17 -63 -5 0 -18 18 -29 40 -21 41 -15 53 12 23z m184 -10 c-22 -43 -45 -70
-46 -55 0 25 32 82 46 82 12 0 12 -4 0 -27z m-380 -74 c-3 -17 -6 -53 -6 -80
0 -27 -4 -49 -10 -49 -11 0 -14 118 -4 144 11 29 27 17 20 -15z m578 5 c9 -24
7 -97 -4 -114 -7 -11 -10 -4 -10 26 0 23 -3 56 -6 73 -7 32 9 44 20 15z m-347
-61 c7 -20 -14 -23 -31 -4 -15 17 -15 18 6 16 12 -1 23 -6 25 -12z m117 -10
c-13 -10 -20 -10 -23 -2 -4 14 19 30 33 22 5 -3 1 -12 -10 -20z m-275 -97 c-9
-8 -10 -7 -5 7 3 10 7 31 8 45 1 22 2 21 5 -7 3 -19 -1 -38 -8 -45z m415 37
c4 -22 1 -58 -7 -83 l-13 -45 -53 -1 c-29 -1 -56 -7 -60 -13 -5 -8 -12 -7 -25
2 -24 18 -13 55 17 59 27 4 34 39 12 62 -15 15 -15 16 2 16 10 0 29 3 41 7 23
6 24 5 17 -49 -8 -64 4 -81 37 -51 17 15 20 26 15 76 -6 63 8 79 17 20z m-285
-6 c10 0 10 -3 -3 -12 -24 -18 -20 -50 9 -63 17 -8 25 -20 25 -36 0 -23 -25
-44 -32 -26 -2 5 -28 10 -58 12 -50 3 -55 5 -59 28 -3 25 -3 25 17 6 32 -29
44 -12 36 51 l-7 56 29 -8 c16 -4 35 -8 43 -8z m485 -69 c-11 -20 -19 -27 -26
-20 -7 7 -4 18 7 36 23 35 39 22 19 -16z m-787 -20 c-3 -8 -6 -5 -6 6 -1 11 2
17 5 13 3 -3 4 -12 1 -19z m141 -49 c-3 -8 -7 -3 -11 10 -4 17 -3 21 5 13 5
-5 8 -16 6 -23z m478 5 c-4 -9 -9 -15 -11 -12 -3 3 -3 13 1 22 4 9 9 15 11 12
3 -3 3 -13 -1 -22z m108 -53 c-3 -28 -3 -71 1 -96 6 -43 10 -48 49 -66 l43
-19 56 -217 c31 -119 54 -219 52 -221 -2 -2 -25 42 -52 99 -26 57 -80 171
-120 252 -81 163 -87 194 -53 271 10 25 22 46 25 46 3 0 3 -22 -1 -49z m-676
16 c26 -30 35 -106 23 -185 -23 -149 -28 -159 -127 -299 -53 -74 -98 -133
-100 -130 -3 3 31 80 121 272 87 186 96 224 71 308 -14 46 -9 60 12 34z m851
-42 c19 -31 32 -58 29 -60 -2 -3 -24 15 -47 39 -29 29 -42 50 -38 60 10 26 21
19 56 -39z m-955 20 c4 -10 -18 -30 -70 -66 -42 -28 -77 -49 -79 -47 -2 2 21
32 51 66 55 61 86 76 98 47z m456 -156 c-7 -22 -16 -39 -19 -39 -11 0 -41 57
-41 77 1 11 7 4 16 -17 15 -33 16 -34 30 -16 8 11 14 29 15 40 0 13 3 16 6 7
3 -7 0 -31 -7 -52z m-226 -40 c3 -17 6 -41 6 -53 0 -19 -161 -378 -167 -372
-2 2 22 83 52 182 65 210 60 191 70 229 15 56 29 61 39 14z m472 -23 c-7 -49
-4 -58 22 -97 24 -35 33 -66 47 -152 9 -60 15 -110 13 -112 -3 -3 -116 350
-125 393 -5 19 -1 22 22 22 27 0 27 0 21 -54z m-221 -180 c-4 -50 -15 -154
-25 -231 l-18 -140 0 280 -1 280 26 -49 c24 -46 25 -55 18 -140z m31 27 c-3
-38 -10 -81 -16 -98 -7 -24 -8 -17 -4 30 7 87 15 135 21 135 3 0 3 -30 -1 -67z"/>
<path d="M1532 2780 c0 -14 2 -19 5 -12 2 6 2 18 0 25 -3 6 -5 1 -5 -13z"/>
<path d="M981 2764 c0 -11 3 -14 6 -6 3 7 2 16 -1 19 -3 4 -6 -2 -5 -13z"/>
<path d="M1433 2740 c0 -25 2 -35 4 -22 2 12 2 32 0 45 -2 12 -4 2 -4 -23z"/>
<path d="M1547 2685 c3 -38 11 -119 18 -180 6 -60 13 -157 14 -215 1 -57 4
-107 7 -109 2 -2 4 47 4 110 0 108 -19 303 -40 414 -8 45 -9 43 -3 -20z"/>
<path d="M992 2700 c0 -19 2 -27 5 -17 2 9 2 25 0 35 -3 9 -5 1 -5 -18z"/>
<path d="M1073 2695 c0 -22 2 -30 4 -17 2 12 2 30 0 40 -3 9 -5 -1 -4 -23z"/>
<path d="M1442 2630 c0 -19 2 -27 5 -17 2 9 2 25 0 35 -3 9 -5 1 -5 -18z"/>
<path d="M1083 2585 c0 -22 2 -30 4 -17 2 12 2 30 0 40 -3 9 -5 -1 -4 -23z"/>
<path d="M1093 2450 c0 -47 2 -66 4 -42 2 23 2 61 0 85 -2 23 -4 4 -4 -43z"/>
</g>
</svg>
