<?xml version="1.0" standalone="no"?>
<!DOCTYPE svg PUBLIC "-//W3C//DTD SVG 20010904//EN"
 "http://www.w3.org/TR/2001/REC-SVG-20010904/DTD/svg10.dtd">
<svg version="1.0" xmlns="http://www.w3.org/2000/svg"
 width="244.000000pt" height="305.000000pt" viewBox="0 0 244.000000 305.000000"
 preserveAspectRatio="xMidYMid meet">
<metadata>
Created by potrace 1.16, written by Peter Selinger 2001-2019
</metadata>
<g transform="translate(0.000000,305.000000) scale(0.100000,-0.100000)"
fill="#000000" stroke="none">
<path d="M1061 2890 c-1 -14 -1 -241 -1 -505 0 -410 -2 -477 -14 -462 -18 23
-30 288 -24 489 3 79 2 112 -1 73 l-6 -70 -8 60 c-17 136 -40 275 -45 271 -2
-3 3 -58 12 -123 21 -153 36 -374 36 -540 l0 -132 -33 -25 c-19 -15 -37 -26
-40 -26 -4 0 -7 217 -6 483 0 312 4 475 10 462 8 -17 9 -17 4 5 -2 14 -5 32
-5 40 0 9 -3 10 -9 5 -11 -12 -45 -193 -65 -350 -8 -60 -17 -191 -21 -290 -3
-99 -8 -210 -11 -248 -6 -74 -11 -64 71 -132 l30 -25 30 30 c36 35 60 38 75
11 15 -29 13 -30 -23 -24 -39 6 -49 -4 -70 -67 l-15 -45 -15 36 c-21 51 -43
69 -86 69 -44 0 -71 -24 -74 -66 -2 -26 0 -28 42 -29 36 -1 49 -7 72 -33 33
-37 36 -57 12 -70 -17 -10 -17 -15 10 -237 14 -111 12 -181 -4 -191 -11 -6
-11 -6 -9 117 l1 97 -46 -2 c-76 -2 -95 -55 -55 -145 22 -47 25 -71 11 -71
-18 0 -52 69 -61 122 -7 47 -5 58 18 101 l27 48 -24 20 c-28 23 -84 25 -105 4
-26 -27 -28 -53 -7 -121 31 -99 28 -148 -10 -187 -28 -28 -31 -34 -21 -59 6
-15 7 -30 2 -33 -23 -14 -314 -124 -319 -120 -6 6 -22 -6 171 124 91 62 169
118 171 125 3 7 -1 37 -9 66 -8 30 -14 68 -15 85 0 16 -5 39 -10 50 -6 14 -8
-9 -6 -70 l2 -90 -30 3 c-27 2 -48 -16 -200 -167 -93 -94 -167 -173 -163 -176
3 -3 41 8 84 24 43 16 140 51 214 79 123 45 135 51 138 76 2 14 8 26 14 26 13
0 78 -31 78 -37 0 -8 -52 -105 -73 -136 -32 -47 -15 -48 58 -2 74 47 95 54 95
31 0 -17 -19 -33 -44 -37 -14 -3 -25 -23 -42 -74 -44 -139 -144 -499 -140
-503 3 -2 28 27 221 263 106 129 132 155 122 119 -3 -11 -15 -80 -27 -154 -12
-74 -25 -159 -31 -189 -5 -30 -7 -56 -5 -58 2 -2 13 20 26 49 12 29 40 91 61
136 22 46 39 86 39 88 0 3 18 43 41 90 35 72 40 93 37 137 -3 50 -2 52 22 49
26 -3 80 -48 80 -67 0 -6 -11 -22 -25 -35 -15 -14 -25 -35 -25 -51 0 -15 21
-139 46 -276 25 -136 50 -274 56 -306 6 -32 12 -57 13 -55 2 2 17 77 34 168
18 91 39 199 47 240 19 93 35 198 36 227 0 11 -11 34 -26 49 -14 16 -26 34
-26 40 0 16 52 62 75 66 18 3 21 -4 26 -62 5 -51 20 -94 72 -203 36 -76 68
-141 71 -144 16 -16 0 25 -65 172 -60 137 -69 164 -64 197 6 36 20 56 31 45 3
-2 21 -65 40 -138 19 -74 44 -163 55 -198 10 -35 17 -72 14 -82 -3 -10 3 -35
14 -56 26 -49 26 -39 -4 150 -33 209 -33 212 8 162 18 -22 86 -105 152 -185
66 -80 130 -158 143 -174 12 -16 22 -24 22 -17 0 13 -76 293 -123 451 -32 109
-36 115 -65 124 -33 9 -45 25 -33 45 9 14 37 4 94 -34 20 -14 37 -20 37 -14 0
6 -16 40 -36 75 -19 35 -33 68 -30 73 8 12 93 41 100 33 3 -3 6 -15 6 -27 0
-19 15 -27 98 -58 216 -80 352 -126 352 -119 0 4 -78 86 -174 181 -165 164
-176 173 -205 166 l-30 -6 6 90 c4 65 3 91 -6 91 -6 0 -11 -17 -11 -44 0 -23
-3 -71 -7 -105 l-6 -63 44 7 44 6 140 -142 140 -142 -60 33 c-33 19 -78 46
-100 61 -22 15 -79 52 -127 83 -53 34 -93 67 -103 85 -19 38 -19 96 0 151 20
57 19 103 -3 123 -24 22 -84 22 -111 0 l-21 -18 25 -47 c14 -27 25 -63 25 -85
-1 -60 -55 -163 -78 -149 -8 5 -4 22 13 56 43 86 28 170 -31 170 -31 0 -44
-20 -44 -67 0 -56 -18 -56 -23 0 l-4 42 -1 -50 c-1 -27 -7 -57 -13 -65 -17
-25 -2 153 19 222 23 73 23 104 2 128 -16 18 -17 26 -8 44 24 48 50 66 95 66
39 0 43 2 43 25 0 33 -42 75 -73 75 -32 0 -74 -34 -91 -74 l-14 -31 -16 37
c-18 42 -50 68 -83 68 -28 0 -30 16 -4 30 28 15 36 13 69 -15 l30 -25 52 37
52 38 -7 200 c-3 110 -13 265 -21 345 -15 154 -41 315 -43 265 0 -16 4 -48 9
-70 18 -78 40 -385 40 -553 l0 -170 -34 -26 c-19 -14 -37 -26 -40 -26 -3 0 -6
217 -6 483 0 347 3 478 11 467 9 -12 10 -12 5 3 -3 10 -6 28 -6 38 0 11 -4 18
-9 15 -15 -9 -65 -305 -77 -449 -3 -48 -8 -86 -10 -85 -1 2 -10 98 -19 213
-27 351 -31 337 -26 -93 2 -297 0 -417 -8 -425 -8 -8 -11 -5 -11 12 0 16 -4
21 -14 18 -9 -4 -17 1 -19 11 -3 9 -6 -17 -7 -58 -1 -41 -6 -88 -10 -105 -7
-27 -8 -24 -10 20 -1 28 -6 75 -11 105 -5 30 -11 87 -14 125 -13 176 -60 422
-75 394 -14 -26 -50 -243 -60 -359 -5 -63 -14 -131 -20 -150 -5 -19 -10 -60
-11 -90 -1 -49 -2 -52 -10 -25 -5 17 -13 158 -19 315 -9 268 -20 419 -39 570
-5 36 -9 54 -10 40z m228 -854 c1 -99 -1 -177 -3 -175 -2 2 -6 110 -9 239 -3
136 -2 210 3 175 4 -33 8 -141 9 -239z m-199 -176 c0 -5 -4 -10 -10 -10 -5 0
-10 5 -10 10 0 6 5 10 10 10 6 0 10 -4 10 -10z m304 -11 c-3 -5 -10 -7 -15 -3
-5 3 -7 10 -3 15 3 5 10 7 15 3 5 -3 7 -10 3 -15z m-264 -87 c0 -5 -6 -16 -13
-27 -10 -13 -16 -15 -21 -6 -4 6 -2 18 4 26 13 16 30 20 30 7z m239 -15 c6 -8
8 -17 4 -20 -7 -8 -33 11 -33 24 0 13 16 11 29 -4z m137 -39 c4 -13 -1 -26
-15 -39 -12 -11 -21 -32 -21 -47 0 -16 -7 -37 -15 -48 -14 -18 -14 -18 -15 7
0 14 -3 53 -6 86 -5 48 -3 62 11 77 16 16 19 16 36 0 10 -9 21 -25 25 -36z
m-473 20 c4 -12 3 -57 0 -101 -6 -72 -7 -77 -19 -56 -7 13 -13 36 -14 51 0 15
-7 33 -15 42 -18 17 -19 40 -5 67 14 26 46 24 53 -3z m258 -91 c-8 -8 -11 0
-10 29 1 39 1 39 11 11 7 -21 7 -32 -1 -40z m-140 4 c7 -17 21 -32 31 -35 10
-2 25 -20 33 -40 9 -20 18 -36 21 -36 3 0 12 16 20 35 8 20 25 40 39 45 14 5
25 15 25 22 0 7 4 19 9 27 13 20 41 -3 41 -33 0 -31 -19 -46 -56 -46 -37 0
-43 -6 -65 -69 l-15 -45 -13 47 c-16 57 -31 70 -79 71 -33 1 -37 4 -40 29 -3
27 12 57 28 57 5 0 14 -13 21 -29z m-197 -59 c4 -15 33 -61 66 -102 65 -81 77
-112 35 -84 -14 9 -25 20 -25 24 0 4 -13 21 -30 38 -16 18 -30 37 -30 44 0 6
-7 19 -15 28 -18 19 -36 76 -28 84 10 10 21 -3 27 -32z m113 -9 c-3 -10 -5 -2
-5 17 0 19 2 27 5 18 2 -10 2 -26 0 -35z m334 -6 c-13 -13 -15 11 -4 40 7 16
8 15 11 -6 2 -13 -1 -28 -7 -34z m143 21 c-3 -18 -17 -46 -30 -61 -13 -16 -24
-35 -24 -43 0 -14 -83 -104 -95 -104 -18 0 3 38 49 90 30 34 62 81 72 106 20
51 39 59 28 12z m-438 -96 c16 -40 4 -42 -19 -3 -20 34 -21 44 -6 39 6 -2 17
-18 25 -36z m287 21 c-6 -25 -32 -58 -39 -51 -7 8 24 68 35 68 5 0 7 -8 4 -17z
m-234 -25 c10 -30 9 -31 -4 -14 -8 11 -15 26 -15 33 0 22 8 14 19 -19z m153
-20 c-7 -7 -12 -8 -12 -2 0 6 3 14 7 17 3 4 9 5 12 2 2 -3 -1 -11 -7 -17z
m-352 -85 c-1 -31 -3 -35 -11 -20 -6 9 -7 26 -4 37 10 30 15 24 15 -17z m560
1 c0 -8 -4 -12 -10 -9 -5 3 -10 10 -10 16 0 5 5 9 10 9 6 0 10 -7 10 -16z
m-340 -9 c0 -8 -4 -15 -10 -15 -5 0 -10 7 -10 15 0 8 5 15 10 15 6 0 10 -7 10
-15z m138 3 c-6 -18 -28 -21 -28 -4 0 9 7 16 16 16 9 0 14 -5 12 -12z m-252
-172 c8 -12 17 -17 29 -13 14 6 16 15 10 57 l-7 50 34 0 c30 -1 31 -2 15 -15
-26 -19 -18 -58 13 -65 18 -4 25 -12 25 -30 0 -24 -3 -25 -50 -22 -27 2 -57 5
-66 8 -23 6 -39 48 -39 98 0 63 14 66 20 4 3 -29 10 -62 16 -72z m364 18 c-15
-44 -26 -51 -90 -55 -53 -4 -55 -3 -55 21 0 18 6 26 22 28 33 5 41 42 13 64
l-22 18 37 0 37 0 -7 -49 c-7 -54 2 -68 31 -47 14 11 19 28 21 68 2 69 3 71
14 24 6 -26 6 -51 -1 -72z m-590 -53 c0 -11 -4 -10 -15 5 -8 10 -14 26 -14 34
0 11 3 10 14 -4 8 -11 15 -27 15 -35z m630 15 c0 -3 -4 -8 -10 -11 -5 -3 -10
-1 -10 4 0 6 5 11 10 11 6 0 10 -2 10 -4z m160 -45 c0 -20 -17 -37 -27 -28 -7
8 7 47 18 47 5 0 9 -9 9 -19z m-865 -41 c7 -12 -51 -90 -66 -90 -6 0 2 23 17
50 27 50 38 59 49 40z m130 -32 c2 -13 7 -70 9 -127 l5 -104 -31 -41 c-94
-120 -220 -276 -229 -282 -6 -3 42 98 107 224 114 225 117 233 115 291 -2 60
13 84 24 39z m715 3 c5 -11 10 -33 10 -50 0 -37 29 -69 70 -78 27 -5 32 -12
50 -72 11 -36 40 -135 65 -219 26 -85 45 -158 43 -163 -2 -5 -27 37 -56 94
-100 192 -175 332 -182 342 -4 6 -15 31 -24 57 -23 70 -4 141 24 89z m123 -25
c31 -40 34 -51 10 -37 -40 23 -65 49 -59 60 11 17 19 14 49 -23z m-481 -84
c16 20 17 20 11 3 -3 -11 -12 -28 -19 -39 -12 -17 -13 -16 -28 12 -21 40 -20
54 1 24 l17 -24 18 24z m-302 -29 c0 -5 -5 -15 -10 -23 -8 -12 -10 -11 -10 8
0 12 5 22 10 22 6 0 10 -3 10 -7z m70 -7 c0 -8 -15 -66 -34 -128 -19 -62 -46
-157 -61 -211 -16 -53 -30 -96 -32 -93 -5 5 58 382 73 434 5 17 54 16 54 -2z
m520 -11 c0 -14 -4 -25 -10 -25 -5 0 -10 11 -10 25 0 14 5 25 10 25 6 0 10
-11 10 -25z m-210 -145 c0 -14 -9 -68 -19 -120 -10 -52 -22 -117 -26 -143 -3
-27 -9 -47 -12 -44 -2 3 3 69 12 146 16 136 17 183 1 226 -5 14 0 11 18 -10
14 -16 26 -41 26 -55z"/>
<path d="M952 2790 c0 -14 2 -19 5 -12 2 6 2 18 0 25 -3 6 -5 1 -5 -13z"/>
<path d="M1561 2794 c0 -11 3 -14 6 -6 3 7 2 16 -1 19 -3 4 -6 -2 -5 -13z"/>
<path d="M1043 2740 c0 -25 2 -35 4 -22 2 12 2 32 0 45 -2 12 -4 2 -4 -23z"/>
<path d="M1033 2640 c0 -25 2 -35 4 -22 2 12 2 32 0 45 -2 12 -4 2 -4 -23z"/>
<path d="M1372 2600 c0 -14 2 -19 5 -12 2 6 2 18 0 25 -3 6 -5 1 -5 -13z"/>
<path d="M1371 2554 c0 -11 3 -14 6 -6 3 7 2 16 -1 19 -3 4 -6 -2 -5 -13z"/>
<path d="M1363 2425 c0 -38 2 -53 4 -32 2 20 2 52 0 70 -2 17 -4 1 -4 -38z"/>
<path d="M1353 2190 c0 -30 2 -43 4 -27 2 15 2 39 0 55 -2 15 -4 2 -4 -28z"/>
</g>
</svg>
