<?xml version="1.0" standalone="no"?>
<!DOCTYPE svg PUBLIC "-//W3C//DTD SVG 20010904//EN"
 "http://www.w3.org/TR/2001/REC-SVG-20010904/DTD/svg10.dtd">
<svg version="1.0" xmlns="http://www.w3.org/2000/svg"
 width="244.000000pt" height="305.000000pt" viewBox="0 0 244.000000 305.000000"
 preserveAspectRatio="xMidYMid meet">
<metadata>
Created by potrace 1.16, written by Peter Selinger 2001-2019
</metadata>
<g transform="translate(0.000000,305.000000) scale(0.100000,-0.100000)"
fill="#000000" stroke="none">
<path d="M1557 2883 c-3 -15 -16 -84 -30 -153 -33 -165 -56 -404 -59 -625 -3
-178 -3 -179 20 -191 13 -6 36 -23 51 -38 l28 -27 42 36 c24 19 47 35 52 35
12 0 11 314 -1 465 -16 190 -69 495 -90 518 -4 5 -10 -4 -13 -20z m9 -980 c-2
-3 -23 8 -47 24 l-42 28 6 210 c7 237 39 522 75 670 4 17 8 -186 10 -449 1
-264 0 -481 -2 -483z"/>
<path d="M877 2828 c-48 -206 -70 -405 -82 -745 -5 -154 -5 -162 14 -168 11
-3 36 -19 56 -35 l38 -30 32 28 c17 15 40 32 50 37 16 10 18 26 16 170 -3 292
-22 474 -78 738 -9 42 -19 77 -23 77 -3 0 -14 -33 -23 -72z m19 -925 c-2 -3
-23 8 -45 23 l-41 27 0 101 c0 223 26 503 68 721 l17 90 3 -479 c1 -264 0
-481 -2 -483z"/>
<path d="M1305 2641 c-4 -138 -11 -251 -16 -251 -5 0 -9 10 -9 23 0 29 -42
189 -48 183 -2 -3 -6 -87 -8 -188 -2 -101 -7 -239 -11 -308 -7 -119 -8 -122
-14 -60 -5 47 -6 32 -5 -55 1 -66 5 -129 10 -140 6 -16 4 -15 -10 4 -16 21
-18 45 -15 210 1 102 9 231 17 286 23 160 26 193 15 170 -5 -11 -10 -30 -10
-42 -1 -12 -8 -42 -16 -67 -8 -24 -19 -104 -24 -178 -7 -116 -9 -86 -11 232
-3 269 -5 335 -10 250 -4 -63 -8 -266 -10 -450 -2 -328 -4 -346 -30 -217 -6
31 -15 57 -20 57 -10 0 -29 -81 -37 -157 -6 -51 -5 -53 26 -70 24 -14 31 -25
31 -49 0 -17 3 -45 6 -63 7 -36 -16 -52 -47 -33 -26 16 -29 15 -29 -11 0 -28
26 -67 46 -67 8 0 26 11 40 25 l25 25 -6 -47 c-9 -67 -12 -73 -33 -73 -10 0
-27 -9 -37 -20 -10 -11 -13 -20 -7 -20 7 0 12 -9 12 -20 0 -30 -14 -25 -54 20
-23 26 -38 54 -42 80 -4 22 -13 45 -20 51 -21 17 -17 43 11 73 22 24 32 27 73
25 45 -3 47 -2 44 21 -2 14 -10 35 -18 47 -33 53 -122 33 -145 -31 -16 -44
-23 -45 -39 -6 -17 41 -46 60 -92 60 -46 0 -78 -28 -78 -69 0 -28 1 -29 38
-24 33 4 44 1 75 -27 39 -34 49 -73 22 -84 -43 -16 3 -158 78 -240 23 -27 22
-31 -17 -79 -43 -54 -46 -66 -29 -100 16 -32 57 -51 91 -42 25 6 26 12 7 86
-9 38 13 58 53 47 18 -5 32 -15 32 -24 0 -8 -4 -13 -8 -10 -5 3 -18 -25 -30
-62 -18 -56 -27 -69 -52 -80 -27 -12 -34 -12 -55 2 -41 27 -86 96 -79 120 8
24 8 21 -2 96 -4 30 -11 61 -17 68 -15 19 -65 14 -88 -9 -32 -32 -20 -95 34
-183 129 -211 129 -199 0 -423 -53 -92 -117 -203 -141 -246 -25 -43 -47 -76
-49 -73 -5 4 68 242 112 366 21 60 25 65 65 78 97 33 92 160 -10 282 -74 88
-88 159 -45 222 14 20 25 42 25 49 0 22 -35 38 -82 39 -37 0 -50 -5 -62 -22
-21 -30 -20 -52 5 -126 24 -70 20 -115 -11 -155 -23 -29 -355 -227 -381 -227
-7 0 98 102 215 208 57 52 60 54 104 47 l44 -7 -7 99 c-4 54 -11 103 -17 108
-7 7 -9 -19 -4 -83 l6 -93 -34 6 c-32 6 -40 0 -220 -165 -103 -95 -185 -174
-182 -177 3 -3 18 -1 33 5 15 6 121 40 236 77 159 51 207 70 207 83 1 40 15
46 64 28 59 -23 93 -50 115 -94 23 -46 19 -58 -24 -72 -34 -11 -35 -14 -84
-168 -69 -217 -121 -391 -121 -404 0 -6 30 23 68 63 37 40 76 83 88 94 11 11
71 78 133 149 80 91 110 133 106 145 -4 9 -9 30 -12 48 l-5 31 63 4 c35 2 78
1 94 -2 27 -5 30 -10 33 -45 2 -22 -1 -94 -7 -160 -17 -189 -22 -326 -11 -285
5 19 6 46 3 59 -3 13 -2 21 3 18 5 -3 10 27 12 66 1 40 6 88 11 107 l9 35 1
-43 c1 -24 5 -41 10 -38 5 3 16 -31 25 -77 24 -125 87 -432 90 -434 3 -3 41
177 83 390 15 75 30 134 33 130 4 -5 18 -60 31 -123 13 -63 25 -104 27 -91 2
12 0 35 -4 50 -4 14 -7 49 -6 76 1 37 -1 44 -7 25 -7 -24 -10 -6 -27 165 -1
17 -8 54 -15 84 -12 52 -11 54 12 72 19 15 42 19 118 19 l94 0 -7 -27 c-3 -16
-8 -38 -12 -49 -5 -21 25 -62 142 -190 213 -234 258 -283 261 -281 2 2 -112
366 -170 544 -7 23 -18 34 -38 38 -41 9 -52 27 -39 61 22 57 92 109 156 116
25 3 29 -1 32 -24 3 -27 11 -30 238 -104 130 -42 237 -74 240 -72 5 6 -98 105
-251 242 -111 99 -122 107 -152 101 l-32 -6 6 91 c4 64 3 90 -6 90 -6 0 -11
-17 -11 -43 0 -23 -7 -69 -15 -100 -8 -32 -15 -63 -15 -70 0 -12 17 -23 247
-167 123 -76 175 -115 127 -96 -10 5 -93 35 -183 67 -91 33 -167 61 -169 64
-3 3 0 17 7 31 11 25 9 29 -20 53 -43 36 -50 101 -20 186 26 74 26 100 1 125
-36 36 -140 22 -140 -18 0 -10 11 -34 25 -54 44 -66 27 -135 -59 -238 -45 -53
-70 -111 -82 -190 -6 -37 25 -104 141 -305 90 -156 116 -207 112 -212 -5 -4
-214 232 -269 304 -26 34 -27 40 -22 117 9 151 12 158 84 278 80 133 93 179
60 221 -23 29 -77 38 -84 15 -19 -64 -31 -140 -24 -152 13 -23 -14 -77 -56
-114 -43 -37 -58 -39 -96 -12 -16 11 -32 20 -37 19 -23 -4 -32 5 -42 45 -6 25
-10 55 -10 68 1 21 2 20 8 -4 5 -21 9 -25 21 -18 12 7 12 12 2 22 -6 6 -12 15
-12 19 0 11 63 30 72 21 11 -11 12 -50 4 -94 -7 -31 -5 -37 13 -43 13 -4 36 1
59 12 53 26 55 64 8 127 -20 25 -36 50 -36 55 0 4 14 26 31 47 67 83 102 206
64 220 -20 8 -19 44 3 70 25 31 58 46 95 42 27 -2 33 1 35 20 9 59 -71 102
-123 68 -14 -10 -33 -33 -42 -51 -20 -41 -30 -44 -39 -11 -22 89 -164 91 -164
2 l0 -34 44 5 c39 5 48 2 70 -22 29 -32 33 -57 11 -75 -8 -7 -15 -22 -15 -34
0 -26 -64 -132 -86 -140 -23 -9 -31 24 -9 40 24 18 10 33 -37 43 -32 7 -33 8
-36 66 l-3 59 21 -27 c27 -34 53 -34 74 -2 22 34 22 70 -1 60 -49 -21 -58 -13
-61 51 -2 61 -2 62 32 82 31 19 33 23 30 63 -7 74 -26 169 -34 174 -8 5 -22
-51 -40 -154 -4 -25 -8 -37 -9 -26 -1 17 -3 18 -11 5 -7 -10 -10 147 -9 468 0
266 -2 486 -4 488 -3 3 -8 -108 -12 -245z m-168 -763 c-3 -8 -6 -5 -6 6 -1 11
2 17 5 13 3 -3 4 -12 1 -19z m200 -10 c-3 -7 -5 -2 -5 12 0 14 2 19 5 13 2 -7
2 -19 0 -25z m-127 -87 c0 -22 -6 -46 -14 -53 -14 -15 -10 -82 5 -72 5 3 9 -4
9 -14 0 -15 -5 -19 -20 -15 -18 5 -20 14 -20 74 0 55 3 69 15 69 9 0 15 9 15
25 0 14 2 25 5 25 3 0 5 -18 5 -39z m-284 -203 c10 -24 47 -73 82 -109 65 -69
76 -91 42 -82 -50 13 -160 161 -160 215 0 31 16 20 36 -24z m654 30 c-2 -53
-70 -158 -132 -202 -60 -43 -49 -4 17 65 31 32 65 79 76 104 19 42 40 60 39
33z m-386 -7 c8 -13 -4 -42 -15 -35 -12 7 -12 44 0 44 6 0 12 -4 15 -9z m104
-13 c-4 -27 -28 -36 -28 -10 0 20 8 32 22 32 5 0 8 -10 6 -22z m-148 -137 c14
-75 13 -101 -5 -101 -17 0 -20 25 -5 35 17 10 11 35 -13 58 -16 15 -23 32 -22
52 3 41 3 41 20 24 8 -8 19 -39 25 -68z m87 32 c-3 -10 -5 -2 -5 17 0 19 2 27
5 18 2 -10 2 -26 0 -35z m104 -42 c-10 -10 -21 -17 -24 -15 -8 8 10 73 25 91
11 14 13 12 16 -20 2 -25 -3 -42 -17 -56z m-12 -78 c1 -7 -3 -13 -9 -13 -5 0
-10 15 -9 33 0 27 2 29 9 12 5 -11 9 -26 9 -32z m-232 15 c-3 -8 -6 -5 -6 6
-1 11 2 17 5 13 3 -3 4 -12 1 -19z m80 -70 c-3 -8 -6 -5 -6 6 -1 11 2 17 5 13
3 -3 4 -12 1 -19z m-100 -40 c-3 -7 -5 -2 -5 12 0 14 2 19 5 13 2 -7 2 -19 0
-25z m30 0 c-3 -7 -5 -2 -5 12 0 14 2 19 5 13 2 -7 2 -19 0 -25z m260 10 c-3
-8 -6 -5 -6 6 -1 11 2 17 5 13 3 -3 4 -12 1 -19z m-13 -62 c-3 -21 -8 -35 -11
-32 -2 2 -1 20 3 40 3 21 8 35 11 32 2 -2 1 -20 -3 -40z m-237 12 c-3 -8 -6
-5 -6 6 -1 11 2 17 5 13 3 -3 4 -12 1 -19z m-53 -22 c-3 -15 -8 -25 -11 -23
-2 3 -1 17 3 31 3 15 8 25 11 23 2 -3 1 -17 -3 -31z m106 -6 c0 11 3 11 12 2
10 -9 8 -16 -5 -29 -20 -20 -23 -18 -32 22 -7 29 -7 29 8 10 12 -14 16 -16 17
-5z m153 -12 c-6 -31 -15 -35 -33 -13 -14 17 -5 36 15 28 8 -3 15 1 15 8 0 7
2 10 4 8 2 -2 2 -16 -1 -31z m-196 -10 c-3 -8 -6 -5 -6 6 -1 11 2 17 5 13 3
-3 4 -12 1 -19z m-30 -80 c-3 -8 -6 -5 -6 6 -1 11 2 17 5 13 3 -3 4 -12 1 -19z
m279 -4 c-4 -9 -9 -15 -11 -12 -3 3 -3 13 1 22 4 9 9 15 11 12 3 -3 3 -13 -1
-22z m-138 -175 c-3 -8 -7 -3 -11 10 -4 17 -3 21 5 13 5 -5 8 -16 6 -23z m-99
-78 l-13 -26 -4 28 c-2 16 -1 36 3 45 6 15 7 15 17 -2 7 -13 7 -26 -3 -45z
m75 2 c-10 -34 -10 -67 -2 -313 l7 -195 -19 90 c-10 50 -27 124 -36 165 -20
90 -33 201 -22 194 4 -3 8 3 8 12 0 19 47 74 63 74 5 0 6 -11 1 -27z"/>
<path d="M1161 2654 c0 -11 3 -14 6 -6 3 7 2 16 -1 19 -3 4 -6 -2 -5 -13z"/>
<path d="M1333 2495 c0 -22 2 -30 4 -17 2 12 2 30 0 40 -3 9 -5 -1 -4 -23z"/>
<path d="M1431 1244 c0 -11 3 -14 6 -6 3 7 2 16 -1 19 -3 4 -6 -2 -5 -13z"/>
<path d="M1441 1204 c0 -11 3 -14 6 -6 3 7 2 16 -1 19 -3 4 -6 -2 -5 -13z"/>
<path d="M1372 840 c0 -14 2 -19 5 -12 2 6 2 18 0 25 -3 6 -5 1 -5 -13z"/>
<path d="M1381 764 c0 -11 3 -14 6 -6 3 7 2 16 -1 19 -3 4 -6 -2 -5 -13z"/>
<path d="M1382 720 c0 -14 2 -19 5 -12 2 6 2 18 0 25 -3 6 -5 1 -5 -13z"/>
<path d="M1095 600 c-4 -17 -5 -34 -2 -36 2 -3 7 10 11 27 8 42 0 50 -9 9z"/>
</g>
</svg>
