<?xml version="1.0" standalone="no"?>
<!DOCTYPE svg PUBLIC "-//W3C//DTD SVG 20010904//EN"
 "http://www.w3.org/TR/2001/REC-SVG-20010904/DTD/svg10.dtd">
<svg version="1.0" xmlns="http://www.w3.org/2000/svg"
 width="244.000000pt" height="305.000000pt" viewBox="0 0 244.000000 305.000000"
 preserveAspectRatio="xMidYMid meet">
<metadata>
Created by potrace 1.16, written by Peter Selinger 2001-2019
</metadata>
<g transform="translate(0.000000,305.000000) scale(0.100000,-0.100000)"
fill="#000000" stroke="none">
<path d="M1092 2895 c0 -16 2 -22 5 -12 2 9 2 23 0 30 -3 6 -5 -1 -5 -18z"/>
<path d="M1517 2832 c-34 -158 -57 -364 -69 -626 l-12 -269 23 -16 c13 -9 34
-26 48 -38 13 -13 26 -23 30 -23 3 0 21 14 40 30 18 17 38 30 43 30 6 0 9 60
8 153 l-2 152 -4 -135 -3 -135 -39 -28 -40 -28 0 38 c0 21 0 248 0 506 0 257
-1 467 -3 467 -2 0 -11 -35 -20 -78z"/>
<path d="M917 2823 c-43 -200 -63 -395 -73 -699 l-6 -202 23 -12 c13 -7 36
-24 52 -38 l27 -26 16 22 c8 12 28 29 45 37 29 15 29 17 29 98 0 111 -18 441
-31 552 -11 105 -41 277 -46 271 -2 -2 5 -66 16 -142 11 -77 25 -193 31 -259
12 -140 19 -461 11 -473 -10 -13 -63 -52 -72 -52 -5 0 -9 214 -9 476 0 326 3
473 10 469 7 -4 8 3 4 22 -4 15 -8 29 -9 31 -1 1 -9 -33 -18 -75z"/>
<path d="M1371 2874 c0 -11 3 -14 6 -6 3 7 2 16 -1 19 -3 4 -6 -2 -5 -13z"/>
<path d="M1076 2755 c-4 -60 -10 -126 -11 -145 -2 -19 -6 -179 -11 -355 -7
-295 -6 -323 11 -358 9 -20 24 -37 31 -37 8 0 14 -9 14 -20 0 -26 -8 -25 -32
5 -37 47 -105 19 -129 -53 l-12 -37 -18 42 c-19 46 -43 63 -87 63 -35 0 -62
-28 -65 -66 -2 -27 0 -29 33 -26 27 2 43 -3 63 -22 35 -33 45 -73 22 -90 -24
-17 -15 -87 20 -156 29 -56 36 -168 12 -192 -7 -7 -19 -22 -26 -33 -11 -18
-12 -17 -7 10 4 29 -7 96 -25 143 -11 27 -49 30 -72 4 -29 -32 -21 -92 22
-176 22 -41 36 -78 32 -81 -10 -5 -84 104 -100 148 -17 44 -13 78 15 131 l27
50 -23 18 c-30 24 -85 23 -110 -2 -25 -25 -25 -23 1 -122 26 -100 21 -153 -16
-185 -21 -19 -25 -29 -20 -55 l6 -33 -157 -63 c-86 -34 -159 -61 -161 -58 -2
2 72 56 166 120 93 64 172 123 174 130 3 8 -1 35 -9 62 -8 26 -14 63 -15 83
-1 20 -5 47 -9 61 -6 16 -8 -9 -7 -71 l2 -97 -30 5 c-29 5 -42 -6 -198 -168
-91 -95 -165 -174 -163 -176 2 -3 93 29 256 88 30 12 81 30 113 41 48 17 57
24 57 44 0 14 6 27 14 30 18 7 85 -21 113 -48 29 -27 29 -54 0 -109 -13 -24
-29 -66 -37 -94 -7 -27 -35 -129 -63 -225 -51 -179 -77 -280 -72 -280 4 0 227
275 298 367 56 74 57 76 51 124 l-7 49 33 0 c31 0 32 -1 26 -37 -13 -84 -66
-507 -63 -509 2 -2 40 96 86 218 72 192 82 228 77 264 -7 55 7 64 45 28 36
-34 36 -48 4 -78 -14 -13 -25 -32 -25 -42 0 -11 21 -132 46 -269 50 -274 64
-355 64 -369 0 -5 2 -7 4 -5 4 4 74 372 105 552 l17 98 -28 32 c-35 41 -35 50
3 81 38 32 49 27 42 -22 -5 -37 -1 -48 113 -359 21 -56 39 -101 41 -99 2 2 1
34 -3 72 -5 45 -10 61 -14 45 -4 -17 -10 -3 -23 55 -10 44 -32 132 -48 197
-35 144 -35 147 -5 147 20 0 25 -6 29 -33 l4 -32 1 33 c2 30 4 32 38 32 36 0
36 0 29 -32 -4 -18 -9 -42 -11 -53 -3 -14 40 -74 148 -208 84 -104 165 -205
181 -224 21 -29 27 -32 27 -16 0 11 -6 39 -14 64 -8 24 -42 145 -76 269 -37
132 -69 229 -77 234 -8 4 -21 24 -29 43 -13 31 -13 38 1 59 20 31 83 73 115
76 20 2 26 -2 28 -23 3 -23 12 -30 65 -49 34 -12 134 -49 221 -81 87 -33 160
-58 162 -56 2 1 -74 83 -169 180 -166 172 -173 178 -204 171 l-32 -6 5 98 c6
125 -11 96 -19 -34 l-7 -94 41 7 42 7 133 -133 c74 -74 134 -137 134 -141 0
-9 -79 39 -243 146 -157 102 -164 118 -126 278 19 83 7 112 -48 116 -48 4 -83
-11 -83 -35 0 -8 10 -31 21 -50 17 -27 20 -46 17 -92 -3 -49 -11 -67 -58 -135
-30 -43 -56 -73 -58 -67 -2 6 14 43 36 83 50 91 59 135 38 177 -13 24 -23 31
-45 31 -43 0 -52 -19 -54 -119 -1 -50 -4 -91 -7 -91 -13 0 -60 119 -60 151 0
20 13 62 30 95 39 77 49 147 25 174 -15 17 -16 24 -5 50 17 41 46 60 92 60 34
0 38 3 38 25 0 32 -41 75 -72 75 -34 0 -68 -27 -85 -69 l-16 -36 -17 40 c-17
39 -51 65 -86 65 -9 0 -29 -14 -45 -31 l-29 -31 0 26 c0 16 6 26 15 26 8 0 21
13 30 30 12 23 15 65 13 222 l-3 193 -4 -180 -4 -180 -15 80 c-11 60 -15 172
-17 440 -1 198 1 340 5 315 l7 -45 1 40 c0 22 -3 49 -8 60 -6 17 -8 15 -13
-15 -13 -74 -27 -348 -33 -642 -4 -172 -11 -308 -16 -308 -5 0 -6 5 -3 11 8
11 -9 296 -26 449 -10 92 -47 275 -54 268 -7 -7 -45 -195 -54 -268 -11 -85
-26 -318 -26 -397 0 -29 -3 -53 -7 -53 -5 0 -9 84 -10 188 l-2 187 -6 -140
c-4 -119 -6 -131 -12 -81 -4 33 -12 62 -17 66 -7 4 -12 135 -13 386 -2 306 -5
358 -12 269z m183 -410 c3 45 5 41 17 -45 15 -116 16 -280 2 -380 -16 -114
-14 -190 5 -237 11 -28 13 -44 6 -49 -6 -3 -13 -3 -16 0 -3 3 -12 1 -20 -5
-11 -10 -13 59 -11 412 1 233 5 386 8 339 5 -70 7 -76 9 -35z m40 -562 c-1
-62 -2 -65 -11 -34 -9 31 -4 101 7 101 3 0 5 -30 4 -67z m-244 -63 c6 -84 16
-177 21 -200 5 -24 5 -24 -15 -6 -25 23 -61 95 -61 123 0 11 -7 26 -15 33 -20
16 -19 36 3 66 11 16 25 23 41 21 20 -2 24 -8 26 -37z m429 18 c20 -28 20 -52
1 -68 -8 -7 -15 -23 -15 -36 0 -40 -47 -124 -69 -124 -4 0 -2 42 2 93 5 50 9
107 10 125 0 28 4 32 28 32 17 0 34 -8 43 -22z m-330 -89 c4 -24 13 -38 24
-41 10 -3 26 -22 36 -42 10 -21 22 -34 28 -30 8 5 9 -1 5 -17 -4 -13 -7 -31
-8 -39 0 -8 -9 10 -18 40 -15 51 -19 55 -49 58 -43 4 -58 39 -41 91 13 38 14
37 23 -20z m188 -12 c0 -47 -5 -54 -47 -59 -40 -5 -42 10 -4 29 25 13 26 15
28 60 2 41 23 13 23 -30z m-384 -54 c13 -43 5 -64 -15 -38 -14 21 -18 75 -5
75 5 0 14 -16 20 -37z m139 5 c-3 -7 -5 -2 -5 12 0 14 2 19 5 13 2 -7 2 -19 0
-25z m434 -41 c-11 -28 -31 -37 -31 -13 0 7 8 31 17 52 16 37 18 37 21 13 1
-14 -2 -37 -7 -52z m-154 41 c-3 -8 -6 -5 -6 6 -1 11 2 17 5 13 3 -3 4 -12 1
-19z m-247 -98 c22 -44 24 -50 12 -50 -9 0 -27 33 -37 68 -10 35 3 26 25 -18z
m233 6 c-3 -14 -13 -32 -23 -41 -17 -15 -17 -14 -3 29 16 47 34 55 26 12z
m-336 -53 c-16 -16 -17 -16 -17 3 0 26 11 37 24 24 7 -7 5 -16 -7 -27z m428
17 c3 -5 3 -15 -1 -21 -6 -11 -23 6 -24 24 0 10 18 9 25 -3z m-496 -82 c1 -10
-3 -18 -9 -18 -5 0 -10 17 -9 38 0 30 2 33 9 17 5 -11 9 -28 9 -37z m133 35
c19 -17 24 -43 9 -43 -15 0 -41 30 -41 46 0 18 9 18 32 -3z m318 0 c0 -10 -32
-43 -42 -43 -12 0 -10 24 4 38 13 13 38 16 38 5z m-230 -29 c0 -8 -4 -12 -10
-9 -5 3 -10 13 -10 21 0 8 5 12 10 9 6 -3 10 -13 10 -21z m130 6 c0 -11 -7
-20 -15 -20 -13 0 -14 4 -5 20 6 11 13 20 15 20 3 0 5 -9 5 -20z m207 -27 c-3
-10 -5 -2 -5 17 0 19 2 27 5 18 2 -10 2 -26 0 -35z m-482 -104 c9 -39 14 -74
11 -76 -7 -7 -47 128 -40 138 9 16 12 10 29 -62z m409 -17 c-9 -37 -19 -61
-22 -54 -2 7 4 43 14 79 10 37 20 61 22 54 2 -7 -4 -43 -14 -79z m-360 19 c2
-60 20 -86 41 -58 19 26 59 19 63 -10 3 -19 -1 -23 -21 -23 -14 0 -30 -7 -37
-15 -11 -13 -15 -12 -30 8 -23 28 -36 82 -32 125 5 48 14 32 16 -27z m86 40
c0 -5 -9 -11 -20 -14 -20 -5 -26 3 -13 16 9 10 33 8 33 -2z m154 3 c9 -3 16
-14 15 -23 0 -10 -2 -11 -6 -3 -2 6 -11 12 -19 12 -8 0 -14 5 -14 10 0 12 3
12 24 4z m74 -48 c-4 -54 -40 -118 -53 -96 -3 5 -19 10 -36 10 -22 0 -29 4
-29 20 0 31 41 43 61 18 13 -17 17 -17 27 -5 7 8 15 35 18 61 9 63 17 58 12
-8z m171 -58 c-11 -20 -29 -24 -29 -7 0 6 5 20 11 31 9 16 13 18 19 7 5 -7 4
-21 -1 -31z m-633 -25 c-11 -11 -19 6 -11 24 8 17 8 17 12 0 3 -10 2 -21 -1
-24z m680 -49 c-3 -9 -6 -18 -6 -20 0 -3 -4 -3 -10 1 -11 7 -2 35 12 35 6 0 7
-7 4 -16z m-726 -29 c0 -14 -4 -25 -9 -25 -12 0 -19 21 -13 38 8 21 22 13 22
-13z m19 -113 c0 -32 2 -75 5 -97 8 -44 20 -24 -143 -231 -29 -38 -67 -88 -84
-111 -17 -24 -32 -41 -34 -39 -2 2 48 109 112 238 70 142 115 246 115 264 0
17 3 34 6 37 16 15 25 -9 23 -61z m695 46 c9 -12 16 -31 16 -41 0 -13 15 -25
49 -39 l48 -21 62 -215 c34 -118 60 -217 57 -219 -2 -2 -42 69 -89 159 -46 90
-103 198 -126 241 -42 79 -63 157 -43 157 6 0 18 -10 26 -22z m-794 -18 c0 -5
-5 -10 -11 -10 -5 0 -7 5 -4 10 3 6 8 10 11 10 2 0 4 -4 4 -10z m440 -76 c-9
-23 -13 -25 -20 -14 -13 20 -12 33 0 25 6 -3 13 1 16 10 4 9 8 14 11 12 2 -2
-1 -17 -7 -33z m-168 -31 c0 -21 0 -48 -1 -60 -2 -24 -120 -354 -120 -338 -1
8 34 161 94 413 8 35 25 26 27 -15z m199 -138 l8 -60 -3 60 c-2 33 -7 69 -11
80 -4 12 5 7 24 -15 17 -19 31 -44 31 -54 0 -26 -60 -350 -67 -356 -3 -3 -3
15 1 40 3 25 7 90 10 145 4 77 1 61 -13 -70 l-18 -170 -1 260 c-1 246 0 258
15 230 9 -16 20 -57 24 -90z"/>
<path d="M1264 2050 c0 -96 2 -136 3 -87 2 48 2 126 0 175 -1 48 -3 8 -3 -88z"/>
<path d="M1103 2790 c0 -25 2 -35 4 -22 2 12 2 32 0 45 -2 12 -4 2 -4 -23z"/>
<path d="M1562 2765 c0 -16 2 -22 5 -12 2 9 2 23 0 30 -3 6 -5 -1 -5 -18z"/>
<path d="M1574 2690 c2 -25 9 -90 15 -145 6 -55 15 -136 20 -180 l8 -80 2 60
c1 66 -24 300 -39 355 -9 34 -9 34 -6 -10z"/>
<path d="M1113 2655 c0 -33 2 -45 4 -27 2 18 2 45 0 60 -2 15 -4 0 -4 -33z"/>
<path d="M1391 2634 c0 -11 3 -14 6 -6 3 7 2 16 -1 19 -3 4 -6 -2 -5 -13z"/>
<path d="M1123 2480 c0 -36 2 -50 4 -32 2 17 2 47 0 65 -2 17 -4 3 -4 -33z"/>
<path d="M1402 2500 c0 -14 2 -19 5 -12 2 6 2 18 0 25 -3 6 -5 1 -5 -13z"/>
<path d="M1402 2445 c0 -16 2 -22 5 -12 2 9 2 23 0 30 -3 6 -5 -1 -5 -18z"/>
<path d="M1612 2255 c0 -16 2 -22 5 -12 2 9 2 23 0 30 -3 6 -5 -1 -5 -18z"/>
<path d="M1472 830 c0 -19 2 -27 5 -17 2 9 2 25 0 35 -3 9 -5 1 -5 -18z"/>
<path d="M1482 750 c0 -19 2 -27 5 -17 2 9 2 25 0 35 -3 9 -5 1 -5 -18z"/>
<path d="M1492 680 c0 -19 2 -27 5 -17 2 9 2 25 0 35 -3 9 -5 1 -5 -18z"/>
<path d="M1503 605 c0 -22 2 -30 4 -17 2 12 2 30 0 40 -3 9 -5 -1 -4 -23z"/>
</g>
</svg>
