<?xml version="1.0" standalone="no"?>
<!DOCTYPE svg PUBLIC "-//W3C//DTD SVG 20010904//EN"
 "http://www.w3.org/TR/2001/REC-SVG-20010904/DTD/svg10.dtd">
<svg version="1.0" xmlns="http://www.w3.org/2000/svg"
 width="244.000000pt" height="305.000000pt" viewBox="0 0 244.000000 305.000000"
 preserveAspectRatio="xMidYMid meet">
<metadata>
Created by potrace 1.16, written by Peter Selinger 2001-2019
</metadata>
<g transform="translate(0.000000,305.000000) scale(0.100000,-0.100000)"
fill="#000000" stroke="none">
<path d="M1532 2808 c-51 -240 -72 -455 -72 -731 0 -154 0 -158 23 -166 12 -5
31 -18 41 -30 24 -26 38 -26 60 -2 10 11 31 25 47 31 28 12 29 14 28 84 l-1
71 -8 -53 c-7 -44 -14 -59 -42 -83 -18 -15 -36 -28 -40 -29 -5 0 -8 217 -7
483 1 290 4 472 10 457 6 -19 7 -15 3 15 -10 70 -20 58 -42 -47z"/>
<path d="M902 2870 c-14 -45 -48 -248 -61 -365 -15 -135 -21 -243 -23 -419 -2
-146 0 -161 17 -170 10 -6 32 -23 49 -37 l31 -27 35 29 c19 16 40 29 46 29 7
0 14 7 18 15 9 25 -12 491 -29 615 -18 135 -47 292 -53 286 -2 -3 3 -46 12
-98 32 -190 47 -349 53 -558 l6 -215 -40 -28 c-21 -15 -42 -27 -46 -27 -4 0
-7 216 -7 481 0 317 3 478 10 474 12 -7 12 2 1 30 -7 17 -9 15 -19 -15z"/>
<path d="M1316 2753 c-3 -82 -9 -211 -13 -288 l-6 -140 -13 70 c-20 110 -39
193 -46 200 -7 7 -47 -155 -55 -227 -3 -26 -9 -48 -12 -48 -3 0 -7 -66 -9
-148 -6 -347 -17 -253 -22 188 -5 456 -5 461 -13 235 -11 -352 -21 -542 -25
-517 -8 51 -28 11 -40 -84 -13 -96 -13 -99 7 -116 12 -9 21 -27 21 -40 -1 -20
-2 -21 -13 -7 -43 56 -114 41 -144 -28 -14 -36 -33 -44 -33 -15 0 28 -53 73
-87 74 -40 1 -72 -18 -79 -47 -10 -42 1 -55 40 -48 31 5 40 1 71 -30 38 -38
43 -58 20 -77 -34 -29 -4 -146 59 -229 32 -42 33 -62 5 -87 -32 -28 -52 -80
-39 -104 14 -26 50 -50 76 -50 17 0 21 -4 17 -21 -8 -28 -27 -34 -55 -15 -47
31 -71 75 -74 140 -2 34 -7 81 -11 106 -7 40 -11 45 -36 48 -43 5 -67 -22 -67
-76 0 -36 12 -66 66 -164 69 -122 89 -186 80 -249 -3 -20 -1 -50 5 -67 13 -37
9 -44 -63 -133 -152 -188 -203 -247 -206 -238 -2 5 16 46 41 92 24 45 79 149
122 230 l77 148 -17 75 c-13 60 -26 87 -64 137 -90 117 -101 168 -56 257 l25
49 -22 15 c-32 23 -94 20 -118 -4 -24 -24 -25 -40 -4 -111 9 -30 17 -80 18
-112 1 -53 -2 -61 -27 -81 -23 -19 -28 -30 -25 -57 l3 -34 -160 -62 c-88 -34
-167 -62 -175 -62 -14 -1 51 44 283 194 42 28 77 57 77 65 -1 8 -7 42 -15 75
-8 33 -15 77 -15 98 0 21 -5 37 -11 37 -9 0 -10 -25 -5 -89 l7 -90 -33 5 c-30
4 -41 -3 -123 -82 -49 -48 -130 -125 -178 -172 -49 -46 -86 -86 -84 -88 3 -3
92 25 198 61 107 37 209 71 227 76 25 8 32 15 32 35 0 37 22 39 87 7 48 -23
62 -36 82 -75 26 -52 20 -74 -22 -80 -12 -2 -27 -14 -34 -28 -21 -42 -168
-538 -161 -545 2 -2 87 93 188 211 l185 214 -3 55 c-3 54 -3 55 25 56 37 2
127 -2 131 -6 2 -2 -6 -112 -17 -245 -25 -289 -25 -306 0 -215 10 39 16 86 14
105 -5 35 37 325 48 336 3 3 9 -11 13 -31 5 -27 2 -46 -10 -65 -9 -16 -16 -45
-16 -65 0 -20 -7 -64 -16 -97 -8 -33 -13 -62 -10 -65 2 -2 10 21 17 52 7 30
15 52 19 48 4 -4 31 -129 60 -278 29 -148 54 -271 55 -273 1 -1 21 93 44 210
24 117 50 245 59 283 l16 70 38 -145 c21 -80 36 -130 33 -111 -3 18 -5 56 -5
83 0 27 -4 47 -9 44 -5 -3 -14 31 -21 77 -6 45 -18 120 -26 166 -8 46 -13 90
-10 97 10 27 26 13 28 -23 l1 -38 4 35 c3 19 8 39 12 43 9 9 150 12 158 3 3
-3 0 -26 -7 -51 l-13 -45 59 -67 c32 -38 63 -73 69 -79 5 -7 66 -78 134 -158
69 -80 126 -144 128 -143 1 2 -6 32 -16 68 -11 35 -35 120 -55 189 -88 301
-95 318 -127 325 -17 4 -33 13 -36 21 -17 46 42 119 120 149 40 15 50 16 57 5
4 -7 6 -19 3 -26 -5 -14 15 -27 78 -48 24 -9 123 -42 219 -75 96 -33 175 -59
177 -57 2 1 -80 82 -182 180 -178 171 -185 177 -218 171 l-33 -7 3 94 c3 110
-10 84 -21 -39 l-6 -82 47 5 48 4 145 -141 c80 -77 134 -135 120 -129 -14 7
-101 58 -194 113 -116 69 -174 110 -187 131 -23 37 -24 104 -4 153 21 49 19
106 -3 126 -24 22 -95 22 -116 1 -22 -21 -20 -33 9 -76 43 -63 29 -127 -48
-228 -55 -71 -67 -100 -66 -158 2 -77 10 -93 58 -112 24 -9 47 -23 51 -31 11
-20 130 -414 130 -430 0 -12 -28 35 -167 291 -19 36 -54 96 -77 135 -34 58
-41 78 -40 121 0 44 9 66 66 163 71 121 89 178 67 217 -14 28 -55 42 -78 27
-18 -11 -41 -124 -34 -168 8 -54 -78 -152 -115 -129 -27 18 -27 44 0 44 23 0
66 24 80 44 16 23 7 55 -27 97 -19 24 -35 49 -35 56 0 6 11 25 25 41 35 42 73
122 81 171 6 35 3 45 -14 61 -26 24 -19 52 20 85 20 17 42 25 68 25 49 0 56
12 33 53 -41 69 -120 58 -156 -22 l-20 -46 -10 30 c-12 39 -43 72 -73 79 -25
7 -84 -17 -84 -34 0 -6 -4 -10 -10 -10 -19 0 -10 31 17 54 l27 24 -13 93 c-20
143 -31 151 -51 39 -7 -36 -16 -78 -20 -95 -5 -17 -8 187 -8 463 0 271 -2 495
-4 498 -3 2 -8 -62 -12 -143z m-41 -413 c21 -153 32 -474 17 -484 -14 -8 -16
-83 -3 -88 10 -3 15 -42 13 -99 -2 -28 -7 -38 -22 -42 -17 -4 -20 0 -19 31 1
24 3 29 6 14 7 -33 23 -16 23 24 0 23 -4 33 -11 28 -11 -7 -7 104 6 179 4 21
3 72 -1 115 l-9 77 -6 -100 c-5 -96 -5 -94 -9 65 -4 150 -5 138 -10 -130 -6
-291 -6 -289 -6 123 0 229 3 414 7 410 4 -5 15 -60 24 -123z m-160 -590 c0
-19 -36 -39 -42 -22 -8 21 -33 13 -33 -11 0 -28 26 -67 45 -67 7 0 22 8 31 18
17 16 18 16 11 -1 -4 -10 -7 -33 -7 -50 0 -26 -6 -35 -33 -47 -20 -9 -33 -24
-35 -38 l-3 -23 -18 23 c-27 34 -51 85 -51 106 0 11 -7 25 -15 32 -22 19 -18
38 14 71 26 26 35 29 83 26 35 -2 53 -8 53 -17z m380 -5 c28 -27 32 -57 10
-75 -8 -7 -15 -21 -15 -32 0 -30 -56 -128 -74 -128 -3 0 -6 10 -6 23 0 28 -17
47 -42 47 -10 0 -18 6 -19 13 0 6 -3 29 -5 50 -5 38 -4 38 17 24 27 -19 46
-12 64 22 16 32 4 64 -17 43 -14 -14 -48 -16 -48 -2 0 6 -1 13 -2 17 -2 4 11
11 27 14 60 13 86 9 110 -16z m-557 -163 c6 -20 34 -63 62 -94 46 -52 63 -88
41 -88 -15 0 -89 86 -110 129 -21 41 -28 91 -13 91 5 0 14 -17 20 -38z m209 6
c-3 -7 -5 -2 -5 12 0 14 2 19 5 13 2 -7 2 -19 0 -25z m180 10 c-3 -8 -6 -5 -6
6 -1 11 2 17 5 13 3 -3 4 -12 1 -19z m231 -25 c-13 -47 -46 -99 -92 -142 -35
-34 -36 -35 -36 -10 0 14 17 42 42 69 22 24 50 63 60 87 23 51 41 49 26 -4z
m-361 22 c3 -12 -14 -42 -20 -35 -3 3 -8 16 -12 28 -6 19 -4 23 11 20 9 -1 19
-7 21 -13z m106 9 c3 -4 1 -16 -5 -27 -9 -18 -11 -19 -20 -4 -13 25 6 49 25
31z m-65 -110 c-3 -27 -4 -26 -9 8 -3 22 -1 34 4 29 5 -5 7 -21 5 -37z m-104
-7 c9 -34 -1 -68 -11 -39 -3 6 -11 12 -19 12 -9 0 -14 12 -14 36 0 49 31 44
44 -9z m244 14 c2 -21 -5 -33 -23 -45 -28 -18 -30 -14 -19 43 9 41 39 43 42 2z
m39 -113 c-3 -7 -5 -2 -5 12 0 14 2 19 5 13 2 -7 2 -19 0 -25z m-330 -10 c-3
-7 -5 -2 -5 12 0 14 2 19 5 13 2 -7 2 -19 0 -25z m300 10 c-3 -8 -6 -5 -6 6
-1 11 2 17 5 13 3 -3 4 -12 1 -19z m-237 -25 c0 -20 -24 -11 -28 10 -2 12 1
15 12 11 9 -3 16 -13 16 -21z m194 2 c-4 -8 -10 -15 -15 -15 -5 0 -9 7 -9 15
0 8 7 15 15 15 9 0 12 -6 9 -15z m-304 -57 c0 -10 -4 -16 -10 -13 -5 3 -12 -6
-16 -20 -3 -14 -10 -25 -15 -25 -10 0 -13 73 -3 82 12 12 44 -5 44 -24z m444
8 c3 -14 3 -33 0 -43 -16 -49 -16 -49 -25 -28 -10 21 -10 24 8 -58 5 -23 3
-26 -11 -21 -25 10 -46 58 -46 107 0 36 4 46 23 55 34 16 44 14 51 -12z m-174
-7 c0 -5 -4 -9 -10 -9 -5 0 -10 7 -10 16 0 8 5 12 10 9 6 -3 10 -10 10 -16z
m-261 -101 c-7 -21 -16 -38 -20 -38 -4 0 -1 16 7 35 7 19 15 54 16 77 l1 43 4
-40 c3 -22 -1 -57 -8 -77z m131 102 c0 -5 -4 -10 -10 -10 -5 0 -10 5 -10 10 0
6 5 10 10 10 6 0 10 -4 10 -10z m-77 -65 c4 -34 3 -42 -3 -25 -8 25 -13 87 -6
79 2 -2 6 -26 9 -54z m271 6 c-4 -23 -9 -40 -11 -37 -3 3 -2 23 2 46 4 23 9
39 11 37 3 -2 2 -23 -2 -46z m-207 -50 c8 8 13 7 18 -1 4 -7 -2 -21 -13 -33
l-21 -21 -11 28 c-14 37 -12 55 4 34 9 -12 16 -14 23 -7z m166 -13 c-6 -30
-21 -36 -41 -16 -19 19 -15 40 7 33 11 -3 22 -1 26 5 11 17 14 8 8 -22z m24
-10 c-3 -8 -6 -5 -6 6 -1 11 2 17 5 13 3 -3 4 -12 1 -19z m-240 -20 c-3 -7 -5
-2 -5 12 0 14 2 19 5 13 2 -7 2 -19 0 -25z m126 -229 c-4 -15 -8 -17 -14 -8
-6 11 4 28 18 29 0 0 -1 -9 -4 -21z m-81 -81 c-9 -9 -12 -7 -12 12 0 19 3 21
12 12 9 -9 9 -15 0 -24z m158 16 c0 -8 -5 -12 -10 -9 -6 4 -8 11 -5 16 9 14
15 11 15 -7z m-61 -15 l1 25 29 -28 c54 -52 54 -61 7 -291 l-42 -210 -7 64
c-10 89 -7 472 3 441 l8 -25 1 24z m-192 -311 c-3 -7 -5 -2 -5 12 0 14 2 19 5
13 2 -7 2 -19 0 -25z"/>
<path d="M1426 1293 c-11 -11 -6 -23 9 -23 8 0 15 4 15 9 0 13 -16 22 -24 14z"/>
<path d="M1263 740 c0 -47 2 -66 4 -42 2 23 2 61 0 85 -2 23 -4 4 -4 -43z"/>
<path d="M1253 540 c0 -30 2 -43 4 -27 2 15 2 39 0 55 -2 15 -4 2 -4 -28z"/>
<path d="M1580 2799 c0 -8 5 -43 10 -78 26 -156 41 -309 47 -469 3 -99 10
-168 14 -159 9 16 -5 296 -21 442 -18 151 -50 325 -50 264z"/>
<path d="M1152 2705 c0 -16 2 -22 5 -12 2 9 2 23 0 30 -3 6 -5 -1 -5 -18z"/>
<path d="M1343 2495 c0 -27 2 -38 4 -22 2 15 2 37 0 50 -2 12 -4 0 -4 -28z"/>
<path d="M1163 2410 c0 -41 2 -58 4 -37 2 20 2 54 0 75 -2 20 -4 3 -4 -38z"/>
<path d="M1393 785 c0 -22 2 -30 4 -17 2 12 2 30 0 40 -3 9 -5 -1 -4 -23z"/>
<path d="M1402 670 c0 -19 2 -27 5 -17 2 9 2 25 0 35 -3 9 -5 1 -5 -18z"/>
</g>
</svg>
