<?xml version="1.0" standalone="no"?>
<!DOCTYPE svg PUBLIC "-//W3C//DTD SVG 20010904//EN"
 "http://www.w3.org/TR/2001/REC-SVG-20010904/DTD/svg10.dtd">
<svg version="1.0" xmlns="http://www.w3.org/2000/svg"
 width="244.000000pt" height="305.000000pt" viewBox="0 0 244.000000 305.000000"
 preserveAspectRatio="xMidYMid meet">
<metadata>
Created by potrace 1.16, written by Peter Selinger 2001-2019
</metadata>
<g transform="translate(0.000000,305.000000) scale(0.100000,-0.100000)"
fill="#000000" stroke="none">
<path d="M931 2838 c-7 -40 -17 -96 -22 -123 -35 -189 -66 -795 -41 -795 6 0
27 -14 47 -31 l36 -32 28 27 c25 24 32 26 50 17 27 -15 27 -31 1 -31 -27 0
-70 -43 -70 -70 0 -30 -16 -24 -30 10 -34 82 -130 77 -146 -7 -6 -33 -6 -33
35 -33 32 0 48 -6 66 -26 34 -36 40 -62 20 -83 -14 -17 -15 -34 -6 -162 14
-185 14 -249 0 -249 -5 0 -7 5 -4 10 3 6 3 52 -1 104 l-7 94 -26 -3 c-14 -2
-29 -4 -33 -4 -4 -1 -14 -8 -22 -17 -21 -20 -20 -77 1 -136 19 -54 11 -74 -15
-38 -47 65 -52 124 -17 195 l25 50 -21 17 c-30 25 -95 24 -109 -1 -14 -27 -12
-67 5 -125 31 -101 13 -159 -67 -213 -162 -111 -237 -162 -263 -179 l-30 -18
20 24 c11 14 69 78 130 143 l109 118 40 -7 39 -6 -6 68 c-4 38 -7 86 -7 107 0
21 -5 37 -11 37 -9 0 -10 -25 -6 -91 l7 -91 -28 7 c-26 5 -38 -4 -139 -112
-205 -219 -222 -238 -218 -242 3 -2 39 10 82 27 43 17 138 54 211 82 118 46
132 54 132 75 0 13 5 27 11 30 11 7 69 -13 69 -23 0 -4 -18 -42 -41 -85 -22
-43 -38 -81 -35 -84 3 -3 35 16 72 42 70 48 83 48 84 -2 0 -16 -8 -23 -30 -28
-33 -7 -27 6 -81 -195 -70 -262 -100 -383 -96 -386 2 -3 71 84 152 191 81 108
149 194 151 192 5 -4 -43 -320 -52 -351 -4 -12 -2 -16 5 -12 6 4 11 11 11 16
0 5 19 49 41 97 123 260 140 306 137 358 -4 63 15 70 66 25 43 -38 44 -49 11
-89 l-26 -30 56 -323 c50 -287 65 -360 65 -319 0 10 40 246 105 623 3 18 -3
34 -20 53 -35 36 -31 58 13 89 60 41 76 32 61 -34 -7 -31 0 -53 58 -180 117
-257 137 -299 141 -296 4 4 -45 332 -53 353 -2 7 0 13 5 13 6 0 10 -3 10 -7 0
-5 15 -24 33 -45 17 -20 79 -100 137 -177 57 -77 105 -139 107 -137 2 1 -4 29
-13 62 -8 32 -37 145 -64 249 -28 105 -54 203 -58 220 -5 17 -21 36 -38 45
-30 17 -43 45 -27 61 11 11 60 -14 128 -64 28 -20 53 -37 57 -37 11 0 -2 29
-36 85 -63 101 -68 118 -40 129 32 12 44 6 44 -21 0 -26 7 -30 78 -57 42 -15
133 -50 201 -77 68 -28 126 -47 129 -44 4 3 -5 16 -18 28 -21 18 -180 189
-272 291 -20 22 -32 27 -52 24 l-25 -5 -3 91 -3 91 -13 -85 c-8 -47 -16 -98
-18 -115 -4 -26 1 -34 38 -60 79 -54 286 -210 284 -213 -3 -2 -78 28 -249 99
-56 23 -58 25 -52 56 4 25 0 37 -21 58 -24 24 -26 31 -21 93 2 37 11 92 18
123 11 51 11 60 -4 83 -22 33 -77 36 -107 6 l-21 -21 27 -45 c22 -38 26 -53
21 -93 -7 -59 -26 -101 -45 -101 -11 0 -13 7 -7 28 14 56 17 123 5 137 -7 8
-25 21 -41 29 -27 14 -29 13 -30 -7 -1 -12 -5 1 -10 28 -5 28 -7 74 -3 102 4
39 1 58 -10 75 -23 33 -20 50 18 87 27 26 40 32 60 27 29 -7 40 6 32 39 -15
59 -75 73 -120 29 -14 -15 -26 -35 -26 -45 0 -10 -5 -21 -10 -24 -6 -4 -10 5
-10 20 0 50 -28 85 -67 85 -26 0 -30 12 -8 30 16 13 32 6 58 -27 l19 -23 32
27 c18 16 40 33 49 38 14 9 15 36 7 270 -9 252 -22 396 -56 595 -22 126 -28
135 -44 61 -7 -34 -11 -64 -8 -67 3 -2 9 15 14 38 6 28 10 -124 12 -431 1
-261 0 -477 -3 -480 -3 -3 -17 6 -30 20 l-25 24 0 275 c0 151 4 304 10 340 5
36 9 74 9 85 -2 34 -17 -24 -18 -67 -1 -20 -5 -39 -10 -42 -4 -3 -11 43 -15
102 -18 264 -23 205 -25 -257 0 -266 -3 -482 -5 -480 -6 5 -34 173 -45 264
l-8 60 -1 -81 c-1 -45 -5 -103 -9 -130 -7 -46 -8 -47 -14 -19 -4 17 -7 47 -8
68 0 20 -5 37 -10 37 -4 0 -11 51 -15 113 -7 106 -35 296 -54 362 -8 26 -10
27 -15 10 -25 -86 -57 -317 -57 -422 0 -35 -4 -63 -9 -63 -5 0 -13 -35 -17
-77 l-8 -78 -7 60 c-4 33 -10 143 -14 245 -7 202 -31 542 -43 604 -4 22 -6
-174 -4 -434 2 -261 0 -485 -3 -499 -15 -61 -24 18 -30 269 -3 146 -10 288
-15 315 -4 28 -20 126 -34 220 -15 93 -30 173 -35 178 -4 4 -13 -25 -20 -65z
m15 -935 c-2 -2 -16 7 -31 21 -16 15 -32 26 -36 26 -31 0 22 745 63 905 2 6 4
-206 5 -469 2 -264 1 -481 -1 -483z m284 136 c0 -383 -2 -429 -15 -415 -12 12
-15 55 -17 238 -2 187 -3 205 -8 108 l-6 -115 -1 160 c0 88 3 187 7 220 l7 60
3 -60 c3 -53 4 -48 10 40 4 55 8 121 9 148 0 26 3 47 6 47 3 0 5 -194 5 -431z
m-130 -179 c0 -5 -4 -10 -10 -10 -5 0 -10 5 -10 10 0 6 5 10 10 10 6 0 10 -4
10 -10z m300 6 c0 -11 -19 -15 -25 -6 -3 5 1 10 9 10 9 0 16 -2 16 -4z m-35
-117 c4 -11 4 -23 0 -27 -7 -7 -25 17 -25 36 0 20 18 14 25 -9z m-235 -3 c0
-16 -18 -31 -27 -22 -8 8 5 36 17 36 5 0 10 -6 10 -14z m-87 -40 c6 -25 6 -40
-1 -45 -6 -3 -12 -24 -14 -46 l-4 -40 -8 40 c-5 22 -15 48 -24 57 -12 15 -13
22 -2 48 17 42 42 35 53 -14z m425 32 c14 -14 16 -60 3 -73 -5 -6 -14 -26 -19
-45 l-10 -35 -1 33 c-1 18 -5 42 -11 52 -6 12 -6 28 1 49 12 34 19 37 37 19z
m-278 -74 c0 -19 -4 -33 -8 -30 -8 5 -4 66 4 66 2 0 4 -16 4 -36z m-36 -23 c9
-16 22 -31 31 -35 9 -3 23 -22 31 -41 8 -19 16 -35 19 -35 3 0 11 15 19 34 8
19 24 39 35 46 12 6 21 16 21 23 0 7 5 18 12 25 15 15 48 -3 48 -28 0 -40 -11
-50 -55 -50 -46 0 -51 -6 -74 -90 -6 -25 -9 -28 -10 -13 -1 13 -8 41 -17 63
-14 34 -21 40 -46 40 -59 0 -81 27 -58 71 15 26 27 24 44 -10z m-180 -63 c9
-24 34 -66 55 -95 50 -65 65 -93 51 -93 -10 0 -18 8 -66 61 -25 28 -74 129
-74 152 0 31 17 18 34 -25z m103 1 c3 -19 12 -47 20 -62 8 -16 12 -34 10 -40
-3 -7 -12 4 -21 25 -17 39 -33 127 -22 116 4 -3 10 -21 13 -39z m329 -11 c-7
-43 -42 -115 -52 -105 -3 3 4 23 15 46 12 22 21 49 21 60 0 11 3 27 6 36 11
28 17 7 10 -37z m93 -43 c-13 -30 -26 -55 -30 -55 -3 0 -18 -18 -33 -40 -14
-22 -33 -40 -41 -40 -20 0 -10 20 51 103 24 32 44 63 44 67 0 5 5 21 12 37 11
27 12 27 16 5 2 -13 -7 -47 -19 -77z m-329 -54 c-1 -13 -4 -12 -15 3 -8 11
-15 27 -15 35 1 13 4 12 15 -3 8 -11 15 -27 15 -35z m146 7 c-11 -15 -16 -18
-16 -7 0 16 21 42 28 34 2 -2 -3 -14 -12 -27z m204 -94 c0 -27 -4 -43 -10 -39
-5 3 -10 24 -10 46 0 21 5 39 10 39 6 0 10 -21 10 -46z m-550 1 c0 -19 -4 -35
-10 -35 -5 0 -10 16 -10 35 0 19 5 35 10 35 6 0 10 -16 10 -35z m605 -27 c-5
-29 -10 -47 -13 -40 -5 17 8 106 15 99 3 -3 2 -30 -2 -59z m-391 17 c3 -9 0
-15 -9 -15 -16 0 -27 14 -18 24 10 10 21 7 27 -9z m126 6 c0 -6 -4 -13 -10
-16 -5 -3 -10 1 -10 9 0 9 5 16 10 16 6 0 10 -4 10 -9z m-258 -100 c-4 -40 -1
-52 17 -70 31 -31 44 -17 36 40 l-7 49 39 0 c31 -1 35 -3 21 -11 -27 -15 -23
-58 7 -69 17 -7 25 -17 25 -34 0 -24 -2 -25 -52 -19 -29 3 -60 9 -69 14 -22
11 -40 77 -32 122 8 53 21 36 15 -22z m378 -62 c-14 -42 -17 -43 -102 -53 -46
-5 -48 -5 -48 19 0 18 8 28 25 35 31 12 36 66 8 73 -10 3 -1 5 20 6 l38 1 -7
-49 c-7 -56 6 -73 38 -44 17 15 19 26 15 70 -7 64 5 80 17 24 6 -29 5 -54 -4
-82z m137 34 c-3 -10 -5 -4 -5 12 0 17 2 24 5 18 2 -7 2 -21 0 -30z m-717 -42
c12 -24 13 -31 2 -31 -5 0 -14 11 -20 25 -14 29 2 34 18 6z m764 -36 c-4 -8
-8 -15 -10 -15 -2 0 -4 7 -4 15 0 8 4 15 10 15 5 0 7 -7 4 -15z m-144 1 c0 -3
-4 -8 -10 -11 -5 -3 -10 -1 -10 4 0 6 5 11 10 11 6 0 10 -2 10 -4z m-690 -78
c-1 -14 -70 -97 -70 -84 0 4 12 27 26 52 25 43 44 57 44 32z m797 -65 l-2 -78
107 -224 c60 -123 106 -226 104 -228 -3 -3 -141 182 -218 295 -21 30 -36 58
-33 62 3 4 7 55 9 111 2 57 7 112 11 122 15 37 24 14 22 -60z m194 -27 c13
-22 8 -20 -58 24 -51 34 -67 63 -40 73 12 5 76 -59 98 -97z m-856 64 c12 -57
1 -86 -164 -419 -78 -158 -96 -178 -67 -75 21 75 73 264 86 311 9 36 17 45 54
62 42 18 44 20 51 77 4 33 9 62 12 67 9 15 22 6 28 -23z m331 -115 c10 14 14
15 14 4 -1 -16 -28 -55 -34 -48 -2 2 -7 18 -11 34 -5 26 -5 28 6 11 12 -19 12
-19 25 -1z m258 -220 c31 -110 59 -209 62 -220 9 -39 -29 39 -91 185 -61 144
-68 180 -49 239 9 28 23 -7 78 -204z m-474 202 c0 -2 -17 -62 -38 -133 -21
-71 -49 -166 -62 -211 -13 -46 -25 -81 -27 -79 -7 6 39 271 52 303 8 17 11 41
8 52 -3 11 -2 32 1 46 5 20 13 25 36 25 17 0 30 -1 30 -3z m198 -455 l-3 -137
-23 220 -23 219 23 52 23 52 3 -134 c1 -74 1 -196 0 -272z m-50 333 c-8 -18
-8 -54 1 -138 20 -205 14 -191 -34 73 -5 27 -2 41 15 63 27 34 33 35 18 2z"/>
<path d="M1402 2890 c0 -14 2 -19 5 -12 2 6 2 18 0 25 -3 6 -5 1 -5 -13z"/>
<path d="M1392 2815 c0 -16 2 -22 5 -12 2 9 2 23 0 30 -3 6 -5 -1 -5 -18z"/>
<path d="M1383 2720 c0 -25 2 -35 4 -22 2 12 2 32 0 45 -2 12 -4 2 -4 -23z"/>
<path d="M1482 2720 c0 -14 2 -19 5 -12 2 6 2 18 0 25 -3 6 -5 1 -5 -13z"/>
<path d="M1042 2685 c0 -16 2 -22 5 -12 2 9 2 23 0 30 -3 6 -5 -1 -5 -18z"/>
<path d="M1372 2605 c0 -16 2 -22 5 -12 2 9 2 23 0 30 -3 6 -5 -1 -5 -18z"/>
<path d="M1033 2570 c0 -30 2 -43 4 -27 2 15 2 39 0 55 -2 15 -4 2 -4 -28z"/>
<path d="M1363 2420 c0 -47 2 -66 4 -42 2 23 2 61 0 85 -2 23 -4 4 -4 -43z"/>
</g>
</svg>
