<?xml version="1.0" standalone="no"?>
<!DOCTYPE svg PUBLIC "-//W3C//DTD SVG 20010904//EN"
 "http://www.w3.org/TR/2001/REC-SVG-20010904/DTD/svg10.dtd">
<svg version="1.0" xmlns="http://www.w3.org/2000/svg"
 width="244.000000pt" height="305.000000pt" viewBox="0 0 244.000000 305.000000"
 preserveAspectRatio="xMidYMid meet">
<metadata>
Created by potrace 1.16, written by Peter Selinger 2001-2019
</metadata>
<g transform="translate(0.000000,305.000000) scale(0.100000,-0.100000)"
fill="#000000" stroke="none">
<path d="M1492 2891 c-2 -20 -4 -22 -18 -10 -14 12 -15 8 -9 -32 3 -24 -1
-101 -10 -170 -22 -184 -35 -365 -36 -528 0 -110 -4 -147 -14 -158 -22 -21
-12 -70 19 -94 33 -26 34 -41 2 -33 -50 12 -86 -22 -86 -81 0 -22 4 -25 39
-25 33 0 40 -4 51 -30 9 -22 10 -37 2 -57 -6 -16 -14 -44 -17 -63 -9 -46 -47
-112 -91 -155 -36 -37 -45 -75 -17 -75 9 0 42 26 75 58 32 33 58 54 58 48 0
-21 -79 -103 -116 -121 -30 -14 -35 -21 -31 -41 2 -13 0 -24 -6 -24 -13 0 -2
162 13 191 7 11 27 27 46 35 30 13 33 17 24 34 -14 26 -56 36 -77 19 -9 -8
-26 -36 -39 -63 l-22 -48 -11 37 c-12 44 -47 85 -72 85 -23 0 -64 -34 -56 -47
4 -6 20 -13 36 -16 21 -5 32 -15 40 -39 16 -46 27 -188 14 -188 -6 0 -8 11 -6
24 4 21 -1 27 -28 39 -45 19 -80 53 -114 111 -31 54 -28 75 4 23 28 -45 109
-120 124 -114 21 7 8 46 -26 81 -39 39 -87 129 -87 163 0 13 -7 34 -15 46 -12
19 -12 26 2 55 13 28 20 32 54 32 35 0 39 3 39 26 0 81 -67 110 -122 52 -27
-29 -29 -30 -34 -11 -6 22 -42 43 -74 43 -29 0 -69 -41 -72 -75 -3 -28 -1 -30
36 -33 61 -5 104 -66 72 -101 -29 -32 -12 -122 41 -213 18 -31 33 -59 33 -62
0 -3 -11 -21 -25 -41 -27 -41 -27 -42 -43 55 -7 44 -8 45 -49 50 -35 4 -41 8
-33 20 26 40 -4 70 -70 70 -42 0 -52 -4 -66 -25 -14 -21 -15 -34 -5 -88 15
-86 15 -135 0 -120 -7 7 -14 46 -17 87 -2 42 -9 76 -15 76 -6 0 -8 -32 -5 -85
4 -83 4 -85 -18 -85 -16 0 -50 -31 -121 -114 -194 -225 -195 -226 -173 -226 6
0 20 5 32 11 25 13 35 5 18 -16 -18 -22 -5 -19 69 16 36 18 112 53 169 80 80
38 102 53 102 69 0 26 20 26 54 -1 32 -25 56 -69 56 -104 0 -19 -7 -28 -28
-36 -26 -9 -30 -19 -61 -142 -69 -276 -102 -419 -97 -425 3 -2 12 8 21 22 24
36 32 33 27 -12 l-3 -37 29 45 c15 25 37 61 48 80 10 19 21 37 24 40 10 9 100
149 100 155 0 3 19 34 41 68 39 58 41 64 32 104 -6 23 -7 47 -2 54 11 18 116
5 141 -18 37 -33 39 -47 12 -85 l-25 -35 31 -199 c17 -109 38 -242 46 -294 8
-52 17 -111 21 -130 l6 -35 8 30 c7 27 43 247 85 529 l15 98 -27 35 -26 35 19
26 c28 38 61 53 113 50 l45 -3 -3 -47 c-2 -26 2 -58 9 -70 19 -36 220 -350
241 -378 l20 -25 -7 40 c-9 46 -7 45 40 -21 19 -27 35 -46 35 -42 0 6 -62 266
-114 477 -21 88 -25 94 -55 107 -35 15 -36 23 -12 88 18 46 81 87 81 53 0 -11
293 -157 314 -157 3 0 6 7 6 15 0 12 9 11 53 -6 28 -12 59 -24 67 -27 14 -6
-33 55 -106 138 -186 210 -195 220 -217 217 -21 -2 -22 0 -18 81 2 55 -1 82
-8 82 -7 0 -11 -24 -11 -64 0 -74 -6 -96 -27 -96 -13 0 -14 9 -9 53 24 187 24
187 -63 187 -66 0 -81 -11 -81 -57 0 -29 -3 -33 -28 -33 -37 0 -52 -17 -52
-60 0 -59 -22 -72 -47 -27 -8 15 -1 36 30 98 30 59 42 94 45 139 3 40 1 60 -7
60 -17 0 -12 53 7 76 11 12 36 25 60 29 35 6 42 10 42 30 0 13 -10 36 -23 51
-20 23 -28 26 -64 19 -23 -3 -49 -15 -59 -26 -9 -10 -21 -19 -26 -19 -15 0 -8
30 8 37 9 3 30 19 47 34 17 16 35 29 39 29 5 0 7 60 6 133 l-2 132 -6 -119
c-3 -73 -9 -121 -16 -123 -7 -2 -13 70 -18 234 -3 131 -13 312 -21 403 -8 91
-16 203 -18 250 -2 47 -4 74 -5 61z m-379 -1582 c31 -11 38 -18 36 -39 -2 -41
0 -50 15 -50 19 0 37 -25 31 -42 -3 -7 -19 -19 -37 -26 -17 -6 -28 -8 -24 -5
10 10 -15 33 -36 33 -11 0 -33 -8 -49 -17 -27 -16 -29 -16 -49 2 -29 26 -25
32 18 31 l37 -1 -4 69 c-2 55 0 68 10 64 8 -3 31 -11 52 -19z m302 -50 l0 -64
33 0 c34 0 42 -15 18 -34 -11 -9 -22 -8 -49 5 -41 19 -92 12 -83 -11 7 -18 4
-18 -29 -3 -31 14 -35 57 -5 65 16 4 20 14 20 43 0 34 3 39 30 45 16 4 32 11
36 16 16 26 29 -2 29 -62z m470 -36 c105 -118 186 -215 181 -220 -20 -20 -256
215 -256 256 0 25 35 8 75 -36z m-1152 20 c-3 -10 -14 -27 -23 -38 -9 -11 -20
-27 -23 -36 -6 -17 -103 -96 -145 -118 -52 -28 -32 5 53 84 50 46 99 93 110
104 25 25 36 26 28 4z m1022 -103 c11 -18 -5 -31 -26 -20 -11 6 -17 15 -14 21
8 12 32 12 40 -1z m-554 -112 c7 -48 24 -88 38 -88 11 0 31 70 31 109 0 17 4
31 9 31 4 0 6 -24 3 -52 -5 -56 -37 -122 -54 -112 -16 10 -38 71 -38 107 0 18
-6 39 -12 46 -11 11 -10 13 2 9 9 -3 18 -23 21 -50z m-719 10 c-6 -7 -25 -21
-44 -31 -32 -18 -32 -18 7 16 38 33 60 42 37 15z m465 -50 c-4 -59 -15 -97
-58 -198 -56 -129 -96 -206 -105 -198 -7 8 60 195 105 293 23 50 45 109 48
133 9 68 16 48 10 -30z m993 32 c8 -5 12 -11 9 -14 -3 -3 -14 1 -25 9 -21 16
-8 20 16 5z m-293 -92 c12 -16 75 -257 103 -393 9 -43 5 -60 -6 -29 -4 10 -15
37 -24 59 -28 63 -48 133 -69 230 -10 50 -22 102 -26 118 -8 28 5 37 22 15z
m16 -360 c15 -27 27 -52 27 -56 0 -9 -42 54 -74 113 -25 44 -25 47 -4 21 12
-16 35 -51 51 -78z m-903 -13 c0 -8 -4 -15 -10 -15 -5 0 -7 7 -4 15 4 8 8 15
10 15 2 0 4 -7 4 -15z m24 -39 c-3 -9 -10 -16 -15 -16 -5 0 -4 9 3 20 14 22
21 20 12 -4z"/>
<path d="M961 2839 c-42 -246 -59 -450 -62 -729 -2 -210 -2 -200 15 -200 8 0
24 -13 36 -30 12 -16 25 -30 29 -30 4 0 26 18 49 39 l42 39 0 149 c0 286 -44
790 -71 818 -6 5 -9 4 -9 -5 0 -12 -2 -13 -9 -1 -6 9 -12 -8 -20 -50z m38
-516 c1 -364 -4 -447 -23 -397 -8 22 -7 636 1 759 13 183 21 54 22 -362z"/>
<path d="M1435 2695 c-4 -36 -5 -68 -3 -71 3 -2 8 25 12 62 4 37 5 69 2 71 -2
3 -7 -25 -11 -62z"/>
<path d="M1522 2735 c0 -16 2 -22 5 -12 2 9 2 23 0 30 -3 6 -5 -1 -5 -18z"/>
<path d="M1532 2670 c0 -19 2 -27 5 -17 2 9 2 25 0 35 -3 9 -5 1 -5 -18z"/>
<path d="M1547 2560 c3 -36 9 -123 13 -195 l8 -130 -4 155 c-3 85 -9 173 -14
195 -8 33 -8 28 -3 -25z"/>
<path d="M1423 2570 c0 -25 2 -35 4 -22 2 12 2 32 0 45 -2 12 -4 2 -4 -23z"/>
<path d="M1227 2585 c-27 -100 -47 -283 -54 -498 -3 -114 -7 -206 -9 -204 -2
1 -8 43 -14 92 -13 106 -19 135 -30 135 -14 0 -19 -28 -26 -126 -7 -95 -7 -96
20 -121 24 -22 27 -31 24 -76 -3 -50 -4 -52 -30 -49 -24 2 -28 -1 -28 -23 0
-61 43 -86 73 -42 16 22 16 21 16 -19 1 -28 6 -44 16 -48 9 -3 23 -22 31 -41
14 -35 34 -40 34 -9 0 8 12 27 26 41 18 18 26 37 26 62 0 35 0 36 15 14 28
-42 72 -22 76 34 2 25 -1 28 -28 28 -29 0 -30 2 -33 52 -3 46 0 55 22 74 23
20 26 30 25 83 0 69 -12 153 -23 163 -13 13 -24 -19 -31 -86 -15 -149 -21
-133 -28 69 -6 191 -33 432 -55 490 -8 23 -10 23 -15 5z"/>
<path d="M1413 2435 c0 -38 2 -53 4 -32 2 20 2 52 0 70 -2 17 -4 1 -4 -38z"/>
<path d="M1404 2240 c0 -63 1 -89 3 -57 2 31 2 83 0 115 -2 31 -3 5 -3 -58z"/>
</g>
</svg>
