<?xml version="1.0" standalone="no"?>
<!DOCTYPE svg PUBLIC "-//W3C//DTD SVG 20010904//EN"
 "http://www.w3.org/TR/2001/REC-SVG-20010904/DTD/svg10.dtd">
<svg version="1.0" xmlns="http://www.w3.org/2000/svg"
 width="244.000000pt" height="305.000000pt" viewBox="0 0 244.000000 305.000000"
 preserveAspectRatio="xMidYMid meet">
<metadata>
Created by potrace 1.16, written by Peter Selinger 2001-2019
</metadata>
<g transform="translate(0.000000,305.000000) scale(0.100000,-0.100000)"
fill="#000000" stroke="none">
<path d="M882 2873 c-18 -60 -61 -308 -72 -418 -6 -55 -13 -198 -17 -317 l-6
-217 29 -11 c16 -6 41 -22 55 -36 23 -22 27 -23 39 -9 8 9 31 25 52 36 l38 19
0 143 c0 244 -20 454 -66 691 -30 156 -36 171 -52 119z m32 -55 c31 -166 58
-411 68 -612 l12 -239 -40 -33 c-21 -19 -44 -34 -51 -34 -10 0 -12 108 -13
475 0 434 6 541 24 443z"/>
<path d="M1571 2885 c-1 -12 -5 -25 -10 -30 -9 -10 -42 -183 -61 -315 -15
-108 -30 -356 -30 -497 0 -113 1 -122 20 -128 11 -4 34 -18 51 -32 25 -22 34
-24 48 -15 9 7 33 22 55 34 l38 23 -5 225 c-6 236 -24 414 -57 565 -23 106
-20 62 9 -125 27 -176 50 -632 33 -638 -7 -2 -26 -15 -41 -28 -16 -13 -34 -24
-40 -24 -15 0 -16 931 -1 946 7 7 7 19 1 35 -9 21 -10 22 -10 4z"/>
<path d="M1226 2578 c-47 -155 -76 -400 -76 -640 0 -49 -4 -88 -9 -88 -4 0
-16 48 -26 107 -30 183 -43 193 -64 50 -16 -112 -15 -120 19 -139 41 -23 55
-62 40 -110 -11 -37 -40 -52 -55 -28 -12 19 -25 10 -25 -18 0 -57 65 -80 90
-31 13 24 32 25 29 2 -4 -44 2 -64 24 -74 12 -5 32 -26 43 -47 l21 -36 22 41
c13 27 28 43 43 45 19 2 23 10 24 38 1 19 2 39 3 45 0 5 12 -3 26 -18 38 -40
65 -34 85 17 13 34 -2 58 -22 38 -24 -24 -47 -13 -59 27 -14 47 1 96 31 106
38 12 42 29 30 127 -10 86 -21 120 -35 106 -5 -5 -45 -219 -45 -241 0 -5 -4
-6 -8 -3 -5 3 -12 85 -15 183 -8 215 -20 328 -48 451 -21 89 -35 118 -43 90z
m58 -303 c16 -140 32 -580 22 -612 -3 -11 -19 -29 -35 -41 l-28 -21 -1 462 c0
411 1 455 13 402 8 -33 21 -118 29 -190z"/>
<path d="M752 1863 c-28 -6 -55 -44 -50 -75 3 -20 8 -22 44 -20 32 3 47 -2 72
-23 43 -36 49 -62 22 -87 -19 -17 -21 -27 -16 -62 8 -46 63 -151 95 -180 28
-25 27 -32 -14 -77 -48 -53 -54 -84 -24 -115 27 -27 77 -39 98 -25 13 8 13 15
1 50 -10 31 -10 47 -2 65 l11 24 70 -21 c68 -20 72 -20 89 -3 16 16 16 18 -2
32 -11 8 -27 14 -36 14 -25 0 -111 57 -148 98 -39 42 -71 106 -72 140 0 35 14
26 34 -23 23 -54 118 -148 178 -175 23 -10 44 -17 46 -15 11 10 -10 54 -28 60
-25 8 -104 85 -130 127 -11 18 -20 46 -20 61 0 15 -7 30 -15 33 -23 9 -18 52
11 81 22 22 32 25 70 20 41 -4 44 -3 44 20 0 36 -15 59 -49 73 -43 17 -102
-12 -116 -57 -11 -40 -20 -41 -37 -6 -23 46 -77 75 -126 66z"/>
<path d="M1435 1858 c-30 -17 -44 -40 -45 -70 0 -27 1 -27 44 -22 41 6 48 4
75 -24 36 -36 38 -46 11 -69 -11 -10 -20 -29 -20 -44 0 -44 -73 -135 -154
-192 -14 -10 -26 -27 -26 -37 0 -25 1 -25 59 4 62 32 145 117 168 173 10 23
21 43 26 43 17 0 5 -56 -23 -106 -38 -66 -108 -125 -180 -151 -56 -21 -68 -38
-39 -56 13 -8 35 -5 85 11 53 17 70 19 76 9 11 -17 10 -51 -2 -83 -22 -56 45
-71 98 -21 31 29 24 67 -23 119 -21 23 -33 44 -28 51 3 7 23 35 44 62 36 49
69 127 69 165 0 11 -9 28 -20 38 -43 40 20 112 96 112 40 0 44 2 44 24 0 41
-33 71 -78 71 -47 0 -78 -23 -100 -75 l-15 -35 -18 43 c-14 31 -28 47 -53 57
-42 18 -45 18 -71 3z"/>
<path d="M1085 1580 c-12 -4 -27 -15 -34 -24 -11 -14 -8 -16 28 -22 53 -8 72
-31 88 -107 21 -102 18 -123 -18 -136 -25 -9 -30 -15 -27 -38 2 -20 10 -29 28
-33 18 -4 26 -14 28 -32 3 -23 -2 -28 -29 -35 -62 -17 -64 -58 -4 -69 38 -7
45 -12 45 -32 0 -31 21 -91 36 -107 22 -21 7 -39 -15 -17 -27 25 -41 57 -41
91 0 31 -11 43 -45 48 -26 5 -35 21 -35 66 0 36 -1 37 -39 37 -21 0 -55 -7
-75 -15 -37 -16 -64 -10 -91 19 -45 50 -50 61 -51 110 -2 67 -14 138 -27 154
-13 17 -62 15 -81 -4 -42 -42 -31 -91 51 -220 75 -119 85 -146 88 -234 1 -41
5 -87 9 -101 8 -30 12 -25 -173 -236 -68 -79 -126 -141 -129 -138 -3 2 2 15
10 27 8 13 68 117 133 233 l117 209 -5 56 c-6 65 -34 126 -87 190 -47 56 -80
121 -80 156 0 15 14 50 30 80 l31 52 -23 16 c-32 23 -110 21 -131 -2 -22 -24
-21 -56 3 -127 11 -32 20 -78 20 -103 0 -36 -5 -49 -31 -73 -26 -24 -29 -33
-24 -61 l6 -33 -177 -63 c-97 -35 -180 -62 -185 -60 -5 2 64 47 154 102 259
157 240 137 212 230 -8 27 -15 68 -15 92 0 24 -5 46 -12 50 -8 5 -10 -18 -5
-90 l5 -97 -32 7 c-31 5 -41 -1 -137 -87 -205 -183 -279 -252 -275 -257 3 -2
26 3 53 11 409 131 433 140 433 155 1 41 15 46 67 27 67 -25 98 -51 118 -96
21 -44 12 -63 -33 -72 -30 -6 -33 -14 -112 -267 -23 -74 -55 -173 -70 -220
-15 -47 -25 -87 -23 -90 5 -5 191 195 395 426 18 20 18 24 4 59 -9 20 -13 41
-10 46 3 5 45 9 93 9 75 0 93 -3 121 -22 56 -39 59 -53 22 -91 l-33 -34 66
-324 c59 -285 75 -355 75 -324 0 4 27 139 60 299 33 160 63 304 66 319 5 23 0
36 -27 63 -37 38 -35 51 15 88 22 17 46 22 128 24 l101 4 -7 -29 c-21 -86 -39
-59 240 -359 57 -61 112 -122 123 -135 14 -17 20 -19 21 -9 0 8 -32 116 -71
240 -39 124 -75 241 -81 260 -13 46 -32 66 -69 74 -32 6 -36 23 -15 64 20 39
55 68 109 92 55 25 77 21 77 -13 0 -20 9 -27 53 -41 249 -82 423 -136 430
-133 8 2 -319 303 -365 335 -11 8 -30 11 -48 7 l-29 -6 6 93 c4 62 2 90 -5 83
-5 -5 -13 -54 -16 -107 l-7 -98 44 6 44 6 146 -128 c80 -71 146 -132 146 -136
1 -12 -27 2 -194 97 -209 120 -201 113 -219 152 -21 43 -20 75 4 143 25 70 25
95 0 120 -36 36 -140 20 -140 -21 0 -8 11 -31 25 -51 43 -63 26 -140 -50 -223
-70 -77 -92 -154 -64 -232 8 -25 19 -33 55 -43 53 -15 44 1 121 -235 72 -221
73 -226 63 -220 -8 5 -99 156 -109 180 -2 6 -21 37 -41 70 -147 239 -162 275
-142 335 6 16 40 76 75 133 76 120 89 169 57 210 -23 29 -70 37 -87 15 -12
-16 -25 -98 -24 -151 1 -44 -16 -82 -51 -113 -33 -31 -61 -37 -94 -19 -16 8
-48 15 -71 15 -40 0 -41 -1 -40 -34 1 -39 -17 -66 -44 -66 -22 0 -30 -12 -36
-59 -3 -20 -15 -52 -26 -71 -21 -33 -22 -34 -25 -12 -2 13 4 41 12 63 9 22 16
51 16 64 0 14 6 25 13 26 40 3 59 7 66 15 14 14 -6 54 -27 54 -10 0 -27 9 -37
20 -21 23 -8 47 28 52 17 2 22 10 22 33 0 23 -5 30 -25 35 -24 6 -25 10 -24
74 2 89 27 154 62 162 54 12 63 16 59 27 -6 20 -50 38 -77 31 -33 -7 -58 -31
-81 -76 -24 -47 -34 -48 -49 -4 -6 18 -19 41 -29 50 -25 22 -72 35 -96 26z
m219 -744 l45 -54 -30 -138 c-16 -77 -39 -184 -50 -239 -12 -55 -23 -102 -25
-104 -2 -3 -4 119 -3 270 0 240 4 319 14 319 1 0 23 -24 49 -54z"/>
</g>
</svg>
