<?xml version="1.0" standalone="no"?>
<!DOCTYPE svg PUBLIC "-//W3C//DTD SVG 20010904//EN"
 "http://www.w3.org/TR/2001/REC-SVG-20010904/DTD/svg10.dtd">
<svg version="1.0" xmlns="http://www.w3.org/2000/svg"
 width="244.000000pt" height="305.000000pt" viewBox="0 0 244.000000 305.000000"
 preserveAspectRatio="xMidYMid meet">
<metadata>
Created by potrace 1.16, written by Peter Selinger 2001-2019
</metadata>
<g transform="translate(0.000000,305.000000) scale(0.100000,-0.100000)"
fill="#000000" stroke="none">
<path d="M880 2870 c-6 -23 -9 -45 -6 -48 3 -3 7 3 8 14 0 10 4 -28 8 -86 7
-95 3 -841 -4 -848 -2 -1 -22 10 -45 24 l-41 28 0 110 c0 136 23 424 45 566
25 158 28 185 22 180 -3 -3 -17 -73 -31 -156 -27 -161 -43 -361 -48 -588 l-3
-140 45 -28 c68 -42 68 -42 100 -15 16 14 39 28 50 32 18 6 20 15 20 106 0
167 -19 436 -41 579 -18 119 -56 299 -65 309 -1 1 -8 -16 -14 -39z"/>
<path d="M1570 2900 c-1 -8 -3 -23 -5 -32 -2 -10 1 -20 6 -24 5 -3 9 -203 9
-475 0 -392 -2 -469 -14 -469 -7 0 -20 7 -27 16 -7 9 -23 20 -36 25 -21 8 -23
14 -23 86 1 191 20 429 51 627 11 70 18 130 15 133 -5 6 -12 -25 -35 -177 -26
-161 -41 -369 -41 -548 l0 -142 33 -13 c17 -8 41 -24 51 -36 l19 -21 26 24
c14 14 38 29 54 35 l27 11 0 122 c-1 252 -26 518 -70 733 -19 94 -38 151 -40
125z"/>
<path d="M1551 2814 c0 -11 3 -14 6 -6 3 7 2 16 -1 19 -3 4 -6 -2 -5 -13z"/>
<path d="M1212 2800 c0 -14 2 -19 5 -12 2 6 2 18 0 25 -3 6 -5 1 -5 -13z"/>
<path d="M1251 2695 c-1 -75 -6 -122 -10 -110 -7 17 -9 15 -19 -15 -43 -138
-61 -264 -68 -498 -4 -111 -11 -205 -15 -208 -7 -4 -15 27 -39 169 -19 103
-29 100 -49 -17 -17 -94 -14 -134 9 -141 37 -12 60 -53 54 -97 -2 -23 -7 -45
-10 -49 -8 -13 -38 -11 -52 3 -20 20 -35 -4 -22 -38 20 -50 49 -57 82 -19 31
35 39 31 32 -15 -6 -38 -5 -41 24 -51 22 -7 35 -21 44 -45 15 -43 31 -43 46
-1 7 19 23 39 37 45 25 11 29 27 25 82 -1 25 -1 25 29 -7 16 -18 36 -33 44
-33 22 0 47 34 47 64 0 23 -3 27 -17 21 -41 -18 -57 -11 -66 28 -13 53 -2 82
39 106 l36 22 -6 57 c-12 103 -27 165 -38 154 -5 -5 -19 -64 -31 -131 -11 -66
-24 -121 -28 -121 -3 0 -10 84 -14 188 -7 187 -28 393 -42 415 -5 7 -11 93
-14 192 l-5 180 -3 -130z m-16 -268 c1 -45 -5 -190 -13 -322 -8 -132 -14 -298
-12 -368 l2 -129 -26 17 -26 17 0 167 c0 178 14 412 30 526 17 111 32 186 38
180 3 -3 7 -43 7 -88z m4 -610 c-1 -23 -4 -32 -6 -19 -2 12 -9 22 -14 22 -10
0 -12 33 -3 43 14 14 24 -6 23 -46z m-6 -82 c-7 -21 -13 -19 -13 6 0 11 4 18
10 14 5 -3 7 -12 3 -20z m-1 -100 c3 -14 1 -28 -3 -31 -5 -3 -9 9 -9 25 0 38
6 40 12 6z"/>
<path d="M755 1862 c-29 -6 -52 -29 -58 -58 -5 -30 7 -39 53 -36 38 2 64 -15
94 -60 17 -26 17 -27 -3 -45 -42 -35 -12 -141 65 -231 35 -41 35 -43 20 -67
-9 -14 -20 -25 -24 -25 -12 0 -42 -56 -42 -77 0 -46 92 -91 120 -59 10 13 10
22 1 42 -15 33 -14 69 2 83 10 8 29 5 75 -12 48 -17 66 -19 79 -11 30 19 20
34 -40 58 -99 41 -156 95 -198 190 -14 33 -18 51 -11 58 7 7 19 -6 36 -40 27
-54 90 -121 146 -157 98 -62 111 -18 16 54 -62 46 -116 122 -116 162 0 18 -7
32 -20 39 -28 15 -25 37 10 72 26 25 36 29 73 26 47 -3 52 1 44 42 -7 34 -36
52 -83 52 -42 0 -62 -16 -82 -62 -13 -32 -16 -33 -26 -16 -39 66 -77 88 -131
78z"/>
<path d="M1434 1855 c-19 -8 -35 -24 -41 -41 -15 -45 -7 -54 40 -48 34 5 48 2
70 -16 30 -24 38 -74 12 -84 -8 -3 -15 -18 -15 -33 0 -48 -55 -119 -144 -188
-24 -19 -37 -37 -35 -47 4 -16 8 -16 54 6 64 30 149 115 172 172 22 54 38 57
28 7 -10 -53 -30 -89 -81 -140 -44 -44 -132 -93 -167 -93 -22 0 -19 -28 4 -43
11 -7 34 -4 80 11 54 17 66 18 78 6 13 -12 13 -21 2 -65 -14 -53 -8 -68 27
-69 23 0 71 29 82 50 15 27 6 51 -36 101 -40 48 -40 50 -14 74 11 10 34 40 51
66 39 61 53 162 25 182 -42 31 35 111 101 105 30 -2 38 1 41 16 6 28 -17 63
-49 76 -44 19 -93 -4 -121 -56 -22 -43 -38 -49 -38 -14 0 26 -39 67 -70 73
-14 3 -39 0 -56 -8z"/>
<path d="M1083 1575 c-18 -8 -33 -18 -33 -24 0 -5 15 -13 33 -16 53 -12 74
-39 87 -115 16 -93 11 -123 -20 -130 -20 -5 -25 -12 -25 -35 0 -25 4 -31 28
-33 20 -3 27 -9 27 -26 0 -26 -17 -46 -41 -46 -9 0 -22 -7 -30 -16 -17 -21 0
-49 32 -49 34 0 50 -26 56 -93 4 -44 3 -54 -7 -46 -14 14 -32 86 -19 78 13 -8
10 8 -5 29 -7 9 -25 17 -39 17 -32 0 -51 30 -42 69 4 21 2 30 -11 35 -18 7
-92 -10 -111 -26 -22 -18 -60 1 -97 46 -31 37 -36 50 -35 92 1 91 -11 144 -36
160 -19 13 -28 13 -47 3 -62 -33 -63 -79 -2 -184 116 -201 117 -203 110 -246
-4 -22 -17 -57 -30 -77 -36 -56 -221 -373 -240 -409 -16 -32 -39 -55 -32 -31
30 94 103 318 120 368 21 62 23 65 69 79 41 13 48 19 57 50 23 84 9 134 -64
223 -81 99 -96 167 -51 228 45 61 26 90 -58 90 -78 0 -93 -40 -56 -153 26 -80
16 -134 -34 -170 -27 -21 -281 -168 -357 -207 l-25 -13 25 28 c14 15 80 77
148 137 l123 111 45 -7 45 -6 -7 93 c-10 131 -25 155 -21 34 l3 -97 -33 6
c-31 6 -40 0 -121 -72 -189 -170 -292 -267 -288 -271 2 -3 105 28 228 67 122
40 231 74 240 77 9 3 18 17 20 32 3 22 7 26 32 23 64 -7 134 -59 156 -116 13
-35 2 -51 -40 -59 -28 -6 -31 -13 -95 -214 -36 -114 -77 -241 -91 -282 -13
-41 -22 -76 -20 -79 5 -5 70 64 325 343 87 95 88 96 65 173 -6 22 -5 22 88 22
82 0 100 -3 128 -22 56 -39 59 -52 21 -92 l-34 -35 36 -178 c83 -403 104 -494
106 -467 1 6 15 76 31 155 17 79 46 222 66 318 l36 173 -33 34 c-38 39 -35 53
21 92 28 19 46 22 128 22 93 0 94 0 88 -22 -23 -80 -26 -73 110 -223 218 -240
274 -298 274 -283 0 11 -47 164 -163 526 -8 25 -18 35 -39 39 -15 3 -33 12
-39 19 -28 35 53 129 131 153 47 14 60 9 60 -23 0 -22 13 -28 148 -71 81 -26
187 -61 236 -77 49 -16 94 -27 99 -25 6 2 -77 81 -184 176 -181 162 -195 172
-225 167 l-31 -6 5 96 c4 71 2 95 -7 90 -6 -4 -11 -26 -11 -49 0 -23 -7 -67
-15 -97 -8 -30 -15 -62 -15 -70 0 -9 79 -64 195 -135 108 -66 191 -121 186
-123 -5 -2 -61 15 -123 38 -62 22 -141 50 -175 61 -66 21 -70 26 -52 61 10 19
7 25 -21 48 -44 36 -50 93 -20 191 24 79 21 113 -12 130 -26 14 -105 6 -124
-13 -12 -12 -10 -21 17 -63 27 -42 30 -55 25 -94 -7 -48 -17 -66 -88 -161 -48
-63 -78 -137 -78 -195 0 -21 35 -94 109 -226 59 -107 120 -214 135 -238 15
-24 25 -45 23 -48 -3 -2 -75 76 -161 174 -137 156 -156 181 -149 203 3 14 7
61 8 106 1 89 19 136 91 244 45 67 73 128 74 156 0 34 -37 74 -70 74 -15 0
-32 -6 -37 -12 -13 -16 -25 -87 -27 -154 -1 -56 -32 -108 -80 -133 -23 -13
-31 -13 -61 2 -20 9 -53 17 -75 17 -38 0 -39 0 -42 -41 -2 -25 -9 -45 -18 -50
-25 -13 -55 -22 -64 -20 -5 1 -6 -15 -3 -36 4 -24 1 -47 -8 -63 -14 -25 -14
-25 -14 15 0 50 21 111 37 108 20 -5 60 15 58 29 -3 24 -17 38 -36 38 -26 0
-53 39 -39 56 6 7 20 14 32 16 14 2 23 11 25 26 3 22 -13 52 -26 50 -32 -4
-34 3 -28 65 12 112 38 167 80 167 12 0 27 4 35 9 23 15 -5 41 -44 41 -38 0
-95 -29 -95 -47 0 -7 -4 -13 -9 -13 -5 0 -11 -9 -13 -20 -4 -27 -22 -30 -26
-6 -5 25 -61 82 -87 90 -11 3 -35 -1 -52 -9z m161 -659 c-10 -17 -12 -80 -10
-301 3 -307 -2 -371 -22 -259 -7 38 -29 141 -48 229 -19 88 -37 169 -39 181
-6 27 64 102 76 82 8 -12 14 31 10 73 -1 10 7 15 23 15 22 0 23 -2 10 -20z"/>
<path d="M1191 633 c1 -78 6 -74 12 10 2 31 0 57 -5 57 -4 0 -8 -30 -7 -67z"/>
<path d="M1192 520 c0 -14 2 -19 5 -12 2 6 2 18 0 25 -3 6 -5 1 -5 -13z"/>
</g>
</svg>
