<?xml version="1.0" standalone="no"?>
<!DOCTYPE svg PUBLIC "-//W3C//DTD SVG 20010904//EN"
 "http://www.w3.org/TR/2001/REC-SVG-20010904/DTD/svg10.dtd">
<svg version="1.0" xmlns="http://www.w3.org/2000/svg"
 width="244.000000pt" height="305.000000pt" viewBox="0 0 244.000000 305.000000"
 preserveAspectRatio="xMidYMid meet">
<metadata>
Created by potrace 1.16, written by Peter Selinger 2001-2019
</metadata>
<g transform="translate(0.000000,305.000000) scale(0.100000,-0.100000)"
fill="#000000" stroke="none">
<path d="M900 2893 c0 -10 -3 -29 -5 -43 -5 -22 -4 -22 4 -5 6 13 10 -150 10
-463 1 -266 -2 -482 -6 -480 -5 2 -26 14 -47 28 l-39 24 7 195 c8 223 18 339
47 530 11 73 17 136 14 139 -3 3 -5 1 -5 -4 0 -5 -7 -47 -16 -94 -31 -172 -45
-321 -50 -555 l-6 -240 33 -20 c18 -11 42 -26 54 -34 20 -13 25 -12 51 12 16
15 37 30 47 33 14 4 17 18 18 72 1 37 1 81 0 97 -15 301 -23 418 -36 505 -24
160 -57 320 -66 320 -5 0 -9 -8 -9 -17z"/>
<path d="M1362 2885 c0 -16 2 -22 5 -12 2 9 2 23 0 30 -3 6 -5 -1 -5 -18z"/>
<path d="M1546 2878 c-9 -34 -6 -57 4 -33 5 12 9 -184 9 -462 1 -266 -2 -483
-6 -483 -4 0 -24 12 -45 26 l-38 27 0 116 c0 213 29 528 67 723 3 18 3 30 0
27 -4 -3 -18 -71 -31 -152 -27 -156 -44 -386 -47 -607 -1 -131 -1 -135 22
-149 13 -8 36 -25 50 -38 l26 -24 34 31 c19 16 42 32 52 36 20 6 20 16 7 319
-9 216 -24 349 -61 540 -23 117 -32 141 -43 103z"/>
<path d="M1102 2868 c-11 -142 -24 -370 -33 -598 -6 -151 -13 -300 -16 -330
-4 -53 -3 -57 22 -70 31 -16 45 -45 37 -74 -4 -16 -8 -11 -16 19 -10 34 -16
40 -47 47 -59 12 -91 -2 -114 -50 -21 -43 -35 -54 -35 -26 0 9 -16 32 -35 51
-32 32 -40 35 -73 30 -42 -7 -72 -38 -72 -73 0 -22 4 -24 46 -24 38 0 50 -5
75 -32 32 -36 38 -72 13 -82 -37 -14 1 -144 67 -227 16 -20 29 -40 29 -44 0
-5 -16 -28 -36 -52 -28 -34 -35 -50 -31 -71 3 -15 9 -40 12 -57 l6 -30 -26 30
c-19 22 -25 41 -24 70 1 55 -12 148 -23 161 -16 22 -47 22 -73 2 -20 -16 -25
-28 -25 -67 0 -40 9 -62 51 -131 71 -118 81 -139 74 -160 -9 -29 -25 -24 -25
8 0 30 -25 76 -75 137 -17 22 -39 54 -49 72 -18 35 -22 128 -6 138 6 3 17 20
26 37 14 27 14 31 -2 49 -23 26 -104 27 -127 1 -22 -24 -21 -56 3 -128 25 -72
19 -124 -19 -164 -24 -26 -303 -200 -321 -200 -4 0 -13 -7 -20 -15 -7 -8 -19
-15 -28 -15 -8 0 34 47 94 103 183 174 178 170 225 162 l40 -7 -7 99 c-9 133
-26 158 -21 30 l4 -97 -31 5 c-36 6 -25 15 -252 -201 -85 -81 -153 -148 -151
-151 2 -2 85 24 183 58 303 103 294 99 294 125 0 32 12 36 59 20 58 -21 96
-53 116 -96 22 -48 17 -61 -25 -75 -27 -9 -36 -20 -46 -51 -7 -21 -28 -91 -47
-154 -20 -63 -52 -167 -71 -231 -20 -64 -36 -123 -36 -133 0 -14 254 263 304
332 11 15 35 44 54 64 32 34 34 39 23 69 -22 62 -17 69 45 69 l57 0 -6 -67
c-4 -38 -15 -142 -26 -233 -12 -91 -20 -176 -20 -190 0 -14 34 71 75 189 60
174 73 221 68 250 l-7 36 31 -29 c32 -30 31 -53 -2 -73 -33 -20 -32 -42 22
-305 29 -145 58 -290 64 -323 l11 -60 27 130 c15 72 44 219 66 327 21 109 41
194 45 190 3 -4 35 -91 70 -194 35 -103 65 -185 67 -184 1 2 0 34 -4 72 -6 50
-9 62 -14 44 -6 -23 -7 -23 -12 10 -4 28 -60 285 -83 388 -5 20 -2 23 17 20
14 -2 25 -12 29 -28 l7 -25 1 26 c1 15 7 29 14 31 17 6 86 2 93 -5 4 -4 1 -27
-6 -51 l-12 -45 191 -220 c106 -122 194 -221 198 -221 3 0 2 8 -2 18 -4 9 -38
121 -76 247 -99 332 -89 305 -121 312 -47 9 -53 26 -28 78 36 75 160 132 168
77 2 -12 11 -26 20 -31 29 -15 443 -153 447 -149 3 2 -53 58 -123 124 -258
243 -238 227 -271 219 l-30 -6 6 90 c4 65 3 91 -6 91 -7 0 -11 -19 -11 -48 0
-27 -7 -72 -16 -101 -8 -29 -13 -59 -11 -65 3 -7 29 -29 59 -48 29 -19 111
-72 181 -118 70 -45 126 -84 124 -86 -7 -8 -324 110 -340 126 -5 4 -4 18 3 30
10 20 8 26 -18 50 -43 39 -49 85 -23 175 26 90 26 117 3 138 -25 23 -84 21
-113 -2 l-24 -20 28 -49 c15 -28 27 -59 27 -70 0 -40 -30 -103 -84 -174 -31
-40 -56 -83 -56 -95 0 -13 -4 -23 -10 -23 -23 0 -7 49 44 134 30 50 57 103 61
119 15 57 -16 107 -66 107 -23 0 -30 -5 -34 -27 -4 -16 -11 -47 -16 -71 -5
-24 -7 -58 -4 -75 7 -38 -29 -104 -40 -75 -4 9 -1 26 5 38 14 27 5 56 -31 98
-16 18 -29 39 -29 46 0 7 14 31 31 52 36 44 54 84 68 143 7 32 5 47 -9 74 -18
33 -18 35 0 65 25 40 55 55 96 49 31 -5 34 -4 34 19 0 37 -16 61 -49 72 -42
15 -90 -12 -115 -62 l-20 -40 -10 32 c-16 48 -49 75 -91 76 l-37 1 -4 80 c-4
108 -13 155 -29 155 -8 0 -16 -8 -18 -17 -3 -10 -6 158 -7 372 -3 447 -12 410
-29 -124 -11 -340 -21 -455 -21 -248 0 126 -22 308 -52 431 -24 102 -25 101
-58 -41 -21 -88 -39 -250 -42 -378 -2 -68 -3 -61 -8 45 l-6 125 -2 -162 c-1
-95 -6 -164 -12 -168 -5 -3 -11 -5 -12 -3 -1 2 -5 219 -8 483 -3 264 -7 468
-8 453z m107 -668 c-12 -339 -13 -346 -23 -158 -5 87 -5 183 -2 215 11 92 29
213 32 210 2 -1 -1 -122 -7 -267z m131 -311 c0 -10 -4 -19 -10 -19 -5 0 -10
12 -10 26 0 14 4 23 10 19 6 -3 10 -15 10 -26z m-194 -16 c-11 -11 -19 6 -11
24 8 17 8 17 12 0 3 -10 2 -21 -1 -24z m44 -90 c0 -28 -4 -54 -8 -57 -4 -3 -8
26 -8 64 1 37 4 63 8 57 4 -7 8 -35 8 -64z m181 25 l-9 -33 -1 36 c-1 20 2 39
6 43 13 12 15 -10 4 -46z m-294 -65 c16 -21 8 -30 -12 -13 -12 10 -19 10 -27
2 -9 -9 -8 -20 5 -47 9 -19 21 -35 26 -35 18 0 22 -52 6 -76 -14 -22 -14 -25
5 -44 11 -11 20 -32 20 -47 -1 -27 -2 -27 -46 22 -47 52 -74 100 -74 133 0 11
-7 25 -15 32 -22 19 -18 48 11 77 20 20 31 24 57 19 18 -3 38 -14 44 -23z
m416 -1 c30 -31 34 -54 13 -71 -8 -7 -18 -31 -21 -53 -4 -23 -18 -52 -31 -65
-13 -13 -24 -27 -24 -30 0 -11 -43 -53 -53 -53 -14 0 2 53 19 67 12 9 13 16 5
32 -16 28 -14 72 4 85 8 6 18 26 21 45 7 31 5 34 -14 29 -31 -8 -37 8 -10 26
33 23 61 20 91 -12z m-343 -82 c0 -33 5 -42 27 -53 25 -14 26 -15 7 -25 -11
-6 -26 -7 -33 -3 -15 10 -26 121 -11 121 5 0 10 -18 10 -40z m190 6 c0 -74
-28 -112 -59 -82 -13 13 -11 16 12 25 23 9 27 16 27 51 0 25 4 39 10 35 6 -3
10 -17 10 -29z m-140 -6 c0 -21 -5 -30 -16 -30 -9 0 -13 5 -10 13 3 6 9 20 12
30 9 25 14 21 14 -13z m-252 -103 c49 -96 40 -134 -12 -44 -26 45 -43 107 -29
107 4 0 23 -28 41 -63z m612 24 c-14 -51 -42 -101 -55 -101 -18 0 -14 15 19
82 29 59 51 71 36 19z m-319 -87 c-7 -31 -9 -34 -10 -12 -1 14 -4 34 -8 44 -4
12 -3 15 5 10 7 -4 12 -1 13 6 0 7 2 8 5 2 2 -6 0 -28 -5 -50z m-87 -40 c25
-63 30 -98 7 -56 -23 43 -50 122 -42 122 5 0 21 -30 35 -66z m171 -24 c-37
-72 -42 -56 -8 26 19 47 29 61 31 47 2 -12 -9 -45 -23 -73z m-285 0 c0 -11 -4
-20 -9 -20 -5 0 -7 9 -4 20 3 11 7 20 9 20 2 0 4 -9 4 -20z m410 -6 c0 -8 -4
-12 -10 -9 -5 3 -10 13 -10 21 0 8 5 12 10 9 6 -3 10 -13 10 -21z m-330 -43
c0 -13 -11 -20 -26 -14 -8 3 -14 14 -14 24 0 17 3 18 20 9 11 -6 20 -14 20
-19z m259 -7 c-9 -11 -15 -12 -23 -4 -8 8 -6 15 9 26 23 17 34 2 14 -22z
m-323 -116 c18 -84 16 -93 -6 -33 -18 48 -27 115 -14 102 3 -3 12 -34 20 -69z
m379 -3 c-9 -36 -22 -68 -27 -71 -6 -4 -8 1 -5 12 3 11 11 39 17 64 16 64 20
74 27 67 3 -4 -2 -36 -12 -72z m-438 28 c-3 -10 -5 -4 -5 12 0 17 2 24 5 18 2
-7 2 -21 0 -30z m178 27 c3 -6 -1 -13 -10 -16 -19 -8 -30 0 -20 15 8 14 22 14
30 1z m145 -5 c10 -12 10 -15 -4 -15 -9 0 -16 7 -16 15 0 8 2 15 4 15 2 0 9
-7 16 -15z m-204 -105 c8 -8 15 -6 24 5 16 19 36 19 44 -1 10 -27 7 -34 -19
-34 -14 0 -25 -4 -25 -10 0 -5 -7 -10 -15 -10 -14 0 -45 83 -45 120 0 39 15
28 20 -14 3 -25 11 -51 16 -56z m274 67 c0 -26 -17 -87 -29 -106 -13 -20 -84
13 -79 37 4 22 48 29 48 8 0 -9 4 -16 9 -16 18 0 32 29 34 68 1 41 17 49 17 9z
m180 -81 c0 -8 -6 -19 -14 -25 -10 -9 -17 -7 -27 5 -11 14 -10 18 5 30 21 15
36 10 36 -10z m-600 -21 c0 -14 -6 -25 -13 -25 -21 0 -27 11 -16 31 14 27 29
23 29 -6z m650 -106 c0 -11 -4 -17 -10 -14 -5 3 -10 15 -10 26 0 11 5 17 10
14 6 -3 10 -15 10 -26z m-750 -24 c0 -8 -4 -15 -10 -15 -5 0 -7 7 -4 15 4 8 8
15 10 15 2 0 4 -7 4 -15z m830 -217 c57 -106 119 -222 138 -258 50 -90 25 -66
-135 128 -98 120 -132 169 -127 181 4 9 9 43 10 76 3 66 2 65 8 65 2 0 50 -87
106 -192z m-830 174 c0 -4 -22 -46 -48 -92 -27 -47 -90 -161 -141 -253 -51
-92 -95 -166 -97 -164 -2 2 9 44 25 93 15 49 45 145 66 214 21 69 42 130 47
136 4 6 28 17 53 24 24 7 52 21 61 31 18 20 34 25 34 11z m371 -69 c-12 -20
-14 -14 -5 12 4 9 9 14 11 11 3 -2 0 -13 -6 -23z m-141 -41 c0 -33 -99 -366
-107 -358 -2 1 13 77 32 167 19 90 35 172 35 182 0 26 19 59 31 52 5 -4 9 -23
9 -43z m260 -17 c0 -59 -10 -64 -42 -21 -17 23 -17 25 3 50 30 39 39 32 39
-29z m-162 -38 c-9 -29 -9 -83 1 -228 7 -105 11 -192 9 -194 -3 -4 -79 360
-78 377 0 10 72 90 76 85 2 -2 -2 -20 -8 -40z"/>
<path d="M1123 2665 c0 -22 2 -30 4 -17 2 12 2 30 0 40 -3 9 -5 -1 -4 -23z"/>
<path d="M1383 2630 c0 -30 2 -43 4 -27 2 15 2 39 0 55 -2 15 -4 2 -4 -28z"/>
<path d="M1133 2495 c0 -27 2 -38 4 -22 2 15 2 37 0 50 -2 12 -4 0 -4 -28z"/>
<path d="M1394 2370 c0 -52 1 -74 3 -47 2 26 2 68 0 95 -2 26 -3 4 -3 -48z"/>
<path d="M1452 845 c0 -16 3 -52 8 -80 6 -41 7 -44 8 -15 0 19 -3 55 -7 80 -6
33 -9 37 -9 15z"/>
<path d="M1473 675 c0 -22 2 -30 4 -17 2 12 2 30 0 40 -3 9 -5 -1 -4 -23z"/>
<path d="M1482 600 c0 -19 2 -27 5 -17 2 9 2 25 0 35 -3 9 -5 1 -5 -18z"/>
</g>
</svg>
