<?xml version="1.0" standalone="no"?>
<!DOCTYPE svg PUBLIC "-//W3C//DTD SVG 20010904//EN"
 "http://www.w3.org/TR/2001/REC-SVG-20010904/DTD/svg10.dtd">
<svg version="1.0" xmlns="http://www.w3.org/2000/svg"
 width="244.000000pt" height="305.000000pt" viewBox="0 0 244.000000 305.000000"
 preserveAspectRatio="xMidYMid meet">
<metadata>
Created by potrace 1.16, written by Peter Selinger 2001-2019
</metadata>
<g transform="translate(0.000000,305.000000) scale(0.100000,-0.100000)"
fill="#000000" stroke="none">
<path d="M1458 2883 c-2 -18 -1 -30 4 -27 12 8 10 -69 -7 -196 -22 -174 -35
-377 -35 -553 0 -103 -3 -156 -10 -152 -5 3 -11 34 -12 68 l-2 62 -5 -75 -6
-75 -8 74 c-13 127 -42 132 -53 11 -13 -139 -21 -115 -27 81 -9 256 -46 527
-67 488 -26 -47 -59 -363 -61 -569 -1 -139 -10 -139 -24 1 -13 131 -39 119
-53 -26 l-10 -100 29 -31 c26 -27 30 -37 27 -80 l-3 -49 -34 3 c-33 4 -34 3
-27 -29 3 -18 11 -38 17 -46 16 -18 46 -16 58 5 9 16 10 16 16 0 4 -9 4 -22 0
-27 -3 -6 5 -20 19 -32 14 -12 31 -38 37 -58 l12 -36 18 42 c10 23 27 47 38
53 15 7 21 21 21 43 1 27 2 29 11 15 16 -28 58 -23 70 9 15 41 8 58 -26 58
-29 0 -30 2 -33 49 -3 43 0 53 27 80 17 17 30 34 31 39 0 4 0 12 0 19 0 6 14
-1 30 -17 35 -34 39 -49 9 -40 -49 16 -89 -21 -89 -80 0 -20 5 -24 37 -27 45
-4 76 -45 57 -76 -6 -10 -15 -38 -19 -62 -11 -65 -21 -74 -55 -48 -50 36 -78
16 -117 -82 -10 -24 -11 -24 -22 15 -12 47 -44 85 -70 85 -10 0 -30 -9 -44
-20 -30 -24 -42 -14 -52 45 -3 22 -12 50 -18 63 -18 38 9 76 56 80 39 3 45 16
31 69 -7 24 -55 48 -79 40 -28 -11 -25 12 6 36 l31 24 -11 289 c-6 159 -18
348 -27 421 -17 146 -42 284 -43 240 -1 -18 -5 -26 -12 -21 -8 4 -9 -11 -5
-52 18 -172 24 -317 25 -574 1 -234 -1 -290 -13 -305 -13 -18 -15 -18 -21 -3
-4 9 -5 233 -3 497 2 265 0 481 -4 481 -5 0 -8 -2 -8 -5 0 -3 -7 -48 -15 -100
-34 -212 -46 -343 -52 -596 l-6 -266 39 -37 39 -38 -51 6 c-61 7 -91 -11 -96
-58 -3 -28 0 -31 39 -38 64 -13 104 -78 67 -109 -29 -24 3 -155 56 -229 25
-35 25 -48 1 -80 l-19 -24 -7 49 c-3 28 -8 56 -10 63 -4 10 -39 17 -67 13 -4
0 -4 15 -1 33 7 43 -13 56 -92 57 -85 2 -101 -30 -70 -148 19 -72 19 -93 0
-93 -15 0 -22 27 -35 130 -7 49 -8 44 -9 -43 -1 -96 -1 -97 -24 -92 -17 5 -29
-1 -48 -22 -14 -15 -71 -79 -126 -141 -113 -125 -168 -192 -158 -192 3 0 38
14 77 30 73 31 91 32 68 5 -23 -27 -6 -24 75 14 44 21 98 46 120 57 22 10 62
31 89 47 27 15 55 26 62 23 17 -6 54 -79 54 -105 0 -12 -11 -25 -27 -33 -32
-16 -37 -31 -103 -303 -27 -115 -54 -226 -60 -244 -8 -30 -6 -53 3 -40 2 2 21
30 42 62 43 64 51 63 36 -3 -5 -23 -6 -38 -2 -34 10 12 85 129 152 237 30 48
69 111 87 140 21 34 31 60 27 74 -3 13 -8 34 -11 48 -6 24 -4 25 42 25 53 0
105 -25 123 -58 8 -15 4 -27 -16 -55 -25 -36 -26 -39 -15 -105 7 -37 30 -182
52 -322 23 -140 42 -256 44 -258 4 -4 13 48 66 385 l42 262 -26 37 c-27 40
-25 54 13 88 25 22 124 35 135 17 4 -6 2 -27 -3 -47 -7 -26 -7 -43 1 -58 18
-35 250 -410 261 -421 6 -6 6 10 2 45 l-8 55 37 -43 c40 -48 43 -43 22 38 -7
30 -35 147 -62 259 -48 200 -50 205 -81 224 -18 10 -33 24 -33 30 0 24 43 96
66 112 24 16 26 16 31 -5 4 -17 46 -41 171 -101 91 -43 167 -79 170 -79 2 0
-3 12 -13 26 -9 14 -15 28 -13 30 3 2 23 -5 46 -16 44 -22 66 -25 60 -11 -4
11 -176 216 -237 284 -36 38 -49 47 -68 42 -23 -5 -23 -4 -24 82 l-2 88 -7
-79 c-5 -48 -13 -82 -21 -87 -19 -11 -24 50 -10 107 26 102 9 134 -73 134 -70
0 -93 -17 -78 -58 l11 -31 -42 -3 -42 -3 -3 -45 c-4 -68 -9 -76 -32 -55 -27
25 -25 46 10 104 17 27 37 80 45 117 12 60 12 70 0 84 -21 23 -18 50 9 84 18
22 32 28 61 28 l37 0 -6 36 c-7 45 -23 58 -82 67 -44 6 -45 7 -28 26 9 10 23
19 31 19 10 0 13 28 11 138 l-2 137 -3 -122 c-3 -93 -7 -123 -17 -123 -10 0
-14 51 -19 238 -3 130 -14 311 -23 402 -8 91 -14 198 -11 238 2 39 0 72 -5 72
-4 0 -8 -8 -8 -17 -1 -11 -6 -6 -14 12 l-13 30 -5 -32z m-458 -1039 c0 -17
-22 -14 -28 4 -2 7 3 12 12 12 9 0 16 -7 16 -16z m490 -5 c0 -18 -2 -19 -15
-9 -8 7 -15 16 -15 21 0 5 7 9 15 9 9 0 15 -9 15 -21z m-352 -319 c17 -11 32
-24 32 -29 0 -4 3 -23 6 -41 l7 -32 -25 25 c-28 28 -68 82 -68 91 0 11 14 6
48 -14z m230 -12 c-9 -13 -30 -38 -47 -55 -32 -34 -39 -57 -20 -68 11 -8 88
42 96 61 2 7 11 15 19 18 11 4 10 -1 -4 -22 -28 -38 -61 -66 -101 -86 l-34
-16 6 59 c9 82 22 110 59 126 40 16 45 13 26 -17z m-288 -67 c13 -26 77 -64
95 -57 11 4 15 -2 15 -19 0 -23 -1 -23 -32 -8 -54 26 -127 103 -99 103 6 0 15
-9 21 -19z m64 -178 c-5 -29 -3 -34 20 -43 31 -12 35 -45 6 -60 -16 -9 -24 -7
-36 5 -19 19 -35 19 -82 0 -34 -15 -38 -15 -50 2 -12 16 -10 18 22 21 40 4 49
20 38 72 -5 19 -6 42 -5 51 4 15 8 15 48 0 43 -15 45 -17 39 -48z m46 52 c0
-8 -4 -15 -10 -15 -5 0 -7 7 -4 15 4 8 8 15 10 15 2 0 4 -7 4 -15z m104 0 c3
-8 1 -15 -4 -15 -6 0 -10 7 -10 15 0 8 2 15 4 15 2 0 6 -7 10 -15z m119 -9 c3
-8 2 -30 -3 -48 -15 -52 -4 -71 36 -65 37 6 47 -10 20 -32 -11 -10 -21 -9 -45
3 -38 20 -65 20 -85 0 -23 -22 -56 -9 -56 22 0 14 7 27 18 31 25 9 31 23 25
53 -4 23 0 28 29 37 46 15 55 15 61 -1z m-693 -56 c0 -11 -9 -28 -20 -37 -11
-10 -20 -29 -20 -44 0 -25 -21 -51 -59 -73 -10 -6 -28 -17 -40 -24 -11 -7 -21
-9 -21 -5 0 13 71 105 113 147 20 20 37 41 37 46 0 6 2 10 5 10 3 0 5 -9 5
-20z m1156 -23 c22 -24 64 -72 94 -107 105 -121 109 -131 37 -81 -56 39 -105
92 -200 219 -7 8 -4 12 11 12 10 0 37 -20 58 -43z m-126 -97 c0 -28 -2 -30
-20 -20 -22 12 -22 12 -14 34 11 28 34 18 34 -14z m-1215 -56 c-24 -31 -131
-92 -142 -80 -2 2 30 29 71 60 41 31 78 62 82 68 6 9 9 9 12 0 2 -7 -8 -28
-23 -48z m666 -45 c7 -43 24 -89 34 -89 10 0 27 46 34 88 3 27 12 47 21 50 12
4 13 2 3 -9 -7 -7 -13 -29 -13 -49 0 -36 -28 -101 -45 -104 -16 -2 -45 66 -45
106 0 24 -6 41 -17 48 -17 10 -16 10 2 8 15 -3 21 -14 26 -49z m737 -4 c17 -9
32 -21 32 -27 0 -11 5 -13 -82 31 -38 19 -68 38 -68 43 0 7 54 -14 118 -47z
m-998 -104 c-14 -77 -121 -313 -136 -299 -6 7 42 182 64 230 12 26 22 51 22
57 0 12 51 73 56 68 2 -2 0 -27 -6 -56z m557 -13 c-3 -7 -5 -2 -5 12 0 14 2
19 5 13 2 -7 2 -19 0 -25z m157 15 c5 -15 87 -339 100 -395 2 -10 1 -18 -3
-18 -17 0 -88 214 -111 335 -6 33 -14 68 -16 78 -4 11 0 17 10 17 8 0 17 -8
20 -17z m-88 -200 c21 -32 44 -64 51 -71 18 -19 77 -142 71 -148 -3 -3 -35 43
-71 103 -102 172 -127 227 -51 116z m-781 -100 c-7 -41 -53 -128 -62 -119 -3
3 4 28 16 55 11 27 25 61 31 75 14 38 23 31 15 -11z m7 -93 c-9 -21 -18 -35
-20 -30 -3 9 25 70 33 70 2 0 -4 -18 -13 -40z"/>
<path d="M1442 2755 c0 -16 2 -22 5 -12 2 9 2 23 0 30 -3 6 -5 -1 -5 -18z"/>
<path d="M1527 2710 c3 -36 9 -87 13 -115 7 -48 7 -48 8 -10 0 22 -6 74 -13
115 l-14 75 6 -65z"/>
<path d="M1432 2690 c0 -14 2 -19 5 -12 2 6 2 18 0 25 -3 6 -5 1 -5 -13z"/>
<path d="M1422 2610 c0 -19 2 -27 5 -17 2 9 2 25 0 35 -3 9 -5 1 -5 -18z"/>
<path d="M1553 2500 c0 -25 2 -35 4 -22 2 12 2 32 0 45 -2 12 -4 2 -4 -23z"/>
<path d="M1413 2470 c0 -25 2 -35 4 -22 2 12 2 32 0 45 -2 12 -4 2 -4 -23z"/>
<path d="M1564 2330 c0 -63 1 -89 3 -57 2 31 2 83 0 115 -2 31 -3 5 -3 -58z"/>
<path d="M1403 2270 c0 -41 2 -58 4 -37 2 20 2 54 0 75 -2 20 -4 3 -4 -38z"/>
</g>
</svg>
