<?xml version="1.0" standalone="no"?>
<!DOCTYPE svg PUBLIC "-//W3C//DTD SVG 20010904//EN"
 "http://www.w3.org/TR/2001/REC-SVG-20010904/DTD/svg10.dtd">
<svg version="1.0" xmlns="http://www.w3.org/2000/svg"
 width="244.000000pt" height="305.000000pt" viewBox="0 0 244.000000 305.000000"
 preserveAspectRatio="xMidYMid meet">
<metadata>
Created by potrace 1.16, written by Peter Selinger 2001-2019
</metadata>
<g transform="translate(0.000000,305.000000) scale(0.100000,-0.100000)"
fill="#000000" stroke="none">
<path d="M906 2901 c-13 -20 -65 -358 -75 -481 -14 -184 -24 -465 -16 -489 3
-12 12 -21 18 -21 7 0 29 -13 48 -30 l36 -29 19 20 c11 12 32 28 48 36 l29 15
-6 252 c-6 242 -20 390 -54 564 -21 109 -28 99 -9 -14 29 -171 47 -361 53
-564 l6 -205 -40 -28 c-21 -15 -42 -27 -46 -27 -4 0 -7 217 -6 483 0 296 4
474 9 462 7 -14 8 -8 3 20 -7 46 -9 50 -17 36z"/>
<path d="M1531 2798 c-31 -151 -50 -288 -61 -449 -13 -187 -13 -429 0 -429 5
0 25 -13 43 -30 41 -35 48 -36 71 -11 10 11 31 25 47 31 l29 12 0 141 c0 77
-3 137 -7 133 -4 -4 -6 -57 -4 -119 l2 -112 -40 -33 c-22 -17 -42 -32 -45 -32
-3 0 -6 217 -5 483 1 294 4 472 10 457 7 -21 8 -20 4 9 -3 18 -5 37 -5 42 0 5
-4 9 -9 9 -4 0 -18 -46 -30 -102z"/>
<path d="M1137 2763 c-4 -71 -10 -272 -14 -448 -5 -238 -9 -306 -16 -267 -9
56 -26 65 -38 21 -3 -14 -10 -60 -13 -101 -7 -75 -7 -77 18 -93 16 -11 26 -26
26 -42 l0 -25 -35 31 c-28 25 -42 30 -63 25 -37 -9 -53 -23 -69 -61 -14 -34
-33 -44 -33 -18 0 8 -13 29 -28 46 -53 59 -142 33 -142 -42 0 -28 1 -29 38
-23 32 5 43 2 69 -20 37 -31 46 -59 27 -83 -32 -42 -5 -147 60 -232 14 -19 26
-39 26 -43 0 -5 -16 -32 -35 -60 -20 -28 -35 -61 -33 -72 4 -29 67 -69 97 -61
19 5 22 3 17 -10 -3 -9 -6 -20 -6 -25 0 -15 -38 -22 -58 -11 -10 6 -32 27 -48
48 -22 29 -29 49 -30 88 -2 66 -14 137 -27 153 -15 19 -54 14 -77 -10 -33 -35
-21 -95 38 -193 84 -138 93 -163 96 -268 2 -52 6 -100 10 -105 4 -6 -24 -48
-61 -94 -86 -107 -215 -258 -219 -258 -2 0 0 8 3 17 7 18 8 21 141 269 100
186 104 202 78 302 -9 34 -32 75 -66 118 -51 64 -80 126 -80 168 0 11 11 39
25 61 13 22 25 48 25 57 0 23 -30 38 -78 38 -68 0 -89 -50 -58 -137 15 -42 19
-74 17 -131 -1 -23 -10 -41 -32 -61 -27 -25 -30 -31 -19 -51 7 -13 8 -26 3
-31 -12 -12 -334 -131 -340 -125 -4 4 129 93 252 169 33 20 73 48 89 60 l30
24 -17 60 c-9 32 -17 77 -17 99 0 21 -5 46 -11 54 -7 11 -9 -12 -7 -82 l4 -96
-31 5 c-29 5 -42 -5 -166 -124 -74 -71 -155 -149 -182 -173 -26 -23 -46 -45
-43 -47 2 -2 108 31 235 74 213 71 231 79 231 100 0 33 19 37 72 13 95 -42
144 -148 74 -160 -36 -6 -36 -7 -155 -413 -59 -202 -73 -209 171 76 l170 198
-12 45 c-7 24 -11 47 -8 49 9 10 158 9 167 0 6 -6 2 -98 -10 -245 -10 -129
-18 -246 -18 -260 1 -55 19 35 24 120 3 47 12 117 20 155 l15 70 -5 -65 c-2
-36 -7 -78 -10 -95 -2 -16 3 -3 12 30 l17 60 11 -65 c42 -239 100 -501 105
-479 4 13 29 135 56 271 27 137 51 248 54 248 3 0 16 -46 29 -102 30 -135 43
-179 34 -118 -4 25 -6 68 -5 95 2 31 -1 45 -6 37 -6 -8 -13 20 -22 80 -7 51
-16 111 -21 133 -11 53 -11 112 0 120 5 3 12 -3 14 -12 4 -16 5 -16 6 -1 2 24
39 32 145 29 38 -1 39 -2 33 -33 -4 -18 -9 -42 -12 -53 -4 -15 13 -40 62 -96
38 -42 124 -142 193 -222 69 -80 126 -142 128 -138 1 4 -13 61 -33 127 -143
477 -128 437 -166 449 -18 6 -35 17 -37 24 -14 41 43 111 117 143 52 22 71 18
71 -15 0 -27 -7 -25 293 -126 97 -33 177 -56 177 -52 0 4 -33 37 -72 74 -40
36 -122 114 -183 172 -104 99 -112 105 -143 99 l-34 -5 7 84 c4 52 3 87 -3 90
-9 6 -22 -88 -22 -165 l0 -38 43 6 42 6 141 -133 c77 -74 139 -136 138 -138
-4 -5 -121 60 -260 145 -168 103 -175 119 -122 301 10 35 9 45 -5 67 -14 21
-25 26 -61 26 -28 0 -52 -7 -67 -19 l-23 -18 27 -46 c44 -75 34 -133 -38 -227
-55 -72 -75 -116 -75 -168 0 -67 16 -98 61 -112 49 -16 51 -19 76 -105 12 -38
42 -135 67 -215 24 -79 43 -146 41 -148 -3 -3 -38 57 -195 341 -122 221 -122
211 -1 422 57 100 67 158 33 188 -22 20 -65 22 -79 5 -12 -15 -25 -107 -24
-155 2 -41 -20 -83 -59 -117 -38 -31 -50 -32 -78 -6 -12 12 -22 16 -22 10 0
-22 -38 10 -49 41 -12 36 -15 110 -3 107 4 -1 20 4 36 11 37 15 49 0 40 -49
-13 -70 -10 -85 13 -88 32 -5 82 25 89 52 8 33 0 54 -36 96 -16 19 -30 40 -30
46 0 6 16 31 35 55 61 76 96 202 60 215 -25 10 -17 53 14 85 24 24 38 29 75
29 40 0 46 3 46 21 0 11 -14 34 -30 51 -26 25 -36 29 -62 24 -38 -8 -74 -39
-82 -72 -9 -34 -23 -30 -36 12 -30 90 -160 73 -160 -20 0 -25 2 -25 44 -20 39
6 48 3 70 -19 29 -29 33 -58 12 -76 -7 -6 -16 -27 -19 -45 -6 -39 -51 -112
-74 -120 -12 -5 -14 -1 -9 20 8 32 -8 54 -40 54 -20 0 -24 5 -24 29 0 16 -3
43 -6 61 l-7 32 26 -26 c14 -14 30 -26 36 -26 25 0 63 71 47 88 -4 3 -16 1
-26 -6 -11 -7 -26 -12 -34 -12 -17 0 -31 33 -17 38 6 2 11 24 11 49 0 36 5 49
25 65 17 13 25 29 25 50 0 32 -18 151 -26 178 -8 23 -21 -5 -31 -65 -6 -39 -9
-7 -13 140 l-6 190 -2 -220 c-1 -125 -7 -226 -12 -235 -7 -10 -9 143 -8 462 3
505 -6 602 -18 196 -7 -240 -8 -242 -20 -168 -7 41 -20 104 -30 140 l-17 64
-19 -64 c-31 -111 -50 -239 -58 -400 -6 -118 -7 -47 -7 293 0 246 -3 450 -5
453 -3 2 -8 -53 -11 -123z m128 -353 c18 -102 38 -542 25 -550 -4 -3 -10 -14
-12 -25 -2 -11 -3 43 -2 120 1 113 0 124 -5 60 l-7 -80 -4 125 c-4 95 -6 59
-10 -150 -6 -244 -6 -226 -6 162 0 241 1 436 2 435 1 -1 9 -45 19 -97z m37
-674 c6 -62 -3 -104 -23 -109 -15 -4 -19 0 -19 21 0 19 3 23 9 14 6 -10 10 -8
14 10 10 33 8 60 -2 54 -5 -3 -11 7 -13 23 -3 23 -1 27 13 24 11 -3 19 -17 21
-37z m-182 18 c0 -6 -7 -17 -16 -25 -12 -10 -20 -10 -35 -1 -27 17 -29 16 -29
-17 0 -50 42 -77 73 -46 20 19 23 14 19 -37 -3 -40 -7 -45 -35 -54 -26 -7 -33
-15 -37 -42 l-5 -34 -21 29 c-31 42 -54 89 -54 111 0 11 -7 25 -15 32 -20 16
-19 40 3 66 23 27 37 32 100 31 32 -1 52 -5 52 -13z m-181 -179 c11 -25 43
-69 70 -98 79 -84 62 -116 -19 -36 -38 38 -80 119 -80 154 0 36 6 31 29 -20z
m626 13 c-10 -47 -47 -108 -97 -158 -40 -39 -43 -41 -46 -21 -3 15 11 38 43
72 25 27 55 70 66 94 23 53 44 60 34 13z m-369 -5 c-3 -8 -6 -17 -6 -19 0 -3
-4 -2 -10 1 -17 11 -12 45 6 38 8 -3 13 -12 10 -20z m104 8 c0 -23 -16 -36
-25 -21 -9 14 1 40 15 40 5 0 10 -9 10 -19z m45 -147 l-26 -24 6 47 c4 27 15
54 24 61 14 12 16 9 19 -23 3 -29 -2 -42 -23 -61z m-217 74 c5 -7 13 -32 17
-56 l7 -43 -26 26 c-16 16 -26 37 -26 55 0 32 11 38 28 18z m109 -35 c-3 -10
-5 -2 -5 17 0 19 2 27 5 18 2 -10 2 -26 0 -35z m170 -95 c-3 -7 -5 -2 -5 12 0
14 2 19 5 13 2 -7 2 -19 0 -25z m-30 -10 c-3 -8 -6 -5 -6 6 -1 11 2 17 5 13 3
-3 4 -12 1 -19z m-220 -11 c-6 -20 -27 -19 -27 2 0 14 5 19 15 14 9 -3 14 -10
12 -16z m183 -3 c0 -17 -22 -14 -28 4 -2 7 3 12 12 12 9 0 16 -7 16 -16z
m-290 -56 c0 -10 -4 -17 -9 -14 -4 3 -14 -14 -21 -37 -11 -36 -14 -39 -21 -22
-12 32 -10 93 4 98 23 7 47 -5 47 -25z m127 0 c-3 -8 -6 -5 -6 6 -1 11 2 17 5
13 3 -3 4 -12 1 -19z m120 0 c-3 -8 -6 -5 -6 6 -1 11 2 17 5 13 3 -3 4 -12 1
-19z m-242 -108 c-15 -34 -16 -34 -10 -5 4 17 10 53 13 80 l7 50 3 -45 c2 -27
-4 -60 -13 -80z m54 55 c-1 -29 -1 -29 -9 -5 -4 14 -8 34 -9 45 -1 16 1 17 9
5 5 -8 9 -28 9 -45z m256 -20 c-4 -25 -9 -44 -12 -41 -2 2 -1 25 2 51 4 25 9
44 12 41 2 -2 1 -25 -2 -51z m-248 -47 c-3 -8 -6 -5 -6 6 -1 11 2 17 5 13 3
-3 4 -12 1 -19z m53 13 c0 10 3 10 12 1 10 -9 9 -16 -4 -28 -19 -20 -38 -11
-38 18 0 17 2 18 15 8 12 -10 15 -10 15 1z m160 -6 c0 -5 -4 -16 -9 -24 -8
-12 -12 -12 -25 -2 -24 20 -19 39 9 37 14 0 25 -5 25 -11z m17 -37 c-3 -8 -6
-5 -6 6 -1 11 2 17 5 13 3 -3 4 -12 1 -19z m-110 -240 c-3 -8 -6 -5 -6 6 -1
11 2 17 5 13 3 -3 4 -12 1 -19z m-95 -42 c3 -15 -3 -37 -13 -53 -16 -24 -19
-25 -19 -8 0 39 13 95 20 90 4 -3 10 -16 12 -29z m28 -12 c0 -8 -4 -12 -10 -9
-5 3 -10 13 -10 21 0 8 5 12 10 9 6 -3 10 -13 10 -21z m129 -29 c41 -47 40
-71 -8 -305 l-37 -185 -7 70 c-9 90 -9 440 0 448 12 12 21 7 52 -28z"/>
<path d="M1251 844 c0 -11 3 -14 6 -6 3 7 2 16 -1 19 -3 4 -6 -2 -5 -13z"/>
<path d="M1263 750 c0 -36 2 -50 4 -32 2 17 2 47 0 65 -2 17 -4 3 -4 -33z"/>
<path d="M1253 565 c0 -38 2 -53 4 -32 2 20 2 52 0 70 -2 17 -4 1 -4 -38z"/>
<path d="M1580 2808 c0 -3 9 -68 21 -145 11 -76 26 -208 33 -293 11 -122 14
-139 15 -80 1 119 -45 500 -64 518 -3 3 -5 3 -5 0z"/>
<path d="M1333 2620 c0 -25 2 -35 4 -22 2 12 2 32 0 45 -2 12 -4 2 -4 -23z"/>
<path d="M1162 2560 c0 -14 2 -19 5 -12 2 6 2 18 0 25 -3 6 -5 1 -5 -13z"/>
<path d="M1410 1286 c0 -9 7 -16 16 -16 9 0 14 5 12 12 -6 18 -28 21 -28 4z"/>
<path d="M1441 1244 c0 -11 3 -14 6 -6 3 7 2 16 -1 19 -3 4 -6 -2 -5 -13z"/>
<path d="M1451 1204 c0 -11 3 -14 6 -6 3 7 2 16 -1 19 -3 4 -6 -2 -5 -13z"/>
<path d="M1383 805 c0 -22 2 -30 4 -17 2 12 2 30 0 40 -3 9 -5 -1 -4 -23z"/>
<path d="M1392 680 c0 -19 2 -27 5 -17 2 9 2 25 0 35 -3 9 -5 1 -5 -18z"/>
<path d="M1082 560 c0 -14 2 -19 5 -12 2 6 2 18 0 25 -3 6 -5 1 -5 -13z"/>
</g>
</svg>
