<?xml version="1.0" standalone="no"?>
<!DOCTYPE svg PUBLIC "-//W3C//DTD SVG 20010904//EN"
 "http://www.w3.org/TR/2001/REC-SVG-20010904/DTD/svg10.dtd">
<svg version="1.0" xmlns="http://www.w3.org/2000/svg"
 width="244.000000pt" height="305.000000pt" viewBox="0 0 244.000000 305.000000"
 preserveAspectRatio="xMidYMid meet">
<metadata>
Created by potrace 1.16, written by Peter Selinger 2001-2019
</metadata>
<g transform="translate(0.000000,305.000000) scale(0.100000,-0.100000)"
fill="#000000" stroke="none">
<path d="M1550 2907 c0 -4 -11 -65 -25 -135 -38 -190 -55 -361 -62 -619 -4
-168 -3 -233 5 -233 6 0 27 -13 45 -30 34 -29 67 -39 67 -20 0 5 18 20 40 32
l40 23 0 125 c0 181 -17 426 -40 570 -26 159 -50 272 -61 285 -5 5 -9 6 -9 2z
m6 -1004 c-5 -5 -65 35 -79 52 -10 12 -1 335 13 495 9 93 52 386 62 417 2 5 4
-210 5 -476 2 -266 1 -486 -1 -488z"/>
<path d="M900 2883 c0 -10 -3 -29 -5 -43 -5 -22 -4 -22 4 -5 6 13 10 -148 10
-458 1 -263 -2 -477 -6 -475 -5 2 -26 14 -47 28 l-39 24 6 123 c4 80 3 122 -3
118 -6 -4 -10 -64 -10 -141 0 -119 2 -135 18 -141 9 -4 32 -19 50 -35 l33 -28
41 35 c23 19 45 35 50 35 25 0 -3 548 -37 740 -29 158 -48 240 -56 240 -5 0
-9 -8 -9 -17z"/>
<path d="M1311 2874 c0 -11 3 -14 6 -6 3 7 2 16 -1 19 -3 4 -6 -2 -5 -13z"/>
<path d="M1151 2840 c-1 -14 -2 -227 -2 -475 1 -444 0 -450 -18 -415 -10 19
-22 61 -25 92 -4 32 -11 60 -16 63 -13 8 -29 -57 -36 -145 -6 -74 -6 -76 20
-89 25 -14 31 -28 26 -60 -1 -8 4 -25 11 -38 11 -20 10 -26 -4 -41 -15 -14
-20 -15 -38 -3 -34 21 -46 -1 -26 -45 16 -32 21 -35 45 -29 15 4 27 7 28 8 1
1 6 11 12 22 11 19 11 19 12 -5 0 -14 -3 -41 -6 -61 -5 -29 -12 -37 -38 -45
-29 -8 -31 -12 -28 -49 l4 -40 -26 24 c-30 28 -66 98 -66 128 0 11 -7 26 -15
33 -22 19 -18 48 11 77 22 22 32 25 70 20 38 -4 44 -2 44 14 0 37 -23 69 -57
78 -50 14 -81 -1 -101 -49 -19 -44 -28 -49 -37 -21 -3 11 -15 31 -26 45 -16
21 -29 26 -64 26 -35 0 -48 -5 -65 -27 -28 -36 -23 -69 10 -66 41 3 66 -5 93
-33 30 -30 35 -69 11 -78 -35 -13 5 -149 66 -226 36 -46 37 -50 6 -79 -32 -31
-50 -75 -42 -106 8 -30 66 -60 98 -49 17 5 19 11 13 38 -14 58 -11 90 8 94 26
5 77 -18 77 -34 0 -17 -16 -18 -27 -1 -4 7 -15 -15 -28 -58 -16 -53 -28 -74
-48 -85 -24 -13 -28 -13 -54 6 -46 34 -73 82 -72 128 1 55 -11 138 -24 154
-13 17 -48 15 -76 -4 -20 -15 -23 -23 -19 -68 4 -39 17 -71 59 -141 95 -155
102 -196 51 -287 -16 -29 -78 -140 -137 -246 -59 -106 -110 -191 -112 -188 -5
5 113 389 128 417 4 9 28 24 53 33 42 16 45 20 52 62 10 72 -1 119 -40 171
-101 135 -116 191 -70 268 l28 48 -23 18 c-32 26 -95 25 -121 -1 -25 -25 -25
-29 0 -115 41 -142 32 -156 -172 -279 -87 -53 -163 -96 -167 -96 -5 0 -14 -7
-21 -15 -7 -8 -18 -15 -24 -15 -6 1 52 62 129 136 l140 135 42 -5 43 -6 0 58
c0 85 -11 162 -22 156 -6 -4 -7 -41 -3 -95 l7 -88 -33 5 c-31 5 -40 -1 -114
-72 -44 -43 -124 -120 -178 -172 -54 -52 -96 -96 -94 -98 2 -2 106 30 231 72
219 74 227 77 233 105 6 34 9 34 65 12 50 -19 84 -47 104 -85 23 -43 18 -66
-15 -73 -16 -3 -34 -12 -39 -18 -8 -10 -151 -479 -168 -552 -4 -15 3 -11 27
15 44 48 133 149 220 250 41 47 82 94 93 105 43 47 48 61 35 104 -7 23 -10 44
-7 46 11 11 173 6 176 -4 2 -6 13 -11 24 -11 17 0 19 -5 16 -33 -39 -275 -42
-291 -50 -262 -4 18 -5 0 -3 -43 4 -48 2 -71 -5 -67 -6 4 -10 -13 -9 -47 l1
-53 20 85 c11 47 25 103 31 125 l10 40 18 -75 c10 -41 34 -158 54 -260 21
-102 38 -186 39 -187 2 -2 17 72 35 165 60 307 74 364 83 350 5 -8 6 5 2 30
-4 25 -3 42 3 42 12 0 25 -111 18 -148 -5 -24 -4 -25 5 -7 8 16 10 13 6 -17
-2 -20 2 -58 9 -85 l14 -48 -5 55 c-30 357 -34 444 -22 452 18 11 166 10 173
-2 3 -5 1 -28 -5 -50 -11 -40 -10 -41 42 -103 29 -34 56 -64 59 -67 3 -3 50
-57 104 -120 121 -140 167 -191 173 -186 2 3 -29 112 -69 243 -39 131 -77 256
-83 277 -9 32 -18 42 -48 54 -42 17 -45 28 -23 76 19 39 61 72 116 92 47 16
59 12 59 -20 0 -21 20 -30 237 -104 130 -45 238 -80 240 -78 3 3 -268 263
-339 325 -31 27 -43 32 -68 26 l-30 -7 6 85 c4 52 3 86 -3 90 -6 4 -13 -21
-17 -64 -3 -39 -11 -79 -16 -89 -22 -41 -12 -67 38 -96 89 -52 334 -215 330
-219 -2 -3 -65 18 -139 45 -74 28 -154 58 -177 66 -42 16 -44 18 -37 50 5 29
2 38 -21 57 -37 32 -43 101 -15 181 26 75 26 101 0 127 -18 18 -30 21 -71 17
-72 -7 -78 -19 -45 -77 44 -80 33 -151 -38 -234 -48 -55 -83 -130 -91 -194 -6
-49 -4 -57 61 -185 38 -73 78 -149 90 -168 45 -72 107 -192 96 -185 -11 6
-223 257 -278 328 -18 23 -20 33 -12 53 5 14 9 61 9 105 0 88 6 104 96 254 59
100 71 172 33 199 -31 21 -66 20 -77 -1 -12 -23 -23 -93 -25 -161 -2 -49 -6
-57 -44 -93 -70 -65 -100 -51 -137 61 -13 41 -21 78 -18 81 4 4 19 9 34 13 23
5 28 3 34 -18 3 -14 1 -40 -5 -59 -6 -19 -9 -41 -6 -49 5 -13 15 -15 61 -9 21
2 54 42 54 65 0 13 -16 44 -35 69 -19 25 -35 49 -35 52 0 4 18 32 40 63 60 83
87 186 55 212 -23 19 -18 49 15 82 25 25 36 29 72 26 38 -2 43 0 46 20 5 30
-48 82 -83 82 -30 0 -95 -57 -95 -84 0 -27 -14 -17 -33 23 -40 87 -157 69
-157 -24 0 -24 3 -25 38 -20 46 7 84 -11 96 -47 8 -21 6 -32 -7 -46 -9 -10
-17 -27 -17 -38 0 -24 -35 -91 -63 -122 -19 -20 -22 -21 -30 -6 -7 12 -5 21 7
29 15 11 14 13 -2 28 -9 8 -28 17 -42 19 -23 3 -25 8 -28 58 l-3 55 25 -24
c32 -30 63 -21 74 22 10 36 -1 58 -20 39 -16 -16 -45 -15 -50 1 -2 6 -2 36 0
65 3 46 8 54 33 68 34 17 36 35 17 157 -12 82 -28 96 -40 36 -4 -19 -11 -54
-16 -79 -7 -32 -10 33 -12 235 -1 154 -6 345 -10 425 -5 115 -7 63 -10 -255
l-3 -400 -10 200 c-5 110 -13 202 -17 205 -4 3 -12 34 -19 70 -15 78 -33 142
-38 136 -7 -7 -43 -160 -43 -183 0 -13 -4 -23 -10 -23 -6 0 -10 55 -11 143 -1
139 -14 356 -18 307z m76 -352 c-3 -7 -5 -2 -5 12 0 14 2 19 5 13 2 -7 2 -19
0 -25z m0 -503 c-1 -323 -2 -337 -7 -140 -3 121 -7 200 -10 175 -3 -44 -4 -43
-11 20 -5 48 -6 28 -5 -73 1 -77 0 -133 -3 -125 -2 7 -7 15 -11 18 -9 7 7 442
19 520 6 36 11 72 12 80 1 8 5 -14 9 -50 4 -36 7 -227 7 -425z m-77 -125 c0
-13 -1 -13 -10 0 -5 8 -10 22 -10 30 0 13 1 13 10 0 5 -8 10 -22 10 -30z m181
3 c-10 -17 -10 -16 -11 3 0 23 13 41 18 25 2 -6 -1 -18 -7 -28z m-126 -99 c-5
-34 -9 -43 -16 -33 -10 17 -11 3 -3 -41 5 -22 9 -28 15 -18 6 9 9 2 9 -19 0
-26 -3 -30 -20 -26 -18 5 -20 14 -20 75 0 58 3 69 15 64 11 -4 15 2 15 26 0
17 3 29 6 25 4 -3 3 -27 -1 -53z m351 -202 c-16 -47 -64 -113 -116 -159 -24
-21 -25 -21 -28 -2 -2 13 16 41 51 79 30 32 63 80 72 105 25 64 43 44 21 -23z
m-539 -93 c32 -33 53 -63 51 -73 -2 -14 -9 -12 -41 11 -55 39 -117 136 -117
182 l1 36 25 -50 c15 -27 51 -75 81 -106z m300 119 c-3 -7 -5 -2 -5 12 0 14 2
19 5 13 2 -7 2 -19 0 -25z m-119 -5 c-5 -23 -23 -20 -26 4 -3 18 0 21 13 17 9
-4 15 -13 13 -21z m102 15 c0 -7 -4 -19 -9 -27 -11 -17 -25 3 -17 24 7 18 26
20 26 3z m-161 -87 c16 -29 26 -161 13 -161 -16 0 -24 17 -12 25 17 11 11 48
-12 72 -29 31 -34 83 -8 83 5 0 14 -9 19 -19z m98 -28 c-3 -10 -5 -2 -5 17 0
19 2 27 5 18 2 -10 2 -26 0 -35z m123 10 c-1 -28 -7 -42 -24 -55 l-23 -16 7
45 c6 37 21 62 38 63 1 0 2 -17 2 -37z m37 -105 c-3 -8 -6 -5 -6 6 -1 11 2 17
5 13 3 -3 4 -12 1 -19z m-67 -26 c0 -7 -4 -10 -10 -7 -5 3 -10 16 -10 28 0 18
2 19 10 7 5 -8 10 -21 10 -28z m37 16 c-3 -8 -6 -5 -6 6 -1 11 2 17 5 13 3 -3
4 -12 1 -19z m30 -90 c-3 -8 -6 -5 -6 6 -1 11 2 17 5 13 3 -3 4 -12 1 -19z
m-279 -58 c0 -22 -1 -22 -8 5 -4 17 -8 39 -8 50 0 16 2 15 8 -5 4 -14 8 -36 8
-50z m237 -5 c-3 -26 -8 -45 -11 -43 -2 3 -1 26 2 52 4 25 9 44 12 42 2 -3 1
-26 -3 -51z m-285 10 c0 -25 -34 -74 -45 -64 -3 4 -1 27 6 52 8 32 15 44 25
40 8 -3 14 -15 14 -28z m345 -53 c-8 -8 -12 0 -19 38 l-7 35 16 -34 c8 -19 13
-36 10 -39z m-245 18 c0 11 3 11 12 2 10 -9 8 -16 -5 -30 -16 -15 -19 -15 -27
-2 -5 8 -10 24 -10 34 0 20 0 20 15 0 10 -14 14 -15 15 -4z m-43 -32 c-3 -7
-5 -2 -5 12 0 14 2 19 5 13 2 -7 2 -19 0 -25z m193 19 c0 -21 -12 -28 -27 -16
-19 16 -16 29 7 29 11 0 20 -6 20 -13z m-216 -93 c3 -8 2 -12 -4 -9 -6 3 -10
10 -10 16 0 14 7 11 14 -7z m133 -176 c-3 -8 -6 -5 -6 6 -1 11 2 17 5 13 3 -3
4 -12 1 -19z m112 -82 c1 -28 0 -29 -14 -10 -15 20 -20 66 -8 78 9 9 21 -27
22 -68z m-120 -181 c-1 -110 -4 -225 -7 -255 -7 -55 -7 -55 -35 90 -15 80 -33
168 -39 195 -6 28 -8 67 -4 88 9 46 65 115 77 95 5 -7 8 -103 8 -213z"/>
<path d="M1203 775 c0 -22 2 -30 4 -17 2 12 2 30 0 40 -3 9 -5 -1 -4 -23z"/>
<path d="M1201 714 c0 -11 3 -14 6 -6 3 7 2 16 -1 19 -3 4 -6 -2 -5 -13z"/>
<path d="M1213 560 c0 -36 2 -50 4 -32 2 17 2 47 0 65 -2 17 -4 3 -4 -33z"/>
<path d="M882 2790 c0 -14 2 -19 5 -12 2 6 2 18 0 25 -3 6 -5 1 -5 -13z"/>
<path d="M861 2693 c-24 -135 -41 -309 -40 -398 l2 -90 8 110 c5 61 18 184 29
274 21 169 22 221 1 104z"/>
<path d="M1301 2674 c0 -11 3 -14 6 -6 3 7 2 16 -1 19 -3 4 -6 -2 -5 -13z"/>
<path d="M1133 2535 c0 -27 2 -38 4 -22 2 15 2 37 0 50 -2 12 -4 0 -4 -28z"/>
<path d="M1093 865 c0 -22 2 -30 4 -17 2 12 2 30 0 40 -3 9 -5 -1 -4 -23z"/>
<path d="M1083 740 c0 -25 2 -35 4 -22 2 12 2 32 0 45 -2 12 -4 2 -4 -23z"/>
<path d="M1362 620 c0 -14 2 -19 5 -12 2 6 2 18 0 25 -3 6 -5 1 -5 -13z"/>
</g>
</svg>
