<?xml version="1.0" standalone="no"?>
<!DOCTYPE svg PUBLIC "-//W3C//DTD SVG 20010904//EN"
 "http://www.w3.org/TR/2001/REC-SVG-20010904/DTD/svg10.dtd">
<svg version="1.0" xmlns="http://www.w3.org/2000/svg"
 width="244.000000pt" height="305.000000pt" viewBox="0 0 244.000000 305.000000"
 preserveAspectRatio="xMidYMid meet">
<metadata>
Created by potrace 1.16, written by Peter Selinger 2001-2019
</metadata>
<g transform="translate(0.000000,305.000000) scale(0.100000,-0.100000)"
fill="#000000" stroke="none">
<path d="M1422 2900 c0 -14 2 -19 5 -12 2 6 2 18 0 25 -3 6 -5 1 -5 -13z"/>
<path d="M959 2899 c-1 -8 -1 -23 -1 -34 4 -120 2 -960 -3 -958 -3 1 -20 14
-37 28 l-31 26 6 212 c6 183 13 284 41 562 3 28 -3 1 -14 -60 -23 -135 -40
-378 -40 -587 l0 -157 40 -38 c29 -27 37 -42 31 -52 -7 -12 -14 -10 -36 8 -15
11 -36 21 -45 21 -27 0 -58 -32 -65 -67 -7 -33 -6 -33 33 -33 33 0 45 -6 66
-31 27 -31 34 -63 16 -74 -5 -3 -10 -32 -10 -63 0 -50 -3 -59 -22 -67 -14 -6
-24 -21 -26 -38 -2 -15 -15 -40 -29 -55 -23 -24 -25 -33 -20 -84 4 -44 2 -58
-8 -58 -32 0 -35 108 -5 158 25 41 25 58 1 72 -27 14 -84 13 -99 -2 -15 -15
-16 -103 -1 -131 18 -32 15 -117 -4 -154 -9 -17 -52 -56 -94 -87 -43 -31 -109
-78 -147 -106 -38 -27 -74 -50 -79 -50 -9 0 78 105 175 209 57 60 61 63 95 56
l36 -6 -6 62 c-4 34 -7 82 -7 105 0 26 -5 44 -11 44 -9 0 -10 -25 -5 -90 l7
-90 -28 6 c-25 5 -37 -5 -118 -97 -49 -57 -120 -137 -157 -178 -37 -41 -66
-77 -64 -78 2 -2 14 1 27 6 13 6 89 36 169 67 80 31 151 61 158 67 22 17 14
-9 -20 -62 -36 -59 -32 -73 10 -42 17 12 32 21 35 21 3 0 38 18 77 41 44 25
76 37 82 31 5 -5 11 -25 15 -46 5 -34 4 -38 -25 -48 -17 -7 -32 -21 -35 -32
-3 -12 -35 -140 -72 -284 -36 -145 -64 -266 -62 -268 4 -4 78 94 186 248 14
21 29 37 32 38 3 0 -5 -59 -18 -132 -12 -72 -21 -133 -20 -135 3 -2 115 212
209 397 14 28 15 43 8 74 -5 22 -7 44 -4 48 9 14 48 9 81 -12 44 -27 52 -61
21 -100 l-24 -31 43 -257 c64 -388 65 -394 68 -390 3 3 75 432 96 576 l12 82
-26 28 c-15 16 -27 33 -27 38 0 21 58 65 92 70 44 8 52 -4 39 -52 -10 -35 -5
-47 101 -258 60 -122 113 -223 116 -226 7 -7 -6 103 -24 188 -8 40 -14 78 -12
83 2 5 26 -22 53 -61 103 -145 158 -215 151 -190 -3 14 -13 54 -21 90 -12 55
-71 289 -106 422 -7 27 -19 43 -40 54 -27 13 -30 19 -24 47 11 48 21 55 58 33
118 -69 221 -126 224 -123 2 2 -15 32 -37 67 -23 34 -39 64 -37 66 3 3 129
-46 317 -124 17 -7 -21 42 -101 134 -128 144 -174 197 -180 207 -4 5 -19 7
-33 3 l-26 -6 -1 97 -2 98 -8 -75 c-4 -41 -12 -91 -18 -110 -6 -19 -11 -36
-11 -37 0 -8 77 -76 139 -123 127 -95 172 -132 168 -137 -4 -4 -30 7 -162 67
-27 12 -64 29 -81 36 -36 16 -45 32 -37 64 4 14 -2 29 -18 46 -28 30 -31 101
-9 211 13 67 13 73 -5 93 -22 24 -62 26 -93 4 -26 -18 -23 -42 10 -84 22 -27
22 -79 1 -122 -22 -45 -34 -34 -27 21 7 57 -2 124 -17 116 -5 -4 -9 9 -9 27 0
46 -13 62 -44 56 -26 -5 -26 -5 -20 49 6 44 3 57 -12 74 -17 19 -17 21 1 55
22 42 45 56 83 52 25 -3 27 0 25 30 0 18 -7 39 -13 47 -15 18 -71 20 -88 3 -9
-9 -15 -9 -23 -1 -13 13 8 51 32 58 9 3 19 14 22 24 2 10 1 133 -4 272 -7 227
-13 319 -24 399 -2 14 -9 61 -15 105 -6 44 -16 105 -22 135 -9 48 -12 52 -19
31 -5 -13 -6 -29 -1 -35 12 -18 9 -929 -4 -933 -7 -2 -11 58 -12 184 -2 270
-13 596 -21 608 -3 6 -11 48 -17 95 -11 79 -12 68 -14 -170 -1 -140 -6 -358
-9 -485 -6 -228 -7 -230 -24 -193 -10 22 -17 62 -17 95 0 71 -16 105 -26 55
-9 -44 -24 -51 -24 -10 0 45 -19 17 -21 -32 -1 -19 -6 24 -10 95 -13 217 -53
474 -69 444 -22 -39 -58 -336 -61 -494 -1 -80 -1 -80 -12 -35 -10 39 -12 41
-15 18 -2 -16 -7 -28 -11 -28 -14 0 -30 134 -36 300 -5 163 -28 437 -42 515
l-7 40 -6 -45 c-3 -25 -2 -50 3 -57 4 -6 7 -116 6 -245 -1 -128 -4 -228 -6
-223 -2 6 -10 87 -18 180 -18 213 -60 454 -66 384z m271 -855 c0 -453 0 -457
-39 -382 -7 14 -10 31 -6 38 4 6 9 109 11 228 3 119 9 284 14 365 6 82 10 157
10 168 0 10 2 19 5 19 3 0 5 -196 5 -436z m-43 -96 c-2 -13 -4 -5 -4 17 -1 22
1 32 4 23 2 -10 2 -28 0 -40z m-163 -79 c-7 -11 -44 -12 -44 -1 0 4 5 13 12
20 13 13 42 -4 32 -19z m71 10 c10 -15 -1 -23 -20 -15 -9 3 -13 10 -10 16 8
13 22 13 30 -1z m313 -7 c2 -7 -3 -12 -12 -12 -9 0 -16 7 -16 16 0 17 22 14
28 -4z m70 6 c-7 -19 -38 -22 -38 -4 0 10 9 16 21 16 12 0 19 -5 17 -12z
m-353 -138 c-7 -24 -28 -22 -33 2 -2 9 5 18 15 20 24 6 26 3 18 -22z m260 10
c3 -4 -2 -13 -10 -20 -11 -10 -18 -9 -30 4 -9 9 -14 20 -11 25 7 10 43 3 51
-9z m-365 -57 c0 -21 -3 -23 -14 -14 -8 7 -12 21 -9 31 7 27 23 15 23 -17z
m450 8 c0 -11 -4 -23 -10 -26 -6 -4 -10 5 -10 19 0 14 5 26 10 26 6 0 10 -9
10 -19z m-310 -67 c0 -7 9 -18 21 -24 11 -7 27 -27 35 -46 8 -19 16 -34 19
-34 3 0 11 15 19 34 8 19 24 39 35 46 12 6 21 18 21 28 0 13 9 17 35 18 32 0
35 -2 35 -27 0 -51 -7 -58 -48 -47 -32 9 -38 8 -54 -12 -10 -12 -23 -41 -29
-63 l-12 -42 -16 46 c-25 71 -37 82 -88 74 l-43 -6 0 35 c0 25 5 36 18 38 26
6 52 -3 52 -18z m266 -47 c-3 -18 -13 -42 -20 -53 -12 -15 -12 -8 1 39 17 61
30 70 19 14z m-374 -157 l9 -25 -21 23 c-35 37 -80 132 -79 166 0 26 6 19 40
-54 23 -47 45 -96 51 -110z m13 135 c4 -27 3 -37 -3 -30 -6 6 -14 28 -17 50
-5 27 -4 37 3 30 5 -5 13 -28 17 -50z m445 42 c0 -33 -33 -119 -56 -147 -15
-17 -28 -29 -30 -27 -3 2 12 39 31 81 19 42 35 84 35 92 0 7 5 14 10 14 6 0
10 -6 10 -13z m-357 -94 c8 -10 19 -31 23 -48 7 -28 6 -29 -10 -16 -16 13 -46
63 -46 76 0 11 17 4 33 -12z m197 10 c0 -15 -40 -73 -50 -73 -11 0 4 46 22 67
11 14 28 17 28 6z m206 -110 c3 -18 0 -58 -9 -90 l-15 -58 -1 80 c-1 44 -5 86
-10 94 -5 8 -7 21 -3 29 8 21 30 -11 38 -55z m-606 17 c-6 -12 -11 -45 -10
-73 2 -69 1 -75 -10 -57 -5 8 -10 41 -10 73 0 63 15 106 32 89 7 -7 6 -17 -2
-32z m238 -64 c3 -14 0 -15 -22 -5 -32 15 -34 30 -3 25 12 -1 23 -10 25 -20z
m118 -4 c-18 -18 -31 -10 -23 12 4 10 13 13 22 9 15 -5 15 -7 1 -21z m-269
-44 c-3 -8 -6 -5 -6 6 -1 11 2 17 5 13 3 -3 4 -12 1 -19z m91 -15 c20 -5 23
-10 18 -38 -5 -27 -3 -33 19 -43 17 -8 25 -20 25 -36 0 -29 -24 -41 -41 -20
-9 11 -24 13 -60 8 -34 -5 -49 -3 -49 5 0 21 5 25 30 25 24 1 25 3 22 54 -4
54 -2 56 36 45z m250 -50 l-3 -58 33 3 c24 2 33 -1 30 -10 -3 -8 -24 -13 -56
-14 -29 0 -57 -5 -63 -11 -17 -17 -39 -4 -39 23 0 17 8 27 25 34 27 10 35 52
13 66 -13 8 14 22 45 23 16 1 18 -6 15 -56z m-540 5 c14 -14 16 -38 4 -38 -5
0 -14 11 -20 25 -12 26 -4 33 16 13z m787 -28 c3 -5 1 -10 -4 -10 -6 0 -11 5
-11 10 0 6 2 10 4 10 3 0 8 -4 11 -10z m-139 -67 c-8 -15 -15 -25 -16 -21 0
12 23 58 27 54 3 -2 -2 -17 -11 -33z m-486 -6 c0 -5 -4 -5 -10 -2 -5 3 -10 14
-10 23 0 15 2 15 10 2 5 -8 10 -19 10 -23z m-245 -17 c7 -11 -75 -108 -104
-124 -13 -8 -14 -7 -5 5 6 8 27 40 47 72 36 56 50 67 62 47z m173 -119 c-4
-43 -22 -91 -77 -205 -39 -82 -90 -191 -113 -243 -22 -51 -43 -92 -45 -90 -4
5 80 336 103 409 13 38 20 48 45 53 41 9 53 38 53 128 l0 79 19 -38 c14 -28
18 -51 15 -93z m793 107 c34 -28 122 -129 117 -134 -6 -6 -178 103 -178 112 0
7 32 33 41 34 3 0 12 -6 20 -12z m-160 -70 c-10 -52 -10 -70 3 -103 18 -48 86
-203 150 -339 25 -54 46 -100 46 -103 0 -12 -24 14 -55 60 -19 29 -54 82 -78
118 -39 57 -47 78 -61 165 -10 54 -21 103 -27 108 -15 16 -10 104 7 137 23 45
28 29 15 -43z m-322 -118 c5 0 13 15 17 33 4 17 9 27 11 20 5 -14 -26 -83 -36
-83 -9 0 -31 61 -30 81 0 8 7 -1 15 -18 8 -18 18 -33 23 -33z m247 -56 c3 -21
12 -53 20 -71 22 -48 106 -314 102 -319 -7 -6 -160 319 -165 353 -3 18 -2 49
2 69 6 32 8 35 21 22 8 -8 17 -32 20 -54z m-486 38 c0 -10 -6 -26 -14 -37 -12
-17 -13 -17 -20 9 -4 15 -4 31 -1 36 10 17 35 11 35 -8z m229 -304 c-1 -150
-3 -264 -6 -253 -2 11 -14 110 -27 220 l-24 200 27 52 c14 29 27 53 29 53 1 0
1 -123 1 -272z m-61 72 c0 -33 -1 -32 -9 10 -4 25 -7 59 -7 75 0 26 1 25 9
-10 4 -22 8 -56 7 -75z m-262 -55 c-24 -71 -45 -123 -45 -115 -2 40 40 205 61
238 37 61 32 17 -16 -123z"/>
<path d="M941 2814 c0 -11 3 -14 6 -6 3 7 2 16 -1 19 -3 4 -6 -2 -5 -13z"/>
<path d="M1476 2789 c-3 -17 -5 -43 -5 -58 1 -14 5 -2 10 28 10 58 6 83 -5 30z"/>
<path d="M1402 2745 c0 -16 2 -22 5 -12 2 9 2 23 0 30 -3 6 -5 -1 -5 -18z"/>
<path d="M1022 2725 c0 -16 2 -22 5 -12 2 9 2 23 0 30 -3 6 -5 -1 -5 -18z"/>
<path d="M1393 2650 c0 -30 2 -43 4 -27 2 15 2 39 0 55 -2 15 -4 2 -4 -28z"/>
<path d="M1383 2500 c0 -36 2 -50 4 -32 2 17 2 47 0 65 -2 17 -4 3 -4 -33z"/>
<path d="M1374 2260 c0 -69 1 -97 3 -62 2 34 2 90 0 125 -2 34 -3 6 -3 -63z"/>
</g>
</svg>
