<?xml version="1.0" standalone="no"?>
<!DOCTYPE svg PUBLIC "-//W3C//DTD SVG 20010904//EN"
 "http://www.w3.org/TR/2001/REC-SVG-20010904/DTD/svg10.dtd">
<svg version="1.0" xmlns="http://www.w3.org/2000/svg"
 width="244.000000pt" height="305.000000pt" viewBox="0 0 244.000000 305.000000"
 preserveAspectRatio="xMidYMid meet">
<metadata>
Created by potrace 1.16, written by Peter Selinger 2001-2019
</metadata>
<g transform="translate(0.000000,305.000000) scale(0.100000,-0.100000)"
fill="#000000" stroke="none">
<path d="M1372 2900 c0 -14 2 -19 5 -12 2 6 2 18 0 25 -3 6 -5 1 -5 -13z"/>
<path d="M907 2897 c-9 -25 -45 -231 -62 -354 -8 -62 -19 -224 -25 -360 l-12
-248 22 -15 c12 -8 36 -27 53 -42 l32 -26 32 26 c17 15 41 34 53 42 l22 16
-11 254 c-6 140 -16 291 -21 335 -12 102 -51 307 -57 301 -3 -2 0 -28 6 -58
28 -136 53 -390 58 -593 l6 -220 -41 -28 c-23 -15 -44 -27 -47 -27 -9 0 -5
941 4 958 5 9 5 26 1 36 -6 17 -7 17 -13 3z"/>
<path d="M1091 2858 c3 -27 1 -48 -3 -48 -5 0 -8 -7 -8 -16 0 -8 3 -13 8 -11
4 3 9 -138 10 -313 4 -277 2 -323 -12 -351 -9 -18 -17 -48 -18 -68 -1 -20 -5
27 -8 104 l-6 140 -2 -202 -2 -201 30 -25 c28 -24 29 -29 21 -64 -9 -36 -9
-37 -10 -7 -2 73 -87 101 -135 43 -14 -17 -26 -37 -26 -44 0 -30 -20 -24 -34
10 -18 41 -71 69 -112 59 -31 -8 -57 -45 -52 -76 3 -20 8 -22 44 -20 36 3 44
-1 72 -33 35 -39 40 -62 17 -71 -35 -14 -12 -120 44 -209 38 -59 39 -81 6
-125 -14 -19 -28 -52 -32 -72 -3 -21 -9 -38 -13 -38 -12 0 -20 40 -14 69 3 14
-1 55 -8 91 -15 69 -25 78 -73 66 -17 -4 -27 -17 -34 -42 -13 -46 1 -88 59
-184 23 -38 40 -74 38 -80 -2 -6 -32 28 -68 76 -58 79 -64 92 -68 144 -4 49 0
65 22 102 25 43 25 45 8 61 -26 24 -104 23 -125 -1 -22 -24 -21 -50 4 -134 28
-92 22 -143 -21 -179 -27 -23 -30 -30 -21 -47 18 -34 14 -39 -61 -67 -40 -15
-89 -33 -108 -40 -141 -55 -172 -66 -176 -62 -3 2 73 54 168 116 95 61 182
118 192 126 19 14 19 17 3 87 -10 40 -17 90 -17 110 0 20 -5 40 -12 44 -8 5
-10 -18 -5 -89 l5 -95 -31 4 c-29 4 -40 -3 -112 -72 -231 -221 -286 -276 -283
-280 4 -3 169 53 426 143 34 12 42 20 42 39 0 36 22 39 78 10 78 -39 121 -104
94 -141 -4 -6 -19 -16 -34 -22 -20 -9 -30 -24 -38 -55 -6 -24 -29 -99 -50
-168 -21 -69 -47 -156 -58 -195 -11 -38 -27 -92 -35 -118 -9 -26 -12 -47 -7
-45 7 3 371 426 384 447 3 5 -1 25 -9 45 -20 46 -13 56 35 56 36 0 39 -2 43
-32 l4 -33 1 33 c2 27 6 32 27 32 14 0 25 -5 25 -11 0 -6 -21 -99 -47 -207
-34 -140 -49 -188 -54 -171 l-7 24 -1 -26 c-1 -14 -4 -48 -7 -75 l-5 -49 19
40 c10 22 47 116 81 209 52 140 62 177 58 213 -2 23 -1 43 2 43 4 0 22 -15 40
-34 l33 -34 -32 -33 c-38 -40 -41 -3 37 -404 l57 -290 13 55 c19 85 113 573
113 589 0 7 -14 31 -31 52 l-30 39 32 30 c19 16 36 30 39 30 3 0 5 -28 5 -63
0 -44 7 -79 22 -113 12 -27 49 -121 82 -209 33 -88 60 -153 61 -145 0 8 -16
131 -35 274 -19 142 -32 262 -29 267 5 9 64 1 77 -11 5 -4 2 -23 -6 -43 -17
-40 -18 -38 72 -148 58 -73 294 -339 299 -339 2 0 2 8 -1 18 -3 9 -41 136 -85
282 -58 196 -84 267 -98 275 -70 38 -42 125 53 166 59 25 73 24 73 -5 0 -14 4
-28 10 -31 18 -11 443 -155 447 -151 2 2 -76 81 -174 175 -168 162 -180 172
-209 166 l-32 -5 5 92 c5 121 -12 97 -22 -29 l-6 -93 43 6 c40 5 46 2 88 -37
119 -110 226 -219 216 -219 -6 0 -36 15 -66 34 -30 19 -106 65 -169 102 -70
43 -121 81 -132 99 -23 36 -24 98 -4 155 20 57 19 103 -3 123 -25 23 -84 21
-113 -2 l-23 -18 27 -46 c15 -25 27 -60 27 -79 -1 -42 -32 -111 -71 -156 -17
-19 -35 -45 -41 -58 -6 -13 -15 -24 -19 -24 -11 0 2 42 23 72 32 46 68 132 68
163 0 44 -25 75 -60 75 -42 0 -47 -14 -54 -140 -5 -84 -5 -80 -15 -80 -5 0
-13 15 -16 32 -4 18 -16 45 -26 60 -26 36 -24 91 5 137 55 86 75 184 41 197
-25 10 -17 48 19 83 28 28 40 32 72 29 37 -3 39 -2 37 26 -6 89 -120 94 -159
7 l-18 -42 -19 41 c-42 89 -154 92 -158 5 0 -16 -3 -15 -11 7 -8 25 -6 31 23
57 l32 30 -6 328 c-4 180 -12 398 -19 483 l-13 155 -5 -385 c-4 -275 -10 -406
-20 -460 l-15 -75 -6 135 -6 135 1 -167 c0 -92 -2 -170 -5 -173 -4 -3 -9 63
-13 147 -4 84 -11 196 -17 248 -10 100 -46 295 -59 319 -8 15 -43 -123 -60
-239 -9 -63 -29 -369 -30 -464 0 -16 -2 -27 -5 -25 -2 3 -7 142 -10 310 -5
287 -30 717 -42 729 -3 3 -4 -16 -2 -42z m194 -678 c4 -80 2 -188 -3 -240 l-9
-95 -2 140 c0 77 -3 205 -6 285 -3 103 -2 132 5 100 5 -25 12 -110 15 -190z
m15 -392 c0 -73 -7 -85 -17 -27 -5 31 4 99 12 99 3 0 5 -32 5 -72z m-240 -39
c0 -5 -4 -9 -10 -9 -15 0 -12 -37 5 -71 9 -17 15 -52 14 -82 0 -29 2 -65 6
-82 l6 -30 -31 35 c-39 45 -56 76 -64 122 -4 20 -13 39 -21 42 -22 8 -18 31 9
64 20 23 31 28 55 24 17 -2 31 -8 31 -13z m429 -3 c32 -29 36 -55 12 -77 -13
-12 -21 -32 -21 -51 0 -30 -18 -60 -70 -118 l-23 -25 7 30 c4 17 9 57 12 90 3
33 11 77 19 97 14 36 7 57 -15 43 -15 -9 -12 1 4 18 19 18 50 15 75 -7z m-313
-136 c13 -5 24 -14 24 -19 0 -11 -28 -19 -52 -13 -22 5 -35 87 -16 109 11 14
13 11 16 -26 3 -34 8 -44 28 -51z m124 24 c0 -2 -7 -4 -15 -4 -11 0 -15 11
-15 38 l1 37 14 -34 c8 -18 15 -35 15 -37z m50 20 c0 -12 -4 -34 -10 -49 -8
-20 -16 -25 -40 -23 -34 3 -35 21 -2 26 19 3 22 10 22 49 0 39 2 44 15 33 8
-7 15 -23 15 -36z m27 -61 c-3 -10 -5 -4 -5 12 0 17 2 24 5 18 2 -7 2 -21 0
-30z m-437 -14 c12 -22 20 -50 18 -62 -3 -21 -4 -21 -21 4 -18 27 -35 99 -24
99 4 0 16 -18 27 -41z m157 9 c-3 -7 -5 -2 -5 12 0 14 2 19 5 13 2 -7 2 -19 0
-25z m463 12 c0 -11 -7 -37 -15 -57 -11 -27 -18 -34 -27 -25 -8 8 -6 23 8 56
20 49 34 59 34 26z m-316 -96 c-7 -36 -8 -37 -15 -14 -10 37 -10 52 1 45 6 -3
10 -1 10 6 0 7 3 10 6 7 3 -3 2 -23 -2 -44z m-106 -32 c38 -78 43 -92 33 -92
-5 0 -14 12 -20 28 -7 15 -18 38 -25 52 -8 14 -17 35 -21 48 -12 41 5 23 33
-36z m227 36 c-8 -28 -54 -120 -66 -132 -18 -20 -8 15 21 72 17 33 30 65 30
71 0 6 5 11 11 11 6 0 8 -9 4 -22z m99 -79 c-5 -8 -10 -6 -16 5 -5 9 -6 21 -2
27 5 8 10 6 16 -5 5 -9 6 -21 2 -27z m-434 24 c0 -5 -5 -15 -10 -23 -8 -12
-10 -11 -10 8 0 12 5 22 10 22 6 0 10 -3 10 -7z m368 -74 c-38 -25 -51 2 -15
31 21 18 22 18 25 -2 2 -11 -2 -25 -10 -29z m-288 -1 c0 -12 -14 -10 -35 5
-10 8 -15 19 -11 26 6 9 13 8 27 -5 10 -9 19 -21 19 -26z m417 0 c-3 -7 -5 -2
-5 12 0 14 2 19 5 13 2 -7 2 -19 0 -25z m-77 -129 c-26 -87 -37 -85 -15 2 21
85 26 97 32 81 3 -7 -5 -44 -17 -83z m-416 16 c21 -83 19 -104 -3 -40 -26 72
-33 105 -22 105 5 0 16 -29 25 -65z m136 35 c0 -5 -9 -10 -21 -10 -11 0 -17 5
-14 10 3 6 13 10 21 10 8 0 14 -4 14 -10z m165 0 c3 -5 -3 -10 -14 -10 -12 0
-21 5 -21 10 0 6 6 10 14 10 8 0 18 -4 21 -10z m62 -49 c-2 -32 -13 -70 -22
-85 -16 -24 -19 -25 -35 -11 -9 8 -27 15 -39 15 -18 0 -22 5 -19 23 4 28 44
36 62 11 12 -16 14 -15 29 7 10 13 17 40 17 61 0 21 3 38 6 38 4 0 4 -26 1
-59z m-291 -48 c17 -12 19 -12 22 1 4 21 48 21 56 0 7 -19 -2 -37 -15 -28 -5
3 -20 -1 -33 -10 -22 -14 -25 -13 -41 3 -10 12 -18 42 -20 77 -4 54 -3 55 4
15 4 -24 16 -50 27 -58z m-183 3 c15 -12 15 -15 3 -26 -19 -15 -36 -5 -36 21
0 22 8 24 33 5z m635 -28 c2 -9 -4 -18 -13 -21 -11 -5 -15 0 -15 19 0 28 23
29 28 2z m-698 -78 c0 -11 -4 -20 -10 -20 -5 0 -10 9 -10 20 0 11 5 20 10 20
6 0 10 -9 10 -20z m766 -25 c8 -33 4 -37 -20 -20 -11 8 -16 21 -13 30 9 23 26
18 33 -10z m-739 -123 c-1 -26 2 -61 6 -78 7 -29 3 -38 -55 -107 -35 -41 -85
-104 -113 -139 -27 -34 -62 -76 -77 -93 -16 -16 -28 -33 -28 -37 0 -5 -5 -8
-11 -8 -6 0 -2 15 9 33 21 34 142 264 204 387 21 41 38 84 38 96 0 11 3 24 7
28 12 12 23 -32 20 -82z m815 -7 c41 -16 44 -23 113 -260 62 -211 61 -209 22
-140 -155 273 -247 448 -247 472 l1 28 38 -43 c21 -23 54 -49 73 -57z m-452
-1 c0 -14 -14 -33 -21 -28 -15 9 -10 31 6 31 8 0 15 -1 15 -3z m165 -26 c2
-13 25 -108 50 -212 25 -103 45 -193 44 -200 0 -6 -27 61 -59 149 -48 130 -59
172 -59 223 -1 60 14 85 24 40z m-110 -316 c-21 -103 -40 -189 -43 -192 -2 -3
-2 27 2 65 29 318 29 309 12 349 -23 55 -20 56 26 8 l41 -44 -38 -186z"/>
<path d="M1540 2885 c0 -3 -13 -83 -30 -178 -30 -178 -47 -374 -53 -630 l-3
-148 50 -36 c40 -29 53 -33 65 -24 9 6 31 21 49 32 l32 21 0 146 c0 198 -16
421 -40 567 -26 151 -31 177 -36 173 -2 -3 3 -45 11 -94 28 -177 45 -363 52
-559 l6 -200 -41 -28 c-23 -15 -44 -27 -47 -27 -3 0 -5 215 -5 478 0 342 3
473 11 462 8 -12 9 -10 5 10 -3 14 -6 28 -6 33 0 8 -20 10 -20 2z"/>
<path d="M1362 2800 c0 -14 2 -19 5 -12 2 6 2 18 0 25 -3 6 -5 1 -5 -13z"/>
<path d="M1072 2670 c0 -19 2 -27 5 -17 2 9 2 25 0 35 -3 9 -5 1 -5 -18z"/>
<path d="M1353 2655 c0 -22 2 -30 4 -17 2 12 2 30 0 40 -3 9 -5 -1 -4 -23z"/>
<path d="M1063 2490 c0 -36 2 -50 4 -32 2 17 2 47 0 65 -2 17 -4 3 -4 -33z"/>
<path d="M1343 2480 c0 -36 2 -50 4 -32 2 17 2 47 0 65 -2 17 -4 3 -4 -33z"/>
<path d="M992 830 c0 -19 2 -27 5 -17 2 9 2 25 0 35 -3 9 -5 1 -5 -18z"/>
<path d="M982 760 c0 -19 2 -27 5 -17 2 9 2 25 0 35 -3 9 -5 1 -5 -18z"/>
<path d="M965 650 c-4 -34 -5 -63 -2 -66 2 -3 7 23 11 57 4 33 5 63 3 66 -3 2
-8 -23 -12 -57z"/>
</g>
</svg>
