<?xml version="1.0" standalone="no"?>
<!DOCTYPE svg PUBLIC "-//W3C//DTD SVG 20010904//EN"
 "http://www.w3.org/TR/2001/REC-SVG-20010904/DTD/svg10.dtd">
<svg version="1.0" xmlns="http://www.w3.org/2000/svg"
 width="244.000000pt" height="305.000000pt" viewBox="0 0 244.000000 305.000000"
 preserveAspectRatio="xMidYMid meet">
<metadata>
Created by potrace 1.16, written by Peter Selinger 2001-2019
</metadata>
<g transform="translate(0.000000,305.000000) scale(0.100000,-0.100000)"
fill="#000000" stroke="none">
<path d="M872 2812 c-47 -206 -65 -370 -78 -698 l-7 -182 29 -18 c16 -10 41
-28 55 -41 l26 -24 38 31 c21 16 44 30 51 30 7 0 14 4 16 10 7 23 -12 465 -25
580 -17 139 -47 313 -54 306 -2 -2 7 -82 21 -177 28 -194 46 -411 46 -570 l0
-105 -41 -28 c-23 -14 -43 -25 -45 -23 -6 6 -5 945 1 970 4 14 3 27 -2 30 -5
3 -19 -38 -31 -91z"/>
<path d="M1569 2905 c-1 -5 -3 -14 -4 -20 -1 -5 -5 -17 -8 -25 -8 -21 -34
-156 -52 -275 -22 -144 -32 -286 -34 -485 l-2 -175 38 -23 c21 -12 46 -28 55
-34 14 -10 22 -8 45 14 15 14 39 29 52 33 l24 7 -7 207 c-8 254 -31 469 -68
644 -21 99 -17 35 7 -109 33 -202 45 -348 45 -545 l0 -166 -40 -27 c-22 -14
-42 -26 -45 -26 -3 0 -5 214 -5 476 0 314 3 473 10 469 11 -7 11 9 0 45 -4 14
-9 21 -11 15z"/>
<path d="M912 2840 c0 -14 2 -19 5 -12 2 6 2 18 0 25 -3 6 -5 1 -5 -13z"/>
<path d="M1213 2820 c0 -25 2 -35 4 -22 2 12 2 32 0 45 -2 12 -4 2 -4 -23z"/>
<path d="M1251 2715 c-1 -82 -6 -142 -10 -131 -5 14 -11 4 -23 -40 -37 -134
-68 -409 -68 -609 0 -116 -14 -101 -36 37 -10 59 -21 113 -26 120 -13 20 -25
-6 -33 -71 -4 -31 -9 -73 -12 -93 -4 -35 -2 -39 30 -58 42 -25 54 -63 37 -115
-11 -35 -41 -48 -55 -25 -12 19 -25 10 -25 -18 0 -31 27 -62 53 -62 9 0 24 11
33 25 19 29 36 33 33 8 -4 -45 2 -65 21 -70 12 -3 31 -26 44 -52 l24 -46 17
42 c12 30 25 45 47 52 28 10 29 13 23 51 -8 46 -1 50 31 15 13 -14 30 -25 38
-25 20 0 46 39 46 68 0 19 -4 23 -17 17 -41 -18 -58 -11 -67 27 -11 43 6 94
34 103 37 12 41 28 30 119 -11 92 -18 116 -30 116 -9 0 -20 -51 -40 -178 -7
-39 -16 -70 -20 -67 -5 3 -9 56 -9 118 -1 131 -27 416 -43 467 -6 19 -14 123
-18 230 l-6 195 -3 -150z m-2 -417 c0 -123 -4 -214 -8 -203 -5 11 -9 103 -10
204 -1 167 2 221 15 221 2 0 4 -100 3 -222z m52 -320 c12 -295 10 -343 -20
-351 -17 -4 -18 13 -18 397 -1 372 0 395 13 316 7 -47 19 -209 25 -362z m-64
20 c-3 -8 -6 -5 -6 6 -1 11 2 17 5 13 3 -3 4 -12 1 -19z m22 -180 c-1 -37 -2
-39 -9 -18 -12 36 -12 60 0 60 6 0 10 -19 9 -42z m-12 -90 c-3 -7 -5 -2 -5 12
0 14 2 19 5 13 2 -7 2 -19 0 -25z m3 -104 c0 -13 -4 -24 -10 -24 -5 0 -10 14
-10 31 0 17 4 28 10 24 6 -3 10 -17 10 -31z"/>
<path d="M753 1860 c-28 -11 -56 -53 -51 -77 3 -15 11 -17 46 -15 37 3 46 0
77 -31 38 -38 43 -58 20 -77 -37 -30 -5 -142 65 -230 17 -21 30 -41 30 -45 0
-4 -16 -25 -35 -48 -58 -68 -44 -123 35 -141 43 -10 54 5 42 60 -6 29 -7 55
-2 65 9 15 15 15 80 -4 67 -20 71 -20 88 -3 16 16 16 18 -2 32 -11 8 -27 14
-36 14 -30 0 -126 69 -158 114 -35 48 -62 106 -62 131 0 29 17 14 40 -36 28
-58 115 -143 175 -170 22 -10 41 -16 43 -14 11 11 -10 54 -29 60 -51 17 -149
143 -149 193 0 11 -7 25 -15 32 -22 19 -18 48 11 77 22 22 32 25 69 21 28 -4
45 -1 48 6 8 22 -9 60 -35 79 -24 18 -32 19 -67 9 -31 -10 -43 -21 -58 -52
-10 -22 -21 -40 -24 -40 -4 0 -12 14 -19 31 -20 48 -81 76 -127 59z"/>
<path d="M1435 1858 c-30 -16 -45 -39 -45 -70 0 -27 1 -27 44 -22 39 6 48 3
70 -19 29 -29 34 -72 11 -81 -9 -3 -15 -18 -15 -34 0 -46 -71 -136 -155 -195
-14 -10 -25 -27 -25 -37 0 -25 1 -25 59 4 58 30 155 132 171 181 6 19 16 35
21 35 16 0 10 -44 -12 -85 -44 -82 -111 -143 -187 -171 -62 -23 -70 -31 -50
-51 16 -15 22 -15 90 5 93 27 100 18 73 -90 -6 -23 -4 -28 18 -33 30 -8 82 17
97 45 15 28 4 57 -36 103 -19 20 -34 39 -34 42 0 3 18 29 40 58 21 29 46 69
55 90 19 47 20 111 0 127 -23 19 -18 39 19 76 29 29 41 34 80 34 38 0 46 3 46
19 0 28 -37 69 -69 76 -44 9 -89 -18 -111 -68 l-19 -41 -17 43 c-12 32 -26 47
-50 57 -39 17 -43 17 -69 2z"/>
<path d="M1079 1576 c-33 -16 -34 -34 -2 -41 15 -4 35 -10 43 -14 28 -14 49
-74 52 -150 3 -72 2 -75 -22 -81 -20 -5 -25 -12 -25 -35 0 -23 5 -30 25 -35
18 -4 26 -14 28 -33 3 -23 -1 -28 -27 -33 -59 -12 -67 -59 -13 -70 16 -3 34
-14 40 -25 18 -28 28 -109 13 -109 -11 0 -12 3 -16 50 -3 42 -16 72 -30 66
-27 -10 -55 23 -55 65 0 39 0 39 -40 39 -23 0 -55 -7 -72 -16 -40 -21 -73 -7
-116 51 -27 36 -32 49 -27 77 3 18 -1 62 -8 98 -13 62 -15 65 -45 68 -21 2
-38 -4 -53 -19 -35 -35 -23 -99 35 -188 85 -131 98 -163 102 -249 2 -42 6 -93
9 -112 6 -33 1 -41 -80 -135 -48 -55 -115 -133 -148 -172 -66 -78 -93 -96 -56
-37 12 20 71 124 130 232 95 172 109 203 109 244 0 66 -32 144 -86 208 -80 96
-95 165 -49 232 14 20 25 41 25 47 0 20 -45 41 -86 41 -34 0 -47 -5 -64 -27
-12 -15 -19 -34 -17 -43 3 -8 15 -50 28 -92 20 -67 21 -82 10 -118 -8 -27 -21
-45 -37 -52 -25 -12 -31 -37 -13 -55 6 -6 9 -16 5 -21 -6 -10 -355 -136 -361
-130 -2 2 74 52 170 112 239 147 219 126 201 211 -9 39 -20 90 -25 115 -8 39
-9 32 -8 -52 l2 -97 -35 5 c-30 4 -40 0 -70 -28 -19 -19 -104 -96 -188 -172
-84 -76 -151 -141 -148 -143 5 -6 37 4 298 90 171 56 188 64 188 85 0 35 23
36 87 5 94 -45 138 -136 73 -149 -16 -4 -34 -11 -39 -18 -5 -6 -43 -121 -85
-256 -43 -135 -81 -258 -87 -274 -9 -30 -4 -49 9 -29 4 6 46 53 93 104 320
349 303 327 289 363 -23 62 -19 66 79 66 75 0 93 -3 121 -22 56 -38 59 -53 22
-91 l-32 -33 66 -325 c58 -288 74 -355 74 -323 0 5 18 95 40 199 23 105 52
248 66 319 l24 130 -32 33 c-36 37 -34 50 16 87 22 17 46 22 122 24 l94 4 0
-27 c0 -14 -5 -35 -11 -46 -11 -22 5 -45 110 -159 28 -30 104 -114 168 -186
65 -72 119 -128 121 -124 6 16 -170 556 -185 568 -9 6 -25 12 -35 12 -45 0
-27 83 27 125 31 23 104 55 126 55 4 0 9 -12 11 -27 3 -27 11 -31 233 -105
231 -77 259 -85 253 -70 -1 4 -45 46 -97 93 -51 46 -134 121 -185 167 -85 77
-93 82 -125 77 l-33 -6 7 84 c4 53 3 87 -3 91 -6 4 -13 -24 -17 -71 -13 -140
-16 -128 36 -125 43 3 49 0 110 -54 107 -96 231 -214 223 -214 -9 0 -164 87
-302 168 -62 36 -98 65 -108 85 -18 34 -15 93 10 177 15 52 15 56 -2 80 -25
34 -97 40 -132 12 l-24 -20 29 -42 c52 -74 38 -137 -55 -251 -59 -74 -72 -119
-56 -191 11 -50 13 -52 60 -68 l48 -16 69 -214 c38 -118 68 -219 66 -224 -2
-6 -17 15 -33 45 -17 29 -73 126 -124 214 -51 88 -104 178 -117 200 -43 75
-33 114 71 280 47 75 56 96 56 135 0 33 -6 52 -18 63 -19 18 -59 22 -78 9 -13
-8 -26 -76 -28 -153 -2 -47 -8 -64 -34 -97 -38 -48 -68 -57 -116 -37 -19 8
-51 15 -71 15 -34 0 -35 -1 -35 -39 0 -40 -11 -56 -45 -62 -10 -2 -22 -15 -26
-29 -5 -23 -6 -23 -11 -5 -3 11 -4 4 -2 -15 2 -19 -3 -46 -11 -60 -41 -72 -42
-66 9 -117 55 -57 55 -61 21 -220 -14 -65 -36 -165 -48 -223 -20 -99 -22 -103
-28 -65 -4 22 -5 156 -3 298 4 233 2 260 -13 284 -10 15 -13 25 -8 21 6 -3 20
-2 33 3 16 6 22 17 23 41 0 54 21 103 44 104 44 2 46 4 43 32 -2 19 -9 28 -25
30 -31 4 -56 41 -41 59 6 7 18 13 28 13 38 0 36 66 -3 72 -20 3 -22 8 -21 69
0 38 8 87 18 113 16 42 22 47 62 57 50 13 54 20 20 39 -36 19 -77 15 -97 -8
-9 -12 -19 -18 -23 -15 -3 4 -6 -1 -6 -11 0 -9 -4 -15 -9 -11 -5 3 -11 -6 -13
-20 -4 -31 -21 -38 -26 -11 -11 54 -98 105 -143 82z"/>
<path d="M1261 744 c1 -43 4 -90 9 -104 4 -14 5 20 2 75 -6 121 -12 138 -11
29z"/>
<path d="M1272 520 c0 -14 2 -19 5 -12 2 6 2 18 0 25 -3 6 -5 1 -5 -13z"/>
</g>
</svg>
