<?xml version="1.0" standalone="no"?>
<!DOCTYPE svg PUBLIC "-//W3C//DTD SVG 20010904//EN"
 "http://www.w3.org/TR/2001/REC-SVG-20010904/DTD/svg10.dtd">
<svg version="1.0" xmlns="http://www.w3.org/2000/svg"
 width="244.000000pt" height="305.000000pt" viewBox="0 0 244.000000 305.000000"
 preserveAspectRatio="xMidYMid meet">
<metadata>
Created by potrace 1.16, written by Peter Selinger 2001-2019
</metadata>
<g transform="translate(0.000000,305.000000) scale(0.100000,-0.100000)"
fill="#000000" stroke="none">
<path d="M1538 2885 c-4 -16 -2 -31 3 -33 9 -4 13 -952 4 -952 -3 0 -23 12
-45 26 l-40 27 0 91 c0 145 19 430 36 559 9 65 14 120 11 123 -6 6 -35 -191
-47 -321 -5 -60 -10 -193 -11 -295 -2 -181 -1 -185 20 -196 12 -6 32 -21 45
-33 29 -27 32 -27 73 9 18 17 38 30 43 30 13 0 13 245 0 425 -12 170 -45 405
-69 500 -15 62 -18 67 -23 40z"/>
<path d="M928 2399 c2 -403 0 -499 -10 -499 -22 0 -78 60 -78 83 1 150 24 508
40 619 23 163 25 204 4 103 -22 -108 -43 -348 -50 -576 l-7 -207 29 -15 c16
-8 37 -24 47 -35 18 -20 19 -20 68 16 l49 37 0 150 c0 253 -30 567 -71 745 -6
25 -12 50 -13 57 -9 53 -11 -42 -8 -478z"/>
<path d="M1111 2880 c-1 -8 -2 -189 -1 -402 1 -348 0 -387 -14 -382 -13 5 -16
25 -18 103 -1 62 -4 28 -9 -99 -4 -107 -5 -203 -3 -212 4 -13 -3 -18 -33 -23
-61 -10 -77 -24 -99 -90 -5 -17 -9 -14 -24 22 -21 48 -44 63 -94 63 -41 0 -70
-33 -64 -72 3 -20 8 -23 39 -20 29 3 41 -3 67 -29 34 -35 42 -73 17 -83 -34
-13 -10 -115 46 -200 21 -32 39 -64 39 -71 0 -7 -14 -30 -31 -51 -28 -35 -30
-44 -25 -87 5 -47 -5 -62 -20 -29 -4 9 -13 62 -18 117 -10 90 -13 101 -35 111
-30 16 -48 9 -66 -26 -20 -40 -9 -92 40 -180 92 -167 91 -162 70 -194 -22 -33
-29 -28 -15 8 12 34 13 49 1 42 -5 -3 -12 6 -16 21 -3 15 -26 56 -51 91 -24
34 -51 76 -59 92 -22 42 -19 119 5 155 37 55 18 85 -54 85 -67 0 -81 -51 -46
-170 27 -94 1 -139 -121 -214 -195 -120 -241 -147 -245 -144 -2 3 56 64 130
136 127 126 135 132 160 122 47 -18 48 -16 41 83 -10 125 -28 151 -21 29 l5
-93 -32 6 c-31 6 -40 -2 -207 -170 -96 -96 -171 -175 -166 -175 5 0 79 25 165
56 86 31 182 65 214 76 49 18 59 26 64 50 6 33 14 34 68 9 59 -26 107 -85 103
-124 -2 -24 -8 -33 -25 -35 -12 -2 -27 -9 -33 -17 -10 -12 -96 -298 -145 -480
-8 -27 -17 -59 -20 -70 -4 -12 7 -5 30 20 42 47 230 272 297 357 l47 59 -16
40 c-8 22 -14 41 -12 44 2 2 27 5 54 6 l50 3 -2 -64 c-2 -69 2 -65 12 13 5 38
10 47 26 47 19 0 20 -4 14 -42 -19 -108 -84 -390 -84 -364 -2 51 -8 24 -14
-59 l-6 -80 75 225 c61 184 73 232 68 264 -7 45 8 46 40 3 l20 -27 -32 -33
-33 -34 50 -264 c28 -145 56 -292 63 -327 l13 -64 24 124 c13 68 38 201 57
296 44 228 44 235 11 270 -33 35 -33 42 -2 72 l25 23 0 -44 c0 -45 132 -456
138 -428 1 8 -9 113 -23 232 -14 119 -25 226 -25 237 0 19 5 21 53 18 56 -3
55 0 41 -73 -5 -26 5 -42 78 -131 46 -55 128 -155 183 -222 55 -67 101 -118
103 -113 3 8 -79 298 -134 476 -28 89 -38 105 -66 105 -45 0 -33 69 21 120 36
34 105 65 123 54 4 -3 8 -16 8 -29 0 -12 6 -25 13 -28 6 -2 91 -32 187 -66 96
-35 192 -70 213 -78 20 -9 39 -14 42 -11 3 3 -76 85 -176 182 -168 166 -182
178 -210 172 l-30 -6 7 90 c5 65 4 90 -5 90 -6 0 -11 -16 -11 -38 0 -21 -7
-64 -15 -95 -8 -32 -15 -66 -15 -76 0 -12 59 -57 185 -141 102 -68 185 -125
185 -127 0 -7 -35 6 -198 69 l-152 60 6 34 c5 29 2 37 -19 55 -39 30 -43 75
-17 184 22 89 22 95 6 119 -13 21 -24 26 -57 26 -46 0 -79 -14 -79 -35 0 -8
11 -35 25 -61 14 -26 25 -54 25 -63 0 -40 -24 -94 -70 -157 -28 -38 -56 -86
-62 -106 -6 -21 -15 -38 -20 -38 -20 0 -4 49 42 130 28 48 55 104 61 124 19
69 -6 116 -61 116 -27 0 -38 -31 -46 -133 -6 -83 -29 -142 -44 -117 -4 7 -2
24 5 37 16 31 4 71 -31 104 -30 29 -30 45 2 92 66 97 92 199 59 227 -22 18
-18 44 11 79 22 26 33 31 70 31 42 0 44 1 44 29 0 35 -40 71 -77 71 -27 0 -83
-50 -83 -74 0 -30 -20 -26 -33 6 -20 47 -43 62 -90 61 -46 -2 -57 -11 -74 -56
l-11 -32 -1 33 c-1 24 7 39 30 60 l32 28 -12 127 c-6 70 -11 191 -11 270 0 78
-5 230 -12 337 l-13 195 -6 -420 c-3 -231 -10 -430 -14 -442 -4 -13 -12 -20
-17 -17 -7 4 -8 -9 -4 -37 4 -30 3 -36 -3 -19 -4 14 -11 107 -15 207 -6 173
-28 339 -59 458 l-13 50 -12 -48 c-35 -139 -59 -330 -65 -537 -2 -47 -4 -15
-5 71 -4 301 -33 853 -41 789z m119 -853 c0 -270 -3 -406 -10 -402 -6 4 -11
78 -12 183 -1 104 -4 154 -7 122 -5 -41 -8 -14 -14 110 -6 128 -5 190 7 280 9
63 16 122 16 130 0 13 1 13 10 0 6 -9 10 -177 10 -423z m-83 -144 c-3 -10 -5
-4 -5 12 0 17 2 24 5 18 2 -7 2 -21 0 -30z m-27 -64 c0 -10 -4 -21 -10 -24 -5
-3 -10 3 -10 15 0 12 -5 31 -11 43 -12 22 -12 22 10 3 11 -11 21 -27 21 -37z
m70 -38 c0 -87 -13 -69 -15 19 -1 40 2 65 7 58 4 -7 8 -42 8 -77z m-116 -27
c22 -21 20 -25 -9 -18 -19 5 -25 2 -25 -9 0 -23 22 -67 33 -67 5 0 7 -26 6
-57 -2 -33 2 -68 9 -80 7 -12 12 -30 12 -40 -1 -13 -12 -6 -42 27 -42 47 -68
95 -68 128 0 11 -7 25 -15 32 -23 19 -18 46 16 74 35 30 61 33 83 10z m405 -6
c30 -32 36 -59 17 -73 -9 -7 -16 -22 -16 -35 0 -32 -25 -79 -70 -130 -36 -41
-39 -43 -40 -21 0 14 7 32 16 42 12 13 13 22 5 38 -16 29 -14 81 4 87 16 6 41
72 31 82 -4 3 -16 1 -26 -6 -20 -12 -26 -6 -12 14 7 11 31 20 59 23 7 0 21 -9
32 -21z m-303 -138 c33 -13 30 -30 -5 -30 -27 0 -29 3 -33 48 -3 26 -2 54 1
62 3 8 7 -4 9 -28 3 -35 8 -45 28 -52z m157 26 c-7 -52 -17 -64 -48 -58 -29 5
-24 19 11 32 20 8 24 16 24 52 0 28 3 38 9 29 5 -7 6 -32 4 -55z m-137 -3
c-14 -14 -23 9 -13 32 l12 25 3 -26 c2 -14 1 -28 -2 -31z m-238 -71 c24 -64
28 -87 11 -76 -16 9 -49 85 -49 112 0 38 14 24 38 -36z m399 26 c-3 -7 -5 -2
-5 12 0 14 2 19 5 13 2 -7 2 -19 0 -25z m190 -4 c-8 -48 -60 -136 -65 -110 -4
21 48 145 62 146 5 0 6 -16 3 -36z m-430 4 c-3 -8 -6 -5 -6 6 -1 11 2 17 5 13
3 -3 4 -12 1 -19z m132 -62 c-2 -23 -17 -60 -18 -46 -1 8 -4 24 -7 36 -4 14
-1 21 10 21 9 0 16 -5 15 -11z m-91 -75 c12 -29 22 -61 21 -70 0 -18 -46 79
-56 118 -9 40 11 13 35 -48z m188 46 c-9 -38 -47 -119 -53 -114 -4 5 30 107
43 129 10 16 16 7 10 -15z m-296 -61 c0 -8 -4 -18 -10 -21 -5 -3 -10 3 -10 14
0 12 5 21 10 21 6 0 10 -6 10 -14z m390 -12 c0 -8 -4 -14 -10 -14 -5 0 -10 9
-10 21 0 11 5 17 10 14 6 -3 10 -13 10 -21z m-320 -45 c0 -17 -3 -18 -20 -9
-20 11 -25 22 -14 33 11 11 34 -5 34 -24z m251 -12 c-8 -8 -14 -7 -23 2 -11
10 -9 15 7 27 18 13 20 13 23 -2 2 -9 -1 -21 -7 -27z m-312 -116 c6 -30 9 -56
7 -58 -6 -6 -36 100 -36 124 1 30 16 -5 29 -66z m365 7 c-9 -34 -21 -67 -27
-73 -6 -6 -7 -3 -4 10 3 11 9 38 13 60 4 22 11 48 16 58 18 36 19 8 2 -55z
m-249 41 c-4 -5 -13 -9 -22 -9 -13 0 -13 3 -3 15 13 15 35 11 25 -6z m145 0
c0 -5 -7 -9 -15 -9 -15 0 -20 12 -9 23 8 8 24 -1 24 -14z m-202 -101 c9 -9 15
-8 26 7 16 23 46 14 46 -15 0 -13 -7 -20 -18 -20 -10 0 -23 -5 -29 -11 -6 -6
-16 -8 -22 -5 -17 11 -38 95 -32 130 5 27 6 24 11 -21 3 -29 11 -58 18 -65z
m251 5 c-6 -24 -15 -46 -19 -48 -13 -8 -70 26 -70 41 0 23 29 29 44 9 12 -17
14 -16 29 6 10 13 18 39 18 59 2 32 2 33 6 6 3 -16 -1 -49 -8 -73z m-420 -2
c17 -11 7 -41 -14 -41 -9 0 -15 9 -15 25 0 27 6 30 29 16z m566 -36 c0 -10 -6
-20 -12 -22 -8 -3 -13 5 -13 22 0 17 5 25 13 23 6 -3 12 -13 12 -23z m85 -143
c0 -7 -5 -10 -11 -7 -7 5 -7 2 0 -11 5 -11 36 -71 67 -134 31 -63 87 -174 125
-246 38 -72 69 -134 69 -138 0 -10 -42 41 -174 208 -113 144 -117 151 -110
185 4 20 7 50 5 66 -3 52 10 120 20 104 5 -8 9 -20 9 -27z m-738 -85 c-37 -65
-82 -149 -162 -302 -71 -136 -68 -130 -75 -123 -3 3 -1 18 5 33 6 15 33 106
61 203 51 177 66 208 102 198 11 -3 31 7 50 24 45 40 52 27 19 -33z m388 7 c0
-14 -14 -33 -21 -28 -15 9 -10 31 6 31 8 0 15 -1 15 -3z m144 -41 c3 -16 21
-105 41 -199 50 -241 47 -240 -32 21 -27 88 -38 142 -35 168 5 44 18 49 26 10z
m-166 -275 c-1 -151 -4 -227 -8 -188 l-7 65 -2 -50 c-3 -52 -5 -47 -61 229
-18 86 -13 110 26 152 20 22 33 31 30 21 -15 -46 -14 -67 1 -24 9 26 18 47 20
47 2 0 2 -114 1 -252z"/>
<path d="M1213 2300 c0 -47 2 -66 4 -42 2 23 2 61 0 85 -2 23 -4 4 -4 -43z"/>
<path d="M1203 2065 c0 -33 2 -45 4 -27 2 18 2 45 0 60 -2 15 -4 0 -4 -33z"/>
<path d="M1193 705 c0 -33 2 -45 4 -27 2 18 2 45 0 60 -2 15 -4 0 -4 -33z"/>
<path d="M1203 570 c0 -30 2 -43 4 -27 2 15 2 39 0 55 -2 15 -4 2 -4 -28z"/>
<path d="M1351 2874 c0 -11 3 -14 6 -6 3 7 2 16 -1 19 -3 4 -6 -2 -5 -13z"/>
<path d="M1512 2765 c0 -16 2 -22 5 -12 2 9 2 23 0 30 -3 6 -5 -1 -5 -18z"/>
<path d="M1343 2745 c0 -22 2 -30 4 -17 2 12 2 30 0 40 -3 9 -5 -1 -4 -23z"/>
<path d="M1091 2724 c0 -11 3 -14 6 -6 3 7 2 16 -1 19 -3 4 -6 -2 -5 -13z"/>
<path d="M1333 2580 c0 -30 2 -43 4 -27 2 15 2 39 0 55 -2 15 -4 2 -4 -28z"/>
<path d="M1083 2545 c0 -27 2 -38 4 -22 2 15 2 37 0 50 -2 12 -4 0 -4 -28z"/>
<path d="M1324 2275 c0 -77 2 -107 3 -67 2 40 2 103 0 140 -2 37 -3 4 -3 -73z"/>
<path d="M1005 740 c-4 -39 -5 -73 -2 -76 2 -3 8 27 11 67 4 39 5 73 3 76 -3
2 -8 -28 -12 -67z"/>
<path d="M992 610 c0 -19 2 -27 5 -17 2 9 2 25 0 35 -3 9 -5 1 -5 -18z"/>
</g>
</svg>
