<?xml version="1.0" standalone="no"?>
<!DOCTYPE svg PUBLIC "-//W3C//DTD SVG 20010904//EN"
 "http://www.w3.org/TR/2001/REC-SVG-20010904/DTD/svg10.dtd">
<svg version="1.0" xmlns="http://www.w3.org/2000/svg"
 width="244.000000pt" height="305.000000pt" viewBox="0 0 244.000000 305.000000"
 preserveAspectRatio="xMidYMid meet">
<metadata>
Created by potrace 1.16, written by Peter Selinger 2001-2019
</metadata>
<g transform="translate(0.000000,305.000000) scale(0.100000,-0.100000)"
fill="#000000" stroke="none">
<path d="M1496 2582 c1 -320 -3 -318 -20 8 -6 116 -16 190 -37 265 -5 19 -6 5
-2 -37 3 -36 0 -187 -6 -335 -6 -147 -14 -333 -17 -411 -5 -105 -9 -141 -17
-133 -6 6 -13 43 -15 81 -2 38 -8 67 -13 64 -5 -3 -9 3 -9 13 -1 17 -1 17 -11
-1 -9 -14 -13 -15 -19 -6 -5 7 -12 -19 -17 -61 l-9 -74 -8 155 c-11 241 -49
512 -66 479 -16 -31 -50 -304 -57 -464 l-7 -170 -11 80 c-6 47 -14 75 -18 67
-6 -8 -14 -9 -26 -3 -16 9 -19 33 -25 226 -7 212 -39 552 -53 566 -5 5 -7 -56
-6 -134 1 -123 0 -133 -8 -77 -5 36 -17 101 -27 145 -16 76 -17 78 -22 40 -3
-22 -1 -43 4 -47 5 -3 6 -97 3 -225 -4 -120 -7 -325 -8 -455 l0 -238 -30 22
-29 22 -2 205 -1 206 -8 -215 c-8 -227 -9 -218 37 -246 27 -16 8 -34 -35 -34
-44 0 -68 -21 -73 -65 -3 -27 -1 -30 24 -27 37 4 61 -10 83 -52 18 -33 18 -36
2 -54 -9 -10 -17 -29 -17 -41 0 -31 21 -114 31 -126 12 -13 11 -45 -1 -46 -32
-5 -35 -2 -35 36 0 32 -5 42 -25 52 -15 7 -28 9 -36 2 -6 -5 -32 -6 -57 -3
-31 5 -52 3 -62 -6 -19 -16 -19 -78 0 -150 18 -66 7 -116 -33 -160 -30 -33
-262 -210 -275 -210 -9 0 34 55 138 175 89 103 82 97 104 85 40 -21 43 -15 35
88 -3 53 -11 102 -16 107 -7 7 -8 -20 -4 -82 l7 -92 -27 2 c-23 2 -43 -16
-128 -114 -114 -131 -167 -195 -179 -215 -8 -14 29 -2 128 40 71 30 88 37 92
32 2 -2 -8 -23 -23 -45 -26 -41 -27 -65 -1 -43 7 6 62 36 122 68 61 31 117 63
126 70 24 21 37 17 54 -17 21 -40 16 -83 -10 -87 -11 -2 -23 -7 -27 -10 -11
-12 -140 -554 -132 -560 4 -4 9 -2 11 5 2 6 31 48 63 93 32 45 61 87 63 93 2
7 7 10 10 7 3 -3 -3 -39 -12 -80 -28 -116 -32 -142 -21 -135 5 3 15 18 23 33
25 49 99 186 122 227 93 165 97 175 93 228 l-3 52 43 -1 c32 -1 50 -7 72 -29
17 -16 30 -33 30 -38 0 -4 -11 -23 -25 -42 l-26 -33 51 -323 c43 -274 60 -364
60 -325 0 16 68 461 95 617 2 17 -5 39 -21 63 -30 44 -25 67 20 96 33 20 90
27 100 12 2 -4 1 -26 -3 -49 -8 -39 -3 -50 81 -205 114 -208 148 -265 148
-253 0 6 -7 46 -14 90 -12 68 -14 100 -3 84 1 -2 16 -22 33 -44 17 -22 50 -68
73 -103 24 -35 45 -62 47 -60 4 5 -22 115 -92 394 -44 173 -47 181 -75 191
-35 14 -38 43 -9 91 l20 33 87 -47 c106 -58 177 -93 181 -89 2 2 -8 22 -22 44
-15 23 -24 41 -21 41 7 0 206 -80 239 -96 16 -8 31 -12 34 -9 3 2 -63 82 -145
177 -129 149 -154 173 -177 171 l-27 -2 7 90 c5 64 4 89 -5 89 -6 0 -11 -16
-12 -37 -1 -54 -8 -104 -19 -136 -5 -15 -7 -34 -3 -43 5 -13 154 -139 219
-184 41 -29 86 -71 82 -75 -3 -3 -49 16 -104 41 -99 46 -164 95 -164 123 0 9
-14 36 -30 60 -34 50 -38 90 -16 167 24 80 24 115 0 138 -17 17 -70 21 -93 7
-7 -5 -25 -4 -42 2 -25 10 -32 8 -49 -9 -17 -17 -19 -25 -10 -48 5 -15 10 -39
10 -54 l0 -26 -28 33 -28 34 18 37 c28 57 34 134 14 166 -17 25 -17 27 8 65
23 35 31 39 66 39 35 0 40 3 40 24 0 27 -42 76 -65 76 -9 0 -26 -5 -37 -11
-15 -8 -23 -8 -31 0 -9 9 -2 21 26 46 l37 34 0 98 c0 153 -19 466 -36 603 -14
109 -40 259 -47 266 -1 1 -1 -145 -1 -324z m-266 -532 l0 -441 -22 20 c-21 20
-21 22 -15 304 5 244 25 557 34 557 2 0 3 -198 3 -440z m210 58 c0 -89 -3
-158 -7 -153 -8 10 -5 315 3 315 2 0 4 -73 4 -162z m-350 -224 c0 -8 -9 -14
-20 -14 -22 0 -26 10 -8 28 13 13 28 7 28 -14z m315 5 c9 -13 6 -16 -29 -25
-29 -7 -29 -7 -10 14 22 24 30 26 39 11z m-385 -23 c0 -8 -4 -17 -9 -21 -12
-7 -24 12 -16 25 9 15 25 12 25 -4z m460 -1 c0 -8 -7 -15 -15 -15 -8 0 -15 7
-15 15 0 8 7 15 15 15 8 0 15 -7 15 -15z m-340 -121 c0 -10 -9 -13 -35 -9 -39
5 -41 -1 -21 -50 16 -37 49 -47 75 -22 11 10 13 8 8 -10 -3 -16 4 -31 24 -53
16 -16 29 -36 29 -44 0 -31 20 -25 34 9 8 19 22 38 31 41 9 4 15 18 15 37 0
24 3 28 12 19 25 -25 58 -14 74 23 8 20 19 33 23 30 10 -6 3 -43 -10 -51 -5
-3 -9 -22 -9 -42 0 -43 -16 -74 -28 -55 -4 6 -19 14 -34 18 -34 9 -63 -19 -79
-77 l-11 -43 -20 53 c-25 66 -54 84 -94 57 -28 -18 -42 -10 -45 25 -5 46 -7
58 -18 78 -16 30 5 74 39 83 30 7 40 3 40 -17z m255 6 c3 -5 3 -11 -2 -11 -53
-8 -63 -7 -63 7 0 16 55 20 65 4z m-401 -200 c5 -24 4 -30 -3 -20 -5 8 -12 33
-15 55 -8 48 8 19 18 -35z m506 50 c0 -30 -24 -100 -34 -100 -4 0 -5 10 -2 23
4 12 10 39 13 60 6 39 23 52 23 17z m-149 -91 c-13 -34 -54 -75 -59 -60 -7 20
18 68 41 79 28 12 30 10 18 -19z m-188 -6 c8 -16 17 -46 20 -68 4 -22 4 -34 0
-26 -3 8 -21 34 -39 59 -39 50 -42 62 -14 62 11 0 25 -11 33 -27z m484 -85
c-2 -13 -4 -5 -4 17 -1 22 1 32 4 23 2 -10 2 -28 0 -40z m-813 -78 c5 -65 4
-81 -4 -67 -15 24 -26 176 -12 162 5 -5 13 -48 16 -95z m842 59 c6 -31 -5 -94
-15 -83 -8 9 -2 119 5 111 3 -2 7 -15 10 -28z m-674 -31 c-9 -9 -12 -4 -11 23
0 32 1 33 11 11 8 -17 8 -26 0 -34z m174 16 c9 3 14 -1 14 -14 0 -11 -3 -20
-6 -20 -14 0 -74 42 -74 52 0 6 12 3 26 -7 14 -9 32 -14 40 -11z m156 -4 c-38
-35 -52 -38 -52 -10 0 13 5 18 15 14 8 -3 24 1 37 10 36 25 36 18 0 -14z m148
4 c0 -8 -5 -12 -10 -9 -6 4 -8 11 -5 16 9 14 15 11 15 -7z m-345 -80 c20 -5
23 -10 18 -40 -5 -29 -2 -35 21 -45 14 -7 26 -20 26 -31 0 -25 -40 -40 -59
-21 -9 9 -26 13 -45 10 -17 -3 -40 -7 -51 -9 -11 -2 -21 3 -23 13 -2 12 4 15
27 11 38 -5 46 12 32 63 -11 43 -5 69 16 61 8 -4 25 -9 38 -12z m253 -46 c-3
-57 -1 -63 17 -64 50 -3 50 -3 34 -19 -12 -13 -21 -14 -43 -5 -37 14 -52 13
-70 -5 -17 -17 -42 -11 -51 13 -4 11 3 24 21 38 21 18 26 28 22 53 -4 25 -1
31 13 31 10 0 21 5 24 10 3 6 13 10 22 10 12 0 14 -11 11 -62z m136 -39 c-9
-22 -21 -39 -27 -39 -5 0 -2 11 6 24 9 12 19 41 23 62 7 31 9 34 12 15 2 -13
-4 -41 -14 -62z m103 34 c-3 -10 -5 -4 -5 12 0 17 2 24 5 18 2 -7 2 -21 0 -30z
m-668 -53 c0 -15 -28 48 -28 65 0 11 6 2 14 -20 8 -22 15 -42 14 -45z m-209
-49 c0 -12 -20 -25 -27 -18 -7 7 6 27 18 27 5 0 9 -4 9 -9z m984 -17 c9 -8 16
-19 16 -24 0 -5 16 -18 35 -30 29 -18 97 -94 69 -78 -97 56 -184 112 -184 118
0 9 29 29 42 30 4 0 14 -7 22 -16z m-180 -76 c-7 -68 -19 -93 -30 -64 -7 17
21 126 32 126 3 0 2 -28 -2 -62z m-615 -40 c1 -21 -1 -38 -3 -38 -2 0 -12 -3
-21 -6 -14 -6 -16 -1 -10 32 3 22 9 50 12 64 5 23 6 24 13 5 5 -11 9 -37 9
-57z m-269 59 c0 -2 -18 -21 -40 -42 -22 -21 -40 -33 -40 -26 0 14 57 71 71
71 5 0 9 -1 9 -3z m531 -24 c1 -39 22 -104 34 -106 6 -1 15 14 22 33 10 30 12
31 12 10 1 -14 -8 -38 -19 -55 -19 -28 -20 -47 -20 -314 0 -156 -2 -282 -4
-280 -2 2 -16 104 -31 226 l-28 221 27 45 c28 49 32 77 16 107 -14 26 -29 140
-18 140 4 0 8 -12 9 -27z m81 0 c-3 -16 -7 -22 -10 -15 -4 13 4 42 11 42 2 0
2 -12 -1 -27z m-387 -130 c-11 -60 -40 -141 -83 -228 -21 -44 -47 -102 -57
-128 -19 -51 -43 -78 -32 -36 4 13 28 110 54 216 49 199 54 210 107 212 16 1
17 -4 11 -36z m590 -39 c0 -37 7 -60 26 -90 14 -21 33 -55 42 -74 22 -47 79
-211 75 -215 -2 -2 -43 74 -91 168 -74 147 -87 179 -87 220 0 41 3 48 18 45
13 -3 17 -14 17 -54z m138 -89 c13 -33 45 -109 71 -168 26 -60 46 -111 43
-113 -5 -6 -105 140 -118 172 -8 23 -39 166 -39 184 0 14 21 -23 43 -75z
m-748 -187 c-25 -76 -45 -117 -45 -92 1 28 33 142 46 162 27 42 27 15 -1 -70z"/>
<path d="M1478 2837 c-3 -19 -2 -25 4 -19 6 6 8 18 6 28 -3 14 -5 12 -10 -9z"/>
<path d="M1012 2805 c0 -16 2 -22 5 -12 2 9 2 23 0 30 -3 6 -5 -1 -5 -18z"/>
<path d="M1413 2740 c0 -25 2 -35 4 -22 2 12 2 32 0 45 -2 12 -4 2 -4 -23z"/>
<path d="M942 2720 c0 -14 2 -19 5 -12 2 6 2 18 0 25 -3 6 -5 1 -5 -13z"/>
<path d="M932 2645 c0 -16 2 -22 5 -12 2 9 2 23 0 30 -3 6 -5 -1 -5 -18z"/>
<path d="M1402 2630 c0 -19 2 -27 5 -17 2 9 2 25 0 35 -3 9 -5 1 -5 -18z"/>
<path d="M923 2555 c0 -22 2 -30 4 -17 2 12 2 30 0 40 -3 9 -5 -1 -4 -23z"/>
<path d="M1393 2525 c0 -22 2 -30 4 -17 2 12 2 30 0 40 -3 9 -5 -1 -4 -23z"/>
<path d="M913 2440 c0 -36 2 -50 4 -32 2 17 2 47 0 65 -2 17 -4 3 -4 -33z"/>
<path d="M1384 2310 c0 -52 1 -74 3 -47 2 26 2 68 0 95 -2 26 -3 4 -3 -48z"/>
</g>
</svg>
