<?xml version="1.0" standalone="no"?>
<!DOCTYPE svg PUBLIC "-//W3C//DTD SVG 20010904//EN"
 "http://www.w3.org/TR/2001/REC-SVG-20010904/DTD/svg10.dtd">
<svg version="1.0" xmlns="http://www.w3.org/2000/svg"
 width="244.000000pt" height="305.000000pt" viewBox="0 0 244.000000 305.000000"
 preserveAspectRatio="xMidYMid meet">
<metadata>
Created by potrace 1.16, written by Peter Selinger 2001-2019
</metadata>
<g transform="translate(0.000000,305.000000) scale(0.100000,-0.100000)"
fill="#000000" stroke="none">
<path d="M1526 2840 c-27 -118 -56 -332 -66 -488 -13 -194 -13 -432 0 -432 5
0 25 -13 43 -30 19 -16 38 -30 42 -30 4 0 23 14 42 30 18 17 38 30 43 30 13 0
12 212 0 425 -8 148 -47 441 -57 432 -2 -3 5 -72 16 -153 23 -171 41 -421 41
-568 l0 -101 -39 -27 c-22 -16 -41 -28 -43 -28 -3 0 -4 227 -4 505 1 278 0
505 -1 505 -1 0 -9 -32 -17 -70z"/>
<path d="M920 2894 c0 -5 -11 -63 -24 -129 -35 -174 -55 -370 -62 -621 l-7
-222 24 -12 c13 -7 36 -24 51 -37 l27 -26 45 39 45 39 0 170 c0 94 -6 242 -14
329 -15 167 -46 378 -53 358 -2 -6 2 -44 8 -84 27 -171 40 -326 46 -528 l6
-215 -37 -28 c-20 -16 -39 -26 -43 -22 -12 11 -11 875 0 928 7 35 7 52 -1 60
-6 6 -11 7 -11 1z"/>
<path d="M1107 2872 c-13 -64 -51 -978 -41 -993 3 -5 2 -9 -3 -10 -82 -6 -107
-21 -118 -70 -8 -37 -19 -37 -35 2 -37 88 -160 78 -160 -12 0 -26 3 -29 25
-23 69 17 144 -68 100 -112 -8 -9 -15 -26 -15 -39 0 -37 37 -128 70 -174 17
-22 30 -46 30 -53 0 -7 -14 -33 -31 -58 -27 -39 -30 -51 -25 -90 l6 -45 -20
24 c-15 17 -20 37 -19 70 2 67 -14 142 -32 154 -30 19 -67 0 -78 -38 -12 -46
-4 -74 59 -190 28 -52 50 -103 47 -113 -3 -12 -9 -5 -21 23 -10 22 -36 64 -58
93 -74 100 -85 159 -43 242 l25 49 -22 15 c-31 22 -91 20 -111 -2 -21 -23 -21
-62 -2 -126 8 -27 15 -71 15 -98 0 -42 -5 -54 -30 -79 -25 -25 -28 -34 -20
-55 6 -14 8 -29 6 -33 -7 -10 -326 -134 -331 -129 -2 2 74 57 170 122 96 64
177 121 180 126 3 5 -1 36 -10 69 -8 32 -15 80 -15 105 0 27 -5 46 -11 46 -8
0 -10 -27 -7 -89 l4 -89 -30 5 c-29 4 -44 -8 -206 -173 -96 -97 -166 -174
-155 -171 11 3 85 28 165 57 80 28 173 61 208 73 51 17 62 25 62 43 0 35 16
37 74 11 35 -16 60 -36 75 -60 28 -46 25 -91 -7 -95 -30 -4 -47 -33 -67 -112
-9 -36 -38 -139 -65 -230 -64 -218 -70 -242 -61 -238 9 3 159 182 289 346 73
92 80 105 72 128 -21 54 -15 64 40 64 l50 0 -5 -37 c-14 -102 -56 -496 -52
-499 2 -2 27 69 56 159 28 89 60 185 71 212 15 38 19 63 14 98 -7 52 0 58 34
27 29 -27 28 -36 -7 -76 -20 -22 -28 -41 -26 -56 8 -42 47 -252 60 -318 7 -36
23 -119 35 -185 12 -66 23 -121 25 -123 1 -2 6 14 9 35 14 80 88 462 102 531
l16 74 -31 38 c-37 46 -38 50 -8 78 32 30 37 28 30 -13 -4 -26 11 -84 63 -242
55 -164 70 -200 72 -173 2 19 -1 36 -6 38 -5 1 -8 24 -6 50 2 36 1 40 -4 17
-7 -28 -8 -25 -19 30 -7 33 -22 105 -34 160 -34 158 -35 175 -11 175 16 0 22
-8 25 -32 l4 -33 1 33 c2 32 3 32 51 32 28 0 52 -3 55 -8 2 -4 -1 -26 -7 -49
-10 -39 -9 -43 23 -84 41 -52 85 -106 177 -215 37 -44 88 -106 113 -137 25
-32 46 -53 48 -49 3 9 -102 385 -140 500 -17 55 -25 66 -54 78 -43 18 -45 46
-5 101 19 26 46 47 80 62 57 24 71 21 71 -15 0 -13 1 -24 3 -24 2 0 104 -36
227 -80 123 -44 225 -79 226 -77 2 2 -77 83 -175 181 -172 171 -180 178 -211
171 l-31 -7 7 85 c4 58 3 86 -5 91 -7 5 -11 -3 -11 -22 0 -16 -3 -63 -6 -106
l-7 -76 44 6 44 5 140 -142 c157 -159 157 -159 -80 -10 -160 100 -185 125
-185 186 0 26 8 76 17 111 16 59 16 68 2 92 -15 28 -58 39 -104 28 -35 -9 -38
-34 -9 -87 42 -76 30 -122 -71 -263 -19 -26 -38 -66 -41 -87 -4 -21 -10 -36
-15 -33 -19 11 -8 58 26 113 81 134 101 204 69 249 -20 29 -69 30 -84 2 -6
-11 -12 -57 -14 -103 -3 -60 -10 -93 -24 -116 -14 -23 -21 -28 -25 -18 -3 8
-1 19 4 24 19 19 12 72 -12 108 -13 19 -27 35 -31 35 -18 0 -6 39 28 88 61 92
81 177 48 213 -34 38 22 109 86 109 48 0 55 11 35 49 -17 34 -43 51 -75 51
-27 0 -80 -52 -80 -79 0 -30 -16 -26 -30 8 -19 46 -47 66 -91 65 -47 -2 -64
-14 -74 -57 l-8 -32 -5 30 c-3 24 3 35 28 58 l32 29 -7 91 c-4 51 -12 101 -18
112 -10 19 -10 19 -18 0 -4 -11 -8 162 -8 384 0 222 -2 405 -4 408 -10 9 -36
-491 -38 -722 l-1 -170 -14 180 c-11 162 -40 344 -63 407 -18 49 -67 -230 -76
-437 -7 -155 -19 -215 -39 -195 -8 8 -11 151 -11 480 0 259 -1 470 -1 470 -1
0 -4 -13 -7 -28z m173 -597 c7 -57 8 -145 3 -240 -6 -118 -9 -138 -14 -95 -3
31 -6 -23 -7 -127 -1 -109 -6 -184 -12 -188 -12 -7 -14 792 -3 822 8 20 15
-14 33 -172z m37 -307 c-3 -8 -6 -5 -6 6 -1 11 2 17 5 13 3 -3 4 -12 1 -19z
m-166 -91 c-8 -8 -11 -4 -11 14 0 33 14 47 18 19 2 -12 -1 -27 -7 -33z m176 1
c-3 -7 -5 -2 -5 12 0 14 2 19 5 13 2 -7 2 -19 0 -25z m-207 -62 c0 -35 -9 -28
-25 18 -11 32 -11 34 6 23 12 -7 19 -23 19 -41z m176 -21 c0 -41 -4 -75 -8
-75 -10 0 -11 134 -1 143 3 4 7 7 8 7 1 0 1 -34 1 -75z m-212 -50 c3 -8 -2
-11 -15 -8 -16 4 -19 0 -19 -24 0 -17 9 -40 20 -53 22 -26 26 -61 9 -91 -8
-16 -7 -25 5 -38 9 -10 16 -28 16 -42 -1 -22 -5 -19 -45 26 -26 30 -49 68 -56
95 -7 25 -18 53 -25 63 -27 40 21 97 75 89 16 -2 32 -10 35 -17z m401 0 c28
-27 32 -57 10 -75 -8 -7 -15 -21 -15 -32 0 -28 -33 -87 -74 -133 -35 -40 -35
-40 -36 -13 0 15 7 34 15 42 12 12 13 20 5 35 -15 29 -12 81 4 87 13 5 36 54
36 77 0 5 -12 6 -26 3 -31 -8 -24 11 10 24 34 14 45 12 71 -15z m-309 -135
c29 -11 31 -26 4 -33 -26 -7 -38 10 -40 58 -3 58 3 78 7 27 3 -35 9 -45 29
-52z m157 32 c-7 -56 -17 -72 -43 -65 -27 7 -25 22 5 33 21 8 25 16 25 50 0
24 4 39 10 35 5 -3 7 -26 3 -53z m-33 -8 c0 -2 -7 -4 -15 -4 -10 0 -15 10 -15
33 l0 32 15 -29 c8 -15 15 -30 15 -32z m-360 -24 c0 -6 9 -30 20 -52 21 -44
27 -83 10 -73 -28 17 -63 135 -41 135 6 0 11 -5 11 -10z m417 -12 c-3 -8 -6
-5 -6 6 -1 11 2 17 5 13 3 -3 4 -12 1 -19z m179 -52 c-9 -22 -25 -52 -36 -66
l-20 -25 0 23 c0 33 63 152 68 128 2 -10 -3 -37 -12 -60z m-291 -23 c-3 -8 -5
-24 -6 -36 -1 -20 -2 -20 -9 3 -12 38 -11 47 5 47 10 0 14 -6 10 -14z m-85
-77 c11 -33 18 -61 16 -63 -5 -6 -44 81 -53 116 -11 47 15 9 37 -53z m186 51
c-9 -38 -47 -119 -53 -114 -4 5 30 107 43 129 10 16 16 7 10 -15z m-296 -61
c0 -8 -4 -18 -10 -21 -5 -3 -10 3 -10 14 0 12 5 21 10 21 6 0 10 -6 10 -14z
m390 -12 c0 -8 -4 -14 -10 -14 -5 0 -10 9 -10 21 0 11 5 17 10 14 6 -3 10 -13
10 -21z m-336 -20 c16 -6 23 -44 8 -44 -12 0 -32 23 -32 37 0 15 2 15 24 7z
m267 -37 c-8 -8 -14 -8 -22 0 -7 7 -5 16 8 28 17 18 18 18 21 1 2 -10 -1 -23
-7 -29z m-313 -105 c7 -30 12 -61 11 -70 -1 -22 -39 97 -39 123 0 33 16 3 28
-53z m268 30 c-9 -9 -37 8 -31 18 5 8 11 7 21 -1 8 -6 12 -14 10 -17z m98 -34
c-13 -53 -34 -100 -34 -75 0 23 34 137 40 137 5 0 2 -28 -6 -62z m-249 42 c-3
-5 -10 -10 -16 -10 -5 0 -9 5 -9 10 0 6 7 10 16 10 8 0 12 -4 9 -10z m-55
-104 c8 -8 15 -6 25 8 16 21 45 15 45 -8 0 -16 -57 -49 -71 -40 -15 9 -38 102
-31 126 5 18 8 13 13 -26 4 -27 13 -54 19 -60z m256 29 c-9 -55 -30 -85 -47
-67 -7 6 -21 12 -31 12 -11 0 -18 7 -18 20 0 27 28 37 44 15 11 -15 13 -15 25
-1 7 8 16 35 19 58 3 24 8 35 10 24 2 -10 1 -37 -2 -61z m174 -44 c0 -28 -21
-37 -36 -16 -16 22 -10 35 17 35 12 0 19 -7 19 -19z m-575 -31 c-3 -6 -10 -10
-16 -10 -10 0 -12 33 -2 44 9 9 26 -22 18 -34z m635 -119 c0 -11 -4 -10 -15 5
-8 10 -14 26 -14 34 0 11 3 10 14 -4 8 -11 15 -27 15 -35z m-721 12 c-1 -10 0
-25 4 -33 3 -8 8 -48 11 -89 6 -86 16 -67 -153 -279 -106 -134 -149 -175 -103
-100 11 18 68 129 127 246 73 146 104 218 100 232 -3 11 -3 24 0 30 10 15 16
12 14 -7z m731 -58 c14 -13 43 -31 65 -38 45 -16 43 -11 117 -266 27 -96 52
-181 55 -190 13 -38 -29 34 -107 184 -45 88 -90 171 -100 185 -10 14 -29 48
-44 77 -38 77 -34 94 14 48z m-370 -51 c0 -7 -4 -16 -10 -19 -5 -3 -10 -4 -10
-1 0 2 -2 11 -5 19 -4 8 0 14 10 14 8 0 15 -6 15 -13z m-200 -267 c-28 -88
-53 -164 -57 -167 -3 -3 -3 4 0 15 13 44 77 363 77 381 0 11 6 26 13 33 10 10
13 1 15 -44 2 -45 -7 -88 -48 -218z m221 73 l7 -95 -2 95 c-1 52 -6 104 -10
115 -4 11 8 2 28 -20 45 -50 45 -62 1 -270 -30 -147 -33 -156 -36 -105 l-3 55
-6 -70 c-4 -41 -7 34 -8 185 0 193 2 249 10 230 6 -14 15 -68 19 -120z"/>
<path d="M1254 2305 c0 -49 1 -71 3 -48 2 23 2 64 0 90 -2 26 -3 8 -3 -42z"/>
<path d="M1263 585 c0 -33 2 -45 4 -27 2 18 2 45 0 60 -2 15 -4 0 -4 -33z"/>
<path d="M1122 2745 c0 -16 2 -22 5 -12 2 9 2 23 0 30 -3 6 -5 -1 -5 -18z"/>
<path d="M1373 2655 c0 -22 2 -30 4 -17 2 12 2 30 0 40 -3 9 -5 -1 -4 -23z"/>
<path d="M1133 2580 c0 -25 2 -35 4 -22 2 12 2 32 0 45 -2 12 -4 2 -4 -23z"/>
<path d="M1383 2435 c0 -38 2 -53 4 -32 2 20 2 52 0 70 -2 17 -4 1 -4 -38z"/>
<path d="M1144 2180 c0 -113 2 -159 3 -102 2 56 2 148 0 205 -1 56 -3 10 -3
-103z"/>
<path d="M1443 835 c0 -22 2 -30 4 -17 2 12 2 30 0 40 -3 9 -5 -1 -4 -23z"/>
<path d="M1453 750 c0 -25 2 -35 4 -22 2 12 2 32 0 45 -2 12 -4 2 -4 -23z"/>
<path d="M1462 650 c0 -19 2 -27 5 -17 2 9 2 25 0 35 -3 9 -5 1 -5 -18z"/>
</g>
</svg>
