<?xml version="1.0" standalone="no"?>
<!DOCTYPE svg PUBLIC "-//W3C//DTD SVG 20010904//EN"
 "http://www.w3.org/TR/2001/REC-SVG-20010904/DTD/svg10.dtd">
<svg version="1.0" xmlns="http://www.w3.org/2000/svg"
 width="244.000000pt" height="305.000000pt" viewBox="0 0 244.000000 305.000000"
 preserveAspectRatio="xMidYMid meet">
<metadata>
Created by potrace 1.16, written by Peter Selinger 2001-2019
</metadata>
<g transform="translate(0.000000,305.000000) scale(0.100000,-0.100000)"
fill="#000000" stroke="none">
<path d="M1555 2896 c-5 -11 -4 -26 3 -36 7 -12 11 -167 12 -489 1 -501 1
-501 -45 -451 -10 11 -24 20 -32 20 -16 0 -15 -8 -14 175 3 247 26 491 67 700
4 17 4 27 0 24 -8 -8 -42 -188 -55 -294 -17 -131 -28 -319 -30 -481 l-2 -141
30 -13 c16 -6 37 -20 47 -31 22 -24 32 -24 60 2 13 12 34 27 46 33 23 12 23
14 20 176 -5 295 -31 550 -77 735 -16 67 -24 85 -30 71z"/>
<path d="M900 2888 c0 -9 -3 -24 -7 -34 -4 -12 -3 -15 5 -10 9 5 12 -108 12
-468 0 -262 -2 -476 -5 -476 -3 0 -24 12 -47 27 l-41 28 6 205 c7 226 18 343
48 529 10 68 17 126 15 128 -5 5 -11 -22 -30 -137 -27 -153 -45 -362 -50 -562
-4 -190 -4 -197 16 -203 10 -4 34 -20 52 -36 l33 -29 34 30 c19 16 42 32 52
36 14 5 17 19 17 97 0 125 -18 423 -31 527 -16 123 -59 343 -70 355 -6 5 -9 3
-9 -7z"/>
<path d="M1162 2880 c0 -14 2 -19 5 -12 2 6 2 18 0 25 -3 6 -5 1 -5 -13z"/>
<path d="M1301 2800 c-2 -36 -3 -162 -3 -280 0 -153 -3 -196 -8 -150 -8 62
-44 217 -54 227 -5 5 -8 -5 -33 -107 l-18 -75 -5 165 -6 165 -2 -195 c-1 -107
-5 -260 -10 -340 -6 -119 -8 -135 -13 -90 -4 31 -6 -11 -5 -98 1 -83 -1 -149
-6 -144 -4 4 -14 52 -23 107 -9 54 -20 106 -25 114 -14 26 -30 -29 -37 -129
-5 -82 -4 -89 15 -99 38 -20 52 -42 52 -80 0 -20 -6 -46 -14 -56 -12 -17 -17
-18 -40 -7 -15 7 -29 12 -31 12 -10 0 -4 -32 10 -60 19 -37 47 -39 73 -5 11
14 23 25 26 25 3 0 6 -26 6 -58 0 -58 0 -59 -30 -59 -16 0 -39 -8 -51 -19
l-21 -19 23 -5 c25 -6 35 -30 25 -57 -6 -13 -14 -9 -46 22 -44 43 -70 91 -70
129 0 15 -8 30 -20 36 -26 14 -25 33 4 67 20 23 32 28 72 28 42 1 49 4 52 22
5 35 -38 75 -81 75 -44 0 -65 -15 -84 -61 -16 -37 -17 -37 -42 11 -43 79 -171
59 -159 -25 3 -19 8 -22 41 -19 32 3 43 -2 72 -31 38 -38 43 -58 20 -77 -36
-30 -7 -137 62 -229 34 -45 33 -69 -2 -88 -8 -5 -21 -24 -29 -44 -19 -47 -4
-78 47 -98 34 -13 40 -12 54 2 13 13 14 20 4 45 -16 38 -11 87 9 86 8 0 34 -6
58 -14 40 -12 42 -15 42 -51 0 -66 -31 -118 -43 -71 -4 13 -5 14 -6 1 0 -8
-24 -26 -52 -38 -62 -28 -85 -21 -125 39 -22 33 -27 53 -30 120 -3 95 -9 117
-35 130 -14 8 -27 7 -48 -5 -62 -32 -54 -86 40 -248 94 -164 94 -155 -30 -376
-158 -281 -176 -311 -184 -311 -5 0 -6 6 -4 13 5 12 16 45 96 297 l36 115 45
16 c36 13 47 23 57 50 26 73 8 133 -65 226 -78 98 -89 156 -42 229 28 45 29
49 13 66 -21 24 -105 25 -128 1 -19 -18 -17 -67 6 -160 10 -40 10 -60 1 -91
-13 -44 -42 -65 -237 -177 -55 -32 -115 -67 -134 -78 -52 -31 -33 -10 118 132
136 127 140 130 171 121 53 -15 52 -21 34 159 -9 89 -25 38 -18 -56 l6 -83
-30 6 c-27 6 -40 -3 -143 -99 -222 -205 -264 -247 -249 -246 8 0 116 35 240
77 219 75 225 78 228 105 3 25 7 28 27 23 71 -18 130 -61 150 -110 16 -38 5
-61 -33 -69 -22 -4 -31 -14 -41 -44 -67 -210 -161 -526 -157 -530 2 -2 31 29
66 69 35 40 69 78 75 83 7 6 67 73 134 150 82 95 119 145 115 155 -4 8 -9 30
-12 47 l-4 33 81 0 c125 0 175 -33 149 -99 -10 -25 -11 -25 -19 -6 -6 13 -8
-24 -5 -100 2 -71 1 -104 -4 -80 -5 26 -6 14 -3 -38 4 -52 2 -77 -6 -77 -7 0
-11 -22 -10 -57 1 -65 -1 -71 30 75 6 30 12 52 14 50 2 -2 25 -107 51 -233 25
-127 47 -231 48 -232 2 -3 95 452 97 472 0 6 5 1 10 -10 6 -14 7 -5 4 30 -4
46 -4 47 5 15 5 -19 7 -52 4 -72 -4 -26 -2 -38 6 -38 13 0 12 25 -6 290 -6 86
-6 86 20 98 29 13 182 17 189 4 3 -4 -1 -25 -8 -46 -8 -22 -11 -45 -7 -52 11
-18 371 -422 383 -430 13 -7 14 -14 -36 151 -128 424 -129 425 -165 425 -52 0
-39 72 21 123 22 19 58 39 80 45 39 10 41 9 51 -19 5 -16 11 -29 11 -29 1 0
97 -32 212 -71 116 -39 224 -75 240 -80 25 -7 16 5 -55 74 -47 45 -134 126
-193 181 -98 89 -111 98 -138 92 l-30 -6 7 84 c4 51 3 86 -3 89 -6 4 -13 -19
-16 -57 -3 -35 -13 -82 -23 -105 -12 -31 -14 -45 -5 -55 6 -8 82 -57 169 -110
154 -94 239 -155 197 -141 -82 28 -318 116 -334 124 -17 10 -18 14 -8 42 10
26 9 33 -2 37 -54 18 -66 93 -31 204 25 80 25 90 -3 116 -38 36 -137 25 -137
-14 0 -8 11 -32 25 -52 43 -63 30 -128 -45 -223 -102 -129 -115 -210 -55 -330
38 -74 169 -314 208 -378 36 -60 2 -29 -94 85 -52 61 -114 134 -139 163 -62
74 -63 77 -51 127 6 24 9 55 5 68 -13 52 14 133 82 246 77 129 91 183 55 219
-15 15 -32 21 -53 19 -30 -3 -32 -6 -45 -68 -7 -36 -11 -78 -8 -94 7 -38 -35
-110 -76 -132 -29 -14 -34 -14 -84 7 -49 20 -53 25 -59 63 -4 23 -9 51 -12 63
-5 18 1 25 30 37 59 24 69 14 61 -60 -6 -57 -5 -63 14 -69 14 -4 34 1 56 15
48 30 48 72 0 130 -19 23 -35 44 -35 46 0 3 18 29 40 58 65 85 88 179 54 217
-19 22 -12 48 23 83 20 20 36 26 69 26 42 0 44 2 44 28 0 39 -33 67 -80 67
-44 0 -68 -18 -87 -62 -7 -18 -15 -33 -18 -33 -3 0 -11 15 -18 33 -19 43 -40
59 -81 60 -45 1 -86 -35 -86 -75 0 -29 1 -29 45 -23 40 7 47 4 75 -23 35 -36
37 -46 10 -69 -11 -10 -20 -28 -20 -41 0 -31 -24 -75 -67 -123 -43 -47 -53
-49 -53 -8 0 22 5 32 20 36 40 11 12 43 -37 43 l-33 0 0 60 c0 33 2 60 5 60 3
0 16 -12 29 -26 16 -19 28 -25 43 -20 20 6 43 44 43 71 0 17 -26 20 -35 5 -3
-5 -14 -10 -24 -10 -21 0 -31 26 -31 81 0 30 6 41 35 63 27 21 35 34 35 58 0
32 -18 152 -26 178 -10 28 -23 -13 -39 -121 -9 -57 -20 -108 -25 -113 -7 -7
-10 121 -11 354 -1 354 -13 717 -18 580z m-76 -722 c0 -292 -4 -452 -10 -454
-5 -2 -16 0 -24 5 -18 12 -20 113 -3 134 17 20 12 103 -5 99 -16 -3 -16 9 -1
45 l11 28 8 -45 c11 -68 11 -178 -1 -160 -7 12 -10 8 -10 -15 0 -16 4 -36 9
-43 17 -27 21 53 14 247 -7 174 -9 186 -14 106 -4 -68 -6 -44 -7 100 -2 135 3
221 14 298 9 59 17 107 18 107 1 0 1 -203 1 -452z m-296 -490 c18 -52 58 -103
117 -149 56 -45 69 -71 34 -66 -59 9 -180 161 -180 225 0 32 16 27 29 -10z
m641 12 c0 -27 -42 -109 -76 -150 -24 -28 -94 -80 -109 -80 -3 0 -5 8 -5 18 1
9 27 40 60 67 40 34 68 68 87 107 29 60 43 72 43 38z m-370 -27 c0 -22 -2 -25
-10 -13 -13 20 -13 40 0 40 6 0 10 -12 10 -27z m84 0 c-10 -40 -14 -41 -14 -5
0 18 5 32 10 32 6 0 8 -11 4 -27z m-47 -90 c-3 -10 -5 -4 -5 12 0 17 2 24 5
18 2 -7 2 -21 0 -30z m-82 10 c13 -35 18 -153 6 -153 -7 0 -11 21 -11 56 0 48
-2 55 -16 50 -12 -5 -15 -2 -10 10 3 8 6 24 6 35 0 24 16 25 25 2z m176 -41
c-6 -2 -11 -26 -11 -52 0 -27 -5 -52 -11 -56 -17 -10 -5 131 12 153 13 15 14
14 17 -13 2 -15 -1 -30 -7 -32z m36 -199 c-3 -10 -5 -2 -5 17 0 19 2 27 5 18
2 -10 2 -26 0 -35z m22 -68 c0 -5 -4 -3 -9 5 -5 8 -9 22 -9 30 0 16 17 -16 18
-35z m-206 12 c7 4 8 0 4 -11 -4 -10 -7 -20 -7 -22 0 -2 -4 -4 -10 -4 -5 0
-10 12 -9 28 0 15 3 21 6 14 2 -6 10 -9 16 -5z m122 -25 c-5 -14 -7 -14 -15
-2 -5 9 -4 20 3 28 14 17 22 0 12 -26z m56 -95 c-6 -6 -14 -8 -18 -4 -4 4 -1
13 5 19 7 7 13 26 14 43 1 25 2 24 5 -9 3 -21 0 -43 -6 -49z m-240 19 c5 -6 9
-16 9 -24 0 -12 -3 -12 -15 -2 -8 7 -14 27 -14 44 1 21 3 24 6 11 3 -11 9 -24
14 -29z m116 -178 c-3 -8 -6 -5 -6 6 -1 11 2 17 5 13 3 -3 4 -12 1 -19z m-12
-59 c6 -19 4 -551 -2 -545 -2 1 -12 49 -23 107 -11 57 -27 139 -36 181 -21 93
-13 196 17 245 24 38 35 41 44 12z m105 -6 c0 -22 -2 -25 -10 -13 -13 20 -13
40 0 40 6 0 10 -12 10 -27z"/>
<path d="M1213 640 c0 -36 2 -50 4 -32 2 17 2 47 0 65 -2 17 -4 3 -4 -33z"/>
<path d="M1153 2640 c0 -25 2 -35 4 -22 2 12 2 32 0 45 -2 12 -4 2 -4 -23z"/>
<path d="M1070 1286 c0 -9 5 -16 10 -16 6 0 10 4 10 9 0 6 -4 13 -10 16 -5 3
-10 -1 -10 -9z"/>
<path d="M1061 1244 c0 -11 3 -14 6 -6 3 7 2 16 -1 19 -3 4 -6 -2 -5 -13z"/>
<path d="M1367 480 c3 -25 7 -47 9 -49 8 -9 2 55 -6 74 -6 13 -7 5 -3 -25z"/>
</g>
</svg>
