<?xml version="1.0" standalone="no"?>
<!DOCTYPE svg PUBLIC "-//W3C//DTD SVG 20010904//EN"
 "http://www.w3.org/TR/2001/REC-SVG-20010904/DTD/svg10.dtd">
<svg version="1.0" xmlns="http://www.w3.org/2000/svg"
 width="244.000000pt" height="305.000000pt" viewBox="0 0 244.000000 305.000000"
 preserveAspectRatio="xMidYMid meet">
<metadata>
Created by potrace 1.16, written by Peter Selinger 2001-2019
</metadata>
<g transform="translate(0.000000,305.000000) scale(0.100000,-0.100000)"
fill="#000000" stroke="none">
<path d="M1527 2896 c-10 -26 -9 -48 3 -41 7 4 10 -157 10 -474 0 -303 -4
-481 -10 -481 -5 0 -25 15 -45 32 l-35 33 0 92 c0 50 5 95 10 98 6 4 10 71 10
168 0 89 7 207 15 262 8 55 14 111 14 125 -1 32 -27 -103 -29 -150 -1 -28 -3
-31 -9 -15 -4 11 -11 -126 -15 -305 -4 -179 -12 -329 -17 -335 -5 -5 -9 4 -9
25 0 19 0 244 0 499 -1 255 -2 462 -5 460 -10 -10 -36 -323 -45 -529 -12 -281
-19 -370 -30 -370 -5 0 -10 24 -12 53 -2 31 -7 51 -14 50 -7 -1 -13 41 -17
125 -6 141 -49 393 -64 379 -19 -20 -63 -299 -63 -401 0 -53 -4 -79 -15 -90
-9 -8 -15 -33 -15 -58 0 -24 -4 -49 -9 -56 -9 -15 -20 69 -23 172 l-1 61 -8
-60 c-14 -118 -36 -245 -43 -252 -3 -4 -5 214 -4 485 2 270 0 488 -4 484 -4
-4 -14 -76 -22 -161 -8 -84 -17 -155 -20 -158 -2 -3 -7 10 -10 28 -3 19 -13
81 -22 139 -15 97 -42 194 -43 160 -1 -8 -4 -26 -8 -39 -4 -17 -3 -22 5 -17 9
5 12 -108 12 -457 0 -255 -3 -466 -6 -470 -3 -3 -21 4 -40 16 l-34 22 -1 195
-2 195 -9 -205 c-7 -185 -6 -206 8 -215 9 -5 29 -20 44 -32 35 -28 52 -29 68
-2 14 22 52 23 60 2 2 -9 -7 -13 -27 -13 -33 0 -49 -20 -61 -75 l-7 -30 -15
37 c-37 84 -148 77 -148 -10 0 -30 1 -31 35 -25 30 5 39 1 65 -27 33 -35 39
-70 15 -90 -12 -10 -14 -24 -9 -56 9 -64 -13 -131 -46 -139 -58 -15 -73 -56
-48 -137 8 -29 9 -41 0 -50 -9 -9 -16 -2 -28 27 -28 69 -28 97 1 154 25 50 25
54 9 72 -23 25 -85 26 -107 1 -21 -23 -22 -76 -2 -132 19 -54 19 -103 1 -139
-15 -29 -81 -75 -329 -234 -48 -30 -27 -4 102 128 l123 127 41 -6 40 -7 -6 68
c-4 37 -7 85 -7 106 0 21 -5 37 -11 37 -9 0 -10 -25 -6 -91 l7 -91 -28 6 c-25
6 -42 -9 -197 -163 -93 -94 -166 -173 -163 -176 3 -3 34 5 69 19 35 13 129 49
209 78 135 50 145 56 148 81 3 28 9 31 36 21 24 -9 20 -24 -34 -114 -28 -46
-49 -87 -48 -91 2 -4 44 17 93 47 50 29 95 53 102 54 17 0 27 -39 13 -54 -6
-8 -21 -17 -34 -20 -21 -5 -30 -31 -94 -258 -77 -270 -92 -337 -71 -304 6 11
22 31 34 45 45 52 132 158 184 224 29 37 56 65 60 62 5 -2 -3 -64 -16 -137
-43 -247 -45 -247 77 1 102 207 110 229 108 275 -3 51 -3 51 26 49 28 -2 86
-47 86 -66 0 -5 -11 -22 -25 -39 -29 -34 -30 -54 -10 -157 8 -42 33 -177 56
-301 23 -124 42 -226 44 -228 2 -2 8 28 14 65 7 37 30 167 52 288 57 310 57
298 25 330 -14 14 -26 32 -26 39 0 22 68 76 95 76 24 0 25 -2 19 -53 -5 -50
-2 -59 76 -217 106 -215 124 -250 128 -245 2 1 -6 63 -18 136 -26 166 -30 183
-36 176 -3 -2 2 -45 10 -93 17 -92 19 -121 11 -113 -5 6 -125 390 -125 401 0
14 60 9 61 -4 1 -7 1 -29 0 -48 -2 -38 35 -134 48 -125 5 2 75 -78 157 -180
81 -102 149 -183 150 -182 3 3 -2 24 -90 347 -56 203 -73 240 -111 240 -15 0
-27 51 -14 64 9 10 71 -17 141 -61 48 -30 52 -29 33 7 -9 17 -24 30 -34 30
-22 0 -94 76 -86 90 12 20 31 9 53 -31 30 -53 40 -44 12 11 -12 23 -20 43 -18
43 2 1 13 8 26 15 28 16 42 8 42 -24 0 -14 6 -26 13 -29 6 -2 68 -25 137 -50
69 -26 151 -56 182 -66 32 -10 67 -23 79 -29 53 -29 20 12 -142 175 -162 164
-176 176 -204 170 l-30 -5 2 98 2 97 -14 -80 c-7 -44 -16 -98 -20 -120 l-7
-40 153 -106 c85 -59 167 -114 182 -124 15 -10 26 -20 23 -22 -5 -5 -173 59
-279 106 -65 29 -67 31 -55 56 10 22 8 29 -15 53 -39 41 -43 88 -16 191 22 85
22 90 6 115 -14 21 -25 26 -56 26 -22 0 -48 -8 -60 -17 l-21 -18 25 -47 c30
-56 32 -107 5 -165 -23 -52 -45 -58 -36 -10 19 93 18 132 -1 149 -10 10 -33
18 -50 20 -28 2 -32 6 -37 41 -4 22 -4 66 0 98 5 49 4 60 -10 65 -9 4 -16 18
-16 34 0 41 50 80 101 80 35 0 39 3 39 25 0 32 -41 75 -72 75 -34 0 -68 -27
-85 -69 l-15 -36 -17 45 c-13 36 -23 47 -49 55 -35 10 -39 17 -18 34 11 10 21
6 49 -18 l34 -31 26 28 c14 15 35 34 48 42 l22 16 -12 273 c-8 189 -19 324
-36 440 -30 197 -48 274 -58 247z m-337 -826 c-4 -124 -8 -196 -10 -160 -6 98
6 399 14 388 2 -2 0 -104 -4 -228z m-105 -200 c3 -5 -1 -10 -10 -10 -9 0 -13
5 -10 10 3 6 8 10 10 10 2 0 7 -4 10 -10z m311 -17 c-10 -10 -19 5 -10 18 6
11 8 11 12 0 2 -7 1 -15 -2 -18z m-266 -91 c0 -5 -6 -17 -14 -28 -11 -14 -18
-16 -26 -8 -8 8 -7 15 5 28 18 17 35 21 35 8z m250 -36 c-13 -13 -45 17 -35
34 5 8 12 6 26 -6 13 -12 16 -21 9 -28z m-350 -36 c0 -14 -4 -30 -9 -35 -5 -6
-11 -19 -14 -30 -4 -16 -5 -14 -6 6 0 15 -8 32 -16 39 -20 16 -19 39 2 62 16
18 18 18 30 2 7 -10 13 -30 13 -44z m464 27 c7 -20 6 -31 -7 -45 -9 -10 -17
-27 -17 -38 -1 -16 -3 -15 -15 6 -17 30 -19 64 -4 91 13 26 31 20 43 -14z
m-304 -47 c0 -16 -4 -30 -10 -30 -11 0 -14 43 -3 53 11 12 13 8 13 -23z m-35
-37 c5 -12 17 -24 27 -26 10 -3 25 -21 33 -41 9 -20 17 -36 20 -36 3 0 11 16
20 36 8 20 24 38 35 41 11 3 20 11 20 18 0 20 27 37 50 30 12 -4 20 -15 20
-28 0 -33 -12 -44 -45 -42 -45 3 -62 -10 -83 -67 l-20 -53 -11 43 c-17 61 -41
82 -85 75 -32 -5 -36 -3 -42 21 -12 50 40 76 61 29z m-200 -40 c3 -15 31 -62
61 -105 64 -90 67 -123 6 -57 -45 48 -92 133 -92 167 0 31 17 27 25 -5z m134
-81 c7 -13 10 -28 8 -35 -8 -20 -47 76 -46 113 l1 35 12 -45 c7 -25 18 -55 25
-68z m310 1 c-11 -26 -23 -43 -26 -36 -2 6 3 25 11 42 9 16 16 39 16 50 0 11
3 28 8 38 5 14 8 11 10 -14 2 -18 -6 -53 -19 -80z m141 86 c0 -35 -47 -122
-92 -168 -23 -25 -43 -40 -45 -34 -6 16 9 41 50 91 19 23 43 61 53 86 20 49
34 59 34 25z m-380 -109 c17 -41 6 -50 -14 -11 -18 35 -19 41 -7 41 5 0 14
-14 21 -30z m180 25 c0 -12 -24 -55 -32 -55 -11 0 -10 4 4 35 9 21 28 35 28
20z m-390 -115 c0 -34 -9 -60 -21 -60 -10 0 -12 44 -3 77 8 30 24 19 24 -17z
m590 -15 c0 -25 -4 -45 -10 -45 -5 0 -10 20 -10 45 0 25 5 45 10 45 6 0 10
-20 10 -45z m55 -22 c-10 -40 -17 -20 -9 23 5 24 9 32 12 21 2 -10 1 -30 -3
-44z m-415 12 c0 -8 -4 -15 -9 -15 -13 0 -22 16 -14 24 11 11 23 6 23 -9z
m138 3 c-6 -18 -28 -21 -28 -4 0 9 7 16 16 16 9 0 14 -5 12 -12z m-281 -80
c-6 -48 8 -94 30 -102 27 -11 35 5 28 50 -8 55 -4 62 35 56 29 -4 30 -5 14
-23 -21 -23 -12 -46 21 -59 17 -7 25 -17 25 -34 0 -25 -25 -43 -35 -26 -4 6
-25 10 -49 10 -23 0 -50 6 -59 13 -26 19 -37 157 -11 157 3 0 4 -19 1 -42z
m410 -34 c-4 -37 -12 -73 -18 -80 -7 -9 -32 -14 -65 -14 -33 0 -54 -4 -54 -11
0 -8 -5 -7 -15 1 -22 19 -15 54 12 58 26 4 36 27 23 52 -8 15 -6 21 10 30 32
17 42 3 35 -50 -7 -54 2 -66 33 -44 18 12 22 25 22 70 0 34 4 54 11 54 9 0 10
-20 6 -66z m223 -36 c0 -7 -7 -21 -14 -31 -19 -24 -31 -4 -14 23 14 22 28 26
28 8z m-833 -50 c-3 -8 -6 -5 -6 6 -1 11 2 17 5 13 3 -3 4 -12 1 -19z m161
-19 c-3 -8 -7 -3 -11 10 -4 17 -3 21 5 13 5 -5 8 -16 6 -23z m482 16 c0 -8 -4
-15 -10 -15 -5 0 -7 7 -4 15 4 8 8 15 10 15 2 0 4 -7 4 -15z m-581 -140 c0
-53 1 -53 -113 -270 -38 -71 -84 -160 -104 -198 -19 -37 -36 -66 -38 -65 -2 3
27 108 102 376 13 48 19 55 59 72 48 21 51 26 61 125 7 68 7 69 20 40 7 -16
13 -52 13 -80z m-120 62 c8 -11 5 -18 -12 -33 -32 -29 -108 -76 -113 -71 -6 6
95 117 106 117 4 0 13 -6 19 -13z m816 -55 l-7 -67 121 -243 c66 -133 117
-242 113 -241 -12 0 -257 327 -262 349 -7 28 5 244 14 259 4 6 12 11 18 11 6
0 8 -23 3 -68z m-361 -102 c3 0 12 12 20 28 8 15 15 21 16 14 0 -14 -28 -72
-35 -72 -8 0 -35 59 -35 77 1 11 6 5 15 -14 8 -18 16 -33 19 -33z m-199 -49
c6 -44 2 -58 -40 -147 -25 -54 -60 -129 -77 -167 -17 -37 -33 -65 -35 -63 -3
2 23 94 56 203 34 109 61 204 61 211 0 6 6 12 14 12 9 0 16 -17 21 -49z m136
-79 c-8 -14 -7 -55 4 -144 20 -166 17 -174 -11 -38 -28 140 -29 155 -6 185 20
27 28 25 13 -3z"/>
<path d="M1511 2814 c0 -11 3 -14 6 -6 3 7 2 16 -1 19 -3 4 -6 -2 -5 -13z"/>
<path d="M1502 2760 c0 -14 2 -19 5 -12 2 6 2 18 0 25 -3 6 -5 1 -5 -13z"/>
<path d="M886 2643 c-10 -65 -19 -158 -21 -208 -1 -49 -1 -72 1 -50 2 22 13
114 25 203 11 90 19 166 16 168 -2 2 -12 -49 -21 -113z"/>
<path d="M1072 2700 c0 -19 2 -27 5 -17 2 9 2 25 0 35 -3 9 -5 1 -5 -18z"/>
<path d="M1081 2584 c0 -11 3 -14 6 -6 3 7 2 16 -1 19 -3 4 -6 -2 -5 -13z"/>
<path d="M1093 2415 c0 -33 2 -45 4 -27 2 18 2 45 0 60 -2 15 -4 0 -4 -33z"/>
</g>
</svg>
