<?xml version="1.0" standalone="no"?>
<!DOCTYPE svg PUBLIC "-//W3C//DTD SVG 20010904//EN"
 "http://www.w3.org/TR/2001/REC-SVG-20010904/DTD/svg10.dtd">
<svg version="1.0" xmlns="http://www.w3.org/2000/svg"
 width="244.000000pt" height="305.000000pt" viewBox="0 0 244.000000 305.000000"
 preserveAspectRatio="xMidYMid meet">
<metadata>
Created by potrace 1.16, written by Peter Selinger 2001-2019
</metadata>
<g transform="translate(0.000000,305.000000) scale(0.100000,-0.100000)"
fill="#000000" stroke="none">
<path d="M1471 2907 c-1 -11 -6 -15 -13 -11 -8 5 -9 -2 -4 -26 3 -19 3 -56 -1
-84 -6 -44 -8 -47 -14 -26 -7 21 -8 18 -7 -15 0 -22 -2 -47 -5 -55 -14 -33
-28 -239 -34 -493 l-6 -268 33 -34 c19 -19 30 -38 27 -42 -4 -4 -13 -1 -19 5
-33 33 -85 0 -90 -58 -3 -32 -1 -35 27 -38 42 -5 68 -31 61 -62 -22 -109 -30
-134 -52 -174 -14 -25 -37 -54 -50 -65 -28 -22 -45 -81 -22 -81 17 0 84 69
123 125 20 29 25 33 20 15 -15 -51 -71 -121 -119 -151 l-49 -31 5 64 c7 80 23
114 59 127 16 5 29 14 29 20 0 12 -40 41 -57 41 -20 0 -49 -38 -63 -83 l-12
-42 -20 53 c-24 65 -54 84 -93 58 -33 -22 -32 -33 9 -50 27 -11 35 -22 45 -59
6 -25 11 -64 11 -86 l0 -40 -45 26 c-48 27 -93 84 -121 152 -23 59 -12 61 14
3 24 -54 103 -142 127 -142 27 0 16 37 -26 86 -47 57 -78 118 -79 155 0 15 -7
39 -14 55 -13 24 -13 31 1 55 13 21 26 29 52 31 34 3 36 5 32 33 -5 43 -18 64
-47 71 -27 7 -59 -15 -69 -47 -7 -22 -25 -26 -25 -6 0 22 -36 57 -58 57 -35 0
-52 -11 -68 -46 -21 -44 -13 -64 25 -64 55 0 93 -62 65 -105 -22 -34 -13 -93
31 -184 19 -40 35 -79 35 -87 0 -8 -11 -31 -24 -50 l-23 -35 -7 32 c-3 17 -6
48 -6 68 0 61 -40 81 -82 39 -19 -19 -21 -19 -14 -2 34 83 30 96 -31 109 -27
5 -37 2 -58 -19 -23 -23 -25 -34 -27 -113 l-2 -88 -5 70 c-4 44 -9 65 -14 57
-5 -7 -6 -44 -2 -83 7 -69 7 -69 -18 -69 -24 0 -58 -34 -123 -121 -16 -23
-134 -176 -167 -217 -8 -11 -5 -12 18 -6 20 5 26 4 21 -5 -11 -17 -8 -15 113
44 62 30 129 62 149 70 46 20 72 43 72 66 0 15 4 17 22 10 34 -12 78 -73 83
-115 5 -34 3 -38 -25 -47 -16 -6 -30 -14 -30 -17 0 -4 -7 -39 -15 -77 -9 -39
-20 -90 -25 -115 -5 -25 -25 -115 -45 -200 -37 -165 -40 -185 -24 -157 14 24
28 21 22 -5 -9 -35 -1 -24 95 137 49 83 108 181 131 218 40 65 42 71 35 123
l-6 54 48 0 c55 0 108 -27 119 -59 4 -14 -1 -31 -14 -50 -12 -16 -21 -38 -21
-49 0 -28 79 -581 89 -617 8 -33 14 -2 72 406 l32 225 -24 33 c-22 30 -22 34
-8 59 20 36 54 52 112 52 l47 0 -6 -52 c-6 -52 -5 -54 76 -188 46 -74 103
-169 127 -210 52 -86 58 -94 50 -62 -7 31 6 27 27 -9 10 -17 19 -29 21 -27 2
2 -11 68 -29 148 -18 80 -46 204 -61 275 -26 118 -32 133 -63 161 l-33 32 16
38 c15 37 61 94 76 94 4 0 9 -8 11 -17 3 -11 62 -46 152 -91 143 -70 173 -82
162 -63 -4 5 0 11 6 14 8 3 3 9 -12 16 -25 12 -68 61 -53 61 16 -1 85 -69 79
-78 -5 -9 61 -48 69 -40 6 6 -255 335 -278 349 -5 4 -18 4 -29 1 -18 -4 -19 0
-16 86 2 49 0 88 -4 85 -5 -2 -8 -22 -8 -44 0 -54 -20 -133 -32 -121 -5 5 -3
40 3 83 22 139 15 159 -61 159 -58 0 -75 -16 -66 -65 7 -33 6 -34 -17 -26 -38
15 -54 -3 -62 -69 -4 -33 -10 -62 -15 -65 -4 -2 -15 13 -25 35 l-18 39 31 59
c17 32 36 86 43 120 12 55 11 66 -3 90 -14 24 -14 31 -3 60 15 34 25 41 71 46
25 3 29 8 30 36 2 70 -74 94 -121 38 -21 -25 -28 -29 -36 -17 -10 16 -7 34 7
34 5 1 26 17 47 36 l37 35 0 166 c0 195 -15 438 -36 598 -16 120 -41 248 -43
217z m6 -84 c-3 -10 -5 -2 -5 17 0 19 2 27 5 18 2 -10 2 -26 0 -35z m-22 -901
c-3 -3 -15 3 -26 14 -21 19 -22 23 -15 244 7 237 8 258 28 440 13 111 13 100
16 -289 1 -222 0 -406 -3 -409z m-678 -614 c-3 -8 -6 -5 -6 6 -1 11 2 17 5 13
3 -3 4 -12 1 -19z m345 1 c34 -11 36 -14 31 -45 -5 -29 -2 -35 21 -44 35 -13
34 -45 -3 -64 -27 -14 -29 -14 -34 4 -6 24 -43 26 -75 4 -28 -19 -56 -11 -70
22 -16 35 -16 35 16 17 16 -9 36 -13 46 -10 14 6 16 16 10 73 -6 55 -5 66 7
61 8 -3 30 -11 51 -18z m65 -1 c-3 -8 -6 -5 -6 6 -1 11 2 17 5 13 3 -3 4 -12
1 -19z m221 -51 l-3 -62 33 0 c34 0 42 -15 16 -36 -13 -10 -20 -10 -44 4 -38
23 -71 22 -77 -2 -4 -17 -9 -18 -28 -9 -40 18 -43 61 -4 71 14 4 19 14 19 39
0 29 5 35 38 49 20 9 41 14 45 12 4 -3 6 -32 5 -66z m-648 53 c0 -5 -2 -10 -4
-10 -3 0 -8 5 -11 10 -3 6 -1 10 4 10 6 0 11 -4 11 -10z m0 -66 c0 -8 -12 -24
-27 -37 -14 -12 -51 -43 -81 -69 -30 -27 -59 -48 -64 -48 -8 0 26 56 42 70 3
3 22 28 43 56 31 43 41 51 62 46 14 -2 25 -11 25 -18z m-161 -96 c-13 -18 -26
-35 -29 -38 -3 -3 -17 -21 -30 -40 -27 -38 -65 -78 -59 -62 6 16 134 180 138
176 2 -1 -7 -18 -20 -36z m1221 -38 c36 -33 62 -60 57 -60 -4 0 -39 17 -78 37
-48 25 -68 41 -64 51 3 7 5 18 5 23 0 18 16 8 80 -51z m-100 18 c0 -5 -7 -8
-15 -8 -15 0 -20 21 -8 33 7 7 23 -11 23 -25z m-750 -92 c0 -21 -11 -64 -24
-95 -13 -31 -45 -107 -71 -169 -26 -62 -50 -111 -52 -109 -2 3 6 51 18 108 12
57 24 117 27 132 3 18 13 32 27 37 37 14 55 49 55 110 0 39 3 51 10 40 5 -8
10 -32 10 -54z m234 -10 c7 -53 28 -97 41 -84 4 3 12 36 18 72 8 49 15 66 27
65 10 0 11 -2 3 -6 -7 -2 -13 -22 -13 -42 0 -21 -11 -59 -25 -85 -25 -47 -25
-49 -26 -329 -1 -155 -4 -271 -6 -257 -2 14 -17 114 -34 224 l-29 199 30 47
c34 53 36 72 15 123 -8 20 -15 54 -15 76 0 29 -5 41 -17 44 -14 4 -14 5 3 6
19 1 23 -6 28 -53z m360 -225 c31 -85 56 -157 56 -160 0 -3 -20 24 -45 61 -25
37 -45 70 -45 72 0 3 -10 20 -23 39 -21 32 -22 39 -13 90 6 31 11 55 12 54 1
-1 27 -71 58 -156z m-750 -90 c-4 -17 -9 -30 -11 -27 -3 2 -2 19 2 36 4 17 9
30 11 27 2 -2 1 -18 -2 -36z m-29 -126 c-9 -42 -19 -74 -22 -72 -2 3 3 40 12
82 10 42 19 74 22 71 3 -3 -2 -39 -12 -81z m925 -78 c0 -16 -18 3 -23 25 -6
22 -5 22 8 4 8 -11 15 -24 15 -29z"/>
<path d="M994 2899 c-4 -8 -8 -39 -8 -69 1 -36 -1 -48 -7 -35 -15 38 -10 -30
5 -77 11 -33 14 -122 15 -395 1 -193 -1 -364 -5 -378 -6 -25 -7 -25 -25 -9
-17 15 -19 34 -20 188 -1 94 -4 209 -8 256 l-6 85 -8 -130 c-4 -71 -7 -192 -7
-269 l0 -138 40 -40 40 -40 41 41 42 42 -7 247 c-9 307 -43 678 -66 721 -6 11
-9 11 -16 0z m-57 -862 c-1 -45 -3 -5 -3 88 0 94 2 130 3 82 2 -48 2 -125 0
-170z"/>
<path d="M964 2675 c3 -41 2 -58 -3 -40 -12 48 -22 -114 -13 -215 l7 -85 13
180 c9 129 10 188 2 205 -8 20 -9 10 -6 -45z m-7 -157 c-3 -8 -6 -5 -6 6 -1
11 2 17 5 13 3 -3 4 -12 1 -19z"/>
<path d="M1226 2585 c-15 -39 -45 -340 -52 -520 l-8 -190 -14 115 c-7 63 -16
117 -18 119 -14 14 -24 -27 -30 -116 -7 -100 -6 -102 20 -133 19 -23 26 -43
26 -73 0 -46 -13 -76 -24 -58 -12 20 -36 12 -36 -11 1 -67 34 -90 64 -46 16
22 16 21 16 -19 0 -28 5 -43 15 -47 9 -3 23 -22 31 -41 8 -19 16 -35 19 -35 3
0 11 16 19 35 8 19 22 38 31 41 10 4 15 20 16 48 0 37 1 39 11 19 22 -46 68
-17 68 42 0 22 -4 25 -27 23 -28 -3 -28 -2 -28 54 0 48 4 61 23 74 18 13 22
25 22 71 0 74 -20 187 -31 176 -5 -5 -14 -55 -20 -111 -7 -56 -13 -101 -15
-99 -3 3 -7 73 -19 332 -6 121 -29 308 -44 347 -7 20 -8 20 -15 3z m4 -535 l0
-441 -21 20 c-22 20 -22 23 -16 313 4 253 23 548 34 548 1 0 3 -198 3 -440z"/>
</g>
</svg>
