<?xml version="1.0" standalone="no"?>
<!DOCTYPE svg PUBLIC "-//W3C//DTD SVG 20010904//EN"
 "http://www.w3.org/TR/2001/REC-SVG-20010904/DTD/svg10.dtd">
<svg version="1.0" xmlns="http://www.w3.org/2000/svg"
 width="244.000000pt" height="305.000000pt" viewBox="0 0 244.000000 305.000000"
 preserveAspectRatio="xMidYMid meet">
<metadata>
Created by potrace 1.16, written by Peter Selinger 2001-2019
</metadata>
<g transform="translate(0.000000,305.000000) scale(0.100000,-0.100000)"
fill="#000000" stroke="none">
<path d="M917 2903 c-9 -14 -55 -284 -66 -383 -11 -103 -18 -213 -26 -440 l-6
-145 53 -39 c33 -24 56 -35 64 -30 6 5 27 20 47 34 l37 25 0 120 c0 224 -43
702 -65 724 -8 7 -6 -21 10 -125 8 -54 19 -146 25 -204 10 -110 18 -487 10
-492 -3 -2 -19 -13 -37 -26 -18 -12 -35 -22 -38 -22 -3 0 -5 219 -5 488 0 333
4 482 10 472 8 -11 9 -7 4 15 -8 35 -10 39 -17 28z"/>
<path d="M1393 2513 c-1 -352 -3 -405 -17 -419 -9 -8 -16 -29 -16 -45 0 -18
-4 -28 -10 -24 -6 4 -10 -21 -10 -69 0 -108 -16 -102 -19 7 -3 184 -45 512
-78 622 -5 18 -7 18 -15 -5 -30 -81 -63 -323 -74 -538 -4 -78 -10 -142 -14
-142 -3 0 -12 159 -18 353 -12 342 -27 570 -41 594 -3 6 -6 -171 -6 -395 0
-394 -7 -534 -26 -515 -4 4 -10 62 -12 128 l-3 120 -2 -133 c-2 -121 0 -137
19 -163 11 -16 27 -29 35 -29 8 0 14 -4 14 -8 0 -20 -14 -20 -38 -2 -13 11
-31 20 -38 20 -31 0 -64 -26 -82 -64 l-19 -40 -21 40 c-24 46 -64 69 -106 58
-33 -8 -59 -44 -54 -76 3 -20 8 -23 41 -20 32 3 43 -2 72 -31 38 -38 44 -61
19 -75 -22 -12 -15 -100 10 -154 16 -34 20 -84 17 -193 -1 -23 -28 -18 -35 8
-3 12 -6 37 -6 55 0 49 -16 72 -49 72 -71 0 -81 -82 -24 -190 20 -39 34 -73
31 -75 -8 -8 -77 80 -93 119 -23 54 -19 110 10 156 l25 40 -20 20 c-17 17 -31
20 -68 18 -40 -3 -49 -7 -60 -30 -11 -24 -10 -38 7 -101 32 -112 24 -188 -21
-202 -20 -7 -23 -27 -7 -56 9 -17 5 -22 -38 -41 -75 -34 -298 -116 -302 -112
-2 2 -2 5 0 7 2 2 78 52 169 112 91 61 172 118 182 127 15 15 15 21 3 65 -8
26 -18 75 -21 108 -7 56 -8 58 -15 26 -4 -19 -6 -39 -4 -45 2 -6 6 -33 9 -59
l6 -49 -30 7 c-26 6 -37 1 -73 -30 -63 -56 -327 -318 -324 -322 3 -3 142 44
379 128 77 28 87 34 90 58 4 34 34 32 95 -7 44 -28 50 -39 34 -70 -26 -52 -34
-74 -36 -104 -1 -18 -18 -89 -39 -158 -64 -209 -116 -393 -112 -397 4 -4 200
226 315 369 l64 79 -12 40 c-13 44 -9 59 20 59 15 0 19 -7 20 -37 l2 -38 6 35
c5 29 11 36 35 38 28 4 28 3 22 -35 -4 -21 -20 -81 -36 -133 -15 -52 -36 -125
-46 -162 -9 -38 -19 -68 -21 -68 -2 0 -1 26 2 58 l5 57 -14 -70 c-19 -102 -27
-173 -17 -155 5 8 48 106 95 216 77 180 86 206 80 243 -7 46 1 51 42 25 46
-30 49 -52 15 -85 -34 -32 -36 -43 -21 -98 5 -20 19 -90 31 -156 21 -123 77
-412 83 -430 3 -10 12 36 87 433 l40 213 -30 35 c-30 33 -30 36 -15 60 17 25
44 44 63 44 7 0 11 -20 9 -52 -1 -46 9 -79 84 -253 47 -110 88 -207 91 -215
16 -42 -8 156 -47 400 -21 128 -21 130 10 130 23 0 25 -3 20 -22 -18 -64 -17
-73 11 -109 40 -52 92 -116 217 -264 60 -72 111 -132 113 -134 17 -22 2 42
-61 260 -40 139 -75 261 -77 269 -3 10 2 14 14 12 22 -4 22 -7 -14 67 -16 35
-29 71 -27 80 4 20 93 65 113 57 8 -3 15 -16 15 -29 0 -19 9 -26 48 -39 26 -9
119 -42 207 -72 87 -31 165 -55 173 -54 8 2 -60 75 -158 172 -161 157 -174
168 -202 162 l-30 -6 7 84 c4 50 3 86 -3 90 -9 5 -22 -91 -22 -167 l0 -37 41
6 41 7 129 -129 c71 -71 129 -132 129 -136 0 -5 -48 22 -107 58 -235 144 -252
157 -268 197 -19 48 -19 62 5 137 11 34 20 71 20 81 0 50 -80 77 -128 43 -26
-18 -23 -40 11 -86 16 -22 19 -36 13 -74 -6 -50 -40 -117 -75 -148 -30 -28
-27 -4 9 68 34 66 38 110 14 144 -12 17 -24 22 -47 20 -30 -3 -32 -5 -45 -73
-8 -38 -16 -72 -18 -74 -2 -2 -16 8 -30 22 -23 23 -26 32 -20 67 3 23 10 49
15 58 47 90 64 189 36 212 -23 19 -18 39 20 77 28 28 41 34 67 31 29 -3 33 0
36 24 7 60 -81 93 -126 46 -11 -13 -26 -36 -32 -53 l-12 -30 -18 41 c-19 43
-53 74 -81 74 -9 0 -28 -9 -42 -20 -30 -24 -37 -25 -37 -6 0 7 9 16 20 19 11
3 24 16 29 30 14 37 22 38 66 6 66 -48 55 -49 142 19 21 17 21 18 13 242 -8
213 -31 453 -49 530 -15 59 -12 12 9 -147 11 -84 23 -250 26 -368 l7 -216 -34
-29 c-19 -16 -38 -29 -44 -30 -12 0 -19 914 -6 938 4 9 5 28 1 42 -6 25 -6 25
-13 -5 -42 -183 -70 -407 -84 -655 l-8 -145 -7 215 c-7 228 -24 492 -36 575
-4 28 -8 -131 -9 -352z m-108 -418 c2 -138 1 -200 -4 -165 -12 75 -20 489 -9
430 5 -25 10 -144 13 -265z m-138 -227 c-3 -8 -6 -5 -6 6 -1 11 2 17 5 13 3
-3 4 -12 1 -19z m150 -110 c-2 -18 -4 -6 -4 27 0 33 2 48 4 33 2 -15 2 -42 0
-60z m-252 -57 c4 -33 5 -64 2 -68 -2 -4 -1 -32 2 -60 4 -29 4 -53 0 -53 -13
0 -50 68 -56 104 -3 20 -12 41 -19 47 -8 6 -14 19 -14 28 0 24 37 61 59 61 16
0 20 -11 26 -59z m446 37 c22 -28 24 -57 4 -64 -8 -4 -15 -18 -15 -32 0 -30
-37 -112 -51 -112 -10 0 -12 115 -3 184 5 37 11 46 26 46 11 0 28 -10 39 -22z
m-314 -129 c11 -4 28 -23 37 -43 9 -20 21 -34 27 -31 10 7 11 -10 2 -44 -5
-21 -8 -16 -22 30 -16 51 -19 54 -51 57 -19 2 -41 8 -47 14 -16 13 -17 53 -1
81 11 21 12 20 23 -17 7 -24 19 -42 32 -47z m122 34 c1 -7 -3 -13 -9 -13 -5 0
-10 15 -9 33 0 27 2 29 9 12 5 -11 9 -26 9 -32z m61 -12 c0 -39 -11 -48 -57
-52 -37 -4 -40 -3 -32 13 5 10 19 18 29 18 14 0 20 7 20 24 0 13 3 32 7 42 6
16 7 16 20 -2 7 -10 13 -29 13 -43z m-415 -47 c18 -45 18 -44 0 -44 -8 0 -17
12 -21 28 -3 15 -7 33 -10 40 -9 29 17 9 31 -24z m601 -20 c-4 -13 -13 -24
-21 -24 -19 0 -19 -1 2 46 12 29 18 34 21 21 2 -10 1 -29 -2 -43z m-456 30 c0
-8 -4 -12 -10 -9 -5 3 -10 10 -10 16 0 5 5 9 10 9 6 0 10 -7 10 -16z m310 7
c0 -6 -4 -13 -10 -16 -5 -3 -10 1 -10 9 0 9 5 16 10 16 6 0 10 -4 10 -9z
m-284 -106 c19 -46 17 -55 -6 -26 -18 21 -28 61 -14 61 3 0 12 -16 20 -35z
m249 -21 c-24 -37 -29 -23 -9 22 13 29 18 34 21 21 3 -10 -3 -29 -12 -43z
m-347 4 c18 -18 15 -28 -8 -28 -13 0 -20 7 -20 20 0 23 10 26 28 8z m462 -8
c0 -13 -7 -20 -20 -20 -18 0 -19 3 -10 20 6 11 15 20 20 20 6 0 10 -9 10 -20z
m-551 -92 c1 -21 -3 -38 -9 -38 -6 0 -10 25 -9 58 0 41 3 51 9 37 5 -11 9 -37
9 -57z m148 40 c26 -25 29 -38 9 -38 -19 0 -46 27 -46 46 0 20 10 18 37 -8z
m353 8 c0 -19 -27 -46 -46 -46 -16 0 -12 12 14 43 18 21 32 22 32 3z m-250
-54 c0 -7 -4 -10 -10 -7 -5 3 -10 16 -10 28 0 18 2 19 10 7 5 -8 10 -21 10
-28z m121 -5 c-13 -13 -15 1 -4 30 7 17 8 17 11 -1 2 -10 -1 -23 -7 -29z m121
-79 c7 -46 -8 -91 -38 -117 -20 -17 -29 -20 -39 -11 -8 6 -24 10 -37 8 -19 -2
-23 2 -23 22 0 18 7 26 25 30 34 8 42 59 11 67 -12 3 -21 9 -21 14 0 10 7 11
38 3 20 -6 22 -10 16 -54 -7 -54 7 -73 34 -46 12 11 17 33 16 66 -1 56 11 67
18 18z m-355 -17 c-1 -26 5 -47 17 -60 26 -29 38 -16 35 37 -3 44 7 58 44 61
17 2 5 -17 -14 -22 -29 -8 -23 -61 8 -65 22 -3 39 -34 29 -51 -3 -5 -15 -7
-25 -4 -11 3 -27 0 -37 -5 -13 -7 -23 -4 -42 13 -19 18 -26 36 -30 79 -3 36
-1 56 6 56 6 0 10 -17 9 -39z m-53 -16 l6 -30 -15 25 c-8 14 -14 32 -15 40 0
23 17 -2 24 -35z m-107 -52 c-10 -9 -37 17 -37 37 0 31 13 31 28 0 8 -17 12
-33 9 -37z m120 -15 c-3 -7 -5 -2 -5 12 0 14 2 19 5 13 2 -7 2 -19 0 -25z
m429 6 c-4 -9 -9 -15 -11 -12 -3 3 -3 13 1 22 4 9 9 15 11 12 3 -3 3 -13 -1
-22z m-606 -50 c0 -8 -4 -12 -10 -9 -5 3 -10 13 -10 21 0 8 5 12 10 9 6 -3 10
-13 10 -21z m780 -21 c0 -10 -4 -25 -10 -33 -8 -12 -10 -12 -16 3 -7 20 1 47
16 47 5 0 10 -8 10 -17z m-738 -90 c4 -108 7 -150 11 -168 2 -12 -15 -43 -47
-85 -135 -173 -230 -290 -233 -286 -3 2 20 51 50 108 153 290 187 364 187 410
0 24 3 48 7 51 15 15 23 5 25 -30z m722 15 c7 -13 16 -35 20 -50 4 -20 18 -32
50 -47 44 -19 44 -20 74 -118 61 -197 93 -315 90 -324 -2 -5 -31 44 -66 108
-34 65 -94 177 -132 248 -50 94 -70 140 -70 168 0 42 13 48 34 15z m-840 -12
c-6 -16 -24 -23 -24 -8 0 10 22 33 27 28 2 -2 1 -11 -3 -20z m949 -12 c11 -14
17 -28 14 -31 -10 -9 -56 31 -57 49 0 23 20 14 43 -18z m-38 -24 c3 -5 1 -10
-4 -10 -6 0 -11 5 -11 10 0 6 2 10 4 10 3 0 8 -4 11 -10z m-900 -10 c-3 -5
-11 -10 -16 -10 -6 0 -7 5 -4 10 3 6 11 10 16 10 6 0 7 -4 4 -10z m464 -53
c-13 -29 -24 -28 -32 3 -4 17 -3 19 9 9 11 -9 15 -8 20 5 4 9 8 15 11 13 2 -3
-2 -16 -8 -30z m238 -207 c29 -113 52 -209 50 -214 -2 -5 -33 68 -71 162 -61
154 -67 174 -61 216 4 26 12 45 18 43 5 -1 34 -95 64 -207z m-151 41 c-2 -9
-10 -47 -17 -86 -7 -38 -21 -106 -31 -150 l-18 -80 5 85 c3 47 10 120 16 162
8 63 7 83 -6 114 -22 52 -19 54 21 10 19 -22 32 -47 30 -55z"/>
<path d="M940 2811 c0 -11 4 -22 9 -25 4 -3 6 6 3 19 -5 30 -12 33 -12 6z"/>
<path d="M1571 2744 c0 -11 3 -14 6 -6 3 7 2 16 -1 19 -3 4 -6 -2 -5 -13z"/>
<path d="M1052 2645 c0 -16 2 -22 5 -12 2 9 2 23 0 30 -3 6 -5 -1 -5 -18z"/>
<path d="M1362 2595 c0 -16 2 -22 5 -12 2 9 2 23 0 30 -3 6 -5 -1 -5 -18z"/>
<path d="M1043 2500 c0 -25 2 -35 4 -22 2 12 2 32 0 45 -2 12 -4 2 -4 -23z"/>
<path d="M1353 2420 c0 -25 2 -35 4 -22 2 12 2 32 0 45 -2 12 -4 2 -4 -23z"/>
<path d="M1033 2250 c0 -25 2 -35 4 -22 2 12 2 32 0 45 -2 12 -4 2 -4 -23z"/>
<path d="M1562 1365 c0 -16 2 -22 5 -12 2 9 2 23 0 30 -3 6 -5 -1 -5 -18z"/>
<path d="M955 800 c-4 -34 -5 -63 -2 -66 2 -3 7 23 11 57 4 33 5 63 3 66 -3 2
-8 -23 -12 -57z"/>
<path d="M942 690 c0 -19 2 -27 5 -17 2 9 2 25 0 35 -3 9 -5 1 -5 -18z"/>
</g>
</svg>
