<?xml version="1.0" standalone="no"?>
<!DOCTYPE svg PUBLIC "-//W3C//DTD SVG 20010904//EN"
 "http://www.w3.org/TR/2001/REC-SVG-20010904/DTD/svg10.dtd">
<svg version="1.0" xmlns="http://www.w3.org/2000/svg"
 width="244.000000pt" height="305.000000pt" viewBox="0 0 244.000000 305.000000"
 preserveAspectRatio="xMidYMid meet">
<metadata>
Created by potrace 1.16, written by Peter Selinger 2001-2019
</metadata>
<g transform="translate(0.000000,305.000000) scale(0.100000,-0.100000)"
fill="#000000" stroke="none">
<path d="M911 2798 c-37 -195 -51 -331 -61 -601 -10 -244 -9 -263 7 -272 9 -5
30 -22 46 -37 34 -33 39 -34 62 -8 20 22 56 24 62 4 2 -7 -11 -14 -30 -18 -35
-7 -56 -35 -58 -79 -1 -19 -3 -17 -14 9 -21 48 -63 77 -100 70 -37 -8 -51 -22
-60 -63 -7 -33 -6 -33 33 -33 74 0 133 -80 85 -115 -14 -10 -15 -20 -6 -63 7
-38 7 -56 -3 -74 -7 -12 -13 -31 -14 -40 0 -11 -11 -20 -27 -24 -62 -15 -77
-59 -51 -145 6 -22 8 -42 4 -47 -13 -12 -34 27 -47 86 -12 52 -12 56 15 104
27 48 27 50 10 69 -28 31 -103 23 -123 -12 -13 -24 -12 -34 8 -104 30 -101 25
-168 -16 -201 -25 -20 -26 -24 -15 -49 7 -15 11 -29 9 -31 -8 -8 -330 -134
-334 -131 -2 3 67 54 154 113 87 60 168 119 180 131 22 21 22 23 8 70 -8 26
-15 66 -16 88 0 22 -5 51 -9 65 -6 17 -8 -7 -8 -70 l2 -95 -29 3 c-25 3 -48
-16 -202 -174 -96 -97 -172 -178 -170 -180 3 -4 92 27 287 99 162 61 160 59
160 84 0 18 6 23 24 23 14 0 27 -3 29 -7 3 -5 -18 -45 -46 -91 -27 -45 -48
-85 -45 -87 3 -3 46 18 97 46 50 29 94 49 97 46 3 -3 7 -20 7 -38 2 -29 -2
-34 -29 -42 -35 -10 -31 0 -110 -286 -20 -69 -42 -151 -51 -181 -8 -30 -19
-71 -23 -90 l-9 -35 36 40 c19 22 47 56 62 75 73 97 201 251 202 243 1 -4 0
-12 -1 -18 -10 -46 -48 -300 -46 -303 2 -2 52 92 110 209 104 207 106 213 100
262 l-7 50 34 -7 c34 -6 89 -51 89 -71 0 -6 -11 -22 -25 -35 -31 -29 -31 -37
0 -213 35 -190 74 -404 83 -447 9 -39 17 0 89 407 40 233 41 207 -12 279 -14
20 41 72 84 80 l34 7 -6 -51 c-6 -51 -3 -58 105 -278 60 -124 112 -223 114
-221 2 2 -1 28 -6 58 -14 69 -50 281 -50 294 0 5 14 -5 30 -23 17 -18 30 -35
30 -38 0 -4 202 -259 218 -274 13 -13 -34 174 -113 450 -31 109 -34 115 -64
123 -31 8 -39 26 -25 61 9 23 17 21 88 -24 35 -22 66 -40 71 -40 4 0 20 -9 37
-21 30 -22 48 -20 29 3 -15 18 -50 72 -85 131 -19 34 -25 52 -18 59 17 17 42
1 42 -25 0 -21 9 -28 63 -47 34 -12 122 -44 196 -71 73 -28 139 -49 146 -47 7
2 -60 79 -149 171 -144 149 -165 168 -191 165 l-28 -3 2 70 c1 38 4 72 6 75 2
3 0 12 -5 20 -7 12 -17 -52 -23 -160 -2 -35 -2 -35 37 -32 36 4 43 -1 103 -60
94 -92 191 -203 171 -195 -44 16 -328 214 -338 235 -14 32 -13 101 5 168 16
64 12 100 -15 114 -41 22 -110 5 -110 -28 0 -9 9 -32 20 -50 11 -18 20 -50 20
-73 0 -44 -23 -109 -39 -109 -13 0 -14 22 -1 74 12 52 -8 101 -44 110 -15 4
-26 13 -26 23 0 8 -9 30 -19 47 -16 25 -18 39 -12 69 7 30 5 42 -11 62 -24 31
-17 55 24 90 25 21 38 25 65 20 31 -6 33 -4 33 23 0 35 -37 72 -72 72 -29 0
-78 -35 -78 -56 0 -8 -4 -14 -10 -14 -5 0 -10 6 -10 14 0 8 -2 21 -5 28 -4 9
14 29 48 54 l54 39 -3 55 c-2 30 -6 143 -8 250 -5 177 -31 436 -55 538 -15 63
-12 13 9 -128 21 -148 40 -422 40 -582 l0 -103 -34 -27 c-19 -16 -37 -28 -40
-28 -4 0 -6 215 -5 478 0 293 4 469 9 457 7 -14 8 -8 3 20 -12 80 -16 69 -47
-114 -15 -85 -28 -156 -30 -158 -2 -2 -6 27 -10 64 -12 128 -29 254 -33 250
-2 -3 -4 -229 -4 -503 0 -293 -4 -491 -9 -479 -5 11 -9 34 -9 51 -1 17 -9 65
-18 105 l-17 74 -11 -85 c-8 -63 -12 -78 -18 -60 -4 14 -7 42 -7 63 0 22 -4
36 -10 32 -13 -8 -18 21 -24 146 -5 101 -37 301 -55 344 l-8 20 -6 -20 c-19
-64 -48 -253 -53 -344 -6 -125 -11 -154 -24 -146 -6 4 -10 -10 -11 -32 -1 -21
-4 -49 -8 -63 -10 -36 -29 175 -36 394 -5 171 -28 426 -43 474 -4 12 -6 -201
-4 -474 3 -538 -10 -662 -23 -222 -5 145 -8 306 -8 358 0 52 -2 79 -5 60 -4
-30 -8 -20 -23 60 -19 100 -19 74 -1 -100 13 -123 32 -447 32 -537 0 -35 -4
-63 -10 -63 -5 0 -11 61 -13 148 l-3 147 -2 -151 c-2 -146 -3 -151 -27 -174
l-24 -23 -3 259 c-2 142 -1 367 2 499 3 132 3 244 -1 248 -4 5 -16 -42 -28
-105z m366 -500 c-3 -8 -6 -5 -6 6 -1 11 2 17 5 13 3 -3 4 -12 1 -19z m13
-180 c4 -79 5 -170 0 -203 -6 -46 -8 -24 -9 101 0 89 -4 183 -7 210 -4 27 -3
46 1 42 4 -4 11 -71 15 -150z m206 -235 c10 -16 7 -18 -22 -18 -19 0 -34 5
-34 11 0 28 40 33 56 7z m-406 -13 c0 -5 -7 -10 -15 -10 -8 0 -15 5 -15 10 0
6 7 10 15 10 8 0 15 -4 15 -10z m314 -11 c-3 -5 -10 -7 -15 -3 -5 3 -7 10 -3
15 3 5 10 7 15 3 5 -3 7 -10 3 -15z m-284 -120 c-12 -22 -30 -25 -30 -6 0 17
21 38 32 31 4 -3 3 -14 -2 -25z m264 8 c8 -13 7 -20 -4 -27 -11 -7 -18 -3 -27
13 -20 38 8 51 31 14z m-359 -49 c4 -17 3 -33 -3 -37 -5 -3 -12 -15 -15 -26
-4 -16 -5 -15 -6 6 0 15 -8 29 -16 33 -18 7 -19 29 -3 56 15 24 34 11 43 -32z
m467 17 c8 -19 8 -28 -2 -40 -25 -30 -45 -17 -41 25 5 46 25 53 43 15z m-192
-57 c0 -10 -4 -18 -10 -18 -5 0 -10 15 -10 33 0 24 3 28 10 17 5 -8 10 -23 10
-32z m-145 -25 c5 -12 17 -24 27 -26 10 -3 25 -21 33 -41 9 -20 17 -36 20 -36
2 0 14 18 25 40 11 22 27 40 35 40 8 0 15 6 15 14 0 22 27 38 50 31 17 -5 20
-13 18 -38 -3 -29 -6 -31 -47 -34 -54 -4 -61 -10 -82 -71 l-16 -46 -11 45
c-14 57 -32 72 -85 73 -39 1 -42 3 -45 30 -6 47 44 62 63 19z m-197 -47 c6
-19 28 -58 50 -87 74 -101 82 -136 14 -67 -44 44 -92 131 -92 166 0 34 18 26
28 -12z m128 -74 c19 -41 13 -52 -9 -18 -20 30 -38 106 -29 120 3 6 10 -7 14
-29 5 -22 15 -55 24 -73z m338 71 c-7 -42 -42 -118 -50 -110 -3 3 1 19 10 35
8 16 18 48 22 71 4 23 11 41 16 41 5 0 6 -16 2 -37z m116 22 c0 -43 -76 -173
-116 -199 -13 -9 -24 -13 -24 -9 0 5 24 45 54 90 30 46 57 94 60 108 7 27 26
34 26 10z m-370 -136 c0 -5 -4 -9 -8 -9 -9 0 -32 44 -32 58 1 10 40 -38 40
-49z m158 14 c-12 -20 -24 -31 -26 -24 -6 18 19 61 34 61 9 0 7 -11 -8 -37z
m-378 -75 c0 -45 -10 -79 -21 -72 -10 6 -12 64 -3 88 10 27 24 18 24 -16z
m600 -28 c0 -33 -4 -60 -10 -60 -6 0 -10 27 -10 60 0 33 4 60 10 60 6 0 10
-27 10 -60z m-371 -16 c3 -16 1 -17 -13 -5 -19 16 -21 34 -3 29 6 -3 14 -13
16 -24z m135 17 c7 -10 -18 -34 -27 -25 -7 8 3 34 13 34 5 0 11 -4 14 -9z
m-280 -99 c-5 -39 -2 -51 16 -70 33 -35 45 -23 42 43 -3 50 -1 57 13 51 9 -3
24 -6 33 -6 12 0 13 -3 4 -12 -23 -23 -14 -55 19 -67 24 -8 30 -15 27 -33 -2
-17 -9 -22 -23 -20 -11 2 -40 3 -65 2 -25 0 -50 3 -55 7 -19 13 -36 92 -29
128 9 51 24 32 18 -23z m420 24 c9 -45 -11 -124 -33 -130 -9 -2 -36 -4 -61 -5
-25 -1 -47 -6 -48 -12 -6 -16 -32 11 -32 32 0 11 10 23 24 29 13 5 27 14 31
19 10 17 -4 49 -23 54 -9 2 3 5 27 8 l43 5 -6 -53 c-5 -44 -3 -55 10 -60 11
-4 24 2 37 18 16 20 18 33 13 76 -7 58 8 73 18 19z m-626 -104 c-3 -14 -7 -12
-22 10 -21 33 -11 60 11 29 8 -12 13 -29 11 -39z m809 -14 c-3 -8 -6 -5 -6 6
-1 11 2 17 5 13 3 -3 4 -12 1 -19z m-637 -26 c0 -15 -2 -15 -10 -2 -13 20 -13
33 0 25 6 -3 10 -14 10 -23z m481 -5 c-8 -8 -11 -7 -11 4 0 20 13 34 18 19 3
-7 -1 -17 -7 -23z m123 -55 c-3 -26 -1 -66 5 -89 10 -36 18 -45 55 -62 39 -17
45 -24 54 -62 5 -24 28 -107 50 -184 49 -171 56 -203 44 -190 -5 6 -64 118
-132 250 -114 225 -122 243 -118 287 4 41 29 98 44 98 2 0 2 -21 -2 -48z
m-859 18 c7 -11 -58 -95 -79 -103 -7 -3 3 21 22 54 35 59 45 68 57 49z m154
-38 c6 -20 11 -85 12 -144 l1 -107 -43 -58 c-158 -209 -201 -264 -205 -260 -4
4 10 34 138 295 l80 163 -7 81 c-5 57 -4 79 4 74 6 -4 15 -24 20 -44z m870
-17 c18 -25 37 -45 42 -45 5 0 9 -4 9 -10 0 -12 -27 -14 -32 -2 -1 4 -27 22
-55 41 -54 34 -63 45 -40 54 28 12 44 4 76 -38z m-469 11 c0 -3 -4 -8 -10 -11
-5 -3 -10 -1 -10 4 0 6 5 11 10 11 6 0 10 -2 10 -4z m-66 -136 c3 0 12 15 20
33 9 20 15 25 15 14 1 -18 -25 -77 -34 -77 -8 0 -35 59 -35 77 1 11 6 5 15
-14 8 -18 16 -33 19 -33z m280 -150 c24 -80 54 -174 65 -210 23 -73 27 -111 7
-65 -7 17 -45 99 -85 182 -73 156 -77 173 -55 242 9 27 22 -3 68 -149z m-509
133 c-4 -10 -14 -40 -22 -68 -8 -27 -32 -106 -54 -175 -22 -69 -43 -131 -45
-139 -2 -8 -6 -12 -9 -9 -6 6 33 227 46 261 6 15 16 27 22 27 6 0 7 19 3 50
-8 61 -4 70 36 70 25 0 29 -3 23 -17z m315 -117 c10 -20 9 -45 -10 -155 -13
-72 -25 -129 -28 -127 -2 3 3 63 12 135 13 96 14 136 6 151 -6 11 -7 20 -2 20
5 0 14 -11 22 -24z"/>
<path d="M952 2820 c0 -14 2 -19 5 -12 2 6 2 18 0 25 -3 6 -5 1 -5 -13z"/>
<path d="M962 2770 c0 -14 2 -19 5 -12 2 6 2 18 0 25 -3 6 -5 1 -5 -13z"/>
<path d="M1023 2685 c0 -22 2 -30 4 -17 2 12 2 30 0 40 -3 9 -5 -1 -4 -23z"/>
<path d="M1392 2680 c0 -19 2 -27 5 -17 2 9 2 25 0 35 -3 9 -5 1 -5 -18z"/>
<path d="M1383 2540 c0 -30 2 -43 4 -27 2 15 2 39 0 55 -2 15 -4 2 -4 -28z"/>
<path d="M1374 2335 c0 -55 1 -76 3 -47 2 29 2 74 0 100 -2 26 -3 2 -3 -53z"/>
</g>
</svg>
