<?xml version="1.0" standalone="no"?>
<!DOCTYPE svg PUBLIC "-//W3C//DTD SVG 20010904//EN"
 "http://www.w3.org/TR/2001/REC-SVG-20010904/DTD/svg10.dtd">
<svg version="1.0" xmlns="http://www.w3.org/2000/svg"
 width="244.000000pt" height="305.000000pt" viewBox="0 0 244.000000 305.000000"
 preserveAspectRatio="xMidYMid meet">
<metadata>
Created by potrace 1.16, written by Peter Selinger 2001-2019
</metadata>
<g transform="translate(0.000000,305.000000) scale(0.100000,-0.100000)"
fill="#000000" stroke="none">
<path d="M1036 2888 c-3 -13 -11 -78 -17 -145 -7 -68 -15 -123 -19 -123 -3 0
-12 39 -19 88 -16 114 -31 182 -39 182 -4 0 -6 -223 -4 -495 2 -272 -1 -495
-5 -495 -4 1 -23 14 -42 30 l-34 29 5 110 c2 60 1 108 -4 105 -4 -3 -8 -61 -8
-129 l0 -123 35 -22 c40 -25 59 -54 51 -77 -5 -13 -11 -11 -31 11 -18 20 -34
26 -63 26 -36 0 -41 -4 -57 -36 -22 -46 -14 -65 23 -58 21 4 36 -1 60 -21 40
-34 49 -61 26 -86 -13 -15 -16 -29 -11 -69 5 -37 3 -50 -7 -50 -7 0 -18 -17
-24 -38 -7 -24 -22 -44 -37 -52 -31 -17 -39 -46 -32 -111 7 -60 -8 -73 -28
-25 -22 52 -18 93 11 144 l27 45 -23 19 c-27 22 -83 24 -104 2 -20 -20 -20
-79 -1 -134 19 -53 19 -91 1 -134 -11 -28 -46 -55 -176 -141 -89 -58 -164
-104 -167 -101 -3 2 51 62 118 131 l124 127 39 -6 39 -7 -7 62 c-3 34 -6 82
-6 105 0 27 -5 44 -11 44 -9 0 -10 -26 -6 -91 l6 -90 -28 6 c-25 5 -40 -7
-167 -138 -200 -208 -203 -211 -179 -204 11 3 70 24 130 47 61 23 149 55 198
72 82 29 87 33 87 59 0 21 4 27 15 23 18 -7 7 -31 -61 -132 -25 -37 -40 -68
-35 -70 5 -2 29 8 53 22 83 49 158 86 173 86 29 0 15 -61 -19 -80 -27 -15 -33
-31 -102 -285 -41 -149 -72 -274 -71 -279 2 -5 36 33 77 85 41 52 77 96 80 99
3 3 19 23 36 45 42 57 58 75 65 75 3 0 -6 -73 -22 -162 -16 -89 -27 -164 -25
-166 3 -2 49 86 104 195 55 109 107 210 115 226 10 19 12 39 7 70 -5 23 -6 45
-4 49 14 23 95 -11 114 -47 11 -21 10 -27 -15 -56 -31 -37 -31 -49 4 -234 50
-263 61 -325 72 -388 6 -37 13 -67 14 -65 2 2 24 122 49 268 26 146 51 284 56
307 15 63 12 79 -15 104 -13 13 -25 31 -25 40 0 38 106 99 123 71 4 -5 2 -24
-4 -43 -10 -32 -4 -47 103 -257 62 -123 114 -217 116 -210 1 7 -9 71 -23 143
-14 71 -25 138 -25 149 0 20 0 20 18 0 9 -10 58 -71 107 -134 103 -132 107
-136 135 -170 l21 -25 -5 25 c-5 21 -42 156 -85 315 -5 17 -21 75 -36 130 -29
110 -36 122 -68 127 -26 4 -34 37 -17 68 11 20 11 20 48 1 20 -11 64 -35 96
-55 72 -44 84 -45 57 -7 -12 16 -21 32 -21 35 0 4 -16 31 -37 61 -20 31 -34
57 -32 59 2 2 13 6 24 8 15 2 21 -3 23 -24 2 -14 11 -29 20 -33 36 -15 310
-118 360 -136 30 -10 52 -14 50 -9 -2 5 -77 86 -167 180 -152 158 -166 170
-193 165 l-28 -7 -1 94 c-1 51 -4 80 -5 63 -2 -16 -11 -67 -20 -113 l-17 -83
23 -17 c55 -40 269 -192 309 -219 49 -34 30 -29 -115 28 -193 76 -196 77 -189
117 5 28 2 37 -19 53 -36 28 -42 77 -21 157 28 106 29 120 11 147 -12 19 -25
25 -52 25 -42 0 -74 -15 -74 -35 0 -8 9 -32 20 -52 24 -44 26 -100 6 -148 -22
-53 -40 -45 -31 13 8 56 8 50 6 85 -1 23 -8 32 -41 45 -32 14 -40 22 -40 43 0
15 -6 32 -14 39 -11 8 -13 24 -9 61 5 39 2 53 -12 69 -37 40 20 110 90 110 31
0 35 3 35 25 0 34 -42 75 -76 75 -18 0 -37 -12 -60 -37 -23 -25 -34 -32 -34
-21 0 24 -28 48 -56 48 -28 0 -33 27 -7 37 11 4 23 -3 38 -21 l21 -27 19 21
c11 12 33 29 49 38 l29 17 -7 250 c-4 138 -14 304 -22 370 -19 151 -53 348
-62 357 -4 4 -6 -220 -4 -497 2 -309 -1 -505 -6 -505 -5 0 -17 11 -26 25 -9
14 -22 24 -29 22 -29 -5 -18 373 19 671 18 143 13 175 -7 45 -14 -85 -14 -87
-20 -43 -4 30 -6 13 -6 -50 1 -201 -16 -669 -24 -664 -12 7 -10 850 2 899 5
23 6 53 1 70 -7 25 -10 16 -21 -65 -18 -135 -40 -446 -41 -570 -1 -58 -7 -134
-14 -170 l-13 -65 -7 48 c-7 41 -10 45 -21 31 -10 -14 -13 9 -19 125 -6 122
-45 373 -60 388 -14 14 -66 -293 -66 -392 0 -85 -6 -119 -20 -110 -4 2 -11
-19 -15 -48 l-8 -52 -12 65 c-11 63 -12 64 -23 37 -7 -16 -12 -41 -12 -57 0
-45 -21 -130 -31 -130 -6 0 -9 185 -7 500 2 275 2 500 2 500 -1 0 -4 -10 -8
-22z m151 -925 c-1 -49 -3 -9 -3 87 0 96 2 136 3 88 2 -49 2 -127 0 -175z
m-162 -83 c0 -10 -8 -14 -24 -12 -30 3 -35 7 -26 22 10 16 50 8 50 -10z m55
-10 c0 -5 -4 -10 -10 -10 -5 0 -10 5 -10 10 0 6 5 10 10 10 6 0 10 -4 10 -10z
m330 0 c0 -5 -7 -10 -16 -10 -8 0 -12 5 -9 10 3 6 10 10 16 10 5 0 9 -4 9 -10z
m-293 -137 c-14 -14 -19 -15 -29 -4 -11 10 -9 15 6 27 27 20 47 0 23 -23z
m273 7 c0 -18 -22 -22 -37 -7 -21 21 -8 40 18 27 10 -6 19 -15 19 -20z m-374
-25 c3 -14 3 -32 0 -41 -9 -23 -36 1 -36 31 0 41 26 49 36 10z m475 4 c9 -18
7 -25 -10 -43 -18 -17 -23 -18 -30 -7 -10 15 6 71 20 71 4 0 13 -10 20 -21z
m-314 -71 c-3 -7 -5 -2 -5 12 0 14 2 19 5 13 2 -7 2 -19 0 -25z m-33 6 c9 -3
16 -14 16 -24 0 -10 9 -20 20 -23 11 -3 27 -21 35 -41 9 -20 17 -36 20 -36 3
0 11 15 19 34 8 19 24 39 35 46 12 6 21 17 21 24 0 15 35 27 56 19 8 -3 14
-19 14 -40 l0 -36 -40 7 c-48 8 -73 -12 -91 -74 l-12 -41 -19 48 c-23 61 -41
74 -88 67 -35 -6 -38 -4 -43 22 -8 40 20 62 57 48z m-135 -158 c13 -16 51 -86
51 -93 0 -4 -16 9 -36 28 -43 40 -84 121 -84 164 0 27 3 24 30 -29 17 -33 34
-64 39 -70z m63 42 c9 -26 11 -45 6 -42 -16 10 -38 71 -37 101 0 32 4 25 31
-59z m343 -4 c-17 -42 -33 -40 -17 3 6 15 14 42 18 58 l8 30 4 -26 c1 -15 -4
-44 -13 -65z m116 44 c-12 -51 -46 -110 -85 -147 -44 -43 -47 -25 -5 35 17 25
42 69 55 99 27 59 47 66 35 13z m-365 -94 c10 -39 -3 -40 -25 -3 -26 43 -26
53 -1 39 11 -6 23 -22 26 -36z m164 2 c-24 -41 -30 -44 -30 -18 0 19 39 67 47
58 3 -3 -5 -21 -17 -40z m-390 -60 c0 -13 -3 -45 -7 -72 -5 -36 -8 -43 -14
-29 -9 25 -11 88 -3 109 9 24 24 19 24 -8z m610 -47 c0 -74 -17 -78 -22 -4 -3
62 -1 78 13 69 5 -3 9 -32 9 -65z m-360 -10 c0 -5 -9 -9 -20 -9 -19 0 -26 11
-14 23 8 8 34 -3 34 -14z m130 12 c0 -5 -7 -14 -15 -21 -12 -10 -15 -10 -15 2
0 8 3 18 7 21 9 10 23 9 23 -2z m-294 -92 l-14 -34 -1 36 c-1 39 7 55 21 41 5
-5 3 -24 -6 -43z m428 -46 c-9 -63 -20 -71 -99 -75 -69 -3 -70 -3 -70 22 0 18
6 26 22 28 29 4 37 30 18 58 -14 22 -14 24 4 24 11 0 27 3 36 6 15 6 17 0 15
-42 -4 -84 2 -92 41 -51 17 18 20 30 16 68 -3 26 -3 50 1 54 12 11 22 -49 16
-92z m-306 57 c10 0 10 -4 -1 -21 -19 -26 -11 -57 16 -61 25 -4 34 -33 16 -54
-7 -9 -16 -11 -23 -5 -6 6 -36 11 -66 13 -50 3 -55 5 -59 28 -3 24 -2 24 16 7
39 -34 57 -14 43 49 -11 46 -5 58 24 50 11 -3 27 -6 34 -6z m532 -49 c0 -5 -9
-19 -20 -32 -19 -23 -19 -23 -20 -3 0 20 17 44 32 44 4 0 8 -4 8 -9z m-690
-82 c0 -6 -4 -7 -10 -4 -5 3 -10 11 -10 16 0 6 5 7 10 4 6 -3 10 -11 10 -16z
m500 2 c0 -6 -4 -13 -10 -16 -5 -3 -10 1 -10 9 0 9 5 16 10 16 6 0 10 -4 10
-9z m-594 -67 c28 -67 20 -93 -102 -337 -64 -128 -123 -241 -130 -252 -17 -23
-18 -7 -3 32 6 15 30 102 55 193 25 91 47 173 50 182 3 9 24 23 47 31 38 12
42 17 50 58 4 24 6 66 3 92 -6 54 8 55 30 1z m699 -30 c-8 -38 -11 -80 -8 -94
3 -14 57 -130 119 -258 62 -128 109 -230 103 -227 -9 6 -194 251 -222 295 -19
29 -38 181 -31 237 9 59 39 132 50 120 2 -2 -3 -34 -11 -73z m189 12 c51 -76
44 -84 -16 -20 -42 44 -49 57 -38 64 8 6 16 10 17 10 1 0 18 -24 37 -54z
m-1006 13 c2 -9 -24 -32 -71 -62 -41 -26 -78 -47 -83 -47 -5 0 21 29 56 65 63
63 92 76 98 44z m456 -159 c3 0 12 12 20 28 20 37 20 9 0 -30 -13 -26 -18 -28
-30 -17 -7 8 -16 30 -19 49 l-6 35 15 -32 c8 -18 17 -33 20 -33z m-210 -22
c13 -51 3 -89 -62 -223 -80 -166 -101 -204 -102 -189 0 6 7 31 16 55 8 24 38
114 65 199 27 85 51 161 54 168 7 19 22 14 29 -10z m502 7 c3 -8 1 -29 -5 -47
-10 -28 -8 -36 15 -70 19 -27 34 -72 50 -155 14 -65 23 -122 21 -128 -4 -9
-137 389 -137 408 0 14 51 7 56 -8z m-360 -198 l2 -92 -16 77 c-12 63 -13 80
-2 93 7 8 13 15 14 15 0 0 2 -42 2 -93z m11 -129 c-3 -8 -6 -5 -6 6 -1 11 2
17 5 13 3 -3 4 -12 1 -19z"/>
<path d="M1051 2814 c0 -11 3 -14 6 -6 3 7 2 16 -1 19 -3 4 -6 -2 -5 -13z"/>
<path d="M1502 2780 c0 -14 2 -19 5 -12 2 6 2 18 0 25 -3 6 -5 1 -5 -13z"/>
<path d="M902 2718 c-21 -120 -32 -229 -36 -366 l-5 -137 10 115 c5 63 18 189
29 279 20 167 21 224 2 109z"/>
<path d="M1062 2720 c0 -14 2 -19 5 -12 2 6 2 18 0 25 -3 6 -5 1 -5 -13z"/>
<path d="M1073 2625 c0 -22 2 -30 4 -17 2 12 2 30 0 40 -3 9 -5 -1 -4 -23z"/>
<path d="M1083 2495 c0 -38 2 -53 4 -32 2 20 2 52 0 70 -2 17 -4 1 -4 -38z"/>
<path d="M1094 2270 c0 -69 1 -97 3 -62 2 34 2 90 0 125 -2 34 -3 6 -3 -63z"/>
<path d="M1474 2285 c0 -55 1 -76 3 -47 2 29 2 74 0 100 -2 26 -3 2 -3 -53z"/>
</g>
</svg>
