<?xml version="1.0" standalone="no"?>
<!DOCTYPE svg PUBLIC "-//W3C//DTD SVG 20010904//EN"
 "http://www.w3.org/TR/2001/REC-SVG-20010904/DTD/svg10.dtd">
<svg version="1.0" xmlns="http://www.w3.org/2000/svg"
 width="244.000000pt" height="305.000000pt" viewBox="0 0 244.000000 305.000000"
 preserveAspectRatio="xMidYMid meet">
<metadata>
Created by potrace 1.16, written by Peter Selinger 2001-2019
</metadata>
<g transform="translate(0.000000,305.000000) scale(0.100000,-0.100000)"
fill="#000000" stroke="none">
<path d="M888 2881 c-3 -17 -1 -31 4 -31 4 0 8 -214 8 -475 0 -261 -2 -475 -5
-475 -3 0 -24 12 -47 27 l-41 28 6 230 c6 222 19 361 53 548 9 48 14 90 11 93
-7 7 -47 -210 -62 -344 -7 -64 -17 -216 -21 -338 l-7 -220 31 -13 c16 -7 40
-23 52 -36 l22 -23 53 36 54 37 1 143 c0 257 -25 512 -76 752 -19 86 -30 105
-36 61z"/>
<path d="M1568 2400 c2 -275 0 -500 -3 -500 -3 0 -24 12 -47 27 l-41 28 6 210
c6 200 18 325 51 535 16 102 14 134 -3 48 -35 -174 -53 -355 -67 -665 l-6
-151 28 -18 c16 -10 42 -29 58 -42 l29 -23 26 24 c14 13 39 31 54 41 l28 17
-6 167 c-7 205 -21 381 -40 504 -18 122 -56 298 -64 298 -3 0 -5 -225 -3 -500z"/>
<path d="M1162 2840 c0 -14 2 -19 5 -12 2 6 2 18 0 25 -3 6 -5 1 -5 -13z"/>
<path d="M1294 2618 c-4 -128 -10 -222 -11 -208 -2 14 -13 63 -25 109 l-22 84
-16 -49 c-15 -43 -43 -185 -53 -269 -2 -16 -5 89 -7 235 l-3 265 -8 -190 c-4
-104 -7 -311 -7 -458 0 -148 -2 -271 -5 -273 -3 -3 -10 28 -17 68 -11 71 -26
138 -36 168 -10 28 -23 -13 -35 -110 l-11 -94 36 -29 c33 -27 36 -33 36 -83 0
-60 -16 -77 -52 -55 -28 17 -38 6 -27 -31 15 -53 47 -62 81 -23 12 14 24 25
27 25 4 0 7 -27 7 -60 l1 -60 -32 0 c-19 0 -39 -8 -49 -19 -17 -18 -16 -20 3
-26 15 -4 21 -15 21 -36 0 -16 -4 -29 -8 -29 -4 0 -29 25 -55 56 -32 38 -49
69 -53 96 -4 22 -13 42 -20 45 -23 8 -16 52 12 80 22 22 32 25 70 20 42 -4 44
-3 44 22 0 38 -24 67 -60 75 -45 8 -85 -16 -106 -64 l-18 -40 -21 43 c-16 31
-31 45 -55 53 -63 21 -124 -13 -118 -66 3 -23 7 -24 46 -22 37 3 47 -1 77 -31
38 -38 44 -61 18 -75 -39 -22 -8 -135 60 -225 21 -26 37 -51 37 -55 0 -5 -13
-21 -29 -36 -16 -16 -35 -42 -42 -58 -10 -25 -9 -33 8 -56 23 -31 87 -52 105
-34 8 8 8 23 -1 57 -14 54 -1 91 27 79 9 -3 28 -9 40 -12 21 -4 23 -9 17 -40
-15 -83 -28 -103 -78 -124 -42 -19 -51 -19 -74 -7 -48 26 -78 77 -80 138 -2
67 -11 139 -18 152 -4 5 -21 9 -39 9 -85 0 -89 -88 -9 -215 113 -181 116 -201
43 -325 -27 -47 -93 -161 -146 -253 -53 -92 -99 -166 -101 -163 -2 2 28 103
67 224 l71 220 45 11 c53 13 66 38 66 119 0 56 -8 71 -104 199 -45 60 -50 134
-14 187 14 22 26 42 26 47 0 17 -46 39 -83 39 -79 0 -98 -35 -67 -125 38 -109
24 -168 -49 -214 -44 -28 -281 -165 -330 -190 -45 -24 -15 8 124 134 139 125
140 126 182 121 27 -4 43 -1 45 7 9 23 -14 207 -25 200 -6 -4 -7 -38 -3 -95
l7 -89 -33 6 c-35 6 -43 0 -233 -175 -39 -36 -94 -87 -123 -114 -30 -26 -51
-50 -48 -53 5 -5 235 65 386 118 85 30 100 40 100 72 0 21 5 21 62 1 104 -35
172 -163 87 -164 -30 0 -25 14 -179 -474 -17 -54 -29 -102 -28 -106 2 -4 32
25 68 65 219 240 326 359 332 369 4 7 1 30 -7 52 -7 21 -11 43 -8 47 9 14 191
6 204 -9 9 -11 8 -59 -1 -195 -9 -139 -9 -184 0 -192 9 -9 10 -4 6 23 -4 19
-2 55 3 80 8 40 9 41 10 13 1 -17 5 -34 10 -37 5 -3 11 -23 14 -43 7 -55 86
-425 92 -431 3 -3 5 -1 5 3 0 25 93 461 100 468 4 5 17 -38 28 -95 l20 -103 1
63 c1 39 -3 62 -10 62 -8 0 -10 24 -6 77 3 50 2 64 -2 38 l-8 -40 -3 45 c-1
25 -1 50 0 55 8 32 10 118 2 107 -6 -9 -12 -6 -20 13 -7 14 -12 34 -12 45 0
23 16 35 23 18 3 -8 6 -6 6 4 1 28 35 38 126 38 l87 0 -6 -36 c-4 -19 -9 -41
-12 -47 -6 -16 140 -184 344 -397 54 -56 61 -61 53 -35 -6 17 -44 140 -86 275
-42 135 -79 252 -84 260 -4 8 -22 18 -39 22 -27 7 -32 13 -32 38 0 44 59 105
120 125 55 18 70 14 70 -18 0 -25 -7 -23 284 -116 104 -33 192 -58 195 -55 3
3 -5 15 -19 26 -14 11 -68 59 -120 107 -235 216 -231 213 -266 206 l-32 -6 5
97 c5 72 3 95 -5 90 -7 -4 -12 -28 -12 -52 0 -25 -8 -75 -17 -111 -15 -57 -16
-66 -3 -73 8 -5 58 -36 110 -69 52 -32 135 -83 183 -113 49 -29 83 -54 75 -56
-15 -3 -338 114 -351 127 -5 5 -4 18 3 31 10 19 8 25 -20 49 -43 36 -50 100
-21 185 26 74 26 101 1 126 -23 23 -75 26 -115 8 -31 -14 -32 -29 0 -76 45
-65 31 -126 -53 -235 -51 -67 -77 -124 -86 -190 -6 -42 30 -118 183 -387 71
-125 89 -167 50 -120 -12 14 -47 54 -79 90 -32 36 -90 103 -128 150 l-71 85 5
80 c9 150 12 157 86 280 81 135 95 188 59 224 -21 21 -75 29 -86 12 -8 -14
-16 -68 -19 -136 -3 -70 -13 -91 -61 -134 -42 -37 -48 -37 -100 -11 -22 11
-47 18 -56 15 -20 -7 -39 39 -39 96 0 37 2 38 48 52 42 12 48 12 60 -2 8 -10
11 -27 7 -46 -4 -16 -9 -39 -12 -51 -11 -49 100 -30 113 20 8 33 -1 58 -36 98
-16 18 -30 37 -30 42 0 4 13 25 29 45 66 83 104 213 67 227 -26 10 -19 43 19
81 28 28 41 34 67 32 44 -4 60 7 52 34 -25 83 -132 84 -171 2 -17 -36 -33 -46
-33 -21 0 23 -47 73 -75 80 -34 9 -83 -18 -96 -51 -15 -41 -6 -52 40 -46 69 9
126 -51 89 -95 -8 -9 -20 -35 -26 -58 -13 -46 -78 -134 -98 -134 -23 0 -17 47
7 53 18 5 19 8 7 26 -9 15 -23 21 -48 21 l-35 0 -1 60 c0 33 1 60 4 60 3 0 15
-11 28 -25 13 -14 30 -25 38 -25 20 0 46 39 46 68 0 19 -4 23 -17 17 -54 -23
-82 8 -69 78 5 26 16 41 41 56 34 19 34 21 29 73 -9 83 -25 158 -34 158 -9 0
-23 -60 -39 -158 -11 -71 -30 -91 -31 -31 -2 311 -11 933 -14 936 -2 2 -7
-101 -12 -229z m-74 -428 c-3 -184 -8 -288 -10 -230 -2 58 -5 88 -7 68 -2 -21
-8 -38 -13 -38 -11 0 -4 -88 10 -124 13 -36 14 -157 0 -136 -7 11 -10 4 -10
-27 0 -45 16 -59 23 -20 2 12 5 1 6 -25 1 -39 -2 -46 -15 -41 -33 13 -46 103
-19 139 16 21 20 81 6 103 -7 11 -12 7 -20 -20 -10 -32 -10 -31 -4 11 4 25 6
56 5 70 -5 64 -1 214 8 295 15 124 42 317 44 313 2 -2 0 -154 -4 -338z m-292
-619 c13 -29 47 -73 84 -108 35 -32 69 -66 76 -75 12 -15 11 -17 -8 -13 -54
10 -124 78 -165 159 -25 49 -32 86 -17 86 4 0 17 -22 30 -49z m652 41 c0 -54
-75 -170 -137 -211 -26 -17 -50 -31 -55 -31 -23 0 -1 33 58 85 43 38 75 76 92
111 23 48 42 68 42 46z m-299 -55 c-13 -13 -15 11 -4 40 7 16 8 15 11 -6 2
-13 -1 -28 -7 -34z m-114 21 c-3 -8 -6 -5 -6 6 -1 11 2 17 5 13 3 -3 4 -12 1
-19z m33 -9 c0 -11 -4 -17 -10 -14 -5 3 -10 15 -10 26 0 11 5 17 10 14 6 -3
10 -15 10 -26z m107 9 c-3 -8 -6 -5 -6 6 -1 11 2 17 5 13 3 -3 4 -12 1 -19z
m-70 -100 c-2 -13 -4 -5 -4 17 -1 22 1 32 4 23 2 -10 2 -28 0 -40z m-87 18
c15 -40 22 -139 11 -171 -8 -26 -9 -22 -10 32 -1 67 -8 96 -22 87 -5 -3 -9 13
-9 35 0 45 16 54 30 17z m200 -12 c0 -19 -4 -33 -9 -30 -11 7 -21 -28 -21 -77
0 -26 -4 -36 -11 -31 -21 12 9 174 32 174 5 0 9 -16 9 -36z m-233 -116 c-3 -8
-6 -5 -6 6 -1 11 2 17 5 13 3 -3 4 -12 1 -19z m240 0 c-3 -8 -6 -5 -6 6 -1 11
2 17 5 13 3 -3 4 -12 1 -19z m-260 -115 c-3 -10 -5 -2 -5 17 0 19 2 27 5 18 2
-10 2 -26 0 -35z m-13 -57 c-3 -15 -8 -25 -11 -23 -2 3 -1 17 3 31 3 15 8 25
11 23 2 -3 1 -17 -3 -31z m53 2 c-3 -8 -6 -5 -6 6 -1 11 2 17 5 13 3 -3 4 -12
1 -19z m177 -12 c-3 -14 -10 -26 -15 -26 -5 0 -9 2 -9 4 0 2 -3 12 -7 22 -4
12 -3 15 5 10 7 -4 15 0 18 9 10 24 16 11 8 -19z m23 2 c-3 -7 -5 -2 -5 12 0
14 2 19 5 13 2 -7 2 -19 0 -25z m-155 -10 c-2 -10 -8 -18 -13 -18 -5 0 -9 8
-9 18 0 10 6 19 14 19 8 0 11 -8 8 -19z m-76 -53 c-2 -7 2 -23 11 -35 14 -20
14 -22 -3 -18 -13 2 -19 14 -22 42 -2 27 0 36 8 31 6 -4 9 -13 6 -20z m274 -2
c0 -29 -15 -61 -24 -52 -5 5 14 79 21 79 2 0 3 -12 3 -27z m-143 -205 c-3 -8
-6 -5 -6 6 -1 11 2 17 5 13 3 -3 4 -12 1 -19z m-77 -52 c0 -8 -7 -19 -15 -26
-12 -10 -15 -10 -15 3 0 25 11 47 21 41 5 -3 9 -11 9 -18z m57 -234 c1 -136 5
-267 8 -292 15 -103 -6 -21 -51 201 -40 198 -46 241 -36 260 11 21 11 19 7
-21 l-4 -45 15 54 c8 29 25 62 37 72 12 10 22 18 22 19 0 0 1 -111 2 -248z"/>
<path d="M1173 2580 c0 -25 2 -35 4 -22 2 12 2 32 0 45 -2 12 -4 2 -4 -23z"/>
<path d="M1323 2500 c0 -25 2 -35 4 -22 2 12 2 32 0 45 -2 12 -4 2 -4 -23z"/>
<path d="M1394 1287 c-3 -9 1 -24 11 -33 15 -15 15 -14 9 12 -9 37 -12 41 -20
21z"/>
<path d="M1112 600 c0 -14 2 -19 5 -12 2 6 2 18 0 25 -3 6 -5 1 -5 -13z"/>
<path d="M1087 503 c-4 -3 -7 -22 -6 -42 l1 -36 9 39 c9 39 8 52 -4 39z"/>
</g>
</svg>
