<?xml version="1.0" standalone="no"?>
<!DOCTYPE svg PUBLIC "-//W3C//DTD SVG 20010904//EN"
 "http://www.w3.org/TR/2001/REC-SVG-20010904/DTD/svg10.dtd">
<svg version="1.0" xmlns="http://www.w3.org/2000/svg"
 width="244.000000pt" height="305.000000pt" viewBox="0 0 244.000000 305.000000"
 preserveAspectRatio="xMidYMid meet">
<metadata>
Created by potrace 1.16, written by Peter Selinger 2001-2019
</metadata>
<g transform="translate(0.000000,305.000000) scale(0.100000,-0.100000)"
fill="#000000" stroke="none">
<path d="M1542 2813 c-45 -203 -65 -382 -78 -709 l-7 -172 43 -28 c24 -16 49
-33 55 -38 9 -7 23 -1 44 17 17 14 41 29 52 32 22 7 22 8 16 244 -4 130 -14
288 -22 351 -19 151 -47 308 -52 293 -3 -7 2 -54 11 -105 34 -208 56 -455 56
-640 0 -95 -2 -107 -19 -113 -10 -3 -26 -14 -36 -25 -10 -11 -22 -20 -27 -20
-4 0 -8 217 -7 483 1 290 4 472 10 457 6 -19 7 -15 3 15 -10 69 -20 59 -42
-42z"/>
<path d="M897 2893 c-12 -19 -58 -285 -72 -413 -8 -74 -18 -230 -21 -346 l-7
-212 36 -17 c19 -9 43 -25 52 -35 17 -19 18 -19 48 6 17 14 41 30 54 35 27 10
27 8 13 324 -9 209 -29 385 -54 500 -20 87 -19 55 3 -97 26 -173 41 -379 41
-550 l0 -137 -30 -18 c-16 -9 -30 -21 -30 -25 0 -4 -7 -8 -15 -8 -13 0 -15 60
-15 480 0 264 2 480 5 480 2 0 9 -15 15 -32 9 -32 10 -32 4 7 -7 46 -19 72
-27 58z"/>
<path d="M1279 2644 l-1 -179 -22 70 c-21 65 -23 68 -29 40 -4 -16 -16 -61
-27 -100 l-19 -70 0 193 c1 106 -1 196 -5 199 -3 4 -6 -69 -6 -162 0 -233 -20
-758 -29 -768 -4 -4 -13 32 -20 80 -16 116 -30 168 -42 156 -11 -11 -37 -180
-32 -203 2 -8 20 -26 40 -38 34 -23 35 -25 31 -73 -6 -61 -20 -79 -48 -61 -33
20 -43 15 -36 -20 13 -63 43 -74 88 -31 l28 27 0 -42 c0 -22 5 -44 10 -47 6
-3 10 -15 10 -25 0 -16 -4 -17 -28 -11 -31 9 -62 1 -81 -22 -11 -14 -9 -17 16
-22 52 -12 53 -13 46 -47 -8 -44 -8 -44 -41 -17 -47 38 -102 119 -102 149 0
15 -9 35 -20 45 -27 25 -25 41 11 77 27 28 34 30 76 24 l45 -6 -6 33 c-7 38
-48 77 -79 77 -33 0 -67 -28 -83 -66 -15 -35 -34 -46 -34 -19 0 8 -12 29 -28
46 -21 23 -37 31 -65 32 -47 1 -89 -35 -85 -73 3 -23 7 -25 44 -22 32 2 48 -2
71 -22 40 -34 46 -60 21 -91 -16 -20 -19 -34 -13 -62 8 -45 45 -120 79 -161
33 -39 33 -57 -4 -98 -44 -51 -49 -82 -16 -111 58 -49 118 -35 95 24 -11 29
-12 80 -1 86 4 2 35 -5 70 -16 42 -13 60 -23 55 -30 -5 -7 -12 -34 -18 -62 -9
-46 -12 -50 -40 -51 -16 0 -48 -8 -69 -18 -50 -21 -67 -15 -108 37 -27 33 -33
51 -34 92 -2 66 -14 137 -27 153 -13 17 -48 15 -75 -4 -45 -31 -19 -133 67
-258 54 -78 62 -103 65 -199 2 -51 7 -99 10 -108 8 -17 -22 -56 -194 -257 -52
-60 -97 -109 -98 -107 -4 4 25 59 163 309 86 157 87 160 82 215 -6 70 -28 119
-90 198 -73 94 -85 159 -42 228 13 22 25 45 25 51 0 16 -46 34 -90 34 -69 0
-86 -50 -50 -153 31 -88 23 -143 -27 -183 -23 -18 -24 -23 -13 -43 7 -14 8
-27 3 -32 -10 -10 -329 -129 -346 -129 -16 0 29 31 205 141 97 60 168 110 168
119 0 8 -7 37 -15 64 -8 27 -15 71 -15 97 0 26 -5 51 -12 55 -8 5 -10 -18 -5
-90 l5 -97 -33 7 c-30 5 -39 1 -97 -54 -34 -32 -76 -72 -93 -87 -156 -142
-215 -199 -211 -203 3 -2 111 31 240 73 221 73 236 79 236 102 0 34 21 37 80
12 58 -25 110 -85 110 -126 0 -18 -7 -25 -30 -29 -16 -4 -34 -12 -39 -18 -8
-10 -39 -106 -151 -474 -15 -50 -26 -92 -23 -92 5 0 89 90 185 202 42 48 94
106 116 130 95 102 97 106 84 152 -6 22 -7 45 -3 49 5 5 43 9 84 9 95 0 140
-21 145 -70 2 -20 -4 -41 -17 -59 -20 -27 -20 -31 -6 -88 8 -33 14 -77 15 -98
0 -21 5 -47 10 -57 9 -17 52 -213 82 -373 5 -32 12 -57 13 -55 2 2 22 95 45
208 23 113 44 206 45 208 2 2 8 -25 14 -60 l10 -63 -6 65 c-9 90 -7 123 9 214
13 71 13 81 -1 96 -19 20 -41 56 -41 67 0 5 5 1 10 -7 8 -12 10 -11 10 7 0 12
12 30 29 42 24 18 44 21 121 21 l93 0 -8 -32 c-16 -69 -16 -70 185 -296 107
-121 196 -217 198 -213 4 11 -167 553 -179 568 -6 7 -22 13 -36 13 -78 0 -2
130 96 165 48 16 61 13 61 -15 0 -26 4 -28 255 -110 121 -40 224 -75 229 -78
38 -22 -66 80 -267 262 -100 91 -110 97 -139 91 l-31 -7 7 78 c7 92 -9 140
-18 53 -3 -30 -7 -76 -8 -104 l-3 -50 43 3 c48 4 42 8 225 -161 59 -55 105
-102 103 -104 -3 -3 -89 44 -192 103 -132 77 -192 117 -205 139 -23 36 -24
100 -4 148 21 50 19 110 -3 130 -24 22 -90 22 -120 1 l-23 -16 32 -55 c31 -53
31 -57 20 -108 -8 -37 -26 -70 -61 -113 -64 -80 -80 -112 -80 -165 0 -76 15
-102 66 -118 l46 -14 69 -215 c38 -118 68 -219 66 -224 -1 -4 -67 104 -146
240 -132 228 -144 253 -144 299 0 33 6 62 20 85 12 19 44 73 72 119 42 70 51
92 51 131 0 33 -6 52 -18 63 -22 20 -65 22 -79 5 -12 -15 -25 -98 -24 -151 2
-46 -18 -86 -59 -121 -36 -30 -47 -31 -86 -11 -16 8 -47 15 -70 15 -40 0 -40
-1 -37 -32 2 -23 -4 -14 -17 27 -16 50 -17 66 -8 97 10 33 18 40 66 58 74 28
84 16 67 -77 -6 -36 -5 -44 10 -50 21 -7 83 23 98 48 14 23 2 59 -33 96 -36
39 -37 53 -5 91 63 75 107 214 71 228 -26 10 -19 53 14 86 25 25 36 29 72 26
40 -2 43 -1 46 23 4 36 -26 69 -70 76 -33 5 -41 2 -73 -30 -19 -19 -35 -42
-35 -51 0 -25 -19 -19 -26 8 -7 30 -41 61 -73 69 -32 8 -80 -18 -92 -50 -15
-41 -6 -52 40 -46 69 9 126 -51 89 -95 -8 -9 -20 -36 -27 -60 -8 -28 -32 -64
-73 -107 -33 -36 -64 -65 -69 -65 -5 0 -9 18 -9 40 0 37 2 40 40 51 39 12 40
13 23 31 -13 15 -28 19 -60 16 -36 -3 -43 0 -43 14 0 10 5 18 10 18 6 0 10 20
10 45 0 51 10 57 34 20 9 -14 25 -25 36 -25 23 0 50 36 50 68 0 19 -4 23 -17
17 -45 -18 -53 -17 -63 10 -22 59 -7 103 45 132 13 8 17 22 17 57 -1 57 -22
165 -33 171 -8 6 -24 -62 -41 -172 -6 -40 -14 -73 -18 -73 -4 0 -11 80 -14
178 -4 97 -11 215 -17 260 -5 46 -9 180 -7 297 1 118 -1 217 -5 221 -4 4 -7
-73 -8 -172z m-10 -457 c1 -162 -2 -216 -11 -211 -15 9 -4 -194 11 -209 16
-16 14 -132 -3 -146 -24 -20 -27 11 -24 243 1 122 2 322 1 446 -2 214 -1 222
12 160 9 -43 14 -137 14 -283z m28 -209 c-2 -35 -3 -9 -3 57 0 66 1 94 3 63 2
-32 2 -86 0 -120z m1 -93 c11 18 12 16 6 -15 -7 -42 -24 -64 -24 -31 0 12 -4
19 -10 16 -12 -7 -12 1 -3 35 l7 25 6 -25 c6 -24 6 -24 18 -5z m9 -197 c-2
-13 -4 -3 -4 22 0 25 2 35 4 23 2 -13 2 -33 0 -45z m-373 -115 c22 -53 118
-153 166 -173 28 -12 42 -40 20 -40 -74 0 -220 154 -220 233 0 40 13 33 34
-20z m634 0 c-24 -86 -150 -213 -212 -213 -28 0 -17 19 26 46 69 44 126 104
154 161 29 59 48 63 32 6z m-358 -5 c0 -13 3 -34 6 -48 4 -20 3 -22 -5 -10 -6
8 -11 29 -11 45 0 23 -3 27 -10 15 -5 -8 -10 -10 -10 -4 0 6 3 14 7 17 13 13
23 7 23 -15z m50 -55 c-10 -16 -11 -15 -6 7 3 14 6 34 7 45 1 13 3 11 6 -7 2
-15 -1 -35 -7 -45z m-23 -35 c-2 -13 -4 -5 -4 17 -1 22 1 32 4 23 2 -10 2 -28
0 -40z m80 -35 c-3 -10 -5 -2 -5 17 0 19 2 27 5 18 2 -10 2 -26 0 -35z m-160
15 c-3 -8 -6 -5 -6 6 -1 11 2 17 5 13 3 -3 4 -12 1 -19z m140 -130 c-2 -18 -4
-6 -4 27 0 33 2 48 4 33 2 -15 2 -42 0 -60z m-150 30 c-3 -8 -6 -5 -6 6 -1 11
2 17 5 13 3 -3 4 -12 1 -19z m30 -40 c-2 -13 -4 -3 -4 22 0 25 2 35 4 23 2
-13 2 -33 0 -45z m-59 -165 c-6 -35 -14 -60 -18 -58 -5 3 -6 15 -3 28 26 113
37 129 21 30z m189 15 c-3 -7 -5 -2 -5 12 0 14 2 19 5 13 2 -7 2 -19 0 -25z
m-159 -97 c3 -8 -1 -12 -9 -9 -7 2 -15 10 -17 17 -3 8 1 12 9 9 7 -2 15 -10
17 -17z m202 9 c0 -5 -7 -10 -16 -10 -8 0 -12 5 -9 10 3 6 10 10 16 10 5 0 9
-4 9 -10z m-113 -162 c-3 -8 -6 -5 -6 6 -1 11 2 17 5 13 3 -3 4 -12 1 -19z
m63 -168 c7 -52 11 -113 8 -135 -5 -39 -58 -308 -62 -312 -5 -6 -5 498 0 540
l6 47 17 -22 c11 -14 23 -59 31 -118z m37 44 c3 -8 1 -34 -5 -57 l-10 -42 -1
35 c-1 19 -4 45 -7 58 -7 25 13 31 23 6z"/>
<path d="M1250 1700 c0 -22 5 -40 10 -40 6 0 10 18 10 40 0 22 -4 40 -10 40
-5 0 -10 -18 -10 -40z"/>
<path d="M1253 775 c0 -22 2 -30 4 -17 2 12 2 30 0 40 -3 9 -5 -1 -4 -23z"/>
<path d="M1121 495 l1 -70 9 53 c6 34 5 60 -1 70 -7 12 -9 -3 -9 -53z"/>
</g>
</svg>
