<?xml version="1.0" standalone="no"?>
<!DOCTYPE svg PUBLIC "-//W3C//DTD SVG 20010904//EN"
 "http://www.w3.org/TR/2001/REC-SVG-20010904/DTD/svg10.dtd">
<svg version="1.0" xmlns="http://www.w3.org/2000/svg"
 width="244.000000pt" height="305.000000pt" viewBox="0 0 244.000000 305.000000"
 preserveAspectRatio="xMidYMid meet">
<metadata>
Created by potrace 1.16, written by Peter Selinger 2001-2019
</metadata>
<g transform="translate(0.000000,305.000000) scale(0.100000,-0.100000)"
fill="#000000" stroke="none">
<path d="M910 2896 c0 -7 -2 -29 -5 -47 -4 -26 -3 -30 4 -14 6 13 10 -148 10
-457 1 -263 -2 -478 -6 -478 -5 1 -25 15 -46 33 l-38 33 11 238 c6 130 20 303
30 384 31 233 31 232 15 167 -33 -139 -65 -492 -65 -733 l0 -102 28 -11 c15
-6 37 -20 49 -31 l22 -20 28 21 c15 12 39 30 53 40 l24 19 -12 263 c-7 145
-19 314 -27 374 -21 153 -57 335 -67 335 -4 0 -8 -6 -8 -14z"/>
<path d="M1540 2888 c0 -9 -3 -25 -6 -35 -5 -15 -4 -15 5 -3 8 11 11 -120 11
-467 0 -266 -3 -483 -7 -483 -4 0 -24 12 -45 26 -37 26 -38 28 -38 88 0 33 5
147 10 251 8 162 19 265 54 522 3 24 0 18 -9 -17 -27 -108 -54 -377 -61 -611
l-7 -235 34 -22 c19 -12 42 -27 51 -34 14 -10 21 -9 37 7 12 10 31 23 44 29
21 11 22 18 25 151 5 226 -19 506 -65 745 -15 78 -33 127 -33 88z"/>
<path d="M1121 2845 c-1 -22 -2 -218 -2 -435 0 -341 -2 -389 -13 -347 -7 26
-15 50 -18 53 -3 3 -10 -30 -16 -73 -19 -134 -19 -151 3 -167 18 -14 15 -15
-38 -13 -54 2 -61 0 -83 -28 -13 -16 -24 -38 -24 -47 0 -10 -4 -18 -10 -18 -5
0 -10 7 -10 15 0 8 -13 29 -29 47 -22 25 -37 32 -64 32 -45 0 -77 -27 -77 -66
0 -26 3 -28 39 -28 27 0 49 -8 69 -25 38 -32 45 -59 21 -86 -10 -12 -19 -30
-19 -39 0 -40 33 -121 70 -172 22 -31 40 -59 40 -62 0 -3 -16 -26 -35 -52 -41
-54 -44 -86 -11 -117 18 -17 22 -27 15 -38 -8 -11 -15 -8 -39 21 -24 27 -30
44 -30 80 0 25 -3 72 -7 105 -6 46 -12 61 -26 63 -57 11 -95 -36 -82 -100 4
-18 30 -73 59 -123 69 -119 80 -148 72 -187 -4 -18 -9 -48 -13 -66 -4 -28 -57
-130 -192 -376 -16 -28 -34 -62 -40 -74 -29 -55 -19 -3 29 160 77 260 74 253
120 267 49 15 62 38 62 111 0 65 -6 80 -74 169 -72 96 -85 169 -38 228 40 51
17 83 -58 83 -68 0 -88 -48 -57 -135 19 -52 19 -119 0 -155 -9 -17 -50 -52
-100 -85 -101 -65 -293 -180 -282 -168 4 4 67 68 140 141 l132 133 44 -6 44
-7 -6 54 c-4 29 -7 77 -7 106 0 32 -4 52 -11 52 -8 0 -10 -28 -7 -90 l4 -90
-30 5 c-29 5 -44 -7 -216 -176 -102 -100 -176 -180 -165 -177 17 5 330 114
423 148 23 9 32 18 32 35 0 35 23 37 82 7 93 -47 129 -136 62 -155 -27 -8 -34
-17 -48 -66 -9 -31 -46 -155 -81 -276 -36 -121 -64 -225 -63 -232 2 -7 38 29
80 80 42 50 127 151 188 222 83 98 109 135 105 150 -3 11 -8 35 -12 53 l-6 33
82 -2 c45 -2 85 -7 88 -12 3 -5 -10 -88 -28 -185 -26 -136 -36 -169 -41 -146
-4 17 -5 6 -2 -24 3 -36 1 -52 -6 -47 -6 4 -10 -11 -9 -42 1 -56 -2 -63 60
140 26 85 46 133 50 124 7 -12 48 -215 100 -496 10 -57 21 -106 23 -108 2 -2
7 13 10 34 17 97 49 264 62 317 7 33 21 108 30 168 9 60 20 105 24 101 7 -7
27 -70 67 -206 2 -10 7 -17 9 -15 2 3 -15 67 -37 144 -36 124 -50 226 -34 242
10 10 15 -7 40 -139 14 -74 32 -167 41 -208 8 -41 12 -76 9 -79 -3 -3 -5 3 -5
13 0 10 -3 16 -6 13 -3 -4 2 -34 12 -67 9 -34 19 -60 21 -58 2 3 -6 92 -17
198 -36 331 -36 335 -11 342 21 5 101 -2 101 -10 0 -2 -5 -24 -11 -48 l-11
-44 98 -118 c55 -65 101 -120 104 -123 3 -3 41 -47 84 -98 43 -51 81 -90 84
-88 2 3 -10 51 -27 108 -16 57 -52 180 -79 273 -49 169 -50 170 -86 188 -40
19 -42 24 -22 70 17 41 51 72 100 92 46 19 66 14 66 -17 0 -21 20 -30 213 -97
116 -41 219 -76 227 -79 8 -2 -64 75 -160 172 -169 171 -176 176 -208 171
l-34 -6 7 90 c5 58 4 91 -2 91 -6 0 -13 -31 -16 -68 -4 -38 -12 -83 -18 -100
-6 -18 -9 -39 -6 -46 3 -8 85 -67 181 -132 97 -64 174 -119 171 -122 -2 -2
-79 24 -170 59 l-166 64 6 33 c5 28 2 38 -19 57 -38 35 -43 86 -17 172 25 87
26 102 5 131 -18 27 -78 30 -112 6 -28 -19 -28 -27 3 -72 44 -65 26 -138 -65
-262 -22 -31 -45 -78 -53 -108 -7 -29 -16 -49 -20 -46 -14 14 -6 62 16 105 13
24 43 79 65 122 51 94 56 147 18 173 -14 8 -35 14 -47 12 -19 -2 -24 -13 -35
-65 -7 -34 -12 -82 -11 -107 2 -38 -3 -50 -25 -73 -36 -35 -46 -23 -19 21 22
35 22 35 3 78 -10 24 -26 49 -35 57 -23 18 -21 31 9 72 65 85 94 200 59 229
-23 19 -18 39 20 77 29 29 40 34 72 31 33 -3 38 0 41 20 2 14 -7 33 -28 53
-24 25 -36 30 -58 25 -31 -8 -82 -58 -82 -82 0 -23 -24 -11 -28 14 -2 12 -17
33 -33 47 -26 21 -37 24 -71 19 -39 -7 -40 -6 -27 14 11 17 10 46 -4 169 -9
81 -19 256 -22 388 -5 269 -15 445 -24 445 -3 0 -5 -199 -3 -442 2 -244 0
-458 -3 -476 -13 -71 -25 -14 -25 119 0 77 -4 138 -9 135 -4 -3 -11 29 -15 71
-7 71 -34 220 -54 288 -8 26 -10 27 -15 10 -15 -48 -47 -228 -58 -320 -6 -55
-12 -101 -13 -103 -2 -1 -6 125 -10 280 -8 273 -21 487 -25 403z m108 -828 c1
-316 -2 -397 -11 -390 -7 4 -21 6 -30 5 -11 -2 -18 3 -18 13 0 9 5 13 10 10 6
-3 10 1 10 10 0 9 4 13 10 10 12 -7 8 147 -9 355 -11 127 -10 164 5 295 13
107 20 141 25 120 4 -16 7 -209 8 -428z m98 -144 c-3 -10 -5 -4 -5 12 0 17 2
24 5 18 2 -7 2 -21 0 -30z m-180 -5 c-3 -7 -5 -2 -5 12 0 14 2 19 5 13 2 -7 2
-19 0 -25z m43 -82 c0 -38 -3 -66 -7 -62 -4 3 -7 40 -7 80 -1 41 2 69 6 63 4
-7 8 -43 8 -81z m167 27 c-3 -10 -5 -4 -5 12 0 17 2 24 5 18 2 -7 2 -21 0 -30z
m-240 -5 c-3 -7 -5 -2 -5 12 0 14 2 19 5 13 2 -7 2 -19 0 -25z m-25 -61 c12
-18 9 -30 -4 -24 -48 19 -48 20 -48 -5 0 -29 26 -68 46 -68 22 0 17 -57 -7
-83 l-20 -22 20 -3 c13 -2 23 -13 27 -30 3 -15 7 -33 10 -39 2 -7 0 -13 -3
-13 -12 0 -53 43 -53 56 0 7 -9 18 -20 24 -25 13 -50 61 -50 95 0 14 -7 28
-15 31 -22 9 -18 55 8 81 18 19 29 22 62 17 22 -2 43 -10 47 -17z m391 -5 c30
-31 34 -54 13 -71 -7 -6 -16 -29 -20 -51 -4 -25 -18 -53 -36 -72 -17 -17 -30
-35 -30 -39 0 -9 -41 -49 -50 -49 -15 0 4 61 21 71 23 12 24 23 3 43 -18 19
-16 82 3 79 17 -4 46 54 38 75 -4 12 -8 13 -17 4 -17 -17 -38 -15 -38 3 0 17
32 33 66 34 11 1 32 -12 47 -27z m-336 -74 c-3 -7 -5 -2 -5 12 0 14 2 19 5 13
2 -7 2 -19 0 -25z m180 0 c-3 -7 -5 -2 -5 12 0 14 2 19 5 13 2 -7 2 -19 0 -25z
m-377 -98 c13 -27 32 -57 42 -67 10 -9 18 -30 18 -46 l0 -30 -31 39 c-38 48
-54 79 -64 122 -10 48 8 39 35 -18z m243 33 c4 -3 3 -11 -3 -18 -15 -18 -40
-8 -40 16 0 17 13 18 43 2z m120 -24 c-11 -11 -43 -1 -43 12 0 5 10 13 23 18
16 6 23 5 25 -6 2 -8 0 -19 -5 -24z m34 19 c-3 -8 -6 -5 -6 6 -1 11 2 17 5 13
3 -3 4 -12 1 -19z m200 -19 c-5 -41 -49 -119 -67 -119 -16 0 -11 30 9 58 10
15 26 44 34 65 21 49 31 47 24 -4z m-420 9 c-3 -8 -6 -5 -6 6 -1 11 2 17 5 13
3 -3 4 -12 1 -19z m113 -88 c-5 -22 -8 -27 -9 -13 -1 21 9 56 14 51 2 -2 0
-19 -5 -38z m-80 -36 c23 -63 21 -99 -2 -43 -18 41 -32 99 -25 99 3 0 15 -25
27 -56z m177 29 c-7 -37 -37 -106 -43 -101 -5 6 36 128 43 128 3 0 3 -12 0
-27z m93 -85 c0 -5 -4 -8 -10 -8 -5 0 -10 10 -10 23 0 18 2 19 10 7 5 -8 10
-18 10 -22z m-373 0 c-3 -8 -6 -5 -6 6 -1 11 2 17 5 13 3 -3 4 -12 1 -19z m73
-34 c0 -8 -7 -14 -15 -14 -8 0 -15 9 -15 20 0 13 5 18 15 14 8 -4 15 -12 15
-20z m237 1 c-4 -8 -11 -15 -17 -15 -14 0 -13 27 3 33 16 6 21 1 14 -18z
m-357 -125 c-10 -23 -10 -23 -6 8 3 17 1 32 -4 32 -14 0 -12 18 3 34 10 11 13
8 15 -18 2 -17 -2 -43 -8 -56z m451 39 l-9 -34 -1 31 c-1 17 2 34 6 37 12 13
14 -1 4 -34z m-385 -39 c8 -35 12 -65 10 -67 -5 -5 -21 49 -32 108 -11 58 6
25 22 -41z m102 58 c-6 -18 -28 -21 -28 -4 0 9 7 16 16 16 9 0 14 -5 12 -12z
m140 -7 c3 -8 -1 -12 -9 -9 -7 2 -15 10 -17 17 -3 8 1 12 9 9 7 -2 15 -10 17
-17z m99 -24 c-7 -49 -25 -102 -32 -95 -3 3 -1 18 4 34 5 16 12 46 16 67 8 52
19 47 12 -6z m-295 -61 c11 -26 13 -27 24 -11 15 20 44 14 44 -9 0 -8 -14 -21
-30 -30 -28 -14 -31 -13 -41 6 -6 11 -12 43 -14 71 -1 29 -1 41 2 27 2 -14 9
-38 15 -54z m236 -21 c-15 -46 -25 -50 -56 -27 -15 12 -21 24 -16 35 8 21 34
23 34 2 0 -8 4 -15 10 -15 15 0 30 36 32 77 l1 38 4 -35 c2 -20 -2 -53 -9 -75z
m146 -47 c-10 -15 -34 19 -27 38 4 12 8 11 20 -6 8 -11 11 -25 7 -32z m-526
22 c-19 -31 -38 -33 -38 -5 0 20 5 25 25 25 23 0 24 -2 13 -20z m612 -188 c0
-5 8 -17 18 -28 9 -10 34 -50 54 -89 140 -271 172 -331 181 -343 5 -7 7 -15 4
-18 -3 -3 -25 19 -49 48 -24 30 -87 109 -142 177 -97 122 -98 123 -89 160 6
21 8 52 5 69 -2 20 0 32 7 32 6 0 11 -4 11 -8z m-350 -58 c0 -8 -4 -12 -10 -9
-5 3 -10 13 -10 21 0 8 5 12 10 9 6 -3 10 -13 10 -21z m-86 -36 c13 -19 14
-25 3 -42 -23 -33 -32 -28 -33 19 -2 50 7 56 30 23z m192 -9 c-3 -17 -6 -38
-6 -46 0 -17 -16 -8 -29 16 -7 13 -6 24 5 39 22 32 38 28 30 -9z m-125 -18
c11 17 11 -458 0 -485 -5 -13 -22 55 -50 198 l-43 218 38 39 c22 22 40 35 43
28 2 -8 6 -7 12 2z"/>
<path d="M1214 2260 c0 -52 1 -74 3 -47 2 26 2 68 0 95 -2 26 -3 4 -3 -48z"/>
<path d="M1196 818 c-3 -13 -5 -45 -4 -73 1 -46 1 -44 8 20 8 74 7 91 -4 53z"/>
<path d="M1203 625 c0 -33 2 -45 4 -27 2 18 2 45 0 60 -2 15 -4 0 -4 -33z"/>
<path d="M1213 480 c0 -36 2 -50 4 -32 2 17 2 47 0 65 -2 17 -4 3 -4 -33z"/>
<path d="M1333 2700 c0 -25 2 -35 4 -22 2 12 2 32 0 45 -2 12 -4 2 -4 -23z"/>
<path d="M1103 2645 c0 -22 2 -30 4 -17 2 12 2 30 0 40 -3 9 -5 -1 -4 -23z"/>
<path d="M1322 2490 c0 -19 2 -27 5 -17 2 9 2 25 0 35 -3 9 -5 1 -5 -18z"/>
<path d="M1093 2420 c0 -47 2 -66 4 -42 2 23 2 61 0 85 -2 23 -4 4 -4 -43z"/>
<path d="M1043 865 c0 -27 2 -38 4 -22 2 15 2 37 0 50 -2 12 -4 0 -4 -28z"/>
<path d="M1033 775 c0 -22 2 -30 4 -17 2 12 2 30 0 40 -3 9 -5 -1 -4 -23z"/>
<path d="M1023 690 c0 -25 2 -35 4 -22 2 12 2 32 0 45 -2 12 -4 2 -4 -23z"/>
</g>
</svg>
