<?xml version="1.0" standalone="no"?>
<!DOCTYPE svg PUBLIC "-//W3C//DTD SVG 20010904//EN"
 "http://www.w3.org/TR/2001/REC-SVG-20010904/DTD/svg10.dtd">
<svg version="1.0" xmlns="http://www.w3.org/2000/svg"
 width="244.000000pt" height="305.000000pt" viewBox="0 0 244.000000 305.000000"
 preserveAspectRatio="xMidYMid meet">
<metadata>
Created by potrace 1.16, written by Peter Selinger 2001-2019
</metadata>
<g transform="translate(0.000000,305.000000) scale(0.100000,-0.100000)"
fill="#000000" stroke="none">
<path d="M1540 2900 c0 -8 -3 -26 -5 -40 -5 -22 -4 -22 4 -5 6 13 10 -152 10
-467 1 -269 -3 -488 -7 -488 -5 0 -17 9 -27 20 -10 11 -24 20 -30 20 -7 0 -16
8 -20 18 -15 39 18 555 46 720 19 113 23 149 15 141 -5 -5 -43 -235 -51 -309
-12 -115 -25 -350 -25 -467 0 -109 2 -122 18 -127 10 -4 31 -19 47 -36 l28
-29 40 34 c22 19 47 35 55 35 11 0 13 20 8 118 -3 64 -8 185 -12 267 -6 169
-25 331 -55 485 -19 94 -39 150 -39 110z"/>
<path d="M910 2888 c0 -7 -3 -24 -6 -38 -4 -20 -3 -22 5 -10 8 11 11 -120 11
-462 0 -263 -2 -478 -6 -478 -3 0 -21 12 -40 28 l-34 27 0 125 c0 158 16 396
35 522 21 135 17 165 -5 42 -20 -113 -36 -309 -46 -556 l-6 -168 28 -10 c16
-6 41 -22 55 -36 l26 -24 19 21 c19 21 65 49 81 49 5 0 17 -13 26 -30 10 -16
25 -30 33 -30 15 0 19 -16 5 -24 -4 -3 -16 3 -26 14 -39 43 -104 15 -129 -55
l-14 -40 -20 46 c-22 50 -35 59 -87 59 -42 0 -75 -32 -75 -72 0 -28 2 -29 35
-22 42 8 77 -12 101 -57 14 -28 14 -32 0 -48 -22 -24 -20 -79 3 -143 11 -30
21 -82 21 -118 2 -94 1 -100 -14 -100 -9 0 -18 24 -27 73 -14 68 -16 72 -43
75 -74 9 -90 -84 -31 -182 46 -76 46 -104 0 -53 -42 48 -63 93 -71 150 -5 36
-2 51 20 85 14 23 26 46 26 51 0 18 -45 41 -81 41 -65 0 -85 -51 -54 -140 33
-93 14 -159 -59 -206 -150 -98 -298 -186 -303 -181 -2 3 54 61 124 131 l128
127 43 -5 44 -6 -7 98 c-4 53 -12 102 -17 107 -7 7 -9 -20 -5 -82 l6 -92 -33
2 c-30 2 -48 -13 -205 -166 -95 -93 -171 -170 -169 -173 3 -2 69 19 149 47 79
28 171 60 204 71 82 27 95 36 95 59 0 11 6 22 13 25 27 10 127 -49 127 -75 0
-4 -15 -37 -32 -71 -22 -41 -29 -65 -21 -67 8 -3 9 -13 2 -36 -22 -71 -122
-415 -134 -459 -7 -27 -9 -48 -4 -48 5 0 9 4 9 10 0 5 25 36 55 68 30 33 65
72 77 88 26 33 110 133 182 218 48 56 49 57 37 95 -16 56 -14 61 20 61 30 0
31 -1 25 -32 -11 -54 -76 -511 -73 -514 1 -2 33 72 71 164 38 92 75 183 83
202 8 19 19 43 24 53 5 10 7 40 3 67 -6 42 -4 50 10 50 17 0 76 -51 76 -66 0
-4 -14 -22 -31 -40 l-31 -32 41 -213 c88 -464 84 -448 93 -409 8 37 105 545
113 592 3 21 -3 37 -25 62 -17 18 -30 38 -30 44 0 14 59 62 76 62 12 0 14 -9
9 -43 -6 -36 0 -59 34 -142 72 -178 142 -331 137 -296 -3 18 -6 48 -6 65 0 21
-3 27 -9 18 -5 -9 -18 22 -36 90 -15 57 -41 150 -56 207 -16 58 -29 106 -29
108 0 3 12 3 27 1 19 -2 29 -10 31 -23 2 -11 8 -24 13 -30 6 -6 7 3 3 23 -6
31 -5 32 25 32 34 0 36 -6 21 -62 l-11 -37 110 -133 c60 -73 146 -176 192
-228 91 -105 90 -108 39 60 -65 217 -120 407 -120 417 0 6 -12 34 -27 62 l-26
51 24 27 c23 24 55 42 107 57 19 7 22 4 22 -23 0 -25 5 -32 33 -39 17 -6 122
-42 232 -81 109 -38 200 -69 202 -67 2 1 -78 82 -177 179 -163 161 -182 177
-211 175 l-32 -3 1 90 0 90 -14 -80 c-7 -44 -17 -96 -20 -116 l-6 -35 103 -69
c57 -37 142 -93 188 -124 46 -30 79 -57 73 -59 -6 -2 -20 1 -30 7 -11 6 -75
31 -141 56 -67 25 -135 52 -151 60 -27 14 -28 17 -18 41 11 24 9 29 -15 50
-40 35 -46 99 -17 196 20 67 21 79 9 104 -12 24 -21 30 -56 32 -78 6 -101 -25
-63 -83 25 -37 26 -113 4 -158 -9 -18 -20 -34 -23 -37 -3 -3 -19 -24 -35 -47
-46 -68 -50 -39 -5 42 49 91 56 147 19 177 -26 21 -59 21 -71 -2 -4 -8 -13
-43 -19 -76 -11 -53 -15 -61 -31 -57 -29 8 -27 146 3 205 24 46 38 158 19 158
-6 0 -11 13 -11 29 0 42 49 81 101 81 35 0 39 3 39 25 0 31 -41 75 -71 75 -35
0 -79 -32 -91 -67 -12 -34 -28 -44 -28 -18 0 22 -60 85 -81 85 -23 0 -69 -21
-69 -32 0 -4 -4 -8 -10 -8 -5 0 -10 7 -10 15 0 8 6 15 14 15 15 0 56 58 56 78
0 6 -6 9 -14 6 -28 -11 -38 140 -34 534 2 204 0 372 -4 372 -17 0 -36 -290
-44 -665 -4 -159 -10 -299 -15 -310 -5 -12 -8 11 -8 62 -2 188 -48 563 -81
647 -7 19 -8 18 -15 -9 -4 -16 -11 -47 -17 -69 -26 -104 -57 -412 -58 -571 -1
-138 -20 -63 -22 85 -1 114 -3 124 -8 65 -4 -38 -7 -59 -8 -45 -1 14 -9 38
-17 54 -13 25 -15 89 -15 414 1 211 -1 386 -3 388 -9 9 -31 -319 -42 -626 -7
-184 -13 -303 -14 -265 -4 161 -21 466 -31 540 -18 137 -62 355 -71 355 -5 0
-9 -6 -9 -12z m292 -761 c-3 -170 -8 -245 -15 -238 -6 6 -8 79 -3 213 5 176
13 286 20 276 1 -2 0 -115 -2 -251z m-25 -369 c-2 -18 -4 -4 -4 32 0 36 2 50
4 33 2 -18 2 -48 0 -65z m-133 -60 c11 -126 12 -178 5 -178 -16 0 -51 63 -56
101 -3 23 -12 43 -19 46 -35 13 0 93 41 93 22 0 24 -5 29 -62z m450 40 c20
-28 20 -64 1 -72 -8 -3 -15 -17 -15 -31 0 -29 -23 -78 -48 -103 -16 -16 -17
-13 -15 53 1 39 5 94 9 123 6 46 9 52 30 52 12 0 30 -10 38 -22z m-344 -96 c0
-15 9 -26 25 -32 16 -6 32 -25 42 -47 l15 -38 20 38 c10 21 30 42 43 47 19 7
25 17 25 39 0 16 4 33 10 36 12 7 23 -33 18 -71 -3 -25 -8 -29 -40 -32 -32 -3
-38 -8 -52 -43 -9 -22 -16 -47 -17 -57 0 -9 -10 9 -20 40 -19 54 -22 57 -56
60 -29 2 -38 8 -45 29 -11 33 8 91 22 69 6 -8 10 -25 10 -38z m44 10 c-6 -20
-24 -32 -24 -14 1 23 14 52 21 45 5 -5 6 -18 3 -31z m-246 -80 c10 -30 9 -33
-6 -30 -12 2 -18 15 -20 43 -4 45 9 39 26 -13z m139 16 c-3 -7 -5 -2 -5 12 0
14 2 19 5 13 2 -7 2 -19 0 -25z m300 0 c-3 -7 -5 -2 -5 12 0 14 2 19 5 13 2
-7 2 -19 0 -25z m162 -11 c-5 -17 -9 -33 -9 -34 0 -2 -7 -3 -15 -3 -18 0 -18
-1 0 44 19 45 37 39 24 -7z m-429 -88 c23 -45 22 -59 -3 -32 -16 19 -34 73
-23 73 3 0 15 -18 26 -41z m260 29 c0 -16 -40 -82 -45 -76 -7 7 27 88 37 88 4
0 8 -6 8 -12z m-354 -49 c3 -6 0 -15 -7 -20 -22 -14 -29 -11 -29 11 0 21 24
27 36 9z m444 -9 c0 -11 -4 -20 -10 -20 -5 0 -10 9 -10 20 0 11 5 20 10 20 6
0 10 -9 10 -20z m-541 -85 c0 -31 -2 -36 -9 -20 -5 11 -9 38 -9 60 0 31 2 36
9 20 5 -11 9 -38 9 -60z m150 39 c23 -29 27 -44 11 -44 -13 0 -50 41 -50 57 0
21 17 15 39 -13z m341 1 c0 -17 -7 -28 -22 -34 -32 -12 -35 5 -7 35 28 30 29
30 29 -1z m130 -25 c0 -27 -4 -50 -10 -50 -11 0 -14 59 -4 84 10 27 14 18 14
-34z m-370 -16 c0 -8 -4 -12 -10 -9 -5 3 -10 13 -10 21 0 8 5 12 10 9 6 -3 10
-13 10 -21z m121 -7 c-8 -8 -11 -7 -11 4 0 9 3 19 7 23 4 4 9 2 11 -4 3 -7 -1
-17 -7 -23z m-214 -168 c21 -21 35 1 31 49 -3 43 -2 46 27 53 l30 8 -23 -19
c-31 -25 -26 -62 8 -70 18 -4 25 -12 25 -30 0 -20 -4 -24 -23 -22 -13 2 -29
-2 -37 -8 -11 -9 -20 -6 -41 13 -28 26 -44 100 -28 134 5 13 9 1 13 -39 4 -31
11 -62 18 -69z m328 45 c-3 -24 -16 -54 -28 -68 -20 -22 -23 -23 -44 -9 -18
12 -26 13 -38 3 -12 -10 -16 -9 -21 4 -10 26 3 46 31 46 20 0 25 5 25 24 0 36
-10 55 -26 49 -8 -3 -14 0 -14 6 0 12 11 14 34 5 12 -5 16 -20 16 -60 0 -56 8
-65 34 -38 10 10 16 34 16 67 1 42 3 48 11 34 7 -11 8 -37 4 -63z m-396 0 c7
-30 10 -58 7 -61 -3 -3 -8 8 -11 23 -4 16 -11 42 -16 58 -11 35 -11 36 -1 36
5 0 14 -25 21 -56z m443 -4 c-9 -33 -20 -60 -25 -60 -5 0 -6 8 -2 18 3 9 11
36 18 60 6 23 14 42 18 42 4 0 0 -27 -9 -60z m130 -25 c-6 -14 -16 -25 -22
-25 -13 0 -13 12 0 46 8 20 14 24 22 16 9 -9 9 -18 0 -37z m-672 -9 c0 -3 -4
-8 -10 -11 -5 -3 -10 -1 -10 4 0 6 5 11 10 11 6 0 10 -2 10 -4z m610 -56 c0
-5 -4 -10 -10 -10 -5 0 -10 5 -10 10 0 6 5 10 10 10 6 0 10 -4 10 -10z m110
-4 c0 -8 -4 -18 -10 -21 -5 -3 -10 3 -10 14 0 12 5 21 10 21 6 0 10 -6 10 -14z
m-770 -48 c0 -10 -5 -18 -10 -18 -15 0 -23 27 -16 47 6 15 8 15 16 3 6 -8 10
-23 10 -32z m16 -79 c-6 -36 -47 -124 -90 -192 -8 -12 -36 -65 -64 -117 -70
-135 -122 -226 -122 -217 0 7 67 238 114 392 10 33 20 44 59 64 33 16 49 31
53 50 10 41 23 61 41 61 13 0 14 -7 9 -41z m725 -15 c5 -49 49 -143 178 -383
34 -62 60 -118 59 -122 -3 -9 -122 135 -235 283 -48 62 -51 70 -42 100 5 18 9
66 9 106 0 55 3 73 13 70 6 -3 14 -27 18 -54z m93 31 c3 -8 1 -15 -4 -15 -6 0
-10 7 -10 15 0 8 2 15 4 15 2 0 6 -7 10 -15z m-914 -3 c0 -12 -39 -46 -45 -41
-6 7 24 49 36 49 5 0 9 -4 9 -8z m456 -77 c11 15 14 15 14 4 0 -8 -6 -24 -14
-35 -14 -18 -15 -18 -25 9 -14 36 -14 47 1 23 11 -19 11 -19 24 -1z m-178 -69
c3 -39 -8 -77 -64 -217 -37 -93 -68 -168 -70 -166 -2 2 14 71 37 153 22 82 47
180 55 217 18 79 37 85 42 13z m119 -67 c-12 -28 -12 -55 -1 -164 19 -196 15
-214 -16 -70 -45 211 -44 195 -9 238 37 45 45 43 26 -4z"/>
<path d="M892 2775 c0 -16 2 -22 5 -12 2 9 2 23 0 30 -3 6 -5 -1 -5 -18z"/>
<path d="M1091 2764 c0 -11 3 -14 6 -6 3 7 2 16 -1 19 -3 4 -6 -2 -5 -13z"/>
<path d="M1103 2645 c0 -27 2 -38 4 -22 2 15 2 37 0 50 -2 12 -4 0 -4 -28z"/>
<path d="M1413 2580 c0 -25 2 -35 4 -22 2 12 2 32 0 45 -2 12 -4 2 -4 -23z"/>
<path d="M1113 2475 c0 -38 2 -53 4 -32 2 20 2 52 0 70 -2 17 -4 1 -4 -38z"/>
<path d="M1423 2400 c0 -36 2 -50 4 -32 2 17 2 47 0 65 -2 17 -4 3 -4 -33z"/>
<path d="M1432 2000 c0 -14 2 -19 5 -12 2 6 2 18 0 25 -3 6 -5 1 -5 -13z"/>
<path d="M1490 864 c-1 -25 45 -315 48 -306 4 12 -37 304 -44 311 -2 2 -4 0
-4 -5z"/>
</g>
</svg>
