<?xml version="1.0" standalone="no"?>
<!DOCTYPE svg PUBLIC "-//W3C//DTD SVG 20010904//EN"
 "http://www.w3.org/TR/2001/REC-SVG-20010904/DTD/svg10.dtd">
<svg version="1.0" xmlns="http://www.w3.org/2000/svg"
 width="244.000000pt" height="305.000000pt" viewBox="0 0 244.000000 305.000000"
 preserveAspectRatio="xMidYMid meet">
<metadata>
Created by potrace 1.16, written by Peter Selinger 2001-2019
</metadata>
<g transform="translate(0.000000,305.000000) scale(0.100000,-0.100000)"
fill="#000000" stroke="none">
<path d="M908 2904 c-14 -22 -67 -363 -77 -489 -6 -72 -13 -210 -16 -307 l-6
-177 38 -24 c21 -13 44 -32 52 -40 12 -15 17 -13 54 18 22 19 44 35 48 35 17
0 19 48 9 269 -11 254 -31 438 -60 566 -22 97 -26 77 -5 -31 27 -145 45 -337
52 -554 l6 -215 -41 -28 c-23 -15 -44 -27 -47 -27 -3 0 -5 217 -5 483 0 315 4
477 10 467 9 -13 10 -13 9 0 -2 31 -15 64 -21 54z"/>
<path d="M1368 2450 c-2 -250 -8 -466 -13 -480 l-9 -25 -8 25 c-5 16 -6 4 -3
-32 3 -33 1 -59 -5 -63 -6 -4 -10 19 -11 62 0 37 -2 77 -4 88 -1 11 -6 79 -9
150 -6 125 -29 288 -56 385 -12 43 -13 44 -22 20 -35 -92 -60 -288 -74 -593
-3 -71 -8 -127 -10 -125 -2 2 -5 152 -8 333 -4 316 -23 665 -35 665 -3 0 -5
-169 -3 -376 3 -371 2 -376 -18 -394 -18 -15 -22 -34 -27 -107 l-6 -89 32 -27
c29 -24 32 -31 25 -60 l-7 -32 -11 39 c-9 33 -17 41 -44 48 -45 12 -81 -7
-109 -57 l-22 -39 -10 25 c-13 34 -67 79 -95 79 -13 0 -35 -10 -50 -21 -21
-16 -26 -28 -24 -53 3 -29 5 -31 41 -28 32 3 43 -2 72 -31 37 -37 44 -64 20
-73 -20 -8 -20 -83 1 -132 8 -20 31 -61 51 -89 l36 -53 -35 -57 c-43 -69 -43
-117 -1 -128 13 -3 23 -11 20 -18 -6 -19 -36 -20 -44 -1 -3 10 -15 26 -26 37
-14 14 -17 27 -13 52 4 19 2 53 -3 77 -5 24 -12 55 -16 71 -4 21 -11 27 -33
27 -36 0 -48 -9 -61 -44 -15 -39 -1 -84 54 -178 25 -42 45 -87 45 -100 0 -18
-4 -15 -21 17 -12 21 -41 63 -64 92 -30 37 -47 70 -56 107 -11 52 -11 57 15
99 14 25 26 52 26 61 0 21 -32 36 -79 36 -72 0 -87 -42 -53 -155 24 -82 16
-150 -22 -180 -25 -20 -26 -24 -15 -48 7 -15 10 -29 8 -30 -25 -21 -359 -139
-359 -127 0 6 4 10 8 10 5 0 28 13 53 29 24 16 105 68 179 116 74 48 137 89
139 91 2 2 -3 31 -12 64 -10 33 -17 77 -18 97 0 21 -5 47 -10 58 -6 13 -8 -12
-6 -78 l3 -97 -31 5 c-34 6 -24 14 -258 -208 -81 -77 -146 -142 -144 -144 4
-3 327 104 434 144 33 12 43 21 45 42 4 33 33 32 96 -5 81 -48 107 -130 46
-146 -30 -7 -32 -13 -74 -150 -83 -275 -128 -433 -125 -436 2 -3 143 157 313
356 65 76 73 90 68 117 -14 72 -15 70 36 73 l48 3 -5 -63 c-5 -68 0 -61 10 15
6 42 9 47 31 47 19 0 24 -4 21 -17 -9 -35 -28 -113 -78 -333 -11 -48 -14 -52
-20 -30 -7 21 -8 19 -6 -12 1 -20 -2 -40 -6 -44 -4 -4 -7 -26 -6 -48 0 -39 2
-36 30 44 17 47 53 144 79 216 38 103 48 140 43 168 -3 23 -2 36 5 36 10 0 62
-46 62 -54 0 -2 -13 -17 -30 -34 -16 -18 -30 -40 -30 -49 0 -10 28 -160 62
-333 l63 -315 17 80 c29 130 108 543 108 561 0 9 -14 32 -30 51 -29 32 -29 35
-14 59 9 14 25 29 35 35 17 9 19 5 18 -48 -1 -38 7 -77 21 -113 12 -30 39
-104 61 -165 55 -157 78 -213 79 -191 0 18 -23 197 -55 425 -7 52 -11 101 -8
108 4 10 17 12 47 7 22 -3 42 -7 44 -9 1 -1 -3 -23 -9 -47 -15 -53 -35 -23
195 -289 154 -179 187 -212 172 -173 -4 11 -18 57 -31 104 -35 127 -115 392
-126 418 -5 13 -23 28 -39 34 -24 8 -30 16 -30 40 0 55 63 117 137 132 29 7
32 5 38 -22 6 -28 14 -32 163 -83 86 -29 186 -63 221 -75 36 -13 67 -21 70
-18 5 5 -42 52 -263 261 -84 79 -92 84 -123 78 -31 -6 -32 -5 -28 22 11 74 14
142 6 147 -9 6 -21 -77 -25 -164 l-1 -35 43 3 c41 3 46 1 120 -70 42 -41 105
-100 139 -133 35 -32 61 -60 59 -62 -4 -4 -114 59 -290 167 -117 72 -135 115
-96 238 25 79 25 87 0 112 -25 25 -86 27 -118 4 l-23 -16 26 -45 c45 -81 32
-146 -49 -250 -25 -32 -46 -64 -46 -70 0 -7 -4 -13 -10 -13 -19 0 -10 26 37
105 54 93 68 162 38 195 -18 20 -51 26 -70 12 -16 -11 -37 -128 -30 -165 5
-23 2 -37 -8 -45 -12 -10 -15 -6 -20 24 -3 20 -18 51 -32 69 -28 38 -33 86 -9
109 56 57 93 198 59 226 -23 19 -18 39 20 77 29 29 40 34 72 31 32 -2 38 0 41
18 2 11 -7 32 -18 47 -17 21 -30 27 -58 27 -46 -1 -67 -16 -88 -66 l-17 -39
-18 42 c-21 49 -50 70 -100 71 -29 1 -38 -3 -48 -24 -6 -14 -11 -32 -11 -40 0
-8 -4 -12 -10 -9 -19 12 -10 45 20 73 l30 27 -10 360 c-8 309 -23 582 -34 635
-2 8 -5 -190 -8 -440z m-93 -116 c15 -112 17 -284 6 -409 -4 -50 -8 5 -14 189
-4 143 -10 278 -14 300 -3 23 -3 38 1 35 4 -4 13 -55 21 -115z m27 -602 c-8
-24 -22 9 -22 55 0 72 14 85 21 18 3 -33 3 -66 1 -73z m-242 20 c3 -3 -1 -7
-7 -9 -18 -6 -16 -58 2 -73 17 -15 21 -105 4 -115 -7 -5 -5 -11 4 -18 17 -14
32 -57 20 -57 -20 0 -83 92 -95 137 -7 26 -18 52 -25 56 -20 13 -15 39 14 69
20 21 32 26 52 21 14 -3 28 -8 31 -11z m438 -15 c26 -39 28 -55 7 -63 -8 -3
-17 -26 -21 -50 -4 -30 -19 -60 -47 -94 -22 -28 -44 -50 -47 -50 -9 0 0 49 10
55 4 3 5 25 3 50 -4 29 0 56 11 79 21 44 21 80 1 72 -21 -8 -19 11 3 23 31 19
56 12 80 -22z m-320 -128 c26 -10 26 -11 8 -24 -33 -25 -56 -2 -56 54 0 60 14
77 18 21 3 -34 8 -43 30 -51z m122 25 c0 -2 -7 -4 -15 -4 -11 0 -15 11 -15 38
l1 37 14 -34 c8 -18 15 -35 15 -37z m38 0 c-3 -48 -4 -49 -37 -52 -24 -3 -32
0 -29 10 3 7 14 14 26 16 19 3 22 10 22 50 0 32 3 43 11 35 5 -5 9 -32 7 -59z
m-398 -59 c12 -24 20 -55 18 -67 -4 -20 -7 -17 -26 22 -19 40 -29 90 -18 90 2
0 14 -20 26 -45z m437 23 c-3 -8 -6 -5 -6 6 -1 11 2 17 5 13 3 -3 4 -12 1 -19z
m167 -59 c-9 -22 -21 -39 -26 -39 -14 0 -8 33 14 80 19 40 22 42 26 21 2 -13
-4 -41 -14 -62z m-295 -13 c-2 -23 -17 -60 -18 -46 -1 8 -4 24 -7 36 -4 14 -1
21 10 21 9 0 16 -5 15 -11z m-94 -85 c14 -35 24 -65 22 -68 -6 -5 -67 119 -67
137 0 24 17 -2 45 -69z m174 -8 c-42 -87 -49 -68 -8 23 18 38 34 63 36 57 3
-7 -10 -43 -28 -80z m-299 0 c0 -20 -3 -24 -11 -16 -7 7 -9 19 -6 27 10 24 17
19 17 -11z m430 7 c0 -11 -4 -20 -10 -20 -5 0 -10 9 -10 20 0 11 5 20 10 20 6
0 10 -9 10 -20z m-354 -47 c11 -12 13 -18 5 -21 -19 -6 -41 6 -41 23 0 20 14
19 36 -2z m292 0 c-4 -22 -38 -30 -38 -10 0 14 13 24 33 26 5 1 7 -7 5 -16z
m46 -152 c-23 -88 -31 -60 -8 32 10 40 20 63 22 53 2 -11 -4 -49 -14 -85z
m-401 9 c9 -35 14 -66 13 -68 -5 -4 -46 118 -46 137 0 31 18 -6 33 -69z m127
57 c0 -7 -10 -13 -21 -14 -21 -2 -21 -1 -3 12 24 18 24 18 24 2z m165 -7 c3
-5 -3 -10 -14 -10 -12 0 -21 5 -21 10 0 6 6 10 14 10 8 0 18 -4 21 -10z m-245
-36 c0 -19 5 -44 11 -55 10 -20 11 -20 30 -3 15 14 24 16 36 8 25 -15 27 -33
6 -40 -10 -3 -27 -10 -37 -16 -15 -8 -22 -6 -33 8 -27 37 -44 134 -23 134 6 0
10 -16 10 -36z m307 -6 c-3 -24 -12 -60 -22 -82 -15 -36 -17 -37 -34 -22 -10
9 -28 16 -40 16 -17 0 -22 5 -19 22 4 29 34 35 59 12 18 -16 19 -16 34 20 9
21 13 46 10 57 -4 11 -2 19 6 19 8 0 10 -13 6 -42z m151 -86 c2 -14 -2 -22
-11 -22 -9 0 -14 10 -14 25 0 31 21 28 25 -3z m-678 -81 c0 -12 -20 -25 -27
-18 -7 7 6 27 18 27 5 0 9 -4 9 -9z m750 -20 c5 -11 10 -27 10 -37 0 -16 -1
-16 -20 1 -21 19 -27 55 -10 55 5 0 14 -9 20 -19z m-734 -115 c-3 -16 -1 -46
4 -67 10 -36 9 -42 -22 -82 -75 -98 -261 -317 -266 -312 -3 2 0 10 5 17 10 13
126 226 205 376 21 41 38 80 38 89 0 8 5 24 11 36 l12 21 9 -24 c5 -14 7 -38
4 -54z m759 29 c17 -23 37 -36 60 -41 35 -6 35 -7 71 -123 20 -64 46 -147 59
-186 26 -79 39 -135 32 -135 -3 0 -36 57 -75 128 -38 70 -99 181 -136 246 -36
66 -66 127 -66 137 0 26 24 14 55 -26z m-395 -44 c0 -9 -20 -37 -20 -29 0 3
-2 13 -5 21 -4 8 0 14 10 14 8 0 15 -3 15 -6z m174 -86 c9 -39 29 -130 46
-204 17 -74 28 -136 26 -138 -3 -3 -9 10 -14 29 -6 18 -31 92 -56 163 -45 127
-52 166 -40 213 10 35 21 15 38 -63z m-113 -222 c-54 -271 -60 -273 -35 -14
11 119 12 172 5 194 -18 50 -13 53 25 15 l37 -36 -32 -159z"/>
<path d="M1536 2832 c-48 -212 -73 -452 -77 -746 l-3 -158 49 -35 c31 -23 53
-33 60 -27 7 5 30 21 53 36 l41 28 -4 97 c-2 54 -7 166 -10 248 -6 152 -26
333 -50 454 -20 99 -18 44 4 -109 27 -188 41 -367 41 -528 l0 -137 -34 -27
c-19 -16 -40 -28 -45 -28 -8 0 -11 149 -11 476 0 326 3 473 10 469 7 -4 8 3 4
22 -4 15 -8 29 -9 31 -2 2 -10 -28 -19 -66z"/>
<path d="M1352 2720 c0 -14 2 -19 5 -12 2 6 2 18 0 25 -3 6 -5 1 -5 -13z"/>
<path d="M1343 2550 c0 -30 2 -43 4 -27 2 15 2 39 0 55 -2 15 -4 2 -4 -28z"/>
<path d="M1072 2560 c0 -14 2 -19 5 -12 2 6 2 18 0 25 -3 6 -5 1 -5 -13z"/>
<path d="M1063 2380 c0 -47 2 -66 4 -42 2 23 2 61 0 85 -2 23 -4 4 -4 -43z"/>
<path d="M1334 2300 c0 -91 2 -128 3 -82 2 45 2 119 0 165 -1 45 -3 8 -3 -83z"/>
<path d="M1331 2014 c0 -11 3 -14 6 -6 3 7 2 16 -1 19 -3 4 -6 -2 -5 -13z"/>
<path d="M985 740 c-4 -34 -5 -63 -2 -66 2 -3 7 23 11 57 4 33 5 63 3 66 -3 2
-8 -23 -12 -57z"/>
<path d="M972 630 c0 -19 2 -27 5 -17 2 9 2 25 0 35 -3 9 -5 1 -5 -18z"/>
</g>
</svg>
