<?xml version="1.0" standalone="no"?>
<!DOCTYPE svg PUBLIC "-//W3C//DTD SVG 20010904//EN"
 "http://www.w3.org/TR/2001/REC-SVG-20010904/DTD/svg10.dtd">
<svg version="1.0" xmlns="http://www.w3.org/2000/svg"
 width="244.000000pt" height="305.000000pt" viewBox="0 0 244.000000 305.000000"
 preserveAspectRatio="xMidYMid meet">
<metadata>
Created by potrace 1.16, written by Peter Selinger 2001-2019
</metadata>
<g transform="translate(0.000000,305.000000) scale(0.100000,-0.100000)"
fill="#000000" stroke="none">
<path d="M882 2875 c-19 -73 -53 -266 -68 -389 -19 -158 -31 -566 -16 -566 6
0 30 -15 55 -34 l44 -34 24 22 c13 11 37 27 53 34 l29 13 -6 217 c-7 238 -21
405 -42 497 -17 80 -18 44 0 -85 18 -129 41 -547 32 -580 -7 -25 -79 -75 -91
-63 -3 4 -6 220 -6 482 1 420 2 473 15 451 14 -25 14 -25 8 10 -10 61 -20 68
-31 25z"/>
<path d="M1563 2869 c-42 -121 -82 -438 -89 -724 l-6 -220 38 -23 c22 -12 46
-27 55 -34 14 -9 23 -7 48 15 17 14 40 28 51 32 18 6 20 15 20 118 0 172 -18
417 -42 572 -12 77 -23 135 -25 128 -3 -7 2 -56 11 -110 29 -184 56 -646 39
-669 -9 -11 -77 -54 -87 -54 -9 0 -7 948 2 952 5 2 6 14 3 27 -6 22 -7 21 -18
-10z"/>
<path d="M1596 2785 c8 -37 14 -45 14 -19 0 10 -5 26 -10 34 -8 11 -9 7 -4
-15z"/>
<path d="M922 2780 c0 -14 4 -38 8 -55 7 -27 8 -27 8 -5 0 14 -4 39 -8 55 -7
27 -8 27 -8 5z"/>
<path d="M1223 2695 c0 -27 2 -38 4 -22 2 15 2 37 0 50 -2 12 -4 0 -4 -28z"/>
<path d="M1239 2670 c-3 -41 -15 -111 -28 -155 -32 -118 -50 -260 -57 -469 -7
-184 -17 -230 -29 -138 -10 69 -34 184 -40 190 -14 14 -28 -38 -40 -144 l-7
-61 36 -22 c40 -25 55 -70 39 -118 -10 -28 -29 -34 -65 -18 -15 6 -18 2 -18
-22 0 -58 64 -81 90 -32 16 28 33 24 26 -7 -9 -34 0 -61 23 -67 25 -6 53 -50
45 -70 -5 -14 -11 -12 -36 13 -16 17 -37 31 -46 31 -36 3 -58 -3 -75 -21 -18
-17 -18 -18 20 -25 67 -12 85 -42 99 -171 l6 -61 -32 -11 c-26 -10 -31 -16
-28 -39 2 -19 10 -29 28 -33 43 -10 34 -70 -10 -70 -27 0 -46 -28 -33 -48 10
-16 15 -18 55 -21 10 -1 19 -13 23 -34 9 -49 37 -107 50 -107 10 0 33 59 51
128 2 6 14 12 28 12 60 0 66 61 7 73 -17 4 -32 14 -36 26 -9 28 -1 37 35 45
27 5 31 10 28 33 -2 20 -10 29 -28 33 -20 5 -26 13 -28 43 -5 53 16 141 38
170 11 14 35 28 55 31 40 8 43 13 18 32 -29 22 -78 17 -111 -11 -17 -14 -33
-22 -36 -17 -9 15 19 57 48 71 26 12 28 16 22 52 -4 24 -2 39 4 39 5 0 10 -4
10 -10 0 -17 48 -42 68 -36 20 7 46 72 31 81 -4 3 -17 0 -27 -6 -30 -19 -49
-5 -55 41 -7 53 5 80 45 103 30 17 30 18 24 80 -11 96 -27 160 -37 150 -5 -5
-19 -64 -31 -131 -11 -67 -24 -122 -29 -122 -4 0 -8 55 -8 123 -2 182 -36 495
-58 530 -4 7 -10 64 -13 127 l-6 115 -5 -75z m10 -485 l3 290 19 -109 c18
-106 39 -445 39 -633 l0 -92 -30 -16 -30 -16 -2 43 -1 43 -7 -50 c-4 -27 -7
157 -6 410 1 437 1 445 6 150 l5 -310 4 290z m-3 -679 c-3 -11 -6 -25 -7 -31
-1 -15 -17 27 -18 47 -1 12 4 15 15 11 10 -4 14 -13 10 -27z"/>
<path d="M1243 1780 c0 -41 2 -58 4 -37 2 20 2 54 0 75 -2 20 -4 3 -4 -38z"/>
<path d="M757 1863 c-32 -5 -60 -42 -55 -75 3 -20 8 -22 46 -20 37 3 47 -1 77
-31 41 -41 42 -46 14 -78 -35 -41 -12 -122 65 -223 20 -25 36 -48 36 -50 0 -2
-13 -19 -30 -37 -46 -53 -56 -84 -36 -114 20 -31 61 -48 94 -40 20 5 23 10 17
33 -26 106 -17 119 62 91 31 -10 67 -19 80 -19 21 0 24 3 27 31 1 5 -24 20
-55 33 -74 30 -120 66 -163 130 -35 50 -59 126 -39 126 5 0 15 -15 21 -34 24
-66 148 -183 210 -199 22 -5 23 -3 17 21 -3 15 -11 29 -16 31 -58 20 -159 142
-159 190 0 15 -9 34 -20 44 -27 23 -25 33 11 69 27 28 34 30 75 24 l44 -6 0
35 c0 41 -34 69 -85 69 -40 0 -63 -18 -82 -62 -15 -37 -25 -36 -43 7 -10 24
-67 66 -82 60 -1 -1 -15 -4 -31 -6z"/>
<path d="M1432 1855 c-31 -13 -42 -32 -42 -70 0 -21 3 -22 43 -18 32 4 48 0
68 -16 36 -28 43 -58 18 -79 -10 -9 -19 -28 -19 -42 0 -14 -10 -41 -21 -60
-23 -38 -106 -120 -122 -120 -14 0 -36 -32 -37 -52 0 -14 5 -15 37 -5 54 17
167 127 189 183 19 50 34 57 34 16 0 -38 -66 -139 -115 -176 -21 -16 -63 -40
-94 -52 -61 -25 -69 -35 -46 -54 13 -11 27 -10 80 5 98 26 106 18 80 -87 -6
-21 -3 -27 14 -33 31 -9 86 12 101 39 16 30 7 55 -36 107 -36 43 -36 44 7 99
33 41 64 110 73 162 5 30 3 40 -15 56 -27 26 -19 53 26 88 26 19 43 25 71 22
41 -3 50 7 40 48 -8 30 -64 57 -101 48 -24 -6 -56 -38 -81 -80 -10 -17 -13
-16 -26 16 -8 19 -21 40 -29 46 -23 18 -65 22 -97 9z"/>
<path d="M572 1524 c-27 -19 -28 -44 -2 -126 11 -34 20 -83 20 -107 0 -37 -5
-49 -35 -77 -30 -28 -34 -37 -25 -53 14 -28 13 -38 -7 -44 -10 -3 -94 -32
-187 -66 -94 -33 -171 -59 -173 -57 -2 2 86 59 197 127 134 83 200 129 200
141 0 9 -7 43 -15 75 -8 31 -15 74 -15 95 0 22 -5 38 -11 38 -9 0 -10 -26 -6
-90 l6 -91 -34 7 c-32 6 -40 -1 -187 -132 -223 -201 -228 -206 -228 -215 0 -5
24 0 52 10 29 10 140 46 246 80 179 58 192 63 192 86 0 13 4 27 10 30 17 10
87 -17 126 -48 65 -54 78 -127 23 -127 -29 0 -43 -31 -107 -235 -33 -104 -72
-226 -86 -270 -14 -43 -24 -81 -22 -83 4 -3 56 53 294 316 l121 133 -15 41
c-7 22 -11 44 -8 49 3 5 45 9 93 9 75 0 93 -3 121 -22 56 -39 59 -52 20 -93
l-34 -35 33 -152 c88 -418 105 -497 108 -495 1 2 32 149 69 326 l66 323 -33
34 c-38 39 -35 53 21 92 28 19 46 22 128 22 93 0 94 0 88 -22 -23 -80 -27 -74
106 -219 67 -74 156 -172 197 -217 41 -45 76 -80 78 -78 5 5 -154 519 -168
548 -5 9 -25 22 -44 28 -41 14 -44 29 -12 85 16 28 38 47 77 67 72 36 89 36
96 -1 6 -29 12 -32 239 -105 128 -42 236 -76 240 -76 15 0 -3 19 -105 110 -58
52 -125 113 -150 136 -110 101 -118 106 -151 99 l-31 -7 7 90 c5 55 4 92 -2
95 -10 6 -23 -101 -23 -179 l0 -34 43 6 c42 6 42 6 162 -103 166 -149 181
-163 172 -163 -10 0 -289 157 -373 210 -52 33 -67 101 -39 180 22 62 20 127
-4 140 -29 15 -93 12 -119 -6 l-23 -16 32 -55 c31 -53 31 -58 20 -106 -8 -36
-30 -74 -76 -135 -63 -82 -65 -86 -64 -141 2 -89 9 -103 59 -119 51 -17 54
-21 74 -82 8 -25 38 -116 66 -203 49 -151 61 -216 29 -152 -24 46 -105 187
-192 333 -111 186 -112 189 -13 353 65 107 76 133 76 171 0 31 -6 50 -18 61
-19 18 -59 22 -78 9 -13 -8 -27 -99 -25 -158 1 -31 -6 -51 -29 -83 -42 -57
-71 -69 -116 -48 -19 9 -52 17 -74 17 -36 0 -39 -2 -38 -28 1 -47 -11 -72 -37
-72 -26 0 -45 -25 -45 -61 0 -12 -12 -42 -26 -66 -29 -49 -29 -47 37 -118 l38
-40 -23 -110 c-13 -60 -35 -166 -50 -234 -14 -68 -26 -128 -26 -132 0 -5 -5
-9 -10 -9 -7 0 -10 100 -8 305 l2 304 -27 25 c-14 13 -29 37 -32 53 -12 60
-21 78 -40 81 -34 7 -45 23 -45 63 l0 39 -45 0 c-25 0 -57 -7 -70 -16 -56 -37
-139 40 -142 130 -2 79 -14 145 -29 157 -21 17 -65 6 -86 -22 -28 -37 -16 -83
49 -187 84 -135 95 -163 98 -256 1 -44 5 -92 9 -106 6 -22 -9 -43 -111 -161
-65 -74 -129 -149 -143 -165 -49 -58 -53 -46 -10 32 24 43 46 84 51 89 4 6 44
77 89 160 81 147 82 151 77 206 -6 65 -32 121 -93 196 -48 59 -74 111 -74 151
0 13 14 48 30 78 l31 52 -23 16 c-29 20 -97 21 -126 0z"/>
<path d="M1252 805 c0 -16 2 -22 5 -12 2 9 2 23 0 30 -3 6 -5 -1 -5 -18z"/>
<path d="M1253 580 c0 -25 2 -35 4 -22 2 12 2 32 0 45 -2 12 -4 2 -4 -23z"/>
</g>
</svg>
