<?xml version="1.0" standalone="no"?>
<!DOCTYPE svg PUBLIC "-//W3C//DTD SVG 20010904//EN"
 "http://www.w3.org/TR/2001/REC-SVG-20010904/DTD/svg10.dtd">
<svg version="1.0" xmlns="http://www.w3.org/2000/svg"
 width="244.000000pt" height="305.000000pt" viewBox="0 0 244.000000 305.000000"
 preserveAspectRatio="xMidYMid meet">
<metadata>
Created by potrace 1.16, written by Peter Selinger 2001-2019
</metadata>
<g transform="translate(0.000000,305.000000) scale(0.100000,-0.100000)"
fill="#000000" stroke="none">
<path d="M1030 2905 c-1 -5 -2 -118 -2 -250 l0 -240 -12 115 c-8 63 -12 137
-10 165 1 27 0 39 -3 25 -5 -22 -7 -20 -19 20 l-13 45 7 -50 c4 -27 7 -111 6
-185 0 -87 2 -112 5 -70 5 58 7 62 15 35 9 -31 25 -540 18 -562 -6 -18 -22
-16 -44 4 -18 16 -18 15 -13 -20 4 -24 2 -37 -5 -37 -8 0 -10 140 -8 500 2
274 0 496 -4 492 -9 -9 -21 -69 -48 -252 -21 -137 -40 -430 -40 -617 l0 -102
30 -18 c48 -28 55 -80 7 -54 -40 22 -80 10 -99 -28 -22 -44 -15 -61 25 -55 58
9 116 -68 81 -107 -13 -15 -16 -29 -11 -69 6 -50 6 -50 -23 -50 -34 0 -50 -22
-51 -72 -1 -31 -2 -31 -8 -8 -7 21 -9 15 -16 -32 -4 -31 -4 -75 0 -97 7 -45 4
-49 -19 -25 -24 23 -21 111 4 149 27 40 25 59 -5 73 -38 18 -72 15 -95 -8 -24
-24 -25 -41 -5 -106 8 -27 15 -77 15 -112 0 -54 -4 -66 -26 -88 -20 -20 -24
-32 -19 -54 6 -26 2 -31 -37 -50 -24 -12 -74 -34 -113 -50 -38 -16 -87 -36
-107 -44 -53 -22 -47 -8 13 34 28 19 68 49 89 65 22 17 71 53 109 80 77 54 77
55 61 144 -27 146 -30 151 -26 49 l3 -97 -27 5 c-24 5 -41 -9 -162 -138 -75
-78 -149 -158 -164 -177 l-28 -34 25 8 c13 4 48 18 77 31 28 13 52 21 52 19 0
-2 43 14 97 36 53 21 98 37 101 35 2 -3 -15 -30 -38 -61 -23 -31 -39 -59 -36
-62 6 -6 102 40 199 94 33 18 63 33 68 33 9 0 39 -59 39 -75 0 -3 -15 -12 -34
-20 -32 -14 -35 -19 -64 -127 -72 -267 -102 -385 -108 -418 l-6 -35 26 30 c14
17 61 76 103 133 43 56 80 102 83 102 4 0 -6 -64 -22 -141 -16 -78 -27 -144
-24 -146 2 -2 20 29 41 69 21 40 41 78 45 83 4 6 33 60 65 120 32 61 66 125
77 142 14 24 19 47 16 85 l-3 53 42 -1 c43 -1 75 -20 94 -56 7 -13 2 -25 -21
-51 l-29 -34 54 -319 c30 -175 55 -323 55 -328 0 -36 14 28 45 209 20 116 40
228 45 250 5 22 14 73 20 112 l12 73 -31 36 -30 37 19 27 c36 50 128 69 122
25 -9 -67 -2 -87 89 -251 51 -93 102 -186 112 -207 11 -21 22 -36 24 -33 3 3
-2 40 -10 83 -20 101 -30 173 -25 173 5 0 43 -48 157 -198 35 -46 66 -81 68
-78 3 2 -18 92 -46 198 -102 390 -92 359 -130 375 -31 13 -33 16 -26 51 8 43
13 52 26 52 6 0 60 -28 120 -61 60 -34 112 -59 116 -56 3 4 -10 31 -30 62 -21
30 -37 56 -37 58 0 3 291 -105 374 -139 33 -13 8 17 -158 191 -144 150 -161
165 -185 160 l-27 -6 3 93 c3 111 -12 77 -20 -45 l-6 -79 39 7 c39 7 40 6 128
-87 125 -131 179 -193 162 -183 -16 9 -101 65 -245 162 -73 48 -95 69 -110
102 -18 40 -18 45 -2 114 20 84 22 138 5 155 -15 15 -72 16 -99 2 -24 -14 -24
-41 1 -82 31 -50 21 -148 -14 -148 -11 0 -12 8 -5 39 6 29 4 51 -11 92 -11 30
-20 45 -21 34 0 -11 -5 -1 -11 23 -8 36 -14 44 -37 48 -27 6 -28 8 -23 54 3
33 -1 55 -12 73 -16 24 -16 27 6 61 24 38 54 52 89 43 41 -11 37 61 -6 89 -28
18 -64 13 -90 -13 -14 -13 -18 -14 -25 -3 -11 19 2 41 39 65 25 16 31 27 31
55 4 251 -12 533 -39 695 -14 82 -12 19 4 -115 8 -69 18 -228 22 -353 l6 -228
-34 -29 c-19 -16 -37 -29 -41 -30 -5 0 -7 219 -7 488 l1 487 18 -85 c10 -47
19 -76 19 -65 2 34 -31 185 -39 180 -4 -3 -16 -57 -26 -121 -20 -126 -28 -127
-40 -3 -16 162 -19 97 -19 -386 0 -479 -1 -504 -17 -482 -17 21 -21 40 -34
162 -7 65 -18 60 -33 -18 l-9 -42 -1 37 c-1 45 -21 62 -21 18 0 -17 -4 -29 -8
-26 -5 3 -12 67 -15 143 -6 130 -35 339 -55 393 -9 23 -10 23 -15 5 -21 -67
-49 -282 -54 -407 -3 -82 -10 -148 -15 -148 -4 0 -8 16 -8 35 0 44 -20 46 -21
3 l-1 -33 -8 33 c-4 19 -13 39 -19 45 -7 7 -11 54 -11 121 0 196 -49 737 -60
671z m257 -867 c-2 -18 -4 -4 -4 32 0 36 2 50 4 33 2 -18 2 -48 0 -65z m-207
-164 c0 -8 -7 -14 -15 -14 -15 0 -21 21 -9 33 10 9 24 -2 24 -19z m420 -5 c0
-5 -9 -9 -20 -9 -19 0 -27 20 -13 33 7 8 33 -11 33 -24z m-486 6 c4 -10 -1
-15 -14 -15 -11 0 -20 7 -20 15 0 8 6 15 14 15 8 0 16 -7 20 -15z m404 -3 c2
-7 -6 -12 -17 -12 -21 0 -27 11 -14 24 9 9 26 2 31 -12z m-288 -120 c0 -4 -9
-13 -19 -19 -15 -10 -22 -9 -31 2 -10 12 -8 16 11 24 24 9 39 6 39 -7z m260
-8 c0 -7 -5 -16 -10 -19 -13 -8 -43 22 -36 34 8 13 46 1 46 -15z m100 -44 c0
-19 -17 -36 -27 -26 -3 3 -2 17 1 31 7 28 26 25 26 -5z m-488 -22 c-13 -13
-26 8 -17 30 6 16 7 16 17 -1 7 -13 7 -22 0 -29z m158 -40 c0 -10 9 -22 21
-28 11 -7 28 -28 36 -48 14 -34 16 -35 29 -17 8 10 14 25 14 32 0 7 11 20 25
29 14 9 25 24 25 33 0 13 8 16 40 13 38 -4 40 -6 40 -36 0 -43 -5 -46 -47 -34
-30 8 -38 7 -59 -13 -13 -12 -30 -40 -37 -63 l-14 -41 -11 40 c-13 44 -44 85
-67 85 -7 0 -25 -4 -39 -10 -29 -11 -31 -8 -40 40 l-6 36 45 -1 c36 0 45 -4
45 -17z m-172 -96 c19 -42 36 -86 39 -97 l4 -20 -16 20 c-39 47 -87 176 -66
175 3 0 21 -35 39 -78z m72 -12 c-1 -3 -7 4 -15 14 -8 11 -15 34 -14 50 0 28
2 27 15 -14 7 -25 14 -47 14 -50z m370 20 c-18 -34 -23 -16 -8 32 12 38 13 40
16 16 2 -15 -2 -37 -8 -48z m100 55 c0 -44 -82 -196 -98 -181 -2 3 14 43 37
90 22 46 41 89 41 95 0 6 5 11 10 11 6 0 10 -7 10 -15z m-380 -97 c11 -12 20
-25 20 -29 0 -4 3 -15 6 -23 11 -30 -24 -6 -46 30 -11 20 -20 37 -20 40 0 11
21 2 40 -18z m210 17 c0 -12 -53 -85 -62 -85 -15 0 3 54 24 73 20 16 38 22 38
12z m-424 -60 c4 -8 1 -22 -6 -30 -8 -9 -12 -45 -11 -95 1 -44 -1 -80 -3 -80
-2 0 -9 31 -16 69 -9 53 -9 78 1 110 13 43 25 52 35 26z m631 -53 c7 -54 -5
-141 -18 -121 -5 8 -6 35 -3 60 4 28 2 55 -6 68 -6 13 -9 30 -5 38 9 25 26 2
32 -45z m-384 -42 c19 -18 -11 -17 -39 1 l-29 21 30 -7 c17 -3 34 -10 38 -15z
m138 -1 c-17 -14 -27 -17 -35 -9 -13 13 2 25 36 27 l23 2 -24 -20z m139 -62
c0 -5 -4 -5 -10 -2 -5 3 -10 14 -10 23 0 15 2 15 10 2 5 -8 10 -19 10 -23z
m-317 -43 c-5 -29 -2 -35 21 -44 18 -6 26 -17 26 -34 0 -27 -29 -40 -47 -20
-8 8 -31 11 -68 8 -45 -3 -55 -1 -55 12 0 12 7 14 29 9 35 -7 42 6 32 61 -11
57 -6 64 34 52 31 -10 33 -13 28 -44z m246 -6 c-4 -65 -3 -67 41 -57 8 2 15
-3 15 -11 0 -12 -14 -15 -58 -16 -34 0 -62 -6 -66 -13 -12 -19 -41 -1 -41 25
0 17 8 28 26 34 23 9 26 15 21 44 -5 29 -2 34 21 43 43 17 44 16 41 -49z
m-559 -14 c0 -17 -22 -14 -28 4 -2 7 3 12 12 12 9 0 16 -7 16 -16z m820 -24
c0 -5 -2 -10 -4 -10 -3 0 -8 5 -11 10 -3 6 -1 10 4 10 6 0 11 -4 11 -10z
m-681 -42 c10 -30 9 -31 -4 -14 -8 11 -15 26 -15 33 0 22 8 14 19 -19z m531
-13 c-6 -15 -13 -25 -16 -23 -2 3 1 17 7 32 16 34 23 27 9 -9z m-781 -17 c18
-11 13 -18 -57 -84 -42 -40 -79 -71 -81 -69 -5 6 61 95 71 95 4 0 14 16 22 35
17 39 18 40 45 23z m880 -30 c-12 -42 -11 -74 1 -120 9 -32 17 -39 50 -49 44
-13 33 13 109 -259 22 -80 43 -158 46 -175 3 -16 -52 84 -122 223 -114 227
-128 259 -127 302 2 55 26 108 51 110 1 0 -3 -15 -8 -32z m-698 -10 c24 -44
28 -109 9 -148 -10 -19 -21 -51 -23 -70 -9 -63 -27 -141 -34 -154 -37 -59
-158 -217 -160 -209 -2 6 42 107 98 224 56 118 102 228 103 244 0 17 -3 54 -8
83 -9 56 -4 65 15 30z m880 -15 c60 -65 85 -97 69 -88 -8 5 -38 24 -67 42 -29
18 -56 33 -61 33 -19 0 -32 26 -20 38 21 21 43 13 79 -25z m-493 -27 c-7 -8
-15 -12 -17 -11 -5 6 10 25 20 25 5 0 4 -6 -3 -14z m-58 -120 c6 -6 15 4 25
27 18 44 27 49 15 8 -9 -33 -28 -71 -36 -71 -9 0 -44 84 -43 105 0 12 6 4 15
-20 8 -22 19 -44 24 -49z m-240 -11 c0 -2 -5 -16 -12 -30 -8 -18 -14 -22 -20
-13 -15 24 -9 48 12 48 11 0 20 -2 20 -5z m506 -30 c7 -19 14 -43 14 -53 0
-11 11 -44 24 -73 24 -53 97 -269 91 -269 -2 0 -42 74 -89 165 -84 160 -98
203 -80 249 10 25 24 19 40 -19z m-565 -25 c3 -24 -28 -90 -42 -90 -8 0 -7 4
12 89 12 54 23 54 30 1z m390 -152 l-9 -33 -1 41 c-1 22 2 44 7 48 12 12 14
-19 3 -56z m-391 48 c0 -12 -93 -272 -100 -279 -18 -20 39 211 61 245 21 32
39 48 39 34z m377 -128 c-3 -7 -5 -2 -5 12 0 14 2 19 5 13 2 -7 2 -19 0 -25z"/>
<path d="M1012 2800 c0 -14 2 -19 5 -12 2 6 2 18 0 25 -3 6 -5 1 -5 -13z"/>
<path d="M1412 2740 c0 -19 2 -27 5 -17 2 9 2 25 0 35 -3 9 -5 1 -5 -18z"/>
<path d="M1395 2577 c-4 -53 -5 -101 -3 -109 3 -7 8 34 12 91 4 57 5 105 3
108 -3 2 -8 -38 -12 -90z"/>
<path d="M1384 2345 c0 -60 1 -84 3 -52 2 32 2 81 0 110 -2 29 -3 3 -3 -58z"/>
<path d="M974 2180 c0 -113 2 -159 3 -102 2 56 2 148 0 205 -1 56 -3 10 -3
-103z"/>
</g>
</svg>
