<?xml version="1.0" standalone="no"?>
<!DOCTYPE svg PUBLIC "-//W3C//DTD SVG 20010904//EN"
 "http://www.w3.org/TR/2001/REC-SVG-20010904/DTD/svg10.dtd">
<svg version="1.0" xmlns="http://www.w3.org/2000/svg"
 width="244.000000pt" height="305.000000pt" viewBox="0 0 244.000000 305.000000"
 preserveAspectRatio="xMidYMid meet">
<metadata>
Created by potrace 1.16, written by Peter Selinger 2001-2019
</metadata>
<g transform="translate(0.000000,305.000000) scale(0.100000,-0.100000)"
fill="#000000" stroke="none">
<path d="M872 2808 c-31 -144 -50 -272 -61 -418 -12 -145 -16 -454 -6 -470 3
-5 12 -10 19 -10 7 0 21 -9 31 -20 30 -34 52 -34 92 -1 21 17 43 31 50 31 38
0 -9 610 -69 891 -11 55 -24 99 -27 99 -4 0 -16 -46 -29 -102z m24 -905 c-2
-2 -22 9 -45 23 l-41 28 0 100 c1 221 28 512 68 721 l17 90 3 -479 c1 -264 1
-481 -2 -483z"/>
<path d="M1560 2893 c0 -12 -3 -30 -6 -40 -5 -15 -4 -15 5 -3 8 11 11 -120 11
-467 0 -513 0 -513 -45 -463 -10 11 -24 20 -32 20 -10 0 -13 34 -13 168 0 194
13 359 40 525 11 65 20 126 20 134 0 39 -10 -1 -29 -112 -22 -131 -36 -297
-47 -561 -6 -171 -6 -172 15 -179 12 -4 37 -20 55 -36 l33 -29 34 30 c19 16
43 33 53 36 18 6 19 16 13 213 -7 242 -28 446 -64 626 -25 129 -42 183 -43
138z"/>
<path d="M1126 2723 c-3 -71 -9 -256 -13 -413 -6 -246 -8 -279 -18 -240 l-12
45 -13 -30 c-7 -16 -15 -69 -17 -116 -5 -81 -4 -88 16 -98 11 -7 21 -21 21
-31 0 -26 -12 -25 -28 0 -9 15 -23 20 -56 20 -49 0 -72 -16 -88 -62 -11 -30
-28 -38 -28 -13 0 8 -13 29 -29 47 -24 27 -36 33 -69 33 -49 0 -82 -27 -82
-67 0 -26 2 -28 43 -28 35 0 49 -6 75 -31 34 -33 42 -73 17 -83 -18 -7 -20
-59 -4 -107 7 -19 31 -62 55 -96 24 -34 44 -66 44 -71 0 -5 -14 -25 -30 -43
-66 -75 -50 -121 53 -153 15 -5 16 -9 7 -26 -17 -32 -45 -24 -89 27 -36 40
-41 52 -41 92 1 25 -3 71 -7 101 -9 63 -37 87 -78 68 -61 -28 -57 -89 16 -209
79 -131 89 -154 89 -206 0 -43 -14 -72 -142 -296 -79 -136 -144 -243 -146
-238 -2 5 18 73 43 152 26 79 57 175 69 214 22 69 23 70 69 83 43 12 47 17 58
55 6 23 9 61 6 85 -4 41 -14 59 -97 172 -55 75 -63 132 -26 186 14 21 26 46
26 56 0 40 -104 54 -140 18 -25 -25 -25 -42 0 -115 36 -105 21 -161 -57 -209
-73 -45 -263 -155 -308 -178 -36 -19 -38 -19 -25 -3 8 10 73 72 145 138 l130
119 41 -6 c29 -4 43 -1 46 7 7 24 -14 197 -25 197 -7 0 -8 -30 -4 -90 l7 -91
-34 6 c-31 6 -39 1 -113 -67 -43 -40 -127 -118 -186 -172 -59 -54 -105 -101
-103 -104 7 -6 117 27 313 95 151 52 162 57 165 82 3 22 7 26 32 23 64 -7 134
-59 156 -116 13 -35 2 -51 -39 -59 -19 -4 -32 -14 -36 -29 -8 -27 -82 -264
-131 -420 -19 -59 -34 -115 -34 -123 0 -9 57 48 128 126 70 78 160 179 200
223 59 66 72 85 67 105 -3 13 -9 36 -12 52 l-5 29 85 0 c59 0 86 -4 89 -13 2
-6 -6 -122 -18 -257 -12 -135 -21 -246 -19 -248 7 -7 22 89 19 115 -4 23 -3
24 4 8 8 -17 10 -14 16 19 4 21 5 41 2 44 -3 3 -6 -5 -6 -18 0 -13 -3 -21 -6
-17 -5 5 8 105 37 274 6 35 15 63 20 63 15 0 10 -79 -7 -105 -9 -13 -13 -29
-10 -34 4 -6 0 -40 -9 -77 -8 -37 -13 -69 -11 -71 3 -3 8 11 11 31 8 39 20 47
29 19 3 -10 17 -81 31 -158 15 -77 35 -176 45 -220 10 -44 22 -98 26 -120 l7
-40 8 35 c5 19 31 148 59 285 29 138 53 252 55 254 2 1 8 -14 14 -35 5 -22 22
-86 37 -144 14 -58 28 -107 30 -109 2 -2 4 15 4 38 0 28 -4 40 -11 35 -8 -5
-10 11 -7 52 3 33 3 46 0 29 -5 -30 -61 269 -62 328 0 43 28 34 33 -10 l4 -38
1 43 2 43 83 -3 82 -3 -4 -30 c-2 -16 -5 -40 -5 -51 -1 -15 61 -91 188 -233
103 -117 190 -210 193 -207 2 2 -24 96 -58 208 -34 111 -71 234 -83 272 -19
64 -24 71 -58 84 -42 17 -47 35 -23 82 19 36 68 74 117 89 44 14 58 9 58 -22
0 -21 22 -30 236 -101 129 -43 237 -76 240 -74 2 3 -40 45 -93 94 -53 49 -130
120 -171 158 -97 93 -107 99 -142 91 l-29 -6 6 92 c5 69 3 90 -5 85 -7 -4 -12
-26 -12 -50 0 -24 -7 -65 -15 -92 -8 -27 -15 -56 -15 -64 0 -8 56 -49 128 -94
209 -129 255 -160 245 -163 -12 -4 -332 112 -346 126 -5 5 -3 18 5 30 12 20
10 25 -20 49 -45 37 -52 87 -23 180 25 84 26 101 5 130 -20 29 -91 31 -124 4
l-23 -19 27 -45 c46 -78 34 -138 -49 -243 -57 -72 -72 -107 -81 -185 -6 -55
-4 -63 26 -117 89 -156 220 -396 220 -400 0 -12 -33 23 -147 155 -161 189
-155 179 -142 227 6 21 8 51 5 67 -10 48 13 130 56 203 88 149 98 170 98 208
0 46 -28 77 -70 77 -23 0 -31 -5 -34 -22 -14 -69 -18 -97 -17 -137 0 -52 -25
-100 -71 -133 l-31 -21 -18 22 c-16 20 -19 21 -19 5 0 -15 -3 -15 -25 6 -28
27 -48 88 -42 128 4 24 4 23 6 -6 1 -25 5 -32 18 -30 14 2 19 -6 23 -32 5 -34
6 -35 45 -33 30 1 46 9 63 29 30 34 23 64 -24 116 -38 42 -38 42 13 104 58 72
84 192 47 219 -15 10 -15 14 -1 42 22 42 61 65 105 61 31 -3 37 0 40 18 2 12
-8 34 -21 49 -44 52 -124 29 -154 -43 l-16 -37 -17 40 c-9 22 -25 47 -34 55
-24 19 -81 18 -105 -4 -14 -13 -21 -14 -27 -5 -4 7 2 20 17 31 18 15 23 28 21
56 -5 71 -24 172 -33 172 -9 0 -24 -50 -34 -120 -19 -122 -25 -41 -26 390 -2
294 -5 426 -9 360 -4 -58 -8 -166 -9 -241 0 -75 -4 -139 -8 -142 -4 -4 -17 41
-29 100 -12 60 -27 119 -32 133 -9 24 -10 23 -22 -20 -7 -25 -20 -82 -29 -128
-10 -45 -20 -79 -24 -76 -4 4 -8 -51 -8 -122 -1 -71 -5 -174 -9 -229 -4 -62
-7 78 -8 368 0 258 -2 470 -5 473 -2 2 -7 -53 -11 -123z m101 -215 c-3 -8 -6
-5 -6 6 -1 11 2 17 5 13 3 -3 4 -12 1 -19z m-12 -275 c-8 -364 -16 -514 -26
-507 -5 3 -9 -14 -9 -37 0 -43 13 -45 23 -4 3 11 5 1 6 -22 1 -46 -8 -53 -33
-27 -23 23 -18 143 5 128 14 -8 11 52 -4 89 -10 24 -11 71 -6 197 7 154 36
430 45 430 3 0 2 -111 -1 -247z m-106 -478 c2 -2 1 -12 -3 -21 -6 -16 -18 -16
-58 1 -14 6 -18 2 -18 -17 0 -29 26 -68 45 -68 7 0 21 7 30 16 21 21 23 18 17
-33 -3 -35 -10 -46 -38 -62 -23 -14 -34 -28 -34 -43 -1 -22 -2 -21 -30 9 -16
18 -34 51 -41 75 -7 24 -18 50 -26 59 -21 25 -16 45 19 74 29 24 37 26 82 20
28 -3 52 -8 55 -10z m395 -16 c29 -34 33 -54 13 -66 -7 -4 -19 -28 -26 -53 -7
-25 -22 -58 -34 -74 l-20 -28 -24 31 c-14 17 -33 31 -44 31 -16 0 -19 7 -19
45 0 42 2 45 19 35 33 -17 71 12 71 55 0 12 -8 15 -37 13 -32 -2 -38 0 -41 17
-2 18 4 20 57 22 56 2 62 0 85 -28z m-576 -161 c11 -24 38 -63 61 -88 38 -41
53 -80 32 -80 -12 0 -72 67 -98 110 -25 42 -39 100 -24 100 5 0 19 -19 29 -42z
m642 19 c0 -38 -48 -123 -93 -164 -36 -32 -42 -35 -45 -19 -2 11 11 34 30 55
46 48 75 91 83 124 9 33 25 36 25 4z m-385 -10 c0 -26 -20 -25 -23 2 -3 16 1
22 10 19 7 -3 13 -12 13 -21z m125 4 c0 -11 -4 -22 -9 -25 -12 -8 -34 21 -26
34 11 17 35 11 35 -9z m-181 -98 c17 -59 15 -66 -14 -46 -17 13 -24 28 -25 51
0 45 26 42 39 -5z m111 2 c0 -19 -2 -35 -4 -35 -2 0 -6 16 -8 35 -2 19 0 35 4
35 4 0 8 -16 8 -35z m150 12 c0 -25 -44 -74 -54 -59 -3 5 -1 25 5 45 7 27 15
37 29 37 14 0 20 -7 20 -23z m-343 -109 c-3 -8 -6 -5 -6 6 -1 11 2 17 5 13 3
-3 4 -12 1 -19z m350 -10 c-3 -8 -6 -5 -6 6 -1 11 2 17 5 13 3 -3 4 -12 1 -19z
m-310 -10 c-3 -8 -6 -5 -6 6 -1 11 2 17 5 13 3 -3 4 -12 1 -19z m263 -3 c0 -8
-7 -15 -15 -15 -9 0 -12 6 -9 15 4 8 10 15 15 15 5 0 9 -7 9 -15z m-200 -10
c0 -8 -7 -15 -15 -15 -8 0 -15 7 -15 15 0 8 7 15 15 15 8 0 15 -7 15 -15z
m-112 -45 c12 -8 22 -24 21 -35 0 -17 -2 -17 -11 5 -6 15 -12 20 -15 12 -3 -6
-9 -10 -14 -6 -5 3 -9 -3 -9 -13 0 -10 -4 -25 -10 -33 -14 -23 -32 33 -20 64
10 27 23 28 58 6z m452 -26 c0 -37 -15 -46 -25 -14 -4 11 -11 18 -16 15 -5 -4
-9 3 -9 14 0 10 6 21 13 24 24 8 37 -6 37 -39z m-318 4 c-9 -9 -12 -7 -12 12
0 19 3 21 12 12 9 -9 9 -15 0 -24z m138 12 c0 -5 -4 -10 -10 -10 -5 0 -10 5
-10 10 0 6 5 10 10 10 6 0 10 -4 10 -10z m-207 -73 c7 -37 10 -64 6 -60 -7 8
-29 103 -29 125 0 26 10 -2 23 -65z m277 -8 c-17 -68 -23 -57 -8 15 7 32 14
53 16 47 2 -7 -2 -34 -8 -62z m-339 -32 c-6 -15 -15 -27 -21 -27 -5 0 -2 16 7
36 19 39 29 32 14 -9z m300 -3 c-9 -35 -35 -43 -50 -15 -13 23 6 43 19 21 6
-9 11 -7 20 10 15 29 21 21 11 -16z m-181 4 c0 6 5 12 10 12 15 0 12 -36 -4
-49 -12 -10 -17 -8 -25 8 -6 11 -11 28 -11 37 0 16 1 16 15 -2 8 -11 15 -14
15 -6z m77 -280 c-3 -8 -6 -5 -6 6 -1 11 2 17 5 13 3 -3 4 -12 1 -19z m-77
-53 c0 -14 -4 -25 -10 -25 -5 0 -10 11 -10 25 0 14 5 25 10 25 6 0 10 -11 10
-25z m161 -8 c-8 -8 -11 -7 -11 4 0 20 13 34 18 19 3 -7 -1 -17 -7 -23z m-115
-94 c-1 -60 2 -178 6 -263 l7 -155 -44 195 c-25 107 -45 207 -45 222 0 18 13
42 36 68 20 22 37 40 38 40 1 0 2 -48 2 -107z"/>
<path d="M1186 2054 c-10 -25 -7 -178 4 -194 7 -10 10 21 10 98 0 61 -2 112
-4 112 -2 0 -7 -7 -10 -16z"/>
<path d="M1542 2810 c0 -14 2 -19 5 -12 2 6 2 18 0 25 -3 6 -5 1 -5 -13z"/>
<path d="M1343 2665 c0 -27 2 -38 4 -22 2 15 2 37 0 50 -2 12 -4 0 -4 -28z"/>
<path d="M1153 2620 c0 -25 2 -35 4 -22 2 12 2 32 0 45 -2 12 -4 2 -4 -23z"/>
<path d="M1353 2465 c0 -44 2 -61 4 -37 2 23 2 59 0 80 -2 20 -4 1 -4 -43z"/>
<path d="M1351 2314 c0 -11 3 -14 6 -6 3 7 2 16 -1 19 -3 4 -6 -2 -5 -13z"/>
<path d="M1403 800 c0 -25 2 -35 4 -22 2 12 2 32 0 45 -2 12 -4 2 -4 -23z"/>
<path d="M1413 685 c0 -22 2 -30 4 -17 2 12 2 30 0 40 -3 9 -5 -1 -4 -23z"/>
</g>
</svg>
