<?xml version="1.0" standalone="no"?>
<!DOCTYPE svg PUBLIC "-//W3C//DTD SVG 20010904//EN"
 "http://www.w3.org/TR/2001/REC-SVG-20010904/DTD/svg10.dtd">
<svg version="1.0" xmlns="http://www.w3.org/2000/svg"
 width="244.000000pt" height="305.000000pt" viewBox="0 0 244.000000 305.000000"
 preserveAspectRatio="xMidYMid meet">
<metadata>
Created by potrace 1.16, written by Peter Selinger 2001-2019
</metadata>
<g transform="translate(0.000000,305.000000) scale(0.100000,-0.100000)"
fill="#000000" stroke="none">
<path d="M936 2893 c-27 -96 -64 -387 -71 -558 -3 -82 -8 -209 -10 -281 l-5
-131 31 -13 c36 -15 64 -53 55 -76 -5 -13 -11 -12 -37 10 -46 39 -97 29 -118
-23 -17 -39 -8 -51 39 -51 32 0 43 -6 64 -33 30 -39 32 -59 10 -78 -13 -10
-15 -24 -10 -64 5 -45 3 -51 -17 -60 -16 -7 -23 -20 -25 -48 -2 -20 -7 -35
-12 -32 -5 3 -18 -7 -30 -22 -19 -24 -21 -36 -16 -80 4 -32 2 -54 -5 -58 -14
-9 -16 -6 -30 47 -12 43 -11 50 14 98 15 29 27 58 27 66 0 19 -33 34 -78 34
-31 0 -41 -5 -52 -26 -12 -21 -12 -34 0 -82 7 -31 15 -87 17 -124 4 -62 3 -69
-22 -94 -22 -22 -26 -33 -21 -59 6 -31 4 -33 -41 -53 -95 -41 -274 -112 -281
-112 -6 0 110 86 336 246 14 11 14 18 -1 82 -9 38 -17 88 -17 111 0 24 -5 41
-11 41 -9 0 -10 -25 -6 -90 l7 -90 -26 6 c-30 8 -30 8 -226 -199 -78 -81 -139
-150 -136 -152 2 -3 94 29 203 70 109 41 200 73 202 71 2 -2 -12 -29 -32 -61
-20 -31 -34 -59 -32 -62 3 -2 54 23 113 56 60 33 112 57 116 53 5 -5 13 -23
18 -41 8 -30 7 -34 -25 -52 -21 -13 -37 -32 -43 -52 -13 -43 -55 -200 -88
-322 -14 -55 -30 -111 -34 -125 -13 -38 -22 -90 -16 -90 3 0 29 31 58 69 131
173 183 239 187 236 2 -2 -5 -48 -14 -102 -39 -218 -42 -213 35 -68 170 317
169 316 163 367 -5 44 -4 48 15 48 48 0 112 -45 112 -79 0 -8 -12 -27 -26 -42
l-26 -27 42 -239 c67 -380 72 -408 75 -411 1 -2 8 28 15 65 7 37 25 142 42
233 16 91 36 207 44 258 l14 93 -25 33 c-14 18 -25 38 -25 43 0 22 71 73 101
73 30 0 30 0 27 -53 -2 -46 3 -64 51 -157 29 -58 57 -109 61 -115 4 -5 31 -57
61 -114 30 -58 55 -97 57 -88 2 9 -6 60 -17 114 -11 54 -23 116 -25 138 -6 47
-20 62 129 -132 55 -72 102 -129 104 -127 4 3 -30 134 -103 404 -41 150 -43
155 -75 170 -30 13 -32 17 -27 49 7 45 24 54 61 32 69 -42 217 -122 221 -119
2 2 -17 35 -41 73 -25 38 -43 71 -40 73 2 3 19 -2 37 -11 18 -8 76 -31 128
-50 52 -20 112 -43 133 -52 64 -27 70 -15 19 41 -245 266 -266 286 -295 280
l-28 -6 7 90 c4 58 3 90 -3 90 -10 0 -28 -199 -19 -208 3 -2 18 0 34 6 29 10
33 7 108 -71 152 -160 179 -190 162 -184 -17 6 -249 155 -258 166 -3 4 -17 14
-32 24 -31 19 -58 75 -58 116 0 14 7 48 15 75 19 63 19 111 -1 130 -29 29
-114 14 -114 -20 0 -8 9 -32 20 -54 30 -59 23 -139 -14 -153 -13 -5 -14 2 -9
44 6 55 -14 140 -29 117 -5 -8 -8 -2 -8 17 -1 35 -18 61 -45 66 -16 4 -19 11
-16 56 1 28 -2 54 -8 58 -20 12 -11 50 19 83 24 27 36 33 63 30 31 -3 32 -2
30 32 -1 19 -9 40 -19 47 -24 17 -66 16 -90 -2 -27 -20 -36 -18 -32 7 2 12 19
33 38 46 l34 23 -2 162 c-3 231 -24 498 -46 612 -3 11 -5 31 -6 45 -1 14 -4
20 -6 14 -3 -6 5 -92 16 -190 12 -99 23 -277 27 -399 l5 -220 -36 -22 c-20
-13 -38 -23 -41 -23 -3 0 -5 212 -5 471 0 353 3 468 12 463 8 -5 9 0 5 17 -4
13 -7 31 -7 39 -1 41 -20 -23 -36 -122 -20 -120 -28 -118 -39 10 -4 46 -11 96
-15 110 -5 16 -6 -2 -3 -43 3 -39 2 -268 -2 -508 -6 -361 -10 -435 -20 -420
-7 10 -19 63 -26 118 -7 55 -14 93 -17 85 -3 -8 -11 -35 -18 -60 -11 -40 -12
-42 -14 -15 -1 17 -5 39 -10 50 -8 18 -9 17 -9 -7 -1 -16 -5 -28 -11 -28 -6 0
-10 33 -10 78 0 97 -15 243 -36 347 -22 112 -25 121 -34 104 -18 -34 -53 -277
-59 -419 -6 -139 -8 -150 -17 -110 l-11 45 -10 -45 c-9 -35 -11 -39 -12 -17
-1 16 -5 36 -10 45 -5 9 -14 121 -20 247 -11 223 -35 481 -49 538 -4 15 -7
-136 -6 -335 1 -355 -2 -357 -21 -11 -5 78 -12 140 -17 137 -4 -3 -8 7 -8 23
-1 15 -7 55 -15 88 -15 62 -14 48 6 -97 6 -43 9 -122 7 -177 -1 -54 0 -94 4
-88 4 7 8 23 9 37 5 62 17 -172 18 -334 l1 -178 -26 6 c-14 4 -23 3 -20 -2 3
-5 -1 -18 -9 -28 -12 -17 -14 -17 -20 -3 -3 9 -5 237 -3 507 2 271 2 492 1
492 -1 0 -4 -8 -7 -17z m351 -865 c-2 -29 -3 -6 -3 52 0 58 1 81 3 53 2 -29 2
-77 0 -105z m-274 -142 c7 -19 -1 -26 -31 -26 -24 0 -25 1 -7 20 21 24 31 25
38 6z m472 -7 c0 -7 -8 -15 -17 -17 -18 -3 -25 18 -11 32 10 10 28 1 28 -15z
m-397 -7 c2 -7 -3 -12 -12 -12 -9 0 -16 7 -16 16 0 17 22 14 28 -4z m332 -3
c0 -5 -7 -9 -15 -9 -15 0 -20 12 -9 23 8 8 24 -1 24 -14z m-304 -134 c-17 -17
-36 -12 -36 10 0 16 31 25 44 14 5 -4 1 -15 -8 -24z m274 4 c0 -11 -5 -19 -11
-19 -16 0 -41 28 -35 39 10 16 46 0 46 -20z m-377 -67 c-5 -11 -8 -11 -21 1
-10 11 -12 24 -7 44 l8 28 12 -30 c7 -16 10 -35 8 -43z m475 22 c-5 -28 -28
-29 -28 -1 0 13 3 27 7 31 10 10 25 -10 21 -30z m-191 -46 c-3 -7 -5 -2 -5 12
0 14 2 19 5 13 2 -7 2 -19 0 -25z m-146 2 c5 0 9 -8 9 -19 0 -10 9 -21 20 -24
11 -3 27 -21 35 -41 9 -20 17 -36 20 -36 3 0 11 16 20 36 8 20 24 38 35 41 11
3 20 13 20 23 0 20 29 31 60 23 12 -3 20 -14 20 -27 0 -37 -15 -49 -52 -42
-45 8 -66 -8 -87 -71 l-17 -51 -12 41 c-17 66 -31 79 -88 81 -47 1 -49 2 -52
33 -3 32 14 46 46 37 8 -2 18 -4 23 -4z m274 -100 c-24 -46 -27 -33 -7 30 14
46 17 50 20 28 2 -15 -4 -41 -13 -58z m-429 -27 c26 -54 50 -102 53 -108 2 -5
-8 1 -23 14 -32 30 -86 135 -86 168 0 12 2 23 4 23 2 0 25 -44 52 -97z m63 39
c7 -24 10 -46 8 -48 -6 -6 -37 72 -37 93 0 27 15 3 29 -45z m448 -35 c-23 -50
-75 -122 -83 -114 -2 2 20 51 48 108 39 76 54 98 56 81 2 -12 -7 -46 -21 -75z
m-337 -65 c-1 -13 -6 -11 -25 11 -14 15 -25 36 -25 45 1 13 6 11 25 -11 14
-15 25 -36 25 -45z m180 54 c0 -8 -11 -28 -25 -43 -22 -26 -24 -26 -25 -7 0
11 9 30 20 42 24 26 30 27 30 8z m210 -72 c17 -45 10 -154 -11 -154 -4 0 -7
26 -6 58 1 31 -2 72 -6 90 -10 39 9 45 23 6z m-628 -61 c-5 -80 -7 -91 -18
-80 -9 9 -10 118 -2 140 16 38 25 13 20 -60z m246 -16 c3 -16 1 -17 -17 -8
-30 16 -34 28 -8 27 13 -1 23 -9 25 -19z m137 -3 c-22 -16 -40 -8 -25 11 6 8
19 11 27 8 14 -5 14 -8 -2 -19z m-286 -46 c-1 -7 -5 -24 -9 -38 -7 -22 -8 -21
-9 13 -1 20 4 37 9 37 6 0 10 -6 9 -12z m430 -15 c0 -25 -1 -26 -9 -8 -12 27
-12 35 0 35 6 0 10 -12 9 -27z m-316 -3 c16 0 16 -2 1 -25 -18 -28 -12 -42 23
-56 35 -13 29 -55 -7 -51 -14 1 -50 4 -80 5 -49 2 -55 4 -58 25 -4 23 -3 23
22 7 38 -25 48 -12 40 52 -7 55 -6 56 17 50 13 -4 32 -7 42 -7z m242 -45 c-5
-45 -4 -56 9 -61 9 -4 23 -1 31 6 18 15 30 7 22 -14 -4 -11 -21 -15 -59 -16
-29 0 -64 -1 -78 -2 -37 -4 -41 38 -6 52 20 7 26 16 26 40 0 17 -6 31 -12 31
-7 1 1 5 17 9 58 15 58 15 50 -45z m-555 -33 c0 -13 -3 -12 -20 3 -11 10 -20
28 -20 39 1 20 1 20 20 -3 11 -13 20 -30 20 -39z m820 -2 c0 -5 -4 -10 -10
-10 -5 0 -10 5 -10 10 0 6 5 10 10 10 6 0 10 -4 10 -10z m-150 -55 c-6 -15
-13 -25 -16 -23 -2 3 1 17 7 32 16 34 23 27 9 -9z m-510 -8 c0 -5 -4 -5 -10
-2 -5 3 -10 14 -10 23 0 15 2 15 10 2 5 -8 10 -19 10 -23z m-316 -22 c-4 -8
-8 -15 -10 -15 -2 0 -4 7 -4 15 0 8 4 15 10 15 5 0 7 -7 4 -15z m10 -66 c-32
-32 -60 -57 -62 -54 -4 4 49 86 76 117 12 14 18 15 29 6 12 -9 4 -22 -43 -69z
m231 -25 c3 -29 2 -70 -4 -91 -5 -21 -13 -63 -16 -93 -8 -63 -20 -88 -83 -179
-45 -65 -143 -191 -148 -191 -3 0 29 69 170 363 60 127 64 150 41 237 -19 70
-19 70 9 36 15 -18 27 -49 31 -82z m681 50 c-3 -26 -1 -64 5 -86 8 -33 17 -42
54 -58 38 -16 45 -24 51 -57 4 -21 29 -116 55 -212 27 -96 47 -176 45 -179 -2
-2 -59 107 -125 242 -108 220 -121 251 -121 299 0 47 19 97 37 97 3 0 3 -21
-1 -46z m204 -26 c38 -39 68 -73 66 -75 -4 -4 -152 82 -170 98 -8 7 18 49 30
49 2 0 35 -32 74 -72z m-566 -128 c3 0 12 15 20 33 9 20 15 25 15 14 1 -18
-25 -77 -34 -77 -8 0 -35 59 -35 77 1 11 6 5 15 -14 8 -18 16 -33 19 -33z
m264 -53 c6 -23 37 -121 71 -216 33 -96 59 -177 57 -178 -2 -2 -45 77 -94 175
-94 184 -98 200 -76 271 7 23 32 -6 42 -52z m-508 36 c-1 -10 -7 -29 -15 -43
-14 -26 -13 -28 -30 26 -7 22 2 34 26 34 12 0 19 -7 19 -17z m-64 -79 c-4 -13
-11 -24 -17 -24 -7 0 -9 9 -5 23 3 12 6 31 6 42 1 19 1 19 11 2 6 -10 8 -29 5
-43z m-26 -184 c-29 -83 -54 -149 -55 -148 -2 2 6 50 17 108 15 81 27 116 51
152 18 25 34 45 36 43 2 -2 -20 -72 -49 -155z m416 49 c-15 -69 -15 -70 -11
-19 3 30 5 68 5 85 0 20 3 26 11 18 7 -7 5 -32 -5 -84z"/>
<path d="M1542 2790 c0 -14 2 -19 5 -12 2 6 2 18 0 25 -3 6 -5 1 -5 -13z"/>
<path d="M1412 2765 c0 -16 2 -22 5 -12 2 9 2 23 0 30 -3 6 -5 -1 -5 -18z"/>
<path d="M1012 2725 c0 -16 2 -22 5 -12 2 9 2 23 0 30 -3 6 -5 -1 -5 -18z"/>
<path d="M1402 2675 c0 -16 2 -22 5 -12 2 9 2 23 0 30 -3 6 -5 -1 -5 -18z"/>
<path d="M1393 2565 c0 -33 2 -45 4 -27 2 18 2 45 0 60 -2 15 -4 0 -4 -33z"/>
<path d="M1384 2390 c0 -52 1 -74 3 -47 2 26 2 68 0 95 -2 26 -3 4 -3 -48z"/>
<path d="M984 2225 c0 -82 2 -115 3 -72 2 43 2 110 0 150 -1 40 -3 5 -3 -78z"/>
<path d="M1373 2185 c0 -27 2 -38 4 -22 2 15 2 37 0 50 -2 12 -4 0 -4 -28z"/>
</g>
</svg>
