<?xml version="1.0" standalone="no"?>
<!DOCTYPE svg PUBLIC "-//W3C//DTD SVG 20010904//EN"
 "http://www.w3.org/TR/2001/REC-SVG-20010904/DTD/svg10.dtd">
<svg version="1.0" xmlns="http://www.w3.org/2000/svg"
 width="244.000000pt" height="305.000000pt" viewBox="0 0 244.000000 305.000000"
 preserveAspectRatio="xMidYMid meet">
<metadata>
Created by potrace 1.16, written by Peter Selinger 2001-2019
</metadata>
<g transform="translate(0.000000,305.000000) scale(0.100000,-0.100000)"
fill="#000000" stroke="none">
<path d="M927 2895 c-11 -34 -45 -245 -61 -376 -9 -68 -19 -230 -22 -360 l-7
-237 31 -16 c18 -9 32 -20 32 -24 0 -4 9 -13 19 -19 16 -10 24 -7 51 18 34 33
46 34 68 1 14 -21 14 -22 -17 -16 -40 8 -55 -5 -71 -62 l-13 -46 -19 38 c-24
50 -43 64 -89 64 -44 0 -69 -27 -69 -73 0 -27 2 -28 35 -21 31 5 39 2 70 -29
38 -38 43 -58 20 -77 -17 -14 -15 -110 7 -266 7 -54 8 -94 1 -120 -9 -35 -10
-28 -17 72 l-8 111 -40 -7 c-66 -12 -81 -56 -49 -136 35 -83 7 -101 -30 -20
-24 54 -24 113 1 154 37 61 19 92 -54 92 -62 0 -80 -49 -50 -141 11 -32 15
-70 12 -110 -4 -53 -8 -65 -31 -81 -22 -16 -25 -23 -17 -38 20 -38 18 -39
-130 -100 -83 -34 -183 -70 -187 -67 -3 3 54 43 238 169 112 76 115 79 100
127 -6 21 -14 66 -17 100 -11 102 -28 87 -20 -17 l7 -92 -29 6 c-27 5 -42 -7
-198 -165 -93 -95 -171 -176 -172 -182 -2 -5 16 -1 40 10 38 18 220 85 351
129 37 13 47 20 47 38 0 13 4 25 9 28 13 8 71 -14 71 -27 0 -6 -23 -48 -51
-95 -27 -46 -48 -86 -46 -89 3 -2 30 12 60 31 31 20 60 36 65 36 5 0 15 7 22
15 19 23 40 18 40 -10 0 -20 -6 -27 -29 -31 -36 -8 -32 2 -120 -309 -74 -262
-81 -294 -55 -260 8 11 37 47 64 80 192 236 242 296 245 293 1 -2 -12 -92 -29
-200 -18 -109 -31 -198 -29 -198 4 0 79 156 161 335 37 79 46 111 47 155 0 53
1 55 25 52 26 -3 80 -48 80 -67 0 -6 -11 -22 -25 -35 -30 -29 -31 -45 -5 -186
26 -138 43 -228 70 -379 19 -105 30 -150 30 -118 0 10 13 81 74 410 20 105 36
201 36 214 0 12 -11 37 -25 55 -14 18 -25 37 -25 41 0 17 56 62 80 65 24 3 25
1 22 -47 -3 -40 3 -64 31 -120 18 -38 62 -130 97 -203 35 -72 65 -130 67 -128
3 2 -7 79 -22 170 -15 92 -25 171 -23 178 4 10 38 -29 223 -257 95 -117 115
-140 115 -130 0 6 -35 134 -78 285 l-79 275 -36 18 c-36 18 -49 48 -27 62 5 3
40 -12 77 -34 37 -22 69 -38 71 -36 3 2 -14 36 -37 74 -22 38 -41 74 -41 79 0
13 78 44 91 37 5 -4 9 -17 9 -30 0 -19 9 -27 48 -41 26 -9 74 -27 107 -40 104
-39 289 -103 292 -100 1 1 -76 81 -173 177 -157 156 -178 174 -205 171 l-31
-2 7 84 c4 51 3 86 -2 89 -9 6 -23 -101 -23 -175 0 -29 1 -30 38 -23 38 6 38
6 176 -130 76 -75 136 -138 134 -140 -4 -4 -38 17 -168 100 -36 23 -88 56
-116 73 -108 68 -124 106 -92 233 20 83 21 88 5 113 -15 21 -25 26 -62 26 -26
0 -50 -6 -59 -16 -20 -20 -21 -16 9 -72 29 -54 31 -83 10 -141 -15 -44 -51
-89 -61 -78 -4 3 3 29 15 56 43 100 19 170 -53 158 -27 -4 -36 -2 -39 11 -3 9
-6 -10 -7 -43 -1 -33 -5 -80 -9 -105 -6 -38 -8 -42 -15 -22 -7 22 6 158 25
255 13 69 11 103 -6 117 -22 18 -19 35 16 75 25 29 38 35 69 35 48 0 55 10 36
53 -27 66 -110 57 -147 -15 l-20 -40 -22 44 c-16 32 -31 46 -54 53 -37 10 -40
17 -18 35 19 16 50 5 70 -26 l16 -25 38 33 c21 18 45 38 54 43 15 9 15 33 7
250 -8 219 -34 503 -47 515 -3 3 -2 -24 2 -60 19 -174 25 -262 31 -458 l7
-213 -34 -29 c-19 -16 -37 -29 -41 -30 -5 0 -8 217 -7 483 1 294 4 472 10 457
7 -21 8 -20 4 9 -3 18 -5 40 -5 47 0 8 -4 14 -9 14 -10 0 -46 -185 -66 -350
-9 -69 -17 -129 -19 -135 -2 -5 -6 42 -10 105 -9 130 -32 349 -37 355 -2 2 -3
-204 -3 -458 1 -254 0 -451 -2 -437 -2 14 -7 44 -10 68 -4 33 -9 42 -25 42
-17 0 -19 -8 -20 -62 -2 -107 -15 -123 -21 -27 -3 47 -11 95 -17 107 -6 11
-11 54 -11 95 0 101 -52 398 -67 383 -16 -16 -63 -310 -63 -393 0 -32 -7 -80
-15 -107 -8 -27 -15 -70 -15 -95 -1 -36 -3 -42 -11 -29 -5 10 -14 139 -19 288
-9 264 -35 603 -48 627 -4 6 -6 -214 -4 -490 2 -411 1 -500 -10 -489 -16 16
-25 154 -27 389 -1 95 -5 182 -10 195 -5 13 -17 80 -27 151 -9 70 -19 125 -21
123 -3 -2 2 -62 11 -133 25 -205 27 -246 27 -473 l0 -215 -28 -22 c-15 -13
-31 -23 -35 -23 -5 0 -8 217 -7 483 0 278 4 474 9 462 l9 -20 -1 20 c0 11 -3
31 -7 45 -7 23 -8 24 -14 5z m361 -740 c4 -83 5 -186 2 -230 -6 -76 -7 -74 -8
46 -1 69 -5 175 -8 235 -4 60 -4 107 -1 104 3 -3 10 -73 15 -155z m-198 -295
c0 -5 -4 -10 -10 -10 -5 0 -10 5 -10 10 0 6 5 10 10 10 6 0 10 -4 10 -10z
m310 0 c0 -5 -4 -10 -10 -10 -5 0 -10 5 -10 10 0 6 5 10 10 10 6 0 10 -4 10
-10z m-274 -106 c-3 -9 -6 -20 -6 -25 0 -5 -7 -9 -15 -9 -18 0 -20 21 -3 38
17 17 31 15 24 -4z m254 -26 c0 -13 -17 -9 -30 7 -6 8 -8 20 -4 26 5 9 11 7
21 -6 7 -11 13 -22 13 -27z m120 -33 c0 -13 -7 -25 -15 -29 -9 -3 -15 -18 -15
-38 0 -18 -7 -41 -14 -50 -11 -16 -14 -8 -19 58 -6 61 -4 80 10 101 l17 25 18
-22 c10 -12 18 -32 18 -45z m-472 30 c15 -32 15 -62 2 -70 -5 -3 -10 -23 -10
-43 0 -28 -3 -33 -10 -22 -5 8 -10 27 -10 41 0 15 -7 32 -15 39 -18 15 -19 34
-5 61 15 26 35 24 48 -6z m272 -67 c0 -9 -4 -20 -10 -23 -6 -4 -10 9 -10 32 0
28 3 34 10 23 5 -8 10 -23 10 -32z m-140 -33 c0 -7 9 -15 20 -18 11 -3 27 -21
35 -41 9 -20 18 -36 21 -36 3 0 12 16 20 35 8 20 25 40 38 45 13 5 26 20 30
34 3 14 10 26 15 26 17 0 32 -29 29 -56 -3 -24 -8 -28 -42 -31 -50 -4 -61 -14
-77 -70 l-13 -47 -15 47 c-21 60 -32 70 -78 71 -34 1 -38 4 -41 29 -2 16 2 35
9 43 10 13 14 12 30 -2 11 -10 19 -23 19 -29z m-210 -22 c0 -23 33 -78 88
-147 54 -69 51 -92 -5 -36 -70 70 -131 200 -93 200 6 0 10 -8 10 -17z m457
-30 c-3 -10 -5 -2 -5 17 0 19 2 27 5 18 2 -10 2 -26 0 -35z m133 5 c-5 -17
-16 -38 -25 -48 -8 -9 -15 -24 -15 -32 0 -15 -91 -118 -104 -118 -18 0 0 33
44 84 27 31 59 79 71 106 23 54 43 59 29 8z m-470 0 c0 -36 -4 -35 -14 5 -4
16 -2 27 4 27 5 0 10 -14 10 -32z m26 -73 c19 -47 17 -55 -6 -25 -18 23 -27
60 -14 60 3 0 12 -16 20 -35z m288 -17 c-9 -18 -19 -28 -21 -21 -2 6 4 27 13
45 9 18 19 28 21 21 2 -6 -4 -27 -13 -45z m-225 1 c9 -26 9 -29 -3 -20 -16 14
-28 51 -16 51 4 0 13 -14 19 -31z m166 0 c-9 -17 -19 -29 -21 -26 -7 7 18 57
28 57 5 0 1 -14 -7 -31z m-365 -104 c0 -13 -4 -27 -10 -30 -6 -4 -10 8 -10 30
0 22 4 34 10 30 6 -3 10 -17 10 -30z m570 -5 c0 -10 -4 -22 -10 -25 -6 -4 -10
7 -10 25 0 18 4 29 10 25 6 -3 10 -15 10 -25z m-350 -5 c0 -8 -4 -15 -10 -15
-5 0 -10 7 -10 15 0 8 5 15 10 15 6 0 10 -7 10 -15z m138 3 c-6 -18 -28 -21
-28 -4 0 9 7 16 16 16 9 0 14 -5 12 -12z m-275 -96 c-4 -37 -1 -52 14 -71 13
-16 26 -22 37 -18 13 5 15 16 10 60 l-6 54 33 -5 c29 -4 31 -6 14 -18 -24 -18
-13 -61 18 -66 16 -2 22 -10 22 -28 0 -24 -2 -25 -55 -22 -79 5 -85 8 -96 50
-11 42 -7 112 7 112 4 0 6 -21 2 -48z m397 4 c0 -55 -17 -104 -38 -110 -10 -3
-39 -6 -67 -8 -48 -3 -50 -2 -50 22 0 18 6 26 22 28 32 5 41 42 15 63 -21 17
-21 17 9 21 38 6 43 -3 35 -57 -8 -50 6 -66 34 -40 22 20 29 50 19 87 -4 14
-5 29 -1 32 14 15 22 2 22 -38z m137 -58 c-3 -7 -5 -2 -5 12 0 14 2 19 5 13 2
-7 2 -19 0 -25z m-739 -50 c-2 -6 -12 1 -21 16 -10 15 -15 32 -11 38 8 13 37
-37 32 -54z m170 -13 c-3 -3 -9 2 -12 12 -6 14 -5 15 5 6 7 -7 10 -15 7 -18z
m623 -24 c-10 -18 -31 -29 -31 -16 0 18 25 54 33 46 5 -5 4 -17 -2 -30z m-871
-38 c-1 -18 -90 -126 -90 -109 0 15 71 126 81 126 5 0 9 -8 9 -17z m135 -20
c4 -10 8 -61 10 -115 1 -53 5 -101 9 -106 6 -10 -24 -54 -163 -232 -51 -67
-95 -119 -97 -117 -3 3 47 110 111 238 l117 234 -7 58 c-6 55 5 77 20 40z
m720 -51 c10 -55 12 -58 58 -81 43 -21 48 -28 63 -80 9 -31 38 -130 65 -220
27 -90 47 -166 45 -168 -3 -4 -53 89 -222 415 -54 103 -64 145 -43 184 15 27
22 16 34 -50z m150 -20 c-2 -2 -22 9 -44 24 -33 22 -39 29 -29 41 9 12 17 8
44 -24 18 -21 31 -39 29 -41z m-530 -72 c2 0 11 12 20 28 15 26 15 26 9 2 -4
-14 -12 -33 -20 -44 -12 -17 -13 -16 -28 12 -20 39 -20 66 0 30 8 -16 17 -28
19 -28z m-215 -4 c0 -10 -131 -440 -135 -445 -3 -2 -3 9 0 25 45 246 57 316
61 354 7 65 10 70 44 70 16 0 30 -2 30 -4z m486 -186 c66 -229 68 -236 61
-230 -2 3 -37 76 -76 164 -52 115 -71 170 -71 200 0 44 7 59 23 53 6 -2 34
-86 63 -187z m34 168 c0 -19 -2 -20 -10 -8 -13 19 -13 30 0 30 6 0 10 -10 10
-22z m-210 -147 c0 -13 -9 -69 -19 -125 -11 -55 -22 -118 -26 -140 -13 -81
-13 -25 0 89 17 142 19 221 5 230 -5 3 -10 12 -10 18 1 23 50 -48 50 -72z"/>
<path d="M1042 2805 c0 -16 2 -22 5 -12 2 9 2 23 0 30 -3 6 -5 -1 -5 -18z"/>
<path d="M952 2800 c0 -14 2 -19 5 -12 2 6 2 18 0 25 -3 6 -5 1 -5 -13z"/>
<path d="M1392 2785 c0 -16 2 -22 5 -12 2 9 2 23 0 30 -3 6 -5 -1 -5 -18z"/>
<path d="M1561 2784 c0 -11 3 -14 6 -6 3 7 2 16 -1 19 -3 4 -6 -2 -5 -13z"/>
<path d="M1572 2730 c0 -19 2 -27 5 -17 2 9 2 25 0 35 -3 9 -5 1 -5 -18z"/>
<path d="M1033 2695 c0 -27 2 -38 4 -22 2 15 2 37 0 50 -2 12 -4 0 -4 -28z"/>
<path d="M1383 2680 c0 -25 2 -35 4 -22 2 12 2 32 0 45 -2 12 -4 2 -4 -23z"/>
<path d="M1373 2560 c0 -36 2 -50 4 -32 2 17 2 47 0 65 -2 17 -4 3 -4 -33z"/>
<path d="M1023 2565 c0 -27 2 -38 4 -22 2 15 2 37 0 50 -2 12 -4 0 -4 -28z"/>
<path d="M1364 2365 c0 -60 1 -84 3 -52 2 32 2 81 0 110 -2 29 -3 3 -3 -58z"/>
</g>
</svg>
