<?xml version="1.0" standalone="no"?>
<!DOCTYPE svg PUBLIC "-//W3C//DTD SVG 20010904//EN"
 "http://www.w3.org/TR/2001/REC-SVG-20010904/DTD/svg10.dtd">
<svg version="1.0" xmlns="http://www.w3.org/2000/svg"
 width="244.000000pt" height="305.000000pt" viewBox="0 0 244.000000 305.000000"
 preserveAspectRatio="xMidYMid meet">
<metadata>
Created by potrace 1.16, written by Peter Selinger 2001-2019
</metadata>
<g transform="translate(0.000000,305.000000) scale(0.100000,-0.100000)"
fill="#000000" stroke="none">
<path d="M900 2858 c-51 -236 -80 -516 -80 -778 l0 -156 28 -16 c15 -9 36 -26
46 -37 l19 -21 33 28 c18 15 42 34 55 42 l22 16 -12 264 c-10 232 -41 523 -56
538 -8 8 -6 -12 15 -173 13 -90 23 -242 27 -380 l6 -230 -42 -28 -41 -27 -2
37 c-6 171 -3 903 5 926 6 19 6 32 -1 39 -7 7 -14 -7 -22 -44z"/>
<path d="M1381 2885 c-1 -11 -3 -195 -4 -410 -3 -373 -12 -494 -37 -519 -4 -4
-6 -23 -3 -41 3 -18 1 -35 -4 -38 -6 -4 -13 53 -17 146 -4 84 -11 195 -16 247
-11 100 -47 296 -60 319 -11 20 -48 -144 -65 -289 -7 -69 -17 -196 -21 -283
-4 -87 -9 -155 -12 -152 -3 3 -7 112 -9 243 -3 260 -20 616 -32 702 -5 34 -9
-87 -10 -321 0 -207 -4 -379 -8 -383 -10 -10 -31 -129 -32 -178 -1 -30 5 -42
29 -60 17 -12 30 -28 30 -35 0 -19 -17 -16 -33 7 -8 12 -31 23 -50 27 -31 5
-40 1 -67 -25 -16 -17 -30 -40 -30 -51 0 -30 -16 -26 -30 8 -18 45 -47 66 -91
66 -47 0 -70 -21 -72 -66 -2 -33 -2 -33 39 -30 35 2 46 -3 73 -29 34 -34 39
-61 16 -80 -29 -24 -8 -127 41 -200 32 -46 31 -98 -1 -146 -14 -20 -25 -45
-25 -55 0 -10 -4 -20 -9 -23 -12 -8 -22 34 -12 51 8 14 -4 100 -20 141 -6 16
-17 22 -37 22 -77 0 -83 -93 -13 -209 24 -39 41 -75 39 -81 -4 -14 -103 115
-117 153 -18 47 -13 96 16 148 27 48 27 49 8 63 -11 9 -41 16 -67 16 -40 0
-50 -4 -64 -26 -16 -24 -16 -30 6 -105 34 -119 23 -193 -34 -212 -8 -3 -8 -13
1 -36 10 -27 9 -32 -6 -40 -34 -19 -335 -130 -339 -126 -2 2 29 25 69 51 110
69 282 185 298 199 11 11 11 21 -2 61 -9 27 -19 75 -23 106 -10 92 -27 59 -19
-38 l7 -84 -31 6 c-29 6 -39 -1 -134 -94 -56 -55 -137 -132 -179 -172 -43 -40
-78 -76 -78 -81 0 -9 439 138 454 152 6 5 11 19 13 31 2 12 5 24 8 26 7 8 88
-28 123 -54 26 -21 32 -32 32 -64 0 -30 -6 -43 -26 -59 -14 -11 -32 -39 -40
-61 -12 -35 -139 -465 -151 -515 l-6 -20 21 20 c11 11 99 114 196 229 124 148
175 214 170 225 -4 9 -9 31 -12 49 -4 31 -3 32 33 32 l38 0 -7 -67 c-15 -142
-15 -155 0 -68 22 133 22 135 44 135 10 0 21 -3 23 -7 4 -7 -85 -380 -97 -408
-3 -5 -3 17 -1 50 3 52 2 48 -10 -25 -27 -169 -21 -158 119 201 30 78 36 103
30 137 -7 47 -4 49 32 26 45 -30 48 -49 13 -89 l-32 -36 16 -82 c9 -45 37
-192 64 -326 l48 -244 12 54 c6 30 30 151 53 269 22 118 45 231 50 251 16 58
12 79 -21 120 l-31 39 32 30 c18 17 36 30 41 30 5 0 8 -26 7 -57 -2 -51 8 -82
82 -270 47 -117 86 -210 88 -208 2 2 -1 34 -7 72 -31 198 -63 454 -58 466 3 9
16 12 37 9 34 -5 34 -8 14 -78 -4 -16 10 -40 63 -102 213 -252 308 -359 311
-352 2 5 -26 107 -61 227 -36 120 -72 243 -81 274 -8 30 -25 64 -36 74 -11 10
-23 33 -26 52 -5 29 -2 39 21 63 31 32 107 66 124 55 6 -3 11 -16 11 -28 0
-20 20 -29 183 -86 240 -83 269 -92 262 -81 -8 12 -323 323 -338 332 -6 4 -25
5 -40 2 l-28 -6 7 85 c4 52 3 87 -3 90 -9 6 -23 -100 -23 -174 0 -28 1 -28 43
-23 l42 5 132 -130 c73 -72 128 -131 124 -131 -13 0 -323 189 -348 212 -43 40
-48 80 -22 178 21 84 21 90 5 114 -21 33 -81 36 -117 7 l-24 -20 29 -51 c36
-66 31 -118 -19 -187 -19 -27 -43 -60 -52 -75 -18 -28 -33 -36 -33 -18 0 6 18
43 40 82 51 90 61 147 31 177 -23 23 -63 28 -78 9 -13 -16 -25 -99 -23 -158 1
-51 -1 -50 -35 14 -37 69 -34 126 10 210 38 73 47 142 20 152 -26 10 -17 49
19 83 30 29 40 33 71 28 l36 -6 -3 37 c-2 31 -9 40 -37 54 -45 23 -88 6 -116
-45 -22 -40 -35 -47 -35 -18 0 24 -42 69 -73 76 -40 10 -61 2 -76 -30 -13 -27
-15 -28 -21 -10 -6 15 0 27 24 46 l31 27 -2 233 c-1 129 -5 295 -8 369 -7 142
-31 419 -34 385z m-93 -795 c0 -74 -3 -160 -8 -190 -6 -43 -7 -25 -9 85 0 77
-3 205 -6 285 l-4 145 14 -95 c7 -52 13 -156 13 -230z m11 -307 c-1 -61 -2
-64 -10 -33 -8 32 -4 100 6 100 3 0 5 -30 4 -67z m-252 -60 c1 -21 6 -81 11
-133 6 -52 9 -96 8 -97 -8 -9 -63 81 -73 120 -7 28 -19 57 -27 66 -24 29 10
81 54 81 23 0 26 -4 27 -37z m452 11 c26 -33 26 -50 1 -64 -13 -7 -20 -21 -20
-43 -1 -18 -6 -41 -13 -53 -18 -31 -57 -78 -61 -73 -2 2 1 45 6 94 5 50 10
107 11 128 1 33 4 37 28 37 18 0 35 -9 48 -26z m-329 -121 c11 -3 27 -17 36
-32 12 -17 13 -22 3 -15 -8 7 -27 12 -43 12 -15 0 -32 6 -37 13 -13 21 -11 83
4 98 10 10 13 4 15 -29 2 -31 8 -43 22 -47z m130 21 c0 -2 -7 -4 -15 -4 -11 0
-15 11 -15 38 l1 37 14 -34 c8 -18 15 -35 15 -37z m50 6 c0 -41 -18 -63 -47
-58 -10 1 -24 -1 -31 -6 -11 -7 -12 -4 -3 13 7 11 21 21 31 21 17 0 20 7 20
46 0 40 2 45 15 34 8 -7 15 -29 15 -50z m-406 -63 c18 -48 20 -67 7 -67 -10 0
-41 72 -41 95 0 29 18 14 34 -28z m438 11 c-9 -9 -12 -7 -12 12 0 19 3 21 12
12 9 -9 9 -15 0 -24z m178 17 c0 -9 -7 -32 -15 -52 -23 -53 -40 -30 -18 25 16
42 33 56 33 27z m-315 -95 c-7 -25 -14 -38 -14 -30 -1 8 -4 26 -8 39 -4 16 -2
22 4 18 6 -4 14 0 17 9 14 35 14 6 1 -36z m-125 -1 c0 -6 14 -38 30 -71 35
-70 33 -91 -2 -28 -13 24 -29 52 -35 64 -15 25 -17 60 -3 51 6 -3 10 -11 10
-16z m246 -5 c-9 -33 -67 -136 -74 -130 -5 6 67 156 75 156 3 0 2 -12 -1 -26z
m-343 -59 c-3 -8 -9 -15 -14 -15 -10 0 -12 24 -3 33 11 11 24 -3 17 -18z m447
-1 c0 -8 -4 -14 -9 -14 -11 0 -22 26 -14 34 9 9 23 -3 23 -20z m-72 -65 c-38
-25 -51 2 -15 31 21 18 22 18 25 -2 2 -11 -2 -25 -10 -29z m-303 21 c10 -11
16 -23 12 -26 -9 -9 -47 16 -47 31 0 21 14 19 35 -5z m436 -33 c-8 -8 -11 -4
-11 14 0 33 14 47 18 19 2 -12 -1 -27 -7 -33z m-584 11 c-3 -8 -6 -5 -6 6 -1
11 2 17 5 13 3 -3 4 -12 1 -19z m83 -113 c6 -27 14 -59 17 -70 4 -13 2 -17 -5
-10 -12 13 -42 103 -42 129 0 32 16 6 30 -49z m424 -27 c-9 -32 -21 -58 -25
-58 -4 0 1 30 12 67 10 38 20 72 20 78 1 5 4 1 6 -9 3 -11 -3 -46 -13 -78z
m-44 25 c0 -35 -12 -68 -35 -98 -13 -16 -19 -18 -35 -7 -11 6 -29 12 -41 12
-15 0 -20 5 -17 23 4 29 44 36 64 10 14 -17 15 -17 29 1 9 12 15 41 15 70 0
37 3 47 10 36 5 -8 10 -29 10 -47z m-310 -63 c10 -7 19 -5 26 5 15 20 50 19
58 -1 8 -20 -2 -37 -19 -30 -7 2 -21 -2 -32 -9 -10 -8 -21 -15 -25 -15 -12 0
-48 86 -48 116 0 53 15 48 20 -6 3 -29 12 -55 20 -60z m70 101 c0 -12 -39 -21
-45 -11 -3 5 1 11 7 13 21 9 38 8 38 -2z m171 -1 c5 0 9 -7 9 -15 0 -8 -4 -15
-10 -15 -5 0 -10 5 -10 10 0 6 -7 10 -15 10 -8 0 -15 5 -15 11 0 6 7 8 16 5 9
-3 20 -6 25 -6z m-422 -115 c-14 -14 -43 20 -35 40 5 15 8 14 25 -6 12 -15 16
-28 10 -34z m641 -5 c0 -11 -4 -20 -10 -20 -5 0 -10 9 -10 20 0 11 5 20 10 20
6 0 10 -9 10 -20z m-700 -65 c0 -8 -4 -17 -10 -20 -6 -4 -10 5 -10 20 0 15 4
24 10 20 6 -3 10 -12 10 -20z m766 -30 c4 -14 4 -29 0 -32 -11 -12 -37 23 -30
40 9 25 23 21 30 -8z m-737 -108 c-1 -34 1 -78 5 -98 7 -32 3 -41 -40 -95 -27
-32 -53 -64 -59 -70 -5 -7 -48 -60 -94 -118 -47 -58 -86 -104 -88 -102 -4 3
30 70 155 306 84 159 92 177 92 208 0 16 3 32 6 35 16 16 25 -10 23 -66z m742
28 c13 -22 37 -42 65 -54 24 -11 44 -22 44 -25 0 -4 29 -101 64 -216 35 -116
61 -210 57 -210 -11 0 -268 478 -277 515 -10 39 22 32 47 -10z m-381 -61 c0
-14 -14 -33 -21 -28 -15 9 -10 31 6 31 8 0 15 -1 15 -3z m180 -52 c0 -8 21
-100 46 -204 25 -104 43 -192 40 -195 -3 -4 -6 0 -6 8 0 8 -27 86 -60 174 -57
151 -69 210 -53 251 6 16 7 16 20 -2 7 -10 13 -24 13 -32z m-125 -291 c-21
-105 -40 -189 -42 -187 -2 2 4 83 13 181 9 98 14 187 11 199 -3 12 -9 32 -12
46 -7 23 -5 22 30 -12 l38 -36 -38 -191z"/>
<path d="M1547 2893 c-4 -6 -22 -100 -41 -209 -27 -155 -37 -248 -46 -420 -16
-353 -19 -326 41 -370 42 -31 54 -35 68 -25 9 6 31 21 49 32 l32 21 0 123 c0
68 -4 126 -8 129 -5 3 -6 -46 -4 -107 l4 -113 -41 -27 c-22 -15 -43 -27 -46
-27 -3 0 -5 215 -4 478 0 275 4 469 9 457 l9 -20 -1 20 c0 35 -13 71 -21 58z"/>
<path d="M1570 2806 c0 -2 9 -63 20 -135 16 -114 28 -226 44 -421 2 -25 2 16
0 92 -2 75 -8 169 -14 210 -17 119 -42 258 -46 258 -2 0 -4 -2 -4 -4z"/>
<path d="M942 2775 c0 -16 2 -22 5 -12 2 9 2 23 0 30 -3 6 -5 -1 -5 -18z"/>
<path d="M1073 2745 c0 -22 2 -30 4 -17 2 12 2 30 0 40 -3 9 -5 -1 -4 -23z"/>
<path d="M1363 2735 c0 -22 2 -30 4 -17 2 12 2 30 0 40 -3 9 -5 -1 -4 -23z"/>
<path d="M1353 2615 c0 -22 2 -30 4 -17 2 12 2 30 0 40 -3 9 -5 -1 -4 -23z"/>
<path d="M1063 2590 c0 -25 2 -35 4 -22 2 12 2 32 0 45 -2 12 -4 2 -4 -23z"/>
<path d="M1053 2380 c0 -47 2 -66 4 -42 2 23 2 61 0 85 -2 23 -4 4 -4 -43z"/>
<path d="M1343 2380 c0 -47 2 -66 4 -42 2 23 2 61 0 85 -2 23 -4 4 -4 -43z"/>
<path d="M1333 2045 c0 -38 2 -53 4 -32 2 20 2 52 0 70 -2 17 -4 1 -4 -38z"/>
<path d="M1041 2014 c0 -11 3 -14 6 -6 3 7 2 16 -1 19 -3 4 -6 -2 -5 -13z"/>
<path d="M962 670 c0 -19 2 -27 5 -17 2 9 2 25 0 35 -3 9 -5 1 -5 -18z"/>
</g>
</svg>
