<?xml version="1.0" standalone="no"?>
<!DOCTYPE svg PUBLIC "-//W3C//DTD SVG 20010904//EN"
 "http://www.w3.org/TR/2001/REC-SVG-20010904/DTD/svg10.dtd">
<svg version="1.0" xmlns="http://www.w3.org/2000/svg"
 width="244.000000pt" height="305.000000pt" viewBox="0 0 244.000000 305.000000"
 preserveAspectRatio="xMidYMid meet">
<metadata>
Created by potrace 1.16, written by Peter Selinger 2001-2019
</metadata>
<g transform="translate(0.000000,305.000000) scale(0.100000,-0.100000)"
fill="#000000" stroke="none">
<path d="M1070 2885 c0 -16 0 -218 0 -448 0 -230 -2 -440 -6 -467 -6 -45 -8
-48 -20 -33 -10 14 -14 70 -15 228 -1 121 -5 193 -9 170 -7 -38 -7 -37 -9 20
-3 106 -47 432 -57 422 -2 -1 8 -88 21 -193 16 -122 27 -266 31 -409 l6 -220
-37 -28 c-20 -16 -39 -26 -42 -23 -12 11 -12 928 -1 946 6 10 8 26 3 36 -9 23
-26 -34 -50 -171 -37 -214 -73 -795 -48 -795 5 0 29 -17 52 -37 43 -36 43 -36
60 -16 9 11 29 29 45 39 28 18 29 18 47 -5 26 -32 24 -43 -6 -35 -35 9 -73
-19 -94 -69 l-18 -42 -12 38 c-15 45 -44 67 -88 67 -41 0 -73 -30 -73 -68 0
-28 2 -29 46 -28 37 1 50 -4 65 -23 29 -35 34 -68 14 -87 -20 -20 -16 -63 15
-153 22 -68 36 -174 24 -193 -6 -8 -13 17 -21 72 l-12 85 4 -85 c3 -78 2 -83
-10 -55 -8 17 -14 43 -15 58 0 41 -17 67 -43 67 -31 0 -44 -11 -57 -44 -13
-36 -5 -77 28 -139 28 -52 22 -76 -9 -37 -59 73 -75 164 -39 222 11 18 20 41
20 50 0 45 -100 50 -133 7 -18 -26 -19 -29 -3 -75 37 -113 33 -207 -10 -226
-19 -9 -24 -17 -19 -32 14 -48 13 -49 -150 -113 -88 -35 -163 -62 -168 -60 -5
1 71 56 168 122 98 65 179 125 182 132 3 8 1 25 -6 39 -6 14 -14 56 -17 95
-10 107 -28 100 -21 -8 l6 -90 -34 1 c-31 1 -49 -13 -204 -168 -94 -94 -169
-172 -166 -174 2 -2 43 10 92 28 48 17 126 45 173 62 174 62 175 62 178 91 4
32 13 33 68 8 47 -22 60 -37 46 -54 -15 -18 -74 -138 -70 -142 1 -1 29 15 61
36 66 44 67 44 67 24 0 -8 -14 -18 -32 -23 l-33 -8 -58 -200 c-31 -109 -62
-217 -67 -239 -5 -22 -17 -62 -25 -90 l-15 -50 33 35 c18 19 86 100 151 180
160 195 185 224 190 219 2 -2 -9 -83 -24 -179 -32 -208 -42 -280 -33 -260 3 8
48 111 100 229 85 192 94 219 91 265 -3 46 -1 51 17 48 22 -4 75 -50 75 -65 0
-5 -14 -25 -30 -44 -20 -23 -29 -41 -25 -56 2 -12 30 -157 61 -322 31 -165 57
-301 59 -303 1 -1 14 62 29 140 16 79 38 197 51 263 13 66 26 140 30 165 3 25
9 53 11 62 3 9 -8 31 -26 51 -16 19 -30 38 -30 43 0 15 64 64 80 62 11 -2 14
-15 12 -49 -3 -38 10 -76 89 -255 50 -115 94 -211 97 -214 3 -3 2 11 -2 30 -7
35 -64 429 -69 472 -1 17 4 24 21 26 25 4 27 -5 11 -59 -14 -45 -18 -39 189
-285 74 -88 140 -168 148 -178 23 -34 26 -11 5 60 -11 38 -46 161 -78 274
l-59 205 -37 18 c-20 10 -37 25 -37 33 0 17 25 7 69 -27 40 -32 43 -22 11 41
-16 33 -30 67 -30 75 0 18 105 69 121 60 5 -4 9 -17 9 -30 0 -18 9 -26 43 -38
23 -9 125 -45 226 -81 102 -36 186 -65 187 -63 2 2 -77 83 -175 181 -171 170
-181 178 -210 171 l-31 -7 6 94 c5 63 3 90 -4 83 -5 -5 -13 -54 -17 -109 l-7
-98 42 7 42 7 141 -142 c155 -155 153 -156 -43 -31 -47 29 -98 61 -114 70
-103 58 -126 110 -96 219 25 89 25 114 2 135 -24 22 -95 22 -116 1 -21 -20
-20 -22 9 -69 31 -51 31 -97 1 -160 -56 -114 -100 -130 -48 -17 36 78 41 131
14 155 -41 37 -92 10 -92 -48 0 -41 -16 -85 -30 -85 -5 0 -11 19 -11 43 l-2
42 -6 -35 c-4 -24 -9 -31 -14 -22 -9 14 -1 85 13 117 21 46 50 146 50 173 0
16 -7 35 -15 42 -23 19 -18 42 14 78 24 26 38 32 70 32 22 0 42 4 45 9 12 19
-16 69 -44 81 -44 18 -81 1 -109 -50 l-24 -43 -19 41 c-21 44 -62 68 -97 57
-26 -8 -27 6 -3 35 14 17 22 20 42 12 14 -5 34 -19 44 -31 25 -28 32 -27 73 9
18 17 38 30 44 30 26 0 -1 571 -35 745 -19 94 -19 53 -2 -76 20 -138 36 -384
36 -522 l-1 -112 -36 -27 c-19 -15 -39 -25 -43 -23 -10 6 -10 925 -1 945 5 8
5 26 2 39 -5 20 -8 17 -19 -25 -24 -99 -51 -276 -62 -406 -7 -73 -15 -164 -20
-203 -7 -70 -7 -69 -9 40 -1 61 -6 173 -12 250 -23 318 -26 310 -29 -70 -1
-203 -2 -374 -1 -379 1 -5 -4 -4 -11 2 -11 9 -17 2 -28 -36 -7 -25 -16 -73
-20 -107 l-6 -60 -7 65 c-4 36 -14 142 -23 235 -14 159 -43 333 -63 387 -8 21
-8 22 -14 3 -15 -51 -48 -247 -57 -338 -25 -268 -33 -347 -38 -343 -2 3 -8
143 -13 313 -9 336 -43 809 -49 668z m215 -795 c2 -151 1 -200 -5 -150 -11
106 -19 465 -8 415 5 -22 10 -141 13 -265z m-191 -241 c-3 -5 -10 -7 -15 -3
-5 3 -7 10 -3 15 3 5 10 7 15 3 5 -3 7 -10 3 -15z m296 1 c0 -5 -4 -10 -10
-10 -5 0 -10 5 -10 10 0 6 5 10 10 10 6 0 10 -4 10 -10z m-93 -87 c-2 -16 -4
-5 -4 22 0 28 2 40 4 28 2 -13 2 -35 0 -50z m-259 -35 c5 -18 7 -70 4 -116
l-5 -83 -18 30 c-10 16 -21 45 -24 65 -4 19 -13 40 -21 47 -19 16 -18 32 7 63
27 35 46 33 57 -6z m82 11 c-7 -11 -14 -18 -17 -15 -8 8 5 36 17 36 7 0 7 -6
0 -21z m245 -7 c-8 -8 -25 10 -19 20 4 6 9 5 15 -3 4 -7 6 -15 4 -17z m125 8
c24 -24 26 -53 5 -70 -8 -7 -15 -22 -15 -33 0 -23 -38 -107 -49 -107 -9 0 -6
203 3 218 11 18 34 14 56 -8z m-191 -97 c1 -7 -3 -13 -9 -13 -5 0 -10 15 -9
33 0 27 2 29 9 12 5 -11 9 -26 9 -32z m61 -20 c0 -31 -3 -33 -40 -39 -45 -7
-49 -11 -70 -72 l-16 -44 -17 56 c-10 31 -23 56 -30 57 -7 0 -25 2 -42 2 -28
2 -30 5 -30 42 0 29 4 40 15 40 8 0 16 -10 18 -23 2 -14 14 -27 28 -32 14 -6
31 -25 40 -45 8 -19 17 -35 20 -35 3 0 12 16 20 35 8 20 25 40 38 45 16 6 26
20 30 45 7 34 8 36 21 19 8 -11 15 -34 15 -51z m-411 -39 c15 -41 6 -58 -15
-30 -15 21 -19 66 -6 66 4 0 14 -16 21 -36z m128 -1 c-3 -10 -5 -4 -5 12 0 17
2 24 5 18 2 -7 2 -21 0 -30z m320 5 c-3 -7 -5 -2 -5 12 0 14 2 19 5 13 2 -7 2
-19 0 -25z m149 -24 c-4 -13 -13 -24 -21 -24 -19 0 -19 2 2 48 12 28 17 33 20
19 3 -10 2 -29 -1 -43z m-446 -38 c0 -2 7 -21 16 -42 16 -39 16 -39 -4 -19
-24 24 -38 65 -23 65 6 0 11 -2 11 -4z m275 -36 c-13 -26 -35 -48 -35 -37 0
19 33 77 40 72 6 -4 4 -17 -5 -35z m-331 -40 c55 -59 63 -85 16 -60 -10 5 -20
20 -24 34 -3 14 -16 26 -31 30 -16 4 -25 13 -25 26 0 31 13 24 64 -30z m436
25 c0 -18 -5 -25 -20 -25 -13 0 -22 -9 -26 -25 -8 -33 -54 -61 -54 -33 0 10
88 108 97 108 2 0 3 -11 3 -25z m-300 -101 c0 -8 -4 -14 -10 -14 -5 0 -10 9
-10 21 0 11 5 17 10 14 6 -3 10 -13 10 -21z m127 -6 c-16 -10 -21 -2 -13 19 6
15 9 15 16 3 6 -9 5 -17 -3 -22z m-234 -165 c5 -7 15 -13 23 -13 16 0 18 8 14
68 -2 42 -1 42 32 41 30 0 31 -1 10 -10 -33 -13 -27 -61 8 -69 18 -4 25 -12
25 -30 0 -24 -3 -25 -54 -23 -32 2 -61 9 -69 17 -17 17 -28 107 -16 133 5 13
10 0 13 -42 4 -33 10 -66 14 -72z m346 21 c-12 -47 -47 -71 -78 -55 -12 7 -22
6 -29 -1 -9 -9 -15 -9 -23 -1 -16 16 -7 47 16 51 11 2 24 8 29 12 13 13 -2 58
-22 63 -9 3 -2 5 17 6 l34 1 -7 -49 c-8 -59 8 -76 37 -40 14 18 18 34 14 66
-6 52 5 67 15 21 5 -18 3 -51 -3 -74z m-519 4 c0 -17 -3 -18 -15 -8 -8 7 -15
21 -15 32 0 17 3 18 15 8 8 -7 15 -21 15 -32z m556 -44 c-4 -9 -9 -15 -11 -12
-3 3 -3 13 1 22 4 9 9 15 11 12 3 -3 3 -13 -1 -22z m-606 -26 c0 -14 -18 -9
-24 8 -11 28 -6 39 9 20 8 -11 15 -23 15 -28z m167 20 c-3 -8 -6 -5 -6 6 -1
11 2 17 5 13 3 -3 4 -12 1 -19z m613 -52 c0 -27 -15 -42 -25 -26 -8 13 3 50
16 50 5 0 9 -11 9 -24z m-859 -64 c-10 -19 -66 -72 -60 -57 13 32 52 84 60 79
5 -3 5 -12 0 -22z m123 -15 c3 -18 6 -57 5 -87 -1 -30 4 -67 9 -81 9 -23 7
-32 -22 -65 -17 -22 -80 -101 -140 -176 -59 -76 -109 -138 -112 -138 -6 0 11
37 129 269 86 169 108 220 106 250 -3 49 -1 61 10 61 5 0 12 -15 15 -33z m713
21 c4 -7 13 -31 18 -53 9 -34 18 -44 58 -64 45 -22 48 -26 68 -95 11 -39 41
-138 65 -220 25 -82 43 -150 41 -153 -3 -2 -13 13 -24 34 -51 100 -151 287
-196 367 -38 68 -52 103 -55 143 -4 52 6 69 25 41z m112 -35 c12 -14 19 -28
16 -31 -6 -6 -55 38 -55 50 0 16 19 7 39 -19z m-473 -78 c17 23 19 2 3 -27
-11 -21 -12 -21 -25 -3 -8 10 -14 26 -14 34 1 13 3 12 12 -3 11 -19 11 -19 24
-1z m-287 -37 c0 -13 -4 -32 -8 -42 -7 -18 -8 -18 -14 5 -11 39 -8 59 8 59 9
0 15 -9 14 -22z m66 -20 c-4 -24 -15 -68 -26 -98 -10 -30 -32 -110 -50 -178
-18 -67 -34 -120 -36 -118 -5 4 53 384 63 419 3 10 15 17 31 17 24 0 24 -2 18
-42z m438 -63 c42 -147 77 -279 77 -290 -1 -17 -19 21 -75 157 -40 95 -55 145
-55 178 0 47 8 67 21 53 4 -5 18 -48 32 -98z m-145 -148 c-10 -56 -24 -129
-29 -162 -10 -60 -19 -83 -19 -51 0 10 7 88 16 172 15 142 15 157 0 179 -27
41 -17 42 18 2 l33 -37 -19 -103z"/>
<path d="M1392 2880 c0 -14 2 -19 5 -12 2 6 2 18 0 25 -3 6 -5 1 -5 -13z"/>
<path d="M941 2804 c0 -11 3 -14 6 -6 3 7 2 16 -1 19 -3 4 -6 -2 -5 -13z"/>
<path d="M1382 2785 c0 -16 2 -22 5 -12 2 9 2 23 0 30 -3 6 -5 -1 -5 -18z"/>
<path d="M1052 2755 c0 -16 2 -22 5 -12 2 9 2 23 0 30 -3 6 -5 -1 -5 -18z"/>
<path d="M1572 2760 c0 -14 2 -19 5 -12 2 6 2 18 0 25 -3 6 -5 1 -5 -13z"/>
<path d="M1373 2680 c0 -25 2 -35 4 -22 2 12 2 32 0 45 -2 12 -4 2 -4 -23z"/>
<path d="M1043 2640 c0 -30 2 -43 4 -27 2 15 2 39 0 55 -2 15 -4 2 -4 -28z"/>
<path d="M1363 2560 c0 -36 2 -50 4 -32 2 17 2 47 0 65 -2 17 -4 3 -4 -33z"/>
<path d="M1033 2485 c0 -38 2 -53 4 -32 2 20 2 52 0 70 -2 17 -4 1 -4 -38z"/>
<path d="M1353 2340 c0 -47 2 -66 4 -42 2 23 2 61 0 85 -2 23 -4 4 -4 -43z"/>
</g>
</svg>
