<?xml version="1.0" standalone="no"?>
<!DOCTYPE svg PUBLIC "-//W3C//DTD SVG 20010904//EN"
 "http://www.w3.org/TR/2001/REC-SVG-20010904/DTD/svg10.dtd">
<svg version="1.0" xmlns="http://www.w3.org/2000/svg"
 width="244.000000pt" height="305.000000pt" viewBox="0 0 244.000000 305.000000"
 preserveAspectRatio="xMidYMid meet">
<metadata>
Created by potrace 1.16, written by Peter Selinger 2001-2019
</metadata>
<g transform="translate(0.000000,305.000000) scale(0.100000,-0.100000)"
fill="#000000" stroke="none">
<path d="M1050 2885 c-1 -16 -1 -34 0 -40 6 -34 7 -926 0 -930 -16 -10 -20 32
-27 333 -4 169 -10 296 -13 282 -4 -18 -8 -5 -13 42 -8 84 -39 260 -45 254 -2
-3 6 -69 19 -148 19 -126 25 -209 39 -603 0 -11 -2 -38 -5 -60 -5 -29 -4 -36
4 -25 9 13 11 12 11 -3 0 -17 -66 -87 -82 -87 -5 0 -8 217 -8 483 0 315 4 477
10 467 8 -12 10 -12 10 5 0 11 -4 26 -9 34 -6 9 -14 -11 -24 -60 -42 -201 -54
-313 -68 -634 -12 -256 -11 -270 6 -280 10 -5 33 -23 51 -38 l33 -28 18 21
c28 33 52 43 69 29 22 -18 17 -29 -15 -29 -35 0 -58 -27 -67 -79 l-7 -34 -19
39 c-23 49 -43 64 -83 64 -38 0 -65 -26 -68 -66 -2 -28 0 -29 36 -26 31 3 42
-1 67 -28 32 -34 39 -70 16 -89 -14 -12 -16 -205 -2 -291 6 -33 5 -41 -3 -30
-6 8 -11 27 -11 41 0 15 -3 40 -6 56 -5 26 -9 29 -34 25 -16 -2 -36 -12 -46
-23 -17 -18 -16 -53 2 -146 9 -45 -9 -42 -31 4 -31 65 -31 114 1 168 l28 48
-23 18 c-23 19 -77 25 -96 11 -36 -26 -37 -39 -15 -136 26 -110 22 -155 -16
-185 -23 -18 -25 -24 -16 -51 6 -16 8 -31 4 -34 -10 -5 -208 -85 -266 -107
-27 -10 -51 -17 -53 -15 -2 2 73 56 166 121 186 127 181 121 161 207 -5 24
-14 68 -19 98 -9 52 -9 50 -8 -40 l1 -95 -30 3 c-28 3 -47 -13 -198 -169 -92
-94 -165 -173 -164 -175 5 -4 132 40 303 105 119 45 130 51 133 76 3 22 7 26
25 21 12 -3 25 -6 30 -6 20 0 -14 -76 -77 -173 -25 -38 -13 -45 26 -15 39 28
149 91 153 86 1 -2 6 -13 9 -26 6 -19 2 -25 -28 -37 -40 -17 -37 -9 -132 -350
-50 -183 -64 -235 -59 -235 2 0 72 85 156 190 84 104 154 188 155 187 2 -1
-12 -90 -30 -197 -33 -189 -37 -229 -17 -179 5 13 46 101 91 194 123 253 120
247 108 289 -15 49 -3 61 46 44 21 -7 45 -25 54 -40 16 -26 15 -28 -11 -56
-15 -15 -27 -38 -27 -50 0 -11 25 -156 55 -322 30 -166 55 -306 55 -312 0 -35
13 25 58 267 71 378 70 367 38 409 -14 19 -26 39 -26 43 0 17 55 61 83 68 l27
7 -1 -58 c-2 -56 3 -70 99 -264 56 -113 101 -199 102 -192 0 7 -12 83 -26 168
-14 85 -24 161 -22 169 2 9 21 -8 49 -43 26 -31 79 -97 119 -147 40 -49 91
-110 112 -135 l40 -45 -7 35 c-4 19 -34 130 -67 245 -32 116 -63 227 -69 248
-7 29 -18 40 -44 52 -27 11 -35 20 -35 39 0 36 22 33 100 -14 36 -21 67 -37
69 -35 2 2 -15 36 -38 75 -22 40 -41 77 -41 84 0 10 52 36 73 36 4 0 7 -11 7
-24 0 -29 12 -39 70 -59 25 -8 119 -43 210 -76 90 -33 166 -59 167 -57 2 2
-74 83 -169 180 -163 168 -174 177 -203 172 l-31 -6 3 97 c3 117 -12 84 -21
-45 l-5 -83 42 6 42 7 133 -136 c72 -74 132 -137 132 -140 0 -6 -104 57 -258
157 -133 86 -152 128 -112 255 30 95 13 132 -60 132 -40 0 -70 -16 -70 -37 0
-8 10 -31 21 -50 27 -44 27 -107 -2 -167 -12 -25 -24 -46 -28 -46 -17 0 -19
14 -7 44 44 105 22 166 -60 170 -20 1 -23 -5 -29 -69 -3 -38 -6 -90 -6 -115 0
-37 -2 -42 -11 -26 -7 13 -8 45 -3 95 4 42 9 99 10 127 2 28 6 80 10 116 6 52
4 66 -9 77 -22 18 -20 41 8 75 18 21 35 29 70 33 41 5 46 8 46 30 0 31 -42 73
-73 73 -29 0 -73 -39 -88 -77 l-10 -28 -21 47 c-17 40 -26 49 -54 54 -39 7
-43 18 -13 35 18 9 26 6 53 -20 l32 -31 25 26 c13 14 34 30 47 35 21 8 22 13
22 131 0 160 -12 382 -19 370 -3 -6 -3 -54 0 -109 4 -54 7 -154 8 -223 l1
-125 -36 -29 c-22 -17 -39 -25 -43 -18 -3 5 -4 230 -1 499 3 268 3 492 0 498
-7 16 -37 -127 -55 -265 -23 -171 -30 -183 -38 -65 -9 133 -29 307 -34 301 -2
-2 -4 -215 -5 -472 0 -318 -3 -446 -9 -399 -5 39 -14 81 -21 95 -11 23 -13 20
-21 -40 -12 -92 -25 -119 -26 -55 -1 28 -6 66 -12 85 -15 49 -16 63 -24 175
-8 124 -49 344 -62 331 -15 -15 -53 -247 -59 -359 -5 -87 -11 -131 -21 -138
-7 -7 -13 -31 -13 -60 0 -26 -4 -50 -9 -53 -10 -7 -18 91 -26 344 -10 264 -48
651 -55 555z m238 -741 c5 -82 6 -180 2 -219 -6 -65 -7 -62 -8 46 -1 64 -5
165 -8 225 -4 60 -4 106 -1 103 4 -3 10 -73 15 -155z m-203 -273 c3 -5 1 -12
-5 -16 -5 -3 -10 1 -10 9 0 18 6 21 15 7z m315 -11 c0 -5 -4 -10 -10 -10 -5 0
-10 5 -10 10 0 6 5 10 10 10 6 0 10 -4 10 -10z m-280 -121 c-11 -20 -22 -24
-33 -12 -9 9 23 44 34 37 5 -3 4 -14 -1 -25z m260 -5 c0 -8 -4 -14 -10 -14
-12 0 -31 35 -23 44 9 8 33 -14 33 -30z m-356 -15 c11 -26 10 -38 -3 -77 -16
-46 -16 -46 -19 -15 -2 17 -10 37 -18 43 -19 16 -18 39 3 62 21 24 22 23 37
-13z m470 -1 c8 -21 6 -32 -7 -46 -9 -10 -17 -29 -17 -43 0 -13 -5 -31 -10
-39 -7 -11 -10 -7 -10 18 0 18 -5 42 -11 53 -14 28 7 91 29 87 9 -2 21 -15 26
-30z m-194 -60 c0 -10 -4 -18 -10 -18 -5 0 -10 15 -10 33 0 24 3 28 10 17 5
-8 10 -23 10 -32z m-140 -33 c0 -7 9 -15 20 -18 11 -3 27 -21 35 -41 9 -20 17
-36 20 -36 3 0 11 16 19 35 9 20 26 39 41 45 14 5 25 15 25 22 0 7 4 19 9 27
15 24 41 -6 41 -46 0 -34 -1 -35 -33 -29 -43 8 -63 -7 -86 -69 l-19 -50 -11
40 c-18 67 -35 84 -80 79 -35 -3 -40 -1 -45 22 -5 18 -2 32 10 45 16 18 18 18
36 3 10 -10 18 -23 18 -29z m-201 -44 c6 -22 28 -59 49 -84 81 -99 89 -146 11
-64 -42 44 -89 131 -89 166 0 34 16 24 29 -18z m111 -9 c0 -13 7 -37 16 -53 8
-17 14 -35 12 -41 -6 -18 -40 62 -45 106 -3 31 -2 37 6 26 6 -8 11 -25 11 -38z
m345 6 c-8 -48 -46 -129 -52 -112 -2 7 5 27 16 45 12 19 21 48 21 65 0 28 6
44 18 44 2 0 1 -19 -3 -42z m103 -46 c-28 -58 -96 -142 -115 -142 -18 0 -2 30
48 90 21 25 48 68 61 95 18 41 23 46 26 27 2 -12 -7 -43 -20 -70z m-348 -63
c0 -5 -4 -9 -8 -9 -9 0 -32 44 -32 58 1 10 40 -38 40 -49z m163 31 c-6 -24
-33 -49 -33 -31 0 18 19 51 29 51 5 0 7 -9 4 -20z m-383 -115 c0 -25 -4 -45
-10 -45 -5 0 -10 20 -10 45 0 25 5 45 10 45 6 0 10 -20 10 -45z m579 -7 c-1
-37 -2 -39 -9 -18 -12 36 -12 60 0 60 6 0 10 -19 9 -42z m-349 -3 c0 -8 -4
-15 -9 -15 -13 0 -22 16 -14 24 11 11 23 6 23 -9z m138 3 c-6 -18 -28 -21 -28
-4 0 9 7 16 16 16 9 0 14 -5 12 -12z m-276 -100 c-3 -44 -1 -56 16 -71 30 -28
44 -12 40 44 -2 27 0 49 5 49 54 2 59 0 43 -16 -27 -26 -17 -59 19 -65 25 -5
31 -41 10 -59 -10 -8 -15 -9 -15 -1 0 6 -19 11 -47 11 -27 0 -53 4 -60 8 -26
17 -43 105 -27 146 12 31 21 6 16 -46z m402 21 c8 -41 -12 -117 -33 -123 -9
-3 -41 -6 -71 -8 -53 -3 -55 -2 -55 22 0 18 6 26 22 28 27 4 39 37 22 58 -14
17 -12 19 19 28 21 7 22 5 22 -53 0 -66 8 -73 41 -40 18 18 21 29 16 70 -7 54
7 68 17 18z m-604 -107 c0 -13 -3 -12 -20 3 -11 10 -20 28 -20 39 1 20 1 20
20 -3 11 -13 20 -30 20 -39z m157 -24 c-3 -8 -6 -5 -6 6 -1 11 2 17 5 13 3 -3
4 -12 1 -19z m483 8 c0 -3 -4 -8 -10 -11 -5 -3 -10 -1 -10 4 0 6 5 11 10 11 6
0 10 -2 10 -4z m155 -18 c-9 -27 -22 -44 -30 -36 -8 7 16 58 27 58 5 0 6 -10
3 -22z m-878 -44 c4 -10 -9 -31 -38 -60 -23 -24 -45 -42 -47 -39 -7 6 60 115
70 115 5 0 11 -7 15 -16z m143 -45 c6 -22 10 -64 9 -92 -2 -29 1 -70 5 -92 6
-38 4 -44 -46 -107 -29 -37 -87 -112 -128 -167 -41 -55 -78 -100 -83 -100 -4
-1 10 34 32 77 21 42 73 149 116 236 l77 159 -7 63 c-8 74 8 88 25 23z m708
-5 c1 -16 7 -46 12 -66 9 -31 17 -39 52 -50 l42 -14 63 -215 c34 -118 61 -218
59 -224 -2 -5 -27 37 -56 95 -29 58 -66 129 -82 159 -119 214 -143 280 -122
336 10 24 29 12 32 -21z m170 -49 c-9 -9 -88 45 -88 60 0 28 16 23 54 -14 22
-22 37 -43 34 -46z m-513 -42 c-3 -14 -12 -35 -20 -46 -13 -18 -14 -18 -29 11
-21 40 -20 66 1 28 15 -28 16 -29 29 -11 8 10 14 25 14 32 0 7 3 13 6 13 3 0
3 -12 -1 -27z m-260 -75 c-8 -24 -39 -124 -69 -222 -31 -99 -59 -182 -63 -185
-3 -3 -4 1 -1 9 3 9 15 76 27 150 12 74 29 150 38 168 9 18 17 51 17 74 1 36
5 43 26 48 37 10 39 5 25 -42z m465 0 c13 -47 70 -242 94 -323 28 -91 16 -72
-64 103 -72 158 -79 177 -73 217 7 58 29 59 43 3z m-141 -127 c0 -14 -11 -78
-24 -141 l-24 -115 7 80 c4 44 7 115 7 157 0 72 1 76 18 61 9 -9 17 -28 16
-42z"/>
<path d="M1033 2740 c0 -25 2 -35 4 -22 2 12 2 32 0 45 -2 12 -4 2 -4 -23z"/>
<path d="M1393 2740 c0 -25 2 -35 4 -22 2 12 2 32 0 45 -2 12 -4 2 -4 -23z"/>
<path d="M1563 2750 c4 -19 11 -73 17 -120 6 -47 14 -112 19 -145 8 -58 9 -59
10 -15 1 50 -36 300 -45 309 -4 3 -4 -10 -1 -29z"/>
<path d="M1023 2635 c0 -33 2 -45 4 -27 2 18 2 45 0 60 -2 15 -4 0 -4 -33z"/>
<path d="M1383 2635 c0 -27 2 -38 4 -22 2 15 2 37 0 50 -2 12 -4 0 -4 -28z"/>
<path d="M1373 2495 c0 -38 2 -53 4 -32 2 20 2 52 0 70 -2 17 -4 1 -4 -38z"/>
<path d="M1364 2260 c0 -69 1 -97 3 -62 2 34 2 90 0 125 -2 34 -3 6 -3 -63z"/>
</g>
</svg>
