<?xml version="1.0" standalone="no"?>
<!DOCTYPE svg PUBLIC "-//W3C//DTD SVG 20010904//EN"
 "http://www.w3.org/TR/2001/REC-SVG-20010904/DTD/svg10.dtd">
<svg version="1.0" xmlns="http://www.w3.org/2000/svg"
 width="244.000000pt" height="305.000000pt" viewBox="0 0 244.000000 305.000000"
 preserveAspectRatio="xMidYMid meet">
<metadata>
Created by potrace 1.16, written by Peter Selinger 2001-2019
</metadata>
<g transform="translate(0.000000,305.000000) scale(0.100000,-0.100000)"
fill="#000000" stroke="none">
<path d="M1091 2529 c-1 -380 -11 -556 -33 -570 -17 -11 2 -67 29 -88 18 -15
23 -26 18 -42 -7 -20 -8 -20 -26 10 -33 55 -105 29 -130 -46 l-12 -36 -19 39
c-23 49 -43 64 -83 64 -39 0 -78 -38 -73 -72 2 -19 8 -23 35 -20 42 4 65 -9
88 -52 18 -34 18 -36 1 -55 -24 -27 -16 -95 19 -167 34 -69 34 -149 1 -198
l-23 -35 -7 75 c-7 88 -18 114 -50 114 -67 0 -74 -84 -17 -194 22 -42 36 -78
31 -81 -10 -6 -84 101 -98 144 -18 52 -14 87 13 139 l25 47 -21 18 c-12 9 -38
17 -60 17 -30 0 -42 -5 -55 -26 -16 -24 -16 -30 6 -115 22 -85 22 -91 6 -132
-12 -32 -29 -51 -68 -77 -46 -30 -264 -170 -291 -187 -30 -18 28 48 131 150
116 115 120 119 158 115 l39 -3 -4 70 c-1 39 -7 88 -11 110 -7 31 -8 19 -8
-55 l1 -95 -30 3 c-27 3 -47 -14 -197 -169 -91 -95 -165 -173 -163 -175 1 -2
96 30 211 71 114 41 210 75 212 75 2 0 4 11 4 24 0 34 11 38 57 22 47 -17 93
-56 93 -81 0 -9 -11 -38 -24 -64 -14 -25 -34 -82 -46 -126 -12 -44 -41 -150
-65 -235 -23 -85 -45 -167 -49 -182 -3 -14 -9 -34 -12 -45 -4 -12 4 -8 21 12
41 46 213 258 278 342 61 79 61 80 41 151 -6 20 -3 22 30 22 30 0 36 -3 37
-22 l0 -23 9 23 c13 31 54 31 48 -1 -17 -79 -101 -423 -105 -427 -3 -3 -3 9 1
25 13 64 47 356 43 368 -2 6 -9 -33 -16 -88 -7 -55 -22 -167 -33 -248 -11 -82
-18 -150 -16 -152 2 -2 41 97 87 220 75 202 83 228 77 269 -9 55 4 60 46 19
35 -33 35 -40 0 -81 l-29 -33 18 -97 c10 -53 23 -126 29 -162 16 -86 59 -316
68 -359 6 -28 18 23 60 250 72 393 70 372 38 400 -14 12 -26 30 -26 39 0 16
49 70 63 70 4 0 7 -21 7 -46 0 -52 28 -137 136 -409 29 -75 29 -72 -1 160 -14
105 -28 216 -32 247 l-6 58 31 0 c40 0 46 -11 31 -59 -11 -36 -10 -42 17 -77
31 -42 92 -117 291 -362 24 -29 43 -47 43 -40 0 7 -13 60 -30 118 -80 280
-110 392 -110 405 0 7 -11 27 -25 43 -14 17 -30 45 -36 62 -10 28 -9 34 17 62
50 52 134 77 134 39 0 -10 6 -23 13 -28 14 -12 430 -164 434 -159 2 2 -76 83
-173 180 -163 163 -179 176 -205 171 l-29 -6 7 97 c5 73 3 95 -5 90 -7 -4 -12
-28 -12 -54 0 -27 -7 -74 -15 -106 -8 -32 -13 -62 -10 -66 6 -10 211 -155 265
-188 40 -23 99 -72 88 -72 -7 0 -331 129 -335 134 -2 2 1 16 7 31 10 25 8 31
-16 50 -35 28 -44 107 -20 188 30 104 16 147 -50 147 -43 0 -74 -15 -74 -36 0
-8 9 -32 20 -54 11 -22 20 -58 20 -80 0 -40 -29 -110 -56 -137 -7 -8 -21 -27
-31 -43 -16 -28 -33 -39 -33 -23 0 3 15 35 34 69 40 72 60 136 51 164 -15 49
-75 68 -95 31 -5 -11 -12 -56 -15 -102 -2 -45 -6 -84 -9 -86 -2 -2 -11 14 -19
36 -9 21 -21 42 -27 46 -21 13 -11 100 20 163 38 75 50 152 26 171 -24 20 -20
42 15 79 24 26 38 32 70 32 35 0 39 2 39 25 0 32 -41 75 -72 75 -34 0 -68 -27
-85 -69 l-15 -35 -22 44 c-17 38 -27 47 -60 55 -35 8 -40 7 -62 -18 -28 -32
-34 -34 -34 -7 0 11 5 19 11 17 5 -1 20 14 32 34 l21 36 -13 374 c-12 346 -24
542 -30 494 -3 -18 -4 -17 -12 5 -8 22 -8 21 -3 -5 4 -16 8 -169 10 -340 3
-254 1 -319 -11 -362 -8 -28 -16 -66 -17 -85 -1 -18 -5 37 -8 122 l-6 155 -2
-202 c-1 -140 -6 -204 -14 -209 -7 -4 -8 -3 -4 4 12 19 -24 470 -45 572 -11
52 -23 108 -26 124 -6 29 -7 29 -15 7 -26 -71 -51 -248 -64 -459 -8 -128 -12
-238 -9 -243 4 -5 2 -9 -3 -9 -5 0 -12 134 -16 303 -6 294 -19 547 -36 684 -4
43 -8 -78 -9 -328z m139 -496 c-1 -299 -4 -423 -11 -410 -6 9 -14 15 -20 12
-22 -14 -27 8 -12 51 12 35 14 67 9 133 -17 230 -18 327 -5 449 12 108 15 120
20 82 5 -38 6 -33 7 33 1 42 4 77 7 77 3 0 5 -192 5 -427z m-49 -249 c0 -31
-3 -59 -6 -62 -3 -3 -5 25 -5 63 0 38 3 66 6 62 3 -3 6 -31 5 -63z m-126 -44
c-3 -4 0 -56 6 -115 6 -59 8 -109 6 -112 -9 -9 -56 71 -63 107 -4 19 -14 43
-22 53 -21 23 -6 67 28 84 24 12 56 0 45 -17z m434 -11 c14 -25 12 -35 -8 -69
-5 -8 -14 -34 -20 -56 -6 -23 -23 -55 -39 -73 l-27 -31 3 82 c2 46 8 95 13
110 6 14 8 36 4 48 -6 19 -4 21 26 18 24 -2 38 -11 48 -29z m-335 -73 c3 -21
6 -39 8 -40 54 -25 60 -45 11 -37 -31 5 -39 11 -47 39 -6 23 -5 40 4 57 16 30
18 29 24 -19z m184 -29 c-3 -40 -5 -42 -38 -47 -32 -5 -35 -9 -51 -60 -9 -30
-18 -48 -18 -40 -1 8 -4 26 -8 39 -4 15 -2 22 4 18 6 -4 18 11 28 32 9 22 25
41 35 44 12 3 20 19 25 47 6 34 9 40 17 27 5 -10 8 -36 6 -60z m-383 -44 c10
-24 12 -40 5 -47 -14 -14 -21 -3 -27 43 -7 51 2 52 22 4z m142 5 c-3 -7 -5 -2
-5 12 0 14 2 19 5 13 2 -7 2 -19 0 -25z m280 0 c-3 -7 -5 -2 -5 12 0 14 2 19
5 13 2 -7 2 -19 0 -25z m163 13 c0 -27 -21 -81 -31 -81 -12 0 -11 13 3 60 13
42 28 53 28 21z m-405 -124 c10 -24 12 -36 4 -32 -10 7 -39 66 -39 82 0 15 19
-13 35 -50z m222 11 c-7 -23 -18 -43 -24 -45 -9 -3 -8 9 3 41 20 58 37 61 21
4z m-324 -22 c3 -8 -1 -20 -9 -26 -12 -10 -14 -8 -14 14 0 28 14 35 23 12z
m423 -33 c-12 -12 -29 15 -21 34 7 17 8 16 18 -5 5 -12 7 -25 3 -29z m-346
-54 c0 -12 -7 -11 -31 1 -12 7 -19 21 -19 38 l1 27 24 -28 c14 -15 25 -32 25
-38z m-158 -22 c-9 -18 -11 -14 -11 28 1 46 1 48 11 22 7 -20 7 -35 0 -50z
m360 48 c-4 -26 -22 -45 -22 -25 0 12 18 50 24 50 2 0 1 -11 -2 -25z m98 11
c0 -16 -26 -46 -41 -46 -14 0 -11 22 8 42 19 22 33 23 33 4z m107 -43 c-3 -10
-5 -2 -5 17 0 19 2 27 5 18 2 -10 2 -26 0 -35z m-337 11 c0 -8 -4 -14 -10 -14
-5 0 -10 9 -10 21 0 11 5 17 10 14 6 -3 10 -13 10 -21z m265 -145 c-24 -72
-28 -54 -8 32 13 53 19 66 21 46 2 -15 -4 -50 -13 -78z m-401 -58 c-4 -4 -7 4
-28 78 -9 29 -13 58 -9 64 3 6 14 -23 24 -64 9 -41 16 -76 13 -78z m53 18 c15
-15 33 -3 33 21 0 17 2 17 31 3 22 -11 29 -21 27 -37 -2 -14 -9 -20 -21 -18
-11 2 -28 -4 -38 -14 -13 -12 -19 -13 -19 -4 0 7 -7 18 -15 24 -18 14 -32 80
-26 121 4 23 6 16 11 -27 3 -31 10 -62 17 -69z m303 77 c0 -47 -10 -79 -34
-110 -13 -16 -18 -17 -32 -5 -9 8 -25 13 -36 11 -13 -2 -18 3 -18 18 0 27 25
36 56 20 34 -19 49 -1 49 61 0 27 3 49 8 49 4 0 7 -20 7 -44z m-230 24 c0 -5
-7 -10 -15 -10 -8 0 -15 -5 -15 -11 0 -5 -5 -7 -12 -3 -7 5 -5 11 7 21 22 16
35 17 35 3z m150 0 c0 -5 -7 -10 -16 -10 -8 0 -12 5 -9 10 3 6 10 10 16 10 5
0 9 -4 9 -10z m-401 -74 c8 -13 10 -30 6 -36 -6 -9 -12 -6 -21 11 -7 13 -13
30 -14 37 0 20 16 14 29 -12z m631 -30 c0 -2 -3 -11 -6 -20 -9 -23 -23 -20
-21 4 1 11 7 20 14 20 7 0 13 -2 13 -4z m-675 -75 c-10 -16 -25 -3 -25 22 0
20 1 20 16 5 9 -9 13 -21 9 -27z m630 29 c3 -5 1 -10 -4 -10 -6 0 -11 5 -11
10 0 6 2 10 4 10 3 0 8 -4 11 -10z m99 -49 c8 -13 -4 -42 -15 -35 -12 7 -12
44 0 44 6 0 12 -4 15 -9z m-704 -80 c0 -17 -30 -86 -70 -163 -38 -73 -96 -184
-127 -246 -32 -62 -59 -108 -61 -103 -2 7 31 129 114 412 2 9 23 22 45 29 34
12 45 22 60 57 21 50 39 56 39 14z m690 -8 c0 -28 31 -100 119 -275 65 -131
115 -238 111 -238 -4 0 -41 44 -81 97 -41 53 -100 131 -132 172 -50 66 -57 80
-51 106 4 17 6 58 5 92 -1 35 1 67 4 73 13 21 25 8 25 -27z m-790 7 c-6 -11
-13 -20 -16 -20 -2 0 0 9 6 20 6 11 13 20 16 20 2 0 0 -9 -6 -20z m441 -75
c12 8 11 -6 -1 -25 -11 -18 -17 -13 -25 25 -5 25 -4 27 5 12 6 -9 15 -15 21
-12z m173 -27 c3 -13 19 -81 37 -153 67 -282 59 -281 -41 5 -25 71 -30 100
-25 130 7 44 22 52 29 18z m-186 -295 c-1 -146 -4 -234 -8 -203 -5 37 -8 45
-9 25 l-3 -30 -9 35 c-17 71 -59 301 -59 323 1 12 14 38 30 57 30 34 40 28 19
-12 -9 -16 -8 -62 1 -180 7 -87 15 -156 18 -153 3 2 -1 72 -8 154 -11 137 -11
153 5 195 10 25 19 46 21 46 2 0 3 -116 2 -257z"/>
<path d="M1204 2060 c0 -91 2 -128 3 -82 2 45 2 119 0 165 -1 45 -3 8 -3 -83z"/>
<path d="M1201 1684 c0 -11 3 -14 6 -6 3 7 2 16 -1 19 -3 4 -6 -2 -5 -13z"/>
<path d="M1531 2893 c-1 -12 -4 -30 -7 -40 -5 -15 -4 -15 5 -3 8 11 11 -120
11 -467 0 -266 -3 -483 -7 -483 -5 0 -23 13 -42 29 l-34 28 2 179 c2 207 13
353 42 547 24 159 21 194 -4 49 -30 -172 -45 -342 -53 -579 l-7 -231 34 -18
c19 -9 40 -25 47 -36 13 -18 15 -17 53 17 21 19 44 35 51 35 13 0 5 399 -12
565 -18 179 -77 482 -79 408z"/>
<path d="M928 2879 c-2 -14 -2 -34 2 -45 8 -22 11 -934 3 -934 -8 0 -67 43
-76 55 -17 22 9 478 39 688 23 158 12 152 -15 -9 -16 -99 -26 -220 -34 -423
-10 -272 -10 -285 8 -295 10 -6 32 -23 49 -38 l31 -26 31 26 c17 15 39 32 49
38 18 10 18 21 6 280 -6 148 -14 287 -17 309 -12 107 -46 315 -58 354 -11 40
-13 42 -18 20z"/>
<path d="M1372 2870 c0 -19 2 -27 5 -17 2 9 2 25 0 35 -3 9 -5 1 -5 -18z"/>
<path d="M1073 2700 c0 -25 2 -35 4 -22 2 12 2 32 0 45 -2 12 -4 2 -4 -23z"/>
<path d="M1351 2694 c0 -11 3 -14 6 -6 3 7 2 16 -1 19 -3 4 -6 -2 -5 -13z"/>
<path d="M1063 2555 c0 -33 2 -45 4 -27 2 18 2 45 0 60 -2 15 -4 0 -4 -33z"/>
<path d="M1343 2520 c0 -36 2 -50 4 -32 2 17 2 47 0 65 -2 17 -4 3 -4 -33z"/>
<path d="M1054 2260 c0 -74 1 -105 3 -67 2 37 2 97 0 135 -2 37 -3 6 -3 -68z"/>
</g>
</svg>
