<?xml version="1.0" standalone="no"?>
<!DOCTYPE svg PUBLIC "-//W3C//DTD SVG 20010904//EN"
 "http://www.w3.org/TR/2001/REC-SVG-20010904/DTD/svg10.dtd">
<svg version="1.0" xmlns="http://www.w3.org/2000/svg"
 width="244.000000pt" height="305.000000pt" viewBox="0 0 244.000000 305.000000"
 preserveAspectRatio="xMidYMid meet">
<metadata>
Created by potrace 1.16, written by Peter Selinger 2001-2019
</metadata>
<g transform="translate(0.000000,305.000000) scale(0.100000,-0.100000)"
fill="#000000" stroke="none">
<path d="M1021 2895 c-1 -11 -4 -31 -7 -45 -4 -20 -3 -22 5 -10 8 11 10 -37
10 -175 -1 -139 -4 -181 -11 -155 -5 19 -10 91 -11 160 -1 69 -4 105 -6 80 -2
-32 -5 -40 -10 -26 -4 11 -7 -34 -7 -100 0 -65 3 -101 6 -79 l6 40 7 -40 c4
-22 10 -167 13 -322 5 -236 4 -283 -7 -283 -32 1 -38 17 -42 115 -3 81 -4 75
-3 -28 1 -70 -2 -127 -6 -127 -5 0 -8 217 -7 483 0 312 4 475 10 462 8 -17 9
-17 4 5 -2 14 -5 32 -5 40 -1 13 -2 13 -10 0 -11 -20 -35 -161 -55 -325 -14
-121 -36 -618 -28 -640 2 -5 17 -18 34 -28 45 -25 32 -43 -28 -39 -44 3 -53 0
-67 -19 -9 -13 -16 -36 -16 -52 0 -26 2 -28 34 -21 29 5 39 2 60 -19 34 -34
43 -72 22 -92 -18 -19 -20 -37 -7 -83 l10 -32 -39 0 c-31 0 -40 -4 -46 -22 -4
-13 -7 -30 -6 -39 2 -8 -2 -26 -7 -40 -8 -20 -10 -16 -10 29 -1 47 -4 54 -27
62 -88 34 -124 -20 -89 -136 8 -27 15 -66 15 -87 0 -43 -24 -107 -39 -107 -6
0 -11 -9 -11 -21 0 -50 -30 -71 -204 -143 -49 -20 -90 -35 -92 -33 -3 3 45 40
144 111 91 66 182 138 182 144 0 4 -7 34 -15 67 -8 33 -14 79 -15 103 0 30 -4
41 -11 36 -8 -5 -10 -32 -5 -90 l6 -84 -28 6 c-25 5 -34 -1 -68 -38 -21 -25
-92 -102 -157 -172 -65 -71 -116 -130 -114 -133 5 -4 74 21 226 83 46 19 85
33 87 31 2 -2 -12 -27 -32 -56 -19 -30 -32 -56 -30 -58 5 -5 244 113 261 128
16 16 26 10 41 -26 19 -47 19 -50 -19 -73 -29 -16 -37 -30 -50 -83 -9 -35 -41
-158 -71 -274 -30 -115 -53 -211 -51 -213 2 -3 114 135 172 213 28 37 28 27 3
-105 -23 -123 -25 -144 -7 -113 12 22 99 179 145 263 14 25 40 73 59 108 32
57 34 67 25 101 -5 22 -6 45 -2 51 11 18 86 6 112 -17 38 -34 40 -48 9 -86
l-28 -36 18 -108 c41 -255 90 -538 93 -541 4 -3 8 17 72 387 l45 264 -31 32
c-31 32 -32 33 -14 59 21 34 63 56 104 56 l31 0 -7 -49 c-6 -46 -3 -54 56
-162 122 -223 173 -310 177 -305 2 2 -5 52 -16 110 -12 59 -21 114 -21 123 0
9 17 -7 38 -34 114 -153 176 -232 179 -229 4 3 -24 111 -103 401 -42 152 -58
185 -90 185 -18 0 -22 21 -12 58 12 45 31 49 86 19 103 -56 185 -97 194 -97 5
0 -7 23 -26 52 -20 29 -34 54 -31 56 2 2 17 0 32 -6 15 -6 64 -24 108 -40 44
-16 111 -41 148 -55 38 -15 67 -23 65 -18 -2 5 -75 86 -163 180 -150 162 -161
171 -189 165 l-29 -6 6 85 c4 47 3 88 -2 91 -7 5 -21 -107 -21 -176 0 -29 1
-30 38 -23 l38 6 110 -117 c60 -65 118 -126 128 -136 47 -44 -1 -19 -139 73
-188 125 -215 152 -215 218 0 26 7 68 15 91 20 57 19 103 -3 123 -26 23 -85
22 -107 -3 -17 -18 -16 -21 9 -64 29 -49 31 -64 15 -118 -13 -48 -44 -54 -34
-7 9 39 -5 162 -15 134 -5 -16 -9 -11 -21 25 -12 38 -19 46 -42 48 -27 3 -27
5 -21 51 5 37 2 55 -11 74 -16 25 -16 28 4 61 24 38 38 46 82 46 36 0 45 19
27 56 -19 39 -63 52 -100 29 -22 -12 -33 -14 -41 -6 -12 12 24 57 55 67 16 5
18 17 18 107 -1 226 -33 668 -47 653 -3 -2 2 -75 11 -162 8 -88 18 -248 21
-356 5 -195 5 -197 -17 -218 -13 -12 -31 -26 -41 -31 -17 -10 -18 12 -15 495
2 278 0 506 -3 506 -3 0 -14 -48 -24 -107 -20 -118 -28 -116 -40 10 -4 42 -10
77 -14 77 -3 0 -6 -223 -6 -495 0 -272 -3 -495 -6 -495 -17 0 -39 74 -39 132
0 34 -5 70 -10 78 -5 8 -10 13 -10 10 0 -3 -7 -23 -15 -45 l-14 -40 -1 33 c0
39 -20 43 -21 5 0 -16 -4 -37 -9 -48 -6 -13 -9 15 -9 80 -2 180 -51 520 -71
484 -18 -33 -52 -296 -57 -444 -4 -91 -9 -151 -14 -140 -4 11 -8 37 -8 57 -1
43 -21 63 -22 21 l-1 -28 -10 28 c-5 15 -14 25 -19 21 -5 -3 -9 30 -9 78 0
125 -19 407 -36 549 -15 125 -31 205 -33 164z m56 -1010 c7 -20 -2 -29 -21
-22 -9 4 -13 13 -10 22 8 19 23 19 31 0z m343 -11 c0 -8 -9 -14 -20 -14 -22 0
-26 10 -8 28 13 13 28 7 28 -14z m-410 -5 c0 -5 -7 -9 -15 -9 -15 0 -20 12 -9
23 8 8 24 -1 24 -14z m488 3 c2 -7 -6 -12 -17 -12 -21 0 -27 11 -14 24 9 9 26
2 31 -12z m-378 -132 c-20 -13 -37 -12 -45 0 -9 14 37 31 50 19 6 -7 5 -13 -5
-19z m275 10 c3 -4 -1 -12 -8 -18 -14 -12 -53 11 -43 26 6 11 43 5 51 -8z
m-395 -51 c0 -11 -4 -18 -10 -14 -5 3 -7 12 -3 20 7 21 13 19 13 -6z m69 -22
c1 -5 -3 -5 -9 -2 -5 3 -10 16 -9 28 0 21 1 21 9 2 5 -11 9 -24 9 -28z m417 7
c-4 -12 -10 -14 -17 -7 -5 5 -7 17 -3 27 4 12 10 14 17 7 5 -5 7 -17 3 -27z
m-326 -46 c0 -10 9 -22 21 -28 11 -7 28 -28 36 -48 14 -34 16 -35 29 -17 8 10
14 25 14 32 0 7 11 20 25 29 14 9 25 24 25 33 0 12 9 16 42 15 41 -2 43 -3 41
-30 -4 -50 -8 -54 -48 -43 -32 9 -40 8 -61 -12 -13 -12 -30 -40 -37 -63 l-14
-41 -11 40 c-13 44 -44 85 -67 85 -7 0 -26 -5 -41 -10 -15 -6 -28 -9 -30 -7
-2 1 -6 21 -9 42 l-7 40 46 0 c37 0 46 -3 46 -17z m-161 -125 c24 -59 25 -67
10 -57 -19 11 -59 107 -58 139 l0 30 14 -30 c7 -16 23 -53 34 -82z m43 77 c5
-33 -6 -28 -17 8 -3 12 -2 22 3 22 5 0 12 -14 14 -30z m393 -27 c-10 -40 -17
-20 -9 23 5 24 9 32 12 21 2 -10 1 -30 -3 -44z m92 28 c-9 -44 -45 -117 -69
-138 -12 -10 -19 -13 -17 -8 2 6 20 47 38 93 35 81 59 109 48 53z m-377 -81
c11 -11 20 -24 20 -29 0 -5 3 -16 6 -25 12 -32 -16 -15 -41 24 -14 22 -25 42
-25 45 0 12 21 4 40 -15z m210 12 c0 -10 -60 -92 -67 -92 -11 0 8 64 24 82 16
18 43 25 43 10z m-430 -42 c8 -16 7 -26 -5 -42 -8 -13 -15 -41 -15 -63 0 -29
-3 -36 -10 -25 -13 21 -12 77 2 117 7 18 13 33 15 33 1 0 7 -9 13 -20z m646
-66 c3 -19 0 -57 -7 -86 l-14 -53 -5 75 c-3 41 -8 80 -13 87 -4 6 -4 19 0 29
6 16 7 16 19 -1 8 -10 17 -33 20 -51z m-786 -41 c0 -58 -3 -74 -11 -66 -18 18
-24 110 -9 128 7 8 14 15 16 15 2 0 4 -35 4 -77z m375 7 c14 -5 23 -14 20 -20
-4 -6 -17 -4 -36 5 -46 24 -35 34 16 15z m175 2 c0 -8 -43 -32 -55 -32 -3 0
-5 6 -5 14 0 13 9 17 53 25 4 0 7 -3 7 -7z m-418 -101 c2 -22 0 -37 -4 -35 -8
5 -11 74 -4 74 2 0 6 -18 8 -39z m221 -17 c-5 -29 -2 -35 21 -44 18 -6 26 -17
26 -34 0 -25 -31 -41 -48 -24 -13 13 -63 17 -89 7 -15 -5 -25 -3 -33 7 -13 15
-11 16 30 18 23 1 25 4 26 56 0 72 -1 70 38 58 32 -10 34 -13 29 -44z m245 -1
l-3 -58 30 0 c20 -1 31 -6 33 -18 3 -14 -5 -16 -58 -14 -41 1 -63 -2 -69 -11
-12 -20 -41 -3 -41 24 0 17 8 28 26 34 23 9 26 15 21 44 -5 29 -2 34 21 43 43
17 44 16 40 -44z m-558 -9 c0 -8 -4 -14 -10 -14 -5 0 -10 9 -10 21 0 11 5 17
10 14 6 -3 10 -13 10 -21z m125 -54 c21 -41 19 -51 -5 -15 -11 17 -20 33 -20
38 0 15 10 6 25 -23z m555 -30 c-6 -12 -14 -19 -17 -17 -2 3 1 15 7 27 6 12
14 19 17 17 2 -3 -1 -15 -7 -27z m-791 -23 c8 -11 -4 -27 -56 -73 -73 -65
-101 -85 -88 -63 26 42 53 73 78 85 15 8 27 23 27 33 0 31 20 41 39 18z m875
-37 c-4 -16 -3 -55 1 -86 6 -54 8 -56 50 -75 24 -11 46 -27 49 -37 33 -113
106 -393 105 -403 0 -17 -180 337 -220 435 -33 79 -36 111 -12 161 20 43 35
46 27 5z m217 -37 c38 -36 67 -68 65 -70 -6 -6 -176 97 -176 106 0 10 22 31
33 31 5 0 40 -30 78 -67z m-887 -38 c4 -25 4 -49 1 -55 -13 -21 -25 -8 -25 28
0 20 -5 55 -10 77 -9 40 -9 40 9 18 10 -12 22 -43 25 -68z m369 38 c-7 -2 -13
-21 -13 -41 0 -35 -32 -122 -45 -122 -11 0 -45 84 -44 110 0 17 5 11 15 -22 8
-26 19 -50 24 -53 13 -8 40 55 40 93 0 31 7 42 24 41 6 0 5 -3 -1 -6z m-423
-245 c-20 -92 -28 -110 -73 -173 -28 -38 -62 -87 -76 -108 -14 -21 -27 -34
-28 -30 -3 8 17 53 150 335 22 48 42 86 44 84 3 -2 -5 -51 -17 -108z m60 71
c10 -37 9 -44 -17 -85 -29 -46 -44 -56 -38 -26 36 175 37 178 55 111z m50 32
c0 -20 -13 -41 -21 -35 -15 9 -10 44 6 44 8 0 15 -4 15 -9z m526 -52 c5 -30
22 -80 37 -112 28 -59 87 -231 87 -251 0 -6 -41 67 -91 163 -81 155 -90 177
-84 210 14 72 35 68 51 -10z m-185 -151 l-9 -33 -1 32 c-1 17 2 40 6 50 12 30
16 -9 4 -49z m-428 -45 c-19 -54 -42 -120 -50 -148 -24 -77 -26 -38 -4 64 14
62 30 105 51 136 17 25 33 45 35 45 2 0 -13 -44 -32 -97z"/>
<path d="M1532 2840 c0 -14 2 -19 5 -12 2 6 2 18 0 25 -3 6 -5 1 -5 -13z"/>
<path d="M972 2790 c0 -14 2 -19 5 -12 2 6 2 18 0 25 -3 6 -5 1 -5 -13z"/>
<path d="M1421 2794 c0 -11 3 -14 6 -6 3 7 2 16 -1 19 -3 4 -6 -2 -5 -13z"/>
<path d="M1542 2785 c0 -16 2 -22 5 -12 2 9 2 23 0 30 -3 6 -5 -1 -5 -18z"/>
<path d="M1552 2720 c0 -19 2 -27 5 -17 2 9 2 25 0 35 -3 9 -5 1 -5 -18z"/>
<path d="M1412 2690 c0 -19 2 -27 5 -17 2 9 2 25 0 35 -3 9 -5 1 -5 -18z"/>
<path d="M1403 2610 c0 -25 2 -35 4 -22 2 12 2 32 0 45 -2 12 -4 2 -4 -23z"/>
<path d="M1393 2500 c0 -25 2 -35 4 -22 2 12 2 32 0 45 -2 12 -4 2 -4 -23z"/>
<path d="M973 2380 c0 -47 2 -66 4 -42 2 23 2 61 0 85 -2 23 -4 4 -4 -43z"/>
<path d="M1384 2260 c0 -69 1 -97 3 -62 2 34 2 90 0 125 -2 34 -3 6 -3 -63z"/>
</g>
</svg>
