<?xml version="1.0" standalone="no"?>
<!DOCTYPE svg PUBLIC "-//W3C//DTD SVG 20010904//EN"
 "http://www.w3.org/TR/2001/REC-SVG-20010904/DTD/svg10.dtd">
<svg version="1.0" xmlns="http://www.w3.org/2000/svg"
 width="244.000000pt" height="305.000000pt" viewBox="0 0 244.000000 305.000000"
 preserveAspectRatio="xMidYMid meet">
<metadata>
Created by potrace 1.16, written by Peter Selinger 2001-2019
</metadata>
<g transform="translate(0.000000,305.000000) scale(0.100000,-0.100000)"
fill="#000000" stroke="none">
<path d="M935 2416 c0 -270 -1 -496 -3 -503 -2 -7 -18 -2 -43 15 l-40 27 6
205 c6 214 14 312 40 494 16 119 17 132 10 125 -10 -11 -44 -283 -54 -434 -14
-202 -14 -425 -1 -425 5 0 25 -13 43 -30 19 -16 38 -30 43 -30 4 0 20 11 34
25 27 26 54 26 64 0 3 -9 -7 -15 -31 -20 -29 -5 -38 -13 -52 -46 -17 -40 -31
-51 -31 -23 0 25 -56 74 -85 74 -33 0 -75 -41 -75 -75 0 -22 4 -25 38 -25 30
0 45 -7 70 -33 35 -36 40 -58 18 -76 -14 -12 -15 -96 -2 -326 l5 -100 -14 105
c-7 58 -14 108 -14 111 -2 13 -61 -5 -78 -23 -23 -25 -21 -99 2 -135 22 -33 4
-58 -20 -27 -38 49 -44 127 -15 184 11 22 20 46 20 54 0 35 -95 50 -124 20
-20 -20 -20 -68 0 -128 19 -54 15 -136 -7 -163 -17 -20 -339 -233 -353 -233
-10 0 5 16 177 192 78 79 79 79 119 73 l41 -7 -6 68 c-4 38 -7 86 -7 107 0 21
-5 37 -11 37 -9 0 -10 -26 -6 -91 l6 -90 -29 6 c-28 6 -41 -5 -204 -172 -96
-98 -173 -179 -171 -181 2 -2 61 18 132 44 70 26 169 61 218 79 82 29 91 35
95 61 5 23 10 28 30 26 45 -5 52 -20 27 -60 -13 -21 -36 -59 -51 -86 -34 -58
-29 -58 77 6 72 43 92 42 85 -3 -2 -16 -11 -25 -25 -27 -12 -2 -26 -9 -31 -15
-8 -10 -41 -118 -92 -302 -57 -204 -70 -258 -68 -266 2 -4 70 75 152 176 81
102 151 187 155 189 4 3 -5 -68 -21 -157 -15 -89 -27 -171 -27 -182 0 -11 16
14 36 55 20 41 67 138 105 215 62 125 69 145 66 190 -4 60 11 67 62 33 55 -38
59 -51 24 -95 l-30 -38 32 -180 c54 -297 87 -465 90 -463 1 2 28 145 59 318
31 173 59 318 61 322 3 4 -9 22 -26 41 -16 19 -30 39 -30 43 1 17 38 54 65 64
53 20 58 15 51 -44 -6 -54 -5 -57 103 -278 60 -123 110 -216 110 -208 0 8 -13
91 -29 185 -16 93 -28 170 -26 172 1 1 27 -27 57 -64 30 -37 68 -83 85 -102
17 -20 56 -69 88 -109 32 -40 60 -72 62 -69 4 4 -6 42 -100 383 -47 168 -48
171 -82 187 -35 17 -41 31 -24 57 11 17 34 7 145 -62 32 -20 61 -35 63 -33 5
5 -26 65 -53 100 -12 17 -30 45 -39 64 -15 28 -15 35 -4 42 21 14 42 6 48 -20
6 -26 7 -26 264 -122 88 -32 161 -57 163 -55 2 2 -72 81 -164 176 -155 159
-169 171 -196 166 l-29 -6 7 79 c10 109 -6 128 -21 26 -6 -44 -15 -94 -19
-111 -7 -31 -5 -33 105 -110 173 -123 231 -166 227 -170 -5 -5 -298 113 -310
125 -5 5 -4 18 3 31 11 20 8 26 -19 51 -28 25 -31 34 -31 84 0 31 8 86 17 121
16 59 16 68 2 92 -19 36 -75 42 -110 13 l-24 -20 23 -40 c24 -43 28 -94 12
-153 -11 -39 -24 -53 -39 -43 -6 3 -3 23 6 48 23 62 11 116 -28 130 -16 6 -29
18 -30 27 0 12 -2 12 -6 1 -9 -24 -33 60 -33 119 0 31 -7 63 -15 74 -30 40 38
114 95 102 28 -5 30 -3 30 22 0 42 -26 72 -61 72 -43 0 -66 -15 -87 -57 l-19
-36 -7 36 c-9 46 -29 67 -66 67 -21 0 -28 4 -24 14 10 27 33 25 64 -5 l30 -31
34 29 c18 15 39 33 47 38 13 8 14 48 8 260 -4 138 -14 304 -23 370 -23 170
-57 345 -67 345 -10 0 -12 -43 -3 -53 8 -8 9 -926 1 -934 -4 -3 -16 2 -27 12
-16 14 -20 32 -22 84 l-1 66 -7 -60 c-10 -100 -22 -38 -16 82 15 307 24 474
29 528 l6 60 -13 -70 -13 -70 -4 45 c-2 25 -8 -112 -12 -305 -5 -192 -12 -356
-17 -365 -6 -9 -10 183 -10 490 -1 278 -3 501 -5 495 -12 -32 -36 -327 -45
-536 -11 -287 -19 -381 -31 -373 -5 3 -9 25 -9 50 0 25 -6 55 -14 67 -8 13
-16 65 -19 132 -6 102 -37 296 -56 348 -8 21 -8 21 -14 2 -21 -68 -49 -248
-56 -350 -4 -67 -13 -130 -20 -142 -6 -12 -11 -45 -11 -74 0 -39 -3 -50 -11
-42 -6 6 -14 78 -18 170 -6 111 -8 133 -9 73 -1 -47 -8 -114 -16 -150 -8 -36
-19 -90 -24 -120 -7 -38 -9 103 -8 447 0 277 -2 493 -5 480 -3 -12 -11 -87
-18 -167 -7 -80 -16 -158 -21 -175 l-8 -30 -1 32 c-1 48 -40 282 -54 329 -10
34 -12 -48 -12 -450z m257 -331 c-4 -152 -9 -208 -12 -165 -4 36 -3 128 1 205
4 77 8 153 8 169 1 16 3 27 5 25 2 -2 1 -107 -2 -234z m-102 -226 c0 -5 -4 -9
-10 -9 -5 0 -10 7 -10 16 0 8 5 12 10 9 6 -3 10 -10 10 -16z m311 8 c-1 -12
-15 -9 -19 4 -3 6 1 10 8 8 6 -3 11 -8 11 -12z m-281 -128 c-12 -22 -30 -25
-30 -6 0 17 21 38 32 31 4 -3 3 -14 -2 -25z m244 25 c16 -6 23 -44 8 -44 -12
0 -32 23 -32 37 0 15 2 15 24 7z m-338 -50 c10 -24 12 -40 5 -47 -5 -7 -11
-28 -13 -47 l-4 -35 -8 30 c-10 38 -13 46 -28 67 -10 13 -9 22 2 42 18 35 28
33 46 -10z m460 19 c18 -24 17 -48 -1 -63 -8 -7 -16 -24 -16 -39 l-2 -26 -4
28 c-2 15 -9 27 -15 27 -6 0 -8 14 -3 37 11 58 19 65 41 36z m-300 -91 c-12
-11 -17 7 -9 34 l8 29 3 -28 c2 -16 1 -31 -2 -35z m-31 -12 c3 -10 14 -20 24
-23 10 -2 27 -23 37 -47 l19 -42 17 42 c10 24 27 44 38 47 11 3 20 11 20 18 0
6 8 19 18 29 18 15 20 15 37 -4 12 -13 15 -27 11 -45 -6 -22 -12 -25 -50 -25
-50 0 -62 -10 -79 -71 l-13 -44 -13 47 c-17 58 -27 68 -79 70 -32 1 -42 6 -46
22 -8 30 -8 33 10 51 18 18 39 7 49 -25z m-192 -62 c13 -29 41 -73 61 -97 46
-55 61 -81 45 -81 -18 0 -88 81 -114 133 -22 42 -33 97 -21 97 3 0 15 -24 29
-52z m132 -66 c23 -45 13 -52 -14 -9 -12 19 -23 56 -26 83 l-5 49 14 -45 c8
-25 21 -60 31 -78z m304 6 c-12 -24 -24 -37 -27 -30 -2 7 3 23 11 35 8 12 18
43 23 67 l9 45 3 -37 c2 -23 -5 -52 -19 -80z m141 91 c0 -36 -46 -122 -90
-169 -61 -64 -62 -34 -2 48 27 37 55 84 61 105 14 40 31 50 31 16z m-370 -133
c-1 -6 -10 0 -20 13 -11 13 -20 28 -20 35 1 6 10 0 20 -13 11 -13 20 -28 20
-35z m156 18 c-10 -14 -20 -23 -23 -20 -3 3 2 17 11 32 10 14 20 23 23 20 3
-3 -2 -17 -11 -32z m224 -101 c0 -44 -10 -69 -21 -51 -10 16 -12 92 -2 101 11
11 23 -15 23 -50z m-600 1 c0 -27 -4 -43 -10 -39 -17 11 -11 85 7 85 2 0 3
-21 3 -46z m230 -10 c0 -9 -5 -14 -12 -12 -18 6 -21 28 -4 28 9 0 16 -7 16
-16z m129 -10 c-14 -18 -24 -11 -15 11 3 9 11 13 16 10 8 -5 7 -11 -1 -21z
m136 -140 c-8 -44 -20 -52 -95 -56 -64 -3 -65 -2 -65 22 0 18 6 26 22 28 30 4
43 50 19 67 -15 11 -13 13 14 17 16 3 32 2 35 0 3 -3 2 -27 -1 -52 -7 -57 8
-73 39 -41 16 16 21 32 19 67 -1 26 2 52 6 58 9 14 15 -69 7 -110z m-402 54
c-4 -33 0 -49 14 -67 30 -37 47 -19 39 40 l-7 49 43 -1 c24 -1 36 -3 27 -6
-18 -4 -32 -40 -23 -55 3 -5 17 -13 31 -19 31 -12 30 -56 -2 -51 -11 2 -41 3
-67 2 -36 -1 -49 3 -57 17 -15 29 -24 90 -17 118 10 41 24 20 19 -27z m626
-57 c-15 -23 -39 -36 -39 -20 0 5 7 21 16 35 21 31 42 17 23 -15z m-814 -61
c9 -16 11 -30 6 -30 -11 0 -31 32 -31 49 0 19 9 12 25 -19z m150 20 c3 -5 1
-10 -4 -10 -6 0 -11 5 -11 10 0 6 2 10 4 10 3 0 8 -4 11 -10z m589 -123 l-6
-83 116 -233 c64 -129 115 -235 113 -237 -2 -2 -46 51 -98 117 -130 168 -154
202 -161 220 -17 44 17 299 39 299 2 0 1 -37 -3 -83z m189 12 c54 -87 45 -89
-32 -7 -40 43 -47 68 -18 68 7 0 29 -27 50 -61z m-883 -37 c0 -35 -13 -69 -64
-166 -35 -66 -94 -181 -131 -254 -37 -73 -69 -131 -71 -129 -2 1 4 27 12 57 8
30 22 80 30 110 8 30 31 105 50 167 l34 112 44 19 c45 21 56 43 56 117 0 17 3
35 7 39 14 14 33 -28 33 -72z m-123 51 c4 -12 -97 -86 -106 -78 -7 8 82 96 93
92 5 -2 11 -8 13 -14z m469 -129 c8 11 14 24 14 30 0 5 3 7 6 4 6 -7 -22 -78
-31 -78 -8 0 -35 65 -35 82 1 7 8 -3 16 -22 15 -33 16 -34 30 -16z m278 -25
c6 -5 5 -23 -2 -45 -9 -31 -8 -40 9 -63 18 -25 50 -163 63 -276 l5 -50 -19 55
c-43 127 -120 373 -120 386 0 11 7 13 28 8 15 -4 31 -10 36 -15z m-490 -55
c-1 -53 -9 -76 -77 -214 -43 -85 -75 -146 -71 -135 3 11 30 103 60 205 67 226
61 213 77 207 8 -2 12 -24 11 -63z m138 -66 c-5 -13 -3 -75 4 -138 21 -197 12
-194 -21 7 -18 109 -18 113 0 133 23 26 26 25 17 -2z"/>
<path d="M1062 2800 c0 -14 2 -19 5 -12 2 6 2 18 0 25 -3 6 -5 1 -5 -13z"/>
<path d="M1432 2790 c0 -14 2 -19 5 -12 2 6 2 18 0 25 -3 6 -5 1 -5 -13z"/>
<path d="M1495 2735 c-3 -26 -4 -49 -2 -51 3 -3 8 16 12 41 3 26 4 49 2 51 -3
3 -8 -16 -12 -41z"/>
<path d="M1072 2715 c0 -16 2 -22 5 -12 2 9 2 23 0 30 -3 6 -5 -1 -5 -18z"/>
<path d="M1442 2670 c0 -19 2 -27 5 -17 2 9 2 25 0 35 -3 9 -5 1 -5 -18z"/>
<path d="M1082 2630 c0 -14 2 -19 5 -12 2 6 2 18 0 25 -3 6 -5 1 -5 -13z"/>
<path d="M1093 2440 c0 -36 2 -50 4 -32 2 17 2 47 0 65 -2 17 -4 3 -4 -33z"/>
</g>
</svg>
