<?xml version="1.0" standalone="no"?>
<!DOCTYPE svg PUBLIC "-//W3C//DTD SVG 20010904//EN"
 "http://www.w3.org/TR/2001/REC-SVG-20010904/DTD/svg10.dtd">
<svg version="1.0" xmlns="http://www.w3.org/2000/svg"
 width="244.000000pt" height="305.000000pt" viewBox="0 0 244.000000 305.000000"
 preserveAspectRatio="xMidYMid meet">
<metadata>
Created by potrace 1.16, written by Peter Selinger 2001-2019
</metadata>
<g transform="translate(0.000000,305.000000) scale(0.100000,-0.100000)"
fill="#000000" stroke="none">
<path d="M900 2896 c0 -7 -2 -29 -5 -47 -4 -29 -3 -30 4 -9 6 16 10 -93 11
-290 0 -173 2 -373 3 -445 2 -71 0 -147 -3 -168 l-5 -37 -39 27 -39 28 6 240
c4 149 14 295 26 385 30 222 32 244 16 170 -27 -121 -54 -394 -60 -610 l-7
-215 39 -23 c21 -12 45 -27 55 -34 13 -10 22 -6 51 19 19 17 40 32 47 35 25 8
9 459 -25 689 -21 139 -56 299 -66 299 -5 0 -9 -6 -9 -14z"/>
<path d="M1372 2890 c0 -14 2 -19 5 -12 2 6 2 18 0 25 -3 6 -5 1 -5 -13z"/>
<path d="M1547 2886 c-4 -10 -2 -26 3 -36 6 -12 10 -194 10 -484 0 -494 0
-496 -45 -446 -10 11 -24 20 -32 20 -30 0 -13 431 28 698 11 74 19 138 17 144
-6 18 -47 -257 -58 -382 -5 -63 -12 -194 -16 -292 l-6 -176 28 -18 c16 -10 41
-28 55 -41 l26 -23 19 21 c10 11 32 28 48 36 l29 15 -6 242 c-3 132 -13 295
-22 361 -17 132 -51 322 -64 356 -7 20 -8 20 -14 5z"/>
<path d="M1095 2848 c-12 -36 -28 -312 -35 -613 l-8 -340 29 -26 c28 -25 41
-79 19 -79 -5 0 -10 11 -10 24 0 27 -14 41 -51 50 -45 10 -85 -11 -107 -57
l-19 -41 -21 40 c-20 39 -55 64 -91 64 -32 0 -71 -39 -71 -71 0 -27 2 -29 41
-29 33 0 47 -6 75 -34 40 -40 41 -45 14 -76 -24 -28 -24 -22 -5 -93 8 -32 33
-85 55 -117 22 -32 40 -62 40 -65 0 -3 -16 -27 -36 -53 -31 -40 -34 -51 -29
-84 4 -24 3 -38 -4 -38 -17 0 -26 23 -27 75 -1 28 -6 74 -10 104 -8 49 -12 55
-38 62 -22 6 -33 3 -52 -16 -42 -43 -29 -105 49 -227 21 -32 37 -69 37 -85
l-1 -28 -14 33 c-8 18 -34 59 -59 90 -55 72 -62 86 -71 144 -6 40 -3 51 19 84
31 46 33 70 7 84 -27 14 -104 13 -119 -2 -16 -16 -15 -77 3 -128 19 -54 19
-113 0 -149 -13 -26 -183 -139 -337 -225 -67 -37 -70 -32 -13 20 28 26 92 87
144 136 l94 90 44 -7 45 -6 -6 68 c-4 37 -9 88 -13 113 -9 72 -19 21 -13 -70
l5 -81 -27 6 c-16 4 -35 1 -46 -7 -31 -21 -363 -341 -359 -345 5 -5 449 148
465 160 6 5 12 18 12 28 0 31 19 32 78 2 60 -30 102 -79 102 -119 0 -16 -11
-28 -37 -41 -37 -18 -38 -20 -86 -183 -27 -91 -64 -215 -83 -276 -37 -122 -39
-128 -24 -119 12 7 349 400 372 434 15 22 16 27 2 53 -23 44 -12 58 41 58 25
0 45 -3 45 -8 0 -4 -13 -113 -30 -242 -16 -129 -30 -242 -29 -250 0 -19 7 -2
90 224 55 150 68 195 63 222 -8 42 4 43 40 5 l27 -29 -30 -35 c-17 -19 -31
-43 -31 -53 0 -18 119 -627 124 -631 3 -3 126 629 126 647 0 8 -14 29 -31 46
l-32 33 34 33 34 33 6 -70 c4 -52 22 -114 71 -245 36 -96 71 -186 77 -200 10
-22 11 -21 6 15 -2 22 -5 54 -6 70 -1 27 -2 28 -8 6 -5 -17 -11 -3 -25 60 -10
46 -33 146 -52 221 -19 75 -34 139 -34 142 0 12 50 5 50 -6 0 -8 4 -7 10 3 7
11 21 15 46 13 51 -4 58 -15 40 -59 -15 -35 -15 -39 2 -60 35 -47 366 -424
369 -422 2 3 -24 93 -151 521 -8 27 -21 45 -41 56 -76 42 -13 145 107 175 23
6 27 4 30 -20 3 -24 12 -31 83 -57 158 -57 377 -130 381 -125 2 2 -22 28 -53
57 -32 29 -113 107 -181 173 -113 110 -125 119 -152 113 l-30 -6 -1 93 c-2 91
-2 91 -11 37 -5 -30 -15 -79 -22 -108 -11 -44 -11 -55 0 -66 7 -8 90 -65 184
-126 94 -62 169 -115 167 -116 -6 -6 -308 104 -339 122 -3 2 -2 17 4 32 10 25
7 31 -21 59 -26 27 -31 39 -31 82 0 28 6 70 14 93 26 82 27 94 5 122 -25 32
-85 36 -119 8 l-23 -19 27 -45 c42 -73 33 -133 -38 -228 -23 -31 -49 -67 -58
-80 -13 -19 -17 -21 -17 -8 -1 9 20 52 46 95 58 98 70 170 32 197 -13 9 -34
16 -46 16 -31 0 -43 -33 -48 -138 -3 -47 -7 -87 -10 -90 -9 -9 -16 5 -21 40
-3 18 -16 49 -30 69 -31 46 -30 65 7 124 57 89 76 179 44 205 -23 19 -18 39
20 77 29 29 40 34 72 31 32 -2 38 0 41 18 2 11 -6 32 -17 46 -42 53 -115 38
-148 -33 l-20 -43 -12 36 c-16 47 -40 68 -89 74 -44 5 -72 -13 -72 -47 0 -10
-4 -19 -10 -19 -22 0 -9 47 20 68 28 21 29 24 28 109 0 58 -3 79 -8 63 -7 -21
-8 -19 -9 16 -1 24 -7 47 -16 54 -13 11 -15 66 -16 374 -1 220 -5 338 -9 301
-14 -111 -32 -548 -29 -727 2 -98 0 -180 -3 -183 -3 -4 -9 56 -12 132 -12 271
-64 622 -86 582 -28 -51 -69 -338 -71 -493 0 -107 -10 -158 -27 -147 -25 16
-33 152 -30 531 2 209 2 380 0 380 -1 0 -5 -6 -7 -12z m122 -415 c-3 -10 -5
-4 -5 12 0 17 2 24 5 18 2 -7 2 -21 0 -30z m-13 -295 c-8 -262 -20 -281 -23
-36 -1 103 17 313 26 304 3 -2 1 -123 -3 -268z m-54 -243 c0 -14 -4 -25 -10
-25 -11 0 -14 33 -3 43 11 11 13 8 13 -18z m39 -117 c1 -26 -3 -49 -8 -52 -5
-3 -9 27 -9 67 0 47 3 65 8 52 5 -11 9 -41 9 -67z m-124 -29 c5 -6 3 -9 -7 -9
-9 0 -19 -4 -22 -9 -8 -12 14 -71 26 -71 6 0 9 -24 7 -57 -1 -32 3 -71 10 -87
17 -43 3 -46 -30 -6 -36 42 -68 107 -69 136 0 12 -7 24 -15 28 -43 16 18 102
65 91 14 -4 29 -11 35 -16z m433 -15 c27 -30 27 -39 4 -62 -9 -9 -18 -30 -20
-45 -2 -34 -22 -72 -60 -117 -34 -40 -48 -37 -31 6 7 16 13 54 14 84 0 30 7
70 15 88 14 31 13 35 -3 47 -18 13 -18 14 0 24 24 14 53 5 81 -25z m-348 -74
c0 -34 4 -42 25 -50 32 -12 32 -26 0 -32 -32 -7 -43 7 -45 57 -3 56 -1 65 10
65 6 0 10 -18 10 -40z m50 5 c0 -25 -4 -35 -16 -35 -11 0 -14 5 -9 18 4 9 10
25 12 35 8 27 13 20 13 -18z m140 -25 c0 -57 -23 -80 -56 -55 -18 13 -18 14 9
24 23 9 27 16 27 51 0 25 4 39 10 35 6 -3 10 -28 10 -55z m-402 -62 c28 -60
35 -88 23 -88 -15 0 -51 74 -51 105 0 35 5 32 28 -17z m622 22 c0 -27 -30
-100 -41 -100 -14 0 -11 31 9 77 18 46 32 56 32 23z m-311 -74 c-2 -23 -17
-60 -18 -46 -1 8 -4 24 -7 36 -4 14 -1 21 10 21 9 0 16 -5 15 -11z m-99 -72
c33 -74 33 -74 22 -74 -9 0 -62 111 -62 129 0 24 11 8 40 -55z m183 -16 c-15
-29 -29 -55 -30 -57 -2 -2 -5 -2 -8 1 -3 3 9 36 27 74 20 42 34 62 36 52 2
-10 -9 -41 -25 -70z m-300 -3 c-7 -21 -13 -19 -13 6 0 11 4 18 10 14 5 -3 7
-12 3 -20z m427 5 c0 -11 -4 -20 -10 -20 -5 0 -10 9 -10 20 0 11 5 20 10 20 6
0 10 -9 10 -20z m-350 -58 c0 -23 -35 -8 -38 16 -3 21 -2 22 17 10 12 -7 21
-19 21 -26z m286 3 c-6 -18 -36 -20 -36 -4 0 16 34 40 38 28 2 -5 1 -16 -2
-24z m-351 -134 c9 -35 14 -65 11 -68 -5 -5 -46 120 -46 140 0 27 20 -13 35
-72z m400 -5 c-9 -31 -21 -59 -27 -62 -8 -5 -9 -1 -5 11 4 10 12 38 18 64 16
68 21 80 26 59 2 -9 -3 -41 -12 -72z m-275 59 c0 -9 -9 -15 -22 -15 -22 1 -23
1 -4 15 25 19 26 19 26 0z m170 -10 c0 -3 -9 -5 -20 -5 -11 0 -20 7 -20 15 0
13 4 14 20 5 11 -6 20 -13 20 -15z m-237 -92 c4 -4 17 -2 27 5 27 16 47 15 54
-4 10 -27 7 -34 -17 -34 -13 0 -28 -5 -35 -12 -9 -9 -15 -8 -27 8 -27 36 -44
121 -27 138 4 4 9 -15 12 -42 3 -28 9 -54 13 -59z m297 61 c0 -37 -21 -98 -39
-108 -5 -4 -18 -2 -28 3 -10 5 -26 12 -36 15 -24 8 -18 40 7 44 11 3 25 -4 32
-13 7 -9 17 -14 23 -11 15 10 30 72 24 97 -4 15 -3 20 5 15 7 -4 12 -23 12
-42z m180 -63 c0 -23 -30 -37 -41 -19 -4 7 0 17 9 25 24 17 32 16 32 -6z
m-626 -27 c13 -33 4 -42 -23 -25 -14 9 -9 41 8 41 5 0 12 -7 15 -16z m672 -91
c-6 -14 -9 -15 -16 -4 -11 19 -1 46 13 32 5 -5 7 -18 3 -28z m-746 -10 c-1
-11 -26 -43 -34 -43 -10 0 -7 25 6 38 13 13 28 16 28 5z m0 -64 c0 -6 -44 -91
-97 -188 -152 -276 -193 -347 -193 -333 0 7 13 55 29 105 16 51 44 139 61 197
43 146 42 143 91 158 31 9 49 22 61 42 17 29 48 41 48 19z m730 -9 c0 -18 18
-54 177 -354 40 -76 72 -140 70 -142 -2 -2 -67 74 -146 169 -137 166 -142 173
-135 207 4 19 6 59 5 88 -2 41 1 52 13 52 9 0 16 -9 16 -20z m-370 -61 c0 8 2
12 5 9 3 -3 2 -13 -1 -22 -5 -14 -9 -15 -15 -4 -5 7 -9 18 -9 23 0 6 5 3 10
-5 8 -12 10 -12 10 -1z m-153 -73 c-4 -36 -26 -116 -56 -196 -54 -147 -62
-153 -31 -27 10 45 28 127 40 181 23 110 27 119 42 110 7 -4 8 -30 5 -68z
m107 -41 c-12 -30 -12 -55 1 -202 8 -92 14 -181 14 -198 -1 -25 -77 317 -79
352 0 14 58 83 71 83 4 0 1 -16 -7 -35z"/>
<path d="M1382 2790 c0 -14 2 -19 5 -12 2 6 2 18 0 25 -3 6 -5 1 -5 -13z"/>
<path d="M1113 2710 c0 -25 2 -35 4 -22 2 12 2 32 0 45 -2 12 -4 2 -4 -23z"/>
<path d="M1393 2635 c0 -27 2 -38 4 -22 2 15 2 37 0 50 -2 12 -4 0 -4 -28z"/>
<path d="M1123 2560 c0 -25 2 -35 4 -22 2 12 2 32 0 45 -2 12 -4 2 -4 -23z"/>
<path d="M1403 2450 c0 -41 2 -58 4 -37 2 20 2 54 0 75 -2 20 -4 3 -4 -38z"/>
<path d="M1134 2260 c0 -58 1 -81 3 -52 2 28 2 76 0 105 -2 28 -3 5 -3 -53z"/>
<path d="M1462 880 c0 -19 2 -27 5 -17 2 9 2 25 0 35 -3 9 -5 1 -5 -18z"/>
<path d="M1472 810 c-1 -19 3 -53 7 -75 8 -35 9 -36 9 -10 0 17 -3 50 -7 75
-8 42 -9 43 -9 10z"/>
<path d="M1492 660 c0 -19 3 -55 7 -80 11 -61 12 -4 1 65 -6 41 -7 44 -8 15z"/>
</g>
</svg>
