<?xml version="1.0" standalone="no"?>
<!DOCTYPE svg PUBLIC "-//W3C//DTD SVG 20010904//EN"
 "http://www.w3.org/TR/2001/REC-SVG-20010904/DTD/svg10.dtd">
<svg version="1.0" xmlns="http://www.w3.org/2000/svg"
 width="244.000000pt" height="305.000000pt" viewBox="0 0 244.000000 305.000000"
 preserveAspectRatio="xMidYMid meet">
<metadata>
Created by potrace 1.16, written by Peter Selinger 2001-2019
</metadata>
<g transform="translate(0.000000,305.000000) scale(0.100000,-0.100000)"
fill="#000000" stroke="none">
<path d="M900 2893 c0 -12 -3 -30 -6 -40 -5 -15 -4 -15 5 -3 8 11 11 -120 11
-467 0 -266 -2 -483 -5 -483 -3 0 -23 12 -45 26 l-40 27 0 106 c0 156 18 407
40 561 21 144 24 183 9 135 -23 -77 -50 -336 -59 -572 -10 -262 -9 -272 26
-273 6 0 21 -11 34 -25 28 -30 41 -31 64 -6 10 11 31 25 48 32 l31 13 -7 215
c-9 257 -27 437 -62 621 -23 124 -44 186 -44 133z"/>
<path d="M1310 2835 c-1 -38 -2 -194 -2 -345 0 -211 -2 -257 -9 -200 -10 89
-33 207 -52 270 l-14 45 -13 -45 c-7 -25 -18 -72 -25 -105 l-13 -60 -2 55
c-14 344 -17 346 -18 14 -2 -370 -11 -564 -23 -484 -7 42 -7 42 -4 -10 2 -30
6 -68 10 -85 5 -22 4 -27 -4 -20 -6 6 -15 46 -21 90 -15 106 -29 160 -40 149
-11 -11 -30 -130 -30 -187 0 -30 4 -39 24 -47 32 -12 37 -22 40 -76 3 -60 -13
-82 -48 -66 -15 7 -29 12 -31 12 -10 0 -4 -32 10 -60 19 -37 47 -38 74 -3 12
14 23 24 26 22 2 -3 1 -30 -2 -62 -5 -54 -7 -57 -33 -57 -30 0 -64 -30 -42
-37 6 -3 12 -19 12 -36 l0 -31 -31 30 c-37 35 -69 94 -69 127 0 14 -7 30 -15
37 -22 18 -18 54 9 79 20 19 33 22 70 19 42 -3 46 -1 46 19 0 12 -11 34 -24
49 -33 39 -89 39 -122 0 -13 -15 -24 -36 -24 -47 0 -28 -16 -23 -30 10 -18 44
-45 63 -89 65 -51 1 -83 -26 -79 -68 3 -29 5 -31 44 -28 36 3 44 -1 72 -33 36
-40 39 -57 17 -75 -32 -26 -11 -127 42 -201 15 -22 34 -48 41 -59 11 -16 9
-23 -18 -53 -17 -20 -35 -50 -40 -67 -8 -27 -6 -35 15 -55 44 -45 114 -46 101
-2 -13 42 -17 92 -8 104 6 10 15 10 41 0 29 -11 32 -15 27 -42 -4 -22 -3 -26
4 -15 9 13 10 13 11 0 1 -8 5 -1 9 15 l8 30 1 -30 c1 -45 -18 -105 -34 -105
-8 0 -15 6 -15 13 0 6 -5 4 -11 -6 -5 -9 -24 -24 -41 -33 -39 -20 -76 -6 -114
44 -24 31 -28 45 -30 118 -3 100 -9 123 -37 133 -32 12 -56 2 -73 -31 -22 -43
-10 -94 43 -180 98 -159 110 -204 74 -276 -10 -20 -55 -101 -100 -179 -44 -79
-81 -145 -81 -147 0 -11 -83 -146 -87 -142 -2 2 19 78 47 168 94 299 82 272
122 283 52 15 66 31 73 85 9 66 -6 107 -68 188 -81 106 -95 167 -52 230 14 20
25 44 25 54 0 35 -82 53 -129 29 -26 -14 -28 -74 -6 -136 8 -22 15 -57 15 -78
0 -70 -19 -90 -188 -190 -170 -102 -222 -130 -222 -122 0 5 126 127 172 166
12 11 42 38 66 61 40 38 45 40 88 33 l45 -6 -6 63 c-11 120 -16 148 -26 143
-5 -4 -6 -42 -2 -92 l6 -85 -32 7 c-30 6 -38 1 -134 -86 -145 -133 -285 -272
-267 -267 8 3 116 38 239 79 206 68 225 76 235 102 12 31 30 34 83 12 48 -20
71 -41 95 -88 21 -41 13 -67 -21 -67 -9 0 -22 -4 -28 -8 -15 -9 -189 -569
-180 -578 4 -4 345 382 385 436 11 15 10 24 -2 55 -9 20 -13 41 -10 46 9 16
162 11 194 -6 26 -14 30 -21 30 -58 0 -24 -6 -52 -14 -62 -7 -10 -11 -27 -8
-37 2 -10 1 -57 -3 -106 -6 -59 -10 -79 -15 -62 -4 15 -7 -7 -7 -52 0 -43 1
-78 2 -78 1 0 10 43 20 95 10 53 19 94 20 93 2 -2 26 -118 55 -258 28 -140 53
-256 54 -258 2 -1 24 107 50 240 26 134 50 250 53 258 3 9 11 -6 19 -35 8 -29
11 -35 8 -15 -3 19 -7 60 -9 90 -4 49 -4 51 5 20 6 -19 11 -70 12 -112 2 -43
6 -78 10 -78 4 0 5 -6 2 -13 -2 -7 0 -31 5 -52 14 -60 13 -17 -4 210 -16 217
-18 244 -16 262 2 20 70 33 134 26 64 -7 63 -4 41 -79 -5 -18 16 -46 103 -144
59 -68 125 -143 146 -168 71 -85 137 -154 137 -143 0 6 -29 104 -64 218 -35
115 -72 237 -82 272 -16 59 -21 65 -56 79 -46 18 -49 41 -13 94 27 40 124 94
150 84 8 -3 15 -16 15 -29 0 -21 18 -29 227 -100 125 -42 229 -74 232 -72 2 3
-36 42 -85 89 -49 46 -129 122 -179 170 -83 80 -93 86 -124 82 l-34 -5 7 79
c10 108 -5 126 -21 25 -7 -44 -15 -96 -19 -115 -6 -35 -5 -36 73 -85 185 -116
293 -188 290 -192 -3 -2 -49 13 -103 32 -55 20 -132 48 -172 63 -73 26 -73 26
-67 58 5 27 0 37 -25 62 -25 26 -30 38 -30 80 0 27 9 75 20 108 23 65 19 108
-10 124 -30 16 -86 12 -111 -9 l-23 -18 28 -48 c24 -39 28 -56 24 -96 -5 -48
-10 -58 -93 -172 -35 -50 -51 -91 -61 -164 -6 -39 1 -56 121 -278 69 -130 125
-239 122 -241 -3 -4 -39 37 -229 268 l-57 69 5 97 c8 131 14 149 89 282 72
127 83 180 46 214 -28 25 -74 18 -82 -14 -23 -82 -29 -123 -20 -138 12 -22
-18 -81 -59 -116 -38 -31 -43 -32 -85 -6 -27 17 -34 30 -45 80 -7 33 -17 57
-21 54 -5 -3 -9 1 -9 8 0 8 16 20 36 27 30 11 38 11 45 0 12 -19 11 -47 -3
-86 -13 -37 -13 -39 23 -48 19 -5 34 0 57 20 41 35 41 62 -3 119 -19 26 -35
49 -35 52 0 4 16 28 36 55 63 86 95 202 59 215 -24 10 -17 49 15 84 26 28 35
31 72 28 37 -3 43 0 46 18 2 11 -7 32 -18 47 -40 50 -123 32 -150 -33 -13 -32
-30 -40 -30 -15 0 8 -13 29 -28 47 -38 41 -85 43 -119 4 -12 -15 -23 -38 -23
-51 0 -23 3 -24 43 -19 36 5 46 2 70 -21 30 -29 35 -56 12 -75 -8 -7 -15 -22
-15 -33 0 -31 -36 -100 -70 -132 l-30 -29 0 27 c0 14 7 30 15 35 14 7 13 11
-4 26 -11 10 -31 19 -44 19 -22 0 -25 5 -30 55 -3 31 -4 58 -3 60 2 2 15 -8
29 -22 15 -14 31 -26 36 -26 18 0 48 40 47 63 -2 23 -3 23 -47 12 -32 -8 -37
2 -31 74 4 46 8 55 33 70 24 14 29 22 28 56 -1 61 -23 180 -34 180 -6 0 -17
-40 -25 -90 l-15 -90 -8 320 c-9 382 -23 691 -27 590z m-83 -752 c0 -374 -1
-423 -8 -268 -4 105 -12 204 -18 220 -11 31 -8 -74 5 -244 4 -51 3 -71 -5 -67
-7 5 -11 -5 -11 -28 0 -20 4 -36 9 -36 5 0 11 -11 13 -24 5 -24 4 -24 -19 -9
-19 13 -23 24 -23 63 0 55 8 82 21 74 14 -8 10 73 -4 88 -17 17 -5 409 17 557
9 58 16 110 16 118 0 7 1 13 3 13 1 0 3 -206 4 -457z m104 -210 c-9 -16 -10
-16 -11 -1 0 9 3 25 7 35 7 16 8 17 11 1 2 -10 -1 -25 -7 -35z m-392 -304 c13
-28 47 -75 77 -104 48 -46 69 -85 46 -85 -4 0 -30 20 -57 44 -51 44 -90 107
-101 164 -10 48 8 38 35 -19z m631 42 c0 -51 -80 -177 -134 -210 -70 -44 -62
-14 18 69 36 37 72 86 82 108 14 38 34 56 34 33z m-283 -48 c-4 -17 -4 -17
-12 0 -4 9 -4 25 0 35 8 16 8 16 12 0 3 -10 3 -26 0 -35z m-87 17 c0 -11 -4
-20 -10 -20 -5 0 -10 9 -10 20 0 11 5 20 10 20 6 0 10 -9 10 -20z m37 -102
c-2 -13 -4 -5 -4 17 -1 22 1 32 4 23 2 -10 2 -28 0 -40z m121 7 c1 -23 -3 -35
-12 -35 -17 0 -28 -42 -20 -75 4 -16 2 -25 -5 -25 -20 0 -23 27 -11 86 19 93
45 119 48 49z m-214 18 c14 -44 26 -128 20 -145 -8 -27 -27 -10 -20 18 8 30
-3 74 -18 74 -6 0 -11 16 -12 35 -1 37 20 49 30 18z m-57 -125 c-3 -8 -6 -5
-6 6 -1 11 2 17 5 13 3 -3 4 -12 1 -19z m270 -110 c-3 -7 -5 -2 -5 12 0 14 2
19 5 13 2 -7 2 -19 0 -25z m48 -86 c-6 -7 -25 72 -24 98 0 14 7 -2 14 -35 7
-33 11 -62 10 -63z m-58 26 c-3 -8 -6 -5 -6 6 -1 11 2 17 5 13 3 -3 4 -12 1
-19z m-171 -8 c16 0 18 -9 4 -30 -9 -13 -11 -13 -20 0 -5 8 -9 24 -9 35 0 11
3 14 6 8 2 -7 11 -13 19 -13z m140 -27 c-5 -12 -9 -13 -21 -3 -17 14 -21 35
-5 25 6 -3 13 2 17 12 7 17 8 17 11 0 2 -10 1 -25 -2 -34z m-179 -5 c-3 -7 -5
-2 -5 12 0 14 2 19 5 13 2 -7 2 -19 0 -25z m-27 -40 c0 -7 3 -24 7 -38 6 -22
5 -24 -10 -11 -18 15 -23 61 -7 61 6 0 10 -6 10 -12z m259 -40 c-7 -13 -14
-18 -16 -11 -3 7 1 22 8 35 7 13 14 18 16 11 3 -7 -1 -22 -8 -35z m-132 -170
c-3 -8 -6 -5 -6 6 -1 11 2 17 5 13 3 -3 4 -12 1 -19z m103 -59 c0 -24 -4 -38
-10 -34 -17 10 -11 75 7 75 2 0 3 -18 3 -41z m-112 -266 c-2 -144 -6 -259 -9
-255 -3 4 -22 93 -43 197 -42 217 -42 257 7 312 23 26 32 31 39 21 5 -7 8
-131 6 -275z"/>
<path d="M1213 615 c0 -33 2 -45 4 -27 2 18 2 45 0 60 -2 15 -4 0 -4 -33z"/>
<path d="M1558 2400 c2 -275 0 -500 -4 -500 -8 0 -67 41 -77 55 -9 12 0 321
14 480 6 61 19 168 30 238 12 71 19 131 16 133 -6 7 -34 -148 -52 -288 -19
-141 -32 -598 -18 -598 5 0 28 -16 50 -35 l41 -35 29 23 c15 13 39 30 52 37
l24 12 -7 232 c-3 127 -13 284 -21 349 -16 139 -64 397 -74 397 -3 0 -5 -225
-3 -500z"/>
<path d="M881 2804 c0 -11 3 -14 6 -6 3 7 2 16 -1 19 -3 4 -6 -2 -5 -13z"/>
<path d="M1143 2595 c0 -33 2 -45 4 -27 2 18 2 45 0 60 -2 15 -4 0 -4 -33z"/>
<path d="M1293 2500 c0 -25 2 -35 4 -22 2 12 2 32 0 45 -2 12 -4 2 -4 -23z"/>
<path d="M1292 2420 c0 -14 2 -19 5 -12 2 6 2 18 0 25 -3 6 -5 1 -5 -13z"/>
<path d="M1103 860 c0 -25 2 -35 4 -22 2 12 2 32 0 45 -2 12 -4 2 -4 -23z"/>
<path d="M1093 720 c0 -25 2 -35 4 -22 2 12 2 32 0 45 -2 12 -4 2 -4 -23z"/>
<path d="M1072 440 c0 -14 2 -19 5 -12 2 6 2 18 0 25 -3 6 -5 1 -5 -13z"/>
</g>
</svg>
