<?xml version="1.0" standalone="no"?>
<!DOCTYPE svg PUBLIC "-//W3C//DTD SVG 20010904//EN"
 "http://www.w3.org/TR/2001/REC-SVG-20010904/DTD/svg10.dtd">
<svg version="1.0" xmlns="http://www.w3.org/2000/svg"
 width="244.000000pt" height="305.000000pt" viewBox="0 0 244.000000 305.000000"
 preserveAspectRatio="xMidYMid meet">
<metadata>
Created by potrace 1.16, written by Peter Selinger 2001-2019
</metadata>
<g transform="translate(0.000000,305.000000) scale(0.100000,-0.100000)"
fill="#000000" stroke="none">
<path d="M882 2798 c-39 -201 -52 -310 -57 -453 l-4 -140 13 151 c16 170 54
448 66 479 5 11 9 -195 9 -457 1 -263 -2 -478 -5 -478 -3 0 -23 15 -46 33
l-41 32 7 113 c4 72 3 112 -4 112 -6 0 -10 -51 -10 -133 l0 -133 30 -18 c17
-9 39 -27 50 -39 l20 -21 33 31 c17 16 40 33 50 36 15 6 17 22 17 144 0 200
-18 451 -41 583 -29 171 -51 270 -59 270 -3 0 -16 -51 -28 -112z"/>
<path d="M1550 2888 c0 -9 -3 -25 -6 -35 -5 -15 -4 -15 5 -3 8 11 11 -120 11
-467 0 -266 -3 -483 -7 -483 -4 0 -24 12 -45 26 l-38 27 0 126 c0 186 17 393
46 579 14 90 23 166 21 168 -6 6 -36 -159 -52 -287 -19 -146 -39 -583 -28
-602 4 -8 29 -31 55 -50 l46 -35 23 24 c12 13 28 24 35 24 7 0 20 7 28 16 14
13 16 36 11 152 -12 336 -28 505 -66 699 -20 104 -38 160 -39 121z"/>
<path d="M1141 2835 c-1 -33 -2 -256 -2 -495 0 -264 -3 -427 -9 -415 -5 11 -9
34 -10 50 -1 34 -22 121 -32 130 -8 8 -15 -15 -28 -95 -16 -104 -14 -125 15
-138 15 -7 25 -20 25 -32 0 -26 -6 -25 -43 6 -22 19 -37 24 -56 19 -44 -11
-68 -32 -75 -67 -7 -30 -9 -31 -19 -14 -46 73 -88 96 -138 76 -27 -12 -55 -63
-43 -81 3 -5 22 -9 42 -9 44 0 76 -20 97 -59 13 -26 13 -31 -5 -51 -11 -13
-20 -31 -20 -40 0 -38 30 -113 69 -171 23 -34 41 -64 41 -68 0 -3 -14 -22 -30
-41 -36 -42 -44 -63 -36 -96 13 -51 110 -71 127 -26 11 29 11 54 -1 27 -7 -18
-9 -18 -19 10 -17 42 -6 75 24 75 14 0 25 -5 25 -11 0 -5 5 -7 10 -4 14 8 13
-64 -1 -104 -12 -33 -49 -63 -49 -39 0 7 -7 2 -16 -10 -22 -32 -42 -27 -91 23
-39 41 -43 51 -43 93 0 26 -3 74 -7 107 -8 58 -9 60 -40 63 -73 7 -93 -66 -45
-159 16 -30 50 -94 76 -143 61 -114 59 -126 -49 -316 -45 -80 -95 -170 -112
-200 -48 -88 -75 -131 -79 -127 -2 2 18 75 46 163 91 292 79 266 128 282 49
16 63 40 64 112 1 51 -17 92 -73 166 -74 97 -86 157 -43 230 26 43 26 45 8 65
-14 16 -28 19 -68 17 -43 -3 -53 -7 -65 -30 -14 -24 -13 -33 7 -96 47 -146 33
-170 -163 -284 -33 -20 -91 -54 -128 -77 -38 -23 -76 -45 -85 -47 -10 -3 46
56 123 131 l140 136 41 -6 c51 -7 55 3 43 107 -4 40 -8 79 -9 86 0 6 -5 12
-11 12 -9 0 -10 -25 -5 -91 l7 -90 -33 6 c-31 5 -39 -1 -118 -77 -47 -46 -130
-125 -184 -176 -54 -51 -96 -95 -94 -97 3 -3 322 102 426 141 27 10 42 22 42
33 0 33 19 40 67 24 54 -19 109 -71 118 -112 8 -38 3 -47 -34 -54 -28 -6 -31
-13 -69 -134 -76 -241 -134 -444 -129 -449 2 -2 22 17 43 43 21 26 77 90 123
143 46 52 93 106 105 120 11 14 43 51 69 82 48 56 48 57 37 99 -7 25 -8 45 -2
51 5 5 42 8 83 6 l74 -3 6 -40 6 -40 2 38 c1 26 5 37 14 34 15 -5 14 -38 -2
-137 -6 -41 -17 -110 -23 -153 -6 -43 -14 -73 -18 -67 -4 6 -10 -24 -13 -67
-3 -42 -5 -79 -3 -80 1 -2 18 60 37 138 22 95 36 135 41 122 4 -10 30 -135 58
-278 28 -142 52 -260 54 -262 1 -1 26 120 55 270 63 322 56 298 69 267 7 -19
8 -8 5 45 -3 39 -11 80 -19 92 -16 25 -18 71 -5 92 8 12 11 10 15 -10 13 -57
54 -362 50 -373 -2 -6 2 -39 10 -71 20 -82 19 -46 -4 210 -27 303 -33 271 46
278 70 7 109 -4 100 -28 -2 -7 -8 -29 -11 -47 -6 -31 1 -41 117 -173 68 -77
152 -175 187 -218 35 -43 66 -75 68 -73 5 5 -39 161 -115 406 -47 153 -48 155
-85 173 -42 20 -41 17 -23 61 18 43 51 74 104 98 50 23 72 18 72 -14 0 -21 20
-30 218 -97 119 -41 224 -76 232 -79 8 -2 -66 75 -165 172 -173 169 -181 176
-213 170 l-34 -5 7 90 c9 115 -6 120 -23 9 -7 -46 -15 -96 -18 -113 -5 -29 -1
-33 181 -150 102 -66 182 -121 177 -123 -9 -3 -29 4 -240 84 l-103 38 6 33 c5
28 1 37 -21 56 -37 32 -43 95 -15 185 26 86 26 97 1 122 -27 27 -93 27 -120 0
l-20 -20 25 -40 c30 -47 33 -115 9 -163 -9 -17 -38 -59 -64 -93 -33 -43 -52
-79 -59 -114 -20 -93 -15 -117 53 -245 123 -234 158 -300 168 -312 5 -7 8 -17
6 -22 -3 -9 -111 115 -231 267 -58 73 -59 74 -49 115 6 23 8 54 5 68 -10 55
15 134 81 251 55 96 66 124 66 162 0 37 -4 48 -24 62 -14 8 -35 14 -47 12 -19
-2 -25 -13 -36 -68 -7 -36 -11 -81 -8 -100 6 -36 -4 -56 -56 -113 -25 -28 -55
-29 -67 -2 -10 21 -8 24 23 29 34 7 75 46 75 71 0 7 -16 36 -35 65 -19 29 -35
55 -35 59 0 4 12 23 26 42 65 85 94 200 59 229 -23 19 -18 39 20 77 29 29 40
34 71 31 41 -3 50 7 40 48 -4 16 -19 30 -42 40 -31 13 -38 13 -69 -2 -23 -11
-39 -27 -47 -50 -6 -19 -15 -34 -19 -34 -4 0 -16 17 -26 38 -10 20 -31 43 -47
51 -25 12 -33 11 -62 -3 -19 -8 -34 -21 -34 -28 0 -7 -6 -4 -12 6 -9 16 -7 22
14 37 23 17 24 20 16 106 -4 48 -10 98 -13 111 -7 28 -25 20 -25 -11 0 -18 -2
-19 -10 -7 -6 9 -10 125 -11 270 -1 140 -5 302 -9 360 -4 66 -7 -62 -8 -349
-1 -250 -5 -452 -8 -448 -4 3 -10 91 -14 194 -9 194 -27 330 -59 443 -21 76
-21 76 -56 -93 -13 -62 -24 -105 -24 -97 -1 8 -4 89 -7 180 -4 91 -10 210 -14
265 -6 83 -8 90 -9 40z m86 -337 c-3 -8 -6 -5 -6 6 -1 11 2 17 5 13 3 -3 4
-12 1 -19z m2 -512 c0 -203 -1 -367 -4 -364 -4 3 -7 140 -8 304 -1 269 -2 281
-7 124 -6 -171 -6 -172 -9 -60 l-4 115 -10 -100 c-6 -71 -6 -109 2 -131 14
-39 15 -158 1 -149 -6 4 -10 -8 -10 -29 0 -38 16 -57 23 -29 3 10 5 4 6 -14 1
-26 -2 -30 -19 -26 -17 5 -20 14 -20 69 0 34 5 66 10 69 6 3 10 24 10 45 0 21
-4 42 -10 45 -20 12 -9 291 21 525 l14 105 6 -65 c4 -36 7 -231 8 -434z m-110
-232 c3 -3 -3 -12 -12 -21 -14 -15 -20 -15 -42 -3 -33 18 -40 9 -26 -33 14
-42 36 -53 67 -32 30 20 38 19 29 -2 -5 -10 -8 -31 -9 -48 -1 -21 -7 -31 -21
-33 -31 -6 -45 -22 -45 -51 -1 -26 -1 -26 -35 12 -20 23 -36 54 -40 77 -4 21
-13 44 -21 51 -21 18 -17 43 13 74 26 25 31 26 83 20 30 -4 57 -9 59 -11z
m375 -15 c31 -36 32 -50 8 -72 -10 -9 -19 -31 -20 -49 -3 -32 -45 -98 -63 -98
-6 0 -8 4 -5 8 9 14 -24 52 -45 52 -15 0 -19 7 -19 34 0 19 -3 43 -7 53 -6 17
-6 17 14 1 11 -10 25 -18 31 -18 16 0 42 41 42 67 0 24 -14 31 -25 13 -10 -16
-42 -12 -49 6 -9 25 -2 29 57 32 51 2 57 0 81 -29z m-550 -172 c14 -30 42 -70
62 -91 24 -24 34 -44 32 -59 -3 -21 -5 -20 -37 13 -48 50 -79 103 -90 150 -12
56 2 50 33 -13z m383 21 c-3 -7 -5 -2 -5 12 0 14 2 19 5 13 2 -7 2 -19 0 -25z
m213 -60 c-22 -42 -96 -128 -112 -128 -21 0 -4 37 38 84 26 28 56 71 67 96 20
42 21 43 25 18 2 -14 -7 -46 -18 -70z m-393 60 c-3 -8 -6 -5 -6 6 -1 11 2 17
5 13 3 -3 4 -12 1 -19z m47 13 c8 -13 -4 -42 -15 -35 -12 7 -12 44 0 44 6 0
12 -4 15 -9z m107 -4 c-1 -4 -1 -14 -1 -22 0 -8 -4 -15 -9 -15 -12 0 -23 29
-15 41 6 11 26 8 25 -4z m-161 -128 c0 -27 -2 -28 -20 -17 -15 10 -20 23 -20
53 l1 40 19 -24 c11 -13 20 -36 20 -52z m240 26 c0 -24 -5 -35 -15 -35 -8 0
-15 -4 -15 -10 0 -5 -4 -10 -10 -10 -13 0 -13 31 0 64 15 39 40 33 40 -9z
m-143 -12 c-3 -10 -5 -4 -5 12 0 17 2 24 5 18 2 -7 2 -21 0 -30z m-180 -85
c-3 -7 -5 -2 -5 12 0 14 2 19 5 13 2 -7 2 -19 0 -25z m330 -10 c-3 -8 -6 -5
-6 6 -1 11 2 17 5 13 3 -3 4 -12 1 -19z m-242 -28 c-6 -9 -9 -9 -16 1 -10 17
0 34 13 21 6 -6 7 -16 3 -22z m201 4 c-5 -14 -9 -15 -19 -5 -9 9 -9 14 3 21
18 11 24 6 16 -16z m134 -48 c10 -26 3 -66 -11 -66 -5 0 -12 14 -16 31 -4 22
-8 27 -14 17 -6 -9 -9 -7 -9 9 0 19 11 30 33 32 4 1 12 -10 17 -23z m-303 -8
c-3 -8 -6 -5 -6 6 -1 11 2 17 5 13 3 -3 4 -12 1 -19z m120 0 c-3 -8 -6 -5 -6
6 -1 11 2 17 5 13 3 -3 4 -12 1 -19z m141 -110 c6 -16 8 -28 3 -28 -15 0 -31
60 -30 109 l2 46 7 -50 c4 -27 12 -62 18 -77z m-330 37 c0 -16 -2 -15 -8 5 -4
14 -8 34 -8 45 0 16 2 15 8 -5 4 -14 8 -34 8 -45z m267 10 c-3 -26 -9 -45 -12
-42 -2 3 -1 26 2 52 4 25 10 44 12 41 3 -3 2 -26 -2 -51z m-206 -35 c9 12 11
12 17 -3 7 -20 -11 -47 -32 -47 -8 0 -14 6 -14 13 0 6 -3 23 -6 37 -6 24 -6
25 10 5 13 -17 17 -18 25 -5z m157 -3 c14 19 17 11 8 -24 -4 -13 -12 -23 -19
-23 -20 0 -38 28 -30 47 6 17 7 17 17 0 9 -18 10 -18 24 0z m-209 -39 c-3 -7
-5 -2 -5 12 0 14 2 19 5 13 2 -7 2 -19 0 -25z m240 -10 c-3 -8 -6 -5 -6 6 -1
11 2 17 5 13 3 -3 4 -12 1 -19z m-120 -240 c-3 -8 -6 -5 -6 6 -1 11 2 17 5 13
3 -3 4 -12 1 -19z m-74 -43 c4 -8 2 -17 -3 -20 -6 -4 -10 3 -10 14 0 25 6 27
13 6z m157 -6 c0 -11 -4 -18 -10 -14 -5 3 -7 12 -3 20 7 21 13 19 13 -6z m-92
-205 c1 -109 -1 -226 -5 -258 l-8 -60 -34 170 c-46 226 -50 256 -41 279 10 27
61 76 74 72 7 -2 12 -71 14 -203z"/>
<path d="M1202 800 c0 -14 2 -19 5 -12 2 6 2 18 0 25 -3 6 -5 1 -5 -13z"/>
<path d="M1203 715 c0 -33 2 -45 4 -27 2 18 2 45 0 60 -2 15 -4 0 -4 -33z"/>
<path d="M1213 550 c0 -36 2 -50 4 -32 2 17 2 47 0 65 -2 17 -4 3 -4 -33z"/>
<path d="M1313 2720 c0 -25 2 -35 4 -22 2 12 2 32 0 45 -2 12 -4 2 -4 -23z"/>
<path d="M1122 2490 c0 -19 2 -27 5 -17 2 9 2 25 0 35 -3 9 -5 1 -5 -18z"/>
<path d="M1304 2425 c0 -49 1 -71 3 -48 2 23 2 64 0 90 -2 26 -3 8 -3 -42z"/>
<path d="M1122 2410 c0 -19 2 -27 5 -17 2 9 2 25 0 35 -3 9 -5 1 -5 -18z"/>
<path d="M1027 1293 c-11 -10 -8 -20 8 -27 10 -4 15 1 15 14 0 20 -11 26 -23
13z"/>
<path d="M1073 785 c0 -27 2 -38 4 -22 2 15 2 37 0 50 -2 12 -4 0 -4 -28z"/>
<path d="M1062 670 c0 -19 2 -27 5 -17 2 9 2 25 0 35 -3 9 -5 1 -5 -18z"/>
<path d="M1371 634 c0 -11 3 -14 6 -6 3 7 2 16 -1 19 -3 4 -6 -2 -5 -13z"/>
<path d="M1382 590 c0 -14 2 -19 5 -12 2 6 2 18 0 25 -3 6 -5 1 -5 -13z"/>
</g>
</svg>
