<?xml version="1.0" standalone="no"?>
<!DOCTYPE svg PUBLIC "-//W3C//DTD SVG 20010904//EN"
 "http://www.w3.org/TR/2001/REC-SVG-20010904/DTD/svg10.dtd">
<svg version="1.0" xmlns="http://www.w3.org/2000/svg"
 width="244.000000pt" height="305.000000pt" viewBox="0 0 244.000000 305.000000"
 preserveAspectRatio="xMidYMid meet">
<metadata>
Created by potrace 1.16, written by Peter Selinger 2001-2019
</metadata>
<g transform="translate(0.000000,305.000000) scale(0.100000,-0.100000)"
fill="#000000" stroke="none">
<path d="M941 2893 c-1 -12 -4 -29 -8 -39 -4 -12 -3 -15 5 -10 9 5 12 -107 12
-463 0 -258 -3 -472 -8 -475 -4 -2 -22 9 -40 25 l-32 29 0 123 c0 161 17 415
36 550 8 59 14 113 11 120 -6 19 -36 -197 -46 -338 -6 -71 -11 -211 -13 -310
l-3 -180 28 -13 c15 -7 33 -22 40 -33 16 -25 29 -24 57 6 27 29 55 32 64 9 4
-9 5 -18 4 -18 -2 -1 -16 -6 -33 -12 -28 -9 -45 -32 -60 -79 -6 -18 -9 -16
-23 14 -23 47 -63 75 -95 67 -37 -9 -57 -33 -57 -67 0 -27 3 -29 39 -29 32 0
44 -6 65 -31 28 -33 33 -58 15 -76 -6 -6 -9 -31 -6 -60 2 -26 10 -101 17 -167
11 -107 7 -216 -7 -202 -3 3 -5 47 -5 98 1 51 -3 102 -8 113 -5 11 -9 15 -9 9
-1 -6 -11 -9 -25 -7 -64 13 -87 -45 -56 -137 22 -65 24 -80 12 -80 -17 0 -54
83 -59 134 -5 44 -2 61 16 89 11 19 21 42 21 50 0 23 -35 39 -78 35 -27 -2
-40 -10 -51 -30 -14 -24 -13 -32 3 -85 21 -65 23 -131 6 -172 -12 -30 -69 -74
-235 -182 -129 -85 -134 -87 -110 -59 31 36 43 49 149 159 95 98 100 102 132
96 39 -7 37 -11 34 88 -3 110 -19 138 -18 32 l1 -90 -28 3 c-18 2 -33 -4 -47
-20 -11 -13 -74 -79 -140 -148 -160 -166 -172 -179 -167 -185 3 -2 59 16 125
41 65 25 142 53 169 64 105 38 125 50 125 70 0 24 21 35 53 26 52 -14 52 -19
7 -101 -23 -42 -40 -79 -37 -82 3 -2 33 14 67 37 41 28 65 39 72 32 16 -16 0
-47 -29 -58 -30 -11 -35 -27 -152 -469 -25 -94 -31 -132 -18 -114 2 2 48 62
103 134 55 72 124 162 154 202 30 40 56 71 58 69 2 -2 -4 -48 -13 -102 -32
-207 -43 -279 -39 -283 2 -2 7 5 10 15 4 10 27 64 52 119 110 246 130 301 125
349 -3 25 -2 46 1 46 26 0 96 -56 96 -76 0 -7 -12 -26 -26 -43 -29 -34 -29
-31 0 -181 8 -47 32 -177 52 -290 20 -113 37 -206 38 -208 2 -1 8 26 14 60 6
35 31 182 56 327 l45 265 -25 33 c-30 40 -26 60 19 90 53 36 61 31 53 -30 -4
-41 -1 -63 13 -93 10 -21 33 -73 51 -114 41 -93 85 -192 110 -245 16 -34 19
-36 19 -15 0 14 -13 103 -28 197 -15 95 -25 173 -22 173 3 -1 34 -38 67 -83
105 -140 214 -281 230 -297 13 -13 14 -12 5 15 -5 17 -35 129 -66 250 -69 271
-81 305 -105 305 -23 0 -42 23 -34 44 3 9 9 16 13 16 4 0 41 -22 82 -49 40
-27 76 -48 77 -46 2 2 -17 41 -42 88 -25 46 -46 89 -46 94 0 13 58 38 68 29 3
-4 7 -17 7 -28 0 -18 19 -29 115 -66 63 -24 155 -59 204 -78 49 -19 90 -33 92
-32 3 4 -41 53 -206 228 -102 109 -117 121 -141 116 l-28 -5 6 92 c7 106 -2
112 -17 11 -6 -38 -13 -87 -16 -109 l-6 -40 165 -120 c91 -66 164 -121 162
-123 -7 -7 -315 124 -315 134 0 3 4 14 10 24 7 14 3 26 -20 55 -36 45 -37 73
-10 184 21 82 18 112 -14 133 -20 14 -64 8 -87 -11 l-24 -20 23 -40 c36 -65
25 -171 -21 -210 -15 -12 -17 -11 -17 7 0 11 7 36 15 55 31 75 14 122 -48 136
l-37 9 0 -52 c0 -28 -7 -69 -16 -91 l-15 -40 7 55 c3 30 8 89 10 130 2 41 7
99 10 128 6 42 3 56 -10 71 -23 25 -14 52 26 86 22 18 40 25 62 23 29 -3 31
-1 28 27 -8 70 -80 89 -126 34 -14 -17 -26 -37 -26 -45 0 -28 -18 -13 -24 20
-8 44 -38 70 -71 62 -28 -7 -30 -4 -15 25 15 27 37 24 71 -11 30 -29 30 -29
47 -9 9 11 30 27 46 36 l28 15 -6 221 c-8 248 -26 448 -57 624 -25 143 -30
154 -43 83 -4 -26 -3 -30 3 -15 6 13 10 -156 10 -457 1 -263 -3 -478 -7 -478
-5 0 -19 12 -33 26 -23 25 -24 31 -27 200 -2 97 2 235 8 307 21 242 20 235 11
204 -5 -15 -13 -62 -17 -105 -8 -77 -8 -76 -25 123 -10 110 -18 211 -18 224
-1 13 -4 22 -7 18 -3 -3 -6 -218 -6 -479 0 -451 -1 -469 -15 -393 -8 44 -18
139 -22 210 l-7 130 -3 -165 c-1 -91 -6 -183 -10 -205 -8 -39 -8 -38 -16 33
-4 39 -12 72 -16 72 -5 0 -9 24 -9 53 -1 116 -52 458 -67 443 -18 -18 -63
-313 -63 -416 0 -38 -4 -72 -10 -75 -5 -3 -10 -32 -11 -63 -1 -31 -4 -68 -8
-82 -9 -30 -18 86 -26 340 -7 207 -24 469 -35 525 -4 22 -8 -173 -9 -432 -1
-392 -3 -473 -15 -473 -10 0 -15 41 -20 200 -4 109 -6 248 -3 307 2 59 2 81
-2 48 -6 -60 -6 -59 -20 60 -24 211 -68 436 -70 358z m289 -854 c0 -383 -2
-429 -15 -415 -12 12 -15 53 -17 228 -1 169 -3 192 -8 113 l-6 -100 -2 136
c-1 75 1 172 6 215 l7 79 6 -80 c6 -74 6 -71 5 32 0 61 2 106 6 100 4 -7 8 18
8 56 0 37 2 67 5 67 3 0 5 -194 5 -431z m-130 -179 c0 -5 -4 -10 -10 -10 -5 0
-10 5 -10 10 0 6 5 10 10 10 6 0 10 -4 10 -10z m290 0 c0 -5 -4 -10 -10 -10
-5 0 -10 5 -10 10 0 6 5 10 10 10 6 0 10 -4 10 -10z m-20 -127 c0 -24 -25 -9
-28 17 -3 21 -2 22 12 11 9 -7 16 -20 16 -28z m-326 -21 c3 -15 1 -56 -3 -92
-7 -62 -8 -64 -19 -37 -7 16 -12 39 -12 51 0 13 -7 29 -15 36 -19 16 -19 35 1
66 19 29 40 19 48 -24z m86 41 c0 -14 -19 -38 -25 -32 -8 8 5 39 16 39 5 0 9
-3 9 -7z m348 -30 c7 -20 6 -35 -4 -53 -7 -14 -16 -42 -19 -62 -6 -40 -28 -54
-23 -15 1 12 -1 40 -5 62 -14 74 29 131 51 68z m-288 -59 c0 -19 -4 -33 -8
-30 -8 5 -4 66 4 66 2 0 4 -16 4 -36z m-30 -35 c0 -9 8 -19 18 -21 10 -3 26
-22 36 -42 9 -20 19 -36 21 -36 3 0 11 15 19 34 8 19 24 39 35 46 12 6 21 17
21 24 0 8 6 19 14 25 11 9 18 8 30 -4 19 -19 19 -17 6 -49 -8 -22 -16 -26 -49
-26 -41 0 -47 -8 -70 -90 -6 -25 -9 -28 -10 -13 -1 13 -8 41 -17 63 -14 33
-21 40 -44 40 -47 0 -60 10 -60 44 0 42 19 62 36 38 8 -9 14 -24 14 -33z
m-183 -61 c16 -35 48 -85 71 -111 46 -52 57 -85 23 -67 -11 5 -28 24 -38 40
-9 17 -23 30 -29 30 -6 0 -15 16 -18 35 -4 19 -10 35 -15 35 -12 0 -31 47 -31
75 0 14 2 25 4 25 2 0 17 -28 33 -62z m126 -61 c10 -22 16 -44 14 -50 -6 -20
-40 69 -42 113 -2 41 -2 42 4 10 4 -19 15 -52 24 -73z m298 81 c-3 -21 -6 -26
-9 -15 -3 17 3 47 11 47 2 0 1 -15 -2 -32z m123 -6 c-4 -15 -13 -34 -20 -43
-8 -8 -14 -23 -14 -31 0 -15 -28 -53 -79 -107 -46 -48 -34 -2 17 67 47 62 61
89 76 135 9 28 27 9 20 -21z m-149 -98 c-24 -37 -31 -21 -9 23 13 28 19 33 22
20 2 -10 -4 -29 -13 -43z m-210 5 c10 -30 0 -33 -13 -4 -6 14 -7 25 -2 25 5 0
12 -9 15 -21z m153 -5 c-7 -15 -14 -21 -16 -15 -2 7 2 18 8 26 18 22 21 18 8
-11z m202 -97 c0 -12 -5 -29 -10 -37 -7 -11 -10 -3 -10 28 0 26 4 41 10 37 6
-3 10 -16 10 -28z m-548 -19 c-10 -22 -11 -21 -11 12 -1 26 2 31 11 22 8 -8 8
-17 0 -34z m214 -6 c-9 -8 -26 10 -26 26 1 15 2 15 15 -2 8 -11 13 -21 11 -24z
m124 19 c0 -6 -4 -13 -10 -16 -5 -3 -10 1 -10 9 0 9 5 16 10 16 6 0 10 -4 10
-9z m-251 -101 c-1 -36 4 -56 16 -70 28 -31 46 -9 38 46 -6 44 -6 44 26 44 31
0 31 0 11 -20 -23 -23 -17 -48 16 -61 17 -6 24 -16 24 -34 0 -25 -14 -33 -25
-15 -4 6 -15 8 -26 5 -33 -11 -75 4 -88 31 -14 31 -15 124 -1 124 5 0 9 -23 9
-50z m373 18 c4 -43 -7 -98 -24 -113 -7 -7 -39 -15 -71 -17 -57 -5 -58 -4 -55
21 2 18 10 27 24 29 14 2 24 12 26 27 6 27 0 39 -22 48 -8 3 0 6 18 6 33 1 33
0 32 -41 -3 -62 -1 -68 13 -68 22 0 42 49 40 96 -2 51 14 60 19 12z m135 -49
c2 -16 -1 -19 -9 -11 -5 5 -7 15 -4 21 10 15 12 14 13 -10z m-707 -72 c0 -5
-7 -4 -15 3 -8 7 -15 20 -15 29 1 13 3 13 15 -3 8 -11 15 -24 15 -29z m165 3
c3 -5 1 -10 -4 -10 -6 0 -11 5 -11 10 0 6 2 10 4 10 3 0 8 -4 11 -10z m580
-29 c-4 -17 -11 -31 -16 -31 -11 0 -11 0 2 39 14 39 23 34 14 -8z m-815 -53
c0 -7 -16 -31 -36 -53 l-35 -40 27 53 c26 50 44 66 44 40z m788 -65 c-2 -67
-1 -70 105 -292 59 -123 105 -226 103 -228 -3 -4 -211 273 -233 311 -12 21
-10 217 2 257 13 41 25 16 23 -48z m133 36 c13 -17 33 -45 43 -61 l20 -31 -52
38 c-59 42 -66 50 -58 70 8 22 21 18 47 -16z m-800 -1 c5 -65 -11 -108 -124
-334 -66 -134 -123 -242 -125 -240 -2 2 10 53 27 113 16 59 43 155 58 213 29
104 29 105 70 124 43 20 63 59 63 120 0 33 29 36 31 4z m335 -113 c10 14 14
15 14 4 -1 -16 -28 -55 -34 -48 -2 2 -7 18 -11 34 -5 26 -5 28 6 11 12 -19 12
-19 25 -1z m202 -48 c27 -87 112 -395 112 -403 -1 -12 -27 45 -95 206 -52 125
-56 139 -50 188 7 57 18 60 33 9z m-418 21 c0 -21 -119 -425 -119 -407 -1 8 3
40 8 70 6 30 20 117 32 194 12 77 23 143 26 148 7 12 53 8 53 -5z m-73 -20
c-3 -8 -6 -5 -6 6 -1 11 2 17 5 13 3 -3 4 -12 1 -19z m271 -426 l-3 -137 -22
221 -23 222 23 49 22 50 3 -134 c1 -73 1 -195 0 -271z m-49 336 c-11 -20 -1
-194 18 -308 3 -19 3 -33 0 -30 -5 5 -38 174 -54 275 -3 21 2 39 17 58 26 32
35 35 19 5z"/>
<path d="M921 2804 c0 -11 3 -14 6 -6 3 7 2 16 -1 19 -3 4 -6 -2 -5 -13z"/>
<path d="M1382 2775 c0 -16 2 -22 5 -12 2 9 2 23 0 30 -3 6 -5 -1 -5 -18z"/>
<path d="M1485 2745 c-3 -31 -5 -59 -2 -61 3 -3 8 20 12 51 3 31 5 59 2 61 -3
3 -8 -20 -12 -51z"/>
<path d="M1052 2755 c0 -16 2 -22 5 -12 2 9 2 23 0 30 -3 6 -5 -1 -5 -18z"/>
<path d="M1373 2650 c0 -25 2 -35 4 -22 2 12 2 32 0 45 -2 12 -4 2 -4 -23z"/>
<path d="M1043 2645 c0 -22 2 -30 4 -17 2 12 2 30 0 40 -3 9 -5 -1 -4 -23z"/>
<path d="M1363 2505 c0 -27 2 -38 4 -22 2 15 2 37 0 50 -2 12 -4 0 -4 -28z"/>
</g>
</svg>
