<?xml version="1.0" standalone="no"?>
<!DOCTYPE svg PUBLIC "-//W3C//DTD SVG 20010904//EN"
 "http://www.w3.org/TR/2001/REC-SVG-20010904/DTD/svg10.dtd">
<svg version="1.0" xmlns="http://www.w3.org/2000/svg"
 width="244.000000pt" height="305.000000pt" viewBox="0 0 244.000000 305.000000"
 preserveAspectRatio="xMidYMid meet">
<metadata>
Created by potrace 1.16, written by Peter Selinger 2001-2019
</metadata>
<g transform="translate(0.000000,305.000000) scale(0.100000,-0.100000)"
fill="#000000" stroke="none">
<path d="M928 2904 c-14 -21 -47 -217 -67 -389 -11 -100 -22 -270 -24 -383
l-4 -203 26 -17 c14 -8 38 -27 53 -40 26 -24 26 -24 37 -3 15 27 47 44 71 36
30 -10 24 -30 -12 -40 -25 -8 -38 -21 -53 -52 -11 -23 -22 -42 -25 -43 -4 0
-12 16 -19 36 -25 70 -119 83 -149 20 -20 -40 -9 -56 36 -56 29 0 45 -7 64
-27 35 -38 43 -69 22 -81 -17 -10 -17 -22 6 -207 17 -133 15 -210 -5 -210 -6
0 -9 7 -7 15 1 8 2 48 2 89 -1 81 -12 100 -61 101 -58 0 -75 -68 -39 -149 37
-80 18 -100 -26 -26 -40 70 -43 117 -8 182 28 53 29 54 10 69 -30 21 -99 18
-121 -6 -20 -22 -18 -53 10 -150 21 -72 13 -133 -22 -160 -21 -17 -24 -25 -19
-54 l7 -34 -167 -66 c-92 -37 -169 -65 -171 -62 -2 2 49 40 114 84 222 150
243 166 243 183 0 10 -7 44 -15 76 -8 31 -15 78 -15 103 -1 37 -2 42 -11 26
-8 -12 -9 -46 -5 -97 l7 -79 -28 6 c-26 5 -44 -10 -206 -171 -99 -97 -177
-179 -174 -181 2 -2 53 13 113 35 349 125 329 116 332 145 2 17 9 26 21 26 29
0 81 -21 81 -33 0 -6 -19 -42 -41 -79 -23 -38 -39 -71 -37 -74 3 -3 35 14 72
37 37 23 68 40 70 38 2 -2 6 -13 8 -24 2 -15 -6 -24 -30 -34 -36 -16 -27 6
-123 -326 -59 -207 -71 -256 -66 -261 2 -3 44 46 93 106 49 61 107 133 129
159 22 26 55 66 74 89 19 23 36 40 38 38 4 -4 -39 -301 -51 -359 -2 -9 0 -15
5 -11 5 3 9 9 9 13 0 5 29 69 65 144 126 266 127 267 120 320 -4 27 -3 47 3
47 21 0 74 -33 89 -56 15 -24 15 -26 -15 -57 l-30 -32 29 -160 c43 -243 92
-495 95 -492 3 3 48 239 99 522 l23 130 -29 30 c-16 17 -29 36 -29 41 0 17 54
61 84 68 l28 7 -6 -53 c-7 -50 -4 -60 47 -168 107 -225 147 -312 147 -321 0
-4 4 -10 9 -13 5 -4 7 2 5 11 -2 10 -15 90 -29 178 -14 88 -28 176 -31 195
l-6 34 44 -53 c24 -29 79 -96 123 -149 45 -53 100 -121 123 -150 23 -30 42
-48 42 -40 0 8 -16 70 -36 138 -20 69 -40 143 -45 165 -12 48 -57 199 -71 236
-6 18 -19 29 -39 33 -23 4 -29 11 -29 31 0 33 11 32 73 -8 129 -83 130 -82 62
30 -25 40 -45 80 -45 87 0 13 41 36 65 36 9 0 15 -10 15 -25 0 -29 12 -35 155
-85 50 -18 132 -47 184 -66 51 -19 95 -33 97 -31 2 2 -74 83 -169 179 -146
150 -175 175 -192 168 -11 -5 -23 -9 -27 -9 -4 -1 -5 39 -1 89 4 65 3 90 -6
90 -6 0 -11 -13 -11 -28 0 -16 -3 -64 -6 -106 l-7 -77 43 7 42 7 127 -132 c70
-72 123 -131 118 -131 -13 0 -308 190 -336 216 -32 30 -39 105 -17 170 38 113
-3 170 -98 134 -32 -12 -33 -32 -4 -78 29 -48 27 -110 -7 -167 -36 -63 -63
-60 -31 3 22 43 28 104 13 132 -9 19 -21 25 -46 26 -18 0 -36 6 -40 13 -5 7
-11 -19 -14 -61 -9 -98 -16 -151 -24 -158 -3 -3 -2 40 2 95 5 55 10 125 12
155 3 30 7 78 10 106 3 38 1 53 -11 63 -23 20 -20 36 16 77 28 31 36 35 65 31
40 -7 50 8 36 50 -22 65 -120 57 -145 -13 -7 -19 -14 -34 -18 -34 -3 0 -13 20
-23 45 -19 46 -42 61 -77 50 -23 -7 -25 -2 -10 26 14 26 33 24 70 -8 26 -22
35 -24 49 -15 9 7 31 22 49 33 l32 21 0 126 c0 188 -18 442 -39 572 -23 137
-27 109 -6 -39 16 -115 35 -396 35 -537 l0 -92 -34 -26 c-19 -14 -37 -26 -41
-26 -3 0 -5 223 -5 496 1 273 -1 498 -3 500 -10 10 -67 -326 -67 -393 0 -17
-4 -35 -10 -38 -6 -4 -10 14 -10 47 0 62 -32 400 -37 394 -2 -2 -4 -215 -5
-472 0 -352 -3 -452 -10 -401 -9 55 -14 67 -29 67 -17 0 -19 -8 -20 -62 -1
-84 -17 -125 -19 -48 0 30 -5 75 -10 100 -6 25 -14 96 -20 158 -12 142 -54
361 -67 349 -16 -17 -55 -260 -67 -417 -3 -36 -10 -81 -16 -100 -5 -19 -10
-60 -11 -90 -1 -47 -2 -51 -9 -26 -5 16 -14 160 -20 320 -6 160 -17 352 -25
426 -8 74 -15 144 -15 154 0 11 -3 17 -6 13 -3 -3 -5 -225 -4 -494 1 -399 -2
-485 -12 -475 -15 15 -25 150 -27 348 -1 127 -26 354 -55 499 -16 81 -21 58
-6 -30 25 -151 41 -328 47 -536 l6 -225 -34 -32 c-19 -18 -37 -32 -41 -32 -5
0 -8 219 -7 488 1 268 5 476 9 462 6 -20 8 -21 8 -5 0 32 -13 71 -20 59z m362
-878 c0 -93 -2 -171 -5 -174 -3 -3 -5 33 -5 80 0 47 -2 154 -4 239 -4 119 -3
139 4 89 5 -36 10 -141 10 -234z m-200 -171 c0 -8 -4 -15 -10 -15 -5 0 -10 7
-10 15 0 8 5 15 10 15 6 0 10 -7 10 -15z m310 5 c0 -5 -4 -10 -10 -10 -5 0
-10 5 -10 10 0 6 5 10 10 10 6 0 10 -4 10 -10z m-20 -126 c0 -8 -4 -14 -10
-14 -12 0 -31 35 -23 44 9 8 33 -14 33 -30z m-347 -41 c-4 -145 -3 -139 -19
-119 -7 11 -14 34 -14 52 0 17 -7 37 -15 44 -19 16 -19 40 1 69 15 21 18 21
32 7 10 -9 16 -31 15 -53z m87 47 c-9 -17 -30 -28 -30 -16 0 16 15 36 26 36
12 0 12 -4 4 -20z m375 -20 c14 -28 14 -31 -5 -47 -12 -10 -20 -30 -20 -48 0
-16 -5 -37 -10 -45 -7 -11 -10 -2 -10 33 0 26 -4 47 -10 47 -13 0 -13 31 0 64
13 35 36 33 55 -4z m-196 -72 c1 -10 -3 -18 -9 -18 -5 0 -10 17 -9 38 0 30 2
33 9 17 5 -11 9 -28 9 -37z m-146 -7 c6 -16 19 -32 29 -35 11 -2 26 -23 36
-47 l16 -42 18 42 c10 25 27 45 41 50 14 5 27 21 31 35 7 28 13 31 34 17 8 -5
12 -22 10 -42 -3 -32 -6 -34 -43 -37 -51 -4 -60 -12 -76 -69 l-13 -46 -17 54
c-10 30 -19 55 -19 57 0 1 -12 2 -27 2 -54 0 -73 11 -73 39 0 27 16 51 33 51
5 0 14 -13 20 -29z m-189 -76 c13 -30 42 -73 63 -96 43 -46 57 -68 50 -76 -9
-9 -45 16 -52 36 -3 11 -17 26 -30 35 -14 9 -25 23 -25 32 0 8 -9 27 -19 42
-22 31 -36 82 -22 82 5 0 21 -25 35 -55z m103 3 c-2 -13 -4 -5 -4 17 -1 22 1
32 4 23 2 -10 2 -28 0 -40z m343 15 c0 -24 -3 -33 -9 -25 -7 12 -4 62 5 62 2
0 4 -17 4 -37z m130 -3 c-5 -16 -16 -40 -24 -52 -9 -12 -16 -28 -16 -34 0 -12
-93 -114 -104 -114 -19 0 0 37 39 79 24 26 56 73 71 104 26 59 49 70 34 17z
m-435 -92 c8 -21 13 -38 10 -38 -9 0 -45 64 -45 80 0 21 16 1 35 -42z m295 40
c0 -17 -40 -82 -46 -75 -6 5 33 87 41 87 3 0 5 -6 5 -12z m-76 -43 c-9 -14
-19 -24 -21 -21 -7 7 16 46 28 46 5 0 2 -11 -7 -25z m-164 0 c0 -8 -2 -15 -4
-15 -2 0 -6 7 -10 15 -3 8 -1 15 4 15 6 0 10 -7 10 -15z m-203 -112 c-4 -17
-4 -17 -12 0 -4 9 -4 25 0 35 8 16 8 16 12 0 3 -10 3 -26 0 -35z m573 17 c0
-16 -4 -30 -10 -30 -5 0 -10 14 -10 30 0 17 5 30 10 30 6 0 10 -13 10 -30z
m-350 -16 c0 -16 -16 -19 -25 -4 -8 13 4 32 16 25 5 -4 9 -13 9 -21z m126 -11
c-11 -11 -19 6 -11 24 8 17 8 17 12 0 3 -10 2 -21 -1 -24z m-259 -81 c-2 -54
13 -82 45 -82 18 0 19 5 13 50 -7 49 -7 50 20 50 23 0 25 -2 15 -14 -18 -23
-8 -61 17 -64 23 -3 39 -34 28 -53 -4 -6 -14 -7 -24 -3 -9 3 -35 6 -59 5 -40
-2 -44 0 -57 33 -17 40 -20 126 -5 126 5 0 8 -22 7 -48z m393 -1 c0 -61 -13
-98 -37 -105 -10 -2 -40 -6 -68 -8 -47 -3 -50 -2 -50 22 0 18 7 26 25 30 30 7
38 41 15 64 -15 15 -14 16 15 16 l32 0 -7 -49 c-7 -50 1 -66 28 -55 24 9 39
57 32 98 -5 24 -3 36 4 36 7 0 11 -20 11 -49z m-600 -103 c0 -14 -18 -9 -24 8
-11 28 -6 39 9 20 8 -11 15 -23 15 -28z m167 0 c-3 -8 -6 -5 -6 6 -1 11 2 17
5 13 3 -3 4 -12 1 -19z m633 -2 c0 -2 -6 -19 -14 -37 -11 -27 -16 -30 -21 -17
-7 18 10 58 25 58 6 0 10 -2 10 -4z m-877 -80 c3 -8 -12 -30 -35 -52 -32 -31
-38 -34 -28 -14 14 28 50 80 55 80 1 0 5 -6 8 -14z m133 -28 c4 -18 7 -61 6
-96 0 -34 4 -76 8 -93 9 -30 3 -39 -92 -163 -56 -72 -120 -155 -142 -184 -21
-29 -40 -51 -42 -49 -2 1 51 111 117 242 109 217 120 245 119 290 -1 28 -1 58
-1 68 2 29 19 19 27 -15z m851 -15 c49 -60 62 -79 42 -67 -38 23 -104 78 -103
85 3 25 5 29 12 29 5 0 27 -21 49 -47z m-131 -22 c12 -55 33 -81 65 -81 27 0
34 -17 79 -175 23 -82 50 -176 61 -208 32 -97 21 -90 -39 23 -183 348 -212
409 -212 455 0 38 3 46 17 43 11 -2 21 -21 29 -57z m-370 -76 c17 23 19 2 3
-27 -11 -21 -12 -21 -25 -3 -8 10 -14 26 -14 34 1 13 3 12 12 -3 11 -19 11
-19 24 -1z m-242 -83 c-9 -31 -26 -86 -36 -122 -11 -36 -23 -76 -28 -90 -5
-14 -17 -53 -26 -88 -34 -125 -28 -76 36 298 6 30 10 58 10 62 0 10 54 15 58
5 2 -4 -4 -33 -14 -65z m468 -2 c10 -36 26 -90 34 -120 19 -67 51 -173 65
-218 6 -19 8 -36 5 -39 -3 -4 -6 -1 -6 5 0 6 -22 57 -48 114 -96 204 -105 232
-98 283 4 26 12 45 18 43 6 -2 19 -33 30 -68z m65 48 c-3 -8 -6 -5 -6 6 -1 11
2 17 5 13 3 -3 4 -12 1 -19z m-587 3 c0 -6 -4 -13 -10 -16 -5 -3 -10 1 -10 9
0 9 5 16 10 16 6 0 10 -4 10 -9z m361 -270 c-13 -77 -27 -139 -29 -136 -2 2 2
66 8 142 12 125 11 141 -4 173 l-17 35 34 -37 33 -37 -25 -140z m-34 -173 c-3
-8 -6 -5 -6 6 -1 11 2 17 5 13 3 -3 4 -12 1 -19z"/>
<path d="M1391 2774 c0 -11 3 -14 6 -6 3 7 2 16 -1 19 -3 4 -6 -2 -5 -13z"/>
<path d="M1562 2765 c0 -16 2 -22 5 -12 2 9 2 23 0 30 -3 6 -5 -1 -5 -18z"/>
<path d="M1042 2750 c0 -19 2 -27 5 -17 2 9 2 25 0 35 -3 9 -5 1 -5 -18z"/>
<path d="M1383 2680 c0 -25 2 -35 4 -22 2 12 2 32 0 45 -2 12 -4 2 -4 -23z"/>
<path d="M1033 2645 c0 -27 2 -38 4 -22 2 15 2 37 0 50 -2 12 -4 0 -4 -28z"/>
<path d="M1373 2545 c0 -27 2 -38 4 -22 2 15 2 37 0 50 -2 12 -4 0 -4 -28z"/>
<path d="M1023 2510 c0 -30 2 -43 4 -27 2 15 2 39 0 55 -2 15 -4 2 -4 -28z"/>
<path d="M1363 2365 c0 -44 2 -61 4 -37 2 23 2 59 0 80 -2 20 -4 1 -4 -43z"/>
</g>
</svg>
