<?xml version="1.0" standalone="no"?>
<!DOCTYPE svg PUBLIC "-//W3C//DTD SVG 20010904//EN"
 "http://www.w3.org/TR/2001/REC-SVG-20010904/DTD/svg10.dtd">
<svg version="1.0" xmlns="http://www.w3.org/2000/svg"
 width="244.000000pt" height="305.000000pt" viewBox="0 0 244.000000 305.000000"
 preserveAspectRatio="xMidYMid meet">
<metadata>
Created by potrace 1.16, written by Peter Selinger 2001-2019
</metadata>
<g transform="translate(0.000000,305.000000) scale(0.100000,-0.100000)"
fill="#000000" stroke="none">
<path d="M977 2896 c-10 -25 -46 -287 -56 -406 -6 -63 -13 -216 -16 -340 l-6
-225 45 -38 45 -38 41 41 40 40 0 94 c0 152 -19 492 -35 621 -31 248 -42 294
-58 251z m10 -758 c-1 -128 -2 -26 -2 227 0 253 1 358 2 233 2 -125 2 -332 0
-460z"/>
<path d="M1461 2833 c-34 -195 -61 -540 -61 -795 l0 -108 39 -40 c21 -22 41
-40 43 -40 2 0 23 18 46 39 l42 39 -2 189 -2 188 -6 -175 -5 -175 -13 295 c-7
162 -15 313 -17 335 l-5 40 14 -40 14 -40 -5 50 c-3 28 -9 66 -14 85 -8 32 -8
32 -4 -10 4 -38 3 -41 -6 -20 -6 14 -11 59 -12 101 -1 42 -5 75 -9 73 -3 -2
-4 14 -1 36 4 31 2 40 -9 40 -10 0 -18 -20 -27 -67z"/>
<path d="M1512 2770 c0 -19 2 -27 5 -17 2 9 2 25 0 35 -3 9 -5 1 -5 -18z"/>
<path d="M1227 2585 c-27 -90 -48 -280 -55 -510 l-7 -210 -17 119 c-10 65 -20
121 -23 124 -12 12 -19 -14 -28 -114 l-10 -105 27 -26 c24 -22 27 -31 24 -76
-3 -50 -4 -52 -30 -49 -24 2 -28 -1 -28 -23 0 -61 43 -86 73 -42 16 22 16 21
16 -19 1 -28 6 -44 16 -48 9 -3 23 -22 31 -41 8 -19 16 -35 19 -35 3 0 11 16
19 35 8 19 22 38 31 41 10 4 15 20 15 53 l1 46 15 -27 c27 -50 74 -27 74 36 0
26 -23 36 -35 16 -14 -22 -25 4 -25 55 0 46 4 58 27 79 l27 25 -10 105 c-10
99 -17 127 -29 114 -3 -3 -13 -61 -23 -129 l-17 -124 -7 210 c-9 280 -51 585
-71 520z"/>
<path d="M1543 2500 c0 -25 2 -35 4 -22 2 12 2 32 0 45 -2 12 -4 2 -4 -23z"/>
<path d="M1551 2434 c0 -11 3 -14 6 -6 3 7 2 16 -1 19 -3 4 -6 -2 -5 -13z"/>
<path d="M868 1860 c-20 -12 -42 -75 -33 -91 4 -6 19 -9 33 -6 19 4 33 -3 54
-23 27 -28 39 -80 18 -80 -15 0 -12 -78 4 -130 8 -25 26 -67 42 -94 l27 -49
-26 -47 c-15 -27 -27 -61 -27 -77 0 -37 39 -76 72 -71 22 3 23 6 19 72 -3 55
-1 68 10 64 8 -3 31 -11 52 -19 34 -12 37 -16 37 -51 0 -26 4 -38 14 -38 19 0
37 -25 31 -41 -3 -8 -15 -19 -27 -24 -12 -6 -25 -21 -29 -35 -5 -21 -7 -19
-10 15 -3 33 -8 41 -27 43 -13 2 -34 -4 -47 -12 -37 -24 -52 -20 -82 25 -20
31 -27 55 -28 93 -3 122 -6 145 -21 160 -21 21 -36 20 -62 -4 -30 -28 -29 -85
4 -161 32 -78 25 -88 -11 -15 -39 80 -43 127 -14 187 26 56 20 79 -22 89 -39
10 -73 -4 -88 -36 -8 -16 -19 -32 -24 -36 -6 -3 -9 -42 -8 -87 2 -80 2 -81
-23 -81 -17 0 -36 -13 -60 -42 -19 -24 -80 -98 -135 -165 -56 -67 -101 -126
-101 -132 0 -24 37 -13 195 58 126 57 171 82 173 96 7 35 19 38 56 16 41 -26
76 -78 76 -114 0 -19 -7 -28 -29 -35 -22 -8 -31 -19 -36 -44 -13 -59 -75 -322
-90 -378 -29 -110 -34 -148 -17 -155 8 -3 16 -4 16 -3 3 5 50 77 152 233 136
208 135 206 123 249 -6 20 -7 41 -3 47 11 18 122 4 146 -18 36 -33 39 -47 12
-84 l-24 -35 14 -94 c8 -52 22 -142 31 -200 9 -58 23 -148 31 -200 8 -52 17
-111 21 -130 l6 -35 9 30 c4 17 15 77 23 135 8 58 28 192 45 299 l30 194 -25
33 c-26 33 -26 35 -9 64 10 16 31 34 47 40 36 12 114 13 121 2 3 -5 1 -25 -5
-45 -7 -28 -6 -43 5 -64 37 -71 263 -398 276 -401 8 -2 17 -8 18 -13 2 -5 7
-9 12 -9 4 0 2 24 -5 52 -7 29 -27 114 -44 188 -50 211 -52 222 -69 277 -11
36 -22 54 -40 62 -22 10 -24 16 -19 51 6 44 32 84 65 99 33 16 42 14 42 -8 0
-15 35 -34 163 -91 89 -39 173 -73 187 -74 14 -1 36 -6 49 -10 19 -7 9 10 -45
75 -172 209 -238 279 -262 279 -23 0 -24 3 -21 58 4 99 -3 121 -12 33 -4 -46
-13 -89 -19 -95 -9 -8 -10 17 -5 100 9 130 2 144 -69 144 -56 0 -85 -28 -68
-66 16 -34 16 -35 -13 -24 -48 18 -58 5 -70 -87 -4 -29 -10 -53 -13 -53 -4 0
-18 17 -31 37 l-24 37 42 83 c33 67 41 94 41 138 0 30 -4 55 -10 55 -18 0 -11
46 11 74 13 16 30 26 47 26 42 0 56 14 48 46 -10 40 -35 64 -65 64 -34 0 -44
-8 -69 -48 l-20 -33 -10 30 c-13 35 -50 56 -85 48 -26 -7 -47 -44 -47 -82 0
-22 4 -25 39 -25 30 0 44 -6 55 -22 19 -27 20 -50 4 -66 -6 -6 -13 -26 -15
-44 -5 -50 -37 -108 -91 -165 l-49 -52 7 38 c9 50 16 61 56 77 30 13 33 17 24
34 -14 26 -56 36 -77 19 -9 -8 -26 -36 -39 -63 l-22 -48 -11 37 c-12 44 -47
85 -72 85 -23 0 -64 -34 -56 -47 4 -6 20 -13 36 -16 21 -5 32 -15 40 -39 16
-46 27 -188 14 -188 -6 0 -8 11 -5 25 3 20 -1 27 -22 35 -68 26 -149 126 -162
201 -5 30 -2 27 19 -18 29 -60 129 -168 149 -161 21 8 10 48 -21 77 -42 39
-91 121 -91 150 0 15 -7 39 -15 55 -19 37 -19 48 4 74 12 15 30 22 55 22 32 0
36 3 36 25 0 96 -105 115 -135 25 l-12 -35 -6 27 c-14 54 -67 82 -109 58z
m599 -324 c-27 -80 -90 -152 -152 -176 -22 -8 -26 -15 -23 -35 3 -14 1 -25 -3
-25 -5 0 -9 23 -9 51 0 44 2 50 14 40 11 -9 20 -9 34 -2 34 18 109 109 128
155 24 57 31 51 11 -8z m-716 -266 c-13 -50 -37 -77 -131 -153 -86 -69 -131
-99 -138 -93 -6 7 3 14 152 139 l108 91 -6 85 -5 86 15 -55 c13 -45 14 -63 5
-100z m668 -7 c-4 -65 -3 -68 19 -71 13 -2 30 2 38 9 26 22 29 -1 3 -27 -25
-25 -26 -25 -61 -8 -23 10 -46 14 -62 10 -22 -5 -25 -10 -20 -33 l7 -26 -22
22 c-11 11 -25 21 -31 21 -5 0 -10 12 -10 26 0 17 6 28 20 31 16 4 20 14 20
43 0 34 3 39 30 45 16 4 32 11 35 16 4 5 13 9 22 9 12 0 14 -12 12 -67z m513
-115 c57 -68 110 -132 118 -142 14 -18 14 -19 -5 -8 -32 16 -104 97 -183 205
-40 53 -48 67 -38 67 3 0 51 -55 108 -122z m-187 -8 c3 -5 -1 -10 -10 -10 -9
0 -13 5 -10 10 3 6 8 10 10 10 2 0 7 -4 10 -10z m-790 -115 c0 -51 -8 -79 -54
-185 -29 -69 -60 -141 -68 -160 -28 -66 -68 -141 -70 -133 -3 8 12 47 125 318
46 112 56 176 39 250 l-7 30 17 -30 c11 -19 17 -53 18 -90z m246 3 c7 -48 24
-88 38 -88 11 0 31 70 31 109 0 17 4 31 9 31 4 0 6 -24 3 -52 -5 -56 -37 -122
-54 -112 -16 10 -38 71 -38 107 0 18 -6 39 -12 46 -11 11 -10 13 2 9 9 -3 18
-23 21 -50z m468 -213 c-2 -17 -27 69 -27 90 0 11 6 -2 14 -30 7 -27 13 -54
13 -60z m70 -290 c0 -17 -2 -16 -10 5 -16 39 -59 227 -58 252 1 26 68 -227 68
-257z"/>
</g>
</svg>
