<?xml version="1.0" standalone="no"?>
<!DOCTYPE svg PUBLIC "-//W3C//DTD SVG 20010904//EN"
 "http://www.w3.org/TR/2001/REC-SVG-20010904/DTD/svg10.dtd">
<svg version="1.0" xmlns="http://www.w3.org/2000/svg"
 width="244.000000pt" height="305.000000pt" viewBox="0 0 244.000000 305.000000"
 preserveAspectRatio="xMidYMid meet">
<metadata>
Created by potrace 1.16, written by Peter Selinger 2001-2019
</metadata>
<g transform="translate(0.000000,305.000000) scale(0.100000,-0.100000)"
fill="#000000" stroke="none">
<path d="M936 2902 c-6 -10 -42 -206 -55 -302 -19 -133 -31 -340 -31 -512 0
-163 1 -168 23 -179 12 -6 32 -20 44 -31 l22 -20 38 31 c21 17 42 31 47 31 9
0 29 -22 47 -53 9 -16 8 -17 -10 -8 -11 6 -29 11 -39 11 -24 0 -72 -54 -72
-81 0 -28 -17 -23 -24 7 -9 36 -50 74 -81 74 -33 0 -75 -42 -75 -75 0 -22 4
-25 39 -25 40 0 59 -12 87 -55 14 -22 10 -55 -7 -55 -14 0 -10 -86 5 -127 8
-21 16 -82 18 -135 5 -128 -10 -131 -36 -8 -10 48 -14 55 -37 58 -64 8 -80
-74 -33 -178 46 -102 9 -89 -41 15 -31 62 -33 128 -5 170 36 55 18 85 -53 85
-64 0 -80 -42 -52 -134 8 -27 15 -76 15 -108 0 -50 -4 -63 -25 -84 -21 -21
-24 -32 -19 -58 5 -32 4 -34 -46 -55 -106 -45 -274 -111 -277 -108 -1 2 21 20
50 41 28 20 106 76 172 123 66 46 121 89 123 93 2 5 -4 42 -12 84 -9 41 -16
91 -16 111 0 24 -4 34 -11 29 -8 -5 -9 -34 -4 -95 l6 -89 -28 6 c-27 5 -42 -7
-201 -172 -94 -98 -170 -180 -168 -181 2 -2 70 21 152 51 288 105 278 101 284
132 4 23 10 28 28 26 30 -4 89 -39 95 -56 3 -8 -8 -42 -24 -76 -27 -58 -28
-61 -8 -55 13 4 19 3 15 -3 -3 -5 -12 -34 -20 -63 -8 -30 -42 -155 -76 -278
-33 -123 -59 -225 -57 -228 3 -2 24 21 48 52 24 32 68 87 98 123 30 37 88 112
129 167 98 130 94 127 87 80 -29 -202 -54 -389 -51 -392 1 -2 42 91 91 207 79
191 87 215 81 254 -4 26 -3 47 3 50 11 7 81 -50 81 -67 0 -5 -12 -26 -26 -45
l-27 -34 27 -157 c15 -86 38 -212 51 -281 13 -69 26 -144 30 -168 4 -24 8 -42
10 -40 4 4 102 538 110 604 6 45 4 53 -19 81 -14 17 -26 35 -26 40 0 19 49 63
71 63 20 0 21 -3 14 -46 -6 -42 1 -63 86 -270 51 -123 93 -223 94 -222 1 2 0
25 -3 52 -3 33 -7 44 -13 35 -6 -9 -7 2 -4 31 3 27 2 36 -3 21 -5 -18 -20 23
-59 170 -63 234 -65 245 -38 241 30 -5 36 -15 44 -73 5 -30 17 -112 27 -184
10 -71 20 -122 22 -112 2 9 -4 66 -12 125 -23 158 -22 164 17 106 32 -47 212
-276 283 -359 l34 -40 -6 30 c-10 46 -103 394 -120 448 -9 26 -17 59 -19 73
l-2 25 23 -22 c39 -37 39 -14 0 60 -20 38 -36 75 -36 83 0 16 68 58 93 58 10
0 17 -11 19 -27 3 -29 34 -44 283 -132 44 -16 93 -34 108 -40 16 -6 27 -7 25
-2 -1 5 -75 84 -162 176 -149 155 -162 166 -189 161 l-29 -6 7 90 c5 63 4 90
-4 90 -6 0 -11 -17 -11 -37 0 -21 -3 -69 -7 -106 l-6 -68 39 7 40 6 123 -127
c67 -70 120 -129 117 -132 -3 -3 -77 42 -165 101 -108 71 -165 115 -176 135
-19 38 -19 96 0 151 31 87 11 140 -52 140 -17 0 -41 -8 -53 -18 l-23 -19 28
-51 c23 -42 27 -58 21 -92 -8 -50 -36 -108 -65 -134 -29 -26 -28 -4 4 58 38
74 32 141 -15 166 -29 15 -60 -19 -60 -67 -1 -21 -7 -51 -15 -68 l-13 -30 -2
30 c-1 25 -3 27 -9 11 -5 -14 -10 -16 -15 -7 -11 18 3 105 30 190 28 85 30
133 9 151 -22 18 -19 35 17 76 27 31 36 35 64 31 35 -6 48 9 37 41 -21 60 -85
71 -127 21 -14 -17 -26 -37 -26 -45 0 -26 -15 -14 -32 26 -22 54 -59 71 -100
47 -40 -23 -46 -16 -14 16 14 15 26 31 26 37 0 20 31 9 69 -25 39 -35 40 -35
58 -17 10 11 31 27 47 38 l29 18 -7 216 c-8 244 -20 399 -41 515 -13 74 -14
75 -10 20 3 -33 9 -91 15 -130 5 -38 15 -186 21 -328 l13 -257 -35 -30 c-19
-16 -38 -29 -42 -30 -4 0 -7 223 -7 496 1 273 -1 498 -3 500 -5 5 -40 -181
-57 -306 -20 -143 -33 -316 -37 -482 -3 -129 -7 -167 -18 -171 -21 -9 -27 130
-23 561 2 210 0 382 -4 382 -5 0 -8 -8 -8 -17 0 -10 -7 -97 -15 -193 -8 -96
-19 -313 -23 -483 -5 -169 -13 -312 -18 -317 -5 -5 -9 31 -10 93 0 190 -37
508 -71 622 -6 19 -6 19 -14 -3 -29 -78 -60 -320 -78 -617 -6 -97 -6 -98 -13
-45 -4 30 -9 147 -10 260 l-2 205 -6 -160 c-3 -88 -7 -152 -8 -142 -1 9 -6 17
-11 17 -5 0 -12 -8 -14 -17 -3 -10 -5 157 -6 371 0 214 -3 387 -5 385 -8 -7
-36 -453 -37 -583 l-2 -121 -12 180 c-17 234 -49 484 -62 472 -2 -3 3 -49 11
-103 27 -172 36 -283 43 -507 l6 -218 -34 -29 c-19 -16 -38 -29 -42 -30 -4 0
-7 227 -5 505 2 278 2 505 1 505 -1 0 -4 -3 -7 -8z m323 -547 c7 72 21 -57 27
-252 5 -150 4 -203 -5 -203 -13 0 -16 -196 -2 -204 12 -8 20 -55 10 -62 -5 -3
-9 2 -9 12 0 13 -4 11 -20 -7 -19 -24 -19 -23 -18 401 1 234 4 394 8 355 4
-38 8 -56 9 -40z m-149 -504 c0 -6 -4 -13 -10 -16 -5 -3 -10 1 -10 9 0 9 5 16
10 16 6 0 10 -4 10 -9z m187 -43 c-3 -7 -5 -2 -5 12 0 14 2 19 5 13 2 -7 2
-19 0 -25z m0 -55 c-3 -10 -5 -4 -5 12 0 17 2 24 5 18 2 -7 2 -21 0 -30z
m-252 -4 c4 -6 8 -58 9 -115 l1 -105 -22 26 c-14 16 -23 39 -23 59 0 18 -8 44
-19 57 -19 26 -18 43 7 72 17 19 38 22 47 6z m315 -17 c0 -15 -2 -15 -10 -2
-13 20 -13 33 0 25 6 -3 10 -14 10 -23z m112 11 c26 -29 31 -60 13 -71 -9 -5
-19 -26 -22 -48 -5 -39 -27 -84 -41 -84 -9 0 -7 193 2 208 10 17 31 15 48 -5z
m-317 -96 c4 -20 15 -37 28 -42 11 -6 23 -17 25 -25 4 -12 3 -13 -10 -3 -8 7
-18 10 -21 7 -3 -4 -18 -4 -32 0 -19 5 -25 13 -25 35 0 63 25 83 35 28z m199
-5 c11 -40 -2 -57 -46 -60 -18 -1 -39 -10 -45 -19 -19 -24 -16 -7 3 22 9 14
22 25 29 25 7 0 16 16 19 36 8 42 27 40 40 -4z m-394 -48 c14 -35 12 -56 -2
-52 -15 5 -29 78 -16 78 5 0 13 -12 18 -26z m127 -6 c-3 -7 -5 -2 -5 12 0 14
2 19 5 13 2 -7 2 -19 0 -25z m300 0 c-3 -7 -5 -2 -5 12 0 14 2 19 5 13 2 -7 2
-19 0 -25z m139 -24 c-7 -26 -26 -33 -26 -10 0 8 5 27 12 43 9 23 12 25 15 10
3 -10 2 -29 -1 -43z m-284 -38 c3 5 3 3 1 -4 -1 -8 -3 -23 -4 -35 0 -21 -1
-21 -8 -2 -4 11 -11 34 -15 50 -6 30 -6 30 8 6 7 -13 15 -20 18 -15z m-122
-32 c16 -48 4 -56 -15 -11 -18 42 -18 47 -6 47 5 0 15 -16 21 -36z m260 26 c0
-17 -31 -72 -37 -67 -8 8 17 77 28 77 5 0 9 -5 9 -10z m94 -53 c-3 -9 -15 -17
-25 -17 -12 0 -21 -9 -25 -25 -8 -31 -54 -61 -54 -35 0 17 94 110 103 101 4
-4 5 -15 1 -24z m-418 -19 c41 -39 56 -68 36 -68 -16 0 -40 25 -44 45 -2 12
-12 21 -26 23 -14 2 -22 10 -22 23 0 27 7 24 56 -23z m-113 -97 c-6 -23 -7
-24 -14 -6 -4 11 -8 43 -8 70 l0 50 14 -45 c8 -24 11 -56 8 -69z m237 26 c0
-5 -4 -5 -10 -2 -5 3 -10 14 -10 23 0 15 2 15 10 2 5 -8 10 -19 10 -23z m130
9 c0 -8 -4 -18 -10 -21 -5 -3 -10 3 -10 14 0 12 5 21 10 21 6 0 10 -6 10 -14z
m-218 -183 c24 -23 31 -12 30 46 -1 44 1 49 23 53 14 3 25 1 25 -3 0 -5 -6 -9
-14 -9 -34 0 -27 -67 8 -72 15 -2 21 -10 21 -28 0 -21 -4 -25 -27 -22 -14 2
-29 -1 -32 -7 -11 -16 -55 29 -65 66 -5 19 -7 51 -3 71 6 36 7 35 12 -20 3
-35 12 -64 22 -75z m325 54 c-4 -44 -11 -65 -24 -74 -10 -7 -23 -17 -30 -23
-8 -7 -14 -6 -19 1 -3 6 -19 9 -35 5 -26 -5 -29 -3 -29 19 0 16 9 28 27 37 35
17 39 32 14 57 -27 27 -26 31 6 22 25 -7 27 -11 24 -53 -1 -27 2 -49 9 -53 20
-12 39 28 40 83 0 37 3 51 11 46 8 -4 10 -28 6 -67z m173 -4 c-1 -11 -26 -43
-34 -43 -8 0 -8 35 1 43 9 9 33 9 33 0z m-669 -56 c-8 -8 -11 -7 -11 4 0 20
13 34 18 19 3 -7 -1 -17 -7 -23z m529 -7 c0 -5 -5 -10 -11 -10 -5 0 -7 5 -4
10 3 6 8 10 11 10 2 0 4 -4 4 -10z m180 -2 c0 -19 -18 -43 -25 -36 -4 3 -2 16
5 27 12 24 20 27 20 9z m-746 -64 c8 -22 -4 -40 -15 -23 -11 18 -11 39 0 39 5
0 12 -7 15 -16z m826 -92 c0 -13 -3 -12 -20 3 -11 10 -20 28 -20 39 1 20 1 20
20 -3 11 -13 20 -30 20 -39z m-799 -38 c0 -38 4 -86 8 -106 8 -33 5 -42 -32
-95 -70 -101 -227 -305 -227 -295 0 5 15 41 34 78 189 385 190 388 191 439 2
67 3 71 16 58 6 -6 11 -42 10 -79z m677 69 c5 -10 12 -34 16 -55 6 -31 13 -39
51 -55 42 -17 45 -20 64 -88 87 -313 102 -368 99 -371 -2 -1 -61 111 -131 251
-100 200 -127 262 -127 294 0 43 13 53 28 24z m-780 -25 c-2 -6 -15 -15 -28
-20 -23 -9 -23 -8 -5 12 20 22 39 27 33 8z m887 -48 c8 -13 -11 -13 -36 1 -11
5 -17 14 -14 20 7 10 39 -4 50 -21z m-877 8 c-3 -7 -15 -15 -28 -16 -21 -3
-22 -2 -11 12 16 19 44 21 39 4z m432 -69 c-9 -16 -14 -18 -20 -9 -4 7 -1 19
9 29 20 21 26 9 11 -20z m-272 -26 c-4 -46 -24 -54 -33 -14 -7 35 -1 51 21 51
11 0 14 -9 12 -37z m90 -25 c-3 -46 -20 -102 -62 -208 -83 -208 -83 -208 -9
75 52 203 49 195 64 195 8 0 10 -20 7 -62z m457 25 c-7 -39 -12 -50 -19 -42
-2 2 -7 21 -11 42 -7 34 -5 37 15 37 20 0 22 -3 15 -37z m-251 -218 c-4 -60
-8 -138 -9 -172 0 -33 -3 -59 -7 -57 -4 3 -9 -19 -11 -48 -2 -29 -4 66 -4 212
l-2 265 21 -45 c18 -41 19 -56 12 -155z m31 139 l27 -35 -28 -160 c-15 -87
-29 -157 -32 -154 -2 2 1 64 8 137 12 130 11 195 -4 231 -13 27 -1 20 29 -19z"/>
<path d="M1264 2165 c0 -71 1 -99 3 -62 2 37 2 96 0 130 -2 34 -3 4 -3 -68z"/>
<path d="M1082 2880 c0 -14 2 -19 5 -12 2 6 2 18 0 25 -3 6 -5 1 -5 -13z"/>
<path d="M1542 2820 c0 -14 2 -19 5 -12 2 6 2 18 0 25 -3 6 -5 1 -5 -13z"/>
<path d="M1092 2770 c0 -19 2 -27 5 -17 2 9 2 25 0 35 -3 9 -5 1 -5 -18z"/>
<path d="M1552 2765 c0 -16 2 -22 5 -12 2 9 2 23 0 30 -3 6 -5 -1 -5 -18z"/>
<path d="M1402 2755 c0 -16 2 -22 5 -12 2 9 2 23 0 30 -3 6 -5 -1 -5 -18z"/>
<path d="M1103 2660 c0 -25 2 -35 4 -22 2 12 2 32 0 45 -2 12 -4 2 -4 -23z"/>
<path d="M1413 2625 c0 -27 2 -38 4 -22 2 15 2 37 0 50 -2 12 -4 0 -4 -28z"/>
<path d="M1113 2500 c0 -36 2 -50 4 -32 2 17 2 47 0 65 -2 17 -4 3 -4 -33z"/>
<path d="M1423 2460 c0 -47 2 -66 4 -42 2 23 2 61 0 85 -2 23 -4 4 -4 -43z"/>
<path d="M1562 1430 c0 -19 2 -27 5 -17 2 9 2 25 0 35 -3 9 -5 1 -5 -18z"/>
</g>
</svg>
