<?xml version="1.0" standalone="no"?>
<!DOCTYPE svg PUBLIC "-//W3C//DTD SVG 20010904//EN"
 "http://www.w3.org/TR/2001/REC-SVG-20010904/DTD/svg10.dtd">
<svg version="1.0" xmlns="http://www.w3.org/2000/svg"
 width="244.000000pt" height="305.000000pt" viewBox="0 0 244.000000 305.000000"
 preserveAspectRatio="xMidYMid meet">
<metadata>
Created by potrace 1.16, written by Peter Selinger 2001-2019
</metadata>
<g transform="translate(0.000000,305.000000) scale(0.100000,-0.100000)"
fill="#000000" stroke="none">
<path d="M966 2874 c-4 -20 -5 -39 -2 -42 3 -3 6 5 6 18 0 13 3 21 6 18 3 -3
-2 -59 -10 -124 -23 -181 -36 -348 -46 -584 l-9 -215 3 255 c2 166 0 222 -4
160 -4 -52 -9 -169 -11 -260 l-3 -166 47 -43 47 -44 41 39 40 39 -6 250 c-4
138 -15 329 -26 425 -10 96 -19 179 -19 183 0 5 -4 6 -9 2 -6 -3 -8 8 -5 27 5
38 -7 90 -23 95 -6 2 -14 -13 -17 -33z"/>
<path d="M1456 2803 c-25 -169 -44 -408 -52 -651 l-7 -223 44 -40 43 -39 35
32 c20 18 39 35 42 38 4 3 3 131 -1 285 -8 272 -26 474 -56 622 -7 40 -14 75
-14 78 0 3 -4 5 -9 5 -4 0 -16 -48 -25 -107z m31 -676 c-1 -128 -2 -20 -2 238
0 259 1 363 2 232 2 -131 2 -343 0 -470z"/>
<path d="M936 2665 c-10 -82 -16 -161 -13 -175 3 -17 5 -13 6 15 0 23 8 94 17
159 8 65 13 126 12 135 -2 9 -12 -51 -22 -134z"/>
<path d="M1227 2584 c-28 -101 -47 -284 -54 -502 -3 -116 -7 -211 -9 -210 -1
2 -9 55 -18 117 -9 63 -20 119 -25 124 -11 11 -31 -101 -31 -175 0 -46 4 -58
26 -77 22 -19 25 -28 22 -74 -3 -50 -4 -52 -30 -49 -24 2 -28 -1 -28 -23 0
-61 43 -86 74 -42 15 22 15 21 14 -16 -2 -28 3 -41 19 -52 12 -8 27 -32 34
-52 l12 -38 18 42 c9 22 25 45 34 51 11 6 17 22 17 48 0 38 1 38 15 17 29 -44
73 -19 73 41 0 27 -18 34 -37 15 -16 -16 -25 5 -25 63 0 43 4 54 28 73 l28 23
-12 107 c-18 161 -26 159 -50 -16 l-17 -124 -2 105 c-5 253 -39 584 -63 629
-6 11 -9 10 -13 -5z"/>
<path d="M850 1850 c-11 -11 -20 -33 -20 -50 0 -27 4 -30 40 -36 28 -5 46 -15
60 -34 24 -34 24 -38 4 -79 -22 -43 -11 -95 38 -192 l40 -77 -26 -38 c-29 -43
-34 -38 -45 49 l-6 52 -43 0 c-23 0 -42 1 -42 2 0 1 5 14 10 29 16 40 -10 64
-70 64 -70 0 -74 -9 -66 -143 9 -132 -9 -141 -20 -9 -4 45 -11 82 -16 82 -5 0
-7 -36 -4 -85 l6 -85 -24 0 c-20 0 -53 -32 -155 -152 -71 -84 -140 -166 -152
-182 l-22 -28 24 8 c13 4 33 8 44 8 11 1 95 34 188 75 128 57 167 79 167 93 0
41 60 7 90 -52 27 -54 25 -77 -8 -94 -25 -13 -31 -26 -50 -108 -12 -51 -42
-178 -67 -282 -50 -210 -51 -218 -31 -190 8 10 19 19 26 19 9 0 56 65 120 165
5 8 33 51 63 95 100 150 109 170 98 212 -6 20 -8 40 -4 46 10 17 120 3 144
-18 38 -35 40 -50 13 -86 -19 -26 -24 -42 -20 -69 43 -279 97 -615 101 -619 3
-2 5 -1 5 4 0 4 7 49 15 99 28 176 57 362 70 456 l14 95 -26 33 -25 34 19 26
c11 15 31 33 44 39 29 15 115 17 124 3 3 -5 1 -26 -4 -46 -12 -43 -9 -50 80
-185 34 -52 90 -137 124 -189 34 -52 68 -104 73 -115 11 -19 11 -19 12 5 0 20
2 22 11 10 8 -12 9 -11 5 5 -8 30 -40 172 -76 330 -40 178 -58 235 -75 235
-23 0 -37 28 -30 61 8 37 77 109 105 109 15 0 20 -7 20 -26 0 -22 10 -30 68
-56 37 -16 115 -52 174 -80 156 -72 160 -62 37 92 -144 179 -194 231 -213 224
-14 -5 -16 5 -16 80 0 50 -4 86 -10 86 -5 0 -16 16 -24 35 -9 20 -23 36 -33
36 -59 5 -93 -9 -93 -38 0 -7 9 -32 21 -55 16 -32 19 -51 14 -87 -8 -52 -45
-142 -52 -124 -2 6 3 26 12 43 9 17 19 53 22 80 5 43 3 51 -20 74 -55 55 -73
30 -83 -112 -10 -146 -42 -192 -107 -157 -45 24 -71 17 -77 -20 -6 -29 -6 -29
-12 -6 -4 12 -11 20 -17 17 -12 -8 -43 22 -38 38 2 6 13 15 25 21 17 7 22 18
22 45 0 32 4 37 38 49 20 8 43 16 51 19 11 4 13 -9 10 -64 -4 -66 -3 -69 19
-72 33 -5 72 34 72 71 0 17 -12 51 -27 76 l-26 45 26 50 c52 100 74 204 47
221 -17 10 -11 51 10 78 14 18 32 27 58 29 33 3 37 6 34 28 -4 39 -22 68 -49
75 -39 9 -64 -4 -82 -46 l-17 -38 -18 39 c-28 63 -94 68 -115 8 -20 -56 -15
-67 31 -70 34 -2 45 -8 57 -30 12 -21 13 -31 4 -50 -6 -13 -14 -36 -18 -53 -9
-48 -46 -114 -87 -156 -39 -40 -53 -78 -31 -86 21 -8 111 87 144 151 17 33 29
49 25 34 -20 -89 -85 -176 -152 -204 -30 -13 -35 -19 -31 -40 2 -13 0 -24 -4
-24 -13 0 -10 107 4 160 10 37 19 48 49 63 32 16 36 21 28 38 -6 10 -22 22
-36 25 -33 9 -67 -23 -84 -79 l-12 -42 -23 50 c-12 28 -29 56 -37 63 -20 16
-65 6 -78 -19 -11 -20 -8 -23 32 -33 18 -4 30 -16 38 -38 16 -45 26 -188 13
-188 -6 0 -8 11 -5 25 2 14 0 25 -5 25 -5 0 -30 14 -56 30 -46 31 -112 120
-105 142 2 6 14 -4 26 -24 29 -46 110 -121 125 -115 22 8 8 46 -32 87 -46 48
-81 114 -81 155 0 16 -8 37 -17 47 -15 17 -15 21 0 53 15 32 21 35 58 35 l42
0 -6 36 c-14 84 -92 101 -130 28 l-13 -25 -13 24 c-25 47 -87 61 -121 27z
m886 -509 l-7 -89 61 -54 c33 -29 67 -55 74 -58 18 -7 139 -120 134 -125 -5
-6 -73 39 -119 79 -20 17 -61 52 -92 79 -72 62 -84 96 -67 189 7 37 15 68 18
68 3 0 2 -40 -2 -89z m-629 -28 c40 -17 43 -21 43 -55 0 -26 5 -38 14 -38 7 0
20 -7 27 -16 11 -14 8 -20 -21 -44 -35 -29 -35 -29 -40 -7 -7 28 -32 33 -72
13 -17 -9 -36 -16 -41 -16 -10 0 -30 21 -48 53 -10 18 -9 18 15 2 14 -9 35
-15 48 -13 22 3 23 6 20 71 -2 37 0 67 5 67 4 0 27 -8 50 -17z m-459 -57 c-7
-7 -20 -24 -28 -36 -8 -12 -25 -34 -38 -48 -13 -15 -36 -45 -52 -67 -31 -44
-99 -110 -106 -102 -4 3 118 157 161 203 5 6 20 23 32 38 13 14 28 26 34 26 6
0 5 -5 -3 -14z m932 -56 c-6 -11 -13 -20 -16 -20 -2 0 0 9 6 20 6 11 13 20 16
20 2 0 0 -9 -6 -20z m-830 -58 c0 -13 -12 -22 -22 -16 -10 6 -1 24 13 24 5 0
9 -4 9 -8z m788 -89 c-5 -72 -3 -76 71 -253 18 -41 36 -84 41 -95 25 -52 59
-155 52 -155 -10 0 -25 32 -123 264 -67 158 -71 173 -65 222 12 103 30 115 24
17z m-337 -25 c7 -48 24 -88 38 -88 9 0 28 65 33 109 2 14 10 26 18 29 12 4
13 2 3 -9 -7 -7 -13 -31 -13 -53 0 -42 -33 -111 -49 -102 -17 11 -41 74 -41
108 0 19 -6 40 -12 47 -11 11 -10 13 2 9 9 -3 18 -23 21 -50z m-387 -195 c-52
-233 -73 -316 -82 -325 -7 -7 -7 3 -1 28 5 22 18 75 28 119 40 169 65 264 69
260 2 -2 -4 -39 -14 -82z"/>
</g>
</svg>
