<?xml version="1.0" standalone="no"?>
<!DOCTYPE svg PUBLIC "-//W3C//DTD SVG 20010904//EN"
 "http://www.w3.org/TR/2001/REC-SVG-20010904/DTD/svg10.dtd">
<svg version="1.0" xmlns="http://www.w3.org/2000/svg"
 width="244.000000pt" height="305.000000pt" viewBox="0 0 244.000000 305.000000"
 preserveAspectRatio="xMidYMid meet">
<metadata>
Created by potrace 1.16, written by Peter Selinger 2001-2019
</metadata>
<g transform="translate(0.000000,305.000000) scale(0.100000,-0.100000)"
fill="#000000" stroke="none">
<path d="M912 2803 c-34 -172 -52 -336 -58 -508 -2 -88 -6 -208 -8 -267 l-5
-106 31 -13 c16 -6 37 -23 45 -36 l16 -24 27 26 c28 27 60 30 67 8 3 -7 -10
-15 -31 -18 -30 -6 -37 -13 -49 -49 l-15 -41 -10 26 c-6 15 -23 36 -38 48 -44
34 -85 27 -110 -21 -21 -41 -12 -58 30 -58 38 0 90 -37 99 -70 3 -12 -2 -27
-11 -37 -12 -12 -17 -36 -18 -82 -1 -56 -20 -159 -23 -124 -1 17 -58 -14 -72
-39 -10 -19 -9 -52 7 -125 4 -21 2 -33 -5 -33 -15 0 -39 51 -47 100 -6 36 -2
51 22 97 29 54 29 54 9 69 -13 9 -37 14 -65 12 -38 -3 -47 -7 -58 -30 -11 -24
-10 -38 9 -105 28 -102 23 -166 -17 -198 -25 -20 -27 -25 -17 -48 9 -20 9 -28
0 -35 -16 -13 -319 -133 -324 -129 -2 2 51 42 118 88 187 130 212 147 225 161
11 11 11 24 -1 73 -8 33 -19 85 -24 115 -9 51 -9 48 -8 -43 l2 -98 -29 7 c-28
6 -40 -5 -202 -172 -95 -99 -171 -180 -170 -182 4 -4 196 65 326 117 96 39
115 50 120 71 6 24 33 30 52 11 4 -4 -15 -44 -43 -89 -28 -46 -49 -85 -46 -88
3 -3 45 17 93 46 48 28 90 48 95 43 5 -5 10 -19 11 -33 2 -18 -4 -28 -24 -38
-38 -18 -42 -27 -93 -214 -24 -90 -57 -210 -74 -268 -16 -58 -28 -107 -25
-109 2 -2 14 9 26 25 177 226 260 326 265 320 3 -2 -7 -73 -21 -157 -15 -83
-24 -154 -22 -157 3 -2 53 91 111 208 102 205 105 214 99 261 -6 42 -4 49 10
49 23 0 78 -29 93 -49 19 -24 16 -38 -17 -71 -17 -17 -28 -35 -26 -39 3 -4 19
-88 36 -187 17 -98 39 -219 49 -269 11 -49 22 -112 26 -138 3 -27 8 -47 10
-45 6 6 115 612 115 639 0 14 -11 36 -25 49 -14 13 -25 29 -25 35 0 20 54 63
89 70 l34 7 -6 -52 c-6 -52 -5 -57 105 -276 62 -123 114 -222 115 -220 2 1
-11 81 -27 176 -16 96 -28 175 -26 177 3 3 168 -201 196 -242 23 -33 81 -98
85 -94 3 4 -82 320 -128 474 -21 70 -28 82 -55 94 -31 14 -38 33 -26 65 3 9
10 16 14 16 4 0 53 -27 109 -61 56 -34 104 -59 106 -57 2 2 -14 31 -36 65 -21
34 -39 67 -39 73 0 5 -4 10 -8 10 -15 0 -34 52 -23 63 15 15 41 0 41 -25 0
-25 -12 -19 220 -105 180 -66 195 -71 199 -67 2 2 -30 39 -72 81 -42 43 -116
120 -165 171 -77 81 -92 93 -117 90 l-29 -3 2 90 c1 66 -1 82 -8 62 -5 -16
-10 -63 -11 -105 l-2 -77 38 3 c28 2 44 -3 62 -20 56 -52 225 -238 216 -238
-13 0 -326 209 -335 223 -26 40 -28 87 -8 163 25 96 25 99 0 124 -34 34 -120
21 -120 -18 0 -9 9 -32 20 -50 24 -38 26 -99 6 -147 -25 -58 -36 -43 -30 38 7
75 7 76 -38 113 -8 6 -19 9 -27 6 -8 -3 -12 3 -10 19 2 13 -3 35 -11 49 -8 15
-13 44 -11 71 1 26 -2 50 -8 53 -21 13 -11 57 19 88 23 23 37 29 62 26 29 -3
33 0 36 24 7 61 -76 91 -123 43 -14 -13 -25 -29 -25 -35 0 -21 -18 -9 -24 16
-6 22 -1 32 31 60 21 19 44 34 51 34 6 0 12 6 12 13 2 53 -2 343 -5 373 -2 22
-6 80 -9 129 -7 98 -35 297 -43 305 -3 3 -3 -15 1 -40 22 -160 37 -343 42
-530 l6 -215 -36 -22 c-20 -13 -38 -23 -41 -23 -3 0 -5 212 -5 471 0 323 3
468 10 464 7 -4 8 3 4 22 -15 62 -19 52 -50 -127 -14 -85 -27 -156 -29 -158
-1 -1 -5 28 -9 65 -16 171 -30 274 -37 257 -3 -11 -4 -32 -2 -49 7 -46 7 -934
0 -941 -3 -3 -8 9 -11 27 -18 125 -29 180 -36 184 -5 3 -12 -27 -16 -67 -7
-77 -22 -72 -23 9 -1 23 -6 43 -13 45 -7 3 -14 47 -19 119 -9 136 -46 359 -62
376 -14 13 -57 -231 -64 -365 -4 -75 -11 -118 -20 -127 -7 -8 -13 -31 -13 -52
0 -21 -4 -44 -9 -51 -12 -19 -31 166 -31 306 -1 64 -5 162 -10 217 -23 257
-31 325 -38 344 -4 11 -6 -203 -4 -475 3 -543 -10 -667 -22 -198 -4 158 -11
306 -16 328 -5 23 -17 94 -27 160 -9 65 -19 114 -21 108 -2 -6 6 -78 17 -160
19 -132 20 -178 15 -418 -6 -255 -8 -270 -28 -292 l-21 -24 -5 169 c-3 92 -3
317 0 498 3 182 2 334 -1 338 -3 4 -16 -41 -27 -100z m107 -740 c0 -58 -3
-104 -9 -108 -7 -4 -9 55 -8 172 1 138 3 162 8 108 4 -38 8 -116 9 -172z m258
165 c-2 -13 -4 -3 -4 22 0 25 2 35 4 23 2 -13 2 -33 0 -45z m13 -305 c-5 -56
-7 -28 -7 102 0 153 1 165 7 78 3 -55 3 -136 0 -180z m201 -33 c29 -16 23 -25
-16 -26 -32 0 -45 13 -28 29 9 10 21 9 44 -3z m-401 -18 c0 -13 -12 -22 -22
-16 -10 6 -1 24 13 24 5 0 9 -4 9 -8z m315 -1 c3 -5 1 -12 -5 -16 -5 -3 -10 1
-10 9 0 18 6 21 15 7z m-285 -132 c-11 -20 -22 -24 -33 -12 -9 9 23 44 34 37
5 -3 4 -14 -1 -25z m254 15 c9 -8 16 -20 16 -25 0 -13 -24 -11 -38 3 -14 14
-16 38 -3 38 5 0 17 -7 25 -16z m111 -84 c-37 -41 -59 24 -22 69 9 11 14 7 26
-18 13 -28 13 -32 -4 -51z m-465 51 c14 -28 12 -57 -5 -71 -12 -10 -15 -10
-15 3 0 8 -7 17 -15 21 -18 7 -20 37 -3 54 17 17 26 15 38 -7z m280 -63 c0
-10 -4 -18 -10 -18 -5 0 -10 15 -10 33 0 24 3 28 10 17 5 -8 10 -23 10 -32z
m78 -43 c-3 -28 -6 -30 -45 -30 -50 0 -63 -11 -84 -72 l-15 -47 -13 47 c-17
58 -25 65 -81 69 -44 3 -45 4 -45 38 0 31 3 35 25 35 16 0 28 -8 35 -22 5 -12
17 -24 27 -26 10 -3 25 -21 33 -41 9 -20 17 -36 20 -36 3 0 11 16 20 36 8 20
23 38 32 40 10 3 26 18 35 35 16 26 20 28 38 17 15 -9 20 -21 18 -43z m-413
-40 c9 -25 27 -58 39 -73 31 -38 69 -102 64 -108 -17 -17 -126 138 -135 192
-8 49 11 42 32 -11z m465 23 c0 -27 -48 -133 -56 -125 -3 3 1 19 10 35 8 16
18 48 22 71 7 43 24 57 24 19z m110 5 c-1 -36 -47 -124 -88 -169 -23 -26 -45
-45 -48 -42 -8 8 18 55 54 101 17 21 38 58 48 83 17 45 34 58 34 27z m-454
-91 c20 -42 13 -52 -11 -15 -10 14 -19 47 -21 72 l-4 46 11 -35 c5 -19 17 -50
25 -68z m77 -32 c7 -29 -8 -25 -21 5 -16 34 -15 40 2 26 8 -6 16 -21 19 -31z
m177 35 c0 -14 -32 -66 -37 -61 -8 7 17 66 28 66 5 0 9 -2 9 -5z m210 -142 c0
-29 -4 -53 -9 -53 -9 0 -20 118 -12 126 11 10 21 -25 21 -73z m-606 4 c-4 -26
-11 -44 -15 -41 -10 6 -12 65 -3 89 12 31 24 -1 18 -48z m234 -6 c3 -8 -1 -12
-9 -9 -7 2 -15 10 -17 17 -3 8 1 12 9 9 7 -2 15 -10 17 -17z m136 10 c3 -5 -1
-14 -9 -21 -13 -10 -15 -9 -15 9 0 21 14 28 24 12z m134 -153 c-13 -53 -16
-55 -103 -60 -55 -3 -60 -1 -63 19 -2 15 5 25 25 35 21 10 27 20 25 38 -1 13
-7 27 -13 31 -6 3 3 9 20 11 40 6 45 -2 36 -58 -5 -36 -3 -45 11 -51 11 -4 24
2 37 18 15 19 18 33 13 70 -3 25 -3 49 1 53 15 14 22 -59 11 -106z m-413 66
c-8 -44 9 -90 36 -97 27 -7 31 5 23 64 -6 47 -5 52 10 46 10 -4 22 -7 27 -7 4
0 7 -17 6 -37 -2 -32 1 -38 20 -41 23 -3 39 -34 28 -52 -4 -6 -16 -8 -28 -4
-12 4 -40 6 -63 5 -24 -1 -45 4 -51 11 -29 35 -37 148 -11 148 6 0 8 -14 3
-36z m-210 -63 c9 -18 11 -32 5 -36 -12 -7 -44 41 -35 55 9 15 13 13 30 -19z
m812 -43 c-3 -8 -6 -5 -6 6 -1 11 2 17 5 13 3 -3 4 -12 1 -19z m-639 -29 c-3
-8 -7 -3 -11 10 -4 17 -3 21 5 13 5 -5 8 -16 6 -23z m484 9 c-7 -7 -12 -8 -12
-2 0 14 12 26 19 19 2 -3 -1 -11 -7 -17z m121 -71 c-3 -23 0 -62 7 -85 10 -37
17 -46 55 -62 35 -15 44 -25 50 -52 4 -18 29 -109 56 -203 27 -93 49 -177 48
-185 0 -8 -33 50 -73 130 -40 80 -98 194 -129 254 -61 116 -68 151 -43 211 20
48 35 44 29 -8z m-855 15 c3 -11 -85 -108 -92 -101 -3 2 12 30 32 61 35 55 51
66 60 40z m143 -3 c18 -35 29 -238 14 -275 -13 -32 -246 -347 -252 -340 -2 2
49 108 112 237 l116 234 -6 83 c-3 45 -4 82 -1 82 3 0 10 -10 17 -21z m887
-51 c30 -33 51 -62 49 -65 -5 -4 -147 86 -147 94 0 9 26 32 35 32 6 -1 34 -28
63 -61z m-518 -102 c-6 -20 -16 -38 -21 -42 -10 -6 -44 65 -35 74 3 3 6 1 6
-4 0 -6 7 -19 14 -30 14 -18 15 -18 27 14 15 44 24 33 9 -12z m-255 -33 c-4
-10 -20 -58 -35 -108 -65 -203 -98 -299 -99 -287 -3 42 43 250 61 276 16 23
19 37 14 75 -7 55 -3 61 37 61 24 0 28 -3 22 -17z m469 0 c3 -10 32 -107 66
-216 34 -109 60 -201 58 -203 -3 -2 -33 56 -68 129 -102 213 -101 210 -94 261
7 47 28 63 38 29z m-144 -142 c0 -28 -33 -207 -41 -221 -6 -10 -7 -5 -4 15 20
129 26 215 16 234 -17 32 -12 38 9 11 11 -14 20 -31 20 -39z"/>
<path d="M1032 2795 c0 -16 2 -22 5 -12 2 9 2 23 0 30 -3 6 -5 -1 -5 -18z"/>
<path d="M1551 2784 c0 -11 3 -14 6 -6 3 7 2 16 -1 19 -3 4 -6 -2 -5 -13z"/>
<path d="M1402 2770 c0 -14 2 -19 5 -12 2 6 2 18 0 25 -3 6 -5 1 -5 -13z"/>
<path d="M1393 2670 c0 -25 2 -35 4 -22 2 12 2 32 0 45 -2 12 -4 2 -4 -23z"/>
<path d="M1022 2660 c0 -19 2 -27 5 -17 2 9 2 25 0 35 -3 9 -5 1 -5 -18z"/>
<path d="M1383 2560 c0 -25 2 -35 4 -22 2 12 2 32 0 45 -2 12 -4 2 -4 -23z"/>
<path d="M1373 2405 c0 -22 2 -30 4 -17 2 12 2 30 0 40 -3 9 -5 -1 -4 -23z"/>
<path d="M1372 2310 c0 -19 2 -27 5 -17 2 9 2 25 0 35 -3 9 -5 1 -5 -18z"/>
</g>
</svg>
