<?xml version="1.0" standalone="no"?>
<!DOCTYPE svg PUBLIC "-//W3C//DTD SVG 20010904//EN"
 "http://www.w3.org/TR/2001/REC-SVG-20010904/DTD/svg10.dtd">
<svg version="1.0" xmlns="http://www.w3.org/2000/svg"
 width="244.000000pt" height="305.000000pt" viewBox="0 0 244.000000 305.000000"
 preserveAspectRatio="xMidYMid meet">
<metadata>
Created by potrace 1.16, written by Peter Selinger 2001-2019
</metadata>
<g transform="translate(0.000000,305.000000) scale(0.100000,-0.100000)"
fill="#000000" stroke="none">
<path d="M1537 2838 c-48 -215 -67 -382 -75 -685 l-7 -225 25 -13 c14 -7 36
-25 49 -39 l25 -26 25 23 c14 13 39 31 54 41 l29 18 -6 146 c-12 285 -17 358
-32 480 -9 67 -22 151 -30 185 -13 59 -14 59 -8 12 3 -27 14 -111 25 -185 12
-84 21 -225 25 -375 l7 -240 -39 -27 c-33 -24 -40 -25 -47 -13 -5 9 -7 236 -5
505 2 270 3 490 2 490 0 0 -8 -33 -17 -72z"/>
<path d="M896 2832 c-49 -217 -75 -472 -76 -749 0 -158 1 -163 23 -174 12 -6
34 -23 48 -36 26 -24 27 -24 45 -6 11 11 34 30 53 43 l33 23 -6 176 c-11 289
-38 543 -72 672 -7 30 -11 38 -8 19 47 -319 64 -501 64 -700 l0 -145 -34 -27
c-19 -16 -39 -28 -45 -28 -6 0 -10 165 -11 476 0 322 3 473 10 469 6 -4 10 4
10 19 0 51 -19 34 -34 -32z"/>
<path d="M1098 2494 c2 -335 1 -387 -13 -400 -8 -9 -16 -30 -16 -47 l-2 -32
-7 35 c-6 24 -8 5 -8 -63 1 -97 1 -99 29 -120 16 -11 29 -28 29 -37 0 -31 -13
-30 -29 3 -15 30 -20 32 -61 30 -34 -2 -50 -8 -67 -28 -13 -14 -23 -35 -23
-45 0 -31 -17 -32 -28 -1 -17 47 -47 71 -91 71 -31 0 -44 -6 -61 -27 -11 -15
-20 -36 -18 -47 3 -18 9 -20 41 -18 32 3 43 -2 72 -31 38 -38 43 -58 20 -77
-32 -26 -15 -106 42 -200 40 -66 41 -86 8 -130 -14 -19 -28 -52 -32 -73 -9
-61 -23 -29 -28 67 -6 104 -15 126 -54 126 -78 0 -81 -89 -6 -218 26 -45 44
-86 40 -90 -4 -4 -10 -2 -12 5 -5 13 -69 100 -90 121 -15 16 -33 77 -33 116 0
16 12 50 26 74 l27 45 -23 19 c-32 26 -94 24 -120 -4 -25 -27 -25 -27 0 -113
11 -38 20 -84 20 -101 0 -47 -19 -92 -42 -100 -19 -6 -20 -15 -7 -63 4 -15 -7
-20 -210 -96 -68 -25 -126 -44 -128 -41 -3 3 35 31 83 62 217 140 284 184 284
187 0 2 -6 26 -14 53 -8 27 -17 76 -21 109 -7 54 -9 57 -16 31 -5 -16 -5 -56
0 -88 4 -32 6 -60 3 -63 -2 -2 -17 -1 -33 2 -26 5 -39 -4 -117 -79 -48 -47
-127 -124 -177 -171 -49 -47 -87 -88 -84 -91 4 -4 429 136 450 149 5 4 9 17 9
31 0 30 12 30 76 0 92 -43 122 -121 60 -156 -23 -12 -34 -31 -52 -85 -21 -67
-130 -438 -141 -480 l-5 -20 19 20 c26 27 323 372 350 407 19 25 20 31 8 65
-7 21 -11 41 -8 45 2 5 22 8 44 8 37 0 39 -2 40 -32 l1 -33 7 30 c5 24 12 31
34 33 24 3 28 0 23 -15 -3 -10 -26 -106 -51 -213 -54 -231 -55 -234 -50 -150
4 51 1 44 -10 -35 -8 -55 -14 -106 -13 -113 2 -7 24 45 50 115 104 281 115
316 110 363 l-4 44 23 -15 c12 -9 28 -24 36 -35 11 -18 10 -24 -17 -54 -16
-18 -30 -41 -30 -49 0 -9 20 -117 45 -241 25 -124 53 -263 61 -310 9 -47 17
-86 18 -88 3 -2 33 151 119 590 11 56 10 57 -21 93 -32 36 -33 44 -4 78 26 30
45 22 38 -17 -5 -25 3 -59 30 -132 19 -55 54 -150 77 -213 22 -63 43 -109 45
-103 2 6 -11 118 -27 249 -17 131 -31 241 -31 246 0 4 23 7 51 7 50 0 51 -1
45 -26 -20 -76 -19 -77 31 -135 26 -30 71 -82 98 -114 92 -109 238 -275 241
-275 2 0 1 6 -1 13 -2 6 -25 82 -50 167 -127 426 -120 406 -158 412 -17 2 -23
11 -25 35 -3 27 4 40 40 75 40 40 111 74 130 62 4 -3 8 -16 8 -30 0 -13 1 -24
3 -24 2 0 108 -36 236 -79 127 -44 228 -75 224 -68 -7 12 -211 210 -310 301
-45 42 -56 47 -82 41 l-30 -6 6 93 c4 62 2 90 -5 83 -5 -5 -13 -54 -16 -108
l-7 -99 40 7 c33 5 46 3 67 -14 44 -35 256 -242 252 -246 -2 -2 -36 15 -76 38
-209 122 -282 169 -301 196 -25 35 -28 100 -6 161 20 57 19 103 -3 123 -21 19
-83 22 -113 7 -26 -14 -24 -38 6 -82 14 -20 25 -48 25 -61 0 -43 -29 -108 -69
-156 -21 -25 -47 -63 -58 -85 -15 -28 -21 -35 -26 -23 -3 9 14 48 41 94 59 98
72 127 72 162 0 49 -59 88 -96 63 -12 -8 -26 -83 -29 -158 -2 -53 -9 -74 -26
-74 -7 0 -8 15 -4 38 5 34 2 44 -30 82 -40 47 -39 62 2 117 53 69 83 203 48
217 -23 9 -18 32 16 71 27 30 37 35 75 35 38 0 44 3 44 21 0 56 -49 87 -108
68 -27 -9 -39 -21 -55 -58 l-20 -46 -10 30 c-14 44 -44 72 -84 78 -46 8 -68
-4 -84 -45 l-13 -33 -3 27 c-3 20 3 34 26 55 l30 28 -10 335 c-5 184 -13 391
-19 459 -5 68 -10 135 -10 147 0 13 -3 24 -7 24 -5 0 -7 -170 -5 -377 3 -368
-6 -534 -28 -541 -6 -2 -8 -18 -4 -37 3 -18 1 -35 -4 -39 -6 -4 -12 55 -17
157 -3 89 -11 203 -16 252 -10 98 -46 292 -59 314 -9 16 -45 -132 -60 -244 -9
-67 -30 -372 -30 -444 0 -19 -2 -32 -5 -30 -2 3 -6 156 -9 340 -4 311 -20 629
-35 656 -3 6 -5 -161 -3 -373z m177 -160 c15 -123 17 -283 6 -414 -4 -53 -8 7
-13 201 -4 151 -11 291 -14 310 -4 18 -4 31 0 28 4 -4 14 -60 21 -125z m25
-546 c0 -51 -3 -68 -10 -58 -16 24 -11 130 6 130 2 0 4 -33 4 -72z m-250 -29
c11 -8 12 -12 3 -16 -18 -7 -16 -44 3 -71 11 -15 15 -40 13 -75 -1 -29 1 -65
6 -80 4 -15 5 -30 2 -33 -10 -11 -88 111 -93 148 -4 21 -10 38 -14 38 -4 0
-11 7 -14 16 -8 21 18 62 47 74 29 11 30 11 47 -1z m445 -14 c28 -27 32 -57
10 -75 -8 -7 -15 -21 -15 -32 0 -25 -32 -85 -68 -128 -34 -40 -48 -37 -31 6 7
16 11 52 10 81 -2 35 2 60 13 75 22 30 21 68 -1 68 -32 0 7 23 50 29 4 0 19
-10 32 -24z m-320 -135 c38 -14 37 -27 -3 -26 -35 1 -37 3 -42 41 -3 22 -1 49
5 60 9 17 10 14 13 -23 3 -34 8 -45 27 -52z m125 25 c0 -2 -7 -5 -15 -9 -12
-4 -15 3 -15 37 l1 42 14 -34 c8 -18 15 -35 15 -36z m38 8 c-3 -57 -3 -58 -35
-61 -26 -3 -32 0 -27 12 3 9 15 16 25 16 16 0 19 8 19 45 0 25 5 45 10 45 7 0
10 -22 8 -57z m-394 -68 c10 -26 15 -53 11 -63 -6 -14 -11 -9 -26 23 -19 41
-25 85 -11 85 4 0 15 -20 26 -45z m153 13 c-3 -7 -5 -2 -5 12 0 14 2 19 5 13
2 -7 2 -19 0 -25z m463 7 c0 -30 -36 -105 -50 -105 -12 0 -3 42 16 79 8 14 14
32 14 39 0 6 5 12 10 12 6 0 10 -11 10 -25z m-314 -82 c-9 -41 -11 -44 -17
-23 -10 36 -10 52 0 46 5 -3 11 1 15 9 11 31 13 13 2 -32z m-92 -71 c15 -35
26 -66 23 -68 -7 -7 -67 113 -67 133 0 25 13 6 44 -65z m175 -9 c-17 -38 -34
-63 -36 -57 -2 5 11 41 28 80 18 38 34 63 36 57 3 -7 -10 -43 -28 -80z m-299
13 c0 -8 -4 -18 -10 -21 -5 -3 -10 3 -10 14 0 12 5 21 10 21 6 0 10 -6 10 -14z
m430 -12 c0 -8 -4 -14 -10 -14 -5 0 -10 9 -10 21 0 11 5 17 10 14 6 -3 10 -13
10 -21z m-362 -26 c17 -17 15 -38 -3 -38 -12 0 -35 28 -35 44 0 11 26 6 38 -6z
m286 -35 c-17 -12 -19 -12 -23 3 -2 10 5 24 15 31 17 12 19 12 23 -3 2 -10 -5
-24 -15 -31z m-345 -115 c10 -38 15 -68 11 -68 -12 0 -40 90 -39 124 1 37 3
32 28 -56z m421 64 c0 -22 -32 -128 -42 -137 -7 -7 -9 -3 -5 15 4 14 11 49 17
78 7 28 16 52 21 52 5 0 9 -4 9 -8z m-372 -50 c0 -21 4 -48 11 -61 12 -21 14
-21 30 -7 22 20 47 20 55 0 8 -20 -1 -34 -21 -34 -9 0 -24 -7 -34 -16 -15 -14
-18 -12 -38 29 -26 53 -28 127 -4 127 1 0 2 -17 1 -38z m82 28 c0 -5 -9 -10
-21 -10 -11 0 -17 5 -14 10 3 6 13 10 21 10 8 0 14 -4 14 -10z m164 1 c3 -4 3
-11 0 -14 -8 -8 -34 3 -34 14 0 11 27 12 34 0z m66 -24 c0 -32 -18 -90 -34
-112 -12 -16 -17 -18 -27 -7 -7 6 -23 12 -36 12 -16 0 -23 6 -23 20 0 27 25
36 56 19 32 -17 44 -2 44 59 0 26 4 41 10 37 6 -3 10 -16 10 -28z m-486 -63
c9 -3 16 -15 16 -26 0 -28 -34 -19 -38 10 -4 24 -2 25 22 16z m633 -40 c6 -16
-15 -37 -28 -28 -10 6 1 44 12 44 6 0 12 -7 16 -16z m-691 -91 c-11 -11 -19 6
-11 24 8 17 8 17 12 0 3 -10 2 -21 -1 -24z m764 -18 c19 -22 7 -41 -13 -21
-18 19 -22 36 -8 36 5 0 14 -7 21 -15z m-731 -92 c-1 -32 1 -71 4 -88 5 -21 2
-38 -10 -57 -38 -57 -258 -318 -261 -309 -2 5 26 63 61 128 106 193 177 335
177 353 0 9 3 20 7 23 17 18 23 2 22 -50z m753 17 c11 -19 30 -33 57 -41 47
-14 40 1 126 -277 32 -101 55 -186 51 -189 -3 -3 -10 5 -15 18 -5 13 -43 84
-85 158 -42 73 -76 135 -76 136 0 2 -19 36 -43 77 -39 66 -67 128 -67 149 0
17 37 -4 52 -31z m-392 -46 c0 -14 -14 -33 -21 -28 -15 9 -10 31 6 31 8 0 15
-1 15 -3z m200 -204 c22 -102 43 -196 46 -210 2 -14 -23 51 -56 144 -33 92
-60 183 -60 201 0 41 10 69 20 58 5 -4 27 -91 50 -193z m-113 22 c-22 -123
-71 -352 -74 -348 -3 3 2 90 11 195 12 135 14 197 6 210 -21 41 -8 45 26 8 28
-30 35 -45 31 -65z"/>
<path d="M1082 2800 c0 -14 2 -19 5 -12 2 6 2 18 0 25 -3 6 -5 1 -5 -13z"/>
<path d="M1351 2724 c0 -11 3 -14 6 -6 3 7 2 16 -1 19 -3 4 -6 -2 -5 -13z"/>
<path d="M1073 2635 c0 -22 2 -30 4 -17 2 12 2 30 0 40 -3 9 -5 -1 -4 -23z"/>
<path d="M1343 2560 c0 -36 2 -50 4 -32 2 17 2 47 0 65 -2 17 -4 3 -4 -33z"/>
<path d="M1063 2480 c0 -36 2 -50 4 -32 2 17 2 47 0 65 -2 17 -4 3 -4 -33z"/>
<path d="M1334 2260 c0 -69 1 -97 3 -62 2 34 2 90 0 125 -2 34 -3 6 -3 -63z"/>
<path d="M1053 2185 c0 -22 2 -30 4 -17 2 12 2 30 0 40 -3 9 -5 -1 -4 -23z"/>
<path d="M997 853 c-8 -15 -29 -214 -23 -220 3 -4 6 5 6 18 1 13 7 66 14 117
12 88 13 102 3 85z"/>
</g>
</svg>
