<?xml version="1.0" standalone="no"?>
<!DOCTYPE svg PUBLIC "-//W3C//DTD SVG 20010904//EN"
 "http://www.w3.org/TR/2001/REC-SVG-20010904/DTD/svg10.dtd">
<svg version="1.0" xmlns="http://www.w3.org/2000/svg"
 width="244.000000pt" height="305.000000pt" viewBox="0 0 244.000000 305.000000"
 preserveAspectRatio="xMidYMid meet">
<metadata>
Created by potrace 1.16, written by Peter Selinger 2001-2019
</metadata>
<g transform="translate(0.000000,305.000000) scale(0.100000,-0.100000)"
fill="#000000" stroke="none">
<path d="M1081 2894 c0 -11 3 -14 6 -6 3 7 2 16 -1 19 -3 4 -6 -2 -5 -13z"/>
<path d="M1548 2905 c-3 -5 -13 -46 -21 -90 -42 -214 -61 -397 -73 -705 l-7
-175 49 -35 c65 -47 60 -46 100 -11 19 17 39 31 44 31 12 0 14 329 2 347 -4 6
-6 -54 -4 -134 4 -155 -1 -193 -22 -193 -7 0 -21 -9 -31 -20 -10 -11 -22 -20
-27 -20 -10 0 -11 947 0 952 4 2 5 17 2 33 -3 17 -8 26 -12 20z"/>
<path d="M897 2823 c-45 -209 -77 -540 -77 -785 0 -112 1 -118 23 -129 12 -6
34 -23 49 -37 l27 -25 35 31 c19 17 43 35 52 40 16 9 17 27 6 278 -12 270 -28
423 -56 544 -18 73 -16 58 15 -165 12 -87 22 -231 26 -380 l6 -240 -36 -28
c-20 -15 -38 -27 -41 -27 -3 0 -6 214 -6 476 0 261 4 473 8 470 5 -3 6 8 4 25
-7 48 -18 33 -35 -48z"/>
<path d="M1088 2512 c3 -312 1 -370 -15 -457 l-18 -100 -6 170 -5 170 0 -198
1 -199 28 -23 c15 -13 27 -31 27 -40 0 -22 -17 -19 -25 4 -16 51 -104 31 -132
-29 -10 -22 -21 -40 -24 -40 -4 0 -12 14 -19 30 -16 40 -46 60 -87 60 -41 0
-73 -30 -73 -68 0 -28 2 -29 46 -28 40 1 49 -3 70 -29 28 -35 30 -60 8 -82
-22 -22 -12 -80 26 -159 37 -75 41 -148 10 -187 -11 -14 -20 -30 -20 -35 0 -6
-4 -13 -9 -17 -5 -3 -9 14 -9 37 0 68 -16 140 -33 151 -26 16 -68 0 -80 -31
-15 -40 -3 -89 42 -165 22 -37 39 -73 37 -78 -2 -6 -27 19 -55 56 -38 50 -55
82 -63 122 -11 50 -10 56 14 98 14 24 26 50 26 59 0 38 -96 50 -130 16 -24
-24 -25 -42 -3 -117 9 -32 17 -82 17 -112 1 -48 -2 -56 -30 -78 -29 -22 -31
-26 -21 -53 6 -16 9 -31 7 -33 -12 -10 -333 -127 -337 -123 -3 3 48 39 113 81
264 171 246 156 239 195 -3 19 -11 70 -18 112 -18 112 -31 110 -24 -5 l7 -98
-33 6 c-30 5 -41 -3 -206 -165 -96 -94 -172 -173 -169 -175 3 -3 27 3 54 13
27 11 127 45 222 77 158 53 172 60 172 82 0 32 18 37 66 17 47 -19 94 -61 94
-84 0 -9 -13 -41 -29 -71 -25 -46 -164 -491 -178 -569 l-5 -25 24 27 c55 63
334 392 346 408 9 13 10 24 2 44 -19 52 -14 66 26 66 36 0 36 0 30 -37 -19
-124 -37 -276 -34 -291 2 -9 12 46 22 123 26 194 27 200 57 200 13 0 24 -4 23
-10 -1 -5 -25 -106 -55 -222 -33 -131 -57 -206 -61 -195 -5 12 -7 8 -7 -13 -1
-16 -4 -48 -6 -70 -4 -31 2 -20 30 50 20 50 59 149 87 220 42 106 52 140 50
183 -1 28 2 52 6 52 14 0 52 -31 63 -51 9 -17 5 -25 -20 -51 -17 -18 -31 -39
-31 -47 0 -13 116 -609 124 -635 2 -9 92 438 116 582 11 63 11 63 -20 98 -33
38 -31 58 12 88 33 24 36 21 35 -36 -1 -44 13 -89 78 -255 44 -112 81 -199 83
-194 3 9 -54 448 -63 489 -5 20 -2 22 35 22 44 0 48 -8 31 -68 -9 -30 -7 -37
23 -70 41 -47 69 -79 142 -168 94 -112 209 -242 212 -239 2 1 -27 103 -64 226
-37 123 -73 245 -80 271 -16 61 -31 88 -49 88 -7 0 -19 16 -25 35 -10 30 -9
38 10 63 20 26 113 82 138 82 5 0 13 -14 18 -32 6 -21 18 -34 34 -39 14 -4
116 -39 228 -78 112 -39 200 -66 196 -60 -8 14 -275 274 -326 318 -30 26 -43
31 -66 26 l-28 -6 3 93 c3 111 -11 83 -20 -40 l-7 -84 40 7 c27 5 46 2 60 -8
29 -20 262 -249 257 -253 -1 -2 -35 16 -75 39 -206 120 -283 169 -298 192 -24
37 -29 97 -10 151 23 67 21 130 -3 144 -31 16 -87 12 -111 -8 l-23 -19 27 -45
c44 -76 33 -133 -48 -241 -59 -79 -72 -74 -24 10 48 84 58 109 58 152 0 44
-24 71 -63 71 -36 0 -45 -21 -53 -128 -4 -50 -11 -89 -15 -86 -5 3 -9 15 -9
26 0 12 -11 36 -25 54 -34 45 -33 94 4 154 48 78 67 175 36 186 -24 10 -17 49
14 83 24 26 36 31 75 31 34 0 46 4 46 15 0 29 -23 64 -51 75 -49 21 -100 -7
-119 -66 -12 -35 -30 -38 -30 -5 0 30 -37 68 -73 75 -46 9 -63 1 -78 -36 -11
-27 -14 -29 -20 -12 -11 26 -11 46 0 40 4 -3 19 6 31 19 24 25 24 25 21 278
-1 138 -9 351 -17 472 -7 121 -14 223 -14 228 0 4 -3 7 -7 7 -5 0 -7 -161 -5
-357 4 -350 -2 -452 -30 -528 -6 -16 -10 -43 -10 -59 1 -16 -2 -35 -7 -43 -4
-9 -11 54 -15 144 -3 87 -11 201 -17 253 -11 104 -46 297 -59 319 -5 9 -16
-21 -29 -82 -31 -135 -38 -189 -52 -426 -7 -116 -16 -208 -20 -205 -5 2 -8
129 -9 281 -1 318 -21 697 -39 707 -3 2 -5 -156 -3 -352z m197 -367 c4 -99 2
-207 -3 -240 -8 -52 -10 -39 -11 101 0 88 -3 217 -6 285 -3 93 -2 113 5 79 5
-25 12 -126 15 -225z m12 -392 c-2 -21 -4 -6 -4 32 0 39 2 55 4 38 2 -18 2
-50 0 -70z m-254 -9 c-2 -10 1 -37 7 -59 5 -22 11 -75 14 -117 l4 -78 -22 28
c-32 37 -56 87 -56 113 0 12 -8 31 -17 41 -22 24 -8 67 27 85 31 16 46 11 43
-13z m449 -1 c28 -32 31 -61 8 -73 -13 -7 -20 -21 -20 -39 0 -33 -14 -62 -51
-110 l-27 -34 5 89 c3 49 10 97 14 106 12 23 11 58 -2 58 -5 0 -7 5 -4 10 10
16 61 11 77 -7z m-316 -133 c15 -6 31 -25 40 -46 l16 -37 24 40 c13 22 33 43
44 46 16 4 20 13 20 46 0 41 13 55 24 25 8 -22 7 -77 -2 -91 -4 -6 -23 -13
-42 -15 -32 -3 -35 -6 -50 -57 l-17 -53 -14 53 c-13 51 -16 54 -49 57 -19 2
-38 9 -42 15 -12 18 -9 66 5 90 11 20 12 19 15 -21 3 -35 8 -45 28 -52z m124
33 c0 -7 -7 -13 -15 -13 -11 0 -15 11 -15 38 l1 37 14 -25 c8 -14 14 -31 15
-37z m-358 -60 c17 -35 16 -53 -2 -53 -9 0 -30 54 -30 76 0 25 16 14 32 -23z
m435 5 c-3 -7 -5 -2 -5 12 0 14 2 19 5 13 2 -7 2 -19 0 -25z m183 13 c0 -32
-22 -81 -36 -81 -18 0 -18 6 4 57 18 45 32 56 32 24z m-460 -11 c0 -5 -5 -10
-11 -10 -5 0 -7 5 -4 10 3 6 8 10 11 10 2 0 4 -4 4 -10z m30 -107 c23 -51 22
-62 -3 -35 -17 18 -35 82 -24 82 3 0 15 -21 27 -47z m230 3 c-6 -19 -17 -40
-25 -46 -7 -6 -17 -25 -20 -41 -4 -16 -11 -29 -16 -29 -14 0 -11 10 27 88 37
75 55 90 34 28z m-343 -44 c-14 -17 -22 0 -12 26 5 14 7 14 15 2 5 -9 4 -20
-3 -28z m453 2 c0 -16 -16 -19 -25 -4 -8 13 4 32 16 25 5 -4 9 -13 9 -21z
m-381 -36 c31 -33 9 -54 -23 -22 -18 17 -21 44 -6 44 5 0 18 -10 29 -22z m311
-23 c-14 -17 -40 -20 -40 -5 0 5 10 19 23 30 19 18 22 19 25 5 2 -9 -2 -22 -8
-30z m-451 -12 c1 -7 -3 -13 -9 -13 -5 0 -10 15 -9 33 0 27 2 29 9 12 5 -11 9
-26 9 -32z m225 21 c8 -21 8 -24 -3 -24 -5 0 -11 9 -14 20 -6 24 8 27 17 4z
m353 -16 c-3 -7 -5 -2 -5 12 0 14 2 19 5 13 2 -7 2 -19 0 -25z m-490 -188 c-4
-23 -37 79 -36 114 0 24 5 16 20 -34 10 -36 18 -72 16 -80z m418 57 c-16 -48
-35 -82 -35 -63 0 9 29 114 37 136 5 12 7 12 10 -3 3 -9 -3 -41 -12 -70z
m-357 -49 c11 -11 16 -10 26 5 18 23 53 22 61 -3 8 -26 -1 -39 -24 -33 -10 2
-25 -3 -34 -11 -8 -9 -19 -16 -23 -16 -4 0 -4 3 -1 7 4 3 -2 16 -13 28 -25 26
-36 83 -24 122 7 24 9 21 13 -29 4 -31 12 -63 19 -70z m312 77 c0 -30 -18 -87
-35 -109 -12 -16 -18 -17 -27 -8 -7 7 -25 12 -41 12 -24 0 -28 4 -25 23 2 16
11 23 31 25 15 2 27 -1 27 -7 0 -17 37 -13 44 5 3 9 6 37 6 62 0 34 3 43 10
32 5 -8 10 -24 10 -35z m-255 23 c-11 -6 -23 -16 -27 -22 -5 -7 -8 -5 -8 6 0
17 14 26 40 27 10 0 8 -3 -5 -11z m184 -2 c8 -10 9 -16 1 -21 -5 -3 -10 -1
-10 4 0 6 -7 11 -15 11 -8 0 -15 5 -15 10 0 15 26 12 39 -4z m-429 -81 c16
-29 7 -43 -15 -25 -16 13 -21 50 -7 50 5 0 15 -11 22 -25z m650 -34 c0 -10 -7
-21 -15 -25 -16 -6 -19 3 -9 28 8 22 24 20 24 -3z m-708 -73 c-9 -9 -12 -7
-12 12 0 19 3 21 12 12 9 -9 9 -15 0 -24z m774 -23 c4 -14 4 -28 1 -31 -9 -9
-36 27 -31 41 9 23 23 18 30 -10z m-736 -94 c0 -32 3 -78 6 -102 l6 -44 -126
-156 c-69 -86 -132 -162 -141 -169 -14 -12 -14 -10 -5 16 6 15 15 33 19 39 9
11 119 220 175 332 20 39 36 84 36 101 0 16 3 32 7 35 16 17 23 3 23 -52z
m751 1 c5 -13 28 -31 54 -43 l44 -20 45 -142 c67 -215 88 -288 82 -294 -2 -3
-13 12 -24 34 -10 21 -56 106 -102 188 -46 83 -98 177 -117 210 -18 34 -33 75
-33 94 0 34 0 34 21 15 12 -10 25 -29 30 -42z m-392 -55 c-12 -27 -29 -27 -29
-1 0 8 5 12 10 9 6 -3 13 1 16 10 4 9 8 14 11 12 2 -3 -2 -16 -8 -30z m191
-105 c12 -53 33 -137 46 -187 26 -98 31 -141 9 -85 -97 252 -116 321 -99 364
11 29 22 6 44 -92z m-105 -70 c-8 -62 -66 -336 -71 -341 -4 -3 -4 12 -1 34 3
22 11 109 18 193 10 119 10 158 1 173 -25 39 -10 43 23 6 24 -28 32 -46 30
-65z"/>
<path d="M1570 2814 c0 -5 7 -47 15 -94 13 -77 39 -295 48 -395 3 -29 4 -23 5
20 2 68 -18 245 -43 380 -15 80 -25 116 -25 89z"/>
<path d="M1362 2745 c0 -16 2 -22 5 -12 2 9 2 23 0 30 -3 6 -5 -1 -5 -18z"/>
<path d="M1062 2645 c0 -16 2 -22 5 -12 2 9 2 23 0 30 -3 6 -5 -1 -5 -18z"/>
<path d="M1353 2605 c0 -33 2 -45 4 -27 2 18 2 45 0 60 -2 15 -4 0 -4 -33z"/>
<path d="M1054 2475 c0 -49 1 -71 3 -48 2 23 2 64 0 90 -2 26 -3 8 -3 -42z"/>
<path d="M1344 2415 c0 -55 1 -76 3 -47 2 29 2 74 0 100 -2 26 -3 2 -3 -53z"/>
<path d="M1333 2030 c0 -30 2 -43 4 -27 2 15 2 39 0 55 -2 15 -4 2 -4 -28z"/>
<path d="M942 560 c0 -19 2 -27 5 -17 2 9 2 25 0 35 -3 9 -5 1 -5 -18z"/>
</g>
</svg>
