<?xml version="1.0" standalone="no"?>
<!DOCTYPE svg PUBLIC "-//W3C//DTD SVG 20010904//EN"
 "http://www.w3.org/TR/2001/REC-SVG-20010904/DTD/svg10.dtd">
<svg version="1.0" xmlns="http://www.w3.org/2000/svg"
 width="244.000000pt" height="305.000000pt" viewBox="0 0 244.000000 305.000000"
 preserveAspectRatio="xMidYMid meet">
<metadata>
Created by potrace 1.16, written by Peter Selinger 2001-2019
</metadata>
<g transform="translate(0.000000,305.000000) scale(0.100000,-0.100000)"
fill="#000000" stroke="none">
<path d="M1502 2793 c-40 -226 -72 -571 -72 -784 0 -44 -5 -70 -14 -78 -21
-18 -27 111 -25 559 1 221 -1 403 -3 406 -13 12 -47 -541 -49 -796 -2 -208
-13 -268 -21 -115 -14 255 -53 558 -78 604 -20 38 -71 -311 -88 -604 -8 -150
-19 -82 -23 140 l-3 190 -6 -130 c-3 -71 -7 -120 -8 -107 -1 12 -6 22 -11 22
-5 0 -12 -10 -14 -22 -2 -13 -5 163 -5 391 -1 227 -3 415 -5 417 -6 6 -28
-277 -36 -451 -7 -165 -7 -167 -37 110 -15 145 -31 235 -33 189 -1 -11 3 -45
9 -75 17 -92 40 -423 40 -569 l0 -139 -33 -25 c-19 -15 -37 -26 -40 -26 -4 0
-7 217 -6 483 0 312 4 475 10 462 8 -17 9 -17 4 5 -2 14 -5 32 -5 40 -1 35
-18 -18 -33 -105 -37 -207 -48 -314 -58 -580 -11 -276 -11 -280 10 -293 11 -8
32 -25 46 -38 l27 -25 39 36 c46 41 53 42 73 13 22 -32 20 -38 -11 -32 -36 6
-78 -29 -88 -75 l-7 -33 -25 43 c-29 52 -38 59 -79 59 -31 0 -55 -19 -67 -52
-12 -33 2 -47 38 -41 27 4 39 0 59 -20 33 -34 44 -77 22 -89 -20 -11 -20 -60
0 -113 24 -61 46 -195 38 -224 -6 -20 -11 -5 -20 64 l-13 90 3 -95 c3 -86 2
-92 -10 -65 -7 17 -13 44 -14 60 -1 58 -10 75 -40 75 -47 0 -63 -25 -57 -87 3
-30 15 -70 26 -89 21 -36 27 -64 14 -64 -16 0 -63 88 -74 136 -11 46 -10 54
16 104 l27 54 -22 18 c-30 24 -82 23 -105 -2 -19 -21 -18 -49 5 -152 17 -75 6
-148 -22 -156 -17 -4 -19 -11 -15 -44 6 -45 14 -39 -173 -116 -103 -43 -140
-56 -140 -49 0 2 62 47 138 100 75 53 152 109 171 125 l34 28 -17 65 c-9 36
-16 84 -16 108 0 29 -4 40 -11 35 -8 -5 -9 -32 -5 -90 l7 -84 -28 6 c-30 6
-15 20 -286 -264 -39 -40 -68 -75 -65 -77 2 -3 58 16 124 41 128 49 248 93
277 101 11 4 17 15 17 34 0 25 3 29 24 25 39 -7 86 -35 86 -52 0 -9 -16 -47
-35 -85 -19 -39 -35 -72 -35 -74 0 -7 95 58 98 67 6 14 22 9 22 -7 0 -8 -12
-18 -26 -21 -31 -8 -33 -13 -90 -224 -25 -91 -54 -194 -64 -230 -10 -36 -21
-81 -25 -100 -6 -35 -6 -35 12 -13 10 12 38 47 63 79 25 32 81 104 125 160 44
56 95 121 113 145 40 53 40 58 3 -201 -17 -112 -28 -206 -27 -208 2 -1 15 25
29 60 14 35 55 134 91 221 59 143 64 163 59 208 -5 46 -4 49 16 49 27 0 71
-42 71 -69 0 -11 -12 -29 -27 -40 l-26 -21 23 -133 c12 -72 31 -177 40 -232
10 -55 26 -143 35 -195 9 -52 18 -96 19 -98 2 -1 13 51 25 115 11 65 37 205
56 311 19 106 35 201 35 211 0 10 -9 26 -20 36 -34 30 -35 54 -4 86 15 16 36
29 46 29 15 0 17 -6 12 -43 -6 -38 3 -65 68 -223 41 -98 81 -194 88 -212 7
-18 14 -31 16 -29 2 2 -1 42 -8 88 -9 63 -14 76 -18 54 -4 -24 -9 -12 -29 65
-13 52 -37 141 -52 196 -16 56 -29 104 -29 108 0 4 12 6 27 4 22 -2 29 -10 34
-33 l7 -30 1 33 c1 25 5 32 21 32 23 0 26 -23 10 -65 -12 -30 -6 -44 42 -102
18 -22 44 -55 58 -73 25 -33 66 -85 85 -106 5 -7 44 -55 85 -108 41 -52 76
-94 77 -92 2 2 -31 130 -74 286 l-77 283 -33 13 c-18 8 -33 21 -33 29 0 21 7
19 52 -16 21 -17 41 -29 44 -26 3 3 -8 32 -25 65 -27 53 -28 61 -16 79 16 23
91 57 106 48 5 -4 9 -17 9 -30 0 -25 6 -28 175 -90 50 -18 128 -47 173 -64 46
-17 82 -27 80 -22 -1 6 -77 87 -167 181 -155 162 -165 171 -193 164 l-30 -6 5
86 c3 47 2 88 -2 91 -8 4 -21 -98 -21 -168 l0 -37 38 6 c37 6 38 5 170 -129
121 -124 152 -160 120 -141 -73 43 -327 216 -341 232 -33 37 -37 85 -14 173
19 73 20 83 6 107 -18 33 -77 42 -115 17 l-25 -16 27 -46 c38 -66 31 -139 -21
-218 -50 -74 -68 -59 -25 21 36 65 45 139 21 167 -19 24 -68 22 -81 -3 -6 -11
-9 -24 -6 -28 7 -12 -19 -107 -29 -107 -14 0 -5 191 11 244 19 62 18 111 -2
126 -21 15 -12 46 22 80 18 18 36 25 64 25 36 0 40 2 40 25 0 28 -40 75 -64
75 -33 0 -69 -26 -88 -64 l-21 -41 -10 30 c-16 52 -47 78 -84 71 -43 -6 -43
10 0 43 15 12 22 10 57 -18 l39 -31 46 32 46 33 -6 250 c-5 230 -16 369 -45
550 -6 38 -14 72 -17 75 -3 3 -3 -11 1 -30 20 -110 46 -413 52 -596 l7 -212
-34 -30 c-19 -18 -38 -32 -42 -32 -4 0 -7 227 -5 505 2 278 0 505 -3 505 -3 0
-15 -53 -27 -117z m-242 -563 l8 -195 -2 175 c-1 114 1 159 6 130 12 -67 20
-459 9 -435 -7 14 -10 -26 -10 -123 -1 -113 -4 -147 -16 -158 -13 -14 -15 33
-14 418 1 238 4 422 6 408 2 -14 8 -113 13 -220z m-160 -376 c0 -8 -5 -12 -10
-9 -6 4 -8 11 -5 16 9 14 15 11 15 -7z m280 -6 c0 -19 -2 -20 -10 -8 -13 19
-13 30 0 30 6 0 10 -10 10 -22z m-83 -85 c-2 -16 -4 -5 -4 22 0 28 2 40 4 28
2 -13 2 -35 0 -50z m-172 -22 c-3 -12 -11 -19 -16 -16 -5 4 -5 14 2 26 13 26
23 18 14 -10z m-76 -18 c5 -21 6 -72 2 -113 l-6 -75 -17 30 c-9 17 -19 47 -23
68 -4 20 -11 37 -16 37 -15 0 -10 44 7 68 23 33 42 27 53 -15z m311 11 c0 -8
-4 -12 -10 -9 -5 3 -10 13 -10 21 0 8 5 12 10 9 6 -3 10 -13 10 -21z m119 0
c25 -32 27 -50 6 -62 -9 -4 -18 -26 -22 -48 -4 -31 -37 -104 -47 -104 -5 0 3
220 9 230 11 17 33 11 54 -16z m-187 -69 c3 -14 1 -28 -3 -31 -5 -3 -9 9 -9
25 0 38 6 40 12 6z m-137 -19 c5 -22 14 -36 26 -39 11 -3 26 -21 34 -41 9 -20
17 -36 20 -36 3 0 11 16 20 36 8 20 24 38 35 41 11 3 20 9 20 14 0 4 5 20 11
36 l11 28 12 -24 c22 -40 6 -74 -35 -79 -42 -5 -38 -1 -59 -63 l-18 -52 -7 34
c-4 19 -13 46 -20 60 -11 21 -19 25 -48 21 -31 -3 -35 -1 -40 24 -5 28 10 74
24 74 5 0 11 -15 14 -34z m-189 -76 c7 -32 6 -34 -9 -21 -9 7 -17 27 -17 44 0
40 17 24 26 -23z m121 3 c-3 -10 -5 -2 -5 17 0 19 2 27 5 18 2 -10 2 -26 0
-35z m300 0 c-3 -10 -5 -2 -5 17 0 19 2 27 5 18 2 -10 2 -26 0 -35z m148 15
c-9 -42 -13 -48 -30 -48 -11 0 -11 7 2 40 19 48 37 53 28 8z m-420 -85 c20
-47 13 -68 -8 -26 -16 31 -22 63 -12 63 3 0 12 -17 20 -37z m249 -25 c-23 -44
-30 -20 -8 29 12 26 18 33 21 21 2 -9 -4 -32 -13 -50z m-306 -29 c45 -54 52
-72 25 -67 -10 2 -25 18 -33 35 -8 18 -22 33 -31 33 -9 0 -18 3 -21 6 -7 7 2
44 11 43 3 0 25 -23 49 -50z m412 26 c0 -18 -5 -25 -20 -25 -13 0 -22 -9 -26
-25 -8 -32 -54 -61 -54 -35 0 10 88 110 96 110 2 0 4 -11 4 -25z m80 -80 c0
-43 -4 -75 -10 -75 -5 0 -10 17 -10 38 0 41 10 112 16 112 2 0 4 -34 4 -75z
m-370 -21 c0 -8 -4 -12 -10 -9 -5 3 -10 13 -10 21 0 8 5 12 10 9 6 -3 10 -13
10 -21z m126 1 c-3 -9 -11 -13 -16 -10 -8 5 -7 11 1 21 14 18 24 11 15 -11z
m-223 -172 c5 -7 15 -13 23 -13 10 0 14 14 14 55 0 50 2 55 22 55 20 0 20 -1
4 -19 -22 -25 -13 -59 17 -63 15 -2 23 -11 25 -29 3 -23 0 -25 -35 -24 -21 1
-48 5 -60 9 -30 10 -48 71 -37 123 l8 38 6 -60 c3 -33 9 -66 13 -72z m327 24
c-11 -52 -17 -57 -78 -61 -51 -3 -52 -2 -52 26 0 23 4 28 24 28 32 0 41 35 15
61 -25 25 -24 27 6 21 23 -4 25 -9 25 -58 0 -30 4 -54 9 -54 24 0 41 34 42 83
1 46 2 49 9 23 6 -17 6 -46 0 -69z m175 33 c7 -12 -23 -65 -32 -57 -8 8 7 67
17 67 5 0 12 -5 15 -10z m-663 -52 c-7 -7 -12 -8 -12 -2 0 14 12 26 19 19 2
-3 -1 -11 -7 -17z m518 -25 c-11 -17 -11 -17 -6 0 3 10 6 24 7 30 0 9 2 9 5 0
3 -7 0 -20 -6 -30z m-407 7 c3 -11 1 -18 -4 -14 -5 3 -9 12 -9 20 0 20 7 17
13 -6z m597 -12 c0 -19 -18 -43 -25 -36 -4 3 -2 16 5 27 12 24 20 27 20 9z
m-740 -65 c0 -7 -4 -13 -9 -13 -10 0 -21 25 -21 48 1 15 3 14 15 -2 8 -11 15
-26 15 -33z m715 -94 c8 -44 14 -53 65 -77 38 -18 40 -24 115 -297 13 -49 29
-106 34 -125 21 -74 -4 -29 -179 320 -68 134 -88 195 -76 226 10 26 33 -1 41
-47z m-792 36 c4 -9 -5 -22 -22 -35 -41 -28 -45 -25 -19 15 25 38 33 42 41 20z
m98 -12 c1 -16 3 -55 4 -88 1 -33 4 -69 8 -80 5 -14 -3 -35 -26 -67 -41 -60
-229 -308 -233 -308 -5 0 41 98 114 246 106 214 116 238 108 284 -5 32 -3 40
9 40 9 0 16 -10 16 -27z m787 2 c7 -14 12 -29 12 -33 -1 -10 -40 38 -40 49 0
18 17 8 28 -16z m-448 -115 c-11 -21 -12 -21 -25 -3 -8 10 -15 24 -15 32 0 11
4 9 15 -5 14 -18 15 -18 22 6 5 19 8 21 11 8 2 -9 -2 -27 -8 -38z m-279 -2
c-1 -5 -1 -23 -1 -40 l-1 -33 -14 25 c-19 34 -19 62 1 58 8 -2 15 -6 15 -10z
m97 -44 c2 -41 -8 -76 -68 -224 -39 -96 -68 -164 -65 -150 3 14 28 116 56 228
53 207 71 242 77 146z m226 -101 c4 -4 0 13 -9 38 l-15 44 25 -30 c13 -16 27
-39 30 -50 3 -11 -9 -90 -25 -175 -18 -95 -28 -131 -25 -94 16 214 12 238 -9
49 l-23 -210 -1 265 0 265 23 -48 c12 -26 25 -51 29 -54z m243 -275 c-3 -8 -6
-5 -6 6 -1 11 2 17 5 13 3 -3 4 -12 1 -19z"/>
<path d="M1542 2840 c0 -14 2 -19 5 -12 2 6 2 18 0 25 -3 6 -5 1 -5 -13z"/>
<path d="M962 2790 c0 -19 2 -27 5 -17 2 9 2 25 0 35 -3 9 -5 1 -5 -18z"/>
<path d="M1092 2770 c0 -19 2 -27 5 -17 2 9 2 25 0 35 -3 9 -5 1 -5 -18z"/>
<path d="M1401 2704 c0 -11 3 -14 6 -6 3 7 2 16 -1 19 -3 4 -6 -2 -5 -13z"/>
<path d="M1103 2645 c0 -27 2 -38 4 -22 2 15 2 37 0 50 -2 12 -4 0 -4 -28z"/>
<path d="M1413 2555 c0 -22 2 -30 4 -17 2 12 2 30 0 40 -3 9 -5 -1 -4 -23z"/>
<path d="M1113 2480 c0 -36 2 -50 4 -32 2 17 2 47 0 65 -2 17 -4 3 -4 -33z"/>
<path d="M1424 2370 c0 -63 1 -89 3 -57 2 31 2 83 0 115 -2 31 -3 5 -3 -58z"/>
<path d="M1492 845 c0 -16 8 -77 18 -135 12 -66 17 -83 13 -45 -7 83 -30 217
-31 180z"/>
</g>
</svg>
