<?xml version="1.0" standalone="no"?>
<!DOCTYPE svg PUBLIC "-//W3C//DTD SVG 20010904//EN"
 "http://www.w3.org/TR/2001/REC-SVG-20010904/DTD/svg10.dtd">
<svg version="1.0" xmlns="http://www.w3.org/2000/svg"
 width="244.000000pt" height="305.000000pt" viewBox="0 0 244.000000 305.000000"
 preserveAspectRatio="xMidYMid meet">
<metadata>
Created by potrace 1.16, written by Peter Selinger 2001-2019
</metadata>
<g transform="translate(0.000000,305.000000) scale(0.100000,-0.100000)"
fill="#000000" stroke="none">
<path d="M900 2900 c0 -8 -3 -26 -7 -39 -4 -17 -3 -22 5 -17 9 5 12 -111 12
-468 0 -262 -2 -476 -5 -476 -3 0 -24 12 -47 27 l-41 28 6 215 c7 237 17 355
47 534 21 123 21 168 0 74 -36 -168 -69 -540 -70 -789 0 -64 1 -67 29 -79 16
-6 39 -22 52 -36 l22 -23 33 27 c18 15 43 34 55 42 l22 16 -12 269 c-11 269
-22 376 -62 574 -19 100 -38 157 -39 121z"/>
<path d="M1560 2894 c-1 -5 0 -231 0 -502 0 -272 -3 -492 -7 -490 -4 2 -25 14
-45 27 -36 22 -38 25 -38 78 0 132 23 460 41 588 11 77 22 156 24 175 l5 35
-10 -30 c-32 -96 -70 -491 -70 -732 0 -117 1 -123 23 -134 12 -7 35 -23 51
-36 l29 -24 26 24 c14 14 36 30 49 36 21 11 22 17 22 144 -1 177 -15 409 -35
543 -25 168 -64 345 -65 298z"/>
<path d="M1117 2866 c-5 -13 -24 -411 -31 -636 -1 -63 -10 -144 -19 -180 -22
-89 -22 -166 0 -174 32 -13 -1 -27 -35 -15 -41 14 -81 -5 -104 -49 -23 -48
-24 -48 -44 -7 -17 36 -61 65 -99 65 -27 0 -77 -57 -73 -82 3 -20 8 -22 46
-20 37 3 47 -1 77 -31 37 -37 44 -64 20 -73 -22 -9 -19 -90 6 -143 11 -25 35
-64 54 -87 19 -23 35 -45 35 -48 0 -3 -16 -23 -35 -45 -19 -21 -38 -52 -41
-68 -5 -25 -1 -34 25 -56 17 -14 31 -33 31 -41 0 -29 -30 -16 -60 26 -25 35
-30 49 -25 78 3 19 -1 64 -8 100 -14 64 -14 65 -49 68 -28 2 -40 -2 -52 -20
-31 -44 -13 -115 52 -210 16 -24 41 -67 56 -97 32 -62 30 -108 -7 -181 -44
-87 -251 -449 -255 -445 -4 4 116 401 129 426 4 8 26 21 48 28 44 13 55 26 65
83 10 56 -8 107 -65 182 -85 113 -99 172 -54 238 33 48 32 63 -6 78 -45 19
-91 15 -111 -11 -23 -27 -22 -39 2 -117 24 -77 25 -101 4 -146 -14 -28 -48
-53 -193 -140 -97 -58 -185 -108 -196 -111 -20 -7 63 76 202 202 70 63 74 65
113 58 l40 -7 0 39 c0 75 -13 173 -23 173 -6 0 -8 -32 -4 -90 l7 -91 -33 6
c-36 6 -22 18 -271 -215 -74 -69 -132 -128 -130 -131 2 -4 108 29 236 72 128
43 234 79 236 79 1 0 2 11 2 25 0 14 7 28 15 31 24 10 127 -48 152 -85 34 -50
30 -77 -12 -91 -33 -11 -35 -14 -75 -143 -23 -73 -59 -189 -80 -258 -44 -140
-58 -200 -43 -184 27 28 380 432 386 441 4 7 0 28 -8 48 -9 20 -13 41 -10 46
6 10 127 14 136 5 3 -2 -7 -118 -22 -257 -14 -139 -25 -254 -24 -256 2 -3 24
65 81 253 33 107 23 133 101 -259 l57 -290 63 313 c34 173 64 315 66 317 2 2
28 -76 58 -174 43 -140 55 -170 57 -142 2 19 -1 36 -6 38 -5 1 -8 24 -6 50 2
34 1 39 -4 18 -5 -23 -12 -2 -30 100 -13 71 -28 143 -32 159 -5 17 -12 54 -16
84 -6 48 -5 53 12 49 14 -2 21 -15 25 -43 l6 -40 2 41 c1 48 10 52 85 46 48
-4 48 -4 43 -36 -3 -17 -8 -38 -11 -46 -4 -10 56 -86 183 -232 104 -119 194
-219 200 -222 5 -4 -1 29 -15 71 -13 43 -52 171 -86 285 l-63 207 -39 15 c-34
14 -38 18 -32 42 16 61 85 119 151 126 26 3 30 -1 33 -22 3 -23 19 -31 234
-103 127 -43 233 -76 235 -73 2 2 -19 26 -49 52 -29 27 -89 83 -133 125 -191
181 -177 170 -212 164 l-32 -6 6 92 c5 69 3 90 -5 85 -7 -4 -12 -23 -12 -43 0
-19 -8 -67 -17 -105 -11 -48 -13 -72 -6 -76 284 -179 373 -237 366 -239 -15
-5 -329 109 -345 125 -6 6 -6 18 2 32 10 19 8 25 -20 49 -44 37 -50 90 -20
187 35 112 8 157 -83 140 -52 -10 -62 -35 -32 -77 39 -52 35 -122 -10 -188
-19 -28 -50 -74 -69 -101 -22 -31 -37 -68 -42 -98 -6 -47 -23 -91 -24 -64 0 7
-4 11 -8 8 -24 -15 11 93 53 166 77 130 85 149 85 195 0 46 -25 73 -67 73 -32
0 -44 -31 -48 -124 -3 -87 -10 -109 -44 -140 -16 -15 -24 -17 -33 -8 -9 9 -5
18 15 36 37 35 35 71 -8 125 -19 24 -35 47 -35 50 0 4 13 22 29 41 65 79 104
212 67 226 -28 11 -18 50 21 84 31 28 41 31 75 26 35 -6 38 -4 38 18 0 13 -9
35 -20 48 -40 52 -116 37 -147 -27 -17 -36 -33 -46 -33 -20 0 8 -13 29 -29 47
-25 29 -34 32 -75 30 -43 -1 -45 0 -34 17 11 19 4 114 -22 261 -7 44 -7 44 -9
10 -1 -19 -8 -64 -16 -100 -12 -58 -13 -18 -12 373 2 567 -14 583 -30 30 -3
-128 -10 -233 -15 -233 -4 0 -8 15 -8 33 0 50 -27 217 -47 287 l-17 64 -14
-44 c-20 -68 -52 -236 -52 -276 0 -21 -4 -33 -10 -29 -7 4 -10 -49 -10 -152 0
-148 -10 -212 -25 -172 -3 9 -5 226 -3 483 2 256 2 466 2 466 -1 0 -4 -6 -7
-14z m95 -701 c-6 -281 -17 -350 -22 -135 -1 52 -4 67 -10 50 -11 -38 -2 117
17 268 9 72 17 131 18 130 2 -2 0 -142 -3 -313z m-65 -287 c-3 -8 -6 -5 -6 6
-1 11 2 17 5 13 3 -3 4 -12 1 -19z m180 0 c-3 -8 -6 -5 -6 6 -1 11 2 17 5 13
3 -3 4 -12 1 -19z m-137 -53 c4 -26 4 -61 1 -77 -6 -27 -8 -29 -19 -15 -9 10
-10 17 -2 22 13 8 13 76 -1 112 -8 22 -8 25 2 16 7 -7 15 -33 19 -58z m-95
-76 c5 -6 5 -13 -3 -21 -9 -9 -15 -9 -24 0 -24 24 -41 14 -34 -20 8 -39 23
-58 47 -58 31 0 25 -56 -8 -85 -16 -13 -35 -25 -44 -25 -19 0 -49 57 -49 94 0
15 -8 30 -20 36 -28 15 -25 37 10 72 28 27 35 30 73 24 23 -4 46 -11 52 -17z
m400 -4 c28 -27 32 -57 10 -75 -8 -7 -15 -21 -15 -32 0 -30 -28 -88 -45 -95
-21 -7 -79 53 -71 74 3 8 6 18 6 23 0 5 9 11 19 15 21 6 46 58 36 74 -4 8 -12
8 -27 0 -23 -12 -50 4 -32 20 28 27 91 25 119 -4z m-348 -77 c-3 -7 -5 -2 -5
12 0 14 2 19 5 13 2 -7 2 -19 0 -25z m63 -13 c0 -29 -34 -36 -44 -9 -4 12 -2
15 9 10 9 -3 15 0 15 9 0 8 5 15 10 15 6 0 10 -11 10 -25z m-282 -69 c7 -19
25 -50 41 -70 19 -24 27 -43 24 -57 -6 -20 -7 -20 -31 8 -30 35 -61 100 -62
131 0 33 14 27 28 -12z m199 12 c-3 -8 -6 -5 -6 6 -1 11 2 17 5 13 3 -3 4 -12
1 -19z m61 -7 c-5 -24 -33 -19 -36 6 -3 17 1 20 18 16 12 -3 20 -12 18 -22z
m123 -14 c-8 -8 -16 -7 -28 6 -16 15 -15 17 8 25 18 7 25 6 27 -5 2 -8 -1 -20
-7 -26z m259 25 c0 -27 -47 -115 -75 -142 -24 -22 -25 -22 -25 -4 0 11 12 36
26 55 14 19 32 51 41 72 16 39 33 49 33 19z m-478 -74 c18 -15 32 -64 19 -72
-11 -7 -47 33 -56 62 -7 25 11 30 37 10z m151 -22 c-7 -38 -13 -46 -13 -18 0
11 -2 27 -5 35 -4 8 0 14 9 14 11 0 13 -8 9 -31z m172 12 c-4 -13 -18 -34 -31
-48 l-24 -25 0 32 c0 34 22 63 46 63 11 0 13 -6 9 -22z m-251 -72 c9 -27 14
-51 12 -54 -6 -5 -34 60 -43 97 -10 43 13 11 31 -43z m160 2 c-9 -29 -19 -47
-22 -40 -5 15 27 106 35 98 3 -2 -3 -29 -13 -58z m-317 -10 c-3 -8 -6 -5 -6 6
-1 11 2 17 5 13 3 -3 4 -12 1 -19z m423 -29 c0 -11 -4 -17 -10 -14 -5 3 -10
13 -10 21 0 8 5 14 10 14 6 0 10 -9 10 -21z m-373 -11 c-3 -8 -6 -5 -6 6 -1
11 2 17 5 13 3 -3 4 -12 1 -19z m73 -24 c0 -8 -7 -14 -15 -14 -8 0 -15 9 -15
20 0 13 5 18 15 14 8 -4 15 -12 15 -20z m243 1 c-7 -19 -33 -20 -33 -1 0 15
20 26 32 19 4 -2 5 -10 1 -18z m-364 -149 c-9 -8 -10 -7 -5 7 3 10 7 40 8 65
l2 47 3 -54 c3 -34 0 -58 -8 -65z m-9 83 c0 -11 -4 -17 -10 -14 -5 3 -10 13
-10 21 0 8 5 14 10 14 6 0 10 -9 10 -21z m172 -11 c-15 -15 -24 -6 -16 16 5
12 10 14 17 7 8 -8 8 -14 -1 -23z m295 -35 c-2 -16 -4 -5 -4 22 0 28 2 40 4
28 2 -13 2 -35 0 -50z m-388 -26 c7 -32 11 -61 8 -63 -5 -5 -37 117 -37 138 1
25 17 -16 29 -75z m241 62 c0 -5 -4 -9 -10 -9 -5 0 -10 7 -10 16 0 8 5 12 10
9 6 -3 10 -10 10 -16z m91 -58 c-6 -11 -11 -29 -11 -40 0 -12 -4 -21 -8 -21
-5 0 -2 33 7 73 13 57 17 65 19 40 2 -18 -2 -41 -7 -52z m-280 -35 c8 -8 13
-7 16 2 7 17 30 15 37 -4 6 -16 -27 -49 -49 -49 -15 0 -34 64 -33 110 l0 40 9
-44 c5 -25 14 -49 20 -55z m228 -13 c-6 -24 -17 -43 -23 -43 -22 1 -56 38 -50
54 8 21 21 20 33 -1 15 -27 32 -4 40 54 5 44 6 45 9 14 2 -19 -2 -54 -9 -78z
m-364 -22 c-7 -23 -25 -29 -25 -8 0 14 21 39 28 33 2 -3 1 -14 -3 -25z m543
-16 c-3 -15 -6 -14 -32 6 -26 21 -27 23 -10 30 23 8 47 -12 42 -36z m-441 -47
c-3 -7 -5 -2 -5 12 0 14 2 19 5 13 2 -7 2 -19 0 -25z m524 -151 c14 -11 179
-297 179 -311 0 -3 16 -31 35 -63 35 -59 42 -77 26 -71 -5 2 -70 77 -145 168
-137 164 -137 165 -130 205 3 22 6 50 5 63 -1 25 6 27 30 9z m-378 -33 c-7
-19 -10 -18 -16 5 -3 13 -1 18 9 14 7 -2 10 -11 7 -19z m-133 -41 c1 -43 -79
-348 -87 -339 -2 2 12 88 32 191 19 103 35 189 35 191 0 2 5 4 10 4 6 0 10
-21 10 -47z m50 -21 c0 -12 -23 -42 -32 -42 -3 0 -2 62 1 85 2 14 31 -26 31
-43z m189 26 c-1 -13 -4 -34 -8 -48 l-8 -25 -13 26 c-9 20 -9 32 -1 48 15 28
31 27 30 -1z m-149 -65 c-9 -30 -8 -86 4 -252 9 -118 15 -216 13 -218 -2 -1
-11 36 -21 85 -9 48 -29 146 -45 219 l-28 131 41 41 c22 22 42 39 44 37 2 -2
-2 -21 -8 -43z"/>
<path d="M1541 2834 c0 -11 3 -14 6 -6 3 7 2 16 -1 19 -3 4 -6 -2 -5 -13z"/>
<path d="M1363 2700 c0 -25 2 -35 4 -22 2 12 2 32 0 45 -2 12 -4 2 -4 -23z"/>
<path d="M1131 2674 c0 -11 3 -14 6 -6 3 7 2 16 -1 19 -3 4 -6 -2 -5 -13z"/>
<path d="M1373 2520 c0 -36 2 -50 4 -32 2 17 2 47 0 65 -2 17 -4 3 -4 -33z"/>
<path d="M1143 2500 c0 -25 2 -35 4 -22 2 12 2 32 0 45 -2 12 -4 2 -4 -23z"/>
<path d="M1432 820 c0 -19 2 -27 5 -17 2 9 2 25 0 35 -3 9 -5 1 -5 -18z"/>
<path d="M1441 724 c0 -21 4 -59 9 -84 6 -34 7 -25 3 35 -6 84 -14 115 -12 49z"/>
</g>
</svg>
