<?xml version="1.0" standalone="no"?>
<!DOCTYPE svg PUBLIC "-//W3C//DTD SVG 20010904//EN"
 "http://www.w3.org/TR/2001/REC-SVG-20010904/DTD/svg10.dtd">
<svg version="1.0" xmlns="http://www.w3.org/2000/svg"
 width="244.000000pt" height="305.000000pt" viewBox="0 0 244.000000 305.000000"
 preserveAspectRatio="xMidYMid meet">
<metadata>
Created by potrace 1.16, written by Peter Selinger 2001-2019
</metadata>
<g transform="translate(0.000000,305.000000) scale(0.100000,-0.100000)"
fill="#000000" stroke="none">
<path d="M962 2848 c-36 -198 -62 -531 -62 -803 l0 -120 46 -37 45 -37 41 40
41 40 -7 242 c-4 133 -14 307 -22 387 -15 151 -42 328 -50 342 -12 19 -21 4
-32 -54z m32 -547 c-2 -211 -6 -386 -9 -389 -3 -3 -4 201 -4 454 1 266 5 430
9 389 4 -38 6 -243 4 -454z"/>
<path d="M1465 2861 c-4 -22 -4 -45 -1 -50 3 -5 2 -11 -3 -13 -16 -6 -50 -386
-57 -631 l-7 -238 44 -40 c24 -21 44 -39 44 -39 0 0 20 18 44 39 l44 40 -7
203 c-13 358 -56 756 -83 765 -6 2 -14 -14 -18 -36z"/>
<path d="M1227 2585 c-13 -43 -38 -205 -43 -290 -3 -49 -8 -99 -9 -110 -2 -11
-4 -87 -4 -169 -1 -82 -3 -147 -5 -145 -2 2 -11 56 -20 118 -9 63 -20 119 -25
124 -9 9 -31 -119 -31 -187 0 -33 6 -47 25 -64 20 -18 25 -31 25 -69 0 -51
-12 -83 -24 -64 -13 21 -36 12 -36 -15 0 -63 47 -86 74 -36 l15 27 1 -46 c0
-33 5 -49 15 -53 9 -3 23 -22 31 -41 8 -19 16 -35 19 -35 3 0 11 16 19 35 8
19 22 38 31 41 10 4 15 20 16 48 0 40 0 41 16 19 33 -48 72 -23 73 45 0 21 -3
23 -30 17 -30 -7 -30 -6 -31 37 -2 64 0 71 27 91 21 16 24 27 24 76 0 32 -5
82 -10 111 -19 98 -28 85 -49 -72 l-17 -123 -7 210 c-6 217 -27 416 -50 495
-11 36 -15 41 -20 25z"/>
<path d="M857 1857 c-10 -6 -20 -29 -23 -49 -7 -37 -6 -37 35 -44 64 -10 105
-79 64 -109 -14 -11 -15 -19 -5 -71 7 -32 28 -91 48 -130 l36 -72 -25 -38
c-13 -22 -26 -46 -29 -54 -3 -8 -9 17 -12 55 -4 39 -10 77 -12 87 -6 22 -31
30 -56 17 -26 -14 -29 -9 -19 28 12 42 -12 64 -68 65 -69 1 -75 -10 -67 -135
7 -124 -8 -141 -19 -22 -10 103 -21 102 -17 -1 3 -83 3 -84 -21 -84 -25 0 -69
-45 -203 -209 -38 -46 -82 -99 -99 -119 -24 -29 -26 -35 -10 -28 11 4 34 10
50 13 17 2 57 16 90 30 200 85 257 114 262 134 10 36 56 13 92 -45 29 -46 28
-84 -3 -96 -28 -10 -29 -14 -81 -235 -38 -162 -74 -308 -82 -340 -5 -19 -5
-19 14 -3 11 10 24 18 29 18 8 1 241 348 272 406 9 18 10 34 3 61 -6 20 -8 40
-5 45 10 16 98 8 131 -12 50 -30 56 -51 27 -91 l-25 -35 51 -324 c27 -178 52
-325 54 -327 5 -6 46 243 91 557 l14 95 -26 33 -25 34 19 26 c11 15 31 33 44
39 29 15 115 17 124 3 3 -5 1 -26 -4 -46 -13 -48 -18 -39 159 -304 5 -8 35
-53 65 -99 62 -95 70 -105 63 -74 -4 15 -2 20 7 17 13 -5 13 -3 -29 161 -18
73 -86 370 -86 379 0 3 -14 13 -31 22 -27 14 -30 19 -25 46 8 40 41 85 76 103
39 20 45 19 47 -6 1 -12 6 -26 10 -30 17 -16 345 -159 354 -153 5 3 9 9 9 14
0 5 -61 83 -135 174 -109 133 -140 166 -160 166 -25 0 -25 1 -25 85 0 47 -4
85 -8 85 -5 0 -16 16 -25 35 -16 35 -30 40 -82 35 -11 -1 -27 -8 -35 -16 -13
-13 -13 -20 4 -62 28 -73 18 -169 -24 -222 -17 -21 -17 -17 5 33 33 76 33 136
1 166 -29 27 -61 21 -69 -12 -3 -12 -9 -53 -13 -92 -4 -38 -10 -61 -12 -50 -2
11 -15 35 -28 55 -30 43 -30 52 1 98 13 20 31 57 40 81 17 49 20 137 5 146
-16 10 -12 34 11 66 16 22 28 29 54 29 43 0 48 9 33 56 -23 68 -104 70 -132 2
-12 -28 -14 -29 -20 -11 -10 32 -45 63 -71 63 -30 0 -65 -43 -65 -81 0 -26 3
-28 42 -31 36 -3 45 -8 57 -32 12 -25 11 -33 -3 -58 -10 -15 -15 -28 -12 -28
2 0 0 -17 -6 -37 -12 -46 -72 -139 -97 -153 -10 -5 -21 -21 -23 -35 -16 -83
88 2 160 129 14 26 20 32 16 16 -23 -88 -75 -159 -140 -191 -39 -18 -45 -25
-41 -45 2 -13 0 -24 -4 -24 -13 0 -10 107 4 160 10 37 19 48 49 63 32 16 36
21 28 37 -12 22 -43 34 -68 26 -16 -6 -37 -38 -59 -96 l-10 -25 -7 25 c-25 85
-65 116 -111 86 -34 -22 -31 -33 10 -50 37 -16 55 -48 54 -94 0 -25 -1 -25 -9
-6 -4 12 -14 24 -22 26 -28 11 -90 117 -96 163 -2 25 -11 50 -18 56 -19 16
-17 43 5 70 14 18 27 23 55 21 34 -2 36 -1 36 28 0 35 -38 80 -67 80 -29 0
-60 -27 -68 -57 l-7 -28 -13 33 c-20 46 -81 67 -118 39z m176 -350 c29 -49
109 -127 131 -127 8 0 17 6 19 13 3 6 6 -12 6 -40 1 -29 -3 -53 -8 -53 -4 0
-6 11 -4 23 4 19 -1 26 -25 36 -42 18 -100 77 -128 133 -13 26 -24 50 -24 53
0 13 10 2 33 -38z m698 -178 l-9 -34 -1 40 c0 22 3 51 7 65 7 24 7 24 10 -6 2
-18 -1 -47 -7 -65z m-618 -20 c35 -12 38 -16 33 -41 -5 -27 14 -58 35 -58 20
0 8 -41 -16 -52 -14 -6 -26 -20 -26 -32 -1 -12 -4 -5 -8 14 -7 41 -27 48 -73
26 -42 -22 -53 -20 -72 9 -22 33 -21 35 13 22 52 -19 63 -6 55 69 -6 56 -5 66
7 62 8 -3 31 -11 52 -19z m305 -53 c-3 -58 -2 -61 20 -64 26 -4 72 32 72 55 0
7 4 13 10 13 13 0 -4 -42 -32 -80 -24 -33 -43 -37 -72 -15 -40 30 -82 14 -79
-30 1 -16 1 -16 -3 -2 -3 9 -12 17 -19 17 -7 0 -21 7 -29 16 -18 18 -5 54 19
54 11 0 15 11 15 38 0 35 3 39 43 53 23 8 46 13 50 11 5 -2 7 -32 5 -66z
m-730 -79 c-54 -54 -119 -109 -172 -143 l-29 -18 12 21 c17 33 236 222 239
207 2 -7 -21 -37 -50 -67z m843 -98 c-6 -16 -10 -18 -10 -7 -1 22 12 55 16 42
2 -6 -1 -22 -6 -35z m-330 -51 c7 -42 24 -88 34 -88 10 0 27 46 34 89 5 35 11
46 26 49 18 2 19 2 3 -8 -12 -7 -18 -24 -18 -48 0 -38 -28 -103 -45 -106 -16
-2 -45 66 -45 107 0 31 -4 39 -25 47 -34 13 -32 20 2 11 24 -6 29 -14 34 -53z
m-254 -78 c-5 -19 -13 -40 -18 -45 -4 -6 -24 -52 -43 -102 -46 -121 -105 -247
-113 -239 -6 6 13 61 49 146 10 25 23 54 27 65 5 11 13 31 19 45 39 88 60 154
68 206 l8 59 6 -50 c4 -27 2 -66 -3 -85z m-497 55 c-7 -8 -17 -15 -22 -15 -6
0 -5 7 2 15 7 8 17 15 22 15 6 0 5 -7 -2 -15z"/>
</g>
</svg>
