<?xml version="1.0" standalone="no"?>
<!DOCTYPE svg PUBLIC "-//W3C//DTD SVG 20010904//EN"
 "http://www.w3.org/TR/2001/REC-SVG-20010904/DTD/svg10.dtd">
<svg version="1.0" xmlns="http://www.w3.org/2000/svg"
 width="244.000000pt" height="305.000000pt" viewBox="0 0 244.000000 305.000000"
 preserveAspectRatio="xMidYMid meet">
<metadata>
Created by potrace 1.16, written by Peter Selinger 2001-2019
</metadata>
<g transform="translate(0.000000,305.000000) scale(0.100000,-0.100000)"
fill="#000000" stroke="none">
<path d="M918 2905 c-3 -6 -8 -28 -11 -50 -4 -25 -3 -32 2 -20 16 38 20 -117
16 -525 -3 -223 -5 -406 -5 -408 0 -1 -18 10 -41 25 l-40 26 2 141 c3 197 16
378 39 533 20 133 25 203 9 128 -32 -153 -53 -376 -63 -669 -5 -138 1 -176 28
-176 7 0 23 -11 36 -25 30 -32 35 -31 77 5 40 36 57 37 77 8 22 -31 20 -39 -8
-32 -40 10 -95 -29 -96 -68 0 -32 -19 -28 -36 7 -41 87 -164 77 -164 -12 0
-20 5 -23 44 -23 38 0 48 -5 75 -35 34 -39 39 -62 16 -71 -25 -10 -18 -87 14
-164 33 -77 48 -154 33 -164 -6 -4 -15 15 -21 46 l-10 53 3 -67 c2 -38 0 -68
-4 -68 -11 0 -30 48 -30 75 0 48 -18 75 -48 75 -68 0 -81 -75 -30 -176 36 -70
33 -92 -6 -48 -69 78 -83 159 -40 232 25 43 26 45 8 62 -19 18 -39 23 -81 21
-51 -3 -67 -59 -38 -141 19 -53 19 -113 1 -148 -14 -27 -72 -69 -231 -169 -86
-54 -155 -91 -142 -77 4 5 65 67 135 137 l127 128 42 -6 43 -6 -7 98 c-8 133
-24 157 -21 31 l3 -98 -30 5 c-28 5 -43 -7 -208 -171 -98 -97 -176 -178 -175
-180 3 -3 77 22 288 97 47 17 104 38 128 46 33 12 42 20 42 38 0 13 4 27 10
30 15 9 109 -35 115 -54 3 -10 -8 -44 -24 -77 -16 -32 -27 -61 -25 -63 2 -3
25 10 50 28 26 18 49 30 51 27 11 -11 -7 -36 -25 -36 -40 0 -49 -22 -157 -400
-18 -63 -36 -133 -40 -155 -5 -35 -4 -38 7 -23 36 43 278 336 316 381 29 35
42 59 39 72 -21 91 -22 85 8 85 24 0 26 -3 21 -28 -11 -48 -75 -497 -72 -500
2 -1 9 12 16 30 13 32 21 49 93 213 19 44 45 103 57 130 13 30 21 68 20 95 -1
25 -1 49 -1 53 1 12 54 -22 73 -48 17 -22 16 -24 -13 -61 -25 -31 -29 -45 -24
-69 6 -30 60 -313 95 -504 18 -92 30 -135 30 -104 0 6 16 94 35 195 20 100 45
235 56 298 11 63 22 125 25 137 4 15 -3 29 -25 49 -17 15 -31 31 -31 36 0 18
59 68 80 68 20 0 21 -3 15 -47 -6 -45 0 -62 81 -248 47 -110 93 -213 100 -230
l15 -30 -5 30 c-33 200 -66 438 -62 443 3 3 6 0 6 -6 0 -6 19 -33 43 -60 23
-27 104 -124 180 -215 77 -92 140 -167 141 -167 2 0 -26 102 -61 228 -36 125
-72 253 -80 285 -12 45 -20 58 -39 63 -25 7 -50 31 -41 40 3 4 32 -12 63 -34
32 -23 60 -39 62 -37 2 2 -14 38 -37 80 -22 42 -41 80 -41 85 0 12 91 52 105
46 8 -3 15 -15 17 -28 3 -25 0 -24 287 -124 85 -29 156 -52 158 -51 1 2 -76
81 -171 176 -165 163 -176 173 -204 166 l-30 -6 4 98 c3 66 1 91 -5 78 -5 -11
-10 -37 -10 -58 -1 -22 -8 -64 -17 -94 -14 -46 -14 -57 -3 -68 15 -14 219
-154 302 -207 26 -17 46 -32 44 -34 -7 -8 -314 110 -332 127 -5 6 -5 13 3 21
15 15 16 48 2 48 -5 0 -19 9 -30 20 -25 25 -27 116 -5 180 38 108 -6 166 -99
130 -31 -11 -33 -34 -6 -75 37 -56 19 -156 -40 -224 -33 -38 -36 -15 -7 45 31
63 36 134 11 158 -8 9 -29 16 -45 16 -31 0 -32 -3 -44 -92 -8 -62 -25 -72 -27
-16 l-1 43 -7 -45 c-6 -43 -7 -44 -14 -17 -11 38 -1 110 29 198 29 84 31 112
10 129 -24 20 -17 55 17 89 27 26 40 32 68 29 31 -3 35 0 38 24 4 36 -29 68
-71 68 -42 0 -62 -15 -85 -64 l-19 -39 -12 34 c-24 69 -74 97 -117 64 -25 -19
-44 -19 -44 1 0 10 6 14 15 11 9 -4 22 5 35 23 18 26 24 28 48 19 15 -6 39
-21 53 -35 l26 -24 19 21 c10 11 32 28 48 36 l29 15 -6 212 c-8 248 -20 380
-53 571 -30 173 -39 207 -49 182 -4 -9 -2 -30 4 -45 13 -33 12 -942 -1 -942
-5 0 -25 12 -44 28 l-34 27 0 110 c0 161 18 410 41 569 11 76 18 140 16 142
-11 11 -57 -326 -57 -418 0 -32 -4 -58 -10 -58 -6 0 -10 -65 -10 -174 0 -135
-3 -176 -14 -185 -23 -20 -27 51 -25 512 0 241 -2 441 -5 444 -3 4 -6 -2 -6
-13 0 -10 -7 -98 -15 -194 -9 -96 -20 -311 -24 -478 -5 -167 -12 -306 -15
-309 -3 -4 -6 0 -6 8 0 31 -22 262 -35 383 -14 123 -52 312 -61 303 -31 -31
-105 -625 -89 -711 4 -21 3 -26 -3 -16 -5 8 -12 55 -15 105 -3 51 -10 91 -16
93 -6 2 -11 10 -11 18 0 20 -18 17 -23 -3 -3 -10 -5 159 -6 376 0 217 -3 392
-5 390 -8 -8 -28 -305 -35 -504 -7 -216 -8 -214 -30 96 -13 183 -68 489 -83
464z m287 -662 c-3 -87 -9 -205 -13 -263 l-7 -105 -5 110 c-3 61 0 171 7 245
7 74 12 143 13 153 0 9 2 17 5 17 2 0 2 -71 0 -157z m-105 -398 c0 -8 -4 -15
-10 -15 -5 0 -10 7 -10 15 0 8 5 15 10 15 6 0 10 -7 10 -15z m77 -82 c-2 -16
-4 -5 -4 22 0 28 2 40 4 28 2 -13 2 -35 0 -50z m-136 -30 c1 -16 2 -70 3 -121
2 -92 2 -93 -16 -70 -18 24 -38 80 -38 109 0 9 -7 19 -15 23 -36 13 2 86 45
86 15 0 20 -7 21 -27z m329 1 c0 -8 -4 -12 -10 -9 -5 3 -10 13 -10 21 0 8 5
12 10 9 6 -3 10 -13 10 -21z m125 -8 c17 -32 18 -37 4 -53 -9 -10 -21 -36 -27
-58 -6 -22 -18 -49 -26 -60 -14 -19 -16 -15 -18 45 -2 76 0 130 7 148 9 24 42
12 60 -22z m-383 2 c-7 -7 -12 -8 -12 -2 0 14 12 26 19 19 2 -3 -1 -11 -7 -17z
m74 -96 c-12 -11 -16 6 -9 39 l8 34 3 -33 c2 -19 1 -36 -2 -40z m-9 -23 c11
-4 28 -23 37 -43 9 -20 19 -36 21 -36 3 0 11 16 19 35 9 20 26 39 39 44 16 6
26 20 31 41 5 28 8 31 21 20 8 -7 15 -28 15 -46 0 -28 -5 -35 -25 -40 -14 -3
-32 -3 -41 0 -11 4 -20 -6 -34 -37 -11 -23 -20 -51 -20 -62 -1 -14 -37 71 -40
93 0 1 -13 2 -29 2 -16 0 -36 3 -45 6 -19 7 -21 56 -4 87 11 21 12 20 23 -17
7 -24 19 -42 32 -47z m-218 -61 c1 -5 -5 -8 -13 -8 -17 0 -26 22 -25 63 l0 32
19 -40 c10 -22 19 -43 19 -47z m118 40 c-3 -7 -5 -2 -5 12 0 14 2 19 5 13 2
-7 2 -19 0 -25z m320 0 c-3 -7 -5 -2 -5 12 0 14 2 19 5 13 2 -7 2 -19 0 -25z
m153 9 c0 -26 -25 -65 -35 -55 -9 9 14 78 26 78 5 0 9 -10 9 -23z m-435 -104
c15 -35 13 -56 -4 -37 -4 5 -13 24 -19 42 -15 44 4 41 23 -5z m275 32 c0 -17
-31 -75 -40 -75 -6 0 -5 13 5 36 8 20 15 38 15 40 0 2 5 4 10 4 6 0 10 -2 10
-5z m98 -47 c-2 -15 -11 -24 -25 -26 -15 -2 -25 -13 -29 -28 -8 -32 -54 -59
-54 -32 0 13 90 108 103 108 5 0 7 -10 5 -22z m-434 -38 c26 -28 44 -55 41
-60 -9 -15 -53 18 -57 43 -2 12 -12 23 -23 25 -26 5 -39 18 -31 31 12 18 21
13 70 -39z m126 -66 c0 -8 -4 -12 -10 -9 -5 3 -10 13 -10 21 0 8 5 12 10 9 6
-3 10 -13 10 -21z m121 -7 c-8 -8 -11 -7 -11 4 0 9 3 19 7 23 4 4 9 2 11 -4 3
-7 -1 -17 -7 -23z m129 -92 c0 -86 -23 -108 -110 -108 -30 0 -35 3 -35 23 0
17 7 26 25 30 34 8 42 59 11 67 -12 3 -21 10 -21 15 0 6 10 8 23 4 12 -3 26
-6 31 -6 5 0 6 -19 3 -41 -6 -45 -1 -69 15 -69 22 0 37 37 38 88 0 33 4 51 10
47 6 -3 10 -26 10 -50z m-369 -1 c-3 -42 22 -86 45 -77 12 5 14 15 9 54 -4 27
-3 49 2 49 4 0 18 3 31 6 12 4 22 2 22 -4 0 -5 -9 -12 -21 -15 -31 -8 -23 -59
11 -67 18 -4 25 -13 25 -29 0 -21 -5 -24 -40 -25 -67 -3 -81 7 -95 63 -6 27
-9 59 -5 71 10 31 20 15 16 -26z m537 -39 c-10 -21 -38 -36 -38 -19 0 16 23
44 35 44 12 0 12 -5 3 -25z m-688 -25 c0 -5 -4 -10 -10 -10 -5 0 -10 5 -10 10
0 6 5 10 10 10 6 0 10 -4 10 -10z m120 -23 c0 -5 -4 -5 -10 -2 -5 3 -10 14
-10 23 0 15 2 15 10 2 5 -8 10 -19 10 -23z m427 -9 c-3 -8 -6 -5 -6 6 -1 11 2
17 5 13 3 -3 4 -12 1 -19z m189 -13 c-7 -18 -26 -20 -26 -2 0 18 24 41 28 27
2 -6 1 -17 -2 -25z m-781 -35 c7 -23 -2 -43 -16 -35 -12 8 -12 55 0 55 5 0 12
-9 16 -20z m868 -85 c14 -25 22 -45 18 -45 -9 0 -61 71 -61 83 0 20 21 2 43
-38z m-843 -13 c0 -27 -33 -99 -137 -294 -75 -141 -138 -256 -140 -255 -4 4
77 286 114 396 16 47 23 55 58 69 47 18 51 24 60 71 13 69 45 78 45 13z m711
36 c1 -7 1 -30 0 -50 -2 -29 20 -81 109 -260 62 -123 117 -229 123 -236 5 -7
8 -15 5 -17 -3 -3 -54 57 -114 132 -177 222 -172 216 -163 238 4 11 8 48 8 81
1 73 10 124 22 124 5 0 10 -6 10 -12z m-832 -44 c-32 -34 -45 -30 -17 5 13 15
27 26 31 24 5 -3 -2 -16 -14 -29z m481 -95 c-10 -17 -14 -19 -21 -8 -12 19
-11 32 1 24 6 -3 13 2 17 11 4 10 8 13 10 7 3 -7 -1 -22 -7 -34z m244 -8 c3
-9 14 -77 26 -151 11 -74 25 -162 30 -196 16 -98 10 -95 -20 11 -15 55 -39
138 -53 185 -32 110 -46 168 -41 173 10 10 54 -7 58 -22z m-434 -36 c2 -47 -3
-65 -64 -210 -76 -179 -94 -209 -61 -100 9 28 27 91 40 140 49 183 56 208 61
217 11 17 23 -6 24 -47z m484 46 c8 -12 -18 -73 -27 -64 -14 13 -8 73 7 73 8
0 17 -4 20 -9z m-359 -110 c-15 -29 -15 -44 0 -187 9 -85 15 -160 13 -165 -2
-6 -16 54 -32 133 -15 78 -30 152 -32 163 -3 13 7 34 27 58 36 44 48 43 24 -2z"/>
<path d="M1072 2880 c0 -14 2 -19 5 -12 2 6 2 18 0 25 -3 6 -5 1 -5 -13z"/>
<path d="M1522 2815 c0 -16 2 -22 5 -12 2 9 2 23 0 30 -3 6 -5 -1 -5 -18z"/>
<path d="M1082 2800 c0 -14 2 -19 5 -12 2 6 2 18 0 25 -3 6 -5 1 -5 -13z"/>
<path d="M1412 2755 c0 -16 2 -22 5 -12 2 9 2 23 0 30 -3 6 -5 -1 -5 -18z"/>
<path d="M1093 2685 c0 -22 2 -30 4 -17 2 12 2 30 0 40 -3 9 -5 -1 -4 -23z"/>
<path d="M1423 2630 c0 -30 2 -43 4 -27 2 15 2 39 0 55 -2 15 -4 2 -4 -28z"/>
<path d="M1102 2570 c0 -19 2 -27 5 -17 2 9 2 25 0 35 -3 9 -5 1 -5 -18z"/>
<path d="M1433 2480 c0 -36 2 -50 4 -32 2 17 2 47 0 65 -2 17 -4 3 -4 -33z"/>
<path d="M1114 2305 c0 -66 1 -92 3 -57 2 34 2 88 0 120 -2 31 -3 3 -3 -63z"/>
</g>
</svg>
