<?xml version="1.0" standalone="no"?>
<!DOCTYPE svg PUBLIC "-//W3C//DTD SVG 20010904//EN"
 "http://www.w3.org/TR/2001/REC-SVG-20010904/DTD/svg10.dtd">
<svg version="1.0" xmlns="http://www.w3.org/2000/svg"
 width="244.000000pt" height="305.000000pt" viewBox="0 0 244.000000 305.000000"
 preserveAspectRatio="xMidYMid meet">
<metadata>
Created by potrace 1.16, written by Peter Selinger 2001-2019
</metadata>
<g transform="translate(0.000000,305.000000) scale(0.100000,-0.100000)"
fill="#000000" stroke="none">
<path d="M892 2889 c-12 -31 -60 -278 -68 -349 -3 -30 -8 -66 -10 -80 -2 -14
-9 -137 -15 -275 l-11 -250 22 -15 c12 -8 37 -28 55 -43 l33 -28 34 29 c18 16
41 31 51 35 34 13 20 458 -23 722 -24 143 -29 169 -36 163 -2 -3 2 -40 10 -84
31 -167 56 -459 56 -650 l0 -110 -41 -28 c-23 -14 -44 -25 -46 -22 -7 6 -8
195 -5 596 2 229 7 358 12 345 7 -14 8 -8 3 20 -7 50 -10 54 -21 24z"/>
<path d="M1311 2894 c0 -11 3 -14 6 -6 3 7 2 16 -1 19 -3 4 -6 -2 -5 -13z"/>
<path d="M1547 2828 c-50 -217 -77 -481 -77 -744 l0 -163 28 -15 c16 -8 34
-22 41 -30 18 -21 44 -20 65 3 10 11 31 25 47 31 l29 12 -6 187 c-7 246 -28
449 -64 632 -17 83 -30 152 -30 155 0 2 -4 4 -8 4 -5 0 -16 -33 -25 -72z m72
-213 c26 -178 41 -375 41 -536 l0 -126 -40 -27 c-22 -14 -42 -26 -45 -26 -3 0
-5 217 -4 483 1 528 4 540 48 232z"/>
<path d="M1311 2825 c-1 -27 -1 -162 -1 -299 0 -138 -2 -247 -6 -244 -3 4 -6
64 -7 135 0 100 -2 113 -6 58 l-6 -70 -13 62 c-7 35 -19 80 -26 100 l-13 38
-12 -40 c-6 -22 -16 -67 -23 -100 l-13 -60 -6 55 c-4 30 -7 114 -8 187 -1 72
-4 134 -8 136 -5 3 -7 -124 -5 -281 2 -158 0 -352 -5 -432 l-8 -145 -5 130 -6
130 -2 -130 c-1 -72 2 -145 7 -163 5 -17 6 -32 1 -32 -4 0 -11 21 -14 48 -12
84 -38 192 -46 192 -5 0 -11 -8 -14 -17 -10 -33 -26 -185 -20 -194 3 -5 18
-16 35 -24 27 -15 29 -19 29 -76 0 -45 -4 -61 -16 -66 -8 -3 -20 -1 -27 6 -20
20 -37 12 -37 -19 0 -59 68 -74 100 -22 7 13 9 3 8 -42 -3 -53 -5 -59 -26 -63
-47 -7 -87 -43 -48 -43 18 0 28 -28 17 -48 -17 -30 -111 93 -111 146 0 11 -7
25 -15 32 -22 19 -18 44 12 74 23 23 34 27 73 24 45 -3 45 -3 42 27 -4 39 -31
66 -68 67 -50 1 -72 -11 -91 -52 -10 -22 -21 -40 -24 -40 -4 0 -12 13 -19 29
-16 41 -41 61 -82 67 -44 8 -88 -27 -91 -71 -2 -29 -1 -30 39 -27 35 3 47 -2
78 -28 38 -33 47 -67 21 -76 -18 -7 -20 -61 -5 -116 6 -20 31 -64 55 -97 25
-34 45 -64 45 -67 0 -3 -16 -25 -35 -48 -49 -60 -47 -104 7 -132 32 -17 78
-12 78 9 0 6 -5 29 -10 49 -8 26 -8 44 0 57 9 18 13 19 48 7 37 -14 39 -17 27
-49 -5 -12 -3 -17 6 -15 8 2 17 14 21 28 4 14 5 1 2 -28 -2 -29 -7 -59 -10
-67 -8 -21 -32 -19 -37 3 -4 16 -5 16 -6 0 -1 -17 -67 -58 -93 -58 -18 0 -88
68 -98 95 -4 11 -6 34 -3 50 2 17 -2 59 -10 95 -13 62 -15 65 -45 68 -43 4
-72 -26 -72 -76 0 -29 18 -67 76 -167 75 -128 77 -131 79 -205 2 -41 6 -92 10
-113 7 -34 4 -43 -26 -80 -62 -79 -263 -306 -267 -303 -2 2 54 107 124 232
141 252 142 257 111 364 -11 36 -36 79 -73 125 -31 39 -60 80 -65 93 -17 43
-10 98 16 136 14 20 25 40 25 45 0 21 -40 41 -82 41 -79 0 -96 -45 -58 -155
11 -32 20 -71 20 -87 0 -39 -25 -85 -50 -93 -22 -7 -25 -26 -9 -56 9 -17 5
-22 -28 -36 -74 -31 -336 -123 -340 -119 -5 5 -4 5 157 103 160 97 228 141
235 153 3 5 -1 36 -10 69 -8 32 -15 76 -15 97 0 42 -19 86 -21 49 -2 -41 2
-121 7 -147 5 -26 4 -27 -34 -25 -38 2 -47 -5 -231 -172 -106 -95 -191 -175
-188 -177 2 -2 115 33 250 77 231 76 247 83 247 106 0 36 23 38 87 6 100 -49
134 -134 64 -157 l-34 -11 -88 -280 c-49 -154 -89 -284 -89 -290 0 -11 51 41
165 170 44 50 82 92 85 95 3 3 41 45 84 93 55 63 76 93 71 105 -4 9 -9 32 -12
49 l-6 33 88 0 c64 0 94 -4 116 -17 39 -23 42 -64 8 -119 -11 -18 -19 -48 -18
-70 1 -38 2 -38 9 -9 l8 30 1 -30 c2 -57 -11 -137 -21 -123 -5 8 -8 -3 -7 -32
1 -25 -1 -67 -5 -95 l-6 -50 14 55 c8 30 20 82 26 115 17 79 18 73 75 -215 41
-208 55 -266 55 -234 0 5 11 63 25 129 14 66 37 176 51 245 15 69 29 141 33
160 l8 35 7 -40 c4 -22 9 -48 11 -57 2 -10 -1 -18 -6 -18 -5 0 -10 12 -10 28
-2 26 -2 26 -6 3 -3 -16 1 -29 12 -38 13 -9 16 -20 11 -43 -4 -21 -2 -29 5
-24 8 4 9 -3 5 -22 -3 -16 -2 -42 3 -59 14 -45 13 -22 -6 237 -11 150 -14 241
-8 247 11 10 73 15 149 13 l49 -2 -6 -33 c-3 -17 -8 -39 -12 -48 -3 -9 0 -23
7 -30 7 -8 31 -34 52 -59 37 -43 189 -211 211 -234 6 -6 37 -39 68 -73 31 -35
57 -58 57 -53 0 12 -49 179 -119 400 -48 154 -48 155 -85 169 -30 11 -36 19
-36 43 0 39 71 109 128 126 49 15 62 10 62 -22 0 -21 14 -27 133 -65 72 -24
178 -59 235 -78 96 -33 138 -37 101 -9 -16 11 -95 82 -283 254 -73 67 -83 73
-113 67 l-32 -6 6 93 c4 62 2 90 -5 83 -5 -5 -13 -54 -16 -108 l-7 -99 40 7
c22 4 46 3 54 -2 8 -4 59 -49 113 -99 55 -50 116 -106 137 -124 21 -18 36 -34
34 -37 -4 -4 -180 93 -318 174 -110 65 -127 107 -89 218 26 76 26 110 -2 129
-40 28 -138 13 -138 -21 0 -8 11 -31 25 -51 45 -67 31 -125 -59 -243 -59 -78
-75 -127 -61 -191 10 -45 19 -54 69 -69 l43 -13 67 -208 c64 -199 80 -274 41
-198 -9 19 -73 130 -141 246 -157 267 -155 256 -53 428 83 137 96 189 60 225
-16 16 -32 21 -54 19 -30 -3 -32 -6 -45 -68 -7 -36 -11 -78 -8 -93 7 -35 -11
-71 -58 -116 -35 -34 -36 -34 -75 -21 -42 13 -53 29 -73 100 -6 25 -17 48 -22
52 -12 8 35 28 66 28 19 0 20 -5 17 -68 l-4 -67 33 2 c87 5 107 65 47 139 -38
46 -41 56 -22 76 33 35 69 92 82 129 20 54 19 108 0 115 -27 11 -17 50 21 84
29 25 43 31 73 28 34 -3 36 -1 39 29 4 38 -26 63 -76 63 -47 0 -69 -14 -94
-63 -21 -41 -21 -41 -28 -17 -19 71 -68 100 -126 75 -25 -10 -36 -22 -40 -44
-9 -45 -8 -46 41 -43 37 3 49 -1 70 -22 28 -28 32 -58 10 -76 -8 -7 -15 -22
-15 -34 0 -44 -81 -163 -102 -150 -14 9 -8 43 10 54 16 9 16 11 -3 23 -11 6
-31 14 -45 17 -21 4 -26 12 -33 59 -4 30 -5 56 -2 59 3 3 16 -7 29 -21 14 -15
32 -27 40 -27 20 0 46 39 46 68 0 19 -4 23 -17 17 -48 -21 -58 -13 -61 47 -2
37 1 60 10 67 7 6 24 19 37 29 23 18 23 19 11 97 -24 161 -31 163 -59 13 -12
-61 -22 -113 -24 -114 -1 -1 -3 172 -5 384 -3 341 -16 704 -21 567z m-47 -405
c29 -186 37 -279 35 -401 -1 -68 1 -135 5 -148 6 -17 5 -22 -4 -16 -16 10 -30
-13 -30 -51 0 -19 6 -34 15 -38 11 -4 15 -21 15 -65 0 -50 -3 -62 -20 -71 -17
-9 -20 -8 -20 10 0 11 5 20 10 20 6 0 10 16 10 35 0 19 -5 35 -11 35 -7 0 -9
22 -5 68 14 163 17 246 10 239 -5 -5 -12 -43 -15 -85 -3 -45 -6 26 -7 169 -1
135 -5 282 -8 325 -4 43 -4 77 -1 74 3 -3 13 -48 21 -100z m-331 -854 c16 -30
55 -79 88 -109 77 -72 79 -103 3 -56 -57 35 -133 150 -134 202 0 31 14 18 43
-37z m647 36 c0 -40 -61 -137 -112 -179 -51 -42 -78 -53 -78 -33 0 6 28 37 63
70 38 35 73 80 87 110 24 51 40 64 40 32z m-294 -40 c-12 -11 -18 7 -10 30 l8
23 4 -23 c2 -13 1 -26 -2 -30z m-86 13 c0 -8 -4 -17 -10 -20 -6 -4 -10 5 -10
20 0 15 4 24 10 20 6 -3 10 -12 10 -20z m37 -97 c-2 -13 -4 -5 -4 17 -1 22 1
32 4 23 2 -10 2 -28 0 -40z m-78 -39 c10 -61 2 -121 -12 -85 -4 10 -4 22 -1
27 10 17 -7 69 -23 69 -11 0 -14 6 -9 23 3 12 6 28 6 36 0 10 3 11 14 2 8 -7
19 -39 25 -72z m201 46 c0 -23 -5 -35 -14 -35 -18 0 -28 -39 -20 -79 7 -34
-11 -44 -21 -12 -6 19 -3 40 17 119 13 52 38 57 38 7z m-245 -105 c3 -5 1 -10
-4 -10 -6 0 -11 5 -11 10 0 6 2 10 4 10 3 0 8 -4 11 -10z m252 -12 c-3 -8 -6
-5 -6 6 -1 11 2 17 5 13 3 -3 4 -12 1 -19z m-10 -100 c-3 -7 -5 -2 -5 12 0 14
2 19 5 13 2 -7 2 -19 0 -25z m30 0 c-3 -7 -5 -2 -5 12 0 14 2 19 5 13 2 -7 2
-19 0 -25z m-40 -60 c-3 -8 -6 -5 -6 6 -1 11 2 17 5 13 3 -3 4 -12 1 -19z
m-169 -35 c-9 -11 -13 -12 -19 -1 -5 7 -9 21 -9 30 0 17 1 17 20 1 15 -13 17
-20 8 -30z m142 17 c0 -34 -25 -42 -33 -10 -3 13 0 20 9 20 8 0 14 5 14 10 0
6 2 10 5 10 3 0 5 -13 5 -30z m90 2 c0 -15 -2 -15 -10 -2 -13 20 -13 33 0 25
6 -3 10 -14 10 -23z m-299 -96 c5 -6 9 -15 9 -20 0 -6 -7 -2 -15 8 -8 11 -14
29 -14 40 1 20 1 21 6 1 3 -11 9 -24 14 -29z m265 8 c-4 -14 -9 -24 -12 -21
-3 2 -2 17 2 31 3 15 9 25 11 22 3 -3 2 -17 -1 -32z m-139 -186 c-3 -8 -6 -5
-6 6 -1 11 2 17 5 13 3 -3 4 -12 1 -19z m103 -60 c0 -32 -3 -39 -10 -28 -13
20 -13 70 0 70 6 0 10 -19 10 -42z m-15 -99 c4 -40 -1 -86 -20 -174 -14 -66
-31 -145 -36 -175 -6 -30 -13 -57 -16 -60 -3 -3 -2 92 3 210 9 256 9 235 0
285 l-7 40 34 -36 c28 -30 37 -48 42 -90z m24 9 c1 -5 -3 -8 -9 -8 -5 0 -10
12 -9 28 0 24 1 25 9 7 5 -11 9 -23 9 -27z"/>
<path d="M1143 2620 c0 -25 2 -35 4 -22 2 12 2 32 0 45 -2 12 -4 2 -4 -23z"/>
<path d="M1041 1234 c0 -11 3 -14 6 -6 3 7 2 16 -1 19 -3 4 -6 -2 -5 -13z"/>
<path d="M1103 855 c0 -27 2 -38 4 -22 2 15 2 37 0 50 -2 12 -4 0 -4 -28z"/>
</g>
</svg>
