<?xml version="1.0" standalone="no"?>
<!DOCTYPE svg PUBLIC "-//W3C//DTD SVG 20010904//EN"
 "http://www.w3.org/TR/2001/REC-SVG-20010904/DTD/svg10.dtd">
<svg version="1.0" xmlns="http://www.w3.org/2000/svg"
 width="244.000000pt" height="305.000000pt" viewBox="0 0 244.000000 305.000000"
 preserveAspectRatio="xMidYMid meet">
<metadata>
Created by potrace 1.16, written by Peter Selinger 2001-2019
</metadata>
<g transform="translate(0.000000,305.000000) scale(0.100000,-0.100000)"
fill="#000000" stroke="none">
<path d="M947 2890 c-39 -155 -67 -421 -74 -706 -6 -257 -6 -262 14 -268 11
-4 29 -16 39 -27 15 -17 16 -22 4 -29 -7 -4 -24 -4 -37 1 -14 5 -31 9 -39 9
-24 0 -64 -47 -64 -75 0 -22 4 -25 39 -25 32 0 44 -6 70 -35 36 -41 37 -48 15
-70 -21 -21 -15 -113 12 -167 16 -35 16 -39 1 -56 -9 -10 -17 -28 -17 -40 0
-12 -4 -22 -10 -22 -14 0 -13 57 2 98 11 30 11 35 -7 48 -26 19 -62 18 -74 -3
-9 -17 -10 -17 -28 0 -11 9 -35 17 -55 17 -64 0 -84 -52 -53 -140 8 -23 15
-69 15 -101 0 -52 -4 -63 -30 -91 -30 -31 -39 -62 -20 -71 6 -3 6 -5 -1 -3 -6
1 -24 -10 -39 -24 -15 -14 -65 -40 -111 -59 -46 -19 -99 -40 -116 -48 -18 -7
-33 -11 -33 -9 0 3 73 60 163 126 89 67 163 126 165 131 2 5 -3 40 -12 78 -9
39 -16 86 -16 105 0 21 -5 36 -11 36 -9 0 -10 -25 -6 -90 l7 -89 -28 5 c-24 5
-34 0 -57 -28 -15 -18 -72 -80 -125 -138 -146 -157 -169 -184 -166 -188 2 -1
68 22 146 53 78 30 149 55 157 55 10 0 5 -12 -16 -37 -31 -38 -44 -76 -18 -55
19 15 253 132 266 132 14 0 41 -53 41 -80 0 -15 -10 -25 -30 -33 -34 -13 -31
-3 -94 -252 -20 -77 -47 -183 -60 -235 -13 -52 -23 -97 -21 -98 2 -2 42 49 90
113 47 64 88 115 90 113 3 -2 -4 -49 -15 -103 -10 -55 -17 -101 -15 -103 2 -2
14 16 26 40 13 23 28 51 34 60 5 10 50 86 98 170 88 151 89 154 83 206 l-6 52
37 0 c48 0 101 -32 109 -65 4 -18 -1 -33 -19 -55 -14 -16 -23 -37 -21 -47 2
-10 26 -155 54 -323 28 -167 53 -306 55 -309 3 -2 5 -1 5 2 0 8 99 606 104
630 2 10 -7 31 -21 47 -31 37 -26 70 17 100 21 15 41 20 67 18 l38 -3 0 -55
c0 -52 7 -67 120 -267 66 -117 121 -206 123 -198 3 14 -25 164 -36 194 -12 31
20 -3 90 -97 40 -53 73 -99 75 -101 16 -22 3 40 -49 239 -33 129 -65 254 -71
277 -8 33 -16 44 -39 52 -39 14 -43 32 -18 80 11 23 22 41 23 41 2 0 70 -36
153 -79 82 -44 151 -75 152 -70 2 5 -8 25 -22 44 -30 39 -34 60 -8 50 90 -38
225 -86 229 -82 4 5 -242 282 -284 320 -11 9 -31 16 -44 15 -13 -2 -23 2 -22
7 11 73 13 154 4 160 -7 4 -11 -5 -11 -23 0 -16 -3 -63 -6 -105 l-7 -75 39 5
39 5 114 -127 c62 -69 111 -128 109 -131 -8 -8 -222 141 -274 191 -61 58 -72
90 -55 159 23 94 24 125 7 151 -18 27 -61 34 -96 15 -14 -7 -25 -7 -38 1 -24
15 -69 4 -74 -19 -2 -9 0 -27 5 -39 5 -12 7 -29 3 -39 -6 -16 -8 -16 -26 1
-24 22 -25 38 -5 68 8 12 17 48 21 80 6 47 4 61 -11 76 -22 25 -13 52 27 86
24 20 39 25 60 21 26 -5 28 -3 28 24 0 44 -32 71 -80 68 -55 -3 -61 9 -21 43
l34 28 -8 233 c-4 128 -13 280 -21 338 l-13 105 5 -85 c3 -47 9 -152 14 -235
5 -82 10 -191 10 -242 l0 -92 -33 -25 c-19 -15 -36 -26 -38 -26 -2 0 -6 212
-8 471 -3 382 -1 470 10 464 9 -6 11 -3 6 9 -4 10 -7 27 -8 39 0 21 -1 21 -9
2 -5 -11 -15 -47 -21 -80 l-13 -60 -7 40 c-4 22 -8 58 -8 79 -1 22 -3 37 -6
34 -3 -3 -7 -111 -9 -239 -2 -129 -7 -348 -11 -487 -7 -230 -9 -252 -24 -238
-10 11 -17 44 -22 98 -3 46 -7 74 -8 63 -2 -12 -5 -15 -8 -7 -4 10 -8 9 -19
-5 -13 -17 -13 -17 -14 0 0 9 -4 17 -10 17 -5 0 -10 -20 -10 -45 0 -25 -4 -45
-10 -45 -6 0 -10 34 -10 83 0 149 -37 453 -60 496 -10 18 -14 5 -34 -109 -21
-115 -36 -284 -36 -403 0 -63 -4 -96 -10 -92 -5 3 -10 25 -10 48 0 48 -19 90
-21 47 0 -14 -3 -19 -6 -10 -2 8 -7 22 -9 30 -5 13 -6 13 -14 0 -6 -8 -10 -10
-10 -5 -8 276 -31 585 -57 755 -11 76 -19 12 -13 -113 3 -62 3 -125 0 -142 -6
-30 -6 -30 -13 10 -4 22 -7 60 -8 85 0 25 -5 56 -10 70 -12 36 -2 -125 12
-175 6 -22 13 -173 16 -335 5 -268 4 -297 -11 -309 -10 -9 -20 -10 -25 -5 -18
19 -41 884 -24 906 5 7 6 27 3 43 -7 30 -7 30 -13 5z m477 -1020 c-14 -14 -38
5 -30 26 6 16 8 16 23 1 11 -11 14 -20 7 -27z m-340 14 c8 -22 5 -24 -21 -18
-13 4 -20 11 -16 20 7 19 29 18 37 -2z m-87 -31 c-3 -3 -11 -2 -17 2 -8 5 -7
11 2 22 12 15 13 14 16 -1 2 -10 1 -20 -1 -23z m493 11 c0 -9 -5 -14 -12 -12
-18 6 -21 28 -4 28 9 0 16 -7 16 -16z m-85 -113 c2 -4 -4 -12 -14 -18 -19 -12
-58 8 -47 25 6 10 53 4 61 -7z m-275 -4 c0 -8 -11 -12 -27 -11 -35 2 -35 2
-28 14 9 15 55 12 55 -3z m-5 -94 c30 5 35 3 35 -13 0 -11 9 -24 21 -30 11 -7
27 -27 35 -46 8 -19 16 -34 19 -34 2 0 12 16 21 36 10 20 26 39 36 42 11 2 18
14 18 28 0 21 3 23 30 18 37 -8 56 7 66 49 7 31 7 32 16 8 6 -17 4 -29 -7 -41
-8 -9 -15 -30 -15 -46 0 -48 -13 -59 -48 -45 -55 23 -71 9 -110 -89 -9 -24
-10 -24 -21 15 -12 44 -43 85 -66 85 -7 0 -26 -5 -41 -10 -33 -13 -44 -1 -44
47 0 17 -4 35 -10 38 -5 3 -10 21 -10 38 l0 32 20 -44 c19 -42 22 -43 55 -38z
m-143 -101 c24 -77 22 -86 -7 -32 -13 25 -24 58 -25 74 0 40 11 26 32 -42z
m538 46 c0 -13 -12 -45 -25 -73 -25 -50 -25 -44 -2 48 12 49 27 63 27 25z
m-380 -78 c19 -10 44 -69 34 -79 -8 -8 -64 59 -64 76 0 16 5 16 30 3z m220 -3
c0 -8 -16 -31 -35 -53 l-36 -39 6 35 c9 46 65 96 65 57z m-554 -85 c-11 -10
-14 3 -8 33 l7 30 3 -28 c2 -16 1 -31 -2 -35z m873 -34 l-1 -63 -8 55 c-8 50
-6 70 6 70 2 0 3 -28 3 -62z m-893 -95 c-3 -3 -8 -4 -11 -1 -10 10 -17 97 -9
115 5 13 10 1 17 -45 6 -34 7 -65 3 -69z m705 74 c-8 -8 -11 -7 -11 4 0 9 3
19 7 23 4 4 9 2 11 -4 3 -7 -1 -17 -7 -23z m-501 7 c0 -8 -5 -12 -10 -9 -6 4
-8 11 -5 16 9 14 15 11 15 -7z m370 11 c0 -6 -62 -45 -72 -45 -5 0 -8 9 -8 20
0 13 5 18 14 14 8 -3 23 -1 33 5 20 11 33 14 33 6z m-195 -15 c14 -5 23 -14
20 -20 -4 -6 -17 -4 -36 5 -46 24 -35 34 16 15z m-41 -76 c18 -4 21 -11 18
-39 -4 -30 -1 -36 22 -45 30 -11 35 -44 9 -58 -12 -7 -24 -5 -40 5 -19 13 -31
13 -66 5 -42 -11 -65 -3 -52 17 3 7 19 10 33 9 l27 -3 -3 64 c-3 56 -2 63 13
57 9 -3 27 -9 39 -12z m274 -46 l-3 -63 29 0 c28 0 46 -18 28 -29 -4 -2 -27 0
-50 6 -34 8 -46 8 -66 -6 -31 -20 -56 -11 -56 20 0 17 8 28 26 34 23 9 26 15
21 43 -5 30 -2 34 26 44 18 6 36 11 40 12 5 0 7 -27 5 -61z m263 21 l-10 -24
0 26 c-1 14 2 29 6 33 12 12 14 -9 4 -35z m-841 -10 c0 -10 -4 -19 -10 -19 -5
0 -10 12 -10 26 0 14 4 23 10 19 6 -3 10 -15 10 -26z m103 -9 c6 -34 6 -34 -7
-11 -8 14 -12 31 -9 38 7 18 9 15 16 -27z m622 -41 c-10 -21 -22 -39 -26 -39
-4 0 2 22 14 49 12 27 24 45 26 39 2 -5 -5 -27 -14 -49z m-582 -39 c8 -29 0
-24 -19 13 -14 27 -15 30 -2 19 9 -7 18 -22 21 -32z m-243 -40 c0 -5 -9 -14
-20 -20 -17 -9 -20 -8 -20 10 0 13 7 20 20 20 11 0 20 -4 20 -10z m1055 -17
c5 -12 25 -31 45 -42 35 -20 111 -91 96 -91 -11 0 -226 121 -226 128 0 2 8 11
18 18 24 19 55 13 67 -13z m-856 -72 c5 -25 6 -51 2 -59 -12 -21 -17 -6 -26
63 -8 70 8 67 24 -4z m661 22 c0 -77 11 -100 54 -119 l41 -19 57 -215 c32
-118 55 -216 53 -218 -4 -4 -41 73 -128 258 -19 41 -45 106 -57 143 -12 38
-28 71 -36 74 -22 8 -15 123 7 123 5 0 9 -12 9 -27z m-951 -19 c-13 -14 -32
-30 -43 -36 -14 -8 -12 -2 8 25 26 34 46 49 55 41 3 -2 -6 -16 -20 -30z m678
20 c-3 -3 -12 -4 -19 -1 -8 3 -5 6 6 6 11 1 17 -2 13 -5z m-31 -66 c-4 -24
-15 -58 -25 -76 l-17 -33 -22 44 c-12 24 -22 57 -21 73 0 24 3 22 15 -18 8
-26 19 -50 24 -53 12 -8 28 24 36 74 4 23 9 39 12 37 2 -3 1 -24 -2 -48z
m-342 -112 c6 -40 -7 -96 -23 -96 -4 0 -15 -14 -25 -31 -10 -17 -20 -28 -22
-26 -3 2 2 38 11 78 9 41 18 84 21 97 8 38 31 26 38 -22z m36 23 c0 -11 -4
-18 -10 -14 -5 3 -7 12 -3 20 7 21 13 19 13 -6z m534 5 c4 -9 4 -31 1 -48 -5
-24 0 -41 19 -69 15 -21 35 -56 46 -77 22 -44 91 -232 87 -237 -5 -4 -41 57
-124 211 -72 133 -74 141 -68 187 7 49 27 65 39 33z m-648 -127 c-9 -41 -19
-83 -23 -93 -9 -25 -131 -202 -145 -210 -6 -4 -9 -3 -6 2 3 5 23 47 45 94 114
243 136 290 140 286 2 -2 -3 -38 -11 -79z m4 -179 c-30 -84 -61 -146 -47 -93
3 11 8 36 12 55 8 43 24 88 43 118 28 43 25 12 -8 -80z"/>
<path d="M1432 2820 c0 -14 2 -19 5 -12 2 6 2 18 0 25 -3 6 -5 1 -5 -13z"/>
<path d="M1532 2780 c0 -14 2 -19 5 -12 2 6 2 18 0 25 -3 6 -5 1 -5 -13z"/>
<path d="M1542 2715 c0 -16 2 -22 5 -12 2 9 2 23 0 30 -3 6 -5 -1 -5 -18z"/>
<path d="M1412 2655 c0 -16 2 -22 5 -12 2 9 2 23 0 30 -3 6 -5 -1 -5 -18z"/>
<path d="M1552 2650 c0 -19 2 -27 5 -17 2 9 2 25 0 35 -3 9 -5 1 -5 -18z"/>
<path d="M1402 2515 c0 -16 2 -22 5 -12 2 9 2 23 0 30 -3 6 -5 -1 -5 -18z"/>
<path d="M1393 2385 c0 -33 2 -45 4 -27 2 18 2 45 0 60 -2 15 -4 0 -4 -33z"/>
</g>
</svg>
