<?xml version="1.0" standalone="no"?>
<!DOCTYPE svg PUBLIC "-//W3C//DTD SVG 20010904//EN"
 "http://www.w3.org/TR/2001/REC-SVG-20010904/DTD/svg10.dtd">
<svg version="1.0" xmlns="http://www.w3.org/2000/svg"
 width="244.000000pt" height="305.000000pt" viewBox="0 0 244.000000 305.000000"
 preserveAspectRatio="xMidYMid meet">
<metadata>
Created by potrace 1.16, written by Peter Selinger 2001-2019
</metadata>
<g transform="translate(0.000000,305.000000) scale(0.100000,-0.100000)"
fill="#000000" stroke="none">
<path d="M881 2875 c-20 -72 -59 -298 -70 -410 -7 -60 -14 -208 -18 -327 l-6
-217 29 -11 c16 -6 41 -23 56 -37 l26 -25 22 25 c12 14 36 31 53 38 l30 13 -7
228 c-7 232 -22 392 -52 550 -26 131 -29 98 -5 -49 33 -206 63 -675 44 -698
-13 -16 -71 -55 -83 -55 -7 0 -10 155 -10 482 0 292 4 478 9 473 5 -6 11 -21
14 -35 l4 -25 2 26 c0 15 -5 42 -13 60 l-14 33 -11 -39z"/>
<path d="M1566 2877 c-52 -186 -81 -426 -92 -749 l-7 -207 34 -14 c19 -8 40
-21 48 -30 18 -23 22 -22 82 15 l52 33 -6 225 c-5 222 -38 538 -58 570 -7 11
-8 7 -5 -15 39 -216 70 -696 50 -749 -3 -9 -12 -16 -19 -16 -6 0 -20 -9 -30
-20 -45 -50 -45 -48 -45 443 0 254 4 477 9 494 5 18 6 35 1 38 -4 3 -11 -5
-14 -18z"/>
<path d="M1602 2775 c0 -16 2 -22 5 -12 2 9 2 23 0 30 -3 6 -5 -1 -5 -18z"/>
<path d="M1267 2712 c-4 -24 -5 -80 -2 -125 l5 -82 -17 50 -16 50 -13 -35
c-12 -34 -13 -32 -13 42 -1 42 -5 79 -10 83 -6 3 -8 -34 -4 -97 4 -74 1 -125
-10 -183 -18 -86 -37 -335 -37 -470 0 -46 -4 -86 -9 -89 -4 -3 -13 27 -20 67
-35 217 -49 229 -72 61 -14 -95 -14 -94 47 -130 15 -9 19 -23 19 -62 0 -60
-16 -83 -45 -64 -30 19 -40 15 -40 -17 0 -32 22 -61 46 -61 8 0 25 11 38 25
32 34 39 31 31 -13 -5 -34 -3 -40 19 -52 17 -8 26 -22 26 -37 0 -26 -12 -30
-30 -9 -6 8 -21 16 -33 18 -25 5 -77 -18 -77 -32 0 -5 12 -12 28 -16 46 -10
50 -12 67 -37 10 -15 18 -58 22 -109 5 -80 4 -85 -15 -90 -31 -9 -44 -41 -26
-67 9 -12 20 -19 25 -16 11 7 12 -35 1 -50 -4 -5 -16 -15 -26 -21 -28 -15 -30
-30 -7 -53 16 -16 17 -21 6 -21 -19 0 -35 31 -35 69 0 29 -2 31 -40 31 -21 0
-55 -8 -74 -17 -44 -21 -72 -10 -112 43 -22 29 -29 49 -30 88 -2 67 -14 138
-27 154 -14 18 -51 15 -78 -7 -42 -34 -33 -81 41 -206 91 -157 91 -157 94
-248 2 -45 6 -93 10 -107 5 -21 -8 -41 -91 -136 -54 -61 -122 -139 -152 -173
-30 -34 -56 -60 -58 -57 -2 2 43 87 100 188 176 309 171 296 141 399 -17 57
-37 91 -91 151 -66 75 -79 146 -38 206 30 44 32 68 6 82 -29 15 -93 12 -119
-6 -28 -19 -28 -52 -2 -130 11 -32 20 -79 20 -103 0 -37 -5 -48 -35 -76 -33
-30 -35 -34 -24 -59 7 -14 10 -28 8 -29 -9 -8 -350 -127 -362 -127 -12 0 32
39 45 40 3 0 62 34 130 76 67 42 142 88 165 103 48 29 49 33 28 111 -8 30 -15
71 -15 90 0 19 -5 42 -11 50 -7 11 -9 -13 -7 -82 l4 -98 -36 6 c-33 4 -41 -1
-130 -82 -52 -48 -137 -125 -188 -172 -51 -46 -91 -87 -88 -89 3 -3 85 20 183
52 97 31 206 66 240 76 54 17 63 23 63 44 0 35 16 39 68 20 57 -21 100 -58
119 -103 17 -40 7 -57 -36 -65 -31 -7 -28 3 -121 -297 -28 -91 -60 -191 -71
-223 -12 -32 -19 -61 -16 -63 2 -2 40 35 83 83 43 49 109 120 145 158 36 39
81 87 100 109 19 21 42 47 51 57 28 29 37 54 27 70 -5 7 -9 26 -9 42 l0 27 89
0 c75 0 93 -3 121 -23 56 -38 59 -52 22 -90 -33 -34 -33 -35 -23 -88 12 -66
61 -303 96 -463 14 -65 25 -123 26 -130 2 -31 33 104 105 468 l36 178 -33 34
c-38 39 -35 53 21 92 28 19 46 22 128 22 l94 0 -6 -27 c-20 -78 -22 -73 65
-168 45 -49 107 -117 137 -150 108 -119 175 -186 179 -181 5 4 -29 118 -82
281 -18 55 -43 134 -55 175 -24 81 -43 110 -70 110 -36 0 -44 26 -21 72 22 46
62 77 123 97 44 14 58 9 58 -24 0 -21 12 -27 133 -65 72 -23 181 -58 240 -77
60 -19 110 -33 113 -31 4 5 -237 227 -333 307 -44 36 -56 42 -82 36 l-29 -6 4
98 c7 129 -11 103 -20 -30 l-7 -98 44 6 45 7 134 -120 c130 -116 166 -152 155
-152 -5 0 -154 82 -312 173 -115 67 -134 110 -95 222 11 32 20 69 20 82 0 52
-67 79 -134 53 -32 -12 -32 -34 -1 -85 42 -67 28 -129 -46 -213 -55 -63 -79
-112 -79 -165 0 -76 15 -102 67 -118 l46 -15 69 -204 c38 -113 67 -212 66
-220 -3 -13 -29 28 -115 180 -11 19 -56 94 -99 165 -106 176 -106 186 -8 347
82 135 95 178 66 217 -21 28 -65 39 -86 22 -14 -11 -25 -77 -29 -161 -2 -35
-10 -56 -35 -87 -40 -51 -62 -59 -104 -39 -17 9 -51 16 -76 16 -42 0 -44 -1
-38 -24 8 -33 -8 -72 -33 -79 -27 -7 -37 10 -11 18 24 8 27 47 5 65 -17 14
-21 80 -4 80 20 0 5 55 -18 65 -26 11 -28 26 -13 129 12 79 27 101 76 110 38
8 43 20 15 36 -30 15 -82 12 -103 -7 -17 -15 -18 -15 -18 11 0 19 7 30 26 38
23 11 25 16 20 50 -7 44 2 48 32 13 33 -38 58 -32 80 19 15 33 1 59 -20 38
-15 -15 -45 -15 -54 0 -4 6 -7 32 -6 57 0 40 5 50 37 77 l38 31 -8 59 c-10 90
-26 155 -35 149 -4 -3 -13 -35 -20 -72 -24 -140 -32 -173 -39 -173 -4 0 -11
84 -14 188 -4 103 -12 216 -18 252 -6 36 -14 153 -17 260 -5 139 -9 183 -15
152z m0 -509 c4 -187 2 -263 -6 -263 -17 0 -13 -37 4 -44 13 -5 15 20 16 182
2 273 17 143 21 -182 2 -201 0 -260 -9 -263 -8 -3 -13 5 -13 22 0 15 -4 24
-10 20 -6 -3 -10 4 -10 18 0 14 -2 40 -5 58 -4 25 -1 23 8 -11 l13 -45 7 55
c4 30 7 69 6 85 0 26 -2 27 -9 10 -8 -18 -9 -19 -9 -1 -1 12 -6 16 -16 12 -13
-5 -15 36 -14 337 1 412 18 418 26 10z m-8 -565 c1 -15 -3 -30 -9 -33 -6 -4
-10 14 -9 47 0 39 3 48 9 33 5 -11 9 -32 9 -47z m-29 -123 c1 16 4 15 12 -8 7
-20 7 -32 -1 -40 -15 -15 -19 -8 -25 43 -4 36 -4 39 3 15 6 -22 9 -25 11 -10z
m87 -357 c-3 -8 -6 -5 -6 6 -1 11 2 17 5 13 3 -3 4 -12 1 -19z m-8 -111 c-1
-18 -5 -43 -9 -57 -6 -19 -8 -9 -9 38 -1 40 3 61 9 57 6 -3 10 -21 9 -38z
m-130 -19 c-1 -45 -2 -49 -9 -23 -11 44 -11 75 0 75 6 0 9 -23 9 -52z m88
-104 c-13 -25 -12 -31 6 -61 17 -29 19 -46 14 -119 -2 -46 -1 -84 4 -84 5 0 9
39 9 87 l0 88 25 -26 26 -25 -16 -69 c-9 -37 -23 -81 -31 -96 -8 -15 -14 -46
-14 -67 0 -38 -38 -242 -46 -251 -3 -3 -3 139 0 314 3 213 8 321 15 323 6 2
12 20 13 40 1 36 1 37 5 5 2 -18 -2 -44 -10 -59z m-30 -6 c-3 -8 -6 -5 -6 6
-1 11 2 17 5 13 3 -3 4 -12 1 -19z"/>
<path d="M1272 790 c0 -19 2 -27 5 -17 2 9 2 25 0 35 -3 9 -5 1 -5 -18z"/>
<path d="M745 1860 c-31 -12 -47 -36 -43 -65 3 -25 7 -27 49 -29 51 -2 73 -15
95 -58 13 -26 13 -29 -6 -45 -24 -21 -25 -55 -5 -112 12 -36 32 -68 93 -151
12 -16 9 -23 -22 -57 -51 -57 -55 -85 -18 -123 31 -30 64 -38 92 -20 12 7 12
14 2 43 -30 83 -11 102 77 74 44 -13 69 -17 80 -10 26 16 24 32 -6 44 -84 32
-137 66 -173 109 -42 51 -70 106 -70 140 0 32 15 23 29 -17 18 -50 114 -149
174 -179 43 -23 48 -23 54 -7 5 12 -3 24 -27 42 -82 62 -150 148 -150 189 0
13 -9 35 -20 49 -20 25 -20 25 1 54 23 33 56 44 99 35 28 -5 30 -3 30 24 0 33
-29 65 -66 74 -37 10 -77 -14 -98 -58 -18 -36 -21 -38 -30 -21 -37 62 -94 93
-141 75z"/>
<path d="M1435 1855 c-36 -20 -45 -32 -45 -67 0 -27 1 -27 43 -22 36 5 47 2
69 -17 37 -34 44 -65 18 -79 -13 -7 -20 -21 -20 -38 0 -16 -13 -48 -28 -73
-29 -44 -95 -109 -112 -109 -14 0 -43 -48 -36 -59 20 -32 170 87 218 174 31
56 33 58 36 32 4 -35 -37 -107 -91 -160 -35 -34 -96 -69 -160 -91 -14 -5 -16
-9 -7 -26 13 -25 32 -25 101 -2 30 11 60 17 67 15 15 -6 16 -50 1 -92 -6 -18
-8 -35 -5 -39 14 -13 81 0 103 20 33 31 28 61 -17 114 -36 40 -39 49 -28 64
104 142 136 235 88 260 -29 16 -25 38 16 76 29 28 43 34 80 34 40 0 44 2 44
25 0 39 -33 65 -84 65 -37 0 -48 -5 -70 -31 -14 -17 -26 -37 -26 -45 0 -25
-19 -15 -33 19 -25 58 -72 78 -122 52z"/>
</g>
</svg>
