<?xml version="1.0" standalone="no"?>
<!DOCTYPE svg PUBLIC "-//W3C//DTD SVG 20010904//EN"
 "http://www.w3.org/TR/2001/REC-SVG-20010904/DTD/svg10.dtd">
<svg version="1.0" xmlns="http://www.w3.org/2000/svg"
 width="244.000000pt" height="305.000000pt" viewBox="0 0 244.000000 305.000000"
 preserveAspectRatio="xMidYMid meet">
<metadata>
Created by potrace 1.16, written by Peter Selinger 2001-2019
</metadata>
<g transform="translate(0.000000,305.000000) scale(0.100000,-0.100000)"
fill="#000000" stroke="none">
<path d="M1070 2898 c0 -7 -7 -81 -15 -164 -8 -82 -17 -250 -21 -372 -4 -122
-9 -220 -11 -218 -2 2 -8 81 -13 175 -10 175 -49 459 -75 541 -11 35 -14 40
-16 20 -1 -14 0 -29 1 -35 9 -31 4 -945 -5 -945 -5 1 -25 14 -44 30 l-34 29 7
203 c6 185 10 240 31 438 4 36 5 62 1 59 -15 -14 -37 -264 -44 -489 -6 -203
-5 -237 8 -248 8 -7 31 -26 51 -42 l36 -29 22 23 c13 14 37 30 53 37 27 11 32
10 44 -6 8 -10 14 -25 14 -32 0 -7 9 -13 20 -13 11 0 20 -4 20 -10 0 -14 -22
-12 -44 5 -42 31 -81 14 -113 -49 l-20 -40 -18 38 c-33 69 -112 79 -148 19
-25 -43 -14 -63 29 -56 29 5 38 1 69 -30 38 -38 43 -58 20 -77 -19 -16 -19
-62 -1 -126 13 -42 23 -189 16 -234 -3 -25 -29 43 -30 78 0 49 -16 72 -49 72
-66 0 -78 -68 -31 -168 35 -75 38 -92 9 -66 -33 30 -67 95 -75 141 -5 35 -2
52 21 95 l27 52 -22 18 c-30 24 -85 23 -110 -2 -25 -25 -25 -27 2 -131 21 -85
21 -85 2 -125 -13 -27 -39 -52 -84 -82 -95 -63 -277 -172 -286 -172 -5 0 50
59 121 131 l130 130 43 -5 c41 -5 42 -5 42 23 0 73 -14 180 -23 174 -5 -3 -6
-38 -2 -89 l7 -84 -30 6 c-27 6 -42 -6 -207 -167 -97 -95 -172 -175 -167 -177
5 -1 52 13 103 32 52 19 149 53 217 77 109 38 122 46 122 66 0 13 7 26 15 29
20 8 115 -46 115 -65 0 -9 -14 -38 -30 -66 -35 -59 -39 -85 -11 -78 18 5 19 3
6 -34 -25 -73 -147 -504 -143 -508 2 -3 254 292 347 407 20 25 22 34 14 66 -5
20 -8 43 -5 50 4 13 42 17 42 5 -1 -8 -5 -38 -54 -372 -24 -162 -28 -216 -11
-159 4 13 45 113 92 222 73 174 84 206 82 250 -2 31 1 51 8 53 18 6 51 -15 69
-43 16 -24 16 -26 -16 -59 l-33 -34 37 -198 c21 -109 41 -211 46 -228 5 -16
16 -75 26 -130 9 -55 19 -95 20 -90 4 10 56 279 100 514 l25 134 -30 31 c-17
18 -31 37 -31 42 0 13 50 59 73 67 15 6 17 0 16 -46 -2 -43 8 -76 59 -197 33
-80 74 -174 91 -210 26 -55 30 -60 26 -30 -2 19 -8 60 -12 90 -6 47 -8 51 -13
25 -4 -24 -15 7 -52 145 -69 258 -65 232 -32 228 l29 -3 24 -170 c14 -93 27
-163 29 -154 1 9 -6 76 -18 149 -27 176 -26 180 6 180 25 0 26 -2 19 -37 -4
-21 -11 -41 -16 -44 -11 -6 57 -94 246 -317 66 -79 121 -138 123 -133 4 13
-139 508 -154 532 -3 6 0 15 7 20 11 6 8 19 -15 62 -16 29 -27 61 -23 69 7 20
112 72 126 63 6 -3 11 -17 11 -30 0 -19 9 -26 58 -43 31 -11 135 -47 230 -81
94 -33 172 -56 172 -52 0 5 -79 84 -176 177 -159 152 -180 169 -209 167 l-32
-2 4 97 c2 65 0 90 -6 77 -5 -11 -10 -38 -10 -60 -1 -22 -8 -64 -16 -94 -8
-30 -12 -58 -9 -62 3 -5 87 -63 187 -130 197 -131 202 -135 172 -127 -30 9
-338 128 -343 133 -3 3 0 17 7 31 10 23 8 29 -19 54 -26 25 -30 35 -30 84 0
30 7 76 15 100 23 66 22 116 0 132 -26 19 -100 18 -119 -2 -20 -20 -21 -17 10
-70 38 -64 30 -126 -28 -211 -40 -59 -58 -76 -58 -54 0 5 14 37 32 71 17 34
33 83 36 110 4 43 2 50 -21 65 -14 9 -36 15 -49 13 -19 -2 -24 -11 -29 -48 -9
-57 -25 -100 -39 -100 -11 0 -12 6 -10 114 1 51 7 87 16 102 9 12 18 48 21 79
5 46 3 58 -12 69 -22 16 -14 44 22 81 22 21 35 26 67 23 36 -2 41 0 44 19 5
34 -26 72 -63 79 -44 8 -71 -8 -96 -58 l-21 -42 -19 37 c-24 47 -61 71 -94 63
-29 -7 -35 13 -10 34 8 7 15 21 15 32 0 16 -3 18 -14 9 -24 -20 -31 104 -31
541 0 230 -3 406 -7 393 -11 -44 -37 -461 -44 -725 -4 -140 -11 -244 -15 -230
-4 14 -7 51 -8 83 -3 146 -52 504 -80 581 -8 21 -17 -5 -46 -144 -17 -79 -45
-383 -48 -502 -2 -127 -17 -64 -19 82 -1 109 -3 121 -7 65 -6 -69 -6 -69 -14
-28 -5 23 -15 44 -24 47 -13 5 -15 55 -11 406 1 220 2 400 1 400 -2 0 -3 -6
-3 -12z m130 -761 c-4 -137 -11 -251 -15 -255 -8 -8 2 414 11 471 4 21 8 37 9
35 2 -2 -1 -115 -5 -251z m195 -287 c3 -5 -1 -10 -9 -10 -9 0 -16 5 -16 10 0
6 4 10 9 10 6 0 13 -4 16 -10z m-218 -87 c-2 -16 -4 -3 -4 27 0 30 2 43 4 28
2 -16 2 -40 0 -55z m-136 -30 c4 -123 3 -203 -2 -203 -11 0 -49 79 -49 103 0
13 -7 30 -15 37 -21 17 -19 40 7 67 30 32 58 30 59 -4z m75 0 c-10 -10 -19 5
-10 18 6 11 8 11 12 0 2 -7 1 -15 -2 -18z m374 5 c24 -26 26 -51 5 -68 -8 -7
-15 -24 -15 -38 0 -24 -44 -112 -57 -112 -8 0 2 213 11 228 11 18 33 14 56
-10z m-125 2 c3 -5 1 -10 -4 -10 -6 0 -11 5 -11 10 0 6 2 10 4 10 3 0 8 -4 11
-10z m-215 -98 c0 -15 7 -26 20 -29 11 -3 31 -24 44 -46 l24 -40 16 37 c9 21
25 40 41 46 17 6 25 17 25 33 0 13 3 27 7 30 11 11 33 -14 33 -38 0 -44 -10
-55 -50 -55 -40 0 -49 -12 -66 -85 -7 -30 -7 -29 -24 19 -17 51 -23 57 -75 73
-22 6 -31 15 -33 35 -4 36 17 76 29 57 5 -8 9 -25 9 -37z m40 16 c0 -21 -3
-29 -10 -22 -5 5 -7 19 -4 32 9 31 14 27 14 -10z m-247 -60 c2 -13 8 -31 12
-40 5 -13 3 -18 -8 -18 -17 0 -27 21 -27 56 0 30 16 31 23 2z m603 -34 c-4
-13 -13 -24 -21 -24 -19 0 -19 -1 2 46 12 29 18 34 21 21 2 -10 1 -29 -2 -43z
m-456 25 c0 -5 -4 -9 -10 -9 -5 0 -10 7 -10 16 0 8 5 12 10 9 6 -3 10 -10 10
-16z m25 -95 c20 -48 19 -54 -5 -25 -18 21 -28 61 -15 61 3 0 12 -16 20 -36z
m250 -20 c-24 -37 -29 -23 -9 22 13 29 18 34 21 21 3 -10 -3 -29 -12 -43z
m-319 -26 c46 -44 62 -88 25 -69 -10 6 -24 24 -31 41 -8 18 -20 30 -31 30 -12
0 -19 7 -19 20 0 28 7 26 56 -22z m434 17 c0 -27 -12 -32 -29 -12 -8 10 -7 17
1 25 19 19 28 14 28 -13z m-557 -77 c4 -26 3 -49 -2 -52 -9 -6 -21 51 -21 99
1 43 16 12 23 -47z m628 -51 c-13 -13 -15 43 -3 94 6 30 7 28 10 -25 2 -32 -2
-64 -7 -69z m-121 89 c0 -19 -27 -46 -46 -46 -16 0 -12 12 14 43 18 21 32 22
32 3z m-250 -52 c0 -8 -4 -12 -10 -9 -5 3 -10 13 -10 21 0 8 5 12 10 9 6 -3
10 -13 10 -21z m121 -7 c-8 -8 -11 -7 -11 4 0 9 3 19 7 23 4 4 9 2 11 -4 3 -7
-1 -17 -7 -23z m-237 -84 c-5 -44 13 -86 40 -91 17 -4 18 1 12 52 -6 46 -5 56
7 56 9 0 22 3 31 6 9 3 16 1 16 -5 0 -6 -6 -11 -14 -11 -35 0 -29 -67 7 -72
16 -2 22 -10 22 -27 0 -21 -5 -24 -35 -24 -68 0 -87 10 -97 51 -11 41 -6 102
7 102 5 0 6 -17 4 -37z m354 -24 c-4 -50 -9 -66 -28 -81 -13 -11 -30 -16 -39
-12 -18 7 -30 8 -51 3 -10 -3 -15 4 -15 21 0 17 6 26 20 28 11 2 24 8 29 12
13 13 -2 60 -19 60 -8 0 -15 4 -15 9 0 5 12 6 28 2 25 -7 27 -11 24 -49 -4
-47 3 -63 22 -56 21 8 39 60 32 94 -3 19 -1 30 5 30 8 0 10 -21 7 -61z m182
-13 c0 -26 -24 -53 -34 -37 -7 11 14 61 26 61 4 0 8 -11 8 -24z m-690 -42 c0
-8 -4 -12 -10 -9 -5 3 -10 10 -10 16 0 5 5 9 10 9 6 0 10 -7 10 -16z m120 -16
c0 -5 -4 -8 -10 -8 -5 0 -10 10 -10 23 0 18 2 19 10 7 5 -8 10 -18 10 -22z
m601 -51 c-13 -13 -15 1 -4 30 7 17 8 17 11 -1 2 -10 -1 -23 -7 -29z m-766
-18 c8 -23 1 -34 -14 -24 -13 8 -15 45 -2 45 5 0 13 -9 16 -21z m23 -93 c-4
-29 -34 -96 -94 -207 -49 -90 -107 -199 -129 -242 -22 -42 -41 -73 -43 -68 -2
7 34 138 114 412 2 9 25 22 49 29 40 11 46 17 57 54 22 77 54 93 46 22z m718
-12 c1 -37 12 -69 46 -134 133 -252 199 -382 196 -386 -3 -2 -67 75 -144 171
-99 125 -138 182 -136 198 2 20 6 75 10 175 3 54 27 33 28 -24z m107 26 c4
-17 3 -19 -9 -9 -8 6 -14 18 -14 26 0 20 16 8 23 -17z m-933 -15 c-18 -22 -55
-42 -43 -23 31 49 38 57 47 48 6 -6 4 -15 -4 -25z m20 -24 c0 -5 -7 -11 -15
-15 -15 -5 -20 5 -8 17 9 10 23 9 23 -2z m900 -6 c7 -8 8 -15 2 -15 -5 0 -15
7 -22 15 -7 8 -8 15 -2 15 5 0 15 -7 22 -15z m-454 -40 c17 23 18 16 3 -22
-10 -27 -11 -27 -25 -9 -8 11 -14 27 -14 35 1 13 3 12 12 -3 11 -19 11 -19 24
-1z m-182 -61 c5 -41 -2 -65 -66 -225 -39 -98 -73 -178 -74 -176 -3 2 97 392
111 435 9 26 23 10 29 -34z m122 -72 c-14 -28 -14 -45 0 -187 8 -86 14 -161
12 -167 -2 -6 -17 53 -32 133 -15 79 -29 153 -32 164 -3 13 7 34 27 58 36 44
48 43 25 -1z"/>
<path d="M1540 2898 c0 -9 -3 -24 -7 -34 -4 -12 -3 -15 5 -10 9 5 12 -109 12
-473 0 -265 -2 -481 -5 -481 -8 0 -68 43 -78 55 -16 20 4 412 38 725 2 25 -2
13 -9 -26 -23 -115 -36 -273 -43 -511 -6 -213 -5 -223 13 -229 10 -4 32 -19
47 -33 23 -21 30 -23 45 -13 9 7 32 22 51 34 l34 22 -6 245 c-3 135 -13 302
-22 371 -22 171 -55 353 -66 365 -6 5 -9 3 -9 -7z"/>
<path d="M1522 2800 c0 -14 2 -19 5 -12 2 6 2 18 0 25 -3 6 -5 1 -5 -13z"/>
<path d="M1511 2754 c0 -11 3 -14 6 -6 3 7 2 16 -1 19 -3 4 -6 -2 -5 -13z"/>
<path d="M1093 2705 c0 -22 2 -30 4 -17 2 12 2 30 0 40 -3 9 -5 -1 -4 -23z"/>
<path d="M882 2700 c0 -19 2 -27 5 -17 2 9 2 25 0 35 -3 9 -5 1 -5 -18z"/>
<path d="M1411 2664 c0 -11 3 -14 6 -6 3 7 2 16 -1 19 -3 4 -6 -2 -5 -13z"/>
<path d="M1102 2590 c0 -19 2 -27 5 -17 2 9 2 25 0 35 -3 9 -5 1 -5 -18z"/>
<path d="M1423 2525 c0 -33 2 -45 4 -27 2 18 2 45 0 60 -2 15 -4 0 -4 -33z"/>
<path d="M1114 2390 c0 -58 1 -81 3 -52 2 28 2 76 0 105 -2 28 -3 5 -3 -53z"/>
<path d="M1434 2135 c0 -93 2 -133 3 -88 2 45 2 122 0 170 -1 48 -3 12 -3 -82z"/>
</g>
</svg>
