<?xml version="1.0" standalone="no"?>
<!DOCTYPE svg PUBLIC "-//W3C//DTD SVG 20010904//EN"
 "http://www.w3.org/TR/2001/REC-SVG-20010904/DTD/svg10.dtd">
<svg version="1.0" xmlns="http://www.w3.org/2000/svg"
 width="244.000000pt" height="305.000000pt" viewBox="0 0 244.000000 305.000000"
 preserveAspectRatio="xMidYMid meet">
<metadata>
Created by potrace 1.16, written by Peter Selinger 2001-2019
</metadata>
<g transform="translate(0.000000,305.000000) scale(0.100000,-0.100000)"
fill="#000000" stroke="none">
<path d="M1525 2886 c-6 -21 -4 -31 4 -34 9 -3 12 -114 10 -478 -1 -261 -5
-474 -8 -474 -4 0 -23 15 -43 34 -30 28 -35 39 -33 72 2 22 6 134 9 249 4 116
14 263 22 327 23 197 24 206 9 138 -7 -36 -17 -96 -21 -135 -6 -55 -9 -64 -14
-40 -3 17 -9 -118 -13 -300 -8 -310 -17 -409 -30 -298 -3 26 -2 242 2 478 4
237 3 439 -1 450 l-7 20 0 -20 c-1 -11 -8 -76 -16 -145 -8 -69 -19 -228 -25
-355 -14 -313 -20 -395 -30 -395 -5 0 -10 26 -12 58 -2 34 -7 56 -14 55 -7 -1
-13 41 -17 125 -6 115 -17 194 -49 337 -9 42 -12 46 -19 27 -20 -53 -51 -247
-58 -356 -5 -78 -11 -121 -19 -124 -7 -2 -12 -24 -12 -52 0 -27 -4 -51 -9 -54
-11 -7 -18 68 -30 329 l-9 190 1 -210 c1 -195 -8 -291 -33 -380 -5 -17 -8 184
-7 472 1 276 -1 496 -5 489 -4 -7 -15 -89 -25 -182 l-18 -169 -12 80 c-21 141
-46 270 -53 278 -4 5 -10 -3 -12 -17 -3 -14 -1 -26 3 -26 5 0 9 -214 9 -475 0
-261 -2 -475 -5 -475 -3 0 -21 10 -41 23 l-36 22 6 240 c4 210 28 470 52 590
4 17 3 27 0 24 -12 -12 -45 -251 -55 -399 -6 -80 -13 -221 -16 -313 -4 -153
-3 -168 13 -174 9 -3 31 -19 48 -35 l30 -29 32 31 c19 18 38 27 47 24 14 -6
16 -10 15 -31 -1 -5 -10 -7 -20 -5 -31 5 -53 -13 -65 -53 l-10 -38 -25 39
c-44 66 -114 64 -138 -4 -13 -38 -5 -47 42 -48 31 0 44 -7 63 -30 26 -33 30
-66 8 -84 -10 -9 -15 -30 -14 -69 1 -48 -17 -159 -20 -123 -2 20 -60 -14 -73
-44 -9 -19 -9 -40 1 -86 7 -33 10 -63 7 -65 -13 -13 -34 21 -45 73 -12 53 -12
58 15 111 l28 55 -23 19 c-28 23 -84 25 -105 3 -20 -19 -20 -67 -1 -130 36
-119 20 -148 -141 -255 -158 -104 -204 -132 -209 -128 -2 3 53 62 122 133
l125 128 40 -6 41 -7 -7 62 c-3 34 -6 82 -6 105 0 27 -5 44 -11 44 -9 0 -10
-26 -6 -91 l6 -90 -28 6 c-26 6 -41 -7 -192 -160 -90 -91 -165 -170 -167 -175
-4 -11 47 5 218 68 196 73 210 79 210 102 0 23 13 32 34 24 24 -9 20 -24 -34
-114 -27 -46 -50 -87 -50 -91 0 -9 17 0 127 65 72 42 79 43 86 14 7 -26 -8
-48 -34 -48 -10 0 -21 -5 -24 -10 -10 -16 -155 -542 -154 -559 0 -12 4 -11 15
6 14 19 51 67 148 187 61 77 129 156 132 153 1 -1 -11 -79 -27 -172 -16 -94
-28 -177 -28 -185 0 -8 50 86 110 210 102 207 110 228 107 275 -3 48 -2 50 22
47 36 -3 66 -21 80 -48 11 -20 10 -27 -14 -54 -14 -17 -26 -42 -26 -55 0 -13
16 -111 36 -217 19 -106 44 -242 56 -303 18 -98 28 -138 28 -109 0 8 29 173
95 539 19 106 19 112 -10 141 -14 14 -25 31 -25 38 0 22 56 67 86 69 29 2 29
2 25 -47 -3 -46 5 -65 100 -258 57 -114 105 -206 107 -203 2 2 -8 74 -23 160
-14 86 -25 161 -23 167 3 7 25 -15 50 -48 25 -32 72 -91 104 -130 64 -76 121
-147 141 -173 17 -22 16 -6 -2 54 -9 28 -27 91 -40 140 -96 362 -100 371 -136
384 -29 10 -36 30 -23 66 6 14 9 14 33 -2 52 -34 144 -83 148 -79 2 2 -6 19
-19 38 -13 18 -34 55 -48 80 -27 51 -23 65 20 70 20 2 26 -2 28 -24 2 -18 12
-29 30 -37 15 -5 83 -31 152 -56 69 -26 154 -57 189 -71 36 -13 66 -22 69 -20
5 5 2 9 -188 200 -140 142 -157 156 -182 151 l-27 -6 0 91 c0 51 -2 95 -5 98
-4 3 -6 -12 -6 -34 0 -21 -7 -70 -15 -109 -8 -38 -15 -75 -15 -81 0 -10 41
-39 287 -208 40 -27 71 -52 68 -54 -4 -4 -193 68 -288 110 -47 22 -48 23 -42
59 6 32 3 38 -14 44 -13 4 -24 21 -32 48 -11 42 -6 83 23 185 10 36 10 48 -3
70 -19 35 -83 43 -119 14 l-23 -19 27 -45 c35 -60 32 -139 -8 -193 -25 -33
-40 -6 -21 38 32 76 11 147 -42 147 -12 0 -23 6 -26 13 -2 6 -9 -24 -16 -67
-6 -44 -14 -82 -18 -85 -3 -3 -3 17 1 44 17 124 18 144 9 160 -6 11 -6 35 0
66 8 40 7 53 -7 73 -22 34 -20 49 10 85 22 26 33 31 70 31 38 0 44 3 44 20 0
63 -81 102 -125 60 -13 -12 -29 -36 -36 -52 l-12 -30 -16 43 c-13 35 -23 45
-49 53 -35 10 -39 18 -18 35 11 9 20 6 44 -14 31 -26 48 -31 54 -17 2 4 20 21
41 37 l39 29 -7 190 c-3 105 -11 250 -16 321 -10 125 -49 378 -67 440 l-9 30
-8 -29z m-335 -811 c-4 -121 -8 -193 -10 -160 -6 92 6 394 14 383 2 -2 0 -102
-4 -223z m-105 -205 c3 -5 -1 -10 -9 -10 -9 0 -16 5 -16 10 0 6 4 10 9 10 6 0
13 -4 16 -10z m311 -17 c-10 -10 -19 5 -10 18 6 11 8 11 12 0 2 -7 1 -15 -2
-18z m-266 -91 c0 -5 -6 -17 -14 -28 -11 -14 -18 -16 -26 -8 -8 8 -7 15 5 28
18 17 35 21 35 8z m254 -17 c8 -21 -14 -30 -31 -12 -9 8 -12 20 -9 26 8 13 33
4 40 -14z m116 -45 c0 -10 -7 -23 -15 -30 -8 -7 -15 -23 -15 -36 0 -43 -18
-25 -25 25 -4 31 -2 57 5 71 11 21 12 21 31 4 10 -9 19 -25 19 -34z m-475 10
c4 -17 2 -36 -3 -43 -5 -7 -12 -21 -15 -32 -4 -17 -5 -17 -6 4 0 13 -9 29 -18
36 -15 11 -15 17 -5 39 16 35 39 33 47 -4z m161 -68 c-12 -12 -18 8 -10 35 l8
28 4 -28 c2 -16 1 -31 -2 -35z m-31 -9 c5 -12 17 -24 27 -26 10 -3 25 -22 33
-42 15 -34 35 -40 35 -10 0 17 82 105 97 105 20 0 35 -29 29 -56 -6 -24 -10
-25 -41 -20 -42 8 -68 -14 -86 -74 l-12 -41 -19 48 c-22 59 -43 76 -82 67 -31
-7 -46 6 -46 43 0 38 49 43 65 6z m-196 -50 c8 -21 36 -67 62 -103 51 -68 65
-102 31 -78 -53 38 -122 149 -122 197 0 33 15 24 29 -16z m129 -70 c14 -26 15
-33 3 -33 -16 0 -41 67 -40 107 l1 38 12 -45 c7 -25 18 -55 24 -67z m330 62
c-5 -42 -34 -102 -45 -92 -2 3 2 18 10 34 9 16 18 45 22 66 10 52 19 46 13 -8z
m117 8 c-3 -21 -17 -56 -30 -78 -31 -54 -97 -123 -102 -108 -5 13 13 43 64
110 17 24 37 59 44 78 17 46 33 45 24 -2z m-375 -84 c6 -11 10 -28 8 -37 -3
-13 -8 -9 -21 15 -20 37 -21 43 -7 43 5 0 14 -9 20 -21z m180 16 c0 -14 -32
-66 -37 -61 -8 7 17 66 28 66 5 0 9 -2 9 -5z m-390 -130 c0 -24 -4 -46 -9 -50
-13 -7 -25 57 -16 84 10 34 25 14 25 -34z m590 -6 c0 -21 -4 -39 -10 -39 -5 0
-10 21 -10 46 0 27 4 43 10 39 6 -3 10 -24 10 -46z m-360 -4 c0 -8 -4 -15 -10
-15 -5 0 -10 7 -10 15 0 8 5 15 10 15 6 0 10 -7 10 -15z m140 6 c0 -12 -20
-25 -27 -18 -7 7 6 27 18 27 5 0 9 -4 9 -9z m-280 -82 c-15 -51 11 -108 49
-109 10 0 12 12 7 54 -8 60 -4 67 37 59 26 -5 27 -7 12 -24 -21 -23 -11 -57
18 -61 12 -2 23 -11 25 -21 4 -21 -18 -53 -27 -38 -4 5 -31 11 -61 13 -47 3
-56 7 -67 28 -22 47 -21 142 1 134 11 -4 12 -13 6 -35z m407 -28 c-8 -89 -17
-101 -82 -102 -30 -1 -61 -2 -67 -3 -7 -1 -13 10 -13 24 0 18 6 26 22 28 29 4
40 38 19 61 -14 15 -14 17 2 18 9 1 24 3 32 5 12 2 14 -7 12 -49 -4 -59 6 -71
39 -44 20 16 24 27 22 70 -1 32 2 51 9 51 7 0 9 -19 5 -59z m140 -3 c-3 -8 -6
-5 -6 6 -1 11 2 17 5 13 3 -3 4 -12 1 -19z m83 -40 c-1 -19 -29 -53 -37 -45
-8 9 14 57 27 57 5 0 10 -6 10 -12z m-820 -63 c0 -5 -5 -3 -10 5 -5 8 -10 20
-10 25 0 6 5 3 10 -5 5 -8 10 -19 10 -25z m148 0 c-3 -3 -9 2 -12 12 -6 14 -5
15 5 6 7 -7 10 -15 7 -18z m482 5 c0 -5 -5 -10 -11 -10 -5 0 -7 5 -4 10 3 6 8
10 11 10 2 0 4 -4 4 -10z m-580 -129 c0 -50 -9 -72 -116 -280 -106 -205 -155
-292 -142 -251 3 8 24 83 47 165 24 83 49 174 58 203 13 48 19 55 57 72 50 21
54 28 63 122 6 65 7 68 19 47 7 -13 13 -48 14 -78z m864 38 c38 -57 28 -69
-17 -20 -34 37 -41 61 -18 61 5 0 20 -18 35 -41z m-986 9 c2 -10 -20 -31 -59
-57 -34 -23 -63 -40 -65 -38 -2 2 19 29 47 61 50 56 71 65 77 34z m817 -61 c0
-72 0 -72 118 -306 65 -129 112 -229 104 -222 -12 9 -229 293 -258 336 -8 12
6 232 16 258 13 31 20 7 20 -66z m-361 -87 c3 0 12 12 20 28 8 15 15 21 16 14
0 -14 -28 -72 -35 -72 -8 0 -35 59 -35 77 1 11 6 5 15 -14 8 -18 16 -33 19
-33z m-200 -31 c12 -61 16 -51 -142 -389 -12 -25 -21 -41 -22 -37 0 4 24 85
54 180 29 95 59 196 66 225 15 58 34 68 44 21z m492 7 c3 -14 1 -32 -4 -42 -7
-13 -5 -28 8 -53 11 -20 28 -90 40 -156 11 -66 23 -131 26 -145 3 -14 3 -22 0
-19 -6 5 -136 418 -136 431 0 4 13 8 30 8 23 0 31 -5 36 -24z m-356 -106 c-8
-14 -6 -56 5 -151 8 -73 13 -134 11 -136 -2 -2 -6 16 -10 39 -3 24 -14 82 -23
130 -13 68 -14 93 -5 113 6 14 16 25 22 25 8 0 8 -6 0 -20z"/>
<path d="M1512 2815 c0 -16 2 -22 5 -12 2 9 2 23 0 30 -3 6 -5 -1 -5 -18z"/>
<path d="M1062 2800 c0 -14 2 -19 5 -12 2 6 2 18 0 25 -3 6 -5 1 -5 -13z"/>
<path d="M1432 2740 c0 -19 2 -27 5 -17 2 9 2 25 0 35 -3 9 -5 1 -5 -18z"/>
<path d="M1073 2700 c0 -25 2 -35 4 -22 2 12 2 32 0 45 -2 12 -4 2 -4 -23z"/>
<path d="M1442 2630 c0 -19 2 -27 5 -17 2 9 2 25 0 35 -3 9 -5 1 -5 -18z"/>
<path d="M1083 2585 c0 -27 2 -38 4 -22 2 15 2 37 0 50 -2 12 -4 0 -4 -28z"/>
</g>
</svg>
