<?xml version="1.0" standalone="no"?>
<!DOCTYPE svg PUBLIC "-//W3C//DTD SVG 20010904//EN"
 "http://www.w3.org/TR/2001/REC-SVG-20010904/DTD/svg10.dtd">
<svg version="1.0" xmlns="http://www.w3.org/2000/svg"
 width="244.000000pt" height="305.000000pt" viewBox="0 0 244.000000 305.000000"
 preserveAspectRatio="xMidYMid meet">
<metadata>
Created by potrace 1.16, written by Peter Selinger 2001-2019
</metadata>
<g transform="translate(0.000000,305.000000) scale(0.100000,-0.100000)"
fill="#000000" stroke="none">
<path d="M1352 2890 c0 -19 2 -27 5 -17 2 9 2 25 0 35 -3 9 -5 1 -5 -18z"/>
<path d="M918 2904 c-10 -15 -46 -219 -63 -356 -9 -70 -20 -237 -25 -370 -8
-237 -8 -243 11 -258 11 -8 35 -27 53 -42 l33 -27 28 29 c16 16 37 32 47 36
16 5 18 17 18 107 0 267 -34 641 -70 777 l-9 35 4 -35 c2 -19 15 -125 29 -235
25 -203 44 -591 29 -610 -10 -12 -70 -55 -78 -55 -3 0 -5 219 -4 488 0 281 4
479 9 467 l9 -20 0 20 c0 28 -14 61 -21 49z"/>
<path d="M1527 2833 c-42 -179 -65 -390 -73 -680 l-7 -231 24 -12 c13 -7 34
-22 47 -33 16 -15 27 -18 36 -12 7 6 31 22 53 36 l39 27 -3 133 c-5 208 -22
444 -40 559 -22 140 -29 111 -9 -38 22 -160 36 -363 36 -508 l0 -122 -36 -27
c-19 -15 -38 -24 -42 -20 -11 11 -11 907 0 937 6 16 6 33 1 43 -7 12 -13 -1
-26 -52z"/>
<path d="M1107 2813 c-3 -43 -11 -220 -17 -393 -5 -173 -15 -348 -20 -388 -12
-88 -13 -152 -2 -152 22 0 52 -43 51 -73 l-1 -32 -7 31 c-11 46 -17 51 -60 58
-55 9 -90 -10 -111 -59 l-17 -40 -21 41 c-24 46 -64 69 -106 58 -33 -8 -59
-44 -54 -76 3 -20 8 -23 41 -20 32 3 43 -2 72 -31 39 -39 42 -49 20 -71 -34
-34 -5 -151 59 -235 14 -19 26 -38 26 -42 0 -4 -16 -30 -35 -59 -41 -61 -42
-69 -14 -104 19 -24 19 -46 -1 -46 -5 0 -18 16 -30 35 -15 25 -20 43 -15 64 3
15 2 48 -4 72 -5 24 -12 56 -16 72 -4 22 -11 27 -34 27 -72 0 -81 -80 -21
-191 89 -163 94 -176 83 -201 -9 -21 -12 -18 -27 37 -11 38 -34 82 -63 119
-25 32 -51 74 -59 92 -20 47 -18 111 4 142 32 47 33 51 12 72 -13 13 -33 20
-56 20 -77 0 -94 -35 -64 -132 32 -101 24 -170 -22 -208 -20 -15 -21 -21 -10
-44 11 -24 9 -27 -18 -41 -48 -25 -314 -124 -319 -120 -2 3 -2 6 0 8 2 1 63
41 134 87 72 47 132 87 135 90 3 4 22 16 43 29 52 32 57 46 41 116 -8 33 -17
83 -22 110 -6 45 -7 40 -10 -47 l-3 -97 -27 5 c-25 5 -46 -12 -210 -171 -101
-98 -181 -179 -179 -182 2 -2 76 22 163 52 88 31 186 65 219 77 74 26 85 34
85 65 0 22 3 24 28 19 62 -15 139 -87 144 -136 2 -19 -4 -28 -32 -41 l-36 -17
-68 -234 c-89 -306 -96 -331 -92 -335 2 -2 63 67 136 154 72 87 150 180 173
207 70 83 70 83 58 129 -5 23 -7 45 -3 49 9 8 99 14 107 6 3 -3 -6 -109 -20
-236 -14 -127 -25 -241 -24 -254 l1 -23 8 25 c5 14 30 92 55 174 26 81 50 144
55 140 4 -5 17 -63 29 -129 43 -237 95 -497 98 -489 7 23 103 527 109 573 4
28 10 53 14 56 3 2 23 -51 44 -118 20 -67 48 -153 61 -192 l24 -70 -6 75 c-6
76 -12 103 -14 59 -1 -19 -88 377 -89 404 0 4 9 7 20 7 20 0 24 -10 34 -75 2
-16 3 -6 2 23 -2 32 1 52 8 53 60 6 78 5 93 -6 15 -11 15 -17 5 -39 -19 -42
-15 -54 41 -120 28 -35 110 -133 182 -219 71 -86 131 -154 133 -152 5 4 -151
545 -162 563 -3 5 -20 12 -37 16 -29 6 -31 8 -25 38 9 47 53 98 103 120 51 23
73 18 73 -15 0 -20 13 -28 123 -66 67 -24 164 -58 216 -77 52 -19 97 -31 100
-28 3 3 -73 82 -169 175 -162 158 -177 170 -205 165 l-30 -6 1 97 c2 88 1 92
-6 38 -4 -33 -8 -84 -9 -113 l-1 -52 40 6 39 6 138 -137 c156 -155 151 -156
-74 -14 -163 104 -169 108 -184 158 -10 35 -9 50 10 113 26 90 26 103 1 128
-24 24 -77 26 -108 4 -28 -19 -28 -32 3 -74 45 -61 31 -125 -55 -239 -40 -55
-51 -79 -59 -129 -6 -35 -8 -71 -4 -80 3 -9 -4 -3 -16 13 -11 17 -21 39 -21
50 1 18 2 17 15 -5 17 -30 19 -22 5 16 -9 23 -3 39 51 135 67 121 81 174 55
214 -21 31 -70 35 -86 6 -5 -11 -12 -59 -15 -107 -3 -54 -11 -96 -20 -111 -18
-27 -40 -31 -30 -5 23 58 8 134 -31 149 -23 9 -17 33 26 98 59 91 78 177 45
205 -22 18 -19 35 17 76 28 31 36 35 70 32 42 -4 53 8 39 45 -22 58 -89 68
-133 18 -15 -17 -28 -38 -28 -46 0 -25 -17 -17 -30 14 -19 46 -46 65 -90 64
-38 -2 -39 -1 -33 27 3 16 0 76 -7 132 l-13 103 -18 -40 c-17 -39 -18 -33 -20
350 -1 264 -4 361 -9 300 -13 -150 -20 -311 -21 -505 l-2 -185 -8 120 c-9 124
-40 330 -60 400 l-12 40 -9 -30 c-37 -127 -78 -438 -78 -587 0 -52 -14 -72
-24 -32 -4 14 -6 228 -5 475 0 248 -1 453 -4 455 -2 3 -7 -30 -10 -73z m173
-533 c11 -101 2 -401 -11 -345 -4 17 -7 -45 -8 -137 -1 -99 -5 -169 -11 -173
-12 -7 -14 745 -3 810 l7 40 8 -50 c4 -27 12 -93 18 -145z m47 -397 c-3 -10
-5 -4 -5 12 0 17 2 24 5 18 2 -7 2 -21 0 -30z m-174 -3 c-7 -28 -13 -25 -13 6
0 14 4 23 9 20 5 -3 7 -15 4 -26z m142 -79 c0 -38 -3 -73 -7 -77 -5 -4 -8 24
-8 63 0 56 5 83 14 83 1 0 1 -31 1 -69z m66 3 c-9 -38 -9 -38 -10 -7 -1 33 10
74 16 57 2 -6 -1 -28 -6 -50z m-297 -44 c14 -5 26 -16 26 -25 0 -13 -3 -13
-20 -3 -10 7 -22 9 -25 6 -12 -12 6 -68 26 -78 24 -13 25 -61 3 -95 -16 -24
-11 -31 18 -26 8 1 23 -68 15 -75 -2 -3 -28 23 -56 56 -35 42 -53 74 -57 101
-4 21 -13 44 -20 50 -21 17 -17 47 11 74 26 27 41 30 79 15z m419 -18 c30 -31
34 -54 13 -71 -7 -6 -16 -29 -20 -51 -4 -27 -22 -58 -56 -100 -28 -33 -53 -60
-56 -60 -11 0 9 65 24 76 11 8 12 15 3 32 -14 26 -15 82 -1 82 6 0 18 16 27
35 14 29 14 37 4 48 -11 9 -14 9 -18 0 -3 -7 -11 -13 -19 -13 -20 0 -5 30 20
40 36 15 51 11 79 -18z m-307 -132 c28 -11 31 -25 7 -34 -26 -10 -39 16 -40
76 0 47 0 48 4 10 3 -34 9 -45 29 -52z m154 30 c-8 -60 -22 -79 -44 -60 -19
15 -12 30 15 30 16 0 19 7 19 46 0 25 4 43 8 40 5 -3 6 -28 2 -56z m-39 15 c5
4 9 0 9 -8 0 -8 -7 -17 -15 -21 -12 -4 -15 2 -14 27 1 18 3 24 6 14 2 -9 9
-15 14 -12z m-351 -59 c0 -6 14 -33 30 -59 17 -26 30 -58 30 -70 -1 -21 -2
-20 -26 8 -14 17 -32 44 -40 62 -16 37 -19 87 -4 78 6 -3 10 -12 10 -19z m417
2 c-3 -8 -6 -5 -6 6 -1 11 2 17 5 13 3 -3 4 -12 1 -19z m171 -76 c-24 -46 -48
-66 -48 -39 0 8 15 43 33 77 29 58 32 61 35 36 2 -16 -7 -48 -20 -74z m-288
-31 c0 -32 -6 -24 -14 19 -4 25 -3 31 4 20 5 -8 10 -26 10 -39z m-81 -35 c11
-33 19 -62 16 -64 -8 -8 -45 81 -45 107 0 33 5 26 29 -43z m160 -26 c-31 -71
-36 -54 -8 25 15 41 25 59 27 47 2 -11 -7 -43 -19 -72z m108 -17 c-3 -10 -5
-4 -5 12 0 17 2 24 5 18 2 -7 2 -21 0 -30z m-375 -5 c-9 -9 -12 -7 -12 12 0
19 3 21 12 12 9 -9 9 -15 0 -24z m78 -29 c0 -15 -4 -19 -16 -15 -9 3 -18 6
-20 6 -2 0 -4 7 -4 15 0 8 9 15 20 15 14 0 20 -7 20 -21z m250 7 c0 -21 -20
-30 -33 -17 -9 9 -8 14 3 21 21 14 30 12 30 -4z m-373 -108 c-2 -13 -4 -5 -4
17 -1 22 1 32 4 23 2 -10 2 -28 0 -40z m62 -22 c16 -85 13 -91 -9 -16 -21 72
-25 99 -11 85 4 -6 13 -37 20 -69z m357 37 c-8 -53 -27 -116 -32 -111 -5 6 26
148 33 148 3 0 3 -17 -1 -37z m46 12 c3 -14 1 -28 -3 -31 -5 -3 -9 9 -9 25 0
38 6 40 12 6z m-292 6 c0 -12 -20 -25 -27 -18 -7 7 6 27 18 27 5 0 9 -4 9 -9z
m140 -6 c10 -13 9 -15 -9 -15 -12 0 -21 6 -21 15 0 8 4 15 9 15 5 0 14 -7 21
-15z m-192 -107 c9 -9 13 -7 18 5 5 15 34 25 34 13 0 -2 3 -11 6 -19 3 -10 -6
-20 -27 -31 -18 -9 -33 -16 -35 -16 -5 0 -23 65 -25 90 -3 51 4 63 10 18 4
-27 12 -53 19 -60z m243 25 c-13 -65 -25 -83 -43 -65 -7 7 -20 12 -30 12 -11
0 -18 7 -18 20 0 27 28 37 44 15 11 -16 13 -16 26 0 8 10 14 35 14 57 -1 27 2
36 9 29 7 -7 6 -28 -2 -68z m173 -39 c7 -19 -1 -34 -19 -34 -15 0 -28 27 -19
41 9 14 31 10 38 -7z m-554 -19 c0 -18 -5 -25 -20 -25 -23 0 -24 3 -8 30 17
27 28 25 28 -5z m-95 -227 c2 -29 6 -60 9 -68 4 -9 -12 -40 -41 -80 -56 -76
-234 -300 -239 -300 -5 0 16 52 25 65 5 5 54 99 110 208 110 215 123 238 129
232 2 -2 6 -28 7 -57z m757 14 c4 10 12 10 41 -4 31 -15 38 -25 53 -75 9 -32
36 -125 61 -206 24 -82 43 -153 41 -158 -2 -5 -16 17 -33 48 -16 31 -61 113
-98 182 -79 145 -127 237 -127 248 0 4 13 -6 29 -21 20 -20 30 -24 33 -14z
m-402 -18 c0 -21 -17 -25 -22 -6 -3 11 0 19 8 19 8 0 14 -6 14 -13z m-140 -57
c0 -23 -11 -76 -24 -117 -14 -41 -34 -110 -47 -153 -12 -42 -24 -76 -26 -74
-3 3 63 351 73 385 8 27 24 -1 24 -41z m240 -14 l-1 -58 -24 28 -25 28 21 30
c11 16 22 29 25 29 2 0 4 -26 4 -57z m-193 20 c12 -19 11 -24 -11 -49 l-25
-29 -1 53 c0 57 11 64 37 25z m114 -133 l7 -75 -3 75 c-1 41 -6 86 -10 100 -5
21 0 18 34 -19 23 -25 40 -51 37 -60 -2 -9 -19 -95 -37 -191 l-34 -175 -5 65
-4 65 -6 -75 c-4 -44 -7 26 -8 170 0 183 2 239 10 220 6 -14 14 -59 19 -100z"/>
<path d="M1253 2285 c0 -38 2 -53 4 -32 2 20 2 52 0 70 -2 17 -4 1 -4 -38z"/>
<path d="M1263 600 c0 -36 2 -50 4 -32 2 17 2 47 0 65 -2 17 -4 3 -4 -33z"/>
<path d="M1362 2780 c0 -14 2 -19 5 -12 2 6 2 18 0 25 -3 6 -5 1 -5 -13z"/>
<path d="M1572 2755 c0 -16 2 -22 5 -12 2 9 2 23 0 30 -3 6 -5 -1 -5 -18z"/>
<path d="M1373 2625 c0 -27 2 -38 4 -22 2 15 2 37 0 50 -2 12 -4 0 -4 -28z"/>
<path d="M1132 2635 c0 -16 2 -22 5 -12 2 9 2 23 0 30 -3 6 -5 -1 -5 -18z"/>
<path d="M1144 2405 c0 -49 1 -71 3 -48 2 23 2 64 0 90 -2 26 -3 8 -3 -42z"/>
<path d="M1384 2340 c0 -69 1 -97 3 -62 2 34 2 90 0 125 -2 34 -3 6 -3 -63z"/>
<path d="M1442 790 c0 -19 3 -55 7 -80 11 -61 12 -4 1 65 -6 41 -7 44 -8 15z"/>
<path d="M1463 615 c0 -22 2 -30 4 -17 2 12 2 30 0 40 -3 9 -5 -1 -4 -23z"/>
</g>
</svg>
