<?xml version="1.0" standalone="no"?>
<!DOCTYPE svg PUBLIC "-//W3C//DTD SVG 20010904//EN"
 "http://www.w3.org/TR/2001/REC-SVG-20010904/DTD/svg10.dtd">
<svg version="1.0" xmlns="http://www.w3.org/2000/svg"
 width="244.000000pt" height="305.000000pt" viewBox="0 0 244.000000 305.000000"
 preserveAspectRatio="xMidYMid meet">
<metadata>
Created by potrace 1.16, written by Peter Selinger 2001-2019
</metadata>
<g transform="translate(0.000000,305.000000) scale(0.100000,-0.100000)"
fill="#000000" stroke="none">
<path d="M1026 2875 c-5 -26 -4 -41 3 -43 13 -4 15 -252 2 -252 -11 0 -21 102
-16 160 3 32 2 38 -3 20 -7 -20 -11 -9 -21 58 -8 45 -15 81 -18 79 -2 -3 -4
-228 -3 -501 0 -273 -2 -496 -5 -496 -3 0 -19 12 -35 26 -29 27 -29 27 -33
153 l-3 126 -2 -139 -2 -140 32 -26 c39 -32 31 -50 -20 -43 -47 6 -85 -25 -80
-65 3 -24 7 -27 34 -24 25 3 37 -3 58 -28 26 -32 35 -80 15 -80 -9 0 -10 -21
-6 -72 5 -54 3 -68 -5 -60 -16 16 -61 15 -76 0 -9 -9 -15 -9 -24 0 -7 7 -29
12 -50 12 -61 0 -71 -39 -42 -156 24 -93 9 -142 -60 -195 -113 -86 -247 -181
-251 -177 -4 4 21 34 171 205 50 57 57 61 80 53 14 -6 27 -10 30 -10 6 0 3 98
-6 160 -7 52 -7 50 -9 -36 -1 -90 -1 -91 -24 -87 -19 4 -36 -9 -85 -65 -34
-38 -72 -83 -85 -98 -12 -16 -29 -36 -37 -44 -24 -25 -94 -111 -103 -126 -8
-14 40 1 128 41 93 42 125 53 125 44 0 -5 -13 -30 -29 -56 -17 -26 -29 -49
-27 -50 1 -2 65 31 141 72 77 42 145 73 151 71 7 -3 17 -22 23 -42 12 -42 1
-64 -29 -64 -10 0 -20 -10 -24 -22 -6 -24 -124 -501 -130 -531 -8 -33 10 -15
83 89 41 57 76 102 79 100 4 -5 -23 -168 -35 -211 -13 -46 21 10 131 218 113
213 115 220 106 260 -11 51 -7 57 35 57 24 0 45 -9 70 -31 19 -17 35 -35 35
-41 0 -5 -11 -24 -25 -42 -29 -38 -31 -14 30 -391 19 -121 38 -237 41 -258 3
-21 8 -37 10 -35 2 2 12 67 24 143 11 77 35 222 52 321 l31 182 -27 34 c-14
19 -26 40 -26 45 0 6 16 25 35 42 26 22 46 31 72 31 l36 0 -7 -51 c-6 -45 -3
-57 27 -112 19 -34 53 -98 77 -142 83 -155 112 -206 117 -202 2 3 -3 46 -12
97 -10 50 -16 93 -13 95 3 4 90 -110 148 -194 13 -19 25 -30 27 -24 5 15 -127
545 -139 561 -6 6 -19 12 -28 12 -10 0 -20 6 -22 12 -7 21 14 89 29 95 7 3 67
-25 134 -62 66 -37 122 -65 124 -63 3 3 -9 25 -25 51 -32 51 -29 55 27 31 21
-9 47 -20 58 -25 11 -4 58 -24 104 -43 47 -20 86 -34 89 -32 2 3 -64 84 -148
181 -140 163 -154 176 -179 170 l-27 -6 2 93 c3 100 2 98 -27 -71 -13 -73 -26
-54 109 -159 124 -96 137 -106 166 -130 16 -12 27 -25 24 -27 -8 -8 -230 95
-255 118 -13 11 -23 31 -23 45 0 13 -11 37 -25 54 -31 37 -33 101 -8 201 16
61 16 71 3 95 -17 30 -65 41 -100 22 -16 -8 -20 -21 -21 -63 -1 -29 -3 -41 -6
-27 -2 14 -6 39 -9 57 -5 36 -32 50 -62 34 -18 -10 -19 -7 -14 58 3 45 1 71
-7 75 -18 12 -12 43 15 75 19 24 34 31 60 31 31 0 34 3 34 28 -1 53 -47 82
-94 61 -42 -20 -54 3 -19 35 15 14 32 26 37 26 11 0 1 443 -14 600 -6 63 -20
172 -31 242 -10 70 -19 129 -19 132 0 3 -3 6 -7 6 -5 0 -8 -224 -7 -497 1
-408 -1 -453 -6 -248 -10 359 -22 585 -30 585 -4 0 -11 34 -15 76 -4 41 -8 74
-10 72 -3 -2 -12 -514 -17 -943 0 -5 3 -18 7 -27 14 -34 -11 -18 -28 17 -11
22 -17 60 -17 101 0 41 -4 63 -10 59 -5 -3 -10 0 -11 7 0 7 -5 2 -11 -12 -10
-24 -10 -24 -18 -5 -6 15 -9 8 -14 -30 -4 -27 -8 -57 -10 -65 -1 -8 -6 53 -10
135 -8 155 -28 338 -48 428 -9 42 -12 48 -19 32 -18 -44 -48 -289 -55 -445 -4
-91 -8 -160 -10 -155 -1 6 -5 36 -9 68 -6 53 -8 57 -21 40 -13 -17 -13 -17
-14 0 0 10 -4 16 -9 13 -10 -7 -17 82 -26 308 -5 145 -29 396 -44 466 l-7 35
-8 -40z m204 -825 l0 -441 -21 20 c-22 20 -22 22 -15 303 5 246 24 558 33 558
2 0 3 -198 3 -440z m-140 -172 c0 -5 -9 -8 -20 -8 -23 0 -26 10 -8 28 9 9 14
9 20 -1 4 -6 8 -15 8 -19z m315 1 c0 -8 -10 -15 -23 -17 -21 -3 -22 -2 -10 17
14 23 33 23 33 0z m67 -21 c-15 -15 -26 -4 -18 18 5 13 9 15 18 6 9 -9 9 -15
0 -24z m-452 7 c0 -8 -4 -15 -9 -15 -13 0 -22 16 -14 24 11 11 23 6 23 -9z
m120 -116 c0 -5 -7 -9 -15 -9 -8 0 -15 -5 -15 -10 0 -6 -8 -5 -20 2 -21 14
-16 24 15 30 23 5 35 1 35 -13z m240 -4 c0 -15 -43 -12 -48 3 -3 10 4 13 22
10 15 -2 26 -7 26 -13z m-257 -95 c12 0 28 5 34 11 7 7 9 3 6 -14 -4 -19 1
-28 17 -37 12 -6 28 -27 36 -46 14 -34 34 -38 34 -8 0 8 11 26 24 39 14 13 26
32 28 42 2 12 13 17 38 17 29 1 38 6 53 36 18 35 18 35 12 5 -3 -16 -10 -49
-14 -73 -10 -53 -12 -55 -46 -42 -50 19 -80 -7 -100 -85 -7 -30 -7 -30 -27 23
-11 28 -28 57 -39 63 -21 11 -60 3 -71 -15 -11 -17 -18 -3 -29 55 -22 118 -22
118 0 72 15 -33 26 -43 44 -43z m347 46 c0 -3 -4 -8 -10 -11 -5 -3 -10 -1 -10
4 0 6 5 11 10 11 6 0 10 -2 10 -4z m-464 -171 c17 -51 19 -65 8 -50 -26 33
-44 82 -43 117 1 36 1 35 35 -67z m494 58 c-8 -43 -37 -110 -53 -120 -7 -4 -8
0 -3 13 5 10 12 35 18 54 23 87 52 126 38 53z m-79 -6 c-10 -9 -11 -8 -5 6 3
10 9 15 12 12 3 -3 0 -11 -7 -18z m-256 -77 c8 -16 15 -36 15 -45 0 -12 -3
-13 -19 -3 -17 10 -26 24 -49 71 -2 4 6 7 17 7 13 0 26 -11 36 -30z m181 2
c-8 -15 -23 -36 -35 -46 -19 -17 -21 -18 -21 -2 0 35 31 76 58 76 10 0 9 -6
-2 -28z m-396 -17 c8 -20 6 -29 -11 -46 -26 -26 -33 -19 -23 23 4 18 7 36 6
41 -5 19 20 4 28 -18z m600 -31 c7 -22 10 -55 6 -83 -4 -25 -8 -61 -11 -79 -8
-72 -16 -42 -10 35 6 64 4 88 -7 105 -14 23 -13 58 2 58 5 0 14 -16 20 -36z
m-723 -41 c-3 -10 -5 -2 -5 17 0 19 2 27 5 18 2 -10 2 -26 0 -35z m850 -25 c3
-38 0 -59 -11 -73 -14 -19 -15 -14 -16 65 0 64 3 81 12 72 6 -6 13 -35 15 -64z
m-868 -30 c-1 -50 -3 -57 -9 -33 -11 45 -11 95 0 95 6 0 9 -27 9 -62z m188 20
c-3 -8 -6 -5 -6 6 -1 11 2 17 5 13 3 -3 4 -12 1 -19z m148 12 c3 -5 15 -10 26
-10 10 0 19 -7 19 -15 0 -8 -3 -15 -7 -15 -14 0 -69 49 -56 50 6 0 15 -4 18
-10z m182 -15 c-31 -28 -47 -32 -47 -12 0 10 34 27 70 35 3 1 -8 -10 -23 -23z
m-482 -87 c4 -17 3 -28 -3 -28 -10 0 -22 32 -22 60 0 22 18 -1 25 -32z m290
16 c20 -5 23 -10 18 -40 -5 -29 -2 -35 21 -45 14 -7 26 -20 26 -31 0 -25 -40
-40 -58 -22 -16 17 -56 18 -85 3 -21 -12 -24 -10 -30 18 -1 4 12 7 28 8 l30 0
-3 64 c-3 56 -2 63 13 57 9 -3 27 -9 40 -12z m250 -50 c0 -56 1 -58 25 -59 15
0 25 -6 25 -15 0 -8 -4 -14 -10 -13 -5 1 -26 4 -46 8 -26 5 -40 2 -52 -9 -18
-18 -42 -12 -52 11 -3 11 5 26 25 44 26 24 29 31 20 53 -8 22 -7 26 10 26 10
0 22 5 25 11 16 25 30 -1 30 -57z m-445 22 c0 -8 9 -35 20 -60 23 -55 18 -61
-9 -8 -27 53 -34 82 -22 82 6 0 11 -6 11 -14z m565 -87 c-9 -17 -19 -28 -22
-25 -6 6 23 56 32 56 3 0 -2 -14 -10 -31z m-757 -46 c-5 -25 -28 -28 -28 -4 0
12 6 21 16 21 9 0 14 -7 12 -17z m1038 -70 c35 -36 62 -68 60 -70 -3 -3 -143
80 -175 104 -8 6 22 33 36 33 9 0 44 -30 79 -67z m-229 -20 c-6 -40 -14 -73
-18 -73 -13 0 -20 37 -13 67 7 31 34 87 38 81 2 -1 -2 -36 -7 -75z m-617 -29
c0 -27 -5 -44 -14 -47 -8 -3 -17 -21 -21 -39 -4 -18 -26 -78 -50 -133 -61
-140 -147 -315 -140 -285 6 25 78 314 96 381 7 30 17 40 48 53 l40 15 7 72 c6
66 8 70 20 48 7 -13 13 -43 14 -65z m-285 21 c-27 -24 -51 -42 -53 -40 -8 8
34 59 62 76 49 30 44 10 -9 -36z m574 -98 c7 -7 15 1 25 24 11 24 15 28 16 14
0 -11 -9 -33 -20 -50 -19 -28 -20 -48 -21 -315 0 -157 -2 -280 -4 -275 -2 6
-11 68 -20 140 -8 72 -20 168 -27 215 -11 85 -11 86 16 133 29 49 29 57 7 142
-6 22 -10 56 -10 75 0 27 4 21 15 -29 7 -36 18 -69 23 -74z m54 113 c-3 -12
-8 -19 -11 -16 -5 6 5 36 12 36 2 0 2 -9 -1 -20z m-293 -140 c0 -11 -4 -20
-10 -20 -5 0 -10 9 -10 20 0 11 5 20 10 20 6 0 10 -9 10 -20z m494 4 c3 -9 6
-33 6 -55 0 -25 9 -54 26 -81 25 -39 108 -267 100 -275 -2 -2 -42 74 -90 169
-82 159 -87 175 -81 215 6 44 27 58 39 27z m124 -89 c16 -38 57 -133 91 -210
68 -154 64 -156 -31 -14 -57 84 -67 105 -81 180 -16 81 -21 127 -13 118 2 -2
17 -35 34 -74z m-724 -221 c-42 -119 -55 -124 -29 -9 14 65 49 134 62 122 2
-3 -13 -53 -33 -113z"/>
<path d="M943 2745 c0 -22 2 -30 4 -17 2 12 2 30 0 40 -3 9 -5 -1 -4 -23z"/>
<path d="M1403 2685 c0 -22 2 -30 4 -17 2 12 2 30 0 40 -3 9 -5 -1 -4 -23z"/>
<path d="M925 2637 c-4 -36 -5 -71 -3 -79 3 -7 8 20 12 61 3 41 4 76 2 78 -2
3 -7 -25 -11 -60z"/>
<path d="M1393 2565 c0 -33 2 -45 4 -27 2 18 2 45 0 60 -2 15 -4 0 -4 -33z"/>
<path d="M908 2466 c-5 -43 -7 -118 -7 -165 2 -81 2 -79 11 44 10 151 7 238
-4 121z"/>
<path d="M1383 2400 c0 -47 2 -66 4 -42 2 23 2 61 0 85 -2 23 -4 4 -4 -43z"/>
<path d="M1373 2215 c0 -44 2 -61 4 -37 2 23 2 59 0 80 -2 20 -4 1 -4 -43z"/>
</g>
</svg>
