<?xml version="1.0" standalone="no"?>
<!DOCTYPE svg PUBLIC "-//W3C//DTD SVG 20010904//EN"
 "http://www.w3.org/TR/2001/REC-SVG-20010904/DTD/svg10.dtd">
<svg version="1.0" xmlns="http://www.w3.org/2000/svg"
 width="244.000000pt" height="305.000000pt" viewBox="0 0 244.000000 305.000000"
 preserveAspectRatio="xMidYMid meet">
<metadata>
Created by potrace 1.16, written by Peter Selinger 2001-2019
</metadata>
<g transform="translate(0.000000,305.000000) scale(0.100000,-0.100000)"
fill="#000000" stroke="none">
<path d="M888 2881 c-2 -17 -1 -31 4 -31 4 0 8 -214 8 -475 0 -261 -3 -475 -6
-475 -3 0 -26 14 -51 31 l-45 32 6 131 c14 273 17 323 27 406 5 47 17 127 25
178 8 50 14 100 12 110 -5 24 -47 -224 -58 -343 -5 -55 -12 -196 -16 -312 l-7
-211 34 -15 c19 -8 40 -21 48 -30 14 -17 51 -24 51 -9 0 4 18 19 41 32 l41 25
-6 230 c-6 258 -15 348 -56 569 -31 169 -44 210 -52 157z"/>
<path d="M1302 2885 c0 -16 2 -22 5 -12 2 9 2 23 0 30 -3 6 -5 -1 -5 -18z"/>
<path d="M1568 2399 c1 -275 -1 -499 -5 -497 -4 2 -25 14 -45 27 l-38 23 0
121 c0 208 25 475 66 707 4 19 4 32 1 29 -4 -3 -18 -70 -31 -150 -28 -164 -45
-378 -49 -588 -2 -135 -1 -144 18 -155 11 -6 35 -24 53 -39 l34 -28 33 28 c18
15 44 35 56 43 l22 16 -12 245 c-14 308 -28 417 -88 697 -3 12 -8 22 -12 22
-3 0 -5 -225 -3 -501z"/>
<path d="M1156 2638 c-3 -134 -7 -362 -9 -506 -2 -257 -9 -322 -22 -225 -10
67 -35 186 -40 192 -10 10 -19 -11 -31 -76 -21 -109 -19 -121 27 -164 28 -26
39 -43 35 -54 -3 -9 -6 -30 -6 -46 0 -35 -23 -48 -53 -30 -27 18 -40 1 -27
-35 20 -50 49 -57 82 -19 12 14 25 25 29 25 4 0 7 -27 6 -59 0 -58 -1 -60 -27
-59 -29 1 -70 -18 -70 -32 0 -5 10 -10 23 -12 17 -2 23 -11 25 -35 2 -23 -1
-33 -10 -33 -32 0 -118 117 -118 160 0 15 -9 35 -20 45 -18 16 -18 20 -5 46
20 37 48 51 93 47 39 -3 42 -1 42 32 0 35 -35 60 -84 60 -38 0 -48 -4 -65 -29
-12 -16 -21 -34 -21 -39 0 -27 -20 -18 -37 16 -44 83 -173 71 -173 -17 0 -18
6 -21 44 -21 33 0 52 -7 75 -25 42 -36 48 -61 21 -90 -21 -22 -22 -28 -11 -71
15 -60 35 -99 77 -151 19 -23 34 -45 34 -48 0 -4 -16 -25 -35 -46 -47 -52 -54
-83 -25 -114 29 -31 77 -42 97 -23 11 12 12 22 2 61 -10 36 -10 49 0 60 11 14
17 14 57 0 38 -13 45 -19 40 -37 -2 -11 -8 -38 -12 -60 -6 -35 -12 -41 -63
-63 -67 -30 -90 -25 -135 30 -26 33 -31 48 -32 95 -3 109 -14 153 -42 163 -20
8 -31 6 -51 -9 -50 -37 -41 -108 28 -214 27 -41 58 -93 70 -116 40 -78 35 -92
-126 -368 -81 -139 -149 -251 -151 -249 -2 2 28 102 67 222 l71 219 47 15 c45
13 49 17 59 59 16 67 1 124 -48 188 -90 114 -114 180 -84 227 52 80 49 72 27
94 -29 29 -103 29 -131 1 -25 -25 -25 -42 0 -115 37 -107 20 -159 -72 -218
-92 -58 -329 -189 -334 -184 -3 2 10 17 28 32 18 15 66 59 107 97 139 130 156
141 200 134 24 -3 41 -2 43 4 2 6 -1 53 -6 105 -12 124 -31 127 -23 5 l7 -91
-33 6 c-30 5 -41 -2 -147 -96 -155 -138 -273 -249 -269 -253 2 -2 113 32 245
75 239 79 242 80 248 110 5 28 9 31 33 24 78 -19 147 -73 158 -125 8 -37 0
-50 -29 -50 -41 0 -33 18 -152 -360 -35 -112 -64 -210 -64 -218 0 -11 292 303
377 405 34 41 34 42 19 78 -9 21 -13 41 -10 46 3 5 44 9 92 9 120 0 137 -12
128 -89 -14 -129 -18 -323 -6 -316 7 4 9 23 6 49 -3 22 -3 33 0 23 3 -9 9 -15
14 -12 5 3 14 -21 20 -52 9 -48 48 -239 77 -378 7 -33 24 37 80 319 15 77 29
133 32 125 2 -8 12 -52 22 -99 l17 -85 1 58 c0 31 -3 57 -8 57 -14 0 -24 161
-13 191 7 16 7 46 3 75 -5 27 -9 41 -10 31 -2 -30 -21 -8 -21 24 0 57 44 79
162 79 l81 0 -6 -33 c-3 -17 -8 -39 -12 -49 -5 -12 48 -76 195 -237 110 -122
203 -221 205 -221 2 0 3 6 0 13 -2 6 -20 66 -40 132 -21 66 -55 176 -77 245
-22 69 -43 136 -47 150 -5 16 -19 29 -39 36 -49 16 -55 26 -37 66 18 45 73 91
126 107 46 14 59 9 59 -22 0 -24 -20 -16 388 -149 51 -17 95 -28 98 -26 2 3
-53 56 -123 119 -70 63 -156 140 -190 173 -57 54 -65 58 -96 52 l-35 -6 6 91
c4 68 2 90 -7 85 -6 -4 -11 -26 -11 -50 0 -24 -7 -65 -15 -92 -8 -27 -15 -56
-15 -64 0 -9 81 -64 196 -135 108 -66 192 -121 187 -122 -5 -2 -61 15 -124 37
-63 22 -142 50 -177 62 -48 16 -62 25 -58 37 18 58 18 59 -4 66 -25 8 -50 60
-50 103 0 16 9 55 20 87 25 72 25 107 2 128 -25 23 -94 22 -122 -1 l-23 -19
27 -45 c45 -76 32 -141 -49 -240 -54 -67 -96 -170 -89 -221 3 -25 194 -384
253 -476 40 -62 -20 -2 -154 154 -145 168 -146 170 -140 209 3 22 7 74 8 116
2 76 3 78 76 198 85 140 99 194 62 231 -15 15 -32 21 -53 19 -30 -3 -32 -6
-45 -68 -7 -36 -11 -78 -8 -93 6 -35 -14 -76 -57 -117 -22 -20 -40 -29 -53
-26 -51 12 -100 35 -106 52 -7 17 -8 16 -8 -3 -2 -63 -41 10 -41 76 0 33 3 37
40 49 81 25 101 7 79 -68 -11 -35 -10 -43 2 -51 22 -13 41 -11 77 11 45 28 44
72 -3 127 -19 23 -35 46 -35 51 0 5 18 31 40 58 62 75 90 185 55 214 -23 19
-18 39 20 77 31 31 40 34 77 31 42 -3 43 -2 41 26 -6 88 -123 97 -168 13 -20
-39 -35 -48 -35 -22 0 29 -55 78 -88 78 -41 0 -78 -26 -85 -60 -7 -39 -2 -43
48 -36 39 5 46 2 69 -22 29 -32 33 -57 11 -75 -8 -7 -15 -21 -15 -32 0 -28
-33 -88 -73 -132 -37 -40 -57 -41 -57 -1 0 16 7 25 25 29 14 4 25 11 25 16 0
14 -35 30 -68 30 l-29 0 0 65 1 65 27 -30 c32 -35 37 -36 67 -14 28 20 32 81
5 69 -38 -16 -56 -11 -65 20 -15 51 -2 91 38 114 36 21 36 22 29 74 -13 102
-28 168 -37 159 -5 -5 -18 -59 -29 -120 -12 -62 -24 -112 -28 -112 -3 0 -5 66
-4 148 1 91 -1 134 -6 112 -10 -41 -10 -34 -21 360 -6 246 -6 249 -9 90 -3
-171 -4 -173 -37 -47 -9 37 -19 65 -21 63 -9 -8 -46 -150 -53 -201 -4 -28 -7
66 -7 213 0 144 -2 264 -5 267 -3 3 -8 -104 -12 -237z m63 -513 c-4 -220 -8
-401 -8 -403 -1 -2 -5 0 -11 3 -12 7 -13 -9 -3 -45 l7 -25 7 25 c5 19 7 14 8
-23 1 -45 0 -47 -19 -37 -17 9 -20 21 -20 75 0 37 4 65 10 65 13 0 13 87 0 95
-5 3 -10 -1 -10 -9 0 -9 -4 -16 -10 -16 -5 0 -3 21 5 48 17 56 19 75 5 67 -6
-4 -9 34 -8 107 l2 113 6 -80 c5 -65 7 -50 8 83 1 96 9 204 19 263 9 54 17 98
18 97 2 -2 -1 -183 -6 -403z m-290 -555 c14 -31 49 -74 92 -114 61 -57 83 -86
62 -86 -16 0 -103 63 -124 91 -37 47 -69 111 -69 136 0 36 13 27 39 -27z m651
32 c0 -59 -97 -185 -172 -223 -38 -19 -38 -19 -38 1 0 11 4 20 9 20 22 0 140
123 162 169 24 52 39 65 39 33z m-299 -33 l-9 -34 -1 31 c-1 17 2 34 6 37 12
13 14 -1 4 -34z m-82 4 c0 -25 -1 -26 -9 -8 -12 27 -12 35 0 35 6 0 10 -12 9
-27z m38 -90 c-3 -10 -5 -4 -5 12 0 17 2 24 5 18 2 -7 2 -21 0 -30z m-70 -78
c5 -58 3 -76 -5 -71 -7 4 -12 31 -12 62 0 30 -4 54 -10 54 -5 0 -10 14 -10 32
0 29 1 31 16 17 10 -11 17 -43 21 -94z m175 70 c4 -17 1 -25 -8 -25 -10 0 -14
-15 -14 -56 0 -34 -4 -53 -10 -49 -13 8 -13 55 1 111 13 49 24 56 31 19z
m-215 -117 c-3 -7 -5 -2 -5 12 0 14 2 19 5 13 2 -7 2 -19 0 -25z m220 0 c-3
-8 -6 -5 -6 6 -1 11 2 17 5 13 3 -3 4 -12 1 -19z m-240 -90 c-3 -7 -5 -2 -5
12 0 14 2 19 5 13 2 -7 2 -19 0 -25z m-13 -72 c-3 -15 -8 -25 -11 -23 -2 3 -1
17 3 31 3 15 8 25 11 23 2 -3 1 -17 -3 -31z m85 -24 c1 -7 -3 -10 -9 -7 -5 3
-10 18 -9 33 0 24 1 25 9 7 5 -11 9 -26 9 -33z m127 1 c-10 -26 -18 -8 -9 23
5 21 8 24 11 11 2 -10 1 -25 -2 -34z m-159 0 c-3 -10 -5 -4 -5 12 0 17 2 24 5
18 2 -7 2 -21 0 -30z m-38 -35 c0 -13 -3 -17 -6 -10 -2 6 -10 9 -16 5 -7 -4
-6 1 2 10 18 22 21 21 20 -5z m252 -61 c-6 -6 -14 -7 -18 -2 -5 4 -2 10 5 12
6 3 13 14 13 26 2 20 2 20 6 -2 3 -13 0 -28 -6 -34z m-231 2 c0 -4 -7 -6 -15
-3 -8 4 -15 10 -15 15 0 4 7 6 15 3 8 -4 15 -10 15 -15z m107 -161 c-3 -8 -6
-5 -6 6 -1 11 2 17 5 13 3 -3 4 -12 1 -19z m-77 -52 c0 -8 -4 -18 -10 -21 -5
-3 -10 3 -10 14 0 12 5 21 10 21 6 0 10 -6 10 -14z m56 -179 c1 -105 4 -239 7
-297 3 -58 3 -94 0 -80 -3 14 -20 97 -40 185 -19 88 -35 180 -35 204 0 30 -3
40 -9 30 -6 -10 -9 -4 -9 21 0 46 19 79 21 35 0 -26 2 -24 13 16 11 41 32 78
46 79 3 0 6 -87 6 -193z m-89 -39 c-3 -8 -6 -5 -6 6 -1 11 2 17 5 13 3 -3 4
-12 1 -19z"/>
<path d="M1204 1975 c0 -66 1 -92 3 -57 2 34 2 88 0 120 -2 31 -3 3 -3 -63z"/>
<path d="M1313 2640 c0 -36 2 -50 4 -32 2 17 2 47 0 65 -2 17 -4 3 -4 -33z"/>
<path d="M1387 1294 c-4 -4 -7 -14 -7 -23 0 -11 3 -12 11 -4 6 6 10 16 7 23
-2 6 -7 8 -11 4z"/>
<path d="M1363 665 c0 -22 2 -30 4 -17 2 12 2 30 0 40 -3 9 -5 -1 -4 -23z"/>
<path d="M1097 503 c-4 -3 -7 -22 -6 -42 l1 -36 9 39 c9 39 8 52 -4 39z"/>
</g>
</svg>
