<?xml version="1.0" standalone="no"?>
<!DOCTYPE svg PUBLIC "-//W3C//DTD SVG 20010904//EN"
 "http://www.w3.org/TR/2001/REC-SVG-20010904/DTD/svg10.dtd">
<svg version="1.0" xmlns="http://www.w3.org/2000/svg"
 width="244.000000pt" height="305.000000pt" viewBox="0 0 244.000000 305.000000"
 preserveAspectRatio="xMidYMid meet">
<metadata>
Created by potrace 1.16, written by Peter Selinger 2001-2019
</metadata>
<g transform="translate(0.000000,305.000000) scale(0.100000,-0.100000)"
fill="#000000" stroke="none">
<path d="M896 2879 c-8 -43 -6 -58 4 -34 5 12 9 -184 9 -462 1 -266 -1 -483
-4 -483 -3 0 -23 12 -45 26 l-40 27 0 94 c0 162 20 431 46 602 13 91 22 166
20 168 -5 6 -44 -215 -57 -322 -5 -49 -14 -196 -19 -325 -8 -211 -7 -236 7
-245 9 -5 31 -22 48 -37 32 -28 65 -37 65 -18 0 5 18 20 40 32 l40 23 0 100
c-1 162 -18 445 -35 556 -23 156 -58 329 -65 329 -4 0 -10 -14 -14 -31z"/>
<path d="M1537 2833 c-46 -193 -76 -496 -77 -770 0 -138 1 -143 23 -154 12 -6
34 -22 48 -36 l27 -24 33 29 c19 16 42 31 52 35 15 6 17 20 17 109 0 145 -18
412 -36 548 -18 134 -53 312 -63 323 -4 4 -15 -23 -24 -60z m19 -930 c-2 -3
-23 8 -47 24 l-42 28 7 195 c9 258 39 543 74 685 4 17 8 -186 10 -449 1 -264
0 -481 -2 -483z"/>
<path d="M1111 2874 c0 -11 3 -14 6 -6 3 7 2 16 -1 19 -3 4 -6 -2 -5 -13z"/>
<path d="M1346 2778 c-9 -108 -25 -477 -27 -643 l-2 -130 -7 130 c-4 72 -13
168 -20 215 -12 88 -50 253 -56 247 -2 -2 -13 -39 -25 -83 -23 -89 -47 -271
-51 -384 -1 -46 -4 -16 -8 80 l-6 155 -1 -213 c-1 -117 -4 -216 -7 -219 -3 -4
-9 -3 -13 1 -5 4 -10 211 -13 459 l-5 452 -13 -195 c-7 -107 -12 -265 -12
-350 0 -89 -7 -193 -15 -245 -20 -120 -19 -164 3 -182 15 -13 12 -14 -27 -9
-58 6 -96 -14 -112 -59 -7 -19 -15 -35 -19 -35 -3 0 -14 17 -25 38 -15 27 -31
41 -62 52 -40 13 -44 13 -70 -6 -18 -14 -29 -32 -31 -52 -3 -31 -2 -32 33 -32
20 0 46 -5 58 -11 49 -27 75 -90 42 -103 -37 -14 -8 -129 55 -212 22 -29 40
-56 40 -60 0 -4 -16 -24 -35 -45 -38 -43 -47 -96 -20 -119 18 -15 20 -40 2
-40 -25 0 -44 55 -51 143 -7 105 -17 127 -54 127 -36 0 -49 -10 -61 -44 -15
-37 -1 -85 45 -161 96 -157 96 -156 64 -230 -25 -59 -25 -59 7 -38 27 18 26
16 -12 -52 -22 -39 -87 -155 -145 -257 -57 -103 -106 -185 -108 -183 -2 2 17
68 42 147 24 78 55 178 68 222 23 77 24 79 68 95 36 13 47 23 57 51 26 77 15
123 -51 208 -24 32 -50 71 -60 89 -22 44 -21 115 4 155 37 61 18 89 -61 90
-65 1 -88 -57 -54 -139 20 -47 19 -127 -1 -158 -22 -34 -378 -255 -390 -242
-2 2 19 26 48 52 29 27 93 87 141 133 l88 84 44 -7 45 -6 -7 93 c-9 131 -23
156 -20 36 l2 -98 -31 6 c-30 5 -43 -5 -215 -167 -101 -95 -186 -177 -188
-182 -2 -6 4 -7 15 -3 11 4 71 24 134 45 287 94 330 112 330 137 0 32 12 36
61 19 54 -19 105 -67 120 -113 12 -37 3 -52 -32 -52 -32 0 -42 -23 -130 -325
-17 -55 -41 -135 -55 -179 -14 -43 -23 -80 -21 -82 4 -5 130 135 301 335 68
79 95 118 91 130 -4 9 -9 31 -12 48 l-6 33 62 0 c72 0 68 20 42 -196 -25 -203
-35 -304 -29 -304 2 0 29 74 58 165 30 91 57 165 60 165 4 0 35 -144 70 -321
l65 -320 65 333 66 333 66 -200 c50 -151 66 -191 67 -162 1 20 -3 37 -8 37 -5
0 -7 19 -5 43 2 28 1 34 -4 18 -6 -18 -11 -2 -26 70 -10 52 -29 142 -42 201
-29 130 -29 138 -4 138 11 0 20 -6 20 -12 0 -9 3 -9 9 1 9 14 106 19 119 7 3
-3 0 -24 -7 -46 -6 -22 -8 -47 -4 -54 12 -22 376 -436 379 -433 5 5 -151 529
-165 557 -4 8 -22 18 -41 23 -31 8 -32 10 -27 44 8 46 39 80 102 109 63 30 75
30 75 0 0 -14 5 -28 10 -31 18 -11 453 -155 457 -151 2 2 -78 81 -178 175
-172 164 -183 172 -213 167 l-32 -6 3 92 c2 80 1 87 -7 48 -22 -99 -30 -136
-36 -157 -5 -18 9 -31 108 -95 62 -41 149 -96 192 -123 43 -27 74 -51 69 -52
-6 -2 -86 24 -178 58 l-166 63 6 38 c4 21 3 38 -2 38 -25 0 -46 31 -53 76 -6
39 -3 65 17 127 23 73 23 80 9 103 -20 29 -58 40 -105 28 -46 -11 -50 -34 -17
-83 47 -67 28 -140 -65 -256 -22 -27 -44 -69 -50 -92 -6 -24 -15 -40 -21 -37
-5 3 -6 -6 -2 -22 4 -17 3 -25 -3 -21 -14 9 -24 47 -12 47 5 0 9 10 9 23 0 13
21 56 46 97 88 142 103 201 63 241 -23 23 -68 23 -79 -1 -15 -28 -28 -125 -20
-145 8 -21 -23 -95 -40 -95 -18 0 -21 20 -6 42 24 33 20 51 -20 104 -41 53
-43 41 19 134 53 78 70 155 42 184 -23 23 -18 54 16 87 26 26 38 30 73 27 40
-3 41 -2 39 26 -3 34 -27 61 -63 69 -34 8 -89 -26 -103 -63 -14 -38 -21 -38
-37 -1 -19 47 -46 65 -92 64 -38 -2 -40 -1 -33 24 3 15 1 76 -6 136 l-12 109
-18 -38 c-18 -39 -19 -34 -16 364 1 221 -1 402 -4 402 -3 0 -9 -37 -13 -82z
m-136 -591 c-4 -153 -10 -280 -13 -283 -2 -3 -8 65 -12 150 -6 122 -3 182 10
286 10 72 19 129 20 128 2 -2 -1 -128 -5 -281z m130 -298 c0 -10 -4 -19 -10
-19 -5 0 -10 12 -10 26 0 14 4 23 10 19 6 -3 10 -15 10 -26z m-194 -16 c-11
-11 -19 6 -11 24 8 17 8 17 12 0 3 -10 2 -21 -1 -24z m44 -90 c0 -35 -4 -63
-9 -63 -14 0 -21 29 -9 36 7 4 8 27 4 63 -4 38 -3 51 4 41 5 -8 10 -43 10 -77z
m-70 30 c0 -7 -4 -13 -10 -13 -5 0 -10 6 -10 14 0 8 -3 23 -6 33 -6 16 -5 16
9 -2 9 -11 17 -26 17 -32z m253 10 c-3 -18 -9 -33 -14 -33 -13 0 -11 44 3 58
15 15 17 13 11 -25z m-314 -64 c17 -6 31 -17 31 -25 0 -16 -16 -19 -25 -4 -10
16 -35 12 -35 -5 0 -26 30 -75 45 -75 21 0 20 -58 -1 -82 -16 -16 -15 -19 6
-36 15 -12 21 -26 18 -46 -3 -28 -4 -27 -56 34 -36 43 -54 74 -58 101 -4 21
-13 44 -20 50 -21 17 -17 47 11 74 27 28 38 30 84 14z m434 -17 c30 -31 34
-54 13 -71 -7 -6 -16 -29 -20 -51 -3 -22 -17 -52 -30 -67 -14 -16 -38 -44 -55
-63 l-30 -35 -1 32 c0 22 7 37 22 47 15 11 18 19 11 28 -6 7 -13 27 -16 44 -5
25 -1 36 19 54 14 14 24 35 24 52 0 26 -2 28 -21 18 -23 -13 -35 -8 -24 10 8
13 43 28 66 29 8 1 27 -12 42 -27z m-343 -83 c0 -32 4 -42 20 -46 22 -6 27
-28 9 -39 -6 -3 -17 0 -24 7 -16 18 -30 119 -15 119 5 0 10 -18 10 -41z m186
19 c-3 -13 -6 -39 -6 -59 0 -42 -24 -59 -49 -35 -13 13 -11 16 12 25 23 9 27
16 27 51 0 23 5 40 11 40 7 0 9 -9 5 -22z m-138 -38 c-2 -13 -7 -17 -15 -12
-10 7 -10 14 0 35 13 28 21 15 15 -23z m-258 -70 c13 -28 30 -56 37 -62 7 -6
13 -22 13 -36 0 -25 0 -25 -21 -6 -24 21 -69 110 -69 137 0 31 16 18 40 -33z
m177 28 c-3 -8 -6 -5 -6 6 -1 11 2 17 5 13 3 -3 4 -12 1 -19z m446 -10 c-8
-43 -26 -79 -52 -102 -29 -26 -26 -10 10 68 33 71 52 86 42 34z m-320 -51 c7
4 8 0 4 -11 -4 -10 -7 -27 -8 -39 -1 -20 -2 -20 -9 3 -9 27 -12 73 -3 52 2 -6
10 -9 16 -5z m-84 -88 c13 -33 21 -63 18 -65 -6 -6 -44 72 -53 110 -12 51 12
20 35 -45z m187 47 c-9 -38 -46 -119 -51 -114 -4 4 30 112 42 131 9 15 15 6 9
-17z m-296 -70 c0 -8 -4 -18 -10 -21 -5 -3 -10 3 -10 14 0 12 5 21 10 21 6 0
10 -6 10 -14z m390 -8 c0 -19 -2 -20 -10 -8 -13 19 -13 30 0 30 6 0 10 -10 10
-22z m-319 -51 c-13 -13 -31 1 -31 25 0 21 1 21 20 3 13 -12 17 -22 11 -28z
m269 24 c0 -12 -29 -35 -36 -28 -11 10 5 37 21 37 8 0 15 -4 15 -9z m-393
-128 c-2 -16 -4 -3 -4 27 0 30 2 43 4 28 2 -16 2 -40 0 -55z m433 -6 c-16 -68
-33 -96 -26 -42 8 58 28 122 33 107 3 -7 -1 -36 -7 -65z m-370 11 c6 -29 14
-61 17 -72 3 -11 1 -16 -5 -12 -5 3 -15 27 -22 53 -18 73 -20 83 -10 83 4 0
13 -24 20 -52z m113 37 c0 -6 -7 -11 -16 -13 -12 -3 -15 1 -11 13 7 17 25 17
27 0z m157 -6 c0 -5 -7 -9 -15 -9 -8 0 -15 7 -15 15 0 9 6 12 15 9 8 -4 15
-10 15 -15z m160 -15 c0 -14 -4 -22 -10 -19 -5 3 -10 17 -10 31 0 14 4 22 10
19 6 -3 10 -17 10 -31z m-373 -75 c8 -8 17 -7 32 3 18 11 23 11 31 -2 5 -8 10
-17 10 -20 0 -10 -62 -40 -71 -35 -13 8 -29 75 -28 115 1 34 2 34 8 -8 4 -23
12 -47 18 -53z m248 -28 c-18 -36 -18 -36 -53 -14 -15 9 -28 18 -30 19 -1 0 0
9 4 18 8 21 30 21 43 -1 15 -27 32 -4 40 54 l6 48 3 -47 c2 -29 -3 -59 -13
-77z m192 3 c3 -8 1 -20 -6 -27 -14 -14 -47 15 -37 32 10 16 36 13 43 -5z
m-577 -13 c0 -24 -18 -37 -32 -23 -8 8 -7 16 2 27 17 21 30 19 30 -4z m729
-361 c50 -93 91 -171 91 -174 0 -2 16 -32 36 -66 20 -33 34 -63 32 -66 -3 -2
-57 57 -120 133 -190 230 -177 211 -167 246 5 18 9 52 9 76 0 64 14 46 119
-149z m-466 113 c-5 -12 -7 -12 -14 -1 -13 20 -11 28 5 22 8 -3 12 -12 9 -21z
m-143 -40 c0 -27 -11 -84 -24 -128 -53 -174 -69 -225 -73 -222 -3 3 45 252 72
375 9 40 25 23 25 -25z m259 -18 l-2 -56 -24 22 c-27 26 -28 37 -7 67 25 36
35 26 33 -33z m-210 21 l23 -24 -30 -33 -29 -32 1 56 c1 31 4 57 7 57 3 0 16
-11 28 -24z m50 -59 c-10 -29 -10 -72 1 -226 7 -105 11 -193 9 -195 -4 -5 -79
347 -79 371 0 15 71 96 77 89 3 -2 -1 -20 -8 -39z m18 -469 c-3 -8 -6 -5 -6 6
-1 11 2 17 5 13 3 -3 4 -12 1 -19z"/>
<path d="M1122 2760 c0 -14 2 -19 5 -12 2 6 2 18 0 25 -3 6 -5 1 -5 -13z"/>
<path d="M1373 2700 c0 -25 2 -35 4 -22 2 12 2 32 0 45 -2 12 -4 2 -4 -23z"/>
<path d="M1133 2580 c0 -25 2 -35 4 -22 2 12 2 32 0 45 -2 12 -4 2 -4 -23z"/>
<path d="M1383 2555 c0 -33 2 -45 4 -27 2 18 2 45 0 60 -2 15 -4 0 -4 -33z"/>
<path d="M1394 2240 c0 -58 1 -81 3 -52 2 28 2 76 0 105 -2 28 -3 5 -3 -53z"/>
<path d="M1442 870 c0 -19 3 -55 7 -80 11 -61 12 -4 1 65 -6 41 -7 44 -8 15z"/>
<path d="M1463 690 c0 -25 2 -35 4 -22 2 12 2 32 0 45 -2 12 -4 2 -4 -23z"/>
<path d="M1473 605 c0 -22 2 -30 4 -17 2 12 2 30 0 40 -3 9 -5 -1 -4 -23z"/>
</g>
</svg>
