<?xml version="1.0" standalone="no"?>
<!DOCTYPE svg PUBLIC "-//W3C//DTD SVG 20010904//EN"
 "http://www.w3.org/TR/2001/REC-SVG-20010904/DTD/svg10.dtd">
<svg version="1.0" xmlns="http://www.w3.org/2000/svg"
 width="244.000000pt" height="305.000000pt" viewBox="0 0 244.000000 305.000000"
 preserveAspectRatio="xMidYMid meet">
<metadata>
Created by potrace 1.16, written by Peter Selinger 2001-2019
</metadata>
<g transform="translate(0.000000,305.000000) scale(0.100000,-0.100000)"
fill="#000000" stroke="none">
<path d="M1122 2900 c0 -14 2 -19 5 -12 2 6 2 18 0 25 -3 6 -5 1 -5 -13z"/>
<path d="M1555 2886 c-6 -21 -4 -31 4 -34 17 -6 15 -952 -2 -952 -7 1 -27 14
-46 30 l-34 29 2 168 c1 187 12 322 42 527 11 76 18 140 16 142 -5 5 -35 -159
-46 -256 -17 -144 -20 -188 -27 -407 l-7 -211 34 -15 c19 -8 42 -24 53 -35
l19 -22 31 28 c17 15 41 34 53 42 21 15 21 17 13 255 -11 294 -43 553 -89 710
l-8 30 -8 -29z"/>
<path d="M900 2890 c0 -8 -3 -26 -6 -40 -4 -20 -3 -22 5 -10 8 11 11 -120 11
-462 0 -263 -2 -478 -5 -478 -3 0 -23 12 -45 26 l-40 27 0 121 c0 181 18 402
45 580 14 88 23 161 21 163 -5 5 -42 -200 -55 -307 -9 -70 -30 -464 -31 -562
0 -21 8 -31 34 -43 19 -9 42 -25 51 -35 17 -19 18 -19 48 6 17 14 42 30 56 35
l24 10 -7 197 c-11 320 -23 440 -72 687 -15 73 -34 121 -34 85z"/>
<path d="M1342 2870 c0 -19 2 -27 5 -17 2 9 2 25 0 35 -3 9 -5 1 -5 -18z"/>
<path d="M1541 2824 c0 -11 3 -14 6 -6 3 7 2 16 -1 19 -3 4 -6 -2 -5 -13z"/>
<path d="M1107 2715 c-4 -60 -10 -222 -14 -360 -3 -137 -10 -252 -14 -255 -21
-14 -38 -214 -19 -225 20 -12 0 -24 -24 -15 -49 18 -98 -10 -117 -68 l-12 -35
-19 39 c-24 50 -43 64 -90 64 -48 0 -81 -30 -76 -68 3 -24 6 -27 39 -24 65 6
129 -69 94 -108 -34 -37 -6 -138 62 -229 18 -24 30 -49 26 -55 -4 -6 -19 -27
-34 -46 -42 -56 -43 -78 -5 -115 29 -27 32 -34 20 -49 -11 -16 -15 -14 -43 25
-17 23 -31 45 -31 48 -1 3 -3 43 -5 89 -2 45 -9 91 -15 102 -15 28 -63 26 -90
-2 -33 -35 -21 -95 39 -193 79 -130 93 -163 87 -204 -7 -55 -15 -70 -135 -280
-61 -107 -111 -197 -111 -200 0 -3 -9 -17 -20 -31 l-21 -25 7 30 c4 16 35 114
68 218 l61 189 45 18 c35 14 48 25 57 51 26 74 8 133 -67 229 -73 91 -85 150
-45 215 13 22 25 48 25 57 0 23 -30 38 -79 38 -56 0 -82 -33 -70 -92 4 -24 12
-56 18 -71 15 -38 14 -81 -3 -121 -11 -27 -44 -51 -202 -144 -103 -61 -189
-110 -191 -108 -3 3 79 84 214 210 62 58 63 58 109 51 l47 -7 -7 59 c-16 140
-18 155 -28 145 -5 -5 -6 -40 0 -91 l8 -81 -33 6 c-31 6 -41 -2 -218 -167
-102 -96 -182 -175 -178 -176 5 -2 112 32 238 74 221 75 230 79 233 105 4 33
16 34 74 9 67 -28 121 -103 105 -145 -3 -7 -19 -16 -35 -19 -28 -6 -32 -12
-65 -119 -69 -218 -137 -451 -134 -455 4 -3 70 69 172 186 17 19 53 60 80 90
28 31 71 81 97 112 l47 55 -14 40 c-7 21 -10 42 -7 46 9 8 129 15 136 7 4 -3
-3 -96 -14 -205 -11 -109 -23 -228 -26 -264 l-5 -65 20 60 c12 33 35 109 53
169 23 81 34 105 39 90 5 -10 33 -145 64 -299 31 -154 58 -281 59 -282 2 -2
29 129 61 290 31 160 61 296 65 301 5 4 10 0 13 -10 41 -144 102 -332 92 -284
-2 14 -5 45 -5 70 0 34 -3 41 -10 30 -8 -11 -9 2 -6 45 2 42 1 50 -4 25 -6
-29 -7 -30 -9 -10 -1 14 -15 90 -30 170 -20 101 -26 149 -19 158 17 20 26 14
31 -21 l4 -32 1 33 2 32 69 0 c39 0 72 -4 75 -9 3 -5 -1 -26 -10 -46 l-15 -37
43 -52 c75 -90 349 -396 354 -396 7 0 11 -17 -81 285 -42 138 -78 257 -81 267
-3 9 -17 19 -32 23 -44 11 -52 22 -40 58 16 48 66 95 121 113 52 17 66 12 67
-27 0 -17 87 -50 350 -135 63 -20 118 -38 123 -41 12 -7 8 5 -7 19 -25 25
-271 254 -318 297 -41 37 -51 42 -78 36 l-32 -7 7 91 c9 115 -6 120 -23 9 -7
-46 -16 -96 -18 -113 -6 -33 -25 -19 273 -207 62 -39 111 -73 110 -75 -4 -4
-223 73 -312 109 -41 16 -59 29 -56 39 13 49 12 57 -7 63 -45 15 -53 91 -22
201 25 86 25 86 0 113 -34 36 -140 26 -140 -14 0 -8 11 -32 25 -54 43 -68 30
-126 -49 -228 -68 -89 -80 -117 -80 -202 l-1 -75 124 -223 c68 -122 122 -224
120 -227 -4 -3 -173 194 -259 303 -42 52 -42 53 -31 97 6 24 11 74 11 110 0
72 8 92 93 233 59 100 71 158 38 191 -21 21 -57 27 -77 13 -11 -8 -32 -126
-32 -179 1 -34 -56 -117 -76 -110 -24 8 -16 42 14 59 43 24 41 69 -5 127 -19
24 -35 46 -35 48 0 3 13 22 29 42 71 89 100 193 66 231 -15 17 -16 24 -5 49
17 42 54 64 101 59 37 -3 39 -2 39 25 0 33 -40 77 -70 77 -36 0 -77 -28 -94
-65 -21 -43 -29 -44 -41 -3 -6 20 -23 40 -44 52 -29 17 -38 18 -68 7 -39 -14
-57 -6 -30 13 10 8 17 26 17 44 0 54 -22 182 -31 182 -5 0 -10 46 -11 103 -1
92 -2 87 -8 -54 -4 -85 -12 -164 -18 -175 -9 -14 -12 84 -13 396 -2 431 -3
431 -26 -10 l-6 -125 -18 120 c-10 66 -27 149 -37 184 l-18 64 -17 -64 c-29
-112 -39 -162 -47 -244 l-7 -80 -4 85 c-2 47 -6 -15 -9 -139 -4 -166 -8 -225
-17 -228 -10 -4 -13 92 -15 444 -2 312 -5 415 -11 338z m104 -550 c-6 -288 -7
-295 -15 -180 -7 84 -12 112 -17 95 -10 -30 -2 111 12 225 5 44 12 100 15 123
3 24 7 42 9 40 1 -1 0 -138 -4 -303z m-64 -297 c-3 -7 -5 -2 -5 12 0 14 2 19
5 13 2 -7 2 -19 0 -25z m180 0 c-3 -7 -5 -2 -5 12 0 14 2 19 5 13 2 -7 2 -19
0 -25z m-131 -50 c4 -26 3 -59 -1 -75 -6 -27 -7 -27 -21 -9 -12 17 -12 22 1
35 11 13 12 26 5 56 -12 52 -12 61 0 49 5 -5 13 -31 16 -56z m-127 -54 c21 -5
31 -12 31 -25 0 -22 -12 -24 -40 -7 -26 16 -33 6 -25 -33 5 -22 15 -35 36 -42
23 -9 29 -18 29 -40 0 -28 -42 -76 -67 -77 -19 0 -53 51 -53 80 0 15 -9 37
-20 50 -26 30 -25 36 9 71 30 30 46 33 100 23z m423 -14 c35 -27 41 -57 17
-78 -10 -9 -19 -28 -19 -42 0 -35 -36 -90 -59 -90 -13 0 -21 -9 -26 -30 -6
-27 -43 -66 -53 -56 -2 2 0 20 3 39 5 26 13 37 31 41 29 8 31 22 4 38 -30 19
-28 74 4 82 29 7 55 61 37 79 -8 8 -14 8 -23 -1 -18 -18 -40 -15 -36 5 6 33
84 42 120 13z m-165 -72 c-3 -8 -6 -5 -6 6 -1 11 2 17 5 13 3 -3 4 -12 1 -19z
m-121 -33 c-4 -16 -11 -22 -21 -19 -20 8 -19 20 3 42 20 21 27 12 18 -23z
m-268 -76 c13 -27 35 -63 48 -78 13 -16 24 -39 24 -52 -1 -55 -110 106 -110
162 0 32 14 21 38 -32z m189 29 c-3 -8 -6 -5 -6 6 -1 11 2 17 5 13 3 -3 4 -12
1 -19z m63 -2 c0 -18 -10 -25 -26 -19 -8 3 -14 13 -14 23 0 13 5 17 20 13 11
-3 20 -11 20 -17z m157 2 c-3 -8 -6 -5 -6 6 -1 11 2 17 5 13 3 -3 4 -12 1 -19z
m223 1 c0 -30 -34 -99 -69 -139 l-30 -35 -1 27 c0 17 14 46 34 72 18 24 36 56
40 70 8 31 26 35 26 5z m-250 -4 c0 -9 -7 -18 -16 -22 -18 -7 -39 11 -30 26
11 17 46 13 46 -4z m-213 -69 c8 -6 13 -76 6 -76 -16 0 -41 33 -49 64 -6 26
-5 28 17 21 13 -4 25 -8 26 -9z m135 -23 c-5 -40 -7 -39 -15 3 -4 21 -2 31 6
31 8 0 11 -12 9 -34z m-77 -66 c10 -51 -2 -47 -15 6 -22 82 -22 84 -6 57 8
-14 17 -42 21 -63z m154 9 c-6 -26 -13 -45 -16 -43 -2 3 1 26 8 51 6 26 13 45
16 43 2 -3 -1 -26 -8 -51z m138 -23 c-3 -10 -5 -4 -5 12 0 17 2 24 5 18 2 -7
2 -21 0 -30z m-400 -30 c-3 -10 -5 -4 -5 12 0 17 2 24 5 18 2 -7 2 -21 0 -30z
m363 12 c0 -8 -4 -15 -10 -15 -5 0 -10 7 -10 15 0 8 5 15 10 15 6 0 10 -7 10
-15z m-280 -35 c0 -6 -9 -10 -20 -10 -13 0 -20 7 -20 20 0 18 3 19 20 10 11
-6 20 -15 20 -20z m230 10 c0 -12 -28 -25 -36 -17 -9 9 6 27 22 27 8 0 14 -5
14 -10z m-370 -67 c0 -19 -3 -24 -10 -17 -6 6 -8 18 -4 27 9 24 14 21 14 -10z
m13 -94 c-4 -4 -6 22 -3 59 l5 67 3 -59 c2 -32 -1 -63 -5 -67z m477 89 c0 -5
-7 -8 -15 -8 -8 0 -15 -9 -15 -20 0 -11 5 -20 10 -20 13 0 13 -37 0 -45 -13
-8 -30 37 -30 80 0 24 5 35 18 37 16 4 32 -8 32 -24z m-321 -9 c-16 -10 -23
-4 -14 10 3 6 11 8 17 5 6 -4 5 -9 -3 -15z m146 11 c3 -5 -1 -10 -10 -10 -9 0
-13 5 -10 10 3 6 8 10 10 10 2 0 7 -4 10 -10z m-242 -32 c16 -93 16 -99 -3
-43 -22 68 -23 75 -11 75 4 0 11 -15 14 -32z m322 -53 l-15 -50 6 50 c3 28 8
59 12 70 l6 20 3 -20 c2 -11 -4 -42 -12 -70z m-36 -1 c-6 -32 -13 -62 -15 -66
-5 -7 -64 23 -64 32 0 3 5 12 10 20 9 13 12 13 24 -3 14 -18 15 -18 25 2 6 11
11 37 11 57 0 26 3 35 10 28 7 -7 6 -30 -1 -70z m-225 -31 c3 -4 12 2 20 12
14 19 36 13 36 -9 0 -18 -50 -50 -60 -39 -13 15 -30 75 -29 107 0 27 2 25 13
-17 7 -26 16 -50 20 -54z m-143 -36 c-17 -17 -24 -1 -9 22 11 18 14 19 16 5 2
-9 -1 -21 -7 -27z m532 12 c8 -30 -14 -35 -34 -8 -25 32 -24 37 5 32 13 -3 26
-14 29 -24z m-156 -81 c-3 -8 -6 -5 -6 6 -1 11 2 17 5 13 3 -3 4 -12 1 -19z
m-117 -147 c0 -9 -20 -37 -20 -29 0 3 -2 13 -5 21 -4 8 0 14 10 14 8 0 15 -3
15 -6z m-136 -37 c12 -32 6 -60 -70 -324 -18 -62 -18 -13 0 65 7 33 22 108 31
168 18 104 26 124 39 91z m39 -61 c-8 -13 -17 -23 -19 -23 -2 0 -4 21 -4 48
l0 47 19 -24 c17 -23 18 -27 4 -48z m187 16 c0 -41 -11 -45 -30 -9 -7 14 -6
23 6 34 22 23 24 21 24 -25z m-139 -37 c-9 -21 -8 -80 4 -242 8 -117 13 -215
11 -217 -1 -2 -11 36 -21 84 -9 49 -23 113 -30 143 -7 30 -19 88 -26 128 l-12
73 39 40 c40 41 54 38 35 -9z"/>
<path d="M1132 2765 c0 -16 2 -22 5 -12 2 9 2 23 0 30 -3 6 -5 -1 -5 -18z"/>
<path d="M1353 2740 c0 -25 2 -35 4 -22 2 12 2 32 0 45 -2 12 -4 2 -4 -23z"/>
<path d="M1143 2580 c0 -25 2 -35 4 -22 2 12 2 32 0 45 -2 12 -4 2 -4 -23z"/>
<path d="M1363 2560 c0 -30 2 -43 4 -27 2 15 2 39 0 55 -2 15 -4 2 -4 -28z"/>
<path d="M1423 820 c0 -25 2 -35 4 -22 2 12 2 32 0 45 -2 12 -4 2 -4 -23z"/>
<path d="M1433 725 c0 -22 2 -30 4 -17 2 12 2 30 0 40 -3 9 -5 -1 -4 -23z"/>
</g>
</svg>
