<?xml version="1.0" standalone="no"?>
<!DOCTYPE svg PUBLIC "-//W3C//DTD SVG 20010904//EN"
 "http://www.w3.org/TR/2001/REC-SVG-20010904/DTD/svg10.dtd">
<svg version="1.0" xmlns="http://www.w3.org/2000/svg"
 width="244.000000pt" height="305.000000pt" viewBox="0 0 244.000000 305.000000"
 preserveAspectRatio="xMidYMid meet">
<metadata>
Created by potrace 1.16, written by Peter Selinger 2001-2019
</metadata>
<g transform="translate(0.000000,305.000000) scale(0.100000,-0.100000)"
fill="#000000" stroke="none">
<path d="M1528 2405 c2 -339 0 -505 -7 -505 -6 0 -18 11 -27 25 -9 14 -23 25
-30 25 -11 0 -14 26 -14 128 0 129 22 445 40 581 6 41 8 76 5 79 -3 3 -5 1 -5
-4 0 -5 -7 -47 -15 -94 -18 -101 -33 -340 -36 -572 -1 -93 -6 -168 -11 -168
-6 0 -8 203 -6 496 2 272 0 480 -4 462 -14 -64 -38 -355 -44 -538 -4 -102 -12
-214 -19 -250 l-12 -65 -8 49 c-7 46 -9 47 -20 26 -10 -18 -13 0 -18 117 -8
155 -49 415 -63 400 -19 -19 -64 -312 -64 -419 0 -78 -11 -119 -23 -86 -2 7
-8 -9 -12 -37 l-9 -50 -8 35 c-5 19 -13 96 -17 170 l-8 135 -1 -122 c-2 -110
-15 -251 -28 -295 -19 -65 -24 25 -25 460 -1 447 -8 541 -24 330 -4 -49 -10
-88 -15 -88 -4 0 -10 21 -14 48 -12 89 -38 223 -43 218 -3 -2 -4 -227 -3 -500
0 -273 -3 -496 -7 -496 -4 1 -23 14 -42 30 l-33 28 7 189 c6 174 15 308 31
458 4 33 4 58 1 55 -12 -11 -36 -303 -43 -516 l-7 -222 29 -15 c34 -18 64 -51
64 -72 0 -25 -16 -25 -38 0 -40 46 -113 28 -128 -30 -9 -34 2 -44 39 -38 29 4
37 0 65 -31 36 -41 39 -57 16 -77 -12 -10 -15 -25 -12 -61 4 -38 1 -51 -13
-64 -11 -10 -19 -24 -19 -33 0 -9 -16 -32 -36 -51 -36 -35 -36 -36 -31 -97 7
-72 -7 -91 -28 -39 -21 49 -18 83 10 141 l25 50 -21 18 c-28 22 -81 22 -102
-1 -21 -23 -21 -83 -2 -137 37 -102 15 -142 -133 -243 -169 -114 -247 -157
-205 -114 10 10 67 69 127 131 l108 113 41 -6 40 -7 -7 62 c-3 34 -6 82 -6
105 0 27 -5 44 -11 44 -9 0 -10 -25 -6 -91 l7 -91 -28 6 c-28 7 -56 -19 -297
-271 -57 -61 -68 -86 -26 -63 22 11 152 59 304 112 83 28 87 31 87 59 0 27 9
37 23 23 8 -8 -10 -42 -71 -134 -28 -41 -49 -76 -47 -78 1 -2 55 26 118 61
122 68 137 70 137 16 0 -21 -7 -29 -29 -37 -24 -9 -32 -20 -49 -79 -48 -157
-132 -474 -132 -495 0 -7 8 -1 18 13 40 61 235 298 242 294 3 -2 -6 -73 -22
-157 -15 -84 -26 -157 -25 -162 2 -6 50 82 106 195 57 112 108 209 113 216 5
7 8 38 6 70 l-3 58 33 -2 c32 -1 92 -44 92 -66 0 -4 -12 -24 -26 -42 l-26 -35
16 -97 c29 -171 98 -548 101 -551 2 -2 8 30 15 70 7 40 32 183 57 318 24 135
41 255 38 267 -3 12 -14 27 -25 33 -11 6 -20 18 -20 28 1 35 58 82 99 82 27 0
30 -8 22 -55 -7 -37 1 -55 97 -245 107 -209 128 -245 118 -200 -10 44 -46 262
-46 278 0 21 22 -3 108 -116 36 -48 68 -89 71 -92 4 -3 26 -31 50 -63 24 -32
45 -56 47 -54 4 4 -115 445 -141 527 -12 35 -22 48 -45 57 -30 11 -37 32 -24
67 10 25 28 20 122 -34 48 -27 91 -50 95 -50 4 0 -14 35 -41 78 -62 99 -65
109 -42 115 23 6 30 0 30 -29 0 -12 8 -25 18 -29 147 -57 415 -155 417 -153 2
2 -74 84 -169 182 -158 165 -174 179 -199 172 l-27 -6 -1 92 -1 93 -13 -80
c-8 -44 -17 -96 -20 -115 l-7 -35 177 -124 c97 -68 174 -125 172 -127 -4 -4
-131 46 -275 107 -51 21 -53 24 -48 54 5 25 1 36 -18 54 -35 33 -41 100 -16
179 25 80 25 107 0 132 -33 33 -120 21 -120 -16 0 -8 9 -32 20 -54 11 -22 20
-55 20 -75 0 -41 -24 -105 -39 -105 -6 0 -11 -6 -11 -14 0 -8 -9 -24 -20 -37
-18 -22 -19 -22 -20 -5 0 11 9 29 20 41 14 15 22 42 27 89 5 61 4 69 -17 91
-13 14 -32 25 -42 25 -13 0 -18 8 -18 29 0 16 -6 34 -14 41 -11 8 -13 24 -9
61 5 39 2 53 -12 69 -15 17 -16 24 -5 50 17 41 46 60 92 60 34 0 38 3 38 25 0
33 -42 75 -75 75 -26 0 -75 -39 -75 -60 0 -21 -18 -9 -28 19 -8 24 -17 30 -44
33 -36 3 -42 15 -16 32 13 8 22 5 41 -13 l25 -22 45 33 46 33 0 115 c1 169
-16 452 -33 571 -21 142 -48 283 -55 291 -3 4 -5 -220 -3 -497z m-341 -442
c-1 -49 -3 -9 -3 87 0 96 2 136 3 88 2 -49 2 -127 0 -175z m-168 -77 c15 -18
2 -27 -27 -19 -24 6 -29 19 -9 26 20 9 24 8 36 -7z m61 -16 c0 -5 -4 -10 -10
-10 -5 0 -10 5 -10 10 0 6 5 10 10 10 6 0 10 -4 10 -10z m330 0 c0 -5 -7 -10
-15 -10 -8 0 -15 5 -15 10 0 6 7 10 15 10 8 0 15 -4 15 -10z m-292 -136 c-17
-18 -38 -11 -38 11 0 16 31 25 45 13 5 -5 3 -14 -7 -24z m272 6 c0 -18 -22
-22 -37 -7 -21 21 -8 40 18 27 10 -6 19 -15 19 -20z m-370 -45 c0 -27 -8 -35
-26 -28 -14 5 -20 54 -7 66 11 11 33 -14 33 -38z m471 17 c6 -15 3 -26 -7 -37
-22 -22 -34 -19 -34 9 0 55 25 72 41 28z m-314 -59 c-3 -10 -5 -4 -5 12 0 17
2 24 5 18 2 -7 2 -21 0 -30z m-26 -3 c5 0 9 -8 9 -19 0 -10 9 -21 20 -24 11
-3 27 -21 35 -41 9 -20 17 -36 20 -36 3 0 11 16 20 36 8 20 24 38 35 41 11 3
20 13 20 23 0 19 33 32 56 23 8 -3 14 -19 14 -40 0 -35 0 -35 -37 -28 -49 8
-68 -7 -92 -70 l-19 -50 -11 41 c-17 62 -44 85 -90 78 -36 -6 -39 -4 -44 22
-6 32 16 59 41 49 8 -3 18 -5 23 -5z m-190 -58 c0 -9 8 -29 17 -43 48 -75 84
-141 79 -145 -9 -9 -68 61 -92 110 -25 50 -34 113 -15 101 6 -3 10 -14 11 -23z
m110 -50 c9 -29 14 -50 10 -47 -16 9 -41 73 -40 102 0 15 3 21 6 13 3 -8 14
-39 24 -68z m463 40 c-11 -44 -54 -118 -90 -153 -40 -39 -43 -30 -9 26 13 22
39 68 56 102 33 62 55 75 43 25z m-108 -14 c-4 -18 -15 -44 -26 -58 -19 -25
-19 -25 -3 25 9 28 18 56 20 64 7 28 15 1 9 -31z m-260 -84 c10 -39 -3 -40
-25 -3 -26 43 -26 53 -1 39 11 -6 23 -22 26 -36z m170 8 c-20 -38 -36 -49 -36
-24 0 19 38 67 47 59 2 -3 -3 -19 -11 -35z m-402 -110 c-8 -80 -24 -88 -24
-11 0 46 15 97 26 86 2 -2 1 -36 -2 -75z m616 -3 c0 -38 -4 -58 -10 -54 -5 3
-10 33 -10 66 0 38 4 58 10 54 6 -3 10 -33 10 -66z m-370 -15 c0 -12 -4 -13
-21 -3 -17 9 -19 13 -8 19 16 11 29 4 29 -16z m135 -1 c-21 -15 -30 -10 -22
11 4 10 13 13 23 9 15 -6 15 -7 -1 -20z m-279 -45 c-3 -13 -6 -31 -6 -40 0
-10 -4 -18 -10 -18 -11 0 -13 39 -4 64 9 25 27 19 20 -6z m419 -10 c3 -18 -1
-55 -8 -83 l-13 -50 -54 -3 c-30 -2 -60 -7 -66 -13 -7 -6 -16 -4 -23 5 -18 22
-9 50 16 54 26 4 36 27 23 53 -9 16 -6 21 15 31 14 6 28 8 32 5 3 -4 5 -32 4
-62 -2 -59 2 -64 38 -39 22 16 23 22 17 75 -6 62 9 84 19 27z m-311 -7 c14 -5
16 -10 8 -15 -7 -4 -12 -20 -12 -36 0 -22 5 -29 23 -32 16 -2 23 -11 25 -32 3
-27 3 -28 -36 -21 -21 3 -54 7 -73 7 -40 1 -60 14 -52 34 5 13 8 12 25 -2 16
-15 21 -16 33 -3 10 10 12 24 6 49 -13 57 2 71 53 51z m-150 -150 c-6 -6 -24
19 -24 34 1 6 7 1 15 -9 8 -11 12 -22 9 -25z m493 17 c-3 -8 -6 -5 -6 6 -1 11
2 17 5 13 3 -3 4 -12 1 -19z m-590 -65 c21 -50 12 -116 -25 -184 -16 -30 -71
-136 -122 -237 -51 -101 -94 -181 -96 -180 -1 2 6 35 17 73 10 39 37 135 59
214 21 79 41 144 42 145 2 0 21 10 42 21 46 23 61 61 53 138 -5 56 8 61 30 10z
m693 -55 l-11 -60 57 -121 c32 -67 86 -178 120 -247 34 -69 60 -127 58 -129
-10 -11 -233 300 -245 342 -18 66 -14 226 6 272 24 53 31 24 15 -57z m196 37
c53 -81 41 -84 -31 -7 -33 35 -37 44 -25 52 8 5 16 10 17 10 1 0 18 -25 39
-55z m-1006 20 c10 -12 -1 -22 -61 -60 -39 -26 -79 -49 -88 -52 -15 -5 -15 -4
0 11 9 9 36 39 60 66 46 51 68 60 89 35z m410 -35 c0 -5 -7 -7 -15 -4 -8 4
-15 8 -15 10 0 2 7 4 15 4 8 0 15 -4 15 -10z m44 -130 c3 0 12 12 20 28 8 15
15 21 16 14 0 -14 -28 -72 -35 -72 -8 0 -35 59 -35 77 1 11 6 5 15 -14 8 -18
16 -33 19 -33z m-210 -31 c11 -58 6 -73 -74 -237 -44 -90 -80 -168 -80 -173 0
-5 -4 -9 -9 -9 -6 0 3 38 19 84 15 46 44 137 65 202 44 143 52 164 64 164 4 0
11 -14 15 -31z m501 22 c3 -6 1 -28 -4 -50 -7 -33 -6 -45 9 -64 9 -12 22 -32
29 -44 12 -23 53 -244 47 -251 -4 -4 -136 393 -136 409 0 12 47 12 55 0z
m-357 -206 c2 -52 1 -95 -1 -95 -3 0 -10 36 -17 80 -10 64 -10 83 0 95 7 8 13
15 14 15 0 0 2 -43 4 -95z m9 -127 c-3 -8 -6 -5 -6 6 -1 11 2 17 5 13 3 -3 4
-12 1 -19z"/>
<path d="M1041 2884 c0 -11 3 -14 6 -6 3 7 2 16 -1 19 -3 4 -6 -2 -5 -13z"/>
<path d="M911 2754 c0 -11 3 -14 6 -6 3 7 2 16 -1 19 -3 4 -6 -2 -5 -13z"/>
<path d="M1062 2720 c0 -14 2 -19 5 -12 2 6 2 18 0 25 -3 6 -5 1 -5 -13z"/>
<path d="M902 2700 c0 -19 2 -27 5 -17 2 9 2 25 0 35 -3 9 -5 1 -5 -18z"/>
<path d="M1073 2630 c0 -25 2 -35 4 -22 2 12 2 32 0 45 -2 12 -4 2 -4 -23z"/>
<path d="M1451 2634 c0 -11 3 -14 6 -6 3 7 2 16 -1 19 -3 4 -6 -2 -5 -13z"/>
<path d="M1083 2490 c0 -30 2 -43 4 -27 2 15 2 39 0 55 -2 15 -4 2 -4 -28z"/>
<path d="M1473 2285 c0 -44 2 -61 4 -37 2 23 2 59 0 80 -2 20 -4 1 -4 -43z"/>
</g>
</svg>
