<?xml version="1.0" standalone="no"?>
<!DOCTYPE svg PUBLIC "-//W3C//DTD SVG 20010904//EN"
 "http://www.w3.org/TR/2001/REC-SVG-20010904/DTD/svg10.dtd">
<svg version="1.0" xmlns="http://www.w3.org/2000/svg"
 width="244.000000pt" height="305.000000pt" viewBox="0 0 244.000000 305.000000"
 preserveAspectRatio="xMidYMid meet">
<metadata>
Created by potrace 1.16, written by Peter Selinger 2001-2019
</metadata>
<g transform="translate(0.000000,305.000000) scale(0.100000,-0.100000)"
fill="#000000" stroke="none">
<path d="M897 2900 c-12 -28 -45 -195 -61 -300 -22 -151 -36 -342 -38 -519 -1
-140 1 -156 17 -165 10 -6 33 -24 52 -40 l33 -28 34 30 c19 17 44 33 55 37 25
8 25 9 11 315 -10 208 -24 335 -57 508 -21 112 -28 97 -8 -19 30 -176 46 -345
52 -554 l6 -210 -41 -28 c-23 -15 -44 -27 -47 -27 -3 0 -5 217 -4 483 0 278 4
474 9 462 l9 -20 -1 20 c0 11 -3 31 -8 45 -5 19 -9 21 -13 10z"/>
<path d="M1542 2807 c-50 -226 -70 -432 -73 -721 -1 -145 1 -160 18 -169 10
-5 32 -23 49 -39 27 -25 33 -27 45 -15 8 8 34 26 57 41 l43 27 -5 117 c-3 64
-8 178 -12 252 -9 211 -64 570 -93 602 -4 4 -17 -39 -29 -95z m78 -197 c23
-158 39 -385 40 -551 l0 -106 -40 -27 c-22 -14 -42 -26 -45 -26 -3 0 -5 217
-4 483 1 529 4 540 49 227z"/>
<path d="M1321 2820 c-1 -25 -2 -207 -3 -405 0 -305 -2 -340 -9 -227 -8 124
-49 366 -68 400 -9 15 -34 -71 -56 -188 -11 -62 -12 -55 -21 170 l-9 235 -5
-455 c-5 -497 -3 -483 -50 -292 -6 23 -15 42 -19 42 -8 0 -23 -68 -35 -162 -5
-37 18 -78 43 -78 12 0 15 -42 4 -53 -3 -4 -11 3 -17 16 -7 12 -29 28 -51 35
-35 11 -42 11 -65 -6 -14 -10 -31 -33 -39 -50 -8 -18 -17 -32 -20 -32 -4 0
-12 14 -20 30 -39 90 -171 81 -171 -11 0 -28 1 -29 38 -23 34 5 44 2 75 -26
39 -34 49 -73 22 -84 -35 -13 -4 -128 59 -216 20 -28 36 -53 36 -56 0 -3 -16
-26 -35 -51 -19 -25 -35 -56 -35 -69 0 -43 65 -86 105 -70 13 5 14 17 9 69 -8
75 0 84 50 63 35 -15 36 -15 30 -63 -7 -54 -27 -93 -49 -93 -12 0 -12 6 0 48
8 26 15 48 15 50 0 2 5 0 10 -3 12 -8 13 5 1 24 -7 10 -15 -5 -30 -54 -12 -38
-26 -74 -32 -82 -21 -24 -52 -13 -96 33 -40 41 -44 50 -43 92 2 54 -9 129 -22
155 -11 21 -61 23 -82 2 -36 -36 -28 -96 24 -179 17 -26 49 -83 70 -126 35
-68 40 -86 40 -146 0 -38 4 -83 9 -100 8 -30 4 -37 -56 -110 -129 -155 -226
-264 -231 -260 -2 3 22 52 54 108 73 130 126 226 166 305 32 62 32 63 19 125
-16 77 -29 103 -91 180 -35 43 -53 76 -61 114 -11 49 -10 55 15 97 14 25 26
52 26 61 0 38 -105 51 -140 16 -25 -25 -25 -39 0 -118 32 -101 26 -170 -16
-193 -22 -11 -24 -18 -19 -50 l6 -37 -58 -20 c-32 -11 -111 -39 -176 -62 -66
-23 -120 -40 -123 -38 -2 2 34 27 79 55 217 134 283 177 294 190 9 11 8 26 -2
61 -7 26 -16 76 -20 111 -11 95 -27 55 -19 -46 l6 -83 -35 3 c-34 2 -48 -9
-222 -168 -103 -93 -183 -171 -178 -172 5 -2 114 32 243 74 227 75 235 79 238
105 4 31 17 34 59 16 63 -28 102 -61 117 -99 19 -48 17 -54 -29 -69 -19 -6
-35 -13 -35 -15 0 -2 -38 -129 -85 -281 -47 -152 -84 -278 -82 -280 5 -5 62
57 197 209 57 66 125 142 152 170 51 55 50 50 31 135 -5 21 -3 22 79 22 46 0
96 -6 112 -12 31 -15 31 2 0 -218 -16 -113 -20 -128 -25 -95 -4 22 -5 6 -2
-35 3 -54 1 -71 -6 -60 -8 11 -10 -1 -10 -45 l1 -60 29 120 c16 66 33 123 37
127 5 5 32 -110 61 -254 29 -145 54 -264 55 -266 2 -1 15 60 31 135 15 76 38
185 51 241 13 57 24 114 24 127 0 32 17 41 23 13 2 -13 3 6 1 42 -5 83 11 41
20 -52 3 -41 2 -54 -3 -38 -10 29 -14 6 -4 -28 4 -18 8 -21 15 -10 6 9 7 3 4
-17 -3 -16 1 -52 9 -80 l15 -50 -5 50 c-31 329 -37 448 -24 456 8 5 52 9 98 9
l83 0 -6 -36 c-4 -19 -9 -41 -12 -49 -3 -7 21 -44 54 -82 62 -72 290 -323 324
-358 20 -20 20 -20 14 10 -8 33 -55 188 -123 402 -43 138 -46 143 -76 151 -70
18 -32 107 65 156 64 31 88 29 88 -8 0 -24 12 -29 243 -104 133 -44 243 -79
245 -77 3 3 -20 25 -237 224 -136 126 -146 132 -177 127 l-33 -7 6 91 c4 64 3
90 -6 90 -6 0 -11 -16 -11 -37 0 -21 -3 -69 -7 -106 l-6 -69 46 7 c40 6 49 4
74 -19 15 -15 80 -75 144 -134 64 -59 113 -108 109 -110 -8 -3 -79 37 -287
161 -87 52 -105 67 -118 99 -19 49 -19 60 5 136 25 80 25 97 0 122 -23 23 -75
26 -115 8 -31 -14 -32 -29 0 -76 45 -67 31 -128 -59 -242 -58 -75 -73 -120
-61 -189 8 -46 17 -56 71 -74 37 -13 40 -18 65 -93 65 -193 116 -364 110 -364
-3 0 -27 37 -52 83 -56 101 -188 329 -217 377 -15 23 -22 51 -22 84 0 44 8 64
71 168 82 136 96 191 60 227 -27 27 -77 28 -91 1 -6 -11 -12 -58 -14 -105 -5
-90 -19 -122 -73 -165 -51 -40 -84 -18 -110 76 -9 33 -21 62 -27 66 -13 9 0
23 31 32 34 11 48 -24 32 -81 -10 -38 -10 -46 2 -54 22 -13 41 -11 77 11 45
28 44 71 -3 125 -19 22 -35 44 -35 49 0 4 16 30 35 56 68 92 98 202 60 216
-25 10 -17 50 16 83 25 25 39 31 75 31 40 0 44 2 44 24 0 42 -33 71 -79 70
-46 -2 -73 -20 -91 -65 -16 -38 -23 -37 -39 7 -31 86 -158 76 -164 -12 -2 -28
-1 -29 43 -26 37 3 50 -1 73 -22 30 -28 35 -57 12 -76 -8 -7 -15 -21 -15 -32
0 -27 -34 -89 -64 -117 -24 -22 -26 -23 -33 -6 -4 12 -2 20 6 23 18 6 -17 42
-41 42 -21 0 -24 6 -33 75 l-7 50 22 -27 c12 -16 30 -28 40 -28 23 0 50 36 50
67 0 26 -3 27 -29 11 -27 -17 -55 -3 -47 25 3 12 6 40 6 62 0 34 5 43 29 57
24 13 29 22 26 45 -2 15 -6 56 -10 91 -12 123 -29 129 -50 18 -10 -53 -12 -17
-19 284 -8 339 -21 598 -25 510z m-46 -471 c8 -59 15 -170 15 -260 0 -87 5
-170 11 -186 8 -21 7 -30 -4 -38 -8 -6 -16 -19 -19 -30 -2 -11 -3 45 -2 125 1
114 0 127 -5 60 -5 -73 -7 -56 -14 125 -4 116 -9 248 -11 295 -5 100 5 70 29
-91z m-138 -481 c-3 -8 -6 -5 -6 6 -1 11 2 17 5 13 3 -3 4 -12 1 -19z m200 0
c-3 -8 -6 -5 -6 6 -1 11 2 17 5 13 3 -3 4 -12 1 -19z m-228 -129 c-10 -20 -44
-26 -54 -9 -11 18 -25 11 -25 -13 0 -31 27 -67 50 -67 10 0 26 10 34 22 21 29
24 22 17 -36 -6 -46 -9 -50 -38 -58 -34 -9 -36 -14 -34 -58 2 -24 1 -24 -33
12 -19 20 -40 56 -47 80 -7 23 -18 50 -26 59 -18 22 -16 40 8 69 18 21 30 25
73 25 39 1 50 4 48 15 -3 10 2 9 17 -4 16 -14 18 -23 10 -37z m195 -1 c7 -38
-3 -100 -18 -110 -20 -14 -26 -8 -25 25 0 25 2 28 8 13 7 -18 8 -18 14 -2 4
10 7 32 7 49 0 24 -3 28 -10 17 -8 -12 -10 -11 -10 6 0 44 25 46 34 2z m276
-137 c0 -35 -52 -120 -103 -168 -42 -39 -52 -45 -55 -30 -2 12 16 40 50 75 31
32 62 77 73 104 17 46 35 56 35 19z m-646 -34 c14 -30 43 -70 63 -90 54 -51
63 -64 63 -84 0 -14 -2 -15 -9 -5 -4 8 -11 12 -15 10 -12 -6 -96 85 -115 126
-44 95 -32 135 13 43z m262 16 c-3 -8 -6 -19 -6 -24 0 -6 -4 -7 -10 -4 -5 3
-10 17 -10 30 0 18 4 23 16 18 8 -3 13 -12 10 -20z m104 2 c0 -28 -15 -33 -24
-8 -4 9 -1 20 6 25 18 11 18 11 18 -17z m-171 -73 c5 -9 12 -35 16 -57 l8 -40
-27 28 c-16 17 -26 39 -26 58 0 32 14 38 29 11z m108 -29 c-3 -10 -5 -2 -5 17
0 19 2 27 5 18 2 -10 2 -26 0 -35z m133 17 c0 -18 -10 -39 -26 -55 l-27 -27 7
39 c11 61 16 73 32 73 9 0 14 -11 14 -30z m37 -112 c-3 -8 -6 -5 -6 6 -1 11 2
17 5 13 3 -3 4 -12 1 -19z m-310 -10 c-3 -8 -6 -5 -6 6 -1 11 2 17 5 13 3 -3
4 -12 1 -19z m243 -18 c0 -21 -25 -4 -28 20 -4 21 -2 22 12 7 9 -8 16 -21 16
-27z m37 18 c-3 -8 -6 -5 -6 6 -1 11 2 17 5 13 3 -3 4 -12 1 -19z m-217 -2 c0
-16 -18 -31 -27 -22 -8 8 5 36 17 36 5 0 10 -6 10 -14z m17 -68 c-3 -8 -6 -5
-6 6 -1 11 2 17 5 13 3 -3 4 -12 1 -19z m120 0 c-3 -8 -6 -5 -6 6 -1 11 2 17
5 13 3 -3 4 -12 1 -19z m126 -113 l7 -30 -14 30 c-9 17 -15 50 -14 75 l1 45 7
-45 c4 -25 10 -58 13 -75z m-310 25 l6 -55 -14 60 c-16 69 -18 86 -6 65 5 -8
11 -40 14 -70z m254 33 c-3 -10 -5 -2 -5 17 0 19 2 27 5 18 2 -10 2 -26 0 -35z
m-10 -55 c-3 -7 -5 -2 -5 12 0 14 2 19 5 13 2 -7 2 -19 0 -25z m-37 12 c8 12
10 12 10 -5 0 -11 -5 -27 -10 -35 -8 -13 -11 -13 -26 2 -10 10 -14 23 -10 34
6 16 8 16 17 4 8 -13 10 -13 19 0z m-150 -9 c0 11 2 11 10 -1 6 -10 4 -20 -7
-33 -18 -19 -33 -8 -33 27 0 15 3 16 15 6 12 -10 15 -10 15 1z m67 -283 c-3
-8 -6 -5 -6 6 -1 11 2 17 5 13 3 -3 4 -12 1 -19z m113 -25 c0 -10 3 -36 6 -58
5 -38 4 -39 -10 -21 -18 22 -22 96 -6 96 6 0 10 -8 10 -17z m-193 -35 c-3 -7
-5 -2 -5 12 0 14 2 19 5 13 2 -7 2 -19 0 -25z m177 -90 c4 -20 -1 -64 -13
-108 -10 -41 -29 -128 -41 -193 -13 -65 -25 -115 -28 -113 -2 3 1 106 7 229 9
158 9 231 1 251 -5 15 -8 32 -4 37 9 15 71 -67 78 -103z m-17 90 c-3 -8 -6 -5
-6 6 -1 11 2 17 5 13 3 -3 4 -12 1 -19z"/>
<path d="M1133 2700 c0 -25 2 -35 4 -22 2 12 2 32 0 45 -2 12 -4 2 -4 -23z"/>
<path d="M1303 2555 c0 -22 2 -30 4 -17 2 12 2 30 0 40 -3 9 -5 -1 -4 -23z"/>
<path d="M1122 2485 c0 -16 2 -22 5 -12 2 9 2 23 0 30 -3 6 -5 -1 -5 -18z"/>
<path d="M1124 2350 c0 -52 1 -74 3 -47 2 26 2 68 0 95 -2 26 -3 4 -3 -48z"/>
<path d="M1083 860 c0 -25 2 -35 4 -22 2 12 2 32 0 45 -2 12 -4 2 -4 -23z"/>
<path d="M1073 745 c0 -22 2 -30 4 -17 2 12 2 30 0 40 -3 9 -5 -1 -4 -23z"/>
</g>
</svg>
