<?xml version="1.0" standalone="no"?>
<!DOCTYPE svg PUBLIC "-//W3C//DTD SVG 20010904//EN"
 "http://www.w3.org/TR/2001/REC-SVG-20010904/DTD/svg10.dtd">
<svg version="1.0" xmlns="http://www.w3.org/2000/svg"
 width="244.000000pt" height="305.000000pt" viewBox="0 0 244.000000 305.000000"
 preserveAspectRatio="xMidYMid meet">
<metadata>
Created by potrace 1.16, written by Peter Selinger 2001-2019
</metadata>
<g transform="translate(0.000000,305.000000) scale(0.100000,-0.100000)"
fill="#000000" stroke="none">
<path d="M976 2886 c-4 -14 -8 -38 -11 -52 -30 -143 -64 -586 -64 -834 l0 -75
44 -38 44 -38 41 39 40 40 0 93 c0 188 -21 526 -41 663 -11 78 -23 157 -25
176 -6 46 -21 60 -28 26z"/>
<path d="M1475 2898 c-28 -79 -62 -424 -71 -730 l-7 -238 42 -40 42 -41 45 38
45 38 -6 245 c-7 275 -15 380 -47 593 -20 134 -31 168 -43 135z m14 -540 c-1
-255 -5 -445 -9 -423 -4 22 -7 209 -5 415 2 425 3 470 10 470 3 0 5 -208 4
-462z"/>
<path d="M1226 2584 c-22 -70 -47 -304 -53 -497 -3 -119 -7 -216 -9 -214 -1 1
-9 53 -17 115 -20 151 -29 160 -46 52 -18 -111 -15 -153 15 -179 22 -19 25
-28 22 -74 -3 -50 -4 -52 -30 -49 -24 2 -28 -1 -28 -23 0 -61 43 -86 73 -42
16 22 16 21 16 -19 1 -28 6 -44 16 -48 9 -3 23 -22 31 -41 8 -19 17 -35 20
-35 3 0 10 14 16 30 5 17 19 35 29 41 14 7 19 21 20 52 0 41 0 42 16 20 30
-44 73 -19 73 41 0 27 -18 34 -38 14 -15 -15 -25 10 -26 69 -1 38 3 48 27 65
31 22 34 53 17 172 -17 115 -25 107 -46 -45 -9 -63 -17 -115 -18 -117 -2 -1
-6 94 -9 210 -7 204 -36 470 -56 505 -8 14 -9 14 -15 -3z"/>
<path d="M861 1849 c-18 -20 -33 -74 -23 -84 3 -3 20 -5 37 -5 18 0 39 -8 48
-18 22 -24 34 -82 17 -82 -10 0 -11 -17 -7 -66 4 -50 14 -84 42 -138 l37 -73
-26 -41 c-35 -56 -36 -115 -2 -138 14 -8 35 -14 48 -12 22 3 23 6 19 72 -3 55
-1 67 10 63 8 -3 31 -11 52 -18 34 -11 37 -15 37 -49 0 -29 5 -39 20 -43 31
-8 27 -53 -5 -61 -14 -4 -26 -14 -26 -24 -1 -9 -4 -3 -8 13 -7 36 -40 45 -76
21 -37 -24 -52 -20 -80 23 -20 33 -25 57 -30 137 -8 135 -23 157 -79 113 -22
-17 -26 -29 -27 -72 l-1 -52 -9 49 c-6 40 -4 55 12 85 33 63 20 90 -44 93 -42
1 -62 -13 -71 -47 -4 -14 -11 -25 -16 -25 -6 0 -10 -36 -10 -85 0 -83 0 -85
-24 -85 -17 0 -36 -14 -63 -47 -21 -27 -40 -50 -43 -53 -10 -10 -99 -117 -149
-179 -70 -88 -54 -93 90 -30 231 102 239 106 239 134 0 14 6 25 13 25 22 0 81
-49 99 -83 26 -49 23 -73 -12 -85 -20 -8 -31 -19 -35 -39 -8 -37 -46 -195 -85
-360 -17 -73 -30 -142 -28 -155 7 -49 13 -42 226 285 82 126 83 127 72 167 -6
22 -8 45 -4 51 11 18 120 6 145 -16 37 -35 40 -49 14 -86 -27 -38 -27 -28 19
-324 8 -55 22 -145 31 -200 20 -135 27 -167 31 -162 2 2 27 149 54 327 l50
324 -26 33 c-24 32 -25 35 -10 58 28 42 59 56 118 53 57 -3 60 -8 44 -69 -7
-25 40 -105 205 -347 16 -23 29 -46 29 -50 1 -15 37 -50 58 -56 12 -4 22 -5
22 -3 0 5 -31 141 -66 287 -9 36 -20 79 -25 95 -4 17 -15 62 -24 100 -13 59
-21 73 -45 87 -34 19 -34 48 -2 100 31 50 92 76 92 39 0 -13 24 -29 98 -60 53
-24 125 -56 160 -72 34 -16 72 -29 83 -29 11 0 29 -5 39 -10 32 -17 30 4 -3
40 -18 19 -50 58 -72 85 -22 28 -55 68 -75 90 -19 23 -53 62 -74 88 -27 31
-48 47 -63 47 -22 0 -23 3 -24 83 l-2 82 -9 -70 c-14 -105 -27 -101 -21 6 5
83 3 97 -14 118 -23 28 -86 32 -111 7 -15 -15 -15 -20 1 -67 10 -28 16 -53 14
-56 -3 -2 -8 5 -12 16 -14 44 -77 51 -90 10 -4 -11 -8 -58 -10 -105 -3 -82
-11 -125 -13 -65 -1 27 -16 63 -44 103 -10 14 -6 30 26 94 28 57 40 94 44 141
3 43 1 63 -7 63 -18 0 -13 45 10 74 15 19 30 26 54 26 39 0 51 22 35 64 -22
59 -98 59 -128 0 l-19 -36 -13 31 c-32 78 -113 64 -127 -22 l-5 -36 43 -3 c37
-3 46 -8 58 -32 12 -25 11 -33 -3 -57 -9 -15 -16 -37 -16 -50 0 -36 -40 -109
-82 -149 -38 -38 -53 -79 -31 -87 21 -8 111 87 144 151 20 38 29 50 25 31 -19
-83 -84 -167 -154 -201 -28 -13 -33 -20 -29 -40 2 -13 0 -24 -4 -24 -13 0 -10
107 4 160 10 37 19 48 50 63 44 22 46 31 12 53 -42 27 -70 12 -96 -52 l-23
-55 -21 48 c-27 60 -47 77 -80 69 -33 -8 -53 -44 -28 -52 35 -11 48 -21 61
-47 16 -33 29 -187 15 -187 -6 0 -8 11 -6 24 4 21 -1 27 -29 39 -66 28 -135
115 -152 192 -4 22 3 14 25 -28 34 -62 122 -151 142 -144 22 8 8 46 -34 89
-48 49 -79 106 -79 144 0 14 -8 39 -17 55 -16 27 -16 32 -3 57 13 22 24 28 58
30 39 3 42 5 42 33 0 40 -41 81 -77 77 -20 -2 -34 -14 -49 -41 l-21 -38 -13
31 c-22 52 -74 66 -109 29z m-113 -492 c9 -59 -1 -81 -12 -26 -7 36 -8 94 -1
88 2 -3 8 -30 13 -62z m671 -94 c-4 -67 -4 -68 22 -71 15 -2 34 4 43 14 27 26
30 8 6 -26 -23 -33 -27 -33 -86 -9 -45 18 -64 7 -65 -38 -2 -29 -3 -31 -6 -11
-3 18 -12 28 -29 32 -19 5 -24 13 -24 36 0 23 4 30 20 30 16 0 20 7 20 38 0
35 3 39 43 54 23 8 46 16 51 17 4 0 6 -29 5 -66z m-559 18 c0 -11 5 -23 10
-26 6 -3 10 -12 10 -18 0 -7 -9 2 -20 18 -22 34 -25 45 -10 45 6 0 10 -9 10
-19z m1039 -169 c39 -35 71 -71 71 -80 0 -10 -3 -13 -8 -7 -4 6 -32 27 -62 47
-52 36 -68 50 -139 126 -51 55 -38 71 18 21 27 -24 81 -73 120 -107z m-951
-53 c-3 -33 -4 -33 -8 8 -3 23 -2 39 3 34 5 -5 7 -24 5 -42z m585 -6 c-4 -42
3 -68 57 -198 76 -185 113 -286 106 -292 -8 -9 -135 275 -170 380 -14 43 -15
99 0 145 8 26 11 10 7 -35z m-332 -25 c4 -25 12 -56 19 -68 17 -31 31 -13 45
57 7 33 17 59 26 61 11 4 12 2 2 -9 -7 -7 -13 -31 -13 -53 0 -45 -34 -111 -51
-100 -17 10 -39 70 -39 107 0 18 -6 39 -12 46 -11 11 -10 13 2 9 9 -3 18 -23
21 -50z m839 -23 c19 -22 8 -25 -12 -3 -10 10 -14 18 -9 18 5 0 14 -7 21 -15z"/>
</g>
</svg>
