<?xml version="1.0" standalone="no"?>
<!DOCTYPE svg PUBLIC "-//W3C//DTD SVG 20010904//EN"
 "http://www.w3.org/TR/2001/REC-SVG-20010904/DTD/svg10.dtd">
<svg version="1.0" xmlns="http://www.w3.org/2000/svg"
 width="244.000000pt" height="305.000000pt" viewBox="0 0 244.000000 305.000000"
 preserveAspectRatio="xMidYMid meet">
<metadata>
Created by potrace 1.16, written by Peter Selinger 2001-2019
</metadata>
<g transform="translate(0.000000,305.000000) scale(0.100000,-0.100000)"
fill="#000000" stroke="none">
<path d="M871 2818 c-48 -207 -81 -513 -81 -755 0 -134 1 -142 21 -148 11 -4
35 -20 53 -36 32 -28 33 -28 53 -10 11 10 35 27 53 36 l33 17 -6 227 c-3 124
-11 269 -17 321 -11 109 -50 323 -57 317 -2 -3 5 -61 16 -131 12 -69 26 -179
31 -243 13 -143 20 -447 11 -460 -7 -10 -75 -53 -85 -53 -3 0 -6 216 -6 481 0
317 3 478 10 474 6 -3 10 5 10 19 0 58 -20 30 -39 -56z"/>
<path d="M1292 2885 c0 -16 2 -22 5 -12 2 9 2 23 0 30 -3 6 -5 -1 -5 -18z"/>
<path d="M1568 2894 c-9 -14 -56 -257 -68 -349 -15 -121 -30 -365 -30 -500 l0
-120 38 -23 c20 -12 45 -28 54 -34 14 -10 21 -8 40 9 13 12 36 27 52 33 l29
11 -7 217 c-4 119 -14 271 -21 337 -15 127 -51 335 -60 343 -7 7 -7 3 10 -84
33 -180 48 -334 60 -645 l5 -126 -40 -31 c-21 -18 -44 -32 -49 -32 -8 0 -11
148 -11 476 0 314 3 473 10 469 12 -7 12 11 1 39 -4 11 -10 15 -13 10z"/>
<path d="M1171 2874 c0 -11 3 -14 6 -6 3 7 2 16 -1 19 -3 4 -6 -2 -5 -13z"/>
<path d="M911 2824 c0 -11 3 -14 6 -6 3 7 2 16 -1 19 -3 4 -6 -2 -5 -13z"/>
<path d="M1286 2689 c-4 -20 -3 -60 2 -90 5 -30 7 -85 4 -124 l-5 -70 -14 60
c-7 33 -19 78 -25 100 l-11 40 -9 -30 c-6 -16 -16 -50 -23 -75 -14 -45 -14
-45 -16 60 -3 96 -3 90 -9 -60 -8 -220 -30 -589 -37 -620 -7 -32 -9 -26 -32
104 -29 158 -39 161 -61 16 -15 -100 -14 -107 25 -132 40 -27 52 -63 35 -113
-11 -35 -41 -48 -55 -25 -12 19 -25 10 -25 -18 0 -57 65 -80 90 -31 15 28 29
23 28 -8 0 -16 3 -45 7 -65 l8 -37 -29 8 c-33 9 -63 1 -83 -23 -11 -14 -8 -16
28 -22 40 -6 41 -8 41 -45 0 -22 -4 -39 -9 -39 -14 0 -98 85 -121 122 -11 18
-20 46 -20 61 0 15 -7 30 -15 33 -23 9 -18 52 11 81 22 22 32 25 70 20 44 -5
44 -5 44 28 0 88 -146 93 -165 5 -8 -36 -22 -39 -34 -7 -26 67 -124 95 -163
47 -11 -13 -18 -35 -16 -49 3 -24 7 -25 44 -23 32 3 47 -2 72 -23 43 -36 49
-62 22 -87 -18 -17 -21 -28 -16 -59 7 -45 57 -143 92 -180 31 -32 30 -39 -5
-73 -16 -16 -35 -42 -42 -58 -10 -25 -9 -33 8 -56 23 -32 87 -52 105 -34 9 9
9 20 0 45 -28 76 -10 97 64 77 57 -16 80 -60 64 -122 -7 -25 -15 -36 -23 -31
-24 14 -63 12 -100 -7 -48 -25 -56 -25 -87 3 -55 50 -65 68 -67 126 -2 71 -12
132 -25 149 -15 18 -63 15 -80 -5 -41 -48 -29 -90 66 -247 45 -74 67 -120 68
-145 6 -114 8 -149 10 -173 2 -22 -25 -59 -147 -202 -82 -96 -151 -173 -153
-171 -2 2 7 23 21 47 13 23 72 130 132 237 l108 193 -6 57 c-6 66 -33 126 -87
191 -80 97 -92 167 -43 242 l27 40 -24 20 c-18 14 -36 18 -74 16 -43 -3 -53
-7 -65 -30 -14 -24 -13 -33 7 -96 12 -37 22 -90 22 -116 0 -40 -5 -53 -30 -78
-26 -26 -30 -35 -24 -64 3 -19 4 -34 2 -34 -3 0 -82 -27 -176 -60 -93 -33
-176 -60 -183 -60 -7 0 61 46 152 101 252 156 241 148 234 167 -16 42 -35 130
-35 164 0 20 -5 40 -12 44 -8 5 -10 -18 -5 -89 l5 -95 -32 5 c-35 5 -16 21
-380 -309 -24 -22 -35 -38 -26 -38 8 0 119 34 246 75 213 69 232 77 238 100 9
36 25 39 77 16 88 -39 143 -128 94 -154 -11 -5 -27 -13 -35 -17 -8 -4 -35 -69
-62 -151 -99 -306 -128 -403 -125 -412 1 -5 64 57 139 139 235 259 268 298
262 314 -3 8 -8 30 -11 47 l-6 33 87 0 c118 0 146 -14 146 -74 0 -28 -6 -48
-16 -57 -11 -9 -14 -22 -10 -43 21 -103 24 -157 13 -266 l-6 -65 12 62 c7 34
15 64 18 67 3 3 11 -24 18 -62 17 -94 74 -362 77 -359 1 1 21 92 44 202 23
110 49 207 56 216 8 9 14 38 14 70 0 30 6 78 13 107 13 47 12 53 -5 68 -12 12
-18 31 -18 60 0 38 4 45 31 59 32 17 185 23 200 8 4 -4 3 -27 -3 -49 -10 -36
-9 -45 8 -66 42 -53 378 -418 381 -414 4 4 -45 168 -124 415 l-46 144 -40 15
c-36 15 -38 18 -33 46 10 48 37 79 96 108 73 36 90 36 90 -1 0 -26 5 -30 53
-43 28 -9 137 -43 241 -77 103 -34 190 -60 193 -58 5 5 -12 21 -227 216 -138
125 -147 131 -179 126 l-33 -6 7 84 c10 120 -10 120 -23 0 -6 -53 -9 -100 -6
-105 3 -4 23 -5 44 -2 37 6 43 3 112 -56 108 -93 221 -200 217 -205 -3 -2 -90
45 -194 104 -132 75 -195 117 -207 137 -22 36 -23 97 -3 154 22 61 20 117 -4
130 -31 16 -96 12 -121 -8 l-23 -19 26 -39 c20 -28 27 -51 27 -87 0 -56 -13
-84 -69 -152 -71 -86 -88 -148 -62 -227 10 -29 19 -37 57 -49 l46 -14 69 -214
c38 -118 68 -218 66 -224 -2 -8 -183 296 -269 455 -47 86 -39 117 87 318 57
90 44 180 -26 180 -13 0 -29 -4 -35 -8 -13 -8 -26 -85 -28 -157 -2 -88 -82
-164 -139 -133 -12 6 -40 14 -62 17 l-39 6 -11 63 c-7 35 -8 65 -4 68 5 3 30
11 56 19 37 11 49 12 56 2 8 -12 4 -62 -9 -104 -14 -49 89 -33 117 18 13 25
-2 67 -33 96 -41 37 -41 50 -4 97 69 84 97 186 62 225 -37 41 29 114 99 109
34 -2 40 0 43 18 5 35 -39 78 -81 78 -41 0 -71 -22 -96 -72 l-17 -33 -18 42
c-34 78 -125 87 -159 17 -22 -46 -13 -58 38 -51 40 5 47 2 74 -25 36 -36 38
-46 11 -69 -11 -10 -20 -29 -20 -44 0 -33 -52 -112 -96 -146 -19 -14 -36 -24
-39 -22 -2 2 -5 17 -7 33 -3 26 1 31 30 39 17 6 32 14 32 19 0 14 -65 37 -88
31 -16 -4 -22 -1 -22 10 0 9 5 19 11 23 7 4 9 20 6 39 -7 44 1 50 29 20 13
-14 30 -25 38 -25 20 0 46 39 46 67 0 26 -3 27 -29 11 -28 -17 -49 -3 -57 37
-8 42 10 92 36 100 38 12 42 29 30 127 -6 51 -17 99 -24 106 -11 12 -15 3 -25
-52 -6 -36 -16 -96 -22 -132 -8 -48 -14 -62 -20 -51 -5 8 -12 188 -15 399 -4
211 -10 401 -14 423 l-7 40 -7 -36z m-1 -574 c6 -280 5 -266 15 -235 5 15 6
-1 3 -40 -7 -78 -13 -91 -13 -27 0 46 -15 73 -22 40 -2 -10 -3 34 -2 97 1 94
0 103 -5 50 -6 -49 -8 -22 -9 110 -1 96 -4 234 -7 305 l-4 130 20 -105 c15
-79 21 -160 24 -325z m-1 -447 c-7 -59 -34 -75 -34 -20 0 29 3 34 11 22 8 -11
9 -2 5 36 -2 29 -2 55 2 59 12 12 23 -49 16 -97z m-355 -97 c22 -50 121 -152
168 -174 24 -11 32 -37 10 -37 -23 0 -121 68 -149 103 -38 48 -68 108 -68 134
0 37 15 27 39 -26z m651 27 c0 -78 -148 -238 -221 -238 -23 0 -5 29 30 48 58
33 138 119 157 169 18 46 34 56 34 21z m-379 -41 c-8 -8 -11 -3 -11 19 1 25 2
27 11 11 8 -14 8 -22 0 -30z m76 1 c-3 -7 -5 -2 -5 12 0 14 2 19 5 13 2 -7 2
-19 0 -25z m-58 -51 c0 -21 -1 -21 -9 -2 -12 28 -12 37 0 30 6 -3 10 -16 9
-28z m42 6 c-12 -20 -14 -14 -5 12 4 9 9 14 11 11 3 -2 0 -13 -6 -23z m-24
-30 c-3 -10 -5 -2 -5 17 0 19 2 27 5 18 2 -10 2 -26 0 -35z m-86 -35 c-9 -20
-10 -18 -10 17 0 31 2 36 9 23 6 -10 7 -25 1 -40z m179 20 c-1 -28 -2 -30 -11
-15 -6 10 -8 25 -5 33 9 24 16 16 16 -18z m-156 -75 c4 -34 3 -53 -4 -53 -6 0
-10 24 -10 57 0 68 5 66 14 -4z m127 -56 c-13 -13 -14 19 -3 78 l7 40 3 -54
c2 -30 -2 -59 -7 -64z m73 -170 c7 -37 10 -70 5 -72 -8 -5 -11 10 -24 105 -9
64 2 45 19 -33z m-217 21 c-3 -7 -5 -2 -5 12 0 14 2 19 5 13 2 -7 2 -19 0 -25z
m20 0 c-3 -8 -6 -5 -6 6 -1 11 2 17 5 13 3 -3 4 -12 1 -19z m140 0 c-3 -8 -6
-5 -6 6 -1 11 2 17 5 13 3 -3 4 -12 1 -19z m-20 -10 c-3 -8 -6 -5 -6 6 -1 11
2 17 5 13 3 -3 4 -12 1 -19z m-157 -104 c0 -2 -7 -4 -15 -4 -8 0 -15 4 -15 10
0 5 7 7 15 4 8 -4 15 -8 15 -10z m167 -21 c-3 -10 -5 -4 -5 12 0 17 2 24 5 18
2 -7 2 -21 0 -30z m53 27 c0 -5 -7 -10 -16 -10 -8 0 -12 5 -9 10 3 6 10 10 16
10 5 0 9 -4 9 -10z m-209 -231 c-9 -23 -10 -22 -10 11 -1 23 2 31 9 24 7 -7 7
-19 1 -35z m139 -21 c0 -17 3 -19 9 -9 14 21 23 -3 27 -72 3 -42 1 -55 -5 -42
-6 15 -8 7 -8 -30 2 -46 -62 -380 -70 -371 -2 1 1 111 6 243 6 133 8 264 4
293 l-6 53 21 -21 c12 -12 22 -32 22 -44z"/>
<path d="M1301 764 c0 -11 3 -14 6 -6 3 7 2 16 -1 19 -3 4 -6 -2 -5 -13z"/>
<path d="M1163 2550 c0 -30 2 -43 4 -27 2 15 2 39 0 55 -2 15 -4 2 -4 -28z"/>
<path d="M1347 528 c-3 -13 -2 -41 3 -63 7 -38 8 -37 9 23 1 64 -3 78 -12 40z"/>
</g>
</svg>
