<?xml version="1.0" standalone="no"?>
<!DOCTYPE svg PUBLIC "-//W3C//DTD SVG 20010904//EN"
 "http://www.w3.org/TR/2001/REC-SVG-20010904/DTD/svg10.dtd">
<svg version="1.0" xmlns="http://www.w3.org/2000/svg"
 width="244.000000pt" height="305.000000pt" viewBox="0 0 244.000000 305.000000"
 preserveAspectRatio="xMidYMid meet">
<metadata>
Created by potrace 1.16, written by Peter Selinger 2001-2019
</metadata>
<g transform="translate(0.000000,305.000000) scale(0.100000,-0.100000)"
fill="#000000" stroke="none">
<path d="M981 2898 c-13 -21 -30 -122 -51 -293 -30 -251 -41 -695 -18 -695 7
0 26 -13 43 -30 l31 -30 44 41 43 40 -7 233 c-7 253 -25 481 -51 646 -10 58
-18 106 -19 107 -1 1 -8 -8 -15 -19z m18 -770 c0 -129 -3 -209 -9 -213 -7 -4
-9 149 -8 452 2 420 2 438 8 213 4 -135 8 -338 9 -452z"/>
<path d="M1479 2891 c-9 -9 -19 -38 -22 -66 -4 -34 -3 -42 3 -25 l8 25 0 -25
c1 -47 -25 -176 -29 -150 -9 50 -31 -241 -36 -478 l-6 -243 39 -39 c21 -22 41
-40 44 -40 3 0 26 19 52 43 l47 43 -8 199 -8 200 -1 -199 c-1 -110 -5 -196 -9
-192 -5 4 -11 125 -14 269 -4 164 -15 329 -28 441 -16 137 -19 181 -10 187 9
5 10 16 3 37 -8 27 -10 28 -25 13z"/>
<path d="M1512 2790 c0 -19 2 -27 5 -17 2 9 2 25 0 35 -3 9 -5 1 -5 -18z"/>
<path d="M1442 2725 c0 -16 2 -22 5 -12 2 9 2 23 0 30 -3 6 -5 -1 -5 -18z"/>
<path d="M1522 2730 c-1 -14 5 -70 12 -125 10 -73 14 -87 14 -50 0 28 -5 84
-13 125 -7 41 -13 64 -13 50z"/>
<path d="M1227 2585 c-27 -95 -48 -284 -55 -515 l-7 -205 -17 119 c-10 65 -20
121 -23 124 -12 13 -19 -14 -29 -114 l-10 -105 28 -25 c24 -23 27 -32 24 -77
-3 -50 -4 -52 -30 -49 -24 2 -28 -1 -28 -23 0 -61 43 -86 73 -42 16 22 16 21
16 -19 1 -28 6 -44 16 -48 9 -3 23 -22 31 -41 8 -19 16 -35 19 -35 3 0 11 16
19 35 8 19 22 38 31 41 10 4 15 20 15 53 l1 46 15 -27 c27 -51 74 -27 74 37 0
24 -3 26 -30 20 l-30 -7 0 56 c0 47 4 59 27 80 26 24 26 26 20 113 -12 151
-29 176 -45 66 -6 -38 -14 -93 -19 -123 -7 -44 -10 -13 -16 160 -6 201 -33
441 -55 500 -8 23 -10 23 -15 5z"/>
<path d="M1553 2445 c0 -33 2 -45 4 -27 2 18 2 45 0 60 -2 15 -4 0 -4 -33z"/>
<path d="M855 1845 c-16 -15 -25 -36 -25 -55 0 -28 2 -30 39 -30 32 0 43 -5
60 -29 23 -31 28 -71 10 -71 -8 0 -10 -21 -7 -64 3 -50 13 -82 42 -140 l38
-75 -22 -31 c-12 -17 -25 -52 -30 -78 -8 -47 -11 -40 -14 33 -6 132 -6 134
-25 145 -29 15 -69 -7 -80 -44 -8 -28 -9 -29 -10 -6 0 14 6 36 14 50 32 56 11
92 -52 92 -58 0 -73 -26 -74 -131 l-2 -86 -8 68 c-11 98 -21 96 -18 -3 2 -83
2 -85 -23 -90 -15 -3 -50 -34 -89 -80 -35 -41 -66 -77 -69 -80 -3 -3 -23 -27
-45 -55 -21 -27 -52 -63 -67 -79 -31 -33 -35 -46 -14 -46 8 0 16 -6 18 -12 4
-10 11 -9 29 3 13 8 44 23 69 33 25 10 93 40 153 68 91 44 107 55 107 75 0 29
5 29 51 -3 37 -25 55 -57 61 -104 2 -18 -4 -28 -24 -37 -15 -8 -29 -21 -32
-31 -3 -9 -30 -123 -61 -252 -31 -129 -61 -247 -65 -262 -11 -34 2 -36 23 -6
15 22 16 22 7 -9 -5 -18 -6 -33 -2 -33 7 0 19 17 92 135 25 39 72 114 107 167
35 54 63 100 63 104 0 4 7 15 16 25 13 14 13 24 4 58 -6 23 -8 46 -4 52 11 18
122 4 146 -18 36 -33 39 -47 12 -84 l-24 -35 14 -94 c8 -52 22 -142 31 -200 9
-58 23 -148 31 -200 8 -52 17 -111 21 -130 l6 -35 8 30 c4 17 20 107 34 200
14 94 35 228 46 298 l20 129 -26 34 c-25 33 -26 35 -9 63 22 38 53 51 116 51
l51 0 -7 -49 c-6 -46 -3 -55 32 -113 21 -35 60 -94 85 -131 26 -38 47 -70 47
-73 0 -8 100 -154 106 -154 3 0 2 9 -1 20 -10 31 2 24 30 -17 36 -54 36 -54
-39 267 -60 253 -65 269 -97 286 -18 9 -29 23 -29 35 0 31 36 94 64 112 32 21
36 21 36 0 1 -13 46 -38 171 -95 101 -46 168 -71 165 -62 -7 18 -7 18 48 -6
25 -10 46 -16 46 -12 0 4 -66 84 -146 177 -119 139 -150 170 -170 168 -24 -2
-24 -1 -25 95 -1 79 -3 89 -10 57 -4 -22 -8 -61 -8 -86 -1 -27 -7 -51 -15 -58
-25 -21 -28 6 -10 98 16 84 16 91 0 115 -14 22 -24 26 -64 26 -64 0 -87 -17
-79 -59 6 -29 5 -31 -21 -29 -39 3 -50 -7 -57 -50 -15 -92 -21 -98 -50 -43
-13 27 -12 33 26 107 48 95 60 165 34 194 -15 17 -16 24 -5 49 16 41 30 50 73
53 44 4 55 24 33 66 -19 36 -38 44 -83 36 -24 -4 -41 -16 -52 -35 l-18 -29
-11 25 c-14 31 -52 50 -85 42 -26 -7 -47 -44 -47 -82 0 -22 4 -25 40 -25 34 0
42 -4 55 -31 14 -26 14 -33 2 -52 -7 -12 -16 -39 -20 -59 -9 -56 -32 -99 -86
-156 l-48 -51 7 38 c9 50 16 61 56 77 30 13 33 17 24 34 -14 26 -56 36 -77 19
-9 -8 -26 -36 -39 -63 l-22 -48 -11 37 c-12 44 -47 85 -72 85 -23 0 -64 -34
-56 -47 4 -6 20 -13 36 -16 21 -5 32 -15 40 -39 16 -46 27 -188 14 -188 -6 0
-8 11 -5 25 3 20 -1 27 -23 35 -65 25 -129 102 -149 180 -4 17 1 12 14 -13 29
-52 125 -150 142 -145 23 9 10 46 -31 88 -47 49 -81 114 -81 157 0 17 -7 36
-15 43 -37 31 1 90 59 90 32 0 36 3 36 25 0 88 -86 115 -131 42 -10 -18 -19
-27 -19 -21 0 6 -11 23 -25 38 -30 33 -68 34 -100 1z m581 -370 c-33 -56 -71
-93 -115 -112 -27 -12 -32 -18 -28 -39 2 -13 0 -24 -4 -24 -5 0 -9 23 -9 52 0
40 3 49 12 40 7 -7 16 -12 20 -12 15 0 97 81 119 117 32 51 36 31 5 -22z
m-689 -172 c-3 -10 -5 -2 -5 17 0 19 2 27 5 18 2 -10 2 -26 0 -35z m366 6 c34
-12 37 -16 37 -51 0 -26 4 -38 14 -38 19 0 37 -25 31 -41 -3 -8 -15 -19 -27
-24 -12 -6 -25 -21 -29 -35 -5 -21 -7 -19 -10 15 -3 33 -8 41 -27 43 -13 2
-34 -4 -47 -12 -35 -23 -51 -20 -75 15 -25 35 -19 51 9 25 11 -10 30 -16 43
-14 22 3 23 6 19 72 -3 55 -1 68 10 64 8 -3 31 -11 52 -19z m302 -50 l0 -64
38 1 c42 1 46 -5 18 -30 -17 -16 -21 -16 -54 0 -45 22 -91 13 -82 -16 6 -19 5
-19 -24 -2 -37 20 -43 61 -11 69 16 4 20 14 20 43 0 34 3 39 30 45 16 4 32 11
36 16 16 26 29 -2 29 -62z m-546 -4 c0 -5 -6 1 -14 15 -8 14 -14 30 -14 35 0
6 6 -1 14 -15 8 -14 14 -29 14 -35z m1072 -107 c57 -68 111 -132 119 -143 15
-19 15 -19 -15 -1 -44 27 -80 63 -144 141 -80 97 -97 125 -79 125 8 0 62 -55
119 -122z m-1206 82 c-9 -16 -20 -30 -25 -30 -4 0 -10 -6 -12 -14 -6 -28 -190
-168 -203 -155 -7 8 50 65 140 139 50 41 92 78 93 83 2 4 8 7 13 7 5 0 3 -13
-6 -30z m1015 -96 c0 -8 -7 -14 -15 -14 -15 0 -21 21 -9 33 10 9 24 -2 24 -19z
m-815 -214 c-43 -118 -120 -295 -143 -330 l-24 -35 7 30 c7 34 65 180 118 299
20 43 39 106 43 140 l8 61 7 -50 c7 -41 4 -62 -16 -115z m266 108 c7 -48 24
-88 38 -88 11 0 31 70 31 109 0 17 4 31 9 31 4 0 6 -24 3 -52 -5 -56 -37 -122
-54 -112 -16 10 -38 71 -38 107 0 18 -6 39 -12 46 -11 11 -10 13 2 9 9 -3 18
-23 21 -50z m499 -308 c28 -113 53 -214 56 -225 2 -11 -4 -4 -15 15 -22 38
-46 112 -61 187 -5 27 -19 88 -30 137 -23 102 -24 114 -11 101 6 -6 33 -102
61 -215z m-12 -195 c-3 -3 -9 2 -12 12 -6 14 -5 15 5 6 7 -7 10 -15 7 -18z"/>
</g>
</svg>
