<?xml version="1.0" standalone="no"?>
<!DOCTYPE svg PUBLIC "-//W3C//DTD SVG 20010904//EN"
 "http://www.w3.org/TR/2001/REC-SVG-20010904/DTD/svg10.dtd">
<svg version="1.0" xmlns="http://www.w3.org/2000/svg"
 width="244.000000pt" height="305.000000pt" viewBox="0 0 244.000000 305.000000"
 preserveAspectRatio="xMidYMid meet">
<metadata>
Created by potrace 1.16, written by Peter Selinger 2001-2019
</metadata>
<g transform="translate(0.000000,305.000000) scale(0.100000,-0.100000)"
fill="#000000" stroke="none">
<path d="M888 2885 c-4 -16 -2 -35 3 -42 10 -12 7 -928 -3 -938 -3 -3 -24 7
-48 22 l-42 28 6 195 c7 191 22 355 51 535 20 123 17 139 -6 30 -33 -154 -49
-321 -56 -561 l-6 -232 36 -17 c21 -9 37 -21 37 -25 0 -24 41 -18 89 12 l52
33 -5 205 c-3 113 -11 255 -16 315 -12 119 -51 352 -73 425 -13 45 -13 45 -19
15z"/>
<path d="M1566 2894 c-3 -8 -1 -24 4 -34 6 -12 10 -196 10 -489 0 -393 -2
-471 -14 -471 -7 0 -20 7 -27 16 -7 9 -24 20 -37 25 l-25 10 7 192 c9 241 35
485 71 667 4 18 3 21 -4 10 -10 -17 -46 -223 -61 -355 -6 -49 -13 -192 -17
-317 l-6 -227 27 -11 c15 -5 39 -21 53 -35 l27 -25 26 25 c14 13 37 28 53 34
l27 11 0 122 c-1 264 -32 564 -80 776 -12 50 -23 92 -25 92 -1 0 -6 -7 -9 -16z"/>
<path d="M1217 2549 c-40 -138 -67 -366 -67 -566 0 -147 -19 -162 -35 -28 -10
84 -27 146 -38 142 -13 -4 -36 -109 -37 -166 0 -27 8 -41 40 -71 38 -35 40
-40 35 -80 -3 -24 -8 -47 -11 -51 -8 -13 -38 -11 -52 3 -20 20 -35 -4 -22 -38
20 -50 49 -57 82 -19 31 35 39 31 32 -15 -6 -38 -5 -41 23 -50 19 -7 36 -24
47 -47 l18 -37 20 36 c12 20 31 41 44 47 20 9 24 18 24 58 l0 47 29 -32 c17
-17 37 -32 45 -32 20 0 46 39 46 68 0 19 -4 23 -17 17 -41 -18 -58 -11 -67 26
-13 53 -1 84 40 108 l36 22 -6 57 c-10 88 -27 162 -36 162 -7 0 -27 -95 -46
-217 -12 -81 -21 -42 -27 125 -8 211 -22 340 -48 462 -29 128 -33 135 -52 69z
m22 -526 c0 -246 -4 -423 -9 -423 -5 0 -12 5 -15 11 -4 5 -18 14 -31 19 -24 9
-24 11 -24 142 0 231 22 504 57 728 l7 45 7 -50 c4 -27 8 -240 8 -472z"/>
<path d="M752 1863 c-28 -5 -55 -44 -50 -75 3 -20 8 -22 46 -20 37 3 47 -1 77
-31 40 -40 44 -62 14 -78 -18 -9 -21 -18 -17 -52 7 -54 40 -124 85 -176 34
-40 34 -42 19 -66 -9 -14 -20 -25 -24 -25 -12 0 -42 -56 -42 -77 0 -46 92 -91
120 -59 10 13 10 22 1 42 -15 33 -14 69 2 83 10 8 29 5 75 -12 48 -17 66 -19
79 -11 30 19 20 34 -38 58 -70 28 -110 56 -147 104 -43 54 -64 100 -60 130 3
25 5 23 30 -23 29 -55 94 -126 148 -160 95 -59 112 -21 21 49 -67 52 -121 126
-121 167 0 18 -7 32 -20 39 -26 14 -19 45 17 78 20 18 35 23 67 20 46 -3 51 1
43 42 -7 34 -36 52 -83 52 -42 0 -62 -16 -82 -62 -13 -32 -15 -33 -26 -16 -36
62 -81 88 -134 79z"/>
<path d="M1435 1860 c-29 -11 -43 -31 -47 -65 -3 -30 -3 -30 44 -27 40 3 51 0
73 -22 27 -27 33 -71 11 -79 -7 -3 -16 -23 -19 -44 -8 -49 -56 -112 -124 -164
-32 -24 -53 -47 -53 -59 0 -17 4 -18 25 -10 79 30 182 127 206 193 7 20 17 37
22 37 19 0 -5 -77 -39 -127 -43 -63 -89 -99 -163 -129 -57 -23 -68 -39 -40
-57 11 -7 34 -4 80 11 54 17 66 18 78 6 13 -12 13 -21 2 -65 -14 -54 -8 -69
29 -69 24 0 78 37 85 59 7 22 -14 69 -40 91 -37 31 -37 47 1 97 20 26 45 66
55 88 23 50 25 130 4 139 -24 9 -17 36 20 73 30 30 40 34 77 31 35 -2 43 1 46
16 6 28 -17 63 -49 76 -47 20 -95 -2 -123 -58 l-24 -47 -18 44 c-12 32 -26 47
-50 57 -38 16 -41 16 -69 4z"/>
<path d="M1083 1575 c-42 -18 -42 -32 1 -41 19 -3 44 -16 55 -28 22 -23 41
-102 41 -166 0 -33 -4 -39 -31 -49 -25 -9 -30 -15 -27 -38 2 -22 9 -29 31 -31
23 -3 27 -8 27 -33 0 -25 -5 -30 -30 -35 -54 -11 -63 -49 -17 -73 21 -10 20
-10 -8 -8 -28 2 -30 5 -33 47 -2 24 -8 48 -15 52 -14 9 -63 0 -105 -20 -42
-19 -69 -8 -108 44 -22 29 -29 50 -31 88 -1 28 -5 75 -9 104 -6 45 -11 55 -32
63 -48 18 -99 -37 -88 -95 3 -17 39 -86 78 -151 103 -169 102 -170 -27 -385
-55 -91 -105 -174 -111 -185 -49 -91 -78 -137 -81 -128 -2 6 27 104 65 219
l68 209 46 13 c53 15 68 42 68 123 0 41 -7 57 -45 111 -25 35 -57 80 -71 100
-15 21 -29 57 -31 82 -5 38 -1 51 27 92 l33 47 -23 19 c-31 25 -111 25 -133 0
-22 -25 -21 -55 4 -130 24 -70 20 -115 -11 -155 -17 -22 -274 -175 -370 -221
-39 -19 -44 -24 164 168 l96 89 46 -7 46 -6 -7 98 c-9 129 -29 151 -22 24 l5
-92 -34 6 c-32 6 -41 -1 -224 -166 -105 -95 -188 -175 -186 -177 5 -5 25 1
324 98 148 48 162 55 162 76 0 34 22 38 77 13 59 -26 91 -55 110 -98 17 -40 7
-57 -36 -65 -24 -5 -31 -14 -50 -74 -12 -37 -52 -165 -90 -283 -38 -118 -67
-217 -64 -220 2 -2 19 12 36 32 37 41 199 218 300 327 73 78 74 80 51 159 -6
22 -5 22 88 22 82 0 100 -3 128 -22 56 -39 59 -53 21 -92 l-33 -34 17 -88 c9
-49 22 -114 30 -144 7 -30 16 -68 18 -85 14 -88 74 -348 76 -329 1 6 15 76 31
155 106 506 101 480 84 506 -8 13 -22 27 -30 30 -33 12 -4 62 53 92 26 13 189
15 197 2 3 -5 0 -27 -8 -48 l-14 -40 135 -149 c249 -275 268 -294 271 -285 3
9 -154 513 -169 543 -5 9 -25 22 -44 28 -42 14 -44 29 -10 86 26 45 89 83 142
87 23 2 28 -2 31 -24 3 -26 13 -30 210 -94 114 -36 219 -71 234 -77 67 -25 38
9 -143 171 -180 159 -196 172 -226 167 l-32 -5 6 90 c4 64 3 89 -6 89 -6 0
-11 -16 -11 -37 0 -21 -7 -65 -15 -98 -8 -33 -14 -67 -15 -76 0 -15 40 -42
298 -197 51 -31 89 -58 84 -60 -6 -2 -89 25 -186 59 -179 63 -191 70 -166 109
7 11 2 21 -22 41 -42 35 -49 107 -19 193 26 74 26 91 1 116 -27 27 -99 27
-131 1 l-23 -18 32 -48 c18 -27 32 -55 32 -62 0 -46 -27 -107 -72 -162 -58
-72 -87 -132 -95 -199 -6 -56 3 -78 159 -350 54 -96 97 -176 94 -179 -2 -2
-72 74 -155 169 -142 161 -151 175 -145 203 4 17 8 55 9 85 1 30 2 69 3 86 1
18 33 83 78 158 84 139 96 185 60 225 -21 23 -68 28 -83 9 -13 -16 -25 -87
-27 -154 -1 -56 -32 -108 -80 -133 -23 -13 -31 -13 -61 2 -20 9 -54 17 -75 17
-40 0 -40 0 -40 -39 0 -40 -11 -56 -45 -63 -15 -2 -23 -16 -30 -51 -6 -28 -22
-59 -39 -77 l-28 -31 0 -257 c1 -141 -2 -279 -6 -307 l-8 -50 -12 65 c-11 54
-71 335 -87 405 -3 14 8 33 34 60 59 62 62 73 37 114 -28 43 -44 160 -20 140
8 -6 14 -23 14 -36 0 -26 26 -90 41 -98 13 -9 39 38 47 85 7 40 10 44 47 54
40 12 50 29 32 54 -5 6 -18 12 -28 12 -25 0 -52 40 -38 56 6 7 20 14 32 16 14
2 23 11 25 26 4 24 -15 55 -27 48 -4 -3 -13 -1 -21 4 -11 7 -11 22 -2 92 14
95 34 129 81 139 41 8 47 15 31 34 -7 9 -29 15 -51 15 -31 0 -45 -7 -69 -32
-17 -17 -33 -42 -36 -54 -7 -26 -30 -22 -39 7 -9 27 -56 76 -80 82 -11 3 -35
0 -52 -8z"/>
</g>
</svg>
