<?xml version="1.0" standalone="no"?>
<!DOCTYPE svg PUBLIC "-//W3C//DTD SVG 20010904//EN"
 "http://www.w3.org/TR/2001/REC-SVG-20010904/DTD/svg10.dtd">
<svg version="1.0" xmlns="http://www.w3.org/2000/svg"
 width="244.000000pt" height="305.000000pt" viewBox="0 0 244.000000 305.000000"
 preserveAspectRatio="xMidYMid meet">
<metadata>
Created by potrace 1.16, written by Peter Selinger 2001-2019
</metadata>
<g transform="translate(0.000000,305.000000) scale(0.100000,-0.100000)"
fill="#000000" stroke="none">
<path d="M891 2853 c-26 -123 -42 -223 -57 -338 -19 -152 -31 -595 -16 -595 5
0 29 -16 53 -35 l42 -36 31 29 c17 16 39 32 49 35 15 6 17 21 17 124 0 242
-28 570 -62 721 -18 83 -21 53 -4 -49 24 -144 44 -364 52 -570 l7 -186 -39
-24 c-22 -13 -43 -25 -47 -27 -4 -2 -7 224 -5 502 2 278 0 506 -3 506 -3 0
-12 -26 -18 -57z"/>
<path d="M1550 2895 c0 -3 -11 -60 -24 -128 -38 -190 -57 -372 -63 -619 l-6
-227 24 -10 c13 -5 33 -18 43 -30 26 -28 42 -27 83 9 18 17 38 30 43 30 21 0
3 477 -25 660 -23 159 -37 232 -42 227 -2 -3 5 -65 16 -138 11 -74 24 -183 30
-244 14 -157 24 -458 14 -470 -10 -12 -70 -55 -78 -55 -3 0 -5 217 -4 483 1
294 4 472 10 457 7 -21 8 -20 4 9 -3 18 -5 37 -5 42 0 5 -4 9 -10 9 -5 0 -10
-2 -10 -5z"/>
<path d="M1151 2874 c0 -11 3 -14 6 -6 3 7 2 16 -1 19 -3 4 -6 -2 -5 -13z"/>
<path d="M1307 2744 c-4 -76 -7 -189 -7 -253 -1 -130 -8 -129 -35 4 -10 50
-21 93 -24 98 -4 4 -17 -34 -30 -85 -13 -51 -26 -100 -29 -108 -4 -8 -11 -105
-18 -215 l-11 -200 -3 395 c-3 323 -5 367 -10 240 -4 -85 -8 -276 -10 -425
l-2 -270 -17 90 c-9 50 -20 90 -26 90 -11 0 -32 -108 -34 -175 -1 -40 3 -47
28 -61 25 -15 29 -24 33 -70 5 -65 -10 -91 -42 -71 -26 16 -40 15 -40 -3 0
-22 21 -63 35 -69 22 -8 52 5 63 27 9 18 11 10 11 -42 1 -59 0 -63 -19 -58
-13 3 -31 -3 -48 -19 -23 -19 -24 -23 -9 -24 13 0 17 -6 15 -22 -2 -13 -7 -23
-13 -22 -20 1 -75 86 -81 125 -4 21 -13 44 -20 50 -21 18 -17 47 12 76 22 22
31 25 71 19 l46 -6 -6 36 c-14 87 -121 96 -155 14 -9 -22 -19 -40 -22 -40 -3
0 -14 17 -25 37 -34 65 -99 79 -146 32 -13 -13 -19 -30 -17 -47 3 -25 6 -26
45 -24 37 3 46 -1 73 -29 32 -36 39 -73 15 -83 -35 -13 -11 -110 50 -202 25
-37 45 -68 45 -70 0 -2 -16 -24 -35 -50 -46 -60 -47 -97 -2 -124 35 -22 54
-24 76 -11 11 7 11 17 0 60 -11 45 -11 53 3 67 14 15 19 14 52 -1 26 -12 36
-23 35 -39 -1 -17 -2 -18 -6 -3 -8 32 -26 12 -43 -47 -16 -58 -47 -96 -77 -96
-9 0 -36 20 -60 44 -39 40 -44 49 -43 88 1 50 -13 148 -24 166 -11 19 -61 14
-80 -7 -32 -35 -22 -101 27 -178 82 -130 101 -176 103 -254 2 -41 6 -93 10
-115 5 -37 2 -44 -42 -99 -123 -153 -237 -286 -241 -281 -3 2 18 45 45 94 106
188 202 383 202 410 0 56 -31 133 -82 199 -86 115 -98 172 -52 251 l27 45 -23
19 c-31 25 -101 24 -125 -2 -20 -22 -18 -52 10 -150 21 -76 12 -133 -27 -163
-27 -22 -28 -26 -17 -50 7 -15 10 -29 8 -31 -9 -8 -361 -137 -365 -134 -2 2
84 60 191 129 119 76 195 130 195 140 0 9 -7 38 -15 65 -8 27 -15 70 -15 96 0
26 -5 50 -11 54 -8 5 -10 -20 -7 -90 l4 -96 -32 6 c-29 5 -42 -4 -222 -173
-104 -98 -187 -179 -183 -181 4 -1 112 34 240 78 128 44 235 80 237 80 2 0 4
11 4 24 0 33 10 37 53 24 49 -15 106 -64 124 -105 16 -40 12 -49 -31 -67 -31
-13 -34 -19 -95 -222 -34 -115 -66 -218 -71 -229 -13 -30 -40 -129 -36 -133 4
-4 113 117 279 310 l117 137 -12 45 c-7 25 -9 48 -6 51 6 6 133 8 160 2 10 -2
20 -6 23 -9 3 -3 -1 -90 -10 -194 -8 -104 -15 -207 -14 -229 1 -38 1 -39 9
-11 5 16 7 43 4 60 -3 18 -2 26 3 20 4 -7 9 23 10 69 1 45 7 85 14 91 12 11
11 -9 -5 -104 l-6 -35 12 39 13 39 17 -84 c36 -172 77 -375 84 -412 3 -21 8
-37 9 -35 2 2 27 121 56 265 29 145 54 261 56 259 2 -2 16 -61 32 -132 26
-115 29 -123 30 -77 1 28 -4 55 -10 58 -6 4 -8 29 -5 63 3 34 2 45 -2 27 -6
-24 -10 -11 -19 65 -6 52 -12 102 -12 110 0 8 -4 33 -10 55 -6 22 -11 48 -11
57 0 35 66 53 179 49 l43 -1 -6 -36 c-4 -19 -9 -41 -12 -48 -5 -12 92 -131
286 -349 52 -58 96 -105 98 -103 1 2 -6 32 -17 67 -11 35 -48 160 -83 278
l-63 214 -38 16 c-35 13 -38 17 -33 44 9 45 44 85 97 112 62 32 79 32 79 1 0
-14 4 -28 10 -31 19 -12 452 -156 457 -152 2 3 -78 82 -177 177 -172 164 -182
172 -213 166 l-32 -6 2 98 c2 115 -13 77 -18 -47 l-4 -76 45 3 45 3 140 -136
c130 -126 136 -134 90 -111 -27 14 -113 63 -189 109 -106 64 -144 92 -158 118
-21 40 -22 89 -3 144 19 53 19 110 -1 129 -20 20 -83 21 -112 0 -28 -19 -28
-27 3 -72 47 -69 31 -130 -65 -257 -46 -60 -50 -71 -50 -120 0 -78 12 -102 64
-125 l45 -19 46 -148 c25 -81 55 -175 66 -207 32 -99 22 -96 -37 9 -31 55 -92
164 -136 243 -44 79 -85 163 -90 187 -9 41 -7 51 27 117 21 40 46 85 56 100
31 43 59 111 59 144 0 40 -32 74 -70 74 -23 0 -31 -5 -34 -22 -14 -70 -19
-107 -17 -145 1 -33 -6 -50 -31 -84 -18 -23 -41 -47 -51 -53 -25 -16 -67 11
-84 54 l-13 35 6 -32 c3 -20 1 -33 -5 -33 -19 0 -39 44 -45 95 -4 32 -3 41 3
25 4 -14 13 -24 19 -23 7 2 12 -5 12 -14 0 -9 2 -14 5 -11 10 10 -7 58 -17 52
-6 -4 -8 2 -6 12 2 11 15 21 35 25 27 5 32 3 36 -18 2 -14 1 -41 -4 -61 -11
-52 3 -64 63 -53 17 3 48 47 48 67 0 12 -16 43 -35 68 -19 26 -35 49 -35 52 0
3 14 24 31 46 37 46 78 141 79 180 0 15 -7 33 -15 42 -24 23 -18 49 19 85 30
29 40 33 70 28 25 -4 36 -2 40 10 9 23 -16 66 -47 81 -24 12 -33 11 -65 -5
-23 -11 -42 -30 -51 -50 -8 -18 -17 -33 -21 -33 -3 0 -12 16 -19 36 -14 39
-65 69 -98 57 -34 -12 -63 -46 -63 -75 0 -27 1 -27 43 -22 36 5 46 2 70 -20
30 -28 35 -57 12 -76 -8 -7 -15 -22 -15 -33 0 -30 -36 -100 -66 -128 l-27 -24
5 35 c5 36 -9 60 -37 60 -19 0 -35 39 -35 85 l0 34 25 -24 c33 -34 53 -31 71
10 18 44 11 58 -22 43 -20 -9 -28 -8 -42 5 -14 15 -15 21 -4 38 8 12 11 33 7
49 -5 24 -2 31 24 46 23 13 31 26 31 46 0 45 -22 182 -30 192 -9 9 -24 -42
-35 -116 -3 -27 -10 -48 -15 -48 -5 0 -7 -13 -4 -29 3 -16 1 -37 -4 -48 -8
-13 -11 130 -11 495 1 283 -1 516 -4 518 -2 2 -7 -57 -10 -132z m-29 -444 c16
-153 18 -419 4 -453 -16 -39 -15 -74 3 -81 11 -4 15 -22 15 -70 0 -55 -3 -64
-20 -69 -16 -4 -20 0 -20 21 0 21 2 24 10 12 8 -13 10 -13 10 1 0 9 3 32 6 50
4 24 3 30 -4 20 -14 -20 -27 48 -17 92 4 17 8 88 10 157 2 89 0 107 -5 60 -3
-36 -8 -60 -10 -55 -3 6 -7 -73 -10 -175 -4 -123 -6 -34 -6 263 0 373 2 439
12 390 6 -32 17 -105 22 -163z m-129 -440 c0 -10 -3 -8 -9 5 -12 27 -12 43 0
25 5 -8 9 -22 9 -30z m-211 -286 c13 -25 45 -70 72 -98 75 -79 66 -122 -9 -47
-46 46 -86 113 -96 159 -10 46 7 39 33 -14z m632 37 c0 -52 -84 -182 -139
-214 -29 -17 -31 -17 -31 -1 0 9 25 43 55 75 31 32 65 79 76 104 18 40 39 60
39 36z m-378 -43 c-5 -21 -6 -21 -13 -2 -13 33 -11 48 5 35 8 -7 12 -21 8 -33z
m107 30 c0 -7 -4 -22 -8 -33 -8 -19 -8 -19 -15 2 -8 24 -1 43 15 43 5 0 9 -6
8 -12z m18 -10 c-3 -8 -6 -5 -6 6 -1 11 2 17 5 13 3 -3 4 -12 1 -19z m-161
-165 c5 -53 3 -73 -5 -73 -8 0 -10 11 -6 34 6 27 2 39 -14 55 -14 14 -21 34
-21 58 0 37 0 37 19 18 14 -14 22 -41 27 -92z m81 60 c-3 -10 -5 -2 -5 17 0
19 2 27 5 18 2 -10 2 -26 0 -35z m127 -25 c-3 -5 -11 -8 -19 -8 -16 0 -27 -42
-19 -75 4 -15 2 -25 -5 -25 -22 0 -4 137 22 168 10 12 13 9 19 -19 3 -18 4
-37 2 -41z m-287 -70 c-3 -8 -6 -5 -6 6 -1 11 2 17 5 13 3 -3 4 -12 1 -19z
m30 -10 c-3 -8 -6 -5 -6 6 -1 11 2 17 5 13 3 -3 4 -12 1 -19z m190 -70 c-3 -8
-6 -5 -6 6 -1 11 2 17 5 13 3 -3 4 -12 1 -19z m-177 -52 c0 -26 -6 -18 -14 19
-5 22 -4 26 4 15 5 -8 10 -24 10 -34z m244 0 c-3 -21 -9 -35 -11 -32 -3 3 -2
21 1 42 4 20 10 34 12 31 3 -3 2 -21 -2 -41z m-289 -40 c-4 -20 -12 -36 -17
-36 -6 0 -7 8 -3 18 4 9 10 27 13 40 8 37 14 17 7 -22z m52 -28 c-3 -7 -5 -2
-5 12 0 14 2 19 5 13 2 -7 2 -19 0 -25z m63 1 c0 -9 -30 -33 -34 -28 -2 2 -6
16 -10 31 -6 25 -5 26 19 15 14 -7 25 -15 25 -18z m133 -1 c-6 -31 -27 -37
-37 -12 -11 27 -7 37 9 24 12 -10 16 -9 21 4 9 24 13 15 7 -16z m24 -20 c-3
-7 -5 -2 -5 12 0 14 2 19 5 13 2 -7 2 -19 0 -25z m-237 -78 c0 -13 -1 -13 -10
0 -5 8 -10 22 -10 30 0 13 1 13 10 0 5 -8 10 -22 10 -30z m261 3 c-12 -20 -14
-14 -5 12 4 9 9 14 11 11 3 -2 0 -13 -6 -23z m-134 -175 c-3 -8 -6 -5 -6 6 -1
11 2 17 5 13 3 -3 4 -12 1 -19z m-87 -47 c0 -16 -7 -34 -15 -41 -12 -10 -15
-9 -15 6 0 30 12 64 21 64 5 0 9 -13 9 -29z m176 -97 c4 -30 -5 -98 -32 -236
l-39 -193 -6 65 c-9 87 -11 434 -3 455 12 29 72 -40 80 -91z"/>
<path d="M1263 765 c0 -22 2 -30 4 -17 2 12 2 30 0 40 -3 9 -5 -1 -4 -23z"/>
<path d="M1253 590 c0 -36 2 -50 4 -32 2 17 2 47 0 65 -2 17 -4 3 -4 -33z"/>
<path d="M1163 2655 c0 -22 2 -30 4 -17 2 12 2 30 0 40 -3 9 -5 -1 -4 -23z"/>
<path d="M1333 2520 c0 -36 2 -50 4 -32 2 17 2 47 0 65 -2 17 -4 3 -4 -33z"/>
<path d="M1373 865 c0 -22 2 -30 4 -17 2 12 2 30 0 40 -3 9 -5 -1 -4 -23z"/>
<path d="M1382 730 c0 -19 2 -27 5 -17 2 9 2 25 0 35 -3 9 -5 1 -5 -18z"/>
<path d="M1062 440 c0 -14 2 -19 5 -12 2 6 2 18 0 25 -3 6 -5 1 -5 -13z"/>
</g>
</svg>
