<?xml version="1.0" standalone="no"?>
<!DOCTYPE svg PUBLIC "-//W3C//DTD SVG 20010904//EN"
 "http://www.w3.org/TR/2001/REC-SVG-20010904/DTD/svg10.dtd">
<svg version="1.0" xmlns="http://www.w3.org/2000/svg"
 width="244.000000pt" height="305.000000pt" viewBox="0 0 244.000000 305.000000"
 preserveAspectRatio="xMidYMid meet">
<metadata>
Created by potrace 1.16, written by Peter Selinger 2001-2019
</metadata>
<g transform="translate(0.000000,305.000000) scale(0.100000,-0.100000)"
fill="#000000" stroke="none">
<path d="M871 2819 c-49 -223 -67 -378 -77 -686 l-7 -212 29 -11 c16 -6 41
-23 55 -36 l27 -25 27 26 c16 14 40 28 53 32 l25 6 -6 236 c-3 130 -13 291
-22 359 -19 151 -53 333 -66 348 -5 6 -6 13 -3 17 3 3 1 13 -4 23 -7 13 -14
-4 -31 -77z m59 -98 c31 -183 49 -374 56 -581 l5 -185 -40 -27 c-23 -16 -45
-28 -49 -28 -8 0 -15 927 -6 941 3 6 8 9 9 7 2 -2 13 -59 25 -127z"/>
<path d="M1558 2853 c-46 -157 -77 -415 -84 -703 l-6 -225 38 -23 c22 -12 46
-27 55 -34 14 -9 23 -7 48 15 17 14 41 29 52 32 22 7 22 8 15 229 -4 121 -11
262 -17 311 -12 115 -50 338 -59 348 -4 4 4 -54 16 -130 25 -156 40 -325 49
-554 l7 -157 -45 -31 c-25 -17 -48 -31 -51 -31 -11 0 -7 948 4 952 6 2 7 15 2
31 -7 26 -8 24 -24 -30z"/>
<path d="M1242 2664 c-1 -33 -5 -64 -9 -68 -4 -3 -8 -12 -9 -19 -1 -7 -7 -30
-13 -52 -35 -131 -60 -373 -61 -590 0 -115 -14 -102 -36 37 -26 158 -38 168
-60 46 -20 -114 -19 -125 21 -150 40 -27 52 -63 35 -113 -11 -35 -41 -48 -55
-25 -12 19 -25 10 -25 -18 0 -31 27 -62 53 -62 9 0 24 11 33 25 19 29 36 33
33 8 -4 -45 2 -64 25 -74 26 -12 48 -51 40 -72 -4 -11 -13 -7 -34 13 -35 32
-71 42 -101 26 -33 -17 -34 -34 -2 -41 15 -4 35 -10 43 -14 26 -13 48 -73 56
-147 l6 -71 -32 -11 c-26 -10 -31 -16 -28 -39 2 -19 10 -29 28 -33 44 -10 35
-65 -12 -72 -12 -2 -26 -11 -32 -21 -9 -15 -7 -21 8 -33 11 -8 30 -14 41 -14
17 0 25 -9 34 -42 20 -69 33 -98 45 -98 15 0 36 46 43 98 5 37 9 42 32 42 37
0 53 14 49 41 -2 16 -12 25 -34 31 -18 4 -35 15 -38 24 -8 21 11 44 35 44 38
0 34 66 -4 72 -20 3 -22 8 -21 76 2 91 26 150 63 158 70 16 76 22 37 44 -41
21 -77 15 -107 -18 -21 -23 -29 -27 -33 -16 -9 24 15 62 46 73 28 10 29 13 23
51 -7 43 6 55 25 21 23 -43 73 -37 89 12 14 37 2 54 -26 36 -30 -18 -51 -5
-59 36 -8 46 9 86 47 107 l31 18 -7 67 c-8 83 -23 143 -35 143 -9 0 -20 -49
-40 -178 -7 -39 -16 -70 -20 -67 -5 3 -9 54 -9 113 -2 162 -27 417 -52 517 -7
28 -15 93 -19 145 -6 79 -7 85 -8 34z m7 -484 c3 292 5 301 30 145 12 -71 30
-426 31 -590 0 -89 0 -90 -29 -106 l-29 -17 -7 42 c-4 22 -8 228 -9 456 -2
402 -1 405 4 95 l5 -320 4 295z m-12 -567 c-3 -10 -5 -4 -5 12 0 17 2 24 5 18
2 -7 2 -21 0 -30z m13 -94 c0 -24 -11 -49 -21 -49 -5 0 -9 15 -9 33 0 23 5 34
15 34 8 0 15 -8 15 -18z"/>
<path d="M1243 1800 c0 -30 2 -43 4 -27 2 15 2 39 0 55 -2 15 -4 2 -4 -28z"/>
<path d="M1222 2650 c0 -19 2 -27 5 -17 2 9 2 25 0 35 -3 9 -5 1 -5 -18z"/>
<path d="M755 1860 c-32 -12 -57 -46 -53 -72 3 -21 7 -23 46 -20 37 3 46 0 77
-31 38 -38 43 -58 20 -77 -37 -31 -11 -132 60 -224 19 -25 35 -50 35 -54 0 -5
-13 -21 -30 -37 -66 -63 -55 -133 25 -149 49 -10 60 4 46 57 -9 32 -10 50 -2
65 10 19 11 19 81 -1 67 -20 71 -20 88 -3 16 16 16 18 -2 32 -11 8 -27 14 -36
14 -25 0 -123 66 -152 103 -38 48 -68 108 -68 134 0 37 15 27 40 -28 28 -58
115 -143 175 -170 22 -10 41 -16 43 -14 11 11 -10 54 -29 60 -29 10 -119 104
-135 142 -8 18 -14 42 -14 53 0 11 -7 23 -15 26 -23 9 -18 52 11 81 22 22 32
25 70 20 l45 -5 -3 36 c-2 24 -11 41 -30 55 -25 18 -31 19 -69 8 -34 -10 -44
-20 -58 -52 -9 -21 -19 -39 -23 -39 -4 0 -14 15 -22 34 -20 47 -77 74 -121 56z"/>
<path d="M1435 1858 c-30 -16 -45 -39 -45 -70 0 -27 1 -27 43 -22 34 5 47 2
70 -16 30 -24 38 -74 12 -84 -9 -3 -15 -18 -15 -34 0 -46 -71 -136 -155 -195
-14 -10 -25 -27 -25 -37 0 -25 1 -25 59 4 58 30 155 132 171 181 14 41 30 46
30 9 0 -68 -114 -196 -207 -230 -59 -22 -71 -39 -42 -57 13 -8 35 -5 85 11 53
17 70 19 76 9 11 -17 10 -51 -2 -83 -23 -59 44 -71 97 -18 32 32 25 63 -23
116 -20 23 -32 44 -27 51 3 7 23 35 43 62 20 28 42 65 48 84 17 47 15 106 -3
121 -23 19 -18 39 19 76 29 29 41 34 80 34 42 0 46 2 46 25 0 28 -33 63 -68
72 -39 9 -88 -21 -108 -67 l-18 -41 -23 44 c-16 32 -32 48 -54 56 -38 13 -39
13 -64 -1z"/>
<path d="M570 1520 c-25 -25 -25 -46 0 -112 26 -70 27 -161 1 -187 -10 -10
-25 -21 -32 -23 -11 -4 -12 -11 -2 -37 13 -37 24 -31 -182 -103 -217 -77 -218
-76 -50 27 61 37 126 77 145 89 19 13 54 35 78 49 47 31 47 30 28 83 -7 22
-17 67 -21 102 -11 99 -29 77 -21 -27 l7 -90 -33 5 c-31 5 -42 -3 -168 -116
-191 -173 -244 -224 -234 -227 5 -2 115 32 244 75 211 69 235 79 238 100 5 32
21 36 67 16 104 -43 165 -144 98 -160 -44 -11 -49 -18 -83 -127 -17 -56 -40
-126 -51 -155 -11 -29 -23 -70 -28 -90 -5 -20 -21 -75 -35 -121 -14 -46 -24
-86 -22 -88 3 -4 258 272 354 383 48 56 52 64 42 88 -23 62 -19 66 79 66 75 0
93 -3 121 -22 56 -38 59 -53 22 -91 l-32 -33 49 -244 c74 -367 84 -411 87
-408 3 3 73 336 110 522 l26 128 -33 34 c-37 38 -35 51 15 88 22 17 46 22 118
25 50 1 94 -1 100 -7 6 -6 4 -23 -6 -47 -19 -45 -33 -23 159 -235 194 -213
235 -256 235 -244 0 14 -160 525 -171 546 -5 9 -25 22 -44 28 -39 13 -42 24
-19 72 18 38 72 80 126 97 44 15 58 9 58 -24 0 -23 13 -29 208 -90 283 -91
273 -88 278 -83 2 3 -24 29 -58 59 -35 29 -88 77 -118 105 -30 28 -89 81 -130
118 -68 60 -78 66 -108 61 l-33 -6 7 90 c4 59 3 91 -3 91 -10 0 -23 -98 -23
-172 l0 -38 43 6 c46 7 36 14 281 -208 22 -21 44 -38 49 -38 4 0 7 -4 7 -10 0
-15 -32 1 -200 97 -204 118 -196 112 -214 150 -21 44 -20 78 4 148 25 73 25
86 0 113 -25 27 -94 30 -128 6 l-23 -16 31 -52 c16 -30 30 -61 30 -71 0 -41
-26 -97 -67 -147 -60 -72 -83 -119 -83 -171 0 -76 15 -102 68 -118 46 -15 47
-16 68 -84 12 -39 45 -139 72 -222 27 -84 47 -153 43 -153 -3 0 -44 67 -91
147 -47 81 -113 195 -147 252 -86 144 -85 151 13 314 82 137 95 187 59 227
-18 20 -60 26 -81 12 -13 -8 -25 -82 -28 -158 -1 -39 -8 -59 -29 -88 -38 -49
-70 -61 -113 -41 -17 8 -50 15 -72 15 -39 0 -40 -1 -39 -34 1 -41 -17 -66 -48
-66 -20 0 -24 -7 -30 -42 -4 -24 -18 -63 -31 -87 -27 -49 -30 -42 42 -121 l33
-35 -25 -115 c-13 -63 -26 -122 -28 -130 -2 -8 -14 -66 -26 -127 -13 -62 -27
-110 -31 -107 -5 3 -9 140 -9 304 0 252 -2 301 -15 314 -8 8 -15 25 -15 38 0
18 -2 20 -9 9 -8 -12 -11 -8 -16 15 -13 64 -20 77 -45 81 -31 5 -40 19 -40 66
0 37 0 37 -40 37 -23 0 -54 -7 -71 -16 -33 -16 -57 -13 -85 14 -50 46 -59 64
-61 125 -1 34 -5 82 -10 107 -7 40 -11 45 -36 48 -16 2 -39 -4 -53 -13 -20
-13 -24 -24 -24 -62 0 -39 9 -61 59 -142 89 -147 93 -156 96 -245 2 -45 6 -93
10 -109 8 -31 -4 -48 -155 -217 -47 -53 -98 -111 -113 -129 -15 -18 -30 -32
-32 -30 -2 2 37 76 87 164 161 286 168 301 168 342 0 68 -28 140 -78 201 -90
110 -105 178 -55 253 l27 41 -23 19 c-32 26 -104 26 -131 -1z"/>
<path d="M1253 820 c0 -25 2 -35 4 -22 2 12 2 32 0 45 -2 12 -4 2 -4 -23z"/>
<path d="M1253 580 c0 -25 2 -35 4 -22 2 12 2 32 0 45 -2 12 -4 2 -4 -23z"/>
</g>
</svg>
