<?xml version="1.0" standalone="no"?>
<!DOCTYPE svg PUBLIC "-//W3C//DTD SVG 20010904//EN"
 "http://www.w3.org/TR/2001/REC-SVG-20010904/DTD/svg10.dtd">
<svg version="1.0" xmlns="http://www.w3.org/2000/svg"
 width="244.000000pt" height="305.000000pt" viewBox="0 0 244.000000 305.000000"
 preserveAspectRatio="xMidYMid meet">
<metadata>
Created by potrace 1.16, written by Peter Selinger 2001-2019
</metadata>
<g transform="translate(0.000000,305.000000) scale(0.100000,-0.100000)"
fill="#000000" stroke="none">
<path d="M907 2833 c-52 -242 -77 -498 -77 -790 0 -122 1 -133 18 -133 10 0
29 -11 42 -25 30 -32 35 -31 77 5 18 17 38 30 43 30 13 0 13 261 0 455 -11
158 -52 434 -74 498 l-13 38 -16 -78z m18 -921 c-3 -9 -16 -4 -44 15 l-40 28
-1 100 c0 211 49 713 78 782 8 20 15 -904 7 -925z"/>
<path d="M1362 2890 c0 -14 2 -19 5 -12 2 6 2 18 0 25 -3 6 -5 1 -5 -13z"/>
<path d="M1538 2400 c2 -275 0 -500 -3 -500 -4 0 -22 12 -42 27 l-36 28 7 235
c6 203 17 334 43 505 3 22 3 37 -1 34 -19 -18 -52 -352 -61 -616 -7 -189 -11
-172 58 -230 39 -33 38 -33 125 38 6 5 12 23 12 39 0 108 -23 505 -35 596 -18
138 -56 344 -64 344 -3 0 -5 -225 -3 -500z"/>
<path d="M1101 2874 c0 -11 3 -14 6 -6 3 7 2 16 -1 19 -3 4 -6 -2 -5 -13z"/>
<path d="M1361 2855 c-1 -5 -2 -203 -4 -440 -1 -261 -6 -438 -12 -450 -7 -15
-12 15 -16 115 l-6 135 1 -172 c1 -95 -2 -169 -5 -165 -4 4 -9 93 -13 197 -6
207 -14 282 -45 425 -23 101 -26 111 -35 83 -34 -112 -65 -359 -68 -530 -2
-153 -5 -108 -19 297 -18 518 -26 556 -27 126 -2 -362 -3 -378 -20 -374 -10 3
-19 0 -19 -6 0 -6 -4 -55 -8 -108 l-8 -97 30 -25 c30 -25 41 -70 22 -82 -5 -3
-9 4 -9 16 0 35 -17 57 -49 63 -59 12 -98 -15 -116 -81 -6 -21 -8 -19 -28 20
-13 24 -34 49 -50 56 -52 25 -107 -6 -107 -59 0 -27 2 -29 41 -29 33 0 46 -6
70 -32 32 -36 38 -72 13 -82 -36 -14 0 -140 62 -222 31 -41 30 -57 -7 -104
-29 -35 -31 -44 -26 -85 4 -26 3 -45 -3 -45 -19 0 -30 40 -35 127 -7 114 -10
123 -43 123 -33 0 -45 -8 -61 -39 -20 -36 -5 -86 54 -191 63 -111 73 -146 50
-175 -16 -20 -16 -19 -9 5 4 14 9 31 12 39 3 9 1 12 -5 8 -7 -4 -14 4 -18 21
-3 15 -30 60 -59 100 -80 107 -93 179 -45 240 39 50 16 82 -60 82 -33 0 -44
-5 -58 -26 -16 -25 -16 -30 1 -93 44 -159 40 -168 -147 -287 -181 -116 -217
-137 -223 -132 -2 3 57 64 133 137 135 130 138 132 174 126 25 -4 38 -2 41 7
3 7 0 57 -5 111 -12 122 -31 111 -21 -12 l6 -83 -30 7 c-29 6 -40 -3 -214
-175 -101 -100 -174 -179 -163 -177 11 3 114 39 230 80 174 62 211 78 213 95
6 40 25 44 83 14 94 -47 130 -136 63 -155 -29 -8 -34 -16 -54 -86 -12 -42 -34
-119 -50 -171 -42 -141 -90 -316 -90 -325 0 -9 86 84 130 141 14 18 74 92 133
166 97 119 108 136 102 163 -14 73 -18 70 68 72 42 1 77 1 77 -1 0 -1 -18 -85
-40 -186 -22 -101 -40 -189 -41 -195 -1 -5 -5 1 -10 15 -6 19 -8 13 -4 -23 3
-30 1 -46 -5 -42 -6 4 -10 -11 -9 -37 0 -24 3 -36 6 -28 4 8 36 104 73 213 50
145 67 206 63 232 -5 38 6 45 29 18 29 -34 28 -42 -2 -77 l-31 -35 15 -78 c14
-74 86 -453 102 -538 8 -44 12 -26 78 325 15 80 34 176 42 213 15 72 12 88
-25 121 -12 11 -21 24 -21 31 0 12 41 55 53 55 4 0 7 -21 6 -47 0 -34 16 -96
56 -213 31 -91 64 -187 72 -213 8 -27 17 -46 19 -44 3 2 -9 117 -26 254 -16
137 -30 258 -30 269 0 20 1 20 74 15 19 -1 19 -13 0 -77 -4 -17 22 -54 123
-175 71 -85 138 -166 149 -181 39 -50 85 -100 89 -96 2 2 -31 127 -74 278 -74
261 -79 276 -107 289 -41 20 -45 30 -28 70 21 50 58 86 103 101 45 14 61 8 61
-24 0 -18 10 -25 48 -38 26 -9 112 -40 192 -68 154 -55 205 -72 199 -65 -2 2
-80 81 -174 175 -153 155 -173 171 -197 166 l-28 -6 -1 93 -1 92 -15 -90 c-8
-49 -16 -101 -17 -114 -1 -26 27 -48 246 -198 54 -36 96 -68 94 -70 -4 -4 -85
25 -229 83 l-98 39 6 36 c5 27 3 38 -9 42 -8 3 -22 20 -31 38 -20 37 -17 83
11 181 l18 67 -24 26 c-29 30 -77 33 -111 6 l-23 -18 27 -46 c43 -73 31 -137
-44 -237 -19 -25 -41 -58 -48 -75 -10 -21 -15 -25 -18 -14 -2 9 19 59 47 111
58 110 66 166 28 192 -33 24 -67 20 -72 -6 -3 -13 -10 -46 -16 -75 -8 -35 -8
-58 -2 -70 7 -12 6 -26 -4 -46 -18 -33 -33 -28 -26 8 4 25 -35 115 -50 115
-18 0 -6 43 25 92 18 29 38 66 45 81 16 38 15 108 -3 131 -30 40 35 110 97
104 28 -2 34 1 36 20 5 33 -50 86 -80 77 -41 -12 -69 -36 -80 -66 -13 -38 -21
-37 -37 6 -12 35 -62 72 -80 60 -5 -3 -15 -3 -23 0 -10 4 -14 56 -16 248 -3
275 -20 652 -32 712 -4 22 -8 36 -9 30z m-131 -821 c0 -274 -3 -413 -10 -409
-6 4 -11 102 -12 253 -2 208 -3 226 -8 112 l-5 -135 -8 170 c-6 133 -5 196 7
290 9 66 16 126 16 133 0 7 5 10 10 7 6 -4 10 -155 10 -421z m-83 -151 c-3
-10 -5 -4 -5 12 0 17 2 24 5 18 2 -7 2 -21 0 -30z m43 -100 c0 -28 -4 -54 -8
-57 -4 -2 -8 26 -8 64 0 38 4 64 8 57 4 -6 8 -35 8 -64z m186 36 c-10 -40 -11
-40 -18 -13 -4 17 -3 33 4 41 20 24 25 13 14 -28z m-322 -59 c29 -11 35 -28 9
-26 -14 1 -18 -6 -16 -28 1 -16 8 -36 16 -45 22 -25 28 -64 14 -91 -11 -21
-10 -27 5 -42 16 -16 26 -58 14 -58 -3 0 -25 25 -50 55 -32 39 -47 68 -51 100
-4 24 -13 46 -21 49 -22 8 -16 37 13 68 30 31 32 32 67 18z m431 -21 c29 -35
30 -42 11 -62 -8 -8 -18 -32 -22 -53 -6 -39 -76 -144 -94 -144 -15 0 -12 27 4
42 10 9 12 29 8 70 -4 44 -1 60 12 73 23 24 22 71 -1 69 -18 -2 -16 13 2 23
30 17 55 11 80 -18z m-309 -127 c32 -15 31 -34 -3 -30 -24 3 -29 9 -36 46 -5
24 -5 51 -1 60 6 12 9 5 12 -24 2 -32 8 -44 28 -52z m158 25 c-5 -55 -15 -68
-45 -60 -26 7 -24 22 6 33 21 8 25 16 25 50 0 24 4 39 10 35 5 -3 7 -29 4 -58z
m-134 23 c0 -21 -5 -30 -16 -30 -9 0 -13 5 -10 13 3 6 9 20 12 30 9 25 14 21
14 -13z m-242 -93 c24 -56 29 -92 11 -81 -16 9 -49 85 -49 112 0 36 14 25 38
-31z m587 21 c-9 -38 -31 -84 -45 -93 -14 -9 -12 19 4 57 8 18 17 41 20 51 10
32 28 19 21 -15z m-305 -53 c1 11 4 15 6 9 2 -6 0 -28 -5 -50 -7 -29 -9 -32
-10 -14 -1 14 -4 36 -6 50 -5 22 -4 22 4 5 l10 -20 1 20z m-84 -82 c13 -32 24
-65 23 -73 -1 -21 -58 101 -59 124 0 28 10 14 36 -51z m168 -17 c-36 -79 -41
-64 -7 20 15 38 29 62 31 53 1 -8 -9 -41 -24 -73z m126 -8 c0 -5 -4 -8 -10 -8
-5 0 -10 10 -10 23 0 18 2 19 10 7 5 -8 10 -18 10 -22z m-413 -10 c-3 -7 -5
-2 -5 12 0 14 2 19 5 13 2 -7 2 -19 0 -25z m83 -36 c0 -23 -35 -8 -38 16 -3
21 -2 22 17 10 12 -7 21 -19 21 -26z m270 18 c0 -20 -25 -38 -37 -26 -5 5 24
46 34 46 1 0 3 -9 3 -20z m45 -132 c-9 -34 -20 -67 -25 -72 -9 -9 -4 17 21
107 6 22 13 37 15 34 3 -3 -2 -34 -11 -69z m-379 -14 c7 -37 12 -69 10 -71 -5
-5 -36 109 -36 132 0 34 11 7 26 -61z m119 45 c-4 -5 -13 -9 -22 -9 -13 0 -13
3 -3 15 13 15 35 11 25 -6z m151 -7 c-9 -9 -37 8 -31 18 5 8 11 7 21 -1 8 -6
12 -14 10 -17z m60 -44 c-11 -80 -40 -122 -61 -88 -3 6 -15 10 -26 10 -15 0
-20 6 -17 22 4 28 35 36 52 13 11 -16 13 -16 26 0 7 9 12 35 11 61 -1 31 2 43
10 38 7 -4 9 -24 5 -56z m-281 -25 c5 -23 35 -33 35 -12 0 21 45 4 48 -18 3
-19 -1 -23 -21 -23 -14 0 -27 -6 -30 -12 -3 -10 -7 -10 -19 0 -21 17 -43 107
-32 130 6 13 8 11 11 -13 2 -16 6 -40 8 -52z m-158 -24 c14 -14 6 -39 -12 -39
-18 0 -28 17 -21 35 6 18 18 19 33 4z m578 -34 c0 -10 -6 -20 -12 -22 -8 -3
-13 5 -13 22 0 17 5 25 13 23 6 -3 12 -13 12 -23z m75 -117 c0 -17 -3 -18 -14
-8 -8 6 -12 18 -9 26 7 19 23 7 23 -18z m-715 -55 c-3 -16 -47 -104 -97 -198
-50 -93 -107 -200 -127 -237 -19 -37 -37 -65 -39 -63 -4 4 105 388 120 421 6
12 26 25 54 32 24 7 44 16 44 22 0 9 39 50 48 50 2 0 1 -12 -3 -27z m711 0 c4
-16 57 -127 118 -248 61 -121 112 -224 115 -229 12 -28 -31 21 -143 164 l-126
160 5 72 c2 40 5 81 5 91 0 27 19 20 26 -10z m-356 -69 c0 -8 -4 -12 -10 -9
-5 3 -10 13 -10 21 0 8 5 12 10 9 6 -3 10 -13 10 -21z m166 -32 c3 -20 21
-111 40 -201 19 -90 33 -165 30 -168 -2 -2 -9 11 -14 29 -6 18 -29 91 -52 162
-39 121 -44 157 -31 224 1 2 5 1 11 -3 5 -3 12 -22 16 -43z m-178 -264 c-1
-154 -4 -226 -8 -183 l-6 70 -3 -55 -3 -55 -10 40 c-5 22 -22 108 -38 190
l-28 150 35 43 c19 24 37 41 40 39 2 -3 -3 -22 -11 -42 -18 -43 -19 -48 -7
-41 4 3 14 26 21 51 7 25 14 45 16 45 2 0 3 -114 2 -252z"/>
<path d="M1213 2320 c0 -36 2 -50 4 -32 2 17 2 47 0 65 -2 17 -4 3 -4 -33z"/>
<path d="M1193 700 c0 -30 3 -84 7 -120 7 -61 7 -62 7 -15 0 28 -3 82 -7 120
-7 68 -7 69 -7 15z"/>
<path d="M1521 2834 c0 -11 3 -14 6 -6 3 7 2 16 -1 19 -3 4 -6 -2 -5 -13z"/>
<path d="M1512 2770 c0 -19 2 -27 5 -17 2 9 2 25 0 35 -3 9 -5 1 -5 -18z"/>
<path d="M1093 2735 c0 -22 2 -30 4 -17 2 12 2 30 0 40 -3 9 -5 -1 -4 -23z"/>
<path d="M1342 2690 c0 -19 2 -27 5 -17 2 9 2 25 0 35 -3 9 -5 1 -5 -18z"/>
<path d="M1083 2560 c0 -25 2 -35 4 -22 2 12 2 32 0 45 -2 12 -4 2 -4 -23z"/>
<path d="M1333 2495 c0 -44 2 -61 4 -37 2 23 2 59 0 80 -2 20 -4 1 -4 -43z"/>
<path d="M1072 2350 c0 -19 2 -27 5 -17 2 9 2 25 0 35 -3 9 -5 1 -5 -18z"/>
<path d="M1073 2250 c0 -36 2 -50 4 -32 2 17 2 47 0 65 -2 17 -4 3 -4 -33z"/>
<path d="M1022 890 c0 -19 2 -27 5 -17 2 9 2 25 0 35 -3 9 -5 1 -5 -18z"/>
<path d="M1013 810 c0 -25 2 -35 4 -22 2 12 2 32 0 45 -2 12 -4 2 -4 -23z"/>
<path d="M1002 730 c0 -19 2 -27 5 -17 2 9 2 25 0 35 -3 9 -5 1 -5 -18z"/>
<path d="M993 645 c0 -22 2 -30 4 -17 2 12 2 30 0 40 -3 9 -5 -1 -4 -23z"/>
</g>
</svg>
