<?xml version="1.0" standalone="no"?>
<!DOCTYPE svg PUBLIC "-//W3C//DTD SVG 20010904//EN"
 "http://www.w3.org/TR/2001/REC-SVG-20010904/DTD/svg10.dtd">
<svg version="1.0" xmlns="http://www.w3.org/2000/svg"
 width="244.000000pt" height="305.000000pt" viewBox="0 0 244.000000 305.000000"
 preserveAspectRatio="xMidYMid meet">
<metadata>
Created by potrace 1.16, written by Peter Selinger 2001-2019
</metadata>
<g transform="translate(0.000000,305.000000) scale(0.100000,-0.100000)"
fill="#000000" stroke="none">
<path d="M1262 2900 c0 -14 2 -19 5 -12 2 6 2 18 0 25 -3 6 -5 1 -5 -13z"/>
<path d="M890 2893 c0 -12 -3 -29 -7 -39 -4 -12 -3 -15 5 -10 9 5 12 -108 12
-468 0 -262 -2 -476 -5 -476 -3 0 -24 12 -47 27 l-41 28 6 220 c6 209 21 377
47 528 7 37 10 70 7 73 -7 7 -34 -151 -51 -296 -8 -69 -18 -222 -22 -341 l-7
-215 31 -13 c17 -7 38 -21 48 -32 22 -24 36 -24 58 0 10 11 31 25 48 32 l31
13 -6 230 c-3 127 -11 274 -17 326 -23 198 -90 506 -90 413z"/>
<path d="M1204 2765 c0 -77 2 -107 3 -67 2 40 2 103 0 140 -2 37 -3 4 -3 -73z"/>
<path d="M1568 2400 c2 -275 0 -500 -3 -500 -3 0 -23 12 -45 26 l-40 27 0 116
c0 163 16 379 40 540 32 214 31 211 21 179 -36 -110 -71 -451 -72 -706 -1
-139 1 -158 17 -167 9 -5 32 -22 49 -37 l32 -28 37 28 c81 61 74 29 65 297 -8
254 -23 387 -64 590 -14 68 -25 127 -25 130 0 3 -3 5 -7 5 -5 0 -7 -225 -5
-500z"/>
<path d="M871 2804 c0 -11 3 -14 6 -6 3 7 2 16 -1 19 -3 4 -6 -2 -5 -13z"/>
<path d="M1226 2573 c-5 -18 -10 -23 -15 -14 -5 7 -11 -16 -14 -56 -3 -37 -13
-111 -22 -163 -8 -52 -18 -182 -22 -288 -6 -182 -16 -243 -27 -170 -21 140
-39 228 -46 228 -10 0 -27 -73 -35 -152 -7 -59 -6 -61 49 -105 37 -31 27 -133
-13 -133 -11 0 -23 5 -26 10 -12 19 -25 10 -25 -18 0 -57 65 -80 90 -31 18 32
31 22 25 -21 -4 -35 -2 -40 23 -52 19 -9 28 -22 30 -43 l4 -30 -25 23 c-27 26
-71 31 -105 13 -32 -17 -27 -27 22 -41 54 -15 72 -49 82 -153 l7 -74 -32 -11
c-27 -10 -32 -16 -29 -39 2 -20 9 -29 26 -31 17 -3 22 -10 22 -33 0 -18 -4
-28 -10 -24 -5 3 -10 2 -10 -3 0 -5 -10 -12 -21 -15 -19 -5 -21 -11 -16 -43 6
-34 5 -36 -9 -22 -9 9 -16 32 -16 52 0 35 -1 36 -39 36 -21 0 -54 -7 -72 -16
-31 -15 -37 -15 -64 -1 -16 9 -42 34 -57 56 -22 32 -27 47 -22 73 3 18 0 62
-7 98 -13 63 -15 65 -46 68 -52 5 -74 -22 -69 -83 4 -39 17 -70 60 -140 117
-190 118 -181 -8 -396 -53 -90 -105 -180 -116 -199 -68 -120 -81 -141 -85
-137 -2 3 20 81 51 174 30 92 60 187 67 211 14 49 20 55 72 72 45 14 58 41 59
116 1 58 -9 81 -62 145 -63 75 -80 110 -80 162 0 35 7 58 27 88 l27 41 -23 19
c-33 27 -104 26 -131 -3 -25 -27 -25 -31 0 -104 11 -32 20 -77 20 -99 0 -71
-22 -91 -225 -207 -173 -99 -220 -121 -184 -86 8 7 61 56 119 108 57 52 116
105 130 118 21 19 32 22 67 18 23 -3 44 -2 47 2 2 4 -2 54 -8 112 -15 123 -32
114 -22 -11 l7 -80 -33 6 c-27 5 -39 1 -63 -21 -16 -15 -55 -50 -85 -78 -143
-131 -244 -222 -254 -228 -56 -36 204 36 419 116 51 19 60 26 63 49 4 31 6 32
60 13 56 -20 98 -53 117 -92 22 -48 19 -59 -22 -76 -38 -14 -38 -16 -82 -154
-24 -76 -57 -177 -72 -224 -15 -47 -32 -104 -39 -128 -6 -24 -14 -50 -17 -59
-3 -9 -2 -14 4 -12 10 4 403 436 403 443 0 2 -6 22 -14 44 -8 22 -12 43 -9 46
4 3 45 6 93 6 74 0 92 -3 120 -22 56 -38 59 -53 22 -91 l-33 -34 25 -129 c31
-160 107 -518 110 -522 3 -3 5 4 86 403 l52 250 -31 27 c-37 33 -38 48 -8 76
34 32 71 42 159 42 l80 0 -6 -36 c-4 -19 -9 -41 -12 -49 -3 -8 33 -56 83 -112
180 -201 313 -342 313 -331 0 10 -26 95 -135 448 -31 101 -34 106 -69 119 -30
12 -36 18 -36 44 0 40 69 108 128 125 49 15 62 10 62 -22 0 -20 20 -29 237
-99 130 -42 238 -75 240 -73 5 4 -99 104 -251 240 -112 100 -122 107 -152 101
l-33 -6 6 91 c4 64 3 90 -6 90 -6 0 -11 -17 -11 -42 0 -24 -5 -61 -11 -83 -6
-22 -13 -53 -16 -70 -5 -33 -21 -21 297 -214 50 -30 88 -56 86 -59 -6 -6 -346
110 -365 125 -2 1 1 15 8 29 11 25 9 29 -20 53 -42 36 -49 93 -20 185 26 84
26 101 1 126 -34 34 -140 19 -140 -20 0 -9 11 -31 25 -50 30 -40 33 -96 9
-143 -10 -18 -41 -62 -70 -99 -42 -55 -56 -82 -69 -141 -21 -86 -34 -52 137
-360 61 -109 108 -200 106 -202 -2 -3 -70 72 -151 166 l-147 171 5 71 c14 174
12 170 87 293 81 134 94 184 58 222 -16 16 -31 22 -53 20 -29 -3 -31 -6 -44
-68 -7 -36 -11 -78 -8 -93 6 -36 -14 -75 -60 -116 -39 -34 -60 -38 -89 -16
-11 8 -39 15 -63 15 -41 0 -43 -1 -43 -31 0 -39 -16 -69 -38 -69 -16 1 -16 2
1 14 24 18 22 57 -3 63 -25 7 -29 68 -5 77 8 3 15 17 15 31 0 20 -7 29 -31 37
l-31 11 7 61 c13 117 36 166 79 166 12 0 27 4 35 9 12 8 12 12 2 25 -19 23
-83 20 -115 -5 l-26 -20 0 23 c0 28 9 42 33 51 12 5 17 17 17 47 0 22 2 40 5
40 2 0 15 -11 29 -25 14 -14 32 -25 40 -25 20 0 46 39 46 68 0 19 -4 23 -17
17 -41 -18 -57 -11 -66 28 -13 53 -2 82 39 106 36 21 36 22 29 74 -12 94 -27
167 -36 167 -5 0 -9 -2 -9 -5 0 -25 -43 -242 -49 -248 -5 -5 -11 72 -15 170
-8 208 -28 388 -55 491 -11 41 -22 76 -24 78 -3 3 -8 -7 -11 -23z m-6 -693
c-9 -48 -9 -87 -1 -150 14 -105 14 -133 1 -125 -5 3 -11 41 -12 83 l-2 77 -3
-67 c-4 -70 -11 -80 -34 -52 -10 13 -11 70 -1 322 17 422 32 468 29 92 -1
-162 1 -270 4 -240 4 30 8 186 8 345 1 160 5 308 9 330 4 23 8 -88 10 -255 2
-192 -1 -318 -8 -360z m30 -391 c0 -38 -24 -35 -28 4 -2 19 1 27 12 27 11 0
16 -10 16 -31z m67 -421 c-3 -8 -6 -5 -6 6 -1 11 2 17 5 13 3 -3 4 -12 1 -19z
m-124 -67 c5 -54 3 -60 -8 -44 -18 26 -24 137 -6 118 5 -6 11 -39 14 -74z
m107 30 c0 -28 -4 -53 -10 -56 -6 -4 -10 15 -10 49 0 31 5 56 10 56 6 0 10
-22 10 -49z m-70 -101 c5 7 6 -11 3 -41 -3 -30 -5 -175 -5 -324 l1 -270 -24
105 c-19 80 -24 126 -21 190 2 47 1 64 -1 38 -2 -27 -8 -48 -12 -48 -4 0 -16
39 -25 88 -10 48 -20 94 -22 102 -2 8 11 31 29 50 l32 34 5 -79 5 -80 9 125
c5 69 11 119 14 111 3 -10 6 -11 12 -1z"/>
<path d="M738 1854 c-27 -14 -44 -51 -36 -76 3 -8 19 -11 45 -10 31 3 47 -2
71 -23 42 -35 48 -58 23 -92 -18 -25 -19 -34 -10 -75 9 -39 52 -115 104 -184
7 -10 1 -23 -22 -46 -48 -50 -59 -86 -35 -117 22 -30 86 -51 103 -34 8 8 8 25
-2 62 -10 39 -10 53 0 64 10 13 20 12 77 -6 49 -16 69 -19 82 -11 30 20 18 36
-46 61 -42 17 -80 42 -109 72 -45 45 -93 129 -93 164 0 30 16 19 36 -25 35
-78 152 -188 201 -188 37 0 27 27 -24 64 -74 54 -132 131 -133 177 0 15 -7 32
-15 39 -45 37 10 103 82 99 23 -2 45 0 48 3 4 3 -1 22 -9 42 -33 79 -140 68
-161 -16 -10 -37 -21 -35 -41 8 -11 23 -29 41 -50 50 -41 17 -52 17 -86 -2z"/>
<path d="M1434 1856 c-31 -14 -61 -67 -48 -87 2 -5 25 -6 49 -2 38 5 47 2 69
-20 29 -29 33 -52 13 -76 -8 -9 -19 -34 -25 -57 -16 -54 -70 -123 -121 -154
-37 -22 -62 -62 -48 -76 3 -3 25 4 50 16 55 26 138 112 169 174 34 71 54 54
23 -20 -38 -91 -111 -160 -205 -194 -47 -17 -57 -35 -27 -54 13 -8 31 -6 80
11 34 12 66 18 70 13 11 -10 12 -46 3 -91 -7 -32 -5 -37 14 -42 44 -11 100 27
100 68 0 13 -16 44 -35 69 -19 26 -35 49 -35 53 0 3 17 29 38 57 65 85 95 198
57 212 -27 11 -17 50 22 84 31 28 42 31 75 27 37 -5 38 -5 38 27 0 42 -28 68
-75 68 -45 0 -78 -22 -95 -61 -13 -33 -30 -41 -30 -16 0 20 -50 72 -75 79 -11
3 -34 -1 -51 -8z"/>
</g>
</svg>
