<?xml version="1.0" standalone="no"?>
<!DOCTYPE svg PUBLIC "-//W3C//DTD SVG 20010904//EN"
 "http://www.w3.org/TR/2001/REC-SVG-20010904/DTD/svg10.dtd">
<svg version="1.0" xmlns="http://www.w3.org/2000/svg"
 width="244.000000pt" height="305.000000pt" viewBox="0 0 244.000000 305.000000"
 preserveAspectRatio="xMidYMid meet">
<metadata>
Created by potrace 1.16, written by Peter Selinger 2001-2019
</metadata>
<g transform="translate(0.000000,305.000000) scale(0.100000,-0.100000)"
fill="#000000" stroke="none">
<path d="M1520 2893 c0 -10 -3 -29 -5 -43 -5 -22 -4 -22 4 -5 6 13 10 -150 10
-462 1 -266 -1 -483 -5 -483 -3 0 -21 12 -40 28 l-34 27 0 125 c0 111 8 269
24 470 5 61 5 62 -5 20 -5 -25 -15 -128 -23 -230 -13 -176 -13 -180 -15 -80
-1 128 -30 564 -39 603 -4 15 -6 -156 -5 -380 1 -225 0 -402 -3 -395 -9 20
-24 14 -24 -10 0 -19 -2 -20 -10 -8 -7 11 -10 -3 -10 -46 0 -34 -3 -77 -7 -95
-7 -28 -9 -19 -14 51 -21 291 -46 484 -77 595 -8 27 -11 21 -30 -60 -12 -49
-26 -144 -32 -210 -6 -66 -15 -156 -20 -200 -6 -44 -10 -114 -11 -155 -2 -165
-16 -4 -23 261 -6 254 -31 658 -42 668 -2 2 -4 -193 -4 -435 0 -423 -4 -514
-20 -514 -16 0 -19 34 -21 200 -1 93 -5 170 -10 170 -5 0 -9 26 -9 58 0 115
-63 553 -77 538 -3 -2 -4 -228 -3 -500 0 -273 -2 -496 -5 -496 -3 0 -22 12
-41 28 l-35 27 6 185 c6 189 28 451 45 549 12 66 11 110 -1 61 -22 -93 -49
-377 -55 -592 l-7 -236 29 -15 c16 -9 37 -25 47 -37 l18 -21 40 35 c46 42 53
43 73 14 22 -32 20 -38 -12 -32 -36 7 -69 -19 -86 -69 l-13 -38 -18 41 c-21
46 -40 60 -83 60 -36 0 -75 -39 -70 -72 3 -20 8 -23 39 -20 61 5 119 -70 84
-109 -20 -21 -16 -88 9 -142 19 -41 35 -164 26 -197 -6 -22 -8 -20 -14 20 -3
25 -8 63 -10 85 -2 22 -2 3 -1 -42 2 -46 -1 -83 -5 -83 -9 0 -20 51 -20 94 0
37 -15 56 -45 56 -57 0 -72 -83 -30 -166 26 -51 31 -74 16 -74 -17 0 -63 84
-74 137 -11 50 -10 58 11 93 27 48 28 76 3 90 -29 15 -77 12 -95 -6 -20 -20
-20 -79 -1 -134 40 -113 18 -147 -175 -274 -189 -125 -190 -126 -165 -96 34
40 47 54 145 154 94 97 95 98 134 92 l38 -7 -5 58 c-4 32 -6 79 -7 106 0 28
-4 47 -11 47 -9 0 -10 -25 -6 -90 l7 -89 -28 5 c-24 5 -39 -7 -132 -103 -206
-213 -224 -233 -219 -237 3 -3 41 9 85 26 43 17 133 50 199 73 112 39 121 45
130 74 7 25 13 30 30 25 41 -13 85 -37 85 -47 0 -6 -16 -43 -35 -84 -19 -41
-35 -76 -35 -79 0 -2 11 3 25 12 23 15 25 15 25 -1 0 -16 -54 -226 -110 -425
-10 -36 -21 -81 -24 -100 l-6 -35 17 25 c10 13 38 49 63 80 25 30 54 67 65 81
104 138 205 258 205 243 0 -11 -14 -111 -30 -224 -17 -113 -30 -207 -30 -210
1 -8 127 284 161 371 24 61 28 84 23 122 -6 44 -5 47 15 47 22 0 71 -44 71
-63 0 -5 -11 -22 -25 -39 -14 -16 -25 -37 -25 -46 0 -16 17 -117 54 -317 8
-44 24 -134 36 -200 12 -66 23 -121 24 -122 1 -1 19 93 40 210 21 117 46 256
57 311 24 125 24 132 -6 158 -14 12 -25 29 -25 38 0 21 51 70 74 70 15 0 17
-6 11 -39 -8 -46 11 -106 94 -296 10 -22 31 -70 46 -108 15 -37 29 -66 30 -65
3 4 -41 334 -55 406 -14 80 -13 112 5 112 22 0 28 -23 17 -64 -10 -34 -8 -39
41 -103 29 -38 54 -70 57 -73 3 -3 59 -74 124 -158 65 -84 120 -151 122 -149
2 1 -1 18 -6 37 -13 52 -65 242 -95 350 -15 52 -32 114 -38 138 -9 35 -17 46
-44 57 -18 8 -33 21 -33 30 0 17 2 17 59 -22 19 -13 35 -22 37 -20 2 1 -10 29
-26 61 -17 32 -30 65 -30 72 0 15 78 54 108 54 17 0 22 -6 22 -24 0 -13 8 -27
18 -31 186 -72 414 -156 417 -153 2 1 -74 83 -169 181 -158 165 -174 178 -199
172 l-27 -7 -1 93 c-1 52 -3 83 -5 69 -3 -14 -12 -64 -21 -112 l-17 -87 29
-23 c26 -21 57 -43 230 -163 28 -19 61 -44 75 -56 21 -18 22 -20 5 -15 -22 5
-176 68 -267 109 l-57 25 12 32 c10 27 10 33 -6 41 -21 12 -47 61 -47 90 0 12
10 61 22 110 20 83 21 88 5 113 -13 20 -26 26 -53 26 -42 0 -74 -15 -74 -36 0
-8 9 -32 20 -54 35 -69 18 -157 -45 -232 -34 -40 -33 -12 0 57 45 92 30 175
-31 175 -28 0 -34 -9 -40 -60 -6 -51 -22 -95 -31 -86 -12 12 -2 189 13 240 19
65 18 106 -3 121 -14 11 -15 16 -4 43 17 40 51 62 96 62 31 0 35 3 35 25 0 33
-42 75 -73 75 -34 0 -74 -35 -82 -70 -9 -39 -18 -38 -33 4 -15 42 -55 70 -88
62 -29 -8 -31 4 -5 35 18 23 19 23 47 4 16 -10 36 -27 44 -38 15 -18 17 -17
53 17 21 20 43 36 49 36 22 0 -3 561 -32 730 -5 30 -17 99 -26 153 -9 53 -20
100 -25 103 -5 3 -9 -3 -9 -13z m-290 -854 c0 -383 -2 -429 -15 -415 -12 11
-15 46 -16 168 -1 103 -4 142 -10 118 -10 -42 -2 352 8 425 6 46 7 48 14 20 5
-21 7 -8 8 43 0 39 3 72 6 72 3 0 5 -194 5 -431z m-134 -196 c-10 -10 -19 5
-10 18 6 11 8 11 12 0 2 -7 1 -15 -2 -18z m284 7 c0 -5 -4 -10 -10 -10 -5 0
-10 5 -10 10 0 6 5 10 10 10 6 0 10 -4 10 -10z m-203 -92 c-2 -13 -4 -5 -4 17
-1 22 1 32 4 23 2 -10 2 -28 0 -40z m-126 -35 c3 -17 4 -66 1 -108 l-5 -77
-18 30 c-11 16 -21 44 -23 63 -2 18 -9 35 -15 37 -17 6 -13 53 6 74 24 26 46
18 54 -19z m79 30 c-1 -18 -18 -35 -24 -24 -4 6 -4 16 -1 21 7 12 25 13 25 3z
m230 -14 c0 -6 -4 -7 -10 -4 -5 3 -10 11 -10 16 0 6 5 7 10 4 6 -3 10 -11 10
-16z m112 4 c24 -27 27 -46 11 -65 -8 -9 -17 -31 -20 -49 -6 -38 -30 -89 -41
-89 -10 0 -8 192 2 208 10 17 31 15 48 -5z m-282 -85 c0 -21 -3 -29 -10 -22
-5 5 -7 19 -4 32 9 31 14 27 14 -10z m-35 -12 c5 -22 14 -36 26 -39 11 -3 26
-22 35 -43 l16 -38 15 29 c9 17 28 42 44 57 16 15 29 36 29 47 0 12 4 21 8 21
15 0 29 -44 22 -70 -5 -20 -13 -26 -42 -28 -35 -3 -38 -6 -57 -60 -10 -31 -20
-49 -20 -40 -1 10 -8 36 -17 58 -14 36 -20 40 -50 40 -43 0 -64 35 -46 75 16
35 30 31 37 -9z m-187 -73 c9 -26 8 -33 -2 -33 -16 0 -26 22 -26 58 0 31 13
20 28 -25z m419 15 c-3 -7 -5 -2 -5 12 0 14 2 19 5 13 2 -7 2 -19 0 -25z m142
-11 c-5 -17 -9 -33 -9 -34 0 -2 -7 -3 -15 -3 -8 0 -12 6 -10 13 20 56 26 67
34 62 6 -3 6 -18 0 -38z m-442 1 c-3 -7 -5 -2 -5 12 0 14 2 19 5 13 2 -7 2
-19 0 -25z m28 -78 c17 -33 18 -40 7 -40 -9 0 -32 44 -32 60 0 18 9 10 25 -20z
m265 25 c0 -15 -31 -77 -36 -72 -8 8 16 77 27 77 5 0 9 -2 9 -5z m-326 -75
c45 -48 56 -70 36 -70 -15 0 -50 38 -50 54 0 8 -10 16 -22 18 -15 2 -24 11
-26 26 -5 34 11 27 62 -28z m416 25 c0 -18 -5 -25 -20 -25 -13 0 -22 -9 -26
-25 -8 -33 -54 -61 -54 -33 0 10 88 108 97 108 2 0 3 -11 3 -25z m71 -120 l-9
-40 -1 40 c0 22 3 58 7 80 l7 40 3 -40 c2 -22 -1 -58 -7 -80z m-357 14 c-8
-13 -24 -1 -24 18 0 13 3 13 15 3 8 -7 12 -16 9 -21z m117 -2 c-8 -8 -11 -7
-11 4 0 9 3 19 7 23 4 4 9 2 11 -4 3 -7 -1 -17 -7 -23z m-214 -168 c22 -22 36
1 29 51 -6 47 -6 48 24 52 35 5 37 2 10 -20 -25 -21 -17 -60 14 -64 15 -2 21
-10 21 -27 0 -22 -4 -25 -41 -24 -62 1 -82 16 -90 68 -3 25 -3 57 2 72 7 24 9
18 13 -34 4 -34 11 -67 18 -74z m322 29 c-12 -47 -42 -70 -75 -58 -14 6 -26 6
-29 -1 -9 -14 -25 -1 -25 22 0 11 10 23 24 29 13 5 27 13 30 18 9 15 -5 51
-23 55 -9 3 -3 5 13 6 28 1 28 0 23 -38 -3 -24 0 -47 7 -57 12 -16 14 -15 29
7 10 13 17 45 18 74 1 49 1 49 10 15 4 -21 4 -50 -2 -72z m-489 1 c0 -11 -4
-19 -8 -19 -11 0 -32 46 -25 54 10 10 33 -15 33 -35z m640 -19 c0 -5 -4 -10
-10 -10 -5 0 -10 5 -10 10 0 6 5 10 10 10 6 0 10 -4 10 -10z m-526 -25 c3 -8
1 -15 -4 -15 -6 0 -10 7 -10 15 0 8 2 15 4 15 2 0 6 -7 10 -15z m410 0 c-4 -8
-8 -15 -10 -15 -2 0 -4 7 -4 15 0 8 4 15 10 15 5 0 7 -7 4 -15z m-580 -11 c4
-9 4 -19 2 -21 -8 -8 -26 8 -26 23 0 19 16 18 24 -2z m740 -59 c-4 -17 -10
-23 -16 -17 -6 6 -6 18 2 32 15 28 23 20 14 -15z m-804 -39 c0 -15 -40 -69
-47 -63 -6 7 29 77 39 77 4 0 8 -6 8 -14z m110 -42 c0 -24 -38 -109 -126 -285
-69 -138 -127 -249 -130 -247 -2 3 3 29 12 59 9 30 36 125 59 212 24 87 45
160 47 161 1 2 21 10 43 18 34 14 41 21 51 61 6 24 14 50 18 56 12 20 26 1 26
-35z m675 -17 c1 -46 14 -80 113 -281 62 -125 111 -230 108 -233 -5 -5 -229
292 -251 333 -8 15 -11 32 -8 38 4 5 7 49 9 97 1 84 9 117 23 104 3 -4 6 -30
6 -58z m125 -9 c0 -5 -11 -1 -25 8 -14 9 -25 23 -25 32 0 12 6 10 25 -8 14
-13 25 -27 25 -32z m-901 -19 c-29 -18 -44 -9 -19 11 15 11 26 15 29 8 2 -6
-3 -14 -10 -19z m437 -34 c17 23 18 15 2 -20 -10 -23 -28 -34 -28 -17 0 4 -3
18 -6 32 -5 23 -4 23 7 6 12 -19 12 -19 25 -1z m-270 -46 c-3 -17 -6 -39 -7
-48 -1 -20 -28 38 -29 62 0 11 8 17 21 17 19 0 21 -4 15 -31z m70 16 c-3 -8
-29 -105 -58 -214 -28 -110 -54 -199 -56 -197 -5 6 49 377 59 404 6 15 17 22
35 22 19 0 25 -4 20 -15z m395 -56 c66 -254 88 -343 85 -346 -1 -2 -32 71 -67
161 -54 136 -64 171 -61 210 5 64 22 54 43 -25z m-212 -251 l-1 -273 -23 220
-22 220 21 52 c12 29 22 53 24 53 1 0 1 -123 1 -272z m-42 205 c-13 -24 -13
-48 -1 -183 14 -153 14 -221 0 -125 -4 28 -16 94 -27 148 -24 125 -24 127 8
164 32 38 40 36 20 -4z"/>
<path d="M1204 2190 c0 -69 1 -97 3 -62 2 34 2 90 0 125 -2 34 -3 6 -3 -63z"/>
<path d="M1062 2760 c0 -14 2 -19 5 -12 2 6 2 18 0 25 -3 6 -5 1 -5 -13z"/>
<path d="M1485 2690 c-4 -34 -5 -63 -2 -66 2 -3 7 23 11 57 4 33 5 63 3 66 -3
2 -8 -23 -12 -57z"/>
<path d="M1363 2660 c0 -25 2 -35 4 -22 2 12 2 32 0 45 -2 12 -4 2 -4 -23z"/>
<path d="M1053 2620 c0 -25 2 -35 4 -22 2 12 2 32 0 45 -2 12 -4 2 -4 -23z"/>
<path d="M1044 2465 c0 -49 1 -71 3 -48 2 23 2 64 0 90 -2 26 -3 8 -3 -42z"/>
<path d="M1352 2485 c0 -16 2 -22 5 -12 2 9 2 23 0 30 -3 6 -5 -1 -5 -18z"/>
<path d="M1344 2225 c0 -49 1 -71 3 -48 2 23 2 64 0 90 -2 26 -3 8 -3 -42z"/>
</g>
</svg>
