<?xml version="1.0" standalone="no"?>
<!DOCTYPE svg PUBLIC "-//W3C//DTD SVG 20010904//EN"
 "http://www.w3.org/TR/2001/REC-SVG-20010904/DTD/svg10.dtd">
<svg version="1.0" xmlns="http://www.w3.org/2000/svg"
 width="244.000000pt" height="305.000000pt" viewBox="0 0 244.000000 305.000000"
 preserveAspectRatio="xMidYMid meet">
<metadata>
Created by potrace 1.16, written by Peter Selinger 2001-2019
</metadata>
<g transform="translate(0.000000,305.000000) scale(0.100000,-0.100000)"
fill="#000000" stroke="none">
<path d="M916 2901 c-4 -7 -5 -15 -2 -18 3 -3 2 -11 -3 -17 -18 -22 -65 -342
-75 -521 -3 -49 -8 -162 -11 -250 l-6 -160 51 -37 c50 -37 70 -46 70 -30 0 4
18 19 41 32 l41 25 -7 205 c-8 258 -20 414 -46 560 -28 165 -44 226 -53 211z
m4 -521 l0 -480 -40 26 -40 27 0 136 c0 191 15 389 45 591 14 96 25 175 25
177 0 2 2 3 5 3 3 0 5 -216 5 -480z"/>
<path d="M1392 2890 c0 -14 2 -19 5 -12 2 6 2 18 0 25 -3 6 -5 1 -5 -13z"/>
<path d="M1540 2887 c0 -8 -3 -23 -7 -33 -4 -12 -3 -15 5 -10 9 5 12 -108 12
-468 0 -331 -3 -476 -11 -476 -6 0 -26 12 -46 27 l-36 28 7 205 c6 207 25 404
51 560 16 88 18 116 11 109 -3 -3 -17 -79 -31 -169 -24 -151 -35 -268 -53
-592 -7 -108 -13 -140 -28 -126 -15 16 -24 248 -22 566 2 193 0 352 -3 352
-11 0 -29 -290 -40 -630 -6 -184 -15 -342 -21 -350 -8 -13 -9 -12 -4 2 13 43
-33 496 -65 632 -19 79 -23 87 -31 66 -35 -95 -78 -437 -78 -630 0 -65 -3 -90
-10 -80 -5 8 -10 62 -11 120 -1 70 -4 92 -8 65 l-7 -40 -7 48 c-5 26 -13 47
-18 47 -6 0 -9 138 -9 381 1 209 -1 383 -4 386 -3 4 -6 -2 -6 -13 0 -10 -7
-90 -15 -176 -8 -86 -17 -294 -21 -461 -7 -301 -7 -305 14 -335 24 -32 30 -54
10 -34 -30 30 -95 2 -119 -52 l-17 -39 -21 40 c-19 39 -57 63 -98 63 -23 0
-63 -47 -63 -75 0 -22 4 -25 39 -25 44 0 87 -29 102 -69 8 -20 7 -28 -5 -37
-23 -16 -21 -101 4 -148 14 -28 20 -62 21 -123 1 -46 -2 -87 -6 -91 -12 -12
-34 29 -40 77 -9 67 -12 71 -44 71 -20 0 -36 -9 -51 -27 -26 -33 -21 -61 25
-158 18 -38 31 -72 28 -75 -3 -3 -18 11 -35 30 -67 78 -86 170 -48 232 11 18
20 41 20 50 0 22 -30 38 -70 38 -74 0 -91 -38 -60 -136 45 -146 35 -158 -243
-328 -70 -43 -130 -76 -133 -74 -2 3 56 63 130 134 130 124 137 129 178 129
l43 0 -3 65 c-4 99 -12 144 -24 132 -6 -6 -8 -37 -3 -81 4 -39 6 -74 5 -78 0
-5 -14 -7 -31 -5 -26 2 -50 -19 -209 -175 -99 -97 -179 -178 -177 -180 2 -2
75 22 163 53 87 31 188 66 224 78 56 20 65 26 72 54 5 18 13 32 18 32 20 0 98
-42 116 -61 18 -20 17 -22 -13 -78 -18 -33 -28 -62 -23 -67 5 -5 -27 -129 -71
-279 -43 -148 -77 -274 -76 -279 3 -10 138 147 303 352 74 91 75 93 64 130
-15 54 -13 62 16 62 26 0 27 -1 21 -52 -3 -29 -20 -145 -36 -257 -17 -113 -29
-206 -27 -208 3 -3 31 59 130 291 50 116 54 133 49 179 l-6 51 41 -30 c23 -16
44 -35 46 -42 3 -6 -9 -28 -26 -47 l-30 -35 27 -143 c70 -369 96 -501 99 -504
3 -3 44 210 106 541 l20 110 -31 32 c-31 32 -31 34 -15 58 19 30 52 50 71 43
9 -4 11 -19 8 -51 -6 -48 -2 -61 120 -343 33 -79 62 -141 63 -140 2 2 -15 124
-36 271 -22 148 -40 270 -40 272 0 8 39 3 45 -6 3 -5 -1 -26 -10 -46 -15 -37
-15 -37 22 -81 21 -24 54 -64 73 -87 101 -124 264 -315 266 -313 5 5 -130 483
-152 541 -7 19 0 20 27 5 16 -8 12 5 -20 69 -45 90 -44 95 33 127 46 19 70 13
61 -15 -5 -15 0 -22 17 -29 74 -31 398 -141 413 -141 11 0 -49 65 -156 170
-157 153 -177 169 -201 164 l-28 -6 0 93 c0 51 -2 90 -4 88 -3 -3 -10 -40 -16
-84 -7 -44 -14 -93 -16 -110 -5 -29 0 -33 170 -145 166 -110 204 -140 154
-124 -27 8 -300 114 -310 120 -3 2 -1 17 5 33 9 26 8 31 -17 53 -40 34 -45 99
-17 194 33 108 7 147 -85 130 -46 -9 -53 -30 -24 -80 39 -69 25 -153 -39 -226
-23 -27 -30 -31 -31 -17 0 10 11 37 24 60 47 81 42 160 -10 173 -39 10 -52 -2
-60 -53 -4 -26 -13 -61 -20 -78 -12 -29 -13 -29 -21 -8 -4 12 -12 23 -18 25
-18 6 -5 98 25 174 33 82 38 135 15 154 -22 18 -19 35 17 76 29 32 36 36 70
31 25 -3 38 -1 39 6 5 49 -19 83 -62 89 -39 4 -75 -20 -95 -64 l-18 -40 -17
40 c-18 41 -52 72 -80 72 -9 0 -28 -9 -41 -20 -14 -10 -28 -16 -32 -13 -11 11
-6 21 14 26 11 3 24 17 30 31 5 14 14 26 20 26 18 0 64 -27 84 -49 l19 -21 26
24 c14 13 36 29 49 35 21 11 22 16 22 169 0 244 -34 570 -79 772 -10 44 -21
64 -21 37z m-338 -749 c-5 -277 -22 -348 -22 -93 0 126 17 364 25 353 1 -2 0
-119 -3 -260z m-102 -293 c0 -8 -4 -15 -10 -15 -5 0 -10 7 -10 15 0 8 5 15 10
15 6 0 10 -7 10 -15z m77 -87 c-2 -18 -4 -6 -4 27 0 33 2 48 4 33 2 -15 2 -42
0 -60z m-136 -15 c1 -10 4 -64 8 -121 3 -56 3 -102 -2 -102 -13 0 -47 64 -53
102 -4 21 -13 43 -20 49 -18 15 -18 39 2 67 19 27 64 30 65 5z m329 -16 c0 -5
-4 -5 -10 -2 -5 3 -10 14 -10 23 0 15 2 15 10 2 5 -8 10 -19 10 -23z m121 11
c22 -28 24 -51 4 -68 -8 -7 -15 -21 -15 -31 0 -28 -30 -97 -44 -102 -12 -5
-13 28 -7 196 1 34 34 37 62 5z m-314 -129 c11 -4 28 -23 37 -43 10 -22 22
-34 28 -30 8 5 9 -1 5 -17 -4 -13 -7 -31 -8 -39 0 -8 -9 10 -18 40 -16 52 -19
55 -51 58 -19 2 -41 8 -47 14 -16 13 -17 53 -1 81 11 21 12 20 23 -17 7 -24
19 -42 32 -47z m9 23 c-12 -11 -17 7 -9 34 l8 29 3 -28 c2 -16 1 -31 -2 -35z
m174 -2 c0 -35 -17 -50 -57 -50 -20 0 -36 -7 -42 -17 -6 -10 -10 -13 -10 -8
-1 15 31 51 50 58 9 3 20 22 24 44 6 35 8 37 21 18 8 -10 14 -31 14 -45z
m-404 -88 c-3 -2 -12 -2 -21 1 -10 5 -15 19 -14 49 l0 43 20 -44 c11 -24 17
-46 15 -49z m580 10 c-25 -25 -31 -5 -11 36 l19 37 4 -29 c2 -17 -3 -35 -12
-44z m-451 48 c3 -5 1 -10 -4 -10 -6 0 -11 5 -11 10 0 6 2 10 4 10 3 0 8 -4
11 -10z m312 -12 c-3 -8 -6 -5 -6 6 -1 11 2 17 5 13 3 -3 4 -12 1 -19z m-272
-113 l16 -40 -26 28 c-14 15 -25 38 -25 50 0 28 15 12 35 -38z m245 4 c-7 -16
-16 -29 -21 -29 -12 0 -12 1 7 46 9 22 19 33 21 26 3 -7 0 -26 -7 -43z m-355
-28 c-10 -16 -25 -3 -25 22 0 20 1 20 16 5 9 -9 13 -21 9 -27z m465 19 c0 -13
-7 -20 -20 -20 -23 0 -26 10 -8 28 18 18 28 15 28 -8z m-551 -92 c1 -21 -3
-38 -9 -38 -6 0 -10 25 -9 58 0 41 3 51 9 37 5 -11 9 -37 9 -57z m491 23 c-6
-12 -20 -21 -30 -21 -27 0 -25 9 8 43 20 21 28 25 30 13 2 -8 -2 -24 -8 -35z
m-340 14 c17 -18 21 -28 13 -36 -13 -13 -53 22 -53 46 0 22 13 18 40 -10z m94
-21 c11 -28 6 -39 -9 -20 -8 11 -15 23 -15 28 0 14 18 9 24 -8z m127 -27 c-13
-13 -15 1 -4 30 7 17 8 17 11 -1 2 -10 -1 -23 -7 -29z m-233 -79 c-6 -39 8
-84 28 -92 20 -8 28 17 20 64 -3 22 -3 40 1 40 5 0 18 3 31 6 12 4 22 2 22 -4
0 -5 -9 -12 -21 -15 -31 -8 -23 -59 11 -67 18 -4 25 -12 25 -30 0 -22 -4 -25
-32 -22 -17 2 -34 -1 -38 -7 -4 -7 -16 -2 -32 13 -26 24 -42 97 -30 131 11 27
19 16 15 -17z m351 -64 c-7 -26 -19 -45 -32 -51 -22 -10 -93 -10 -103 0 -12
12 8 46 29 49 31 4 37 57 8 65 -12 3 -21 10 -21 15 0 6 7 7 16 4 9 -3 22 -6
30 -6 12 0 13 -10 8 -49 -4 -33 -2 -51 6 -56 21 -13 44 23 46 73 3 61 4 63 15
27 6 -20 6 -44 -2 -71z m-404 26 c9 -28 15 -56 12 -63 -3 -10 -37 87 -37 107
0 18 10 0 25 -44z m585 2 c0 -10 -6 -27 -14 -38 -14 -18 -15 -18 -21 -1 -5 11
-1 25 10 37 22 25 25 25 25 2z m-693 -64 c-3 -7 -5 -2 -5 12 0 14 2 19 5 13 2
-7 2 -19 0 -25z m544 -11 c-13 -13 -15 1 -4 30 7 17 8 17 11 -1 2 -10 -1 -23
-7 -29z m199 0 c0 -7 -7 -22 -15 -33 -12 -16 -14 -17 -15 -2 0 23 11 48 21 48
5 0 9 -6 9 -13z m-785 -57 c7 -21 0 -40 -16 -40 -5 0 -9 14 -9 30 0 34 15 40
25 10z m858 -71 c10 -18 15 -34 11 -38 -8 -8 -44 37 -44 55 0 23 14 16 33 -17z
m-835 -23 c-4 -29 -27 -83 -65 -153 -33 -59 -91 -166 -128 -238 -67 -128 -85
-159 -85 -139 1 34 128 428 140 435 8 4 30 13 48 19 27 10 33 19 38 52 12 73
60 95 52 24z m713 32 c1 -7 0 -26 0 -43 -2 -21 36 -105 120 -269 66 -131 116
-237 111 -235 -6 2 -39 40 -74 85 -35 45 -94 120 -131 168 -63 79 -68 89 -61
118 4 18 7 55 5 82 -3 56 7 106 20 106 5 0 9 -6 10 -12z m-829 -38 c-12 -12
-22 -18 -22 -14 0 12 33 45 38 39 3 -3 -4 -14 -16 -25z m928 -32 c0 -6 -6 -5
-15 2 -8 7 -15 14 -15 16 0 2 7 1 15 -2 8 -4 15 -11 15 -16z m-910 2 c0 -5 -7
-10 -16 -10 -8 0 -12 5 -9 10 3 6 10 10 16 10 5 0 9 -4 9 -10z m460 -60 c0 -5
-4 -12 -10 -15 -5 -3 -10 -4 -10 -1 0 2 -3 12 -6 20 -5 12 -2 15 10 10 9 -3
16 -10 16 -14z m-185 -33 c6 -38 -1 -63 -55 -198 -60 -149 -87 -208 -76 -164
43 167 98 383 101 393 9 26 24 10 30 -31z m427 8 c12 -50 60 -386 56 -391 -4
-3 -101 336 -116 404 -4 21 -1 23 24 20 22 -2 30 -10 36 -33z m-306 -82 c-12
-24 -13 -46 -6 -124 5 -52 12 -130 15 -174 4 -75 2 -69 -30 85 -19 91 -34 167
-34 170 -1 9 61 81 66 76 2 -2 -2 -17 -11 -33z"/>
<path d="M1093 2735 c0 -22 2 -30 4 -17 2 12 2 30 0 40 -3 9 -5 -1 -4 -23z"/>
<path d="M1413 2705 c0 -22 2 -30 4 -17 2 12 2 30 0 40 -3 9 -5 -1 -4 -23z"/>
<path d="M1103 2615 c0 -22 2 -30 4 -17 2 12 2 30 0 40 -3 9 -5 -1 -4 -23z"/>
<path d="M1423 2560 c0 -36 2 -50 4 -32 2 17 2 47 0 65 -2 17 -4 3 -4 -33z"/>
<path d="M1433 2380 c0 -47 2 -66 4 -42 2 23 2 61 0 85 -2 23 -4 4 -4 -43z"/>
<path d="M1113 2370 c0 -41 2 -58 4 -37 2 20 2 54 0 75 -2 20 -4 3 -4 -38z"/>
<path d="M1433 2255 c0 -22 2 -30 4 -17 2 12 2 30 0 40 -3 9 -5 -1 -4 -23z"/>
<path d="M1123 2180 c0 -25 2 -35 4 -22 2 12 2 32 0 45 -2 12 -4 2 -4 -23z"/>
<path d="M1568 1414 c-2 -25 0 -48 4 -50 5 -3 8 18 8 45 0 64 -7 66 -12 5z"/>
</g>
</svg>
