<?xml version="1.0" standalone="no"?>
<!DOCTYPE svg PUBLIC "-//W3C//DTD SVG 20010904//EN"
 "http://www.w3.org/TR/2001/REC-SVG-20010904/DTD/svg10.dtd">
<svg version="1.0" xmlns="http://www.w3.org/2000/svg"
 width="244.000000pt" height="305.000000pt" viewBox="0 0 244.000000 305.000000"
 preserveAspectRatio="xMidYMid meet">
<metadata>
Created by potrace 1.16, written by Peter Selinger 2001-2019
</metadata>
<g transform="translate(0.000000,305.000000) scale(0.100000,-0.100000)"
fill="#000000" stroke="none">
<path d="M1551 2874 c-19 -73 -59 -309 -66 -389 -4 -44 -8 -91 -10 -105 -2
-14 -7 -122 -10 -241 l-7 -216 30 -12 c17 -7 38 -21 48 -32 23 -25 30 -24 71
11 18 17 40 30 49 30 12 0 14 25 9 183 -9 279 -29 482 -66 665 -20 99 -19 46
0 -74 29 -172 49 -405 50 -585 l2 -156 -40 -26 c-22 -15 -43 -27 -46 -27 -3 0
-5 216 -5 481 0 330 3 478 10 474 7 -4 8 3 4 22 -10 40 -11 40 -23 -3z"/>
<path d="M885 2824 c-41 -186 -61 -359 -75 -641 -10 -216 -6 -273 19 -273 6 0
26 -14 46 -31 l36 -32 32 30 c18 17 40 33 50 36 21 8 22 89 7 382 -10 193 -20
281 -45 415 -31 161 -38 190 -45 190 -5 0 -16 -34 -25 -76z m64 -164 c28 -189
29 -199 42 -447 11 -227 9 -273 -15 -273 -7 0 -21 -9 -31 -20 -10 -11 -22 -20
-27 -20 -4 0 -8 217 -7 483 1 284 5 468 9 447 5 -19 18 -96 29 -170z"/>
<path d="M1116 2427 c2 -422 -2 -469 -23 -297 l-7 55 -8 -50 c-25 -164 -31
-249 -20 -253 28 -9 8 -23 -30 -21 -56 3 -84 -13 -99 -56 -16 -43 -23 -44 -39
-4 -16 38 -52 62 -92 61 -40 -1 -78 -37 -78 -74 0 -27 1 -28 38 -22 34 5 44 2
75 -26 39 -34 49 -73 21 -84 -37 -14 1 -144 67 -227 35 -44 35 -50 8 -75 -49
-44 -64 -115 -29 -136 21 -13 28 -48 10 -48 -5 0 -23 19 -40 42 -21 29 -28 48
-24 62 8 24 8 22 -2 93 -10 73 -22 87 -67 79 -29 -5 -38 -13 -46 -39 -15 -45
-4 -78 73 -211 64 -109 76 -145 57 -175 -10 -15 -13 -7 -26 59 -10 49 -31 87
-77 142 -70 85 -87 166 -48 230 37 60 19 88 -58 88 -73 0 -88 -44 -52 -160 26
-83 19 -133 -22 -170 -26 -24 -28 -30 -18 -50 15 -28 8 -35 -60 -59 -30 -11
-104 -38 -164 -60 -60 -23 -111 -39 -114 -36 -4 4 122 88 253 168 33 20 73 48
89 60 l30 24 -17 60 c-9 32 -17 80 -17 106 0 25 -5 49 -11 53 -9 5 -11 -19 -7
-90 l5 -96 -32 6 c-29 5 -39 -2 -126 -82 -159 -148 -278 -264 -271 -264 4 0
112 34 240 77 212 70 232 78 232 99 0 33 13 37 62 17 64 -25 95 -52 113 -96
17 -43 8 -67 -25 -67 -26 0 -40 -22 -65 -107 -13 -43 -50 -166 -83 -273 -32
-107 -58 -197 -56 -199 5 -5 111 114 325 365 64 75 68 84 59 109 -22 58 -16
65 55 65 l65 0 1 -32 1 -33 7 29 c7 32 28 46 36 24 3 -8 -12 -104 -33 -214
-27 -134 -41 -189 -45 -169 -2 17 -3 9 -1 -17 2 -27 -1 -48 -6 -48 -6 0 -10
-17 -9 -37 l1 -38 18 55 c27 81 67 208 80 260 10 37 14 41 20 25 4 -11 33
-152 65 -313 32 -160 59 -291 61 -290 1 2 30 140 64 308 34 168 63 306 64 308
2 1 13 -30 26 -70 36 -120 49 -161 64 -208 14 -43 15 -44 16 -13 0 27 -11 136
-44 436 l-4 37 74 0 c44 0 74 -4 74 -10 0 -6 -6 -26 -14 -44 -17 -40 -13 -46
79 -152 200 -227 289 -329 292 -333 2 -2 5 -2 8 0 4 5 -18 81 -141 486 -23 77
-27 83 -57 91 -70 18 -32 108 66 155 62 30 77 29 77 -6 0 -23 44 -39 476 -183
20 -7 -26 40 -231 234 -123 116 -132 122 -163 117 l-34 -6 7 84 c4 52 3 87 -3
90 -10 7 -22 -69 -22 -150 l0 -53 43 6 c41 5 44 3 117 -66 41 -39 105 -98 143
-132 37 -34 65 -63 63 -66 -3 -2 -38 15 -78 38 -40 23 -89 51 -108 62 -154 88
-197 119 -213 153 -22 46 -21 65 3 150 25 86 25 90 0 115 -33 33 -140 21 -140
-15 0 -9 11 -33 25 -53 45 -67 31 -125 -59 -243 -63 -84 -77 -132 -55 -200 12
-35 21 -44 56 -58 23 -9 44 -19 48 -22 11 -11 138 -429 133 -435 -3 -2 -34 49
-70 114 -36 64 -94 167 -128 227 -66 118 -90 173 -90 212 0 26 41 113 93 196
43 69 57 102 57 137 0 52 -57 87 -98 62 -15 -10 -35 -125 -27 -161 4 -19 -3
-40 -25 -74 -16 -26 -34 -47 -40 -47 -24 0 -19 29 10 59 36 36 34 55 -9 111
-44 57 -44 57 -2 113 64 85 91 188 56 217 -23 19 -18 39 19 76 28 28 42 34 75
34 38 0 41 2 41 28 0 51 -59 83 -111 61 -18 -7 -38 -27 -50 -50 -21 -42 -39
-51 -39 -20 0 49 -77 93 -123 69 -25 -13 -42 1 -20 17 16 12 16 21 5 120 -6
59 -16 113 -21 119 -4 6 -12 130 -16 276 -13 479 -22 476 -23 -7 -1 -264 -6
-463 -11 -463 -17 0 -21 33 -21 181 0 83 -4 148 -9 145 -4 -3 -11 23 -14 57
-7 73 -45 265 -56 285 -10 18 -46 -122 -61 -238 -6 -47 -14 -114 -19 -150 -7
-53 -9 -34 -10 110 -1 195 -20 541 -30 552 -3 4 -5 -192 -5 -435z m148 -12
c21 -170 26 -207 30 -270 4 -47 2 -65 -4 -55 -7 11 -10 -3 -10 -45 -1 -67 -10
-178 -16 -184 -2 -2 -4 90 -4 205 0 115 -3 254 -6 309 -7 104 -1 127 10 40z
m-117 -537 c-3 -7 -5 -2 -5 12 0 14 2 19 5 13 2 -7 2 -19 0 -25z m180 -10 c-3
-7 -5 -2 -5 12 0 14 2 19 5 13 2 -7 2 -19 0 -25z m-28 -17 c-6 -18 -9 -52 -6
-76 4 -25 2 -47 -3 -50 -19 -11 -17 106 2 142 16 32 20 22 7 -16z m58 -33 c-3
-8 -6 -5 -6 6 -1 11 2 17 5 13 3 -3 4 -12 1 -19z m-240 -20 c-3 -7 -5 -2 -5
12 0 14 2 19 5 13 2 -7 2 -19 0 -25z m-33 -44 c9 -8 16 -20 16 -25 0 -13 -24
-11 -38 3 -9 9 -15 9 -23 1 -16 -16 7 -70 32 -78 18 -6 24 -22 19 -55 -2 -20
-40 -60 -57 -60 -18 0 -53 59 -53 89 0 14 -8 33 -17 43 -48 54 70 134 121 82z
m408 -4 c35 -27 41 -57 17 -78 -10 -9 -19 -27 -19 -40 0 -35 -28 -82 -55 -92
-14 -5 -25 -17 -25 -26 0 -20 -28 -54 -45 -54 -22 0 -4 61 21 70 29 12 31 26
4 40 -15 8 -20 21 -20 51 0 22 4 38 9 35 17 -11 39 5 52 35 15 38 1 57 -29 38
-24 -15 -35 -9 -26 14 11 30 82 34 116 7z m-345 -77 c-3 -10 -5 -4 -5 12 0 17
2 24 5 18 2 -7 2 -21 0 -30z m180 -5 c-3 -7 -5 -2 -5 12 0 14 2 19 5 13 2 -7
2 -19 0 -25z m-36 -18 c5 0 9 -4 9 -10 0 -5 -7 -10 -15 -10 -10 0 -15 9 -14
28 1 16 3 20 6 10 2 -10 9 -18 14 -18z m-351 -81 c14 -28 32 -60 42 -71 25
-29 25 -62 0 -49 -21 11 -82 125 -82 152 0 33 16 20 40 -32z m246 13 c-17 -17
-36 -8 -36 18 0 17 3 18 25 8 22 -10 24 -13 11 -26z m161 6 c-3 -7 -5 -2 -5
12 0 14 2 19 5 13 2 -7 2 -19 0 -25z m220 -2 c-6 -41 -73 -150 -86 -141 -5 3
-12 -3 -14 -12 -4 -14 -5 -13 -6 4 0 13 15 45 34 72 19 27 40 63 46 80 15 42
33 40 26 -3z m-249 7 c-2 -10 -10 -18 -18 -18 -8 0 -16 8 -18 18 -2 12 3 17
18 17 15 0 20 -5 18 -17z m-220 -68 c2 -1 5 -20 9 -41 l5 -39 -25 25 c-14 14
-28 36 -32 48 -6 22 -5 23 17 17 12 -4 24 -9 26 -10z m142 4 c0 8 2 12 4 10 3
-2 1 -20 -4 -39 -5 -22 -8 -27 -9 -13 -1 12 -4 30 -7 40 -5 15 -4 15 5 3 9
-12 11 -13 11 -1z m-82 -73 c24 -68 22 -88 -3 -30 -17 40 -32 103 -23 94 3 -3
15 -32 26 -64z m168 0 c-9 -30 -21 -58 -28 -62 -8 -5 -9 -1 -4 11 4 11 14 41
23 67 21 66 29 53 9 -16z m-266 -33 c0 -5 -5 -15 -10 -23 -8 -12 -10 -11 -10
8 0 12 5 22 10 22 6 0 10 -3 10 -7z m363 -18 c-7 -21 -13 -19 -13 6 0 11 4 18
10 14 5 -3 7 -12 3 -20z m-293 -31 c0 -16 -26 -19 -35 -4 -3 6 -4 14 0 20 8
13 35 1 35 -16z m240 6 c0 -11 -7 -20 -15 -20 -15 0 -21 21 -8 33 12 13 23 7
23 -13z m-358 -106 c-2 -19 -9 -34 -14 -34 -6 0 -7 7 -4 16 3 9 6 32 7 52 0
26 3 32 8 19 4 -10 5 -34 3 -53z m451 -12 c2 -32 1 -48 -4 -40 -5 7 -8 36 -8
63 1 60 6 50 12 -23z m-395 7 c16 -67 14 -107 -2 -49 -24 85 -26 100 -18 100
5 0 14 -23 20 -51z m104 36 c0 -5 -5 -11 -11 -13 -6 -2 -11 4 -11 13 0 9 5 15
11 13 6 -2 11 -8 11 -13z m148 0 c0 -9 -6 -12 -15 -9 -8 4 -12 10 -9 15 8 14
24 10 24 -6z m85 -65 c-18 -75 -30 -95 -20 -32 11 63 26 114 32 108 3 -3 -2
-37 -12 -76z m72 58 c-3 -8 -6 -5 -6 6 -1 11 2 17 5 13 3 -3 4 -12 1 -19z
m-354 -95 c11 -18 27 -16 27 2 0 18 12 19 28 3 18 -18 15 -26 -18 -43 -28 -14
-30 -14 -41 6 -6 12 -13 49 -14 83 -4 59 -4 59 3 11 4 -27 11 -56 15 -62z
m233 -17 c-16 -38 -30 -46 -40 -21 -3 8 -13 15 -21 15 -10 0 -15 7 -13 17 4
23 38 30 38 9 0 -9 5 -16 10 -16 13 0 30 42 32 83 1 26 2 24 5 -10 2 -23 -3
-57 -11 -77z m154 -37 c0 -6 -9 -5 -20 1 -11 6 -20 21 -20 33 l1 22 19 -24
c11 -13 20 -27 20 -32z m-530 34 c0 -5 -7 -16 -15 -27 -16 -21 -35 -13 -35 15
0 14 7 19 25 19 14 0 25 -3 25 -7z m392 -85 c-6 -6 -7 0 -4 19 5 21 7 23 10 9
2 -10 0 -22 -6 -28z m-488 -189 l6 -62 -57 -71 c-32 -39 -63 -77 -70 -84 -6
-7 -29 -34 -50 -60 -21 -26 -57 -67 -81 -92 l-42 -45 56 105 c157 294 203 370
224 370 4 0 10 -28 14 -61z m366 32 c0 -9 -20 -37 -20 -29 0 3 -2 13 -5 21 -4
8 0 14 10 14 8 0 15 -3 15 -6z m160 -178 c17 -90 30 -168 28 -175 -6 -18 -81
243 -80 281 1 34 10 67 16 60 2 -2 18 -77 36 -166z m-258 130 c23 -21 23 -25
-5 -54 l-22 -25 -2 48 c-2 52 1 56 29 31z m193 -33 c0 -46 -10 -51 -27 -15 -8
19 -8 28 2 40 20 24 26 18 25 -25z m-40 -27 c39 -42 42 -65 21 -139 -8 -27
-24 -101 -35 -164 -26 -146 -42 -199 -36 -120 24 298 27 392 17 416 -25 54
-14 57 33 7z"/>
<path d="M1332 2710 c0 -19 2 -27 5 -17 2 9 2 25 0 35 -3 9 -5 1 -5 -18z"/>
<path d="M1101 2714 c0 -11 3 -14 6 -6 3 7 2 16 -1 19 -3 4 -6 -2 -5 -13z"/>
<path d="M1323 2510 c0 -41 2 -58 4 -37 2 20 2 54 0 75 -2 20 -4 3 -4 -38z"/>
<path d="M1093 2495 c0 -44 2 -61 4 -37 2 23 2 59 0 80 -2 20 -4 1 -4 -43z"/>
<path d="M1025 780 c-4 -45 -5 -83 -2 -86 2 -3 8 32 11 77 4 44 5 83 3 85 -3
3 -8 -31 -12 -76z"/>
<path d="M1013 635 c0 -22 2 -30 4 -17 2 12 2 30 0 40 -3 9 -5 -1 -4 -23z"/>
</g>
</svg>
