<?xml version="1.0" standalone="no"?>
<!DOCTYPE svg PUBLIC "-//W3C//DTD SVG 20010904//EN"
 "http://www.w3.org/TR/2001/REC-SVG-20010904/DTD/svg10.dtd">
<svg version="1.0" xmlns="http://www.w3.org/2000/svg"
 width="244.000000pt" height="305.000000pt" viewBox="0 0 244.000000 305.000000"
 preserveAspectRatio="xMidYMid meet">
<metadata>
Created by potrace 1.16, written by Peter Selinger 2001-2019
</metadata>
<g transform="translate(0.000000,305.000000) scale(0.100000,-0.100000)"
fill="#000000" stroke="none">
<path d="M1075 2482 c0 -460 -6 -562 -31 -541 -10 8 -14 36 -14 102 0 192 -67
793 -87 774 -2 -3 5 -63 17 -133 25 -163 38 -310 46 -545 l7 -185 -39 -24
c-21 -14 -42 -26 -46 -28 -5 -2 -8 212 -8 475 0 312 4 473 10 463 8 -12 10
-10 10 10 0 49 -16 54 -29 8 -44 -166 -81 -523 -81 -787 l0 -150 28 -15 c15
-8 35 -23 45 -34 19 -21 19 -20 64 14 24 19 50 34 57 34 6 0 20 -13 29 -30 10
-16 24 -30 32 -30 9 0 12 -6 8 -16 -5 -13 -8 -12 -25 5 -38 42 -106 13 -129
-56 l-12 -37 -19 40 c-26 51 -44 64 -89 64 -43 0 -69 -27 -69 -72 0 -25 2 -26
35 -21 30 5 39 1 70 -30 37 -37 45 -71 20 -81 -19 -7 -19 -52 -1 -108 12 -35
23 -212 17 -253 -3 -20 -31 58 -31 87 0 63 -39 86 -88 52 -32 -22 -29 -77 8
-150 37 -74 39 -96 5 -64 -32 30 -75 120 -75 157 0 15 11 46 25 68 13 22 25
46 25 54 1 41 -95 56 -130 21 -25 -25 -25 -45 1 -132 27 -87 22 -143 -16 -175
-22 -19 -25 -28 -20 -56 6 -33 5 -34 -42 -51 -26 -10 -77 -29 -113 -43 -123
-48 -164 -63 -168 -58 -2 2 76 56 173 121 174 115 177 118 172 148 -3 17 -11
69 -18 116 -10 64 -14 79 -20 60 -4 -14 -4 -55 -1 -93 l5 -67 -31 6 c-29 6
-40 -3 -206 -167 -96 -95 -174 -175 -171 -177 6 -7 439 148 446 160 4 6 5 17
2 25 -3 7 1 15 9 18 17 7 109 -31 120 -48 4 -6 -11 -44 -33 -84 -21 -40 -39
-75 -39 -78 0 -3 9 -1 20 5 29 16 28 5 -41 -233 -83 -285 -88 -307 -80 -307 7
0 65 68 253 297 l117 143 -15 35 c-17 41 -12 55 18 55 17 0 19 -4 14 -33 -23
-127 -56 -386 -51 -405 4 -15 2 -21 -5 -17 -6 4 -10 -5 -10 -22 0 -15 -3 -39
-5 -53 -9 -39 27 35 110 234 62 147 75 188 75 232 0 59 9 66 48 38 43 -30 46
-51 13 -90 -22 -24 -30 -42 -26 -57 3 -12 14 -71 25 -132 24 -134 89 -476 93
-490 2 -5 11 28 19 75 9 47 34 177 56 290 22 113 43 222 46 242 6 31 2 41 -24
71 -16 19 -30 39 -30 45 0 15 59 62 77 62 13 0 15 -8 10 -41 -4 -33 3 -60 37
-142 85 -203 139 -327 142 -324 2 1 -13 108 -32 237 -18 129 -35 244 -36 255
-2 15 4 21 26 23 27 3 28 2 22 -25 -17 -69 -17 -78 1 -98 10 -11 53 -63 97
-115 159 -193 259 -310 262 -307 2 2 -17 72 -42 157 -24 85 -60 210 -80 278
-19 67 -32 127 -29 132 4 6 -6 35 -21 65 -26 55 -26 56 -8 77 23 25 100 61
114 53 6 -3 10 -14 10 -24 0 -10 6 -23 13 -28 15 -12 449 -164 454 -159 2 1
-79 83 -179 180 -171 166 -185 177 -213 172 l-31 -6 3 97 c3 117 -11 90 -21
-40 l-6 -88 43 6 42 7 140 -137 c77 -75 132 -134 122 -131 -39 12 -349 210
-364 232 -23 36 -27 97 -9 150 20 60 21 118 0 138 -21 21 -86 20 -113 -1 l-21
-18 26 -49 c42 -79 26 -155 -50 -241 -45 -50 -45 -38 -1 49 56 109 44 186 -29
186 -29 0 -29 1 -46 -87 -8 -41 -18 -63 -26 -63 -21 0 -19 166 1 208 26 51 31
129 11 151 -36 40 25 111 95 111 32 0 39 4 39 19 0 33 -11 51 -42 67 -45 23
-92 4 -115 -46 -10 -22 -20 -40 -23 -40 -4 0 -12 16 -19 35 -15 43 -60 69
-103 60 -28 -7 -29 -6 -19 13 6 12 16 24 21 27 12 8 13 250 0 520 -9 206 -30
458 -38 451 -2 -3 -3 -178 -2 -390 0 -259 -3 -386 -9 -386 -6 0 -14 -19 -18
-42 l-8 -43 -6 45 c-4 32 -7 16 -8 -60 -4 -168 -17 -160 -24 15 -7 180 -29
367 -56 492 -21 94 -27 106 -36 72 -38 -163 -53 -274 -74 -562 -8 -108 -21
-155 -21 -81 -3 315 -38 966 -53 980 -1 2 -2 -194 -2 -434z m210 -382 c3 -154
1 -203 -5 -155 -12 101 -19 447 -8 410 5 -16 11 -131 13 -255z m-138 -232 c-3
-8 -6 -5 -6 6 -1 11 2 17 5 13 3 -3 4 -12 1 -19z m243 -23 c0 -8 -4 -15 -10
-15 -5 0 -10 7 -10 15 0 8 5 15 10 15 6 0 10 -7 10 -15z m-93 -82 c-2 -16 -4
-3 -4 27 0 30 2 43 4 28 2 -16 2 -40 0 -55z m-261 -14 c4 -7 8 -60 8 -119 1
-88 -1 -105 -12 -94 -17 17 -42 78 -42 102 0 11 -7 25 -15 32 -20 17 -19 32 6
64 22 28 43 33 55 15z m75 -22 c-8 -8 -11 -7 -11 4 0 20 13 34 18 19 3 -7 -1
-17 -7 -23z m379 13 c24 -24 26 -53 5 -70 -8 -7 -15 -23 -15 -37 0 -25 -33
-98 -49 -108 -11 -6 -8 206 3 224 11 17 34 13 56 -9z m-125 0 c3 -5 2 -10 -4
-10 -5 0 -13 5 -16 10 -3 6 -2 10 4 10 5 0 13 -4 16 -10z m-66 -97 c1 -7 -3
-13 -9 -13 -5 0 -10 15 -9 33 0 27 2 29 9 12 5 -11 9 -26 9 -32z m61 -10 c0
-31 -12 -55 -26 -52 -5 1 -21 1 -36 0 -24 -1 -29 -8 -45 -57 l-17 -55 -17 51
c-20 63 -20 63 -66 64 -35 1 -38 3 -41 34 -3 34 13 66 29 56 5 -3 9 -16 9 -30
0 -17 8 -27 25 -34 15 -6 32 -25 41 -45 8 -19 16 -35 19 -35 3 0 11 16 19 35
9 20 26 39 41 45 15 6 25 17 25 29 0 11 3 26 6 35 9 24 34 -6 34 -41z m-413
-50 c6 -21 9 -40 6 -43 -8 -9 -33 33 -33 57 0 35 14 28 27 -14z m136 17 c3
-11 1 -23 -4 -26 -5 -3 -9 6 -9 20 0 31 6 34 13 6z m463 -36 c-4 -13 -13 -24
-21 -24 -19 0 -19 -1 2 46 12 29 18 34 21 21 2 -10 1 -29 -2 -43z m-146 25 c0
-5 -4 -9 -10 -9 -5 0 -10 7 -10 16 0 8 5 12 10 9 6 -3 10 -10 10 -16z m-285
-95 c21 -50 18 -64 -5 -34 -17 22 -28 70 -15 70 3 0 12 -16 20 -36z m250 -20
c-24 -36 -28 -24 -8 22 12 28 18 34 21 21 2 -10 -4 -29 -13 -43z m-272 -91
c-19 -7 -53 16 -53 35 0 24 -19 42 -36 35 -10 -4 -14 3 -14 22 0 27 2 26 57
-30 32 -32 52 -60 46 -62z m387 87 c0 -13 -7 -20 -20 -20 -25 0 -26 16 -2 29
23 14 22 14 22 -9z m-560 -63 c11 -68 6 -102 -11 -76 -9 14 -13 156 -5 148 3
-3 10 -35 16 -72z m631 -54 c-9 -15 -10 -13 -11 13 0 17 3 47 8 65 7 33 7 33
10 -13 2 -26 -2 -56 -7 -65z m-121 68 c0 -21 -46 -56 -54 -42 -7 10 31 61 45
61 5 0 9 -8 9 -19z m-250 -47 c0 -8 -4 -12 -10 -9 -5 3 -10 13 -10 21 0 8 5
12 10 9 6 -3 10 -13 10 -21z m121 -7 c-8 -8 -11 -7 -11 4 0 9 3 19 7 23 4 4 9
2 11 -4 3 -7 -1 -17 -7 -23z m-238 -90 c-4 -32 0 -48 14 -66 30 -37 46 -19 38
40 -6 39 -4 49 8 49 10 0 14 -11 13 -37 -1 -31 3 -38 24 -43 18 -4 25 -13 25
-29 0 -21 -5 -24 -40 -25 -22 -1 -50 2 -61 7 -26 11 -46 73 -38 116 10 46 22
38 17 -12z m355 -18 c-4 -50 -9 -66 -28 -81 -13 -11 -30 -16 -39 -12 -18 7
-30 8 -51 3 -10 -3 -15 4 -15 21 0 18 7 26 25 30 34 8 41 55 9 65 -27 9 -6 25
22 18 17 -5 19 -12 13 -53 -7 -53 3 -67 32 -45 15 10 19 25 17 64 0 29 3 51 9
51 7 0 9 -23 6 -61z m47 -25 c-9 -30 -20 -53 -22 -50 -3 3 3 33 13 67 10 33
20 56 22 49 2 -6 -4 -36 -13 -66z m-555 -15 c0 -5 -6 -9 -14 -9 -15 0 -26 21
-26 48 1 14 5 12 20 -7 11 -13 20 -27 20 -32z m663 -14 c4 -8 2 -17 -2 -20 -5
-2 -11 4 -14 15 -6 23 8 27 16 5z m-543 -21 c0 -8 -4 -12 -10 -9 -5 3 -10 13
-10 21 0 8 5 12 10 9 6 -3 10 -13 10 -21z m-180 -38 c0 -6 -7 -2 -15 8 -8 11
-15 25 -15 30 0 6 7 2 15 -8 8 -11 15 -25 15 -30z m780 -30 c0 -27 -15 -42
-25 -26 -8 13 3 50 16 50 5 0 9 -11 9 -24z m-850 -49 c0 -7 -14 -28 -31 -47
-33 -38 -33 -35 -4 23 19 37 35 48 35 24z m114 -39 c4 -24 5 -59 4 -78 -2 -19
1 -51 5 -70 7 -33 2 -41 -85 -149 -51 -63 -110 -137 -132 -165 -49 -64 -45
-60 -51 -54 -3 3 8 29 23 59 170 319 205 396 208 444 3 59 2 55 13 55 6 0 12
-19 15 -42z m713 34 c7 -4 16 -27 22 -51 11 -48 20 -58 69 -67 30 -6 34 -11
52 -73 11 -36 41 -139 68 -228 28 -93 43 -158 35 -152 -7 6 -13 14 -13 18 0 4
-48 95 -106 201 -150 274 -146 266 -152 316 -5 43 1 51 25 36z m107 -38 c4
-12 2 -12 -14 -4 -11 6 -20 15 -20 20 0 14 28 1 34 -16z m-914 -23 c0 -11 -31
-24 -39 -16 -3 3 1 10 9 15 19 12 30 12 30 1z m906 -5 c20 -21 17 -28 -6 -16
-11 6 -20 15 -20 20 0 14 9 12 26 -4z m-460 -41 c18 24 17 7 0 -24 -13 -24
-14 -24 -25 -3 -14 27 -14 53 1 28 11 -19 11 -19 24 -1z m-206 -25 c0 -5 -6
-29 -14 -52 -8 -24 -33 -116 -57 -206 -23 -89 -44 -161 -46 -158 -5 5 56 407
64 419 6 11 53 9 53 -3z m394 -8 c18 -56 105 -396 102 -399 -3 -4 -127 296
-133 324 -7 29 5 93 17 93 5 0 11 -8 14 -18z m-132 -89 c37 -42 37 -53 3 -223
-38 -187 -41 -180 -20 38 13 139 13 155 -1 178 -19 28 -5 33 18 7z"/>
<path d="M1526 2831 c-38 -174 -56 -344 -68 -620 -10 -236 -9 -286 2 -289 7
-3 30 -20 50 -38 34 -31 39 -33 51 -18 8 9 30 27 51 40 l36 23 -4 148 c-6 215
-23 444 -39 553 -22 144 -27 171 -32 167 -2 -2 8 -89 21 -193 16 -123 27 -270
32 -419 l7 -230 -29 -21 c-16 -11 -35 -24 -42 -28 -10 -6 -12 88 -12 494 1
276 0 504 -3 506 -2 2 -12 -32 -21 -75z"/>
<path d="M1561 2844 c0 -11 3 -14 6 -6 3 7 2 16 -1 19 -3 4 -6 -2 -5 -13z"/>
<path d="M1061 2794 c0 -11 3 -14 6 -6 3 7 2 16 -1 19 -3 4 -6 -2 -5 -13z"/>
<path d="M1372 2745 c0 -16 2 -22 5 -12 2 9 2 23 0 30 -3 6 -5 -1 -5 -18z"/>
<path d="M1053 2695 c0 -22 2 -30 4 -17 2 12 2 30 0 40 -3 9 -5 -1 -4 -23z"/>
<path d="M1363 2605 c0 -33 2 -45 4 -27 2 18 2 45 0 60 -2 15 -4 0 -4 -33z"/>
<path d="M1043 2580 c0 -30 2 -43 4 -27 2 15 2 39 0 55 -2 15 -4 2 -4 -28z"/>
<path d="M1354 2415 c0 -55 1 -76 3 -47 2 29 2 74 0 100 -2 26 -3 2 -3 -53z"/>
<path d="M1034 2355 c0 -60 1 -84 3 -52 2 32 2 81 0 110 -2 29 -3 3 -3 -58z"/>
<path d="M1341 2154 c0 -11 3 -14 6 -6 3 7 2 16 -1 19 -3 4 -6 -2 -5 -13z"/>
</g>
</svg>
