<?xml version="1.0" standalone="no"?>
<!DOCTYPE svg PUBLIC "-//W3C//DTD SVG 20010904//EN"
 "http://www.w3.org/TR/2001/REC-SVG-20010904/DTD/svg10.dtd">
<svg version="1.0" xmlns="http://www.w3.org/2000/svg"
 width="244.000000pt" height="305.000000pt" viewBox="0 0 244.000000 305.000000"
 preserveAspectRatio="xMidYMid meet">
<metadata>
Created by potrace 1.16, written by Peter Selinger 2001-2019
</metadata>
<g transform="translate(0.000000,305.000000) scale(0.100000,-0.100000)"
fill="#000000" stroke="none">
<path d="M1172 2885 c0 -16 2 -22 5 -12 2 9 2 23 0 30 -3 6 -5 -1 -5 -18z"/>
<path d="M886 2878 c-3 -13 -1 -24 4 -26 16 -6 13 -952 -2 -952 -7 1 -29 14
-48 30 l-34 30 2 153 c3 224 33 524 68 677 3 14 3 22 -1 18 -34 -34 -85 -495
-85 -768 l0 -116 39 -22 c21 -12 44 -29 51 -37 11 -13 17 -11 49 13 20 16 45
32 55 36 18 6 19 16 13 229 -4 122 -11 267 -17 322 -12 118 -71 435 -81 435
-4 0 -9 -10 -13 -22z"/>
<path d="M1566 2878 c10 -26 12 -978 2 -978 -3 0 -25 12 -48 28 l-43 27 7 190
c8 222 19 351 48 528 23 145 19 184 -6 50 -36 -198 -56 -422 -58 -651 l-1
-142 38 -26 c21 -14 44 -32 52 -40 13 -13 19 -11 48 15 19 16 43 32 54 36 19
6 21 14 21 78 0 117 -19 446 -30 527 -28 200 -66 380 -82 380 -7 0 -7 -8 -2
-22z"/>
<path d="M1172 2825 c0 -16 2 -22 5 -12 2 9 2 23 0 30 -3 6 -5 -1 -5 -18z"/>
<path d="M1171 2754 c0 -11 3 -14 6 -6 3 7 2 16 -1 19 -3 4 -6 -2 -5 -13z"/>
<path d="M1183 2630 c0 -30 2 -43 4 -27 2 15 2 39 0 55 -2 15 -4 2 -4 -28z"/>
<path d="M1281 2570 l-3 -115 -21 75 -21 75 -19 -65 c-48 -171 -46 -171 -48
-10 -1 80 -6 -33 -10 -250 -10 -477 -14 -499 -48 -302 -30 170 -41 172 -62 9
-10 -81 -10 -102 0 -105 51 -17 81 -85 60 -139 -9 -24 -38 -30 -56 -12 -13 13
-33 4 -33 -15 0 -22 40 -66 60 -66 11 0 27 11 36 25 24 36 35 31 28 -14 -4
-24 -2 -41 5 -45 6 -4 11 -14 11 -23 0 -11 -6 -14 -22 -10 -24 7 -88 -17 -88
-32 0 -5 13 -12 30 -16 16 -4 32 -10 34 -13 7 -11 -6 -62 -15 -62 -13 0 -88
79 -110 115 -11 17 -19 43 -19 58 0 15 -7 30 -15 33 -26 10 -18 60 13 84 21
17 36 21 70 17 39 -4 42 -3 42 20 0 37 -16 60 -51 72 -46 16 -95 -8 -115 -55
-17 -40 -18 -40 -43 8 -42 78 -170 63 -171 -19 0 -20 5 -23 44 -23 33 0 52 -7
75 -25 41 -35 47 -59 22 -92 -17 -20 -20 -34 -15 -62 9 -48 39 -107 81 -159
33 -41 34 -44 19 -65 -77 -104 -76 -101 -46 -140 25 -32 76 -45 97 -25 11 12
12 22 2 61 -10 36 -10 49 -1 60 11 13 19 13 63 -1 l51 -17 -6 -54 c-8 -63 -19
-81 -52 -81 -13 0 -39 -8 -59 -17 -30 -15 -38 -15 -61 -2 -50 27 -78 75 -81
143 -1 33 -6 81 -10 106 -7 42 -10 45 -41 48 -53 5 -75 -21 -70 -83 4 -40 19
-73 76 -169 96 -159 96 -157 -10 -340 -166 -286 -218 -371 -218 -358 0 7 32
109 70 227 l71 213 45 11 c53 13 67 38 67 117 0 58 -10 81 -68 149 -50 60 -71
98 -80 148 -6 31 -2 45 26 88 l33 52 -23 18 c-32 26 -104 26 -131 -1 -25 -25
-25 -42 0 -115 41 -118 23 -160 -93 -230 -131 -79 -288 -165 -300 -165 -7 0 1
11 16 25 16 13 71 63 122 110 139 128 140 128 185 121 21 -3 41 -3 43 1 8 13
-17 215 -25 207 -11 -10 -10 -100 1 -147 l9 -39 -34 7 c-40 7 -21 21 -266
-199 -86 -77 -151 -142 -145 -144 7 -1 118 33 247 75 227 75 235 79 238 106 4
31 15 33 67 11 58 -24 91 -53 110 -95 21 -45 12 -63 -33 -72 -26 -5 -30 -16
-87 -194 -32 -103 -71 -228 -87 -277 -16 -50 -27 -94 -26 -98 2 -5 44 35 94
89 91 99 265 292 296 329 15 17 16 24 4 59 -8 22 -12 43 -9 47 8 15 173 9 203
-7 26 -13 30 -21 30 -57 0 -24 -7 -49 -16 -59 -13 -14 -14 -26 -5 -75 6 -32
11 -77 11 -101 0 -24 6 -56 14 -71 8 -15 33 -115 56 -222 38 -176 50 -223 50
-193 0 22 80 395 87 406 5 7 13 -13 20 -48 l12 -60 -6 55 c-9 80 -5 188 8 243
10 41 9 51 -5 66 -9 10 -16 35 -16 59 0 57 30 72 145 72 85 0 85 0 85 -26 0
-14 -5 -34 -11 -45 -12 -24 -3 -40 67 -114 26 -27 110 -119 187 -203 77 -84
141 -151 143 -149 4 4 -24 100 -119 396 l-52 165 -38 14 c-35 14 -37 18 -31
46 10 49 41 83 99 110 69 33 83 33 87 -1 3 -27 11 -31 233 -105 127 -42 236
-77 243 -77 22 -2 11 13 -47 64 -31 28 -115 103 -187 168 -122 111 -131 118
-162 112 l-33 -6 7 89 c8 110 -10 137 -20 31 -4 -39 -13 -88 -21 -109 -10 -29
-11 -42 -2 -53 10 -13 169 -113 365 -230 61 -36 39 -34 -78 8 -136 49 -264 97
-271 101 -4 2 -2 18 4 36 10 25 9 32 -2 36 -55 18 -67 100 -31 212 25 79 25
82 -3 108 -30 28 -95 30 -128 3 l-23 -19 27 -41 c19 -29 27 -53 27 -86 0 -40
-20 -100 -39 -115 -29 -23 -94 -122 -106 -163 -32 -107 -35 -99 193 -502 28
-49 49 -92 46 -94 -2 -3 -19 12 -36 33 -17 20 -84 99 -150 174 -114 131 -119
138 -112 172 3 19 7 69 9 110 3 84 21 129 103 254 36 54 47 80 50 121 4 46 1
54 -19 69 -28 19 -63 21 -76 4 -15 -21 -34 -135 -27 -163 8 -31 -24 -81 -73
-115 -32 -22 -36 -22 -66 -8 -50 24 -96 31 -112 18 -11 -9 -16 -4 -25 28 -11
44 -4 84 12 60 6 -9 8 -3 6 16 -3 27 1 31 47 48 28 10 51 18 52 18 1 0 7 -9
13 -20 7 -14 7 -33 -1 -66 -14 -54 -3 -68 45 -59 76 14 89 80 29 146 -26 29
-34 45 -27 54 51 73 83 126 92 154 17 49 15 108 -3 115 -24 9 -17 36 20 73 30
30 40 34 77 31 38 -2 43 0 46 20 4 28 -47 82 -78 82 -38 0 -77 -28 -97 -72
l-20 -42 -20 45 c-25 57 -67 78 -113 59 -37 -16 -47 -28 -52 -65 -3 -30 -3
-30 44 -27 40 3 51 0 73 -22 28 -28 32 -58 10 -76 -8 -7 -15 -24 -15 -39 0
-36 -31 -84 -93 -143 l-52 -50 -3 32 c-5 45 2 57 37 65 17 4 31 11 31 16 0 15
-64 39 -89 32 -21 -5 -21 -4 -15 53 4 33 8 61 10 63 2 2 13 -8 25 -22 11 -15
29 -27 39 -27 23 0 50 36 50 68 0 19 -4 23 -17 17 -37 -16 -56 -10 -66 18 -16
48 -1 93 38 116 39 22 39 25 25 126 -12 83 -18 105 -30 105 -9 0 -20 -47 -41
-172 -6 -38 -14 -68 -18 -68 -7 0 -31 374 -41 655 -6 166 -6 167 -9 55z m-60
-355 c-4 -208 -8 -274 -12 -215 -5 74 -6 69 -5 -39 1 -67 -1 -115 -5 -105 -6
16 -8 16 -13 4 -3 -8 -7 -28 -9 -45 -3 -16 -3 -7 -1 20 2 28 7 64 10 80 4 24
3 27 -6 15 -20 -28 2 355 32 528 6 35 12 62 13 60 2 -2 0 -138 -4 -303z m16
-377 c-3 -7 -5 -2 -5 12 0 14 2 19 5 13 2 -7 2 -19 0 -25z m-32 -126 c-5 -41
-3 -53 4 -42 8 12 11 6 11 -24 0 -32 -2 -36 -14 -27 -19 16 -28 70 -20 120 10
61 26 38 19 -27z m-38 -24 c-3 -8 -6 -5 -6 6 -1 11 2 17 5 13 3 -3 4 -12 1
-19z m-247 -104 c14 -43 115 -153 164 -179 44 -24 49 -48 9 -39 -81 19 -203
159 -203 232 0 34 17 26 30 -14z m660 19 c0 -66 -100 -192 -179 -228 -53 -24
-66 -10 -22 24 80 61 139 124 161 171 24 51 40 64 40 33z m-383 -35 c-3 -7 -5
-2 -5 12 0 14 2 19 5 13 2 -7 2 -19 0 -25z m80 -5 c-3 -10 -5 -4 -5 12 0 17 2
24 5 18 2 -7 2 -21 0 -30z m-40 -80 c-3 -10 -5 -4 -5 12 0 17 2 24 5 18 2 -7
2 -21 0 -30z m-68 -50 c7 -37 8 -69 2 -88 -8 -25 -9 -19 -10 38 -1 43 -5 66
-11 62 -6 -4 -10 7 -10 25 0 48 16 27 29 -37z m161 30 c0 -22 -2 -25 -10 -13
-13 20 -13 40 0 40 6 0 10 -12 10 -27z m-20 -75 c0 -36 -3 -49 -10 -42 -10 10
-4 94 6 94 2 0 4 -23 4 -52z m-173 -30 c-3 -8 -6 -5 -6 6 -1 11 2 17 5 13 3
-3 4 -12 1 -19z m-24 -175 c-6 -60 -17 -92 -25 -77 -5 9 20 134 27 134 2 0 1
-26 -2 -57z m204 5 c-3 -7 -5 -2 -5 12 0 14 2 19 5 13 2 -7 2 -19 0 -25z
m-134 2 c3 -11 1 -20 -4 -20 -5 0 -9 9 -9 20 0 11 2 20 4 20 2 0 6 -9 9 -20z
m114 -2 c-3 -8 -6 -5 -6 6 -1 11 2 17 5 13 3 -3 4 -12 1 -19z m-140 -10 c-3
-8 -6 -5 -6 6 -1 11 2 17 5 13 3 -3 4 -12 1 -19z m-17 -103 c0 -9 -6 -12 -15
-9 -8 4 -15 10 -15 15 0 5 7 9 15 9 8 0 15 -7 15 -15z m220 5 c0 -5 -7 -10
-15 -10 -8 0 -15 5 -15 10 0 6 7 10 15 10 8 0 15 -4 15 -10z m-193 -32 c-3 -7
-5 -2 -5 12 0 14 2 19 5 13 2 -7 2 -19 0 -25z m70 -140 c-3 -7 -5 -2 -5 12 0
14 2 19 5 13 2 -7 2 -19 0 -25z m93 -40 c-1 -26 -3 -30 -10 -16 -6 9 -7 23 -4
32 9 25 14 19 14 -16z m-114 -45 c-4 -32 -2 -161 3 -287 6 -126 9 -231 8 -233
-2 -2 -14 48 -26 109 -13 62 -32 156 -43 208 -23 103 -19 216 6 207 7 -3 18 8
25 24 21 48 34 35 27 -28z"/>
<path d="M1155 745 c-3 -31 -5 -59 -2 -61 3 -3 8 20 12 51 3 31 5 59 2 61 -3
3 -8 -20 -12 -51z"/>
<path d="M1303 2580 c0 -25 2 -35 4 -22 2 12 2 32 0 45 -2 12 -4 2 -4 -23z"/>
<path d="M1112 500 c0 -71 1 -72 8 -28 5 26 5 60 0 75 -6 21 -8 8 -8 -47z"/>
</g>
</svg>
