<?xml version="1.0" standalone="no"?>
<!DOCTYPE svg PUBLIC "-//W3C//DTD SVG 20010904//EN"
 "http://www.w3.org/TR/2001/REC-SVG-20010904/DTD/svg10.dtd">
<svg version="1.0" xmlns="http://www.w3.org/2000/svg"
 width="244.000000pt" height="305.000000pt" viewBox="0 0 244.000000 305.000000"
 preserveAspectRatio="xMidYMid meet">
<metadata>
Created by potrace 1.16, written by Peter Selinger 2001-2019
</metadata>
<g transform="translate(0.000000,305.000000) scale(0.100000,-0.100000)"
fill="#000000" stroke="none">
<path d="M881 2864 c-21 -75 -60 -300 -71 -414 -6 -63 -13 -208 -17 -322 l-6
-207 25 -10 c13 -5 38 -21 56 -36 l31 -26 22 25 c12 13 35 30 52 37 l30 13 -7
230 c-6 234 -22 402 -51 537 -8 41 -15 78 -15 83 0 5 -2 7 -5 4 -3 -3 3 -59
14 -124 23 -135 39 -318 47 -544 l6 -155 -42 -27 c-23 -16 -46 -28 -51 -28
-14 0 -12 957 3 962 8 3 8 9 1 23 -10 17 -12 14 -22 -21z"/>
<path d="M1561 2863 c-49 -193 -76 -415 -87 -719 -6 -195 -3 -234 21 -234 7 0
27 -12 44 -26 35 -29 31 -29 94 11 l46 30 1 135 c0 217 -35 593 -61 655 -6 14
-7 10 -4 -15 29 -209 36 -274 45 -395 11 -157 13 -325 4 -349 -3 -9 -12 -16
-19 -16 -6 0 -20 -9 -30 -20 -47 -51 -46 -53 -43 480 2 275 2 500 1 500 -1 0
-7 -17 -12 -37z"/>
<path d="M912 2830 c0 -14 2 -19 5 -12 2 6 2 18 0 25 -3 6 -5 1 -5 -13z"/>
<path d="M1597 2795 c6 -53 8 -61 15 -48 3 4 -1 28 -8 53 l-13 45 6 -50z"/>
<path d="M1215 2538 c-38 -135 -64 -374 -65 -595 0 -94 -14 -125 -25 -55 -13
86 -37 207 -41 211 -10 11 -22 -24 -33 -96 -16 -107 -15 -111 23 -134 38 -22
52 -59 41 -110 -8 -33 -30 -48 -48 -30 -20 20 -37 12 -37 -18 0 -32 22 -61 46
-61 8 0 25 11 38 25 32 34 39 31 31 -14 -6 -34 -4 -40 15 -46 11 -4 32 -24 47
-46 14 -21 27 -39 28 -39 2 0 12 16 24 35 11 19 32 40 47 45 24 10 26 14 20
50 -7 46 2 50 32 15 33 -38 58 -32 80 19 16 36 3 53 -25 35 -28 -17 -49 -6
-56 29 -9 45 2 74 40 108 l35 31 -11 87 c-19 140 -32 153 -51 49 -24 -140 -32
-173 -39 -173 -4 0 -11 89 -14 198 -4 123 -14 239 -26 311 -20 112 -47 221
-56 221 -2 0 -11 -24 -20 -52z m64 -228 c13 -97 23 -251 27 -412 l7 -257 -25
-10 c-14 -5 -28 -18 -32 -27 -20 -53 -26 41 -26 431 0 231 3 438 7 460 l7 40
7 -35 c4 -19 17 -105 28 -190z"/>
<path d="M745 1858 c-35 -20 -46 -37 -43 -64 3 -24 7 -26 52 -28 42 -2 53 -7
77 -36 33 -39 34 -43 16 -62 -7 -7 -16 -21 -20 -32 -13 -32 22 -129 69 -192
24 -32 44 -61 44 -64 0 -4 -13 -19 -29 -34 -16 -16 -35 -42 -42 -58 -10 -25
-9 -33 8 -56 21 -28 67 -45 96 -36 15 5 17 12 12 32 -27 108 -19 118 70 91 47
-15 73 -19 84 -12 26 16 24 32 -6 44 -84 32 -137 66 -173 109 -42 51 -70 106
-70 140 0 32 15 23 29 -17 18 -50 114 -149 172 -179 26 -13 49 -20 53 -17 15
15 3 35 -36 63 -63 45 -126 125 -134 168 -4 20 -15 47 -26 59 -20 22 -20 22 2
52 24 34 56 46 100 37 28 -5 30 -3 30 24 0 32 -20 57 -58 71 -46 17 -96 -12
-107 -62 -9 -39 -19 -37 -46 11 -17 29 -32 43 -58 50 -44 12 -41 12 -66 -2z"/>
<path d="M1435 1854 c-36 -19 -45 -31 -45 -66 0 -27 1 -27 43 -22 72 10 126
-51 86 -97 -10 -12 -19 -31 -19 -43 0 -43 -67 -130 -132 -172 -33 -21 -57 -58
-45 -70 9 -10 73 26 127 72 57 48 110 121 110 149 0 8 5 15 10 15 21 0 9 -58
-21 -106 -52 -83 -118 -132 -222 -168 -21 -7 -19 -25 5 -40 15 -9 73 3 145 31
18 7 26 -53 12 -92 -11 -28 -11 -38 -1 -44 21 -13 80 1 102 24 29 30 21 67
-25 119 -37 40 -37 41 6 96 44 56 65 102 73 154 7 41 5 51 -13 67 -29 27 -27
36 15 75 29 28 43 34 80 34 40 0 44 2 44 25 0 39 -33 65 -84 65 -37 0 -48 -5
-70 -31 -14 -17 -26 -37 -26 -45 0 -25 -19 -15 -33 19 -24 56 -72 77 -122 51z"/>
<path d="M1077 1573 c-34 -18 -34 -31 1 -39 46 -10 50 -12 68 -39 16 -25 37
-167 27 -192 -3 -6 -14 -13 -26 -15 -17 -2 -22 -10 -22 -33 0 -23 5 -30 25
-35 20 -5 25 -12 25 -35 0 -24 -5 -31 -25 -33 -35 -5 -49 -19 -43 -42 6 -21 6
-21 39 -25 34 -3 41 -12 48 -55 4 -23 14 -53 23 -67 l17 -25 18 24 c9 12 20
44 24 69 6 45 8 47 46 53 36 6 39 9 36 34 -2 19 -9 28 -24 30 -29 4 -58 37
-51 57 4 8 17 15 31 15 23 0 36 16 36 46 0 8 -14 20 -31 26 l-32 11 6 73 c10
111 31 147 95 159 17 3 32 10 32 15 0 15 -36 30 -73 30 -27 0 -42 -8 -66 -35
-17 -20 -31 -45 -31 -55 0 -33 -24 -22 -44 20 -23 47 -34 58 -73 69 -20 6 -38
4 -56 -6z"/>
<path d="M572 1520 c-27 -26 -28 -51 -2 -125 11 -32 20 -78 20 -103 0 -38 -5
-50 -33 -76 -26 -24 -32 -36 -26 -51 13 -34 10 -41 -23 -52 -18 -6 -71 -25
-118 -42 -113 -43 -203 -71 -208 -66 -4 4 24 21 248 160 143 88 140 83 115
175 -8 30 -15 69 -15 85 0 17 -5 37 -11 45 -8 11 -9 -12 -6 -82 l5 -96 -31 5
c-22 3 -38 -1 -52 -14 -11 -10 -54 -47 -95 -83 -41 -36 -84 -74 -96 -85 -12
-11 -55 -51 -98 -89 -42 -38 -76 -72 -76 -76 0 -5 51 9 113 29 61 21 172 57
245 81 125 40 133 45 139 71 6 34 6 34 65 14 67 -23 128 -90 128 -140 0 -8
-17 -19 -38 -26 l-38 -11 -54 -166 c-29 -92 -68 -213 -87 -270 -18 -56 -33
-110 -33 -120 1 -16 90 71 160 156 14 16 54 61 90 99 146 156 164 180 149 204
-5 7 -9 26 -9 42 l0 27 89 0 c75 0 93 -3 121 -22 56 -39 59 -53 22 -91 -39
-40 -41 -12 23 -312 19 -93 45 -215 56 -270 11 -55 22 -101 23 -103 2 -1 6 10
9 25 25 115 110 528 118 572 10 52 10 54 -20 85 -17 18 -31 37 -31 43 0 7 17
25 37 40 33 26 45 28 135 31 l99 4 -7 -29 c-16 -72 -16 -84 -2 -96 8 -7 44
-44 79 -83 35 -38 105 -114 154 -168 50 -54 105 -115 122 -135 44 -49 43 -30
-8 127 -48 148 -81 253 -107 337 -16 51 -24 63 -57 80 -20 11 -37 23 -36 28 0
4 1 17 1 29 0 31 77 101 128 116 49 15 62 10 62 -23 0 -21 14 -27 178 -80 97
-31 207 -67 245 -80 37 -12 67 -20 67 -16 0 5 -62 64 -137 132 -76 68 -155
139 -175 158 -61 55 -76 63 -107 56 l-29 -6 4 98 c7 129 -11 103 -20 -30 l-7
-98 45 6 45 7 82 -73 c45 -41 111 -103 148 -138 l66 -63 -100 53 c-179 94
-289 164 -312 199 -28 41 -29 79 -3 150 26 70 25 92 -3 118 -26 24 -72 29
-112 10 -32 -14 -32 -34 0 -80 42 -62 28 -129 -47 -218 -43 -53 -45 -54 -62
-88 -26 -51 -18 -169 13 -179 9 -3 25 -8 36 -13 11 -5 27 -10 35 -13 16 -5
158 -422 148 -433 -4 -3 -12 6 -20 20 -7 15 -63 111 -125 214 -153 258 -157
265 -150 314 3 23 25 72 53 117 107 172 119 209 84 254 -25 32 -74 37 -88 10
-11 -22 -23 -93 -25 -153 -2 -49 -38 -106 -81 -129 -20 -11 -29 -11 -57 3 -17
9 -52 16 -77 16 -42 0 -44 -1 -38 -24 10 -39 -9 -76 -38 -76 -29 0 -46 -25
-46 -67 0 -16 -11 -44 -25 -62 -29 -40 -24 -54 36 -116 l39 -40 -25 -115 c-14
-63 -38 -173 -52 -244 -20 -95 -29 -123 -34 -105 -4 13 -8 150 -8 304 l-2 280
-29 35 c-18 20 -30 46 -30 63 0 41 -17 67 -44 67 -27 0 -36 17 -36 66 0 33 -1
34 -40 34 -21 0 -55 -8 -74 -17 -46 -21 -74 -9 -116 49 -25 33 -30 50 -26 72
7 33 -11 144 -27 164 -14 18 -62 15 -80 -6 -11 -12 -17 -36 -17 -63 0 -36 12
-64 71 -164 70 -119 98 -200 85 -248 -3 -12 -1 -41 5 -65 9 -40 7 -46 -18 -77
-36 -43 -213 -246 -230 -263 -7 -7 -19 -23 -28 -34 -8 -12 -18 -19 -21 -15 -4
4 0 15 9 25 10 10 17 22 17 26 0 3 19 39 42 79 143 249 188 339 188 376 0 61
-36 148 -88 214 -62 78 -68 91 -77 150 -5 32 -4 47 4 47 6 0 11 5 11 11 0 6
10 25 22 41 l21 31 -24 18 c-33 26 -99 25 -127 -1z"/>
</g>
</svg>
