<?xml version="1.0" standalone="no"?>
<!DOCTYPE svg PUBLIC "-//W3C//DTD SVG 20010904//EN"
 "http://www.w3.org/TR/2001/REC-SVG-20010904/DTD/svg10.dtd">
<svg version="1.0" xmlns="http://www.w3.org/2000/svg"
 width="244.000000pt" height="305.000000pt" viewBox="0 0 244.000000 305.000000"
 preserveAspectRatio="xMidYMid meet">
<metadata>
Created by potrace 1.16, written by Peter Selinger 2001-2019
</metadata>
<g transform="translate(0.000000,305.000000) scale(0.100000,-0.100000)"
fill="#000000" stroke="none">
<path d="M885 2887 c-4 -14 -3 -33 2 -44 10 -21 11 -928 1 -938 -4 -4 -25 8
-47 26 l-41 32 0 101 c0 127 16 348 36 491 25 179 27 200 21 195 -8 -7 -34
-161 -47 -272 -13 -116 -29 -528 -21 -545 3 -6 29 -27 58 -46 l52 -35 21 23
c12 13 36 29 52 36 l31 13 -7 215 c-9 300 -33 502 -82 701 -20 77 -21 80 -29
47z"/>
<path d="M1578 2404 c2 -321 0 -504 -7 -504 -5 0 -28 12 -51 27 l-41 27 6 181
c6 210 19 352 46 524 11 68 18 126 15 128 -13 13 -55 -285 -66 -470 -18 -311
-17 -393 8 -401 9 -4 32 -20 51 -36 l34 -31 26 24 c14 12 39 29 55 37 l29 15
-6 215 c-4 118 -14 276 -22 350 -16 134 -56 355 -72 397 -4 12 -7 -205 -5
-483z"/>
<path d="M862 2780 c0 -14 2 -19 5 -12 2 6 2 18 0 25 -3 6 -5 1 -5 -13z"/>
<path d="M1202 2625 c-1 -77 -8 -171 -16 -210 -18 -87 -36 -306 -36 -441 0
-104 -14 -146 -25 -77 -33 197 -48 244 -59 192 -37 -173 -36 -198 8 -226 40
-26 54 -70 36 -114 -12 -29 -42 -39 -55 -19 -3 6 -13 10 -22 10 -12 0 -14 -6
-8 -27 15 -62 61 -81 89 -38 24 37 37 31 30 -14 -6 -36 -4 -40 22 -52 21 -10
30 -23 32 -44 l4 -30 -24 22 c-33 30 -80 34 -114 8 -16 -13 -17 -16 -4 -25 8
-5 24 -10 36 -10 39 0 65 -42 75 -122 12 -89 6 -116 -24 -120 -31 -4 -38 -57
-8 -65 30 -8 31 -73 1 -73 -21 0 -42 -30 -32 -46 4 -6 16 -16 27 -22 19 -11
19 -11 -2 -12 -30 0 -56 40 -47 74 6 25 4 26 -36 26 -23 0 -58 -7 -76 -16 -45
-21 -72 -10 -114 47 -22 32 -30 52 -29 83 1 55 -11 138 -24 154 -13 17 -62 15
-81 -4 -38 -38 -29 -100 26 -186 95 -146 102 -161 101 -213 -1 -46 -14 -72
-145 -293 -78 -134 -144 -237 -146 -230 -1 7 28 105 66 218 l67 204 48 15 c41
13 48 19 57 50 24 88 10 135 -70 230 -73 87 -88 162 -45 221 14 19 25 42 25
52 0 36 -96 51 -138 22 -28 -19 -29 -61 -2 -132 23 -60 19 -118 -11 -156 -16
-20 -365 -226 -384 -226 -13 0 24 37 153 152 l123 110 45 -7 46 -7 -7 94 c-4
51 -11 102 -15 112 -11 32 -20 -63 -10 -114 5 -25 9 -48 10 -53 0 -4 -17 -5
-37 -2 -34 5 -43 1 -84 -37 -45 -42 -320 -289 -328 -295 -2 -2 -2 -5 1 -9 5
-4 164 43 405 122 72 23 83 30 83 50 0 32 13 37 59 23 52 -15 110 -64 128
-107 17 -40 7 -57 -36 -65 -32 -7 -37 -20 -150 -382 -27 -88 -53 -168 -57
-179 -4 -12 -3 -17 4 -15 5 2 99 101 207 219 182 199 196 217 191 245 -14 76
-21 70 85 70 89 0 98 -2 132 -28 20 -15 37 -33 37 -40 0 -6 -14 -26 -32 -44
l-32 -33 33 -157 c60 -294 105 -496 108 -487 7 22 104 488 117 564 l15 85 -29
27 c-38 35 -38 50 0 82 37 31 73 38 165 34 77 -3 73 1 59 -73 -6 -32 -16 -20
225 -284 145 -159 171 -185 171 -172 0 7 -38 134 -85 282 -47 148 -85 271 -85
273 0 1 -18 8 -40 15 -44 13 -46 17 -26 64 18 43 61 82 113 102 51 20 73 15
73 -19 0 -19 7 -27 33 -34 17 -6 124 -40 235 -77 112 -36 208 -65 214 -63 5 2
-48 55 -119 118 -70 63 -149 134 -175 159 -70 65 -85 73 -118 66 l-29 -6 6 90
c7 110 -11 127 -21 20 -3 -39 -11 -79 -16 -89 -24 -44 -13 -64 63 -110 222
-135 328 -202 325 -206 -2 -2 -60 16 -129 40 -272 96 -257 88 -240 131 6 15 0
27 -26 51 -28 27 -33 38 -33 77 0 25 9 74 20 109 25 79 25 93 0 118 -28 28
-102 28 -130 0 -20 -20 -20 -20 10 -67 47 -74 37 -126 -43 -224 -61 -74 -86
-129 -93 -196 -7 -64 -11 -55 193 -411 36 -63 63 -116 60 -118 -3 -3 -72 72
-154 166 -106 123 -147 178 -146 193 2 12 5 61 7 109 5 98 18 132 107 274 59
96 68 154 29 186 -26 21 -63 24 -77 6 -13 -16 -25 -86 -27 -154 -1 -39 -8 -59
-29 -88 -39 -50 -72 -62 -115 -42 -18 9 -51 16 -72 16 -39 0 -40 -1 -40 -34 0
-51 -9 -66 -39 -66 l-26 1 28 15 c15 8 27 20 27 27 0 19 -21 37 -42 37 -10 0
-18 7 -18 15 0 8 -5 15 -11 15 -21 0 -3 34 21 40 28 7 39 42 20 66 -10 11 -9
14 6 14 11 1 44 9 74 20 48 16 57 17 69 5 13 -13 13 -22 2 -66 -11 -43 -11
-53 0 -60 20 -14 70 -2 96 23 36 34 34 41 -42 145 -15 20 -14 24 21 70 71 92
98 198 59 227 -42 31 35 110 102 104 30 -2 38 1 41 16 8 41 -38 86 -88 86 -23
0 -90 -56 -90 -75 0 -29 -20 -24 -36 10 -19 42 -65 69 -100 61 -36 -9 -64 -42
-64 -76 0 -29 0 -30 44 -24 39 6 48 3 70 -19 29 -29 34 -72 11 -81 -8 -3 -15
-18 -15 -33 0 -15 -9 -43 -20 -61 -26 -42 -104 -119 -130 -127 -20 -6 -35 -38
-25 -54 20 -34 176 95 216 178 13 28 27 51 31 51 16 0 7 -45 -19 -98 -34 -66
-92 -118 -176 -154 -50 -21 -62 -31 -60 -47 2 -12 -1 -21 -6 -21 -15 0 -21 29
-15 78 12 100 39 152 78 152 34 0 52 16 38 33 -23 27 -64 28 -104 1 l-38 -24
0 29 c0 23 7 33 28 43 23 11 27 19 25 51 -3 43 8 47 31 12 9 -14 25 -25 36
-25 23 0 50 36 50 68 0 19 -4 23 -17 17 -37 -16 -56 -10 -66 18 -16 48 -1 93
38 116 39 23 40 27 24 134 -11 75 -23 107 -34 95 -4 -4 -16 -61 -28 -127 -11
-67 -24 -118 -28 -114 -4 5 -12 109 -17 233 -9 201 -35 403 -59 460 -8 19 -10
27 -12 43 -1 7 -6 5 -12 -6 -6 -10 -8 -30 -4 -45 10 -38 14 -562 4 -562 -4 0
-10 -8 -13 -17 -3 -10 -3 106 -1 257 2 151 0 336 -4 410 l-8 135 -1 -140z m8
-720 c11 7 13 -25 4 -50 -5 -13 -8 -14 -15 -3 -11 16 -10 -35 0 -107 l7 -50 9
70 c8 66 9 68 18 37 7 -24 7 -39 -3 -57 -8 -15 -10 -37 -6 -62 14 -75 15 -84
3 -80 -7 2 -15 21 -18 43 -5 31 -6 33 -8 11 -1 -21 -5 -28 -18 -25 -24 4 -28
116 -13 393 17 324 25 352 28 97 1 -142 6 -221 12 -217z m27 -27 c-3 -8 -6 -5
-6 6 -1 11 2 17 5 13 3 -3 4 -12 1 -19z m11 -382 c-2 -17 -7 -31 -13 -31 -5 0
-11 14 -13 31 -2 23 1 31 13 31 12 0 15 -8 13 -31z m-54 -460 c9 -66 27 -120
35 -108 4 7 6 -18 5 -54 -2 -36 -5 -69 -8 -72 -9 -8 -7 -52 2 -52 8 0 7 -438
-1 -446 -3 -3 -12 39 -22 93 -9 54 -23 118 -30 143 -19 60 -45 196 -45 229 0
16 12 41 30 61 l30 34 0 -40 c0 -21 5 -46 11 -54 7 -11 8 -1 4 37 -4 29 -2 59
4 70 7 14 6 32 -4 64 -7 24 -14 35 -15 24 l-1 -20 -8 20 c-5 11 -10 41 -13 66
-7 59 17 64 26 5z m101 -54 c-5 -21 -8 -23 -16 -11 -8 14 -2 74 10 94 9 14 14
-53 6 -83z"/>
<path d="M1182 640 c0 -73 1 -79 9 -42 4 23 4 61 0 85 -8 36 -9 30 -9 -43z"/>
<path d="M1262 2680 c0 -14 2 -19 5 -12 2 6 2 18 0 25 -3 6 -5 1 -5 -13z"/>
<path d="M744 1855 c-32 -13 -44 -32 -44 -66 0 -15 7 -19 36 -19 52 0 84 -20
114 -72 8 -14 6 -22 -10 -35 -45 -39 -19 -117 88 -263 11 -15 8 -24 -28 -64
-46 -54 -50 -83 -17 -114 52 -49 119 -34 97 22 -13 35 -13 69 1 83 8 8 29 5
75 -10 49 -16 69 -19 82 -11 29 19 19 34 -39 58 -90 36 -150 90 -193 173 -16
33 -22 83 -8 83 4 -1 18 -24 31 -53 33 -71 133 -162 199 -182 33 -10 29 29 -5
52 -39 26 -111 100 -134 136 -10 18 -19 43 -19 57 0 14 -9 33 -20 43 -27 23
-25 33 10 69 28 27 36 30 75 25 43 -4 45 -3 45 22 -1 34 -20 59 -58 72 -43 15
-82 -6 -106 -55 -18 -36 -21 -38 -30 -21 -22 36 -61 73 -86 78 -14 3 -39 0
-56 -8z"/>
</g>
</svg>
