<?xml version="1.0" standalone="no"?>
<!DOCTYPE svg PUBLIC "-//W3C//DTD SVG 20010904//EN"
 "http://www.w3.org/TR/2001/REC-SVG-20010904/DTD/svg10.dtd">
<svg version="1.0" xmlns="http://www.w3.org/2000/svg"
 width="244.000000pt" height="305.000000pt" viewBox="0 0 244.000000 305.000000"
 preserveAspectRatio="xMidYMid meet">
<metadata>
Created by potrace 1.16, written by Peter Selinger 2001-2019
</metadata>
<g transform="translate(0.000000,305.000000) scale(0.100000,-0.100000)"
fill="#000000" stroke="none">
<path d="M916 2893 c-10 -33 -36 -179 -56 -319 -13 -93 -22 -224 -26 -394 l-7
-255 29 -17 c16 -9 38 -26 48 -37 l19 -21 38 35 c22 19 42 35 47 35 10 -1 34
-21 51 -43 14 -17 13 -18 -20 -12 -42 8 -82 -19 -103 -69 l-13 -31 -15 35
c-20 48 -44 65 -89 65 -45 0 -67 -18 -71 -60 -3 -29 -1 -30 39 -33 33 -2 48
-10 72 -38 34 -38 39 -62 16 -70 -24 -9 -18 -71 14 -165 43 -125 46 -150 21
-178 -27 -32 -39 -19 -49 50 -9 69 -16 79 -51 79 -64 0 -77 -73 -30 -166 51
-101 32 -117 -27 -22 -49 79 -54 131 -18 192 26 45 27 48 10 66 -24 27 -95 27
-118 2 -22 -24 -21 -63 4 -142 26 -83 19 -133 -24 -173 -26 -24 -29 -31 -19
-48 18 -28 15 -35 -15 -47 -235 -92 -316 -122 -320 -118 -3 2 79 60 181 127
114 76 186 130 186 140 0 9 -7 38 -15 65 -8 27 -15 70 -15 96 0 26 -5 50 -12
54 -8 5 -10 -17 -5 -88 l5 -95 -33 1 c-30 1 -50 -15 -210 -173 -96 -95 -174
-175 -172 -177 2 -2 100 30 218 72 118 41 220 77 227 79 6 3 12 15 12 29 0 33
8 36 53 21 82 -28 91 -59 40 -136 -14 -22 -23 -42 -20 -45 3 -4 26 7 51 24 41
28 56 31 56 11 0 -4 -15 -12 -34 -19 -27 -9 -35 -18 -45 -53 -7 -23 -16 -51
-21 -62 -18 -43 -137 -476 -130 -473 8 3 328 386 359 429 11 16 12 27 2 61 -9
27 -9 44 -2 51 15 15 43 0 37 -20 -9 -29 -77 -495 -73 -499 2 -2 15 24 30 59
14 34 56 130 92 212 58 132 65 156 61 196 -3 26 -3 49 0 52 9 9 65 -25 81 -49
15 -24 15 -26 -16 -58 l-32 -33 26 -139 c14 -76 35 -186 46 -244 11 -58 27
-142 36 -188 9 -45 18 -81 20 -78 2 2 12 50 23 107 10 57 37 202 60 323 l41
219 -31 32 c-27 28 -30 36 -21 53 14 27 50 52 74 52 15 0 17 -6 12 -47 -6 -44
0 -63 78 -243 46 -107 91 -208 100 -225 16 -27 17 -28 12 -5 -11 56 -64 425
-61 428 2 1 21 -19 43 -45 149 -181 326 -393 329 -393 3 0 -39 153 -109 392
l-54 188 33 -21 c19 -11 34 -18 34 -15 0 4 -18 42 -40 86 l-40 80 32 20 c63
39 98 38 98 -3 0 -19 16 -28 118 -65 64 -23 159 -58 211 -77 52 -19 97 -33
100 -30 3 3 -71 82 -164 176 -159 159 -172 170 -201 165 l-31 -4 5 89 c3 63 1
89 -7 89 -10 0 -13 -33 -15 -172 -1 -32 0 -33 39 -30 39 3 43 0 170 -128 71
-71 125 -130 119 -130 -11 0 -139 78 -266 163 -42 28 -83 63 -92 78 -20 34
-20 94 -1 149 38 108 -6 166 -99 130 -32 -12 -33 -32 -4 -78 37 -60 23 -147
-36 -217 -36 -43 -44 -23 -14 38 34 70 42 111 27 139 -15 29 -28 38 -56 38
-28 0 -39 -20 -47 -92 -10 -80 -29 -87 -24 -9 1 33 0 61 -4 61 -5 0 -8 -20 -8
-45 0 -27 -5 -45 -11 -45 -19 0 -4 115 26 197 29 83 32 131 10 139 -25 10 -17
48 19 83 27 26 40 32 67 29 30 -3 34 0 37 24 8 64 -86 93 -133 42 -14 -15 -25
-33 -25 -40 0 -29 -19 -22 -37 13 -10 21 -30 45 -46 53 -25 14 -30 13 -59 -3
-22 -12 -34 -15 -42 -7 -7 7 -6 10 5 10 7 0 26 14 41 32 l26 33 48 -34 c38
-27 51 -31 63 -22 9 6 31 21 49 32 l32 21 0 116 c0 232 -44 710 -67 731 -3 3
-3 -14 1 -39 27 -191 47 -415 52 -580 l7 -195 -41 -28 c-23 -15 -44 -27 -47
-27 -10 0 -5 938 5 942 6 2 6 14 1 33 -11 39 -16 27 -41 -115 -26 -146 -50
-348 -50 -425 -1 -122 -17 -27 -24 140 -4 94 -13 224 -20 290 -13 116 -13 108
-15 -285 -2 -223 -5 -399 -8 -392 -16 40 -42 -20 -52 -120 l-7 -73 -7 65 c-4
36 -14 140 -22 232 -12 143 -41 324 -62 393 -6 19 -6 18 -14 -3 -28 -76 -52
-248 -85 -610 -3 -40 -8 -71 -11 -69 -2 3 -8 153 -13 333 -5 181 -16 394 -25
474 -8 80 -15 151 -15 159 0 8 -3 12 -6 8 -4 -3 -6 -193 -5 -421 2 -448 -2
-544 -25 -525 -11 9 -14 44 -14 146 0 74 -4 142 -9 152 -6 9 -11 60 -12 112
-2 97 -10 178 -30 312 -19 124 -22 81 -5 -55 18 -138 36 -414 36 -555 l0 -91
-37 -23 c-21 -13 -41 -25 -45 -27 -5 -2 -8 213 -8 478 0 331 3 479 10 475 7
-4 8 3 4 22 -9 36 -11 38 -18 16z m368 -803 c3 -149 2 -200 -3 -150 -12 106
-20 476 -9 420 4 -25 10 -146 12 -270z m-184 -239 c0 -6 -4 -13 -10 -16 -5 -3
-10 1 -10 9 0 9 5 16 10 16 6 0 10 -4 10 -9z m197 -88 c-2 -16 -4 -3 -4 27 0
30 2 43 4 28 2 -16 2 -40 0 -55z m-262 -13 c9 -14 12 -220 3 -220 -10 0 -48
84 -48 107 0 11 -7 26 -15 33 -21 17 -19 40 7 67 23 24 43 29 53 13z m81 -16
c-4 -9 -9 -15 -11 -12 -3 3 -3 13 1 22 4 9 9 15 11 12 3 -3 3 -13 -1 -22z
m254 -8 c0 -5 -7 -3 -15 4 -8 7 -12 17 -9 22 7 10 24 -9 24 -26z m119 8 c25
-32 26 -47 6 -64 -8 -7 -15 -21 -15 -31 0 -27 -30 -97 -43 -102 -13 -5 -16
191 -3 211 12 19 33 14 55 -14z m-190 -91 c1 -7 -3 -13 -9 -13 -5 0 -10 17 -9
38 1 33 2 34 9 12 4 -14 8 -31 9 -37z m59 -23 c-3 -33 -5 -35 -41 -36 -44 -1
-52 -10 -69 -74 l-12 -45 -16 55 c-13 46 -20 55 -40 58 -63 7 -70 11 -70 45 0
17 5 39 10 47 9 13 11 13 20 0 5 -8 10 -23 10 -33 0 -10 11 -22 25 -27 16 -6
32 -25 43 -51 l17 -41 19 42 c10 23 28 45 41 50 16 6 25 20 30 47 6 36 8 37
21 18 8 -11 14 -36 12 -55z m-412 -35 c17 -42 17 -45 0 -45 -14 0 -26 29 -26
63 0 27 10 20 26 -18z m131 3 c-3 -7 -5 -2 -5 12 0 14 2 19 5 13 2 -7 2 -19 0
-25z m320 -5 c-3 -10 -5 -4 -5 12 0 17 2 24 5 18 2 -7 2 -21 0 -30z m153 14
c0 -26 -25 -65 -35 -55 -8 8 16 78 27 78 4 0 8 -10 8 -23z m-420 -139 c0 -5
-4 -8 -8 -8 -12 0 -42 67 -34 74 6 6 41 -50 42 -66z m252 50 c-10 -34 -30 -64
-37 -57 -7 8 25 79 36 79 4 0 4 -10 1 -22z m-352 -50 c0 -11 -37 -10 -44 1 -4
5 -3 17 0 26 6 15 8 14 25 -1 11 -9 19 -21 19 -26z m457 8 c-4 -9 -16 -16 -27
-16 -11 0 -20 -7 -20 -15 0 -17 -35 -55 -50 -55 -21 0 -8 26 37 71 45 45 74
52 60 15z m-395 -84 c-23 -7 -52 19 -52 46 l1 27 31 -34 c17 -19 26 -37 20
-39z m88 -10 c0 -7 -4 -10 -10 -7 -5 3 -10 16 -10 28 0 18 2 19 10 7 5 -8 10
-21 10 -28z m121 -5 c-8 -8 -11 -7 -11 4 0 9 3 19 7 23 4 4 9 2 11 -4 3 -7 -1
-17 -7 -23z m-217 -163 c29 -21 38 -7 31 47 -4 27 -3 49 2 49 4 0 18 3 31 6
12 4 22 2 22 -4 0 -5 -9 -12 -21 -15 -29 -8 -23 -61 8 -65 21 -3 41 -37 29
-49 -5 -5 -52 -7 -99 -4 -29 2 -50 66 -41 120 l8 46 6 -58 c4 -41 11 -63 24
-73z m346 64 c0 -76 -32 -107 -105 -103 -34 2 -40 6 -40 26 0 16 7 25 25 29
34 8 42 59 11 67 -12 3 -21 10 -21 15 0 6 7 7 16 4 9 -3 23 -6 31 -6 13 0 14
-9 9 -49 -8 -59 7 -76 36 -41 12 15 18 39 18 74 0 36 3 47 10 36 5 -8 10 -32
10 -52z m-532 -23 c8 -17 8 -26 1 -31 -13 -8 -29 13 -29 39 0 25 15 21 28 -8z
m677 -25 c3 -5 1 -10 -4 -10 -6 0 -11 5 -11 10 0 6 2 10 4 10 3 0 8 -4 11 -10z
m-545 -38 c0 -7 -4 -10 -10 -7 -5 3 -10 16 -10 28 0 18 2 19 10 7 5 -8 10 -21
10 -28z m430 8 c0 -5 -5 -10 -11 -10 -5 0 -7 5 -4 10 3 6 8 10 11 10 2 0 4 -4
4 -10z m-610 -36 c0 -19 -16 -18 -24 2 -11 27 -7 37 9 24 8 -7 15 -19 15 -26z
m775 -33 c-7 -32 -25 -43 -25 -15 0 19 20 57 27 51 3 -3 2 -19 -2 -36z m-732
-103 c3 -35 5 -74 4 -88 0 -14 2 -39 6 -55 7 -27 0 -39 -60 -115 -181 -229
-215 -271 -220 -266 -3 3 -1 11 4 18 6 7 63 116 128 242 107 209 116 233 111
268 -4 22 -4 43 -1 49 14 22 24 5 28 -53z m718 41 c4 -8 12 -32 18 -54 9 -35
16 -42 52 -55 l42 -15 57 -190 c89 -298 89 -299 -10 -110 -34 66 -91 172 -126
236 -53 97 -64 124 -64 164 0 46 14 58 31 24z m-847 -14 c-9 -14 -19 -24 -21
-21 -7 7 16 46 28 46 5 0 2 -11 -7 -25z m986 -48 c0 -8 -23 3 -54 26 -13 10
-17 20 -12 33 7 17 10 15 36 -16 16 -19 30 -39 30 -43z m-40 -2 c8 -9 8 -15 2
-15 -18 0 -42 12 -42 21 0 14 26 10 40 -6z m-463 -66 c-15 -21 -15 -21 -26 -1
-15 29 -14 37 4 22 12 -10 16 -9 22 6 4 10 8 13 11 6 2 -6 -3 -21 -11 -33z
m-210 -3 c-2 -6 -28 -97 -57 -203 -30 -106 -56 -190 -58 -189 -2 2 6 66 17
142 37 241 41 263 59 267 24 5 44 -4 39 -17z m409 -13 c3 -16 18 -75 34 -133
72 -264 79 -291 58 -256 -11 19 -22 47 -92 221 -43 107 -49 195 -15 195 5 0
11 -12 15 -27z m100 7 c-3 -11 -9 -29 -12 -41 -8 -26 -20 -14 -27 29 -6 29 -4
32 19 32 21 0 24 -4 20 -20z m-210 -148 c-2 -9 -17 -81 -32 -160 -14 -79 -28
-141 -31 -139 -2 3 3 74 12 160 15 141 15 158 1 186 -25 47 -19 49 20 8 21
-23 33 -45 30 -55z"/>
<path d="M942 2820 c0 -14 4 -38 8 -55 7 -27 8 -27 8 -5 0 14 -4 39 -8 55 -7
27 -8 27 -8 5z"/>
<path d="M1382 2800 c0 -14 2 -19 5 -12 2 6 2 18 0 25 -3 6 -5 1 -5 -13z"/>
<path d="M1561 2794 c0 -11 3 -14 6 -6 3 7 2 16 -1 19 -3 4 -6 -2 -5 -13z"/>
<path d="M1052 2720 c0 -14 2 -19 5 -12 2 6 2 18 0 25 -3 6 -5 1 -5 -13z"/>
<path d="M1372 2690 c0 -19 2 -27 5 -17 2 9 2 25 0 35 -3 9 -5 1 -5 -18z"/>
<path d="M1043 2590 c0 -25 2 -35 4 -22 2 12 2 32 0 45 -2 12 -4 2 -4 -23z"/>
<path d="M1363 2550 c0 -30 2 -43 4 -27 2 15 2 39 0 55 -2 15 -4 2 -4 -28z"/>
<path d="M1033 2465 c0 -22 2 -30 4 -17 2 12 2 30 0 40 -3 9 -5 -1 -4 -23z"/>
<path d="M1032 2385 c0 -16 2 -22 5 -12 2 9 2 23 0 30 -3 6 -5 -1 -5 -18z"/>
<path d="M1354 2275 c0 -71 1 -99 3 -62 2 37 2 96 0 130 -2 34 -3 4 -3 -68z"/>
<path d="M893 1410 c0 -30 2 -43 4 -27 2 15 2 39 0 55 -2 15 -4 2 -4 -28z"/>
</g>
</svg>
