<?xml version="1.0" standalone="no"?>
<!DOCTYPE svg PUBLIC "-//W3C//DTD SVG 20010904//EN"
 "http://www.w3.org/TR/2001/REC-SVG-20010904/DTD/svg10.dtd">
<svg version="1.0" xmlns="http://www.w3.org/2000/svg"
 width="244.000000pt" height="305.000000pt" viewBox="0 0 244.000000 305.000000"
 preserveAspectRatio="xMidYMid meet">
<metadata>
Created by potrace 1.16, written by Peter Selinger 2001-2019
</metadata>
<g transform="translate(0.000000,305.000000) scale(0.100000,-0.100000)"
fill="#000000" stroke="none">
<path d="M967 2900 c-8 -21 -34 -193 -51 -345 -8 -71 -18 -243 -22 -380 l-7
-250 27 -15 c15 -8 32 -22 37 -32 5 -10 21 -18 34 -18 28 0 32 -12 10 -30 -12
-10 -16 -9 -21 4 -7 19 -78 40 -109 32 -22 -6 -45 -43 -45 -75 0 -14 10 -20
40 -25 21 -3 48 -16 60 -28 21 -23 28 -78 9 -78 -8 0 -10 -20 -7 -60 3 -46 14
-80 45 -139 32 -62 38 -82 30 -97 -26 -48 -47 -39 -47 20 0 48 -13 65 -54 68
-23 2 -27 6 -23 26 8 40 -24 62 -88 62 -47 0 -57 -3 -71 -25 -15 -23 -15 -30
0 -90 9 -35 16 -81 16 -102 0 -34 -1 -36 -16 -21 -11 11 -18 41 -22 87 -2 39
-9 74 -15 78 -7 4 -8 -24 -4 -86 l7 -91 -23 5 c-24 6 -72 -39 -187 -175 -25
-29 -68 -80 -97 -114 -28 -33 -50 -62 -48 -64 1 -2 20 4 41 13 83 35 82 35 77
14 -5 -18 -2 -18 48 5 162 72 273 128 285 144 12 16 14 16 38 -7 32 -30 59
-86 52 -109 -3 -10 -19 -22 -34 -28 -25 -10 -30 -20 -45 -85 -9 -41 -39 -166
-67 -279 -27 -113 -49 -209 -47 -214 2 -5 13 7 26 27 26 42 38 47 43 14 2 -17
22 9 84 108 45 72 107 170 137 218 48 76 55 92 46 113 -20 53 -13 64 39 64 51
0 103 -25 121 -58 8 -15 4 -27 -15 -54 l-25 -35 26 -169 c47 -305 76 -478 79
-482 5 -4 16 62 66 386 l41 262 -25 37 c-27 39 -25 53 14 88 16 15 36 20 78
20 l57 0 -3 -51 c-2 -50 1 -57 109 -230 61 -99 120 -191 130 -206 10 -15 19
-32 19 -38 0 -5 5 -10 11 -10 7 0 9 13 5 38 l-6 37 30 -35 c16 -19 30 -32 30
-29 0 6 -83 357 -127 537 -3 15 -17 28 -34 34 -33 11 -36 31 -15 82 14 34 59
76 82 76 8 0 14 -9 14 -21 0 -16 25 -32 128 -79 70 -33 144 -69 164 -80 46
-25 47 -25 41 0 -6 23 -3 24 32 8 43 -20 40 -1 -11 58 -27 31 -73 86 -102 122
-94 117 -131 152 -157 152 l-25 0 6 80 c5 52 3 80 -3 80 -6 0 -13 -34 -15 -76
-3 -41 -11 -80 -18 -87 -9 -10 -11 10 -5 99 6 96 5 113 -10 127 -20 20 -105
23 -123 5 -16 -16 -15 -65 1 -71 6 -3 -6 -6 -29 -6 -51 -1 -64 -15 -64 -66 0
-62 -13 -73 -40 -34 -22 30 -23 33 -7 58 65 102 93 210 64 251 -28 40 15 100
70 100 19 0 33 5 34 13 6 59 -23 90 -86 91 l-47 1 36 31 c33 28 36 35 34 80
-1 40 -2 43 -5 14 -6 -44 -20 -61 -27 -29 -3 13 -7 143 -10 289 -3 146 -13
315 -21 375 -8 61 -15 146 -15 189 0 44 -3 76 -7 73 -3 -4 -12 -2 -20 5 -11 9
-12 2 -7 -45 4 -33 0 -106 -10 -184 -22 -166 -23 -169 -26 -98 l-3 60 -8 -80
c-5 -44 -7 -152 -5 -240 2 -102 1 -129 -3 -75 -6 70 -7 56 -8 -81 0 -91 -4
-175 -7 -187 -5 -16 2 -30 31 -60 21 -22 46 -42 56 -45 18 -7 24 -37 7 -37 -5
0 -20 11 -34 25 -25 24 -60 32 -82 17 -18 -11 -34 -48 -34 -76 0 -23 4 -26 36
-26 23 0 42 -6 50 -17 16 -21 18 -73 4 -73 -5 0 -10 -15 -10 -32 0 -43 -45
-130 -92 -179 -38 -39 -47 -62 -27 -74 14 -9 67 29 107 77 17 22 32 34 32 25
0 -24 -79 -106 -123 -127 l-40 -20 6 59 c9 84 22 110 62 127 41 17 44 28 10
50 -46 30 -75 9 -112 -86 -10 -24 -11 -24 -22 15 -12 47 -44 85 -69 85 -21 0
-62 -27 -62 -40 0 -6 15 -16 34 -24 41 -17 44 -21 51 -77 4 -34 3 -39 -4 -21
-6 12 -15 22 -20 22 -17 0 -90 120 -97 158 -3 20 -11 51 -17 69 -17 50 5 83
55 83 36 0 38 2 38 30 0 45 -42 84 -81 76 -36 -7 -37 3 -3 35 l27 24 -6 275
c-4 151 -11 316 -16 365 -20 174 -44 325 -53 325 -4 0 -8 -6 -9 -12 -1 -7 -4
-2 -9 12 -5 18 -9 21 -13 10z m10 -102 c-2 -13 -4 -3 -4 22 0 25 2 35 4 23 2
-13 2 -33 0 -45z m21 -467 c-2 -266 -7 -411 -13 -411 -6 0 -11 113 -13 312 -3
340 4 552 19 525 5 -9 8 -196 7 -426z m429 62 c-2 -21 -4 -4 -4 37 0 41 2 58
4 38 2 -21 2 -55 0 -75z m-275 -1009 c13 -4 24 -1 29 7 6 10 9 4 9 -18 l0 -31
-38 18 c-40 19 -112 91 -112 112 0 6 20 -9 45 -35 25 -25 55 -49 67 -53z m-7
-115 c-6 -26 14 -59 36 -59 17 0 9 -39 -11 -50 -16 -9 -24 -7 -36 5 -20 19
-37 19 -80 -1 -32 -16 -36 -15 -54 1 -29 26 -25 35 12 28 44 -9 59 14 46 67
-16 62 -8 71 47 52 41 -15 45 -19 40 -43z m45 46 c0 -8 -4 -15 -10 -15 -5 0
-7 7 -4 15 4 8 8 15 10 15 2 0 4 -7 4 -15z m104 0 c3 -8 1 -15 -4 -15 -6 0
-10 7 -10 15 0 8 2 15 4 15 2 0 6 -7 10 -15z m125 -22 c0 -16 -4 -37 -8 -48
-14 -35 6 -58 45 -52 38 6 43 -2 15 -27 -18 -16 -22 -16 -50 -2 -38 20 -65 20
-85 0 -23 -22 -56 -9 -56 22 0 14 7 27 18 31 25 9 31 23 25 53 -4 23 0 28 29
37 57 19 68 16 67 -14z m517 -143 c131 -155 125 -146 89 -127 -16 9 -37 22
-45 29 -29 25 -169 216 -163 222 8 8 7 9 119 -124z m-1206 100 c0 -10 -10 -29
-22 -40 -13 -12 -24 -25 -24 -31 -1 -5 -2 -16 -3 -24 -1 -14 -131 -108 -139
-100 -7 7 26 48 105 132 43 45 79 82 81 82 1 1 2 -8 2 -19z m1018 -117 c-4
-22 -22 -20 -26 1 -2 10 3 16 13 16 10 0 15 -7 13 -17z m-1224 -62 c-17 -28
-110 -89 -120 -78 -4 4 125 107 134 107 2 0 -5 -13 -14 -29z m677 -42 c7 -43
24 -89 34 -89 10 0 27 46 34 88 3 27 12 47 21 50 12 4 13 2 3 -9 -7 -7 -13
-29 -13 -49 0 -36 -28 -101 -45 -104 -16 -2 -45 66 -45 106 0 24 -6 41 -17 48
-17 10 -16 10 2 8 15 -3 21 -14 26 -49z m769 -27 c8 -8 -4 -5 -27 7 -24 12
-43 23 -43 26 0 8 54 -18 70 -33z m-1023 -41 c-4 -32 -20 -87 -37 -124 -16
-36 -30 -68 -30 -72 0 -4 -16 -40 -35 -80 -33 -70 -55 -100 -55 -75 0 21 64
205 72 208 4 2 8 10 8 19 0 8 16 47 35 86 19 39 35 77 35 84 0 7 3 13 6 13 4
0 4 -26 1 -59z m746 -211 c65 -259 71 -299 23 -172 -41 111 -100 378 -78 357
6 -5 31 -89 55 -185z m-73 -101 c0 -6 13 -29 28 -52 33 -49 55 -97 44 -97 -7
0 -76 112 -88 143 -3 10 -1 17 5 17 6 0 11 -5 11 -11z m-870 -114 c-32 -67
-43 -54 -12 13 15 33 28 53 30 45 2 -7 -6 -34 -18 -58z"/>
<path d="M1511 2774 c0 -11 3 -14 6 -6 3 7 2 16 -1 19 -3 4 -6 -2 -5 -13z"/>
<path d="M1442 2755 c0 -16 2 -22 5 -12 2 9 2 23 0 30 -3 6 -5 -1 -5 -18z"/>
<path d="M1537 2600 c3 -47 9 -116 13 -155 7 -54 7 -45 3 40 -3 61 -9 130 -14
155 -6 32 -6 21 -2 -40z"/>
<path d="M1432 2650 c0 -14 2 -19 5 -12 2 6 2 18 0 25 -3 6 -5 1 -5 -13z"/>
<path d="M1227 2585 c-7 -22 -32 -171 -43 -255 -4 -30 -10 -143 -13 -250 l-6
-195 -13 85 c-18 120 -22 140 -32 140 -14 0 -21 -31 -27 -127 -6 -92 -6 -94
21 -122 23 -24 27 -35 24 -77 l-3 -49 -33 3 c-34 4 -34 3 -27 -30 4 -18 12
-39 17 -45 14 -18 47 -16 54 2 9 23 24 7 24 -25 0 -16 7 -30 15 -34 9 -3 24
-25 34 -48 l18 -43 12 38 c7 21 23 45 36 53 18 12 22 22 20 45 -4 30 9 40 19
14 3 -8 16 -15 30 -15 19 0 27 8 36 35 14 42 7 56 -28 53 -26 -3 -27 -1 -30
47 -2 43 1 54 23 75 21 20 25 32 25 80 0 57 -15 159 -26 169 -11 11 -23 -24
-29 -88 -15 -149 -21 -133 -28 64 -6 205 -26 395 -50 475 -11 36 -15 41 -20
25z"/>
<path d="M1564 2200 c0 -91 2 -128 3 -82 2 45 2 119 0 165 -1 45 -3 8 -3 -83z"/>
</g>
</svg>
