<?xml version="1.0" standalone="no"?>
<!DOCTYPE svg PUBLIC "-//W3C//DTD SVG 20010904//EN"
 "http://www.w3.org/TR/2001/REC-SVG-20010904/DTD/svg10.dtd">
<svg version="1.0" xmlns="http://www.w3.org/2000/svg"
 width="244.000000pt" height="305.000000pt" viewBox="0 0 244.000000 305.000000"
 preserveAspectRatio="xMidYMid meet">
<metadata>
Created by potrace 1.16, written by Peter Selinger 2001-2019
</metadata>
<g transform="translate(0.000000,305.000000) scale(0.100000,-0.100000)"
fill="#000000" stroke="none">
<path d="M1392 2900 c0 -14 2 -19 5 -12 2 6 2 18 0 25 -3 6 -5 1 -5 -13z"/>
<path d="M940 2905 c-7 -48 -7 -65 0 -70 9 -5 12 -913 4 -927 -3 -5 -21 5 -41
21 l-36 30 2 153 c2 207 9 321 26 458 16 118 18 156 11 149 -11 -10 -37 -259
-46 -434 -13 -242 -13 -365 0 -365 5 0 25 -13 43 -30 42 -36 47 -37 77 -5 26
27 49 32 68 13 20 -20 14 -36 -12 -31 -29 6 -76 -35 -76 -66 0 -35 -18 -32
-37 6 -36 75 -111 84 -139 17 -19 -44 -12 -54 36 -54 32 0 43 -6 64 -33 31
-40 32 -49 9 -83 -15 -24 -15 -30 0 -97 9 -40 21 -103 27 -141 16 -101 -4
-238 -27 -181 -3 10 0 21 7 25 10 6 11 30 4 106 -8 96 -9 97 -15 44 -3 -33 -6
-43 -7 -23 -3 50 -12 63 -43 63 -61 0 -76 -76 -32 -166 37 -76 18 -91 -25 -20
-41 68 -45 131 -11 195 l23 44 -23 18 c-28 23 -84 25 -105 3 -20 -20 -20 -69
-1 -124 34 -96 12 -163 -72 -220 -124 -85 -221 -149 -258 -170 l-40 -23 40 44
c22 24 83 88 135 142 95 98 95 98 134 91 l39 -6 -6 62 c-4 35 -7 83 -7 106 0
27 -5 44 -11 44 -9 0 -10 -26 -6 -91 l6 -90 -27 6 c-25 5 -39 -6 -137 -108
-186 -192 -228 -237 -224 -242 5 -5 160 51 326 117 88 34 103 43 103 62 0 31
7 35 43 25 63 -18 66 -30 24 -114 -20 -41 -34 -75 -30 -75 5 0 32 16 61 37 35
24 56 33 63 26 16 -16 0 -40 -30 -46 -27 -6 -30 -13 -74 -174 -117 -426 -119
-434 -89 -396 36 45 250 320 285 366 21 27 37 47 37 45 0 -5 -47 -331 -55
-378 l-6 -35 16 30 c8 17 25 55 39 85 13 30 39 91 59 135 78 178 80 183 74
230 -4 24 -3 46 1 49 11 7 62 -20 78 -42 19 -25 17 -37 -13 -72 l-26 -31 27
-157 c15 -86 38 -213 51 -282 13 -69 27 -145 31 -170 l7 -45 9 40 c5 22 20
103 33 180 13 77 36 207 50 288 l26 149 -26 34 c-15 20 -24 41 -21 52 8 22 72
66 85 58 6 -4 8 -27 5 -54 -5 -42 1 -64 69 -222 98 -226 128 -291 122 -260 -6
33 -56 372 -57 390 -1 21 7 15 39 -27 95 -125 171 -222 209 -270 23 -28 47
-60 52 -70 27 -47 16 11 -39 217 -93 351 -86 330 -119 342 -22 7 -30 16 -30
34 0 13 3 24 6 24 3 0 37 -22 75 -50 38 -27 71 -50 74 -50 7 0 -6 30 -41 92
-49 86 -50 94 -15 112 45 24 61 21 61 -12 0 -25 6 -30 48 -44 40 -14 242 -90
335 -127 15 -6 27 -7 27 -3 0 4 -37 45 -81 92 -44 47 -115 122 -157 168 -70
76 -79 83 -106 78 l-29 -6 7 84 c5 55 3 87 -4 91 -6 4 -10 -8 -10 -32 0 -21
-7 -65 -15 -98 -8 -33 -14 -65 -15 -72 0 -11 86 -78 278 -217 29 -21 51 -40
49 -42 -2 -3 -53 16 -113 41 -60 26 -128 54 -152 63 -41 16 -43 18 -37 50 5
26 2 36 -15 50 -32 26 -37 96 -15 194 17 72 17 83 4 107 -20 35 -78 42 -109
11 l-20 -20 25 -48 c36 -68 30 -136 -20 -197 -34 -41 -42 -25 -16 34 26 62 28
122 3 144 -23 21 -61 22 -69 1 -4 -11 -8 -12 -13 -4 -4 7 -11 -39 -16 -101 -7
-100 -9 -108 -14 -64 -8 54 6 231 21 281 12 40 12 101 -1 109 -5 3 -10 19 -10
35 0 39 51 82 94 78 25 -2 32 1 34 18 4 31 -34 74 -67 74 -35 0 -77 -32 -85
-65 -7 -28 -26 -34 -26 -7 0 9 -9 32 -21 51 -17 29 -24 32 -50 27 -29 -6 -34
0 -23 28 10 25 43 19 76 -14 l30 -30 45 37 44 38 -5 240 c-3 132 -12 297 -20
367 -19 167 -55 358 -68 358 -6 0 -8 -14 -4 -32 9 -54 9 -953 -1 -953 -5 0
-21 10 -37 23 l-29 22 7 258 c3 141 13 309 21 372 8 63 14 124 14 135 -2 31
-26 -127 -35 -223 l-8 -87 -7 80 c-4 44 -13 148 -21 230 l-13 150 -5 -445 c-3
-289 -8 -423 -13 -383 -4 34 -12 65 -17 68 -9 6 -31 -27 -29 -42 1 -4 1 -35 0
-68 -2 -81 -21 -52 -21 32 0 34 -4 65 -10 68 -5 3 -10 34 -10 68 0 130 -54
456 -70 426 -21 -40 -59 -298 -60 -406 0 -39 -4 -75 -10 -78 -5 -3 -10 -36
-10 -73 0 -37 -4 -73 -9 -81 -9 -14 -10 2 -31 499 -7 146 -17 308 -24 360 -13
90 -20 92 -18 5 4 -164 3 -897 -1 -901 -3 -3 -11 4 -17 17 -9 16 -13 99 -14
278 0 141 -3 231 -6 201 -4 -46 -7 -31 -18 90 -16 177 -65 450 -72 405z m290
-866 c0 -383 -2 -429 -15 -415 -12 12 -15 50 -17 198 -1 131 -3 163 -8 113 -5
-58 -7 -45 -8 70 -1 77 1 178 6 225 l7 85 6 -85 c6 -76 6 -73 4 30 -1 64 1
106 6 95 5 -13 8 3 8 48 1 37 3 67 6 67 3 0 5 -194 5 -431z m-130 -185 c0 -8
-5 -12 -10 -9 -6 4 -8 11 -5 16 9 14 15 11 15 -7z m290 6 c0 -5 -4 -10 -10
-10 -5 0 -10 5 -10 10 0 6 5 10 10 10 6 0 10 -4 10 -10z m-20 -133 c0 -20 -25
1 -28 24 -2 23 -2 23 13 5 8 -11 15 -24 15 -29z m-323 -15 c7 -25 8 -44 2 -47
-5 -4 -9 -30 -9 -58 -1 -48 -2 -50 -15 -33 -8 11 -15 34 -15 52 0 17 -7 37
-15 44 -19 16 -19 40 1 68 22 31 36 23 51 -26z m83 41 c0 -14 -19 -38 -25 -32
-8 8 5 39 16 39 5 0 9 -3 9 -7z m354 -39 c5 -17 2 -32 -7 -43 -8 -9 -17 -34
-20 -55 -11 -69 -24 -61 -30 18 -8 91 3 132 32 117 10 -6 22 -22 25 -37z
m-294 -50 c0 -19 -4 -33 -8 -30 -8 5 -4 66 4 66 2 0 4 -16 4 -36z m-9 -57 c8
-2 24 -21 34 -42 l18 -39 18 37 c11 20 28 41 39 47 11 6 20 17 20 24 0 20 24
36 39 27 7 -5 11 -22 9 -42 -3 -32 -5 -34 -44 -37 -45 -3 -57 -18 -70 -88 l-7
-38 -14 53 c-17 69 -19 71 -53 71 -47 0 -60 9 -60 44 0 18 6 38 13 45 10 10
15 6 27 -23 8 -19 22 -37 31 -39z m-201 -64 c0 -7 -4 -13 -10 -13 -15 0 -30
36 -29 72 l1 33 19 -40 c10 -22 19 -46 19 -52z m104 45 c3 -16 3 -28 -2 -28
-4 0 -9 14 -10 32 -3 37 2 35 12 -4z m313 -5 c-3 -10 -5 -4 -5 12 0 17 2 24 5
18 2 -7 2 -21 0 -30z m129 5 c-3 -17 -13 -39 -20 -47 -8 -9 -18 -29 -22 -44
-3 -16 -13 -31 -21 -34 -7 -3 -20 -18 -28 -34 -9 -16 -24 -33 -34 -39 -39 -20
-29 8 25 74 31 37 63 87 71 112 17 51 39 60 29 12z m-411 -101 c10 -24 12 -36
4 -32 -10 7 -39 66 -39 82 0 15 19 -13 35 -50z m275 36 c0 -14 -41 -75 -46
-70 -7 6 28 77 38 77 4 0 8 -3 8 -7z m-341 -66 c45 -53 55 -85 21 -67 -12 6
-25 22 -30 35 -5 13 -18 26 -29 30 -15 5 -21 15 -21 38 0 18 4 27 9 22 5 -6
27 -32 50 -58z m115 37 c10 -25 -1 -29 -14 -5 -6 12 -7 21 -1 21 5 0 12 -7 15
-16z m149 -9 c-3 -9 -8 -14 -10 -11 -3 3 -2 9 2 15 9 16 15 13 8 -4z m194
-112 c-4 -17 -4 -17 -12 0 -4 9 -4 25 0 35 8 16 8 16 12 0 3 -10 3 -26 0 -35z
m-530 5 c-3 -8 -6 -5 -6 6 -1 11 2 17 5 13 3 -3 4 -12 1 -19z m203 -4 c0 -8
-4 -12 -10 -9 -5 3 -10 13 -10 21 0 8 5 12 10 9 6 -3 10 -13 10 -21z m121 -7
c-8 -8 -11 -7 -11 4 0 9 3 19 7 23 4 4 9 2 11 -4 3 -7 -1 -17 -7 -23z m-404
-39 c-3 -8 -6 -5 -6 6 -1 11 2 17 5 13 3 -3 4 -12 1 -19z m166 -52 c-4 -35 -1
-48 16 -65 31 -31 43 -18 35 38 -6 48 -6 48 25 53 32 5 42 -5 16 -16 -9 -3
-15 -18 -15 -35 0 -23 5 -30 23 -33 16 -2 23 -11 25 -30 3 -28 -11 -38 -23
-18 -4 6 -15 8 -26 5 -11 -4 -32 -4 -48 0 -22 5 -31 14 -40 46 -12 39 -6 113
9 104 4 -3 5 -24 3 -49z m363 -39 c-10 -56 -25 -68 -86 -70 -52 -1 -55 0 -55
23 0 18 6 26 23 28 17 3 22 10 22 32 0 17 -7 33 -17 39 -15 9 -12 10 15 11
l34 0 -4 -44 c-7 -61 6 -79 33 -46 16 19 20 34 16 67 -2 23 -2 45 2 48 11 12
24 -53 17 -88z m-572 -43 c11 -27 7 -37 -9 -24 -16 14 -20 40 -6 40 5 0 12 -7
15 -16z m751 -53 c-7 -32 -25 -43 -25 -15 0 19 20 57 27 51 3 -3 2 -19 -2 -36z
m-815 -55 c0 -16 -40 -69 -47 -62 -5 5 35 76 43 76 2 0 4 -6 4 -14z m119 -48
c0 -47 -13 -79 -124 -298 -68 -135 -124 -239 -124 -231 -1 17 108 413 115 421
3 3 20 10 37 16 36 12 57 45 57 90 0 29 15 54 32 54 4 0 8 -24 7 -52z m670 -5
c-2 -66 21 -124 162 -405 33 -65 56 -118 51 -118 -4 0 -48 55 -97 121 -166
227 -163 221 -154 253 5 16 8 52 8 80 -1 63 10 126 22 126 5 0 9 -26 8 -57z
m134 15 c45 -56 54 -73 35 -62 -37 22 -95 80 -91 92 8 21 20 14 56 -30z m-467
-93 c10 14 14 15 14 4 -1 -16 -28 -55 -34 -48 -2 2 -7 18 -11 34 -5 26 -5 28
6 11 12 -19 12 -19 25 -1z m-282 -33 c-5 -59 -5 -58 -14 -37 -13 30 -12 57 3
53 6 -3 12 -10 11 -16z m72 0 c-7 -22 -21 -71 -72 -261 -21 -79 -40 -139 -41
-134 -5 13 53 389 62 403 3 5 17 10 31 10 20 0 24 -4 20 -18z m409 -14 c4 -18
29 -114 56 -213 27 -98 48 -183 47 -187 -2 -4 -34 68 -72 160 -53 128 -69 177
-67 211 2 68 24 86 36 29z m75 11 c0 -11 -4 -17 -10 -14 -5 3 -10 13 -10 21 0
8 5 14 10 14 6 0 10 -9 10 -21z m-291 -306 l-1 -268 -24 220 -24 220 22 48
c12 26 23 47 25 47 2 0 2 -120 2 -267z m-49 198 c-8 -16 -7 -60 5 -177 9 -86
14 -158 12 -160 -2 -2 -9 26 -15 64 -7 37 -20 109 -29 159 l-17 93 24 25 c27
28 37 27 20 -4z"/>
<path d="M1382 2800 c0 -19 2 -27 5 -17 2 9 2 25 0 35 -3 9 -5 1 -5 -18z"/>
<path d="M1492 2760 c0 -14 2 -19 5 -12 2 6 2 18 0 25 -3 6 -5 1 -5 -13z"/>
<path d="M912 2750 c0 -14 2 -19 5 -12 2 6 2 18 0 25 -3 6 -5 1 -5 -13z"/>
<path d="M1052 2690 c0 -14 2 -19 5 -12 2 6 2 18 0 25 -3 6 -5 1 -5 -13z"/>
<path d="M1372 2680 c0 -19 2 -27 5 -17 2 9 2 25 0 35 -3 9 -5 1 -5 -18z"/>
<path d="M1043 2580 c0 -25 2 -35 4 -22 2 12 2 32 0 45 -2 12 -4 2 -4 -23z"/>
<path d="M1363 2575 c0 -22 2 -30 4 -17 2 12 2 30 0 40 -3 9 -5 -1 -4 -23z"/>
<path d="M1354 2300 c0 -69 1 -97 3 -62 2 34 2 90 0 125 -2 34 -3 6 -3 -63z"/>
</g>
</svg>
