<?xml version="1.0" standalone="no"?>
<!DOCTYPE svg PUBLIC "-//W3C//DTD SVG 20010904//EN"
 "http://www.w3.org/TR/2001/REC-SVG-20010904/DTD/svg10.dtd">
<svg version="1.0" xmlns="http://www.w3.org/2000/svg"
 width="244.000000pt" height="305.000000pt" viewBox="0 0 244.000000 305.000000"
 preserveAspectRatio="xMidYMid meet">
<metadata>
Created by potrace 1.16, written by Peter Selinger 2001-2019
</metadata>
<g transform="translate(0.000000,305.000000) scale(0.100000,-0.100000)"
fill="#000000" stroke="none">
<path d="M910 2905 c-1 -5 -3 -17 -5 -25 -14 -54 -15 -65 -7 -46 5 11 11 15
15 10 6 -11 7 -925 1 -936 -3 -4 -23 5 -46 19 l-41 28 7 230 c5 151 16 292 32
410 28 211 29 249 3 111 -26 -140 -47 -347 -50 -511 -6 -283 -7 -268 19 -281
12 -6 34 -22 48 -35 17 -16 29 -20 38 -14 7 6 29 21 48 35 31 21 37 31 42 73
5 46 -6 325 -19 492 -12 137 -78 481 -85 440z"/>
<path d="M1367 2845 c-16 -167 -27 -410 -31 -679 -3 -159 -7 -290 -9 -293 -3
-2 -8 65 -11 149 -4 84 -14 209 -22 278 -18 150 -53 309 -64 289 -15 -27 -49
-205 -59 -309 -5 -58 -13 -174 -17 -257 -3 -84 -9 -153 -13 -153 -3 0 -6 91
-5 202 l1 203 -6 -165 -6 -165 -15 70 c-10 50 -15 144 -17 325 -1 140 -3 305
-4 365 -2 105 -2 107 -9 45 -15 -130 -35 -841 -24 -858 6 -9 20 -21 32 -27 23
-10 25 -23 12 -65 l-8 -25 -1 28 c-2 42 -36 70 -78 64 -43 -7 -62 -23 -80 -64
-7 -18 -15 -33 -18 -33 -2 0 -12 16 -21 35 -17 37 -58 65 -92 65 -33 0 -72
-38 -72 -71 0 -28 2 -29 44 -29 38 0 48 -5 75 -35 35 -40 38 -57 16 -75 -34
-28 -8 -140 51 -217 31 -41 30 -68 -6 -122 -17 -24 -30 -57 -30 -73 0 -15 -4
-28 -10 -28 -11 0 -12 4 -16 75 -5 96 -18 150 -37 153 -39 8 -66 -7 -76 -43
-13 -47 1 -92 55 -178 44 -71 53 -97 34 -97 -5 0 -10 5 -10 10 0 6 -22 40 -50
76 -65 85 -69 93 -71 150 -1 35 4 59 20 84 26 43 27 66 2 80 -32 17 -96 12
-114 -8 -22 -24 -21 -49 4 -135 37 -129 18 -153 -237 -302 -75 -44 -142 -81
-148 -83 -6 -2 52 58 129 133 l140 136 43 -6 44 -7 -7 99 c-9 130 -29 152 -22
25 l5 -92 -32 5 c-28 5 -39 -2 -108 -67 -175 -166 -290 -279 -287 -283 4 -3
159 48 367 121 90 32 102 39 102 59 0 35 14 38 70 14 79 -34 130 -106 102
-144 -4 -6 -19 -16 -33 -22 -21 -9 -31 -26 -48 -85 -25 -85 -71 -234 -111
-363 -15 -49 -31 -101 -35 -114 -5 -16 -4 -21 3 -17 16 10 366 417 379 441 9
15 8 26 -4 48 -21 41 -11 57 37 57 34 0 40 -3 40 -22 0 -12 -14 -123 -30 -246
-17 -124 -30 -231 -28 -238 2 -8 38 80 81 194 57 154 77 219 77 255 l0 48 24
-18 c47 -35 49 -49 13 -90 -30 -34 -33 -42 -26 -73 5 -19 34 -163 64 -320 31
-156 57 -286 59 -287 2 -2 90 440 118 595 l12 62 -33 34 -32 33 23 26 c40 45
50 39 52 -28 1 -44 13 -88 44 -165 22 -58 59 -152 81 -210 39 -101 48 -104 32
-10 -5 25 -9 36 -11 25 -2 -19 -109 394 -110 423 0 8 9 12 23 10 18 -2 24 -13
34 -58 l13 -55 -5 58 -5 57 41 0 40 0 -6 -53 -7 -52 186 -218 c103 -119 189
-217 192 -217 4 0 3 8 -1 17 -6 16 -66 216 -116 388 -40 136 -49 157 -79 185
-16 15 -30 37 -30 49 0 31 56 88 105 106 47 19 65 14 65 -15 0 -10 5 -22 11
-26 19 -11 442 -154 446 -150 2 2 -76 79 -173 172 -161 155 -179 169 -209 167
l-34 -2 6 89 c4 65 3 90 -6 90 -7 0 -11 -19 -11 -48 0 -27 -7 -72 -16 -101 -8
-29 -13 -59 -11 -66 5 -11 218 -156 330 -224 48 -29 42 -37 -15 -18 -81 28
-283 109 -291 117 -5 4 -3 17 5 29 11 19 9 24 -19 50 -44 40 -50 81 -24 175
12 42 21 87 21 101 0 48 -80 73 -128 39 -28 -19 -28 -27 3 -72 44 -64 29 -132
-51 -234 -24 -31 -44 -62 -44 -69 0 -9 -3 -10 -11 -2 -8 8 3 34 36 92 57 98
69 157 36 190 -12 12 -34 21 -50 21 -35 0 -42 -20 -46 -134 -1 -43 -6 -81 -11
-85 -5 -3 -14 -15 -20 -26 -12 -21 -35 -27 -41 -9 -2 6 8 17 22 24 22 12 25
19 20 44 -4 17 -15 43 -26 58 -26 38 -25 95 5 138 49 73 70 176 41 200 -22 18
-19 35 17 75 28 32 36 36 72 33 40 -3 41 -2 39 26 -6 90 -117 94 -161 5 -18
-35 -22 -39 -28 -23 -20 63 -56 94 -107 94 -29 0 -43 -14 -53 -55 l-7 -30 -8
29 c-7 24 -3 33 21 56 26 25 30 35 30 83 0 31 -4 59 -10 62 -5 3 -10 21 -10
38 -1 18 -6 42 -13 54 -9 16 -11 111 -7 385 5 364 0 493 -13 353z m-150 -397
c-3 -8 -6 -5 -6 6 -1 11 2 17 5 13 3 -3 4 -12 1 -19z m-14 -314 c-8 -267 -19
-287 -22 -37 -1 103 17 318 26 310 2 -2 0 -125 -4 -273z m-22 -375 c-8 -41 -9
-39 -9 31 0 60 2 69 9 44 5 -17 5 -49 0 -75z m319 -27 c25 -31 25 -37 2 -60
-11 -11 -22 -36 -25 -57 -4 -22 -19 -57 -35 -79 -32 -44 -61 -62 -47 -30 4 11
9 46 11 79 3 33 10 80 16 104 9 35 9 46 -1 49 -8 3 -9 8 -1 17 15 18 57 6 80
-23z m-440 18 c0 -5 -4 -10 -10 -10 -16 0 -12 -56 6 -70 11 -10 15 -30 14 -74
-1 -34 2 -74 5 -91 l6 -30 -31 35 c-36 40 -69 105 -70 136 0 12 -7 24 -15 28
-42 16 8 86 62 86 18 0 33 -4 33 -10z m90 -95 c0 -37 3 -45 19 -45 17 0 51
-39 51 -57 0 -4 -5 0 -11 10 -6 11 -22 17 -44 17 -31 0 -34 3 -40 40 -7 42 0
80 16 80 5 0 9 -20 9 -45z m50 10 c0 -25 -4 -35 -16 -35 -11 0 -14 5 -9 18 4
9 10 25 12 35 8 27 13 20 13 -18z m146 -39 c-7 -44 -8 -46 -42 -46 -40 0 -45
16 -9 30 21 8 25 16 25 52 0 39 1 41 16 26 13 -13 15 -26 10 -62z m-406 -46
c21 -41 26 -80 11 -80 -11 0 -41 73 -41 100 0 29 7 25 30 -20z m157 8 c-3 -7
-5 -2 -5 12 0 14 2 19 5 13 2 -7 2 -19 0 -25z m280 0 c-3 -7 -5 -2 -5 12 0 14
2 19 5 13 2 -7 2 -19 0 -25z m183 17 c0 -24 -32 -95 -40 -90 -10 6 -8 17 9 68
13 37 31 50 31 22z m-314 -89 c-3 -12 -6 -28 -7 -36 0 -10 -3 -8 -9 5 -14 32
-11 52 6 52 11 0 14 -7 10 -21z m105 -43 c-11 -21 -27 -53 -36 -72 -29 -59
-28 -25 1 41 32 73 47 95 52 79 2 -6 -5 -28 -17 -48z m-202 -20 c17 -36 30
-71 28 -77 -4 -11 -49 67 -65 113 -20 56 5 32 37 -36z m315 1 c8 -22 -4 -40
-15 -23 -11 18 -11 39 0 39 5 0 12 -7 15 -16z m-434 -8 c0 -8 -4 -18 -10 -21
-5 -3 -10 3 -10 14 0 12 5 21 10 21 6 0 10 -6 10 -14z m63 -40 c20 -16 23 -36
4 -36 -17 0 -37 20 -37 37 0 16 10 16 33 -1z m317 1 c0 -7 -5 -18 -12 -25 -15
-15 -38 -16 -38 -1 0 12 29 38 43 39 4 0 7 -6 7 -13z m117 -29 c-3 -7 -5 -2
-5 12 0 14 2 19 5 13 2 -7 2 -19 0 -25z m-488 -127 c10 -39 15 -71 11 -71 -9
0 -40 101 -40 130 0 38 10 17 29 -59z m426 42 c-8 -42 -36 -116 -41 -110 -8 7
30 147 39 147 5 0 6 -16 2 -37z m-295 13 c0 -7 -9 -16 -20 -19 -25 -6 -26 8
-2 22 22 13 22 13 22 -3z m-85 -46 c2 -23 9 -48 16 -56 10 -13 14 -13 30 2 23
21 53 14 57 -14 3 -17 -1 -22 -20 -22 -13 0 -29 -5 -35 -11 -26 -26 -63 41
-63 112 0 53 11 44 15 -11z m252 33 c3 -7 -3 -9 -16 -6 -12 3 -21 10 -21 15 0
13 32 6 37 -9z m64 -65 c-9 -37 -32 -78 -44 -78 -4 0 -15 4 -25 9 -9 5 -25 12
-35 15 -11 4 -17 13 -15 23 4 24 48 30 61 8 8 -15 10 -15 28 1 13 12 19 31 20
63 1 40 2 42 9 19 4 -15 5 -42 1 -60z m-455 -53 c10 -26 0 -37 -20 -22 -11 8
-16 19 -12 25 10 16 26 15 32 -3z m34 -25 c0 -5 -5 -10 -11 -10 -5 0 -7 5 -4
10 3 6 8 10 11 10 2 0 4 -4 4 -10z m650 -35 c0 -14 -4 -25 -10 -25 -5 0 -10
11 -10 25 0 14 5 25 10 25 6 0 10 -11 10 -25z m-750 -34 c0 -12 -31 -43 -37
-37 -9 9 9 46 23 46 8 0 14 -4 14 -9z m-32 -143 c-115 -214 -252 -457 -256
-453 -2 2 10 46 26 97 17 51 49 152 71 223 l40 130 45 14 c28 8 48 20 51 32 4
11 16 29 28 40 l22 20 3 -20 c2 -12 -12 -49 -30 -83z m762 66 c0 -23 36 -96
192 -391 33 -62 57 -113 55 -113 -5 0 -117 134 -231 276 l-55 68 5 86 c3 47 8
91 10 98 6 21 24 3 24 -24z m-370 -65 c0 8 2 12 5 9 3 -3 2 -13 -1 -22 -5 -14
-9 -15 -15 -4 -5 7 -9 18 -9 23 0 6 5 3 10 -5 8 -12 10 -12 10 -1z m-156 -40
c6 -35 -2 -67 -50 -200 -31 -88 -59 -157 -61 -155 -3 2 4 42 16 88 17 72 51
215 66 286 8 35 22 26 29 -19z m110 -71 c-14 -28 -15 -46 -5 -152 26 -289 24
-298 -21 -83 l-41 198 33 34 c42 44 56 45 34 3z"/>
<path d="M1545 2890 c-4 -6 -4 -23 0 -38 8 -31 11 -940 3 -948 -3 -2 -22 6
-41 18 l-36 23 0 115 c-1 190 18 446 44 614 14 88 23 162 20 164 -3 3 -5 1 -5
-4 0 -6 -9 -59 -20 -120 -26 -138 -47 -368 -55 -600 l-7 -180 55 -42 55 -41
18 21 c11 11 32 27 48 35 l29 15 -6 237 c-6 241 -28 447 -67 637 -22 105 -24
111 -35 94z"/>
<path d="M1092 2870 c0 -14 2 -19 5 -12 2 6 2 18 0 25 -3 6 -5 1 -5 -13z"/>
<path d="M1102 2800 c0 -14 2 -19 5 -12 2 6 2 18 0 25 -3 6 -5 1 -5 -13z"/>
<path d="M1392 2725 c0 -16 2 -22 5 -12 2 9 2 23 0 30 -3 6 -5 -1 -5 -18z"/>
<path d="M1112 2665 c0 -16 2 -22 5 -12 2 9 2 23 0 30 -3 6 -5 -1 -5 -18z"/>
<path d="M1403 2575 c0 -27 2 -38 4 -22 2 15 2 37 0 50 -2 12 -4 0 -4 -28z"/>
<path d="M1123 2480 c0 -36 2 -50 4 -32 2 17 2 47 0 65 -2 17 -4 3 -4 -33z"/>
<path d="M1414 2275 c0 -82 2 -115 3 -72 2 43 2 110 0 150 -1 40 -3 5 -3 -78z"/>
<path d="M1487 755 c6 -78 20 -165 21 -125 0 14 -6 63 -13 110 l-14 85 6 -70z"/>
<path d="M1513 565 c0 -22 2 -30 4 -17 2 12 2 30 0 40 -3 9 -5 -1 -4 -23z"/>
</g>
</svg>
