<?xml version="1.0" standalone="no"?>
<!DOCTYPE svg PUBLIC "-//W3C//DTD SVG 20010904//EN"
 "http://www.w3.org/TR/2001/REC-SVG-20010904/DTD/svg10.dtd">
<svg version="1.0" xmlns="http://www.w3.org/2000/svg"
 width="244.000000pt" height="305.000000pt" viewBox="0 0 244.000000 305.000000"
 preserveAspectRatio="xMidYMid meet">
<metadata>
Created by potrace 1.16, written by Peter Selinger 2001-2019
</metadata>
<g transform="translate(0.000000,305.000000) scale(0.100000,-0.100000)"
fill="#000000" stroke="none">
<path d="M887 2895 c-7 -21 -33 -144 -42 -197 -3 -18 -8 -40 -10 -48 -15 -52
-37 -309 -42 -502 l-6 -226 42 -21 c23 -12 44 -28 48 -36 7 -20 14 -19 43 8
14 12 38 28 54 35 l29 13 -7 217 c-3 119 -11 262 -16 317 -10 105 -41 287 -48
281 -2 -2 3 -53 12 -113 31 -220 56 -646 39 -669 -14 -18 -80 -54 -86 -47 -4
3 -7 220 -7 481 0 262 3 472 6 469 4 -4 13 -30 20 -59 12 -44 13 -47 9 -13 -2
22 -11 60 -18 85 -11 36 -15 41 -20 25z"/>
<path d="M1562 2857 c-46 -158 -79 -420 -88 -708 l-7 -225 31 -13 c17 -7 38
-21 48 -32 22 -24 36 -24 58 0 10 11 31 25 48 32 l31 13 -7 235 c-6 223 -19
367 -47 526 -19 108 -22 59 -4 -62 22 -148 33 -283 41 -491 l6 -177 -42 -28
c-23 -15 -45 -25 -50 -22 -4 3 -8 211 -8 463 0 430 6 553 23 438 4 -26 10 -45
13 -42 6 7 -18 125 -27 131 -4 2 -13 -15 -19 -38z"/>
<path d="M1209 2635 c-4 -82 -16 -208 -28 -280 -12 -77 -24 -205 -28 -312 -6
-182 -16 -227 -28 -135 -10 72 -34 184 -40 191 -11 11 -23 -22 -34 -96 -16
-104 -15 -108 24 -134 38 -27 49 -54 39 -105 -8 -41 -23 -50 -54 -34 -40 21
-48 -21 -12 -62 21 -24 38 -22 68 7 32 32 38 31 30 -1 -9 -35 2 -64 24 -64 12
0 25 -14 37 -40 22 -47 35 -50 50 -10 6 16 25 38 43 47 29 16 31 21 26 56 -4
20 -4 37 -2 37 3 0 16 -11 30 -25 39 -39 70 -31 85 23 11 37 1 48 -27 31 -31
-19 -49 -5 -55 43 -5 49 11 83 49 100 28 13 30 38 14 134 -24 138 -31 135 -60
-26 -12 -63 -25 -119 -29 -123 -4 -4 -11 81 -14 190 -4 109 -11 230 -17 268
-14 102 -43 225 -52 225 -4 0 -5 6 -2 14 3 8 1 23 -5 33 -10 17 -11 17 -13 -2
-1 -11 -5 30 -8 90 l-5 110 -6 -150z m70 -300 c12 -85 34 -575 29 -652 -2 -38
-7 -47 -27 -55 l-24 -8 5 122 c3 68 4 113 1 101 -2 -13 -9 -23 -14 -23 -11 0
-12 33 -1 46 5 5 5 68 1 139 -4 72 -7 218 -7 325 0 179 1 190 13 140 6 -30 17
-91 24 -135z m-32 -607 c-3 -7 -5 -2 -5 12 0 14 2 19 5 13 2 -7 2 -19 0 -25z
m0 -115 c-3 -10 -5 -2 -5 17 0 19 2 27 5 18 2 -10 2 -26 0 -35z"/>
<path d="M750 1861 c-27 -7 -62 -64 -53 -86 3 -9 15 -12 37 -8 42 7 91 -18
110 -56 14 -26 14 -31 -4 -51 -40 -46 -14 -121 85 -256 14 -19 13 -23 -14 -53
-16 -18 -35 -46 -42 -62 -10 -26 -9 -34 8 -57 44 -59 133 -48 105 13 -15 33
-15 68 -1 82 8 8 26 6 67 -8 30 -10 66 -19 79 -19 21 0 24 3 27 31 1 5 -24 20
-55 33 -93 38 -161 101 -195 181 -15 38 -19 75 -6 75 4 0 14 -16 21 -36 18
-49 119 -155 176 -183 25 -13 48 -21 51 -18 11 11 -9 55 -30 65 -63 28 -146
132 -146 182 0 14 -9 33 -20 43 -27 23 -25 33 10 69 28 27 35 30 75 23 l45 -6
0 35 c0 39 -23 61 -75 70 -38 7 -73 -16 -91 -60 -18 -43 -27 -43 -42 -1 -17
46 -71 72 -122 58z"/>
<path d="M1434 1855 c-33 -13 -44 -32 -44 -70 0 -21 3 -22 45 -18 39 5 47 2
75 -25 35 -35 38 -57 10 -72 -13 -7 -20 -21 -20 -39 0 -40 -55 -118 -115 -163
-81 -61 -90 -107 -13 -69 59 28 153 124 175 177 10 24 23 42 28 41 29 -10 -32
-135 -92 -188 -32 -28 -99 -63 -155 -82 -22 -8 -23 -21 -3 -37 13 -10 28 -10
80 5 98 26 106 18 80 -87 -6 -23 -3 -28 17 -33 47 -12 108 27 108 70 0 13 -18
44 -40 71 -36 40 -39 49 -28 64 60 82 81 115 93 151 21 59 19 96 -5 109 -30
16 -24 38 18 77 31 29 43 34 76 31 43 -3 52 7 42 47 -8 32 -59 58 -96 50 -31
-7 -80 -57 -80 -81 0 -25 -19 -15 -33 19 -24 56 -70 75 -123 52z"/>
<path d="M1094 1582 c-12 -2 -29 -11 -39 -22 -16 -17 -14 -18 24 -25 26 -4 48
-16 60 -31 26 -34 44 -144 32 -206 0 -4 -11 -8 -23 -10 -18 -2 -24 -11 -26
-35 -3 -32 6 -40 41 -34 14 2 19 -27 7 -48 -6 -12 -19 -21 -29 -21 -10 0 -24
-7 -32 -16 -17 -20 0 -49 30 -50 22 -1 38 -11 30 -18 -2 -2 -18 -1 -36 1 -35
6 -48 27 -45 76 2 26 0 27 -43 27 -25 0 -57 -7 -70 -16 -56 -37 -139 40 -141
130 -2 68 -14 138 -27 154 -13 17 -62 15 -81 -4 -40 -40 -29 -98 41 -205 82
-127 95 -162 98 -258 1 -47 5 -93 9 -103 6 -12 -32 -62 -144 -192 -83 -97
-153 -176 -155 -176 -7 0 16 49 49 105 15 28 69 122 118 210 88 156 90 161 85
212 -7 69 -37 133 -92 197 -49 58 -75 110 -75 152 0 15 14 50 30 80 l31 52
-23 16 c-29 20 -97 21 -126 0 -28 -19 -28 -47 -1 -136 28 -92 22 -143 -21
-179 -27 -23 -30 -30 -21 -47 17 -31 14 -38 -21 -49 -18 -6 -91 -32 -163 -58
-159 -57 -187 -66 -181 -56 3 4 71 48 151 97 81 49 163 99 183 112 21 12 43
25 50 28 15 7 16 48 2 74 -6 11 -13 47 -16 82 -11 106 -26 103 -21 -5 l4 -97
-32 6 c-35 6 -63 -15 -275 -210 -30 -28 -77 -71 -103 -94 -27 -24 -47 -45 -45
-47 2 -2 97 28 213 66 116 38 227 74 248 79 30 9 37 16 37 35 0 33 13 38 59
24 52 -15 110 -64 128 -107 16 -40 7 -57 -36 -65 -26 -6 -31 -15 -79 -164 -96
-301 -132 -417 -128 -420 2 -2 39 36 82 84 44 48 104 115 134 148 31 33 87 95
125 138 l69 78 -11 42 c-6 23 -9 45 -7 49 3 5 45 8 93 8 75 0 93 -3 121 -22
56 -39 60 -54 23 -89 -18 -16 -33 -36 -33 -44 0 -8 13 -74 29 -147 15 -73 46
-216 67 -318 l39 -185 16 75 c47 211 90 414 104 493 l16 88 -31 35 c-36 42
-36 45 -7 72 35 32 71 42 164 42 l86 0 -8 -32 c-4 -18 -9 -42 -12 -53 -3 -15
29 -56 123 -160 150 -165 272 -295 278 -295 3 0 -4 26 -14 58 -10 31 -44 138
-75 237 -31 99 -63 201 -71 227 -14 43 -20 49 -56 58 -37 10 -39 13 -33 38 11
46 56 93 112 119 61 28 83 25 83 -11 0 -22 8 -28 63 -45 34 -10 142 -44 240
-76 98 -31 180 -55 183 -53 4 5 -15 23 -229 217 -139 126 -149 133 -180 127
l-33 -6 4 97 c5 133 -13 111 -22 -25 l-7 -103 45 6 46 7 97 -87 c155 -139 195
-177 191 -181 -2 -1 -69 33 -148 78 -80 44 -162 90 -183 101 -55 31 -75 52
-88 98 -11 35 -10 49 9 108 27 83 27 106 2 131 -34 34 -140 19 -140 -20 0 -9
11 -31 25 -50 47 -63 31 -126 -61 -241 -63 -80 -76 -127 -55 -205 10 -37 15
-42 58 -55 55 -17 43 8 133 -272 28 -87 54 -165 57 -173 3 -8 1 -14 -3 -14 -5
0 -28 35 -52 78 -23 42 -68 120 -99 172 -141 239 -148 253 -148 300 0 38 12
63 72 162 39 65 74 133 77 153 7 34 -5 72 -28 87 -21 14 -65 8 -74 -9 -13 -25
-25 -101 -23 -149 1 -31 -6 -51 -29 -83 -42 -57 -71 -69 -116 -48 -19 9 -53
17 -76 17 -36 0 -40 -2 -35 -21 3 -11 1 -34 -5 -50 -7 -22 -16 -29 -35 -29
-16 0 -27 -7 -30 -20 -3 -11 -8 -18 -12 -16 -3 3 -6 -13 -6 -35 0 -21 -6 -44
-13 -51 -9 -9 -12 -3 -11 33 2 73 11 93 48 100 19 4 37 13 42 20 11 18 -8 49
-29 49 -24 0 -42 19 -42 46 0 16 8 23 31 28 26 5 30 10 27 33 -2 19 -10 29
-23 31 -34 6 -38 18 -30 96 8 92 34 137 83 147 18 4 36 9 39 12 13 13 -28 37
-64 37 -31 0 -46 -7 -71 -33 -18 -18 -32 -40 -32 -49 0 -32 -19 -28 -36 7 -24
51 -76 85 -120 77z m115 -624 c12 -38 -4 -36 -24 2 -11 22 -14 42 -9 68 l8 37
8 -40 c5 -22 12 -52 17 -67z m50 -42 c-3 -41 1 -56 15 -56 8 0 28 -17 45 -38
l30 -39 -24 -114 c-14 -63 -36 -170 -51 -239 -14 -69 -28 -127 -30 -129 -2 -2
-4 130 -4 295 0 164 -3 308 -6 320 -4 15 -1 21 11 21 10 0 15 -8 14 -21z"/>
<path d="M1264 717 c-3 -8 -1 -42 4 -78 l10 -64 1 78 c1 73 -3 93 -15 64z"/>
<path d="M1272 520 c0 -14 2 -19 5 -12 2 6 2 18 0 25 -3 6 -5 1 -5 -13z"/>
</g>
</svg>
