<?xml version="1.0" standalone="no"?>
<!DOCTYPE svg PUBLIC "-//W3C//DTD SVG 20010904//EN"
 "http://www.w3.org/TR/2001/REC-SVG-20010904/DTD/svg10.dtd">
<svg version="1.0" xmlns="http://www.w3.org/2000/svg"
 width="244.000000pt" height="305.000000pt" viewBox="0 0 244.000000 305.000000"
 preserveAspectRatio="xMidYMid meet">
<metadata>
Created by potrace 1.16, written by Peter Selinger 2001-2019
</metadata>
<g transform="translate(0.000000,305.000000) scale(0.100000,-0.100000)"
fill="#000000" stroke="none">
<path d="M1112 2885 c0 -16 2 -22 5 -12 2 9 2 23 0 30 -3 6 -5 -1 -5 -18z"/>
<path d="M1550 2893 c0 -12 -3 -30 -6 -40 -5 -15 -4 -15 5 -3 8 11 11 -120 11
-467 0 -271 -4 -483 -9 -483 -5 0 -15 7 -22 16 -7 9 -24 20 -36 25 -22 8 -24
14 -22 81 3 179 22 445 39 573 29 206 32 243 15 165 -31 -142 -56 -380 -62
-607 -6 -223 -5 -233 13 -239 10 -4 33 -20 49 -35 l31 -29 52 38 53 37 -5 240
c-6 280 -27 474 -73 665 -17 68 -33 100 -33 63z"/>
<path d="M900 2888 c0 -7 -3 -24 -6 -38 -4 -20 -3 -22 5 -10 8 11 11 -120 11
-462 0 -263 -2 -478 -5 -478 -3 0 -24 12 -47 27 l-41 28 7 200 c6 199 21 359
51 549 8 55 13 101 11 104 -3 2 -8 -13 -11 -34 -3 -22 -10 -59 -15 -84 -30
-153 -48 -368 -50 -605 -2 -187 -4 -175 19 -175 11 0 21 -3 23 -7 2 -5 15 -19
30 -32 l28 -24 27 28 c16 15 38 31 51 36 21 8 22 14 22 113 0 132 -17 439 -30
531 -17 121 -64 345 -72 345 -4 0 -8 -6 -8 -12z"/>
<path d="M1352 2880 c0 -14 2 -19 5 -12 2 6 2 18 0 25 -3 6 -5 1 -5 -13z"/>
<path d="M1097 2700 c-5 -69 -13 -237 -17 -375 -5 -137 -14 -279 -20 -315 -6
-36 -9 -84 -7 -107 l4 -41 -43 1 c-50 0 -69 -12 -86 -59 -15 -42 -22 -43 -38
-4 -17 41 -46 60 -92 60 -40 0 -65 -18 -74 -55 -8 -34 2 -45 36 -38 31 6 72
-14 97 -46 18 -23 16 -58 -3 -65 -37 -14 1 -144 67 -227 16 -20 29 -40 29 -44
0 -4 -16 -25 -35 -48 -38 -44 -47 -95 -20 -117 17 -14 20 -40 6 -40 -22 0 -52
55 -51 94 1 49 -13 146 -24 164 -10 17 -47 15 -74 -4 -17 -12 -22 -25 -22 -62
0 -40 10 -64 65 -157 36 -61 65 -122 65 -136 0 -15 -9 -46 -20 -70 -22 -50
-26 -74 -8 -63 19 12 4 -18 -119 -236 -109 -194 -141 -245 -129 -210 2 8 16
51 29 95 97 311 109 345 123 345 31 0 72 30 83 61 25 73 10 131 -58 217 -77
97 -89 159 -46 240 l25 47 -21 18 c-30 24 -94 22 -120 -4 -24 -24 -23 -44 6
-149 17 -63 17 -66 -1 -105 -13 -26 -37 -52 -74 -76 -78 -51 -302 -179 -314
-179 -6 0 10 19 34 41 25 23 87 82 139 131 l95 90 44 -7 45 -7 -6 69 c-4 37
-7 85 -7 106 0 21 -5 37 -11 37 -8 0 -10 -26 -7 -91 l6 -90 -29 6 c-34 8 -34
8 -252 -198 -81 -77 -145 -142 -143 -144 2 -3 108 30 235 73 215 72 231 79
231 101 0 36 25 38 88 7 47 -24 61 -37 81 -77 25 -51 19 -77 -19 -77 -10 0
-22 -6 -28 -13 -14 -16 -173 -538 -170 -553 3 -11 59 50 276 300 76 88 111
135 106 145 -3 9 -8 31 -11 49 l-6 33 64 -3 c57 -3 64 -5 62 -23 -7 -55 -44
-408 -48 -460 -6 -72 -4 -67 61 140 39 125 64 189 64 163 0 -11 121 -612 124
-615 3 -3 115 543 124 607 5 30 14 10 68 -155 64 -194 68 -196 44 -25 -6 45
-8 49 -10 20 -1 -21 -17 38 -40 149 -21 102 -37 188 -34 193 3 4 11 8 19 8 9
0 16 -17 20 -47 10 -70 16 -77 10 -10 l-5 57 65 0 c72 0 76 -5 54 -69 -12 -34
-24 -18 201 -271 31 -36 69 -78 82 -95 14 -16 44 -50 67 -75 l41 -45 -15 50
c-8 28 -31 104 -50 170 -19 66 -50 169 -70 230 -19 60 -35 116 -35 123 0 7
-13 15 -30 18 -44 9 -54 26 -37 67 20 46 62 83 115 102 51 17 62 13 62 -19 0
-22 17 -29 218 -96 119 -40 225 -77 235 -82 10 -5 21 -7 24 -5 5 6 -160 167
-292 286 -72 64 -83 71 -111 66 l-32 -5 5 92 c3 67 2 89 -6 78 -6 -8 -11 -33
-11 -56 0 -22 -7 -65 -16 -94 l-16 -54 28 -23 c16 -13 56 -40 89 -60 136 -83
276 -176 272 -180 -4 -3 -356 124 -365 132 -1 1 2 15 8 30 9 24 7 30 -19 54
-42 39 -48 85 -22 170 36 119 22 161 -53 161 -75 0 -92 -28 -55 -90 25 -41 27
-105 4 -149 -8 -16 -37 -58 -63 -94 -29 -37 -54 -83 -61 -113 -22 -82 -21 -81
-31 -64 -21 33 -5 73 87 222 57 93 62 162 13 188 -35 19 -64 9 -71 -25 -4 -16
-11 -48 -16 -71 -5 -23 -6 -51 -1 -63 9 -25 -8 -65 -40 -94 -29 -26 -38 -3
-13 29 12 15 21 35 21 46 0 25 -23 69 -49 92 -27 25 -27 31 8 75 66 83 104
213 67 227 -26 10 -19 53 14 86 25 25 36 29 72 26 40 -2 43 -1 46 23 4 35 -26
68 -69 75 -28 5 -41 1 -66 -20 -17 -14 -34 -37 -37 -51 -9 -35 -20 -31 -35 11
-16 45 -65 71 -107 57 -42 -14 -59 -5 -32 17 22 17 22 18 8 111 -8 52 -17 171
-20 264 l-6 170 -2 -160 c-2 -94 -9 -183 -17 -215 -12 -50 -14 -15 -16 360 -2
445 -11 434 -25 -35 l-8 -260 -17 150 c-9 83 -27 193 -40 245 l-23 95 -13 -45
c-36 -121 -55 -256 -68 -491 -7 -114 -16 -151 -32 -135 -4 4 -10 206 -13 449
-4 364 -6 420 -13 317z m119 -302 c-3 -40 -6 -164 -7 -275 0 -123 -4 -205 -10
-209 -6 -3 -9 0 -8 7 2 8 -1 77 -5 154 -5 93 -4 167 4 220 11 81 17 126 19
158 0 9 4 17 7 17 4 0 4 -33 0 -72z m-70 -525 c-11 -11 -17 4 -9 23 7 18 8 18
11 1 2 -10 1 -21 -2 -24z m181 -5 c-3 -7 -5 -2 -5 12 0 14 2 19 5 13 2 -7 2
-19 0 -25z m-137 -82 c0 -38 -3 -66 -7 -63 -3 4 -7 41 -8 82 -1 41 2 69 7 62
4 -6 8 -43 8 -81z m-72 9 c0 -16 -2 -15 -8 5 -11 34 -11 60 0 35 5 -11 8 -29
8 -40z m243 14 l-9 -34 -1 31 c-1 17 2 34 6 37 12 13 14 -1 4 -34z m-290 -49
c10 -6 19 -17 19 -25 0 -18 -12 -19 -28 -3 -18 18 -34 -4 -26 -36 3 -15 17
-32 30 -38 29 -14 33 -62 7 -91 -10 -11 -13 -22 -8 -24 26 -9 34 -21 40 -58
l8 -40 -32 29 c-17 17 -31 35 -31 43 0 7 -9 17 -20 23 -24 13 -50 61 -50 93 0
14 -7 30 -15 37 -54 45 40 125 106 90z m424 -15 c28 -27 32 -57 10 -75 -8 -7
-15 -24 -15 -39 -1 -30 -16 -60 -48 -93 -13 -13 -34 -36 -47 -53 -13 -16 -26
-27 -29 -24 -12 12 7 69 25 74 23 8 24 19 4 39 -23 22 -19 73 5 81 21 7 43 64
29 79 -5 5 -15 4 -24 -4 -18 -15 -30 -7 -22 14 5 14 28 21 70 25 10 0 29 -10
42 -24z m-318 -136 c30 -11 19 -33 -13 -27 -15 2 -20 15 -25 53 -3 28 -3 55 0
60 3 6 7 -9 9 -33 3 -36 8 -45 29 -53z m140 -26 c-14 -14 -47 -8 -47 8 0 5 11
14 25 19 21 8 25 17 27 52 2 39 2 38 5 -11 3 -37 0 -59 -10 -68z m-119 52 c-2
-9 -8 -12 -16 -6 -12 7 -12 12 0 30 10 17 14 18 16 6 2 -8 2 -22 0 -30z m-245
-88 c40 -78 45 -99 23 -91 -16 6 -76 120 -76 145 0 35 15 19 53 -54z m164 51
c-3 -8 -6 -5 -6 6 -1 11 2 17 5 13 3 -3 4 -12 1 -19z m449 -10 c-8 -38 -66
-139 -77 -132 -4 2 -10 -2 -12 -8 -3 -7 -6 -1 -6 13 -1 14 7 33 17 42 10 10
29 40 42 67 27 57 46 66 36 18z m-323 -82 c-7 -38 -13 -46 -13 -18 0 11 -2 27
-5 35 -4 8 0 14 9 14 11 0 13 -8 9 -31z m-83 -60 c11 -33 18 -61 15 -64 -5 -5
-21 31 -41 98 -21 64 2 35 26 -34z m164 -6 c-26 -73 -37 -61 -12 12 12 35 23
57 26 50 2 -7 -4 -35 -14 -62z m-278 -37 c-11 -11 -19 6 -11 24 8 17 8 17 12
0 3 -10 2 -21 -1 -24z m381 -5 c-3 -7 -5 -2 -5 12 0 14 2 19 5 13 2 -7 2 -19
0 -25z m-313 -4 c23 -9 20 -34 -4 -34 -13 0 -20 7 -20 20 0 22 1 23 24 14z
m266 -9 c0 -16 -27 -32 -37 -21 -7 7 16 36 28 36 5 0 9 -7 9 -15z m-370 -91
c0 -21 -4 -33 -10 -29 -5 3 -10 22 -10 41 0 21 4 33 10 29 6 -3 10 -22 10 -41z
m462 -4 c-6 -43 -12 -37 -12 13 0 25 4 37 8 29 5 -7 7 -26 4 -42z m-407 -42
c8 -34 12 -65 9 -67 -2 -2 -5 2 -8 10 -2 8 -9 29 -15 48 -12 37 -15 88 -5 78
3 -3 12 -34 19 -69z m107 57 c0 -5 -5 -11 -11 -13 -6 -2 -11 4 -11 13 0 9 5
15 11 13 6 -2 11 -8 11 -13z m145 -11 c-9 -9 -28 6 -21 18 4 6 10 6 17 -1 6
-6 8 -13 4 -17z m94 -54 c-21 -70 -27 -64 -10 10 12 57 20 78 25 65 2 -5 -5
-39 -15 -75z m-289 -37 c10 -13 13 -13 24 2 15 20 44 13 44 -9 0 -11 -50 -46
-65 -46 -10 0 -35 88 -34 118 l1 37 9 -44 c4 -24 14 -50 21 -58z m258 63 c0
-24 -29 -116 -36 -116 -3 0 -17 8 -32 17 -15 9 -28 18 -30 19 -1 0 0 9 4 18 8
20 34 21 34 1 0 -8 4 -15 10 -15 15 0 30 36 30 75 0 22 4 34 10 30 6 -3 10
-16 10 -29z m-400 -101 c0 -16 -6 -25 -15 -25 -16 0 -19 9 -9 34 9 25 24 19
24 -9z m564 8 c9 -24 -9 -39 -29 -23 -8 7 -15 19 -15 26 0 20 37 17 44 -3z
m160 -351 c31 -59 70 -132 87 -162 17 -30 44 -79 60 -109 17 -29 28 -55 26
-57 -5 -5 -236 267 -274 322 -20 28 -21 40 -16 105 l6 73 27 -33 c15 -18 53
-81 84 -139z m-454 119 c0 -9 -20 -37 -20 -29 0 3 -2 13 -5 21 -4 8 0 14 10
14 8 0 15 -3 15 -6z m-141 -71 c1 -14 -13 -70 -30 -125 -17 -55 -40 -133 -52
-173 -11 -39 -22 -71 -23 -69 -4 4 73 395 82 417 5 12 8 11 14 -5 5 -11 9 -31
9 -45z m61 -4 c0 -6 -38 -46 -44 -46 -3 0 -6 23 -6 51 l0 52 25 -27 c14 -15
25 -28 25 -30z m176 -44 c-7 -6 -46 27 -46 40 0 4 10 18 23 31 l22 22 3 -44
c2 -23 1 -46 -2 -49z m-147 5 c-10 -29 -10 -72 1 -226 7 -105 11 -193 9 -195
-3 -3 -22 83 -44 189 l-39 195 39 40 c21 22 41 38 43 36 2 -3 -2 -20 -9 -39z"/>
<path d="M1363 2735 c0 -22 2 -30 4 -17 2 12 2 30 0 40 -3 9 -5 -1 -4 -23z"/>
<path d="M1133 2625 c0 -27 2 -38 4 -22 2 15 2 37 0 50 -2 12 -4 0 -4 -28z"/>
<path d="M1373 2565 c0 -27 2 -38 4 -22 2 15 2 37 0 50 -2 12 -4 0 -4 -28z"/>
<path d="M1143 2380 c0 -47 2 -66 4 -42 2 23 2 61 0 85 -2 23 -4 4 -4 -43z"/>
<path d="M1443 775 c0 -22 2 -30 4 -17 2 12 2 30 0 40 -3 9 -5 -1 -4 -23z"/>
<path d="M1453 680 c0 -25 2 -35 4 -22 2 12 2 32 0 45 -2 12 -4 2 -4 -23z"/>
</g>
</svg>
