<?xml version="1.0" standalone="no"?>
<!DOCTYPE svg PUBLIC "-//W3C//DTD SVG 20010904//EN"
 "http://www.w3.org/TR/2001/REC-SVG-20010904/DTD/svg10.dtd">
<svg version="1.0" xmlns="http://www.w3.org/2000/svg"
 width="244.000000pt" height="305.000000pt" viewBox="0 0 244.000000 305.000000"
 preserveAspectRatio="xMidYMid meet">
<metadata>
Created by potrace 1.16, written by Peter Selinger 2001-2019
</metadata>
<g transform="translate(0.000000,305.000000) scale(0.100000,-0.100000)"
fill="#000000" stroke="none">
<path d="M891 2874 c-20 -74 -61 -329 -70 -439 -6 -60 -13 -198 -17 -307 l-6
-196 39 -25 c21 -13 44 -32 52 -41 12 -14 16 -13 47 13 18 16 42 32 53 36 20
6 21 14 21 125 0 65 -5 187 -10 272 -11 151 -44 416 -55 426 -8 9 -6 -41 5
-99 33 -173 55 -699 29 -699 -6 0 -22 -9 -36 -20 -14 -11 -30 -20 -34 -20 -5
0 -9 214 -9 476 0 314 3 473 10 469 12 -8 13 35 1 54 -7 11 -12 4 -20 -25z"/>
<path d="M1341 2894 c0 -11 3 -14 6 -6 3 7 2 16 -1 19 -3 4 -6 -2 -5 -13z"/>
<path d="M1122 2880 c0 -14 2 -19 5 -12 2 6 2 18 0 25 -3 6 -5 1 -5 -13z"/>
<path d="M1552 2867 c-18 -51 -60 -311 -71 -437 -6 -63 -13 -201 -17 -306 l-7
-190 51 -37 c56 -42 64 -44 83 -20 8 9 29 22 47 30 l32 13 -5 173 c-8 232 -22
407 -47 557 -11 69 -22 127 -24 129 -7 7 -4 -20 11 -119 25 -156 45 -415 45
-571 l0 -145 -37 -19 c-21 -11 -41 -21 -45 -23 -5 -2 -8 211 -8 473 0 327 3
474 10 470 7 -4 8 3 4 22 -4 15 -8 29 -8 30 -1 1 -7 -12 -14 -30z"/>
<path d="M1121 2834 c0 -11 3 -14 6 -6 3 7 2 16 -1 19 -3 4 -6 -2 -5 -13z"/>
<path d="M1351 2405 c-1 -231 -4 -438 -8 -460 -13 -77 -22 -3 -24 200 -1 110
-5 175 -8 145 l-6 -55 -7 65 c-8 74 -46 268 -57 288 -13 23 -66 -208 -74 -323
-1 -22 -6 28 -10 110 -22 420 -24 421 -26 13 0 -219 -5 -398 -10 -398 -12 0
-21 76 -23 204 l-2 111 -3 -94 c-2 -52 -8 -100 -13 -106 -11 -13 -30 -126 -30
-181 0 -28 5 -44 15 -48 8 -3 15 -12 15 -20 0 -12 -5 -12 -39 1 -33 13 -43 13
-67 2 -16 -8 -36 -28 -44 -44 -22 -43 -28 -44 -49 -5 -25 47 -77 68 -117 48
-32 -15 -57 -58 -48 -81 4 -11 16 -13 48 -10 39 5 45 2 74 -31 35 -40 40 -63
17 -72 -40 -16 -4 -157 58 -230 30 -35 35 -72 12 -80 -8 -3 -24 -26 -36 -50
-20 -42 -20 -46 -4 -70 9 -15 26 -29 36 -31 19 -5 26 -37 10 -47 -11 -7 -53
30 -76 66 -11 18 -15 37 -11 55 3 15 0 60 -7 98 -13 68 -14 70 -44 73 -42 4
-73 -26 -73 -72 0 -35 25 -89 103 -221 45 -77 47 -83 51 -175 2 -52 7 -104 10
-115 5 -15 -17 -48 -94 -140 -56 -66 -120 -143 -143 -172 -49 -61 -78 -79 -49
-30 11 17 70 124 131 235 92 169 111 211 111 246 0 73 -27 140 -86 215 -80
103 -94 167 -49 233 14 20 25 42 25 49 0 38 -113 55 -143 21 -22 -24 -21 -46
4 -123 29 -91 22 -154 -21 -190 -27 -23 -30 -30 -21 -47 6 -12 11 -23 11 -26
0 -10 -62 -38 -184 -81 -66 -24 -133 -48 -148 -54 -16 -6 -28 -7 -28 -3 0 6
45 35 279 182 31 19 67 43 80 52 l24 17 -16 76 c-10 42 -17 91 -17 110 0 20
-5 35 -11 35 -9 0 -10 -25 -6 -90 l7 -91 -34 7 c-33 6 -40 1 -178 -128 -79
-74 -163 -153 -188 -175 -25 -23 -43 -44 -40 -46 3 -3 111 31 240 74 129 43
236 79 238 79 1 0 2 11 2 25 0 38 23 40 87 8 100 -49 134 -134 64 -157 -38
-12 -24 23 -131 -331 -27 -88 -56 -180 -64 -204 -19 -51 -19 -54 -6 -46 10 6
189 205 317 353 l81 93 -13 44 c-8 24 -11 46 -8 49 4 3 37 6 75 6 l68 0 1 -37
c2 -34 2 -35 6 -8 5 37 14 47 31 36 10 -6 11 -18 3 -52 -6 -24 -20 -102 -33
-174 -21 -116 -24 -126 -30 -90 -5 27 -5 18 -3 -25 3 -44 2 -60 -5 -50 -7 11
-10 6 -10 -21 0 -20 -3 -52 -6 -70 -14 -70 7 -18 45 112 21 74 42 147 45 163
4 15 9 26 12 23 5 -4 68 -305 111 -527 20 -104 16 -116 84 235 29 149 56 273
59 278 4 4 28 -67 55 -158 26 -91 50 -163 52 -161 3 2 -7 120 -22 261 -15 141
-24 259 -20 263 9 10 125 6 135 -4 5 -5 3 -26 -4 -46 -17 -47 -25 -35 193
-281 162 -182 197 -217 186 -184 -2 6 -36 118 -75 247 -39 129 -76 249 -81
267 -8 24 -19 35 -46 44 -33 11 -35 13 -29 47 7 44 48 89 105 114 51 22 68 19
73 -14 3 -21 27 -31 233 -100 127 -43 235 -78 240 -78 6 0 -13 21 -41 48 -28
26 -113 105 -188 175 -133 125 -137 128 -172 121 -36 -7 -36 -6 -30 22 14 74
17 124 8 140 -10 18 -11 12 -28 -138 l-6 -58 50 3 50 2 135 -125 c74 -69 133
-127 131 -129 -13 -14 -366 203 -388 239 -20 35 -21 94 -1 150 19 55 19 104
-1 124 -31 31 -134 10 -134 -27 0 -7 11 -29 25 -49 45 -66 31 -121 -58 -238
-60 -79 -74 -125 -58 -193 11 -47 12 -48 63 -67 46 -17 44 -11 122 -260 47
-152 62 -208 54 -200 -8 7 -214 372 -255 449 -52 100 -46 128 60 301 25 41 49
87 52 103 15 57 -16 107 -65 107 -43 0 -46 -10 -54 -152 -3 -53 -9 -73 -31
-102 -15 -20 -33 -36 -40 -36 -27 0 -21 26 11 56 38 36 37 58 -5 114 -44 57
-45 58 -12 96 68 77 102 195 67 233 -23 25 -14 52 26 86 23 20 40 25 66 23 39
-3 48 8 38 48 -8 29 -55 53 -92 46 -27 -5 -74 -48 -74 -68 0 -29 -20 -22 -36
11 -23 49 -66 71 -105 54 -34 -14 -48 -6 -29 16 21 25 -4 245 -28 245 -4 0 -8
107 -10 238 -1 130 -6 289 -11 352 -6 88 -8 18 -10 -305z m-77 -65 c17 -142
27 -297 18 -260 -4 15 -11 -28 -18 -105 l-11 -130 -2 200 c0 110 -4 252 -7
315 -4 63 -4 113 -1 110 4 -3 13 -62 21 -130z m23 -347 c-3 -10 -5 -4 -5 12 0
17 2 24 5 18 2 -7 2 -21 0 -30z m-150 -125 c-3 -7 -5 -2 -5 12 0 14 2 19 5 13
2 -7 2 -19 0 -25z m148 -19 c-19 -53 -19 -69 2 -84 15 -12 16 -14 1 -29 -14
-14 -17 -14 -22 0 -14 37 4 154 24 154 5 0 3 -19 -5 -41z m32 19 c-3 -8 -6 -5
-6 6 -1 11 2 17 5 13 3 -3 4 -12 1 -19z m-264 -104 c27 -5 37 -11 37 -25 0
-20 -24 -26 -35 -9 -10 16 -35 12 -35 -5 0 -9 7 -30 16 -46 11 -23 21 -30 35
-26 16 4 19 0 19 -29 0 -37 -39 -83 -71 -84 -17 0 -49 59 -49 93 0 12 -9 30
-19 39 -24 21 -18 51 17 78 27 22 30 23 85 14z m441 -25 c31 -37 32 -44 6 -66
-11 -10 -20 -28 -20 -41 0 -36 -30 -92 -49 -92 -29 1 -71 47 -71 78 0 24 5 31
25 36 25 6 45 39 45 73 0 10 -5 13 -17 8 -44 -18 -53 -18 -53 3 0 15 8 22 28
25 67 10 80 7 106 -24z m-211 -81 c23 4 22 -15 -2 -27 -24 -14 -31 -5 -30 38
1 32 2 33 8 11 5 -16 13 -24 24 -22z m-359 -85 c13 -27 33 -57 45 -67 13 -12
21 -31 21 -50 l-1 -31 -30 35 c-36 41 -68 106 -69 138 0 33 7 27 34 -25z m193
15 c-3 -7 -5 -2 -5 12 0 14 2 19 5 13 2 -7 2 -19 0 -25z m69 11 c3 -5 -1 -16
-9 -23 -17 -17 -37 -3 -37 25 0 12 6 16 20 12 11 -3 23 -9 26 -14z m151 -11
c-3 -7 -5 -2 -5 12 0 14 2 19 5 13 2 -7 2 -19 0 -25z m223 12 c0 -45 -88 -185
-105 -168 -11 10 3 43 35 83 16 20 35 52 42 71 13 38 28 45 28 14z m-250 4 c0
-3 -5 -15 -11 -26 -9 -17 -13 -18 -20 -7 -15 23 -10 39 11 39 11 0 20 -3 20
-6z m-221 -77 c6 -8 14 -29 17 -47 7 -31 6 -32 -15 -21 -12 7 -26 24 -32 37
-14 39 6 59 30 31z m143 -27 c-6 -39 -9 -38 -14 4 -2 22 0 32 7 29 6 -2 9 -17
7 -33z m168 24 c0 -24 -18 -52 -42 -65 -20 -11 -21 -10 -15 27 6 37 20 54 45
54 6 0 12 -7 12 -16z m-85 -62 c-9 -28 -20 -54 -25 -57 -9 -6 2 40 21 88 18
44 20 25 4 -31z m-156 -37 c-1 -15 -4 -13 -14 10 -19 40 -18 67 0 35 8 -14 14
-34 14 -45z m-152 3 c-3 -8 -6 -5 -6 6 -1 11 2 17 5 13 3 -3 4 -12 1 -19z m40
-30 c-3 -8 -6 -5 -6 6 -1 11 2 17 5 13 3 -3 4 -12 1 -19z m360 0 c-3 -8 -6 -5
-6 6 -1 11 2 17 5 13 3 -3 4 -12 1 -19z m-287 -24 c0 -9 -5 -14 -12 -12 -18 6
-21 28 -4 28 9 0 16 -7 16 -16z m240 7 c0 -14 -18 -23 -30 -16 -6 4 -8 11 -5
16 8 12 35 12 35 0z m-340 -79 c0 -45 -19 -100 -46 -132 -28 -32 -45 -32 -37
-1 3 11 15 21 27 23 22 3 28 22 14 51 -6 12 -5 17 7 17 20 0 19 20 -2 35 -20
15 -12 30 16 32 17 1 21 -4 21 -25z m140 -6 c-14 -14 -22 -2 -14 18 5 14 9 15
15 4 4 -7 4 -17 -1 -22z m147 -3 c-11 -10 -26 8 -20 23 5 15 7 14 15 -1 6 -9
7 -19 5 -22z m166 -103 c21 -30 22 -41 2 -34 -8 4 -15 14 -15 24 0 11 -4 22
-10 25 -5 3 -9 34 -8 68 l1 62 6 -60 c3 -33 14 -71 24 -85z m-1 108 c-9 -9
-12 -7 -12 12 0 19 3 21 12 12 9 -9 9 -15 0 -24z m-399 -68 l7 -55 -15 50
c-16 55 -20 117 -6 80 5 -11 11 -45 14 -75z m333 63 c-3 -10 -10 -40 -17 -66
-6 -26 -13 -46 -15 -44 -7 7 20 127 28 127 5 0 7 -8 4 -17z m-49 -30 c-3 -10
-5 -4 -5 12 0 17 2 24 5 18 2 -7 2 -21 0 -30z m-232 -63 c12 -10 16 -9 21 4 5
13 9 14 21 5 12 -10 10 -16 -8 -36 -13 -12 -26 -23 -30 -23 -11 0 -29 59 -28
89 l2 26 4 -27 c2 -14 11 -32 18 -38z m215 -24 l-10 -27 -30 18 c-16 9 -30 23
-30 30 0 21 23 27 36 9 12 -17 13 -17 26 3 17 28 23 5 8 -33z m-243 -88 c-3
-7 -5 -2 -5 12 0 14 2 19 5 13 2 -7 2 -19 0 -25z m136 -159 c-4 -15 -8 -17
-14 -8 -6 11 4 28 18 29 0 0 -1 -9 -4 -21z m170 -211 c20 -111 35 -203 33
-205 -2 -2 -20 59 -40 134 -21 76 -42 148 -47 161 -15 39 -9 112 10 112 4 0
24 -91 44 -202z m-253 163 c7 -14 5 -23 -10 -36 -20 -18 -20 -17 -20 24 0 43
11 47 30 12z m180 -18 c0 -36 0 -36 -20 -18 -19 17 -19 19 -4 37 23 24 24 24
24 -19z m-40 -293 c-24 -120 -46 -218 -47 -216 -2 2 3 101 11 220 10 142 12
226 5 242 -20 55 -10 60 33 16 l43 -42 -45 -220z"/>
<path d="M932 2770 c0 -14 2 -19 5 -12 2 6 2 18 0 25 -3 6 -5 1 -5 -13z"/>
<path d="M1332 2760 c0 -14 2 -19 5 -12 2 6 2 18 0 25 -3 6 -5 1 -5 -13z"/>
<path d="M1113 2735 c0 -22 2 -30 4 -17 2 12 2 30 0 40 -3 9 -5 -1 -4 -23z"/>
<path d="M1103 2560 c0 -36 2 -50 4 -32 2 17 2 47 0 65 -2 17 -4 3 -4 -33z"/>
<path d="M1323 2580 c0 -25 2 -35 4 -22 2 12 2 32 0 45 -2 12 -4 2 -4 -23z"/>
<path d="M1043 815 c0 -22 2 -30 4 -17 2 12 2 30 0 40 -3 9 -5 -1 -4 -23z"/>
<path d="M1033 715 c0 -22 2 -30 4 -17 2 12 2 30 0 40 -3 9 -5 -1 -4 -23z"/>
</g>
</svg>
