<?xml version="1.0" standalone="no"?>
<!DOCTYPE svg PUBLIC "-//W3C//DTD SVG 20010904//EN"
 "http://www.w3.org/TR/2001/REC-SVG-20010904/DTD/svg10.dtd">
<svg version="1.0" xmlns="http://www.w3.org/2000/svg"
 width="244.000000pt" height="305.000000pt" viewBox="0 0 244.000000 305.000000"
 preserveAspectRatio="xMidYMid meet">
<metadata>
Created by potrace 1.16, written by Peter Selinger 2001-2019
</metadata>
<g transform="translate(0.000000,305.000000) scale(0.100000,-0.100000)"
fill="#000000" stroke="none">
<path d="M897 2900 c-46 -116 -95 -513 -97 -785 -2 -196 -2 -195 18 -202 9 -4
32 -19 50 -35 l34 -29 33 30 c19 16 43 32 55 36 20 6 21 10 15 188 -9 290 -41
585 -74 692 -14 46 -13 31 14 -141 31 -199 45 -376 45 -559 l0 -143 -37 -23
c-21 -13 -41 -25 -45 -27 -5 -2 -8 216 -7 485 1 268 5 477 9 463 6 -20 8 -21
8 -5 0 11 -3 31 -8 45 -5 18 -9 21 -13 10z"/>
<path d="M1321 2894 c0 -11 3 -14 6 -6 3 7 2 16 -1 19 -3 4 -6 -2 -5 -13z"/>
<path d="M1542 2803 c-46 -211 -64 -377 -78 -704 l-7 -167 43 -28 c24 -16 48
-33 55 -38 8 -6 30 2 65 25 l53 34 -6 235 c-4 129 -11 273 -17 320 -13 112
-50 324 -57 330 -6 5 -5 -6 26 -210 23 -156 41 -395 41 -544 l0 -104 -37 -23
c-21 -13 -42 -25 -46 -27 -4 -2 -6 222 -5 497 2 276 0 501 -3 501 -3 0 -15
-44 -27 -97z"/>
<path d="M1582 2840 c0 -14 2 -19 5 -12 2 6 2 18 0 25 -3 6 -5 1 -5 -13z"/>
<path d="M1141 2810 c-1 -19 -2 -228 -1 -465 0 -236 -2 -426 -6 -423 -3 4 -10
28 -15 54 -14 76 -29 124 -39 124 -12 0 -30 -92 -30 -159 0 -51 3 -59 25 -71
14 -7 25 -22 25 -32 0 -24 -9 -23 -37 4 -46 43 -131 15 -147 -48 -7 -27 -26
-33 -26 -8 0 28 -65 84 -98 84 -45 0 -84 -35 -80 -74 3 -28 6 -31 35 -28 37 4
88 -20 103 -47 15 -29 12 -58 -6 -65 -14 -5 -16 -16 -11 -56 7 -55 31 -107 76
-164 17 -21 31 -43 31 -48 0 -5 -16 -30 -35 -55 -19 -25 -35 -56 -35 -69 0
-41 66 -85 105 -70 13 5 14 17 9 71 l-7 65 32 0 c17 0 31 -5 31 -11 0 -5 5 -7
10 -4 13 8 13 -35 -1 -91 -10 -38 -16 -46 -40 -51 -16 -3 -34 -12 -40 -19 -17
-21 -35 -17 -72 16 -44 38 -69 88 -56 112 8 16 3 56 -20 138 -10 36 -66 35
-94 -2 -29 -38 -18 -75 64 -219 l72 -124 7 -103 c4 -57 10 -106 14 -109 5 -5
-34 -65 -53 -83 -11 -10 -127 -145 -149 -173 -72 -95 -134 -141 -80 -60 48 72
228 411 234 441 11 55 -29 159 -91 236 -79 100 -93 172 -45 233 11 14 20 32
20 41 0 42 -103 59 -140 22 -25 -25 -25 -39 0 -120 11 -36 20 -85 20 -109 0
-37 -5 -49 -33 -75 -26 -24 -32 -36 -26 -51 12 -32 10 -42 -8 -48 -10 -3 -87
-31 -172 -62 -84 -31 -158 -54 -163 -53 -5 2 76 57 181 122 134 84 191 124
191 137 0 10 -7 44 -15 76 -8 31 -15 74 -15 95 0 20 -5 40 -12 44 -8 5 -10
-18 -5 -89 l5 -96 -28 6 c-23 4 -37 -1 -62 -22 -76 -64 -359 -327 -355 -331 2
-2 51 12 108 31 57 20 166 56 242 81 127 42 137 47 137 70 0 35 21 39 77 14
59 -26 90 -55 109 -99 17 -40 8 -56 -35 -64 -31 -7 -21 22 -157 -417 -25 -80
-47 -151 -49 -157 -3 -7 -3 -13 -1 -13 4 0 212 228 340 373 l69 78 -12 40 c-7
21 -9 44 -6 49 3 6 44 10 91 10 l84 0 1 -42 2 -43 6 37 c4 27 10 35 18 30 10
-7 10 -28 -2 -103 -8 -52 -20 -132 -26 -179 -9 -60 -15 -79 -20 -65 -6 15 -8
11 -7 -15 1 -19 -2 -60 -5 -90 -4 -36 6 -8 30 83 19 76 37 136 40 134 3 -4 30
-128 95 -445 11 -56 22 -101 24 -100 2 3 42 191 84 401 16 76 30 141 33 143 3
3 20 -59 38 -136 18 -78 35 -136 37 -130 2 6 -3 93 -12 193 -9 100 -19 212
-22 248 -4 46 -2 69 6 74 14 9 158 10 167 2 3 -4 0 -27 -7 -52 l-13 -45 124
-137 c230 -257 272 -303 276 -300 1 2 -28 105 -66 228 -38 123 -77 250 -86
282 -15 50 -20 59 -46 64 -48 9 -54 26 -28 78 25 49 76 87 136 100 29 6 32 4
35 -22 3 -26 10 -30 123 -69 66 -22 167 -55 225 -74 58 -18 111 -35 119 -38
30 -11 -1 20 -174 181 -176 164 -181 167 -217 162 l-36 -5 4 40 c2 22 6 57 8
79 2 21 0 44 -4 51 -9 15 -18 -39 -22 -135 l-3 -60 43 3 c42 3 46 1 140 -85
53 -48 120 -110 147 -136 l50 -49 -45 23 c-54 26 -235 129 -303 171 -26 17
-54 43 -62 59 -19 36 -19 107 0 152 21 50 19 100 -3 120 -33 30 -132 17 -132
-18 0 -8 11 -35 25 -61 37 -70 22 -131 -56 -224 -65 -77 -81 -140 -59 -221 9
-31 16 -37 57 -50 l47 -15 68 -214 c38 -118 67 -217 66 -221 -3 -7 -36 47
-194 320 -125 217 -126 220 -26 387 61 102 72 127 72 165 0 52 -21 79 -61 79
-35 0 -49 -18 -49 -63 0 -21 -5 -47 -10 -57 -6 -12 -7 -28 -1 -43 11 -29 -6
-67 -52 -114 -36 -39 -60 -42 -82 -11 -15 22 -14 23 31 35 82 21 95 70 38 140
-41 50 -41 51 21 136 51 72 73 171 40 183 -25 10 -17 51 16 84 27 27 38 31 73
28 38 -3 41 -1 44 24 4 36 -31 68 -78 68 -46 0 -76 -22 -96 -68 l-15 -37 -18
40 c-24 53 -45 69 -89 68 -27 -1 -42 -8 -59 -30 l-23 -28 0 27 c0 17 8 33 20
40 16 10 20 23 20 68 0 51 -12 124 -26 160 -5 12 -8 11 -14 -5 -5 -11 -10 -33
-11 -50 -5 -67 -17 122 -18 291 0 99 -4 250 -8 335 -7 128 -9 76 -13 -306 -5
-423 -6 -445 -13 -270 -4 105 -12 206 -16 225 -5 19 -16 73 -25 120 -9 47 -21
103 -28 125 l-11 40 -19 -60 c-10 -33 -24 -94 -31 -135 l-12 -75 -6 70 c-4 39
-8 124 -9 190 -3 129 -15 276 -19 215z m133 -460 c25 -181 36 -459 19 -485
-15 -22 -18 -95 -4 -95 12 0 21 -63 14 -104 -3 -22 -12 -36 -24 -39 -16 -4
-19 0 -18 31 1 21 3 29 6 20 9 -34 23 -18 23 25 0 31 -3 38 -10 27 -14 -21
-13 110 0 146 7 17 8 63 3 128 l-8 101 -5 -110 c-4 -90 -6 -62 -13 155 -4 146
-10 288 -12 315 -9 95 12 13 29 -115z m-173 -591 c19 -11 2 -42 -19 -34 -51
21 -56 20 -48 -16 3 -18 13 -41 22 -49 13 -13 18 -13 44 2 l30 17 -4 -42 c-3
-23 -5 -45 -5 -49 -1 -5 -9 -8 -18 -8 -25 -1 -56 -27 -48 -40 4 -6 4 -18 1
-27 -9 -22 -63 47 -78 101 -6 23 -17 48 -25 57 -21 25 -16 45 18 74 25 20 41
25 75 24 24 -2 49 -6 55 -10z m401 -16 c30 -29 37 -60 14 -69 -7 -3 -16 -22
-20 -43 -6 -42 -61 -125 -77 -116 -5 4 -7 11 -3 16 8 14 -25 49 -48 49 -10 0
-18 7 -18 18 0 9 -3 35 -7 56 l-6 39 21 -21 c38 -38 66 -24 79 38 6 30 4 33
-13 25 -36 -15 -59 -11 -62 11 -3 18 3 21 55 22 50 1 61 -2 85 -25z m-574
-165 c10 -24 40 -66 65 -94 43 -48 60 -84 38 -84 -29 0 -141 163 -141 208 0
26 20 10 38 -30z m642 -8 c-13 -44 -53 -101 -104 -147 -34 -31 -41 -34 -44
-20 -2 11 17 40 48 73 28 30 60 75 71 100 24 52 45 48 29 -6z m-377 4 c-9 -23
-23 -16 -23 12 0 22 2 24 14 14 8 -6 12 -18 9 -26z m107 11 c0 -14 -4 -25 -9
-25 -12 0 -19 21 -13 38 8 21 22 13 22 -13z m-170 -81 c6 -14 10 -36 10 -50
l0 -25 -26 25 c-21 19 -25 30 -20 50 8 33 24 33 36 0z m107 -21 c-3 -10 -5 -2
-5 17 0 19 2 27 5 18 2 -10 2 -26 0 -35z m143 12 c0 -24 -5 -35 -15 -35 -7 0
-19 -8 -25 -17 -9 -14 -10 -9 -5 26 7 52 11 61 31 61 9 0 14 -11 14 -35z
m-323 -107 c-3 -7 -5 -2 -5 12 0 14 2 19 5 13 2 -7 2 -19 0 -25z m30 0 c-3 -8
-6 -5 -6 6 -1 11 2 17 5 13 3 -3 4 -12 1 -19z m256 -23 c-3 -8 -9 -15 -14 -15
-10 0 -12 24 -3 33 11 11 24 -3 17 -18z m-193 -1 c0 -9 -5 -14 -12 -12 -18 6
-21 28 -4 28 9 0 16 -7 16 -16z m338 -54 c2 -12 1 -39 -3 -59 l-8 -36 -14 43
c-8 23 -19 40 -24 36 -5 -3 -9 4 -9 15 0 18 22 31 45 26 6 -1 12 -12 13 -25z
m-308 0 c0 -5 -5 -10 -11 -10 -5 0 -7 5 -4 10 3 6 8 10 11 10 2 0 4 -4 4 -10z
m125 0 c3 -5 1 -10 -4 -10 -6 0 -11 5 -11 10 0 6 2 10 4 10 3 0 8 -4 11 -10z
m129 -110 l7 -25 -15 25 c-9 15 -15 46 -14 75 l1 50 7 -50 c4 -27 11 -61 14
-75z m-337 68 c-3 -7 -5 -2 -5 12 0 14 2 19 5 13 2 -7 2 -19 0 -25z m278 -27
c-4 -28 -10 -53 -14 -55 -4 -3 -2 22 3 55 12 71 21 71 11 0z m-268 -23 c-3 -7
-5 -2 -5 12 0 14 2 19 5 13 2 -7 2 -19 0 -25z m63 -13 c6 3 10 -3 10 -15 0
-11 -7 -23 -15 -27 -19 -7 -20 -5 -29 31 -6 26 -5 28 8 17 8 -7 20 -10 26 -6z
m164 -19 c-7 -30 -30 -32 -48 -4 -13 21 1 38 15 18 9 -13 12 -13 22 2 15 23
19 16 11 -16z m-217 -8 c-3 -8 -6 -5 -6 6 -1 11 2 17 5 13 3 -3 4 -12 1 -19z
m120 -260 c-3 -8 -6 -5 -6 6 -1 11 2 17 5 13 3 -3 4 -12 1 -19z m127 -77 c6
-46 5 -52 -7 -39 -21 20 -30 56 -22 85 9 37 21 17 29 -46z m-207 7 c-3 -7 -5
-2 -5 12 0 14 2 19 5 13 2 -7 2 -19 0 -25z m142 -12 c27 -28 34 -43 34 -78 1
-40 -69 -397 -80 -408 -3 -3 -1 69 4 160 10 205 10 297 0 333 -10 36 2 34 42
-7z m100 -246 c0 -14 -10 12 -21 58 -12 52 -17 93 -13 110 6 22 11 10 21 -58
7 -47 13 -96 13 -110z m8 -52 c-3 -8 -6 -5 -6 6 -1 11 2 17 5 13 3 -3 4 -12 1
-19z"/>
<path d="M1313 2695 c0 -22 2 -30 4 -17 2 12 2 30 0 40 -3 9 -5 -1 -4 -23z"/>
<path d="M1122 2500 c0 -19 2 -27 5 -17 2 9 2 25 0 35 -3 9 -5 1 -5 -18z"/>
<path d="M1008 1243 c-9 -32 -15 -59 -13 -61 2 -2 9 15 16 38 7 23 19 44 26
47 17 7 17 33 1 33 -7 0 -21 -26 -30 -57z"/>
<path d="M1073 785 c0 -27 2 -38 4 -22 2 15 2 37 0 50 -2 12 -4 0 -4 -28z"/>
<path d="M1062 680 c0 -19 2 -27 5 -17 2 9 2 25 0 35 -3 9 -5 1 -5 -18z"/>
</g>
</svg>
