<?xml version="1.0" standalone="no"?>
<!DOCTYPE svg PUBLIC "-//W3C//DTD SVG 20010904//EN"
 "http://www.w3.org/TR/2001/REC-SVG-20010904/DTD/svg10.dtd">
<svg version="1.0" xmlns="http://www.w3.org/2000/svg"
 width="244.000000pt" height="305.000000pt" viewBox="0 0 244.000000 305.000000"
 preserveAspectRatio="xMidYMid meet">
<metadata>
Created by potrace 1.16, written by Peter Selinger 2001-2019
</metadata>
<g transform="translate(0.000000,305.000000) scale(0.100000,-0.100000)"
fill="#000000" stroke="none">
<path d="M873 2812 c-46 -199 -66 -387 -78 -719 l-5 -163 39 -24 c22 -14 42
-30 46 -36 11 -18 36 -11 70 19 18 16 38 30 45 33 15 5 15 250 1 443 -14 187
-69 514 -90 537 -3 4 -16 -37 -28 -90z m23 -909 c-2 -2 -23 9 -46 24 l-43 28
7 210 c7 246 32 482 69 645 10 47 12 -18 15 -424 1 -264 1 -481 -2 -483z"/>
<path d="M1560 2890 c0 -8 -3 -26 -5 -40 -5 -22 -4 -22 4 -5 6 13 10 -152 10
-468 l1 -488 -45 32 -45 32 0 141 c1 194 14 362 45 555 14 90 24 165 22 168
-6 6 -40 -177 -57 -312 -10 -76 -29 -421 -30 -532 0 -44 3 -53 21 -58 11 -4
36 -21 55 -37 l35 -31 27 25 c15 14 38 31 51 38 l24 12 -6 237 c-3 130 -13
290 -22 356 -21 159 -62 366 -75 379 -7 7 -10 5 -10 -4z"/>
<path d="M1137 2693 c-4 -93 -10 -294 -14 -448 -6 -267 -7 -277 -20 -216 -7
36 -16 67 -19 70 -11 11 -22 -24 -34 -112 -12 -88 -12 -91 9 -108 12 -10 25
-19 30 -21 5 -2 10 -32 12 -68 4 -60 2 -65 -16 -64 -11 1 -28 5 -37 9 -14 6
-18 2 -18 -17 0 -29 26 -68 46 -68 8 0 27 12 41 28 l26 27 -7 -34 c-3 -18 -6
-46 -6 -62 0 -23 -4 -29 -22 -29 -13 0 -32 -7 -42 -15 -16 -12 -17 -17 -6 -30
9 -11 10 -19 3 -26 -20 -20 -93 81 -93 129 0 11 -7 25 -15 32 -23 19 -18 46
13 75 22 21 35 25 72 23 43 -3 45 -2 42 22 -8 60 -47 84 -109 68 -23 -6 -36
-18 -50 -48 -10 -22 -21 -40 -24 -40 -4 0 -12 13 -19 29 -18 45 -47 66 -91 66
-45 0 -77 -26 -81 -65 -3 -23 1 -25 42 -28 34 -2 53 -11 78 -35 34 -33 42 -71
17 -81 -18 -7 -20 -59 -3 -107 9 -28 40 -79 93 -155 7 -10 1 -22 -22 -46 -41
-42 -53 -76 -40 -106 18 -40 96 -68 112 -41 4 6 2 30 -5 54 -15 55 -2 85 35
77 30 -5 40 -18 27 -35 -5 -7 -17 -38 -26 -69 -21 -73 -54 -100 -94 -77 -15 8
-41 33 -58 57 -26 34 -32 48 -27 75 6 36 -12 146 -26 160 -16 16 -60 11 -82
-9 -38 -35 -22 -96 60 -232 103 -170 105 -157 -60 -441 -150 -258 -169 -288
-169 -280 0 10 137 436 144 447 3 5 18 13 33 17 54 13 71 31 78 84 9 66 -6
108 -67 187 -84 110 -100 180 -53 236 47 55 25 88 -58 88 -78 0 -93 -39 -56
-148 42 -126 20 -156 -206 -282 -22 -12 -75 -43 -118 -67 -43 -25 -80 -43 -83
-41 -2 3 13 20 33 39 21 19 87 79 146 133 l109 98 45 -6 44 -6 -7 98 c-9 132
-26 156 -21 29 l4 -97 -33 6 c-31 6 -40 0 -141 -92 -60 -54 -135 -124 -168
-155 -33 -31 -71 -66 -85 -78 -42 -34 -7 -26 239 55 220 72 230 76 233 102 2
22 7 27 28 24 43 -4 114 -47 138 -82 32 -47 26 -80 -17 -94 -32 -11 -35 -16
-73 -136 -61 -191 -129 -413 -135 -435 -5 -24 73 58 268 278 138 155 140 159
130 189 -23 66 -20 68 78 68 50 0 93 -4 96 -10 5 -8 -10 -250 -30 -465 l-4
-50 14 55 c8 30 12 66 9 80 -3 15 -2 20 3 13 4 -6 9 19 10 60 2 40 7 88 13
107 8 30 9 27 5 -25 -3 -33 -7 -73 -9 -90 -3 -16 0 -11 6 12 6 24 14 43 17 43
3 0 14 -44 24 -98 11 -53 31 -155 47 -227 15 -71 31 -148 35 -170 l8 -40 17
79 c10 43 35 163 56 267 21 104 41 189 45 189 4 0 15 -35 24 -77 9 -43 23
-100 30 -128 l13 -50 1 48 c1 27 -3 47 -10 47 -7 0 -9 23 -5 68 3 37 2 52 -2
32 -6 -28 -12 -2 -30 125 -26 188 -26 185 -8 185 8 0 16 5 18 11 3 10 176 15
186 4 3 -2 -1 -25 -8 -50 l-13 -45 79 -87 c44 -47 117 -130 164 -182 131 -148
153 -171 158 -167 2 3 -10 46 -26 98 -47 146 -109 347 -127 411 -15 50 -20 59
-46 64 -43 8 -53 25 -36 66 20 46 62 83 116 102 47 16 57 13 63 -20 2 -12 18
-24 43 -33 22 -7 63 -22 90 -32 63 -23 338 -110 349 -110 8 0 -94 97 -266 254
-95 85 -111 97 -139 94 l-32 -3 1 90 c0 85 0 87 -9 40 -5 -27 -16 -76 -25
-108 -8 -32 -12 -62 -9 -67 3 -4 91 -61 196 -126 105 -65 186 -120 181 -122
-5 -1 -60 16 -123 38 -63 23 -140 51 -172 62 l-58 20 6 39 c4 22 3 39 -2 39
-5 0 -19 9 -31 20 -29 27 -30 114 -2 195 21 61 19 84 -6 110 -28 28 -134 13
-134 -19 0 -8 11 -35 24 -59 35 -66 23 -131 -39 -206 -63 -76 -96 -152 -98
-221 -2 -51 3 -64 67 -180 39 -69 80 -143 92 -165 12 -22 38 -69 58 -104 20
-35 35 -66 32 -68 -4 -4 -105 110 -243 273 -58 69 -61 75 -52 106 5 18 9 64 9
103 0 78 17 124 88 236 77 122 88 180 39 214 -48 34 -87 10 -87 -55 0 -17 -4
-40 -10 -50 -6 -11 -6 -28 -1 -42 11 -29 -16 -85 -59 -122 -52 -43 -77 -34
-104 40 -8 21 -15 34 -15 27 -1 -6 3 -23 9 -37 7 -21 6 -26 -5 -26 -21 0 -42
38 -49 91 -7 44 -6 47 25 62 54 26 73 4 56 -65 -13 -55 -4 -72 35 -64 40 8 78
43 78 71 0 12 -16 42 -35 66 -19 24 -35 49 -35 55 0 6 16 33 36 59 63 81 95
198 59 211 -26 10 -17 54 17 86 28 26 38 29 71 25 43 -6 53 6 43 49 -5 17 -19
30 -42 40 -32 14 -39 13 -72 -3 -24 -12 -44 -32 -56 -58 l-20 -39 -9 29 c-29
91 -120 109 -167 33 l-20 -33 0 35 c0 28 6 38 28 51 25 14 28 21 25 55 -8 79
-25 174 -33 179 -5 3 -14 -21 -20 -52 -6 -32 -19 -78 -28 -103 -17 -44 -17
-33 -22 405 -3 248 -7 414 -9 370 -2 -44 -6 -150 -10 -235 l-6 -155 -12 75
c-7 41 -21 102 -31 135 l-19 60 -11 -40 c-30 -104 -55 -252 -62 -370 -6 -95
-8 -24 -7 262 0 216 -2 395 -5 398 -3 3 -8 -70 -11 -162z m82 -408 c-12 -373
-12 -364 -19 -265 l-6 85 -2 -115 c-1 -63 3 -132 9 -153 11 -42 3 -121 -12
-111 -10 6 -12 -20 -2 -55 6 -23 7 -23 14 -5 6 15 8 12 8 -14 1 -29 -1 -32
-18 -23 -34 18 -37 126 -4 138 18 7 7 84 -13 96 -8 5 -11 13 -7 20 5 7 11 107
14 222 3 126 13 253 24 318 10 59 19 106 20 105 1 -2 -1 -111 -6 -243z m216
-518 c37 5 44 2 68 -27 30 -36 33 -47 14 -69 -8 -9 -19 -34 -25 -57 -12 -41
-60 -113 -76 -114 -4 0 -6 12 -3 26 5 30 -15 54 -48 54 -21 0 -23 5 -27 50 -1
28 -2 50 0 50 1 0 13 -7 27 -16 29 -19 62 -5 71 31 8 34 -2 48 -27 34 -26 -14
-49 -5 -49 19 0 24 11 35 23 23 6 -6 29 -8 52 -4z m-501 -202 c15 -30 48 -73
72 -95 39 -36 59 -80 35 -80 -17 0 -112 111 -131 152 -39 87 -20 106 24 23z
m641 28 c-13 -54 -40 -98 -90 -150 -28 -29 -57 -53 -63 -53 -25 0 -10 29 43
83 31 31 65 77 76 102 22 50 45 62 34 18z m-382 -24 c-5 -16 -8 -18 -14 -7 -5
7 -9 21 -9 32 0 15 3 16 14 7 8 -7 12 -21 9 -32z m107 24 c0 -10 -4 -24 -9
-32 -7 -11 -10 -9 -16 8 -7 22 0 41 16 41 5 0 9 -8 9 -17z m-166 -80 c3 -10 8
-36 12 -58 l7 -40 -26 25 c-30 28 -38 90 -13 90 8 0 17 -8 20 -17z m236 -16
c0 -20 -8 -39 -20 -50 -28 -24 -33 -22 -25 16 15 69 45 92 45 34z m-133 -14
c-3 -10 -5 -4 -5 12 0 17 2 24 5 18 2 -7 2 -21 0 -30z m-170 -95 c-3 -8 -6 -5
-6 6 -1 11 2 17 5 13 3 -3 4 -12 1 -19z m30 -10 c-3 -8 -6 -5 -6 6 -1 11 2 17
5 13 3 -3 4 -12 1 -19z m59 -13 c-7 -18 -26 -20 -26 -2 0 18 24 41 28 27 2 -6
1 -17 -2 -25z m221 13 c-3 -8 -6 -5 -6 6 -1 11 2 17 5 13 3 -3 4 -12 1 -19z
m-37 -14 c0 -17 -22 -14 -28 4 -2 7 3 12 12 12 9 0 16 -7 16 -16z m-285 -165
c-10 -24 -13 -26 -9 -9 3 14 9 48 12 75 l7 50 3 -41 c2 -23 -4 -57 -13 -75z
m310 31 l-14 -55 5 50 c7 61 17 97 21 75 1 -8 -4 -40 -12 -70z m-258 23 c-3
-10 -5 -4 -5 12 0 17 2 24 5 18 2 -7 2 -21 0 -30z m10 -55 c-3 -7 -5 -2 -5 12
0 14 2 19 5 13 2 -7 2 -19 0 -25z m53 -3 c16 10 20 -13 4 -26 -13 -10 -17 -10
-25 2 -5 8 -9 23 -9 34 1 19 1 19 11 2 6 -9 14 -15 19 -12z m146 6 c11 9 14 7
14 -9 0 -12 -5 -24 -11 -28 -16 -9 -43 21 -33 37 6 10 9 10 12 1 3 -10 7 -10
18 -1z m-79 -283 c-3 -8 -6 -5 -6 6 -1 11 2 17 5 13 3 -3 4 -12 1 -19z m-97
-50 c0 -35 -15 -67 -25 -56 -10 9 5 88 16 88 5 0 9 -15 9 -32z m70 -37 c-8
-30 -8 -90 0 -217 10 -176 12 -297 3 -259 -2 11 -20 92 -38 181 -19 88 -37
168 -41 177 -12 32 7 88 43 128 20 22 38 38 40 35 2 -2 -1 -23 -7 -45z"/>
<path d="M1333 2665 c0 -27 2 -38 4 -22 2 15 2 37 0 50 -2 12 -4 0 -4 -28z"/>
<path d="M1162 2555 c0 -16 2 -22 5 -12 2 9 2 23 0 30 -3 6 -5 -1 -5 -18z"/>
<path d="M1344 2340 c0 -69 1 -97 3 -62 2 34 2 90 0 125 -2 34 -3 6 -3 -63z"/>
<path d="M1426 1291 c-4 -6 0 -18 8 -27 12 -12 16 -12 16 -2 0 22 -17 42 -24
29z"/>
<path d="M1383 830 c0 -25 2 -35 4 -22 2 12 2 32 0 45 -2 12 -4 2 -4 -23z"/>
<path d="M1393 720 c0 -25 2 -35 4 -22 2 12 2 32 0 45 -2 12 -4 2 -4 -23z"/>
</g>
</svg>
