<?xml version="1.0" standalone="no"?>
<!DOCTYPE svg PUBLIC "-//W3C//DTD SVG 20010904//EN"
 "http://www.w3.org/TR/2001/REC-SVG-20010904/DTD/svg10.dtd">
<svg version="1.0" xmlns="http://www.w3.org/2000/svg"
 width="244.000000pt" height="305.000000pt" viewBox="0 0 244.000000 305.000000"
 preserveAspectRatio="xMidYMid meet">
<metadata>
Created by potrace 1.16, written by Peter Selinger 2001-2019
</metadata>
<g transform="translate(0.000000,305.000000) scale(0.100000,-0.100000)"
fill="#000000" stroke="none">
<path d="M1020 2883 c0 -15 -5 -67 -12 -117 -13 -100 -13 -100 -38 52 -6 39
-15 72 -18 72 -4 0 -6 -223 -4 -495 2 -272 0 -495 -3 -495 -4 0 -22 12 -40 26
l-34 26 -4 126 -3 127 -2 -139 -2 -139 37 -32 c38 -33 40 -65 3 -45 -46 25
-96 6 -113 -42 -11 -32 2 -47 37 -41 28 4 37 0 64 -31 36 -41 39 -57 16 -77
-13 -10 -15 -25 -11 -66 l6 -53 -30 0 c-32 0 -48 -26 -50 -78 0 -24 -1 -25 -8
-7 -12 29 -25 -73 -16 -125 6 -34 4 -39 -9 -34 -14 6 -36 61 -36 93 0 7 12 35
28 63 l27 49 -24 20 c-35 29 -91 22 -110 -13 -14 -24 -13 -34 3 -97 21 -81 18
-152 -9 -181 -19 -21 -309 -220 -320 -220 -8 0 27 42 144 168 83 90 87 93 125
90 l39 -3 -2 70 c-1 39 -6 86 -11 105 -7 27 -9 13 -7 -57 l2 -93 -31 6 c-26 5
-35 1 -52 -20 -11 -15 -72 -82 -136 -150 -64 -68 -126 -136 -138 -151 -21 -27
-21 -28 -3 -21 76 28 188 71 230 88 64 26 105 38 105 31 0 -4 -18 -30 -40 -59
-22 -29 -40 -58 -40 -64 0 -9 171 75 253 124 23 14 47 -14 47 -55 0 -21 -7
-29 -29 -37 -23 -8 -32 -20 -40 -49 -6 -21 -35 -132 -65 -248 -31 -115 -60
-226 -66 -244 -5 -19 -8 -37 -6 -38 3 -3 78 91 179 225 16 20 32 38 36 40 4 1
-3 -55 -15 -125 -13 -70 -24 -135 -24 -143 0 -8 20 21 43 65 76 141 129 238
164 303 30 53 34 70 31 115 l-3 52 38 -1 c42 -2 90 -31 95 -58 2 -9 -8 -32
-22 -51 l-27 -34 16 -93 c8 -51 24 -142 35 -203 11 -60 29 -164 41 -230 18
-104 29 -150 29 -119 0 5 14 88 30 184 17 96 42 240 56 319 l25 144 -32 33
c-27 28 -29 35 -19 53 23 45 117 80 135 51 3 -5 2 -26 -4 -46 -9 -34 -5 -45
106 -247 64 -117 118 -214 120 -217 7 -7 -8 111 -17 135 -4 11 -11 45 -14 75
-8 65 -20 75 123 -109 52 -67 96 -120 98 -117 2 2 -1 21 -6 42 -11 45 -72 272
-96 359 -9 33 -22 82 -28 109 -12 47 -21 58 -59 70 -23 7 -23 47 0 76 l18 22
114 -61 c62 -34 115 -59 118 -56 2 2 -10 27 -27 55 -17 28 -31 53 -31 56 0 9
13 4 204 -70 94 -36 172 -63 174 -61 3 2 -71 83 -163 180 -155 161 -171 175
-196 170 l-27 -6 5 98 c3 71 2 94 -6 83 -6 -8 -11 -35 -11 -60 0 -25 -6 -68
-14 -97 -11 -39 -11 -55 -2 -66 12 -15 83 -69 239 -182 53 -38 94 -71 92 -73
-5 -5 -271 105 -302 124 -19 12 -21 18 -12 41 9 25 7 30 -17 49 -37 30 -42 95
-15 197 28 106 15 137 -58 137 -14 0 -37 -7 -49 -16 l-22 -15 25 -49 c33 -65
32 -160 -1 -160 -10 0 -14 15 -14 55 0 56 -17 108 -31 99 -5 -3 -9 5 -9 18 0
32 -27 68 -50 68 -17 0 -18 5 -13 50 5 40 2 54 -12 70 -37 40 20 110 90 110
31 0 35 3 35 25 0 31 -41 75 -70 75 -12 0 -33 -9 -48 -20 -15 -13 -29 -17 -35
-11 -13 13 8 47 43 68 l30 17 0 156 c0 177 -14 398 -35 546 -19 140 -47 286
-52 280 -3 -2 -4 -230 -3 -505 0 -342 -2 -501 -10 -501 -6 0 -11 55 -12 153
l-2 152 -3 -132 c-3 -125 -5 -133 -23 -133 -13 0 -20 7 -20 18 0 9 -2 134 -5
277 -8 385 -8 592 0 604 3 6 2 11 -4 11 -6 0 -13 -10 -16 -22 -14 -60 -36
-321 -41 -483 -3 -121 -10 -199 -21 -238 l-17 -58 -12 28 -12 28 -1 -35 c-1
-19 -5 -41 -10 -48 -4 -7 -11 53 -14 140 -6 143 -35 364 -55 419 -9 22 -10 22
-15 4 -19 -58 -48 -276 -54 -390 -3 -71 -9 -137 -14 -145 -6 -10 -8 -5 -9 18
0 39 -20 34 -21 -6 -1 -26 -1 -25 -10 6 -15 53 -33 33 -40 -44 -6 -71 -15
-104 -29 -104 -10 0 -23 554 -19 798 2 105 1 192 -3 192 -5 0 -8 -12 -8 -27z
m60 -1009 c0 -8 -7 -14 -15 -14 -15 0 -21 21 -9 33 10 9 24 -2 24 -19z m334
-6 c-7 -10 -34 -10 -34 0 0 4 5 13 12 20 9 9 14 9 19 0 4 -7 5 -16 3 -20z
m-396 5 c2 -8 -5 -13 -17 -13 -12 0 -21 6 -21 16 0 18 31 15 38 -3z m480 0 c2
-8 -5 -13 -17 -13 -12 0 -21 6 -21 16 0 18 31 15 38 -3z m-382 -139 c-16 -15
-19 -16 -34 -1 -14 15 -14 17 9 26 32 12 47 -3 25 -25z m278 18 c5 -3 1 -11
-9 -18 -14 -11 -20 -10 -32 1 -27 28 1 39 41 17z m-384 -58 c0 -16 -16 -19
-25 -4 -8 13 4 32 16 25 5 -4 9 -13 9 -21z m477 -8 c-4 -9 -11 -16 -17 -16
-11 0 -14 33 -3 44 11 10 26 -11 20 -28z m-327 -48 c0 -10 9 -22 21 -28 11 -7
27 -27 35 -46 8 -19 16 -34 19 -34 3 0 11 15 19 34 8 19 24 39 35 46 12 6 21
18 21 28 0 13 9 17 40 17 l41 0 -3 -40 c-2 -22 -7 -39 -13 -39 -5 1 -24 5 -42
8 -38 9 -67 -18 -85 -78 l-12 -39 -13 40 c-15 44 -46 83 -68 83 -7 0 -25 -4
-39 -10 -27 -10 -30 -5 -40 50 -4 24 -1 25 40 25 35 0 44 -4 44 -17z m-172
-96 c19 -42 36 -86 39 -97 4 -17 2 -16 -16 5 -28 33 -59 98 -67 138 -11 56 10
34 44 -46z m68 -6 c-5 -15 -26 40 -25 67 0 15 5 10 15 -17 8 -22 13 -45 10
-50z m474 67 c-2 -45 -82 -194 -97 -179 -3 3 10 38 30 78 19 40 38 83 42 96 8
26 25 30 25 5z m-95 -32 c-4 -17 -11 -31 -16 -31 -11 0 -11 0 2 39 14 39 23
34 14 -8z m-285 -61 c11 -11 20 -32 20 -46 l0 -27 -19 24 c-46 60 -47 95 -1
49z m210 15 c0 -10 -45 -75 -52 -75 -16 0 -7 37 12 58 19 20 40 29 40 17z
m-428 -85 c-7 -11 -12 -55 -13 -97 0 -84 -11 -78 -23 13 -9 61 15 137 36 116
10 -10 10 -17 0 -32z m638 -45 c0 -59 -11 -115 -22 -109 -6 4 -7 27 -3 55 4
29 2 63 -5 83 -6 20 -8 41 -4 47 11 19 33 -31 34 -76z m-394 -15 c8 0 14 -7
14 -15 0 -21 -14 -19 -41 6 -19 16 -20 19 -6 15 10 -3 25 -6 33 -6z m145 -11
c-12 -10 -27 -16 -33 -13 -14 9 8 29 34 31 l23 2 -24 -20z m-189 -66 c13 -4
15 -13 11 -39 -5 -29 -2 -35 21 -45 14 -7 26 -20 26 -30 0 -24 -33 -42 -48
-27 -6 6 -35 12 -63 12 -30 1 -54 6 -56 13 -3 7 8 11 29 10 l33 -2 -4 64 c-3
59 -2 63 15 56 11 -4 27 -9 36 -12z m256 -40 c-7 -64 -3 -74 27 -63 15 6 27 6
30 0 13 -21 -8 -30 -62 -27 -38 1 -58 -2 -60 -10 -7 -20 -43 4 -43 28 0 12 10
23 25 29 27 10 35 52 13 67 -9 5 -3 10 17 14 58 13 58 13 53 -38z m286 -18
c-18 -27 -34 -33 -34 -12 0 17 20 37 37 37 10 0 10 -6 -3 -25z m-839 -15 c3
-5 1 -10 -4 -10 -6 0 -11 5 -11 10 0 6 2 10 4 10 3 0 8 -4 11 -10z m145 -66
c0 -8 -4 -12 -10 -9 -5 3 -10 13 -10 21 0 8 5 12 10 9 6 -3 10 -13 10 -21z
m523 6 c-3 -12 -8 -19 -11 -16 -5 6 5 36 12 36 2 0 2 -9 -1 -20z m313 -82 c60
-93 61 -97 14 -53 -77 71 -99 99 -87 107 23 15 33 7 73 -54z m-1062 42 c14 -5
26 -14 26 -19 0 -6 -24 -26 -54 -45 -65 -42 -136 -79 -136 -71 0 4 129 140
137 144 1 1 13 -3 27 -9z m842 -12 c-4 -13 -10 -49 -13 -81 -7 -66 -13 -49
124 -341 52 -109 92 -200 90 -202 -2 -3 -24 23 -48 57 -62 87 -80 111 -115
158 -26 33 -35 60 -49 139 -9 53 -21 105 -26 114 -14 27 -11 88 7 135 17 44
42 61 30 21z m-690 -23 c7 -19 14 -47 14 -63 0 -17 -46 -122 -108 -248 -60
-120 -114 -234 -122 -252 -29 -73 -20 -13 24 150 25 95 50 192 56 215 8 34 16
43 39 48 50 11 66 39 66 116 0 38 4 69 8 69 4 0 15 -16 23 -35z m284 -25 c0
-5 -7 -7 -15 -4 -8 4 -15 8 -15 10 0 2 7 4 15 4 8 0 15 -4 15 -10z m117 4 c-3
-3 -12 -4 -19 -1 -8 3 -5 6 6 6 11 1 17 -2 13 -5z m-37 -93 c-4 -15 -13 -39
-20 -52 l-13 -23 -18 23 c-11 13 -19 35 -19 50 1 25 1 25 15 -6 8 -18 17 -33
20 -33 3 0 13 16 21 35 17 42 26 46 14 6z m-255 -88 c7 -46 4 -54 -81 -220
-49 -94 -90 -170 -92 -168 -6 5 66 220 95 285 14 30 27 71 30 90 6 50 11 60
27 60 9 0 16 -17 21 -47z m505 18 c0 -39 -14 -47 -29 -15 -16 35 -14 44 9 44
15 0 20 -7 20 -29z m55 -83 c9 -35 -7 -37 -25 -4 -8 17 -10 37 -5 63 l8 38 7
-35 c4 -19 11 -47 15 -62z m-412 -102 c6 -59 -8 -40 -18 24 -5 29 -4 42 3 35
5 -5 12 -32 15 -59z m405 34 c14 -18 30 -63 42 -122 11 -51 22 -104 26 -118
13 -56 -9 -6 -56 128 -27 78 -46 142 -42 141 4 0 17 -13 30 -29z"/>
<path d="M1431 2874 c0 -11 3 -14 6 -6 3 7 2 16 -1 19 -3 4 -6 -2 -5 -13z"/>
<path d="M1042 2815 c0 -16 2 -22 5 -12 2 9 2 23 0 30 -3 6 -5 -1 -5 -18z"/>
<path d="M1485 2735 c-4 -31 -11 -52 -15 -45 -4 6 -10 -61 -14 -150 -4 -89 -5
-165 -2 -168 3 -3 6 20 6 51 0 31 5 59 10 62 6 3 10 40 10 81 0 41 5 107 11
145 6 39 9 73 6 76 -3 2 -9 -21 -12 -52z"/>
<path d="M921 2764 c0 -11 3 -14 6 -6 3 7 2 16 -1 19 -3 4 -6 -2 -5 -13z"/>
<path d="M1451 2754 c0 -11 3 -14 6 -6 3 7 2 16 -1 19 -3 4 -6 -2 -5 -13z"/>
<path d="M905 2687 c-4 -31 -5 -62 -3 -69 3 -7 8 16 12 51 4 35 5 65 2 68 -2
3 -7 -20 -11 -50z"/>
<path d="M1052 2715 c0 -16 2 -22 5 -12 2 9 2 23 0 30 -3 6 -5 -1 -5 -18z"/>
<path d="M1063 2625 c0 -22 2 -30 4 -17 2 12 2 30 0 40 -3 9 -5 -1 -4 -23z"/>
<path d="M885 2505 c-4 -53 -5 -98 -3 -101 3 -2 8 39 12 92 4 53 5 98 3 101
-3 2 -8 -39 -12 -92z"/>
<path d="M1073 2515 c0 -33 2 -45 4 -27 2 18 2 45 0 60 -2 15 -4 0 -4 -33z"/>
<path d="M1483 2385 c0 -44 2 -61 4 -37 2 23 2 59 0 80 -2 20 -4 1 -4 -43z"/>
<path d="M1083 2375 c0 -27 2 -38 4 -22 2 15 2 37 0 50 -2 12 -4 0 -4 -28z"/>
<path d="M874 2305 c0 -49 1 -71 3 -48 2 23 2 64 0 90 -2 26 -3 8 -3 -42z"/>
<path d="M1083 2220 c0 -47 2 -66 4 -42 2 23 2 61 0 85 -2 23 -4 4 -4 -43z"/>
</g>
</svg>
