<?xml version="1.0" standalone="no"?>
<!DOCTYPE svg PUBLIC "-//W3C//DTD SVG 20010904//EN"
 "http://www.w3.org/TR/2001/REC-SVG-20010904/DTD/svg10.dtd">
<svg version="1.0" xmlns="http://www.w3.org/2000/svg"
 width="244.000000pt" height="305.000000pt" viewBox="0 0 244.000000 305.000000"
 preserveAspectRatio="xMidYMid meet">
<metadata>
Created by potrace 1.16, written by Peter Selinger 2001-2019
</metadata>
<g transform="translate(0.000000,305.000000) scale(0.100000,-0.100000)"
fill="#000000" stroke="none">
<path d="M970 2900 c0 -8 -3 -26 -7 -39 -4 -18 -3 -22 6 -17 10 6 11 -92 5
-461 -4 -257 -8 -470 -10 -472 -2 -2 -16 9 -32 25 l-28 29 8 255 c4 153 15
321 27 420 23 180 23 186 16 179 -2 -3 -11 -59 -20 -125 -8 -65 -17 -135 -20
-154 -3 -19 -9 -163 -15 -319 l-10 -285 35 -32 c19 -17 35 -35 35 -39 0 -4
-21 -4 -47 -1 -55 7 -68 1 -82 -37 -18 -47 -14 -57 22 -57 39 0 72 -24 87 -66
9 -24 8 -31 -6 -41 -20 -14 -16 -79 10 -152 13 -40 13 -46 -2 -67 -26 -35 -34
-29 -26 21 4 30 2 50 -6 60 -14 17 -56 20 -65 5 -4 -7 -13 -6 -26 1 -34 18
-82 7 -98 -22 -13 -24 -13 -35 3 -107 21 -88 17 -136 -14 -175 -18 -22 -258
-208 -300 -232 -12 -7 -12 -5 1 11 9 10 40 48 69 84 29 36 77 91 107 123 48
53 56 58 83 52 l30 -7 -1 89 c-1 48 -5 99 -9 113 -6 17 -8 -7 -8 -70 1 -95 1
-95 -23 -92 -20 2 -39 -14 -101 -85 -42 -48 -91 -107 -110 -130 -18 -23 -53
-65 -76 -92 -24 -28 -42 -51 -40 -51 6 0 178 70 216 87 25 12 36 13 41 5 5 -8
14 -4 29 13 12 14 28 25 34 25 7 0 -2 -14 -19 -30 -18 -16 -39 -27 -46 -24 -8
3 -18 -6 -26 -22 -13 -30 -8 -42 11 -27 7 6 67 38 132 72 116 60 120 61 138
43 10 -10 21 -34 24 -54 6 -32 3 -37 -24 -49 -30 -13 -32 -17 -92 -264 -33
-137 -63 -268 -67 -290 l-6 -40 53 75 c30 41 56 77 60 80 4 3 13 16 19 28 20
38 22 21 6 -63 -9 -43 -13 -80 -10 -83 6 -7 5 -8 39 58 15 30 49 93 75 140
129 232 123 218 116 271 l-7 49 34 0 c42 0 76 -18 101 -52 l20 -27 -26 -35
c-31 -40 -35 2 33 -421 36 -226 49 -295 50 -259 0 13 51 345 89 584 9 55 5 71
-31 121 -9 13 -7 22 8 42 24 32 55 47 101 47 l36 0 -6 -52 c-7 -55 -8 -51 103
-253 9 -16 43 -79 75 -138 33 -60 61 -105 62 -100 2 5 -5 50 -15 100 -10 51
-15 90 -11 88 3 -3 32 -43 64 -90 32 -47 60 -83 62 -81 5 4 -40 203 -94 419
-29 115 -41 147 -54 147 -39 0 -45 62 -10 108 l17 23 79 -46 c43 -26 88 -51
100 -55 11 -4 44 -22 74 -39 29 -18 56 -30 59 -27 3 3 -7 24 -22 46 -30 46
-22 49 44 19 91 -42 141 -59 134 -47 -10 18 -143 176 -223 266 -52 59 -69 72
-87 68 -21 -6 -21 -4 -18 87 2 61 0 82 -5 62 -5 -16 -9 -45 -10 -64 -1 -45
-22 -112 -32 -105 -14 8 -10 73 6 134 19 72 19 86 -4 109 -14 14 -34 19 -90
19 -80 1 -92 -9 -83 -67 5 -33 4 -34 -24 -27 -16 4 -31 10 -33 12 -3 2 5 24
17 48 23 45 31 156 12 156 -19 0 -10 43 16 78 23 30 31 34 60 29 32 -5 34 -4
34 22 0 42 -33 71 -81 71 -33 0 -40 3 -37 18 2 9 14 22 27 27 l24 10 -7 245
c-4 134 -13 307 -21 385 -17 165 -45 345 -54 345 -3 0 -5 -71 -4 -157 1 -141
0 -150 -8 -78 -5 44 -7 100 -4 125 3 31 2 39 -4 25 -7 -15 -10 -5 -16 43 -4
34 -10 61 -12 58 -2 -2 -6 -91 -7 -197 -2 -107 -6 -275 -8 -374 -4 -125 -3
-140 1 -50 6 118 7 107 9 -110 1 -152 -1 -236 -8 -229 -5 5 -11 52 -13 104
l-3 95 -2 -103 c-1 -66 -6 -101 -12 -97 -5 3 -10 26 -10 51 0 27 -6 52 -15 60
-8 9 -15 24 -15 34 0 13 -5 17 -19 13 -16 -4 -21 -17 -26 -71 -9 -97 -13 -98
-16 -2 -2 47 -4 104 -5 127 -7 191 -48 462 -65 432 -16 -30 -48 -300 -56 -474
l-8 -180 -9 83 c-7 63 -12 82 -22 78 -8 -3 -14 0 -15 7 0 7 -5 1 -12 -13 -9
-20 -12 18 -18 190 -8 215 -42 577 -57 592 -4 4 -6 -52 -5 -125 1 -95 -1 -118
-7 -82 -4 28 -6 73 -4 100 3 35 2 44 -5 30 -7 -16 -10 -11 -16 30 -8 55 -23
100 -25 75z m260 -850 c0 -439 0 -440 -20 -423 -19 16 -20 30 -20 193 1 218
25 670 36 670 2 0 4 -198 4 -440z m183 -158 c21 -22 15 -31 -17 -25 -17 4 -22
10 -19 24 7 24 15 24 36 1z m-319 -8 c8 -22 5 -24 -21 -18 -13 4 -20 11 -16
20 7 19 29 18 37 -2z m-74 -25 c0 -5 -7 -9 -15 -9 -15 0 -20 12 -9 23 8 8 24
-1 24 -14z m453 -12 c-3 -5 -10 -4 -15 1 -6 6 -7 16 -3 22 6 9 9 9 16 -1 4 -7
5 -17 2 -22z m-336 -99 c-2 -7 -18 -12 -35 -12 -36 2 -38 -3 -17 -52 13 -32
18 -35 47 -32 26 2 33 -1 37 -17 2 -11 12 -25 21 -32 10 -7 24 -30 31 -50 l12
-38 18 43 c10 23 25 45 34 48 9 4 15 19 15 37 0 24 3 28 12 19 32 -32 78 -3
78 51 0 21 -4 24 -30 21 -21 -3 -30 1 -30 11 0 10 11 15 34 15 31 0 36 -4 46
-36 9 -26 9 -39 1 -47 -6 -6 -11 -21 -11 -33 0 -11 -5 -35 -11 -52 -10 -29
-11 -30 -37 -16 -54 28 -82 9 -103 -71 l-11 -40 -18 48 c-10 27 -24 55 -30 63
-16 18 -50 18 -78 -2 -25 -18 -29 -12 -35 48 -2 20 -9 43 -15 50 -12 15 -6 54
11 76 5 6 23 12 39 12 19 0 28 -4 25 -12z m-144 -193 l5 -40 -13 30 c-16 33
-21 91 -6 65 5 -8 11 -33 14 -55z m501 26 c-4 -17 -9 -30 -11 -27 -3 2 -2 19
2 36 4 17 9 30 11 27 2 -2 1 -18 -2 -36z m-348 -59 c15 -10 34 -47 34 -66 0
-13 -3 -14 -19 -4 -17 10 -51 58 -51 72 0 8 23 7 36 -2z m214 -2 c0 -6 -16
-27 -35 -48 -30 -32 -34 -34 -35 -16 0 26 36 74 56 74 8 0 14 -5 14 -10z
m-516 -243 c3 -11 0 -17 -7 -14 -15 4 -32 150 -21 174 5 12 10 -9 15 -62 5
-44 10 -88 13 -98z m642 85 c-4 -3 -12 0 -18 6 -9 9 -8 18 2 39 l14 28 4 -33
c2 -19 1 -37 -2 -40z m-482 13 c-6 -15 -8 -15 -16 -2 -4 8 -5 23 -2 32 6 15 8
15 16 2 4 -8 5 -23 2 -32z m360 30 c-6 -14 -64 -55 -78 -55 -3 0 -6 9 -6 19 0
14 5 18 18 14 10 -2 29 5 43 16 29 25 30 25 23 6z m295 -27 c-1 -46 -26 -138
-28 -102 -2 43 12 144 20 144 5 0 9 -19 8 -42z m-483 6 c9 3 14 -1 14 -14 0
-11 -3 -20 -6 -20 -14 0 -64 35 -69 48 -4 11 0 11 21 -2 14 -10 32 -15 40 -12z
m-40 -81 c16 -4 19 -10 16 -35 -4 -24 1 -35 22 -52 18 -14 25 -27 21 -38 -9
-24 -34 -30 -51 -13 -18 18 -28 18 -74 5 -23 -7 -38 -6 -45 1 -11 11 13 31 27
22 22 -13 35 18 30 73 -4 53 -3 57 14 49 11 -4 28 -10 40 -12z m253 -45 l-4
-63 33 0 c24 0 32 -4 32 -17 0 -19 -34 -25 -45 -8 -9 15 -62 12 -79 -5 -8 -8
-21 -12 -29 -9 -34 13 -30 64 5 64 16 0 19 6 16 38 -3 33 0 38 27 49 46 18 47
17 44 -49z m-433 -38 c13 -28 19 -48 14 -45 -9 5 -50 90 -50 103 0 12 14 -10
36 -58z m570 3 c-8 -15 -15 -25 -16 -21 0 12 23 58 27 54 3 -2 -2 -17 -11 -33z
m391 -121 c56 -45 105 -87 108 -92 4 -6 -20 1 -52 16 -32 14 -65 28 -73 31
-20 8 -80 74 -80 89 0 6 -7 17 -15 24 -18 15 -21 37 -2 23 6 -5 58 -46 114
-91z m-1177 37 c0 -5 -4 -9 -10 -9 -5 0 -10 7 -10 16 0 8 5 12 10 9 6 -3 10
-10 10 -16z m996 -6 c4 -19 17 -34 42 -46 40 -19 129 -93 122 -101 -4 -3 -164
86 -229 128 -11 7 -9 13 10 27 33 26 49 23 55 -8z m-801 -77 c9 -44 3 -70 -15
-74 -12 -2 -14 8 -12 53 4 62 18 72 27 21z m266 -8 c1 -40 22 -101 36 -105 6
-2 15 13 21 34 8 30 10 32 11 13 0 -14 -8 -38 -19 -55 -19 -28 -20 -49 -21
-315 -1 -172 -5 -265 -9 -235 -4 28 -18 129 -30 225 l-23 174 29 53 28 52 -16
68 c-23 92 -27 123 -17 123 5 0 9 -15 10 -32z m92 25 c-7 -2 -14 -17 -14 -31
-1 -18 -3 -21 -6 -9 -6 24 3 47 19 46 10 0 10 -2 1 -6z m247 -55 c0 -25 -4
-38 -9 -32 -8 8 -4 74 5 74 2 0 4 -19 4 -42z m-651 -117 c-11 -51 -51 -155
-121 -314 -61 -136 -62 -123 -7 95 60 244 64 254 102 265 18 5 33 9 35 8 1 -1
-3 -26 -9 -54z m596 -12 c-6 -43 -3 -53 23 -91 16 -24 40 -61 52 -83 24 -42
85 -214 78 -220 -2 -2 -24 35 -48 82 -25 48 -66 127 -92 177 -42 81 -47 96
-41 136 7 53 11 62 24 54 7 -4 8 -25 4 -55z m35 -39 c0 -5 -2 -10 -4 -10 -3 0
-8 5 -11 10 -3 6 -1 10 4 10 6 0 11 -4 11 -10z m213 -332 c12 -32 1 -19 -47
52 -35 53 -51 91 -66 155 -11 47 -20 89 -20 93 1 6 114 -251 133 -300z m-849
125 c-9 -21 -21 -54 -26 -73 -5 -19 -14 -39 -19 -45 -18 -19 14 118 34 143 20
25 27 11 11 -25z"/>
<path d="M1413 2700 c0 -25 2 -35 4 -22 2 12 2 32 0 45 -2 12 -4 2 -4 -23z"/>
<path d="M1402 2610 c0 -14 2 -19 5 -12 2 6 2 18 0 25 -3 6 -5 1 -5 -13z"/>
<path d="M1393 2480 c0 -36 2 -50 4 -32 2 17 2 47 0 65 -2 17 -4 3 -4 -33z"/>
<path d="M1384 2210 c0 -85 2 -120 3 -77 2 42 2 112 0 155 -1 42 -3 7 -3 -78z"/>
</g>
</svg>
