<?xml version="1.0" standalone="no"?>
<!DOCTYPE svg PUBLIC "-//W3C//DTD SVG 20010904//EN"
 "http://www.w3.org/TR/2001/REC-SVG-20010904/DTD/svg10.dtd">
<svg version="1.0" xmlns="http://www.w3.org/2000/svg"
 width="244.000000pt" height="305.000000pt" viewBox="0 0 244.000000 305.000000"
 preserveAspectRatio="xMidYMid meet">
<metadata>
Created by potrace 1.16, written by Peter Selinger 2001-2019
</metadata>
<g transform="translate(0.000000,305.000000) scale(0.100000,-0.100000)"
fill="#000000" stroke="none">
<path d="M968 2403 l3 -506 -36 29 -36 29 5 235 c3 129 12 299 21 378 9 79 15
151 13 160 -5 19 -26 -139 -38 -273 -4 -49 -8 -169 -9 -265 -1 -96 -4 -192 -8
-213 -5 -35 -3 -40 36 -73 33 -29 39 -39 30 -50 -9 -12 -14 -11 -32 1 -46 32
-88 10 -102 -52 -7 -33 -6 -33 33 -33 33 0 45 -6 66 -31 29 -35 33 -61 11 -79
-17 -14 -19 -50 -6 -96 8 -29 7 -30 -19 -26 -38 5 -60 -20 -61 -71 0 -33 -2
-38 -9 -22 -7 17 -9 14 -11 -15 -1 -19 -1 -60 0 -90 2 -51 1 -54 -14 -36 -23
30 -20 117 5 149 11 14 20 32 20 40 0 24 -35 47 -72 47 -63 0 -68 -24 -37
-181 20 -106 10 -121 -202 -275 -46 -33 -97 -69 -114 -80 l-30 -19 25 32 c14
17 68 81 120 142 l95 111 39 -6 39 -5 -6 68 c-4 37 -7 86 -7 108 -1 33 -2 37
-11 22 -10 -18 -6 -105 8 -151 4 -15 1 -17 -24 -12 -27 6 -35 0 -100 -71 -96
-107 -242 -278 -239 -280 2 -2 183 68 260 102 21 9 40 14 43 11 3 -2 -7 -25
-22 -50 -15 -25 -24 -46 -21 -46 3 0 20 8 38 18 18 11 73 40 122 66 99 53 109
52 121 -17 7 -35 5 -39 -22 -49 -33 -12 -37 -23 -118 -363 -25 -104 -49 -199
-52 -210 -11 -36 20 -1 103 119 43 64 80 111 82 106 2 -5 -4 -44 -12 -86 -26
-125 -21 -140 20 -64 34 63 125 232 170 318 18 35 22 53 17 92 -6 50 -6 50 24
50 41 0 79 -20 97 -51 15 -25 14 -29 -10 -65 l-27 -39 47 -290 c59 -366 58
-357 62 -353 2 2 26 149 54 326 l52 323 -26 34 c-30 40 -31 43 -8 71 24 29 55
44 91 44 35 0 41 -12 29 -62 -8 -40 -6 -46 142 -323 27 -49 58 -108 69 -130
18 -34 21 -36 20 -15 0 14 -8 68 -19 120 -10 52 -16 97 -13 100 3 3 8 0 10 -7
2 -7 16 -28 31 -47 15 -20 47 -65 72 -100 25 -36 49 -65 53 -66 5 0 6 3 4 8
-3 4 -33 124 -67 267 -66 273 -72 295 -94 295 -8 0 -18 6 -24 13 -14 17 3 86
23 93 8 3 42 -11 75 -30 34 -20 76 -43 94 -51 17 -7 50 -25 74 -40 50 -31 52
-23 13 36 -34 50 -31 65 8 45 15 -8 50 -24 77 -34 27 -11 73 -29 102 -40 28
-12 52 -20 52 -18 0 3 -33 42 -72 89 -40 46 -106 123 -147 170 -61 72 -78 87
-99 85 l-26 -3 1 95 c0 52 -1 79 -3 60 -3 -19 -11 -70 -20 -113 -8 -43 -12
-82 -8 -88 3 -6 71 -62 150 -125 79 -63 144 -116 144 -119 0 -10 -216 89 -234
108 -6 7 -18 28 -26 47 -7 19 -22 45 -32 57 -29 31 -33 90 -13 182 14 63 15
87 7 106 -15 32 -58 43 -93 22 -23 -13 -28 -13 -33 -1 -7 19 -60 18 -77 -2
-10 -12 -10 -22 -1 -48 15 -40 15 -76 2 -76 -5 0 -10 6 -10 14 0 8 -7 22 -16
31 -16 15 -16 19 1 53 21 46 32 146 16 156 -19 12 -12 53 15 86 21 25 33 31
58 28 29 -3 31 -1 29 30 -2 50 -20 65 -70 59 -24 -2 -46 0 -49 5 -7 12 25 48
43 48 16 0 16 49 3 343 -12 279 -36 505 -67 627 l-6 25 -7 -25 c-11 -35 -11
-60 0 -35 5 12 8 -141 7 -360 -1 -209 -2 -328 -4 -265 -3 169 -23 488 -33 540
-5 25 -12 70 -16 100 -7 55 -7 55 -16 21 -7 -23 -6 -36 2 -41 13 -8 13 -14 -6
-497 -8 -200 -14 -366 -13 -370 1 -5 1 -17 0 -28 -2 -20 -2 -20 -16 -1 -11 14
-16 52 -17 135 -1 64 -3 91 -5 61 -3 -38 -7 -50 -13 -40 -8 13 -10 12 -10 -2
0 -26 -20 -22 -21 5 -1 12 -7 -12 -14 -53 l-12 -75 -3 95 c-1 52 -2 98 -1 102
0 3 -8 78 -19 165 -19 163 -38 268 -47 259 -19 -18 -51 -265 -60 -455 -7 -149
-8 -153 -16 -91 -9 58 -11 62 -20 40 l-10 -25 -4 23 c-3 12 -9 20 -14 17 -5
-4 -9 2 -9 12 -1 189 -41 705 -59 755 -3 9 -5 -74 -4 -185 1 -135 -1 -185 -7
-152 -5 28 -9 91 -9 140 -1 50 -5 84 -9 77 -5 -7 -13 18 -20 65 -7 43 -16 81
-20 85 -4 4 -6 -221 -4 -499z m262 -353 l0 -441 -22 20 c-21 20 -21 23 -15
293 6 244 25 568 34 568 2 0 3 -198 3 -440z m207 -57 c-3 -10 -5 -4 -5 12 0
17 2 24 5 18 2 -7 2 -21 0 -30z m63 -83 c0 -5 -4 -10 -10 -10 -5 0 -10 5 -10
10 0 6 5 10 10 10 6 0 10 -4 10 -10z m-405 -41 c-6 -9 -35 -1 -35 10 0 4 3 11
7 14 8 9 34 -13 28 -24z m315 16 c7 -9 11 -18 8 -20 -9 -10 -38 7 -38 21 0 18
14 18 30 -1z m-390 -21 c0 -16 -2 -16 -24 -8 -13 5 -14 9 -5 20 13 16 29 9 29
-12z m460 7 c0 -14 -18 -23 -30 -16 -6 4 -8 11 -5 16 8 12 35 12 35 0z m-90
-121 c0 -4 -7 -13 -15 -20 -10 -9 -15 -9 -15 -1 0 6 -7 11 -15 11 -15 0 -20
12 -10 22 8 7 55 -3 55 -12z m-250 0 c0 -5 -7 -10 -15 -10 -8 0 -15 -5 -15
-11 0 -8 -5 -8 -15 1 -23 19 -18 30 15 30 17 0 30 -4 30 -10z m261 -73 c-6 -6
-11 -27 -11 -46 0 -42 -13 -66 -29 -56 -7 4 -25 9 -41 11 -33 6 -54 -18 -71
-80 l-11 -40 -21 54 c-27 66 -45 79 -89 62 -17 -6 -34 -10 -36 -7 -3 3 -9 24
-13 47 -4 24 -10 54 -13 68 l-7 25 13 -25 c17 -33 27 -40 60 -36 21 3 28 -1
28 -14 0 -10 11 -25 24 -33 13 -9 30 -33 37 -54 l12 -38 18 43 c10 23 25 45
34 48 8 3 15 16 15 29 0 19 5 22 38 21 33 -1 39 3 52 33 11 25 16 29 18 17 2
-10 -1 -23 -7 -29z m66 11 c-3 -8 -6 -5 -6 6 -1 11 2 17 5 13 3 -3 4 -12 1
-19z m-473 -120 c35 -106 36 -111 21 -98 -15 13 -55 111 -55 135 0 32 18 12
34 -37z m482 -53 c-14 -30 -27 -55 -30 -55 -2 0 5 30 16 68 30 98 31 100 36
69 2 -15 -8 -51 -22 -82z m-429 63 c-3 -7 -5 -2 -5 12 0 14 2 19 5 13 2 -7 2
-19 0 -25z m375 -10 c-6 -6 -7 0 -4 19 5 21 7 23 10 9 2 -10 0 -22 -6 -28z
m-275 -46 c12 -8 33 -55 33 -74 0 -16 -40 22 -56 54 -15 29 -5 38 23 20z m199
-20 c-8 -15 -24 -36 -36 -47 l-23 -20 7 30 c9 35 33 65 53 65 11 0 11 -4 -1
-28z m-401 -44 c-14 -67 -16 -124 -7 -165 6 -24 6 -43 2 -43 -22 0 -37 155
-19 204 16 45 34 47 24 4z m704 -30 c0 -35 -2 -39 -9 -21 -8 19 -3 63 6 63 2
0 4 -19 3 -42z m18 -80 c-2 -18 -4 -6 -4 27 0 33 2 48 4 33 2 -15 2 -42 0 -60z
m-497 37 c10 6 26 -22 18 -31 -7 -6 -68 29 -68 39 0 4 9 3 20 -3 11 -6 25 -8
30 -5z m310 -1 c0 -8 -5 -12 -10 -9 -6 4 -8 11 -5 16 9 14 15 11 15 -7z m-159
-15 c-27 -22 -41 -24 -41 -6 0 19 4 22 37 24 l28 1 -24 -19z m-172 -96 c-10
-27 -2 -53 16 -53 19 0 36 -25 29 -43 -8 -23 -36 -30 -46 -12 -7 12 -20 14
-64 9 -46 -6 -54 -4 -54 10 0 11 9 16 31 16 l32 0 -7 50 c-4 28 -4 54 -2 59 3
4 21 3 40 -3 30 -9 33 -13 25 -33z m239 -20 c-3 -57 -3 -58 24 -58 15 0 27 -4
25 -10 -1 -5 -25 -10 -53 -10 -28 0 -58 -6 -66 -13 -13 -10 -19 -10 -32 3 -18
19 -18 18 -10 39 3 9 14 16 24 16 23 0 35 33 21 59 -12 21 -2 27 47 30 22 1
23 -2 20 -56z m242 17 l-8 -35 -1 31 c-1 17 2 34 6 37 11 12 12 3 3 -33z
m-109 -56 c-36 -70 -40 -63 -8 17 12 32 26 54 30 50 5 -5 -5 -35 -22 -67z
m-674 29 c-3 -3 -11 -2 -17 2 -8 5 -7 11 2 22 12 15 13 14 16 -1 2 -10 1 -20
-1 -23z m143 -83 c0 -20 -25 16 -34 50 -7 23 -6 23 13 -5 12 -16 21 -37 21
-45z m-240 -21 c0 -6 -6 -16 -13 -22 -7 -7 -37 -34 -66 -62 -32 -30 -49 -41
-42 -27 7 12 9 27 6 32 -4 6 -3 9 2 8 19 -6 73 37 73 59 0 16 6 23 20 23 11 0
20 -5 20 -11z m982 -4 c7 -9 41 -43 75 -77 35 -34 61 -63 59 -65 -4 -4 -153
81 -186 107 -25 19 -25 19 -5 34 26 20 41 20 57 1z m-792 -107 c0 -27 -4 -48
-9 -48 -5 0 -15 -17 -22 -37 -14 -45 -19 -57 -174 -400 -16 -35 -30 -62 -31
-60 -2 2 8 48 22 103 14 54 28 110 30 124 6 30 30 119 50 181 12 37 21 47 49
58 41 14 47 30 47 123 l1 72 18 -35 c10 -19 18 -55 19 -81z m613 14 c-4 -43
-10 -62 -19 -62 -19 0 -18 51 1 97 8 20 17 34 19 32 3 -2 2 -32 -1 -67z m-353
18 c0 -11 -2 -20 -4 -20 -2 0 -6 9 -9 20 -3 11 -1 20 4 20 5 0 9 -9 9 -20z
m39 -120 c5 0 13 15 17 33 4 18 9 26 12 18 5 -15 -26 -81 -39 -81 -9 0 -29 57
-28 79 0 9 7 1 15 -16 8 -18 18 -33 23 -33z m248 -57 c-3 -32 0 -49 13 -66 9
-12 25 -36 34 -54 20 -40 87 -244 84 -255 -2 -5 -41 67 -87 159 -85 169 -95
204 -75 266 5 15 8 16 21 5 11 -9 14 -24 10 -55z m-497 37 c0 -11 -4 -20 -10
-20 -5 0 -10 9 -10 20 0 11 5 20 10 20 6 0 10 -9 10 -20z m687 -245 c19 -44
44 -98 54 -121 23 -49 24 -61 4 -44 -8 7 -15 16 -15 21 0 4 -15 29 -32 54 -18
26 -38 55 -43 65 -6 10 -16 25 -23 33 -7 8 -19 50 -26 93 -8 44 -17 93 -21
109 -6 28 18 -22 102 -210z m-449 -193 l-3 -137 -12 95 c-44 338 -45 347 -26
381 10 17 23 40 28 51 11 21 17 -161 13 -390z m-71 261 c-3 -10 -5 -4 -5 12 0
17 2 24 5 18 2 -7 2 -21 0 -30z m-265 -108 c-39 -116 -53 -122 -28 -11 13 55
52 133 62 123 2 -1 -14 -52 -34 -112z"/>
<path d="M951 2844 c0 -11 3 -14 6 -6 3 7 2 16 -1 19 -3 4 -6 -2 -5 -13z"/>
<path d="M942 2780 c0 -19 2 -27 5 -17 2 9 2 25 0 35 -3 9 -5 1 -5 -18z"/>
<path d="M1021 2794 c0 -11 3 -14 6 -6 3 7 2 16 -1 19 -3 4 -6 -2 -5 -13z"/>
<path d="M1412 2770 c0 -19 2 -27 5 -17 2 9 2 25 0 35 -3 9 -5 1 -5 -18z"/>
<path d="M1403 2665 c0 -22 2 -30 4 -17 2 12 2 30 0 40 -3 9 -5 -1 -4 -23z"/>
<path d="M1393 2585 c0 -22 2 -30 4 -17 2 12 2 30 0 40 -3 9 -5 -1 -4 -23z"/>
<path d="M1391 2524 c0 -11 3 -14 6 -6 3 7 2 16 -1 19 -3 4 -6 -2 -5 -13z"/>
<path d="M1383 2410 c0 -41 2 -58 4 -37 2 20 2 54 0 75 -2 20 -4 3 -4 -38z"/>
</g>
</svg>
