<?xml version="1.0" standalone="no"?>
<!DOCTYPE svg PUBLIC "-//W3C//DTD SVG 20010904//EN"
 "http://www.w3.org/TR/2001/REC-SVG-20010904/DTD/svg10.dtd">
<svg version="1.0" xmlns="http://www.w3.org/2000/svg"
 width="244.000000pt" height="305.000000pt" viewBox="0 0 244.000000 305.000000"
 preserveAspectRatio="xMidYMid meet">
<metadata>
Created by potrace 1.16, written by Peter Selinger 2001-2019
</metadata>
<g transform="translate(0.000000,305.000000) scale(0.100000,-0.100000)"
fill="#000000" stroke="none">
<path d="M1011 2886 c-1 -28 -2 -29 -15 -10 -13 17 -15 11 -13 -61 1 -44 -1
-125 -5 -180 -4 -56 -3 -82 1 -60 5 24 9 -98 10 -297 1 -313 -3 -362 -24 -328
-5 8 -11 7 -21 -1 -20 -16 -23 -1 -27 126 l-3 110 -2 -137 c-2 -129 -1 -137
18 -143 11 -3 24 -14 29 -23 8 -15 3 -17 -29 -17 -50 -1 -80 -28 -80 -70 0
-29 3 -32 32 -33 50 -1 96 -74 68 -107 -23 -27 -7 -118 35 -200 36 -72 37 -75
21 -100 -22 -34 -36 -23 -36 28 0 53 -10 67 -46 70 -25 3 -29 7 -27 32 1 16
-3 35 -9 42 -11 13 -93 18 -122 7 -23 -9 -28 -60 -12 -144 7 -41 10 -79 5 -84
-16 -18 -29 8 -30 62 -1 31 -5 68 -10 82 -5 17 -7 -3 -6 -63 l2 -87 -27 0
c-16 0 -28 -3 -28 -7 0 -5 -12 -21 -28 -38 -15 -16 -54 -64 -87 -105 -32 -41
-79 -100 -103 -130 -24 -30 -39 -56 -34 -58 6 -2 29 6 51 16 41 20 64 15 36
-8 -8 -7 -13 -16 -10 -20 2 -4 73 27 157 69 122 62 154 82 156 100 2 12 9 20
15 18 22 -7 65 -73 71 -108 6 -34 4 -38 -21 -47 -26 -8 -30 -18 -50 -103 -99
-421 -117 -520 -83 -447 7 16 16 28 20 28 4 0 11 10 15 23 6 19 8 19 12 4 2
-9 -1 -33 -7 -53 -31 -92 7 -35 214 324 46 79 48 84 38 124 -6 23 -9 45 -6 50
10 15 89 8 121 -11 43 -27 51 -56 22 -94 -25 -34 -24 -50 20 -342 11 -72 27
-177 35 -234 9 -57 18 -106 19 -108 4 -4 34 180 73 457 l28 196 -24 32 c-23
31 -24 35 -9 60 19 35 54 52 107 52 l43 0 -6 -52 c-6 -53 -5 -54 89 -213 52
-88 109 -182 126 -210 l32 -50 -7 47 c-3 27 -4 48 -1 48 2 0 21 -28 42 -62 21
-34 39 -57 41 -51 3 9 -35 181 -103 465 -24 99 -28 107 -55 117 -36 12 -36 23
-3 89 23 47 47 66 56 43 3 -8 281 -151 294 -151 3 0 2 9 -1 20 -3 11 -5 20 -3
20 2 0 35 -13 73 -29 38 -16 71 -28 74 -26 2 2 -23 35 -55 73 -70 81 -216 260
-225 274 -4 6 -19 8 -33 4 l-26 -6 5 92 c3 72 2 84 -5 53 -5 -22 -12 -61 -15
-87 -4 -32 -11 -48 -21 -48 -19 0 -18 52 1 105 33 92 11 135 -69 135 -66 0
-88 -14 -84 -53 3 -30 0 -32 -32 -37 -34 -5 -35 -7 -40 -54 -6 -56 -20 -68
-39 -33 -11 21 -8 31 23 89 20 35 41 90 47 121 10 48 9 60 -5 82 -31 47 13
115 75 115 22 0 29 5 29 20 0 30 -21 69 -42 76 -25 8 -79 -5 -100 -23 -9 -8
-22 -12 -28 -8 -12 8 -3 28 12 23 5 -2 28 14 50 35 l41 39 -7 251 c-8 265 -25
470 -52 628 -9 52 -17 95 -19 97 -1 2 -5 -11 -7 -28 -3 -16 -1 -30 4 -30 4 0
8 -27 8 -61 0 -71 -19 -73 -21 -1 -1 39 -15 109 -18 92 -1 -3 -3 -54 -5 -115
-2 -60 -6 -139 -9 -175 -3 -45 -3 -53 3 -25 4 22 8 -112 8 -297 2 -296 0 -337
-13 -332 -13 5 -15 38 -15 207 0 110 -2 198 -4 196 -3 -3 -6 -91 -8 -196 -1
-110 -6 -189 -11 -186 -5 3 -13 0 -17 -6 -4 -7 -10 23 -14 65 -6 73 -17 106
-32 91 -3 -3 -12 -50 -19 -104 -7 -54 -13 -93 -14 -88 -1 6 -6 105 -11 220
-12 272 -41 488 -61 453 -16 -29 -47 -320 -55 -513 l-8 -190 -12 109 c-7 59
-15 110 -18 113 -13 13 -25 -13 -31 -65 -3 -31 -8 -77 -11 -102 -5 -41 -2 -49
25 -78 22 -23 31 -41 31 -66 0 -55 -8 -66 -42 -59 -31 6 -31 6 -25 -27 13 -61
44 -77 71 -38 16 22 16 21 16 -19 0 -28 5 -43 15 -47 9 -3 23 -22 31 -41 8
-19 16 -35 19 -35 3 0 11 16 19 35 8 19 22 38 31 41 9 4 15 19 15 43 1 33 2
34 15 18 18 -25 47 -18 63 16 18 38 9 61 -22 53 -47 -12 -51 72 -6 129 17 21
30 42 30 47 0 4 11 1 25 -8 34 -22 32 -42 -3 -36 -35 5 -61 -22 -69 -72 -6
-36 -5 -36 30 -36 31 0 39 -5 53 -32 15 -29 15 -34 0 -59 -9 -15 -16 -39 -16
-53 0 -37 -47 -130 -81 -160 -32 -28 -40 -76 -14 -76 9 0 39 24 67 53 l50 52
-22 -40 c-22 -39 -36 -52 -94 -88 l-29 -18 5 63 c7 80 23 114 59 127 16 5 29
14 29 20 0 12 -40 41 -57 41 -20 0 -49 -38 -62 -82 l-13 -42 -21 54 c-27 66
-47 81 -84 60 -39 -22 -39 -37 0 -53 28 -12 36 -23 46 -60 6 -25 11 -64 11
-86 l0 -40 -34 20 c-39 23 -106 93 -106 111 0 7 23 -11 51 -40 28 -29 57 -52
65 -52 24 0 16 37 -16 73 -36 42 -78 124 -86 169 -3 18 -11 43 -17 56 -18 38
9 76 57 80 38 3 38 4 33 39 -12 71 -67 95 -111 48 -19 -21 -25 -23 -35 -12
-12 15 -5 27 16 27 7 0 27 15 43 33 l29 32 0 205 c1 255 -31 667 -58 755 l-9
30 -1 -29z m6 -83 c-3 -10 -5 -4 -5 12 0 17 2 24 5 18 2 -7 2 -21 0 -30z m213
-753 l0 -441 -21 20 c-22 20 -22 23 -16 313 5 254 23 548 34 548 1 0 3 -198 3
-440z m-77 -787 c-5 -28 -2 -34 21 -43 35 -13 34 -45 -3 -64 -27 -14 -29 -14
-34 4 -6 25 -39 26 -79 3 -28 -17 -30 -17 -44 1 -21 29 -17 36 14 30 41 -8 54
12 40 64 -16 64 -9 73 45 54 43 -15 45 -18 40 -49z m34 45 c-3 -8 -6 -5 -6 6
-1 11 2 17 5 13 3 -3 4 -12 1 -19z m210 -47 c-7 -62 -1 -71 44 -71 22 0 25
-13 5 -29 -10 -8 -20 -8 -42 4 -39 20 -65 19 -71 -4 -4 -17 -9 -18 -28 -9 -41
18 -43 61 -3 71 15 4 19 12 16 37 -3 27 1 34 27 45 55 24 58 21 52 -44z m-697
2 c0 -5 -23 -37 -50 -72 -28 -36 -50 -68 -50 -71 0 -8 -125 -110 -134 -110 -6
0 61 89 149 197 28 34 58 62 68 62 9 1 17 -2 17 -6z m50 -15 c-1 -15 -18 -36
-50 -61 -28 -21 -50 -35 -50 -32 0 4 16 29 35 55 30 41 43 53 63 59 1 1 2 -9
2 -21z m980 -123 c0 -28 -8 -31 -35 -12 -21 16 -12 37 16 37 14 0 19 -7 19
-25z m65 -6 c11 -17 -1 -22 -24 -9 -12 6 -21 17 -21 26 0 11 4 12 19 4 11 -5
23 -15 26 -21z m140 -46 c47 -37 85 -71 85 -75 0 -11 -71 21 -102 46 -26 20
-83 96 -72 96 3 0 43 -30 89 -67z m-732 -36 c3 -24 11 -57 17 -73 11 -27 12
-28 25 -10 8 10 17 42 21 72 5 41 10 54 23 53 10 0 11 -2 4 -6 -7 -2 -13 -22
-13 -42 0 -21 -11 -59 -25 -85 -25 -47 -25 -48 -26 -329 l-1 -282 -33 225 -34
225 30 46 c31 49 36 78 18 111 -14 25 -28 138 -19 138 4 0 10 -19 13 -43z
m665 -4 c68 -39 43 -37 -29 3 -35 19 -53 32 -39 29 14 -4 44 -18 68 -32z
m-1308 -17 c0 -2 -8 -10 -17 -17 -16 -13 -17 -12 -4 4 13 16 21 21 21 13z
m378 -73 c-2 -5 -9 -19 -15 -33 -6 -14 -20 -46 -32 -72 -12 -26 -21 -52 -21
-57 0 -6 -4 -12 -8 -15 -14 -8 17 135 33 161 14 20 52 34 43 16z m-68 -12 c0
-41 -56 -267 -84 -338 -39 -100 -44 -94 -17 22 10 44 31 135 47 203 18 78 33
122 41 122 7 0 13 -4 13 -9z m607 -46 c-6 -19 -12 -33 -15 -30 -8 8 9 76 18
70 4 -3 3 -21 -3 -40z m75 -79 c15 -44 28 -84 28 -90 0 -5 -20 23 -44 64 -24
40 -42 79 -40 87 13 44 16 48 22 33 3 -8 18 -51 34 -94z m65 -204 c20 -40 34
-75 31 -78 -6 -5 -118 190 -118 204 1 17 54 -59 87 -126z m102 -86 c2 -20 -31
20 -49 62 -35 77 -21 93 15 17 19 -38 34 -74 34 -79z m-903 3 c-9 -19 -15 -26
-16 -17 0 23 22 75 26 62 3 -6 -2 -26 -10 -45z"/>
<path d="M962 2760 c0 -19 2 -27 5 -17 2 9 2 25 0 35 -3 9 -5 1 -5 -18z"/>
<path d="M1422 2720 c0 -14 2 -19 5 -12 2 6 2 18 0 25 -3 6 -5 1 -5 -13z"/>
<path d="M952 2690 c0 -19 2 -27 5 -17 2 9 2 25 0 35 -3 9 -5 1 -5 -18z"/>
<path d="M1412 2620 c0 -19 2 -27 5 -17 2 9 2 25 0 35 -3 9 -5 1 -5 -18z"/>
<path d="M936 2583 c-3 -26 -7 -118 -10 -203 -2 -85 -2 -126 0 -90 2 36 8 125
15 198 11 129 8 192 -5 95z"/>
<path d="M1403 2505 c0 -33 2 -45 4 -27 2 18 2 45 0 60 -2 15 -4 0 -4 -33z"/>
<path d="M964 2425 c0 -55 1 -76 3 -47 2 29 2 74 0 100 -2 26 -3 2 -3 -53z"/>
<path d="M1423 2435 c0 -44 2 -61 4 -37 2 23 2 59 0 80 -2 20 -4 1 -4 -43z"/>
<path d="M1394 2300 c0 -69 1 -97 3 -62 2 34 2 90 0 125 -2 34 -3 6 -3 -63z"/>
<path d="M954 2150 c0 -96 2 -136 3 -87 2 48 2 126 0 175 -1 48 -3 8 -3 -88z"/>
<path d="M1383 2045 c0 -44 2 -61 4 -37 2 23 2 59 0 80 -2 20 -4 1 -4 -43z"/>
</g>
</svg>
