<?xml version="1.0" standalone="no"?>
<!DOCTYPE svg PUBLIC "-//W3C//DTD SVG 20010904//EN"
 "http://www.w3.org/TR/2001/REC-SVG-20010904/DTD/svg10.dtd">
<svg version="1.0" xmlns="http://www.w3.org/2000/svg"
 width="244.000000pt" height="305.000000pt" viewBox="0 0 244.000000 305.000000"
 preserveAspectRatio="xMidYMid meet">
<metadata>
Created by potrace 1.16, written by Peter Selinger 2001-2019
</metadata>
<g transform="translate(0.000000,305.000000) scale(0.100000,-0.100000)"
fill="#000000" stroke="none">
<path d="M892 2875 c-51 -185 -92 -549 -92 -832 l0 -122 33 -17 c17 -9 39 -25
48 -36 16 -20 16 -20 62 15 25 19 51 37 58 39 9 3 9 61 0 264 -6 142 -14 279
-17 304 -9 80 -36 235 -41 240 -6 5 -3 -29 22 -210 21 -157 33 -580 16 -580
-7 0 -24 -9 -38 -20 -14 -11 -30 -20 -34 -20 -11 0 -12 947 -1 952 4 2 5 17 2
33 l-7 30 -11 -40z"/>
<path d="M1542 2813 c-47 -218 -66 -389 -78 -700 l-7 -181 43 -29 c24 -15 48
-32 54 -36 7 -5 32 4 64 25 l53 33 -5 235 c-3 129 -10 276 -16 325 -17 148
-66 403 -79 418 -4 4 -17 -36 -29 -90z m68 -142 c26 -174 50 -462 50 -606 l0
-110 -38 -25 c-20 -14 -40 -26 -44 -28 -5 -2 -8 214 -7 480 0 281 4 471 9 455
5 -16 18 -91 30 -166z"/>
<path d="M1331 2840 c-1 -14 -1 -230 -1 -479 0 -250 -1 -453 -3 -450 -6 6 -16
219 -17 349 -1 58 -5 97 -9 87 -4 -12 -11 13 -20 69 -7 48 -21 110 -31 138
l-17 51 -22 -91 c-11 -51 -24 -113 -27 -138 -12 -86 -24 -47 -24 77 0 68 -3
180 -7 248 -6 94 -9 12 -13 -341 -5 -426 -6 -459 -18 -395 -32 162 -41 174
-61 77 -18 -88 -15 -151 11 -171 13 -11 18 -23 14 -30 -6 -9 -12 -8 -26 4 -24
22 -86 22 -110 0 -11 -10 -25 -33 -31 -53 l-12 -36 -17 35 c-27 52 -56 73 -97
72 -43 -1 -73 -28 -76 -69 -2 -27 0 -29 33 -26 42 3 95 -27 112 -63 10 -22 8
-28 -10 -46 -12 -11 -22 -29 -22 -41 0 -39 35 -119 77 -175 l42 -56 -34 -41
c-46 -57 -53 -91 -25 -121 12 -13 35 -27 51 -30 30 -7 35 -19 20 -44 -14 -23
-54 0 -91 51 -25 34 -30 49 -25 75 3 17 1 51 -4 75 -5 24 -12 55 -16 71 -4 21
-11 27 -33 27 -15 0 -38 -7 -51 -16 -21 -15 -23 -22 -18 -70 3 -30 14 -66 25
-81 10 -16 42 -71 71 -124 49 -91 51 -99 51 -172 0 -42 5 -88 10 -102 6 -16 7
-33 1 -42 -15 -27 -275 -332 -288 -337 -6 -3 -4 9 7 27 152 267 240 440 240
472 0 65 -29 142 -76 202 -91 116 -104 172 -58 251 l27 45 -23 19 c-33 27
-104 25 -124 -4 -21 -30 -20 -63 5 -134 29 -82 22 -139 -21 -174 -29 -23 -31
-29 -21 -48 7 -13 10 -26 7 -31 -3 -4 -58 -27 -123 -50 -65 -24 -142 -52 -171
-63 -103 -40 -74 -16 163 130 55 34 113 72 129 85 l29 23 -17 65 c-9 36 -16
81 -16 100 0 19 -5 41 -11 49 -7 11 -9 -12 -6 -83 l4 -98 -28 6 c-35 8 -43 2
-194 -139 -60 -56 -134 -124 -163 -150 -29 -27 -50 -51 -48 -54 3 -2 111 31
240 74 218 72 236 80 236 101 0 36 23 37 87 6 62 -30 106 -81 101 -118 -2 -12
-18 -27 -39 -37 -39 -18 -21 29 -179 -483 -27 -89 -29 -115 -7 -84 7 9 44 52
83 95 299 332 295 327 288 359 -15 72 -17 70 74 73 l82 3 2 -38 c1 -37 1 -37
5 -5 3 19 10 32 19 32 18 0 19 4 -13 -200 -24 -147 -29 -169 -35 -135 -4 22
-4 9 -1 -29 3 -48 2 -66 -6 -62 -7 5 -11 -10 -11 -46 1 -50 3 -46 34 72 53
203 49 198 70 94 10 -49 22 -105 27 -124 4 -19 22 -107 40 -195 28 -143 39
-188 39 -158 0 5 18 97 40 204 23 107 48 232 57 279 l16 84 13 -34 c26 -71 10
38 -19 130 -12 39 -11 90 2 103 4 4 20 -69 35 -163 16 -94 26 -174 23 -176 -2
-3 -8 11 -11 32 -4 20 -9 34 -12 32 -8 -8 19 -107 28 -102 4 3 6 -1 3 -8 -3
-7 2 -35 10 -63 l14 -50 -4 45 c-14 133 -35 394 -35 434 l0 46 85 0 c47 0 85
-3 85 -6 0 -3 -5 -25 -11 -49 -11 -44 -11 -44 37 -102 54 -63 108 -123 199
-223 33 -36 82 -90 109 -120 56 -63 56 -63 7 95 -16 50 -43 137 -61 195 -70
230 -71 234 -110 246 -45 15 -48 37 -12 95 23 36 40 49 83 66 61 23 79 21 79
-11 0 -20 23 -30 243 -103 133 -44 244 -78 246 -76 3 2 -14 20 -36 41 -22 20
-80 73 -128 117 -49 44 -115 106 -149 138 -55 52 -64 57 -94 51 l-34 -5 7 84
c5 55 4 87 -3 91 -10 6 -20 -61 -25 -164 l-2 -35 43 3 c48 4 36 12 230 -166
56 -52 101 -97 98 -99 -2 -2 -37 14 -78 38 -40 23 -89 50 -108 61 -243 139
-256 159 -210 306 25 79 25 83 0 110 -39 41 -159 19 -143 -26 4 -9 15 -28 25
-41 20 -26 24 -103 8 -146 -5 -14 -35 -58 -67 -96 -50 -62 -57 -77 -61 -124
-2 -29 1 -68 7 -88 10 -29 19 -37 58 -49 l47 -15 68 -213 c38 -118 67 -218 66
-222 -3 -8 -50 68 -101 162 -32 58 -129 223 -147 250 -30 45 -53 118 -46 150
3 17 37 83 76 147 60 100 70 122 70 163 0 33 -5 52 -18 63 -22 20 -65 22 -80
5 -12 -16 -23 -89 -22 -152 1 -41 -4 -54 -35 -91 -42 -52 -73 -65 -92 -39 -18
25 -16 34 7 34 34 0 79 29 86 54 8 34 0 55 -40 101 l-35 40 24 30 c46 57 76
116 88 171 10 50 10 57 -6 69 -25 18 -21 49 12 84 24 26 36 31 75 31 42 0 46
2 46 24 0 42 -32 71 -80 71 -35 0 -47 -6 -71 -33 -16 -18 -29 -39 -29 -47 0
-27 -16 -15 -34 25 -12 28 -25 42 -44 46 -15 3 -34 8 -43 10 -9 3 -31 -7 -48
-22 -29 -24 -31 -25 -31 -5 0 11 9 25 20 31 17 9 20 21 20 71 0 61 -16 147
-31 163 -4 5 -11 -9 -14 -30 -4 -22 -8 -43 -9 -49 -2 -5 -6 132 -11 305 -7
302 -19 563 -24 510z m-84 -342 c-3 -8 -6 -5 -6 6 -1 11 2 17 5 13 3 -3 4 -12
1 -19z m29 -158 c18 -132 24 -450 10 -527 -6 -33 -5 -46 8 -58 11 -11 16 -32
14 -60 -1 -50 -6 -59 -30 -68 -16 -5 -18 0 -17 36 2 30 3 34 6 15 7 -43 23
-33 23 13 0 24 -4 38 -10 34 -6 -4 -10 20 -10 64 0 38 5 73 10 76 6 3 10 48
10 101 0 56 -4 94 -10 94 -6 0 -10 -39 -10 -97 0 -53 -2 -94 -4 -92 -5 6 -18
605 -13 599 3 -3 13 -61 23 -130z m-166 -593 c0 -22 -27 -34 -43 -18 -16 16
-37 14 -37 -4 0 -9 7 -30 16 -47 13 -26 20 -29 45 -24 28 5 29 4 29 -33 0 -34
-3 -39 -27 -44 -16 -3 -35 -18 -44 -33 l-17 -27 -26 40 c-15 22 -28 52 -30 67
-1 14 -10 34 -19 44 -25 27 -21 47 14 76 25 22 39 25 85 23 44 -2 54 -5 54
-20z m402 -7 c22 -27 23 -59 3 -66 -8 -4 -15 -16 -15 -28 -1 -30 -33 -98 -59
-120 -20 -18 -21 -18 -21 -1 0 25 -29 55 -52 55 -14 0 -18 8 -18 34 0 19 -3
43 -7 53 -6 15 -4 16 9 5 32 -25 57 -23 73 8 8 16 15 36 15 45 0 17 -25 21
-35 5 -11 -18 -41 -11 -42 9 -3 38 119 39 149 1z m-583 -157 c12 -34 57 -97
97 -138 9 -8 14 -22 12 -30 -5 -24 -74 38 -108 99 -28 48 -40 106 -22 106 4 0
14 -17 21 -37z m644 5 c-9 -44 -43 -102 -89 -151 -36 -37 -39 -39 -42 -19 -2
15 11 38 39 70 23 26 50 66 60 90 22 50 41 56 32 10z m-388 -1 c0 -26 -20 -25
-23 2 -3 16 1 22 10 19 7 -3 13 -12 13 -21z m125 9 c0 -8 -5 -18 -11 -22 -14
-8 -33 11 -25 25 10 16 36 13 36 -3z m72 -99 c-3 -24 -11 -38 -27 -45 -23 -11
-23 -10 -18 26 5 35 28 66 43 57 3 -2 4 -19 2 -38z m-257 6 c16 -74 17 -71
-20 -47 -32 21 -36 74 -5 74 13 0 21 -9 25 -27z m112 -20 c-3 -10 -5 -2 -5 17
0 19 2 27 5 18 2 -10 2 -26 0 -35z m76 -33 c-3 -12 -8 -19 -11 -16 -5 6 5 36
12 36 2 0 2 -9 -1 -20z m114 -52 c-3 -7 -5 -2 -5 12 0 14 2 19 5 13 2 -7 2
-19 0 -25z m-350 -10 c-3 -8 -6 -5 -6 6 -1 11 2 17 5 13 3 -3 4 -12 1 -19z
m323 3 c0 -6 -4 -13 -10 -16 -5 -3 -10 1 -10 9 0 9 5 16 10 16 6 0 10 -4 10
-9z m-255 -19 c0 -18 -20 -15 -23 4 -3 10 1 15 10 12 7 -3 13 -10 13 -16z
m203 -6 c3 -12 -1 -17 -10 -14 -7 3 -15 13 -16 22 -3 12 1 17 10 14 7 -3 15
-13 16 -22z m-314 -41 c33 -25 6 -131 -41 -163 l-23 -14 17 48 c9 27 17 55 19
61 2 7 10 10 19 7 11 -5 15 1 14 22 0 16 -3 23 -6 16 -2 -6 -9 -10 -14 -6 -5
3 -14 -7 -21 -23 l-12 -28 -4 39 c-5 52 16 68 52 41z m454 -30 c5 -55 -11 -62
-32 -14 -15 34 -16 43 -5 50 23 15 34 4 37 -36z m-182 8 c-10 -10 -19 5 -10
18 6 11 8 11 12 0 2 -7 1 -15 -2 -18z m-126 7 c0 -5 -4 -10 -10 -10 -5 0 -10
5 -10 10 0 6 5 10 10 10 6 0 10 -4 10 -10z m199 -71 c-7 -35 -14 -58 -17 -51
-4 14 18 125 25 119 2 -3 -1 -34 -8 -68z m44 51 c-3 -12 -8 -19 -11 -16 -5 6
5 36 12 36 2 0 2 -9 -1 -20z m-320 -80 c4 -27 3 -37 -2 -25 -5 11 -11 43 -14
70 -8 61 7 21 16 -45z m24 68 c-3 -8 -6 -5 -6 6 -1 11 2 17 5 13 3 -3 4 -12 1
-19z m220 0 c-3 -8 -6 -5 -6 6 -1 11 2 17 5 13 3 -3 4 -12 1 -19z m99 -106
c-10 -9 -15 2 -21 48 l-6 45 16 -43 c9 -24 14 -46 11 -50z m-283 30 c4 10 7
10 18 1 11 -11 9 -16 -8 -33 -23 -21 -35 -14 -46 28 -5 23 -5 23 13 7 14 -13
19 -13 23 -3z m168 9 c7 11 9 10 9 -6 0 -36 -14 -49 -39 -34 -21 14 -27 30
-14 42 3 4 13 2 20 -5 11 -9 17 -9 24 3z m-88 -282 c-4 -15 -8 -17 -14 -8 -6
11 4 28 18 29 0 0 -1 -9 -4 -21z m-78 -79 c-10 -17 -25 -1 -25 28 l0 26 16
-22 c8 -12 12 -27 9 -32z m156 7 c-8 -8 -11 -7 -11 4 0 20 13 34 18 19 3 -7
-1 -17 -7 -23z m14 -116 c-4 -30 -10 -64 -15 -76 -4 -11 -11 -40 -14 -65 -4
-25 -17 -92 -31 -150 l-24 -105 7 145 c4 80 7 198 7 262 l0 117 38 -37 c38
-36 38 -38 32 -91z"/>
<path d="M922 2815 c0 -11 4 -33 8 -50 7 -27 8 -27 8 -5 0 14 -4 36 -8 50 -6
20 -8 21 -8 5z"/>
<path d="M1123 2700 c0 -25 2 -35 4 -22 2 12 2 32 0 45 -2 12 -4 2 -4 -23z"/>
<path d="M1313 2625 c0 -27 2 -38 4 -22 2 15 2 37 0 50 -2 12 -4 0 -4 -28z"/>
<path d="M1113 2460 c0 -47 2 -66 4 -42 2 23 2 61 0 85 -2 23 -4 4 -4 -43z"/>
<path d="M1063 805 c0 -27 2 -38 4 -22 2 15 2 37 0 50 -2 12 -4 0 -4 -28z"/>
<path d="M1053 700 c0 -25 2 -35 4 -22 2 12 2 32 0 45 -2 12 -4 2 -4 -23z"/>
</g>
</svg>
