<?xml version="1.0" standalone="no"?>
<!DOCTYPE svg PUBLIC "-//W3C//DTD SVG 20010904//EN"
 "http://www.w3.org/TR/2001/REC-SVG-20010904/DTD/svg10.dtd">
<svg version="1.0" xmlns="http://www.w3.org/2000/svg"
 width="244.000000pt" height="305.000000pt" viewBox="0 0 244.000000 305.000000"
 preserveAspectRatio="xMidYMid meet">
<metadata>
Created by potrace 1.16, written by Peter Selinger 2001-2019
</metadata>
<g transform="translate(0.000000,305.000000) scale(0.100000,-0.100000)"
fill="#000000" stroke="none">
<path d="M1032 2890 c0 -14 2 -19 5 -12 2 6 2 18 0 25 -3 6 -5 1 -5 -13z"/>
<path d="M1517 2897 c-10 -27 -9 -49 3 -42 7 5 10 -146 10 -474 -1 -296 -5
-481 -11 -481 -5 0 -14 11 -21 25 -6 13 -15 22 -21 18 -28 -17 -32 27 -25 257
4 129 12 236 16 239 5 3 11 69 14 146 2 77 2 125 0 108 -2 -18 -7 -33 -11 -33
-4 0 -11 -62 -15 -137 -16 -293 -24 -278 -22 44 0 177 -2 314 -5 305 -14 -39
-40 -312 -49 -522 -6 -124 -16 -250 -23 -280 l-14 -55 -8 45 -8 45 -7 -33 c-4
-18 -10 -35 -12 -38 -3 -2 -8 62 -11 143 -6 137 -36 352 -56 405 l-9 23 -6
-25 c-33 -137 -56 -309 -56 -416 0 -51 -4 -96 -10 -99 -6 -3 -10 4 -10 17 0
35 -19 1 -21 -37 -1 -25 -3 -23 -14 18 -18 65 -22 67 -29 13 -3 -25 -8 -66
-11 -90 -3 -24 -12 -52 -20 -62 -15 -20 -16 27 -19 728 -1 115 -4 208 -7 208
-4 0 -10 -33 -14 -72 -8 -80 -13 -109 -18 -114 -2 -2 -12 42 -21 99 -21 116
-31 143 -38 103 -3 -14 -1 -26 3 -26 5 0 9 -214 9 -475 0 -261 -2 -475 -5
-475 -3 0 -21 10 -41 23 l-36 22 6 225 c6 215 24 432 48 568 5 35 8 65 5 68
-6 7 -39 -207 -52 -346 -9 -97 -23 -523 -18 -537 3 -7 11 -13 17 -13 16 0 56
-42 56 -58 0 -15 -26 -16 -35 -2 -3 6 -23 10 -44 10 -30 0 -42 -6 -55 -26 -10
-14 -16 -35 -14 -47 2 -18 9 -21 34 -19 42 4 94 -39 94 -78 0 -16 -5 -32 -11
-35 -6 -4 -9 -30 -8 -58 3 -45 0 -52 -16 -55 -26 -5 -45 -30 -45 -59 0 -13 -4
-23 -9 -23 -20 0 -38 -72 -29 -118 9 -53 8 -56 -16 -39 -29 21 -33 99 -7 142
26 45 27 71 2 85 -29 15 -77 12 -95 -6 -20 -20 -20 -79 -1 -134 19 -53 19 -91
1 -134 -11 -26 -48 -56 -175 -141 -88 -60 -163 -106 -165 -104 -3 3 50 62 116
133 l122 128 39 -6 40 -7 -7 62 c-3 34 -6 82 -6 105 0 27 -5 44 -11 44 -9 0
-10 -25 -6 -90 l7 -89 -29 5 c-26 6 -40 -7 -190 -167 -88 -95 -159 -174 -157
-176 2 -3 26 5 53 16 90 38 294 111 309 111 9 0 -2 -22 -31 -62 -25 -34 -45
-66 -45 -71 0 -5 56 21 125 57 68 36 131 66 139 66 9 0 18 -14 22 -36 7 -38
-4 -54 -38 -54 -12 0 -21 -14 -28 -42 -7 -24 -22 -81 -35 -128 -73 -264 -106
-392 -102 -396 3 -3 39 39 81 93 42 54 86 109 97 123 12 14 26 35 31 48 13 26
32 30 24 5 -3 -10 -14 -72 -25 -138 -12 -66 -24 -131 -27 -145 -6 -24 -5 -23
15 5 11 17 21 33 21 36 0 4 20 42 43 85 24 44 71 132 105 198 55 106 61 122
53 155 -4 20 -6 42 -4 49 11 29 106 -2 124 -42 10 -21 8 -29 -16 -60 -31 -41
-34 -5 30 -361 24 -132 47 -260 51 -285 l7 -45 8 35 c5 19 31 167 59 329 l51
294 -29 31 c-24 25 -28 35 -21 53 11 29 66 63 103 63 29 0 29 0 23 -49 -5 -46
-2 -57 49 -153 31 -57 81 -150 111 -208 31 -58 58 -107 61 -110 7 -7 -7 93
-24 178 -8 41 -13 79 -11 85 3 10 119 -129 182 -217 40 -56 57 -77 61 -73 2 2
-23 104 -56 228 -33 123 -67 252 -77 287 -14 55 -20 64 -44 69 -34 7 -41 23
-28 63 13 36 27 37 82 6 87 -49 159 -86 168 -86 5 0 -9 27 -32 60 -24 33 -40
62 -37 65 3 3 95 -28 204 -69 109 -42 200 -74 202 -71 2 2 -38 48 -89 102 -52
54 -128 133 -169 176 -66 69 -78 78 -102 73 l-28 -5 -2 97 c0 53 -3 81 -5 62
-1 -19 -10 -72 -19 -118 -9 -45 -15 -84 -13 -86 18 -16 311 -227 330 -237 13
-7 19 -14 13 -16 -6 -2 -73 23 -150 55 -76 32 -147 62 -158 66 -15 5 -17 13
-12 40 6 29 2 39 -19 61 -25 24 -26 31 -23 98 2 40 10 94 18 120 13 42 13 51
-1 75 -11 20 -24 28 -51 30 -44 4 -78 -12 -78 -36 0 -9 9 -30 20 -47 22 -33
27 -113 10 -146 -19 -35 -28 -20 -27 45 2 50 -2 68 -17 85 -10 11 -22 18 -26
16 -4 -3 -10 13 -14 35 -4 27 -12 41 -26 45 -17 5 -20 15 -20 66 0 33 -4 59
-10 59 -20 0 -10 49 17 80 23 27 32 31 65 28 37 -3 38 -2 38 27 -1 40 -20 64
-59 71 -26 6 -37 2 -60 -20 -19 -18 -31 -24 -36 -17 -11 19 4 45 40 71 l34 25
1 181 c0 208 -13 396 -41 574 -26 171 -43 240 -52 217z m-330 -869 c-2 -29 -3
-8 -3 47 0 55 1 79 3 53 2 -26 2 -71 0 -100z m-169 -151 c2 -12 -3 -17 -17
-17 -12 0 -21 6 -21 13 0 31 32 34 38 4z m482 -8 c0 -5 -11 -9 -25 -9 -27 0
-32 9 -13 28 12 12 38 -1 38 -19z m-420 6 c0 -8 -7 -15 -15 -15 -8 0 -15 7
-15 15 0 8 7 15 15 15 8 0 15 -7 15 -15z m335 5 c3 -6 -1 -13 -10 -16 -19 -8
-30 0 -20 15 8 14 22 14 30 1z m-299 -146 c-16 -15 -19 -16 -34 -1 -14 15 -14
17 9 26 32 12 47 -3 25 -25z m274 10 c0 -7 -5 -16 -10 -19 -13 -8 -43 22 -36
34 8 13 46 1 46 -15z m-380 -50 c0 -26 -17 -33 -26 -9 -8 20 3 48 16 40 5 -3
10 -17 10 -31z m480 5 c0 -18 -25 -37 -36 -27 -2 3 0 17 6 32 11 30 30 27 30
-5z m-313 -41 c-3 -8 -6 -5 -6 6 -1 11 2 17 5 13 3 -3 4 -12 1 -19z m-17 -24
c0 -7 9 -18 21 -24 11 -7 27 -27 35 -46 8 -19 16 -34 19 -34 3 0 11 15 19 34
8 19 24 39 35 46 12 6 21 19 21 28 0 14 9 17 40 17 40 0 40 0 40 -39 l0 -39
-44 6 c-54 8 -71 -4 -94 -66 l-19 -48 -11 38 c-20 64 -37 78 -90 78 -45 0 -47
1 -50 32 -3 26 1 32 20 35 33 5 58 -2 58 -18z m-200 -28 c0 -8 18 -49 40 -92
46 -91 50 -110 14 -71 -48 52 -93 177 -64 177 6 0 10 -6 10 -14z m88 -18 c6
-18 13 -42 17 -53 7 -18 6 -18 -8 -5 -15 15 -35 90 -24 90 4 0 10 -15 15 -32z
m387 -12 c-4 -19 -13 -40 -21 -47 -11 -9 -11 -3 1 37 8 27 15 51 15 53 0 2 3
2 6 -1 3 -3 2 -22 -1 -42z m91 2 c-7 -42 -71 -148 -95 -156 -7 -2 8 35 33 83
25 48 46 94 46 101 0 8 5 14 11 14 8 0 9 -14 5 -42z m-372 -70 c9 -12 16 -32
16 -43 -1 -18 -3 -17 -25 8 -25 28 -33 57 -16 57 6 0 17 -10 25 -22z m206 14
c0 -4 -13 -23 -30 -42 -25 -30 -29 -32 -30 -14 0 11 9 30 20 42 21 22 40 29
40 14z m-431 -101 c-6 -18 -9 -51 -6 -75 8 -54 -8 -82 -16 -29 -10 55 -8 98 3
129 16 41 33 17 19 -25z m631 9 c13 -32 5 -130 -11 -130 -5 0 -9 22 -9 49 0
27 -3 63 -6 80 -8 40 9 41 26 1z m-371 -57 c3 -2 0 -8 -6 -14 -7 -7 -17 -3
-34 11 l-24 20 30 -6 c17 -4 32 -9 34 -11z m131 -2 c-13 -11 -28 -17 -33 -14
-13 8 14 33 37 33 20 0 20 -1 -4 -19z m-299 -78 c-9 -16 -10 -15 -11 8 0 14 3
29 8 33 12 12 14 -22 3 -41z m438 2 l0 -20 -9 20 c-5 11 -9 27 -9 35 -1 13 0
13 9 0 5 -8 9 -24 9 -35z m-316 -35 c-5 -34 -3 -38 21 -44 17 -4 26 -13 26
-26 0 -23 -36 -47 -42 -28 -3 7 -25 11 -62 10 -42 -1 -58 2 -63 14 -3 8 -2 18
2 22 4 4 10 1 12 -5 3 -7 16 -13 30 -13 25 0 25 1 18 55 -8 67 -3 76 34 62 26
-9 28 -14 24 -47z m243 0 c-8 -62 -3 -73 29 -58 29 13 38 8 29 -16 -5 -13 -18
-16 -62 -14 -36 2 -57 -2 -60 -10 -6 -19 -42 5 -42 29 0 12 10 23 26 29 21 8
25 16 22 40 -3 33 13 50 46 50 17 0 18 -5 12 -50z m294 -3 c0 -8 -9 -22 -20
-32 -19 -18 -20 -17 -20 1 0 20 17 44 32 44 4 0 8 -6 8 -13z m-700 -88 c0 -6
-4 -7 -10 -4 -5 3 -10 11 -10 16 0 6 5 7 10 4 6 -3 10 -11 10 -16z m514 -14
c-4 -8 -8 -15 -10 -15 -2 0 -4 7 -4 15 0 8 4 15 10 15 5 0 7 -7 4 -15z m316
-23 c0 -15 -2 -15 -10 -2 -13 20 -13 33 0 25 6 -3 10 -14 10 -23z m-216 -39
c-22 -94 -18 -114 47 -250 115 -241 162 -338 167 -347 3 -5 0 -6 -6 -3 -5 4
-42 51 -81 105 -40 53 -85 114 -100 134 -23 30 -33 62 -50 155 -23 120 -22
165 5 229 22 54 33 40 18 -23z m-683 -17 c3 -69 -10 -105 -124 -334 -66 -133
-122 -241 -124 -239 -3 4 98 383 112 419 4 9 22 22 40 28 49 16 57 31 58 115
2 74 2 75 20 54 9 -12 17 -31 18 -43z m887 22 c57 -84 57 -96 1 -43 -77 72
-85 85 -49 85 11 0 31 -17 48 -42z m-1027 22 c16 -9 17 -13 7 -23 -19 -18
-170 -109 -174 -104 -7 6 121 136 134 136 7 1 22 -4 33 -9z m414 -50 c3 -6 -1
-7 -9 -4 -18 7 -21 14 -7 14 6 0 13 -4 16 -10z m122 4 c-3 -3 -12 -4 -19 -1
-8 3 -5 6 6 6 11 1 17 -2 13 -5z m-72 -134 c3 0 12 15 20 33 9 19 14 25 15 14
0 -10 -7 -32 -16 -49 -13 -26 -18 -28 -30 -17 -7 8 -16 30 -19 49 l-6 35 15
-32 c8 -18 18 -33 21 -33z m-214 -49 c5 -40 -1 -58 -83 -223 -49 -99 -91 -178
-94 -176 -5 6 88 282 108 323 9 17 19 52 22 78 6 38 11 47 24 45 12 -2 19 -17
23 -47z m499 15 c0 -19 -5 -38 -11 -41 -14 -9 -15 -7 -23 38 -6 33 -5 37 14
37 16 0 20 -6 20 -34z m47 -89 c-2 -7 -10 0 -17 15 -7 15 -9 35 -5 45 6 15 9
12 17 -15 5 -19 7 -39 5 -45z m6 -70 c16 -30 62 -236 55 -243 -3 -2 -61 159
-106 296 -9 26 33 -17 51 -53z m-415 21 c1 -18 4 -51 7 -73 4 -38 4 -37 -10
10 -16 55 -19 95 -7 95 4 0 9 -15 10 -32z"/>
<path d="M1502 2810 c0 -14 2 -19 5 -12 2 6 2 18 0 25 -3 6 -5 1 -5 -13z"/>
<path d="M1053 2765 c0 -22 2 -30 4 -17 2 12 2 30 0 40 -3 9 -5 -1 -4 -23z"/>
<path d="M1492 2755 c0 -16 2 -22 5 -12 2 9 2 23 0 30 -3 6 -5 -1 -5 -18z"/>
<path d="M1453 2715 c0 -22 2 -30 4 -17 2 12 2 30 0 40 -3 9 -5 -1 -4 -23z"/>
<path d="M1062 2675 c0 -16 2 -22 5 -12 2 9 2 23 0 30 -3 6 -5 -1 -5 -18z"/>
<path d="M1073 2550 c0 -36 2 -50 4 -32 2 17 2 47 0 65 -2 17 -4 3 -4 -33z"/>
<path d="M1083 2380 c0 -47 2 -66 4 -42 2 23 2 61 0 85 -2 23 -4 4 -4 -43z"/>
<path d="M1484 2270 c0 -63 1 -89 3 -57 2 31 2 83 0 115 -2 31 -3 5 -3 -58z"/>
</g>
</svg>
