<?xml version="1.0" standalone="no"?>
<!DOCTYPE svg PUBLIC "-//W3C//DTD SVG 20010904//EN"
 "http://www.w3.org/TR/2001/REC-SVG-20010904/DTD/svg10.dtd">
<svg version="1.0" xmlns="http://www.w3.org/2000/svg"
 width="244.000000pt" height="305.000000pt" viewBox="0 0 244.000000 305.000000"
 preserveAspectRatio="xMidYMid meet">
<metadata>
Created by potrace 1.16, written by Peter Selinger 2001-2019
</metadata>
<g transform="translate(0.000000,305.000000) scale(0.100000,-0.100000)"
fill="#000000" stroke="none">
<path d="M1142 2885 c0 -16 2 -22 5 -12 2 9 2 23 0 30 -3 6 -5 -1 -5 -18z"/>
<path d="M1560 2900 c0 -8 -3 -26 -6 -40 -4 -20 -3 -22 5 -10 8 11 11 -122 11
-467 0 -266 -2 -483 -5 -483 -3 0 -23 12 -45 26 l-40 27 0 141 c0 172 15 368
40 536 30 198 32 212 15 148 -16 -62 -51 -305 -59 -403 -3 -33 -8 -146 -11
-252 l-7 -191 28 -18 c16 -10 41 -28 55 -41 l25 -23 25 21 c13 11 37 28 53 37
l29 17 -7 236 c-3 130 -13 290 -21 355 -17 141 -63 375 -76 389 -6 5 -9 4 -9
-5z"/>
<path d="M890 2886 c0 -8 -3 -22 -7 -32 -4 -12 -3 -15 5 -10 9 5 12 -108 12
-468 0 -262 -2 -476 -5 -476 -3 0 -24 12 -47 27 l-41 28 7 200 c7 216 24 382
62 620 4 22 4 37 0 34 -3 -3 -17 -71 -31 -152 -26 -153 -42 -355 -47 -592 -3
-137 -3 -140 20 -151 13 -6 36 -24 53 -40 l29 -28 28 25 c15 14 39 33 54 42
l26 16 -3 153 c-8 313 -33 538 -86 766 -11 48 -29 71 -29 38z"/>
<path d="M1315 2703 c-4 -109 -11 -241 -14 -293 l-7 -95 -7 60 c-4 33 -17 98
-29 144 l-22 84 -12 -37 c-7 -20 -21 -75 -31 -124 l-18 -87 -6 55 c-3 32 -7
-22 -8 -130 -7 -414 -18 -367 -21 85 -3 488 -10 464 -26 -100 -6 -208 -9 -234
-19 -195 -14 58 -23 43 -41 -68 -17 -109 -18 -98 11 -124 17 -14 25 -32 25
-52 l0 -31 -19 31 c-40 65 -131 46 -155 -33 -8 -25 -26 -31 -26 -9 0 8 -12 28
-26 45 -22 26 -33 31 -69 31 -50 0 -85 -28 -85 -67 0 -20 5 -23 39 -23 28 0
49 -8 70 -26 48 -40 56 -60 31 -81 -38 -33 -21 -112 45 -208 25 -36 45 -69 45
-73 0 -4 -13 -22 -30 -40 -52 -57 -52 -110 0 -137 16 -8 38 -15 50 -15 21 0
26 -16 11 -38 -14 -22 -59 -3 -96 41 -30 34 -35 48 -35 87 1 42 -4 94 -16 148
-3 17 -11 22 -38 22 -70 0 -91 -80 -43 -163 129 -223 128 -220 121 -262 -4
-24 -46 -110 -106 -215 -55 -96 -114 -200 -131 -230 -32 -59 -48 -82 -53 -77
-1 1 28 99 65 217 l67 214 49 16 c55 18 62 32 64 113 1 55 -15 92 -69 157 -77
93 -94 168 -52 227 42 59 22 93 -57 93 -55 0 -74 -21 -69 -79 3 -25 10 -66 18
-91 16 -57 7 -115 -25 -144 -41 -37 -362 -222 -371 -214 -2 3 35 40 83 84 48
43 110 101 138 127 49 47 51 48 98 42 l49 -6 -7 68 c-10 114 -16 143 -27 137
-10 -6 -4 -115 8 -157 5 -15 0 -17 -33 -12 -36 5 -42 2 -99 -52 -33 -32 -118
-110 -188 -173 -69 -63 -123 -116 -118 -118 4 -1 113 33 242 75 227 75 235 79
238 105 4 33 16 34 74 9 54 -23 86 -54 105 -98 16 -41 7 -58 -35 -66 -28 -6
-31 -14 -115 -288 -48 -155 -86 -284 -83 -286 3 -3 85 86 325 355 l74 83 -12
38 c-18 62 -19 61 80 61 l90 0 -6 -82 c-4 -46 -13 -152 -21 -237 -8 -85 -14
-168 -13 -185 l1 -31 9 30 c5 17 7 38 5 48 -2 9 -1 17 4 17 4 0 18 44 30 98
17 71 25 92 30 77 4 -11 25 -103 45 -205 20 -102 45 -219 54 -260 l16 -75 44
210 c23 116 49 241 57 279 7 38 15 70 17 72 2 2 20 -60 40 -139 20 -78 34
-122 31 -97 -3 25 -6 68 -5 95 0 37 -2 45 -9 30 -6 -14 -9 -15 -9 -5 -1 8 -12
87 -26 175 -18 122 -21 161 -12 167 8 5 14 -4 18 -30 l6 -37 2 43 1 42 90 0
c98 0 97 1 79 -61 -14 -44 -33 -19 219 -298 94 -105 172 -187 172 -181 0 10
-21 79 -116 376 -30 94 -54 176 -54 182 0 6 -18 16 -40 22 -45 12 -46 15 -25
68 18 44 57 76 117 98 54 19 55 19 61 -15 6 -28 14 -31 247 -109 132 -44 240
-77 240 -73 0 5 -37 41 -82 82 -46 40 -110 99 -143 130 -150 140 -152 141
-185 134 l-32 -7 7 91 c9 103 -8 129 -19 31 -4 -33 -13 -81 -21 -106 -16 -53
-12 -59 89 -120 152 -93 296 -187 293 -190 -6 -6 -339 114 -368 132 -4 2 -2
18 4 36 10 25 9 32 -2 36 -54 18 -66 98 -31 210 25 79 25 83 0 110 -25 27 -94
30 -128 6 l-22 -15 32 -59 c32 -56 32 -60 20 -106 -8 -29 -35 -76 -67 -119
-63 -82 -83 -124 -90 -197 l-6 -53 126 -229 c70 -126 129 -236 133 -245 6 -17
-51 44 -141 152 -31 37 -82 96 -111 131 -52 61 -54 67 -45 98 5 18 9 64 9 103
0 79 15 117 99 254 47 78 56 104 52 156 -5 53 -89 73 -102 25 -22 -78 -26
-115 -18 -137 12 -31 -8 -69 -56 -112 -41 -35 -70 -40 -85 -12 -14 28 -13 31
15 31 39 0 84 27 91 54 8 33 0 54 -36 96 -16 19 -30 40 -30 46 0 6 13 28 29
48 40 50 72 118 78 167 5 32 2 44 -16 60 -19 18 -20 22 -7 48 21 41 61 63 104
59 33 -3 37 0 40 23 7 62 -78 100 -132 58 -16 -12 -35 -38 -44 -58 l-15 -36
-11 32 c-26 75 -92 102 -143 59 -37 -31 -43 -32 -43 -8 0 10 11 25 25 32 21
11 25 21 25 58 0 62 -20 172 -31 172 -5 0 -12 -14 -16 -30 -3 -17 -10 -33 -14
-36 -5 -3 -9 -24 -10 -47 0 -23 -4 -51 -9 -62 -5 -12 -9 187 -9 474 0 271 -2
496 -5 498 -2 2 -7 -85 -11 -194z m-102 -530 c-6 -227 -9 -265 -13 -178 l-5
110 -9 -106 c-6 -74 -5 -112 3 -127 14 -26 15 -156 1 -147 -6 4 -10 -8 -10
-29 0 -37 15 -49 23 -18 3 9 5 0 6 -20 1 -32 -2 -36 -16 -31 -10 4 -21 11 -25
16 -11 17 -2 121 10 125 16 5 15 73 -1 97 -15 23 -7 280 13 435 6 47 14 104
17 128 12 95 14 20 6 -255z m-105 -427 c-3 -22 -26 -26 -60 -11 -14 6 -18 2
-18 -17 0 -30 26 -68 47 -68 9 0 25 8 36 18 20 16 20 16 14 -1 -4 -10 -7 -34
-7 -53 0 -26 -4 -34 -17 -34 -28 -1 -53 -25 -53 -51 -1 -23 -1 -23 -30 8 -16
18 -34 51 -41 75 -7 24 -18 50 -26 59 -20 24 -16 45 17 73 26 21 40 25 86 24
49 -1 55 -4 52 -22z m391 -2 c33 -28 39 -55 17 -73 -8 -7 -17 -27 -20 -45 -7
-37 -60 -116 -77 -116 -6 0 -8 7 -5 16 7 19 -20 54 -41 54 -16 0 -33 40 -33
76 0 23 1 24 24 9 28 -19 50 -12 65 21 17 38 14 58 -6 49 -32 -13 -57 -10 -61
7 -2 12 5 18 25 21 64 9 82 6 112 -19z m-570 -169 c11 -25 43 -69 71 -99 32
-34 50 -62 48 -73 -3 -15 -11 -10 -50 25 -52 48 -92 110 -103 160 -10 48 11
40 34 -13z m398 13 c-3 -7 -5 -2 -5 12 0 14 2 19 5 13 2 -7 2 -19 0 -25z m247
5 c-11 -49 -55 -119 -100 -164 -43 -42 -44 -43 -44 -17 0 17 15 41 43 71 24
24 53 65 65 91 24 51 46 62 36 19z m-427 -5 c-3 -8 -6 -5 -6 6 -1 11 2 17 5
13 3 -3 4 -12 1 -19z m50 -1 c-6 -20 -27 -19 -27 2 0 14 5 19 15 14 9 -3 14
-10 12 -16z m106 17 c3 -4 1 -16 -5 -27 -9 -18 -11 -19 -20 -4 -13 25 6 49 25
31z m-172 -101 c5 -13 9 -35 9 -49 0 -25 0 -25 -25 -7 -18 13 -24 27 -25 55 0
30 3 36 16 31 8 -3 20 -17 25 -30z m106 -20 c-3 -10 -5 -2 -5 17 0 19 2 27 5
18 2 -10 2 -26 0 -35z m143 12 c0 -24 -5 -35 -15 -35 -8 0 -15 -4 -15 -10 0
-5 -4 -10 -10 -10 -13 0 -13 31 0 64 15 39 40 33 40 -9z m37 -107 c-3 -7 -5
-2 -5 12 0 14 2 19 5 13 2 -7 2 -19 0 -25z m-330 -10 c-3 -7 -5 -2 -5 12 0 14
2 19 5 13 2 -7 2 -19 0 -25z m300 0 c-3 -7 -5 -2 -5 12 0 14 2 19 5 13 2 -7 2
-19 0 -25z m-237 -9 c0 -24 -23 -21 -28 4 -2 10 3 17 12 17 10 0 16 -9 16 -21z
m198 -1 c-6 -18 -28 -21 -28 -4 0 9 7 16 16 16 9 0 14 -5 12 -12z m-317 -38
c5 0 9 -9 9 -21 0 -11 -4 -18 -9 -14 -5 3 -15 -11 -21 -31 -15 -43 -30 -29
-30 27 0 40 7 52 28 44 7 -3 18 -5 23 -5z m457 -20 c6 -36 -8 -91 -20 -84 -7
4 -8 -4 -3 -25 5 -23 3 -31 -7 -31 -22 0 -40 39 -43 94 -1 28 -1 39 2 24 3
-18 9 -25 19 -21 17 6 18 29 2 37 -9 3 -7 9 7 21 24 19 39 15 43 -15z m-431
-52 c-2 -13 -4 -3 -4 22 0 25 2 35 4 23 2 -13 2 -33 0 -45z m123 52 c0 -5 -4
-10 -10 -10 -5 0 -10 5 -10 10 0 6 5 10 10 10 6 0 10 -4 10 -10z m125 0 c3 -5
1 -10 -4 -10 -6 0 -11 5 -11 10 0 6 2 10 4 10 3 0 8 -4 11 -10z m-201 -61 c9
-70 2 -72 -11 -4 -5 30 -6 55 -3 55 4 0 10 -23 14 -51z m267 -9 c-5 -25 -9
-35 -10 -24 -1 28 11 92 16 79 1 -6 -1 -30 -6 -55z m-327 -44 c-3 -14 -10 -26
-15 -26 -12 0 -11 4 3 35 14 31 21 26 12 -9z m121 8 c12 15 13 15 19 0 7 -19
-10 -44 -29 -44 -14 0 -25 22 -25 48 1 14 2 14 12 -2 10 -18 12 -18 23 -2z
m168 -16 c-6 -32 -28 -37 -42 -9 -12 21 -5 32 14 25 7 -3 16 0 20 6 11 17 14
8 8 -22z m24 -20 c-3 -8 -6 -5 -6 6 -1 11 2 17 5 13 3 -3 4 -12 1 -19z m-240
-20 c-3 -7 -5 -2 -5 12 0 14 2 19 5 13 2 -7 2 -19 0 -25z m123 -226 c0 -15 -2
-15 -10 -2 -13 20 -13 33 0 25 6 -3 10 -14 10 -23z m-100 -58 c0 -12 -9 -32
-20 -45 l-20 -24 6 45 c9 67 13 78 24 60 6 -8 10 -25 10 -36z m17 -6 c-3 -7
-5 -2 -5 12 0 14 2 19 5 13 2 -7 2 -19 0 -25z m163 0 c0 -16 -3 -19 -11 -11
-6 6 -8 16 -5 22 11 17 16 13 16 -11z m-114 -95 c-1 -60 2 -180 6 -268 4 -88
4 -151 2 -140 -34 134 -83 405 -78 427 3 16 20 42 37 58 18 17 32 30 33 30 0
0 0 -48 0 -107z m-99 -7 c2 -19 -8 -79 -21 -133 -30 -118 -31 -112 -10 32 21
146 27 165 31 101z"/>
<path d="M1152 2700 c0 -19 2 -27 5 -17 2 9 2 25 0 35 -3 9 -5 1 -5 -18z"/>
<path d="M1343 2535 c0 -27 2 -38 4 -22 2 15 2 37 0 50 -2 12 -4 0 -4 -28z"/>
<path d="M1393 800 c0 -25 2 -35 4 -22 2 12 2 32 0 45 -2 12 -4 2 -4 -23z"/>
<path d="M1402 680 c0 -19 2 -27 5 -17 2 9 2 25 0 35 -3 9 -5 1 -5 -18z"/>
</g>
</svg>
