<?xml version="1.0" standalone="no"?>
<!DOCTYPE svg PUBLIC "-//W3C//DTD SVG 20010904//EN"
 "http://www.w3.org/TR/2001/REC-SVG-20010904/DTD/svg10.dtd">
<svg version="1.0" xmlns="http://www.w3.org/2000/svg"
 width="244.000000pt" height="305.000000pt" viewBox="0 0 244.000000 305.000000"
 preserveAspectRatio="xMidYMid meet">
<metadata>
Created by potrace 1.16, written by Peter Selinger 2001-2019
</metadata>
<g transform="translate(0.000000,305.000000) scale(0.100000,-0.100000)"
fill="#000000" stroke="none">
<path d="M1062 2890 c0 -14 2 -19 5 -12 2 6 2 18 0 25 -3 6 -5 1 -5 -13z"/>
<path d="M1528 2880 c-2 -16 -1 -27 4 -24 4 3 8 -211 8 -475 0 -265 -3 -481
-7 -481 -5 1 -23 14 -42 30 l-34 29 6 223 c4 123 13 283 22 356 8 73 17 152
20 175 2 24 -2 14 -10 -23 -7 -36 -19 -121 -27 -190 -11 -107 -14 -118 -18
-75 -3 28 -6 -71 -6 -218 -1 -226 -4 -271 -17 -284 -13 -14 -16 -2 -22 108 -4
68 -5 289 -3 491 1 201 2 365 0 363 -10 -10 -34 -346 -43 -595 -5 -162 -14
-311 -18 -330 l-9 -35 -2 45 c0 25 -6 68 -11 95 -6 28 -14 103 -19 169 -8 101
-37 283 -57 350 -4 15 -7 16 -13 5 -15 -28 -51 -234 -60 -348 -6 -64 -14 -136
-20 -161 -5 -25 -9 -67 -10 -94 0 -71 -13 -48 -19 37 -5 55 -10 73 -22 75 -13
2 -18 -11 -26 -60 -8 -48 -11 41 -13 382 -3 467 -8 495 -33 155 l-13 -180 -13
110 c-12 109 -60 386 -67 394 -7 8 -12 -4 -18 -44 -5 -29 -4 -34 3 -20 6 13
10 -151 10 -457 1 -263 -2 -478 -6 -478 -3 0 -22 12 -41 27 l-35 26 6 226 c7
212 11 272 36 461 20 149 21 168 6 100 -31 -145 -62 -530 -65 -798 0 -15 9
-26 27 -35 16 -6 38 -23 49 -37 l22 -24 30 32 c34 36 66 41 82 13 14 -27 14
-28 -19 -23 -34 5 -67 -25 -76 -69 -7 -30 -25 -40 -25 -15 0 8 -12 28 -26 45
-48 57 -132 35 -137 -35 -2 -28 0 -29 36 -26 33 3 43 -1 73 -33 37 -40 42 -56
19 -75 -17 -15 -19 -49 -5 -134 23 -142 29 -216 21 -238 -7 -18 -10 -4 -15 57
-4 44 -9 85 -11 90 -1 6 -20 12 -40 13 -75 5 -93 -48 -54 -153 12 -31 18 -59
14 -63 -17 -17 -75 102 -75 156 0 13 12 44 26 68 25 43 26 46 9 64 -25 27 -88
27 -115 0 -25 -25 -25 -38 1 -120 38 -118 16 -161 -126 -251 -180 -113 -220
-137 -225 -133 -2 3 52 61 120 130 123 124 126 125 163 120 26 -5 37 -2 38 6
4 45 -4 175 -12 192 -6 14 -8 -12 -6 -76 l2 -98 -30 5 c-28 6 -42 -6 -200
-164 -93 -94 -166 -173 -163 -176 3 -4 35 5 70 19 34 14 97 37 138 51 41 15
108 38 148 52 50 17 72 30 72 41 0 37 14 44 59 31 22 -7 41 -18 41 -25 0 -12
-63 -128 -82 -151 -5 -7 -8 -17 -6 -23 1 -5 34 10 71 35 71 46 97 55 97 32 0
-19 -21 -37 -42 -37 -23 0 -29 -15 -85 -210 -90 -315 -103 -364 -96 -370 3 -3
8 1 10 8 3 7 32 45 65 85 33 39 67 81 76 92 10 11 45 54 79 95 34 41 71 86 82
100 27 35 33 23 21 -41 -22 -109 -60 -352 -57 -355 4 -4 100 202 157 336 18
41 37 81 42 87 6 7 8 38 6 70 -3 57 -3 58 22 55 27 -4 80 -49 80 -66 -1 -6
-13 -26 -29 -44 -17 -20 -27 -41 -25 -55 9 -54 116 -622 119 -625 1 -2 5 12 8
30 23 129 89 491 97 525 17 71 13 104 -17 135 -22 23 -25 32 -17 46 12 18 72
62 85 62 5 0 9 -24 9 -54 0 -48 12 -81 92 -257 51 -112 94 -195 96 -186 2 10
-8 94 -23 188 -15 94 -25 173 -22 175 3 3 38 -37 78 -88 72 -92 269 -328 273
-328 3 0 -114 417 -140 500 -21 65 -30 79 -61 91 -14 5 -23 17 -23 29 0 27 23
21 85 -21 24 -16 46 -29 50 -29 4 0 -12 34 -34 75 -23 41 -41 77 -41 80 0 11
90 46 100 40 6 -3 10 -17 10 -29 0 -21 14 -28 113 -64 319 -116 338 -122 328
-104 -5 9 -84 91 -175 180 -155 154 -167 163 -195 157 l-30 -6 6 90 c4 65 3
91 -6 91 -7 0 -11 -18 -11 -47 0 -27 -7 -73 -15 -103 -8 -30 -15 -58 -15 -62
0 -9 117 -95 257 -188 62 -41 110 -76 108 -78 -5 -6 -326 120 -344 135 -2 1 1
15 8 29 10 23 8 29 -20 55 -30 27 -31 31 -26 96 2 38 10 93 17 124 12 51 12
60 -3 83 -14 21 -26 26 -56 26 -23 0 -48 -8 -62 -19 l-23 -18 27 -46 c40 -68
35 -129 -16 -204 -40 -59 -50 -35 -17 38 27 61 27 123 -2 143 -33 24 -67 20
-72 -6 -3 -13 -7 -32 -9 -43 -3 -14 -5 -11 -7 10 -2 30 -2 30 -10 5 -12 -37
-12 -138 1 -142 11 -4 2 -38 -11 -38 -8 0 -21 87 -20 140 0 19 10 78 20 132
24 115 25 154 5 174 -22 22 -19 32 19 70 26 26 42 34 70 34 44 0 53 17 32 58
-28 53 -74 56 -122 8 -19 -19 -34 -41 -34 -50 0 -28 -18 -17 -25 14 -8 35 -48
70 -81 70 -26 0 -30 10 -12 28 19 19 44 14 76 -13 l30 -25 50 36 49 37 -4 151
c-5 225 -21 446 -44 586 -34 216 -51 277 -61 210z m-333 -800 c-4 -121 -10
-219 -12 -216 -7 7 -6 287 2 369 13 138 17 74 10 -153z m-105 -220 c0 -5 -5
-10 -11 -10 -5 0 -7 5 -4 10 3 6 8 10 11 10 2 0 4 -4 4 -10z m304 -11 c-3 -5
-10 -7 -15 -3 -5 3 -7 10 -3 15 3 5 10 7 15 3 5 -3 7 -10 3 -15z m-275 -111
c-8 -14 -14 -17 -22 -9 -7 7 -6 15 3 25 17 22 32 9 19 -16z m-89 -3 c5 -14 7
-61 3 -106 -6 -74 -7 -79 -19 -58 -7 13 -13 36 -14 51 0 15 -7 33 -15 42 -20
19 -19 55 2 78 22 24 32 23 43 -7z m343 11 c3 -8 3 -17 0 -20 -7 -7 -33 13
-33 25 0 15 27 10 33 -5z m127 -52 c0 -13 -4 -24 -9 -24 -5 0 -12 -17 -16 -37
-4 -20 -13 -46 -21 -57 -13 -19 -14 -17 -14 26 0 26 -5 50 -11 53 -14 9 -2 65
19 88 16 18 17 18 34 -3 10 -12 18 -33 18 -46z m-310 -31 c0 -27 -3 -34 -11
-26 -7 7 -9 23 -5 37 9 37 16 32 16 -11z m-44 -19 c4 -14 17 -30 31 -35 14 -5
31 -25 40 -46 l15 -38 20 38 c10 21 30 42 43 47 14 5 25 15 25 22 0 7 4 19 9
27 13 20 41 -3 41 -34 0 -27 -15 -40 -55 -44 -41 -4 -50 -14 -66 -68 l-13 -47
-15 47 c-20 59 -32 70 -78 71 -34 1 -38 4 -41 29 -3 28 12 57 29 57 5 0 12
-12 15 -26z m-189 -70 c7 -21 38 -68 68 -104 59 -68 74 -105 33 -78 -13 8 -27
24 -33 36 -5 11 -17 23 -26 25 -10 3 -22 22 -28 45 -6 22 -16 42 -22 44 -5 2
-14 20 -19 41 -11 51 9 44 27 -9z m117 14 c4 -17 2 -28 -4 -28 -5 0 -10 14
-10 32 0 36 4 35 14 -4z m336 0 c-1 -26 -3 -30 -10 -16 -6 9 -7 23 -4 32 9 25
14 19 14 -16z m140 23 c0 -18 -20 -63 -36 -78 -8 -8 -18 -28 -21 -44 -3 -16
-13 -31 -23 -34 -9 -3 -22 -16 -28 -30 -6 -13 -20 -29 -32 -35 -37 -20 -23 15
30 76 27 31 59 79 72 105 20 45 38 63 38 40z m-445 -118 c9 -20 13 -38 11 -41
-7 -6 -46 60 -46 76 0 22 19 3 35 -35z m285 20 c-1 -19 -27 -59 -34 -52 -5 5
21 69 29 69 3 0 5 -8 5 -17z m-226 -43 c-7 -6 -24 22 -23 40 0 9 6 5 14 -10 7
-14 11 -27 9 -30z m158 18 c-7 -7 -12 -8 -12 -2 0 6 3 14 7 17 3 4 9 5 12 2 2
-3 -1 -11 -7 -17z m-362 -105 c-1 -24 -2 -26 -11 -10 -5 9 -7 22 -4 27 10 17
15 11 15 -17z m557 -5 c-3 -8 -6 -5 -6 6 -1 11 2 17 5 13 3 -3 4 -12 1 -19z
m-337 -3 c0 -8 -4 -15 -10 -15 -5 0 -10 7 -10 15 0 8 5 15 10 15 6 0 10 -7 10
-15z m138 3 c-6 -18 -28 -21 -28 -4 0 9 7 16 16 16 9 0 14 -5 12 -12z m-248
-173 c30 -27 43 -10 35 46 l-7 49 33 0 c29 0 31 -1 15 -13 -26 -19 -17 -60 14
-67 18 -4 25 -12 25 -30 0 -22 -4 -25 -35 -22 -107 8 -120 20 -120 106 0 64
15 66 18 3 2 -38 9 -60 22 -72z m365 38 c-8 -56 -27 -73 -81 -74 -24 -1 -50
-2 -56 -3 -7 -1 -13 10 -13 24 0 18 6 26 22 28 32 5 41 42 15 63 -21 17 -21
17 9 21 38 6 42 -1 34 -56 -8 -54 9 -71 37 -36 13 16 19 38 18 64 -2 58 0 65
11 36 6 -14 8 -44 4 -67z m-538 -15 c-3 -8 -6 -5 -6 6 -1 11 2 17 5 13 3 -3 4
-12 1 -19z m763 -27 c0 -17 -12 -41 -21 -41 -10 0 -12 33 -2 43 9 10 23 9 23
-2z m-800 -50 c12 -24 13 -41 2 -41 -8 0 -32 43 -32 55 0 13 21 3 30 -14z
m879 -87 c12 -20 20 -38 17 -41 -6 -7 -56 50 -56 64 0 24 18 13 39 -23z m-956
12 c6 -15 -19 -41 -65 -71 -38 -23 -35 -12 9 41 40 47 48 52 56 30z m112 -6
c4 -11 3 -35 0 -53 -7 -33 -256 -519 -263 -512 -3 3 116 427 121 430 1 1 20 8
42 16 35 13 41 20 49 54 17 82 37 108 51 65z m707 -42 c-4 -54 0 -63 115 -289
65 -129 120 -238 122 -243 11 -27 -30 19 -116 131 -176 226 -173 220 -162 256
5 17 9 61 9 97 0 76 8 112 24 107 7 -2 10 -24 8 -59z m-356 -73 c17 23 19 2 3
-27 -11 -21 -12 -21 -25 -3 -8 10 -14 26 -14 34 1 13 3 12 12 -3 11 -19 11
-19 24 -1z m-296 -35 c0 -11 -4 -20 -10 -20 -5 0 -10 9 -10 20 0 11 5 20 10
20 6 0 10 -9 10 -20z m98 -37 c2 -39 -5 -67 -33 -134 -78 -180 -109 -248 -112
-245 -2 2 18 82 46 177 27 96 55 193 61 217 15 57 34 49 38 -15z m457 45 c2
-7 6 -31 9 -53 3 -22 17 -107 31 -189 14 -82 23 -152 20 -154 -6 -6 -2 -17
-64 198 -27 97 -53 183 -57 193 -5 14 0 17 25 17 18 0 33 -6 36 -12z m35 -7
c0 -11 -4 -23 -10 -26 -6 -4 -10 5 -10 19 0 14 5 26 10 26 6 0 10 -9 10 -19z
m-361 -104 c-11 -24 -6 -126 17 -322 2 -22 -9 23 -26 100 -38 179 -38 185 -11
224 27 37 37 36 20 -2z"/>
<path d="M1512 2790 c0 -19 2 -27 5 -17 2 9 2 25 0 35 -3 9 -5 1 -5 -18z"/>
<path d="M1082 2710 c0 -14 2 -19 5 -12 2 6 2 18 0 25 -3 6 -5 1 -5 -13z"/>
<path d="M1433 2575 c0 -22 2 -30 4 -17 2 12 2 30 0 40 -3 9 -5 -1 -4 -23z"/>
<path d="M1092 2550 c0 -19 2 -27 5 -17 2 9 2 25 0 35 -3 9 -5 1 -5 -18z"/>
<path d="M1103 2405 c0 -27 2 -38 4 -22 2 15 2 37 0 50 -2 12 -4 0 -4 -28z"/>
<path d="M1113 2175 c0 -22 2 -30 4 -17 2 12 2 30 0 40 -3 9 -5 -1 -4 -23z"/>
</g>
</svg>
