<?xml version="1.0" standalone="no"?>
<!DOCTYPE svg PUBLIC "-//W3C//DTD SVG 20010904//EN"
 "http://www.w3.org/TR/2001/REC-SVG-20010904/DTD/svg10.dtd">
<svg version="1.0" xmlns="http://www.w3.org/2000/svg"
 width="244.000000pt" height="305.000000pt" viewBox="0 0 244.000000 305.000000"
 preserveAspectRatio="xMidYMid meet">
<metadata>
Created by potrace 1.16, written by Peter Selinger 2001-2019
</metadata>
<g transform="translate(0.000000,305.000000) scale(0.100000,-0.100000)"
fill="#000000" stroke="none">
<path d="M961 2905 c0 -5 -3 -172 -6 -370 -2 -198 -7 -417 -11 -487 l-7 -127
-25 17 -25 16 6 226 c4 124 13 286 22 360 8 74 16 162 19 195 5 55 4 53 -9
-20 -21 -116 -44 -413 -47 -613 -3 -155 -1 -174 14 -183 59 -33 62 -63 5 -55
-53 8 -85 -13 -89 -59 -3 -28 -1 -30 34 -33 27 -2 44 -12 63 -33 28 -35 31
-55 11 -93 -16 -32 -7 -96 23 -155 l20 -39 -31 -6 c-39 -8 -54 5 -39 33 9 17
8 24 -7 39 -15 15 -35 19 -92 20 -41 1 -79 -3 -87 -9 -17 -15 -16 -80 1 -147
20 -75 -1 -131 -77 -203 -28 -26 -243 -179 -252 -179 -8 0 84 110 171 203 61
66 64 68 99 61 l36 -6 -7 98 c-3 55 -11 104 -16 109 -7 7 -9 -20 -5 -82 l6
-93 -29 3 c-25 2 -46 -18 -184 -172 -86 -95 -155 -175 -153 -178 4 -3 197 71
221 85 6 3 0 -11 -13 -31 -12 -20 -18 -37 -12 -37 8 0 235 108 294 141 23 13
34 5 52 -38 24 -56 20 -80 -14 -88 -19 -4 -31 -14 -34 -28 -3 -12 -35 -139
-71 -281 -37 -143 -65 -264 -64 -268 3 -8 24 18 102 127 l28 40 -6 -45 c-3
-25 -8 -61 -11 -80 -4 -26 -3 -31 5 -20 11 16 71 115 102 169 11 19 34 57 52
85 74 115 104 180 96 206 -17 53 -13 60 32 60 49 0 105 -33 114 -67 4 -15 -2
-33 -18 -53 l-24 -31 17 -102 c10 -56 34 -201 54 -321 19 -121 37 -222 39
-223 5 -5 14 51 67 384 l42 271 -26 32 c-30 36 -26 53 20 90 20 16 38 20 72
18 l46 -3 -3 -51 c-3 -51 0 -57 130 -274 73 -121 134 -215 136 -208 1 8 -4 43
-12 78 -8 35 -14 66 -12 67 3 4 63 -73 98 -126 26 -38 23 -22 -28 176 -25 98
-54 214 -65 258 -24 100 -35 125 -53 125 -42 0 -44 63 -2 115 23 28 25 29 43
13 21 -19 323 -171 329 -165 2 2 -7 19 -21 37 -14 18 -23 35 -21 37 2 2 32 -8
67 -23 120 -50 116 -50 73 3 -21 26 -46 56 -54 67 -8 10 -22 26 -30 35 -9 9
-54 58 -100 109 -71 78 -88 92 -107 87 -23 -5 -23 -4 -24 87 l-1 93 -13 -88
c-7 -48 -15 -90 -17 -92 -2 -2 -10 0 -18 5 -12 7 -12 19 3 82 32 135 20 158
-82 158 -74 0 -94 -14 -85 -59 6 -30 5 -31 -29 -31 -39 0 -47 -12 -47 -65 0
-43 -13 -51 -30 -20 -12 22 -10 29 11 62 63 98 86 198 54 233 -32 35 33 118
82 105 30 -7 39 15 23 55 -13 30 -19 34 -84 45 l-40 7 33 30 32 30 -6 207 c-8
286 -29 503 -67 700 -10 54 -27 56 -28 3 0 -13 -4 -20 -10 -17 -6 4 -10 -18
-10 -60 0 -42 4 -64 10 -60 6 3 10 30 10 58 0 29 5 59 11 67 7 11 8 -6 4 -55
-3 -38 -4 -133 -3 -210 7 -332 3 -624 -9 -636 -32 -32 -34 -2 -31 492 2 268 0
485 -3 481 -7 -8 -34 -216 -49 -372 -5 -58 -12 -206 -17 -330 -6 -189 -8 -215
-16 -163 -6 46 -13 62 -27 66 -15 4 -19 -4 -25 -59 -14 -135 -22 -117 -28 71
-8 237 -47 512 -67 474 -24 -46 -60 -355 -60 -517 0 -132 -13 -156 -24 -43 -6
56 -11 70 -26 74 -16 4 -20 -3 -27 -42 -6 -37 -9 -20 -13 94 l-6 140 -2 -177
c-1 -98 -6 -178 -11 -178 -5 0 -12 91 -15 203 -4 111 -12 263 -19 337 -7 74
-12 197 -12 272 0 76 -3 130 -7 120 -4 -9 -7 -28 -7 -41 -1 -35 -14 -17 -27
37 -7 26 -12 43 -13 37z m472 -1013 c26 -23 21 -32 -15 -25 -41 7 -38 5 -31
31 5 22 14 21 46 -6z m-353 9 c0 -5 2 -16 5 -24 5 -10 -1 -13 -25 -9 -30 4
-30 5 -14 23 18 20 34 25 34 10z m-80 -46 c0 -8 -4 -15 -9 -15 -13 0 -22 16
-14 24 11 11 23 6 23 -9z m490 1 c0 -8 -4 -17 -9 -20 -10 -7 -23 19 -14 28 11
11 23 6 23 -8z m-362 -21 c-3 -3 -9 2 -12 12 -6 14 -5 15 5 6 7 -7 10 -15 7
-18z m213 -16 c-9 -22 -10 -22 -10 -3 -1 11 2 24 6 27 12 12 14 0 4 -24z m75
-70 c18 -15 23 -57 8 -76 -7 -10 -14 -34 -14 -53 0 -19 -5 -42 -10 -50 -8 -13
-13 -13 -39 3 -16 9 -36 17 -45 17 -22 0 -53 -37 -69 -84 l-14 -41 -11 40
c-17 60 -47 88 -85 81 -17 -4 -34 -11 -38 -17 -11 -19 -28 0 -35 39 -3 20 -11
51 -17 69 -16 48 5 83 50 83 23 0 33 -5 33 -15 0 -11 -8 -14 -30 -10 -27 5
-30 3 -30 -21 0 -54 45 -85 78 -52 9 9 12 5 12 -19 0 -22 5 -32 20 -36 11 -3
27 -21 35 -41 9 -20 18 -36 21 -36 3 0 10 13 15 29 6 16 21 37 35 46 15 10 24
25 24 42 0 21 3 24 12 15 33 -33 78 -2 78 53 0 24 -3 26 -32 23 -23 -2 -33 2
-36 13 -2 12 5 14 35 11 21 -2 43 -8 49 -13z m-268 -236 c12 -10 24 -36 28
-58 l7 -40 -41 48 c-23 27 -42 52 -42 58 0 15 26 10 48 -8z m222 8 c0 -6 -18
-31 -40 -56 -22 -25 -40 -39 -40 -31 0 25 20 70 37 84 20 14 43 16 43 3z
m-379 -122 c2 -8 -1 -25 -6 -39 l-9 -25 -7 25 c-4 14 -7 38 -8 53 -1 25 1 27
13 14 8 -8 16 -20 17 -28z m147 -8 c18 -10 27 -10 38 0 11 9 14 7 14 -15 0
-14 -3 -26 -7 -26 -20 1 -88 48 -101 70 l-16 25 24 -21 c14 -12 35 -27 48 -33z
m250 27 c-9 -13 -36 -35 -62 -50 l-46 -27 1 32 c0 18 3 26 6 20 8 -20 26 -15
69 17 47 36 51 37 32 8z m-583 -79 c5 -74 5 -74 -9 -34 -17 48 -21 134 -6 119
6 -6 13 -44 15 -85z m885 32 c0 -5 -3 -23 -7 -42 -5 -26 -8 -29 -13 -14 -8 23
-1 65 11 65 5 0 9 -4 9 -9z m-573 -64 c33 -10 40 -16 33 -27 -17 -26 -11 -50
15 -60 17 -7 25 -17 25 -34 0 -30 -36 -42 -58 -20 -11 12 -25 14 -51 8 -55
-11 -74 -10 -78 3 -3 7 9 13 29 15 l33 3 -3 63 c-2 34 0 62 5 62 4 0 27 -6 50
-13z m178 3 c3 -5 1 -10 -4 -10 -6 0 -11 5 -11 10 0 6 2 10 4 10 3 0 8 -4 11
-10z m113 -52 l-3 -63 30 -1 c31 0 39 -7 33 -26 -4 -10 -14 -9 -45 0 -53 16
-68 15 -87 -4 -23 -22 -56 -9 -56 22 0 17 8 27 26 34 23 9 25 14 20 44 -6 31
-4 34 26 43 58 19 59 18 56 -49z m466 -140 c31 -41 26 -46 -20 -23 -48 23 -73
52 -67 75 4 14 -2 28 -16 41 -11 11 -21 29 -21 40 0 20 46 -29 124 -133z
m-1104 12 c0 -9 -145 -92 -205 -118 l-29 -13 24 26 c14 15 49 37 78 51 28 13
53 28 53 34 6 42 15 50 49 38 17 -5 30 -14 30 -18z m1177 -25 c30 -25 58 -45
61 -45 4 0 20 -12 36 -26 30 -27 30 -41 -1 -26 -10 5 -38 19 -63 31 -25 12
-57 39 -72 60 -47 66 -37 68 39 6z m-746 -77 c8 -53 26 -91 39 -83 9 6 22 47
35 108 3 15 11 27 17 27 9 0 9 -3 0 -12 -7 -7 -12 -27 -12 -46 0 -33 -24 -97
-41 -108 -14 -8 -49 73 -49 115 0 22 -5 42 -10 44 -6 3 -5 4 2 3 7 -2 16 -23
19 -48z m-281 -9 c0 -16 -7 -29 -16 -33 -14 -5 -16 -1 -10 25 3 17 6 39 6 48
0 14 2 14 10 1 5 -8 10 -27 10 -41z m1017 7 c40 -35 25 -40 -17 -5 -19 15 -30
29 -23 29 7 0 25 -11 40 -24z m-374 -84 c24 -26 62 -140 81 -241 6 -33 6 -34
-13 -17 -35 31 -94 166 -99 223 -5 56 4 65 31 35z m-696 -6 c-3 -8 -9 -32 -12
-53 -4 -21 -11 -54 -17 -73 -11 -41 -142 -330 -146 -325 -3 3 14 74 91 368 15
59 25 81 41 87 32 13 49 12 43 -4z m127 -41 c11 -68 -7 -88 -23 -26 -12 48 -9
71 8 71 5 0 12 -20 15 -45z m-32 -117 c-9 -17 -21 -38 -27 -47 -5 -9 -32 -54
-59 -101 -27 -47 -56 -94 -64 -105 l-14 -20 5 20 c22 81 150 301 168 289 5 -3
1 -19 -9 -36z m754 -164 c24 -54 44 -100 44 -102 0 -13 -35 27 -56 65 -20 34
-53 128 -54 153 0 18 28 -33 66 -116z m-36 -69 c0 -11 3 -31 5 -45 l6 -25 -12
25 c-18 39 -37 92 -44 120 -4 19 0 15 19 -15 14 -22 26 -49 26 -60z"/>
<path d="M941 2814 c0 -11 3 -14 6 -6 3 7 2 16 -1 19 -3 4 -6 -2 -5 -13z"/>
<path d="M1022 2810 c0 -14 2 -19 5 -12 2 6 2 18 0 25 -3 6 -5 1 -5 -13z"/>
<path d="M1033 2735 c0 -22 2 -30 4 -17 2 12 2 30 0 40 -3 9 -5 -1 -4 -23z"/>
<path d="M1042 2645 c0 -22 3 -65 8 -95 l7 -55 1 50 c0 28 -3 70 -7 95 l-8 45
-1 -40z"/>
<path d="M1064 2405 c0 -49 1 -71 3 -48 2 23 2 64 0 90 -2 26 -3 8 -3 -42z"/>
</g>
</svg>
