<?xml version="1.0" standalone="no"?>
<!DOCTYPE svg PUBLIC "-//W3C//DTD SVG 20010904//EN"
 "http://www.w3.org/TR/2001/REC-SVG-20010904/DTD/svg10.dtd">
<svg version="1.0" xmlns="http://www.w3.org/2000/svg"
 width="244.000000pt" height="305.000000pt" viewBox="0 0 244.000000 305.000000"
 preserveAspectRatio="xMidYMid meet">
<metadata>
Created by potrace 1.16, written by Peter Selinger 2001-2019
</metadata>
<g transform="translate(0.000000,305.000000) scale(0.100000,-0.100000)"
fill="#000000" stroke="none">
<path d="M877 2828 c-50 -220 -76 -462 -78 -738 -1 -147 1 -166 16 -175 10 -5
33 -23 52 -39 l33 -28 34 30 c19 17 44 33 55 37 17 5 21 15 21 53 -1 100 -20
448 -30 530 -15 130 -43 282 -50 282 -4 0 -1 -34 6 -76 27 -156 45 -344 51
-545 l6 -205 -39 -24 c-21 -14 -43 -26 -47 -28 -4 -2 -6 222 -5 497 2 276 0
501 -3 501 -3 0 -13 -33 -22 -72z"/>
<path d="M1541 2798 c-50 -242 -69 -432 -72 -714 -1 -154 -1 -159 20 -170 12
-6 33 -21 47 -33 30 -27 36 -26 71 3 15 13 38 26 51 30 14 5 22 15 22 29 -2
124 -22 507 -30 571 -16 115 -52 308 -57 302 -2 -2 2 -44 11 -93 31 -179 46
-343 53 -553 l6 -215 -41 -28 c-23 -15 -44 -27 -47 -27 -3 0 -5 217 -4 483 0
312 4 475 10 462 8 -17 9 -17 4 5 -2 14 -5 31 -5 38 0 6 -4 12 -9 12 -4 0 -18
-46 -30 -102z"/>
<path d="M911 2844 c0 -11 3 -14 6 -6 3 7 2 16 -1 19 -3 4 -6 -2 -5 -13z"/>
<path d="M921 2804 c0 -11 3 -14 6 -6 3 7 2 16 -1 19 -3 4 -6 -2 -5 -13z"/>
<path d="M1187 2540 c-4 -102 -11 -221 -16 -265 -5 -44 -13 -157 -17 -252 -7
-170 -17 -208 -29 -115 -16 122 -33 192 -45 192 -10 0 -27 -83 -33 -159 -4
-52 -3 -54 29 -73 23 -14 35 -29 39 -51 8 -47 -7 -91 -33 -95 -12 -2 -22 1
-22 7 0 6 -7 11 -15 11 -20 0 -19 -39 1 -68 20 -29 48 -28 72 3 27 34 32 32
32 -16 0 -32 4 -42 20 -46 15 -4 20 -14 20 -41 0 -31 -2 -34 -13 -19 -19 27
-67 36 -99 20 -16 -7 -28 -18 -28 -23 0 -5 12 -12 28 -16 46 -10 50 -12 65
-36 15 -23 36 -219 22 -206 -4 4 -16 3 -26 -3 -20 -10 -26 -54 -9 -64 15 -9
12 -61 -5 -75 -18 -15 -19 -42 -3 -58 6 -6 8 -15 4 -19 -14 -14 -37 31 -34 65
4 32 4 32 -40 32 -23 0 -56 -7 -73 -16 -36 -18 -57 -13 -92 24 -39 41 -58 82
-47 103 7 11 4 42 -8 91 -18 70 -20 73 -50 76 -21 2 -37 -3 -51 -17 -42 -42
-22 -107 77 -260 50 -77 58 -106 65 -234 l5 -97 -56 -68 c-31 -37 -61 -72 -67
-78 -5 -6 -46 -52 -89 -102 -44 -51 -81 -90 -84 -88 -2 2 28 60 66 128 192
342 195 346 187 395 -11 75 -33 122 -87 191 -82 105 -96 166 -53 230 44 65 26
92 -59 92 -35 0 -48 -5 -60 -22 -21 -29 -20 -53 4 -123 30 -88 27 -140 -11
-177 -25 -26 -30 -37 -25 -62 l6 -31 -175 -64 c-97 -35 -178 -61 -181 -59 -2
3 66 49 153 103 224 139 223 138 223 160 0 11 -7 42 -15 69 -8 27 -15 68 -15
92 0 24 -5 46 -12 50 -8 5 -10 -18 -5 -90 l5 -97 -32 6 c-24 5 -37 1 -57 -17
-314 -286 -350 -320 -345 -326 3 -2 111 31 240 73 180 59 236 81 236 94 1 39
15 45 65 27 57 -22 104 -61 120 -100 17 -39 10 -53 -31 -66 -33 -11 -35 -15
-74 -143 -23 -73 -49 -157 -60 -187 -35 -105 -71 -232 -68 -241 3 -8 374 397
391 427 5 9 4 29 -2 46 -20 57 -18 58 74 58 94 0 145 -17 166 -57 11 -21 10
-27 -19 -56 l-32 -33 49 -244 c78 -386 84 -415 88 -405 7 22 86 400 109 519
l24 130 -32 33 c-29 30 -30 35 -18 57 21 40 68 56 165 56 l88 0 -6 -32 c-3
-18 -8 -40 -12 -50 -7 -17 55 -92 220 -268 44 -47 101 -109 127 -138 25 -28
48 -52 51 -52 3 0 -1 19 -8 43 -7 23 -47 150 -87 282 l-75 240 -34 12 c-31 10
-34 14 -33 47 2 46 31 78 102 112 58 28 82 26 82 -5 0 -28 14 -34 238 -107
281 -91 272 -91 171 3 -46 44 -133 123 -193 176 -103 92 -111 97 -143 91 -34
-6 -34 -6 -29 27 7 44 10 86 7 129 -4 60 -17 6 -24 -97 l-7 -92 48 5 c45 5 49
3 93 -38 25 -24 89 -83 143 -132 53 -49 95 -91 92 -93 -8 -9 -376 208 -396
234 -31 40 -34 82 -11 151 26 76 27 114 3 135 -25 23 -94 22 -123 -2 l-23 -18
27 -46 c45 -77 32 -141 -49 -238 -68 -80 -84 -137 -63 -212 8 -31 18 -41 47
-53 20 -8 43 -18 50 -22 13 -7 156 -432 148 -439 -4 -4 -12 8 -116 187 -40 69
-97 166 -126 216 -78 130 -76 152 17 306 83 136 97 190 60 227 -15 15 -32 21
-53 19 -30 -3 -32 -6 -45 -68 -8 -36 -12 -79 -9 -97 3 -24 -3 -43 -25 -76 -38
-58 -72 -73 -122 -52 -20 8 -52 15 -72 15 -34 0 -35 -1 -35 -38 0 -40 -14 -62
-40 -62 -13 1 -12 3 3 14 22 17 22 55 0 63 -24 9 -33 23 -32 53 1 18 3 20 6 7
4 -16 7 -15 19 9 19 35 11 71 -17 79 -21 7 -22 11 -16 96 4 49 12 98 19 109 7
12 32 26 56 32 43 11 43 11 24 30 -24 25 -76 26 -102 3 -20 -18 -20 -17 -20 9
0 18 7 30 25 38 22 10 24 15 19 50 -8 44 0 48 32 13 13 -14 30 -25 38 -25 20
0 46 39 46 68 0 19 -4 23 -17 17 -37 -16 -56 -10 -66 18 -15 45 -1 95 33 112
16 8 31 19 35 25 14 23 -26 233 -41 217 -5 -4 -44 -219 -44 -238 0 -5 -4 -9
-9 -9 -5 0 -10 30 -10 68 0 104 -20 370 -33 442 -6 36 -12 122 -12 192 -2 141
-15 189 -17 57 -1 -74 -2 -80 -11 -49 -11 38 -14 35 -37 -40 -8 -29 -9 -18 -6
60 2 52 0 104 -5 115 -4 11 -10 -60 -13 -165z m71 -376 c-2 -185 0 -280 7
-278 6 3 9 93 9 247 -2 303 9 236 27 -158 12 -269 10 -345 -9 -345 -10 0 -32
50 -32 73 0 10 4 16 9 13 9 -6 21 64 21 118 0 20 -3 26 -8 18 -5 -7 -16 -10
-25 -6 -15 6 -17 37 -16 343 1 231 4 324 10 296 5 -21 8 -166 7 -321z m1 -526
c1 -15 -3 -29 -8 -33 -6 -3 -9 19 -9 52 1 43 3 51 8 33 5 -14 8 -37 9 -52z
m-9 -138 c-13 -48 -27 -43 -35 10 -4 29 -3 31 4 10 7 -18 9 -20 10 -7 1 10 6
15 11 12 6 -3 10 2 10 11 0 10 3 15 6 12 3 -3 0 -25 -6 -48z m-93 -332 c-3 -8
-6 -5 -6 6 -1 11 2 17 5 13 3 -3 4 -12 1 -19z m23 -140 c0 -62 -5 -60 -13 5
-4 28 -3 47 3 47 6 0 10 -23 10 -52z m126 15 c-3 -21 -5 -43 -5 -49 -1 -12
-31 -15 -31 -2 0 19 25 88 33 88 4 0 6 -17 3 -37z m-109 -85 c-2 -13 -4 -5 -4
17 -1 22 1 32 4 23 2 -10 2 -28 0 -40z m40 -40 c-3 -8 -6 -5 -6 6 -1 11 2 17
5 13 3 -3 4 -12 1 -19z m24 -1 c-5 -13 -5 -30 -1 -38 5 -8 14 -87 21 -175 12
-153 11 -166 -10 -282 -13 -67 -25 -122 -27 -122 -3 0 -3 120 -1 268 2 147 1
274 -4 282 -8 17 11 90 23 90 4 0 4 -10 -1 -23z m26 -89 c-3 -8 -6 -5 -6 6 -1
11 2 17 5 13 3 -3 4 -12 1 -19z m53 -62 c0 -17 -4 -47 -9 -66 -5 -19 -13 -53
-17 -75 l-7 -40 -8 45 c-9 56 -11 163 -3 185 6 14 8 14 25 -1 11 -10 19 -30
19 -48z"/>
<path d="M760 1860 c-27 -6 -62 -63 -53 -86 4 -10 16 -12 43 -8 32 5 42 2 73
-26 39 -34 49 -73 21 -84 -14 -5 -16 -16 -11 -56 7 -55 31 -107 76 -164 17
-21 31 -43 31 -49 0 -5 -13 -25 -30 -43 -58 -66 -50 -124 20 -145 54 -16 65
-5 53 53 -6 24 -6 54 -2 65 l8 21 61 -19 c76 -23 96 -24 104 -2 8 19 -17 43
-44 43 -22 0 -100 51 -134 86 -37 39 -72 102 -80 142 -9 48 8 39 38 -23 30
-61 110 -138 171 -166 22 -10 41 -16 43 -14 12 12 -12 53 -40 69 -63 37 -137
137 -138 187 0 9 -7 22 -15 29 -22 18 -18 42 11 73 23 25 32 28 73 25 46 -3
46 -3 44 27 -3 43 -47 79 -87 71 -36 -8 -72 -39 -80 -72 -7 -25 -26 -34 -26
-11 0 22 -45 67 -75 75 -16 5 -41 6 -55 2z"/>
<path d="M1429 1855 c-26 -14 -54 -69 -43 -86 2 -5 25 -6 49 -2 38 5 47 2 69
-20 28 -28 35 -72 12 -80 -7 -3 -16 -23 -19 -44 -8 -44 -60 -112 -129 -167
-28 -21 -48 -46 -48 -57 0 -24 2 -24 52 2 63 32 143 113 167 169 22 50 41 65
41 32 0 -32 -49 -118 -93 -162 -36 -37 -97 -72 -159 -93 -22 -8 -23 -21 -2
-37 14 -12 62 -3 141 27 24 9 36 -36 23 -84 -17 -59 -6 -71 50 -54 53 16 77
58 56 99 -8 15 -26 38 -40 51 -33 31 -33 43 3 83 65 75 106 209 67 224 -24 9
-19 40 13 76 22 25 39 33 77 37 45 6 49 8 46 31 -10 89 -132 88 -172 -3 l-19
-41 -17 43 c-12 32 -26 47 -50 57 -40 17 -42 17 -75 -1z"/>
</g>
</svg>
