<?xml version="1.0" standalone="no"?>
<!DOCTYPE svg PUBLIC "-//W3C//DTD SVG 20010904//EN"
 "http://www.w3.org/TR/2001/REC-SVG-20010904/DTD/svg10.dtd">
<svg version="1.0" xmlns="http://www.w3.org/2000/svg"
 width="244.000000pt" height="305.000000pt" viewBox="0 0 244.000000 305.000000"
 preserveAspectRatio="xMidYMid meet">
<metadata>
Created by potrace 1.16, written by Peter Selinger 2001-2019
</metadata>
<g transform="translate(0.000000,305.000000) scale(0.100000,-0.100000)"
fill="#000000" stroke="none">
<path d="M1326 2818 c-3 -57 -9 -211 -13 -343 -7 -238 -7 -239 -19 -155 -13
96 -30 187 -47 243 l-11 39 -13 -44 c-29 -95 -63 -328 -63 -435 0 -127 -9
-213 -22 -213 -5 0 -8 35 -8 78 1 42 1 235 -1 427 -1 257 -4 322 -9 245 -4
-58 -9 -205 -10 -326 -2 -200 -4 -223 -20 -237 -12 -10 -20 -35 -24 -69 -14
-136 -14 -138 5 -149 11 -5 19 -16 19 -24 0 -18 -1 -18 -36 0 -16 8 -36 15
-44 15 -26 0 -61 -31 -77 -67 -16 -39 -17 -39 -42 9 -10 18 -30 39 -45 46 -54
27 -122 -14 -114 -70 3 -20 8 -22 44 -20 36 3 44 -1 72 -33 36 -40 39 -57 17
-75 -33 -27 -14 -111 44 -200 20 -30 39 -60 44 -67 4 -7 0 -20 -11 -30 -71
-70 -68 -145 6 -168 18 -5 21 -11 16 -28 -9 -31 -11 -32 -38 -14 -43 28 -67
80 -71 154 -7 111 -16 137 -49 141 -70 8 -88 -76 -36 -169 103 -185 113 -210
116 -294 1 -44 5 -93 8 -110 7 -33 18 -17 -189 -274 -49 -61 -91 -107 -93
-102 -2 5 37 82 86 172 149 275 165 311 157 361 -12 68 -34 119 -82 182 -25
32 -51 74 -59 92 -20 47 -18 111 4 142 32 47 33 51 12 72 -29 29 -103 28 -124
-2 -21 -29 -20 -46 5 -129 26 -87 20 -149 -18 -179 -21 -17 -24 -25 -19 -54
l6 -33 -157 -60 c-87 -33 -169 -63 -183 -67 -22 -6 -23 -5 -8 6 9 7 96 64 192
127 193 125 187 119 161 205 -8 27 -15 69 -15 93 0 26 -5 43 -11 43 -9 0 -10
-26 -6 -91 l6 -90 -30 6 c-26 6 -37 1 -82 -41 -108 -99 -326 -314 -318 -314 7
0 131 43 390 134 41 14 76 26 78 26 2 0 3 11 3 24 0 33 10 37 53 24 77 -24
155 -119 126 -154 -6 -8 -17 -14 -23 -14 -37 0 -59 -56 -156 -400 -10 -36 -28
-93 -39 -128 -11 -35 -16 -62 -11 -60 5 2 92 101 195 221 l186 218 -6 54 -7
53 48 4 c27 2 62 2 78 0 l28 -5 -7 -66 c-13 -123 -43 -456 -40 -459 1 -1 14
46 29 104 15 59 25 109 22 111 -3 3 -8 -11 -12 -31 -3 -21 -8 -35 -11 -33 -4
4 39 276 52 335 3 13 10 20 15 17 14 -8 13 -68 -2 -102 -6 -15 -10 -32 -9 -36
1 -4 -6 -34 -14 -66 -20 -77 -18 -90 4 -24 l17 52 59 -300 c32 -164 60 -298
61 -296 1 1 28 134 60 295 44 224 60 288 67 270 4 -12 26 -88 47 -168 33 -125
39 -138 39 -97 1 27 -4 47 -10 47 -6 0 -8 17 -5 48 3 26 2 37 -2 24 -5 -17
-16 26 -35 145 -16 92 -31 181 -34 197 -5 26 -4 29 15 24 12 -3 23 -1 24 4 5
13 121 19 139 7 11 -6 11 -16 2 -49 l-11 -42 61 -75 c33 -41 81 -98 106 -126
26 -29 82 -94 125 -145 43 -50 82 -92 86 -92 4 0 -1 26 -10 58 -32 104 -88
296 -117 396 -27 97 -29 100 -66 115 -35 13 -38 17 -33 44 9 46 44 85 98 113
56 28 78 26 78 -9 0 -21 18 -29 213 -96 116 -40 221 -75 232 -78 11 -2 -61 75
-160 172 -170 166 -182 176 -211 170 l-32 -5 5 92 c4 62 2 90 -5 83 -5 -5 -12
-54 -16 -107 l-6 -98 42 6 43 6 140 -136 c131 -128 137 -135 90 -112 -27 14
-80 44 -117 68 -38 24 -100 63 -138 87 -40 24 -77 56 -85 72 -19 35 -18 102 0
154 20 55 19 91 -5 115 -24 24 -77 26 -108 4 -28 -19 -28 -27 3 -72 28 -40 33
-93 13 -139 -6 -15 -36 -60 -65 -99 -42 -56 -55 -81 -59 -120 -10 -80 5 -116
55 -140 24 -12 47 -27 51 -35 7 -12 67 -208 114 -366 26 -90 30 -96 -153 233
-140 255 -139 247 -45 417 72 129 86 181 60 222 -20 31 -70 35 -85 7 -6 -11
-13 -61 -17 -112 -7 -92 -8 -95 -47 -137 -26 -29 -43 -40 -47 -32 -6 8 -9 7
-12 -2 -3 -10 -14 -4 -36 19 -31 33 -49 98 -39 138 3 11 5 5 6 -15 1 -25 5
-32 16 -27 11 4 15 -2 15 -24 0 -17 9 -39 20 -50 16 -16 20 -17 20 -5 0 8 9
15 19 15 25 0 51 36 51 70 0 14 -16 45 -35 69 -19 24 -32 48 -28 55 4 6 24 35
45 65 56 80 76 174 43 201 -22 18 -19 35 17 76 28 31 36 35 70 32 42 -4 53 8
39 45 -13 32 -35 48 -70 49 -42 1 -77 -25 -92 -69 l-12 -37 -20 42 c-11 24
-29 48 -40 54 -26 14 -74 13 -92 -2 -10 -8 -14 -8 -17 2 -3 7 4 19 14 28 17
14 18 22 8 92 -15 107 -18 121 -29 128 -6 3 -12 51 -14 105 -2 88 -3 83 -6
-45 -1 -80 -6 -165 -11 -190 -4 -26 -8 163 -8 449 -1 271 -3 495 -5 497 -2 2
-7 -42 -11 -98z m-36 -658 c11 -149 10 -261 -5 -344 -5 -26 -4 -41 5 -46 14
-9 4 -50 -11 -50 -7 0 -9 26 -5 73 4 39 8 126 10 192 4 92 2 108 -5 70 -12
-70 -16 -377 -4 -395 7 -12 10 -10 16 10 7 23 7 23 8 -6 1 -24 -4 -33 -19 -37
-11 -3 -20 0 -20 6 0 7 -5 5 -10 -3 -11 -17 -14 663 -3 775 l7 70 12 -80 c7
-44 18 -150 24 -235z m-143 -302 c-3 -8 -6 -5 -6 6 -1 11 2 17 5 13 3 -3 4
-12 1 -19z m180 0 c-3 -8 -6 -5 -6 6 -1 11 2 17 5 13 3 -3 4 -12 1 -19z m-254
-94 c28 -5 37 -11 37 -26 0 -20 -9 -21 -52 -3 -14 6 -18 2 -18 -17 0 -35 28
-69 53 -66 13 2 22 -2 21 -9 -1 -7 -2 -24 -2 -38 -1 -15 -8 -25 -17 -25 -8 0
-22 -11 -31 -25 -9 -14 -20 -25 -24 -25 -13 0 -48 66 -54 101 -3 18 -12 36
-20 41 -24 13 -19 36 13 69 31 31 36 32 94 23z m421 -25 c31 -37 32 -44 6 -66
-11 -10 -20 -30 -20 -47 0 -36 -37 -99 -53 -89 -7 4 -18 15 -25 25 -7 10 -20
18 -28 18 -10 0 -14 12 -14 39 0 33 3 38 19 34 22 -6 51 30 51 64 0 24 -14 31
-25 13 -11 -18 -45 -11 -45 9 0 14 8 21 28 24 67 10 80 7 106 -24z m-552 -162
c10 -23 31 -58 48 -77 27 -32 41 -81 23 -80 -12 1 -73 87 -89 125 -15 37 -19
75 -6 75 4 0 15 -19 24 -43z m195 21 c-3 -8 -6 -5 -6 6 -1 11 2 17 5 13 3 -3
4 -12 1 -19z m200 -10 c-3 -7 -5 -2 -5 12 0 14 2 19 5 13 2 -7 2 -19 0 -25z
m223 12 c0 -33 -28 -90 -66 -137 -64 -78 -76 -46 -14 37 22 30 45 69 52 87 13
37 28 44 28 13z m-370 -10 c0 -11 -7 -20 -15 -20 -8 0 -15 9 -15 20 0 11 7 20
15 20 8 0 15 -9 15 -20z m118 -2 c-2 -13 -7 -23 -13 -23 -5 0 -11 10 -13 23
-2 15 2 22 13 22 11 0 15 -7 13 -22z m65 -124 c-10 -7 -22 -14 -27 -14 -15 0
3 64 22 78 15 12 17 10 20 -18 2 -22 -2 -36 -15 -46z m-249 44 c3 -13 6 -34 6
-47 l0 -24 -25 23 c-30 28 -34 70 -6 70 11 0 21 -9 25 -22z m113 -35 c-3 -10
-5 -2 -5 17 0 19 2 27 5 18 2 -10 2 -26 0 -35z m-69 -38 c0 -16 -2 -15 -8 5
-11 34 -11 60 0 35 5 -11 8 -29 8 -40z m142 5 c-6 -23 -14 -40 -16 -37 -3 3 0
24 7 46 16 54 24 46 9 -9z m-273 -27 c-3 -10 -5 -4 -5 12 0 17 2 24 5 18 2 -7
2 -21 0 -30z m40 -25 c-3 -7 -5 -2 -5 12 0 14 2 19 5 13 2 -7 2 -19 0 -25z
m333 11 c0 -5 -4 -9 -10 -9 -5 0 -10 7 -10 16 0 8 5 12 10 9 6 -3 10 -10 10
-16z m-267 -15 c3 -3 3 -12 0 -20 -4 -11 -9 -12 -19 -3 -8 6 -14 15 -14 20 0
10 24 12 33 3z m217 -9 c0 -8 -7 -15 -15 -15 -8 0 -15 7 -15 15 0 8 7 15 15
15 8 0 15 -7 15 -15z m-330 -67 c0 -10 -5 -16 -10 -13 -6 3 -14 -4 -19 -17 -9
-21 -10 -19 -10 13 -1 20 2 38 5 42 11 11 34 -5 34 -25z m449 -6 c0 -15 -3
-21 -6 -14 -2 6 -9 10 -14 6 -10 -6 -13 29 -3 39 12 12 24 -4 23 -31z m-307
-4 c-9 -9 -12 -7 -12 12 0 19 3 21 12 12 9 -9 9 -15 0 -24z m138 10 c0 -16 -3
-19 -11 -11 -6 6 -8 16 -5 22 11 17 16 13 16 -11z m-263 -35 c-3 -10 -5 -2 -5
17 0 19 2 27 5 18 2 -10 2 -26 0 -35z m338 -38 c-14 -47 -14 -48 -10 -10 9 68
19 103 22 80 2 -11 -4 -42 -12 -70z m-286 1 c6 -33 9 -61 7 -63 -2 -3 -10 22
-16 53 -7 32 -15 65 -18 74 -3 10 -2 12 5 5 6 -5 15 -37 22 -69z m258 12 c-3
-8 -6 -5 -6 6 -1 11 2 17 5 13 3 -3 4 -12 1 -19z m-323 -46 c-4 -18 -13 -32
-20 -32 -11 0 -10 7 3 35 20 41 26 40 17 -3z m115 -7 c6 -3 11 1 11 9 0 21 16
20 24 -1 5 -11 -1 -23 -16 -35 -28 -21 -35 -15 -42 37 -5 30 -4 35 3 19 5 -12
14 -25 20 -29z m192 -18 c-6 -15 -14 -27 -19 -27 -17 0 -44 39 -39 55 9 21 27
19 27 -2 1 -16 3 -15 18 3 20 26 27 9 13 -29z m26 -29 c-3 -8 -6 -5 -6 6 -1
11 2 17 5 13 3 -3 4 -12 1 -19z m-10 -70 c-3 -8 -6 -5 -6 6 -1 11 2 17 5 13 3
-3 4 -12 1 -19z m-114 -148 c-3 -12 -8 -19 -11 -16 -5 6 5 36 12 36 2 0 2 -9
-1 -20z m-84 -81 c-14 -28 -19 -23 -19 19 1 34 2 36 15 18 10 -13 11 -24 4
-37z m166 -7 c-12 -13 -24 22 -12 37 10 12 13 11 15 -8 2 -13 1 -26 -3 -29z
m-66 8 c1 24 2 23 43 -17 l41 -42 -22 -113 c-12 -62 -26 -129 -31 -148 -4 -19
-14 -69 -21 -110 l-14 -75 -7 45 c-9 63 -8 491 2 460 l8 -25 1 25z"/>
<path d="M1254 2160 c0 -74 1 -105 3 -67 2 37 2 97 0 135 -2 37 -3 6 -3 -68z"/>
<path d="M1263 670 c0 -36 2 -50 4 -32 2 17 2 47 0 65 -2 17 -4 3 -4 -33z"/>
<path d="M1253 520 c0 -36 2 -50 4 -32 2 17 2 47 0 65 -2 17 -4 3 -4 -33z"/>
<path d="M907 2893 c-47 -169 -81 -476 -91 -811 l-5 -153 37 -23 c21 -13 43
-31 51 -40 12 -15 16 -14 46 12 19 15 44 34 56 43 l22 15 -12 255 c-6 139 -16
290 -22 334 -17 141 -42 275 -51 275 -5 0 -7 -3 -4 -8 2 -4 14 -73 25 -152 24
-162 40 -395 41 -571 l0 -116 -37 -26 c-20 -14 -40 -24 -45 -21 -12 7 -10 937
2 968 5 15 5 28 0 31 -5 3 -11 -3 -13 -12z"/>
<path d="M1132 2870 c0 -19 2 -27 5 -17 2 9 2 25 0 35 -3 9 -5 1 -5 -18z"/>
<path d="M1543 2869 c-15 -44 -49 -239 -62 -359 -13 -117 -31 -415 -31 -509
l0 -69 51 -38 c35 -25 55 -34 64 -28 6 5 30 21 52 36 l40 27 -3 63 c-1 35 -5
142 -9 238 -3 96 -10 213 -15 260 -12 104 -52 331 -57 326 -2 -2 7 -82 21
-177 32 -219 46 -395 46 -558 l0 -128 -38 -27 c-21 -14 -41 -26 -45 -26 -4 0
-7 212 -7 471 0 311 3 468 10 464 11 -7 11 8 1 44 -6 22 -7 22 -18 -10z"/>
<path d="M1143 2745 c0 -22 2 -30 4 -17 2 12 2 30 0 40 -3 9 -5 -1 -4 -23z"/>
<path d="M1353 2570 c0 -30 2 -43 4 -27 2 15 2 39 0 55 -2 15 -4 2 -4 -28z"/>
<path d="M1152 2500 c0 -19 2 -27 5 -17 2 9 2 25 0 35 -3 9 -5 1 -5 -18z"/>
<path d="M1402 870 c0 -19 2 -27 5 -17 2 9 2 25 0 35 -3 9 -5 1 -5 -18z"/>
<path d="M1413 765 c0 -22 2 -30 4 -17 2 12 2 30 0 40 -3 9 -5 -1 -4 -23z"/>
<path d="M1423 660 c0 -25 2 -35 4 -22 2 12 2 32 0 45 -2 12 -4 2 -4 -23z"/>
</g>
</svg>
