<?xml version="1.0" standalone="no"?>
<!DOCTYPE svg PUBLIC "-//W3C//DTD SVG 20010904//EN"
 "http://www.w3.org/TR/2001/REC-SVG-20010904/DTD/svg10.dtd">
<svg version="1.0" xmlns="http://www.w3.org/2000/svg"
 width="244.000000pt" height="305.000000pt" viewBox="0 0 244.000000 305.000000"
 preserveAspectRatio="xMidYMid meet">
<metadata>
Created by potrace 1.16, written by Peter Selinger 2001-2019
</metadata>
<g transform="translate(0.000000,305.000000) scale(0.100000,-0.100000)"
fill="#000000" stroke="none">
<path d="M1530 2900 c0 -8 -3 -26 -6 -40 -4 -20 -3 -22 5 -10 8 11 11 -122 11
-467 0 -266 -3 -483 -7 -483 -5 0 -23 14 -40 31 l-33 30 0 137 c0 162 14 380
36 546 17 132 13 171 -5 49 -36 -245 -41 -298 -42 -417 -3 -220 -13 -359 -26
-364 -10 -3 -13 96 -13 474 0 262 -2 475 -5 473 -10 -11 -36 -350 -45 -598
-11 -293 -23 -383 -32 -243 -4 45 -10 88 -16 95 -5 7 -12 64 -16 128 -3 64
-15 161 -26 215 -30 151 -30 151 -40 134 -16 -30 -49 -229 -59 -351 -6 -70
-15 -139 -21 -153 -5 -15 -10 -53 -11 -84 -1 -68 -17 -44 -19 28 -3 104 -33
98 -48 -10 -7 -47 -10 65 -12 390 -2 498 -12 546 -36 173 -4 -57 -10 -100 -14
-96 -4 4 -13 53 -19 108 -15 115 -15 114 -37 223 -10 45 -19 80 -21 78 -3 -2
-4 -227 -3 -500 0 -273 -2 -496 -6 -496 -3 0 -20 12 -38 26 l-31 27 -5 131 -6
131 -2 -147 -2 -147 28 -15 c15 -8 35 -24 45 -36 l19 -22 34 33 c28 27 38 31
51 23 29 -18 27 -34 -5 -34 -36 0 -48 -14 -66 -71 l-13 -44 -18 43 c-19 48
-39 62 -84 62 -39 0 -71 -31 -71 -69 0 -28 2 -29 33 -24 60 9 127 -68 92 -107
-14 -16 -15 -31 -5 -151 6 -74 13 -161 15 -194 l4 -60 -14 60 c-8 33 -14 77
-15 98 0 35 -1 37 -34 37 -67 0 -88 -50 -58 -140 30 -86 3 -92 -33 -7 -21 51
-19 116 5 152 11 17 20 38 20 47 0 38 -93 53 -123 20 -21 -23 -22 -81 -2 -129
31 -75 14 -148 -45 -191 -58 -43 -303 -193 -307 -188 -3 2 52 62 120 132 l126
127 42 -7 42 -7 -6 68 c-4 37 -7 85 -7 106 0 21 -5 37 -11 37 -9 0 -10 -25 -6
-91 l7 -91 -30 7 c-27 6 -39 -4 -199 -166 -94 -95 -169 -174 -167 -176 2 -2
84 25 182 60 99 36 196 70 216 78 29 10 38 19 38 35 0 13 5 26 11 29 12 8 69
-14 69 -26 0 -14 -44 -103 -58 -117 -18 -20 -44 -72 -35 -72 4 0 24 11 45 25
21 14 55 36 76 50 49 32 64 32 60 -2 -2 -20 -10 -29 -33 -35 -30 -7 -31 -10
-89 -215 -31 -115 -64 -228 -71 -253 -7 -25 -16 -61 -20 -80 l-6 -35 23 30
c13 16 39 48 58 71 19 22 82 98 139 168 57 70 105 125 107 123 2 -2 -1 -28 -6
-58 -20 -103 -51 -321 -47 -325 4 -4 57 105 153 319 47 104 53 123 47 162 -6
44 -5 45 23 45 27 0 84 -43 84 -63 0 -5 -11 -22 -25 -39 -14 -16 -25 -42 -25
-56 0 -24 25 -167 96 -542 9 -52 19 -90 21 -85 8 26 106 566 110 611 5 46 3
53 -21 71 -14 12 -26 27 -26 35 0 16 34 50 67 67 40 20 46 15 39 -38 -6 -46
-2 -59 67 -207 98 -211 126 -264 127 -239 0 12 -11 89 -25 173 -14 84 -25 159
-25 168 0 9 75 -77 167 -190 91 -113 168 -205 170 -203 3 4 -96 365 -135 486
-23 73 -30 85 -59 99 -32 15 -44 44 -23 57 10 6 61 -19 123 -59 32 -21 37 -6
7 24 -11 11 -17 20 -14 20 3 0 -6 21 -20 46 -14 26 -26 50 -26 54 0 12 80 41
91 34 6 -3 8 -17 5 -29 -5 -19 -1 -25 16 -30 13 -4 66 -23 118 -42 199 -74
310 -111 310 -105 0 4 -78 85 -174 181 -161 161 -175 173 -202 167 l-29 -7 2
98 2 98 -14 -80 c-7 -44 -16 -98 -20 -120 l-7 -41 123 -84 c68 -47 150 -103
182 -124 31 -21 55 -41 53 -43 -4 -5 -269 98 -318 123 -25 13 -26 17 -16 39
10 22 8 29 -16 54 -39 40 -42 85 -15 189 22 86 22 91 6 116 -14 21 -25 26 -58
26 -47 0 -79 -14 -79 -36 0 -9 12 -35 26 -60 31 -52 27 -103 -12 -171 -42 -72
-60 -50 -24 28 36 80 16 149 -43 149 -50 0 -59 -18 -60 -124 0 -70 -3 -92 -9
-75 -13 33 -12 108 2 214 23 176 23 185 5 199 -22 16 -13 47 21 81 18 18 36
25 64 25 36 0 40 2 40 25 0 32 -42 75 -72 75 -30 -1 -62 -27 -83 -69 l-17 -35
-15 34 c-19 48 -42 70 -70 70 -27 0 -30 12 -8 30 13 11 20 10 41 -1 14 -7 30
-21 35 -31 9 -17 13 -16 51 17 23 19 46 35 51 35 15 0 1 483 -18 625 -26 195
-72 413 -75 355z m-337 -821 c-5 -144 -10 -204 -14 -169 -8 76 6 409 17 397 2
-2 1 -104 -3 -228z m-103 -213 c0 -3 -4 -8 -10 -11 -5 -3 -10 -1 -10 4 0 6 5
11 10 11 6 0 10 -2 10 -4z m310 -6 c0 -5 -4 -10 -10 -10 -5 0 -10 5 -10 10 0
6 5 10 10 10 6 0 10 -4 10 -10z m-270 -96 c0 -13 -21 -44 -30 -44 -14 0 -12
24 2 38 13 13 28 16 28 6z m250 -30 c0 -18 -14 -18 -30 1 -16 19 -3 40 16 24
8 -6 14 -18 14 -25z m-350 -15 c10 -24 11 -36 2 -50 -7 -10 -12 -35 -12 -54 0
-22 -4 -34 -10 -30 -5 3 -10 22 -10 41 0 22 -6 37 -15 40 -17 7 -20 37 -5 65
16 28 36 23 50 -12z m460 12 c15 -28 12 -58 -5 -65 -8 -3 -15 -18 -15 -34 0
-15 -7 -37 -15 -48 -13 -18 -14 -17 -10 13 2 18 -1 46 -7 61 -9 22 -8 37 1 61
15 35 35 40 51 12z m-300 -68 c0 -27 -3 -34 -11 -26 -7 7 -9 23 -5 37 9 37 16
32 16 -11z m-40 -22 c6 -16 20 -31 31 -34 11 -3 26 -21 34 -41 9 -20 17 -36
20 -36 3 0 11 16 19 35 9 20 26 39 41 45 14 5 25 15 25 22 0 7 4 19 9 27 14
22 41 -4 41 -40 0 -25 -4 -28 -45 -35 -50 -7 -54 -10 -76 -73 l-15 -45 -13 47
c-16 57 -31 70 -79 71 -33 1 -37 4 -40 29 -3 27 12 57 28 57 4 0 13 -13 20
-29z m-187 -73 c13 -29 45 -77 70 -107 41 -48 58 -81 42 -81 -15 0 -94 94
-118 139 -23 46 -36 101 -23 101 3 0 15 -24 29 -52z m444 5 c-3 -10 -5 -2 -5
17 0 19 2 27 5 18 2 -10 2 -26 0 -35z m114 -34 c-12 -16 -21 -34 -21 -41 0
-15 -100 -122 -107 -114 -10 10 8 43 48 85 23 24 53 69 68 100 24 52 26 54 29
27 2 -18 -4 -40 -17 -57z m-452 39 c0 -28 -2 -30 -9 -13 -12 28 -12 45 0 45 6
0 10 -15 9 -32z m26 -69 c9 -17 14 -36 12 -42 -4 -12 -37 44 -37 63 0 18 9 11
25 -21z m285 -22 l-22 -32 7 30 c8 36 27 63 33 46 2 -6 -6 -26 -18 -44z m-221
7 c17 -38 6 -42 -14 -5 -8 17 -12 31 -7 31 5 0 14 -12 21 -26z m171 13 c0 -7
-7 -22 -15 -33 -13 -17 -14 -16 -4 14 11 33 19 41 19 19z m-370 -109 c0 -13
-5 -30 -10 -38 -7 -11 -10 -5 -10 23 0 20 5 37 10 37 6 0 10 -10 10 -22z m570
-19 c0 -10 -4 -19 -10 -19 -5 0 -10 12 -10 26 0 14 4 23 10 19 6 -3 10 -15 10
-26z m-350 -4 c0 -8 -4 -15 -10 -15 -5 0 -10 7 -10 15 0 8 5 15 10 15 6 0 10
-7 10 -15z m138 3 c-6 -18 -28 -21 -28 -4 0 9 7 16 16 16 9 0 14 -5 12 -12z
m-274 -86 c-7 -48 18 -105 44 -100 14 3 16 13 14 59 l-3 56 31 -5 c29 -4 30
-5 14 -23 -21 -23 -12 -46 21 -59 20 -7 26 -16 23 -33 -3 -20 -7 -22 -58 -19
-81 5 -87 8 -98 55 -11 45 -6 107 9 107 5 0 6 -17 3 -38z m394 -27 c-2 -39
-10 -71 -18 -79 -9 -8 -41 -16 -75 -18 -58 -3 -60 -2 -60 22 0 18 6 26 22 28
29 4 39 38 19 61 -11 12 -12 18 -4 18 7 0 22 4 32 8 18 8 19 5 13 -41 -8 -67
5 -87 34 -57 18 17 22 32 20 72 -1 33 3 51 10 51 8 0 10 -21 7 -65z m217 -74
c-3 -12 -11 -21 -16 -21 -14 0 -11 38 4 43 17 6 20 2 12 -22z m-647 -26 c-3
-3 -9 2 -12 12 -6 14 -5 15 5 6 7 -7 10 -15 7 -18z m-150 -10 c14 -31 15 -35
4 -35 -8 0 -32 43 -32 55 0 15 19 1 28 -20z m890 -86 c13 -22 22 -43 19 -45
-8 -8 -68 67 -62 77 11 16 20 10 43 -32z m-978 -19 c-39 -31 -90 -60 -90 -52
0 4 19 29 41 55 39 45 43 47 58 32 15 -15 14 -18 -9 -35z m126 24 c4 -14 4
-40 1 -59 -5 -30 -257 -528 -264 -521 -2 1 25 100 59 220 l62 218 46 21 c39
19 46 27 53 62 4 22 10 50 13 63 6 30 22 28 30 -4z m705 14 c0 -7 0 -39 -1
-70 -1 -55 4 -68 119 -293 67 -129 118 -235 114 -235 -12 1 -256 317 -270 348
-6 15 -8 32 -5 37 4 6 7 48 8 95 0 47 4 95 8 108 8 24 25 30 27 10z m-355
-134 c8 11 14 24 14 30 0 5 3 7 6 4 6 -7 -22 -78 -31 -78 -8 0 -35 65 -35 82
1 7 8 -3 16 -22 15 -33 16 -34 30 -16z m-202 -62 c6 -43 1 -60 -40 -153 -26
-57 -59 -132 -74 -167 -24 -55 -51 -100 -38 -62 3 8 31 105 63 215 31 110 59
203 62 208 11 18 21 3 27 -41z m470 26 c3 -13 7 -41 10 -63 6 -42 41 -249 52
-300 13 -61 -14 -9 -36 70 -12 44 -38 127 -56 185 -19 58 -34 111 -34 118 0 7
13 12 30 12 23 0 31 -5 34 -22z m23 -10 c-3 -7 -5 -2 -5 12 0 14 2 19 5 13 2
-7 2 -19 0 -25z m-357 -89 c-9 -15 -10 -49 -6 -108 4 -47 9 -111 11 -141 4
-41 -1 -28 -20 55 -30 136 -30 159 -4 197 24 33 37 31 19 -3z"/>
<path d="M1512 2800 c0 -14 2 -19 5 -12 2 6 2 18 0 25 -3 6 -5 1 -5 -13z"/>
<path d="M901 2754 c0 -11 3 -14 6 -6 3 7 2 16 -1 19 -3 4 -6 -2 -5 -13z"/>
<path d="M886 2683 c-25 -179 -36 -290 -34 -368 l1 -90 8 120 c4 66 15 178 24
248 9 71 15 131 12 133 -2 3 -7 -17 -11 -43z"/>
<path d="M1082 2670 c0 -14 2 -19 5 -12 2 6 2 18 0 25 -3 6 -5 1 -5 -13z"/>
<path d="M1442 2510 c0 -19 2 -27 5 -17 2 9 2 25 0 35 -3 9 -5 1 -5 -18z"/>
<path d="M1103 2235 c0 -44 2 -61 4 -37 2 23 2 59 0 80 -2 20 -4 1 -4 -43z"/>
</g>
</svg>
