<?xml version="1.0" standalone="no"?>
<!DOCTYPE svg PUBLIC "-//W3C//DTD SVG 20010904//EN"
 "http://www.w3.org/TR/2001/REC-SVG-20010904/DTD/svg10.dtd">
<svg version="1.0" xmlns="http://www.w3.org/2000/svg"
 width="244.000000pt" height="305.000000pt" viewBox="0 0 244.000000 305.000000"
 preserveAspectRatio="xMidYMid meet">
<metadata>
Created by potrace 1.16, written by Peter Selinger 2001-2019
</metadata>
<g transform="translate(0.000000,305.000000) scale(0.100000,-0.100000)"
fill="#000000" stroke="none">
<path d="M917 2884 c-3 -16 -1 -33 4 -38 10 -11 13 -929 3 -938 -3 -3 -24 6
-46 21 l-41 26 7 205 c7 221 18 349 42 503 9 54 14 103 11 110 -7 21 -46 -262
-57 -408 -13 -180 -13 -445 0 -445 5 0 25 -13 43 -30 41 -36 48 -36 73 -9 42
46 69 45 95 -4 9 -17 8 -18 -11 -12 -37 12 -77 -13 -95 -58 l-17 -42 -15 30
c-23 44 -41 62 -70 70 -38 9 -80 -12 -92 -47 -14 -40 -7 -48 38 -48 29 0 44
-7 69 -33 35 -36 40 -58 17 -77 -22 -18 -18 -70 9 -143 28 -74 45 -197 27
-197 -6 0 -12 19 -13 43 -1 40 -2 39 -8 -13 -6 -54 -6 -54 -18 -27 -7 16 -12
42 -12 58 0 46 -17 69 -50 69 -65 0 -78 -95 -25 -180 42 -66 27 -86 -19 -25
-61 79 -71 148 -31 207 14 20 25 44 25 52 0 37 -104 51 -133 18 -22 -24 -21
-56 3 -127 24 -70 25 -84 5 -132 -17 -40 -41 -59 -247 -187 -59 -37 -116 -69
-125 -72 -10 -3 44 56 121 131 l139 136 38 -6 39 -7 0 39 c0 78 -13 172 -22
166 -6 -3 -7 -39 -3 -90 l7 -85 -31 7 c-31 6 -39 0 -206 -166 -167 -164 -197
-200 -158 -184 10 4 99 36 198 71 246 88 235 83 235 110 0 12 4 25 10 29 11 7
78 -20 101 -41 17 -15 15 -20 -18 -80 -19 -36 -33 -67 -30 -70 3 -3 26 8 51
25 50 35 69 39 64 14 -2 -9 -17 -20 -34 -25 -30 -8 -32 -12 -77 -165 -74 -252
-118 -415 -115 -419 2 -2 51 53 108 123 58 69 130 156 161 193 30 37 63 77 72
90 9 13 19 21 23 17 5 -5 -27 -241 -52 -387 -5 -28 26 35 124 250 58 129 65
151 64 202 -1 32 1 58 4 58 14 0 60 -33 76 -55 17 -22 16 -24 -13 -61 -22 -28
-28 -45 -24 -63 3 -14 30 -158 60 -320 48 -256 65 -332 65 -295 0 11 15 94 74
409 l46 239 -31 32 c-20 21 -28 37 -24 46 19 33 51 58 73 58 23 0 24 -2 19
-46 -4 -39 2 -61 38 -143 111 -253 160 -360 161 -358 2 1 -13 99 -31 217 -32
199 -35 241 -17 214 15 -23 268 -332 304 -371 21 -24 38 -39 38 -36 0 15 -141
504 -155 537 -9 20 -21 36 -28 36 -24 0 -53 28 -42 39 8 7 31 -3 78 -34 37
-25 67 -41 67 -35 0 6 -18 42 -40 81 -22 39 -40 75 -40 80 0 13 80 51 96 45 8
-3 14 -16 14 -28 0 -20 15 -28 123 -67 67 -24 164 -59 216 -78 51 -19 95 -32
98 -30 2 3 -74 82 -169 176 -158 157 -175 172 -201 167 l-29 -6 7 84 c5 57 4
86 -4 90 -7 5 -11 -4 -11 -24 0 -17 -7 -65 -16 -107 -19 -91 -27 -79 131 -185
152 -103 205 -141 201 -145 -2 -2 -76 24 -165 59 l-162 63 6 33 c5 27 2 38
-19 57 -37 35 -42 84 -17 175 26 95 26 105 1 130 -25 25 -80 26 -110 2 l-23
-19 27 -45 c41 -70 32 -141 -27 -212 -34 -42 -42 -18 -12 38 46 86 23 172 -43
164 -24 -3 -27 -8 -30 -48 -2 -25 -8 -49 -14 -55 -7 -7 -8 7 -3 48 4 38 3 57
-4 57 -15 0 -15 -187 0 -192 12 -4 1 -38 -12 -38 -5 0 -9 15 -10 33 -1 17 -4
43 -8 57 -7 27 10 172 28 230 16 50 14 101 -5 121 -14 16 -14 20 0 48 22 41
58 63 98 59 27 -2 34 1 36 18 5 34 -34 74 -72 74 -40 0 -81 -30 -90 -65 -9
-35 -18 -31 -41 17 -31 65 -43 69 -125 35 -3 -1 -6 3 -7 8 -2 6 3 10 10 10 6
0 18 10 25 23 17 30 48 28 89 -8 l35 -31 32 28 c18 15 41 33 51 39 18 10 18
22 7 273 -7 145 -19 313 -28 375 -22 162 -55 326 -67 326 -5 0 -7 -14 -3 -32
7 -41 10 -948 3 -955 -3 -3 -22 7 -41 22 l-36 27 0 147 c0 161 21 427 46 582
8 56 14 103 11 105 -8 8 -49 -268 -55 -376 l-7 -105 -6 80 c-3 45 -6 -35 -7
-181 -2 -210 -5 -264 -16 -273 -22 -18 -28 135 -24 586 2 215 2 390 0 388 -13
-13 -40 -378 -47 -635 -3 -124 -9 -254 -12 -290 l-7 -65 -12 105 c-7 58 -18
159 -24 225 -10 107 -52 340 -64 352 -19 20 -82 -420 -97 -677 -4 -73 -18 100
-20 260 l-3 185 -6 -150 c-3 -82 -7 -139 -8 -126 -2 27 -17 19 -25 -14 -3 -11
-5 164 -5 388 0 225 -2 410 -5 413 -3 3 -8 -37 -12 -88 -3 -51 -11 -131 -16
-178 -5 -47 -9 -123 -10 -170 0 -47 -4 -107 -9 -135 -7 -48 -7 -46 -9 30 -2
135 -52 481 -80 557 -7 21 -8 20 -14 -8z m282 -729 c-10 -302 -11 -316 -18
-175 -3 63 -1 176 6 250 7 74 12 144 13 154 0 11 2 17 4 15 2 -2 0 -112 -5
-244z m-51 -290 c-3 -3 -9 2 -12 12 -6 14 -5 15 5 6 7 -7 10 -15 7 -18z m-51
-21 c-9 -9 -28 6 -21 18 4 6 10 6 17 -1 6 -6 8 -13 4 -17z m80 -76 c-2 -13 -4
-5 -4 17 -1 22 1 32 4 23 2 -10 2 -28 0 -40z m-143 -17 c7 -10 9 -72 6 -156
l-2 -60 -18 23 c-11 13 -22 43 -25 67 -4 24 -13 46 -21 49 -21 8 -17 36 8 63
22 24 43 29 52 14z m82 -17 c-4 -9 -9 -15 -11 -12 -3 3 -3 13 1 22 4 9 9 15
11 12 3 -3 3 -13 -1 -22z m254 6 c0 -11 -2 -20 -5 -20 -2 0 -9 9 -15 20 -9 16
-8 20 5 20 8 0 15 -9 15 -20z m124 -10 c16 -28 16 -33 3 -54 -9 -12 -20 -41
-26 -62 -6 -22 -17 -48 -26 -59 -14 -18 -14 -15 -9 36 4 38 3 59 -5 63 -7 5
-9 21 -5 44 12 68 39 80 68 32z m-308 -98 c-13 -12 -17 8 -10 40 l9 33 3 -33
c2 -19 1 -36 -2 -40z m-39 17 c3 -19 14 -34 28 -39 12 -5 30 -24 39 -44 9 -20
19 -36 21 -36 3 0 11 16 19 35 9 20 26 39 41 45 14 5 25 17 25 27 0 10 4 24 9
32 7 11 12 8 25 -11 13 -20 14 -31 7 -52 -9 -22 -16 -26 -51 -26 -22 0 -40 -1
-40 -2 0 -2 -9 -27 -19 -57 l-18 -55 -11 45 c-16 61 -22 67 -67 71 -33 2 -41
7 -43 27 -5 31 6 71 18 71 6 0 13 -14 17 -31z m-202 -59 c19 -36 19 -50 1 -50
-14 0 -26 29 -26 63 0 25 7 21 25 -13z m132 -17 c-3 -10 -5 -2 -5 17 0 19 2
27 5 18 2 -10 2 -26 0 -35z m469 15 c-7 -34 -22 -56 -32 -46 -9 10 16 78 28
78 6 0 8 -12 4 -32z m-136 7 c0 -8 -4 -15 -10 -15 -5 0 -10 7 -10 15 0 8 5 15
10 15 6 0 10 -7 10 -15z m-297 -100 c20 -42 20 -45 6 -45 -8 0 -39 58 -39 75
0 17 19 0 33 -30z m261 -17 c-14 -26 -19 -29 -22 -15 -4 20 29 78 35 60 2 -6
-4 -27 -13 -45z m116 7 c0 -18 -7 -28 -25 -35 -14 -5 -25 -16 -25 -25 0 -16
-47 -51 -56 -42 -7 7 8 29 56 85 41 48 50 51 50 17z m-446 -35 c45 -48 56 -70
36 -70 -13 0 -50 37 -50 50 0 6 -11 15 -25 20 -15 6 -25 17 -25 30 0 31 13 25
64 -30z m136 -76 c0 -8 -4 -12 -10 -9 -5 3 -10 13 -10 21 0 8 5 12 10 9 6 -3
10 -13 10 -21z m126 -11 c-11 -11 -19 6 -11 24 8 17 8 17 12 0 3 -10 2 -21 -1
-24z m214 27 c0 -5 -4 -10 -10 -10 -5 0 -10 5 -10 10 0 6 5 10 10 10 6 0 10
-4 10 -10z m-91 -167 c-13 -41 -37 -54 -97 -56 -43 -1 -47 1 -47 23 0 17 7 26
25 30 35 8 41 56 8 70 -20 8 -19 9 12 7 35 -2 35 -2 35 -51 0 -29 5 -51 12
-53 19 -7 46 55 39 91 -9 46 7 55 17 10 4 -22 3 -51 -4 -71z m-372 53 c-1 -31
4 -50 17 -65 26 -29 41 -12 37 43 -2 38 1 44 20 49 31 8 48 -4 20 -15 -32 -11
-26 -60 9 -68 18 -4 25 -13 25 -30 0 -22 -4 -24 -53 -23 -35 0 -59 6 -70 16
-18 19 -31 137 -14 137 6 0 10 -19 9 -44z m-160 -68 c-3 -8 -6 -5 -6 6 -1 11
2 17 5 13 3 -3 4 -12 1 -19z m763 -11 c0 -14 -20 -37 -32 -37 -4 0 -2 11 4 25
12 27 28 34 28 12z m-197 -12 c-3 -9 -8 -14 -10 -11 -3 3 -2 9 2 15 9 16 15
13 8 -4z m-593 -73 c0 -26 -25 -5 -28 24 -2 28 -2 28 13 10 8 -11 15 -26 15
-34z m875 -64 l27 -53 -36 34 c-20 19 -36 43 -36 53 0 32 17 19 45 -34z m-855
-15 c0 -35 -10 -65 -44 -127 -52 -96 -82 -151 -165 -308 -35 -65 -64 -118 -66
-118 -2 0 3 21 11 48 8 26 25 85 38 132 34 120 76 263 79 266 1 1 23 11 49 22
44 19 47 23 54 69 12 85 44 96 44 16z m710 -10 c0 -51 9 -73 120 -289 66 -129
118 -234 116 -234 -5 0 -110 130 -233 288 l-42 53 5 102 c3 56 7 112 10 125 8
41 24 12 24 -45z m-827 15 c-24 -26 -59 -46 -48 -26 16 28 48 57 57 52 5 -3 1
-15 -9 -26z m473 -83 c17 23 19 2 3 -27 -11 -21 -12 -21 -25 3 -16 29 -18 52
-2 25 11 -19 11 -19 24 -1z m-287 -32 c-1 -10 -4 -29 -8 -43 l-7 -24 -13 31
c-7 18 -10 37 -6 42 10 18 35 13 34 -6z m95 -5 c3 -13 6 -33 6 -46 0 -25 -130
-345 -138 -338 -2 3 10 53 26 113 17 59 40 144 52 188 11 44 23 86 25 93 7 19
22 14 29 -10z m446 0 c8 -19 51 -280 66 -398 3 -30 3 -32 -5 -10 -11 30 -108
363 -117 403 -6 24 -3 27 20 27 18 0 29 -7 36 -22z m40 0 c0 -40 -17 -54 -22
-19 -3 17 -2 33 0 36 12 12 22 3 22 -17z m-356 -92 c-16 -25 -16 -36 0 -179 9
-84 16 -162 15 -172 -1 -24 -35 125 -48 216 -6 36 -13 72 -16 80 -3 8 9 31 26
52 35 42 50 44 23 3z"/>
<path d="M1412 2800 c0 -14 2 -19 5 -12 2 6 2 18 0 25 -3 6 -5 1 -5 -13z"/>
<path d="M1082 2750 c0 -19 2 -27 5 -17 2 9 2 25 0 35 -3 9 -5 1 -5 -18z"/>
<path d="M1423 2690 c0 -25 2 -35 4 -22 2 12 2 32 0 45 -2 12 -4 2 -4 -23z"/>
<path d="M1093 2645 c0 -22 2 -30 4 -17 2 12 2 30 0 40 -3 9 -5 -1 -4 -23z"/>
<path d="M1433 2565 c0 -33 2 -45 4 -27 2 18 2 45 0 60 -2 15 -4 0 -4 -33z"/>
<path d="M1103 2485 c0 -38 2 -53 4 -32 2 20 2 52 0 70 -2 17 -4 1 -4 -38z"/>
</g>
</svg>
