<?xml version="1.0" standalone="no"?>
<!DOCTYPE svg PUBLIC "-//W3C//DTD SVG 20010904//EN"
 "http://www.w3.org/TR/2001/REC-SVG-20010904/DTD/svg10.dtd">
<svg version="1.0" xmlns="http://www.w3.org/2000/svg"
 width="244.000000pt" height="305.000000pt" viewBox="0 0 244.000000 305.000000"
 preserveAspectRatio="xMidYMid meet">
<metadata>
Created by potrace 1.16, written by Peter Selinger 2001-2019
</metadata>
<g transform="translate(0.000000,305.000000) scale(0.100000,-0.100000)"
fill="#000000" stroke="none">
<path d="M965 2888 c-2 -7 -13 -74 -24 -148 -25 -167 -39 -344 -47 -610 l-6
-205 31 -23 c38 -28 32 -43 -16 -40 -28 2 -40 -4 -59 -25 -13 -16 -24 -39 -24
-53 0 -23 3 -24 33 -19 29 6 37 2 60 -25 27 -32 35 -74 17 -85 -17 -10 -11
-81 11 -140 18 -49 19 -58 6 -73 -7 -9 -18 -26 -22 -37 -8 -18 -9 -17 -13 8
-2 16 1 42 7 59 7 20 7 36 0 49 -12 23 -52 25 -72 4 -13 -13 -16 -13 -27 0 -7
8 -28 15 -46 15 -25 0 -38 -7 -51 -26 -15 -24 -15 -33 -3 -98 25 -133 24 -147
-5 -191 -15 -22 -28 -45 -29 -52 -6 -37 -52 -76 -141 -117 -53 -25 -105 -48
-118 -52 -12 -4 48 49 133 118 175 141 161 112 135 273 l-14 90 2 -95 1 -95
-26 3 c-28 3 -21 10 -223 -226 -53 -63 -95 -116 -92 -118 2 -3 61 20 131 50
137 59 152 57 94 -15 -37 -46 -32 -59 14 -31 18 11 74 41 123 67 50 27 96 52
102 58 21 16 41 0 52 -39 11 -40 1 -64 -25 -64 -8 0 -19 -10 -24 -22 -9 -21
-57 -217 -109 -438 -11 -47 -23 -94 -26 -105 l-7 -20 16 20 c9 11 23 28 32 38
8 10 20 29 26 43 6 13 14 24 18 24 4 0 22 24 40 53 18 28 35 46 37 39 3 -7 -3
-55 -12 -108 -10 -52 -16 -97 -13 -99 2 -2 41 67 88 153 46 86 99 186 118 221
30 56 33 68 25 100 -5 20 -8 42 -5 49 10 31 109 -1 132 -43 11 -20 9 -27 -14
-58 l-27 -36 21 -128 c35 -215 49 -304 65 -412 9 -58 17 -107 19 -109 2 -2 9
27 15 65 6 37 29 184 52 325 l41 257 -26 34 c-14 19 -26 39 -26 44 0 24 71 73
104 73 43 0 45 -4 35 -51 -7 -30 -6 -48 4 -67 19 -38 133 -253 179 -337 43
-80 43 -80 23 40 -8 50 -15 96 -15 104 0 12 60 -65 103 -132 10 -16 25 -36 32
-45 8 -9 23 -28 34 -42 12 -14 19 -18 17 -10 -3 8 -35 138 -71 288 -65 262
-68 273 -96 288 -35 17 -39 59 -10 95 l18 23 48 -28 c73 -43 198 -106 202
-102 2 2 -7 21 -22 41 -24 36 -31 55 -20 55 5 0 165 -64 210 -85 57 -26 87
-35 83 -26 -1 5 -70 86 -151 180 -127 147 -152 171 -174 169 l-25 -3 0 95 c0
90 -1 92 -8 35 -4 -33 -8 -84 -9 -113 l-1 -53 33 6 c35 7 46 -3 137 -111 14
-16 51 -60 83 -97 32 -37 56 -67 53 -67 -7 0 -153 104 -230 164 -33 25 -63 46
-68 46 -4 0 -17 19 -29 41 -23 46 -22 89 1 190 12 51 12 60 -3 83 -32 48 -126
25 -114 -28 3 -12 1 -30 -3 -41 -7 -17 -9 -16 -9 10 -2 52 -12 75 -37 81 -14
4 -31 1 -40 -7 -15 -12 -16 -10 -8 21 13 57 12 84 -2 107 -20 32 -18 47 12 82
19 24 34 31 60 31 30 0 34 3 34 26 0 56 -44 85 -95 62 -45 -20 -51 4 -11 40
l36 31 -1 173 c-1 95 -5 218 -9 273 -4 60 -5 -3 -3 -160 l4 -260 -36 -29 -36
-29 3 502 c2 275 0 501 -3 501 -10 0 -40 -168 -48 -268 -13 -155 -23 -118 -19
75 1 100 2 180 0 178 -17 -16 -52 -421 -52 -596 0 -134 -7 -192 -21 -183 -5 3
-9 -2 -9 -10 0 -22 -18 -20 -23 2 -2 9 -7 -10 -11 -43 -4 -33 -9 -64 -10 -70
-2 -5 -6 61 -9 148 -7 153 -41 428 -57 456 -17 32 -55 -232 -66 -469 -4 -85
-9 -148 -10 -140 -2 8 -6 42 -9 75 -5 45 -9 55 -17 42 -15 -28 -36 2 -41 59
-2 27 -4 -5 -5 -72 -1 -85 -6 -126 -16 -139 -13 -18 -14 -13 -20 45 -8 96 -21
571 -20 753 1 86 0 156 -2 154 -15 -14 -38 -235 -50 -477 -4 -74 -9 -137 -11
-140 -2 -2 -3 136 -1 308 2 171 2 312 0 312 -1 0 -4 -6 -7 -12z m305 -743 c5
-115 10 -275 10 -355 0 -133 -2 -147 -20 -163 -20 -17 -20 -16 -19 421 2 461
10 489 29 97z m-280 -235 c0 -5 -4 -10 -10 -10 -5 0 -10 5 -10 10 0 6 5 10 10
10 6 0 10 -4 10 -10z m100 -19 c0 -21 -26 -36 -36 -20 -6 11 13 39 27 39 5 0
9 -9 9 -19z m318 -9 c2 -7 -5 -12 -17 -12 -14 0 -19 5 -14 15 6 17 25 15 31
-3z m72 -18 c0 -8 -7 -14 -15 -14 -15 0 -21 21 -9 33 10 9 24 -2 24 -19z
m-455 7 c7 -12 -12 -24 -25 -16 -11 7 -4 25 10 25 5 0 11 -4 15 -9z m115 -120
c0 -13 -42 -21 -59 -11 -17 9 -17 9 29 23 17 5 30 0 30 -12z m250 0 c0 -6 -4
-12 -8 -15 -13 -8 -52 5 -46 15 7 12 54 12 54 0z m-272 -99 c13 -2 30 2 38 8
12 10 14 7 14 -18 0 -18 6 -32 15 -36 9 -3 24 -25 34 -48 l18 -43 12 36 c6 20
23 46 36 57 14 12 25 28 25 35 0 7 13 12 32 12 27 0 36 6 51 35 18 35 18 35
12 5 -4 -16 -9 -48 -12 -70 -7 -52 -13 -57 -50 -44 -45 15 -68 -1 -91 -63
l-19 -52 -17 52 c-21 62 -44 78 -88 63 -41 -14 -48 -8 -48 44 0 24 -4 47 -10
50 -5 3 -10 16 -10 28 0 18 3 15 18 -13 11 -22 25 -36 40 -38z m352 38 c0 -5
-4 -10 -10 -10 -5 0 -10 5 -10 10 0 6 5 10 10 10 6 0 10 -4 10 -10z m-471
-140 c11 -35 18 -66 16 -69 -8 -8 -45 84 -45 113 0 40 6 31 29 -44z m505 33
c-8 -43 -38 -108 -55 -119 -7 -4 -10 -2 -6 7 3 8 16 44 28 82 25 73 44 90 33
30z m-77 -5 c-3 -7 -5 -2 -5 12 0 14 2 19 5 13 2 -7 2 -19 0 -25z m-80 -75
c-8 -15 -24 -37 -36 -47 -18 -16 -21 -17 -21 -3 0 31 20 68 42 76 30 11 32 8
15 -26z m-188 1 c12 -15 21 -36 21 -47 0 -20 0 -20 -21 -1 -12 10 -27 31 -35
46 -13 24 -13 28 0 28 8 0 24 -12 35 -26z m392 -56 c8 -32 9 -57 1 -95 -6 -28
-8 -60 -5 -71 2 -11 -1 -23 -7 -27 -9 -5 -10 13 -5 74 6 66 5 85 -9 105 -15
24 -13 56 5 56 4 0 13 -19 20 -42z m-724 -40 c-2 -13 -4 -5 -4 17 -1 22 1 32
4 23 2 -10 2 -28 0 -40z m853 -14 c0 -48 -11 -92 -24 -97 -8 -3 -10 20 -8 82
3 77 5 84 18 67 8 -11 14 -34 14 -52z m-871 -21 l-2 -58 -7 45 c-7 41 -4 70 6
70 2 0 3 -26 3 -57z m381 -10 c0 -21 -18 -15 -52 17 l-33 30 42 -18 c24 -9 43
-23 43 -29z m-185 27 c3 -5 1 -10 -4 -10 -6 0 -11 5 -11 10 0 6 2 10 4 10 3 0
8 -4 11 -10z m322 -15 c-34 -30 -47 -32 -47 -6 0 14 5 18 19 14 10 -3 22 0 25
6 4 6 13 11 19 11 7 0 -1 -12 -16 -25z m-194 -73 c14 -3 17 -11 13 -31 -4 -20
2 -32 25 -51 20 -17 28 -31 24 -42 -9 -24 -34 -30 -51 -13 -18 17 -17 17 -69
5 -28 -6 -42 -6 -47 3 -14 22 -8 28 25 25 l32 -3 -3 64 c-3 59 -2 63 15 56 10
-4 26 -10 36 -13z m252 -48 l-6 -54 30 0 c35 0 47 -13 27 -29 -10 -8 -21 -8
-40 -1 -37 14 -52 13 -70 -5 -12 -12 -20 -14 -36 -5 -11 6 -20 15 -20 20 0 19
13 40 26 40 20 0 34 31 23 53 -8 14 -4 20 23 31 18 8 37 12 41 9 5 -3 6 -30 2
-59z m-416 -52 c7 -13 10 -26 7 -29 -9 -10 -57 99 -51 116 5 12 10 5 19 -24 7
-22 18 -51 25 -63z m-122 51 c-3 -10 -5 -4 -5 12 0 17 2 24 5 18 2 -7 2 -21 0
-30z m793 7 c0 -11 -4 -20 -10 -20 -5 0 -10 9 -10 20 0 11 5 20 10 20 6 0 10
-9 10 -20z m-140 -80 c-6 -11 -13 -20 -16 -20 -2 0 0 9 6 20 6 11 13 20 16 20
2 0 0 -9 -6 -20z m260 -53 c0 -13 11 -28 28 -38 15 -9 36 -31 46 -50 l20 -34
-45 39 c-24 22 -57 53 -73 69 -28 28 -28 31 -10 38 25 9 34 3 34 -24z m-964 9
c10 -8 16 -17 13 -20 -16 -16 -194 -126 -203 -126 -6 0 26 36 71 80 45 44 86
80 90 80 5 0 18 -6 29 -14z m771 -53 c-2 -89 9 -118 52 -138 l39 -17 53 -212
c28 -116 54 -218 56 -226 15 -58 -182 375 -207 452 -6 21 -16 40 -21 43 -14 9
-11 83 6 115 9 17 17 30 19 30 2 0 3 -21 3 -47z m-626 -39 c6 -31 6 -51 -1
-58 -15 -15 -18 -7 -22 61 -5 72 10 70 23 -3z m258 14 c0 -16 -2 -18 -6 -8 -3
8 -11 18 -17 22 -7 5 -4 8 7 8 11 0 17 -7 16 -22z m99 11 c-10 -5 -18 -19 -18
-30 0 -12 -8 -50 -17 -85 l-17 -65 28 -50 28 -51 -12 -101 c-7 -56 -21 -158
-30 -227 l-18 -125 -1 285 c-1 247 -3 289 -17 309 -19 26 -37 94 -23 85 5 -3
9 -13 9 -23 0 -9 6 -26 14 -37 14 -18 15 -18 26 10 6 16 14 49 17 73 5 35 9
43 27 43 19 -1 19 -2 4 -11z m-280 -186 c3 -47 -4 -65 -83 -222 -48 -94 -88
-171 -90 -171 -14 0 80 255 114 308 20 32 28 55 25 70 -8 30 4 74 19 69 7 -2
13 -26 15 -54z m482 37 c0 -11 -4 -20 -10 -20 -5 0 -10 9 -10 20 0 11 5 20 10
20 6 0 10 -9 10 -20z m-621 -126 c-7 -38 -18 -80 -23 -94 -14 -32 -129 -200
-134 -195 -2 2 11 34 28 72 18 37 40 88 50 113 38 94 81 183 86 178 3 -3 -1
-37 -7 -74z m438 -46 c-3 -7 -5 -2 -5 12 0 14 2 19 5 13 2 -7 2 -19 0 -25z
m293 -149 c11 -51 18 -94 16 -96 -2 -2 -20 47 -41 109 -21 62 -40 120 -43 128
-3 8 7 1 21 -17 20 -23 33 -57 47 -124z"/>
<path d="M992 2780 c0 -19 2 -27 5 -17 2 9 2 25 0 35 -3 9 -5 1 -5 -18z"/>
<path d="M1522 2765 c0 -16 2 -22 5 -12 2 9 2 23 0 30 -3 6 -5 -1 -5 -18z"/>
<path d="M1532 2700 c0 -19 6 -75 13 -125 7 -52 13 -73 13 -50 0 22 -5 78 -12
125 -8 47 -14 69 -14 50z"/>
<path d="M1063 2665 c0 -27 2 -38 4 -22 2 15 2 37 0 50 -2 12 -4 0 -4 -28z"/>
<path d="M1072 2530 c0 -19 2 -27 5 -17 2 9 2 25 0 35 -3 9 -5 1 -5 -18z"/>
<path d="M1083 2390 c0 -41 2 -58 4 -37 2 20 2 54 0 75 -2 20 -4 3 -4 -38z"/>
</g>
</svg>
