<?xml version="1.0" standalone="no"?>
<!DOCTYPE svg PUBLIC "-//W3C//DTD SVG 20010904//EN"
 "http://www.w3.org/TR/2001/REC-SVG-20010904/DTD/svg10.dtd">
<svg version="1.0" xmlns="http://www.w3.org/2000/svg"
 width="244.000000pt" height="305.000000pt" viewBox="0 0 244.000000 305.000000"
 preserveAspectRatio="xMidYMid meet">
<metadata>
Created by potrace 1.16, written by Peter Selinger 2001-2019
</metadata>
<g transform="translate(0.000000,305.000000) scale(0.100000,-0.100000)"
fill="#000000" stroke="none">
<path d="M1022 2890 c0 -14 2 -19 5 -12 2 6 2 18 0 25 -3 6 -5 1 -5 -13z"/>
<path d="M976 2888 c-5 -14 -31 -201 -47 -328 -6 -41 -14 -201 -18 -355 l-8
-280 30 -24 c27 -23 28 -25 11 -32 -10 -4 -31 -8 -46 -8 -56 -2 -81 -93 -26
-95 37 -2 78 -43 78 -78 0 -15 -5 -28 -11 -28 -8 0 -10 -19 -6 -62 4 -46 16
-83 46 -140 40 -77 40 -77 21 -100 l-19 -23 -1 46 c0 47 -16 72 -42 68 -34 -4
-39 1 -33 35 9 43 -11 56 -88 56 -88 0 -103 -35 -71 -160 8 -34 13 -69 9 -77
-11 -30 -26 3 -40 88 l-14 84 3 -93 4 -93 -28 6 c-24 5 -33 -2 -86 -67 -32
-40 -92 -113 -134 -163 -42 -49 -80 -96 -84 -103 -7 -11 68 14 115 38 10 6 25
10 34 10 15 0 15 -4 -4 -35 -14 -24 -16 -35 -8 -35 7 0 17 4 22 9 6 5 69 40
140 77 72 37 135 73 140 81 13 16 28 6 49 -34 25 -49 21 -79 -11 -91 -31 -10
-19 29 -122 -409 -21 -90 -35 -163 -32 -163 4 0 14 12 23 28 28 46 79 114 84
110 2 -3 -3 -37 -12 -77 -8 -41 -13 -75 -11 -77 3 -4 198 336 236 412 17 34
18 48 10 78 -5 20 -7 41 -4 46 10 17 78 11 112 -9 43 -27 50 -56 24 -92 -25
-34 -26 -62 -6 -183 8 -50 29 -183 45 -296 17 -112 33 -206 34 -208 2 -2 9 27
15 65 94 599 92 583 61 623 -27 34 -25 43 15 79 27 23 45 31 75 31 47 0 52 -7
39 -54 -9 -32 -7 -43 16 -84 15 -26 43 -76 62 -112 98 -180 164 -286 163 -264
-1 5 -7 36 -15 69 -8 32 -12 61 -10 64 6 5 1 12 69 -87 56 -79 76 -101 61 -64
-4 9 -15 55 -25 102 -18 83 -96 408 -106 442 -3 10 -16 21 -30 24 -18 5 -24
13 -24 34 0 42 20 90 38 90 8 0 78 -32 155 -71 133 -67 168 -79 133 -44 -9 9
-16 23 -16 30 0 10 30 2 105 -30 58 -24 105 -41 105 -38 0 7 -56 76 -120 149
-25 28 -52 60 -60 70 -8 11 -37 46 -64 77 -42 50 -52 57 -75 52 l-26 -6 2 93
c1 76 0 85 -7 48 -5 -25 -9 -73 -9 -108 l-1 -63 33 6 c32 6 36 3 103 -76 38
-45 85 -101 104 -123 66 -76 65 -81 -5 -31 -38 27 -72 51 -75 54 -3 4 -23 18
-45 33 -55 37 -109 95 -134 143 -25 47 -25 57 -6 132 31 120 18 142 -85 141
-79 0 -93 -10 -88 -60 3 -31 1 -33 -27 -30 -16 2 -31 5 -33 7 -2 2 5 23 16 47
27 61 35 130 17 154 -33 44 0 103 63 113 47 8 55 39 18 76 -22 22 -31 24 -73
19 l-48 -6 38 36 37 36 -2 138 -2 137 -4 -125 c-3 -119 -4 -126 -28 -143 l-24
-18 -2 113 -2 113 -5 -105 c-4 -58 -6 112 -6 378 0 265 -3 482 -6 482 -3 0 -6
-6 -7 -12 -2 -31 -34 -193 -39 -198 -3 -3 -3 44 0 103 3 60 3 107 1 105 -6 -7
-33 -215 -44 -343 -5 -66 -13 -214 -17 -330 -6 -180 -9 -203 -18 -163 -8 39
-13 45 -27 37 -12 -7 -18 -30 -23 -94 -4 -47 -9 -85 -10 -83 -1 2 -6 77 -9
168 -4 91 -9 188 -12 215 -11 110 -36 271 -44 284 -19 34 -55 -245 -66 -509
-8 -173 -8 -174 -16 -90 -9 99 -13 110 -31 110 -14 0 -25 -33 -29 -89 -1 -14
-5 37 -8 114 l-6 140 -2 -157 c-1 -97 -6 -158 -12 -158 -6 0 -11 61 -12 158
l-2 157 -6 -159 c-3 -115 -9 -161 -17 -164 -10 -3 -13 59 -13 289 0 161 3 290
6 286 3 -3 9 -59 14 -124 6 -109 7 -112 8 -38 1 44 -5 143 -13 220 -8 77 -15
173 -15 214 0 41 -3 72 -6 69 -3 -3 -11 -52 -19 -109 l-14 -104 2 128 c3 121
1 143 -7 115z m300 -921 c7 -317 7 -318 -14 -338 l-22 -20 1 443 c2 413 3 436
15 338 7 -58 16 -248 20 -423z m-155 -105 c29 -32 35 -64 23 -109 -5 -18 -11
-21 -35 -16 -26 5 -29 3 -29 -21 0 -15 5 -36 10 -47 13 -24 56 -25 69 -1 8 14
10 10 11 -19 0 -24 6 -39 15 -43 9 -3 24 -25 34 -48 l18 -43 12 38 c7 21 21
43 32 50 13 8 19 23 19 47 1 29 2 32 11 18 23 -40 79 -9 79 44 0 29 -2 30 -30
25 -22 -5 -30 -3 -30 8 0 10 11 15 34 15 28 0 36 -5 46 -30 10 -24 10 -37 1
-56 -6 -14 -11 -36 -11 -49 0 -13 -5 -35 -11 -49 l-12 -25 -28 21 c-41 31 -72
14 -97 -53 l-19 -53 -18 53 c-21 65 -50 83 -91 56 -32 -21 -43 -12 -50 41 -3
21 -10 49 -16 61 -7 14 -7 31 -1 50 8 23 16 29 46 31 34 3 37 6 37 35 0 51
-26 80 -66 75 -40 -5 -45 12 -11 35 15 10 23 11 26 3 2 -6 17 -26 32 -44z
m299 17 c0 -5 -10 -9 -22 -9 -28 0 -41 -9 -56 -35 -8 -13 -11 -15 -12 -6 0 8
15 29 33 47 23 24 35 29 45 22 6 -6 12 -14 12 -19z m60 -25 c0 -8 -4 -14 -10
-14 -5 0 -10 9 -10 21 0 11 5 17 10 14 6 -3 10 -13 10 -21z m-460 2 c0 -8 -4
-17 -9 -21 -12 -7 -24 12 -16 25 9 15 25 12 25 -4z m134 -342 c18 -17 32 -62
22 -71 -11 -12 -66 55 -66 82 0 11 29 4 44 -11z m206 10 c0 -13 -25 -51 -47
-71 -24 -23 -32 -73 -11 -73 6 0 26 11 45 26 18 14 33 21 33 16 0 -10 -35 -42
-72 -65 l-28 -17 0 42 c0 57 18 120 38 136 16 12 42 16 42 6z m-185 -140 c10
4 15 -1 15 -14 0 -11 -3 -20 -6 -20 -22 0 -104 65 -104 83 0 5 18 -6 40 -23
23 -18 47 -29 55 -26z m306 -27 c-18 -18 -24 21 -10 56 l14 32 3 -39 c2 -21
-1 -43 -7 -49z m174 -34 c-3 -24 -11 -46 -17 -49 -11 -7 -3 112 10 151 10 29
15 -48 7 -102z m-827 12 c0 -34 -1 -36 -8 -15 -4 14 -8 43 -8 65 0 34 1 36 8
15 4 -14 8 -43 8 -65z m309 -32 c19 -4 21 -10 16 -35 -5 -24 -1 -34 21 -52 18
-14 25 -27 21 -38 -9 -24 -34 -30 -51 -13 -19 19 -35 19 -78 1 -25 -10 -37
-11 -45 -3 -18 18 -13 26 22 29 l32 3 -3 64 c-4 63 -3 64 20 57 12 -4 33 -10
45 -13z m259 -43 c-7 -59 -7 -59 21 -66 15 -3 31 -6 35 -7 4 -1 3 -8 -1 -16
-8 -12 -16 -12 -55 -1 -41 11 -49 11 -65 -4 -15 -14 -24 -15 -40 -6 -30 15
-27 48 5 60 23 9 26 15 21 44 -5 31 -3 34 26 44 59 19 60 18 53 -48z m-783
-153 c-20 -28 -51 -53 -93 -75 -35 -18 -67 -31 -71 -30 -5 2 35 38 88 80 54
42 99 75 102 72 2 -2 -9 -23 -26 -47z m173 38 c19 -15 19 -15 -1 -30 -28 -22
-211 -125 -222 -125 -19 1 75 71 124 92 39 17 53 28 53 44 0 36 15 42 46 19z
m-66 -15 c0 -5 -4 -10 -10 -10 -5 0 -10 5 -10 10 0 6 5 10 10 10 6 0 10 -4 10
-10z m484 -104 c4 -30 13 -62 21 -72 13 -18 14 -17 25 10 6 16 14 49 17 73 3
24 9 43 14 43 10 0 4 -42 -17 -117 -19 -70 -18 -83 11 -125 32 -47 31 -70 -4
-313 l-29 -190 -1 282 c-1 280 -1 282 -26 329 -14 26 -25 64 -25 85 0 20 -6
40 -12 42 -8 4 -7 6 3 6 13 1 18 -12 23 -53z m353 -42 c-21 -21 -36 42 -20 83
6 13 10 5 16 -30 5 -26 7 -50 4 -53z m318 46 c10 -11 14 -20 8 -20 -5 0 -18 9
-28 20 -10 11 -14 20 -8 20 5 0 18 -9 28 -20z m-305 -119 l-1 -26 -14 25 c-18
32 -18 41 0 34 8 -4 15 -18 15 -33z m68 24 c3 -2 81 -320 107 -429 7 -34 -13
-2 -40 64 -15 35 -40 92 -56 125 -25 53 -69 207 -69 243 0 8 8 10 28 6 15 -4
28 -8 30 -9z m-633 -45 c6 -44 3 -57 -24 -108 -17 -31 -56 -106 -87 -165 -31
-59 -58 -106 -61 -103 -8 7 27 106 54 156 14 25 46 75 70 112 42 62 44 70 34
99 -13 39 -14 59 -2 59 5 0 12 -23 16 -50z m-35 -29 c0 -11 -9 -29 -21 -42
-18 -22 -20 -22 -15 -4 3 11 8 32 12 47 7 30 24 29 24 -1z m-133 -166 c-7 -46
-41 -121 -76 -165 -29 -36 -26 -19 13 63 18 40 39 89 47 110 17 49 23 47 16
-8z m787 -79 c14 -33 33 -125 23 -116 -7 7 -47 124 -47 138 0 21 9 13 24 -22z"/>
<path d="M1501 2834 c0 -11 3 -14 6 -6 3 7 2 16 -1 19 -3 4 -6 -2 -5 -13z"/>
<path d="M1515 2750 c2 -25 11 -124 20 -220 9 -96 20 -206 24 -245 8 -63 8
-60 4 30 -5 120 -31 384 -43 440 l-9 40 4 -45z"/>
<path d="M1042 2750 c0 -19 2 -27 5 -17 2 9 2 25 0 35 -3 9 -5 1 -5 -18z"/>
<path d="M1053 2665 c0 -22 2 -30 4 -17 2 12 2 30 0 40 -3 9 -5 -1 -4 -23z"/>
<path d="M1063 2555 c0 -33 2 -45 4 -27 2 18 2 45 0 60 -2 15 -4 0 -4 -33z"/>
<path d="M1073 2415 c0 -44 2 -61 4 -37 2 23 2 59 0 80 -2 20 -4 1 -4 -43z"/>
</g>
</svg>
