<?xml version="1.0" standalone="no"?>
<!DOCTYPE svg PUBLIC "-//W3C//DTD SVG 20010904//EN"
 "http://www.w3.org/TR/2001/REC-SVG-20010904/DTD/svg10.dtd">
<svg version="1.0" xmlns="http://www.w3.org/2000/svg"
 width="244.000000pt" height="305.000000pt" viewBox="0 0 244.000000 305.000000"
 preserveAspectRatio="xMidYMid meet">
<metadata>
Created by potrace 1.16, written by Peter Selinger 2001-2019
</metadata>
<g transform="translate(0.000000,305.000000) scale(0.100000,-0.100000)"
fill="#000000" stroke="none">
<path d="M887 2904 c-10 -10 -9 -52 1 -58 7 -4 5 -936 -2 -943 -2 -2 -22 9
-45 24 l-42 27 2 116 c2 180 17 370 45 559 14 95 23 175 21 177 -4 5 -42 -205
-58 -321 -6 -44 -13 -188 -15 -320 l-5 -240 55 -37 c54 -36 55 -36 72 -17 10
11 33 27 51 36 l33 15 0 92 c0 130 -18 437 -31 531 -12 88 -56 315 -67 346 -4
11 -11 17 -15 13z"/>
<path d="M1568 2876 c-3 -14 -1 -26 3 -26 5 0 9 -214 9 -475 0 -279 -4 -475
-9 -475 -5 0 -28 12 -51 28 l-43 27 7 180 c8 216 21 358 47 524 11 68 18 126
15 128 -5 5 -11 -21 -31 -142 -25 -148 -35 -268 -42 -502 l-6 -222 28 -11 c16
-6 39 -22 52 -36 l24 -26 34 30 c18 17 43 33 54 37 20 6 21 14 21 128 0 236
-29 533 -71 736 -24 111 -34 136 -41 97z"/>
<path d="M1551 2824 c0 -11 3 -14 6 -6 3 7 2 16 -1 19 -3 4 -6 -2 -5 -13z"/>
<path d="M1177 2529 c-3 -129 -10 -283 -16 -344 -6 -60 -11 -158 -12 -218 -1
-106 -13 -148 -23 -85 -3 18 -12 72 -20 121 -24 142 -37 139 -58 -13 l-12 -93
37 -29 c34 -28 37 -34 37 -84 0 -60 -16 -77 -52 -55 -23 14 -37 7 -33 -17 2
-9 4 -20 4 -24 2 -13 32 -38 47 -38 8 0 24 11 36 25 28 32 42 32 34 -1 -9 -33
1 -64 20 -64 8 0 14 -10 14 -26 0 -23 -1 -24 -20 -11 -22 15 -60 11 -95 -10
-17 -11 -18 -14 -5 -23 8 -5 24 -10 35 -10 33 -1 43 -13 50 -65 l8 -49 -31 24
c-18 14 -46 36 -63 49 -42 33 -89 108 -89 143 0 17 -7 31 -20 38 -28 15 -25
37 10 72 28 27 36 30 75 25 44 -4 45 -4 45 23 0 44 -30 72 -77 74 -49 1 -77
-20 -94 -72 l-12 -36 -17 35 c-27 52 -54 72 -100 72 -51 0 -80 -25 -80 -69 0
-32 0 -32 40 -27 47 7 82 -12 105 -57 14 -27 14 -30 -6 -49 -19 -17 -21 -27
-16 -66 8 -53 23 -85 72 -149 19 -25 35 -52 35 -60 0 -8 -16 -33 -35 -56 -41
-49 -44 -78 -12 -108 52 -49 119 -34 97 22 -5 15 -10 37 -10 50 0 41 16 45 90
22 l68 -21 -4 -35 c-16 -123 -29 -180 -36 -160 -4 12 -5 33 -2 46 6 23 4 24
-39 24 -25 0 -59 -8 -75 -17 -39 -22 -70 -9 -112 48 -22 32 -30 52 -29 83 1
55 -11 138 -24 154 -16 20 -64 14 -87 -10 -32 -34 -22 -88 30 -173 93 -151
113 -194 106 -235 -4 -23 -43 -101 -94 -187 -49 -81 -113 -190 -143 -240 -29
-51 -56 -93 -60 -93 -6 0 103 342 133 422 4 9 23 20 42 23 47 9 68 36 74 94 6
65 -9 105 -64 171 -86 103 -105 178 -59 240 14 19 25 41 25 50 0 38 -113 55
-143 22 -22 -25 -21 -58 4 -135 34 -104 12 -152 -101 -214 -115 -64 -158 -88
-201 -114 -111 -65 -118 -64 -44 8 39 37 105 99 148 137 77 68 77 68 123 61
l45 -6 -7 98 c-9 133 -25 156 -22 31 l3 -98 -32 6 c-30 6 -40 0 -110 -62 -148
-130 -303 -277 -299 -281 3 -3 33 4 68 15 35 12 143 46 241 77 167 53 177 57
177 81 0 36 20 38 81 11 59 -27 92 -57 108 -100 14 -36 9 -43 -34 -57 -37 -12
-37 -13 -178 -465 -14 -44 -29 -88 -33 -99 -17 -44 16 -12 267 264 155 170
147 154 123 238 l-7 24 100 -4 c91 -3 103 -5 136 -31 20 -15 37 -33 37 -40 0
-6 -14 -26 -32 -44 l-31 -33 21 -102 c12 -57 23 -132 23 -168 1 -48 3 -58 9
-40 4 14 8 20 9 15 2 -24 71 -348 74 -351 4 -5 16 46 52 226 14 69 30 139 35
155 4 17 18 83 30 149 l21 119 -31 32 c-41 42 -34 70 23 96 49 22 203 27 209
7 2 -6 0 -28 -6 -49 -11 -44 -19 -32 179 -250 202 -223 215 -236 215 -217 0 9
-5 29 -11 45 -12 30 -120 376 -145 460 -14 48 -18 53 -55 63 -40 11 -46 22
-30 62 16 42 56 78 109 98 67 26 68 25 75 -8 6 -27 14 -31 199 -91 106 -35
210 -69 231 -77 20 -8 45 -14 55 -14 16 0 3 14 -113 118 -17 15 -73 65 -125
112 -52 47 -103 93 -115 103 -14 13 -29 17 -52 12 l-33 -6 6 89 c5 62 3 91 -5
96 -7 5 -11 -5 -11 -31 -1 -21 -5 -58 -11 -83 -5 -25 -12 -61 -15 -80 l-6 -35
124 -76 c67 -42 158 -97 201 -124 43 -26 76 -49 74 -51 -3 -4 -106 32 -302
104 -44 17 -79 34 -77 38 14 41 12 53 -17 82 -26 25 -31 38 -31 77 0 26 9 77
20 114 32 105 6 143 -87 128 -63 -11 -69 -27 -33 -83 25 -40 30 -56 25 -84
-10 -60 -27 -93 -81 -158 -54 -63 -70 -100 -80 -183 -7 -53 -6 -56 151 -334
58 -103 104 -190 101 -192 -2 -2 -46 44 -98 103 -51 59 -119 137 -151 173 -47
55 -56 70 -51 91 4 14 8 64 10 112 3 96 8 110 98 253 48 76 56 96 56 136 0 38
-5 51 -22 63 -34 24 -77 21 -82 -6 -13 -60 -17 -97 -19 -144 -2 -59 -37 -113
-85 -133 -25 -10 -35 -10 -60 3 -17 9 -50 16 -72 16 -39 0 -41 -1 -39 -28 2
-15 -2 -36 -9 -47 -10 -18 -11 -16 -6 11 4 22 2 33 -9 37 -21 8 -32 64 -17 82
7 9 10 27 7 44 -6 27 -4 29 63 48 94 28 101 19 75 -88 -6 -23 -3 -27 19 -33
31 -8 81 15 96 44 15 27 6 51 -36 101 -19 22 -31 46 -27 52 4 7 24 35 44 62
41 54 74 151 62 181 -4 10 -13 24 -21 30 -12 9 -12 15 2 42 23 44 57 64 103
60 35 -3 38 -1 41 23 4 32 -46 79 -83 79 -30 0 -82 -44 -99 -84 -12 -28 -14
-29 -21 -11 -19 56 -28 67 -61 81 -61 25 -114 -8 -114 -70 0 -25 2 -26 39 -20
46 7 76 -6 96 -45 13 -26 13 -30 -5 -46 -11 -10 -20 -30 -20 -45 0 -38 -57
-117 -116 -162 l-49 -38 -3 36 c-4 45 9 60 59 68 41 6 41 7 24 26 -19 21 -89
28 -100 10 -11 -18 -25 -10 -25 15 0 16 6 25 15 25 11 0 15 12 15 45 0 25 3
45 7 45 4 0 17 -12 28 -27 30 -36 71 -27 83 20 12 41 7 48 -24 37 -38 -15 -41
-13 -54 25 -17 51 -5 86 36 113 l36 23 -7 62 c-23 203 -43 195 -77 -32 -6 -42
-14 -68 -18 -60 -4 8 -10 91 -14 184 -4 94 -13 220 -21 280 -8 61 -16 182 -17
270 l-2 160 -4 -130 -4 -130 -18 55 -18 55 -12 -44 c-6 -24 -16 -62 -20 -85
-7 -29 -8 5 -6 111 1 84 0 157 -4 164 -5 6 -10 -94 -13 -222z m58 -184 c0
-100 -3 -178 -6 -173 -19 30 -22 -516 -4 -567 7 -19 7 -19 -8 1 -18 24 -21 67
-13 179 5 66 4 76 -5 55 l-12 -25 -5 25 c-4 23 -5 24 -13 5 -6 -15 -8 -10 -8
20 0 22 4 47 9 55 8 12 10 9 10 -12 0 -16 3 -28 8 -28 4 0 5 98 4 217 -3 172
0 242 14 331 9 61 20 109 23 106 3 -3 6 -88 6 -189z m-60 -403 c-12 -13 -14 9
-7 93 l7 90 3 -89 c2 -49 0 -91 -3 -94z m5 -242 c0 -33 -4 -60 -10 -60 -11 0
-14 103 -3 113 12 12 13 8 13 -53z m-257 -125 c28 -68 128 -162 196 -186 31
-11 43 -39 18 -39 -32 0 -139 64 -173 103 -44 52 -74 108 -74 142 0 38 13 30
33 -20z m657 26 c0 -37 -38 -107 -84 -154 -42 -44 -132 -97 -163 -97 -28 0
-11 29 23 40 51 17 168 131 191 185 19 47 33 58 33 26z m-373 -53 c-3 -7 -5
-2 -5 12 0 14 2 19 5 13 2 -7 2 -19 0 -25z m60 0 c-3 -7 -5 -2 -5 12 0 14 2
19 5 13 2 -7 2 -19 0 -25z m-50 -40 c-3 -8 -6 -5 -6 6 -1 11 2 17 5 13 3 -3 4
-12 1 -19z m40 -10 c-3 -7 -5 -2 -5 12 0 14 2 19 5 13 2 -7 2 -19 0 -25z m-20
-15 c-3 -10 -5 -4 -5 12 0 17 2 24 5 18 2 -7 2 -21 0 -30z m-70 -80 c-3 -10
-5 -2 -5 17 0 19 2 27 5 18 2 -10 2 -26 0 -35z m0 -90 c-3 -10 -5 -2 -5 17 0
19 2 27 5 18 2 -10 2 -26 0 -35z m-30 -155 c-3 -7 -5 -2 -5 12 0 14 2 19 5 13
2 -7 2 -19 0 -25z m32 -105 c-1 -17 -3 -21 -6 -10 -2 9 -9 17 -14 17 -5 0 -9
5 -9 10 0 6 7 10 15 10 10 0 15 -9 14 -27z m151 18 c0 -6 -4 -13 -10 -16 -5
-3 -10 1 -10 9 0 9 5 16 10 16 6 0 10 -4 10 -9z m-133 -93 c-2 -13 -4 -3 -4
22 0 25 2 35 4 23 2 -13 2 -33 0 -45z m33 -54 c0 -8 -4 -12 -10 -9 -5 3 -10
10 -10 16 0 5 5 9 10 9 6 0 10 -7 10 -16z m17 -6 c-3 -8 -6 -5 -6 6 -1 11 2
17 5 13 3 -3 4 -12 1 -19z m-13 -239 c1 -112 6 -222 9 -244 4 -22 3 -62 -1
-90 -8 -50 -8 -50 -36 90 -33 159 -38 218 -30 327 4 56 11 83 27 102 11 14 22
24 24 22 2 -2 5 -95 7 -207z m-73 66 l-4 -70 -13 50 c-11 43 -11 53 2 73 9 13
17 22 18 20 1 -1 0 -34 -3 -73z"/>
<path d="M1182 800 c0 -14 2 -19 5 -12 2 6 2 18 0 25 -3 6 -5 1 -5 -13z"/>
<path d="M1172 720 c0 -14 2 -19 5 -12 2 6 2 18 0 25 -3 6 -5 1 -5 -13z"/>
<path d="M1351 1194 c0 -11 3 -14 6 -6 3 7 2 16 -1 19 -3 4 -6 -2 -5 -13z"/>
<path d="M1322 475 c0 -16 2 -22 5 -12 2 9 2 23 0 30 -3 6 -5 -1 -5 -18z"/>
</g>
</svg>
