<?xml version="1.0" standalone="no"?>
<!DOCTYPE svg PUBLIC "-//W3C//DTD SVG 20010904//EN"
 "http://www.w3.org/TR/2001/REC-SVG-20010904/DTD/svg10.dtd">
<svg version="1.0" xmlns="http://www.w3.org/2000/svg"
 width="244.000000pt" height="305.000000pt" viewBox="0 0 244.000000 305.000000"
 preserveAspectRatio="xMidYMid meet">
<metadata>
Created by potrace 1.16, written by Peter Selinger 2001-2019
</metadata>
<g transform="translate(0.000000,305.000000) scale(0.100000,-0.100000)"
fill="#000000" stroke="none">
<path d="M927 2900 c-11 -28 -47 -237 -62 -361 -18 -154 -32 -619 -18 -619 5
0 28 -16 51 -35 39 -34 41 -34 54 -17 21 31 57 46 74 31 22 -18 17 -26 -20
-33 -29 -6 -37 -14 -53 -54 l-20 -47 -15 35 c-18 42 -36 58 -74 66 -40 8 -84
-27 -84 -67 0 -27 3 -29 39 -29 32 0 44 -6 70 -35 35 -40 38 -57 16 -75 -13
-11 -15 -30 -10 -109 3 -53 11 -126 16 -163 11 -71 4 -148 -13 -148 -6 0 -7 8
-3 17 3 10 3 57 -1 105 l-7 88 -33 0 c-42 0 -74 -30 -74 -69 0 -16 9 -50 20
-76 22 -52 24 -65 11 -65 -16 0 -50 55 -63 103 -11 42 -10 49 15 97 15 29 27
58 27 66 0 21 -37 35 -83 32 -35 -2 -44 -8 -55 -31 -12 -25 -11 -37 8 -100 30
-99 25 -170 -16 -202 -25 -20 -27 -25 -17 -48 9 -20 9 -28 0 -35 -13 -11 -318
-132 -332 -132 -5 0 34 29 86 64 152 104 269 187 274 197 3 5 -1 32 -10 61 -8
28 -15 70 -16 92 0 23 -5 50 -10 61 -6 13 -8 -12 -6 -78 l3 -97 -31 5 c-28 6
-41 -5 -205 -169 -96 -96 -172 -178 -169 -180 5 -5 111 30 314 106 114 43 127
52 139 90 4 14 10 15 40 6 20 -6 36 -15 36 -19 0 -10 -42 -102 -50 -109 -9 -8
-40 -59 -40 -64 0 -3 37 17 82 44 45 27 85 47 90 44 4 -3 8 -16 8 -29 0 -19
-9 -28 -34 -39 -29 -12 -36 -22 -49 -68 -9 -29 -44 -152 -78 -273 -34 -121
-64 -226 -66 -233 -11 -27 14 -9 47 35 19 26 40 51 45 57 6 6 33 40 60 74 104
132 171 208 182 205 12 -4 22 29 31 107 7 53 8 55 40 58 31 3 33 2 26 -20 -4
-13 -20 -63 -35 -113 -108 -352 -113 -364 -73 -156 14 73 18 118 10 110 -6 -6
-56 -301 -55 -325 0 -21 22 21 131 251 64 134 72 156 70 202 -2 33 1 53 8 53
28 0 100 -54 100 -75 0 -6 -13 -25 -29 -42 l-28 -31 24 -134 c13 -73 37 -203
53 -288 16 -85 32 -172 36 -193 3 -21 8 -37 9 -35 3 3 69 351 108 572 l14 78
-28 33 c-16 18 -29 37 -29 42 0 17 54 60 84 67 l29 7 -5 -53 c-5 -51 -1 -61
86 -243 50 -104 99 -206 108 -225 24 -50 22 -24 -12 176 -17 97 -29 178 -27
180 2 2 37 -38 78 -88 40 -51 90 -110 110 -133 20 -22 40 -47 45 -56 14 -25
75 -92 79 -87 2 2 -3 26 -11 53 -8 28 -26 88 -38 135 -61 221 -96 341 -105
358 -6 11 -22 23 -36 26 -18 5 -25 13 -25 31 0 13 3 26 8 29 4 2 43 -18 87
-45 93 -57 116 -62 89 -22 -10 16 -36 57 -57 92 -38 62 -39 65 -21 78 28 21
58 12 62 -17 3 -22 17 -30 120 -68 64 -24 154 -57 199 -74 45 -16 86 -29 92
-27 7 3 -61 80 -150 172 -147 153 -165 168 -192 165 l-31 -3 1 95 c2 72 0 87
-7 60 -5 -19 -10 -69 -11 -110 l-2 -75 40 3 c38 3 42 0 166 -128 70 -71 122
-130 117 -130 -20 0 -325 201 -347 229 -24 31 -24 76 -3 160 31 116 10 153
-76 137 -49 -10 -56 -31 -28 -82 13 -24 24 -59 24 -80 0 -36 -36 -124 -51
-124 -14 0 -16 27 -3 51 18 33 17 100 -2 127 -8 12 -26 22 -39 22 -14 0 -25 7
-27 18 -2 9 -10 -30 -17 -88 -17 -147 -20 -159 -15 -55 13 254 12 326 -2 332
-23 9 -16 40 18 78 26 31 36 36 67 33 30 -2 36 0 39 18 4 31 -34 74 -68 74
-45 0 -59 -10 -82 -54 l-21 -41 -13 39 c-20 56 -33 69 -66 62 -31 -6 -39 13
-13 34 15 12 20 10 81 -35 9 -6 20 -3 36 12 13 11 33 26 46 32 21 11 22 16 20
134 l-2 122 -3 -107 c-3 -93 -6 -109 -23 -118 -10 -5 -26 -17 -34 -26 -9 -8
-21 -12 -26 -9 -13 8 -12 915 1 931 4 5 5 23 0 40 -7 26 -9 21 -24 -46 -16
-75 -30 -161 -45 -275 l-9 -60 -7 65 c-4 36 -13 117 -20 180 -13 110 -13 97
-16 -315 -1 -236 -2 -436 -1 -443 1 -6 -2 -19 -7 -28 -6 -11 -11 4 -16 51 -4
38 -12 77 -19 89 -11 20 -11 20 -18 -9 -4 -16 -7 -49 -8 -72 -2 -63 -18 -60
-24 5 -2 31 -9 89 -15 127 -6 39 -16 117 -22 175 -10 91 -19 147 -45 259 -4
13 -8 21 -11 18 -12 -11 -45 -187 -55 -291 -6 -61 -15 -136 -21 -166 -5 -30
-13 -84 -16 -120 -12 -114 -23 -40 -33 220 -10 259 -34 586 -47 619 -4 11 -6
-200 -4 -470 2 -335 0 -489 -8 -489 -5 0 -11 1 -11 3 -1 1 -8 130 -14 287 -12
264 -23 378 -56 568 -16 96 -23 85 -9 -15 34 -231 39 -302 40 -541 l0 -253
-27 -24 c-16 -13 -31 -25 -35 -25 -5 0 -8 219 -7 488 0 281 4 479 9 467 11
-25 11 0 0 35 -5 18 -9 21 -13 10z m361 -740 c5 -85 7 -191 2 -235 l-7 -80 -1
116 c-1 64 -5 172 -8 240 -4 68 -4 122 -1 119 3 -3 10 -75 15 -160z m-198
-300 c0 -5 -4 -10 -10 -10 -5 0 -10 5 -10 10 0 6 5 10 10 10 6 0 10 -4 10 -10z
m310 0 c0 -5 -4 -10 -10 -10 -5 0 -10 5 -10 10 0 6 5 10 10 10 6 0 10 -4 10
-10z m-20 -126 c0 -18 -14 -18 -30 1 -16 19 -3 40 16 24 8 -6 14 -18 14 -25z
m-351 -21 c7 -23 7 -42 1 -54 -6 -10 -10 -32 -10 -49 0 -18 -4 -29 -10 -25 -5
3 -10 21 -10 39 0 19 -7 39 -15 46 -19 16 -19 40 1 68 19 28 30 21 43 -25z
m91 27 c-12 -23 -30 -27 -30 -7 0 17 10 27 27 27 11 0 11 -5 3 -20z m374 -22
c8 -21 6 -32 -7 -46 -9 -10 -17 -29 -17 -43 0 -13 -5 -31 -10 -39 -7 -11 -10
-4 -10 27 0 23 -5 45 -11 48 -9 6 -4 57 8 78 10 16 38 1 47 -25z m-195 -70 c1
-10 -3 -18 -9 -18 -5 0 -10 17 -9 38 0 30 2 33 9 17 5 -11 9 -28 9 -37z m-139
-23 c0 -7 9 -15 20 -18 13 -3 27 -22 38 -48 l16 -42 18 42 c11 26 27 45 43 51
14 5 25 15 25 22 0 23 16 39 32 33 20 -8 27 -35 17 -63 -7 -18 -16 -22 -47
-22 -46 0 -55 -9 -73 -69 l-13 -43 -18 53 c-9 30 -18 55 -18 57 0 1 -15 2 -34
2 -54 0 -66 8 -66 45 0 18 6 35 13 38 14 5 47 -21 47 -38z m-201 -50 c11 -24
42 -73 70 -107 52 -64 59 -78 40 -78 -32 0 -139 157 -139 205 0 36 6 31 29
-20z m451 -23 c-6 -26 -20 -58 -30 -72 -26 -34 -26 -5 0 38 11 18 20 45 20 61
0 15 3 31 7 35 14 13 15 -14 3 -62z m106 -26 c-28 -55 -96 -136 -115 -136 -16
0 2 33 50 90 21 25 48 68 60 95 20 43 23 47 27 26 2 -13 -8 -47 -22 -75z
m-446 52 c0 -25 -3 -29 -10 -18 -13 20 -13 50 0 50 6 0 10 -15 10 -32z m26
-73 c18 -43 18 -51 0 -36 -8 7 -19 25 -25 42 -15 42 6 37 25 -6z m64 -23 c0
-13 -3 -12 -15 4 -19 25 -19 40 0 24 8 -7 15 -20 15 -28z m180 31 c-1 -10 -39
-60 -40 -51 0 14 23 58 32 58 4 0 8 -3 8 -7z m-380 -122 c0 -17 -4 -33 -10
-36 -6 -4 -10 8 -10 29 0 20 5 36 10 36 6 0 10 -13 10 -29z m580 -5 c0 -19 -4
-38 -10 -41 -6 -4 -10 10 -10 34 0 23 5 41 10 41 6 0 10 -15 10 -34z m-364
-24 c-10 -10 -29 15 -21 28 6 9 10 8 17 -4 6 -10 7 -20 4 -24z m136 13 c0 -5
-5 -11 -11 -13 -6 -2 -11 4 -11 13 0 9 5 15 11 13 6 -2 11 -8 11 -13z m-268
-80 c-9 -48 12 -97 40 -93 18 3 20 9 17 51 -2 41 0 47 17 47 16 0 19 -7 18
-37 -1 -32 3 -39 21 -41 23 -3 39 -34 28 -53 -4 -6 -14 -7 -24 -4 -9 4 -36 8
-61 9 -42 1 -46 4 -63 39 -19 38 -16 117 4 117 6 0 7 -15 3 -35z m403 0 c6
-41 -16 -113 -36 -119 -9 -3 -41 -6 -71 -8 -53 -3 -55 -2 -55 22 0 17 6 26 20
29 36 6 45 39 19 66 -16 15 -14 16 17 13 36 -3 38 -10 23 -76 -7 -34 24 -41
49 -11 15 19 18 34 13 72 -4 34 -2 47 6 45 6 -2 13 -17 15 -33z m-617 -86 c7
-11 9 -23 6 -26 -8 -9 -36 17 -36 33 0 21 18 17 30 -7z m810 -24 c0 -2 -5 -16
-12 -30 -16 -35 -29 -31 -17 5 6 17 15 30 20 30 5 0 9 -2 9 -5z m-880 -89 c0
-6 -16 -27 -35 -46 -42 -40 -44 -33 -9 27 23 40 44 49 44 19z m850 -47 c0 -51
18 -79 64 -98 38 -17 44 -24 51 -58 3 -21 29 -114 56 -207 28 -93 49 -172 47
-177 -2 -4 -25 36 -53 89 -27 53 -84 163 -127 244 -64 120 -78 155 -78 192 0
24 3 52 7 62 6 16 7 16 20 -2 7 -10 13 -30 13 -45z m-715 30 c4 -11 8 -60 10
-107 2 -48 6 -94 10 -103 6 -17 -17 -52 -135 -205 -41 -53 -88 -114 -104 -136
-15 -22 -30 -38 -32 -36 -2 3 49 110 113 239 l117 234 -2 68 c-3 65 10 89 23
46z m868 -31 c25 -29 44 -54 42 -56 -4 -4 -112 66 -120 78 -8 13 3 30 20 30 7
0 34 -24 58 -52z m-517 -93 c17 23 19 2 3 -27 -11 -21 -12 -21 -25 -3 -8 10
-14 26 -14 34 1 13 3 12 12 -3 11 -19 11 -19 24 -1z m218 -32 c8 -30 77 -263
102 -347 13 -44 22 -81 20 -83 -3 -3 -39 74 -122 259 -38 84 -43 103 -37 143
6 46 27 61 37 28z m-153 -273 c-14 -76 -27 -137 -29 -135 -3 2 1 58 8 123 12
115 11 154 -4 197 -5 13 3 8 21 -13 l29 -34 -25 -138z m-34 -172 c-3 -8 -6 -5
-6 6 -1 11 2 17 5 13 3 -3 4 -12 1 -19z"/>
<path d="M1412 2885 c0 -16 2 -22 5 -12 2 9 2 23 0 30 -3 6 -5 -1 -5 -18z"/>
<path d="M1041 2794 c0 -11 3 -14 6 -6 3 7 2 16 -1 19 -3 4 -6 -2 -5 -13z"/>
<path d="M1393 2745 c0 -22 2 -30 4 -17 2 12 2 30 0 40 -3 9 -5 -1 -4 -23z"/>
<path d="M1560 2766 c0 -5 9 -76 20 -160 11 -83 24 -209 29 -281 l10 -130 -5
148 c-3 126 -37 413 -50 426 -2 2 -4 1 -4 -3z"/>
<path d="M1033 2685 c0 -27 2 -38 4 -22 2 15 2 37 0 50 -2 12 -4 0 -4 -28z"/>
<path d="M1382 2650 c0 -19 2 -27 5 -17 2 9 2 25 0 35 -3 9 -5 1 -5 -18z"/>
<path d="M1023 2575 c0 -22 2 -30 4 -17 2 12 2 30 0 40 -3 9 -5 -1 -4 -23z"/>
<path d="M1373 2500 c0 -30 2 -43 4 -27 2 15 2 39 0 55 -2 15 -4 2 -4 -28z"/>
<path d="M1364 2230 c0 -52 1 -74 3 -47 2 26 2 68 0 95 -2 26 -3 4 -3 -48z"/>
</g>
</svg>
