<?xml version="1.0" standalone="no"?>
<!DOCTYPE svg PUBLIC "-//W3C//DTD SVG 20010904//EN"
 "http://www.w3.org/TR/2001/REC-SVG-20010904/DTD/svg10.dtd">
<svg version="1.0" xmlns="http://www.w3.org/2000/svg"
 width="244.000000pt" height="305.000000pt" viewBox="0 0 244.000000 305.000000"
 preserveAspectRatio="xMidYMid meet">
<metadata>
Created by potrace 1.16, written by Peter Selinger 2001-2019
</metadata>
<g transform="translate(0.000000,305.000000) scale(0.100000,-0.100000)"
fill="#000000" stroke="none">
<path d="M1540 2900 c0 -8 -3 -26 -5 -40 -5 -22 -4 -22 4 -5 6 13 10 -152 10
-467 1 -269 -3 -488 -7 -488 -5 0 -17 9 -27 20 -10 11 -24 20 -31 20 -23 0
-27 46 -20 214 10 222 23 378 47 530 20 130 20 190 0 74 -37 -219 -60 -493
-61 -741 0 -84 2 -98 18 -104 9 -3 30 -18 45 -32 23 -21 30 -23 45 -13 9 7 32
22 50 33 17 12 35 32 38 44 9 35 -14 483 -32 615 -20 154 -54 333 -65 345 -6
5 -9 3 -9 -5z"/>
<path d="M915 2891 c-3 -6 -4 -15 0 -20 6 -11 7 -962 1 -969 -3 -2 -21 9 -42
24 l-37 29 7 223 c7 216 23 410 47 539 6 34 9 67 7 74 -7 20 -48 -258 -57
-391 -6 -69 -12 -205 -15 -303 -6 -177 -5 -178 17 -186 12 -5 35 -21 51 -36
l29 -26 31 29 c17 16 40 32 50 36 18 6 19 16 12 223 -8 259 -28 464 -62 633
-14 68 -27 126 -28 128 -2 2 -7 -1 -11 -7z"/>
<path d="M1341 2864 c0 -11 3 -14 6 -6 3 7 2 16 -1 19 -3 4 -6 -2 -5 -13z"/>
<path d="M1121 2865 c-1 -5 -2 -194 -2 -420 0 -371 -1 -406 -14 -370 -8 22
-15 56 -16 75 -1 19 -8 -12 -15 -70 -8 -58 -13 -131 -11 -162 l3 -58 -41 0
c-46 0 -75 -23 -92 -75 l-10 -30 -18 43 c-20 49 -39 62 -89 62 -40 0 -79 -39
-74 -74 3 -18 9 -20 41 -18 32 3 43 -2 72 -31 38 -38 43 -58 20 -77 -18 -15
-20 -73 -3 -121 6 -19 28 -59 50 -89 21 -31 38 -60 38 -65 0 -6 -13 -26 -30
-45 -41 -48 -48 -85 -20 -115 16 -17 19 -28 13 -39 -8 -14 -13 -11 -33 16 -19
26 -24 47 -27 108 -3 95 -13 131 -40 141 -37 14 -73 -24 -73 -75 0 -43 7 -59
89 -209 47 -85 47 -96 6 -191 -15 -36 -15 -38 0 -32 11 4 -3 -30 -40 -102
-124 -233 -180 -332 -183 -323 -2 5 18 80 43 168 76 261 70 248 114 262 55 16
64 32 65 111 0 67 -1 71 -49 139 -66 94 -78 118 -83 171 -3 36 1 52 22 83 31
46 32 49 6 72 -25 23 -86 22 -111 -1 -23 -21 -24 -66 -4 -124 20 -57 19 -119
-3 -155 -13 -20 -76 -65 -186 -133 -93 -57 -170 -102 -172 -100 -5 6 6 18 137
146 120 116 128 122 153 112 47 -18 48 -16 41 83 -10 125 -28 151 -21 30 l5
-92 -33 2 c-31 2 -48 -12 -206 -166 -94 -93 -170 -170 -168 -172 2 -3 69 18
149 46 79 27 179 62 222 77 72 25 77 28 77 55 0 27 2 29 28 22 79 -19 137 -72
144 -129 3 -28 -1 -32 -52 -56 -13 -6 -149 -444 -167 -540 l-6 -35 29 35 c15
19 44 53 64 75 19 22 54 63 77 90 22 28 78 94 123 148 l82 97 -12 46 c-7 24
-11 46 -9 48 2 3 29 6 59 7 l55 3 6 -39 c6 -37 6 -38 8 -8 1 35 17 51 33 35 7
-7 -2 -74 -28 -208 -28 -143 -41 -190 -46 -173 -5 16 -6 11 -4 -18 2 -24 0
-46 -5 -49 -5 -3 -9 -24 -9 -47 1 -47 -2 -56 80 216 19 59 36 107 39 107 4 0
14 -44 24 -97 35 -194 101 -525 104 -516 4 14 75 382 97 507 21 113 22 117 35
90 7 -16 24 -67 37 -113 14 -46 34 -109 45 -140 l20 -56 -5 70 c-6 87 -34 347
-42 397 l-6 38 67 0 68 0 -8 -32 c-4 -18 -9 -42 -11 -53 -3 -14 20 -48 72
-110 41 -49 125 -150 187 -222 61 -73 112 -131 114 -129 4 4 -20 89 -149 525
-7 24 -21 48 -31 53 -9 4 -25 12 -34 17 -47 23 22 127 101 154 50 17 66 13 66
-19 0 -13 1 -24 3 -24 1 0 47 -16 102 -36 230 -83 349 -124 352 -121 2 2 -78
84 -178 181 -167 165 -183 178 -210 172 l-29 -5 -1 92 c-1 86 -2 89 -10 42 -5
-27 -14 -69 -19 -93 -21 -89 -27 -81 175 -213 102 -67 184 -124 182 -126 -5
-4 -224 77 -305 113 -47 21 -52 26 -43 43 16 29 13 49 -8 56 -22 7 -41 53 -41
99 0 17 9 63 20 101 11 38 20 76 20 82 0 45 -91 70 -138 37 l-22 -15 25 -49
c43 -86 31 -141 -59 -267 -29 -40 -49 -82 -57 -117 -13 -59 -29 -66 -29 -13 0
20 16 60 41 102 22 39 52 91 65 117 30 58 32 127 6 151 -19 18 -50 22 -67 9
-16 -10 -37 -134 -30 -165 6 -21 1 -37 -19 -67 -14 -22 -31 -40 -36 -40 -17 0
-11 30 10 57 27 34 26 43 -15 102 -19 28 -35 53 -35 56 0 4 11 21 24 38 64 84
96 208 61 237 -22 18 -19 35 16 75 27 30 37 35 75 35 38 0 44 3 44 20 0 91
-130 103 -161 15 -15 -41 -26 -44 -35 -10 -3 14 -19 36 -36 50 -25 21 -36 24
-76 19 -42 -5 -45 -4 -29 9 21 18 23 80 3 180 -9 44 -17 180 -21 347 -12 468
-22 468 -24 0 -1 -239 -6 -444 -10 -454 -13 -34 -20 -3 -22 103 -1 57 -5 115
-10 130 -4 14 -12 71 -17 126 -13 133 -53 305 -64 276 -17 -46 -49 -231 -55
-316 -12 -174 -20 -126 -28 166 -6 258 -18 464 -24 434z m108 -841 l1 -401
-22 3 c-13 1 -26 3 -30 3 -14 2 -8 22 13 44 23 25 23 71 0 366 -11 132 -10
172 3 277 9 68 16 129 17 136 0 7 4 4 9 -7 5 -11 9 -200 9 -421z m-82 -146
c-3 -7 -5 -2 -5 12 0 14 2 19 5 13 2 -7 2 -19 0 -25z m180 -10 c-3 -7 -5 -2
-5 12 0 14 2 19 5 13 2 -7 2 -19 0 -25z m-137 -53 c3 -66 0 -99 -7 -91 -4 4
-8 41 -8 82 -1 75 12 83 15 9z m-70 -4 c0 -32 -6 -24 -14 19 -4 25 -3 31 4 20
5 -8 10 -26 10 -39z m243 19 c-3 -11 -7 -20 -9 -20 -2 0 -4 9 -4 20 0 11 4 20
9 20 5 0 7 -9 4 -20z m-271 -83 c12 -19 9 -30 -7 -23 -8 3 -22 9 -30 12 -10 4
-15 0 -15 -10 0 -25 27 -73 45 -79 22 -9 18 -57 -7 -84 -21 -23 -21 -23 -1
-23 16 0 22 -8 28 -36 9 -48 2 -51 -29 -12 -14 18 -35 42 -45 53 -26 28 -41
60 -41 86 0 12 -8 31 -17 41 -22 24 -8 67 27 86 28 14 80 8 92 -11z m393 -2
c28 -27 33 -63 10 -71 -9 -4 -15 -19 -15 -36 0 -37 -24 -84 -50 -98 -11 -6
-20 -16 -20 -22 0 -14 -40 -58 -52 -58 -14 0 3 54 23 72 23 20 24 34 4 42 -21
7 -21 76 0 76 15 0 45 49 45 75 0 18 -21 20 -38 3 -15 -15 -24 -6 -16 15 5 15
25 22 67 26 10 0 29 -10 42 -24z m-338 -77 c-3 -7 -5 -2 -5 12 0 14 2 19 5 13
2 -7 2 -19 0 -25z m180 0 c-3 -7 -5 -2 -5 12 0 14 2 19 5 13 2 -7 2 -19 0 -25z
m-371 -108 c15 -33 31 -60 35 -60 5 0 9 -12 9 -27 l-1 -28 -30 35 c-38 44 -68
140 -44 140 2 0 16 -27 31 -60z m241 33 c4 -12 -25 -26 -38 -17 -5 3 -9 14 -9
24 0 16 4 18 22 11 12 -4 24 -13 25 -18z m116 -14 c-11 -11 -54 0 -47 13 3 5
16 13 28 17 15 6 22 4 24 -6 2 -8 0 -19 -5 -24z m34 9 c-3 -7 -5 -2 -5 12 0
14 2 19 5 13 2 -7 2 -19 0 -25z m183 -61 c-12 -24 -32 -55 -46 -67 l-24 -23 0
22 c0 12 11 37 25 55 13 18 32 50 42 72 17 37 17 38 21 13 2 -15 -6 -47 -18
-72z m-281 -1 c-1 -6 -5 -22 -9 -36 -7 -23 -8 -23 -9 -3 -1 12 -3 28 -6 36 -4
8 0 14 10 14 8 0 15 -5 14 -11z m-89 -72 c12 -36 20 -68 17 -70 -6 -6 -47 100
-47 121 0 29 9 14 30 -51z m175 35 c-9 -41 -35 -102 -41 -97 -5 5 36 128 43
128 2 0 1 -14 -2 -31z m-275 -74 c0 -8 -4 -15 -10 -15 -5 0 -10 7 -10 15 0 8
5 15 10 15 6 0 10 -7 10 -15z m357 -7 c-3 -8 -6 -5 -6 6 -1 11 2 17 5 13 3 -3
4 -12 1 -19z m-290 -23 c3 -9 3 -19 -1 -22 -7 -7 -36 16 -36 28 0 15 30 10 37
-6z m235 -17 c-6 -6 -16 -7 -23 -3 -9 6 -7 12 7 22 21 15 34 -1 16 -19z m-350
-79 l-10 -34 -1 45 c-1 31 2 41 10 33 7 -7 7 -21 1 -44z m445 -31 c-2 -18 -4
-6 -4 27 0 33 2 48 4 33 2 -15 2 -42 0 -60z m-388 1 c15 -73 8 -90 -8 -22 -7
26 -14 56 -17 66 -3 9 -1 17 4 17 5 0 15 -27 21 -61z m109 49 c-6 -18 -28 -21
-28 -4 0 9 7 16 16 16 9 0 14 -5 12 -12z m133 -1 c-1 -12 -15 -9 -19 4 -3 6 1
10 8 8 6 -3 11 -8 11 -12z m94 -73 c-18 -62 -32 -68 -17 -8 6 22 13 53 18 69
5 21 8 25 11 13 3 -10 -3 -43 -12 -74z m-282 -31 c11 -18 27 -16 27 3 0 24 35
12 38 -14 3 -17 -2 -22 -17 -22 -12 0 -21 -4 -21 -10 0 -5 -6 -10 -14 -10 -19
0 -36 54 -35 109 l2 46 6 -45 c4 -25 10 -51 14 -57z m243 22 c-4 -23 -13 -50
-20 -60 -12 -17 -14 -17 -39 0 -15 9 -27 23 -27 31 0 22 22 28 36 10 11 -16
13 -15 28 6 9 12 17 38 17 58 1 19 3 27 6 16 3 -10 2 -37 -1 -61z m-386 -45
c0 -4 -7 -13 -15 -20 -22 -18 -44 2 -26 24 12 14 41 12 41 -4z m530 -32 c0 -5
-8 -8 -17 -6 -12 2 -19 14 -21 33 l-4 30 21 -24 c12 -13 21 -28 21 -33z m-639
-151 c-10 -9 -11 -8 -5 6 3 10 9 15 12 12 3 -3 0 -11 -7 -18z m762 -80 c19
-34 65 -120 102 -192 37 -71 81 -153 96 -181 32 -57 37 -80 11 -48 -100 122
-264 329 -271 343 -7 12 -7 30 -1 52 6 19 10 49 10 67 0 44 11 35 53 -41z
m-383 27 c0 -14 -14 -33 -21 -28 -15 9 -10 31 6 31 8 0 15 -1 15 -3z m164
-203 c20 -104 36 -195 36 -202 -1 -17 -87 277 -90 306 -1 11 -2 35 -1 53 2 73
20 22 55 -157z m-258 144 c16 -24 16 -27 -1 -45 -26 -28 -30 -25 -33 25 -3 50
9 57 34 20z m187 -64 c-5 -7 -43 31 -43 42 0 6 8 19 18 30 17 19 17 18 22 -24
3 -24 4 -46 3 -48z m-121 -443 c-5 -5 -25 74 -45 174 -52 260 -51 235 -5 282
l40 41 -6 -30 c-5 -22 -4 -26 4 -15 5 8 11 24 12 35 2 11 4 -92 5 -229 2 -137
0 -253 -5 -258z"/>
<path d="M1213 2275 c0 -38 2 -53 4 -32 2 20 2 52 0 70 -2 17 -4 1 -4 -38z"/>
<path d="M1193 750 c0 -36 2 -50 4 -32 2 17 2 47 0 65 -2 17 -4 3 -4 -33z"/>
<path d="M1203 605 c0 -33 2 -45 4 -27 2 18 2 45 0 60 -2 15 -4 0 -4 -33z"/>
<path d="M1213 470 c0 -36 2 -50 4 -32 2 17 2 47 0 65 -2 17 -4 3 -4 -33z"/>
<path d="M1103 2700 c0 -25 2 -35 4 -22 2 12 2 32 0 45 -2 12 -4 2 -4 -23z"/>
<path d="M1332 2720 c0 -14 2 -19 5 -12 2 6 2 18 0 25 -3 6 -5 1 -5 -13z"/>
<path d="M1323 2530 c0 -30 2 -43 4 -27 2 15 2 39 0 55 -2 15 -4 2 -4 -28z"/>
<path d="M1093 2505 c0 -27 2 -38 4 -22 2 15 2 37 0 50 -2 12 -4 0 -4 -28z"/>
<path d="M1033 815 c0 -27 2 -38 4 -22 2 15 2 37 0 50 -2 12 -4 0 -4 -28z"/>
<path d="M1023 720 c0 -25 2 -35 4 -22 2 12 2 32 0 45 -2 12 -4 2 -4 -23z"/>
<path d="M1013 625 c0 -22 2 -30 4 -17 2 12 2 30 0 40 -3 9 -5 -1 -4 -23z"/>
</g>
</svg>
