<?xml version="1.0" standalone="no"?>
<!DOCTYPE svg PUBLIC "-//W3C//DTD SVG 20010904//EN"
 "http://www.w3.org/TR/2001/REC-SVG-20010904/DTD/svg10.dtd">
<svg version="1.0" xmlns="http://www.w3.org/2000/svg"
 width="244.000000pt" height="305.000000pt" viewBox="0 0 244.000000 305.000000"
 preserveAspectRatio="xMidYMid meet">
<metadata>
Created by potrace 1.16, written by Peter Selinger 2001-2019
</metadata>
<g transform="translate(0.000000,305.000000) scale(0.100000,-0.100000)"
fill="#000000" stroke="none">
<path d="M1079 2863 c-2 -35 -1 -78 3 -95 18 -84 2 -807 -18 -827 -6 -7 -33
33 -28 41 6 10 -23 491 -36 590 -5 42 -14 104 -20 137 -5 34 -15 89 -21 123
-14 87 -23 93 -33 23 -4 -30 -3 -34 3 -15 6 15 9 -167 10 -457 1 -266 -2 -483
-5 -483 -3 0 -21 12 -40 26 l-34 26 0 122 c1 156 20 429 41 561 9 62 12 122 5
114 -23 -25 -75 -761 -57 -810 3 -9 26 -33 50 -53 l43 -36 28 29 c34 35 72 50
79 30 2 -7 15 -23 27 -36 32 -32 30 -49 -2 -24 -15 12 -35 21 -44 21 -28 0
-60 -32 -74 -75 l-14 -39 -15 35 c-20 50 -43 69 -82 69 -42 0 -75 -32 -75 -71
0 -26 2 -27 35 -22 29 5 39 1 65 -25 30 -30 40 -75 20 -87 -15 -9 -12 -76 4
-123 16 -44 24 -237 11 -237 -11 0 -25 48 -29 100 -4 45 -22 61 -58 52 -55
-14 -56 -101 -1 -194 31 -53 21 -77 -14 -31 -64 84 -78 160 -43 228 11 22 20
46 20 54 0 21 -32 36 -74 36 -27 0 -40 -6 -53 -26 -16 -26 -16 -30 4 -105 23
-88 19 -145 -13 -181 -17 -19 -212 -150 -309 -208 -39 -23 -39 -23 20 41 190
205 197 210 240 207 l40 -3 -4 70 c-1 39 -7 88 -11 110 -7 31 -8 19 -8 -55 l1
-95 -29 3 c-26 2 -47 -16 -189 -164 -88 -92 -162 -171 -164 -177 -2 -6 3 -7
15 -2 11 4 106 39 212 78 173 63 192 73 192 93 0 33 15 37 62 16 72 -32 74
-40 34 -124 -35 -74 -38 -90 -11 -68 8 7 15 10 15 7 0 -5 -112 -420 -139 -515
-5 -18 -6 -32 -1 -30 7 3 110 129 170 209 14 18 39 49 56 69 16 19 51 62 77
96 43 55 47 64 37 88 -16 43 -13 66 10 66 25 0 25 -20 6 -145 -18 -113 -30
-222 -23 -215 2 3 15 79 27 170 13 91 27 171 33 177 10 14 47 18 47 5 0 -4
-12 -53 -26 -107 -15 -55 -39 -149 -54 -210 -21 -84 -28 -102 -30 -75 -2 25
-6 11 -15 -45 -19 -116 -18 -118 20 -31 19 44 35 83 35 87 0 5 11 33 25 63 61
133 87 219 81 269 -4 41 -3 47 13 47 19 0 71 -46 71 -63 0 -6 -12 -26 -27 -45
-29 -39 -29 -44 12 -257 7 -38 25 -137 40 -220 15 -82 30 -163 34 -178 4 -20
24 66 64 290 32 175 58 324 57 331 0 6 -11 22 -25 34 -32 28 -32 49 1 82 40
39 55 34 53 -16 -1 -24 1 -54 5 -68 15 -48 159 -400 163 -396 2 2 -1 32 -6 67
-6 35 -20 136 -31 224 -11 88 -23 175 -26 193 -6 30 -4 32 21 32 26 0 27 -2
22 -33 -3 -17 -8 -39 -12 -48 -6 -16 9 -36 183 -253 48 -59 106 -133 130 -164
23 -30 42 -50 42 -42 0 7 -21 88 -46 179 -26 91 -51 184 -56 206 -5 22 -16 60
-24 84 -8 24 -16 62 -18 85 -2 23 -13 61 -26 86 l-23 44 32 26 c33 28 88 49
107 43 7 -2 10 -12 7 -22 -2 -9 2 -22 9 -28 16 -12 429 -166 434 -161 1 2 -76
84 -173 181 -161 162 -179 177 -204 172 l-27 -6 5 97 c5 72 3 95 -5 90 -7 -4
-12 -28 -12 -54 0 -26 -6 -72 -14 -102 -8 -29 -12 -60 -9 -67 3 -7 86 -70 184
-139 99 -69 179 -127 179 -129 0 -3 -21 4 -47 14 -72 28 -298 123 -301 126 -1
1 3 15 10 30 11 25 10 29 -16 50 -37 30 -45 95 -22 184 20 79 20 115 0 135
-29 30 -124 15 -124 -19 0 -8 9 -29 20 -47 14 -23 20 -51 20 -89 0 -48 -5 -64
-39 -116 -65 -101 -82 -96 -30 8 42 83 49 139 20 168 -28 28 -74 25 -79 -4
-13 -87 -25 -125 -38 -125 -23 0 -19 152 6 218 24 63 26 125 5 142 -20 16 -11
46 23 83 19 20 35 27 64 27 35 0 38 2 38 28 -1 87 -120 93 -151 7 -16 -43 -25
-44 -32 -6 -4 17 -19 38 -38 52 -27 19 -36 21 -60 12 -35 -13 -36 -7 -6 33
l22 31 30 -18 c16 -10 37 -28 46 -40 l16 -22 37 36 c20 21 41 37 46 37 13 0
13 305 0 485 -12 160 -73 545 -79 500 -1 -5 -1 -234 -1 -507 0 -274 -2 -498
-5 -498 -3 0 -22 12 -41 28 l-34 27 0 90 c1 160 19 436 40 584 22 156 23 167
15 159 -3 -2 -12 -52 -20 -109 -9 -57 -18 -119 -20 -137 -7 -49 -24 -372 -26
-497 -1 -62 -6 -2 -10 140 -10 315 -36 712 -46 701 -2 -2 -4 -176 -3 -388 0
-339 -2 -388 -16 -417 -9 -19 -21 -72 -27 -120 -12 -101 -25 -129 -19 -39 3
34 0 105 -7 158 -6 52 -15 145 -21 205 -5 61 -19 157 -32 215 l-22 105 -13
-45 c-30 -102 -53 -292 -72 -590 -6 -99 -7 -102 -13 -50 -4 30 -9 190 -12 355
-4 247 -26 597 -40 640 -2 6 -5 -18 -7 -52z m151 -825 l0 -433 -20 30 c-15 22
-20 25 -20 12 0 -10 -4 -15 -10 -12 -6 4 -4 21 6 45 12 30 14 58 9 127 -16
222 -4 666 16 548 5 -32 6 -24 8 38 0 42 3 77 6 77 3 0 5 -195 5 -432z m150
-200 c0 -19 -2 -20 -10 -8 -13 19 -13 30 0 30 6 0 10 -10 10 -22z m-203 -75
c-2 -16 -4 -3 -4 27 0 30 2 43 4 28 2 -16 2 -40 0 -55z m-132 -13 c9 -14 14
-220 6 -220 -12 0 -41 64 -46 99 -2 19 -11 39 -20 43 -21 12 -19 30 6 62 21
27 43 33 54 16z m77 -12 c-7 -7 -12 -8 -12 -2 0 14 12 26 19 19 2 -3 -1 -11
-7 -17z m357 -4 c24 -31 27 -50 7 -57 -7 -3 -16 -25 -20 -48 -4 -24 -17 -59
-29 -79 l-22 -35 -3 70 c-2 39 0 94 3 123 5 42 10 52 25 52 10 0 28 -12 39
-26z m-298 -127 c11 -3 26 -22 35 -43 l16 -39 19 37 c11 21 28 42 38 48 11 5
22 23 26 40 11 51 35 30 35 -30 0 -29 -15 -40 -56 -40 -13 0 -24 -1 -24 -2 -2
-19 -39 -108 -39 -96 -1 10 -8 35 -17 57 -14 35 -20 40 -52 43 -35 3 -37 5
-40 41 -2 22 3 45 10 54 11 14 14 11 22 -25 6 -26 15 -42 27 -45z m-211 -55
c0 -24 -24 -6 -32 23 -10 40 3 55 18 20 7 -17 13 -36 14 -43z m117 36 c-3 -7
-5 -2 -5 12 0 14 2 19 5 13 2 -7 2 -19 0 -25z m303 12 c0 -11 -4 -20 -9 -20
-5 0 -7 9 -4 20 3 11 7 20 9 20 2 0 4 -9 4 -20z m146 -12 c-7 -34 -22 -56 -32
-46 -9 10 16 78 28 78 6 0 8 -12 4 -32z m-413 -98 c19 -48 14 -51 -13 -7 -22
35 -25 47 -12 47 5 0 16 -18 25 -40z m238 -13 c-10 -26 -35 -40 -26 -14 19 54
28 71 32 56 2 -8 -1 -28 -6 -42z m-336 -1 c15 -15 10 -26 -12 -26 -7 0 -13 9
-13 20 0 24 6 25 25 6z m438 -27 c-4 -4 -14 -4 -22 1 -13 7 -13 11 -1 25 12
15 14 15 23 0 5 -10 5 -21 0 -26z m-524 -53 c6 -42 4 -59 -6 -67 -11 -9 -13 2
-13 61 0 84 8 87 19 6z m138 32 c36 -34 28 -65 -9 -35 -15 12 -31 57 -20 57 3
0 16 -10 29 -22z m343 -3 c0 -8 -10 -24 -22 -35 -20 -19 -23 -19 -26 -5 -4 17
24 55 40 55 4 0 8 -7 8 -15z m111 -72 c-9 -15 -10 -13 -11 12 0 17 4 41 8 55
6 23 7 21 10 -12 2 -21 -1 -46 -7 -55z m-348 33 c6 -16 -2 -28 -14 -20 -12 7
-11 34 0 34 5 0 11 -6 14 -14z m118 -19 c-8 -8 -11 -7 -11 4 0 9 3 19 7 23 4
4 9 2 11 -4 3 -7 -1 -17 -7 -23z m-217 -159 c9 -21 35 -24 37 -5 1 6 1 31 0
53 -2 37 0 42 23 46 31 6 34 -2 7 -19 -25 -16 -17 -61 13 -65 15 -2 21 -10 21
-27 0 -21 -5 -24 -35 -26 -19 0 -45 3 -57 8 -25 11 -42 69 -34 118 5 33 6 32
12 -16 3 -27 9 -58 13 -67z m326 68 c0 -81 -36 -130 -78 -107 -13 7 -22 7 -30
-1 -13 -13 -27 13 -19 36 9 23 54 26 64 4 7 -17 10 -17 28 -4 15 11 20 26 20
65 0 28 3 51 8 51 4 0 7 -20 7 -44z m-61 -3 c0 -27 -1 -27 -11 -6 -6 12 -18
24 -27 26 -9 3 -4 5 12 6 23 1 27 -3 26 -26z m97 -55 c-19 -53 -20 -37 -3 34
7 33 13 45 15 31 2 -12 -4 -41 -12 -65z m-526 0 c0 -24 -6 -23 -26 7 -19 30
-8 58 13 30 7 -11 13 -27 13 -37z m119 -38 c0 -10 -3 -8 -9 5 -12 27 -12 43 0
25 5 -8 9 -22 9 -30z m513 8 c-9 -9 -12 -7 -12 12 0 19 3 21 12 12 9 -9 9 -15
0 -24z m-688 -24 c11 -28 6 -39 -9 -20 -8 11 -15 23 -15 28 0 14 18 9 24 -8z
m745 -36 c0 -7 -4 -22 -8 -32 -10 -26 -25 -3 -16 24 7 22 25 28 24 8z m-828
-104 c-26 -33 -27 -26 -3 22 11 24 18 31 20 20 2 -9 -6 -28 -17 -42z m123 -12
c-4 -18 -38 -95 -76 -170 -39 -75 -93 -181 -120 -236 -27 -54 -52 -96 -55 -93
-2 3 10 56 28 119 96 337 81 300 128 317 35 13 43 21 52 56 6 22 16 46 22 53
16 20 28 -6 21 -46z m686 0 c0 -40 18 -83 115 -280 63 -127 111 -232 108 -232
-7 0 2 -11 -145 182 l-117 153 6 105 c2 58 6 111 9 118 9 28 24 -1 24 -46z
m94 12 c9 -24 7 -27 -9 -10 -17 17 -19 26 -6 26 5 0 12 -7 15 -16z m-874 -34
c-24 -15 -36 -11 -14 4 10 8 21 12 24 10 2 -3 -2 -9 -10 -14z m865 -8 c-8 -8
-25 10 -19 20 4 6 9 5 15 -3 4 -7 6 -15 4 -17z m-429 -31 c13 11 14 9 3 -14
-11 -25 -29 -37 -29 -19 0 4 -3 18 -6 32 -5 22 -4 23 6 7 9 -15 14 -16 26 -6z
m179 -33 c3 -13 26 -106 50 -207 25 -101 44 -185 42 -187 -1 -2 -31 73 -66
165 -55 146 -62 174 -56 210 7 45 22 54 30 19z m-196 -305 l-1 -268 -19 175
c-22 221 -23 270 -3 320 9 22 18 40 20 40 2 0 3 -120 3 -267z m-42 209 c-10
-25 -10 -56 0 -164 17 -197 14 -218 -13 -78 -41 210 -40 203 -8 244 33 41 39
41 21 -2z"/>
<path d="M1204 2170 c0 -74 1 -105 3 -67 2 37 2 97 0 135 -2 37 -3 6 -3 -68z"/>
<path d="M1511 2824 c0 -11 3 -14 6 -6 3 7 2 16 -1 19 -3 4 -6 -2 -5 -13z"/>
<path d="M912 2780 c0 -14 2 -19 5 -12 2 6 2 18 0 25 -3 6 -5 1 -5 -13z"/>
<path d="M1063 2700 c0 -25 2 -35 4 -22 2 12 2 32 0 45 -2 12 -4 2 -4 -23z"/>
<path d="M1362 2690 c0 -19 2 -27 5 -17 2 9 2 25 0 35 -3 9 -5 1 -5 -18z"/>
<path d="M1353 2555 c0 -38 2 -53 4 -32 2 20 2 52 0 70 -2 17 -4 1 -4 -38z"/>
<path d="M1053 2560 c0 -25 2 -35 4 -22 2 12 2 32 0 45 -2 12 -4 2 -4 -23z"/>
<path d="M1343 2385 c0 -38 2 -53 4 -32 2 20 2 52 0 70 -2 17 -4 1 -4 -38z"/>
<path d="M1044 2280 c0 -74 1 -105 3 -67 2 37 2 97 0 135 -2 37 -3 6 -3 -68z"/>
<path d="M1342 2280 c0 -14 2 -19 5 -12 2 6 2 18 0 25 -3 6 -5 1 -5 -13z"/>
</g>
</svg>
