<?xml version="1.0" standalone="no"?>
<!DOCTYPE svg PUBLIC "-//W3C//DTD SVG 20010904//EN"
 "http://www.w3.org/TR/2001/REC-SVG-20010904/DTD/svg10.dtd">
<svg version="1.0" xmlns="http://www.w3.org/2000/svg"
 width="244.000000pt" height="305.000000pt" viewBox="0 0 244.000000 305.000000"
 preserveAspectRatio="xMidYMid meet">
<metadata>
Created by potrace 1.16, written by Peter Selinger 2001-2019
</metadata>
<g transform="translate(0.000000,305.000000) scale(0.100000,-0.100000)"
fill="#000000" stroke="none">
<path d="M1072 2900 c0 -14 2 -19 5 -12 2 6 2 18 0 25 -3 6 -5 1 -5 -13z"/>
<path d="M1516 2883 c-31 -144 -55 -298 -64 -428 -7 -98 -7 -99 -13 -40 -3 33
-5 -58 -6 -201 -1 -255 -5 -304 -24 -304 -8 0 -13 366 -11 870 0 263 -34 -115
-48 -527 -5 -153 -10 -287 -11 -298 l0 -20 -9 20 c-5 11 -9 46 -9 78 -1 31 -5
65 -10 75 -5 9 -14 82 -20 162 -10 131 -40 313 -54 326 -13 13 -54 -232 -63
-374 -4 -62 -11 -115 -15 -118 -5 -3 -9 -35 -9 -72 0 -105 -16 -107 -24 -3 -6
78 -10 89 -21 77 -8 -8 -18 -43 -23 -77 -7 -46 -10 67 -12 386 -3 461 -8 487
-31 165 -7 -102 -14 -178 -15 -170 -2 8 -10 84 -20 168 -9 83 -20 152 -24 152
-4 0 -6 -10 -4 -22 29 -180 36 -268 41 -495 l6 -261 -29 -26 c-16 -14 -33 -26
-39 -26 -7 0 -8 169 -5 497 3 274 4 500 3 502 -2 2 -5 2 -7 0 -6 -6 -44 -221
-52 -289 -3 -30 -10 -84 -15 -120 -5 -36 -12 -180 -16 -321 -6 -251 -6 -257
14 -263 11 -3 30 -17 43 -31 l23 -24 34 29 c37 33 52 37 71 18 22 -22 14 -38
-17 -32 -23 5 -32 1 -50 -24 -11 -17 -22 -42 -23 -56 -3 -34 -14 -33 -23 2
-17 71 -94 97 -135 45 -11 -15 -20 -36 -18 -47 3 -18 9 -20 39 -18 30 3 41 -2
63 -28 27 -33 34 -68 15 -87 -7 -7 -9 -29 -5 -60 20 -145 31 -373 19 -373 -6
0 -8 10 -6 22 2 13 0 64 -4 113 l-8 90 -36 3 c-24 2 -42 -3 -53 -13 -23 -23
-21 -97 5 -147 22 -44 14 -71 -13 -41 -18 21 -48 104 -48 134 0 11 12 43 26
71 l26 52 -22 18 c-29 23 -82 23 -103 0 -21 -23 -21 -62 -2 -126 26 -86 15
-186 -21 -186 -14 0 -15 -7 -10 -40 l6 -40 -52 -24 c-106 -48 -259 -109 -263
-104 -2 2 16 17 40 33 113 77 287 208 292 221 3 7 0 28 -6 46 -6 17 -14 62
-18 99 -3 40 -10 66 -15 62 -6 -3 -7 -38 -3 -89 l7 -84 -26 9 c-23 9 -33 2
-139 -112 -192 -206 -216 -232 -213 -234 2 -2 96 32 209 74 201 75 207 79 207
105 0 19 5 28 15 28 15 0 75 -27 75 -34 0 -2 -12 -25 -26 -52 -59 -110 -66
-125 -61 -130 3 -3 35 15 70 40 73 51 87 55 87 27 0 -11 -12 -23 -29 -31 -16
-6 -32 -19 -36 -28 -15 -41 -145 -545 -141 -549 2 -3 9 4 15 15 6 11 17 26 23
34 15 15 66 81 192 247 50 66 86 106 86 95 0 -19 -46 -336 -55 -384 -4 -18 1
-14 17 15 12 22 22 61 24 87 1 26 9 68 17 95 8 26 32 112 53 191 39 148 57
173 62 87 3 -40 -8 -74 -64 -212 -36 -90 -64 -166 -62 -169 3 -2 38 71 78 163
66 153 72 171 66 214 -4 28 -2 50 4 54 13 8 50 -12 77 -42 17 -20 20 -30 12
-44 -5 -11 -13 -19 -18 -19 -4 0 -13 -10 -20 -23 -10 -20 -5 -67 38 -303 27
-153 52 -298 56 -322 4 -24 8 -42 10 -40 2 2 17 80 33 173 17 94 42 237 57
318 29 162 30 145 -20 213 -14 19 15 65 50 80 16 7 33 10 36 8 3 -2 4 -26 1
-53 -4 -42 2 -62 41 -147 57 -128 113 -254 121 -278 12 -36 18 -7 10 56 -5 46
-9 56 -13 39 -5 -18 -21 28 -58 165 -29 105 -55 198 -59 207 -5 14 0 17 24 17
29 0 31 -3 38 -48 20 -135 52 -315 53 -297 0 11 -6 63 -14 115 -8 52 -13 96
-11 98 2 2 77 -92 167 -207 89 -116 164 -209 166 -207 2 2 -30 128 -72 281
-41 152 -75 279 -75 281 0 3 -16 12 -35 20 -34 14 -45 36 -24 50 6 3 35 -11
65 -31 30 -21 57 -36 59 -33 3 2 -11 35 -31 72 -20 37 -33 74 -30 82 7 18 73
47 86 39 6 -4 10 -17 10 -29 0 -26 -7 -23 288 -135 74 -28 136 -51 139 -51 8
0 -44 58 -190 212 -131 138 -144 148 -170 142 l-29 -6 5 80 c3 44 1 85 -3 91
-7 12 -20 -90 -20 -162 l0 -37 38 6 38 6 125 -132 c68 -72 126 -136 127 -141
7 -18 -312 196 -342 230 -27 29 -32 109 -12 170 20 62 20 90 0 119 -27 39
-124 23 -124 -21 0 -7 9 -25 20 -42 37 -55 16 -182 -36 -226 -26 -21 -26 -3 0
60 30 70 33 107 10 139 -12 17 -24 22 -47 20 -30 -3 -32 -5 -35 -50 -2 -36 -6
-46 -18 -41 -11 4 -14 -5 -14 -45 0 -30 5 -52 12 -54 7 -3 9 -11 4 -24 -7 -15
-11 -8 -23 36 -12 46 -13 71 -3 149 6 51 18 114 26 140 14 49 12 93 -6 99 -5
2 -10 16 -10 31 0 40 47 81 93 81 34 0 37 2 37 28 -1 35 -19 59 -53 67 -35 9
-71 -14 -95 -62 l-19 -36 -11 29 c-16 46 -35 65 -72 73 l-34 7 23 23 23 23 32
-31 c18 -17 35 -31 39 -31 5 0 19 11 32 24 13 14 34 27 45 31 11 3 20 12 20
18 -4 281 -29 628 -56 786 -8 46 -14 88 -14 94 0 6 -2 8 -5 5 -3 -3 4 -66 15
-140 24 -169 40 -389 40 -579 l0 -147 -34 -26 c-19 -14 -37 -26 -39 -26 -3 0
-5 214 -6 476 -1 322 2 474 8 469 7 -4 8 6 4 27 -8 43 -9 44 -17 11z m-257
-608 c7 -149 8 -153 11 -65 3 94 3 94 10 35 4 -33 7 -132 7 -220 -1 -136 -2
-147 -7 -70 -5 69 -7 43 -8 -113 -2 -166 -5 -206 -17 -218 -13 -14 -15 33 -14
418 1 238 3 424 6 413 2 -11 7 -92 12 -180z m8 83 c-3 -8 -6 -5 -6 6 -1 11 2
17 5 13 3 -3 4 -12 1 -19z m-167 -498 c0 -5 -4 -10 -10 -10 -5 0 -10 5 -10 10
0 6 5 10 10 10 6 0 10 -4 10 -10z m290 0 c0 -5 -4 -10 -10 -10 -5 0 -10 5 -10
10 0 6 5 10 10 10 6 0 10 -4 10 -10z m-264 -125 c-7 -18 -26 -20 -26 -2 0 18
24 41 28 27 2 -6 1 -17 -2 -25z m239 7 c0 -18 -20 -15 -23 4 -3 10 1 15 10 12
7 -3 13 -10 13 -16z m109 -4 c20 -28 20 -52 1 -68 -8 -7 -15 -27 -15 -44 -1
-17 -7 -42 -14 -55 -12 -21 -13 -16 -19 58 -6 77 4 131 24 131 4 0 15 -10 23
-22z m-434 -7 c6 -12 7 -50 3 -95 -5 -66 -8 -74 -19 -58 -7 9 -14 31 -14 48 0
17 -7 37 -15 44 -20 16 -19 39 2 62 21 23 30 23 43 -1z m252 -66 c3 -14 1 -28
-3 -31 -5 -3 -9 9 -9 25 0 38 6 40 12 6z m68 -47 c0 -33 -1 -34 -40 -34 -22 0
-43 -3 -46 -7 -4 -3 -14 -29 -23 -58 l-17 -51 -13 43 c-18 61 -31 74 -71 74
-32 0 -35 3 -38 31 -2 19 3 36 13 44 13 11 17 9 27 -18 7 -17 20 -33 30 -35
10 -3 25 -21 33 -41 9 -20 17 -36 20 -36 3 0 11 16 19 35 8 19 22 38 31 41 8
3 22 21 31 40 14 29 18 31 30 19 8 -7 14 -29 14 -47z m-390 -37 c7 -21 37 -69
66 -106 57 -71 70 -104 34 -85 -11 6 -25 20 -31 33 -7 12 -18 26 -26 30 -15 9
-73 129 -73 152 0 28 17 15 30 -24z m107 -8 c-3 -10 -5 -2 -5 17 0 19 2 27 5
18 2 -10 2 -26 0 -35z m323 16 c0 -16 -4 -28 -9 -25 -8 5 -3 56 5 56 2 0 4
-14 4 -31z m127 -5 c-4 -20 -15 -43 -27 -51 -12 -9 -20 -25 -20 -43 0 -20 -6
-31 -20 -35 -11 -3 -25 -18 -32 -33 -13 -26 -48 -43 -48 -23 0 5 23 36 50 67
28 32 58 79 68 106 20 56 37 64 29 12z m-422 -75 c9 -17 14 -36 12 -42 -4 -12
-37 44 -37 63 0 18 9 11 25 -21z m269 -15 c-9 -22 -18 -34 -21 -27 -5 13 26
78 33 70 3 -3 -2 -22 -12 -43z m-56 1 c-6 -14 -13 -23 -15 -21 -5 5 15 46 22
46 3 0 -1 -11 -7 -25z m-148 -29 c0 -12 -5 -7 -19 24 -11 24 -11 24 3 6 9 -11
16 -24 16 -30z m-190 -81 c0 -8 -4 -17 -10 -20 -6 -4 -10 5 -10 20 0 15 4 24
10 20 6 -3 10 -12 10 -20z m517 -7 c-3 -7 -5 -2 -5 12 0 14 2 19 5 13 2 -7 2
-19 0 -25z m-317 -4 c0 -8 -4 -12 -10 -9 -5 3 -10 10 -10 16 0 5 5 9 10 9 6 0
10 -7 10 -16z m130 7 c0 -12 -20 -25 -27 -18 -7 7 6 27 18 27 5 0 9 -4 9 -9z
m-230 -181 c27 -17 35 -4 32 53 -3 49 -2 56 12 51 11 -4 16 -19 16 -44 0 -32
4 -39 23 -42 16 -2 23 -11 25 -31 3 -27 1 -29 -25 -24 -15 3 -45 8 -65 12 -31
5 -38 11 -48 41 -7 22 -9 50 -4 77 l8 42 6 -63 c3 -40 10 -66 20 -72z m345 92
c4 -26 1 -52 -10 -80 -16 -38 -20 -42 -54 -42 -20 0 -46 -3 -57 -6 -15 -4 -23
0 -26 13 -8 29 2 43 28 43 20 0 24 5 24 30 0 16 -7 33 -16 38 -14 8 -12 10 10
14 34 7 40 -3 32 -57 -8 -51 6 -66 36 -38 17 15 19 27 16 70 -5 61 7 72 17 15z
m215 -96 c0 -7 -7 -19 -15 -26 -16 -13 -20 -3 -9 24 8 20 24 21 24 2z m-612
-31 c-3 -3 -9 2 -12 12 -6 14 -5 15 5 6 7 -7 10 -15 7 -18z m-139 -45 c0 -11
-3 -10 -14 4 -8 11 -15 29 -15 40 1 19 2 19 15 -4 8 -14 14 -32 14 -40z m820
-56 c12 -20 20 -38 18 -41 -7 -6 -47 48 -47 63 0 22 6 17 29 -22z m-900 12
c10 -12 3 -21 -35 -50 -65 -50 -73 -45 -24 14 23 28 43 50 45 50 1 0 8 -6 14
-14z m111 -97 c3 -57 9 -109 13 -115 3 -6 -8 -31 -27 -55 -18 -24 -75 -100
-126 -169 -128 -173 -130 -174 -62 -35 58 118 142 297 163 346 16 37 18 53 11
87 -10 42 -6 55 12 49 6 -2 13 -48 16 -108z m671 104 c12 -111 16 -120 62
-136 l42 -14 37 -134 c76 -272 87 -312 78 -303 -5 5 -63 118 -130 251 -106
213 -120 247 -120 292 0 39 4 51 15 51 8 0 15 -3 16 -7z m-336 -142 c-4 -17
-9 -31 -12 -31 -10 0 -32 34 -33 49 0 11 4 9 15 -5 14 -19 15 -18 21 4 9 33
17 19 9 -17z m-295 -23 c0 -18 -2 -20 -9 -8 -6 8 -7 18 -5 22 9 14 14 9 14
-14z m564 -1 c-3 -37 -6 -41 -14 -22 -13 30 -12 47 3 43 6 -3 11 -12 11 -21z
m-254 -330 c-11 -111 -22 -211 -24 -222 -2 -11 -4 104 -5 255 l-1 275 25 -53
25 -53 -20 -202z m55 203 c3 -10 -3 -65 -14 -122 -11 -56 -23 -122 -26 -146
-4 -24 -9 -42 -11 -39 -2 2 3 71 12 153 11 107 12 155 5 172 -6 12 -11 26 -11
29 0 12 40 -30 45 -47z"/>
<path d="M962 2810 c0 -14 2 -19 5 -12 2 6 2 18 0 25 -3 6 -5 1 -5 -13z"/>
<path d="M1082 2800 c0 -14 2 -19 5 -12 2 6 2 18 0 25 -3 6 -5 1 -5 -13z"/>
<path d="M972 2760 c0 -14 2 -19 5 -12 2 6 2 18 0 25 -3 6 -5 1 -5 -13z"/>
<path d="M1093 2685 c0 -27 2 -38 4 -22 2 15 2 37 0 50 -2 12 -4 0 -4 -28z"/>
<path d="M1412 2710 c0 -14 2 -19 5 -12 2 6 2 18 0 25 -3 6 -5 1 -5 -13z"/>
<path d="M1423 2570 c0 -25 2 -35 4 -22 2 12 2 32 0 45 -2 12 -4 2 -4 -23z"/>
<path d="M1103 2540 c0 -30 2 -43 4 -27 2 15 2 39 0 55 -2 15 -4 2 -4 -28z"/>
<path d="M1114 2290 c0 -85 2 -120 3 -77 2 42 2 112 0 155 -1 42 -3 7 -3 -78z"/>
<path d="M1573 1420 c0 -25 2 -35 4 -22 2 12 2 32 0 45 -2 12 -4 2 -4 -23z"/>
</g>
</svg>
