<?xml version="1.0" standalone="no"?>
<!DOCTYPE svg PUBLIC "-//W3C//DTD SVG 20010904//EN"
 "http://www.w3.org/TR/2001/REC-SVG-20010904/DTD/svg10.dtd">
<svg version="1.0" xmlns="http://www.w3.org/2000/svg"
 width="244.000000pt" height="305.000000pt" viewBox="0 0 244.000000 305.000000"
 preserveAspectRatio="xMidYMid meet">
<metadata>
Created by potrace 1.16, written by Peter Selinger 2001-2019
</metadata>
<g transform="translate(0.000000,305.000000) scale(0.100000,-0.100000)"
fill="#000000" stroke="none">
<path d="M1132 2890 c0 -14 2 -19 5 -12 2 6 2 18 0 25 -3 6 -5 1 -5 -13z"/>
<path d="M1558 2889 c-32 -141 -41 -188 -57 -302 -23 -154 -28 -215 -37 -473
-6 -191 -6 -192 16 -199 12 -4 36 -20 54 -36 l33 -28 22 23 c13 14 36 30 52
36 l29 12 0 107 c0 246 -27 524 -71 751 -24 119 -33 145 -41 109z m7 -987 c-2
-3 -23 8 -45 23 l-40 28 0 146 c0 231 16 409 61 666 5 33 13 69 17 80 4 11 8
-196 10 -459 1 -264 0 -481 -3 -484z"/>
<path d="M896 2892 c-4 -7 -5 -25 -1 -40 9 -33 9 -941 1 -949 -3 -4 -16 3 -29
15 -13 12 -28 22 -34 22 -21 0 -24 36 -18 185 8 206 23 376 46 529 20 135 23
175 8 116 -35 -144 -69 -517 -69 -758 0 -79 3 -94 18 -99 9 -3 33 -19 53 -35
33 -25 38 -26 50 -12 8 9 31 28 53 41 l39 25 -7 177 c-10 261 -24 410 -51 566
-29 168 -48 235 -59 217z"/>
<path d="M1327 2813 c-4 -43 -10 -190 -14 -328 l-7 -250 -16 115 c-15 101 -45
238 -54 247 -2 2 -10 -22 -19 -54 -33 -119 -56 -283 -62 -442 -13 -318 -24
-207 -26 259 -2 490 -10 485 -24 -12 -6 -202 -10 -255 -20 -252 -9 4 -16 -14
-24 -59 -16 -91 -14 -154 4 -161 8 -3 15 -15 15 -27 0 -22 0 -22 -20 -4 -24
22 -83 24 -107 3 -9 -7 -24 -30 -34 -52 -15 -34 -18 -36 -24 -17 -3 12 -18 35
-32 51 -20 25 -32 30 -68 30 -35 0 -48 -5 -64 -26 -12 -15 -21 -35 -21 -45 0
-16 8 -19 44 -19 78 0 140 -71 97 -111 -12 -11 -21 -28 -21 -38 0 -42 33 -120
75 -175 48 -64 48 -62 -3 -115 -33 -36 -38 -68 -15 -99 11 -15 29 -29 39 -30
30 -6 37 -18 25 -41 -15 -27 -38 -16 -78 36 -21 28 -28 49 -30 87 0 28 -5 76
-10 106 -7 50 -10 55 -36 58 -16 2 -40 -4 -54 -13 -23 -15 -25 -22 -21 -69 3
-41 16 -70 61 -143 72 -117 87 -154 81 -201 -5 -38 -42 -116 -98 -205 -18 -29
-66 -112 -107 -184 -41 -73 -75 -129 -77 -123 -3 7 125 423 131 425 1 1 22 7
45 15 52 16 65 40 64 117 -1 53 -19 90 -102 198 -21 28 -32 57 -37 92 -5 45
-2 58 22 99 l28 47 -23 19 c-30 24 -101 24 -123 0 -22 -24 -21 -50 4 -134 25
-80 18 -128 -23 -164 -42 -37 -356 -219 -364 -211 -3 3 57 62 132 132 l137
127 45 -7 45 -7 -6 69 c-4 37 -7 85 -7 106 0 21 -5 37 -11 37 -8 0 -10 -26 -7
-91 l6 -90 -29 6 c-23 5 -36 1 -62 -20 -66 -55 -346 -319 -342 -323 2 -2 110
31 239 74 220 72 236 79 236 101 0 36 25 38 87 7 63 -32 89 -62 99 -111 6 -31
4 -33 -25 -39 -17 -4 -35 -11 -40 -18 -11 -14 -171 -535 -171 -556 1 -13 2
-13 13 1 11 14 87 99 218 244 25 27 73 83 107 122 l61 73 -14 34 c-8 20 -15
40 -15 46 0 14 157 13 162 -1 2 -7 1 -44 -3 -83 -28 -269 -41 -416 -37 -426 2
-7 12 21 22 62 10 40 30 111 44 158 l26 85 43 -215 c24 -118 51 -251 61 -295
l17 -80 61 304 61 304 32 -119 c45 -165 62 -219 56 -175 -3 18 -5 57 -6 85 0
39 -3 46 -10 31 -6 -14 -7 3 -5 50 3 44 2 55 -2 30 -6 -35 -10 -23 -31 100
-30 178 -30 180 -8 179 9 -1 17 2 17 7 0 5 39 9 86 9 l86 0 -6 -25 c-3 -14 -9
-36 -12 -50 -7 -26 3 -41 83 -130 82 -89 179 -199 205 -230 14 -16 42 -48 63
-70 49 -52 53 -72 -59 295 -74 243 -70 234 -107 247 -30 10 -34 15 -31 43 1
18 11 45 22 60 22 30 89 68 130 72 20 2 26 -2 28 -23 3 -25 16 -31 244 -108
133 -44 243 -79 245 -77 2 2 -82 83 -188 181 -182 168 -194 176 -224 171 l-33
-6 5 92 c3 67 2 89 -6 78 -6 -8 -11 -31 -11 -50 0 -20 -7 -63 -16 -95 l-15
-60 26 -21 c15 -11 105 -70 200 -130 96 -59 173 -110 171 -111 -3 -3 -63 18
-333 114 -46 16 -49 22 -32 55 9 17 7 24 -14 42 -52 44 -58 84 -27 186 25 81
25 112 2 133 -25 23 -94 22 -122 -1 l-23 -19 27 -45 c46 -79 35 -132 -48 -243
-65 -87 -79 -120 -80 -198 -1 -61 1 -65 126 -291 71 -126 126 -231 124 -233
-2 -2 -36 36 -77 84 -40 48 -80 95 -89 104 -8 9 -24 27 -35 40 -11 13 -40 47
-64 76 -40 49 -42 54 -32 85 6 18 10 65 10 103 0 85 4 98 82 227 50 82 64 113
67 154 4 45 1 53 -19 68 -28 19 -65 21 -76 4 -15 -24 -32 -123 -26 -156 6 -37
-29 -100 -72 -128 -27 -18 -40 -14 -48 16 -4 15 0 20 14 20 10 0 33 13 50 28
39 35 36 57 -15 124 l-35 46 31 39 c68 84 100 202 63 233 -23 19 -18 39 20 77
30 30 40 34 77 31 38 -2 43 0 46 20 4 29 -48 82 -81 82 -32 0 -73 -33 -96 -78
l-18 -36 -12 36 c-23 69 -82 95 -132 59 -29 -22 -29 -22 -29 -1 0 11 7 23 15
26 18 7 20 73 4 160 -13 69 -18 81 -30 63 -5 -9 -9 10 -10 51 -1 36 -5 3 -9
-73 -4 -76 -11 -142 -16 -147 -5 -5 -8 188 -7 475 0 267 0 485 -1 485 -2 0 -6
-35 -9 -77z m-116 -648 c-4 -165 -9 -268 -10 -230 -2 39 -6 93 -11 120 -9 56
-5 -139 6 -257 5 -62 4 -67 -14 -65 -13 1 -18 7 -14 19 2 10 8 18 13 18 13 0
10 50 -4 83 -14 32 -6 299 13 447 6 47 13 105 16 128 3 24 7 42 9 40 2 -2 0
-138 -4 -303z m-104 -411 c1 -5 -2 -16 -7 -24 -8 -12 -13 -13 -30 -2 -30 18
-40 15 -40 -13 0 -32 36 -68 61 -62 16 4 19 0 19 -34 0 -21 -4 -39 -9 -39 -5
0 -23 -12 -40 -26 -17 -14 -35 -23 -41 -19 -16 10 -37 57 -43 94 -3 19 -13 38
-21 43 -24 13 -19 36 14 69 27 27 34 30 82 26 29 -2 53 -8 55 -13z m394 -13
c32 -33 37 -56 14 -69 -9 -4 -17 -18 -20 -31 -8 -41 -17 -66 -37 -93 l-19 -28
-26 30 c-13 17 -31 30 -39 30 -10 0 -14 12 -14 41 0 35 2 40 19 34 23 -7 48
16 57 51 8 32 1 38 -26 24 -25 -14 -50 -7 -50 14 0 8 12 16 28 19 67 10 84 7
113 -22z m-334 -43 c-3 -8 -6 -5 -6 6 -1 11 2 17 5 13 3 -3 4 -12 1 -19z m43
-37 c0 -34 -3 -38 -19 -34 -24 6 -36 32 -21 47 7 7 10 6 10 -2 0 -7 5 -12 10
-12 6 0 10 9 10 20 0 11 2 20 5 20 3 0 5 -18 5 -39z m-277 -86 c10 -24 36 -64
58 -87 36 -40 51 -78 30 -78 -14 0 -80 79 -102 122 -19 37 -26 88 -11 88 4 0
15 -20 25 -45z m204 23 c-3 -8 -6 -5 -6 6 -1 11 2 17 5 13 3 -3 4 -12 1 -19z
m200 0 c-3 -8 -6 -5 -6 6 -1 11 2 17 5 13 3 -3 4 -12 1 -19z m233 -5 c0 -35
-48 -118 -89 -157 l-31 -30 0 27 c0 17 13 41 35 64 19 20 43 56 52 80 21 49
33 55 33 16z m-382 -7 c3 -12 -1 -17 -10 -14 -7 3 -15 13 -16 22 -3 12 1 17
10 14 7 -3 15 -13 16 -22z m122 5 c0 -11 -4 -22 -9 -25 -12 -8 -34 21 -26 34
11 17 35 11 35 -9z m-186 -93 c11 -56 9 -60 -19 -42 -18 12 -25 25 -25 49 0
28 3 32 19 28 11 -3 21 -17 25 -35z m266 2 c0 -19 -7 -33 -19 -40 -31 -16 -34
-13 -28 27 10 58 47 69 47 13z m-153 -17 c-3 -10 -5 -2 -5 17 0 19 2 27 5 18
2 -10 2 -26 0 -35z m-68 -48 l0 -20 -9 20 c-5 11 -9 29 -9 40 l0 20 9 -20 c5
-11 9 -29 9 -40z m138 -7 c-3 -8 -6 -5 -6 6 -1 11 2 17 5 13 3 -3 4 -12 1 -19z
m130 -20 c-3 -7 -5 -2 -5 12 0 14 2 19 5 13 2 -7 2 -19 0 -25z m-40 -20 c-3
-7 -5 -2 -5 12 0 14 2 19 5 13 2 -7 2 -19 0 -25z m-317 6 c0 -8 -4 -12 -10 -9
-5 3 -10 10 -10 16 0 5 5 9 10 9 6 0 10 -7 10 -16z m58 -21 c-4 -22 -22 -20
-26 1 -2 10 3 16 13 16 10 0 15 -7 13 -17z m222 3 c0 -8 -7 -16 -15 -20 -15
-5 -21 14 -8 27 11 12 23 8 23 -7z m-342 -64 c3 -16 -1 -20 -12 -16 -10 4 -16
-2 -19 -18 -3 -16 -5 -12 -6 13 0 20 2 39 6 43 12 11 28 0 31 -22z m468 14 c3
-8 4 -27 1 -43 -4 -27 -5 -27 -12 -5 -8 25 -35 30 -35 7 0 -8 7 -15 15 -15 10
0 15 -10 15 -28 0 -16 7 -37 15 -48 8 -10 15 -25 15 -32 0 -24 -41 8 -56 43
-15 37 -20 140 -5 117 7 -11 9 -11 14 2 8 20 26 21 33 2z m-462 -131 c-9 -22
-19 -35 -21 -28 -2 6 3 25 11 42 9 16 17 52 18 78 l2 48 3 -50 c3 -32 -2 -65
-13 -90z m156 114 c0 -5 -4 -9 -10 -9 -5 0 -10 7 -10 16 0 8 5 12 10 9 6 -3
10 -10 10 -16z m130 1 c0 -5 -4 -10 -10 -10 -5 0 -10 5 -10 10 0 6 5 10 10 10
6 0 10 -4 10 -10z m-217 -85 l6 -50 -14 50 c-8 28 -14 59 -14 70 l0 20 8 -20
c5 -11 11 -42 14 -70z m292 20 l-14 -50 6 50 c6 51 14 77 20 60 1 -6 -4 -32
-12 -60z m-268 3 c-3 -7 -5 -2 -5 12 0 14 2 19 5 13 2 -7 2 -19 0 -25z m35
-58 c4 0 8 7 8 16 0 20 24 13 28 -8 2 -8 -9 -23 -23 -32 -25 -16 -26 -16 -35
9 -14 37 -12 67 2 38 6 -13 15 -23 20 -23z m192 2 c-7 -36 -23 -41 -47 -14
-11 12 -13 22 -6 32 8 13 10 13 20 0 9 -13 11 -13 22 2 15 23 18 17 11 -20z
m23 -34 c-3 -7 -5 -2 -5 12 0 14 2 19 5 13 2 -7 2 -19 0 -25z m-260 -10 c-3
-8 -6 -5 -6 6 -1 11 2 17 5 13 3 -3 4 -12 1 -19z m10 -70 c-3 -8 -6 -5 -6 6
-1 11 2 17 5 13 3 -3 4 -12 1 -19z m240 0 c-3 -8 -6 -5 -6 6 -1 11 2 17 5 13
3 -3 4 -12 1 -19z m-114 -155 c-5 -12 -7 -12 -14 -1 -13 20 -11 28 5 22 8 -3
12 -12 9 -21z m-119 -29 c10 -27 7 -59 -9 -80 -8 -10 -15 -32 -15 -49 0 -34
-37 -186 -47 -194 -6 -6 -5 5 21 149 8 47 17 109 21 138 7 52 18 66 29 36z
m34 -15 c10 -13 9 -19 -3 -29 -13 -11 -15 -8 -15 20 0 19 1 31 3 29 1 -2 8
-11 15 -20z m170 -31 l-3 -23 -13 23 c-10 18 -10 25 0 36 11 12 13 12 16 0 2
-8 2 -24 0 -36z m-123 -105 c0 -71 3 -191 7 -268 l7 -140 -23 110 c-55 262
-66 315 -66 329 0 12 65 96 74 96 1 0 1 -57 1 -127z m-158 -215 c-3 -7 -5 -2
-5 12 0 14 2 19 5 13 2 -7 2 -19 0 -25z"/>
<path d="M1142 2730 c0 -19 2 -27 5 -17 2 9 2 25 0 35 -3 9 -5 1 -5 -18z"/>
<path d="M1353 2535 c0 -27 2 -38 4 -22 2 15 2 37 0 50 -2 12 -4 0 -4 -28z"/>
<path d="M1153 2515 c0 -33 2 -45 4 -27 2 18 2 45 0 60 -2 15 -4 0 -4 -33z"/>
<path d="M1403 855 c0 -22 2 -30 4 -17 2 12 2 30 0 40 -3 9 -5 -1 -4 -23z"/>
<path d="M1413 755 c0 -22 2 -30 4 -17 2 12 2 30 0 40 -3 9 -5 -1 -4 -23z"/>
</g>
</svg>
