<?xml version="1.0" standalone="no"?>
<!DOCTYPE svg PUBLIC "-//W3C//DTD SVG 20010904//EN"
 "http://www.w3.org/TR/2001/REC-SVG-20010904/DTD/svg10.dtd">
<svg version="1.0" xmlns="http://www.w3.org/2000/svg"
 width="244.000000pt" height="305.000000pt" viewBox="0 0 244.000000 305.000000"
 preserveAspectRatio="xMidYMid meet">
<metadata>
Created by potrace 1.16, written by Peter Selinger 2001-2019
</metadata>
<g transform="translate(0.000000,305.000000) scale(0.100000,-0.100000)"
fill="#000000" stroke="none">
<path d="M881 2875 c-51 -197 -81 -439 -88 -727 l-6 -228 34 -14 c19 -8 43
-24 53 -35 19 -21 20 -21 40 -3 12 11 36 27 54 38 l32 18 0 141 c0 178 -15
374 -40 540 -20 128 -46 241 -35 150 3 -22 14 -101 24 -175 24 -166 45 -495
36 -572 -6 -51 -10 -59 -46 -84 -22 -15 -42 -25 -44 -22 -3 3 -4 220 -3 484 3
393 5 473 15 444 l12 -35 -5 45 c-9 69 -20 81 -33 35z"/>
<path d="M1567 2878 c-3 -13 -13 -52 -22 -88 -42 -167 -75 -499 -75 -751 l0
-117 29 -12 c16 -6 37 -20 47 -31 20 -23 37 -24 53 -5 7 8 28 22 48 31 l36 17
-6 227 c-7 240 -26 432 -57 571 -22 94 -19 61 11 -134 26 -171 48 -628 30
-634 -6 -2 -25 -15 -40 -28 -16 -13 -34 -24 -40 -24 -14 0 -15 936 -1 945 10
6 8 40 -2 50 -3 3 -8 -4 -11 -17z"/>
<path d="M1262 2850 c0 -19 2 -27 5 -17 2 9 2 25 0 35 -3 9 -5 1 -5 -18z"/>
<path d="M1202 2674 c-1 -121 -8 -221 -17 -272 -17 -87 -34 -326 -35 -467 0
-113 -13 -102 -36 30 -18 107 -31 152 -41 142 -8 -9 -32 -144 -32 -187 -1 -30
4 -38 33 -54 40 -21 53 -64 35 -114 -11 -32 -41 -44 -54 -22 -12 19 -25 10
-25 -18 0 -57 65 -80 90 -31 14 26 34 24 27 -2 -8 -29 8 -66 31 -73 10 -4 24
-18 31 -33 17 -37 -4 -47 -34 -17 -34 34 -87 36 -119 4 -19 -19 -19 -19 23
-26 55 -9 76 -38 91 -124 14 -81 8 -108 -27 -121 -33 -12 -30 -62 5 -67 37 -6
28 -66 -12 -73 -10 -2 -24 -12 -30 -22 -9 -15 -6 -21 14 -37 24 -19 24 -20 4
-20 -25 0 -34 17 -34 66 0 33 -1 34 -40 34 -22 0 -58 -7 -81 -16 -39 -16 -42
-16 -67 3 -48 36 -67 71 -68 126 -2 68 -14 139 -27 155 -15 19 -65 14 -87 -8
-39 -39 -21 -94 83 -260 50 -80 70 -152 60 -214 -3 -20 0 -49 7 -66 10 -25 10
-34 -2 -52 -20 -30 -298 -348 -305 -348 -3 0 6 19 20 43 13 23 75 132 137 241
111 198 112 200 107 252 -7 67 -36 134 -86 192 -87 106 -99 162 -51 239 l31
48 -22 18 c-33 26 -113 23 -133 -5 -21 -30 -20 -53 5 -124 29 -85 22 -149 -21
-185 -28 -24 -30 -30 -20 -49 7 -12 8 -26 3 -30 -17 -17 -351 -135 -359 -127
-3 2 44 34 103 69 234 141 283 173 283 185 0 7 -7 38 -15 70 -8 31 -15 73 -15
93 0 19 -5 42 -11 50 -8 11 -9 -12 -6 -83 l5 -98 -33 7 c-31 6 -40 0 -132 -82
-207 -186 -283 -257 -279 -261 5 -5 75 16 313 94 159 52 173 58 173 80 0 34
22 38 77 13 59 -26 91 -55 110 -98 17 -40 7 -57 -36 -65 -26 -6 -31 -14 -79
-164 -46 -145 -108 -342 -127 -403 -9 -30 147 134 397 416 18 20 18 24 4 59
-9 20 -13 41 -10 46 8 13 171 11 197 -2 12 -6 34 -23 50 -37 l27 -26 -36 -37
-36 -37 52 -253 c29 -140 59 -287 68 -327 8 -40 16 -71 18 -70 2 3 121 561
131 621 4 23 -2 36 -28 63 -37 38 -35 51 15 88 22 17 46 22 128 24 l101 4 -7
-29 c-20 -80 -25 -69 110 -218 212 -233 274 -297 274 -283 0 7 -32 114 -71
238 -39 124 -75 241 -81 260 -13 46 -32 66 -69 74 -32 6 -36 23 -15 64 20 39
55 68 109 92 55 25 77 21 77 -13 0 -27 -23 -18 293 -118 104 -33 191 -58 193
-56 4 4 -329 308 -368 335 -11 8 -30 11 -47 7 l-29 -6 5 93 c4 62 2 90 -5 83
-5 -5 -13 -54 -16 -107 l-7 -98 44 6 c44 6 45 6 133 -72 49 -43 111 -99 137
-124 27 -25 53 -46 58 -48 5 -2 9 -8 9 -13 0 -12 -45 11 -220 111 -181 103
-176 99 -194 137 -21 43 -20 75 4 143 25 70 25 95 0 120 -36 36 -140 20 -140
-21 0 -8 11 -31 25 -51 43 -63 26 -140 -50 -223 -68 -73 -91 -157 -65 -232 9
-24 21 -33 58 -44 l47 -15 58 -174 c77 -234 88 -272 77 -265 -5 3 -43 65 -85
138 -42 73 -99 170 -127 217 -116 197 -116 185 -3 365 75 120 88 166 55 208
-23 29 -69 37 -88 15 -12 -16 -23 -88 -23 -147 0 -49 -16 -86 -51 -117 -33
-31 -61 -37 -94 -19 -16 8 -48 15 -70 15 -41 0 -41 0 -41 -39 0 -48 -8 -61
-36 -61 l-22 0 22 18 c16 13 19 22 12 39 -4 13 -15 23 -24 23 -21 0 -21 66 0
74 26 10 18 55 -11 66 -26 10 -26 12 -23 94 5 98 25 136 78 147 42 9 48 16 28
36 -24 24 -81 22 -110 -5 -21 -20 -47 -29 -47 -17 0 21 28 56 53 64 27 10 29
14 24 46 -7 44 4 51 31 20 33 -38 63 -31 82 19 13 34 -2 58 -22 38 -24 -24
-47 -13 -59 27 -14 47 1 96 31 106 38 12 42 29 30 127 -6 51 -17 99 -24 106
-11 12 -15 3 -25 -52 -6 -36 -16 -96 -22 -132 -16 -95 -29 -62 -29 76 -1 154
-24 384 -50 495 -28 115 -35 128 -46 84 -7 -25 -10 10 -14 131 l-6 165 -2
-191z m70 -509 l2 -250 6 185 c5 170 6 178 12 100 4 -47 11 -191 14 -321 l7
-237 -23 -12 -23 -12 6 123 c4 68 2 133 -3 144 -6 14 -8 1 -5 -40 l4 -60 -11
45 c-6 26 -12 183 -14 370 -3 294 -2 320 11 270 10 -38 15 -131 17 -305z m-22
-559 c-12 -12 -13 15 -2 105 l7 64 3 -79 c2 -46 -2 -84 -8 -90z m0 -112 c0
-15 -6 -24 -15 -24 -15 0 -21 40 -9 53 12 11 24 -3 24 -29z m57 -326 c-3 -8
-6 -5 -6 6 -1 11 2 17 5 13 3 -3 4 -12 1 -19z m-113 -173 c6 -55 5 -58 -7 -34
-18 33 -30 96 -21 110 11 18 21 -9 28 -76z m113 41 c-18 -79 -26 -84 -26 -19
-1 54 1 62 17 60 16 -1 17 -6 9 -41z m-70 -118 c-3 -8 -6 -5 -6 6 -1 11 2 17
5 13 3 -3 4 -12 1 -19z m22 -5 c-1 -16 -1 -44 0 -63 3 -33 3 -34 12 -10 6 17
7 -3 5 -59 -3 -53 -1 -79 5 -70 5 8 9 40 9 72 0 31 3 57 8 57 4 0 16 -14 28
-30 l21 -30 -21 -103 c-19 -92 -21 -98 -26 -62 -8 58 -19 13 -13 -51 4 -42
-30 -249 -44 -264 -3 -3 3 590 6 633 1 4 4 7 7 7 3 0 4 -12 3 -27z"/>
<path d="M743 1860 c-26 -11 -43 -40 -43 -73 0 -23 3 -24 43 -20 36 4 48 1 74
-21 39 -33 46 -59 22 -87 -10 -12 -19 -35 -19 -50 0 -29 58 -150 89 -184 32
-36 31 -42 -9 -91 -48 -58 -50 -84 -9 -118 32 -27 63 -33 89 -16 12 7 12 14 2
43 -16 45 -15 76 3 83 8 4 45 -2 81 -12 62 -16 66 -16 82 0 16 16 16 18 -2 32
-11 8 -27 14 -36 14 -26 0 -116 62 -155 107 -38 45 -65 100 -65 133 0 33 15
23 34 -25 23 -54 118 -148 178 -175 23 -10 44 -17 46 -15 11 10 -10 54 -28 60
-25 8 -104 85 -130 127 -11 18 -20 46 -20 61 0 15 -7 30 -15 33 -23 9 -18 52
11 81 22 22 32 25 70 20 41 -4 44 -3 44 20 0 93 -128 107 -166 17 -16 -38 -20
-38 -38 -3 -23 47 -91 76 -133 59z"/>
<path d="M1435 1858 c-30 -17 -44 -40 -45 -70 0 -27 1 -27 44 -22 41 6 48 4
75 -24 36 -35 39 -57 11 -72 -13 -7 -20 -21 -20 -39 0 -15 -14 -48 -31 -74
-28 -43 -51 -65 -121 -118 -16 -11 -28 -29 -28 -40 0 -24 1 -24 60 6 63 32
144 114 167 171 21 50 33 57 33 17 0 -75 -108 -193 -210 -230 -56 -21 -68 -38
-39 -56 13 -8 35 -5 85 11 53 17 70 19 76 9 11 -17 10 -51 -2 -83 -22 -58 38
-70 96 -21 34 29 29 57 -21 117 l-35 42 44 61 c73 105 95 187 57 219 -43 37
19 108 95 108 40 0 44 2 44 24 0 41 -33 71 -78 71 -47 0 -78 -23 -100 -75
l-15 -35 -17 40 c-9 22 -23 45 -31 51 -22 18 -72 25 -94 12z"/>
<path d="M1151 1194 c0 -11 3 -14 6 -6 3 7 2 16 -1 19 -3 4 -6 -2 -5 -13z"/>
</g>
</svg>
