<?xml version="1.0" standalone="no"?>
<!DOCTYPE svg PUBLIC "-//W3C//DTD SVG 20010904//EN"
 "http://www.w3.org/TR/2001/REC-SVG-20010904/DTD/svg10.dtd">
<svg version="1.0" xmlns="http://www.w3.org/2000/svg"
 width="244.000000pt" height="305.000000pt" viewBox="0 0 244.000000 305.000000"
 preserveAspectRatio="xMidYMid meet">
<metadata>
Created by potrace 1.16, written by Peter Selinger 2001-2019
</metadata>
<g transform="translate(0.000000,305.000000) scale(0.100000,-0.100000)"
fill="#000000" stroke="none">
<path d="M1026 2878 c-3 -18 -10 -71 -16 -117 -5 -46 -12 -86 -14 -88 -2 -2
-7 20 -11 49 -4 29 -11 71 -17 93 -5 22 -12 48 -14 59 -4 24 -14 34 -14 15 0
-8 -3 -25 -7 -38 -4 -17 -3 -22 5 -17 9 5 12 -108 12 -458 0 -256 -4 -467 -8
-470 -5 -3 -18 4 -30 14 -12 11 -27 20 -33 20 -9 0 -11 60 -7 248 2 136 1 213
-3 172 -4 -41 -8 -155 -9 -254 l-2 -178 36 -33 c49 -44 50 -86 2 -50 -21 16
-64 20 -82 7 -16 -10 -34 -48 -34 -71 0 -17 5 -19 35 -14 29 5 39 1 65 -25 30
-30 40 -75 20 -87 -5 -3 -10 -31 -10 -61 0 -47 -3 -54 -20 -54 -21 0 -40 -27
-40 -59 0 -12 -6 -21 -14 -21 -20 0 -36 -73 -25 -118 9 -42 -1 -61 -21 -37
-23 28 -24 98 -1 143 12 23 21 48 21 56 0 34 -85 49 -114 20 -20 -20 -20 -76
-1 -140 35 -116 21 -139 -176 -271 -87 -59 -161 -105 -163 -102 -2 2 50 62
118 133 l122 129 38 -7 39 -7 -6 62 c-4 34 -7 82 -7 105 0 27 -5 44 -11 44 -9
0 -10 -25 -6 -90 l7 -89 -28 5 c-24 5 -36 -3 -92 -63 -35 -37 -109 -114 -163
-171 -55 -56 -98 -104 -96 -107 3 -2 85 25 182 62 98 36 180 63 183 60 3 -3
-13 -33 -36 -67 -23 -34 -40 -63 -38 -66 3 -2 62 27 133 66 118 65 129 69 141
52 25 -32 17 -67 -18 -83 -37 -16 -20 37 -157 -483 -23 -88 -26 -111 -9 -81 6
11 25 36 43 55 17 19 63 75 101 125 47 62 70 84 72 72 3 -15 -31 -215 -44
-259 -10 -33 11 -18 28 20 9 20 62 122 117 225 98 183 101 189 92 229 -6 23
-8 46 -5 50 15 25 103 -7 123 -45 12 -23 11 -28 -14 -61 l-28 -36 52 -293 c29
-160 55 -307 58 -325 3 -18 7 -31 9 -30 1 2 17 84 34 183 16 99 41 239 55 310
13 72 25 137 25 145 0 9 -14 30 -30 48 -25 28 -28 37 -19 53 22 41 117 77 133
51 3 -5 0 -27 -6 -50 -9 -35 -7 -46 10 -74 11 -18 63 -114 116 -213 53 -99 96
-173 96 -164 0 9 -9 68 -20 130 -11 63 -20 120 -20 127 0 15 42 -35 164 -196
43 -56 80 -101 82 -99 2 2 -30 129 -71 283 -41 153 -75 280 -75 282 0 2 -16
10 -35 18 -19 8 -35 21 -35 28 0 28 20 66 34 66 14 0 86 -36 170 -85 26 -15
49 -25 52 -22 3 2 -11 31 -30 63 -20 32 -34 60 -32 62 2 1 93 -31 202 -72 109
-42 200 -73 202 -71 3 2 -11 20 -29 38 -19 19 -95 98 -169 176 -122 128 -138
142 -162 137 l-28 -5 -1 92 c-1 50 -3 81 -6 67 -2 -14 -10 -65 -19 -113 -15
-84 -14 -90 3 -103 10 -7 91 -66 181 -130 89 -64 162 -118 162 -120 0 -2 -17
3 -37 12 -21 8 -72 29 -113 46 -41 16 -93 38 -115 47 -22 10 -48 21 -58 24
-14 5 -17 13 -12 41 6 27 2 38 -18 58 -36 36 -41 90 -17 173 25 87 25 110 0
135 -34 34 -120 21 -120 -18 0 -9 9 -30 20 -47 24 -36 27 -122 5 -151 -17 -22
-17 -19 -19 59 -1 51 -5 62 -28 82 -16 13 -28 31 -28 40 0 9 -11 27 -24 40
-19 19 -24 33 -23 76 1 33 -4 54 -11 57 -7 2 -12 16 -12 32 0 38 50 80 96 80
31 0 34 3 34 29 0 20 -9 36 -26 50 -35 28 -56 26 -93 -5 -26 -21 -32 -23 -37
-10 -8 20 5 41 45 71 l34 25 -1 127 c-5 316 -28 586 -67 768 -8 39 -15 75 -15
80 0 6 -5 2 -11 -8 -8 -14 -8 -22 0 -30 14 -14 16 -967 1 -967 -5 0 -15 10
-22 23 -7 12 -20 22 -28 22 -13 0 -15 34 -13 248 0 140 5 260 11 275 6 15 12
79 15 142 2 63 2 104 0 90 -2 -14 -8 -34 -13 -45 -5 -11 -12 -76 -15 -145 -14
-256 -23 -223 -22 77 1 166 1 300 -1 298 -14 -13 -42 -322 -52 -555 -5 -133
-13 -222 -23 -255 -11 -34 -16 -42 -16 -25 -2 49 -18 54 -26 8 -7 -35 -10 -14
-16 107 -8 142 -42 394 -59 424 -9 18 -13 7 -34 -104 -25 -132 -29 -164 -36
-300 -5 -85 -10 -122 -15 -107 -10 30 -24 11 -26 -33 l-1 -30 -9 35 c-5 19
-13 62 -17 95 -8 59 -8 59 -16 -55 -5 -74 -14 -129 -25 -155 -18 -40 -18 -36
-26 325 -4 201 -6 430 -3 508 2 78 2 142 1 142 -1 0 -4 -15 -7 -32z m161 -850
c-2 -24 -4 -5 -4 42 0 47 2 66 4 43 2 -24 2 -62 0 -85z m263 -112 c0 -3 -4 -8
-10 -11 -5 -3 -10 -1 -10 4 0 6 5 11 10 11 6 0 10 -2 10 -4z m-432 -52 c-4 -3
-16 -3 -28 1 -17 5 -19 9 -9 21 11 13 14 13 28 0 8 -9 12 -18 9 -22z m486 10
c4 -10 -3 -14 -24 -14 -32 0 -37 9 -19 27 14 14 35 7 43 -13z m-424 1 c0 -8
-7 -15 -15 -15 -8 0 -15 7 -15 15 0 8 7 15 15 15 8 0 15 -7 15 -15z m330 0 c0
-8 -7 -15 -15 -15 -16 0 -20 12 -8 23 11 12 23 8 23 -8z m-294 -140 c-17 -17
-36 -12 -36 10 0 16 31 25 44 14 5 -4 1 -15 -8 -24z m274 9 c0 -7 -5 -16 -11
-20 -14 -8 -44 21 -35 34 8 14 46 3 46 -14z m-380 -50 c0 -15 -6 -24 -15 -24
-15 0 -21 40 -9 53 12 11 24 -3 24 -29z m480 7 c0 -24 -26 -47 -33 -29 -7 19
11 60 23 53 5 -3 10 -14 10 -24z m-339 -51 c5 0 9 -8 9 -19 0 -10 9 -21 20
-24 11 -3 27 -21 35 -41 9 -20 17 -36 20 -36 3 0 11 15 19 34 8 19 24 39 35
46 12 6 21 19 21 28 0 14 9 17 40 17 41 0 41 0 38 -35 -3 -35 -3 -35 -50 -35
-55 0 -63 -6 -87 -71 l-19 -49 -11 41 c-10 37 -43 84 -59 84 -4 0 -21 -4 -39
-9 -34 -10 -43 -1 -43 44 0 24 22 36 48 29 8 -2 18 -4 23 -4z m-191 -47 c0 -9
18 -50 41 -90 47 -87 47 -118 0 -50 -52 76 -78 157 -51 157 6 0 10 -7 10 -17z
m94 -30 c9 -25 14 -49 11 -51 -6 -6 -35 62 -35 83 0 26 8 16 24 -32z m376 -8
c-14 -43 -34 -58 -24 -18 4 15 11 39 17 53 14 37 21 6 7 -35z m100 35 c0 -32
-31 -102 -64 -143 -44 -56 -43 -30 3 61 23 44 41 84 41 91 0 6 5 11 10 11 6 0
10 -9 10 -20z m-380 -90 c11 -11 20 -30 20 -41 0 -18 -2 -20 -16 -8 -21 18
-47 69 -34 69 5 0 19 -9 30 -20z m189 -20 c-13 -22 -26 -40 -31 -40 -16 0 -8
40 12 60 33 33 43 23 19 -20z m-405 -47 c-5 -16 -9 -48 -10 -73 -1 -25 -3 -54
-4 -65 l-1 -20 -9 20 c-12 28 -12 123 0 146 16 30 34 24 24 -8z m627 -10 c11
-30 2 -133 -12 -133 -5 0 -9 22 -9 49 0 27 -3 63 -6 80 -8 39 12 42 27 4z
m-372 -60 c3 -2 0 -8 -6 -14 -7 -7 -17 -3 -34 11 l-24 20 30 -6 c17 -4 32 -9
34 -11z m146 7 c-3 -5 -15 -15 -26 -20 -15 -8 -19 -7 -19 4 0 13 14 21 43 25
5 0 5 -3 2 -9z m-314 -87 c-9 -16 -10 -16 -11 -1 0 9 3 25 7 35 7 16 8 17 11
1 2 -10 -1 -25 -7 -35z m439 2 c0 -17 -2 -17 -10 -5 -5 8 -10 24 -10 35 0 17
2 17 10 5 5 -8 10 -24 10 -35z m-317 -31 c-5 -29 -2 -35 21 -44 32 -12 37 -55
6 -63 -10 -3 -21 0 -23 6 -2 7 -28 12 -63 12 -50 0 -59 3 -62 19 -3 15 0 17
14 11 45 -18 49 -13 46 52 l-4 62 35 -11 c33 -10 35 -13 30 -44z m243 -7 c-7
-62 -3 -69 30 -57 15 6 26 5 30 -2 10 -16 -16 -27 -66 -28 -25 0 -56 -1 -70
-3 -21 -2 -25 2 -25 23 0 19 6 26 23 28 20 3 23 9 20 38 -3 37 11 54 46 54 17
0 18 -5 12 -53z m294 4 c0 -5 -9 -19 -20 -32 -19 -23 -19 -23 -20 -3 0 20 17
44 32 44 4 0 8 -4 8 -9z m-705 -81 c3 -5 1 -10 -4 -10 -6 0 -11 5 -11 10 0 6
2 10 4 10 3 0 8 -4 11 -10z m521 -16 c-4 -9 -9 -15 -11 -12 -3 3 -3 13 1 22 4
9 9 15 11 12 3 -3 3 -13 -1 -22z m314 -25 c0 -6 -4 -7 -10 -4 -5 3 -10 11 -10
16 0 6 5 7 10 4 6 -3 10 -11 10 -16z m-216 -46 c-25 -108 -30 -93 148 -463 36
-74 64 -137 61 -140 -2 -3 -8 2 -13 11 -5 8 -42 60 -83 114 -100 136 -109 150
-123 203 -7 26 -13 37 -13 25 -1 -13 -5 -23 -11 -23 -16 0 -23 50 -10 75 8 15
10 39 6 69 -10 61 2 131 26 161 11 14 21 25 22 25 2 0 -3 -26 -10 -57z m-810
18 c5 -7 -64 -61 -78 -61 -3 0 -26 -14 -51 -31 -25 -17 -49 -28 -52 -25 -4 3
26 38 65 77 62 61 74 69 91 59 11 -5 22 -14 25 -19z m112 -3 c34 -65 22 -103
-108 -365 -66 -134 -122 -242 -124 -240 -2 1 5 32 15 67 11 36 33 119 51 185
49 188 47 183 85 195 49 16 55 29 57 114 1 42 3 76 5 76 1 0 10 -15 19 -32z
m917 -31 c22 -31 38 -59 36 -61 -6 -6 -119 104 -119 116 0 5 9 8 21 6 12 -2
38 -27 62 -61z m-623 -7 c0 -5 -7 -7 -15 -4 -8 4 -15 8 -15 10 0 2 7 4 15 4 8
0 15 -4 15 -10z m117 4 c-3 -3 -12 -4 -19 -1 -8 3 -5 6 6 6 11 1 17 -2 13 -5z
m-37 -95 c-5 -19 -16 -43 -24 -54 -13 -18 -14 -17 -30 13 -9 17 -16 41 -15 54
1 19 3 17 10 -9 14 -48 28 -49 46 -4 19 49 26 49 13 0z m-255 -66 c4 -16 8
-37 10 -47 4 -17 -174 -380 -182 -372 -2 2 24 81 57 177 34 96 65 190 69 210
14 64 36 79 46 32z m507 -8 c-5 -43 -19 -53 -32 -21 -16 43 -13 58 13 54 18
-2 21 -8 19 -33z m-362 -139 c0 -18 2 -55 5 -82 l5 -49 -15 60 c-17 72 -19
105 -5 105 6 0 10 -15 10 -34z m410 -17 c14 -24 27 -57 28 -74 2 -16 10 -57
18 -90 29 -125 12 -96 -50 83 -46 134 -44 165 4 81z"/>
<path d="M897 2643 c-10 -65 -16 -136 -16 -158 2 -47 3 -40 24 133 9 74 15
136 12 138 -2 2 -11 -49 -20 -113z"/>
<path d="M1061 2654 c0 -11 3 -14 6 -6 3 7 2 16 -1 19 -3 4 -6 -2 -5 -13z"/>
<path d="M1073 2540 c0 -36 2 -50 4 -32 2 17 2 47 0 65 -2 17 -4 3 -4 -33z"/>
<path d="M1082 2440 c0 -14 2 -19 5 -12 2 6 2 18 0 25 -3 6 -5 1 -5 -13z"/>
<path d="M1083 2335 c0 -22 2 -30 4 -17 2 12 2 30 0 40 -3 9 -5 -1 -4 -23z"/>
<path d="M1483 2260 c0 -25 2 -35 4 -22 2 12 2 32 0 45 -2 12 -4 2 -4 -23z"/>
</g>
</svg>
