<?xml version="1.0" standalone="no"?>
<!DOCTYPE svg PUBLIC "-//W3C//DTD SVG 20010904//EN"
 "http://www.w3.org/TR/2001/REC-SVG-20010904/DTD/svg10.dtd">
<svg version="1.0" xmlns="http://www.w3.org/2000/svg"
 width="244.000000pt" height="305.000000pt" viewBox="0 0 244.000000 305.000000"
 preserveAspectRatio="xMidYMid meet">
<metadata>
Created by potrace 1.16, written by Peter Selinger 2001-2019
</metadata>
<g transform="translate(0.000000,305.000000) scale(0.100000,-0.100000)"
fill="#000000" stroke="none">
<path d="M887 2894 c-47 -154 -86 -463 -94 -746 l-6 -228 34 -14 c19 -8 43
-24 53 -35 19 -21 20 -21 40 -3 12 11 36 27 54 38 l32 18 0 141 c0 178 -15
374 -40 540 -20 128 -46 241 -35 150 3 -22 14 -101 24 -175 37 -255 49 -640
19 -640 -5 0 -22 -10 -38 -22 -16 -12 -32 -19 -35 -16 -3 3 -4 220 -3 484 3
393 5 473 15 444 l12 -35 -5 45 c-8 58 -19 81 -27 54z"/>
<path d="M1272 2880 c0 -14 2 -19 5 -12 2 6 2 18 0 25 -3 6 -5 1 -5 -13z"/>
<path d="M1557 2843 c-45 -161 -75 -413 -84 -709 l-6 -210 31 -13 c17 -7 38
-21 48 -32 20 -23 37 -24 53 -5 7 8 28 22 48 31 l36 17 -6 227 c-6 237 -24
416 -57 566 -22 104 -19 56 10 -130 26 -169 49 -627 31 -633 -6 -2 -25 -15
-40 -28 -16 -13 -34 -24 -40 -24 -14 0 -15 936 -1 945 10 6 9 40 -2 50 -3 3
-12 -20 -21 -52z"/>
<path d="M1192 2705 c-1 -104 -9 -264 -17 -355 -8 -91 -18 -241 -22 -333 -3
-92 -10 -164 -14 -160 -4 4 -15 53 -25 108 -18 107 -31 152 -41 142 -8 -9 -32
-144 -32 -187 -1 -30 4 -38 33 -54 40 -21 53 -64 35 -114 -11 -32 -41 -44 -54
-22 -12 19 -25 10 -25 -18 0 -57 65 -80 90 -31 16 30 28 22 27 -17 -1 -29 5
-41 26 -56 15 -11 27 -28 27 -39 0 -23 -4 -23 -35 -3 -35 23 -83 21 -107 -4
l-22 -21 42 -7 c57 -9 69 -27 77 -116 l7 -77 -49 18 c-28 10 -66 29 -87 43
-71 48 -136 143 -136 198 0 33 15 23 34 -24 23 -55 117 -149 176 -175 42 -19
45 -19 49 -3 2 10 -11 28 -35 47 -89 69 -144 140 -144 188 0 15 -7 30 -15 33
-23 9 -18 52 11 81 22 22 32 25 70 20 41 -4 44 -3 44 20 0 93 -128 107 -166
17 -16 -38 -20 -38 -38 -3 -31 61 -122 84 -157 40 -11 -13 -19 -36 -19 -51 0
-27 2 -27 43 -23 36 4 48 1 74 -21 39 -33 46 -59 22 -87 -10 -12 -19 -35 -19
-50 0 -29 58 -150 89 -184 32 -36 31 -42 -9 -91 -22 -27 -40 -58 -40 -70 0
-43 84 -89 120 -65 12 8 12 15 2 44 -16 45 -15 76 3 83 8 4 44 -2 80 -11 52
-15 67 -15 80 -5 12 10 15 10 15 -4 0 -9 -5 -15 -11 -13 -6 1 -16 -5 -21 -14
-13 -19 -2 -73 12 -64 12 7 12 -22 0 -50 -6 -13 -9 -15 -9 -5 -1 8 -8 2 -16
-14 -9 -16 -13 -38 -9 -49 4 -13 2 -17 -5 -13 -6 4 -11 25 -11 47 l0 39 -45 0
c-26 0 -60 -7 -77 -16 -39 -20 -65 -10 -104 42 -22 29 -29 49 -30 88 -2 67
-14 138 -27 154 -12 16 -58 16 -80 -1 -10 -6 -20 -28 -23 -47 -6 -39 16 -87
99 -220 50 -80 70 -152 60 -214 -3 -20 0 -49 7 -66 10 -25 10 -34 -3 -52 -20
-31 -297 -348 -303 -348 -3 0 3 15 14 32 11 18 73 127 137 243 116 207 117
210 112 261 -7 67 -37 134 -86 192 -21 26 -48 65 -60 87 -22 42 -28 109 -11
120 6 4 19 24 30 45 l20 39 -22 15 c-13 9 -43 16 -70 16 -37 0 -50 -5 -62 -22
-21 -30 -20 -53 5 -124 29 -85 22 -149 -21 -185 -28 -24 -30 -30 -20 -49 7
-13 8 -26 3 -31 -14 -14 -342 -131 -355 -127 -6 2 38 33 98 69 321 194 297
171 269 263 -8 27 -15 65 -15 85 0 20 -5 43 -11 51 -8 11 -9 -12 -6 -83 l5
-98 -33 7 c-31 6 -40 0 -132 -82 -212 -190 -283 -257 -279 -262 6 -5 21 0 299
89 175 57 187 63 187 85 0 35 21 39 77 14 59 -26 91 -55 110 -98 17 -40 7 -57
-36 -65 -26 -5 -31 -15 -64 -119 -72 -221 -146 -462 -143 -465 4 -4 304 322
389 423 27 32 27 34 12 70 -8 20 -12 40 -9 45 8 13 171 11 197 -2 12 -6 34
-23 50 -37 l27 -26 -36 -37 -36 -37 26 -127 c14 -71 26 -145 26 -167 0 -21 4
-38 8 -38 4 0 23 -73 42 -161 39 -183 34 -184 76 28 15 73 31 133 35 133 5 0
9 15 9 33 0 17 9 79 21 137 12 58 23 117 26 132 4 21 -2 36 -26 63 -37 43 -37
46 -8 73 35 32 71 42 164 42 l85 0 -6 -27 c-20 -79 -25 -70 110 -218 212 -233
274 -297 274 -283 0 7 -32 114 -71 238 -39 124 -75 241 -81 260 -12 42 -35 70
-57 70 -53 1 -51 48 5 110 23 25 53 45 84 55 55 18 70 14 70 -19 0 -25 -20
-17 293 -117 104 -33 191 -58 193 -56 4 4 -329 308 -368 335 -11 8 -30 11 -48
7 l-30 -7 7 91 c4 66 3 91 -6 91 -6 0 -11 -16 -11 -37 0 -21 -3 -68 -7 -106
l-6 -67 44 6 c44 6 45 5 129 -69 47 -41 113 -98 147 -128 62 -55 77 -74 46
-62 -15 6 -314 175 -359 203 -27 17 -54 71 -54 109 0 15 9 54 20 86 11 32 20
66 20 77 0 10 -9 27 -20 38 -36 36 -141 20 -140 -21 0 -8 12 -32 25 -54 42
-68 29 -123 -52 -221 -55 -66 -73 -105 -73 -157 0 -76 15 -102 68 -118 l47
-15 38 -114 c72 -219 105 -330 99 -330 -4 0 -42 62 -85 138 -43 75 -105 182
-138 237 -33 55 -64 111 -70 125 -18 42 -3 98 47 179 82 132 97 162 98 201 0
25 -6 46 -18 59 -21 23 -68 28 -83 9 -13 -16 -25 -99 -24 -154 1 -31 -7 -51
-29 -83 -39 -54 -72 -67 -116 -46 -17 8 -50 15 -72 15 l-39 0 0 -41 c0 -22 -5
-45 -11 -51 -7 -7 -10 0 -10 24 0 18 -5 46 -12 63 -6 16 -8 46 -5 67 7 39 -8
74 -26 62 -5 -3 -9 5 -9 18 1 20 2 21 11 6 13 -23 30 -22 103 2 47 16 61 17
68 8 11 -18 10 -52 -2 -84 -22 -58 38 -70 96 -21 34 29 29 57 -21 117 -31 37
-34 45 -23 60 76 103 108 167 108 214 0 12 -9 33 -19 45 -39 45 18 111 95 111
40 0 44 2 44 24 0 41 -33 71 -78 71 -47 0 -78 -23 -100 -75 l-14 -35 -21 44
c-22 47 -72 77 -108 66 -31 -10 -59 -46 -59 -77 0 -27 1 -27 44 -22 41 6 48 4
75 -24 36 -35 39 -57 11 -72 -13 -7 -20 -21 -20 -39 0 -49 -61 -127 -148 -189
l-32 -23 0 40 c0 43 20 71 50 71 25 0 50 10 50 21 0 5 -14 16 -30 24 -33 17
-63 13 -92 -13 -16 -13 -18 -13 -24 1 -8 21 3 36 33 48 22 8 25 14 20 44 -7
44 4 51 31 20 33 -38 63 -31 82 19 13 34 -2 58 -22 38 -24 -24 -47 -13 -59 27
-14 47 1 96 31 106 38 12 42 29 30 127 -6 51 -17 99 -24 106 -11 12 -15 3 -24
-50 -6 -34 -16 -94 -23 -132 -7 -41 -15 -63 -19 -55 -4 8 -10 95 -14 194 -4
99 -11 212 -16 250 -5 39 -10 108 -11 155 -1 65 -3 76 -8 45 l-7 -40 -12 55
c-16 68 -28 91 -35 64 -3 -11 -9 -32 -14 -49 -5 -20 -10 34 -13 165 l-6 195
-2 -190z m69 -405 l3 -155 6 105 c5 90 7 74 10 -115 4 -218 4 -219 10 -85 l6
135 3 -105 c9 -268 6 -443 -7 -448 -14 -4 -13 62 3 165 5 27 2 53 -6 73 l-14
30 -12 -32 -13 -33 7 40 c8 48 8 60 3 150 l-4 70 -6 -70 c-4 -38 -7 61 -7 220
0 177 3 274 8 250 4 -22 9 -110 10 -195z m16 -507 c-2 -16 -4 -5 -4 22 0 28 2
40 4 28 2 -13 2 -35 0 -50z m-7 -102 c0 -50 -4 -72 -16 -82 -13 -11 -14 -9 -7
17 4 16 8 53 7 82 0 28 3 52 8 52 4 0 8 -31 8 -69z m310 -98 c0 -42 -53 -125
-107 -170 -26 -22 -74 -50 -105 -61 l-58 -22 0 26 c0 14 4 23 10 19 17 -11
108 44 158 95 28 28 59 71 69 96 21 50 33 57 33 17z m-363 -90 c-3 -10 -5 -4
-5 12 0 17 2 24 5 18 2 -7 2 -21 0 -30z m40 5 c-3 -7 -5 -2 -5 12 0 14 2 19 5
13 2 -7 2 -19 0 -25z m-17 -19 c0 -16 -4 -28 -9 -25 -8 5 -3 56 5 56 2 0 4
-14 4 -31z m87 -326 c-3 -10 -5 -4 -5 12 0 17 2 24 5 18 2 -7 2 -21 0 -30z
m23 -83 c0 -5 -4 -10 -10 -10 -5 0 -10 5 -10 10 0 6 5 10 10 10 6 0 10 -4 10
-10z m-166 -37 c3 -21 5 -49 5 -63 -1 -19 -4 -14 -15 19 -7 24 -16 52 -19 62
-4 13 -1 19 8 19 9 0 17 -14 21 -37z m136 35 c-1 -2 -7 -25 -15 -53 -14 -50
-14 -50 -14 -13 -1 41 7 68 20 68 5 0 9 -1 9 -2z m-83 -160 c-3 -8 -6 -5 -6 6
-1 11 2 17 5 13 3 -3 4 -12 1 -19z m33 8 c0 -8 -4 -18 -10 -21 -5 -3 -10 3
-10 14 0 12 5 21 10 21 6 0 10 -6 10 -14z m-1 -82 c3 -25 4 -26 11 -9 12 31
24 -85 16 -153 -4 -39 -3 -52 4 -42 5 8 10 53 10 100 1 84 1 85 19 63 19 -22
19 -25 -1 -110 -11 -49 -25 -119 -33 -158 -21 -113 -47 -230 -51 -234 -2 -2
-3 127 -1 287 1 189 6 291 12 289 6 -2 12 -17 14 -33z"/>
<path d="M1282 755 c0 -16 2 -22 5 -12 2 9 2 23 0 30 -3 6 -5 -1 -5 -18z"/>
</g>
</svg>
