<?xml version="1.0" standalone="no"?>
<!DOCTYPE svg PUBLIC "-//W3C//DTD SVG 20010904//EN"
 "http://www.w3.org/TR/2001/REC-SVG-20010904/DTD/svg10.dtd">
<svg version="1.0" xmlns="http://www.w3.org/2000/svg"
 width="244.000000pt" height="305.000000pt" viewBox="0 0 244.000000 305.000000"
 preserveAspectRatio="xMidYMid meet">
<metadata>
Created by potrace 1.16, written by Peter Selinger 2001-2019
</metadata>
<g transform="translate(0.000000,305.000000) scale(0.100000,-0.100000)"
fill="#000000" stroke="none">
<path d="M965 2783 c0 -71 -6 -222 -13 -338 -7 -115 -15 -277 -18 -358 -4
-104 -9 -147 -18 -144 -7 2 -13 68 -16 208 l-6 204 -2 -171 c-1 -94 -5 -192
-8 -218 -5 -36 -4 -46 8 -46 8 0 27 -13 43 -30 16 -16 37 -30 48 -30 13 0 17
-5 13 -16 -3 -9 -6 -18 -6 -21 0 -3 -8 4 -17 15 -12 13 -36 23 -69 27 -48 6
-53 5 -73 -21 -31 -39 -24 -68 16 -72 33 -3 93 -54 93 -79 0 -8 -8 -25 -17
-39 -15 -23 -15 -33 -4 -85 6 -33 27 -86 46 -118 39 -66 42 -83 20 -101 -20
-17 -22 -14 -32 45 -8 47 -10 50 -41 53 -29 3 -32 6 -30 32 3 46 -16 60 -88
60 -98 0 -110 -26 -77 -157 15 -63 15 -67 -2 -79 -10 -8 -20 -13 -21 -11 -2 2
-13 121 -13 155 -1 13 -5 21 -10 17 -6 -3 -7 -41 -4 -91 l6 -85 -28 3 c-24 3
-41 -12 -136 -117 -59 -66 -129 -146 -155 -179 -52 -65 -50 -66 55 -20 68 30
75 30 55 -1 -9 -14 -14 -25 -10 -25 3 0 36 15 73 34 38 18 109 53 158 76 50
23 93 47 97 53 15 25 78 -62 78 -108 0 -8 -11 -20 -24 -25 -14 -5 -29 -17 -34
-27 -13 -25 -142 -545 -142 -573 0 -2 12 13 27 35 15 22 33 46 40 53 7 7 13
18 13 23 0 5 4 9 9 9 5 0 7 -18 4 -40 -3 -22 -3 -40 0 -40 5 0 57 83 208 329
55 89 58 96 52 143 l-6 51 58 -5 c50 -4 63 -10 87 -37 24 -27 27 -35 17 -54
-7 -12 -18 -28 -26 -35 -7 -7 -13 -20 -13 -27 0 -16 49 -332 80 -510 11 -66
20 -124 20 -129 0 -5 2 -7 5 -4 4 4 75 432 101 613 5 35 2 46 -21 74 l-28 32
20 27 c27 36 60 52 110 52 50 0 57 -9 44 -56 -8 -30 -7 -43 10 -73 26 -48 163
-269 217 -351 l43 -65 -5 55 c-5 52 -5 54 10 33 9 -12 26 -34 39 -49 l24 -28
-9 40 c-58 249 -131 520 -143 528 -9 6 -23 16 -33 22 -17 10 -17 12 0 57 16
42 56 87 77 87 4 0 9 -10 11 -22 2 -18 34 -37 168 -99 91 -43 166 -76 168 -74
2 2 -2 13 -8 25 -11 20 -10 21 12 15 12 -4 36 -14 51 -22 16 -8 31 -13 33 -11
4 5 -154 196 -236 286 -47 51 -63 62 -79 57 -20 -6 -21 -2 -22 87 l-1 93 -12
-82 c-7 -46 -17 -88 -24 -95 -21 -21 -24 15 -8 86 21 87 20 119 -2 139 -23 21
-110 23 -137 4 -15 -12 -16 -19 -7 -46 11 -31 11 -32 -21 -29 -45 3 -57 -7
-58 -50 -1 -20 -4 -48 -8 -61 -7 -25 -7 -25 -28 10 l-22 34 21 35 c60 99 86
202 58 234 -15 20 -5 69 20 91 11 10 34 18 52 20 17 1 34 8 36 14 8 24 -20 71
-47 78 -36 10 -38 10 -63 12 -22 2 -21 3 10 30 l32 27 0 100 c0 288 -51 826
-81 859 -6 5 -9 2 -9 -8 0 -28 -18 -19 -22 11 -2 15 -11 -22 -20 -83 -29 -186
-41 -345 -53 -700 -3 -87 -7 -161 -9 -162 -2 -2 -7 29 -10 70 -12 124 -39 132
-50 15 -14 -146 -24 -149 -25 -8 -2 185 -31 475 -58 564 -9 31 -19 2 -37 -104
-23 -138 -36 -297 -36 -440 -1 -136 -13 -145 -25 -17 -5 54 -11 80 -21 84 -22
8 -23 4 -31 -83 l-8 -79 -6 75 -5 75 -2 -72 c-1 -40 -6 -73 -10 -73 -5 0 -12
107 -15 238 -3 130 -13 298 -22 372 -9 74 -17 182 -18 240 -1 58 -3 95 -5 83
-5 -31 -22 -29 -22 2 0 14 -3 25 -8 25 -4 0 -7 -57 -7 -127z m534 -396 c2
-402 1 -455 -13 -466 -15 -12 -16 24 -16 388 0 276 4 422 12 466 7 36 13 65
13 65 1 0 2 -204 4 -453z m-69 -492 c19 -19 40 -35 47 -35 7 0 13 -10 13 -22
l-1 -23 -18 22 c-19 23 -79 39 -97 26 -18 -13 -34 -50 -34 -77 0 -22 4 -26 32
-26 33 0 68 -24 68 -47 0 -19 -27 -107 -48 -158 -10 -22 -37 -62 -61 -89 l-44
-50 7 39 c10 51 12 54 52 71 40 17 42 28 9 50 -47 31 -77 8 -113 -86 -9 -24
-10 -24 -22 17 -25 81 -78 104 -121 53 -16 -19 -17 -19 -27 8 -6 15 -14 43
-18 62 -3 19 -11 42 -17 50 -7 12 -6 25 4 46 11 23 22 30 52 32 31 3 37 7 37
27 0 13 -5 36 -10 52 -10 27 -9 27 5 8 10 -13 15 -36 13 -65 -3 -45 -3 -45
-37 -42 -33 4 -34 3 -27 -29 3 -18 11 -38 17 -46 13 -15 45 -17 54 -3 12 19
22 10 18 -14 -4 -18 1 -27 17 -36 12 -6 29 -30 39 -53 l18 -42 12 38 c7 20 20
43 30 49 10 7 21 25 25 40 5 24 9 26 25 16 25 -15 49 -4 62 28 15 41 5 57 -31
49 l-30 -7 0 56 c0 49 4 59 29 82 19 17 27 32 24 45 -8 29 9 23 47 -16z m-330
-29 c0 -1 -16 0 -35 2 -41 5 -44 14 -13 34 21 14 23 13 35 -10 7 -13 13 -25
13 -26z m58 -351 c8 -8 32 -113 32 -142 l0 -32 -41 22 c-43 23 -105 85 -94 95
3 3 12 -4 20 -15 20 -28 82 -66 95 -58 17 10 11 35 -14 60 -30 30 -56 66 -56
78 0 8 49 1 58 -8z m245 -83 c-16 -20 -49 -48 -72 -61 -35 -19 -42 -28 -38
-47 2 -13 0 -24 -4 -24 -5 0 -9 23 -9 51 0 45 2 50 15 39 18 -15 47 1 97 54
43 45 50 37 11 -12z m-606 -94 c-3 -7 -5 -2 -5 12 0 14 2 19 5 13 2 -7 2 -19
0 -25z m393 -23 c0 -8 -4 -15 -10 -15 -5 0 -7 7 -4 15 4 8 8 15 10 15 2 0 4
-7 4 -15z m-85 -5 c3 -5 17 -10 31 -10 22 0 23 -2 14 -20 -13 -25 -4 -60 15
-60 8 0 19 -9 25 -20 9 -16 6 -22 -15 -36 -22 -15 -26 -15 -40 0 -20 20 -36
20 -80 2 -31 -13 -35 -13 -51 5 -17 18 -16 19 19 19 42 0 46 8 39 78 -4 48 -3
52 16 52 11 0 24 -4 27 -10z m309 1 c3 -5 2 -29 -3 -54 -11 -59 -2 -71 43 -64
40 6 45 -2 17 -27 -18 -16 -22 -16 -50 -2 -38 20 -65 20 -85 0 -23 -22 -56 -9
-56 22 0 17 8 27 26 34 23 9 26 15 21 43 -5 30 -2 34 26 44 43 14 55 15 61 4z
m-755 -50 c12 -8 10 -16 -13 -46 -56 -73 -237 -227 -251 -213 -3 3 39 55 93
118 53 62 103 121 111 131 15 20 38 24 60 10z m1198 -108 c53 -53 81 -93 64
-93 -5 0 -38 19 -73 43 -47 31 -64 49 -66 68 -2 15 -12 35 -23 45 -10 9 -19
24 -19 32 0 17 27 -5 117 -95z m-1111 -8 c19 -15 19 -15 0 -30 -11 -8 -23 -15
-27 -15 -11 0 -21 38 -14 50 8 14 18 13 41 -5z m1258 -97 c30 -23 54 -44 52
-45 -6 -7 -72 27 -87 44 -21 23 -32 43 -25 43 3 0 30 -19 60 -42z m-803 -20
c7 -42 24 -88 34 -88 10 0 27 46 34 88 3 27 12 47 21 50 12 4 13 2 3 -9 -7 -7
-13 -29 -13 -48 0 -38 -29 -104 -45 -104 -16 1 -45 66 -45 103 0 20 -6 42 -12
49 -11 11 -10 13 2 9 9 -3 18 -23 21 -50z m-551 37 c0 -2 -21 -14 -47 -26 -27
-12 -57 -26 -68 -31 -15 -7 -14 -4 5 12 39 33 110 62 110 45z m900 -110 c23
-26 108 -242 116 -298 8 -52 -2 -44 -46 36 -57 104 -88 192 -93 264 -3 37 -3
57 0 43 2 -14 13 -34 23 -45z m-704 -47 c-31 -168 -75 -309 -116 -373 -28 -43
-25 -19 20 155 55 212 69 250 87 250 12 0 14 -7 9 -32z m143 -28 c0 -29 -2
-31 -9 -15 -5 11 -9 34 -9 50 -1 23 2 26 9 15 5 -8 9 -31 9 -50z m-93 -197
c-19 -32 -50 -84 -68 -115 -18 -32 -36 -58 -41 -58 -11 0 53 129 77 157 6 6
22 27 36 46 38 53 36 36 -4 -30z m830 -118 c15 -39 18 -52 7 -44 -16 14 -43
74 -43 97 0 24 11 8 36 -53z m-33 -40 c20 -58 12 -58 -13 1 -23 52 -24 58 -11
50 5 -4 16 -26 24 -51z"/>
<path d="M1021 2764 c0 -11 3 -14 6 -6 3 7 2 16 -1 19 -3 4 -6 -2 -5 -13z"/>
<path d="M930 2733 c0 -5 -7 -64 -15 -133 -8 -69 -14 -152 -14 -185 1 -41 5
-16 14 75 7 74 16 161 20 193 4 31 5 57 1 57 -3 0 -6 -3 -6 -7z"/>
<path d="M1032 2690 c0 -19 2 -27 5 -17 2 9 2 25 0 35 -3 9 -5 1 -5 -18z"/>
<path d="M1043 2600 c0 -25 2 -35 4 -22 2 12 2 32 0 45 -2 12 -4 2 -4 -23z"/>
<path d="M1053 2485 c0 -33 2 -45 4 -27 2 18 2 45 0 60 -2 15 -4 0 -4 -33z"/>
<path d="M1064 2325 c0 -55 1 -76 3 -47 2 29 2 74 0 100 -2 26 -3 2 -3 -53z"/>
</g>
</svg>
