<?xml version="1.0" standalone="no"?>
<!DOCTYPE svg PUBLIC "-//W3C//DTD SVG 20010904//EN"
 "http://www.w3.org/TR/2001/REC-SVG-20010904/DTD/svg10.dtd">
<svg version="1.0" xmlns="http://www.w3.org/2000/svg"
 width="244.000000pt" height="305.000000pt" viewBox="0 0 244.000000 305.000000"
 preserveAspectRatio="xMidYMid meet">
<metadata>
Created by potrace 1.16, written by Peter Selinger 2001-2019
</metadata>
<g transform="translate(0.000000,305.000000) scale(0.100000,-0.100000)"
fill="#000000" stroke="none">
<path d="M1057 2402 c2 -424 1 -504 -11 -490 -14 19 -26 228 -26 461 0 70 -4
127 -9 127 -5 0 -12 34 -16 75 -4 41 -11 87 -16 102 -9 29 -9 27 11 -162 5
-44 9 -191 9 -326 l1 -245 -31 -23 c-17 -13 -33 -21 -35 -18 -2 2 -3 219 -2
483 3 474 3 478 19 399 10 -44 17 -68 18 -54 2 41 -30 172 -40 162 -4 -4 -21
-91 -38 -193 -31 -187 -51 -452 -51 -667 l0 -111 35 -21 c20 -11 38 -27 41
-36 9 -21 17 -19 53 16 34 32 64 35 69 6 3 -13 -3 -17 -27 -17 -34 0 -39 -6
-62 -70 l-16 -45 -18 43 c-19 48 -39 62 -84 62 -40 0 -71 -31 -71 -70 0 -30 1
-31 35 -24 31 5 39 2 70 -29 37 -37 45 -71 19 -81 -14 -5 -16 -15 -10 -59 4
-28 7 -70 6 -92 -1 -22 4 -76 10 -120 9 -57 9 -90 2 -115 l-11 -35 0 40 c0 22
-3 72 -7 111 -5 59 -9 71 -23 68 -66 -12 -70 -15 -81 -48 -9 -27 -8 -42 6 -77
19 -54 22 -77 9 -81 -16 -5 -55 83 -55 125 0 21 11 58 25 85 l25 47 -21 18
c-29 23 -84 22 -109 -3 -24 -24 -25 -47 -5 -120 8 -30 15 -79 15 -108 0 -44
-4 -57 -26 -77 -22 -20 -25 -30 -20 -57 6 -31 4 -34 -37 -49 -23 -9 -73 -29
-112 -44 -168 -66 -171 -67 -155 -51 14 15 175 128 283 199 44 29 48 35 42 62
-3 17 -11 67 -17 113 -16 112 -33 107 -24 -8 l7 -90 -28 6 c-25 5 -44 -10
-200 -167 -95 -95 -170 -175 -168 -178 3 -2 22 3 42 12 21 8 118 44 216 78
158 56 177 66 177 86 0 12 5 25 11 28 12 8 69 -14 69 -26 0 -5 -22 -49 -49
-97 -27 -48 -48 -88 -46 -90 2 -2 39 19 84 47 44 28 85 51 91 51 5 0 10 -11
10 -25 0 -18 -7 -26 -25 -31 -13 -3 -29 -11 -34 -18 -6 -7 -28 -75 -50 -152
-22 -76 -56 -197 -76 -267 -20 -71 -35 -133 -33 -138 2 -5 44 41 93 102 204
253 227 280 230 277 1 -2 -1 -28 -7 -58 -23 -133 -55 -345 -53 -348 1 -1 30
60 65 135 35 76 83 178 107 227 39 80 43 94 37 138 l-7 48 32 0 c22 0 40 -9
56 -26 31 -34 31 -45 0 -74 -14 -13 -25 -34 -25 -46 0 -20 105 -615 113 -638
3 -10 26 107 91 459 l33 180 -21 29 c-12 15 -25 34 -31 42 -13 18 40 72 75 76
24 3 25 1 22 -44 -3 -37 4 -63 33 -125 20 -43 57 -123 83 -178 25 -55 55 -113
65 -130 l19 -30 -6 45 c-3 25 -13 88 -22 140 -8 52 -18 118 -21 145 l-6 50 49
-61 c174 -214 289 -352 292 -349 4 3 -55 216 -138 500 -16 57 -27 69 -78 91
-6 3 -12 54 -6 54 4 0 40 -18 80 -41 41 -22 74 -38 74 -36 0 3 -18 37 -40 76
-22 39 -40 75 -40 81 0 13 70 42 86 36 7 -3 14 -17 16 -31 3 -24 13 -30 83
-55 44 -16 143 -51 220 -79 77 -27 141 -49 142 -47 1 1 -76 81 -173 177 -157
156 -178 174 -205 171 l-31 -2 2 57 c1 32 1 76 0 98 -3 38 -3 38 -10 -15 -5
-30 -8 -81 -9 -113 l-1 -59 38 6 c35 6 41 2 97 -52 33 -31 96 -95 140 -141 90
-95 95 -97 -125 42 -204 129 -215 146 -178 288 21 83 21 88 5 113 -14 21 -25
26 -60 26 -24 0 -52 -7 -63 -15 -19 -14 -18 -15 9 -65 15 -27 27 -63 27 -79 0
-39 -25 -106 -48 -132 -27 -28 -37 -8 -17 31 9 17 19 53 22 81 5 39 2 53 -12
69 -19 21 -51 26 -75 10 -9 -6 -17 -5 -21 1 -3 6 -9 -37 -13 -95 -4 -58 -5
-110 -1 -116 3 -5 2 -10 -3 -10 -24 0 -20 160 8 321 14 76 12 104 -5 119 -23
19 -18 39 19 76 26 26 42 34 69 34 44 0 53 12 37 50 -28 67 -114 60 -147 -11
-10 -21 -20 -38 -23 -38 -3 0 -14 19 -25 42 -15 31 -28 44 -52 52 -37 10 -40
17 -18 35 13 11 20 10 41 -1 14 -7 30 -21 35 -32 10 -17 12 -16 44 10 18 15
42 35 53 43 19 14 20 23 11 254 -7 208 -33 503 -45 515 -7 7 -4 -27 11 -162 8
-71 17 -227 21 -348 l7 -220 -34 -29 c-19 -16 -38 -29 -42 -30 -4 0 -6 227 -5
505 2 278 0 505 -3 505 -4 0 -14 -39 -23 -87 -9 -49 -18 -97 -20 -108 -2 -11
-12 -81 -22 -155 l-18 -135 -7 75 c-4 41 -12 137 -19 214 -6 76 -15 147 -18
157 -4 10 -6 -188 -5 -439 1 -390 -1 -447 -11 -389 -12 63 -26 98 -26 66 0
-11 -2 -11 -10 1 -7 11 -10 -6 -11 -55 -2 -121 -14 -142 -21 -38 -4 51 -10 98
-14 105 -8 13 -9 17 -19 153 -6 92 -41 288 -55 315 -10 17 -9 17 -41 -135 -11
-55 -22 -147 -26 -205 -3 -58 -11 -127 -19 -154 -8 -27 -14 -70 -14 -95 -1
-36 -3 -42 -11 -28 -5 9 -14 138 -19 285 -9 259 -35 597 -48 633 -4 10 -6
-210 -5 -489z m231 -252 c5 -85 6 -189 2 -230 -6 -72 -7 -70 -8 45 -1 66 -5
172 -8 235 -4 63 -4 113 -1 110 3 -3 10 -75 15 -160z m-198 -284 c0 -3 -4 -8
-10 -11 -5 -3 -10 -1 -10 4 0 6 5 11 10 11 6 0 10 -2 10 -4z m310 -6 c0 -5 -4
-10 -10 -10 -5 0 -10 5 -10 10 0 6 5 10 10 10 6 0 10 -4 10 -10z m-274 -106
c-3 -9 -6 -20 -6 -25 0 -5 -7 -9 -15 -9 -18 0 -20 21 -3 38 17 17 31 15 24 -4z
m254 -20 c0 -21 -27 -17 -33 5 -3 11 -2 22 1 25 8 9 32 -14 32 -30z m-350 -14
c10 -24 10 -37 1 -56 -6 -14 -11 -39 -11 -57 0 -24 -3 -28 -10 -17 -5 8 -10
27 -10 41 0 15 -7 32 -15 39 -20 16 -19 39 2 62 22 25 29 23 43 -12z m458 18
c17 -17 15 -56 -3 -74 -8 -9 -15 -27 -15 -42 0 -15 -7 -35 -14 -44 -11 -16
-14 -9 -19 53 -8 99 14 144 51 107z m-188 -86 c0 -13 -4 -20 -10 -17 -5 3 -10
21 -10 38 0 24 3 28 10 17 5 -8 10 -25 10 -38z m-140 -27 c0 -7 9 -15 20 -18
11 -3 27 -21 35 -41 9 -20 17 -36 20 -36 3 0 11 16 19 35 9 20 26 39 39 44 14
5 27 21 31 35 3 14 10 26 15 26 17 0 32 -29 29 -57 -3 -26 -6 -28 -39 -25 -42
3 -53 -8 -78 -73 l-18 -46 -12 43 c-19 62 -35 77 -82 72 -38 -4 -39 -3 -39 29
0 45 18 62 42 40 10 -9 18 -22 18 -28z m-192 -63 c15 -28 47 -76 70 -106 57
-72 49 -92 -11 -30 -50 51 -97 136 -97 175 0 28 4 24 38 -39z m442 21 c0 -24
-3 -33 -9 -25 -7 12 -4 62 5 62 2 0 4 -17 4 -37z m136 10 c-4 -16 -15 -39 -25
-53 -10 -14 -21 -35 -25 -47 -7 -21 -54 -76 -88 -102 -37 -28 -19 17 28 71 25
29 58 77 72 106 28 56 48 69 38 25z m-452 -87 c9 -15 16 -32 14 -38 -8 -23
-39 46 -43 95 -4 47 -4 48 3 11 5 -23 16 -54 26 -68z m290 -18 c-9 -18 -19
-28 -21 -21 -2 6 4 27 13 45 9 18 19 28 21 21 2 -6 -4 -27 -13 -45z m-214 -19
c0 -18 -10 -8 -25 24 l-16 32 21 -24 c11 -13 20 -27 20 -32z m155 20 c-9 -17
-19 -29 -21 -26 -8 7 15 57 26 57 6 0 4 -13 -5 -31z m-365 -99 c0 -16 -4 -32
-10 -35 -6 -4 -10 10 -10 35 0 25 4 39 10 35 6 -3 10 -19 10 -35z m570 8 c0
-7 -5 -20 -10 -28 -8 -12 -10 -9 -10 13 0 15 5 27 10 27 6 0 10 -6 10 -12z
m-350 -23 c0 -8 -4 -15 -9 -15 -13 0 -22 16 -14 24 11 11 23 6 23 -9z m138 3
c-6 -18 -28 -21 -28 -4 0 9 7 16 16 16 9 0 14 -5 12 -12z m-275 -97 c-5 -41
-2 -52 16 -70 34 -34 47 -22 43 37 l-4 52 33 0 c30 0 31 -1 14 -13 -25 -19
-14 -64 18 -69 27 -4 35 -39 12 -58 -10 -8 -15 -9 -15 -1 0 6 -19 11 -47 11
-27 0 -53 4 -58 8 -19 14 -34 77 -28 119 8 59 23 44 16 -16z m394 -17 c-2 -36
-11 -72 -18 -79 -8 -7 -41 -15 -74 -17 -58 -3 -60 -2 -60 22 0 18 6 26 22 28
27 4 39 37 22 58 -14 17 -12 19 20 29 24 7 24 7 17 -48 -6 -57 0 -72 28 -61
20 8 29 39 27 92 -1 26 3 42 10 42 8 0 10 -20 6 -66z m-599 -86 c-2 -6 -12 1
-21 16 -10 15 -15 32 -11 38 8 13 37 -37 32 -54z m172 -9 c0 -6 -4 -7 -10 -4
-5 3 -10 11 -10 16 0 6 5 7 10 4 6 -3 10 -11 10 -16z m630 -2 c0 -18 -27 -53
-35 -46 -7 8 15 59 27 59 4 0 8 -6 8 -13z m-880 -65 c0 -18 -69 -96 -78 -88
-6 7 58 106 69 106 5 0 9 -8 9 -18z m135 -19 c4 -10 8 -57 10 -106 2 -48 7
-96 10 -107 5 -16 -18 -52 -97 -152 -57 -73 -116 -150 -131 -171 -16 -21 -31
-37 -33 -34 -3 3 46 106 108 228 l113 224 -2 68 c-2 65 7 86 22 50z m718 -34
c16 -88 15 -88 58 -100 22 -7 44 -20 48 -28 5 -9 34 -105 65 -214 31 -108 60
-205 63 -215 16 -45 -21 16 -92 153 -43 83 -102 196 -132 252 -34 66 -53 115
-53 137 0 77 30 87 43 15z m135 -4 c18 -25 30 -45 26 -45 -18 0 -92 64 -87 76
9 24 27 15 61 -31z m-483 -72 c-3 -14 -12 -35 -20 -46 -13 -18 -14 -18 -29 11
-21 40 -20 66 1 28 15 -28 16 -29 29 -11 8 10 14 25 14 32 0 7 3 13 6 13 3 0
3 -12 -1 -27z m-328 -55 c-3 -8 -6 -5 -6 6 -1 11 2 17 5 13 3 -3 4 -12 1 -19z
m83 17 c0 -4 -116 -394 -126 -424 -14 -43 -8 12 18 154 16 88 31 183 35 210 3
28 11 53 17 57 12 8 56 11 56 3z m441 -26 c4 -13 14 -49 23 -79 8 -30 32 -111
51 -178 20 -68 34 -126 32 -129 -3 -2 -8 5 -12 18 -4 12 -24 58 -45 103 -79
171 -90 199 -90 241 0 23 3 45 7 49 12 11 26 1 34 -25z m79 9 c0 -18 -2 -20
-9 -8 -6 8 -7 18 -5 22 9 14 14 9 14 -14z m-225 -105 c19 -29 18 -52 -14 -213
-23 -114 -25 -96 -9 67 9 93 9 128 0 147 -15 34 1 33 23 -1z m-38 -345 c-3 -8
-6 -5 -6 6 -1 11 2 17 5 13 3 -3 4 -12 1 -19z"/>
<path d="M1551 2844 c0 -11 3 -14 6 -6 3 7 2 16 -1 19 -3 4 -6 -2 -5 -13z"/>
<path d="M1042 2805 c0 -16 2 -22 5 -12 2 9 2 23 0 30 -3 6 -5 -1 -5 -18z"/>
<path d="M1393 2785 c0 -22 2 -30 4 -17 2 12 2 30 0 40 -3 9 -5 -1 -4 -23z"/>
<path d="M1561 2794 c0 -11 3 -14 6 -6 3 7 2 16 -1 19 -3 4 -6 -2 -5 -13z"/>
<path d="M1572 2725 c0 -16 2 -22 5 -12 2 9 2 23 0 30 -3 6 -5 -1 -5 -18z"/>
<path d="M1033 2700 c0 -25 2 -35 4 -22 2 12 2 32 0 45 -2 12 -4 2 -4 -23z"/>
<path d="M1383 2680 c0 -25 2 -35 4 -22 2 12 2 32 0 45 -2 12 -4 2 -4 -23z"/>
<path d="M1023 2580 c0 -25 2 -35 4 -22 2 12 2 32 0 45 -2 12 -4 2 -4 -23z"/>
<path d="M1373 2570 c0 -30 2 -43 4 -27 2 15 2 39 0 55 -2 15 -4 2 -4 -28z"/>
<path d="M1364 2350 c0 -63 1 -89 3 -57 2 31 2 83 0 115 -2 31 -3 5 -3 -58z"/>
</g>
</svg>
