<?xml version="1.0" standalone="no"?>
<!DOCTYPE svg PUBLIC "-//W3C//DTD SVG 20010904//EN"
 "http://www.w3.org/TR/2001/REC-SVG-20010904/DTD/svg10.dtd">
<svg version="1.0" xmlns="http://www.w3.org/2000/svg"
 width="244.000000pt" height="305.000000pt" viewBox="0 0 244.000000 305.000000"
 preserveAspectRatio="xMidYMid meet">
<metadata>
Created by potrace 1.16, written by Peter Selinger 2001-2019
</metadata>
<g transform="translate(0.000000,305.000000) scale(0.100000,-0.100000)"
fill="#000000" stroke="none">
<path d="M1480 2892 c0 -11 -3 -29 -6 -39 -5 -15 -4 -15 5 -3 8 11 10 -17 9
-105 l-1 -120 -9 85 c-5 47 -15 109 -21 138 -10 43 -11 -38 -9 -428 3 -394 1
-481 -10 -478 -15 5 -18 271 -7 498 4 77 4 106 -2 75 -4 -27 -11 -166 -15
-307 -7 -258 -22 -349 -26 -155 l-2 102 -6 -95 c-3 -52 -7 -79 -8 -59 -3 61
-14 99 -28 99 -16 0 -21 -18 -31 -110 l-7 -75 -7 60 c-4 33 -7 107 -8 165 -2
161 -42 472 -59 456 -15 -16 -43 -244 -52 -441 -13 -262 -14 -273 -24 -170 -4
44 -11 90 -14 102 -13 41 -33 9 -41 -63 -6 -59 -8 -41 -14 121 -10 260 -25
490 -43 614 -8 58 -14 106 -14 108 0 2 -3 3 -7 3 -5 0 -7 -30 -6 -67 l1 -68
-7 55 c-16 120 -28 110 -29 -25 -1 -72 -4 -143 -6 -160 -3 -16 -7 -100 -9
-185 -4 -125 -4 -132 2 -38 11 206 21 139 20 -151 0 -236 -2 -281 -14 -281
-12 0 -15 27 -18 138 l-3 137 -2 -147 c-2 -126 -4 -147 -17 -142 -13 5 -15 35
-15 187 0 99 -2 178 -5 176 -10 -11 -6 -384 5 -387 5 -2 18 -11 27 -20 15 -15
13 -17 -25 -27 -56 -14 -84 -39 -80 -73 3 -23 7 -27 30 -24 49 6 106 -81 72
-109 -29 -24 -4 -141 45 -221 26 -42 29 -52 19 -73 -20 -44 -33 -27 -40 50 -3
26 -7 30 -35 33 -30 3 -33 6 -33 36 0 17 -5 37 -12 44 -16 16 -110 15 -132 -1
-19 -14 -19 -23 0 -179 5 -38 3 -48 -9 -48 -19 0 -27 30 -27 103 0 35 -4 57
-11 57 -8 0 -9 -25 -4 -84 6 -82 6 -84 -14 -79 -28 7 -36 -1 -154 -146 -131
-162 -130 -161 -145 -176 -23 -25 3 -23 65 5 48 22 63 25 63 14 0 -8 -4 -14
-9 -14 -9 0 -24 -30 -18 -36 3 -4 130 59 255 126 34 18 62 39 62 46 0 20 13
17 32 -5 43 -51 53 -115 18 -126 -29 -9 -33 -22 -79 -220 -23 -99 -51 -217
-61 -262 -23 -95 -23 -93 -10 -93 6 0 10 4 10 10 0 5 15 30 33 56 36 52 45 41
29 -34 -6 -23 -7 -42 -3 -42 6 0 88 140 204 348 45 82 48 89 41 139 l-6 53 41
0 c52 0 92 -20 111 -54 12 -24 11 -29 -8 -56 -12 -16 -22 -42 -22 -57 0 -34
89 -625 94 -631 3 -2 8 18 11 45 4 26 22 147 40 268 51 337 51 338 26 374 -15
20 -20 38 -16 52 10 31 64 59 113 59 l42 0 -6 -55 c-6 -51 -4 -58 37 -127 89
-151 126 -215 158 -270 37 -67 53 -74 40 -20 -17 74 -9 75 39 4 27 -41 48 -65
50 -56 2 9 -8 61 -21 117 -14 56 -43 175 -63 265 -36 152 -40 165 -66 178 -20
11 -28 22 -28 42 0 30 49 110 59 96 11 -15 292 -156 298 -150 4 3 -2 15 -12
26 -10 11 -16 22 -14 24 2 3 44 -13 93 -35 49 -22 91 -37 94 -35 2 3 -63 84
-144 181 -131 156 -151 175 -172 170 l-24 -6 6 91 c4 51 3 90 -2 90 -5 0 -12
-37 -16 -82 -7 -79 -17 -110 -32 -95 -10 10 -6 80 6 112 13 34 13 91 0 116 -9
16 -22 19 -73 19 -74 0 -103 -16 -94 -50 7 -29 -9 -51 -30 -43 -23 9 -43 -24
-43 -71 l0 -40 -20 20 -21 20 41 81 c50 97 63 182 35 213 -16 18 -16 21 4 54
23 36 39 46 77 46 20 0 24 5 24 30 0 17 -9 39 -20 50 -16 16 -28 19 -66 13
-45 -6 -46 -6 -35 16 7 12 19 25 27 28 8 3 19 13 24 23 12 23 -5 509 -25 687
-19 169 -55 350 -55 275z m-251 -844 c0 -244 -3 -437 -6 -430 -2 6 -12 12 -20
12 -14 0 -15 33 -10 308 4 261 22 552 34 552 2 0 3 -199 2 -442z m-139 -142
c0 -7 14 -27 30 -44 17 -18 30 -42 29 -54 0 -23 0 -22 -10 2 -25 61 -66 76
-112 40 -16 -13 -28 -16 -32 -10 -8 13 4 32 16 25 5 -4 21 7 35 24 28 33 44
39 44 17z m308 -38 c-40 -8 -68 -41 -68 -79 0 -26 3 -29 31 -29 19 0 37 -7 45
-17 16 -21 18 -69 4 -78 -5 -3 -10 -21 -10 -38 0 -42 -40 -127 -79 -168 -28
-29 -31 -30 -31 -11 0 36 21 70 51 83 16 6 29 15 29 20 0 11 -41 39 -57 39
-21 0 -53 -42 -64 -84 l-11 -40 -21 54 c-28 69 -63 87 -102 50 -14 -13 -28
-21 -31 -17 -4 3 -9 28 -11 54 -3 26 -12 55 -20 64 -30 35 14 103 59 91 11 -3
24 1 30 9 8 11 9 10 4 -4 -3 -10 -6 -23 -6 -28 0 -4 -13 -6 -30 -2 -27 5 -30
3 -30 -19 0 -29 26 -68 45 -68 7 0 21 7 29 16 15 14 16 12 16 -19 0 -22 6 -37
15 -41 9 -3 23 -22 31 -41 8 -19 16 -35 19 -35 3 0 11 16 19 35 8 19 22 38 31
41 10 4 15 20 16 48 0 34 2 37 9 19 19 -47 80 -11 80 45 0 22 -3 24 -29 19
-33 -7 -41 4 -41 58 0 24 9 45 30 68 17 19 30 40 30 48 0 7 11 3 26 -12 l26
-24 -34 -7z m82 -18 c0 -19 -11 -26 -23 -14 -8 8 3 34 14 34 5 0 9 -9 9 -20z
m-315 -344 c9 -13 19 -56 22 -96 l6 -72 -30 19 c-48 30 -79 57 -86 76 -5 12 7
6 35 -17 23 -20 48 -36 55 -36 23 0 14 36 -18 76 -50 63 -54 74 -25 74 16 0
32 -9 41 -24z m226 -73 c-16 -31 -83 -83 -105 -83 -3 0 -5 17 -5 38 1 23 3 28
6 15 6 -31 21 -29 68 12 45 40 49 42 36 18z m264 -89 c-3 -24 -11 -44 -16 -44
-6 0 -8 8 -5 18 2 9 8 37 12 62 10 57 18 23 9 -36z m-535 -37 c31 -11 35 -15
32 -45 -3 -27 1 -34 22 -42 35 -13 34 -47 -1 -61 -21 -8 -28 -7 -35 6 -11 19
-41 19 -80 -1 -25 -13 -32 -14 -39 -2 -16 24 -9 33 24 33 l32 0 -3 63 c-2 34
0 62 5 62 4 0 24 -6 43 -13z m276 -46 c-7 -62 -2 -71 45 -71 21 0 24 -11 8
-27 -9 -9 -20 -7 -44 4 -38 18 -90 11 -81 -12 4 -12 1 -12 -19 -3 -37 17 -40
40 -9 64 21 18 26 28 22 53 -4 25 -1 31 13 31 10 0 21 5 24 10 3 6 15 10 27
10 19 0 20 -4 14 -59z m-706 9 c12 -7 6 -21 -34 -80 -27 -38 -62 -80 -80 -92
-17 -12 -46 -34 -64 -50 -38 -32 -60 -37 -39 -8 26 37 192 239 197 239 3 0 12
-3 20 -9z m54 -22 c-8 -29 -22 -46 -47 -60 -22 -11 -20 -7 17 49 24 38 40 43
30 11z m1098 -86 c2 -5 39 -37 83 -73 99 -80 109 -89 102 -95 -3 -3 -36 10
-74 30 -53 28 -76 47 -101 85 -17 28 -32 52 -32 55 0 9 18 7 22 -2z m-102 -37
c0 -20 10 -29 53 -50 52 -24 121 -75 103 -75 -13 0 -216 121 -216 130 0 13 13
20 37 20 18 0 23 -5 23 -25z m38 -3 c2 -7 -2 -10 -12 -6 -9 3 -16 11 -16 16 0
13 23 5 28 -10z m-575 -85 c3 -24 11 -57 17 -73 11 -27 12 -28 25 -10 8 10 17
42 21 72 3 30 10 54 14 54 13 0 -11 -113 -30 -146 -19 -29 -20 -52 -21 -315
-1 -303 -2 -303 -39 -29 -28 201 -28 203 3 248 29 41 33 71 16 104 -14 25 -28
138 -19 138 4 0 10 -19 13 -43z m-613 -6 c0 -5 -7 -12 -16 -15 -14 -5 -15 -4
-4 9 14 17 20 19 20 6z m337 -43 c-3 -7 -5 -2 -5 12 0 14 2 19 5 13 2 -7 2
-19 0 -25z m-56 -89 c-29 -143 -45 -202 -78 -279 -37 -87 -61 -127 -49 -80 3
14 24 102 47 195 51 215 47 203 67 208 23 5 23 6 13 -44z m56 29 c-35 -86 -50
-118 -54 -115 -7 8 20 112 31 119 17 12 29 9 23 -4z m552 -49 c-14 -50 -25
-29 -14 28 4 24 10 32 16 26 7 -7 6 -25 -2 -54z m77 -104 c4 -12 -5 -6 -20 15
-30 39 -41 73 -31 91 7 10 32 -41 51 -106z m1 -68 c50 -83 88 -166 79 -174 -2
-2 -20 25 -40 61 -20 36 -53 96 -73 134 -48 84 -50 90 -30 74 9 -7 38 -50 64
-95z m137 -122 c33 -83 38 -100 30 -92 -28 28 -83 148 -89 197 l-6 45 21 -45
c12 -25 32 -72 44 -105z m-861 -31 c-11 -31 -19 -42 -21 -31 -4 18 26 92 34
85 2 -3 -4 -27 -13 -54z"/>
<path d="M962 2770 c0 -14 2 -19 5 -12 2 6 2 18 0 25 -3 6 -5 1 -5 -13z"/>
<path d="M1422 2730 c0 -14 2 -19 5 -12 2 6 2 18 0 25 -3 6 -5 1 -5 -13z"/>
<path d="M952 2720 c0 -14 2 -19 5 -12 2 6 2 18 0 25 -3 6 -5 1 -5 -13z"/>
<path d="M937 2616 c-4 -27 -6 -70 -6 -95 1 -35 4 -26 10 34 10 90 7 136 -4
61z"/>
<path d="M1403 2530 c0 -25 2 -35 4 -22 2 12 2 32 0 45 -2 12 -4 2 -4 -23z"/>
<path d="M923 2385 c0 -44 2 -61 4 -37 2 23 2 59 0 80 -2 20 -4 1 -4 -43z"/>
<path d="M1394 2370 c0 -52 1 -74 3 -47 2 26 2 68 0 95 -2 26 -3 4 -3 -48z"/>
</g>
</svg>
