<?xml version="1.0" standalone="no"?>
<!DOCTYPE svg PUBLIC "-//W3C//DTD SVG 20010904//EN"
 "http://www.w3.org/TR/2001/REC-SVG-20010904/DTD/svg10.dtd">
<svg version="1.0" xmlns="http://www.w3.org/2000/svg"
 width="244.000000pt" height="305.000000pt" viewBox="0 0 244.000000 305.000000"
 preserveAspectRatio="xMidYMid meet">
<metadata>
Created by potrace 1.16, written by Peter Selinger 2001-2019
</metadata>
<g transform="translate(0.000000,305.000000) scale(0.100000,-0.100000)"
fill="#000000" stroke="none">
<path d="M1475 2883 c-7 -26 -8 -26 -15 -8 -21 57 -59 -330 -67 -670 l-6 -280
27 -24 c35 -33 33 -41 -8 -34 -29 4 -37 1 -50 -20 -10 -14 -18 -38 -19 -53 -2
-26 2 -29 33 -34 44 -6 72 -49 52 -80 -6 -11 -12 -32 -12 -47 0 -36 -56 -149
-86 -172 -26 -21 -45 -81 -25 -81 21 0 57 29 91 75 18 25 36 43 38 40 11 -11
-56 -96 -97 -123 l-46 -30 -3 44 c-2 23 2 62 8 84 9 33 18 44 46 56 41 17 43
28 9 50 -39 25 -69 7 -93 -57 l-19 -53 -18 53 c-21 64 -50 83 -90 57 -33 -21
-32 -35 4 -47 36 -13 50 -45 58 -127 l6 -65 -29 19 c-50 30 -95 77 -115 119
l-20 40 33 -40 c45 -54 90 -95 105 -95 25 0 13 38 -27 86 -22 27 -40 54 -40
61 0 7 -4 13 -8 13 -10 0 -32 68 -32 99 0 12 -5 30 -12 40 -9 14 -8 26 2 50
10 26 18 31 46 31 35 0 39 7 34 55 -3 29 -29 55 -56 55 -12 0 -33 -13 -48 -30
-24 -29 -26 -29 -36 -11 -14 27 -13 31 8 31 10 0 32 15 49 33 l32 32 -2 205
c-1 144 -3 183 -8 130 -3 -41 -4 -2 -2 88 4 108 2 162 -5 162 -6 0 -9 21 -7
53 3 49 2 50 -5 12 -6 -29 -8 -16 -6 50 2 54 0 78 -4 60 -7 -27 -8 -27 -9 -6
0 13 -3 22 -6 19 -3 -2 1 -74 9 -159 8 -85 18 -250 22 -367 6 -208 6 -214 -14
-233 -12 -10 -24 -19 -27 -19 -4 0 -5 221 -3 490 2 346 0 490 -8 490 -32 0
-74 -365 -81 -710 l-5 -265 26 -24 c35 -33 33 -41 -8 -34 -45 7 -89 -32 -84
-75 3 -23 8 -28 42 -32 33 -4 42 -11 59 -43 18 -35 18 -39 3 -56 -9 -10 -16
-29 -16 -42 0 -39 29 -129 58 -181 l27 -48 -20 -36 c-17 -33 -20 -34 -32 -18
-7 10 -13 39 -13 66 l0 48 -39 0 -40 0 6 36 c7 43 -5 54 -64 54 -66 0 -76 -17
-68 -114 3 -44 9 -84 11 -88 3 -4 1 -16 -5 -25 -10 -19 -11 -17 -30 107 -9 54
-9 54 -10 -32 -1 -84 -2 -88 -23 -88 -17 0 -55 -41 -155 -167 -73 -92 -131
-169 -128 -171 2 -2 18 0 34 6 32 11 40 5 19 -16 -22 -22 3 -12 159 66 111 55
158 83 164 100 5 12 13 22 18 22 19 0 61 -46 76 -83 l15 -37 -35 -37 c-19 -20
-35 -43 -35 -51 0 -8 -16 -81 -35 -161 -48 -204 -75 -330 -75 -349 0 -10 11 0
26 23 l25 40 -7 -50 -6 -50 79 130 c44 72 93 155 110 185 17 30 42 75 57 101
22 39 24 50 15 82 -5 21 -7 42 -4 47 11 17 88 11 122 -9 44 -27 51 -56 22 -94
l-23 -31 44 -306 c24 -168 46 -316 50 -330 8 -28 12 -7 54 285 53 357 51 338
26 382 -21 38 -21 42 -6 66 22 32 63 49 112 45 32 -2 39 -6 36 -23 -9 -67 -4
-84 44 -165 28 -47 83 -140 123 -208 40 -67 75 -122 78 -122 3 0 3 14 -1 30
-7 39 6 31 35 -20 13 -22 26 -40 30 -40 8 0 2 28 -95 450 -15 63 -33 120 -41
125 -7 6 -21 15 -31 21 -16 9 -17 15 -6 51 7 22 21 52 33 67 22 28 49 35 49
13 0 -7 64 -44 141 -83 171 -83 164 -81 156 -60 -8 21 -8 21 59 -9 32 -14 58
-24 60 -22 4 3 -203 265 -253 320 -25 28 -39 36 -53 32 -19 -6 -20 -1 -21 87
-1 76 -3 86 -10 53 -4 -22 -8 -61 -8 -87 -1 -38 -5 -48 -17 -48 -17 0 -17 20
2 162 9 64 -4 78 -72 78 -64 0 -86 -17 -77 -60 5 -29 4 -30 -30 -30 -38 0 -47
-14 -47 -82 0 -49 -13 -55 -35 -14 -18 33 -18 35 2 68 50 85 84 238 53 238
-16 0 -12 39 7 70 12 21 27 31 55 35 34 6 38 10 38 36 0 45 -34 72 -78 64 -21
-3 -44 -16 -53 -27 -9 -12 -21 -18 -28 -14 -17 11 -13 26 8 34 10 4 35 21 55
39 l36 32 -2 133 c-2 129 -2 130 -5 28 -3 -119 -9 -154 -24 -144 -6 3 -19 -2
-30 -12 l-21 -18 4 497 c2 273 2 497 2 497 -1 0 -5 -12 -9 -27z m-418 -430
c-3 -10 -5 -2 -5 17 0 19 2 27 5 18 2 -10 2 -26 0 -35z m87 -1153 c12 0 14 -7
9 -31 -5 -26 -1 -35 21 -53 31 -24 28 -47 -9 -64 -19 -9 -24 -8 -28 9 -6 23
-28 24 -73 3 -27 -13 -37 -14 -49 -4 -26 21 -18 38 18 36 l32 -1 -2 55 c-4 77
0 84 36 65 17 -8 37 -15 45 -15z m143 8 c-3 -8 -6 -5 -6 6 -1 11 2 17 5 13 3
-3 4 -12 1 -19z m121 -51 l-3 -62 38 1 c43 1 45 -2 15 -27 -25 -23 -19 -22
-54 -4 -40 20 -65 19 -71 -5 -5 -18 -7 -18 -34 -4 -37 19 -38 51 -3 64 23 9
26 15 21 44 -5 31 -3 33 36 48 23 8 46 13 50 11 4 -3 6 -32 5 -66z m389 -65
c25 -36 10 -35 -35 4 -30 26 -42 43 -42 62 l1 27 30 -35 c17 -19 38 -45 46
-58z m60 16 c104 -126 171 -213 168 -216 -7 -7 -123 89 -155 129 -62 77 -99
132 -94 141 12 19 33 5 81 -54z m-1117 -74 c0 -10 -105 -64 -124 -64 -11 0 35
46 76 77 31 23 47 18 48 -13z m40 -6 c0 -5 -4 -8 -10 -8 -5 0 -10 10 -10 23 0
18 2 19 10 7 5 -8 10 -18 10 -22z m424 -102 c4 -30 13 -62 21 -72 13 -18 14
-17 25 10 6 16 14 49 17 73 3 24 9 43 14 43 10 0 1 -62 -17 -119 -20 -63 -18
-78 15 -130 l30 -46 -34 -225 -33 -225 -1 285 c-2 284 -2 285 -26 325 -16 26
-25 55 -25 82 0 24 -5 43 -12 46 -8 4 -7 6 3 6 13 1 18 -12 23 -53z m-690 -1
c-16 -14 -33 -25 -38 -25 -5 0 4 11 20 25 16 14 33 25 38 25 5 0 -4 -11 -20
-25z m58 -15 c-18 -11 -35 -20 -38 -20 -12 0 10 22 30 30 38 15 42 10 8 -10z
m990 -61 c20 -8 26 -23 37 -82 7 -40 15 -83 18 -97 8 -36 -10 -14 -30 35 -8
22 -27 66 -41 98 -26 58 -24 65 16 46z m75 -65 c7 -27 29 -116 48 -199 20 -82
38 -159 41 -170 9 -32 -37 46 -53 90 -13 37 -73 306 -73 327 0 6 6 8 13 6 6
-3 18 -27 24 -54z m-662 2 c5 -26 0 -44 -29 -92 -39 -65 -80 -118 -74 -94 16
57 84 227 90 224 4 -3 10 -19 13 -38z m-106 -283 c-18 -32 -41 -71 -51 -88
-38 -60 -8 16 34 88 49 82 63 82 17 0z m-98 -86 c-10 -9 -11 -8 -5 6 3 10 9
15 12 12 3 -3 0 -11 -7 -18z"/>
<path d="M1032 2760 c0 -19 2 -27 5 -17 2 9 2 25 0 35 -3 9 -5 1 -5 -18z"/>
<path d="M1502 2760 c0 -19 2 -27 5 -17 2 9 2 25 0 35 -3 9 -5 1 -5 -18z"/>
<path d="M1512 2685 c0 -16 3 -52 8 -80 7 -49 7 -49 8 -10 1 22 -3 58 -7 80
-8 34 -9 36 -9 10z"/>
<path d="M1493 2570 c0 -30 2 -43 4 -27 2 15 2 39 0 55 -2 15 -4 2 -4 -28z"/>
<path d="M1221 2549 c-19 -87 -40 -310 -48 -494 l-7 -170 -12 97 c-6 53 -14
105 -18 114 -14 36 -27 -5 -33 -105 -6 -101 -6 -102 21 -130 23 -24 27 -35 24
-77 -3 -47 -4 -49 -30 -46 -26 3 -28 0 -28 -32 0 -19 7 -42 16 -50 20 -20 19
-20 44 6 l20 22 0 -35 c0 -23 6 -38 19 -46 11 -7 25 -29 32 -50 l12 -38 18 43
c10 23 25 45 34 48 10 4 15 20 16 48 0 37 1 39 11 19 21 -44 62 -24 74 37 7
32 6 33 -21 26 -34 -9 -45 4 -45 55 0 25 9 47 28 72 28 35 28 35 20 128 -5 52
-11 100 -14 108 -11 32 -26 -10 -38 -110 -12 -88 -14 -96 -15 -49 -7 265 -39
610 -61 649 -5 10 -12 -4 -19 -40z m55 -582 c7 -317 7 -318 -14 -338 l-22 -20
1 443 c2 415 3 436 15 338 7 -58 16 -248 20 -423z"/>
<path d="M1537 2385 c3 -88 7 -162 9 -164 7 -8 2 225 -6 274 -5 30 -6 -14 -3
-110z"/>
<path d="M1503 2435 c0 -38 2 -53 4 -32 2 20 2 52 0 70 -2 17 -4 1 -4 -38z"/>
<path d="M1514 2160 c0 -102 2 -143 3 -92 2 50 2 134 0 185 -1 50 -3 9 -3 -93z"/>
</g>
</svg>
