<?xml version="1.0" standalone="no"?>
<!DOCTYPE svg PUBLIC "-//W3C//DTD SVG 20010904//EN"
 "http://www.w3.org/TR/2001/REC-SVG-20010904/DTD/svg10.dtd">
<svg version="1.0" xmlns="http://www.w3.org/2000/svg"
 width="244.000000pt" height="305.000000pt" viewBox="0 0 244.000000 305.000000"
 preserveAspectRatio="xMidYMid meet">
<metadata>
Created by potrace 1.16, written by Peter Selinger 2001-2019
</metadata>
<g transform="translate(0.000000,305.000000) scale(0.100000,-0.100000)"
fill="#000000" stroke="none">
<path d="M967 2838 c-26 -135 -47 -343 -57 -580 -15 -349 -17 -326 36 -371
l44 -39 29 31 c16 17 35 31 41 31 14 0 7 353 -11 580 -12 146 -47 398 -58 418
-5 9 -14 -17 -24 -70z"/>
<path d="M1475 2898 c-6 -17 -22 -122 -40 -273 -17 -136 -35 -439 -35 -594 l0
-104 41 -38 41 -38 45 37 44 37 -6 200 c-8 261 -22 456 -41 580 -9 55 -18 121
-21 148 -6 48 -19 70 -28 45z"/>
<path d="M1227 2584 c-28 -96 -48 -282 -55 -514 l-7 -215 -17 124 c-10 68 -20
126 -23 129 -12 12 -19 -14 -28 -114 l-10 -105 26 -25 c26 -24 32 -43 28 -94
-3 -43 -10 -55 -23 -42 -35 35 -54 -21 -23 -65 19 -27 40 -21 60 16 14 26 14
25 15 -20 0 -33 5 -49 15 -53 9 -3 24 -25 34 -48 l18 -43 12 38 c7 20 22 43
33 51 15 11 20 25 20 58 l-1 43 15 -27 c26 -50 74 -27 74 36 0 27 -18 34 -37
15 -16 -16 -25 5 -25 63 0 43 4 54 28 73 l28 22 -11 107 c-17 163 -26 160 -51
-15 l-17 -124 -2 105 c-5 253 -39 584 -63 629 -6 11 -9 10 -13 -5z"/>
<path d="M859 1849 c-14 -14 -19 -30 -17 -52 3 -28 7 -32 35 -35 20 -2 40 -13
53 -29 21 -27 27 -73 10 -73 -13 0 -13 -65 1 -115 6 -22 24 -67 41 -101 l31
-61 -27 -45 c-14 -24 -26 -58 -26 -74 0 -40 34 -76 68 -72 27 3 27 4 23 72 -3
55 -1 68 10 64 8 -3 31 -11 52 -19 34 -12 37 -16 37 -51 0 -26 4 -38 14 -38 7
0 20 -7 27 -16 11 -14 9 -20 -19 -43 -18 -14 -33 -35 -34 -46 0 -11 -4 -2 -7
20 -7 47 -24 54 -77 29 -43 -20 -59 -14 -89 37 -13 22 -20 53 -21 89 -1 86
-15 161 -31 167 -28 11 -62 -15 -69 -52 -7 -41 3 -86 40 -170 21 -48 23 -55 7
-35 -67 85 -86 176 -50 251 29 63 20 83 -40 87 -60 5 -74 -11 -68 -73 3 -27
11 -75 18 -107 20 -86 4 -127 -73 -186 -33 -26 -77 -62 -97 -79 -20 -18 -40
-33 -46 -32 -5 0 6 14 26 32 77 70 128 115 154 135 l28 22 -12 83 c-6 45 -11
97 -11 115 0 17 -5 32 -11 32 -8 0 -10 -27 -7 -91 6 -90 6 -91 -17 -85 -26 7
-20 13 -160 -164 -32 -41 -62 -77 -65 -80 -17 -15 -90 -114 -86 -117 5 -5 226
87 324 134 41 20 52 30 52 49 0 13 6 24 13 24 22 0 81 -49 99 -83 25 -46 22
-70 -10 -88 -22 -12 -31 -28 -39 -65 -6 -27 -34 -150 -62 -273 -29 -123 -50
-231 -49 -240 2 -9 68 81 152 206 l147 223 -3 52 -3 53 50 3 c57 3 89 -11 118
-50 l20 -27 -27 -31 c-21 -25 -25 -39 -21 -64 3 -17 17 -107 31 -201 62 -413
64 -428 70 -422 4 4 62 363 89 552 l14 100 -26 33 -25 34 19 26 c29 39 61 53
118 50 54 -3 51 2 43 -78 -2 -18 36 -83 134 -230 133 -202 162 -239 171 -223
2 4 -8 60 -23 123 -15 63 -40 169 -55 235 -44 192 -51 212 -81 219 -23 6 -25
10 -19 39 12 52 32 84 68 106 43 26 52 26 54 -1 2 -26 6 -28 158 -96 135 -60
226 -94 233 -87 5 5 -14 29 -170 215 -89 106 -119 136 -141 138 l-28 3 5 80
c3 45 1 79 -4 79 -5 0 -11 -37 -13 -82 l-3 -83 -2 101 c-2 123 -16 148 -77
146 -63 -2 -78 -27 -49 -83 20 -41 20 -114 -2 -168 -10 -25 -19 -40 -21 -34
-3 7 3 25 11 42 25 47 21 107 -9 136 -53 54 -71 28 -81 -113 -10 -146 -42
-192 -107 -157 -45 24 -71 17 -77 -20 -6 -29 -6 -29 -12 -6 -4 12 -11 20 -17
17 -12 -8 -43 22 -38 38 2 6 13 15 25 21 17 7 22 18 22 45 0 33 3 37 47 53 25
9 48 15 51 12 3 -3 4 -20 3 -37 -7 -93 -7 -93 17 -96 13 -2 34 4 48 12 33 22
32 75 -2 134 l-27 45 38 75 c39 79 59 182 36 196 -18 11 -13 51 10 80 15 19
30 26 54 26 41 0 50 19 31 65 -27 63 -92 59 -124 -6 l-20 -40 -12 36 c-22 66
-98 74 -119 14 -20 -57 -15 -68 31 -71 34 -2 45 -8 57 -30 12 -21 13 -31 4
-50 -7 -13 -15 -39 -18 -58 -9 -46 -47 -112 -91 -155 -36 -36 -48 -75 -26 -83
23 -8 127 109 150 169 15 38 21 47 21 29 1 -66 -85 -187 -155 -216 -30 -13
-35 -19 -31 -40 2 -13 0 -24 -6 -24 -13 0 -2 162 13 191 7 11 27 27 46 35 30
13 33 17 24 34 -29 55 -96 25 -120 -53 l-13 -42 -19 45 c-35 81 -68 100 -108
60 -25 -25 -20 -35 19 -43 21 -5 32 -15 41 -39 16 -45 26 -188 13 -188 -6 0
-8 11 -6 23 4 19 -1 26 -26 37 -71 29 -151 138 -164 223 -3 20 -4 37 -3 37 2
0 13 -27 25 -60 24 -66 128 -186 152 -178 23 8 11 47 -24 81 -43 41 -83 111
-92 161 -3 21 -12 47 -18 57 -10 15 -9 25 3 47 13 22 24 28 59 30 l43 3 -5 36
c-15 90 -100 100 -128 16 l-12 -38 -15 35 c-25 61 -74 78 -113 39z m868 -516
c-3 -10 -5 -4 -5 12 0 17 2 24 5 18 2 -7 2 -21 0 -30z m-768 -308 c0 -22 -11
-62 -24 -90 -26 -57 -34 -48 -9 11 15 37 15 124 -1 181 -3 10 4 0 15 -22 11
-22 19 -58 19 -80z m571 40 c-6 -30 -8 -33 -9 -13 -1 25 8 62 14 56 2 -2 -1
-21 -5 -43z m471 -17 c16 -29 2 -21 -22 15 -17 23 -18 28 -6 18 10 -8 23 -23
28 -33z m-800 -20 c7 -48 24 -88 38 -88 9 0 28 65 33 109 2 14 10 26 18 29 12
4 13 2 3 -9 -7 -7 -13 -31 -13 -53 0 -42 -33 -111 -49 -102 -17 11 -41 74 -41
108 0 19 -6 40 -12 47 -11 11 -10 13 2 9 9 -3 18 -23 21 -50z m-320 -219 c-16
-35 -30 -59 -30 -53 -1 6 5 24 13 40 8 16 20 42 26 58 6 16 13 27 15 24 3 -3
-8 -34 -24 -69z"/>
</g>
</svg>
