<?xml version="1.0" standalone="no"?>
<!DOCTYPE svg PUBLIC "-//W3C//DTD SVG 20010904//EN"
 "http://www.w3.org/TR/2001/REC-SVG-20010904/DTD/svg10.dtd">
<svg version="1.0" xmlns="http://www.w3.org/2000/svg"
 width="244.000000pt" height="305.000000pt" viewBox="0 0 244.000000 305.000000"
 preserveAspectRatio="xMidYMid meet">
<metadata>
Created by potrace 1.16, written by Peter Selinger 2001-2019
</metadata>
<g transform="translate(0.000000,305.000000) scale(0.100000,-0.100000)"
fill="#000000" stroke="none">
<path d="M958 2882 c-2 -17 -1 -29 4 -26 4 3 8 -211 8 -475 0 -265 -4 -481 -8
-481 -4 0 -22 15 -39 33 -25 25 -33 42 -36 82 -3 46 -4 45 -5 -15 -2 -64 -2
-65 41 -101 32 -29 39 -40 30 -49 -9 -10 -16 -9 -34 4 -13 9 -33 16 -44 16
-29 0 -65 -41 -65 -73 0 -24 4 -27 35 -27 26 0 43 -7 60 -26 26 -28 35 -84 14
-84 -8 0 -10 -18 -6 -58 l5 -58 -32 -10 c-27 -8 -31 -14 -34 -47 -2 -20 -7
-35 -12 -32 -14 8 -24 -35 -22 -97 1 -58 -9 -74 -26 -40 -18 37 -14 90 13 139
l25 48 -21 18 c-33 27 -85 22 -106 -9 -15 -23 -15 -33 -4 -83 21 -92 24 -149
11 -180 -11 -28 -34 -47 -225 -186 -44 -32 -86 -62 -92 -68 -9 -6 -13 -6 -13
0 0 6 52 68 115 139 109 122 117 129 153 129 l37 0 -4 84 c-2 46 -7 95 -12
110 -6 17 -8 -7 -5 -71 l3 -97 -26 5 c-23 5 -40 -11 -157 -143 -145 -163 -188
-213 -182 -213 14 0 286 110 342 139 9 4 -9 -28 -52 -96 -19 -30 2 -31 38 -3
14 11 28 20 32 20 3 0 39 19 79 41 81 46 99 45 110 -10 6 -29 3 -35 -25 -52
-29 -17 -34 -28 -65 -151 -79 -314 -108 -438 -101 -438 4 0 23 24 43 53 20 28
55 77 77 107 22 30 49 69 60 85 25 38 26 22 5 -90 -28 -155 -27 -143 -12 -120
8 11 60 109 117 218 100 193 102 199 95 247 -7 47 -6 50 16 50 41 0 85 -22
101 -50 15 -27 15 -30 -10 -66 l-26 -38 17 -101 c9 -55 33 -199 52 -320 31
-191 45 -258 45 -217 0 6 16 104 34 219 19 114 42 257 51 316 18 117 21 102
-30 174 -17 23 56 83 101 83 l36 0 -6 -52 c-6 -51 -3 -58 64 -188 38 -74 89
-173 112 -220 24 -47 44 -77 46 -68 2 9 -6 65 -17 124 -18 92 -20 130 -8 113
2 -2 41 -57 87 -122 46 -64 85 -115 87 -113 4 4 -93 408 -123 513 -12 40 -20
52 -39 57 -21 5 -25 13 -25 40 0 19 7 42 16 50 14 14 22 12 92 -26 42 -23 101
-57 130 -75 76 -48 79 -44 27 37 -19 29 -33 55 -32 57 2 1 48 -16 103 -38 183
-75 196 -80 188 -67 -7 11 -159 188 -237 274 -15 18 -34 40 -41 49 -9 13 -20
16 -39 11 l-27 -6 7 91 c5 69 3 90 -5 85 -7 -4 -12 -28 -12 -53 0 -26 -5 -72
-12 -104 l-11 -57 38 -33 c21 -19 50 -43 65 -54 77 -56 179 -137 190 -150 13
-16 -11 -8 -105 35 -22 10 -58 26 -80 36 -55 24 -75 43 -75 72 0 13 -11 37
-25 54 -20 24 -25 40 -25 88 0 32 7 85 15 118 11 43 13 67 6 85 -13 34 -55 45
-90 26 -21 -12 -26 -23 -28 -58 -3 -58 -13 -66 -13 -10 0 61 -18 84 -58 76
-30 -6 -30 -6 -21 26 13 46 11 73 -6 91 -23 23 -18 51 15 86 25 27 35 31 60
26 27 -5 30 -3 30 22 0 58 -50 89 -100 62 -14 -7 -20 -6 -24 7 -7 18 20 53 42
53 13 0 14 34 9 270 -6 270 -12 339 -48 570 -10 69 -19 128 -19 133 0 4 -3 7
-7 7 -5 0 -7 -223 -5 -495 2 -272 -1 -495 -5 -495 -4 0 -6 44 -4 97 5 134 -19
726 -30 738 -5 5 -10 27 -10 50 -1 22 -5 54 -9 70 -5 18 -8 -38 -9 -136 0 -91
-4 -309 -8 -484 -6 -311 -7 -318 -25 -295 -14 17 -18 40 -19 104 0 44 -3 75
-6 68 -2 -6 -9 -10 -14 -6 -5 3 -9 -4 -9 -15 0 -11 -4 -23 -10 -26 -6 -4 -10
5 -10 21 0 41 -9 24 -19 -37 -9 -53 -9 -53 -10 36 -2 170 -54 536 -71 504 -22
-39 -59 -351 -61 -514 l-1 -80 -13 60 c-7 36 -13 49 -14 33 -1 -34 -21 -37
-21 -4 0 14 -4 27 -8 30 -5 3 -12 88 -16 188 -8 228 -43 604 -55 593 -3 -4 -5
-104 -4 -223 1 -145 -2 -197 -7 -157 -4 33 -8 88 -9 123 -1 34 -5 62 -9 62 -5
0 -14 41 -21 92 -14 104 -26 138 -33 90z m272 -839 l0 -436 -20 23 c-17 20
-20 37 -20 114 1 232 26 736 36 736 2 0 4 -196 4 -437z m-130 -174 c0 -12 -27
-11 -35 1 -11 17 5 32 21 19 8 -6 14 -15 14 -20z m310 5 c0 -8 -7 -14 -15 -14
-15 0 -21 21 -9 33 10 9 24 -2 24 -19z m-390 1 c0 -8 -9 -15 -20 -15 -13 0
-18 5 -14 15 4 8 12 15 20 15 8 0 14 -7 14 -15z m454 6 c3 -5 -1 -14 -8 -20
-16 -13 -32 2 -21 19 8 12 22 13 29 1z m-356 -147 c-13 -13 -16 -13 -28 0 -10
13 -9 17 11 25 29 10 38 -4 17 -25z m267 16 c3 -4 -1 -12 -8 -18 -14 -12 -53
11 -43 26 6 11 43 5 51 -8z m-365 -62 c0 -5 -4 -8 -10 -8 -5 0 -10 10 -10 23
0 18 2 19 10 7 5 -8 10 -18 10 -22z m386 -4 c-4 -9 -9 -15 -11 -12 -3 3 -3 13
1 22 4 9 9 15 11 12 3 -3 3 -13 -1 -22z m64 11 c0 -8 -4 -15 -10 -15 -5 0 -10
7 -10 15 0 8 5 15 10 15 6 0 10 -7 10 -15z m-390 -16 c0 -6 -4 -7 -10 -4 -5 3
-10 11 -10 16 0 6 5 7 10 4 6 -3 10 -11 10 -16z m68 -28 c6 -1 12 -8 12 -16 0
-8 9 -19 21 -25 11 -7 27 -27 35 -46 14 -34 34 -38 34 -8 0 8 12 27 27 42 15
15 28 33 28 41 0 8 15 14 43 15 38 2 42 0 42 -22 0 -13 -4 -32 -10 -42 -9 -16
-15 -17 -47 -8 -33 9 -39 8 -55 -12 -10 -12 -23 -41 -29 -63 l-11 -42 -18 48
c-30 78 -42 85 -109 66 -8 -2 -17 8 -22 26 -12 40 -6 52 23 49 12 -1 29 -3 36
-3z m-140 -125 c18 -44 30 -81 28 -84 -8 -7 -54 73 -65 114 -27 97 -7 81 37
-30z m412 37 c-10 -16 -11 -15 -6 7 3 14 6 32 7 40 1 8 4 5 6 -7 2 -12 -1 -30
-7 -40z m76 -10 c-16 -47 -56 -118 -56 -98 0 5 12 44 27 87 30 83 57 94 29 11z
m-437 7 c1 -13 0 -13 -9 0 -5 8 -9 24 -9 35 l0 20 9 -20 c5 -11 9 -27 9 -35z
m94 -47 c8 -10 19 -31 23 -48 7 -28 6 -29 -10 -16 -16 13 -46 63 -46 76 0 11
17 4 33 -12z m197 10 c0 -14 -40 -73 -49 -73 -13 0 -1 41 17 63 16 18 32 23
32 10z m199 -70 c14 -48 13 -74 -4 -148 l-14 -60 6 82 c5 66 3 87 -10 107 -16
24 -14 56 4 56 4 0 13 -17 18 -37z m-596 21 c3 -3 0 -23 -8 -43 -8 -23 -11
-65 -9 -107 l4 -69 -14 50 c-19 62 -19 87 -4 136 11 38 18 46 31 33z m727 -85
c0 -41 -11 -89 -21 -89 -5 0 -9 35 -9 78 1 70 2 75 15 58 8 -11 15 -32 15 -47z
m-492 -22 c4 -22 -7 -21 -38 3 l-25 20 30 -3 c18 -2 31 -10 33 -20z m142 13
c0 -9 -41 -32 -47 -26 -11 11 6 32 26 32 11 0 21 -3 21 -6z m-178 -114 c-3
-26 1 -36 21 -49 17 -11 24 -23 20 -36 -7 -26 -28 -34 -43 -15 -9 10 -26 12
-66 8 -46 -6 -54 -4 -54 10 0 11 9 16 31 16 l32 0 -7 50 c-4 28 -4 55 -1 59 3
5 19 5 38 -1 29 -9 32 -13 29 -42z m231 -17 l-6 -61 31 7 c26 5 32 3 32 -11 0
-14 -7 -16 -43 -11 -27 4 -53 1 -69 -7 -29 -16 -44 -10 -50 19 -2 13 5 23 20
30 27 12 37 38 23 64 -12 21 -2 27 46 30 22 1 22 -1 16 -60z m-549 15 c9 -3
16 -12 16 -20 0 -20 -13 -17 -28 6 -13 22 -12 23 12 14z m791 -13 c3 -5 1 -12
-5 -16 -5 -3 -10 1 -10 9 0 18 6 21 15 7z m-635 -79 c0 -15 -2 -15 -10 -2 -13
20 -13 33 0 25 6 -3 10 -14 10 -23z m510 7 c-7 -11 -14 -19 -16 -16 -7 7 7 37
17 37 6 0 5 -9 -1 -21z m-745 -44 c2 -5 -27 -37 -63 -70 -65 -59 -65 -60 -42
-20 13 22 30 44 37 48 7 4 13 14 13 20 0 30 50 49 55 22z m1030 -62 c40 -43
72 -80 70 -82 -3 -3 -179 101 -194 115 -6 5 30 44 41 44 5 0 42 -35 83 -77z
m-859 21 c8 -18 14 -44 14 -56 0 -27 -36 -117 -117 -293 -33 -71 -73 -159 -89
-194 -15 -35 -30 -59 -32 -53 -3 9 73 317 99 400 8 23 21 37 45 47 43 18 57
52 52 132 -4 66 5 72 28 17z m640 9 c-4 -9 -9 -42 -13 -74 -4 -44 -9 -56 -20
-52 -11 4 -13 16 -8 47 8 53 25 96 37 96 6 0 7 -8 4 -17z m-327 -163 c5 0 13
15 17 33 4 18 9 26 12 18 5 -15 -26 -81 -38 -81 -8 0 -30 62 -29 81 0 8 7 -1
15 -18 8 -18 18 -33 23 -33z m249 -61 c-1 -22 6 -48 16 -64 19 -28 119 -316
112 -322 -1 -2 -41 72 -87 164 -68 138 -83 176 -83 214 0 25 4 54 8 65 7 19 8
19 22 -1 8 -11 14 -36 12 -56z m88 34 c15 -35 46 -105 79 -178 127 -274 129
-287 15 -118 -69 103 -72 110 -94 220 -12 62 -21 113 -19 113 2 0 11 -17 19
-37z m-580 11 c-3 -9 -6 -20 -6 -25 0 -5 -4 -9 -10 -9 -5 0 -10 11 -10 25 0
16 6 25 16 25 11 0 14 -5 10 -16z m232 -442 l-3 -137 -27 219 c-26 206 -27
221 -12 250 9 17 22 41 28 53 13 25 19 -142 14 -385z m-71 261 c-3 -10 -5 -2
-5 17 0 19 2 27 5 18 2 -10 2 -26 0 -35z m-257 -108 c-23 -69 -44 -125 -45
-123 -2 2 3 41 11 88 14 77 57 180 71 166 3 -2 -14 -62 -37 -131z"/>
<path d="M942 2795 c0 -16 2 -22 5 -12 2 9 2 23 0 30 -3 6 -5 -1 -5 -18z"/>
<path d="M1472 2760 c0 -14 2 -19 5 -12 2 6 2 18 0 25 -3 6 -5 1 -5 -13z"/>
<path d="M932 2725 c0 -16 2 -22 5 -12 2 9 2 23 0 30 -3 6 -5 -1 -5 -18z"/>
<path d="M1403 2705 c0 -22 2 -30 4 -17 2 12 2 30 0 40 -3 9 -5 -1 -4 -23z"/>
<path d="M921 2674 c0 -12 -8 -81 -15 -155 -17 -148 -27 -405 -16 -374 4 11
10 94 13 185 3 91 11 202 17 247 7 45 10 90 7 100 -4 15 -5 15 -6 -3z"/>
<path d="M1393 2605 c0 -22 2 -30 4 -17 2 12 2 30 0 40 -3 9 -5 -1 -4 -23z"/>
<path d="M1383 2460 c0 -36 2 -50 4 -32 2 17 2 47 0 65 -2 17 -4 3 -4 -33z"/>
<path d="M1373 2220 c0 -47 2 -66 4 -42 2 23 2 61 0 85 -2 23 -4 4 -4 -43z"/>
</g>
</svg>
