<?xml version="1.0" standalone="no"?>
<!DOCTYPE svg PUBLIC "-//W3C//DTD SVG 20010904//EN"
 "http://www.w3.org/TR/2001/REC-SVG-20010904/DTD/svg10.dtd">
<svg version="1.0" xmlns="http://www.w3.org/2000/svg"
 width="244.000000pt" height="305.000000pt" viewBox="0 0 244.000000 305.000000"
 preserveAspectRatio="xMidYMid meet">
<metadata>
Created by potrace 1.16, written by Peter Selinger 2001-2019
</metadata>
<g transform="translate(0.000000,305.000000) scale(0.100000,-0.100000)"
fill="#000000" stroke="none">
<path d="M1089 2894 c0 -16 0 -198 0 -404 0 -333 -2 -383 -18 -445 -25 -97
-22 -152 12 -179 20 -16 25 -27 20 -45 -6 -23 -7 -23 -22 10 -16 31 -20 34
-60 32 -51 -2 -66 -13 -83 -59 -14 -38 -24 -43 -33 -15 -3 10 -17 31 -30 45
-44 48 -129 29 -135 -29 -4 -40 -1 -46 25 -39 35 9 78 -11 98 -45 21 -37 22
-57 1 -65 -27 -10 -11 -96 31 -172 19 -36 35 -79 35 -97 0 -24 -33 -108 -58
-147 -9 -13 -19 26 -11 41 8 17 3 56 -20 139 -8 31 -43 38 -78 15 -23 -15 -25
-22 -21 -68 4 -37 17 -72 47 -122 55 -92 52 -112 -5 -39 -87 111 -104 180 -59
246 30 44 30 50 7 71 -24 22 -81 22 -111 1 -25 -18 -25 -37 -1 -164 17 -84 8
-137 -26 -152 -19 -9 -24 -17 -19 -32 14 -46 11 -50 -60 -77 -191 -74 -266
-101 -271 -96 -3 2 19 19 48 38 162 102 307 199 312 208 4 6 0 37 -9 70 -8 32
-15 76 -15 97 0 22 -5 46 -11 54 -7 11 -9 -12 -6 -83 l4 -97 -31 5 c-28 6 -38
-1 -103 -62 -142 -134 -283 -276 -279 -280 2 -3 55 14 118 35 62 22 163 58
223 79 94 32 110 41 113 61 2 13 9 25 16 28 23 9 103 -34 131 -70 24 -32 26
-39 15 -70 -6 -18 -19 -36 -30 -39 -20 -5 -29 -29 -105 -292 -24 -82 -51 -172
-59 -200 -22 -70 -21 -83 5 -59 11 10 97 109 190 220 l169 202 -14 40 c-8 22
-12 43 -9 46 4 3 24 6 45 6 38 0 39 -1 34 -27 -12 -63 -38 -283 -34 -294 2 -6
12 51 22 127 23 173 27 188 54 192 13 2 22 -2 22 -10 -1 -35 -108 -440 -112
-423 -2 11 -7 -7 -11 -39 -4 -32 -6 -60 -4 -62 2 -2 41 96 86 217 74 196 82
226 76 265 -7 48 -1 52 33 28 41 -29 44 -48 12 -84 -17 -19 -30 -41 -30 -50 0
-14 49 -267 118 -605 7 -35 14 -9 60 225 28 146 57 293 63 327 l12 63 -32 35
c-34 39 -32 59 11 89 29 21 37 13 32 -32 -5 -38 10 -85 106 -340 23 -62 44
-111 46 -109 3 2 -9 109 -26 238 -16 129 -30 243 -30 254 0 18 5 20 45 17 50
-4 51 -7 31 -57 -16 -39 -20 -32 84 -156 253 -300 290 -342 290 -324 0 4 -30
107 -67 229 -36 121 -72 243 -79 270 -16 57 -30 76 -55 76 -30 0 -36 47 -12
89 21 36 89 78 133 83 20 2 26 -2 28 -23 3 -30 -19 -20 276 -123 104 -36 191
-64 193 -62 2 2 -78 82 -178 177 -168 162 -184 174 -216 172 l-34 -3 7 84 c4
51 3 86 -3 89 -9 6 -23 -100 -23 -175 0 -29 1 -29 43 -23 l42 6 138 -132 c76
-72 136 -134 133 -136 -3 -3 -56 26 -118 63 -62 38 -122 74 -133 80 -54 29
-105 65 -123 89 -33 41 -35 77 -12 159 30 108 15 146 -60 146 -67 0 -89 -38
-50 -87 26 -33 27 -106 2 -154 -26 -52 -116 -171 -120 -159 -2 6 16 45 41 88
65 112 76 165 41 203 -19 21 -69 25 -80 7 -12 -19 -25 -116 -24 -170 1 -27 -3
-48 -9 -48 -11 0 -26 39 -17 47 7 7 -19 56 -38 72 -25 21 -19 67 14 113 51 71
76 183 45 208 -22 18 -19 35 16 75 27 30 37 35 75 35 37 0 44 3 44 19 0 33
-11 51 -42 67 -47 24 -93 4 -122 -54 l-23 -46 -12 36 c-15 45 -37 65 -82 73
-43 8 -67 -10 -76 -59 -7 -31 -7 -31 -14 -6 -10 37 -10 62 0 55 5 -3 19 7 30
21 19 25 21 40 21 186 0 169 -16 546 -29 682 -6 55 -9 -30 -10 -272 0 -194 -5
-372 -11 -395 -5 -23 -13 -64 -17 -92 -6 -39 -9 -10 -14 130 l-5 180 -1 -213
c0 -117 -3 -215 -5 -218 -3 -3 -9 64 -12 148 -4 84 -11 198 -17 253 -10 105
-46 300 -59 324 -9 16 -45 -132 -60 -244 -9 -67 -30 -372 -30 -444 0 -19 -2
-32 -6 -29 -3 3 -7 138 -10 299 -2 162 -11 395 -20 519 -15 208 -23 277 -25
204z m196 -724 c4 -85 2 -195 -3 -245 l-9 -90 -2 141 c0 77 -3 210 -6 295 -3
109 -1 139 5 104 5 -27 12 -120 15 -205z m14 -382 c0 -62 -2 -69 -11 -45 -9
25 -3 117 8 117 2 0 4 -33 3 -72z m-249 -28 c13 -8 13 -11 1 -19 -9 -6 -12
-18 -7 -37 4 -16 11 -63 16 -104 5 -41 12 -86 16 -99 11 -36 -8 -19 -49 42
-19 29 -38 68 -41 87 -3 19 -10 36 -15 38 -28 9 -3 78 32 92 29 11 29 11 47 0z
m470 -65 c0 -9 -7 -18 -15 -21 -8 -4 -15 -16 -15 -28 -1 -30 -33 -96 -64 -128
-32 -34 -41 -35 -31 -5 4 12 6 48 5 79 -1 39 4 65 14 80 18 25 21 68 6 68 -23
0 -8 19 18 22 20 3 34 -3 55 -24 15 -16 27 -35 27 -43z m-345 -85 c41 -15 39
-30 -3 -30 -33 0 -41 4 -46 23 -9 36 -7 72 7 86 10 10 13 4 15 -29 3 -32 8
-43 27 -50z m125 24 c0 -2 -7 -4 -15 -4 -11 0 -15 11 -15 38 l1 37 14 -34 c8
-18 15 -35 15 -37z m43 52 c6 -16 0 -83 -9 -97 -9 -15 -63 -7 -57 8 3 7 14 13
24 13 16 0 19 8 19 45 0 44 12 60 23 31z m-400 -107 c22 -55 11 -84 -14 -38
-19 36 -25 79 -11 79 5 0 16 -18 25 -41z m154 9 c-3 -7 -5 -2 -5 12 0 14 2 19
5 13 2 -7 2 -19 0 -25z m280 0 c-3 -7 -5 -2 -5 12 0 14 2 19 5 13 2 -7 2 -19
0 -25z m183 7 c0 -28 -30 -95 -42 -95 -11 0 -10 47 1 55 5 3 12 19 16 35 8 36
25 40 25 5z m-314 -82 c-9 -41 -11 -44 -17 -23 -10 36 -10 52 0 46 5 -3 11 1
15 9 11 31 13 13 2 -32z m-101 -58 c38 -82 39 -85 25 -85 -5 0 -10 8 -10 17 0
9 -11 33 -24 52 -25 36 -44 91 -32 91 3 0 22 -34 41 -75z m198 -2 c-11 -16
-25 -41 -31 -57 -7 -16 -16 -26 -19 -22 -4 3 9 38 28 78 25 52 35 65 37 49 2
-11 -5 -33 -15 -48z m-321 -15 c-15 -15 -26 -4 -18 18 5 13 9 15 18 6 9 -9 9
-15 0 -24z m438 1 c0 -11 -4 -17 -10 -14 -5 3 -10 13 -10 21 0 8 5 14 10 14 6
0 10 -9 10 -21z m-362 -40 c16 -25 7 -37 -16 -23 -21 14 -30 56 -10 49 7 -3
19 -15 26 -26z m312 7 c0 -8 -10 -22 -22 -31 -21 -14 -23 -14 -27 2 -2 9 5 23
15 30 23 17 34 17 34 -1z m-463 -33 c-3 -10 -5 -4 -5 12 0 17 2 24 5 18 2 -7
2 -21 0 -30z m83 -114 c11 -40 17 -75 15 -78 -3 -2 -7 2 -9 10 -27 76 -36 108
-36 128 0 39 10 18 30 -60z m414 -21 c-24 -81 -30 -64 -8 24 10 40 20 64 22
54 2 -11 -4 -46 -14 -78z m-346 -40 c11 -11 16 -10 26 5 16 21 52 22 60 1 10
-27 7 -34 -18 -34 -14 0 -32 -7 -41 -16 -18 -19 -16 -20 -37 26 -18 38 -23 70
-18 110 1 14 6 2 9 -27 4 -29 12 -58 19 -65z m72 103 c0 -12 -39 -21 -45 -11
-3 5 1 11 7 13 21 9 38 8 38 -2z m154 3 c23 -9 20 -23 -4 -17 -11 3 -20 9 -20
14 0 11 3 11 24 3z m61 -111 c-9 -24 -23 -43 -31 -43 -8 0 -14 5 -14 10 0 6
-14 10 -31 10 -26 0 -30 3 -27 23 2 16 11 23 31 25 15 2 27 -1 27 -7 0 -6 7
-11 15 -11 18 0 34 37 37 83 1 28 2 27 5 -7 3 -22 -3 -58 -12 -83z m-470 17
c13 -14 15 -24 8 -31 -12 -12 -43 14 -43 37 0 20 14 17 35 -6z m631 -56 c-25
-18 -29 -13 -20 21 6 25 8 25 23 10 15 -15 15 -17 -3 -31z m-36 -4 c0 -5 -4
-10 -10 -10 -5 0 -10 5 -10 10 0 6 5 10 10 10 6 0 10 -4 10 -10z m-650 -41 c0
-10 -4 -19 -10 -19 -5 0 -10 12 -10 26 0 14 4 23 10 19 6 -3 10 -15 10 -26z
m766 -34 c11 -27 -1 -39 -19 -21 -17 17 -15 36 4 36 5 0 12 -7 15 -15z m-737
-92 c-1 -32 2 -75 6 -95 6 -32 3 -43 -21 -76 -60 -80 -247 -302 -252 -298 -2
3 23 56 56 118 147 279 182 349 182 371 0 13 3 27 7 30 17 18 24 2 22 -50z
m751 11 c6 -14 28 -33 57 -47 l48 -22 67 -220 c37 -120 65 -221 63 -223 -2 -2
-13 15 -25 38 -11 23 -30 58 -42 78 -11 20 -33 60 -48 87 -15 28 -58 104 -95
170 -37 65 -69 135 -72 153 -6 33 -5 34 16 23 12 -7 26 -23 31 -37z m-390 -50
c0 -14 -14 -33 -21 -28 -15 9 -10 31 6 31 8 0 15 -1 15 -3z m163 -21 c3 -10
15 -61 27 -113 12 -52 30 -131 41 -174 38 -159 23 -129 -74 145 -21 59 -26 87
-21 118 7 43 19 53 27 24z m-78 -159 c-5 -51 -68 -355 -72 -350 -3 2 3 88 13
190 13 145 15 191 6 211 -21 46 -12 51 22 14 25 -27 33 -44 31 -65z"/>
<path d="M1548 2890 c-52 -220 -77 -417 -90 -704 l-12 -250 24 -15 c14 -9 39
-28 56 -43 l31 -27 24 25 c13 14 35 31 49 37 l25 12 -3 160 c-5 276 -26 505
-63 683 -17 84 -20 55 -4 -39 29 -172 47 -360 52 -564 l6 -211 -41 -26 c-22
-15 -43 -24 -46 -21 -9 9 -7 941 2 945 4 2 5 17 2 33 -6 30 -6 30 -12 5z"/>
<path d="M897 2827 c-46 -198 -77 -499 -77 -754 0 -148 1 -153 23 -164 12 -6
34 -22 48 -35 l26 -24 26 22 c14 13 38 32 53 42 l26 19 -6 191 c-8 215 -29
448 -52 579 -27 149 -26 90 1 -99 19 -134 27 -238 32 -414 l5 -235 -37 -28
c-20 -16 -39 -27 -42 -24 -8 9 -9 928 0 934 10 6 9 51 -1 57 -5 3 -16 -27 -25
-67z"/>
<path d="M1372 2870 c0 -14 2 -19 5 -12 2 6 2 18 0 25 -3 6 -5 1 -5 -13z"/>
<path d="M931 2814 c0 -11 3 -14 6 -6 3 7 2 16 -1 19 -3 4 -6 -2 -5 -13z"/>
<path d="M1362 2800 c0 -14 2 -19 5 -12 2 6 2 18 0 25 -3 6 -5 1 -5 -13z"/>
<path d="M1072 2705 c0 -16 2 -22 5 -12 2 9 2 23 0 30 -3 6 -5 -1 -5 -18z"/>
<path d="M1352 2660 c0 -14 2 -19 5 -12 2 6 2 18 0 25 -3 6 -5 1 -5 -13z"/>
<path d="M1063 2565 c0 -38 2 -53 4 -32 2 20 2 52 0 70 -2 17 -4 1 -4 -38z"/>
<path d="M1343 2500 c0 -25 2 -35 4 -22 2 12 2 32 0 45 -2 12 -4 2 -4 -23z"/>
<path d="M1054 2310 c0 -91 2 -128 3 -82 2 45 2 119 0 165 -1 45 -3 8 -3 -83z"/>
<path d="M953 565 c0 -22 2 -30 4 -17 2 12 2 30 0 40 -3 9 -5 -1 -4 -23z"/>
</g>
</svg>
