<?xml version="1.0" standalone="no"?>
<!DOCTYPE svg PUBLIC "-//W3C//DTD SVG 20010904//EN"
 "http://www.w3.org/TR/2001/REC-SVG-20010904/DTD/svg10.dtd">
<svg version="1.0" xmlns="http://www.w3.org/2000/svg"
 width="244.000000pt" height="305.000000pt" viewBox="0 0 244.000000 305.000000"
 preserveAspectRatio="xMidYMid meet">
<metadata>
Created by potrace 1.16, written by Peter Selinger 2001-2019
</metadata>
<g transform="translate(0.000000,305.000000) scale(0.100000,-0.100000)"
fill="#000000" stroke="none">
<path d="M881 2798 c-11 -62 -27 -154 -35 -204 -18 -105 -36 -384 -36 -556 l0
-118 33 -13 c17 -8 38 -21 46 -30 18 -23 24 -22 75 16 l45 32 0 105 c1 204
-18 484 -44 634 -14 82 -27 152 -30 154 -8 8 -6 -8 9 -99 32 -186 55 -480 56
-691 l0 -76 -37 -23 c-21 -13 -42 -25 -46 -27 -4 -2 -7 224 -5 502 2 278 0
506 -3 506 -4 0 -16 -51 -28 -112z"/>
<path d="M1361 2458 c-1 -251 -4 -470 -7 -487 -14 -67 -24 -24 -26 107 -2 129
-2 132 -7 47 l-6 -90 -7 135 c-7 128 -31 292 -58 390 -12 43 -13 44 -22 20
-33 -87 -68 -346 -68 -503 0 -182 -8 -74 -20 258 -18 523 -27 555 -29 110 -2
-354 -3 -387 -17 -356 -8 19 -16 32 -18 30 -3 -2 -10 -53 -17 -112 l-12 -108
36 -32 c29 -28 34 -38 29 -62 l-6 -30 -6 31 c-10 45 -16 51 -57 56 -58 7 -90
-8 -110 -53 -21 -45 -30 -48 -39 -14 -3 14 -20 37 -37 51 -25 21 -38 25 -66
20 -43 -7 -73 -40 -69 -75 3 -23 7 -25 44 -23 34 3 45 -1 72 -29 34 -35 42
-73 17 -83 -36 -13 -1 -139 60 -215 19 -24 35 -49 35 -55 0 -6 -14 -27 -30
-46 -17 -19 -33 -45 -36 -57 -8 -28 16 -83 36 -83 8 0 21 -4 28 -9 11 -6 10
-11 -3 -25 -16 -16 -20 -14 -56 25 -35 38 -39 48 -38 88 2 53 -10 128 -23 154
-14 27 -64 22 -84 -8 -28 -42 -14 -98 54 -214 33 -57 58 -110 55 -117 -8 -20
-21 -8 -28 27 -4 17 -28 56 -53 87 -89 109 -103 170 -56 249 25 43 25 45 8 64
-14 16 -28 19 -68 17 -43 -3 -53 -7 -65 -30 -14 -24 -14 -33 3 -95 11 -37 21
-82 24 -100 6 -43 -15 -101 -39 -108 -18 -6 -20 -12 -14 -46 4 -21 5 -39 3
-39 -3 0 -83 -29 -178 -65 -95 -36 -175 -64 -177 -61 -3 2 29 26 71 53 41 26
127 81 191 122 78 50 115 79 115 92 0 10 -7 44 -15 76 -8 31 -15 74 -15 95 0
22 -5 38 -11 38 -9 0 -10 -26 -6 -90 l6 -91 -32 6 c-30 6 -42 -3 -220 -171
-103 -97 -186 -178 -184 -180 4 -5 464 149 472 158 3 3 8 16 10 28 6 32 10 34
47 20 56 -22 106 -60 122 -95 23 -49 20 -60 -23 -77 -28 -11 -40 -23 -45 -44
-4 -16 -22 -78 -41 -139 -18 -60 -52 -171 -75 -245 -22 -74 -43 -142 -46 -150
-8 -24 42 27 165 170 64 74 118 137 121 140 3 3 29 33 58 67 52 62 53 63 42
103 -6 22 -8 45 -5 50 3 6 28 10 56 10 47 0 49 -1 50 -27 l1 -28 7 25 c4 15
15 26 29 28 12 2 22 0 22 -3 0 -4 -13 -64 -29 -133 -15 -70 -34 -156 -42 -192
-11 -55 -14 -61 -21 -40 -5 17 -6 10 -3 -20 4 -32 2 -41 -5 -30 -7 11 -10 0
-9 -40 0 -54 1 -51 66 130 46 130 68 204 70 247 5 66 7 71 26 50 38 -40 38
-43 7 -75 -17 -18 -30 -40 -30 -49 0 -22 122 -645 126 -641 5 5 124 611 124
631 0 11 -14 35 -30 54 l-30 34 22 29 c12 17 25 30 30 30 4 0 8 -21 8 -47 0
-33 22 -115 71 -261 40 -117 74 -211 76 -208 3 3 -9 120 -27 260 -18 140 -30
262 -26 272 5 14 15 16 53 10 25 -3 49 -8 51 -11 3 -2 -1 -25 -8 -49 l-12 -45
55 -63 c30 -35 117 -134 192 -221 76 -87 139 -156 141 -154 4 3 -150 520 -165
553 -5 12 -22 24 -41 28 -31 6 -32 8 -27 44 8 46 68 106 122 121 43 12 55 8
55 -19 0 -10 5 -22 11 -26 22 -13 444 -152 449 -147 3 2 -13 21 -35 41 -22 19
-102 96 -179 170 -132 128 -139 134 -171 128 l-34 -7 6 93 c4 62 2 90 -4 83
-6 -5 -13 -54 -17 -108 l-6 -98 45 6 45 7 112 -109 c62 -60 126 -121 143 -136
16 -15 25 -27 20 -27 -6 0 -91 49 -190 109 -227 137 -244 160 -205 283 25 79
25 110 2 131 -34 31 -132 14 -132 -23 0 -9 11 -31 25 -50 44 -59 30 -123 -50
-230 -30 -40 -57 -88 -61 -107 -7 -38 -24 -45 -24 -8 0 21 27 81 50 110 27 34
61 111 66 148 5 38 3 47 -17 66 -25 23 -61 28 -76 9 -13 -17 -27 -102 -25
-154 1 -28 -4 -50 -17 -65 -24 -29 -36 -21 -20 14 15 33 6 64 -31 107 -16 19
-30 40 -30 45 0 6 16 33 36 60 67 93 84 161 54 210 -18 30 -19 33 -3 56 31 44
56 59 93 57 32 -3 35 0 38 25 5 39 -23 67 -65 67 -48 0 -70 -14 -95 -63 l-21
-42 -8 31 c-12 45 -51 77 -96 78 l-37 1 -2 55 c-13 459 -37 950 -49 985 -1 6
-3 -196 -4 -447z m-76 -248 c3 -63 2 -162 -3 -220 l-8 -105 -7 190 c-4 105 -9
237 -11 295 l-4 105 13 -75 c8 -41 17 -127 20 -190z m-135 -317 c0 -21 -3 -24
-9 -14 -5 8 -7 20 -4 28 8 21 13 15 13 -14z m190 -4 c0 -10 -4 -19 -10 -19 -5
0 -10 12 -10 26 0 14 4 23 10 19 6 -3 10 -15 10 -26z m-45 -74 c-5 -35 -4 -55
3 -55 6 0 8 -9 5 -20 -3 -11 -9 -17 -14 -14 -10 6 -12 104 -3 128 12 31 15 15
9 -39z m79 -2 c-9 -52 -14 -54 -14 -5 0 23 5 42 10 42 7 0 8 -14 4 -37z m-301
-60 c16 -9 6 -24 -13 -18 -17 5 -20 2 -20 -23 0 -16 9 -37 20 -47 23 -20 28
-83 8 -103 -9 -9 -8 -15 4 -24 19 -15 35 -68 21 -68 -13 0 -86 89 -101 123 -6
15 -12 36 -12 46 0 10 -7 24 -15 31 -22 18 -18 43 10 74 21 23 31 26 58 21 17
-4 35 -9 40 -12z m422 -8 c28 -29 32 -57 11 -74 -7 -6 -16 -28 -20 -49 -6 -36
-87 -152 -107 -152 -14 0 1 53 19 68 12 9 13 15 4 24 -16 16 -15 85 1 95 16
10 37 49 37 68 0 18 -21 20 -38 3 -9 -9 -12 -8 -12 5 0 40 68 48 105 12z
m-345 -85 c0 -29 5 -42 20 -50 11 -6 20 -15 20 -21 0 -14 -30 -23 -41 -12 -14
14 -23 123 -10 123 6 0 11 -18 11 -40z m185 -17 c-7 -62 -18 -77 -47 -62 -22
12 -15 29 13 29 16 0 19 7 19 45 0 25 5 45 11 45 7 0 8 -20 4 -57z m-35 -9 c0
-2 -7 -4 -15 -4 -10 0 -15 10 -15 33 l0 32 15 -29 c8 -15 15 -30 15 -32z
m-352 -77 c35 -67 40 -90 17 -81 -25 10 -80 144 -59 144 5 0 24 -28 42 -63z
m419 41 c-3 -8 -6 -5 -6 6 -1 11 2 17 5 13 3 -3 4 -12 1 -19z m193 -22 c-10
-44 -41 -96 -57 -96 -18 0 -17 3 18 76 33 67 52 78 39 20z m-311 -50 c-1 -6
-5 -22 -9 -36 -7 -23 -8 -23 -9 -3 -1 12 -3 28 -6 36 -4 8 0 14 10 14 8 0 15
-5 14 -11z m77 -93 c-36 -78 -43 -61 -9 23 15 37 29 60 31 51 2 -9 -8 -42 -22
-74z m-179 40 c22 -53 33 -93 25 -93 -7 0 -52 104 -52 120 0 21 12 9 27 -27z
m-110 -60 c-3 -10 -5 -4 -5 12 0 17 2 24 5 18 2 -7 2 -21 0 -30z m413 11 c0
-8 -4 -14 -10 -14 -5 0 -10 9 -10 21 0 11 5 17 10 14 6 -3 10 -13 10 -21z
m-330 -50 c0 -12 -4 -12 -20 -4 -11 6 -20 17 -20 26 0 12 4 12 20 4 11 -6 20
-17 20 -26z m270 22 c0 -16 -14 -36 -26 -36 -14 0 -19 22 -7 33 7 8 33 10 33
3z m45 -137 c-9 -35 -21 -68 -27 -74 -7 -7 -8 -4 -4 10 3 11 10 42 16 69 11
52 19 70 27 63 2 -3 -3 -33 -12 -68z m-389 34 c3 -16 10 -44 15 -63 21 -83 4
-64 -21 24 -10 36 -14 66 -9 66 5 0 11 -12 15 -27z m124 12 c0 -8 -7 -15 -15
-15 -26 0 -18 20 13 29 1 1 2 -6 2 -14z m156 -13 c-9 -9 -37 8 -31 18 5 8 11
7 21 -1 8 -6 12 -14 10 -17z m-326 8 c0 -5 -5 -10 -11 -10 -5 0 -7 5 -4 10 3
6 8 10 11 10 2 0 4 -4 4 -10z m113 -97 c5 -4 17 -2 28 5 16 10 24 10 35 1 8
-6 14 -15 14 -20 0 -8 -70 -42 -75 -37 -7 8 -35 101 -35 117 0 39 15 30 20
-13 3 -25 9 -49 13 -53z m274 42 c-11 -75 -42 -118 -62 -85 -3 6 -15 10 -26
10 -12 0 -19 7 -19 20 0 28 27 36 49 16 16 -15 19 -15 31 -1 7 8 13 33 14 54
0 22 5 37 9 34 5 -3 7 -25 4 -48z m147 -72 c4 -9 1 -20 -6 -24 -13 -8 -30 18
-21 34 7 12 21 8 27 -10z m-661 -118 c-5 -13 -23 -22 -23 -11 0 15 14 35 21
31 4 -3 6 -12 2 -20z m750 -25 c16 -26 16 -29 2 -24 -14 6 -35 34 -35 48 0 16
18 3 33 -24z m-739 -106 l6 -86 -47 -56 c-27 -31 -59 -70 -73 -88 -14 -17 -52
-64 -85 -105 -33 -40 -63 -77 -67 -83 -4 -6 -9 -8 -12 -5 -3 3 46 101 109 218
64 116 123 230 131 251 9 22 20 40 24 40 4 0 10 -39 14 -86z m806 26 c42 0 59
-19 81 -93 12 -39 41 -135 65 -211 24 -77 42 -141 40 -143 -5 -5 -24 26 -165
281 -61 110 -111 204 -111 209 0 5 15 -2 34 -17 19 -14 44 -26 56 -26z m-440
-9 c0 -9 -20 -37 -20 -29 0 3 -2 13 -5 21 -4 8 0 14 10 14 8 0 15 -3 15 -6z
m190 -215 c22 -109 39 -200 37 -203 -3 -2 -8 6 -12 19 -4 13 -27 85 -51 161
-24 76 -44 150 -44 165 0 39 11 75 20 65 4 -4 27 -97 50 -207z m-100 52 c0
-11 -6 -47 -14 -81 -8 -34 -25 -113 -37 -175 -12 -61 -24 -110 -27 -108 -2 3
1 81 8 174 12 161 11 206 -5 262 -7 22 -3 21 34 -15 22 -21 41 -47 41 -57z"/>
<path d="M1531 2798 c-48 -236 -71 -474 -71 -750 l0 -126 33 -21 c17 -11 39
-26 48 -32 13 -10 26 -6 69 22 l53 34 -7 215 c-4 118 -14 271 -21 340 -19 161
-47 338 -53 322 -2 -6 4 -56 12 -110 29 -180 45 -375 47 -560 1 -101 0 -184
-2 -186 -26 -19 -68 -46 -73 -46 -3 0 -6 217 -5 483 1 294 4 472 10 457 7 -21
8 -20 4 9 -3 18 -5 37 -5 42 0 5 -4 9 -9 9 -4 0 -18 -46 -30 -102z"/>
<path d="M1343 2685 c0 -22 2 -30 4 -17 2 12 2 30 0 40 -3 9 -5 -1 -4 -23z"/>
<path d="M1082 2600 c0 -19 2 -27 5 -17 2 9 2 25 0 35 -3 9 -5 1 -5 -18z"/>
<path d="M1333 2490 c0 -25 2 -35 4 -22 2 12 2 32 0 45 -2 12 -4 2 -4 -23z"/>
<path d="M1014 856 c-3 -8 -4 -27 -2 -43 3 -23 5 -20 9 15 5 43 2 53 -7 28z"/>
<path d="M1002 740 c0 -19 2 -27 5 -17 2 9 2 25 0 35 -3 9 -5 1 -5 -18z"/>
<path d="M993 645 c0 -22 2 -30 4 -17 2 12 2 30 0 40 -3 9 -5 -1 -4 -23z"/>
</g>
</svg>
