<?xml version="1.0" standalone="no"?>
<!DOCTYPE svg PUBLIC "-//W3C//DTD SVG 20010904//EN"
 "http://www.w3.org/TR/2001/REC-SVG-20010904/DTD/svg10.dtd">
<svg version="1.0" xmlns="http://www.w3.org/2000/svg"
 width="244.000000pt" height="305.000000pt" viewBox="0 0 244.000000 305.000000"
 preserveAspectRatio="xMidYMid meet">
<metadata>
Created by potrace 1.16, written by Peter Selinger 2001-2019
</metadata>
<g transform="translate(0.000000,305.000000) scale(0.100000,-0.100000)"
fill="#000000" stroke="none">
<path d="M916 2873 c-54 -313 -73 -502 -78 -774 l-2 -167 47 -36 c26 -20 49
-36 52 -36 2 0 16 11 31 25 32 30 37 30 60 8 16 -17 15 -18 -18 -26 -30 -7
-39 -16 -56 -54 l-20 -46 -20 40 c-28 54 -70 72 -116 50 -23 -10 -35 -24 -39
-43 -8 -42 0 -50 38 -46 29 4 41 -2 70 -31 38 -38 44 -61 19 -75 -15 -8 -16
-22 -4 -148 20 -230 22 -262 10 -236 -5 13 -13 63 -17 110 -3 48 -8 81 -11 74
-2 -6 -17 -12 -33 -12 -66 0 -89 -74 -47 -156 23 -46 19 -66 -7 -44 -50 41
-63 143 -27 204 28 48 28 60 -3 74 -39 18 -83 14 -105 -8 -25 -25 -25 -33 0
-112 44 -139 32 -159 -184 -298 -93 -61 -172 -108 -175 -105 -3 3 53 64 124
135 126 127 131 130 170 127 l40 -2 -3 65 c-3 90 -12 153 -20 145 -7 -7 -4
-141 4 -168 5 -16 1 -17 -28 -12 -32 6 -38 1 -213 -175 -99 -99 -175 -180
-170 -180 6 0 107 35 225 78 208 77 214 80 222 110 5 18 13 32 19 32 17 0 69
-30 69 -39 0 -5 -19 -41 -41 -81 -23 -39 -39 -73 -37 -76 3 -2 38 16 79 41 72
44 74 45 82 23 11 -31 3 -44 -30 -51 -28 -5 -31 -11 -77 -174 -75 -260 -115
-413 -108 -412 4 0 30 29 57 65 28 36 57 73 65 82 9 9 51 62 95 117 122 155
114 152 94 27 -9 -59 -24 -144 -31 -189 -8 -46 -11 -83 -6 -83 4 0 8 5 8 11 0
6 30 72 66 147 130 267 132 274 127 327 l-6 48 29 -7 c32 -8 60 -31 75 -59 8
-14 3 -26 -19 -55 l-29 -37 43 -235 c24 -129 51 -273 59 -319 8 -47 17 -86 19
-88 2 -2 11 40 21 94 10 54 36 201 60 327 l42 229 -28 32 c-36 41 -36 47 1 78
63 53 99 45 81 -18 -11 -40 -13 -33 81 -235 81 -173 122 -253 125 -243 2 6
-10 91 -27 188 -17 98 -29 179 -27 181 3 3 17 -14 203 -243 59 -73 109 -131
111 -129 2 1 -5 32 -16 67 -10 35 -40 141 -66 234 -26 94 -54 193 -61 221 -13
45 -19 52 -44 58 -23 4 -30 11 -30 29 0 13 3 27 7 30 6 7 64 -23 142 -75 24
-16 45 -27 47 -26 2 2 -21 46 -51 98 -30 52 -51 98 -47 102 4 3 19 10 35 13
27 7 28 6 31 -34 1 -18 9 -21 136 -66 58 -20 140 -50 182 -67 42 -16 83 -28
92 -26 10 2 -43 63 -149 171 -142 146 -167 168 -191 165 l-28 -3 2 95 c1 64
-1 88 -8 75 -5 -11 -9 -40 -9 -65 -1 -25 -8 -66 -15 -92 -11 -36 -12 -50 -3
-61 7 -8 85 -65 175 -127 90 -62 161 -115 158 -117 -7 -8 -321 123 -320 133 1
5 4 21 8 36 5 21 2 28 -12 33 -45 14 -53 91 -22 202 28 100 13 133 -59 133
-28 0 -71 -25 -71 -41 0 -6 11 -27 25 -47 38 -55 31 -129 -18 -190 -18 -23
-26 8 -11 44 16 39 18 88 4 114 -9 17 -69 45 -77 36 -3 -2 -8 -29 -12 -60 -4
-31 -11 -59 -16 -63 -4 -5 -4 12 0 37 4 25 9 98 10 162 2 92 0 118 -11 122
-25 9 -15 52 18 85 26 26 40 31 68 29 33 -3 35 -1 33 26 -6 85 -115 92 -149
10 -16 -37 -34 -37 -34 -1 0 13 -7 33 -16 46 -13 18 -23 22 -45 17 -31 -6 -39
10 -17 32 17 17 23 15 61 -18 l34 -30 19 21 c10 12 32 28 47 36 l28 14 -6 202
c-9 311 -30 515 -76 726 -11 54 -29 55 -29 1 0 -20 2 -22 10 -10 6 10 10 -149
10 -457 0 -326 -3 -474 -11 -478 -6 -4 -21 3 -35 16 l-24 22 0 266 c1 174 6
302 15 371 8 58 14 114 14 125 -2 36 -18 -48 -25 -130 -5 -54 -10 -72 -14 -55
-3 14 -10 -111 -14 -278 -7 -298 -10 -332 -27 -332 -4 0 -8 212 -8 471 -1 356
2 468 11 463 8 -5 9 -2 5 10 -4 10 -7 27 -8 39 -1 14 -4 9 -9 -13 -15 -60 -39
-366 -45 -565 -7 -235 -15 -335 -26 -335 -5 0 -9 22 -9 48 0 27 -6 57 -15 68
-9 13 -14 44 -15 94 0 127 -54 430 -70 399 -15 -27 -52 -242 -61 -352 -5 -62
-13 -130 -19 -152 -5 -22 -10 -62 -10 -90 -1 -45 -2 -47 -12 -25 -6 14 -14
113 -18 220 l-7 195 -1 -142 c-1 -80 -6 -143 -12 -145 -5 -1 -13 -39 -19 -83
-6 -58 -9 50 -9 393 0 261 -2 475 -4 478 -6 5 -26 -172 -34 -299 -4 -54 -10
-100 -14 -102 -4 -3 -10 30 -14 72 -12 134 -53 353 -66 353 -4 0 -10 -17 -14
-37z m14 -494 l0 -480 -41 28 -41 28 6 215 c5 213 55 690 72 690 2 0 4 -216 4
-481z m263 -300 c-6 -192 -9 -222 -15 -164 -5 39 -6 99 -3 135 2 36 7 111 11
168 11 175 14 107 7 -139z m264 -46 c-2 -21 -4 -4 -4 37 0 41 2 58 4 38 2 -21
2 -55 0 -75z m-367 -173 c0 -5 -4 -10 -10 -10 -5 0 -10 5 -10 10 0 6 5 10 10
10 6 0 10 -4 10 -10z m320 6 c0 -11 -19 -15 -25 -6 -3 5 1 10 9 10 9 0 16 -2
16 -4z m-290 -127 c-12 -22 -30 -25 -30 -6 0 17 21 38 32 31 4 -3 3 -14 -2
-25z m254 12 c12 -13 14 -21 6 -26 -13 -8 -40 12 -40 31 0 20 14 17 34 -5z
m-339 -48 c3 -18 2 -34 -4 -38 -6 -3 -11 -27 -11 -53 0 -34 -3 -43 -10 -32 -5
8 -10 31 -10 51 0 23 -6 39 -15 43 -20 7 -19 36 1 65 14 19 19 21 29 9 7 -7
16 -27 20 -45z m451 30 c18 -24 17 -48 -1 -63 -8 -7 -15 -24 -15 -39 0 -52
-18 -56 -24 -5 -8 71 -7 95 5 110 15 18 19 18 35 -3z m-300 -101 c-13 -12 -17
8 -10 40 l9 33 3 -33 c2 -19 1 -36 -2 -40z m-36 2 c0 -8 11 -19 23 -23 13 -5
32 -26 42 -47 l18 -38 19 38 c10 20 30 41 44 46 14 6 23 14 20 19 -3 4 3 16
13 25 18 16 20 16 34 -4 14 -21 12 -74 -4 -65 -4 3 -26 3 -47 -1 -43 -7 -55
-23 -68 -90 l-7 -38 -14 49 c-19 63 -29 75 -63 75 -47 0 -60 10 -60 45 0 18 6
35 13 38 15 6 37 -11 37 -29z m-190 -64 c13 -27 45 -76 72 -107 48 -57 61 -87
33 -77 -35 14 -145 181 -145 222 0 26 18 10 40 -38z m110 3 c0 -12 9 -38 20
-58 24 -43 26 -63 6 -45 -17 13 -31 55 -41 115 -4 29 -3 36 4 25 6 -8 11 -25
11 -37z m336 -37 c-9 -29 -23 -59 -31 -66 -21 -17 -19 -1 5 38 11 18 20 43 20
56 0 14 3 33 7 43 16 39 15 -16 -1 -71z m134 63 c0 -26 -37 -108 -60 -134 -10
-11 -30 -32 -44 -47 -24 -27 -46 -36 -46 -20 0 4 25 37 55 75 30 37 60 85 66
107 13 43 29 53 29 19z m-370 -133 c0 -6 -9 0 -20 14 -26 33 -25 52 0 21 11
-13 20 -28 20 -35z m160 25 c-10 -21 -30 -37 -30 -26 0 14 21 45 31 45 6 0 6
-7 -1 -19z m-370 -105 c0 -19 -4 -38 -10 -41 -6 -4 -10 10 -10 34 0 23 5 41
10 41 6 0 10 -15 10 -34z m580 -6 c0 -22 -4 -40 -10 -40 -5 0 -10 18 -10 40 0
22 5 40 10 40 6 0 10 -18 10 -40z m-360 -6 c0 -14 -12 -19 -23 -8 -9 9 4 35
14 28 5 -3 9 -12 9 -20z m131 -7 c-13 -13 -26 -3 -16 12 3 6 11 8 17 5 6 -4 6
-10 -1 -17z m130 -149 c-13 -41 -22 -45 -101 -50 -53 -3 -55 -2 -55 22 0 18 7
26 25 30 30 7 40 48 16 66 -14 10 -12 12 14 16 l31 5 -2 -54 c-3 -61 2 -69 30
-54 25 14 35 50 27 95 -5 24 -3 35 6 38 18 6 23 -66 9 -114z m-397 70 c-6 -51
13 -93 41 -93 18 0 20 6 17 53 l-4 52 39 -1 c21 -1 31 -3 21 -6 -18 -5 -34
-52 -21 -63 4 -5 17 -10 28 -12 14 -2 20 -11 20 -28 0 -24 -2 -25 -60 -22 -33
2 -66 9 -72 14 -19 15 -32 74 -26 113 8 50 24 43 17 -7z m549 -8 c3 -11 1 -20
-4 -20 -5 0 -9 9 -9 20 0 11 2 20 4 20 2 0 6 -9 9 -20z m-693 -34 c0 -3 -4 -8
-10 -11 -5 -3 -10 -1 -10 4 0 6 5 11 10 11 6 0 10 -2 10 -4z m770 -10 c0 -17
-39 -66 -40 -49 0 18 22 63 32 63 4 0 8 -6 8 -14z m-194 -73 c-11 -11 -17 4
-9 23 7 18 8 18 11 1 2 -10 1 -21 -2 -24z m-606 -35 c0 -17 -18 -6 -28 17 -19
41 -14 53 8 20 11 -16 20 -33 20 -37z m893 -45 c51 -81 50 -89 -2 -38 -51 50
-64 75 -36 75 8 0 25 -17 38 -37z m-168 -43 l-7 -58 98 -199 c140 -286 137
-278 119 -263 -8 7 -61 72 -116 145 -56 74 -109 144 -120 157 -14 18 -17 35
-14 78 3 30 7 85 9 123 5 72 12 91 28 81 6 -4 7 -28 3 -64z m-699 34 c13 -50
-6 -101 -96 -269 -50 -93 -107 -204 -127 -245 -19 -41 -37 -70 -39 -65 -2 6
25 106 59 224 l62 214 42 14 c36 12 44 20 53 51 5 20 10 49 10 63 0 45 26 54
36 13z m-116 2 c0 -8 -17 -25 -37 -37 -21 -13 -44 -28 -52 -33 -8 -5 -4 6 10
24 13 17 28 38 34 46 13 18 45 18 45 0z m466 -121 c11 14 14 15 14 4 0 -8 -6
-24 -14 -35 -14 -18 -15 -17 -30 18 -20 48 -20 62 1 24 15 -28 16 -29 29 -11z
m268 -26 c5 -4 9 -27 8 -50 -1 -23 3 -48 9 -55 11 -14 62 -278 57 -302 -2 -8
-33 82 -70 199 -36 118 -64 218 -61 222 5 9 43 0 57 -14z m-470 -32 c7 -44 2
-59 -76 -227 -12 -25 -32 -69 -45 -99 -28 -63 -39 -63 -19 0 20 62 61 200 88
292 12 42 27 77 34 77 6 0 15 -19 18 -43z m136 -78 c-12 -21 -10 -94 5 -254 9
-87 -11 -18 -30 106 l-18 116 22 32 c26 36 39 36 21 0z"/>
<path d="M1505 2780 c-4 -23 -5 -43 -2 -46 2 -3 7 14 11 37 4 23 5 44 2 46 -2
2 -7 -14 -11 -37z"/>
<path d="M1073 2745 c0 -22 2 -30 4 -17 2 12 2 30 0 40 -3 9 -5 -1 -4 -23z"/>
<path d="M1432 2750 c0 -19 2 -27 5 -17 2 9 2 25 0 35 -3 9 -5 1 -5 -18z"/>
<path d="M1083 2640 c0 -25 2 -35 4 -22 2 12 2 32 0 45 -2 12 -4 2 -4 -23z"/>
<path d="M1443 2620 c0 -25 2 -35 4 -22 2 12 2 32 0 45 -2 12 -4 2 -4 -23z"/>
<path d="M1093 2490 c0 -41 2 -58 4 -37 2 20 2 54 0 75 -2 20 -4 3 -4 -38z"/>
</g>
</svg>
