<?xml version="1.0" standalone="no"?>
<!DOCTYPE svg PUBLIC "-//W3C//DTD SVG 20010904//EN"
 "http://www.w3.org/TR/2001/REC-SVG-20010904/DTD/svg10.dtd">
<svg version="1.0" xmlns="http://www.w3.org/2000/svg"
 width="244.000000pt" height="305.000000pt" viewBox="0 0 244.000000 305.000000"
 preserveAspectRatio="xMidYMid meet">
<metadata>
Created by potrace 1.16, written by Peter Selinger 2001-2019
</metadata>
<g transform="translate(0.000000,305.000000) scale(0.100000,-0.100000)"
fill="#000000" stroke="none">
<path d="M898 2905 c-3 -6 -8 -26 -12 -45 -4 -26 -3 -30 3 -15 6 13 10 -158
10 -462 1 -266 -1 -483 -4 -483 -19 0 -76 49 -82 69 -14 56 11 453 43 666 23
159 25 198 4 95 -35 -166 -51 -328 -57 -572 -6 -227 -5 -238 13 -245 10 -3 33
-17 50 -30 17 -13 34 -23 37 -23 4 0 28 16 54 36 l48 37 1 76 c3 136 -25 516
-45 638 -26 147 -55 270 -63 258z"/>
<path d="M1172 2880 c0 -14 2 -19 5 -12 2 6 2 18 0 25 -3 6 -5 1 -5 -13z"/>
<path d="M1290 2790 c-1 -63 -2 -182 -2 -265 1 -120 -1 -139 -8 -95 -5 30 -18
82 -28 115 l-20 60 -11 -41 c-6 -22 -14 -56 -18 -75 -6 -24 -10 2 -13 96 l-6
130 -2 -180 c-2 -99 -7 -211 -12 -250 -5 -38 -12 -150 -16 -247 -7 -177 -17
-222 -29 -130 -4 26 -14 83 -24 127 -18 79 -18 80 -31 50 -6 -16 -15 -69 -17
-117 l-6 -86 30 -16 c17 -8 33 -23 37 -31 11 -28 7 -80 -8 -100 -12 -17 -17
-18 -40 -7 -35 16 -36 16 -36 -11 0 -28 26 -67 46 -67 8 0 26 11 40 25 14 14
27 25 28 25 2 0 6 -19 9 -42 3 -24 7 -52 9 -63 3 -17 -2 -19 -37 -16 -30 2
-45 -3 -58 -17 -17 -19 -17 -20 18 -26 32 -6 35 -10 35 -41 0 -50 -19 -45 -83
25 -44 48 -57 69 -62 104 -4 25 -13 47 -21 50 -21 8 -17 31 12 66 24 28 32 31
73 29 54 -4 61 9 32 57 -37 60 -109 51 -146 -19 -21 -38 -35 -48 -35 -22 0 8
-13 29 -29 47 -24 27 -36 33 -71 33 -49 0 -83 -32 -78 -74 3 -23 7 -25 43 -23
34 3 45 -2 73 -29 34 -34 42 -73 16 -83 -38 -15 3 -146 73 -229 12 -16 23 -33
23 -38 0 -6 -16 -31 -35 -56 -34 -44 -43 -76 -27 -99 13 -19 56 -44 77 -44 36
0 44 17 30 63 -16 56 -4 91 27 81 94 -28 120 -64 99 -135 -11 -35 -14 -38 -33
-28 -16 9 -33 6 -80 -11 -54 -20 -61 -20 -83 -6 -49 32 -75 79 -74 132 2 59
-10 134 -24 151 -14 19 -61 16 -80 -5 -36 -39 -26 -94 35 -193 67 -109 98
-173 98 -201 -1 -33 -25 -83 -127 -258 -49 -85 -106 -186 -127 -223 -21 -38
-40 -67 -42 -64 -5 4 112 381 129 416 7 14 30 30 57 40 49 18 57 34 59 114 1
55 -15 92 -69 157 -47 57 -68 97 -75 146 -5 32 -1 47 24 83 22 33 27 49 20 62
-16 31 -87 42 -128 19 -26 -13 -28 -67 -6 -130 19 -54 19 -113 0 -151 -9 -16
-40 -43 -71 -62 -30 -17 -63 -37 -72 -42 -9 -6 -48 -28 -87 -49 -38 -21 -92
-52 -118 -69 -26 -16 -50 -28 -52 -25 -2 2 60 64 138 137 l142 132 48 -6 49
-6 -6 53 c-17 161 -18 171 -26 158 -5 -8 -6 -52 -3 -98 l6 -83 -34 6 c-32 5
-40 0 -134 -86 -146 -135 -277 -261 -273 -264 8 -6 472 155 479 167 5 7 9 21
9 32 0 19 16 18 73 -3 56 -22 125 -105 113 -137 -3 -7 -20 -20 -39 -27 -31
-14 -35 -22 -75 -143 -64 -201 -134 -436 -130 -440 3 -3 214 231 368 409 31
35 32 39 22 79 -6 23 -9 45 -6 50 8 12 162 10 187 -3 34 -17 66 -59 60 -76 -5
-12 -7 -12 -14 -1 -7 10 -9 8 -9 -6 0 -11 -7 -27 -15 -36 -13 -14 -14 -26 -6
-61 5 -24 12 -80 16 -123 4 -43 10 -74 14 -67 4 7 20 -52 35 -131 15 -79 35
-177 45 -218 l17 -75 33 165 c50 254 55 274 59 262 10 -32 22 7 22 76 1 42 5
96 9 119 6 33 5 46 -6 55 -9 7 -13 27 -11 57 2 37 8 48 28 58 29 15 186 18
195 3 3 -5 -1 -25 -9 -44 -18 -44 -22 -39 197 -280 20 -22 70 -78 110 -123 39
-44 73 -78 75 -73 1 4 -35 130 -81 281 l-85 274 -36 14 c-40 15 -45 34 -21 81
19 36 68 74 117 89 44 14 58 9 58 -23 0 -20 21 -29 232 -99 127 -42 233 -75
235 -73 4 4 -78 84 -252 245 -104 96 -112 102 -143 96 l-33 -6 6 79 c10 110
-6 129 -22 27 -7 -44 -15 -96 -19 -115 -5 -34 -4 -36 58 -74 180 -111 318
-201 310 -204 -6 -2 -59 16 -118 38 -60 23 -137 51 -171 63 -64 21 -77 39 -50
66 10 10 5 18 -22 40 -45 37 -53 101 -22 194 33 98 15 137 -61 137 -34 0 -78
-23 -78 -41 0 -6 11 -27 25 -47 28 -41 32 -93 13 -138 -7 -16 -38 -63 -69
-104 -57 -76 -79 -133 -79 -205 0 -25 18 -69 61 -148 166 -301 191 -349 187
-353 -3 -2 -69 73 -149 168 -113 135 -144 176 -142 197 2 14 4 64 6 111 4 93
11 112 99 257 60 98 73 158 39 192 -12 12 -34 21 -51 21 -24 0 -31 -5 -35 -27
-4 -16 -10 -46 -15 -69 -5 -22 -7 -56 -4 -75 5 -27 0 -42 -25 -77 -43 -58 -73
-71 -113 -48 -16 10 -44 19 -61 20 -33 2 -38 11 -50 97 -5 35 -5 36 46 52 63
20 70 13 61 -65 -5 -51 -4 -57 15 -63 25 -8 77 18 92 46 13 25 -2 67 -33 96
-40 36 -40 47 3 104 22 30 47 69 55 88 18 44 18 110 -1 131 -36 40 32 113 100
108 39 -3 40 -2 38 26 -3 44 -29 66 -78 66 -44 0 -69 -19 -97 -73 l-14 -29
-16 40 c-18 47 -64 76 -103 66 -32 -8 -67 -51 -63 -78 3 -18 9 -21 49 -18 41
3 49 0 72 -28 31 -36 32 -43 14 -62 -7 -7 -19 -35 -27 -61 -13 -48 -81 -136
-121 -158 -17 -9 -19 -6 -19 31 0 33 3 40 19 40 11 0 27 3 36 6 30 12 -12 44
-57 44 l-38 0 6 58 c4 31 8 58 9 60 2 2 14 -8 28 -22 15 -14 31 -26 37 -26 19
0 50 40 50 65 0 29 0 29 -36 13 -23 -11 -28 -10 -40 7 -8 10 -14 38 -14 62 0
38 4 45 35 65 30 20 35 28 35 63 0 52 -19 168 -29 178 -10 10 -24 -46 -42
-156 -6 -43 -15 -80 -19 -82 -9 -6 -20 244 -21 509 -1 116 -5 283 -9 371 l-6
160 -4 -115z m-62 -422 c-1 -90 -2 -290 0 -446 3 -273 -2 -329 -25 -300 -15
19 -23 71 -16 112 9 55 24 31 17 -27 -4 -38 -3 -48 5 -37 12 17 13 219 1 325
-7 62 -8 57 -6 -43 1 -62 -1 -107 -5 -100 -5 8 -9 4 -13 -13 -13 -58 -15 -61
-10 -14 3 28 9 165 13 305 7 220 24 400 38 400 2 0 3 -73 1 -162z m-51 -415
c-2 -32 -3 -6 -3 57 0 63 1 89 3 58 2 -32 2 -84 0 -115z m-241 -388 c28 -57
104 -136 149 -157 14 -6 25 -20 25 -30 0 -17 -2 -17 -37 -3 -67 28 -153 127
-174 198 -7 26 -5 47 5 47 2 0 16 -25 32 -55z m634 33 c-1 -33 -33 -99 -69
-140 -33 -38 -119 -98 -139 -98 -23 0 -12 30 17 44 45 24 139 126 158 173 20
47 33 56 33 21z m-293 -35 c-3 -10 -5 -4 -5 12 0 17 2 24 5 18 2 -7 2 -21 0
-30z m-67 8 c0 -6 -4 -13 -10 -16 -5 -3 -10 1 -10 9 0 9 5 16 10 16 6 0 10 -4
10 -9z m51 -62 c-5 -13 -10 -19 -10 -12 -1 15 10 45 15 40 3 -2 0 -15 -5 -28z
m-24 -26 c-3 -10 -5 -2 -5 17 0 19 2 27 5 18 2 -10 2 -26 0 -35z m-73 -18 c3
-13 9 -53 12 -87 4 -46 3 -59 -5 -48 -6 8 -11 40 -12 70 0 40 -3 50 -9 35 -7
-16 -9 -13 -9 18 -1 42 14 50 23 12z m166 -7 c0 -25 -3 -29 -10 -18 -7 11 -10
-1 -10 -40 0 -30 -5 -62 -11 -70 -8 -11 -9 2 -5 48 7 77 15 112 27 112 5 0 9
-15 9 -32z m45 -312 c5 -31 4 -46 -4 -46 -6 0 -11 18 -11 43 0 23 -3 53 -5 67
-5 23 -5 23 4 4 5 -12 13 -42 16 -68z m-218 52 c-3 -8 -6 -5 -6 6 -1 11 2 17
5 13 3 -3 4 -12 1 -19z m33 -20 c0 -5 -4 -8 -10 -8 -5 0 -10 10 -10 23 0 18 2
19 10 7 5 -8 10 -18 10 -22z m107 0 c-3 -7 -5 -2 -5 12 0 14 2 19 5 13 2 -7 2
-19 0 -25z m20 10 c-3 -8 -6 -5 -6 6 -1 11 2 17 5 13 3 -3 4 -12 1 -19z m-177
-108 c0 -5 -7 -10 -15 -10 -8 0 -15 5 -15 10 0 6 7 10 15 10 8 0 15 -4 15 -10z
m220 0 c0 -5 -7 -10 -15 -10 -8 0 -15 5 -15 10 0 6 7 10 15 10 8 0 15 -4 15
-10z m-123 -162 c-3 -8 -6 -5 -6 6 -1 11 2 17 5 13 3 -3 4 -12 1 -19z m-9
-268 c-3 -96 -4 -215 -2 -265 5 -106 2 -103 -26 30 -48 225 -49 240 -34 337 8
50 22 101 31 115 l16 25 11 -33 c7 -22 9 -93 4 -209z m-87 93 c-9 -16 -10 -15
-11 9 0 14 3 35 8 45 6 15 8 14 10 -9 2 -15 -1 -35 -7 -45z"/>
<path d="M1213 760 c0 -36 2 -50 4 -32 2 17 2 47 0 65 -2 17 -4 3 -4 -33z"/>
<path d="M1558 2875 c-3 -14 -1 -25 3 -25 5 0 9 -214 9 -475 0 -326 -3 -475
-11 -475 -5 0 -26 12 -45 28 l-34 27 0 146 c0 173 14 356 40 528 29 197 32
227 15 156 -31 -132 -57 -341 -65 -540 -15 -330 -15 -320 19 -335 16 -6 39
-22 51 -35 l23 -24 30 25 c17 14 42 30 55 35 l25 10 -7 197 c-4 108 -11 249
-17 312 -15 163 -69 470 -83 470 -2 0 -6 -11 -8 -25z"/>
<path d="M1163 2530 c0 -30 2 -43 4 -27 2 15 2 39 0 55 -2 15 -4 2 -4 -28z"/>
<path d="M1091 1244 c0 -11 3 -14 6 -6 3 7 2 16 -1 19 -3 4 -6 -2 -5 -13z"/>
<path d="M1081 1194 c0 -11 3 -14 6 -6 3 7 2 16 -1 19 -3 4 -6 -2 -5 -13z"/>
<path d="M1117 511 c-4 -18 -7 -45 -6 -60 1 -17 4 -11 10 19 5 25 8 52 6 60
-2 8 -6 0 -10 -19z"/>
<path d="M1346 522 c-3 -5 -1 -30 3 -58 l9 -49 1 58 c1 55 -2 66 -13 49z"/>
</g>
</svg>
