<?xml version="1.0" standalone="no"?>
<!DOCTYPE svg PUBLIC "-//W3C//DTD SVG 20010904//EN"
 "http://www.w3.org/TR/2001/REC-SVG-20010904/DTD/svg10.dtd">
<svg version="1.0" xmlns="http://www.w3.org/2000/svg"
 width="244.000000pt" height="305.000000pt" viewBox="0 0 244.000000 305.000000"
 preserveAspectRatio="xMidYMid meet">
<metadata>
Created by potrace 1.16, written by Peter Selinger 2001-2019
</metadata>
<g transform="translate(0.000000,305.000000) scale(0.100000,-0.100000)"
fill="#000000" stroke="none">
<path d="M866 2783 c-33 -162 -53 -316 -60 -468 -18 -399 -18 -395 -3 -395 8
0 34 -16 57 -35 42 -35 43 -35 61 -17 9 11 33 29 51 40 l34 21 -3 163 c-5 285
-27 489 -80 741 -9 42 -19 77 -23 77 -4 0 -19 -57 -34 -127z m30 -881 c-3 -2
-23 9 -45 24 l-41 29 0 95 c0 216 28 523 68 725 l17 90 3 -479 c1 -264 0 -481
-2 -484z"/>
<path d="M1568 2400 c1 -275 -1 -500 -5 -500 -4 0 -25 12 -46 27 l-40 28 6
215 c7 241 30 448 73 658 3 17 4 32 1 32 -6 0 -32 -118 -51 -240 -21 -132 -34
-292 -42 -512 l-6 -188 28 -10 c16 -6 41 -23 56 -37 l27 -26 32 31 c18 18 41
34 51 38 16 5 18 18 18 137 0 151 -15 387 -30 497 -19 129 -62 350 -69 350 -3
0 -5 -225 -3 -500z"/>
<path d="M1141 2874 c0 -11 3 -14 6 -6 3 7 2 16 -1 19 -3 4 -6 -2 -5 -13z"/>
<path d="M1316 2738 c-3 -84 -9 -211 -13 -283 l-6 -130 -13 74 c-14 82 -45
203 -51 198 -6 -7 -42 -153 -50 -207 l-8 -55 -6 85 c-5 75 -6 67 -7 -60 -3
-185 -13 -454 -18 -459 -2 -2 -5 196 -6 440 -1 288 -4 404 -8 329 -4 -63 -8
-239 -9 -390 -1 -261 -8 -315 -27 -206 -6 36 -8 38 -20 22 -7 -10 -15 -41 -18
-70 -15 -134 -15 -129 15 -156 22 -19 27 -31 23 -48 -7 -23 -7 -23 -24 6 -36
59 -127 46 -151 -23 -7 -19 -15 -35 -19 -35 -3 0 -14 17 -25 38 -15 27 -31 41
-61 51 -38 13 -44 13 -68 -3 -32 -21 -52 -64 -36 -80 6 -6 26 -9 44 -8 26 3
42 -4 70 -28 38 -33 50 -80 21 -80 -24 0 -19 -77 10 -139 14 -29 39 -70 55
-91 17 -21 30 -41 30 -45 0 -4 -13 -23 -30 -41 -58 -66 -50 -124 20 -145 56
-17 66 -5 51 56 -14 58 -3 85 34 78 23 -5 35 -27 17 -35 -4 -2 -17 -35 -30
-75 -32 -99 -62 -106 -129 -30 -27 31 -30 43 -36 124 -8 103 -12 120 -38 134
-22 11 -73 -11 -83 -36 -19 -49 -4 -89 92 -244 76 -124 75 -145 -25 -315 -86
-148 -144 -249 -182 -318 -14 -26 -29 -48 -32 -48 -7 0 4 36 88 294 l49 150
44 14 c54 18 57 22 66 89 8 67 -4 100 -66 178 -85 107 -100 171 -55 237 14 20
25 44 25 52 0 22 -32 36 -83 36 -77 0 -93 -40 -57 -145 46 -134 35 -147 -248
-310 -84 -48 -154 -86 -157 -84 -2 3 46 50 108 106 62 56 127 116 146 133 31
29 38 31 79 25 l45 -7 -6 78 c-4 42 -7 90 -7 106 0 15 -5 28 -11 28 -9 0 -10
-26 -6 -90 l6 -91 -33 6 c-35 7 -53 -7 -236 -179 -36 -33 -92 -85 -124 -114
-32 -29 -57 -55 -54 -57 4 -4 143 40 371 117 106 37 117 43 117 65 0 34 19 37
76 13 60 -26 81 -44 105 -93 23 -44 20 -52 -25 -67 -34 -11 -36 -15 -80 -153
-109 -343 -135 -431 -132 -435 2 -2 22 16 43 40 94 103 233 259 297 331 l69
78 -12 41 c-8 25 -9 44 -3 50 5 5 44 8 88 6 l79 -3 -2 -80 c-2 -71 -16 -268
-28 -395 -2 -25 11 13 30 85 19 72 34 137 34 145 -1 8 -9 -14 -19 -50 -21 -75
-25 -57 -9 39 17 99 21 102 34 31 7 -36 29 -144 49 -240 20 -96 43 -208 51
-249 13 -65 25 -102 25 -75 0 5 25 131 55 279 30 149 55 272 56 275 0 3 18
-60 39 -140 35 -135 38 -141 39 -92 1 36 -3 51 -10 46 -7 -4 -9 12 -5 52 3 43
3 49 -3 24 -7 -29 -9 -31 -10 -10 0 14 -12 95 -26 180 -20 122 -23 155 -13
161 8 5 16 2 20 -9 5 -14 7 -13 7 6 1 23 2 23 76 24 106 1 108 1 101 -29 -18
-73 -18 -77 21 -119 21 -22 109 -120 197 -218 87 -97 160 -175 162 -173 2 2
-28 104 -66 228 -39 123 -78 250 -86 281 -16 55 -19 59 -56 69 -38 10 -40 12
-34 41 13 64 81 122 152 130 25 3 29 -1 32 -23 3 -24 17 -30 239 -102 130 -43
238 -75 242 -72 3 3 0 9 -6 13 -6 4 -60 52 -119 108 -240 222 -245 226 -279
220 l-31 -6 3 97 c2 66 0 91 -6 78 -5 -11 -10 -37 -10 -58 -1 -22 -8 -64 -17
-94 -11 -38 -13 -58 -6 -65 13 -13 177 -118 295 -190 49 -29 83 -54 75 -56 -7
-1 -90 26 -183 61 -174 64 -175 65 -160 113 5 15 0 23 -19 32 -16 7 -29 25
-37 52 -11 36 -10 51 5 103 10 34 20 81 23 104 4 36 2 43 -21 58 -31 20 -100
16 -123 -8 -13 -13 -12 -19 11 -53 20 -29 26 -51 26 -90 0 -53 -5 -62 -106
-203 -27 -38 -54 -119 -54 -163 0 -32 25 -85 110 -233 31 -55 59 -104 61 -110
2 -5 21 -41 43 -78 42 -75 42 -98 -1 -46 -15 18 -75 87 -132 154 -132 154
-134 156 -122 187 5 14 10 59 10 101 0 89 8 111 86 237 47 75 60 104 63 146 4
45 1 53 -19 68 -31 21 -66 20 -77 -1 -13 -25 -25 -101 -23 -149 2 -63 -65
-144 -119 -144 -5 0 -12 10 -15 21 -5 14 -10 17 -14 10 -13 -20 -48 17 -60 63
-12 48 -15 93 -5 84 3 -4 17 0 31 7 35 18 43 12 43 -33 0 -58 -15 -71 -30 -27
-8 25 -15 34 -22 27 -7 -7 -6 -16 5 -26 8 -9 18 -29 22 -46 6 -28 10 -30 42
-26 19 2 47 12 61 23 41 30 39 61 -7 119 l-40 51 29 35 c69 84 107 199 76 230
-25 25 -19 57 16 90 26 24 39 29 72 26 36 -2 41 0 44 20 4 26 -47 82 -75 82
-33 0 -84 -40 -99 -77 l-16 -36 -17 39 c-23 51 -45 68 -86 68 -38 0 -72 -25
-78 -58 -2 -12 -5 -5 -6 16 -1 28 4 40 19 48 24 13 27 70 9 166 -14 77 -26 89
-36 33 -7 -40 -8 -37 -14 46 -5 89 -5 88 -7 -40 -1 -71 -7 -137 -12 -145 -7
-10 -10 146 -9 468 0 266 -1 486 -4 488 -3 3 -8 -64 -11 -148z m-76 -229 c0
-5 -4 -9 -10 -9 -5 0 -10 7 -10 16 0 8 5 12 10 9 6 -3 10 -10 10 -16z m-21
-179 c-4 -85 -9 -218 -10 -295 l-3 -140 -5 105 -6 105 -8 -107 c-6 -72 -5
-114 2 -127 14 -26 15 -154 1 -146 -6 4 -10 -8 -10 -29 0 -40 16 -57 23 -24 3
15 5 10 6 -14 1 -31 -2 -35 -18 -31 -32 8 -44 99 -16 127 18 17 20 87 3 104
-19 19 -4 373 23 542 22 140 27 122 18 -70z m-113 -595 c-6 -18 -37 -20 -53
-4 -20 20 -32 1 -22 -33 14 -52 45 -62 79 -26 l21 23 -3 -55 c-3 -45 -7 -56
-23 -58 -31 -6 -53 -31 -48 -53 3 -10 1 -19 -5 -19 -20 0 -71 73 -77 111 -4
21 -13 43 -21 50 -21 17 -17 43 12 74 22 24 31 27 70 22 24 -2 44 0 44 5 0 5
7 2 16 -7 9 -8 13 -22 10 -30z m398 4 c29 -35 33 -57 11 -65 -8 -4 -15 -15
-15 -26 0 -27 -38 -103 -62 -125 -17 -15 -18 -15 -18 6 0 28 -22 51 -49 51
-17 0 -21 6 -21 34 0 19 -3 42 -7 52 -6 17 -5 17 17 1 35 -24 47 -21 65 14 23
44 14 61 -25 46 -25 -10 -33 -9 -40 2 -16 27 0 37 60 39 54 2 60 -1 84 -29z
m-576 -165 c12 -25 43 -67 67 -93 41 -44 58 -81 36 -81 -13 0 -97 93 -114 126
-19 38 -31 94 -20 94 5 0 19 -21 31 -46z m219 14 c-3 -7 -5 -2 -5 12 0 14 2
19 5 13 2 -7 2 -19 0 -25z m423 -3 c-4 -19 -19 -54 -33 -77 -26 -45 -97 -119
-97 -102 0 5 -5 2 -10 -6 -8 -13 -10 -12 -10 4 0 11 23 43 50 72 28 29 59 74
70 99 23 54 41 60 30 10z m-377 -11 c-9 -23 -23 -16 -23 12 0 22 2 24 14 14 8
-6 12 -18 9 -26z m107 11 c0 -14 -4 -25 -9 -25 -12 0 -23 29 -15 41 10 18 24
9 24 -16z m27 3 c-3 -8 -6 -5 -6 6 -1 11 2 17 5 13 3 -3 4 -12 1 -19z m53 -88
c0 -29 -4 -40 -15 -40 -8 0 -15 -4 -15 -10 0 -5 -5 -10 -11 -10 -28 0 10 96
39 100 1 0 2 -18 2 -40z m-255 21 c3 -5 9 -30 14 -55 l8 -45 -28 22 c-25 20
-34 54 -22 80 6 10 21 9 28 -2z m112 -38 c-3 -10 -5 -2 -5 17 0 19 2 27 5 18
2 -10 2 -26 0 -35z m-180 -95 c-3 -7 -5 -2 -5 12 0 14 2 19 5 13 2 -7 2 -19 0
-25z m30 -10 c-3 -8 -6 -5 -6 6 -1 11 2 17 5 13 3 -3 4 -12 1 -19z m300 0 c-3
-8 -6 -5 -6 6 -1 11 2 17 5 13 3 -3 4 -12 1 -19z m-237 -14 c0 -8 -4 -14 -9
-14 -11 0 -22 26 -14 34 9 9 23 -3 23 -20z m200 12 c0 -16 -18 -31 -27 -22 -8
8 5 36 17 36 5 0 10 -6 10 -14z m-170 -61 c0 -8 -4 -15 -10 -15 -5 0 -7 7 -4
15 4 8 8 15 10 15 2 0 4 -7 4 -15z m130 -5 c0 -5 -4 -10 -10 -10 -5 0 -10 5
-10 10 0 6 5 10 10 10 6 0 10 -4 10 -10z m-253 -22 c-3 -8 -6 -5 -6 6 -1 11 2
17 5 13 3 -3 4 -12 1 -19z m51 -53 c0 -16 -2 -15 -8 5 -4 14 -8 34 -8 45 0 16
2 15 8 -5 4 -14 8 -34 8 -45z m269 10 c-6 -30 -12 -53 -14 -51 -7 6 9 106 17
106 3 0 2 -25 -3 -55z m-327 -45 c-17 -32 -22 -19 -7 19 7 20 13 27 15 18 2
-9 -2 -26 -8 -37z m120 -2 c0 7 5 12 10 12 17 0 11 -26 -9 -44 -21 -19 -25
-16 -35 29 -7 29 -7 29 13 11 12 -11 21 -14 21 -8z m160 -28 c-9 -17 -14 -19
-26 -9 -8 6 -14 20 -14 31 0 17 3 18 15 8 12 -10 16 -9 22 6 7 17 8 17 11 2 2
-9 -2 -26 -8 -38z m-213 -2 c-3 -7 -5 -2 -5 12 0 14 2 19 5 13 2 -7 2 -19 0
-25z m240 -10 c-3 -8 -6 -5 -6 6 -1 11 2 17 5 13 3 -3 4 -12 1 -19z m-120
-240 c-3 -8 -6 -5 -6 6 -1 11 2 17 5 13 3 -3 4 -12 1 -19z m-97 -47 c0 -16 -9
-39 -20 -52 l-20 -24 6 40 c9 60 14 76 25 70 5 -4 9 -19 9 -34z m17 -13 c-3
-8 -6 -5 -6 6 -1 11 2 17 5 13 3 -3 4 -12 1 -19z m160 0 c-3 -8 -6 -5 -6 6 -1
11 2 17 5 13 3 -3 4 -12 1 -19z m-97 8 c0 -3 -5 -17 -11 -33 -8 -20 -8 -88 1
-251 7 -122 11 -225 8 -227 -3 -3 -14 41 -26 97 -12 57 -31 147 -42 202 -12
55 -19 110 -15 125 9 36 85 114 85 87z m-153 -318 c-3 -8 -6 -5 -6 6 -1 11 2
17 5 13 3 -3 4 -12 1 -19z"/>
<path d="M1153 2700 c0 -25 2 -35 4 -22 2 12 2 32 0 45 -2 12 -4 2 -4 -23z"/>
<path d="M1343 2560 c0 -25 2 -35 4 -22 2 12 2 32 0 45 -2 12 -4 2 -4 -23z"/>
<path d="M1392 830 c0 -19 2 -27 5 -17 2 9 2 25 0 35 -3 9 -5 1 -5 -18z"/>
<path d="M1402 710 c0 -19 2 -27 5 -17 2 9 2 25 0 35 -3 9 -5 1 -5 -18z"/>
</g>
</svg>
