<?xml version="1.0" standalone="no"?>
<!DOCTYPE svg PUBLIC "-//W3C//DTD SVG 20010904//EN"
 "http://www.w3.org/TR/2001/REC-SVG-20010904/DTD/svg10.dtd">
<svg version="1.0" xmlns="http://www.w3.org/2000/svg"
 width="244.000000pt" height="305.000000pt" viewBox="0 0 244.000000 305.000000"
 preserveAspectRatio="xMidYMid meet">
<metadata>
Created by potrace 1.16, written by Peter Selinger 2001-2019
</metadata>
<g transform="translate(0.000000,305.000000) scale(0.100000,-0.100000)"
fill="#000000" stroke="none">
<path d="M1491 2898 c-1 -10 -6 -17 -13 -15 -33 6 -78 -455 -78 -804 l0 -155
33 -32 c18 -18 40 -32 49 -32 8 0 35 17 58 39 l42 38 -6 219 c-8 250 -18 382
-46 576 -19 129 -38 208 -39 166z m4 -505 c0 -303 -4 -469 -10 -470 -12 -4
-13 796 -1 880 5 31 10 57 10 57 1 0 2 -210 1 -467z"/>
<path d="M990 2890 c0 -6 -4 -8 -10 -5 -10 6 -14 -26 -11 -90 1 -16 -5 -93
-14 -170 -9 -77 -18 -243 -21 -370 -3 -126 -8 -250 -11 -275 -12 -88 -20 -1
-15 155 2 83 2 148 0 145 -3 -3 -9 -85 -13 -182 l-7 -178 24 -9 c14 -5 32 -21
41 -35 20 -30 38 -27 85 17 l32 31 -2 190 c-1 155 -3 175 -9 106 -4 -58 -6
-28 -4 95 1 107 -1 160 -5 130 -5 -36 -7 -20 -5 55 2 72 1 91 -4 60 l-8 -45
-1 38 c-1 20 -9 81 -18 135 -9 56 -13 119 -10 149 4 30 2 54 -4 58 -5 3 -10 1
-10 -5z"/>
<path d="M1012 2810 c0 -14 2 -19 5 -12 2 6 2 18 0 25 -3 6 -5 1 -5 -13z"/>
<path d="M1021 2714 c0 -11 3 -14 6 -6 3 7 2 16 -1 19 -3 4 -6 -2 -5 -13z"/>
<path d="M1033 2655 c0 -22 2 -30 4 -17 2 12 2 30 0 40 -3 9 -5 -1 -4 -23z"/>
<path d="M927 2613 c-9 -70 -18 -220 -13 -208 7 15 27 247 23 252 -3 2 -7 -18
-10 -44z"/>
<path d="M1227 2584 c-29 -94 -56 -369 -58 -579 0 -71 -2 -125 -5 -120 -2 6
-10 56 -18 113 -19 138 -29 149 -46 46 -6 -33 -10 -82 -10 -110 0 -42 4 -54
26 -73 22 -19 25 -28 22 -74 -3 -50 -4 -52 -33 -52 -27 0 -30 -3 -27 -30 6
-57 46 -74 76 -32 15 22 15 22 14 -13 -1 -26 5 -42 25 -62 15 -15 27 -34 27
-42 0 -29 21 -27 31 3 6 17 20 36 30 42 14 7 19 21 19 52 l0 42 19 -24 c25
-32 53 -24 68 19 13 42 2 60 -26 43 -26 -16 -31 -8 -31 58 0 49 3 59 25 73 22
14 25 24 25 75 0 32 -5 82 -10 111 -17 87 -26 83 -41 -16 -24 -163 -25 -162
-32 51 -6 198 -37 468 -56 503 -7 13 -10 12 -14 -4z"/>
<path d="M902 2360 c0 -14 2 -19 5 -12 2 6 2 18 0 25 -3 6 -5 1 -5 -13z"/>
<path d="M880 1863 c-31 -12 -50 -37 -50 -68 0 -29 3 -31 37 -33 46 -3 47 -4
67 -47 16 -32 16 -36 0 -60 -28 -43 -3 -141 66 -252 11 -18 10 -25 -9 -52 -13
-18 -26 -30 -28 -27 -3 3 -11 31 -17 63 -12 57 -12 58 -50 61 -35 3 -37 5 -31
31 9 42 -15 61 -75 61 -73 0 -83 -19 -69 -138 6 -51 9 -96 5 -99 -13 -13 -21
11 -24 80 -2 40 -9 77 -14 82 -7 7 -9 -18 -4 -77 l6 -88 -25 0 c-15 0 -37 -14
-59 -37 -71 -78 -257 -306 -252 -310 2 -2 18 3 35 11 39 21 44 20 31 -4 -13
-25 -7 -25 39 0 20 10 65 31 101 46 110 45 200 94 200 108 0 9 -7 12 -20 9
-14 -4 -20 0 -20 10 0 20 16 31 25 17 3 -5 16 -10 28 -10 30 -1 64 -32 82 -74
23 -54 19 -73 -15 -85 -16 -5 -30 -12 -30 -14 0 -2 -29 -126 -65 -276 -36
-150 -65 -276 -65 -280 0 -3 14 10 31 29 l31 35 -7 -32 c-5 -28 -4 -32 9 -27
9 3 16 9 16 13 0 4 34 61 76 127 171 266 176 276 168 335 l-7 52 61 -5 c42 -3
68 -10 83 -23 38 -35 40 -49 13 -87 l-25 -35 31 -199 c17 -109 38 -242 46
-294 19 -129 26 -162 30 -157 2 2 27 149 54 327 l51 322 -26 34 c-29 38 -25
57 21 93 20 15 41 21 80 21 l54 0 -5 -52 -6 -53 118 -185 c65 -102 126 -196
137 -210 l18 -25 -6 35 -6 35 41 -45 c22 -25 38 -37 35 -27 -3 10 -15 57 -26
105 -49 201 -102 418 -106 435 -3 9 -11 17 -18 17 -7 0 -21 6 -31 14 -17 12
-18 18 -7 52 6 22 23 51 37 67 27 28 55 36 55 15 1 -12 91 -60 244 -127 72
-33 91 -37 81 -21 -9 15 9 12 65 -10 27 -11 50 -17 50 -14 0 7 -129 163 -174
209 -15 17 -51 56 -79 88 -42 47 -56 57 -74 52 -22 -5 -23 -3 -24 72 -2 78 -2
78 -9 23 -7 -61 -18 -90 -31 -90 -12 0 -11 36 3 119 17 101 6 121 -65 121 -68
0 -91 -16 -85 -58 4 -31 4 -32 -34 -32 -31 0 -38 -4 -42 -22 -2 -13 -8 -43
-13 -66 l-8 -44 -23 31 c-22 31 -23 33 -6 64 73 137 89 204 60 248 -14 23 -14
28 3 59 15 29 26 37 65 44 39 8 46 13 46 33 0 13 -11 35 -25 48 -34 35 -79 33
-114 -4 l-26 -28 -27 28 c-15 18 -36 29 -51 29 -32 0 -67 -42 -67 -81 0 -27 3
-29 39 -29 34 0 41 -4 54 -32 14 -29 14 -36 2 -55 -8 -12 -15 -33 -15 -46 0
-34 -48 -124 -86 -161 -38 -37 -50 -82 -21 -80 22 2 88 60 112 97 9 16 19 26
22 23 8 -7 -38 -77 -67 -103 -14 -12 -40 -30 -58 -39 -28 -13 -33 -20 -29 -40
2 -13 0 -24 -4 -24 -13 0 -10 107 4 160 10 37 19 48 50 63 44 22 46 31 12 53
-46 30 -87 -1 -111 -86 -6 -23 -8 -21 -29 25 -27 62 -47 79 -80 71 -33 -8 -53
-44 -28 -52 35 -11 48 -21 62 -48 16 -35 28 -186 14 -186 -6 0 -8 11 -5 25 3
20 -1 27 -22 35 -45 17 -87 53 -113 98 -32 55 -25 63 12 14 32 -43 86 -87 106
-87 22 0 11 47 -16 70 -35 29 -95 134 -95 167 0 16 -7 40 -16 53 -14 22 -14
26 2 55 15 25 25 30 56 30 36 0 38 2 38 30 0 38 -39 80 -74 80 -15 0 -33 -11
-48 -30 l-24 -31 -13 25 c-17 31 -54 43 -91 29z m270 -604 c0 -28 5 -38 20
-42 32 -8 26 -50 -9 -64 -25 -9 -30 -8 -34 8 -6 24 -39 25 -78 2 -27 -16 -29
-16 -49 2 -29 26 -25 32 18 31 l37 -1 -3 54 c-4 79 -2 82 52 63 43 -16 46 -19
46 -53z m268 -3 l-3 -61 38 1 c40 1 46 -6 21 -30 -19 -19 -16 -20 -58 0 -46
22 -86 13 -79 -18 3 -14 1 -18 -4 -12 -4 6 -18 14 -30 18 -31 10 -33 66 -3 66
16 0 20 7 20 38 0 35 3 39 43 53 23 8 46 13 50 11 5 -2 7 -32 5 -66z m-768 8
c0 -13 -118 -163 -163 -206 -46 -46 -86 -68 -56 -30 76 90 125 148 129 152 3
3 20 24 39 48 29 37 51 53 51 36z m1253 -161 c21 -25 36 -48 33 -50 -14 -15
-142 84 -151 117 -3 13 -15 30 -26 38 -10 7 -19 22 -19 33 0 17 12 10 63 -36
34 -31 79 -77 100 -102z m-702 -75 c4 -25 12 -56 19 -68 17 -31 31 -13 45 57
7 33 17 59 26 61 11 4 12 2 2 -9 -7 -7 -13 -31 -13 -53 0 -45 -34 -111 -51
-100 -17 10 -39 70 -39 107 0 18 -6 39 -12 46 -11 11 -10 13 2 9 9 -3 18 -23
21 -50z m816 11 c59 -46 63 -59 10 -34 -38 18 -77 51 -77 65 0 17 11 11 67
-31z m-1458 -13 c-15 -13 -49 -25 -49 -17 0 5 8 12 18 14 24 6 36 8 31 3z
m1019 -131 c36 -76 102 -258 102 -282 0 -26 -17 -4 -53 69 -58 119 -98 229
-103 288 -4 52 -4 53 8 25 7 -16 28 -61 46 -100z m-738 36 c0 -40 -87 -379
-102 -396 -12 -14 -10 25 6 81 8 27 28 111 46 187 18 75 36 137 41 137 5 0 9
-4 9 -9z m27 -288 c-24 -46 -81 -132 -84 -129 -9 9 68 136 83 136 3 0 3 -3 1
-7z m853 -82 c0 -9 5 -22 12 -29 6 -6 9 -15 5 -18 -4 -4 -14 9 -22 29 -18 43
-19 50 -5 42 6 -3 10 -14 10 -24z"/>
</g>
</svg>
