<?xml version="1.0" standalone="no"?>
<!DOCTYPE svg PUBLIC "-//W3C//DTD SVG 20010904//EN"
 "http://www.w3.org/TR/2001/REC-SVG-20010904/DTD/svg10.dtd">
<svg version="1.0" xmlns="http://www.w3.org/2000/svg"
 width="244.000000pt" height="305.000000pt" viewBox="0 0 244.000000 305.000000"
 preserveAspectRatio="xMidYMid meet">
<metadata>
Created by potrace 1.16, written by Peter Selinger 2001-2019
</metadata>
<g transform="translate(0.000000,305.000000) scale(0.100000,-0.100000)"
fill="#000000" stroke="none">
<path d="M887 2904 c-9 -10 -9 -52 1 -57 9 -6 10 -933 0 -942 -4 -4 -25 8 -47
26 l-41 32 0 101 c0 176 21 403 60 660 17 115 4 85 -19 -41 -30 -171 -39 -250
-46 -413 -3 -80 -8 -188 -10 -241 l-5 -95 59 -41 59 -41 22 23 c12 13 36 29
53 36 l30 13 -7 215 c-7 241 -17 354 -47 521 -33 191 -50 256 -62 244z"/>
<path d="M1578 2404 c2 -321 0 -504 -7 -504 -5 0 -28 12 -51 27 l-41 27 6 181
c6 210 19 352 46 524 11 68 18 126 15 128 -5 6 -11 -25 -36 -177 -35 -219 -55
-680 -30 -688 6 -2 31 -19 55 -37 43 -33 43 -33 61 -13 10 11 34 26 53 34 l34
14 -6 218 c-4 119 -14 278 -22 352 -16 134 -56 355 -72 397 -4 12 -7 -205 -5
-483z"/>
<path d="M1217 2548 c-43 -147 -67 -360 -67 -580 0 -108 -13 -144 -25 -70 -33
196 -48 243 -59 191 -37 -173 -36 -197 9 -227 31 -20 35 -27 35 -66 0 -75 -16
-91 -60 -64 -10 7 -22 9 -26 6 -10 -11 15 -76 32 -82 26 -10 33 -7 56 19 30
35 39 31 32 -14 -6 -36 -4 -40 22 -52 16 -8 38 -31 49 -51 l21 -38 22 45 c15
31 28 45 42 45 21 0 23 5 22 58 -2 38 10 41 32 7 20 -30 39 -32 66 -5 26 26
28 76 3 65 -37 -16 -56 -10 -66 18 -16 48 -1 93 38 116 40 23 41 31 22 150
-20 126 -37 104 -67 -91 -7 -43 -16 -78 -20 -78 -4 0 -10 87 -13 193 -4 105
-13 238 -21 294 -15 99 -49 249 -59 260 -3 2 -12 -19 -20 -49z m22 -495 c1
-249 -1 -453 -3 -453 -3 0 -21 9 -40 21 -36 21 -36 21 -36 92 1 183 21 542 35
632 8 55 18 119 22 143 15 109 22 -15 22 -435z"/>
<path d="M1223 2040 c0 -36 2 -50 4 -32 2 17 2 47 0 65 -2 17 -4 3 -4 -33z"/>
<path d="M1223 1810 c0 -30 2 -43 4 -27 2 15 2 39 0 55 -2 15 -4 2 -4 -28z"/>
<path d="M755 1863 c-33 -8 -55 -34 -55 -65 0 -25 3 -28 36 -28 52 0 84 -20
114 -72 8 -14 6 -22 -10 -35 -12 -11 -20 -29 -20 -48 1 -56 22 -97 108 -215
11 -15 8 -24 -28 -64 -46 -54 -50 -83 -17 -114 52 -49 119 -34 97 22 -13 35
-13 69 1 83 8 8 29 5 75 -10 49 -16 69 -19 82 -11 29 19 19 34 -39 58 -90 36
-150 90 -193 173 -16 33 -22 83 -8 83 4 -1 18 -24 31 -53 33 -71 133 -162 199
-182 33 -10 29 29 -5 52 -39 26 -111 100 -134 136 -10 18 -19 43 -19 57 0 14
-9 33 -20 43 -27 23 -25 33 10 69 28 27 36 30 75 25 43 -4 45 -3 45 22 -1 34
-20 59 -58 72 -43 15 -82 -6 -106 -55 -18 -36 -21 -38 -30 -21 -35 60 -83 89
-131 78z"/>
<path d="M1435 1858 c-30 -16 -45 -39 -45 -70 0 -27 1 -27 44 -22 39 6 48 3
70 -19 29 -29 34 -72 11 -81 -8 -3 -15 -18 -15 -33 0 -15 -9 -43 -20 -61 -26
-42 -104 -119 -130 -127 -20 -6 -35 -38 -25 -54 20 -34 176 95 216 178 13 28
27 51 31 51 16 0 7 -47 -18 -95 -33 -65 -100 -126 -172 -155 -73 -30 -80 -36
-59 -57 16 -16 21 -16 87 4 89 26 100 18 81 -59 -11 -42 -11 -52 0 -59 20 -14
70 -2 96 23 36 34 34 41 -42 145 -15 20 -14 24 21 70 71 92 98 198 59 227 -42
31 35 110 102 104 30 -2 38 1 41 16 8 41 -38 86 -88 86 -23 0 -90 -56 -90 -75
0 -29 -20 -24 -36 10 -16 34 -58 65 -86 65 -7 0 -22 -6 -33 -12z"/>
<path d="M1083 1575 c-18 -8 -33 -18 -33 -23 0 -11 24 -22 49 -22 32 0 59 -42
70 -110 17 -105 15 -117 -20 -129 -25 -9 -30 -15 -27 -38 2 -22 9 -29 29 -31
51 -6 44 -72 -7 -72 -25 0 -47 -29 -36 -47 4 -6 23 -15 42 -20 31 -8 36 -14
43 -54 5 -24 13 -48 18 -53 5 -6 9 -26 9 -45 l0 -36 -25 40 c-13 22 -25 53
-25 68 0 42 -17 67 -46 67 -29 0 -48 37 -38 76 6 23 4 24 -36 24 -23 0 -58 -7
-76 -16 -45 -21 -72 -10 -114 47 -23 32 -30 52 -29 83 2 37 -3 74 -17 144 -6
31 -65 31 -94 0 -38 -41 -24 -91 66 -235 93 -148 93 -163 -9 -333 -41 -69
-106 -180 -146 -247 -39 -68 -73 -123 -76 -123 -4 0 29 108 92 300 l48 144 48
15 c41 13 48 19 57 50 24 88 10 135 -70 230 -73 87 -88 162 -45 221 14 19 25
42 25 52 0 36 -96 51 -138 22 -28 -19 -29 -61 -2 -132 23 -60 19 -118 -11
-156 -16 -20 -365 -226 -384 -226 -13 0 24 37 153 152 l123 110 45 -7 46 -7
-7 94 c-4 51 -11 102 -15 112 -11 32 -20 -63 -10 -114 5 -25 9 -48 10 -52 0
-4 -18 -6 -39 -5 -37 2 -48 -6 -229 -168 -104 -93 -186 -171 -182 -173 4 -2
82 20 171 49 90 28 199 63 242 76 69 22 77 27 77 49 0 35 21 39 77 14 59 -26
91 -55 110 -98 17 -40 7 -57 -36 -65 -32 -7 -37 -20 -150 -382 -27 -88 -53
-168 -57 -179 -4 -12 -3 -17 4 -15 5 2 99 101 207 219 182 199 196 217 191
245 -14 76 -21 70 85 70 89 0 98 -2 132 -28 20 -15 37 -33 37 -40 0 -6 -14
-26 -32 -44 l-32 -33 33 -157 c52 -252 102 -487 105 -490 2 -3 112 520 132
628 4 21 -3 33 -32 58 l-36 32 28 30 c37 39 83 51 174 47 82 -3 78 1 64 -73
-5 -28 5 -42 121 -170 224 -245 275 -299 275 -286 0 27 -172 556 -183 563 -7
4 -19 8 -28 8 -37 0 -43 27 -18 77 20 39 34 53 79 76 67 33 94 32 98 -5 2 -20
11 -29 35 -37 18 -5 124 -39 235 -76 112 -36 209 -64 214 -63 6 2 -20 31 -58
63 -37 33 -75 67 -84 75 -67 63 -206 187 -222 198 -11 8 -30 11 -48 7 l-29 -6
6 90 c7 105 -11 129 -20 29 -3 -35 -13 -82 -21 -105 -18 -51 -16 -53 76 -109
166 -99 319 -196 316 -200 -2 -2 -60 16 -129 40 -272 96 -257 88 -240 131 6
15 0 27 -26 51 -28 27 -33 38 -33 77 0 25 9 74 20 109 25 79 25 93 0 118 -28
28 -102 28 -130 0 l-21 -21 21 -29 c55 -78 47 -141 -30 -237 -63 -78 -88 -130
-96 -197 -7 -61 -5 -67 173 -379 47 -82 82 -151 80 -154 -3 -2 -72 73 -154
167 -106 123 -147 178 -146 193 2 12 5 61 7 109 5 98 18 132 107 276 60 96 69
152 29 184 -26 21 -63 24 -77 6 -13 -16 -25 -86 -27 -154 -1 -39 -8 -59 -29
-88 -39 -50 -72 -62 -115 -42 -18 9 -51 16 -72 16 -39 0 -40 0 -40 -37 0 -47
-8 -60 -40 -64 -24 -4 -32 -17 -45 -82 -7 -34 -65 -99 -65 -73 0 9 9 29 21 45
11 15 23 47 26 70 6 45 14 53 52 57 56 6 52 51 -6 66 -50 13 -52 63 -3 69 19
3 26 11 28 32 3 23 -2 29 -28 39 l-32 11 6 61 c12 111 39 166 80 166 12 0 28
5 36 10 24 15 -10 42 -54 43 -30 1 -42 -6 -71 -37 -19 -21 -35 -47 -35 -57 0
-32 -25 -21 -43 20 -30 67 -71 89 -124 66z m156 -782 c-1 -70 -4 -91 -10 -73
-7 22 -8 21 -2 -5 10 -51 15 -266 7 -345 l-7 -75 -13 55 c-52 236 -84 394 -84
418 0 19 14 43 43 74 62 69 67 65 66 -49z"/>
</g>
</svg>
