<?xml version="1.0" standalone="no"?>
<!DOCTYPE svg PUBLIC "-//W3C//DTD SVG 20010904//EN"
 "http://www.w3.org/TR/2001/REC-SVG-20010904/DTD/svg10.dtd">
<svg version="1.0" xmlns="http://www.w3.org/2000/svg"
 width="244.000000pt" height="305.000000pt" viewBox="0 0 244.000000 305.000000"
 preserveAspectRatio="xMidYMid meet">
<metadata>
Created by potrace 1.16, written by Peter Selinger 2001-2019
</metadata>
<g transform="translate(0.000000,305.000000) scale(0.100000,-0.100000)"
fill="#000000" stroke="none">
<path d="M960 2908 c0 -2 -7 -39 -15 -83 -37 -187 -55 -385 -61 -640 l-6 -260
31 -17 c17 -9 31 -24 31 -33 0 -14 -7 -16 -40 -10 -57 10 -90 -13 -90 -60 0
-33 2 -35 32 -35 42 0 88 -43 88 -82 0 -15 -5 -28 -11 -28 -19 0 -5 -120 20
-168 l21 -42 -25 -1 c-14 -1 -31 -2 -37 -3 -9 -1 -12 11 -10 36 4 49 -17 60
-111 56 l-72 -3 -9 -38 c-7 -28 -5 -55 8 -106 17 -63 15 -111 -3 -111 -12 0
-31 87 -31 140 0 31 -4 50 -11 50 -9 0 -10 -26 -6 -91 l6 -91 -25 6 c-26 7
-21 11 -199 -184 -33 -36 -80 -87 -104 -114 -24 -26 -41 -49 -38 -52 3 -3 54
15 113 39 60 25 111 43 113 41 2 -1 -7 -17 -19 -33 -12 -17 -17 -31 -12 -31 6
0 79 34 163 76 l153 76 18 -24 c10 -13 21 -38 24 -57 7 -34 5 -37 -40 -66 -8
-5 -24 -44 -35 -85 -67 -255 -122 -482 -118 -486 3 -3 31 31 63 75 31 45 60
79 62 76 3 -2 -1 -32 -8 -65 -7 -33 -11 -62 -9 -65 3 -2 27 33 53 78 27 45 59
98 72 117 12 19 47 78 79 130 54 91 56 97 51 147 l-6 53 42 0 c47 0 100 -27
117 -58 8 -15 5 -26 -15 -53 -22 -30 -25 -41 -19 -84 12 -96 96 -599 100 -604
3 -2 5 -1 5 2 0 4 20 129 44 279 65 397 63 371 32 408 -28 34 -26 49 14 85 15
14 36 19 73 20 l52 0 -3 -52 c-2 -51 1 -57 129 -270 l131 -218 -6 55 c-3 30
-9 66 -13 79 -4 18 -2 22 8 19 8 -3 14 -9 14 -14 0 -9 88 -125 91 -121 3 4
-24 122 -70 307 -69 273 -64 260 -85 260 -36 0 -45 26 -27 74 23 60 41 74 65
52 22 -20 313 -167 319 -161 2 2 -6 20 -18 39 -16 27 -18 36 -8 36 8 0 18 -4
23 -8 13 -12 135 -56 139 -51 2 2 -62 78 -142 169 -130 147 -148 165 -175 163
l-29 -1 6 84 c5 56 3 84 -4 84 -6 0 -10 -28 -11 -67 -1 -38 -4 -79 -8 -91 l-6
-24 -19 21 c-18 20 -19 24 -3 81 36 128 20 160 -79 160 -77 0 -97 -13 -88 -59
6 -29 5 -30 -32 -33 -35 -3 -39 -6 -42 -33 -1 -16 -5 -41 -8 -55 l-6 -25 -14
28 c-14 26 -13 31 16 75 53 80 77 196 45 222 -23 19 -18 39 20 77 26 26 41 34
62 31 22 -2 29 1 31 18 5 33 -34 74 -71 74 -59 0 -68 23 -18 49 l23 13 -6 206
c-7 219 -23 440 -36 507 -11 58 -12 5 0 -75 12 -88 33 -567 26 -596 -3 -12
-21 -33 -39 -45 -17 -12 -26 -16 -19 -9 15 17 16 258 2 490 -19 317 -22 446
-11 430 9 -13 11 -12 10 5 -1 11 -4 31 -8 45 -7 23 -8 21 -15 -18 -9 -49 -26
-47 -26 4 0 19 -4 34 -8 34 -4 0 -6 -53 -4 -117 2 -65 -1 -154 -7 -198 -6 -44
-16 -207 -23 -362 -7 -155 -16 -280 -20 -277 -4 3 -9 62 -10 132 l-2 127 -5
-105 c-6 -99 -6 -102 -14 -52 -6 42 -11 52 -27 52 -15 0 -20 -10 -25 -47 -14
-112 -20 -120 -22 -28 -5 205 -29 427 -59 555 -9 38 -19 10 -37 -100 -23 -135
-37 -297 -37 -423 0 -121 -14 -136 -25 -27 -6 59 -10 70 -25 70 -15 0 -20 -10
-25 -47 -11 -80 -13 -73 -14 42 -1 61 -6 188 -11 283 -12 222 -56 575 -61 491
0 -8 0 -219 0 -469 1 -267 -3 -461 -8 -469 -8 -13 -12 -13 -27 0 -15 13 -16
38 -10 319 3 168 8 330 10 360 4 43 3 48 -3 20 -6 -24 -9 5 -10 98 0 73 3 131
7 128 5 -3 6 8 4 25 -2 16 -6 29 -8 29 -2 0 -4 -1 -4 -2z m477 -1024 c7 -20 3
-23 -28 -17 -21 4 -25 9 -21 29 4 20 7 22 24 13 10 -6 22 -17 25 -25z m-351 9
c20 -27 17 -29 -22 -25 -34 4 -34 5 -18 23 21 23 23 23 40 2z m-89 -49 c-9 -9
-28 6 -21 18 4 6 10 6 17 -1 6 -6 8 -13 4 -17z m493 11 c0 -8 -4 -15 -9 -15
-13 0 -22 16 -14 24 11 11 23 6 23 -9z m-351 -38 c0 -21 -1 -21 -9 -2 -12 28
-12 37 0 30 6 -3 10 -16 9 -28z m-2 -69 c-2 -8 -17 -12 -35 -10 -28 3 -32 0
-32 -20 0 -51 49 -85 78 -56 9 9 12 6 12 -15 0 -16 8 -30 21 -37 11 -7 27 -27
35 -46 8 -19 16 -34 19 -34 2 0 12 16 21 35 9 20 25 40 35 46 11 6 19 21 19
36 0 21 3 24 12 15 33 -33 78 -2 78 52 0 22 -4 25 -32 23 -17 -1 -33 3 -35 11
-3 8 8 12 36 12 34 0 43 -4 55 -28 13 -25 13 -32 0 -57 -8 -15 -14 -39 -14
-54 0 -15 -6 -35 -13 -45 -13 -18 -15 -18 -40 -1 -17 11 -36 15 -51 11 -24 -6
-32 -19 -63 -96 -10 -24 -11 -24 -22 15 -16 60 -46 88 -84 81 -17 -4 -35 -12
-39 -19 -13 -19 -38 21 -38 59 0 18 -4 36 -10 39 -14 9 -13 51 2 75 15 23 93
30 85 8z m26 -245 c3 -5 8 -24 11 -43 l7 -35 -41 44 c-49 54 -54 79 -11 56 17
-8 32 -18 34 -22z m207 19 c0 -4 -19 -30 -42 -57 l-41 -50 6 40 c4 23 15 47
28 58 22 18 49 23 49 9z m-370 -137 c0 -13 -20 -35 -32 -35 -4 0 -8 21 -8 47
l0 46 20 -23 c11 -13 20 -28 20 -35z m172 1 c13 4 18 0 18 -15 0 -12 -2 -21
-5 -21 -13 0 -72 34 -92 53 -38 34 -26 39 19 7 26 -19 48 -28 60 -24z m-367
-41 c5 -55 4 -66 -5 -52 -16 25 -26 146 -12 132 6 -5 14 -41 17 -80z m574 59
c-11 -14 -81 -54 -94 -54 -3 0 -4 15 -4 33 1 17 3 24 6 15 6 -23 21 -23 58 2
36 24 52 26 34 4z m307 -59 c-4 -25 -11 -45 -17 -45 -12 0 -11 16 2 63 14 51
23 40 15 -18z m-576 -36 c36 -11 38 -13 33 -45 -5 -29 -2 -35 21 -44 31 -12
35 -45 6 -60 -16 -9 -24 -7 -36 5 -18 18 -27 18 -78 4 -31 -8 -41 -8 -47 3 -6
9 0 14 24 18 l32 5 -3 63 c-2 34 0 62 4 62 3 0 24 -5 44 -11z m80 1 c0 -5 -5
-10 -11 -10 -5 0 -7 5 -4 10 3 6 8 10 11 10 2 0 4 -4 4 -10z m218 -52 l-3 -63
39 -5 c35 -4 37 -7 23 -19 -13 -10 -24 -11 -48 -2 -44 15 -65 14 -83 -5 -23
-22 -56 -9 -56 22 0 14 7 27 18 31 25 10 33 25 27 54 -5 22 -1 27 27 36 59 19
60 19 56 -49z m560 -118 c61 -69 108 -127 106 -129 -8 -9 -151 96 -210 154
-68 68 -80 110 -29 103 16 -2 61 -45 133 -128z m-1268 81 c0 -17 -18 -21 -24
-6 -3 9 0 15 9 15 8 0 15 -4 15 -9z m-88 -73 c-17 -24 -43 -55 -59 -70 -29
-28 -173 -93 -173 -79 0 5 6 11 13 14 6 3 64 46 127 95 63 50 116 89 118 87 2
-2 -10 -23 -26 -47z m61 2 c4 -14 -4 -25 -28 -40 -50 -31 -57 -24 -23 25 33
46 42 49 51 15z m1093 -17 c5 -23 18 -34 67 -56 60 -27 124 -73 115 -82 -5 -5
-227 110 -242 126 -6 5 -3 14 10 24 29 22 44 18 50 -12z m-473 -65 c-6 -7 -13
-33 -15 -58 -3 -25 -14 -60 -25 -77 l-20 -33 -21 44 c-13 24 -22 60 -21 82 l1
39 8 -42 c5 -23 14 -52 21 -64 11 -22 12 -22 25 -4 7 10 16 38 20 64 8 53 11
61 26 61 7 0 7 -4 1 -12z m-723 -38 c-14 -10 -27 -16 -30 -13 -6 6 30 33 44
33 6 0 0 -9 -14 -20z m1001 -43 c-14 -14 -24 12 -16 41 l8 27 8 -30 c5 -16 5
-33 0 -38z m-632 -73 c1 -31 -7 -64 -22 -98 -30 -65 -77 -139 -84 -133 -6 7
25 151 45 202 15 40 39 75 52 75 4 0 8 -21 9 -46z m722 12 c14 -31 109 -410
104 -414 -2 -3 -13 15 -24 39 -11 24 -36 78 -55 119 -34 72 -76 220 -76 267 0
17 4 20 21 16 11 -3 25 -15 30 -27z m-151 0 c0 -7 -5 -28 -11 -45 -11 -31 -9
-37 48 -119 33 -48 67 -103 76 -122 23 -51 57 -143 54 -147 -4 -3 -110 174
-166 278 -37 68 -40 81 -35 123 4 29 12 46 20 46 8 0 14 -6 14 -14z m-697
-236 c-8 -36 -23 -79 -34 -96 -22 -36 -79 -109 -79 -102 0 3 17 43 39 89 21
46 48 106 60 133 12 27 23 47 25 45 3 -2 -2 -33 -11 -69z m3 -132 c-23 -48
-25 -50 -20 -18 8 43 36 99 41 83 3 -7 -7 -36 -21 -65z"/>
<path d="M981 2762 c-1 -46 3 -71 9 -67 12 7 12 92 0 120 -6 14 -9 -3 -9 -53z"/>
<path d="M1521 2774 c0 -11 3 -14 6 -6 3 7 2 16 -1 19 -3 4 -6 -2 -5 -13z"/>
<path d="M1432 2725 c0 -16 2 -22 5 -12 2 9 2 23 0 30 -3 6 -5 -1 -5 -18z"/>
<path d="M1532 2705 c0 -16 2 -22 5 -12 2 9 2 23 0 30 -3 6 -5 -1 -5 -18z"/>
<path d="M1422 2645 c0 -16 2 -22 5 -12 2 9 2 23 0 30 -3 6 -5 -1 -5 -18z"/>
<path d="M1413 2545 c0 -27 2 -38 4 -22 2 15 2 37 0 50 -2 12 -4 0 -4 -28z"/>
<path d="M1403 2415 c0 -44 2 -61 4 -37 2 23 2 59 0 80 -2 20 -4 1 -4 -43z"/>
</g>
</svg>
