<?xml version="1.0" standalone="no"?>
<!DOCTYPE svg PUBLIC "-//W3C//DTD SVG 20010904//EN"
 "http://www.w3.org/TR/2001/REC-SVG-20010904/DTD/svg10.dtd">
<svg version="1.0" xmlns="http://www.w3.org/2000/svg"
 width="244.000000pt" height="305.000000pt" viewBox="0 0 244.000000 305.000000"
 preserveAspectRatio="xMidYMid meet">
<metadata>
Created by potrace 1.16, written by Peter Selinger 2001-2019
</metadata>
<g transform="translate(0.000000,305.000000) scale(0.100000,-0.100000)"
fill="#000000" stroke="none">
<path d="M887 2883 c-3 -15 -1 -32 4 -37 10 -11 13 -946 2 -946 -8 0 -76 51
-84 63 -20 29 12 504 50 735 18 115 14 142 -7 42 -44 -210 -83 -820 -53 -820
5 0 30 -15 54 -34 l45 -34 22 23 c12 13 36 29 53 36 l30 13 -6 220 c-4 122
-11 266 -17 321 -12 115 -69 426 -80 438 -4 5 -10 -4 -13 -20z"/>
<path d="M1565 2858 c8 -59 12 -945 3 -953 -3 -4 -25 6 -48 21 l-43 28 7 201
c7 209 25 401 51 545 16 91 19 138 4 80 -42 -170 -72 -507 -70 -782 l1 -77 40
-22 c22 -13 40 -26 40 -31 0 -15 37 -8 54 11 10 11 31 25 48 32 l30 12 -7 176
c-11 326 -29 489 -77 704 -21 97 -45 135 -33 55z"/>
<path d="M1212 2697 c-1 -121 -7 -191 -21 -255 -22 -100 -41 -319 -41 -475 0
-107 -13 -143 -25 -69 -23 132 -37 198 -44 205 -10 10 -29 -66 -38 -153 -5
-55 -5 -56 31 -83 34 -26 36 -32 36 -83 0 -62 -15 -76 -56 -54 -13 8 -27 11
-30 7 -10 -10 16 -75 32 -81 26 -10 33 -7 56 19 30 35 39 31 32 -14 -6 -36 -4
-40 22 -52 31 -15 55 -54 47 -75 -3 -9 -12 -5 -29 15 -29 34 -62 42 -103 25
-40 -17 -39 -31 2 -39 52 -11 74 -40 87 -114 16 -91 11 -124 -20 -131 -20 -5
-25 -12 -25 -35 0 -25 5 -31 26 -33 50 -6 39 -72 -11 -72 -11 0 -24 -9 -30
-19 -13 -25 11 -51 47 -51 19 0 24 -4 19 -16 -3 -9 -7 -25 -7 -37 -1 -16 -3
-14 -8 8 -5 23 -12 31 -34 33 -32 4 -51 39 -41 78 6 22 4 24 -35 24 -22 0 -56
-8 -75 -17 -44 -21 -72 -10 -112 43 -23 29 -29 48 -31 98 -1 33 -6 81 -10 106
-8 43 -10 45 -44 48 -48 4 -73 -24 -71 -80 2 -33 18 -68 73 -160 52 -86 72
-128 75 -160 5 -50 1 -58 -116 -258 -40 -69 -96 -165 -124 -213 -28 -48 -52
-84 -54 -79 -3 9 88 301 124 398 13 37 20 43 59 53 51 13 52 14 65 78 12 65
-2 109 -57 175 -53 63 -79 111 -88 161 -6 30 -3 45 17 75 13 20 27 45 31 54
16 44 -104 67 -143 28 -25 -25 -25 -42 0 -115 38 -109 21 -162 -68 -215 -134
-80 -299 -173 -322 -181 -21 -8 -18 -3 15 28 262 243 252 236 302 229 l43 -6
0 38 c0 75 -13 172 -23 172 -6 0 -8 -33 -4 -91 l6 -90 -30 6 c-21 5 -36 1 -56
-15 -32 -25 -43 -35 -338 -302 -16 -15 -27 -29 -25 -31 3 -2 114 32 248 75
227 74 242 80 242 103 0 33 14 39 58 24 54 -17 108 -59 126 -97 23 -48 20 -62
-15 -69 -17 -3 -36 -15 -44 -27 -20 -31 -179 -545 -172 -553 6 -5 73 66 238
250 177 198 165 180 152 230 -7 23 -8 46 -3 51 4 4 48 6 97 5 80 -4 94 -7 126
-32 20 -15 37 -33 37 -40 0 -6 -14 -26 -32 -44 l-31 -33 16 -77 c9 -43 39
-188 67 -322 28 -135 52 -246 54 -248 2 -2 10 32 19 74 9 43 39 190 67 327
l51 249 -32 33 c-29 30 -31 36 -20 57 21 40 72 57 168 57 l86 0 -6 -33 c-3
-17 -8 -39 -12 -48 -4 -12 50 -79 196 -238 111 -122 203 -221 205 -219 1 2
-29 104 -68 228 -38 124 -77 249 -86 279 -14 48 -20 56 -54 69 -45 18 -49 42
-15 93 24 38 127 95 152 85 8 -3 15 -16 15 -29 0 -22 17 -29 241 -101 132 -43
243 -76 245 -73 2 2 -80 80 -182 173 -174 158 -189 169 -223 167 l-37 -1 3 96
c2 65 0 90 -6 77 -5 -11 -10 -38 -10 -61 -1 -22 -8 -64 -16 -92 -9 -29 -14
-56 -11 -61 5 -8 87 -60 276 -176 100 -61 143 -94 105 -81 -11 4 -83 30 -160
57 -224 80 -214 74 -193 109 11 18 10 23 -14 43 -53 45 -60 88 -28 183 36 110
20 154 -56 154 -38 0 -84 -22 -84 -40 0 -5 11 -26 25 -46 45 -66 33 -133 -42
-224 -62 -76 -83 -120 -90 -195 l-6 -64 82 -146 c44 -80 81 -148 81 -151 0 -3
8 -18 18 -32 36 -52 85 -145 74 -141 -5 2 -76 81 -157 174 -144 167 -146 171
-140 209 3 21 7 71 9 110 3 78 14 104 98 243 61 99 73 158 39 192 -15 15 -32
21 -53 19 -30 -3 -32 -6 -45 -68 -7 -36 -11 -78 -8 -93 6 -36 -14 -75 -60
-116 -40 -35 -49 -36 -85 -16 -14 8 -44 14 -67 15 l-43 0 0 -38 c0 -43 -14
-62 -45 -62 -22 0 -48 -50 -39 -75 3 -8 -1 -24 -10 -37 -16 -22 -16 -22 -16
15 0 20 7 54 16 76 12 30 20 39 40 39 57 -1 57 42 -1 66 -27 11 -35 21 -35 40
0 19 6 25 28 28 21 2 28 9 30 31 3 23 -2 29 -28 39 -32 11 -32 11 -26 67 11
110 39 171 77 171 25 0 49 11 49 22 0 5 -16 16 -35 24 -31 13 -39 13 -65 -1
-16 -8 -35 -24 -43 -35 -7 -11 -16 -17 -19 -14 -3 3 -9 -12 -13 -32 -5 -28 -9
-34 -16 -23 -12 19 -11 62 1 54 5 -3 17 12 26 34 10 25 27 46 43 54 22 10 25
18 23 50 -4 43 9 48 32 12 20 -30 39 -32 66 -5 26 26 28 76 3 65 -37 -16 -56
-10 -66 18 -16 48 -1 93 38 116 40 23 40 27 21 143 -21 129 -30 122 -59 -41
-11 -67 -24 -121 -27 -121 -4 0 -10 87 -14 193 -7 193 -23 329 -52 461 -20 86
-32 113 -36 76 -1 -14 -5 45 -8 130 l-6 155 -2 -168z m15 -489 c-1 -62 -3 -14
-3 107 0 121 2 172 3 113 2 -59 2 -158 0 -220z m-18 -188 c-1 -220 -5 -400 -9
-400 -3 0 -15 6 -25 14 -17 12 -18 27 -12 257 5 205 32 529 44 529 2 0 3 -180
2 -400z m21 -177 c0 -10 -5 -25 -10 -33 -7 -11 -10 -7 -10 18 0 17 5 32 10 32
6 0 10 -8 10 -17z m-3 -120 c-3 -10 -5 -4 -5 12 0 17 2 24 5 18 2 -7 2 -21 0
-30z m0 -110 c-3 -10 -5 -2 -5 17 0 19 2 27 5 18 2 -10 2 -26 0 -35z m-27
-618 c10 -48 14 -55 36 -55 13 0 24 -5 24 -11 0 -5 -4 -8 -9 -5 -18 12 -21
-32 -22 -327 -1 -285 -2 -299 -16 -247 -8 30 -15 87 -15 125 -1 45 -3 59 -7
40 -5 -23 -12 -2 -34 100 -15 72 -27 142 -27 156 0 18 15 41 46 71 46 45 46
46 31 74 -30 56 -34 69 -30 102 3 17 7 32 8 32 2 0 9 -25 15 -55z"/>
<path d="M1202 755 c-1 -38 -4 -88 -7 -110 l-5 -40 11 40 c5 22 8 72 6 110
l-3 70 -2 -70z"/>
<path d="M744 1856 c-32 -14 -44 -33 -44 -67 0 -16 7 -19 44 -19 33 0 52 -7
75 -25 42 -36 48 -61 21 -90 -20 -22 -21 -27 -10 -80 8 -41 25 -74 61 -121 53
-71 53 -78 5 -123 -37 -35 -43 -77 -16 -106 50 -53 128 -37 102 20 -15 32 -15
68 -1 82 8 8 29 5 75 -10 49 -16 69 -19 82 -11 29 19 19 34 -39 58 -30 12 -73
36 -94 52 -49 37 -115 138 -115 176 0 38 13 35 29 -7 23 -65 143 -180 209
-200 33 -10 29 29 -5 52 -39 26 -111 100 -134 136 -10 18 -19 43 -19 57 0 14
-9 33 -20 43 -27 23 -25 33 10 69 28 27 36 30 75 25 44 -4 45 -4 45 23 0 45
-30 73 -78 73 -48 0 -70 -15 -89 -60 -7 -18 -15 -33 -18 -33 -2 0 -14 18 -25
39 -18 36 -29 44 -80 56 -8 2 -29 -2 -46 -9z"/>
<path d="M1435 1859 c-31 -17 -45 -40 -45 -71 0 -27 1 -27 43 -22 38 6 47 3
70 -20 30 -30 34 -57 12 -76 -8 -7 -15 -24 -15 -39 0 -14 -9 -41 -20 -59 -26
-42 -104 -119 -130 -127 -20 -6 -35 -38 -25 -54 20 -34 175 94 214 178 25 52
41 65 41 34 0 -36 -51 -125 -94 -166 -24 -23 -70 -53 -102 -66 -71 -29 -76
-33 -68 -54 8 -22 25 -21 101 2 80 24 91 15 73 -60 -15 -59 -5 -73 44 -64 74
13 88 76 31 142 -19 23 -35 45 -35 51 0 5 13 24 29 43 66 75 105 210 67 231
-25 14 -19 37 19 75 30 30 40 34 77 31 37 -2 43 0 46 18 4 28 -33 71 -67 79
-40 9 -83 -15 -106 -59 -20 -38 -35 -46 -35 -21 0 22 -52 74 -80 80 -14 2 -34
0 -45 -6z"/>
</g>
</svg>
