<?xml version="1.0" standalone="no"?>
<!DOCTYPE svg PUBLIC "-//W3C//DTD SVG 20010904//EN"
 "http://www.w3.org/TR/2001/REC-SVG-20010904/DTD/svg10.dtd">
<svg version="1.0" xmlns="http://www.w3.org/2000/svg"
 width="244.000000pt" height="305.000000pt" viewBox="0 0 244.000000 305.000000"
 preserveAspectRatio="xMidYMid meet">
<metadata>
Created by potrace 1.16, written by Peter Selinger 2001-2019
</metadata>
<g transform="translate(0.000000,305.000000) scale(0.100000,-0.100000)"
fill="#000000" stroke="none">
<path d="M872 2798 c-52 -249 -69 -418 -74 -707 -3 -152 -2 -165 16 -175 11
-6 34 -24 53 -40 l34 -29 27 25 c15 13 40 32 56 42 l28 18 -6 152 c-12 272
-25 430 -46 552 -27 162 -50 264 -60 264 -4 0 -17 -46 -28 -102z m62 -94 c36
-218 46 -316 53 -544 l6 -205 -41 -28 c-23 -15 -44 -27 -47 -27 -3 0 -5 217
-5 482 0 265 2 479 5 476 3 -2 16 -72 29 -154z"/>
<path d="M1542 2798 c-55 -265 -94 -684 -77 -821 6 -47 11 -55 43 -75 21 -12
44 -27 54 -34 13 -10 23 -6 52 20 20 18 43 32 51 32 12 0 15 16 15 78 -1 245
-38 629 -75 772 -8 30 -12 40 -10 22 3 -18 14 -96 25 -175 27 -190 37 -320 39
-507 l2 -157 -40 -26 c-22 -15 -43 -27 -46 -27 -3 0 -5 216 -5 481 0 264 4
478 9 475 4 -3 6 6 3 19 -8 46 -19 25 -40 -77z"/>
<path d="M1311 2805 c-1 -33 -3 -179 -3 -325 -2 -248 -2 -255 -8 -100 -3 91
-7 132 -8 91 -2 -83 -7 -89 -16 -20 -3 25 -14 70 -24 99 l-18 53 -17 -64 c-9
-35 -21 -82 -26 -104 -8 -38 -9 -38 -11 -10 -2 17 -6 104 -10 195 -6 155 -6
147 -8 -126 -2 -355 -12 -576 -24 -549 -6 15 -7 12 -3 -10 2 -16 7 -41 11 -55
5 -19 4 -22 -5 -14 -12 11 -14 19 -25 95 -16 111 -23 139 -36 139 -10 0 -27
-81 -33 -158 -4 -50 -3 -53 29 -73 32 -20 34 -23 34 -80 0 -45 -4 -61 -16 -66
-8 -3 -20 -1 -27 6 -35 35 -52 -18 -19 -59 22 -28 67 -22 77 10 12 38 20 20
17 -40 -3 -39 -8 -60 -15 -58 -7 1 -24 -1 -38 -5 -29 -8 -48 -37 -24 -37 9 0
15 -10 15 -25 0 -14 -4 -25 -9 -25 -22 0 -80 77 -92 119 -7 26 -18 53 -26 62
-21 25 -16 45 19 74 25 21 40 26 72 23 40 -3 41 -2 39 26 -4 58 -60 86 -120
61 -18 -8 -33 -15 -33 -17 0 -2 -7 -21 -14 -43 l-14 -39 -15 36 c-40 96 -177
93 -177 -3 0 -28 1 -29 38 -23 34 5 44 2 75 -26 39 -34 49 -73 21 -84 -36 -14
8 -158 71 -230 14 -16 25 -33 25 -37 0 -5 -16 -29 -35 -55 -56 -74 -43 -124
37 -139 45 -9 55 6 41 63 -17 70 4 90 65 63 29 -14 32 -19 32 -59 0 -24 -5
-52 -10 -63 -12 -21 -40 -26 -41 -6 0 6 -4 3 -8 -8 -5 -11 -25 -26 -45 -33
-32 -12 -40 -12 -62 3 -40 26 -86 96 -79 120 9 27 8 40 -8 110 l-14 60 -38 -1
c-44 -2 -65 -23 -65 -65 0 -34 13 -66 61 -144 92 -153 91 -150 100 -273 7 -88
6 -120 -4 -133 -13 -19 -195 -231 -251 -294 -20 -22 -36 -37 -36 -32 0 4 57
110 127 235 113 202 127 232 127 273 -2 71 -30 141 -86 210 -84 105 -97 162
-53 227 32 46 32 66 0 80 -42 19 -92 15 -115 -10 -25 -27 -25 -46 0 -128 29
-96 27 -136 -11 -171 -26 -25 -30 -34 -25 -62 l6 -32 -123 -44 c-67 -24 -146
-52 -175 -63 -106 -41 -80 -21 190 148 140 87 138 84 113 168 -8 27 -15 65
-15 85 0 20 -5 43 -11 51 -8 11 -9 -12 -6 -83 l5 -98 -29 6 c-31 7 -54 -8
-149 -96 -187 -173 -260 -243 -256 -246 2 -2 53 12 112 31 60 20 166 55 237
78 115 37 127 43 127 65 0 34 22 38 77 13 59 -26 91 -55 110 -98 17 -40 13
-47 -32 -62 -34 -11 -35 -14 -81 -158 -101 -323 -112 -358 -118 -392 l-7 -35
27 30 c25 28 186 204 209 229 6 6 46 51 89 99 63 72 77 93 71 110 -4 12 -9 35
-12 50 l-5 28 98 -3 99 -3 6 -30 c5 -24 7 -26 8 -7 0 13 6 20 11 17 14 -9 13
-68 -2 -100 -11 -24 -13 -25 -19 -8 -5 12 -8 2 -8 -27 -1 -34 2 -41 10 -30 8
11 9 -2 5 -49 -3 -35 -7 -73 -7 -85 -1 -13 -5 -7 -9 14 -5 21 -6 6 -3 -39 4
-54 3 -72 -6 -67 -8 5 -11 -10 -10 -51 l1 -58 19 90 c11 50 22 101 25 115 l6
25 9 -23 c5 -12 29 -125 55 -250 25 -125 47 -228 48 -230 3 -2 72 319 87 398
4 25 12 61 17 80 l9 35 8 -45 c6 -37 9 -42 17 -25 6 15 7 11 4 -15 -3 -19 1
-60 9 -90 l14 -55 -5 75 c-23 315 -29 413 -24 419 10 16 56 24 124 23 38 -1
71 -4 74 -7 3 -3 0 -23 -7 -45 -7 -24 -8 -46 -3 -56 12 -21 396 -443 400 -439
3 3 2 8 -106 350 -70 219 -70 220 -103 231 -70 24 -36 109 63 156 62 31 88 28
88 -8 0 -21 17 -28 238 -100 130 -42 241 -79 246 -81 28 -18 -24 37 -124 129
-63 59 -144 134 -180 167 -60 56 -68 61 -100 55 l-36 -5 3 98 c4 122 -11 97
-21 -35 l-7 -93 48 6 c48 6 48 5 113 -55 36 -33 100 -93 143 -131 43 -39 76
-73 73 -76 -6 -7 -346 188 -379 217 -41 37 -50 89 -26 164 35 113 19 156 -57
156 -39 0 -84 -22 -84 -41 0 -6 11 -27 25 -47 28 -41 33 -94 13 -139 -7 -15
-39 -64 -72 -107 -58 -76 -60 -81 -60 -140 0 -79 13 -100 68 -116 37 -10 47
-18 55 -44 25 -80 124 -393 129 -406 14 -41 -27 24 -142 223 -69 120 -132 228
-141 240 -8 12 -15 43 -15 71 0 43 9 64 75 174 59 98 75 133 75 163 0 45 -27
79 -62 79 -46 0 -56 -23 -63 -148 -4 -74 -37 -132 -86 -153 -27 -10 -35 -9
-67 9 -30 17 -40 30 -52 74 -8 29 -19 59 -23 66 -8 12 17 27 59 34 17 3 19 -4
19 -67 0 -67 1 -70 25 -73 14 -1 40 7 58 18 45 28 44 72 -3 127 -19 23 -35 45
-35 50 0 5 13 24 29 44 45 54 74 116 79 170 4 39 1 50 -12 55 -28 11 -18 50
20 84 31 26 43 31 75 28 45 -4 56 11 37 50 -17 34 -55 54 -92 47 -36 -6 -60
-27 -76 -66 -7 -16 -15 -29 -19 -29 -3 0 -13 18 -22 39 -14 32 -24 42 -54 50
-61 16 -98 -7 -106 -69 -4 -24 -2 -25 43 -22 40 3 51 0 73 -22 28 -28 32 -57
11 -75 -7 -6 -16 -29 -20 -50 -6 -38 -49 -102 -86 -128 -18 -13 -20 -12 -20
12 0 14 7 28 15 32 25 9 -11 43 -46 43 -26 0 -27 2 -31 56 -1 31 -2 57 0 59 2
1 14 -8 27 -21 30 -30 49 -30 69 -2 30 43 12 90 -21 57 -7 -7 -19 -9 -27 -6
-12 5 -16 21 -16 66 0 57 1 60 35 80 19 11 35 25 35 30 0 5 -5 44 -11 86 -11
79 -26 132 -35 123 -2 -3 -13 -56 -24 -118 -11 -63 -25 -118 -31 -124 -8 -8
-9 -5 -3 14 10 28 6 656 -6 855 -4 77 -8 106 -9 70z m-20 -594 c6 -74 9 -173
7 -220 -3 -48 -1 -98 3 -114 5 -18 4 -25 -3 -21 -6 4 -14 0 -19 -7 -11 -18
-12 -92 0 -85 13 9 21 -19 21 -74 0 -38 -4 -52 -19 -59 -16 -9 -20 -7 -23 13
-4 17 -1 23 9 19 16 -6 18 48 2 64 -7 7 -9 33 -5 74 12 115 18 264 10 257 -4
-4 -10 -47 -14 -95 -5 -63 -7 -14 -9 173 0 144 -3 290 -6 325 -4 64 -4 64 15
-26 11 -49 24 -151 31 -224z m-356 -644 c15 -32 50 -77 86 -112 33 -31 59 -64
57 -72 -5 -23 -99 52 -138 108 -39 57 -58 129 -34 129 2 0 15 -24 29 -53z
m640 21 c-11 -52 -50 -112 -106 -162 -28 -25 -55 -46 -60 -46 -23 0 -4 34 49
84 58 55 72 75 92 129 14 39 33 35 25 -5z m-375 0 c0 -7 -5 -20 -10 -28 -8
-12 -10 -9 -10 13 0 15 5 27 10 27 6 0 10 -6 10 -12z m90 -15 c0 -22 -2 -25
-10 -13 -13 20 -13 40 0 40 6 0 10 -12 10 -27z m-145 -77 c15 -63 20 -114 14
-136 -5 -21 -7 -23 -14 -7 -4 9 -4 24 -1 33 9 23 -4 64 -20 64 -10 0 -14 12
-14 40 0 31 3 38 15 34 8 -4 17 -16 20 -28z m92 -13 c-3 -10 -5 -2 -5 17 0 19
2 27 5 18 2 -10 2 -26 0 -35z m113 25 c0 -7 3 -23 6 -35 5 -17 2 -23 -9 -23
-20 0 -30 -32 -22 -70 4 -19 3 -30 -4 -30 -18 0 -18 65 0 133 9 35 29 52 29
25z m-243 -140 c-3 -8 -6 -5 -6 6 -1 11 2 17 5 13 3 -3 4 -12 1 -19z m10 -100
c-3 -7 -5 -2 -5 12 0 14 2 19 5 13 2 -7 2 -19 0 -25z m240 10 c-3 -8 -6 -5 -6
6 -1 11 2 17 5 13 3 -3 4 -12 1 -19z m47 -78 l7 -25 -15 25 c-9 14 -15 43 -14
65 l1 40 6 -40 c4 -22 11 -51 15 -65z m-277 -2 c-3 -8 -6 -5 -6 6 -1 11 2 17
5 13 3 -3 4 -12 1 -19z m50 -8 c13 0 13 -3 3 -15 -16 -19 -30 -10 -29 18 0 12
3 16 6 10 2 -7 12 -13 20 -13z m143 9 c0 -4 -3 -15 -6 -23 -5 -13 -9 -14 -20
-5 -20 17 -17 35 6 35 11 0 20 -3 20 -7z m17 -41 c-3 -8 -6 -5 -6 6 -1 11 2
17 5 13 3 -3 4 -12 1 -19z m33 -68 c-17 -32 -21 -19 -7 26 9 30 13 34 15 17 2
-12 -2 -32 -8 -43z m-266 17 c4 -19 3 -26 -4 -22 -5 3 -10 18 -10 32 0 32 5
28 14 -10z m133 -189 c-3 -8 -6 -5 -6 6 -1 11 2 17 5 13 3 -3 4 -12 1 -19z
m103 -59 c0 -24 -4 -38 -10 -34 -17 10 -11 75 7 75 2 0 3 -18 3 -41z m-47 -16
c15 -20 28 -48 28 -62 1 -25 2 -25 10 4 5 20 6 11 3 -30 -3 -33 -10 -73 -14
-90 -5 -16 -12 -48 -15 -70 -3 -22 -17 -87 -30 -145 l-24 -105 5 185 c7 275 7
272 -1 313 -9 46 2 47 38 0z m75 -208 l0 -30 -8 30 c-4 17 -8 44 -8 60 l0 30
8 -30 c4 -16 8 -43 8 -60z"/>
<path d="M1143 2690 c0 -25 2 -35 4 -22 2 12 2 32 0 45 -2 12 -4 2 -4 -23z"/>
<path d="M1134 2305 c0 -88 2 -123 3 -77 2 46 2 118 0 160 -1 42 -3 5 -3 -83z"/>
<path d="M1047 1278 c-4 -12 -4 -24 -2 -27 3 -2 5 1 5 8 0 7 5 9 10 6 6 -3 10
1 10 9 0 25 -17 27 -23 4z"/>
<path d="M1031 1224 c0 -11 3 -14 6 -6 3 7 2 16 -1 19 -3 4 -6 -2 -5 -13z"/>
</g>
</svg>
