<?xml version="1.0" standalone="no"?>
<!DOCTYPE svg PUBLIC "-//W3C//DTD SVG 20010904//EN"
 "http://www.w3.org/TR/2001/REC-SVG-20010904/DTD/svg10.dtd">
<svg version="1.0" xmlns="http://www.w3.org/2000/svg"
 width="244.000000pt" height="305.000000pt" viewBox="0 0 244.000000 305.000000"
 preserveAspectRatio="xMidYMid meet">
<metadata>
Created by potrace 1.16, written by Peter Selinger 2001-2019
</metadata>
<g transform="translate(0.000000,305.000000) scale(0.100000,-0.100000)"
fill="#000000" stroke="none">
<path d="M891 2807 c-48 -234 -71 -471 -71 -745 0 -139 1 -143 23 -151 12 -5
33 -20 46 -35 l24 -25 33 27 c18 15 43 34 55 43 l22 15 -12 270 c-11 237 -31
434 -60 569 -15 72 -11 13 8 -125 28 -193 41 -368 41 -544 l0 -153 -37 -27
-38 -26 -5 32 c-8 48 -4 898 4 935 4 17 3 34 -2 37 -5 3 -19 -40 -31 -97z"/>
<path d="M1546 2892 c-13 -22 -55 -272 -70 -427 -8 -82 -18 -235 -21 -340 l-7
-190 45 -37 c50 -42 68 -46 88 -22 7 8 25 22 41 30 l28 15 0 124 c0 69 -4 125
-8 125 -5 0 -6 -49 -4 -108 l4 -108 -41 -27 c-22 -15 -43 -27 -46 -27 -3 0 -5
217 -4 483 0 278 4 474 9 462 10 -24 11 -1 1 35 -5 17 -9 21 -15 12z"/>
<path d="M1126 2828 c-10 -73 -26 -443 -26 -589 0 -77 -4 -139 -9 -139 -13 0
-31 -91 -31 -159 0 -46 4 -60 17 -65 32 -13 -1 -27 -35 -15 -41 14 -81 -5
-103 -49 -10 -18 -20 -34 -23 -35 -3 -1 -14 14 -24 33 -20 42 -61 64 -102 55
-37 -8 -52 -26 -53 -67 -2 -32 -1 -32 39 -29 34 2 45 -3 72 -30 34 -35 42 -73
17 -83 -33 -12 -12 -106 43 -192 21 -32 41 -64 45 -70 4 -7 -9 -31 -28 -55
-48 -60 -48 -102 -1 -130 25 -15 33 -25 29 -39 -3 -11 -9 -20 -13 -20 -12 0
-80 79 -80 93 -2 74 -12 173 -20 188 -14 25 -62 25 -85 -1 -25 -28 -16 -103
20 -160 16 -25 46 -79 68 -120 36 -66 41 -84 42 -150 2 -41 6 -93 10 -115 7
-39 4 -43 -65 -130 -40 -50 -102 -128 -138 -173 -37 -46 -68 -80 -69 -75 -2 5
51 114 118 242 121 231 121 233 115 284 -9 68 -33 118 -89 193 -76 100 -86
155 -41 232 l27 45 -23 19 c-24 20 -80 24 -110 8 -28 -15 -32 -53 -10 -122 32
-102 23 -189 -22 -203 -20 -7 -23 -27 -8 -56 10 -17 5 -22 -37 -40 -100 -43
-305 -120 -309 -116 -4 4 104 78 282 193 45 29 84 59 86 66 3 7 -1 33 -8 58
-6 25 -15 71 -19 103 -10 85 -20 60 -17 -39 l3 -84 -30 6 c-29 6 -40 -2 -158
-117 -71 -68 -154 -148 -185 -178 -32 -30 -56 -57 -54 -58 2 -2 64 17 137 42
74 26 175 60 224 77 105 36 115 42 115 74 0 27 6 29 47 13 52 -19 100 -60 118
-99 22 -48 18 -60 -25 -74 -33 -11 -34 -12 -85 -186 -75 -251 -115 -394 -111
-397 2 -2 65 70 142 159 268 315 245 284 234 313 -6 15 -10 37 -10 51 0 23 2
24 70 24 60 0 70 -2 70 -17 0 -10 -9 -110 -20 -223 -11 -113 -20 -216 -19
-230 l0 -25 10 25 c6 14 8 33 5 42 -2 10 -1 16 3 13 8 -5 45 115 37 122 -2 2
-10 -19 -17 -46 -7 -28 -14 -49 -16 -47 -5 5 56 358 63 365 10 10 16 -10 16
-53 0 -25 -3 -50 -7 -56 -6 -10 -10 -29 -19 -85 l-5 -30 11 28 c13 31 10 46
94 -388 21 -110 40 -193 42 -185 1 8 29 146 61 305 l58 290 21 -70 c12 -38 34
-115 49 -170 23 -84 29 -94 31 -65 2 19 -1 36 -7 38 -7 2 -10 23 -7 55 3 32 3
41 -2 22 -6 -23 -11 -6 -26 85 -10 63 -24 142 -32 175 -8 33 -14 73 -14 89 0
23 3 27 20 23 10 -3 20 -1 22 4 3 9 43 14 102 11 l38 -2 -6 -36 c-4 -19 -9
-41 -11 -47 -5 -13 364 -461 373 -453 5 5 -42 173 -135 483 -23 76 -27 83 -59
93 -38 13 -43 33 -20 78 20 38 55 68 100 87 46 19 66 14 66 -18 0 -19 9 -26
48 -39 26 -9 126 -43 222 -76 96 -34 176 -59 178 -58 1 2 -74 79 -169 172
-160 158 -173 169 -206 167 l-34 -3 7 84 c4 51 3 86 -3 89 -9 6 -23 -100 -23
-174 0 -28 1 -28 43 -23 l42 5 134 -132 c74 -72 125 -129 114 -125 -24 8 -231
131 -254 152 -8 7 -20 14 -25 14 -5 0 -26 14 -46 31 -56 45 -66 93 -39 185 26
89 26 99 1 124 -22 22 -66 26 -105 8 -32 -14 -32 -35 0 -78 44 -60 30 -125
-48 -228 -60 -79 -67 -94 -66 -149 2 -78 10 -96 59 -119 34 -16 47 -29 57 -60
26 -72 113 -371 113 -385 0 -17 -18 13 -157 271 -113 208 -128 250 -109 309 5
13 36 72 69 130 49 86 61 114 61 151 1 26 -5 54 -13 63 -16 20 -64 22 -78 5
-13 -16 -25 -100 -24 -157 1 -35 -5 -52 -31 -87 -18 -24 -36 -44 -40 -44 -13
0 -21 44 -8 48 24 8 50 42 50 65 0 20 -16 50 -54 102 -14 18 -11 26 29 89 63
97 81 169 50 200 -24 23 -18 49 19 85 27 26 40 32 67 29 30 -3 34 0 37 24 6
53 -64 87 -120 57 -11 -6 -28 -29 -38 -52 l-19 -41 -17 43 c-20 52 -60 74
-108 60 -35 -10 -45 -4 -25 16 12 13 13 30 4 113 -14 137 -26 147 -46 42 -17
-84 -17 -80 -16 377 1 254 -1 459 -5 455 -4 -4 -13 -154 -20 -332 -10 -264
-14 -310 -20 -246 -8 82 -40 253 -55 295 -8 19 -13 8 -31 -68 -31 -128 -41
-208 -51 -407 -5 -95 -14 -181 -20 -191 -8 -13 -10 112 -9 470 2 268 2 487 1
487 -1 0 -4 -19 -7 -42z m159 -596 c3 -48 8 -103 11 -122 3 -24 2 -30 -5 -21
-11 18 -24 -118 -25 -284 -1 -125 7 -172 24 -145 8 12 10 10 10 -9 0 -19 -4
-23 -25 -19 -13 3 -26 0 -29 -6 -7 -18 -7 715 1 785 l7 64 12 -78 c7 -43 15
-117 19 -165z m12 -244 c-3 -7 -5 -2 -5 12 0 14 2 19 5 13 2 -7 2 -19 0 -25z
m-8 -153 c-10 -46 -10 -58 0 -65 8 -4 11 -16 6 -29 -11 -36 -25 -13 -25 41 0
47 19 123 28 114 2 -3 -2 -30 -9 -61z m-142 23 c-3 -7 -5 -2 -5 12 0 14 2 19
5 13 2 -7 2 -19 0 -25z m180 10 c-3 -8 -6 -5 -6 6 -1 11 2 17 5 13 3 -3 4 -12
1 -19z m-225 -114 c4 -3 8 -12 8 -20 0 -16 -26 -19 -35 -4 -12 19 -35 10 -35
-13 0 -34 29 -70 51 -64 16 4 19 -1 19 -34 0 -28 -4 -39 -15 -39 -8 0 -20 -9
-27 -20 -7 -11 -20 -20 -29 -20 -18 0 -49 60 -49 94 0 13 -9 31 -19 40 -24 21
-17 50 18 77 20 16 34 19 65 15 22 -4 43 -9 48 -12z m385 -6 c31 -36 35 -56
13 -75 -11 -10 -20 -30 -20 -46 0 -37 -26 -87 -46 -87 -29 0 -74 52 -74 87 0
26 3 30 19 26 22 -6 51 30 51 64 0 25 -10 29 -27 12 -15 -15 -43 -4 -43 15 0
14 23 21 81 25 15 0 34 -8 46 -21z m-551 -154 c4 -14 22 -46 40 -70 19 -24 34
-51 34 -60 0 -8 5 -12 10 -9 6 4 10 -5 9 -22 -1 -17 -3 -21 -6 -10 -2 9 -8 15
-13 12 -8 -5 -53 48 -77 91 -18 33 -27 94 -14 94 6 0 14 -12 17 -26z m624 9
c-1 -45 -82 -179 -101 -167 -14 8 -1 41 36 89 18 24 35 55 39 69 7 29 26 35
26 9z m-367 -7 c7 -16 -1 -26 -20 -26 -7 0 -13 9 -13 20 0 23 25 27 33 6z
m120 8 c9 -10 -4 -34 -19 -34 -8 0 -14 9 -14 20 0 19 19 27 33 14z m83 -95
c-5 -28 -29 -58 -47 -59 -12 0 9 73 23 81 24 16 31 9 24 -22z m-282 9 c12 -37
15 -68 9 -68 -18 1 -42 28 -48 53 -6 23 -4 27 14 27 12 0 23 -6 25 -12z m123
-35 c-3 -10 -5 -4 -5 12 0 17 2 24 5 18 2 -7 2 -21 0 -30z m-73 -33 l6 -35
-15 30 c-16 34 -20 64 -6 50 5 -6 12 -26 15 -45z m150 -3 c-9 -26 -18 -47 -21
-47 -5 0 3 31 19 73 18 46 19 24 2 -26z m-247 -59 c-3 -7 -5 -2 -5 12 0 14 2
19 5 13 2 -7 2 -19 0 -25z m340 10 c-3 -8 -6 -5 -6 6 -1 11 2 17 5 13 3 -3 4
-12 1 -19z m-267 -23 c0 -8 -7 -15 -15 -15 -8 0 -15 7 -15 15 0 8 7 15 15 15
8 0 15 -7 15 -15z m220 0 c0 -8 -7 -15 -15 -15 -16 0 -20 12 -8 23 11 12 23 8
23 -8z m-340 -60 c0 -8 -7 -15 -15 -15 -16 0 -20 12 -8 23 11 12 23 8 23 -8z
m10 -92 c-6 -29 -16 -55 -21 -59 -19 -12 -19 3 1 44 11 22 21 60 21 84 2 34 3
37 6 13 3 -16 0 -54 -7 -82z m142 75 c-9 -9 -12 -7 -12 12 0 19 3 21 12 12 9
-9 9 -15 0 -24z m289 -38 c5 0 9 -13 9 -30 0 -20 5 -30 15 -30 17 0 42 -46 32
-57 -11 -10 -47 28 -63 66 -8 18 -13 54 -12 80 1 43 2 44 5 9 2 -21 8 -38 14
-38z m6 38 c-3 -7 -5 -2 -5 12 0 14 2 19 5 13 2 -7 2 -19 0 -25z m-157 6 c0
-8 -4 -12 -10 -9 -5 3 -10 10 -10 16 0 5 5 9 10 9 6 0 10 -7 10 -16z m85 -64
c-19 -79 -32 -90 -15 -14 19 89 21 96 27 91 3 -3 -2 -38 -12 -77z m-299 -57
c-5 -5 -26 92 -25 115 1 9 7 -12 15 -47 8 -35 12 -66 10 -68z m39 24 c13 -18
13 -18 24 0 9 16 12 16 21 3 14 -22 13 -26 -15 -44 -23 -15 -25 -15 -35 5 -7
11 -13 44 -15 72 -1 29 0 37 2 18 2 -19 10 -43 18 -54z m221 9 c-10 -63 -18
-72 -50 -51 -27 18 -34 39 -15 50 6 4 16 -1 23 -11 13 -17 14 -16 25 4 6 11
12 38 12 59 1 26 3 30 6 14 3 -13 2 -43 -1 -65z m11 -108 c-3 -7 -5 -2 -5 12
0 14 2 19 5 13 2 -7 2 -19 0 -25z m-126 -185 c-8 -15 -10 -15 -11 -2 0 17 10
32 18 25 2 -3 -1 -13 -7 -23z m-84 -42 c9 -15 9 -23 -2 -37 -11 -15 -14 -16
-15 -4 0 8 -3 25 -6 38 -8 27 7 29 23 3z m183 -16 c0 -37 -13 -46 -28 -18 -7
11 -6 23 1 35 18 28 27 22 27 -17z m-80 -10 c0 17 7 13 40 -21 46 -49 46 -27
-9 -298 -37 -183 -38 -187 -44 -135 -10 81 -7 478 3 454 l9 -20 1 20z"/>
<path d="M1254 2185 c0 -66 1 -92 3 -57 2 34 2 88 0 120 -2 31 -3 3 -3 -63z"/>
<path d="M1261 814 c0 -11 3 -14 6 -6 3 7 2 16 -1 19 -3 4 -6 -2 -5 -13z"/>
<path d="M1272 770 c0 -14 2 -19 5 -12 2 6 2 18 0 25 -3 6 -5 1 -5 -13z"/>
<path d="M1263 650 c0 -30 2 -43 4 -27 2 15 2 39 0 55 -2 15 -4 2 -4 -28z"/>
<path d="M1253 505 c0 -33 2 -45 4 -27 2 18 2 45 0 60 -2 15 -4 0 -4 -33z"/>
<path d="M1571 2804 c-1 -6 8 -69 18 -140 19 -127 38 -300 45 -419 2 -33 2 5
0 85 -2 80 -10 192 -18 250 -16 106 -43 244 -45 224z"/>
<path d="M1353 2700 c0 -25 2 -35 4 -22 2 12 2 32 0 45 -2 12 -4 2 -4 -23z"/>
<path d="M1142 2670 c0 -19 2 -27 5 -17 2 9 2 25 0 35 -3 9 -5 1 -5 -18z"/>
<path d="M1363 2460 c0 -36 2 -50 4 -32 2 17 2 47 0 65 -2 17 -4 3 -4 -33z"/>
<path d="M1152 2490 c0 -14 2 -19 5 -12 2 6 2 18 0 25 -3 6 -5 1 -5 -13z"/>
<path d="M1153 2380 c0 -41 2 -58 4 -37 2 20 2 54 0 75 -2 20 -4 3 -4 -38z"/>
<path d="M1413 835 c0 -22 2 -30 4 -17 2 12 2 30 0 40 -3 9 -5 -1 -4 -23z"/>
<path d="M1423 745 c0 -22 2 -30 4 -17 2 12 2 30 0 40 -3 9 -5 -1 -4 -23z"/>
<path d="M1081 674 c0 -11 3 -14 6 -6 3 7 2 16 -1 19 -3 4 -6 -2 -5 -13z"/>
<path d="M1433 650 c0 -25 2 -35 4 -22 2 12 2 32 0 45 -2 12 -4 2 -4 -23z"/>
</g>
</svg>
