<?xml version="1.0" standalone="no"?>
<!DOCTYPE svg PUBLIC "-//W3C//DTD SVG 20010904//EN"
 "http://www.w3.org/TR/2001/REC-SVG-20010904/DTD/svg10.dtd">
<svg version="1.0" xmlns="http://www.w3.org/2000/svg"
 width="244.000000pt" height="305.000000pt" viewBox="0 0 244.000000 305.000000"
 preserveAspectRatio="xMidYMid meet">
<metadata>
Created by potrace 1.16, written by Peter Selinger 2001-2019
</metadata>
<g transform="translate(0.000000,305.000000) scale(0.100000,-0.100000)"
fill="#000000" stroke="none">
<path d="M908 2904 c-8 -12 -53 -248 -67 -354 -15 -103 -31 -371 -31 -512 0
-112 1 -118 23 -129 12 -6 34 -23 50 -37 l27 -26 28 25 c15 14 38 32 50 40 24
14 24 16 22 193 0 98 -7 244 -15 325 -23 227 -73 499 -87 475z m41 -221 c30
-202 40 -318 47 -535 l7 -194 -39 -24 c-21 -14 -42 -26 -46 -28 -5 -2 -8 214
-7 480 0 285 4 474 9 461 5 -11 18 -83 29 -160z"/>
<path d="M1556 2899 c-24 -68 -62 -289 -76 -434 -17 -183 -25 -545 -12 -545 7
0 29 -16 51 -35 l38 -35 34 30 c19 16 43 33 53 36 18 6 19 16 13 253 -4 135
-14 296 -22 356 -19 142 -46 297 -52 292 -2 -3 3 -49 12 -103 27 -166 45 -360
51 -559 l7 -190 -41 -32 c-22 -18 -43 -33 -46 -33 -3 0 -6 217 -5 483 0 296 4
474 9 462 7 -14 8 -8 3 20 -7 46 -11 54 -17 34z"/>
<path d="M1352 2875 c0 -16 2 -22 5 -12 2 9 2 23 0 30 -3 6 -5 -1 -5 -18z"/>
<path d="M1106 2472 c1 -229 0 -407 -3 -394 -2 12 -9 22 -14 22 -5 0 -10 59
-11 133 l-1 132 -9 -185 c-5 -102 -10 -214 -12 -250 l-3 -65 -35 0 c-44 -1
-66 -18 -89 -69 l-17 -39 -15 35 c-19 45 -52 68 -98 68 -39 0 -66 -21 -69 -55
-4 -40 -1 -45 29 -39 71 15 145 -76 95 -117 -30 -25 11 -157 70 -223 14 -16
26 -33 26 -37 0 -5 -16 -29 -35 -55 -37 -48 -42 -72 -24 -105 5 -11 9 -28 7
-37 -3 -13 -10 -8 -27 18 -16 25 -21 44 -17 69 5 32 -7 100 -25 149 -11 29
-52 29 -80 1 -35 -35 -22 -90 50 -216 48 -84 60 -114 55 -133 -6 -22 -8 -19
-24 28 -9 29 -38 79 -64 112 -81 103 -95 167 -51 232 14 20 25 41 25 46 0 20
-39 42 -74 42 -80 0 -95 -32 -66 -136 32 -109 24 -185 -20 -199 -21 -7 -22
-14 -9 -64 3 -10 -33 -28 -126 -63 -191 -72 -209 -78 -213 -73 -2 2 36 30 84
61 49 31 115 74 147 96 32 21 62 38 65 38 4 0 22 13 40 29 l32 29 -15 49 c-8
26 -15 66 -16 88 0 22 -5 51 -9 65 -7 23 -8 22 -10 -10 -2 -35 0 -126 3 -145
1 -5 -13 -9 -31 -7 -30 3 -46 -10 -210 -165 -97 -92 -178 -171 -180 -175 -6
-13 6 -10 238 70 218 75 225 78 228 105 3 26 6 28 30 22 76 -18 136 -73 148
-131 6 -29 3 -33 -30 -44 -35 -11 -37 -15 -71 -123 -68 -217 -136 -450 -132
-454 2 -2 89 94 193 213 193 222 195 224 179 292 l-7 32 61 0 c41 0 61 -4 61
-12 0 -9 3 -9 12 0 7 7 18 12 26 12 17 0 18 11 -35 -245 -30 -142 -39 -174
-45 -150 -6 27 -7 26 -6 -10 0 -22 -3 -47 -6 -57 -4 -9 -6 -29 -4 -45 2 -19
21 26 62 152 32 99 61 183 65 188 4 4 36 -137 71 -313 35 -176 64 -319 66
-317 2 2 86 420 117 582 l14 70 59 -180 c32 -98 60 -170 62 -159 1 11 -9 117
-23 237 -14 119 -25 224 -25 232 0 12 13 15 60 15 65 0 67 -2 50 -60 -11 -40
-8 -46 71 -136 30 -33 110 -124 178 -203 68 -78 126 -140 129 -137 3 3 -2 29
-11 58 -9 29 -46 152 -83 273 -37 121 -71 226 -77 233 -5 6 -20 12 -34 12 -30
0 -39 22 -22 61 17 43 54 78 107 101 51 23 72 18 72 -16 0 -19 8 -27 33 -35
17 -6 124 -42 237 -80 113 -38 206 -67 208 -66 3 2 -35 39 -248 239 -117 110
-126 117 -157 111 l-32 -6 6 93 c4 62 2 90 -5 83 -5 -5 -13 -54 -16 -108 l-7
-99 40 7 c37 6 45 3 79 -26 85 -74 251 -233 248 -237 -10 -9 -362 204 -385
234 -32 40 -35 78 -12 149 25 77 26 103 5 133 -29 42 -154 19 -137 -26 4 -9
15 -29 26 -44 16 -21 19 -38 15 -82 -5 -55 -10 -66 -107 -202 -28 -40 -37
-104 -22 -160 9 -35 16 -42 50 -52 21 -7 43 -18 49 -25 12 -15 145 -438 139
-444 -3 -2 -13 13 -24 34 -11 21 -31 56 -43 78 -13 22 -34 60 -48 85 -14 25
-53 95 -87 155 -34 61 -68 121 -75 135 l-13 24 27 -17 26 -18 -20 53 c-11 29
-20 62 -20 72 0 11 26 65 59 120 64 110 74 136 73 179 -1 54 -56 89 -92 59
-16 -14 -21 -33 -25 -107 -5 -91 -26 -155 -52 -155 -18 0 -16 14 6 51 23 37
20 50 -26 106 -18 23 -33 44 -33 47 0 3 16 28 35 54 68 95 98 204 60 218 -24
10 -17 49 15 84 25 27 35 31 72 29 l43 -3 -2 34 c-1 35 -21 57 -60 66 -35 9
-76 -17 -100 -64 l-22 -43 -19 44 c-24 55 -31 59 -93 59 -54 -1 -54 0 -37 27
9 15 8 51 -5 163 -9 78 -19 247 -22 373 -10 439 -20 424 -25 -37 -4 -331 -8
-440 -17 -450 -10 -10 -13 36 -15 227 l-2 240 -6 -175 c-3 -96 -7 -141 -8
-100 -4 132 -49 415 -72 459 -5 9 -16 -22 -29 -80 -30 -131 -41 -216 -49 -392
l-7 -152 -8 295 c-7 306 -25 610 -36 622 -3 4 -5 -181 -5 -410z m169 -134 c3
-40 9 -81 12 -92 3 -10 2 -96 -3 -190 -7 -149 -9 -163 -15 -106 -10 90 -17
521 -8 488 4 -16 10 -61 14 -100z m-123 -443 c-2 -14 -8 -25 -13 -25 -10 0
-11 12 -3 34 10 25 22 19 16 -9z m188 -11 c0 -8 -4 -14 -10 -14 -5 0 -10 9
-10 21 0 11 5 17 10 14 6 -3 10 -13 10 -21z m-225 -81 l-8 -28 -7 35 c-3 20
-10 42 -14 50 -5 8 1 5 14 -7 18 -17 21 -27 15 -50z m181 -8 c0 -41 -4 -75 -8
-75 -9 0 -11 111 -2 134 3 9 7 16 8 16 1 0 2 -34 2 -75z m72 19 c-12 -37 -12
-38 -16 -11 -2 16 2 35 9 43 18 22 20 12 7 -32z m-294 -60 c9 -8 16 -20 16
-25 0 -12 -17 -12 -25 1 -12 19 -25 10 -25 -18 0 -16 9 -37 20 -47 22 -20 28
-83 9 -102 -8 -8 -5 -17 10 -32 12 -12 21 -33 21 -48 l-1 -28 -30 35 c-16 19
-41 48 -54 64 -14 16 -28 46 -31 67 -4 21 -13 44 -20 50 -19 16 -18 42 4 66
30 35 80 43 106 17z m421 -9 c28 -27 32 -57 10 -75 -8 -7 -15 -25 -15 -40 0
-28 -48 -101 -96 -147 -26 -26 -35 -29 -30 -10 3 6 7 24 10 40 4 15 13 27 22
27 15 0 15 2 0 25 -21 31 -21 85 -1 85 16 0 29 21 39 63 5 23 3 27 -14 27 -11
0 -20 -4 -20 -10 0 -5 -5 -10 -11 -10 -18 0 -4 24 22 37 36 19 57 16 84 -12z
m-161 -98 c-7 -58 -19 -78 -40 -70 -21 8 -17 30 6 36 16 4 20 14 20 52 0 29 4
44 10 40 7 -4 8 -26 4 -58z m-184 13 c0 -34 4 -42 24 -50 23 -8 47 -33 29 -29
-4 1 -16 -1 -26 -6 -10 -4 -22 -4 -26 1 -13 14 -23 124 -11 124 5 0 10 -18 10
-40z m150 -25 c0 -2 -7 -5 -15 -9 -12 -4 -15 3 -15 32 l0 37 15 -29 c8 -15 15
-30 15 -31z m-351 -79 c31 -59 38 -86 22 -86 -21 0 -78 130 -63 144 7 8 6 9
41 -58z m408 32 c-3 -7 -5 -2 -5 12 0 14 2 19 5 13 2 -7 2 -19 0 -25z m213 13
c0 -25 -60 -139 -76 -145 -18 -7 -19 38 -1 52 7 6 24 34 37 62 24 51 40 64 40
31z m-453 -13 c-3 -8 -6 -5 -6 6 -1 11 2 17 5 13 3 -3 4 -12 1 -19z m132 -62
c-2 -23 -17 -60 -18 -46 -1 8 -4 24 -7 36 -4 14 -1 21 10 21 9 0 16 -5 15 -11z
m-91 -79 c25 -67 25 -67 14 -67 -8 0 -52 115 -52 135 0 19 17 -11 38 -68z
m186 46 c-12 -46 -44 -116 -51 -110 -3 4 2 26 12 49 9 24 21 53 26 66 12 31
21 28 13 -5z m-307 -80 c-3 -10 -5 -4 -5 12 0 17 2 24 5 18 2 -7 2 -21 0 -30z
m403 1 c0 -8 -4 -12 -10 -9 -5 3 -10 10 -10 16 0 5 5 9 10 9 6 0 10 -7 10 -16z
m-320 -40 c0 -11 -6 -14 -16 -10 -9 3 -18 6 -20 6 -2 0 -4 9 -4 20 0 18 3 19
20 10 11 -6 20 -18 20 -26z m260 12 c0 -18 -17 -29 -30 -21 -8 5 -7 11 1 21
15 18 29 18 29 0z m97 -123 c-2 -16 -4 -3 -4 27 0 30 2 43 4 28 2 -16 2 -40 0
-55z m-428 30 c5 -21 12 -56 15 -78 5 -37 4 -36 -14 15 -18 52 -25 100 -15
100 2 0 9 -17 14 -37z m-49 8 c0 -11 -4 -23 -10 -26 -6 -4 -10 5 -10 19 0 14
5 26 10 26 6 0 10 -9 10 -19z m170 4 c0 -8 -7 -15 -16 -15 -14 0 -14 3 -4 15
7 8 14 15 16 15 2 0 4 -7 4 -15z m155 6 c7 -12 -12 -24 -25 -16 -11 7 -4 25
10 25 5 0 11 -4 15 -9z m91 -81 c-19 -43 -20 -28 -4 42 11 46 13 49 16 23 2
-17 -4 -46 -12 -65z m-303 -27 c11 -18 27 -16 27 2 0 8 9 15 20 15 11 0 20 -2
20 -4 0 -2 3 -11 6 -19 4 -11 -6 -21 -31 -32 -19 -10 -37 -16 -39 -14 -13 13
-33 111 -28 131 5 18 8 14 12 -22 3 -25 9 -51 13 -57z m256 0 c-13 -48 -25
-61 -42 -44 -6 6 -19 11 -29 11 -11 0 -18 7 -18 20 0 28 28 37 44 15 12 -17
14 -16 29 6 10 13 18 39 18 59 2 32 2 33 6 6 3 -16 -1 -49 -8 -73z m-413 -14
c3 -6 0 -18 -9 -26 -18 -18 -37 -9 -37 18 0 21 34 27 46 8z m562 -11 c18 -18
14 -38 -8 -38 -15 0 -20 7 -20 25 0 27 9 32 28 13z m-645 -128 c-5 -20 -23
-38 -23 -23 1 22 13 52 20 48 5 -3 6 -14 3 -25z m10 -126 c4 -42 4 -82 -1 -89
-16 -29 -266 -325 -270 -320 -2 2 42 91 99 197 57 106 114 214 128 241 14 26
28 47 31 47 4 0 10 -34 13 -76z m367 17 c0 -9 -20 -37 -20 -29 0 3 -2 13 -5
21 -4 8 0 14 10 14 8 0 15 -3 15 -6z m145 -33 c17 -81 75 -371 74 -376 0 -4
-25 67 -54 158 -42 128 -53 173 -48 203 6 41 20 49 28 15z m-236 -27 c8 -15 5
-25 -17 -47 l-27 -29 -2 57 c-1 54 0 57 18 48 10 -6 23 -19 28 -29z m196 -26
l0 -54 -27 26 c-33 32 -34 37 -8 63 30 30 35 25 35 -35z m-15 -84 c0 -9 -6
-42 -14 -72 -8 -30 -22 -95 -30 -144 -27 -155 -37 -163 -28 -25 9 156 8 287
-2 320 -6 21 0 17 33 -19 23 -24 41 -51 41 -60z"/>
<path d="M1342 2755 c0 -16 2 -22 5 -12 2 9 2 23 0 30 -3 6 -5 -1 -5 -18z"/>
<path d="M1092 2725 c0 -16 2 -22 5 -12 2 9 2 23 0 30 -3 6 -5 -1 -5 -18z"/>
<path d="M1083 2560 c0 -36 2 -50 4 -32 2 17 2 47 0 65 -2 17 -4 3 -4 -33z"/>
<path d="M1333 2580 c0 -25 2 -35 4 -22 2 12 2 32 0 45 -2 12 -4 2 -4 -23z"/>
<path d="M1023 870 c0 -25 2 -35 4 -22 2 12 2 32 0 45 -2 12 -4 2 -4 -23z"/>
<path d="M1005 745 c-4 -42 -5 -79 -2 -81 2 -3 8 29 12 71 4 42 5 79 2 81 -2
3 -8 -29 -12 -71z"/>
<path d="M993 615 c0 -22 2 -30 4 -17 2 12 2 30 0 40 -3 9 -5 -1 -4 -23z"/>
</g>
</svg>
