<?xml version="1.0" standalone="no"?>
<!DOCTYPE svg PUBLIC "-//W3C//DTD SVG 20010904//EN"
 "http://www.w3.org/TR/2001/REC-SVG-20010904/DTD/svg10.dtd">
<svg version="1.0" xmlns="http://www.w3.org/2000/svg"
 width="244.000000pt" height="305.000000pt" viewBox="0 0 244.000000 305.000000"
 preserveAspectRatio="xMidYMid meet">
<metadata>
Created by potrace 1.16, written by Peter Selinger 2001-2019
</metadata>
<g transform="translate(0.000000,305.000000) scale(0.100000,-0.100000)"
fill="#000000" stroke="none">
<path d="M1550 2900 c0 -8 -3 -26 -6 -40 -4 -20 -3 -22 5 -10 8 11 11 -122 11
-467 0 -266 -2 -483 -5 -483 -3 0 -24 12 -47 27 l-41 28 7 220 c5 192 30 441
62 625 4 19 4 32 0 29 -3 -3 -17 -71 -30 -150 -28 -163 -45 -371 -49 -599 -2
-152 -2 -154 21 -166 12 -6 34 -22 48 -35 17 -16 29 -20 38 -14 7 6 32 23 56
38 l42 29 -6 171 c-8 209 -14 293 -27 417 -20 177 -77 453 -79 380z"/>
<path d="M907 2894 c-3 -6 -4 -22 -1 -35 6 -27 5 -951 -1 -957 -2 -2 -20 9
-40 25 l-37 28 6 235 c4 147 13 289 26 380 25 181 31 238 26 225 -9 -20 -37
-204 -51 -335 -7 -74 -17 -226 -21 -337 l-7 -202 24 -10 c13 -5 37 -21 54 -35
l29 -25 26 23 c14 13 35 29 48 35 21 11 22 16 22 174 0 216 -15 410 -46 590
-29 168 -47 237 -57 221z"/>
<path d="M1141 2884 c0 -11 3 -14 6 -6 3 7 2 16 -1 19 -3 4 -6 -2 -5 -13z"/>
<path d="M1322 2880 c0 -14 2 -19 5 -12 2 6 2 18 0 25 -3 6 -5 1 -5 -13z"/>
<path d="M1141 2840 c-1 -14 -2 -230 -2 -480 0 -272 -3 -447 -9 -435 -5 11
-10 81 -11 155 -2 121 -3 127 -8 55 -5 -64 -8 -74 -14 -51 -13 46 -24 19 -37
-89 -11 -96 -11 -100 9 -116 12 -10 21 -27 21 -39 l0 -22 -17 21 c-23 28 -85
31 -113 6 -10 -9 -25 -33 -31 -53 l-12 -36 -23 47 c-19 36 -32 48 -57 55 -60
16 -113 -19 -105 -71 3 -19 8 -22 41 -19 32 3 43 -2 72 -31 38 -38 43 -58 20
-77 -37 -30 -9 -136 60 -230 l35 -47 -25 -27 c-36 -39 -57 -84 -50 -107 8 -25
62 -59 92 -59 17 0 25 9 33 40 8 28 15 38 25 34 11 -5 15 2 16 27 0 19 3 28 6
20 9 -23 -17 -117 -39 -141 -21 -22 -22 -22 -28 -4 -7 18 -8 17 -14 -3 -13
-41 -53 -22 -99 45 -23 32 -27 46 -22 78 3 21 0 66 -7 98 -17 76 -42 90 -90
47 -32 -28 -32 -29 -21 -77 7 -27 41 -101 77 -163 88 -153 88 -157 -7 -326
-41 -71 -102 -181 -137 -243 -35 -62 -65 -110 -67 -108 -3 2 12 58 32 123 20
65 49 158 63 207 27 88 27 89 72 106 37 14 47 24 58 56 20 58 7 113 -41 185
-81 120 -87 132 -87 184 0 37 6 60 25 87 24 35 24 37 6 59 -24 30 -98 29 -123
-2 -23 -27 -22 -49 2 -128 21 -72 16 -127 -16 -162 -14 -15 -325 -206 -369
-227 -13 -6 166 172 232 231 49 43 55 45 83 35 17 -5 33 -8 36 -5 9 9 -9 207
-19 207 -6 0 -8 -32 -4 -90 l7 -89 -30 6 c-27 5 -38 -1 -98 -58 -181 -170
-293 -281 -290 -285 3 -2 65 17 139 42 74 25 176 59 227 76 82 28 92 34 92 55
0 35 24 38 83 10 49 -25 63 -39 93 -96 17 -32 3 -57 -34 -64 -28 -6 -30 -12
-111 -281 -45 -152 -81 -280 -79 -285 1 -5 31 23 65 62 34 40 119 137 188 217
134 154 132 150 109 228 -6 22 -5 22 80 22 75 0 86 -2 86 -17 0 -15 2 -16 10
-3 6 10 12 12 20 4 7 -7 2 -63 -18 -185 -17 -102 -31 -164 -34 -149 -3 14 -4
1 -2 -27 3 -32 0 -53 -6 -53 -6 0 -10 -23 -9 -52 0 -48 4 -38 38 97 21 83 41
143 43 135 9 -27 27 -112 48 -230 11 -63 31 -162 43 -219 l22 -103 34 173 c18
96 39 199 46 229 7 30 16 75 20 100 11 66 18 70 32 20 7 -25 10 -31 8 -15 -3
17 -8 55 -11 85 -3 30 -12 69 -20 87 -16 35 -18 79 -5 87 10 7 14 -9 35 -134
21 -127 28 -199 16 -175 -14 30 -3 -35 20 -115 l19 -65 -5 50 c-12 134 -34
410 -34 441 l0 34 79 0 c44 0 83 -4 86 -10 3 -5 1 -27 -6 -49 l-12 -39 61 -74
c33 -40 68 -82 78 -93 11 -11 64 -72 118 -135 148 -172 139 -165 121 -105 -8
28 -24 84 -36 125 -11 41 -29 102 -39 135 -10 33 -33 106 -50 163 -30 98 -33
104 -67 118 -33 14 -35 17 -30 52 8 46 70 105 126 120 45 11 51 8 51 -24 0
-12 8 -24 18 -27 9 -3 116 -39 236 -81 121 -42 221 -74 223 -72 2 2 -70 73
-159 158 -229 216 -208 200 -243 194 l-31 -6 4 97 c2 70 0 94 -7 83 -6 -8 -11
-36 -11 -62 0 -26 -7 -68 -16 -94 -8 -25 -13 -52 -10 -60 5 -13 90 -71 300
-203 48 -30 84 -56 81 -59 -4 -4 -42 8 -90 29 -11 5 -72 27 -135 50 -139 50
-143 53 -128 85 10 22 8 28 -20 54 -29 26 -32 34 -32 88 0 33 7 79 15 102 32
91 11 140 -59 140 -73 0 -95 -33 -56 -83 48 -61 35 -129 -45 -236 -58 -78 -85
-147 -85 -214 0 -41 29 -101 189 -396 34 -62 60 -115 58 -117 -4 -4 -254 296
-279 335 -14 22 -16 34 -8 62 6 19 8 52 5 74 -9 61 15 132 83 247 73 123 88
182 53 217 -21 21 -56 27 -77 13 -13 -8 -26 -76 -28 -154 -2 -44 -8 -64 -30
-93 -35 -46 -69 -63 -91 -45 -24 20 -18 40 11 40 28 0 84 49 84 73 0 8 -16 38
-35 66 -19 28 -35 54 -35 59 0 4 12 24 26 43 65 85 94 200 59 229 -22 18 -19
35 16 75 27 30 37 35 75 35 39 0 44 3 44 23 0 89 -130 99 -161 12 -7 -19 -16
-35 -20 -35 -4 0 -16 17 -26 38 -23 47 -59 66 -101 51 -17 -6 -33 -17 -36 -25
-8 -20 -26 -18 -26 3 0 10 12 27 26 38 l27 21 -13 90 c-7 49 -16 98 -20 109
-9 22 -12 18 -29 -45 -6 -25 -10 37 -11 220 -1 140 -6 314 -9 385 -6 95 -8 9
-11 -315 -1 -260 -6 -424 -10 -395 -5 28 -9 93 -9 145 -2 137 -33 370 -64 469
l-13 43 -22 -83 c-12 -46 -25 -106 -29 -134 l-8 -50 -6 70 c-4 39 -8 126 -9
195 -3 126 -15 286 -19 240z m88 -850 c0 -214 -3 -369 -8 -361 -6 9 -10 10
-12 2 -3 -7 -12 -9 -22 -6 -14 6 -17 20 -17 76 0 39 4 69 10 69 13 0 13 63 -1
93 -13 29 4 409 24 534 l12 78 7 -55 c3 -30 6 -224 7 -430z m-112 -235 c1 -6
-2 -17 -7 -25 -7 -12 -15 -13 -40 -3 -28 11 -30 10 -30 -14 0 -57 35 -79 73
-45 20 16 20 16 14 -1 -4 -10 -7 -34 -7 -52 0 -27 -5 -34 -25 -39 -14 -4 -31
-18 -37 -31 -9 -20 -14 -23 -25 -13 -19 15 -53 83 -53 104 0 10 -7 26 -16 35
-14 16 -15 23 -5 48 7 16 22 33 34 39 26 13 119 10 124 -3z m383 -17 c23 -28
25 -57 5 -64 -8 -4 -15 -16 -15 -28 -1 -30 -33 -98 -59 -120 -21 -19 -21 -19
-21 5 0 29 -17 49 -41 49 -20 0 -29 20 -29 66 0 33 1 34 21 21 30 -21 55 -10
67 29 11 36 0 56 -21 35 -14 -14 -47 -15 -47 -1 0 6 -1 13 -2 17 -4 11 52 22
90 18 19 -2 41 -14 52 -27z m-566 -146 c8 -34 30 -69 79 -121 35 -38 48 -71
28 -71 -15 0 -89 86 -110 129 -22 42 -28 91 -12 91 5 0 12 -12 15 -28z m213
-4 c-3 -7 -5 -2 -5 12 0 14 2 19 5 13 2 -7 2 -19 0 -25z m180 0 c-3 -7 -5 -2
-5 12 0 14 2 19 5 13 2 -7 2 -19 0 -25z m208 -67 c-15 -27 -45 -66 -66 -87
-38 -37 -39 -38 -39 -13 0 15 12 37 31 55 17 16 45 56 62 89 29 55 32 58 35
33 2 -17 -8 -48 -23 -77z m-340 79 c3 -5 2 -17 -3 -27 -9 -15 -11 -14 -20 4
-15 27 7 49 23 23z m106 -3 c-1 -4 -1 -14 -1 -22 0 -8 -4 -15 -9 -15 -12 0
-23 29 -15 41 6 11 26 8 25 -4z m-168 -110 c9 -35 0 -68 -10 -39 -3 6 -11 12
-19 12 -9 0 -14 12 -14 36 0 50 31 43 43 -9z m104 -4 c-3 -10 -5 -2 -5 17 0
19 2 27 5 18 2 -10 2 -26 0 -35z m138 13 c1 -17 -7 -32 -22 -41 -22 -15 -23
-14 -23 10 0 34 18 67 33 62 7 -2 12 -16 12 -31z m-208 -48 c-3 -8 -6 -5 -6 6
-1 11 2 17 5 13 3 -3 4 -12 1 -19z m250 -50 c-3 -7 -5 -2 -5 12 0 14 2 19 5
13 2 -7 2 -19 0 -25z m-330 -20 c-3 -7 -5 -2 -5 12 0 14 2 19 5 13 2 -7 2 -19
0 -25z m300 10 c-3 -8 -6 -5 -6 6 -1 11 2 17 5 13 3 -3 4 -12 1 -19z m-239
-22 c3 -12 -1 -17 -10 -14 -7 3 -15 13 -16 22 -3 12 1 17 10 14 7 -3 15 -13
16 -22z m195 18 c8 -8 -3 -34 -14 -34 -5 0 -9 9 -9 20 0 19 11 26 23 14z
m-303 -76 c0 -10 -4 -16 -10 -13 -5 3 -12 -6 -16 -21 -7 -26 -8 -26 -21 -9
-13 19 -8 55 10 67 17 10 37 -3 37 -24z m438 -34 l-4 -49 -17 38 c-9 20 -24
37 -32 37 -25 0 -17 18 13 28 37 13 44 3 40 -54z m-298 36 c0 -5 -4 -10 -10
-10 -5 0 -10 5 -10 10 0 6 5 10 10 10 6 0 10 -4 10 -10z m-77 -65 c4 -31 3
-41 -2 -25 -14 46 -22 95 -12 85 5 -6 11 -32 14 -60z m272 15 c-4 -23 -9 -39
-11 -37 -3 2 -2 23 2 46 4 23 9 40 11 37 3 -3 2 -23 -2 -46z m65 -83 c0 -23
-18 9 -24 43 l-7 35 16 -34 c8 -18 15 -38 15 -44z m-105 21 c-10 -45 -19 -52
-39 -29 -20 22 -13 46 10 37 8 -3 17 1 20 9 11 27 16 16 9 -17z m-170 9 c13
17 14 17 21 0 4 -13 0 -26 -14 -40 l-21 -21 -11 28 c-13 35 -13 56 1 33 10
-18 11 -18 24 0z m192 -39 c-3 -7 -5 -2 -5 12 0 14 2 19 5 13 2 -7 2 -19 0
-25z m-240 -10 c-3 -8 -6 -5 -6 6 -1 11 2 17 5 13 3 -3 4 -12 1 -19z m123
-236 c0 -15 -2 -15 -10 -2 -13 20 -13 33 0 25 6 -3 10 -14 10 -23z m-79 -75
c-8 -8 -11 -3 -11 19 1 25 2 27 11 11 8 -14 8 -22 0 -30z m159 12 c0 -11 -4
-17 -10 -14 -5 3 -10 13 -10 21 0 8 5 14 10 14 6 0 10 -9 10 -21z m-99 -9 c9
33 9 -401 -1 -465 -4 -27 -8 -39 -9 -26 0 13 -17 103 -37 200 -20 97 -38 184
-40 195 -4 23 10 52 45 89 l26 29 4 -24 4 -23 8 25z m186 -312 c-3 -7 -5 -2
-5 12 0 14 2 19 5 13 2 -7 2 -19 0 -25z"/>
<path d="M1214 2060 c0 -91 2 -128 3 -82 2 45 2 119 0 165 -1 45 -3 8 -3 -83z"/>
<path d="M1187 1988 c-6 -65 -5 -103 2 -116 14 -26 15 -156 1 -147 -6 4 -10
-8 -10 -29 0 -19 5 -38 10 -41 6 -4 10 6 10 22 0 22 2 25 10 13 7 -10 9 18 7
87 -1 57 -5 103 -9 103 -4 0 -9 46 -10 103 l-3 102 -8 -97z"/>
<path d="M1202 800 c0 -14 2 -19 5 -12 2 6 2 18 0 25 -3 6 -5 1 -5 -13z"/>
<path d="M1203 715 c0 -33 2 -45 4 -27 2 18 2 45 0 60 -2 15 -4 0 -4 -33z"/>
<path d="M1213 530 c0 -30 2 -43 4 -27 2 15 2 39 0 55 -2 15 -4 2 -4 -28z"/>
<path d="M891 2824 c0 -11 3 -14 6 -6 3 7 2 16 -1 19 -3 4 -6 -2 -5 -13z"/>
<path d="M1313 2700 c0 -25 2 -35 4 -22 2 12 2 32 0 45 -2 12 -4 2 -4 -23z"/>
<path d="M1123 2590 c0 -30 2 -43 4 -27 2 15 2 39 0 55 -2 15 -4 2 -4 -28z"/>
<path d="M1303 2480 c0 -36 2 -50 4 -32 2 17 2 47 0 65 -2 17 -4 3 -4 -33z"/>
<path d="M1112 2250 c0 -19 2 -27 5 -17 2 9 2 25 0 35 -3 9 -5 1 -5 -18z"/>
<path d="M1073 820 c0 -25 2 -35 4 -22 2 12 2 32 0 45 -2 12 -4 2 -4 -23z"/>
<path d="M1063 705 c0 -27 2 -38 4 -22 2 15 2 37 0 50 -2 12 -4 0 -4 -28z"/>
</g>
</svg>
