<?xml version="1.0" standalone="no"?>
<!DOCTYPE svg PUBLIC "-//W3C//DTD SVG 20010904//EN"
 "http://www.w3.org/TR/2001/REC-SVG-20010904/DTD/svg10.dtd">
<svg version="1.0" xmlns="http://www.w3.org/2000/svg"
 width="244.000000pt" height="305.000000pt" viewBox="0 0 244.000000 305.000000"
 preserveAspectRatio="xMidYMid meet">
<metadata>
Created by potrace 1.16, written by Peter Selinger 2001-2019
</metadata>
<g transform="translate(0.000000,305.000000) scale(0.100000,-0.100000)"
fill="#000000" stroke="none">
<path d="M908 2905 c-3 -6 -9 -28 -12 -50 -4 -29 -3 -33 3 -15 10 29 18 -406
13 -727 l-3 -213 -40 27 -39 26 0 136 c0 184 15 393 40 557 12 74 20 143 18
152 -5 23 -46 -231 -58 -353 -5 -55 -12 -195 -16 -311 l-7 -210 31 -13 c17 -7
38 -21 48 -32 23 -25 26 -24 78 14 l44 32 4 90 c4 127 -9 351 -33 546 -20 172
-60 362 -71 344z"/>
<path d="M1546 2883 c-4 -12 -2 -31 3 -42 15 -27 15 -941 0 -941 -5 0 -26 12
-45 28 l-34 27 0 150 c0 172 13 332 41 523 24 165 23 198 -2 72 -24 -127 -46
-363 -55 -592 l-7 -187 29 -11 c16 -6 41 -22 55 -36 l26 -24 19 21 c10 11 31
27 46 35 l28 15 0 152 c0 271 -32 583 -79 762 -14 56 -19 65 -25 48z"/>
<path d="M1331 2860 c-1 -14 -2 -234 -3 -490 0 -278 -3 -447 -8 -420 -5 25
-10 133 -11 240 -1 107 -5 175 -8 150 -6 -43 -7 -40 -18 45 -7 50 -21 119 -32
155 l-18 65 -13 -45 c-7 -25 -20 -88 -30 -140 l-17 -95 -6 80 c-4 44 -9 158
-13 253 -3 95 -9 174 -13 176 -3 2 -5 -206 -4 -462 1 -274 -2 -459 -7 -447 -5
11 -9 36 -9 56 -1 20 -6 51 -12 70 -6 19 -13 41 -16 49 -9 30 -22 -15 -33
-115 -11 -93 -11 -98 9 -112 12 -8 21 -23 21 -35 0 -20 -1 -19 -26 6 -45 44
-106 27 -134 -39 l-17 -40 -16 32 c-21 39 -63 73 -92 73 -36 0 -75 -37 -75
-71 0 -27 3 -29 39 -29 28 0 49 -8 70 -25 41 -36 48 -61 22 -89 -20 -21 -21
-28 -11 -70 13 -59 44 -121 82 -164 31 -37 31 -37 -19 -92 -12 -14 -25 -39
-29 -56 -5 -26 -1 -35 26 -57 17 -15 40 -27 51 -27 23 0 25 -23 4 -40 -35 -29
-122 74 -112 132 3 18 1 62 -6 98 l-12 65 -37 3 c-33 3 -39 0 -53 -29 -24 -45
-13 -89 50 -195 71 -119 89 -166 82 -210 -3 -20 -43 -102 -89 -182 -45 -81
-93 -167 -106 -192 -46 -88 -84 -151 -88 -147 -2 2 27 102 64 222 l67 218 43
15 c46 15 56 28 66 84 10 57 -9 110 -66 185 -82 107 -96 168 -53 231 43 63 26
92 -54 92 -69 0 -89 -48 -56 -140 19 -54 19 -113 0 -149 -8 -16 -38 -44 -67
-62 -143 -89 -312 -188 -316 -184 -4 4 206 210 252 246 21 17 34 19 66 14 l40
-7 -6 94 c-6 87 -22 153 -25 103 -2 -43 2 -131 8 -149 5 -17 1 -18 -27 -13
-24 5 -38 2 -58 -13 -43 -35 -353 -333 -349 -337 2 -2 109 33 238 77 128 44
235 80 236 80 2 0 3 11 3 25 0 21 5 25 28 25 38 0 117 -52 137 -90 23 -45 16
-72 -22 -82 -17 -5 -34 -16 -37 -26 -9 -34 -128 -428 -147 -491 -11 -35 -18
-65 -16 -68 4 -3 88 92 340 386 44 51 48 59 41 91 -13 68 -17 65 78 65 55 0
91 -4 99 -12 10 -10 6 -52 -16 -199 -17 -105 -32 -178 -36 -168 -3 11 -8 -14
-11 -56 -3 -41 -4 -76 -3 -78 2 -2 17 57 35 130 18 73 36 139 40 147 9 16 12
0 76 -319 25 -129 47 -236 49 -238 1 -2 10 39 20 90 9 51 35 181 58 288 40
193 44 232 32 342 -11 93 10 68 25 -30 7 -48 16 -103 20 -122 5 -19 11 -62 14
-95 l6 -60 -24 85 c-33 115 -32 84 0 -45 31 -124 50 -138 41 -32 -3 39 -11
138 -18 220 -6 81 -9 151 -5 155 11 10 137 5 148 -6 6 -6 3 -24 -6 -45 -17
-42 -23 -32 114 -191 47 -55 120 -140 163 -190 43 -50 82 -92 86 -94 8 -3 -47
197 -127 458 -27 88 -32 96 -66 113 -40 19 -42 24 -22 71 16 38 64 78 115 95
47 15 49 15 53 -16 3 -30 -17 -21 283 -124 93 -32 171 -56 173 -54 4 4 -270
273 -325 320 -25 20 -39 25 -61 20 l-28 -6 2 93 c3 80 2 87 -7 48 -5 -25 -16
-74 -24 -108 -8 -35 -12 -68 -9 -73 6 -11 67 -52 123 -85 79 -45 242 -157 237
-161 -3 -3 -40 8 -83 25 -43 17 -116 45 -163 63 -97 36 -109 44 -92 61 15 15
16 48 2 48 -5 0 -19 9 -30 20 -25 25 -27 104 -5 176 30 98 12 144 -56 144 -33
0 -79 -23 -79 -39 0 -5 12 -25 26 -47 34 -50 31 -124 -9 -181 -15 -21 -43 -60
-62 -87 -23 -34 -40 -74 -51 -123 l-16 -73 57 -113 c32 -61 89 -170 127 -240
39 -71 68 -130 66 -133 -5 -4 -103 110 -215 252 l-72 91 8 110 c9 122 22 159
97 280 69 110 73 189 9 213 -36 14 -51 -5 -64 -79 -7 -39 -10 -79 -6 -90 10
-31 -37 -105 -82 -130 -18 -9 -23 -8 -28 9 -7 22 2 43 15 35 4 -2 19 5 34 16
38 30 35 73 -9 128 -19 24 -32 48 -28 55 4 6 24 35 45 65 56 80 76 174 43 201
-22 18 -19 35 17 75 28 32 36 36 72 33 35 -3 41 0 44 18 2 11 -7 32 -18 47
-42 54 -127 28 -153 -46 l-10 -31 -18 42 c-13 29 -29 47 -52 58 -32 15 -37 15
-67 0 -40 -20 -40 -20 -40 -1 0 7 7 18 16 23 18 10 20 28 10 134 -8 77 -20
116 -30 88 -3 -8 -6 -24 -8 -35 -2 -11 -8 126 -12 305 -8 306 -20 545 -25 490z
m-102 -870 c0 -214 -3 -369 -8 -361 -6 9 -10 10 -12 2 -3 -7 -12 -9 -22 -6
-14 6 -17 20 -17 76 0 39 4 69 10 69 6 0 10 18 10 39 0 22 -4 43 -10 46 -20
12 -8 321 22 535 l13 95 6 -60 c4 -33 7 -229 8 -435z m-141 -226 c27 -8 31
-44 4 -44 -10 0 -23 5 -30 12 -21 21 -34 -4 -21 -39 12 -36 32 -47 59 -33 26
14 26 15 22 -34 -3 -37 -8 -45 -28 -50 -13 -4 -30 -18 -37 -32 l-14 -27 -26
34 c-14 19 -28 51 -32 71 -4 21 -13 42 -21 49 -22 18 -17 46 13 74 28 25 64
31 111 19z m406 -24 c29 -36 32 -52 12 -69 -8 -7 -18 -27 -21 -44 -4 -18 -18
-49 -32 -71 l-25 -38 -19 31 c-10 17 -27 31 -38 31 -15 0 -20 9 -22 44 -4 42
-3 43 18 33 31 -14 63 15 63 56 0 24 -3 28 -17 22 -46 -19 -53 -18 -53 6 0 22
5 24 54 27 49 3 56 0 80 -28z m-556 -164 c11 -24 36 -61 56 -83 20 -22 36 -51
36 -64 0 -22 -2 -21 -39 15 -44 43 -81 111 -81 150 0 36 6 33 28 -18z m622 22
c-1 -36 -34 -102 -75 -147 -69 -76 -77 -43 -10 43 24 32 50 73 57 92 14 39 28
45 28 12z m-366 3 c4 -5 3 -16 0 -25 -5 -13 -9 -14 -20 -5 -8 6 -14 18 -14 25
0 16 26 19 34 5z m110 0 c7 -11 -3 -41 -14 -41 -11 0 -21 30 -14 41 3 5 9 9
14 9 5 0 11 -4 14 -9z m-172 -115 c10 -46 7 -52 -21 -34 -27 17 -31 81 -4 76
11 -2 20 -18 25 -42z m105 -8 c-2 -13 -4 -5 -4 17 -1 22 1 32 4 23 2 -10 2
-28 0 -40z m143 19 c0 -21 -7 -36 -20 -45 -22 -13 -24 -9 -20 38 3 32 8 40 26
40 9 0 14 -11 14 -33z m-207 -57 c3 -11 1 -18 -4 -14 -5 3 -9 12 -9 20 0 20 7
17 13 -6z m-126 -42 c-3 -7 -5 -2 -5 12 0 14 2 19 5 13 2 -7 2 -19 0 -25z
m350 -10 c-3 -7 -5 -2 -5 12 0 14 2 19 5 13 2 -7 2 -19 0 -25z m-307 6 c0 -8
-5 -12 -10 -9 -6 4 -8 11 -5 16 9 14 15 11 15 -7z m55 -22 c0 -18 -20 -15 -23
4 -3 10 1 15 10 12 7 -3 13 -10 13 -16z m205 4 c0 -8 -4 -17 -9 -21 -12 -7
-24 12 -16 25 9 15 25 12 25 -4z m-301 -117 c-8 -52 -32 -99 -49 -99 -6 0 -10
6 -10 13 0 24 28 91 39 95 17 6 13 32 -4 32 -8 0 -15 -9 -15 -20 0 -11 -4 -20
-9 -20 -13 0 -19 33 -10 58 8 22 10 22 37 8 28 -15 29 -17 21 -67z m127 44
c-10 -10 -19 5 -10 18 6 11 8 11 12 0 2 -7 1 -15 -2 -18z m134 6 c0 -5 -4 -9
-10 -9 -5 0 -10 7 -10 16 0 8 5 12 10 9 6 -3 10 -10 10 -16z m170 -16 c-1 -36
-1 -37 -13 -15 -7 12 -16 19 -20 16 -4 -4 -7 2 -7 14 0 15 6 22 20 22 17 0 20
-7 20 -37z m-32 -100 c7 -13 9 -23 4 -23 -14 0 -32 65 -31 111 2 44 2 44 8
-11 4 -30 12 -65 19 -77z m-67 55 c-8 -28 -9 -30 -10 -8 -1 34 12 80 17 58 2
-9 -1 -31 -7 -50z m-282 2 c0 -23 -1 -23 -9 -5 -5 11 -9 29 -9 40 -1 17 1 17
9 5 5 -8 9 -26 9 -40z m28 28 c-3 -8 -6 -5 -6 6 -1 11 2 17 5 13 3 -3 4 -12 1
-19z m37 -69 c22 18 30 -18 9 -41 -20 -22 -30 -14 -43 33 -8 31 -8 32 5 15 11
-15 17 -16 29 -7z m174 -19 c-6 -22 -14 -40 -18 -40 -17 0 -40 38 -34 55 7 17
8 17 20 1 12 -16 13 -16 24 3 16 32 19 25 8 -19z m-226 5 c3 -13 1 -22 -3 -19
-9 5 -13 44 -5 44 2 0 6 -11 8 -25z m255 -7 c-3 -8 -6 -5 -6 6 -1 11 2 17 5
13 3 -3 4 -12 1 -19z m-130 -270 c-3 -8 -6 -5 -6 6 -1 11 2 17 5 13 3 -3 4
-12 1 -19z m-77 -48 c0 -11 -4 -20 -10 -20 -5 0 -10 9 -10 20 0 11 5 20 10 20
6 0 10 -9 10 -20z m170 1 c0 -11 -4 -22 -9 -25 -11 -7 -20 14 -13 32 7 19 22
14 22 -7z m-108 -21 c8 39 7 -409 -1 -460 l-7 -45 -6 40 c-4 22 -23 116 -42
209 -20 93 -36 174 -36 181 0 6 17 31 37 55 37 42 38 43 44 19 l6 -24 5 25z
m195 -322 c-3 -8 -6 -5 -6 6 -1 11 2 17 5 13 3 -3 4 -12 1 -19z"/>
<path d="M1214 2080 c0 -102 2 -143 3 -92 2 50 2 134 0 185 -1 50 -3 9 -3 -93z"/>
<path d="M1186 2029 c-4 -26 -5 -73 -2 -105 16 -141 18 -206 7 -200 -7 5 -11
-5 -11 -28 0 -20 4 -36 10 -36 18 0 22 70 13 242 -7 139 -10 164 -17 127z"/>
<path d="M1201 804 c0 -11 3 -14 6 -6 3 7 2 16 -1 19 -3 4 -6 -2 -5 -13z"/>
<path d="M1203 690 c0 -30 2 -43 4 -27 2 15 2 39 0 55 -2 15 -4 2 -4 -28z"/>
<path d="M1213 530 c0 -36 2 -50 4 -32 2 17 2 47 0 65 -2 17 -4 3 -4 -33z"/>
<path d="M1531 2814 c0 -11 3 -14 6 -6 3 7 2 16 -1 19 -3 4 -6 -2 -5 -13z"/>
<path d="M1123 2640 c0 -30 2 -43 4 -27 2 15 2 39 0 55 -2 15 -4 2 -4 -28z"/>
<path d="M1312 2650 c0 -19 2 -27 5 -17 2 9 2 25 0 35 -3 9 -5 1 -5 -18z"/>
<path d="M1114 2270 c0 -74 1 -105 3 -67 2 37 2 97 0 135 -2 37 -3 6 -3 -68z"/>
<path d="M1072 870 c0 -19 2 -27 5 -17 2 9 2 25 0 35 -3 9 -5 1 -5 -18z"/>
<path d="M1063 760 c0 -25 2 -35 4 -22 2 12 2 32 0 45 -2 12 -4 2 -4 -23z"/>
<path d="M1052 650 c0 -19 2 -27 5 -17 2 9 2 25 0 35 -3 9 -5 1 -5 -18z"/>
<path d="M1421 468 c1 -7 5 -24 9 -38 7 -22 8 -21 9 13 1 20 -3 37 -9 37 -5 0
-10 -6 -9 -12z"/>
</g>
</svg>
