<?xml version="1.0" standalone="no"?>
<!DOCTYPE svg PUBLIC "-//W3C//DTD SVG 20010904//EN"
 "http://www.w3.org/TR/2001/REC-SVG-20010904/DTD/svg10.dtd">
<svg version="1.0" xmlns="http://www.w3.org/2000/svg"
 width="244.000000pt" height="305.000000pt" viewBox="0 0 244.000000 305.000000"
 preserveAspectRatio="xMidYMid meet">
<metadata>
Created by potrace 1.16, written by Peter Selinger 2001-2019
</metadata>
<g transform="translate(0.000000,305.000000) scale(0.100000,-0.100000)"
fill="#000000" stroke="none">
<path d="M1072 2885 c0 -16 2 -22 5 -12 2 9 2 23 0 30 -3 6 -5 -1 -5 -18z"/>
<path d="M1531 2853 c-50 -241 -68 -410 -78 -715 -4 -159 -3 -218 5 -218 6 0
27 -14 46 -31 40 -35 35 -35 98 10 l46 33 -5 182 c-5 206 -27 470 -48 566 -13
59 -14 61 -9 15 2 -27 11 -106 19 -175 9 -69 18 -223 22 -343 l6 -218 -34 -29
c-19 -16 -38 -29 -42 -30 -4 0 -7 225 -7 501 1 275 0 503 -3 505 -2 2 -10 -22
-16 -53z"/>
<path d="M912 2865 c-40 -151 -72 -436 -79 -701 l-6 -242 24 -12 c13 -7 37
-24 52 -39 25 -23 29 -24 38 -9 10 18 70 58 87 58 7 0 19 -14 27 -31 l16 -30
-34 6 c-27 5 -39 2 -65 -19 -17 -15 -34 -41 -37 -58 l-7 -32 -19 40 c-25 50
-44 64 -90 64 -43 0 -69 -27 -69 -72 0 -25 2 -26 35 -21 30 5 39 1 70 -30 38
-38 43 -58 20 -77 -19 -16 -19 -57 -1 -112 14 -44 28 -258 16 -258 -10 0 -30
63 -30 94 0 63 -48 88 -90 46 -29 -29 -25 -78 10 -145 51 -97 36 -118 -22 -30
-50 76 -57 132 -24 192 14 25 26 52 26 59 0 36 -97 47 -130 14 -25 -25 -25
-48 0 -128 11 -35 20 -78 20 -95 0 -35 -33 -97 -51 -97 -7 0 -9 -12 -5 -34 8
-40 1 -46 -74 -73 -30 -11 -99 -37 -153 -58 -54 -20 -100 -35 -102 -33 -2 2
77 57 177 123 174 116 180 120 175 150 -31 203 -31 201 -38 165 -4 -19 -5 -61
-2 -93 l6 -57 -31 6 c-28 6 -40 -4 -201 -162 -162 -159 -193 -195 -153 -179
21 9 381 135 405 142 9 3 18 12 18 19 3 27 4 32 11 40 9 8 110 -33 120 -49 4
-6 -11 -45 -32 -86 -40 -75 -44 -95 -15 -71 20 17 20 -5 0 -68 -31 -99 -134
-476 -131 -479 2 -2 30 29 62 68 32 39 106 128 164 198 163 195 152 178 134
213 -18 35 -12 58 16 58 11 0 20 -3 20 -6 0 -3 -16 -110 -35 -238 -46 -311
-46 -306 -41 -306 2 0 23 46 46 103 23 56 64 153 91 215 39 89 49 124 49 167
0 45 3 55 17 55 19 0 73 -48 73 -64 0 -5 -14 -24 -31 -42 l-31 -32 26 -133
c59 -310 97 -505 100 -514 1 -5 12 40 24 100 11 61 32 171 47 245 14 74 33
173 41 219 l15 84 -31 32 c-16 17 -30 36 -30 42 0 16 58 63 77 63 13 0 15 -9
11 -45 -5 -40 5 -68 88 -262 51 -120 93 -215 94 -212 0 3 -16 113 -35 245 -42
291 -42 284 -10 284 28 0 30 -7 14 -60 -11 -38 -11 -38 56 -121 97 -122 308
-369 311 -366 3 3 -18 79 -92 327 -32 107 -58 211 -59 230 0 19 -11 54 -23 78
-13 24 -20 51 -17 62 4 14 100 70 120 70 3 0 11 -14 18 -31 12 -29 25 -35 236
-110 123 -44 226 -77 228 -75 2 2 -79 83 -179 180 -172 167 -184 177 -213 172
l-31 -6 3 92 c3 111 -11 83 -20 -40 l-6 -83 43 6 42 7 145 -142 c79 -77 133
-136 119 -129 -35 16 -298 178 -337 207 -50 37 -61 86 -40 175 21 89 21 121 1
141 -21 21 -86 20 -113 -1 l-21 -18 25 -47 c28 -53 32 -103 11 -153 -20 -46
-83 -128 -90 -117 -3 6 10 40 29 77 41 77 47 141 17 168 -34 31 -82 18 -83
-22 -1 -44 -24 -106 -39 -106 -20 0 -14 163 8 207 23 48 28 130 8 147 -23 19
-20 36 15 76 27 30 37 35 75 35 39 0 44 3 44 23 0 32 -25 64 -56 71 -42 11
-82 -12 -106 -58 l-21 -40 -19 40 c-22 47 -55 66 -99 57 -29 -6 -31 -5 -20 15
6 11 16 24 21 27 13 8 13 286 0 535 -10 208 -31 453 -37 446 -2 -2 -4 -178 -3
-390 0 -243 -3 -386 -9 -386 -5 0 -13 -21 -18 -47 l-8 -48 -6 45 c-4 34 -7 21
-8 -55 -5 -165 -17 -163 -24 5 -3 85 -13 213 -22 284 -18 152 -54 316 -65 295
-24 -47 -59 -299 -80 -572 -5 -66 -11 -121 -14 -125 -3 -3 -6 28 -7 69 0 41
-2 108 -4 149 -2 41 -6 167 -9 280 -4 113 -8 214 -10 225 -2 11 -7 70 -12 130
-7 91 -10 37 -16 -320 -3 -236 -10 -445 -15 -464 -16 -63 -31 -13 -36 119 -12
286 -42 576 -72 690 -8 30 -12 39 -9 20 43 -299 64 -549 64 -755 l0 -82 -38
-27 c-21 -14 -41 -26 -45 -26 -4 0 -7 214 -7 476 0 314 3 473 10 469 12 -7 12
12 1 40 -7 17 -10 14 -19 -20z m373 -765 c3 -151 1 -202 -5 -155 -12 101 -19
458 -8 415 5 -19 10 -136 13 -260z m-185 -251 c0 -5 -4 -9 -10 -9 -5 0 -10 7
-10 16 0 8 5 12 10 9 6 -3 10 -10 10 -16z m290 -5 c0 -8 -4 -12 -10 -9 -5 3
-10 10 -10 16 0 5 5 9 10 9 6 0 10 -7 10 -16z m-93 -81 c-2 -16 -4 -3 -4 27 0
30 2 43 4 28 2 -16 2 -40 0 -55z m-261 -14 c9 -15 12 -219 4 -219 -10 0 -50
86 -50 107 0 11 -7 26 -15 33 -20 17 -19 32 6 64 22 28 43 33 55 15z m84 -10
c-7 -11 -14 -18 -17 -15 -8 8 5 36 17 36 7 0 7 -6 0 -21z m370 1 c24 -24 26
-53 5 -70 -8 -7 -15 -24 -15 -38 0 -24 -44 -112 -56 -112 -8 0 2 215 10 228
11 18 34 14 56 -8z m-125 0 c3 -5 1 -10 -4 -10 -6 0 -11 5 -11 10 0 6 2 10 4
10 3 0 8 -4 11 -10z m-66 -97 c1 -7 -3 -13 -9 -13 -5 0 -10 15 -9 33 0 27 2
29 9 12 5 -11 9 -26 9 -32z m61 -13 c0 -23 -6 -33 -25 -40 -14 -5 -29 -9 -33
-9 -24 4 -33 -7 -49 -57 l-17 -56 -18 53 c-18 52 -34 73 -51 62 -4 -3 -19 -2
-33 1 -19 5 -24 13 -24 40 0 33 20 62 33 49 4 -3 7 -17 7 -30 0 -16 8 -27 25
-33 15 -6 32 -25 41 -45 8 -19 17 -35 20 -35 3 0 12 16 20 35 8 20 25 40 39
45 15 6 25 17 25 29 0 11 3 26 6 35 10 25 34 -6 34 -44z m-413 -47 c6 -21 9
-40 6 -43 -8 -9 -33 33 -33 57 0 35 14 28 27 -14z m136 17 c3 -11 1 -20 -4
-20 -5 0 -9 9 -9 20 0 11 2 20 4 20 2 0 6 -9 9 -20z m466 -23 c-5 -17 -9 -33
-9 -34 0 -2 -7 -3 -15 -3 -18 0 -18 -1 0 44 19 45 37 39 24 -7z m-158 6 c-8
-15 -10 -15 -11 -2 0 17 10 32 18 25 2 -3 -1 -13 -7 -23z m-26 -109 c-24 -38
-28 -23 -8 27 15 37 18 40 21 21 2 -13 -4 -35 -13 -48z m-250 20 c19 -45 19
-50 1 -35 -18 15 -38 71 -26 71 6 0 17 -16 25 -36z m-85 -36 c0 -9 -33 -11
-42 -2 -3 3 -3 14 -1 25 5 19 7 19 24 3 11 -9 19 -21 19 -26z m450 2 c0 -22
-1 -23 -24 -14 -18 7 -10 34 10 34 8 0 14 -9 14 -20z m-555 -128 c-12 -32 -25
10 -24 78 l1 65 15 -63 c8 -34 12 -70 8 -80z m165 61 c0 -16 -5 -16 -31 -3
-11 7 -19 21 -19 37 l0 26 25 -23 c14 -13 25 -29 25 -37z m461 -34 l-9 -34 -1
40 c0 22 3 51 7 65 7 24 7 24 10 -6 2 -18 -1 -47 -7 -65z m-121 62 c0 -21 -46
-56 -54 -42 -7 10 31 61 45 61 5 0 9 -8 9 -19z m-250 -47 c0 -8 -4 -12 -10 -9
-5 3 -10 13 -10 21 0 8 5 12 10 9 6 -3 10 -13 10 -21z m121 -7 c-8 -8 -11 -7
-11 4 0 9 3 19 7 23 4 4 9 2 11 -4 3 -7 -1 -17 -7 -23z m-238 -82 c-7 -44 14
-97 36 -93 13 3 15 15 13 56 l-3 52 33 -1 c25 -1 27 -3 10 -6 -19 -4 -23 -10
-20 -36 2 -24 9 -33 28 -37 18 -4 25 -13 25 -30 0 -20 -5 -23 -35 -23 -65 0
-86 10 -97 48 -12 37 -6 118 8 110 4 -3 5 -21 2 -40z m355 -26 c-4 -50 -9 -66
-28 -81 -13 -11 -30 -16 -39 -12 -18 7 -30 8 -51 3 -10 -3 -15 4 -15 21 0 17
6 26 20 28 11 2 24 8 29 12 13 13 -2 60 -19 60 -8 0 -15 5 -15 11 0 6 7 8 16
5 9 -3 22 -6 31 -6 12 0 13 -10 8 -55 -4 -30 -3 -55 1 -55 32 1 57 50 48 95
-4 25 -3 35 6 35 9 0 11 -17 8 -61z m47 -24 c-9 -31 -19 -54 -22 -52 -2 3 3
30 12 62 9 31 19 54 22 52 2 -3 -3 -30 -12 -62z m-555 -16 c0 -5 -6 -9 -14 -9
-15 0 -26 21 -26 48 1 14 5 12 20 -7 11 -13 20 -27 20 -32z m119 -42 c1 -5 -3
-5 -9 -2 -5 3 -10 16 -9 28 0 21 1 21 9 2 5 -11 9 -24 9 -28z m544 28 c4 -8 2
-17 -3 -20 -6 -4 -10 3 -10 14 0 25 6 27 13 6z m-723 -58 c0 -5 -7 -4 -15 3
-8 7 -15 20 -15 29 1 13 3 13 15 -3 8 -11 15 -24 15 -29z m780 -31 c0 -27 -15
-42 -25 -26 -8 13 3 50 16 50 5 0 9 -11 9 -24z m-870 -86 c-29 -40 -36 -33
-14 14 11 22 21 33 27 27 6 -6 1 -21 -13 -41z m134 -2 c4 -24 5 -59 4 -78 -2
-19 1 -51 4 -70 7 -33 2 -42 -113 -185 -66 -82 -129 -159 -141 -170 -11 -11
34 87 102 219 109 214 122 242 116 276 -6 36 -1 50 15 50 4 0 10 -19 13 -42z
m713 34 c7 -4 16 -26 20 -47 7 -35 15 -43 58 -65 40 -21 51 -33 61 -65 31
-100 114 -384 114 -392 0 -16 -103 167 -226 405 -62 119 -74 194 -27 164z
m107 -38 c4 -12 2 -12 -14 -4 -11 6 -20 15 -20 20 0 14 28 1 34 -16z m-914
-23 c0 -5 -7 -12 -16 -15 -24 -9 -28 -7 -14 9 14 17 30 20 30 6z m920 -22 c0
-6 -7 -6 -20 1 -11 6 -20 15 -20 21 0 6 7 6 20 -1 11 -6 20 -15 20 -21z m-474
-24 c17 23 18 16 3 -22 -10 -27 -11 -27 -25 -9 -8 11 -14 27 -14 35 1 13 3 12
12 -3 11 -19 11 -19 24 -1z m-206 -19 c0 -8 -110 -411 -115 -421 -6 -13 0 37
30 243 13 89 27 167 30 172 6 10 55 15 55 6z m404 -48 c8 -29 26 -100 41 -158
15 -58 33 -127 41 -154 8 -27 12 -51 10 -53 -3 -3 -66 141 -66 153 0 3 -16 42
-35 85 -34 79 -41 112 -29 157 10 36 22 26 38 -30z m-124 -78 c18 -25 18 -31
6 -91 -8 -35 -22 -109 -31 -164 -10 -55 -20 -95 -22 -88 -3 7 3 82 11 168 14
139 14 160 1 185 -8 16 -15 32 -15 36 0 10 29 -16 50 -46z"/>
<path d="M1562 2830 c0 -14 2 -19 5 -12 2 6 2 18 0 25 -3 6 -5 1 -5 -13z"/>
<path d="M1062 2815 c0 -16 2 -22 5 -12 2 9 2 23 0 30 -3 6 -5 -1 -5 -18z"/>
<path d="M1572 2780 c0 -14 2 -19 5 -12 2 6 2 18 0 25 -3 6 -5 1 -5 -13z"/>
<path d="M1372 2730 c0 -19 2 -27 5 -17 2 9 2 25 0 35 -3 9 -5 1 -5 -18z"/>
<path d="M1053 2695 c0 -22 2 -30 4 -17 2 12 2 30 0 40 -3 9 -5 -1 -4 -23z"/>
<path d="M1363 2605 c0 -33 2 -45 4 -27 2 18 2 45 0 60 -2 15 -4 0 -4 -33z"/>
<path d="M1043 2580 c0 -25 2 -35 4 -22 2 12 2 32 0 45 -2 12 -4 2 -4 -23z"/>
<path d="M1354 2415 c0 -55 1 -76 3 -47 2 29 2 74 0 100 -2 26 -3 2 -3 -53z"/>
<path d="M1034 2350 c0 -63 1 -89 3 -57 2 31 2 83 0 115 -2 31 -3 5 -3 -58z"/>
</g>
</svg>
