<?xml version="1.0" standalone="no"?>
<!DOCTYPE svg PUBLIC "-//W3C//DTD SVG 20010904//EN"
 "http://www.w3.org/TR/2001/REC-SVG-20010904/DTD/svg10.dtd">
<svg version="1.0" xmlns="http://www.w3.org/2000/svg"
 width="244.000000pt" height="305.000000pt" viewBox="0 0 244.000000 305.000000"
 preserveAspectRatio="xMidYMid meet">
<metadata>
Created by potrace 1.16, written by Peter Selinger 2001-2019
</metadata>
<g transform="translate(0.000000,305.000000) scale(0.100000,-0.100000)"
fill="#000000" stroke="none">
<path d="M886 2892 c-4 -12 -4 -32 -1 -43 11 -33 13 -939 3 -946 -5 -3 -19 4
-31 14 -12 11 -30 23 -39 26 -16 6 -18 21 -18 114 0 146 16 357 41 537 11 81
18 150 16 153 -5 5 -33 -151 -47 -267 -6 -47 -14 -191 -17 -320 l-5 -235 55
-36 56 -36 21 22 c12 13 36 29 53 36 l30 13 -6 205 c-10 321 -40 564 -91 741
-11 39 -14 42 -20 22z"/>
<path d="M1568 2882 c-2 -18 -1 -32 4 -32 4 0 8 -214 8 -475 0 -504 0 -505
-45 -455 -10 11 -24 20 -31 20 -8 0 -17 12 -20 26 -12 47 15 474 41 653 14 95
24 175 22 177 -6 6 -45 -228 -57 -336 -5 -52 -13 -194 -17 -316 l-6 -220 30
-13 c17 -7 41 -23 53 -36 l23 -24 30 25 c17 14 42 30 56 35 l24 10 -6 217 c-4
119 -14 278 -23 352 -15 137 -55 355 -72 400 -9 24 -9 24 -14 -8z"/>
<path d="M1192 2630 c-1 -102 -6 -212 -12 -245 -14 -92 -29 -288 -31 -406 -1
-114 -13 -161 -23 -93 -17 109 -38 210 -45 217 -11 11 -31 -73 -37 -153 -5
-65 -5 -65 28 -85 24 -15 34 -29 38 -55 11 -75 -10 -104 -56 -80 -32 18 -38 9
-24 -34 17 -51 67 -60 91 -15 17 32 28 21 26 -23 -2 -38 1 -43 21 -46 17 -3
22 -10 22 -33 0 -29 0 -29 -26 -13 -29 19 -79 21 -100 3 -22 -18 -17 -26 30
-39 55 -15 68 -42 64 -127 l-3 -61 -65 26 c-104 42 -206 161 -198 230 3 25 6
22 35 -30 48 -84 154 -178 201 -178 36 0 26 27 -25 64 -75 54 -133 131 -133
177 0 18 -7 32 -20 39 -28 15 -25 37 10 72 27 26 36 29 78 26 42 -3 47 -1 44
17 -6 39 -25 65 -58 75 -47 16 -83 -4 -111 -58 -18 -37 -22 -40 -28 -22 -3 11
-18 34 -32 50 -21 26 -32 30 -73 30 -55 0 -80 -23 -80 -72 0 -25 3 -28 25 -22
36 9 68 -2 98 -32 30 -29 35 -69 12 -78 -9 -3 -15 -18 -15 -38 1 -60 21 -99
108 -218 11 -15 8 -24 -28 -64 -22 -26 -40 -57 -40 -70 0 -31 40 -66 83 -73
29 -4 36 -2 42 15 3 12 1 30 -4 41 -13 23 -14 61 -3 79 7 9 24 7 81 -10 82
-24 96 -19 111 43 l8 34 1 -35 c1 -41 -5 -53 -36 -69 -24 -12 -32 -54 -13 -66
15 -9 12 -37 -9 -76 -13 -23 -16 -41 -10 -50 15 -23 10 -34 -7 -17 -9 9 -16
32 -16 52 0 32 -3 36 -26 37 -45 2 -66 -2 -90 -18 -34 -21 -65 -9 -106 41 -31
37 -36 50 -35 92 1 27 -2 74 -7 104 -8 47 -12 55 -33 58 -40 6 -68 -7 -81 -37
-18 -44 -6 -77 72 -208 93 -155 95 -171 30 -283 -153 -267 -247 -421 -250
-412 -3 9 74 256 118 377 16 46 22 51 63 64 52 16 67 42 67 118 0 53 -18 91
-76 159 -77 90 -92 158 -49 222 44 64 26 92 -58 92 -49 0 -77 -21 -77 -60 0
-13 10 -54 22 -92 20 -64 21 -72 8 -111 -12 -35 -27 -50 -85 -89 -38 -26 -73
-47 -76 -47 -3 -1 -61 -32 -130 -70 -68 -38 -125 -68 -127 -66 -4 3 64 68 196
185 l92 82 46 -7 45 -6 -7 98 c-9 133 -26 157 -22 31 l4 -96 -36 1 c-34 2 -50
-10 -224 -167 -103 -92 -185 -170 -182 -173 2 -3 85 20 183 52 328 104 303 94
303 121 0 35 21 39 77 14 59 -26 91 -55 110 -98 17 -40 13 -47 -32 -62 -34
-11 -34 -12 -94 -198 -32 -103 -72 -227 -87 -277 -14 -49 -29 -97 -31 -105 -3
-8 8 -1 23 15 15 17 73 80 129 140 56 61 137 148 179 195 82 90 82 92 60 168
-6 22 -5 22 88 22 82 0 100 -3 129 -23 46 -31 59 -60 60 -142 0 -38 4 -79 8
-89 4 -11 6 19 3 66 -4 69 -1 90 13 112 10 14 20 26 24 26 3 0 7 -134 8 -298
1 -255 -1 -291 -11 -251 -13 46 -31 155 -42 264 -5 42 -9 53 -13 36 -5 -17
-11 -1 -24 60 -17 81 -17 83 3 104 34 36 23 53 -12 18 l-32 -32 12 -58 c40
-200 122 -587 126 -590 1 -2 15 55 29 125 15 70 29 137 32 148 2 10 20 99 40
197 l36 178 -31 35 c-16 19 -30 38 -30 43 0 13 43 49 73 60 35 14 184 14 192
1 3 -5 -1 -25 -9 -44 -19 -45 -51 -4 357 -451 20 -22 37 -34 37 -27 0 16 -159
520 -171 544 -5 9 -25 22 -44 28 -41 14 -44 30 -14 80 25 40 43 56 84 74 67
30 75 30 86 -3 10 -29 19 -33 202 -92 106 -33 211 -67 235 -75 90 -30 94 -34
-163 195 -149 133 -162 142 -192 136 l-32 -6 6 91 c4 64 3 90 -6 90 -6 0 -11
-17 -11 -42 0 -24 -5 -61 -11 -83 -6 -22 -13 -53 -15 -70 -5 -33 -26 -18 319
-229 43 -27 77 -50 75 -52 -2 -2 -80 24 -174 57 -93 34 -177 63 -186 66 -21 6
-22 16 -8 44 9 16 5 25 -25 53 -30 29 -35 40 -35 79 0 25 9 74 20 109 25 79
25 93 0 118 -25 25 -95 27 -128 5 l-21 -16 29 -57 c27 -51 29 -62 22 -104 -5
-25 -18 -57 -28 -71 -10 -13 -38 -49 -62 -80 -44 -57 -72 -132 -72 -196 0 -34
30 -93 188 -364 40 -71 72 -130 70 -133 -5 -4 -59 55 -217 236 -84 96 -90 107
-84 135 5 17 7 50 6 75 -4 84 15 141 87 261 59 97 70 122 70 161 0 31 -6 50
-18 61 -22 20 -65 22 -79 5 -13 -16 -25 -86 -27 -154 -1 -59 -36 -113 -84
-133 -25 -10 -35 -10 -60 3 -17 9 -49 16 -72 16 -40 0 -40 0 -40 -38 0 -37
-14 -62 -34 -62 -5 0 -2 8 7 18 23 25 22 34 -13 64 -17 15 -30 36 -30 49 0 12
3 19 7 16 11 -12 33 14 33 39 0 17 -9 28 -26 36 -26 12 -26 13 -19 98 7 98 25
131 74 141 42 9 48 16 29 36 -21 20 -72 19 -104 -2 -23 -15 -24 -15 -24 9 0
14 10 30 25 40 21 14 24 22 19 51 -3 22 -1 35 5 35 6 0 11 -4 11 -10 0 -17 48
-42 68 -36 22 7 46 72 30 82 -5 3 -15 1 -21 -5 -32 -32 -67 1 -67 63 0 36 8
47 59 85 25 18 25 18 12 101 -12 82 -28 137 -36 129 -2 -3 -13 -58 -25 -124
-20 -113 -40 -171 -40 -115 0 105 -22 455 -31 494 -7 27 -15 106 -19 175 -5
91 -8 108 -9 61 -3 -62 -3 -64 -13 -30 l-11 35 -13 -30 c-13 -30 -13 -30 -15
-5 -1 14 -5 75 -9 135 -6 106 -7 103 -8 -75z m33 -102 c10 -29 10 -668 0 -669
-5 -1 -13 -1 -17 0 -5 0 -9 -9 -9 -21 -1 -19 -3 -17 -9 7 -5 17 -6 -26 -2 -94
4 -104 3 -123 -9 -119 -12 4 -14 46 -11 244 1 131 6 280 11 329 7 81 8 68 10
-120 2 -115 5 -204 8 -197 2 6 9 10 14 6 5 -3 9 16 8 43 -1 39 -3 43 -9 23
-12 -38 -12 425 1 499 8 51 7 66 -3 72 -10 7 -10 9 0 9 7 0 15 -6 17 -12z
m-14 -813 c-6 -35 -9 -41 -10 -20 -1 30 9 78 15 73 2 -2 -1 -26 -5 -53z m22
-60 c-2 -60 -2 -60 -14 -48 -7 7 -8 26 -4 53 8 48 19 46 18 -5z m24 -137 c-3
-7 -5 -2 -5 12 0 14 2 19 5 13 2 -7 2 -19 0 -25z m-27 2 c1 8 6 2 12 -13 11
-30 4 -47 -11 -31 -5 5 -12 23 -15 39 -5 24 -4 26 3 10 7 -14 10 -16 11 -5z
m-73 -357 c-3 -10 -5 -4 -5 12 0 17 2 24 5 18 2 -7 2 -21 0 -30z m22 -130 l-1
-48 -12 40 c-13 41 -12 55 5 55 5 0 9 -21 8 -47z m124 0 c-8 -65 -13 -67 -13
-5 0 29 4 52 10 52 6 0 7 -19 3 -47z m-83 -109 c0 -8 -4 -12 -10 -9 -5 3 -10
10 -10 16 0 5 5 9 10 9 6 0 10 -7 10 -16z m17 -6 c-3 -8 -6 -5 -6 6 -1 11 2
17 5 13 3 -3 4 -12 1 -19z"/>
<path d="M862 2780 c0 -14 2 -19 5 -12 2 6 2 18 0 25 -3 6 -5 1 -5 -13z"/>
<path d="M1272 2720 c0 -19 2 -27 5 -17 2 9 2 25 0 35 -3 9 -5 1 -5 -18z"/>
<path d="M1433 1855 c-23 -10 -35 -23 -41 -47 -5 -18 -7 -36 -5 -40 2 -4 23
-5 46 -2 34 5 47 2 70 -16 30 -24 38 -74 12 -84 -8 -3 -15 -18 -15 -33 0 -50
-72 -145 -136 -179 -31 -17 -55 -57 -42 -70 3 -2 22 3 43 12 57 23 159 126
184 185 12 27 24 49 28 49 3 0 3 -19 0 -41 -11 -86 -108 -189 -216 -230 -25
-9 -47 -24 -49 -33 -6 -27 44 -30 106 -8 41 16 59 18 69 10 15 -12 18 -74 3
-83 -5 -3 -10 -14 -10 -25 0 -25 43 -34 78 -16 64 33 65 66 7 136 -35 42 -35
43 -19 69 9 14 25 35 35 46 50 56 80 195 44 209 -24 9 -17 36 20 73 30 30 40
34 77 32 45 -4 54 6 44 46 -8 32 -59 58 -96 50 -27 -6 -60 -36 -86 -81 -10
-17 -13 -16 -27 18 -9 21 -28 43 -46 52 -36 19 -37 19 -78 1z"/>
<path d="M1192 800 c0 -14 2 -19 5 -12 2 6 2 18 0 25 -3 6 -5 1 -5 -13z"/>
</g>
</svg>
