<?xml version="1.0" standalone="no"?>
<!DOCTYPE svg PUBLIC "-//W3C//DTD SVG 20010904//EN"
 "http://www.w3.org/TR/2001/REC-SVG-20010904/DTD/svg10.dtd">
<svg version="1.0" xmlns="http://www.w3.org/2000/svg"
 width="244.000000pt" height="305.000000pt" viewBox="0 0 244.000000 305.000000"
 preserveAspectRatio="xMidYMid meet">
<metadata>
Created by potrace 1.16, written by Peter Selinger 2001-2019
</metadata>
<g transform="translate(0.000000,305.000000) scale(0.100000,-0.100000)"
fill="#000000" stroke="none">
<path d="M877 2843 c-47 -185 -75 -425 -84 -709 l-6 -212 22 -7 c12 -4 37 -20
56 -36 l33 -29 42 35 c23 19 46 35 51 35 5 0 9 65 9 146 0 80 -4 143 -9 140
-4 -3 -6 -58 -4 -123 2 -65 1 -122 -4 -128 -15 -19 -73 -56 -81 -51 -7 4 -8
884 -2 941 2 15 4 13 11 -10 7 -24 7 -21 3 15 -8 69 -18 67 -37 -7z"/>
<path d="M1561 2868 c-10 -31 -31 -135 -45 -218 -25 -147 -38 -308 -43 -502
-5 -217 -5 -228 13 -235 11 -3 33 -17 50 -30 37 -27 47 -28 65 -6 8 9 29 22
47 30 l32 13 0 98 c-1 251 -33 587 -70 732 -20 78 -19 62 5 -75 22 -129 36
-278 44 -468 9 -243 8 -250 -40 -281 -21 -14 -41 -26 -44 -26 -3 0 -5 214 -5
476 0 326 3 473 10 469 7 -4 8 3 4 22 -9 39 -11 39 -23 1z"/>
<path d="M1171 2805 c-2 -27 -3 -169 -3 -315 -1 -187 -3 -237 -8 -170 l-7 95
-1 -100 c0 -55 -1 -180 -1 -277 -1 -106 -5 -178 -11 -178 -5 0 -12 17 -15 38
-16 99 -39 202 -46 202 -11 0 -16 -22 -30 -119 -13 -92 -13 -91 47 -127 15 -9
19 -23 19 -62 0 -60 -16 -83 -45 -64 -30 18 -40 15 -40 -15 0 -35 9 -48 37
-57 17 -6 29 -1 48 20 14 15 27 25 29 23 2 -2 6 -31 9 -64 l6 -61 -33 4 c-34
4 -76 -11 -76 -28 0 -4 14 -11 30 -15 26 -6 30 -11 30 -41 0 -19 -3 -34 -6
-34 -31 0 -121 110 -130 161 -4 19 -15 45 -25 58 -18 23 -18 24 2 52 23 33 56
44 99 35 28 -5 30 -3 30 24 0 88 -130 100 -166 14 -17 -40 -18 -40 -43 8 -20
37 -76 62 -117 52 -31 -8 -57 -45 -52 -76 3 -20 8 -22 46 -20 37 3 47 -1 77
-31 37 -37 44 -64 20 -73 -20 -8 -20 -83 0 -129 8 -20 32 -61 54 -91 22 -31
38 -62 34 -68 -4 -6 -19 -27 -34 -46 -44 -57 -45 -76 -9 -110 33 -30 63 -37
90 -20 12 7 12 14 2 43 -28 79 -9 104 61 79 42 -15 47 -20 42 -40 -4 -15 -1
-21 7 -20 17 4 21 -32 9 -65 -9 -23 -15 -27 -38 -23 -15 3 -46 -3 -71 -14 -56
-25 -61 -25 -98 8 -48 42 -67 77 -59 110 3 16 2 49 -4 73 -5 24 -12 56 -16 72
-4 21 -11 27 -33 27 -49 0 -72 -25 -72 -78 0 -41 10 -64 74 -170 66 -110 75
-130 80 -185 2 -34 4 -71 4 -82 -1 -11 2 -36 6 -55 6 -34 2 -40 -105 -165
-140 -163 -190 -217 -194 -213 -2 2 46 91 107 198 155 275 157 279 146 340
-12 68 -40 130 -76 171 -64 73 -82 109 -82 163 0 39 6 61 27 90 l26 39 -23 19
c-31 25 -104 24 -130 -2 -25 -25 -25 -42 0 -116 32 -97 23 -186 -22 -200 -17
-5 -18 -12 -13 -45 4 -21 5 -39 2 -39 -2 0 -80 -27 -173 -60 -93 -33 -174 -59
-181 -58 -6 2 70 53 170 113 100 61 189 117 198 126 16 16 16 22 -2 85 -10 38
-19 85 -19 106 0 20 -5 40 -12 44 -8 5 -10 -18 -5 -90 l5 -97 -31 6 c-23 5
-38 1 -52 -12 -11 -10 -81 -72 -155 -139 -191 -170 -215 -193 -210 -197 5 -5
477 147 486 156 3 2 7 15 9 27 6 32 9 33 52 20 57 -18 109 -57 127 -95 24 -49
20 -62 -20 -75 -42 -14 -37 -3 -114 -250 -34 -107 -73 -228 -86 -269 l-24 -75
31 30 c17 16 68 70 112 119 44 50 121 134 171 188 107 116 110 121 96 146 -5
11 -10 31 -10 45 0 26 0 26 89 26 75 0 93 -3 122 -23 35 -23 45 -46 34 -75 -5
-14 -7 -14 -15 -2 -8 12 -10 11 -10 -7 0 -12 -4 -24 -9 -28 -9 -5 -6 -114 6
-205 4 -34 7 -40 13 -25 5 15 12 -2 24 -60 9 -44 23 -109 31 -145 8 -36 22
-103 32 -150 l17 -85 13 55 c7 30 28 129 48 220 40 190 58 255 49 175 -4 -33
-2 -47 4 -40 15 14 16 241 3 294 -15 56 -8 77 31 90 32 11 180 15 190 5 4 -3
2 -20 -4 -37 -12 -38 -12 -68 -1 -76 4 -3 32 -33 62 -66 30 -33 80 -87 110
-120 31 -33 92 -99 135 -148 43 -48 80 -86 82 -84 6 6 -163 547 -177 563 -5 6
-23 14 -39 18 -37 7 -38 26 -7 81 24 42 78 78 134 90 29 6 32 4 35 -22 3 -27
9 -30 241 -106 131 -44 241 -77 244 -74 2 3 -14 23 -38 44 -23 21 -108 98
-188 171 -144 131 -146 132 -185 126 -34 -5 -37 -4 -32 12 11 35 16 149 7 163
-6 9 -11 -8 -15 -50 -4 -35 -9 -86 -12 -112 l-6 -48 48 6 49 6 85 -77 c47 -43
112 -101 144 -131 33 -29 57 -55 54 -58 -9 -9 -373 205 -395 233 -27 33 -31
98 -8 162 32 91 11 140 -59 140 -74 0 -92 -28 -56 -88 39 -64 22 -149 -45
-222 -57 -62 -75 -101 -75 -161 0 -85 10 -104 64 -119 24 -7 48 -20 51 -29 23
-58 133 -416 130 -420 -7 -6 -4 -9 -65 99 -30 52 -94 162 -142 245 -116 198
-116 191 0 380 44 71 56 101 60 141 4 45 1 53 -19 68 -28 19 -63 21 -76 4 -12
-15 -25 -93 -27 -158 -1 -34 -8 -54 -31 -82 -44 -55 -67 -65 -112 -45 -21 8
-50 18 -64 21 -22 5 -27 13 -32 48 -4 24 -9 53 -13 64 -5 19 1 24 42 38 43 14
50 14 63 1 13 -13 13 -22 2 -66 -15 -59 -8 -70 43 -62 84 13 95 84 22 152 -14
14 -26 28 -26 33 0 4 20 34 45 67 25 32 45 65 45 73 0 8 5 19 10 24 19 19 16
91 -4 113 -11 13 -15 27 -11 40 10 32 70 73 102 71 15 -1 34 -2 41 -1 19 2 14
35 -9 65 -29 37 -92 37 -131 -1 -15 -15 -28 -32 -28 -39 0 -29 -19 -22 -37 14
-26 50 -62 67 -108 52 -39 -13 -55 -35 -55 -74 0 -24 2 -25 43 -20 34 5 47 2
70 -16 30 -24 36 -60 12 -80 -8 -7 -15 -25 -15 -39 0 -49 -104 -182 -129 -167
-6 4 -11 20 -11 36 0 23 5 30 30 35 17 4 30 11 30 15 0 15 -37 30 -74 30 -36
0 -50 20 -25 36 7 4 9 21 5 45 -7 45 2 49 32 14 36 -41 69 -29 79 28 6 40 3
43 -26 25 -27 -17 -48 -4 -55 35 -8 45 6 80 44 107 30 22 31 24 25 79 -11 99
-26 164 -36 154 -5 -5 -16 -52 -25 -104 -23 -141 -24 -145 -35 -128 -5 7 -9
118 -9 244 0 290 -11 695 -19 695 -3 0 -6 -107 -5 -237 0 -165 -1 -206 -6
-133 -3 58 -7 85 -9 60 l-3 -45 -18 68 c-22 81 -27 89 -36 51 -15 -68 -33
-118 -35 -99 -1 11 -5 101 -8 200 -4 99 -9 158 -10 130z m93 -380 c22 -133 38
-337 35 -445 -2 -52 -1 -99 2 -105 3 -5 3 -21 -2 -35 -7 -24 -7 -24 -8 -2 -1
12 -5 22 -10 22 -5 0 -11 -10 -13 -22 -2 -13 -3 40 -2 117 l1 140 -6 -110 c-6
-92 -7 -72 -9 121 -1 127 -5 273 -8 325 -4 52 -4 92 -1 89 3 -3 12 -46 21 -95z
m24 -710 c4 -60 -3 -91 -23 -99 -12 -4 -15 4 -14 42 1 43 2 45 10 17 6 -21 7
-10 3 34 -4 49 -2 62 8 59 8 -3 14 -24 16 -53z m-364 -136 c18 -45 102 -139
152 -170 20 -12 31 -26 28 -34 -8 -21 -99 31 -139 80 -53 64 -93 165 -66 165
5 0 16 -18 25 -41z m656 18 c0 -57 -97 -180 -171 -217 -45 -24 -49 -24 -49 -6
0 7 18 26 41 41 58 41 135 129 149 170 13 40 30 46 30 12z m-365 -87 c4 -16 1
-13 -9 9 -9 18 -16 43 -15 55 1 21 5 10 24 -64z m62 43 c-3 -10 -5 -4 -5 12 0
17 2 24 5 18 2 -7 2 -21 0 -30z m-40 -75 c-2 -13 -4 -5 -4 17 -1 22 1 32 4 23
2 -10 2 -28 0 -40z m-77 -20 c0 -10 -7 -18 -16 -18 -11 0 -14 5 -10 16 3 9 6
23 6 32 0 15 2 15 10 2 5 -8 10 -23 10 -32z m180 -1 c0 -10 -4 -16 -9 -13 -12
8 -20 -28 -22 -94 -1 -55 -1 -55 -9 -15 -13 64 12 184 31 153 5 -7 9 -21 9
-31z m-173 -124 c-2 -21 -4 -6 -4 32 0 39 2 55 4 38 2 -18 2 -50 0 -70z m211
-150 c5 -28 5 -58 1 -65 -6 -8 -9 0 -9 23 0 20 -3 52 -6 70 -4 19 -4 32 -1 29
3 -3 9 -28 15 -57z m-198 -1 c0 -15 -2 -15 -10 -2 -13 20 -13 33 0 25 6 -3 10
-14 10 -23z m123 0 c-3 -12 -9 -19 -14 -16 -5 3 -4 14 2 25 13 26 20 21 12 -9z
m-168 -102 c3 -5 -1 -10 -9 -10 -8 0 -18 5 -21 10 -3 6 1 10 9 10 8 0 18 -4
21 -10z m235 0 c0 -5 -7 -10 -15 -10 -8 0 -15 5 -15 10 0 6 7 10 15 10 8 0 15
-4 15 -10z m-133 -162 c-3 -8 -6 -5 -6 6 -1 11 2 17 5 13 3 -3 4 -12 1 -19z
m61 -106 l6 -37 6 30 7 30 8 -40 c9 -43 -7 -155 -50 -355 -33 -149 -36 -154
-28 -41 3 52 6 184 7 292 1 191 2 197 19 178 10 -11 21 -36 25 -57z m19 46
c-3 -8 -6 -5 -6 6 -1 11 2 17 5 13 3 -3 4 -12 1 -19z"/>
<path d="M1281 1924 c0 -11 3 -14 6 -6 3 7 2 16 -1 19 -3 4 -6 -2 -5 -13z"/>
<path d="M1312 745 c0 -16 2 -22 5 -12 2 9 2 23 0 30 -3 6 -5 -1 -5 -18z"/>
<path d="M1291 2834 c0 -11 3 -14 6 -6 3 7 2 16 -1 19 -3 4 -6 -2 -5 -13z"/>
<path d="M921 2787 c-1 -4 8 -62 18 -130 11 -67 24 -178 30 -247 18 -197 20
-204 16 -55 -2 77 -13 194 -24 260 -19 109 -38 192 -40 172z"/>
<path d="M1107 520 c-4 -14 -6 -38 -6 -55 1 -24 3 -21 10 15 10 49 7 80 -4 40z"/>
<path d="M1356 522 c-3 -9 -2 -37 3 -62 l9 -45 1 63 c1 63 -3 77 -13 44z"/>
</g>
</svg>
