<?xml version="1.0" standalone="no"?>
<!DOCTYPE svg PUBLIC "-//W3C//DTD SVG 20010904//EN"
 "http://www.w3.org/TR/2001/REC-SVG-20010904/DTD/svg10.dtd">
<svg version="1.0" xmlns="http://www.w3.org/2000/svg"
 width="244.000000pt" height="305.000000pt" viewBox="0 0 244.000000 305.000000"
 preserveAspectRatio="xMidYMid meet">
<metadata>
Created by potrace 1.16, written by Peter Selinger 2001-2019
</metadata>
<g transform="translate(0.000000,305.000000) scale(0.100000,-0.100000)"
fill="#000000" stroke="none">
<path d="M882 2813 c-46 -209 -67 -415 -75 -746 l-4 -139 26 -16 c14 -8 38
-27 53 -40 l26 -24 22 25 c12 14 35 31 51 37 l29 12 0 112 c0 239 -19 465 -57
684 -24 142 -27 102 -4 -60 11 -78 25 -188 30 -243 14 -143 24 -448 14 -460
-13 -16 -74 -57 -78 -53 -8 7 -10 213 -7 583 2 241 7 363 13 350 7 -15 8 -9 3
20 -10 69 -20 59 -42 -42z"/>
<path d="M1353 2875 c0 -22 2 -30 4 -17 2 12 2 30 0 40 -3 9 -5 -1 -4 -23z"/>
<path d="M1112 2880 c0 -14 2 -19 5 -12 2 6 2 18 0 25 -3 6 -5 1 -5 -13z"/>
<path d="M1536 2823 c-45 -213 -76 -539 -76 -799 0 -99 1 -105 23 -113 12 -5
32 -19 44 -30 24 -23 48 -27 58 -11 4 6 24 22 45 35 l39 25 -4 97 c-2 54 -7
163 -10 243 -8 187 -56 552 -72 537 -2 -3 3 -47 11 -98 30 -181 46 -343 52
-548 l7 -206 -41 -28 c-23 -15 -44 -27 -47 -27 -3 0 -5 217 -4 483 1 294 4
472 10 457 7 -21 8 -20 4 9 -3 18 -5 37 -5 42 0 5 -4 9 -9 9 -4 0 -16 -35 -25
-77z"/>
<path d="M1121 2410 c-2 -375 -4 -409 -16 -355 -8 33 -15 105 -16 160 l-3 100
-6 -110 c-4 -60 -13 -154 -20 -207 -13 -92 -13 -99 6 -119 l19 -22 -41 5 c-58
8 -99 -12 -115 -56 -16 -44 -25 -45 -42 -3 -18 41 -37 57 -79 63 -48 8 -90
-26 -86 -70 3 -30 5 -31 42 -28 32 3 44 -1 72 -29 37 -36 43 -59 19 -79 -35
-29 -12 -125 50 -209 25 -34 45 -64 45 -67 0 -3 -16 -25 -35 -48 -20 -25 -35
-54 -35 -69 0 -34 38 -74 74 -79 l28 -3 -20 -25 -21 -25 -21 23 c-11 12 -24
22 -29 22 -4 0 -18 19 -31 41 -18 34 -21 46 -12 60 8 13 9 26 2 44 -6 15 -10
40 -10 56 0 45 -17 69 -48 69 -36 0 -49 -10 -61 -44 -15 -38 -2 -84 50 -171
68 -117 88 -162 86 -193 -3 -41 -12 -29 -35 46 -13 40 -39 87 -76 135 -38 50
-59 88 -67 124 -11 48 -10 54 15 98 14 26 26 54 26 61 0 30 -88 46 -131 24
-24 -13 -25 -65 -3 -140 28 -96 12 -175 -40 -193 -8 -3 -8 -13 1 -36 14 -38
26 -31 -186 -110 -161 -60 -200 -70 -144 -35 15 10 64 41 108 69 44 28 115 73
158 100 43 27 83 55 88 61 7 9 5 29 -5 65 -9 29 -16 71 -17 93 0 23 -4 50 -8
60 -8 20 -8 20 -12 0 -3 -10 -3 -54 0 -96 l6 -77 -35 5 c-32 4 -41 -1 -101
-58 -36 -35 -121 -114 -187 -177 -67 -63 -121 -116 -119 -118 2 -1 112 34 245
78 223 75 242 83 242 105 0 32 14 37 57 19 56 -24 104 -64 120 -102 16 -41 7
-58 -35 -66 -30 -6 -24 9 -134 -352 -16 -55 -39 -128 -50 -163 -11 -35 -18
-65 -15 -68 4 -4 59 57 320 359 54 61 76 95 72 106 -4 9 -9 31 -12 48 l-6 33
66 0 c43 0 67 -4 70 -12 4 -10 6 -10 6 0 1 6 11 12 22 12 17 0 20 -5 16 -23
-2 -12 -20 -98 -38 -192 -29 -143 -35 -164 -41 -135 -5 26 -6 21 -3 -17 2 -30
0 -53 -5 -53 -6 0 -10 -19 -9 -42 1 -37 8 -20 50 112 63 195 59 184 63 179 3
-2 20 -85 40 -184 70 -354 89 -445 92 -442 2 1 30 140 64 307 33 168 62 310
64 315 2 8 49 -132 81 -243 4 -12 10 -20 15 -17 4 3 6 -3 4 -12 -3 -10 2 -36
10 -58 20 -55 19 -39 -8 195 -14 113 -26 228 -28 255 l-3 50 35 5 c19 3 48 3
64 1 26 -3 28 -7 23 -35 -3 -17 -8 -38 -12 -47 -3 -9 0 -23 7 -30 7 -8 44 -50
82 -94 151 -174 289 -326 293 -322 2 3 -10 51 -27 108 -18 57 -55 182 -83 277
-47 157 -54 173 -77 179 -39 9 -51 22 -43 52 11 44 45 80 100 107 58 29 83 26
83 -9 0 -21 18 -29 227 -99 125 -42 230 -74 233 -71 5 5 -55 63 -267 259 -84
78 -95 85 -123 79 l-30 -7 7 91 c4 66 3 91 -6 91 -6 0 -11 -13 -11 -28 0 -16
-3 -64 -7 -107 l-6 -77 42 7 42 7 95 -89 c53 -48 117 -107 142 -130 26 -22 45
-43 42 -46 -3 -3 -41 16 -85 42 -44 26 -128 75 -186 109 -142 83 -163 125
-119 240 25 66 25 97 0 122 -25 25 -86 27 -118 4 l-23 -16 26 -45 c48 -86 35
-139 -63 -267 -49 -64 -62 -123 -43 -192 10 -38 15 -43 56 -54 l45 -13 36
-116 c20 -64 49 -156 65 -205 16 -49 29 -97 29 -105 0 -16 -15 8 -155 254 -96
169 -95 167 -89 190 2 11 -4 44 -15 74 -22 63 -22 63 58 195 62 103 78 171 46
206 -20 22 -70 27 -82 8 -14 -23 -26 -117 -22 -172 2 -29 -36 -86 -57 -86 -13
0 -12 6 5 34 29 46 26 67 -14 120 -39 51 -41 59 -22 78 26 26 74 104 85 137
17 48 15 100 -3 107 -27 11 -17 50 21 84 29 25 43 31 73 28 35 -3 36 -2 34 30
-1 41 -26 61 -75 62 -43 0 -74 -24 -90 -71 -10 -30 -28 -39 -28 -14 0 28 -24
67 -49 79 -15 7 -43 11 -64 8 -37 -4 -38 -3 -26 16 11 17 11 37 0 109 -7 48
-16 189 -21 313 -10 292 -21 504 -26 509 -2 2 -4 -126 -4 -286 0 -391 -9 -598
-26 -581 -7 8 -16 77 -23 188 -10 179 -29 309 -58 414 -15 53 -17 57 -26 35
-21 -57 -50 -224 -61 -354 l-12 -140 -8 275 c-14 482 -23 499 -25 50z m154
-70 c13 -98 15 -156 9 -265 -10 -197 -21 -133 -27 158 -2 131 -3 236 -2 235 2
-2 10 -59 20 -128z m-8 -442 c-3 -8 -6 -5 -6 6 -1 11 2 17 5 13 3 -3 4 -12 1
-19z m73 -14 c0 -8 -4 -14 -10 -14 -5 0 -10 9 -10 21 0 11 5 17 10 14 6 -3 10
-13 10 -21z m-193 -16 c-3 -7 -5 -2 -5 12 0 14 2 19 5 13 2 -7 2 -19 0 -25z
m147 -44 c-5 -38 -3 -58 5 -63 8 -5 7 -12 -4 -27 -13 -17 -14 -13 -15 48 0 61
6 98 16 98 2 0 1 -25 -2 -56z m-174 -28 c0 -39 -6 -31 -14 19 -5 29 -4 36 3
25 6 -8 11 -28 11 -44z m240 4 l-8 -35 -1 31 c-1 17 2 34 6 37 11 12 12 3 3
-33z m-278 -46 c5 -3 8 -12 8 -19 0 -12 -5 -12 -25 -3 -14 6 -28 9 -31 5 -11
-11 17 -76 37 -82 24 -8 27 -66 4 -85 -20 -17 -19 -27 4 -33 19 -5 39 -62 26
-75 -4 -4 -18 7 -31 23 -13 17 -37 44 -54 62 -18 19 -32 48 -36 72 -4 22 -13
46 -20 52 -21 18 -17 47 12 75 21 22 31 25 62 19 20 -4 40 -9 44 -11z m412 -5
c28 -22 36 -73 12 -82 -7 -3 -16 -24 -20 -47 -4 -29 -17 -52 -36 -70 -17 -16
-30 -32 -30 -37 0 -13 -49 -58 -55 -51 -3 3 -2 19 1 37 5 22 14 33 31 37 l24
6 -20 22 c-27 29 -28 82 -2 91 24 7 46 64 31 79 -7 7 -14 6 -22 -2 -16 -16
-28 -15 -28 3 0 35 75 44 114 14z m-344 -76 c-1 -24 -2 -26 -11 -10 -5 9 -7
22 -4 27 10 17 15 11 15 -17z m189 15 c0 -7 -4 -22 -9 -33 -7 -17 -9 -15 -9
13 -1 17 4 32 9 32 6 0 10 -6 9 -12z m-39 -47 c0 -6 -7 -11 -15 -11 -9 0 -15
10 -15 26 0 23 2 24 15 10 8 -8 15 -19 15 -25z m-110 -52 c0 -4 -5 -11 -10
-14 -15 -9 -40 14 -40 36 0 18 1 19 25 3 14 -9 25 -20 25 -25z m-250 -19 c13
-27 32 -57 42 -67 10 -9 18 -30 18 -46 l0 -30 -26 29 c-30 33 -74 121 -74 147
0 31 16 18 40 -33z m177 28 c-3 -8 -6 -5 -6 6 -1 11 2 17 5 13 3 -3 4 -12 1
-19z m240 0 c-3 -8 -6 -5 -6 6 -1 11 2 17 5 13 3 -3 4 -12 1 -19z m209 -9 c-7
-38 -30 -86 -56 -119 l-20 -25 0 28 c0 16 8 41 18 55 10 15 24 42 31 60 17 41
36 42 27 1z m-246 0 c-13 -23 -33 -21 -38 4 -3 12 4 17 23 17 23 0 25 -2 15
-21z m-71 -63 c-1 -6 -5 -22 -9 -36 -7 -23 -8 -23 -9 -3 -1 12 -3 28 -6 36 -4
8 0 14 10 14 8 0 15 -5 14 -11z m70 -96 c-31 -71 -36 -54 -8 25 15 41 25 59
27 47 2 -11 -7 -43 -19 -72z m-151 -15 c0 -13 -6 -6 -19 20 -10 22 -18 49 -18
60 1 26 38 -52 37 -80z m309 33 c-3 -8 -6 -5 -6 6 -1 11 2 17 5 13 3 -3 4 -12
1 -19z m-424 -28 c3 -11 1 -23 -4 -26 -5 -3 -9 6 -9 20 0 31 6 34 13 6z m387
-12 c0 -5 -4 -8 -10 -8 -5 0 -10 10 -10 23 0 18 2 19 10 7 5 -8 10 -18 10 -22z
m-326 -14 c9 -3 16 -13 16 -21 0 -20 -34 -12 -38 10 -4 19 -1 20 22 11z m266
-8 c0 -21 -20 -30 -33 -17 -9 9 -8 14 3 21 21 14 30 12 30 -4z m-379 -139 c-6
-6 -8 6 -6 34 4 64 8 70 12 20 3 -24 0 -48 -6 -54z m470 41 l-9 -33 -1 36 c-1
20 2 39 6 43 13 12 15 -10 4 -46z m-402 -41 c17 -81 7 -83 -13 -3 -18 74 -19
84 -8 71 5 -6 14 -36 21 -68z m103 58 c0 -5 -5 -11 -11 -13 -6 -2 -11 4 -11
13 0 9 5 15 11 13 6 -2 11 -8 11 -13z m148 0 c0 -8 -4 -15 -9 -15 -13 0 -22
16 -14 24 11 11 23 6 23 -9z m95 -71 c-18 -62 -32 -68 -17 -8 6 22 13 53 18
69 5 21 8 25 11 13 3 -10 -3 -43 -12 -74z m-307 32 c0 -18 6 -44 12 -57 12
-22 13 -22 26 -4 11 15 16 16 29 5 21 -18 19 -23 -17 -43 -25 -14 -33 -15 -39
-5 -14 22 -31 108 -25 123 9 24 14 17 14 -19z m272 1 c0 -26 -16 -86 -28 -105
-11 -16 -72 13 -72 34 0 22 29 29 44 9 11 -16 13 -16 26 0 8 10 15 35 15 55 0
21 3 36 7 34 5 -3 8 -15 8 -27z m134 -93 c10 -25 7 -34 -8 -28 -19 7 -28 44
-11 44 7 0 16 -7 19 -16z m-636 -216 c-3 -18 -1 -45 4 -61 14 -38 4 -65 -37
-112 -20 -22 -82 -95 -138 -162 -55 -68 -104 -123 -108 -123 -7 0 43 95 188
360 56 101 75 129 92 130 2 0 1 -15 -1 -32z m365 -29 c-4 -15 -8 -17 -14 -8
-6 11 4 28 18 29 0 0 -1 -9 -4 -21z m182 -202 c20 -104 35 -190 32 -193 -6 -7
-97 307 -97 338 0 34 11 62 20 51 4 -4 24 -93 45 -196z m-273 159 c17 -23 15
-32 -14 -55 -17 -12 -18 -10 -18 33 0 51 7 56 32 22z m198 -21 c0 -49 -14 -59
-31 -21 -8 17 -8 29 0 45 19 34 31 24 31 -24z m-25 -172 c-32 -168 -75 -350
-70 -298 20 220 27 396 16 426 -18 53 -13 56 31 12 l42 -42 -19 -98z"/>
<path d="M1103 2735 c0 -22 2 -30 4 -17 2 12 2 30 0 40 -3 9 -5 -1 -4 -23z"/>
<path d="M1331 2634 c0 -11 3 -14 6 -6 3 7 2 16 -1 19 -3 4 -6 -2 -5 -13z"/>
<path d="M1093 2570 c0 -30 2 -43 4 -27 2 15 2 39 0 55 -2 15 -4 2 -4 -28z"/>
<path d="M1324 2385 c0 -49 1 -71 3 -48 2 23 2 64 0 90 -2 26 -3 8 -3 -42z"/>
<path d="M1033 850 c0 -25 2 -35 4 -22 2 12 2 32 0 45 -2 12 -4 2 -4 -23z"/>
<path d="M1023 765 c0 -22 2 -30 4 -17 2 12 2 30 0 40 -3 9 -5 -1 -4 -23z"/>
<path d="M1013 675 c0 -22 2 -30 4 -17 2 12 2 30 0 40 -3 9 -5 -1 -4 -23z"/>
</g>
</svg>
