<?xml version="1.0" standalone="no"?>
<!DOCTYPE svg PUBLIC "-//W3C//DTD SVG 20010904//EN"
 "http://www.w3.org/TR/2001/REC-SVG-20010904/DTD/svg10.dtd">
<svg version="1.0" xmlns="http://www.w3.org/2000/svg"
 width="244.000000pt" height="305.000000pt" viewBox="0 0 244.000000 305.000000"
 preserveAspectRatio="xMidYMid meet">
<metadata>
Created by potrace 1.16, written by Peter Selinger 2001-2019
</metadata>
<g transform="translate(0.000000,305.000000) scale(0.100000,-0.100000)"
fill="#000000" stroke="none">
<path d="M1362 2900 c0 -14 2 -19 5 -12 2 6 2 18 0 25 -3 6 -5 1 -5 -13z"/>
<path d="M920 2906 c0 -2 -7 -38 -15 -78 -29 -136 -54 -333 -65 -504 -13 -215
-13 -404 0 -404 5 0 26 -14 46 -32 25 -22 40 -29 48 -22 7 5 29 20 49 34 l37
25 0 185 c0 102 -7 255 -15 340 -15 159 -48 366 -60 378 -4 4 -4 -4 -1 -18 32
-144 66 -524 65 -740 l0 -115 -38 -27 c-22 -14 -41 -25 -43 -23 -6 7 0 906 7
952 4 24 2 44 -5 48 -5 3 -10 4 -10 1z"/>
<path d="M1538 2894 c-9 -13 -44 -210 -64 -354 -8 -58 -17 -220 -21 -360 l-6
-255 36 -25 c20 -14 37 -28 37 -32 0 -16 33 -7 60 15 15 12 35 27 45 33 18 10
18 23 7 282 -11 242 -43 547 -59 562 -3 3 -3 -17 1 -45 33 -251 65 -712 51
-753 -4 -15 -66 -62 -80 -62 -3 0 -5 217 -4 483 1 265 5 471 9 457 6 -20 8
-21 8 -5 0 33 -13 71 -20 59z"/>
<path d="M1091 2703 c-7 -104 -16 -327 -21 -498 l-9 -310 30 -27 c30 -29 36
-52 19 -78 -8 -12 -10 -10 -10 8 0 39 -18 59 -56 66 -45 9 -80 -12 -100 -60
-14 -34 -34 -38 -34 -8 0 25 -56 74 -84 74 -32 0 -74 -38 -78 -70 -3 -23 1
-25 39 -28 31 -2 49 -11 72 -34 34 -35 39 -59 16 -78 -32 -27 -8 -119 57 -222
l37 -56 -36 -46 c-32 -42 -35 -50 -30 -91 4 -26 3 -45 -3 -45 -16 0 -32 40
-29 73 3 38 -8 123 -21 155 -11 26 -46 29 -76 8 -14 -11 -19 -26 -18 -63 0
-40 11 -67 58 -151 40 -70 56 -108 51 -120 -6 -14 -9 -12 -17 13 -6 17 -32 60
-58 96 -62 85 -66 95 -74 149 -5 37 -2 53 19 89 14 23 25 49 25 57 0 36 -97
47 -130 14 -25 -25 -25 -42 1 -121 27 -86 22 -154 -15 -186 -23 -19 -26 -28
-21 -56 6 -32 5 -34 -37 -51 -127 -52 -293 -115 -296 -111 -3 3 199 143 316
218 40 26 44 31 39 60 -3 18 -11 69 -18 115 -6 45 -14 80 -17 77 -4 -3 -5 -44
-3 -90 l3 -85 -29 6 c-25 4 -44 -11 -208 -170 -99 -96 -178 -177 -175 -180 3
-3 105 30 225 73 210 75 220 80 225 107 5 24 10 28 30 26 38 -4 109 -51 131
-85 29 -49 25 -72 -18 -94 -36 -18 -38 -21 -69 -138 -18 -66 -53 -191 -79
-278 -26 -87 -45 -161 -42 -163 3 -3 22 17 43 43 21 26 59 73 85 103 250 299
249 298 239 325 -6 15 -10 37 -10 50 0 20 6 23 46 27 l47 3 -6 -75 c-3 -41
-15 -151 -27 -244 -11 -93 -19 -176 -18 -184 2 -8 34 77 73 189 50 149 68 216
67 247 -3 45 6 52 30 25 28 -33 28 -41 0 -76 l-28 -35 17 -104 c24 -139 100
-542 104 -546 1 -2 6 14 9 35 4 21 22 119 41 218 19 99 43 229 54 289 l20 109
-30 34 c-29 34 -29 42 -1 76 24 28 32 20 32 -31 0 -33 23 -114 75 -267 75
-220 75 -220 69 -145 -7 76 -13 103 -15 59 -1 -19 -96 383 -98 414 -1 5 9 7
22 5 19 -3 24 -13 34 -68 l12 -65 -2 69 -2 68 31 3 c51 4 60 -7 47 -57 -13
-49 -37 -14 205 -306 79 -96 146 -172 148 -170 7 8 -143 538 -158 555 -6 7
-19 13 -29 13 -33 0 -40 32 -17 79 23 48 81 91 124 94 24 2 29 -2 32 -23 3
-23 16 -30 125 -68 67 -24 164 -60 215 -79 51 -19 95 -33 97 -31 2 2 -73 81
-168 177 -158 158 -174 172 -200 167 l-29 -6 7 84 c5 57 4 86 -4 90 -7 5 -11
-3 -11 -22 0 -16 -3 -63 -6 -105 l-7 -75 41 5 41 6 131 -133 c72 -73 130 -134
128 -136 -11 -10 -344 210 -364 241 -19 29 -16 112 6 188 13 42 13 52 -1 75
-23 42 -107 43 -129 2 -9 -16 -6 -27 15 -57 15 -23 25 -52 25 -73 0 -41 -36
-122 -74 -167 -15 -18 -36 -50 -46 -70 -15 -29 -19 -33 -20 -17 0 12 21 59 47
105 54 97 67 166 38 199 -20 23 -57 26 -73 8 -12 -16 -23 -88 -22 -148 0 -26
-6 -54 -15 -65 -13 -19 -14 -18 -15 18 0 41 -19 85 -44 106 -23 19 -20 49 10
88 61 80 87 192 52 227 -16 16 -17 20 -3 47 21 40 57 61 97 57 27 -2 34 1 36
18 2 11 -7 32 -18 47 -38 49 -113 31 -140 -33 -14 -34 -30 -40 -30 -11 0 27
-45 71 -74 71 -45 0 -51 7 -47 57 5 70 -17 186 -35 179 -12 -4 -14 55 -16 372
l-3 377 -13 -205 c-7 -113 -16 -320 -21 -460 -4 -140 -9 -208 -10 -150 -3 197
-42 505 -71 559 -5 9 -16 -22 -29 -80 -34 -150 -42 -222 -48 -432 -3 -109 -9
-199 -12 -201 -3 -2 -6 98 -5 222 l0 227 -5 -195 c-6 -186 -7 -192 -19 -141
-9 40 -12 166 -12 474 1 230 -1 421 -3 423 -2 2 -9 -80 -16 -183z m189 -426
c8 -68 9 -150 3 -247 l-8 -145 -6 100 c-4 72 -6 36 -7 -127 -1 -138 -6 -229
-12 -233 -11 -7 -14 774 -3 815 6 22 8 20 15 -18 4 -23 12 -89 18 -145z m50
-382 c0 -14 -4 -25 -9 -25 -5 0 -8 8 -6 18 2 9 4 20 4 25 2 19 11 4 11 -18z
m-34 -100 c0 -36 -3 -65 -8 -65 -10 0 -11 114 -1 123 3 4 7 7 7 7 1 0 1 -29 2
-65z m76 19 l-8 -39 -7 34 c-5 23 -3 37 5 42 18 11 19 6 10 -37z m-318 -54
c30 -11 35 -31 6 -23 -14 4 -20 0 -20 -10 0 -23 22 -67 33 -67 5 0 8 -25 5
-60 -2 -33 -1 -61 3 -62 3 -2 10 -19 13 -38 l7 -35 -37 40 c-39 42 -73 108
-74 139 0 10 -8 25 -17 32 -17 12 -17 14 1 48 10 19 26 37 35 39 9 3 17 5 18
6 1 0 13 -3 27 -9z m432 -23 c27 -32 31 -55 10 -63 -8 -3 -17 -24 -20 -48 -5
-28 -21 -60 -53 -101 -47 -59 -64 -63 -42 -9 7 16 11 55 10 87 -2 33 1 57 7
57 13 0 34 59 26 72 -3 5 -12 7 -20 4 -20 -8 -17 11 3 23 28 15 53 9 79 -22z
m-310 -127 c27 -11 31 -25 9 -34 -29 -11 -43 5 -48 57 -2 29 -2 57 2 62 3 6 7
-9 9 -33 3 -35 8 -45 28 -52z m159 26 c-7 -55 -16 -66 -47 -59 -24 7 -18 27
10 31 19 3 22 10 22 48 0 31 4 43 11 38 7 -4 9 -24 4 -58z m-35 -2 c0 -2 -7
-4 -15 -4 -10 0 -15 10 -15 33 l0 32 15 -29 c8 -15 15 -30 15 -32z m-342 -63
c35 -76 25 -124 -12 -53 -18 35 -31 102 -20 102 5 -1 19 -22 32 -49z m409 27
c-3 -8 -6 -5 -6 6 -1 11 2 17 5 13 3 -3 4 -12 1 -19z m183 8 c0 -23 -23 -80
-42 -105 -16 -21 -18 -21 -18 -5 0 25 41 124 52 124 4 0 8 -6 8 -14z m-308
-75 c7 11 8 9 4 -4 -3 -10 -6 -28 -7 -40 -1 -20 -2 -20 -9 3 -9 29 -12 64 -3
41 5 -11 7 -11 15 0z m-88 -77 c15 -37 25 -69 22 -71 -6 -7 -56 100 -56 120 0
29 7 19 34 -49z m167 -26 c-17 -35 -30 -56 -31 -48 0 23 55 144 58 127 2 -9
-10 -44 -27 -79z m116 -5 c-3 -10 -5 -4 -5 12 0 17 2 24 5 18 2 -7 2 -21 0
-30z m-387 20 c0 -5 -5 -15 -10 -23 -8 -12 -10 -11 -10 8 0 12 5 22 10 22 6 0
10 -3 10 -7z m54 -39 c9 -3 16 -15 16 -25 0 -17 -3 -18 -20 -9 -11 6 -20 17
-20 25 0 17 2 17 24 9z m286 -14 c0 -13 -7 -20 -20 -20 -23 0 -26 10 -8 28 18
18 28 15 28 -8z m45 -127 c-20 -77 -39 -118 -30 -63 11 60 37 142 42 136 4 -3
-2 -36 -12 -73z m-380 0 c20 -82 17 -98 -5 -33 -18 52 -27 110 -14 98 3 -3 12
-32 19 -65z m120 36 c-8 -12 -35 -12 -35 0 0 11 22 20 33 14 4 -2 5 -9 2 -14z
m141 -7 c-22 -5 -30 3 -21 18 5 8 11 7 22 -2 15 -12 14 -13 -1 -16z m-211 -69
c5 -22 35 -33 35 -13 0 16 37 11 44 -6 9 -23 9 -22 -30 -39 -45 -19 -40 -19
-49 8 -19 63 -23 94 -17 117 6 23 7 22 10 -10 1 -19 5 -45 7 -57z m285 42 c0
-23 -17 -85 -28 -102 -5 -9 -16 -9 -45 0 -29 9 -37 17 -35 32 4 26 36 32 52 9
13 -16 14 -16 26 6 7 14 12 43 12 65 -1 29 1 36 8 25 5 -8 10 -24 10 -35z
m170 -67 c0 -7 -5 -20 -10 -28 -9 -13 -12 -12 -25 5 -14 18 -14 20 2 27 27 10
33 9 33 -4z m-586 -25 c9 -22 -10 -41 -25 -26 -13 13 -5 43 10 43 5 0 12 -8
15 -17z m638 -98 c3 -14 2 -25 -3 -25 -12 0 -31 39 -24 50 9 15 22 4 27 -25z
m-731 -38 c-8 -8 -11 -7 -11 4 0 20 13 34 18 19 3 -7 -1 -17 -7 -23z m18 -64
c0 -27 2 -66 6 -88 6 -38 3 -44 -52 -116 -162 -210 -209 -268 -216 -269 -5 0
41 96 101 213 60 116 117 233 127 260 10 26 22 47 27 47 5 0 8 -21 7 -47z
m786 -30 c14 0 28 -3 31 -6 5 -4 53 -163 74 -242 5 -16 20 -68 34 -115 14 -46
24 -86 22 -87 -6 -7 -266 495 -266 513 0 15 9 10 40 -22 26 -27 49 -41 65 -41z
m-435 -9 c0 -7 -4 -16 -10 -19 -5 -3 -10 -4 -10 -1 0 2 -2 11 -5 19 -4 8 0 14
10 14 8 0 15 -6 15 -13z m-151 -52 c0 -28 -20 -105 -50 -192 -27 -80 -47 -129
-44 -110 4 33 63 320 71 348 8 29 24 -2 23 -46z m176 -70 c-3 14 -8 34 -11 45
-3 10 12 -1 34 -24 l39 -42 -10 -58 c-5 -32 -22 -119 -37 -193 -27 -127 -28
-132 -31 -80 l-3 55 -6 -70 c-4 -41 -7 35 -7 185 l-1 255 19 -50 c10 -27 17
-38 14 -23z"/>
<path d="M1253 2305 c0 -44 2 -61 4 -37 2 23 2 59 0 80 -2 20 -4 1 -4 -43z"/>
<path d="M1273 700 c0 -30 2 -43 4 -27 2 15 2 39 0 55 -2 15 -4 2 -4 -28z"/>
<path d="M1263 575 c0 -33 2 -45 4 -27 2 18 2 45 0 60 -2 15 -4 0 -4 -33z"/>
<path d="M1562 2790 c0 -14 2 -19 5 -12 2 6 2 18 0 25 -3 6 -5 1 -5 -13z"/>
<path d="M1372 2780 c0 -14 2 -19 5 -12 2 6 2 18 0 25 -3 6 -5 1 -5 -13z"/>
<path d="M1122 2690 c0 -19 2 -27 5 -17 2 9 2 25 0 35 -3 9 -5 1 -5 -18z"/>
<path d="M1383 2630 c0 -30 2 -43 4 -27 2 15 2 39 0 55 -2 15 -4 2 -4 -28z"/>
<path d="M1133 2500 c0 -36 2 -50 4 -32 2 17 2 47 0 65 -2 17 -4 3 -4 -33z"/>
<path d="M1394 2385 c0 -55 1 -76 3 -47 2 29 2 74 0 100 -2 26 -3 2 -3 -53z"/>
<path d="M1463 745 c0 -22 2 -30 4 -17 2 12 2 30 0 40 -3 9 -5 -1 -4 -23z"/>
<path d="M1472 670 c0 -19 2 -27 5 -17 2 9 2 25 0 35 -3 9 -5 1 -5 -18z"/>
<path d="M1483 590 c0 -25 2 -35 4 -22 2 12 2 32 0 45 -2 12 -4 2 -4 -23z"/>
</g>
</svg>
