<?xml version="1.0" standalone="no"?>
<!DOCTYPE svg PUBLIC "-//W3C//DTD SVG 20010904//EN"
 "http://www.w3.org/TR/2001/REC-SVG-20010904/DTD/svg10.dtd">
<svg version="1.0" xmlns="http://www.w3.org/2000/svg"
 width="244.000000pt" height="305.000000pt" viewBox="0 0 244.000000 305.000000"
 preserveAspectRatio="xMidYMid meet">
<metadata>
Created by potrace 1.16, written by Peter Selinger 2001-2019
</metadata>
<g transform="translate(0.000000,305.000000) scale(0.100000,-0.100000)"
fill="#000000" stroke="none">
<path d="M1537 2838 c-50 -221 -77 -475 -77 -733 l0 -183 33 -21 c17 -11 39
-26 49 -33 13 -10 22 -6 52 20 20 18 43 32 51 32 18 0 18 -12 5 285 -9 209
-27 393 -49 500 -15 71 -11 13 9 -140 13 -90 23 -242 27 -380 l6 -230 -38 -27
c-21 -15 -42 -25 -46 -22 -11 7 -9 893 2 937 6 21 6 44 1 52 -6 11 -13 -6 -25
-57z"/>
<path d="M897 2833 c-49 -219 -66 -371 -74 -659 l-6 -252 24 -12 c13 -7 36
-24 51 -38 l28 -25 23 24 c13 13 36 33 51 44 l29 20 -12 245 c-10 236 -28 421
-52 543 -21 106 -21 50 0 -90 24 -159 41 -385 41 -558 l0 -120 -34 -27 c-19
-16 -40 -28 -45 -28 -8 0 -11 149 -11 475 0 310 3 475 10 475 13 0 13 37 1 44
-5 4 -16 -24 -24 -61z"/>
<path d="M1098 2493 c1 -222 -1 -380 -7 -387 -5 -6 -13 -29 -17 -51 l-8 -40
-7 30 c-4 18 -7 -6 -7 -63 1 -91 1 -94 29 -115 16 -11 29 -28 29 -37 0 -31
-13 -30 -29 3 -14 29 -20 32 -58 31 -48 -1 -71 -16 -90 -61 -7 -18 -15 -33
-18 -33 -2 0 -12 16 -21 36 -19 40 -61 64 -100 56 -31 -6 -66 -49 -62 -76 3
-18 9 -20 39 -18 65 6 129 -69 94 -108 -13 -15 -16 -31 -13 -64 5 -45 47 -136
74 -163 21 -21 17 -66 -8 -98 -12 -16 -27 -49 -33 -74 -11 -42 -13 -44 -23
-24 -7 13 -9 30 -4 43 7 19 0 64 -24 158 -5 17 -45 15 -73 -4 -21 -15 -23 -23
-19 -70 4 -41 15 -71 51 -130 26 -42 47 -80 47 -85 0 -19 -16 -6 -43 34 -15
23 -42 61 -59 84 -45 61 -50 127 -13 189 l28 47 -23 19 c-32 26 -94 24 -120
-4 -24 -26 -24 -25 0 -117 31 -114 23 -182 -22 -197 -19 -6 -20 -15 -7 -63 3
-10 -44 -32 -165 -77 -93 -35 -171 -62 -173 -60 -2 2 74 54 169 116 95 62 178
119 184 127 9 10 8 25 -1 61 -8 26 -17 74 -21 107 -10 86 -24 41 -17 -53 l6
-73 -26 6 c-19 5 -34 1 -51 -13 -49 -38 -346 -325 -342 -330 3 -2 78 21 168
52 303 104 293 100 296 129 4 33 13 33 79 2 90 -41 119 -121 58 -155 -27 -15
-34 -33 -87 -206 -57 -185 -108 -364 -108 -374 1 -6 15 10 200 226 204 238
190 217 175 261 -7 21 -11 41 -8 45 2 5 22 8 44 8 l39 0 2 -47 1 -48 4 42 c3
32 9 44 25 48 11 4 23 3 27 -2 5 -4 -7 -71 -26 -148 -44 -184 -74 -298 -68
-258 2 18 7 63 9 100 5 66 5 65 -8 -17 -20 -128 -27 -219 -16 -195 5 11 43
112 84 225 64 176 74 211 69 249 -6 42 -5 43 16 32 11 -7 28 -23 37 -37 16
-24 16 -26 -15 -57 -17 -18 -31 -37 -31 -42 -1 -23 125 -648 128 -635 2 8 31
155 66 327 l62 312 -34 34 c-34 34 -34 35 -17 61 10 15 26 31 37 37 17 9 18 6
16 -43 -1 -39 7 -75 29 -133 17 -44 50 -133 73 -198 24 -65 45 -115 47 -113 3
3 0 44 -6 93 -7 48 -20 157 -31 242 -11 84 -20 157 -20 162 0 5 23 9 50 9 55
0 61 -9 36 -59 -13 -24 -13 -30 2 -52 20 -30 320 -379 365 -424 15 -15 5 24
-80 308 -76 255 -77 258 -108 265 -44 12 -45 48 -3 102 22 29 49 49 81 61 55
22 67 18 67 -17 0 -13 2 -24 3 -24 2 0 108 -36 235 -79 128 -44 232 -77 232
-73 0 7 -260 258 -332 321 -30 26 -43 31 -66 26 l-28 -6 4 93 c3 61 1 90 -6
83 -5 -5 -12 -54 -15 -108 l-7 -98 43 6 43 7 141 -133 c78 -74 140 -135 138
-137 -4 -5 -105 52 -258 144 -70 42 -115 77 -128 97 -23 38 -25 99 -4 157 32
91 11 140 -59 140 -46 0 -76 -15 -76 -38 0 -9 12 -35 25 -57 44 -70 31 -116
-71 -260 -47 -66 -56 -75 -51 -48 3 17 22 57 42 88 39 60 65 124 65 160 0 42
-63 80 -96 57 -12 -8 -26 -87 -26 -142 1 -50 -6 -77 -21 -83 -9 -3 -12 4 -9
27 2 22 -4 42 -22 66 -53 72 -53 75 -13 133 20 28 43 69 51 89 20 48 21 112 1
128 -23 19 -18 39 19 76 28 28 42 34 75 34 37 0 41 2 41 25 0 31 -41 75 -69
75 -38 0 -73 -24 -93 -64 l-21 -41 -13 30 c-22 54 -53 71 -122 67 -17 -2 -28
-14 -42 -44 l-19 -43 0 33 c-1 24 7 40 29 60 l29 27 -9 335 c-6 184 -14 391
-20 459 -5 68 -10 138 -10 154 0 17 -3 28 -6 24 -3 -3 -5 -178 -5 -389 2 -373
-7 -524 -30 -539 -6 -4 -8 -16 -4 -28 3 -11 2 -29 -4 -38 -8 -14 -10 -7 -11
32 -1 95 -21 390 -31 455 -5 36 -19 105 -31 155 -24 103 -25 102 -57 -53 -21
-100 -35 -242 -47 -475 -3 -65 -8 -117 -10 -114 -2 2 -6 152 -8 333 -4 310
-21 640 -35 656 -3 4 -5 -162 -3 -369z m159 -65 c-3 -7 -5 -2 -5 12 0 14 2 19
5 13 2 -7 2 -19 0 -25z m31 -313 c0 -66 -4 -151 -8 -190 -6 -62 -7 -54 -8 65
-1 74 -4 200 -7 280 l-4 145 14 -90 c7 -49 13 -144 13 -210z m12 -327 c0 -51
-3 -68 -10 -58 -11 17 -13 73 -4 108 11 38 14 25 14 -50z m-240 -39 c0 -5 -4
-9 -10 -9 -15 0 -12 -41 6 -75 8 -16 14 -51 14 -80 -1 -27 1 -63 5 -80 l6 -30
-31 35 c-34 37 -69 104 -70 131 0 9 -7 22 -15 29 -22 18 -18 38 13 70 21 21
35 27 55 23 15 -3 27 -9 27 -14z m420 6 c35 -18 51 -62 28 -79 -8 -6 -18 -28
-22 -50 -7 -38 -29 -76 -73 -126 l-23 -25 0 26 c0 14 3 29 7 32 4 4 5 33 4 64
-1 32 2 59 8 63 6 3 16 21 21 39 8 28 6 33 -13 41 l-22 8 25 10 c14 6 26 11
28 11 2 1 16 -6 32 -14z m-304 -145 c35 -14 30 -32 -8 -28 -31 3 -33 5 -36 47
-2 24 0 51 5 60 5 11 8 3 11 -27 3 -35 8 -45 28 -52z m124 24 c0 -2 -7 -4 -15
-4 -11 0 -15 11 -15 38 l1 37 14 -34 c8 -18 15 -35 15 -37z m41 -1 c-6 -46 -7
-48 -40 -51 -24 -3 -32 0 -29 10 3 7 14 14 26 16 19 3 22 10 22 49 0 36 3 43
13 35 9 -8 11 -26 8 -59z m-398 -60 c19 -54 21 -73 8 -73 -11 0 -41 73 -41
100 0 35 15 22 33 -27z m597 -42 c-11 -23 -25 -41 -30 -41 -15 0 -12 12 17 76
24 52 28 56 31 32 2 -14 -6 -45 -18 -67z m-443 57 c-3 -8 -6 -5 -6 6 -1 11 2
17 5 13 3 -3 4 -12 1 -19z m270 0 c-3 -8 -6 -5 -6 6 -1 11 2 17 5 13 3 -3 4
-12 1 -19z m-118 -67 c-1 -23 -17 -60 -18 -41 -1 8 -4 24 -7 36 -4 14 -1 21
10 21 9 0 16 -7 15 -16z m81 -88 c-18 -35 -35 -61 -38 -59 -2 3 11 40 29 82
21 48 35 70 38 59 2 -10 -11 -47 -29 -82z m-176 9 c15 -35 26 -66 23 -68 -7
-7 -67 113 -67 133 0 25 13 6 44 -65z m-133 -15 c-8 -8 -11 -5 -11 9 0 27 14
41 18 19 2 -9 -1 -22 -7 -28z m439 7 c0 -8 -4 -14 -10 -14 -5 0 -10 9 -10 21
0 11 5 17 10 14 6 -3 10 -13 10 -21z m-350 -52 c0 -23 -35 -8 -38 16 -3 21 -2
22 17 10 12 -7 21 -19 21 -26z m290 13 c0 -21 -36 -39 -43 -21 -6 16 11 36 30
36 7 0 13 -7 13 -15z m-362 -130 c6 -27 14 -58 17 -67 4 -10 3 -18 -2 -18 -11
0 -43 97 -43 130 0 36 15 11 28 -45z m422 60 c0 -25 -35 -135 -42 -135 -6 0
-8 10 -4 23 4 12 12 43 18 70 6 26 15 47 20 47 4 0 8 -2 8 -5z m-69 -101 c-6
-22 -17 -48 -24 -58 -13 -18 -16 -18 -37 -3 -12 8 -29 13 -37 10 -11 -4 -14 0
-11 18 2 16 11 25 26 27 12 2 22 -1 22 -7 0 -6 8 -11 19 -11 21 0 30 24 32 85
l1 40 10 -31 c7 -20 6 -43 -1 -70z m-303 40 c0 -58 24 -89 45 -60 10 13 20 16
36 11 27 -8 24 -38 -4 -43 -11 -2 -27 -11 -36 -19 -15 -13 -19 -10 -38 30 -25
52 -28 127 -5 127 1 0 2 -21 2 -46z m82 37 c0 -5 -9 -11 -20 -14 -22 -6 -28 8
-7 16 19 8 27 8 27 -2z m165 -1 c3 -5 -3 -10 -14 -10 -12 0 -21 5 -21 10 0 6
6 10 14 10 8 0 18 -4 21 -10z m-410 -96 c11 -11 13 -20 6 -27 -15 -15 -41 0
-41 23 0 24 13 26 35 4z m625 -39 c0 -13 -29 -29 -37 -21 -2 2 -1 16 3 30 5
21 9 24 20 15 8 -6 14 -17 14 -24z m-694 -93 c-12 -11 -18 7 -10 30 l8 23 4
-23 c2 -13 1 -26 -2 -30z m777 -32 c3 -13 1 -17 -9 -13 -18 7 -36 38 -27 47 9
8 30 -11 36 -34z m-746 -64 c-2 -22 0 -60 5 -83 l10 -43 -83 -102 c-215 -267
-238 -291 -180 -185 84 151 221 422 221 437 0 21 10 31 22 24 6 -4 8 -25 5
-48z m757 10 c16 -22 38 -37 63 -43 l37 -9 39 -124 c75 -243 97 -315 97 -325
0 -11 -43 64 -193 336 -53 96 -97 181 -97 187 0 23 28 12 54 -22z m-394 -42
c0 -14 -14 -33 -21 -28 -15 9 -10 31 6 31 8 0 15 -1 15 -3z m175 -94 c34 -151
65 -295 64 -305 0 -5 -24 58 -54 140 -51 142 -63 202 -49 240 10 26 20 6 39
-75z m-85 -79 c0 -9 -9 -50 -19 -91 -10 -41 -26 -122 -37 -180 -10 -58 -20
-97 -22 -88 -2 10 4 101 13 203 11 130 13 191 5 204 -5 11 -10 26 -10 33 1 19
70 -62 70 -81z"/>
<path d="M931 2804 c0 -11 3 -14 6 -6 3 7 2 16 -1 19 -3 4 -6 -2 -5 -13z"/>
<path d="M1083 2780 c0 -25 2 -35 4 -22 2 12 2 32 0 45 -2 12 -4 2 -4 -23z"/>
<path d="M1582 2775 c0 -16 2 -22 5 -12 2 9 2 23 0 30 -3 6 -5 -1 -5 -18z"/>
<path d="M1351 2724 c0 -11 3 -14 6 -6 3 7 2 16 -1 19 -3 4 -6 -2 -5 -13z"/>
<path d="M1073 2630 c0 -25 2 -35 4 -22 2 12 2 32 0 45 -2 12 -4 2 -4 -23z"/>
<path d="M1343 2580 c0 -25 2 -35 4 -22 2 12 2 32 0 45 -2 12 -4 2 -4 -23z"/>
<path d="M1063 2495 c0 -22 2 -30 4 -17 2 12 2 30 0 40 -3 9 -5 -1 -4 -23z"/>
<path d="M1063 2405 c0 -27 2 -38 4 -22 2 15 2 37 0 50 -2 12 -4 0 -4 -28z"/>
<path d="M1332 2420 c0 -14 2 -19 5 -12 2 6 2 18 0 25 -3 6 -5 1 -5 -13z"/>
<path d="M1334 2260 c0 -69 1 -97 3 -62 2 34 2 90 0 125 -2 34 -3 6 -3 -63z"/>
<path d="M985 787 c-4 -30 -5 -63 -3 -73 2 -11 8 12 12 49 4 38 5 71 3 74 -3
2 -8 -20 -12 -50z"/>
</g>
</svg>
