<?xml version="1.0" standalone="no"?>
<!DOCTYPE svg PUBLIC "-//W3C//DTD SVG 20010904//EN"
 "http://www.w3.org/TR/2001/REC-SVG-20010904/DTD/svg10.dtd">
<svg version="1.0" xmlns="http://www.w3.org/2000/svg"
 width="244.000000pt" height="305.000000pt" viewBox="0 0 244.000000 305.000000"
 preserveAspectRatio="xMidYMid meet">
<metadata>
Created by potrace 1.16, written by Peter Selinger 2001-2019
</metadata>
<g transform="translate(0.000000,305.000000) scale(0.100000,-0.100000)"
fill="#000000" stroke="none">
<path d="M1557 2883 c-3 -15 -15 -75 -27 -133 -32 -160 -48 -302 -61 -570
l-12 -244 22 -15 c12 -9 37 -28 55 -43 l33 -27 52 37 52 37 -5 250 c-5 259
-17 373 -62 595 -26 132 -38 160 -47 113z m9 -980 c-2 -3 -23 8 -45 23 l-41
27 0 111 c1 171 17 397 40 551 44 296 45 292 48 -229 1 -264 0 -481 -2 -483z"/>
<path d="M890 2886 c0 -8 -3 -22 -7 -32 -4 -12 -3 -15 5 -10 9 5 12 -108 12
-468 0 -262 -2 -476 -5 -476 -3 0 -23 12 -45 26 l-40 27 0 101 c0 210 27 502
66 726 4 19 4 32 0 29 -14 -13 -55 -282 -65 -429 -18 -263 -23 -460 -12 -460
5 0 31 -16 56 -36 l47 -36 27 25 c14 13 37 30 50 37 l24 12 -6 247 c-7 279
-15 365 -57 573 -17 81 -30 149 -30 152 0 3 -4 6 -10 6 -5 0 -10 -6 -10 -14z"/>
<path d="M1151 2864 c0 -11 3 -14 6 -6 3 7 2 16 -1 19 -3 4 -6 -2 -5 -13z"/>
<path d="M1307 2728 c-4 -79 -7 -190 -8 -248 0 -109 -7 -111 -29 -10 -6 30
-17 72 -23 93 l-11 39 -13 -44 c-31 -105 -53 -221 -61 -328 -7 -94 -9 -52 -10
239 -1 195 -5 352 -8 348 -4 -3 -9 -201 -13 -439 -6 -393 -8 -427 -20 -373 -7
33 -17 71 -23 85 -10 24 -11 24 -18 5 -4 -11 -13 -60 -19 -110 -12 -86 -12
-90 8 -107 12 -9 25 -18 30 -20 5 -2 10 -32 12 -68 4 -60 2 -65 -16 -64 -11 1
-28 5 -37 9 -14 6 -18 2 -18 -17 0 -31 27 -68 50 -68 10 0 28 12 40 28 l21 27
-5 -34 c-3 -18 -6 -46 -6 -62 0 -24 -4 -29 -23 -29 -13 0 -32 -9 -42 -20 -10
-11 -13 -20 -7 -20 7 0 12 -9 12 -20 0 -11 -4 -20 -9 -20 -19 0 -79 83 -86
118 -4 20 -14 45 -22 54 -38 42 25 106 93 95 40 -7 44 -2 32 41 -6 23 -19 37
-42 48 -30 15 -36 15 -69 -1 -25 -12 -40 -28 -49 -51 -14 -40 -25 -43 -34 -10
-11 47 -54 71 -116 67 -27 -2 -58 -38 -58 -66 0 -22 4 -25 40 -25 69 0 147
-94 95 -114 -38 -14 -1 -143 65 -226 17 -21 30 -41 30 -45 0 -4 -16 -25 -35
-48 -53 -61 -45 -116 20 -137 49 -16 69 -7 61 28 -17 84 -17 88 -3 100 18 15
77 -3 77 -25 0 -8 -4 -12 -9 -9 -5 3 -18 -25 -30 -63 -18 -58 -25 -70 -51 -81
-36 -15 -63 -1 -105 54 -23 30 -27 47 -30 121 -3 47 -9 94 -15 105 -14 27 -64
26 -91 -1 -33 -33 -21 -94 36 -187 123 -199 124 -204 27 -370 -38 -64 -102
-174 -142 -245 -40 -70 -75 -125 -78 -123 -4 5 64 227 113 365 20 59 26 66 60
78 54 19 62 28 70 83 9 66 -7 111 -67 187 -83 105 -97 166 -53 231 14 20 25
44 25 53 0 38 -106 53 -140 19 -25 -25 -25 -45 1 -126 23 -72 20 -117 -11
-156 -24 -31 -354 -228 -381 -228 -5 0 55 59 133 131 l142 131 44 -6 45 -6 -7
98 c-4 53 -12 102 -18 107 -7 7 -9 -18 -5 -83 l6 -93 -32 6 c-34 7 -57 -11
-258 -199 -41 -39 -92 -86 -113 -104 -21 -18 -36 -36 -33 -38 3 -3 111 29 241
71 223 72 236 78 236 101 0 35 21 39 76 14 60 -26 81 -45 106 -93 22 -44 15
-61 -32 -70 -28 -6 -31 -13 -75 -154 -26 -81 -61 -195 -80 -253 -18 -58 -36
-121 -40 -140 -8 -41 -21 -52 131 116 230 253 259 288 258 303 -1 9 -4 33 -9
54 l-7 37 95 0 c101 0 109 -4 101 -51 -6 -39 -34 -416 -33 -446 1 -26 2 -25 9
7 5 19 6 46 4 60 -5 20 -3 22 6 10 8 -12 10 -7 5 20 -3 19 1 73 9 120 12 74
22 81 16 11 -1 -13 2 -21 8 -17 10 6 13 -7 67 -279 53 -269 46 -263 84 -80 18
88 43 210 55 270 l23 110 11 -40 c6 -22 20 -78 31 -125 11 -47 18 -65 15 -40
-4 25 -6 70 -6 100 1 38 -1 49 -7 35 -6 -15 -10 -1 -15 50 -4 39 -14 110 -23
159 l-16 90 23 18 c18 15 40 18 117 18 l96 0 -8 -32 c-4 -18 -9 -42 -11 -53
-3 -14 21 -48 83 -116 49 -53 120 -132 158 -175 39 -43 90 -99 113 -124 43
-44 44 -45 37 -15 -6 29 -71 241 -138 448 -29 89 -34 99 -59 104 -40 8 -51 25
-38 59 17 45 69 92 122 110 54 18 68 13 68 -21 0 -22 16 -29 238 -100 130 -43
242 -80 247 -83 27 -15 -36 47 -200 195 -169 154 -182 164 -212 158 l-31 -6 5
98 c3 71 2 94 -6 83 -6 -8 -11 -31 -11 -50 0 -20 -7 -62 -15 -93 -8 -32 -15
-63 -15 -70 0 -13 23 -28 257 -173 79 -48 141 -89 139 -91 -4 -4 -366 123
-374 131 -2 3 0 17 6 33 8 25 6 31 -21 53 -40 35 -47 101 -18 184 26 74 26
101 1 126 -33 33 -140 21 -140 -15 0 -9 11 -33 25 -53 45 -67 31 -128 -58
-242 -43 -55 -58 -83 -72 -139 -9 -39 -14 -80 -10 -93 6 -19 163 -307 242
-445 14 -24 23 -43 20 -43 -3 0 -52 53 -108 117 -56 65 -114 132 -128 148 -61
69 -79 100 -71 120 5 11 9 52 9 90 1 95 9 117 85 245 78 129 92 184 57 219
-16 16 -32 21 -54 19 -29 -3 -32 -6 -42 -59 -6 -30 -15 -60 -18 -66 -4 -6 -3
-23 3 -38 13 -33 -5 -70 -55 -114 -41 -36 -57 -38 -94 -12 -15 11 -35 19 -46
18 -21 -2 -44 55 -43 108 l0 30 7 -27 c4 -21 10 -25 20 -18 12 7 13 11 1 24
-15 19 -15 18 24 34 45 20 50 10 43 -98 -2 -29 2 -36 20 -38 32 -5 82 25 89
53 8 31 -10 76 -42 106 -31 29 -30 38 7 85 45 57 69 109 76 164 5 40 3 51 -11
56 -27 10 -19 53 16 86 27 25 38 29 77 27 44 -3 46 -2 43 21 -6 42 -30 69 -67
76 -29 5 -41 1 -70 -20 -19 -15 -38 -38 -41 -51 -8 -32 -22 -32 -30 -1 -23 92
-160 92 -167 0 -2 -28 -1 -29 39 -26 69 6 131 -63 89 -98 -8 -7 -15 -21 -15
-32 0 -33 -70 -148 -90 -148 -17 0 -18 40 -2 49 15 9 15 11 -3 25 -19 14 -25
16 -57 20 -9 1 -14 22 -16 59 l-3 57 25 -25 c14 -14 29 -25 35 -25 16 0 40 29
47 56 8 32 1 38 -26 24 -38 -20 -50 -6 -50 59 0 56 2 61 30 78 27 16 30 22 30
69 0 28 -5 75 -10 104 -18 94 -27 84 -52 -57 -10 -58 -21 -109 -24 -112 -3 -3
-3 12 0 34 5 30 4 35 -3 20 -7 -13 -10 143 -9 458 0 263 -1 480 -4 482 -3 3
-8 -59 -11 -137z m-80 -235 c-3 -10 -5 -4 -5 12 0 17 2 24 5 18 2 -7 2 -21 0
-30z m-8 -260 c-2 -242 -9 -310 -20 -193 -4 39 -5 15 -3 -60 1 -69 6 -144 9
-168 9 -51 -2 -104 -16 -81 -7 11 -9 10 -9 -6 0 -33 12 -65 21 -59 5 3 9 -6 9
-19 0 -20 -4 -24 -20 -20 -14 4 -20 14 -22 37 -2 59 3 91 19 103 12 9 14 21 8
50 -4 21 -10 42 -13 48 -11 18 -1 387 14 485 8 52 14 101 14 108 0 6 3 12 6
12 3 0 4 -107 3 -237z m-77 -348 c3 -13 1 -22 -3 -19 -9 5 -13 44 -5 44 2 0 6
-11 8 -25z m-209 -319 c16 -30 53 -78 83 -106 35 -33 54 -59 53 -73 0 -12 -3
-16 -6 -9 -2 6 -10 12 -17 12 -17 0 -109 98 -129 136 -19 37 -31 94 -20 94 4
0 21 -25 36 -54z m642 22 c-13 -57 -65 -134 -119 -176 -68 -52 -61 -12 10 62
31 31 65 77 75 102 23 52 44 59 34 12z m-375 3 c0 -3 -4 -12 -9 -19 -7 -11
-10 -10 -15 3 -10 26 -7 35 9 29 8 -4 15 -9 15 -13z m99 7 c0 -7 -4 -22 -8
-33 -8 -19 -8 -19 -15 2 -8 24 -1 43 15 43 5 0 9 -6 8 -12z m18 -10 c-3 -8 -6
-5 -6 6 -1 11 2 17 5 13 3 -3 4 -12 1 -19z m-174 -91 c14 -55 19 -147 9 -147
-17 0 -25 21 -13 33 17 17 13 36 -13 60 -18 17 -22 29 -19 54 6 36 28 36 36 0z
m197 -57 c-17 -17 -21 -29 -16 -55 4 -19 2 -36 -4 -40 -13 -8 -13 32 0 109 11
70 33 94 38 41 2 -24 -3 -40 -18 -55z m-103 43 c-3 -10 -5 -4 -5 12 0 17 2 24
5 18 2 -7 2 -21 0 -30z m-140 -105 c-3 -8 -6 -5 -6 6 -1 11 2 17 5 13 3 -3 4
-12 1 -19z m270 -10 c-3 -8 -6 -5 -6 6 -1 11 2 17 5 13 3 -3 4 -12 1 -19z
m-190 -60 c-3 -8 -6 -5 -6 6 -1 11 2 17 5 13 3 -3 4 -12 1 -19z m120 0 c-3 -8
-6 -5 -6 6 -1 11 2 17 5 13 3 -3 4 -12 1 -19z m-220 -45 c-3 -10 -5 -4 -5 12
0 17 2 24 5 18 2 -7 2 -21 0 -30z m41 -33 c0 -22 -1 -22 -8 5 -4 17 -8 39 -8
50 0 16 2 15 8 -5 4 -14 8 -36 8 -50z m249 48 c-3 -8 -6 -5 -6 6 -1 11 2 17 5
13 3 -3 4 -12 1 -19z m-10 -50 c-3 -7 -5 -2 -5 12 0 14 2 19 5 13 2 -7 2 -19
0 -25z m-292 -28 c-4 -17 -9 -29 -12 -26 -3 2 -2 19 2 36 4 17 9 29 12 26 3
-2 2 -19 -2 -36z m103 4 c18 11 25 -15 8 -32 -19 -19 -22 -16 -31 23 -5 21 -4
26 3 16 5 -7 14 -11 20 -7z m155 -16 c-3 -16 -9 -28 -13 -28 -9 0 -35 29 -29
33 31 18 44 24 46 23 1 0 -1 -13 -4 -28z m24 0 c-3 -8 -6 -5 -6 6 -1 11 2 17
5 13 3 -3 4 -12 1 -19z m-220 -20 c-3 -7 -5 -2 -5 12 0 14 2 19 5 13 2 -7 2
-19 0 -25z m248 -68 c-4 -12 -9 -19 -12 -17 -3 3 -2 15 2 27 4 12 9 19 12 17
3 -3 2 -15 -2 -27z m-265 -12 c0 -5 -4 -8 -10 -8 -5 0 -10 10 -10 23 0 18 2
19 10 7 5 -8 10 -18 10 -22z m128 -169 c-3 -8 -7 -3 -11 10 -4 17 -3 21 5 13
5 -5 8 -16 6 -23z m-89 -71 c-17 -32 -29 -30 -29 5 0 42 9 52 26 29 8 -11 9
-23 3 -34z m65 -5 c-10 -35 -11 -69 -2 -313 l7 -195 -23 113 c-13 62 -31 143
-40 180 -18 78 -27 180 -15 160 7 -10 9 -8 9 6 0 20 46 76 63 76 5 0 6 -11 1
-27z"/>
<path d="M1163 2620 c0 -25 2 -35 4 -22 2 12 2 32 0 45 -2 12 -4 2 -4 -23z"/>
<path d="M1332 2500 c0 -19 2 -27 5 -17 2 9 2 25 0 35 -3 9 -5 1 -5 -18z"/>
<path d="M1332 2440 c0 -14 2 -19 5 -12 2 6 2 18 0 25 -3 6 -5 1 -5 -13z"/>
<path d="M1441 1204 c0 -11 3 -14 6 -6 3 7 2 16 -1 19 -3 4 -6 -2 -5 -13z"/>
<path d="M1372 835 c0 -16 2 -22 5 -12 2 9 2 23 0 30 -3 6 -5 -1 -5 -18z"/>
<path d="M1383 715 c0 -22 2 -30 4 -17 2 12 2 30 0 40 -3 9 -5 -1 -4 -23z"/>
<path d="M1095 600 c-4 -23 -5 -43 -2 -46 2 -3 7 14 11 37 4 23 5 44 2 46 -2
2 -7 -14 -11 -37z"/>
</g>
</svg>
