<?xml version="1.0" standalone="no"?>
<!DOCTYPE svg PUBLIC "-//W3C//DTD SVG 20010904//EN"
 "http://www.w3.org/TR/2001/REC-SVG-20010904/DTD/svg10.dtd">
<svg version="1.0" xmlns="http://www.w3.org/2000/svg"
 width="244.000000pt" height="305.000000pt" viewBox="0 0 244.000000 305.000000"
 preserveAspectRatio="xMidYMid meet">
<metadata>
Created by potrace 1.16, written by Peter Selinger 2001-2019
</metadata>
<g transform="translate(0.000000,305.000000) scale(0.100000,-0.100000)"
fill="#000000" stroke="none">
<path d="M982 2902 c-6 -5 -13 -28 -14 -52 -2 -25 -6 -50 -10 -56 -13 -20 -38
-250 -42 -379 -3 -110 -2 -117 4 -45 7 82 7 42 -2 -329 -2 -61 -4 -41 -8 69
l-6 155 -2 -168 -2 -169 42 -39 c23 -21 42 -39 43 -39 0 0 20 18 44 40 l44 39
-7 233 c-8 282 -17 419 -26 413 -4 -2 -5 7 -2 20 6 34 -8 136 -18 130 -8 -5
-9 1 -13 107 -3 72 -6 81 -25 70z m-25 -209 c-3 -10 -5 -2 -5 17 0 19 2 27 5
18 2 -10 2 -26 0 -35z m70 -55 c-3 -8 -6 -5 -6 6 -1 11 2 17 5 13 3 -3 4 -12
1 -19z m-90 -145 c-2 -16 -4 -5 -4 22 0 28 2 40 4 28 2 -13 2 -35 0 -50z"/>
<path d="M1491 2902 c-1 -7 -5 -11 -10 -8 -30 19 -81 -498 -81 -814 l0 -155
40 -39 39 -39 43 38 c24 21 45 42 48 46 12 17 -10 535 -29 696 -19 151 -48
312 -50 275z m5 -524 c5 -409 2 -496 -17 -467 -5 8 -9 192 -9 414 0 363 5 484
17 471 3 -2 7 -190 9 -418z"/>
<path d="M1012 2800 c0 -14 2 -19 5 -12 2 6 2 18 0 25 -3 6 -5 1 -5 -13z"/>
<path d="M1226 2584 c-22 -70 -47 -304 -53 -497 -3 -119 -7 -216 -9 -214 -1 1
-9 53 -17 115 -20 151 -29 160 -46 52 -18 -111 -15 -153 15 -179 22 -19 25
-28 22 -74 -3 -50 -4 -52 -33 -52 -27 0 -30 -3 -27 -30 7 -57 46 -74 75 -32
16 22 16 21 16 -19 1 -28 6 -44 16 -48 9 -3 23 -22 31 -41 8 -19 17 -35 20
-35 3 0 10 14 16 30 5 17 19 35 29 41 14 7 19 21 20 52 0 41 0 42 16 20 30
-44 73 -19 73 41 0 27 -18 34 -37 15 -16 -16 -23 1 -25 60 -2 46 1 54 26 75
l29 23 -7 88 c-11 153 -28 178 -44 68 -29 -187 -27 -189 -35 37 -7 205 -36
472 -56 507 -8 14 -9 14 -15 -3z"/>
<path d="M855 1844 c-15 -16 -25 -39 -25 -55 0 -27 3 -29 40 -29 35 0 43 -5
60 -32 21 -34 26 -68 11 -68 -34 0 -14 -118 36 -210 l35 -66 -22 -37 c-28 -47
-39 -38 -49 38 -4 31 -14 60 -21 65 -16 10 -50 1 -74 -19 -17 -14 -16 -11 4
28 21 43 21 44 3 63 -11 11 -35 19 -58 20 -62 2 -75 -23 -76 -146 l-2 -101 -8
84 c-4 46 -10 86 -13 89 -3 3 -6 -34 -6 -81 0 -82 -1 -87 -21 -87 -12 0 -30
-10 -41 -22 -11 -13 -29 -34 -41 -48 -20 -23 -78 -93 -132 -159 -11 -14 -38
-44 -59 -68 -37 -41 -44 -71 -11 -43 14 11 19 7 16 -12 -2 -12 -3 -12 145 55
208 95 214 99 214 119 0 46 66 6 101 -61 24 -47 20 -67 -16 -81 -29 -11 -30
-13 -49 -100 -8 -36 -24 -103 -36 -150 -73 -289 -85 -355 -59 -307 15 27 30
20 24 -10 -6 -26 -5 -26 6 -8 7 11 17 25 23 31 6 7 29 42 51 78 22 36 77 123
123 193 75 116 82 131 76 163 -13 67 -14 65 53 65 47 0 66 -5 83 -20 38 -35
41 -49 15 -86 -27 -38 -27 -28 19 -324 8 -55 22 -145 31 -200 20 -133 27 -167
31 -162 3 3 70 421 94 587 9 60 8 66 -16 97 -28 37 -24 56 22 92 20 16 41 21
82 21 l55 0 -7 -50 c-5 -38 -3 -56 11 -77 9 -16 49 -77 88 -138 39 -60 93
-145 121 -187 41 -64 50 -74 54 -56 5 20 7 19 28 -13 l23 -34 -6 35 c-3 19
-24 107 -45 195 -21 88 -48 202 -60 253 -20 82 -26 95 -51 108 -21 11 -29 22
-29 42 0 34 31 86 64 107 25 16 52 13 41 -5 -3 -5 23 -24 57 -41 70 -35 259
-119 269 -119 4 0 9 7 12 14 4 10 -6 22 -26 35 -31 19 -75 73 -45 55 41 -25
88 -70 84 -81 -3 -8 9 -19 31 -28 60 -25 57 -15 -19 70 -15 17 -55 64 -90 105
-34 41 -65 77 -68 80 -3 3 -21 23 -40 45 -23 27 -42 40 -59 40 l-26 0 4 90 c2
50 0 87 -3 84 -3 -3 -11 -41 -16 -84 -9 -75 -22 -106 -36 -92 -3 3 1 49 10
103 15 87 15 98 1 120 -13 20 -24 24 -63 24 -64 0 -87 -17 -79 -58 6 -30 5
-31 -31 -34 -35 -3 -37 -5 -45 -48 -5 -25 -11 -56 -13 -69 l-5 -25 -24 30
c-13 16 -24 34 -25 41 0 6 18 47 40 90 49 95 61 164 34 194 -18 20 -18 21 1
57 16 30 28 38 63 45 38 7 42 11 42 38 0 37 -32 69 -68 69 -31 0 -51 -13 -76
-50 -9 -13 -16 -19 -16 -12 0 22 -48 62 -74 62 -31 0 -66 -43 -66 -81 0 -27 3
-29 38 -29 34 0 41 -4 57 -34 18 -33 18 -36 2 -54 -9 -10 -17 -30 -17 -45 0
-46 -49 -133 -96 -172 -26 -22 -36 -65 -17 -72 16 -6 91 63 126 117 26 39 28
41 22 16 -12 -55 -70 -121 -133 -152 -28 -13 -33 -20 -29 -40 2 -13 0 -24 -4
-24 -13 0 -10 107 4 160 10 37 19 48 50 63 44 22 46 31 12 53 -46 30 -87 -1
-111 -86 -6 -23 -8 -21 -29 25 -27 62 -47 79 -80 71 -33 -8 -53 -44 -28 -52
35 -11 48 -21 61 -47 16 -33 29 -187 15 -187 -6 0 -8 11 -5 25 3 20 -1 27 -22
35 -62 23 -121 85 -136 143 l-9 32 17 -25 c30 -46 121 -132 134 -127 23 8 9
46 -32 88 -43 44 -80 116 -80 154 0 13 -8 37 -17 53 -16 28 -16 31 0 56 14 21
25 26 57 26 38 0 40 2 40 30 0 38 -39 80 -75 80 -19 0 -31 -9 -47 -36 l-21
-36 -14 26 c-27 52 -81 60 -118 20z m295 -585 c0 -28 5 -38 20 -42 31 -8 27
-53 -5 -61 -14 -4 -26 -14 -26 -24 -1 -9 -4 -3 -8 13 -7 36 -40 45 -76 21 -39
-26 -53 -19 -86 37 -10 18 -9 18 15 2 14 -9 35 -15 48 -13 21 3 23 7 20 57 -4
79 -2 82 52 63 43 -16 46 -19 46 -53z m266 6 c-7 -74 3 -87 55 -68 34 13 36 7
10 -26 l-19 -25 -40 18 c-57 26 -76 19 -83 -29 -4 -28 -7 -32 -8 -14 -1 20 -8
29 -26 33 -20 5 -25 13 -25 36 0 23 4 30 20 30 16 0 20 7 20 38 0 35 3 39 43
54 23 9 46 17 51 17 5 1 6 -28 2 -64z m365 -42 c61 -52 179 -173 179 -184 0
-19 -168 104 -177 130 -4 9 -17 29 -30 44 -20 25 -30 47 -20 47 2 0 24 -17 48
-37z m-1231 -85 c-43 -60 -51 -70 -85 -98 -30 -26 -21 -8 18 35 11 11 33 39
50 63 17 23 34 42 39 42 5 0 -5 -19 -22 -42z m195 3 c3 -5 1 -12 -5 -16 -5 -3
-10 1 -10 9 0 18 6 21 15 7z m456 -113 c4 -25 12 -56 19 -68 17 -31 31 -13 45
57 7 33 17 59 26 61 11 4 12 2 2 -9 -7 -7 -13 -31 -13 -53 0 -45 -34 -111 -51
-100 -17 10 -39 70 -39 107 0 18 -6 39 -12 46 -11 11 -10 13 2 9 9 -3 18 -23
21 -50z m384 -158 c78 -176 122 -300 106 -300 -11 0 -71 124 -125 261 -38 95
-46 126 -45 175 l1 59 9 -45 c4 -25 29 -92 54 -150z m-768 -27 c-59 -255 -72
-306 -83 -321 -9 -12 -8 5 5 53 10 39 28 113 40 165 33 137 45 180 49 175 3
-3 -2 -35 -11 -72z m-13 -293 c-15 -22 -29 -40 -31 -40 -5 0 3 15 29 53 30 43
31 32 2 -13z m935 -40 c11 -24 11 -24 -3 -6 -9 11 -16 24 -16 30 0 12 5 7 19
-24z"/>
</g>
</svg>
