<?xml version="1.0" standalone="no"?>
<!DOCTYPE svg PUBLIC "-//W3C//DTD SVG 20010904//EN"
 "http://www.w3.org/TR/2001/REC-SVG-20010904/DTD/svg10.dtd">
<svg version="1.0" xmlns="http://www.w3.org/2000/svg"
 width="244.000000pt" height="305.000000pt" viewBox="0 0 244.000000 305.000000"
 preserveAspectRatio="xMidYMid meet">
<metadata>
Created by potrace 1.16, written by Peter Selinger 2001-2019
</metadata>
<g transform="translate(0.000000,305.000000) scale(0.100000,-0.100000)"
fill="#000000" stroke="none">
<path d="M890 2903 c-3 -17 -3 -52 0 -55 1 -2 3 -213 5 -470 3 -313 1 -470 -6
-474 -6 -3 -20 3 -32 13 -12 11 -30 23 -39 26 -14 5 -18 18 -18 64 1 148 21
442 40 578 21 161 22 171 16 164 -3 -2 -14 -60 -25 -129 -25 -155 -39 -337
-40 -540 l-2 -155 55 -36 c54 -36 55 -36 73 -17 9 10 32 26 52 35 l34 17 -6
205 c-4 113 -12 258 -17 321 -15 164 -83 505 -90 453z"/>
<path d="M1568 2898 c-3 -7 -2 -22 3 -33 11 -28 11 -965 0 -965 -5 0 -28 12
-50 27 -41 26 -41 27 -41 87 0 141 21 443 39 567 31 210 33 235 16 164 -38
-160 -65 -445 -65 -686 l0 -135 35 -17 c20 -9 38 -24 41 -32 8 -21 37 -19 58
4 10 11 31 25 47 31 l29 12 0 112 c0 257 -35 594 -81 784 -24 96 -24 98 -31
80z"/>
<path d="M1177 2553 c-3 -142 -10 -305 -16 -363 -6 -58 -11 -153 -12 -211 -1
-114 -13 -161 -23 -93 -18 111 -38 210 -46 217 -10 11 -30 -77 -36 -158 -5
-59 -4 -60 28 -80 21 -13 34 -31 39 -52 14 -69 -12 -110 -54 -84 -28 18 -40 1
-26 -37 16 -48 67 -54 90 -11 17 33 30 21 24 -22 -4 -35 -2 -42 15 -46 13 -3
20 -14 20 -29 0 -22 -1 -22 -31 -10 -35 15 -73 10 -90 -10 -14 -17 -15 -17 36
-35 37 -14 40 -18 43 -57 l3 -42 -35 21 c-34 20 -115 107 -128 138 -4 9 -7 27
-7 41 -1 14 -10 33 -21 43 -27 23 -25 33 10 69 26 26 36 30 75 26 52 -4 59 6
38 50 -10 20 -27 35 -49 42 -47 16 -83 -3 -110 -59 -19 -40 -22 -42 -28 -23
-4 12 -19 36 -33 52 -21 26 -32 30 -73 30 -55 0 -80 -23 -80 -72 0 -27 2 -28
39 -22 46 7 84 -13 107 -59 15 -27 14 -30 -6 -52 -18 -20 -21 -31 -15 -61 10
-53 41 -115 81 -162 19 -22 34 -43 34 -45 0 -3 -18 -27 -40 -52 -46 -53 -50
-82 -17 -113 53 -50 124 -32 98 24 -13 29 -14 64 -3 81 6 9 25 7 79 -9 40 -12
71 -24 69 -27 -2 -3 -7 -30 -10 -59 -12 -106 -18 -135 -27 -119 -5 8 -8 25 -7
38 4 31 -39 35 -97 8 -55 -26 -79 -19 -121 37 -22 29 -29 49 -31 88 0 28 -5
76 -10 106 l-8 55 -39 0 c-30 0 -43 -6 -58 -26 -29 -39 -16 -82 68 -221 101
-168 102 -155 -33 -380 -45 -76 -106 -179 -135 -230 -28 -51 -53 -88 -55 -82
-2 5 28 104 65 219 l68 209 47 15 c52 16 67 42 67 118 0 51 -18 89 -69 153
-56 69 -71 96 -77 144 -5 36 -2 50 20 82 31 46 33 70 7 84 -33 17 -106 12
-124 -8 -22 -24 -21 -49 4 -128 35 -108 15 -154 -91 -218 -34 -20 -63 -36 -66
-36 -2 0 -21 -10 -42 -23 -58 -36 -212 -119 -212 -114 0 3 65 64 145 137 l145
132 47 -7 46 -7 -6 69 c-4 37 -7 85 -7 106 0 21 -5 37 -11 37 -9 0 -10 -26 -6
-90 l6 -91 -32 6 c-30 6 -41 -1 -137 -86 -175 -154 -280 -252 -276 -257 5 -4
48 9 329 99 119 39 157 55 157 67 1 40 15 46 65 27 86 -32 154 -115 125 -150
-7 -8 -20 -15 -30 -15 -9 0 -24 -8 -32 -17 -12 -15 -83 -228 -167 -500 -19
-64 -14 -80 12 -42 8 11 50 58 94 103 117 123 256 276 274 303 14 21 14 29 3
61 -7 20 -9 41 -4 46 4 4 49 6 98 5 73 -3 96 -8 119 -25 39 -29 41 -60 7 -95
l-27 -29 21 -103 c12 -57 22 -123 22 -146 0 -24 4 -40 9 -36 6 3 13 -11 17
-32 15 -86 64 -327 67 -330 2 -1 15 54 30 125 56 272 50 250 58 217 5 -22 7
-12 8 37 0 36 10 112 21 168 l20 102 -30 35 c-28 31 -30 37 -17 56 26 40 76
57 164 57 91 0 98 -5 77 -59 -13 -31 -13 -36 4 -55 17 -20 277 -306 351 -389
19 -20 36 -35 39 -33 4 5 -154 520 -169 548 -5 9 -25 22 -44 28 -39 13 -42 26
-19 76 20 42 60 72 120 90 l45 13 10 -29 c10 -28 22 -33 227 -99 304 -98 291
-97 202 -14 -41 38 -129 118 -195 177 -111 99 -122 106 -152 101 l-33 -6 7 91
c4 65 3 90 -6 90 -6 0 -11 -16 -11 -38 0 -21 -7 -64 -15 -95 -8 -32 -15 -66
-15 -75 0 -12 44 -45 128 -96 240 -149 272 -169 269 -173 -2 -2 -80 24 -173
58 -93 34 -177 63 -187 66 -15 5 -17 12 -13 38 6 28 2 38 -24 63 -37 37 -40
89 -10 184 25 79 25 93 0 118 -26 26 -99 27 -129 3 -19 -17 -20 -20 -6 -43 60
-103 54 -148 -36 -260 -62 -78 -76 -110 -86 -196 -6 -57 -5 -59 184 -387 41
-71 72 -131 70 -133 -5 -5 -112 113 -231 253 -65 77 -76 96 -70 115 4 13 8 59
9 103 2 91 17 130 105 270 41 66 50 88 50 126 0 32 -6 51 -18 62 -22 20 -67
22 -79 5 -15 -24 -32 -123 -26 -156 7 -42 -33 -106 -81 -128 -30 -15 -36 -15
-64 0 -17 9 -49 16 -72 16 -38 0 -40 -1 -41 -32 0 -18 -3 -26 -6 -18 -4 8 -12
20 -19 25 -19 14 -30 75 -14 75 9 0 11 11 8 37 l-5 38 66 22 c93 30 103 18 76
-88 -6 -23 -3 -27 19 -33 31 -8 81 15 97 45 13 25 -2 67 -33 96 -41 37 -42 51
-3 98 19 24 44 63 55 87 24 53 27 133 5 142 -24 9 -17 36 20 73 30 30 40 34
77 31 40 -2 43 -1 46 24 4 30 -28 65 -67 75 -34 8 -85 -22 -104 -63 -21 -43
-32 -43 -43 -1 -7 23 -20 37 -46 50 -33 16 -40 17 -72 3 -27 -11 -38 -23 -42
-45 -9 -42 -5 -46 43 -43 34 3 47 -1 68 -22 28 -28 33 -71 10 -80 -8 -3 -15
-17 -15 -32 0 -47 -54 -122 -127 -174 l-44 -32 3 42 c3 45 12 54 61 65 35 7
34 21 -1 39 -23 12 -33 12 -65 1 -36 -12 -37 -12 -37 11 0 14 6 24 14 24 19 0
26 21 20 59 -3 18 -1 31 5 31 6 0 11 -4 11 -10 0 -5 11 -17 25 -26 35 -23 63
-10 71 32 7 39 0 54 -18 36 -33 -33 -68 -1 -68 62 0 36 8 47 59 85 l24 18 -15
102 c-24 153 -29 151 -58 -14 -12 -66 -25 -124 -30 -128 -4 -5 -11 72 -15 170
-3 98 -12 219 -18 268 -7 50 -12 180 -12 289 0 109 -3 181 -7 160 -4 -21 -7
-86 -8 -144 l-1 -105 -19 55 c-10 30 -18 48 -19 40 -12 -152 -18 -922 -7 -964
6 -25 5 -28 -7 -17 -20 16 -26 75 -15 139 5 29 8 67 6 85 l-4 32 -12 -25 c-12
-24 -12 -23 -7 10 3 19 5 134 5 255 0 121 4 249 10 285 20 123 23 145 15 138
-4 -4 -11 -22 -15 -40 -5 -20 -8 36 -7 139 1 95 -2 175 -5 178 -3 3 -8 -110
-11 -252z m-7 -683 c-6 -10 -9 15 -8 70 l1 85 8 -70 c4 -39 4 -76 -1 -85z m10
-171 c0 -44 -4 -68 -10 -64 -18 11 -12 135 7 135 2 0 3 -32 3 -71z m-252 -129
c29 -61 112 -143 175 -172 52 -24 65 -50 20 -42 -100 18 -233 155 -233 239 0
38 12 30 38 -25z m652 31 c0 -83 -131 -222 -232 -246 -45 -11 -34 20 13 39 58
24 164 128 185 182 17 46 34 58 34 25z m-362 -91 c0 -22 -1 -22 -8 5 -4 17 -8
39 -8 50 0 16 2 15 8 -5 4 -14 8 -36 8 -50z m49 38 c-3 -7 -5 -2 -5 12 0 14 2
19 5 13 2 -7 2 -19 0 -25z m-10 -40 c-3 -8 -6 -5 -6 6 -1 11 2 17 5 13 3 -3 4
-12 1 -19z m-20 -35 c-3 -10 -5 -2 -5 17 0 19 2 27 5 18 2 -10 2 -26 0 -35z
m70 -165 c-3 -8 -6 -5 -6 6 -1 11 2 17 5 13 3 -3 4 -12 1 -19z m-170 -150 c-2
-13 -4 -5 -4 17 -1 22 1 32 4 23 2 -10 2 -28 0 -40z m33 -100 c0 -12 -1 -19
-3 -17 -1 2 -9 12 -16 22 -12 14 -11 17 3 17 10 0 16 -8 16 -22z m160 13 c0
-5 -7 -11 -15 -15 -9 -3 -15 0 -15 9 0 8 7 15 15 15 8 0 15 -4 15 -9z m-93
-153 c-3 -8 -6 -5 -6 6 -1 11 2 17 5 13 3 -3 4 -12 1 -19z m-14 -327 c3 -161
4 -292 2 -290 -2 3 -16 63 -32 134 -23 109 -28 152 -27 265 1 128 2 136 25
162 13 15 24 26 25 25 1 -1 4 -134 7 -296z m-75 107 c-3 -43 -3 -43 -15 20
-10 50 -10 68 0 83 11 18 12 16 15 -21 2 -22 2 -59 0 -82z"/>
<path d="M1182 800 c0 -14 2 -19 5 -12 2 6 2 18 0 25 -3 6 -5 1 -5 -13z"/>
<path d="M1172 720 c0 -14 2 -19 5 -12 2 6 2 18 0 25 -3 6 -5 1 -5 -13z"/>
<path d="M862 2780 c0 -14 2 -19 5 -12 2 6 2 18 0 25 -3 6 -5 1 -5 -13z"/>
<path d="M1351 1174 c0 -11 3 -14 6 -6 3 7 2 16 -1 19 -3 4 -6 -2 -5 -13z"/>
<path d="M1142 470 c0 -14 2 -19 5 -12 2 6 2 18 0 25 -3 6 -5 1 -5 -13z"/>
</g>
</svg>
