<?xml version="1.0" standalone="no"?>
<!DOCTYPE svg PUBLIC "-//W3C//DTD SVG 20010904//EN"
 "http://www.w3.org/TR/2001/REC-SVG-20010904/DTD/svg10.dtd">
<svg version="1.0" xmlns="http://www.w3.org/2000/svg"
 width="244.000000pt" height="305.000000pt" viewBox="0 0 244.000000 305.000000"
 preserveAspectRatio="xMidYMid meet">
<metadata>
Created by potrace 1.16, written by Peter Selinger 2001-2019
</metadata>
<g transform="translate(0.000000,305.000000) scale(0.100000,-0.100000)"
fill="#000000" stroke="none">
<path d="M1528 2404 c2 -326 -1 -504 -7 -504 -21 0 -26 30 -32 175 l-5 150 -2
-143 c-2 -110 -5 -143 -14 -140 -17 6 -22 150 -11 338 6 124 8 136 13 80 4
-45 7 -2 12 135 4 110 9 216 12 235 3 19 -2 6 -10 -30 -18 -77 -32 -225 -43
-445 -7 -129 -8 -83 -7 233 0 215 -2 392 -6 392 -5 0 -8 -8 -8 -17 -1 -10 -7
-67 -15 -128 -8 -60 -19 -216 -25 -345 -6 -129 -16 -266 -22 -305 l-12 -70
-10 44 -10 45 -11 -40 c-10 -35 -12 -23 -18 111 -7 171 -48 437 -64 421 -6 -6
-27 -105 -44 -203 -6 -37 -14 -126 -18 -198 -6 -104 -9 -125 -18 -105 -9 23
-11 21 -18 -25 -8 -49 -8 -49 -17 -20 -5 17 -13 82 -17 145 l-8 115 -1 -108
c-2 -124 -18 -241 -38 -277 -12 -21 -13 47 -13 474 0 274 -2 500 -4 503 -3 2
-10 -49 -17 -114 -15 -140 -25 -166 -34 -89 -3 31 -14 91 -23 133 -15 67 -18
73 -25 48 -4 -15 -4 -33 0 -39 11 -17 13 -924 2 -931 -5 -3 -20 3 -32 14 -12
12 -25 21 -30 21 -22 0 -2 529 27 700 17 94 19 161 5 100 -26 -105 -46 -336
-56 -622 l-6 -196 28 -15 c39 -20 65 -53 58 -72 -8 -19 -10 -19 -34 5 -46 46
-120 14 -120 -52 0 -25 2 -26 35 -21 30 5 39 1 65 -27 33 -36 38 -63 14 -87
-12 -13 -15 -28 -10 -62 5 -41 4 -47 -16 -56 -13 -6 -24 -21 -26 -35 -2 -14
-13 -33 -24 -43 -29 -28 -40 -67 -33 -114 7 -45 -8 -65 -24 -34 -18 33 -13
113 9 146 25 37 25 54 3 71 -28 21 -80 17 -104 -7 -23 -23 -23 -33 4 -154 26
-114 15 -128 -246 -296 -60 -38 -107 -65 -105 -61 1 5 57 66 123 136 119 126
120 127 157 122 l38 -6 -1 72 c0 40 -3 91 -7 113 -7 34 -9 37 -14 17 -4 -13
-5 -35 -3 -50 2 -15 5 -47 6 -72 3 -44 3 -45 -25 -42 -23 3 -38 -7 -78 -50
-28 -29 -82 -87 -122 -128 -134 -142 -150 -160 -145 -164 3 -3 79 23 171 58
174 66 218 81 218 70 0 -4 -21 -35 -46 -71 -25 -35 -44 -67 -41 -69 3 -3 57
24 121 60 64 36 120 66 124 66 11 0 28 -39 28 -60 -1 -8 -15 -21 -33 -29 -27
-12 -34 -23 -47 -75 -9 -34 -29 -110 -46 -171 -66 -240 -87 -325 -81 -325 3 1
49 55 101 122 52 67 105 133 117 147 l22 26 1 -25 c0 -14 -9 -68 -19 -120 -31
-155 -33 -176 -23 -165 6 6 56 100 113 210 56 110 106 205 111 212 5 7 6 37 3
67 -7 53 -6 56 14 56 37 0 85 -26 100 -53 12 -23 11 -28 -14 -61 l-27 -36 57
-323 c31 -177 58 -323 60 -325 2 -2 8 30 15 70 7 40 32 183 57 318 24 135 41
255 38 267 -3 12 -14 27 -25 33 -53 28 11 110 86 110 26 0 26 -1 20 -51 -6
-47 -4 -56 47 -152 30 -56 81 -152 113 -214 32 -62 60 -111 61 -109 2 1 -8 63
-22 136 -14 73 -25 142 -25 152 0 13 49 -44 128 -145 70 -90 128 -161 130
-157 3 8 -32 147 -88 345 -5 17 -17 64 -28 106 -24 95 -36 117 -67 125 -14 3
-26 11 -26 18 -3 26 3 52 16 65 11 11 29 4 114 -44 56 -32 103 -56 105 -54 2
2 -20 44 -50 94 -56 93 -63 109 -41 103 6 -3 13 -16 15 -31 3 -22 14 -29 85
-56 45 -16 142 -53 216 -81 74 -28 135 -49 137 -48 4 4 -77 91 -220 236 -107
109 -124 123 -148 118 l-27 -5 6 89 c4 59 2 90 -4 90 -6 0 -13 -32 -16 -72 -3
-40 -9 -90 -15 -111 l-10 -37 78 -58 c44 -31 120 -86 170 -122 130 -93 130
-92 75 -71 -82 31 -297 120 -301 124 -3 2 0 17 6 33 10 26 9 31 -15 49 -35 29
-44 101 -20 181 22 73 21 125 -2 141 -23 18 -84 16 -108 -3 -20 -15 -20 -15 8
-65 30 -54 33 -82 15 -141 -17 -58 -34 -42 -29 31 3 54 0 66 -20 87 -12 13
-28 24 -36 24 -7 0 -13 11 -13 25 0 14 -9 34 -20 45 -16 16 -18 28 -13 67 4
38 2 52 -11 62 -24 20 -19 49 14 83 25 25 37 29 65 26 40 -5 52 13 36 55 -20
51 -77 62 -117 22 -30 -30 -44 -32 -44 -6 0 11 21 37 46 59 l46 39 -11 274
c-6 151 -18 322 -26 379 -19 139 -43 272 -52 298 -5 12 -7 -206 -5 -484z
m-341 -366 c-2 -35 -3 -7 -3 62 0 69 1 97 3 63 2 -35 2 -91 0 -125z m263 -122
c0 -3 -4 -8 -10 -11 -5 -3 -10 -1 -10 4 0 6 5 11 10 11 6 0 10 -2 10 -4z
m-433 -31 c7 -21 2 -25 -25 -18 -18 4 -20 8 -11 19 15 18 28 18 36 -1z m479
-2 c17 -17 17 -18 -10 -21 -33 -4 -41 1 -33 23 8 20 21 19 43 -2z m-419 -19
c-9 -9 -28 6 -21 18 4 6 10 6 17 -1 6 -6 8 -13 4 -17z m333 6 c0 -5 -7 -10
-15 -10 -8 0 -15 5 -15 10 0 6 7 10 15 10 8 0 15 -4 15 -10z m-292 -136 c-17
-18 -38 -11 -38 11 0 16 31 25 45 13 5 -5 3 -14 -7 -24z m272 6 c0 -18 -22
-22 -37 -7 -21 21 -8 40 18 27 10 -6 19 -15 19 -20z m94 -58 c-27 -43 -44 -18
-23 35 l11 28 11 -23 c7 -16 8 -29 1 -40z m-464 1 c0 -7 -9 -13 -20 -13 -14 0
-20 7 -20 23 0 13 3 27 7 31 9 8 33 -22 33 -41z m157 -30 c-3 -10 -5 -2 -5 17
0 19 2 27 5 18 2 -10 2 -26 0 -35z m-26 -3 c5 0 9 -8 9 -19 0 -10 9 -21 20
-24 11 -3 27 -21 35 -41 9 -20 17 -36 20 -36 3 0 11 15 19 34 8 19 24 39 35
46 12 6 21 19 21 29 0 15 7 18 36 15 45 -3 47 -6 39 -44 -7 -30 -9 -31 -43
-25 -48 8 -67 -7 -91 -70 l-19 -50 -11 41 c-17 62 -44 85 -90 78 -36 -6 -39
-4 -45 22 -6 21 -3 31 10 41 10 8 25 11 32 8 8 -3 18 -5 23 -5z m-151 -133
c28 -55 50 -101 47 -103 -7 -7 -57 56 -83 103 -13 25 -24 60 -24 76 0 17 2 28
4 26 2 -2 27 -48 56 -102z m57 61 c6 -24 14 -52 18 -63 4 -11 -2 -6 -13 10
-21 32 -37 95 -23 95 4 0 12 -19 18 -42z m453 -53 c-12 -25 -37 -62 -56 -82
-31 -33 -34 -35 -28 -14 3 14 19 46 35 71 16 26 36 64 46 86 17 39 17 39 21
11 2 -15 -6 -48 -18 -72z m-90 15 c-17 -33 -20 -20 -7 30 10 39 12 41 15 18 2
-15 -2 -37 -8 -48z m-270 -30 c22 -22 29 -70 8 -52 -21 17 -50 72 -39 72 6 0
20 -9 31 -20z m178 -32 c-19 -27 -23 -30 -26 -14 -4 19 40 74 46 57 2 -6 -7
-25 -20 -43z m-396 -95 c-2 -43 -6 -80 -8 -82 -18 -20 -30 91 -14 129 20 49
27 35 22 -47z m624 43 c6 -37 1 -113 -10 -123 -3 -4 -6 2 -6 13 0 10 -3 47 -5
82 -5 66 10 85 21 28z m-373 -62 c-4 -10 -10 -11 -25 -3 -16 8 -18 13 -8 19
18 11 40 1 33 -16z m138 5 c-25 -20 -37 -19 -28 3 2 8 15 14 28 15 l24 2 -24
-20z m-295 -75 c-10 -34 -11 -34 -14 -9 -4 32 5 58 17 51 4 -3 3 -22 -3 -42z
m428 30 c8 -20 8 -69 0 -61 -10 10 -22 77 -14 77 4 0 11 -7 14 -16z m-321 -20
c11 -4 14 -16 10 -44 -5 -34 -3 -39 18 -42 32 -4 40 -53 10 -61 -11 -3 -22 0
-24 6 -2 6 -29 11 -62 11 -50 1 -60 4 -63 20 -3 15 0 17 14 11 45 -18 49 -13
46 48 -3 51 -1 57 17 57 10 0 26 -3 34 -6z m251 -54 c-7 -65 -1 -71 38 -41 24
19 24 19 26 -4 2 -27 -13 -34 -73 -35 -22 0 -51 -1 -65 -3 -21 -2 -25 2 -25
23 0 17 6 26 20 29 27 5 35 20 24 47 -9 25 9 43 44 44 16 0 17 -7 11 -60z
m296 8 c0 -7 -9 -24 -20 -38 -16 -21 -20 -22 -20 -7 0 23 18 57 30 57 6 0 10
-6 10 -12z m-690 -96 c0 -15 -2 -15 -10 -2 -13 20 -13 33 0 25 6 -3 10 -14 10
-23z m504 4 c-3 -9 -10 -16 -15 -16 -6 0 -5 9 1 21 13 24 24 20 14 -5z m-822
-28 c-7 -7 -12 -8 -12 -2 0 14 12 26 19 19 2 -3 -1 -11 -7 -17z m934 -10 c-4
-13 -11 -50 -17 -82 -12 -71 -17 -57 121 -340 55 -114 99 -210 97 -212 -2 -2
-52 62 -112 142 -121 164 -134 194 -138 344 -1 66 2 95 17 128 20 44 43 58 32
20z m-711 -18 c35 -67 24 -101 -110 -367 -69 -136 -125 -241 -125 -233 0 15
15 70 80 304 l33 118 43 18 c49 21 59 48 53 139 -4 58 4 64 26 21z m894 -15
c56 -83 54 -90 -8 -30 -42 41 -57 61 -48 67 20 13 24 10 56 -37z m-1014 22
c17 -13 17 -15 -6 -31 -50 -36 -151 -98 -154 -94 -5 5 119 137 131 137 5 1 18
-5 29 -12z m415 -47 c0 -5 -7 -7 -15 -4 -8 4 -15 8 -15 10 0 2 7 4 15 4 8 0
15 -4 15 -10z m40 -125 c5 -3 16 7 24 22 8 15 15 22 16 15 0 -14 -28 -72 -35
-72 -10 0 -35 60 -34 82 1 19 3 17 10 -9 5 -18 14 -35 19 -38z m-206 -54 c6
-47 3 -56 -83 -227 -49 -99 -90 -174 -90 -168 -1 6 25 89 57 185 32 96 64 193
71 217 16 57 37 54 45 -7z m502 36 c2 -7 -2 -30 -9 -52 l-14 -40 -11 35 c-5
19 -13 43 -17 53 -6 14 -2 17 19 17 15 0 29 -6 32 -13z m34 -79 c0 -16 -3 -19
-11 -11 -6 6 -8 16 -5 22 11 17 16 13 16 -11z m11 -98 c6 -13 17 -63 25 -110
8 -47 17 -94 20 -105 4 -16 3 -17 -5 -5 -12 19 -101 280 -101 295 1 14 49 -45
61 -75z m-407 -2 c10 -91 5 -120 -10 -53 -15 70 -17 105 -5 105 4 0 11 -24 15
-52z"/>
<path d="M1051 2804 c0 -11 3 -14 6 -6 3 7 2 16 -1 19 -3 4 -6 -2 -5 -13z"/>
<path d="M921 2794 c0 -11 3 -14 6 -6 3 7 2 16 -1 19 -3 4 -6 -2 -5 -13z"/>
<path d="M1062 2695 c0 -16 2 -22 5 -12 2 9 2 23 0 30 -3 6 -5 -1 -5 -18z"/>
<path d="M1073 2600 c0 -25 2 -35 4 -22 2 12 2 32 0 45 -2 12 -4 2 -4 -23z"/>
<path d="M1083 2460 c0 -36 2 -50 4 -32 2 17 2 47 0 65 -2 17 -4 3 -4 -33z"/>
</g>
</svg>
