<?xml version="1.0" standalone="no"?>
<!DOCTYPE svg PUBLIC "-//W3C//DTD SVG 20010904//EN"
 "http://www.w3.org/TR/2001/REC-SVG-20010904/DTD/svg10.dtd">
<svg version="1.0" xmlns="http://www.w3.org/2000/svg"
 width="244.000000pt" height="305.000000pt" viewBox="0 0 244.000000 305.000000"
 preserveAspectRatio="xMidYMid meet">
<metadata>
Created by potrace 1.16, written by Peter Selinger 2001-2019
</metadata>
<g transform="translate(0.000000,305.000000) scale(0.100000,-0.100000)"
fill="#000000" stroke="none">
<path d="M1517 2903 c-2 -4 -12 -55 -22 -113 -9 -58 -20 -125 -25 -150 -16
-86 -30 -276 -38 -499 -5 -165 -10 -225 -19 -229 -10 -3 -13 96 -13 474 0 262
-2 475 -5 473 -9 -9 -34 -358 -40 -554 -7 -261 -15 -366 -26 -340 -4 11 -8 46
-8 78 -1 31 -5 57 -11 57 -5 0 -10 22 -10 49 0 132 -49 465 -67 448 -12 -12
-53 -274 -59 -380 -4 -64 -11 -117 -15 -117 -5 0 -9 -17 -10 -37 0 -21 -4 -56
-8 -78 -7 -36 -8 -32 -16 48 -9 107 -23 103 -41 -10 -10 -68 -12 -13 -14 402
-2 441 -4 472 -15 380 -7 -54 -17 -153 -21 -220 -7 -105 -8 -114 -16 -75 -4
25 -10 69 -13 99 -3 30 -8 57 -12 60 -6 6 0 -60 17 -209 5 -47 10 -178 10
-292 l0 -206 -26 -31 c-14 -17 -30 -31 -35 -31 -6 0 -9 187 -7 500 2 274 0
496 -4 492 -12 -12 -57 -307 -67 -441 -6 -69 -13 -216 -17 -327 l-6 -200 28
-18 c16 -10 36 -28 46 -39 16 -21 16 -21 46 11 35 37 57 41 72 12 12 -22 9
-23 -32 -20 -21 1 -30 -6 -42 -29 -9 -16 -16 -41 -16 -56 0 -34 -16 -32 -23 3
-9 42 -43 72 -81 72 -36 0 -63 -23 -66 -55 -4 -40 -1 -45 29 -39 38 8 63 -7
86 -50 18 -32 18 -36 3 -53 -19 -21 -18 -128 3 -294 8 -67 9 -101 1 -114 -8
-15 -12 7 -17 93 l-8 112 -26 -7 c-66 -15 -81 -45 -61 -116 6 -23 14 -55 17
-72 6 -29 5 -30 -14 -12 -23 20 -43 79 -43 125 0 17 10 51 21 76 27 54 21 73
-25 81 -45 9 -70 0 -85 -29 -11 -20 -9 -37 9 -107 27 -104 21 -159 -18 -188
-25 -18 -26 -22 -15 -50 6 -17 8 -33 5 -35 -16 -9 -269 -114 -292 -121 -33
-10 -26 -3 68 64 106 75 235 173 243 184 4 5 0 32 -7 61 -8 28 -14 67 -15 86
0 19 -5 44 -10 55 -6 14 -8 -6 -8 -65 2 -106 3 -101 -23 -91 -25 9 -19 14
-127 -105 -30 -32 -93 -99 -139 -147 -46 -49 -82 -90 -80 -92 3 -3 69 20 149
51 79 30 170 64 201 75 48 17 58 25 63 50 4 16 11 29 15 29 15 0 60 -23 60
-30 0 -10 -59 -120 -82 -153 -11 -16 -18 -30 -15 -33 2 -3 39 18 80 46 42 27
81 50 87 50 5 0 10 -11 10 -24 0 -17 -9 -27 -29 -36 -25 -10 -32 -22 -50 -88
-20 -76 -60 -229 -106 -407 l-24 -90 30 35 c16 19 85 108 152 196 67 89 123
155 125 148 3 -12 -39 -307 -52 -366 -11 -49 8 -10 129 262 68 153 72 169 68
218 -6 59 2 64 54 32 46 -27 58 -55 36 -78 -45 -46 -45 -43 -23 -168 41 -232
90 -518 90 -528 0 -46 37 151 101 529 20 119 21 107 -26 171 -13 18 13 62 47
80 44 23 48 18 46 -43 -1 -53 6 -74 86 -253 91 -201 111 -242 102 -205 -2 11
-8 47 -12 80 -5 46 -9 54 -14 35 -5 -20 -11 -8 -29 60 -12 47 -38 137 -57 201
-19 64 -34 121 -34 128 0 6 13 11 28 11 l28 0 29 -186 c16 -102 31 -181 33
-175 3 10 -8 99 -25 191 -6 34 -4 33 48 -32 30 -37 68 -86 84 -109 17 -23 44
-59 60 -79 17 -21 50 -63 75 -95 24 -31 46 -53 47 -48 2 4 -24 109 -58 233
-34 124 -65 241 -69 260 -12 55 -18 65 -50 77 -28 10 -40 39 -24 56 9 8 54
-13 96 -47 21 -16 41 -27 44 -24 3 4 -13 40 -36 82 l-41 75 33 21 c38 23 57
25 59 8 1 -7 2 -19 3 -27 0 -8 8 -18 16 -23 30 -17 404 -157 409 -153 2 3 -38
49 -90 103 -52 53 -127 132 -168 175 -66 70 -77 77 -102 72 l-28 -6 5 93 c3
59 2 88 -4 78 -5 -8 -12 -57 -16 -108 l-6 -94 41 7 c38 7 42 5 81 -37 253
-273 252 -268 48 -130 -164 111 -172 118 -192 155 -21 40 -22 70 -3 135 22 74
22 122 0 138 -36 26 -115 11 -115 -22 0 -8 10 -33 21 -56 26 -51 21 -118 -12
-178 -36 -63 -53 -47 -25 21 13 32 19 73 17 111 -3 43 -64 63 -96 32 -13 -14
-16 -34 -14 -105 2 -49 0 -91 -3 -95 -15 -14 -19 94 -8 198 24 229 24 218 5
232 -21 15 -15 41 20 79 20 21 35 27 65 27 36 0 40 2 40 25 0 30 -41 75 -68
75 -27 0 -67 -34 -82 -70 -13 -32 -30 -40 -30 -15 0 34 -31 76 -61 82 -31 6
-34 20 -6 37 13 8 23 4 45 -18 l30 -27 45 33 46 33 -2 170 -1 170 -3 -153 -4
-153 -32 -29 c-17 -16 -35 -30 -39 -30 -5 0 -8 217 -7 483 0 296 4 474 9 462
7 -14 8 -8 3 20 -6 44 -9 50 -16 38z m-256 -663 l3 -95 5 80 6 80 7 -85 c5
-47 7 -150 6 -230 l-2 -145 -6 110 c-5 93 -6 76 -8 -103 -2 -175 -5 -216 -17
-228 -13 -14 -15 33 -13 418 1 385 10 475 19 198z m-161 -380 c0 -5 -4 -10
-10 -10 -5 0 -10 5 -10 10 0 6 5 10 10 10 6 0 10 -4 10 -10z m290 0 c0 -5 -4
-10 -10 -10 -5 0 -10 5 -10 10 0 6 5 10 10 10 6 0 10 -4 10 -10z m-260 -109
c0 -22 -15 -35 -30 -26 -6 4 -5 13 3 25 15 25 27 25 27 1z m238 -15 c3 -12 -1
-17 -10 -14 -7 3 -15 13 -16 22 -3 12 1 17 10 14 7 -3 15 -13 16 -22z m-328
-22 c10 -28 10 -41 0 -59 -7 -13 -10 -30 -7 -38 3 -7 1 -20 -3 -28 -6 -9 -11
-1 -16 29 -3 23 -13 47 -20 53 -18 15 -18 29 2 57 21 31 31 28 44 -14z m444 4
c8 -21 6 -32 -7 -46 -9 -10 -17 -30 -17 -43 0 -14 -6 -34 -14 -45 -14 -18 -15
-17 -13 11 0 17 -3 45 -7 63 -17 70 36 123 58 60z m-192 -48 c3 -17 1 -33 -4
-36 -4 -3 -8 11 -8 30 0 44 6 47 12 6z m-132 -40 c0 -10 9 -20 20 -23 11 -3
27 -21 35 -41 9 -20 17 -36 20 -36 3 0 11 15 19 34 8 19 24 39 35 46 12 6 21
16 21 23 0 19 21 36 36 30 9 -3 14 -20 14 -44 0 -37 -2 -39 -25 -33 -38 10
-72 -18 -88 -73 l-14 -48 -13 47 c-15 57 -31 73 -75 70 -28 -2 -33 1 -38 25
-7 35 19 69 40 52 7 -6 13 -19 13 -29z m-186 -55 c10 -25 33 -64 52 -87 72
-86 78 -136 8 -60 -48 51 -112 192 -86 192 5 0 17 -20 26 -45z m105 2 c0 -27
-2 -29 -9 -12 -12 28 -12 57 0 50 6 -3 10 -21 9 -38z m451 27 c0 -21 -59 -142
-74 -152 -6 -4 -19 -19 -29 -34 -10 -16 -24 -28 -33 -28 -19 0 -6 26 47 93 21
26 45 68 55 93 17 44 34 58 34 28z m-133 -31 c-3 -10 -5 -4 -5 12 0 17 2 24 5
18 2 -7 2 -21 0 -30z m-278 -108 c0 -5 -9 1 -19 14 -11 13 -20 33 -20 45 1 17
4 14 20 -14 11 -19 19 -39 19 -45z m270 46 c-6 -17 -17 -35 -25 -42 -18 -15
-18 -10 1 35 18 43 39 49 24 7z m-219 -40 c-1 -10 -6 -7 -15 9 -19 33 -18 50
0 26 8 -11 15 -27 15 -35z m146 12 c-13 -24 -15 -25 -16 -7 0 11 5 25 12 32
19 19 21 6 4 -25z m-346 -98 c0 -19 -4 -35 -10 -35 -5 0 -10 16 -10 35 0 19 5
35 10 35 6 0 10 -16 10 -35z m540 -2 c-1 -31 -3 -35 -11 -20 -6 9 -7 26 -4 37
10 30 15 24 15 -17z m-330 -8 c0 -8 -4 -15 -10 -15 -5 0 -10 7 -10 15 0 8 5
15 10 15 6 0 10 -7 10 -15z m130 6 c0 -12 -20 -25 -27 -18 -7 7 6 27 18 27 5
0 9 -4 9 -9z m-255 -93 c-6 -49 10 -91 39 -96 16 -3 18 2 16 45 -4 72 -3 75
19 64 10 -6 21 -8 25 -6 3 3 2 -1 -4 -7 -5 -7 -10 -24 -10 -39 0 -21 5 -28 23
-31 16 -2 23 -11 25 -31 3 -27 2 -27 -35 -22 -21 3 -47 7 -58 8 -11 1 -25 6
-32 10 -18 11 -32 73 -26 112 8 51 25 43 18 -7z m373 -23 c-2 -39 -10 -71 -18
-79 -22 -20 -127 -28 -134 -10 -8 22 4 43 27 46 28 4 36 47 13 64 -14 10 -13
12 11 17 16 3 30 3 32 1 2 -2 3 -29 2 -59 -2 -57 6 -66 33 -39 11 10 16 34 16
70 0 33 4 54 11 54 8 0 10 -21 7 -65z m208 -70 c-4 -14 -11 -25 -16 -25 -13 0
-13 16 1 42 14 26 23 16 15 -17z m-752 -55 c7 -24 6 -24 -8 -6 -9 11 -16 29
-16 40 1 17 2 18 9 6 5 -8 12 -26 15 -40z m136 35 c0 -8 -2 -15 -4 -15 -2 0
-6 7 -10 15 -3 8 -1 15 4 15 6 0 10 -7 10 -15z m440 5 c0 -5 -5 -10 -11 -10
-5 0 -7 5 -4 10 3 6 8 10 11 10 2 0 4 -4 4 -10z m265 -120 c14 -27 23 -50 21
-50 -12 0 -67 81 -61 90 10 16 13 13 40 -40z m-917 18 c3 -14 -84 -88 -102
-88 -4 0 12 25 36 55 42 54 60 63 66 33z m106 0 c3 -13 7 -73 10 -133 l5 -111
-67 -89 c-37 -50 -93 -126 -125 -170 -31 -44 -57 -74 -57 -68 0 6 20 51 44 99
59 120 102 214 142 307 30 69 33 86 28 133 -5 37 -3 54 4 54 7 0 14 -10 16
-22z m680 -41 c8 -65 12 -70 60 -93 24 -12 42 -29 47 -44 27 -90 108 -404 105
-407 -2 -2 -56 103 -121 234 -113 227 -140 301 -128 350 9 38 31 14 37 -40z
m-335 -88 c-7 -19 -14 -36 -16 -38 -5 -7 -32 33 -33 48 0 10 4 9 14 -5 14 -18
15 -18 26 10 15 40 23 27 9 -15z m-204 -56 c5 -43 1 -61 -43 -163 -27 -63 -59
-141 -72 -172 -13 -32 -25 -56 -28 -54 -3 4 68 271 100 376 6 19 12 41 14 48
7 28 23 9 29 -35z m462 15 c-3 -7 -5 -2 -5 12 0 14 2 19 5 13 2 -7 2 -19 0
-25z m-247 -327 c-11 -113 -22 -213 -24 -221 -2 -8 -4 109 -4 260 l-1 275 25
-54 25 -54 -21 -206z m55 209 c3 -9 -4 -61 -15 -116 -11 -54 -20 -112 -20
-128 0 -16 -3 -27 -6 -24 -3 4 0 67 6 141 9 106 9 140 0 158 -13 24 -13 24 8
5 12 -10 24 -26 27 -36z"/>
<path d="M1544 2775 c11 -63 37 -285 46 -395 l9 -115 -4 125 c-4 137 -32 376
-47 400 -6 10 -7 6 -4 -15z"/>
<path d="M972 2770 c0 -14 2 -19 5 -12 2 6 2 18 0 25 -3 6 -5 1 -5 -13z"/>
<path d="M1082 2760 c0 -14 2 -19 5 -12 2 6 2 18 0 25 -3 6 -5 1 -5 -13z"/>
<path d="M982 2710 c0 -19 2 -27 5 -17 2 9 2 25 0 35 -3 9 -5 1 -5 -18z"/>
<path d="M1093 2645 c0 -27 2 -38 4 -22 2 15 2 37 0 50 -2 12 -4 0 -4 -28z"/>
<path d="M1103 2490 c0 -30 2 -43 4 -27 2 15 2 39 0 55 -2 15 -4 2 -4 -28z"/>
<path d="M1432 2490 c0 -19 2 -27 5 -17 2 9 2 25 0 35 -3 9 -5 1 -5 -18z"/>
<path d="M1114 2250 c0 -69 1 -97 3 -62 2 34 2 90 0 125 -2 34 -3 6 -3 -63z"/>
</g>
</svg>
