<?xml version="1.0" standalone="no"?>
<!DOCTYPE svg PUBLIC "-//W3C//DTD SVG 20010904//EN"
 "http://www.w3.org/TR/2001/REC-SVG-20010904/DTD/svg10.dtd">
<svg version="1.0" xmlns="http://www.w3.org/2000/svg"
 width="244.000000pt" height="305.000000pt" viewBox="0 0 244.000000 305.000000"
 preserveAspectRatio="xMidYMid meet">
<metadata>
Created by potrace 1.16, written by Peter Selinger 2001-2019
</metadata>
<g transform="translate(0.000000,305.000000) scale(0.100000,-0.100000)"
fill="#000000" stroke="none">
<path d="M1001 2893 c-12 -13 -14 -95 -12 -496 l2 -481 -20 18 c-16 15 -21 33
-23 75 l-1 56 -7 -65 c-4 -42 -7 9 -8 144 -1 115 -4 207 -6 205 -2 -2 -6 -99
-7 -215 l-4 -210 35 -32 c19 -17 42 -31 50 -32 8 0 30 15 48 34 l32 33 0 169
c0 210 -14 440 -40 648 -11 88 -21 161 -23 162 -1 1 -8 -5 -16 -13z"/>
<path d="M1449 2884 c-6 -150 -5 -245 2 -229 4 11 8 -148 8 -352 1 -224 -3
-373 -8 -373 -24 0 -41 34 -42 83 -1 29 -5 122 -9 207 l-7 155 1 -188 c0 -103
-1 -187 -4 -187 -14 0 0 -73 17 -93 36 -40 36 -46 1 -40 -41 6 -66 -18 -70
-67 -3 -33 -1 -35 32 -40 44 -6 70 -46 53 -82 -6 -13 -15 -41 -18 -63 -8 -48
-47 -122 -81 -152 -13 -12 -27 -36 -30 -53 -10 -48 17 -38 80 32 59 65 73 66
30 2 -27 -39 -42 -53 -98 -87 l-29 -18 5 63 c7 80 23 114 59 127 16 5 29 14
29 20 0 12 -40 41 -57 41 -20 0 -49 -38 -62 -82 l-13 -42 -21 54 c-27 66 -47
81 -84 60 -39 -22 -39 -37 0 -53 28 -12 36 -23 46 -60 6 -25 11 -64 11 -86 l0
-41 -45 28 c-44 27 -95 88 -108 127 -4 11 8 2 25 -20 44 -54 90 -95 105 -95
23 0 14 37 -19 78 -61 74 -66 83 -78 130 -6 26 -16 64 -22 85 -16 53 3 87 48
87 40 0 46 8 38 50 -13 62 -91 79 -116 25 -14 -32 -19 -31 -40 5 -13 23 -24
30 -48 30 -39 0 -80 -42 -80 -81 0 -26 3 -29 34 -29 25 0 40 -7 55 -26 23 -29
28 -69 10 -80 -21 -13 -2 -111 36 -194 l37 -78 -18 -31 c-10 -17 -22 -31 -25
-31 -4 0 -11 26 -15 58 -8 74 -18 85 -63 77 -29 -5 -34 -4 -23 6 15 16 16 51
0 67 -18 18 -94 15 -113 -5 -15 -14 -16 -31 -10 -127 8 -133 -9 -137 -23 -6
l-9 85 -2 -87 c-1 -85 -2 -88 -24 -88 -17 0 -44 -27 -107 -107 -47 -59 -103
-130 -125 -158 -67 -82 -67 -87 -3 -60 13 5 15 2 11 -15 -5 -18 12 -12 128 44
187 91 189 92 189 116 0 31 24 24 64 -20 45 -50 51 -105 12 -120 -17 -6 -28
-21 -35 -47 -36 -134 -111 -482 -111 -512 0 -9 8 -3 20 16 11 18 22 33 24 33
2 0 2 -19 -1 -42 l-5 -43 25 40 c13 22 63 108 112 190 48 83 96 163 107 179
17 24 20 38 14 87 l-6 59 48 0 c91 0 143 -56 103 -111 -12 -15 -21 -38 -21
-49 0 -28 79 -577 89 -615 8 -32 22 47 77 435 l28 196 -24 32 c-23 31 -24 35
-9 60 8 15 26 32 39 39 28 14 106 17 114 5 3 -5 1 -26 -5 -46 -10 -35 -7 -43
52 -144 98 -169 191 -322 196 -322 3 0 3 14 -1 31 -5 25 -3 28 7 17 7 -7 22
-26 32 -42 11 -16 21 -24 22 -19 2 6 -19 111 -48 234 -28 123 -56 246 -62 272
-8 37 -16 51 -38 63 -18 9 -29 23 -29 35 0 27 33 89 59 113 22 20 22 20 27 0
4 -14 43 -39 122 -78 164 -82 183 -90 176 -71 -8 20 -4 19 62 -10 32 -14 58
-24 60 -22 2 1 -60 81 -137 177 -126 158 -143 175 -168 173 l-28 -3 3 93 c3
92 3 92 -7 27 -14 -97 -18 -110 -35 -110 -13 0 -15 6 -10 28 28 130 30 160 13
186 -15 22 -25 26 -66 26 -58 0 -86 -23 -75 -64 6 -24 4 -26 -29 -26 -38 0
-47 -14 -47 -77 0 -42 -15 -50 -36 -18 -17 26 -16 28 9 79 15 28 33 71 42 95
17 49 20 131 5 131 -15 0 -12 48 6 75 10 15 29 26 55 30 36 6 39 9 39 39 0 65
-77 90 -126 41 -14 -14 -30 -23 -35 -20 -14 10 -11 25 8 32 10 4 35 24 56 44
l39 37 -11 288 c-10 270 -22 405 -51 597 -7 42 -16 77 -20 77 -5 0 -6 -28 -4
-62 l3 -63 -9 59 c-10 61 -19 84 -21 50z m8 -56 c-3 -8 -6 -5 -6 6 -1 11 2 17
5 13 3 -3 4 -12 1 -19z m-304 -1565 c-5 -28 -2 -34 21 -43 35 -13 34 -45 -3
-64 -27 -14 -29 -14 -34 4 -6 25 -43 26 -75 4 -27 -18 -46 -13 -62 15 -10 19
-8 20 27 18 l38 -2 -3 54 c-4 79 -2 82 51 63 43 -15 45 -18 40 -49z m34 45
c-3 -8 -6 -5 -6 6 -1 11 2 17 5 13 3 -3 4 -12 1 -19z m213 -54 c-12 -54 -3
-67 43 -61 30 4 33 -1 13 -28 -13 -18 -15 -18 -49 -2 -46 22 -68 21 -74 -2 -4
-17 -9 -18 -28 -9 -41 18 -43 61 -3 71 15 4 19 12 16 37 -3 28 1 33 37 49 50
23 60 11 45 -55z m-727 -14 c-9 -16 -26 -41 -38 -55 -11 -13 -40 -51 -65 -84
-25 -32 -58 -66 -73 -76 -29 -18 -29 -17 127 183 51 65 80 84 49 32z m87 14
c0 -18 -27 -48 -79 -88 -33 -26 -62 -46 -65 -46 -4 0 17 32 45 70 38 53 56 70
75 70 13 0 24 -3 24 -6z m960 -125 c0 -22 -13 -25 -29 -6 -8 10 -7 17 1 25 15
15 28 6 28 -19z m82 -6 c40 -39 49 -59 21 -45 -62 31 -78 43 -81 61 -5 32 18
25 60 -16z m168 -88 l45 -47 -42 21 c-36 18 -83 66 -83 85 0 13 36 -14 80 -59z
m-763 -16 c11 -60 26 -89 39 -77 3 3 11 36 17 72 8 49 15 66 27 65 10 0 11 -2
3 -6 -7 -2 -13 -22 -13 -42 0 -21 -11 -59 -25 -85 -25 -47 -25 -48 -26 -329
l-1 -282 -33 225 -34 225 30 46 c31 49 36 78 18 111 -13 24 -29 138 -19 138 3
0 11 -28 17 -61z m708 -10 c15 -14 -7 -10 -35 7 l-25 15 25 -7 c14 -3 29 -10
35 -15z m-958 -21 c-3 -7 -5 -2 -5 12 0 14 2 19 5 13 2 -7 2 -19 0 -25z m-48
-126 c-49 -108 -81 -172 -76 -152 3 9 15 61 27 116 19 85 27 103 49 117 14 8
29 13 33 11 3 -2 -11 -44 -33 -92z m-74 -80 c-28 -140 -59 -249 -78 -267 -6
-7 -8 -2 -3 15 3 14 24 104 47 200 47 208 51 219 57 202 2 -7 -8 -75 -23 -150z
m720 31 c21 -60 40 -115 43 -123 5 -18 -59 74 -86 122 -18 32 -20 108 -2 108
4 0 24 -48 45 -107z m84 -241 c12 -24 21 -46 18 -49 -6 -5 -18 13 -62 92 -26
47 -26 48 -4 25 13 -14 35 -44 48 -68z m77 -79 c-7 -7 -46 74 -45 94 0 10 12
-6 25 -36 14 -29 23 -56 20 -58z"/>
<path d="M972 2790 c0 -14 2 -19 5 -12 2 6 2 18 0 25 -3 6 -5 1 -5 -13z"/>
<path d="M962 2730 c0 -19 2 -27 5 -17 2 9 2 25 0 35 -3 9 -5 1 -5 -18z"/>
<path d="M1422 2680 c0 -14 2 -19 5 -12 2 6 2 18 0 25 -3 6 -5 1 -5 -13z"/>
<path d="M942 2595 c-7 -55 -12 -125 -11 -155 1 -38 6 -14 15 75 17 158 14
220 -4 80z"/>
<path d="M966 2603 c-3 -32 -8 -128 -10 -213 -4 -161 -3 -157 14 104 11 158 9
218 -4 109z"/>
<path d="M1428 2584 l-1 -49 -7 45 c-4 25 -5 -1 -2 -60 2 -58 6 -106 7 -108 1
-1 5 46 9 104 4 59 4 109 1 112 -3 3 -6 -17 -7 -44z"/>
<path d="M1226 2585 c-15 -39 -45 -331 -52 -510 l-8 -190 -13 109 c-7 61 -16
112 -18 115 -15 15 -26 -27 -32 -117 -6 -99 -5 -101 21 -133 22 -26 26 -40 24
-78 -3 -46 -3 -46 -37 -43 -33 4 -34 3 -27 -29 12 -60 43 -76 70 -37 16 22 16
21 16 -19 0 -28 5 -43 15 -47 9 -3 23 -22 31 -41 8 -19 16 -35 19 -35 3 0 11
16 19 35 8 19 22 38 31 41 10 4 15 20 16 48 0 37 1 39 11 19 16 -34 46 -29 62
9 18 41 10 59 -23 56 -24 -3 -26 0 -29 43 -2 38 2 52 24 78 27 32 27 34 20
134 -6 91 -16 130 -31 116 -2 -3 -11 -52 -19 -110 -8 -57 -15 -97 -15 -89 -1
8 -6 110 -11 225 -8 195 -30 397 -49 447 -7 19 -8 20 -15 3z m4 -535 l0 -441
-21 20 c-22 20 -22 23 -16 313 5 254 23 548 34 548 1 0 3 -198 3 -440z"/>
<path d="M1408 2340 c3 -107 6 -197 8 -199 7 -7 2 240 -6 319 -4 41 -5 -13 -2
-120z"/>
<path d="M941 2154 c0 -11 3 -14 6 -6 3 7 2 16 -1 19 -3 4 -6 -2 -5 -13z"/>
</g>
</svg>
