<?xml version="1.0" standalone="no"?>
<!DOCTYPE svg PUBLIC "-//W3C//DTD SVG 20010904//EN"
 "http://www.w3.org/TR/2001/REC-SVG-20010904/DTD/svg10.dtd">
<svg version="1.0" xmlns="http://www.w3.org/2000/svg"
 width="244.000000pt" height="305.000000pt" viewBox="0 0 244.000000 305.000000"
 preserveAspectRatio="xMidYMid meet">
<metadata>
Created by potrace 1.16, written by Peter Selinger 2001-2019
</metadata>
<g transform="translate(0.000000,305.000000) scale(0.100000,-0.100000)"
fill="#000000" stroke="none">
<path d="M998 2905 c-6 -10 -29 -162 -48 -315 -6 -47 -15 -215 -20 -373 l-11
-289 41 -39 41 -40 41 41 42 41 -12 307 c-13 349 -53 702 -74 667z m2 -544 l0
-459 -31 29 -31 29 11 288 c6 158 18 341 26 407 8 66 15 130 15 143 0 12 2 22
5 22 3 0 5 -207 5 -459z"/>
<path d="M1463 2895 c-29 -53 -72 -561 -73 -860 l0 -111 39 -38 39 -38 41 41
41 41 0 98 c0 250 -31 646 -63 820 -11 57 -14 64 -24 47z m-8 -973 c-3 -3 -14
3 -25 13 -18 17 -20 30 -20 164 1 167 13 382 32 556 13 117 13 108 16 -304 1
-233 0 -426 -3 -429z"/>
<path d="M1226 2580 c-26 -104 -54 -433 -56 -644 0 -33 -2 -57 -4 -55 -3 2 -9
50 -15 105 -6 56 -14 109 -17 119 -7 16 -8 16 -16 -5 -5 -13 -12 -65 -15 -116
-6 -90 -5 -94 21 -124 19 -23 26 -43 26 -73 0 -46 -13 -76 -24 -58 -4 6 -14
11 -22 11 -19 0 -19 -64 1 -80 18 -15 52 -4 58 18 3 9 5 -2 6 -24 1 -28 6 -44
16 -48 9 -3 23 -22 31 -41 8 -19 16 -35 19 -35 3 0 11 16 19 35 8 19 22 38 31
41 10 4 15 20 16 48 0 37 1 39 11 19 22 -46 68 -18 68 41 0 27 -18 34 -37 15
-9 -9 -14 -5 -19 15 -11 44 2 106 25 123 24 16 27 64 11 172 -15 109 -26 100
-42 -37 -6 -56 -13 -100 -15 -98 -2 1 -8 103 -13 225 -9 209 -30 404 -49 454
-9 22 -9 22 -15 -3z m3 -532 c0 -244 -3 -437 -6 -430 -2 6 -12 12 -20 12 -14
0 -15 33 -10 308 4 261 22 552 34 552 2 0 3 -199 2 -442z"/>
<path d="M886 1855 c-19 -20 -30 -59 -22 -80 3 -9 18 -15 34 -15 16 0 36 -8
45 -17 21 -24 31 -69 18 -77 -29 -18 -4 -153 44 -238 l23 -40 -30 -58 c-25
-48 -29 -63 -21 -87 11 -32 52 -59 77 -50 14 6 16 16 10 73 -7 64 -6 67 12 59
10 -4 33 -13 51 -19 28 -9 31 -13 26 -43 -5 -28 -2 -34 21 -43 35 -13 34 -45
-3 -63 -27 -13 -30 -13 -34 4 -6 24 -39 25 -78 2 -27 -16 -29 -16 -49 2 -34
31 -47 74 -48 164 -3 115 -33 160 -75 113 -35 -39 -32 -74 17 -207 6 -16 4
-15 -12 4 -41 50 -56 168 -27 207 19 25 19 68 1 83 -23 19 -77 17 -92 -4 -18
-24 -18 -58 1 -139 27 -114 2 -162 -133 -263 -20 -16 -48 -38 -62 -50 -27 -25
-46 -30 -34 -10 9 14 122 165 143 189 10 12 23 15 43 11 l28 -5 -1 73 c0 41
-4 92 -8 114 -13 64 -25 17 -18 -71 5 -73 5 -74 -18 -74 -19 0 -43 -24 -107
-107 -146 -189 -187 -248 -174 -251 7 -1 87 33 178 77 139 66 167 83 170 103
9 65 118 -36 118 -109 0 -10 -13 -25 -29 -34 -21 -12 -29 -26 -34 -55 -3 -22
-17 -91 -31 -154 -98 -438 -97 -441 40 -217 52 84 102 166 112 182 56 89 61
103 55 155 l-6 50 47 0 c56 0 97 -19 115 -53 12 -23 11 -30 -9 -61 -21 -35
-21 -40 -10 -129 21 -164 80 -551 85 -555 3 -3 5 -2 5 1 0 4 16 116 35 249 63
431 61 402 36 437 -27 37 -21 62 19 91 22 16 42 20 77 18 l48 -3 -3 -49 c-1
-35 4 -58 20 -85 12 -20 68 -111 124 -202 57 -91 106 -173 109 -182 4 -8 13
-13 21 -10 8 3 14 -1 14 -8 0 -7 3 -10 6 -7 5 6 -6 59 -42 203 -8 33 -21 92
-28 130 -43 220 -53 250 -86 260 -22 7 -25 30 -9 72 23 61 99 111 99 66 0 -18
14 -25 229 -128 41 -19 83 -35 93 -35 11 0 28 -5 39 -10 38 -21 28 -5 -139
205 -73 91 -113 133 -134 140 -29 9 -29 10 -23 65 3 30 1 69 -4 85 -8 26 -10
22 -11 -35 -1 -36 -6 -76 -10 -90 -5 -14 -6 16 -3 72 7 124 -4 148 -72 148
-38 0 -47 -4 -56 -24 -8 -17 -8 -29 0 -44 15 -29 15 -47 -1 -34 -7 5 -24 12
-38 14 -25 3 -29 -4 -45 -104 -3 -21 -9 -38 -13 -38 -4 0 -16 17 -28 37 l-21
37 35 75 c38 80 55 182 33 204 -30 30 16 101 65 102 25 0 29 4 32 32 4 38 -26
73 -63 73 -18 0 -33 -11 -52 -38 l-27 -38 -16 30 c-22 44 -44 54 -78 36 -22
-13 -28 -24 -30 -58 -3 -40 -2 -42 26 -42 40 0 66 -31 58 -67 -4 -15 -11 -50
-16 -76 -9 -51 -59 -138 -91 -161 -25 -17 -38 -76 -17 -76 26 0 108 97 138
163 33 71 36 71 15 1 -19 -65 -74 -142 -122 -171 -21 -13 -42 -23 -47 -23 -12
0 -1 108 14 142 7 15 26 31 41 37 16 5 29 14 29 19 0 14 -35 42 -53 42 -24 0
-56 -39 -68 -84 l-11 -40 -21 54 c-27 67 -64 87 -98 53 -24 -23 -18 -43 11
-43 31 0 50 -42 57 -119 l6 -71 -46 25 c-25 14 -58 42 -73 62 -29 38 -74 138
-73 163 0 8 9 -7 20 -35 44 -107 159 -220 159 -155 0 10 -13 34 -29 52 -53 61
-91 130 -91 167 0 19 -7 42 -16 52 -14 15 -14 21 0 53 9 21 22 36 33 37 59 4
58 3 54 34 -5 43 -18 64 -46 71 -30 7 -53 -9 -70 -49 l-11 -27 -25 37 c-27 43
-66 54 -93 28z m519 -596 c0 -59 2 -64 23 -67 13 -2 32 4 42 13 18 16 18 16
13 -3 -3 -12 -14 -29 -24 -38 -19 -17 -21 -17 -48 -1 -39 23 -72 22 -78 -2 -4
-17 -9 -18 -28 -9 -37 17 -40 40 -10 64 20 16 26 28 23 50 -3 25 2 31 32 46
19 9 40 15 45 14 6 -2 10 -32 10 -67z m386 -112 c20 -17 53 -47 73 -65 21 -18
35 -36 32 -39 -11 -12 -177 81 -171 95 3 8 5 20 5 28 0 23 22 16 61 -19z m-81
-7 c0 -5 -5 -10 -11 -10 -5 0 -7 5 -4 10 3 6 8 10 11 10 2 0 4 -4 4 -10z
m-740 -102 c0 -27 -10 -71 -24 -105 -13 -32 -49 -119 -80 -193 -31 -74 -56
-141 -56 -147 0 -7 -4 -13 -9 -13 -9 0 -4 29 45 237 25 105 29 114 60 132 27
16 34 28 39 66 4 25 5 65 2 88 l-6 42 14 -30 c8 -16 14 -51 15 -77z m233 -1
c3 -24 11 -57 17 -73 11 -27 12 -28 25 -10 8 10 17 42 21 72 3 30 10 54 13 54
14 0 -8 -110 -28 -144 -20 -32 -21 -48 -22 -317 l-1 -284 -34 224 c-35 236
-35 235 7 290 22 27 24 62 8 93 -14 25 -28 138 -19 138 4 0 10 -19 13 -43z
m304 11 c-3 -8 -6 -5 -6 6 -1 11 2 17 5 13 3 -3 4 -12 1 -19z m17 -124 c13
-38 45 -122 70 -187 25 -66 46 -126 46 -135 0 -9 -35 44 -79 117 -71 121 -78
136 -71 167 5 19 6 54 3 77 -8 57 3 44 31 -39z"/>
</g>
</svg>
