<?xml version="1.0" standalone="no"?>
<!DOCTYPE svg PUBLIC "-//W3C//DTD SVG 20010904//EN"
 "http://www.w3.org/TR/2001/REC-SVG-20010904/DTD/svg10.dtd">
<svg version="1.0" xmlns="http://www.w3.org/2000/svg"
 width="244.000000pt" height="305.000000pt" viewBox="0 0 244.000000 305.000000"
 preserveAspectRatio="xMidYMid meet">
<metadata>
Created by potrace 1.16, written by Peter Selinger 2001-2019
</metadata>
<g transform="translate(0.000000,305.000000) scale(0.100000,-0.100000)"
fill="#000000" stroke="none">
<path d="M886 2837 c-46 -202 -67 -396 -81 -744 l-7 -161 29 -18 c15 -10 40
-29 55 -42 l26 -24 22 25 c12 14 35 31 51 37 28 12 29 14 29 84 -1 254 -29
598 -62 744 -19 89 -19 51 1 -89 34 -228 61 -669 43 -694 -4 -5 -22 -21 -41
-34 -25 -18 -35 -20 -41 -11 -11 19 -11 940 1 940 12 0 12 47 0 54 -5 3 -16
-27 -25 -67z"/>
<path d="M1557 2893 c-10 -16 -43 -189 -62 -323 -15 -112 -35 -424 -35 -567
l0 -71 51 -38 c35 -25 55 -34 64 -28 6 5 31 21 53 36 l41 28 -5 147 c-9 255
-24 443 -49 587 -13 76 -26 141 -29 144 -8 8 -7 -8 4 -68 36 -190 60 -459 60
-685 l0 -100 -34 -27 c-19 -16 -40 -28 -45 -28 -8 0 -11 151 -10 483 0 278 4
474 9 462 10 -24 11 -1 1 35 -4 15 -10 20 -14 13z"/>
<path d="M1348 2400 c2 -431 -1 -496 -21 -462 -3 4 -6 70 -8 147 -1 77 -5 145
-9 150 -4 6 -10 41 -14 79 -7 69 -27 175 -48 251 -10 39 -11 39 -20 15 -18
-48 -49 -205 -55 -284 -10 -127 -19 -61 -28 194 -13 404 -22 376 -25 -75 -1
-238 -6 -414 -10 -395 -4 19 -11 53 -15 75 l-8 40 -13 -44 c-7 -24 -16 -77
-20 -117 -6 -64 -4 -77 11 -94 24 -27 13 -35 -26 -21 -46 16 -100 -11 -114
-56 -12 -42 -20 -41 -41 2 -17 37 -58 65 -92 65 -25 0 -68 -34 -75 -59 -8 -31
9 -46 48 -43 29 3 41 -2 70 -31 37 -37 44 -64 20 -73 -18 -7 -20 -61 -5 -116
6 -20 31 -64 55 -97 25 -34 45 -64 45 -67 0 -3 -15 -24 -34 -47 -48 -61 -51
-84 -14 -118 19 -18 41 -29 59 -29 29 0 29 0 13 -25 -19 -29 -34 -33 -34 -9 0
10 -6 14 -14 11 -17 -7 -64 37 -77 70 -5 13 -6 35 -3 50 8 46 -20 157 -40 161
-54 11 -95 -38 -82 -95 4 -16 39 -86 78 -156 64 -117 70 -132 65 -172 -2 -25
-1 -45 4 -45 4 0 7 -15 6 -32 0 -18 2 -49 6 -68 7 -33 3 -40 -63 -120 -97
-116 -182 -219 -202 -244 -43 -54 -17 5 83 189 163 299 152 270 135 355 -16
77 -27 99 -86 170 -73 87 -87 160 -45 222 14 20 25 42 25 49 0 21 -34 38 -73
39 -81 0 -99 -37 -67 -140 32 -103 24 -181 -20 -195 -19 -6 -21 -12 -15 -44
l6 -38 -58 -22 c-176 -67 -303 -109 -303 -101 0 6 3 10 8 10 4 0 44 24 89 53
45 28 121 77 169 107 124 77 125 79 109 132 -7 24 -16 71 -20 105 -11 97 -29
68 -21 -33 l7 -84 -30 6 c-35 7 -31 11 -255 -200 -76 -72 -143 -134 -149 -138
-6 -4 -9 -9 -6 -12 9 -9 471 151 480 165 5 8 9 22 9 33 0 15 5 17 27 11 37 -8
103 -48 127 -74 10 -11 19 -37 20 -57 1 -34 -2 -38 -31 -46 -17 -4 -34 -16
-37 -26 -3 -9 -41 -135 -86 -279 -44 -143 -80 -267 -80 -274 0 -13 96 88 150
157 14 17 76 88 137 158 104 116 112 128 103 152 -6 14 -10 36 -10 50 0 24 2
25 68 22 60 -3 67 -5 65 -23 -2 -18 -1 -18 9 2 6 13 18 23 26 23 12 0 13 -9 9
-47 -15 -110 -72 -371 -79 -360 -4 7 -8 -13 -7 -43 0 -54 1 -51 49 99 27 84
51 156 54 159 3 2 7 -1 10 -9 4 -15 115 -579 117 -595 2 -21 18 54 69 311 62
317 58 304 69 286 5 -7 30 -87 57 -177 27 -91 50 -160 52 -155 2 5 -8 110 -22
234 -33 283 -33 297 -3 299 83 6 103 5 108 -4 6 -10 0 -41 -15 -79 -7 -15 1
-26 67 -99 18 -19 95 -106 172 -194 76 -87 141 -154 142 -149 2 5 -20 85 -48
179 -28 93 -64 213 -79 266 -32 111 -36 118 -56 118 -9 0 -24 4 -34 10 -44 23
26 125 106 156 48 18 64 13 64 -20 0 -20 21 -29 232 -99 127 -42 234 -74 237
-71 3 3 0 8 -6 12 -6 4 -74 67 -152 141 -211 200 -202 192 -236 186 l-30 -5 3
93 c3 120 -13 95 -21 -31 l-6 -93 44 6 c42 7 44 6 116 -62 150 -138 204 -193
194 -193 -11 0 -230 126 -318 183 -27 18 -55 44 -63 59 -18 35 -18 105 1 158
20 57 19 93 -3 113 -34 31 -132 14 -132 -22 0 -9 12 -34 25 -56 14 -22 25 -51
25 -65 -1 -38 -33 -101 -88 -174 -54 -70 -69 -118 -57 -185 8 -46 17 -56 70
-73 l39 -13 53 -170 c29 -93 59 -191 67 -217 8 -27 12 -48 8 -48 -10 1 -241
418 -257 464 -32 93 -30 109 21 198 26 46 57 101 70 123 35 63 40 105 14 138
-17 22 -29 27 -53 25 -29 -3 -31 -6 -44 -68 -7 -36 -11 -78 -8 -94 9 -51 -58
-142 -79 -107 -3 5 7 22 23 39 35 36 33 57 -16 121 -18 24 -30 49 -26 55 4 6
22 32 40 57 57 80 83 192 48 205 -25 10 -17 44 20 81 29 29 40 34 72 31 35 -3
38 -1 41 24 5 38 -28 68 -75 68 -46 -1 -68 -16 -92 -66 l-19 -38 -20 47 c-24
53 -48 66 -107 59 -36 -4 -38 -3 -26 12 16 19 8 141 -14 227 -10 36 -15 107
-15 214 0 180 -19 536 -29 547 -3 4 -5 -204 -3 -462z m-60 -187 c6 -64 6 -112
1 -118 -5 -5 -9 -38 -10 -75 0 -36 -4 -85 -8 -110 -6 -30 -9 23 -10 160 -1
113 -3 250 -6 305 l-4 100 14 -77 c7 -42 18 -125 23 -185z m-141 -345 c-3 -7
-5 -2 -5 12 0 14 2 19 5 13 2 -7 2 -19 0 -25z m187 17 c3 -8 1 -15 -4 -15 -6
0 -10 7 -10 15 0 8 2 15 4 15 2 0 6 -7 10 -15z m-34 -21 c-13 -33 -13 -87 0
-100 7 -7 5 -17 -5 -30 -14 -18 -14 -18 -16 11 -4 61 0 104 10 124 16 29 23
26 11 -5z m-208 -110 c4 -3 8 -12 8 -21 0 -10 -5 -13 -17 -8 -41 17 -53 17
-53 2 0 -29 22 -65 46 -76 31 -14 33 -61 4 -79 -26 -16 -25 -25 2 -37 23 -10
43 -64 30 -77 -11 -11 -49 31 -54 57 -2 11 -12 21 -24 23 -23 3 -54 58 -54 96
0 13 -7 29 -15 36 -24 20 -18 56 12 80 22 17 36 20 67 16 22 -4 43 -9 48 -12z
m402 -5 c29 -23 36 -73 11 -83 -8 -3 -15 -18 -15 -33 0 -33 -34 -93 -53 -93
-21 0 -67 54 -67 78 0 14 9 27 24 33 36 17 63 89 33 89 -7 0 -18 -5 -24 -11
-14 -14 -34 -3 -27 16 6 13 27 21 70 24 12 0 33 -8 48 -20z m-347 -71 c-3 -8
-6 -5 -6 6 -1 11 2 17 5 13 3 -3 4 -12 1 -19z m180 -10 c-3 -7 -5 -2 -5 12 0
14 2 19 5 13 2 -7 2 -19 0 -25z m-47 -4 c0 -8 5 -12 10 -9 6 3 10 -1 10 -9 0
-29 -28 -17 -32 13 -2 17 -1 28 4 25 4 -3 8 -12 8 -20z m-352 -73 c6 -16 26
-52 46 -81 20 -29 36 -60 36 -69 0 -12 -2 -13 -9 -3 -4 8 -12 14 -17 15 -23 4
-70 80 -79 131 -9 44 9 49 23 7z m199 7 c-3 -8 -6 -5 -6 6 -1 11 2 17 5 13 3
-3 4 -12 1 -19z m67 -7 c7 -11 -22 -23 -35 -15 -5 3 -9 14 -9 25 0 16 3 18 19
9 11 -5 22 -14 25 -19z m373 -8 c-7 -39 -70 -143 -88 -143 -17 0 -2 48 26 85
14 17 30 46 36 63 15 44 33 41 26 -5z m-247 13 c0 -8 -5 -18 -11 -22 -14 -8
-33 11 -25 25 10 16 36 13 36 -3z m-77 -90 c-7 -38 -13 -46 -13 -18 0 11 -2
27 -5 35 -4 8 0 14 9 14 11 0 13 -8 9 -31z m172 12 c-9 -28 -45 -69 -55 -63
-9 6 0 56 13 73 5 6 18 12 29 12 15 0 18 -5 13 -22z m-90 -67 c-9 -28 -21 -53
-26 -56 -5 -4 -9 -4 -9 -2 0 4 20 63 35 106 3 8 8 11 11 8 3 -3 -2 -28 -11
-56z m-167 10 c16 -52 14 -73 -2 -35 -22 50 -28 74 -18 74 5 0 14 -17 20 -39z
m-98 -53 c0 -16 -3 -19 -11 -11 -6 6 -8 16 -5 22 11 17 16 13 16 -11z m366 -5
c-10 -10 -19 5 -10 18 6 11 8 11 12 0 2 -7 1 -15 -2 -18z m-56 -23 c0 -11 -7
-20 -15 -20 -27 0 -18 30 13 39 1 1 2 -8 2 -19z m-240 -5 c0 -8 -7 -15 -15
-15 -8 0 -15 7 -15 15 0 8 7 15 15 15 8 0 15 -7 15 -15z m-115 -122 c-3 -18
-10 -31 -16 -28 -13 9 -11 42 4 49 9 3 7 9 -5 19 -10 8 -18 17 -18 20 0 3 8 7
18 9 20 4 27 -20 17 -69z m446 25 l-9 -33 -1 36 c-1 20 2 39 6 43 13 12 15
-10 4 -46z m-386 -23 c16 -59 13 -88 -3 -44 -12 32 -26 116 -18 108 3 -3 13
-32 21 -64z m97 50 c0 -5 -5 -11 -11 -13 -6 -2 -11 4 -11 13 0 9 5 15 11 13 6
-2 11 -8 11 -13z m148 0 c0 -8 -4 -15 -9 -15 -13 0 -22 16 -14 24 11 11 23 6
23 -9z m91 -61 c-7 -30 -16 -54 -21 -54 -7 0 -2 37 16 110 13 50 17 -3 5 -56z
m-286 -37 c12 -18 14 -18 23 -1 9 15 13 16 26 5 22 -18 20 -23 -14 -43 -29
-16 -30 -16 -41 3 -6 12 -12 44 -14 72 -1 29 0 37 2 18 2 -19 10 -43 18 -54z
m230 -26 c-18 -36 -22 -37 -54 -12 -16 12 -22 24 -18 35 8 20 37 21 37 1 0
-24 20 -17 30 11 6 14 11 40 12 57 1 21 3 16 5 -15 3 -30 -2 -58 -12 -77z
m149 -7 c11 -27 7 -37 -9 -24 -16 14 -20 40 -6 40 5 0 12 -7 15 -16z m-261
-245 c-4 -15 -8 -17 -14 -8 -6 11 4 28 18 29 0 0 -1 -9 -4 -21z m177 -215 c43
-231 40 -235 -21 -24 -39 136 -49 206 -32 233 9 15 17 -17 53 -209z m-268 131
l-17 -23 -6 37 c-9 47 -2 57 22 30 17 -20 17 -22 1 -44z m191 12 c-5 -37 -6
-38 -20 -17 -13 18 -13 26 -2 46 17 32 28 18 22 -29z m-16 -154 c-44 -223 -71
-352 -74 -349 -2 2 4 101 13 221 12 161 13 224 5 242 -24 52 -12 59 31 16 l42
-43 -17 -87z"/>
<path d="M1333 2700 c0 -25 2 -35 4 -22 2 12 2 32 0 45 -2 12 -4 2 -4 -23z"/>
<path d="M1102 2665 c0 -16 2 -22 5 -12 2 9 2 23 0 30 -3 6 -5 -1 -5 -18z"/>
<path d="M1093 2465 c0 -22 2 -30 4 -17 2 12 2 30 0 40 -3 9 -5 -1 -4 -23z"/>
<path d="M1033 790 c0 -25 2 -35 4 -22 2 12 2 32 0 45 -2 12 -4 2 -4 -23z"/>
<path d="M1023 700 c0 -25 2 -35 4 -22 2 12 2 32 0 45 -2 12 -4 2 -4 -23z"/>
<path d="M1012 605 c0 -16 2 -22 5 -12 2 9 2 23 0 30 -3 6 -5 -1 -5 -18z"/>
</g>
</svg>
