<?xml version="1.0" standalone="no"?>
<!DOCTYPE svg PUBLIC "-//W3C//DTD SVG 20010904//EN"
 "http://www.w3.org/TR/2001/REC-SVG-20010904/DTD/svg10.dtd">
<svg version="1.0" xmlns="http://www.w3.org/2000/svg"
 width="244.000000pt" height="305.000000pt" viewBox="0 0 244.000000 305.000000"
 preserveAspectRatio="xMidYMid meet">
<metadata>
Created by potrace 1.16, written by Peter Selinger 2001-2019
</metadata>
<g transform="translate(0.000000,305.000000) scale(0.100000,-0.100000)"
fill="#000000" stroke="none">
<path d="M885 2887 c-4 -15 -3 -33 3 -40 11 -14 12 -931 0 -942 -4 -4 -26 8
-49 26 l-41 34 6 180 c8 228 18 333 52 543 9 57 14 105 12 107 -7 7 -36 -150
-53 -285 -16 -122 -34 -495 -27 -553 3 -27 11 -39 42 -56 20 -11 43 -28 50
-36 11 -13 17 -11 46 14 18 16 43 32 55 36 l22 7 -7 213 c-3 117 -11 262 -17
321 -11 121 -53 357 -74 419 -13 40 -13 40 -20 12z"/>
<path d="M1568 2895 c-3 -4 -2 -21 3 -38 12 -40 11 -957 -1 -957 -4 0 -27 12
-50 27 l-42 28 7 190 c6 202 25 404 50 549 17 96 14 131 -4 44 -37 -181 -61
-448 -61 -669 l0 -146 51 -32 c58 -36 62 -37 79 -15 8 8 28 21 47 29 l33 14 0
113 c0 233 -24 491 -65 703 -25 128 -37 170 -47 160z"/>
<path d="M1215 2544 c-40 -137 -65 -362 -65 -576 0 -108 -13 -144 -25 -70 -42
250 -49 259 -75 108 -17 -98 -14 -118 23 -141 26 -16 33 -28 35 -59 7 -78 -13
-102 -58 -74 -10 7 -22 9 -26 6 -10 -11 15 -76 32 -82 26 -10 33 -7 56 19 30
35 39 31 32 -15 -6 -36 -4 -40 20 -50 15 -5 36 -26 47 -45 24 -39 31 -39 49 5
7 18 22 33 36 36 25 7 27 11 26 62 -2 38 10 41 32 7 20 -30 39 -32 66 -5 26
26 28 76 3 65 -37 -16 -56 -10 -66 18 -16 48 -1 93 38 116 39 23 40 27 24 134
-11 75 -23 107 -34 95 -4 -4 -16 -61 -28 -127 -11 -67 -24 -121 -27 -121 -4 0
-10 87 -13 193 -4 105 -13 238 -21 294 -15 99 -49 249 -59 260 -3 2 -13 -22
-22 -53z m14 -478 l-1 -464 -34 20 -34 20 0 161 c0 201 15 410 40 580 11 71
20 133 20 138 0 5 2 9 5 9 3 0 5 -209 4 -464z"/>
<path d="M739 1852 c-27 -13 -35 -24 -37 -49 -3 -33 -3 -33 42 -33 77 0 134
-66 95 -111 -10 -12 -19 -30 -19 -39 0 -41 34 -120 74 -174 48 -64 49 -72 2
-115 -37 -35 -43 -77 -16 -106 49 -53 122 -39 100 19 -13 35 -13 69 1 83 8 8
29 5 75 -10 49 -16 69 -19 82 -11 29 19 19 34 -39 58 -30 12 -73 36 -94 52
-49 37 -115 138 -115 176 0 41 12 34 38 -22 33 -71 136 -165 200 -185 33 -10
29 29 -5 52 -39 26 -111 100 -134 136 -10 18 -19 43 -19 57 0 14 -9 33 -20 43
-27 23 -25 33 10 69 28 27 36 30 75 25 43 -4 45 -3 45 22 -1 34 -20 59 -58 72
-43 15 -82 -6 -106 -55 -18 -36 -21 -38 -30 -21 -22 37 -62 73 -87 79 -14 3
-39 -2 -60 -12z"/>
<path d="M1435 1858 c-30 -16 -45 -39 -45 -70 0 -27 1 -27 44 -22 39 6 48 3
70 -19 29 -29 33 -58 11 -77 -8 -7 -15 -24 -15 -39 0 -14 -9 -41 -20 -59 -26
-42 -104 -119 -130 -127 -20 -6 -35 -38 -25 -54 20 -34 175 94 214 178 14 28
28 51 33 51 17 0 7 -44 -24 -102 -37 -69 -90 -116 -168 -148 -67 -28 -72 -32
-64 -53 8 -22 28 -21 103 2 78 24 89 15 71 -60 -10 -43 -10 -53 1 -60 30 -19
80 -1 105 36 20 31 8 68 -37 111 -16 15 -29 32 -29 36 0 5 18 32 40 61 21 29
46 69 55 90 20 48 20 123 0 131 -24 9 -17 36 20 73 30 30 40 34 77 31 40 -2
43 -1 46 23 4 30 -46 79 -80 79 -32 0 -76 -32 -93 -67 -20 -42 -28 -41 -44 2
-7 21 -24 41 -41 50 -34 18 -48 18 -75 3z"/>
<path d="M1083 1575 c-18 -8 -33 -18 -33 -23 0 -11 24 -22 49 -22 34 0 60 -42
71 -117 15 -94 11 -116 -20 -123 -20 -5 -25 -12 -25 -35 0 -25 4 -31 27 -33
54 -6 41 -72 -14 -72 -20 0 -40 -31 -30 -47 4 -6 23 -15 42 -20 30 -8 35 -14
42 -49 8 -37 26 -83 38 -94 4 -3 3 -45 -1 -95 -3 -49 -5 -193 -3 -320 2 -126
2 -225 -1 -220 -3 6 -18 75 -35 155 -16 80 -37 174 -45 210 -23 105 -21 120
30 174 l46 48 -26 43 c-14 24 -25 55 -25 70 0 40 -18 65 -46 65 -29 0 -48 37
-38 76 6 23 4 24 -36 24 -23 0 -58 -7 -76 -16 -45 -21 -72 -10 -114 47 -23 32
-30 52 -29 83 2 37 -3 74 -17 144 -3 18 -11 22 -38 22 -57 0 -84 -43 -67 -105
5 -20 40 -86 77 -148 97 -161 97 -158 -46 -402 -62 -104 -126 -214 -143 -244
-17 -30 -33 -49 -35 -43 -2 6 28 104 65 218 l69 208 47 15 c53 16 67 42 67
120 0 51 -18 87 -83 164 -69 83 -83 154 -42 215 14 20 25 44 25 54 0 40 -104
54 -140 18 -25 -25 -25 -52 0 -125 44 -127 29 -148 -204 -283 -98 -56 -183
-101 -189 -99 -5 1 54 61 132 131 l142 128 45 -7 46 -7 -7 99 c-10 134 -26
160 -27 43 0 -3 3 -29 6 -58 l7 -53 -35 7 c-34 6 -40 2 -133 -82 -203 -182
-283 -257 -279 -262 5 -4 5 -5 294 88 177 57 192 64 192 86 0 32 13 37 59 23
52 -15 110 -64 128 -107 17 -40 7 -57 -36 -65 -27 -6 -31 -14 -81 -169 -28
-90 -61 -192 -72 -228 -11 -36 -28 -91 -38 -122 -10 -32 -16 -58 -12 -58 7 0
348 369 386 418 17 21 18 30 8 66 -6 22 -7 45 -2 50 4 4 48 6 97 5 80 -4 94
-7 126 -32 20 -15 37 -33 37 -40 0 -6 -14 -26 -32 -44 l-32 -33 63 -302 c34
-167 66 -314 70 -328 6 -19 10 -9 24 55 9 44 39 192 67 329 l52 249 -36 36
-36 37 27 26 c40 38 74 48 164 48 l80 0 -6 -53 -7 -52 198 -218 c108 -119 199
-216 201 -213 3 3 -51 182 -129 426 -17 52 -33 105 -35 117 -4 16 -17 26 -45
34 -38 10 -40 12 -34 41 9 48 43 85 101 112 69 33 83 33 87 -1 3 -26 11 -31
118 -66 63 -21 171 -56 238 -78 68 -22 126 -38 129 -35 3 3 -18 27 -48 53 -29
27 -114 103 -188 171 -129 117 -138 123 -169 117 l-34 -6 7 84 c5 58 4 87 -4
91 -7 5 -11 -6 -12 -31 0 -21 -8 -69 -18 -107 -18 -67 -18 -68 2 -87 12 -10
52 -38 91 -61 141 -82 296 -181 292 -185 -2 -2 -86 26 -186 62 -101 36 -185
65 -188 65 -2 0 -1 18 3 40 4 26 3 40 -4 40 -29 0 -51 41 -51 94 0 29 9 82 20
116 25 79 25 82 -3 108 -30 28 -95 30 -128 3 l-23 -19 27 -41 c19 -29 27 -53
27 -86 0 -55 -17 -90 -82 -170 -51 -63 -78 -131 -78 -197 0 -27 14 -64 49
-125 26 -49 61 -110 76 -138 15 -27 52 -92 82 -144 29 -51 52 -96 49 -98 -2
-2 -51 49 -108 114 -202 232 -201 230 -193 260 4 16 8 65 10 110 4 91 14 115
98 247 40 62 51 89 55 131 4 46 1 54 -19 69 -28 19 -63 21 -76 4 -15 -21 -34
-135 -27 -163 8 -31 -24 -81 -73 -115 -33 -22 -35 -23 -69 -7 -19 10 -53 17
-74 17 -39 0 -40 0 -40 -37 0 -47 -8 -60 -40 -64 -24 -4 -32 -18 -45 -80 -2
-15 -14 -37 -26 -50 l-20 -24 5 25 c8 43 28 114 35 129 4 8 20 15 35 17 61 6
59 50 -3 68 -25 7 -31 14 -31 37 0 23 5 28 28 31 23 2 27 8 27 33 0 23 -5 30
-25 35 -24 6 -25 9 -22 71 4 105 32 169 76 169 12 0 28 5 36 10 24 15 -10 42
-54 43 -30 1 -42 -6 -71 -37 -19 -21 -35 -47 -35 -57 0 -35 -18 -28 -39 15
-36 73 -74 95 -128 71z"/>
</g>
</svg>
