<?xml version="1.0" standalone="no"?>
<!DOCTYPE svg PUBLIC "-//W3C//DTD SVG 20010904//EN"
 "http://www.w3.org/TR/2001/REC-SVG-20010904/DTD/svg10.dtd">
<svg version="1.0" xmlns="http://www.w3.org/2000/svg"
 width="244.000000pt" height="305.000000pt" viewBox="0 0 244.000000 305.000000"
 preserveAspectRatio="xMidYMid meet">
<metadata>
Created by potrace 1.16, written by Peter Selinger 2001-2019
</metadata>
<g transform="translate(0.000000,305.000000) scale(0.100000,-0.100000)"
fill="#000000" stroke="none">
<path d="M887 2873 c-66 -300 -79 -421 -92 -800 l-5 -143 28 -17 c15 -9 39
-28 55 -42 l27 -25 28 26 c15 15 39 31 54 37 21 8 27 17 27 38 -3 137 -21 476
-29 548 -12 104 -52 327 -57 321 -3 -2 7 -82 21 -178 29 -193 46 -406 46 -575
l0 -111 -37 -23 c-21 -13 -42 -25 -46 -27 -4 -2 -6 222 -5 497 2 276 0 501 -3
501 -4 0 -9 -12 -12 -27z"/>
<path d="M1261 2725 c-2 -159 -3 -176 -15 -150 l-13 30 -11 -40 c-44 -162 -71
-404 -72 -635 0 -111 -14 -95 -36 41 -9 58 -20 112 -25 120 -15 23 -27 -7 -34
-81 -3 -36 -9 -77 -11 -92 -5 -24 0 -31 29 -48 39 -23 51 -54 41 -106 -7 -40
-28 -53 -55 -36 -26 16 -29 15 -29 -11 0 -31 27 -67 50 -67 11 0 27 11 36 25
23 36 34 31 34 -16 0 -31 4 -42 18 -46 10 -2 27 -18 37 -35 14 -24 15 -32 4
-38 -8 -6 -18 -2 -26 10 -20 29 -72 40 -105 23 -16 -7 -28 -18 -28 -23 0 -5
12 -12 28 -15 15 -4 34 -10 42 -14 27 -13 48 -74 52 -146 3 -68 2 -70 -24 -83
-31 -15 -39 -58 -13 -68 24 -9 20 -70 -5 -77 -32 -8 -37 -37 -9 -58 23 -18 24
-19 3 -19 -25 0 -34 17 -34 66 0 33 -1 34 -40 34 -23 0 -54 -7 -71 -16 -36
-18 -61 -12 -95 24 -39 41 -55 77 -46 103 5 13 2 49 -8 93 -16 68 -18 71 -48
74 -41 4 -72 -27 -72 -72 0 -36 30 -99 105 -219 45 -73 48 -81 51 -156 2 -44
6 -97 10 -118 6 -38 4 -42 -97 -159 -149 -173 -203 -231 -196 -212 3 9 59 112
125 230 65 117 122 223 126 235 4 11 -1 53 -9 92 -14 58 -26 84 -71 141 -90
114 -105 177 -59 240 45 61 26 90 -59 90 -38 0 -48 -4 -66 -30 l-22 -30 28
-80 c34 -101 30 -154 -15 -188 -26 -21 -29 -27 -20 -49 5 -15 6 -30 1 -35 -12
-12 -335 -128 -347 -125 -5 2 8 15 30 28 283 175 345 216 345 229 0 8 -7 37
-15 64 -8 27 -15 68 -15 90 0 23 -5 48 -11 56 -8 11 -9 -12 -6 -83 l5 -98 -33
7 c-32 6 -41 -1 -207 -151 -95 -87 -179 -164 -187 -171 -8 -7 -12 -16 -9 -20
4 -3 113 29 242 72 218 72 236 80 236 101 0 35 23 38 83 10 61 -28 107 -80
107 -121 0 -21 -6 -28 -30 -32 -38 -8 -41 -12 -72 -114 -30 -98 -125 -401
-138 -443 -16 -50 -24 -57 265 262 66 73 124 139 128 147 5 9 4 29 -2 46 -20
57 -19 58 78 58 75 0 93 -3 121 -22 56 -38 59 -53 22 -91 l-32 -33 66 -325
c36 -178 67 -325 68 -327 2 -1 18 66 36 150 47 222 47 221 75 367 l25 135 -32
33 c-36 37 -34 50 16 87 22 17 46 22 122 24 89 4 94 3 94 -16 0 -12 -5 -33
-10 -48 -14 -35 -13 -36 161 -224 79 -86 165 -180 192 -209 26 -29 47 -50 47
-46 0 4 -18 64 -40 133 -21 70 -61 197 -87 282 -48 153 -49 155 -83 166 -19 6
-37 19 -38 29 -10 46 43 106 123 139 45 19 65 15 65 -13 0 -11 8 -25 18 -30
39 -21 462 -155 468 -148 3 2 -15 21 -38 42 -40 36 -178 162 -289 263 -43 40
-50 43 -84 36 -33 -6 -37 -5 -32 12 12 44 17 132 9 154 -9 23 -10 21 -15 -20
-4 -25 -9 -75 -12 -112 l-7 -67 51 2 50 2 140 -125 c77 -69 140 -128 140 -133
2 -18 -374 198 -395 227 -31 45 -35 89 -14 151 25 73 26 117 2 138 -25 23 -94
22 -122 -1 l-23 -19 27 -45 c27 -47 33 -98 16 -143 -6 -15 -35 -58 -65 -97
-60 -77 -80 -130 -70 -190 9 -49 33 -75 79 -83 l35 -7 55 -173 c72 -223 86
-268 82 -272 -3 -4 -226 372 -273 460 -14 26 -23 60 -23 88 0 45 7 59 109 219
62 97 52 190 -20 190 -13 0 -29 -4 -35 -8 -13 -8 -26 -77 -28 -148 -1 -38 -9
-63 -29 -93 -36 -54 -68 -67 -119 -46 -21 8 -54 15 -73 15 -34 0 -35 -1 -35
-38 0 -40 -14 -62 -39 -62 -12 0 -11 3 2 18 23 25 21 53 -3 59 -12 3 -20 14
-20 27 0 17 -2 18 -10 6 -8 -12 -10 -9 -10 13 0 20 5 27 19 27 42 0 36 66 -6
76 -25 7 -25 9 -20 73 2 36 12 85 22 109 15 37 23 44 62 54 44 11 44 11 25 30
-27 27 -77 26 -107 -2 -22 -20 -25 -21 -31 -6 -8 20 12 45 44 57 21 8 23 13
17 49 -8 46 -1 50 31 15 13 -14 30 -25 38 -25 20 0 46 39 46 68 0 19 -4 23
-17 17 -37 -16 -56 -10 -66 18 -15 45 -1 95 33 112 16 8 31 19 35 24 9 15 -16
189 -30 208 -12 16 -23 -29 -50 -205 -12 -75 -23 -35 -24 86 -1 120 -26 405
-38 432 -4 8 -10 123 -13 255 l-6 240 -3 -180z m-4 -565 c0 -168 -2 -294 -4
-281 -4 19 -7 21 -15 10 -7 -10 -8 -2 -4 26 3 22 6 168 7 325 1 157 5 272 9
255 4 -16 8 -167 7 -335z m37 -18 c16 -226 21 -468 10 -496 -3 -9 -12 -16 -18
-16 -10 0 -13 87 -15 372 -1 205 0 370 3 367 3 -2 12 -105 20 -227z m-30 -409
c-3 -65 -10 -122 -15 -128 -6 -5 -9 -1 -9 10 0 34 23 235 27 235 2 0 1 -53 -3
-117z m-16 -235 c-5 -32 -28 -35 -28 -4 0 17 5 26 16 26 10 0 14 -7 12 -22z
m-58 -474 c0 -24 -4 -44 -9 -44 -10 0 -20 68 -13 87 9 26 22 0 22 -43z m111
-5 c-8 -47 -51 -129 -51 -97 0 9 5 18 10 20 6 2 13 28 16 58 7 70 12 86 23 74
5 -5 6 -30 2 -55z m-51 -119 c5 -3 15 -89 24 -191 16 -182 16 -188 -5 -295
-11 -60 -23 -111 -26 -114 -3 -3 -3 121 -1 275 1 154 0 300 -4 325 -4 25 -4
36 -1 25 3 -11 9 -22 13 -25z m90 -129 c0 -46 -33 -192 -41 -184 -4 4 -11 67
-15 138 l-7 130 32 -29 c19 -18 31 -40 31 -55z"/>
<path d="M1542 2798 c-42 -196 -63 -386 -70 -631 l-7 -237 50 -32 c68 -44 63
-43 93 -15 15 14 37 28 50 32 26 7 25 -17 12 290 -5 127 -16 280 -25 340 -18
131 -43 267 -50 273 -7 7 -8 13 20 -164 31 -199 45 -376 45 -559 l0 -142 -40
-27 c-22 -14 -42 -26 -45 -26 -3 0 -5 217 -4 483 0 312 4 475 10 462 8 -17 9
-17 4 5 -2 14 -5 31 -5 38 0 6 -4 12 -8 12 -5 0 -18 -46 -30 -102z"/>
<path d="M911 2844 c0 -11 3 -14 6 -6 3 7 2 16 -1 19 -3 4 -6 -2 -5 -13z"/>
<path d="M765 1862 c-27 -6 -45 -22 -56 -49 -15 -39 -2 -54 41 -47 32 5 42 2
73 -26 39 -34 49 -73 22 -84 -38 -14 0 -145 65 -224 16 -20 30 -40 30 -45 0
-5 -16 -27 -35 -50 -58 -68 -44 -123 35 -141 42 -10 54 5 43 56 -6 24 -6 54
-2 65 l8 21 61 -19 c77 -24 87 -24 100 1 9 17 7 22 -17 31 -111 43 -175 96
-217 182 -46 92 -29 122 18 32 32 -63 111 -139 171 -166 22 -10 41 -16 43 -14
12 12 -12 53 -40 69 -63 37 -138 137 -138 184 0 11 -7 25 -15 32 -22 18 -18
42 11 73 23 25 32 28 73 25 46 -3 46 -3 43 27 -4 43 -47 79 -86 71 -36 -8 -72
-39 -80 -72 -8 -32 -21 -30 -36 6 -7 16 -18 34 -25 40 -18 15 -66 27 -90 22z"/>
<path d="M1429 1855 c-27 -15 -50 -59 -42 -82 3 -9 18 -11 48 -6 38 5 47 2 69
-20 29 -29 34 -72 11 -81 -8 -3 -15 -18 -15 -33 0 -46 -73 -138 -155 -196 -23
-16 -35 -57 -17 -57 4 0 30 13 58 29 62 36 148 128 164 176 15 46 34 46 27 0
-7 -44 -69 -133 -120 -174 -21 -16 -59 -38 -85 -47 -62 -23 -70 -31 -50 -51
16 -15 22 -15 87 4 89 26 101 18 82 -57 -7 -27 -10 -54 -6 -60 17 -27 107 9
120 49 7 24 -14 67 -49 100 -14 14 -26 30 -26 37 0 7 16 32 36 56 66 78 96
188 59 218 -23 19 -18 39 19 76 28 28 42 34 75 34 50 0 62 20 34 58 -46 62
-128 47 -163 -30 l-19 -42 -17 43 c-12 32 -26 47 -50 57 -40 17 -42 17 -75 -1z"/>
</g>
</svg>
