<?xml version="1.0" standalone="no"?>
<!DOCTYPE svg PUBLIC "-//W3C//DTD SVG 20010904//EN"
 "http://www.w3.org/TR/2001/REC-SVG-20010904/DTD/svg10.dtd">
<svg version="1.0" xmlns="http://www.w3.org/2000/svg"
 width="244.000000pt" height="305.000000pt" viewBox="0 0 244.000000 305.000000"
 preserveAspectRatio="xMidYMid meet">
<metadata>
Created by potrace 1.16, written by Peter Selinger 2001-2019
</metadata>
<g transform="translate(0.000000,305.000000) scale(0.100000,-0.100000)"
fill="#000000" stroke="none">
<path d="M1460 2917 c0 -4 -9 -70 -20 -146 -29 -202 -38 -328 -46 -603 l-6
-243 40 -39 40 -38 42 40 41 41 -10 273 c-6 150 -13 293 -16 318 -21 196 -48
387 -56 395 -5 5 -9 6 -9 2z m8 -541 l-3 -475 -29 27 -28 27 6 250 c6 252 39
645 53 645 3 0 3 -214 1 -474z"/>
<path d="M977 2798 c-34 -221 -37 -268 -52 -716 l-5 -152 41 -41 41 -41 39 39
40 38 -6 245 c-8 302 -51 740 -74 740 -3 0 -14 -51 -24 -112z m19 -886 c-3 -2
-17 8 -32 23 l-27 27 7 206 c7 200 29 495 44 577 4 22 8 -155 10 -394 1 -239
0 -436 -2 -439z"/>
<path d="M1226 2585 c-15 -39 -45 -340 -52 -520 l-8 -190 -14 115 c-7 63 -16
117 -18 119 -14 14 -24 -27 -30 -116 -7 -100 -6 -102 20 -133 38 -46 35 -155
-4 -130 -23 15 -30 12 -30 -12 1 -67 34 -90 64 -46 16 22 16 21 16 -19 0 -28
5 -43 15 -47 9 -3 23 -22 31 -41 8 -19 16 -35 19 -35 3 0 11 16 19 35 8 19 22
38 31 41 9 4 15 19 15 42 0 33 1 34 18 19 10 -10 24 -17 30 -17 16 0 32 33 32
65 0 22 -4 25 -27 23 -28 -3 -28 -2 -28 54 0 47 4 59 24 76 24 19 24 20 14
126 -9 99 -16 126 -28 115 -2 -3 -10 -51 -16 -107 -7 -57 -13 -101 -15 -99 -3
3 -7 73 -19 332 -6 121 -29 308 -44 347 -7 20 -8 20 -15 3z m4 -535 l0 -441
-21 20 c-22 20 -22 23 -16 313 4 253 23 548 34 548 1 0 3 -198 3 -440z"/>
<path d="M886 1857 c-12 -9 -19 -28 -20 -53 -1 -37 1 -39 32 -42 25 -3 38 -11
53 -35 21 -35 25 -67 8 -67 -25 0 -5 -122 32 -201 l36 -75 -29 -54 c-20 -38
-27 -62 -23 -80 10 -38 36 -61 64 -58 25 3 26 4 23 72 -3 54 -1 67 10 63 7 -3
29 -11 50 -18 34 -11 36 -14 31 -45 -5 -29 -2 -35 21 -44 35 -13 34 -45 -3
-64 -27 -14 -29 -14 -34 4 -6 25 -39 26 -78 3 -27 -16 -29 -16 -50 3 -32 29
-41 60 -45 158 -5 122 -34 165 -79 116 -25 -28 -23 -99 4 -167 27 -69 19 -68
-14 0 -31 66 -33 133 -6 186 18 34 18 41 6 58 -35 49 -107 32 -120 -28 -5 -23
-9 -28 -16 -18 -5 9 -9 -22 -9 -78 0 -90 -1 -93 -22 -94 -17 0 -43 -26 -93
-91 -38 -49 -75 -95 -80 -101 -6 -7 -28 -37 -50 -67 -22 -30 -45 -59 -52 -63
-7 -4 -13 -12 -13 -17 0 -20 42 -9 137 36 54 25 118 55 143 66 55 24 80 45 80
70 0 26 21 22 60 -9 58 -49 78 -127 36 -143 -26 -10 -21 11 -107 -383 -22
-103 -39 -193 -37 -199 3 -9 104 144 247 375 40 65 42 71 33 112 -5 25 -7 47
-4 50 13 13 99 4 129 -14 42 -26 50 -54 24 -90 -12 -16 -21 -38 -21 -49 0 -28
80 -581 89 -617 8 -33 8 -38 60 325 46 316 46 304 19 340 -21 29 -21 33 -7 58
20 36 54 52 113 52 l49 0 -7 -51 c-8 -56 -11 -49 101 -221 35 -54 63 -99 63
-102 0 -4 98 -166 106 -175 14 -16 14 19 1 76 -9 38 -37 166 -63 287 -43 195
-50 219 -71 229 -46 21 -21 106 43 148 39 26 54 24 54 -7 0 -22 10 -30 78 -61
42 -19 119 -55 171 -79 51 -25 96 -43 98 -40 6 5 -35 65 -103 153 -27 35 -73
94 -103 133 -40 52 -60 70 -78 70 -24 0 -24 2 -23 78 1 42 1 86 0 97 -3 30
-17 -31 -20 -85 -1 -25 -8 -67 -16 -95 l-13 -50 4 75 c2 41 9 96 16 122 19 71
4 98 -56 98 -40 0 -45 -3 -51 -26 -4 -16 0 -39 10 -60 27 -58 21 -122 -21
-203 -20 -39 -38 -69 -40 -67 -3 2 2 18 11 34 49 95 60 188 26 222 -38 38 -53
23 -68 -70 -7 -41 -9 -85 -6 -96 6 -23 -24 -92 -51 -114 -14 -11 -21 -11 -45
3 -38 23 -71 22 -77 -2 -4 -17 -9 -18 -28 -9 -40 18 -43 61 -4 71 14 4 19 14
19 40 0 29 5 37 28 45 15 5 35 13 46 17 17 7 18 3 15 -61 -4 -68 -4 -69 23
-72 57 -7 75 71 34 147 l-23 45 34 72 c37 78 55 185 34 198 -18 11 -13 51 10
80 15 19 30 26 56 26 35 0 36 0 30 36 -16 95 -93 98 -134 6 -10 -24 -11 -25
-12 -6 -1 31 -39 74 -65 74 -38 0 -62 -41 -57 -97 1 -8 15 -13 36 -13 31 0 38
-5 50 -32 12 -28 12 -36 -1 -55 -8 -12 -14 -34 -14 -49 0 -37 -49 -131 -83
-160 -31 -26 -49 -84 -25 -84 16 0 85 70 112 114 10 15 26 51 36 80 23 63 26
35 4 -31 -24 -73 -73 -140 -128 -174 l-49 -31 5 64 c7 80 23 114 59 127 16 5
29 14 29 20 0 12 -40 41 -57 41 -20 0 -49 -38 -63 -83 l-12 -42 -20 53 c-24
65 -54 84 -93 58 -33 -21 -32 -35 4 -47 36 -13 52 -47 59 -127 l5 -62 -47 26
c-67 38 -147 164 -146 232 1 19 7 9 21 -33 22 -62 53 -111 102 -157 65 -62 78
-15 16 58 -52 63 -79 115 -79 156 0 18 -7 42 -15 52 -28 37 2 83 56 88 31 3
34 5 30 33 -5 44 -18 64 -48 71 -21 6 -31 1 -50 -20 -13 -15 -23 -34 -23 -42
0 -8 -4 -14 -10 -14 -5 0 -10 6 -10 14 0 24 -41 66 -64 66 -12 0 -30 -6 -40
-13z m-107 -535 c1 -29 -5 -65 -13 -80 -16 -29 -69 -82 -83 -82 -4 0 -34 -25
-65 -55 -32 -30 -62 -55 -68 -55 -7 0 -8 4 -1 13 42 52 100 128 121 159 22 33
30 38 64 38 l38 0 -6 83 c-3 51 -2 73 3 57 5 -14 9 -49 10 -78z m408 -14 c-3
-8 -6 -5 -6 6 -1 11 2 17 5 13 3 -3 4 -12 1 -19z m579 -133 c38 -36 95 -87
126 -112 31 -26 56 -49 54 -51 -2 -1 -54 24 -117 57 l-113 60 3 40 c2 30 -2
43 -13 47 -14 5 -23 24 -12 24 2 0 34 -29 72 -65z m-797 -140 c0 -39 -12 -81
-55 -185 -31 -74 -70 -170 -87 -212 -17 -43 -33 -76 -35 -73 -3 2 13 84 34
181 l39 177 36 23 c38 24 48 51 50 139 1 59 17 14 18 -50z m544 10 c-7 -83
-12 -63 94 -334 35 -90 62 -165 60 -167 -3 -3 -70 107 -149 246 -21 38 -35 73
-33 85 3 11 7 63 9 115 4 85 11 130 22 130 2 0 1 -34 -3 -75z m-309 -19 c7
-53 28 -97 41 -84 4 3 12 36 18 72 8 49 15 66 27 65 10 0 11 -2 3 -6 -7 -2
-13 -22 -13 -42 0 -21 -11 -59 -25 -85 -25 -47 -25 -48 -26 -329 l-1 -282 -34
224 -34 225 30 46 c34 53 36 72 15 123 -8 20 -15 54 -15 76 0 29 -5 41 -17 44
-14 4 -14 5 3 6 19 1 23 -6 28 -53z"/>
</g>
</svg>
