<?xml version="1.0" standalone="no"?>
<!DOCTYPE svg PUBLIC "-//W3C//DTD SVG 20010904//EN"
 "http://www.w3.org/TR/2001/REC-SVG-20010904/DTD/svg10.dtd">
<svg version="1.0" xmlns="http://www.w3.org/2000/svg"
 width="244.000000pt" height="305.000000pt" viewBox="0 0 244.000000 305.000000"
 preserveAspectRatio="xMidYMid meet">
<metadata>
Created by potrace 1.16, written by Peter Selinger 2001-2019
</metadata>
<g transform="translate(0.000000,305.000000) scale(0.100000,-0.100000)"
fill="#000000" stroke="none">
<path d="M910 2893 c0 -10 -3 -29 -5 -43 -5 -22 -4 -22 4 -5 6 13 10 -150 10
-462 1 -266 -2 -483 -5 -483 -3 0 -24 14 -46 32 l-40 31 6 161 c10 251 16 341
36 481 10 72 21 150 24 175 10 82 -21 -65 -38 -180 -31 -207 -49 -680 -26
-680 5 0 26 -14 46 -32 25 -22 40 -29 48 -22 7 5 32 21 55 37 l41 27 0 73 c0
239 -41 658 -82 845 -11 53 -28 79 -28 45z"/>
<path d="M1371 2788 c-21 -230 -31 -442 -31 -668 0 -124 -4 -231 -9 -238 -4
-8 -11 54 -15 144 -9 199 -28 363 -56 484 -26 109 -29 107 -60 -45 -24 -113
-38 -250 -46 -450 -4 -88 -11 -150 -15 -143 -5 7 -8 29 -7 48 0 19 -4 53 -10
75 -43 159 -42 147 -38 530 1 204 -1 345 -5 315 -15 -110 -30 -371 -35 -650
l-7 -285 32 -29 c30 -29 41 -56 21 -56 -5 0 -10 6 -10 13 0 22 -44 40 -79 32
-34 -7 -71 -47 -71 -76 0 -29 -13 -22 -35 18 -43 81 -149 79 -157 -2 -3 -29
-1 -30 46 -36 37 -4 55 -12 72 -33 28 -31 31 -71 8 -80 -25 -10 -12 -95 26
-163 34 -63 40 -131 15 -173 -8 -14 -20 -38 -26 -53 -7 -19 -15 -25 -21 -19
-6 6 -7 16 -1 26 9 17 -2 128 -16 156 -12 22 -59 24 -82 4 -36 -32 -20 -109
45 -217 16 -26 26 -51 22 -54 -3 -4 -7 -4 -9 -2 -1 2 -20 25 -40 51 -47 59
-76 123 -77 166 0 19 12 54 27 79 l27 46 -23 18 c-25 21 -81 25 -112 9 -24
-13 -26 -69 -4 -130 19 -54 19 -113 0 -149 -8 -16 -48 -50 -92 -78 -134 -86
-285 -174 -290 -170 -2 3 58 64 134 136 l138 132 44 -6 43 -7 -6 64 c-14 137
-18 160 -26 148 -5 -7 -7 -27 -5 -44 3 -17 6 -55 9 -84 l5 -53 -33 7 c-33 6
-39 1 -206 -163 -95 -92 -177 -171 -183 -175 -6 -4 -9 -9 -7 -12 3 -3 77 20
165 50 329 114 303 103 307 132 2 22 7 27 28 24 30 -3 109 -50 123 -73 13 -21
2 -61 -26 -96 -14 -16 -37 -76 -55 -138 -18 -60 -54 -186 -81 -280 -27 -93
-48 -171 -47 -173 5 -5 248 279 355 414 28 36 30 44 21 68 -19 52 -14 66 26
66 35 0 36 -1 30 -32 -3 -18 -17 -118 -32 -223 -14 -104 -28 -208 -31 -230 -3
-22 -3 -38 0 -35 2 3 43 100 89 215 71 176 84 217 80 253 -5 47 -2 49 34 26
45 -30 48 -49 12 -90 l-32 -36 58 -301 c32 -166 61 -313 65 -326 7 -24 14 8
113 527 l20 103 -31 35 c-35 39 -32 58 14 88 35 23 43 14 38 -37 -5 -38 7 -74
83 -265 49 -122 90 -220 91 -218 2 2 0 30 -3 62 -5 35 -10 51 -14 40 -4 -11
-11 6 -23 51 -9 37 -35 137 -57 221 -22 85 -40 158 -40 163 0 17 49 9 54 -8 3
-10 17 -103 32 -208 14 -104 28 -192 30 -194 7 -8 4 24 -21 199 -33 230 -33
228 5 222 34 -5 38 -22 16 -64 -13 -25 -12 -29 11 -55 13 -15 41 -48 61 -73
20 -25 64 -77 97 -116 33 -39 89 -105 125 -147 35 -42 67 -77 71 -77 6 0 -92
347 -131 464 -11 32 -17 62 -15 66 3 4 -9 34 -25 66 -16 33 -30 64 -30 70 0
20 107 84 141 84 5 0 9 -11 9 -24 0 -14 5 -28 10 -31 10 -6 355 -128 413 -145
15 -5 27 -5 27 0 0 4 -77 82 -171 172 -155 148 -174 163 -204 161 l-32 -2 3
92 c3 83 2 87 -7 42 -5 -27 -16 -77 -25 -109 -12 -49 -13 -62 -2 -72 14 -13
256 -174 322 -214 22 -13 35 -25 29 -27 -13 -5 -323 113 -338 128 -5 6 -5 13
3 21 15 15 16 48 2 48 -5 0 -19 9 -30 20 -25 25 -27 117 -4 181 8 24 16 56 16
72 2 54 -52 82 -115 58 -35 -14 -39 -34 -11 -74 29 -43 32 -112 8 -159 -26
-50 -92 -129 -99 -118 -3 5 12 40 35 77 64 107 52 193 -27 193 -15 0 -24 -7
-27 -22 -3 -13 -8 -36 -12 -53 -4 -16 -7 -49 -8 -72 0 -23 -4 -39 -8 -37 -5 3
-8 11 -8 19 0 7 -7 15 -15 19 -12 4 -15 23 -15 81 0 61 5 85 25 125 26 51 34
133 15 145 -20 13 -10 56 21 86 28 27 37 31 70 26 33 -4 39 -2 39 13 0 95
-119 111 -160 22 -16 -33 -30 -42 -30 -18 0 8 -11 28 -25 44 -40 48 -107 54
-120 11 -8 -25 -25 -25 -25 1 0 11 5 20 10 20 14 0 50 60 50 83 0 10 -4 16 -9
12 -10 -6 -14 11 -29 120 -4 33 -7 234 -7 448 1 213 0 387 -1 387 -1 0 -6 -55
-13 -122z m-169 -668 c-5 -212 -8 -262 -15 -220 -12 78 3 513 18 498 2 -2 0
-127 -3 -278z m-25 -367 c-2 -21 -4 -6 -4 32 0 39 2 55 4 38 2 -18 2 -50 0
-70z m-129 -31 c0 -20 5 -75 10 -122 4 -47 7 -87 5 -89 -2 -2 -13 4 -24 15
-26 23 -49 74 -49 108 0 15 -8 30 -20 36 -26 14 -25 32 5 68 35 42 70 34 73
-16z m446 16 c20 -28 20 -52 1 -68 -8 -7 -15 -23 -15 -37 0 -26 -22 -74 -50
-111 -17 -21 -18 -19 -12 75 3 54 5 113 5 131 0 28 4 32 28 32 17 0 34 -8 43
-22z m-294 -73 c0 -24 -5 -35 -15 -35 -18 0 -19 11 -3 45 15 33 18 32 18 -10z
m-50 -10 c0 -28 5 -37 23 -44 13 -5 32 -26 42 -46 13 -29 19 -35 27 -24 7 10
8 4 4 -20 -3 -18 -6 -41 -7 -50 0 -9 -8 11 -17 44 -13 45 -22 60 -37 63 -64 9
-65 10 -65 56 0 23 3 46 7 49 15 15 23 5 23 -28z m195 -21 l0 -49 -37 -3 c-44
-4 -51 13 -13 28 20 8 25 16 25 46 0 24 4 34 13 32 7 -3 12 -23 12 -54z m-400
-54 c14 -31 15 -44 7 -52 -9 -9 -15 -2 -27 25 -29 71 -11 95 20 27z m442 8
c-3 -7 -5 -2 -5 12 0 14 2 19 5 13 2 -7 2 -19 0 -25z m168 0 c-8 -36 -29 -65
-38 -51 -7 11 23 83 35 83 6 0 7 -13 3 -32z m-419 -126 l16 -37 -21 20 c-11
11 -23 36 -26 55 -5 28 -4 32 5 17 6 -9 18 -34 26 -55z m219 2 c-24 -38 -28
-23 -8 27 15 37 18 40 21 21 2 -13 -4 -35 -13 -48z m119 0 c4 -9 4 -19 2 -21
-8 -8 -26 8 -26 23 0 19 16 18 24 -2z m-450 -3 c3 -5 -1 -14 -9 -21 -13 -10
-15 -9 -15 9 0 21 14 28 24 12z m380 -72 c-9 -10 -21 -19 -26 -19 -15 0 -8 23
15 48 19 20 23 21 25 7 2 -9 -4 -25 -14 -36z m137 -42 c-13 -13 -15 34 -3 73
6 21 7 18 10 -19 2 -24 -2 -49 -7 -54z m-454 61 c25 -24 30 -38 11 -38 -16 0
-48 31 -48 47 0 19 10 16 37 -9z m-137 -30 c0 -10 -4 -18 -10 -18 -5 0 -10 15
-10 33 0 24 3 28 10 17 5 -8 10 -23 10 -32z m230 6 c0 -8 -4 -14 -10 -14 -5 0
-10 4 -10 9 0 5 -3 18 -7 28 -6 16 -5 16 10 4 9 -7 17 -20 17 -27z m132 11
c-2 -14 -8 -25 -13 -25 -12 0 -11 7 1 31 14 26 18 24 12 -6z m-275 -209 c-6
-17 -37 85 -36 118 0 23 6 13 20 -38 11 -38 18 -74 16 -80z m372 36 c-15 -47
-46 -79 -62 -63 -6 6 -24 11 -39 11 -29 0 -33 6 -22 34 8 20 53 21 60 1 17
-44 53 8 55 78 l1 42 9 -33 c7 -23 6 -45 -2 -70z m54 24 c-9 -36 -21 -66 -25
-66 -10 0 -11 -3 8 61 22 77 24 83 30 77 3 -3 -3 -35 -13 -72z m-391 35 c-4
-29 21 -91 38 -91 5 0 11 9 15 19 8 27 59 13 63 -17 3 -18 -1 -22 -25 -22 -16
0 -34 -5 -40 -11 -14 -14 -38 7 -53 46 -12 32 -13 105 -2 105 5 0 7 -13 4 -29z
m98 19 c0 -5 -9 -10 -19 -10 -11 0 -22 -6 -24 -12 -4 -8 -6 -7 -6 4 -1 16 12
26 37 27 6 1 12 -3 12 -9z m171 0 c5 0 9 -6 9 -14 0 -11 -5 -12 -25 -3 -27 13
-35 33 -9 23 9 -3 20 -6 25 -6z m246 -87 c-11 -25 -22 -29 -32 -13 -3 5 2 21
12 34 21 28 36 14 20 -21z m-657 -34 c0 -18 -2 -19 -15 -9 -15 12 -12 30 6 30
5 0 9 -10 9 -21z m710 -28 c0 -5 -3 -17 -6 -26 -5 -12 -9 -14 -14 -4 -5 7 -6
18 -3 26 6 15 23 18 23 4z m-770 -61 c0 -19 -17 -36 -27 -26 -3 3 -2 17 1 31
7 28 26 25 26 -5z m10 -72 c0 -21 -33 -92 -101 -217 -56 -102 -117 -214 -136
-249 -19 -35 -37 -62 -39 -60 -2 2 14 62 36 134 21 71 50 168 64 215 l26 86
50 21 c34 14 50 27 50 39 0 22 27 63 41 63 5 0 9 -14 9 -32z m731 -19 c6 -40
34 -98 190 -396 27 -51 45 -93 40 -93 -17 0 -276 340 -273 358 4 19 11 124 12
160 0 41 25 18 31 -29z m99 12 c-1 -13 -3 -13 -15 3 -19 26 -19 42 0 26 8 -7
15 -20 15 -29z m-460 -81 c0 -5 -4 -12 -10 -15 -5 -3 -10 -4 -10 -1 0 2 -3 12
-6 20 -5 12 -2 15 10 10 9 -3 16 -10 16 -14z m-175 -32 c5 -35 -1 -61 -30
-138 -20 -52 -48 -126 -62 -163 -14 -37 -27 -66 -29 -64 -2 2 17 84 41 183 25
98 47 189 50 202 9 35 23 26 30 -20z m113 -75 c-9 -24 -8 -73 5 -219 9 -103
15 -189 13 -191 -2 -3 -76 355 -76 370 0 9 62 78 66 74 2 -2 -2 -17 -8 -34z"/>
<path d="M1548 2400 c2 -275 0 -500 -3 -500 -3 0 -20 10 -39 22 -31 20 -34 28
-39 83 -12 122 20 551 53 728 12 61 11 107 -1 52 -29 -135 -50 -340 -61 -584
-12 -264 -11 -275 6 -285 11 -6 34 -24 53 -40 l33 -28 35 31 c20 17 40 31 44
31 5 0 12 7 15 16 9 24 -12 494 -29 629 -16 129 -53 326 -63 337 -4 4 -6 -218
-4 -492z"/>
<path d="M1403 2715 c0 -22 2 -30 4 -17 2 12 2 30 0 40 -3 9 -5 -1 -4 -23z"/>
<path d="M1103 2695 c0 -22 2 -30 4 -17 2 12 2 30 0 40 -3 9 -5 -1 -4 -23z"/>
<path d="M1413 2565 c0 -33 2 -45 4 -27 2 18 2 45 0 60 -2 15 -4 0 -4 -33z"/>
<path d="M1113 2550 c0 -30 2 -43 4 -27 2 15 2 39 0 55 -2 15 -4 2 -4 -28z"/>
<path d="M1424 2320 c0 -58 1 -81 3 -52 2 28 2 76 0 105 -2 28 -3 5 -3 -53z"/>
<path d="M1124 2260 c0 -63 1 -89 3 -57 2 31 2 83 0 115 -2 31 -3 5 -3 -58z"/>
</g>
</svg>
