<?xml version="1.0" standalone="no"?>
<!DOCTYPE svg PUBLIC "-//W3C//DTD SVG 20010904//EN"
 "http://www.w3.org/TR/2001/REC-SVG-20010904/DTD/svg10.dtd">
<svg version="1.0" xmlns="http://www.w3.org/2000/svg"
 width="244.000000pt" height="305.000000pt" viewBox="0 0 244.000000 305.000000"
 preserveAspectRatio="xMidYMid meet">
<metadata>
Created by potrace 1.16, written by Peter Selinger 2001-2019
</metadata>
<g transform="translate(0.000000,305.000000) scale(0.100000,-0.100000)"
fill="#000000" stroke="none">
<path d="M1542 2812 c-28 -127 -50 -259 -57 -352 -3 -41 -8 -93 -10 -115 -2
-22 -7 -124 -11 -227 l-7 -186 43 -29 c24 -15 49 -32 55 -37 9 -7 23 -1 44 17
17 14 40 28 51 32 18 6 20 15 20 108 0 231 -21 488 -56 685 -27 151 -27 99 0
-89 25 -180 31 -249 42 -504 l6 -150 -41 -34 c-23 -18 -45 -30 -48 -27 -9 8
-9 903 -1 953 4 23 4 45 -1 47 -4 3 -18 -38 -29 -92z"/>
<path d="M896 2884 c-48 -156 -95 -592 -96 -896 0 -67 0 -68 33 -81 17 -8 40
-24 51 -35 l19 -22 30 26 c17 14 41 30 54 35 27 10 27 7 13 325 -9 207 -28
379 -55 499 -19 87 -18 55 5 -97 25 -171 40 -377 40 -550 l0 -137 -30 -18
c-16 -9 -30 -21 -30 -25 0 -4 -7 -8 -15 -8 -13 0 -15 60 -15 480 0 264 2 480
5 480 2 0 9 -15 15 -32 9 -32 10 -32 4 7 -8 54 -20 75 -28 49z"/>
<path d="M1171 2855 c-1 -27 -6 -259 -11 -514 -5 -255 -13 -468 -18 -473 -5
-5 -14 28 -21 79 -15 111 -30 168 -41 157 -12 -12 -30 -118 -30 -173 0 -41 4
-48 35 -69 31 -20 35 -27 35 -65 0 -24 -6 -52 -14 -63 -13 -16 -18 -17 -35 -6
-43 25 -54 5 -26 -48 19 -37 41 -38 77 -3 l28 27 0 -40 c0 -21 3 -49 6 -61 6
-20 3 -22 -30 -21 -23 1 -44 -6 -57 -18 l-20 -18 33 -12 c28 -10 33 -15 30
-40 -2 -16 -5 -31 -8 -33 -7 -7 -74 61 -100 101 -13 21 -24 49 -24 63 0 14 -9
34 -20 45 -27 27 -25 36 11 72 27 28 34 30 76 24 l45 -6 -6 33 c-7 38 -48 77
-79 77 -33 0 -67 -28 -83 -66 -8 -19 -18 -34 -22 -34 -4 0 -15 18 -25 40 -31
66 -114 73 -150 13 -26 -45 -14 -64 34 -57 35 6 42 3 74 -29 40 -40 43 -57 15
-82 -11 -10 -20 -26 -20 -36 0 -30 40 -121 74 -169 18 -25 35 -50 39 -57 4 -6
-8 -29 -27 -52 -42 -50 -51 -74 -36 -101 10 -19 59 -50 79 -50 5 0 16 7 25 15
12 12 13 22 6 41 -6 14 -10 39 -10 55 0 33 14 36 71 18 19 -6 41 -13 49 -15 9
-3 11 -7 4 -12 -6 -4 -15 -29 -20 -57 l-9 -49 -64 -22 c-76 -26 -95 -22 -137
33 -23 31 -29 48 -30 93 -1 65 -13 130 -27 148 -13 17 -48 15 -75 -4 -16 -11
-22 -25 -22 -53 0 -40 23 -90 104 -229 47 -79 49 -86 51 -165 1 -45 5 -93 9
-107 8 -30 -2 -45 -139 -205 -130 -152 -157 -182 -153 -170 5 16 67 133 113
215 109 193 135 249 135 287 0 66 -28 137 -81 209 -86 114 -99 170 -54 236 14
20 25 43 25 51 0 19 -43 37 -90 37 -32 0 -43 -5 -57 -26 -16 -25 -16 -30 2
-93 10 -36 20 -90 23 -119 4 -48 1 -54 -28 -82 -27 -25 -30 -34 -25 -63 6 -31
4 -34 -27 -44 -18 -6 -96 -34 -173 -62 -77 -28 -144 -51 -150 -51 -10 1 37 31
268 177 104 65 108 69 103 98 -3 17 -11 67 -18 113 -17 111 -33 106 -25 -7 l7
-90 -33 5 c-30 5 -43 -4 -202 -151 -93 -87 -176 -163 -184 -171 -8 -7 -12 -16
-10 -19 3 -3 109 29 236 70 228 75 231 76 237 106 5 28 9 31 33 24 78 -19 153
-89 153 -141 0 -17 -9 -25 -34 -34 -33 -11 -36 -16 -69 -118 -55 -167 -137
-442 -137 -455 1 -7 11 0 23 14 12 14 92 104 177 200 212 238 201 221 185 266
-8 21 -10 42 -5 47 15 15 155 9 189 -8 28 -15 31 -21 31 -61 0 -24 -5 -47 -11
-50 -11 -7 -4 -206 8 -250 l6 -20 7 20 c5 14 13 -12 25 -80 9 -55 25 -136 35
-180 10 -44 21 -100 25 -125 5 -25 10 -40 12 -33 2 7 24 108 48 225 24 117 44
206 45 198 4 -25 18 60 25 151 5 59 3 89 -4 93 -6 4 -11 17 -11 29 0 16 -3 18
-9 9 -6 -11 -10 -10 -15 3 -4 12 4 28 24 49 30 30 34 31 132 34 l101 4 -8 -34
c-4 -18 -9 -42 -11 -53 -4 -15 45 -75 187 -235 106 -118 196 -216 200 -218 4
-2 -4 34 -18 80 -14 46 -53 173 -87 283 l-61 200 -35 11 c-41 13 -45 23 -31
66 13 39 65 83 122 103 46 16 59 13 59 -15 0 -11 9 -24 20 -30 33 -18 442
-151 453 -147 8 2 -119 125 -273 263 -25 22 -56 50 -69 62 -19 17 -33 21 -56
16 l-31 -6 3 94 c4 115 -11 90 -21 -34 l-6 -88 44 6 45 7 146 -133 c80 -73
143 -135 141 -138 -7 -7 -357 196 -385 223 -35 34 -43 96 -20 163 24 70 24
114 1 135 -25 23 -94 22 -123 -2 l-23 -19 27 -41 c49 -73 35 -146 -43 -241
-52 -62 -70 -102 -70 -153 0 -76 15 -103 65 -117 l44 -12 31 -97 c49 -150 110
-349 110 -358 0 -8 -57 88 -123 207 -17 30 -53 93 -80 140 -28 47 -61 105 -74
130 -37 69 -29 109 52 241 77 126 94 192 60 229 -18 20 -60 26 -81 12 -13 -8
-27 -89 -26 -151 1 -48 -14 -85 -50 -117 -34 -31 -60 -36 -97 -18 -19 9 -48
14 -71 12 -37 -3 -41 -1 -51 29 -6 18 -7 43 -3 55 7 22 7 22 15 3 6 -13 7 -8
3 15 -5 36 -5 36 47 52 29 10 56 15 62 11 5 -3 6 -32 2 -69 -8 -73 3 -86 54
-64 69 28 76 77 21 137 -17 18 -30 39 -30 47 0 9 18 39 39 67 21 28 46 77 55
107 15 53 15 58 -3 93 -19 36 -19 37 -1 67 24 40 53 54 98 50 32 -3 37 0 40
20 5 30 -48 82 -83 82 -30 0 -95 -57 -95 -84 0 -26 -17 -18 -30 13 -17 43 -44
63 -85 64 -43 1 -75 -27 -78 -69 -2 -28 -1 -29 37 -26 48 5 81 -12 97 -50 9
-23 9 -32 -3 -46 -8 -9 -20 -36 -27 -59 -11 -41 -111 -163 -133 -163 -5 0 -8
17 -6 37 3 31 8 38 36 47 32 11 33 12 14 29 -10 10 -35 17 -55 17 l-37 0 6 58
c4 31 8 59 10 61 2 2 13 -8 25 -22 11 -15 29 -27 39 -27 23 0 50 36 50 67 0
23 -23 32 -35 13 -11 -18 -43 -10 -49 13 -17 63 6 123 53 138 9 3 13 21 13 53
-1 57 -22 165 -33 171 -8 6 -24 -62 -41 -172 -6 -40 -14 -73 -19 -73 -5 0 -9
37 -9 83 0 45 -5 141 -11 212 -6 72 -14 220 -18 330 -7 177 -8 186 -10 80 l-2
-120 -20 74 c-10 41 -21 76 -22 78 -2 2 -14 -41 -27 -94 -12 -54 -24 -102 -26
-108 -2 -5 -3 53 -1 130 2 77 1 194 -3 260 -3 66 -7 98 -9 70z m105 -690 c5
-264 10 -317 26 -294 8 11 9 10 4 -4 -3 -10 -7 -35 -7 -55 -1 -20 -3 -28 -6
-17 -2 11 -6 31 -9 44 -3 15 -8 20 -12 14 -4 -6 -7 39 -6 100 l2 112 -8 -90
c-12 -133 -11 -288 1 -305 8 -11 9 -1 4 38 -6 56 9 73 20 21 9 -39 -1 -93 -19
-109 -11 -9 -16 -7 -20 8 -4 11 -5 216 -4 456 3 391 4 431 16 379 9 -36 15
-148 18 -298z m21 -212 c-2 -32 -3 -6 -3 57 0 63 1 89 3 58 2 -32 2 -84 0
-115z m-363 -380 c20 -48 108 -142 159 -169 34 -18 38 -49 5 -39 -88 27 -197
155 -198 233 0 35 13 26 34 -25z m636 20 c0 -34 -48 -118 -86 -154 -34 -32
-103 -79 -115 -79 -19 0 -8 39 12 45 37 12 148 134 160 176 14 45 29 51 29 12z
m-367 -6 c3 -8 1 -20 -4 -28 -6 -10 -9 -7 -9 14 0 29 5 35 13 14z m74 -19 c-3
-8 -6 -5 -6 6 -1 11 2 17 5 13 3 -3 4 -12 1 -19z m-40 -85 c-3 -10 -5 -2 -5
17 0 19 2 27 5 18 2 -10 2 -26 0 -35z m-67 -59 c8 -47 8 -70 1 -77 -8 -8 -11
6 -11 47 0 35 -4 55 -10 51 -6 -4 -10 7 -10 25 0 52 17 25 30 -46z m160 28 c0
-21 -2 -24 -10 -12 -7 11 -10 1 -10 -35 0 -27 -5 -57 -11 -65 -12 -17 -6 100
6 132 10 25 25 12 25 -20z m-217 -274 c-6 -54 -22 -101 -23 -66 0 22 20 118
25 118 2 0 1 -24 -2 -52z m183 -6 c-11 -10 -15 4 -8 28 l7 25 3 -23 c2 -13 1
-26 -2 -30z m21 26 c-3 -8 -6 -5 -6 6 -1 11 2 17 5 13 3 -3 4 -12 1 -19z
m-160 -10 c-3 -8 -6 -5 -6 6 -1 11 2 17 5 13 3 -3 4 -12 1 -19z m27 -3 c3 -8
1 -15 -4 -15 -6 0 -10 7 -10 15 0 8 2 15 4 15 2 0 6 -7 10 -15z m-49 -105 c3
-5 2 -10 -4 -10 -5 0 -13 5 -16 10 -3 6 -2 10 4 10 5 0 13 -4 16 -10z m225 0
c0 -5 -9 -10 -21 -10 -11 0 -17 5 -14 10 3 6 13 10 21 10 8 0 14 -4 14 -10z
m-123 -162 c-3 -8 -6 -5 -6 6 -1 11 2 17 5 13 3 -3 4 -12 1 -19z m63 -129 c16
-86 12 -163 -20 -323 -17 -83 -32 -154 -33 -158 -5 -20 -7 512 -1 545 l6 37
19 -24 c11 -13 24 -48 29 -77z m40 -26 c0 -13 -4 -23 -10 -23 -5 0 -10 17 -10
38 0 27 3 33 10 22 5 -8 10 -25 10 -37z"/>
<path d="M1253 755 c0 -33 2 -45 4 -27 2 18 2 45 0 60 -2 15 -4 0 -4 -33z"/>
<path d="M1581 2834 c0 -11 3 -14 6 -6 3 7 2 16 -1 19 -3 4 -6 -2 -5 -13z"/>
<path d="M1303 2540 c0 -25 2 -35 4 -22 2 12 2 32 0 45 -2 12 -4 2 -4 -23z"/>
<path d="M1342 535 c-1 -11 3 -38 7 -60 l9 -40 0 35 c0 19 -4 46 -8 60 -6 20
-8 21 -8 5z"/>
<path d="M1111 485 l1 -60 9 44 c5 26 5 50 -1 60 -7 11 -9 -2 -9 -44z"/>
</g>
</svg>
