<?xml version="1.0" standalone="no"?>
<!DOCTYPE svg PUBLIC "-//W3C//DTD SVG 20010904//EN"
 "http://www.w3.org/TR/2001/REC-SVG-20010904/DTD/svg10.dtd">
<svg version="1.0" xmlns="http://www.w3.org/2000/svg"
 width="244.000000pt" height="305.000000pt" viewBox="0 0 244.000000 305.000000"
 preserveAspectRatio="xMidYMid meet">
<metadata>
Created by potrace 1.16, written by Peter Selinger 2001-2019
</metadata>
<g transform="translate(0.000000,305.000000) scale(0.100000,-0.100000)"
fill="#000000" stroke="none">
<path d="M886 2761 c-36 -188 -54 -375 -62 -627 l-7 -212 24 -12 c13 -7 36
-24 52 -38 l27 -26 28 26 c15 14 38 31 51 38 l24 12 -7 212 c-9 272 -18 369
-52 566 -7 47 -14 89 -14 94 0 5 -2 7 -5 4 -3 -3 3 -68 14 -144 28 -189 41
-367 41 -553 l0 -156 -33 -20 c-17 -11 -36 -21 -40 -23 -4 -2 -7 221 -5 497 2
276 0 501 -3 501 -4 0 -19 -62 -33 -139z"/>
<path d="M1527 2813 c-46 -247 -63 -411 -72 -684 -7 -205 -7 -207 14 -214 12
-3 35 -18 52 -32 l30 -26 27 22 c15 12 37 26 50 33 21 11 22 17 22 133 0 204
-20 472 -46 625 -14 79 -28 147 -31 150 -3 3 -3 -11 1 -30 36 -201 66 -537 66
-735 l0 -100 -38 -25 c-20 -14 -40 -26 -44 -28 -5 -2 -8 212 -8 475 0 312 4
473 10 463 8 -13 10 -12 10 3 0 9 -4 17 -9 17 -5 0 -7 9 -4 20 3 11 1 20 -4
20 -6 0 -17 -39 -26 -87z"/>
<path d="M1117 2785 c-4 -55 -10 -226 -13 -380 -4 -205 -9 -288 -20 -311 -23
-53 -34 -175 -18 -208 17 -35 13 -41 -16 -26 -36 19 -86 -4 -107 -50 -10 -22
-20 -40 -23 -40 -3 0 -12 15 -20 33 -8 17 -30 39 -48 48 -45 23 -82 12 -104
-30 -22 -43 -14 -62 22 -55 69 14 139 -68 95 -112 -8 -9 -15 -26 -15 -40 0
-38 35 -119 74 -174 20 -28 36 -52 36 -55 0 -3 -16 -25 -35 -51 -44 -57 -45
-86 -3 -124 25 -23 30 -32 20 -42 -26 -26 -82 56 -81 119 1 53 -12 135 -24
151 -15 19 -54 14 -77 -10 -34 -36 -21 -92 50 -215 75 -131 88 -172 71 -219
-9 -25 -10 -39 -2 -48 6 -7 14 -33 17 -58 l6 -44 -103 -127 c-57 -70 -117
-144 -132 -165 -59 -78 -47 -39 39 124 158 300 157 300 150 361 -8 72 -26 112
-82 185 -76 100 -88 171 -40 239 33 48 11 79 -58 79 -38 0 -76 -28 -76 -55 0
-8 10 -52 21 -98 26 -100 21 -149 -17 -174 -22 -14 -25 -21 -19 -49 5 -27 2
-35 -16 -44 -31 -17 -307 -120 -321 -120 -6 0 51 41 128 91 268 175 244 148
219 246 -8 31 -15 77 -15 101 0 30 -4 41 -11 36 -8 -5 -10 -33 -5 -94 l7 -87
-34 1 c-30 1 -50 -15 -211 -171 -98 -95 -174 -173 -169 -173 5 0 65 20 134 43
68 24 168 59 222 76 86 29 97 35 97 56 0 34 16 39 66 20 54 -20 114 -87 114
-127 0 -23 -6 -29 -32 -36 -37 -9 -27 16 -134 -345 -35 -120 -64 -223 -64
-230 0 -13 40 32 238 267 78 94 140 176 138 182 -3 7 -8 29 -12 48 l-6 36 71
0 72 0 -6 -47 c-18 -153 -46 -476 -41 -480 2 -3 8 12 12 33 4 22 18 70 31 108
12 38 23 79 22 90 0 12 -9 -6 -19 -39 -26 -85 -24 -55 10 140 16 94 30 171 30
173 0 1 5 2 10 2 16 0 12 -71 -10 -156 -24 -97 -25 -111 -2 -60 l18 39 53
-274 c29 -151 56 -287 60 -303 5 -22 22 47 66 271 33 166 62 299 65 297 3 -3
26 -78 53 -167 26 -89 45 -147 42 -128 -3 18 -5 51 -5 73 0 21 -4 37 -8 34 -6
-4 -51 216 -76 368 -2 19 32 17 37 -1 4 -14 5 -13 6 5 1 21 5 22 72 22 l71 0
-6 -38 c-9 -52 -8 -74 1 -81 7 -5 34 -37 118 -140 11 -14 52 -61 90 -105 39
-45 90 -105 114 -134 24 -28 45 -51 47 -49 3 3 -86 316 -135 474 -30 95 -33
102 -62 108 -34 8 -44 24 -35 59 14 58 155 149 177 115 5 -8 7 -20 4 -26 -7
-19 -7 -19 320 -133 61 -21 118 -42 129 -46 11 -4 17 -3 15 3 -2 5 -84 87
-182 182 -171 164 -180 171 -211 166 l-32 -7 3 94 c4 115 -11 90 -21 -34 l-6
-88 44 6 45 7 134 -129 c74 -71 137 -135 140 -142 7 -13 -40 12 -168 92 -44
27 -106 65 -138 84 -93 54 -116 115 -82 212 19 55 19 114 -1 134 -21 22 -86
20 -115 -3 l-23 -18 27 -46 c15 -25 27 -60 27 -79 -1 -43 -32 -111 -76 -165
-44 -53 -64 -101 -64 -151 0 -67 16 -98 61 -112 21 -7 43 -18 47 -24 12 -16
134 -427 129 -432 -4 -4 -165 283 -249 445 -46 89 -41 125 39 260 75 128 91
194 58 231 -20 22 -67 27 -83 8 -6 -7 -14 -56 -18 -108 -5 -75 -12 -103 -31
-133 -27 -43 -51 -56 -64 -36 -7 11 -9 10 -9 -4 0 -60 -68 46 -77 121 -5 44
-3 50 16 55 28 7 42 -21 18 -35 -10 -5 -17 -16 -17 -24 0 -8 5 -12 10 -9 6 4
10 -8 10 -29 0 -51 26 -62 73 -30 50 33 50 72 2 133 -19 24 -32 48 -28 55 4 6
23 36 44 66 54 81 77 184 44 196 -24 10 -17 49 14 83 24 26 36 31 75 31 40 0
46 3 46 21 0 11 -14 34 -30 51 -26 25 -36 29 -62 24 -41 -8 -58 -23 -79 -71
l-18 -39 -10 27 c-6 16 -11 32 -11 36 0 13 -33 38 -58 44 -13 3 -37 1 -53 -5
-37 -13 -50 -3 -22 17 14 10 20 23 18 42 -2 15 -6 58 -10 95 -3 36 -12 74 -19
84 -11 15 -15 5 -28 -72 -15 -86 -16 -74 -14 374 0 254 -2 462 -5 462 -7 0
-15 -142 -26 -440 l-7 -195 -13 100 c-13 101 -35 212 -51 256 -8 21 -11 14
-25 -46 -32 -140 -46 -245 -52 -386 -3 -79 -12 -166 -18 -194 -10 -42 -13 33
-17 440 -3 341 -7 460 -13 390z m153 -415 c15 -110 27 -279 19 -274 -10 6 -32
-341 -25 -387 8 -52 16 -65 27 -48 6 10 9 8 9 -7 0 -17 -7 -23 -30 -26 l-30
-5 0 357 c0 309 6 487 16 478 1 -2 8 -41 14 -88z m27 -382 c-2 -18 -4 -4 -4
32 0 36 2 50 4 33 2 -18 2 -48 0 -65z m-7 -148 c-10 -45 -10 -63 -1 -74 6 -7
8 -21 5 -31 -5 -13 -9 -14 -15 -3 -12 19 -11 81 3 133 17 64 23 46 8 -25z
m-143 28 c-3 -8 -6 -5 -6 6 -1 11 2 17 5 13 3 -3 4 -12 1 -19z m-42 -119 c5
-6 5 -13 -3 -21 -9 -9 -15 -9 -24 0 -24 24 -41 14 -34 -20 8 -39 23 -58 47
-58 31 0 26 -63 -6 -80 -14 -7 -25 -17 -25 -22 0 -4 -8 -8 -18 -8 -21 0 -52
57 -52 96 0 13 -7 27 -15 30 -23 9 -18 52 10 80 21 21 30 23 67 18 24 -4 47
-10 53 -15z m389 -10 c31 -37 32 -43 6 -69 -11 -11 -20 -31 -20 -44 0 -34 -32
-86 -52 -86 -10 0 -18 5 -18 10 0 6 -11 16 -25 22 -20 9 -25 18 -25 49 0 31 3
36 19 32 23 -6 51 30 51 65 0 19 -4 23 -17 17 -30 -12 -48 -11 -48 5 0 15 32
27 77 29 18 1 34 -9 52 -30z m-167 -61 c-3 -8 -6 -5 -6 6 -1 11 2 17 5 13 3
-3 4 -12 1 -19z m-384 -94 c5 -16 25 -50 43 -75 19 -26 34 -57 34 -70 -1 -23
-2 -22 -31 11 -35 39 -79 125 -79 153 0 28 22 15 33 -19z m617 14 c0 -30 -47
-122 -76 -149 l-24 -22 0 22 c0 12 14 42 31 67 16 24 35 58 41 74 12 35 28 40
28 8z m-363 -4 c6 -17 -29 -27 -39 -12 -4 7 -8 17 -8 21 0 12 43 4 47 -9z
m113 -4 c0 -11 -6 -20 -14 -20 -18 0 -29 16 -21 30 11 18 35 11 35 -10z m-212
-58 c13 -9 35 -73 27 -81 -10 -10 -55 44 -55 66 0 24 7 28 28 15z m142 -34 c0
-38 -5 -34 -13 10 -4 21 -3 31 3 27 6 -3 10 -20 10 -37z m157 18 c-3 -25 -33
-66 -48 -66 -14 0 2 64 19 78 24 18 33 15 29 -12z m-82 -77 c-23 -69 -31 -55
-10 18 10 32 20 52 22 46 3 -7 -3 -36 -12 -64z m-147 4 c11 -48 7 -57 -8 -18
-17 45 -24 81 -13 70 6 -5 15 -29 21 -52z m279 -20 c-3 -10 -5 -4 -5 12 0 17
2 24 5 18 2 -7 2 -21 0 -30z m-380 -35 c-3 -7 -5 -2 -5 12 0 14 2 19 5 13 2
-7 2 -19 0 -25z m340 10 c-3 -8 -6 -5 -6 6 -1 11 2 17 5 13 3 -3 4 -12 1 -19z
m-267 -29 c0 -5 -7 -9 -15 -9 -9 0 -15 9 -15 21 0 18 2 19 15 9 8 -7 15 -16
15 -21z m220 6 c0 -8 -7 -15 -15 -15 -8 0 -15 7 -15 15 0 8 7 15 15 15 8 0 15
-7 15 -15z m-350 -62 c0 -19 -3 -24 -10 -17 -6 6 -8 18 -4 27 9 24 14 21 14
-10z m7 -115 c-8 -23 -20 -44 -27 -46 -6 -2 -3 13 9 37 12 23 22 63 23 93 l2
53 3 -47 c2 -26 -2 -66 -10 -90z m62 85 c5 -21 11 -54 14 -73 l6 -35 -14 30
c-14 34 -30 115 -21 115 3 0 9 -17 15 -37z m96 28 c3 -5 1 -12 -5 -16 -5 -3
-10 1 -10 9 0 18 6 21 15 7z m135 -7 c0 -8 -4 -12 -10 -9 -5 3 -10 10 -10 16
0 5 5 9 10 9 6 0 10 -7 10 -16z m88 -36 c-20 -83 -26 -103 -27 -89 -2 25 23
131 30 131 4 0 2 -19 -3 -42z m-264 -67 c8 -12 12 -11 23 5 12 16 15 17 23 4
14 -22 13 -26 -14 -43 -22 -15 -25 -15 -37 -1 -7 9 -14 43 -15 77 -2 56 -2 58
4 17 4 -25 11 -51 16 -59z m223 45 c-3 -30 -10 -64 -17 -75 -10 -20 -12 -20
-35 -5 -27 17 -32 38 -14 50 7 4 16 -1 22 -11 9 -17 11 -16 23 6 7 13 13 39
14 57 0 17 3 32 6 32 4 0 4 -24 1 -54z m-250 -138 c-3 -7 -5 -2 -5 12 0 14 2
19 5 13 2 -7 2 -19 0 -25z m143 -167 c0 -9 -20 -37 -20 -29 0 3 -2 13 -5 21
-4 8 0 14 10 14 8 0 15 -3 15 -6z m-91 -55 c9 -11 10 -20 1 -35 -16 -32 -30
-25 -30 14 0 37 10 44 29 21z m175 -25 c-5 -25 -9 -29 -20 -20 -19 16 -17 36
3 48 23 12 24 10 17 -28z m-75 -6 c1 17 8 13 42 -23 l41 -42 -44 -217 c-37
-185 -44 -210 -50 -177 -10 57 -8 483 2 459 l9 -20 0 20z"/>
<path d="M1254 2170 c0 -74 1 -105 3 -67 2 37 2 97 0 135 -2 37 -3 6 -3 -68z"/>
<path d="M1272 775 c0 -16 2 -22 5 -12 2 9 2 23 0 30 -3 6 -5 -1 -5 -18z"/>
<path d="M1263 655 c0 -33 2 -45 4 -27 2 18 2 45 0 60 -2 15 -4 0 -4 -33z"/>
<path d="M1253 490 c0 -36 2 -50 4 -32 2 17 2 47 0 65 -2 17 -4 3 -4 -33z"/>
<path d="M1143 2670 c0 -25 2 -35 4 -22 2 12 2 32 0 45 -2 12 -4 2 -4 -23z"/>
<path d="M1352 2645 c0 -16 2 -22 5 -12 2 9 2 23 0 30 -3 6 -5 -1 -5 -18z"/>
<path d="M1154 2405 c0 -55 1 -76 3 -47 2 29 2 74 0 100 -2 26 -3 2 -3 -53z"/>
<path d="M1364 2395 c0 -55 1 -76 3 -47 2 29 2 74 0 100 -2 26 -3 2 -3 -53z"/>
<path d="M1413 825 c0 -22 2 -30 4 -17 2 12 2 30 0 40 -3 9 -5 -1 -4 -23z"/>
<path d="M1423 720 c0 -25 2 -35 4 -22 2 12 2 32 0 45 -2 12 -4 2 -4 -23z"/>
<path d="M1432 630 c0 -19 2 -27 5 -17 2 9 2 25 0 35 -3 9 -5 1 -5 -18z"/>
</g>
</svg>
