<?xml version="1.0" standalone="no"?>
<!DOCTYPE svg PUBLIC "-//W3C//DTD SVG 20010904//EN"
 "http://www.w3.org/TR/2001/REC-SVG-20010904/DTD/svg10.dtd">
<svg version="1.0" xmlns="http://www.w3.org/2000/svg"
 width="244.000000pt" height="305.000000pt" viewBox="0 0 244.000000 305.000000"
 preserveAspectRatio="xMidYMid meet">
<metadata>
Created by potrace 1.16, written by Peter Selinger 2001-2019
</metadata>
<g transform="translate(0.000000,305.000000) scale(0.100000,-0.100000)"
fill="#000000" stroke="none">
<path d="M882 2873 c-45 -156 -80 -446 -89 -735 l-6 -217 29 -11 c16 -6 41
-22 55 -36 23 -22 27 -23 39 -9 8 9 31 25 52 36 l38 19 0 143 c0 248 -19 451
-66 691 -30 156 -37 171 -52 119z m28 -28 c0 -3 9 -62 20 -132 31 -189 48
-368 56 -569 l7 -180 -41 -32 c-22 -18 -45 -32 -50 -32 -8 0 -11 148 -12 475
0 316 3 475 10 475 5 0 10 -2 10 -5z"/>
<path d="M1563 2868 c-47 -136 -93 -543 -93 -829 l0 -117 29 -12 c16 -6 37
-20 47 -31 22 -24 36 -24 58 0 10 11 31 25 48 32 l31 13 -6 225 c-6 237 -24
416 -57 566 -23 106 -20 63 9 -125 27 -177 50 -632 33 -638 -7 -2 -26 -15 -41
-28 -16 -13 -34 -24 -40 -24 -15 0 -16 947 0 952 6 2 7 12 2 26 -8 22 -9 21
-20 -10z"/>
<path d="M1227 2580 c-47 -148 -77 -401 -77 -644 0 -114 -13 -103 -35 29 -30
174 -43 183 -64 42 -16 -112 -15 -120 19 -139 41 -23 55 -62 40 -110 -11 -37
-40 -52 -55 -28 -12 19 -25 10 -25 -18 0 -57 65 -80 90 -31 13 24 32 25 29 2
-4 -44 2 -64 24 -74 12 -5 31 -26 43 -46 l21 -36 21 37 c12 20 33 41 48 46 23
9 25 14 20 44 -8 44 5 52 32 21 33 -38 63 -31 82 19 13 34 -2 58 -22 38 -24
-24 -47 -13 -59 27 -14 47 1 96 31 106 38 12 42 29 30 127 -10 86 -21 120 -35
106 -5 -5 -45 -219 -45 -241 0 -5 -4 -6 -8 -3 -5 3 -12 92 -16 198 -3 106 -13
238 -21 293 -25 164 -56 273 -68 235z m62 -370 c5 -74 13 -233 16 -352 6 -206
6 -218 -12 -225 -10 -3 -26 -13 -35 -21 -17 -14 -18 8 -17 449 l1 464 19 -90
c10 -49 23 -151 28 -225z"/>
<path d="M752 1863 c-28 -5 -55 -44 -50 -75 3 -20 8 -23 44 -20 32 3 47 -2 72
-23 43 -36 49 -62 22 -87 -19 -17 -21 -27 -16 -62 8 -46 63 -151 95 -180 28
-25 27 -32 -14 -77 -48 -53 -54 -84 -24 -115 27 -27 77 -39 98 -25 13 8 13 15
1 50 -10 31 -10 47 -2 65 l11 24 70 -21 c68 -20 72 -20 89 -3 16 16 16 18 -2
32 -11 8 -27 14 -36 14 -24 0 -131 73 -155 105 -35 47 -65 109 -65 132 0 35
13 27 33 -18 25 -57 109 -143 170 -174 28 -13 53 -23 55 -20 10 10 -10 54 -28
60 -25 8 -104 85 -130 127 -11 18 -20 46 -20 61 0 15 -7 30 -15 33 -23 9 -18
52 11 81 22 22 32 25 70 20 41 -4 44 -3 44 20 0 36 -15 59 -49 73 -43 17 -102
-12 -116 -57 -11 -39 -22 -42 -34 -10 -19 48 -76 79 -129 70z"/>
<path d="M1435 1858 c-30 -16 -45 -39 -45 -70 0 -27 1 -27 44 -22 41 6 48 4
75 -24 36 -36 38 -46 11 -69 -11 -10 -20 -29 -20 -44 0 -44 -73 -135 -154
-192 -14 -10 -26 -27 -26 -37 0 -25 1 -25 59 4 62 32 145 117 168 173 10 23
21 43 26 43 17 0 5 -56 -23 -106 -38 -66 -108 -125 -180 -151 -56 -21 -68 -38
-39 -56 13 -8 35 -5 85 11 53 17 70 19 76 9 11 -17 10 -51 -2 -83 -22 -57 34
-70 94 -23 36 28 30 66 -19 121 -21 23 -33 44 -28 51 3 7 23 35 44 62 36 49
69 127 69 165 0 11 -9 28 -20 38 -43 40 20 112 96 112 40 0 44 2 44 24 0 72
-98 98 -149 40 -14 -17 -31 -39 -37 -50 -10 -17 -13 -16 -27 19 -12 26 -27 42
-51 52 -42 18 -45 18 -71 3z"/>
<path d="M1085 1580 c-12 -4 -26 -15 -34 -23 -11 -14 -7 -17 26 -23 21 -4 44
-12 52 -18 23 -18 39 -67 46 -142 l7 -71 -32 -11 c-26 -10 -31 -16 -28 -39 2
-22 9 -29 29 -31 28 -3 43 -30 29 -51 -3 -7 -19 -15 -35 -19 -58 -16 -58 -57
0 -68 40 -7 42 -9 49 -53 7 -48 26 -91 38 -91 13 0 48 81 48 111 0 27 20 42
43 33 7 -2 20 1 29 8 24 19 6 55 -31 63 -36 8 -45 18 -36 45 4 13 15 20 30 20
18 0 26 7 31 26 7 28 -1 40 -31 46 -18 3 -20 11 -19 70 1 88 27 156 62 164 75
16 78 22 29 49 -30 16 -37 16 -62 4 -16 -8 -40 -30 -52 -49 -49 -74 -49 -74
-61 -32 -7 21 -20 46 -31 56 -25 22 -72 35 -96 26z"/>
<path d="M567 1522 c-22 -24 -21 -54 3 -122 11 -30 19 -77 20 -103 0 -41 -5
-53 -30 -79 -25 -25 -30 -35 -25 -62 6 -30 4 -33 -27 -43 -18 -6 -97 -34 -176
-62 -79 -28 -148 -51 -155 -51 -7 0 65 47 158 105 229 141 225 138 225 157 0
9 -7 43 -15 75 -8 31 -15 74 -15 95 0 20 -5 40 -12 44 -8 5 -10 -18 -5 -90 l5
-97 -32 7 c-31 5 -41 -2 -173 -119 -77 -69 -164 -149 -194 -177 -51 -49 -53
-51 -24 -45 80 17 465 149 465 159 0 7 6 20 13 30 12 17 15 17 57 0 65 -25 96
-51 115 -95 21 -45 12 -63 -33 -72 -31 -6 -24 12 -146 -374 -35 -112 -60 -203
-56 -203 4 0 22 17 41 38 75 82 334 368 351 388 17 19 17 24 4 61 -8 23 -12
44 -9 47 4 3 45 6 93 6 74 0 92 -3 120 -22 56 -39 59 -53 22 -91 l-33 -34 65
-318 c36 -175 68 -320 70 -322 2 -2 6 6 9 19 5 18 95 453 123 591 5 23 0 36
-27 63 -37 38 -35 51 15 88 22 17 46 22 127 24 109 4 114 1 84 -57 -18 -35
-19 -33 134 -201 193 -212 261 -281 261 -268 0 8 -11 47 -24 88 -26 81 -123
389 -135 430 -6 21 -45 49 -85 63 -16 5 3 55 34 91 32 36 123 81 146 72 8 -3
14 -16 14 -29 0 -20 9 -27 53 -41 249 -82 423 -136 430 -133 5 1 -78 81 -184
176 -183 163 -195 172 -225 166 l-33 -6 6 93 c4 62 2 90 -5 83 -5 -5 -13 -54
-16 -107 l-7 -98 44 6 44 6 146 -128 c80 -71 146 -132 146 -136 1 -12 -27 2
-194 97 -209 120 -201 113 -219 152 -21 43 -20 75 4 143 25 70 25 95 0 120
-36 36 -140 22 -140 -18 0 -10 11 -34 25 -54 43 -63 26 -140 -50 -223 -51 -56
-75 -107 -75 -158 0 -76 15 -102 67 -118 l46 -14 29 -85 c72 -213 116 -362
103 -349 -7 8 -45 68 -83 134 -38 66 -93 161 -122 210 -118 200 -118 190 -6
369 75 119 88 168 56 209 -21 27 -61 36 -86 19 -12 -8 -26 -95 -25 -155 1 -44
-16 -82 -51 -113 -33 -31 -61 -37 -94 -19 -16 8 -48 15 -71 15 -40 0 -41 -1
-40 -34 1 -41 -17 -66 -48 -66 -25 0 -35 -17 -35 -58 0 -15 -11 -47 -25 -71
l-25 -43 49 -57 50 -57 -30 -140 c-16 -76 -40 -186 -52 -244 l-22 -105 -5 315
c-3 173 -6 311 -8 306 -4 -16 -52 44 -57 72 -13 62 -20 75 -45 79 -31 5 -40
19 -40 66 0 37 0 37 -40 37 -23 0 -54 -7 -71 -16 -33 -16 -57 -13 -85 14 -49
45 -59 64 -61 120 -3 86 -16 144 -35 156 -25 15 -70 -4 -87 -38 -19 -40 -5
-80 65 -190 75 -119 86 -146 90 -241 3 -44 5 -92 7 -107 2 -22 -26 -59 -147
-198 -82 -93 -151 -169 -153 -167 -2 2 22 49 53 103 214 379 207 363 201 424
-6 65 -34 126 -88 191 -44 52 -78 122 -79 158 0 13 14 47 30 77 l31 52 -23 16
c-32 23 -110 21 -131 -2z"/>
</g>
</svg>
