<?xml version="1.0" standalone="no"?>
<!DOCTYPE svg PUBLIC "-//W3C//DTD SVG 20010904//EN"
 "http://www.w3.org/TR/2001/REC-SVG-20010904/DTD/svg10.dtd">
<svg version="1.0" xmlns="http://www.w3.org/2000/svg"
 width="244.000000pt" height="305.000000pt" viewBox="0 0 244.000000 305.000000"
 preserveAspectRatio="xMidYMid meet">
<metadata>
Created by potrace 1.16, written by Peter Selinger 2001-2019
</metadata>
<g transform="translate(0.000000,305.000000) scale(0.100000,-0.100000)"
fill="#000000" stroke="none">
<path d="M887 2895 c-7 -21 -33 -144 -42 -197 -3 -18 -8 -40 -10 -48 -15 -52
-37 -309 -42 -502 l-6 -226 42 -21 c23 -12 44 -28 48 -36 7 -20 14 -19 43 8
14 12 38 28 54 35 l29 13 -7 217 c-3 119 -11 262 -16 317 -10 105 -41 287 -48
281 -2 -2 3 -53 12 -113 31 -220 56 -646 39 -669 -14 -18 -80 -54 -86 -47 -4
3 -7 220 -7 481 0 262 3 472 6 469 4 -4 13 -30 20 -59 12 -44 13 -47 9 -13 -2
22 -11 60 -18 85 -11 36 -15 41 -20 25z"/>
<path d="M1562 2857 c-46 -158 -79 -420 -88 -708 l-7 -225 31 -13 c17 -7 38
-21 48 -32 22 -24 36 -24 58 0 10 11 31 25 48 32 l31 13 -7 235 c-6 223 -19
367 -47 526 -19 108 -22 59 -4 -62 22 -148 33 -283 41 -491 l6 -177 -42 -28
c-23 -15 -45 -25 -50 -22 -4 3 -8 211 -8 463 0 430 6 553 23 438 4 -26 10 -45
13 -42 6 7 -18 125 -27 131 -4 2 -13 -15 -19 -38z"/>
<path d="M1251 2595 c-2 -26 -4 -27 -10 -10 -7 17 -10 14 -19 -20 -28 -102
-57 -250 -60 -305 0 -8 -4 -102 -8 -207 -7 -191 -17 -238 -29 -145 -10 72 -34
184 -40 191 -11 11 -23 -22 -34 -96 -16 -104 -15 -108 24 -134 38 -27 49 -54
39 -105 -8 -41 -23 -50 -54 -34 -40 21 -48 -21 -12 -62 21 -24 38 -22 68 7 32
32 38 31 30 -1 -9 -35 2 -64 23 -64 21 0 46 -42 38 -64 -5 -13 -10 -12 -31 9
-35 35 -87 37 -120 5 -18 -17 -17 -18 23 -25 67 -11 88 -53 94 -185 2 -40 -1
-46 -25 -58 -21 -10 -28 -20 -28 -42 0 -24 5 -29 28 -32 21 -2 28 -9 30 -31 3
-23 -1 -28 -27 -33 -40 -8 -58 -30 -44 -52 10 -16 15 -18 56 -21 13 -1 17 -10
17 -43 0 -27 3 -38 9 -30 5 9 10 0 15 -29 4 -23 5 -44 2 -46 -7 -7 -27 36 -40
86 -9 39 -15 46 -38 49 -30 4 -43 28 -40 75 2 26 0 27 -43 27 -25 0 -57 -7
-70 -16 -56 -37 -139 40 -141 130 -2 68 -14 138 -27 154 -10 13 -55 16 -73 4
-22 -14 -36 -54 -30 -87 4 -18 35 -79 69 -136 83 -137 89 -155 92 -252 1 -45
5 -89 9 -99 6 -12 -32 -62 -144 -192 -83 -97 -153 -176 -155 -176 -7 0 16 49
49 105 15 28 69 122 118 210 88 156 90 161 85 212 -7 69 -35 128 -92 199 -84
102 -92 147 -45 230 l31 52 -23 16 c-29 20 -97 21 -126 0 -28 -19 -28 -47 -1
-136 28 -92 22 -143 -21 -179 -27 -23 -30 -30 -21 -47 17 -31 14 -38 -21 -49
-18 -6 -91 -32 -163 -58 -159 -57 -187 -66 -181 -56 3 4 71 48 151 97 81 49
163 99 183 112 21 12 43 25 50 28 16 8 15 40 -3 89 -8 22 -14 60 -15 85 0 25
-5 52 -11 60 -7 11 -9 -12 -6 -83 l4 -97 -32 6 c-35 6 -63 -15 -275 -210 -30
-28 -77 -71 -103 -94 -27 -24 -47 -45 -45 -47 2 -2 97 28 213 66 116 38 227
74 248 79 30 9 37 16 37 35 0 33 13 38 59 24 52 -15 110 -64 128 -107 16 -40
7 -57 -36 -65 -26 -6 -31 -15 -79 -164 -96 -301 -132 -417 -128 -420 2 -2 39
36 82 84 44 48 104 115 134 148 31 33 87 95 125 138 l69 78 -11 42 c-6 23 -9
45 -7 49 3 5 45 8 93 8 75 0 93 -3 121 -22 56 -39 60 -54 23 -89 -18 -16 -33
-36 -33 -44 0 -8 13 -74 29 -147 15 -73 46 -216 67 -318 l39 -185 16 75 c47
211 90 414 104 494 l16 89 -33 34 c-36 37 -34 50 16 87 22 17 46 22 128 24
l101 4 -7 -27 c-20 -81 -25 -71 110 -220 150 -165 273 -295 278 -295 3 0 -4
26 -14 58 -10 31 -44 138 -75 237 -31 99 -63 201 -71 227 -14 43 -20 49 -56
58 -37 10 -39 13 -33 38 11 46 56 93 112 119 61 28 83 25 83 -11 0 -22 8 -28
63 -45 34 -10 142 -44 240 -76 98 -31 180 -55 183 -53 4 5 -15 23 -229 217
-139 126 -149 133 -180 127 l-33 -6 4 97 c5 133 -13 111 -22 -25 l-7 -103 45
6 46 7 97 -87 c155 -139 195 -177 191 -181 -2 -1 -69 33 -148 78 -80 44 -162
90 -183 101 -55 31 -75 52 -88 98 -11 35 -10 49 9 108 27 83 27 106 2 131 -34
34 -140 19 -140 -20 0 -9 11 -31 25 -50 47 -63 31 -126 -61 -241 -63 -80 -76
-127 -55 -205 10 -37 15 -42 58 -55 55 -17 43 8 133 -272 28 -87 54 -165 57
-173 3 -8 1 -14 -3 -14 -5 0 -28 35 -52 78 -23 42 -68 120 -99 172 -141 239
-148 253 -148 300 0 38 12 63 72 162 39 65 74 133 77 153 7 34 -5 72 -28 87
-21 14 -65 8 -74 -9 -13 -25 -25 -101 -23 -149 1 -31 -6 -51 -29 -83 -42 -57
-71 -69 -116 -48 -19 9 -53 17 -76 17 -36 0 -40 -2 -35 -21 9 -35 -12 -79 -39
-79 -26 0 -44 -26 -44 -62 0 -22 -12 -50 -39 -93 -12 -19 -8 -26 38 -74 38
-39 50 -58 46 -74 -2 -12 -16 -78 -31 -147 -14 -69 -36 -170 -49 -225 l-23
-100 -1 307 c-1 193 -5 309 -11 313 -14 9 -12 25 3 25 16 0 28 24 48 93 7 26
16 47 19 48 3 0 16 2 28 3 13 2 28 9 32 16 12 19 -6 50 -28 50 -24 0 -42 19
-42 46 0 16 8 23 31 28 26 5 30 10 27 33 -2 19 -10 29 -23 31 -34 6 -38 18
-30 96 8 92 34 137 83 147 18 4 36 9 39 12 12 12 -27 37 -58 37 -39 0 -99 -38
-99 -62 0 -10 -4 -18 -10 -18 -5 0 -10 -8 -11 -17 0 -14 -2 -15 -6 -3 -3 8
-10 18 -16 21 -10 7 6 46 17 42 16 -7 25 -1 28 19 2 13 18 32 36 43 30 18 32
23 27 58 -3 20 -3 37 -1 37 3 0 16 -11 30 -25 39 -39 70 -31 85 23 11 37 1 48
-27 31 -31 -19 -49 -5 -55 43 -5 49 11 83 49 100 19 9 24 18 23 47 0 44 -24
179 -32 188 -10 10 -22 -35 -42 -149 -10 -60 -22 -108 -26 -108 -5 0 -9 57 -9
128 0 138 -21 362 -45 482 -8 41 -16 95 -18 120 -2 31 -4 36 -6 15z m8 -435
c3 182 6 249 12 215 16 -97 28 -273 35 -501 7 -228 6 -232 -14 -243 -29 -15
-32 -14 -33 12 -1 15 -4 11 -10 -13 -5 -23 -6 -13 -2 30 3 36 5 92 4 125 -1
33 -3 211 -4 395 l-3 335 6 -310 5 -310 4 265z"/>
<path d="M750 1861 c-27 -7 -62 -64 -53 -86 3 -9 15 -12 37 -8 42 7 91 -18
110 -56 14 -26 14 -31 -4 -51 -40 -46 -14 -121 85 -256 14 -19 13 -23 -14 -53
-16 -18 -35 -46 -42 -62 -10 -26 -9 -34 8 -57 44 -59 133 -48 105 13 -15 33
-15 68 -1 82 8 8 26 6 67 -8 67 -23 98 -24 106 -3 7 19 0 34 -17 34 -7 0 -36
11 -64 25 -89 41 -182 155 -183 223 0 33 14 27 29 -14 18 -49 119 -155 176
-183 25 -13 48 -21 51 -18 11 11 -9 55 -30 65 -63 28 -146 132 -146 182 0 14
-9 33 -20 43 -27 23 -25 33 10 69 28 27 35 30 75 23 l45 -6 0 35 c0 39 -23 61
-75 70 -38 7 -73 -16 -91 -60 -18 -43 -27 -43 -42 -1 -17 46 -71 72 -122 58z"/>
<path d="M1434 1855 c-33 -13 -44 -32 -44 -70 0 -21 3 -22 45 -18 39 5 47 2
75 -25 35 -35 38 -57 10 -72 -13 -7 -20 -21 -20 -39 0 -40 -55 -118 -115 -163
-81 -61 -90 -107 -13 -69 59 28 153 124 175 177 10 24 22 43 26 41 5 -1 8 -6
8 -10 -1 -4 -1 -15 -1 -25 0 -29 -73 -136 -114 -167 -19 -15 -61 -38 -93 -50
-63 -26 -71 -36 -48 -55 13 -11 27 -10 80 5 98 26 106 18 80 -87 -6 -23 -3
-28 17 -33 47 -12 108 27 108 70 0 13 -18 44 -40 71 -36 40 -39 49 -28 64 60
82 81 115 93 151 21 59 19 96 -5 109 -30 16 -24 38 18 77 31 29 43 34 76 31
43 -3 52 7 42 47 -8 32 -59 58 -96 50 -31 -7 -80 -57 -80 -81 0 -25 -19 -15
-33 19 -24 56 -70 75 -123 52z"/>
<path d="M1257 793 c-3 -5 -1 -46 3 -93 l7 -85 2 93 c1 86 -1 103 -12 85z"/>
<path d="M1262 560 c0 -14 2 -19 5 -12 2 6 2 18 0 25 -3 6 -5 1 -5 -13z"/>
</g>
</svg>
