<?xml version="1.0" standalone="no"?>
<!DOCTYPE svg PUBLIC "-//W3C//DTD SVG 20010904//EN"
 "http://www.w3.org/TR/2001/REC-SVG-20010904/DTD/svg10.dtd">
<svg version="1.0" xmlns="http://www.w3.org/2000/svg"
 width="244.000000pt" height="305.000000pt" viewBox="0 0 244.000000 305.000000"
 preserveAspectRatio="xMidYMid meet">
<metadata>
Created by potrace 1.16, written by Peter Selinger 2001-2019
</metadata>
<g transform="translate(0.000000,305.000000) scale(0.100000,-0.100000)"
fill="#000000" stroke="none">
<path d="M892 2803 c-43 -214 -72 -524 -72 -794 l0 -87 30 -12 c17 -7 30 -16
30 -20 0 -3 11 -12 24 -19 20 -11 27 -10 47 7 13 11 35 29 48 40 l25 19 -13
270 c-6 148 -18 316 -26 374 -20 138 -57 329 -65 329 -3 0 -16 -48 -28 -107z
m28 -423 c0 -264 -3 -480 -7 -480 -5 0 -25 16 -46 35 l-39 35 6 98 c3 53 8
158 11 232 6 143 25 320 50 460 8 47 15 88 15 93 0 4 2 7 5 7 3 0 5 -216 5
-480z"/>
<path d="M1540 2890 c0 -8 -3 -26 -5 -40 -5 -22 -4 -22 4 -5 6 13 10 -150 10
-462 1 -266 -1 -483 -4 -483 -3 0 -24 12 -46 27 l-41 27 7 201 c7 206 25 404
51 558 8 49 14 93 12 99 -6 18 -37 -168 -53 -319 -8 -76 -18 -235 -22 -354
l-6 -217 29 -15 c16 -8 38 -24 48 -36 l19 -21 37 30 c21 17 44 30 50 30 18 0
7 461 -15 630 -20 161 -54 342 -66 355 -6 5 -9 4 -9 -5z"/>
<path d="M1081 2874 c0 -11 3 -14 6 -6 3 7 2 16 -1 19 -3 4 -6 -2 -5 -13z"/>
<path d="M1385 2878 c-16 -53 -44 -570 -45 -843 0 -77 -5 -147 -10 -155 -7
-10 -10 6 -10 56 0 174 -28 430 -62 579 -24 104 -27 101 -58 -51 -24 -115 -38
-251 -46 -449 -4 -89 -11 -150 -15 -143 -5 7 -10 108 -11 223 l-2 210 -6 -145
c-4 -116 -7 -136 -13 -102 -5 23 -13 42 -18 42 -5 0 -10 158 -10 378 -1 228
-5 351 -9 312 -16 -135 -30 -413 -32 -640 -2 -233 -2 -236 22 -267 13 -18 27
-30 32 -27 4 3 8 -4 8 -15 0 -12 -4 -21 -10 -21 -5 0 -10 6 -10 13 0 24 -46
41 -82 31 -25 -7 -38 -19 -53 -51 -20 -42 -35 -55 -35 -30 0 24 -55 77 -85 83
-42 8 -85 -26 -85 -67 0 -27 2 -29 41 -29 71 0 125 -76 83 -117 -21 -21 -12
-79 21 -149 19 -39 25 -67 25 -120 0 -62 -3 -72 -27 -94 -15 -14 -24 -20 -20
-14 4 6 2 38 -4 70 -6 33 -13 69 -15 82 -6 30 -56 30 -85 1 -30 -30 -21 -92
25 -170 51 -86 42 -107 -13 -34 -75 99 -86 153 -46 224 14 23 25 49 25 57 0
20 -33 34 -79 34 -73 0 -86 -39 -52 -149 21 -68 16 -116 -16 -159 -18 -24
-352 -236 -360 -228 -2 2 56 63 129 135 l133 132 43 -6 c49 -7 47 -11 36 128
-10 110 -28 99 -22 -13 l5 -89 -32 2 c-29 2 -50 -15 -214 -172 -100 -96 -180
-176 -178 -178 5 -4 209 64 369 124 85 31 98 39 98 59 0 13 4 26 10 29 14 9
104 -33 130 -60 l21 -22 -30 -64 c-16 -35 -46 -122 -66 -194 -71 -252 -84
-301 -104 -363 -11 -35 -16 -62 -12 -60 13 5 334 385 367 433 10 16 11 29 3
58 -5 21 -7 42 -4 47 8 13 55 13 55 -1 0 -5 -16 -121 -35 -256 -20 -135 -34
-247 -32 -250 2 -2 44 92 92 209 76 187 86 218 81 256 -7 53 7 55 53 8 l33
-34 -33 -36 -32 -37 57 -302 c32 -166 61 -313 65 -327 7 -24 24 50 102 474
l30 159 -32 33 c-26 27 -29 35 -20 52 13 24 50 52 68 52 9 0 12 -16 11 -57 -2
-52 6 -77 76 -243 42 -102 82 -198 88 -213 6 -15 12 -26 14 -24 4 3 -44 360
-70 525 -3 18 1 22 25 22 33 0 37 -19 15 -62 -15 -27 -13 -30 91 -155 177
-213 265 -314 270 -309 5 5 -2 31 -87 316 -64 218 -66 225 -51 216 17 -11 14
1 -19 66 -16 32 -30 65 -30 73 0 20 68 63 105 67 26 3 30 -1 33 -24 2 -18 11
-29 25 -33 12 -4 106 -36 209 -72 103 -35 192 -63 198 -61 6 2 -66 79 -159
172 -162 161 -171 168 -201 161 l-31 -7 7 91 c5 66 4 91 -5 91 -6 0 -11 -17
-11 -42 0 -24 -7 -71 -15 -106 -8 -35 -13 -68 -9 -73 3 -5 84 -62 180 -126 96
-64 172 -118 170 -121 -5 -4 -192 65 -288 107 -48 20 -58 37 -36 59 10 10 5
18 -19 41 -45 41 -51 87 -24 178 11 40 21 82 21 93 0 51 -79 79 -128 44 -28
-19 -28 -27 3 -72 43 -63 33 -120 -38 -219 -53 -74 -66 -50 -16 30 17 28 33
69 36 97 5 40 2 51 -16 69 -28 28 -75 25 -79 -4 -8 -63 -27 -125 -38 -129 -17
-6 -17 -3 -14 103 1 56 9 99 21 129 23 53 24 109 3 133 -14 16 -14 20 0 48 22
41 58 63 98 59 27 -2 34 1 36 18 4 27 -31 70 -62 76 -34 7 -85 -26 -99 -62
-12 -32 -27 -40 -27 -14 0 25 -65 84 -92 84 -14 0 -33 -9 -43 -20 -22 -24 -35
-26 -35 -5 0 8 6 15 14 15 8 0 20 14 28 30 7 17 16 30 20 30 5 0 7 78 6 173
l-2 172 -3 -155 c-2 -85 -8 -159 -12 -163 -20 -20 -26 105 -26 515 0 236 -1
428 -3 428 -1 0 -4 -6 -7 -12z m-183 -748 c-3 -185 -8 -257 -14 -240 -15 37 2
526 17 508 1 -2 0 -122 -3 -268z m-25 -372 c-2 -18 -4 -6 -4 27 0 33 2 48 4
33 2 -15 2 -42 0 -60z m-131 -43 c1 -22 5 -77 7 -122 3 -70 1 -81 -10 -71 -22
18 -53 84 -53 111 0 14 -7 30 -15 37 -34 28 -2 94 43 88 21 -3 25 -9 28 -43z
m442 25 c26 -24 28 -52 7 -70 -8 -7 -15 -23 -15 -37 0 -28 -24 -77 -51 -107
-19 -20 -19 -20 -14 25 3 24 7 80 9 124 3 44 5 81 5 83 3 10 41 -2 59 -18z
m-338 -91 c0 -22 6 -32 23 -38 13 -5 32 -26 41 -46 l18 -37 24 40 c13 22 33
42 44 45 13 3 20 14 20 29 0 26 15 54 22 42 13 -24 17 -67 8 -84 -8 -14 -21
-20 -45 -20 -38 0 -49 -13 -61 -75 l-8 -40 -16 55 c-15 53 -17 55 -55 60 -45
6 -63 38 -45 84 12 34 30 25 30 -15z m41 -12 c-18 -18 -25 1 -11 30 l14 28 4
-24 c2 -13 -1 -28 -7 -34z m-247 -53 c10 -22 13 -41 8 -46 -12 -12 -28 10 -37
50 -9 43 7 41 29 -4z m143 4 c-3 -7 -5 -2 -5 12 0 14 2 19 5 13 2 -7 2 -19 0
-25z m300 0 c-3 -7 -5 -2 -5 12 0 14 2 19 5 13 2 -7 2 -19 0 -25z m159 -24
c-4 -13 -13 -24 -21 -24 -19 0 -19 -1 2 46 12 29 18 34 21 21 2 -10 1 -29 -2
-43z m-426 -71 c8 -21 17 -42 19 -48 2 -5 -6 -1 -17 10 -21 21 -38 75 -24 75
4 0 14 -17 22 -37z m255 4 c-4 -14 -16 -34 -26 -43 -20 -18 -20 -17 -10 10 25
65 49 88 36 33z m105 -38 c0 -21 -10 -25 -27 -8 -9 9 -8 15 0 24 15 16 27 9
27 -16z m-460 -5 c0 -8 -7 -14 -15 -14 -17 0 -18 2 -9 24 7 18 24 12 24 -10z
m540 -54 c0 -56 -14 -83 -22 -42 -4 17 12 102 19 102 2 0 3 -27 3 -60z m-460
-17 c0 -16 -10 -16 -32 1 -10 7 -18 24 -18 36 l0 23 25 -23 c14 -13 25 -29 25
-37z m323 32 c-5 -23 -38 -44 -50 -31 -7 6 36 56 47 56 4 0 5 -11 3 -25z
m-483 -42 c0 -52 -16 -38 -18 15 -2 34 0 43 8 32 5 -8 10 -30 10 -47z m240 -2
c-1 -13 -4 -12 -15 3 -8 11 -15 27 -15 35 1 13 4 12 15 -3 8 -11 15 -27 15
-35z m126 2 c-11 -11 -17 4 -9 23 7 18 8 18 11 1 2 -10 1 -21 -2 -24z m-286
-124 c12 -39 19 -73 17 -75 -6 -6 -47 109 -47 130 0 31 8 16 30 -55z m73 -46
c17 -17 18 -17 23 4 5 19 11 22 33 17 34 -9 44 -18 39 -40 -2 -13 -11 -18 -26
-16 -13 2 -29 -2 -37 -8 -33 -27 -81 65 -68 129 7 36 7 36 13 -16 3 -31 13
-60 23 -70z m324 49 c-5 -43 -12 -61 -32 -80 -20 -18 -30 -21 -38 -13 -6 6
-24 11 -39 11 -45 0 -34 43 14 52 20 4 28 0 31 -14 13 -49 50 3 49 69 -1 29 2
41 10 37 7 -4 8 -27 5 -62z m-247 49 c0 -5 -9 -11 -19 -14 -11 -2 -21 -15 -24
-28 -3 -19 -5 -18 -6 8 0 17 5 34 12 36 20 9 37 8 37 -2z m170 -1 c12 -7 16
-17 12 -32 l-5 -22 -8 22 c-5 12 -15 22 -24 22 -8 0 -15 5 -15 10 0 13 16 13
40 0z m121 -66 c-11 -33 -20 -52 -20 -43 -1 9 4 31 10 50 6 19 13 40 15 48 3
8 7 11 10 9 3 -3 -4 -32 -15 -64z m131 -9 c-6 -14 -16 -25 -22 -25 -13 0 -13
13 2 45 8 17 15 22 21 16 7 -7 7 -19 -1 -36z m-672 -36 c0 -11 -4 -17 -10 -14
-5 3 -10 13 -10 21 0 8 5 14 10 14 6 0 10 -9 10 -21z m717 -51 c-10 -16 -12
-16 -15 -3 -2 9 -1 24 3 33 5 13 8 14 15 3 5 -9 3 -22 -3 -33z m-771 -54 c-3
-8 -10 -14 -16 -14 -11 0 -14 43 -3 54 10 10 26 -23 19 -40z m849 -45 c9 -17
14 -33 12 -35 -8 -8 -47 48 -41 57 8 14 12 11 29 -22z m-832 -16 c-3 -21 -29
-83 -58 -138 -122 -234 -210 -395 -216 -395 -3 0 23 99 59 219 l65 220 48 19
c39 17 48 26 54 54 8 38 22 58 41 58 9 0 11 -10 7 -37z m723 -9 c0 -30 30 -97
118 -268 64 -126 115 -231 112 -233 -2 -2 -65 73 -140 167 l-137 171 10 37 c6
20 9 60 7 87 -1 28 0 58 2 68 8 32 27 12 28 -29z m-825 3 c-6 -8 -9 -17 -6
-21 3 -3 0 -2 -6 3 -12 10 -4 31 13 31 7 0 7 -4 -1 -13z m469 -87 c0 -5 -4
-12 -10 -15 -5 -3 -10 -4 -10 -1 0 2 -3 12 -6 20 -5 12 -2 15 10 10 9 -3 16
-10 16 -14z m-182 -41 c2 -32 -7 -71 -33 -139 -20 -52 -48 -125 -62 -163 -14
-37 -28 -66 -29 -64 -8 8 102 417 111 414 6 -2 11 -23 13 -48z m412 29 c5 -13
21 -106 35 -208 14 -102 29 -196 32 -210 3 -14 3 -23 0 -20 -2 3 -30 100 -61
215 -31 116 -59 218 -62 228 -9 28 44 23 56 -5z m-289 -86 c-17 -32 -14 -121
15 -367 10 -92 -5 -40 -40 139 -29 143 -34 182 -24 195 43 57 72 77 49 33z"/>
<path d="M1092 2780 c0 -14 2 -19 5 -12 2 6 2 18 0 25 -3 6 -5 1 -5 -13z"/>
<path d="M1402 2760 c0 -14 2 -19 5 -12 2 6 2 18 0 25 -3 6 -5 1 -5 -13z"/>
<path d="M1103 2650 c0 -25 2 -35 4 -22 2 12 2 32 0 45 -2 12 -4 2 -4 -23z"/>
<path d="M1413 2635 c0 -22 2 -30 4 -17 2 12 2 30 0 40 -3 9 -5 -1 -4 -23z"/>
<path d="M1113 2500 c0 -36 2 -50 4 -32 2 17 2 47 0 65 -2 17 -4 3 -4 -33z"/>
<path d="M1423 2480 c0 -36 2 -50 4 -32 2 17 2 47 0 65 -2 17 -4 3 -4 -33z"/>
</g>
</svg>
