<?xml version="1.0" standalone="no"?>
<!DOCTYPE svg PUBLIC "-//W3C//DTD SVG 20010904//EN"
 "http://www.w3.org/TR/2001/REC-SVG-20010904/DTD/svg10.dtd">
<svg version="1.0" xmlns="http://www.w3.org/2000/svg"
 width="244.000000pt" height="305.000000pt" viewBox="0 0 244.000000 305.000000"
 preserveAspectRatio="xMidYMid meet">
<metadata>
Created by potrace 1.16, written by Peter Selinger 2001-2019
</metadata>
<g transform="translate(0.000000,305.000000) scale(0.100000,-0.100000)"
fill="#000000" stroke="none">
<path d="M1511 2900 c-1 -8 -1 -238 -1 -510 0 -480 -1 -494 -19 -473 -16 19
-18 52 -25 331 -5 257 -4 328 10 416 8 59 13 112 11 119 -2 7 -10 -31 -17 -83
-8 -52 -15 -89 -17 -83 -3 7 -10 63 -17 125 -13 106 -13 82 -15 -364 -1 -311
-4 -478 -11 -478 -5 0 -10 1 -10 3 0 1 -5 29 -11 62 -6 33 -14 132 -18 220
l-8 160 -2 -115 c-1 -63 -8 -137 -16 -165 l-14 -50 0 43 c-1 52 -19 56 -23 5
-2 -21 -7 25 -11 102 -11 183 -50 445 -64 431 -19 -19 -62 -335 -64 -476 -1
-47 -4 -74 -6 -60 -8 46 -23 46 -24 0 0 -41 -1 -43 -11 -20 -5 14 -14 102 -19
195 -17 335 -46 665 -58 665 -3 0 -5 -172 -5 -382 1 -318 0 -356 -7 -223 -5
88 -12 198 -17 245 -12 117 -53 360 -61 360 -3 0 -5 -228 -3 -506 l3 -507 -35
29 -35 29 0 140 c-1 173 14 425 34 556 8 54 15 111 14 126 -1 16 -9 -21 -19
-82 -22 -135 -38 -352 -44 -587 l-4 -177 34 -20 c19 -11 36 -31 40 -46 9 -35
0 -41 -25 -16 -44 44 -126 10 -119 -49 3 -21 8 -25 36 -25 58 0 121 -92 76
-109 -14 -5 -16 -16 -11 -56 5 -42 3 -51 -13 -60 -11 -6 -23 -28 -28 -53 -6
-23 -10 -33 -11 -22 -1 14 -7 9 -22 -20 -16 -30 -20 -51 -17 -92 6 -65 -16
-82 -32 -25 -14 51 -12 71 10 117 34 70 20 99 -47 93 -55 -4 -69 -37 -48 -117
18 -69 19 -140 4 -173 -5 -13 -26 -34 -45 -48 -20 -14 -47 -34 -62 -46 -60
-46 -222 -155 -222 -149 0 4 6 12 12 19 7 7 60 66 118 130 104 117 105 117
142 112 l38 -6 -6 92 c-4 51 -11 100 -16 108 -6 10 -7 -18 -4 -77 l5 -92 -28
5 c-25 5 -40 -8 -180 -166 -84 -94 -151 -173 -149 -175 2 -2 87 29 188 69 102
41 187 72 189 70 2 -2 -15 -33 -38 -69 -22 -36 -41 -70 -41 -75 0 -5 24 4 53
21 28 16 63 35 77 42 14 6 27 14 30 17 3 3 18 14 34 24 28 18 30 18 43 0 7
-10 13 -28 13 -41 0 -18 -7 -25 -30 -29 -24 -5 -32 -14 -39 -43 -73 -284 -131
-524 -128 -527 2 -2 41 47 87 109 47 61 88 117 93 122 4 6 19 25 32 44 31 43
31 38 0 -138 -15 -79 -24 -148 -23 -153 2 -6 52 91 112 214 99 205 107 228
104 273 l-3 50 33 -2 c33 -1 66 -23 83 -55 6 -12 2 -25 -16 -46 -14 -17 -25
-41 -25 -54 0 -28 100 -631 105 -636 2 -2 7 18 11 45 3 26 17 111 30 188 13
77 34 201 46 277 24 149 26 132 -27 204 -16 22 44 75 86 77 l34 2 -3 -50 c-3
-46 4 -66 99 -258 56 -114 103 -206 105 -204 2 2 -7 69 -20 148 -13 79 -23
145 -21 147 1 1 58 -71 126 -162 68 -90 125 -163 127 -162 5 5 -139 561 -148
570 -5 4 -19 14 -32 20 -17 9 -22 20 -21 41 1 15 6 32 11 37 5 5 51 -16 104
-47 53 -30 99 -55 102 -55 6 0 -43 90 -61 112 -31 36 13 25 204 -51 109 -43
200 -77 202 -76 2 2 -39 50 -90 107 -52 57 -123 136 -159 176 -58 66 -67 73
-93 68 l-28 -6 7 90 c5 64 3 90 -5 90 -7 0 -11 -19 -11 -48 0 -26 -7 -74 -15
-106 -8 -32 -13 -62 -9 -67 3 -5 78 -64 166 -130 88 -66 158 -123 155 -125 -4
-4 -294 120 -304 130 -3 2 -1 17 5 33 8 24 6 31 -16 49 -33 27 -40 98 -18 183
30 117 16 154 -57 149 -57 -4 -67 -25 -39 -83 24 -50 27 -102 8 -155 -11 -31
-14 -33 -23 -15 -7 12 -8 28 -1 47 14 38 2 95 -22 108 -11 6 -20 18 -21 28 0
14 -2 14 -8 -3 -6 -15 -9 -10 -15 23 -3 24 -13 45 -21 49 -12 4 -14 16 -9 54
5 39 3 53 -11 69 -20 22 -13 53 18 88 16 17 30 22 57 20 34 -3 35 -2 35 31 0
25 -7 39 -27 54 -35 26 -73 16 -98 -25 l-19 -31 -7 28 c-6 26 -2 34 40 71 l47
41 -6 199 c-3 110 -10 253 -16 319 -14 174 -64 498 -68 445z m-281 -856 c0
-404 -1 -434 -16 -419 -15 15 -16 50 -10 378 6 333 13 477 22 477 2 0 4 -196
4 -436z m-43 -126 c-2 -35 -3 -7 -3 62 0 69 1 97 3 63 2 -35 2 -91 0 -125z
m-159 -30 c17 -17 15 -28 -7 -28 -22 0 -35 15 -26 30 8 13 18 13 33 -2z m457
-8 c18 -20 17 -20 -13 -20 -25 0 -32 4 -32 20 0 11 6 20 13 20 8 0 22 -9 32
-20z m-395 -11 c0 -5 -7 -9 -15 -9 -15 0 -20 12 -9 23 8 8 24 -1 24 -14z m310
1 c0 -5 -7 -10 -16 -10 -8 0 -12 5 -9 10 3 6 10 10 16 10 5 0 9 -4 9 -10z
m-273 -130 c-13 -23 -30 -21 -35 2 -2 9 5 18 15 20 27 7 34 -1 20 -22z m253 0
c0 -16 -20 -21 -33 -8 -20 20 -10 40 14 28 10 -6 19 -15 19 -20z m96 -27 c5
-19 2 -30 -12 -40 -17 -12 -19 -12 -22 2 -5 23 7 65 18 65 5 0 13 -12 16 -27z
m-452 1 c10 -26 7 -56 -6 -52 -18 6 -32 34 -25 52 8 20 23 21 31 0z m163 -46
c-3 -7 -5 -2 -5 12 0 14 2 19 5 13 2 -7 2 -19 0 -25z m-43 -14 c9 -3 16 -12
16 -20 0 -7 9 -18 21 -24 11 -7 28 -28 36 -48 l15 -37 19 37 c11 21 28 42 39
48 11 6 20 17 20 24 0 20 28 28 52 15 14 -8 18 -17 14 -32 -3 -12 -6 -26 -6
-31 0 -5 -16 -6 -36 -3 -44 7 -68 -14 -85 -75 l-11 -43 -18 48 c-27 70 -36 79
-77 71 -25 -5 -38 -3 -44 7 -15 24 -10 57 9 62 9 3 18 5 19 6 1 0 8 -2 17 -5z
m-165 -71 c8 -21 19 -45 27 -53 17 -20 57 -110 51 -116 -16 -16 -106 152 -107
199 0 21 18 2 29 -30z m95 -62 c-9 -10 -17 11 -20 56 l-4 48 14 -50 c8 -27 12
-52 10 -54z m331 13 c-22 -54 -26 -38 -7 31 13 46 18 54 20 34 2 -15 -4 -44
-13 -65z m115 73 c0 -48 -84 -197 -110 -197 -11 0 34 95 49 104 5 3 17 28 27
56 17 47 34 66 34 37z m-366 -96 c10 -11 16 -29 14 -42 -3 -19 -6 -16 -26 20
-24 43 -18 55 12 22z m176 -21 c-23 -46 -45 -55 -29 -13 12 32 28 53 40 53 5
0 0 -18 -11 -40z m-378 -117 c-2 -40 -8 -73 -12 -73 -15 0 -22 90 -10 126 18
53 28 29 22 -53z m582 55 c9 -35 7 -91 -4 -108 -9 -13 -10 -13 -10 0 0 8 -2
41 -5 73 -3 57 7 77 19 35z m-351 -47 c4 -1 7 -7 7 -15 0 -9 -7 -12 -19 -9
-25 6 -36 32 -13 28 9 -2 20 -4 25 -4z m132 -11 c-10 -11 -22 -17 -26 -14 -16
10 -9 23 14 27 12 2 24 5 26 6 2 0 -4 -8 -14 -19z m-275 -71 c-5 -18 -12 -34
-15 -37 -7 -7 -6 43 1 62 11 29 23 6 14 -25z m402 4 c3 -21 -1 -58 -7 -83
l-11 -45 -54 -3 c-30 -2 -57 -7 -60 -12 -8 -13 -27 2 -32 25 -2 13 6 24 25 33
24 12 28 19 25 44 -4 21 0 32 14 39 29 16 37 2 31 -50 -6 -56 8 -73 39 -44 17
15 20 26 15 76 -6 62 8 80 15 20z m-288 -25 c-19 -21 -10 -54 16 -61 29 -7 37
-37 15 -53 -11 -8 -21 -10 -25 -5 -3 6 -28 11 -55 12 -55 2 -77 13 -68 34 4
12 7 12 20 -1 26 -25 38 -10 39 47 0 30 1 57 2 60 1 3 18 1 36 -5 32 -10 34
-12 20 -28z m-308 -33 c22 -34 8 -47 -16 -15 -22 28 -25 40 -10 40 5 0 17 -11
26 -25z m771 -47 c-3 -8 -6 -5 -6 6 -1 11 2 17 5 13 3 -3 4 -12 1 -19z m-619
-39 c-3 -8 -7 -3 -11 10 -4 17 -3 21 5 13 5 -5 8 -16 6 -23z m473 4 c-12 -20
-14 -14 -5 12 4 9 9 14 11 11 3 -2 0 -13 -6 -23z m-761 -18 c0 -8 -4 -15 -10
-15 -5 0 -7 7 -4 15 4 8 8 15 10 15 2 0 4 -7 4 -15z m865 -65 c-22 -91 -22
-93 106 -369 54 -118 97 -216 95 -218 -3 -4 -85 111 -177 247 -51 76 -62 122
-61 259 1 53 7 85 23 118 12 24 24 42 26 39 3 -3 -2 -37 -12 -76z m203 47 c4
-29 -12 -37 -22 -11 -10 26 -7 46 7 42 6 -3 13 -17 15 -31z m-1055 -60 c-32
-34 -62 -64 -67 -66 -10 -4 50 105 72 131 11 13 19 15 34 7 18 -10 15 -15 -39
-72z m187 51 c29 -49 26 -114 -9 -185 -46 -90 -159 -329 -182 -384 -12 -27
-24 -48 -26 -45 -3 3 76 327 103 417 2 8 20 21 39 28 19 7 39 20 44 29 14 29
19 86 11 130 -4 23 -6 42 -4 42 3 0 13 -15 24 -32z m834 -44 c58 -66 68 -84
33 -61 -15 9 -39 25 -54 34 -53 32 -64 45 -52 60 18 21 29 16 73 -33z m-512
-130 c4 -4 14 8 22 27 10 22 15 27 16 15 0 -10 -10 -35 -22 -54 l-22 -35 -12
34 c-7 19 -12 45 -12 59 0 23 1 22 11 -7 7 -17 15 -35 19 -39z m-222 -13 c0
-19 -23 -71 -31 -71 -5 0 -9 4 -9 9 0 5 -3 23 -6 40 -6 28 -4 31 20 31 14 0
26 -4 26 -9z m471 -56 c9 -33 36 -122 58 -199 23 -76 40 -140 38 -142 -2 -3
-19 28 -37 68 -18 40 -51 110 -72 156 -28 61 -38 96 -38 133 0 42 3 50 17 47
10 -2 22 -24 34 -63z m-252 -262 c-1 -153 -4 -267 -6 -253 -2 14 -14 114 -27
223 l-22 198 24 55 c14 30 26 54 28 54 2 0 3 -125 3 -277z m-274 145 c-54
-180 -79 -258 -82 -254 -2 2 3 48 12 102 17 104 41 184 55 184 5 0 12 9 15 20
3 11 10 20 14 20 4 0 -2 -33 -14 -72z m218 -88 c5 -43 4 -48 -3 -25 -6 17 -12
59 -15 95 -3 52 -3 57 4 25 5 -22 11 -65 14 -95z"/>
<path d="M1412 2880 c0 -14 2 -19 5 -12 2 6 2 18 0 25 -3 6 -5 1 -5 -13z"/>
<path d="M941 2824 c0 -11 3 -14 6 -6 3 7 2 16 -1 19 -3 4 -6 -2 -5 -13z"/>
<path d="M1031 2794 c0 -11 3 -14 6 -6 3 7 2 16 -1 19 -3 4 -6 -2 -5 -13z"/>
<path d="M1401 2794 c0 -11 3 -14 6 -6 3 7 2 16 -1 19 -3 4 -6 -2 -5 -13z"/>
<path d="M1031 2754 c0 -11 3 -14 6 -6 3 7 2 16 -1 19 -3 4 -6 -2 -5 -13z"/>
<path d="M1022 2690 c0 -19 2 -27 5 -17 2 9 2 25 0 35 -3 9 -5 1 -5 -18z"/>
<path d="M1021 2634 c0 -11 3 -14 6 -6 3 7 2 16 -1 19 -3 4 -6 -2 -5 -13z"/>
<path d="M1383 2595 c0 -22 2 -30 4 -17 2 12 2 30 0 40 -3 9 -5 -1 -4 -23z"/>
<path d="M1373 2460 c0 -41 2 -58 4 -37 2 20 2 54 0 75 -2 20 -4 3 -4 -38z"/>
</g>
</svg>
