<?xml version="1.0" standalone="no"?>
<!DOCTYPE svg PUBLIC "-//W3C//DTD SVG 20010904//EN"
 "http://www.w3.org/TR/2001/REC-SVG-20010904/DTD/svg10.dtd">
<svg version="1.0" xmlns="http://www.w3.org/2000/svg"
 width="244.000000pt" height="305.000000pt" viewBox="0 0 244.000000 305.000000"
 preserveAspectRatio="xMidYMid meet">
<metadata>
Created by potrace 1.16, written by Peter Selinger 2001-2019
</metadata>
<g transform="translate(0.000000,305.000000) scale(0.100000,-0.100000)"
fill="#000000" stroke="none">
<path d="M921 2797 c-34 -180 -52 -365 -59 -625 l-7 -243 33 -21 c38 -23 54
-49 42 -68 -6 -10 -13 -9 -35 9 -35 26 -55 27 -89 0 -17 -14 -26 -30 -26 -50
0 -27 3 -29 39 -29 32 0 44 -6 70 -35 35 -41 37 -48 16 -69 -10 -9 -15 -34
-15 -70 0 -48 -3 -56 -18 -56 -20 0 -42 -38 -42 -70 0 -11 -5 -19 -12 -17 -17
3 -36 -72 -28 -115 6 -33 5 -38 -11 -38 -23 0 -37 81 -20 122 38 95 37 89 17
104 -11 8 -37 14 -58 14 -29 0 -41 -6 -54 -26 -15 -22 -15 -32 -5 -72 38 -150
37 -209 -4 -236 -20 -13 -23 -22 -18 -49 6 -38 5 -39 -150 -102 -45 -18 -99
-40 -119 -49 -21 -9 -38 -13 -38 -9 1 5 67 55 148 113 202 145 194 136 176
201 -7 30 -14 70 -15 89 0 19 -5 46 -9 60 -6 17 -8 -7 -8 -70 l2 -95 -27 3
c-22 2 -43 -15 -129 -105 -219 -229 -243 -256 -223 -250 19 5 72 25 274 101
52 20 96 34 99 32 2 -3 -10 -28 -27 -57 -18 -28 -30 -53 -28 -56 4 -4 63 26
185 93 55 31 58 30 71 -7 17 -48 14 -58 -22 -73 -31 -13 -36 -20 -56 -97 -42
-163 -80 -305 -105 -394 -14 -49 -24 -91 -22 -92 4 -5 78 84 161 194 38 51 71
90 73 88 2 -2 -6 -58 -18 -125 -12 -67 -20 -123 -18 -126 4 -4 133 226 203
362 28 55 32 70 24 97 -14 51 -12 57 24 57 45 0 106 -44 107 -78 0 -7 -11 -25
-25 -40 -30 -32 -29 -21 -5 -157 12 -60 36 -202 56 -315 19 -112 36 -206 38
-208 2 -2 9 28 16 65 6 37 25 142 41 233 16 91 36 207 44 258 l16 93 -27 34
c-18 24 -24 40 -19 55 14 45 118 80 131 45 3 -8 2 -28 -4 -44 -9 -25 -4 -40
32 -112 23 -46 59 -115 80 -154 22 -38 51 -92 65 -119 56 -105 60 -112 61 -93
0 10 -9 62 -19 115 -30 149 -31 162 -21 162 6 0 10 -4 10 -9 0 -5 15 -27 33
-49 17 -21 56 -70 85 -108 29 -38 59 -78 68 -89 14 -19 15 -18 9 20 -4 22 -17
78 -30 125 -12 47 -39 148 -59 225 -21 77 -39 148 -42 158 -3 10 -19 23 -35
29 -22 8 -29 16 -29 37 0 15 6 36 14 46 13 18 15 17 57 -4 24 -12 60 -32 79
-43 73 -43 143 -78 147 -74 3 3 -14 32 -37 66 -23 34 -40 63 -38 65 2 3 76
-22 163 -55 87 -33 163 -60 168 -60 13 0 -27 46 -175 203 -118 124 -133 137
-157 132 l-27 -6 3 93 c2 63 0 84 -6 67 -5 -15 -10 -62 -12 -105 l-4 -79 41 0
c40 0 45 -4 157 -125 64 -68 114 -126 112 -129 -3 -2 -76 44 -164 103 -203
137 -206 142 -166 303 16 68 16 74 1 98 -20 31 -73 34 -107 6 l-23 -18 20 -34
c12 -19 23 -48 27 -65 7 -38 -8 -100 -26 -107 -10 -4 -13 13 -13 69 1 44 -4
78 -10 82 -6 4 -14 20 -18 37 -10 40 -24 55 -52 55 -22 0 -23 3 -17 50 5 40 2
54 -11 69 -23 25 -14 52 26 86 24 20 39 25 59 21 38 -7 49 26 22 63 -21 28
-77 41 -96 22 -6 -6 -17 -11 -24 -11 -24 0 -13 29 23 59 l37 29 -7 229 c-4
125 -12 271 -17 323 -12 129 -43 329 -47 309 -1 -9 6 -80 17 -157 12 -78 26
-260 32 -407 l12 -266 -34 -29 c-19 -16 -37 -29 -41 -30 -5 0 -8 215 -7 478 1
291 4 467 10 452 7 -21 8 -20 4 9 -3 18 -5 41 -5 49 0 11 -3 13 -10 6 -5 -5
-17 -56 -27 -112 -9 -56 -18 -101 -19 -99 -1 1 -8 43 -15 92 -6 50 -14 98 -18
107 -3 9 -6 -208 -6 -482 0 -466 -1 -498 -17 -483 -17 15 -21 36 -33 147 -7
65 -18 64 -33 -4 l-10 -45 -1 42 c-1 52 -21 69 -21 19 0 -20 -4 -36 -10 -36
-6 0 -10 38 -10 93 0 132 -42 443 -63 463 -19 20 -66 -303 -67 -461 0 -44 -5
-87 -10 -95 -7 -11 -10 -5 -10 23 0 20 -4 37 -10 37 -5 0 -10 -10 -10 -22 0
-18 -4 -15 -18 14 -16 30 -20 70 -25 234 -6 192 -29 447 -47 529 -7 34 -9 26
-8 -45 0 -47 -1 -164 -2 -260 -3 -141 -5 -162 -10 -105 -4 39 -8 107 -9 153 0
45 -5 82 -10 82 -5 0 -12 12 -14 28 -2 15 -2 -25 1 -88 3 -63 8 -119 12 -125
7 -9 15 -136 25 -398 4 -113 -4 -157 -29 -157 -13 0 -16 23 -19 133 l-3 132
-2 -147 c-1 -85 -6 -149 -12 -153 -5 -3 -10 -3 -10 2 -3 202 0 936 4 940 9 10
7 51 -3 57 -5 3 -18 -45 -30 -107z m366 -734 c-2 -27 -3 -5 -3 47 0 52 1 74 3
48 2 -27 2 -69 0 -95z m0 -75 c-3 -8 -6 -5 -6 6 -1 11 2 17 5 13 3 -3 4 -12 1
-19z m-277 -114 c0 -8 -9 -14 -20 -14 -22 0 -26 10 -8 28 13 13 28 7 28 -14z
m410 0 c0 -8 -7 -14 -15 -14 -15 0 -21 21 -9 33 10 9 24 -2 24 -19z m-332 -2
c2 -7 -6 -12 -17 -12 -21 0 -27 11 -14 24 9 9 26 2 31 -12z m402 3 c0 -8 -9
-15 -20 -15 -20 0 -26 11 -13 23 12 13 33 7 33 -8z m-374 -141 c-14 -13 -20
-14 -29 -5 -9 10 -8 16 7 27 27 19 45 1 22 -22z m260 26 c25 -10 26 -12 11
-27 -14 -14 -17 -14 -31 0 -15 14 -22 37 -12 37 3 0 17 -5 32 -10z m-366 -71
c0 -20 -15 -26 -25 -9 -9 15 3 43 15 35 5 -3 10 -15 10 -26z m476 -5 c-5 -13
-10 -14 -18 -6 -6 6 -8 18 -4 28 5 13 10 14 18 6 6 -6 8 -18 4 -28z m-326 -50
c0 -13 8 -24 20 -27 11 -3 27 -21 35 -41 9 -20 17 -36 20 -36 2 0 12 16 21 36
10 20 26 39 36 42 10 2 18 13 18 26 0 18 5 22 23 20 12 -1 30 -3 40 -3 15 -1
18 -8 15 -38 -2 -27 -7 -37 -17 -35 -63 14 -70 13 -89 -6 -12 -12 -26 -40 -33
-64 l-11 -43 -20 53 c-22 59 -42 72 -100 64 -38 -4 -38 -4 -38 31 0 37 7 42
57 42 17 0 23 -6 23 -21z m270 -84 c-17 -32 -19 -21 -6 35 10 45 11 46 14 18
2 -18 -2 -42 -8 -53z m-464 43 c4 -16 22 -57 40 -92 33 -64 37 -88 9 -60 -24
24 -75 130 -75 155 0 33 18 30 26 -3z m88 -26 c8 -26 12 -47 10 -47 -8 0 -34
61 -34 81 0 31 8 20 24 -34z m472 17 c-7 -36 -32 -86 -68 -137 -35 -49 -33
-20 4 50 19 38 38 80 42 96 10 42 30 34 22 -9z m-362 -102 c12 -25 13 -33 4
-30 -14 5 -58 65 -58 80 0 18 39 -17 54 -50z m196 41 c0 -11 -51 -73 -60 -73
-13 0 0 36 21 59 19 20 39 28 39 14z m206 -79 c11 -27 13 -51 8 -88 -12 -89
-23 -97 -23 -19 -1 39 -6 84 -11 98 -9 24 -6 45 6 45 3 0 12 -16 20 -36z
m-636 -20 c-7 -16 -9 -49 -6 -76 4 -25 2 -49 -3 -52 -22 -14 -29 121 -9 154
18 28 31 9 18 -26z m250 -60 c0 -12 -4 -13 -21 -3 -17 9 -19 13 -8 19 16 11
29 4 29 -16z m141 6 c-22 -19 -41 -19 -41 0 0 7 22 15 55 18 6 1 -1 -7 -14
-18z m-299 -62 c-7 -7 -12 -8 -12 -2 0 14 12 26 19 19 2 -3 -1 -11 -7 -17z
m433 12 c3 -5 1 -10 -4 -10 -6 0 -11 5 -11 10 0 6 2 10 4 10 3 0 8 -4 11 -10z
m-315 -20 c14 -4 20 -8 14 -9 -14 -1 -25 -37 -17 -56 2 -8 14 -15 26 -17 16
-2 22 -10 22 -28 0 -21 -4 -24 -25 -22 -14 2 -50 4 -80 5 -45 2 -55 5 -58 21
-3 15 0 17 14 11 45 -18 49 -13 46 48 -4 62 0 65 58 47z m246 -45 c-5 -45 -3
-57 10 -62 8 -3 20 -1 27 6 17 17 27 13 27 -10 0 -19 -4 -20 -48 -15 -30 3
-58 0 -73 -8 -32 -17 -49 -10 -49 20 0 17 8 27 25 34 19 7 25 17 25 40 0 17
-6 31 -12 31 -7 1 1 5 17 9 58 15 58 15 51 -45z m-556 -20 c0 -20 -10 -19 -26
3 -19 25 -17 34 6 22 11 -6 20 -17 20 -25z m820 -5 c0 -5 -5 -10 -11 -10 -5 0
-7 5 -4 10 3 6 8 10 11 10 2 0 4 -4 4 -10z m-130 -37 c0 -5 -7 -17 -15 -27
-15 -20 -20 -10 -9 18 6 16 24 22 24 9z m-542 -34 c-3 -8 -7 -3 -11 10 -4 17
-3 21 5 13 5 -5 8 -16 6 -23z m-248 -30 c0 -9 -106 -112 -122 -118 -9 -3 49
86 79 121 14 16 43 15 43 -3z m168 -17 c24 -50 25 -104 3 -189 -12 -45 -21
-94 -21 -110 0 -15 -11 -46 -23 -68 -24 -42 -187 -261 -187 -252 0 3 34 77 76
164 152 315 161 345 130 446 -15 51 -1 57 22 9z m696 -19 c-10 -78 5 -115 53
-137 l41 -20 37 -135 c50 -180 75 -284 71 -288 -2 -2 -32 54 -66 124 -35 70
-88 178 -118 238 -62 123 -73 187 -39 238 9 15 19 27 22 27 2 0 2 -21 -1 -47z
m216 -24 c39 -39 70 -73 68 -75 -6 -5 -188 101 -188 110 0 9 30 35 42 36 5 0
40 -32 78 -71z m-503 5 c-3 -3 -12 -4 -19 -1 -8 3 -5 6 6 6 11 1 17 -2 13 -5z
m-72 -134 c3 0 12 15 20 33 9 19 14 25 15 14 0 -18 -27 -77 -35 -77 -8 0 -35
59 -35 77 1 11 6 5 15 -14 8 -18 17 -33 20 -33z m-245 -2 c0 -2 -6 -21 -14
-42 l-14 -40 -7 32 c-7 35 -1 52 21 52 8 0 14 -1 14 -2z m505 -25 c4 -16 9
-38 10 -49 2 -12 8 -32 15 -44 24 -46 119 -330 110 -330 -6 0 -10 4 -10 9 0 5
-24 54 -52 108 -108 203 -121 236 -114 287 8 52 30 62 41 19z m-566 -54 c1
-15 -8 -34 -21 -45 -21 -19 -21 -19 -15 6 4 14 10 43 14 65 5 32 8 35 14 20 4
-11 8 -32 8 -46z m392 -119 l-9 -45 -1 55 c-1 35 2 51 9 44 6 -6 6 -26 1 -54z
m-396 8 c-32 -102 -80 -228 -83 -219 -5 14 27 168 41 198 5 13 14 23 19 23 4
0 8 6 8 14 0 8 6 17 13 19 6 3 13 6 14 6 0 1 -5 -18 -12 -41z m382 -100 c-3
-7 -5 -2 -5 12 0 14 2 19 5 13 2 -7 2 -19 0 -25z"/>
<path d="M1422 2820 c0 -14 2 -19 5 -12 2 6 2 18 0 25 -3 6 -5 1 -5 -13z"/>
<path d="M972 2770 c0 -14 2 -19 5 -12 2 6 2 18 0 25 -3 6 -5 1 -5 -13z"/>
<path d="M1012 2760 c0 -14 2 -19 5 -12 2 6 2 18 0 25 -3 6 -5 1 -5 -13z"/>
<path d="M1402 2645 c0 -16 2 -22 5 -12 2 9 2 23 0 30 -3 6 -5 -1 -5 -18z"/>
<path d="M1393 2515 c0 -33 2 -45 4 -27 2 18 2 45 0 60 -2 15 -4 0 -4 -33z"/>
<path d="M983 2365 c0 -44 2 -61 4 -37 2 23 2 59 0 80 -2 20 -4 1 -4 -43z"/>
<path d="M1384 2285 c0 -82 2 -115 3 -72 2 43 2 110 0 150 -1 40 -3 5 -3 -78z"/>
</g>
</svg>
