<?xml version="1.0" standalone="no"?>
<!DOCTYPE svg PUBLIC "-//W3C//DTD SVG 20010904//EN"
 "http://www.w3.org/TR/2001/REC-SVG-20010904/DTD/svg10.dtd">
<svg version="1.0" xmlns="http://www.w3.org/2000/svg"
 width="244.000000pt" height="305.000000pt" viewBox="0 0 244.000000 305.000000"
 preserveAspectRatio="xMidYMid meet">
<metadata>
Created by potrace 1.16, written by Peter Selinger 2001-2019
</metadata>
<g transform="translate(0.000000,305.000000) scale(0.100000,-0.100000)"
fill="#000000" stroke="none">
<path d="M887 2884 c-3 -16 -7 -36 -10 -44 -2 -8 -2 -12 0 -7 19 33 23 -42 23
-463 0 -499 0 -500 -45 -450 -10 11 -24 20 -30 20 -7 0 -16 7 -19 16 -6 17 9
421 20 504 10 85 45 315 51 335 3 13 2 16 -4 10 -11 -12 -48 -219 -62 -355 -6
-52 -13 -193 -17 -312 l-7 -217 29 -11 c16 -6 41 -22 55 -36 l25 -24 30 26
c16 14 40 30 53 35 l24 10 -7 226 c-8 293 -25 443 -72 663 -21 94 -29 111 -37
74z"/>
<path d="M1567 2897 c-3 -9 -2 -30 4 -45 12 -30 9 -952 -3 -952 -3 0 -25 12
-48 28 l-43 27 7 185 c9 261 32 476 71 670 4 18 3 21 -4 10 -16 -26 -60 -318
-70 -465 -6 -77 -11 -205 -12 -285 -2 -132 -1 -145 17 -155 10 -5 34 -23 53
-38 l33 -28 27 23 c14 14 39 32 54 42 l29 18 -7 196 c-8 240 -28 448 -60 607
-32 159 -39 184 -48 162z"/>
<path d="M1211 2578 c-1 -26 -7 -78 -15 -115 -22 -105 -46 -352 -46 -479 0
-110 -14 -160 -24 -89 -4 19 -9 52 -12 73 -27 178 -46 174 -70 -16 -7 -52 -6
-53 35 -91 39 -36 41 -41 36 -81 -3 -24 -8 -47 -11 -51 -7 -12 -41 -11 -49 1
-12 20 -25 10 -25 -19 0 -32 22 -61 46 -61 8 0 25 11 38 25 32 34 37 32 34
-17 -3 -38 0 -43 20 -46 14 -2 28 -15 35 -30 6 -15 17 -33 24 -40 7 -7 12 -28
12 -45 -1 -24 -3 -26 -6 -9 -2 12 -9 22 -14 22 -5 0 -9 5 -9 11 0 14 -38 47
-68 59 -16 7 -33 6 -57 -5 -44 -18 -44 -32 -1 -41 19 -3 44 -16 55 -28 23 -25
44 -116 39 -174 -2 -29 -8 -37 -28 -42 -20 -5 -25 -12 -25 -35 0 -23 5 -31 22
-33 51 -7 50 -72 -1 -72 -48 0 -57 -46 -13 -69 21 -10 20 -10 -8 -8 -28 2 -30
5 -33 47 -2 24 -9 48 -15 52 -14 9 -49 2 -100 -19 -29 -13 -43 -14 -62 -5 -39
18 -80 89 -81 141 -1 25 -5 70 -9 99 -6 45 -12 55 -33 63 -20 8 -31 6 -51 -9
-46 -34 -40 -111 13 -189 66 -97 106 -179 106 -218 0 -31 -24 -79 -124 -249
-67 -116 -134 -230 -146 -253 -13 -24 -26 -41 -28 -38 -2 2 28 103 67 223 l71
220 45 11 c53 13 65 34 65 111 0 64 -8 84 -70 165 -85 109 -94 169 -39 246 20
29 20 31 4 50 -13 13 -31 19 -62 19 -87 0 -107 -37 -73 -134 23 -67 25 -99 9
-145 -9 -26 -35 -46 -154 -116 -78 -47 -145 -85 -148 -85 -4 0 -28 -13 -54
-30 -26 -17 -51 -30 -56 -30 -11 0 2 13 157 153 130 118 131 118 176 115 l45
-3 -1 35 c-4 93 -16 170 -26 164 -7 -4 -8 -36 -3 -91 l7 -84 -34 6 c-36 6 -51
-5 -287 -224 -57 -53 -109 -99 -115 -103 -6 -4 -7 -10 -4 -13 9 -9 478 143
479 156 1 5 3 14 4 19 1 6 3 15 4 20 2 16 29 12 86 -16 59 -27 92 -64 101
-113 6 -27 3 -31 -22 -37 -16 -4 -34 -11 -41 -16 -6 -5 -30 -69 -53 -141 -43
-137 -103 -327 -121 -385 -6 -19 -9 -35 -7 -38 5 -4 116 114 279 295 131 146
131 145 119 176 -23 61 -19 65 79 65 75 0 93 -3 121 -22 56 -39 59 -53 21 -92
l-33 -34 21 -104 c13 -57 28 -134 36 -173 28 -146 79 -377 82 -369 1 5 16 74
33 154 68 329 100 483 100 486 0 2 -14 20 -32 40 -36 41 -33 54 22 92 28 19
46 22 121 22 48 0 90 -4 93 -9 3 -5 -1 -27 -9 -50 -16 -45 -22 -32 64 -126 15
-16 53 -59 86 -95 163 -180 238 -260 242 -256 3 2 -19 78 -47 168 -29 90 -68
214 -88 277 -35 112 -37 115 -74 129 -45 18 -49 42 -15 93 21 33 85 71 139 84
24 6 27 4 30 -22 3 -27 9 -30 233 -105 127 -42 239 -79 250 -82 21 -5 -52 67
-215 215 -156 142 -157 142 -191 135 l-31 -6 7 83 c7 100 -9 139 -19 44 -3
-36 -13 -87 -21 -113 -17 -56 -13 -64 54 -100 25 -13 69 -39 96 -56 28 -18 90
-56 138 -86 49 -30 86 -56 83 -59 -5 -6 -71 15 -186 57 -41 15 -97 36 -123 46
-48 17 -48 17 -42 55 5 31 3 38 -13 43 -45 15 -54 99 -21 208 l22 70 -21 26
c-17 23 -27 27 -71 27 -33 -1 -57 -7 -67 -17 -15 -14 -14 -20 10 -60 29 -51
34 -113 12 -156 -8 -15 -37 -56 -65 -91 -58 -72 -86 -151 -82 -226 1 -18 227
-431 252 -462 6 -7 9 -17 7 -23 -1 -5 -71 69 -153 165 -123 143 -150 180 -148
203 2 15 5 65 7 112 5 103 7 109 87 235 51 81 63 110 67 151 4 45 1 53 -19 68
-28 19 -63 21 -76 4 -14 -17 -25 -81 -28 -149 -1 -43 -7 -64 -29 -91 -38 -50
-75 -64 -114 -44 -17 9 -49 16 -72 16 -40 0 -40 0 -40 -38 0 -41 -14 -62 -42
-62 -22 0 -38 -29 -38 -68 0 -21 -11 -41 -35 -66 l-35 -36 -2 -303 -3 -302
-23 115 c-13 63 -30 142 -37 175 -12 55 -32 147 -39 186 -2 9 17 38 42 65 l45
49 -6 -72 c-3 -43 -2 -73 4 -73 5 0 9 44 9 99 0 90 2 99 20 104 11 3 20 14 20
24 0 11 7 28 15 39 8 10 15 31 15 47 0 15 3 27 8 28 46 5 71 16 68 31 -3 24
-16 35 -46 41 -25 6 -30 11 -30 36 0 25 4 30 28 33 19 2 28 9 30 26 4 24 -15
55 -27 48 -4 -3 -13 -1 -20 4 -11 6 -12 24 -3 90 12 97 32 131 85 143 41 10
47 21 18 37 -34 18 -78 12 -104 -14 -14 -14 -28 -22 -31 -19 -3 4 -6 -5 -7
-18 l0 -24 -10 23 c-11 29 13 75 48 91 18 9 23 18 23 51 0 22 3 40 6 40 4 0
17 -11 30 -25 28 -30 38 -31 64 -5 26 26 28 75 3 65 -45 -18 -53 -17 -63 10
-23 61 -13 88 48 133 23 17 23 18 11 108 -20 159 -36 153 -63 -21 -10 -63 -22
-115 -26 -115 -4 0 -11 62 -14 138 -10 248 -26 407 -51 506 -24 97 -34 123
-36 95 -1 -8 -5 -3 -9 11 -7 20 -8 17 -9 -22z m8 -719 c-8 -4 -9 -29 -6 -75
16 -181 16 -190 8 -154 -6 24 -9 28 -10 13 -1 -26 -4 -27 -32 -13 -17 9 -19
22 -19 98 0 237 24 546 59 767 3 22 7 -110 9 -294 2 -241 -1 -337 -9 -342z m8
-111 c-3 -7 -5 -2 -5 12 0 14 2 19 5 13 2 -7 2 -19 0 -25z m-42 -732 c-4 -32
-3 -36 4 -16 6 17 9 20 10 7 1 -9 7 -26 13 -37 9 -14 10 -22 1 -31 -18 -18
-41 28 -47 96 -6 54 -5 58 9 41 10 -13 13 -33 10 -60z"/>
<path d="M1212 1920 c0 -14 2 -19 5 -12 2 6 2 18 0 25 -3 6 -5 1 -5 -13z"/>
<path d="M743 1855 c-20 -9 -35 -23 -39 -39 -11 -44 0 -55 45 -49 36 5 44 2
76 -30 40 -40 44 -61 14 -78 -19 -9 -21 -17 -15 -55 7 -53 37 -114 82 -171 41
-49 41 -56 10 -81 -14 -10 -33 -35 -42 -55 -16 -34 -16 -37 0 -62 27 -41 98
-60 110 -30 3 9 0 36 -6 60 -10 38 -10 47 3 60 13 13 22 13 77 -7 47 -17 66
-20 79 -12 25 15 27 33 6 40 -69 24 -130 60 -168 99 -47 50 -85 118 -85 153 0
33 14 26 29 -13 23 -65 142 -178 209 -199 18 -6 22 -4 22 13 0 12 -22 36 -59
65 -66 51 -121 126 -121 166 0 15 -9 35 -20 45 -18 16 -18 20 -5 46 20 38 50
52 96 46 46 -6 49 -3 37 40 -10 38 -37 55 -86 55 -40 0 -82 -37 -82 -73 0 -30
-17 -22 -36 16 -25 53 -77 73 -131 50z"/>
<path d="M1435 1860 c-29 -11 -43 -31 -47 -65 -3 -30 -3 -30 44 -27 40 3 51 0
73 -22 28 -28 32 -58 11 -75 -7 -6 -16 -27 -19 -46 -8 -48 -60 -117 -124 -165
-32 -25 -53 -48 -53 -60 0 -21 16 -18 78 14 41 21 138 130 153 171 7 19 17 35
22 35 18 0 -5 -75 -39 -126 -42 -63 -88 -100 -163 -130 -57 -23 -68 -39 -40
-57 11 -7 34 -4 80 11 59 18 65 19 77 4 8 -11 11 -28 7 -47 -4 -16 -9 -40 -12
-52 -11 -48 90 -33 117 17 13 25 -7 75 -44 109 -14 14 -26 28 -26 33 0 5 18
32 40 61 21 29 46 69 55 90 19 47 20 111 0 127 -23 19 -18 39 20 77 30 30 40
34 77 31 38 -2 43 0 46 21 4 29 -31 68 -69 76 -40 9 -83 -17 -107 -66 l-21
-42 -17 43 c-12 31 -26 46 -50 56 -38 16 -41 16 -69 4z"/>
<path d="M1203 545 c0 -27 2 -38 4 -22 2 15 2 37 0 50 -2 12 -4 0 -4 -28z"/>
</g>
</svg>
