<?xml version="1.0" standalone="no"?>
<!DOCTYPE svg PUBLIC "-//W3C//DTD SVG 20010904//EN"
 "http://www.w3.org/TR/2001/REC-SVG-20010904/DTD/svg10.dtd">
<svg version="1.0" xmlns="http://www.w3.org/2000/svg"
 width="244.000000pt" height="305.000000pt" viewBox="0 0 244.000000 305.000000"
 preserveAspectRatio="xMidYMid meet">
<metadata>
Created by potrace 1.16, written by Peter Selinger 2001-2019
</metadata>
<g transform="translate(0.000000,305.000000) scale(0.100000,-0.100000)"
fill="#000000" stroke="none">
<path d="M887 2894 c-17 -53 -60 -294 -73 -409 -8 -71 -18 -227 -21 -346 l-6
-217 22 -7 c12 -4 37 -20 56 -36 l33 -29 29 23 c15 13 39 30 52 37 l24 12 -6
222 c-7 253 -21 404 -48 526 -20 90 -19 77 6 -112 28 -215 44 -580 27 -603 -4
-5 -22 -21 -41 -34 -27 -19 -35 -21 -42 -10 -5 8 -9 223 -9 479 1 414 2 463
16 445 13 -18 14 -17 8 15 -10 51 -20 68 -27 44z"/>
<path d="M1567 2893 c-3 -4 -12 -42 -21 -83 -52 -254 -76 -496 -76 -756 0
-119 2 -135 18 -141 9 -4 31 -17 48 -30 37 -28 46 -28 68 -4 10 11 31 25 47
31 l29 12 0 97 c0 230 -30 569 -60 681 -9 31 -9 29 -4 -15 3 -27 12 -99 20
-158 16 -121 38 -539 29 -565 -4 -15 -73 -62 -89 -62 -4 0 -6 214 -6 476 0
326 3 473 10 469 7 -4 8 3 4 22 -8 33 -10 37 -17 26z"/>
<path d="M922 2780 c0 -14 2 -19 5 -12 2 6 2 18 0 25 -3 6 -5 1 -5 -13z"/>
<path d="M1602 2760 c0 -14 2 -19 5 -12 2 6 2 18 0 25 -3 6 -5 1 -5 -13z"/>
<path d="M1217 2543 c-40 -142 -55 -259 -63 -498 -4 -102 -11 -185 -16 -185
-4 0 -8 3 -8 8 0 27 -32 195 -41 219 l-12 28 -12 -47 c-7 -25 -16 -75 -19
-111 l-7 -65 35 -21 c40 -25 55 -70 39 -118 -10 -28 -29 -34 -65 -18 -15 6
-18 2 -18 -22 0 -58 64 -81 90 -32 16 28 33 24 26 -7 -9 -34 0 -61 24 -67 28
-7 58 -62 52 -95 l-6 -27 -7 30 c-4 17 -7 27 -8 23 0 -4 -12 3 -26 16 -34 31
-56 36 -94 20 -40 -17 -40 -31 2 -39 61 -13 79 -46 93 -171 l6 -61 -32 -11
c-26 -10 -31 -16 -28 -39 2 -19 10 -29 28 -33 20 -5 25 -12 25 -35 0 -25 -5
-31 -29 -35 -58 -10 -58 -68 0 -68 34 1 38 -5 36 -60 -1 -33 1 -41 7 -27 7 17
10 15 16 -18 4 -20 11 -37 16 -37 5 0 11 -1 15 -2 6 -3 54 111 54 130 0 6 11
12 24 12 46 0 64 62 19 68 -27 4 -57 37 -50 55 3 8 19 17 37 20 27 6 31 10 28
34 -2 19 -10 29 -28 33 -24 6 -25 10 -24 72 0 37 8 86 18 112 16 42 22 47 62
57 43 11 44 12 28 30 -10 11 -30 19 -47 19 -39 0 -97 -39 -97 -65 0 -17 -2
-17 -10 -5 -8 12 -10 8 -11 -15 -1 -21 -3 -24 -6 -9 -6 31 38 107 71 122 26
13 28 17 22 53 -4 24 -2 39 4 39 5 0 10 -4 10 -10 0 -17 48 -42 68 -36 20 7
46 72 31 81 -4 3 -17 0 -27 -6 -29 -18 -49 -5 -56 40 -8 50 6 81 46 104 30 17
30 18 24 75 -12 98 -27 165 -37 155 -5 -5 -18 -60 -29 -123 -12 -63 -25 -119
-29 -123 -4 -4 -11 83 -15 195 -6 201 -18 303 -50 447 -24 107 -30 112 -49 44z
m42 -128 c2 6 9 -28 17 -75 16 -97 33 -396 34 -578 0 -120 0 -123 -24 -132
-13 -5 -27 -14 -31 -20 -17 -28 -25 11 -23 118 1 92 3 108 9 73 5 -24 11 -46
14 -49 9 -9 5 104 -4 114 -11 11 -23 627 -13 651 4 11 9 -6 13 -47 3 -36 7
-60 8 -55z"/>
<path d="M1252 1940 c0 -14 2 -19 5 -12 2 6 2 18 0 25 -3 6 -5 1 -5 -13z"/>
<path d="M753 1859 c-36 -10 -56 -39 -51 -72 3 -19 8 -21 44 -19 32 3 47 -2
72 -23 43 -36 49 -62 22 -87 -18 -17 -20 -27 -15 -62 9 -50 33 -98 79 -160 20
-25 36 -50 36 -54 0 -4 -14 -20 -29 -35 -45 -44 -57 -81 -37 -112 25 -37 75
-55 105 -36 11 7 11 17 0 59 -10 40 -10 54 0 66 11 13 19 12 68 -5 68 -23 99
-24 107 -3 8 22 0 31 -34 39 -16 3 -55 23 -88 44 -65 43 -130 129 -139 186 -7
46 12 46 27 0 29 -88 230 -249 230 -184 0 17 -36 59 -51 59 -16 0 -74 57 -101
99 -15 25 -28 57 -28 71 0 15 -9 35 -20 45 -18 16 -18 20 -5 46 20 39 50 52
96 45 39 -6 39 -6 39 27 0 44 -28 69 -78 71 -46 1 -70 -16 -89 -61 -7 -18 -15
-33 -18 -33 -2 0 -12 16 -21 36 -11 23 -29 41 -50 50 -19 8 -35 14 -36 13 -2
0 -18 -5 -35 -10z"/>
<path d="M1433 1855 c-32 -13 -43 -32 -43 -70 0 -21 3 -22 43 -18 32 4 48 0
68 -16 36 -28 43 -58 18 -79 -10 -9 -19 -28 -19 -42 0 -14 -9 -40 -21 -59 -21
-35 -97 -111 -111 -111 -15 0 -48 -40 -48 -59 0 -60 180 77 222 170 13 27 27
49 32 49 17 0 -2 -67 -34 -118 -38 -63 -93 -107 -168 -138 -62 -25 -70 -35
-47 -54 12 -10 28 -9 85 6 90 23 99 16 81 -57 -11 -43 -11 -53 0 -60 46 -29
130 31 114 82 -4 11 -23 39 -43 60 l-35 40 32 42 c72 95 103 206 66 237 -23
19 -18 39 20 77 30 30 40 34 77 32 48 -4 56 7 38 51 -13 32 -64 55 -96 44 -28
-10 -65 -45 -75 -71 -10 -27 -29 -30 -29 -5 -1 51 -73 89 -127 67z"/>
<path d="M572 1524 c-27 -19 -27 -41 -2 -122 30 -95 27 -147 -10 -184 -25 -25
-29 -36 -25 -62 6 -31 6 -31 -67 -58 -157 -58 -302 -108 -305 -104 -2 2 32 25
76 52 351 214 323 194 318 228 -3 17 -11 68 -18 114 -17 112 -34 107 -26 -8
l7 -91 -33 6 c-31 6 -40 0 -128 -78 -151 -135 -284 -258 -287 -267 -4 -11 -8
-12 263 78 222 74 230 78 233 105 4 33 18 34 76 7 55 -27 85 -54 103 -97 16
-39 5 -63 -28 -63 -28 0 -43 -31 -94 -195 -25 -82 -53 -170 -61 -195 -46 -135
-62 -201 -46 -188 15 13 365 398 389 429 9 12 9 23 -2 54 -7 22 -11 43 -8 47
7 12 172 9 196 -3 33 -17 67 -51 67 -66 0 -7 -14 -26 -31 -41 l-32 -28 68
-325 c37 -178 68 -325 70 -327 3 -4 3 -5 80 372 l57 278 -33 34 c-38 39 -35
53 21 92 28 19 46 22 126 22 58 0 94 -4 94 -10 0 -6 -6 -26 -14 -45 -13 -31
-13 -36 7 -62 39 -52 380 -423 384 -419 3 2 -20 82 -50 178 -31 95 -70 220
-88 277 -32 102 -34 104 -72 119 -35 14 -38 18 -33 45 9 47 43 84 101 111 69
33 81 33 88 -3 6 -29 12 -32 243 -106 129 -42 238 -74 242 -71 3 3 3 7 1 9 -9
6 -197 174 -249 223 -119 111 -127 116 -161 109 l-32 -7 7 83 c8 105 -9 144
-19 43 -4 -38 -7 -87 -8 -109 l-2 -40 45 3 c44 3 48 1 126 -70 44 -40 108 -98
142 -129 106 -96 91 -91 -166 58 -116 68 -167 103 -177 124 -19 36 -19 95 0
149 19 55 19 104 -1 124 -20 21 -93 21 -121 1 -24 -17 -22 -32 10 -77 22 -30
25 -104 6 -139 -6 -12 -38 -58 -70 -101 -59 -79 -64 -96 -59 -172 4 -56 16
-72 64 -86 l46 -13 70 -215 c39 -119 69 -220 67 -225 -1 -5 -29 37 -62 94 -32
57 -92 160 -133 229 -87 145 -102 178 -102 221 0 32 42 117 108 217 45 67 56
147 24 175 -13 12 -32 17 -54 15 -31 -3 -34 -6 -41 -48 -4 -25 -9 -72 -10
-105 -2 -48 -8 -68 -30 -96 -41 -55 -70 -66 -112 -46 -20 9 -54 17 -75 17 -40
0 -40 0 -40 -39 0 -40 -11 -56 -45 -63 -19 -3 -28 -21 -40 -81 -3 -15 -14 -36
-25 -47 -17 -17 -20 -33 -19 -107 0 -49 4 -108 9 -133 5 -28 6 -5 2 64 -5 106
-5 108 15 98 11 -6 32 -26 46 -45 l26 -34 -25 -114 c-47 -220 -74 -352 -74
-361 0 -5 -4 -7 -10 -3 -5 3 -9 122 -8 304 l2 298 -31 32 c-24 23 -33 42 -35
73 -2 27 -9 44 -20 49 -10 5 -26 13 -35 18 -12 5 -19 22 -21 50 l-3 41 -45 0
c-25 0 -56 -7 -70 -17 -23 -15 -28 -15 -59 0 -46 22 -89 88 -81 122 7 28 -12
142 -27 163 -15 19 -62 14 -83 -9 -22 -25 -22 -84 1 -129 9 -17 36 -62 61
-101 64 -98 76 -133 79 -224 1 -44 6 -91 9 -105 6 -22 -13 -48 -135 -190 -78
-91 -148 -169 -156 -173 -17 -10 -7 11 71 146 133 231 176 318 176 356 0 69
-27 133 -90 211 -46 58 -62 87 -71 128 -10 51 -10 54 22 104 l33 51 -23 18
c-29 23 -98 25 -129 3z"/>
<path d="M1282 1000 c0 -14 2 -19 5 -12 2 6 2 18 0 25 -3 6 -5 1 -5 -13z"/>
<path d="M1262 530 c0 -19 2 -27 5 -17 2 9 2 25 0 35 -3 9 -5 1 -5 -18z"/>
</g>
</svg>
