<?xml version="1.0" standalone="no"?>
<!DOCTYPE svg PUBLIC "-//W3C//DTD SVG 20010904//EN"
 "http://www.w3.org/TR/2001/REC-SVG-20010904/DTD/svg10.dtd">
<svg version="1.0" xmlns="http://www.w3.org/2000/svg"
 width="244.000000pt" height="305.000000pt" viewBox="0 0 244.000000 305.000000"
 preserveAspectRatio="xMidYMid meet">
<metadata>
Created by potrace 1.16, written by Peter Selinger 2001-2019
</metadata>
<g transform="translate(0.000000,305.000000) scale(0.100000,-0.100000)"
fill="#000000" stroke="none">
<path d="M1078 2863 c-2 -26 -1 -73 3 -103 7 -62 2 -612 -7 -738 -9 -123 -28
-103 -35 39 -13 243 -31 458 -45 554 -22 152 -45 275 -53 275 -3 0 -5 -223 -3
-495 2 -272 0 -495 -3 -495 -4 0 -22 12 -42 27 l-36 28 7 215 c3 118 15 293
27 389 11 95 18 175 16 177 -2 3 -14 -67 -26 -153 -14 -106 -23 -240 -28 -408
l-6 -251 29 -19 c16 -10 36 -28 45 -39 17 -20 17 -20 50 12 42 41 70 50 84 27
5 -10 18 -27 28 -37 26 -27 21 -45 -6 -20 -13 12 -33 22 -44 22 -30 0 -71 -36
-78 -70 -9 -40 -21 -46 -30 -12 -11 45 -44 72 -87 72 -43 0 -72 -32 -66 -72 3
-19 8 -23 36 -20 26 3 39 -3 67 -31 38 -38 43 -58 20 -77 -19 -16 -19 -75 -1
-128 18 -50 24 -224 8 -230 -6 -2 -13 17 -17 45 -10 84 -17 98 -52 101 -63 6
-77 -84 -28 -173 13 -22 26 -51 29 -65 6 -23 4 -22 -25 10 -67 75 -87 166 -49
228 37 61 19 92 -54 92 -27 0 -40 -6 -53 -26 -16 -25 -16 -30 5 -113 18 -69
20 -93 12 -122 -13 -45 -29 -60 -175 -156 -200 -133 -205 -132 -63 18 102 108
131 133 150 131 55 -9 52 -12 49 68 -4 123 -20 164 -18 48 l2 -98 -30 6 c-28
5 -37 -1 -94 -63 -35 -37 -109 -114 -164 -170 -56 -56 -99 -104 -96 -107 4 -4
98 28 244 83 28 11 78 29 112 41 53 19 62 26 65 49 3 22 7 26 31 23 33 -3 97
-42 97 -57 0 -6 -16 -41 -35 -78 -19 -37 -35 -69 -35 -71 0 -2 9 -2 20 1 24 6
24 9 1 -68 -11 -35 -38 -134 -61 -219 -23 -85 -48 -177 -55 -203 -8 -27 -11
-47 -6 -45 8 3 41 42 201 243 157 196 151 186 140 226 -14 49 -13 59 10 59 25
0 25 -6 -1 -186 -11 -79 -19 -151 -17 -161 2 -10 15 63 28 162 l26 180 28 3
c34 4 37 29 -30 -233 -40 -157 -50 -185 -56 -160 -6 24 -7 21 -4 -13 2 -23 0
-40 -5 -36 -5 3 -9 -3 -9 -13 0 -10 -3 -36 -6 -58 l-5 -40 15 30 c8 17 49 118
91 225 68 173 76 200 71 243 -4 41 -3 47 13 47 19 0 71 -46 71 -62 0 -5 -12
-25 -27 -44 l-26 -35 22 -132 c27 -158 79 -438 90 -487 l8 -35 7 45 c4 25 23
131 43 235 75 416 72 377 38 407 -32 28 -32 48 3 81 41 40 52 35 50 -21 -1
-38 14 -85 82 -255 46 -114 85 -206 86 -204 2 2 -12 118 -31 258 -19 140 -35
255 -35 257 0 1 11 2 25 2 20 0 25 -5 25 -26 0 -14 -5 -34 -11 -46 -9 -17 -2
-31 52 -101 162 -210 299 -378 299 -365 0 7 -34 134 -75 282 -41 148 -72 273
-69 277 2 4 -5 28 -16 54 -11 26 -20 55 -20 66 0 22 63 67 100 71 20 2 26 -2
28 -23 3 -23 14 -30 105 -63 56 -21 153 -58 216 -82 62 -25 116 -42 119 -39 3
3 -45 56 -106 117 -61 62 -138 142 -170 177 -54 58 -63 63 -90 58 l-31 -6 6
91 c5 68 3 89 -5 84 -7 -4 -12 -27 -12 -51 0 -24 -7 -70 -15 -101 -8 -31 -12
-60 -9 -65 2 -4 42 -34 87 -66 154 -107 258 -185 254 -190 -3 -2 -51 16 -108
40 -57 24 -130 54 -161 66 -32 13 -58 25 -58 27 0 1 5 15 10 30 10 24 8 30
-16 49 -35 28 -43 99 -20 178 22 77 21 134 -3 147 -42 22 -121 6 -121 -25 0
-8 11 -34 24 -59 25 -47 26 -78 6 -139 -12 -36 -83 -134 -87 -120 -2 5 12 43
32 84 38 80 44 122 19 157 -21 30 -77 28 -82 -3 -10 -75 -25 -125 -38 -125
-23 0 -19 152 6 218 24 63 26 125 5 142 -20 16 -11 46 23 83 19 20 35 27 64
27 34 0 38 3 38 26 0 37 -16 61 -46 68 -42 11 -80 -11 -103 -57 l-20 -41 -16
37 c-20 48 -55 71 -95 62 -17 -4 -34 -13 -37 -21 -7 -19 -23 -18 -23 1 0 8 6
15 14 15 7 0 24 15 37 34 26 38 39 37 91 -12 l28 -26 22 21 c13 11 34 26 47
33 l24 12 -6 262 c-4 143 -13 311 -21 371 -19 142 -58 356 -64 351 -2 -3 -3
-230 -3 -505 1 -276 -2 -501 -6 -501 -4 1 -23 14 -42 30 l-34 29 7 213 c6 188
17 331 42 518 3 30 4 53 1 50 -16 -15 -47 -343 -54 -562 l-8 -243 -7 260 c-6
243 -35 694 -44 705 -3 2 -4 -175 -3 -394 0 -257 -3 -401 -9 -405 -11 -7 -41
-140 -43 -193 -2 -32 -5 -6 -28 277 -15 181 -55 424 -68 411 -3 -3 -16 -58
-28 -124 -23 -114 -40 -269 -54 -492 l-7 -105 -6 65 c-4 36 -9 184 -12 330 -5
228 -30 627 -40 638 -2 2 -6 -18 -8 -45z m152 -824 c0 -360 -2 -428 -13 -417
-8 7 -16 20 -20 28 -4 11 -6 10 -6 -5 -1 -14 -4 -16 -12 -8 -8 8 -6 20 6 43
13 25 15 49 11 113 -17 246 -18 349 -5 472 11 104 15 122 20 90 5 -31 6 -24 8
38 0 42 3 77 6 77 3 0 5 -194 5 -431z m-53 -276 c-2 -16 -4 -3 -4 27 0 30 2
43 4 28 2 -16 2 -40 0 -55z m-126 -30 c0 -16 2 -70 4 -121 l2 -92 -24 32 c-13
18 -26 49 -29 70 -4 21 -13 43 -20 49 -19 16 -17 32 7 63 28 35 59 35 60 -1z
m71 5 c-7 -7 -12 -8 -12 -2 0 14 12 26 19 19 2 -3 -1 -11 -7 -17z m357 -4 c25
-31 26 -38 7 -56 -7 -8 -17 -32 -20 -54 -4 -23 -17 -56 -29 -75 l-22 -34 -3
60 c-2 33 -1 88 3 123 5 51 10 62 25 62 10 0 28 -12 39 -26z m-298 -127 c11
-3 26 -22 35 -43 l16 -39 19 37 c11 21 28 42 38 48 11 5 22 24 26 40 10 45 30
31 30 -21 0 -44 0 -44 -40 -49 -39 -5 -40 -7 -54 -59 l-14 -53 -17 53 c-15 52
-17 54 -55 59 -36 5 -40 8 -43 37 -2 18 3 42 10 55 12 22 13 22 21 -19 6 -27
16 -43 28 -46z m-222 -23 c13 -35 9 -56 -8 -38 -13 13 -24 74 -14 74 5 0 15
-16 22 -36z m128 4 c-3 -7 -5 -2 -5 12 0 14 2 19 5 13 2 -7 2 -19 0 -25z m300
0 c-3 -7 -5 -2 -5 12 0 14 2 19 5 13 2 -7 2 -19 0 -25z m149 0 c-7 -35 -30
-66 -39 -51 -7 11 23 83 35 83 6 0 8 -13 4 -32z m-411 -98 c10 -22 16 -43 12
-46 -7 -7 -32 32 -42 64 -11 37 11 24 30 -18z m229 -28 c-24 -36 -28 -15 -7
34 15 34 17 36 21 16 2 -13 -4 -35 -14 -50z m-314 -4 c0 -4 -9 -8 -20 -8 -15
0 -20 7 -20 27 0 25 0 26 20 8 11 -10 20 -22 20 -27z m423 -9 c-4 -4 -14 -4
-22 1 -13 7 -13 11 -1 25 12 15 14 15 23 0 5 -10 5 -21 0 -26z m-524 -71 c1
-20 -3 -40 -9 -43 -6 -4 -10 19 -9 62 1 49 3 61 9 43 4 -14 8 -42 9 -62z m161
5 c0 -29 -45 11 -48 43 l-3 29 26 -28 c14 -15 25 -35 25 -44z m431 -36 c-13
-13 -15 24 -3 74 7 33 7 32 10 -15 2 -27 -2 -54 -7 -59z m-111 79 c0 -16 -26
-46 -41 -46 -14 0 -11 22 8 42 19 22 33 23 33 4z m-240 -47 c0 -11 -4 -17 -10
-14 -5 3 -10 13 -10 21 0 8 5 14 10 14 6 0 10 -9 10 -21z m121 -12 c-8 -8 -11
-7 -11 4 0 9 3 19 7 23 4 4 9 2 11 -4 3 -7 -1 -17 -7 -23z m-227 -90 c-5 -34
-2 -47 15 -67 27 -33 40 -15 33 46 -4 43 -4 44 23 44 l27 0 -21 -17 c-26 -22
-19 -60 13 -65 14 -2 22 -11 24 -29 3 -23 0 -25 -35 -24 -63 2 -80 12 -90 53
-11 42 -5 115 8 106 5 -2 6 -24 3 -47z m334 -18 c-5 -75 -26 -97 -85 -94 -50
3 -59 36 -14 58 28 14 30 14 36 -10 13 -54 59 9 50 70 -3 24 -1 37 6 37 8 0
10 -20 7 -61z m-58 15 c0 -13 -4 -24 -10 -24 -5 0 -10 9 -10 20 0 14 -7 20
-22 20 -17 0 -19 3 -9 9 23 15 51 1 51 -25z m110 -5 c-10 -34 -20 -50 -20 -31
0 14 18 62 24 62 3 0 1 -14 -4 -31z m-540 -40 c0 -11 -3 -19 -6 -19 -13 0 -32
34 -27 47 7 19 33 -3 33 -28z m517 -41 c-3 -7 -5 -2 -5 12 0 14 2 19 5 13 2
-7 2 -19 0 -25z m110 0 c-3 -7 -5 -2 -5 12 0 14 2 19 5 13 2 -7 2 -19 0 -25z
m-683 -24 c9 -22 -3 -32 -14 -14 -12 19 -12 30 -1 30 5 0 12 -7 15 -16z m745
-36 c0 -7 -4 -22 -8 -32 -10 -26 -25 -3 -16 24 7 22 25 28 24 8z m-828 -104
c-12 -16 -21 -21 -21 -13 0 21 33 65 38 51 2 -7 -6 -24 -17 -38z m126 5 c-5
-39 -247 -533 -256 -523 -2 2 10 52 27 111 17 59 43 154 58 211 l28 104 45 21
c37 18 47 28 52 54 13 68 55 87 46 22z m681 -17 c2 -42 24 -93 118 -283 63
-127 113 -233 111 -235 -4 -4 -182 225 -244 313 -27 39 -30 49 -22 76 5 18 9
67 9 110 0 59 3 78 13 75 7 -3 13 -26 15 -56z m102 6 c0 -6 -7 -5 -15 2 -8 7
-15 17 -15 22 0 6 7 5 15 -2 8 -7 15 -17 15 -22z m-9 -24 c12 -14 11 -16 -5
-13 -11 2 -21 10 -24 17 -5 17 13 15 29 -4z m-864 0 c-3 -3 -12 -4 -19 -1 -8
3 -5 6 6 6 11 1 17 -2 13 -5z m429 -43 c13 11 14 9 3 -14 -11 -25 -29 -37 -29
-19 0 4 -3 18 -6 32 -5 22 -4 23 6 7 9 -15 14 -16 26 -6z m178 -28 c11 -40 96
-393 96 -400 -1 -11 -65 151 -102 256 -22 64 -28 94 -23 123 7 40 20 50 29 21z
m-195 -310 l-1 -268 -19 175 c-22 221 -23 270 -3 320 9 22 18 40 20 40 2 0 3
-120 3 -267z m-42 205 c-10 -29 -10 -61 0 -160 24 -242 9 -220 -38 58 -12 71
-12 71 17 107 15 20 29 35 31 34 1 -2 -3 -19 -10 -39z"/>
<path d="M1204 2155 c0 -77 2 -107 3 -67 2 40 2 103 0 140 -2 37 -3 4 -3 -73z"/>
<path d="M1501 2774 c0 -11 3 -14 6 -6 3 7 2 16 -1 19 -3 4 -6 -2 -5 -13z"/>
<path d="M1062 2710 c0 -19 2 -27 5 -17 2 9 2 25 0 35 -3 9 -5 1 -5 -18z"/>
<path d="M1363 2700 c0 -25 2 -35 4 -22 2 12 2 32 0 45 -2 12 -4 2 -4 -23z"/>
<path d="M1053 2565 c0 -33 2 -45 4 -27 2 18 2 45 0 60 -2 15 -4 0 -4 -33z"/>
<path d="M1353 2565 c0 -33 2 -45 4 -27 2 18 2 45 0 60 -2 15 -4 0 -4 -33z"/>
<path d="M1042 2435 c0 -16 2 -22 5 -12 2 9 2 23 0 30 -3 6 -5 -1 -5 -18z"/>
<path d="M1343 2355 c0 -44 2 -61 4 -37 2 23 2 59 0 80 -2 20 -4 1 -4 -43z"/>
<path d="M1044 2305 c0 -55 1 -76 3 -47 2 29 2 74 0 100 -2 26 -3 2 -3 -53z"/>
</g>
</svg>
