<?xml version="1.0" standalone="no"?>
<!DOCTYPE svg PUBLIC "-//W3C//DTD SVG 20010904//EN"
 "http://www.w3.org/TR/2001/REC-SVG-20010904/DTD/svg10.dtd">
<svg version="1.0" xmlns="http://www.w3.org/2000/svg"
 width="244.000000pt" height="305.000000pt" viewBox="0 0 244.000000 305.000000"
 preserveAspectRatio="xMidYMid meet">
<metadata>
Created by potrace 1.16, written by Peter Selinger 2001-2019
</metadata>
<g transform="translate(0.000000,305.000000) scale(0.100000,-0.100000)"
fill="#000000" stroke="none">
<path d="M890 2905 c0 -3 -11 -56 -25 -118 -13 -62 -29 -142 -35 -179 -18
-116 -40 -427 -40 -560 0 -119 1 -127 21 -133 11 -4 36 -20 54 -36 l34 -30 20
20 c11 11 34 27 50 36 28 14 31 20 32 63 3 256 -20 560 -56 727 -26 126 -32
120 -10 -9 28 -158 44 -328 50 -531 l7 -200 -42 -28 c-23 -15 -46 -27 -50 -27
-5 0 -9 213 -9 475 0 288 4 475 10 475 12 0 12 47 -1 55 -5 3 -10 3 -10 0z"/>
<path d="M1567 2893 c-6 -10 -43 -187 -57 -275 -22 -140 -40 -379 -40 -533 l0
-160 38 -23 c20 -12 45 -28 54 -34 14 -10 21 -8 40 9 13 12 35 26 51 32 27 10
27 11 27 103 0 143 -18 411 -35 533 -20 140 -43 267 -52 274 -3 3 -3 -10 1
-29 41 -215 64 -450 67 -685 l2 -150 -38 -27 c-21 -16 -42 -28 -46 -28 -5 0
-9 214 -9 476 0 326 3 473 10 469 7 -4 8 3 4 22 -8 33 -10 37 -17 26z"/>
<path d="M1296 2597 c1 -183 -1 -219 -5 -132 -6 94 -8 106 -10 55 l-3 -65 -13
45 c-18 63 -19 17 -1 -90 26 -154 39 -308 34 -425 -3 -74 -1 -116 6 -118 7 -2
7 -11 -1 -28 -11 -23 -12 -23 -12 -2 -1 33 -19 37 -23 6 -2 -16 -3 37 -2 117
1 141 1 142 -5 40 -6 -89 -8 -67 -11 140 -2 135 -5 291 -5 347 -1 103 -9 139
-20 87 -4 -16 -11 -39 -16 -52 -5 -13 -9 -32 -9 -44 0 -12 -3 -18 -6 -15 -4 4
-10 89 -14 189 l-7 183 -3 -290 c-3 -206 -6 -260 -10 -185 -4 69 -6 8 -8 -183
-1 -278 -11 -375 -27 -276 -15 97 -37 194 -45 203 -10 10 -15 -8 -30 -104 -15
-100 -14 -107 25 -132 40 -27 52 -63 35 -113 -11 -35 -41 -48 -55 -25 -12 19
-25 10 -25 -18 0 -57 65 -80 90 -31 15 28 29 23 28 -8 0 -16 3 -43 7 -60 l7
-33 -41 2 c-49 2 -88 -25 -61 -42 8 -5 23 -10 33 -10 13 0 17 -9 17 -40 0 -22
-3 -40 -6 -40 -3 0 -29 24 -56 53 -52 53 -78 99 -78 137 0 11 -7 23 -15 26
-23 9 -18 52 11 81 22 22 32 25 70 20 44 -5 44 -5 44 28 0 88 -146 93 -165 5
-9 -40 -20 -38 -41 6 -20 43 -68 67 -113 58 -35 -7 -64 -45 -59 -77 3 -19 8
-21 46 -19 37 3 47 -1 77 -31 40 -40 43 -57 15 -82 -16 -15 -19 -25 -13 -59 7
-47 54 -139 89 -177 30 -32 30 -40 -2 -70 -35 -33 -56 -76 -49 -100 8 -25 62
-59 93 -59 29 0 37 21 22 64 -13 41 -6 76 17 76 9 0 33 -5 55 -12 37 -11 39
-14 34 -42 -4 -22 -3 -26 3 -16 15 23 25 -14 15 -53 -9 -28 -13 -31 -52 -33
-23 -1 -58 -9 -77 -20 -41 -22 -62 -13 -110 44 -25 30 -30 45 -31 91 -1 66
-13 131 -27 149 -14 18 -62 15 -81 -7 -19 -21 -23 -62 -11 -100 4 -13 38 -76
76 -139 39 -65 70 -129 71 -146 1 -17 3 -56 3 -86 1 -30 5 -68 9 -85 7 -32 22
-12 -229 -303 -38 -45 -71 -79 -73 -77 -2 2 12 31 32 65 20 33 36 63 36 64 0
2 25 47 55 100 121 214 135 244 135 283 0 68 -28 140 -78 201 -90 110 -103
170 -56 250 l27 45 -23 19 c-17 14 -36 18 -72 16 -41 -3 -52 -7 -66 -30 -15
-26 -15 -31 6 -96 37 -115 29 -180 -26 -211 -14 -8 -15 -14 -5 -40 6 -17 8
-33 3 -36 -19 -12 -345 -125 -353 -122 -5 1 62 47 150 101 231 144 233 146
233 155 0 5 -7 27 -15 50 -8 23 -18 71 -21 106 -10 100 -28 69 -21 -36 l7 -88
-34 6 c-30 5 -40 -1 -102 -59 -38 -35 -89 -81 -114 -102 -119 -104 -200 -186
-183 -186 10 1 122 36 248 78 206 69 230 79 233 100 5 33 22 36 73 14 104 -46
160 -161 78 -162 -9 0 -21 -6 -27 -13 -17 -20 -187 -556 -179 -563 5 -5 274
285 360 387 43 51 46 59 37 83 -23 62 -18 66 76 66 70 0 94 -4 125 -22 31 -17
39 -28 39 -49 0 -30 -20 -51 -20 -22 -1 10 -7 1 -14 -20 -11 -29 -12 -63 -4
-157 6 -82 6 -126 -1 -139 -6 -11 -11 -37 -10 -58 1 -30 5 -21 18 42 19 86 23
84 41 -15 16 -90 74 -360 76 -357 1 1 23 101 49 222 56 261 67 302 60 230 -3
-31 -1 -44 4 -35 11 18 18 230 9 245 -6 10 -12 68 -9 96 2 27 52 40 142 37 92
-3 87 2 73 -73 -5 -28 10 -47 191 -248 109 -120 199 -216 202 -214 2 3 -36
130 -84 283 l-88 278 -37 14 c-45 18 -49 42 -15 93 24 37 128 95 153 85 8 -3
14 -16 14 -28 0 -21 19 -29 241 -101 133 -43 243 -76 246 -74 2 3 -82 82 -186
176 -183 165 -192 172 -224 166 l-33 -7 9 82 c6 54 6 85 -1 92 -11 11 -16 -17
-27 -135 l-7 -68 49 6 48 6 140 -127 c77 -70 142 -132 144 -137 4 -11 -6 -6
-235 125 -100 57 -153 92 -165 113 -23 36 -24 98 -4 155 20 57 19 103 -3 123
-25 23 -94 22 -123 -2 l-23 -19 27 -41 c49 -73 34 -146 -50 -247 -56 -67 -66
-90 -65 -148 1 -80 13 -101 67 -116 26 -7 48 -18 50 -24 2 -6 34 -105 70 -219
37 -115 65 -210 62 -213 -2 -3 -49 73 -104 168 -55 95 -119 206 -143 246 -70
121 -67 153 34 312 23 36 47 78 54 93 18 42 15 101 -6 120 -19 18 -59 22 -78
9 -14 -10 -35 -133 -28 -168 4 -23 -2 -39 -30 -75 -41 -54 -73 -66 -116 -44
-16 8 -40 15 -54 15 -22 0 -26 7 -38 63 -8 34 -11 66 -6 72 5 5 27 15 50 22
60 17 67 0 43 -99 -6 -23 -4 -28 18 -33 30 -8 82 16 97 45 12 23 -6 76 -34 99
-39 32 -39 49 -2 94 68 83 98 196 61 227 -23 19 -18 39 20 77 30 30 40 34 77
31 37 -2 43 0 46 18 4 28 -32 70 -65 77 -43 8 -89 -19 -110 -64 l-19 -40 -18
42 c-34 78 -125 87 -159 17 -22 -46 -13 -58 38 -51 40 5 47 2 74 -25 36 -36
38 -46 11 -69 -11 -10 -20 -29 -20 -44 0 -31 -50 -108 -93 -145 l-32 -27 -6
24 c-12 41 -10 46 21 53 40 7 38 24 -5 42 -26 11 -41 12 -55 4 -17 -9 -20 -8
-20 9 0 11 5 23 11 27 6 4 8 20 5 38 -8 44 2 51 30 21 13 -14 30 -25 38 -25
20 0 46 39 46 67 0 26 -3 27 -29 11 -28 -17 -49 -3 -57 37 -8 42 10 92 36 100
38 12 42 29 30 127 -10 86 -21 120 -35 106 -3 -3 -14 -56 -25 -118 -35 -204
-37 -187 -44 360 -4 250 -10 467 -14 482 -4 15 -7 -86 -6 -225z m-8 -882 c4
-60 -3 -91 -23 -99 -12 -4 -15 4 -14 42 1 43 2 45 10 17 6 -21 7 -10 3 34 -4
49 -2 62 8 59 8 -3 14 -24 16 -53z m-364 -135 c19 -48 83 -120 143 -162 24
-16 43 -33 43 -38 0 -33 -101 22 -150 81 -35 43 -70 112 -70 139 0 33 17 23
34 -20z m656 20 c0 -71 -116 -208 -198 -234 -34 -11 -29 26 6 42 44 19 131
111 155 165 23 50 37 60 37 27z m-365 -90 c4 -16 1 -13 -9 9 -9 18 -16 43 -15
55 1 21 5 10 24 -64z m62 43 c-3 -10 -5 -4 -5 12 0 17 2 24 5 18 2 -7 2 -21 0
-30z m-40 -70 c-3 -10 -5 -2 -5 17 0 19 2 27 5 18 2 -10 2 -26 0 -35z m102
-26 c1 -10 -3 -16 -8 -13 -12 8 -20 -28 -22 -94 l-1 -55 -9 40 c-8 41 -6 68
13 140 9 34 12 37 19 20 4 -11 8 -28 8 -38z m-189 -7 c-19 -12 -19 -10 -13 25
6 29 6 29 16 6 8 -17 7 -25 -3 -31z m17 -117 c-2 -21 -4 -4 -4 37 0 41 2 58 4
38 2 -21 2 -55 0 -75z m-30 25 c-3 -8 -6 -5 -6 6 -1 11 2 17 5 13 3 -3 4 -12
1 -19z m242 -202 c1 -67 -5 -55 -12 24 -4 40 -2 57 3 45 5 -11 9 -42 9 -69z
m-78 21 c-13 -13 -15 1 -4 30 7 17 8 17 11 -1 2 -10 -1 -23 -7 -29z m-123 2
c-3 -8 -7 -3 -11 10 -4 17 -3 21 5 13 5 -5 8 -16 6 -23z m187 -100 c-4 -5 -13
-9 -22 -9 -13 0 -13 3 -3 15 13 15 35 11 25 -6z m-235 1 c0 -5 -4 -10 -10 -10
-5 0 -10 5 -10 10 0 6 5 10 10 10 6 0 10 -4 10 -10z m107 -162 c-3 -8 -6 -5
-6 6 -1 11 2 17 5 13 3 -3 4 -12 1 -19z m68 -136 c14 -66 14 -66 8 -12 -7 71
12 55 21 -17 4 -34 3 -53 -4 -53 -5 0 -10 -10 -10 -22 0 -25 -72 -379 -76
-375 -1 1 2 106 7 232 5 127 7 259 4 295 l-7 65 22 -23 c12 -13 27 -50 35 -90z"/>
<path d="M1281 1924 c0 -11 3 -14 6 -6 3 7 2 16 -1 19 -3 4 -6 -2 -5 -13z"/>
<path d="M1357 528 c-3 -13 -2 -41 3 -63 7 -38 8 -37 9 23 1 64 -3 78 -12 40z"/>
</g>
</svg>
