<?xml version="1.0" standalone="no"?>
<!DOCTYPE svg PUBLIC "-//W3C//DTD SVG 20010904//EN"
 "http://www.w3.org/TR/2001/REC-SVG-20010904/DTD/svg10.dtd">
<svg version="1.0" xmlns="http://www.w3.org/2000/svg"
 width="244.000000pt" height="305.000000pt" viewBox="0 0 244.000000 305.000000"
 preserveAspectRatio="xMidYMid meet">
<metadata>
Created by potrace 1.16, written by Peter Selinger 2001-2019
</metadata>
<g transform="translate(0.000000,305.000000) scale(0.100000,-0.100000)"
fill="#000000" stroke="none">
<path d="M890 2893 c0 -12 -3 -30 -6 -40 -5 -15 -4 -15 5 -3 8 11 11 -120 11
-467 0 -266 -2 -483 -5 -483 -3 0 -24 12 -47 27 l-41 28 6 220 c7 233 14 311
48 518 24 146 21 181 -4 49 -41 -213 -67 -498 -67 -743 0 -75 1 -77 29 -89 16
-6 39 -22 51 -35 l22 -23 53 36 54 37 1 151 c0 250 -22 478 -71 719 -20 96
-39 144 -39 98z"/>
<path d="M1560 2888 c0 -7 -3 -24 -5 -38 -5 -22 -4 -22 4 -5 6 13 10 -150 10
-462 1 -266 -1 -483 -4 -483 -3 0 -23 12 -45 26 l-40 27 0 131 c0 175 15 366
45 560 14 88 23 161 21 163 -5 5 -10 -18 -35 -168 -21 -120 -35 -296 -47 -555
l-6 -152 28 -18 c16 -10 42 -29 58 -42 l29 -23 28 27 c15 14 38 32 50 38 21
11 21 16 20 163 -2 189 -16 387 -36 518 -22 148 -56 305 -66 305 -5 0 -9 -6
-9 -12z"/>
<path d="M1150 2810 c0 -30 -5 -241 -11 -469 -9 -310 -9 -422 -1 -445 10 -26
9 -46 -2 -35 -2 2 -12 49 -21 104 -10 55 -22 111 -27 125 -14 38 -25 10 -39
-100 l-11 -94 36 -29 c33 -27 36 -33 36 -83 0 -60 -16 -77 -52 -55 -28 17 -38
6 -27 -31 15 -54 47 -62 84 -22 l25 27 0 -61 c0 -53 -2 -60 -18 -55 -10 2 -30
-6 -46 -18 -24 -19 -26 -23 -12 -31 16 -9 23 -62 7 -56 -25 9 -92 106 -98 141
-3 21 -12 41 -19 44 -23 8 -16 52 12 80 22 22 32 25 69 21 53 -6 64 10 37 55
-37 64 -128 53 -153 -18 -7 -19 -17 -35 -21 -35 -4 0 -14 16 -23 35 -36 89
-186 73 -173 -18 3 -19 8 -21 46 -19 37 3 47 -1 77 -31 37 -37 44 -64 20 -73
-21 -9 -19 -82 4 -136 10 -24 35 -64 55 -91 20 -26 36 -51 36 -55 0 -5 -13
-21 -29 -36 -16 -16 -35 -42 -42 -58 -10 -25 -9 -33 8 -56 22 -29 72 -48 99
-38 16 6 16 18 -1 87 -3 13 0 32 7 42 11 15 18 16 46 6 17 -6 32 -13 32 -15 0
-3 -7 -34 -16 -70 -16 -62 -19 -67 -60 -87 -38 -18 -46 -19 -69 -7 -14 7 -37
29 -51 47 -22 29 -26 46 -29 116 -5 113 -15 137 -58 137 -86 0 -90 -88 -10
-215 124 -197 124 -193 -2 -405 -34 -58 -92 -158 -130 -223 -37 -65 -69 -116
-71 -114 -2 2 23 86 56 187 32 101 62 196 65 211 8 33 18 43 68 58 46 16 59
38 60 110 0 65 -8 83 -74 167 -27 34 -53 73 -59 88 -17 45 -11 98 15 141 14
22 25 45 25 51 0 28 -101 45 -141 24 -25 -14 -25 -69 0 -143 20 -56 18 -97 -7
-144 -11 -20 -189 -130 -337 -208 l-70 -37 72 70 c40 38 106 100 147 137 76
67 76 67 122 60 l46 -7 -6 49 c-3 26 -8 77 -12 112 -10 96 -26 54 -18 -47 l6
-83 -33 6 c-33 6 -41 -1 -222 -165 -103 -94 -187 -175 -187 -180 0 -5 30 1 68
14 37 13 147 49 245 81 177 58 177 58 177 87 0 28 2 30 28 23 86 -20 146 -71
158 -134 6 -28 4 -32 -25 -37 -17 -4 -35 -11 -40 -18 -5 -6 -30 -78 -56 -161
-25 -82 -64 -206 -86 -274 -22 -68 -39 -127 -37 -132 3 -8 384 407 401 436 4
7 3 25 -3 40 -23 61 -19 65 78 65 48 0 93 -4 101 -9 13 -8 13 -36 2 -202 -7
-105 -8 -196 -4 -200 5 -5 9 26 10 67 1 42 7 82 13 88 8 8 10 -1 6 -34 -4 -28
-3 -36 2 -20 9 29 11 22 72 -284 34 -171 50 -234 50 -201 0 11 101 509 104
512 1 1 13 -50 25 -115 13 -64 25 -119 27 -121 2 -2 4 25 4 60 0 48 -3 60 -11
49 -7 -11 -9 7 -6 65 3 44 2 62 -2 40 -6 -39 -7 -39 -14 24 -4 35 -7 76 -6 90
0 23 1 24 9 6 7 -16 9 -11 9 20 0 24 -3 35 -7 27 -12 -18 -32 29 -32 73 0 42
17 55 23 18 4 -27 4 -27 6 3 1 40 12 44 118 44 l86 0 -7 -27 c-3 -16 -8 -37
-11 -48 -6 -21 68 -112 266 -326 49 -53 98 -107 109 -120 36 -44 36 -42 -102
393 -49 154 -50 157 -84 168 -42 14 -47 21 -33 57 17 45 68 91 122 109 52 17
66 12 67 -26 0 -9 19 -22 48 -32 141 -49 425 -138 428 -135 3 3 -182 177 -351
330 -15 13 -29 17 -52 12 l-33 -6 7 91 c4 65 3 90 -6 90 -6 0 -11 -16 -11 -38
0 -21 -7 -64 -15 -95 -25 -98 -52 -70 233 -247 73 -45 131 -85 128 -88 -3 -2
-85 24 -181 59 l-176 63 6 33 c5 28 2 37 -21 56 -38 33 -43 109 -15 191 26 74
26 91 1 116 -34 34 -140 19 -140 -20 0 -9 11 -31 25 -50 45 -61 30 -129 -51
-228 -54 -65 -71 -101 -85 -178 l-10 -55 59 -112 c33 -62 92 -168 131 -237 76
-133 87 -164 43 -115 -77 87 -147 168 -206 241 l-66 81 9 114 c9 125 11 131
98 271 60 97 71 134 53 178 -9 22 -21 31 -48 36 -43 8 -62 -11 -63 -65 0 -20
-4 -45 -8 -56 -5 -11 -4 -30 0 -43 11 -30 -8 -69 -56 -111 -43 -38 -58 -39
-101 -6 -18 14 -34 20 -36 15 -2 -7 -10 -5 -22 3 -14 10 -20 30 -24 69 -4 55
-4 55 28 67 70 24 87 8 69 -65 -13 -52 -10 -57 31 -57 36 0 80 37 80 68 0 12
-16 43 -35 68 -19 25 -35 50 -35 54 0 5 13 24 29 43 65 79 104 212 67 226 -28
11 -18 50 20 84 29 25 44 31 72 28 39 -3 48 8 38 48 -4 15 -20 31 -41 41 -33
16 -37 16 -70 0 -21 -10 -42 -31 -52 -52 -17 -36 -33 -46 -33 -21 0 23 -47 73
-75 80 -33 8 -83 -18 -95 -49 -15 -40 -4 -54 40 -48 68 9 124 -52 88 -95 -8
-9 -20 -35 -26 -58 -12 -41 -61 -112 -88 -127 -10 -6 -14 -2 -14 16 0 14 7 27
15 31 28 10 -5 46 -42 46 l-33 0 0 60 0 59 25 -24 c31 -32 59 -32 73 0 18 40
16 69 -5 60 -58 -24 -72 -9 -65 67 3 41 8 50 38 67 32 19 33 21 28 73 -8 79
-24 157 -34 163 -4 3 -15 -37 -24 -88 -26 -146 -27 -150 -37 -140 -6 6 -6 20
1 37 12 33 13 57 1 38 -13 -21 -21 146 -23 497 -1 280 -3 304 -8 171 -4 -85
-8 -173 -10 -195 l-2 -40 -9 45 c-14 72 -42 171 -47 166 -12 -13 -56 -199 -62
-266 -4 -46 -7 41 -7 223 0 164 -3 301 -7 305 -4 3 -7 -18 -6 -48z m70 -620
c-3 -184 -8 -301 -9 -260 -5 126 -20 148 -18 27 1 -59 0 -103 -1 -97 -2 6 -8
8 -13 5 -11 -7 -4 332 10 445 10 84 33 223 36 218 0 -2 -2 -154 -5 -338z m-19
-458 c-6 -2 -11 -20 -11 -39 0 -28 3 -34 16 -29 12 5 14 1 8 -17 -10 -32 -14
-34 -30 -13 -22 31 -16 145 7 130 5 -3 10 14 11 38 2 38 2 37 5 -12 3 -33 0
-56 -6 -58z m-271 -163 c14 -30 48 -73 82 -104 51 -47 73 -85 51 -85 -47 0
-172 162 -173 223 0 31 16 18 40 -34z m643 19 c-6 -33 -16 -52 -60 -120 -23
-34 -103 -97 -103 -81 0 5 -5 1 -10 -7 -8 -13 -10 -12 -10 4 0 10 29 45 64 77
42 39 71 76 85 109 24 57 44 67 34 18z m-373 -8 c0 -11 -4 -20 -10 -20 -5 0
-10 9 -10 20 0 11 5 20 10 20 6 0 10 -9 10 -20z m90 -7 c0 -20 -3 -24 -11 -16
-7 7 -9 19 -6 27 10 24 17 19 17 -11z m-134 -129 c14 -68 11 -110 -8 -98 -5 3
-7 17 -4 30 8 31 -3 74 -18 74 -8 0 -12 13 -10 38 3 49 2 48 15 35 6 -6 17
-41 25 -79z m81 39 c-3 -10 -5 -2 -5 17 0 19 2 27 5 18 2 -10 2 -26 0 -35z
m123 7 c0 -28 -4 -40 -14 -40 -19 0 -29 -33 -21 -70 7 -33 -9 -43 -18 -11 -10
41 26 161 50 161 1 0 3 -18 3 -40z m7 -122 c-3 -8 -6 -5 -6 6 -1 11 2 17 5 13
3 -3 4 -12 1 -19z m-292 -159 c-8 -19 -12 -25 -9 -14 4 11 9 43 13 70 5 46 6
47 9 14 2 -20 -4 -52 -13 -70z m42 69 c-3 -8 -6 -5 -6 6 -1 11 2 17 5 13 3 -3
4 -12 1 -19z m240 -10 c-3 -7 -5 -2 -5 12 0 14 2 19 5 13 2 -7 2 -19 0 -25z
m-230 -60 c-3 -8 -6 -5 -6 6 -1 11 2 17 5 13 3 -3 4 -12 1 -19z m49 -8 c12 0
12 -4 4 -20 -14 -27 -30 -16 -29 18 0 15 3 21 6 15 2 -7 11 -13 19 -13z m171
-12 c-3 -7 -5 -2 -5 12 0 14 2 19 5 13 2 -7 2 -19 0 -25z m-32 -16 c-6 -16 -8
-15 -21 3 -13 17 -13 20 3 26 21 7 28 -4 18 -29z m-201 -74 c5 -22 3 -26 -9
-22 -9 4 -15 19 -15 37 0 35 14 26 24 -15z m261 3 c-4 -17 -11 -31 -16 -31
-12 0 -12 17 1 25 6 3 10 16 10 27 0 12 3 19 6 15 3 -3 3 -19 -1 -36z m-138
-183 c-3 -8 -6 -5 -6 6 -1 11 2 17 5 13 3 -3 4 -12 1 -19z m-89 -59 c-5 -39
-24 -33 -20 7 3 23 8 32 14 26 5 -5 8 -20 6 -33z m64 -96 c-2 -65 0 -188 5
-275 4 -86 5 -154 1 -151 -5 2 -8 11 -8 19 0 9 -15 88 -34 177 -33 157 -54
300 -36 247 l8 -25 1 27 c1 21 52 98 65 98 1 0 0 -53 -2 -117z"/>
<path d="M1322 2670 c0 -19 2 -27 5 -17 2 9 2 25 0 35 -3 9 -5 1 -5 -18z"/>
<path d="M1173 2460 c0 -25 2 -35 4 -22 2 12 2 32 0 45 -2 12 -4 2 -4 -23z"/>
<path d="M1334 2260 c0 -69 1 -97 3 -62 2 34 2 90 0 125 -2 34 -3 6 -3 -63z"/>
<path d="M1407 1294 c-11 -11 -8 -36 3 -29 6 3 10 1 10 -6 0 -7 2 -10 5 -7 3
3 2 15 -3 27 -4 12 -11 19 -15 15z"/>
<path d="M1431 1214 c0 -11 3 -14 6 -6 3 7 2 16 -1 19 -3 4 -6 -2 -5 -13z"/>
<path d="M1101 584 c0 -11 3 -14 6 -6 3 7 2 16 -1 19 -3 4 -6 -2 -5 -13z"/>
<path d="M1077 503 c-4 -3 -7 -22 -6 -42 l1 -36 9 39 c9 39 8 52 -4 39z"/>
</g>
</svg>
