<?xml version="1.0" standalone="no"?>
<!DOCTYPE svg PUBLIC "-//W3C//DTD SVG 20010904//EN"
 "http://www.w3.org/TR/2001/REC-SVG-20010904/DTD/svg10.dtd">
<svg version="1.0" xmlns="http://www.w3.org/2000/svg"
 width="244.000000pt" height="305.000000pt" viewBox="0 0 244.000000 305.000000"
 preserveAspectRatio="xMidYMid meet">
<metadata>
Created by potrace 1.16, written by Peter Selinger 2001-2019
</metadata>
<g transform="translate(0.000000,305.000000) scale(0.100000,-0.100000)"
fill="#000000" stroke="none">
<path d="M900 2895 c0 -11 -3 -31 -5 -45 -5 -22 -4 -22 4 -5 6 13 10 -150 10
-463 1 -266 -2 -482 -6 -480 -5 2 -26 14 -47 28 l-39 24 7 200 c6 203 24 394
51 565 17 103 14 136 -3 44 -41 -215 -58 -385 -61 -598 -2 -77 -4 -159 -6
-183 -1 -24 3 -48 9 -52 6 -5 27 -23 47 -40 35 -28 69 -40 69 -22 0 4 18 19
40 32 l39 25 1 100 c0 132 -17 430 -30 530 -25 189 -80 420 -80 340z"/>
<path d="M1550 2890 c0 -8 -3 -26 -5 -40 -5 -22 -4 -22 4 -5 6 13 10 -150 10
-462 1 -266 -2 -483 -6 -483 -4 0 -25 12 -46 27 l-40 28 6 205 c7 204 25 399
53 559 15 88 17 107 10 100 -6 -6 -44 -228 -56 -329 -6 -47 -13 -194 -17 -326
l-6 -242 24 -12 c13 -7 35 -23 49 -36 l26 -24 51 38 52 37 0 90 c2 244 -25
538 -70 765 -19 94 -39 150 -39 110z"/>
<path d="M1111 2874 c0 -11 3 -14 6 -6 3 7 2 16 -1 19 -3 4 -6 -2 -5 -13z"/>
<path d="M1341 2693 c-7 -104 -16 -307 -20 -453 -4 -146 -9 -217 -9 -158 -3
185 -61 546 -82 507 -17 -31 -50 -206 -60 -311 -5 -62 -12 -140 -15 -173 -3
-33 -7 -81 -9 -106 -1 -25 -7 -52 -12 -60 -18 -28 -22 49 -24 476 -3 475 -12
463 -29 -40 -5 -154 -15 -326 -22 -382 -12 -98 -12 -104 7 -117 17 -13 14 -14
-38 -13 -64 1 -82 -9 -100 -59 -15 -42 -22 -43 -38 -5 -18 46 -47 66 -92 66
-45 0 -78 -30 -78 -71 0 -22 4 -24 43 -24 36 0 49 -6 75 -33 35 -36 40 -58 17
-77 -18 -15 -19 -64 -3 -111 9 -28 42 -83 92 -154 7 -9 -2 -26 -27 -57 -40
-49 -49 -96 -22 -118 18 -15 20 -40 2 -40 -28 0 -48 59 -53 152 -5 99 -13 118
-53 118 -36 0 -50 -11 -60 -48 -13 -45 0 -83 69 -197 33 -55 60 -111 60 -125
0 -14 -9 -45 -20 -69 -25 -53 -25 -54 0 -41 11 6 20 8 20 4 0 -5 -136 -251
-219 -394 -14 -25 -32 -58 -40 -73 -23 -46 -22 -25 3 59 118 394 107 367 160
382 49 13 66 42 66 113 0 53 -12 79 -75 163 -72 95 -85 153 -49 221 13 24 24
51 24 59 0 21 -32 36 -78 36 -69 0 -89 -50 -57 -140 20 -57 19 -119 -3 -155
-13 -21 -76 -64 -201 -139 -100 -59 -184 -106 -187 -103 -3 3 59 64 137 137
l143 132 44 -7 44 -6 -6 68 c-4 37 -9 88 -13 113 -9 72 -19 21 -13 -70 l5 -80
-31 6 c-28 5 -39 -2 -115 -72 -161 -149 -291 -275 -287 -279 2 -2 82 23 178
56 96 32 203 68 238 80 53 18 62 24 62 44 0 32 10 36 53 23 49 -15 106 -64
124 -105 16 -40 12 -49 -32 -67 -30 -13 -36 -22 -55 -88 -12 -40 -37 -122 -55
-183 -19 -60 -48 -155 -64 -209 -17 -55 -29 -101 -27 -103 2 -2 68 69 146 159
78 90 166 191 197 226 52 59 54 64 44 94 -22 62 -17 68 49 68 72 0 68 25 35
-245 -14 -110 -24 -213 -24 -230 0 -30 0 -30 10 -6 5 14 7 31 4 38 -2 8 -1 12
4 9 4 -3 28 55 52 129 24 74 46 135 49 135 3 0 32 -132 65 -293 32 -160 61
-303 64 -316 4 -15 30 94 70 298 35 177 66 319 69 316 3 -3 33 -89 68 -192 48
-143 63 -179 63 -150 1 20 -3 37 -8 37 -5 0 -7 19 -6 43 1 23 0 31 -3 17 -3
-16 -21 50 -48 175 -50 232 -51 235 -25 235 16 0 21 -9 26 -47 10 -70 16 -77
10 -12 l-5 56 33 6 c18 3 45 3 61 0 29 -6 30 -11 11 -79 -5 -16 23 -55 136
-185 178 -206 249 -284 249 -276 0 4 -30 105 -66 225 -36 119 -73 242 -82 272
-19 68 -25 76 -62 84 -73 14 -3 130 99 165 37 12 47 8 53 -24 4 -22 10 -24
297 -120 91 -30 166 -53 168 -52 3 3 -110 114 -270 266 -82 77 -91 82 -121 77
l-32 -6 4 92 c2 67 0 89 -7 78 -6 -8 -11 -33 -11 -56 0 -22 -7 -64 -15 -92 -9
-29 -13 -57 -10 -62 3 -5 89 -62 190 -126 102 -65 183 -119 181 -121 -4 -5
-48 10 -161 52 -38 15 -95 35 -125 46 -65 23 -79 34 -62 51 14 14 16 48 4 48
-5 0 -18 9 -30 20 -18 17 -22 32 -22 79 0 32 7 78 15 101 32 89 11 140 -56
140 -35 0 -79 -23 -79 -41 0 -6 11 -27 25 -47 44 -65 30 -131 -48 -231 -28
-35 -58 -86 -68 -115 -16 -48 -17 -50 -24 -24 -6 23 4 46 55 133 73 123 86
179 51 214 -23 23 -63 28 -78 9 -13 -16 -27 -101 -25 -152 2 -41 -24 -96 -45
-96 -17 0 -16 11 3 38 20 30 11 68 -26 112 -17 19 -30 40 -30 46 0 6 17 33 38
60 57 74 87 179 58 203 -26 22 -19 60 16 93 27 25 38 29 69 25 42 -6 54 8 40
46 -28 72 -128 64 -162 -13 -17 -36 -27 -38 -35 -6 -10 41 -50 70 -92 69 l-38
-2 -1 57 c-1 31 -5 131 -10 222 -8 144 -10 153 -11 69 -1 -52 -6 -99 -11 -105
-5 -5 -11 -18 -14 -29 -3 -11 -5 164 -5 388 0 225 -2 410 -5 413 -2 2 -10 -80
-16 -183z m-131 -506 c-4 -153 -10 -280 -13 -283 -11 -11 -18 315 -8 391 17
135 24 176 26 173 2 -2 -1 -128 -5 -281z m130 -304 c0 -7 -4 -13 -10 -13 -5 0
-10 12 -10 28 0 21 2 24 10 12 5 -8 10 -21 10 -27z m-194 -10 c-11 -11 -19 6
-11 24 8 17 8 17 12 0 3 -10 2 -21 -1 -24z m44 -90 c0 -35 -3 -63 -8 -63 -4 0
-8 34 -8 74 0 41 4 70 8 63 4 -7 8 -40 8 -74z m-75 27 c7 -42 -8 -21 -19 25
-5 21 -4 27 3 20 6 -6 13 -26 16 -45z m258 18 c-6 -37 -23 -62 -23 -36 0 20
17 68 25 68 2 0 2 -15 -2 -32z m-291 -81 c4 -7 8 -15 8 -19 0 -11 -18 -10 -25
2 -10 16 -35 12 -35 -5 0 -26 30 -75 45 -75 20 0 20 -63 0 -80 -19 -16 -19
-30 0 -30 14 0 40 -69 29 -79 -3 -3 -19 10 -35 29 -16 19 -38 44 -48 55 -26
28 -41 60 -41 88 0 13 -9 32 -19 41 -41 37 16 102 79 91 19 -4 38 -12 42 -18z
m411 -5 c30 -31 34 -54 13 -71 -8 -7 -17 -29 -21 -50 -3 -21 -17 -51 -30 -67
-13 -16 -36 -44 -51 -62 -14 -18 -28 -31 -31 -28 -10 10 10 76 23 76 17 0 18
12 3 27 -19 19 -19 67 2 83 10 8 22 30 25 49 7 33 6 34 -19 27 -27 -6 -33 0
-19 20 7 12 32 21 63 23 8 0 27 -12 42 -27z m-343 -82 c0 -32 5 -42 26 -53 23
-12 24 -15 9 -27 -13 -11 -18 -11 -29 1 -17 18 -31 119 -16 119 5 0 10 -18 10
-40z m182 -27 c-4 -56 -24 -75 -51 -49 -13 13 -11 16 12 25 23 9 27 16 27 53
0 23 4 38 8 33 5 -6 7 -33 4 -62z m-132 27 c0 -21 -5 -30 -16 -30 -9 0 -13 5
-10 13 3 6 9 20 12 30 9 25 14 21 14 -13z m-247 -113 c42 -82 49 -111 17 -82
-38 35 -87 155 -62 155 4 0 24 -33 45 -73z m164 51 c-3 -8 -6 -5 -6 6 -1 11 2
17 5 13 3 -3 4 -12 1 -19z m240 0 c-3 -8 -6 -5 -6 6 -1 11 2 17 5 13 3 -3 4
-12 1 -19z m208 -10 c-8 -35 -39 -95 -61 -118 -26 -27 -16 23 18 89 34 66 54
80 43 29z m-324 -89 c-6 -30 -9 -35 -10 -17 -1 14 -4 34 -8 44 -4 12 -3 15 5
10 7 -4 12 -2 12 5 0 7 2 10 5 8 2 -3 1 -25 -4 -50z m-67 -86 c4 -13 4 -23 -1
-23 -10 0 -53 105 -52 128 1 16 39 -58 53 -105z m156 37 c-12 -33 -26 -60 -31
-60 -7 0 1 29 30 104 6 16 14 26 18 23 3 -4 -4 -33 -17 -67z m-284 -47 c-11
-11 -19 6 -11 24 8 17 8 17 12 0 3 -10 2 -21 -1 -24z m394 15 c0 -18 -2 -20
-9 -8 -6 8 -7 18 -5 22 9 14 14 9 14 -14z m-62 -44 c-24 -24 -44 -7 -22 17 12
13 21 16 28 9 7 -7 5 -15 -6 -26z m-259 12 c8 -10 9 -16 1 -21 -13 -8 -30 3
-30 21 0 18 14 18 29 0z m-122 -123 c-2 -16 -4 -5 -4 22 0 28 2 40 4 28 2 -13
2 -35 0 -50z m423 -28 c-17 -50 -20 -53 -15 -20 10 64 28 123 32 100 2 -11 -6
-47 -17 -80z m69 43 c1 -10 -3 -18 -9 -18 -5 0 -10 17 -9 38 0 30 2 33 9 17 5
-11 9 -28 9 -37z m-429 -15 c7 -32 14 -64 16 -73 3 -8 -2 -1 -11 17 -19 42
-35 113 -25 113 5 0 14 -26 20 -57z m113 42 c0 -6 -7 -11 -16 -13 -12 -3 -15
1 -11 13 7 17 25 17 27 0z m147 -6 c0 -5 -4 -9 -10 -9 -5 0 -10 7 -10 16 0 8
5 12 10 9 6 -3 10 -10 10 -16z m-203 -90 c8 -8 17 -7 32 3 18 11 23 11 31 -2
5 -8 10 -18 10 -22 0 -10 -61 -38 -71 -32 -13 7 -29 75 -28 114 1 34 2 34 8
-8 4 -23 12 -47 18 -53z m258 5 c-8 -57 -23 -68 -64 -48 -34 17 -41 41 -15 51
11 4 22 -1 30 -12 20 -27 35 -8 42 52 4 30 8 39 10 24 2 -13 1 -43 -3 -67z
m182 -30 c3 -8 1 -20 -6 -27 -14 -14 -47 15 -37 32 10 16 36 13 43 -5z m-577
-19 c0 -18 -5 -25 -20 -25 -23 0 -24 4 -10 31 15 27 30 24 30 -6z m630 -104
c0 -5 3 -17 7 -27 4 -11 3 -15 -4 -11 -14 9 -24 47 -12 47 5 0 9 -4 9 -9z m68
-196 c32 -61 89 -166 126 -234 37 -68 65 -125 63 -127 -2 -2 -70 75 -150 171
-142 170 -145 176 -136 207 5 18 9 53 9 78 0 39 2 43 15 29 8 -8 41 -64 73
-124z m-435 60 c-3 -9 -8 -14 -10 -11 -3 3 -2 9 2 15 9 16 15 13 8 -4z m-140
-27 c4 -23 -9 -83 -45 -200 -28 -93 -53 -166 -55 -164 -3 2 42 233 72 374 8
32 22 27 28 -10z m251 -32 c-7 -45 -8 -46 -25 -30 -11 10 -19 24 -19 32 0 14
40 56 47 49 2 -2 0 -25 -3 -51z m-212 27 c22 -20 23 -41 1 -65 -24 -27 -28
-23 -28 32 0 28 2 50 4 50 3 0 13 -7 23 -17z m57 -67 c-10 -29 -11 -67 -1
-198 18 -239 14 -251 -23 -78 -54 245 -53 231 -10 279 21 23 40 39 42 37 3 -2
-1 -21 -8 -40z"/>
<path d="M1123 2745 c0 -22 2 -30 4 -17 2 12 2 30 0 40 -3 9 -5 -1 -4 -23z"/>
<path d="M1372 2720 c0 -14 2 -19 5 -12 2 6 2 18 0 25 -3 6 -5 1 -5 -13z"/>
<path d="M1133 2565 c0 -33 2 -45 4 -27 2 18 2 45 0 60 -2 15 -4 0 -4 -33z"/>
<path d="M1383 2525 c0 -38 2 -53 4 -32 2 20 2 52 0 70 -2 17 -4 1 -4 -38z"/>
<path d="M1144 2215 c0 -88 2 -123 3 -77 2 46 2 118 0 160 -1 42 -3 5 -3 -83z"/>
<path d="M1453 780 c0 -25 2 -35 4 -22 2 12 2 32 0 45 -2 12 -4 2 -4 -23z"/>
<path d="M1463 695 c0 -22 2 -30 4 -17 2 12 2 30 0 40 -3 9 -5 -1 -4 -23z"/>
<path d="M1472 610 c0 -19 2 -27 5 -17 2 9 2 25 0 35 -3 9 -5 1 -5 -18z"/>
</g>
</svg>
