<?xml version="1.0" standalone="no"?>
<!DOCTYPE svg PUBLIC "-//W3C//DTD SVG 20010904//EN"
 "http://www.w3.org/TR/2001/REC-SVG-20010904/DTD/svg10.dtd">
<svg version="1.0" xmlns="http://www.w3.org/2000/svg"
 width="244.000000pt" height="305.000000pt" viewBox="0 0 244.000000 305.000000"
 preserveAspectRatio="xMidYMid meet">
<metadata>
Created by potrace 1.16, written by Peter Selinger 2001-2019
</metadata>
<g transform="translate(0.000000,305.000000) scale(0.100000,-0.100000)"
fill="#000000" stroke="none">
<path d="M882 2881 c-14 -39 -15 -66 -2 -36 10 24 11 2 12 -532 1 -222 -2
-406 -5 -410 -4 -3 -17 3 -30 14 -12 11 -30 23 -39 26 -16 6 -18 21 -18 120 0
146 15 344 41 530 23 167 20 207 -5 65 -31 -181 -36 -246 -42 -488 l-7 -245
56 -36 56 -36 21 22 c12 13 36 29 52 36 l31 13 -7 210 c-10 309 -43 574 -94
751 l-8 30 -12 -34z"/>
<path d="M1568 2883 c-2 -18 -1 -30 4 -27 4 3 8 -211 8 -475 0 -510 0 -511
-45 -461 -10 11 -24 20 -31 20 -8 0 -17 12 -20 26 -12 47 15 474 41 653 14 95
24 175 22 177 -6 6 -45 -228 -57 -336 -5 -52 -13 -194 -17 -316 l-6 -220 30
-13 c17 -7 41 -23 53 -36 l23 -24 30 25 c17 14 42 30 56 35 l24 10 -6 217 c-4
119 -14 278 -23 352 -15 137 -55 355 -72 400 -9 24 -9 24 -14 -7z"/>
<path d="M862 2785 c0 -16 2 -22 5 -12 2 9 2 23 0 30 -3 6 -5 -1 -5 -18z"/>
<path d="M1235 2606 c-6 -6 -23 -69 -38 -141 -29 -136 -46 -320 -48 -491 -1
-109 -13 -155 -23 -88 -15 93 -37 208 -43 218 -11 17 -32 -63 -38 -143 l-6
-76 33 -20 c34 -21 50 -62 40 -111 -6 -32 -26 -41 -58 -24 -32 18 -38 9 -25
-33 18 -52 67 -61 91 -16 18 33 31 22 24 -21 -6 -38 -5 -41 23 -51 34 -11 57
-51 47 -82 l-7 -22 -8 22 c-17 46 -99 72 -135 42 -22 -18 -17 -26 30 -39 54
-15 72 -49 82 -153 l7 -74 -32 -11 c-27 -10 -32 -16 -29 -39 2 -20 9 -29 26
-31 31 -5 46 -36 26 -56 -8 -9 -24 -16 -34 -16 -23 0 -42 -31 -31 -48 4 -7 20
-15 36 -18 42 -8 45 -11 45 -60 0 -24 5 -44 10 -44 6 0 10 -15 10 -32 l0 -33
-20 30 c-11 17 -20 43 -20 58 0 39 -17 67 -40 67 -27 0 -52 42 -44 74 5 23 3
26 -22 27 -48 2 -68 -2 -92 -18 -34 -21 -65 -9 -106 41 -31 37 -36 50 -35 92
2 59 -10 134 -24 152 -16 20 -64 14 -87 -10 -34 -36 -21 -95 44 -198 71 -112
96 -164 96 -195 0 -32 -20 -72 -129 -255 -48 -80 -106 -178 -129 -218 -40 -68
-56 -88 -48 -60 16 51 84 260 110 338 l33 94 46 15 c41 13 48 19 57 50 24 87
9 138 -66 227 -78 91 -94 164 -49 224 45 61 26 90 -58 90 -81 0 -92 -36 -51
-176 17 -58 17 -61 -2 -100 -21 -42 -45 -59 -279 -190 -71 -40 -132 -71 -134
-69 -4 5 -4 5 157 149 l132 118 46 -7 45 -6 -7 98 c-9 133 -25 156 -22 31 l3
-98 -32 6 c-30 6 -43 -4 -220 -162 -103 -92 -190 -169 -192 -171 -2 -2 -2 -6
2 -9 3 -3 86 20 184 51 327 105 303 95 303 122 0 34 22 38 77 13 59 -26 91
-55 110 -98 17 -40 13 -47 -32 -62 -33 -11 -35 -15 -78 -148 -85 -260 -138
-434 -135 -438 2 -1 94 96 203 216 211 231 211 231 191 303 l-8 27 94 0 c82 0
100 -3 128 -22 56 -38 59 -53 22 -91 -36 -37 -38 -47 -18 -131 8 -34 26 -115
40 -181 60 -288 79 -375 82 -373 1 2 16 73 34 158 62 297 91 435 97 463 5 23
-1 35 -28 63 -37 38 -35 51 15 88 22 17 46 22 118 25 50 1 94 -1 100 -7 6 -6
4 -22 -6 -45 -14 -34 -13 -37 12 -70 52 -67 377 -416 380 -408 3 10 -154 514
-169 543 -5 9 -25 22 -44 28 -41 13 -44 30 -14 79 28 46 55 67 113 87 51 17
65 11 66 -27 0 -14 48 -32 403 -146 43 -14 80 -23 83 -21 5 5 2 7 -221 206
-149 133 -162 143 -192 137 l-31 -6 5 97 c5 72 3 95 -5 90 -7 -4 -12 -26 -12
-49 0 -23 -5 -60 -11 -82 -26 -98 -28 -95 53 -144 40 -24 96 -59 123 -76 28
-17 85 -53 128 -79 43 -27 77 -50 75 -51 -4 -4 -281 92 -340 118 -38 16 -45
30 -29 56 7 10 -1 23 -25 46 -29 28 -34 39 -34 78 0 25 9 74 20 109 25 79 25
93 0 118 -26 26 -99 27 -129 3 -19 -17 -20 -20 -6 -43 39 -67 45 -88 36 -134
-5 -25 -21 -62 -37 -82 -117 -146 -152 -254 -106 -329 59 -97 242 -428 239
-432 -3 -2 -72 73 -153 167 -106 123 -148 178 -147 193 2 12 5 61 7 108 5 95
15 124 75 219 69 109 81 137 81 184 0 35 -5 48 -22 60 -27 19 -62 21 -76 4
-11 -15 -22 -79 -25 -154 -2 -59 -37 -113 -85 -133 -25 -10 -35 -10 -60 3 -17
9 -49 16 -72 16 -40 0 -40 0 -40 -38 0 -41 -14 -62 -42 -62 -20 0 -38 -29 -38
-60 0 -11 -8 -35 -17 -53 -17 -32 -17 -32 -21 -7 -2 13 1 26 7 28 6 2 11 20
11 40 0 48 8 58 48 67 57 12 52 56 -7 68 -50 10 -49 62 2 69 17 2 22 10 22 33
0 23 -5 30 -25 35 -24 6 -25 9 -22 71 5 107 33 169 76 169 12 0 28 5 36 10 13
8 13 11 0 24 -31 30 -85 24 -120 -14 -26 -28 -29 -29 -35 -11 -8 25 9 52 46
74 26 14 28 20 23 52 -3 21 -1 35 5 35 6 0 11 -4 11 -10 0 -17 48 -42 68 -36
20 7 46 72 31 81 -4 3 -17 0 -27 -6 -30 -19 -49 -4 -57 40 -9 54 0 76 40 100
39 23 39 21 24 128 -10 71 -25 120 -34 111 -2 -2 -13 -57 -25 -123 -12 -66
-25 -124 -29 -128 -4 -4 -11 79 -14 185 -6 186 -26 370 -47 433 -6 17 -14 56
-18 87 -5 40 -10 53 -17 44z m2 -436 c1 -162 -2 -299 -7 -304 -15 -19 -23 -83
-11 -90 12 -8 14 -70 5 -128 l-6 -37 -31 15 -30 16 6 252 c4 138 11 289 17
336 23 189 33 241 44 237 7 -2 11 -92 13 -297z m0 -382 c-3 -8 -6 -5 -6 6 -1
11 2 17 5 13 3 -3 4 -12 1 -19z m0 -170 c-3 -7 -5 -2 -5 12 0 14 2 19 5 13 2
-7 2 -19 0 -25z m13 -130 c0 -19 -15 -24 -24 -10 -3 5 -2 19 1 31 4 17 8 19
14 9 5 -7 9 -21 9 -30z m-8 -840 c-3 -362 -9 -397 -41 -238 -13 63 -25 126
-27 140 -3 14 -7 31 -10 39 -2 8 -14 55 -25 105 l-20 89 43 44 43 44 6 -68 c5
-64 6 -62 7 35 2 74 5 102 15 102 9 0 11 -64 9 -292z"/>
<path d="M1221 1924 c0 -11 3 -14 6 -6 3 7 2 16 -1 19 -3 4 -6 -2 -5 -13z"/>
<path d="M1212 600 c0 -14 2 -19 5 -12 2 6 2 18 0 25 -3 6 -5 1 -5 -13z"/>
<path d="M960 1857 c-14 -6 -35 -31 -47 -55 -18 -37 -22 -40 -28 -22 -3 11
-18 34 -32 50 -21 26 -32 30 -73 30 -55 0 -80 -23 -80 -72 0 -25 3 -28 25 -22
36 9 68 -2 98 -32 30 -29 35 -69 12 -78 -9 -3 -15 -18 -15 -38 1 -60 21 -99
108 -218 11 -15 8 -24 -28 -64 -22 -26 -40 -57 -40 -70 0 -31 40 -66 83 -73
29 -4 36 -2 42 15 3 12 1 30 -4 41 -13 23 -14 61 -3 78 6 10 24 7 75 -9 51
-17 72 -20 85 -12 31 20 18 36 -48 62 -104 42 -206 161 -198 230 3 25 6 22 35
-30 48 -84 154 -178 201 -178 36 0 26 27 -25 64 -75 54 -133 131 -133 177 0
18 -7 32 -20 39 -28 15 -25 37 10 72 27 27 36 30 75 26 52 -6 60 5 38 50 -9
18 -27 35 -45 41 -38 13 -37 13 -68 -2z"/>
<path d="M1434 1856 c-33 -15 -44 -33 -44 -72 0 -22 3 -23 43 -18 34 5 47 2
70 -16 30 -24 38 -74 12 -84 -8 -3 -15 -18 -15 -33 0 -50 -72 -145 -136 -179
-31 -17 -55 -57 -42 -70 3 -2 22 3 43 12 57 23 159 126 184 185 12 27 24 49
28 49 17 0 -10 -86 -42 -135 -40 -60 -101 -108 -174 -136 -49 -18 -57 -35 -28
-53 13 -8 31 -6 79 11 45 15 66 19 75 11 15 -12 17 -74 3 -83 -5 -3 -10 -14
-10 -25 0 -25 43 -34 78 -16 64 33 65 66 7 136 -37 44 -37 45 7 101 15 21 37
57 48 80 24 54 27 134 5 143 -24 9 -17 36 20 73 30 30 40 34 77 32 45 -4 54 6
44 46 -8 32 -59 58 -96 50 -27 -6 -60 -36 -86 -81 -10 -17 -13 -16 -27 19 -12
26 -27 42 -51 52 -41 18 -33 17 -72 1z"/>
</g>
</svg>
