<?xml version="1.0" standalone="no"?>
<!DOCTYPE svg PUBLIC "-//W3C//DTD SVG 20010904//EN"
 "http://www.w3.org/TR/2001/REC-SVG-20010904/DTD/svg10.dtd">
<svg version="1.0" xmlns="http://www.w3.org/2000/svg"
 width="244.000000pt" height="305.000000pt" viewBox="0 0 244.000000 305.000000"
 preserveAspectRatio="xMidYMid meet">
<metadata>
Created by potrace 1.16, written by Peter Selinger 2001-2019
</metadata>
<g transform="translate(0.000000,305.000000) scale(0.100000,-0.100000)"
fill="#000000" stroke="none">
<path d="M886 2838 c-52 -232 -69 -401 -80 -790 -3 -117 -3 -118 23 -134 14
-9 38 -27 52 -41 l26 -24 32 30 c18 17 41 33 53 37 21 6 21 8 14 243 -7 229
-31 467 -60 596 -20 87 -19 56 4 -97 33 -226 61 -680 43 -703 -10 -13 -70 -55
-78 -55 -3 0 -5 225 -5 501 1 275 0 503 -3 505 -3 3 -12 -28 -21 -68z"/>
<path d="M1352 2890 c0 -14 2 -19 5 -12 2 6 2 18 0 25 -3 6 -5 1 -5 -13z"/>
<path d="M1112 2880 c0 -14 2 -19 5 -12 2 6 2 18 0 25 -3 6 -5 1 -5 -13z"/>
<path d="M1527 2763 c-36 -192 -46 -272 -57 -473 -12 -226 -13 -370 0 -370 5
0 25 -13 43 -30 41 -36 57 -37 83 -9 10 12 30 25 43 30 l24 10 -6 242 c-4 133
-13 292 -21 352 -20 144 -47 297 -53 292 -2 -3 3 -49 12 -102 28 -176 45 -356
52 -555 l6 -195 -41 -28 c-23 -15 -44 -27 -47 -27 -3 0 -5 217 -4 483 1 294 4
472 10 457 7 -21 8 -20 4 9 -3 18 -5 37 -5 42 0 5 -4 9 -9 9 -5 0 -20 -62 -34
-137z"/>
<path d="M921 2834 c0 -11 3 -14 6 -6 3 7 2 16 -1 19 -3 4 -6 -2 -5 -13z"/>
<path d="M1342 2800 c0 -14 2 -19 5 -12 2 6 2 18 0 25 -3 6 -5 1 -5 -13z"/>
<path d="M1121 2415 c-2 -300 -5 -394 -13 -375 -6 14 -14 97 -18 185 l-7 160
-1 -130 c-2 -71 -9 -166 -17 -210 -20 -110 -19 -155 3 -171 14 -11 9 -13 -41
-11 -53 2 -61 -1 -83 -26 -13 -15 -24 -37 -24 -48 0 -30 -15 -23 -33 17 -38
78 -159 78 -167 -1 -4 -40 -1 -43 43 -38 35 4 46 0 69 -21 36 -35 44 -63 23
-87 -14 -15 -16 -29 -11 -65 6 -47 62 -160 91 -184 21 -17 19 -33 -6 -56 -49
-45 -63 -109 -29 -139 22 -20 27 -45 8 -45 -30 0 -69 85 -57 125 4 15 -11 107
-21 133 -7 16 -18 22 -39 22 -36 0 -57 -19 -66 -60 -7 -34 20 -98 99 -230 45
-75 51 -95 40 -124 -9 -24 -24 -19 -24 8 0 44 -30 108 -82 174 -63 81 -81 128
-69 181 4 21 16 49 25 62 34 49 11 79 -62 79 -69 0 -89 -50 -57 -140 22 -62
20 -155 -4 -179 -10 -10 -25 -21 -32 -23 -11 -4 -12 -11 -2 -37 12 -32 11 -33
-25 -48 -93 -39 -322 -120 -322 -113 0 4 28 24 62 46 35 21 121 76 192 122
112 73 127 86 122 105 -7 25 -21 90 -35 162 -9 45 -10 40 -8 -47 l2 -98 -32 6
c-28 5 -38 0 -100 -57 -185 -171 -313 -293 -310 -296 5 -5 460 148 475 160 6
5 12 18 12 28 0 29 17 31 67 9 59 -26 91 -55 110 -98 17 -40 7 -57 -36 -65
-16 -3 -31 -14 -33 -24 -3 -10 -42 -139 -87 -287 -45 -148 -80 -270 -78 -272
4 -4 39 35 256 285 117 135 140 167 134 185 -4 11 -7 32 -7 46 -1 24 2 25 62
28 46 2 62 0 62 -10 0 -10 2 -10 9 1 14 23 44 5 37 -22 -3 -12 -21 -96 -39
-187 -28 -146 -33 -160 -39 -125 -5 28 -6 21 -3 -25 2 -38 0 -57 -4 -45 -6 14
-10 1 -13 -45 -3 -36 -4 -66 -3 -67 1 -2 25 75 55 170 29 94 56 176 60 180 7
8 39 -129 59 -248 17 -105 75 -378 78 -369 1 5 30 144 63 309 33 165 62 305
64 310 1 6 24 -57 50 -140 26 -82 54 -168 62 -190 l15 -40 -6 60 c-6 76 -33
319 -45 405 -7 55 -6 67 8 78 16 12 97 10 110 -3 3 -3 1 -25 -5 -48 -14 -50
-34 -21 202 -291 94 -106 171 -190 173 -186 2 5 -9 48 -23 97 -88 292 -138
450 -147 461 -6 6 -18 12 -28 12 -64 0 -34 99 44 145 24 14 57 27 73 28 23 2
28 -2 31 -24 3 -24 17 -30 234 -103 127 -42 232 -75 235 -73 2 2 -56 60 -129
129 -249 233 -233 221 -268 213 l-30 -7 6 86 c5 55 3 86 -3 86 -10 0 -23 -97
-23 -168 0 -32 0 -32 40 -26 35 6 44 3 77 -26 78 -68 247 -230 240 -230 -38 0
-357 199 -384 240 -28 41 -29 63 -1 156 17 59 19 79 10 99 -13 29 -48 40 -97
31 -50 -10 -60 -34 -30 -79 45 -66 30 -147 -44 -235 -49 -58 -71 -108 -71
-164 0 -61 18 -88 70 -108 24 -9 45 -21 46 -26 1 -5 24 -76 49 -159 67 -211
86 -280 76 -269 -15 16 -260 454 -250 448 15 -9 10 33 -11 86 l-20 51 24 47
c13 26 45 81 70 122 37 60 46 83 46 120 0 54 -21 80 -63 80 -37 0 -48 -27 -52
-127 -3 -68 -8 -91 -27 -119 -13 -19 -26 -34 -29 -34 -17 0 -16 31 2 53 27 36
24 59 -16 111 -19 26 -35 49 -35 52 0 2 18 29 41 59 60 79 90 198 54 211 -24
10 -17 40 17 79 28 32 36 36 72 33 35 -3 41 0 44 18 2 11 -7 32 -18 47 -40 50
-123 32 -150 -33 -13 -32 -30 -40 -30 -15 0 8 -13 29 -29 47 -25 29 -34 32
-75 30 -43 -1 -45 0 -34 17 9 15 9 41 -1 113 -7 51 -16 208 -22 348 -5 140
-13 305 -18 365 -8 107 -8 105 -10 -95 -3 -417 -9 -672 -16 -678 -13 -13 -25
25 -25 84 0 145 -42 456 -77 569 -14 47 -55 -136 -76 -345 l-13 -125 -8 265
c-14 456 -23 468 -25 35z m154 -75 c12 -95 15 -159 9 -264 -4 -76 -10 -132
-14 -125 -7 13 -21 524 -15 517 2 -2 11 -60 20 -128z m-128 -462 c-3 -7 -5 -2
-5 12 0 14 2 19 5 13 2 -7 2 -19 0 -25z m193 6 c0 -8 -4 -14 -10 -14 -5 0 -10
9 -10 21 0 11 5 17 10 14 6 -3 10 -13 10 -21z m-47 -65 c-4 -38 -2 -53 8 -60
12 -7 11 -11 -3 -26 -17 -16 -18 -14 -18 53 0 61 4 84 16 84 2 0 0 -23 -3 -51z
m-174 -18 c-1 -24 -2 -24 -8 5 -4 17 -11 37 -15 45 -4 8 0 5 8 -5 9 -11 16
-31 15 -45z m242 3 c-9 -28 -9 -29 -10 -3 -1 14 2 29 6 32 11 12 13 2 4 -29z
m-279 -50 c11 -7 10 -34 0 -34 -4 0 -13 5 -20 12 -9 9 -15 9 -24 0 -17 -17 16
-86 37 -78 25 9 20 -67 -6 -90 l-21 -19 23 -5 c16 -4 26 -16 32 -39 11 -45 0
-52 -28 -16 -13 17 -34 40 -47 53 -32 33 -47 63 -48 93 0 15 -7 32 -15 39 -22
18 -18 48 11 76 21 22 31 25 62 19 20 -4 40 -9 44 -11z m413 -9 c28 -27 33
-70 10 -79 -8 -3 -15 -18 -15 -33 0 -26 -16 -56 -47 -94 -7 -8 -25 -30 -42
-49 -16 -19 -32 -32 -35 -29 -11 10 6 69 20 69 21 0 28 22 11 35 -25 18 -23
82 2 90 25 8 48 62 32 78 -8 8 -14 8 -23 -1 -16 -16 -28 -15 -28 3 0 17 32 33
68 34 13 1 34 -10 47 -24z m-325 -132 c10 -3 21 -11 24 -18 7 -18 -25 -29 -40
-13 -13 14 -25 103 -15 114 3 3 7 -13 9 -36 2 -31 8 -43 22 -47z m161 46 c-9
-23 -10 -22 -10 11 -1 23 2 31 9 24 7 -7 7 -19 1 -35z m-40 1 c5 0 9 -7 9 -15
0 -8 -7 -15 -15 -15 -10 0 -15 10 -14 33 1 17 3 24 6 15 2 -10 9 -18 14 -18z
m26 -77 c-17 -17 -37 -10 -37 13 0 8 9 14 20 14 11 0 21 6 21 13 1 6 3 4 6 -7
3 -10 -2 -25 -10 -33z m-384 -1 c9 -21 27 -52 41 -69 14 -17 26 -43 26 -58 l0
-28 -25 29 c-31 35 -75 121 -75 146 0 30 17 20 33 -20z m424 16 c-3 -8 -6 -5
-6 6 -1 11 2 17 5 13 3 -3 4 -12 1 -19z m213 4 c0 -25 -46 -116 -70 -137 -19
-17 -20 -17 -20 0 0 10 13 39 29 64 16 25 32 56 36 69 8 26 25 29 25 4z m-329
-66 c11 6 10 -11 -1 -46 -7 -21 -8 -22 -9 -5 -1 11 -4 31 -6 45 -3 14 -3 19 1
12 3 -6 10 -10 15 -6z m89 -79 c-12 -31 -26 -60 -32 -63 -12 -8 -5 19 24 85
26 62 33 45 8 -22z m-159 -39 c4 -16 5 -28 3 -28 -9 0 -44 85 -43 105 1 21 24
-24 40 -77z m-124 -10 c-3 -7 -5 -2 -5 12 0 14 2 19 5 13 2 -7 2 -19 0 -25z
m386 19 c3 -8 1 -20 -4 -28 -6 -10 -9 -7 -9 14 0 29 5 35 13 14z m-303 -58 c0
-18 -35 -5 -38 14 -3 16 -1 17 17 7 12 -6 21 -15 21 -21z m250 17 c0 -21 -20
-30 -33 -17 -9 9 -8 14 3 21 21 14 30 12 30 -4z m91 -106 c-9 -23 -10 -23 -10
11 -1 20 2 39 7 43 11 12 14 -27 3 -54z m-468 -31 c-5 -5 -8 9 -7 33 3 57 6
62 11 14 3 -21 0 -43 -4 -47z m66 0 c17 -82 8 -86 -13 -5 -19 75 -19 79 -7 72
4 -3 14 -33 20 -67z m101 56 c0 -8 -4 -15 -10 -15 -5 0 -10 7 -10 15 0 8 5 15
10 15 6 0 10 -7 10 -15z m147 -11 c-9 -9 -28 6 -21 18 4 6 10 6 17 -1 6 -6 8
-13 4 -17z m98 -58 c-18 -61 -31 -76 -20 -23 14 68 29 111 32 95 2 -9 -3 -41
-12 -72z m-35 31 c0 -26 -17 -87 -29 -105 -7 -12 -14 -11 -40 2 -17 9 -31 23
-31 32 0 22 29 29 44 9 11 -15 13 -15 25 -1 8 9 14 34 15 55 1 40 16 47 16 8z
m-270 -16 c0 -43 25 -76 36 -47 8 20 30 21 37 1 5 -12 -39 -55 -57 -55 -7 0
-36 98 -36 122 0 10 5 18 10 18 6 0 10 -17 10 -39z m-146 -86 c-18 -28 -30
-32 -37 -12 -7 22 4 37 29 37 24 0 24 -1 8 -25z m551 4 c8 -23 1 -34 -14 -24
-13 8 -15 45 -2 45 5 0 13 -9 16 -21z m-631 -256 l6 -71 -114 -139 c-63 -76
-131 -156 -151 -178 -36 -39 -36 -38 21 70 32 61 65 124 74 140 9 17 38 71 65
120 42 78 84 140 90 132 1 -1 5 -34 9 -74z m359 16 c-4 -15 -8 -17 -14 -8 -6
11 4 28 18 29 0 0 -1 -9 -4 -21z m182 -204 c54 -266 43 -253 -46 59 -14 48
-18 82 -13 110 10 59 19 32 59 -169z m-75 138 l-1 -58 -23 29 -24 29 21 29
c11 15 22 28 24 28 2 0 3 -26 3 -57z m-190 -3 c0 -17 -18 -40 -32 -40 -4 0 -8
21 -8 47 0 45 0 46 20 28 11 -10 20 -26 20 -35z m140 -289 c-24 -121 -46 -219
-47 -217 -2 2 4 95 13 207 15 192 14 227 -2 289 -6 22 -2 20 36 -17 l43 -42
-43 -220z"/>
<path d="M1102 2740 c0 -14 2 -19 5 -12 2 6 2 18 0 25 -3 6 -5 1 -5 -13z"/>
<path d="M1332 2635 c0 -16 2 -22 5 -12 2 9 2 23 0 30 -3 6 -5 -1 -5 -18z"/>
<path d="M1092 2570 c0 -19 2 -27 5 -17 2 9 2 25 0 35 -3 9 -5 1 -5 -18z"/>
<path d="M1323 2380 c0 -47 2 -66 4 -42 2 23 2 61 0 85 -2 23 -4 4 -4 -43z"/>
<path d="M1033 855 c0 -27 2 -38 4 -22 2 15 2 37 0 50 -2 12 -4 0 -4 -28z"/>
<path d="M1022 770 c0 -19 2 -27 5 -17 2 9 2 25 0 35 -3 9 -5 1 -5 -18z"/>
<path d="M1012 680 c0 -19 2 -27 5 -17 2 9 2 25 0 35 -3 9 -5 1 -5 -18z"/>
</g>
</svg>
