<?xml version="1.0" standalone="no"?>
<!DOCTYPE svg PUBLIC "-//W3C//DTD SVG 20010904//EN"
 "http://www.w3.org/TR/2001/REC-SVG-20010904/DTD/svg10.dtd">
<svg version="1.0" xmlns="http://www.w3.org/2000/svg"
 width="244.000000pt" height="305.000000pt" viewBox="0 0 244.000000 305.000000"
 preserveAspectRatio="xMidYMid meet">
<metadata>
Created by potrace 1.16, written by Peter Selinger 2001-2019
</metadata>
<g transform="translate(0.000000,305.000000) scale(0.100000,-0.100000)"
fill="#000000" stroke="none">
<path d="M950 2906 c0 -2 -9 -58 -20 -123 -32 -190 -49 -374 -56 -625 -7 -231
-7 -236 13 -242 11 -4 29 -16 39 -27 15 -17 16 -22 4 -29 -8 -5 -22 -4 -33 1
-25 14 -75 2 -87 -21 -6 -10 -10 -30 -10 -44 0 -23 4 -26 35 -26 57 0 118 -78
81 -105 -27 -20 -15 -127 20 -179 12 -17 10 -23 -12 -43 -14 -13 -28 -23 -31
-23 -3 0 -2 21 2 46 4 30 2 50 -6 60 -14 17 -50 19 -66 3 -8 -8 -17 -8 -31 0
-27 15 -85 14 -100 -1 -15 -15 -16 -102 -2 -128 6 -11 13 -45 15 -77 5 -53 3
-61 -24 -98 -17 -22 -39 -56 -50 -75 -28 -52 -46 -64 -161 -114 -101 -43 -136
-51 -94 -22 10 8 60 44 109 81 50 36 103 76 120 88 16 12 42 34 57 48 27 26
27 26 13 85 -8 33 -14 80 -15 107 0 28 -5 47 -11 47 -9 0 -10 -25 -6 -90 l6
-89 -27 5 c-25 5 -40 -8 -159 -138 -162 -176 -193 -212 -188 -216 2 -2 62 20
134 49 72 29 134 49 137 46 4 -4 -5 -22 -20 -42 -15 -19 -22 -35 -16 -35 6 0
73 31 149 70 76 38 142 70 145 70 4 0 15 -18 25 -41 19 -42 18 -79 -3 -79 -27
0 -46 -29 -65 -100 -80 -303 -122 -473 -118 -483 2 -7 12 2 23 18 71 111 161
215 140 160 -9 -23 -29 -146 -24 -150 3 -4 28 37 139 228 19 32 39 66 44 75
66 109 66 109 59 161 l-7 51 39 0 c48 0 101 -31 110 -65 4 -18 -1 -33 -19 -54
l-24 -29 53 -319 c30 -175 54 -322 54 -327 1 -38 16 41 60 301 55 332 57 355
34 373 -36 31 -36 48 1 85 31 30 42 35 82 35 l46 0 -6 -53 c-6 -50 -4 -57 42
-135 57 -95 168 -289 193 -335 14 -27 17 -29 18 -11 0 12 -7 56 -16 99 -9 42
-14 79 -11 81 5 5 90 -99 122 -149 10 -15 20 -26 22 -23 7 6 -123 519 -138
548 -6 10 -16 18 -23 18 -38 0 -44 60 -10 105 14 19 19 17 172 -60 86 -43 161
-81 166 -83 10 -5 7 -1 -31 61 -13 20 -20 37 -15 37 4 0 54 -18 111 -40 56
-22 107 -40 112 -40 8 0 -114 148 -140 170 -4 3 -40 42 -81 88 -66 74 -77 83
-101 78 l-28 -5 5 92 c6 117 -11 86 -19 -36 l-6 -88 35 7 c22 4 40 2 50 -7 37
-30 227 -252 211 -246 -40 15 -207 137 -264 192 -70 68 -80 99 -57 173 20 68
19 139 -4 151 -21 11 -161 9 -180 -3 -10 -6 -12 -19 -7 -42 8 -45 1 -55 -30
-41 -17 8 -23 17 -18 27 20 48 42 118 43 138 0 12 -7 34 -16 47 -19 29 -13 50
22 88 20 21 33 27 57 25 26 -2 33 1 35 18 2 11 -7 32 -18 47 -18 22 -30 27
-66 27 -53 0 -60 21 -13 45 l31 16 -6 162 c-11 286 -17 396 -26 444 -8 40 -8
34 -5 -32 3 -44 8 -184 12 -312 l6 -231 -29 -26 c-16 -14 -31 -25 -34 -26 -3
0 -6 215 -7 478 -1 309 1 468 7 452 9 -22 9 -21 5 9 -3 18 -5 37 -5 42 0 5 -4
9 -10 9 -5 0 -12 -23 -16 -50 -10 -73 -21 -70 -29 8 -5 46 -10 61 -15 47 -4
-11 -4 -49 1 -85 5 -40 2 -168 -7 -330 -9 -146 -17 -326 -18 -400 -4 -161 -3
-157 -17 -143 -7 7 -14 46 -17 88 -3 48 -8 72 -13 63 -7 -11 -9 -11 -9 1 0 11
-3 11 -15 1 -12 -10 -15 -9 -16 6 -1 35 -18 -17 -18 -58 -1 -21 -5 -38 -11
-38 -6 0 -10 38 -10 93 0 100 -22 332 -40 412 -21 101 -21 101 -30 85 -24 -46
-60 -348 -60 -512 0 -59 -4 -98 -10 -98 -5 0 -10 17 -11 38 -1 38 -16 99 -18
73 -1 -11 -5 -10 -16 5 -14 19 -14 19 -16 -1 -4 -54 -17 52 -18 150 -1 109
-22 380 -40 525 -18 139 -27 129 -25 -26 2 -105 0 -137 -6 -109 -5 22 -9 60
-10 85 0 25 -5 52 -11 60 -12 17 -5 -82 11 -165 6 -27 13 -187 17 -355 5 -274
4 -307 -11 -319 -8 -7 -23 -10 -32 -7 -14 6 -16 34 -13 269 2 144 3 345 1 447
-1 102 1 199 4 216 3 18 1 34 -5 38 -6 4 -11 5 -11 2z m116 -1037 c-27 -7 -34
10 -10 28 16 12 19 11 25 -4 4 -13 0 -20 -15 -24z m364 6 c0 -8 -8 -11 -20 -8
-20 5 -26 23 -13 36 8 9 33 -12 33 -28z m-433 -22 c-3 -3 -11 -2 -17 2 -8 5
-7 11 2 22 12 15 13 14 16 -1 2 -10 1 -20 -1 -23z m493 7 c0 -13 -5 -18 -15
-14 -16 7 -19 17 -8 27 12 13 23 7 23 -13z m-71 -134 c10 -21 10 -34 2 -50 -6
-11 -15 -40 -20 -64 -12 -55 -14 -57 -45 -37 -17 11 -35 15 -51 11 -24 -6 -33
-20 -63 -96 -9 -24 -10 -24 -21 15 -16 60 -46 88 -84 81 -17 -4 -35 -12 -39
-19 -11 -17 -24 5 -32 56 -4 23 -12 47 -17 54 -6 6 -8 22 -4 34 6 19 9 17 26
-20 14 -31 24 -41 42 -41 12 0 28 5 35 12 9 9 12 6 12 -15 0 -16 8 -30 21 -37
11 -7 27 -27 35 -46 8 -19 16 -34 19 -34 2 0 12 16 21 36 10 20 26 39 36 42
11 2 18 14 18 28 0 20 4 22 33 17 38 -6 57 11 60 53 2 26 -1 29 -30 28 -30 0
-42 13 -27 28 13 13 60 -10 73 -36z m-286 19 c-3 -9 -11 -9 -59 -6 -8 1 -12 6
-9 12 8 13 71 8 68 -6z m-160 -162 c3 -16 9 -36 12 -45 4 -10 3 -18 -2 -18 -9
0 -33 64 -33 89 0 22 17 2 23 -26z m547 13 c0 -8 -9 -33 -21 -57 -21 -46 -21
-48 -3 48 6 31 24 37 24 9z m-380 -76 c18 -10 45 -69 35 -78 -7 -8 -37 22 -58
57 -19 32 -11 39 23 21z m220 -2 c0 -7 -16 -33 -36 -58 l-37 -45 7 40 c4 22
16 48 28 58 24 20 38 22 38 5z m-554 -120 c-1 -35 3 -83 8 -108 7 -37 6 -43
-5 -32 -15 14 -27 202 -12 202 5 0 9 -28 9 -62z m879 -41 c-8 -58 -23 -103
-31 -95 -3 3 0 45 7 93 9 63 15 82 21 70 6 -9 7 -40 3 -68z m-183 38 c-5 -39
-22 -48 -22 -12 0 17 16 47 25 47 1 0 -1 -16 -3 -35z m-512 -16 c0 -10 -4 -19
-10 -19 -5 0 -10 12 -10 26 0 14 4 23 10 19 6 -3 10 -15 10 -26z m164 6 c32
-13 49 -35 29 -35 -11 0 -73 39 -73 45 0 7 4 7 44 -10z m206 10 c0 -6 -62 -45
-72 -45 -5 0 -8 9 -8 20 0 13 5 18 14 14 8 -3 23 -1 33 5 20 11 33 14 33 6z
m-583 -42 c-3 -10 -5 -4 -5 12 0 17 2 24 5 18 2 -7 2 -21 0 -30z m348 -50 c17
-4 20 -11 17 -39 -4 -29 0 -35 22 -44 30 -11 35 -44 9 -58 -12 -7 -24 -5 -40
5 -19 13 -31 13 -66 5 -28 -8 -45 -8 -52 -1 -13 13 14 31 34 24 23 -9 30 14
24 73 -6 52 -5 55 13 47 10 -4 28 -10 39 -12z m273 -45 l-3 -63 32 2 c35 3 50
-9 30 -25 -9 -8 -25 -8 -55 0 -34 8 -46 8 -66 -6 -31 -20 -56 -11 -56 20 0 17
8 28 26 34 23 9 26 15 21 43 -5 30 -2 34 26 44 18 6 36 11 40 12 5 0 7 -27 5
-61z m-460 -30 c12 -28 21 -53 19 -55 -4 -3 -57 91 -57 101 0 20 18 -2 38 -46z
m603 -19 c-25 -41 -28 -23 -3 27 10 22 18 31 20 22 2 -9 -6 -31 -17 -49z
m-826 -70 c-8 -12 -35 -12 -35 0 0 11 22 20 33 14 4 -2 5 -9 2 -14z m1061 -14
c3 -12 21 -29 39 -38 37 -17 118 -87 111 -94 -4 -5 -44 16 -144 76 -29 17 -56
31 -60 31 -4 0 -14 5 -22 10 -13 9 -11 13 9 29 29 22 59 16 67 -14z m-1111 16
c3 -6 -4 -15 -15 -21 -20 -11 -21 -10 -10 9 12 23 16 25 25 12z m259 -113 c4
-22 3 -38 -2 -38 -12 0 -22 36 -21 80 0 28 2 31 8 15 5 -11 11 -37 15 -57z
m-305 26 c-13 -14 -32 -30 -42 -36 -16 -8 -17 -7 -8 11 12 21 49 51 65 51 5 0
-1 -12 -15 -26z m679 14 c-9 -7 -18 -34 -22 -60 -3 -26 -14 -60 -24 -77 l-19
-31 -21 44 c-13 24 -22 60 -21 82 l1 39 8 -42 c5 -23 14 -51 20 -63 19 -36 29
-18 54 93 4 16 13 27 23 27 15 0 15 -1 1 -12z m282 -22 c0 -56 15 -83 50 -91
38 -8 38 -9 94 -220 54 -208 58 -225 52 -225 -7 0 -133 264 -151 316 -8 24
-18 62 -21 84 -4 25 -16 48 -30 59 -24 19 -31 60 -18 95 11 28 24 17 24 -18z
m-645 -145 c6 -45 -10 -102 -34 -121 -4 -3 -15 -18 -25 -33 -9 -16 -20 -27
-22 -24 -8 7 38 212 50 219 20 14 24 9 31 -41z m570 -12 c-7 -48 -5 -53 35
-111 34 -48 130 -268 130 -296 0 -8 -25 31 -64 103 -153 275 -145 257 -139
308 5 38 9 47 25 47 18 0 19 -5 13 -51z m-662 -118 c-8 -47 -19 -93 -25 -104
-13 -26 -131 -185 -127 -171 8 22 164 363 165 361 1 -1 -5 -40 -13 -86z m6
-165 c-18 -47 -34 -84 -36 -82 -9 9 18 112 38 145 32 54 32 30 -2 -63z"/>
<path d="M1431 2804 c0 -11 3 -14 6 -6 3 7 2 16 -1 19 -3 4 -6 -2 -5 -13z"/>
<path d="M1532 2770 c-1 -14 5 -63 12 -110 9 -55 14 -71 14 -45 1 44 -25 195
-26 155z"/>
<path d="M1422 2705 c0 -16 2 -22 5 -12 2 9 2 23 0 30 -3 6 -5 -1 -5 -18z"/>
<path d="M1413 2610 c0 -25 2 -35 4 -22 2 12 2 32 0 45 -2 12 -4 2 -4 -23z"/>
<path d="M973 2525 c0 -33 2 -45 4 -27 2 18 2 45 0 60 -2 15 -4 0 -4 -33z"/>
<path d="M1403 2490 c0 -30 2 -43 4 -27 2 15 2 39 0 55 -2 15 -4 2 -4 -28z"/>
<path d="M1393 2365 c0 -27 2 -38 4 -22 2 15 2 37 0 50 -2 12 -4 0 -4 -28z"/>
<path d="M1394 2220 c0 -52 1 -74 3 -47 2 26 2 68 0 95 -2 26 -3 4 -3 -48z"/>
</g>
</svg>
