<?xml version="1.0" standalone="no"?>
<!DOCTYPE svg PUBLIC "-//W3C//DTD SVG 20010904//EN"
 "http://www.w3.org/TR/2001/REC-SVG-20010904/DTD/svg10.dtd">
<svg version="1.0" xmlns="http://www.w3.org/2000/svg"
 width="244.000000pt" height="305.000000pt" viewBox="0 0 244.000000 305.000000"
 preserveAspectRatio="xMidYMid meet">
<metadata>
Created by potrace 1.16, written by Peter Selinger 2001-2019
</metadata>
<g transform="translate(0.000000,305.000000) scale(0.100000,-0.100000)"
fill="#000000" stroke="none">
<path d="M971 2910 c-1 -3 -10 -59 -21 -125 -25 -151 -47 -404 -55 -654 l-7
-194 42 -38 c23 -21 50 -41 61 -44 16 -5 17 -10 8 -27 -11 -20 -12 -20 -33 7
-19 23 -31 28 -69 29 -54 1 -78 -21 -74 -68 2 -25 6 -29 40 -32 46 -4 53 -8
72 -44 15 -28 11 -60 -6 -60 -28 0 9 -153 56 -235 l24 -41 -24 -39 c-26 -44
-25 -46 -40 50 -9 54 -20 65 -57 58 -29 -6 -29 -5 -23 30 9 44 -11 57 -85 57
-46 0 -51 -2 -61 -27 -8 -21 -7 -52 4 -118 8 -49 13 -94 10 -99 -10 -15 -32
37 -34 79 -3 93 -17 99 -18 7 -1 -91 -1 -92 -24 -87 -18 5 -33 -6 -81 -62 -32
-37 -77 -90 -101 -118 -118 -138 -144 -170 -140 -174 3 -2 23 4 44 14 22 10
47 15 56 11 10 -3 79 23 171 66 117 54 154 76 154 90 0 39 62 4 91 -53 27 -53
24 -76 -10 -93 -32 -17 -25 3 -106 -326 -62 -254 -66 -283 -32 -230 16 26 23
30 25 17 6 -28 15 -20 62 55 25 39 55 87 68 105 12 19 22 35 22 37 0 2 29 47
65 102 65 98 66 99 60 153 l-7 54 61 -5 c41 -3 67 -10 82 -23 38 -35 40 -49
13 -87 l-25 -35 41 -264 c51 -329 61 -391 66 -387 3 4 74 437 94 581 9 64 9
70 -14 104 -28 41 -24 57 20 92 19 15 41 21 80 21 59 0 65 -7 51 -61 -8 -35
-5 -43 90 -193 54 -86 116 -186 137 -221 42 -69 62 -83 52 -37 l-6 27 20 -24
c18 -21 20 -21 20 -4 0 10 -24 118 -54 238 -30 121 -58 237 -62 259 -5 28 -15
43 -35 55 -22 12 -29 23 -29 47 0 29 35 88 62 106 24 15 48 9 48 -12 0 -21 30
-38 230 -125 47 -21 89 -41 95 -46 5 -5 15 -9 23 -9 12 0 12 2 1 17 -13 15
-11 16 14 9 15 -3 27 -3 27 0 0 9 -181 226 -239 287 -25 26 -53 47 -63 47 -16
0 -18 10 -19 83 -1 70 -2 76 -10 42 -4 -22 -8 -59 -8 -82 -1 -24 -5 -43 -9
-43 -4 0 -6 45 -4 100 4 86 2 104 -13 120 -18 20 -75 27 -109 14 -18 -7 -21
-40 -5 -81 8 -23 8 -26 -2 -15 -17 16 -79 16 -83 0 -2 -7 -8 -35 -12 -62 -11
-59 -23 -66 -46 -26 -18 32 -16 49 12 90 44 63 65 186 40 227 -11 17 -10 26 6
54 16 27 28 35 60 39 31 4 40 9 42 28 5 36 -23 70 -65 78 -33 6 -40 4 -63 -24
l-26 -31 -26 29 c-25 29 -60 38 -84 22 -18 -11 -34 -48 -34 -76 0 -23 4 -26
38 -26 31 0 41 -5 56 -30 16 -29 16 -33 2 -55 -9 -13 -16 -35 -16 -49 0 -45
-43 -118 -108 -183 -25 -25 -26 -58 -3 -58 22 0 86 56 115 100 14 22 26 33 26
24 0 -37 -91 -134 -144 -153 -13 -4 -17 -13 -14 -31 3 -14 1 -25 -3 -25 -13 0
-10 107 4 160 10 37 19 48 50 63 44 22 46 31 12 53 -42 27 -70 12 -96 -52 -22
-51 -24 -54 -32 -32 -36 92 -66 114 -112 84 -32 -21 -32 -34 -1 -42 34 -8 56
-35 63 -79 l6 -36 -31 28 c-43 39 -102 141 -102 175 0 16 -7 40 -16 53 -14 22
-14 26 2 55 15 25 25 30 56 30 36 0 38 2 38 30 0 20 -9 40 -26 56 -21 22 -31
25 -62 19 l-37 -7 34 36 34 35 -6 253 c-7 253 -25 468 -52 627 -14 79 -24 112
-26 80 0 -8 -4 -6 -9 6 -5 11 -9 18 -9 15z m28 -587 c1 -365 -4 -447 -23 -396
-9 21 -8 547 1 738 12 252 21 101 22 -342z m63 -860 c13 -18 40 -45 60 -59 31
-22 40 -24 53 -14 13 11 15 6 15 -39 0 -28 -4 -51 -9 -51 -4 0 -6 11 -3 25 3
20 -1 27 -22 35 -62 23 -110 75 -135 145 -12 33 -13 34 41 -42z m23 -142 c3
-5 19 -12 35 -16 27 -6 30 -11 30 -45 0 -29 4 -39 20 -43 32 -8 25 -44 -12
-63 -18 -9 -30 -13 -26 -9 10 11 -11 35 -29 35 -8 0 -30 -7 -49 -16 -32 -16
-36 -15 -54 1 -29 26 -25 32 18 31 l37 -1 -3 68 c-3 55 -1 67 12 67 8 0 17 -4
21 -9z m331 -62 c-8 -67 4 -81 55 -62 34 13 37 5 9 -25 -24 -26 -27 -26 -60
-7 -33 19 -65 19 -84 -1 -24 -24 -56 -9 -56 27 0 22 5 29 20 29 20 0 24 12 20
58 -1 15 4 22 17 22 10 1 29 7 43 14 14 8 29 12 34 9 4 -3 5 -32 2 -64z m-683
-16 c-4 -10 -17 -31 -30 -46 -13 -16 -23 -32 -23 -37 0 -9 -103 -90 -138 -109
-15 -8 -21 -8 -25 2 -3 8 -10 5 -23 -9 -23 -27 -74 -60 -73 -48 1 14 69 67 87
69 14 2 102 79 197 173 25 25 36 27 28 5z m1242 -149 c67 -80 75 -93 35 -63
-19 14 -50 48 -68 75 -19 27 -49 66 -68 88 -19 21 -34 43 -34 47 0 9 49 -45
135 -147z m-774 -66 c4 -25 12 -56 19 -68 17 -31 31 -13 45 57 7 33 17 59 26
61 11 4 12 2 2 -9 -7 -7 -13 -29 -13 -48 0 -38 -28 -104 -45 -105 -16 -2 -45
66 -45 105 0 19 -6 41 -12 48 -11 11 -10 13 2 9 9 -3 18 -23 21 -50z m-253
-40 c-4 -53 -14 -92 -37 -141 -17 -37 -31 -70 -31 -73 0 -12 -93 -204 -97
-200 -9 9 28 127 75 236 37 87 54 126 63 143 5 9 12 38 16 62 9 70 16 53 11
-27z m742 -248 c23 -96 46 -187 50 -202 5 -16 7 -28 4 -28 -11 0 -34 73 -55
167 -11 54 -27 121 -34 148 -23 87 -27 111 -17 100 6 -5 29 -89 52 -185z m-11
-194 c29 -47 26 -58 -4 -14 -14 20 -25 39 -25 42 0 13 10 4 29 -28z m-936 -31
c-3 -9 -8 -14 -10 -11 -3 3 -2 9 2 15 9 16 15 13 8 -4z"/>
<path d="M1469 2895 c-1 -11 -1 -42 0 -70 1 -35 -1 -46 -8 -36 -7 10 -8 1 -5
-30 4 -33 3 -40 -5 -29 -9 11 -10 2 -6 -40 3 -32 2 -47 -3 -37 -13 31 -31
-185 -38 -466 l-7 -257 36 -35 c20 -19 42 -35 50 -35 21 0 87 64 87 84 0 9 -4
15 -9 12 -9 -6 -27 482 -17 491 3 4 7 -34 7 -83 1 -49 5 -154 9 -234 7 -123 7
-112 4 74 -3 120 -8 246 -12 280 l-7 61 -7 -45 c-4 -26 -5 -8 -2 45 2 50 1
106 -3 125 -6 33 -7 34 -13 10 -4 -17 -9 4 -16 62 -5 48 -5 84 -1 81 14 -9 -3
60 -19 77 -12 12 -14 12 -15 -5z m58 -297 c-2 -13 -4 -5 -4 17 -1 22 1 32 4
23 2 -10 2 -28 0 -40z"/>
<path d="M1227 2584 c-30 -97 -56 -375 -57 -583 0 -74 -2 -132 -4 -130 -3 2
-11 55 -19 117 -20 149 -30 161 -47 56 -6 -33 -10 -82 -10 -110 0 -42 4 -54
26 -73 22 -19 25 -28 22 -74 -3 -50 -4 -52 -33 -52 -27 0 -30 -3 -27 -30 2
-16 8 -35 14 -42 14 -18 47 -16 54 2 11 27 24 16 24 -19 0 -21 6 -36 15 -40 9
-3 23 -22 31 -41 14 -34 34 -40 34 -11 0 7 11 25 25 40 17 18 25 39 26 64 0
37 0 37 16 15 23 -34 51 -29 69 12 18 44 11 58 -27 50 l-29 -7 0 56 c0 47 4
60 25 78 21 18 25 30 25 78 0 57 -15 159 -26 169 -11 12 -23 -26 -29 -95 -13
-138 -23 -146 -24 -19 -2 217 -36 549 -60 594 -7 12 -10 11 -14 -5z"/>
</g>
</svg>
