<?xml version="1.0" standalone="no"?>
<!DOCTYPE svg PUBLIC "-//W3C//DTD SVG 20010904//EN"
 "http://www.w3.org/TR/2001/REC-SVG-20010904/DTD/svg10.dtd">
<svg version="1.0" xmlns="http://www.w3.org/2000/svg"
 width="244.000000pt" height="305.000000pt" viewBox="0 0 244.000000 305.000000"
 preserveAspectRatio="xMidYMid meet">
<metadata>
Created by potrace 1.16, written by Peter Selinger 2001-2019
</metadata>
<g transform="translate(0.000000,305.000000) scale(0.100000,-0.100000)"
fill="#000000" stroke="none">
<path d="M996 2879 c-3 -17 -10 -28 -15 -24 -6 3 -8 12 -5 19 3 8 0 17 -6 21
-8 5 -9 -9 -5 -52 4 -32 -1 -161 -9 -287 -9 -127 -16 -275 -16 -330 0 -56 -3
-144 -7 -198 -5 -80 -8 -95 -21 -90 -13 5 -14 37 -8 251 3 135 8 278 11 316 4
66 3 67 -5 20 -5 -27 -12 -176 -16 -330 l-7 -280 27 -13 c38 -17 32 -30 -18
-37 -48 -8 -73 -27 -76 -60 -4 -39 0 -45 31 -45 42 0 64 -14 79 -50 10 -25 10
-34 -4 -55 -9 -13 -16 -34 -16 -45 0 -32 37 -129 65 -172 29 -43 32 -70 10
-88 -21 -17 -25 -11 -33 47 -7 46 -9 48 -42 53 -32 5 -35 8 -32 36 4 44 -15
56 -89 52 -56 -3 -65 -6 -78 -29 -13 -24 -13 -34 2 -97 22 -91 22 -114 0 -110
-15 3 -19 18 -24 81 -9 111 -23 111 -16 0 l6 -92 -28 5 c-22 5 -32 1 -43 -15
-9 -12 -33 -41 -54 -64 -86 -93 -227 -258 -223 -261 2 -2 32 7 67 21 68 27 86
25 57 -7 -32 -36 -10 -32 86 16 51 26 126 61 166 80 45 20 73 39 73 48 0 22
13 20 37 -6 52 -57 58 -111 15 -126 -28 -10 -30 -16 -95 -279 -37 -148 -67
-275 -67 -282 0 -8 12 3 28 22 68 90 64 88 58 37 -3 -25 -8 -54 -12 -63 -10
-27 9 -20 27 11 9 15 69 114 134 220 l117 193 -10 42 c-6 22 -8 45 -5 50 10
16 111 2 134 -19 38 -34 40 -49 13 -85 -28 -38 -29 -25 7 -249 45 -282 71
-435 75 -439 2 -2 4 -2 4 0 0 3 11 77 25 165 14 87 32 202 40 254 8 52 19 119
25 149 14 76 13 86 -16 120 -21 25 -23 34 -14 51 18 33 71 60 117 60 48 0 54
-9 40 -62 -8 -31 -6 -43 9 -65 10 -16 23 -35 29 -45 5 -9 26 -42 45 -73 19
-31 40 -64 45 -73 80 -134 118 -193 127 -198 8 -5 9 -1 5 10 -10 25 -21 102
-14 96 3 -3 28 -36 56 -75 54 -74 60 -72 36 15 -8 30 -38 150 -66 265 -28 116
-54 217 -58 225 -4 8 -19 17 -32 20 -32 8 -34 30 -10 85 23 51 43 64 66 41 24
-24 294 -150 303 -142 3 3 -3 15 -13 26 -25 27 -12 25 86 -14 46 -19 86 -33
88 -30 4 3 -113 142 -239 282 -56 64 -68 72 -92 68 l-27 -5 6 91 c4 61 3 89
-4 85 -6 -4 -13 -41 -15 -82 -6 -86 -21 -115 -38 -71 -5 15 -8 32 -5 37 3 5
12 39 20 76 12 59 12 71 -1 90 -13 20 -23 23 -84 23 -81 0 -103 -14 -93 -60 6
-31 1 -35 -39 -31 -22 3 -38 -29 -38 -73 0 -44 -14 -46 -35 -6 -9 17 -11 30
-6 30 15 0 81 144 87 193 5 38 3 51 -11 67 -15 17 -16 23 -5 51 16 39 51 62
87 57 24 -3 28 1 31 24 2 19 -5 36 -23 54 -24 24 -30 25 -78 19 l-52 -8 43 43
43 43 -6 181 c-11 329 -33 563 -69 731 -11 51 -14 56 -20 35 -4 -14 -3 -44 1
-65 5 -22 6 -71 3 -109 -3 -38 -2 -220 1 -405 3 -185 4 -348 1 -363 -6 -35
-30 -36 -38 -2 -4 14 -5 192 -2 396 3 278 7 373 16 376 8 2 12 26 12 65 0 67
-16 69 -23 2 -3 -22 -3 -4 -1 40 5 123 -12 61 -37 -133 -11 -92 -26 -291 -33
-442 -7 -151 -14 -257 -16 -235 -3 58 -14 90 -30 90 -11 0 -19 -28 -30 -115
l-16 -115 -7 205 c-9 266 -46 548 -67 509 -25 -47 -60 -367 -60 -558 0 -68 -2
-122 -5 -119 -3 3 -10 45 -16 94 -6 49 -14 92 -17 96 -19 19 -35 -15 -41 -83
l-6 -74 -6 100 -5 100 -2 -92 c-1 -54 -6 -93 -12 -93 -6 0 -10 56 -10 148 -1
150 -10 293 -34 532 -8 74 -12 165 -10 203 3 72 0 85 -10 36z m116 -1015 c25
-27 29 -37 26 -80 -3 -49 -3 -49 -35 -46 -29 3 -33 0 -33 -20 0 -54 56 -90 79
-50 9 14 10 12 11 -15 0 -22 6 -36 21 -43 11 -7 27 -27 35 -46 8 -19 16 -34
19 -34 3 0 11 16 19 35 8 19 22 38 31 41 9 4 15 19 15 40 0 35 13 46 24 19 15
-40 76 3 76 53 0 20 -4 23 -32 20 -33 -3 -33 -3 -36 45 -3 41 1 53 26 82 16
18 32 39 34 47 4 10 10 9 27 -6 29 -26 27 -44 -3 -39 -34 7 -76 -36 -76 -77 0
-28 3 -30 35 -30 30 0 38 -5 52 -35 15 -32 15 -36 0 -53 -9 -10 -17 -33 -17
-51 0 -18 -5 -41 -10 -52 -11 -19 -11 -19 -40 2 -50 37 -79 17 -117 -81 l-10
-25 -7 25 c-26 89 -67 118 -116 81 -27 -20 -30 -20 -38 -4 -6 10 -13 34 -16
53 -4 19 -12 45 -19 58 -18 38 9 76 56 80 35 3 37 5 37 38 0 52 -31 78 -84 70
l-41 -6 34 32 c26 23 36 27 39 17 3 -8 18 -28 34 -45z m380 -26 c-15 -15 -26
-4 -18 18 5 13 9 15 18 6 9 -9 9 -15 0 -24z m-490 7 c0 -5 -5 -11 -11 -13 -6
-2 -11 4 -11 13 0 9 5 15 11 13 6 -2 11 -8 11 -13z m378 -311 c0 -10 -43 -68
-62 -84 -21 -18 -28 -61 -11 -67 7 -2 32 15 58 38 25 23 45 37 45 31 0 -19
-47 -67 -89 -89 l-41 -22 0 29 c0 16 5 52 11 80 9 41 17 55 42 71 33 19 47 23
47 13z m-233 -12 c16 -10 33 -58 32 -90 0 -24 -1 -25 -9 -7 -4 11 -22 33 -39
49 -17 17 -31 36 -31 43 0 14 28 17 47 5z m-45 -102 c43 -41 72 -50 81 -27 3
6 6 -12 6 -40 1 -29 -3 -53 -8 -53 -4 0 -6 10 -4 23 3 17 -3 26 -29 41 -40 23
-77 55 -89 79 -15 27 -3 20 43 -23z m583 -75 c-3 -26 -9 -44 -13 -41 -7 8 -4
75 4 88 12 19 16 -3 9 -47z m-538 -74 c-6 -31 1 -51 19 -51 7 0 18 -9 24 -20
9 -16 6 -22 -15 -36 -22 -15 -26 -15 -40 0 -20 20 -36 20 -83 1 -34 -15 -38
-15 -49 1 -20 27 -16 31 25 30 l37 -1 -4 67 -3 68 47 -18 c41 -15 46 -20 42
-41z m147 44 c3 -8 1 -15 -4 -15 -6 0 -10 7 -10 15 0 8 2 15 4 15 2 0 6 -7 10
-15z m114 -52 l-3 -68 38 -3 c37 -3 38 -4 22 -22 -15 -17 -19 -17 -52 -3 -36
15 -83 11 -83 -7 0 -15 -27 -12 -44 5 -19 20 -10 44 21 56 22 8 24 13 19 44
-6 29 -4 35 11 35 10 1 29 7 43 15 14 8 27 14 28 15 2 0 2 -30 0 -67z m-744
-2 c10 -15 -121 -158 -189 -206 -36 -26 -68 -46 -70 -43 -2 2 46 61 107 131
102 117 136 144 152 118z m1236 -184 c0 -5 -24 4 -52 21 -46 25 -53 34 -54 61
0 18 -9 39 -22 51 -12 12 -22 30 -22 41 0 15 23 -8 75 -73 41 -51 74 -97 75
-101z m-1152 71 c7 -7 12 -15 12 -20 0 -10 -60 -41 -68 -34 -3 3 0 6 6 6 7 0
12 11 12 23 0 36 16 47 38 25z m1230 -65 c53 -42 99 -78 101 -80 2 -2 2 -5 0
-8 -3 -2 -37 10 -75 29 -49 24 -79 46 -101 77 -31 40 -40 59 -28 59 3 0 49
-35 103 -77z m-1298 0 c0 -10 -163 -94 -169 -87 -7 7 28 31 94 64 63 31 75 35
75 23z m521 -55 c7 -42 24 -88 34 -88 10 0 27 46 34 88 3 27 12 47 21 50 12 4
13 2 3 -9 -7 -7 -13 -28 -13 -47 0 -34 -24 -97 -41 -108 -16 -9 -49 60 -49
102 0 22 -6 46 -12 53 -11 11 -10 13 2 9 9 -3 18 -23 21 -50z m730 -5 c13 -16
12 -17 -3 -4 -17 13 -22 21 -14 21 2 0 10 -8 17 -17z m-1024 -25 c-3 -8 -6 -5
-6 6 -1 11 2 17 5 13 3 -3 4 -12 1 -19z m688 -125 c31 -77 66 -223 54 -223 -5
0 -32 48 -61 106 -38 78 -53 122 -56 163 -5 56 -5 56 16 38 11 -11 32 -48 47
-84z m-746 40 c-38 -171 -55 -227 -86 -297 -38 -85 -61 -120 -49 -76 3 14 27
108 52 210 26 102 52 188 58 192 26 18 34 8 25 -29z m140 -27 c7 -26 7 -36 0
-29 -5 5 -12 27 -14 49 -6 44 -1 37 14 -20z m-34 -108 c-12 -29 -60 -113 -137
-241 -12 -21 -24 -33 -26 -27 -6 17 61 150 101 203 21 26 37 49 37 52 0 5 33
45 37 45 1 0 -4 -15 -12 -32z m761 -174 c24 -54 42 -99 40 -101 -9 -10 -69 93
-82 141 -27 100 -16 90 42 -40z m-33 -79 c5 -26 4 -25 -13 10 -11 22 -19 47
-19 55 0 21 25 -29 32 -65z"/>
<path d="M1022 2780 c0 -14 2 -19 5 -12 2 6 2 18 0 25 -3 6 -5 1 -5 -13z"/>
<path d="M942 2760 c0 -14 2 -19 5 -12 2 6 2 18 0 25 -3 6 -5 1 -5 -13z"/>
<path d="M925 2665 c-4 -37 -5 -69 -2 -72 3 -2 8 25 12 62 4 36 5 68 2 71 -2
3 -8 -25 -12 -61z"/>
<path d="M1032 2700 c0 -14 2 -19 5 -12 2 6 2 18 0 25 -3 6 -5 1 -5 -13z"/>
<path d="M1043 2620 c0 -30 2 -43 4 -27 2 15 2 39 0 55 -2 15 -4 2 -4 -28z"/>
<path d="M1053 2510 c0 -30 2 -43 4 -27 2 15 2 39 0 55 -2 15 -4 2 -4 -28z"/>
<path d="M1064 2330 c0 -69 1 -97 3 -62 2 34 2 90 0 125 -2 34 -3 6 -3 -63z"/>
</g>
</svg>
