<?xml version="1.0" standalone="no"?>
<!DOCTYPE svg PUBLIC "-//W3C//DTD SVG 20010904//EN"
 "http://www.w3.org/TR/2001/REC-SVG-20010904/DTD/svg10.dtd">
<svg version="1.0" xmlns="http://www.w3.org/2000/svg"
 width="244.000000pt" height="305.000000pt" viewBox="0 0 244.000000 305.000000"
 preserveAspectRatio="xMidYMid meet">
<metadata>
Created by potrace 1.16, written by Peter Selinger 2001-2019
</metadata>
<g transform="translate(0.000000,305.000000) scale(0.100000,-0.100000)"
fill="#000000" stroke="none">
<path d="M917 2893 c-3 -5 -12 -46 -21 -93 -46 -250 -64 -446 -67 -713 -1
-145 1 -163 16 -172 10 -5 33 -22 50 -37 l32 -28 19 21 c10 12 31 27 46 35
l28 15 0 117 c0 223 -23 503 -57 695 -24 135 -26 97 -3 -54 21 -140 50 -506
50 -645 l0 -81 -40 -27 c-22 -14 -42 -26 -45 -26 -3 0 -5 216 -5 481 0 264 4
478 9 475 4 -3 6 6 3 19 -5 26 -8 30 -15 18z"/>
<path d="M1526 2823 c-44 -209 -76 -547 -76 -815 0 -76 2 -87 19 -93 10 -3 31
-17 47 -32 22 -20 31 -23 43 -14 29 21 76 51 84 54 10 3 -8 479 -23 597 -18
146 -42 301 -47 296 -2 -2 5 -66 16 -143 26 -180 41 -382 41 -568 l0 -150 -34
-27 c-19 -16 -38 -28 -41 -28 -3 0 -4 225 -3 500 2 275 0 500 -3 500 -3 0 -14
-35 -23 -77z"/>
<path d="M1102 2688 c-7 -106 -12 -267 -12 -358 0 -98 -7 -213 -16 -280 -9
-63 -14 -132 -11 -153 5 -36 4 -38 -18 -33 -12 3 -36 1 -52 -5 -29 -9 -38 -22
-60 -78 -9 -24 -10 -23 -32 22 -17 36 -30 49 -54 55 -57 15 -96 -11 -100 -64
-2 -28 0 -29 36 -26 32 3 43 -2 72 -31 38 -38 43 -58 20 -77 -35 -29 -1 -160
60 -232 14 -16 25 -34 25 -39 0 -5 -16 -32 -35 -60 -41 -60 -42 -67 -14 -103
16 -20 19 -30 11 -38 -8 -8 -17 -4 -31 13 -21 25 -22 26 -27 104 -6 103 -17
140 -42 143 -13 2 -35 -4 -49 -13 -23 -15 -25 -22 -21 -68 3 -40 18 -77 66
-162 58 -104 73 -147 54 -159 -5 -3 -14 17 -21 44 -7 29 -35 80 -65 122 -82
115 -95 173 -51 243 31 51 31 60 -4 75 -45 18 -93 9 -110 -21 -13 -24 -13 -35
2 -97 9 -38 17 -93 17 -121 0 -43 -4 -56 -26 -76 -21 -20 -25 -31 -21 -55 5
-22 2 -32 -11 -39 -37 -19 -314 -122 -318 -118 -3 2 72 54 165 116 93 62 175
119 181 126 10 12 9 29 -4 80 -9 35 -16 82 -16 104 0 22 -5 43 -12 47 -8 5
-10 -17 -5 -88 l5 -95 -33 1 c-30 1 -50 -16 -208 -171 -96 -95 -172 -173 -168
-173 4 0 79 25 167 56 87 30 187 65 222 77 52 18 62 25 62 44 0 33 19 37 73
13 52 -23 94 -71 99 -114 3 -28 -6 -38 -44 -50 -18 -5 -38 -65 -122 -356 -25
-85 -49 -170 -55 -188 -5 -18 -6 -32 -2 -30 5 2 91 101 191 221 l183 218 -12
38 c-18 60 -17 61 53 61 56 0 64 -2 60 -17 -5 -25 -54 -495 -53 -513 1 -17 22
48 75 225 19 66 39 124 43 128 5 5 11 -15 15 -44 7 -48 86 -468 104 -549 8
-33 9 -29 25 50 9 47 30 157 47 245 17 88 36 187 41 220 6 33 14 64 18 68 4 4
32 -71 61 -168 29 -96 54 -174 55 -172 7 7 -9 116 -16 112 -4 -3 -6 21 -4 52
3 41 2 48 -3 23 -7 -33 -8 -30 -21 40 -7 41 -23 121 -36 177 -12 56 -19 106
-16 111 3 5 43 9 89 11 90 2 89 3 71 -59 -11 -36 -10 -39 37 -97 141 -172 328
-392 331 -389 2 2 -3 30 -12 62 -15 50 -125 429 -142 487 -2 11 -21 25 -40 34
-33 13 -35 16 -30 51 7 45 66 102 123 120 44 13 54 9 54 -23 0 -18 9 -26 43
-38 23 -8 107 -38 187 -67 80 -29 156 -55 170 -60 14 -4 33 -11 44 -16 10 -4
17 -3 15 2 -2 5 -84 87 -181 182 -171 168 -178 174 -209 167 l-32 -7 6 85 c4
47 3 88 -2 91 -10 6 -21 -74 -21 -151 l0 -53 43 6 42 5 132 -133 c73 -73 136
-137 140 -142 12 -13 -75 37 -233 136 -112 70 -144 95 -157 123 -22 46 -22 54
4 152 21 77 21 84 5 108 -13 20 -24 25 -61 25 -42 0 -75 -18 -75 -42 0 -6 10
-26 21 -45 17 -27 20 -46 17 -92 -3 -48 -11 -68 -43 -112 -84 -117 -85 -119
-85 -180 0 -83 11 -104 61 -121 l42 -14 58 -192 c57 -189 76 -262 67 -252 -5
5 -102 182 -191 349 -27 52 -51 106 -53 120 -2 14 -9 44 -17 66 -13 36 -12 44
4 81 9 23 28 59 42 80 85 136 101 193 67 237 -21 26 -53 34 -76 19 -13 -8 -27
-99 -26 -157 2 -39 -37 -115 -58 -115 -19 0 -10 37 11 52 29 19 20 70 -21 118
-33 39 -36 52 -17 72 26 26 64 93 80 143 19 55 16 91 -8 109 -40 29 31 106 96
106 34 0 39 3 39 23 0 54 -64 92 -112 66 -30 -16 -46 -37 -56 -74 l-9 -30 -18
44 c-21 50 -67 77 -108 62 -13 -5 -29 -6 -36 -2 -10 6 -9 10 3 14 19 8 21 63
5 172 -13 82 -22 86 -37 15 -7 -33 -10 61 -11 345 0 215 -1 410 -2 435 -4 83
-16 -104 -24 -365 -4 -137 -11 -257 -16 -265 -6 -10 -8 0 -9 30 0 59 -35 274
-53 325 l-14 39 -7 -28 c-39 -154 -64 -342 -73 -536 -5 -100 -17 -136 -28 -79
-3 19 -5 233 -3 477 2 243 0 442 -3 442 -3 0 -11 -87 -17 -192z m178 -408 c8
-78 8 -141 0 -245 -22 -277 -23 -305 -10 -346 7 -21 17 -39 22 -39 4 0 8 -4 8
-10 0 -21 -30 -9 -31 13 -1 20 -2 20 -6 2 -18 -75 -23 0 -23 360 0 392 6 498
21 410 4 -22 12 -87 19 -145z m37 -112 c-3 -8 -6 -5 -6 6 -1 11 2 17 5 13 3
-3 4 -12 1 -19z m-166 -285 c-8 -15 -10 -15 -11 -2 0 17 10 32 18 25 2 -3 -1
-13 -7 -23z m176 -15 c-3 -7 -5 -2 -5 12 0 14 2 19 5 13 2 -7 2 -19 0 -25z
m-32 -68 c-1 -38 -3 -72 -7 -75 -8 -9 -18 67 -12 95 16 69 19 66 19 -20z
m-176 23 c0 -25 -1 -26 -9 -8 -12 27 -12 35 0 35 6 0 10 -12 9 -27z m242 -9
c-9 -28 -9 -29 -10 -3 -1 14 2 29 6 32 11 12 13 2 4 -29z m-269 -67 c4 -6 4
-16 1 -21 -4 -6 -8 -5 -11 2 -5 17 -31 15 -38 -2 -6 -17 9 -49 37 -77 25 -25
24 -57 -2 -85 -21 -22 -21 -22 -1 -29 12 -3 23 -18 27 -36 10 -43 2 -45 -29
-7 -15 18 -38 45 -51 61 -14 15 -28 45 -31 67 -4 22 -13 45 -20 51 -21 17 -17
43 11 73 22 23 30 26 62 20 21 -4 41 -12 45 -17z m397 -3 c25 -31 27 -57 6
-74 -8 -7 -15 -23 -15 -37 0 -28 -15 -59 -41 -88 -10 -11 -32 -36 -48 -55 -16
-19 -32 -33 -35 -29 -11 11 11 64 32 75 22 11 22 11 2 29 -26 24 -27 81 -2 90
19 5 42 44 42 70 0 18 -21 20 -37 4 -8 -8 -13 -7 -18 1 -9 14 3 26 30 33 45
11 64 6 84 -19z m-342 -76 c-3 -7 -5 -2 -5 12 0 14 2 19 5 13 2 -7 2 -19 0
-25z m180 0 c-3 -7 -5 -2 -5 12 0 14 2 19 5 13 2 -7 2 -19 0 -25z m-362 -123
c36 -70 41 -96 15 -80 -27 17 -78 155 -57 155 2 0 21 -34 42 -75z m232 48 c4
-12 -25 -26 -38 -17 -5 3 -9 14 -9 24 0 16 4 18 22 11 12 -4 24 -13 25 -18z
m115 -15 c-12 -12 -42 -4 -42 12 0 6 10 14 23 19 16 6 23 5 25 -6 2 -8 -1 -20
-6 -25z m35 20 c-3 -8 -6 -5 -6 6 -1 11 2 17 5 13 3 -3 4 -12 1 -19z m208 -10
c-11 -48 -39 -100 -69 -125 -24 -21 -26 -21 -26 -4 0 10 9 30 20 44 12 14 30
47 41 72 23 53 44 61 34 13z m-310 -65 c-3 -8 -5 -24 -6 -36 -1 -20 -2 -20 -9
3 -12 38 -11 47 5 47 10 0 14 -6 10 -14z m-86 -65 c11 -34 19 -64 16 -66 -6
-6 -34 60 -42 99 -10 49 4 32 26 -33z m177 35 c-11 -45 -38 -114 -43 -109 -6
6 36 136 44 136 3 0 2 -12 -1 -27z m-276 -78 c0 -8 -4 -15 -10 -15 -5 0 -10 7
-10 15 0 8 5 15 10 15 6 0 10 -7 10 -15z m357 -7 c-3 -8 -6 -5 -6 6 -1 11 2
17 5 13 3 -3 4 -12 1 -19z m-287 -34 c0 -18 -26 -18 -33 0 -3 8 -3 16 0 19 9
10 33 -5 33 -19z m240 12 c0 -16 -18 -31 -27 -22 -8 8 5 36 17 36 5 0 10 -6
10 -14z m-351 -93 c0 -35 -1 -36 -10 -14 -5 14 -7 31 -5 38 10 24 16 13 15
-24z m447 -21 c1 -32 -1 -41 -7 -27 -9 24 -12 91 -2 82 3 -4 7 -28 9 -55z
m-393 -20 c8 -34 11 -64 7 -67 -7 -5 -30 83 -30 117 0 34 7 18 23 -50z m98 45
c-13 -13 -26 -3 -16 12 3 6 11 8 17 5 6 -4 6 -10 -1 -17z m147 4 c3 -8 -1 -12
-9 -9 -7 2 -15 10 -17 17 -3 8 1 12 9 9 7 -2 15 -10 17 -17z m87 -66 c-17 -60
-31 -75 -20 -22 15 71 29 112 32 95 3 -10 -3 -43 -12 -73z m-282 -32 c11 -18
27 -16 27 3 0 20 34 14 38 -7 2 -9 -9 -24 -24 -34 -38 -25 -55 -4 -59 76 -3
53 -3 56 3 19 4 -25 11 -51 15 -57z m243 22 c-8 -48 -31 -86 -43 -69 -5 6 -16
13 -26 17 -23 8 -18 40 6 45 11 2 17 -3 17 -15 1 -35 40 27 41 66 1 20 3 28 6
17 3 -10 2 -37 -1 -61z m-376 -55 c0 -11 -7 -20 -15 -20 -18 0 -19 12 -3 28
16 16 18 15 18 -8z m538 0 c-4 -28 -18 -29 -35 -2 -15 21 -14 22 11 22 22 0
27 -4 24 -20z m-635 -212 c-2 -13 0 -42 5 -66 10 -42 9 -44 -46 -116 -105
-135 -215 -267 -219 -262 -3 2 23 58 58 123 34 65 84 161 112 213 48 93 73
130 87 130 4 0 5 -10 3 -22z m357 -24 c0 -7 -4 -16 -10 -19 -5 -3 -10 -4 -10
-1 0 2 -2 11 -5 19 -4 8 0 14 10 14 8 0 15 -6 15 -13z m-143 -78 c-4 -53 -86
-360 -94 -352 -2 1 12 81 31 177 18 96 36 191 40 212 11 62 29 33 23 -37z m45
37 c23 -21 23 -36 -1 -57 -17 -16 -19 -16 -25 6 -8 31 -8 68 1 68 3 0 15 -7
25 -17z m191 -35 c-5 -34 -6 -35 -24 -20 -23 20 -24 30 -2 54 22 24 31 12 26
-34z m-84 1 c1 10 9 7 27 -10 55 -51 55 -56 14 -259 -37 -180 -38 -183 -42
-125 -5 58 -5 58 -4 -12 1 -39 -2 -69 -6 -66 -5 2 -8 115 -7 251 0 147 4 239
9 227 5 -12 9 -14 9 -6z"/>
<path d="M1254 2260 c0 -52 1 -74 3 -47 2 26 2 68 0 95 -2 26 -3 4 -3 -48z"/>
<path d="M1273 755 c0 -33 2 -45 4 -27 2 18 2 45 0 60 -2 15 -4 0 -4 -33z"/>
<path d="M1263 605 c0 -38 2 -53 4 -32 2 20 2 52 0 70 -2 17 -4 1 -4 -38z"/>
<path d="M1561 2844 c0 -11 3 -14 6 -6 3 7 2 16 -1 19 -3 4 -6 -2 -5 -13z"/>
<path d="M1132 2710 c0 -19 2 -27 5 -17 2 9 2 25 0 35 -3 9 -5 1 -5 -18z"/>
<path d="M1363 2645 c0 -22 2 -30 4 -17 2 12 2 30 0 40 -3 9 -5 -1 -4 -23z"/>
<path d="M1143 2505 c0 -33 2 -45 4 -27 2 18 2 45 0 60 -2 15 -4 0 -4 -33z"/>
<path d="M1373 2430 c0 -41 2 -58 4 -37 2 20 2 54 0 75 -2 20 -4 3 -4 -38z"/>
<path d="M1423 875 c0 -27 2 -38 4 -22 2 15 2 37 0 50 -2 12 -4 0 -4 -28z"/>
<path d="M1433 780 c0 -25 2 -35 4 -22 2 12 2 32 0 45 -2 12 -4 2 -4 -23z"/>
<path d="M1443 690 c0 -25 2 -35 4 -22 2 12 2 32 0 45 -2 12 -4 2 -4 -23z"/>
</g>
</svg>
