<?xml version="1.0" standalone="no"?>
<!DOCTYPE svg PUBLIC "-//W3C//DTD SVG 20010904//EN"
 "http://www.w3.org/TR/2001/REC-SVG-20010904/DTD/svg10.dtd">
<svg version="1.0" xmlns="http://www.w3.org/2000/svg"
 width="244.000000pt" height="305.000000pt" viewBox="0 0 244.000000 305.000000"
 preserveAspectRatio="xMidYMid meet">
<metadata>
Created by potrace 1.16, written by Peter Selinger 2001-2019
</metadata>
<g transform="translate(0.000000,305.000000) scale(0.100000,-0.100000)"
fill="#000000" stroke="none">
<path d="M887 2889 c-10 -35 -8 -51 3 -44 7 4 10 -155 10 -469 0 -262 -3 -476
-7 -476 -5 0 -19 9 -33 20 -14 11 -30 20 -36 20 -21 0 -26 52 -19 195 11 262
27 409 71 660 3 22 2 26 -5 15 -17 -27 -60 -320 -71 -478 -5 -85 -10 -212 -10
-283 l0 -129 28 -11 c15 -6 39 -21 53 -35 l25 -24 23 24 c13 13 36 30 52 36
l29 12 0 127 c-1 298 -44 680 -94 826 -12 34 -14 35 -19 14z"/>
<path d="M1565 2890 c-3 -5 -1 -18 5 -29 13 -25 14 -961 1 -961 -5 0 -28 12
-51 28 l-43 27 7 195 c8 220 18 327 47 518 12 73 19 135 17 138 -9 8 -49 -250
-64 -405 -7 -86 -14 -229 -14 -319 l0 -162 27 -11 c14 -5 37 -21 50 -35 l24
-26 34 30 c18 17 43 33 54 37 20 6 21 14 21 113 0 155 -18 407 -40 557 -17
123 -57 315 -65 315 -2 0 -7 -4 -10 -10z"/>
<path d="M1551 2834 c0 -11 3 -14 6 -6 3 7 2 16 -1 19 -3 4 -6 -2 -5 -13z"/>
<path d="M1221 2623 c0 -45 -6 -94 -11 -108 -28 -74 -58 -349 -61 -553 -1
-101 -13 -143 -23 -80 -42 273 -54 290 -77 106 l-12 -91 36 -31 c36 -31 40
-43 38 -104 -1 -37 -24 -51 -53 -33 -28 17 -38 6 -27 -31 15 -54 47 -62 83
-23 29 31 37 32 35 3 -4 -50 1 -66 25 -72 14 -3 28 -17 33 -33 16 -46 4 -52
-31 -17 -30 30 -36 32 -71 24 -47 -11 -66 -27 -45 -40 8 -5 25 -10 37 -10 35
0 60 -36 72 -104 18 -104 16 -122 -20 -135 -25 -9 -30 -15 -27 -38 2 -20 10
-29 28 -33 18 -4 26 -14 28 -32 3 -23 -2 -28 -30 -36 -26 -6 -34 -14 -36 -35
-3 -22 1 -27 18 -27 32 0 60 -18 60 -39 0 -33 32 -111 45 -111 14 0 42 66 47
110 2 19 11 26 37 31 18 4 37 13 42 20 12 19 -7 46 -38 54 -15 3 -31 11 -34
17 -13 20 3 47 30 50 20 2 27 9 29 31 3 23 -2 29 -27 38 -36 13 -39 34 -18
136 15 68 38 103 71 103 12 0 27 4 35 9 25 16 -6 41 -51 41 -32 0 -46 -6 -68
-30 -27 -29 -29 -29 -35 -11 -8 27 11 60 41 71 20 8 24 16 24 50 0 46 11 51
34 15 9 -14 25 -25 36 -25 23 0 50 36 50 68 0 19 -4 23 -17 17 -45 -19 -53
-17 -64 11 -13 35 -5 95 14 106 8 4 24 16 37 26 22 18 22 19 10 108 -7 49 -17
98 -23 109 -10 19 -10 19 -17 0 -4 -11 -15 -71 -25 -133 -20 -126 -35 -131
-35 -12 -1 203 -32 480 -66 586 -9 27 -19 76 -23 109 l-8 60 -2 -82z m3 -543
c2 -201 4 -369 5 -375 0 -5 -2 -29 -5 -52 l-6 -42 -31 15 -30 16 6 257 c5 164
14 310 27 406 11 83 20 155 21 160 5 45 9 -74 13 -385z m17 -591 l-9 -24 -7
29 c-5 20 -4 31 6 37 18 11 23 -9 10 -42z"/>
<path d="M753 1858 c-36 -9 -56 -37 -51 -71 3 -19 8 -21 44 -19 32 3 47 -2 72
-23 43 -36 49 -62 22 -87 -19 -18 -21 -28 -16 -66 7 -49 40 -113 88 -167 29
-34 29 -36 14 -58 -78 -105 -77 -104 -43 -141 48 -53 119 -39 97 18 -13 35
-13 69 1 83 8 8 29 5 75 -10 49 -16 69 -19 82 -11 29 19 19 34 -41 58 -77 32
-121 67 -163 130 -34 51 -56 126 -37 126 5 0 15 -16 22 -35 23 -65 143 -180
209 -200 18 -5 22 -2 22 14 0 14 -17 33 -48 55 -75 54 -132 132 -132 180 0 14
-8 30 -19 35 -25 14 -16 55 17 82 20 15 38 20 72 17 43 -3 45 -2 42 22 -6 40
-28 67 -62 74 -46 9 -82 -12 -106 -63 l-21 -44 -11 29 c-22 63 -68 88 -129 72z"/>
<path d="M1423 1851 c-32 -20 -51 -60 -39 -80 4 -6 25 -8 51 -4 38 5 47 2 69
-20 29 -29 33 -58 12 -76 -7 -6 -16 -29 -20 -50 -7 -45 -69 -125 -133 -171
-48 -34 -61 -77 -20 -65 63 19 176 127 203 194 16 41 34 54 34 26 0 -24 -28
-85 -58 -129 -30 -43 -126 -111 -172 -121 -38 -8 -47 -23 -27 -43 15 -14 22
-14 86 5 61 18 72 19 83 6 9 -11 9 -24 0 -59 -16 -59 -16 -61 13 -68 30 -8 80
16 95 44 12 23 -6 76 -34 99 -39 32 -39 49 -2 94 68 83 98 196 61 227 -23 19
-18 39 20 77 30 30 40 34 77 31 38 -2 43 0 46 20 4 28 -47 82 -78 82 -38 0
-78 -29 -96 -69 -20 -45 -29 -45 -39 -1 -12 56 -81 82 -132 51z"/>
<path d="M570 1520 c-25 -25 -25 -34 1 -123 36 -121 19 -160 -102 -228 -35
-20 -117 -66 -183 -103 -65 -37 -120 -65 -122 -63 -3 2 137 132 265 245 21 20
33 23 67 18 52 -7 53 -3 38 124 -13 116 -30 98 -20 -22 l7 -80 -31 7 c-33 7
-58 -9 -155 -100 -22 -20 -91 -82 -153 -137 -62 -56 -111 -103 -108 -105 5 -6
-1 -8 279 82 114 36 207 69 208 73 5 53 10 56 56 42 62 -20 102 -50 123 -91
27 -52 25 -66 -9 -74 -40 -9 -54 -29 -80 -115 -13 -41 -38 -122 -56 -180 -62
-194 -87 -282 -82 -286 2 -3 65 61 138 142 74 81 151 166 172 188 84 89 91
102 80 151 -6 25 -8 47 -5 50 3 3 44 5 92 5 74 0 92 -3 120 -22 56 -39 59 -53
21 -92 l-33 -34 46 -229 c68 -334 86 -416 90 -420 2 -2 8 20 14 49 6 29 36
177 67 328 l57 275 -31 27 c-45 40 -37 69 26 101 35 19 197 24 208 8 3 -5 -2
-28 -11 -50 l-16 -41 43 -48 c210 -229 363 -391 366 -388 3 2 -30 114 -72 248
-42 133 -81 258 -87 277 -8 26 -20 37 -49 49 -28 11 -39 21 -39 36 0 46 61
108 129 131 58 20 59 20 63 -12 3 -27 11 -31 238 -106 129 -42 238 -76 242
-75 11 4 -1 17 -57 68 -28 25 -93 84 -145 131 -170 154 -166 151 -200 144
l-30 -7 7 91 c7 107 -10 128 -21 25 -4 -37 -13 -82 -21 -101 -8 -18 -12 -40
-9 -47 3 -8 58 -46 122 -86 235 -145 281 -174 278 -177 -2 -2 -305 101 -359
122 -15 6 -17 15 -12 45 5 32 3 39 -13 44 -45 15 -54 99 -21 208 25 80 18 113
-26 124 -35 9 -95 -2 -113 -20 -12 -12 -11 -19 12 -52 19 -28 26 -51 26 -87 0
-57 -16 -92 -81 -169 -85 -102 -100 -201 -46 -302 65 -118 139 -249 161 -285
31 -49 68 -121 61 -121 -3 0 -73 78 -155 173 -131 150 -150 175 -144 197 4 14
8 63 9 110 3 95 12 121 80 225 61 93 75 127 75 174 0 49 -20 71 -66 71 -29 0
-34 -4 -39 -27 -4 -16 -11 -47 -16 -71 -5 -24 -7 -58 -4 -75 5 -27 0 -41 -29
-79 -41 -54 -82 -69 -118 -44 -12 9 -42 16 -65 16 l-43 0 0 -38 c0 -43 -14
-62 -47 -62 -18 0 -23 -7 -28 -37 -11 -63 -16 -73 -46 -102 l-29 -28 -2 -299
-3 -299 -29 135 c-16 74 -35 160 -43 190 -7 30 -16 80 -19 110 -5 54 -5 56 35
97 l40 42 4 -37 c3 -34 4 -33 5 10 2 47 -12 91 -35 116 -7 7 -13 23 -13 35 0
49 -11 67 -40 67 -31 0 -45 24 -42 73 2 26 0 27 -42 27 -24 0 -58 -8 -74 -17
-38 -22 -68 -10 -108 43 -22 29 -29 49 -30 88 -1 28 -6 76 -10 106 -9 54 -10
55 -45 58 -47 4 -74 -25 -73 -79 1 -28 17 -65 60 -136 32 -54 67 -114 77 -132
33 -60 21 -99 -90 -286 -55 -94 -119 -203 -142 -243 -24 -41 -45 -71 -47 -69
-3 3 20 81 50 173 93 285 81 260 131 273 49 12 65 41 65 118 0 51 -17 87 -76
163 -47 60 -74 116 -74 152 0 13 12 41 25 63 14 22 25 48 25 57 0 40 -104 54
-140 18z"/>
<path d="M1213 590 c0 -30 2 -43 4 -27 2 15 2 39 0 55 -2 15 -4 2 -4 -28z"/>
</g>
</svg>
