<?xml version="1.0" standalone="no"?>
<!DOCTYPE svg PUBLIC "-//W3C//DTD SVG 20010904//EN"
 "http://www.w3.org/TR/2001/REC-SVG-20010904/DTD/svg10.dtd">
<svg version="1.0" xmlns="http://www.w3.org/2000/svg"
 width="244.000000pt" height="305.000000pt" viewBox="0 0 244.000000 305.000000"
 preserveAspectRatio="xMidYMid meet">
<metadata>
Created by potrace 1.16, written by Peter Selinger 2001-2019
</metadata>
<g transform="translate(0.000000,305.000000) scale(0.100000,-0.100000)"
fill="#000000" stroke="none">
<path d="M1501 2893 c-1 -12 -4 -30 -7 -40 -5 -15 -4 -15 5 -3 8 11 11 -120
11 -467 0 -441 -5 -529 -24 -465 -3 9 -7 205 -8 435 -2 229 -6 398 -10 376 -9
-54 -18 -62 -19 -18 0 19 -6 68 -13 109 l-13 75 4 -135 c2 -74 0 -299 -4 -500
-7 -315 -10 -362 -22 -341 -7 13 -15 51 -18 85 -6 80 -11 106 -23 106 -6 0
-10 -10 -10 -22 0 -13 -5 -30 -10 -38 -7 -11 -10 -7 -10 19 0 45 -12 32 -20
-22 -4 -29 -8 1 -13 98 -8 142 -40 395 -56 437 l-9 23 -6 -25 c-20 -82 -46
-292 -52 -418 -7 -141 -8 -145 -19 -97 -11 46 -12 47 -16 20 l-5 -30 -17 39
c-12 27 -17 65 -17 130 0 164 -41 660 -55 675 -6 5 -6 5 -7 -244 0 -138 -3
-184 -8 -150 -5 28 -9 88 -9 135 -1 51 -5 80 -10 71 -6 -8 -11 5 -15 41 -4 29
-12 74 -19 101 -10 38 -11 -48 -9 -453 2 -275 1 -500 -3 -500 -3 0 -21 11 -39
25 l-34 25 4 178 c4 155 14 328 29 497 4 44 3 46 -5 15 -14 -54 -28 -263 -35
-501 l-6 -217 35 -22 c36 -22 45 -43 25 -56 -6 -3 -16 -1 -22 5 -16 16 -63 13
-81 -5 -19 -18 -31 -59 -22 -73 4 -6 20 -8 35 -5 22 5 34 0 55 -23 36 -38 41
-61 21 -83 -14 -16 -16 -30 -11 -70 6 -45 5 -50 -13 -50 -37 0 -51 -11 -51
-44 0 -40 -14 -65 -24 -41 -3 9 -6 27 -6 40 0 42 -72 62 -104 29 -20 -20 -20
-52 1 -141 15 -67 15 -74 -1 -117 -13 -33 -31 -55 -69 -83 -172 -125 -242
-173 -251 -173 -5 0 6 17 25 37 18 20 39 42 44 49 24 29 132 150 147 166 14
14 23 16 44 8 15 -6 29 -9 31 -6 10 9 -10 206 -19 200 -6 -4 -7 -38 -3 -90 l7
-84 -29 5 c-26 4 -40 -9 -177 -166 -81 -93 -146 -172 -144 -174 2 -2 64 21
138 51 74 30 145 59 157 64 31 13 29 5 -13 -63 -20 -32 -34 -60 -32 -63 3 -2
47 21 99 52 166 100 176 102 181 34 2 -27 -2 -36 -21 -46 -13 -7 -28 -19 -32
-26 -14 -25 -139 -541 -133 -547 4 -3 9 -1 11 6 6 18 184 255 188 251 2 -2 -4
-46 -14 -98 -42 -216 -42 -217 85 34 112 221 116 232 111 278 -5 39 -3 50 9
55 26 10 91 -16 109 -43 16 -25 16 -27 -11 -65 l-27 -40 47 -297 c26 -163 51
-310 55 -327 9 -34 5 -48 36 150 8 50 26 160 41 245 40 241 40 231 10 267 -14
17 -26 35 -26 41 0 21 71 72 100 72 37 0 41 -7 30 -55 -8 -36 -4 -49 57 -169
89 -176 154 -298 159 -294 2 2 -3 33 -10 69 -17 77 -31 186 -23 179 3 -3 49
-63 102 -135 54 -72 101 -134 105 -138 10 -11 -6 61 -69 308 -68 264 -65 259
-102 272 -28 11 -30 15 -24 45 14 67 23 67 141 0 59 -34 110 -60 112 -57 2 2
-10 27 -27 56 -18 28 -30 54 -26 57 3 3 38 -9 78 -26 39 -17 90 -38 112 -46
22 -7 67 -26 99 -40 33 -14 61 -24 64 -21 3 3 -17 29 -44 58 -60 65 -103 113
-173 197 -82 97 -89 103 -117 96 l-24 -6 -1 97 -2 98 -8 -70 c-4 -38 -13 -89
-19 -113 -8 -34 -8 -48 1 -59 14 -16 273 -219 298 -233 9 -5 13 -11 10 -15 -3
-3 -60 19 -125 48 -192 87 -175 76 -168 112 5 26 1 37 -21 59 -24 25 -26 32
-22 89 2 34 10 92 18 129 12 62 12 69 -6 88 -31 34 -115 21 -115 -18 0 -9 9
-30 20 -47 30 -45 25 -155 -7 -155 -12 0 -13 10 -8 53 6 46 3 57 -19 90 -14
21 -26 46 -26 55 0 23 -19 42 -42 42 -15 0 -16 7 -11 48 4 37 1 56 -12 76 -17
26 -17 27 9 66 23 36 31 40 67 40 39 0 40 1 37 32 -2 20 -13 38 -31 52 -27 20
-28 20 -63 1 -45 -24 -63 -9 -34 28 11 14 29 29 40 32 18 6 20 16 20 113 0
181 -19 480 -41 638 -20 147 -46 271 -48 227z m-271 -843 l0 -441 -21 20 c-21
19 -21 23 -15 298 4 153 9 301 11 328 2 28 7 92 11 143 4 50 8 92 10 92 2 0 4
-198 4 -440z m-140 -182 c0 -5 -7 -8 -15 -8 -15 0 -20 21 -8 33 7 7 23 -11 23
-25z m-62 4 c2 -7 -6 -12 -17 -12 -21 0 -27 11 -14 24 9 9 26 2 31 -12z m377
8 c3 -6 -1 -13 -10 -16 -19 -8 -30 0 -20 15 8 14 22 14 30 1z m79 -5 c3 -10
-1 -15 -14 -15 -20 0 -33 13 -23 24 11 11 31 6 37 -9z m-360 -139 c-13 -10
-23 -11 -31 -4 -19 16 -16 26 10 30 32 6 45 -9 21 -26z m261 14 c3 -4 -1 -12
-8 -18 -14 -12 -53 11 -43 26 6 11 43 5 51 -8z m-365 -50 c0 -11 -4 -20 -10
-20 -5 0 -10 9 -10 20 0 11 5 20 10 20 6 0 10 -9 10 -20z m441 -23 c-8 -8 -11
-5 -11 9 0 27 14 41 18 19 2 -9 -1 -22 -7 -28z m-301 -39 c0 -10 9 -22 21 -28
11 -7 28 -28 36 -48 l15 -36 15 29 c8 17 26 40 38 52 13 12 25 27 27 33 2 6
18 12 36 15 l33 4 -3 -42 c-2 -23 -8 -41 -13 -40 -6 1 -22 4 -37 8 -34 9 -63
-19 -79 -77 l-11 -43 -19 49 c-27 71 -40 82 -84 69 -39 -12 -41 -12 -50 38
l-6 35 40 0 c32 -1 41 -5 41 -18z m-170 -68 c7 -19 22 -55 32 -78 11 -24 17
-46 15 -49 -14 -13 -77 117 -77 159 0 28 13 14 30 -32z m75 -29 c-6 -5 -25 47
-25 67 1 9 7 -1 15 -23 8 -21 12 -41 10 -44z m360 35 c-4 -20 -12 -36 -17 -36
-5 0 -6 10 -3 23 4 12 9 30 12 40 9 32 15 11 8 -27z m85 19 c0 -38 -89 -204
-90 -169 0 6 16 46 35 88 19 43 35 84 35 92 0 7 5 14 10 14 6 0 10 -11 10 -25z
m-364 -73 c15 -10 34 -47 34 -68 0 -14 -2 -14 -16 -3 -14 12 -44 61 -44 74 0
7 13 6 26 -3z m204 0 c0 -10 -49 -82 -56 -82 -11 0 7 55 23 73 17 18 33 23 33
9z m-405 -79 c-4 -21 -8 -72 -7 -113 l0 -75 -13 50 c-7 28 -13 61 -14 75 -1
37 18 100 31 100 7 0 8 -12 3 -37z m605 -54 c0 -59 -10 -110 -20 -104 -5 3 -6
31 -3 63 3 36 1 67 -6 81 -7 12 -9 27 -5 33 13 21 34 -24 34 -73z m-731 -14
c0 -47 -4 -83 -9 -80 -16 10 -32 77 -26 107 5 27 22 58 31 58 2 0 3 -38 4 -85z
m349 9 c12 -4 22 -13 22 -20 0 -12 -5 -12 -30 1 -43 22 -40 31 8 19z m162 -6
c0 -10 -40 -31 -47 -24 -3 3 -3 11 0 18 5 14 47 19 47 6z m-164 -80 c4 4 -1
-5 -11 -21 -19 -30 -11 -51 26 -62 23 -8 24 -28 3 -50 -13 -13 -19 -13 -32 -3
-8 7 -38 13 -65 13 -31 0 -52 5 -54 12 -3 9 4 11 25 7 24 -5 30 -2 35 15 3 12
1 37 -4 56 -14 48 -5 58 36 41 18 -8 37 -11 41 -8z m212 -47 c-3 -55 -3 -56
24 -56 50 0 29 -20 -22 -21 -28 -1 -57 -7 -64 -13 -11 -9 -18 -8 -30 4 -22 23
-20 31 14 55 34 24 39 54 13 69 -16 9 -14 10 9 11 15 0 30 5 33 10 15 24 26
-6 23 -59z m-528 -1 c0 -5 -4 -10 -10 -10 -5 0 -10 5 -10 10 0 6 5 10 10 10 6
0 10 -4 10 -10z m140 -81 c0 -6 -4 -7 -10 -4 -5 3 -10 11 -10 16 0 6 5 7 10 4
6 -3 10 -11 10 -16z m497 -4 c-7 -13 -14 -20 -15 -14 -5 14 6 39 17 39 5 0 4
-11 -2 -25z m-727 -26 c0 -11 -122 -139 -133 -139 -10 0 19 51 48 82 11 13 28
35 38 50 16 25 47 30 47 7z m816 -21 c-4 -13 -9 -53 -13 -89 -5 -58 -2 -73 20
-120 34 -74 69 -150 107 -239 18 -41 43 -97 57 -125 37 -76 1 -37 -91 98 -72
106 -78 118 -92 197 -8 47 -19 101 -24 120 -14 51 -12 94 6 140 17 42 41 56
30 18z m-650 -23 c27 -65 30 -54 -156 -457 -35 -76 -65 -136 -67 -135 -2 3 47
203 98 398 7 30 17 40 49 53 44 17 55 47 48 131 -4 54 8 58 28 10z m843 -26
c29 -33 52 -62 50 -64 -3 -2 -30 13 -61 33 -31 20 -64 42 -74 48 -22 13 -12
44 13 44 10 0 43 -27 72 -61z m-539 -123 c4 -4 15 5 24 20 8 16 15 22 16 14 0
-8 -9 -28 -20 -45 -19 -28 -20 -49 -21 -315 -2 -306 -2 -306 -39 0 l-20 165
27 52 c26 48 27 55 15 98 -6 25 -12 55 -11 68 1 16 4 12 11 -13 5 -19 13 -39
18 -44z m-234 -28 c-3 -13 -6 -26 -6 -30 0 -19 -18 -5 -22 17 -6 27 -1 35 20
35 10 0 13 -7 8 -22z m487 -23 c5 -22 13 -53 19 -70 43 -123 86 -255 91 -280
3 -16 -31 46 -77 140 -46 93 -82 176 -81 185 2 8 4 28 4 43 1 45 34 31 44 -18z
m-315 -205 c0 -33 -1 -32 -9 10 -4 25 -7 59 -7 75 0 26 1 25 9 -10 4 -22 8
-56 7 -75z m-263 -50 c-26 -78 -49 -139 -51 -137 -2 2 5 50 16 105 13 69 28
115 46 142 15 22 29 38 32 36 2 -3 -17 -68 -43 -146z"/>
<path d="M1482 2805 c0 -16 2 -22 5 -12 2 9 2 23 0 30 -3 6 -5 -1 -5 -18z"/>
<path d="M1021 2774 c0 -11 3 -14 6 -6 3 7 2 16 -1 19 -3 4 -6 -2 -5 -13z"/>
<path d="M1403 2740 c0 -25 2 -35 4 -22 2 12 2 32 0 45 -2 12 -4 2 -4 -23z"/>
<path d="M1392 2635 c0 -16 2 -22 5 -12 2 9 2 23 0 30 -3 6 -5 -1 -5 -18z"/>
<path d="M1383 2515 c0 -27 2 -38 4 -22 2 15 2 37 0 50 -2 12 -4 0 -4 -28z"/>
<path d="M1374 2270 c0 -74 1 -105 3 -67 2 37 2 97 0 135 -2 37 -3 6 -3 -68z"/>
</g>
</svg>
