<?xml version="1.0" standalone="no"?>
<!DOCTYPE svg PUBLIC "-//W3C//DTD SVG 20010904//EN"
 "http://www.w3.org/TR/2001/REC-SVG-20010904/DTD/svg10.dtd">
<svg version="1.0" xmlns="http://www.w3.org/2000/svg"
 width="244.000000pt" height="305.000000pt" viewBox="0 0 244.000000 305.000000"
 preserveAspectRatio="xMidYMid meet">
<metadata>
Created by potrace 1.16, written by Peter Selinger 2001-2019
</metadata>
<g transform="translate(0.000000,305.000000) scale(0.100000,-0.100000)"
fill="#000000" stroke="none">
<path d="M1566 2892 c-5 -13 -3 -29 3 -36 14 -16 15 -942 2 -951 -5 -3 -28 7
-50 22 -41 26 -41 27 -41 87 0 142 21 446 40 573 31 215 32 227 15 164 -34
-135 -63 -430 -66 -674 l-1 -149 28 -17 c16 -10 35 -25 43 -34 18 -22 44 -21
65 2 10 11 31 25 47 31 l29 12 0 102 c0 280 -45 677 -98 861 -8 29 -9 29 -16
7z"/>
<path d="M890 2888 c0 -9 -3 -24 -7 -34 -4 -12 -3 -15 5 -10 9 5 12 -108 12
-468 0 -505 0 -506 -45 -456 -10 11 -24 20 -31 20 -23 0 -25 36 -15 258 11
219 28 386 56 536 19 98 12 112 -9 19 -35 -154 -61 -427 -65 -670 l-2 -162 33
-17 c18 -9 42 -25 53 -35 20 -18 21 -18 45 4 14 12 38 28 54 35 l29 13 -7 220
c-3 121 -11 269 -17 327 -12 124 -66 413 -80 427 -6 5 -9 3 -9 -7z"/>
<path d="M1169 2619 c-1 -107 -2 -207 -4 -224 -1 -16 -6 -133 -11 -260 -8
-222 -9 -248 -13 -270 -3 -19 -21 20 -21 45 0 40 -33 200 -41 200 -9 0 -26
-77 -35 -155 -7 -55 -7 -56 35 -94 39 -36 41 -41 36 -81 -3 -24 -8 -47 -11
-51 -7 -13 -38 -11 -51 2 -20 20 -32 1 -22 -33 15 -54 47 -62 83 -23 32 34 37
32 31 -15 -4 -30 -1 -42 10 -46 8 -4 15 -15 15 -26 0 -11 -5 -16 -11 -13 -17
11 -79 8 -94 -5 -22 -18 -18 -26 18 -36 28 -8 32 -14 35 -47 2 -23 -1 -37 -8
-37 -16 0 -120 110 -131 138 -5 13 -9 34 -9 48 0 14 -7 27 -15 30 -25 10 -18
60 12 84 20 16 39 21 73 19 42 -3 45 -1 42 21 -7 61 -65 94 -119 68 -17 -8
-37 -31 -49 -57 -20 -42 -22 -43 -29 -20 -4 13 -19 36 -33 52 -52 55 -152 27
-152 -43 0 -29 0 -30 45 -23 42 5 47 4 80 -31 41 -43 43 -56 14 -82 -17 -15
-20 -26 -15 -57 8 -49 39 -110 82 -164 19 -23 34 -43 34 -46 0 -3 -18 -27 -40
-53 -22 -27 -40 -58 -40 -70 0 -46 92 -93 118 -61 10 12 10 25 0 61 -10 39
-10 48 2 60 13 11 23 11 69 -3 l53 -16 -7 -60 c-3 -33 -8 -61 -9 -62 -1 -2
-26 -7 -54 -13 -28 -5 -60 -15 -71 -22 -48 -30 -125 53 -127 136 -1 28 -6 76
-10 106 -9 54 -10 55 -44 57 -53 4 -75 -18 -73 -73 1 -37 16 -69 79 -175 99
-168 100 -160 -31 -380 -54 -90 -120 -202 -147 -249 -55 -97 -61 -88 -19 32
16 46 35 103 41 128 7 24 25 81 41 125 29 80 30 81 75 94 53 16 64 36 64 112
0 58 -17 95 -71 161 -46 54 -78 121 -79 159 0 15 9 38 20 51 11 14 24 37 29
52 9 21 7 28 -12 41 -32 22 -102 20 -127 -5 -25 -25 -25 -42 0 -115 37 -106
20 -163 -64 -213 -130 -78 -320 -182 -331 -182 -5 0 9 17 31 38 23 20 68 62
101 92 139 129 144 133 190 126 l43 -6 0 38 c0 75 -13 172 -23 172 -6 0 -8
-32 -4 -90 l7 -91 -33 6 c-32 6 -41 -1 -188 -133 -217 -196 -234 -212 -223
-212 12 0 167 48 342 105 136 44 143 48 149 76 7 37 21 37 95 -3 47 -25 65
-41 81 -74 17 -36 18 -45 7 -58 -7 -9 -21 -16 -31 -16 -10 0 -25 -10 -33 -22
-19 -30 -177 -526 -176 -553 1 -5 22 13 48 41 26 29 108 118 182 199 181 197
181 196 165 243 -7 20 -11 40 -8 44 2 5 43 8 91 8 108 0 152 -21 152 -72 0
-19 -9 -41 -21 -55 -22 -22 -22 -23 -6 -105 10 -53 15 -115 12 -173 -3 -67 -2
-80 4 -50 5 22 7 54 5 70 -11 76 29 -75 61 -235 20 -96 37 -175 39 -177 1 -2
15 57 30 130 15 72 34 168 44 212 l17 80 12 -60 12 -60 -5 65 c-8 90 -6 123
12 209 15 73 15 74 -8 100 -13 14 -26 27 -30 29 -5 2 -8 10 -8 18 0 9 4 13 9
10 5 -3 11 2 13 12 9 32 69 52 156 52 90 0 97 -6 76 -59 -17 -41 -18 -34 9
-63 12 -14 38 -42 57 -64 120 -136 324 -354 327 -350 4 4 -16 72 -109 366 -62
198 -60 192 -100 208 -46 18 -49 41 -13 94 23 35 81 69 136 82 23 5 27 2 32
-23 4 -19 15 -32 34 -39 71 -28 445 -143 450 -139 5 6 -2 14 -128 128 -242
221 -241 220 -276 214 l-33 -6 7 91 c8 112 -8 120 -25 13 -7 -43 -15 -94 -18
-114 l-6 -36 201 -123 c111 -67 200 -124 198 -127 -2 -2 -69 20 -148 48 -79
28 -163 58 -187 66 -43 15 -43 16 -37 54 4 22 3 39 -2 39 -5 0 -19 9 -31 20
-29 28 -29 101 0 192 l22 68 -21 27 c-26 36 -97 44 -131 16 -21 -17 -21 -20
-7 -45 8 -16 22 -40 30 -55 15 -29 12 -79 -8 -118 -5 -11 -33 -49 -61 -85 -57
-73 -85 -143 -85 -210 -1 -46 15 -78 202 -404 89 -154 80 -148 -137 104 -107
123 -116 138 -110 165 3 17 7 66 9 110 2 89 8 102 93 239 63 101 79 170 47
206 -20 22 -67 27 -82 8 -14 -18 -26 -83 -27 -148 -1 -47 -6 -62 -34 -97 -38
-49 -80 -63 -114 -39 -12 9 -42 16 -65 16 -40 0 -43 -2 -44 -27 0 -27 -1 -27
-14 7 -17 43 -20 123 -4 100 8 -11 9 -7 4 17 -4 18 -5 33 -3 33 2 0 27 9 56
19 48 18 54 18 68 4 11 -12 14 -25 9 -47 -4 -17 -9 -41 -12 -53 -11 -49 90
-33 118 18 13 25 -2 67 -33 96 -41 37 -42 51 -3 98 67 83 97 194 60 225 -23
19 -18 39 20 77 30 30 40 34 77 31 40 -2 43 -1 46 23 4 30 -46 79 -80 79 -32
0 -75 -30 -92 -66 -20 -43 -29 -43 -45 2 -18 51 -70 73 -118 50 -24 -11 -35
-25 -39 -46 -9 -41 -5 -45 43 -42 34 3 47 -1 68 -22 28 -28 32 -58 10 -76 -8
-7 -15 -25 -15 -40 0 -47 -110 -180 -150 -180 -7 0 -10 15 -8 37 3 33 7 38 36
44 43 9 49 16 30 35 -17 17 -62 22 -90 9 -14 -5 -18 -2 -18 14 0 12 5 21 10
21 6 0 10 20 10 45 0 25 2 45 5 45 2 0 15 -11 29 -25 14 -14 32 -25 40 -25 20
0 46 39 46 67 0 24 -14 31 -25 13 -10 -17 -44 -11 -55 9 -5 11 -10 36 -10 55
0 36 8 47 59 84 l23 18 -15 103 c-22 153 -28 152 -57 -14 -12 -66 -25 -124
-29 -128 -8 -8 -21 237 -21 391 0 57 -3 81 -11 76 -7 -4 -10 63 -8 230 2 129
0 239 -4 242 -4 4 -7 -71 -8 -167 -1 -174 -3 -178 -29 -70 -6 23 -14 41 -16
38 -5 -5 -30 -86 -44 -147 -5 -22 -8 36 -7 157 0 106 -2 196 -6 200 -4 3 -7
-81 -8 -188z m54 -375 c-5 -200 -9 -268 -16 -239 -16 72 1 540 19 522 2 -2 1
-129 -3 -283z m-19 -374 c3 -14 3 -19 0 -11 -5 10 -10 6 -20 -15 l-12 -29 -1
26 c-1 14 2 29 6 33 4 3 7 97 6 209 l0 202 7 -195 c4 -107 10 -206 14 -220z
m7 -128 c-14 -5 -15 -82 -1 -82 6 0 10 -11 10 -25 0 -18 -4 -23 -15 -19 -11 5
-15 24 -15 80 0 43 4 74 10 74 6 0 11 12 12 28 1 18 3 14 5 -13 3 -23 0 -41
-6 -43z m-44 -79 c-2 -16 -4 -3 -4 27 0 30 2 43 4 28 2 -16 2 -40 0 -55z
m-248 -78 c16 -46 110 -146 166 -180 74 -43 51 -64 -27 -24 -78 40 -168 156
-168 217 0 33 14 26 29 -13z m658 -1 c-13 -78 -117 -191 -205 -222 -29 -10
-33 -9 -30 5 2 9 19 25 38 35 55 31 139 118 163 171 26 56 42 61 34 11z m-380
-6 c-3 -8 -6 -5 -6 6 -1 11 2 17 5 13 3 -3 4 -12 1 -19z m93 -11 c0 -7 -4 -6
-10 3 -7 12 -10 8 -10 -15 0 -16 -5 -37 -11 -45 -7 -11 -8 -4 -3 25 4 22 9 43
11 48 6 10 23 -1 23 -16z m-70 -55 c0 -15 -2 -15 -10 -2 -13 20 -13 33 0 25 6
-3 10 -14 10 -23z m17 -34 c-2 -13 -4 -5 -4 17 -1 22 1 32 4 23 2 -10 2 -28 0
-40z m-81 -34 c-4 -14 -9 -24 -12 -21 -3 2 -2 17 2 31 3 15 9 25 11 22 3 -3 2
-17 -1 -32z m161 4 c-3 -7 -5 -2 -5 12 0 14 2 19 5 13 2 -7 2 -19 0 -25z
m-140 -100 c-2 -13 -4 -5 -4 17 -1 22 1 32 4 23 2 -10 2 -28 0 -40z m-30 10
c-3 -8 -6 -5 -6 6 -1 11 2 17 5 13 3 -3 4 -12 1 -19z m150 -15 c-3 -10 -5 -4
-5 12 0 17 2 24 5 18 2 -7 2 -21 0 -30z m30 15 c-3 -8 -6 -5 -6 6 -1 11 2 17
5 13 3 -3 4 -12 1 -19z m-209 -193 c-5 -33 -14 -64 -19 -70 -12 -11 -4 47 13
103 15 49 17 35 6 -33z m65 25 c3 -11 1 -18 -4 -14 -5 3 -9 12 -9 20 0 20 7
17 13 -6z m-35 -118 c2 -7 -2 -10 -12 -6 -9 3 -16 11 -16 16 0 13 23 5 28 -10z
m202 8 c0 -5 -8 -10 -17 -10 -15 0 -16 2 -3 10 19 12 20 12 20 0z m-113 -162
c-3 -8 -6 -5 -6 6 -1 11 2 17 5 13 3 -3 4 -12 1 -19z m-20 -85 c-3 -32 -1
-163 4 -292 5 -129 8 -236 6 -238 -7 -6 -67 311 -67 350 0 21 -4 36 -8 33 -9
-5 -4 110 5 134 4 10 8 5 13 -15 l8 -30 1 33 c1 29 26 82 38 82 3 0 3 -26 0
-57z"/>
<path d="M1162 740 c0 -14 2 -19 5 -12 2 6 2 18 0 25 -3 6 -5 1 -5 -13z"/>
<path d="M1371 1204 c0 -11 3 -14 6 -6 3 7 2 16 -1 19 -3 4 -6 -2 -5 -13z"/>
</g>
</svg>
