<?xml version="1.0" standalone="no"?>
<!DOCTYPE svg PUBLIC "-//W3C//DTD SVG 20010904//EN"
 "http://www.w3.org/TR/2001/REC-SVG-20010904/DTD/svg10.dtd">
<svg version="1.0" xmlns="http://www.w3.org/2000/svg"
 width="244.000000pt" height="305.000000pt" viewBox="0 0 244.000000 305.000000"
 preserveAspectRatio="xMidYMid meet">
<metadata>
Created by potrace 1.16, written by Peter Selinger 2001-2019
</metadata>
<g transform="translate(0.000000,305.000000) scale(0.100000,-0.100000)"
fill="#000000" stroke="none">
<path d="M908 2905 c-3 -6 -8 -26 -12 -45 -4 -26 -3 -30 3 -15 6 13 10 -158
10 -462 1 -266 -2 -483 -6 -483 -5 0 -25 16 -47 36 l-39 35 7 112 c3 62 8 166
12 232 3 66 14 188 24 270 11 83 22 168 25 190 9 78 -24 -82 -39 -185 -17
-114 -36 -431 -35 -575 l0 -90 51 -33 52 -33 25 21 c14 11 36 25 49 32 23 12
26 43 22 263 -4 239 -78 770 -102 730z"/>
<path d="M1322 2885 c0 -16 2 -22 5 -12 2 9 2 23 0 30 -3 6 -5 -1 -5 -18z"/>
<path d="M1143 2840 c0 -36 2 -50 4 -32 2 17 2 47 0 65 -2 17 -4 3 -4 -33z"/>
<path d="M1548 2877 c-3 -15 -1 -27 3 -27 5 0 9 -214 9 -475 0 -374 -3 -475
-12 -475 -7 1 -28 14 -47 30 l-34 29 6 218 c4 151 14 276 32 407 14 104 24
190 22 192 -4 5 -33 -161 -47 -266 -5 -41 -15 -187 -21 -325 l-11 -249 22 -16
c12 -8 36 -27 53 -42 l32 -26 32 26 c17 15 40 34 51 42 19 15 20 22 11 254 -4
131 -16 295 -25 365 -16 130 -48 303 -63 343 -8 21 -8 21 -13 -5z"/>
<path d="M1532 2810 c0 -14 2 -19 5 -12 2 6 2 18 0 25 -3 6 -5 1 -5 -13z"/>
<path d="M1330 2350 c-1 -265 -6 -434 -10 -405 -5 28 -9 97 -9 155 -1 118 -31
342 -60 440 l-18 65 -12 -44 c-7 -24 -20 -87 -30 -140 l-18 -96 -7 180 c-3 99
-9 199 -12 223 -14 113 -19 5 -17 -390 2 -421 -1 -452 -27 -308 -6 36 -15 69
-20 74 -12 12 -28 -53 -36 -144 -6 -74 -6 -76 20 -89 14 -8 26 -23 26 -33 0
-25 -14 -23 -44 7 -43 43 -99 27 -123 -35 -16 -40 -33 -53 -33 -26 0 23 -48
73 -77 80 -38 10 -80 -11 -92 -46 -16 -46 -15 -48 32 -48 49 0 81 -19 103 -62
15 -28 14 -31 -5 -49 -12 -11 -21 -28 -21 -38 0 -41 33 -123 70 -172 22 -30
40 -57 40 -62 0 -4 -16 -29 -35 -54 -41 -53 -44 -84 -13 -113 50 -47 96 -40
116 18 7 23 18 40 23 36 5 -3 9 2 9 11 0 28 -23 11 -35 -26 l-12 -34 -12 36
c-18 55 10 97 43 64 7 -8 16 -11 20 -8 12 12 6 -78 -8 -111 -16 -38 -38 -56
-44 -37 -3 8 -9 5 -19 -8 -21 -31 -42 -26 -91 25 -39 42 -44 51 -39 83 5 38
-12 147 -26 169 -15 22 -65 14 -83 -13 -25 -38 -12 -101 37 -182 101 -163 114
-224 68 -302 -12 -20 -33 -56 -47 -81 -14 -25 -43 -76 -65 -115 -21 -38 -60
-108 -84 -155 -81 -152 -81 -142 -4 106 79 252 72 238 120 253 49 14 61 37 61
112 0 58 -21 104 -79 174 -66 79 -78 155 -36 217 14 20 25 41 25 47 0 22 -33
41 -71 41 -82 0 -99 -32 -69 -131 11 -35 20 -77 20 -92 0 -32 -25 -86 -49
-104 -33 -26 -354 -214 -358 -210 -2 3 58 64 134 136 l138 132 43 -5 c35 -5
42 -3 43 12 4 62 -12 192 -23 192 -7 0 -8 -30 -3 -91 l7 -90 -34 6 c-31 5 -39
0 -113 -72 -44 -42 -129 -123 -188 -180 -59 -57 -105 -103 -102 -103 7 0 350
115 422 142 39 14 53 25 58 45 5 23 9 25 42 20 49 -8 108 -51 128 -93 22 -47
16 -64 -24 -78 -33 -11 -35 -14 -73 -141 -80 -265 -129 -437 -125 -441 3 -3
189 209 336 384 l54 63 -12 41 c-8 25 -9 44 -3 50 5 5 42 8 83 6 l74 -3 6 -40
6 -40 2 38 c1 26 5 37 14 34 16 -5 15 -35 -13 -219 -14 -88 -28 -152 -32 -145
-4 6 -7 -15 -7 -48 l1 -60 33 125 c18 69 35 118 38 110 3 -8 28 -134 57 -280
28 -146 53 -266 55 -268 1 -1 7 23 13 55 61 320 96 490 103 497 15 16 10 100
-7 124 -16 23 -16 87 1 87 10 0 66 -361 60 -385 -3 -8 2 -37 9 -65 l14 -50 1
43 c1 23 -3 42 -8 42 -4 0 -6 10 -4 23 3 13 -3 105 -11 204 -9 100 -16 191
-16 202 0 20 6 21 79 21 44 0 82 -3 85 -8 2 -4 -1 -26 -7 -48 -9 -38 -8 -44
14 -71 55 -69 318 -370 339 -388 28 -25 33 -49 -65 279 -79 264 -80 266 -111
276 -40 14 -47 40 -22 82 25 40 41 54 96 79 50 24 72 19 72 -14 0 -20 16 -28
168 -80 92 -31 193 -66 226 -77 32 -12 60 -19 63 -17 2 2 -76 80 -173 173
-165 158 -179 169 -212 167 l-35 -3 7 74 c10 107 -6 131 -20 31 -7 -44 -15
-96 -19 -115 -7 -35 -6 -35 63 -80 256 -164 301 -194 297 -198 -2 -3 -81 24
-175 59 l-171 64 6 33 c5 26 1 36 -20 55 -39 33 -43 89 -15 187 26 91 20 125
-25 136 -36 9 -95 -4 -102 -23 -4 -9 4 -36 17 -59 18 -35 22 -55 18 -98 -4
-47 -12 -64 -60 -129 -62 -82 -88 -145 -88 -214 0 -36 11 -66 49 -137 27 -50
77 -145 111 -211 34 -66 67 -125 72 -132 5 -7 8 -17 6 -22 -3 -10 -43 35 -201
232 -71 89 -86 113 -80 131 4 11 6 47 5 80 -3 89 12 133 83 259 78 137 87 184
42 223 -57 49 -85 6 -90 -142 -2 -51 -7 -66 -35 -102 -40 -50 -70 -62 -89 -36
-19 26 -16 34 11 34 13 0 35 9 50 21 38 30 35 74 -8 131 l-34 44 35 48 c68 95
94 196 58 226 -23 19 -18 39 20 77 32 32 40 35 75 30 38 -5 40 -4 40 22 0 71
-95 98 -143 41 -14 -16 -29 -40 -33 -52 -6 -19 -9 -17 -28 23 -28 58 -62 75
-111 55 -19 -8 -35 -21 -35 -28 0 -7 -6 -4 -12 6 -9 16 -7 23 16 41 l26 21
-11 102 c-9 74 -16 102 -25 102 -8 0 -14 -10 -14 -22 0 -19 -2 -20 -10 -8 -6
9 -10 125 -11 270 -1 140 -5 302 -9 360 -4 69 -8 -51 -10 -350z m-104 -272 c0
-410 0 -421 -6 -158 -5 253 -6 268 -10 130 l-4 -155 -5 105 -6 105 -8 -100
c-6 -67 -5 -109 2 -128 14 -36 15 -160 1 -152 -6 4 -10 -8 -10 -29 0 -37 15
-49 23 -18 3 9 5 1 6 -20 1 -31 -2 -35 -19 -31 -18 5 -20 14 -20 74 0 39 4 69
10 69 6 0 10 20 10 45 0 27 -5 45 -11 45 -22 0 0 394 32 593 6 37 12 67 13 67
2 0 3 -199 2 -442z m-112 -325 c3 -6 -2 -17 -10 -24 -13 -10 -20 -10 -36 0
-28 18 -41 2 -27 -36 13 -39 35 -48 65 -28 l24 15 0 -45 c0 -35 -4 -47 -17
-51 -37 -11 -48 -22 -51 -48 -2 -14 -6 -26 -10 -26 -16 1 -63 77 -68 112 -4
21 -13 43 -20 49 -21 17 -17 47 11 75 22 22 33 25 80 22 30 -2 57 -8 59 -15z
m380 -14 c30 -35 32 -51 11 -69 -8 -7 -17 -28 -21 -49 -4 -20 -18 -52 -32 -72
l-26 -36 -16 31 c-9 18 -24 32 -37 34 -19 3 -23 10 -23 37 0 18 -3 42 -7 52
-6 17 -6 17 14 1 11 -10 23 -18 28 -18 20 0 45 35 45 63 0 24 -3 28 -17 22
-39 -16 -50 -16 -57 0 -9 26 -2 30 57 33 51 2 57 0 81 -29z m-555 -163 c10
-25 38 -65 61 -90 28 -30 40 -52 38 -67 -3 -21 -4 -21 -32 7 -65 65 -116 160
-100 186 9 14 12 10 33 -36z m208 12 c-3 -7 -5 -2 -5 12 0 14 2 19 5 13 2 -7
2 -19 0 -25z m180 0 c-3 -7 -5 -2 -5 12 0 14 2 19 5 13 2 -7 2 -19 0 -25z
m233 9 c0 -36 -46 -119 -90 -162 -60 -58 -71 -22 -11 40 37 40 81 110 81 130
0 8 5 15 10 15 6 0 10 -10 10 -23z m-366 4 c8 -13 -4 -42 -15 -35 -12 7 -12
44 0 44 6 0 12 -4 15 -9z m106 -16 c0 -14 -4 -25 -9 -25 -12 0 -23 29 -15 41
10 18 24 9 24 -16z m-170 -81 c6 -14 10 -34 10 -45 0 -17 -3 -18 -20 -7 -13 9
-20 24 -20 45 0 39 17 43 30 7z m107 -21 c-3 -10 -5 -2 -5 17 0 19 2 27 5 18
2 -10 2 -26 0 -35z m143 18 c0 -20 -8 -34 -25 -45 -28 -18 -30 -14 -19 43 9
42 44 44 44 2z m-323 -103 c-3 -8 -6 -5 -6 6 -1 11 2 17 5 13 3 -3 4 -12 1
-19z m330 -20 c-3 -7 -5 -2 -5 12 0 14 2 19 5 13 2 -7 2 -19 0 -25z m-43 -12
c-3 -9 -10 -16 -15 -16 -14 0 -11 28 4 33 16 6 19 3 11 -17z m-190 -1 c-4 -8
-10 -15 -15 -15 -5 0 -9 7 -9 15 0 8 7 15 15 15 9 0 12 -6 9 -15z m326 -81 c0
-50 -15 -59 -25 -14 -4 17 -11 30 -16 30 -17 0 -9 28 9 33 27 6 32 -1 32 -49z
m-300 31 c0 -8 -4 -15 -10 -15 -5 0 -7 7 -4 15 4 8 8 15 10 15 2 0 4 -7 4 -15z
m117 -7 c-3 -8 -6 -5 -6 6 -1 11 2 17 5 13 3 -3 4 -12 1 -19z m137 -113 c7
-29 7 -29 -9 4 -8 18 -14 54 -14 80 l2 46 7 -50 c4 -27 10 -63 14 -80z m-326
40 c0 -16 -2 -15 -8 5 -4 14 -8 34 -8 45 0 16 2 15 8 -5 4 -14 8 -34 8 -45z
m262 -16 c-17 -81 -24 -68 -8 16 6 38 14 62 16 56 2 -7 -1 -40 -8 -72z m-203
-18 c16 16 27 -9 13 -26 -16 -19 -40 -19 -40 -1 0 8 -3 23 -6 33 -5 17 -5 17
9 1 9 -12 17 -14 24 -7z m167 -15 c-7 -29 -25 -34 -44 -11 -16 19 -3 40 16 24
11 -9 15 -8 20 5 10 25 16 12 8 -18z m-217 -8 c-3 -7 -5 -2 -5 12 0 14 2 19 5
13 2 -7 2 -19 0 -25z m120 -260 c-3 -8 -6 -5 -6 6 -1 11 2 17 5 13 3 -3 4 -12
1 -19z m83 -55 c0 -21 -3 -24 -9 -14 -5 8 -7 20 -4 28 8 21 13 15 13 -14z
m-163 -5 c-3 -8 -6 -5 -6 6 -1 11 2 17 5 13 3 -3 4 -12 1 -19z m72 -205 c-1
-339 -6 -347 -57 -94 -47 229 -47 227 6 284 50 53 52 46 51 -190z"/>
<path d="M1203 740 c0 -47 2 -66 4 -42 2 23 2 61 0 85 -2 23 -4 4 -4 -43z"/>
<path d="M1213 550 c0 -36 2 -50 4 -32 2 17 2 47 0 65 -2 17 -4 3 -4 -33z"/>
<path d="M1313 2720 c0 -25 2 -35 4 -22 2 12 2 32 0 45 -2 12 -4 2 -4 -23z"/>
<path d="M1123 2495 c0 -27 2 -38 4 -22 2 15 2 37 0 50 -2 12 -4 0 -4 -28z"/>
<path d="M1303 2450 c0 -30 2 -43 4 -27 2 15 2 39 0 55 -2 15 -4 2 -4 -28z"/>
<path d="M1073 785 c0 -22 2 -30 4 -17 2 12 2 30 0 40 -3 9 -5 -1 -4 -23z"/>
<path d="M1062 660 c0 -19 2 -27 5 -17 2 9 2 25 0 35 -3 9 -5 1 -5 -18z"/>
<path d="M1361 680 c0 -8 6 -37 13 -65 8 -27 15 -43 15 -35 0 8 -6 38 -13 65
-8 28 -15 43 -15 35z"/>
<path d="M1391 544 c0 -11 3 -14 6 -6 3 7 2 16 -1 19 -3 4 -6 -2 -5 -13z"/>
<path d="M1041 434 c0 -11 3 -14 6 -6 3 7 2 16 -1 19 -3 4 -6 -2 -5 -13z"/>
</g>
</svg>
