<?xml version="1.0" standalone="no"?>
<!DOCTYPE svg PUBLIC "-//W3C//DTD SVG 20010904//EN"
 "http://www.w3.org/TR/2001/REC-SVG-20010904/DTD/svg10.dtd">
<svg version="1.0" xmlns="http://www.w3.org/2000/svg"
 width="244.000000pt" height="305.000000pt" viewBox="0 0 244.000000 305.000000"
 preserveAspectRatio="xMidYMid meet">
<metadata>
Created by potrace 1.16, written by Peter Selinger 2001-2019
</metadata>
<g transform="translate(0.000000,305.000000) scale(0.100000,-0.100000)"
fill="#000000" stroke="none">
<path d="M977 2903 c-10 -16 -38 -219 -52 -368 -8 -82 -17 -253 -21 -380 l-6
-230 46 -38 45 -38 42 41 42 41 -7 232 c-7 259 -18 386 -47 592 -19 131 -30
168 -42 148z m10 -766 c-1 -127 -2 -23 -2 233 0 256 1 360 2 232 2 -127 2
-337 0 -465z"/>
<path d="M1476 2899 c-27 -82 -63 -456 -72 -742 l-6 -229 42 -38 43 -39 41 35
40 34 -2 183 c-3 198 -17 441 -32 552 -32 228 -43 278 -54 244z"/>
<path d="M1227 2585 c-29 -92 -56 -375 -57 -589 0 -71 -2 -127 -4 -125 -2 2
-11 56 -20 118 -9 63 -20 119 -25 124 -9 9 -31 -119 -31 -187 0 -33 6 -47 25
-64 20 -18 25 -31 25 -69 0 -51 -12 -83 -24 -64 -13 21 -36 12 -36 -15 0 -63
47 -86 74 -36 l15 27 1 -46 c0 -33 5 -49 15 -53 9 -3 23 -22 31 -41 8 -19 16
-35 19 -35 3 0 11 16 19 35 8 19 22 38 31 41 10 4 15 20 16 48 0 40 0 41 16
19 33 -48 72 -23 73 45 0 21 -3 23 -30 17 -30 -7 -30 -6 -31 37 -2 64 0 71 27
91 20 16 24 27 24 70 0 29 -4 78 -10 111 -17 106 -27 93 -49 -66 l-17 -123 -7
210 c-7 218 -27 417 -50 495 -11 36 -15 41 -20 25z"/>
<path d="M858 1853 c-39 -45 -27 -93 22 -93 19 0 35 -9 49 -26 23 -29 28 -74
10 -74 -8 0 -10 -20 -7 -65 4 -47 15 -83 42 -136 l37 -73 -25 -47 c-14 -26
-26 -61 -26 -78 0 -40 32 -73 68 -69 27 3 27 4 23 72 -2 55 0 68 10 64 8 -3
31 -11 52 -19 34 -12 38 -17 33 -39 -5 -30 2 -44 27 -53 26 -10 21 -46 -8 -59
-14 -6 -26 -20 -26 -32 -1 -12 -4 -5 -8 14 -7 41 -27 48 -73 26 -45 -23 -55
-20 -85 24 -19 30 -27 55 -28 93 -3 126 -6 146 -21 162 -18 18 -52 12 -71 -13
-19 -24 -16 -94 7 -148 26 -60 19 -69 -9 -11 -26 53 -27 122 -4 188 20 56 12
72 -44 84 -27 5 -37 2 -58 -19 -14 -14 -25 -35 -25 -47 0 -15 -4 -19 -16 -15
-14 5 -16 -4 -13 -76 4 -76 2 -83 -16 -86 -28 -5 -64 -42 -153 -152 -42 -52
-91 -111 -108 -132 -18 -20 -37 -46 -44 -57 -10 -20 -9 -21 17 -15 15 4 51 17
78 29 28 12 96 42 152 65 104 44 148 73 138 91 -4 5 5 9 18 9 32 0 82 -49 97
-96 12 -34 11 -39 -9 -55 -12 -10 -25 -19 -30 -21 -11 -4 -146 -566 -138 -575
5 -4 47 32 47 40 0 3 59 94 132 202 96 144 131 203 129 223 -1 15 -3 38 -4 52
-2 24 0 25 60 25 47 0 66 -5 83 -20 39 -35 41 -49 14 -86 l-25 -35 51 -324
c27 -178 52 -325 55 -328 3 -3 5 -3 5 -1 0 2 16 105 35 229 20 124 40 259 46
300 5 41 12 87 15 101 4 19 -3 35 -22 58 l-27 32 20 27 c29 39 61 53 118 50
54 -3 57 -9 42 -69 -5 -20 7 -46 65 -135 138 -211 211 -319 225 -334 14 -13
15 -10 9 30 -6 40 -93 421 -116 511 -6 23 -19 40 -35 47 -29 13 -31 31 -9 79
17 34 76 83 101 83 7 0 13 -10 13 -23 0 -20 15 -31 98 -70 132 -62 272 -121
277 -116 3 4 -16 30 -83 115 -161 203 -198 243 -225 244 l-27 0 6 84 c5 57 3
85 -5 90 -7 5 -11 -5 -12 -31 -1 -60 -23 -185 -32 -177 -12 12 -8 77 8 130 30
99 15 146 -48 146 -40 0 -67 -16 -67 -39 0 -7 9 -31 20 -53 33 -64 23 -127
-34 -225 -39 -66 -43 -49 -6 25 17 34 34 83 37 109 5 40 2 51 -19 75 -18 21
-30 27 -45 22 -26 -8 -34 -38 -38 -146 -5 -122 -47 -181 -104 -147 -51 30 -88
18 -84 -28 1 -16 1 -16 -3 -2 -3 9 -12 17 -19 17 -7 0 -21 7 -29 16 -18 18 -5
54 19 54 11 0 15 11 15 38 0 35 3 38 45 53 26 10 48 13 51 7 3 -5 4 -34 2 -66
-3 -53 -1 -57 20 -60 33 -5 72 34 72 71 0 16 -12 50 -26 76 l-27 47 38 78 c40
80 61 196 36 196 -18 0 -12 45 10 74 15 19 30 26 56 26 l36 0 -6 42 c-6 46
-27 68 -64 68 -29 0 -73 -45 -74 -74 0 -19 -1 -19 -10 4 -15 38 -50 70 -75 70
-29 0 -64 -44 -64 -81 0 -26 3 -28 42 -31 36 -3 45 -8 57 -32 12 -25 11 -33
-3 -57 -9 -16 -17 -31 -16 -34 2 -36 -6 -61 -40 -113 -22 -34 -49 -66 -59 -71
-10 -6 -21 -22 -23 -36 -18 -90 119 30 163 144 12 30 18 38 19 24 0 -31 -36
-109 -70 -154 -17 -20 -51 -47 -76 -60 -39 -18 -45 -25 -41 -45 2 -13 0 -24
-4 -24 -13 0 -10 107 4 160 10 37 19 48 49 63 32 16 36 21 28 37 -12 22 -43
34 -68 26 -16 -6 -35 -36 -60 -96 l-10 -25 -7 30 c-22 85 -72 118 -115 75 -23
-23 -19 -40 9 -40 28 0 52 -35 57 -82 4 -34 3 -39 -5 -20 -6 12 -15 22 -20 22
-9 0 -68 77 -91 119 -6 13 -12 38 -12 57 0 18 -6 38 -14 45 -19 16 -18 42 5
70 14 18 27 23 55 21 34 -2 36 -1 36 28 0 35 -38 80 -67 80 -28 0 -60 -27 -68
-57 l-6 -27 -16 33 c-24 49 -86 67 -115 34z m235 -420 c46 -48 75 -62 88 -42
6 9 9 -5 9 -38 0 -29 -4 -53 -9 -53 -4 0 -6 11 -4 23 4 19 -1 26 -25 36 -60
25 -140 126 -156 196 -5 22 1 16 24 -25 17 -30 50 -74 73 -97z m-376 -15 c-3
-8 -6 -5 -6 6 -1 11 2 17 5 13 3 -3 4 -12 1 -19z m33 -110 c0 -63 -2 -70 -32
-102 -53 -54 -173 -151 -237 -191 -36 -21 29 46 101 105 44 36 97 82 119 104
l41 39 -7 71 c-4 50 -3 67 4 56 6 -8 11 -45 11 -82z m790 -209 c-6 -18 -10
-54 -11 -79 -1 -44 -1 -44 -9 -12 -7 31 -2 74 15 115 12 29 15 13 5 -24z
m-586 -53 c6 -46 3 -65 -19 -118 -15 -35 -40 -97 -57 -138 -17 -41 -35 -79
-39 -85 -5 -5 -9 -15 -9 -22 0 -15 -61 -145 -67 -140 -4 5 19 69 51 139 14 31
26 59 26 62 0 3 11 29 24 58 51 115 66 168 66 239 0 81 15 84 24 5z m247 -18
c7 -42 24 -88 34 -88 10 0 27 46 34 89 5 35 11 46 26 49 18 2 19 2 3 -8 -12
-7 -18 -24 -18 -48 0 -38 -28 -103 -45 -106 -16 -2 -45 66 -45 105 0 19 -6 41
-12 48 -11 11 -10 13 2 9 9 -3 18 -23 21 -50z"/>
</g>
</svg>
