<?xml version="1.0" standalone="no"?>
<!DOCTYPE svg PUBLIC "-//W3C//DTD SVG 20010904//EN"
 "http://www.w3.org/TR/2001/REC-SVG-20010904/DTD/svg10.dtd">
<svg version="1.0" xmlns="http://www.w3.org/2000/svg"
 width="244.000000pt" height="305.000000pt" viewBox="0 0 244.000000 305.000000"
 preserveAspectRatio="xMidYMid meet">
<metadata>
Created by potrace 1.16, written by Peter Selinger 2001-2019
</metadata>
<g transform="translate(0.000000,305.000000) scale(0.100000,-0.100000)"
fill="#000000" stroke="none">
<path d="M1078 2527 c2 -216 1 -444 -3 -507 -6 -101 -9 -112 -21 -95 -11 15
-14 75 -16 279 -1 170 -4 231 -8 176 l-6 -85 -2 80 c-2 89 -45 402 -65 480
l-13 50 -7 -34 c-4 -19 -3 -37 1 -40 9 -6 15 -931 6 -931 -2 0 -20 10 -39 23
l-35 22 0 150 c0 160 15 405 30 495 5 30 11 84 14 120 4 54 3 58 -4 25 -22
-99 -41 -301 -50 -545 -10 -245 -9 -266 6 -275 10 -5 31 -22 48 -37 l31 -26
37 34 c21 19 42 34 46 34 4 0 16 -13 25 -29 l17 -30 -33 6 c-29 4 -37 1 -55
-24 -11 -16 -24 -42 -28 -59 l-7 -29 -15 35 c-21 52 -41 70 -77 70 -52 0 -81
-34 -76 -87 1 -8 13 -10 35 -6 28 4 39 1 60 -20 35 -35 43 -73 21 -97 -16 -17
-16 -26 -6 -72 29 -129 41 -226 35 -290 -4 -38 -10 -68 -14 -68 -13 0 -21 33
-10 40 8 5 10 38 5 106 -7 113 -14 134 -17 48 -1 -58 -1 -59 -7 -14 -6 42 -8
45 -38 48 -23 2 -35 -3 -47 -20 -23 -32 -20 -72 10 -139 40 -90 7 -94 -35 -5
-26 54 -27 116 -1 166 11 22 20 46 20 54 0 37 -87 49 -120 16 -24 -24 -25 -41
-5 -106 20 -67 19 -132 -4 -169 -14 -24 -223 -176 -330 -240 -25 -15 -1 16 69
90 37 39 90 94 117 123 47 49 54 54 89 50 l39 -3 -4 70 c-1 39 -6 88 -11 110
-6 32 -8 20 -9 -57 l-1 -98 -27 6 c-25 5 -38 -6 -123 -97 -52 -56 -125 -134
-161 -173 -37 -39 -66 -72 -65 -73 1 -2 96 32 209 74 203 75 207 77 207 105 0
33 5 34 60 12 25 -10 40 -23 40 -34 0 -9 -18 -50 -40 -90 -22 -40 -38 -75 -36
-78 3 -2 31 14 63 37 59 41 83 50 83 30 0 -5 -15 -16 -33 -24 -32 -13 -34 -19
-66 -137 -56 -208 -101 -371 -110 -405 -5 -18 -6 -33 -2 -33 4 0 25 24 46 52
22 29 47 62 57 73 33 41 184 232 205 261 28 37 28 32 2 -146 -11 -78 -18 -144
-16 -146 2 -3 12 48 22 113 47 315 47 318 78 321 15 2 27 0 27 -4 0 -4 -22
-89 -49 -188 -28 -100 -55 -200 -61 -224 -6 -23 -15 -40 -19 -38 -8 5 -23 -85
-16 -92 1 -1 43 94 94 212 78 184 91 223 91 270 0 50 2 56 20 56 21 0 70 -44
70 -63 0 -6 -12 -26 -26 -45 l-27 -34 27 -157 c15 -86 36 -199 46 -251 10 -52
24 -129 30 -170 7 -41 14 -70 16 -65 2 6 19 102 39 215 20 113 45 249 56 304
24 123 24 119 -6 154 -14 17 -25 37 -25 46 0 23 45 66 69 66 18 0 21 -6 19
-52 -1 -46 9 -78 83 -248 46 -107 85 -186 87 -175 1 11 -9 98 -23 194 -13 96
-23 176 -22 177 1 2 27 -29 57 -68 206 -264 290 -368 290 -358 0 7 -11 53 -25
103 -13 51 -46 173 -72 272 l-49 180 -37 18 c-34 17 -46 35 -31 50 4 3 29 -10
58 -29 28 -18 54 -34 58 -34 3 0 -9 30 -28 66 -19 36 -34 71 -34 78 0 16 85
57 104 50 7 -3 12 -13 9 -23 -2 -9 2 -22 9 -28 15 -11 420 -165 424 -160 2 1
-74 82 -168 180 -158 165 -173 178 -199 172 l-28 -6 6 92 c5 69 3 90 -5 85 -7
-4 -12 -29 -12 -55 0 -26 -6 -69 -14 -95 -8 -27 -12 -54 -9 -61 5 -14 105 -89
228 -172 66 -45 124 -93 112 -93 -8 0 -318 128 -324 133 -2 3 1 17 7 33 10 26
9 31 -16 50 -35 28 -43 98 -20 177 20 70 20 121 0 141 -20 21 -88 21 -108 0
-21 -20 -20 -30 5 -65 29 -41 34 -89 15 -145 -17 -49 -62 -111 -73 -100 -3 3
6 32 21 65 42 93 28 171 -30 171 -28 0 -40 -22 -49 -90 -12 -91 -25 -78 -21
20 l5 95 -13 -90 c-9 -66 -14 -83 -19 -65 -8 29 14 167 37 225 20 52 21 111 1
119 -47 18 18 106 79 106 44 0 50 10 32 54 -29 69 -104 57 -142 -23 l-21 -44
-6 30 c-9 45 -55 86 -89 79 -25 -5 -27 -3 -19 13 23 43 37 44 79 7 l39 -35 47
44 48 44 -6 198 c-9 248 -22 404 -47 562 -20 123 -47 241 -48 210 -1 -9 -3
-32 -6 -50 -4 -26 -3 -30 4 -14 6 13 10 -150 10 -462 1 -266 -2 -483 -5 -483
-3 0 -21 12 -40 26 l-35 27 2 176 c2 182 16 374 43 570 9 63 14 116 11 119 -3
3 -5 1 -5 -4 0 -5 -9 -67 -19 -139 -19 -123 -30 -225 -34 -307 -5 -90 -15 -34
-21 129 -7 156 -31 414 -35 373 -1 -8 -2 -195 -3 -415 0 -220 -2 -390 -5 -377
-5 23 -23 31 -23 10 0 -9 -4 -8 -10 2 -7 10 -10 -8 -10 -60 0 -121 -14 -140
-22 -30 -4 52 -11 138 -17 190 -5 52 -12 122 -16 155 -6 56 -43 246 -50 253
-9 9 -46 -196 -55 -301 -6 -67 -15 -147 -20 -178 -6 -30 -10 -86 -10 -124 0
-44 -3 -66 -10 -59 -5 5 -12 99 -15 209 -3 110 -8 254 -11 320 -5 117 -32 446
-37 451 -1 1 0 -174 1 -389z m152 -483 c0 -387 -2 -434 -15 -420 -12 12 -15
48 -17 183 -1 113 -3 150 -8 113 -10 -81 -12 181 -2 301 l7 94 6 -80 6 -80 -1
93 c-1 50 2 92 7 92 4 0 7 32 7 70 0 39 2 70 5 70 3 0 5 -196 5 -436z m-23
314 c-3 -8 -6 -5 -6 6 -1 11 2 17 5 13 3 -3 4 -12 1 -19z m-107 -503 c0 -8 -4
-15 -10 -15 -5 0 -10 7 -10 15 0 8 5 15 10 15 6 0 10 -7 10 -15z m284 -6 c-3
-5 -10 -7 -15 -3 -5 3 -7 10 -3 15 3 5 10 7 15 3 5 -3 7 -10 3 -15z m-258
-114 c-7 -18 -26 -20 -26 -2 0 18 24 41 28 27 2 -6 1 -17 -2 -25z m238 -7 c-9
-14 -24 2 -24 25 1 21 1 21 15 3 8 -10 12 -23 9 -28z m-325 18 c7 -8 12 -30
11 -48 -4 -154 -4 -151 -22 -127 -10 11 -18 26 -19 33 -3 45 -7 60 -17 64 -17
5 -15 44 4 70 18 26 27 27 43 8z m441 -19 c13 -24 13 -29 -3 -56 -9 -16 -17
-40 -17 -53 0 -12 -9 -36 -20 -53 l-20 -30 -2 65 c-3 95 0 131 13 147 16 18
31 12 49 -20z m-290 -69 c0 -21 -3 -29 -10 -22 -5 5 -7 19 -4 32 9 31 14 27
14 -10z m-35 -17 c4 -17 14 -31 26 -34 10 -3 26 -22 35 -43 l16 -39 19 37 c11
21 28 42 38 47 10 6 24 25 30 43 l11 32 16 -22 c10 -15 13 -32 9 -52 -6 -27
-10 -30 -45 -30 -38 0 -39 -1 -57 -56 l-17 -55 -17 51 c-9 28 -19 53 -21 56
-3 2 -23 6 -44 7 -36 2 -39 4 -42 34 -3 31 15 66 30 57 3 -2 9 -17 13 -33z
m-195 -37 c0 -29 33 -85 80 -137 65 -72 77 -109 22 -71 -12 8 -22 22 -22 30 0
8 -11 20 -25 26 -18 8 -25 19 -25 40 0 18 -9 36 -25 50 -25 22 -36 78 -15 78
6 0 10 -7 10 -16z m130 -27 c0 -10 -4 -15 -10 -12 -5 3 -10 18 -10 33 0 21 2
24 10 12 5 -8 10 -23 10 -33z m440 26 c0 -35 -13 -63 -27 -63 -11 0 -13 5 -8
18 4 9 10 27 12 40 6 26 23 30 23 5z m-143 -35 c-3 -7 -5 -2 -5 12 0 14 2 19
5 13 2 -7 2 -19 0 -25z m-274 -68 c19 -49 2 -54 -19 -5 -16 40 -17 45 -6 45 5
0 16 -18 25 -40z m252 -20 c-24 -45 -29 -31 -8 21 11 27 19 38 21 27 2 -9 -4
-31 -13 -48z m-196 -10 c0 -10 -3 -8 -9 5 -12 27 -12 43 0 25 5 -8 9 -22 9
-30z m142 7 c-10 -9 -11 -8 -5 6 3 10 9 15 12 12 3 -3 0 -11 -7 -18z m163 7
c8 -21 -1 -34 -25 -34 -10 0 -19 -7 -19 -15 0 -17 -35 -55 -50 -55 -19 0 -10
19 33 69 47 55 52 58 61 35z m-494 -99 c0 -8 -4 -15 -10 -15 -5 0 -7 7 -4 15
4 8 8 15 10 15 2 0 4 -7 4 -15z m208 -14 c3 -8 -1 -12 -9 -9 -7 2 -15 10 -17
17 -3 8 1 12 9 9 7 -2 15 -10 17 -17z m122 10 c0 -6 -4 -13 -10 -16 -5 -3 -10
1 -10 9 0 9 5 16 10 16 6 0 10 -4 10 -9z m-246 -99 c-5 -38 -2 -52 13 -71 30
-37 46 -19 38 40 l-7 49 32 0 c32 0 32 0 11 -17 -26 -22 -19 -60 13 -65 15 -2
22 -11 24 -31 3 -27 1 -29 -25 -24 -15 3 -44 8 -64 12 -32 5 -38 10 -46 43
-11 42 -6 112 8 112 6 0 7 -21 3 -48z m356 -10 c0 -72 -17 -97 -65 -97 -22 0
-46 -4 -53 -8 -7 -5 -14 -2 -18 7 -9 24 3 46 26 46 12 0 20 7 21 18 3 48 5 57
14 59 6 1 9 -18 7 -46 -4 -54 11 -73 36 -47 11 11 16 32 15 71 -1 32 2 53 8
50 5 -4 9 -27 9 -53z m140 -52 c0 -5 -4 -10 -10 -10 -5 0 -10 5 -10 10 0 6 5
10 10 10 6 0 10 -4 10 -10z m-701 -32 c5 -13 7 -25 4 -28 -5 -6 -33 30 -33 42
0 17 21 7 29 -14z m582 -11 c-10 -9 -11 -8 -5 6 3 10 9 15 12 12 3 -3 0 -11
-7 -18z m-411 -2 c0 -8 -2 -15 -4 -15 -2 0 -6 7 -10 15 -3 8 -1 15 4 15 6 0
10 -7 10 -15z m574 -49 c-6 -25 -24 -37 -24 -15 0 15 21 52 26 46 3 -3 2 -16
-2 -31z m-809 -36 c7 -11 -45 -84 -53 -75 -7 7 29 85 39 85 4 0 11 -4 14 -10z
m115 -54 c0 -36 -21 -86 -121 -286 -67 -133 -123 -239 -126 -236 -3 3 4 36 15
73 11 37 37 131 58 207 l38 139 42 18 c44 20 54 34 54 78 0 26 16 51 32 51 4
0 8 -20 8 -44z m674 -3 c-7 -56 -8 -54 131 -336 53 -109 95 -201 92 -203 -2
-2 -26 26 -53 63 -27 37 -86 117 -132 177 -74 99 -82 114 -76 141 4 17 7 41 6
55 -2 76 10 150 24 150 12 0 13 -10 8 -47z m112 12 c9 -14 14 -28 10 -32 -8
-9 -46 27 -46 44 0 21 18 15 36 -12z m-450 -91 c17 24 18 16 2 -19 -14 -31
-24 -32 -32 -2 -9 35 -6 55 5 27 10 -24 11 -24 25 -6z m-276 -31 c0 -10 -5
-25 -10 -33 -8 -13 -10 -13 -10 2 0 9 -3 23 -6 32 -4 11 -1 16 10 16 9 0 16
-8 16 -17z m464 0 c23 -79 97 -376 93 -379 -8 -8 -127 305 -127 335 0 53 22
82 34 44z m92 -15 c-10 -52 -26 -58 -26 -10 0 32 4 42 16 42 13 0 15 -7 10
-32z m-298 -426 l-3 -137 -22 219 -22 219 22 53 22 54 3 -135 c1 -74 1 -197 0
-273z m-47 330 c-9 -22 -8 -62 4 -182 8 -84 14 -155 12 -156 -2 -2 -16 68 -31
156 l-29 159 24 29 c29 35 36 33 20 -6z"/>
<path d="M1201 2124 c0 -11 3 -14 6 -6 3 7 2 16 -1 19 -3 4 -6 -2 -5 -13z"/>
<path d="M1062 2800 c0 -14 2 -19 5 -12 2 6 2 18 0 25 -3 6 -5 1 -5 -13z"/>
<path d="M921 2794 c0 -11 3 -14 6 -6 3 7 2 16 -1 19 -3 4 -6 -2 -5 -13z"/>
<path d="M1372 2735 c0 -16 2 -22 5 -12 2 9 2 23 0 30 -3 6 -5 -1 -5 -18z"/>
<path d="M1053 2690 c0 -25 2 -35 4 -22 2 12 2 32 0 45 -2 12 -4 2 -4 -23z"/>
<path d="M1363 2600 c0 -36 2 -50 4 -32 2 17 2 47 0 65 -2 17 -4 3 -4 -33z"/>
<path d="M1043 2560 c0 -36 2 -50 4 -32 2 17 2 47 0 65 -2 17 -4 3 -4 -33z"/>
<path d="M1353 2435 c0 -38 2 -53 4 -32 2 20 2 52 0 70 -2 17 -4 1 -4 -38z"/>
<path d="M1343 2160 c0 -25 2 -35 4 -22 2 12 2 32 0 45 -2 12 -4 2 -4 -23z"/>
</g>
</svg>
