<?xml version="1.0" standalone="no"?>
<!DOCTYPE svg PUBLIC "-//W3C//DTD SVG 20010904//EN"
 "http://www.w3.org/TR/2001/REC-SVG-20010904/DTD/svg10.dtd">
<svg version="1.0" xmlns="http://www.w3.org/2000/svg"
 width="244.000000pt" height="305.000000pt" viewBox="0 0 244.000000 305.000000"
 preserveAspectRatio="xMidYMid meet">
<metadata>
Created by potrace 1.16, written by Peter Selinger 2001-2019
</metadata>
<g transform="translate(0.000000,305.000000) scale(0.100000,-0.100000)"
fill="#000000" stroke="none">
<path d="M1362 2775 c-17 -196 -35 -730 -29 -822 3 -40 2 -75 -3 -78 -4 -3
-11 57 -14 133 -9 203 -32 407 -57 508 l-23 89 -17 -55 c-36 -117 -68 -420
-69 -644 0 -27 -3 -46 -7 -42 -5 4 -8 58 -7 119 1 103 1 106 -5 32 l-6 -80
-18 115 c-14 92 -17 180 -17 444 0 181 -2 327 -4 325 -8 -8 -26 -376 -32 -649
l-7 -276 33 -27 c27 -23 31 -32 25 -55 l-7 -27 -12 33 c-13 39 -31 52 -69 52
-31 0 -87 -47 -87 -74 0 -31 -19 -25 -36 10 -20 41 -72 69 -110 60 -30 -8 -57
-48 -52 -78 3 -20 8 -23 41 -20 32 3 43 -2 72 -31 37 -37 44 -64 20 -73 -21
-9 -19 -89 4 -139 10 -22 30 -58 44 -79 34 -49 34 -76 2 -115 -14 -16 -28 -47
-31 -67 -9 -75 -23 -59 -29 32 -5 80 -12 132 -20 145 -7 11 -55 12 -72 1 -21
-13 -32 -58 -23 -97 4 -20 29 -72 54 -116 45 -77 54 -100 39 -98 -9 0 -79 102
-110 161 -29 53 -30 116 -3 160 37 62 19 88 -63 88 -37 0 -46 -4 -57 -26 -12
-21 -12 -34 0 -82 19 -82 23 -157 11 -181 -6 -11 -37 -38 -69 -59 -91 -62
-314 -193 -319 -189 -2 3 58 64 134 136 l138 133 43 -7 43 -6 -7 98 c-9 133
-26 157 -21 30 l3 -97 -31 5 c-26 5 -37 -1 -80 -41 -106 -100 -325 -314 -319
-314 4 0 120 39 402 137 62 21 72 28 72 48 0 32 10 36 56 22 50 -15 124 -85
124 -118 0 -31 -8 -42 -42 -56 -14 -7 -29 -20 -32 -30 -3 -10 -30 -103 -61
-208 -31 -104 -67 -224 -80 -265 -13 -41 -22 -76 -20 -78 2 -2 19 13 37 34 18
22 51 59 74 84 59 66 248 291 266 318 14 21 15 28 2 58 -19 45 -12 54 38 54
l41 0 -6 -52 c-3 -29 -18 -140 -32 -246 -14 -107 -25 -200 -23 -207 6 -27 158
399 158 443 0 23 4 42 8 42 5 0 20 -13 35 -28 l27 -28 -30 -34 c-16 -19 -29
-42 -30 -50 0 -8 28 -157 62 -330 l62 -315 13 60 c24 113 113 578 113 589 0 6
-13 26 -29 45 -36 42 -25 74 32 94 16 6 18 2 12 -37 -7 -45 1 -83 35 -161 9
-22 41 -106 71 -188 30 -81 55 -140 56 -130 2 10 -4 59 -12 108 -12 74 -13 79
-10 30 2 -46 -9 -10 -50 155 -30 118 -54 221 -55 228 0 15 36 16 45 1 4 -5 11
-31 16 -57 8 -46 8 -46 4 11 l-5 57 39 0 c46 0 53 -12 34 -58 -14 -33 -13 -35
24 -79 21 -24 52 -61 68 -81 57 -71 265 -311 274 -316 5 -3 -2 31 -16 77 -41
138 -114 390 -125 432 -6 23 -26 54 -44 71 -19 18 -34 42 -34 54 0 31 68 96
114 109 46 12 56 8 56 -24 0 -19 9 -26 63 -43 34 -11 129 -43 210 -71 82 -28
156 -51 165 -51 10 1 -58 73 -158 171 -167 161 -177 169 -207 164 l-33 -6 7
92 c5 69 3 90 -5 85 -7 -4 -12 -25 -12 -48 0 -22 -7 -67 -15 -99 -9 -33 -13
-64 -10 -69 5 -8 242 -167 329 -220 22 -13 35 -25 29 -27 -13 -5 -323 113
-338 128 -6 6 -5 17 4 30 11 19 10 24 -17 49 -43 39 -49 95 -22 183 26 84 23
117 -12 136 -20 11 -35 13 -64 6 -56 -15 -63 -35 -31 -82 46 -67 34 -123 -58
-252 -36 -51 -45 -59 -45 -39 0 13 12 40 26 61 64 94 80 171 44 207 -21 21
-64 27 -75 11 -12 -21 -28 -119 -26 -164 2 -51 -12 -57 -24 -10 -3 14 -15 38
-26 51 -30 38 -24 91 16 166 42 76 58 162 31 172 -28 11 -18 50 20 84 29 25
43 31 73 28 34 -3 36 -2 34 26 -7 92 -123 94 -163 3 -15 -36 -19 -39 -25 -22
-17 49 -32 69 -64 82 -48 20 -73 13 -93 -25 -15 -32 -17 -32 -23 -11 -5 16 -1
27 19 43 29 24 50 72 39 89 -4 6 -14 41 -22 77 -11 49 -16 165 -20 480 l-6
415 -13 -150z m-145 -347 c-3 -8 -6 -5 -6 6 -1 11 2 17 5 13 3 -3 4 -12 1 -19z
m-14 -304 c-8 -275 -19 -290 -22 -27 -1 101 17 319 25 310 2 -2 1 -129 -3
-283z m-19 -301 c2 -17 0 -48 -4 -70 -6 -32 -8 -26 -9 36 -1 74 6 92 13 34z
m-124 -71 c3 -3 -1 -7 -7 -9 -18 -6 -16 -38 3 -75 11 -21 15 -46 11 -76 -3
-25 0 -56 6 -69 16 -35 1 -39 -28 -7 -34 39 -52 73 -60 116 -4 20 -13 39 -21
42 -22 8 -17 37 13 68 20 21 32 26 52 21 14 -3 28 -8 31 -11z m434 -13 c31
-36 32 -43 8 -66 -10 -10 -19 -31 -20 -46 -2 -33 -15 -59 -51 -104 -30 -38
-47 -43 -36 -10 4 12 11 54 15 92 5 39 11 83 15 99 6 19 4 31 -6 37 -12 8 -12
11 1 19 26 17 47 11 74 -21z m-344 -79 c0 -33 4 -42 24 -49 13 -5 26 -16 29
-23 3 -10 -4 -13 -29 -10 -49 6 -58 29 -45 115 0 4 6 7 11 7 6 0 10 -18 10
-40z m50 5 c0 -24 -5 -35 -15 -35 -18 0 -18 -1 -4 39 14 40 19 39 19 -4z m148
-21 c3 -45 -12 -64 -49 -64 -36 0 -38 17 -4 30 21 8 25 16 25 51 0 33 3 39 13
31 7 -6 14 -27 15 -48z m-403 -73 c10 -24 15 -47 10 -58 -6 -15 -11 -11 -26
22 -19 41 -26 90 -11 81 5 -3 17 -23 27 -45z m432 17 c-3 -7 -5 -2 -5 12 0 14
2 19 5 13 2 -7 2 -19 0 -25z m183 12 c0 -24 -31 -90 -42 -90 -12 0 -10 20 8
67 18 45 34 57 34 23z m-316 -96 c-7 -36 -8 -37 -15 -14 -10 37 -10 52 1 45 6
-3 10 -1 10 6 0 7 3 10 6 7 3 -3 2 -23 -2 -44z m120 -1 c-3 -16 -15 -40 -25
-55 -11 -15 -24 -40 -29 -54 -6 -15 -13 -24 -16 -21 -6 6 62 157 71 157 3 0 3
-12 -1 -27z m-215 -53 c19 -39 31 -73 28 -77 -4 -3 -10 3 -13 13 -4 10 -16 31
-26 47 -22 30 -40 87 -29 87 4 0 22 -32 40 -70z m317 -18 c-10 -10 -29 15 -21
28 6 9 10 8 17 -4 6 -10 7 -20 4 -24z m-436 14 c0 -8 -4 -18 -10 -21 -5 -3
-10 3 -10 14 0 12 5 21 10 21 6 0 10 -6 10 -14z m80 -63 c0 -7 -6 -13 -14 -13
-18 0 -39 26 -31 39 8 13 45 -9 45 -26z m300 24 c0 -7 -5 -18 -12 -25 -15 -15
-38 -16 -38 -1 0 12 29 38 43 39 4 0 7 -6 7 -13z m117 -29 c-3 -7 -5 -2 -5 12
0 14 2 19 5 13 2 -7 2 -19 0 -25z m-492 -115 c20 -80 17 -98 -5 -38 -17 47
-27 115 -14 103 3 -3 12 -32 19 -65z m420 -8 c-9 -36 -21 -68 -26 -71 -12 -7
-12 -2 7 69 17 68 23 81 32 73 3 -3 -3 -35 -13 -71z m-285 45 c0 -5 -9 -10
-21 -10 -11 0 -17 5 -14 10 3 6 13 10 21 10 8 0 14 -4 14 -10z m154 4 c23 -9
20 -23 -4 -17 -11 3 -20 9 -20 14 0 11 3 11 24 3z m76 -79 c-6 -22 -18 -49
-26 -60 -12 -16 -18 -18 -34 -7 -11 6 -29 12 -40 12 -21 0 -24 8 -14 34 8 20
50 21 58 1 14 -38 46 10 47 73 0 35 1 36 10 12 7 -17 7 -38 -1 -65z m-314 36
c0 -21 6 -46 14 -56 13 -16 15 -16 26 0 7 9 22 15 36 13 28 -4 37 -36 11 -44
-10 -3 -26 -10 -36 -15 -23 -13 -36 -4 -53 37 -16 37 -19 104 -5 104 5 0 8
-17 7 -39z m494 -66 c-7 -8 -19 -15 -26 -15 -20 0 -17 27 4 39 23 13 39 -3 22
-24z m-636 -11 c13 -33 4 -42 -22 -26 -7 5 -10 16 -6 25 8 21 20 22 28 1z
m686 -75 c0 -10 -4 -19 -10 -19 -5 0 -10 12 -10 26 0 14 4 23 10 19 6 -3 10
-15 10 -26z m-769 -62 c-18 -18 -25 1 -11 30 l14 28 4 -24 c2 -13 -1 -28 -7
-34z m751 -52 c5 -21 28 -74 52 -119 107 -200 187 -358 183 -362 -2 -2 -67 73
-145 168 -124 152 -139 174 -131 196 5 13 9 55 9 93 0 79 18 92 32 24z m-732
16 c0 -11 -30 -73 -66 -138 -37 -65 -98 -176 -137 -248 -38 -71 -74 -134 -79
-140 -12 -11 -14 -21 41 160 22 72 51 166 63 209 l24 79 45 13 c36 11 48 21
62 49 18 38 47 47 47 16z m370 -77 c0 -7 -4 -16 -10 -19 -5 -3 -10 -4 -10 -1
0 2 -2 11 -5 19 -4 8 0 14 10 14 8 0 15 -6 15 -13z m-167 -36 c5 -36 -3 -70
-50 -201 -31 -86 -58 -156 -60 -153 -2 2 5 41 16 87 11 46 29 125 41 174 11
50 22 100 25 113 8 35 22 26 28 -20z m111 -70 c-17 -33 -17 -55 7 -301 6 -60
9 -111 6 -113 -3 -4 -77 347 -77 368 0 11 61 78 71 78 5 0 2 -14 -7 -32z"/>
<path d="M909 2904 c0 -5 -2 -16 -4 -24 -14 -54 -15 -65 -7 -46 8 18 9 18 15
2 9 -22 9 -898 1 -920 -5 -13 -12 -11 -45 11 l-39 26 0 102 c0 171 19 441 43
602 13 83 20 150 16 148 -3 -3 -9 -21 -12 -42 -38 -254 -49 -361 -57 -558 -5
-126 -10 -239 -10 -251 0 -16 63 -74 101 -92 4 -2 30 14 58 35 l51 38 -5 65
c-2 36 -7 147 -10 247 -7 225 -32 432 -79 632 -6 26 -16 40 -17 25z"/>
<path d="M1546 2885 c-3 -9 -4 -21 -1 -25 10 -16 9 -955 -1 -955 -5 1 -24 10
-43 20 l-33 20 5 254 c4 139 4 251 1 248 -8 -7 -26 -489 -19 -514 3 -13 11
-23 18 -23 7 0 29 -13 48 -30 l36 -29 19 20 c11 12 32 28 48 36 l29 15 -6 227
c-4 124 -14 287 -23 361 -14 126 -58 378 -67 387 -3 2 -7 -3 -11 -12z"/>
<path d="M1092 2865 c0 -16 2 -22 5 -12 2 9 2 23 0 30 -3 6 -5 -1 -5 -18z"/>
<path d="M1522 2775 c0 -16 2 -22 5 -12 2 9 2 23 0 30 -3 6 -5 -1 -5 -18z"/>
<path d="M1392 2715 c0 -16 2 -22 5 -12 2 9 2 23 0 30 -3 6 -5 -1 -5 -18z"/>
<path d="M1502 2679 c-7 -36 -14 -101 -17 -145 -4 -68 -2 -61 15 51 21 138 22
205 2 94z"/>
<path d="M1113 2660 c0 -25 2 -35 4 -22 2 12 2 32 0 45 -2 12 -4 2 -4 -23z"/>
<path d="M1403 2560 c0 -36 2 -50 4 -32 2 17 2 47 0 65 -2 17 -4 3 -4 -33z"/>
<path d="M1123 2485 c0 -33 2 -45 4 -27 2 18 2 45 0 60 -2 15 -4 0 -4 -33z"/>
<path d="M1412 2395 c0 -16 2 -22 5 -12 2 9 2 23 0 30 -3 6 -5 -1 -5 -18z"/>
<path d="M1413 2275 c0 -38 2 -53 4 -32 2 20 2 52 0 70 -2 17 -4 1 -4 -38z"/>
<path d="M1133 2200 c0 -41 2 -58 4 -37 2 20 2 54 0 75 -2 20 -4 3 -4 -38z"/>
<path d="M1413 2100 c0 -25 2 -35 4 -22 2 12 2 32 0 45 -2 12 -4 2 -4 -23z"/>
<path d="M1482 790 c0 -19 2 -27 5 -17 2 9 2 25 0 35 -3 9 -5 1 -5 -18z"/>
<path d="M1492 720 c-1 -19 3 -53 7 -75 8 -35 9 -36 9 -10 0 17 -3 50 -7 75
-8 42 -9 43 -9 10z"/>
</g>
</svg>
