<?xml version="1.0" standalone="no"?>
<!DOCTYPE svg PUBLIC "-//W3C//DTD SVG 20010904//EN"
 "http://www.w3.org/TR/2001/REC-SVG-20010904/DTD/svg10.dtd">
<svg version="1.0" xmlns="http://www.w3.org/2000/svg"
 width="244.000000pt" height="305.000000pt" viewBox="0 0 244.000000 305.000000"
 preserveAspectRatio="xMidYMid meet">
<metadata>
Created by potrace 1.16, written by Peter Selinger 2001-2019
</metadata>
<g transform="translate(0.000000,305.000000) scale(0.100000,-0.100000)"
fill="#000000" stroke="none">
<path d="M887 2889 c-58 -252 -84 -461 -94 -760 l-6 -207 22 -7 c12 -4 37 -20
56 -36 l33 -29 29 23 c15 13 39 30 52 37 l24 12 -6 227 c-4 124 -11 269 -17
321 -12 113 -41 283 -47 276 -2 -2 3 -53 11 -113 23 -155 35 -300 42 -502 l7
-177 -44 -26 -44 -26 -7 41 c-11 72 -9 871 3 905 7 20 7 37 1 48 -8 14 -10 13
-15 -7z"/>
<path d="M1562 2870 c-49 -156 -92 -530 -92 -816 l0 -132 29 -12 c16 -6 37
-20 47 -31 22 -24 36 -24 58 0 10 11 31 25 47 31 l29 12 0 102 c0 230 -29 560
-59 686 -13 50 -13 6 -1 -68 23 -137 31 -226 41 -440 10 -220 8 -262 -13 -262
-5 0 -21 -9 -35 -20 -14 -11 -30 -20 -34 -20 -13 0 -11 948 2 952 6 2 7 12 1
28 -9 24 -9 24 -20 -10z"/>
<path d="M1176 2578 c1 -134 -1 -218 -5 -188 -4 34 -10 -55 -15 -237 -4 -161
-12 -293 -16 -293 -5 0 -13 33 -20 73 -33 209 -47 219 -71 48 -13 -92 -16 -82
44 -126 39 -28 29 -135 -12 -135 -11 0 -23 5 -26 10 -12 19 -25 10 -25 -18 0
-16 9 -37 20 -47 17 -15 24 -16 45 -7 14 7 28 19 31 27 11 28 22 15 22 -27 1
-24 6 -44 11 -46 6 -2 11 -12 11 -22 0 -16 -5 -17 -28 -10 -30 8 -92 -11 -92
-28 0 -6 16 -13 35 -16 33 -7 35 -9 35 -46 0 -22 -4 -40 -9 -40 -14 0 -98 85
-121 122 -11 18 -20 45 -20 59 0 15 -7 32 -15 39 -22 18 -18 48 10 76 22 22
33 25 73 22 47 -3 47 -3 44 27 -5 38 -21 55 -64 64 -48 11 -74 -2 -98 -49 -11
-22 -22 -40 -25 -40 -2 0 -12 16 -21 36 -20 41 -67 66 -105 57 -37 -9 -69 -43
-69 -75 0 -27 1 -27 45 -21 41 5 47 3 80 -30 39 -39 44 -61 18 -76 -40 -22
-10 -131 61 -224 20 -26 36 -51 36 -55 0 -5 -12 -19 -26 -33 -71 -66 -60 -139
23 -155 49 -9 58 4 42 65 -18 72 -7 84 66 62 46 -13 55 -20 55 -38 0 -13 5
-23 10 -23 14 0 11 -57 -5 -105 -13 -40 -13 -40 -14 -9 -1 31 -2 31 -47 28
-25 -3 -56 -12 -70 -21 -23 -15 -28 -15 -60 0 -47 23 -79 79 -80 142 -1 60
-13 125 -27 143 -15 18 -62 14 -81 -7 -20 -22 -23 -72 -8 -112 6 -15 32 -60
58 -100 68 -107 86 -154 89 -234 1 -38 5 -86 9 -105 5 -29 2 -40 -21 -66 -16
-17 -81 -93 -146 -168 -66 -76 -121 -135 -124 -132 -4 3 35 77 84 163 152 267
163 289 163 338 0 63 -30 135 -83 197 -88 104 -102 171 -51 247 l28 43 -23 19
c-25 21 -90 26 -121 9 -29 -15 -32 -58 -10 -130 30 -97 27 -145 -11 -181 -26
-24 -29 -33 -24 -62 6 -28 3 -35 -12 -40 -10 -3 -89 -31 -176 -62 -88 -31
-161 -54 -164 -52 -2 3 56 42 129 87 214 132 247 154 252 167 3 7 -1 30 -8 51
-7 20 -17 65 -21 100 -11 100 -29 77 -22 -28 l7 -91 -33 6 c-35 6 -31 9 -267
-205 -47 -43 -101 -91 -120 -108 -54 -49 -55 -49 305 70 141 47 160 56 163 76
2 13 9 25 17 28 18 7 101 -34 134 -67 49 -48 49 -109 1 -109 -33 0 -31 5 -145
-358 -37 -118 -65 -215 -62 -218 4 -4 60 53 193 201 191 212 214 240 208 255
-3 8 -8 30 -11 49 l-6 33 95 -3 c81 -3 100 -8 131 -29 43 -29 47 -51 14 -77
-35 -27 -38 -47 -21 -126 10 -48 13 -93 8 -135 -4 -43 -3 -62 5 -62 6 0 11 10
12 23 1 21 1 21 9 -3 5 -14 25 -107 46 -208 20 -100 38 -181 40 -180 1 2 21
90 43 197 23 107 43 196 45 199 3 2 8 -13 11 -34 10 -60 13 -63 14 -13 1 25
-3 49 -9 55 -6 6 -3 50 10 129 20 119 20 119 0 140 -11 12 -20 35 -20 53 0 51
44 72 152 72 48 0 89 -3 92 -8 2 -4 -1 -26 -7 -48 -9 -38 -8 -44 14 -71 58
-73 372 -413 376 -409 5 5 -152 519 -168 548 -5 9 -25 22 -44 28 -38 13 -42
27 -21 68 21 40 66 78 113 97 51 20 73 15 73 -19 0 -24 12 -29 236 -101 129
-42 240 -75 245 -73 5 2 -76 80 -181 173 -175 156 -193 170 -225 168 l-35 -2
7 89 c4 65 3 90 -6 90 -6 0 -11 -13 -11 -28 0 -16 -3 -64 -7 -107 l-6 -77 42
7 c38 6 45 4 84 -28 113 -95 258 -229 253 -234 -3 -4 -108 54 -322 177 -64 37
-72 44 -88 77 -21 44 -20 78 4 148 25 73 25 90 0 115 -25 25 -95 27 -128 4
l-22 -15 32 -59 c32 -56 32 -60 20 -106 -8 -31 -35 -77 -71 -124 -64 -83 -74
-104 -73 -165 2 -68 14 -87 67 -105 l48 -16 39 -120 c21 -65 54 -166 73 -224
19 -57 33 -106 31 -107 -2 -2 -70 110 -151 249 -188 321 -184 297 -80 470 83
138 96 188 60 228 -18 20 -60 26 -81 12 -12 -8 -25 -80 -27 -158 -2 -39 -9
-59 -31 -88 -40 -53 -68 -64 -112 -43 -19 9 -52 17 -73 17 l-39 0 -11 61 c-6
34 -8 65 -6 69 8 12 104 33 121 26 16 -6 16 -29 -1 -98 -10 -36 24 -46 76 -22
64 28 62 71 -4 141 l-31 33 33 42 c39 53 79 132 87 176 5 26 2 38 -16 57 -28
29 -20 56 24 90 23 17 46 25 74 25 38 0 42 2 42 25 0 29 -29 62 -63 70 -39 10
-91 -18 -111 -59 -18 -39 -36 -47 -36 -17 0 54 -77 94 -129 66 -31 -15 -41
-33 -41 -70 0 -21 3 -23 39 -18 47 6 76 -8 96 -47 14 -28 14 -31 -5 -47 -11
-10 -20 -29 -20 -43 0 -14 -8 -38 -19 -55 -21 -35 -96 -112 -123 -126 -18 -10
-19 -7 -16 32 3 40 5 43 42 53 l38 11 -21 19 c-16 14 -30 17 -61 13 -34 -4
-40 -2 -40 13 0 10 7 21 16 24 13 5 15 15 10 46 -3 22 -4 40 -2 40 3 0 16 -11
30 -25 39 -39 70 -31 85 23 11 37 1 48 -27 31 -28 -18 -49 -5 -56 34 -8 45 5
79 44 109 l32 25 -12 94 c-20 158 -30 156 -61 -13 -11 -62 -24 -117 -28 -121
-8 -8 -18 218 -29 665 -4 152 -9 279 -12 281 -3 3 -4 -83 -3 -191 2 -108 1
-192 -1 -187 -2 6 -14 47 -26 93 -13 45 -25 81 -26 79 -2 -2 -13 -37 -23 -78
l-20 -74 -1 165 c-1 91 -5 175 -8 188 -4 13 -6 -86 -6 -220z m95 -303 c2 -125
3 -132 9 -65 5 48 7 2 6 -128 -1 -180 2 -220 17 -194 2 4 2 1 0 -6 -1 -8 -3
-25 -3 -38 0 -13 -4 -24 -10 -24 -5 0 -10 9 -10 21 0 11 -5 17 -10 14 -6 -3
-10 5 -10 19 0 14 5 28 10 31 14 9 12 51 -3 67 -11 10 -15 79 -20 288 -5 246
-4 269 8 215 8 -33 15 -123 16 -200z m0 -509 c5 -6 9 -37 9 -69 0 -45 -5 -65
-22 -85 -13 -17 -19 -20 -15 -9 4 10 7 30 7 43 0 14 4 22 10 19 6 -4 10 8 10
29 0 19 -4 38 -10 41 -5 3 -9 30 -8 58 1 40 2 44 5 17 3 -19 9 -39 14 -44z
m36 -103 c-2 -16 -4 -3 -4 27 0 30 2 43 4 28 2 -16 2 -40 0 -55z m-378 -93
c27 -56 127 -156 173 -172 38 -13 39 -43 1 -34 -83 21 -193 135 -208 219 -10
52 6 46 34 -13z m651 22 c0 -50 -72 -147 -141 -192 -61 -40 -105 -52 -97 -28
3 7 22 22 42 33 50 26 151 135 167 179 16 43 29 47 29 8z m-367 -62 c7 -54 -7
-24 -17 35 -4 25 -3 34 2 25 5 -8 12 -35 15 -60z m75 35 c-3 -3 -9 2 -12 12
-6 14 -5 15 5 6 7 -7 10 -15 7 -18z m-51 -82 c-3 -10 -5 -4 -5 12 0 17 2 24 5
18 2 -7 2 -21 0 -30z m-80 -25 c-3 -8 -6 -5 -6 6 -1 11 2 17 5 13 3 -3 4 -12
1 -19z m160 -10 c-3 -7 -5 -2 -5 12 0 14 2 19 5 13 2 -7 2 -19 0 -25z m-20
-120 c-2 -13 -4 -3 -4 22 0 25 2 35 4 23 2 -13 2 -33 0 -45z m-150 30 c-3 -8
-6 -5 -6 6 -1 11 2 17 5 13 3 -3 4 -12 1 -19z m30 -25 c-3 -10 -5 -2 -5 17 0
19 2 27 5 18 2 -10 2 -26 0 -35z m-47 -43 c0 -5 -2 -10 -4 -10 -3 0 -8 5 -11
10 -3 6 -1 10 4 10 6 0 11 -4 11 -10z m239 -155 c1 -36 -16 6 -22 55 l-5 45
13 -40 c7 -22 14 -49 14 -60z m-192 53 c-3 -8 -6 -5 -6 6 -1 11 2 17 5 13 3
-3 4 -12 1 -19z m203 -88 c0 -5 -5 -10 -11 -10 -5 0 -7 5 -4 10 3 6 8 10 11
10 2 0 4 -4 4 -10z m-230 -31 c0 -4 -7 -6 -15 -3 -8 4 -15 10 -15 15 0 4 7 6
15 3 8 -4 15 -10 15 -15z m200 11 c0 -5 -7 -10 -15 -10 -8 0 -15 5 -15 10 0 6
7 10 15 10 8 0 15 -4 15 -10z m-53 -82 c-2 -13 -4 -3 -4 22 0 25 2 35 4 23 2
-13 2 -33 0 -45z m-60 -80 c-3 -8 -6 -5 -6 6 -1 11 2 17 5 13 3 -3 4 -12 1
-19z m54 -107 l2 -36 7 35 6 35 9 -40 c11 -51 -7 -212 -40 -370 -14 -66 -27
-124 -30 -130 -3 -5 -2 42 0 105 3 63 7 198 7 299 2 178 3 182 20 161 10 -12
19 -39 19 -59z m52 -41 c-7 -28 -13 -25 -13 6 0 14 4 23 9 20 5 -3 7 -15 4
-26z"/>
<path d="M1302 740 c0 -14 2 -19 5 -12 2 6 2 18 0 25 -3 6 -5 1 -5 -13z"/>
<path d="M922 2785 c0 -16 2 -22 5 -12 2 9 2 23 0 30 -3 6 -5 -1 -5 -18z"/>
<path d="M1602 2775 c0 -16 2 -22 5 -12 2 9 2 23 0 30 -3 6 -5 -1 -5 -18z"/>
<path d="M1091 1224 c0 -11 3 -14 6 -6 3 7 2 16 -1 19 -3 4 -6 -2 -5 -13z"/>
<path d="M1122 470 c0 -19 2 -27 5 -17 2 9 2 25 0 35 -3 9 -5 1 -5 -18z"/>
</g>
</svg>
