<?xml version="1.0" standalone="no"?>
<!DOCTYPE svg PUBLIC "-//W3C//DTD SVG 20010904//EN"
 "http://www.w3.org/TR/2001/REC-SVG-20010904/DTD/svg10.dtd">
<svg version="1.0" xmlns="http://www.w3.org/2000/svg"
 width="244.000000pt" height="305.000000pt" viewBox="0 0 244.000000 305.000000"
 preserveAspectRatio="xMidYMid meet">
<metadata>
Created by potrace 1.16, written by Peter Selinger 2001-2019
</metadata>
<g transform="translate(0.000000,305.000000) scale(0.100000,-0.100000)"
fill="#000000" stroke="none">
<path d="M1556 2885 c-5 -19 -4 -31 3 -33 12 -4 16 -952 4 -952 -4 0 -25 12
-46 27 l-40 28 6 240 c6 220 14 308 47 513 6 41 10 76 7 78 -2 2 -14 -53 -27
-123 -24 -137 -49 -459 -50 -635 0 -99 1 -107 21 -113 11 -4 35 -20 53 -36 31
-26 35 -27 47 -13 8 9 31 28 52 41 l39 25 -6 181 c-12 316 -46 613 -89 757
l-13 45 -8 -30z"/>
<path d="M898 2875 c-3 -14 -2 -28 3 -31 13 -7 11 -944 -1 -944 -6 0 -27 12
-46 28 l-34 27 0 155 c0 208 22 441 60 649 4 23 4 39 0 35 -25 -28 -67 -391
-76 -666 l-7 -207 25 -10 c13 -5 38 -21 55 -35 l30 -25 23 24 c12 13 35 29 51
35 28 12 29 14 29 84 0 114 -19 454 -30 536 -15 112 -61 354 -70 363 -4 5 -10
-3 -12 -18z"/>
<path d="M1112 2677 c-7 -116 -12 -292 -12 -389 0 -142 -3 -179 -14 -185 -25
-14 -51 -223 -27 -223 5 0 12 -7 15 -16 5 -14 2 -15 -21 -8 -70 19 -113 -1
-134 -64 l-12 -35 -18 38 c-25 50 -46 64 -97 65 -37 0 -45 -4 -62 -32 -11 -18
-18 -37 -17 -43 2 -5 24 -12 50 -15 76 -9 127 -72 91 -111 -33 -36 -7 -138 55
-218 44 -57 44 -58 7 -99 -46 -51 -53 -81 -26 -115 12 -15 28 -27 36 -27 10 0
14 -8 12 -22 -5 -35 -29 -27 -66 21 -27 36 -32 51 -28 75 3 17 0 63 -7 101
-13 68 -14 70 -44 73 -44 4 -73 -26 -73 -75 0 -38 8 -55 104 -218 67 -114 65
-128 -65 -354 -123 -213 -132 -228 -153 -270 -10 -18 -20 -31 -23 -28 -5 6 42
162 100 336 32 93 32 94 77 111 35 14 48 25 57 51 25 71 10 126 -62 219 -79
102 -93 169 -50 232 32 47 31 62 0 76 -41 19 -92 15 -116 -9 -23 -23 -23 -35
6 -140 22 -81 16 -112 -34 -159 -35 -32 -307 -195 -355 -213 -21 -7 41 55 189
191 78 71 81 72 122 68 l43 -6 0 38 c0 75 -13 172 -23 172 -6 0 -8 -32 -4 -89
l6 -90 -32 5 c-28 4 -39 -2 -87 -48 -31 -29 -78 -73 -105 -97 -101 -90 -206
-193 -202 -197 2 -3 108 30 236 71 218 72 231 78 231 101 0 14 7 27 15 30 25
10 128 -47 153 -85 33 -50 29 -77 -12 -91 -32 -10 -37 -18 -60 -88 -46 -140
-146 -474 -146 -486 1 -6 13 3 28 20 15 17 79 89 142 160 64 71 141 159 172
196 l57 67 -16 41 c-9 22 -14 42 -12 45 6 5 148 9 154 4 2 -3 -7 -113 -20
-244 -14 -132 -24 -251 -24 -265 0 -14 18 36 40 110 22 74 44 146 48 160 10
33 17 18 35 -75 26 -136 97 -480 100 -482 3 -3 77 357 104 504 8 46 18 83 21
83 3 0 23 -60 44 -133 21 -72 43 -143 48 -157 8 -22 9 -21 4 9 -3 18 -5 52 -5
75 0 31 -3 37 -10 26 -8 -11 -9 2 -7 45 3 33 2 44 -1 25 -5 -32 -6 -30 -17 30
-48 256 -50 271 -35 280 11 7 17 4 22 -13 l6 -22 1 23 c1 21 5 22 81 22 48 0
80 -4 80 -10 0 -6 -7 -27 -15 -47 -15 -35 -15 -36 22 -81 21 -25 47 -56 59
-69 22 -24 60 -67 219 -246 43 -48 80 -86 82 -83 4 4 -24 100 -109 376 -11 36
-27 92 -37 124 -15 53 -21 61 -52 71 -43 15 -49 47 -17 95 24 36 93 77 138 82
20 3 26 -2 28 -24 3 -25 14 -30 243 -106 131 -44 239 -77 239 -72 0 4 -19 25
-42 46 -24 21 -95 86 -158 145 -170 158 -175 162 -209 154 l-30 -6 6 90 c4 65
3 91 -6 91 -6 0 -11 -16 -11 -37 -1 -21 -5 -58 -11 -83 -24 -114 -31 -98 75
-165 216 -135 297 -188 293 -192 -4 -3 -357 124 -365 132 -2 2 0 16 5 32 8 24
5 31 -25 60 -32 30 -34 35 -30 85 3 29 13 83 23 119 18 63 18 68 2 93 -14 21
-25 26 -57 26 -50 0 -90 -15 -90 -35 0 -9 11 -33 25 -53 44 -65 31 -131 -47
-230 -58 -74 -87 -144 -88 -211 0 -35 11 -65 52 -140 67 -124 96 -179 118
-216 47 -82 90 -165 86 -165 -4 0 -202 229 -270 312 -27 34 -36 53 -31 65 4
10 9 56 10 103 4 102 9 116 87 248 73 124 87 188 47 216 -28 19 -63 21 -76 4
-16 -20 -34 -134 -27 -163 8 -34 -39 -103 -84 -122 -31 -13 -36 -12 -54 4 -29
26 -45 61 -53 115 -6 41 -5 48 14 58 29 15 41 5 40 -33 -1 -18 -3 -24 -6 -14
-6 24 -33 22 -33 -3 0 -11 6 -19 13 -18 7 2 13 -11 15 -35 3 -33 6 -37 31 -37
32 0 77 31 86 60 7 23 -7 52 -47 98 -16 19 -25 38 -21 45 4 7 21 32 39 57 61
86 83 182 49 210 -23 19 -18 39 20 77 30 30 40 34 77 32 42 -3 43 -2 41 26 -3
34 -43 75 -75 75 -32 0 -76 -32 -93 -67 -15 -32 -35 -37 -35 -9 0 24 -40 64
-71 71 -20 5 -38 2 -54 -9 -30 -20 -35 -20 -35 -1 0 9 7 18 15 21 18 7 20 60
4 154 -17 110 -30 99 -57 -50 -7 -40 -9 75 -8 407 0 254 -2 459 -6 455 -4 -4
-13 -142 -20 -307 -9 -231 -14 -286 -20 -240 -12 95 -38 228 -52 269 l-13 37
-16 -58 c-30 -106 -46 -216 -58 -408 -7 -104 -16 -199 -20 -210 -5 -11 -8 200
-8 468 1 269 -1 490 -3 493 -3 2 -10 -92 -16 -209z m100 -512 c-4 -171 -8
-294 -9 -275 -2 19 -6 78 -10 130 -7 94 -8 94 -14 40 -4 -30 -5 -3 -2 60 2 63
8 144 13 180 5 36 12 91 15 123 4 32 8 57 10 55 2 -2 1 -143 -3 -313z m-65
-297 c-3 -7 -5 -2 -5 12 0 14 2 19 5 13 2 -7 2 -19 0 -25z m53 -77 c0 -58 -11
-78 -28 -50 -10 16 -10 20 3 25 18 7 19 36 1 86 -7 21 -11 40 -8 43 11 11 32
-58 32 -104z m127 77 c-3 -8 -6 -5 -6 6 -1 11 2 17 5 13 3 -3 4 -12 1 -19z
m-258 -104 c21 -5 31 -12 31 -25 0 -22 -12 -24 -40 -7 -26 16 -33 6 -25 -33 5
-22 15 -35 35 -42 36 -14 57 -77 27 -77 -8 0 -22 -9 -32 -20 -10 -11 -24 -20
-31 -20 -20 0 -54 50 -54 80 0 15 -9 37 -20 50 -26 30 -25 36 9 71 30 30 46
33 100 23z m432 -23 c34 -34 35 -43 12 -67 -10 -10 -19 -28 -20 -40 -2 -30
-31 -84 -48 -90 -8 -3 -30 7 -49 23 -28 22 -36 35 -36 62 0 25 4 32 15 27 24
-9 42 3 56 35 14 35 -1 63 -23 41 -18 -18 -38 -14 -38 7 0 14 8 21 28 24 61 9
74 6 103 -22z m-299 -113 c-6 -6 -15 -3 -26 7 -20 21 -21 36 0 28 10 -4 17 2
22 18 6 22 7 21 10 -10 2 -18 -1 -38 -6 -43z m-269 -52 c10 -24 33 -62 52 -84
34 -39 45 -72 26 -72 -13 0 -74 76 -95 117 -16 33 -22 83 -8 83 4 0 15 -20 25
-44z m637 17 c0 -33 -47 -118 -84 -152 l-26 -24 0 26 c0 14 11 38 25 53 14 15
36 49 48 76 25 54 37 61 37 21z m-382 0 c-4 -22 -22 -20 -26 1 -2 10 3 16 13
16 10 0 15 -7 13 -17z m125 11 c9 -10 -4 -34 -18 -34 -17 0 -28 17 -20 30 7
11 28 13 38 4z m-209 -80 c16 -15 23 -74 9 -74 -18 0 -43 36 -43 62 0 31 11
36 34 12z m134 -30 c-3 -27 -4 -26 -9 8 -3 22 -1 34 4 29 5 -5 7 -21 5 -37z
m162 17 c0 -20 -8 -34 -26 -46 -32 -21 -36 -17 -24 25 15 54 50 68 50 21z
m-236 -71 l6 -35 -14 35 c-8 19 -15 42 -15 50 -1 26 16 -10 23 -50z m146 -7
c-11 -17 -11 -17 -6 0 3 10 6 24 7 30 0 9 2 9 5 0 3 -7 0 -20 -6 -30z m137
-20 c-3 -10 -5 -4 -5 12 0 17 2 24 5 18 2 -7 2 -21 0 -30z m-380 -25 c-3 -7
-5 -2 -5 12 0 14 2 19 5 13 2 -7 2 -19 0 -25z m340 0 c-3 -7 -5 -2 -5 12 0 14
2 19 5 13 2 -7 2 -19 0 -25z m-272 -16 c0 -18 -20 -15 -23 4 -3 10 1 15 10 12
7 -3 13 -10 13 -16z m225 4 c0 -8 -4 -17 -9 -21 -12 -7 -24 12 -16 25 9 15 25
12 25 -4z m-350 -61 c0 -16 -6 -25 -15 -25 -9 0 -15 9 -15 25 0 16 6 25 15 25
9 0 15 -9 15 -25z m9 -108 c-7 -20 -18 -42 -26 -49 -11 -9 -12 -7 -6 8 4 10
13 30 20 44 7 14 14 48 15 75 l1 50 4 -45 c3 -25 -1 -62 -8 -83z m67 37 c8
-37 12 -69 10 -71 -6 -6 -24 58 -32 112 -11 64 7 33 22 -41z m94 66 c0 -5 -7
-10 -16 -10 -8 0 -12 5 -9 10 3 6 10 10 16 10 5 0 9 -4 9 -10z m130 0 c0 -5
-4 -10 -10 -10 -5 0 -10 5 -10 10 0 6 5 10 10 10 6 0 10 -4 10 -10z m-176
-109 c8 -12 11 -11 22 3 13 19 34 14 34 -8 0 -8 -11 -21 -24 -29 -34 -23 -47
-4 -51 75 -3 53 -3 56 3 18 4 -25 11 -51 16 -59z m222 24 c-4 -23 -12 -50 -19
-59 -12 -16 -14 -15 -34 6 -16 17 -19 27 -12 38 8 13 11 12 23 -3 14 -18 15
-18 25 2 6 11 12 37 12 58 1 21 3 30 6 19 3 -10 2 -37 -1 -61z m42 35 c-6 -23
-13 -39 -15 -36 -7 7 8 76 17 76 4 0 3 -18 -2 -40z m-21 -72 c-3 -8 -6 -5 -6
6 -1 11 2 17 5 13 3 -3 4 -12 1 -19z m-10 -60 c-3 -8 -6 -5 -6 6 -1 11 2 17 5
13 3 -3 4 -12 1 -19z m-260 -30 c-3 -7 -5 -2 -5 12 0 14 2 19 5 13 2 -7 2 -19
0 -25z m136 -175 c-5 -12 -7 -12 -14 -1 -13 20 -11 28 5 22 8 -3 12 -12 9 -21z
m-123 -42 c0 -39 -50 -256 -70 -301 -10 -23 -10 -22 -6 10 8 55 45 282 51 308
9 36 25 25 25 -17z m35 2 c9 -12 10 -23 4 -36 -14 -24 -29 -12 -29 24 0 33 7
37 25 12z m179 -28 c-6 -26 -8 -27 -20 -10 -10 13 -10 21 -1 36 16 25 30 8 21
-26z m-131 -39 c-7 -34 -5 -97 11 -381 l6 -100 -40 185 c-61 283 -60 264 -14
311 42 44 48 41 37 -15z m-166 -288 c-3 -8 -6 -5 -6 6 -1 11 2 17 5 13 3 -3 4
-12 1 -19z"/>
<path d="M1542 2820 c0 -14 2 -19 5 -12 2 6 2 18 0 25 -3 6 -5 1 -5 -13z"/>
<path d="M1352 2660 c0 -19 2 -27 5 -17 2 9 2 25 0 35 -3 9 -5 1 -5 -18z"/>
<path d="M1142 2640 c0 -14 2 -19 5 -12 2 6 2 18 0 25 -3 6 -5 1 -5 -13z"/>
<path d="M1154 2400 c0 -58 1 -81 3 -52 2 28 2 76 0 105 -2 28 -3 5 -3 -53z"/>
<path d="M1364 2415 c0 -49 1 -71 3 -48 2 23 2 64 0 90 -2 26 -3 8 -3 -42z"/>
<path d="M1413 830 c0 -25 2 -35 4 -22 2 12 2 32 0 45 -2 12 -4 2 -4 -23z"/>
<path d="M1423 735 c0 -22 2 -30 4 -17 2 12 2 30 0 40 -3 9 -5 -1 -4 -23z"/>
</g>
</svg>
