<?xml version="1.0" standalone="no"?>
<!DOCTYPE svg PUBLIC "-//W3C//DTD SVG 20010904//EN"
 "http://www.w3.org/TR/2001/REC-SVG-20010904/DTD/svg10.dtd">
<svg version="1.0" xmlns="http://www.w3.org/2000/svg"
 width="244.000000pt" height="305.000000pt" viewBox="0 0 244.000000 305.000000"
 preserveAspectRatio="xMidYMid meet">
<metadata>
Created by potrace 1.16, written by Peter Selinger 2001-2019
</metadata>
<g transform="translate(0.000000,305.000000) scale(0.100000,-0.100000)"
fill="#000000" stroke="none">
<path d="M1566 2893 c-4 -12 -2 -31 4 -43 12 -22 11 -938 -1 -946 -4 -2 -26 8
-49 23 l-43 28 7 195 c8 227 18 334 47 518 11 74 19 136 16 138 -6 6 -44 -221
-58 -341 -6 -55 -14 -198 -17 -319 l-7 -218 25 -13 c14 -7 34 -22 44 -34 24
-26 48 -27 70 -2 10 11 31 25 47 31 28 12 29 14 29 89 0 266 -42 665 -89 846
-14 56 -19 65 -25 48z"/>
<path d="M890 2888 c0 -9 -3 -24 -7 -34 -4 -12 -3 -15 5 -10 9 5 12 -108 12
-468 0 -262 -3 -476 -7 -476 -5 0 -19 9 -33 20 -14 11 -30 20 -37 20 -21 0
-24 52 -13 257 10 214 21 323 45 468 16 97 18 121 10 113 -9 -8 -34 -163 -50
-303 -8 -71 -18 -225 -22 -342 l-6 -212 29 -12 c16 -7 40 -23 54 -36 l26 -23
24 23 c14 12 38 28 54 35 l29 13 -6 217 c-4 120 -12 267 -18 327 -12 126 -66
415 -80 430 -6 5 -9 3 -9 -7z"/>
<path d="M1293 2860 c0 -25 2 -35 4 -22 2 12 2 32 0 45 -2 12 -4 2 -4 -23z"/>
<path d="M871 2804 c0 -11 3 -14 6 -6 3 7 2 16 -1 19 -3 4 -6 -2 -5 -13z"/>
<path d="M1157 2300 c-7 -365 -10 -427 -20 -437 -3 -2 -10 29 -17 69 -23 150
-42 201 -55 146 -32 -149 -31 -185 4 -206 17 -9 34 -27 40 -38 9 -21 6 -87 -5
-105 -7 -12 -41 -11 -49 1 -12 19 -25 10 -25 -18 0 -57 65 -80 90 -31 18 32
31 22 24 -20 -4 -24 -2 -41 5 -45 24 -15 11 -35 -22 -34 -34 1 -77 -16 -77
-31 0 -5 12 -12 27 -16 15 -3 31 -11 34 -16 8 -13 -1 -59 -11 -59 -11 0 -101
95 -116 122 -7 12 -13 36 -14 51 0 15 -7 30 -15 33 -25 10 -18 60 12 84 20 16
39 21 73 19 42 -3 45 -1 42 21 -11 98 -128 104 -167 8 l-17 -43 -19 40 c-25
52 -44 65 -96 65 -50 0 -83 -28 -83 -72 0 -27 1 -27 45 -21 42 5 47 4 80 -31
41 -43 43 -56 14 -82 -16 -15 -19 -25 -14 -54 10 -52 37 -109 79 -163 35 -46
36 -50 21 -70 -76 -104 -75 -101 -45 -140 25 -32 76 -45 97 -25 12 12 12 22 1
61 -10 40 -10 49 2 62 13 13 21 12 63 -3 l49 -17 -7 -55 c-7 -57 -23 -80 -58
-80 -10 0 -35 -7 -54 -16 -29 -15 -38 -15 -60 -3 -47 25 -78 77 -79 133 -1 28
-6 76 -10 106 -9 54 -10 55 -45 58 -86 7 -96 -90 -21 -201 16 -23 45 -72 65
-108 56 -100 54 -114 -55 -298 -50 -86 -116 -200 -147 -253 -31 -54 -57 -93
-59 -89 -2 5 22 87 54 182 88 272 78 253 130 268 52 16 65 38 66 112 0 57 -19
98 -74 164 -75 91 -95 161 -58 207 11 14 24 37 29 52 9 21 7 28 -12 41 -32 22
-102 20 -127 -5 -25 -25 -25 -42 0 -115 22 -64 25 -101 11 -138 -18 -46 -36
-58 -325 -219 -38 -21 -73 -37 -78 -36 -4 2 55 59 131 128 138 123 140 125
188 125 26 0 48 5 48 10 -2 80 -19 194 -27 189 -7 -5 -8 -36 -4 -91 l7 -84
-33 6 c-31 5 -41 -2 -158 -106 -162 -144 -252 -230 -247 -236 5 -4 84 20 327
101 149 49 155 52 158 80 3 26 6 28 33 22 53 -10 119 -56 139 -97 28 -53 25
-68 -11 -76 -40 -8 -50 -26 -92 -163 -20 -63 -53 -171 -75 -240 -22 -69 -42
-138 -46 -155 -6 -29 -5 -29 36 16 24 26 111 120 194 210 83 90 155 172 161
183 7 13 6 29 -3 54 -6 21 -10 40 -7 44 7 12 154 8 193 -5 32 -11 35 -16 38
-54 2 -26 -3 -51 -12 -65 -13 -20 -14 -35 -6 -83 6 -33 8 -112 5 -175 -3 -82
-2 -104 5 -75 5 22 6 56 4 75 -4 26 -3 31 5 20 6 -8 11 -10 12 -5 1 11 11 -38
60 -273 18 -84 33 -151 35 -150 1 2 21 95 44 208 23 112 44 209 48 215 4 5 12
-19 18 -55 10 -55 12 -59 13 -26 0 21 -4 55 -10 75 -9 29 -7 60 5 136 14 87
14 101 1 115 -8 9 -15 22 -15 29 0 7 -5 9 -10 6 -6 -4 -10 6 -9 22 0 25 1 26
9 8 8 -18 9 -17 9 7 1 42 42 58 147 58 l86 0 -4 -32 c-3 -18 -8 -40 -12 -49
-4 -9 2 -25 16 -41 13 -13 39 -42 58 -64 116 -131 324 -354 327 -350 3 3 -120
404 -161 521 -11 31 -21 42 -47 51 -43 14 -49 47 -17 94 24 35 94 77 138 82
19 2 26 -2 28 -20 2 -12 12 -26 22 -32 30 -16 461 -152 467 -147 2 3 -80 82
-184 177 -180 164 -189 171 -221 165 l-34 -6 7 84 c8 97 -9 132 -19 39 -4 -31
-13 -79 -21 -105 -13 -44 -13 -49 3 -65 10 -9 99 -66 200 -127 100 -60 182
-114 182 -119 0 -4 -8 -5 -17 -1 -15 6 -95 35 -311 112 -43 15 -43 16 -37 54
4 26 3 39 -4 39 -6 0 -20 9 -31 20 -27 27 -27 116 1 199 21 63 21 63 2 89 -26
36 -98 43 -133 14 l-24 -20 27 -41 c20 -30 27 -53 27 -89 0 -52 -11 -73 -89
-172 -44 -55 -71 -130 -71 -193 0 -40 11 -61 209 -415 29 -52 51 -95 49 -98
-2 -2 -71 75 -153 171 -124 145 -150 180 -147 203 1 15 2 53 2 84 0 94 17 144
87 256 55 87 67 115 71 158 4 45 1 53 -19 68 -28 19 -63 21 -76 4 -14 -18 -26
-83 -27 -148 -1 -47 -6 -62 -34 -97 -38 -48 -79 -62 -114 -39 -26 16 -87 24
-105 13 -15 -10 -39 64 -29 89 6 16 9 16 17 4 7 -11 9 -7 4 15 -5 30 -4 31 45
46 46 14 53 14 67 1 10 -11 13 -24 8 -46 -4 -17 -9 -41 -12 -53 -11 -49 90
-33 118 18 14 27 -2 66 -42 105 -36 35 -36 43 2 85 66 73 101 198 64 229 -23
19 -18 39 20 77 30 30 40 34 77 31 38 -2 43 0 46 20 4 28 -47 82 -78 82 -36 0
-77 -28 -94 -65 -9 -19 -20 -35 -24 -35 -5 0 -14 15 -20 34 -17 47 -71 73
-114 55 -30 -12 -65 -70 -53 -88 2 -5 25 -6 49 -4 38 5 48 2 70 -20 29 -29 33
-58 11 -77 -8 -7 -15 -25 -15 -40 0 -43 -110 -180 -145 -180 -3 0 -5 18 -5 40
0 33 3 40 19 40 26 0 51 10 51 21 0 8 -54 40 -65 39 -2 -1 -18 -5 -35 -10 -29
-8 -30 -8 -15 13 8 12 15 41 15 64 0 24 2 43 5 43 2 0 15 -11 29 -25 14 -14
32 -25 40 -25 20 0 46 39 46 67 0 24 -14 31 -25 13 -10 -17 -44 -11 -55 9 -14
27 -13 84 3 102 6 9 25 23 40 33 27 17 28 20 22 69 -11 91 -27 167 -35 167 -7
0 -18 -54 -47 -217 -11 -64 -23 -32 -23 60 0 50 -5 155 -11 232 -6 77 -14 217
-18 310 l-8 170 -2 -115 c-3 -102 -4 -110 -13 -70 -5 25 -14 63 -20 85 -10 39
-11 39 -20 15 -5 -14 -16 -54 -24 -90 -24 -107 -29 -101 -34 45 -4 109 -7 56
-13 -235z m64 -90 c-4 -226 -8 -288 -12 -220 -6 92 -6 91 -5 -29 1 -67 -1
-115 -5 -105 -6 16 -8 16 -13 4 -3 -8 -7 -28 -9 -45 -3 -16 -3 -7 -1 20 2 28
6 64 9 80 4 25 4 27 -5 10 -17 -33 -1 315 20 459 11 71 20 134 20 139 0 6 2 8
4 6 2 -2 1 -146 -3 -319z m-16 -497 c-4 -41 -3 -52 4 -38 8 16 10 12 10 -22 1
-33 -2 -41 -14 -37 -17 7 -30 81 -20 123 11 53 25 34 20 -26z m-278 -142 c21
-45 100 -127 167 -174 14 -10 26 -22 26 -27 0 -39 -134 50 -183 121 -36 52
-60 129 -41 129 5 0 19 -22 31 -49z m650 14 c-13 -77 -122 -195 -204 -220 -39
-11 -27 22 15 44 50 26 138 120 158 170 20 50 39 54 31 6z m-380 -22 c-3 -10
-5 -4 -5 12 0 17 2 24 5 18 2 -7 2 -21 0 -30z m79 -10 c-11 -11 -19 6 -11 24
8 17 8 17 12 0 3 -10 2 -21 -1 -24z m-15 -40 c-12 -20 -14 -14 -5 12 4 9 9 14
11 11 3 -2 0 -13 -6 -23z m-24 -30 c-3 -10 -5 -2 -5 17 0 19 2 27 5 18 2 -10
2 -26 0 -35z m-86 -30 c-9 -15 -10 -12 -10 17 0 29 1 32 10 18 7 -12 7 -24 0
-35z m178 5 c0 -28 -2 -30 -9 -13 -12 28 -12 45 0 45 6 0 10 -15 9 -32z m-160
-103 c-5 -13 -8 0 -7 40 0 56 1 58 8 20 4 -22 4 -49 -1 -60z m141 38 c0 -38
-3 -54 -10 -47 -9 9 -3 104 6 104 2 0 4 -26 4 -57z m-196 -200 c-8 -71 -13
-93 -23 -93 -9 0 -6 33 11 98 14 55 19 53 12 -5z m203 -10 c-3 -10 -5 -4 -5
12 0 17 2 24 5 18 2 -7 2 -21 0 -30z m-133 2 c3 -8 1 -15 -4 -15 -6 0 -10 7
-10 15 0 8 2 15 4 15 2 0 6 -7 10 -15z m107 -8 c-10 -9 -11 -8 -5 6 3 10 9 15
12 12 3 -3 0 -11 -7 -18z m-151 -102 c0 -9 -6 -12 -15 -9 -8 4 -15 10 -15 15
0 5 7 9 15 9 8 0 15 -7 15 -15z m215 5 c-3 -5 -11 -10 -16 -10 -6 0 -7 5 -4
10 3 6 11 10 16 10 6 0 7 -4 4 -10z m-118 -162 c-3 -8 -6 -5 -6 6 -1 11 2 17
5 13 3 -3 4 -12 1 -19z m-21 -195 c1 -91 5 -225 9 -297 4 -72 5 -129 2 -126
-3 3 -24 100 -48 216 -37 182 -42 217 -33 260 6 30 14 48 22 47 6 -2 12 4 12
12 0 10 28 55 35 55 0 0 1 -75 1 -167z"/>
<path d="M1161 764 c0 -11 3 -14 6 -6 3 7 2 16 -1 19 -3 4 -6 -2 -5 -13z"/>
<path d="M1152 710 c0 -19 2 -27 5 -17 2 9 2 25 0 35 -3 9 -5 1 -5 -18z"/>
<path d="M1183 2620 c0 -25 2 -35 4 -22 2 12 2 32 0 45 -2 12 -4 2 -4 -23z"/>
<path d="M1302 2560 c0 -14 2 -19 5 -12 2 6 2 18 0 25 -3 6 -5 1 -5 -13z"/>
</g>
</svg>
