<?xml version="1.0" standalone="no"?>
<!DOCTYPE svg PUBLIC "-//W3C//DTD SVG 20010904//EN"
 "http://www.w3.org/TR/2001/REC-SVG-20010904/DTD/svg10.dtd">
<svg version="1.0" xmlns="http://www.w3.org/2000/svg"
 width="244.000000pt" height="305.000000pt" viewBox="0 0 244.000000 305.000000"
 preserveAspectRatio="xMidYMid meet">
<metadata>
Created by potrace 1.16, written by Peter Selinger 2001-2019
</metadata>
<g transform="translate(0.000000,305.000000) scale(0.100000,-0.100000)"
fill="#000000" stroke="none">
<path d="M1536 2833 c-48 -230 -75 -482 -77 -732 l-1 -173 29 -18 c15 -9 36
-27 47 -38 l19 -22 33 29 c18 16 43 32 55 36 l22 7 -7 212 c-7 224 -28 449
-51 556 -16 75 -13 39 11 -135 8 -60 18 -220 21 -354 l6 -244 -24 -19 c-65
-51 -60 -93 -59 462 1 276 0 504 -3 506 -2 2 -11 -31 -21 -73z"/>
<path d="M901 2863 c-44 -164 -79 -488 -84 -782 -2 -142 -1 -154 17 -165 11
-6 33 -23 49 -37 l30 -26 54 40 c62 46 57 14 43 317 -11 220 -28 377 -56 533
-26 142 -26 94 0 -89 32 -220 46 -393 46 -563 l0 -138 -38 -27 c-21 -14 -41
-26 -45 -26 -4 0 -7 214 -7 476 0 314 3 473 10 469 12 -8 13 25 1 44 -7 11
-12 4 -20 -26z"/>
<path d="M1101 2885 c-1 -11 -1 -192 -1 -402 1 -388 1 -389 -32 -384 -8 1 -13
-97 -11 -186 1 -42 0 -43 -32 -43 -42 0 -80 -31 -96 -77 l-12 -36 -18 38 c-24
49 -46 64 -91 65 -47 0 -78 -28 -78 -70 0 -30 1 -30 40 -24 36 6 43 3 75 -29
38 -38 43 -58 20 -77 -34 -28 -9 -132 55 -225 16 -24 30 -46 30 -48 0 -3 -16
-29 -35 -57 -29 -43 -34 -59 -29 -85 3 -19 1 -35 -5 -39 -12 -8 -30 53 -24 85
2 13 -2 53 -9 89 -15 68 -25 78 -73 66 -31 -8 -46 -53 -34 -104 4 -21 29 -72
54 -113 25 -40 45 -82 45 -94 0 -16 -5 -12 -21 15 -12 19 -37 54 -55 77 -66
80 -81 159 -44 221 37 61 19 92 -54 92 -40 0 -76 -28 -76 -60 0 -10 8 -45 17
-77 9 -32 17 -82 17 -112 1 -49 -2 -56 -31 -78 -29 -22 -31 -27 -21 -54 6 -17
9 -31 7 -33 -2 -2 -38 -15 -79 -31 -41 -15 -117 -43 -168 -62 -51 -20 -95 -33
-98 -31 -2 3 79 59 182 124 l186 119 -7 35 c-3 19 -12 70 -19 113 -7 43 -17
81 -21 85 -4 4 -5 -37 -2 -91 l5 -98 -29 6 c-28 6 -40 -3 -177 -133 -81 -76
-162 -153 -181 -170 -19 -17 -32 -34 -29 -37 3 -4 57 11 120 33 62 22 164 57
225 78 101 34 113 40 113 61 0 33 19 37 71 15 71 -31 109 -74 109 -125 0 -17
-9 -27 -32 -38 -28 -12 -36 -24 -55 -79 -54 -163 -147 -490 -141 -496 2 -1 48
49 103 113 55 64 129 150 165 192 119 138 120 139 104 178 -8 19 -12 38 -9 43
4 6 26 10 51 10 43 0 44 -1 45 -32 2 -30 2 -31 6 -6 4 25 37 48 50 35 2 -3
-17 -103 -44 -222 -34 -154 -50 -209 -55 -193 -5 17 -7 13 -5 -14 2 -21 -1
-39 -6 -41 -5 -1 -7 -18 -5 -37 3 -32 5 -28 30 45 15 44 49 139 75 210 36 98
47 143 46 182 -1 57 11 68 39 36 28 -33 28 -41 -2 -74 -16 -19 -30 -41 -30
-49 0 -13 116 -610 124 -635 3 -11 126 610 126 636 0 8 -14 28 -30 44 -17 16
-30 32 -30 36 0 11 49 59 59 59 5 0 7 -19 4 -42 -4 -35 9 -80 71 -248 41 -113
75 -197 76 -186 0 21 -47 414 -56 464 l-6 32 57 0 c57 0 57 0 51 -26 -20 -79
-24 -71 106 -220 240 -276 263 -302 266 -299 3 2 -111 386 -159 538 -10 29
-19 39 -43 45 -83 21 1 149 117 177 24 6 27 4 27 -18 0 -14 6 -29 12 -34 15
-10 462 -162 466 -158 3 2 -132 134 -247 241 -41 38 -85 80 -98 93 -20 19 -31
22 -59 16 l-35 -6 6 33 c10 55 12 139 4 144 -8 4 -13 -28 -24 -144 l-6 -63 45
6 46 7 140 -132 c77 -73 139 -135 136 -137 -2 -3 -85 42 -183 100 -121 71
-185 115 -200 137 -27 39 -30 100 -8 153 20 47 19 111 -1 131 -22 23 -96 21
-117 -2 -22 -24 -22 -26 8 -70 45 -66 31 -126 -55 -238 -28 -36 -54 -79 -57
-95 -3 -16 -9 -29 -14 -29 -21 0 -5 44 48 136 49 83 57 105 58 148 0 43 -3 52
-26 64 -15 9 -36 12 -51 9 -22 -6 -26 -14 -33 -64 -4 -32 -7 -74 -6 -93 1 -38
-16 -90 -30 -90 -15 0 -20 19 -8 38 16 26 6 60 -31 102 -16 19 -30 39 -30 45
0 5 18 35 40 66 22 31 46 83 55 115 19 73 19 70 -5 92 -17 15 -19 24 -11 44
16 42 60 70 106 67 39 -3 40 -2 38 26 -3 43 -47 79 -87 71 -36 -8 -72 -39 -80
-72 -9 -34 -23 -30 -36 11 -14 44 -35 55 -99 55 -53 0 -56 -4 -74 -85 -3 -11
-5 1 -6 26 -1 40 3 48 30 68 l31 23 -6 87 c-4 47 -11 223 -17 391 -17 476 -26
504 -28 85 -1 -328 -10 -497 -27 -514 -11 -11 -22 24 -17 56 4 21 2 33 -6 33
-7 0 -11 26 -11 75 0 134 -44 436 -70 484 -8 16 -45 -131 -60 -244 -9 -63 -29
-376 -30 -449 0 -16 -2 -27 -5 -25 -2 3 -7 173 -10 379 -3 206 -11 438 -19
515 -7 77 -14 131 -15 120z m173 -525 c12 -98 17 -310 9 -405 -8 -94 -9 -85
-16 155 -4 140 -10 278 -12 305 -4 41 -3 45 4 20 5 -16 12 -50 15 -75z m66
-477 c0 -7 -4 -13 -10 -13 -5 0 -10 12 -10 28 0 21 2 24 10 12 5 -8 10 -21 10
-27z m-230 -65 c0 -37 -3 -35 -23 15 -16 36 -15 37 3 27 13 -7 20 -21 20 -42z
m188 -28 c-1 -38 -5 -67 -9 -64 -15 9 -9 134 6 134 2 0 3 -31 3 -70z m-244
-26 c20 -8 21 -24 1 -24 -20 0 -19 -39 1 -68 11 -15 15 -40 13 -75 -1 -29 3
-65 9 -80 17 -41 15 -52 -8 -32 -31 28 -79 108 -86 143 -4 17 -13 37 -20 43
-20 17 -17 34 12 68 25 30 47 37 78 25z m445 -20 c24 -31 27 -57 7 -73 -7 -6
-16 -27 -19 -47 -6 -37 -67 -128 -92 -138 -19 -7 -20 27 -2 46 9 8 11 21 6 33
-13 34 -10 83 6 93 9 4 18 25 22 47 6 35 5 38 -15 33 -28 -8 -18 10 12 22 36
15 54 11 75 -16z m-324 -134 c13 -5 26 -15 31 -22 4 -7 4 -10 -1 -6 -4 4 -16
3 -27 -3 -30 -16 -48 6 -48 61 0 59 14 76 18 20 3 -32 8 -43 27 -50z m163 33
c-3 -57 -3 -58 -35 -61 -26 -3 -32 0 -27 11 3 8 14 17 25 20 15 4 19 14 19 46
0 23 5 41 10 41 7 0 10 -22 8 -57z m-38 -8 c0 -2 -7 -5 -15 -9 -12 -4 -15 3
-15 32 l0 37 15 -29 c8 -15 15 -30 15 -31z m-352 -74 c25 -66 26 -71 12 -71
-14 0 -50 75 -50 105 0 41 13 29 38 -34z m419 27 c-3 -7 -5 -2 -5 12 0 14 2
19 5 13 2 -7 2 -19 0 -25z m183 -48 c-7 -16 -20 -36 -31 -46 -18 -16 -19 -16
-19 1 0 10 12 43 28 74 25 52 27 54 30 27 2 -15 -2 -41 -8 -56z m-443 48 c-3
-8 -6 -5 -6 6 -1 11 2 17 5 13 3 -3 4 -12 1 -19z m142 -62 c-2 -23 -17 -60
-18 -46 -1 8 -4 24 -7 36 -4 14 -1 21 10 21 9 0 16 -5 15 -11z m-111 -41 c5
-16 17 -47 26 -67 24 -55 5 -46 -21 10 -25 55 -41 112 -26 97 6 -5 15 -23 21
-40z m218 22 c-9 -36 -57 -139 -63 -133 -4 4 39 124 54 149 9 15 15 6 9 -16z
m-326 -68 c0 -11 -4 -18 -10 -14 -5 3 -7 12 -3 20 7 21 13 19 13 -6z m420 -10
c0 -11 -4 -17 -10 -14 -5 3 -10 13 -10 21 0 8 5 14 10 14 6 0 10 -9 10 -21z
m-335 -39 c3 -6 3 -15 0 -20 -10 -16 -45 8 -45 31 0 16 3 18 19 9 11 -5 23
-15 26 -20z m275 1 c0 -21 -26 -36 -36 -20 -6 11 13 39 27 39 5 0 9 -9 9 -19z
m-347 -132 c22 -92 15 -101 -12 -14 -23 74 -25 85 -13 85 5 0 16 -32 25 -71z
m387 -19 c-15 -42 -19 -47 -15 -21 9 61 28 118 32 96 2 -11 -6 -45 -17 -75z
m-322 -42 c11 -11 16 -10 26 5 16 21 42 22 50 1 8 -20 -1 -34 -21 -34 -9 0
-24 -7 -34 -16 -16 -14 -18 -12 -33 28 -17 47 -21 69 -16 108 1 14 6 2 9 -27
4 -29 12 -58 19 -65z m62 102 c0 -5 -9 -10 -21 -10 -11 0 -17 5 -14 10 3 6 13
10 21 10 8 0 14 -4 14 -10z m160 0 c0 -5 -7 -10 -15 -10 -8 0 -15 5 -15 10 0
6 7 10 15 10 8 0 15 -4 15 -10z m45 -107 c-17 -43 -28 -52 -40 -33 -3 6 -17
10 -31 10 -21 0 -25 4 -22 23 3 22 48 39 48 18 0 -6 7 -11 15 -11 18 0 34 37
37 83 1 28 2 27 5 -7 3 -22 -3 -58 -12 -83z m-448 12 c15 -16 12 -45 -5 -45
-16 0 -34 29 -28 45 7 19 14 19 33 0z m612 -34 c9 -15 7 -20 -9 -24 -24 -6
-29 -1 -23 24 7 24 19 24 32 0z m-673 -87 c-3 -9 -6 -18 -6 -20 0 -2 -4 -4 -9
-4 -5 0 -7 9 -4 20 3 11 10 20 15 20 6 0 7 -7 4 -16z m754 -33 c13 -26 13 -31
-4 -25 -16 6 -29 44 -15 44 4 0 13 -9 19 -19z m-732 -93 c-1 -35 2 -72 5 -84
5 -15 -1 -31 -20 -57 -60 -78 -222 -273 -243 -292 -27 -24 -14 4 128 268 50
92 93 181 97 197 4 17 13 30 21 30 10 0 13 -15 12 -62z m751 30 c18 -18 49
-38 69 -43 36 -10 37 -12 74 -125 71 -224 100 -322 95 -327 -3 -3 -15 15 -28
39 -12 23 -36 68 -54 98 -68 115 -193 346 -200 368 -9 31 7 27 44 -10z m-389
-44 c0 -14 -14 -33 -21 -28 -15 9 -10 31 6 31 8 0 15 -1 15 -3z m195 -214 c25
-112 44 -205 42 -206 -1 -2 -29 73 -61 166 -45 133 -56 177 -51 202 8 36 15
51 21 46 2 -2 24 -96 49 -208z m-105 42 c0 -10 -6 -42 -14 -72 -8 -30 -24
-109 -37 -175 -12 -66 -24 -115 -26 -108 -2 6 3 95 11 198 10 123 12 194 6
206 -6 10 -10 24 -10 31 1 20 70 -59 70 -80z"/>
<path d="M1362 2880 c0 -14 2 -19 5 -12 2 6 2 18 0 25 -3 6 -5 1 -5 -13z"/>
<path d="M1353 2765 c0 -22 2 -30 4 -17 2 12 2 30 0 40 -3 9 -5 -1 -4 -23z"/>
<path d="M1581 2784 c0 -11 3 -14 6 -6 3 7 2 16 -1 19 -3 4 -6 -2 -5 -13z"/>
<path d="M1082 2715 c0 -16 2 -22 5 -12 2 9 2 23 0 30 -3 6 -5 -1 -5 -18z"/>
<path d="M1343 2630 c0 -25 2 -35 4 -22 2 12 2 32 0 45 -2 12 -4 2 -4 -23z"/>
<path d="M1073 2570 c0 -30 2 -43 4 -27 2 15 2 39 0 55 -2 15 -4 2 -4 -28z"/>
<path d="M1334 2390 c0 -52 1 -74 3 -47 2 26 2 68 0 95 -2 26 -3 4 -3 -48z"/>
<path d="M1064 2265 c0 -77 2 -107 3 -67 2 40 2 103 0 140 -2 37 -3 4 -3 -73z"/>
<path d="M998 815 c-4 -27 -9 -79 -12 -115 -4 -52 -2 -45 10 30 8 52 13 104
11 115 -1 11 -6 -2 -9 -30z"/>
<path d="M973 590 c0 -25 2 -35 4 -22 2 12 2 32 0 45 -2 12 -4 2 -4 -23z"/>
</g>
</svg>
