<?xml version="1.0" standalone="no"?>
<!DOCTYPE svg PUBLIC "-//W3C//DTD SVG 20010904//EN"
 "http://www.w3.org/TR/2001/REC-SVG-20010904/DTD/svg10.dtd">
<svg version="1.0" xmlns="http://www.w3.org/2000/svg"
 width="244.000000pt" height="305.000000pt" viewBox="0 0 244.000000 305.000000"
 preserveAspectRatio="xMidYMid meet">
<metadata>
Created by potrace 1.16, written by Peter Selinger 2001-2019
</metadata>
<g transform="translate(0.000000,305.000000) scale(0.100000,-0.100000)"
fill="#000000" stroke="none">
<path d="M898 2905 c-13 -23 -60 -278 -78 -425 -6 -47 -14 -191 -17 -321 l-6
-237 31 -16 c17 -9 41 -26 52 -38 l20 -22 27 25 c16 14 41 31 56 39 l29 14 -7
201 c-3 110 -10 245 -16 300 -11 119 -51 364 -56 348 -2 -6 5 -71 16 -145 25
-162 41 -379 41 -549 l0 -126 -40 -27 c-22 -14 -42 -26 -45 -26 -3 0 -5 219
-4 488 1 418 3 481 14 442 17 -59 18 -30 2 35 -7 27 -16 45 -19 40z"/>
<path d="M1547 2831 c-51 -225 -75 -455 -80 -741 -2 -162 -2 -164 21 -176 12
-6 33 -21 46 -33 29 -27 36 -27 81 9 21 17 44 30 51 30 26 0 0 500 -37 719
-22 133 -49 253 -58 263 -3 4 -14 -28 -24 -71z m57 -127 c35 -213 45 -315 52
-546 l6 -203 -38 -25 c-22 -14 -42 -26 -46 -28 -5 -2 -8 213 -8 479 0 265 2
480 5 477 3 -2 16 -72 29 -154z"/>
<path d="M1176 2523 c-7 -306 -29 -684 -39 -663 -3 8 -13 60 -22 115 -24 157
-34 169 -54 68 -17 -88 -17 -154 0 -163 47 -28 54 -39 54 -89 0 -59 -16 -82
-45 -63 -33 20 -43 15 -36 -20 13 -63 43 -74 88 -31 l28 27 0 -42 c0 -29 5
-45 15 -48 8 -4 15 -17 15 -31 0 -21 -3 -23 -14 -14 -19 16 -66 17 -94 2 -30
-16 -28 -29 6 -36 46 -10 57 -21 60 -59 4 -42 3 -42 -39 -17 -46 28 -107 107
-120 154 -6 23 -18 50 -26 59 -34 39 25 101 92 96 39 -3 40 -2 38 27 -3 36
-43 75 -78 75 -30 0 -81 -43 -89 -75 -7 -27 -26 -35 -26 -11 0 24 -48 73 -76
79 -58 11 -104 -23 -104 -77 0 -25 2 -25 45 -19 41 5 47 3 75 -27 32 -34 39
-74 15 -84 -36 -13 -1 -139 60 -215 19 -24 35 -48 35 -52 0 -5 -16 -29 -35
-55 -51 -67 -45 -113 20 -134 58 -19 67 -10 59 59 -3 32 -4 64 0 69 3 6 31 2
73 -11 38 -11 69 -20 70 -21 4 -3 -28 -190 -33 -195 -3 -3 -4 9 -2 28 2 27 -1
35 -17 40 -27 10 -33 9 -88 -13 -48 -18 -49 -18 -75 1 -47 35 -72 81 -71 132
1 49 -12 129 -25 149 -11 18 -51 15 -77 -7 -18 -15 -23 -28 -22 -59 2 -45 23
-90 96 -207 49 -79 50 -81 57 -185 4 -58 9 -110 11 -117 5 -16 -174 -236 -274
-338 l-30 -30 25 45 c235 424 241 438 234 490 -9 68 -39 134 -87 191 -49 59
-82 138 -73 177 4 15 18 46 31 69 l24 41 -23 16 c-36 25 -100 21 -128 -9 l-23
-25 17 -57 c37 -119 33 -200 -10 -223 -25 -14 -26 -22 -13 -68 3 -9 -22 -24
-71 -43 -119 -47 -281 -102 -285 -97 -2 2 74 52 170 112 237 146 220 130 201
194 -8 29 -18 79 -22 112 -11 96 -27 61 -19 -41 l7 -89 -31 6 c-28 6 -43 -5
-222 -167 -105 -95 -187 -175 -181 -177 6 -2 115 32 244 75 209 70 233 80 236
101 2 13 9 25 16 28 21 8 103 -35 134 -70 54 -61 51 -98 -7 -109 -24 -5 -30
-14 -44 -59 -9 -29 -30 -98 -47 -153 -69 -220 -110 -359 -106 -362 4 -4 108
110 360 394 38 44 38 44 26 89 -7 24 -10 47 -7 50 3 3 41 5 85 5 61 0 91 -5
121 -20 55 -29 61 -55 22 -95 l-31 -32 20 -98 c11 -54 21 -135 21 -180 2 -63
3 -72 8 -41 l7 40 12 -60 c7 -33 21 -100 32 -150 11 -50 22 -108 26 -130 9
-49 8 -52 55 175 30 143 35 160 40 125 5 -30 7 -21 8 38 0 44 10 124 21 179
l21 101 -32 33 c-29 30 -31 36 -20 57 21 40 51 51 154 55 107 5 105 6 86 -61
-10 -38 -10 -38 63 -120 129 -145 219 -244 295 -327 18 -19 33 -30 33 -24 0
12 -50 179 -127 422 -43 135 -47 143 -74 149 -43 8 -52 24 -35 64 19 44 50 73
109 99 56 25 77 21 77 -14 0 -24 11 -29 236 -102 129 -42 237 -74 240 -71 4 4
-271 262 -343 322 -26 21 -39 25 -62 20 l-30 -6 6 90 c4 65 3 91 -6 91 -6 0
-11 -16 -11 -37 0 -21 -3 -68 -7 -106 l-6 -67 45 6 c45 6 47 5 109 -51 104
-94 220 -208 216 -211 -3 -3 -299 165 -363 206 -27 17 -54 72 -54 108 0 15 9
54 20 86 25 74 25 91 0 116 -34 34 -140 21 -140 -17 0 -10 11 -35 25 -55 42
-62 28 -132 -43 -218 -77 -92 -94 -147 -73 -226 10 -37 15 -42 58 -55 55 -17
40 14 136 -286 30 -95 51 -171 47 -168 -5 3 -23 31 -41 63 -39 70 -125 217
-196 336 -46 77 -53 96 -53 141 0 46 7 64 71 169 82 135 95 186 59 224 -23 25
-71 30 -89 9 -6 -8 -13 -55 -15 -106 -4 -81 -8 -97 -31 -127 -14 -19 -37 -42
-51 -50 -22 -15 -27 -15 -64 0 -22 9 -56 16 -75 16 -34 0 -35 -1 -35 -42 0
-53 -19 -32 -21 22 0 27 -2 30 -8 16 -7 -18 -8 -18 -14 -2 -11 27 -8 56 4 56
8 0 10 13 6 38 l-6 37 57 19 c31 10 62 21 69 23 22 8 32 -30 21 -81 -13 -63
-3 -74 52 -57 26 8 44 21 54 39 16 33 13 46 -30 99 -19 23 -34 46 -34 52 0 6
13 25 29 43 63 73 105 210 67 224 -25 10 -19 46 13 82 25 27 37 32 75 32 42 0
46 2 46 24 0 41 -33 71 -78 71 -47 0 -69 -17 -93 -69 l-17 -39 -15 34 c-37 89
-133 100 -167 20 -16 -41 -8 -49 44 -44 38 5 48 2 70 -20 29 -29 33 -58 11
-77 -8 -7 -15 -22 -15 -34 0 -34 -51 -106 -116 -164 -59 -53 -59 -53 -62 -26
-7 54 5 73 54 85 42 11 44 13 29 29 -22 24 -60 30 -90 14 -23 -12 -25 -11 -25
12 0 14 6 24 14 24 19 0 24 18 18 58 -6 38 9 42 32 7 20 -30 39 -32 66 -5 26
26 28 76 3 65 -37 -16 -56 -10 -66 18 -15 47 -1 93 38 117 32 20 33 22 29 73
-6 74 -24 156 -35 162 -5 4 -9 3 -9 -2 0 -4 -6 -37 -14 -73 -8 -36 -17 -89
-21 -117 -4 -29 -10 -55 -14 -57 -4 -3 -13 102 -19 232 -7 130 -17 262 -23
292 -7 31 -9 116 -7 195 2 77 1 156 -3 175 -4 20 -7 -26 -8 -110 l-2 -145 -18
55 -17 55 -13 -50 c-28 -106 -30 -101 -29 58 0 87 -2 160 -4 163 -3 3 -8 -111
-12 -253z m93 -375 c1 -148 4 -268 9 -268 4 0 6 96 5 212 -1 184 0 198 7 103
11 -146 17 -386 10 -355 l-6 25 -8 -25 -8 -25 -7 25 c-8 24 -8 23 -12 -10 -2
-19 -4 35 -4 120 -1 85 -5 243 -11 350 -11 216 -7 267 12 175 8 -39 13 -153
13 -327z m1 -452 c0 -41 -4 -77 -8 -80 -5 -3 -8 31 -8 75 0 43 3 79 8 79 4 0
8 -33 8 -74z m39 11 c0 -23 -4 -51 -8 -61 -7 -19 -8 -18 -14 4 -8 31 3 111 14
104 5 -3 9 -24 8 -47z m-380 -132 c27 -62 110 -146 171 -175 51 -24 72 -58 28
-44 -112 33 -205 128 -228 229 -11 49 5 43 29 -10z m646 13 c-16 -78 -105
-180 -190 -219 -48 -22 -65 -24 -65 -6 0 7 21 23 46 35 64 32 139 106 170 168
30 61 49 71 39 22z m-357 -78 c0 -22 -1 -22 -8 5 -4 17 -8 39 -8 50 0 16 2 15
8 -5 4 -14 8 -36 8 -50z m62 32 c0 -7 -4 -10 -10 -7 -5 3 -10 16 -10 28 0 18
2 19 10 7 5 -8 10 -21 10 -28z m-23 -34 c-3 -8 -6 -5 -6 6 -1 11 2 17 5 13 3
-3 4 -12 1 -19z m-20 -25 c-3 -10 -5 -4 -5 12 0 17 2 24 5 18 2 -7 2 -21 0
-30z m70 -156 c-2 -23 -3 -1 -3 48 0 50 1 68 3 42 2 -26 2 -67 0 -90z m-140
-29 c-3 -8 -6 -5 -6 6 -1 11 2 17 5 13 3 -3 4 -12 1 -19z m130 -110 c-3 -8 -6
-5 -6 6 -1 11 2 17 5 13 3 -3 4 -12 1 -19z m-160 -25 c-3 -10 -5 -4 -5 12 0
17 2 24 5 18 2 -7 2 -21 0 -30z m40 15 c-3 -8 -6 -5 -6 6 -1 11 2 17 5 13 3
-3 4 -12 1 -19z m-47 -92 c0 -3 -4 -8 -10 -11 -5 -3 -10 -1 -10 4 0 6 5 11 10
11 6 0 10 -2 10 -4z m40 -23 c0 -13 -3 -13 -15 -3 -8 7 -12 16 -9 21 8 13 24
1 24 -18z m160 13 c0 -2 -7 -9 -15 -16 -12 -10 -15 -10 -15 4 0 9 7 16 15 16
8 0 15 -2 15 -4z m-43 -58 c-2 -13 -4 -5 -4 17 -1 22 1 32 4 23 2 -10 2 -28 0
-40z m-100 -35 c-3 -10 -5 -2 -5 17 0 19 2 27 5 18 2 -10 2 -26 0 -35z m50
-65 c-3 -8 -6 -5 -6 6 -1 11 2 17 5 13 3 -3 4 -12 1 -19z m53 -183 c7 -66 13
-131 13 -145 0 -21 -47 -254 -57 -285 -2 -5 -3 118 -3 275 0 157 2 291 5 298
11 32 30 -31 42 -143z m50 31 c-1 -17 -7 -53 -15 -81 l-15 -50 4 75 c3 50 2
65 -3 45 -8 -26 -9 -23 -10 24 -1 53 -1 54 19 36 12 -11 20 -30 20 -49z"/>
</g>
</svg>
