<?xml version="1.0" standalone="no"?>
<!DOCTYPE svg PUBLIC "-//W3C//DTD SVG 20010904//EN"
 "http://www.w3.org/TR/2001/REC-SVG-20010904/DTD/svg10.dtd">
<svg version="1.0" xmlns="http://www.w3.org/2000/svg"
 width="244.000000pt" height="305.000000pt" viewBox="0 0 244.000000 305.000000"
 preserveAspectRatio="xMidYMid meet">
<metadata>
Created by potrace 1.16, written by Peter Selinger 2001-2019
</metadata>
<g transform="translate(0.000000,305.000000) scale(0.100000,-0.100000)"
fill="#000000" stroke="none">
<path d="M887 2884 c-3 -16 -1 -34 4 -41 10 -12 7 -928 -3 -938 -3 -3 -24 7
-48 22 l-42 28 6 195 c7 204 23 364 57 564 10 66 18 121 16 123 -6 6 -45 -203
-62 -332 -9 -66 -19 -224 -22 -351 l-6 -232 36 -17 c21 -9 37 -21 37 -25 0
-22 43 -20 73 2 18 14 41 28 51 32 18 6 19 16 13 214 -10 299 -24 433 -73 677
-20 98 -29 118 -37 79z"/>
<path d="M1566 2894 c-3 -8 -1 -24 5 -35 7 -14 9 -173 8 -490 -3 -480 -5 -496
-40 -453 -7 9 -24 20 -37 25 l-25 10 7 192 c9 241 35 485 71 667 4 18 3 21 -4
10 -5 -8 -16 -55 -25 -105 -33 -189 -47 -338 -53 -562 l-6 -232 27 -11 c15 -5
39 -21 53 -35 l27 -25 26 25 c14 13 37 28 53 34 l27 11 0 122 c-1 263 -31 555
-81 776 -11 50 -22 92 -24 92 -1 0 -6 -7 -9 -16z"/>
<path d="M1212 2524 c-40 -149 -62 -345 -62 -541 0 -111 -14 -158 -25 -86 -13
86 -35 197 -40 201 -11 12 -23 -16 -34 -79 -18 -106 -16 -118 29 -159 38 -35
40 -40 35 -80 -3 -24 -8 -47 -11 -51 -8 -13 -38 -11 -52 3 -20 20 -35 -4 -22
-38 20 -50 49 -57 82 -19 31 35 39 31 32 -15 -6 -38 -5 -41 23 -50 19 -7 36
-24 47 -47 l18 -37 20 36 c12 20 31 41 44 47 20 9 24 18 24 51 0 22 3 40 6 40
4 0 17 -11 30 -25 13 -14 30 -25 38 -25 20 0 46 39 46 68 0 19 -4 23 -17 17
-45 -18 -53 -17 -63 10 -23 61 -13 88 49 134 23 17 23 18 12 106 -7 49 -17 98
-23 109 -11 20 -12 20 -19 -7 -4 -16 -15 -76 -25 -133 -9 -57 -20 -104 -24
-104 -4 0 -10 78 -14 173 -4 94 -11 215 -17 267 -10 95 -45 273 -59 299 -4 8
-15 -17 -28 -65z m18 -454 l0 -469 -36 21 -37 22 7 235 c4 130 11 281 17 336
11 113 41 325 46 325 2 0 3 -211 3 -470z"/>
<path d="M752 1863 c-28 -5 -55 -44 -50 -75 3 -21 8 -23 46 -20 37 3 46 0 77
-31 40 -40 44 -62 14 -78 -19 -9 -21 -17 -15 -55 7 -57 38 -122 83 -173 34
-40 34 -42 19 -66 -9 -14 -20 -25 -24 -25 -12 0 -42 -56 -42 -77 0 -46 92 -91
120 -59 10 13 10 22 1 42 -15 33 -14 69 2 83 10 8 29 5 75 -12 48 -17 66 -19
79 -11 30 19 20 34 -38 58 -31 12 -70 32 -87 44 -60 43 -122 141 -122 192 0
33 14 23 33 -24 27 -66 138 -169 205 -190 18 -6 22 -3 22 13 0 12 -22 36 -59
65 -66 51 -121 126 -121 166 0 15 -9 35 -19 44 -41 37 15 100 84 94 45 -3 50
1 42 42 -7 34 -36 52 -83 52 -42 0 -62 -16 -82 -62 -13 -32 -15 -33 -26 -16
-36 62 -81 88 -134 79z"/>
<path d="M1435 1860 c-29 -11 -43 -31 -47 -65 -3 -30 -3 -30 44 -27 40 3 51 0
73 -22 27 -27 33 -71 11 -79 -7 -3 -16 -23 -19 -44 -8 -49 -56 -112 -124 -164
-32 -24 -53 -47 -53 -59 0 -17 4 -18 25 -10 79 30 182 127 206 193 7 20 17 37
22 37 19 0 -5 -77 -39 -127 -43 -63 -89 -99 -163 -129 -57 -23 -68 -39 -40
-57 11 -7 34 -4 80 11 54 17 66 18 78 6 13 -12 13 -21 2 -65 -14 -54 -8 -69
29 -69 24 0 78 37 85 59 7 22 -14 69 -40 91 -37 31 -37 47 1 97 20 26 45 66
55 88 23 50 25 130 4 139 -24 9 -17 36 20 73 30 30 40 34 77 31 35 -2 43 1 46
16 6 28 -17 63 -49 76 -47 20 -95 -2 -123 -58 l-24 -47 -18 44 c-12 32 -26 47
-50 57 -38 16 -41 16 -69 4z"/>
<path d="M1083 1575 c-42 -18 -42 -32 1 -41 52 -9 75 -41 87 -117 14 -92 10
-120 -21 -127 -20 -5 -25 -12 -25 -35 0 -25 5 -31 26 -33 49 -6 39 -72 -10
-72 -44 0 -49 -48 -8 -69 21 -10 20 -10 -8 -8 -28 2 -30 5 -33 47 -2 24 -8 48
-15 52 -14 9 -63 0 -105 -20 -42 -19 -69 -8 -108 44 -22 29 -29 50 -31 88 -1
28 -5 75 -9 104 -6 45 -11 55 -32 63 -18 7 -31 5 -48 -6 -62 -40 -55 -86 38
-241 38 -64 72 -131 75 -148 6 -44 -11 -84 -107 -244 -103 -173 -96 -161 -145
-246 -21 -38 -40 -65 -42 -60 -2 6 27 104 65 219 l68 210 46 13 c53 14 68 42
68 119 0 52 -18 89 -78 163 -80 99 -90 148 -41 224 28 46 29 49 13 67 -24 26
-114 27 -137 1 -22 -24 -21 -49 4 -128 24 -73 20 -117 -11 -157 -17 -22 -274
-175 -370 -221 -39 -19 -44 -24 164 168 l96 89 46 -7 46 -6 -7 98 c-4 53 -12
102 -17 107 -7 7 -9 -20 -5 -83 l6 -93 -34 7 c-33 6 -41 0 -225 -167 -104 -95
-188 -174 -186 -176 5 -5 90 21 328 99 148 48 156 53 162 80 7 35 18 35 94 -2
50 -26 64 -39 82 -76 25 -51 19 -68 -28 -77 -26 -5 -31 -15 -62 -109 -82 -256
-147 -468 -143 -468 6 0 140 141 214 224 24 28 77 86 118 130 78 84 78 85 55
164 -6 22 -5 22 88 22 82 0 100 -3 128 -22 56 -39 59 -53 21 -92 l-34 -35 28
-133 c15 -73 31 -151 35 -173 30 -159 80 -367 80 -332 0 3 18 93 40 199 97
459 92 429 74 455 -8 13 -22 27 -30 30 -33 12 -4 62 53 92 26 13 189 15 197 2
3 -5 0 -27 -8 -48 l-14 -40 130 -144 c72 -79 163 -179 201 -222 39 -42 72 -75
75 -73 4 5 -9 47 -120 400 l-50 158 -40 16 c-36 14 -39 18 -34 44 12 60 75
113 158 133 24 6 27 4 30 -22 3 -26 10 -30 128 -70 241 -80 352 -114 362 -111
6 2 -77 82 -183 177 -181 161 -196 172 -226 167 l-33 -5 7 90 c7 104 -10 126
-21 25 -3 -35 -13 -85 -20 -110 -14 -45 -13 -47 7 -60 46 -28 235 -145 305
-187 40 -24 68 -45 63 -47 -5 -2 -88 25 -185 59 -179 63 -191 70 -166 109 6
11 1 21 -22 40 -42 35 -49 108 -19 194 26 74 26 91 1 116 -27 27 -99 27 -131
1 l-23 -18 32 -48 c18 -27 32 -55 32 -62 0 -46 -27 -107 -72 -162 -60 -74 -88
-135 -95 -204 -5 -59 -10 -50 159 -346 54 -95 97 -175 95 -178 -4 -3 -122 127
-256 284 l-54 63 13 44 c7 25 9 53 6 63 -4 9 -4 41 0 70 5 42 23 81 82 180 78
132 92 181 62 218 -24 28 -61 38 -79 20 -19 -19 -43 -131 -35 -170 6 -35 -35
-101 -79 -124 -24 -13 -31 -13 -62 2 -20 9 -54 17 -75 17 -40 0 -40 0 -40 -39
0 -40 -11 -56 -45 -63 -15 -2 -23 -16 -30 -50 -10 -45 -45 -98 -65 -98 -6 0
-10 -109 -10 -312 0 -171 -2 -309 -4 -307 -3 2 -14 52 -26 109 -11 58 -32 155
-45 215 -36 164 -36 157 13 210 47 51 49 61 23 113 -10 20 -21 61 -24 90 -5
47 -4 52 8 42 8 -7 15 -22 15 -34 0 -11 9 -41 20 -65 17 -36 23 -41 35 -31 15
12 32 58 37 99 2 19 12 27 43 35 40 12 50 29 32 54 -5 6 -18 12 -28 12 -25 0
-52 40 -38 56 6 7 20 14 32 16 14 2 23 11 25 26 3 22 -13 52 -26 50 -31 -4
-34 3 -27 65 12 113 37 167 79 167 12 0 27 4 35 9 25 16 -6 41 -50 41 -43 0
-82 -31 -104 -82 -16 -40 -23 -39 -44 7 -32 70 -75 93 -128 70z"/>
</g>
</svg>
