<?xml version="1.0" standalone="no"?>
<!DOCTYPE svg PUBLIC "-//W3C//DTD SVG 20010904//EN"
 "http://www.w3.org/TR/2001/REC-SVG-20010904/DTD/svg10.dtd">
<svg version="1.0" xmlns="http://www.w3.org/2000/svg"
 width="244.000000pt" height="305.000000pt" viewBox="0 0 244.000000 305.000000"
 preserveAspectRatio="xMidYMid meet">
<metadata>
Created by potrace 1.16, written by Peter Selinger 2001-2019
</metadata>
<g transform="translate(0.000000,305.000000) scale(0.100000,-0.100000)"
fill="#000000" stroke="none">
<path d="M1431 2849 c-19 -119 -40 -355 -47 -549 -4 -102 -10 -187 -13 -190
-4 -3 -12 -16 -18 -30 -11 -24 -12 -25 -12 -2 -1 38 -21 24 -22 -15 0 -21 -4
-47 -8 -58 -4 -11 -10 54 -14 150 -5 158 -33 365 -55 425 l-10 25 -6 -25 c-27
-108 -48 -258 -53 -392 -3 -87 -10 -158 -15 -158 -4 0 -8 16 -8 35 0 41 -20
48 -21 8 l-1 -28 -10 30 c-22 59 -35 58 -37 -3 -2 -92 -21 -172 -40 -172 -3 0
-6 222 -6 494 0 272 -3 492 -6 490 -4 -2 -10 -33 -14 -68 -13 -127 -20 -129
-39 -13 -11 59 -22 107 -25 107 -3 0 -5 -227 -3 -505 2 -346 0 -505 -8 -505
-5 0 -10 4 -10 10 0 5 -14 16 -30 25 -30 15 -30 16 -30 99 0 129 19 428 35
556 18 140 18 191 -1 90 -21 -113 -43 -415 -45 -593 l-1 -158 41 -29 c23 -17
41 -34 41 -39 0 -20 -21 -22 -50 -5 -37 22 -78 11 -99 -27 -21 -37 -9 -59 33
-59 26 0 41 -8 65 -35 36 -41 36 -43 15 -74 -12 -16 -15 -37 -12 -72 5 -45 3
-49 -16 -49 -30 0 -46 -18 -46 -51 0 -32 -17 -48 -23 -22 -6 26 -20 -113 -15
-142 3 -14 2 -25 -1 -25 -19 1 -32 21 -37 61 -5 36 -1 53 21 93 24 46 25 50 9
67 -23 25 -92 26 -110 2 -18 -24 -17 -78 2 -133 11 -30 14 -62 10 -95 -4 -42
-11 -55 -42 -82 -39 -34 -298 -213 -309 -213 -13 0 13 31 125 149 l115 122 39
-7 39 -6 -6 62 c-4 35 -7 83 -7 106 0 27 -5 44 -11 44 -9 0 -10 -26 -6 -91 l6
-90 -27 6 c-25 5 -39 -7 -153 -127 -155 -165 -199 -213 -199 -222 0 -9 32 0
90 27 25 11 68 28 95 38 28 9 78 29 113 42 34 14 62 22 62 19 0 -4 -16 -29
-34 -57 -19 -27 -31 -51 -26 -53 4 -2 23 6 41 16 19 10 73 40 122 66 l87 48
15 -36 c22 -51 19 -66 -15 -78 -33 -11 -27 4 -88 -223 -80 -298 -93 -347 -90
-356 2 -6 27 20 55 58 138 181 156 204 160 199 3 -2 -5 -55 -17 -116 -11 -62
-19 -114 -16 -117 2 -2 30 42 61 99 32 57 84 152 117 211 58 104 60 110 54
159 l-7 51 42 -6 c44 -6 99 -48 99 -76 0 -8 -11 -27 -25 -41 l-26 -27 45 -264
c62 -361 68 -391 72 -387 2 2 19 96 38 208 19 113 44 258 56 324 l21 118 -27
29 c-32 33 -28 70 11 95 29 19 100 30 108 17 3 -5 1 -28 -4 -52 -9 -39 -7 -48
27 -109 20 -37 50 -92 66 -122 17 -30 48 -89 71 -130 22 -41 48 -88 56 -105
23 -47 24 -13 3 93 -23 109 -30 152 -27 152 1 0 46 -57 100 -126 53 -69 98
-124 101 -122 3 4 -11 61 -92 368 -46 175 -51 188 -86 206 -26 13 -29 19 -23
47 12 57 26 63 81 31 27 -15 81 -44 120 -64 40 -19 79 -42 88 -49 32 -27 28 0
-8 55 -21 31 -35 58 -33 60 3 3 29 -6 58 -20 30 -13 68 -28 84 -32 17 -4 61
-20 99 -36 38 -15 71 -27 72 -25 2 2 -13 21 -34 44 -20 22 -75 82 -122 134
-156 173 -156 172 -184 165 l-26 -6 -1 92 -1 93 -13 -80 c-7 -44 -16 -94 -20
-112 -7 -31 -6 -32 158 -154 91 -68 164 -125 163 -127 -5 -5 -222 87 -270 115
-12 7 -21 23 -22 43 -1 17 -11 40 -23 51 -37 34 -39 90 -10 220 11 50 11 60
-4 83 -13 19 -26 26 -48 26 -53 0 -69 -15 -69 -66 0 -28 -4 -43 -10 -39 -5 3
-10 23 -10 44 0 46 -19 65 -58 59 l-29 -4 9 49 c8 40 6 52 -8 68 -36 40 19
123 79 117 31 -3 32 -2 30 32 -2 52 -53 77 -103 50 -14 -7 -20 -6 -25 8 -6 16
4 28 48 57 13 9 14 44 7 270 -5 143 -14 303 -20 355 -13 110 -47 316 -57 345
-6 19 -7 18 -14 -5 -4 -14 -7 -34 -7 -45 0 -16 2 -15 8 5 4 14 8 -195 9 -464
1 -269 -2 -486 -6 -482 -5 4 -7 49 -7 99 2 89 1 90 -5 22 -5 -63 -8 -70 -29
-73 -13 -2 -24 3 -28 12 -7 19 14 535 24 586 l6 35 6 -40 c3 -22 5 21 5 95 0
74 -2 122 -4 105 -5 -29 -5 -29 -12 10 -5 28 -6 19 -3 -30 2 -38 -3 -113 -10
-165 l-15 -95 2 233 c1 127 2 232 1 232 -1 0 -6 -32 -13 -71z m-421 -975 c0
-9 -10 -14 -27 -14 -25 0 -26 1 -8 20 19 21 35 18 35 -6z m414 -5 c-8 -14 -34
-11 -34 4 0 8 3 17 7 20 9 9 34 -13 27 -24z m-336 4 c2 -8 -5 -13 -17 -13 -12
0 -21 6 -21 16 0 18 31 15 38 -3z m397 7 c9 -15 -3 -30 -20 -24 -7 3 -11 12
-8 20 6 16 19 18 28 4z m-369 -146 c-16 -15 -19 -16 -34 -1 -14 15 -14 17 9
26 32 12 47 -3 25 -25z m283 20 c2 -2 -2 -10 -8 -18 -10 -12 -16 -13 -32 -3
-30 18 -24 39 9 31 15 -4 29 -8 31 -10z m-397 -76 c-13 -13 -26 8 -17 30 6 16
7 16 17 -1 7 -13 7 -22 0 -29z m414 5 c-11 -11 -17 4 -9 23 7 18 8 18 11 1 2
-10 1 -21 -2 -24z m61 0 c-3 -10 -5 -4 -5 12 0 17 2 24 5 18 2 -7 2 -21 0 -30z
m-373 -32 c42 4 56 -1 56 -20 0 -10 9 -21 20 -24 12 -3 28 -23 38 -47 l18 -43
16 42 c11 26 25 45 38 48 12 3 20 14 20 27 0 18 6 21 44 21 44 0 45 0 39 -30
-9 -54 -9 -55 -45 -44 -56 16 -87 -9 -103 -81 l-8 -34 -19 52 c-22 60 -48 76
-97 62 -35 -10 -36 -8 -46 40 -3 19 -8 44 -11 55 -3 17 -2 16 8 -3 7 -13 19
-22 32 -21z m-134 -65 c6 -19 24 -61 39 -93 16 -32 27 -60 24 -63 -12 -13 -79
105 -90 161 -8 41 13 37 27 -5z m90 -56 c-1 -3 -7 4 -15 14 -8 11 -15 34 -14
50 0 28 2 27 15 -14 7 -25 14 -47 14 -50z m380 54 c-8 -35 -20 -57 -20 -37 0
25 13 73 20 73 4 0 4 -16 0 -36z m59 -61 c-23 -50 -70 -117 -54 -78 4 11 15
43 25 70 10 28 24 64 31 80 l13 30 4 -27 c2 -14 -7 -48 -19 -75z m-337 -32 c9
-19 15 -38 12 -43 -6 -9 -64 58 -64 74 0 22 36 0 52 -31z m198 32 c0 -11 -44
-73 -52 -73 -18 0 3 57 26 72 14 10 26 10 26 1z m209 -70 c13 -47 13 -73 -2
-145 -13 -61 -34 -97 -23 -39 17 91 18 138 4 167 -15 29 -14 54 2 54 5 0 14
-17 19 -37z m-639 -23 c-6 -11 -10 -49 -9 -85 2 -82 -6 -92 -20 -25 -15 67
-14 84 5 128 13 32 17 35 25 20 7 -12 6 -24 -1 -38z m780 -52 c0 -40 -18 -88
-33 -88 -5 0 -7 10 -3 23 3 12 6 51 6 87 1 61 1 64 15 40 8 -14 14 -42 15 -62z
m-546 2 c14 -5 26 -14 26 -20 0 -16 -15 -12 -41 10 -27 22 -22 25 15 10z m186
5 c0 -11 -59 -34 -65 -25 -3 6 4 14 17 19 26 11 48 13 48 6z m-203 -85 c24 -1
25 -2 11 -11 -27 -15 -23 -58 7 -69 15 -6 25 -17 25 -29 0 -24 -36 -48 -42
-29 -3 8 -25 12 -66 10 -47 -2 -62 1 -62 11 0 22 11 27 31 14 27 -17 34 -2 31
64 -3 58 -2 60 17 50 11 -6 32 -11 48 -11z m246 -51 l-6 -61 32 7 c25 5 31 3
31 -10 0 -15 -7 -17 -47 -11 -32 4 -57 1 -75 -8 -19 -10 -29 -11 -37 -3 -19
19 -12 47 14 57 27 10 34 47 13 68 -9 9 -7 12 13 12 13 0 31 4 39 9 24 16 28
4 23 -60z m266 -3 c-14 -15 -22 0 -13 26 7 22 7 22 14 3 4 -11 4 -24 -1 -29z
m-824 -16 c3 -5 1 -10 -4 -10 -6 0 -11 5 -11 10 0 6 2 10 4 10 3 0 8 -4 11
-10z m681 -52 c-9 -12 -16 -17 -16 -10 0 18 24 54 28 42 2 -5 -4 -20 -12 -32z
m-536 -22 c0 -6 -7 -2 -15 8 -8 11 -15 25 -15 30 0 6 7 2 15 -8 8 -11 15 -25
15 -30z m810 -21 c0 -17 8 -29 24 -36 24 -11 95 -99 79 -99 -4 0 -42 32 -83
70 -61 57 -72 72 -60 80 25 17 40 11 40 -15z m-1026 -13 c15 -18 14 -20 -31
-46 -27 -15 -66 -38 -88 -52 -22 -13 -44 -24 -50 -24 -13 0 127 138 141 139 6
1 18 -7 28 -17z m140 -22 c18 -46 21 -92 6 -118 -17 -30 -208 -427 -224 -467
-9 -21 -18 -36 -21 -33 -4 4 36 166 74 298 11 36 25 84 31 108 9 36 17 45 51
58 46 19 54 40 53 132 0 34 2 62 6 62 5 0 15 -18 24 -40z m677 -27 c-6 -21
-11 -55 -11 -76 0 -35 -1 -37 -16 -22 -19 19 -13 78 13 129 20 38 28 21 14
-31z m-274 1 c-3 -3 -12 -4 -19 -1 -8 3 -5 6 6 6 11 1 17 -2 13 -5z m-38 -100
c-6 -21 -17 -45 -24 -53 -11 -11 -16 -9 -29 17 -9 17 -16 39 -16 49 1 11 7 5
15 -15 17 -39 29 -35 45 14 16 47 22 38 9 -12z m246 -35 c4 -5 4 -22 0 -37 -7
-25 -8 -25 -15 -7 -17 41 -4 76 15 44z m-500 -44 c7 -41 2 -53 -70 -192 -72
-138 -114 -208 -103 -173 3 8 13 40 22 70 23 73 76 203 87 214 5 6 9 22 9 37
0 39 20 89 35 89 9 0 16 -17 20 -45z m561 -22 c8 -32 14 -66 14 -77 0 -16 -2
-16 -16 -5 -21 18 -45 65 -40 81 2 7 7 26 11 42 8 37 15 29 31 -41z m113 -152
c95 -199 116 -254 78 -199 -9 13 -31 44 -49 69 -100 140 -99 138 -119 235 -19
97 -22 121 -15 113 2 -2 50 -100 105 -218z m-530 27 l-1 -53 -9 40 c-5 21 -7
45 -5 52 11 26 16 12 15 -39z m467 -127 c36 -161 31 -171 -17 -35 -18 49 -38
105 -45 124 -24 64 -16 77 17 25 17 -27 37 -78 45 -114z m-459 27 c-3 -7 -5
-2 -5 12 0 14 2 19 5 13 2 -7 2 -19 0 -25z"/>
<path d="M932 2840 c0 -14 2 -19 5 -12 2 6 2 18 0 25 -3 6 -5 1 -5 -13z"/>
<path d="M1042 2805 c0 -16 2 -22 5 -12 2 9 2 23 0 30 -3 6 -5 -1 -5 -18z"/>
<path d="M922 2790 c0 -14 2 -19 5 -12 2 6 2 18 0 25 -3 6 -5 1 -5 -13z"/>
<path d="M1053 2695 c0 -22 2 -30 4 -17 2 12 2 30 0 40 -3 9 -5 -1 -4 -23z"/>
<path d="M1063 2605 c0 -22 2 -30 4 -17 2 12 2 30 0 40 -3 9 -5 -1 -4 -23z"/>
<path d="M1073 2490 c0 -25 2 -35 4 -22 2 12 2 32 0 45 -2 12 -4 2 -4 -23z"/>
<path d="M1494 2340 c0 -69 1 -97 3 -62 2 34 2 90 0 125 -2 34 -3 6 -3 -63z"/>
<path d="M1084 2250 c0 -63 1 -89 3 -57 2 31 2 83 0 115 -2 31 -3 5 -3 -58z"/>
</g>
</svg>
