<?xml version="1.0" standalone="no"?>
<!DOCTYPE svg PUBLIC "-//W3C//DTD SVG 20010904//EN"
 "http://www.w3.org/TR/2001/REC-SVG-20010904/DTD/svg10.dtd">
<svg version="1.0" xmlns="http://www.w3.org/2000/svg"
 width="244.000000pt" height="305.000000pt" viewBox="0 0 244.000000 305.000000"
 preserveAspectRatio="xMidYMid meet">
<metadata>
Created by potrace 1.16, written by Peter Selinger 2001-2019
</metadata>
<g transform="translate(0.000000,305.000000) scale(0.100000,-0.100000)"
fill="#000000" stroke="none">
<path d="M910 2893 c0 -12 -3 -29 -7 -39 -4 -12 -3 -15 5 -10 9 5 12 -111 12
-469 0 -262 -4 -475 -8 -473 -4 2 -24 14 -44 28 l-38 25 0 100 c0 159 18 418
40 565 29 199 32 225 10 125 -33 -155 -50 -312 -59 -560 -9 -237 -6 -275 23
-275 7 0 23 -11 36 -25 29 -31 35 -31 70 -2 15 12 35 27 45 32 11 7 18 28 22
64 4 48 -8 304 -23 496 -9 105 -62 417 -74 429 -7 7 -10 3 -10 -11z"/>
<path d="M1376 2868 c-10 -65 -16 -135 -22 -263 -3 -71 -7 -136 -9 -143 -3 -6
-5 -140 -5 -297 -1 -157 -5 -287 -10 -290 -4 -2 -11 64 -14 148 -4 83 -14 208
-22 277 -18 151 -53 309 -64 289 -15 -26 -50 -213 -59 -314 -6 -55 -13 -169
-17 -252 -4 -91 -10 -153 -16 -153 -6 0 -8 17 -4 45 4 26 3 45 -2 45 -5 0 -17
39 -27 88 -14 75 -16 141 -13 459 2 205 0 364 -3 355 -18 -49 -38 -405 -40
-716 l-2 -250 33 -28 c28 -23 32 -31 24 -49 -10 -22 -11 -21 -23 9 -15 36 -38
46 -81 37 -33 -7 -70 -48 -70 -76 0 -28 -16 -23 -30 10 -18 46 -47 66 -92 66
-45 0 -78 -30 -78 -71 0 -22 4 -24 43 -24 36 0 49 -6 75 -33 35 -36 40 -58 17
-77 -31 -25 -15 -107 37 -191 35 -58 36 -106 3 -155 -14 -20 -25 -47 -25 -60
0 -13 -4 -24 -9 -24 -14 0 -21 28 -12 51 4 12 3 40 -2 63 -5 23 -12 55 -16 71
-5 23 -13 31 -35 33 -43 5 -66 -22 -66 -78 0 -37 9 -61 45 -120 61 -102 58
-128 -5 -45 -28 36 -57 79 -65 95 -23 44 -19 107 10 156 l26 43 -21 21 c-14
14 -33 20 -65 20 -37 0 -47 -4 -62 -26 -16 -25 -16 -30 2 -93 10 -36 20 -79
23 -94 7 -41 -23 -98 -66 -127 -74 -49 -327 -200 -335 -200 -5 0 54 61 130
135 l138 136 43 -5 42 -6 0 44 c0 77 -12 166 -22 159 -6 -3 -7 -38 -3 -89 l7
-84 -34 3 c-31 2 -48 -11 -211 -167 -167 -160 -200 -198 -159 -181 9 4 111 40
227 80 189 65 210 75 213 96 6 37 15 40 63 24 103 -35 142 -117 80 -167 -26
-20 -38 -55 -110 -296 -45 -151 -81 -277 -79 -282 5 -12 352 391 376 435 6 12
7 27 2 35 -4 8 -10 26 -12 40 -3 21 2 25 34 31 45 7 48 1 37 -71 -25 -164 -60
-432 -57 -441 2 -6 23 40 47 103 24 62 61 158 83 213 33 83 38 107 33 143 -6
40 -5 43 12 34 10 -6 28 -21 41 -35 l23 -25 -30 -35 c-17 -19 -31 -41 -31 -48
0 -22 120 -632 125 -638 3 -2 5 0 5 6 0 5 27 149 60 319 33 170 60 314 60 321
0 7 -14 28 -31 48 l-31 35 30 30 c44 43 52 39 52 -27 0 -59 23 -128 132 -393
30 -73 38 -86 34 -55 -3 22 -6 51 -7 65 0 23 -1 23 -9 5 -6 -13 -8 0 -5 40 3
41 2 49 -3 25 -6 -30 -14 -9 -56 160 -27 107 -51 201 -54 208 -3 10 3 13 24
10 28 -3 29 -5 46 -103 16 -93 16 -83 1 52 l-6 53 38 0 37 0 -6 -36 c-4 -19
-9 -41 -12 -47 -4 -12 22 -45 241 -303 152 -180 136 -164 129 -129 -3 17 -29
107 -56 200 -28 94 -61 207 -73 253 -14 47 -35 96 -49 113 -51 61 -19 130 73
158 48 14 61 9 61 -23 0 -18 11 -26 63 -43 34 -12 134 -46 221 -77 88 -31 162
-54 164 -51 3 2 -20 27 -49 56 -30 28 -109 105 -176 171 -117 114 -124 119
-154 113 l-32 -7 5 78 c8 109 -3 126 -18 29 -7 -44 -15 -96 -19 -115 -6 -34
-4 -36 57 -76 225 -148 298 -197 295 -201 -4 -4 -92 27 -249 88 -87 33 -103
50 -77 76 9 9 3 19 -21 41 -44 41 -50 95 -20 196 26 87 20 121 -25 132 -36 9
-95 -4 -102 -23 -4 -9 4 -35 17 -57 30 -52 33 -85 15 -137 -16 -44 -108 -165
-113 -149 -2 5 15 40 37 78 22 37 43 80 46 95 15 57 -16 107 -65 107 -26 0
-30 -4 -35 -37 -3 -21 -10 -53 -15 -72 -6 -22 -5 -41 1 -54 8 -13 8 -22 0 -30
-7 -7 -13 -3 -21 14 -6 13 -17 35 -25 49 -21 36 -19 122 3 151 22 28 52 112
52 145 0 12 -7 27 -15 34 -24 20 -17 55 18 90 27 27 37 31 70 27 34 -5 37 -3
37 20 0 90 -116 104 -157 19 -18 -38 -33 -47 -33 -20 0 25 -65 84 -91 84 -29
0 -40 -7 -62 -40 l-17 -24 0 26 c0 14 7 29 15 32 28 10 45 71 43 148 l-1 73
-6 -65 -6 -65 -15 80 c-12 63 -15 166 -15 473 0 215 -1 392 -2 392 -1 0 -4
-15 -7 -32z m-159 -420 c-3 -8 -6 -5 -6 6 -1 11 2 17 5 13 3 -3 4 -12 1 -19z
m-10 -175 c-4 -71 -7 -191 -8 -268 -1 -124 -2 -134 -11 -85 -9 54 -4 367 8
443 12 75 17 34 11 -90z m-30 -520 c-2 -21 -4 -6 -4 32 0 39 2 55 4 38 2 -18
2 -50 0 -70z m315 -10 c26 -23 29 -52 7 -71 -10 -9 -19 -26 -19 -39 0 -31 -19
-72 -51 -110 l-27 -32 4 77 c3 42 10 97 16 121 9 35 9 46 -1 49 -8 3 -9 8 -1
17 12 15 47 9 72 -12z m-437 7 c3 -5 1 -10 -4 -10 -14 0 -14 -35 -1 -59 5 -10
10 -45 11 -77 1 -33 6 -71 10 -86 10 -37 -2 -35 -32 4 -39 51 -48 71 -49 101
0 15 -9 35 -20 44 -25 22 -25 34 1 67 21 27 71 36 84 16z m95 -95 c0 -37 3
-45 19 -45 17 0 51 -39 51 -57 0 -4 -5 0 -11 10 -6 9 -22 17 -37 17 -16 0 -33
5 -40 12 -13 13 -16 66 -6 92 12 31 24 16 24 -29z m50 10 c0 -24 -5 -35 -15
-35 -18 0 -18 -1 -4 39 14 40 19 39 19 -4z m150 -24 c0 -48 -8 -58 -52 -63
-32 -3 -35 -2 -27 14 5 10 19 18 29 18 17 0 20 7 20 46 0 40 2 45 15 34 8 -7
15 -29 15 -49z m-406 -67 c14 -33 16 -48 8 -56 -9 -9 -16 -2 -27 25 -16 39
-20 77 -7 77 4 0 15 -21 26 -46z m153 14 c-3 -7 -5 -2 -5 12 0 14 2 19 5 13 2
-7 2 -19 0 -25z m463 16 c0 -9 -7 -32 -16 -51 -23 -47 -36 -23 -16 28 15 40
32 52 32 23z m-314 -88 c-3 -12 -6 -28 -7 -36 0 -10 -3 -8 -9 5 -14 32 -11 52
6 52 11 0 14 -7 10 -21z m-100 -62 c19 -42 33 -78 30 -81 -7 -8 -4 -12 -44 67
-30 61 -39 90 -27 90 3 0 21 -34 41 -76z m197 -2 c-15 -26 -31 -56 -36 -66 -4
-10 -10 -16 -13 -13 -3 3 11 40 32 84 24 50 39 72 42 60 2 -10 -9 -39 -25 -65z
m127 -3 c0 -11 -4 -17 -10 -14 -5 3 -10 15 -10 26 0 11 5 17 10 14 6 -3 10
-15 10 -26z m-442 -1 c-6 -18 -25 -21 -25 -3 0 8 7 15 15 15 7 0 12 -5 10 -12z
m377 -58 c-19 -21 -45 -27 -45 -10 0 5 10 18 22 30 29 27 50 9 23 -20z m-458
-7 c-3 -10 -5 -4 -5 12 0 17 2 24 5 18 2 -7 2 -21 0 -30z m148 17 c21 -23 12
-39 -13 -24 -19 12 -29 44 -14 44 5 0 17 -9 27 -20z m445 -17 c0 -27 -3 -34
-11 -26 -7 7 -9 23 -5 37 9 37 16 32 16 -11z m-512 -105 c6 -29 14 -64 18 -78
12 -43 -6 -15 -26 41 -21 57 -25 89 -12 89 4 0 13 -24 20 -52z m426 -40 c-21
-69 -38 -79 -19 -10 7 26 17 61 21 77 6 24 8 26 12 11 2 -11 -4 -46 -14 -78z
m-357 -33 c13 -19 13 -19 27 -2 19 25 61 19 61 -8 0 -14 -8 -21 -27 -23 -16
-2 -28 -8 -28 -13 0 -5 -6 -9 -13 -9 -29 0 -68 111 -51 147 6 13 9 6 13 -27 4
-25 12 -54 18 -65z m73 96 c0 -5 -9 -11 -20 -14 -20 -5 -26 3 -13 16 9 10 33
8 33 -2z m171 -1 c5 0 9 -6 9 -14 0 -11 -5 -12 -25 -3 -27 13 -35 33 -9 23 9
-3 20 -6 25 -6z m69 -29 c0 -65 -38 -134 -62 -113 -7 5 -24 12 -38 14 -17 2
-25 9 -25 23 0 27 44 33 63 8 13 -17 14 -17 28 1 14 20 18 41 14 84 -1 12 3
22 9 22 6 0 11 -18 11 -39z m180 -39 c0 -10 -6 -27 -14 -38 -14 -18 -15 -18
-21 -1 -5 11 -1 25 10 37 22 25 25 25 25 2z m-652 -61 c3 -16 -1 -22 -10 -19
-7 3 -15 15 -16 27 -3 16 1 22 10 19 7 -3 15 -15 16 -27z m688 -69 c-12 -11
-18 7 -10 30 l8 23 4 -23 c2 -13 1 -26 -2 -30z m-753 -8 c8 -9 -11 -44 -23
-44 -6 0 -10 8 -10 18 0 27 18 41 33 26z m-1 -117 c-5 -7 -33 -57 -62 -112
-29 -55 -72 -134 -95 -175 -23 -41 -57 -104 -76 -139 -18 -36 -34 -60 -36 -55
-2 5 25 104 60 219 l64 210 46 22 c25 12 51 33 58 45 6 13 19 31 28 42 15 18
16 17 19 -13 2 -18 -1 -38 -6 -44z m739 27 c3 -21 14 -57 25 -79 56 -111 189
-364 207 -394 42 -69 -4 -21 -141 147 -136 167 -140 173 -131 205 5 17 9 63 9
100 0 51 3 68 13 65 6 -3 15 -22 18 -44z m87 1 c-3 -3 -9 2 -12 12 -6 14 -5
15 5 6 7 -7 10 -15 7 -18z m-458 -66 c0 8 2 12 5 9 3 -3 2 -13 -1 -22 -5 -14
-9 -15 -15 -4 -5 7 -9 18 -9 23 0 6 5 3 10 -5 8 -12 10 -12 10 -1z m-160 -60
c0 -30 -63 -220 -108 -329 -16 -37 -14 -12 4 55 8 33 29 118 45 188 16 71 32
133 35 139 10 17 24 -13 24 -53z m110 -61 c-10 -27 -9 -70 4 -218 9 -100 15
-185 13 -187 -2 -2 -21 83 -42 187 l-38 191 33 34 c19 19 35 33 38 31 2 -3 -2
-20 -8 -38z"/>
<path d="M1536 2869 c-8 -42 -6 -60 4 -29 4 14 8 -192 9 -457 1 -266 -1 -483
-4 -483 -3 0 -21 10 -41 23 l-36 22 5 240 c4 179 12 288 32 429 14 104 24 190
22 193 -7 6 -45 -258 -56 -387 -17 -183 -25 -500 -14 -500 5 0 28 -16 52 -36
l42 -37 27 25 c15 14 37 31 50 37 21 11 22 18 22 114 0 131 -17 419 -30 522
-16 125 -61 355 -70 355 -4 0 -10 -14 -14 -31z"/>
<path d="M1392 2770 c0 -19 2 -27 5 -17 2 9 2 25 0 35 -3 9 -5 1 -5 -18z"/>
<path d="M1102 2760 c0 -14 2 -19 5 -12 2 6 2 18 0 25 -3 6 -5 1 -5 -13z"/>
<path d="M1403 2635 c0 -33 2 -45 4 -27 2 18 2 45 0 60 -2 15 -4 0 -4 -33z"/>
<path d="M1113 2620 c0 -25 2 -35 4 -22 2 12 2 32 0 45 -2 12 -4 2 -4 -23z"/>
<path d="M1413 2460 c0 -47 2 -66 4 -42 2 23 2 61 0 85 -2 23 -4 4 -4 -43z"/>
<path d="M1123 2380 c0 -47 2 -66 4 -42 2 23 2 61 0 85 -2 23 -4 4 -4 -43z"/>
<path d="M1423 2145 c0 -22 2 -30 4 -17 2 12 2 30 0 40 -3 9 -5 -1 -4 -23z"/>
<path d="M1133 2040 c0 -36 2 -50 4 -32 2 17 2 47 0 65 -2 17 -4 3 -4 -33z"/>
<path d="M1502 705 c-1 -16 3 -48 7 -70 11 -53 12 -5 2 55 -6 34 -9 37 -9 15z"/>
</g>
</svg>
