<?xml version="1.0" standalone="no"?>
<!DOCTYPE svg PUBLIC "-//W3C//DTD SVG 20010904//EN"
 "http://www.w3.org/TR/2001/REC-SVG-20010904/DTD/svg10.dtd">
<svg version="1.0" xmlns="http://www.w3.org/2000/svg"
 width="244.000000pt" height="305.000000pt" viewBox="0 0 244.000000 305.000000"
 preserveAspectRatio="xMidYMid meet">
<metadata>
Created by potrace 1.16, written by Peter Selinger 2001-2019
</metadata>
<g transform="translate(0.000000,305.000000) scale(0.100000,-0.100000)"
fill="#000000" stroke="none">
<path d="M887 2878 c-4 -18 -15 -77 -27 -131 -33 -163 -49 -316 -60 -570 l-10
-242 22 -15 c13 -8 37 -28 56 -44 l33 -29 20 21 c11 12 34 29 51 38 l31 16 -6
257 c-7 267 -19 382 -61 591 -14 69 -26 128 -26 132 0 5 -4 8 -9 8 -4 0 -11
-15 -14 -32z m9 -976 c-3 -2 -19 7 -36 22 -17 14 -36 26 -41 26 -20 0 -4 398
26 622 8 60 22 150 32 201 l18 92 3 -479 c1 -264 0 -481 -2 -484z"/>
<path d="M1281 2894 c0 -11 3 -14 6 -6 3 7 2 16 -1 19 -3 4 -6 -2 -5 -13z"/>
<path d="M1182 2880 c0 -14 2 -19 5 -12 2 6 2 18 0 25 -3 6 -5 1 -5 -13z"/>
<path d="M1560 2888 c0 -9 -3 -24 -7 -34 -4 -12 -3 -15 5 -10 9 5 12 -108 12
-468 0 -262 -2 -476 -5 -476 -3 0 -24 12 -47 27 l-41 28 6 230 c4 166 13 276
31 395 40 273 37 249 26 215 -33 -101 -64 -384 -76 -691 l-6 -181 30 -12 c17
-7 38 -21 48 -32 17 -19 54 -26 54 -11 0 5 18 18 40 31 l40 22 0 112 c0 269
-30 566 -77 782 -15 67 -33 108 -33 73z"/>
<path d="M1278 2738 c-2 -68 -2 -159 -1 -203 1 -44 -1 -71 -4 -60 -3 11 -13
45 -23 75 l-19 55 -13 -50 -13 -50 -6 60 c-5 53 -6 48 -9 -45 -3 -97 -4 -101
-10 -45 l-7 60 -1 -70 c-4 -201 -27 -605 -34 -605 -4 0 -8 4 -8 9 0 5 -9 59
-20 121 -27 158 -35 160 -56 18 -18 -121 -19 -113 20 -137 39 -25 55 -77 36
-125 -8 -23 -14 -27 -33 -21 -45 13 -52 11 -49 -15 4 -29 29 -60 49 -60 8 0
24 11 37 25 32 35 40 31 32 -15 -5 -33 -3 -41 14 -50 11 -6 20 -17 20 -25 0
-18 3 -17 -36 -6 -31 9 -94 -11 -94 -29 0 -4 20 -13 45 -19 l45 -11 0 -46 c0
-43 -1 -45 -17 -33 -93 71 -138 126 -148 181 -4 21 -13 42 -21 49 -19 16 -17
42 5 70 16 20 29 24 73 25 50 1 53 2 50 25 -9 62 -59 89 -118 64 -22 -9 -35
-24 -44 -49 -14 -44 -24 -45 -40 -7 -18 44 -45 63 -90 65 -45 1 -76 -23 -82
-64 -3 -23 1 -25 44 -30 34 -4 56 -14 78 -35 32 -31 40 -69 15 -79 -18 -7 -20
-59 -3 -107 9 -28 42 -82 92 -154 7 -9 -2 -26 -27 -56 -51 -59 -50 -107 5
-135 18 -9 40 -13 55 -9 22 5 25 10 20 38 -4 18 -9 41 -12 52 -3 11 0 28 7 38
13 17 16 17 76 -5 l63 -22 -7 -39 c-4 -28 -3 -37 5 -33 6 4 11 0 11 -11 0 -26
-28 -122 -29 -100 -1 9 -5 17 -10 17 -5 0 -7 9 -4 21 6 20 3 21 -43 17 -27 -3
-64 -11 -83 -19 -33 -14 -33 -14 -76 33 -41 46 -42 48 -48 138 -8 107 -18 130
-55 130 -33 0 -45 -8 -61 -38 -19 -36 -4 -94 41 -163 117 -182 124 -220 57
-334 -23 -39 -68 -117 -101 -175 -33 -58 -68 -118 -78 -135 -10 -16 -29 -50
-44 -75 -14 -25 -26 -38 -26 -30 0 8 31 109 68 225 l67 209 48 15 c41 13 48
19 57 50 24 86 9 134 -72 233 -71 87 -85 154 -43 216 14 20 25 44 25 54 0 40
-104 54 -140 18 -25 -25 -25 -42 0 -115 11 -32 20 -71 20 -88 0 -36 -24 -89
-47 -103 -86 -54 -325 -190 -353 -201 l-35 -15 25 24 c14 13 75 68 135 123 60
55 116 106 124 114 10 9 28 11 58 7 l43 -6 0 38 c0 75 -13 172 -23 172 -6 0
-8 -33 -4 -90 l6 -91 -33 6 c-30 6 -42 -2 -221 -166 -105 -95 -191 -176 -193
-180 -3 -8 28 1 301 91 176 57 187 62 187 86 0 35 21 39 77 14 59 -26 90 -55
109 -99 17 -40 8 -56 -35 -64 -24 -5 -32 -14 -45 -54 -74 -231 -156 -507 -154
-515 3 -9 137 133 327 349 72 82 72 82 62 120 -18 63 -18 63 68 63 93 0 123
-9 162 -51 l28 -30 -36 -32 -35 -33 21 -104 c15 -74 20 -127 17 -180 -3 -41
-2 -61 0 -45 11 68 18 51 55 -129 21 -104 40 -191 42 -192 2 -2 16 56 31 129
47 228 49 238 57 230 4 -4 10 -21 13 -38 2 -16 3 9 1 58 -2 55 4 121 15 179
l17 91 -23 24 c-14 14 -24 36 -24 53 0 46 56 70 166 70 l86 0 -6 -26 c-18 -72
-17 -78 20 -119 19 -22 70 -78 113 -125 42 -47 114 -127 160 -178 46 -51 85
-92 87 -90 6 6 -165 549 -178 565 -5 6 -23 15 -40 18 -27 6 -30 10 -24 37 9
48 43 85 101 113 61 30 85 28 85 -8 0 -22 16 -29 228 -97 125 -40 234 -75 242
-77 17 -6 -39 50 -224 222 -115 107 -133 120 -165 120 l-35 0 2 90 c2 64 0 86
-7 75 -6 -8 -11 -33 -11 -56 0 -22 -7 -64 -16 -94 -13 -44 -13 -55 -2 -65 17
-17 339 -219 361 -228 9 -3 17 -11 17 -16 0 -5 -42 6 -92 24 -298 107 -286
101 -268 135 11 20 9 25 -13 44 -52 44 -59 94 -27 186 25 70 25 112 2 133 -25
23 -94 22 -123 -2 l-23 -19 27 -41 c48 -73 35 -146 -43 -241 -81 -98 -110
-206 -73 -277 27 -51 184 -336 218 -397 16 -27 23 -47 17 -45 -10 4 -260 294
-288 335 -11 16 -12 28 -5 46 5 14 10 60 10 102 0 86 12 117 95 250 39 61 50
90 54 131 4 46 1 54 -19 69 -52 36 -89 12 -89 -58 0 -19 -5 -38 -10 -41 -7 -4
-8 -23 -5 -48 6 -36 2 -48 -25 -85 -42 -59 -70 -70 -113 -47 -22 11 -47 16
-75 14 l-41 -4 -6 40 c-3 22 -8 52 -11 66 -5 25 -1 28 58 47 34 11 66 18 71
15 5 -3 7 -35 5 -72 l-3 -66 33 2 c39 1 82 37 82 66 0 11 -18 44 -39 72 l-40
52 29 35 c43 52 78 123 86 174 5 38 3 48 -15 65 -20 19 -20 22 -6 49 19 37 67
62 108 58 26 -2 33 1 35 18 4 27 -35 71 -68 79 -36 8 -88 -28 -107 -72 l-15
-37 -22 44 c-28 60 -66 79 -113 56 -35 -17 -59 -55 -50 -79 4 -11 16 -14 46
-10 35 5 44 2 71 -25 33 -33 39 -59 15 -68 -8 -4 -15 -16 -15 -28 -1 -51 -52
-126 -122 -180 l-38 -28 0 41 c0 43 2 44 53 56 25 5 27 8 16 21 -23 28 -58 36
-90 20 -34 -17 -39 -4 -12 34 10 14 16 38 14 57 -3 39 4 41 31 8 11 -14 26
-25 34 -25 22 0 54 38 54 65 0 29 -1 29 -34 14 -37 -17 -56 3 -56 58 0 35 6
49 26 68 15 14 31 25 37 25 13 0 2 166 -14 206 -15 41 -23 21 -44 -113 -10
-62 -21 -113 -25 -113 -11 0 -38 614 -39 868 0 72 -3 132 -6 132 -3 0 -6 -55
-7 -122z m-58 -570 c-7 -170 -17 -308 -21 -308 -5 0 -10 -21 -11 -47 l-1 -48
-4 45 c-3 24 -10 48 -16 52 -9 6 -9 12 0 27 7 11 10 40 7 72 -3 30 0 108 5
174 9 119 9 119 8 -77 -1 -108 0 -194 3 -191 3 2 8 138 12 301 6 277 16 399
26 332 3 -14 -1 -163 -8 -332z m5 -527 c-9 -49 -25 -25 -30 45 l-5 59 15 -45
14 -45 -5 40 c-7 61 -7 71 2 200 l9 120 3 -170 c2 -93 0 -185 -3 -204z m-45
48 c0 -31 -4 -48 -10 -44 -5 3 -10 29 -10 56 0 31 4 48 10 44 6 -3 10 -29 10
-56z m-252 -115 c30 -61 110 -145 167 -173 25 -12 45 -29 45 -37 0 -18 0 -18
-62 10 -61 27 -140 106 -168 169 -37 79 -19 108 18 31z m642 5 c-24 -84 -102
-171 -185 -208 -58 -26 -55 -25 -55 -1 0 12 7 20 17 20 45 0 166 120 199 198
17 41 36 34 24 -9z m-363 -31 c-3 -7 -5 -2 -5 12 0 14 2 19 5 13 2 -7 2 -19 0
-25z m53 -28 l-11 -25 6 25 c2 14 5 34 6 45 2 19 2 19 6 0 2 -12 -1 -32 -7
-45z m-43 -12 c-3 -8 -6 -5 -6 6 -1 11 2 17 5 13 3 -3 4 -12 1 -19z m20 -35
c-3 -10 -5 -2 -5 17 0 19 2 27 5 18 2 -10 2 -26 0 -35z m-80 -110 c-2 -16 -4
-3 -4 27 0 30 2 43 4 28 2 -16 2 -40 0 -55z m160 0 c-2 -16 -4 -3 -4 27 0 30
2 43 4 28 2 -16 2 -40 0 -55z m33 -192 c0 -32 -6 -24 -14 19 -4 25 -3 31 4 20
5 -8 10 -26 10 -39z m20 -81 c0 -5 -5 -10 -11 -10 -5 0 -7 5 -4 10 3 6 8 10
11 10 2 0 4 -4 4 -10z m-210 -22 c0 -13 -23 -5 -28 10 -2 7 2 10 12 6 9 -3 16
-11 16 -16z m17 -65 c-2 -16 -4 -3 -4 27 0 30 2 43 4 28 2 -16 2 -40 0 -55z
m160 71 c-3 -3 -12 -4 -19 -1 -8 3 -5 6 6 6 11 1 17 -2 13 -5z m-100 -156 c-3
-8 -6 -5 -6 6 -1 11 2 17 5 13 3 -3 4 -12 1 -19z m-10 -358 l-1 -265 -33 155
-33 155 15 123 c8 67 20 133 27 145 11 21 12 21 19 -13 4 -19 7 -154 6 -300z
m-68 198 c-1 -35 -4 -53 -6 -40 -2 12 -9 20 -14 17 -13 -9 -11 59 3 73 7 7 13
12 15 12 2 0 2 -28 2 -62z"/>
</g>
</svg>
