<?xml version="1.0" standalone="no"?>
<!DOCTYPE svg PUBLIC "-//W3C//DTD SVG 20010904//EN"
 "http://www.w3.org/TR/2001/REC-SVG-20010904/DTD/svg10.dtd">
<svg version="1.0" xmlns="http://www.w3.org/2000/svg"
 width="244.000000pt" height="305.000000pt" viewBox="0 0 244.000000 305.000000"
 preserveAspectRatio="xMidYMid meet">
<metadata>
Created by potrace 1.16, written by Peter Selinger 2001-2019
</metadata>
<g transform="translate(0.000000,305.000000) scale(0.100000,-0.100000)"
fill="#000000" stroke="none">
<path d="M896 2885 c-5 -18 -3 -31 2 -33 7 -2 11 -171 11 -478 1 -417 0 -474
-14 -474 -8 0 -15 4 -15 8 0 4 -13 16 -30 25 l-30 18 0 152 c1 185 13 351 40
534 30 203 31 214 15 153 -48 -179 -100 -870 -66 -870 5 0 31 -16 57 -36 41
-32 48 -34 56 -20 5 9 28 28 50 42 l41 26 -7 196 c-4 109 -11 247 -17 307 -11
123 -55 391 -74 444 l-12 35 -7 -29z"/>
<path d="M1300 2820 c-1 -47 -2 -177 -2 -290 0 -144 -2 -189 -8 -150 -10 65
-52 221 -58 215 -3 -2 -13 -39 -23 -81 -10 -42 -21 -79 -24 -82 -3 -3 -6 66
-7 154 -2 129 -3 108 -9 -116 -8 -351 -20 -610 -28 -610 -4 0 -15 48 -25 108
-10 59 -22 116 -26 127 -7 18 -9 18 -19 -9 -17 -44 -27 -206 -12 -206 7 0 23
-11 36 -25 29 -28 34 -89 11 -121 -13 -16 -18 -17 -35 -6 -31 18 -41 15 -41
-13 0 -27 32 -65 54 -65 8 0 23 11 34 25 11 14 23 25 26 25 3 0 5 -27 5 -60
l-1 -60 -32 0 c-48 0 -75 -33 -36 -43 15 -4 20 -14 20 -36 0 -17 -4 -31 -8
-31 -13 0 -79 73 -96 107 -9 18 -16 43 -16 57 0 15 -8 30 -20 36 -28 15 -25
37 10 72 26 25 36 29 73 26 41 -3 42 -2 40 27 -2 32 -42 75 -70 75 -35 0 -82
-32 -88 -61 -10 -44 -22 -44 -44 0 -36 69 -131 78 -160 15 -20 -45 -15 -54 33
-54 78 0 140 -71 96 -112 -18 -17 -20 -27 -15 -61 10 -56 29 -97 68 -148 18
-24 36 -49 40 -55 4 -7 -7 -27 -24 -45 -36 -41 -52 -75 -44 -100 9 -26 54 -59
81 -59 27 0 47 29 33 51 -9 15 -12 82 -4 91 3 3 24 1 46 -5 50 -12 76 -61 62
-117 -7 -30 -12 -35 -41 -37 -19 -2 -49 -10 -68 -19 -30 -15 -39 -15 -61 -3
-47 25 -78 77 -79 133 -1 28 -6 76 -10 106 -9 54 -9 55 -46 58 -28 2 -40 -2
-52 -20 -28 -40 -20 -87 30 -173 105 -181 107 -184 102 -230 -4 -32 -42 -108
-147 -291 -77 -136 -141 -241 -141 -232 0 18 116 393 129 417 4 8 26 21 49 29
47 15 56 28 66 89 8 58 -10 105 -71 183 -80 103 -91 162 -47 238 l27 45 -23
19 c-30 24 -101 24 -123 0 -22 -24 -21 -56 3 -128 23 -67 20 -119 -10 -157
-10 -13 -56 -46 -102 -74 -190 -114 -279 -165 -284 -160 -4 4 106 110 251 241
26 24 35 27 74 21 l44 -7 -7 104 c-10 137 -30 159 -24 25 l5 -97 -32 6 c-29 5
-40 -3 -175 -128 -79 -73 -164 -151 -187 -172 -24 -22 -43 -43 -43 -47 0 -4
108 29 240 73 222 74 240 81 240 103 0 30 16 35 63 19 56 -20 104 -61 117
-100 15 -45 11 -54 -30 -68 l-34 -11 -83 -270 c-45 -148 -82 -276 -80 -284 2
-13 71 61 306 328 75 85 82 98 77 125 -14 76 -19 71 68 74 83 3 136 -10 136
-34 0 -8 6 -11 17 -7 13 5 15 2 10 -18 -4 -13 -7 -32 -7 -41 0 -10 -7 -18 -16
-18 -15 0 -16 -11 -10 -100 4 -63 3 -100 -3 -100 -5 0 -9 -21 -9 -47 0 -27 -2
-70 -5 -98 -4 -27 2 -12 12 35 10 47 20 92 22 99 3 8 25 -86 49 -210 24 -123
46 -233 50 -243 6 -17 54 196 104 464 l12 65 7 -52 c4 -29 5 -65 1 -80 -5 -22
-4 -26 6 -16 10 10 11 48 1 194 -14 213 -19 201 95 209 100 7 107 5 101 -33
-3 -18 -8 -39 -11 -47 -4 -10 57 -88 190 -238 108 -123 198 -222 200 -220 1 2
-10 46 -26 98 -17 52 -56 180 -88 284 -57 187 -58 190 -89 198 -42 11 -46 20
-29 61 18 44 50 75 104 99 50 22 69 19 74 -14 3 -21 27 -31 232 -100 127 -43
232 -76 234 -74 4 5 -136 141 -282 275 -67 62 -83 72 -110 69 l-31 -3 3 90 c2
64 0 86 -7 75 -6 -8 -11 -33 -11 -55 0 -22 -7 -62 -15 -90 -9 -27 -13 -55 -11
-61 2 -6 71 -53 153 -105 212 -134 226 -143 215 -147 -5 -1 -72 20 -148 48
-223 82 -212 75 -194 110 9 18 7 25 -19 49 -39 37 -47 82 -26 157 28 95 30
132 10 154 -31 34 -135 20 -135 -17 0 -10 12 -36 25 -58 14 -22 25 -50 25 -61
0 -42 -30 -105 -80 -167 -55 -67 -80 -132 -80 -207 0 -40 15 -74 111 -251 154
-283 146 -267 124 -249 -10 8 -79 87 -152 175 -130 156 -134 161 -128 198 3
22 7 73 9 115 3 83 11 102 98 246 58 97 66 154 26 189 -23 20 -67 23 -72 5
-25 -98 -31 -139 -23 -153 13 -24 -9 -69 -54 -110 -43 -39 -56 -42 -85 -20
-10 8 -27 15 -36 15 -21 0 -34 22 -43 78 -4 23 -11 42 -16 42 -26 0 -3 20 38
33 63 21 73 7 54 -75 -7 -28 -5 -40 5 -49 19 -15 71 -2 89 24 24 34 18 67 -20
113 -19 23 -35 47 -35 52 0 5 14 25 30 43 66 75 100 191 65 229 -22 24 -13 51
27 85 23 20 40 25 66 23 39 -3 48 8 38 48 -4 15 -20 31 -40 40 -30 15 -36 15
-68 0 -20 -10 -44 -32 -54 -52 -20 -37 -34 -44 -34 -16 -1 33 -56 82 -94 82
-8 0 -29 -12 -46 -26 -23 -20 -30 -34 -28 -53 3 -24 6 -26 43 -23 70 6 127
-60 84 -96 -10 -9 -19 -27 -19 -40 0 -31 -24 -75 -67 -123 -43 -47 -55 -49
-51 -7 2 24 9 34 26 38 24 5 24 5 4 23 -11 10 -34 19 -51 19 l-31 1 0 59 c0
32 2 58 5 58 3 0 16 -12 29 -26 28 -33 58 -26 76 16 16 38 6 53 -25 38 -36
-16 -55 4 -55 59 0 35 6 49 26 68 15 14 31 25 35 25 12 0 11 57 -2 143 -18
122 -28 115 -54 -43 -9 -52 -20 -99 -24 -103 -5 -5 -10 159 -11 365 -3 398
-14 738 -20 578z m-75 -742 c0 -446 0 -453 -20 -453 -17 0 -20 8 -23 60 -2 32
2 68 7 80 6 11 12 38 14 60 2 22 4 8 5 -33 1 -47 -2 -71 -8 -67 -12 8 -13 -35
-1 -54 16 -26 22 87 13 264 l-9 170 -1 -118 c-2 -96 -5 -122 -19 -135 -15 -16
-16 -15 -8 13 4 17 11 140 15 275 4 135 13 278 20 318 7 39 14 72 14 72 1 0 1
-204 1 -452z m-296 -493 c16 -46 79 -124 124 -155 20 -14 37 -33 37 -42 0 -25
-11 -22 -62 16 -70 54 -128 140 -128 191 0 36 14 31 29 -10z m636 -2 c-10 -56
-73 -143 -129 -180 -26 -18 -52 -33 -57 -33 -21 0 -7 29 25 54 58 44 106 99
129 149 26 56 42 61 32 10z m-284 -14 l-9 -34 -1 31 c-1 17 2 34 6 37 12 13
14 -1 4 -34z m-82 4 c0 -25 -1 -26 -9 -8 -12 27 -12 35 0 35 6 0 10 -12 9 -27z
m38 -90 c-3 -10 -5 -4 -5 12 0 17 2 24 5 18 2 -7 2 -21 0 -30z m94 -31 c-6 -2
-11 -26 -11 -52 0 -27 -5 -52 -12 -56 -16 -10 -4 127 14 158 13 23 13 22 16
-12 2 -19 -1 -36 -7 -38z m-176 41 c11 -29 17 -181 6 -158 -5 11 -10 42 -10
68 -1 29 -5 46 -11 42 -6 -4 -10 8 -10 29 0 38 13 48 25 19z m-48 -215 c-3 -8
-6 -5 -6 6 -1 11 2 17 5 13 3 -3 4 -12 1 -19z m281 -98 c0 -9 -3 -7 -8 5 -5
11 -8 29 -8 40 0 16 2 15 8 -5 4 -14 8 -32 8 -40z m-241 8 c-3 -8 -6 -5 -6 6
-1 11 2 17 5 13 3 -3 4 -12 1 -19z m36 -14 c-9 -23 -23 -16 -23 12 0 22 2 24
14 14 8 -6 12 -18 9 -26z m118 -7 c-13 -13 -15 1 -4 30 7 17 8 17 11 -1 2 -10
-1 -23 -7 -29z m-179 -75 c13 -15 4 -27 -11 -17 -6 3 -10 23 -10 43 1 28 3 31
6 12 3 -14 10 -31 15 -38z m239 -15 c-6 -6 -14 -8 -18 -4 -4 4 -1 13 5 19 7 7
13 23 14 38 1 19 2 16 5 -9 3 -18 0 -38 -6 -44z m-124 -159 c-3 -8 -6 -5 -6 6
-1 11 2 17 5 13 3 -3 4 -12 1 -19z m93 -53 c0 -14 -4 -25 -10 -25 -11 0 -14
33 -3 43 11 11 13 8 13 -18z m-105 -5 c3 -11 5 -141 3 -290 -2 -148 -4 -267
-5 -262 -1 4 -18 88 -39 187 -34 166 -36 186 -27 256 13 96 52 159 68 109z"/>
<path d="M1211 814 c0 -11 3 -14 6 -6 3 7 2 16 -1 19 -3 4 -6 -2 -5 -13z"/>
<path d="M1213 665 c0 -22 2 -30 4 -17 2 12 2 30 0 40 -3 9 -5 -1 -4 -23z"/>
<path d="M1554 2886 c-3 -9 -2 -29 4 -44 12 -32 13 -930 1 -937 -4 -3 -23 5
-43 17 -35 23 -35 24 -36 93 0 39 -5 77 -10 85 -7 10 -10 -15 -10 -80 l0 -95
40 -25 c22 -14 40 -28 40 -32 0 -16 37 -7 55 12 10 11 26 22 36 25 11 4 23 15
29 25 13 24 -5 427 -26 600 -14 122 -59 358 -69 368 -2 3 -7 -3 -11 -12z"/>
<path d="M1531 2792 c-1 -8 -10 -64 -21 -125 -32 -183 -59 -547 -41 -547 7 0
11 30 11 88 0 121 16 294 41 444 11 70 18 133 16 140 -4 10 -6 10 -6 0z"/>
<path d="M1153 2580 c0 -25 2 -35 4 -22 2 12 2 32 0 45 -2 12 -4 2 -4 -23z"/>
<path d="M1101 644 c0 -11 3 -14 6 -6 3 7 2 16 -1 19 -3 4 -6 -2 -5 -13z"/>
<path d="M1342 600 c0 -14 2 -19 5 -12 2 6 2 18 0 25 -3 6 -5 1 -5 -13z"/>
<path d="M1364 516 c-3 -8 -1 -34 4 -58 l10 -43 1 58 c1 56 -4 71 -15 43z"/>
</g>
</svg>
