<?xml version="1.0" standalone="no"?>
<!DOCTYPE svg PUBLIC "-//W3C//DTD SVG 20010904//EN"
 "http://www.w3.org/TR/2001/REC-SVG-20010904/DTD/svg10.dtd">
<svg version="1.0" xmlns="http://www.w3.org/2000/svg"
 width="244.000000pt" height="305.000000pt" viewBox="0 0 244.000000 305.000000"
 preserveAspectRatio="xMidYMid meet">
<metadata>
Created by potrace 1.16, written by Peter Selinger 2001-2019
</metadata>
<g transform="translate(0.000000,305.000000) scale(0.100000,-0.100000)"
fill="#000000" stroke="none">
<path d="M1096 2823 c-16 -231 -25 -441 -28 -685 l-3 -268 -23 0 c-40 0 -80
-28 -93 -65 -16 -43 -21 -44 -36 -6 -31 85 -150 81 -156 -5 -2 -28 0 -29 35
-26 31 3 43 -2 68 -26 30 -30 40 -75 20 -87 -14 -9 -13 -88 2 -122 7 -15 27
-52 45 -81 37 -58 41 -83 17 -103 -25 -20 -46 -70 -41 -96 4 -24 -8 -41 -21
-28 -4 4 -8 30 -8 58 -4 138 -29 186 -82 157 -22 -13 -28 -24 -30 -61 -2 -38
5 -60 48 -142 28 -54 50 -103 47 -110 -2 -7 -12 3 -21 22 -10 18 -33 55 -52
81 -70 98 -80 155 -37 227 l27 46 -24 19 c-35 29 -100 21 -119 -14 -14 -24
-13 -34 6 -110 25 -96 19 -160 -16 -187 -16 -12 -21 -25 -19 -51 l3 -34 -158
-64 c-87 -35 -161 -62 -163 -59 -2 2 55 45 128 95 232 159 221 149 213 191 -4
20 -13 70 -20 111 -16 96 -31 70 -21 -36 4 -41 4 -74 1 -74 -4 0 -14 4 -24 10
-15 8 -47 -20 -195 -167 -97 -97 -175 -178 -173 -179 3 -3 104 31 344 118 80
28 93 36 93 56 0 32 20 36 73 13 84 -36 130 -147 67 -161 -26 -6 -46 -56 -115
-300 -15 -52 -33 -115 -40 -140 -24 -80 -36 -132 -32 -136 3 -3 138 158 309
370 32 39 56 76 54 83 -3 6 -8 28 -12 47 l-6 36 47 0 46 0 -5 -47 c-12 -108
-27 -243 -41 -361 -8 -69 -14 -127 -12 -128 2 -2 35 92 75 209 50 147 72 227
72 260 0 52 6 57 38 27 28 -27 28 -38 -4 -71 -15 -15 -26 -38 -26 -51 0 -21
13 -94 56 -323 8 -38 24 -124 36 -190 20 -108 30 -148 30 -117 0 6 18 104 40
219 23 114 48 246 56 293 8 47 17 95 20 106 4 15 -4 33 -25 57 -17 19 -31 39
-31 44 0 11 42 53 53 53 4 0 7 -21 6 -48 0 -33 21 -106 70 -247 51 -147 70
-191 70 -164 1 20 -2 39 -6 43 -4 4 -7 26 -6 49 1 38 1 39 -7 12 -5 -19 -8
-23 -9 -11 0 11 -8 47 -15 80 -20 81 -66 294 -66 301 0 4 10 5 23 3 17 -2 23
-11 28 -43 l6 -40 2 43 1 42 43 0 c24 0 46 -3 50 -6 3 -3 0 -22 -7 -42 -14
-41 -12 -55 14 -86 32 -38 234 -282 285 -345 48 -58 70 -76 60 -48 -4 12 -87
302 -126 442 -11 39 -22 78 -25 88 -3 11 -21 25 -40 33 -38 16 -43 37 -19 84
28 54 139 116 157 88 4 -7 8 -20 8 -29 0 -9 14 -22 33 -29 17 -7 41 -16 52
-20 47 -19 114 -43 165 -60 30 -10 86 -30 124 -44 39 -14 72 -24 74 -21 3 3
-75 82 -173 177 -150 147 -182 173 -208 173 l-30 0 1 90 c0 71 -1 82 -8 50 -4
-22 -10 -69 -11 -105 l-4 -65 40 3 c39 2 44 -1 178 -130 75 -74 137 -137 137
-141 0 -8 -52 22 -234 137 -176 111 -186 131 -141 293 16 58 16 65 1 88 -13
20 -25 25 -57 25 -78 0 -96 -27 -58 -90 18 -28 20 -45 16 -93 -4 -50 -12 -68
-58 -130 -29 -40 -57 -86 -62 -104 -6 -18 -14 -30 -20 -26 -8 5 -5 -15 11 -56
7 -19 -15 -5 -27 17 -10 19 10 65 82 193 48 85 57 145 27 177 -21 22 -55 28
-76 14 -12 -8 -26 -104 -24 -164 1 -36 -17 -78 -33 -78 -5 0 -6 14 -2 30 9 42
-1 81 -30 113 -14 14 -25 31 -25 38 0 6 16 37 36 69 60 98 83 193 49 206 -25
10 -17 53 14 85 23 23 39 29 70 29 37 0 41 2 41 25 0 34 -42 75 -75 75 -29 0
-85 -49 -85 -74 0 -30 -20 -26 -34 8 -20 47 -57 70 -101 62 -36 -7 -54 -29
-56 -68 -1 -19 -3 -18 -11 9 -10 30 -8 34 22 59 l32 28 -7 75 c-3 42 -7 164
-8 271 l-1 195 -3 -167 c-3 -136 -6 -167 -18 -172 -14 -5 -15 40 -13 374 2
208 0 376 -3 372 -9 -10 -27 -333 -36 -637 l-7 -260 -8 155 c-4 85 -12 193
-18 240 -12 94 -49 264 -56 257 -3 -3 -16 -59 -30 -126 -28 -140 -44 -306 -44
-473 0 -64 -4 -119 -8 -122 -5 -3 -7 59 -7 137 2 132 2 135 -4 37 -5 -81 -8
-99 -15 -80 -6 14 -11 229 -13 479 -1 249 -4 455 -6 458 -2 2 -7 -36 -11 -84z
m184 -553 c9 -72 10 -149 4 -250 l-9 -145 -5 135 c-5 111 -6 88 -8 -122 -1
-158 -6 -259 -12 -263 -12 -7 -14 792 -3 822 9 21 14 -9 33 -177z m50 -381 c0
-11 -4 -18 -10 -14 -5 3 -7 12 -3 20 7 21 13 19 13 -6z m-214 -64 c-3 -11 -6
-29 -7 -40 -1 -11 -5 -4 -9 15 -4 19 -11 43 -15 53 -7 17 -6 18 14 5 15 -9 20
-19 17 -33z m180 -29 c0 -41 -4 -72 -8 -70 -13 8 -7 144 7 144 1 0 1 -33 1
-74z m-220 -47 c3 -5 -2 -9 -12 -9 -14 0 -16 -7 -11 -37 4 -20 11 -40 18 -43
7 -5 10 -28 8 -61 -2 -30 -1 -58 2 -64 4 -5 9 -23 13 -40 l6 -30 -36 40 c-43
49 -60 80 -67 124 -3 19 -10 38 -16 44 -32 32 16 99 63 90 14 -3 29 -9 32 -14z
m401 1 c30 -27 38 -58 21 -78 -8 -9 -20 -36 -26 -59 -7 -23 -31 -65 -54 -94
-42 -54 -58 -55 -37 -3 7 16 11 53 10 81 -2 37 2 57 13 69 23 22 22 70 -1 68
-21 -2 -2 25 20 29 12 2 25 5 28 6 3 0 15 -8 26 -19z m-322 -116 c3 -12 14
-24 25 -27 31 -8 24 -27 -10 -27 -21 0 -30 5 -32 18 -5 57 -5 79 1 92 4 10 7
7 9 -10 1 -14 5 -35 7 -46z m136 20 c5 -6 6 -14 2 -17 -15 -16 -23 -5 -22 31
1 21 3 29 6 17 3 -11 9 -25 14 -31z m44 -18 c-7 -54 -16 -66 -46 -59 -26 7
-24 22 6 33 21 8 25 16 25 50 0 28 4 39 11 34 7 -4 9 -24 4 -58z m-377 -69
c25 -59 26 -67 12 -67 -12 0 -35 46 -43 88 -10 49 7 38 31 -21z m592 31 c0
-27 -33 -103 -49 -112 -18 -11 -13 25 11 81 24 56 38 67 38 31z m-301 -72 c-2
-23 -17 -60 -18 -46 -1 8 -4 24 -7 36 -4 14 -1 21 10 21 9 0 16 -5 15 -11z
m-94 -75 c14 -35 24 -65 22 -68 -7 -6 -57 102 -57 123 0 24 4 18 35 -55z m192
42 c-9 -43 -50 -129 -55 -115 -4 12 48 142 56 142 3 0 2 -12 -1 -27z m-311
-70 c-11 -11 -17 4 -9 23 7 18 8 18 11 1 2 -10 1 -21 -2 -24z m404 5 c0 -19
-2 -20 -10 -8 -13 19 -13 30 0 30 6 0 10 -10 10 -22z m-320 -44 c0 -18 -13
-24 -27 -13 -7 6 -13 20 -13 30 0 17 3 18 20 7 11 -7 20 -18 20 -24z m270 12
c0 -7 -7 -19 -15 -26 -12 -10 -16 -9 -21 5 -4 10 -1 21 7 26 20 12 29 11 29
-5z m-341 -127 c7 -34 15 -68 18 -78 4 -10 3 -12 -3 -6 -21 22 -51 145 -36
145 5 0 15 -27 21 -61z m375 -31 c-24 -81 -30 -64 -8 24 10 40 20 64 22 54 2
-11 -4 -46 -14 -78z m-98 54 c-9 -9 -37 8 -31 18 5 8 11 7 21 -1 8 -6 12 -14
10 -17z m-228 -28 c0 -28 6 -53 16 -62 14 -15 17 -14 29 3 17 22 47 14 47 -14
0 -11 -9 -21 -22 -24 -13 -2 -30 -7 -39 -11 -18 -8 -34 20 -44 77 -6 30 0 77
9 77 2 0 3 -21 4 -46z m77 36 c-3 -5 -13 -10 -21 -10 -8 0 -14 5 -14 10 0 6 9
10 21 10 11 0 17 -4 14 -10z m210 -54 c-25 -92 -35 -110 -50 -86 -3 6 -17 10
-31 10 -21 0 -25 4 -22 23 3 22 48 39 48 18 0 -17 27 -13 34 5 3 9 6 34 7 57
0 37 1 39 10 18 5 -13 7 -33 4 -45z m162 -74 c-16 -15 -19 -15 -27 -2 -14 22
-12 28 8 33 27 6 38 -11 19 -31z m-583 2 c7 -19 -2 -37 -15 -29 -12 8 -12 45
0 45 5 0 12 -7 15 -16z m-74 -114 c0 -11 -4 -20 -10 -20 -5 0 -10 9 -10 20 0
11 5 20 10 20 6 0 10 -9 10 -20z m13 -127 c5 -68 3 -92 -8 -110 -23 -34 -254
-323 -260 -323 -2 0 26 57 62 128 121 235 170 337 177 365 12 50 23 28 29 -60z
m719 55 c16 -18 45 -38 65 -43 l37 -10 57 -195 c32 -107 61 -208 64 -225 6
-28 5 -28 -18 10 -56 94 -247 463 -247 479 0 24 10 20 42 -16z m-372 -54 c0
-7 -4 -16 -10 -19 -5 -3 -10 -4 -10 -1 0 2 -2 11 -5 19 -4 8 0 14 10 14 8 0
15 -6 15 -13z m-152 -69 c1 -16 -24 -102 -53 -190 -30 -88 -53 -146 -51 -130
5 40 74 366 82 385 8 19 22 -21 22 -65z m167 -22 c-7 28 11 19 41 -20 33 -44
33 -39 -10 -253 -29 -142 -34 -158 -37 -115 l-2 50 -7 -65 c-4 -38 -7 42 -8
190 -1 231 0 252 14 225 8 -16 12 -22 9 -12z"/>
<path d="M1253 2310 c0 -47 2 -66 4 -42 2 23 2 61 0 85 -2 23 -4 4 -4 -43z"/>
<path d="M1270 806 c0 -8 4 -17 9 -20 5 -4 7 3 4 14 -6 23 -13 26 -13 6z"/>
<path d="M1273 690 c0 -30 2 -43 4 -27 2 15 2 39 0 55 -2 15 -4 2 -4 -28z"/>
<path d="M1263 570 c0 -36 2 -50 4 -32 2 17 2 47 0 65 -2 17 -4 3 -4 -33z"/>
<path d="M1537 2900 c-13 -35 -57 -298 -72 -440 -3 -25 -8 -156 -11 -292 -5
-178 -4 -248 4 -248 6 0 27 -14 46 -31 29 -25 38 -28 56 -19 11 6 20 14 20 19
0 5 14 14 30 21 29 12 30 14 28 74 -1 48 -2 52 -5 19 -3 -35 -11 -48 -42 -73
-22 -16 -42 -30 -45 -30 -9 0 -7 948 2 952 4 2 5 17 1 33 -4 20 -8 25 -12 15z"/>
<path d="M906 2813 c-36 -194 -55 -359 -65 -570 -14 -282 -14 -310 2 -322 6
-6 29 -24 49 -41 l37 -32 50 43 50 43 -5 195 c-5 191 -32 475 -59 616 -15 83
-19 49 -5 -45 28 -181 41 -325 47 -523 l6 -218 -34 -29 c-19 -16 -37 -29 -41
-30 -5 0 -8 216 -8 481 0 264 4 478 9 475 4 -3 6 6 3 19 -8 45 -19 26 -36 -62z"/>
<path d="M1361 2874 c0 -11 3 -14 6 -6 3 7 2 16 -1 19 -3 4 -6 -2 -5 -13z"/>
<path d="M1564 2785 c22 -112 47 -336 52 -480 4 -93 11 -181 15 -195 9 -27 3
142 -11 340 -10 127 -44 347 -56 359 -3 3 -4 -7 0 -24z"/>
<path d="M1372 2730 c0 -19 2 -27 5 -17 2 9 2 25 0 35 -3 9 -5 1 -5 -18z"/>
<path d="M1122 2690 c0 -14 2 -19 5 -12 2 6 2 18 0 25 -3 6 -5 1 -5 -13z"/>
<path d="M1383 2575 c0 -22 2 -30 4 -17 2 12 2 30 0 40 -3 9 -5 -1 -4 -23z"/>
<path d="M1133 2480 c0 -36 2 -50 4 -32 2 17 2 47 0 65 -2 17 -4 3 -4 -33z"/>
<path d="M1453 805 c0 -22 2 -30 4 -17 2 12 2 30 0 40 -3 9 -5 -1 -4 -23z"/>
<path d="M1463 725 c0 -22 2 -30 4 -17 2 12 2 30 0 40 -3 9 -5 -1 -4 -23z"/>
<path d="M1472 640 c0 -19 2 -27 5 -17 2 9 2 25 0 35 -3 9 -5 1 -5 -18z"/>
</g>
</svg>
