<?xml version="1.0" standalone="no"?>
<!DOCTYPE svg PUBLIC "-//W3C//DTD SVG 20010904//EN"
 "http://www.w3.org/TR/2001/REC-SVG-20010904/DTD/svg10.dtd">
<svg version="1.0" xmlns="http://www.w3.org/2000/svg"
 width="244.000000pt" height="305.000000pt" viewBox="0 0 244.000000 305.000000"
 preserveAspectRatio="xMidYMid meet">
<metadata>
Created by potrace 1.16, written by Peter Selinger 2001-2019
</metadata>
<g transform="translate(0.000000,305.000000) scale(0.100000,-0.100000)"
fill="#000000" stroke="none">
<path d="M897 2827 c-43 -198 -76 -544 -77 -805 0 -89 2 -103 18 -109 9 -3 31
-19 48 -35 l31 -29 34 31 c19 16 42 32 52 36 14 4 17 18 17 77 0 137 -20 462
-36 572 -21 156 -56 335 -64 335 -4 0 -14 -33 -23 -73z m19 -924 c-7 -7 -75
42 -81 59 -11 31 16 497 36 638 44 306 44 306 47 -214 1 -264 0 -481 -2 -483z"/>
<path d="M1548 2400 c1 -284 -1 -500 -6 -500 -5 0 -17 9 -27 20 -10 11 -25 20
-33 20 -22 0 -10 442 17 644 12 82 19 151 17 153 -4 5 -19 -82 -36 -207 -11
-79 -30 -414 -30 -537 l0 -73 35 -14 c19 -8 38 -22 41 -31 9 -23 33 -18 71 15
18 17 39 30 45 30 25 0 -8 596 -43 780 -19 104 -43 200 -48 200 -3 0 -5 -225
-3 -500z"/>
<path d="M1337 2377 c2 -353 0 -477 -8 -464 -6 11 -15 98 -20 195 -5 98 -15
218 -24 267 -15 86 -44 216 -50 223 -6 7 -46 -188 -59 -283 l-12 -100 -8 225
c-16 440 -23 428 -26 -45 -3 -450 -3 -458 -18 -366 -14 91 -15 93 -29 67 -15
-29 -30 -184 -20 -210 10 -26 4 -30 -45 -27 -44 2 -49 0 -68 -31 -11 -18 -20
-41 -20 -50 0 -26 -17 -22 -24 5 -3 13 -15 36 -27 50 -17 22 -29 27 -64 27
-36 0 -48 -5 -61 -24 -8 -14 -14 -35 -12 -48 3 -20 8 -23 39 -20 30 3 42 -3
68 -28 33 -33 41 -74 16 -84 -18 -6 -19 -45 -4 -101 9 -34 35 -78 93 -160 7
-9 -2 -26 -27 -56 -47 -54 -49 -90 -7 -127 22 -21 27 -31 19 -42 -8 -12 -16
-8 -45 25 -30 33 -35 46 -33 85 1 40 -3 81 -17 146 -7 39 -67 32 -96 -10 -16
-23 -7 -76 21 -127 16 -30 47 -88 70 -129 62 -114 58 -146 -38 -319 -27 -47
-79 -141 -116 -209 -37 -67 -70 -121 -72 -118 -4 4 112 399 122 415 2 4 23 14
45 21 49 16 60 38 60 113 0 54 -23 102 -89 192 -17 22 -36 62 -43 89 -12 46
-11 50 15 97 15 27 27 56 27 64 0 21 -32 35 -79 35 -30 0 -44 -6 -55 -22 -21
-29 -20 -46 5 -128 23 -78 16 -131 -23 -167 -26 -24 -351 -223 -356 -218 -2 2
56 62 130 135 l133 131 43 -6 42 -5 0 38 c0 74 -13 172 -23 172 -6 0 -7 -33
-3 -89 l7 -90 -33 5 c-31 4 -42 -5 -208 -165 -96 -93 -172 -172 -169 -175 2
-3 70 17 149 45 80 28 180 62 223 77 66 23 77 30 77 49 0 34 23 38 76 11 87
-43 136 -148 74 -156 -14 -2 -28 -7 -32 -10 -12 -12 -173 -560 -167 -567 2 -2
41 40 87 94 45 54 90 106 100 117 107 118 192 228 187 243 -4 9 -9 31 -12 49
l-6 33 87 -2 c48 -2 90 -7 93 -12 3 -5 -10 -95 -28 -200 -26 -143 -36 -183
-41 -161 -5 19 -6 10 -3 -23 2 -30 0 -53 -5 -53 -6 0 -10 -19 -9 -42 l0 -43
15 45 c7 25 28 97 45 160 17 63 34 118 38 122 4 5 12 -18 18 -50 6 -31 33
-167 60 -301 l48 -244 61 309 c68 344 58 330 105 157 12 -45 26 -80 32 -76 5
3 7 -3 3 -13 -3 -11 1 -39 9 -64 l15 -45 -5 45 c-15 133 -45 448 -45 467 0 22
4 23 71 23 l72 0 -7 -27 c-3 -16 -8 -38 -12 -50 -4 -16 9 -38 58 -95 35 -40
108 -126 163 -191 55 -65 114 -135 132 -155 l32 -37 -13 50 c-8 28 -39 138
-71 245 -32 107 -63 213 -69 235 -9 31 -20 44 -49 58 -44 22 -48 48 -14 98 23
36 128 96 146 84 6 -3 11 -16 11 -29 0 -19 13 -27 93 -55 249 -88 372 -130
375 -126 3 3 -81 86 -293 288 -62 60 -74 67 -101 62 l-30 -5 4 92 c2 67 0 89
-7 78 -6 -8 -11 -33 -11 -56 0 -22 -7 -64 -15 -92 -9 -29 -13 -57 -10 -63 4
-5 90 -64 191 -131 101 -67 183 -123 181 -125 -5 -4 -328 117 -344 129 -9 7
-9 16 -1 34 10 22 8 28 -20 54 -29 26 -32 34 -32 88 0 33 7 79 15 102 19 55
19 104 -1 124 -20 20 -83 21 -112 0 -28 -19 -28 -27 3 -72 44 -64 28 -137 -53
-238 -42 -54 -69 -118 -79 -190 -5 -39 1 -56 79 -206 47 -90 104 -198 128
-241 23 -43 40 -80 37 -83 -2 -2 -29 26 -58 63 -30 38 -94 116 -142 174 l-86
106 8 121 c8 114 11 124 47 189 108 191 121 234 88 281 -19 27 -69 30 -82 5
-13 -26 -25 -101 -23 -152 1 -46 -26 -104 -59 -121 -25 -13 -27 -13 -33 9 -3
12 4 23 24 35 16 9 32 28 35 42 6 24 -12 84 -25 84 -4 0 -15 14 -25 30 -17 30
-17 31 12 68 67 84 105 214 68 228 -25 10 -19 53 13 85 23 23 39 29 70 29 40
0 46 5 42 40 -3 23 -49 60 -75 60 -31 0 -70 -32 -86 -70 -16 -39 -23 -38 -39
6 -8 23 -24 40 -46 51 -29 14 -36 14 -63 0 -34 -16 -52 -2 -23 19 11 8 14 27
13 65 -3 72 -21 159 -33 159 -5 0 -9 56 -9 128 0 163 -21 615 -29 624 -3 4 -5
-210 -4 -475z m-108 -358 l1 -396 -22 3 c-13 1 -26 3 -30 3 -14 2 -8 24 10 37
14 10 17 29 17 116 -1 136 -15 324 -24 309 -10 -16 -4 76 16 239 11 93 19 127
24 110 4 -14 7 -203 8 -421z m-52 4 c-3 -10 -5 -4 -5 12 0 17 2 24 5 18 2 -7
2 -21 0 -30z m-30 -155 c-3 -7 -5 -2 -5 12 0 14 2 19 5 13 2 -7 2 -19 0 -25z
m53 -75 c0 -53 -9 -80 -21 -61 -13 19 -11 40 3 32 11 -7 8 33 -7 106 -5 22 -3
21 9 -5 9 -16 15 -49 16 -72z m127 75 c-3 -8 -6 -5 -6 6 -1 11 2 17 5 13 3 -3
4 -12 1 -19z m-223 -121 c5 -22 -20 -35 -37 -18 -18 18 -27 13 -27 -14 0 -28
32 -65 55 -65 10 0 15 -10 15 -30 0 -34 -42 -79 -73 -80 -19 0 -47 53 -47 89
0 10 -9 29 -19 42 -17 21 -18 27 -5 51 19 37 41 48 91 45 31 -1 43 -7 47 -20z
m380 2 c29 -23 34 -60 11 -79 -8 -7 -15 -25 -15 -40 0 -38 -31 -90 -52 -90
-10 0 -18 5 -18 10 0 6 -11 16 -25 22 -20 9 -25 18 -25 49 0 31 3 36 18 32 23
-6 40 14 49 57 6 30 4 33 -13 26 -36 -15 -54 -18 -54 -10 1 42 80 57 124 23z
m-545 -161 c6 -18 28 -56 47 -84 44 -63 41 -94 -3 -47 -50 53 -93 163 -64 163
5 0 14 -14 20 -32z m620 15 c-1 -31 -33 -98 -66 -139 l-32 -39 -1 33 c0 19 6
35 14 38 8 3 27 32 43 65 28 59 43 74 42 42z m-365 -2 c3 -5 -1 -15 -10 -22
-13 -10 -17 -10 -25 2 -5 8 -9 17 -9 22 0 10 38 9 44 -2z m119 3 c3 -3 1 -14
-5 -24 -10 -15 -14 -16 -25 -4 -8 8 -11 18 -8 24 7 11 28 13 38 4z m-201 -88
c4 -6 8 -24 8 -40 l0 -29 -25 23 c-30 28 -35 73 -7 63 9 -4 20 -11 24 -17z
m128 -16 l-8 -35 -1 31 c-1 17 2 34 6 37 11 12 12 3 3 -33z m156 14 c0 -19
-33 -64 -47 -64 -11 0 1 61 14 78 14 17 32 10 33 -14z m-231 -60 c9 -31 14
-58 12 -61 -5 -5 -37 84 -37 104 0 27 9 11 25 -43z m159 19 c-11 -44 -24 -76
-29 -71 -5 5 24 98 31 98 2 0 1 -12 -2 -27z m123 -45 c-3 -7 -5 -2 -5 12 0 14
2 19 5 13 2 -7 2 -19 0 -25z m-380 -40 c-3 -7 -5 -2 -5 12 0 14 2 19 5 13 2
-7 2 -19 0 -25z m340 10 c-3 -8 -6 -5 -6 6 -1 11 2 17 5 13 3 -3 4 -12 1 -19z
m-267 -29 c0 -5 -6 -9 -14 -9 -15 0 -28 24 -19 34 7 7 33 -13 33 -25z m220 11
c0 -11 -7 -20 -15 -20 -18 0 -19 12 -3 28 16 16 18 15 18 -8z m-350 -67 c0
-20 -3 -24 -11 -16 -7 7 -9 19 -6 27 10 24 17 19 17 -11z m11 -80 c-9 -17 -10
-17 -17 1 -5 12 -3 21 4 24 7 2 13 20 14 40 1 36 2 36 5 -5 2 -24 0 -51 -6
-60z m442 -32 c20 -40 21 -44 5 -39 -16 6 -38 85 -36 133 1 39 1 38 7 -10 4
-27 14 -65 24 -84z m15 111 c2 -7 -3 -12 -12 -12 -9 0 -16 7 -16 16 0 17 22
14 28 -4z m-399 -29 c5 -21 12 -56 14 -78 5 -37 4 -36 -13 15 -18 53 -25 100
-15 100 2 0 8 -17 14 -37z m101 28 c0 -6 -4 -13 -10 -16 -5 -3 -10 1 -10 9 0
9 5 16 10 16 6 0 10 -4 10 -9z m130 -6 c0 -8 -4 -15 -10 -15 -5 0 -10 7 -10
15 0 8 5 15 10 15 6 0 10 -7 10 -15z m-176 -104 c8 -12 11 -11 22 3 13 19 34
14 34 -8 0 -12 -40 -46 -54 -46 -10 0 -26 67 -25 109 l2 46 6 -45 c4 -25 10
-51 15 -59z m222 24 c-4 -23 -12 -49 -19 -58 -11 -14 -14 -14 -36 3 -13 12
-21 26 -17 35 6 17 26 21 26 5 0 -5 6 -10 14 -10 15 0 25 28 27 75 1 19 3 23
6 11 3 -10 2 -37 -1 -61z m34 10 c-6 -31 -14 -54 -17 -52 -3 3 1 31 8 61 7 31
14 54 16 52 3 -2 -1 -30 -7 -61z m-401 -71 c-27 -29 -39 -31 -39 -4 0 11 12
26 28 34 35 19 41 2 11 -30z m118 -56 c-3 -7 -5 -2 -5 12 0 14 2 19 5 13 2 -7
2 -19 0 -25z m133 -184 c0 -8 -4 -12 -10 -9 -5 3 -10 13 -10 21 0 8 5 12 10 9
6 -3 10 -13 10 -21z m155 -154 c40 -230 39 -238 -5 -85 -38 131 -49 212 -34
236 3 6 7 9 9 7 2 -2 15 -73 30 -158z m-237 109 c11 -17 11 -24 1 -36 -12 -13
-14 -13 -20 4 -19 46 -5 70 19 32z m175 -22 c-4 -22 -8 -25 -19 -16 -17 14
-18 31 -2 47 17 17 27 2 21 -31z m-112 -2 c10 27 10 -429 0 -480 -6 -28 -9
-32 -10 -15 -1 14 -19 113 -41 220 -22 107 -40 198 -40 202 0 5 17 27 38 49
31 36 38 39 41 23 4 -18 4 -18 12 1z"/>
<path d="M1213 2230 c0 -41 2 -58 4 -37 2 20 2 54 0 75 -2 20 -4 3 -4 -38z"/>
<path d="M1192 770 c0 -19 2 -27 5 -17 2 9 2 25 0 35 -3 9 -5 1 -5 -18z"/>
<path d="M1203 640 c0 -30 2 -43 4 -27 2 15 2 39 0 55 -2 15 -4 2 -4 -28z"/>
<path d="M1213 485 c0 -38 2 -53 4 -32 2 20 2 52 0 70 -2 17 -4 1 -4 -38z"/>
<path d="M1531 2844 c0 -11 3 -14 6 -6 3 7 2 16 -1 19 -3 4 -6 -2 -5 -13z"/>
<path d="M1522 2790 c0 -14 2 -19 5 -12 2 6 2 18 0 25 -3 6 -5 1 -5 -13z"/>
<path d="M1113 2705 c0 -27 2 -38 4 -22 2 15 2 37 0 50 -2 12 -4 0 -4 -28z"/>
<path d="M1323 2685 c0 -22 2 -30 4 -17 2 12 2 30 0 40 -3 9 -5 -1 -4 -23z"/>
<path d="M1103 2480 c0 -36 2 -50 4 -32 2 17 2 47 0 65 -2 17 -4 3 -4 -33z"/>
<path d="M1313 2420 c0 -47 2 -66 4 -42 2 23 2 61 0 85 -2 23 -4 4 -4 -43z"/>
<path d="M1053 855 c0 -27 2 -38 4 -22 2 15 2 37 0 50 -2 12 -4 0 -4 -28z"/>
<path d="M1043 760 c0 -25 2 -35 4 -22 2 12 2 32 0 45 -2 12 -4 2 -4 -23z"/>
<path d="M1033 660 c0 -25 2 -35 4 -22 2 12 2 32 0 45 -2 12 -4 2 -4 -23z"/>
</g>
</svg>
