<?xml version="1.0" standalone="no"?>
<!DOCTYPE svg PUBLIC "-//W3C//DTD SVG 20010904//EN"
 "http://www.w3.org/TR/2001/REC-SVG-20010904/DTD/svg10.dtd">
<svg version="1.0" xmlns="http://www.w3.org/2000/svg"
 width="244.000000pt" height="305.000000pt" viewBox="0 0 244.000000 305.000000"
 preserveAspectRatio="xMidYMid meet">
<metadata>
Created by potrace 1.16, written by Peter Selinger 2001-2019
</metadata>
<g transform="translate(0.000000,305.000000) scale(0.100000,-0.100000)"
fill="#000000" stroke="none">
<path d="M887 2885 c-3 -17 -1 -35 4 -41 12 -14 11 -944 0 -944 -5 0 -28 12
-51 27 l-42 28 6 175 c8 214 20 354 47 529 11 73 19 135 16 137 -5 5 -35 -160
-52 -291 -8 -60 -18 -217 -22 -347 l-6 -237 29 -11 c16 -6 39 -21 52 -33 19
-17 26 -19 40 -9 9 6 34 22 56 34 l38 23 -6 210 c-3 116 -11 257 -16 315 -11
116 -55 374 -75 429 l-12 35 -6 -29z"/>
<path d="M1292 2885 c0 -16 2 -22 5 -12 2 9 2 23 0 30 -3 6 -5 -1 -5 -18z"/>
<path d="M1567 2894 c-3 -6 -4 -22 0 -35 10 -39 14 -947 4 -954 -5 -3 -28 7
-50 22 l-41 27 0 103 c0 193 28 499 66 713 4 19 4 32 0 29 -3 -3 -17 -71 -30
-150 -22 -125 -30 -220 -50 -564 -7 -113 2 -165 31 -176 13 -5 35 -20 49 -34
l26 -26 33 30 c19 16 44 32 56 36 l22 7 -7 197 c-8 240 -20 373 -51 556 -27
157 -48 235 -58 219z"/>
<path d="M1172 2838 c-1 -32 -7 -262 -13 -510 -6 -249 -14 -459 -18 -467 -5
-8 -13 12 -20 55 -39 230 -46 239 -70 100 -17 -94 -14 -134 9 -141 37 -12 60
-53 54 -97 -2 -23 -7 -45 -10 -49 -8 -13 -38 -11 -52 3 -20 20 -35 -4 -22 -38
20 -50 49 -57 82 -19 30 35 37 31 31 -14 -3 -23 -1 -41 6 -45 6 -4 11 -14 11
-23 0 -11 -6 -14 -22 -10 -24 7 -88 -17 -88 -32 0 -6 16 -13 35 -17 33 -6 35
-9 35 -45 0 -22 -3 -39 -8 -39 -17 0 -82 62 -111 107 -17 25 -31 58 -31 73 0
15 -9 35 -19 44 -42 38 15 100 86 94 23 -2 43 0 43 5 0 4 0 16 0 27 0 60 -109
85 -149 34 -12 -15 -21 -33 -21 -40 0 -30 -21 -22 -40 15 -15 30 -29 42 -54
49 -67 19 -120 -11 -114 -64 3 -27 5 -29 46 -26 37 3 47 -1 77 -31 40 -40 44
-60 14 -81 -19 -13 -21 -21 -15 -56 8 -50 42 -121 85 -174 33 -42 32 -53 -13
-95 -37 -35 -43 -77 -16 -106 50 -53 128 -37 102 20 -15 32 -15 68 -1 82 15
15 119 -17 118 -37 0 -8 -6 -37 -12 -64 -11 -44 -15 -49 -43 -51 -17 -1 -47
-10 -68 -20 -46 -22 -72 -13 -112 41 -23 29 -29 49 -30 88 -1 50 -17 153 -25
160 -19 17 -50 14 -75 -8 -23 -19 -29 -32 -28 -64 1 -42 13 -66 103 -212 76
-123 77 -120 -93 -410 -136 -232 -156 -263 -156 -244 0 5 31 103 68 218 l67
210 50 15 c55 18 62 31 64 116 1 56 -13 84 -91 185 -65 84 -72 132 -29 201 30
49 30 50 11 69 -27 27 -110 28 -133 2 -22 -24 -21 -49 4 -128 33 -102 13 -157
-74 -207 -23 -13 -71 -41 -107 -62 -36 -20 -103 -57 -150 -82 l-85 -44 51 48
c28 26 95 88 148 137 l96 89 46 -7 46 -6 -7 98 c-10 133 -28 158 -21 29 l4
-98 -32 6 c-30 6 -41 -1 -172 -117 -76 -69 -164 -148 -194 -177 -52 -50 -53
-52 -25 -46 17 3 128 37 248 76 203 65 217 72 217 94 0 32 10 36 52 25 69 -20
130 -75 143 -132 6 -24 4 -28 -32 -37 -32 -9 -42 -17 -50 -43 -116 -364 -172
-543 -169 -545 4 -4 286 302 388 422 24 28 25 31 12 68 -8 22 -14 43 -14 48 0
5 41 9 90 9 92 0 142 -14 153 -43 7 -19 -3 -68 -20 -93 -11 -17 -11 -31 -4
-65 6 -24 11 -74 11 -111 0 -51 3 -68 14 -68 8 0 16 -14 18 -32 6 -42 78 -381
81 -385 2 -1 16 60 31 135 15 75 34 162 42 193 8 31 14 67 14 80 0 40 13 11
26 -58 l12 -68 1 49 c0 27 -4 66 -10 87 -11 35 -6 98 17 209 3 18 -4 34 -25
58 -21 23 -27 39 -23 55 6 22 6 22 13 -3 l7 -25 1 27 c2 42 43 58 145 58 47 0
87 -4 90 -9 3 -5 -1 -25 -9 -46 -19 -43 -32 -23 173 -250 170 -187 227 -245
219 -223 -4 10 -18 57 -32 105 -41 136 -125 405 -135 430 -5 11 -24 26 -44 33
-43 14 -47 40 -13 91 23 34 119 91 147 86 8 -1 17 -13 20 -27 5 -23 26 -32
235 -102 127 -42 237 -77 245 -77 17 -1 -40 56 -185 184 -55 49 -118 106 -140
127 -35 35 -44 39 -76 34 l-35 -6 2 93 c3 80 2 86 -7 47 -5 -25 -16 -74 -24
-108 -8 -35 -13 -68 -10 -72 3 -4 26 -21 53 -36 26 -15 49 -30 52 -33 3 -4 39
-26 80 -50 115 -67 201 -123 196 -129 -8 -7 -343 112 -361 129 -5 6 -5 13 3
21 19 19 14 44 -13 58 -40 22 -51 74 -30 151 28 100 30 137 10 159 -24 27 -94
27 -126 1 l-23 -19 27 -39 c48 -70 31 -158 -49 -248 -46 -52 -61 -81 -78 -153
-18 -76 -16 -80 121 -322 132 -235 135 -240 128 -240 -2 0 -73 78 -155 172
-140 160 -151 175 -145 203 4 17 8 69 9 117 l3 87 63 103 c35 57 69 114 77
128 20 38 16 97 -7 120 -23 23 -63 26 -77 8 -13 -16 -26 -88 -28 -154 -2 -54
-17 -81 -68 -123 -27 -22 -32 -23 -61 -11 -17 7 -48 15 -68 17 -21 3 -38 10
-38 16 0 6 -6 3 -13 -7 -13 -18 -14 -18 -21 -1 -4 10 -9 41 -12 70 l-6 51 64
21 c54 18 65 19 77 7 13 -12 13 -21 2 -65 -14 -53 -8 -68 27 -69 22 0 71 29
82 50 13 25 -7 75 -44 109 -33 31 -33 38 4 81 67 77 99 192 65 230 -22 24 -13
51 27 85 25 21 40 26 72 23 48 -4 58 17 31 58 -39 59 -119 51 -158 -17 -12
-21 -24 -39 -27 -39 -4 0 -12 16 -19 36 -26 73 -134 78 -158 8 -15 -45 -7 -54
42 -47 38 5 47 2 69 -20 29 -29 33 -58 11 -77 -8 -7 -15 -21 -15 -32 0 -37
-28 -85 -81 -138 l-53 -54 -7 34 c-8 40 -4 50 19 50 9 0 23 4 31 9 13 8 13 12
1 26 -10 12 -26 16 -58 13 l-44 -3 7 40 c4 22 7 54 6 70 l-2 30 30 -32 c16
-18 36 -33 44 -33 22 0 47 34 47 64 0 23 -3 27 -17 21 -41 -18 -58 -11 -67 26
-13 52 -1 84 40 108 l36 21 -7 59 c-4 33 -12 83 -19 113 -12 50 -14 52 -23 28
-6 -14 -19 -74 -28 -133 -21 -125 -35 -124 -35 3 0 47 -5 150 -11 230 -6 80
-14 222 -18 315 -7 157 -8 162 -10 65 l-3 -105 -22 70 -23 70 -15 -55 c-9 -30
-20 -75 -26 -100 -10 -38 -11 -24 -8 90 1 74 0 185 -4 245 -4 68 -7 88 -8 53z
m50 -608 c-5 -190 -9 -272 -13 -230 -5 48 -6 36 -5 -48 2 -62 -1 -107 -5 -100
-7 12 -9 8 -22 -57 -3 -11 -5 -3 -6 17 0 20 -4 45 -7 55 -5 15 -4 15 5 3 14
-19 14 -19 12 195 -2 128 3 205 18 310 12 77 21 144 21 149 0 5 2 7 4 5 3 -2
2 -137 -2 -299z m-18 -523 c-4 -38 -3 -48 5 -37 8 12 11 5 11 -28 0 -36 -2
-41 -13 -30 -19 18 -28 73 -21 119 9 57 25 36 18 -24z m-37 -19 c-3 -7 -5 -2
-5 12 0 14 2 19 5 13 2 -7 2 -19 0 -25z m-239 -117 c21 -45 103 -131 166 -175
39 -26 19 -43 -25 -20 -87 44 -164 135 -176 208 -8 50 8 44 35 -13z m652 26
c0 -53 -94 -177 -160 -211 -78 -41 -98 -19 -25 27 58 37 140 128 155 172 13
40 30 46 30 12z m-383 -39 c-3 -7 -5 -2 -5 12 0 14 2 19 5 13 2 -7 2 -19 0
-25z m83 10 c0 -18 -2 -20 -9 -8 -6 8 -7 18 -5 22 9 14 14 9 14 -14z m-19 -59
c-9 -22 -10 -22 -10 -3 -1 11 2 24 6 27 12 12 14 0 4 -24z m-24 -26 c-3 -10
-5 -2 -5 17 0 19 2 27 5 18 2 -10 2 -26 0 -35z m-20 15 c-3 -8 -6 -5 -6 6 -1
11 2 17 5 13 3 -3 4 -12 1 -19z m-53 -35 c14 -78 17 -123 7 -123 -7 0 -11 24
-11 58 0 40 -3 53 -10 42 -7 -11 -10 -7 -10 18 0 39 16 43 24 5z m166 0 c-1
-24 -2 -26 -11 -10 -5 9 -7 22 -4 27 10 17 15 11 15 -17z m-24 -121 c-13 -13
-17 9 -9 55 l8 48 3 -49 c2 -26 1 -51 -2 -54z m-194 -169 c-5 -56 -21 -93 -22
-53 0 25 18 100 24 100 2 0 1 -21 -2 -47z m45 15 c-3 -7 -5 -2 -5 12 0 14 2
19 5 13 2 -7 2 -19 0 -25z m26 2 c3 -11 1 -20 -4 -20 -5 0 -9 9 -9 20 0 11 2
20 4 20 2 0 6 -9 9 -20z m114 -12 c-3 -7 -5 -2 -5 12 0 14 2 19 5 13 2 -7 2
-19 0 -25z m20 0 c-3 -7 -5 -2 -5 12 0 14 2 19 5 13 2 -7 2 -19 0 -25z m-177
-98 c12 -7 10 -9 -8 -7 -12 0 -22 5 -22 9 0 11 12 10 30 -2z m220 0 c0 -5 -7
-10 -15 -10 -8 0 -15 5 -15 10 0 6 7 10 15 10 8 0 15 -4 15 -10z m-123 -162
c-3 -8 -6 -5 -6 6 -1 11 2 17 5 13 3 -3 4 -12 1 -19z m-20 -196 c0 -92 4 -228
7 -302 l5 -135 -23 105 c-64 287 -69 321 -60 379 6 36 14 55 22 54 6 -2 12 4
12 12 0 10 28 55 35 55 0 0 1 -75 2 -168z"/>
<path d="M1161 774 c0 -11 3 -14 6 -6 3 7 2 16 -1 19 -3 4 -6 -2 -5 -13z"/>
<path d="M1152 700 c0 -14 2 -19 5 -12 2 6 2 18 0 25 -3 6 -5 1 -5 -13z"/>
<path d="M1303 2635 c0 -27 2 -38 4 -22 2 15 2 37 0 50 -2 12 -4 0 -4 -28z"/>
<path d="M1360 1275 c0 -8 5 -15 10 -15 6 0 10 7 10 15 0 8 -4 15 -10 15 -5 0
-10 -7 -10 -15z"/>
<path d="M1381 1224 c0 -11 3 -14 6 -6 3 7 2 16 -1 19 -3 4 -6 -2 -5 -13z"/>
<path d="M1117 523 c-4 -3 -7 -25 -6 -47 l1 -41 9 44 c9 45 8 56 -4 44z"/>
</g>
</svg>
