<?xml version="1.0" standalone="no"?>
<!DOCTYPE svg PUBLIC "-//W3C//DTD SVG 20010904//EN"
 "http://www.w3.org/TR/2001/REC-SVG-20010904/DTD/svg10.dtd">
<svg version="1.0" xmlns="http://www.w3.org/2000/svg"
 width="244.000000pt" height="305.000000pt" viewBox="0 0 244.000000 305.000000"
 preserveAspectRatio="xMidYMid meet">
<metadata>
Created by potrace 1.16, written by Peter Selinger 2001-2019
</metadata>
<g transform="translate(0.000000,305.000000) scale(0.100000,-0.100000)"
fill="#000000" stroke="none">
<path d="M926 2901 c-11 -17 -44 -196 -60 -321 -19 -146 -36 -412 -36 -556 l0
-102 29 -12 c16 -6 37 -20 47 -31 22 -25 28 -24 59 7 30 30 61 29 83 -3 14
-22 14 -23 -16 -17 -26 5 -36 1 -62 -24 -16 -17 -30 -40 -30 -51 0 -12 -4 -21
-10 -21 -5 0 -10 7 -10 16 0 9 -16 32 -35 51 -30 30 -40 35 -67 29 -46 -9 -70
-34 -66 -70 3 -29 5 -31 39 -28 69 6 130 -78 82 -113 -18 -13 -18 -10 23 -190
10 -47 14 -91 9 -135 -3 -36 -6 -75 -6 -88 1 -12 -3 -22 -8 -22 -13 0 -24 34
-12 38 7 2 11 37 11 85 0 82 -6 93 -20 35 l-8 -33 -1 33 c-1 46 -18 72 -45 72
-55 0 -74 -85 -36 -160 11 -22 20 -47 20 -56 0 -15 -2 -15 -21 2 -31 27 -59
92 -59 138 0 25 10 56 26 84 l27 45 -23 19 c-29 24 -92 24 -113 0 -21 -23 -21
-59 -1 -129 24 -82 15 -158 -21 -187 -24 -19 -26 -25 -16 -43 16 -31 14 -37
-16 -50 -146 -59 -309 -120 -313 -116 -3 3 0 7 5 9 16 6 318 215 338 234 18
16 18 20 3 70 -9 30 -16 75 -16 101 0 26 -5 51 -11 55 -9 5 -11 -17 -7 -85 l6
-91 -32 5 c-29 6 -41 -4 -211 -175 -99 -99 -177 -180 -173 -180 6 0 137 46
431 152 19 7 27 17 27 33 0 35 16 39 65 15 44 -21 54 -36 37 -56 -19 -21 -73
-124 -65 -124 5 0 33 16 63 35 63 41 70 42 70 14 0 -13 -10 -23 -29 -30 -36
-13 -35 -9 -121 -314 -39 -137 -73 -256 -76 -264 -10 -30 40 26 184 204 186
231 176 221 168 165 -18 -137 -12 -135 12 5 l28 160 32 3 c18 2 32 1 32 -2 0
-3 -22 -78 -50 -167 -27 -89 -50 -170 -50 -180 0 -30 -20 -32 -21 -2 -1 25 -6
3 -33 -147 -5 -27 2 -20 29 35 134 271 165 349 165 411 0 30 3 54 8 54 16 0
71 -40 82 -60 10 -18 7 -26 -19 -56 -35 -40 -34 -35 -21 -83 5 -20 19 -90 30
-156 23 -132 79 -424 84 -440 1 -5 13 44 25 110 12 66 33 176 46 245 14 69 31
163 38 209 l14 83 -29 34 c-24 27 -27 37 -19 53 15 27 51 51 78 51 21 0 22 -3
17 -44 -8 -55 -9 -51 156 -411 15 -33 30 -67 33 -75 12 -32 6 28 -14 150 -24
152 -26 162 -34 225 l-7 50 24 -31 c12 -18 49 -63 80 -100 31 -38 82 -100 114
-139 98 -121 124 -149 124 -136 0 20 -130 486 -149 534 -6 15 -18 27 -29 27
-21 0 -42 18 -42 37 0 22 22 15 95 -31 38 -25 71 -43 74 -41 2 2 -17 40 -43
83 -25 43 -46 84 -46 91 0 11 57 41 79 41 5 0 12 -13 16 -29 5 -24 15 -32 63
-49 252 -90 368 -129 372 -125 2 2 -72 80 -165 174 -158 158 -172 170 -200
164 l-30 -5 2 93 c3 112 -13 79 -18 -39 l-4 -79 40 3 c39 3 43 0 175 -134 152
-153 146 -154 -64 -17 -72 47 -136 87 -143 90 -20 8 -53 77 -53 111 0 16 7 49
15 72 21 58 19 113 -3 133 -24 22 -74 21 -102 -1 -22 -18 -22 -20 -7 -48 9
-16 21 -39 28 -51 17 -31 3 -102 -29 -152 -43 -67 -58 -48 -22 30 24 53 25 97
4 127 -16 23 -58 30 -70 10 -5 -7 -11 -5 -21 7 -11 17 -13 11 -14 -46 -1 -35
-5 -77 -9 -94 -14 -58 -24 3 -12 70 7 34 12 81 12 104 0 23 5 51 10 61 17 32
15 98 -4 119 -23 25 -14 52 26 87 25 20 39 25 65 21 42 -7 51 9 29 51 -35 68
-120 53 -153 -27 -10 -22 -17 -30 -20 -21 -13 46 -38 90 -54 95 -9 3 -29 3
-44 -1 l-27 -7 17 27 c22 33 43 33 77 1 15 -14 32 -25 37 -25 6 0 30 15 53 32
l43 33 -3 155 c-1 85 -7 223 -12 305 -11 147 -48 420 -57 411 -3 -2 5 -71 16
-153 24 -165 41 -411 41 -578 l0 -110 -34 -27 c-19 -16 -37 -28 -40 -28 -4 0
-6 217 -5 483 0 304 4 475 10 462 6 -15 7 -11 3 15 -7 37 -11 46 -18 39 -9 -9
-55 -287 -68 -404 l-12 -120 -18 237 c-9 131 -21 251 -25 268 -4 17 -7 -173
-6 -422 1 -328 -2 -440 -9 -405 -6 27 -16 47 -23 47 -7 0 -16 6 -18 13 -3 6
-6 -22 -7 -63 -1 -41 -6 -88 -10 -105 -7 -28 -8 -26 -9 15 -1 25 -6 74 -11
110 -5 36 -14 117 -20 179 -9 100 -39 276 -57 335 -4 15 -7 16 -13 5 -14 -26
-50 -233 -60 -349 -6 -63 -16 -160 -23 -215 -12 -93 -14 -97 -20 -55 -3 25 -9
140 -12 255 -6 211 -31 571 -43 633 -4 18 -6 -155 -5 -385 1 -230 -2 -451 -5
-492 -6 -66 -9 -72 -21 -57 -11 14 -14 70 -15 284 -1 147 -3 240 -6 207 -5
-55 -6 -48 -18 75 -7 74 -20 164 -27 200 l-14 65 4 -55 c3 -30 12 -104 20
-165 8 -60 18 -215 22 -344 l6 -233 -24 -20 c-66 -51 -60 -94 -57 466 2 278 2
506 1 506 -1 0 -4 -4 -7 -9z m354 -626 c11 -88 17 -411 8 -421 -3 -2 -8 94
-12 213 -3 120 -9 238 -13 263 -3 25 -3 43 0 40 3 -3 11 -46 17 -95z m-190
-420 c0 -8 -4 -15 -10 -15 -5 0 -7 7 -4 15 4 8 8 15 10 15 2 0 4 -7 4 -15z
m310 0 c0 -8 -4 -15 -10 -15 -5 0 -10 7 -10 15 0 8 5 15 10 15 6 0 10 -7 10
-15z m-20 -128 c0 -20 -25 1 -28 24 -2 23 -2 23 13 5 8 -11 15 -24 15 -29z
m-346 -8 c9 -22 13 -46 9 -52 -10 -15 -10 -18 -12 -74 -2 -47 -2 -47 -16 -23
-8 14 -14 37 -15 51 0 14 -7 34 -15 45 -19 25 -19 53 2 76 23 26 29 23 47 -23z
m77 8 c-8 -8 -11 -7 -11 4 0 20 13 34 18 19 3 -7 -1 -17 -7 -23z m389 -17 c0
-10 -7 -31 -15 -46 -8 -16 -15 -38 -15 -50 0 -11 -6 -28 -13 -39 -12 -16 -15
-9 -20 58 -7 77 -2 106 17 119 14 9 46 -20 46 -42z m-201 -62 c1 -10 -3 -18
-9 -18 -5 0 -10 17 -9 38 0 30 2 33 9 17 5 -11 9 -28 9 -37z m-122 -39 c11 -4
28 -24 38 -45 17 -36 18 -37 32 -18 13 18 14 17 7 -11 -4 -16 -10 -39 -14 -49
-6 -17 -8 -16 -14 10 -16 67 -27 84 -58 84 -63 0 -88 41 -51 82 17 19 18 19
28 -13 6 -18 20 -36 32 -40z m193 21 c0 -38 -11 -47 -61 -51 -36 -3 -45 -1
-41 9 2 8 15 17 27 22 14 5 25 20 28 39 6 29 8 30 27 19 11 -7 20 -23 20 -38z
m-416 -52 c9 -24 43 -74 76 -111 57 -65 70 -87 51 -87 -12 0 -61 47 -61 59 0
5 -9 12 -19 16 -12 3 -22 19 -26 38 -4 18 -15 39 -26 47 -20 16 -38 80 -22 80
6 0 18 -19 27 -42z m121 13 c2 -11 0 -21 -6 -21 -5 0 -9 12 -9 27 0 30 9 27
15 -6z m335 4 c0 -14 -4 -25 -9 -25 -5 0 -8 8 -6 18 2 9 4 20 4 25 2 19 11 4
11 -18z m126 -29 c-8 -20 -20 -36 -25 -36 -6 0 -11 -14 -11 -30 0 -22 -6 -33
-22 -41 -13 -6 -32 -25 -43 -42 -23 -35 -45 -46 -45 -22 0 9 20 37 43 63 41
44 77 102 91 146 5 13 10 16 17 9 7 -7 6 -22 -5 -47z m-436 -58 c26 -43 26
-72 1 -38 -18 22 -34 70 -24 70 2 0 12 -15 23 -32z m290 4 c0 -22 -26 -59 -35
-50 -6 6 21 68 30 68 3 0 5 -8 5 -18z m-433 -124 c-3 -8 -6 -5 -6 6 -1 11 2
17 5 13 3 -3 4 -12 1 -19z m564 -15 c-9 -16 -10 -14 -11 12 0 21 3 26 11 18 8
-8 8 -16 0 -30z m-341 1 c0 -16 -16 -19 -25 -4 -8 13 4 32 16 25 5 -4 9 -13 9
-21z m126 -11 c-11 -11 -19 6 -11 24 8 17 8 17 12 0 3 -10 2 -21 -1 -24z
m-232 -159 c28 -20 38 -7 34 45 l-3 46 35 2 c31 2 32 1 12 -7 -32 -13 -28 -63
5 -68 23 -3 39 -34 28 -53 -4 -6 -14 -7 -24 -3 -9 4 -29 6 -45 5 -16 -1 -37 1
-47 4 -25 8 -42 75 -32 123 7 36 8 36 13 -21 4 -42 11 -63 24 -73z m366 75 c0
-47 -22 -105 -41 -107 -8 -1 -36 -3 -64 -5 -45 -2 -50 0 -53 20 -3 17 3 26 21
32 14 6 28 14 31 19 9 15 -6 52 -21 52 -8 0 -12 4 -9 8 3 5 19 7 36 4 l30 -4
-6 -54 c-6 -46 -4 -54 9 -54 28 0 50 46 44 90 -3 21 -3 41 0 44 13 12 23 -8
23 -45z m137 -51 c-3 -8 -6 -5 -6 6 -1 11 2 17 5 13 3 -3 4 -12 1 -19z m-739
-54 c-10 -10 -28 6 -28 24 0 15 1 15 17 -1 9 -9 14 -19 11 -23z m182 6 c0 -5
-2 -10 -4 -10 -3 0 -8 5 -11 10 -3 6 -1 10 4 10 6 0 11 -4 11 -10z m450 0 c0
-5 -5 -10 -11 -10 -5 0 -7 5 -4 10 3 6 8 10 11 10 2 0 4 -4 4 -10z m156 -45
c-4 -14 -11 -25 -16 -25 -13 0 -13 16 1 42 14 26 23 16 15 -17z m-877 -84
c-34 -43 -42 -38 -17 10 14 27 24 37 31 30 6 -6 2 -20 -14 -40z m145 7 c3 -18
7 -75 10 -126 l6 -93 -110 -142 c-61 -78 -122 -157 -136 -175 -14 -18 -27 -32
-29 -30 -2 2 19 48 47 103 28 55 80 159 117 230 57 114 66 137 67 190 2 76 2
75 14 75 5 0 11 -15 14 -32z m722 -25 c15 -66 18 -71 62 -83 37 -9 39 -12 61
-87 47 -160 101 -357 97 -360 -2 -2 -27 42 -56 99 -29 57 -65 126 -80 153 -95
172 -130 249 -130 284 0 71 30 67 46 -6z m107 35 c8 -13 24 -34 36 -47 32 -36
19 -36 -33 0 -44 31 -54 48 -39 62 11 12 20 8 36 -15z m-476 -139 c-15 -21
-15 -21 -26 -1 -15 29 -14 37 4 22 12 -10 16 -9 22 6 4 10 8 13 11 6 2 -6 -3
-21 -11 -33z m-297 -14 c0 -14 -4 -25 -10 -25 -5 0 -10 11 -10 25 0 14 5 25
10 25 6 0 10 -11 10 -25z m529 -92 c18 -65 46 -162 63 -217 16 -54 27 -100 25
-102 -2 -3 -14 19 -27 48 -12 29 -44 103 -71 164 -40 90 -49 121 -49 167 0 94
22 72 59 -60z m61 96 c0 -11 -4 -17 -10 -14 -5 3 -10 13 -10 21 0 8 5 14 10
14 6 0 10 -9 10 -21z m-227 -263 c-23 -129 -48 -224 -38 -146 19 154 26 289
16 308 -19 36 -11 38 17 3 l28 -33 -23 -132z m-406 -138 c-3 -8 -6 -5 -6 6 -1
11 2 17 5 13 3 -3 4 -12 1 -19z"/>
<path d="M1392 2805 c0 -16 2 -22 5 -12 2 9 2 23 0 30 -3 6 -5 -1 -5 -18z"/>
<path d="M1052 2800 c0 -14 2 -19 5 -12 2 6 2 18 0 25 -3 6 -5 1 -5 -13z"/>
<path d="M952 2780 c0 -14 2 -19 5 -12 2 6 2 18 0 25 -3 6 -5 1 -5 -13z"/>
<path d="M1043 2700 c0 -25 2 -35 4 -22 2 12 2 32 0 45 -2 12 -4 2 -4 -23z"/>
<path d="M1382 2720 c0 -14 2 -19 5 -12 2 6 2 18 0 25 -3 6 -5 1 -5 -13z"/>
<path d="M1033 2580 c0 -25 2 -35 4 -22 2 12 2 32 0 45 -2 12 -4 2 -4 -23z"/>
<path d="M1372 2590 c0 -19 2 -27 5 -17 2 9 2 25 0 35 -3 9 -5 1 -5 -18z"/>
<path d="M1363 2380 c0 -47 2 -66 4 -42 2 23 2 61 0 85 -2 23 -4 4 -4 -43z"/>
</g>
</svg>
