<?xml version="1.0" standalone="no"?>
<!DOCTYPE svg PUBLIC "-//W3C//DTD SVG 20010904//EN"
 "http://www.w3.org/TR/2001/REC-SVG-20010904/DTD/svg10.dtd">
<svg version="1.0" xmlns="http://www.w3.org/2000/svg"
 width="244.000000pt" height="305.000000pt" viewBox="0 0 244.000000 305.000000"
 preserveAspectRatio="xMidYMid meet">
<metadata>
Created by potrace 1.16, written by Peter Selinger 2001-2019
</metadata>
<g transform="translate(0.000000,305.000000) scale(0.100000,-0.100000)"
fill="#000000" stroke="none">
<path d="M897 2900 c-10 -28 -46 -214 -61 -320 -19 -123 -36 -389 -36 -547 0
-104 1 -112 21 -118 11 -4 35 -20 53 -36 l33 -28 22 23 c13 14 36 30 52 36 28
12 29 15 29 74 -1 258 -33 626 -65 753 l-15 58 6 -55 c3 -30 9 -77 15 -105 18
-97 39 -382 39 -531 l0 -151 -40 -27 c-22 -14 -42 -26 -45 -26 -3 0 -5 217 -5
483 0 315 4 477 10 467 8 -12 10 -12 9 5 0 11 -4 29 -9 40 -6 16 -9 17 -13 5z"/>
<path d="M1548 2845 c-43 -158 -73 -419 -84 -726 l-6 -185 51 -37 c57 -41 64
-43 80 -23 7 8 28 22 48 31 l36 17 -7 192 c-7 216 -28 445 -53 585 -22 123
-29 101 -9 -26 27 -169 46 -410 46 -572 l-1 -156 -35 -22 c-20 -13 -40 -23
-45 -23 -5 0 -9 187 -9 471 0 422 2 471 16 465 9 -3 12 -2 8 5 -3 6 -9 22 -13
37 -6 23 -9 19 -23 -33z"/>
<path d="M1127 2392 c1 -418 0 -459 -12 -394 -25 133 -35 140 -54 38 -16 -87
-14 -155 4 -162 8 -4 15 -15 15 -27 0 -20 0 -20 -20 -2 -25 23 -81 25 -106 5
-9 -8 -24 -31 -32 -50 -13 -32 -16 -33 -26 -16 -44 72 -80 93 -131 76 -21 -7
-37 -21 -45 -40 -18 -44 -10 -55 41 -52 37 3 48 -1 70 -25 36 -38 45 -69 23
-81 -40 -23 -7 -150 60 -230 28 -33 34 -70 12 -78 -8 -3 -24 -25 -37 -49 -21
-39 -22 -46 -10 -69 8 -14 29 -30 47 -36 30 -10 32 -13 22 -35 l-11 -24 -29
20 c-44 32 -63 68 -64 124 -1 27 -6 75 -10 105 -8 50 -11 55 -37 58 -16 2 -40
-4 -54 -13 -23 -15 -25 -22 -21 -68 4 -42 17 -72 66 -153 78 -128 84 -144 83
-229 0 -38 5 -85 10 -103 10 -31 8 -35 -78 -139 -121 -146 -214 -253 -220
-253 -2 0 9 24 25 53 29 51 109 198 192 351 39 73 42 83 37 136 -6 65 -32 122
-93 200 -72 93 -82 152 -38 227 25 43 25 45 8 64 -24 27 -104 27 -129 -1 -20
-22 -18 -48 10 -150 24 -85 15 -135 -26 -158 -29 -17 -38 -45 -19 -57 19 -12
10 -26 -27 -42 -91 -38 -323 -120 -323 -114 0 4 85 61 190 127 110 69 190 125
190 134 0 8 -7 37 -15 64 -8 27 -15 71 -15 97 0 26 -5 51 -11 55 -8 5 -10 -20
-7 -90 l4 -96 -32 6 c-34 6 -54 -9 -204 -151 -36 -34 -98 -92 -138 -130 -39
-37 -71 -70 -69 -72 2 -1 111 33 243 77 131 44 240 80 241 80 2 0 3 11 3 25 0
35 19 39 71 17 105 -45 160 -161 78 -162 -9 0 -21 -6 -26 -12 -6 -7 -40 -112
-77 -233 -38 -121 -76 -247 -87 -279 -10 -33 -17 -61 -15 -63 4 -4 356 388
383 427 13 19 14 30 5 64 -6 22 -8 44 -6 48 3 5 38 8 79 8 68 0 74 -2 78 -23
l4 -22 2 23 c1 25 19 30 28 6 3 -9 -7 -86 -23 -173 -24 -129 -30 -150 -36
-121 -4 19 -4 6 -2 -30 4 -47 2 -61 -5 -50 -8 11 -11 5 -11 -26 0 -23 -2 -57
-5 -75 -5 -33 -5 -32 9 6 7 22 29 93 47 158 18 64 36 117 39 117 3 0 16 -53
28 -117 51 -268 96 -475 101 -462 2 8 30 142 62 299 62 313 59 308 95 164 9
-36 18 -63 21 -61 4 4 -39 194 -57 253 -12 38 -13 114 -1 114 4 0 16 -42 25
-92 52 -279 60 -333 46 -303 -8 16 -9 14 -4 -10 3 -16 10 -32 15 -33 5 -2 7
-7 4 -11 -2 -4 0 -21 5 -37 14 -50 12 -2 -15 256 -14 133 -23 245 -20 248 9
10 137 4 147 -6 6 -6 3 -24 -5 -45 -18 -41 -14 -49 67 -137 28 -31 78 -86 111
-124 33 -38 74 -83 90 -100 17 -18 48 -53 70 -80 22 -26 41 -44 42 -39 2 4
-27 105 -63 223 -36 118 -72 240 -81 270 -18 67 -25 76 -63 84 -65 12 -21 103
72 150 63 31 88 29 88 -7 0 -23 15 -29 231 -101 128 -42 234 -75 236 -72 2 2
-3 10 -11 17 -8 8 -45 43 -83 79 -37 36 -114 108 -170 159 -94 86 -104 92
-133 86 l-31 -7 7 85 c4 55 3 87 -4 91 -6 4 -13 -25 -18 -81 -12 -127 -16
-118 39 -118 47 0 49 -1 182 -125 73 -68 132 -126 130 -128 -5 -6 -60 24 -220
120 -159 94 -185 120 -185 183 0 18 7 52 16 76 23 65 22 118 -1 135 -27 20
-89 17 -116 -5 l-23 -18 27 -46 c44 -75 32 -135 -47 -237 -60 -77 -69 -96 -68
-154 1 -79 13 -101 65 -115 43 -12 44 -14 65 -79 12 -37 42 -132 67 -211 44
-140 54 -195 24 -139 -18 35 -182 324 -231 408 -23 39 -38 78 -38 97 0 44 26
106 72 176 78 116 97 188 58 227 -20 20 -56 26 -76 12 -12 -8 -25 -80 -27
-157 -2 -41 -8 -59 -35 -93 -37 -46 -57 -53 -65 -22 -4 15 2 24 24 35 34 18
52 49 44 75 -3 11 -22 38 -41 61 -35 43 -35 59 1 89 9 8 30 40 46 72 33 66 40
143 13 162 -20 15 -5 56 32 85 21 17 39 21 69 19 39 -3 40 -2 38 26 -3 42 -33
68 -77 68 -44 0 -73 -22 -94 -72 l-14 -35 -20 43 c-12 25 -33 49 -51 59 -27
14 -33 14 -63 -1 -38 -18 -58 -3 -26 19 21 16 21 32 1 158 -7 41 -16 67 -23
67 -10 0 -15 73 -20 313 -7 269 -18 475 -25 442 -1 -5 -2 -221 -2 -480 0 -488
-9 -562 -28 -240 -10 168 -27 293 -52 389 -17 68 -21 78 -26 73 -13 -14 -58
-237 -66 -332 -1 -16 -8 107 -15 275 -7 168 -16 308 -20 312 -4 4 -6 -203 -5
-460z m147 -44 c8 -64 17 -181 19 -260 3 -81 2 -108 -2 -63 l-6 80 -7 -64 c-5
-35 -8 -94 -7 -130 1 -61 2 -64 13 -38 17 39 27 22 10 -18 -18 -44 -18 -73 1
-91 17 -17 21 -39 5 -29 -5 3 -10 0 -10 -7 0 -8 -5 -5 -11 6 -9 14 -24 386
-29 705 0 62 8 28 24 -91z m53 -480 c-3 -8 -6 -5 -6 6 -1 11 2 17 5 13 3 -3 4
-12 1 -19z m-225 -120 c13 -22 -10 -33 -37 -18 -30 16 -39 9 -32 -22 11 -44
30 -60 58 -50 25 10 25 9 20 -27 -4 -27 -17 -47 -42 -69 -20 -18 -39 -32 -43
-32 -10 0 -46 79 -46 102 0 13 -9 31 -19 40 -25 21 -18 51 18 79 21 17 35 20
70 15 25 -3 48 -12 53 -18z m402 -8 c31 -38 33 -56 6 -70 -12 -6 -20 -21 -20
-36 0 -27 -26 -90 -40 -99 -5 -3 -22 6 -38 20 -16 14 -35 25 -41 25 -6 0 -11
18 -11 40 0 37 2 40 23 35 28 -7 44 9 53 53 7 35 3 38 -27 21 -27 -14 -49 -5
-43 18 4 14 17 19 58 21 49 3 56 0 80 -28z m-223 -84 c6 -6 9 -3 9 7 0 9 5 17
11 17 19 0 4 -43 -18 -51 -22 -8 -23 -6 -22 34 1 23 3 33 6 22 3 -11 9 -24 14
-29z m-350 -78 c12 -24 35 -58 50 -76 17 -19 29 -44 29 -60 l-1 -27 -36 40
c-40 45 -72 108 -73 143 0 32 7 28 31 -20z m639 17 c0 -47 -66 -152 -110 -175
-30 -16 -13 28 36 90 23 30 46 67 49 83 9 34 25 35 25 2z m-375 5 c8 -13 -14
-42 -25 -35 -4 3 -10 14 -13 25 -4 15 0 20 13 20 11 0 22 -5 25 -10z m115 -9
c0 -26 -16 -35 -24 -15 -10 25 -7 34 9 34 8 0 15 -9 15 -19z m-190 -89 c0 -9
3 -28 7 -41 l6 -25 -31 23 c-30 21 -42 57 -26 74 11 11 44 -13 44 -31z m118
-8 c-3 -27 -4 -26 -9 8 -3 22 -1 34 4 29 5 -5 7 -21 5 -37z m162 16 c0 -21 -8
-35 -25 -46 -14 -9 -28 -15 -30 -12 -10 10 17 77 33 81 9 3 18 5 20 6 1 0 2
-12 2 -29z m-231 -80 c0 -23 -15 7 -22 45 l-6 30 14 -30 c8 -16 14 -37 14 -45z
m150 27 c-5 -20 -14 -39 -19 -42 -5 -3 -2 15 7 40 18 54 27 55 12 2z m-292
-44 c-3 -10 -5 -4 -5 12 0 17 2 24 5 18 2 -7 2 -21 0 -30z m40 -25 c-3 -7 -5
-2 -5 12 0 14 2 19 5 13 2 -7 2 -19 0 -25z m340 0 c-3 -7 -5 -2 -5 12 0 14 2
19 5 13 2 -7 2 -19 0 -25z m-272 -16 c0 -18 -20 -15 -23 4 -3 10 1 15 10 12 7
-3 13 -10 13 -16z m225 3 c0 -8 -7 -15 -15 -15 -8 0 -15 7 -15 15 0 8 7 15 15
15 8 0 15 -7 15 -15z m-340 -50 c0 5 5 4 11 -2 18 -18 -8 -120 -40 -155 -35
-39 -49 -22 -17 21 16 21 22 40 18 58 -4 21 -2 25 12 20 10 -4 16 -1 16 8 0
20 -21 30 -31 14 -6 -10 -9 -6 -9 13 0 28 20 43 32 24 4 -6 8 -7 8 -1z m468
-12 c2 -12 -3 -20 -13 -20 -9 0 -15 9 -15 25 0 29 24 25 28 -5z m-314 -15 c-9
-14 -23 2 -17 18 4 12 8 13 14 3 4 -7 5 -17 3 -21z m135 3 c-15 -5 -22 6 -14
19 6 9 10 9 16 -1 5 -8 4 -15 -2 -18z m160 -105 c6 -16 9 -31 7 -33 -11 -12
-36 74 -35 121 l2 51 7 -55 c4 -30 12 -68 19 -84z m-385 72 c4 -24 10 -54 13
-68 3 -14 3 -23 0 -20 -11 10 -36 130 -27 130 4 0 10 -19 14 -42z m310 -32
c-20 -79 -29 -82 -14 -5 14 68 19 83 26 77 3 -3 -3 -35 -12 -72z m-269 -13 c5
-23 35 -33 35 -12 0 8 5 7 15 -1 14 -12 13 -16 -6 -37 -13 -12 -26 -23 -30
-23 -10 0 -29 84 -28 122 l2 33 4 -30 c2 -16 6 -40 8 -52z m225 -20 c-6 -29
-14 -53 -18 -53 -20 1 -52 37 -46 53 8 22 20 22 29 0 6 -17 7 -17 21 1 8 11
15 38 15 60 1 28 3 33 6 16 3 -14 0 -49 -7 -77z m17 -100 c-3 -10 -5 -4 -5 12
0 17 2 24 5 18 2 -7 2 -21 0 -30z m-127 -178 c0 -8 -2 -15 -4 -15 -2 0 -6 7
-10 15 -3 8 -1 15 4 15 6 0 10 -7 10 -15z m-82 -79 c-12 -21 -12 -21 -19 4
-13 47 -11 55 11 35 16 -14 17 -21 8 -39z m180 24 c-2 -33 -8 -36 -26 -18 -9
9 -8 16 5 30 22 24 24 23 21 -12z m-38 -302 c-24 -121 -45 -217 -47 -211 -2 5
3 106 11 223 9 134 11 222 5 237 -20 54 -10 58 33 15 l43 -42 -45 -222z"/>
<path d="M921 2814 c0 -11 3 -14 6 -6 3 7 2 16 -1 19 -3 4 -6 -2 -5 -13z"/>
<path d="M1113 2675 c0 -22 2 -30 4 -17 2 12 2 30 0 40 -3 9 -5 -1 -4 -23z"/>
<path d="M1323 2655 c0 -27 2 -38 4 -22 2 15 2 37 0 50 -2 12 -4 0 -4 -28z"/>
<path d="M1314 2400 c0 -52 1 -74 3 -47 2 26 2 68 0 95 -2 26 -3 4 -3 -48z"/>
<path d="M1104 2390 c0 -52 1 -74 3 -47 2 26 2 68 0 95 -2 26 -3 4 -3 -48z"/>
<path d="M1052 830 c0 -19 2 -27 5 -17 2 9 2 25 0 35 -3 9 -5 1 -5 -18z"/>
<path d="M1043 735 c0 -22 2 -30 4 -17 2 12 2 30 0 40 -3 9 -5 -1 -4 -23z"/>
</g>
</svg>
