<?xml version="1.0" standalone="no"?>
<!DOCTYPE svg PUBLIC "-//W3C//DTD SVG 20010904//EN"
 "http://www.w3.org/TR/2001/REC-SVG-20010904/DTD/svg10.dtd">
<svg version="1.0" xmlns="http://www.w3.org/2000/svg"
 width="244.000000pt" height="305.000000pt" viewBox="0 0 244.000000 305.000000"
 preserveAspectRatio="xMidYMid meet">
<metadata>
Created by potrace 1.16, written by Peter Selinger 2001-2019
</metadata>
<g transform="translate(0.000000,305.000000) scale(0.100000,-0.100000)"
fill="#000000" stroke="none">
<path d="M907 2903 c-3 -4 -17 -71 -31 -148 -33 -178 -53 -388 -61 -632 l-6
-192 38 -24 c21 -13 44 -32 52 -41 12 -15 16 -14 46 12 19 15 43 34 55 42 l22
15 -11 250 c-6 138 -18 301 -26 363 -15 122 -46 285 -52 279 -2 -2 3 -44 12
-93 29 -169 46 -360 52 -569 l6 -210 -41 -28 c-23 -15 -44 -27 -47 -27 -3 0
-5 217 -5 483 0 319 4 477 10 467 7 -11 8 -5 4 20 -8 40 -10 45 -17 33z"/>
<path d="M1369 2884 c0 -16 0 -202 1 -414 0 -377 -7 -506 -31 -520 -7 -5 -9
-19 -4 -38 3 -16 2 -33 -3 -36 -5 -3 -12 57 -16 142 -4 81 -11 194 -17 252
-10 106 -45 293 -59 319 -12 22 -49 -149 -65 -298 -8 -75 -17 -203 -21 -284
-3 -82 -8 -147 -10 -145 -2 2 -5 154 -8 338 -4 313 -21 640 -35 667 -3 6 -5
-164 -3 -378 2 -321 1 -389 -11 -389 -15 0 -37 -93 -37 -162 0 -40 4 -50 31
-71 24 -19 30 -30 27 -53 l-4 -29 -16 36 c-15 33 -43 49 -88 49 -18 0 -70 -53
-70 -70 0 -29 -19 -34 -29 -8 -5 13 -21 34 -35 48 -53 49 -140 20 -134 -44 3
-29 5 -31 41 -28 32 3 43 -2 72 -31 37 -37 44 -64 20 -73 -37 -15 -8 -143 49
-219 37 -49 37 -59 0 -116 -28 -43 -34 -60 -29 -86 3 -19 2 -33 -4 -33 -17 0
-25 24 -28 85 -1 33 -6 80 -10 105 -7 41 -11 45 -38 48 -80 8 -94 -77 -32
-186 20 -34 43 -72 52 -84 8 -13 15 -34 15 -48 0 -22 -4 -19 -26 20 -14 25
-42 65 -61 89 -37 44 -62 99 -63 137 0 12 11 42 25 68 14 26 25 53 25 61 0 36
-104 49 -133 17 -19 -21 -22 -73 -7 -103 6 -10 15 -43 20 -71 12 -66 0 -114
-37 -144 -24 -19 -26 -24 -16 -47 9 -20 9 -28 0 -35 -16 -13 -340 -132 -345
-127 -2 2 29 25 69 51 222 140 309 201 309 214 0 8 -7 37 -15 64 -8 27 -15 71
-15 97 0 26 -5 51 -11 55 -8 5 -10 -20 -7 -90 l4 -96 -32 6 c-29 5 -39 -1
-130 -89 -55 -52 -136 -129 -182 -172 -45 -43 -82 -81 -82 -86 0 -8 99 23 328
104 127 44 142 52 142 73 0 35 16 38 74 11 60 -28 106 -80 106 -121 0 -21 -7
-30 -34 -41 -32 -14 -37 -22 -61 -102 -14 -49 -30 -99 -35 -113 -5 -14 -29
-95 -54 -180 -24 -85 -48 -164 -51 -175 -9 -25 40 25 160 164 220 256 227 264
221 296 -13 73 -15 70 36 73 42 3 47 1 51 -20 l4 -23 2 23 c1 17 7 22 27 22
19 0 24 -4 20 -17 -7 -23 -54 -228 -74 -323 -14 -66 -17 -71 -23 -45 l-7 30
-1 -31 c0 -17 -3 -53 -6 -80 -7 -63 -3 -53 84 186 56 152 67 193 63 230 l-4
45 35 -34 c39 -37 38 -49 -3 -84 -27 -23 -29 -1 47 -391 44 -225 59 -283 65
-260 12 46 118 597 118 612 0 8 -14 31 -30 52 l-30 38 32 33 33 34 5 -65 c6
-64 29 -137 146 -450 7 -19 13 -28 14 -20 0 20 -58 476 -66 513 -7 33 7 39 56
29 37 -9 39 -15 25 -74 -6 -23 7 -43 101 -156 145 -172 268 -311 272 -307 3 3
-46 176 -120 420 -41 132 -45 141 -75 154 -25 11 -33 21 -33 40 0 44 43 96
100 120 59 25 80 22 80 -12 0 -21 10 -28 78 -50 42 -15 142 -49 222 -76 80
-27 147 -47 150 -45 5 5 -20 29 -233 233 -111 105 -120 112 -149 106 l-31 -7
5 79 c7 92 -7 136 -16 52 -3 -30 -7 -76 -8 -104 l-3 -50 43 3 c39 3 46 0 103
-55 33 -32 95 -91 137 -130 42 -40 73 -73 69 -73 -14 0 -71 32 -219 123 -191
118 -199 133 -155 292 25 87 -6 126 -87 111 -55 -11 -63 -29 -32 -76 18 -27
26 -53 26 -82 0 -44 -29 -120 -50 -133 -7 -4 -30 -35 -51 -68 -58 -89 -49 -38
11 63 40 69 50 94 50 131 0 55 -23 82 -67 77 -25 -3 -29 -8 -36 -48 -4 -25 -9
-70 -11 -100 -1 -31 -6 -61 -10 -68 -10 -16 -27 -5 -25 16 3 36 -2 52 -26 80
-34 41 -32 65 17 145 49 81 62 155 33 187 -35 39 29 114 94 108 30 -2 36 0 39
18 2 11 -7 32 -18 47 -17 21 -30 27 -58 27 -45 -1 -63 -14 -89 -64 l-20 -40
-13 38 c-14 45 -60 76 -110 76 -20 0 -30 4 -23 8 20 13 -12 1010 -33 1031 -2
2 -4 -9 -5 -25z m-94 -550 c15 -112 17 -284 6 -409 -4 -50 -9 9 -14 199 -5
148 -11 283 -14 300 -3 17 -3 28 1 25 4 -4 13 -55 21 -115z m25 -546 c0 -51
-3 -68 -10 -58 -16 24 -11 130 6 130 2 0 4 -33 4 -72z m92 60 c-7 -7 -12 -20
-12 -30 0 -10 -4 -18 -10 -18 -11 0 -14 43 -3 53 3 4 13 7 22 7 12 0 12 -3 3
-12z m-327 -99 c5 -6 3 -9 -8 -9 -22 0 -23 -38 -1 -68 11 -15 15 -40 13 -75
-1 -29 0 -59 3 -67 25 -65 13 -66 -36 -3 -20 26 -42 65 -48 87 -6 23 -17 48
-25 57 -19 23 -16 40 14 71 21 22 33 28 53 23 14 -4 29 -11 35 -16z m430 -10
c28 -34 32 -57 10 -65 -8 -3 -17 -26 -21 -50 -4 -30 -19 -60 -47 -94 -52 -64
-68 -68 -45 -13 6 15 10 52 9 81 -2 36 2 59 12 70 23 26 26 67 5 66 -22 -2
-23 12 -3 23 30 17 55 11 80 -18z m-345 -79 c0 -34 4 -42 25 -50 31 -12 32
-26 3 -34 -31 -8 -46 11 -48 59 -3 57 -1 65 10 65 6 0 10 -18 10 -40z m150
-26 c0 -2 -7 -4 -15 -4 -11 0 -15 11 -15 38 l1 37 14 -34 c8 -18 15 -35 15
-37z m38 9 c-3 -58 -3 -58 -36 -59 -36 -1 -39 19 -4 24 19 3 22 10 22 48 0 24
5 44 10 44 7 0 10 -22 8 -57z m-393 -75 c23 -49 24 -68 5 -68 -10 0 -40 74
-40 100 0 32 9 23 35 -32z m594 -35 c-21 -45 -23 -46 -26 -21 -3 15 6 45 19
70 19 36 23 40 26 21 2 -12 -7 -44 -19 -70z m-429 67 c0 -5 -5 -10 -11 -10 -5
0 -7 5 -4 10 3 6 8 10 11 10 2 0 4 -4 4 -10z m130 -61 c0 8 3 12 6 9 3 -3 2
-23 -2 -44 -7 -36 -8 -37 -15 -14 -4 14 -7 34 -8 45 -1 16 1 17 9 5 8 -12 10
-12 10 -1z m90 -105 c-43 -91 -50 -73 -9 22 19 43 35 70 37 61 2 -10 -11 -47
-28 -83z m-189 39 c34 -77 39 -93 31 -93 -8 1 -62 111 -62 128 0 24 11 11 31
-35z m-115 -50 c-11 -11 -17 4 -9 23 7 18 8 18 11 1 2 -10 1 -21 -2 -24z m434
17 c0 -11 -4 -20 -10 -20 -5 0 -10 9 -10 20 0 11 5 20 10 20 6 0 10 -9 10 -20z
m-366 -36 c9 -3 16 -13 16 -21 0 -10 -6 -13 -16 -9 -9 3 -18 6 -20 6 -2 0 -4
7 -4 15 0 17 2 18 24 9z m304 -11 c-4 -22 -38 -30 -38 -10 0 14 13 24 33 26 5
1 7 -7 5 -16z m-359 -128 c7 -27 14 -59 18 -70 3 -13 2 -17 -5 -10 -10 10 -42
113 -42 136 0 27 18 -7 29 -56z m406 -18 c-17 -50 -44 -95 -32 -52 3 11 11 40
17 65 16 67 22 79 27 57 3 -9 -3 -41 -12 -70z m-275 58 c0 -9 -9 -15 -22 -15
-21 0 -21 0 -2 15 24 18 24 18 24 0z m170 -10 c0 -3 -9 -5 -20 -5 -11 0 -20 7
-20 15 0 13 4 14 20 5 11 -6 20 -13 20 -15z m60 -31 c0 -19 -9 -56 -21 -80
-19 -43 -22 -45 -38 -30 -10 9 -28 16 -40 16 -17 0 -22 5 -19 22 4 29 37 36
55 12 14 -18 15 -18 29 0 8 11 14 39 14 64 0 26 4 41 10 37 6 -3 10 -22 10
-41z m-310 -3 c0 -24 7 -46 17 -56 15 -16 18 -16 28 -1 13 18 44 22 47 6 4
-28 2 -33 -16 -36 -10 -1 -23 -7 -29 -13 -17 -17 -25 -13 -41 17 -20 38 -32
122 -17 122 6 0 11 -17 11 -39z m-161 -60 c13 -8 13 -12 1 -26 -13 -16 -15
-16 -27 1 -20 27 -3 43 26 25z m621 -31 c0 -11 -7 -20 -15 -20 -8 0 -15 9 -15
20 0 11 7 20 15 20 8 0 15 -9 15 -20z m-688 -92 c-9 -9 -12 -7 -12 12 0 19 3
21 12 12 9 -9 9 -15 0 -24z m766 -31 c-3 -14 -6 -14 -22 -2 -12 9 -16 20 -12
31 6 16 8 16 22 2 9 -9 14 -23 12 -31z m-742 -123 l2 -96 -51 -61 c-29 -34
-92 -110 -140 -169 -49 -60 -91 -108 -93 -108 -3 0 12 33 34 73 21 39 72 135
112 212 40 77 77 144 81 149 5 6 9 15 9 22 0 21 31 86 38 80 3 -4 7 -50 8
-102z m750 67 c17 -28 31 -37 83 -50 19 -5 27 -21 48 -86 13 -44 39 -129 58
-190 71 -229 71 -229 -93 75 -20 36 -45 81 -57 100 -11 19 -38 68 -59 108 -34
66 -35 72 -17 72 11 0 27 -12 37 -29z m-386 -47 c0 -14 -14 -33 -21 -28 -15 9
-10 31 6 31 8 0 15 -1 15 -3z m210 -243 c22 -101 39 -185 37 -187 -7 -7 -117
326 -117 354 0 15 3 38 7 51 l6 25 13 -30 c7 -16 31 -112 54 -213z m-120 84
c1 -24 -74 -377 -78 -367 -2 7 3 92 12 190 15 160 15 182 1 215 -8 20 -15 40
-15 44 0 11 80 -70 80 -82z"/>
<path d="M1543 2862 c-22 -72 -63 -337 -73 -477 -5 -77 -10 -213 -10 -302 l0
-161 33 -21 c17 -11 39 -26 48 -32 17 -13 22 -10 95 49 21 17 21 20 13 252 -7
219 -24 397 -51 547 -21 113 -20 58 1 -89 23 -156 41 -412 41 -578 l0 -105
-40 -22 c-21 -13 -41 -23 -44 -23 -12 0 -6 928 5 932 7 2 8 15 2 36 l-8 32
-12 -38z"/>
<path d="M1081 2764 c0 -11 3 -14 6 -6 3 7 2 16 -1 19 -3 4 -6 -2 -5 -13z"/>
<path d="M1081 2714 c0 -11 3 -14 6 -6 3 7 2 16 -1 19 -3 4 -6 -2 -5 -13z"/>
<path d="M1351 2704 c0 -11 3 -14 6 -6 3 7 2 16 -1 19 -3 4 -6 -2 -5 -13z"/>
<path d="M1073 2580 c0 -25 2 -35 4 -22 2 12 2 32 0 45 -2 12 -4 2 -4 -23z"/>
<path d="M1342 2550 c0 -19 2 -27 5 -17 2 9 2 25 0 35 -3 9 -5 1 -5 -18z"/>
<path d="M1064 2340 c0 -69 1 -97 3 -62 2 34 2 90 0 125 -2 34 -3 6 -3 -63z"/>
<path d="M1334 2235 c0 -60 1 -84 3 -52 2 32 2 81 0 110 -2 29 -3 3 -3 -58z"/>
<path d="M1333 2045 c0 -22 2 -30 4 -17 2 12 2 30 0 40 -3 9 -5 -1 -4 -23z"/>
<path d="M1003 855 c0 -22 2 -30 4 -17 2 12 2 30 0 40 -3 9 -5 -1 -4 -23z"/>
<path d="M992 780 c0 -19 2 -27 5 -17 2 9 2 25 0 35 -3 9 -5 1 -5 -18z"/>
<path d="M982 705 c0 -16 2 -22 5 -12 2 9 2 23 0 30 -3 6 -5 -1 -5 -18z"/>
<path d="M973 625 c0 -22 2 -30 4 -17 2 12 2 30 0 40 -3 9 -5 -1 -4 -23z"/>
</g>
</svg>
