<?xml version="1.0" standalone="no"?>
<!DOCTYPE svg PUBLIC "-//W3C//DTD SVG 20010904//EN"
 "http://www.w3.org/TR/2001/REC-SVG-20010904/DTD/svg10.dtd">
<svg version="1.0" xmlns="http://www.w3.org/2000/svg"
 width="244.000000pt" height="305.000000pt" viewBox="0 0 244.000000 305.000000"
 preserveAspectRatio="xMidYMid meet">
<metadata>
Created by potrace 1.16, written by Peter Selinger 2001-2019
</metadata>
<g transform="translate(0.000000,305.000000) scale(0.100000,-0.100000)"
fill="#000000" stroke="none">
<path d="M937 2890 c-39 -147 -67 -401 -77 -689 l-9 -264 45 -41 c33 -30 44
-46 39 -58 -6 -16 -10 -16 -38 8 -24 20 -37 24 -61 20 -38 -8 -52 -22 -61 -63
-7 -33 -6 -33 33 -33 73 0 130 -74 86 -111 -12 -10 -14 -24 -10 -63 6 -47 5
-52 -16 -61 -17 -7 -24 -20 -26 -48 -2 -20 -7 -35 -12 -32 -5 3 -18 -7 -30
-22 -17 -22 -21 -38 -18 -82 2 -34 -1 -55 -8 -58 -30 -10 -32 111 -2 172 22
44 22 45 2 60 -27 21 -87 19 -107 -3 -21 -23 -21 -51 -2 -122 8 -30 15 -79 15
-108 0 -44 -4 -57 -29 -83 -25 -26 -28 -35 -20 -56 5 -14 8 -27 6 -29 -9 -9
-312 -133 -316 -129 -2 3 -2 7 0 8 21 18 261 188 295 210 49 32 50 36 29 122
-8 33 -15 77 -15 98 0 21 -5 37 -11 37 -9 0 -10 -26 -6 -91 l6 -91 -27 7 c-25
6 -41 -7 -199 -172 -94 -98 -169 -180 -167 -182 2 -2 21 3 41 12 112 46 366
138 370 133 3 -3 -11 -31 -31 -62 -19 -32 -34 -60 -32 -62 3 -2 49 21 104 52
55 31 107 56 115 56 17 0 42 -63 33 -79 -4 -5 -19 -12 -35 -16 -32 -7 -18 36
-135 -399 -25 -92 -46 -173 -46 -180 1 -12 27 17 105 119 30 39 74 97 99 129
26 33 46 54 46 47 0 -7 -9 -65 -20 -128 -24 -131 -23 -159 2 -111 10 18 60
114 112 213 89 171 94 182 89 228 -6 47 -5 47 23 47 30 0 69 -21 91 -50 14
-17 17 -50 6 -50 -5 0 -16 -12 -26 -26 -21 -28 -23 -8 64 -493 16 -89 29 -168
29 -174 0 -39 16 38 66 320 l56 321 -27 36 c-26 34 -27 39 -14 62 16 30 57 54
94 54 25 0 25 -2 24 -57 -1 -54 4 -67 76 -203 174 -325 169 -319 136 -152 -29
146 -33 172 -23 172 5 0 14 -10 19 -22 10 -21 115 -157 184 -238 l29 -35 -6
30 c-5 23 -73 282 -133 505 -4 15 -20 31 -39 39 -34 15 -39 32 -22 75 l9 26
38 -18 c21 -9 79 -41 130 -69 51 -29 94 -53 97 -53 3 0 -14 32 -39 72 -24 39
-43 73 -42 74 1 2 80 -26 175 -62 94 -35 177 -64 183 -64 12 0 -10 25 -190
218 -104 112 -118 123 -143 118 l-28 -5 6 92 c5 62 3 89 -4 82 -5 -5 -13 -54
-17 -108 l-7 -98 39 7 39 6 122 -128 c66 -71 119 -130 117 -133 -5 -4 -234
143 -296 191 -51 39 -67 92 -50 166 23 98 25 137 6 155 -31 31 -115 16 -115
-21 0 -9 9 -32 20 -50 32 -52 23 -152 -14 -152 -10 0 -12 13 -8 49 5 52 -15
132 -28 111 -4 -7 -10 5 -14 30 -3 23 -13 43 -21 45 -8 3 -21 7 -29 9 -11 4
-12 13 -6 43 7 28 5 44 -5 60 -22 33 -18 57 15 93 23 25 36 31 62 28 27 -2 34
1 36 18 8 54 -68 94 -114 59 -26 -20 -34 -19 -34 4 0 11 16 32 38 48 20 15 37
27 37 28 0 0 -2 61 -5 135 l-6 135 -2 -121 -2 -122 -34 -26 c-19 -14 -37 -26
-40 -26 -3 0 -6 212 -6 471 0 356 3 468 12 463 8 -5 9 -2 5 10 -4 10 -7 27 -7
39 0 48 -19 -10 -36 -114 -10 -60 -20 -107 -22 -104 -2 2 -10 54 -17 115 -8
62 -17 115 -21 119 -4 3 -3 -21 1 -54 4 -33 4 -257 0 -498 -6 -364 -10 -436
-21 -425 -7 7 -18 56 -25 108 -6 52 -12 97 -14 98 -5 5 -25 -68 -26 -93 0 -11
-7 3 -14 30 -11 45 -13 47 -14 17 -1 -19 -5 -31 -11 -27 -5 3 -10 43 -10 88 0
97 -14 229 -37 347 -19 99 -28 123 -36 94 -28 -97 -57 -319 -57 -441 0 -49 -4
-83 -10 -83 -5 0 -10 10 -10 23 0 34 -19 0 -21 -38 -1 -28 -2 -27 -11 10 -10
44 -21 178 -38 451 -9 153 -34 382 -42 390 -2 1 -2 -154 -2 -344 2 -336 -4
-351 -20 -57 -4 61 -11 128 -16 150 -5 22 -11 49 -14 60 -2 11 -2 -27 1 -85 2
-58 9 -124 15 -147 6 -23 11 -151 12 -285 1 -241 1 -243 -20 -246 -12 -2 -24
-12 -27 -24 -3 -11 -10 -17 -16 -13 -13 7 -16 941 -3 947 4 2 5 17 1 33 -6 30
-6 30 -12 5z m350 -862 c-2 -35 -3 -9 -3 57 0 66 1 94 3 63 2 -32 2 -86 0
-120z m-247 -118 c0 -5 -4 -10 -10 -10 -5 0 -10 5 -10 10 0 6 5 10 10 10 6 0
10 -4 10 -10z m-31 -23 c13 -16 5 -27 -21 -27 -18 0 -25 20 -11 33 10 10 19 8
32 -6z m477 -16 c-10 -16 -36 -13 -36 3 0 17 21 27 34 16 4 -5 5 -13 2 -19z
m-401 8 c10 -15 -1 -23 -20 -15 -9 3 -13 10 -10 16 8 13 22 13 30 -1z m335 -4
c0 -8 -7 -15 -15 -15 -8 0 -15 7 -15 15 0 8 7 15 15 15 8 0 15 -7 15 -15z
m-304 -141 c-14 -13 -20 -14 -29 -5 -9 10 -8 16 7 27 27 19 45 1 22 -22z m274
10 c0 -7 -5 -16 -10 -19 -13 -8 -43 22 -36 34 8 13 46 1 46 -15z m-373 -58
c-6 -17 -27 -18 -33 -2 -3 9 -3 24 1 34 6 16 7 16 21 -3 8 -10 13 -24 11 -29z
m471 8 c-5 -28 -28 -29 -28 -1 0 13 3 27 7 31 10 10 25 -10 21 -30z m-191 -46
c-3 -7 -5 -2 -5 12 0 14 2 19 5 13 2 -7 2 -19 0 -25z m-146 2 c5 0 9 -8 9 -19
0 -10 9 -21 20 -24 11 -3 27 -21 35 -41 9 -20 17 -36 20 -36 2 0 12 16 21 36
10 20 26 39 36 42 10 2 18 12 18 22 0 22 24 32 56 24 21 -5 25 -12 22 -38 -3
-30 -5 -31 -49 -31 -57 0 -74 -13 -89 -73 l-12 -47 -19 49 c-24 65 -30 69 -86
70 -46 1 -48 2 -51 33 -3 32 14 46 46 37 8 -2 18 -4 23 -4z m-186 -58 c3 -16
24 -59 45 -97 46 -77 51 -99 16 -66 -33 31 -86 133 -86 165 0 35 17 33 25 -2z
m100 -58 c4 -25 2 -23 -15 11 -11 22 -19 49 -19 60 0 15 4 12 14 -11 8 -17 16
-44 20 -60z m371 42 c-4 -18 -13 -39 -21 -46 -18 -15 -18 -13 -4 31 6 19 13
40 15 48 9 27 16 1 10 -33z m69 -55 c-25 -54 -75 -118 -75 -95 0 5 21 52 47
104 35 69 49 89 51 73 2 -13 -9 -49 -23 -82z m-335 -59 c-1 -13 -6 -11 -25 11
-14 15 -25 36 -25 45 1 13 6 11 25 -11 14 -15 25 -36 25 -45z m180 54 c0 -8
-11 -28 -25 -43 -22 -26 -24 -26 -25 -7 0 11 9 30 20 42 24 26 30 27 30 8z
m210 -72 c12 -30 11 -98 0 -134 -10 -30 -13 -21 -14 40 -1 25 -5 62 -10 83
-10 44 9 53 24 11z m-628 -56 c-2 -40 -8 -77 -12 -82 -15 -15 -23 81 -10 118
18 57 28 42 22 -36z m246 -22 c3 -15 1 -16 -17 -6 -12 6 -19 16 -15 21 9 15
28 5 32 -15z m152 13 c0 -12 -36 -30 -44 -22 -3 3 -1 11 4 18 11 13 40 16 40
4z m130 -77 c0 -21 -2 -24 -10 -12 -13 20 -13 53 0 45 6 -3 10 -18 10 -33z
m-440 -12 l-8 -35 -1 31 c-1 17 2 34 6 37 11 12 12 3 3 -33z m125 10 c12 0 16
-3 9 -8 -16 -10 -25 -45 -16 -58 4 -7 16 -13 27 -15 14 -3 20 -12 20 -29 0
-21 -4 -25 -25 -22 -14 2 -49 2 -78 2 -39 -1 -54 3 -58 15 -9 23 4 31 27 17
32 -20 41 -6 33 55 -7 55 -6 56 17 50 13 -4 33 -7 44 -7z m240 -45 c-5 -45 -4
-56 9 -61 9 -4 23 -1 31 6 18 15 30 7 22 -13 -4 -10 -23 -15 -62 -15 -31 0
-62 -5 -69 -11 -9 -7 -16 -7 -24 1 -20 20 -14 48 13 58 19 7 25 17 25 40 0 21
-5 30 -17 31 -10 1 -2 5 17 9 65 14 63 15 55 -45z m-567 3 c13 -13 17 -48 6
-48 -10 0 -33 33 -34 48 0 15 12 16 28 0z m683 -91 c-8 -8 -11 -7 -11 4 0 20
13 34 18 19 3 -7 -1 -17 -7 -23z m-511 -8 c0 -6 -4 -7 -10 -4 -5 3 -10 11 -10
16 0 6 5 7 10 4 6 -3 10 -11 10 -16z m-314 -36 c-11 -11 -19 6 -11 24 8 17 8
17 12 0 3 -10 2 -21 -1 -24z m220 -15 c24 -47 22 -160 -7 -287 -7 -30 -36 -82
-92 -158 -86 -120 -144 -192 -129 -158 5 11 57 120 116 243 68 142 106 234
106 255 0 17 -6 58 -14 89 -14 61 -6 67 20 16z m-162 24 c5 -9 -104 -125 -111
-118 -2 2 15 31 38 65 39 57 61 73 73 53z m861 -44 c-6 -74 12 -119 53 -133
19 -6 37 -17 42 -25 12 -23 110 -383 110 -405 0 -11 -54 88 -120 220 -110 220
-120 244 -120 295 0 48 18 100 35 100 3 0 2 -24 0 -52z m214 -30 c35 -38 61
-68 57 -68 -12 0 -176 102 -176 110 0 13 25 31 40 28 8 -2 44 -33 79 -70z
m-574 -118 c3 0 12 15 20 33 9 19 14 25 15 14 0 -18 -27 -77 -35 -77 -8 0 -35
59 -35 77 1 11 6 5 15 -14 8 -18 17 -33 20 -33z m266 -57 c4 -21 35 -117 68
-213 33 -96 58 -176 56 -178 -4 -4 -75 134 -152 291 -31 64 -32 71 -22 118 10
46 13 50 26 36 9 -8 19 -32 24 -54z m-511 40 c-1 -10 -7 -29 -14 -42 l-13 -24
-11 33 c-14 37 -9 50 19 50 12 0 19 -7 19 -17z m-60 -62 c0 -10 -8 -25 -17
-32 -15 -12 -16 -12 -10 4 4 10 7 28 7 38 0 11 5 17 10 14 6 -3 10 -14 10 -24z
m399 -85 c0 -6 -6 -40 -13 -76 l-14 -65 2 92 c1 77 3 90 14 76 6 -9 12 -22 11
-27z m-385 12 c-37 -118 -93 -269 -94 -252 -1 47 33 182 58 227 26 49 49 64
36 25z m353 -190 c-3 -8 -6 -5 -6 6 -1 11 2 17 5 13 3 -3 4 -12 1 -19z"/>
<path d="M962 2815 c0 -11 4 -33 8 -50 7 -27 8 -27 8 -5 0 14 -4 36 -8 50 -6
20 -8 21 -8 5z"/>
<path d="M1541 2784 c0 -11 3 -14 6 -6 3 7 2 16 -1 19 -3 4 -6 -2 -5 -13z"/>
<path d="M1551 2739 c0 -9 6 -60 14 -113 8 -54 17 -167 21 -252 4 -85 11 -154
16 -154 11 0 4 133 -18 325 -15 132 -31 223 -33 194z"/>
<path d="M1392 2560 c0 -19 2 -27 5 -17 2 9 2 25 0 35 -3 9 -5 1 -5 -18z"/>
<path d="M1383 2410 c0 -25 2 -35 4 -22 2 12 2 32 0 45 -2 12 -4 2 -4 -23z"/>
<path d="M983 2285 c0 -44 2 -61 4 -37 2 23 2 59 0 80 -2 20 -4 1 -4 -43z"/>
<path d="M1382 2340 c0 -14 2 -19 5 -12 2 6 2 18 0 25 -3 6 -5 1 -5 -13z"/>
<path d="M1373 2185 c0 -27 2 -38 4 -22 2 15 2 37 0 50 -2 12 -4 0 -4 -28z"/>
</g>
</svg>
