<?xml version="1.0" standalone="no"?>
<!DOCTYPE svg PUBLIC "-//W3C//DTD SVG 20010904//EN"
 "http://www.w3.org/TR/2001/REC-SVG-20010904/DTD/svg10.dtd">
<svg version="1.0" xmlns="http://www.w3.org/2000/svg"
 width="244.000000pt" height="305.000000pt" viewBox="0 0 244.000000 305.000000"
 preserveAspectRatio="xMidYMid meet">
<metadata>
Created by potrace 1.16, written by Peter Selinger 2001-2019
</metadata>
<g transform="translate(0.000000,305.000000) scale(0.100000,-0.100000)"
fill="#000000" stroke="none">
<path d="M881 2875 c-20 -72 -59 -298 -70 -410 -7 -60 -14 -208 -18 -327 l-6
-217 29 -11 c16 -6 41 -23 56 -37 l26 -25 22 25 c12 14 36 31 53 38 l30 13 -7
228 c-7 232 -22 392 -52 550 -26 131 -29 98 -5 -49 33 -206 63 -675 44 -698
-13 -16 -71 -55 -83 -55 -7 0 -10 155 -10 482 0 292 4 478 9 473 5 -6 11 -21
14 -35 l4 -25 2 26 c0 15 -5 42 -13 60 l-14 33 -11 -39z"/>
<path d="M1566 2877 c-52 -186 -81 -426 -92 -749 l-7 -207 34 -14 c19 -8 40
-21 48 -30 18 -23 22 -22 81 15 l51 32 -2 180 c-3 194 -10 297 -34 471 -16
113 -24 149 -31 143 -2 -2 1 -31 6 -64 33 -195 62 -627 46 -687 -3 -15 -12
-27 -20 -27 -7 0 -21 -9 -31 -20 -45 -50 -45 -48 -45 443 0 254 4 477 9 494 5
18 6 35 1 38 -4 3 -11 -5 -14 -18z"/>
<path d="M1602 2770 c0 -19 2 -27 5 -17 2 9 2 25 0 35 -3 9 -5 1 -5 -18z"/>
<path d="M1281 2760 c-2 -14 -3 -88 -3 -165 l1 -140 -18 68 c-11 38 -21 71
-24 74 -3 2 -12 -17 -20 -44 l-15 -48 -3 120 c-3 115 -3 113 -10 -70 -4 -104
-12 -224 -17 -265 -6 -41 -14 -155 -18 -253 -4 -98 -10 -180 -14 -182 -4 -2
-12 28 -19 68 -35 217 -49 229 -72 61 -14 -95 -14 -94 47 -130 15 -9 19 -23
19 -62 0 -60 -16 -83 -45 -64 -30 19 -40 15 -40 -17 0 -32 22 -61 46 -61 8 0
25 11 38 25 32 34 39 31 31 -14 -6 -34 -4 -40 14 -46 15 -5 21 -15 21 -37 0
-29 -1 -30 -17 -16 -10 9 -27 18 -38 20 -23 5 -75 -18 -75 -32 0 -5 12 -12 28
-16 48 -11 72 -32 72 -63 0 -40 -8 -43 -50 -15 -61 41 -129 131 -130 172 0 13
-9 35 -20 49 -20 25 -20 25 1 54 23 33 56 44 99 35 28 -5 30 -3 30 24 0 33
-29 65 -66 74 -37 10 -77 -14 -98 -58 -18 -36 -21 -38 -30 -21 -31 53 -61 76
-103 78 -53 2 -85 -24 -81 -66 3 -27 6 -29 49 -31 51 -2 73 -15 95 -58 13 -26
13 -29 -6 -45 -24 -21 -25 -55 -5 -112 12 -36 32 -68 93 -151 12 -16 9 -23
-22 -57 -51 -57 -55 -85 -18 -123 31 -30 64 -38 92 -20 12 7 12 14 2 43 -30
84 -11 102 81 74 53 -17 66 -24 61 -36 -10 -23 -7 -55 6 -59 13 -5 13 -42 0
-62 -8 -12 -10 -12 -11 5 0 11 -7 -2 -14 -30 l-14 -50 2 43 3 42 -43 0 c-23 0
-58 -8 -77 -17 -44 -21 -72 -10 -112 43 -22 29 -29 49 -30 88 -2 67 -14 138
-27 154 -14 18 -51 15 -78 -7 -42 -34 -33 -81 41 -206 91 -157 91 -157 94
-248 2 -45 6 -93 10 -107 5 -21 -8 -42 -95 -140 -130 -147 -181 -207 -190
-222 -5 -7 -11 -10 -14 -6 -4 3 38 84 93 180 181 315 178 306 142 419 -14 45
-35 81 -70 123 -84 97 -99 159 -55 224 30 44 32 68 6 82 -29 15 -93 12 -119
-6 -28 -19 -28 -52 -2 -130 11 -32 20 -79 20 -103 0 -37 -5 -48 -35 -76 -33
-30 -35 -34 -24 -59 7 -14 10 -28 8 -29 -9 -8 -350 -127 -362 -127 -12 0 32
39 45 40 3 0 62 34 130 76 67 42 142 88 165 103 48 29 49 33 28 111 -8 30 -15
71 -15 90 0 19 -5 42 -11 50 -7 11 -9 -13 -7 -83 l4 -97 -33 6 c-36 7 -21 18
-207 -150 -151 -136 -206 -189 -206 -197 0 -4 24 1 52 11 29 10 140 46 245 80
178 57 193 64 193 85 0 35 16 39 68 20 57 -21 100 -58 119 -103 17 -40 7 -57
-36 -65 -31 -7 -28 1 -116 -282 -25 -82 -58 -183 -71 -223 -14 -41 -23 -76
-21 -78 3 -3 44 39 92 93 49 54 125 137 169 184 143 152 160 176 145 200 -5 7
-9 26 -9 42 l0 27 89 0 c75 0 93 -3 121 -22 56 -39 59 -53 21 -92 l-33 -34 21
-107 c12 -59 22 -135 22 -169 1 -47 3 -54 9 -31 l7 30 7 -40 c4 -22 14 -69 21
-105 8 -36 22 -103 32 -149 l17 -84 13 49 c7 27 25 110 40 184 23 114 29 130
34 100 5 -26 7 -17 8 36 0 40 10 120 22 179 l21 107 -33 34 c-38 39 -35 53 21
92 28 19 46 22 128 22 l94 0 -6 -27 c-20 -78 -22 -73 65 -168 45 -49 107 -117
137 -150 110 -120 175 -186 179 -181 4 4 -52 193 -97 326 -10 30 -30 94 -45
142 -26 87 -26 88 -66 98 -38 10 -40 13 -34 38 17 69 90 130 161 135 25 2 29
-2 32 -25 3 -24 12 -29 135 -68 73 -23 179 -58 236 -76 57 -19 108 -33 112
-32 8 3 -285 274 -354 328 -20 16 -35 20 -57 15 l-30 -7 7 91 c4 59 2 91 -4
91 -9 0 -23 -110 -23 -182 0 -29 1 -29 44 -23 41 7 46 5 97 -41 30 -26 56 -50
59 -53 3 -3 44 -42 93 -85 48 -43 86 -81 84 -83 -4 -3 -144 73 -318 173 -109
63 -128 112 -89 224 25 70 25 95 0 120 -34 34 -140 21 -140 -17 0 -10 12 -36
26 -57 23 -33 25 -45 20 -84 -6 -47 -17 -66 -95 -167 -37 -47 -45 -65 -49
-110 -2 -29 1 -68 7 -87 10 -29 19 -37 58 -49 l46 -15 69 -204 c38 -113 67
-212 66 -220 -3 -13 -29 28 -115 180 -11 19 -56 94 -99 165 -104 173 -105 188
-16 333 98 158 108 197 65 245 -19 20 -66 23 -80 5 -11 -14 -23 -87 -26 -158
-2 -35 -10 -56 -35 -87 -40 -51 -61 -59 -104 -40 -54 24 -68 27 -95 21 -21 -6
-24 -11 -21 -36 3 -16 1 -31 -3 -33 -4 -3 -12 28 -18 67 -7 40 -13 84 -16 98
-3 23 2 27 64 46 37 11 72 19 79 16 15 -5 15 -49 1 -91 -6 -18 -8 -35 -5 -39
14 -13 81 0 103 20 33 31 28 61 -17 114 -36 40 -39 49 -28 64 104 142 136 235
88 260 -29 16 -25 38 16 76 29 28 43 34 80 34 40 0 44 2 44 25 0 39 -33 65
-84 65 -37 0 -48 -5 -70 -31 -14 -17 -26 -37 -26 -45 0 -26 -18 -14 -37 24
-31 63 -93 76 -142 31 -12 -12 -21 -32 -21 -49 0 -29 1 -30 43 -24 36 5 47 2
69 -17 37 -34 44 -65 18 -79 -13 -7 -20 -21 -20 -38 0 -50 -70 -140 -142 -185
l-28 -17 0 43 c0 44 0 45 45 57 48 13 52 19 33 38 -16 16 -90 16 -106 0 -9 -9
-12 -6 -12 14 0 18 7 27 21 31 19 5 21 11 15 46 -7 47 1 51 32 16 33 -38 58
-32 80 19 15 33 1 59 -20 38 -15 -15 -45 -15 -54 0 -4 6 -7 32 -6 57 0 40 5
50 37 77 l38 31 -8 59 c-10 90 -26 155 -35 149 -4 -3 -13 -35 -20 -72 -25
-143 -32 -173 -41 -173 -5 0 -9 52 -9 118 -1 64 -6 162 -11 217 -6 55 -14 210
-18 345 -4 135 -9 234 -10 220z m-3 -643 c0 -125 2 -230 6 -234 3 -3 6 54 7
128 0 74 2 130 4 124 8 -24 12 -274 4 -269 -5 3 -9 -2 -9 -10 0 -13 -16 -23
-21 -13 -5 9 -20 316 -23 482 l-5 200 19 -90 c16 -75 19 -128 18 -318z m-9
-427 c0 -45 -5 -71 -15 -85 -16 -19 -16 -19 -8 5 5 14 8 77 7 140 0 93 1 104
7 60 4 -30 8 -84 9 -120z m41 3 c0 -28 -4 -55 -10 -58 -6 -4 -10 21 -10 67 0
51 3 68 10 58 5 -8 10 -38 10 -67z m-390 -110 c18 -52 118 -153 179 -183 55
-27 70 -55 24 -44 -107 25 -233 157 -233 244 0 32 15 23 30 -17z m634 -60
c-48 -83 -129 -148 -206 -167 -42 -10 -36 19 8 36 60 24 150 108 186 173 31
56 33 58 36 32 2 -17 -7 -46 -24 -74z m-336 -8 l1 -20 -9 20 c-5 11 -8 31 -8
45 l0 25 8 -25 c4 -14 8 -34 8 -45z m58 45 c0 -11 -4 -20 -8 -20 -4 0 -8 9 -8
20 0 11 4 20 8 20 4 0 8 -9 8 -20z m-39 -82 c-2 -13 -4 -5 -4 17 -1 22 1 32 4
23 2 -10 2 -28 0 -40z m20 30 c-3 -8 -6 -5 -6 6 -1 11 2 17 5 13 3 -3 4 -12 1
-19z m-90 -175 c-2 -21 -4 -6 -4 32 0 39 2 55 4 38 2 -18 2 -50 0 -70z m140
-25 c-3 -8 -6 -5 -6 6 -1 11 2 17 5 13 3 -3 4 -12 1 -19z m-10 -130 c-3 -8 -6
-5 -6 6 -1 11 2 17 5 13 3 -3 4 -12 1 -19z m40 -15 c-3 -10 -5 -4 -5 12 0 17
2 24 5 18 2 -7 2 -21 0 -30z m-168 -106 c-1 -17 -2 -18 -6 -4 -2 9 -9 17 -14
17 -6 0 -7 5 -4 10 10 16 25 1 24 -23z m191 23 c0 -5 -2 -10 -4 -10 -3 0 -8 5
-11 10 -3 6 -1 10 4 10 6 0 11 -4 11 -10z m-37 -12 c-6 -7 -13 -20 -16 -28 -3
-9 -6 -3 -6 13 -1 19 4 27 15 27 12 0 14 -4 7 -12z m-36 -95 c-3 -10 -5 -2 -5
17 0 19 2 27 5 18 2 -10 2 -26 0 -35z m-50 -55 c-3 -8 -6 -5 -6 6 -1 11 2 17
5 13 3 -3 4 -12 1 -19z m24 -5 c-8 -15 -10 -15 -11 -2 0 17 10 32 18 25 2 -3
-1 -13 -7 -23z m36 -157 c-3 -53 -2 -69 3 -46 6 23 7 3 4 -59 -3 -82 -16 -161
-54 -321 -4 -19 -6 92 -3 250 2 157 4 291 3 299 0 8 11 2 26 -14 25 -27 26
-33 21 -109z m40 -22 l-15 -49 -1 65 c-1 59 0 63 15 48 14 -14 14 -20 1 -64z"/>
<path d="M1282 800 c0 -14 2 -19 5 -12 2 6 2 18 0 25 -3 6 -5 1 -5 -13z"/>
</g>
</svg>
