<?xml version="1.0" standalone="no"?>
<!DOCTYPE svg PUBLIC "-//W3C//DTD SVG 20010904//EN"
 "http://www.w3.org/TR/2001/REC-SVG-20010904/DTD/svg10.dtd">
<svg version="1.0" xmlns="http://www.w3.org/2000/svg"
 width="244.000000pt" height="305.000000pt" viewBox="0 0 244.000000 305.000000"
 preserveAspectRatio="xMidYMid meet">
<metadata>
Created by potrace 1.16, written by Peter Selinger 2001-2019
</metadata>
<g transform="translate(0.000000,305.000000) scale(0.100000,-0.100000)"
fill="#000000" stroke="none">
<path d="M1542 2808 c-47 -221 -66 -398 -78 -699 l-7 -177 43 -28 c24 -16 48
-33 55 -38 7 -6 30 4 65 28 l54 37 -3 157 c-2 203 -17 404 -36 517 -27 154
-56 290 -64 298 -4 4 -17 -39 -29 -95z m58 -74 c33 -190 50 -364 56 -579 l6
-200 -38 -25 c-22 -14 -42 -26 -46 -28 -5 -2 -8 213 -8 479 0 265 2 480 5 477
3 -2 14 -58 25 -124z"/>
<path d="M895 2889 c-2 -8 -13 -54 -24 -104 -44 -204 -71 -476 -71 -727 l0
-137 33 -17 c17 -9 39 -26 48 -37 l17 -21 35 31 c20 17 45 34 56 38 18 5 21
14 21 63 0 76 -18 433 -26 502 -8 78 -54 344 -61 350 -3 3 -3 -11 1 -30 20
-114 47 -323 56 -434 14 -175 13 -426 -1 -426 -6 0 -22 -9 -36 -20 -14 -11
-30 -20 -34 -20 -5 0 -9 217 -9 483 0 329 4 477 10 467 8 -11 9 -7 4 15 -8 37
-12 42 -19 24z"/>
<path d="M1141 2855 c-1 -22 -2 -245 -2 -495 0 -254 -4 -444 -9 -430 -4 14 -9
68 -11 120 -2 82 -3 88 -9 45 -7 -50 -7 -50 -15 -17 -10 42 -20 31 -34 -36
-18 -87 -15 -155 9 -170 11 -7 20 -23 20 -38 l0 -25 -23 26 c-17 20 -32 27
-60 27 -46 0 -65 -15 -87 -67 l-17 -40 -15 35 c-22 51 -52 74 -96 73 -42 -1
-85 -42 -80 -77 2 -17 9 -20 35 -18 37 4 88 -20 103 -47 15 -29 12 -58 -6 -65
-38 -14 9 -157 77 -233 l29 -34 -34 -42 c-19 -23 -37 -54 -41 -68 -10 -39 28
-79 82 -86 l42 -5 11 40 c8 31 14 40 26 35 14 -5 15 -3 3 18 l-12 24 -13 -30
c-7 -16 -14 -37 -14 -45 -2 -29 -19 24 -19 63 -1 34 1 37 27 37 51 0 58 -12
44 -77 -12 -57 -49 -112 -59 -85 -3 8 -10 5 -22 -9 -16 -20 -20 -21 -47 -8
-16 8 -43 36 -61 62 -27 40 -30 51 -21 67 9 14 9 28 0 58 -7 22 -12 50 -12 64
0 48 -48 64 -90 30 -16 -13 -22 -29 -22 -55 0 -39 7 -55 96 -212 54 -97 56
-102 56 -175 0 -41 4 -90 9 -107 9 -31 5 -37 -119 -185 -70 -84 -140 -164
-156 -178 l-27 -25 20 35 c11 19 36 64 55 100 39 72 69 126 135 245 25 44 47
95 50 113 10 60 -24 157 -83 232 -30 38 -58 80 -64 95 -18 48 -12 103 17 146
l27 41 -23 19 c-30 25 -102 26 -123 2 -25 -30 -26 -45 -2 -132 31 -112 18
-174 -40 -194 -8 -3 -8 -13 1 -35 6 -18 8 -34 5 -36 -12 -7 -199 -76 -207 -76
-3 0 -36 -12 -71 -26 -36 -14 -68 -24 -70 -21 -3 3 71 53 165 111 234 147 216
128 197 206 -8 36 -18 88 -22 115 -10 75 -22 18 -14 -65 4 -36 5 -68 3 -72 -2
-4 -17 -5 -33 -2 -26 6 -41 -4 -142 -97 -164 -150 -259 -242 -255 -246 4 -3
262 78 392 124 72 25 80 31 83 56 4 35 18 34 93 -3 48 -25 64 -39 81 -75 18
-36 19 -46 8 -59 -7 -9 -20 -16 -30 -16 -22 0 -32 -14 -53 -70 -22 -62 -114
-360 -137 -444 l-19 -69 34 34 c19 19 108 117 200 219 179 200 168 179 148
268 -5 22 -4 22 86 22 80 0 91 -2 91 -17 0 -15 2 -16 10 -3 9 13 11 13 20 0 5
-8 7 -24 5 -35 -6 -27 -32 -196 -42 -265 l-7 -55 -8 40 c-4 24 -4 12 -1 -29 3
-48 2 -66 -6 -62 -7 5 -11 -10 -10 -46 l1 -53 19 75 c45 177 52 200 58 200 4
0 7 -8 8 -17 2 -23 104 -527 107 -531 2 -1 27 114 56 255 29 142 56 266 59
277 5 12 18 -22 39 -105 18 -68 32 -130 32 -138 0 -8 2 -12 4 -10 3 2 -4 103
-14 224 -11 121 -20 237 -20 258 l0 37 91 0 92 0 -7 -27 c-3 -16 -8 -37 -11
-48 -4 -14 4 -33 27 -62 69 -84 360 -404 365 -399 3 2 -32 123 -77 268 -45
144 -85 271 -87 280 -3 10 -22 22 -44 28 -46 13 -49 27 -14 85 23 39 48 58
116 83 30 12 59 -1 59 -27 0 -14 25 -27 118 -58 235 -81 342 -115 353 -111 6
2 -11 23 -38 48 -26 24 -97 89 -158 145 -168 156 -170 158 -205 150 l-30 -7 7
91 c4 59 2 91 -4 91 -9 0 -23 -110 -23 -182 0 -29 1 -29 43 -23 l43 7 119
-110 c123 -112 173 -162 163 -162 -4 0 -37 18 -75 40 -37 21 -121 70 -187 107
-96 55 -122 75 -137 105 -24 47 -24 71 1 150 25 79 25 93 0 118 -35 35 -140
22 -140 -16 0 -9 12 -36 26 -61 26 -42 26 -47 15 -99 -9 -37 -26 -70 -56 -107
-82 -101 -98 -154 -75 -238 9 -31 16 -37 57 -50 l48 -15 67 -209 c38 -116 68
-217 68 -225 0 -8 -26 30 -58 85 -240 412 -232 397 -232 450 0 27 6 60 13 72
6 12 38 67 71 123 65 112 76 162 42 199 -21 23 -65 28 -84 9 -7 -7 -12 -30
-13 -53 0 -22 -4 -49 -8 -60 -5 -11 -5 -29 -1 -40 11 -29 -11 -75 -54 -113
-42 -36 -71 -41 -86 -13 -14 28 -13 31 15 31 33 0 81 25 89 45 12 32 5 54 -30
101 -41 53 -43 41 19 134 52 78 74 174 42 186 -24 10 -17 49 14 83 24 26 36
31 75 31 42 0 46 2 46 24 0 42 -32 71 -80 71 -36 0 -47 -6 -71 -35 -16 -19
-29 -40 -29 -47 0 -25 -16 -12 -34 27 -13 31 -25 42 -53 49 -44 12 -81 -2 -99
-37 l-11 -23 -5 26 c-4 20 1 30 23 45 25 19 27 24 23 73 -4 54 -23 145 -32
161 -7 13 -20 -22 -21 -57 -1 -16 -5 -26 -11 -22 -6 4 -11 104 -11 263 -1 141
-5 311 -9 377 -4 83 -8 -13 -10 -315 -3 -436 -15 -478 -21 -75 -2 143 -4 171
-9 115 -4 -46 -7 -59 -8 -35 -1 22 -13 85 -27 140 -14 55 -25 102 -26 105 -2
18 -24 -62 -44 -155 l-22 -110 -6 125 c-15 294 -24 432 -26 395z m130 -477
c24 -164 37 -512 20 -522 -6 -4 -11 -27 -11 -52 0 -25 4 -43 9 -40 14 9 23
-42 15 -89 -4 -31 -12 -45 -25 -48 -16 -4 -19 0 -18 31 1 24 3 29 6 14 7 -33
23 -16 23 24 0 21 -4 33 -10 29 -14 -9 -13 121 1 147 7 14 8 54 2 127 l-8 106
-5 -105 c-4 -82 -7 -42 -14 180 -4 156 -12 294 -16 306 -8 20 -3 40 8 30 2 -3
12 -64 23 -138z m-161 -631 c0 -22 -27 -34 -43 -18 -33 33 -51 -14 -21 -57 18
-27 40 -28 67 -4 20 16 20 16 14 -1 -4 -10 -7 -33 -7 -52 0 -28 -4 -33 -30
-38 -22 -5 -31 -14 -38 -38 l-8 -32 -27 32 c-14 18 -32 51 -38 74 -7 23 -18
49 -26 58 -20 24 -16 45 18 73 25 22 39 25 85 23 44 -2 54 -5 54 -20z m395 -1
c28 -28 32 -58 11 -75 -7 -6 -16 -28 -20 -49 -5 -36 -58 -112 -77 -112 -6 0
-9 8 -7 18 4 24 -19 52 -42 52 -20 0 -30 27 -30 79 0 30 2 32 13 19 6 -9 22
-19 34 -22 25 -8 53 25 53 62 0 19 -4 23 -17 17 -39 -16 -50 -16 -57 0 -10 26
-2 30 59 33 48 2 59 -1 80 -22z m-576 -163 c15 -41 33 -66 87 -126 20 -21 34
-45 31 -55 -3 -13 -16 -5 -58 38 -58 59 -89 112 -89 154 0 37 14 32 29 -11z
m218 5 c-3 -7 -5 -2 -5 12 0 14 2 19 5 13 2 -7 2 -19 0 -25z m180 0 c-3 -7 -5
-2 -5 12 0 14 2 19 5 13 2 -7 2 -19 0 -25z m248 0 c-10 -48 -47 -107 -99 -158
-42 -40 -46 -42 -46 -21 0 13 19 45 47 75 25 28 55 70 65 94 23 50 43 56 33
10z m-385 -9 c0 -10 -4 -19 -9 -19 -12 0 -23 29 -15 41 8 14 24 0 24 -22z
m109 -1 c-11 -20 -12 -20 -21 -3 -8 12 -7 20 3 26 20 12 30 0 18 -23z m-169
-74 c6 -14 10 -36 10 -50 0 -25 0 -25 -25 -7 -17 13 -24 28 -25 51 0 40 26 44
40 6z m250 -3 c0 -20 -8 -35 -22 -46 -22 -15 -23 -14 -26 9 -4 31 14 66 33 66
10 0 15 -10 15 -29z m-143 -18 c-3 -10 -5 -4 -5 12 0 17 2 24 5 18 2 -7 2 -21
0 -30z m180 -95 c-3 -7 -5 -2 -5 12 0 14 2 19 5 13 2 -7 2 -19 0 -25z m-330
-10 c-3 -7 -5 -2 -5 12 0 14 2 19 5 13 2 -7 2 -19 0 -25z m300 0 c-3 -8 -6 -5
-6 6 -1 11 2 17 5 13 3 -3 4 -12 1 -19z m-237 -9 c0 -24 -23 -21 -28 4 -2 10
3 17 12 17 10 0 16 -9 16 -21z m190 -4 c0 -8 -4 -15 -10 -15 -5 0 -10 7 -10
15 0 8 5 15 10 15 6 0 10 -7 10 -15z m-30 -56 c0 -5 -4 -9 -10 -9 -5 0 -10 7
-10 16 0 8 5 12 10 9 6 -3 10 -10 10 -16z m179 -16 c0 -21 -4 -47 -9 -58 -7
-18 -9 -17 -19 10 -6 17 -16 38 -21 47 -16 29 -12 38 20 38 28 0 30 -2 29 -37z
m-309 17 c0 -5 -4 -10 -10 -10 -5 0 -10 5 -10 10 0 6 5 10 10 10 6 0 10 -4 10
-10z m-76 -70 c3 -34 3 -46 -3 -30 -13 41 -21 104 -12 94 5 -5 12 -34 15 -64z
m313 48 c-3 -8 -6 -5 -6 6 -1 11 2 17 5 13 3 -3 4 -12 1 -19z m-43 -37 c-4
-23 -9 -40 -11 -37 -3 3 -2 23 2 46 4 23 9 39 11 37 3 -2 2 -23 -2 -46z m62
-78 c-8 -8 -26 44 -26 70 1 14 7 6 16 -21 9 -24 13 -46 10 -49z m-271 27 c22
18 30 -8 9 -31 -17 -19 -19 -19 -31 -3 -7 10 -13 27 -13 38 1 20 1 20 11 3 8
-14 14 -15 24 -7z m168 -12 c-6 -31 -24 -36 -43 -13 -14 17 -5 36 14 29 8 -3
17 0 21 6 11 17 14 8 8 -22z m24 -20 c-3 -8 -6 -5 -6 6 -1 11 2 17 5 13 3 -3
4 -12 1 -19z m-114 -239 c-4 -15 -8 -17 -14 -8 -6 11 4 28 18 29 0 0 -1 -9 -4
-21z m121 -94 l7 -60 -20 37 c-21 38 -27 79 -14 92 12 12 21 -8 27 -69z m-201
20 c-7 -21 -13 -19 -13 6 0 11 4 18 10 14 5 -3 7 -12 3 -20z m154 3 c-3 -8 -6
-5 -6 6 -1 11 2 17 5 13 3 -3 4 -12 1 -19z m19 -95 c4 -28 1 -55 -9 -80 -8
-21 -18 -58 -21 -83 -4 -25 -17 -92 -31 -150 l-24 -105 7 155 c4 85 7 203 6
263 l0 107 32 -31 c24 -23 35 -45 40 -76z m53 -80 c6 -39 10 -80 10 -90 -2
-25 -37 116 -38 152 -2 51 16 13 28 -62z"/>
<path d="M1321 2874 c0 -11 3 -14 6 -6 3 7 2 16 -1 19 -3 4 -6 -2 -5 -13z"/>
<path d="M1312 2690 c0 -19 2 -27 5 -17 2 9 2 25 0 35 -3 9 -5 1 -5 -18z"/>
<path d="M1123 2580 c0 -25 2 -35 4 -22 2 12 2 32 0 45 -2 12 -4 2 -4 -23z"/>
<path d="M1301 2484 c0 -11 3 -14 6 -6 3 7 2 16 -1 19 -3 4 -6 -2 -5 -13z"/>
<path d="M1113 2245 c0 -33 2 -45 4 -27 2 18 2 45 0 60 -2 15 -4 0 -4 -33z"/>
<path d="M1073 825 c0 -22 2 -30 4 -17 2 12 2 30 0 40 -3 9 -5 -1 -4 -23z"/>
<path d="M1063 710 c0 -25 2 -35 4 -22 2 12 2 32 0 45 -2 12 -4 2 -4 -23z"/>
</g>
</svg>
