<?xml version="1.0" standalone="no"?>
<!DOCTYPE svg PUBLIC "-//W3C//DTD SVG 20010904//EN"
 "http://www.w3.org/TR/2001/REC-SVG-20010904/DTD/svg10.dtd">
<svg version="1.0" xmlns="http://www.w3.org/2000/svg"
 width="244.000000pt" height="305.000000pt" viewBox="0 0 244.000000 305.000000"
 preserveAspectRatio="xMidYMid meet">
<metadata>
Created by potrace 1.16, written by Peter Selinger 2001-2019
</metadata>
<g transform="translate(0.000000,305.000000) scale(0.100000,-0.100000)"
fill="#000000" stroke="none">
<path d="M1509 2904 c0 -5 -2 -19 -3 -32 -2 -13 1 -25 5 -28 11 -7 11 -932 0
-938 -5 -3 -16 3 -25 13 -14 16 -17 56 -19 327 -1 170 1 345 5 389 l7 80 -13
-70 c-15 -85 -19 -72 -38 117 -6 70 -14 126 -16 124 -2 -2 -3 -226 -3 -498 0
-286 -4 -485 -9 -473 -4 11 -14 67 -21 125 -7 58 -14 100 -16 94 -2 -6 -10
-40 -18 -75 l-13 -64 -1 47 c-1 52 -17 73 -24 31 -2 -16 -5 -3 -6 27 -4 144
-48 480 -65 497 -15 16 -65 -325 -67 -467 -1 -41 -4 -65 -6 -52 -7 36 -23 15
-23 -31 -1 -35 -2 -39 -11 -24 -6 10 -15 116 -20 235 -9 222 -35 565 -47 615
-4 15 -5 -196 -4 -469 3 -336 1 -494 -6 -490 -7 4 -11 87 -12 223 0 119 -5
248 -11 287 -5 39 -9 85 -8 101 1 17 -1 41 -4 55 -3 14 -16 88 -28 165 -12 77
-25 144 -30 150 -6 5 -9 1 -9 -10 0 -11 -3 -31 -5 -45 -5 -22 -4 -22 4 -5 6
13 10 -148 10 -457 1 -263 -2 -478 -5 -478 -3 0 -21 12 -39 26 -31 23 -34 32
-38 82 -3 56 -3 55 -5 -14 -2 -67 -1 -71 28 -92 40 -30 66 -70 53 -83 -6 -6
-18 0 -33 16 -42 44 -114 26 -120 -30 -4 -40 -1 -46 25 -39 32 8 69 -16 91
-57 14 -28 14 -32 -2 -50 -12 -14 -15 -30 -12 -64 4 -31 1 -48 -8 -56 -8 -6
-17 -29 -20 -51 -4 -23 -10 -35 -14 -28 -5 8 -16 0 -34 -23 -25 -33 -27 -40
-20 -96 7 -67 -6 -83 -25 -30 -16 48 -13 95 9 139 11 22 20 46 20 54 0 35 -85
49 -115 19 -19 -19 -17 -78 5 -153 17 -61 6 -116 -30 -150 -25 -23 -256 -189
-299 -214 -22 -13 7 22 124 153 99 111 100 112 138 106 l37 -5 -1 57 c-1 63
-15 167 -19 143 -1 -8 -2 -50 0 -93 l2 -78 -27 7 c-27 7 -39 -3 -133 -112 -15
-17 -65 -73 -112 -124 -82 -89 -103 -117 -83 -109 5 2 95 37 201 78 172 67
191 77 194 100 3 24 28 43 28 21 0 -6 -25 -55 -55 -107 -30 -53 -53 -98 -51
-100 2 -2 49 24 105 58 62 38 105 59 111 53 5 -5 12 -21 15 -36 6 -24 4 -28
-26 -35 -29 -8 -35 -15 -46 -59 -117 -447 -141 -554 -113 -504 4 8 50 70 102
137 51 67 103 137 116 155 28 42 28 34 -3 -146 -31 -181 -31 -195 2 -126 186
387 191 399 182 441 -5 22 -7 45 -3 51 9 14 63 2 87 -20 37 -33 38 -48 8 -85
l-28 -36 17 -103 c72 -436 100 -588 100 -540 0 6 23 145 50 308 28 163 50 307
50 319 0 13 -11 37 -25 53 -14 17 -25 34 -25 39 0 19 57 63 89 69 l34 7 -6
-51 c-6 -50 -3 -59 96 -262 56 -116 103 -207 104 -203 2 5 -8 76 -22 158 -14
81 -23 150 -21 152 2 2 61 -73 132 -167 71 -94 130 -167 132 -162 2 7 -58 252
-129 524 -7 27 -17 39 -39 47 -25 8 -30 16 -30 41 0 17 6 33 14 36 7 3 51 -18
97 -45 45 -28 85 -48 87 -46 3 2 -16 40 -42 83 -51 87 -54 97 -30 106 22 8 34
-1 34 -28 0 -25 6 -28 180 -97 172 -67 230 -88 230 -83 0 6 -142 163 -255 282
-57 60 -74 72 -92 67 -23 -5 -23 -4 -24 92 l-1 98 -14 -80 c-7 -44 -16 -98
-19 -120 l-6 -40 166 -123 c92 -68 165 -126 162 -128 -2 -2 -71 25 -153 60
l-149 65 3 40 c2 32 -2 41 -18 46 -11 4 -23 21 -30 43 -13 50 -13 52 12 153
20 83 21 88 5 113 -23 34 -88 37 -111 5 -13 -19 -12 -26 9 -71 25 -54 24 -109
-2 -162 -21 -42 -32 -17 -20 48 13 69 4 104 -28 112 -14 3 -25 14 -26 23 0 12
-2 12 -9 -4 -7 -17 -9 -15 -9 12 -1 18 -7 38 -15 45 -10 9 -12 30 -8 75 3 40
1 63 -6 63 -20 0 -22 33 -2 65 23 36 38 45 80 45 16 0 31 4 35 10 10 16 -22
78 -45 85 -32 10 -76 -13 -94 -48 l-15 -32 -15 37 c-12 27 -23 38 -46 43 -17
4 -29 12 -27 18 7 21 38 19 53 -2 18 -26 40 -27 53 -3 5 10 22 24 37 32 l27
15 -6 250 c-4 156 -14 308 -26 405 -27 205 -58 368 -62 324z m-279 -860 c0
-404 -1 -434 -16 -419 -15 15 -16 50 -11 363 6 320 14 492 23 492 2 0 4 -196
4 -436z m-33 209 c-3 -10 -5 -4 -5 12 0 17 2 24 5 18 2 -7 2 -21 0 -30z m-10
-330 c-2 -38 -3 -7 -3 67 0 74 1 105 3 68 2 -38 2 -98 0 -135z m-150 -38 c8
-22 0 -27 -31 -19 -21 5 -24 9 -15 20 15 19 38 18 46 -1z m53 -15 c0 -5 -7
-10 -16 -10 -8 0 -12 5 -9 10 3 6 10 10 16 10 5 0 9 -4 9 -10z m310 0 c0 -5
-7 -10 -16 -10 -8 0 -12 5 -9 10 3 6 10 10 16 10 5 0 9 -4 9 -10z m-266 -108
c2 -4 -2 -16 -10 -27 -11 -14 -17 -16 -26 -7 -8 8 -8 15 2 27 14 16 26 19 34
7z m246 -22 c0 -16 -21 -22 -35 -10 -21 17 -8 42 16 29 10 -5 19 -14 19 -19z
m-352 -29 c6 -16 6 -34 1 -42 -14 -24 -43 13 -35 45 8 34 22 33 34 -3z m448 3
c5 -19 1 -31 -14 -46 -20 -20 -20 -20 -26 0 -7 22 9 72 24 72 5 0 13 -12 16
-26z m-289 -61 c-3 -10 -5 -2 -5 17 0 19 2 27 5 18 2 -10 2 -26 0 -35z m-43 1
c9 -3 16 -12 16 -20 0 -7 9 -18 21 -24 11 -7 28 -28 36 -48 l15 -37 19 37 c11
21 28 42 39 48 11 6 20 17 20 24 0 17 25 27 45 20 9 -4 15 -19 15 -41 0 -35 0
-36 -36 -30 -44 7 -68 -14 -85 -75 l-12 -43 -16 46 c-24 69 -36 80 -81 73 -35
-6 -38 -4 -43 22 -4 20 -1 33 11 42 19 14 16 14 36 6z m-169 -64 c4 -16 17
-45 31 -65 33 -49 66 -116 61 -122 -8 -8 -75 81 -96 128 -22 47 -27 89 -12 89
5 0 12 -13 16 -30z m108 -55 c16 -49 16 -50 -3 -25 -18 24 -31 66 -29 99 0 19
7 4 32 -74z m437 63 c0 -35 -43 -119 -84 -163 -32 -35 -36 -37 -30 -15 4 14
24 51 45 84 21 32 41 71 44 87 8 34 25 39 25 7z m-100 -2 c0 -23 -22 -80 -37
-96 -11 -12 -11 -7 2 29 8 24 15 52 15 62 0 11 5 19 10 19 6 0 10 -6 10 -14z
m-250 -125 c-1 -25 -2 -25 -20 9 -25 45 -25 58 0 35 11 -10 20 -30 20 -44z
m155 10 c-20 -39 -39 -42 -24 -4 6 15 15 34 22 41 18 23 20 -3 2 -37z m-369
-62 c-3 -17 -6 -50 -6 -73 0 -30 -3 -37 -10 -26 -11 17 -13 90 -4 114 11 29
27 17 20 -15z m574 -41 c0 -27 -4 -48 -10 -48 -6 0 -10 27 -10 63 0 44 3 58
10 47 5 -8 10 -36 10 -62z m-342 -12 c3 -15 1 -16 -17 -6 -12 6 -19 16 -15 21
9 15 28 5 32 -15z m121 -2 c-9 -11 -15 -12 -23 -4 -8 8 -7 13 4 20 20 12 33 1
19 -16z m-266 -79 c-6 -48 14 -95 42 -95 12 0 15 14 15 61 0 52 2 60 16 55 9
-3 25 -6 37 -6 20 -1 20 -2 5 -11 -28 -16 -23 -58 7 -69 34 -13 43 -39 20 -56
-11 -8 -21 -10 -25 -5 -3 6 -30 11 -59 13 l-54 3 -14 45 c-13 46 -9 125 8 115
5 -3 6 -26 2 -50z m399 18 c3 -21 -2 -59 -10 -85 l-14 -48 -54 0 c-30 0 -54
-4 -54 -10 0 -5 -7 -7 -16 -3 -24 9 -14 57 14 61 18 3 22 10 22 43 0 21 2 39
4 39 2 0 12 3 22 7 15 6 17 1 11 -45 -4 -34 -2 -54 6 -61 29 -24 62 40 52 101
-4 22 -3 38 3 38 5 0 12 -17 14 -37z m-598 -58 c20 -30 11 -55 -10 -28 -12 16
-19 53 -10 53 2 0 11 -11 20 -25z m776 -50 c0 -8 -4 -15 -10 -15 -5 0 -7 7 -4
15 4 8 8 15 10 15 2 0 4 -7 4 -15z m-610 -38 c0 -5 -4 -5 -10 -2 -5 3 -10 14
-10 23 0 15 2 15 10 2 5 -8 10 -19 10 -23z m464 8 c-4 -8 -8 -15 -10 -15 -2 0
-4 7 -4 15 0 8 4 15 10 15 5 0 7 -7 4 -15z m-558 -63 c25 -59 13 -105 -76
-286 -45 -93 -97 -203 -116 -243 -18 -40 -35 -73 -38 -73 -2 0 20 93 50 208
29 114 54 211 54 215 0 4 20 16 44 27 38 16 46 24 52 55 4 21 4 61 1 91 -6 61
5 63 29 6z m-141 22 c0 -6 -24 -37 -52 -68 -62 -67 -68 -58 -17 26 24 39 42
58 53 56 9 -2 16 -8 16 -14z m802 -81 l-2 -98 103 -219 c56 -120 101 -221 99
-223 -3 -2 -56 67 -118 154 l-114 158 0 130 c0 88 4 141 14 163 7 17 15 32 16
32 2 0 2 -44 2 -97z m133 60 c0 -5 18 -28 41 -52 22 -24 38 -45 36 -48 -6 -6
-127 76 -127 86 0 4 3 11 7 14 9 9 43 9 43 0z m-478 -159 c4 -4 15 8 23 27 15
31 16 32 10 5 -3 -15 -13 -39 -22 -53 l-17 -26 -12 34 c-7 19 -12 45 -12 59 0
23 1 22 11 -7 7 -17 15 -35 19 -39z m-219 -11 c3 -5 -10 -53 -28 -108 -41
-125 -92 -291 -101 -328 -3 -15 -8 -26 -10 -24 -2 2 8 68 22 148 19 110 31
153 51 181 22 32 24 43 18 87 -7 50 -6 51 18 51 14 0 28 -3 30 -7z m447 -15
c16 -38 111 -370 107 -374 -2 -2 -20 32 -40 76 -21 44 -53 116 -73 159 -30 66
-35 85 -29 120 8 46 21 52 35 19z m-231 -305 c-2 -275 -2 -277 -15 -178 -7 55
-18 157 -25 227 -13 126 -12 128 11 178 13 27 25 50 27 50 2 0 2 -125 2 -277z
m-64 170 c0 -16 3 -62 7 -103 5 -55 4 -65 -3 -37 -19 82 -26 146 -15 157 5 5
10 10 11 10 0 0 0 -12 0 -27z"/>
<path d="M931 2784 c0 -11 3 -14 6 -6 3 7 2 16 -1 19 -3 4 -6 -2 -5 -13z"/>
<path d="M1392 2750 c0 -19 2 -27 5 -17 2 9 2 25 0 35 -3 9 -5 1 -5 -18z"/>
<path d="M1482 2750 c0 -19 2 -27 5 -17 2 9 2 25 0 35 -3 9 -5 1 -5 -18z"/>
<path d="M922 2710 c0 -19 2 -27 5 -17 2 9 2 25 0 35 -3 9 -5 1 -5 -18z"/>
<path d="M907 2635 c-15 -94 -40 -537 -27 -495 5 14 8 66 9 116 1 50 8 158 16
239 15 141 16 224 2 140z"/>
<path d="M1383 2635 c0 -22 2 -30 4 -17 2 12 2 30 0 40 -3 9 -5 -1 -4 -23z"/>
<path d="M1023 2615 c0 -22 2 -30 4 -17 2 12 2 30 0 40 -3 9 -5 -1 -4 -23z"/>
<path d="M1373 2495 c0 -38 2 -53 4 -32 2 20 2 52 0 70 -2 17 -4 1 -4 -38z"/>
<path d="M1364 2290 c0 -74 1 -105 3 -67 2 37 2 97 0 135 -2 37 -3 6 -3 -68z"/>
</g>
</svg>
