<?xml version="1.0" standalone="no"?>
<!DOCTYPE svg PUBLIC "-//W3C//DTD SVG 20010904//EN"
 "http://www.w3.org/TR/2001/REC-SVG-20010904/DTD/svg10.dtd">
<svg version="1.0" xmlns="http://www.w3.org/2000/svg"
 width="244.000000pt" height="305.000000pt" viewBox="0 0 244.000000 305.000000"
 preserveAspectRatio="xMidYMid meet">
<metadata>
Created by potrace 1.16, written by Peter Selinger 2001-2019
</metadata>
<g transform="translate(0.000000,305.000000) scale(0.100000,-0.100000)"
fill="#000000" stroke="none">
<path d="M1041 2893 c-1 -12 -4 -29 -8 -39 -4 -12 -3 -15 5 -10 9 5 12 -56 11
-251 -1 -142 -3 -251 -5 -243 -3 8 -11 83 -19 165 -7 83 -23 200 -34 260 -11
61 -21 114 -21 119 0 5 -3 7 -6 4 -3 -4 -5 -230 -4 -504 l1 -497 -33 25 -33
25 -5 134 -6 134 -2 -143 -2 -143 35 -33 c19 -19 35 -41 35 -50 0 -20 -14 -21
-30 -1 -17 21 -73 19 -93 -3 -10 -10 -17 -32 -17 -49 0 -29 2 -31 36 -30 29 1
41 -5 60 -28 26 -33 31 -64 12 -83 -6 -6 -11 -33 -9 -61 2 -45 0 -49 -24 -55
-21 -5 -25 -12 -25 -41 0 -23 -5 -35 -14 -35 -32 0 -45 -93 -21 -152 5 -13 2
-15 -13 -11 -11 3 -23 15 -26 26 -9 34 -7 105 3 112 5 3 15 21 21 41 11 31 10
37 -7 49 -29 23 -79 19 -97 -7 -20 -28 -20 -54 0 -127 19 -68 13 -138 -15
-167 -10 -10 -43 -36 -72 -57 -30 -21 -94 -66 -144 -102 -49 -35 -92 -62 -94
-60 -4 5 29 44 148 173 81 88 88 93 119 89 l32 -6 -1 57 c0 31 -5 80 -9 107
-7 42 -8 36 -6 -42 l2 -93 -29 3 c-27 2 -45 -15 -180 -166 -82 -92 -148 -170
-145 -172 2 -2 80 27 173 65 94 37 172 67 174 64 2 -2 -15 -33 -38 -70 -23
-37 -40 -68 -38 -71 5 -4 194 102 212 118 19 19 43 9 54 -22 13 -37 2 -56 -32
-61 -20 -3 -29 -29 -93 -285 -39 -156 -69 -283 -65 -283 3 0 53 65 111 144 58
79 106 143 108 141 2 -2 -8 -69 -23 -150 -14 -81 -24 -149 -23 -151 2 -2 54
98 116 221 109 219 111 225 103 270 -5 27 -5 48 1 51 18 11 75 -6 95 -29 35
-38 35 -46 9 -78 -14 -17 -26 -40 -26 -52 0 -24 100 -630 105 -635 3 -3 0 -20
61 355 52 321 52 286 -1 359 -15 21 42 73 89 81 l37 6 -6 -50 c-7 -48 -4 -55
103 -269 61 -120 111 -212 111 -204 0 8 -10 73 -23 145 -13 72 -23 131 -22
132 3 3 80 -96 168 -216 34 -46 64 -79 65 -74 3 8 -44 199 -128 525 -7 27 -17
39 -39 47 -31 10 -35 25 -24 69 9 32 26 28 117 -26 85 -50 117 -65 117 -56 0
3 -16 30 -36 61 -19 30 -33 57 -30 60 3 3 90 -28 193 -70 103 -41 190 -73 192
-72 2 2 -67 83 -154 180 -145 162 -160 176 -185 170 l-27 -6 5 98 c2 54 2 96
-1 93 -3 -3 -11 -44 -18 -90 -6 -47 -13 -99 -16 -115 -4 -28 1 -35 64 -82 137
-102 254 -195 251 -199 -2 -2 -71 26 -153 61 -82 36 -150 65 -152 65 -1 0 3
15 8 32 8 28 6 36 -15 55 -34 31 -41 88 -20 165 26 99 28 116 10 143 -13 19
-25 25 -54 25 -21 0 -43 -5 -50 -12 -16 -16 -15 -49 2 -74 22 -31 25 -124 6
-154 -16 -25 -25 -1 -22 59 2 44 -1 62 -16 79 -11 12 -24 22 -31 22 -6 0 -11
13 -11 29 0 18 -8 35 -19 43 -15 11 -19 25 -18 67 1 36 -2 56 -10 58 -18 6
-16 44 4 73 24 36 34 41 73 38 34 -2 35 -1 33 32 -2 37 -31 70 -63 70 -10 0
-32 -12 -49 -26 -28 -23 -32 -24 -38 -8 -4 12 6 28 37 57 l43 41 -6 255 c-4
141 -13 310 -21 376 -20 166 -46 329 -54 337 -4 4 -6 -220 -4 -497 2 -337 -1
-505 -7 -505 -17 0 -19 27 -30 355 -7 213 -7 333 0 383 12 88 7 130 -7 52
l-10 -55 -14 118 c-7 64 -15 115 -17 113 -3 -2 -4 -222 -3 -487 0 -355 -2
-481 -10 -473 -17 17 -28 77 -37 199 -7 107 -8 109 -14 50 -4 -33 -11 -76 -17
-95 l-10 -35 -1 38 c-1 51 -19 47 -24 -5 -3 -36 -4 -33 -5 17 -7 211 -54 548
-72 514 -21 -38 -59 -350 -61 -499 -1 -61 -3 -68 -9 -37 -10 52 -20 58 -21 11
l-1 -39 -15 45 c-10 30 -18 113 -24 250 -8 221 -34 517 -48 565 -7 24 -9 25
-10 8z m189 -844 c0 -391 -2 -439 -15 -425 -8 8 -15 21 -15 30 0 8 -4 17 -10
21 -6 4 -6 15 0 31 9 23 6 118 -6 172 -3 13 -1 21 4 18 5 -3 12 97 16 227 6
225 15 367 22 367 2 0 4 -198 4 -441z m-43 -71 c-2 -24 -4 -5 -4 42 0 47 2 66
4 43 2 -24 2 -62 0 -85z m-159 -101 c2 -12 -3 -17 -17 -17 -23 0 -24 1 -15 25
8 19 28 15 32 -8z m450 11 c19 -19 14 -28 -13 -28 -24 0 -34 18 -18 33 9 10
17 9 31 -5z m-390 -16 c2 -7 -3 -12 -12 -12 -9 0 -16 7 -16 16 0 17 22 14 28
-4z m312 3 c0 -8 -7 -15 -15 -15 -16 0 -20 12 -8 23 11 12 23 8 23 -8z m-266
-114 c3 -4 -3 -16 -13 -25 -16 -15 -20 -15 -31 -1 -12 14 -5 21 37 34 1 1 4
-3 7 -8z m246 -17 c0 -7 -5 -16 -10 -19 -13 -8 -38 16 -33 32 5 15 43 4 43
-13z m95 -34 c8 -24 -1 -40 -21 -40 -15 0 -18 18 -8 44 8 22 21 20 29 -4z
m-451 -6 c9 -25 7 -34 -8 -34 -19 0 -29 17 -22 35 7 20 22 19 30 -1z m124 -53
c6 -1 12 -8 12 -16 0 -8 9 -19 21 -25 11 -7 27 -27 35 -46 8 -19 16 -34 19
-34 3 0 11 15 19 34 8 19 24 39 35 46 12 6 21 17 21 25 0 8 6 15 13 16 6 0 22
2 35 3 21 2 23 -1 20 -33 -3 -35 -4 -36 -46 -36 -50 0 -66 -16 -83 -80 l-11
-40 -19 49 c-26 70 -38 80 -82 68 -40 -11 -47 -4 -47 47 0 23 4 27 23 25 12
-1 28 -3 35 -3z m-168 -54 c0 -7 16 -46 35 -86 20 -41 34 -78 33 -83 -5 -14
-63 71 -76 111 -15 42 -16 84 -2 76 6 -3 10 -12 10 -18z m80 -8 c0 -11 5 -29
11 -41 6 -11 8 -22 5 -25 -7 -7 -36 60 -36 82 0 9 5 13 10 10 6 -3 10 -15 10
-26z m451 -11 c-13 -56 -85 -177 -98 -164 -7 6 91 205 98 200 4 -2 4 -19 0
-36z m-102 -39 c-18 -44 -22 -28 -7 27 9 37 13 43 16 26 2 -13 -2 -37 -9 -53z
m-255 -25 c9 -8 16 -21 16 -29 0 -7 3 -21 7 -31 12 -32 -17 -4 -37 37 -21 40
-14 51 14 23z m196 8 c0 -9 -49 -82 -56 -82 -9 0 9 55 24 73 16 18 32 23 32 9z
m-400 -98 c-7 -16 -9 -49 -6 -76 7 -52 -8 -75 -18 -27 -9 48 -7 108 5 131 17
31 32 8 19 -28z m588 4 c10 -39 4 -128 -9 -128 -5 0 -9 26 -9 58 0 31 -3 67
-6 80 -4 13 -2 22 4 22 6 0 15 -15 20 -32z m-348 -64 c0 -17 -5 -17 -31 -4
-27 15 -24 28 6 22 14 -2 25 -11 25 -18z m125 6 c-21 -23 -35 -26 -35 -6 0 13
15 21 44 25 5 0 1 -8 -9 -19z m-278 -62 c-3 -7 -5 -2 -5 12 0 14 2 19 5 13 2
-7 2 -19 0 -25z m403 0 c0 -36 -4 -35 -14 5 -4 16 -2 27 4 27 5 0 10 -14 10
-32z m-285 -28 c-22 -24 -19 -36 15 -60 17 -12 30 -28 30 -35 0 -20 -34 -37
-48 -23 -5 5 -34 11 -64 12 -40 1 -53 5 -53 16 0 8 7 13 15 11 44 -10 45 -8
42 55 l-4 62 41 -11 c37 -10 39 -13 26 -27z m220 -24 c-8 -59 2 -74 35 -56 17
9 20 8 20 -10 0 -18 -6 -20 -59 -20 -35 0 -61 -5 -63 -11 -3 -8 -10 -5 -21 6
-23 22 -18 36 17 53 22 11 27 19 24 43 -3 30 13 49 40 49 10 0 12 -12 7 -54z
m-525 -16 c6 -11 7 -20 2 -20 -10 0 -32 21 -32 32 0 16 19 8 30 -12z m767 -32
c-3 -8 -6 -5 -6 6 -1 11 2 17 5 13 3 -3 4 -12 1 -19z m-617 -51 c0 -5 -4 -5
-10 -2 -5 3 -10 14 -10 23 0 15 2 15 10 2 5 -8 10 -19 10 -23z m483 13 c-3
-12 -8 -19 -11 -16 -5 6 5 36 12 36 2 0 2 -9 -1 -20z m297 -43 c-1 -21 -1 -21
-15 -3 -8 10 -12 23 -9 28 9 14 24 -2 24 -25z m-1014 12 c4 -6 -25 -42 -66
-83 -66 -64 -71 -67 -50 -31 13 22 28 47 35 55 6 8 17 27 25 43 14 27 43 36
56 16z m806 -58 c-8 -37 -12 -83 -8 -102 3 -19 51 -133 106 -253 55 -121 98
-221 96 -223 -4 -4 -42 47 -135 182 -59 86 -63 95 -82 200 -21 116 -19 175 8
233 25 52 31 37 15 -37z m-650 21 c21 -50 8 -112 -46 -227 -29 -60 -79 -167
-111 -237 -32 -70 -61 -126 -63 -123 -3 2 19 97 49 211 l53 207 38 16 c45 19
53 39 52 128 -1 64 8 72 28 25z m836 -35 c56 -62 65 -78 30 -55 -13 9 -47 30
-75 47 -57 35 -63 44 -35 60 22 14 20 15 80 -52z m-563 3 c3 -6 -1 -7 -9 -4
-18 7 -21 14 -7 14 6 0 13 -4 16 -10z m36 -124 c5 -6 14 4 23 25 11 24 15 28
16 14 0 -11 -9 -33 -20 -50 -19 -28 -20 -49 -21 -315 l-2 -285 -18 140 c-40
313 -40 302 -11 362 24 49 25 57 14 98 -7 25 -12 55 -11 68 1 16 4 12 11 -13
5 -19 14 -39 19 -44z m-228 -13 c2 -5 -1 -24 -8 -43 l-13 -35 -11 28 c-16 41
-14 57 8 57 11 0 22 -3 24 -7z m473 -20 c10 -45 20 -81 59 -203 21 -63 43
-135 51 -160 23 -73 1 -35 -81 139 -70 150 -76 167 -70 207 7 50 31 60 41 17z
m-566 -278 c-27 -82 -49 -145 -49 -139 -1 5 8 59 19 119 14 78 28 121 47 149
14 23 28 36 29 31 2 -6 -19 -77 -46 -160z m258 50 c0 -26 -1 -25 -9 10 -4 22
-8 56 -7 75 0 33 1 32 9 -10 4 -25 7 -58 7 -75z"/>
<path d="M941 2794 c0 -11 3 -14 6 -6 3 7 2 16 -1 19 -3 4 -6 -2 -5 -13z"/>
<path d="M915 2633 c-9 -71 -19 -191 -20 -268 l-4 -140 9 135 c5 74 16 193 25
263 9 71 15 131 12 133 -2 3 -12 -53 -22 -123z"/>
<path d="M1022 2725 c0 -16 2 -22 5 -12 2 9 2 23 0 30 -3 6 -5 -1 -5 -18z"/>
<path d="M1383 2565 c0 -27 2 -38 4 -22 2 15 2 37 0 50 -2 12 -4 0 -4 -28z"/>
<path d="M1374 2390 c0 -52 1 -74 3 -47 2 26 2 68 0 95 -2 26 -3 4 -3 -48z"/>
</g>
</svg>
