<?xml version="1.0" standalone="no"?>
<!DOCTYPE svg PUBLIC "-//W3C//DTD SVG 20010904//EN"
 "http://www.w3.org/TR/2001/REC-SVG-20010904/DTD/svg10.dtd">
<svg version="1.0" xmlns="http://www.w3.org/2000/svg"
 width="244.000000pt" height="305.000000pt" viewBox="0 0 244.000000 305.000000"
 preserveAspectRatio="xMidYMid meet">
<metadata>
Created by potrace 1.16, written by Peter Selinger 2001-2019
</metadata>
<g transform="translate(0.000000,305.000000) scale(0.100000,-0.100000)"
fill="#000000" stroke="none">
<path d="M890 2893 c0 -10 -3 -29 -5 -43 -5 -22 -4 -22 4 -5 6 13 10 -150 10
-462 1 -266 -1 -483 -4 -483 -3 0 -23 12 -45 26 l-40 27 0 136 c0 172 15 367
41 544 23 157 20 194 -5 59 -26 -146 -45 -344 -52 -563 l-7 -205 31 -13 c17
-7 38 -21 48 -32 24 -26 41 -24 81 11 18 16 39 30 45 30 16 0 3 450 -16 595
-13 96 -40 247 -62 353 -7 36 -24 53 -24 25z"/>
<path d="M1312 2885 c0 -16 2 -22 5 -12 2 9 2 23 0 30 -3 6 -5 -1 -5 -18z"/>
<path d="M1560 2888 c0 -7 -3 -24 -5 -38 -5 -22 -4 -22 4 -5 6 13 10 -152 10
-467 l1 -488 -45 32 -45 32 0 155 c0 85 -2 152 -4 150 -2 -2 -7 -77 -10 -167
l-5 -162 27 -17 c15 -9 39 -28 54 -41 l27 -25 34 29 c19 16 42 34 51 39 16 9
18 28 17 180 -2 188 -14 360 -36 505 -23 148 -57 300 -66 300 -5 0 -9 -6 -9
-12z"/>
<path d="M1146 2653 c-17 -571 -19 -710 -6 -747 6 -21 9 -40 6 -43 -10 -11
-15 1 -26 71 -33 208 -48 219 -71 49 l-11 -87 36 -29 c33 -27 36 -33 36 -83 0
-60 -16 -77 -52 -55 -28 17 -38 6 -27 -31 15 -54 47 -62 85 -21 13 14 26 24
28 22 2 -2 1 -30 -1 -61 -5 -55 -7 -58 -32 -58 -25 -1 -61 -20 -61 -34 0 -3 7
-6 15 -6 10 0 15 -10 15 -30 0 -16 -4 -30 -8 -30 -9 0 -71 72 -89 104 -7 12
-12 33 -13 47 0 15 -7 32 -15 39 -22 18 -18 48 10 76 22 22 33 25 73 22 45 -3
47 -2 44 22 -7 50 -29 70 -77 70 -50 0 -80 -22 -91 -65 -9 -34 -20 -31 -40 10
-20 44 -64 69 -105 60 -32 -7 -69 -48 -69 -76 0 -16 8 -19 46 -19 39 0 51 -5
80 -34 37 -37 42 -57 19 -76 -38 -31 -7 -139 66 -231 16 -20 29 -41 29 -46 0
-5 -13 -22 -29 -37 -16 -16 -35 -42 -42 -58 -10 -25 -9 -33 8 -56 23 -31 87
-52 104 -35 8 8 8 25 -2 62 -17 66 -4 84 47 68 32 -10 34 -13 29 -41 -18 -88
-28 -107 -67 -127 -50 -26 -80 -17 -120 34 -28 35 -33 49 -34 101 -1 67 -12
137 -22 147 -20 19 -51 18 -75 -2 -22 -16 -27 -29 -27 -62 0 -43 4 -50 104
-222 71 -122 73 -113 -104 -420 -82 -143 -150 -255 -150 -248 0 6 25 89 56
185 30 95 61 191 68 212 13 42 19 47 78 70 30 12 39 22 48 55 11 42 6 100 -13
136 -5 11 -32 47 -58 81 -56 71 -69 100 -69 156 0 28 8 51 25 74 30 39 31 46
7 67 -19 17 -85 23 -117 11 -31 -12 -36 -50 -15 -116 41 -129 24 -177 -83
-239 -39 -23 -92 -54 -117 -69 -106 -64 -204 -113 -190 -95 8 10 73 72 145
137 l130 119 48 -6 48 -6 -7 78 c-3 43 -10 94 -14 113 -7 35 -7 35 -14 8 -5
-15 -4 -58 1 -97 l9 -71 -35 6 c-35 5 -42 0 -196 -141 -88 -80 -173 -160 -190
-177 l-30 -30 30 6 c17 4 128 39 248 78 214 71 217 72 217 100 0 33 2 33 62
12 74 -25 140 -102 126 -145 -2 -6 -19 -17 -38 -23 -36 -12 -41 -22 -114 -261
-13 -44 -41 -133 -61 -198 -20 -65 -35 -120 -33 -122 3 -3 175 182 321 348 62
70 86 104 82 116 -4 9 -9 31 -12 48 l-6 33 89 0 c49 0 95 -4 103 -9 13 -8 13
-37 2 -213 -7 -112 -14 -225 -17 -253 l-4 -50 14 60 c8 33 12 74 9 90 -4 23
-2 27 6 15 8 -11 9 -1 5 36 -4 32 -2 59 5 70 9 15 11 10 6 -31 -3 -32 -2 -41
3 -25 8 23 9 21 19 -20 6 -25 14 -65 18 -90 4 -25 19 -103 35 -175 15 -71 31
-148 35 -170 l8 -40 7 30 c4 17 24 113 44 215 20 102 43 205 50 230 l12 45 24
-115 c23 -107 25 -112 28 -66 2 27 -1 52 -6 55 -10 7 -33 159 -31 211 1 32 2
33 9 10 7 -21 8 -17 9 20 0 27 -3 40 -7 32 -12 -18 -32 29 -32 73 0 45 18 55
23 13 l4 -33 1 36 c1 25 8 39 20 44 19 7 172 8 180 1 2 -3 0 -24 -6 -48 -6
-23 -8 -47 -4 -54 16 -27 387 -431 390 -424 2 4 -27 104 -64 221 -36 118 -74
241 -83 274 -14 53 -20 61 -49 71 -49 16 -56 26 -39 66 18 43 76 91 128 107
46 14 59 9 59 -24 0 -21 17 -29 236 -100 130 -42 238 -75 240 -72 4 4 -38 45
-215 207 -165 151 -152 141 -189 135 l-33 -6 7 90 c5 66 4 91 -5 91 -6 0 -11
-16 -11 -38 0 -21 -7 -64 -15 -95 -8 -32 -15 -66 -15 -75 0 -11 45 -45 128
-96 208 -128 255 -160 245 -163 -8 -3 -50 11 -280 94 -74 27 -88 44 -61 71 9
9 5 18 -21 40 -29 24 -35 36 -38 83 -3 38 2 72 16 113 26 74 26 91 1 116 -23
23 -75 26 -115 8 -30 -14 -32 -31 -4 -69 48 -68 35 -136 -47 -237 -53 -65 -94
-160 -94 -216 0 -27 57 -136 229 -439 19 -32 31 -60 29 -63 -3 -2 -56 56 -119
128 -63 73 -122 142 -132 153 -42 45 -54 70 -46 90 4 11 8 56 9 100 1 90 10
117 86 240 65 105 78 137 70 179 -5 25 -14 37 -35 46 -42 17 -64 9 -72 -25 -4
-17 -11 -49 -16 -72 -6 -23 -6 -48 -1 -57 13 -23 -13 -76 -56 -114 -20 -17
-41 -32 -46 -32 -19 0 -80 34 -80 44 0 6 -5 4 -10 -4 -17 -27 -43 12 -48 73
l-4 53 41 16 c37 15 43 15 57 1 10 -10 13 -25 9 -41 -18 -71 -17 -80 3 -86 23
-8 62 6 85 29 26 25 20 59 -18 109 -19 26 -35 50 -35 55 0 5 18 32 41 60 59
74 90 193 54 207 -27 11 -17 50 22 84 31 28 41 31 75 26 36 -6 38 -5 38 22 0
92 -125 106 -167 18 -20 -42 -30 -45 -39 -12 -23 92 -156 93 -166 1 -3 -30 -3
-30 41 -27 36 3 48 -1 72 -24 32 -30 36 -49 16 -73 -8 -9 -19 -34 -25 -57 -12
-42 -75 -134 -92 -134 -17 0 -11 49 8 59 16 10 16 12 -2 26 -11 8 -32 15 -47
15 -25 0 -27 3 -32 57 -3 32 -4 60 -1 62 3 3 16 -7 30 -22 14 -15 29 -27 34
-27 18 0 50 39 50 60 0 18 -5 20 -37 18 l-38 -3 -3 61 c-3 61 -2 62 31 82 33
19 34 22 31 68 -6 84 -26 176 -36 166 -4 -4 -18 -59 -29 -120 -12 -62 -26
-112 -31 -112 -6 0 -7 8 -3 18 4 9 9 40 11 67 2 41 2 44 -4 15 -13 -59 -22
133 -24 490 -1 319 -1 322 -9 137 -4 -104 -10 -191 -12 -194 -3 -3 -9 16 -12
42 -4 25 -15 72 -25 103 l-17 57 -13 -45 c-26 -91 -42 -167 -49 -230 -5 -42
-8 39 -8 228 -1 161 -3 295 -5 298 -3 2 -8 -89 -12 -203z m74 -428 c-4 -165
-8 -282 -9 -260 -2 22 -7 54 -11 70 -9 33 -5 -127 6 -234 4 -41 2 -67 -5 -74
-14 -14 -15 -67 -1 -67 6 0 10 -9 10 -20 0 -18 -3 -19 -20 -10 -16 8 -20 21
-20 60 0 55 8 83 21 74 14 -8 11 73 -4 88 -17 18 -21 222 -7 358 11 108 41
323 45 318 1 -2 -2 -138 -5 -303z m-290 -656 c14 -30 48 -73 82 -104 50 -46
73 -85 52 -85 -11 0 -69 44 -97 75 -51 55 -97 165 -69 165 5 0 19 -23 32 -51z
m650 35 c0 -54 -99 -186 -168 -223 -19 -10 -22 -9 -22 5 0 9 28 43 63 74 39
36 72 77 86 109 24 51 41 65 41 35z m-290 -26 c-1 -28 -2 -30 -11 -15 -6 10
-8 25 -5 33 9 24 16 16 16 -18z m-90 -3 c0 -8 -4 -17 -10 -20 -6 -4 -10 5 -10
20 0 15 4 24 10 20 6 -3 10 -12 10 -20z m-41 -141 c8 -44 8 -70 2 -82 -13 -21
-13 -19 -15 40 -1 31 -7 52 -18 60 -11 9 -15 23 -11 47 5 31 7 33 18 17 7 -10
18 -46 24 -82z m78 49 c-3 -10 -5 -4 -5 12 0 17 2 24 5 18 2 -7 2 -21 0 -30z
m123 2 c0 -23 -5 -35 -14 -35 -17 0 -28 -42 -20 -75 4 -17 2 -25 -6 -25 -16 0
-7 135 11 156 19 23 29 16 29 -21z m-285 -286 c-11 -24 -14 -27 -9 -9 3 14 8
45 12 70 l7 45 3 -36 c2 -20 -4 -52 -13 -70z m42 79 c-3 -8 -6 -5 -6 6 -1 11
2 17 5 13 3 -3 4 -12 1 -19z m240 -10 c-3 -7 -5 -2 -5 12 0 14 2 19 5 13 2 -7
2 -19 0 -25z m-10 -70 c-3 -7 -5 -2 -5 12 0 14 2 19 5 13 2 -7 2 -19 0 -25z
m-171 2 c12 0 13 -4 3 -21 -9 -17 -13 -19 -20 -8 -5 8 -8 23 -8 34 0 11 3 14
6 8 2 -7 11 -13 19 -13z m140 -25 c-8 -21 -23 -19 -29 4 -3 13 1 21 12 23 19
4 25 -6 17 -27z m-202 -94 c-7 -7 -12 3 -18 34 l-6 30 14 -30 c8 -16 12 -32
10 -34z m256 9 c-16 -30 -22 -19 -7 13 6 14 13 22 15 17 2 -5 -2 -19 -8 -30z
m-133 -172 c-3 -8 -6 -5 -6 6 -1 11 2 17 5 13 3 -3 4 -12 1 -19z m-87 -58 c0
-16 -4 -32 -10 -35 -6 -4 -10 10 -10 35 0 25 4 39 10 35 6 -3 10 -19 10 -35z
m65 -17 c-8 -42 -7 -177 3 -380 4 -72 5 -129 2 -127 -2 3 -14 51 -26 107 -12
56 -29 138 -38 182 -25 116 -10 201 43 242 23 18 24 17 16 -24z m-78 -75 c-3
-8 -6 -5 -6 6 -1 11 2 17 5 13 3 -3 4 -12 1 -19z"/>
<path d="M1540 2814 c0 -5 -7 -45 -15 -89 -26 -138 -45 -306 -44 -380 2 -67 2
-66 10 30 4 55 20 176 34 268 15 93 24 171 21 175 -3 3 -6 1 -6 -4z"/>
<path d="M1323 2660 c0 -25 2 -35 4 -22 2 12 2 32 0 45 -2 12 -4 2 -4 -23z"/>
<path d="M1173 2480 c0 -36 2 -50 4 -32 2 17 2 47 0 65 -2 17 -4 3 -4 -33z"/>
<path d="M1334 2235 c0 -82 2 -115 3 -72 2 43 2 110 0 150 -1 40 -3 5 -3 -78z"/>
<path d="M1407 1294 c-11 -11 -8 -36 3 -29 6 3 10 -2 11 -12 0 -10 3 -13 5 -7
6 15 -10 57 -19 48z"/>
<path d="M1382 640 c0 -19 2 -27 5 -17 2 9 2 25 0 35 -3 9 -5 1 -5 -18z"/>
</g>
</svg>
