<?xml version="1.0" standalone="no"?>
<!DOCTYPE svg PUBLIC "-//W3C//DTD SVG 20010904//EN"
 "http://www.w3.org/TR/2001/REC-SVG-20010904/DTD/svg10.dtd">
<svg version="1.0" xmlns="http://www.w3.org/2000/svg"
 width="244.000000pt" height="305.000000pt" viewBox="0 0 244.000000 305.000000"
 preserveAspectRatio="xMidYMid meet">
<metadata>
Created by potrace 1.16, written by Peter Selinger 2001-2019
</metadata>
<g transform="translate(0.000000,305.000000) scale(0.100000,-0.100000)"
fill="#000000" stroke="none">
<path d="M1283 2845 c0 -44 2 -61 4 -37 2 23 2 59 0 80 -2 20 -4 1 -4 -43z"/>
<path d="M886 2892 c-4 -12 -3 -37 3 -55 12 -37 12 -937 0 -937 -4 0 -26 12
-48 27 l-41 27 0 100 c0 138 16 351 41 531 29 217 30 227 14 166 -35 -137 -62
-409 -66 -681 l-3 -144 44 -28 c68 -42 68 -42 100 -15 16 14 40 29 51 32 22 7
22 8 15 209 -10 318 -39 564 -85 727 -15 53 -19 60 -25 41z"/>
<path d="M1177 2609 c-4 -163 -12 -348 -17 -410 -5 -63 -10 -162 -10 -221 0
-117 -13 -148 -28 -66 -5 29 -15 82 -22 118 -19 105 -29 102 -49 -14 -17 -94
-14 -134 9 -141 37 -12 60 -53 54 -97 -2 -23 -7 -45 -10 -49 -8 -13 -38 -11
-52 3 -20 20 -35 -4 -22 -38 20 -50 49 -57 82 -19 30 35 40 31 32 -11 -6 -31
-3 -39 20 -59 31 -26 20 -40 -19 -25 -19 7 -35 6 -60 -5 -45 -18 -44 -32 0
-41 40 -7 55 -28 55 -73 l0 -30 -33 19 c-64 38 -137 134 -137 181 0 18 -7 32
-20 39 -28 15 -25 37 10 72 26 25 36 29 73 26 44 -3 47 -1 47 32 0 35 -35 60
-83 60 -48 0 -68 -15 -87 -65 -11 -28 -13 -29 -24 -11 -34 58 -62 79 -104 79
-48 0 -77 -21 -85 -59 -5 -31 7 -39 55 -35 32 2 43 -3 73 -33 40 -41 44 -61
15 -76 -41 -22 -16 -120 55 -214 45 -60 47 -81 12 -103 -21 -13 -47 -56 -47
-78 0 -48 92 -94 120 -61 10 13 10 22 1 42 -14 32 -14 67 0 81 8 8 28 5 73 -9
33 -12 62 -22 64 -23 2 -2 -2 -32 -9 -68 -12 -62 -13 -65 -35 -57 -23 9 -89
-4 -111 -22 -22 -18 -60 1 -97 46 -31 37 -36 50 -35 92 1 27 -2 71 -6 97 -13
82 -68 97 -111 32 -24 -36 -12 -79 48 -176 80 -131 101 -178 95 -219 -2 -19
-38 -91 -79 -160 -41 -69 -105 -179 -143 -244 -38 -66 -70 -115 -72 -110 -2 6
27 104 65 219 l68 210 46 13 c52 14 68 42 68 114 0 52 -18 92 -74 160 -84 103
-96 166 -46 236 l31 41 -21 21 c-15 15 -33 20 -68 20 -84 0 -100 -42 -61 -151
24 -65 21 -111 -11 -151 -17 -23 -164 -111 -335 -203 l-70 -37 60 58 c33 33
100 94 148 138 l87 79 46 -7 46 -6 -7 98 c-10 133 -27 156 -22 29 l3 -97 -31
5 c-25 5 -38 -1 -76 -32 -99 -83 -339 -306 -335 -311 3 -3 34 4 68 16 35 11
143 46 240 77 166 54 177 59 180 84 3 22 7 26 32 23 64 -7 134 -59 156 -116
13 -35 2 -51 -39 -59 -28 -6 -32 -13 -76 -154 -26 -81 -67 -210 -91 -287 -25
-76 -43 -140 -41 -142 3 -4 106 106 332 356 81 90 81 92 59 167 -6 23 -5 23
88 23 82 0 100 -3 129 -23 45 -30 50 -68 13 -100 l-27 -24 21 -109 c14 -71 20
-134 17 -179 -2 -46 -1 -56 3 -30 4 22 10 35 14 30 5 -8 73 -323 79 -363 1 -7
44 186 69 306 9 44 17 62 26 58 10 -4 13 11 12 62 0 37 7 103 17 147 l17 80
-31 27 c-17 15 -31 34 -31 41 0 15 34 49 67 66 26 13 189 15 198 1 3 -5 -1
-26 -10 -46 -14 -35 -14 -39 3 -58 10 -12 67 -75 128 -141 60 -66 142 -158
183 -203 41 -45 76 -80 78 -78 4 4 -25 101 -119 400 l-50 158 -40 16 c-36 14
-39 18 -34 45 10 47 43 84 102 112 62 29 81 28 86 -7 3 -24 -7 -20 351 -138
70 -23 131 -40 137 -38 5 2 -21 30 -58 62 -37 32 -100 90 -140 127 -149 139
-177 160 -213 157 -23 -2 -33 1 -32 9 2 7 6 43 9 81 8 88 -11 108 -20 22 -4
-33 -14 -79 -22 -101 -7 -23 -14 -45 -14 -49 0 -8 103 -76 235 -155 112 -67
156 -97 151 -102 -4 -5 -83 22 -271 90 -63 24 -89 38 -86 48 14 52 13 59 -12
70 -43 19 -49 94 -17 199 32 101 4 141 -87 127 -20 -4 -43 -13 -51 -21 -14
-13 -12 -20 13 -56 22 -32 28 -51 27 -86 -3 -55 -20 -90 -83 -168 -48 -59 -79
-139 -79 -203 0 -18 20 -66 46 -114 26 -46 68 -122 94 -169 26 -47 63 -114 84
-149 20 -35 35 -66 32 -68 -2 -2 -48 47 -103 109 -214 245 -206 235 -198 265
5 15 9 64 10 108 2 90 5 97 99 250 70 114 79 162 37 196 -27 22 -64 25 -78 7
-13 -16 -25 -87 -27 -153 -1 -55 -34 -110 -81 -135 -22 -12 -30 -11 -60 3 -20
9 -55 17 -80 17 -37 0 -44 -3 -47 -22 -3 -18 -7 -14 -18 20 -11 35 -11 47 0
66 7 14 10 34 7 45 -4 17 3 22 50 36 30 9 62 15 71 13 18 -4 21 -38 7 -95 -7
-29 -5 -33 18 -38 30 -8 82 16 97 45 12 23 -6 76 -34 99 -38 32 -38 48 0 98
20 26 45 66 55 88 23 50 25 130 4 139 -25 9 -17 37 21 73 32 29 43 34 78 31
33 -2 41 1 44 16 6 30 -18 65 -54 76 -50 17 -95 -6 -121 -61 -18 -38 -22 -41
-28 -24 -18 54 -28 67 -60 81 -30 12 -40 12 -69 0 -21 -9 -37 -24 -43 -42 -15
-45 -7 -54 42 -47 38 5 47 2 69 -20 29 -29 33 -58 12 -76 -7 -6 -16 -29 -20
-50 -7 -45 -76 -136 -125 -164 l-31 -18 0 30 c0 43 10 61 34 61 11 0 27 4 35
9 13 8 13 12 1 26 -11 13 -25 16 -62 13 -41 -4 -48 -2 -48 13 0 9 5 19 11 21
6 2 11 25 11 52 l0 49 28 -32 c16 -17 35 -31 43 -31 22 0 47 34 47 64 0 23 -3
27 -17 21 -41 -18 -57 -11 -66 28 -13 53 -2 82 38 106 19 11 35 28 35 38 0 29
-28 195 -34 200 -10 10 -23 -40 -41 -150 -10 -59 -22 -107 -26 -107 -5 0 -9
44 -9 97 0 101 -16 334 -29 438 -5 35 -4 88 2 126 7 45 7 82 0 111 -9 43 -9
43 -17 -42 l-9 -85 -17 55 -17 55 -11 -40 c-7 -22 -12 -46 -12 -54 0 -8 -3
-11 -7 -8 -3 4 -9 96 -12 205 l-6 197 -8 -296z m50 -261 c-5 -89 -9 -266 -10
-393 0 -126 -5 -233 -9 -236 -5 -3 -2 -30 6 -60 14 -55 12 -75 -4 -49 -17 27
-23 101 -11 140 14 47 15 113 1 105 -5 -3 -11 -23 -11 -43 l-2 -37 -8 40 c-19
90 -21 111 -10 95 6 -8 11 -26 11 -39 0 -13 3 -21 7 -18 3 4 5 109 4 233 -2
171 2 253 15 336 9 61 19 105 23 100 3 -6 2 -84 -2 -174z m-47 -659 c0 -27 -4
-49 -10 -49 -5 0 -10 25 -10 56 0 34 4 53 10 49 6 -3 10 -28 10 -56z m-256
-118 c31 -59 112 -140 171 -170 47 -24 58 -41 26 -41 -80 0 -231 153 -231 235
0 36 6 31 34 -24z m656 29 c0 -61 -91 -180 -166 -218 -62 -31 -84 -36 -84 -18
0 9 21 27 48 40 59 30 155 129 173 179 14 40 29 49 29 17z m-373 -52 c-3 -7
-5 -2 -5 12 0 14 2 19 5 13 2 -7 2 -19 0 -25z m53 -28 l-11 -25 6 25 c2 14 5
34 6 45 2 19 2 19 6 0 2 -12 -1 -32 -7 -45z m-43 -22 c-3 -7 -5 -2 -5 12 0 14
2 19 5 13 2 -7 2 -19 0 -25z m20 -20 c-2 -13 -4 -5 -4 17 -1 22 1 32 4 23 2
-10 2 -28 0 -40z m80 -110 c-2 -18 -4 -4 -4 32 0 36 2 50 4 33 2 -18 2 -48 0
-65z m-160 -5 c-2 -16 -4 -3 -4 27 0 30 2 43 4 28 2 -16 2 -40 0 -55z m150
-165 c-3 -8 -6 -5 -6 6 -1 11 2 17 5 13 3 -3 4 -12 1 -19z m-180 -45 c-3 -10
-5 -4 -5 12 0 17 2 24 5 18 2 -7 2 -21 0 -30z m33 -84 c0 -4 -7 -6 -15 -3 -8
4 -15 10 -15 15 0 4 7 6 15 3 8 -4 15 -10 15 -15z m169 0 c-16 -10 -23 -4 -14
10 3 6 11 8 17 5 6 -4 5 -9 -3 -15z m-32 -66 c-2 -16 -4 -3 -4 27 0 30 2 43 4
28 2 -16 2 -40 0 -55z m-77 -84 c0 -6 -4 -7 -10 -4 -5 3 -10 11 -10 16 0 6 5
7 10 4 6 -3 10 -11 10 -16z m17 -11 c-3 -7 -5 -2 -5 12 0 14 2 19 5 13 2 -7 2
-19 0 -25z m-16 -225 c0 -109 3 -229 7 -266 5 -38 6 -83 3 -100 -3 -24 -12 3
-33 103 -51 240 -54 284 -31 405 5 27 7 28 14 10 7 -18 8 -18 8 -2 1 22 21 61
28 54 2 -3 4 -94 4 -204z m-80 47 c-9 -23 -10 -21 -10 17 -1 56 13 91 17 43 2
-20 -1 -47 -7 -60z"/>
<path d="M1171 764 c0 -11 3 -14 6 -6 3 7 2 16 -1 19 -3 4 -6 -2 -5 -13z"/>
<path d="M1162 680 c0 -14 2 -19 5 -12 2 6 2 18 0 25 -3 6 -5 1 -5 -13z"/>
<path d="M1570 2895 c-1 -5 -3 -18 -5 -27 -2 -10 1 -20 6 -24 12 -7 12 -944 0
-944 -5 0 -28 12 -50 27 l-41 27 0 72 c0 198 24 469 65 736 4 25 3 28 -3 13
-31 -70 -72 -478 -72 -712 l0 -143 28 -11 c15 -6 39 -21 53 -35 l25 -24 23 24
c13 13 37 30 54 37 l30 13 -6 210 c-8 238 -27 421 -63 611 -23 115 -41 179
-44 150z"/>
<path d="M1361 1204 c0 -11 3 -14 6 -6 3 7 2 16 -1 19 -3 4 -6 -2 -5 -13z"/>
<path d="M1331 454 c0 -11 3 -14 6 -6 3 7 2 16 -1 19 -3 4 -6 -2 -5 -13z"/>
</g>
</svg>
