<?xml version="1.0" standalone="no"?>
<!DOCTYPE svg PUBLIC "-//W3C//DTD SVG 20010904//EN"
 "http://www.w3.org/TR/2001/REC-SVG-20010904/DTD/svg10.dtd">
<svg version="1.0" xmlns="http://www.w3.org/2000/svg"
 width="244.000000pt" height="305.000000pt" viewBox="0 0 244.000000 305.000000"
 preserveAspectRatio="xMidYMid meet">
<metadata>
Created by potrace 1.16, written by Peter Selinger 2001-2019
</metadata>
<g transform="translate(0.000000,305.000000) scale(0.100000,-0.100000)"
fill="#000000" stroke="none">
<path d="M930 2893 c0 -10 -3 -29 -5 -43 -5 -22 -4 -22 4 -5 6 13 10 -150 10
-462 1 -316 -2 -483 -9 -483 -5 0 -10 4 -10 8 0 4 -14 16 -32 26 l-31 19 7
227 c6 225 11 280 40 500 19 138 19 170 1 78 -13 -66 -39 -285 -49 -423 -7
-85 -11 -404 -5 -408 2 -1 23 -17 47 -36 l43 -33 27 23 c15 13 28 27 30 32 9
18 43 4 64 -26 13 -19 29 -32 36 -30 7 3 10 -1 6 -11 -5 -14 -9 -13 -31 4 -14
11 -34 20 -45 20 -26 0 -78 -53 -78 -79 0 -32 -17 -25 -25 9 -8 35 -48 70 -80
70 -36 0 -75 -37 -75 -71 0 -27 3 -29 38 -29 29 0 45 -7 64 -27 34 -37 43 -67
23 -83 -19 -16 -19 -75 0 -130 18 -51 22 -241 4 -223 -6 6 -14 36 -18 68 -10
72 -30 91 -71 70 -52 -27 -53 -70 -4 -172 19 -41 33 -77 31 -80 -9 -8 -47 40
-72 91 -31 61 -33 123 -5 168 36 59 18 88 -53 88 -63 0 -83 -52 -52 -140 20
-58 19 -119 -4 -156 -22 -37 -361 -269 -361 -248 0 3 60 66 132 140 l133 135
39 -7 39 -6 -6 77 c-4 43 -7 93 -7 112 0 18 -5 33 -11 33 -9 0 -10 -27 -6 -95
l5 -94 -27 5 c-23 5 -39 -7 -132 -103 -172 -175 -239 -247 -235 -250 3 -3 195
65 354 127 71 27 82 35 82 55 0 13 4 26 10 30 12 7 106 -40 113 -57 2 -7 -8
-40 -24 -73 -16 -33 -29 -64 -29 -68 0 -5 18 5 39 22 40 32 61 39 61 21 0 -5
-15 -16 -34 -24 -33 -14 -34 -16 -84 -197 -80 -289 -104 -380 -100 -384 3 -4
38 39 180 220 35 44 68 86 75 93 7 8 33 42 58 76 42 59 44 66 34 95 -13 36 -6
61 16 61 17 0 16 -20 -6 -165 -5 -33 -8 -69 -8 -80 1 -26 38 182 39 218 0 23
4 27 30 27 17 0 30 -1 30 -2 0 -2 -18 -70 -40 -153 -22 -82 -48 -181 -57 -220
-11 -49 -18 -64 -23 -50 -5 13 -9 0 -14 -39 -3 -32 -5 -60 -3 -62 2 -2 20 40
41 94 21 53 61 150 88 216 44 102 50 124 44 162 -5 37 -3 44 11 44 20 0 73
-48 73 -66 0 -7 -12 -27 -27 -44 l-26 -32 27 -161 c27 -158 69 -387 84 -457 6
-29 14 1 46 175 21 116 42 230 46 255 4 25 13 80 20 123 l14 78 -27 25 c-15
14 -27 31 -27 38 0 21 47 66 70 66 19 0 21 -4 14 -45 -6 -42 1 -64 86 -270 51
-124 94 -224 95 -223 1 2 -6 61 -16 133 -10 72 -25 180 -33 240 -8 61 -18 125
-22 143 -6 29 -4 32 16 32 20 0 22 -3 15 -32 -13 -59 -6 -80 58 -160 34 -43
94 -119 132 -167 39 -49 87 -110 108 -136 41 -53 44 -51 23 21 -16 53 -113
418 -126 472 -8 34 0 41 20 17 7 -8 19 -15 27 -15 12 0 11 6 -5 33 -43 69 -71
129 -66 140 6 15 69 47 94 47 13 0 20 -8 22 -28 3 -26 14 -31 207 -104 113
-43 206 -76 208 -74 2 2 -69 81 -158 176 -151 160 -164 171 -191 166 l-29 -6
6 89 c5 61 4 90 -4 95 -7 5 -11 -5 -11 -29 0 -20 -7 -70 -16 -113 l-16 -77 33
-27 c18 -16 83 -63 144 -105 121 -85 171 -123 158 -123 -4 0 -77 28 -161 62
l-153 63 6 33 c5 28 2 38 -19 57 -22 20 -26 33 -26 77 0 29 7 78 15 108 8 30
15 67 15 82 0 51 -75 77 -120 40 l-22 -18 28 -57 c27 -54 27 -60 16 -104 -7
-27 -27 -69 -45 -96 -26 -39 -33 -44 -35 -27 -2 12 6 37 18 57 12 20 24 58 27
83 5 40 2 51 -16 69 -41 41 -81 18 -81 -48 0 -16 -5 -42 -12 -58 l-11 -28 -7
35 c-7 34 -7 34 -9 5 -1 -21 -4 -26 -12 -18 -14 14 6 163 28 206 8 15 17 50
20 77 5 40 3 51 -11 56 -26 10 -18 48 18 83 27 26 40 32 66 29 26 -2 33 1 36
16 3 21 -12 57 -30 68 -39 26 -109 -7 -122 -57 -8 -33 -20 -32 -32 3 -17 48
-51 75 -85 68 -16 -3 -36 -14 -43 -24 -12 -16 -13 -15 -14 6 0 13 4 21 9 17 5
-3 19 8 31 24 24 35 39 33 86 -11 l30 -28 20 21 c10 11 31 27 46 35 28 14 28
16 28 112 0 131 -17 426 -31 531 -24 197 -67 409 -69 339 0 -9 -3 -25 -6 -35
-5 -15 -4 -15 5 -3 8 11 11 -120 11 -467 0 -266 -2 -483 -5 -483 -3 0 -21 10
-40 23 l-35 22 0 145 c1 80 5 199 10 265 5 66 12 154 14 195 5 69 4 67 -9 -25
-7 -55 -18 -147 -23 -205 l-9 -105 -2 110 c-1 131 -19 406 -30 484 -6 36 -9
-90 -11 -349 -2 -223 -5 -395 -7 -382 -2 12 -9 22 -14 22 -5 0 -10 -10 -11
-22 -1 -13 -5 36 -8 107 l-6 130 -3 -180 c-3 -228 -14 -305 -23 -160 -11 165
-27 346 -38 415 -20 124 -42 213 -50 199 -27 -50 -63 -337 -78 -614 -7 -150
-19 -99 -21 95 -3 288 -36 829 -48 816 -3 -2 -4 -201 -5 -442 0 -456 -3 -517
-22 -511 -7 2 -13 47 -17 118 -27 477 -32 523 -85 822 -7 37 -24 52 -24 20z
m300 -854 c0 -412 -3 -452 -30 -385 -9 21 -9 21 -9 -2 -1 -13 -5 -20 -11 -17
-6 4 -4 20 6 43 16 39 18 236 2 226 -10 -6 -9 255 2 346 6 55 7 42 10 -85 l4
-150 7 175 c3 96 7 196 8 223 0 26 3 47 6 47 3 0 5 -189 5 -421z m-23 294 c-3
-10 -5 -2 -5 17 0 19 2 27 5 18 2 -10 2 -26 0 -35z m-30 -570 c-2 -16 -4 -3
-4 27 0 30 2 43 4 28 2 -16 2 -40 0 -55z m-132 -13 c3 -5 7 -57 8 -116 l2
-106 -21 26 c-12 13 -25 44 -29 67 -4 24 -13 49 -21 56 -14 15 -9 38 14 66 17
19 38 22 47 7z m315 -18 c0 -15 -2 -15 -10 -2 -13 20 -13 33 0 25 6 -3 10 -14
10 -23z m119 -4 c12 -21 13 -31 4 -50 -7 -13 -17 -42 -23 -65 -6 -22 -18 -51
-28 -63 -17 -20 -17 -17 -16 84 1 57 5 110 9 116 11 18 38 7 54 -22z m-325
-83 c4 -21 13 -35 21 -35 8 0 25 -18 37 -39 l22 -39 24 39 c13 21 29 39 36 39
8 0 17 16 20 35 4 19 10 35 14 35 15 0 30 -39 25 -61 -8 -30 -20 -39 -54 -39
-22 0 -30 -8 -43 -40 -9 -22 -16 -48 -17 -58 0 -9 -7 4 -14 29 -17 63 -20 66
-65 74 -38 6 -40 8 -40 44 0 61 24 72 34 16z m-194 -61 c12 -36 7 -55 -10 -38
-5 5 -13 24 -16 42 -9 44 11 41 26 -4z m127 -1 c-3 -10 -5 -4 -5 12 0 17 2 24
5 18 2 -7 2 -21 0 -30z m300 5 c-3 -7 -5 -2 -5 12 0 14 2 19 5 13 2 -7 2 -19
0 -25z m143 5 c0 -35 -16 -61 -28 -48 -6 6 -4 23 4 43 17 39 24 41 24 5z
m-411 -99 c17 -47 5 -57 -14 -11 -17 42 -18 47 -7 47 4 0 14 -16 21 -36z m247
-8 c-8 -20 -20 -36 -25 -36 -11 0 3 42 22 68 17 22 19 5 3 -32z m-266 -97 c0
-6 -7 -9 -16 -7 -17 3 -28 18 -38 51 -3 9 -15 17 -26 17 -15 0 -20 7 -20 27 0
26 2 26 50 -25 28 -29 50 -57 50 -63z m370 86 c0 -18 -5 -25 -20 -25 -13 0
-22 -9 -26 -25 -8 -32 -54 -61 -54 -35 0 10 88 110 96 110 2 0 4 -11 4 -25z
m-531 -110 c0 -36 -2 -46 -9 -35 -5 8 -9 42 -9 75 1 73 17 39 18 -40z m241 9
c0 -8 -4 -12 -10 -9 -5 3 -10 13 -10 21 0 8 5 12 10 9 6 -3 10 -13 10 -21z
m121 -7 c-8 -8 -11 -7 -11 4 0 9 3 19 7 23 4 4 9 2 11 -4 3 -7 -1 -17 -7 -23z
m-212 -161 c21 -25 31 -10 31 45 0 27 4 49 9 49 5 0 16 3 25 6 9 3 16 1 16 -5
0 -6 -6 -11 -14 -11 -15 0 -29 -38 -20 -52 3 -5 17 -13 30 -18 14 -6 24 -18
24 -29 0 -23 -16 -36 -25 -21 -5 8 -14 7 -29 -3 -16 -11 -24 -11 -33 -3 -7 6
-19 16 -27 23 -18 15 -30 85 -20 115 7 19 9 13 14 -28 3 -28 11 -59 19 -68z
m331 63 c0 -41 -20 -88 -41 -94 -10 -4 -19 -11 -19 -17 0 -7 -5 -6 -14 2 -8 6
-25 10 -38 8 -36 -5 -37 36 -1 54 23 12 28 19 25 47 -1 22 2 31 10 29 8 -3 11
-21 9 -50 -1 -27 2 -49 9 -53 19 -12 39 28 40 80 0 36 3 46 10 35 5 -8 10 -27
10 -41z m-105 31 c3 -5 1 -10 -4 -10 -6 0 -11 5 -11 10 0 6 2 10 4 10 3 0 8
-4 11 -10z m-395 -77 c0 -20 -18 -16 -30 7 -15 28 -1 49 17 25 7 -11 13 -25
13 -32z m640 -9 c0 -8 -5 -12 -10 -9 -6 4 -8 11 -5 16 9 14 15 11 15 -7z
m-520 -27 c0 -5 -4 -5 -10 -2 -5 3 -10 14 -10 23 0 15 2 15 10 2 5 -8 10 -19
10 -23z m410 8 c0 -8 -4 -15 -10 -15 -5 0 -7 7 -4 15 4 8 8 15 10 15 2 0 4 -7
4 -15z m-583 -30 c8 -22 -6 -33 -17 -15 -13 20 -12 30 0 30 6 0 13 -7 17 -15z
m743 -33 c0 -5 -7 -17 -15 -28 -14 -19 -14 -19 -15 2 0 11 3 24 7 27 9 10 23
9 23 -1z m-705 -114 c-4 -24 -29 -87 -56 -139 -27 -52 -83 -163 -126 -246 -42
-84 -78 -152 -79 -150 -3 3 13 62 61 232 64 226 61 219 103 234 43 16 52 26
52 61 0 33 29 75 42 62 5 -5 7 -29 3 -54z m678 50 c2 -7 2 -27 0 -44 -6 -36
23 -104 149 -358 43 -87 77 -160 75 -163 -4 -3 -147 183 -234 305 -33 46 -34
54 -17 220 5 49 17 67 27 40z m-783 -4 c0 -3 -5 -14 -10 -25 -16 -28 -32 -23
-18 6 10 22 28 35 28 19z m910 -51 c0 -7 -3 -13 -8 -13 -13 0 -42 39 -42 57 0
14 4 12 25 -7 14 -13 25 -29 25 -37z m-18 -31 c-16 -5 -53 17 -47 28 4 6 17 2
32 -7 14 -9 21 -19 15 -21z m-446 -28 c18 25 18 9 -1 -24 l-13 -25 -11 28
c-14 36 -13 61 0 27 10 -24 11 -24 25 -6z m179 -24 c6 -10 115 -436 115 -448
0 -4 -32 73 -70 172 -56 142 -70 190 -70 232 0 50 10 68 25 44z m-196 -312
l-2 -263 -23 210 c-20 187 -23 173 -9 -40 l5 -70 -19 90 c-10 50 -24 124 -31
167 l-12 76 27 36 c34 44 40 42 20 -7 -9 -22 -11 -37 -5 -37 5 0 10 7 10 15 0
14 31 85 37 85 2 0 2 -118 2 -262z"/>
<path d="M1502 2795 c0 -16 2 -22 5 -12 2 9 2 23 0 30 -3 6 -5 -1 -5 -18z"/>
<path d="M1062 2740 c0 -14 2 -19 5 -12 2 6 2 18 0 25 -3 6 -5 1 -5 -13z"/>
<path d="M1486 2711 c-4 -24 -5 -46 -2 -48 7 -7 19 63 14 79 -3 7 -8 -7 -12
-31z"/>
<path d="M1362 2650 c0 -14 2 -19 5 -12 2 6 2 18 0 25 -3 6 -5 1 -5 -13z"/>
<path d="M1053 2575 c0 -27 2 -38 4 -22 2 15 2 37 0 50 -2 12 -4 0 -4 -28z"/>
<path d="M1353 2490 c0 -30 2 -43 4 -27 2 15 2 39 0 55 -2 15 -4 2 -4 -28z"/>
<path d="M1044 2330 c0 -63 1 -89 3 -57 2 31 2 83 0 115 -2 31 -3 5 -3 -58z"/>
<path d="M1562 1430 c0 -19 2 -27 5 -17 2 9 2 25 0 35 -3 9 -5 1 -5 -18z"/>
<path d="M935 610 c-4 -34 -5 -63 -2 -66 2 -3 7 23 11 57 4 33 5 63 3 66 -3 2
-8 -23 -12 -57z"/>
</g>
</svg>
