<?xml version="1.0" standalone="no"?>
<!DOCTYPE svg PUBLIC "-//W3C//DTD SVG 20010904//EN"
 "http://www.w3.org/TR/2001/REC-SVG-20010904/DTD/svg10.dtd">
<svg version="1.0" xmlns="http://www.w3.org/2000/svg"
 width="244.000000pt" height="305.000000pt" viewBox="0 0 244.000000 305.000000"
 preserveAspectRatio="xMidYMid meet">
<metadata>
Created by potrace 1.16, written by Peter Selinger 2001-2019
</metadata>
<g transform="translate(0.000000,305.000000) scale(0.100000,-0.100000)"
fill="#000000" stroke="none">
<path d="M938 2886 c-3 -17 -2 -41 3 -54 10 -26 13 -915 3 -925 -4 -3 -22 7
-42 23 l-35 28 2 184 c2 193 12 333 37 511 17 121 14 171 -4 62 -34 -206 -66
-795 -43 -795 6 0 26 -13 44 -30 19 -16 38 -30 41 -30 4 0 19 11 34 25 32 30
58 32 72 6 14 -27 13 -29 -15 -23 -32 6 -60 -19 -76 -65 l-11 -35 -22 38 c-40
72 -110 84 -141 24 -25 -49 -20 -60 26 -60 33 0 47 -6 70 -31 34 -36 35 -47
12 -87 -15 -27 -15 -33 0 -98 35 -146 40 -201 27 -271 -12 -61 -14 -65 -27
-47 -12 16 -12 19 1 22 18 4 20 51 6 137 l-7 50 -3 -55 -3 -55 -6 54 c-5 44
-10 55 -29 62 -18 7 -29 3 -49 -17 -21 -21 -25 -32 -21 -67 3 -23 14 -62 26
-87 34 -75 0 -76 -37 -1 -32 64 -34 112 -6 167 14 27 25 54 25 61 0 34 -96 45
-123 15 -21 -23 -21 -62 -2 -126 20 -66 19 -115 -4 -152 -21 -35 -334 -254
-346 -243 -2 3 53 64 123 138 l127 133 39 -7 39 -8 -6 78 c-4 43 -7 93 -7 112
0 23 -4 32 -11 27 -8 -5 -10 -34 -6 -95 l6 -88 -31 6 c-17 3 -33 1 -37 -5 -6
-10 -116 -127 -249 -265 -41 -42 -73 -79 -70 -82 4 -4 126 39 325 117 90 35
103 43 103 63 0 13 4 26 8 29 12 7 92 -31 92 -44 0 -6 -16 -42 -35 -80 -19
-39 -33 -70 -30 -70 3 0 30 16 61 37 43 29 57 34 67 24 9 -10 7 -17 -12 -32
-13 -10 -29 -19 -36 -19 -7 0 -15 -10 -18 -22 -3 -13 -21 -79 -40 -148 -58
-209 -108 -402 -105 -405 3 -4 102 118 248 308 46 59 84 106 86 104 1 -1 -10
-90 -26 -197 -15 -107 -27 -196 -26 -198 2 -1 9 12 16 30 8 18 49 114 92 213
67 152 79 187 76 225 -3 45 0 50 27 50 17 0 65 -49 65 -67 0 -6 -12 -26 -26
-43 l-27 -31 28 -157 c15 -86 37 -213 50 -282 13 -69 27 -145 31 -170 l7 -45
9 40 c5 22 22 117 38 210 16 94 38 224 50 289 l20 120 -26 27 c-20 21 -25 34
-20 54 7 26 62 68 81 62 6 -2 9 -26 7 -53 -3 -42 5 -69 48 -169 29 -66 70
-163 92 -215 23 -52 44 -99 48 -103 4 -4 -6 79 -22 185 -16 106 -27 199 -26
207 2 8 74 -77 161 -188 86 -112 157 -200 157 -196 0 19 -135 518 -150 552 -5
12 -19 23 -32 25 -15 2 -24 11 -26 26 -5 31 17 28 58 -8 19 -16 39 -29 44 -30
5 0 18 -7 28 -17 34 -31 29 -5 -16 77 -26 45 -46 86 -46 91 0 11 54 39 74 39
9 0 16 -11 18 -27 3 -25 14 -32 153 -86 175 -68 258 -98 261 -94 1 1 -70 79
-158 172 -141 151 -162 170 -189 168 l-30 -1 7 88 c4 60 3 89 -5 94 -7 5 -11
-5 -11 -31 0 -21 -7 -69 -15 -108 -8 -38 -15 -73 -15 -77 0 -4 48 -43 108 -87
202 -150 222 -165 218 -168 -2 -2 -48 15 -102 38 -54 23 -123 51 -152 63 -53
21 -53 21 -47 58 5 26 2 39 -8 45 -39 23 -47 98 -22 193 8 30 15 67 15 82 0
53 -80 78 -121 37 l-20 -20 25 -44 c38 -64 30 -146 -18 -202 -31 -36 -39 -17
-15 36 40 90 17 164 -49 159 -35 -2 -36 -5 -49 -123 -6 -59 -8 -64 -13 -35 -4
31 -1 74 26 293 6 47 4 61 -10 76 -16 18 -16 22 -2 50 21 40 57 63 93 59 26
-3 28 -1 26 30 -2 45 -19 62 -63 62 -40 0 -71 -26 -85 -71 -8 -24 -25 -25 -25
-1 0 9 -9 32 -21 51 -17 28 -25 32 -49 29 -31 -5 -34 -1 -24 26 10 25 43 19
77 -15 30 -30 31 -31 46 -13 9 11 29 27 45 38 l29 18 -7 252 c-7 254 -20 388
-56 596 -11 63 -20 119 -20 124 0 5 -3 7 -6 3 -3 -3 -5 -229 -4 -501 0 -273
-3 -496 -7 -496 -4 1 -21 11 -37 24 l-29 24 6 258 c3 143 13 311 21 374 16
117 19 156 9 133 -2 -7 -13 -81 -23 -165 -10 -84 -18 -131 -19 -105 -2 80 -31
410 -39 435 -4 12 -6 -186 -5 -440 0 -255 0 -456 -2 -448 -2 8 -7 36 -10 63
-4 29 -11 47 -19 47 -17 0 -26 -32 -26 -98 0 -33 -4 -51 -10 -47 -5 3 -10 35
-10 70 0 35 -4 67 -10 70 -5 3 -10 36 -10 73 -1 113 -52 443 -67 428 -20 -20
-63 -313 -63 -430 0 -36 -5 -68 -10 -71 -5 -3 -10 -34 -10 -68 0 -34 -5 -69
-10 -77 -5 -8 -10 -13 -10 -10 -1 3 -5 138 -10 300 -10 331 -34 659 -47 646
-6 -6 -5 -295 2 -561 6 -208 -2 -415 -15 -415 -17 0 -22 69 -23 309 -1 135 -4
226 -8 201 l-6 -45 -2 40 c-3 97 -47 396 -69 470 l-9 30 -5 -29z m292 -846 c0
-369 -2 -419 -15 -414 -13 5 -15 38 -17 203 -1 149 -3 176 -8 111 -6 -80 -6
-77 -8 51 -1 75 1 178 6 230 l7 94 6 -105 c6 -101 6 -100 5 34 -1 77 2 128 5
115 5 -15 7 -2 8 39 1 34 3 62 6 62 3 0 5 -189 5 -420z m-130 -185 c0 -8 -4
-15 -10 -15 -5 0 -10 7 -10 15 0 8 5 15 10 15 6 0 10 -7 10 -15z m290 -1 c0
-8 -4 -12 -10 -9 -5 3 -10 10 -10 16 0 5 5 9 10 9 6 0 10 -7 10 -16z m-20
-126 c0 -14 -18 -9 -24 8 -11 28 -6 39 9 20 8 -11 15 -23 15 -28z m-330 7 c5
-14 7 -61 3 -105 -5 -69 -8 -77 -19 -62 -7 9 -14 31 -14 48 0 16 -7 39 -15 50
-19 25 -19 44 1 72 20 29 32 28 44 -3z m90 18 c0 -14 -19 -38 -25 -32 -8 8 5
39 16 39 5 0 9 -3 9 -7z m347 -28 c15 -32 15 -36 0 -53 -9 -10 -17 -28 -17
-39 0 -11 -6 -35 -13 -53 -14 -31 -14 -29 -21 55 -9 119 16 163 51 90z m-287
-66 c0 -16 -4 -28 -9 -25 -8 5 -3 56 5 56 2 0 4 -14 4 -31z m-9 -52 c8 -2 24
-21 34 -42 l18 -39 19 38 c10 20 26 40 34 43 8 3 21 21 30 39 13 28 19 32 31
23 9 -8 13 -26 11 -48 -3 -35 -5 -36 -45 -39 -24 -2 -43 -4 -43 -5 -3 -21 -39
-107 -39 -95 -1 10 -8 35 -17 57 -14 36 -20 41 -60 47 -41 6 -44 8 -44 38 0
18 6 38 13 45 10 10 15 6 27 -23 8 -19 22 -37 31 -39z m-208 -40 c13 -29 45
-77 71 -105 49 -56 62 -91 26 -72 -11 6 -25 20 -31 33 -7 12 -20 28 -29 34
-10 7 -21 25 -25 40 -3 16 -15 36 -26 46 -16 15 -28 77 -15 77 3 0 15 -24 29
-53z m109 28 c3 -14 1 -25 -3 -25 -5 0 -9 11 -9 25 0 14 2 25 4 25 2 0 6 -11
8 -25z m315 -22 c-3 -10 -5 -2 -5 17 0 19 2 27 5 18 2 -10 2 -26 0 -35z m133
24 c0 -13 -11 -38 -25 -57 -14 -19 -25 -40 -25 -48 0 -8 -11 -26 -25 -41 -14
-14 -35 -36 -47 -49 -13 -13 -24 -18 -26 -12 -4 11 5 26 67 103 21 27 44 66
50 88 13 43 31 52 31 16z m-140 -69 c0 -17 -40 -82 -46 -75 -6 5 33 87 41 87
3 0 5 -6 5 -12z m-277 -34 c12 -24 14 -35 5 -32 -14 5 -42 68 -30 68 5 0 16
-16 25 -36z m51 0 c10 -25 -1 -29 -14 -5 -6 12 -7 21 -1 21 5 0 12 -7 15 -16z
m160 1 c-4 -8 -11 -15 -16 -15 -6 0 -5 6 2 15 7 8 14 15 16 15 2 0 1 -7 -2
-15z m-344 -107 c0 -16 -3 -19 -11 -11 -6 6 -8 16 -5 22 11 17 16 13 16 -11z
m530 -5 c-1 -24 -2 -26 -11 -10 -5 9 -7 22 -4 27 10 17 15 11 15 -17z m-330
-9 c0 -8 -4 -12 -10 -9 -5 3 -10 13 -10 21 0 8 5 12 10 9 6 -3 10 -13 10 -21z
m121 -7 c-8 -8 -11 -7 -11 4 0 9 3 19 7 23 4 4 9 2 11 -4 3 -7 -1 -17 -7 -23z
m-238 -87 c-6 -46 17 -93 42 -84 12 5 14 16 9 54 -6 45 -5 47 20 52 29 6 45
-6 21 -16 -25 -9 -18 -55 10 -66 18 -7 25 -17 25 -35 0 -28 -3 -29 -29 -16 -9
5 -23 6 -30 1 -8 -4 -27 -3 -42 2 -34 12 -54 68 -43 123 9 48 23 35 17 -15z
m363 -44 c-9 -50 -30 -66 -82 -66 -24 0 -47 0 -51 0 -5 -1 -9 8 -11 20 -2 14
4 23 22 30 20 7 26 17 26 39 0 20 -6 31 -17 34 -10 3 -3 5 16 6 l34 1 -7 -49
c-7 -57 5 -72 35 -45 14 13 19 31 20 73 1 53 2 54 11 24 6 -17 8 -48 4 -67z
m131 -8 c-3 -8 -6 -5 -6 6 -1 11 2 17 5 13 3 -3 4 -12 1 -19z m-703 -34 c11
-27 7 -37 -9 -24 -16 14 -20 40 -6 40 5 0 12 -7 15 -16z m606 -14 c0 -5 -5
-10 -11 -10 -5 0 -7 5 -4 10 3 6 8 10 11 10 2 0 4 -4 4 -10z m150 -23 c0 -7
-7 -22 -15 -33 -12 -16 -14 -17 -15 -2 0 23 11 48 21 48 5 0 9 -6 9 -13z m-30
-129 c0 -56 8 -76 110 -291 60 -127 108 -232 107 -234 -4 -3 -58 69 -210 277
-49 67 -53 77 -46 105 5 16 9 64 9 107 0 42 3 83 6 92 12 31 24 4 24 -56z
m-790 53 c0 -12 -41 -63 -47 -57 -7 7 26 66 37 66 6 0 10 -4 10 -9z m120 -41
c0 -44 -15 -81 -127 -305 -70 -140 -128 -253 -129 -252 -2 2 5 32 15 67 10 36
38 136 62 223 l44 159 45 21 c42 21 45 25 48 67 6 80 42 98 42 20z m808 5 c17
-24 32 -47 32 -50 0 -4 -20 8 -45 26 -25 18 -45 40 -45 51 0 30 23 20 58 -27z
m-472 -91 c17 24 18 16 2 -19 -14 -31 -24 -32 -32 -2 -9 35 -6 55 5 27 10 -24
11 -24 25 -6z m-283 -54 c-6 -22 -7 -22 -13 -4 -9 23 -1 49 11 37 5 -5 5 -19
2 -33z m77 31 c0 -5 -7 -31 -15 -57 -41 -135 -64 -215 -80 -277 -10 -37 -20
-65 -22 -63 -5 4 13 125 44 309 16 96 17 97 45 97 15 0 28 -4 28 -9z m429
-113 c18 -68 45 -170 61 -228 16 -58 27 -106 26 -107 -2 -2 -17 32 -34 74 -17
43 -49 121 -71 173 -31 73 -40 108 -41 153 0 42 4 57 14 57 9 0 24 -41 45
-122z m48 90 c-3 -7 -5 -2 -5 12 0 14 2 19 5 13 2 -7 2 -19 0 -25z m-288 -290
c-1 -145 -3 -254 -5 -243 -2 11 -13 107 -24 214 l-19 194 21 49 c11 26 22 48
24 48 2 0 3 -118 3 -262z m-44 204 c-14 -34 -14 -53 0 -182 23 -225 15 -218
-25 22 l-22 127 29 35 c15 20 29 36 30 36 2 0 -4 -17 -12 -38z"/>
<path d="M922 2810 c0 -14 2 -19 5 -12 2 6 2 18 0 25 -3 6 -5 1 -5 -13z"/>
<path d="M1382 2805 c0 -16 2 -22 5 -12 2 9 2 23 0 30 -3 6 -5 -1 -5 -18z"/>
<path d="M1501 2814 c0 -11 3 -14 6 -6 3 7 2 16 -1 19 -3 4 -6 -2 -5 -13z"/>
<path d="M1492 2755 c0 -16 2 -22 5 -12 2 9 2 23 0 30 -3 6 -5 -1 -5 -18z"/>
<path d="M1372 2690 c0 -19 2 -27 5 -17 2 9 2 25 0 35 -3 9 -5 1 -5 -18z"/>
<path d="M1043 2595 c0 -27 2 -38 4 -22 2 15 2 37 0 50 -2 12 -4 0 -4 -28z"/>
<path d="M1363 2550 c0 -30 2 -43 4 -27 2 15 2 39 0 55 -2 15 -4 2 -4 -28z"/>
<path d="M1353 2310 c0 -30 2 -43 4 -27 2 15 2 39 0 55 -2 15 -4 2 -4 -28z"/>
<path d="M1352 2195 c0 -16 2 -22 5 -12 2 9 2 23 0 30 -3 6 -5 -1 -5 -18z"/>
</g>
</svg>
