<?xml version="1.0" standalone="no"?>
<!DOCTYPE svg PUBLIC "-//W3C//DTD SVG 20010904//EN"
 "http://www.w3.org/TR/2001/REC-SVG-20010904/DTD/svg10.dtd">
<svg version="1.0" xmlns="http://www.w3.org/2000/svg"
 width="244.000000pt" height="305.000000pt" viewBox="0 0 244.000000 305.000000"
 preserveAspectRatio="xMidYMid meet">
<metadata>
Created by potrace 1.16, written by Peter Selinger 2001-2019
</metadata>
<g transform="translate(0.000000,305.000000) scale(0.100000,-0.100000)"
fill="#000000" stroke="none">
<path d="M1027 2682 c1 -234 -13 -259 -19 -32 -2 63 -5 99 -7 80 -2 -24 -5
-30 -10 -18 -3 9 -6 -51 -6 -135 0 -84 2 -127 5 -97 11 113 22 6 27 -267 5
-243 4 -273 -10 -273 -9 0 -23 8 -33 17 -16 17 -17 16 -10 -20 5 -24 3 -37 -4
-37 -8 0 -10 144 -8 500 2 274 0 496 -3 492 -8 -9 -35 -155 -54 -292 -8 -58
-20 -232 -26 -388 -11 -290 -9 -312 26 -312 19 0 36 -25 29 -44 -4 -12 -10
-13 -24 -6 -54 29 -110 -2 -110 -62 0 -25 2 -26 33 -21 27 4 39 0 60 -21 36
-36 43 -63 21 -87 -13 -15 -16 -29 -11 -69 6 -50 6 -50 -23 -50 -34 0 -50 -23
-50 -72 0 -24 -3 -29 -9 -19 -15 24 -25 -32 -17 -100 6 -62 -7 -80 -24 -33
-17 43 -12 109 10 137 26 33 25 52 -2 71 -31 22 -74 20 -99 -5 -23 -23 -23
-20 6 -153 20 -90 10 -150 -26 -161 -16 -5 -19 -12 -13 -40 l6 -33 -94 -45
c-113 -53 -207 -91 -213 -85 -3 2 34 31 81 64 47 32 121 86 165 119 l80 60 -6
40 c-3 22 -10 73 -15 114 -14 108 -23 101 -18 -12 l5 -98 -26 6 c-23 5 -36 -4
-98 -67 -122 -127 -254 -270 -250 -274 3 -3 307 109 327 121 19 11 10 -10 -25
-65 -19 -30 -35 -59 -35 -63 0 -7 130 58 238 119 32 19 33 19 47 0 25 -34 19
-72 -14 -85 -26 -12 -31 -23 -66 -154 -21 -78 -47 -173 -57 -212 -35 -124 -55
-205 -51 -205 9 0 129 148 188 233 8 12 17 18 20 15 4 -3 -4 -65 -18 -138 -15
-84 -19 -126 -12 -118 7 7 62 107 124 222 106 198 112 212 109 260 l-3 51 39
-2 c43 -3 80 -23 96 -53 8 -15 5 -25 -19 -53 l-30 -34 14 -84 c70 -422 105
-611 105 -562 0 6 22 138 50 294 27 156 52 299 55 317 5 27 1 39 -25 68 -25
29 -28 38 -19 55 22 41 116 77 133 51 3 -4 1 -26 -4 -47 -8 -37 -5 -47 54
-155 35 -63 81 -146 101 -185 54 -98 75 -132 75 -119 0 5 -9 59 -20 119 -11
60 -20 115 -20 123 0 15 34 -24 130 -148 19 -25 37 -47 41 -50 3 -3 18 -23 32
-45 15 -22 27 -33 27 -25 0 15 -29 127 -89 350 -17 63 -37 137 -43 164 -10 41
-17 51 -45 62 -26 11 -33 20 -33 42 0 15 7 36 15 46 14 18 19 17 134 -42 65
-34 121 -62 125 -62 3 0 -10 25 -30 55 -21 30 -35 57 -32 60 5 5 60 -13 243
-84 71 -28 131 -48 133 -46 3 2 -69 83 -159 179 -154 164 -166 174 -195 170
l-32 -4 4 92 c3 61 1 86 -5 73 -5 -11 -10 -59 -12 -105 l-4 -85 40 3 c39 3 43
0 126 -90 141 -153 175 -192 159 -183 -64 35 -304 199 -331 226 -31 30 -34 38
-33 89 0 30 8 82 17 115 21 79 9 109 -46 113 -24 2 -48 -3 -63 -13 l-25 -16
25 -44 c26 -44 31 -77 20 -134 -4 -21 -12 -31 -24 -31 -15 0 -17 5 -10 36 10
42 -17 145 -32 122 -5 -8 -8 -2 -8 19 0 35 -22 63 -49 63 -15 0 -17 7 -13 56
4 45 1 59 -12 66 -24 13 -20 33 15 73 24 27 39 35 65 35 40 0 49 15 35 53 -14
36 -55 52 -93 36 -15 -6 -28 -16 -28 -22 0 -6 -8 -4 -17 6 -16 16 -15 18 7 42
13 13 31 27 42 31 17 5 18 18 16 182 l-2 177 -6 -162 -5 -162 -35 -26 -35 -26
-3 78 c-2 43 -2 270 0 505 2 234 0 424 -3 422 -3 -2 -14 -53 -24 -114 -11 -61
-22 -105 -26 -98 -3 7 -10 46 -13 87 -16 168 -21 83 -21 -385 0 -272 -3 -494
-6 -494 -15 0 -39 72 -40 122 -1 29 -4 64 -9 78 l-7 25 -10 -25 c-6 -14 -13
-34 -16 -45 -3 -13 -5 -9 -6 13 -1 38 -21 44 -21 6 0 -14 -4 -23 -8 -20 -5 3
-11 65 -15 138 -5 124 -40 365 -57 397 -6 11 -9 10 -13 -5 -22 -71 -49 -284
-54 -424 -4 -93 -10 -156 -14 -145 -4 11 -8 35 -8 53 -1 36 -21 45 -22 10 -1
-21 -2 -21 -13 5 -7 15 -15 25 -18 22 -2 -3 -8 91 -11 208 -6 204 -41 574 -55
589 -4 4 -6 -95 -5 -220z m53 -803 c0 -5 -7 -9 -15 -9 -15 0 -20 12 -9 23 8 8
24 -1 24 -14z m-76 5 c23 -9 20 -24 -4 -24 -11 0 -20 7 -20 15 0 17 2 18 24 9z
m407 -7 c-1 -12 -15 -9 -19 4 -3 6 1 10 8 8 6 -3 11 -8 11 -12z m87 -4 c2 -8
-5 -13 -17 -13 -12 0 -21 6 -21 16 0 18 31 15 38 -3z m-368 -121 c0 -4 -9 -13
-19 -19 -15 -10 -22 -9 -31 2 -10 12 -8 16 11 24 24 9 39 6 39 -7z m260 -8 c0
-7 -5 -16 -10 -19 -13 -8 -43 22 -36 34 8 13 46 1 46 -15z m-390 -58 c-14 -14
-24 0 -16 21 6 15 8 15 16 3 6 -9 5 -19 0 -24z m488 12 c-4 -27 -28 -36 -28
-10 0 20 8 32 22 32 5 0 8 -10 6 -22z m-423 -8 c3 -5 1 -10 -4 -10 -6 0 -11 5
-11 10 0 6 2 10 4 10 3 0 8 -4 11 -10z m95 -52 c0 -10 9 -22 21 -28 11 -7 27
-27 35 -46 8 -19 16 -34 19 -34 3 0 11 16 20 36 8 20 24 38 35 41 11 3 20 14
20 24 0 11 7 19 18 20 9 0 27 2 40 5 19 3 22 0 22 -25 0 -50 -8 -61 -37 -50
-13 5 -31 9 -38 9 -23 0 -54 -41 -66 -85 l-11 -40 -20 53 c-23 62 -44 77 -94
63 -32 -9 -36 -8 -45 15 -19 52 -13 62 36 60 35 -1 45 -5 45 -18z m-133 -193
c4 -17 2 -17 -16 5 -35 41 -76 144 -65 162 6 9 70 -125 81 -167z m403 110
c-16 -43 -23 -23 -9 26 9 31 14 38 16 23 2 -11 -1 -33 -7 -49z m100 48 c-2
-43 -82 -194 -96 -180 -3 3 8 32 25 66 16 34 35 78 41 97 12 36 30 46 30 17z
m-482 -33 c11 -32 10 -33 -3 -16 -8 11 -15 29 -15 40 0 25 4 19 18 -24z m102
-60 c11 -11 20 -24 20 -29 0 -5 3 -16 6 -25 12 -31 -14 -15 -40 24 -14 22 -26
42 -26 45 0 12 21 4 40 -15z m210 13 c0 -13 -53 -83 -62 -83 -11 0 -1 36 18
68 13 20 44 31 44 15z m-434 -98 c-8 -22 -12 -66 -10 -104 l4 -66 -15 55 c-19
72 -18 99 1 146 21 51 39 25 20 -31z m634 26 c11 -22 12 -101 0 -146 -9 -37
-12 -27 -15 50 -1 33 -5 72 -10 88 -9 32 9 38 25 8z m-376 -82 c5 -5 7 -11 4
-14 -7 -8 -58 16 -58 27 0 10 40 1 54 -13z m137 1 c-28 -24 -41 -25 -41 -6 0
13 18 20 55 24 6 1 -1 -8 -14 -18z m-178 -106 c-5 -29 -2 -35 21 -44 16 -6 26
-17 26 -29 0 -24 -36 -48 -43 -28 -2 8 -23 11 -65 9 -51 -2 -62 1 -62 14 0 12
7 14 30 9 33 -7 33 -9 30 72 l-1 52 34 -11 c33 -10 35 -13 30 -44z m245 -6
c-2 -38 1 -62 7 -61 6 0 19 3 30 5 13 2 20 -3 20 -12 0 -12 -13 -15 -58 -15
-35 -1 -61 -6 -66 -13 -12 -20 -41 -2 -41 24 0 17 8 27 26 34 21 8 25 16 22
41 -2 24 2 34 22 44 39 22 42 19 38 -47z m-558 -8 c0 -11 -4 -20 -10 -20 -5 0
-10 9 -10 20 0 11 5 20 10 20 6 0 10 -9 10 -20z m820 -30 c0 -5 -2 -10 -4 -10
-3 0 -8 5 -11 10 -3 6 -1 10 4 10 6 0 11 -4 11 -10z m-680 -46 c0 -8 -4 -12
-10 -9 -5 3 -10 13 -10 21 0 8 5 12 10 9 6 -3 10 -13 10 -21z m529 -10 c-6
-16 -13 -24 -16 -17 -5 13 16 58 23 50 3 -2 -1 -17 -7 -33z m-780 -13 c7 -5
12 -13 10 -17 -6 -13 -135 -134 -143 -134 -11 0 54 91 69 96 8 3 18 19 24 35
11 31 17 34 40 20z m877 -85 c0 -83 14 -110 65 -121 23 -5 31 -14 40 -48 6
-23 33 -120 60 -216 28 -96 48 -178 47 -182 -2 -5 -44 74 -95 174 -157 312
-161 320 -157 367 3 44 21 100 33 100 4 0 7 -33 7 -74z m-692 37 c25 -49 27
-106 6 -139 -11 -16 -20 -41 -20 -55 0 -15 -8 -60 -18 -100 -16 -63 -32 -92
-101 -189 -46 -63 -85 -117 -88 -120 -14 -13 16 58 82 195 40 83 85 176 100
209 29 61 36 122 21 189 -10 44 -2 48 18 10z m887 -20 c25 -27 52 -57 60 -67
13 -18 13 -19 -11 -6 -14 7 -53 31 -88 53 -51 32 -60 42 -51 53 20 24 43 15
90 -33z m-498 -10 c-7 -2 -13 -17 -13 -31 0 -36 -17 -94 -33 -116 -13 -17 -14
-17 -29 6 -8 13 -18 39 -22 58 -6 35 -6 35 14 -7 10 -24 22 -43 25 -43 11 0
35 68 35 98 0 31 7 42 24 41 6 0 5 -3 -1 -6z m-315 -158 c-2 -14 -7 -26 -13
-26 -5 0 -11 12 -13 26 -2 18 1 25 13 25 12 0 15 -7 13 -25z m516 9 c3 -9 6
-28 6 -42 0 -15 11 -51 25 -80 30 -65 97 -263 91 -269 -3 -3 -17 19 -32 49
-14 29 -51 99 -80 154 -52 97 -61 132 -48 182 7 25 29 29 38 6z m-564 -40 c8
-32 5 -42 -16 -67 l-24 -29 0 27 c0 32 21 118 27 111 3 -2 9 -21 13 -42z m-50
-254 c-54 -148 -59 -150 -31 -15 12 58 29 105 47 134 16 24 30 37 31 30 2 -8
-20 -75 -47 -149z m450 143 c-1 -5 -7 -35 -15 -68 -10 -39 -13 -46 -10 -20 3
22 5 52 5 68 0 15 5 27 10 27 6 0 10 -3 10 -7z"/>
<path d="M1422 2810 c0 -14 2 -19 5 -12 2 6 2 18 0 25 -3 6 -5 1 -5 -13z"/>
<path d="M1012 2800 c0 -14 2 -19 5 -12 2 6 2 18 0 25 -3 6 -5 1 -5 -13z"/>
<path d="M972 2760 c0 -14 2 -19 5 -12 2 6 2 18 0 25 -3 6 -5 1 -5 -13z"/>
<path d="M1552 2725 c0 -16 2 -22 5 -12 2 9 2 23 0 30 -3 6 -5 -1 -5 -18z"/>
<path d="M1411 2714 c0 -11 3 -14 6 -6 3 7 2 16 -1 19 -3 4 -6 -2 -5 -13z"/>
<path d="M1563 2638 c7 -50 25 -239 30 -318 3 -38 4 -35 5 15 2 69 -25 335
-34 344 -4 3 -4 -15 -1 -41z"/>
<path d="M1403 2625 c0 -22 2 -30 4 -17 2 12 2 30 0 40 -3 9 -5 -1 -4 -23z"/>
<path d="M1393 2505 c0 -22 2 -30 4 -17 2 12 2 30 0 40 -3 9 -5 -1 -4 -23z"/>
<path d="M1383 2350 c0 -41 2 -58 4 -37 2 20 2 54 0 75 -2 20 -4 3 -4 -38z"/>
<path d="M974 2245 c0 -66 1 -92 3 -57 2 34 2 88 0 120 -2 31 -3 3 -3 -63z"/>
<path d="M1383 2185 c0 -33 2 -45 4 -27 2 18 2 45 0 60 -2 15 -4 0 -4 -33z"/>
</g>
</svg>
