<?xml version="1.0" standalone="no"?>
<!DOCTYPE svg PUBLIC "-//W3C//DTD SVG 20010904//EN"
 "http://www.w3.org/TR/2001/REC-SVG-20010904/DTD/svg10.dtd">
<svg version="1.0" xmlns="http://www.w3.org/2000/svg"
 width="244.000000pt" height="305.000000pt" viewBox="0 0 244.000000 305.000000"
 preserveAspectRatio="xMidYMid meet">
<metadata>
Created by potrace 1.16, written by Peter Selinger 2001-2019
</metadata>
<g transform="translate(0.000000,305.000000) scale(0.100000,-0.100000)"
fill="#000000" stroke="none">
<path d="M1075 2420 c0 -269 -4 -492 -8 -496 -21 -21 -27 40 -29 281 -1 170
-4 231 -8 175 l-6 -85 -2 69 c-3 94 -39 374 -60 465 -17 73 -17 66 -14 -427 3
-544 5 -526 -50 -477 l-28 24 0 153 c0 170 13 362 36 536 8 63 13 116 11 118
-7 7 -37 -202 -46 -326 -6 -69 -12 -212 -14 -318 -4 -173 -3 -194 12 -199 9
-3 30 -19 47 -35 l30 -28 29 30 c31 33 69 39 79 14 10 -27 7 -31 -23 -26 -22
3 -32 -2 -48 -25 -11 -15 -24 -41 -28 -58 l-8 -30 -14 35 c-23 54 -42 70 -84
70 -44 0 -69 -27 -69 -73 0 -27 2 -28 35 -21 31 5 39 2 65 -26 33 -36 38 -65
14 -91 -14 -15 -13 -30 11 -154 20 -106 25 -152 20 -201 -8 -66 -20 -89 -32
-58 -4 10 -2 19 5 22 13 4 14 70 2 147 l-7 50 -3 -50 -3 -50 -6 45 c-6 42 -8
45 -38 48 -65 6 -81 -75 -32 -170 30 -59 9 -73 -27 -18 -38 58 -45 144 -15
193 11 19 21 42 21 50 0 38 -87 50 -120 17 -24 -24 -25 -41 -5 -106 21 -71 19
-146 -5 -176 -17 -23 -249 -185 -308 -217 -21 -11 -23 -11 -13 6 6 10 62 71
124 136 110 114 114 118 142 107 15 -6 30 -8 34 -5 8 8 1 143 -9 185 -7 26 -9
10 -7 -63 l2 -98 -28 7 c-25 5 -38 -5 -140 -113 -164 -171 -216 -227 -213
-231 2 -1 96 32 210 74 188 71 206 79 206 101 0 13 7 26 16 30 23 9 84 -26 84
-48 0 -10 -18 -48 -40 -86 -41 -71 -38 -91 9 -54 34 28 89 56 96 49 11 -10 -7
-38 -25 -38 -30 0 -40 -23 -86 -192 -88 -318 -103 -379 -95 -376 9 3 122 143
251 311 41 54 76 92 78 85 1 -7 -11 -103 -27 -213 -17 -109 -29 -200 -27 -202
1 -2 10 14 19 34 9 21 50 119 92 217 70 163 76 184 73 235 -3 51 -1 56 17 53
30 -5 63 -29 70 -52 4 -13 -3 -31 -21 -55 l-27 -36 57 -322 c51 -283 66 -356
66 -321 0 13 13 86 64 376 25 141 43 264 39 275 -4 10 -15 24 -25 31 -10 7
-18 23 -18 35 0 25 45 67 73 67 17 0 19 -5 13 -39 -5 -31 1 -56 28 -122 70
-172 157 -363 152 -334 -3 17 -15 100 -26 185 -11 85 -23 169 -26 185 l-6 30
24 -27 c13 -15 39 -49 58 -75 19 -27 55 -73 80 -103 25 -30 52 -64 60 -76 60
-86 125 -165 128 -156 2 6 -22 104 -53 219 -92 341 -92 342 -123 356 -30 13
-43 27 -36 39 10 15 34 8 67 -22 47 -41 62 -38 34 8 -26 42 -47 88 -47 103 0
14 62 49 88 49 20 0 28 -14 23 -42 0 -5 1 -8 3 -8 2 0 75 -27 162 -60 196 -75
267 -100 270 -97 3 2 -79 90 -239 255 -90 93 -103 103 -128 98 l-28 -5 6 89
c4 65 3 90 -6 90 -7 0 -11 -20 -11 -52 0 -29 -7 -78 -15 -108 -8 -30 -15 -56
-15 -57 0 -3 124 -94 247 -183 57 -40 101 -75 99 -77 -7 -7 -326 129 -326 139
0 5 5 19 11 30 9 17 7 24 -16 42 -36 29 -44 99 -21 179 22 77 21 134 -3 147
-30 16 -76 12 -101 -8 l-23 -19 28 -57 c26 -54 27 -60 16 -110 -13 -57 -73
-150 -79 -121 -2 8 8 39 22 67 44 89 29 168 -32 168 -27 0 -34 -13 -43 -79
-13 -90 -28 -83 -24 10 l4 84 -11 -85 c-9 -70 -12 -81 -20 -60 -9 25 6 149 21
180 5 8 14 39 22 68 12 48 11 57 -4 84 -23 40 -22 51 9 87 20 25 34 31 64 31
44 0 53 14 35 57 -27 65 -111 50 -142 -25 l-15 -36 -19 39 c-23 47 -44 65 -76
65 -27 0 -29 7 -7 31 13 15 21 16 38 7 11 -6 27 -19 34 -30 18 -25 27 -23 78
20 l45 37 -6 185 c-11 324 -38 586 -77 744 -12 47 -13 47 -20 20 -17 -62 -47
-255 -58 -374 -18 -199 -25 -203 -34 -20 -7 159 -32 426 -35 385 -1 -11 -2
-200 -3 -420 0 -220 -3 -388 -5 -372 -5 31 -22 27 -25 -6 -1 -12 -5 16 -8 63
-6 79 -6 75 -8 -55 -1 -77 -7 -147 -12 -155 -7 -10 -10 6 -10 55 0 39 -4 86
-9 105 -5 19 -12 78 -16 130 -8 115 -19 200 -40 299 -18 85 -22 93 -29 60 -25
-110 -37 -191 -46 -294 -6 -66 -15 -142 -20 -168 -6 -27 -10 -81 -10 -120 0
-47 -3 -68 -10 -61 -6 6 -14 147 -20 334 -8 270 -32 625 -42 636 -2 1 -3 -217
-3 -486z m451 -518 c-3 -2 -21 9 -40 25 l-36 28 0 140 c0 227 30 569 63 715
10 47 12 -18 15 -424 1 -264 0 -481 -2 -484z m-296 137 c0 -383 -2 -429 -15
-415 -12 12 -15 49 -17 188 -1 114 -4 154 -8 118 -10 -80 -12 205 -2 306 l7
79 6 -105 c6 -99 6 -97 4 35 0 77 2 129 6 115 5 -17 7 -2 8 43 1 37 3 67 6 67
3 0 5 -194 5 -431z m-130 -190 c0 -5 -4 -9 -10 -9 -5 0 -10 7 -10 16 0 8 5 12
10 9 6 -3 10 -10 10 -16z m284 0 c-3 -5 -10 -7 -15 -3 -5 3 -7 10 -3 15 3 5
10 7 15 3 5 -3 7 -10 3 -15z m-207 -61 c-3 -8 -6 -5 -6 6 -1 11 2 17 5 13 3
-3 4 -12 1 -19z m-52 -47 c-7 -23 -25 -29 -25 -8 0 14 21 39 28 33 2 -3 1 -14
-3 -25z m-77 -30 c11 -34 12 -45 2 -51 -8 -5 -11 -26 -9 -59 2 -28 2 -51 0
-51 -13 0 -30 41 -31 73 0 24 -5 40 -15 43 -20 8 -19 44 1 72 21 31 35 24 52
-27z m316 34 c3 -9 0 -15 -9 -15 -8 0 -15 7 -15 15 0 8 4 15 9 15 5 0 11 -7
15 -15z m110 -7 c20 -28 20 -52 1 -68 -8 -7 -15 -26 -15 -42 0 -16 -8 -43 -17
-61 l-18 -32 -6 75 c-7 80 5 150 27 150 7 0 20 -10 28 -22z m-284 -75 c0 -23
-4 -33 -9 -27 -9 8 -4 64 5 64 2 0 4 -17 4 -37z m-38 -13 c5 -17 19 -35 30
-41 11 -6 27 -27 35 -47 l15 -37 20 38 c10 21 26 41 34 44 8 3 21 21 30 41 14
34 15 34 29 16 31 -41 12 -84 -36 -84 -32 0 -38 -7 -59 -68 l-16 -44 -17 56
c-16 51 -21 56 -47 56 -46 0 -60 10 -60 41 0 25 16 57 28 59 2 0 8 -14 14 -30z
m-187 -67 c19 -44 15 -62 -8 -39 -15 15 -25 76 -12 76 3 0 12 -17 20 -37z
m116 -6 c-8 -8 -11 -3 -11 19 1 25 2 27 11 11 8 -14 8 -22 0 -30z m446 6 c-5
-31 -25 -59 -35 -49 -6 7 23 86 32 86 5 0 6 -17 3 -37z m-134 2 c-7 -21 -13
-19 -13 6 0 11 4 18 10 14 5 -3 7 -12 3 -20z m-275 -97 c8 -18 8 -28 1 -28 -9
0 -39 59 -39 77 0 13 26 -21 38 -49z m247 -8 c-24 -46 -31 -28 -9 22 12 26 20
36 22 26 2 -9 -4 -31 -13 -48z m-275 -85 c0 -22 -29 -6 -45 26 -8 15 -24 30
-35 34 -14 4 -20 15 -20 36 0 29 0 29 50 -26 28 -30 50 -62 50 -70z m382 90
c-2 -14 -13 -30 -23 -35 -10 -6 -21 -19 -24 -30 -7 -21 -43 -46 -52 -36 -3 3
1 16 10 28 18 26 84 98 90 98 2 0 2 -11 -1 -25z m-304 -16 c-3 -8 -7 -3 -11
10 -4 17 -3 21 5 13 5 -5 8 -16 6 -23z m143 8 c-10 -9 -11 -8 -5 6 3 10 9 15
12 12 3 -3 0 -11 -7 -18z m-334 -99 c-3 -8 -6 -5 -6 6 -1 11 2 17 5 13 3 -3 4
-12 1 -19z m211 -7 c3 -8 -1 -12 -9 -9 -7 2 -15 10 -17 17 -3 8 1 12 9 9 7 -2
15 -10 17 -17z m122 10 c0 -6 -4 -13 -10 -16 -5 -3 -10 1 -10 9 0 9 5 16 10
16 6 0 10 -4 10 -9z m-246 -104 c-5 -33 -2 -48 13 -66 29 -36 45 -19 37 40
l-7 49 34 0 c28 -1 31 -2 17 -11 -27 -15 -23 -58 7 -69 17 -6 25 -17 25 -33 0
-21 -4 -23 -38 -21 -60 2 -83 14 -96 47 -14 34 -10 121 5 112 5 -3 6 -25 3
-48z m356 -5 c0 -71 -17 -97 -65 -98 -22 -1 -48 -5 -58 -9 -16 -7 -18 -3 -15
21 2 21 9 30 26 32 31 5 32 59 0 71 -21 7 -20 8 10 13 18 2 34 2 37 0 3 -3 2
-27 -1 -52 -7 -52 5 -70 30 -44 17 16 19 27 16 88 -1 25 2 36 9 32 6 -4 11
-28 11 -54z m140 -52 c0 -5 -4 -10 -10 -10 -5 0 -10 5 -10 10 0 6 5 10 10 10
6 0 10 -4 10 -10z m-702 -40 c3 -21 2 -22 -12 -11 -19 16 -21 44 -3 39 6 -3
14 -15 15 -28z m172 0 c0 -5 -2 -10 -4 -10 -3 0 -8 5 -11 10 -3 6 -1 10 4 10
6 0 11 -4 11 -10z m574 -54 c-6 -25 -24 -37 -24 -15 0 15 21 52 26 46 3 -3 2
-16 -2 -31z m-809 -42 c0 -5 -15 -28 -33 -49 l-34 -40 17 40 c9 22 19 46 22
53 6 14 28 11 28 -4z m114 -51 c0 -41 -18 -84 -124 -293 -68 -135 -124 -238
-125 -230 0 8 13 60 29 115 15 55 41 147 56 203 l28 104 43 18 c40 17 43 22
54 74 15 73 40 78 39 9z m676 -19 c1 -54 10 -77 114 -288 61 -125 110 -230
108 -232 -2 -2 -63 76 -136 173 -127 170 -132 179 -125 213 4 19 6 55 5 80 -3
61 8 122 22 117 7 -2 12 -28 12 -63z m115 26 c12 -16 18 -30 13 -30 -17 0 -53
31 -53 46 0 23 17 16 40 -16z m-454 -89 c13 11 14 9 3 -14 -15 -33 -25 -34
-33 -4 -9 34 -6 55 5 28 8 -20 12 -21 25 -10z m-276 -28 c0 -19 -19 -55 -20
-38 0 6 -3 20 -6 33 -5 16 -2 22 10 22 9 0 16 -8 16 -17z m67 -5 c-16 -74
-111 -407 -114 -404 -5 4 53 390 62 414 2 6 16 12 31 12 22 0 26 -4 21 -22z
m407 -30 c8 -29 18 -66 22 -83 3 -16 22 -86 40 -154 19 -69 32 -126 30 -128
-2 -2 -34 71 -71 164 -58 146 -66 172 -60 210 3 24 10 43 15 43 5 0 15 -24 24
-52z m79 17 c-4 -49 -23 -54 -23 -6 0 30 4 41 13 38 6 -2 11 -17 10 -32z
m-294 -287 l-1 -273 -19 160 c-26 234 -27 292 -4 343 11 23 21 42 22 42 2 0 2
-123 2 -272z m-48 194 c-10 -23 -9 -61 4 -182 9 -84 13 -155 10 -158 -3 -3 -5
3 -5 14 0 10 -12 83 -27 160 l-26 142 24 30 c29 35 36 33 20 -6z"/>
<path d="M1061 2794 c0 -11 3 -14 6 -6 3 7 2 16 -1 19 -3 4 -6 -2 -5 -13z"/>
<path d="M1373 2745 c0 -22 2 -30 4 -17 2 12 2 30 0 40 -3 9 -5 -1 -4 -23z"/>
<path d="M1053 2700 c0 -25 2 -35 4 -22 2 12 2 32 0 45 -2 12 -4 2 -4 -23z"/>
<path d="M1363 2610 c0 -25 2 -35 4 -22 2 12 2 32 0 45 -2 12 -4 2 -4 -23z"/>
<path d="M1043 2565 c0 -33 2 -45 4 -27 2 18 2 45 0 60 -2 15 -4 0 -4 -33z"/>
<path d="M1353 2445 c0 -33 2 -45 4 -27 2 18 2 45 0 60 -2 15 -4 0 -4 -33z"/>
<path d="M1352 2360 c0 -14 2 -19 5 -12 2 6 2 18 0 25 -3 6 -5 1 -5 -13z"/>
</g>
</svg>
