<?xml version="1.0" standalone="no"?>
<!DOCTYPE svg PUBLIC "-//W3C//DTD SVG 20010904//EN"
 "http://www.w3.org/TR/2001/REC-SVG-20010904/DTD/svg10.dtd">
<svg version="1.0" xmlns="http://www.w3.org/2000/svg"
 width="244.000000pt" height="305.000000pt" viewBox="0 0 244.000000 305.000000"
 preserveAspectRatio="xMidYMid meet">
<metadata>
Created by potrace 1.16, written by Peter Selinger 2001-2019
</metadata>
<g transform="translate(0.000000,305.000000) scale(0.100000,-0.100000)"
fill="#000000" stroke="none">
<path d="M896 2902 c-3 -5 -14 -49 -25 -98 -38 -171 -61 -368 -71 -619 -9
-227 -8 -251 6 -260 9 -5 35 -25 57 -43 l40 -33 26 24 c14 13 39 31 54 41 l29
18 -6 171 c-9 245 -24 401 -52 566 -13 80 -27 147 -29 150 -7 7 -6 -5 10 -104
31 -188 46 -347 52 -551 l6 -210 -39 -25 c-21 -13 -43 -25 -47 -27 -4 -2 -7
224 -5 502 2 278 2 506 1 506 -1 0 -4 -4 -7 -8z"/>
<path d="M1192 2690 c-1 -118 -9 -278 -17 -355 -8 -77 -18 -215 -22 -307 -6
-168 -16 -210 -28 -120 -4 26 -13 79 -21 117 -8 39 -14 74 -14 78 0 5 -4 6 -9
3 -8 -5 -23 -76 -35 -173 -6 -39 -4 -43 28 -63 38 -23 52 -61 41 -111 -8 -33
-30 -48 -48 -30 -33 33 -51 -14 -21 -57 20 -29 40 -28 68 3 30 32 40 32 32 -1
-9 -35 1 -61 24 -67 13 -3 20 -14 20 -30 l0 -25 -36 19 c-31 15 -41 16 -67 6
-42 -18 -44 -34 -5 -42 18 -4 43 -16 56 -28 19 -18 22 -31 22 -93 l0 -72 -51
18 c-105 39 -194 134 -214 228 -9 46 7 40 33 -13 37 -77 138 -172 200 -187 17
-5 22 -2 22 12 0 22 -17 40 -64 69 -52 33 -116 126 -116 169 0 11 -7 25 -15
32 -23 19 -18 46 13 75 22 21 35 25 72 23 45 -3 45 -3 42 27 -10 90 -133 97
-162 10 -14 -43 -24 -44 -40 -6 -16 39 -40 60 -76 66 -37 7 -75 -13 -92 -47
-19 -40 -7 -57 37 -51 32 4 43 0 74 -27 39 -34 46 -60 22 -80 -35 -29 -9 -126
60 -222 19 -26 35 -51 35 -54 0 -3 -16 -24 -35 -47 -47 -55 -48 -99 -2 -127
17 -11 43 -19 57 -18 24 3 25 5 22 69 -2 37 0 69 5 71 14 7 157 -38 144 -46
-8 -5 -9 -27 -5 -70 4 -43 3 -66 -5 -70 -6 -4 -11 -22 -11 -39 0 -24 -3 -28
-10 -17 -5 8 -10 30 -10 48 0 31 -2 32 -40 32 -23 0 -54 -7 -71 -16 -16 -8
-38 -12 -49 -9 -22 7 -90 80 -90 98 -1 53 -11 147 -18 172 -11 40 -60 47 -93
14 -34 -34 -22 -92 39 -192 90 -148 93 -154 97 -237 3 -43 7 -96 11 -118 6
-39 5 -41 -141 -211 -81 -95 -149 -170 -152 -167 -3 2 35 76 85 163 49 87 109
195 132 240 42 81 43 84 32 135 -15 77 -36 120 -83 175 -81 93 -98 170 -54
235 14 20 25 42 25 49 0 36 -96 53 -138 23 -28 -19 -28 -47 -1 -136 28 -91 22
-143 -21 -179 -28 -24 -30 -28 -19 -53 7 -14 10 -28 8 -30 -2 -2 -69 -27 -149
-56 -80 -28 -162 -58 -183 -67 -68 -29 -50 -5 35 45 80 47 309 190 317 198 2
2 -3 35 -12 73 -10 38 -17 84 -17 102 0 19 -5 41 -11 49 -7 11 -9 -12 -6 -83
l4 -97 -32 6 c-31 6 -42 -2 -187 -132 -209 -189 -239 -217 -235 -221 2 -2 115
33 250 78 233 76 247 82 247 105 0 35 21 39 78 14 58 -25 85 -51 106 -102 17
-41 15 -45 -38 -63 -25 -9 -32 -20 -54 -90 -55 -181 -72 -236 -111 -359 -22
-71 -39 -131 -37 -133 3 -4 138 144 330 360 l79 88 -12 38 c-18 62 -19 61 75
61 87 0 112 -7 152 -43 30 -27 28 -42 -9 -75 l-32 -28 27 -123 c14 -68 26
-146 26 -175 0 -28 4 -46 8 -39 4 7 20 -49 36 -130 16 -78 32 -153 36 -167 8
-28 9 -24 51 188 12 62 25 108 29 102 4 -6 10 24 13 67 4 43 16 122 27 177
l22 98 -23 24 c-12 13 -26 21 -30 18 -20 -12 -7 44 14 63 39 36 64 43 152 43
l87 0 -6 -36 c-4 -19 -9 -41 -12 -48 -3 -8 1 -20 8 -27 7 -8 47 -53 88 -99 41
-47 100 -112 131 -145 31 -33 81 -88 110 -121 30 -34 55 -58 57 -53 2 4 -17
73 -42 151 -24 79 -63 203 -86 275 -38 122 -44 134 -68 139 -59 14 -62 39 -15
102 28 38 122 88 147 79 9 -4 16 -18 16 -31 0 -24 12 -29 236 -101 130 -42
238 -75 240 -72 3 2 -39 44 -93 93 -54 49 -123 112 -153 140 -119 111 -127
116 -161 109 l-31 -7 7 91 c5 58 4 91 -2 91 -10 0 -23 -98 -23 -172 l0 -38 43
6 c40 5 45 3 112 -57 84 -74 215 -199 215 -205 0 -8 -249 133 -369 207 -24 16
-51 71 -51 107 0 15 9 54 19 87 21 66 19 103 -6 123 -35 26 -133 6 -133 -28 0
-9 11 -31 25 -50 46 -63 29 -131 -64 -247 -55 -68 -70 -123 -54 -189 9 -39 16
-45 75 -69 30 -12 39 -22 51 -62 84 -263 118 -375 114 -379 -3 -3 -37 52 -77
122 -40 70 -104 180 -142 243 -93 158 -93 173 2 336 75 129 89 169 69 206 -16
31 -28 39 -61 39 -37 0 -48 -24 -53 -122 -2 -46 -4 -86 -5 -91 0 -4 -19 -28
-41 -52 -44 -47 -70 -55 -103 -30 -11 8 -39 15 -63 15 l-43 0 0 -39 c0 -59
-16 -58 -25 2 -5 39 -9 47 -15 32 -6 -17 -8 -16 -14 12 -6 24 -3 37 8 49 9 8
16 20 16 25 0 20 -21 50 -31 44 -5 -4 -9 4 -9 16 0 22 0 22 14 4 14 -19 15
-19 86 2 l71 21 9 -24 c5 -13 5 -36 -1 -56 -5 -18 -9 -38 -9 -45 0 -21 45 -26
78 -9 54 28 56 76 7 133 -19 23 -35 45 -35 50 0 5 14 25 30 45 65 79 103 210
65 224 -52 20 26 114 95 114 34 0 40 3 40 21 0 33 -17 56 -51 68 -44 15 -94
-7 -116 -53 -9 -20 -19 -36 -22 -36 -3 0 -13 18 -23 40 -12 30 -24 41 -50 48
-50 13 -80 1 -101 -41 -24 -47 -16 -58 36 -51 36 5 46 2 70 -20 30 -28 35 -57
12 -76 -8 -7 -15 -21 -15 -32 0 -31 -35 -91 -80 -136 -23 -23 -46 -42 -51 -42
-16 0 -49 -40 -49 -59 0 -61 182 82 224 177 20 44 36 55 36 24 0 -32 -48 -115
-92 -160 -44 -46 -74 -64 -140 -88 l-40 -14 7 78 c8 87 20 107 72 117 34 6 34
7 17 26 -21 24 -86 26 -105 3 -12 -14 -14 -14 -20 3 -8 23 -3 32 28 44 22 8
25 14 20 43 -7 45 -1 49 28 20 13 -13 31 -24 39 -24 20 0 46 39 46 67 0 24
-14 31 -25 13 -10 -17 -44 -11 -55 9 -24 46 -6 107 40 133 26 15 28 20 24 65
-8 90 -26 175 -36 165 -5 -5 -18 -60 -29 -123 -11 -63 -24 -118 -28 -122 -4
-4 -11 77 -14 180 -4 103 -11 215 -16 248 -5 33 -13 114 -17 180 -6 93 -9 110
-14 75 -5 -34 -7 -39 -11 -20 -2 14 -3 -65 -1 -175 2 -110 -1 -247 -6 -305 -8
-87 -10 -50 -10 223 0 180 -2 330 -5 333 -5 5 -24 -50 -29 -86 -1 -8 -5 77 -8
190 l-6 205 -2 -215z m108 -695 c13 -240 11 -357 -8 -363 -14 -4 -13 62 4 181
4 32 2 47 -5 47 -7 0 -11 18 -10 48 1 26 -1 130 -4 232 -6 224 7 144 23 -145z
m-26 -212 c-3 -128 -7 -160 -20 -173 -15 -14 -15 -13 -8 10 5 14 9 50 9 82 0
31 3 60 8 64 4 4 7 28 6 53 0 37 -2 42 -10 26 -7 -15 -8 -9 -4 20 6 43 15 75
19 75 2 0 1 -71 0 -157z m-57 -275 c-3 -7 -5 -2 -5 12 0 14 2 19 5 13 2 -7 2
-19 0 -25z m23 -32 c-7 -7 -10 1 -9 25 0 32 1 33 10 10 6 -16 6 -28 -1 -35z
m-93 -318 c-3 -8 -6 -5 -6 6 -1 11 2 17 5 13 3 -3 4 -12 1 -19z m32 -126 c-1
-42 -2 -44 -8 -16 -4 17 -11 36 -15 42 -9 15 2 34 15 27 5 -4 9 -27 8 -53z
m136 31 c-4 -10 -11 -35 -15 -56 -12 -60 -23 -58 -16 2 8 60 12 71 28 71 6 0
7 -7 3 -17z m-78 -145 c-3 -8 -6 -5 -6 6 -1 11 2 17 5 13 3 -3 4 -12 1 -19z
m27 7 c-4 -8 -8 -15 -10 -15 -2 0 -4 7 -4 15 0 8 4 15 10 15 5 0 7 -7 4 -15z
m21 -187 l14 -123 -3 115 c-2 68 0 99 4 75 6 -35 7 -36 9 -10 1 29 1 29 21 10
18 -19 19 -23 5 -75 -7 -30 -18 -73 -24 -95 -5 -22 -22 -107 -37 -189 -15 -81
-30 -141 -33 -133 -4 9 -4 60 -2 114 2 54 3 176 3 272 -1 95 1 178 5 183 12
21 24 -24 38 -144z"/>
<path d="M1273 2825 c0 -44 2 -61 4 -37 2 23 2 59 0 80 -2 20 -4 1 -4 -43z"/>
<path d="M1541 2803 c-42 -192 -62 -369 -69 -627 l-7 -249 39 -26 c21 -14 45
-30 52 -36 9 -7 19 -7 28 0 7 6 31 22 54 37 l41 27 -5 153 c-7 217 -22 418
-39 523 -25 148 -57 295 -65 295 -4 0 -17 -44 -29 -97z m63 -98 c34 -200 45
-322 53 -555 l6 -195 -41 -28 c-23 -15 -44 -27 -47 -27 -3 0 -5 217 -5 482 0
265 2 479 4 477 3 -3 16 -72 30 -154z"/>
<path d="M911 2844 c0 -11 3 -14 6 -6 3 7 2 16 -1 19 -3 4 -6 -2 -5 -13z"/>
</g>
</svg>
