<?xml version="1.0" standalone="no"?>
<!DOCTYPE svg PUBLIC "-//W3C//DTD SVG 20010904//EN"
 "http://www.w3.org/TR/2001/REC-SVG-20010904/DTD/svg10.dtd">
<svg version="1.0" xmlns="http://www.w3.org/2000/svg"
 width="244.000000pt" height="305.000000pt" viewBox="0 0 244.000000 305.000000"
 preserveAspectRatio="xMidYMid meet">
<metadata>
Created by potrace 1.16, written by Peter Selinger 2001-2019
</metadata>
<g transform="translate(0.000000,305.000000) scale(0.100000,-0.100000)"
fill="#000000" stroke="none">
<path d="M1546 2833 c-50 -226 -71 -416 -82 -729 l-6 -181 30 -12 c16 -7 40
-23 52 -36 l22 -23 45 34 c24 19 49 34 54 34 12 0 12 284 -1 446 -15 189 -69
517 -89 537 -4 4 -15 -27 -25 -70z m20 -930 c-2 -3 -23 8 -47 24 l-42 28 6
225 c6 222 26 406 64 603 l18 92 3 -484 c1 -266 0 -486 -2 -488z"/>
<path d="M886 2869 c-8 -42 -6 -60 4 -29 4 14 8 -192 9 -458 1 -266 -2 -482
-6 -480 -5 2 -26 14 -47 28 l-39 24 6 195 c7 207 26 410 51 551 17 91 20 137
5 80 -38 -155 -65 -412 -72 -703 l-4 -148 26 -17 c14 -9 39 -27 55 -40 l29
-23 26 24 c14 13 39 31 55 41 l29 18 -7 177 c-12 300 -44 569 -88 744 -14 55
-23 59 -32 16z"/>
<path d="M1187 2633 c4 -114 1 -195 -11 -293 -9 -74 -19 -215 -23 -313 -3 -98
-9 -174 -13 -170 -4 4 -13 40 -19 78 -33 204 -43 214 -66 69 -17 -103 -14
-117 25 -141 33 -19 45 -57 35 -104 -8 -35 -30 -47 -56 -31 -26 16 -29 15 -29
-11 0 -28 26 -67 46 -67 8 0 25 11 38 25 31 33 36 32 34 -11 -1 -24 4 -41 15
-49 24 -17 23 -50 0 -40 -30 13 -77 5 -97 -15 -19 -18 -18 -19 18 -25 42 -8
59 -32 54 -78 l-3 -32 -76 75 c-64 62 -78 82 -83 117 -4 23 -14 47 -22 54 -19
16 -17 40 7 69 17 20 31 25 73 26 59 1 66 12 37 60 -42 68 -130 45 -158 -41
l-10 -30 -16 36 c-19 47 -52 69 -99 69 -47 0 -78 -28 -78 -70 0 -27 2 -30 25
-24 36 9 71 -3 100 -34 28 -30 33 -67 10 -76 -18 -7 -20 -59 -3 -107 11 -33
59 -111 85 -137 19 -19 17 -27 -22 -78 -19 -25 -35 -56 -35 -69 0 -30 33 -62
72 -71 43 -9 52 5 40 62 -7 30 -7 55 -1 66 8 16 13 16 57 2 26 -8 56 -17 68
-20 16 -4 19 -11 16 -35 -2 -16 1 -36 7 -43 17 -20 4 -86 -16 -86 -12 0 -14
-7 -9 -30 3 -19 2 -29 -4 -25 -6 3 -10 24 -10 46 0 39 0 39 -40 39 -23 0 -54
-7 -71 -16 -39 -20 -61 -12 -104 39 -30 35 -36 48 -35 87 2 60 -10 142 -23
158 -15 19 -64 14 -87 -10 -39 -42 -30 -72 74 -247 72 -122 74 -159 18 -259
-229 -399 -252 -438 -252 -416 0 5 31 103 68 218 l68 209 39 14 c56 19 65 32
72 95 7 66 -13 115 -81 198 -27 33 -50 74 -58 104 -12 46 -11 50 15 97 15 27
27 54 27 60 0 35 -97 53 -135 25 -23 -17 -24 -70 -1 -135 9 -24 16 -56 16 -72
0 -38 -27 -92 -54 -109 -72 -46 -360 -210 -362 -207 -5 4 118 122 214 206 69
60 75 63 111 57 48 -7 50 -2 40 89 -4 39 -8 80 -8 93 -1 14 -5 21 -12 16 -8
-4 -9 -33 -4 -91 l7 -85 -31 7 c-37 8 -29 14 -258 -198 -84 -77 -151 -142
-149 -145 2 -2 110 31 240 73 231 74 237 77 243 106 6 34 6 34 66 13 58 -20
117 -82 117 -123 0 -25 -6 -31 -35 -41 -33 -11 -36 -16 -65 -113 -17 -56 -44
-142 -60 -192 -67 -214 -82 -267 -76 -272 3 -3 16 7 28 23 13 16 52 61 88 99
202 220 282 317 276 339 -4 11 -9 33 -12 49 l-6 27 89 0 c77 0 95 -3 123 -22
56 -39 59 -53 21 -92 l-34 -35 17 -73 c9 -40 20 -108 23 -150 3 -43 10 -75 14
-72 5 3 9 3 9 -1 0 -15 71 -349 75 -353 3 -3 5 -1 5 5 0 11 57 296 67 333 6
24 7 23 14 -10 6 -27 7 -22 5 25 -2 49 15 174 38 277 2 9 -4 25 -14 35 -50 54
-47 84 11 113 29 15 59 20 125 20 l87 0 -8 -32 c-16 -68 -14 -71 131 -234 78
-88 167 -186 198 -219 68 -72 68 -78 -11 175 -107 341 -103 333 -146 353 -34
16 -38 21 -33 45 9 38 85 106 136 121 46 14 52 11 57 -21 2 -12 5 -23 7 -25 9
-10 476 -160 476 -154 0 4 -64 66 -141 137 -78 71 -162 148 -188 172 -40 37
-50 42 -79 37 l-32 -6 6 84 c5 58 3 86 -5 91 -7 5 -11 -5 -11 -32 0 -21 -7
-61 -15 -88 -29 -96 -35 -88 168 -214 178 -111 236 -152 192 -136 -11 4 -87
32 -170 61 -82 29 -158 56 -168 60 -15 6 -17 15 -12 45 5 32 3 39 -13 44 -45
15 -54 96 -22 198 25 80 25 93 -1 119 -18 18 -30 21 -71 17 -27 -3 -56 -12
-64 -20 -12 -12 -10 -20 16 -61 16 -26 30 -58 30 -71 0 -44 -29 -106 -80 -169
-50 -61 -90 -156 -90 -214 0 -20 81 -187 110 -228 4 -5 29 -50 55 -99 26 -50
60 -110 76 -135 61 -98 12 -50 -170 167 l-111 132 5 88 c10 151 13 162 76 262
72 116 81 135 82 183 1 30 -4 44 -22 58 -33 27 -74 21 -82 -11 -21 -74 -26
-116 -19 -135 11 -29 -13 -77 -57 -115 -38 -34 -49 -36 -89 -15 -16 8 -46 15
-66 15 -37 0 -38 -1 -38 -37 0 -55 -18 -22 -25 47 -3 30 -7 69 -9 86 -4 30 -2
31 61 52 37 12 71 19 76 15 6 -3 7 -32 3 -69 -6 -56 -5 -63 13 -69 20 -6 80
19 93 39 16 23 7 55 -27 97 -19 24 -35 49 -35 55 0 6 16 31 35 55 61 76 96
202 60 215 -25 10 -17 53 15 86 25 25 36 29 72 26 40 -2 43 -1 46 23 5 41 -29
74 -76 74 -47 0 -78 -23 -100 -75 l-15 -35 -11 32 c-17 49 -50 77 -91 77 -43
0 -75 -28 -78 -70 -2 -28 -1 -29 40 -26 37 3 47 -1 73 -26 33 -33 37 -53 16
-71 -8 -7 -17 -27 -20 -45 -9 -46 -65 -122 -125 -167 l-51 -39 0 39 c0 40 23
71 52 71 36 0 48 11 35 31 -14 22 -85 27 -105 7 -9 -9 -12 -6 -12 14 0 14 7
28 15 32 10 3 15 19 15 46 0 47 5 49 32 15 24 -31 52 -32 72 -3 15 20 22 68
11 68 -2 0 -16 -5 -31 -12 -23 -11 -28 -10 -40 7 -15 20 -19 72 -8 100 4 8 19
22 35 31 27 13 29 19 29 72 0 52 -12 125 -26 162 -9 23 -20 -13 -39 -127 -10
-54 -21 -104 -25 -112 -4 -8 -11 53 -14 135 -4 82 -11 204 -16 272 -6 68 -11
198 -12 290 l-2 167 -6 -135 -5 -135 -21 75 -21 75 -15 -50 -16 -50 -1 137
c-1 75 -5 139 -10 143 -6 3 -8 -55 -4 -152z m34 -469 c-6 -60 -11 -148 -11
-195 0 -46 -3 -94 -6 -106 -7 -27 -24 -31 -24 -5 0 15 -2 15 -11 2 -9 -12 -9
-11 -3 5 4 11 10 103 14 205 l8 185 -2 -187 c0 -103 2 -184 6 -180 3 4 8 138
11 297 2 160 8 301 13 315 14 39 17 -206 5 -336z m-3 -428 c-2 -68 -6 -122
-10 -120 -13 8 -4 244 8 244 2 0 3 -56 2 -124z m-38 -37 c0 -44 -4 -68 -10
-64 -18 11 -12 135 7 135 2 0 3 -32 3 -71z m-252 -123 c35 -78 153 -186 204
-186 12 0 18 -7 18 -21 0 -17 -4 -19 -22 -13 -59 18 -111 50 -148 91 -59 63
-106 173 -75 173 2 0 13 -20 23 -44z m646 17 c-10 -41 -51 -114 -85 -150 -34
-37 -101 -78 -141 -88 -45 -11 -34 18 15 40 55 24 153 122 178 180 22 50 43
61 33 18z m-367 -45 c-3 -7 -5 -2 -5 12 0 14 2 19 5 13 2 -7 2 -19 0 -25z m73
6 c0 -8 -4 -14 -10 -14 -5 0 -10 9 -10 21 0 11 5 17 10 14 6 -3 10 -13 10 -21z
m-63 -46 c-3 -8 -6 -5 -6 6 -1 11 2 17 5 13 3 -3 4 -12 1 -19z m20 -30 c-2
-13 -4 -5 -4 17 -1 22 1 32 4 23 2 -10 2 -28 0 -40z m20 30 c-3 -8 -6 -5 -6 6
-1 11 2 17 5 13 3 -3 4 -12 1 -19z m-90 -80 c-3 -8 -6 -5 -6 6 -1 11 2 17 5
13 3 -3 4 -12 1 -19z m140 -95 c-2 -21 -4 -4 -4 37 0 41 2 58 4 38 2 -21 2
-55 0 -75z m-140 -35 c-3 -8 -6 -5 -6 6 -1 11 2 17 5 13 3 -3 4 -12 1 -19z
m130 -110 c-3 -8 -6 -5 -6 6 -1 11 2 17 5 13 3 -3 4 -12 1 -19z m-120 -10 c-3
-8 -6 -5 -6 6 -1 11 2 17 5 13 3 -3 4 -12 1 -19z m160 -20 c-3 -8 -6 -5 -6 6
-1 11 2 17 5 13 3 -3 4 -12 1 -19z m-167 -88 c0 -5 -7 -10 -15 -10 -8 0 -15 5
-15 10 0 6 7 10 15 10 8 0 15 -4 15 -10z m155 0 c-3 -5 -10 -10 -16 -10 -5 0
-9 5 -9 10 0 6 7 10 16 10 8 0 12 -4 9 -10z m-38 -87 c-2 -16 -4 -3 -4 27 0
30 2 43 4 28 2 -16 2 -40 0 -55z m-67 -63 c0 -11 -2 -20 -4 -20 -2 0 -6 9 -9
20 -3 11 -1 20 4 20 5 0 9 -9 9 -20z m17 -2 c-3 -8 -6 -5 -6 6 -1 11 2 17 5
13 3 -3 4 -12 1 -19z m-11 -331 l1 -292 -28 130 c-31 145 -34 195 -16 340 13
99 23 133 36 120 3 -4 6 -138 7 -298z m-64 118 l-7 -80 -16 77 c-12 56 -13 81
-5 95 9 15 12 12 17 -22 l6 -40 3 50 c2 28 5 39 7 25 2 -14 0 -61 -5 -105z"/>
<path d="M1271 2764 c0 -11 3 -14 6 -6 3 7 2 16 -1 19 -3 4 -6 -2 -5 -13z"/>
<path d="M1142 460 c0 -14 2 -19 5 -12 2 6 2 18 0 25 -3 6 -5 1 -5 -13z"/>
</g>
</svg>
