<?xml version="1.0" standalone="no"?>
<!DOCTYPE svg PUBLIC "-//W3C//DTD SVG 20010904//EN"
 "http://www.w3.org/TR/2001/REC-SVG-20010904/DTD/svg10.dtd">
<svg version="1.0" xmlns="http://www.w3.org/2000/svg"
 width="244.000000pt" height="305.000000pt" viewBox="0 0 244.000000 305.000000"
 preserveAspectRatio="xMidYMid meet">
<metadata>
Created by potrace 1.16, written by Peter Selinger 2001-2019
</metadata>
<g transform="translate(0.000000,305.000000) scale(0.100000,-0.100000)"
fill="#000000" stroke="none">
<path d="M1538 2405 c2 -278 -1 -505 -5 -505 -4 1 -23 14 -42 29 l-33 29 1
144 c2 184 18 416 37 542 8 54 13 101 10 103 -21 21 -66 -482 -66 -738 0 -84
1 -86 27 -98 15 -7 33 -21 41 -32 18 -25 24 -24 77 14 l46 32 -5 240 c-3 132
-10 283 -16 335 -13 125 -59 393 -68 402 -4 4 -6 -220 -4 -497z"/>
<path d="M931 2895 c-1 -5 -1 -232 -1 -502 0 -271 -3 -493 -7 -493 -4 1 -23
14 -42 30 l-34 29 7 193 c4 106 9 216 12 243 8 108 25 253 36 307 5 31 8 62 6
70 -8 23 -48 -260 -58 -412 -5 -80 -10 -210 -10 -290 l0 -145 49 -36 49 -37
28 29 c15 16 36 32 47 35 19 6 20 13 14 193 -8 207 -29 458 -52 596 -16 95
-42 207 -44 190z"/>
<path d="M1101 2483 c0 -210 -5 -384 -10 -387 -5 -3 -13 -32 -17 -63 l-9 -58
-6 90 -5 90 -2 -113 c-2 -120 12 -182 42 -182 11 0 16 -9 16 -27 -1 -25 -2
-26 -13 -11 -7 9 -17 24 -22 34 -9 13 -19 16 -48 10 -44 -8 -73 -37 -83 -79
l-6 -31 -20 39 c-26 52 -44 65 -90 65 -43 0 -72 -32 -66 -72 3 -20 8 -23 39
-20 31 3 40 -2 67 -33 36 -40 39 -57 17 -75 -27 -23 -10 -128 32 -190 29 -44
31 -116 5 -151 -11 -13 -22 -36 -26 -52 -12 -51 -21 -27 -23 64 -2 100 -11
119 -55 119 -23 0 -32 -6 -43 -33 -18 -44 -7 -98 39 -180 21 -38 36 -71 32
-74 -3 -4 -7 -4 -9 -2 -35 47 -78 111 -91 136 -22 44 -20 111 4 151 37 60 19
92 -53 92 -64 0 -82 -51 -51 -144 20 -57 14 -128 -12 -163 -11 -14 -35 -35
-55 -47 -20 -11 -47 -28 -60 -37 -21 -15 -136 -88 -197 -126 -13 -8 -25 -13
-27 -11 -2 2 53 63 124 136 l127 132 33 -11 c17 -6 34 -9 37 -6 10 10 -8 217
-19 210 -6 -4 -7 -39 -3 -94 l7 -89 -28 6 c-26 5 -43 -9 -200 -167 -95 -96
-170 -175 -168 -177 2 -2 99 31 215 74 200 73 211 79 217 106 6 33 14 34 68 9
54 -25 99 -74 92 -100 -3 -12 0 -21 6 -21 5 0 -6 -12 -25 -27 -26 -21 -39 -41
-50 -83 -9 -30 -43 -153 -77 -272 -33 -119 -61 -222 -61 -229 0 -12 14 4 198
230 64 80 128 158 141 174 21 26 23 32 12 66 -15 53 -14 58 13 63 50 10 52 1
32 -162 -10 -83 -17 -153 -14 -155 2 -2 12 62 22 143 10 81 21 153 23 160 3 6
16 12 30 12 18 0 23 -4 19 -17 -6 -21 -81 -341 -91 -393 -7 -30 -9 -32 -16
-15 -7 18 -8 17 -8 -6 -1 -14 -3 -48 -6 -75 l-5 -49 25 70 c14 39 29 79 34 90
5 11 30 78 56 150 37 102 46 139 43 179 -2 27 2 51 7 53 13 4 65 -44 65 -60 0
-7 -13 -28 -28 -46 l-28 -34 42 -231 c23 -127 51 -273 61 -325 l18 -94 29 154
c15 85 39 210 52 277 40 205 40 222 10 255 -14 15 -26 34 -26 41 0 12 50 66
62 66 3 0 5 -24 5 -52 -1 -42 14 -93 73 -253 41 -110 76 -193 78 -184 1 8 -11
118 -28 243 -16 125 -30 234 -30 242 0 10 12 14 40 14 22 0 40 -3 40 -6 0 -3
-5 -25 -11 -49 -10 -41 -9 -47 12 -73 13 -16 35 -43 49 -62 14 -18 32 -40 40
-49 9 -9 61 -71 115 -139 139 -171 148 -182 141 -157 -49 183 -116 420 -143
507 -9 31 -25 55 -44 69 -58 41 -24 117 71 158 56 24 70 21 70 -14 0 -20 14
-28 128 -70 243 -90 312 -114 312 -107 0 4 -78 85 -174 181 -161 161 -175 173
-202 167 l-29 -7 2 93 c1 90 1 91 -9 38 -5 -30 -16 -80 -23 -110 -10 -41 -10
-58 -1 -67 11 -12 86 -64 259 -180 53 -37 96 -68 94 -70 -5 -5 -62 16 -210 77
l-128 53 6 37 c6 33 4 39 -15 45 -44 14 -51 81 -20 196 24 92 24 95 0 119 -27
27 -90 27 -115 0 -18 -20 -18 -22 9 -76 22 -44 27 -62 21 -92 -9 -46 -29 -86
-70 -137 -17 -22 -37 -49 -43 -60 -11 -20 -11 -20 -12 1 0 11 12 40 28 65 48
77 56 98 56 150 1 57 -20 82 -64 77 -29 -4 -40 -39 -43 -142 -2 -77 -21 -100
-31 -38 -3 21 -15 47 -26 57 -30 27 -25 72 20 159 44 85 52 146 24 177 -14 16
-15 23 -4 49 17 41 46 60 92 60 35 0 38 2 38 29 0 35 -40 71 -77 71 -29 0 -70
-38 -79 -74 -9 -36 -17 -33 -37 13 -29 66 -110 79 -137 23 -11 -23 -14 -24
-18 -9 -2 11 7 31 24 48 l27 28 -6 333 c-6 322 -22 606 -35 620 -4 4 -5 -156
-4 -355 4 -350 -3 -471 -29 -519 -5 -10 -9 -39 -10 -65 0 -35 -3 -42 -8 -28
-5 11 -11 106 -15 210 -7 180 -28 342 -59 460 l-14 50 -12 -55 c-34 -144 -41
-198 -51 -365 -19 -317 -27 -346 -29 -110 -1 223 -17 587 -30 714 -6 51 -9
-48 -10 -306z m129 -444 c0 -277 -3 -418 -10 -414 -6 4 -11 115 -12 293 -2
263 -3 272 -8 112 l-5 -175 -9 130 c-8 124 -4 261 12 363 l7 47 6 -70 6 -70 1
90 c1 113 1 115 7 115 3 0 5 -189 5 -421z m-40 -251 c0 -26 -4 -49 -9 -52 -5
-3 -9 25 -10 62 0 46 2 62 9 52 5 -8 10 -36 10 -62z m-136 -50 c-3 -11 -1 -39
4 -62 14 -55 23 -188 12 -181 -22 13 -70 102 -70 128 0 17 -8 39 -17 49 -13
14 -15 25 -7 46 17 47 93 67 78 20z m430 0 c19 -27 20 -50 4 -66 -7 -7 -13
-25 -14 -41 -2 -31 -67 -141 -84 -141 -6 0 -8 5 -5 11 7 11 26 168 28 227 0
28 4 32 28 32 17 0 34 -8 43 -22z m-332 -83 c1 -24 7 -39 17 -42 18 -7 50 -43
51 -57 0 -6 -6 -2 -12 6 -7 9 -26 18 -43 20 -28 3 -30 6 -33 47 -3 43 4 79 13
69 3 -3 6 -22 7 -43z m44 -22 c-2 -3 -9 -2 -14 1 -7 4 -6 17 1 37 l12 32 3
-33 c2 -17 1 -34 -2 -37z m142 -4 c-3 -42 -5 -44 -35 -47 -36 -4 -48 -18 -59
-77 -7 -37 -8 -38 -15 -15 -10 36 -10 52 -1 46 5 -3 16 11 26 30 9 20 25 38
36 41 13 3 21 18 25 45 9 53 27 35 23 -23z m-387 -36 c6 -16 12 -41 14 -57 4
-26 2 -28 -11 -14 -16 15 -32 98 -20 98 4 0 11 -12 17 -27z m579 -48 c-6 -19
-16 -35 -21 -35 -14 0 -11 34 8 76 15 34 18 36 21 16 2 -12 -2 -38 -8 -57z
m-163 43 c-3 -8 -6 -5 -6 6 -1 11 2 17 5 13 3 -3 4 -12 1 -19z m-190 -211 c-5
-15 -67 111 -67 136 1 13 14 -7 36 -52 19 -41 33 -79 31 -84z m169 96 c-22
-41 -34 -66 -40 -87 -4 -10 -9 -16 -13 -13 -3 4 10 41 28 83 19 43 35 70 37
61 2 -9 -3 -29 -12 -44z m-313 -28 c-3 -8 -9 -15 -14 -15 -10 0 -12 24 -3 33
11 11 24 -3 17 -18z m417 -7 c0 -19 -2 -20 -10 -8 -13 19 -13 30 0 30 6 0 10
-10 10 -22z m-340 -55 c0 -18 -15 -17 -34 3 -17 17 -20 27 -9 37 9 9 43 -22
43 -40z m280 2 c-7 -8 -16 -15 -21 -15 -15 0 -10 22 9 43 15 17 17 17 20 3 2
-9 -2 -23 -8 -31z m-433 -12 c-3 -10 -5 -4 -5 12 0 17 2 24 5 18 2 -7 2 -21 0
-30z m79 -104 c19 -75 16 -94 -6 -34 -18 48 -26 105 -14 93 3 -3 12 -30 20
-59z m424 52 c0 -17 -41 -143 -46 -139 -7 8 28 148 37 148 5 0 9 -4 9 -9z
m-372 -57 c0 -28 6 -53 16 -62 14 -15 17 -14 29 2 18 24 51 17 55 -12 3 -17
-2 -22 -19 -22 -12 0 -30 -7 -40 -16 -15 -14 -18 -12 -38 29 -21 43 -29 127
-13 127 5 0 9 -21 10 -46z m82 38 c0 -4 -9 -13 -20 -20 -16 -10 -20 -10 -20 1
0 8 3 17 7 20 9 9 33 9 33 -1z m164 -8 c5 -12 2 -15 -10 -10 -8 3 -20 6 -25 6
-6 0 -7 5 -4 10 10 15 32 12 39 -6z m61 -51 c-3 -20 -15 -51 -24 -69 -16 -29
-20 -32 -31 -19 -7 8 -23 15 -37 15 -20 0 -24 4 -21 22 4 29 37 36 55 12 14
-18 15 -18 29 0 8 11 14 40 14 65 1 38 3 43 11 28 6 -11 8 -34 4 -54z m-469
-20 c18 -23 17 -43 0 -43 -14 0 -26 21 -26 46 0 19 10 18 26 -3z m614 -47 c0
-16 -18 -31 -27 -22 -8 8 5 36 17 36 5 0 10 -6 10 -14z m-40 -26 c0 -5 -4 -10
-10 -10 -5 0 -10 5 -10 10 0 6 5 10 10 10 6 0 10 -4 10 -10z m-620 -35 c0 -8
-4 -17 -10 -20 -6 -4 -10 5 -10 20 0 15 4 24 10 20 6 -3 10 -12 10 -20z m723
-35 c3 -13 0 -20 -9 -20 -8 0 -14 9 -14 20 0 11 4 20 9 20 5 0 11 -9 14 -20z
m-703 -62 c0 -18 -49 -116 -232 -466 -44 -82 -37 -50 54 265 l33 113 42 17
c24 10 43 20 43 23 0 13 41 70 50 70 5 0 10 -10 10 -22z m694 -19 c4 -22 60
-146 125 -275 66 -129 116 -234 113 -234 -4 0 -61 71 -127 156 -66 86 -128
166 -138 177 -14 17 -17 29 -11 52 4 16 7 50 6 75 -3 89 20 124 32 49z m-351
-52 c10 9 8 -10 -2 -26 -9 -14 -13 -10 -25 23 -5 15 -4 17 7 8 8 -7 17 -9 20
-5z m187 -122 c20 -95 53 -241 65 -295 3 -14 -21 49 -54 140 -57 155 -75 243
-54 264 12 12 21 -8 43 -109z m-201 -202 l-2 -258 -13 115 -13 115 4 -90 c2
-49 2 -85 -1 -80 -11 26 -70 361 -64 365 3 3 16 20 29 38 16 23 26 30 31 22 5
-9 10 -6 15 9 3 11 8 21 11 21 2 0 3 -116 3 -257z"/>
<path d="M1186 815 c-3 -9 -6 -31 -5 -48 1 -28 2 -26 10 12 9 46 6 65 -5 36z"/>
<path d="M1193 655 c0 -33 2 -45 4 -27 2 18 2 45 0 60 -2 15 -4 0 -4 -33z"/>
<path d="M1509 2792 c-3 -20 -2 -29 4 -23 5 5 7 19 5 32 -3 20 -5 19 -9 -9z"/>
<path d="M1353 2725 c0 -22 2 -30 4 -17 2 12 2 30 0 40 -3 9 -5 -1 -4 -23z"/>
<path d="M1081 2734 c0 -11 3 -14 6 -6 3 7 2 16 -1 19 -3 4 -6 -2 -5 -13z"/>
<path d="M1073 2620 c0 -25 2 -35 4 -22 2 12 2 32 0 45 -2 12 -4 2 -4 -23z"/>
<path d="M1343 2570 c0 -30 2 -43 4 -27 2 15 2 39 0 55 -2 15 -4 2 -4 -28z"/>
<path d="M1063 2460 c0 -47 2 -66 4 -42 2 23 2 61 0 85 -2 23 -4 4 -4 -43z"/>
<path d="M1334 2290 c0 -74 1 -105 3 -67 2 37 2 97 0 135 -2 37 -3 6 -3 -68z"/>
<path d="M962 570 c0 -19 2 -27 5 -17 2 9 2 25 0 35 -3 9 -5 1 -5 -18z"/>
</g>
</svg>
