<?xml version="1.0" standalone="no"?>
<!DOCTYPE svg PUBLIC "-//W3C//DTD SVG 20010904//EN"
 "http://www.w3.org/TR/2001/REC-SVG-20010904/DTD/svg10.dtd">
<svg version="1.0" xmlns="http://www.w3.org/2000/svg"
 width="244.000000pt" height="305.000000pt" viewBox="0 0 244.000000 305.000000"
 preserveAspectRatio="xMidYMid meet">
<metadata>
Created by potrace 1.16, written by Peter Selinger 2001-2019
</metadata>
<g transform="translate(0.000000,305.000000) scale(0.100000,-0.100000)"
fill="#000000" stroke="none">
<path d="M1536 2878 c-25 -122 -56 -331 -65 -433 -18 -205 -25 -525 -13 -525
6 0 27 -13 45 -30 41 -35 48 -36 71 -11 10 11 31 25 48 32 l31 12 -7 206 c-7
202 -27 442 -45 531 -14 73 -12 14 5 -110 8 -63 18 -222 21 -353 l6 -238 -34
-29 c-19 -16 -37 -29 -41 -30 -5 0 -8 217 -7 483 1 290 4 472 10 457 6 -19 7
-15 3 15 -7 54 -20 64 -28 23z"/>
<path d="M917 2893 c-8 -13 -54 -281 -67 -388 -6 -49 -15 -193 -20 -318 -9
-216 -5 -277 18 -277 5 0 24 -14 42 -30 l34 -30 25 23 c14 13 38 31 53 40 28
17 28 17 50 -18 13 -19 29 -35 36 -35 6 0 12 -7 12 -15 0 -20 -7 -19 -32 5
-43 40 -108 14 -130 -51 l-14 -42 -18 41 c-20 45 -63 72 -102 64 -31 -6 -66
-49 -62 -76 3 -18 9 -20 41 -18 32 3 43 -2 72 -31 38 -38 43 -58 20 -77 -21
-18 -19 -86 5 -139 15 -33 20 -65 20 -132 0 -112 -26 -120 -44 -14 -12 66 -16
75 -39 75 -76 0 -89 -78 -32 -185 20 -37 34 -72 32 -78 -5 -15 -82 91 -96 132
-17 53 -13 89 16 138 l27 46 -23 18 c-31 26 -93 25 -116 -1 -22 -24 -22 -46 4
-144 24 -92 17 -143 -24 -170 -21 -14 -23 -20 -14 -43 5 -14 6 -30 1 -35 -10
-10 -324 -129 -329 -124 -2 1 77 57 174 122 200 134 184 109 161 251 -18 114
-32 117 -25 6 l7 -92 -33 5 c-30 5 -42 -5 -206 -166 -95 -94 -171 -173 -169
-175 2 -2 83 23 178 56 96 34 196 68 223 77 38 13 47 20 47 39 0 13 6 26 14
29 18 7 115 -42 122 -61 3 -8 -10 -46 -29 -85 -28 -54 -32 -70 -20 -70 10 0
13 -5 8 -17 -17 -43 -146 -505 -143 -512 2 -7 109 118 360 420 15 18 15 24 2
54 -20 48 -18 55 16 55 26 0 30 -3 25 -23 -7 -31 -75 -512 -75 -528 0 -8 29
56 64 141 34 85 77 188 94 227 26 61 30 81 25 123 -5 41 -3 50 10 50 19 0 77
-47 77 -63 0 -6 -14 -26 -31 -43 l-32 -33 58 -298 c31 -164 60 -311 64 -328 5
-22 19 30 55 215 26 135 54 283 62 329 l15 84 -30 31 c-17 18 -31 37 -31 43 0
14 57 63 74 63 9 0 13 -17 12 -58 0 -50 9 -78 73 -227 41 -93 80 -186 87 -205
19 -52 17 -25 -17 200 -16 113 -32 227 -36 253 l-6 49 29 -4 c31 -3 34 -14 21
-73 -7 -28 5 -44 154 -220 89 -104 173 -205 187 -223 14 -18 27 -30 30 -28 2
3 -14 67 -36 143 -22 76 -59 203 -82 283 -23 80 -52 167 -66 195 -24 49 -24
50 -6 75 20 28 74 58 112 62 20 2 26 -2 28 -23 3 -23 14 -30 100 -62 156 -58
364 -126 360 -119 -2 4 -82 85 -180 180 -170 168 -177 174 -208 167 l-32 -7 7
85 c4 51 3 87 -3 90 -9 6 -22 -88 -22 -165 l0 -38 44 3 c44 2 44 2 180 -132
75 -73 135 -135 134 -136 -3 -4 -238 138 -326 195 -39 26 -56 45 -69 78 -15
40 -15 47 6 125 26 100 26 102 1 127 -34 34 -130 22 -130 -16 0 -8 12 -36 26
-64 24 -47 25 -51 12 -102 -14 -52 -94 -172 -110 -162 -4 2 11 39 34 80 46 86
54 140 24 173 -21 23 -58 28 -73 9 -13 -16 -26 -91 -25 -143 1 -35 0 -37 -10
-20 -6 11 -17 24 -25 28 -9 6 -13 31 -13 82 0 58 5 83 24 122 36 71 42 123 17
152 -17 19 -18 27 -9 45 24 48 50 66 95 66 39 0 43 2 43 25 0 34 -42 75 -76
75 -29 0 -94 -58 -94 -84 0 -28 -15 -17 -29 19 -23 64 -96 81 -141 33 l-20
-22 0 22 c0 12 6 22 13 22 7 0 21 14 31 31 16 27 18 54 17 247 -2 208 -6 358
-16 487 -10 131 -24 267 -27 270 -2 2 -3 -173 -3 -388 -1 -333 -3 -400 -17
-442 l-16 -50 -4 40 c-3 22 -6 -5 -7 -60 -3 -129 -19 -173 -20 -55 -2 187 -43
530 -78 644 -9 30 -18 5 -41 -119 -25 -128 -52 -396 -52 -523 0 -52 -4 -81 -9
-72 -5 8 -11 155 -15 325 -6 294 -31 672 -45 687 -3 4 -6 -185 -6 -420 0 -235
-4 -448 -8 -475 -16 -95 -27 -32 -29 171 l-2 207 -6 -215 c-3 -119 -7 -170 -8
-114 -6 275 -26 510 -63 721 -20 113 -19 61 1 -78 25 -177 38 -326 46 -540 6
-144 4 -178 -7 -187 -45 -39 -63 -52 -71 -52 -4 0 -8 217 -8 483 0 329 4 477
10 467 8 -11 9 -7 4 15 -8 36 -10 39 -17 28z m357 -533 c13 -118 19 -457 8
-476 -9 -14 -11 27 -12 167 0 102 -3 228 -6 280 -7 101 0 120 10 29z m23 -602
c-2 -18 -4 -4 -4 32 0 36 2 50 4 33 2 -18 2 -48 0 -65z m-253 -40 c3 -24 5
-74 5 -111 0 -37 3 -72 6 -77 3 -6 2 -10 -4 -10 -16 0 -61 84 -61 112 0 14 -7
31 -15 38 -21 18 -19 46 7 70 36 33 55 26 62 -22z m450 20 c20 -28 20 -52 1
-68 -8 -7 -15 -25 -15 -39 0 -23 -52 -121 -64 -121 -4 0 -1 63 10 188 5 57 7
62 29 62 13 0 31 -10 39 -22z m-374 2 c0 -5 -5 -10 -11 -10 -5 0 -7 5 -4 10 3
6 8 10 11 10 2 0 4 -4 4 -10z m179 -97 c1 -7 -3 -13 -9 -13 -5 0 -10 15 -9 33
0 27 2 29 9 12 5 -11 9 -26 9 -32z m49 -14 c-3 -42 -4 -44 -38 -47 -40 -4 -46
-11 -62 -71 l-11 -45 -18 55 c-10 30 -19 55 -19 57 0 1 -16 2 -35 2 -44 0 -65
34 -47 76 14 30 32 23 32 -12 0 -17 8 -27 25 -34 15 -6 32 -25 41 -45 8 -19
17 -35 20 -35 3 0 12 16 20 35 8 20 25 40 39 45 19 7 25 17 25 38 0 16 3 32 7
36 14 14 24 -13 21 -55z m-400 -51 c8 -19 8 -29 1 -34 -15 -9 -29 15 -29 51 0
31 10 26 28 -17z m139 10 c-3 -7 -5 -2 -5 12 0 14 2 19 5 13 2 -7 2 -19 0 -25z
m300 0 c-3 -7 -5 -2 -5 12 0 14 2 19 5 13 2 -7 2 -19 0 -25z m173 25 c0 -22
-22 -83 -30 -83 -18 0 -20 20 -3 54 15 32 33 48 33 29z m-440 -124 c23 -45 22
-59 -3 -32 -16 19 -34 73 -23 73 3 0 15 -18 26 -41z m255 14 c-3 -16 -16 -37
-27 -48 -11 -11 -19 -15 -17 -10 24 64 34 85 42 85 5 0 6 -12 2 -27z m-362
-54 c-21 -7 -28 4 -18 29 6 16 8 15 21 -3 13 -17 13 -20 -3 -26z m465 13 c2
-7 -4 -15 -13 -18 -20 -8 -27 -1 -19 20 7 18 25 17 32 -2z m-548 -85 c0 -30
-4 -46 -10 -42 -5 3 -10 32 -10 63 0 41 3 53 10 42 5 -8 10 -37 10 -63z m147
41 c26 -25 29 -38 9 -38 -19 0 -46 27 -46 46 0 20 10 18 37 -8z m347 -1 c-13
-22 -37 -47 -46 -47 -15 0 -8 23 13 47 22 22 45 22 33 0z m117 -64 c-9 -15
-10 -13 -11 12 0 17 4 41 8 55 6 23 7 21 10 -12 2 -21 -1 -46 -7 -55z m-240
14 c-13 -13 -15 1 -4 30 7 17 8 17 11 -1 2 -10 -1 -23 -7 -29z m-121 7 c0 -8
-4 -12 -10 -9 -5 3 -10 13 -10 21 0 8 5 12 10 9 6 -3 10 -13 10 -21z m-93
-175 c15 -15 33 -3 33 22 0 15 4 17 18 10 9 -5 25 -12 35 -15 12 -4 17 -13 15
-27 -2 -17 -11 -22 -45 -24 -29 -2 -50 2 -64 13 -23 20 -36 86 -23 129 7 24 9
19 13 -34 4 -34 11 -67 18 -74z m328 35 c-9 -53 -35 -73 -87 -69 -37 3 -43 6
-43 26 0 31 55 48 62 18 13 -47 53 6 54 71 1 43 1 43 11 17 5 -15 7 -44 3 -63z
m49 11 c-10 -36 -22 -65 -26 -65 -11 0 -11 -1 13 75 26 86 38 77 13 -10z
m-312 44 c-12 -5 -22 -16 -22 -26 0 -15 -2 -16 -10 -3 -16 24 -12 38 13 42 31
6 45 -4 19 -13z m189 11 c5 0 9 -12 8 -27 0 -27 -1 -27 -9 -5 -5 12 -16 22
-25 22 -8 0 -15 5 -15 11 0 6 7 8 16 5 9 -3 20 -6 25 -6z m-315 -94 c3 -23 -1
-18 -15 19 -11 28 -19 57 -19 65 0 23 28 -48 34 -84z m-124 29 c6 -14 8 -28 5
-31 -10 -11 -37 17 -37 37 0 27 18 23 32 -6z m668 -39 c0 -8 -4 -18 -10 -21
-5 -3 -10 3 -10 14 0 12 5 21 10 21 6 0 10 -6 10 -14z m-720 -52 c0 -8 -4 -12
-10 -9 -5 3 -10 13 -10 21 0 8 5 12 10 9 6 -3 10 -13 10 -21z m780 -44 c0 -16
-5 -30 -10 -30 -14 0 -24 26 -16 45 10 26 26 16 26 -15z m-870 -84 l-21 -21
18 39 c13 27 19 34 21 21 2 -10 -6 -27 -18 -39z m133 8 c3 -20 4 -48 1 -63 -3
-14 -1 -45 4 -68 9 -40 8 -46 -26 -90 -62 -82 -243 -303 -248 -303 -3 0 24 56
60 124 148 280 188 366 182 392 -4 14 -4 29 -1 34 12 19 22 9 28 -26z m737
-14 c13 -39 21 -47 60 -61 l44 -16 48 -159 c72 -239 88 -298 79 -288 -4 5 -67
119 -141 254 -133 247 -165 326 -124 318 11 -2 24 -20 34 -48z m70 10 c0 -5
-2 -10 -4 -10 -3 0 -8 5 -11 10 -3 6 -1 10 4 10 6 0 11 -4 11 -10z m-450 -86
c-11 -28 -12 -28 -26 -10 -18 26 -18 42 1 26 12 -10 16 -9 21 4 4 9 8 15 11
13 2 -2 -1 -17 -7 -33z m-210 -11 c0 -15 -41 -175 -95 -368 -21 -76 -17 -27
10 148 14 87 25 171 25 186 0 15 5 32 12 39 18 18 48 15 48 -5z m438 -189 c29
-114 51 -208 49 -210 -2 -3 -19 35 -37 83 -18 49 -47 120 -63 158 -35 81 -39
175 -9 175 4 0 31 -93 60 -206z m-158 76 c19 -27 19 -28 -15 -196 -36 -183
-40 -175 -21 39 9 111 9 144 -1 169 -7 17 -13 33 -13 35 0 9 30 -19 50 -47z
m-393 -332 c-3 -8 -6 -5 -6 6 -1 11 2 17 5 13 3 -3 4 -12 1 -19z"/>
<path d="M1572 2790 c0 -14 2 -19 5 -12 2 6 2 18 0 25 -3 6 -5 1 -5 -13z"/>
<path d="M1063 2765 c0 -22 2 -30 4 -17 2 12 2 30 0 40 -3 9 -5 -1 -4 -23z"/>
<path d="M1373 2755 c0 -22 2 -30 4 -17 2 12 2 30 0 40 -3 9 -5 -1 -4 -23z"/>
<path d="M1582 2735 c0 -16 2 -22 5 -12 2 9 2 23 0 30 -3 6 -5 -1 -5 -18z"/>
<path d="M1053 2645 c0 -27 2 -38 4 -22 2 15 2 37 0 50 -2 12 -4 0 -4 -28z"/>
<path d="M1363 2645 c0 -22 2 -30 4 -17 2 12 2 30 0 40 -3 9 -5 -1 -4 -23z"/>
<path d="M1353 2500 c0 -30 2 -43 4 -27 2 15 2 39 0 55 -2 15 -4 2 -4 -28z"/>
<path d="M1043 2455 c0 -44 2 -61 4 -37 2 23 2 59 0 80 -2 20 -4 1 -4 -43z"/>
<path d="M1344 2245 c0 -60 1 -84 3 -52 2 32 2 81 0 110 -2 29 -3 3 -3 -58z"/>
</g>
</svg>
