<?xml version="1.0" standalone="no"?>
<!DOCTYPE svg PUBLIC "-//W3C//DTD SVG 20010904//EN"
 "http://www.w3.org/TR/2001/REC-SVG-20010904/DTD/svg10.dtd">
<svg version="1.0" xmlns="http://www.w3.org/2000/svg"
 width="244.000000pt" height="305.000000pt" viewBox="0 0 244.000000 305.000000"
 preserveAspectRatio="xMidYMid meet">
<metadata>
Created by potrace 1.16, written by Peter Selinger 2001-2019
</metadata>
<g transform="translate(0.000000,305.000000) scale(0.100000,-0.100000)"
fill="#000000" stroke="none">
<path d="M886 2878 c-8 -33 -7 -40 4 -33 7 4 10 -155 10 -469 0 -262 -2 -476
-5 -476 -3 0 -23 12 -45 26 l-40 27 0 147 c0 213 31 541 66 690 3 14 3 22 -1
18 -15 -14 -46 -195 -64 -368 -17 -155 -26 -520 -13 -520 6 0 30 -15 54 -34
l44 -33 30 24 c16 13 39 28 52 33 22 9 22 13 22 178 0 93 -7 238 -15 323 -15
157 -73 489 -86 489 -4 0 -9 -10 -13 -22z"/>
<path d="M1566 2868 c9 -41 12 -958 2 -964 -3 -2 -25 8 -48 23 l-43 28 7 200
c7 209 25 401 51 545 21 118 17 144 -6 35 -35 -171 -68 -565 -63 -750 1 -51 5
-62 23 -71 12 -6 32 -21 45 -33 28 -26 48 -27 70 -2 10 11 31 25 48 32 l31 12
-7 191 c-10 276 -28 465 -60 615 -33 152 -38 171 -48 171 -6 0 -7 -13 -2 -32z"/>
<path d="M1551 2844 c0 -11 3 -14 6 -6 3 7 2 16 -1 19 -3 4 -6 -2 -5 -13z"/>
<path d="M1166 2818 c-7 -33 -16 -405 -17 -690 0 -137 -5 -250 -10 -253 -4 -3
-10 4 -13 17 -2 13 -11 63 -20 112 -8 49 -20 94 -25 99 -10 10 -26 -60 -37
-159 -6 -61 -6 -61 24 -73 20 -9 35 -24 41 -45 10 -28 7 -78 -5 -98 -7 -12
-38 -10 -51 3 -17 17 -35 1 -27 -24 17 -58 63 -74 90 -32 24 36 35 31 28 -14
-4 -24 -2 -41 5 -45 6 -4 11 -14 11 -23 0 -11 -6 -14 -22 -10 -25 7 -88 -17
-88 -33 0 -6 14 -13 31 -17 21 -4 28 -10 25 -20 -4 -8 -6 -23 -6 -34 0 -29
-24 -14 -75 48 -30 37 -47 69 -51 95 -4 22 -13 42 -20 45 -20 7 -17 47 5 74
16 20 29 24 70 24 47 0 51 2 51 23 0 36 -17 59 -51 71 -46 16 -94 -7 -114 -55
-17 -41 -19 -41 -44 8 -34 63 -133 70 -160 12 -20 -46 -15 -54 35 -54 39 0 51
-5 80 -34 37 -37 42 -57 19 -76 -37 -31 -7 -144 60 -226 19 -23 35 -46 35 -51
0 -5 -12 -20 -26 -34 -37 -34 -57 -84 -44 -109 11 -21 60 -50 83 -50 30 0 38
25 25 73 -16 63 -3 79 53 64 22 -5 43 -16 46 -23 2 -7 0 -37 -7 -67 l-11 -55
-61 -22 c-70 -26 -92 -19 -137 39 -20 27 -26 47 -28 95 -1 34 -5 81 -10 106
-7 42 -10 45 -41 48 -53 5 -75 -21 -70 -84 4 -41 16 -70 60 -140 122 -195 125
-167 -52 -469 -29 -49 -76 -129 -104 -177 -27 -48 -52 -86 -54 -84 -2 3 28
103 67 223 l70 219 48 15 c46 13 49 16 61 65 19 69 5 116 -59 195 -66 82 -81
112 -81 163 -1 30 7 54 28 85 l28 43 -23 19 c-29 24 -103 26 -125 3 -20 -20
-20 -69 -1 -124 19 -54 19 -113 0 -149 -9 -19 -50 -49 -117 -89 -140 -82 -269
-152 -280 -152 -5 0 56 59 134 131 l143 130 48 -6 48 -6 -7 68 c-4 37 -10 88
-14 113 -7 44 -7 44 -15 16 -4 -17 -4 -61 1 -98 l10 -69 -36 6 c-38 6 -17 23
-303 -239 -49 -45 -94 -84 -100 -88 -6 -4 -9 -10 -5 -13 4 -4 114 29 245 72
214 70 238 80 241 101 5 34 23 36 84 9 59 -26 94 -66 104 -116 6 -28 4 -32
-25 -37 -17 -4 -35 -11 -40 -18 -9 -11 -162 -485 -174 -541 -7 -27 -2 -24 54
35 206 218 349 384 344 399 -4 9 -9 31 -12 48 l-6 33 84 -1 c46 -1 95 -4 109
-8 23 -7 25 -11 23 -67 -5 -121 -1 -289 8 -304 5 -9 7 4 4 35 -7 72 4 31 60
-230 25 -121 48 -221 49 -222 1 -2 15 57 30 130 14 72 37 177 49 232 l22 100
17 -85 c15 -74 17 -77 12 -25 -8 74 -9 106 -5 215 1 47 -2 101 -7 120 -8 30
-10 31 -11 10 -1 -20 -3 -22 -11 -10 -22 34 -11 66 29 88 31 18 55 22 125 22
95 0 99 -4 76 -66 -12 -31 -4 -46 56 -109 22 -22 106 -113 188 -203 81 -90
150 -161 153 -159 2 3 -14 60 -36 128 -22 68 -61 194 -88 279 -48 153 -49 155
-83 166 -45 15 -50 43 -16 94 17 26 43 47 81 65 63 29 82 28 87 -7 3 -21 27
-31 233 -100 127 -42 237 -77 245 -77 16 0 -78 91 -258 251 -102 91 -115 99
-142 93 l-30 -7 -1 99 -1 98 -13 -83 c-7 -46 -19 -98 -26 -114 -16 -39 -24
-32 215 -177 103 -63 185 -116 182 -118 -5 -5 -133 39 -282 95 -70 27 -98 42
-95 53 13 49 12 55 -13 67 -17 7 -28 24 -36 51 -11 40 -6 74 23 171 15 48 13
65 -11 93 -28 32 -142 13 -142 -24 0 -6 11 -25 25 -43 17 -23 25 -46 25 -74 0
-56 -14 -87 -67 -152 -62 -76 -83 -120 -90 -195 l-6 -64 132 -237 c73 -130
130 -238 128 -240 -2 -2 -35 33 -73 77 -38 45 -83 98 -100 118 -134 153 -135
154 -128 191 3 19 7 69 8 110 3 83 19 122 103 253 36 55 47 84 51 123 4 45 1
53 -19 68 -28 19 -63 21 -76 4 -16 -20 -36 -133 -28 -157 9 -29 -27 -90 -70
-120 l-35 -24 -50 22 c-28 12 -62 20 -77 19 -23 -3 -28 2 -36 29 -12 39 -2 76
14 53 7 -11 8 -6 4 17 -6 29 -4 32 27 41 18 6 41 13 50 17 28 11 40 -26 27
-81 -14 -54 -3 -68 45 -59 75 14 88 76 29 144 -25 30 -34 47 -27 56 50 72 83
126 92 154 17 49 15 108 -3 115 -24 9 -17 36 20 73 30 30 40 34 77 31 38 -2
43 0 46 20 4 28 -47 82 -78 82 -35 0 -75 -27 -95 -64 -11 -20 -22 -36 -25 -36
-3 0 -12 16 -19 35 -30 85 -154 78 -163 -10 -3 -30 -3 -30 44 -27 40 3 51 0
73 -22 28 -28 32 -58 11 -75 -7 -6 -16 -28 -20 -49 -6 -39 -51 -102 -104 -147
l-32 -27 0 40 c0 37 3 41 30 47 17 4 30 10 30 15 0 14 -65 39 -87 34 -21 -6
-22 -4 -16 52 3 33 7 61 9 63 2 2 13 -8 25 -22 11 -15 29 -27 39 -27 23 0 50
36 50 68 0 19 -4 23 -17 17 -37 -16 -56 -10 -66 18 -16 48 -1 93 38 116 38 22
39 27 25 121 -26 166 -34 160 -71 -62 -6 -38 -15 -68 -20 -68 -5 0 -10 132
-11 303 -1 210 -4 270 -8 197 -4 -67 -7 0 -6 182 0 158 -3 290 -7 294 -4 4 -7
-58 -8 -137 0 -79 -4 -166 -7 -193 l-7 -49 -18 72 c-11 40 -21 71 -23 68 -2
-2 -13 -37 -23 -78 l-20 -74 -2 50 c-2 37 -5 27 -10 -40 -4 -59 -6 -8 -5 148
0 130 0 237 -1 237 -2 0 -5 -10 -7 -22z m63 -378 c-4 -47 -9 -193 -10 -325 -3
-206 -4 -224 -10 -125 l-6 115 1 -145 c1 -80 0 -135 -2 -122 -2 12 -8 22 -13
22 -5 0 -9 -10 -9 -22 -1 -20 -2 -21 -10 -7 -7 12 -5 28 5 53 18 42 20 69 4
46 -20 -29 5 391 32 520 23 111 28 108 18 -10z m-23 -727 c-4 -40 -3 -50 3
-33 8 21 9 18 10 -23 1 -45 0 -47 -19 -35 -16 11 -20 24 -20 74 0 33 3 64 7
67 18 18 24 2 19 -50z m-281 -135 c22 -50 94 -131 148 -164 42 -27 52 -60 15
-48 -82 25 -198 163 -198 235 0 32 15 22 35 -23z m655 27 c0 -52 -75 -163
-139 -205 -78 -52 -114 -34 -38 19 57 39 113 101 139 156 22 45 38 58 38 30z
m-383 -52 c-3 -10 -5 -2 -5 17 0 19 2 27 5 18 2 -10 2 -26 0 -35z m80 0 c-3
-10 -5 -2 -5 17 0 19 2 27 5 18 2 -10 2 -26 0 -35z m-40 -70 c-3 -10 -5 -4 -5
12 0 17 2 24 5 18 2 -7 2 -21 0 -30z m-72 -41 c6 -29 8 -73 5 -99 l-5 -48 -2
45 c-5 72 -13 111 -24 105 -5 -4 -9 8 -9 25 0 50 24 31 35 -28z m169 26 c5
-22 3 -26 -9 -22 -15 6 -20 35 -8 47 8 9 9 8 17 -25z m-27 -135 c-2 -21 -4 -4
-4 37 0 41 2 58 4 38 2 -21 2 -55 0 -75z m-204 -155 c-3 -32 -10 -58 -15 -58
-5 0 -7 14 -4 30 3 17 9 44 12 61 9 46 12 31 7 -33z m44 10 c-3 -7 -5 -2 -5
12 0 14 2 19 5 13 2 -7 2 -19 0 -25z m36 -21 c-8 -12 -23 14 -22 38 0 18 1 17
13 -5 8 -14 12 -29 9 -33z m120 25 c-3 -12 -9 -22 -14 -22 -5 0 -3 11 3 25 13
30 20 28 11 -3z m62 -113 c-8 -12 -35 -12 -35 0 0 11 22 20 33 14 4 -2 5 -9 2
-14z m-230 2 c10 -17 -12 -21 -25 -6 -10 12 -10 15 3 15 9 0 18 -4 22 -9z
m102 -173 c-3 -7 -5 -2 -5 12 0 14 2 19 5 13 2 -7 2 -19 0 -25z m-80 -60 c-3
-7 -5 -2 -5 12 0 14 2 19 5 13 2 -7 2 -19 0 -25z m59 -171 c1 -111 4 -242 8
-292 3 -49 3 -85 1 -80 -10 21 -75 350 -75 377 0 15 -4 28 -9 28 -10 0 -2 89
11 110 5 9 7 -7 4 -45 l-5 -60 12 60 c11 54 34 105 47 105 3 0 6 -91 6 -203z"/>
<path d="M1102 495 c0 -64 1 -66 8 -28 5 23 5 54 0 70 -6 21 -8 12 -8 -42z"/>
</g>
</svg>
