<?xml version="1.0" standalone="no"?>
<!DOCTYPE svg PUBLIC "-//W3C//DTD SVG 20010904//EN"
 "http://www.w3.org/TR/2001/REC-SVG-20010904/DTD/svg10.dtd">
<svg version="1.0" xmlns="http://www.w3.org/2000/svg"
 width="244.000000pt" height="305.000000pt" viewBox="0 0 244.000000 305.000000"
 preserveAspectRatio="xMidYMid meet">
<metadata>
Created by potrace 1.16, written by Peter Selinger 2001-2019
</metadata>
<g transform="translate(0.000000,305.000000) scale(0.100000,-0.100000)"
fill="#000000" stroke="none">
<path d="M1502 2803 c-12 -65 -22 -127 -22 -138 0 -11 -4 -26 -9 -33 -5 -8
-13 33 -20 102 -6 63 -15 124 -19 135 -4 11 -6 -203 -4 -475 2 -321 -1 -494
-7 -494 -6 0 -12 15 -15 33 -3 17 -10 59 -16 91 -5 33 -11 123 -12 200 l-1
141 -8 -145 c-4 -80 -12 -163 -16 -185 l-9 -40 -9 55 c-4 30 -10 47 -12 37
-10 -41 -23 1 -23 76 -1 152 -53 465 -71 422 -21 -50 -51 -264 -57 -400 -5
-135 -7 -146 -17 -110 -11 36 -12 37 -18 15 -4 -14 -7 -36 -8 -50 -2 -58 -28
91 -29 165 -1 161 -44 663 -59 692 -3 6 -6 -162 -5 -375 1 -213 0 -371 -2
-352 -1 19 -8 137 -15 263 -7 125 -16 227 -20 227 -4 0 -10 21 -13 48 -12 81
-18 113 -22 109 -3 -2 3 -52 12 -111 8 -59 14 -148 12 -200 -2 -52 0 -92 5
-89 4 2 8 12 9 21 4 46 16 -184 17 -330 1 -154 -5 -190 -24 -158 -10 17 -26
11 -23 -7 3 -21 -9 -43 -23 -43 -5 0 -9 187 -8 483 0 278 4 474 9 462 l9 -20
0 20 c0 11 -4 29 -8 40 -7 16 -11 7 -20 -40 -7 -33 -14 -66 -16 -73 -26 -78
-77 -780 -60 -832 3 -10 21 -30 40 -45 24 -18 35 -34 35 -52 l0 -26 -24 22
c-18 17 -33 22 -62 19 -33 -2 -42 -8 -56 -37 -23 -45 -15 -61 28 -54 29 5 38
1 64 -27 33 -35 39 -70 14 -91 -12 -10 -15 -24 -10 -59 5 -40 4 -46 -16 -55
-16 -7 -24 -20 -26 -43 -2 -20 -8 -32 -15 -29 -6 2 -20 -12 -30 -32 -15 -26
-18 -46 -13 -82 7 -54 -8 -75 -24 -34 -16 41 -12 92 10 135 11 22 20 46 20 54
0 37 -87 49 -120 16 -25 -25 -25 -38 0 -125 11 -38 20 -83 20 -100 0 -33 -33
-95 -51 -95 -7 0 -9 -13 -4 -39 l6 -38 -152 -61 c-84 -34 -155 -59 -157 -57
-3 3 99 79 181 135 17 11 94 67 146 106 4 3 -17 149 -30 204 -6 25 -7 7 -6
-60 l1 -95 -27 3 c-22 3 -43 -14 -140 -115 -191 -199 -224 -237 -202 -230 11
3 88 31 170 62 156 59 207 76 211 72 1 -1 -17 -34 -41 -72 -24 -38 -42 -71
-41 -73 2 -2 57 26 122 63 65 36 123 64 131 61 33 -13 23 -86 -12 -86 -28 0
-35 -21 -115 -320 -11 -41 -31 -115 -45 -165 -13 -49 -22 -91 -21 -93 2 -1 56
65 120 148 65 82 122 153 127 156 6 3 7 -4 4 -18 -14 -58 -54 -292 -51 -296 4
-3 121 217 200 375 30 61 35 79 30 116 -6 42 -5 44 20 49 36 7 89 -21 100 -53
7 -22 5 -31 -17 -55 -15 -16 -27 -32 -27 -36 0 -4 22 -132 49 -285 27 -153 52
-298 56 -323 5 -25 9 -40 11 -35 4 9 78 416 104 571 13 71 12 72 -14 106 -31
41 -32 49 -8 75 23 27 56 43 87 43 25 0 26 -1 19 -49 -6 -48 -3 -55 76 -208
136 -259 143 -273 146 -270 2 1 -8 63 -22 137 -14 73 -23 140 -22 149 3 13 55
-49 187 -218 14 -19 36 -46 49 -60 l23 -26 -6 30 c-8 42 -102 395 -127 477
-17 59 -23 67 -49 73 -21 5 -29 12 -29 28 0 34 11 67 22 67 5 0 53 -25 106
-55 52 -31 99 -54 103 -53 4 2 -17 42 -47 90 -57 93 -63 108 -39 108 8 0 18
-14 23 -32 7 -28 16 -34 97 -65 197 -74 330 -122 332 -119 4 4 -58 71 -209
224 -117 119 -133 132 -157 127 l-27 -6 3 93 c3 111 -12 77 -20 -45 l-6 -79
41 7 40 7 129 -133 c71 -74 129 -138 129 -143 0 -5 -6 -4 -12 1 -7 6 -85 57
-173 115 -199 131 -215 155 -180 272 22 71 20 133 -4 146 -30 15 -76 12 -100
-8 l-21 -17 25 -47 c28 -52 31 -82 13 -140 -17 -58 -34 -42 -29 31 3 54 0 66
-20 87 -12 13 -28 24 -36 24 -8 0 -13 12 -13 30 0 19 -7 34 -19 42 -16 10 -18
20 -14 63 4 39 2 54 -11 64 -24 20 -20 45 14 81 25 27 36 32 65 28 31 -3 36
-1 41 19 8 30 -19 71 -50 79 -36 9 -65 -4 -86 -39 l-19 -30 -7 27 c-5 22 -1
33 22 57 15 16 36 32 47 35 20 6 20 13 13 241 -7 247 -18 389 -41 513 -15 86
-19 47 -5 -50 27 -180 49 -641 32 -665 -4 -6 -22 -21 -39 -34 l-33 -22 -2 233
c-2 128 -1 350 2 493 3 143 2 268 -1 278 -3 11 -15 -34 -27 -100z m-215 -800
c-1 -43 -3 -10 -3 72 0 83 2 118 3 78 2 -40 2 -107 0 -150z m-270 -118 c8 -21
-1 -28 -27 -20 -17 5 -19 10 -9 21 15 18 28 18 36 -1z m474 5 c28 -16 23 -30
-11 -30 -28 0 -40 17 -23 33 8 9 11 9 34 -3z m-411 -15 c0 -8 -7 -15 -15 -15
-16 0 -20 12 -8 23 11 12 23 8 23 -8z m330 -5 c0 -5 -7 -10 -16 -10 -8 0 -12
5 -9 10 3 6 10 10 16 10 5 0 9 -4 9 -10z m-294 -135 c-17 -17 -36 -12 -36 10
0 16 31 25 44 14 5 -4 1 -15 -8 -24z m274 5 c0 -18 -22 -22 -37 -7 -21 21 -8
40 18 27 10 -6 19 -15 19 -20z m-379 -63 c-18 -18 -35 7 -26 40 l7 28 15 -29
c11 -20 12 -31 4 -39z m478 41 c9 -23 -10 -58 -31 -58 -11 0 -10 37 2 61 14
25 19 24 29 -3z m-192 -70 c-3 -7 -5 -2 -5 12 0 14 2 19 5 13 2 -7 2 -19 0
-25z m-146 2 c5 0 9 -7 9 -15 0 -8 9 -19 21 -25 11 -7 28 -28 36 -48 14 -34
16 -35 29 -17 8 10 14 23 14 29 0 5 19 27 41 48 31 29 47 37 63 32 28 -9 27
-6 20 -43 -6 -31 -8 -32 -43 -26 -44 7 -72 -17 -95 -80 l-13 -40 -12 43 c-17
62 -44 86 -88 77 -39 -7 -53 4 -53 42 0 22 23 34 48 27 8 -2 18 -4 23 -4z
m-151 -133 c28 -55 49 -101 47 -104 -7 -7 -77 87 -93 126 -13 30 -20 91 -10
80 2 -2 27 -48 56 -102z m510 5 c-22 -52 -90 -128 -90 -101 0 8 17 42 38 75
21 32 45 75 53 94 14 34 14 35 17 8 2 -14 -6 -49 -18 -76z m-448 35 c9 -28 14
-54 12 -56 -5 -5 -43 80 -44 97 0 29 16 8 32 -41z m364 -2 c-4 -18 -14 -39
-23 -46 -14 -12 -16 -12 -11 2 4 10 12 36 19 59 14 48 24 37 15 -15z m-267
-61 c13 -29 14 -44 4 -44 -9 0 -43 57 -43 70 0 18 27 -1 39 -26z m191 26 c0
-14 -41 -70 -52 -70 -9 0 8 48 24 67 13 16 28 17 28 3z m-414 -91 c-3 -17 -6
-53 -6 -80 0 -27 -4 -49 -9 -49 -16 0 -24 98 -11 130 17 40 34 39 26 -1z m618
5 c9 -24 7 -97 -4 -114 -5 -8 -10 -10 -10 -5 0 6 -3 38 -5 73 -4 58 5 81 19
46z m-372 -62 c9 -9 7 -12 -9 -12 -11 0 -26 7 -33 15 -11 13 -9 15 9 12 12 -2
27 -9 33 -15z m132 -9 c-12 -9 -21 -10 -28 -3 -14 14 11 31 32 22 12 -4 12 -7
-4 -19z m-293 -75 c-9 -31 -9 -31 -10 -6 -1 30 11 67 16 51 2 -6 0 -26 -6 -45z
m433 36 c7 -18 8 -80 2 -73 -10 9 -24 89 -16 89 4 0 11 -7 14 -16z m-314 -24
c14 -4 19 -8 13 -9 -8 -1 -13 -15 -13 -35 0 -28 4 -35 22 -38 26 -3 35 -32 17
-54 -8 -10 -15 -11 -25 -3 -7 6 -39 11 -71 12 -48 2 -58 5 -61 21 -3 15 0 17
14 11 45 -18 49 -13 46 48 -3 62 1 65 58 47z m240 -44 c0 -30 4 -57 9 -60 5
-3 20 3 34 14 l25 20 -7 -27 c-7 -26 -12 -28 -60 -30 -29 -1 -58 -6 -64 -12
-19 -15 -39 3 -35 30 2 16 11 25 24 27 25 4 36 31 22 57 -11 19 4 35 35 35 14
0 17 -9 17 -54z m-550 -17 c15 -27 -6 -33 -24 -7 -9 12 -16 26 -16 30 0 13 30
-4 40 -23z m820 -35 c0 -8 -4 -12 -10 -9 -5 3 -10 10 -10 16 0 5 5 9 10 9 6 0
10 -7 10 -16z m-665 -35 c10 -30 0 -33 -13 -4 -6 14 -7 25 -2 25 5 0 12 -9 15
-21z m506 -6 c-8 -15 -10 -15 -11 -2 0 17 10 32 18 25 2 -3 -1 -13 -7 -23z
m-819 -25 c-7 -7 -12 -8 -12 -2 0 14 12 26 19 19 2 -3 -1 -11 -7 -17z m65 1
c9 -9 -5 -28 -54 -75 -90 -88 -90 -87 -20 24 40 62 53 72 74 51z m178 -101 c7
-48 -26 -233 -48 -273 -15 -29 -185 -255 -191 -255 -7 0 17 56 108 243 120
251 115 229 91 367 l-6 35 20 -36 c11 -20 23 -56 26 -81z m689 58 c-4 -30 -3
-71 0 -91 6 -31 14 -39 51 -55 48 -21 43 -11 103 -225 11 -38 29 -105 42 -148
12 -43 20 -80 18 -82 -2 -2 -61 110 -132 249 -125 245 -129 254 -124 304 4 44
29 102 43 102 3 0 2 -24 -1 -54z m187 -38 c51 -59 52 -61 19 -41 -19 12 -52
31 -72 42 -44 25 -55 40 -37 52 25 16 35 10 90 -53z m-604 16 c-3 -3 -12 -4
-19 -1 -8 3 -5 6 6 6 11 1 17 -2 13 -5z m23 -88 c0 -7 6 -21 14 -32 14 -18 15
-17 30 16 9 20 15 27 16 17 0 -18 -27 -77 -35 -77 -7 0 -26 39 -35 72 -5 17
-5 26 1 23 5 -4 9 -12 9 -19z m-222 -78 c-16 -49 -24 -53 -37 -18 -13 39 -8
50 24 50 23 0 23 -2 13 -32z m554 -175 c37 -114 65 -209 63 -212 -2 -2 -41 71
-86 163 -76 155 -81 169 -75 211 4 25 13 45 19 45 7 0 42 -92 79 -207z m-627
98 c-15 -15 -16 -14 -9 14 10 44 18 53 22 26 2 -13 -4 -31 -13 -40z m24 -72
c-12 -35 -39 -113 -60 -174 -20 -60 -38 -105 -38 -99 -1 18 48 254 56 267 17
29 56 77 60 73 2 -2 -6 -32 -18 -67z m380 -48 c-7 -39 -14 -69 -17 -67 -2 3
-1 39 3 81 5 50 11 73 17 67 7 -7 6 -35 -3 -81z m-22 -123 c-3 -7 -5 -2 -5 12
0 14 2 19 5 13 2 -7 2 -19 0 -25z"/>
<path d="M1022 2805 c0 -16 2 -22 5 -12 2 9 2 23 0 30 -3 6 -5 -1 -5 -18z"/>
<path d="M1412 2800 c0 -14 2 -19 5 -12 2 6 2 18 0 25 -3 6 -5 1 -5 -13z"/>
<path d="M1012 2715 c0 -16 2 -22 5 -12 2 9 2 23 0 30 -3 6 -5 -1 -5 -18z"/>
<path d="M1403 2700 c0 -25 2 -35 4 -22 2 12 2 32 0 45 -2 12 -4 2 -4 -23z"/>
<path d="M1393 2595 c0 -27 2 -38 4 -22 2 15 2 37 0 50 -2 12 -4 0 -4 -28z"/>
<path d="M1381 2478 c1 -68 6 -61 11 15 2 26 0 47 -4 47 -5 0 -7 -28 -7 -62z"/>
<path d="M1371 2394 c0 -11 3 -14 6 -6 3 7 2 16 -1 19 -3 4 -6 -2 -5 -13z"/>
<path d="M984 2180 c0 -113 2 -159 3 -102 2 56 2 148 0 205 -1 56 -3 10 -3
-103z"/>
</g>
</svg>
