<?xml version="1.0" standalone="no"?>
<!DOCTYPE svg PUBLIC "-//W3C//DTD SVG 20010904//EN"
 "http://www.w3.org/TR/2001/REC-SVG-20010904/DTD/svg10.dtd">
<svg version="1.0" xmlns="http://www.w3.org/2000/svg"
 width="244.000000pt" height="305.000000pt" viewBox="0 0 244.000000 305.000000"
 preserveAspectRatio="xMidYMid meet">
<metadata>
Created by potrace 1.16, written by Peter Selinger 2001-2019
</metadata>
<g transform="translate(0.000000,305.000000) scale(0.100000,-0.100000)"
fill="#000000" stroke="none">
<path d="M1008 2425 c3 -498 1 -528 -31 -496 -16 16 -19 304 -7 564 6 139 6
214 -2 253 -8 41 -8 58 1 67 8 8 11 -1 11 -38 0 -28 5 -57 10 -65 17 -27 11
70 -9 135 l-18 60 -11 -55 c-39 -192 -68 -562 -72 -903 0 -20 7 -31 25 -39 29
-13 33 -37 8 -40 -10 0 -22 -2 -28 -3 -5 -2 -18 -3 -27 -4 -20 -1 -51 -54 -46
-79 2 -11 14 -17 40 -17 38 -2 56 -15 77 -53 10 -19 10 -28 -5 -49 -29 -45 0
-165 59 -245 18 -24 19 -31 7 -53 -20 -37 -30 -31 -30 19 0 49 -11 63 -55 68
-30 3 -32 8 -20 39 12 31 -22 49 -88 49 -68 0 -78 -4 -96 -37 -9 -18 -7 -38 8
-98 19 -72 19 -105 0 -105 -12 0 -29 69 -29 123 0 30 -4 46 -10 42 -6 -4 -8
-38 -3 -91 l6 -85 -26 6 c-27 7 -22 12 -153 -136 -136 -153 -176 -200 -172
-205 4 -4 54 15 133 51 39 18 43 11 15 -27 l-23 -31 27 7 c48 12 291 136 306
157 15 19 16 20 33 2 16 -19 47 -84 47 -102 0 -5 -14 -17 -31 -28 -30 -17 -33
-26 -94 -265 -35 -136 -66 -264 -70 -285 -6 -37 -5 -36 49 36 30 41 57 76 59
78 3 2 -2 -24 -10 -58 -30 -132 -17 -119 122 119 48 81 100 168 105 172 23 22
31 56 24 107 l-7 56 57 -5 c36 -3 63 -11 77 -24 38 -34 40 -49 13 -85 -21 -28
-25 -42 -20 -74 14 -101 97 -609 100 -612 4 -5 14 50 60 337 54 337 52 305 21
346 l-27 36 19 26 c27 36 60 52 111 52 45 0 48 -4 33 -56 -10 -35 -2 -51 134
-274 44 -72 85 -140 91 -151 7 -12 17 -26 24 -32 10 -10 11 -6 6 17 -4 16 -11
50 -16 75 l-8 46 20 -25 c11 -14 27 -34 36 -45 9 -11 30 -40 46 -63 16 -23 31
-41 33 -39 2 2 -28 130 -67 283 -69 274 -80 304 -117 304 -7 0 -13 11 -13 24
0 27 25 92 39 100 5 3 78 -28 162 -69 85 -41 157 -75 162 -75 4 0 0 11 -9 25
-9 14 -15 28 -12 30 2 2 50 -14 108 -35 57 -22 105 -39 106 -37 3 2 -81 98
-215 246 -42 46 -81 91 -87 99 -8 10 -19 13 -38 8 l-28 -7 7 84 c5 58 4 87 -4
91 -7 5 -11 -7 -11 -37 0 -24 -3 -72 -7 -107 l-6 -63 39 6 40 7 91 -103 c114
-128 146 -167 139 -167 -4 0 -34 19 -67 43 -34 23 -82 56 -107 73 -64 45 -119
101 -148 151 l-25 42 17 85 c13 62 15 93 8 113 -9 27 -11 28 -91 30 -92 1
-109 -8 -100 -56 7 -33 -2 -39 -44 -33 l-27 4 24 51 c24 52 34 157 15 157 -5
0 -11 10 -14 22 -5 16 4 31 32 60 34 33 42 37 64 29 32 -12 41 5 26 49 -14 40
-39 52 -89 44 -50 -8 -55 11 -10 41 l30 20 0 157 c0 168 -15 422 -30 503 -8
44 -9 41 -4 -25 12 -173 23 -402 24 -501 0 -103 -1 -107 -25 -123 l-25 -16 0
57 c0 32 -4 168 -10 303 -12 331 -16 543 -9 555 3 6 2 26 -1 45 l-6 35 -8 -42
c-9 -50 -26 -67 -26 -26 0 15 -4 33 -8 40 -4 6 -7 -50 -7 -125 0 -76 -5 -202
-12 -282 -7 -80 -15 -234 -19 -342 -3 -109 -10 -198 -15 -198 -5 0 -10 78 -11
173 l-2 172 -6 -150 c-4 -121 -6 -140 -12 -96 -14 101 -45 89 -57 -23 -5 -42
-11 -79 -13 -82 -3 -2 -8 80 -11 183 -8 237 -47 508 -67 472 -18 -32 -51 -305
-57 -470 -3 -98 -9 -176 -13 -174 -4 2 -10 37 -13 76 -3 40 -10 76 -14 80 -18
18 -35 -12 -42 -77 -5 -55 -8 -22 -14 161 -8 244 -28 492 -52 639 -7 48 -15
90 -17 91 -2 2 -2 -219 0 -490z m159 -527 c-3 -7 -5 -2 -5 12 0 14 2 19 5 13
2 -7 2 -19 0 -25z m-80 -3 c10 -22 9 -25 -10 -25 -12 0 -33 -3 -47 -7 l-25 -6
29 32 c17 17 32 31 35 31 3 0 11 -11 18 -25z m338 -5 c18 -20 17 -20 -14 -20
-22 0 -40 -8 -56 -26 -14 -15 -25 -23 -25 -19 0 9 62 83 71 84 3 1 14 -8 24
-19z m-434 -53 c-8 -8 -11 -7 -11 4 0 20 13 34 18 19 3 -7 -1 -17 -7 -23z
m509 18 c0 -8 -7 -15 -15 -15 -8 0 -15 7 -15 15 0 8 7 15 15 15 8 0 15 -7 15
-15z m-366 -11 c3 -9 6 -28 5 -42 -1 -26 -1 -26 -8 4 -4 17 -11 36 -15 42 -4
7 -3 12 2 12 6 0 13 -7 16 -16z m3 -98 c-5 -11 -15 -14 -37 -10 -32 7 -37 -4
-24 -54 9 -31 53 -41 71 -17 12 18 13 17 13 -7 0 -14 13 -38 30 -56 17 -18 30
-38 30 -46 0 -30 20 -26 34 8 8 19 24 39 35 46 13 7 21 21 21 37 0 21 3 24 12
15 30 -30 78 0 78 48 0 27 -2 29 -29 24 -20 -4 -30 -2 -34 10 -5 13 1 16 32
16 31 0 40 -5 49 -25 15 -32 15 -62 2 -70 -5 -3 -10 -16 -10 -29 0 -13 -5 -37
-11 -54 l-11 -32 -25 20 c-47 37 -75 22 -112 -59 l-19 -44 -11 38 c-12 43 -47
85 -71 85 -10 0 -29 -9 -44 -21 l-26 -20 -10 26 c-5 14 -10 37 -10 51 0 14 -6
35 -14 47 -10 16 -11 31 -5 54 8 29 14 32 52 35 50 4 51 3 44 -16z m20 -226
c5 0 23 -77 22 -95 l0 -20 -8 20 c-5 11 -19 29 -31 40 -12 11 -28 32 -36 47
l-14 27 33 -10 c17 -5 33 -9 34 -9z m212 -2 c-7 -13 -27 -40 -45 -61 -34 -37
-45 -77 -21 -77 7 0 29 11 50 25 20 14 37 21 37 16 0 -12 -56 -55 -84 -65 -13
-4 -17 -13 -14 -31 3 -14 1 -25 -5 -25 -6 0 -8 31 -4 86 7 91 22 129 60 144
34 14 39 12 26 -12z m-272 -91 c4 -8 20 -22 36 -32 22 -14 30 -15 42 -5 13 11
15 6 15 -39 0 -28 -4 -51 -9 -51 -4 0 -6 11 -4 24 4 18 0 26 -17 31 -25 8 -90
63 -90 76 0 14 18 11 27 -4z m405 -69 c-7 -7 -14 -3 -22 12 -9 17 -8 26 7 48
l18 27 3 -39 c2 -21 -1 -43 -6 -48z m187 25 c-1 -41 -25 -128 -29 -103 -6 40
9 140 21 140 5 0 9 -17 8 -37z m-890 -41 c-1 -33 -2 -34 -9 -12 -12 36 -12 62
0 55 6 -3 10 -23 9 -43z m350 -64 c-15 -28 -10 -48 15 -58 29 -11 38 -23 30
-43 -8 -22 -44 -28 -61 -11 -19 18 -47 18 -85 -2 -30 -16 -44 -12 -50 15 -2
10 7 14 32 15 l35 1 -3 66 -4 66 50 -16 c42 -13 48 -19 41 -33z m259 -20 l-3
-63 33 -3 c34 -3 39 -11 21 -29 -8 -8 -20 -7 -45 3 -43 18 -59 18 -78 -2 -23
-22 -56 -9 -56 23 0 16 7 27 19 30 26 7 33 27 20 60 -6 15 -7 25 -4 21 4 -3
21 0 38 7 55 24 59 21 55 -47z m-688 -8 c0 -10 -9 -27 -19 -37 -11 -10 -21
-34 -23 -53 -3 -30 -9 -38 -47 -58 -24 -12 -46 -20 -49 -18 -3 3 22 40 54 82
32 42 63 83 69 90 13 18 15 18 15 -6z m831 -17 c-12 -20 -14 -14 -5 12 4 9 9
14 11 11 3 -2 0 -13 -6 -23z m-957 -85 c-31 -53 -75 -94 -128 -119 -33 -16
-62 -26 -65 -22 -4 3 0 8 7 10 7 3 19 11 26 19 16 15 159 124 164 124 2 0 0
-6 -4 -12z m1176 -21 c0 -18 13 -29 59 -51 33 -15 70 -39 83 -53 23 -25 -4
-13 -178 80 -41 23 -43 32 -6 45 33 11 42 7 42 -21z m-569 -99 c7 -44 24 -88
35 -88 10 0 34 70 34 99 0 16 4 33 10 36 6 4 8 -5 5 -22 -2 -15 -7 -44 -10
-63 -3 -19 -14 -46 -24 -59 l-18 -24 -18 27 c-10 14 -20 48 -23 74 -2 26 -10
53 -16 61 -9 11 -8 13 4 9 9 -3 18 -23 21 -50z m373 0 c6 -41 5 -47 -8 -42
-17 6 -20 33 -10 72 8 29 10 27 18 -30z m-1034 -13 c-13 -14 -26 -23 -28 -20
-3 3 5 16 18 30 13 14 26 23 28 20 3 -3 -5 -16 -18 -30z m374 -197 c-29 -66
-85 -160 -92 -153 -8 8 41 191 63 236 32 62 49 67 53 17 2 -25 -6 -59 -24
-100z m748 113 c6 -5 64 -220 103 -381 17 -69 11 -76 -14 -19 -10 24 -39 87
-64 140 -35 76 -87 244 -87 283 0 6 49 -13 62 -23z m-162 -49 c-14 -44 -22
-27 89 -187 27 -39 85 -174 78 -181 -2 -2 -27 38 -57 89 -152 258 -151 257
-130 313 17 45 34 15 20 -34z m-699 -220 c-11 -42 -91 -182 -91 -158 0 15 93
217 98 212 2 -3 -1 -27 -7 -54z m19 -86 c-11 -26 -20 -54 -20 -61 0 -8 -4 -17
-10 -20 -15 -9 -1 53 23 104 27 59 34 38 7 -23z"/>
<path d="M1441 2814 c0 -11 3 -14 6 -6 3 7 2 16 -1 19 -3 4 -6 -2 -5 -13z"/>
<path d="M1522 2810 c0 -8 6 -51 13 -95 l14 -80 -4 65 c-5 59 -23 147 -23 110z"/>
<path d="M1431 2734 c0 -11 3 -14 6 -6 3 7 2 16 -1 19 -3 4 -6 -2 -5 -13z"/>
<path d="M1417 2642 c-4 -32 -8 -121 -11 -198 -5 -154 -2 -134 15 94 10 151 8
219 -4 104z"/>
</g>
</svg>
