<?xml version="1.0" standalone="no"?>
<!DOCTYPE svg PUBLIC "-//W3C//DTD SVG 20010904//EN"
 "http://www.w3.org/TR/2001/REC-SVG-20010904/DTD/svg10.dtd">
<svg version="1.0" xmlns="http://www.w3.org/2000/svg"
 width="244.000000pt" height="305.000000pt" viewBox="0 0 244.000000 305.000000"
 preserveAspectRatio="xMidYMid meet">
<metadata>
Created by potrace 1.16, written by Peter Selinger 2001-2019
</metadata>
<g transform="translate(0.000000,305.000000) scale(0.100000,-0.100000)"
fill="#000000" stroke="none">
<path d="M966 2902 c-7 -12 -33 -170 -51 -318 -9 -71 -19 -247 -23 -390 l-7
-259 39 -36 c41 -38 36 -63 -9 -39 -37 20 -74 5 -91 -36 -18 -43 -12 -54 31
-54 25 0 40 -8 59 -31 30 -36 32 -55 9 -81 -14 -16 -15 -26 -7 -68 l11 -50
-32 0 c-36 0 -54 -28 -56 -83 0 -27 -2 -29 -9 -12 -6 13 -9 -7 -9 -62 -1 -46
-5 -83 -10 -83 -28 0 -29 117 -1 153 39 49 17 87 -49 87 -61 0 -75 -45 -45
-147 22 -75 15 -160 -14 -184 -15 -12 -22 -28 -22 -53 l0 -36 -118 -56 c-137
-66 -162 -76 -162 -66 0 4 16 18 34 32 19 14 89 68 156 120 l122 95 -7 40 c-4
22 -13 74 -21 115 l-12 75 0 -90 c0 -88 0 -90 -22 -87 -30 3 -35 -2 -169 -158
-64 -74 -128 -148 -143 -165 -15 -16 -26 -31 -24 -32 4 -4 159 55 239 91 32
14 60 26 62 26 8 0 6 -28 -2 -32 -10 -4 -44 -68 -36 -68 5 0 33 15 185 100 32
17 62 29 68 25 13 -8 33 -83 25 -95 -3 -6 -12 -10 -19 -10 -8 0 -19 -6 -25
-14 -9 -11 -129 -476 -146 -566 -4 -23 -3 -23 8 -7 6 10 28 40 47 66 19 27 55
76 79 110 24 34 46 59 48 57 2 -2 -3 -48 -12 -101 -16 -90 -15 -132 2 -89 7
18 86 168 172 327 40 72 42 81 36 129 l-7 51 42 -6 c42 -5 73 -26 92 -60 7
-14 3 -26 -18 -54 l-27 -36 16 -96 c14 -78 48 -295 83 -514 3 -21 8 -37 10
-35 2 2 12 60 23 128 11 69 34 214 51 323 l32 197 -26 35 c-30 39 -26 58 20
94 26 21 88 29 98 13 3 -4 1 -26 -4 -47 -10 -44 -9 -46 125 -300 38 -71 77
-146 87 -165 16 -32 17 -33 17 -10 1 14 -6 56 -14 95 -8 38 -15 83 -15 99 0
29 0 29 32 -15 17 -24 35 -48 40 -54 5 -5 27 -36 49 -68 23 -32 43 -57 45 -54
2 2 -2 26 -10 53 -7 27 -37 148 -66 269 -52 215 -58 232 -104 260 -14 8 -14
16 -5 48 11 40 31 56 52 40 6 -6 48 -29 92 -53 44 -23 99 -54 123 -67 48 -29
51 -23 17 32 -34 55 -33 70 3 51 15 -8 68 -30 117 -51 50 -20 97 -39 105 -43
12 -5 -30 61 -50 78 -3 3 -40 46 -82 95 -152 178 -153 179 -176 173 -21 -6
-22 -3 -24 85 l-1 92 -7 -65 c-4 -36 -8 -84 -9 -107 -1 -42 -1 -42 32 -37 29
5 37 0 88 -58 102 -116 170 -198 163 -198 -4 0 -51 33 -106 73 -55 39 -109 79
-121 87 -44 29 -76 69 -88 110 -10 34 -10 53 4 113 10 40 17 81 17 93 0 47
-63 70 -107 39 -20 -14 -23 -14 -31 1 -7 13 -18 16 -45 11 -39 -6 -39 -8 -22
75 1 9 -3 25 -11 35 -22 29 -16 62 16 94 22 22 38 30 57 27 26 -3 28 0 26 30
-2 50 -20 65 -70 58 -56 -7 -66 10 -25 44 l32 26 -2 140 -2 139 -3 -125 c-4
-119 -5 -126 -30 -152 -15 -16 -31 -28 -35 -28 -5 0 -8 221 -8 491 1 270 -1
493 -3 496 -3 2 -8 -15 -12 -39 -17 -112 -18 -115 -26 -88 -4 15 -8 -12 -9
-70 -1 -52 -6 -117 -10 -145 -6 -34 -8 17 -7 152 1 112 -1 191 -5 177 -19 -72
-52 -502 -58 -762 0 -7 -4 -11 -9 -7 -5 3 -12 -5 -14 -17 -4 -23 -4 -23 -13 2
-7 21 -10 15 -19 -40 l-11 -65 -7 150 c-6 150 -41 426 -56 454 -18 32 -58
-235 -68 -459 -3 -80 -7 -140 -9 -135 -1 6 -5 32 -9 58 -6 44 -8 47 -20 30
-14 -17 -14 -17 -15 3 0 12 -7 21 -15 21 -12 0 -15 -15 -15 -68 0 -64 -14
-119 -30 -119 -9 0 -24 880 -16 907 4 11 2 31 -3 44 -7 19 -10 9 -16 -53 -7
-78 -21 -103 -27 -50 -2 15 -4 -45 -4 -133 -1 -88 -6 -290 -11 -450 l-10 -290
1 508 c0 279 0 507 -1 507 -1 0 -4 -4 -7 -8z m303 -777 c6 -126 11 -286 11
-355 0 -113 -2 -127 -20 -143 -20 -17 -20 -16 -19 421 2 463 10 485 28 77z
m-169 -256 c0 -12 -27 -11 -35 1 -11 17 5 32 21 19 8 -6 14 -15 14 -20z m313
16 c8 -18 -11 -31 -25 -17 -11 11 -3 32 12 32 4 0 10 -7 13 -15z m-393 -8 c0
-19 -10 -27 -26 -20 -11 4 -12 9 -3 19 15 18 29 18 29 1z m460 -6 c0 -14 -18
-23 -30 -16 -6 4 -8 11 -5 16 8 12 35 12 35 0z m-90 -121 c0 -4 -7 -13 -15
-20 -10 -9 -15 -9 -15 -1 0 6 -7 11 -15 11 -15 0 -20 12 -10 22 8 7 55 -3 55
-12z m-250 4 c0 -16 -35 -32 -47 -22 -21 17 -15 28 17 28 17 0 30 -3 30 -6z
m261 -83 c-6 -11 -11 -32 -11 -48 0 -46 -11 -54 -54 -42 -48 13 -70 -4 -89
-70 l-14 -46 -13 47 c-17 66 -40 84 -87 70 -20 -6 -38 -10 -40 -8 -6 6 -23
110 -18 114 3 3 5 -2 5 -11 0 -18 35 -31 66 -25 12 2 20 -4 22 -17 2 -11 11
-24 19 -28 8 -5 23 -28 32 -50 l18 -42 12 38 c7 20 22 43 32 51 11 8 22 22 23
32 2 13 12 18 42 18 37 1 40 3 49 41 7 29 11 34 13 18 2 -12 -2 -31 -7 -42z
m-381 18 c0 -5 -4 -9 -10 -9 -5 0 -10 7 -10 16 0 8 5 12 10 9 6 -3 10 -10 10
-16z m-12 -162 c31 -88 28 -107 -7 -39 -24 47 -42 112 -35 124 8 13 8 13 42
-85z m39 61 c-3 -7 -5 -2 -5 12 0 14 2 19 5 13 2 -7 2 -19 0 -25z m432 -79
c-23 -52 -41 -53 -20 -1 5 15 16 47 23 72 12 44 12 44 16 13 2 -18 -7 -54 -19
-84z m-56 66 c-3 -9 -8 -14 -10 -11 -3 3 -2 9 2 15 9 16 15 13 8 -4z m-270
-62 c8 -10 18 -31 22 -48 l7 -30 -31 33 c-30 31 -41 62 -23 62 5 0 16 -8 25
-17z m197 2 c0 -18 -59 -85 -60 -68 0 20 21 67 33 75 18 12 27 9 27 -7z m199
-46 c13 -37 14 -69 4 -69 -14 1 -43 69 -37 85 9 24 21 18 33 -16z m-595 5 c3
-8 -1 -26 -10 -40 -13 -19 -15 -41 -11 -107 l6 -82 -16 78 c-12 65 -13 86 -3
123 13 46 24 55 34 28z m695 -51 l-2 -48 -6 40 c-7 38 -5 55 5 55 2 0 3 -21 3
-47z m30 -41 c-1 -15 -5 -38 -9 -52 -6 -19 -8 -11 -9 33 -1 36 3 56 9 52 6 -3
10 -18 9 -33z m-491 -16 c4 -21 -7 -20 -38 4 l-25 19 30 -3 c18 -2 31 -10 33
-20z m133 3 c-29 -24 -41 -24 -41 -1 0 12 9 17 32 18 l32 1 -23 -18z m64 -118
c0 -55 0 -56 28 -53 20 2 27 -2 27 -14 0 -14 -7 -16 -43 -11 -28 4 -53 1 -70
-8 -23 -12 -29 -12 -42 1 -17 18 -17 17 -9 38 3 9 14 16 24 16 23 0 32 23 21
52 -7 20 -4 24 23 34 17 5 33 8 36 6 3 -2 5 -29 5 -61z m-257 53 c27 -5 30 -9
22 -25 -16 -30 -11 -47 17 -61 33 -16 38 -31 18 -52 -15 -14 -19 -14 -37 -2
-14 10 -35 13 -69 9 -42 -5 -49 -3 -49 11 0 12 7 16 28 14 27 -3 27 -3 24 55
-1 31 2 57 7 57 5 0 22 -3 39 -6z m514 -29 c-2 -14 -8 -25 -13 -25 -10 0 -12
43 -3 53 13 12 21 -3 16 -28z m-115 -51 c-16 -31 -30 -54 -33 -51 -3 3 4 22
15 43 12 21 21 50 21 63 0 20 3 22 12 13 9 -9 6 -24 -15 -68z m-667 16 c0 -5
-4 -10 -10 -10 -5 0 -10 5 -10 10 0 6 5 10 10 10 6 0 10 -4 10 -10z m130 -84
c0 -12 -5 -7 -19 24 -11 24 -11 24 3 6 9 -11 16 -24 16 -30z m760 -23 c0 -25
-1 -26 -20 -8 -21 19 -18 35 6 35 9 0 14 -10 14 -27z m-961 -6 c8 -11 7 -17
-7 -29 -24 -20 -90 -61 -132 -83 -32 -16 -31 -13 25 46 81 87 91 93 114 66z
m132 -19 c16 -29 29 -97 22 -115 -11 -28 -21 -11 -27 48 -4 33 -10 67 -13 75
-8 22 5 16 18 -8z m654 -126 c2 -7 20 -19 39 -27 27 -12 37 -23 45 -52 45
-170 100 -398 96 -401 -3 -3 -12 12 -21 34 -8 21 -37 86 -64 144 -65 143 -96
219 -104 257 -4 17 -14 37 -22 44 -17 14 -18 67 -2 106 11 27 12 26 20 -32 4
-33 10 -66 13 -73z m255 78 c22 -22 40 -45 40 -51 0 -14 -48 21 -83 60 -41 47
-6 40 43 -9z m-537 13 c-7 -2 -13 -12 -13 -20 0 -9 -3 -14 -6 -10 -10 10 4 37
18 36 10 0 10 -2 1 -6z m-38 -137 l-16 -38 -20 36 c-10 20 -19 44 -18 53 1 10
6 3 12 -15 12 -40 28 -37 42 9 7 25 11 29 13 14 1 -11 -4 -38 -13 -59z m-230
-40 c6 -41 1 -55 -77 -210 -45 -92 -84 -161 -86 -154 -4 21 67 220 94 260 15
24 24 52 24 77 0 81 34 101 45 27z m475 24 c0 -11 -4 -20 -10 -20 -5 0 -10 9
-10 20 0 11 5 20 10 20 6 0 10 -9 10 -20z m-609 -92 c-13 -96 -25 -122 -110
-247 -75 -111 -86 -119 -47 -37 13 28 54 122 91 209 38 86 70 156 72 153 2 -2
0 -37 -6 -78z m393 -10 c17 -27 17 -35 -8 -240 -15 -117 -28 -220 -30 -228 -2
-8 -4 111 -5 265 -1 236 1 276 12 255 7 -14 21 -37 31 -52z m33 -60 c-3 -8 -6
-5 -6 6 -1 11 2 17 5 13 3 -3 4 -12 1 -19z m260 -51 c24 -35 38 -86 47 -162 6
-58 5 -56 -45 88 -21 59 -35 107 -31 107 4 0 17 -15 29 -33z"/>
<path d="M1522 2740 c0 -19 2 -27 5 -17 2 9 2 25 0 35 -3 9 -5 1 -5 -18z"/>
<path d="M1062 2675 c0 -16 2 -22 5 -12 2 9 2 23 0 30 -3 6 -5 -1 -5 -18z"/>
<path d="M1537 2625 c3 -38 9 -97 14 -130 6 -47 7 -40 3 35 -3 52 -9 111 -14
130 -6 25 -7 14 -3 -35z"/>
<path d="M1073 2575 c0 -27 2 -38 4 -22 2 15 2 37 0 50 -2 12 -4 0 -4 -28z"/>
<path d="M1084 2415 c0 -49 1 -71 3 -48 2 23 2 64 0 90 -2 26 -3 8 -3 -42z"/>
<path d="M1564 2335 c0 -55 1 -76 3 -47 2 29 2 74 0 100 -2 26 -3 2 -3 -53z"/>
<path d="M1092 2175 c0 -16 2 -22 5 -12 2 9 2 23 0 30 -3 6 -5 -1 -5 -18z"/>
</g>
</svg>
