<?xml version="1.0" standalone="no"?>
<!DOCTYPE svg PUBLIC "-//W3C//DTD SVG 20010904//EN"
 "http://www.w3.org/TR/2001/REC-SVG-20010904/DTD/svg10.dtd">
<svg version="1.0" xmlns="http://www.w3.org/2000/svg"
 width="244.000000pt" height="305.000000pt" viewBox="0 0 244.000000 305.000000"
 preserveAspectRatio="xMidYMid meet">
<metadata>
Created by potrace 1.16, written by Peter Selinger 2001-2019
</metadata>
<g transform="translate(0.000000,305.000000) scale(0.100000,-0.100000)"
fill="#000000" stroke="none">
<path d="M920 2905 c-2 -5 -4 -14 -5 -20 -1 -5 -6 -28 -12 -50 -37 -144 -62
-376 -72 -655 -5 -129 -7 -239 -4 -245 2 -5 20 -21 40 -35 20 -14 42 -29 49
-34 8 -7 23 0 48 22 49 43 53 42 95 -11 13 -17 12 -18 -12 -11 -44 10 -85 -13
-106 -60 l-18 -41 -21 41 c-23 46 -64 69 -105 59 -35 -9 -49 -28 -50 -67 -2
-32 -1 -32 39 -29 36 2 45 -2 72 -34 35 -39 40 -62 17 -71 -20 -8 -20 -80 -1
-131 18 -48 28 -235 12 -230 -6 2 -15 26 -19 53 -14 79 -23 94 -55 94 -68 0
-81 -75 -31 -177 40 -82 33 -100 -15 -35 -63 86 -71 149 -30 220 l27 45 -23
19 c-24 20 -80 24 -111 8 -24 -13 -26 -69 -4 -130 19 -54 19 -113 0 -149 -13
-27 -75 -70 -282 -200 -46 -28 -86 -51 -90 -51 -4 0 53 61 127 136 l135 135
43 -6 43 -6 -7 98 c-9 133 -26 157 -21 31 l3 -97 -32 2 c-28 2 -49 -15 -209
-171 -97 -96 -175 -175 -173 -178 2 -2 87 26 189 62 101 36 203 73 227 81 33
12 42 20 42 38 0 35 14 38 62 17 74 -32 78 -45 40 -115 -18 -33 -31 -62 -28
-64 3 -3 26 9 52 26 25 18 49 30 51 27 12 -12 -8 -34 -35 -39 -35 -7 -37 -13
-127 -332 -31 -110 -60 -213 -65 -228 -5 -16 -6 -27 -1 -25 10 4 144 163 305
362 27 34 54 64 60 68 7 5 7 21 -2 53 -16 62 -16 65 14 65 19 0 24 -4 20 -17
-3 -10 -10 -52 -15 -93 -6 -41 -22 -151 -35 -245 -14 -93 -23 -171 -22 -173 2
-1 11 14 19 35 9 21 31 74 50 118 119 276 119 278 114 327 -4 27 -4 48 -1 48
11 0 83 -53 88 -65 3 -8 -8 -30 -25 -51 -16 -20 -29 -38 -29 -40 0 -2 11 -61
24 -131 14 -71 39 -204 56 -298 45 -239 44 -237 64 -125 9 52 28 151 41 220
14 69 32 163 40 210 9 47 18 95 20 107 4 15 -5 34 -27 58 -25 29 -29 40 -21
53 14 24 74 63 85 56 5 -3 6 -25 2 -50 -6 -43 7 -85 76 -239 10 -22 41 -92 69
-155 28 -63 51 -113 51 -110 0 3 -16 109 -35 235 -19 126 -32 231 -30 234 3 2
5 -3 5 -11 0 -9 4 -18 8 -20 4 -1 84 -94 177 -206 92 -111 170 -200 172 -198
8 8 -141 532 -158 552 -5 6 -21 15 -34 18 -14 4 -25 13 -25 21 0 21 2 20 66
-25 32 -22 59 -38 61 -36 3 2 -14 39 -36 82 -22 43 -37 82 -34 87 9 15 92 49
103 42 6 -3 10 -16 10 -29 0 -20 17 -28 158 -76 86 -29 176 -62 200 -72 103
-43 92 -24 -83 152 -160 161 -172 171 -201 165 l-31 -5 4 97 c3 71 1 94 -6 83
-6 -8 -11 -36 -11 -61 0 -25 -7 -69 -15 -97 -9 -29 -14 -56 -11 -61 3 -4 84
-61 180 -126 97 -65 174 -121 171 -123 -4 -4 -193 66 -289 107 -38 17 -47 25
-41 39 15 36 17 52 6 52 -6 0 -20 9 -31 20 -25 25 -27 115 -4 182 32 96 0 149
-80 134 -48 -9 -55 -29 -28 -80 38 -71 27 -148 -33 -221 -36 -44 -42 -22 -12
43 47 102 35 172 -28 172 -26 0 -45 -25 -46 -62 0 -13 -7 -41 -14 -63 -13 -39
-13 -37 -10 45 l4 85 -13 -80 c-9 -57 -15 -75 -21 -62 -11 27 10 164 34 217
25 54 28 118 6 126 -24 10 -17 41 17 80 29 32 36 36 70 31 36 -5 38 -4 38 22
0 36 -18 59 -56 70 -44 13 -88 -15 -105 -66 l-12 -38 -18 41 c-26 63 -79 92
-111 61 -15 -15 -39 -16 -36 -2 2 6 6 9 10 8 4 -2 16 11 28 27 24 33 36 32 91
-11 l37 -28 18 20 c11 12 32 28 48 36 l29 15 -6 207 c-4 113 -11 256 -17 317
-10 118 -56 401 -70 437 -8 21 -8 21 -16 3 -4 -10 -3 -26 3 -35 13 -21 15
-939 2 -947 -5 -3 -25 7 -44 22 l-35 26 0 102 c0 152 18 418 35 531 17 114 19
155 5 115 -13 -36 -40 -274 -41 -355 0 -49 -3 -64 -9 -50 -5 12 -9 -50 -9
-161 -1 -134 -4 -185 -14 -199 -13 -16 -15 -13 -21 31 -3 27 -6 249 -6 493 1
244 -1 445 -3 447 -12 13 -46 -501 -48 -741 -1 -142 -14 -322 -18 -254 -11
194 -47 491 -73 604 l-21 90 -12 -36 c-23 -65 -54 -272 -71 -474 -9 -110 -18
-202 -20 -204 -2 -2 -4 25 -5 60 -1 66 -32 177 -42 149 -3 -8 -8 -22 -10 -30
-3 -8 -6 165 -7 385 -1 220 -3 396 -5 390 -9 -23 -35 -443 -35 -565 0 -73 -3
-131 -6 -127 -3 3 -10 79 -15 169 -5 90 -16 217 -25 283 -14 115 -59 321 -64
300z m1 -987 c-3 -16 -8 -14 -43 10 l-40 27 6 215 c5 211 19 357 54 575 l17
110 5 -460 c3 -253 3 -468 1 -477z m279 218 c-5 -142 -12 -261 -15 -264 -5 -5
-7 99 -6 243 1 73 21 288 27 282 2 -1 -1 -119 -6 -261z m-100 -285 c0 -6 -4
-13 -10 -16 -5 -3 -10 1 -10 9 0 9 5 16 10 16 6 0 10 -4 10 -9z m77 -88 c-2
-16 -4 -5 -4 22 0 28 2 40 4 28 2 -13 2 -35 0 -50z m-142 -13 c4 -6 8 -60 9
-119 2 -106 1 -108 -16 -86 -22 29 -38 70 -38 100 0 12 -7 25 -15 29 -21 8
-19 42 5 66 22 22 45 26 55 10z m335 -22 c0 -5 -4 -8 -10 -8 -5 0 -10 10 -10
23 0 18 2 19 10 7 5 -8 10 -18 10 -22z m126 -4 c18 -34 18 -36 2 -48 -10 -7
-18 -22 -18 -32 0 -26 -31 -104 -41 -104 -13 0 -17 175 -4 208 9 24 42 12 61
-24z m-384 4 c-7 -7 -12 -8 -12 -2 0 14 12 26 19 19 2 -3 -1 -11 -7 -17z m65
-119 c11 -4 28 -23 37 -43 9 -20 19 -36 21 -36 2 0 12 16 21 36 9 20 27 39 39
44 14 5 25 20 29 40 5 28 8 31 21 20 8 -7 15 -28 15 -46 0 -28 -5 -35 -25 -40
-14 -3 -31 -4 -39 -1 -20 8 -32 -10 -47 -68 l-12 -49 -18 55 c-10 30 -19 55
-19 56 0 1 -19 3 -42 5 -40 3 -43 5 -46 35 -2 18 2 42 9 55 13 22 13 22 24
-16 7 -24 19 -42 32 -47z m9 23 c-12 -11 -17 7 -9 34 l8 29 3 -28 c2 -16 1
-31 -2 -35z m-232 -69 c5 -17 3 -23 -7 -23 -18 0 -27 22 -27 63 l1 32 13 -25
c7 -14 17 -35 20 -47z m123 20 c-3 -10 -5 -4 -5 12 0 17 2 24 5 18 2 -7 2 -21
0 -30z m320 0 c-3 -10 -5 -4 -5 12 0 17 2 24 5 18 2 -7 2 -21 0 -30z m153 14
c0 -27 -25 -65 -36 -54 -7 7 20 77 31 77 3 0 5 -10 5 -23z m-440 -97 c22 -44
24 -50 12 -50 -9 0 -27 33 -37 68 -10 35 3 26 25 -18z m280 24 c0 -3 -7 -21
-16 -40 -18 -37 -39 -48 -24 -11 6 12 13 30 16 40 6 16 24 25 24 11z m100 -33
c0 -22 -13 -41 -29 -41 -9 0 -23 -15 -31 -33 -15 -32 -50 -50 -50 -26 0 14 89
109 102 109 4 0 8 -4 8 -9z m-470 -21 c0 -13 -19 -22 -30 -15 -14 9 0 34 16
28 8 -3 14 -9 14 -13z m-96 -138 c-9 -21 -23 43 -22 103 0 37 1 35 15 -23 8
-34 12 -70 7 -80z m165 53 c-4 -16 -5 -16 -25 1 -12 11 -25 32 -28 47 l-7 29
32 -30 c18 -16 30 -36 28 -47z m91 -11 c0 -8 -4 -12 -10 -9 -5 3 -10 13 -10
21 0 8 5 12 10 9 6 -3 10 -13 10 -21z m121 -7 c-8 -8 -11 -7 -11 4 0 9 3 19 7
23 4 4 9 2 11 -4 3 -7 -1 -17 -7 -23z m-219 -163 c26 -27 39 -8 32 47 -4 27
-3 49 2 49 5 0 19 3 32 6 12 4 22 2 22 -4 0 -5 -9 -12 -21 -15 -30 -8 -23 -61
9 -65 26 -4 37 -24 28 -47 -4 -12 -10 -13 -24 -6 -14 7 -25 6 -40 -5 -12 -8
-22 -11 -22 -6 0 5 -8 12 -18 14 -24 7 -44 76 -35 119 7 33 8 32 13 -18 3 -29
13 -60 22 -69z m348 77 c0 -54 -19 -101 -44 -110 -22 -9 -93 -7 -102 2 -12 12
8 46 29 49 31 4 37 57 8 65 -12 3 -21 10 -21 15 0 6 7 7 16 4 9 -3 22 -6 31
-6 12 0 14 -9 11 -44 -6 -61 5 -78 33 -49 16 16 21 32 21 67 -1 25 3 46 8 46
6 0 10 -17 10 -39z m168 -47 c-12 -25 -23 -30 -33 -14 -8 14 16 49 31 43 10
-4 10 -10 2 -29z m-569 -59 c0 -5 -4 -3 -9 5 -5 8 -9 22 -9 30 0 16 17 -16 18
-35z m428 3 c-3 -8 -6 -5 -6 6 -1 11 2 17 5 13 3 -3 4 -12 1 -19z m189 -13
c-7 -29 -26 -34 -26 -7 0 18 20 45 28 37 2 -2 2 -16 -2 -30z m-776 -63 c0 -26
-25 -5 -28 24 -2 28 -2 28 13 10 8 -11 15 -26 15 -34z m864 -56 c14 -25 26
-48 26 -52 0 -13 -69 70 -70 84 0 25 19 11 44 -32z m-844 -9 c0 -36 -16 -74
-91 -213 -50 -93 -111 -209 -136 -258 -24 -48 -46 -86 -48 -84 -5 5 112 414
125 438 5 9 27 22 48 28 40 12 62 45 62 91 0 18 18 41 32 41 4 0 8 -20 8 -43z
m711 31 c1 -7 0 -29 -1 -49 -1 -27 26 -90 115 -268 64 -128 114 -235 112 -238
-3 -2 -47 51 -98 118 -52 67 -111 141 -131 165 l-37 44 5 88 c7 114 13 152 24
152 6 0 10 -6 11 -12z m-811 -16 c0 -12 -39 -46 -45 -41 -6 7 24 49 36 49 5 0
9 -4 9 -8z m460 -122 c-10 -18 -14 -20 -21 -9 -13 21 -11 29 6 23 8 -4 15 -1
15 7 0 7 3 10 6 7 3 -4 0 -16 -6 -28z m-190 -40 c0 -27 -9 -73 -21 -102 -37
-97 -112 -268 -115 -265 -2 1 4 25 12 52 21 68 63 227 81 303 19 79 43 86 43
12z m467 -160 c18 -113 32 -212 32 -220 0 -14 -44 127 -75 240 -8 30 -24 84
-34 119 -11 35 -20 65 -20 68 0 2 15 3 32 1 l33 -3 32 -205z m13 193 c0 -10
-3 -29 -7 -41 -4 -18 -8 -20 -14 -10 -15 22 -11 68 6 68 8 0 15 -8 15 -17z
m-354 -99 c-17 -24 -17 -35 -2 -179 26 -246 21 -248 -23 -10 -12 66 -24 127
-26 135 -3 9 9 33 26 53 35 42 52 43 25 1z"/>
<path d="M1072 2880 c0 -14 2 -19 5 -12 2 6 2 18 0 25 -3 6 -5 1 -5 -13z"/>
<path d="M1515 2790 c-4 -23 -5 -44 -2 -46 3 -3 8 13 12 36 4 23 5 44 2 46 -3
3 -8 -13 -12 -36z"/>
<path d="M1082 2800 c0 -14 2 -19 5 -12 2 6 2 18 0 25 -3 6 -5 1 -5 -13z"/>
<path d="M1412 2760 c0 -14 2 -19 5 -12 2 6 2 18 0 25 -3 6 -5 1 -5 -13z"/>
<path d="M1093 2695 c0 -22 2 -30 4 -17 2 12 2 30 0 40 -3 9 -5 -1 -4 -23z"/>
<path d="M1423 2630 c0 -25 2 -35 4 -22 2 12 2 32 0 45 -2 12 -4 2 -4 -23z"/>
<path d="M1103 2555 c0 -33 2 -45 4 -27 2 18 2 45 0 60 -2 15 -4 0 -4 -33z"/>
<path d="M1433 2480 c0 -36 2 -50 4 -32 2 17 2 47 0 65 -2 17 -4 3 -4 -33z"/>
<path d="M1114 2285 c0 -77 2 -107 3 -67 2 40 2 103 0 140 -2 37 -3 4 -3 -73z"/>
</g>
</svg>
