<?xml version="1.0" standalone="no"?>
<!DOCTYPE svg PUBLIC "-//W3C//DTD SVG 20010904//EN"
 "http://www.w3.org/TR/2001/REC-SVG-20010904/DTD/svg10.dtd">
<svg version="1.0" xmlns="http://www.w3.org/2000/svg"
 width="244.000000pt" height="305.000000pt" viewBox="0 0 244.000000 305.000000"
 preserveAspectRatio="xMidYMid meet">
<metadata>
Created by potrace 1.16, written by Peter Selinger 2001-2019
</metadata>
<g transform="translate(0.000000,305.000000) scale(0.100000,-0.100000)"
fill="#000000" stroke="none">
<path d="M927 2884 c-3 -16 -1 -30 4 -32 11 -4 13 -939 2 -945 -5 -3 -24 9
-44 26 l-35 32 7 227 c7 211 25 404 50 556 6 35 9 65 6 68 -5 6 -21 -78 -43
-226 -7 -52 -19 -223 -26 -379 -9 -230 -9 -286 1 -289 7 -2 28 -17 46 -33 39
-34 46 -35 70 -9 20 22 56 23 62 3 2 -6 -9 -14 -26 -18 -36 -8 -46 -19 -59
-65 l-9 -35 -15 36 c-18 41 -52 69 -84 69 -32 0 -64 -31 -67 -65 -2 -28 1 -30
42 -36 31 -4 51 -14 68 -33 26 -31 30 -71 8 -80 -12 -4 -15 -21 -14 -73 1 -38
-2 -84 -6 -103 -7 -30 -9 -32 -16 -15 -6 17 -8 17 -8 3 -1 -11 -9 -18 -19 -18
-11 0 -27 -9 -37 -20 -18 -20 -18 -66 1 -142 5 -21 3 -28 -8 -28 -16 0 -48 85
-48 127 0 13 12 45 27 70 l27 46 -24 19 c-16 13 -36 18 -64 16 -34 -2 -43 -8
-55 -32 -12 -25 -11 -37 8 -101 41 -143 34 -155 -182 -296 -93 -61 -171 -109
-173 -106 -3 2 52 64 122 136 125 130 127 131 168 129 l41 -3 -3 55 c-4 87
-13 162 -19 156 -7 -7 -4 -144 3 -169 5 -16 1 -17 -28 -12 -34 6 -37 4 -206
-171 -94 -98 -170 -180 -168 -181 3 -3 105 32 211 73 39 15 103 39 144 53 68
24 76 29 83 59 9 34 24 40 51 19 15 -11 12 -20 -34 -95 -28 -46 -49 -86 -46
-88 3 -3 20 4 38 15 19 11 60 34 92 51 l57 31 11 -27 c12 -34 5 -54 -18 -54
-10 0 -24 -4 -31 -8 -11 -8 -66 -185 -129 -422 -37 -137 -42 -160 -34 -160 3
1 27 29 53 63 114 151 238 298 238 280 0 -18 -33 -221 -46 -280 -3 -18 -4 -33
0 -33 3 0 53 96 112 213 102 206 105 213 98 261 l-6 49 33 -7 c34 -7 64 -28
80 -59 8 -14 4 -25 -15 -48 -14 -17 -26 -40 -26 -53 0 -12 18 -120 41 -241 22
-121 47 -258 54 -304 13 -74 25 -115 25 -84 0 11 46 270 75 423 7 41 19 110
26 152 l13 78 -27 28 c-15 15 -27 33 -27 39 0 19 50 61 82 67 40 8 48 -5 37
-55 -9 -37 -3 -51 103 -264 62 -123 114 -223 115 -221 3 3 -33 224 -53 326 -7
34 -6 33 47 -31 30 -36 92 -113 139 -172 46 -59 87 -107 91 -107 7 0 -31 143
-143 537 -6 22 -15 33 -27 33 -27 0 -44 26 -37 55 8 30 25 32 59 5 14 -11 28
-20 30 -20 3 0 36 -19 72 -41 36 -23 68 -40 70 -38 2 3 -23 49 -56 103 -57 95
-64 116 -33 116 13 0 19 -13 15 -34 -3 -16 20 -35 51 -41 16 -4 96 -32 177
-62 218 -82 232 -84 174 -31 -16 13 -90 89 -166 167 -117 120 -142 141 -164
139 l-27 -3 2 95 c1 64 -1 88 -8 75 -5 -11 -9 -40 -9 -65 -1 -25 -8 -66 -15
-92 -19 -62 -40 -41 219 -221 119 -83 110 -76 103 -82 -6 -6 -298 112 -313
126 -5 6 -5 13 3 21 18 18 14 46 -7 53 -21 6 -41 53 -41 94 0 14 9 61 20 104
28 112 8 148 -76 132 -46 -8 -52 -29 -26 -79 12 -23 22 -57 21 -76 0 -45 -20
-102 -37 -108 -10 -3 -12 9 -6 56 8 72 0 112 -22 112 -9 0 -18 9 -21 21 -4 14
-8 17 -13 9 -4 -7 -10 3 -14 25 -4 20 -13 38 -21 41 -10 4 -12 18 -8 55 4 38
2 54 -11 68 -34 38 28 115 88 109 29 -3 31 -1 29 32 -2 40 -24 60 -68 60 -31
0 -60 -22 -83 -65 -10 -18 -11 -16 -11 15 -1 39 19 68 63 96 l29 18 -6 236
c-4 136 -14 302 -26 395 -21 164 -48 322 -59 340 -7 11 -20 -28 -20 -60 0 -16
2 -15 8 5 4 14 8 -192 9 -457 1 -266 -3 -483 -7 -483 -5 0 -16 8 -24 18 -13
14 -16 66 -21 312 -4 256 -2 311 14 415 24 155 23 202 -2 65 -28 -154 -37
-267 -45 -540 -12 -430 -24 -298 -21 233 1 280 -1 493 -5 475 -16 -77 -39
-336 -44 -503 -5 -205 -22 -374 -35 -353 -5 7 -9 27 -9 45 0 23 -4 31 -13 27
-11 -4 -15 22 -20 123 -5 115 -35 308 -56 366 -8 21 -8 21 -14 2 -28 -101 -57
-299 -57 -392 0 -50 -4 -76 -15 -87 -8 -8 -15 -32 -16 -53 0 -21 -4 -47 -8
-58 -8 -20 -20 60 -22 154 l-2 46 -8 -45 c-5 -25 -14 -83 -20 -130 -6 -47 -15
-94 -20 -105 -4 -12 -8 187 -8 468 1 269 -1 490 -4 493 -2 2 -9 -49 -16 -113
-14 -141 -23 -202 -27 -188 -2 6 -15 77 -29 158 -27 162 -39 198 -48 151z
m543 -729 c0 -130 -4 -205 -10 -205 -6 0 -10 44 -10 113 0 116 10 297 16 297
2 0 4 -92 4 -205z m-273 88 c-2 -16 -4 -3 -4 27 0 30 2 43 4 28 2 -16 2 -40 0
-55z m-8 -210 c-1 -111 -4 -158 -8 -124 -7 53 -2 301 5 301 2 0 3 -80 3 -177z
m305 -149 c21 -20 21 -20 -19 -20 -19 0 -35 5 -35 11 0 28 30 33 54 9z m-409
-14 c3 -5 1 -10 -4 -10 -6 0 -11 5 -11 10 0 6 2 10 4 10 3 0 8 -4 11 -10z
m325 0 c0 -5 -4 -10 -10 -10 -5 0 -10 5 -10 10 0 6 5 10 10 10 6 0 10 -4 10
-10z m-290 -131 c-11 -20 -22 -24 -33 -12 -9 9 23 44 34 37 5 -3 4 -14 -1 -25z
m251 21 c21 -12 26 -40 6 -40 -7 0 -18 5 -25 12 -12 12 -17 38 -6 38 3 0 14
-5 25 -10z m-346 -62 c4 -17 3 -33 -3 -37 -5 -3 -12 -17 -15 -31 -4 -22 -4
-21 -6 6 0 18 -8 34 -16 38 -18 6 -19 29 -4 57 14 26 35 10 44 -33z m466 18
c10 -20 8 -29 -8 -50 l-20 -25 -12 22 c-9 16 -9 30 -2 50 13 33 28 34 42 3z
m-310 -79 c-13 -13 -15 21 -3 50 6 15 8 13 10 -11 2 -16 -1 -33 -7 -39z m-26
-7 c3 -10 14 -20 24 -23 9 -2 25 -21 35 -41 9 -20 19 -36 21 -36 3 0 11 16 20
36 8 20 24 38 35 41 11 3 20 14 20 23 0 21 29 34 54 24 12 -5 16 -16 14 -38
-3 -29 -5 -31 -45 -31 -53 -1 -70 -17 -87 -81 l-13 -49 -12 52 c-15 63 -24 71
-81 75 -42 3 -45 5 -48 33 -7 54 46 67 63 15z m-191 -60 c13 -27 37 -67 54
-87 66 -85 67 -128 0 -53 -43 50 -88 135 -88 168 0 33 8 27 34 -28z m466 28
c0 -27 -48 -133 -56 -125 -3 3 1 19 10 35 8 16 18 48 22 71 7 43 24 57 24 19z
m101 -21 c-16 -68 -90 -177 -121 -177 -13 0 10 46 43 86 13 16 35 52 48 81 25
56 41 62 30 10z m-454 -34 c12 -37 20 -69 18 -71 -7 -7 -38 63 -45 101 -11 59
3 43 27 -30z m82 -49 c6 -15 9 -29 6 -32 -7 -7 -34 29 -35 46 0 21 16 13 29
-14z m181 21 c0 -12 -24 -55 -32 -55 -11 0 -10 4 4 35 9 21 28 35 28 20z m210
-136 c0 -33 -4 -59 -10 -59 -6 0 -10 29 -10 66 0 41 4 63 10 59 6 -3 10 -33
10 -66z m-604 8 c-3 -23 -5 -46 -5 -50 -1 -5 -5 -5 -11 -2 -11 7 -13 48 -4 82
10 38 25 14 20 -30z m234 -18 c0 -18 -2 -19 -15 -9 -15 12 -12 30 6 30 5 0 9
-10 9 -21z m131 -2 c-13 -13 -26 -3 -16 12 3 6 11 8 17 5 6 -4 6 -10 -1 -17z
m-277 -74 c-5 -40 -2 -53 15 -75 33 -42 54 -27 46 32 -4 26 -3 50 2 52 4 2 24
1 43 -3 19 -3 28 -7 19 -8 -17 -1 -32 -38 -23 -53 3 -5 17 -13 31 -19 18 -6
24 -15 21 -32 -3 -21 -7 -22 -68 -19 -36 2 -70 9 -77 15 -27 28 -37 157 -12
157 6 0 7 -21 3 -47z m416 -64 c-7 -27 -15 -51 -19 -53 -3 -2 -37 -6 -76 -7
-69 -4 -70 -4 -70 21 0 18 7 26 25 30 30 7 38 41 15 64 -15 15 -15 16 3 16 11
0 28 3 38 7 15 6 16 1 11 -40 -7 -52 -1 -77 19 -77 26 0 47 47 41 94 -7 52 4
70 16 25 5 -19 4 -51 -3 -80z m230 24 c-1 -16 -39 -57 -46 -50 -10 10 17 57
33 57 7 0 13 -3 13 -7z m-831 -83 c6 -18 6 -28 1 -25 -6 4 -10 13 -10 21 0 8
-5 14 -11 14 -5 0 -7 5 -4 10 9 15 12 13 24 -20z m637 -6 c-4 -9 -9 -15 -11
-12 -3 3 -3 13 1 22 4 9 9 15 11 12 3 -3 3 -13 -1 -22z m110 -95 l-15 -74 31
-70 c17 -38 64 -137 105 -219 41 -82 79 -161 84 -175 10 -26 10 -26 -9 -6 -58
60 -222 290 -228 320 -3 18 -4 82 -2 141 2 86 7 115 22 137 10 15 20 26 22 24
2 -2 -3 -37 -10 -78z m200 0 c25 -39 44 -73 42 -75 -9 -8 -130 125 -124 135
15 24 38 8 82 -60z m-896 -35 c0 -46 -11 -73 -108 -260 -59 -115 -116 -226
-126 -247 -10 -21 -20 -36 -23 -34 -4 5 99 383 117 424 5 12 22 24 39 28 41 9
61 40 61 95 0 25 3 56 7 69 l6 23 13 -23 c7 -13 13 -47 14 -75z m-126 60 c4
-9 5 -18 4 -19 -30 -23 -119 -73 -117 -66 7 19 84 100 95 100 7 1 15 -6 18
-15z m461 -154 c3 0 12 15 20 33 9 19 14 25 15 14 0 -19 -27 -77 -36 -77 -7 0
-34 66 -34 82 1 7 7 -2 15 -19 8 -18 17 -33 20 -33z m270 0 c28 -11 28 -17 9
-81 -2 -8 6 -28 19 -43 14 -15 29 -51 35 -79 24 -110 43 -229 39 -234 -3 -2
-21 46 -41 109 -19 62 -51 162 -71 221 -19 60 -35 110 -35 113 0 7 17 5 45 -6z
m-471 -44 c6 -41 1 -58 -70 -208 -42 -90 -81 -167 -86 -173 -8 -7 -9 -4 -4 10
14 38 96 298 112 357 20 69 39 75 48 14z m132 -92 c-3 -9 1 -75 10 -146 8 -71
14 -132 12 -134 -5 -4 -48 224 -48 253 0 11 5 24 12 31 16 16 21 15 14 -4z"/>
<path d="M1062 2770 c0 -14 2 -19 5 -12 2 6 2 18 0 25 -3 6 -5 1 -5 -13z"/>
<path d="M1443 2745 c0 -22 2 -30 4 -17 2 12 2 30 0 40 -3 9 -5 -1 -4 -23z"/>
<path d="M1073 2675 c0 -22 2 -30 4 -17 2 12 2 30 0 40 -3 9 -5 -1 -4 -23z"/>
<path d="M1453 2635 c0 -22 2 -30 4 -17 2 12 2 30 0 40 -3 9 -5 -1 -4 -23z"/>
<path d="M1083 2555 c0 -38 2 -53 4 -32 2 20 2 52 0 70 -2 17 -4 1 -4 -38z"/>
<path d="M1094 2360 c0 -58 1 -81 3 -52 2 28 2 76 0 105 -2 28 -3 5 -3 -53z"/>
</g>
</svg>
