<?xml version="1.0" standalone="no"?>
<!DOCTYPE svg PUBLIC "-//W3C//DTD SVG 20010904//EN"
 "http://www.w3.org/TR/2001/REC-SVG-20010904/DTD/svg10.dtd">
<svg version="1.0" xmlns="http://www.w3.org/2000/svg"
 width="244.000000pt" height="305.000000pt" viewBox="0 0 244.000000 305.000000"
 preserveAspectRatio="xMidYMid meet">
<metadata>
Created by potrace 1.16, written by Peter Selinger 2001-2019
</metadata>
<g transform="translate(0.000000,305.000000) scale(0.100000,-0.100000)"
fill="#000000" stroke="none">
<path d="M1370 2898 c0 -13 -7 -108 -14 -213 -8 -104 -17 -327 -21 -494 -3
-168 -8 -307 -10 -310 -3 -2 -5 7 -5 20 0 61 -21 363 -31 439 -6 47 -20 126
-31 175 -19 82 -22 87 -30 60 -28 -99 -50 -241 -59 -395 -19 -321 -26 -340
-30 -85 l-3 230 -4 -175 -4 -175 -15 70 c-19 82 -29 710 -12 720 14 9 11 55
-4 55 -17 0 -34 -250 -43 -645 l-6 -270 31 -30 c17 -16 31 -38 31 -49 0 -15
-5 -12 -29 13 -47 51 -108 35 -131 -34 -12 -37 -30 -47 -30 -17 0 27 -42 71
-75 78 -42 8 -85 -26 -85 -67 0 -27 2 -29 40 -29 66 0 120 -71 85 -110 -25
-27 -15 -94 24 -169 36 -71 40 -125 11 -179 -10 -20 -21 -45 -24 -55 -10 -32
-26 -7 -21 31 3 20 0 64 -7 97 -12 54 -16 60 -39 63 -41 5 -72 -40 -63 -93 7
-42 33 -101 66 -148 11 -15 18 -34 16 -43 -3 -17 -92 99 -109 143 -16 42 -11
115 11 148 36 54 18 85 -50 85 -73 0 -90 -37 -60 -132 32 -101 24 -170 -22
-208 -19 -15 -21 -21 -11 -43 9 -19 9 -28 0 -35 -17 -13 -320 -133 -324 -128
-3 2 20 20 49 41 239 165 284 196 295 208 11 11 11 23 -2 72 -8 33 -15 78 -15
102 0 23 -5 45 -11 49 -8 4 -10 -16 -9 -67 3 -112 4 -109 -27 -103 -25 5 -46
-13 -208 -175 -98 -100 -175 -181 -170 -181 6 0 91 30 190 66 99 36 199 72
222 80 33 12 42 21 45 42 2 22 7 26 28 24 32 -3 95 -45 116 -76 18 -29 13 -54
-21 -94 -15 -18 -45 -105 -93 -272 -39 -135 -73 -261 -76 -280 l-7 -35 41 45
c49 54 289 355 311 389 14 22 14 28 1 53 -19 38 -9 58 28 58 23 0 30 -4 30
-19 0 -11 -14 -126 -30 -257 -17 -130 -29 -238 -28 -240 2 -1 38 90 81 204 57
152 77 220 77 255 0 26 3 47 7 47 11 0 63 -53 63 -64 0 -5 -12 -23 -27 -38
l-28 -29 29 -167 c15 -92 38 -221 51 -287 13 -66 26 -139 30 -163 4 -24 8 -42
10 -40 3 3 59 300 103 545 l19 103 -28 32 c-16 18 -28 38 -29 44 0 15 58 69
67 61 3 -4 7 -33 8 -64 1 -40 12 -86 36 -148 20 -49 55 -143 79 -207 24 -64
46 -116 47 -114 2 2 0 29 -3 60 -4 32 -10 53 -14 47 -6 -10 -92 323 -106 411
-6 34 -5 36 16 31 12 -3 24 -12 27 -19 2 -7 17 -102 33 -211 15 -109 28 -188
29 -175 1 13 -10 107 -24 210 -20 148 -23 187 -13 194 17 11 21 10 42 -5 17
-12 17 -16 2 -50 l-15 -37 105 -131 c195 -243 246 -304 254 -307 5 -2 0 25
-10 60 -9 35 -27 97 -38 138 -12 41 -37 134 -57 205 -20 72 -47 154 -62 182
-33 69 -26 95 35 134 56 36 86 35 90 -2 3 -24 14 -31 120 -69 108 -38 240 -87
286 -106 12 -4 17 -3 15 3 -2 6 -76 86 -164 178 -152 159 -161 166 -191 161
l-31 -6 3 97 c2 74 1 88 -6 58 -8 -37 -13 -111 -11 -162 1 -19 5 -21 39 -16
36 5 39 2 166 -126 70 -72 123 -131 117 -131 -13 0 -43 18 -211 128 -63 41
-123 84 -132 96 -28 35 -31 86 -9 166 26 92 26 95 1 120 -33 33 -109 23 -124
-15 -3 -9 5 -32 19 -53 43 -63 31 -133 -41 -228 -46 -62 -43 -58 -49 -52 -3 3
13 41 35 84 60 118 51 194 -23 194 -32 0 -38 -18 -40 -124 -1 -46 -6 -75 -12
-73 -5 2 -12 12 -14 22 -2 10 -9 25 -17 33 -24 24 -18 130 11 191 34 70 42
132 21 153 -25 25 -19 51 18 87 27 26 40 32 67 29 28 -2 35 1 37 18 5 35 -34
74 -74 74 -36 0 -84 -38 -84 -66 0 -28 -20 -23 -33 8 -17 41 -35 56 -74 64
-24 5 -34 1 -50 -20 -24 -30 -33 -33 -33 -11 0 9 12 27 28 40 l27 23 1 219 0
218 -6 -195 c-3 -107 -7 -177 -8 -155 -1 22 -7 58 -12 80 -6 23 -10 212 -10
448 0 224 -2 407 -5 407 -3 0 -5 -10 -5 -22z m-117 -535 c0 -72 0 -74 6 -23 6
55 6 55 19 -48 14 -117 15 -228 4 -352 -6 -77 -8 -66 -12 110 l-6 195 -2 -272
c-1 -157 2 -273 7 -273 5 0 14 -14 20 -31 14 -40 14 -39 -4 -39 -10 0 -16 11
-16 33 l-2 32 -4 -30 c-3 -16 -9 -34 -14 -40 -5 -5 -9 154 -9 410 0 230 3 415
6 412 4 -4 7 -42 7 -84z m45 -575 c0 -42 -3 -56 -9 -43 -9 25 -11 68 -3 89 10
26 12 19 12 -46z m190 -60 c14 -24 13 -35 -7 -68 -6 -8 -12 -31 -16 -51 -3
-22 -20 -52 -41 -75 -22 -25 -33 -32 -29 -19 6 19 17 133 19 205 1 19 5 38 10
42 15 10 47 -6 64 -34z m-430 -5 c0 -21 5 -81 10 -133 5 -52 8 -97 6 -98 -1
-2 -18 20 -38 50 -22 33 -36 65 -36 84 0 17 -7 37 -15 44 -33 27 -3 90 44 90
24 0 27 -4 29 -37z m124 -116 c29 -8 21 -27 -11 -27 -37 0 -45 13 -42 64 3 60
15 67 25 14 6 -32 15 -48 28 -51z m161 62 c3 -11 3 -36 0 -55 -5 -31 -9 -34
-39 -34 -36 0 -46 16 -16 27 23 9 32 23 32 56 0 32 15 36 23 6z m-388 -85 c17
-41 19 -64 7 -64 -12 0 -32 47 -32 75 0 35 7 31 25 -11z m422 4 c-3 -7 -5 -2
-5 12 0 14 2 19 5 13 2 -7 2 -19 0 -25z m153 -39 c-9 -15 -15 -18 -23 -10 -8
8 -6 21 8 48 19 38 19 38 23 11 2 -15 -2 -37 -8 -49z m-288 -18 c7 11 8 9 4
-4 -3 -10 -6 -28 -7 -40 -1 -20 -2 -20 -9 3 -9 29 -12 64 -3 41 5 -11 7 -11
15 0z m-85 -95 c13 -27 22 -54 20 -59 -2 -6 -20 22 -40 63 -20 40 -33 78 -30
83 4 6 11 0 16 -14 6 -13 21 -46 34 -73z m208 72 c-10 -35 -27 -68 -36 -68 -5
0 -1 20 9 45 17 46 39 64 27 23z m-333 -70 c-15 -15 -26 -4 -18 18 5 13 9 15
18 6 9 -9 9 -15 0 -24z m428 17 c0 -8 -4 -15 -10 -15 -5 0 -10 7 -10 15 0 8 5
15 10 15 6 0 10 -7 10 -15z m-350 -72 c0 -18 -15 -17 -34 3 -17 17 -20 27 -9
37 9 9 43 -22 43 -40z m202 22 c-4 -26 -22 -45 -22 -25 0 12 18 50 24 50 2 0
1 -11 -2 -25z m98 11 c0 -16 -26 -46 -41 -46 -14 0 -11 22 8 42 19 22 33 23
33 4z m116 -64 c-13 -12 -18 9 -10 45 l8 38 4 -39 c2 -21 1 -41 -2 -44z m-569
21 c-3 -10 -5 -2 -5 17 0 19 2 27 5 18 2 -10 2 -26 0 -35z m83 -122 c10 -39
15 -71 11 -71 -8 0 -41 108 -41 135 0 32 11 9 30 -64z m405 -22 c-24 -72 -29
-54 -8 27 11 44 19 61 21 46 2 -12 -4 -45 -13 -73z m-357 36 c-1 -42 14 -75
33 -75 5 0 9 7 9 15 0 20 46 20 54 -1 10 -25 7 -37 -8 -31 -7 3 -23 -1 -35 -9
-26 -18 -34 -14 -55 30 -17 36 -22 116 -7 116 5 0 9 -20 9 -45z m82 36 c0 -5
-9 -11 -20 -14 -22 -6 -28 8 -7 16 19 8 27 8 27 -2z m178 -6 c2 -2 -1 -12 -7
-22 -10 -17 -10 -17 -11 0 0 9 -7 17 -15 17 -8 0 -15 5 -15 11 0 9 36 4 48 -6z
m54 -7 c10 -63 -38 -156 -65 -129 -6 6 -21 11 -34 11 -31 0 -31 37 0 49 17 7
25 5 36 -10 7 -10 17 -19 21 -19 14 0 32 59 28 90 -3 16 -1 30 3 30 4 0 9 -10
11 -22z m178 -62 c0 -7 -9 -21 -20 -31 -18 -16 -20 -17 -20 -1 0 22 22 56 32
50 4 -3 8 -11 8 -18z m-630 -46 c0 -21 -15 -27 -25 -10 -7 12 2 30 16 30 5 0
9 -9 9 -20z m670 -42 c0 -7 -4 -19 -9 -26 -7 -11 -10 -10 -15 3 -3 9 -4 21 0
26 8 13 24 11 24 -3z m-730 -47 c0 -11 -4 -23 -10 -26 -6 -4 -10 5 -10 19 0
14 5 26 10 26 6 0 10 -9 10 -19z m15 -122 c1 -41 4 -84 9 -97 6 -19 -6 -40
-70 -125 -43 -56 -104 -137 -137 -179 -50 -67 -78 -97 -64 -70 180 359 230
467 235 507 8 74 27 49 27 -36z m703 41 c13 -32 26 -43 59 -56 32 -13 45 -24
52 -48 35 -113 112 -398 109 -402 -4 -4 -41 66 -220 416 -37 72 -49 130 -27
130 6 0 18 -18 27 -40z m72 2 c0 -15 -2 -15 -10 -2 -13 20 -13 33 0 25 6 -3
10 -14 10 -23z m-434 -89 c-6 -15 -9 -15 -16 -3 -6 9 -5 17 3 22 16 10 21 2
13 -19z m-161 -24 c6 -34 -2 -66 -51 -204 -32 -90 -60 -162 -62 -160 -2 2 7
50 21 107 14 57 35 147 47 201 12 53 25 97 30 97 5 0 11 -18 15 -41z m196
-139 l8 -55 -4 55 c-2 30 -6 66 -10 80 -6 23 -5 23 25 -9 30 -32 31 -36 25
-90 -10 -87 -65 -344 -60 -281 15 184 12 229 -4 75 l-18 -170 -1 260 c-1 244
0 258 15 225 8 -19 19 -60 24 -90z"/>
<path d="M926 2900 c-10 -28 -45 -235 -61 -365 -8 -71 -18 -238 -22 -371 l-6
-240 34 -22 c19 -12 42 -27 51 -34 15 -11 22 -8 49 20 17 17 38 32 45 32 17 0
18 50 4 339 -10 215 -32 419 -55 511 -9 35 -12 41 -9 17 3 -21 14 -102 25
-180 12 -89 21 -237 25 -397 l7 -255 -36 -28 c-20 -15 -38 -27 -41 -27 -3 0
-6 219 -5 488 0 281 4 479 9 467 l9 -20 0 20 c0 11 -4 29 -9 40 -6 16 -9 17
-14 5z"/>
<path d="M1092 2880 c0 -14 2 -19 5 -12 2 6 2 18 0 25 -3 6 -5 1 -5 -13z"/>
<path d="M1517 2832 c-42 -186 -79 -588 -76 -847 0 -60 1 -60 46 -94 38 -27
50 -31 62 -22 9 6 31 21 49 32 32 21 32 22 30 92 l-1 72 -6 -56 c-5 -47 -11
-61 -37 -83 -18 -14 -37 -26 -43 -26 -15 0 -16 927 0 932 7 2 8 15 2 38 -9 35
-10 34 -26 -38z"/>
<path d="M1566 2725 c3 -27 12 -99 20 -160 8 -60 17 -197 21 -304 3 -114 9
-186 14 -174 17 47 -19 506 -51 648 -9 38 -9 38 -4 -10z"/>
<path d="M1393 2700 c0 -25 2 -35 4 -22 2 12 2 32 0 45 -2 12 -4 2 -4 -23z"/>
<path d="M1112 2670 c0 -19 2 -27 5 -17 2 9 2 25 0 35 -3 9 -5 1 -5 -18z"/>
<path d="M1403 2540 c0 -25 2 -35 4 -22 2 12 2 32 0 45 -2 12 -4 2 -4 -23z"/>
<path d="M1123 2500 c0 -25 2 -35 4 -22 2 12 2 32 0 45 -2 12 -4 2 -4 -23z"/>
</g>
</svg>
