<?xml version="1.0" standalone="no"?>
<!DOCTYPE svg PUBLIC "-//W3C//DTD SVG 20010904//EN"
 "http://www.w3.org/TR/2001/REC-SVG-20010904/DTD/svg10.dtd">
<svg version="1.0" xmlns="http://www.w3.org/2000/svg"
 width="244.000000pt" height="305.000000pt" viewBox="0 0 244.000000 305.000000"
 preserveAspectRatio="xMidYMid meet">
<metadata>
Created by potrace 1.16, written by Peter Selinger 2001-2019
</metadata>
<g transform="translate(0.000000,305.000000) scale(0.100000,-0.100000)"
fill="#000000" stroke="none">
<path d="M877 2838 c-51 -224 -74 -437 -79 -738 -3 -173 -3 -174 20 -186 13
-6 36 -24 53 -40 l29 -28 28 25 c15 14 39 33 54 42 22 14 28 25 27 50 -11 271
-21 459 -30 532 -12 108 -50 318 -56 312 -2 -3 5 -63 16 -133 32 -201 41 -303
48 -519 l6 -200 -41 -28 c-23 -15 -44 -27 -47 -27 -3 0 -5 217 -5 483 0 329 4
477 10 467 8 -11 9 -7 4 15 -12 53 -20 47 -37 -27z"/>
<path d="M1310 2840 c-1 -41 -3 -192 -3 -335 0 -212 -1 -234 -6 -120 -4 98 -8
124 -11 85 l-5 -55 -13 55 c-7 30 -18 73 -24 95 l-10 40 -15 -45 c-8 -25 -20
-76 -28 -115 -15 -81 -13 -100 -25 180 -6 142 -7 124 -8 -156 -1 -174 -5 -365
-9 -425 l-8 -109 -5 170 -6 170 -3 -180 -3 -180 -13 70 c-7 39 -19 84 -26 100
l-12 30 -13 -50 c-6 -27 -13 -80 -13 -117 -1 -65 0 -68 29 -83 28 -15 30 -19
30 -76 0 -65 -15 -83 -51 -61 -27 17 -29 15 -29 -16 0 -29 26 -62 49 -62 6 0
23 12 37 27 13 14 26 24 28 22 2 -2 1 -30 -1 -61 -5 -53 -7 -58 -30 -58 -29 0
-63 -17 -63 -30 0 -6 7 -10 15 -10 10 0 15 -10 15 -30 0 -20 -4 -28 -13 -24
-25 9 -88 102 -94 138 -3 20 -12 41 -19 47 -21 18 -17 47 11 75 22 22 33 25
73 22 47 -3 47 -3 44 27 -8 73 -92 95 -143 37 -16 -18 -29 -39 -29 -47 0 -26
-16 -16 -33 21 -20 40 -73 68 -112 58 -32 -8 -67 -51 -63 -78 3 -18 9 -20 46
-18 37 3 47 -1 77 -31 38 -38 43 -58 20 -77 -35 -29 -9 -129 56 -217 22 -29
39 -55 39 -58 0 -4 -16 -25 -35 -48 -49 -57 -47 -105 6 -132 35 -19 68 -19 75
-2 3 8 1 31 -4 53 -10 45 1 86 20 79 67 -23 71 -26 60 -37 -7 -7 -12 -19 -11
-28 0 -11 2 -12 6 -1 5 11 7 11 14 0 6 -10 9 -7 9 10 0 13 3 22 6 18 11 -11
-17 -117 -32 -117 -8 0 -14 8 -15 18 0 16 -1 16 -7 0 -8 -19 -72 -58 -96 -58
-15 0 -60 42 -84 79 -9 13 -17 49 -18 85 -1 33 -6 79 -11 101 -8 37 -11 40
-45 43 -30 3 -40 -1 -54 -23 -27 -41 -13 -94 53 -203 75 -125 93 -173 92 -247
-1 -33 2 -76 6 -95 6 -33 3 -41 -62 -116 -132 -156 -236 -274 -240 -274 -5 0
74 146 99 182 10 14 18 29 18 33 0 4 31 62 68 129 38 66 72 130 76 140 9 25
-11 120 -34 166 -10 19 -39 61 -64 92 -71 86 -84 156 -41 220 14 20 25 42 25
49 0 38 -113 55 -143 21 -22 -24 -21 -50 4 -134 29 -93 22 -143 -23 -180 -30
-24 -32 -29 -20 -49 8 -13 10 -25 5 -30 -13 -13 -341 -131 -353 -127 -5 2 79
57 185 123 112 69 195 126 195 135 0 8 -7 37 -15 64 -8 27 -15 68 -15 90 0 23
-5 48 -11 56 -7 11 -9 -13 -7 -82 l4 -98 -36 6 c-34 5 -41 -1 -220 -164 -101
-94 -186 -174 -188 -180 -1 -5 66 13 150 40 84 27 195 63 246 80 83 27 92 32
92 54 0 14 7 27 15 30 24 10 127 -48 153 -86 30 -44 26 -84 -8 -88 -32 -5 -47
-17 -52 -45 -3 -12 -31 -103 -63 -202 -67 -212 -105 -338 -101 -342 1 -1 51
52 112 119 60 67 147 164 194 216 102 113 103 114 90 147 -24 63 -20 66 86 64
70 -1 97 -5 101 -15 3 -8 11 -14 19 -14 21 0 17 -70 -6 -105 -12 -19 -19 -45
-19 -70 l2 -40 7 40 7 40 1 -35 c3 -58 -10 -143 -19 -129 -4 8 -7 -8 -7 -36 1
-28 -1 -72 -5 -100 -6 -47 -6 -48 3 -10 6 22 17 73 26 113 9 41 17 72 20 70 2
-2 24 -105 50 -229 25 -123 48 -231 49 -239 2 -8 4 -22 5 -30 3 -25 17 33 55
224 49 244 56 270 67 254 5 -8 6 9 3 42 -3 38 -2 47 4 30 4 -14 11 -53 14 -85
4 -39 3 -50 -2 -30 -8 27 -9 28 -9 5 0 -14 3 -36 8 -50 18 -59 22 18 10 196
-11 157 -10 188 1 195 8 5 53 9 102 9 96 0 100 -4 77 -66 -13 -33 -10 -37 172
-234 73 -80 152 -167 176 -194 23 -27 42 -42 42 -34 0 9 -29 109 -65 224 -36
115 -73 234 -82 264 -19 67 -26 76 -63 84 -65 12 -21 103 72 150 63 31 88 29
88 -7 0 -22 11 -28 133 -67 72 -23 179 -58 236 -76 57 -19 105 -33 108 -31 2
3 -20 27 -49 53 -29 27 -80 74 -113 104 -33 31 -86 80 -117 109 -81 75 -94 83
-127 76 l-29 -6 5 93 c7 127 -13 105 -22 -25 l-7 -98 41 7 c34 5 46 2 73 -18
45 -35 252 -228 256 -239 4 -10 -29 7 -218 116 -172 99 -166 95 -184 132 -21
44 -20 67 4 139 24 72 25 93 4 122 -20 29 -91 31 -125 3 l-23 -18 27 -46 c46
-77 34 -129 -53 -243 -64 -84 -73 -107 -66 -166 7 -67 19 -83 69 -97 l43 -12
68 -212 c38 -117 71 -219 73 -227 9 -33 -32 32 -134 210 -59 102 -119 205
-135 229 -39 62 -38 122 3 198 17 32 37 65 44 73 30 35 75 135 75 166 0 42
-30 74 -70 74 -40 0 -50 -22 -54 -129 -4 -83 -6 -93 -36 -130 -39 -48 -70 -58
-113 -34 -41 23 -42 24 -56 89 -7 30 -17 52 -22 49 -5 -4 -9 1 -9 9 0 9 3 15
8 14 4 -1 20 4 35 10 36 15 34 16 48 -9 8 -16 8 -32 -1 -66 -17 -59 -6 -71 50
-54 69 21 79 75 25 138 -19 23 -35 45 -35 49 0 4 18 30 40 59 62 81 93 197 55
211 -25 10 -17 44 20 81 32 32 40 35 75 30 26 -3 40 -1 41 6 6 55 -23 89 -75
89 -46 0 -79 -21 -96 -61 -16 -40 -23 -39 -39 5 -18 51 -70 73 -118 50 -24
-11 -35 -25 -39 -46 -9 -44 -8 -45 41 -42 37 3 49 -1 70 -22 27 -27 33 -71 11
-79 -7 -3 -16 -21 -19 -41 -6 -35 -65 -123 -93 -139 -10 -6 -14 -2 -14 17 0
14 8 29 18 35 16 9 16 11 -3 25 -11 8 -32 16 -47 16 -25 0 -26 3 -30 56 -1 31
-2 57 0 59 2 1 14 -8 27 -21 13 -13 31 -24 39 -24 20 0 46 39 46 67 0 26 -3
27 -29 11 -36 -22 -51 -4 -51 62 0 33 3 60 8 60 4 0 20 10 35 23 l28 22 -12
91 c-11 90 -22 125 -34 112 -3 -3 -14 -51 -24 -107 -10 -56 -23 -107 -30 -114
-11 -10 -12 -7 -5 13 11 29 7 695 -5 890 -7 114 -8 123 -11 60z m-35 -500 c9
-63 18 -195 21 -293 3 -149 2 -181 -11 -193 -16 -16 -21 -99 -6 -90 13 9 21
-19 21 -74 0 -39 -4 -52 -20 -60 -17 -9 -20 -8 -20 10 0 11 5 20 10 20 6 0 10
16 10 35 0 19 -5 35 -11 35 -7 0 -9 22 -5 68 13 147 17 267 10 259 -4 -4 -11
-42 -15 -85 -4 -49 -7 14 -7 174 -1 138 -4 280 -7 315 -7 92 10 26 30 -121z
m-138 -462 c-3 -7 -5 -2 -5 12 0 14 2 19 5 13 2 -7 2 -19 0 -25z m-203 -312
c16 -32 50 -76 81 -105 51 -46 70 -81 44 -81 -5 0 -35 23 -64 51 -53 50 -105
135 -105 171 0 33 17 19 44 -36z m646 34 c0 -52 -99 -183 -161 -214 -51 -25
-35 9 34 74 38 35 72 78 87 109 25 53 40 65 40 31z m-380 -20 c0 -10 -4 -22
-10 -25 -6 -4 -10 7 -10 25 0 18 4 29 10 25 6 -3 10 -15 10 -25z m90 -7 c0
-20 -3 -24 -11 -16 -7 7 -9 19 -6 27 10 24 17 19 17 -11z m-53 -95 c-2 -13 -4
-5 -4 17 -1 22 1 32 4 23 2 -10 2 -28 0 -40z m-80 -36 c11 -57 6 -105 -9 -96
-5 3 -7 17 -4 30 9 33 -3 74 -21 74 -11 0 -14 6 -9 23 3 12 6 29 6 37 0 33 28
-16 37 -68z m203 43 c0 -23 -5 -35 -14 -35 -17 0 -27 -34 -19 -70 3 -15 0 -31
-6 -34 -18 -11 -18 67 0 137 13 49 39 50 39 2z m7 -117 c-3 -8 -6 -5 -6 6 -1
11 2 17 5 13 3 -3 4 -12 1 -19z m-250 -90 c-3 -8 -6 -5 -6 6 -1 11 2 17 5 13
3 -3 4 -12 1 -19z m240 -10 c-3 -7 -5 -2 -5 12 0 14 2 19 5 13 2 -7 2 -19 0
-25z m53 -78 c0 -13 -1 -13 -10 0 -5 8 -10 22 -10 30 0 13 1 13 10 0 5 -8 10
-22 10 -30z m-63 8 c-3 -8 -6 -5 -6 6 -1 11 2 17 5 13 3 -3 4 -12 1 -19z
m-164 -1 c4 3 7 2 7 -4 0 -6 -6 -16 -14 -22 -11 -9 -15 -8 -20 5 -10 27 -7 38
7 25 8 -6 17 -8 20 -4z m128 -30 c-9 -9 -14 -8 -21 3 -14 22 -12 30 5 24 9 -4
15 0 16 7 1 8 3 6 6 -5 3 -10 0 -23 -6 -29z m-214 -59 c-3 -7 -5 -2 -5 12 0
14 2 19 5 13 2 -7 2 -19 0 -25z m279 -24 c-12 -31 -22 -12 -12 22 9 28 12 31
14 14 2 -12 1 -28 -2 -36z m-139 -166 c-3 -8 -6 -5 -6 6 -1 11 2 17 5 13 3 -3
4 -12 1 -19z m99 -76 c-12 -12 -18 8 -10 35 l8 28 4 -28 c2 -16 1 -31 -2 -35z
m-15 -59 l1 -28 7 25 c5 17 9 21 14 13 5 -7 4 -21 -1 -30 -5 -10 -12 -40 -16
-68 -3 -27 -21 -117 -40 -200 l-34 -150 1 268 2 268 33 -35 c19 -21 32 -47 33
-63z"/>
<path d="M1560 2892 c0 -4 -11 -61 -24 -127 -13 -66 -32 -176 -41 -245 -21
-156 -33 -600 -17 -600 6 0 27 -13 45 -30 40 -35 57 -37 81 -11 10 11 31 25
47 31 l30 13 -6 171 c-3 94 -11 229 -16 299 -12 159 -69 501 -69 415 0 -8 5
-40 10 -69 34 -175 60 -467 60 -675 l0 -111 -40 -27 c-22 -14 -42 -26 -45 -26
-3 0 -5 217 -4 483 0 312 4 475 10 462 8 -17 9 -17 4 5 -2 14 -5 31 -5 38 0 6
-4 12 -10 12 -5 0 -10 -3 -10 -8z"/>
<path d="M1143 2620 c0 -36 2 -50 4 -32 2 17 2 47 0 65 -2 17 -4 3 -4 -33z"/>
<path d="M1041 1234 c0 -11 3 -14 6 -6 3 7 2 16 -1 19 -3 4 -6 -2 -5 -13z"/>
<path d="M1102 880 c0 -14 2 -19 5 -12 2 6 2 18 0 25 -3 6 -5 1 -5 -13z"/>
<path d="M1101 834 c0 -11 3 -14 6 -6 3 7 2 16 -1 19 -3 4 -6 -2 -5 -13z"/>
<path d="M1386 503 c-3 -10 -1 -34 3 -53 9 -34 9 -33 10 18 1 53 -4 66 -13 35z"/>
</g>
</svg>
