<?xml version="1.0" standalone="no"?>
<!DOCTYPE svg PUBLIC "-//W3C//DTD SVG 20010904//EN"
 "http://www.w3.org/TR/2001/REC-SVG-20010904/DTD/svg10.dtd">
<svg version="1.0" xmlns="http://www.w3.org/2000/svg"
 width="244.000000pt" height="305.000000pt" viewBox="0 0 244.000000 305.000000"
 preserveAspectRatio="xMidYMid meet">
<metadata>
Created by potrace 1.16, written by Peter Selinger 2001-2019
</metadata>
<g transform="translate(0.000000,305.000000) scale(0.100000,-0.100000)"
fill="#000000" stroke="none">
<path d="M890 2893 c0 -12 -3 -29 -7 -39 -4 -12 -3 -15 5 -10 9 5 12 -108 12
-468 0 -262 -2 -476 -5 -476 -3 0 -23 11 -44 26 -34 22 -39 31 -45 74 -4 27
-4 60 -2 72 3 13 7 93 10 178 6 154 23 323 50 473 7 43 10 75 6 70 -9 -10 -47
-220 -56 -313 -3 -36 -7 -75 -9 -86 -2 -12 -6 -122 -10 -246 l-8 -224 31 -13
c17 -7 38 -21 48 -32 17 -19 54 -26 54 -11 0 4 18 19 41 32 l41 25 -6 235 c-5
246 -20 386 -62 605 -24 120 -44 180 -44 128z"/>
<path d="M1560 2886 c0 -8 -3 -23 -6 -33 -5 -15 -4 -15 5 -3 8 11 11 -120 11
-467 0 -266 -2 -483 -5 -483 -3 0 -23 12 -45 26 l-40 27 0 126 c0 179 16 379
45 565 14 87 23 161 21 163 -6 6 -44 -210 -55 -317 -12 -102 -30 -473 -26
-529 1 -25 9 -39 26 -50 13 -8 36 -26 51 -39 l27 -25 35 29 c19 16 44 36 57
44 l22 16 -12 240 c-14 300 -31 436 -88 697 -6 28 -23 38 -23 13z"/>
<path d="M1299 2764 c-1 -60 -4 -167 -8 -239 l-6 -130 -23 104 c-16 68 -27
100 -32 90 -9 -17 -58 -240 -63 -289 -2 -19 -5 82 -7 225 l-3 260 -8 -195 c-4
-107 -7 -313 -7 -458 0 -145 -2 -265 -4 -268 -3 -2 -15 50 -28 116 -12 66 -26
120 -31 120 -11 0 -26 -59 -34 -138 l-7 -63 42 -39 c29 -27 40 -44 36 -55 -3
-9 -6 -30 -6 -46 0 -35 -23 -48 -53 -30 -28 18 -40 1 -26 -37 16 -48 67 -54
90 -11 18 34 27 20 26 -41 0 -56 -2 -59 -23 -58 -24 2 -74 -20 -74 -34 0 -4 9
-8 20 -8 16 0 20 -7 20 -35 0 -19 -4 -35 -8 -35 -10 0 -80 81 -99 114 -7 11
-12 33 -13 47 0 14 -9 34 -20 44 -18 16 -18 20 -5 46 20 38 48 51 98 47 40 -3
42 -2 39 22 -7 52 -28 70 -82 70 -42 0 -51 -4 -69 -29 -12 -16 -21 -36 -21
-45 0 -28 -18 -17 -36 20 -41 86 -174 74 -174 -15 0 -18 6 -21 44 -21 33 0 52
-7 75 -25 41 -35 46 -58 21 -92 -19 -26 -19 -32 -7 -78 11 -41 53 -117 101
-181 7 -9 -1 -24 -26 -52 -20 -22 -39 -50 -43 -62 -10 -32 23 -73 69 -84 52
-14 62 -1 45 63 -17 67 -5 84 49 68 20 -6 38 -12 40 -13 2 -1 -2 -30 -9 -64
-12 -59 -13 -62 -62 -86 -63 -33 -86 -27 -132 34 -30 38 -35 53 -30 77 3 16 0
61 -7 99 -11 58 -17 70 -37 78 -19 7 -31 5 -50 -10 -22 -17 -26 -27 -26 -73 1
-47 7 -64 52 -134 113 -180 116 -201 43 -325 -27 -47 -71 -122 -97 -168 -27
-46 -53 -91 -58 -100 -6 -9 -28 -48 -49 -85 -21 -37 -40 -66 -43 -64 -2 3 27
104 66 224 l71 219 47 15 c43 13 48 18 60 58 18 62 2 124 -49 191 -81 107 -88
120 -88 172 0 36 7 59 27 89 l27 41 -23 19 c-32 26 -104 26 -131 -1 -25 -25
-25 -33 0 -105 23 -66 26 -122 8 -160 -6 -14 -39 -42 -72 -63 -80 -50 -330
-192 -339 -192 -8 0 116 119 216 205 74 64 79 67 117 61 21 -3 41 -3 43 1 3 5
0 54 -5 110 -13 130 -34 130 -24 1 l7 -90 -31 7 c-34 7 -35 7 -179 -124 -249
-225 -260 -236 -214 -221 133 41 442 144 456 152 9 5 17 20 17 33 0 29 2 30
62 9 57 -19 114 -72 123 -115 8 -35 1 -46 -35 -51 -15 -2 -30 -13 -37 -28 -19
-40 -175 -540 -171 -549 2 -5 42 35 90 88 48 53 102 112 120 132 36 38 164
184 186 210 11 14 11 23 -2 54 -9 20 -13 41 -10 46 3 5 47 9 98 9 70 0 97 -4
106 -15 9 -11 9 -52 1 -184 -14 -208 -14 -224 -1 -216 6 3 8 25 5 48 -4 31 -3
37 4 22 7 -14 9 -3 6 40 -2 33 -2 49 1 35 3 -14 9 -34 14 -45 5 -11 16 -60 25
-110 10 -49 27 -137 40 -195 12 -58 26 -123 30 -145 l8 -40 9 40 c5 22 29 134
53 250 23 116 46 203 49 195 4 -9 15 -58 25 -110 l19 -95 1 63 c1 45 -2 61
-10 56 -9 -5 -10 15 -6 72 4 57 3 68 -3 39 -6 -27 -7 -2 -4 75 3 76 1 110 -5
100 -9 -12 -11 -12 -16 3 -10 24 -11 76 -3 74 4 -1 14 7 22 18 12 17 28 21
111 24 l98 3 -7 -37 c-4 -20 -10 -43 -12 -50 -4 -8 35 -59 92 -122 237 -261
304 -332 304 -322 0 13 -33 125 -102 344 -27 88 -53 171 -57 185 -5 16 -19 29
-39 36 -49 16 -55 26 -39 66 18 43 76 91 128 107 46 14 59 9 59 -22 0 -20 16
-28 143 -70 194 -64 329 -107 334 -107 13 0 -18 30 -186 184 -175 159 -186
167 -217 161 l-33 -6 6 91 c4 64 3 90 -6 90 -7 0 -11 -18 -11 -47 0 -27 -7
-70 -15 -97 -26 -84 -42 -67 228 -231 104 -63 139 -87 134 -91 -5 -5 -44 8
-279 92 -79 28 -94 44 -65 73 10 10 5 18 -22 40 -44 37 -52 99 -22 185 37 105
21 146 -55 146 -39 0 -84 -22 -84 -41 0 -5 12 -27 26 -49 45 -68 26 -136 -74
-262 -36 -46 -54 -87 -67 -160 -6 -32 0 -50 48 -140 30 -57 69 -127 86 -156
17 -29 31 -55 31 -57 0 -2 23 -42 50 -90 28 -48 46 -85 41 -83 -10 3 -141 150
-240 268 -60 72 -62 77 -56 115 4 22 6 68 6 102 -2 74 10 104 92 237 53 86 62
108 62 148 0 55 -22 79 -70 75 -28 -2 -30 -6 -43 -67 -7 -36 -11 -78 -8 -93 7
-36 -13 -75 -59 -116 -40 -35 -52 -37 -80 -17 -11 7 -29 15 -40 17 -10 2 -23
15 -27 29 -7 24 -7 24 -4 -3 2 -17 -1 -26 -8 -24 -19 6 -36 50 -36 93 0 40 1
41 48 57 43 14 48 14 60 -1 7 -10 10 -28 7 -41 -19 -75 -18 -80 8 -86 34 -9
85 19 93 50 8 31 -10 76 -42 106 -13 12 -24 28 -24 35 0 6 18 33 40 60 62 75
90 185 55 214 -23 19 -18 39 20 77 32 32 40 35 75 30 40 -5 40 -5 40 27 0 88
-126 96 -167 12 -17 -37 -33 -47 -33 -21 0 8 -13 29 -29 47 -59 67 -150 29
-142 -60 1 -9 12 -10 42 -6 35 6 44 3 70 -22 32 -31 37 -55 14 -74 -8 -7 -15
-20 -15 -29 -1 -45 -95 -182 -113 -164 -15 15 -7 55 13 60 41 11 6 43 -47 43
-29 0 -29 0 -29 65 l0 65 27 -30 c33 -36 42 -37 70 -9 23 23 22 66 -1 60 -40
-11 -53 -5 -62 24 -15 51 -2 91 38 114 36 21 36 22 29 74 -13 102 -28 168 -37
159 -5 -5 -18 -59 -29 -120 -12 -62 -25 -112 -29 -112 -9 0 -10 19 -15 544 -2
246 -6 451 -9 454 -3 3 -7 -44 -7 -104z m-80 -629 c-4 -214 -8 -396 -8 -403
-1 -7 -5 -10 -11 -7 -6 4 -10 -8 -10 -29 0 -40 16 -49 23 -13 2 12 5 0 6 -26
1 -44 0 -47 -19 -37 -10 6 -22 26 -26 45 -8 42 3 108 17 100 11 -7 11 62 0 90
-8 18 -10 16 -20 -15 -10 -34 -10 -34 -5 10 7 51 23 89 24 55 0 -11 5 -27 10
-35 7 -10 9 19 8 90 -1 80 -3 94 -8 60 l-7 -45 -3 45 c-3 42 -4 41 -10 -20 -7
-65 -7 -65 -8 28 -1 51 3 137 8 190 12 111 42 314 45 310 1 -2 -1 -178 -6
-393z m-290 -564 c23 -48 85 -120 129 -149 22 -15 30 -42 12 -42 -19 0 -85 49
-112 83 -37 48 -68 108 -68 134 0 37 15 27 39 -26z m651 33 c0 -58 -110 -202
-171 -223 -25 -9 -29 -8 -29 10 0 10 4 19 9 19 23 0 128 112 151 159 23 51 40
65 40 35z m-413 -26 c-3 -7 -5 -2 -5 12 0 14 2 19 5 13 2 -7 2 -19 0 -25z
m123 2 c0 -16 -4 -30 -10 -30 -11 0 -14 43 -3 53 11 12 13 8 13 -23z m-90 -6
c0 -14 -4 -23 -10 -19 -5 3 -10 15 -10 26 0 10 5 19 10 19 6 0 10 -12 10 -26z
m-51 -86 c18 -51 26 -148 12 -148 -6 0 -11 18 -11 44 0 26 -6 51 -15 60 -16
16 -21 76 -6 76 5 0 14 -15 20 -32z m88 -15 c-3 -10 -5 -2 -5 17 0 19 2 27 5
18 2 -10 2 -26 0 -35z m99 -29 c-10 -9 -16 -33 -16 -62 0 -36 -3 -43 -12 -34
-15 15 3 134 24 159 11 14 13 13 16 -15 2 -20 -3 -38 -12 -48z m-219 -76 c-3
-8 -6 -5 -6 6 -1 11 2 17 5 13 3 -3 4 -12 1 -19z m240 -10 c-3 -7 -5 -2 -5 12
0 14 2 19 5 13 2 -7 2 -19 0 -25z m-260 -105 c-3 -10 -5 -2 -5 17 0 19 2 27 5
18 2 -10 2 -26 0 -35z m-13 -57 c-3 -15 -8 -25 -11 -23 -2 3 -1 17 3 31 3 15
8 25 11 23 2 -3 1 -17 -3 -31z m53 2 c-3 -8 -6 -5 -6 6 -1 11 2 17 5 13 3 -3
4 -12 1 -19z m43 -22 c0 -9 -4 -16 -10 -16 -5 0 -10 6 -10 14 0 8 -3 23 -7 33
-6 17 -6 17 10 1 9 -9 17 -24 17 -32z m134 10 c-7 -31 -20 -34 -27 -6 -3 11
-1 17 4 14 5 -3 12 2 15 11 10 24 16 11 8 -19z m23 2 c-3 -8 -6 -5 -6 6 -1 11
2 17 5 13 3 -3 4 -12 1 -19z m-236 -75 c-9 -16 -10 -14 -11 12 0 21 3 26 11
18 8 -8 8 -16 0 -30z m269 -23 c-6 -12 -14 -19 -18 -16 -3 4 0 12 6 18 7 7 13
21 13 33 1 16 2 16 6 3 2 -9 -1 -27 -7 -38z m-133 -172 c-3 -8 -6 -5 -6 6 -1
11 2 17 5 13 3 -3 4 -12 1 -19z m-77 -52 c0 -8 -7 -19 -15 -26 -16 -13 -18 -8
-9 27 6 23 24 22 24 -1z m57 -214 c0 -125 4 -254 6 -287 l6 -60 -19 80 c-73
303 -73 301 -59 376 8 46 20 78 35 94 13 14 24 25 26 25 2 0 4 -102 5 -228z
m-68 146 c-1 -7 -5 -24 -9 -38 -7 -22 -8 -21 -9 13 -1 20 4 37 9 37 6 0 10 -6
9 -12z"/>
<path d="M1161 2834 c0 -11 3 -14 6 -6 3 7 2 16 -1 19 -3 4 -6 -2 -5 -13z"/>
<path d="M1173 2585 c0 -27 2 -38 4 -22 2 15 2 37 0 50 -2 12 -4 0 -4 -28z"/>
<path d="M1323 2490 c0 -36 2 -50 4 -32 2 17 2 47 0 65 -2 17 -4 3 -4 -33z"/>
<path d="M1397 1294 c-4 -4 -7 -14 -7 -23 0 -11 3 -12 11 -4 6 6 10 16 7 23
-2 6 -7 8 -11 4z"/>
<path d="M1411 1244 c0 -11 3 -14 6 -6 3 7 2 16 -1 19 -3 4 -6 -2 -5 -13z"/>
<path d="M1087 503 c-4 -3 -7 -22 -6 -42 l1 -36 9 39 c9 39 8 52 -4 39z"/>
</g>
</svg>
