<?xml version="1.0" standalone="no"?>
<!DOCTYPE svg PUBLIC "-//W3C//DTD SVG 20010904//EN"
 "http://www.w3.org/TR/2001/REC-SVG-20010904/DTD/svg10.dtd">
<svg version="1.0" xmlns="http://www.w3.org/2000/svg"
 width="244.000000pt" height="305.000000pt" viewBox="0 0 244.000000 305.000000"
 preserveAspectRatio="xMidYMid meet">
<metadata>
Created by potrace 1.16, written by Peter Selinger 2001-2019
</metadata>
<g transform="translate(0.000000,305.000000) scale(0.100000,-0.100000)"
fill="#000000" stroke="none">
<path d="M885 2887 c-4 -15 -3 -33 1 -40 11 -14 12 -932 2 -942 -4 -4 -25 8
-47 26 l-41 32 0 101 c0 176 21 403 60 660 17 115 4 85 -19 -41 -31 -174 -39
-251 -46 -418 -3 -82 -8 -188 -10 -235 -2 -47 -1 -90 3 -95 4 -6 30 -27 58
-47 l52 -36 22 23 c12 13 36 29 53 36 l30 13 -7 215 c-3 118 -11 258 -16 310
-15 136 -55 365 -78 436 l-9 30 -8 -28z"/>
<path d="M1578 2404 c2 -321 0 -504 -7 -504 -5 0 -28 12 -51 27 l-41 27 6 181
c6 210 19 352 46 524 11 68 18 126 15 128 -5 6 -11 -25 -36 -177 -35 -219 -55
-680 -30 -688 6 -2 31 -19 55 -37 43 -33 43 -33 61 -13 10 11 34 26 53 34 l34
14 -6 218 c-4 119 -14 278 -22 352 -16 134 -56 355 -72 397 -4 12 -7 -205 -5
-483z"/>
<path d="M1241 2630 c-1 -27 -4 -31 -11 -20 -7 11 -10 7 -10 -18 0 -19 -9 -68
-19 -110 -29 -111 -41 -222 -48 -434 -6 -181 -15 -230 -28 -150 -33 196 -48
243 -59 191 -37 -173 -36 -197 9 -227 31 -20 35 -27 35 -66 0 -25 -3 -51 -6
-60 -7 -18 -39 -22 -49 -6 -3 6 -13 10 -22 10 -19 0 -10 -46 14 -72 22 -24 39
-22 65 7 31 35 39 31 32 -15 -6 -39 -5 -41 24 -52 33 -13 56 -55 43 -77 -6 -8
-13 -4 -25 14 -25 38 -59 48 -101 30 -19 -7 -35 -18 -35 -23 0 -11 24 -22 49
-22 32 0 59 -42 70 -110 17 -105 15 -117 -20 -129 -25 -9 -30 -15 -27 -38 2
-22 9 -29 29 -31 51 -6 44 -72 -7 -72 -25 0 -47 -29 -36 -47 4 -6 23 -15 42
-20 33 -9 35 -12 38 -56 2 -26 7 -47 13 -47 5 0 9 -15 9 -32 l0 -33 -20 30
c-11 17 -20 43 -20 58 0 42 -17 67 -46 67 -29 0 -48 37 -38 76 6 23 4 24 -36
24 -23 0 -58 -7 -76 -16 -45 -21 -72 -10 -114 47 -23 32 -30 52 -29 83 2 37
-3 74 -17 144 -6 31 -65 31 -94 0 -38 -41 -24 -91 66 -235 93 -148 93 -163 -9
-333 -41 -69 -106 -180 -146 -247 -39 -68 -73 -123 -76 -123 -4 0 29 108 92
300 l48 144 48 15 c41 13 48 19 57 50 24 88 10 135 -70 230 -73 87 -88 162
-45 221 14 19 25 42 25 52 0 36 -96 51 -138 22 -28 -19 -29 -61 -2 -132 23
-60 19 -118 -11 -156 -16 -20 -365 -226 -384 -226 -13 0 24 37 153 152 l123
110 45 -7 46 -7 -7 94 c-4 51 -11 102 -15 112 -11 32 -20 -63 -10 -114 5 -25
9 -48 10 -52 0 -4 -18 -6 -39 -5 -37 2 -48 -6 -229 -168 -104 -93 -186 -171
-182 -173 4 -2 82 20 171 49 90 28 199 63 242 76 68 21 77 27 77 48 0 33 13
38 59 24 52 -15 110 -64 128 -107 17 -40 7 -57 -36 -65 -32 -7 -37 -20 -150
-382 -27 -88 -53 -168 -57 -179 -4 -12 -3 -17 4 -15 5 2 99 101 207 219 182
199 196 217 191 245 -14 76 -21 70 85 70 89 0 98 -2 132 -28 20 -15 37 -33 37
-40 0 -6 -14 -26 -32 -44 l-32 -33 33 -157 c53 -258 102 -487 105 -491 2 -1
10 33 19 75 9 43 39 190 67 327 l52 248 -33 35 c-37 37 -35 50 15 87 23 18 42
21 124 21 107 0 100 6 86 -70 -5 -28 5 -42 121 -170 224 -245 275 -299 275
-286 0 27 -172 556 -183 563 -7 4 -19 8 -28 8 -55 0 -35 90 29 133 81 54 132
59 132 13 0 -19 7 -27 33 -34 17 -6 124 -40 235 -77 112 -36 209 -64 214 -63
6 2 -20 31 -58 63 -37 33 -75 67 -84 75 -67 63 -206 187 -222 198 -11 8 -30
11 -48 7 l-29 -6 6 90 c7 108 -11 127 -21 22 -3 -37 -13 -84 -21 -104 -18 -43
-15 -48 77 -103 166 -99 319 -196 316 -200 -2 -2 -60 16 -129 40 -272 96 -257
88 -240 131 6 15 0 27 -26 51 -28 27 -33 38 -33 77 0 25 9 74 20 109 25 79 25
93 0 118 -28 28 -102 28 -130 0 -20 -20 -20 -20 10 -67 17 -26 30 -56 30 -66
0 -43 -25 -99 -70 -154 -63 -78 -88 -130 -96 -197 -7 -61 -5 -67 173 -379 47
-82 82 -151 80 -154 -3 -2 -72 73 -154 167 -106 123 -147 178 -146 193 2 12 5
61 7 109 5 98 18 132 107 276 60 96 69 152 29 184 -26 21 -63 24 -77 6 -13
-16 -25 -86 -27 -154 -1 -39 -8 -59 -29 -88 -39 -50 -72 -62 -115 -42 -18 9
-51 16 -72 16 -39 0 -40 -1 -40 -34 0 -50 -9 -66 -36 -66 -27 0 -39 -20 -49
-81 -3 -21 -12 -42 -19 -48 -22 -19 -29 4 -11 38 8 17 15 43 15 60 0 33 11 43
49 47 56 6 52 51 -7 66 -27 7 -32 13 -32 38 0 24 5 29 28 32 21 2 28 9 30 31
3 24 -2 30 -28 40 l-32 12 6 60 c12 110 39 165 80 165 34 0 52 16 38 33 -30
36 -114 17 -141 -31 -9 -15 -10 -15 -16 -1 -10 25 12 66 42 81 24 11 28 19 26
51 -3 43 8 47 31 12 20 -30 39 -32 66 -5 26 26 28 76 3 65 -37 -16 -56 -10
-66 18 -16 48 -1 93 38 116 40 23 41 31 22 150 -20 126 -37 104 -67 -91 -7
-43 -16 -78 -20 -78 -4 0 -10 86 -14 191 -6 171 -36 435 -52 461 -4 6 -10 45
-14 87 -4 42 -8 60 -9 41z m-4 -545 c0 -240 -3 -425 -8 -425 -5 0 -9 -11 -9
-25 0 -25 0 -25 -30 -10 -29 15 -30 17 -30 93 3 362 42 792 72 792 2 0 4 -191
5 -425z m0 -467 c-3 -8 -6 -5 -6 6 -1 11 2 17 5 13 3 -3 4 -12 1 -19z m13
-115 c0 -10 -4 -24 -9 -32 -7 -11 -10 -9 -16 8 -7 22 0 41 16 41 5 0 9 -8 9
-17z m0 -576 c0 -8 -3 -17 -6 -20 -4 -4 -6 -136 -6 -295 0 -158 -3 -294 -7
-301 -5 -8 -13 12 -20 51 -7 35 -28 134 -47 220 -19 86 -34 170 -34 186 0 20
12 41 40 69 l39 41 4 -92 c3 -84 3 -81 5 32 2 101 5 122 17 122 8 0 15 -6 15
-13z"/>
<path d="M1222 1920 c0 -14 2 -19 5 -12 2 6 2 18 0 25 -3 6 -5 1 -5 -13z"/>
<path d="M1223 1800 c0 -36 2 -50 4 -32 2 17 2 47 0 65 -2 17 -4 3 -4 -33z"/>
<path d="M1212 600 c0 -14 2 -19 5 -12 2 6 2 18 0 25 -3 6 -5 1 -5 -13z"/>
<path d="M739 1852 c-27 -13 -35 -24 -37 -49 -3 -32 -2 -33 33 -33 53 0 85
-20 115 -72 8 -14 6 -22 -10 -35 -12 -11 -20 -29 -20 -48 1 -56 22 -97 108
-215 11 -15 8 -24 -28 -64 -46 -54 -50 -83 -17 -114 52 -49 119 -34 97 22 -13
35 -13 69 1 83 8 8 29 5 75 -10 49 -16 69 -19 82 -11 29 19 19 34 -39 58 -90
36 -150 90 -193 173 -16 33 -22 83 -8 83 4 -1 18 -24 31 -53 33 -71 133 -162
199 -182 33 -10 29 29 -5 52 -39 26 -111 100 -134 136 -10 18 -19 43 -19 57 0
14 -9 33 -20 43 -27 23 -25 33 10 69 28 27 36 30 75 25 43 -4 45 -3 45 22 -1
34 -20 59 -58 72 -43 15 -82 -6 -106 -55 -18 -36 -21 -38 -30 -21 -22 37 -62
73 -87 79 -14 3 -39 -2 -60 -12z"/>
<path d="M1435 1858 c-30 -16 -45 -39 -45 -70 0 -27 1 -27 44 -22 39 6 48 3
70 -19 29 -29 34 -72 11 -81 -8 -3 -15 -18 -15 -33 0 -15 -9 -43 -20 -61 -26
-42 -104 -119 -130 -127 -20 -6 -35 -38 -25 -54 20 -34 176 95 216 178 13 28
27 51 31 51 16 0 7 -47 -18 -95 -33 -65 -100 -126 -172 -155 -73 -30 -80 -36
-59 -57 16 -16 21 -16 87 4 89 26 100 18 81 -59 -11 -42 -11 -52 0 -59 20 -14
70 -2 96 23 36 34 34 41 -42 145 -15 20 -14 24 21 70 71 92 98 198 59 227 -42
31 35 110 102 104 30 -2 38 1 41 16 8 41 -38 86 -88 86 -23 0 -90 -56 -90 -75
0 -29 -20 -24 -36 10 -16 34 -58 65 -86 65 -7 0 -22 -6 -33 -12z"/>
</g>
</svg>
