<?xml version="1.0" standalone="no"?>
<!DOCTYPE svg PUBLIC "-//W3C//DTD SVG 20010904//EN"
 "http://www.w3.org/TR/2001/REC-SVG-20010904/DTD/svg10.dtd">
<svg version="1.0" xmlns="http://www.w3.org/2000/svg"
 width="244.000000pt" height="305.000000pt" viewBox="0 0 244.000000 305.000000"
 preserveAspectRatio="xMidYMid meet">
<metadata>
Created by potrace 1.16, written by Peter Selinger 2001-2019
</metadata>
<g transform="translate(0.000000,305.000000) scale(0.100000,-0.100000)"
fill="#000000" stroke="none">
<path d="M885 2887 c-4 -16 -3 -33 2 -38 8 -8 7 -938 -1 -946 -2 -2 -22 9 -45
24 l-42 27 2 116 c2 176 17 367 45 559 14 95 23 175 21 177 -6 6 -45 -218 -58
-331 -12 -109 -27 -533 -19 -544 3 -4 28 -23 57 -43 51 -36 51 -36 69 -17 10
11 33 27 51 36 l33 15 0 92 c0 130 -18 437 -31 531 -12 93 -56 316 -69 348 -8
21 -8 21 -15 -6z"/>
<path d="M1568 2882 c-2 -18 -1 -32 4 -32 4 0 8 -214 8 -475 0 -279 -4 -475
-9 -475 -5 0 -28 12 -51 28 l-43 27 7 180 c8 216 21 358 47 524 11 68 18 126
15 128 -5 5 -11 -21 -31 -142 -24 -147 -34 -267 -41 -502 l-7 -222 28 -11 c16
-6 39 -22 52 -36 l24 -26 34 30 c18 17 43 33 54 37 20 6 21 14 21 128 0 287
-51 719 -99 848 -8 22 -8 22 -13 -9z"/>
<path d="M1192 2875 c0 -16 2 -22 5 -12 2 9 2 23 0 30 -3 6 -5 -1 -5 -18z"/>
<path d="M1271 2700 c-3 -190 -4 -202 -16 -157 -7 27 -16 51 -18 54 -5 5 -37
-96 -37 -119 0 -11 -2 -11 -9 0 -5 8 -11 -24 -14 -80 -4 -51 -11 -145 -17
-208 -5 -63 -10 -163 -11 -223 -1 -106 -13 -148 -23 -85 -3 18 -12 72 -20 121
-24 142 -37 139 -58 -13 l-12 -93 37 -29 c34 -28 37 -34 37 -84 0 -60 -16 -77
-52 -55 -23 14 -37 7 -33 -17 2 -9 4 -20 4 -24 2 -13 32 -38 47 -38 8 0 24 11
36 25 28 32 42 32 34 -1 -9 -33 1 -64 19 -64 17 0 38 -36 30 -50 -4 -6 -16 -3
-30 9 -26 20 -61 18 -100 -6 -17 -11 -18 -14 -5 -23 8 -5 24 -10 35 -10 11 0
26 -4 34 -9 14 -9 29 -79 30 -143 l1 -37 -42 15 c-119 42 -228 156 -228 239 0
38 13 30 34 -22 28 -67 137 -168 204 -188 18 -5 22 -2 22 14 0 12 -21 36 -57
63 -67 50 -123 128 -123 169 0 18 -7 32 -20 39 -28 15 -25 37 10 72 28 27 36
30 75 25 44 -4 45 -4 45 23 0 44 -30 72 -77 74 -49 1 -77 -20 -94 -72 l-12
-36 -17 35 c-27 52 -54 72 -100 72 -51 0 -80 -25 -80 -69 0 -32 0 -32 40 -27
47 7 82 -12 105 -57 14 -28 14 -31 -5 -47 -38 -33 -21 -109 45 -204 25 -35 45
-69 45 -76 0 -6 -16 -30 -35 -53 -41 -49 -44 -78 -12 -108 52 -49 119 -34 97
22 -13 36 -13 69 1 83 8 8 26 6 67 -8 30 -10 64 -19 75 -19 16 0 17 -3 8 -14
-8 -10 -10 -30 -6 -59 5 -30 2 -55 -9 -80 -8 -21 -13 -44 -10 -52 4 -8 1 -15
-5 -15 -12 0 -24 39 -19 66 4 27 -64 32 -108 8 -42 -23 -72 -11 -114 47 -22
32 -30 52 -29 83 1 55 -11 138 -24 154 -16 20 -64 14 -87 -10 -32 -34 -22 -88
30 -173 93 -151 113 -194 106 -235 -4 -23 -43 -101 -94 -187 -49 -81 -113
-190 -143 -240 -29 -51 -56 -93 -60 -93 -6 0 125 412 137 432 3 4 20 10 39 14
46 8 67 35 73 93 6 65 -9 105 -64 171 -86 103 -105 178 -59 240 14 19 25 41
25 50 0 38 -113 55 -143 22 -22 -25 -21 -58 4 -135 18 -54 19 -70 10 -105 -13
-46 -40 -71 -136 -123 -33 -17 -97 -53 -141 -80 -149 -87 -157 -88 -79 -12 39
37 105 99 148 137 77 68 77 68 123 61 l45 -6 -7 98 c-9 133 -25 156 -22 31 l3
-98 -32 6 c-30 6 -40 0 -110 -62 -148 -130 -303 -277 -299 -281 3 -3 33 4 68
15 35 12 143 46 241 77 165 53 177 58 177 81 0 36 20 38 81 11 59 -27 92 -57
108 -100 14 -36 9 -43 -34 -57 -38 -12 -39 -17 -154 -385 -27 -88 -53 -168
-57 -179 -17 -44 15 -12 267 264 155 170 147 154 123 238 l-7 24 100 -4 c91
-3 103 -5 136 -31 20 -15 37 -33 37 -40 0 -6 -14 -26 -32 -44 l-31 -32 26
-128 c15 -70 27 -145 27 -165 0 -21 4 -38 9 -38 5 0 16 -40 25 -88 20 -111 47
-234 51 -230 2 2 18 73 35 158 18 85 36 157 40 160 5 3 8 21 8 40 0 19 12 93
27 163 l27 129 -33 34 c-37 38 -35 51 15 88 22 17 46 22 118 25 103 4 110 -1
95 -58 -9 -34 -8 -42 14 -69 25 -31 276 -308 341 -377 40 -41 48 -34 27 22
-12 30 -120 376 -145 460 -14 48 -18 53 -55 63 -22 6 -39 17 -39 25 0 52 58
116 128 139 59 21 59 21 65 -12 6 -29 34 -40 435 -168 88 -29 93 -35 -148 181
-74 66 -144 128 -155 138 -14 13 -29 17 -52 12 l-33 -6 6 89 c5 62 3 91 -5 96
-7 5 -11 -4 -11 -28 0 -20 -7 -72 -16 -116 -20 -96 -42 -70 186 -209 164 -99
220 -137 190 -128 -8 2 -95 33 -193 68 l-178 64 6 33 c5 28 2 37 -24 61 -27
25 -31 36 -31 78 0 28 9 76 20 109 23 67 19 108 -12 125 -27 14 -106 6 -125
-13 -12 -13 -10 -21 17 -65 31 -50 31 -53 20 -106 -9 -44 -24 -71 -70 -127
-41 -51 -62 -88 -74 -129 -29 -102 -30 -99 119 -361 125 -219 126 -222 121
-227 -2 -2 -46 44 -98 103 -51 59 -119 137 -151 173 -47 55 -56 70 -51 91 4
14 8 64 10 113 3 95 8 108 109 269 56 91 64 148 25 180 -32 26 -78 24 -84 -4
-13 -60 -17 -97 -19 -144 -2 -38 -9 -59 -30 -88 -39 -50 -72 -62 -115 -42 -18
9 -51 16 -72 16 -40 0 -40 0 -40 -39 0 -22 -5 -43 -12 -47 -7 -5 -9 -2 -5 8 3
9 -1 33 -8 54 -9 26 -15 32 -16 19 -1 -14 -4 -10 -12 13 -8 27 -7 35 8 46 13
10 17 21 12 43 -6 30 -5 30 63 50 94 28 101 19 75 -88 -6 -23 -3 -27 19 -33
31 -8 81 15 96 44 15 27 6 51 -36 101 -19 22 -31 46 -27 52 4 7 24 35 44 62
41 54 74 151 62 181 -4 10 -13 24 -21 30 -12 9 -12 15 2 42 23 44 57 64 103
60 35 -3 38 -1 41 23 4 39 -50 83 -92 75 -36 -8 -73 -40 -91 -81 -11 -27 -13
-28 -20 -10 -19 56 -28 67 -61 81 -61 25 -114 -8 -114 -70 0 -25 2 -26 39 -20
46 7 76 -6 96 -45 13 -26 13 -30 -5 -46 -11 -10 -20 -30 -20 -45 0 -39 -57
-118 -121 -167 l-54 -41 -3 35 c-4 45 17 69 70 77 40 6 40 7 23 26 -24 27 -88
27 -114 1 -11 -11 -22 -17 -25 -14 -14 14 -4 44 19 59 20 13 25 25 25 55 0 46
7 48 35 12 30 -36 71 -27 83 20 11 39 1 53 -26 38 -32 -17 -40 -14 -52 24 -17
51 -5 86 36 113 l36 23 -7 62 c-23 203 -43 195 -77 -32 -6 -42 -14 -68 -18
-60 -4 8 -10 100 -14 204 -4 105 -11 215 -17 245 -5 30 -13 177 -18 325 l-8
270 -2 -205z m-39 -420 c-2 -136 -7 -209 -12 -200 -14 22 -18 -140 -5 -220 l5
-35 -13 33 -12 32 -14 -30 c-8 -20 -11 -46 -7 -73 17 -105 18 -159 4 -155 -14
5 -17 151 -8 403 l4 110 6 -125 c5 -115 6 -106 10 105 2 158 6 208 10 160 6
-64 7 -61 8 46 1 64 5 138 9 165 12 91 18 8 15 -216z m-22 -520 c4 0 7 -24 7
-52 -1 -29 2 -66 6 -83 7 -26 7 -28 -6 -15 -11 11 -16 48 -19 130 -3 63 -3 94
-1 68 2 -27 8 -48 13 -48z m370 -159 c0 -29 -29 -91 -62 -132 -38 -48 -91 -84
-157 -109 -49 -19 -51 -19 -51 -2 0 13 12 23 40 31 55 16 173 128 197 186 19
47 33 58 33 26z m-363 -83 c-3 -8 -6 -5 -6 6 -1 11 2 17 5 13 3 -3 4 -12 1
-19z m29 -30 l-16 -22 0 29 c0 23 3 27 10 15 8 -12 10 -10 11 10 1 17 3 19 6
8 2 -10 -3 -28 -11 -40z m79 -178 c3 -5 1 -10 -4 -10 -6 0 -11 5 -11 10 0 6 2
10 4 10 3 0 8 -4 11 -10z m-178 -152 c-3 -7 -5 -2 -5 12 0 14 2 19 5 13 2 -7
2 -19 0 -25z m154 -138 l-16 -65 -3 47 c-2 33 2 52 14 67 10 11 19 19 20 18 1
-1 -5 -31 -15 -67z m-121 8 c-1 -58 -13 -50 -23 15 -4 28 -2 37 9 37 10 0 14
-13 14 -52z m40 -104 c0 -8 -4 -12 -10 -9 -5 3 -10 10 -10 16 0 5 5 9 10 9 6
0 10 -7 10 -16z m17 -6 c-3 -8 -6 -5 -6 6 -1 11 2 17 5 13 3 -3 4 -12 1 -19z
m-12 -205 c0 -98 3 -214 7 -258 4 -44 4 -98 0 -120 -7 -36 -10 -28 -35 100
-15 77 -32 154 -37 170 -25 81 -38 169 -27 192 17 38 27 26 28 -34 1 -70 5
-61 15 32 5 54 9 64 15 45 7 -24 7 -24 8 6 1 29 8 44 20 44 3 0 6 -80 6 -177z"/>
<path d="M1182 755 c0 -16 2 -22 5 -12 2 9 2 23 0 30 -3 6 -5 -1 -5 -18z"/>
<path d="M1160 685 c0 -11 5 -27 10 -35 8 -12 10 -12 10 5 0 11 -5 27 -10 35
-8 12 -10 12 -10 -5z"/>
<path d="M1551 2824 c0 -11 3 -14 6 -6 3 7 2 16 -1 19 -3 4 -6 -2 -5 -13z"/>
</g>
</svg>
