<?xml version="1.0" standalone="no"?>
<!DOCTYPE svg PUBLIC "-//W3C//DTD SVG 20010904//EN"
 "http://www.w3.org/TR/2001/REC-SVG-20010904/DTD/svg10.dtd">
<svg version="1.0" xmlns="http://www.w3.org/2000/svg"
 width="244.000000pt" height="305.000000pt" viewBox="0 0 244.000000 305.000000"
 preserveAspectRatio="xMidYMid meet">
<metadata>
Created by potrace 1.16, written by Peter Selinger 2001-2019
</metadata>
<g transform="translate(0.000000,305.000000) scale(0.100000,-0.100000)"
fill="#000000" stroke="none">
<path d="M906 2902 c-12 -20 -57 -269 -71 -393 -20 -176 -32 -589 -18 -589 6
0 30 -16 54 -35 l42 -36 26 24 c14 14 36 30 49 36 21 11 22 16 22 154 0 242
-18 454 -57 670 -20 117 -28 105 -9 -14 29 -185 45 -357 52 -560 l7 -206 -39
-24 c-22 -13 -43 -25 -47 -27 -4 -2 -7 224 -5 502 2 278 2 506 1 506 -1 0 -4
-4 -7 -8z"/>
<path d="M1532 2803 c-45 -205 -72 -478 -72 -735 0 -143 1 -148 23 -159 12 -6
34 -22 48 -36 l26 -24 41 35 c23 19 47 36 54 38 9 3 9 64 0 274 -12 253 -26
395 -53 542 -20 112 -21 58 0 -84 11 -77 22 -162 25 -189 12 -97 26 -458 20
-489 -4 -21 -18 -39 -41 -54 -20 -12 -37 -21 -40 -19 -6 7 -3 916 3 958 4 23
3 39 -3 39 -5 0 -19 -44 -31 -97z"/>
<path d="M921 2844 c0 -11 3 -14 6 -6 3 7 2 16 -1 19 -3 4 -6 -2 -5 -13z"/>
<path d="M1137 2678 c-4 -95 -10 -290 -14 -433 -5 -172 -9 -244 -14 -211 -4
26 -10 55 -14 65 -11 28 -23 -7 -36 -108 l-12 -93 31 -28 c27 -25 30 -33 25
-65 -4 -26 -2 -40 8 -46 12 -7 11 -11 -2 -25 -14 -13 -21 -14 -39 -4 -32 17
-46 0 -29 -36 23 -45 44 -52 75 -24 l27 25 -6 -25 c-4 -14 -7 -40 -7 -57 0
-25 -4 -33 -18 -33 -10 0 -27 -7 -40 -15 -18 -13 -20 -19 -10 -35 16 -26 3
-37 -20 -17 -24 22 -62 98 -62 124 0 11 -7 26 -15 33 -22 19 -18 48 11 77 22
22 31 25 70 19 43 -5 44 -5 44 22 0 93 -129 106 -161 17 -13 -35 -29 -47 -29
-21 0 24 -49 74 -80 81 -41 9 -87 -17 -95 -56 -9 -39 -3 -44 45 -40 33 2 45
-3 70 -27 32 -33 40 -76 15 -86 -35 -13 -4 -128 59 -216 20 -28 36 -53 36 -56
0 -3 -16 -26 -35 -51 -35 -45 -41 -66 -29 -98 10 -24 62 -48 91 -40 23 5 24 9
17 43 -10 52 -8 83 7 93 17 10 69 -20 69 -41 0 -12 -2 -13 -9 -1 -9 14 -31 7
-31 -11 0 -35 -34 -120 -53 -129 -49 -27 -129 56 -127 132 2 52 -9 127 -22
152 -12 23 -60 22 -83 -3 -29 -32 -16 -102 33 -182 90 -146 99 -172 105 -297
l5 -115 -123 -150 c-123 -151 -165 -197 -165 -180 0 5 7 19 15 31 9 12 64 111
123 220 105 195 107 199 106 263 -1 75 -21 122 -90 210 -72 93 -82 152 -38
228 l27 45 -23 19 c-31 25 -94 24 -120 -2 -25 -25 -25 -38 1 -127 27 -90 21
-152 -18 -183 -21 -16 -24 -25 -19 -53 l6 -34 -67 -26 c-184 -70 -287 -106
-291 -103 -2 3 25 22 60 44 214 136 318 208 318 222 -1 8 -7 42 -15 75 -8 33
-15 77 -15 98 0 21 -5 37 -11 37 -9 0 -10 -26 -6 -91 l6 -90 -30 6 c-34 8 -18
20 -271 -219 -76 -71 -136 -131 -134 -133 2 -2 77 21 167 52 90 31 197 68 237
82 63 22 72 28 72 49 0 31 18 38 56 24 53 -20 101 -60 119 -100 22 -48 18 -60
-25 -74 -32 -10 -36 -16 -56 -86 -12 -41 -42 -142 -68 -225 -64 -203 -78 -256
-71 -263 3 -3 20 12 38 33 17 22 79 93 137 160 229 262 214 241 201 284 -6 21
-11 43 -11 50 0 14 166 15 175 1 5 -8 -15 -328 -29 -465 l-4 -40 13 40 c7 22
11 56 8 75 -2 20 -1 30 4 23 4 -6 9 20 10 60 2 40 7 88 13 107 8 30 9 25 6
-35 -2 -38 -1 -61 1 -50 11 46 21 31 38 -57 16 -88 67 -342 83 -418 7 -32 9
-28 25 55 10 50 31 153 47 230 16 77 32 160 35 183 4 24 11 40 15 35 5 -4 18
-51 29 -103 11 -52 25 -108 30 -125 9 -29 9 -29 10 12 1 23 -4 45 -10 48 -6 4
-8 29 -5 63 3 34 2 45 -2 27 -6 -23 -12 -1 -27 100 -28 195 -30 225 -12 225 9
0 17 5 19 10 4 12 164 18 174 7 4 -4 1 -27 -6 -51 l-12 -45 128 -148 c220
-253 269 -306 259 -278 -4 11 -31 103 -61 205 -108 363 -102 348 -140 360 -38
13 -43 33 -20 78 20 37 54 67 100 86 54 23 66 21 66 -11 0 -27 5 -30 227 -105
125 -42 230 -75 233 -72 2 3 -18 26 -45 52 -28 25 -108 102 -179 170 -122 117
-131 123 -161 118 l-33 -6 5 92 c5 121 -12 96 -21 -29 l-7 -93 43 6 c38 4 47
1 78 -26 60 -54 239 -230 234 -230 -14 0 -93 45 -222 124 -96 59 -147 98 -157
117 -19 35 -18 102 0 154 22 60 19 101 -7 119 -29 20 -77 20 -106 0 -28 -19
-28 -32 3 -74 44 -60 29 -130 -49 -230 -60 -77 -66 -91 -65 -157 1 -79 8 -93
59 -112 50 -19 44 -5 126 -275 53 -175 61 -216 32 -159 -13 25 -68 124 -217
392 -59 105 -61 133 -19 217 19 38 51 96 70 130 41 72 54 124 37 156 -16 30
-28 38 -61 38 -22 0 -29 -5 -33 -27 -3 -16 -10 -47 -15 -70 -5 -23 -7 -56 -4
-72 14 -68 -88 -167 -130 -126 -26 26 -20 48 11 42 35 -7 68 9 82 40 17 36 14
46 -24 96 -19 25 -35 49 -35 53 0 3 16 28 36 55 35 48 74 141 74 177 0 11 -9
29 -20 42 -19 22 -19 25 -3 49 31 49 55 63 96 58 36 -5 37 -5 37 29 0 85 -132
88 -163 3 -14 -35 -25 -37 -33 -5 -22 91 -164 87 -164 -4 0 -29 1 -30 43 -24
36 5 46 2 70 -21 30 -28 35 -56 13 -74 -8 -7 -17 -30 -21 -51 -4 -22 -21 -59
-38 -82 l-32 -43 -3 30 c-5 39 -19 55 -48 55 -20 0 -24 5 -24 33 0 17 -3 43
-7 56 l-6 24 31 -23 c36 -27 53 -19 71 30 11 32 -2 51 -22 31 -18 -18 -45 -13
-52 10 -4 12 -2 26 4 32 6 6 11 28 11 49 0 31 5 41 25 50 18 8 25 19 25 39 0
46 -22 183 -30 193 -10 10 -30 -56 -30 -96 0 -16 -4 -28 -10 -28 -5 0 -10 -9
-10 -19 0 -11 -3 -28 -7 -38 -5 -10 -10 189 -13 442 l-5 460 -9 -255 -9 -255
-17 100 c-10 55 -23 120 -30 145 l-12 45 -14 -45 c-31 -101 -55 -255 -63 -405
-7 -134 -9 -90 -9 263 0 233 -2 425 -4 428 -3 2 -8 -73 -11 -168z m137 -343
c15 -110 24 -447 13 -475 -3 -8 -7 -21 -9 -28 -2 -7 -3 51 -2 130 1 120 0 129
-5 58 l-7 -85 -4 105 c-3 72 -6 26 -10 -150 -5 -211 -6 -179 -6 190 0 245 3
427 7 405 5 -22 15 -89 23 -150z m58 -477 c-6 -6 -7 0 -4 19 5 21 7 23 10 9 2
-10 0 -22 -6 -28z m-32 -129 c8 -57 0 -97 -21 -102 -16 -4 -19 0 -18 26 0 26
2 28 8 13 7 -18 8 -18 14 5 4 13 7 35 7 49 0 20 -2 22 -10 10 -8 -12 -10 -9
-10 13 0 40 24 29 30 -14z m-361 -154 c11 -24 41 -67 66 -94 32 -34 46 -57 43
-71 -3 -20 -8 -17 -51 26 -47 48 -79 103 -91 157 -10 43 11 32 33 -18z m616
-15 c-8 -24 -26 -57 -39 -74 -30 -40 -88 -96 -98 -96 -22 0 -3 38 43 87 27 29
59 74 70 99 27 59 46 46 24 -16z m-362 14 c-7 -19 -23 -7 -23 18 0 17 3 18 14
8 8 -6 12 -18 9 -26z m98 -7 c-7 -7 -12 -5 -17 7 -4 11 -1 21 7 27 17 11 26
-18 10 -34z m-157 -54 c3 -10 8 -35 12 -56 l7 -39 -27 27 c-29 29 -37 85 -12
85 8 0 17 -8 20 -17z m103 -30 c-3 -10 -5 -2 -5 17 0 19 2 27 5 18 2 -10 2
-26 0 -35z m133 15 c-1 -24 -8 -38 -27 -52 l-26 -19 7 39 c13 66 46 89 46 32z
m-303 -100 c-3 -8 -6 -5 -6 6 -1 11 2 17 5 13 3 -3 4 -12 1 -19z m30 -20 c-3
-8 -6 -5 -6 6 -1 11 2 17 5 13 3 -3 4 -12 1 -19z m280 0 c-3 -8 -6 -5 -6 6 -1
11 2 17 5 13 3 -3 4 -12 1 -19z m-37 -14 c0 -16 -16 -19 -25 -4 -8 13 4 32 16
25 5 -4 9 -13 9 -21z m-182 5 c-2 -6 -8 -10 -13 -10 -5 0 -11 4 -13 10 -2 6 4
11 13 11 9 0 15 -5 13 -11z m324 -56 c4 -37 -23 -143 -38 -143 -15 0 -32 40
-37 91 -2 24 -2 34 0 22 3 -13 9 -20 18 -17 8 4 15 -5 20 -26 4 -17 9 -29 12
-27 8 8 -19 87 -28 81 -5 -3 -9 4 -9 15 0 12 8 21 23 24 12 2 25 5 29 6 4 0 8
-11 10 -26z m-185 -5 c-3 -8 -6 -5 -6 6 -1 11 2 17 5 13 3 -3 4 -12 1 -19z
m68 -78 l-14 -55 6 55 c5 55 14 83 20 65 1 -6 -4 -35 -12 -65z m-258 28 c-3
-7 -5 -2 -5 12 0 14 2 19 5 13 2 -7 2 -19 0 -25z m-42 -40 c-7 -31 -25 -63
-25 -43 0 12 23 75 28 75 2 0 1 -15 -3 -32z m52 -20 c-3 -7 -5 -2 -5 12 0 14
2 19 5 13 2 -7 2 -19 0 -25z m70 -5 c2 -5 -4 -16 -12 -23 -14 -12 -18 -11 -26
1 -5 8 -9 19 -9 25 0 13 43 11 47 -3z m143 2 c0 -5 -4 -16 -9 -24 -8 -12 -12
-12 -25 -2 -24 20 -19 39 9 37 14 0 25 -5 25 -11z m-203 -37 c-3 -8 -6 -5 -6
6 -1 11 2 17 5 13 3 -3 4 -12 1 -19z m110 -240 c-3 -8 -6 -5 -6 6 -1 11 2 17
5 13 3 -3 4 -12 1 -19z m-113 -97 c-15 -15 -16 -13 -10 28 9 61 20 74 24 27 2
-27 -2 -44 -14 -55z m41 49 c3 -5 1 -10 -4 -10 -6 0 -11 5 -11 10 0 6 2 10 4
10 3 0 8 -4 11 -10z m155 0 c0 -5 -5 -10 -11 -10 -5 0 -7 5 -4 10 3 6 8 10 11
10 2 0 4 -4 4 -10z m-21 -35 c41 -47 40 -66 -6 -300 -37 -184 -38 -188 -45
-135 -8 74 -10 455 -1 463 12 12 21 7 52 -28z"/>
<path d="M1251 834 c0 -11 3 -14 6 -6 3 7 2 16 -1 19 -3 4 -6 -2 -5 -13z"/>
<path d="M1263 755 c0 -27 2 -38 4 -22 2 15 2 37 0 50 -2 12 -4 0 -4 -28z"/>
<path d="M1253 570 c0 -41 2 -58 4 -37 2 20 2 54 0 75 -2 20 -4 3 -4 -38z"/>
<path d="M1333 2655 c0 -22 2 -30 4 -17 2 12 2 30 0 40 -3 9 -5 -1 -4 -23z"/>
<path d="M1163 2575 c0 -27 2 -38 4 -22 2 15 2 37 0 50 -2 12 -4 0 -4 -28z"/>
<path d="M1344 2320 c0 -58 1 -81 3 -52 2 28 2 76 0 105 -2 28 -3 5 -3 -53z"/>
<path d="M1382 830 c0 -19 2 -27 5 -17 2 9 2 25 0 35 -3 9 -5 1 -5 -18z"/>
<path d="M1392 710 c0 -19 2 -27 5 -17 2 9 2 25 0 35 -3 9 -5 1 -5 -18z"/>
<path d="M1091 604 c0 -11 3 -14 6 -6 3 7 2 16 -1 19 -3 4 -6 -2 -5 -13z"/>
</g>
</svg>
