<?xml version="1.0" standalone="no"?>
<!DOCTYPE svg PUBLIC "-//W3C//DTD SVG 20010904//EN"
 "http://www.w3.org/TR/2001/REC-SVG-20010904/DTD/svg10.dtd">
<svg version="1.0" xmlns="http://www.w3.org/2000/svg"
 width="244.000000pt" height="305.000000pt" viewBox="0 0 244.000000 305.000000"
 preserveAspectRatio="xMidYMid meet">
<metadata>
Created by potrace 1.16, written by Peter Selinger 2001-2019
</metadata>
<g transform="translate(0.000000,305.000000) scale(0.100000,-0.100000)"
fill="#000000" stroke="none">
<path d="M922 2797 c-41 -224 -59 -422 -61 -687 l-1 -185 35 -23 c19 -12 35
-27 35 -32 0 -18 26 -10 50 15 28 30 41 31 65 5 18 -20 17 -20 -13 -20 -35 0
-72 -39 -72 -76 0 -35 -17 -29 -30 11 -13 40 -43 65 -78 65 -31 0 -72 -43 -72
-75 0 -22 4 -25 38 -25 60 0 118 -72 85 -105 -12 -12 -14 -28 -10 -68 6 -57
26 -243 29 -267 0 -8 0 -28 -2 -45 -2 -26 -4 -24 -11 15 -4 25 -8 67 -8 93 -1
27 -5 46 -10 42 -5 -3 -12 -1 -16 5 -11 17 -51 11 -71 -11 -22 -25 -22 -95 1
-140 9 -17 15 -38 13 -47 -7 -32 -58 61 -65 116 -4 40 -1 59 16 92 11 22 21
47 21 55 0 21 -36 37 -78 33 -29 -2 -40 -9 -50 -30 -11 -23 -10 -39 8 -104 30
-115 24 -166 -22 -204 -19 -15 -21 -21 -11 -43 15 -32 14 -32 -102 -81 -49
-22 -114 -49 -144 -62 -29 -13 -56 -24 -58 -24 -12 0 24 34 66 63 25 17 95 67
155 111 l108 81 -6 45 c-4 25 -10 76 -15 113 -13 104 -24 94 -19 -16 l5 -98
-28 6 c-33 7 -15 24 -218 -192 -84 -90 -149 -163 -143 -163 6 0 68 22 139 50
302 116 289 110 295 146 3 20 6 21 38 10 19 -6 36 -19 38 -29 2 -10 -13 -47
-33 -83 -20 -37 -34 -68 -33 -70 2 -2 32 15 67 37 64 41 81 42 81 8 0 -13 -11
-25 -33 -34 l-33 -14 -73 -276 c-66 -250 -79 -324 -47 -271 6 10 49 68 96 128
93 121 126 164 166 221 15 20 28 36 30 34 2 -2 -8 -79 -21 -172 -14 -93 -24
-176 -23 -184 2 -8 45 79 96 194 88 198 93 212 87 258 -7 48 -7 49 16 42 75
-22 97 -70 54 -115 l-27 -28 26 -149 c14 -81 40 -224 56 -317 17 -93 30 -173
30 -179 0 -49 37 142 101 527 19 114 19 120 2 140 -10 12 -22 24 -27 27 -5 4
-6 19 -2 33 7 27 34 49 75 61 24 7 24 7 18 -52 -4 -33 -3 -64 2 -69 5 -5 39
-79 76 -164 70 -161 129 -287 121 -258 -3 9 -8 45 -12 80 -6 45 -9 56 -14 39
-4 -19 -14 3 -38 90 -18 62 -46 159 -62 214 -37 124 -38 139 -7 130 33 -11 38
-18 46 -76 20 -134 55 -328 59 -325 2 3 -4 54 -13 114 -10 61 -16 115 -13 122
2 6 38 -36 80 -92 156 -206 208 -273 219 -277 7 -2 9 1 5 7 -3 6 -20 64 -36
129 -17 65 -49 186 -72 270 -38 141 -43 152 -69 164 -21 8 -29 18 -29 35 0 13
4 24 8 24 4 0 42 -22 83 -49 41 -26 75 -44 77 -40 2 5 -17 45 -42 90 -25 45
-46 84 -46 88 0 10 46 31 65 31 10 0 15 -10 15 -29 0 -22 6 -31 23 -37 23 -7
137 -50 291 -110 49 -19 90 -33 92 -31 2 2 -69 81 -157 176 -148 159 -163 172
-189 166 l-27 -6 3 98 c2 69 1 88 -5 64 -5 -18 -11 -68 -12 -110 l-4 -76 37 3
c34 3 41 -2 106 -70 125 -132 170 -183 166 -187 -2 -3 -76 44 -164 103 -145
99 -161 112 -176 152 -16 42 -16 47 5 128 27 110 15 146 -49 146 -29 0 -70
-22 -70 -36 0 -8 9 -28 20 -46 27 -44 26 -119 -1 -175 -34 -69 -60 -49 -28 22
36 78 17 137 -48 149 l-33 6 -2 -63 c-1 -34 -3 -81 -4 -105 -1 -55 -13 -67
-16 -16 -2 49 -2 50 12 221 10 128 9 145 -6 168 -15 23 -15 27 0 50 24 37 62
58 91 51 23 -6 25 -4 25 27 0 89 -117 89 -145 0 -9 -33 -22 -28 -29 12 -9 47
-32 68 -68 61 -31 -6 -33 -4 -18 25 15 27 38 24 71 -12 l29 -31 44 39 45 38
-1 135 -2 135 -3 -122 -4 -121 -34 -26 c-18 -14 -36 -26 -40 -26 -3 0 -4 223
-3 495 2 272 0 495 -4 495 -5 0 -8 -3 -8 -6 0 -3 -11 -76 -25 -162 -14 -86
-29 -186 -35 -222 -5 -36 -12 -177 -15 -314 -5 -197 -9 -254 -21 -270 -13 -19
-14 37 -12 487 2 279 0 493 -4 475 -15 -74 -38 -386 -44 -608 -3 -129 -9 -260
-13 -290 l-7 -55 -8 88 c-4 48 -12 87 -17 87 -5 0 -9 28 -9 63 0 124 -49 451
-65 435 -2 -2 -13 -46 -24 -98 -24 -112 -41 -250 -41 -337 0 -35 -4 -63 -10
-63 -5 0 -10 -26 -11 -57 -1 -32 -4 -69 -8 -83 -10 -34 -20 93 -23 274 l-2
141 -6 -130 c-3 -71 -9 -137 -13 -146 -4 -9 -12 -45 -16 -80 -6 -41 -9 96 -9
390 -1 249 -3 456 -6 459 -3 3 -6 -3 -6 -14 0 -10 -7 -98 -15 -194 -8 -96 -15
-188 -16 -205 -1 -16 -10 35 -20 114 -20 154 -44 279 -33 171 3 -30 12 -102
20 -160 8 -58 17 -222 21 -365 l6 -260 -37 -28 -36 -28 -1 43 c-4 129 2 889 6
920 3 20 2 39 -4 42 -5 3 -18 -45 -29 -107z m337 -513 c8 -140 8 -143 11 -59
l3 90 7 -70 c4 -38 7 -140 7 -225 -1 -144 -1 -148 -7 -55 -5 79 -7 56 -8 -113
-2 -175 -5 -216 -17 -228 -13 -14 -15 32 -14 413 1 235 3 421 6 412 2 -8 7
-83 12 -165z m-159 -424 c0 -5 -4 -10 -10 -10 -5 0 -10 5 -10 10 0 6 5 10 10
10 6 0 10 -4 10 -10z m300 6 c0 -11 -19 -15 -25 -6 -3 5 1 10 9 10 9 0 16 -2
16 -4z m-30 -132 c0 -19 -16 -18 -24 2 -11 27 -7 37 9 24 8 -7 15 -19 15 -26z
m-240 19 c0 -5 -4 -15 -10 -23 -11 -18 -25 -7 -17 15 6 15 27 21 27 8z m360
-53 c0 -10 -6 -23 -14 -29 -7 -6 -17 -30 -22 -54 -7 -39 -8 -40 -11 -12 -2 17
-9 40 -15 52 -11 23 -4 69 15 91 9 12 14 10 29 -8 10 -12 18 -30 18 -40z
m-450 25 c6 -15 6 -55 1 -97 -7 -68 -8 -71 -19 -45 -7 16 -12 39 -12 51 0 13
-7 29 -15 36 -18 15 -19 34 -3 60 17 27 37 25 48 -5z m252 -55 c3 -17 1 -33
-4 -36 -4 -3 -8 11 -8 30 0 44 6 47 12 6z m-139 -29 c6 -16 19 -32 29 -35 11
-2 26 -23 36 -47 l16 -42 18 43 c10 24 26 44 38 47 11 3 20 13 20 22 0 18 18
41 32 41 17 0 28 -39 18 -64 -8 -22 -16 -26 -49 -26 -36 0 -40 -3 -55 -40 -9
-22 -16 -48 -17 -58 -1 -9 -7 2 -14 24 -21 68 -34 86 -56 79 -31 -10 -59 4
-59 30 0 58 25 73 43 26z m-182 -58 c10 -32 41 -85 59 -103 25 -24 60 -74 60
-86 0 -22 -38 1 -52 31 -6 14 -19 27 -28 30 -11 3 -21 20 -24 40 -4 19 -11 35
-15 35 -10 0 -31 54 -31 76 0 28 19 13 31 -23z m106 -15 c-2 -13 -4 -5 -4 17
-1 22 1 32 4 23 2 -10 2 -28 0 -40z m318 -28 c-8 -29 -21 -60 -30 -69 -22 -22
-19 2 5 41 11 18 20 51 20 73 1 29 3 36 10 24 6 -10 4 -35 -5 -69z m135 62 c0
-9 -9 -34 -20 -55 -11 -20 -20 -43 -20 -51 0 -8 -10 -22 -21 -30 -12 -8 -27
-25 -33 -37 -6 -12 -19 -27 -28 -33 -30 -19 -31 3 -2 40 58 73 81 110 93 147
13 38 31 50 31 19z m-422 -97 c17 -36 15 -53 -2 -35 -18 19 -30 60 -18 60 5 0
14 -11 20 -25z m212 -15 c-6 -12 -14 -19 -17 -17 -2 3 1 15 7 27 6 12 14 19
17 17 2 -3 -1 -15 -7 -27z m-150 -24 c0 -12 -5 -7 -19 24 -11 24 -11 24 3 6 9
-11 16 -24 16 -30z m-198 -98 c-9 -9 -12 -4 -11 23 0 32 1 33 11 11 8 -17 8
-26 0 -34z m548 23 c0 -17 -4 -33 -10 -36 -6 -4 -10 8 -10 29 0 20 5 36 10 36
6 0 10 -13 10 -29z m-340 -17 c0 -8 -4 -12 -10 -9 -5 3 -10 13 -10 21 0 8 5
12 10 9 6 -3 10 -13 10 -21z m130 1 c0 -8 -7 -15 -15 -15 -16 0 -20 12 -8 23
11 12 23 8 23 -8z m-252 -90 c-4 -36 -1 -51 14 -71 27 -34 43 -18 39 41 l-3
45 34 -1 c18 -1 25 -3 16 -6 -29 -7 -24 -61 7 -73 18 -7 25 -17 25 -36 0 -22
-3 -25 -22 -20 -13 3 -40 6 -61 6 -34 0 -40 4 -53 35 -20 50 -18 125 4 125 3
0 2 -20 0 -45z m374 8 c4 -47 -11 -114 -26 -118 -6 -2 -37 -6 -68 -8 l-58 -6
0 29 c0 22 5 29 23 32 29 4 36 47 11 65 -16 12 -15 13 14 13 32 0 32 -1 30
-45 -2 -61 13 -75 41 -38 19 23 21 35 16 70 -4 26 -2 43 4 43 5 0 11 -17 13
-37z m208 -82 c-12 -23 -30 -36 -30 -22 0 21 13 41 26 41 11 0 12 -4 4 -19z
m-183 -43 c-3 -8 -6 -5 -6 6 -1 11 2 17 5 13 3 -3 4 -12 1 -19z m-567 -40 c0
-14 -18 -9 -24 8 -11 28 -6 39 9 20 8 -11 15 -23 15 -28z m849 -70 l32 -63
-45 48 c-46 49 -52 58 -39 70 13 13 20 6 52 -55z m-816 -106 l5 -117 -126
-172 c-69 -95 -127 -171 -130 -169 -2 2 31 75 73 163 148 306 156 325 147 374
-11 55 -5 80 13 56 7 -10 14 -66 18 -135z m661 126 c18 -100 20 -102 63 -123
40 -19 42 -23 62 -100 12 -44 35 -129 51 -190 17 -60 33 -123 35 -140 3 -16
-48 79 -114 212 -113 230 -142 309 -127 348 8 22 25 18 30 -7z m-779 2 c9 -14
-9 -34 -51 -59 -37 -22 -36 -15 6 37 27 34 35 38 45 22z m453 -127 c-5 -21
-12 -40 -14 -42 -6 -7 -33 32 -34 48 0 10 4 9 14 -5 14 -18 15 -18 25 9 15 40
21 33 9 -10z m-202 -39 c4 -14 4 -40 1 -58 -6 -38 -127 -329 -134 -322 -2 2 4
35 15 73 11 37 29 102 40 143 48 172 54 190 63 190 5 0 12 -11 15 -26z m-99
-6 c-3 -8 -6 -5 -6 6 -1 11 2 17 5 13 3 -3 4 -12 1 -19z m310 -338 l-24 -215
-2 270 -1 270 26 -55 25 -56 -24 -214z m47 128 c-30 -167 -33 -176 -26 -78 9
131 9 181 -2 210 -8 22 -6 22 18 -7 l27 -32 -17 -93z m-37 -210 c-3 -7 -5 -2
-5 12 0 14 2 19 5 13 2 -7 2 -19 0 -25z"/>
<path d="M1532 2830 c0 -14 2 -19 5 -12 2 6 2 18 0 25 -3 6 -5 1 -5 -13z"/>
<path d="M1412 2800 c0 -14 2 -19 5 -12 2 6 2 18 0 25 -3 6 -5 1 -5 -13z"/>
<path d="M1542 2775 c0 -16 4 -43 8 -60 11 -42 11 -1 1 50 -7 34 -9 35 -9 10z"/>
<path d="M1082 2750 c0 -19 2 -27 5 -17 2 9 2 25 0 35 -3 9 -5 1 -5 -18z"/>
<path d="M1423 2695 c0 -22 2 -30 4 -17 2 12 2 30 0 40 -3 9 -5 -1 -4 -23z"/>
<path d="M1093 2645 c0 -22 2 -30 4 -17 2 12 2 30 0 40 -3 9 -5 -1 -4 -23z"/>
<path d="M1563 2635 c0 -22 2 -30 4 -17 2 12 2 30 0 40 -3 9 -5 -1 -4 -23z"/>
<path d="M1433 2570 c0 -30 2 -43 4 -27 2 15 2 39 0 55 -2 15 -4 2 -4 -28z"/>
<path d="M1577 2510 c18 -265 22 -299 17 -150 -3 80 -9 165 -14 190 -6 33 -7
22 -3 -40z"/>
<path d="M1103 2495 c0 -33 2 -45 4 -27 2 18 2 45 0 60 -2 15 -4 0 -4 -33z"/>
</g>
</svg>
