<?xml version="1.0" standalone="no"?>
<!DOCTYPE svg PUBLIC "-//W3C//DTD SVG 20010904//EN"
 "http://www.w3.org/TR/2001/REC-SVG-20010904/DTD/svg10.dtd">
<svg version="1.0" xmlns="http://www.w3.org/2000/svg"
 width="244.000000pt" height="305.000000pt" viewBox="0 0 244.000000 305.000000"
 preserveAspectRatio="xMidYMid meet">
<metadata>
Created by potrace 1.16, written by Peter Selinger 2001-2019
</metadata>
<g transform="translate(0.000000,305.000000) scale(0.100000,-0.100000)"
fill="#000000" stroke="none">
<path d="M881 2875 c-54 -203 -90 -534 -91 -828 l0 -127 28 -11 c15 -6 39 -22
54 -36 l26 -25 22 25 c12 14 36 31 53 38 l30 13 -7 228 c-7 232 -22 392 -52
550 -26 131 -29 98 -5 -49 33 -206 63 -675 44 -698 -13 -16 -71 -55 -83 -55
-7 0 -10 155 -10 482 0 292 4 478 9 473 5 -6 11 -21 14 -35 l4 -25 2 26 c0 15
-5 42 -13 60 l-14 33 -11 -39z"/>
<path d="M1566 2877 c-52 -186 -81 -426 -92 -749 l-7 -207 34 -14 c19 -8 40
-21 48 -30 18 -23 22 -22 81 15 l51 32 -2 185 c-3 240 -36 571 -61 611 -6 10
-7 6 -4 -15 39 -216 70 -696 50 -749 -3 -9 -12 -16 -19 -16 -6 0 -20 -9 -30
-20 -45 -50 -45 -48 -45 443 0 254 4 477 9 494 5 18 6 35 1 38 -4 3 -11 -5
-14 -18z"/>
<path d="M1202 2674 c-1 -120 -7 -219 -17 -265 -16 -81 -35 -333 -35 -464 0
-46 -4 -86 -9 -89 -4 -3 -13 27 -20 67 -35 217 -49 229 -72 61 -14 -95 -14
-94 47 -130 15 -9 19 -23 19 -62 0 -60 -16 -83 -45 -64 -30 19 -40 15 -40 -17
0 -32 22 -61 46 -61 8 0 25 11 38 25 32 34 39 31 31 -14 -6 -34 -4 -40 15 -46
27 -8 54 -50 46 -71 -5 -14 -10 -13 -32 9 -14 14 -35 27 -47 29 -24 4 -77 -17
-77 -31 0 -11 25 -21 49 -21 40 0 64 -52 76 -167 7 -61 6 -62 -19 -69 -15 -3
-31 -14 -35 -23 -12 -22 5 -51 29 -51 13 0 20 -7 20 -19 0 -32 -11 -51 -29
-51 -18 0 -41 -18 -41 -32 0 -4 9 -16 21 -27 12 -11 16 -21 11 -25 -19 -11
-42 25 -42 65 0 39 0 39 -40 39 -21 0 -55 -8 -74 -17 -44 -21 -72 -10 -112 43
-22 29 -29 49 -30 88 -2 67 -14 138 -27 154 -25 32 -91 1 -102 -48 -7 -34 15
-87 90 -210 63 -104 66 -114 69 -205 2 -44 6 -91 10 -105 5 -21 -8 -41 -91
-136 -54 -61 -122 -139 -152 -173 -30 -34 -56 -60 -58 -57 -3 2 22 51 55 108
216 374 216 374 187 474 -18 62 -37 95 -92 156 -66 75 -79 146 -38 206 30 44
32 68 6 82 -29 15 -93 12 -119 -6 -28 -19 -28 -52 -2 -130 11 -32 20 -79 20
-103 0 -37 -5 -48 -35 -76 -33 -30 -35 -34 -24 -59 7 -14 10 -28 8 -29 -9 -8
-350 -127 -362 -127 -12 0 32 39 45 40 4 0 34 17 65 37 32 21 74 47 94 58 101
57 179 112 179 125 0 8 -7 40 -15 70 -8 30 -15 71 -15 90 0 19 -5 42 -11 50
-7 11 -9 -13 -7 -82 l4 -98 -36 6 c-33 4 -41 -1 -130 -82 -52 -48 -137 -125
-188 -172 -51 -46 -91 -87 -88 -89 3 -3 85 20 183 52 97 31 206 66 240 76 54
17 63 23 63 44 0 35 16 39 68 20 57 -21 100 -58 119 -103 17 -40 7 -57 -36
-65 -31 -7 -28 3 -121 -297 -28 -91 -60 -191 -71 -223 -12 -32 -19 -60 -17
-63 3 -2 40 36 84 84 43 48 109 119 145 157 36 39 81 87 100 109 19 21 42 47
51 57 28 29 37 54 27 70 -5 7 -9 26 -9 42 l0 27 89 0 c75 0 93 -3 121 -22 56
-39 59 -53 22 -91 -38 -40 -41 -11 22 -307 19 -91 44 -210 55 -264 12 -55 21
-104 22 -110 2 -26 53 194 79 339 4 22 19 100 34 173 l28 132 -31 35 c-37 43
-37 46 -8 72 39 36 64 43 158 43 l91 0 -6 -27 c-20 -78 -22 -73 65 -168 175
-192 312 -336 316 -331 5 4 -29 118 -82 281 -18 55 -43 134 -55 175 -24 81
-43 110 -70 110 -27 0 -38 21 -29 56 15 55 93 113 157 117 22 2 28 -3 30 -25
3 -24 12 -29 135 -68 73 -23 181 -58 240 -77 60 -19 110 -33 113 -31 4 4 -218
210 -330 306 -44 37 -56 42 -83 37 l-31 -6 4 98 c7 129 -11 103 -20 -30 l-7
-98 45 6 46 7 87 -78 c49 -44 115 -105 148 -138 l60 -58 -85 45 c-47 24 -137
74 -200 111 -154 89 -171 121 -130 241 25 73 25 100 0 125 -34 34 -140 21
-140 -17 0 -10 12 -36 25 -58 42 -67 28 -129 -46 -213 -55 -63 -79 -112 -79
-165 0 -76 15 -102 67 -118 l47 -15 68 -204 c38 -113 67 -212 65 -220 -3 -10
-7 -7 -16 10 -6 14 -24 46 -40 72 -16 25 -40 66 -54 90 -13 23 -60 102 -103
173 -106 176 -106 186 -8 347 82 135 95 178 66 217 -21 28 -65 39 -86 22 -14
-11 -25 -77 -29 -161 -2 -35 -10 -56 -35 -87 -40 -51 -62 -59 -104 -39 -17 9
-51 16 -76 16 -42 0 -44 -1 -38 -24 9 -35 -9 -76 -34 -76 -11 0 -20 5 -20 10
0 6 7 10 15 10 24 0 19 51 -5 57 -24 7 -28 57 -5 79 24 24 18 52 -15 69 -29
15 -30 17 -24 73 12 116 33 156 90 166 38 8 43 20 15 36 -33 17 -83 12 -108
-12 -27 -26 -36 -20 -27 17 4 18 17 30 36 37 28 10 30 13 24 49 -7 45 2 49 32
14 33 -38 58 -32 80 19 15 33 1 59 -20 38 -15 -15 -45 -15 -54 0 -4 6 -7 32
-6 57 0 40 5 50 37 77 l38 31 -8 59 c-10 90 -26 155 -35 149 -4 -3 -13 -35
-20 -72 -25 -143 -32 -173 -41 -173 -5 0 -9 54 -9 123 -1 212 -33 466 -74 581
l-14 40 -8 -35 c-7 -25 -10 10 -14 131 l-6 165 -2 -191z m70 -519 l2 -230 5
170 c5 153 7 163 13 95 4 -41 11 -181 14 -311 l7 -237 -23 -12 -23 -12 5 123
c3 68 3 106 -1 84 l-7 -40 -8 50 c-4 28 -9 196 -11 375 -4 308 -3 321 11 250
10 -51 15 -150 16 -305z m-23 -549 c-9 -8 -10 4 -5 53 3 35 7 76 8 90 1 14 4
-10 5 -53 3 -52 0 -83 -8 -90z m1 -106 c0 -20 -5 -30 -15 -30 -29 0 -18 50 13
59 1 1 2 -12 2 -29z m-60 -482 c0 -20 -4 -40 -10 -43 -6 -4 -10 16 -10 52 0
41 3 54 10 43 5 -8 10 -32 10 -52z m114 -7 c-4 -22 -10 -38 -15 -35 -11 6 -12
88 -2 98 13 13 23 -23 17 -63z m-107 -63 c-3 -8 -6 -5 -6 6 -1 11 2 17 5 13 3
-3 4 -12 1 -19z m40 -30 c-3 -8 -6 -5 -6 6 -1 11 2 17 5 13 3 -3 4 -12 1 -19z
m25 2 c-4 -11 -6 -39 -3 -63 4 -38 5 -39 12 -17 6 15 7 -6 5 -57 -2 -46 0 -83
5 -83 5 0 9 32 9 70 0 39 4 70 8 70 5 0 18 -13 30 -30 l22 -29 -19 -83 c-11
-46 -21 -94 -24 -108 -4 -24 -4 -24 -6 3 0 15 -6 27 -11 27 -6 0 -8 -20 -4
-52 4 -37 -1 -85 -16 -158 -12 -58 -24 -107 -27 -109 -3 -4 3 563 6 627 1 6 5
12 11 12 5 0 6 -9 2 -20z"/>
<path d="M1262 1890 c0 -14 2 -19 5 -12 2 6 2 18 0 25 -3 6 -5 1 -5 -13z"/>
<path d="M1602 2775 c0 -16 2 -22 5 -12 2 9 2 23 0 30 -3 6 -5 -1 -5 -18z"/>
<path d="M745 1860 c-31 -12 -47 -36 -43 -65 3 -25 7 -27 49 -29 51 -2 73 -15
95 -58 13 -26 13 -29 -6 -45 -45 -39 -19 -117 88 -263 11 -15 8 -23 -22 -59
-45 -54 -52 -76 -31 -107 21 -32 57 -48 90 -40 24 6 26 10 20 34 -26 106 -17
118 74 89 44 -13 69 -17 80 -10 26 16 24 32 -6 44 -84 32 -137 66 -173 109
-42 51 -70 106 -70 140 0 32 15 23 29 -17 18 -50 114 -149 174 -179 43 -23 48
-23 54 -7 5 12 -3 24 -27 42 -82 62 -150 148 -150 189 0 13 -9 35 -20 49 -20
25 -20 25 1 54 23 33 56 44 99 35 28 -5 30 -3 30 24 0 33 -29 65 -66 74 -37
10 -77 -14 -98 -58 -18 -36 -21 -38 -30 -21 -37 62 -94 93 -141 75z"/>
<path d="M1435 1855 c-36 -20 -45 -32 -45 -67 0 -27 1 -27 43 -22 36 5 47 2
69 -17 37 -34 44 -65 18 -79 -13 -7 -20 -21 -20 -38 0 -16 -13 -48 -28 -73
-29 -44 -95 -109 -112 -109 -14 0 -43 -48 -36 -59 20 -32 170 87 218 174 31
56 33 58 36 32 4 -35 -37 -107 -91 -160 -35 -34 -96 -69 -160 -91 -21 -7 -19
-25 6 -40 12 -8 33 -5 79 10 35 11 69 19 76 16 15 -5 16 -49 1 -91 -6 -18 -8
-35 -5 -39 14 -13 81 0 103 20 33 31 28 61 -17 114 -36 40 -39 49 -28 64 104
142 136 235 88 260 -29 16 -25 38 16 76 29 28 43 34 80 34 40 0 44 2 44 25 0
39 -33 65 -84 65 -37 0 -48 -5 -70 -31 -14 -17 -26 -37 -26 -45 0 -25 -19 -15
-33 19 -25 58 -72 78 -122 52z"/>
</g>
</svg>
