<?xml version="1.0" standalone="no"?>
<!DOCTYPE svg PUBLIC "-//W3C//DTD SVG 20010904//EN"
 "http://www.w3.org/TR/2001/REC-SVG-20010904/DTD/svg10.dtd">
<svg version="1.0" xmlns="http://www.w3.org/2000/svg"
 width="244.000000pt" height="305.000000pt" viewBox="0 0 244.000000 305.000000"
 preserveAspectRatio="xMidYMid meet">
<metadata>
Created by potrace 1.16, written by Peter Selinger 2001-2019
</metadata>
<g transform="translate(0.000000,305.000000) scale(0.100000,-0.100000)"
fill="#000000" stroke="none">
<path d="M897 2903 c-9 -16 -37 -152 -56 -268 -23 -136 -39 -342 -44 -554 -4
-159 -9 -144 67 -202 l39 -30 31 30 c17 16 41 32 54 36 19 5 22 13 22 58 -1
105 -20 451 -30 535 -14 109 -51 314 -57 309 -2 -3 6 -63 17 -133 29 -176 47
-377 49 -570 l2 -161 -38 -24 c-21 -13 -42 -25 -46 -27 -4 -2 -7 224 -5 502 2
278 2 506 1 506 -1 0 -4 -3 -6 -7z"/>
<path d="M1321 2855 c-2 -27 -3 -216 -3 -420 0 -306 -2 -345 -8 -226 -5 80
-13 154 -18 165 -5 12 -17 61 -26 111 -10 49 -21 96 -25 103 -8 14 -36 -78
-57 -183 -6 -29 -11 16 -19 175 l-12 215 -2 -445 c-2 -322 -5 -438 -13 -420
-6 14 -14 34 -19 45 -5 11 -15 47 -22 80 l-14 60 -12 -30 c-7 -16 -15 -69 -18
-117 -6 -87 -6 -87 21 -99 23 -11 26 -18 26 -59 0 -25 5 -51 10 -56 18 -18
-17 -41 -41 -26 -28 18 -39 15 -39 -13 0 -25 31 -65 50 -65 6 0 23 12 37 26
l26 26 -7 -32 c-3 -18 -6 -45 -6 -61 0 -24 -4 -29 -23 -29 -13 0 -32 -6 -43
-14 -15 -12 -17 -17 -6 -27 6 -7 12 -19 12 -26 0 -46 -73 34 -92 101 -6 23
-17 48 -25 57 -21 25 -16 45 19 74 24 21 40 26 72 24 40 -3 41 -2 38 26 -10
91 -144 90 -166 -1 -7 -27 -26 -33 -26 -8 0 28 -65 84 -98 84 -45 0 -84 -35
-80 -74 3 -28 6 -31 35 -28 36 4 69 -11 95 -42 21 -26 23 -62 3 -70 -38 -14
-3 -137 64 -220 17 -21 31 -43 31 -48 0 -5 -16 -29 -35 -52 -33 -41 -43 -78
-27 -102 14 -20 57 -44 80 -44 29 0 36 19 25 72 -12 54 -7 68 20 68 40 0 49
-13 32 -46 -8 -16 -15 -36 -14 -44 0 -8 4 -5 9 7 5 13 14 23 20 23 5 0 10 10
11 23 0 13 3 16 6 8 3 -7 0 -37 -6 -66 -11 -50 -31 -72 -52 -59 -5 3 -9 1 -9
-4 0 -9 -43 -32 -60 -32 -18 0 -88 71 -98 98 -5 15 -6 36 -2 46 3 11 2 38 -3
60 -5 23 -12 55 -16 71 -9 40 -52 47 -87 14 -42 -40 -30 -82 71 -255 l56 -95
10 -116 c9 -121 7 -132 -33 -174 -18 -19 -185 -214 -225 -264 -43 -51 -42 -28
1 44 85 143 216 390 222 419 11 54 -28 159 -86 230 -85 104 -100 168 -55 234
14 20 25 42 25 49 0 38 -113 55 -143 21 -22 -24 -21 -53 3 -132 30 -98 27
-136 -13 -174 -26 -24 -32 -36 -26 -51 17 -43 33 -34 -241 -131 -154 -54 -144
-44 99 106 187 115 182 108 156 194 -8 27 -15 68 -15 92 0 24 -5 46 -11 50 -9
5 -11 -19 -7 -90 l5 -96 -33 6 c-36 7 -30 11 -194 -141 -41 -38 -111 -103
-155 -142 -43 -40 -75 -73 -70 -73 10 0 63 17 161 51 28 10 115 39 193 64 131
43 141 48 141 71 0 35 21 39 78 14 57 -25 95 -61 110 -107 12 -36 5 -46 -40
-57 -25 -6 -31 -18 -73 -154 -26 -81 -66 -210 -90 -286 -25 -77 -43 -141 -41
-143 2 -2 61 60 132 139 71 79 131 145 134 148 3 3 36 40 73 82 68 77 68 77
58 115 -18 64 -20 63 84 63 92 0 95 -1 96 -22 0 -13 3 -17 6 -10 2 6 9 12 15
12 11 0 10 -13 -17 -219 -18 -136 -15 -182 5 -82 8 38 16 58 20 50 5 -8 31
-129 60 -269 47 -228 60 -285 60 -254 0 5 16 86 36 179 19 94 42 209 51 258 9
48 20 87 25 87 4 0 8 21 8 47 0 71 10 46 26 -68 14 -99 13 -153 -1 -69 -4 23
-9 39 -12 36 -3 -2 5 -48 17 -101 13 -52 25 -94 27 -91 5 4 1 52 -28 380 -7
77 -7 122 -1 128 10 10 170 13 180 4 2 -3 -1 -25 -8 -50 l-12 -44 198 -221
c108 -122 199 -219 201 -217 3 2 -23 94 -57 203 -33 109 -72 235 -86 281 -23
71 -29 83 -52 88 -55 13 -58 34 -17 102 21 35 86 72 132 75 24 2 28 -2 31 -25
3 -25 14 -30 238 -103 130 -42 237 -75 240 -73 2 2 -80 80 -182 174 -172 156
-189 169 -221 167 l-35 -3 7 84 c4 51 3 86 -3 89 -10 7 -22 -69 -22 -150 l0
-53 43 6 42 5 143 -131 c78 -72 142 -133 142 -136 0 -8 -202 105 -351 195 -66
40 -87 118 -54 198 20 46 19 107 -1 127 -30 30 -134 14 -134 -21 0 -10 12 -36
25 -58 42 -67 29 -125 -50 -220 -64 -78 -80 -120 -72 -187 7 -60 17 -73 65
-89 20 -6 40 -14 44 -18 9 -9 140 -423 135 -428 -4 -3 -53 76 -109 177 -14 25
-60 103 -102 175 -97 165 -99 190 -30 310 26 44 58 99 72 123 46 80 26 162
-39 162 -39 0 -49 -24 -53 -124 -4 -89 -14 -113 -70 -165 -22 -21 -31 -23 -54
-15 -22 7 -31 21 -51 81 -13 40 -28 70 -32 67 -5 -3 -9 4 -9 14 0 13 9 21 24
24 42 8 49 -4 42 -70 -4 -33 -3 -63 2 -66 4 -2 26 -1 47 4 74 17 85 69 30 136
-19 23 -35 47 -35 52 0 5 14 27 31 48 45 57 69 109 76 164 5 40 3 51 -11 56
-26 10 -18 48 18 83 28 28 40 32 72 29 36 -3 39 -1 42 24 5 38 -28 68 -76 68
-47 0 -78 -21 -99 -68 -13 -31 -17 -34 -21 -17 -7 32 -42 76 -68 85 -34 13
-82 -7 -102 -44 l-17 -31 -3 35 c-2 19 1 36 7 38 6 2 20 11 31 20 21 17 21 19
7 115 -9 54 -18 101 -22 105 -10 11 -22 -17 -31 -72 -5 -35 -10 46 -16 269 -8
337 -24 645 -27 560z m-47 -498 c9 -65 16 -187 16 -270 0 -84 4 -169 9 -189 6
-25 5 -37 -2 -35 -6 1 -13 -9 -17 -23 -3 -14 -5 38 -4 115 1 104 0 119 -5 60
-6 -78 -6 -77 -13 65 -12 238 -16 436 -8 415 4 -11 15 -73 24 -138z m63 -489
c-3 -7 -5 -2 -5 12 0 14 2 19 5 13 2 -7 2 -19 0 -25z m-52 -98 c14 0 23 -52
17 -104 -3 -23 -10 -36 -23 -39 -16 -4 -19 0 -19 26 0 22 3 28 9 19 7 -11 10
-10 15 3 9 24 7 57 -3 51 -9 -6 -22 43 -20 73 1 9 4 6 6 -6 2 -13 10 -23 18
-23z m148 -3 c35 4 47 0 70 -22 30 -29 35 -56 12 -75 -8 -7 -15 -21 -15 -31 0
-46 -76 -152 -91 -127 -4 7 -4 17 2 24 11 13 -16 40 -46 46 -15 2 -21 14 -27
53 -4 27 -5 51 -3 53 2 2 13 -6 24 -17 12 -12 27 -21 35 -21 20 0 46 39 46 68
0 19 -4 23 -17 17 -40 -17 -53 -17 -59 -1 -9 23 4 52 17 39 6 -6 29 -8 52 -6z
m-508 -183 c17 -40 39 -70 101 -136 24 -26 44 -53 44 -60 0 -8 -3 -9 -8 -3 -4
6 -13 10 -19 10 -7 0 -33 19 -57 43 -44 43 -78 101 -91 155 -10 40 12 34 30
-9z m650 4 c-13 -58 -42 -104 -102 -158 -45 -42 -59 -49 -61 -36 -2 10 19 41
53 76 31 33 65 80 76 105 23 53 44 61 34 13z m-381 -22 c-5 -14 -9 -15 -15 -4
-5 7 -9 22 -9 33 0 17 2 18 15 4 9 -9 13 -23 9 -33z m101 6 c-5 -14 -7 -14
-15 -2 -5 9 -4 20 3 28 14 17 22 0 12 -26z m-160 -75 c19 -47 30 -133 17 -141
-15 -9 -26 14 -13 27 17 17 13 33 -14 58 -16 16 -25 35 -25 57 0 42 17 41 35
-1z m102 -14 c-3 -10 -5 -2 -5 17 0 19 2 27 5 18 2 -10 2 -26 0 -35z m133 18
c0 -18 -10 -41 -25 -57 -24 -26 -25 -26 -25 -5 0 30 27 91 39 91 6 0 11 -13
11 -29z m-273 -123 c-3 -8 -6 -5 -6 6 -1 11 2 17 5 13 3 -3 4 -12 1 -19z m280
0 c-3 -8 -6 -5 -6 6 -1 11 2 17 5 13 3 -3 4 -12 1 -19z m-42 -6 c0 -18 -20
-15 -23 4 -3 10 1 15 10 12 7 -3 13 -10 13 -16z m-38 -64 c-3 -8 -6 -5 -6 6
-1 11 2 17 5 13 3 -3 4 -12 1 -19z m110 -50 c-2 -13 -4 -3 -4 22 0 25 2 35 4
23 2 -13 2 -33 0 -45z m-300 5 c-3 -10 -5 -4 -5 12 0 17 2 24 5 18 2 -7 2 -21
0 -30z m258 -33 l-14 -55 5 50 c6 55 14 85 20 70 2 -5 -3 -35 -11 -65z m-248
-22 c-3 -8 -6 -5 -6 6 -1 11 2 17 5 13 3 -3 4 -12 1 -19z m313 -18 c0 -13 -1
-13 -10 0 -5 8 -10 22 -10 30 0 13 1 13 10 0 5 -8 10 -22 10 -30z m-256 6 c18
-6 19 -8 2 -24 -15 -15 -18 -15 -26 -2 -11 18 -13 60 -2 44 4 -6 16 -14 26
-18z m147 -29 c-14 -14 -47 16 -36 33 6 9 9 9 16 -1 6 -10 10 -9 16 6 7 19 8
18 11 -4 2 -13 -1 -28 -7 -34z m-84 -249 c-3 -8 -6 -5 -6 6 -1 11 2 17 5 13 3
-3 4 -12 1 -19z m118 -59 c7 -43 0 -63 -15 -39 -12 19 -13 80 -1 80 5 0 12
-18 16 -41z m-60 -19 c43 -45 43 -95 0 -305 -21 -99 -40 -182 -42 -185 -3 -3
-1 74 3 170 11 217 11 287 0 323 -11 35 3 35 39 -3z"/>
<path d="M1542 2803 c-50 -227 -71 -435 -73 -718 -1 -142 1 -161 16 -170 10
-5 30 -20 45 -32 30 -25 55 -29 65 -13 4 6 23 21 42 33 l36 23 -2 169 c-2 197
-7 278 -27 430 -18 134 -55 337 -61 332 -2 -3 5 -58 16 -123 34 -196 51 -368
58 -579 l6 -200 -41 -28 c-23 -15 -44 -27 -47 -27 -3 0 -4 225 -3 500 2 275 0
500 -3 500 -3 0 -15 -44 -27 -97z"/>
<path d="M911 2844 c0 -11 3 -14 6 -6 3 7 2 16 -1 19 -3 4 -6 -2 -5 -13z"/>
<path d="M1133 2630 c0 -30 2 -43 4 -27 2 15 2 39 0 55 -2 15 -4 2 -4 -28z"/>
<path d="M1123 2220 c0 -47 2 -66 4 -42 2 23 2 61 0 85 -2 23 -4 4 -4 -43z"/>
<path d="M1123 2015 c0 -22 2 -30 4 -17 2 12 2 30 0 40 -3 9 -5 -1 -4 -23z"/>
<path d="M1011 1204 c0 -11 3 -14 6 -6 3 7 2 16 -1 19 -3 4 -6 -2 -5 -13z"/>
<path d="M1083 820 c0 -25 2 -35 4 -22 2 12 2 32 0 45 -2 12 -4 2 -4 -23z"/>
<path d="M1073 700 c0 -30 2 -43 4 -27 2 15 2 39 0 55 -2 15 -4 2 -4 -28z"/>
<path d="M1361 644 c0 -11 3 -14 6 -6 3 7 2 16 -1 19 -3 4 -6 -2 -5 -13z"/>
<path d="M1062 560 c1 -25 -2 -65 -5 -90 l-6 -45 15 48 c11 35 13 57 6 90
l-10 42 0 -45z"/>
</g>
</svg>
