<?xml version="1.0" standalone="no"?>
<!DOCTYPE svg PUBLIC "-//W3C//DTD SVG 20010904//EN"
 "http://www.w3.org/TR/2001/REC-SVG-20010904/DTD/svg10.dtd">
<svg version="1.0" xmlns="http://www.w3.org/2000/svg"
 width="244.000000pt" height="305.000000pt" viewBox="0 0 244.000000 305.000000"
 preserveAspectRatio="xMidYMid meet">
<metadata>
Created by potrace 1.16, written by Peter Selinger 2001-2019
</metadata>
<g transform="translate(0.000000,305.000000) scale(0.100000,-0.100000)"
fill="#000000" stroke="none">
<path d="M920 2893 c0 -12 -3 -30 -6 -40 -5 -15 -4 -15 5 -3 8 11 11 -120 11
-468 l0 -482 -40 26 -40 27 0 133 c0 166 16 405 36 548 16 119 13 159 -5 49
-27 -168 -32 -240 -46 -615 -5 -141 -5 -147 15 -153 11 -3 34 -18 50 -32 l30
-25 31 26 c36 31 51 32 75 9 16 -17 15 -18 -24 -26 -36 -7 -42 -13 -59 -52
-18 -46 -33 -58 -33 -29 0 9 -16 32 -35 51 -30 30 -40 35 -68 29 -38 -7 -67
-39 -67 -72 0 -22 4 -24 44 -24 38 0 48 -5 75 -35 36 -41 37 -48 15 -70 -18
-18 -18 -30 10 -243 8 -62 12 -120 8 -130 -8 -22 -21 42 -22 113 0 35 -3 46
-10 35 -7 -12 -12 -12 -22 -2 -18 18 -52 15 -71 -6 -23 -25 -22 -94 3 -142 36
-71 16 -86 -25 -19 -39 61 -43 123 -10 183 26 49 26 49 7 69 -25 24 -86 25
-113 1 -23 -21 -24 -49 -3 -121 20 -67 14 -145 -11 -173 -24 -27 -346 -232
-353 -225 -3 3 54 64 127 136 l132 131 41 -7 41 -7 -6 68 c-4 38 -7 86 -7 107
0 26 -4 36 -11 31 -8 -5 -10 -33 -5 -91 l6 -85 -30 7 c-28 6 -40 -3 -206 -169
-97 -97 -175 -178 -172 -181 4 -4 130 38 298 101 52 20 107 40 123 46 19 7 27
17 27 34 0 12 4 25 10 29 11 7 75 -18 84 -34 4 -5 -12 -43 -34 -82 -22 -39
-38 -74 -36 -77 3 -2 35 14 71 38 68 44 72 45 75 20 5 -30 -1 -38 -29 -43 -27
-6 -32 -13 -54 -89 -71 -235 -138 -479 -135 -489 3 -10 86 87 220 259 37 47
80 99 96 114 l28 29 -28 -168 c-15 -92 -27 -179 -27 -193 0 -28 -10 -47 93
170 108 230 108 230 101 282 -5 43 -4 47 14 43 32 -6 60 -24 77 -50 15 -23 15
-26 -15 -64 l-31 -39 24 -123 c26 -131 80 -418 91 -483 3 -21 8 -36 10 -34 2
2 10 41 19 88 8 47 27 148 41 225 14 77 34 185 44 239 l18 99 -29 32 c-15 18
-28 37 -28 42 0 17 54 60 84 67 l29 7 -6 -59 c-4 -32 -3 -63 2 -68 5 -5 27
-49 49 -99 102 -227 152 -329 152 -305 0 14 -13 104 -30 200 -16 96 -27 176
-26 178 2 2 74 -83 161 -188 86 -105 159 -190 161 -187 2 2 -1 19 -6 38 -6 19
-37 131 -70 249 -74 270 -73 269 -110 281 -22 8 -30 17 -30 35 0 13 3 24 8 24
7 -1 68 -35 136 -77 20 -12 36 -18 36 -13 0 5 -22 47 -49 92 -54 90 -53 107 5
111 24 2 29 -2 32 -24 2 -21 12 -29 50 -42 26 -8 99 -34 162 -57 196 -71 223
-80 229 -80 3 0 -73 79 -169 176 -159 159 -178 175 -203 170 l-28 -6 7 90 c5
65 4 90 -5 90 -6 0 -11 -16 -11 -37 -1 -35 -5 -62 -25 -149 -8 -35 -6 -36 230
-198 63 -44 113 -81 112 -83 -5 -5 -103 30 -177 64 -36 16 -84 35 -107 42 -43
14 -52 31 -33 61 7 11 1 22 -20 42 -27 24 -30 33 -30 91 0 36 7 84 15 107 20
57 19 86 -5 110 -34 34 -120 21 -120 -18 0 -9 9 -30 20 -47 27 -41 26 -110 -3
-165 -13 -24 -28 -45 -35 -48 -16 -5 -15 27 3 58 20 34 19 114 -1 134 -8 9
-28 16 -44 16 -16 0 -30 6 -33 13 -4 13 -18 -128 -18 -183 0 -34 0 -34 -10
-10 -8 18 -8 53 0 120 23 202 24 255 7 269 -23 19 -20 36 16 76 26 31 36 36
67 33 35 -3 36 -2 34 32 -2 40 -24 60 -68 60 -36 0 -72 -29 -81 -65 -8 -33
-21 -32 -29 4 -10 45 -42 74 -76 67 -32 -6 -34 -4 -19 25 15 27 34 24 73 -11
l34 -30 19 21 c10 12 31 27 46 35 l28 15 0 142 c0 239 -25 513 -66 722 -20
106 -24 116 -34 90 -5 -11 -9 -27 -9 -35 -1 -13 0 -13 9 0 6 10 10 -151 10
-462 0 -293 -4 -478 -9 -478 -6 0 -22 10 -36 23 l-26 22 0 235 c0 222 9 357
31 495 11 64 13 101 6 94 -3 -2 -12 -63 -21 -134 -9 -72 -20 -139 -25 -150 -5
-11 -11 -139 -15 -284 -5 -207 -9 -268 -20 -285 -13 -18 -15 38 -15 473 0 272
-2 492 -4 490 -10 -11 -38 -379 -46 -618 -5 -146 -13 -277 -19 -291 -8 -21
-10 -17 -11 30 0 30 -7 82 -15 115 -8 33 -15 80 -15 105 0 101 -56 395 -70
369 -15 -29 -51 -238 -60 -350 -5 -64 -14 -136 -19 -160 -6 -24 -11 -66 -11
-94 -2 -67 -18 -31 -19 41 -1 53 -24 103 -35 74 -4 -8 -10 -35 -15 -60 -6 -29
-9 115 -8 402 1 246 -1 439 -5 428 -4 -10 -15 -111 -24 -224 -10 -113 -20
-203 -23 -201 -2 3 -10 58 -18 122 -15 140 -50 324 -64 338 -5 5 -9 1 -9 -12z
m273 -809 c-6 -172 -9 -219 -14 -169 -3 39 -2 135 2 215 5 80 9 158 9 174 0
16 3 27 6 24 3 -3 2 -113 -3 -244z m-103 -230 c0 -8 -4 -12 -10 -9 -5 3 -10
10 -10 16 0 5 5 9 10 9 6 0 10 -7 10 -16z m315 6 c-3 -5 -10 -10 -16 -10 -5 0
-9 5 -9 10 0 6 7 10 16 10 8 0 12 -4 9 -10z m-25 -126 c0 -18 -14 -18 -30 1
-16 19 -3 40 16 24 8 -6 14 -18 14 -25z m-352 -3 c6 -17 8 -63 5 -107 -6 -70
-7 -74 -19 -53 -7 13 -13 38 -14 55 0 17 -7 37 -15 44 -20 16 -19 49 2 72 22
25 29 23 41 -11z m92 15 c0 -15 -18 -31 -26 -23 -7 7 7 37 17 37 5 0 9 -6 9
-14z m366 -13 c18 -24 17 -48 -1 -63 -8 -7 -15 -24 -15 -39 0 -14 -5 -33 -10
-41 -7 -11 -10 -6 -10 22 0 20 -4 40 -10 43 -13 8 -13 36 0 69 11 30 27 33 46
9z m-296 -70 c0 -26 -3 -34 -11 -26 -9 9 -3 63 7 63 2 0 4 -17 4 -37z m-44
-19 c4 -14 17 -29 29 -34 12 -5 30 -24 39 -44 9 -20 19 -36 21 -36 3 0 11 16
20 36 8 20 24 38 34 41 11 3 24 18 30 34 5 16 14 29 18 29 22 -1 34 -20 31
-51 -3 -33 -5 -34 -50 -37 -27 -2 -48 -4 -48 -5 0 -1 -9 -27 -19 -57 l-18 -55
-8 35 c-11 55 -31 80 -64 80 -48 0 -61 9 -61 45 0 30 9 42 32 44 4 1 11 -11
14 -25z m-192 -67 c9 -24 38 -68 65 -98 55 -62 78 -99 61 -99 -17 0 -110 101
-110 118 0 9 -9 25 -20 37 -22 23 -38 85 -23 85 6 0 18 -19 27 -43z m113 -4
c-3 -10 -5 -2 -5 17 0 19 2 27 5 18 2 -10 2 -26 0 -35z m473 23 c0 -48 -105
-206 -137 -206 -21 0 -15 12 42 83 30 37 60 85 66 107 14 45 29 53 29 16z
m-133 -23 c-3 -10 -5 -4 -5 12 0 17 2 24 5 18 2 -7 2 -21 0 -30z m-298 -84 c6
-17 6 -29 1 -29 -11 0 -40 52 -40 71 0 20 27 -9 39 -42z m291 36 c0 -14 -32
-66 -37 -61 -8 7 17 66 28 66 5 0 9 -2 9 -5z m-230 -56 c0 -18 -10 -8 -25 24
l-16 32 21 -24 c11 -13 20 -27 20 -32z m151 14 c-8 -15 -10 -15 -11 -2 0 17
10 32 18 25 2 -3 -1 -13 -7 -23z m208 -105 c0 -33 -2 -38 -9 -23 -12 28 -12
65 0 65 6 0 10 -19 9 -42z m-569 6 c0 -14 -4 -23 -10 -19 -5 3 -10 15 -10 26
0 10 5 19 10 19 6 0 10 -12 10 -26z m220 -10 c0 -16 -16 -19 -25 -4 -8 13 4
32 16 25 5 -4 9 -13 9 -21z m130 -8 c-14 -14 -22 -2 -14 18 5 14 9 15 15 4 4
-7 4 -17 -1 -22z m-260 -89 c0 -41 5 -58 19 -71 31 -28 44 -11 36 45 l-7 49
39 -1 c33 0 35 -1 15 -10 -33 -13 -27 -61 8 -69 18 -4 25 -12 25 -30 0 -14 -6
-25 -12 -24 -7 1 -35 2 -63 3 -44 1 -51 4 -65 31 -17 32 -21 130 -5 130 6 0
10 -24 10 -53z m392 26 c5 -41 -8 -103 -23 -118 -8 -7 -41 -15 -74 -17 -58 -3
-60 -2 -60 22 0 18 7 26 25 30 35 8 41 57 8 69 -21 8 -20 8 11 13 38 6 47 -7
37 -52 -12 -62 22 -82 50 -28 11 21 14 43 10 70 -4 21 -2 38 3 38 5 0 11 -12
13 -27z m-542 -67 c0 -3 -4 -8 -10 -11 -5 -3 -10 -1 -10 4 0 6 5 11 10 11 6 0
10 -2 10 -4z m755 -35 c-7 -23 -25 -29 -25 -8 0 14 21 39 28 33 2 -3 1 -14 -3
-25z m-795 -52 c12 -22 8 -35 -8 -25 -13 8 -22 46 -11 46 4 0 13 -9 19 -21z
m899 -81 c16 -29 28 -55 25 -58 -6 -5 -84 79 -84 90 0 9 12 20 21 20 4 0 21
-24 38 -52z m-163 -32 c-6 -51 -3 -57 114 -294 65 -133 117 -242 115 -242 -4
0 -131 159 -213 269 -52 70 -62 89 -57 110 4 14 8 65 10 112 2 90 9 114 27
103 6 -4 8 -26 4 -58z m-702 32 c12 -45 5 -69 -42 -160 -170 -326 -225 -429
-228 -425 -2 2 4 30 15 63 10 32 38 127 61 209 23 83 46 157 50 166 5 8 27 21
49 29 44 14 48 24 60 133 2 17 29 5 35 -15z m-114 0 c0 -14 -67 -64 -75 -57
-2 3 7 19 21 37 26 32 54 43 54 20z m466 -113 c17 22 19 3 3 -26 -10 -20 -11
-20 -24 -2 -8 10 -14 25 -14 33 0 11 3 10 11 -4 11 -19 11 -19 24 -1z m266
-24 c3 -3 8 -28 11 -56 3 -27 19 -126 36 -219 17 -93 30 -171 28 -173 -2 -2
-16 36 -30 84 -14 49 -44 148 -66 221 -49 161 -50 164 -13 156 15 -4 30 -9 34
-13z m-569 -6 c4 -8 2 -17 -3 -20 -6 -4 -10 3 -10 14 0 25 6 27 13 6z m101 -7
c11 -44 6 -78 -23 -140 -15 -35 -47 -107 -71 -161 -23 -54 -45 -96 -47 -93 -2
2 12 60 32 128 90 304 95 317 109 266z m493 0 c-3 -8 -6 -5 -6 6 -1 11 2 17 5
13 3 -3 4 -12 1 -19z m-359 -105 c-9 -24 -8 -65 5 -184 9 -84 15 -155 13 -157
-2 -1 -17 68 -34 155 l-30 158 26 33 c29 39 36 37 20 -5z"/>
<path d="M902 2795 c0 -16 2 -22 5 -12 2 9 2 23 0 30 -3 6 -5 -1 -5 -18z"/>
<path d="M1422 2800 c0 -14 2 -19 5 -12 2 6 2 18 0 25 -3 6 -5 1 -5 -13z"/>
<path d="M1511 2794 c0 -11 3 -14 6 -6 3 7 2 16 -1 19 -3 4 -6 -2 -5 -13z"/>
<path d="M1433 2695 c0 -22 2 -30 4 -17 2 12 2 30 0 40 -3 9 -5 -1 -4 -23z"/>
<path d="M1082 2680 c0 -19 2 -27 5 -17 2 9 2 25 0 35 -3 9 -5 1 -5 -18z"/>
<path d="M1443 2570 c0 -30 2 -43 4 -27 2 15 2 39 0 55 -2 15 -4 2 -4 -28z"/>
<path d="M1093 2565 c0 -22 2 -30 4 -17 2 12 2 30 0 40 -3 9 -5 -1 -4 -23z"/>
<path d="M1104 2330 c0 -52 1 -74 3 -47 2 26 2 68 0 95 -2 26 -3 4 -3 -48z"/>
</g>
</svg>
