<?xml version="1.0" standalone="no"?>
<!DOCTYPE svg PUBLIC "-//W3C//DTD SVG 20010904//EN"
 "http://www.w3.org/TR/2001/REC-SVG-20010904/DTD/svg10.dtd">
<svg version="1.0" xmlns="http://www.w3.org/2000/svg"
 width="244.000000pt" height="305.000000pt" viewBox="0 0 244.000000 305.000000"
 preserveAspectRatio="xMidYMid meet">
<metadata>
Created by potrace 1.16, written by Peter Selinger 2001-2019
</metadata>
<g transform="translate(0.000000,305.000000) scale(0.100000,-0.100000)"
fill="#000000" stroke="none">
<path d="M1061 2803 c-17 -159 -31 -411 -31 -552 0 -68 -2 -122 -6 -119 -3 3
-9 84 -14 179 -14 267 -69 604 -93 580 -7 -7 -7 -23 1 -48 13 -47 15 -930 1
-938 -5 -4 -25 7 -44 22 l-35 28 0 115 c0 168 17 395 41 558 12 79 19 145 17
148 -6 5 -20 -78 -44 -251 -8 -60 -17 -221 -21 -356 l-6 -247 29 -15 c16 -8
37 -24 48 -36 l19 -20 40 34 c50 43 67 44 89 5 9 -17 24 -30 33 -30 17 0 20
-16 5 -25 -5 -3 -10 -2 -10 3 0 11 -45 32 -69 32 -26 0 -67 -45 -75 -83 l-7
-32 -21 40 c-26 52 -44 65 -88 65 -37 0 -61 -17 -73 -52 -12 -33 2 -46 42 -41
33 5 41 1 69 -31 37 -42 39 -52 15 -78 -15 -17 -16 -26 -4 -86 18 -89 30 -253
20 -271 -7 -15 -19 17 -36 104 -7 34 -13 40 -37 43 -17 2 -36 -4 -48 -15 -29
-26 -21 -107 15 -162 26 -40 35 -71 19 -71 -18 0 -81 114 -88 157 -7 45 -5 52
40 125 30 49 -95 84 -128 36 -21 -29 -20 -46 5 -130 26 -86 17 -132 -36 -175
-40 -33 -292 -189 -320 -198 -11 -4 40 52 113 125 l133 132 40 -6 c38 -6 39
-5 39 22 0 75 -14 181 -23 175 -6 -3 -7 -38 -3 -89 l7 -84 -29 6 c-27 5 -43
-7 -203 -164 -96 -94 -172 -173 -169 -176 4 -3 42 8 85 23 44 16 142 50 218
76 99 35 137 52 137 64 1 41 16 45 74 20 33 -14 56 -30 55 -39 0 -8 -15 -45
-33 -82 -29 -60 -30 -68 -14 -68 10 0 18 -3 18 -7 0 -5 -34 -125 -75 -268 -41
-143 -75 -264 -75 -269 0 -11 15 6 223 253 156 186 151 176 131 255 -5 23 -3
26 20 26 14 0 26 -2 26 -3 0 -2 -7 -48 -15 -103 -26 -168 -65 -442 -65 -451 1
-8 12 17 87 197 19 47 51 121 70 164 27 62 34 91 32 130 -2 40 0 52 13 54 17
3 78 -44 78 -61 0 -6 -14 -25 -30 -42 l-30 -31 34 -185 c81 -437 90 -477 98
-439 26 121 108 561 110 592 2 29 -4 44 -25 66 -34 36 -34 44 4 76 46 39 59
34 58 -22 -1 -37 11 -77 50 -172 80 -191 124 -290 127 -287 2 2 1 27 -3 56 -4
34 -9 48 -14 39 -5 -7 -9 -9 -9 -5 0 4 -25 99 -55 210 -30 111 -55 205 -55
210 0 5 12 7 27 5 22 -2 29 -10 34 -33 l7 -30 1 33 c1 25 5 32 20 32 29 0 33
-15 20 -59 -11 -37 -10 -40 27 -87 39 -50 265 -320 316 -378 l28 -31 -10 30
c-52 168 -150 533 -147 547 3 9 -2 26 -10 37 -8 12 -12 21 -8 21 3 0 -2 14
-10 31 -22 42 -14 56 51 85 60 27 74 25 74 -10 0 -21 20 -30 228 -103 125 -44
229 -79 232 -76 2 2 -77 82 -175 179 -169 163 -182 174 -211 169 l-32 -5 5 92
c3 67 2 89 -6 78 -6 -8 -11 -33 -11 -56 0 -22 -7 -63 -15 -89 -8 -29 -11 -54
-5 -64 4 -9 89 -70 188 -136 100 -66 179 -121 177 -123 -3 -3 -182 63 -327
121 -31 13 -33 19 -17 50 10 18 8 24 -16 43 -24 19 -29 32 -33 81 -2 37 2 79
12 113 21 70 20 103 -2 123 -25 23 -84 21 -113 -2 l-23 -18 27 -46 c16 -27 27
-61 27 -82 0 -34 -23 -103 -38 -115 -4 -3 -20 -23 -36 -44 -42 -57 -43 -30 -1
49 54 102 44 185 -22 185 -27 0 -43 -20 -48 -63 -6 -46 -22 -87 -35 -87 -19 0
-12 170 10 228 24 62 26 115 5 132 -22 18 -19 35 16 75 26 29 38 35 70 35 48
0 58 17 33 59 -21 35 -69 50 -103 32 -11 -7 -32 -33 -45 -58 l-23 -47 -7 32
c-4 17 -21 43 -38 58 -26 21 -38 24 -66 19 l-34 -6 22 30 c27 40 41 39 89 -4
l38 -35 19 21 c10 11 32 28 48 37 l29 17 -7 255 c-6 285 -40 576 -83 715 l-6
20 -8 -20 c-11 -29 -11 -47 1 -40 7 4 10 -157 10 -474 0 -265 -2 -481 -5 -481
-3 0 -24 12 -46 27 l-41 27 7 201 c7 220 26 434 50 565 16 91 18 106 10 99 -2
-3 -16 -75 -29 -160 -27 -161 -46 -410 -46 -590 0 -75 -4 -111 -14 -125 -8
-10 -17 -16 -20 -13 -18 17 -27 241 -24 582 2 207 0 367 -4 355 -10 -34 -38
-439 -38 -544 0 -159 -13 -426 -20 -412 -4 7 -10 63 -14 123 -12 224 -46 469
-76 549 -7 20 -7 20 -13 1 -18 -59 -48 -235 -57 -335 -21 -229 -28 -336 -24
-365 4 -25 3 -26 -5 -10 -5 11 -10 53 -10 93 -1 39 -5 72 -10 72 -5 0 -11 14
-14 30 -4 19 -13 30 -23 30 -15 0 -16 36 -13 405 2 223 3 405 3 405 -1 0 -7
-48 -13 -107z m139 -671 c-5 -134 -12 -247 -15 -250 -8 -8 2 404 11 461 4 21
8 37 9 35 2 -2 -1 -113 -5 -246z m190 -282 c0 -5 -4 -10 -10 -10 -5 0 -10 5
-10 10 0 6 5 10 10 10 6 0 10 -4 10 -10z m-213 -87 c-2 -16 -4 -3 -4 27 0 30
2 43 4 28 2 -16 2 -40 0 -55z m-141 -14 c3 -6 7 -59 8 -119 2 -82 -1 -105 -10
-96 -20 21 -44 74 -44 99 0 14 -7 30 -15 37 -19 16 -19 40 1 68 16 23 48 29
60 11z m80 -16 c-10 -10 -19 5 -10 18 6 11 8 11 12 0 2 -7 1 -15 -2 -18z m248
12 c3 -8 1 -15 -4 -15 -6 0 -10 7 -10 15 0 8 2 15 4 15 2 0 6 -7 10 -15z m126
-5 c23 -23 26 -53 6 -69 -7 -6 -16 -29 -20 -51 -3 -21 -17 -52 -30 -67 l-24
-28 2 106 c2 59 6 112 10 118 11 17 34 13 56 -9z m-300 -82 c0 -21 -3 -29 -10
-22 -5 5 -7 19 -4 32 9 31 14 27 14 -10z m-42 -12 c2 -18 12 -30 28 -36 15 -6
31 -25 41 -47 l15 -38 20 38 c10 21 30 42 43 47 17 6 25 17 25 33 0 30 10 40
27 26 16 -14 17 -61 1 -77 -7 -7 -27 -12 -45 -12 -18 0 -33 -1 -33 -2 0 -2 -9
-27 -18 -57 l-18 -53 -13 43 c-17 59 -27 69 -67 69 -28 0 -35 5 -40 25 -8 33
3 77 19 72 7 -2 13 -16 15 -31z m-204 -50 c3 -13 9 -31 12 -40 4 -10 1 -16 -9
-16 -17 0 -27 21 -27 56 0 31 16 31 24 0z m139 4 c3 -11 1 -20 -4 -20 -5 0 -9
9 -9 20 0 11 2 20 4 20 2 0 6 -9 9 -20z m463 -36 c-4 -13 -13 -24 -21 -24 -19
0 -19 2 2 48 12 28 17 33 20 19 3 -10 2 -29 -1 -43z m-150 19 c-10 -10 -19 5
-10 18 6 11 8 11 12 0 2 -7 1 -15 -2 -18z m-281 -89 c19 -45 19 -50 1 -35 -18
15 -38 71 -26 71 6 0 17 -16 25 -36z m250 -20 c-24 -37 -29 -23 -9 22 13 29
18 34 21 21 3 -10 -3 -29 -12 -43z m-274 -76 c8 -15 6 -18 -11 -18 -13 0 -26
12 -37 35 -9 19 -24 35 -33 35 -23 0 -29 8 -23 31 5 18 10 15 50 -23 24 -24
48 -51 54 -60z m386 55 c-3 -2 -13 -3 -23 -1 -16 3 -16 4 2 22 18 18 19 18 22
2 2 -10 1 -20 -1 -23z m-558 -48 c10 -53 5 -87 -10 -63 -9 14 -13 125 -4 116
3 -2 9 -26 14 -53z m511 22 c0 -23 -26 -49 -44 -46 -17 4 -16 6 4 32 23 29 40
35 40 14z m130 -42 c0 -30 -4 -55 -10 -55 -11 0 -14 69 -4 94 11 27 14 18 14
-39z m-380 -11 c0 -8 -4 -12 -10 -9 -5 3 -10 13 -10 21 0 8 5 12 10 9 6 -3 10
-13 10 -21z m129 0 c-14 -18 -24 -11 -15 11 3 9 11 13 16 10 8 -5 7 -11 -1
-21z m-243 -104 c-1 -33 4 -55 16 -66 27 -27 40 -8 33 47 -7 48 -7 49 21 49
26 0 26 -1 10 -19 -22 -25 -13 -59 17 -63 16 -2 22 -10 22 -27 0 -21 -5 -24
-40 -25 -22 -1 -50 2 -61 7 -26 11 -46 73 -38 116 10 47 21 37 20 -19z m356
23 c9 -78 -37 -147 -82 -123 -16 9 -25 8 -36 0 -11 -10 -15 -9 -20 4 -9 24 2
44 28 48 19 2 23 9 23 38 0 19 5 36 10 37 6 1 9 -18 7 -47 -3 -54 11 -71 36
-46 11 10 16 32 15 66 -1 53 13 70 19 23z m-107 7 c3 -5 1 -10 -4 -10 -6 0
-11 5 -11 10 0 6 2 10 4 10 3 0 8 -4 11 -10z m285 -59 c0 -20 -27 -48 -37 -38
-9 9 18 68 28 61 5 -3 9 -13 9 -23z m-570 -52 c0 -5 -4 -9 -10 -9 -5 0 -10 7
-10 16 0 8 5 12 10 9 6 -3 10 -10 10 -16z m601 -52 c-13 -13 -15 1 -4 30 7 17
8 17 11 -1 2 -10 -1 -23 -7 -29z m-763 -26 c3 -16 -1 -22 -10 -19 -7 3 -15 15
-16 27 -3 16 1 22 10 19 7 -3 15 -15 16 -27z m22 -76 c0 -35 -36 -110 -170
-355 -35 -63 -72 -132 -82 -152 -22 -45 -30 -49 -18 -10 4 15 31 108 60 207
29 99 56 187 61 197 5 9 28 23 51 30 37 13 43 19 50 53 15 68 48 89 48 30z
m717 -21 c1 -36 13 -71 46 -134 24 -47 79 -152 121 -234 43 -81 75 -150 73
-152 -4 -4 -149 171 -240 292 -47 61 -48 65 -37 98 6 21 9 54 5 80 -8 52 2
109 18 103 7 -2 13 -26 14 -53z m113 13 c0 -5 -7 -4 -15 3 -8 7 -15 20 -15 29
1 13 3 13 15 -3 8 -11 15 -24 15 -29z m-930 19 c0 -15 -50 -60 -57 -52 -6 6
39 66 49 66 4 0 8 -6 8 -14z m10 -46 c0 -5 -7 -10 -16 -10 -8 0 -12 5 -9 10 3
6 10 10 16 10 5 0 9 -4 9 -10z m920 -11 c0 -5 -9 -9 -20 -9 -11 0 -20 6 -20
14 0 9 7 12 20 9 11 -3 20 -9 20 -14z m-474 -34 c17 23 19 2 3 -27 -11 -21
-12 -21 -25 -3 -8 10 -14 26 -14 34 1 13 3 12 12 -3 11 -19 11 -19 24 -1z
m-183 -62 c4 -42 -3 -68 -66 -225 -39 -98 -72 -176 -74 -174 -2 2 16 77 41
167 24 90 47 180 51 199 19 90 40 105 48 33z m122 -72 c-14 -29 -14 -44 0
-177 24 -236 19 -227 -39 60 -17 84 -17 83 28 133 26 30 31 22 11 -16z"/>
<path d="M1401 2794 c0 -11 3 -14 6 -6 3 7 2 16 -1 19 -3 4 -6 -2 -5 -13z"/>
<path d="M1423 2505 c0 -27 2 -38 4 -22 2 15 2 37 0 50 -2 12 -4 0 -4 -28z"/>
<path d="M1113 2410 c0 -41 2 -58 4 -37 2 20 2 54 0 75 -2 20 -4 3 -4 -38z"/>
<path d="M1434 2235 c0 -55 1 -76 3 -47 2 29 2 74 0 100 -2 26 -3 2 -3 -53z"/>
<path d="M1502 835 c0 -16 2 -22 5 -12 2 9 2 23 0 30 -3 6 -5 -1 -5 -18z"/>
<path d="M1511 764 c0 -11 3 -14 6 -6 3 7 2 16 -1 19 -3 4 -6 -2 -5 -13z"/>
<path d="M1522 715 c0 -16 5 -64 12 -105 8 -41 14 -64 14 -50 0 14 -5 61 -13
105 -7 44 -13 67 -13 50z"/>
</g>
</svg>
