<?xml version="1.0" standalone="no"?>
<!DOCTYPE svg PUBLIC "-//W3C//DTD SVG 20010904//EN"
 "http://www.w3.org/TR/2001/REC-SVG-20010904/DTD/svg10.dtd">
<svg version="1.0" xmlns="http://www.w3.org/2000/svg"
 width="244.000000pt" height="305.000000pt" viewBox="0 0 244.000000 305.000000"
 preserveAspectRatio="xMidYMid meet">
<metadata>
Created by potrace 1.16, written by Peter Selinger 2001-2019
</metadata>
<g transform="translate(0.000000,305.000000) scale(0.100000,-0.100000)"
fill="#000000" stroke="none">
<path d="M885 2887 c-4 -14 -3 -33 2 -44 10 -21 11 -928 1 -938 -4 -4 -25 8
-47 26 l-41 32 0 101 c0 130 16 351 36 491 23 160 27 201 21 195 -8 -8 -35
-163 -47 -275 -13 -120 -29 -525 -21 -542 3 -6 29 -27 58 -46 l52 -35 21 23
c12 13 36 29 52 36 l31 13 -7 215 c-10 306 -32 498 -82 701 -20 77 -21 80 -29
47z"/>
<path d="M1578 2404 c2 -321 0 -504 -7 -504 -5 0 -28 12 -51 27 l-41 27 6 181
c6 210 19 352 46 524 11 68 18 126 15 128 -13 13 -55 -285 -66 -470 -18 -311
-17 -393 8 -401 9 -4 32 -20 51 -36 l34 -31 26 24 c14 12 39 29 55 37 l29 15
-6 215 c-4 118 -14 276 -22 350 -16 134 -56 355 -72 397 -4 12 -7 -205 -5
-483z"/>
<path d="M1261 2695 c-2 -151 -4 -165 -15 -130 l-12 40 -21 -70 c-38 -122 -63
-347 -63 -560 0 -105 -14 -147 -25 -78 -33 197 -48 244 -59 192 -37 -173 -36
-198 8 -226 40 -26 54 -70 36 -114 -12 -29 -42 -39 -55 -19 -3 6 -13 10 -22
10 -12 0 -14 -6 -8 -27 15 -62 61 -81 89 -38 25 37 37 31 30 -15 -5 -33 -3
-41 12 -46 30 -11 54 -36 54 -56 0 -23 -8 -23 -34 1 -31 28 -79 31 -112 6 -16
-13 -17 -16 -4 -25 8 -5 24 -10 36 -10 11 0 31 -12 45 -26 21 -22 24 -37 27
-115 4 -88 4 -89 -22 -99 -29 -11 -37 -56 -11 -66 24 -9 20 -70 -5 -77 -11 -3
-23 -12 -26 -21 -7 -18 14 -49 27 -40 5 3 9 0 9 -5 0 -6 -9 -11 -20 -11 -25 0
-43 41 -34 76 6 23 4 24 -36 24 -23 0 -58 -7 -76 -16 -45 -21 -72 -10 -114 47
-22 32 -30 52 -29 83 1 55 -11 138 -24 154 -13 17 -62 15 -81 -4 -40 -40 -29
-98 39 -203 77 -119 95 -162 90 -207 -4 -30 -45 -110 -148 -284 -78 -133 -143
-235 -145 -228 -1 7 28 105 66 218 l67 204 48 15 c41 13 48 19 57 50 24 88 10
136 -71 232 -73 87 -87 160 -44 219 14 19 25 42 25 52 0 36 -96 51 -138 22
-28 -19 -29 -61 -2 -132 23 -60 19 -118 -11 -155 -9 -13 -59 -47 -111 -77
-185 -106 -270 -152 -275 -147 -2 3 58 61 133 128 l138 124 49 -2 49 -3 -7 93
c-9 107 -22 156 -26 92 -3 -55 -3 -54 4 -108 l7 -47 -38 5 c-33 5 -42 2 -77
-32 -22 -21 -85 -78 -140 -128 -155 -139 -195 -178 -191 -182 3 -4 187 52 404
123 71 23 82 30 82 50 0 32 13 37 59 23 52 -15 110 -64 128 -107 17 -40 7 -57
-36 -65 -32 -7 -37 -20 -150 -382 -27 -88 -53 -168 -57 -179 -4 -12 -3 -17 4
-15 5 2 99 101 207 219 182 199 196 217 191 245 -14 76 -21 70 85 70 89 0 98
-2 132 -28 20 -15 37 -33 37 -40 0 -6 -14 -26 -32 -44 l-32 -33 33 -157 c60
-294 105 -496 108 -487 7 22 104 488 117 564 l15 85 -29 27 c-38 35 -38 50 0
82 37 31 73 38 165 34 77 -3 73 1 59 -73 -6 -32 -17 -18 225 -284 157 -172
171 -186 171 -172 0 7 -39 136 -86 286 l-87 273 -38 11 c-43 13 -45 18 -25 64
18 43 61 82 113 102 51 20 73 15 73 -19 0 -20 8 -27 38 -36 20 -6 126 -41 235
-77 109 -35 202 -63 208 -61 6 2 -47 55 -118 118 -70 63 -149 134 -175 159
-70 65 -85 73 -118 66 l-29 -6 6 90 c7 110 -11 127 -21 20 -3 -39 -11 -79 -16
-89 -24 -44 -13 -64 63 -110 222 -135 328 -202 325 -206 -2 -2 -60 16 -129 40
-272 96 -257 88 -240 131 6 15 0 27 -26 51 -28 27 -33 38 -33 77 0 25 9 74 20
109 25 79 25 93 0 118 -28 28 -102 28 -130 0 -20 -20 -20 -20 10 -67 47 -74
37 -126 -43 -224 -60 -74 -86 -128 -93 -197 -7 -64 -20 -37 193 -410 36 -63
63 -116 60 -118 -3 -3 -72 72 -154 166 -120 139 -148 176 -146 198 2 15 5 64
7 109 5 91 19 129 107 269 59 96 68 154 29 186 -26 21 -63 24 -77 6 -13 -16
-25 -86 -27 -154 -1 -39 -8 -59 -29 -88 -39 -50 -72 -62 -115 -42 -18 9 -51
16 -72 16 -39 0 -40 -1 -40 -34 0 -49 -9 -66 -34 -66 -20 0 -20 1 4 20 20 16
23 22 14 37 -6 10 -20 19 -32 21 -19 3 -33 30 -31 62 1 8 5 4 9 -10 7 -23 8
-23 9 -4 1 12 8 24 16 28 18 7 20 47 3 64 -9 9 -8 12 8 12 10 1 44 9 74 20 48
16 57 17 69 5 13 -13 13 -22 2 -66 -11 -43 -11 -53 0 -60 20 -14 70 -2 96 23
36 34 34 41 -42 145 -15 20 -14 24 21 70 71 92 98 198 59 227 -42 31 35 110
102 104 30 -2 38 1 41 16 8 41 -38 86 -88 86 -23 0 -90 -56 -90 -75 0 -29 -20
-24 -36 10 -19 42 -65 69 -100 61 -36 -9 -64 -42 -64 -76 0 -29 0 -30 44 -24
39 6 48 3 70 -19 29 -29 34 -72 11 -81 -8 -3 -15 -18 -15 -33 0 -15 -9 -43
-20 -61 -26 -42 -104 -119 -130 -127 -20 -6 -35 -38 -25 -54 20 -34 176 95
216 178 13 28 27 51 31 51 16 0 7 -45 -19 -98 -34 -66 -92 -118 -176 -154 -50
-21 -62 -31 -60 -47 2 -14 -3 -21 -13 -21 -16 0 -16 17 2 142 7 47 39 88 67
88 35 0 53 16 39 33 -23 27 -64 28 -104 1 -44 -28 -58 -30 -58 -8 0 18 24 44
54 59 16 8 21 19 19 48 -3 43 8 47 31 12 9 -14 25 -25 36 -25 23 0 50 36 50
68 0 19 -4 23 -17 17 -37 -16 -56 -10 -66 18 -16 48 -1 93 38 116 39 23 40 27
24 134 -11 75 -23 107 -34 95 -4 -4 -16 -61 -28 -127 -11 -66 -24 -118 -29
-115 -4 3 -8 56 -8 117 0 132 -17 333 -32 397 -6 25 -14 146 -18 270 l-6 225
-3 -170z m-29 -508 c2 -185 0 -329 -3 -320 -5 15 -6 15 -12 -1 -4 -10 -8 -27
-8 -39 -1 -17 -3 -15 -10 8 -4 17 -5 -20 -2 -88 5 -113 5 -119 -13 -115 -18 3
-19 16 -17 233 1 127 5 268 10 315 8 83 8 80 13 -90 l6 -175 2 238 c2 200 16
387 28 374 2 -2 5 -155 6 -340z m-3 -502 c4 -5 7 -23 6 -40 -3 -45 -4 -47 -15
-40 -6 3 -9 42 -8 88 1 45 3 64 5 42 3 -22 8 -44 12 -50z m21 -189 c0 -13 -7
-26 -15 -30 -11 -4 -15 2 -15 24 0 20 5 30 15 30 9 0 15 -9 15 -24z m-83 -328
c-3 -8 -6 -5 -6 6 -1 11 2 17 5 13 3 -3 4 -12 1 -19z m15 -103 c11 -14 10 -85
-1 -85 -4 0 -11 15 -14 33 -3 17 -8 40 -12 50 -8 19 14 21 27 2z m122 -39 c-3
-22 -10 -43 -14 -46 -4 -3 -10 -14 -13 -25 -3 -11 -3 7 0 40 6 74 10 88 24 80
6 -5 8 -22 3 -49z m-83 -108 c1 -22 1 -22 9 2 5 15 6 1 2 -35 -7 -59 -7 -142
0 -385 1 -69 1 -143 -2 -165 -5 -35 -8 -26 -29 77 -14 69 -21 134 -18 155 3
21 2 56 -3 78 l-8 40 -2 -55 -2 -55 -14 55 c-8 30 -17 80 -20 110 -5 46 -3 59
14 78 10 12 22 22 26 22 3 0 6 -24 6 -52 0 -29 5 -60 10 -68 7 -10 8 8 4 57
-5 52 -3 77 6 88 7 8 10 28 8 45 -3 16 -1 30 4 30 4 0 8 -10 9 -22z m16 -140
c-3 -8 -6 -5 -6 6 -1 11 2 17 5 13 3 -3 4 -12 1 -19z"/>
<path d="M1201 844 c0 -11 3 -14 6 -6 3 7 2 16 -1 19 -3 4 -6 -2 -5 -13z"/>
<path d="M862 2780 c0 -14 2 -19 5 -12 2 6 2 18 0 25 -3 6 -5 1 -5 -13z"/>
<path d="M744 1855 c-32 -13 -44 -32 -44 -66 0 -15 7 -19 36 -19 52 0 84 -20
114 -72 8 -13 5 -22 -12 -38 -21 -19 -21 -23 -10 -77 10 -51 31 -89 97 -179
15 -21 14 -24 -25 -68 -46 -54 -50 -83 -17 -114 52 -49 119 -34 97 22 -13 35
-13 69 1 83 8 8 29 5 75 -10 49 -16 69 -19 82 -11 29 19 19 34 -39 58 -90 36
-150 90 -193 173 -16 33 -22 83 -8 83 4 -1 18 -24 31 -53 33 -71 133 -162 199
-182 33 -10 29 29 -5 52 -39 26 -111 100 -134 136 -10 18 -19 43 -19 57 0 14
-9 33 -20 43 -27 23 -25 33 10 69 28 27 36 30 75 25 43 -4 45 -3 45 22 -1 34
-20 59 -58 72 -43 15 -82 -6 -106 -55 -18 -36 -21 -38 -30 -21 -22 36 -61 73
-86 78 -14 3 -39 0 -56 -8z"/>
</g>
</svg>
