<?xml version="1.0" standalone="no"?>
<!DOCTYPE svg PUBLIC "-//W3C//DTD SVG 20010904//EN"
 "http://www.w3.org/TR/2001/REC-SVG-20010904/DTD/svg10.dtd">
<svg version="1.0" xmlns="http://www.w3.org/2000/svg"
 width="244.000000pt" height="305.000000pt" viewBox="0 0 244.000000 305.000000"
 preserveAspectRatio="xMidYMid meet">
<metadata>
Created by potrace 1.16, written by Peter Selinger 2001-2019
</metadata>
<g transform="translate(0.000000,305.000000) scale(0.100000,-0.100000)"
fill="#000000" stroke="none">
<path d="M1041 2900 c-1 -14 -2 -230 -3 -480 -1 -375 -2 -419 -8 -250 -9 275
-21 450 -31 450 -4 0 -10 15 -12 33 -3 17 -3 5 -1 -27 2 -32 5 -120 6 -195 1
-108 3 -121 7 -66 6 66 6 63 13 -60 5 -71 8 -181 8 -242 0 -93 -3 -113 -15
-113 -12 0 -15 22 -18 118 l-3 117 -2 -130 c-2 -124 -9 -155 -34 -155 -4 0 -8
217 -7 483 1 294 4 472 10 457 7 -21 8 -20 4 9 -3 18 -5 41 -5 50 -1 46 -20
-29 -44 -173 -32 -190 -43 -310 -51 -593 l-6 -212 28 -14 c46 -24 65 -51 57
-82 -6 -25 -8 -26 -17 -9 -15 30 -38 44 -72 44 -38 0 -62 -24 -67 -65 -3 -29
-2 -30 33 -27 31 3 41 -2 67 -33 35 -39 41 -69 16 -79 -14 -5 -16 -16 -10 -61
5 -48 4 -54 -14 -60 -15 -5 -20 -15 -20 -41 0 -33 -13 -46 -23 -21 -4 8 -6 6
-6 -4 -1 -9 -10 -24 -22 -35 -17 -16 -20 -28 -17 -83 4 -74 -13 -92 -30 -33
-17 57 -15 82 14 135 24 46 25 50 8 68 -21 24 -86 26 -108 3 -20 -19 -20 -57
-1 -131 26 -99 19 -149 -26 -194 -16 -16 -17 -23 -7 -44 6 -14 9 -27 7 -28
-10 -9 -312 -127 -315 -124 -2 2 33 30 78 62 186 132 249 178 253 185 2 4 -2
38 -10 76 -8 38 -15 86 -15 107 0 26 -4 36 -11 31 -8 -5 -9 -33 -5 -91 l7 -84
-28 7 c-25 7 -39 -5 -194 -167 -92 -96 -166 -176 -163 -178 2 -2 21 3 41 12
21 8 114 44 208 79 146 55 170 67 175 88 5 21 30 42 30 25 0 -11 -101 -175
-112 -181 -4 -3 -8 -12 -8 -20 0 -17 20 -8 149 69 89 53 101 53 101 -5 0 -20
-7 -28 -29 -36 -32 -11 -33 -15 -94 -242 -14 -52 -40 -146 -57 -208 -18 -63
-29 -116 -27 -119 3 -2 63 68 133 156 70 88 129 159 130 158 1 -1 -11 -76 -27
-166 -16 -91 -27 -166 -25 -168 2 -2 54 96 116 218 108 213 112 224 107 270
-3 27 -2 51 3 54 17 11 89 -15 105 -38 21 -30 19 -41 -11 -77 -21 -24 -25 -38
-21 -63 36 -209 110 -613 113 -616 2 -2 4 0 4 5 0 5 22 131 49 279 71 386 68
359 37 399 -14 19 -26 39 -26 43 0 22 60 65 92 66 28 2 33 -1 30 -18 -9 -73
-6 -83 101 -288 60 -115 110 -207 112 -205 1 2 -8 64 -21 138 -13 74 -23 144
-21 155 1 14 40 -29 137 -152 74 -95 136 -171 138 -169 3 4 -68 273 -125 471
-28 100 -37 115 -65 115 -10 0 -21 7 -24 15 -9 23 5 65 21 65 8 0 55 -22 103
-50 48 -27 91 -50 95 -50 4 0 -4 17 -18 38 -13 20 -32 53 -42 72 -9 19 -20 37
-23 40 -16 12 -18 39 -3 44 21 9 33 -2 33 -29 0 -13 8 -26 18 -30 9 -3 96 -35
192 -71 96 -35 186 -69 199 -75 13 -5 25 -8 27 -7 1 2 -75 84 -169 182 -162
168 -174 178 -201 171 l-28 -8 7 85 c5 59 4 88 -4 92 -7 5 -11 -6 -11 -31 0
-21 -3 -69 -7 -107 l-6 -68 39 6 40 7 132 -134 c72 -74 132 -138 132 -141 0
-6 -32 13 -135 79 -27 18 -82 53 -121 78 -98 63 -124 96 -124 156 0 26 7 70
15 97 28 93 11 134 -54 134 -69 0 -87 -30 -51 -85 11 -17 20 -47 20 -69 0 -52
-20 -116 -37 -116 -16 0 -16 5 -2 67 10 41 9 54 -5 81 -9 18 -23 32 -31 32 -8
0 -15 4 -15 10 0 5 -7 7 -15 4 -11 -5 -15 1 -15 24 0 16 -6 35 -14 41 -9 8
-12 26 -8 60 3 35 0 56 -12 72 -21 31 -21 33 15 74 26 29 38 35 70 35 35 0 39
3 39 25 0 28 -40 75 -64 75 -29 0 -63 -22 -81 -52 l-18 -31 -11 34 c-9 28 -17
35 -44 39 -18 3 -33 8 -32 13 0 4 0 12 0 17 0 17 33 11 56 -11 l23 -22 29 24
c16 13 37 29 47 34 15 9 17 28 16 170 -2 188 -16 406 -35 525 -18 114 -19 65
-1 -92 8 -70 17 -225 21 -343 l7 -216 -34 -29 c-19 -16 -38 -29 -42 -30 -4 0
-6 227 -5 505 2 278 0 505 -4 505 -5 0 -8 -4 -8 -8 0 -14 -51 -317 -54 -320
-2 -1 -8 51 -15 115 -6 65 -15 136 -18 158 l-6 40 -9 -30 c-4 -17 -4 -31 1
-33 13 -4 14 -932 2 -932 -10 0 -31 86 -31 129 0 41 -11 91 -20 91 -5 0 -12
-30 -16 -67 l-8 -68 -12 60 c-6 33 -12 54 -13 48 -1 -7 -5 -13 -10 -13 -5 0
-9 39 -10 88 -2 121 -45 410 -64 428 -16 17 -57 -244 -64 -411 -5 -123 -8
-144 -16 -115 l-10 35 -12 -50 -11 -50 -12 75 c-6 41 -16 181 -21 310 -12 266
-45 596 -50 510z m236 -637 c-3 -10 -5 -4 -5 12 0 17 2 24 5 18 2 -7 2 -21 0
-30z m15 -216 c1 -92 -1 -170 -5 -173 -4 -4 -7 73 -7 171 0 98 2 176 5 174 2
-3 6 -80 7 -172z m-255 -129 c-3 -7 -5 -2 -5 12 0 14 2 19 5 13 2 -7 2 -19 0
-25z m-20 -33 c7 -21 2 -25 -25 -18 -18 4 -20 8 -11 19 15 18 28 18 36 -1z
m63 -16 c0 -5 -7 -9 -15 -9 -9 0 -12 6 -9 15 6 15 24 11 24 -6z m330 3 c0 -13
-12 -22 -22 -16 -10 6 -1 24 13 24 5 0 9 -4 9 -8z m-280 -116 c0 -7 -7 -19
-15 -26 -13 -10 -18 -11 -28 -1 -9 10 -8 15 7 27 25 18 36 18 36 0z m260 -16
c0 -5 -5 -12 -12 -16 -12 -8 -40 24 -32 38 6 10 44 -9 44 -22z m-370 -51 c0
-32 -11 -37 -30 -14 -7 9 -10 25 -6 41 6 21 9 24 21 14 8 -7 15 -25 15 -41z
m472 26 c10 -22 8 -28 -10 -45 -28 -26 -32 -25 -32 9 0 61 22 80 42 36z m-192
-55 c0 -11 -4 -20 -9 -20 -5 0 -7 9 -4 20 3 11 7 20 9 20 2 0 4 -9 4 -20z
m-156 -6 c9 -3 16 -14 16 -24 0 -10 9 -20 20 -23 11 -3 27 -21 35 -41 9 -20
17 -36 20 -36 3 0 11 16 20 36 8 20 23 38 34 41 10 2 24 16 30 29 11 25 19 28
45 18 10 -4 16 -18 16 -41 0 -35 0 -35 -37 -28 -49 8 -68 -7 -92 -70 l-19 -50
-11 40 c-6 22 -18 50 -27 63 -14 20 -21 22 -59 17 -42 -7 -43 -6 -47 24 -6 40
19 59 56 45z m-165 -96 c17 -35 43 -82 57 -105 14 -24 21 -43 15 -43 -29 0
-111 134 -111 181 0 16 2 29 4 29 2 0 18 -28 35 -62z m105 -56 c4 -7 5 -12 1
-12 -14 0 -45 69 -44 100 0 33 1 31 18 -21 10 -31 21 -61 25 -67z m342 78 c-5
-34 -31 -90 -42 -90 -2 0 1 11 6 24 4 13 14 42 20 65 14 52 23 53 16 1z m114
17 c0 -28 -60 -135 -94 -166 -20 -19 -36 -32 -36 -27 0 12 31 67 61 108 15 22
33 55 39 74 11 32 30 39 30 11z m-380 -108 c18 -42 5 -47 -19 -8 -25 40 -26
50 -7 43 8 -3 20 -19 26 -35z m190 34 c0 -15 -40 -73 -50 -73 -11 0 4 46 22
67 11 14 28 17 28 6z m-415 -130 c-3 -38 -5 -72 -5 -78 0 -5 -5 -3 -10 5 -19
29 -7 140 15 140 2 0 2 -30 0 -67z m615 -14 c0 -74 -17 -78 -22 -4 -3 62 -1
78 13 69 5 -3 9 -32 9 -65z m-372 -7 c4 -14 0 -15 -22 -6 -9 3 -16 10 -16 14
0 12 33 5 38 -8z m142 9 c0 -13 -26 -32 -33 -24 -8 7 11 33 24 33 5 0 9 -4 9
-9z m-281 -53 c0 -7 -7 -29 -14 -48 l-13 -35 -1 41 c-1 22 2 44 6 47 11 11 23
8 22 -5z m415 -23 c7 -37 -11 -115 -29 -127 -5 -4 -29 -7 -53 -6 -23 1 -48 -4
-54 -10 -8 -8 -15 -9 -25 -1 -21 18 -15 49 11 59 32 12 39 25 26 51 -14 24
-14 24 24 33 l29 7 -5 -50 c-6 -62 2 -77 30 -62 27 15 35 43 27 97 -7 52 10
61 19 9z m-305 -11 c2 -2 -2 -10 -8 -18 -17 -21 -5 -54 22 -58 25 -4 34 -32
16 -54 -8 -10 -15 -12 -23 -4 -5 5 -34 10 -63 10 -41 0 -54 4 -63 19 -18 35
-11 45 14 22 33 -31 48 -19 46 38 -1 25 -1 49 -1 54 1 7 50 -1 60 -9z m-324
-54 c11 -21 12 -30 4 -30 -14 0 -38 30 -39 48 0 22 19 12 35 -18z m818 -55
c-7 -21 -13 -19 -13 6 0 11 4 18 10 14 5 -3 7 -12 3 -20z m-653 -23 c0 -15 -2
-15 -10 -2 -13 20 -13 33 0 25 6 -3 10 -14 10 -23z m496 2 c-4 -9 -9 -15 -11
-12 -3 3 -3 13 1 22 4 9 9 15 11 12 3 -3 3 -13 -1 -22z m-585 -72 c16 -47 16
-159 -1 -237 -10 -52 -26 -79 -118 -203 -59 -78 -108 -139 -110 -134 -1 5 48
111 109 236 l112 229 -12 67 c-6 38 -14 76 -18 86 -6 17 -5 17 10 6 9 -8 22
-30 28 -50z m704 5 c-4 -30 -2 -71 4 -94 10 -36 17 -43 53 -55 l41 -14 43
-154 c24 -85 53 -186 63 -225 11 -38 19 -71 17 -72 -2 -2 -63 115 -136 259
-124 247 -132 265 -128 310 4 42 29 98 44 98 3 0 2 -24 -1 -53z m-859 32 c6
-10 -102 -128 -118 -129 -4 0 12 32 35 70 40 67 66 86 83 59z m1079 -127 c-5
-5 -135 80 -135 89 0 4 8 13 18 18 14 9 26 1 69 -47 28 -31 50 -58 48 -60z
m-590 -62 c3 0 12 15 20 33 9 19 14 25 15 14 0 -18 -27 -77 -35 -77 -8 0 -35
59 -35 77 1 11 6 5 15 -14 8 -18 17 -33 20 -33z m-235 -7 c0 -5 -34 -107 -75
-228 -41 -121 -73 -206 -70 -190 32 209 37 231 72 282 32 49 34 55 23 87 -6
20 -9 40 -5 46 7 11 55 14 55 3z m536 -198 c35 -110 62 -204 61 -208 -1 -4
-39 68 -84 160 -75 153 -82 172 -76 211 11 83 32 49 99 -163z m-615 112 c-10
-9 -11 -8 -5 6 3 10 9 15 12 12 3 -3 0 -11 -7 -18z m399 -129 c-22 -125 -29
-147 -22 -68 4 41 7 96 7 122 0 41 2 45 14 33 12 -12 12 -25 1 -87z"/>
<path d="M1542 2840 c0 -14 2 -19 5 -12 2 6 2 18 0 25 -3 6 -5 1 -5 -13z"/>
<path d="M962 2795 c-1 -11 3 -38 7 -60 7 -34 9 -35 9 -10 0 35 -15 101 -16
70z"/>
<path d="M1022 2775 c0 -16 2 -22 5 -12 2 9 2 23 0 30 -3 6 -5 -1 -5 -18z"/>
<path d="M1551 2784 c0 -11 3 -14 6 -6 3 7 2 16 -1 19 -3 4 -6 -2 -5 -13z"/>
<path d="M1403 2740 c0 -25 2 -35 4 -22 2 12 2 32 0 45 -2 12 -4 2 -4 -23z"/>
<path d="M1562 2720 c0 -14 2 -19 5 -12 2 6 2 18 0 25 -3 6 -5 1 -5 -13z"/>
<path d="M1012 2690 c0 -19 2 -27 5 -17 2 9 2 25 0 35 -3 9 -5 1 -5 -18z"/>
<path d="M1393 2635 c0 -27 2 -38 4 -22 2 15 2 37 0 50 -2 12 -4 0 -4 -28z"/>
<path d="M1383 2495 c0 -38 2 -53 4 -32 2 20 2 52 0 70 -2 17 -4 1 -4 -38z"/>
<path d="M1374 2305 c0 -55 1 -76 3 -47 2 29 2 74 0 100 -2 26 -3 2 -3 -53z"/>
</g>
</svg>
