<?xml version="1.0" standalone="no"?>
<!DOCTYPE svg PUBLIC "-//W3C//DTD SVG 20010904//EN"
 "http://www.w3.org/TR/2001/REC-SVG-20010904/DTD/svg10.dtd">
<svg version="1.0" xmlns="http://www.w3.org/2000/svg"
 width="244.000000pt" height="305.000000pt" viewBox="0 0 244.000000 305.000000"
 preserveAspectRatio="xMidYMid meet">
<metadata>
Created by potrace 1.16, written by Peter Selinger 2001-2019
</metadata>
<g transform="translate(0.000000,305.000000) scale(0.100000,-0.100000)"
fill="#000000" stroke="none">
<path d="M897 2904 c-11 -18 -55 -250 -72 -379 -9 -66 -19 -229 -22 -361 -6
-235 -6 -242 14 -248 11 -3 35 -20 53 -36 l33 -29 33 27 c18 15 42 34 55 42
l22 16 -12 249 c-11 237 -24 372 -52 530 -7 39 -14 64 -17 57 -2 -7 1 -43 8
-80 26 -152 41 -319 47 -522 l6 -215 -41 -28 c-23 -15 -44 -27 -47 -27 -3 0
-5 219 -4 488 1 268 5 476 9 462 6 -20 8 -21 8 -5 0 33 -13 71 -21 59z"/>
<path d="M1282 2880 c0 -14 2 -19 5 -12 2 6 2 18 0 25 -3 6 -5 1 -5 -13z"/>
<path d="M1541 2803 c-12 -54 -30 -159 -41 -233 -20 -142 -42 -509 -36 -595 4
-44 8 -52 39 -72 20 -12 38 -27 42 -33 11 -18 36 -11 72 20 18 17 39 30 45 30
15 0 3 424 -17 590 -16 137 -55 353 -62 347 -2 -3 7 -71 21 -153 31 -187 45
-329 53 -564 l6 -185 -41 -28 c-23 -15 -44 -27 -47 -27 -3 0 -4 225 -3 500 2
275 0 500 -3 500 -3 0 -16 -44 -28 -97z"/>
<path d="M1177 2625 c-8 -308 -28 -758 -33 -764 -8 -9 -13 7 -24 74 -18 121
-31 175 -40 170 -8 -5 -25 -100 -33 -178 -3 -34 1 -40 29 -58 36 -22 50 -61
39 -110 -8 -33 -30 -48 -48 -30 -33 33 -51 -14 -21 -57 20 -29 39 -28 70 3 14
14 27 25 28 25 2 0 4 -16 4 -36 0 -19 7 -43 16 -53 21 -23 22 -59 2 -42 -19
16 -66 17 -94 2 -32 -17 -27 -29 13 -37 38 -7 55 -28 55 -67 0 -35 -27 -26
-85 29 -45 43 -84 111 -85 145 0 9 -7 22 -15 29 -24 20 -18 46 16 75 25 21 40
25 73 23 40 -3 41 -2 39 26 -6 88 -122 99 -160 15 -17 -40 -33 -51 -33 -24 0
8 -13 29 -29 47 -54 61 -151 36 -151 -39 0 -31 2 -33 25 -27 35 9 67 -1 98
-30 30 -28 36 -71 11 -80 -38 -15 8 -158 76 -236 26 -30 26 -33 -15 -87 -51
-67 -44 -112 20 -133 58 -19 67 -10 59 63 -4 36 -3 66 2 69 5 3 37 -4 71 -15
l63 -19 -6 -56 c-7 -54 -22 -111 -23 -84 -1 18 -82 15 -109 -4 -32 -22 -63
-12 -106 36 -32 36 -37 47 -36 88 2 54 -9 129 -22 155 -10 20 -56 23 -81 4
-10 -6 -20 -28 -23 -47 -6 -38 10 -74 99 -226 46 -78 48 -85 56 -187 5 -58 12
-110 15 -115 3 -6 -18 -39 -46 -74 -117 -140 -242 -283 -250 -287 -12 -4 -13
-7 112 219 147 265 143 255 135 314 -9 69 -33 120 -89 188 -47 58 -76 120 -76
165 0 13 11 41 25 61 14 20 25 44 25 54 0 40 -104 54 -140 18 -25 -25 -25 -29
0 -115 29 -103 27 -150 -10 -187 -26 -26 -30 -35 -24 -64 3 -19 4 -34 1 -34
-2 0 -85 -29 -182 -65 -98 -36 -180 -63 -182 -61 -2 2 84 59 191 127 216 136
205 122 181 224 -8 33 -15 75 -15 93 0 17 -5 32 -11 32 -9 0 -10 -26 -6 -91
l6 -90 -30 6 c-23 5 -36 1 -62 -20 -65 -55 -357 -328 -354 -331 4 -4 468 149
486 160 6 4 11 18 11 32 0 30 12 30 75 0 56 -26 88 -57 105 -100 13 -35 2 -51
-40 -59 -22 -5 -31 -14 -38 -39 -5 -18 -35 -114 -66 -213 -75 -235 -104 -335
-101 -335 3 0 212 229 339 373 l69 78 -12 41 c-8 26 -9 44 -3 50 6 6 48 9 95
7 68 -3 92 -8 114 -25 38 -28 41 -66 8 -96 -25 -23 -25 -27 -15 -74 23 -97 36
-204 28 -216 -4 -7 -7 -31 -7 -53 1 -44 4 -40 14 20 6 35 12 18 46 -145 21
-102 39 -192 39 -200 2 -31 17 28 50 193 32 162 43 187 54 122 2 -16 3 8 1 55
-3 60 2 113 16 179 l21 93 -33 34 c-38 39 -35 53 21 91 28 20 46 23 121 23 97
0 96 1 78 -63 -10 -37 -9 -38 53 -109 35 -40 88 -99 118 -133 31 -33 91 -100
134 -148 43 -48 80 -86 82 -84 3 3 -32 120 -130 435 -19 63 -40 119 -46 127
-6 7 -24 15 -41 19 -28 5 -31 9 -24 33 13 54 41 88 95 115 64 33 82 32 90 -2
5 -23 27 -32 230 -102 227 -77 254 -84 248 -70 -1 4 -57 57 -123 117 -66 61
-122 112 -125 116 -3 3 -31 29 -64 58 -51 47 -62 52 -90 47 l-32 -6 3 97 c3
112 -10 81 -21 -50 l-7 -78 48 6 48 6 100 -93 c55 -51 120 -112 145 -136 l45
-43 -55 27 c-30 15 -119 64 -197 111 -153 90 -172 110 -174 180 -1 21 6 58 15
83 35 100 14 145 -65 138 -27 -3 -55 -11 -64 -18 -13 -11 -11 -19 16 -67 30
-53 31 -57 20 -107 -8 -36 -26 -70 -60 -112 -73 -90 -84 -117 -78 -186 6 -69
16 -84 68 -99 34 -11 41 -18 59 -66 11 -30 20 -57 20 -60 0 -3 23 -78 51 -165
28 -88 49 -162 46 -164 -2 -3 -33 46 -67 108 -35 62 -96 169 -137 238 -40 68
-78 141 -84 163 -14 52 -1 87 78 219 70 117 82 170 48 208 -20 22 -67 27 -82
8 -13 -16 -25 -99 -23 -156 1 -36 -5 -51 -35 -88 -42 -51 -74 -63 -107 -40
-13 9 -43 16 -71 16 l-49 0 4 -35 c5 -44 -5 -33 -20 21 -15 53 -16 87 -1 78 8
-5 10 3 5 27 l-6 35 65 21 c41 13 67 17 71 11 4 -5 3 -36 0 -68 -6 -54 -5 -59
14 -65 29 -9 75 11 90 40 17 31 7 63 -30 102 -16 18 -30 37 -30 42 0 6 20 40
45 76 66 97 83 175 44 208 -20 18 -20 19 -3 45 31 47 56 62 98 60 43 -3 52 7
42 48 -5 17 -19 30 -42 40 -32 14 -39 13 -72 -3 -22 -11 -43 -33 -56 -57 l-20
-39 -10 31 c-16 48 -48 74 -89 74 -46 0 -56 -7 -73 -49 -19 -45 -11 -54 37
-47 35 6 44 3 70 -22 32 -30 36 -49 16 -73 -8 -9 -19 -34 -25 -57 -14 -48 -55
-102 -109 -146 l-38 -30 -6 29 c-8 40 5 60 47 67 35 7 36 8 17 28 -15 16 -27
19 -65 16 -53 -6 -55 -3 -31 32 10 14 16 38 14 57 -3 40 1 40 33 8 14 -14 32
-25 40 -25 20 0 46 39 46 68 0 19 -4 23 -17 17 -36 -15 -57 -10 -66 16 -17 45
-1 95 37 117 31 19 33 23 29 63 -8 86 -25 179 -33 179 -7 0 -29 -102 -45 -207
-14 -88 -22 -47 -29 135 -4 103 -14 241 -22 307 -7 66 -15 156 -16 200 l-1 80
-7 -65 c-4 -36 -7 -58 -8 -50 -4 33 -24 92 -29 86 -3 -3 -14 -38 -24 -78 -17
-67 -18 -69 -14 -23 2 28 1 127 -3 220 l-7 170 -8 -260z m93 -470 c1 -137 6
-261 10 -275 7 -23 8 -23 9 -3 1 12 6 25 13 29 8 5 9 0 4 -17 -5 -13 -12 -44
-16 -69 l-7 -45 -2 43 c0 23 -5 42 -9 42 -9 0 -33 463 -31 595 l1 80 13 -65
c9 -43 14 -151 15 -315z m29 -120 c0 -49 -4 -99 -9 -110 -5 -12 -8 38 -8 130
0 106 3 138 9 110 4 -22 8 -80 8 -130z m-62 -37 c-2 -13 -4 -5 -4 17 -1 22 1
32 4 23 2 -10 2 -28 0 -40z m23 -213 c1 -27 -1 -68 -4 -90 l-5 -40 14 45 15
45 -4 -57 c-3 -32 -8 -63 -12 -70 -16 -25 -23 30 -22 172 0 113 2 134 9 95 4
-27 9 -72 9 -100z m50 -80 c0 -30 -4 -55 -10 -55 -11 0 -14 69 -4 94 11 27 14
18 14 -39z m-381 -130 c24 -55 126 -160 176 -180 37 -16 47 -35 18 -35 -34 0
-104 43 -146 90 -45 50 -69 93 -81 143 -10 43 11 32 33 -18z m646 13 c-16 -78
-91 -165 -180 -212 -57 -30 -65 -31 -65 -13 0 7 25 28 55 46 66 40 130 109
157 169 23 50 43 56 33 10z m-357 -78 l0 -25 -8 25 c-4 14 -8 36 -8 50 l0 25
8 -25 c4 -14 8 -36 8 -50z m42 10 l-11 -25 6 25 c2 14 5 34 6 45 2 19 2 19 6
0 2 -12 -1 -32 -7 -45z m-23 -37 c-3 -10 -5 -2 -5 17 0 19 2 27 5 18 2 -10 2
-26 0 -35z m80 -115 c-2 -18 -4 -6 -4 27 0 33 2 48 4 33 2 -15 2 -42 0 -60z
m-160 -5 c-2 -16 -4 -5 -4 22 0 28 2 40 4 28 2 -13 2 -35 0 -50z m-30 -210
c-3 -10 -5 -4 -5 12 0 17 2 24 5 18 2 -7 2 -21 0 -30z m33 -84 c0 -4 -7 -6
-15 -3 -8 4 -15 10 -15 15 0 4 7 6 15 3 8 -4 15 -10 15 -15z m137 -66 c-2 -16
-4 -3 -4 27 0 30 2 43 4 28 2 -16 2 -40 0 -55z m43 73 c0 -3 -4 -8 -10 -11 -5
-3 -10 -1 -10 4 0 6 5 11 10 11 6 0 10 -2 10 -4z m-103 -158 c-3 -8 -6 -5 -6
6 -1 11 2 17 5 13 3 -3 4 -12 1 -19z m59 -187 c15 -121 15 -121 -11 -243 -14
-68 -28 -136 -31 -151 -10 -48 -16 -22 -13 50 1 37 1 137 0 222 -2 85 0 183 4
219 6 59 8 62 21 44 8 -11 21 -75 30 -141z m44 37 c0 -15 -4 -28 -9 -28 -5 0
-11 -10 -13 -22 -3 -13 -6 7 -9 44 -4 63 -3 66 14 51 9 -9 17 -29 17 -45z"/>
<path d="M1321 764 c0 -11 3 -14 6 -6 3 7 2 16 -1 19 -3 4 -6 -2 -5 -13z"/>
<path d="M921 2804 c0 -11 3 -14 6 -6 3 7 2 16 -1 19 -3 4 -6 -2 -5 -13z"/>
<path d="M1293 2510 c0 -30 2 -43 4 -27 2 15 2 39 0 55 -2 15 -4 2 -4 -28z"/>
</g>
</svg>
