<?xml version="1.0" standalone="no"?>
<!DOCTYPE svg PUBLIC "-//W3C//DTD SVG 20010904//EN"
 "http://www.w3.org/TR/2001/REC-SVG-20010904/DTD/svg10.dtd">
<svg version="1.0" xmlns="http://www.w3.org/2000/svg"
 width="244.000000pt" height="305.000000pt" viewBox="0 0 244.000000 305.000000"
 preserveAspectRatio="xMidYMid meet">
<metadata>
Created by potrace 1.16, written by Peter Selinger 2001-2019
</metadata>
<g transform="translate(0.000000,305.000000) scale(0.100000,-0.100000)"
fill="#000000" stroke="none">
<path d="M1556 2898 c-4 -9 -5 -22 -1 -28 8 -13 8 -960 0 -968 -3 -3 -15 4
-28 16 -13 12 -29 22 -35 22 -6 0 -15 12 -18 26 -11 42 15 483 37 627 11 72
22 152 24 177 4 43 4 44 -5 10 -34 -124 -70 -511 -70 -756 l0 -102 30 -12 c17
-7 35 -21 41 -31 13 -25 37 -24 65 2 13 12 33 27 46 33 21 11 22 14 19 171 -3
233 -17 413 -46 576 -33 192 -50 259 -59 237z"/>
<path d="M896 2869 c-8 -43 -6 -58 4 -34 5 12 9 -182 9 -457 1 -263 -1 -478
-4 -478 -3 0 -23 12 -45 26 l-40 27 0 116 c0 169 17 383 44 571 24 165 27 215
7 122 -30 -141 -52 -350 -61 -582 -5 -139 -7 -257 -4 -262 3 -4 12 -8 19 -8 8
0 30 -14 50 -31 l35 -31 32 31 c17 17 40 33 50 37 15 5 18 17 18 87 0 138 -20
456 -35 567 -22 155 -56 330 -65 330 -4 0 -10 -14 -14 -31z"/>
<path d="M1302 2855 c0 -16 2 -22 5 -12 2 9 2 23 0 30 -3 6 -5 -1 -5 -18z"/>
<path d="M1162 2850 c-2 -12 -6 -347 -12 -942 -1 -71 -17 -38 -35 70 -17 109
-28 142 -38 125 -9 -15 -27 -133 -27 -180 0 -37 4 -45 29 -57 16 -9 31 -23 35
-31 11 -29 6 -81 -8 -101 -13 -16 -18 -17 -35 -6 -43 25 -54 5 -26 -48 19 -37
47 -39 73 -5 11 14 22 25 24 25 3 0 5 -27 5 -60 0 -58 -1 -60 -27 -60 -32 0
-66 -23 -56 -39 4 -6 12 -9 17 -6 5 4 9 -11 9 -31 l0 -38 -36 35 c-41 39 -74
98 -74 131 0 13 -9 31 -19 40 -25 21 -18 51 18 79 21 17 35 20 70 15 l43 -6
-6 32 c-8 40 -30 64 -64 71 -44 8 -71 -9 -94 -60 l-21 -48 -18 42 c-20 48 -43
63 -93 63 -45 0 -76 -29 -76 -70 0 -30 1 -30 40 -24 36 6 43 3 75 -29 37 -37
47 -77 19 -77 -14 0 -16 -9 -12 -53 5 -58 32 -120 79 -179 16 -20 29 -39 29
-41 0 -3 -16 -24 -36 -48 -28 -34 -34 -49 -32 -78 3 -31 9 -39 42 -55 44 -21
73 -12 68 20 -12 76 -13 102 -6 106 5 3 30 -1 57 -9 46 -13 47 -14 47 -56 0
-49 -19 -92 -40 -92 -9 0 -33 -8 -56 -18 -51 -23 -80 -13 -118 41 -24 35 -28
52 -32 133 -5 100 -13 119 -53 119 -32 0 -44 -8 -60 -38 -19 -36 -5 -77 67
-202 48 -84 67 -128 70 -162 5 -50 23 -14 -216 -440 -36 -65 -67 -116 -69
-115 -1 2 28 102 65 222 l67 218 43 15 c34 11 47 22 58 48 30 71 14 134 -53
220 -80 100 -95 167 -55 234 39 62 22 90 -56 90 -69 0 -89 -50 -56 -141 34
-92 13 -158 -63 -207 -108 -68 -323 -190 -323 -183 0 5 61 65 135 136 l135
127 46 -7 45 -6 -7 93 c-10 131 -25 157 -21 35 l3 -97 -32 6 c-29 5 -39 -1
-120 -77 -183 -171 -276 -261 -272 -265 2 -2 109 31 236 73 231 75 232 76 232
104 0 35 12 36 72 10 49 -21 92 -63 107 -104 14 -36 9 -43 -34 -57 -29 -10
-36 -18 -45 -53 -6 -23 -16 -55 -21 -72 -35 -103 -129 -430 -127 -440 3 -11
317 340 365 407 17 24 20 36 12 55 -22 58 -17 63 75 63 99 0 116 -5 117 -34 0
-11 3 -15 6 -8 8 21 23 13 23 -12 0 -14 -5 -37 -11 -53 -8 -22 -12 -25 -20
-13 -6 10 -8 -22 -5 -95 4 -68 2 -101 -3 -85 -6 17 -7 3 -4 -41 4 -44 2 -69
-6 -73 -6 -4 -10 -30 -10 -59 1 -48 3 -44 22 50 11 57 22 103 26 103 4 0 26
-98 50 -217 24 -120 47 -229 51 -242 4 -17 21 53 53 215 26 131 52 241 57 242
6 2 11 18 11 35 1 25 3 21 10 -18 5 -27 7 -61 4 -75 -2 -14 2 -50 10 -80 l15
-55 -5 50 c-3 28 -10 139 -16 249 -10 167 -9 200 2 207 8 5 53 9 102 9 96 0
100 -4 77 -65 -6 -15 -7 -33 -3 -40 5 -7 59 -71 122 -142 62 -70 140 -158 173
-195 33 -37 68 -78 78 -90 l19 -23 -6 25 c-16 75 -157 528 -169 547 -8 13 -23
23 -33 23 -84 0 -6 137 96 168 43 13 53 9 53 -22 0 -20 22 -29 233 -101 127
-43 239 -80 247 -82 16 -5 -26 36 -239 235 -117 110 -135 123 -163 120 l-31
-3 2 90 c2 96 -8 112 -15 23 -3 -29 -12 -75 -21 -103 l-16 -49 29 -22 c16 -13
85 -58 154 -101 69 -44 145 -92 168 -107 24 -15 42 -30 39 -32 -5 -5 -336 115
-354 129 -9 6 -10 15 -3 27 14 27 12 50 -5 50 -8 0 -22 11 -31 25 -19 30 -15
117 10 205 15 52 15 56 -2 80 -33 43 -142 37 -142 -8 0 -10 11 -34 25 -54 44
-64 29 -125 -56 -233 -54 -69 -75 -119 -82 -192 -4 -44 2 -59 61 -173 36 -69
68 -129 73 -135 18 -24 120 -218 116 -221 -2 -2 -69 74 -149 170 l-146 174 5
89 c6 131 18 167 88 283 78 130 90 176 51 215 -18 18 -35 25 -53 23 -25 -3
-28 -9 -41 -68 -7 -36 -11 -80 -8 -97 6 -43 -47 -124 -90 -136 -47 -14 -101
23 -114 76 -6 23 -15 52 -20 65 -8 19 -6 24 16 32 63 24 85 4 66 -64 -13 -50
2 -72 42 -62 72 18 85 80 31 143 -19 23 -35 43 -35 46 0 2 20 34 45 71 62 93
83 179 50 206 -23 19 -18 45 15 80 26 27 35 31 72 28 40 -3 43 -1 46 24 4 34
-36 78 -70 78 -35 0 -83 -34 -98 -69 -14 -34 -30 -41 -30 -13 0 9 -10 30 -23
46 -19 23 -31 29 -66 30 -34 0 -46 -4 -61 -24 -11 -14 -20 -37 -20 -51 0 -24
3 -25 51 -25 42 1 54 -3 70 -23 23 -28 25 -67 4 -75 -8 -3 -15 -18 -15 -33 0
-31 -29 -84 -68 -125 -33 -36 -42 -35 -42 2 0 24 4 30 22 30 l22 0 -20 21
c-12 11 -35 21 -52 21 l-32 1 0 60 0 61 29 -28 c36 -34 65 -29 80 16 14 40 7
49 -29 35 -39 -15 -50 -1 -50 66 0 44 3 49 35 68 40 24 42 41 25 164 -18 122
-34 103 -61 -70 -7 -44 -15 -83 -18 -87 -3 -4 -5 100 -3 230 1 130 -1 334 -6
452 l-9 215 -3 -275 c-2 -151 -5 -255 -7 -230 -4 59 -29 198 -50 280 l-17 65
-17 -58 c-9 -32 -21 -81 -25 -110 -7 -41 -11 -2 -20 188 -6 132 -11 233 -12
225z m67 -767 c1 -241 4 -440 7 -444 5 -8 -27 -17 -43 -12 -7 3 -15 20 -19 39
-8 41 3 107 17 99 5 -4 9 15 9 44 0 54 -12 72 -30 44 -10 -16 -11 -16 -4 2 4
11 11 119 15 240 4 121 14 265 23 319 9 55 16 101 16 103 0 1 1 3 3 3 2 0 4
-197 6 -437z m341 -481 c0 -38 -54 -129 -102 -174 -51 -48 -78 -60 -78 -35 0
7 31 44 68 82 44 46 72 84 81 112 14 41 31 49 31 15z m-640 -17 c15 -46 77
-123 123 -155 20 -14 37 -33 37 -42 0 -10 -3 -18 -6 -18 -14 0 -96 64 -118 93
-30 39 -65 115 -66 140 0 29 18 19 30 -18z m351 -28 c-8 -8 -11 -4 -11 14 0
33 14 47 18 19 2 -12 -1 -27 -7 -33z m-81 23 c0 -11 -4 -20 -10 -20 -5 0 -10
9 -10 20 0 11 5 20 10 20 6 0 10 -9 10 -20z m37 -97 c-3 -10 -5 -2 -5 17 0 19
2 27 5 18 2 -10 2 -26 0 -35z m-87 12 c16 -42 24 -155 11 -155 -6 0 -11 18
-11 44 0 26 -6 51 -15 60 -17 16 -21 76 -5 76 6 0 15 -11 20 -25z m200 -21 c0
-22 -4 -33 -12 -31 -9 1 -14 -14 -16 -45 -2 -27 -8 -48 -14 -48 -13 0 -4 89
13 138 14 40 29 32 29 -14z m-233 -106 c-3 -8 -6 -5 -6 6 -1 11 2 17 5 13 3
-3 4 -12 1 -19z m277 -170 c5 -10 4 -18 -2 -18 -12 0 -22 50 -21 99 2 32 3 30
9 -14 4 -27 10 -58 14 -67z m-47 80 c-3 -8 -6 -5 -6 6 -1 11 2 17 5 13 3 -3 4
-12 1 -19z m-171 -78 c16 0 18 -9 4 -30 -9 -13 -11 -13 -20 0 -5 8 -9 24 -9
35 0 11 3 14 6 8 2 -7 11 -13 19 -13z m161 -2 c-3 -8 -6 -5 -6 6 -1 11 2 17 5
13 3 -3 4 -12 1 -19z m-200 -10 c-3 -8 -6 -5 -6 6 -1 11 2 17 5 13 3 -3 4 -12
1 -19z m176 2 c-3 -11 -9 -20 -14 -20 -11 0 -11 3 -3 24 9 23 23 20 17 -4z
m59 -85 c-5 -16 -15 -31 -23 -33 -11 -4 -12 -2 -1 9 6 7 12 27 12 43 0 19 3
27 10 20 5 -5 6 -22 2 -39z m-262 23 c0 -7 3 -24 7 -38 6 -22 5 -24 -10 -11
-18 15 -23 61 -7 61 6 0 10 -6 10 -12z m127 -210 c-3 -8 -6 -5 -6 6 -1 11 2
17 5 13 3 -3 4 -12 1 -19z m102 -75 c1 -21 -17 -15 -24 7 -9 27 6 50 16 24 4
-10 8 -25 8 -31z m-110 -173 c-1 -162 -13 -374 -17 -313 -2 27 -35 195 -57
285 -13 60 -14 75 -1 129 15 64 53 119 68 97 4 -7 7 -96 7 -198z"/>
<path d="M1196 2018 c-5 -31 -5 -76 -2 -100 15 -98 18 -201 7 -194 -7 5 -11
-5 -11 -28 0 -20 4 -36 9 -36 18 0 22 84 14 250 -8 145 -10 158 -17 108z"/>
<path d="M1211 824 c0 -11 3 -14 6 -6 3 7 2 16 -1 19 -3 4 -6 -2 -5 -13z"/>
<path d="M1213 620 c0 -36 2 -50 4 -32 2 17 2 47 0 65 -2 17 -4 3 -4 -33z"/>
<path d="M1542 2840 c0 -14 2 -19 5 -12 2 6 2 18 0 25 -3 6 -5 1 -5 -13z"/>
<path d="M1293 2610 c0 -25 2 -35 4 -22 2 12 2 32 0 45 -2 12 -4 2 -4 -23z"/>
<path d="M1143 2475 c0 -38 2 -53 4 -32 2 20 2 52 0 70 -2 17 -4 1 -4 -38z"/>
<path d="M1060 1286 c0 -8 5 -18 10 -21 6 -3 10 1 10 9 0 8 -4 18 -10 21 -5 3
-10 -1 -10 -9z"/>
<path d="M1051 1244 c0 -11 3 -14 6 -6 3 7 2 16 -1 19 -3 4 -6 -2 -5 -13z"/>
<path d="M1041 1204 c0 -11 3 -14 6 -6 3 7 2 16 -1 19 -3 4 -6 -2 -5 -13z"/>
<path d="M1351 594 c0 -11 3 -14 6 -6 3 7 2 16 -1 19 -3 4 -6 -2 -5 -13z"/>
</g>
</svg>
