<?xml version="1.0" standalone="no"?>
<!DOCTYPE svg PUBLIC "-//W3C//DTD SVG 20010904//EN"
 "http://www.w3.org/TR/2001/REC-SVG-20010904/DTD/svg10.dtd">
<svg version="1.0" xmlns="http://www.w3.org/2000/svg"
 width="244.000000pt" height="305.000000pt" viewBox="0 0 244.000000 305.000000"
 preserveAspectRatio="xMidYMid meet">
<metadata>
Created by potrace 1.16, written by Peter Selinger 2001-2019
</metadata>
<g transform="translate(0.000000,305.000000) scale(0.100000,-0.100000)"
fill="#000000" stroke="none">
<path d="M888 2883 c-3 -16 -15 -73 -26 -128 -32 -153 -51 -327 -62 -585 -9
-212 -8 -236 6 -245 9 -5 35 -25 57 -43 34 -28 43 -31 51 -20 6 8 30 26 53 41
l41 26 -4 173 c-6 290 -25 460 -75 706 -22 104 -33 124 -41 75z m8 -980 c-2
-2 -23 8 -46 24 l-41 28 5 193 c8 231 19 358 52 556 13 81 25 151 26 155 2 3
4 -210 5 -473 2 -264 1 -481 -1 -483z"/>
<path d="M1548 2837 c-46 -171 -72 -400 -83 -729 l-7 -187 33 -14 c19 -8 42
-24 52 -35 l19 -21 45 35 c24 19 49 34 54 34 19 0 5 400 -22 615 -15 121 -57
347 -67 357 -4 4 -15 -20 -24 -55z m22 -457 c0 -333 -3 -480 -11 -480 -6 0
-26 12 -46 27 l-36 28 6 225 c5 204 19 348 47 515 18 105 31 165 36 165 2 0 4
-216 4 -480z"/>
<path d="M1331 2874 c0 -11 3 -14 6 -6 3 7 2 16 -1 19 -3 4 -6 -2 -5 -13z"/>
<path d="M1127 2738 c-4 -68 -10 -253 -14 -413 -4 -191 -9 -279 -15 -257 -18
69 -35 31 -45 -99 -5 -82 -5 -87 16 -98 11 -7 21 -21 21 -33 l0 -21 -22 20
c-52 46 -128 29 -148 -33 -12 -34 -30 -46 -30 -19 0 27 -53 75 -90 81 -50 8
-92 -26 -88 -70 3 -28 6 -31 35 -28 36 4 69 -11 95 -42 21 -26 23 -62 3 -70
-38 -14 -8 -124 60 -216 19 -26 35 -52 35 -57 0 -5 -13 -23 -29 -41 -34 -37
-45 -65 -37 -95 6 -25 54 -57 85 -57 24 0 25 -4 11 -31 -16 -30 -40 -23 -85
25 l-42 43 -7 99 c-5 82 -10 102 -26 116 -29 23 -74 7 -90 -33 -16 -39 -4 -83
46 -164 121 -196 122 -212 33 -365 -75 -129 -141 -244 -187 -330 -20 -35 -37
-60 -39 -54 -2 5 27 106 65 224 l68 215 47 13 c41 11 48 17 57 50 23 85 9 135
-64 224 -47 58 -76 120 -76 165 0 13 11 41 25 61 14 20 25 44 25 54 0 25 -34
39 -88 36 -41 -3 -49 -7 -61 -32 -12 -26 -11 -37 8 -96 25 -79 26 -108 5 -153
-17 -36 -20 -38 -139 -108 -224 -130 -258 -149 -262 -146 -3 4 164 163 249
237 34 28 42 31 78 25 l40 -7 0 45 c0 76 -12 167 -23 167 -6 0 -8 -32 -4 -90
l7 -91 -33 6 c-25 5 -38 1 -57 -17 -14 -13 -98 -90 -187 -172 -90 -82 -163
-153 -163 -158 0 -5 3 -7 8 -5 4 2 86 30 182 61 263 86 290 97 290 115 1 39
16 45 65 27 58 -23 104 -61 121 -103 20 -46 19 -48 -25 -61 l-38 -12 -37 -117
c-20 -65 -57 -181 -81 -258 -25 -78 -48 -157 -51 -175 l-7 -35 44 50 c24 27
89 99 144 160 55 61 127 141 159 178 l59 68 -12 40 c-7 21 -9 44 -6 49 3 6 42
10 86 10 l79 0 0 -41 c0 -35 -17 -254 -34 -434 l-5 -50 19 64 c11 36 17 75 14
87 -5 18 7 106 41 312 3 17 10 32 15 32 13 0 13 -83 0 -96 -5 -5 -12 -36 -15
-69 -4 -39 -3 -55 3 -47 6 9 21 -45 45 -170 56 -280 77 -381 81 -385 4 -4 108
511 110 544 2 46 22 -1 58 -140 33 -132 36 -138 37 -89 1 35 -3 51 -10 47 -7
-5 -9 13 -5 57 3 36 2 48 -2 28 -6 -29 -11 -8 -30 113 -13 82 -27 160 -31 175
-10 33 -4 52 15 52 9 0 14 -12 15 -37 l2 -38 6 40 6 40 55 5 c30 3 68 3 83 1
26 -3 28 -7 22 -30 -17 -70 -16 -75 21 -116 20 -22 84 -94 142 -160 59 -66
133 -147 165 -180 50 -53 56 -56 48 -30 -16 48 -132 425 -148 480 -19 62 -26
71 -63 79 -23 4 -30 11 -30 28 0 41 48 98 103 124 67 31 76 30 83 -4 6 -27 14
-32 162 -80 237 -79 315 -102 319 -99 2 2 -14 19 -34 38 -79 71 -171 156 -252
232 -78 73 -86 78 -117 73 l-33 -7 6 92 c5 69 3 90 -5 85 -7 -4 -12 -25 -12
-47 0 -23 -8 -69 -17 -105 -9 -35 -15 -65 -13 -67 3 -3 90 -58 194 -123 104
-65 184 -120 179 -121 -15 -5 -329 109 -345 125 -6 6 -6 18 2 32 10 19 8 25
-20 49 -43 36 -50 100 -21 185 26 74 26 101 1 126 -26 26 -89 27 -121 1 l-23
-19 27 -41 c47 -72 35 -144 -42 -236 -56 -68 -82 -124 -88 -193 -5 -57 -5 -57
97 -242 151 -273 151 -273 148 -282 -2 -4 -70 71 -151 168 -112 131 -147 179
-142 192 4 9 9 59 11 110 3 99 14 127 112 282 45 70 54 138 23 169 -23 23 -63
28 -78 9 -13 -16 -25 -86 -27 -154 -1 -38 -8 -59 -28 -86 -32 -42 -83 -65 -92
-41 -10 25 -7 29 29 42 20 7 43 23 51 37 20 29 9 61 -36 113 -17 18 -30 35
-30 36 0 1 14 20 31 41 50 63 79 128 79 180 0 31 -5 51 -16 58 -20 15 -5 56
32 85 21 17 39 21 69 19 34 -3 40 0 43 18 4 27 -35 71 -68 79 -34 8 -85 -25
-108 -71 l-19 -38 -12 36 c-6 20 -21 44 -32 54 -25 23 -82 23 -107 1 -23 -21
-32 -22 -32 -2 0 8 9 19 20 25 16 8 20 21 20 59 0 56 -18 162 -30 174 -10 11
-26 -42 -34 -111 -19 -154 -25 -67 -27 378 -2 434 -12 502 -19 130 -1 -69 -6
-136 -10 -150 -8 -25 -8 -25 -9 4 -1 16 -13 79 -28 140 l-26 111 -19 -60 c-10
-33 -24 -91 -30 -128 -8 -46 -15 -62 -19 -50 -4 10 -8 -43 -10 -117 -1 -74 -5
-182 -9 -240 -4 -65 -7 75 -8 368 0 261 -2 476 -5 478 -2 2 -7 -51 -10 -118z
m85 -613 c-5 -143 -10 -213 -11 -155 -1 72 -4 100 -11 90 -13 -20 -13 -187 0
-195 6 -3 10 -38 10 -76 0 -44 -4 -68 -10 -64 -5 3 -10 1 -10 -4 0 -6 -4 -11
-10 -11 -15 0 -12 27 6 45 12 12 14 26 9 58 -22 133 -14 388 18 592 12 78 12
79 15 30 1 -27 -2 -167 -6 -310z m-139 -361 c22 -4 37 -12 37 -21 0 -20 -30
-28 -52 -14 -26 16 -32 9 -24 -33 8 -43 36 -55 73 -31 25 17 26 17 20 0 -4 -9
-7 -30 -7 -46 0 -19 -6 -32 -17 -36 -30 -10 -53 -35 -53 -56 0 -20 0 -20 -21
-1 -26 22 -58 90 -59 120 0 12 -7 24 -15 28 -23 8 -18 37 12 68 28 29 42 32
106 22z m431 -25 c30 -35 33 -54 11 -67 -9 -4 -18 -22 -20 -39 -2 -18 -16 -50
-30 -74 l-27 -41 -19 31 c-13 21 -26 31 -44 31 -23 0 -25 3 -25 47 0 37 3 44
12 35 21 -21 47 -13 63 19 21 40 13 64 -16 49 -26 -14 -49 -6 -49 17 0 15 10
18 59 21 55 2 61 0 85 -29z m-324 -66 c0 -29 15 -22 23 12 3 11 5 1 6 -22 1
-46 -8 -53 -33 -27 -18 17 -22 64 -6 64 6 0 10 -12 10 -27z m-251 -97 c10 -25
38 -64 60 -89 24 -25 41 -54 41 -68 0 -22 -3 -21 -41 16 -38 37 -99 143 -99
173 0 26 20 10 39 -32z m373 -8 c-7 -7 -14 -3 -21 10 -9 17 -8 23 6 31 14 8
19 6 21 -11 2 -11 -1 -25 -6 -30z m249 -37 c-24 -46 -75 -107 -102 -122 -36
-19 -20 24 27 76 25 28 55 70 66 95 21 42 22 43 25 18 3 -14 -5 -45 -16 -67z
m-361 60 c0 -26 -16 -35 -24 -15 -10 25 -7 34 9 34 8 0 15 -9 15 -19z m-57
-108 c8 -45 5 -48 -22 -31 -15 9 -21 23 -21 51 0 34 2 37 19 28 10 -6 21 -26
24 -48z m105 11 c-3 -27 -4 -26 -9 8 -3 22 -1 34 4 29 5 -5 7 -21 5 -37z m152
0 c0 -12 -11 -29 -25 -38 -25 -16 -25 -16 -25 15 0 38 29 77 42 57 4 -7 8 -23
8 -34z m-343 -96 c-3 -7 -5 -2 -5 12 0 14 2 19 5 13 2 -7 2 -19 0 -25z m350
-10 c-3 -8 -6 -5 -6 6 -1 11 2 17 5 13 3 -3 4 -12 1 -19z m-307 -3 c0 -8 -2
-15 -4 -15 -2 0 -6 7 -10 15 -3 8 -1 15 4 15 6 0 10 -7 10 -15z m60 -22 c0
-20 -24 -11 -28 10 -2 12 1 15 12 11 9 -3 16 -13 16 -21z m200 13 c0 -8 -4
-17 -9 -21 -12 -7 -24 12 -16 25 9 15 25 12 25 -4z m-336 -42 c17 -7 22 -34 6
-34 -5 0 -10 -8 -10 -17 0 -10 -4 -25 -10 -33 -15 -23 -34 38 -21 67 12 25 12
26 35 17z m476 -40 c0 -36 -14 -46 -22 -16 -3 10 -13 19 -22 19 -22 0 -20 -24
3 -30 10 -2 21 -17 24 -33 3 -16 9 -42 13 -59 l6 -30 -27 26 c-26 25 -44 78
-45 128 0 13 3 22 6 18 4 -3 13 0 20 8 23 22 44 7 44 -31z m-318 4 c-9 -9 -12
-7 -12 12 0 19 3 21 12 12 9 -9 9 -15 0 -24z m138 11 c0 -11 -4 -18 -10 -14
-5 3 -7 12 -3 20 7 21 13 19 13 -6z m-263 -11 c-3 -8 -6 -5 -6 6 -1 11 2 17 5
13 3 -3 4 -12 1 -19z m52 -48 c0 -23 -1 -23 -9 -5 -5 11 -9 29 -9 40 -1 17 1
17 9 5 5 -8 9 -26 9 -40z m281 -20 c-7 -33 -15 -59 -17 -56 -2 2 1 32 8 65 6
34 14 59 17 57 3 -3 -1 -33 -8 -66z m-340 -35 c-6 -15 -13 -25 -16 -22 -3 3 0
22 8 43 7 20 14 30 16 22 2 -8 -2 -27 -8 -43z m304 8 c-9 -51 -17 -57 -45 -34
-20 17 -22 22 -10 33 11 11 14 11 18 0 6 -16 33 3 33 24 0 8 2 14 5 14 3 0 3
-17 -1 -37z m-237 -15 c-3 -7 -5 -2 -5 12 0 14 2 19 5 13 2 -7 2 -19 0 -25z
m51 20 c7 10 11 10 22 -3 10 -12 10 -18 0 -30 -24 -29 -50 -12 -50 33 0 15 2
15 10 2 8 -12 12 -12 18 -2z m79 -290 c-3 -8 -6 -5 -6 6 -1 11 2 17 5 13 3 -3
4 -12 1 -19z m-77 -54 c0 -8 -4 -14 -10 -14 -5 0 -10 9 -10 21 0 11 5 17 10
14 6 -3 10 -13 10 -21z m170 -6 c-1 -28 -2 -30 -11 -15 -6 10 -8 25 -5 33 9
24 16 16 16 -18z m-122 -25 c-8 -27 -7 -99 2 -256 7 -120 11 -220 8 -222 -2
-2 -17 58 -32 133 -15 75 -34 162 -42 193 -21 85 -18 104 22 149 20 22 40 40
44 40 5 0 4 -17 -2 -37z"/>
<path d="M1343 2695 c0 -27 2 -38 4 -22 2 15 2 37 0 50 -2 12 -4 0 -4 -28z"/>
<path d="M1152 2620 c0 -19 2 -27 5 -17 2 9 2 25 0 35 -3 9 -5 1 -5 -18z"/>
<path d="M1353 2440 c0 -36 2 -50 4 -32 2 17 2 47 0 65 -2 17 -4 3 -4 -33z"/>
<path d="M1403 800 c0 -25 2 -35 4 -22 2 12 2 32 0 45 -2 12 -4 2 -4 -23z"/>
<path d="M1413 690 c0 -25 2 -35 4 -22 2 12 2 32 0 45 -2 12 -4 2 -4 -23z"/>
<path d="M1091 668 c0 -9 -4 -25 -7 -35 -5 -17 -5 -17 6 0 6 10 9 25 7 35 -4
15 -5 15 -6 0z"/>
<path d="M1072 590 c0 -14 2 -19 5 -12 2 6 2 18 0 25 -3 6 -5 1 -5 -13z"/>
</g>
</svg>
