<?xml version="1.0" standalone="no"?>
<!DOCTYPE svg PUBLIC "-//W3C//DTD SVG 20010904//EN"
 "http://www.w3.org/TR/2001/REC-SVG-20010904/DTD/svg10.dtd">
<svg version="1.0" xmlns="http://www.w3.org/2000/svg"
 width="244.000000pt" height="305.000000pt" viewBox="0 0 244.000000 305.000000"
 preserveAspectRatio="xMidYMid meet">
<metadata>
Created by potrace 1.16, written by Peter Selinger 2001-2019
</metadata>
<g transform="translate(0.000000,305.000000) scale(0.100000,-0.100000)"
fill="#000000" stroke="none">
<path d="M1557 2895 c-13 -40 -47 -223 -62 -325 -19 -136 -42 -643 -29 -647 9
-3 53 -31 86 -55 13 -10 22 -6 52 20 20 18 44 32 53 32 31 0 0 528 -46 784
-11 59 -23 111 -27 115 -4 3 -4 -5 -1 -19 39 -165 83 -687 68 -802 -5 -39 -12
-52 -40 -73 -19 -14 -39 -25 -43 -25 -12 0 -10 948 2 952 6 2 6 15 1 33 -7 26
-9 27 -14 10z"/>
<path d="M886 2832 c-45 -199 -68 -409 -81 -739 l-7 -161 29 -18 c15 -10 40
-29 55 -42 l27 -25 32 31 c18 18 41 34 51 38 16 5 18 18 18 122 0 138 -15 382
-31 502 -13 101 -48 292 -54 299 -7 7 -7 5 19 -161 38 -238 50 -404 47 -650
-1 -67 -4 -88 -14 -88 -8 0 -22 -9 -32 -20 -10 -11 -23 -20 -29 -20 -12 0 -13
900 0 965 12 66 -14 37 -30 -33z"/>
<path d="M1121 2860 c-1 -25 -2 -234 -2 -465 -1 -351 -3 -409 -12 -355 -19
106 -41 75 -53 -77 -5 -59 -4 -83 5 -83 6 0 11 -6 11 -13 0 -9 -17 -12 -57
-12 l-58 0 -24 -49 -24 -49 -20 42 c-23 48 -48 65 -97 63 -42 -2 -70 -31 -70
-73 0 -28 1 -29 38 -23 32 5 43 2 70 -20 40 -35 49 -62 27 -86 -34 -38 -4
-144 66 -232 16 -20 29 -39 29 -41 0 -3 -16 -24 -35 -47 -44 -53 -48 -101 -10
-126 23 -15 35 -54 17 -54 -11 0 -57 50 -70 75 -5 11 -8 34 -5 50 2 17 -2 59
-10 95 -15 71 -28 81 -80 61 -19 -7 -28 -20 -33 -45 -7 -39 14 -88 101 -241
40 -71 45 -86 42 -130 -2 -27 -7 -59 -12 -69 -6 -13 -5 -17 2 -13 12 8 38 -75
30 -95 -5 -14 -200 -246 -261 -313 l-37 -40 34 65 c18 36 72 134 118 218 46
85 90 164 97 177 9 18 10 39 3 84 -12 76 -38 131 -95 201 -27 33 -50 75 -58
104 -12 46 -11 50 15 97 32 58 34 75 8 89 -23 12 -91 13 -107 2 -30 -20 -33
-48 -13 -123 32 -121 25 -189 -22 -204 -20 -7 -21 -15 -8 -64 3 -10 -31 -27
-116 -58 -66 -25 -144 -54 -173 -65 -29 -11 -55 -18 -58 -15 -3 3 34 30 83 60
154 95 293 186 293 193 0 3 -7 33 -15 67 -8 34 -18 85 -21 112 -6 47 -7 48
-15 21 -4 -16 -6 -32 -4 -35 2 -4 5 -33 6 -66 l3 -60 -32 3 c-28 3 -46 -10
-173 -130 -78 -73 -163 -152 -188 -175 -25 -23 -39 -42 -31 -42 8 0 116 35
240 77 216 74 225 78 228 105 4 31 12 32 67 9 59 -25 84 -45 105 -87 23 -45
18 -61 -26 -75 -31 -10 -35 -17 -55 -83 -20 -69 -32 -108 -86 -282 -13 -44
-33 -111 -43 -150 l-18 -70 60 65 c155 169 333 383 330 398 -2 10 -6 32 -9 50
l-5 32 71 0 c71 0 71 0 72 -27 1 -21 2 -23 6 -8 8 31 22 42 33 25 6 -8 8 -20
6 -26 -3 -7 -19 -92 -37 -190 -27 -141 -35 -173 -41 -149 -5 20 -6 13 -3 -22
2 -30 0 -53 -5 -53 -6 0 -10 -19 -9 -42 0 -38 4 -30 34 67 18 61 41 136 50
169 9 32 20 55 24 50 7 -8 41 -168 103 -492 11 -57 22 -102 23 -100 2 2 29
131 60 288 32 157 61 291 64 298 4 7 19 -28 36 -83 15 -52 30 -94 32 -91 3 3
-40 175 -69 268 -12 40 -2 124 12 98 13 -26 71 -360 65 -378 -3 -10 1 -36 9
-58 21 -55 20 -27 -4 206 -11 107 -20 207 -20 223 l0 28 73 -3 c58 -2 71 -6
69 -18 -19 -80 -19 -80 78 -190 173 -198 293 -330 297 -327 3 4 -13 62 -125
432 -38 127 -40 130 -73 141 -71 24 -36 109 64 157 61 30 87 26 87 -13 0 -13
28 -27 118 -58 257 -88 362 -120 355 -108 -5 7 -89 88 -188 180 -171 160 -181
167 -212 161 l-33 -6 7 91 c4 58 2 90 -4 90 -9 0 -23 -110 -23 -182 0 -29 1
-30 40 -23 31 5 45 3 64 -13 49 -38 266 -245 262 -249 -7 -8 -339 187 -372
218 -44 41 -50 87 -24 180 21 74 22 84 9 108 -17 30 -73 40 -120 20 -35 -14
-36 -23 -4 -74 44 -72 31 -131 -53 -242 -57 -77 -75 -126 -65 -183 9 -54 19
-67 66 -81 l44 -13 67 -213 c37 -118 66 -218 64 -223 -2 -6 -30 38 -62 97 -85
155 -179 317 -187 323 -4 3 -15 28 -24 55 -25 70 -17 101 62 235 58 99 67 121
68 164 0 43 -3 52 -26 64 -15 9 -36 12 -51 9 -22 -6 -26 -14 -33 -59 -4 -29
-8 -76 -9 -103 -1 -41 -7 -59 -34 -93 -36 -45 -49 -51 -59 -26 -3 10 7 27 31
48 50 46 50 45 -29 153 -15 20 -14 24 21 70 20 26 45 66 55 88 23 49 25 118 4
135 -22 18 -19 36 14 72 22 25 39 33 77 37 45 6 49 8 46 31 -9 84 -121 90
-163 8 -18 -36 -39 -43 -39 -14 0 47 -79 85 -128 63 -29 -13 -41 -1 -17 17 18
13 19 20 8 112 -6 55 -18 113 -26 129 -11 23 -16 98 -22 335 -4 168 -10 337
-14 375 l-8 70 -2 -55 c-3 -77 -1 -461 3 -675 4 -194 -1 -275 -15 -240 -4 11
-9 115 -10 230 -2 139 -5 188 -9 145 -4 -40 -7 -51 -8 -29 -3 48 -37 233 -54
289 l-14 45 -22 -90 c-26 -107 -42 -205 -42 -259 0 -22 -2 -37 -5 -34 -3 3
-10 124 -16 269 -11 274 -25 455 -28 369z m158 -550 c6 -47 12 -130 14 -185 2
-55 2 -82 -1 -60 -4 30 -9 7 -17 -85 l-12 -125 -2 201 c0 110 -3 250 -6 310
-5 119 5 96 24 -56z m-132 -442 c-3 -7 -5 -2 -5 12 0 14 2 19 5 13 2 -7 2 -19
0 -25z m180 0 c-3 -7 -5 -2 -5 12 0 14 2 19 5 13 2 -7 2 -19 0 -25z m-35 -29
c-13 -40 -14 -54 -4 -69 6 -11 9 -27 5 -35 -9 -25 -23 2 -23 45 0 43 18 110
30 110 4 0 1 -23 -8 -51z m-223 -75 c21 -5 31 -12 31 -25 0 -21 -20 -25 -38
-7 -9 9 -15 9 -23 1 -18 -18 8 -72 37 -79 34 -9 33 -59 -1 -86 -29 -22 -25
-38 9 -38 19 0 24 -7 29 -37 4 -20 4 -39 2 -41 -9 -9 -38 23 -52 56 -7 17 -20
32 -28 32 -19 0 -55 57 -55 86 0 12 -9 31 -20 44 -18 21 -18 25 -4 52 21 41
54 53 113 42z m432 -23 c34 -34 37 -56 9 -71 -12 -6 -20 -21 -20 -36 0 -35
-29 -94 -47 -94 -7 0 -27 10 -43 22 -24 17 -30 29 -30 60 0 27 4 36 14 32 17
-7 44 20 52 52 8 32 -2 41 -26 26 -28 -17 -42 -15 -38 5 3 17 34 30 76 32 14
1 36 -11 53 -28z m-354 -63 c-3 -8 -6 -5 -6 6 -1 11 2 17 5 13 3 -3 4 -12 1
-19z m149 -17 c12 10 13 8 7 -7 -17 -47 -43 -38 -42 14 1 37 1 37 11 9 8 -23
13 -26 24 -16z m31 17 c-3 -8 -6 -5 -6 6 -1 11 2 17 5 13 3 -3 4 -12 1 -19z
m-390 -107 c13 -26 34 -61 48 -77 14 -16 25 -37 25 -47 0 -16 -2 -17 -20 -4
-40 28 -90 114 -90 156 0 34 13 24 37 -28z m190 17 c-3 -7 -5 -2 -5 12 0 14 2
19 5 13 2 -7 2 -19 0 -25z m59 -6 c-17 -17 -36 -8 -36 18 0 17 3 18 25 8 22
-10 24 -13 11 -26z m384 12 c0 -27 -58 -131 -85 -154 -29 -24 -17 26 20 82 20
29 38 63 41 76 8 30 24 28 24 -4z m-250 2 c0 -8 -5 -18 -10 -21 -13 -8 -42 14
-34 26 9 15 44 10 44 -5z m-80 -67 c0 8 2 12 4 10 3 -2 1 -20 -4 -39 -5 -22
-8 -27 -9 -13 -1 12 -4 30 -7 40 -5 15 -4 15 5 3 9 -12 11 -13 11 -1z m161
-32 c-6 -14 -19 -31 -31 -37 -17 -9 -20 -8 -20 7 0 35 12 62 29 66 25 6 33 -7
22 -36z m-233 -77 c0 -8 -6 -1 -13 15 -8 17 -14 39 -14 50 0 13 5 8 14 -15 7
-19 13 -42 13 -50z m152 25 c-7 -25 -17 -48 -22 -52 -10 -6 -7 11 15 74 16 48
22 31 7 -22z m137 -17 c-3 -7 -5 -2 -5 12 0 14 2 19 5 13 2 -7 2 -19 0 -25z
m-400 -35 c-3 -10 -5 -4 -5 12 0 17 2 24 5 18 2 -7 2 -21 0 -30z m363 12 c0
-8 -4 -15 -10 -15 -5 0 -10 7 -10 15 0 8 5 15 10 15 6 0 10 -7 10 -15z m-290
-20 c7 -9 10 -18 7 -21 -10 -11 -37 5 -37 21 0 19 14 19 30 0z m240 -4 c0 -5
-6 -14 -14 -20 -16 -13 -32 2 -21 19 8 12 35 13 35 1z m-370 -68 c0 -19 -3
-24 -10 -17 -6 6 -8 18 -4 27 9 24 14 21 14 -10z m15 -72 c-6 -24 -7 -25 -17
-6 -8 14 -8 20 0 23 7 2 13 20 14 40 l1 37 4 -34 c3 -19 2 -45 -2 -60z m459
-42 c19 -28 23 -60 4 -41 -20 20 -38 85 -37 132 2 45 2 45 9 -11 4 -31 14 -67
24 -80z m6 101 c-18 -11 -24 -6 -16 16 5 14 9 15 19 5 9 -9 9 -14 -3 -21z
m-406 -32 c4 -24 9 -54 12 -68 3 -16 -1 -12 -9 10 -19 48 -31 113 -19 106 5
-3 12 -25 16 -48z m98 37 c0 -5 -5 -11 -11 -13 -6 -2 -11 4 -11 13 0 9 5 15
11 13 6 -2 11 -8 11 -13z m143 5 c3 -5 -1 -10 -10 -10 -9 0 -13 5 -10 10 3 6
8 10 10 10 2 0 7 -4 10 -10z m81 -80 l-15 -45 5 45 c3 25 8 54 12 65 l6 20 3
-20 c2 -11 -3 -40 -11 -65z m-275 -7 c11 -36 23 -42 33 -17 5 13 9 14 21 4 22
-18 19 -28 -15 -45 -27 -14 -30 -14 -39 4 -6 10 -13 45 -15 77 -3 33 -3 48 0
34 3 -14 10 -40 15 -57z m235 -19 c-9 -46 -26 -56 -55 -33 -13 11 -21 25 -17
34 7 19 25 19 32 0 12 -29 34 5 36 54 1 39 2 41 5 12 3 -19 2 -49 -1 -67z
m-356 -11 c-1 -13 -38 -53 -49 -53 -21 0 -11 41 12 50 28 11 37 12 37 3z m367
-100 c-3 -10 -5 -4 -5 12 0 17 2 24 5 18 2 -7 2 -21 0 -30z m-117 -152 c0 -9
-20 -37 -20 -29 0 3 -2 13 -5 21 -4 8 0 14 10 14 8 0 15 -3 15 -6z m-90 -60
c7 -14 4 -24 -10 -41 l-20 -23 0 47 c0 47 10 53 30 17z m180 -21 c0 -22 -2
-40 -5 -40 -11 0 -25 43 -20 60 11 34 25 22 25 -20z m-32 -32 c36 -46 37 -53
18 -128 -8 -30 -24 -107 -35 -170 -28 -157 -42 -196 -35 -105 21 322 23 378
14 395 -12 22 -13 50 -2 49 4 0 22 -18 40 -41z"/>
<path d="M1103 2625 c0 -27 2 -38 4 -22 2 15 2 37 0 50 -2 12 -4 0 -4 -28z"/>
<path d="M1322 2610 c0 -19 2 -27 5 -17 2 9 2 25 0 35 -3 9 -5 1 -5 -18z"/>
<path d="M1094 2325 c0 -71 1 -99 3 -62 2 37 2 96 0 130 -2 34 -3 4 -3 -68z"/>
<path d="M1042 830 c0 -19 2 -27 5 -17 2 9 2 25 0 35 -3 9 -5 1 -5 -18z"/>
<path d="M1033 750 c0 -25 2 -35 4 -22 2 12 2 32 0 45 -2 12 -4 2 -4 -23z"/>
<path d="M1023 650 c0 -25 2 -35 4 -22 2 12 2 32 0 45 -2 12 -4 2 -4 -23z"/>
<path d="M1461 424 c0 -11 3 -14 6 -6 3 7 2 16 -1 19 -3 4 -6 -2 -5 -13z"/>
</g>
</svg>
