<?xml version="1.0" standalone="no"?>
<!DOCTYPE svg PUBLIC "-//W3C//DTD SVG 20010904//EN"
 "http://www.w3.org/TR/2001/REC-SVG-20010904/DTD/svg10.dtd">
<svg version="1.0" xmlns="http://www.w3.org/2000/svg"
 width="244.000000pt" height="305.000000pt" viewBox="0 0 244.000000 305.000000"
 preserveAspectRatio="xMidYMid meet">
<metadata>
Created by potrace 1.16, written by Peter Selinger 2001-2019
</metadata>
<g transform="translate(0.000000,305.000000) scale(0.100000,-0.100000)"
fill="#000000" stroke="none">
<path d="M1187 2640 c-4 -151 -12 -311 -17 -355 -5 -44 -12 -160 -16 -258 -4
-98 -10 -174 -14 -170 -4 4 -15 53 -25 108 -30 178 -37 183 -60 39 -17 -103
-14 -117 25 -141 33 -19 45 -57 35 -104 -8 -35 -30 -47 -56 -31 -26 16 -29 15
-29 -11 0 -28 26 -67 46 -67 8 0 25 11 38 25 29 31 38 32 36 3 -4 -40 0 -72 7
-65 10 11 43 -24 43 -45 0 -22 -8 -23 -32 -1 -23 21 -75 19 -100 -4 -21 -19
-9 -33 28 -33 36 0 52 -30 59 -113 l7 -78 -38 16 c-22 9 -49 21 -62 26 -68 27
-184 184 -167 226 5 14 13 6 35 -38 33 -65 137 -165 184 -177 55 -15 41 14
-47 100 -72 70 -86 89 -92 125 -3 23 -13 47 -21 54 -21 18 -17 45 13 75 22 23
32 26 70 21 53 -6 62 7 39 51 -20 38 -29 44 -71 45 -41 1 -82 -32 -93 -77 l-8
-30 -25 44 c-42 77 -135 86 -164 17 -18 -44 -10 -56 34 -50 32 4 43 0 74 -27
39 -34 49 -73 21 -84 -38 -15 2 -151 67 -225 16 -19 29 -38 29 -44 0 -5 -13
-25 -30 -43 -58 -66 -50 -124 20 -145 56 -17 66 -5 51 56 -8 32 -8 51 -1 65
13 25 8 25 79 -4 53 -21 62 -22 80 -9 19 13 21 12 21 -3 0 -10 -3 -14 -7 -11
-11 12 -33 -14 -33 -39 0 -13 7 -27 16 -32 13 -7 15 -17 9 -43 -7 -29 -9 -31
-15 -14 -6 15 -10 7 -15 -32 -8 -58 -28 -62 -23 -4 l3 36 -50 -1 c-28 0 -65
-7 -82 -14 -32 -14 -34 -13 -69 20 -51 50 -55 61 -59 162 -2 49 -9 96 -16 104
-18 21 -65 17 -89 -8 -36 -39 -23 -90 59 -225 99 -165 99 -166 -20 -371 -97
-166 -107 -183 -159 -276 -19 -33 -35 -55 -37 -49 -2 6 21 87 51 179 87 267
77 246 125 262 48 16 71 54 71 116 0 50 -14 81 -71 154 -85 107 -98 165 -54
230 14 20 25 43 25 51 0 41 -104 57 -140 21 -25 -25 -25 -39 0 -118 40 -129
24 -157 -149 -259 -69 -41 -154 -90 -190 -109 l-66 -36 80 79 c44 43 109 105
144 137 62 56 66 58 108 52 50 -7 48 -11 37 127 -10 111 -28 99 -21 -14 l6
-90 -30 6 c-35 8 -30 12 -252 -192 -87 -80 -156 -147 -153 -150 2 -2 110 30
240 72 224 72 236 77 236 101 0 36 22 39 83 11 60 -27 107 -80 107 -120 0 -20
-7 -28 -34 -37 -22 -7 -38 -20 -44 -38 -24 -59 -163 -524 -160 -533 3 -8 374
397 391 428 5 8 4 28 -2 45 -20 57 -19 58 78 58 75 0 93 -3 121 -22 56 -39 59
-53 22 -91 l-33 -34 11 -59 c32 -158 39 -203 41 -254 1 -31 4 -44 7 -30 3 15
18 -38 38 -139 19 -91 36 -166 37 -168 3 -3 39 164 63 290 3 15 10 25 15 21 5
-3 9 17 9 44 0 40 21 172 44 274 2 10 -10 31 -26 48 -64 68 1 120 148 120 l87
0 -8 -32 c-16 -68 -14 -71 145 -249 213 -237 240 -266 240 -252 0 6 -37 128
-81 270 -45 142 -83 265 -86 274 -3 9 -23 24 -45 32 -34 14 -39 19 -33 39 17
56 71 106 137 127 44 14 58 9 58 -24 0 -25 8 -28 360 -141 l135 -43 -90 85
c-113 106 -230 213 -272 248 -26 22 -39 26 -62 21 l-30 -6 6 92 c5 69 3 90 -5
85 -7 -4 -12 -22 -12 -39 0 -18 -7 -59 -15 -90 -8 -32 -15 -66 -15 -76 0 -12
60 -54 190 -135 172 -107 237 -153 184 -132 -16 7 -99 37 -312 113 -42 15 -43
17 -38 48 6 28 2 38 -24 63 -37 37 -39 76 -10 177 11 38 20 78 20 87 0 47 -71
72 -134 48 -33 -12 -33 -35 -1 -82 44 -65 31 -123 -55 -232 -51 -65 -90 -157
-90 -211 0 -29 61 -146 252 -485 17 -31 14 -29 -31 18 -28 30 -98 110 -155
178 l-105 125 5 92 c8 140 10 147 83 269 38 62 71 128 75 145 10 46 -2 80 -34
93 -41 17 -63 9 -71 -25 -4 -17 -11 -48 -16 -71 -5 -22 -6 -49 -3 -60 11 -30
-8 -70 -51 -109 -44 -40 -53 -41 -97 -19 -17 8 -49 14 -69 12 -31 -2 -37 -7
-35 -22 4 -23 -6 -66 -16 -66 -8 0 -13 49 -13 135 0 35 -5 62 -12 67 -6 4 -9
8 -7 10 16 12 145 46 153 41 6 -3 7 -32 3 -69 -6 -56 -4 -63 12 -69 23 -7 63
7 85 30 26 25 20 58 -18 108 -19 25 -35 50 -35 55 0 5 14 27 31 48 45 57 69
109 76 164 5 40 3 51 -11 56 -26 10 -19 53 14 86 25 25 36 29 72 26 41 -3 43
-2 46 28 3 35 -20 61 -64 69 -40 8 -91 -26 -111 -73 l-16 -37 -11 32 c-17 49
-50 77 -91 77 -43 0 -75 -28 -78 -70 -2 -28 -1 -29 40 -26 37 3 47 -1 73 -26
33 -33 37 -53 16 -71 -8 -7 -17 -28 -21 -49 -9 -49 -53 -108 -118 -158 -57
-44 -79 -92 -35 -79 66 21 167 117 200 191 21 49 44 60 33 17 -26 -106 -114
-199 -224 -238 l-44 -15 5 75 c5 79 24 115 59 115 36 0 49 11 38 31 -12 24
-75 26 -107 3 -21 -14 -22 -14 -22 10 0 15 8 30 20 36 15 8 20 21 20 50 0 47
5 49 32 15 24 -31 52 -32 72 -3 15 20 22 68 11 68 -2 0 -16 -5 -31 -12 -23
-11 -28 -10 -40 7 -15 20 -19 72 -8 100 4 8 20 23 37 31 l30 16 -6 86 c-3 48
-11 101 -17 117 -11 27 -13 28 -20 10 -4 -11 -15 -65 -24 -119 -9 -55 -21
-106 -25 -114 -5 -8 -11 59 -15 154 -9 210 -35 487 -48 495 -5 3 -15 26 -23
50 l-13 44 -13 -50 c-13 -48 -14 -40 -19 155 l-5 205 -8 -275z m43 -352 c0
-154 -4 -228 -10 -218 -17 27 -12 450 6 450 2 0 4 -105 4 -232z m-40 -215 c-2
-177 8 -313 22 -313 6 0 7 -17 3 -39 -3 -22 -2 -56 4 -76 7 -27 7 -35 -2 -32
-14 4 -14 3 -22 140 -4 60 -11 107 -17 107 -6 0 -8 -20 -4 -52 17 -141 18
-180 4 -176 -10 4 -13 46 -11 209 1 204 11 389 19 389 3 0 5 -71 4 -157z m24
-198 c5 -29 4 -36 -3 -25 -6 8 -11 28 -11 44 0 39 6 31 14 -19z m36 -365 c1
14 4 19 7 12 6 -16 -16 -64 -27 -57 -4 2 -4 19 -2 37 5 32 6 32 13 8 l7 -25 2
25z m77 -352 c-3 -8 -6 -5 -6 6 -1 11 2 17 5 13 3 -3 4 -12 1 -19z m-153 -84
c12 -5 16 -20 16 -62 0 -61 -8 -63 -20 -5 -4 21 -11 46 -15 56 -8 18 -5 20 19
11z m140 -6 c-4 -7 -11 -28 -15 -48 -6 -34 -7 -33 -8 13 -1 36 2 47 15 47 9 0
12 -5 8 -12z m-94 -150 c0 -19 -2 -20 -10 -8 -13 19 -13 30 0 30 6 0 10 -10
10 -22z m17 0 c-3 -8 -6 -5 -6 6 -1 11 2 17 5 13 3 -3 4 -12 1 -19z m-10 -330
l1 -293 -30 135 -29 135 15 145 c15 148 22 183 35 175 5 -2 8 -136 8 -297z
m-54 144 c-3 -56 -9 -102 -13 -102 -4 0 -14 34 -22 75 -14 67 -13 77 1 97 l15
22 7 -24 c6 -22 7 -21 8 9 1 19 3 32 5 30 2 -2 2 -50 -1 -107z"/>
<path d="M1568 2405 c2 -278 0 -505 -3 -505 -3 0 -24 12 -47 27 l-41 28 6 215
c6 214 19 350 56 570 22 130 21 158 -2 48 -39 -186 -55 -319 -67 -563 -14
-295 -14 -302 11 -310 11 -4 35 -20 53 -36 l33 -29 34 30 c19 16 42 32 52 36
33 11 20 446 -23 713 -21 135 -49 262 -59 273 -3 4 -5 -220 -3 -497z"/>
<path d="M871 2798 c-46 -222 -65 -398 -76 -715 -5 -153 -4 -162 14 -168 11
-3 36 -19 56 -35 l38 -30 33 29 c18 16 40 34 49 39 15 8 17 29 17 158 0 259
-29 539 -79 752 -9 39 -20 72 -24 72 -3 0 -16 -46 -28 -102z m25 -895 c-2 -2
-22 9 -45 23 l-41 28 0 105 c0 211 29 511 68 716 l17 90 3 -479 c1 -264 1
-481 -2 -483z"/>
<path d="M1274 2700 c0 -102 2 -143 3 -92 2 50 2 134 0 185 -1 50 -3 9 -3 -93z"/>
</g>
</svg>
