<?xml version="1.0" standalone="no"?>
<!DOCTYPE svg PUBLIC "-//W3C//DTD SVG 20010904//EN"
 "http://www.w3.org/TR/2001/REC-SVG-20010904/DTD/svg10.dtd">
<svg version="1.0" xmlns="http://www.w3.org/2000/svg"
 width="244.000000pt" height="305.000000pt" viewBox="0 0 244.000000 305.000000"
 preserveAspectRatio="xMidYMid meet">
<metadata>
Created by potrace 1.16, written by Peter Selinger 2001-2019
</metadata>
<g transform="translate(0.000000,305.000000) scale(0.100000,-0.100000)"
fill="#000000" stroke="none">
<path d="M958 2905 c-3 -6 -9 -28 -12 -50 -4 -30 -3 -34 3 -15 6 15 9 -167 10
-458 l1 -483 -39 32 -40 31 4 82 c3 44 7 153 10 241 3 88 12 219 20 290 16
139 18 213 4 130 -18 -105 -30 -259 -39 -509 l-10 -260 46 -40 c33 -30 44 -46
39 -58 -7 -16 -10 -16 -37 7 -16 14 -40 25 -53 25 -28 0 -65 -43 -65 -76 0
-21 5 -24 34 -24 65 0 116 -71 80 -111 -13 -14 -15 -28 -9 -65 6 -39 4 -48
-14 -60 -11 -8 -21 -27 -23 -42 -2 -15 -8 -26 -15 -25 -7 2 -13 -2 -13 -8 0
-6 -7 -17 -15 -25 -10 -11 -15 -36 -15 -80 0 -71 -14 -84 -29 -26 -16 56 -14
78 14 130 l25 47 -21 17 c-33 28 -85 23 -106 -8 -15 -23 -15 -32 -4 -83 7 -31
15 -81 18 -113 5 -56 5 -57 -38 -100 -24 -24 -69 -60 -99 -80 -30 -21 -88 -61
-128 -89 -40 -29 -74 -50 -76 -48 -4 4 10 21 161 187 72 80 78 83 110 77 l33
-6 -1 68 c0 37 -4 86 -9 108 -7 33 -8 24 -8 -50 l1 -90 -32 0 c-20 0 -38 -7
-46 -19 -8 -10 -45 -53 -83 -95 -159 -175 -211 -235 -208 -238 4 -4 323 120
364 141 18 9 32 13 32 9 0 -5 -16 -34 -35 -67 -20 -32 -34 -60 -32 -63 2 -2
47 21 100 52 53 30 100 55 106 55 13 0 17 -8 25 -45 6 -28 3 -33 -26 -47 l-33
-15 -68 -269 c-37 -148 -70 -280 -73 -294 l-5 -25 16 21 c107 144 208 282 215
294 18 31 16 1 -6 -130 -12 -74 -21 -136 -19 -139 2 -2 52 92 110 209 102 205
105 214 99 261 -6 47 -5 49 17 49 35 0 88 -36 95 -65 4 -18 -1 -33 -18 -54
l-25 -29 43 -258 c24 -143 48 -290 55 -327 6 -38 12 -67 14 -65 4 4 91 530
101 606 6 49 4 55 -21 82 -21 22 -25 32 -17 47 18 32 48 54 87 60 l38 6 -6
-52 c-6 -52 -4 -57 100 -267 59 -118 110 -214 113 -214 4 0 -2 48 -12 108 -11
59 -21 125 -24 147 l-5 40 18 -25 c10 -13 54 -73 98 -132 44 -59 86 -115 92
-125 20 -28 8 35 -49 257 -77 301 -75 297 -103 304 -21 5 -25 13 -25 42 0 38
21 54 49 37 9 -5 36 -21 61 -35 25 -14 67 -39 95 -56 27 -17 51 -29 54 -27 2
3 -14 35 -37 72 -22 37 -39 70 -37 71 2 2 41 -12 87 -31 118 -51 262 -107 265
-103 1 1 -27 36 -64 77 -36 40 -103 118 -150 172 -71 82 -89 97 -111 95 l-26
-3 1 95 c1 89 1 91 -8 40 -5 -30 -14 -82 -20 -115 l-11 -60 35 -30 c19 -16 69
-57 112 -90 131 -102 164 -129 161 -133 -5 -4 -256 107 -274 122 -9 6 -12 20
-8 38 4 21 -1 34 -19 52 -21 21 -25 35 -25 82 0 31 7 83 16 117 18 69 13 102
-17 118 -27 14 -88 3 -96 -18 -4 -9 3 -33 15 -54 24 -41 29 -107 12 -140 -19
-35 -33 -22 -26 26 8 50 -10 115 -31 115 -8 0 -13 12 -13 28 0 31 -16 52 -40
52 -14 0 -16 9 -12 54 3 33 0 56 -7 60 -19 12 -12 53 15 86 22 25 32 30 63 28
33 -3 36 -1 33 22 -6 45 -29 70 -66 70 -18 0 -39 -7 -46 -15 -17 -21 -30 -19
-30 5 0 10 16 32 35 47 l36 28 -2 175 c-3 211 -21 448 -50 630 -18 115 -38
193 -39 153 0 -6 -3 -20 -6 -30 -5 -15 -4 -15 5 -3 8 11 11 -120 11 -468 0
-383 -3 -483 -12 -480 -10 4 -15 99 -23 394 -5 214 -12 383 -15 375 -3 -8 -12
41 -19 108 -7 67 -15 120 -17 118 -3 -2 -5 -229 -5 -503 0 -452 -1 -496 -15
-471 -12 22 -29 122 -35 207 0 8 -9 -14 -19 -50 l-18 -65 -1 43 c-1 50 -20 49
-22 -1 -1 -18 -5 24 -10 93 -12 206 -53 468 -69 439 -23 -43 -58 -331 -61
-494 -1 -57 -3 -64 -9 -37 -12 50 -20 50 -20 1 -1 -28 -4 -39 -9 -29 -17 32
-31 163 -35 340 -5 174 -30 462 -45 501 -3 10 -5 -149 -5 -354 1 -321 0 -348
-7 -202 -8 160 -12 202 -39 397 -16 116 -35 204 -42 193z m272 -861 c0 -387
-2 -434 -15 -420 -12 11 -15 40 -15 125 0 62 -4 112 -10 116 -6 4 -9 54 -8
123 l2 117 6 -120 c5 -112 5 -104 13 120 7 233 16 375 23 375 2 0 4 -196 4
-436z m-43 74 c-3 -7 -5 -2 -5 12 0 14 2 19 5 13 2 -7 2 -19 0 -25z m-162
-239 c0 -8 -12 -15 -30 -17 -30 -4 -30 -4 -11 17 21 23 41 23 41 0z m450 0 c0
-8 -10 -15 -22 -17 -25 -4 -30 7 -11 26 15 15 33 10 33 -9z m-71 -4 c3 -9 0
-15 -9 -15 -8 0 -15 7 -15 15 0 8 4 15 9 15 5 0 11 -7 15 -15z m-304 -5 c0 -5
-7 -10 -15 -10 -8 0 -15 5 -15 10 0 6 7 10 15 10 8 0 15 -4 15 -10z m25 -129
c-3 -12 -13 -21 -21 -21 -20 0 -17 38 4 42 23 6 25 3 17 -21z m243 17 c15 -15
16 -38 1 -38 -16 0 -41 29 -34 40 8 13 18 13 33 -2z m-342 -66 c7 -34 -5 -42
-25 -18 -13 16 -3 72 10 59 5 -5 12 -23 15 -41z m454 -3 c0 -3 -6 -12 -14 -18
-17 -14 -30 12 -20 42 6 20 7 20 20 2 8 -10 14 -22 14 -26z m-293 -26 c-3 -10
-5 -4 -5 12 0 17 2 24 5 18 2 -7 2 -21 0 -30z m-43 -9 c9 -3 16 -12 16 -20 0
-7 9 -18 21 -24 11 -7 27 -27 35 -46 8 -19 16 -34 19 -34 3 0 11 15 19 34 8
19 24 39 35 46 12 6 21 17 21 25 0 17 31 28 54 19 12 -5 16 -16 14 -38 -3 -29
-6 -31 -48 -34 -56 -4 -64 -11 -81 -69 l-13 -47 -15 46 c-23 67 -37 80 -85 76
-39 -3 -41 -2 -44 29 -2 23 1 32 15 36 10 3 19 5 20 6 1 0 8 -2 17 -5z m-159
-81 c10 -26 31 -68 47 -92 35 -57 38 -84 4 -52 -32 30 -76 123 -76 160 0 17 2
31 4 31 2 0 11 -21 21 -47z m89 -28 c6 -28 5 -29 -9 -11 -8 11 -15 36 -14 55
1 32 2 33 8 11 4 -14 11 -38 15 -55z m351 43 c-8 -36 -34 -92 -40 -86 -2 2 2
22 10 43 8 22 14 48 15 58 0 9 5 17 11 17 7 0 8 -12 4 -32z m85 5 c0 -16 -9
-47 -20 -71 -21 -46 -70 -115 -77 -108 -3 2 14 41 36 87 23 45 41 90 41 101 0
10 5 18 10 18 6 0 10 -12 10 -27z m-358 -80 c20 -23 32 -63 20 -63 -9 0 -52
63 -52 76 0 10 18 3 32 -13z m191 0 c-10 -29 -35 -63 -44 -63 -10 0 6 47 23
67 15 19 28 16 21 -4z m204 -96 c7 -44 -5 -129 -17 -122 -5 3 -7 26 -3 50 3
24 0 58 -6 75 -11 34 -6 59 10 43 6 -6 12 -26 16 -46z m-591 21 c-3 -13 -6
-49 -6 -80 0 -32 -4 -58 -9 -58 -15 0 -24 102 -12 133 13 33 36 37 27 5z m234
-74 c0 -12 -4 -13 -21 -3 -17 9 -19 13 -8 19 16 11 29 4 29 -16z m124 5 c-9
-15 -34 -10 -28 5 3 8 12 12 20 9 8 -3 11 -9 8 -14z m-278 -75 c-4 -20 -10
-34 -12 -31 -3 3 -2 21 2 41 3 21 9 35 11 32 3 -3 2 -21 -1 -42z m401 14 c-3
-8 -6 -5 -6 6 -1 11 2 17 5 13 3 -3 4 -12 1 -19z m-284 -8 c17 0 17 -1 3 -16
-24 -23 -20 -53 9 -64 17 -7 25 -17 25 -34 0 -28 -19 -38 -37 -21 -7 7 -31 10
-62 7 -50 -4 -51 -4 -51 24 0 22 3 25 12 16 7 -7 20 -12 31 -12 17 0 18 5 11
57 -7 56 -6 56 17 50 13 -4 32 -7 42 -7z m223 -44 c-7 -59 2 -73 32 -57 22 12
33 5 25 -15 -4 -10 -23 -14 -64 -14 -32 0 -59 -4 -59 -10 0 -5 -7 -7 -15 -4
-25 10 -18 53 10 64 27 10 35 53 13 66 -9 6 -5 10 12 15 52 14 53 13 46 -45z
m-538 2 c7 -7 12 -21 12 -32 0 -20 -2 -19 -20 4 -11 14 -20 28 -20 33 0 11 15
8 28 -5z m162 -88 c6 -11 8 -20 6 -20 -3 0 -10 9 -16 20 -6 11 -8 20 -6 20 3
0 10 -9 16 -20z m481 -7 c-12 -20 -14 -14 -5 12 4 9 9 14 11 11 3 -2 0 -13 -6
-23z m-780 -36 c-8 -8 -11 -7 -11 4 0 20 13 34 18 19 3 -7 -1 -17 -7 -23z
m215 -23 c26 -63 18 -103 -52 -250 -82 -172 -121 -256 -145 -313 -23 -52 -33
-49 -20 5 27 113 94 361 102 377 6 9 16 17 23 17 7 0 26 10 41 21 26 21 27 25
23 105 -3 85 4 95 28 38z m-146 30 c0 -11 -72 -93 -95 -108 -20 -13 -18 -6 17
49 26 41 48 65 60 65 10 0 18 -3 18 -6z m801 -41 c-26 -91 -9 -144 143 -467
31 -66 54 -121 52 -123 -2 -2 -47 58 -99 134 -84 122 -96 146 -106 203 -7 36
-17 88 -23 117 -13 61 -6 124 17 159 22 34 29 25 16 -23z m207 -35 c30 -33 52
-62 49 -64 -4 -5 -138 77 -161 97 -6 5 -2 16 8 28 22 25 32 19 104 -61z m-539
-118 c5 0 13 15 17 33 4 17 9 27 11 20 5 -14 -26 -83 -36 -83 -9 0 -31 61 -30
81 0 8 7 -1 15 -18 8 -18 18 -33 23 -33z m241 -47 c8 -27 35 -113 60 -193 70
-216 67 -221 -22 -40 -73 148 -82 171 -81 218 3 87 22 94 43 15z m-474 31 c-3
-9 -9 -27 -12 -40 -8 -33 -20 -30 -28 7 -7 38 -1 49 26 49 14 0 18 -5 14 -16z
m223 -306 c-1 -150 -4 -264 -6 -253 -2 11 -14 110 -26 219 l-23 199 26 53 c14
30 26 54 28 54 1 0 1 -123 1 -272z m-308 46 c-50 -148 -57 -145 -25 10 12 61
59 154 71 142 2 -2 -18 -71 -46 -152z m246 73 l2 -82 -13 65 c-10 48 -11 69
-2 82 6 10 11 18 11 18 0 0 1 -37 2 -83z m10 -124 c-3 -10 -5 -4 -5 12 0 17 2
24 5 18 2 -7 2 -21 0 -30z"/>
<path d="M1032 2785 c0 -16 2 -22 5 -12 2 9 2 23 0 30 -3 6 -5 -1 -5 -18z"/>
<path d="M1481 2794 c0 -11 3 -14 6 -6 3 7 2 16 -1 19 -3 4 -6 -2 -5 -13z"/>
<path d="M932 2780 c0 -14 2 -19 5 -12 2 6 2 18 0 25 -3 6 -5 1 -5 -13z"/>
<path d="M1402 2770 c0 -14 2 -19 5 -12 2 6 2 18 0 25 -3 6 -5 1 -5 -13z"/>
<path d="M1472 2715 c0 -16 2 -22 5 -12 2 9 2 23 0 30 -3 6 -5 -1 -5 -18z"/>
<path d="M1022 2680 c0 -14 2 -19 5 -12 2 6 2 18 0 25 -3 6 -5 1 -5 -13z"/>
<path d="M1391 2684 c0 -11 3 -14 6 -6 3 7 2 16 -1 19 -3 4 -6 -2 -5 -13z"/>
<path d="M1382 2530 c0 -14 2 -19 5 -12 2 6 2 18 0 25 -3 6 -5 1 -5 -13z"/>
<path d="M1374 2345 c0 -49 1 -71 3 -48 2 23 2 64 0 90 -2 26 -3 8 -3 -42z"/>
</g>
</svg>
