<?xml version="1.0" standalone="no"?>
<!DOCTYPE svg PUBLIC "-//W3C//DTD SVG 20010904//EN"
 "http://www.w3.org/TR/2001/REC-SVG-20010904/DTD/svg10.dtd">
<svg version="1.0" xmlns="http://www.w3.org/2000/svg"
 width="244.000000pt" height="305.000000pt" viewBox="0 0 244.000000 305.000000"
 preserveAspectRatio="xMidYMid meet">
<metadata>
Created by potrace 1.16, written by Peter Selinger 2001-2019
</metadata>
<g transform="translate(0.000000,305.000000) scale(0.100000,-0.100000)"
fill="#000000" stroke="none">
<path d="M1162 2885 c0 -16 2 -22 5 -12 2 9 2 23 0 30 -3 6 -5 -1 -5 -18z"/>
<path d="M1568 2905 c-9 -14 -54 -252 -67 -350 -18 -140 -21 -175 -27 -405
l-6 -225 38 -23 c22 -12 47 -28 56 -34 14 -10 22 -8 45 14 15 14 38 29 51 33
21 6 22 12 22 93 -1 143 -19 441 -35 542 -20 139 -47 281 -52 277 -2 -2 5 -60
16 -128 32 -202 41 -294 49 -479 11 -246 9 -262 -39 -294 -21 -14 -41 -26 -44
-26 -3 0 -5 214 -5 476 0 314 3 473 10 469 11 -7 11 8 1 45 -4 14 -10 20 -13
15z"/>
<path d="M876 2828 c-48 -211 -69 -401 -82 -724 l-6 -172 28 -18 c16 -10 41
-29 56 -42 l27 -25 34 29 c19 16 42 34 53 40 17 10 19 23 17 155 -2 79 -7 209
-13 289 -10 143 -54 436 -71 475 -8 16 -8 14 -4 -8 39 -197 74 -569 75 -789
l0 -86 -37 -23 c-21 -13 -42 -25 -46 -27 -4 -2 -7 221 -5 497 2 276 0 501 -3
501 -4 0 -14 -33 -23 -72z"/>
<path d="M1300 2795 c-1 -44 -2 -163 -2 -265 0 -102 -2 -171 -4 -155 -7 46
-45 198 -53 212 -4 8 -18 -26 -33 -84 l-26 -98 -3 160 c-3 158 -3 158 -10 -80
-3 -132 -8 -274 -10 -315 l-3 -75 -6 100 c-5 73 -7 45 -6 -108 1 -114 -2 -207
-5 -207 -9 0 -19 28 -19 53 0 34 -33 167 -41 167 -10 0 -16 -22 -30 -119 -14
-91 -17 -84 45 -124 24 -16 31 -96 11 -123 -12 -16 -17 -17 -34 -6 -31 18 -41
15 -41 -13 0 -30 36 -69 57 -61 8 3 18 6 23 6 4 0 10 9 13 20 11 41 25 18 26
-41 0 -51 -2 -60 -17 -58 -34 3 -51 -1 -68 -18 -16 -17 -16 -18 7 -23 18 -4
24 -13 25 -33 2 -42 -11 -41 -56 5 -41 42 -70 95 -70 126 0 8 -7 23 -16 33
-38 42 25 107 92 96 40 -7 44 -2 32 41 -20 76 -131 74 -159 -2 -16 -44 -23
-45 -39 -5 -17 40 -53 63 -98 61 -43 -2 -72 -27 -75 -68 -2 -28 -1 -29 41 -26
37 3 46 0 77 -31 37 -37 45 -71 19 -81 -13 -5 -16 -16 -12 -55 5 -54 34 -116
79 -173 16 -20 29 -39 29 -41 0 -2 -16 -24 -35 -48 -58 -73 -43 -129 37 -144
46 -9 54 5 39 63 -6 22 -8 47 -5 56 8 20 44 21 89 2 30 -13 35 -20 35 -49 0
-50 -19 -99 -37 -93 -7 3 -37 -3 -66 -14 -29 -11 -55 -20 -59 -20 -14 0 -79
63 -93 91 -8 15 -12 40 -10 56 3 15 -1 57 -8 93 -12 59 -16 65 -41 68 -15 2
-39 -4 -53 -13 -41 -27 -29 -92 39 -207 86 -145 90 -155 94 -237 1 -42 6 -92
9 -111 6 -33 1 -41 -101 -160 -138 -161 -185 -212 -190 -208 -2 2 19 44 47 94
28 49 64 114 81 144 17 30 51 91 76 134 35 63 44 89 44 124 -2 70 -30 141 -84
209 -83 105 -98 170 -53 235 14 20 25 41 25 47 0 20 -45 41 -87 41 -73 0 -89
-48 -53 -156 31 -94 25 -136 -28 -180 -21 -17 -23 -23 -13 -42 16 -30 10 -37
-47 -57 -26 -9 -96 -35 -157 -56 -60 -22 -119 -43 -129 -46 -44 -14 3 20 153
112 88 54 172 108 187 120 l28 22 -17 60 c-9 32 -17 75 -18 94 0 19 -5 43 -10
54 -6 13 -8 -12 -5 -78 l3 -97 -32 6 c-31 6 -42 -3 -224 -167 -105 -94 -189
-174 -187 -176 4 -4 208 58 404 124 71 24 82 30 82 50 0 36 25 38 88 7 60 -31
102 -79 102 -120 0 -17 -9 -25 -34 -34 -29 -9 -37 -19 -54 -68 -39 -106 -163
-512 -157 -512 5 0 100 102 259 279 105 117 145 168 141 180 -4 9 -9 31 -12
49 l-6 34 101 -4 c81 -2 104 -7 121 -22 22 -20 27 -61 11 -86 -8 -12 -10 -10
-11 10 -1 14 -5 3 -10 -25 -6 -34 -6 -62 2 -87 9 -28 9 -54 0 -110 -7 -40 -14
-100 -16 -133 -4 -57 -3 -56 14 27 10 49 20 90 23 93 3 3 13 -31 22 -77 17
-93 75 -368 79 -382 2 -5 15 51 31 125 15 74 34 163 41 199 8 36 17 83 21 104
4 27 8 35 14 26 6 -10 9 -9 13 6 2 10 2 0 0 -23 -2 -24 1 -44 7 -48 11 -7 7
158 -7 320 -5 58 -4 61 21 73 27 12 188 17 199 6 3 -3 -1 -23 -8 -45 -14 -38
-13 -40 20 -84 19 -24 42 -53 52 -63 37 -37 212 -229 264 -288 30 -34 56 -60
58 -58 5 4 -169 557 -180 570 -5 7 -23 14 -39 18 -39 7 -40 39 -1 93 20 28 44
45 82 60 61 23 79 21 79 -11 0 -20 15 -27 133 -65 72 -24 173 -57 222 -73 163
-54 158 -55 90 10 -34 31 -121 112 -195 180 -129 117 -137 123 -169 117 l-33
-6 6 83 c4 46 2 89 -3 97 -6 9 -11 -11 -16 -65 -13 -152 -16 -139 33 -136 49
4 52 2 197 -133 55 -51 111 -102 125 -114 18 -14 21 -20 10 -21 -9 0 -20 4
-25 9 -10 8 -60 37 -153 87 -126 69 -214 128 -227 155 -19 36 -19 95 0 149 20
57 19 103 -3 123 -25 23 -94 22 -122 -1 l-23 -19 27 -45 c28 -48 33 -98 15
-145 -6 -15 -37 -63 -70 -105 -57 -74 -59 -78 -59 -137 0 -87 10 -106 64 -121
l46 -13 70 -217 c38 -120 70 -221 70 -226 0 -14 -27 28 -122 194 -50 86 -110
191 -134 232 -56 96 -57 130 -8 219 20 36 52 90 72 119 43 66 55 141 27 172
-18 20 -60 26 -81 12 -12 -8 -25 -79 -28 -153 -2 -55 -43 -121 -85 -139 -24
-9 -36 -7 -83 13 l-56 25 -10 58 c-6 33 -7 62 -4 66 4 4 25 10 48 14 50 7 60
-8 43 -68 -5 -22 -8 -46 -5 -54 13 -33 108 3 118 44 7 25 -13 67 -49 104 -24
25 -25 30 -13 53 7 14 17 25 21 25 4 0 22 25 39 55 39 67 55 175 26 175 -27 0
-18 40 18 76 29 29 41 34 80 34 38 0 46 3 46 19 0 28 -37 69 -69 76 -41 9 -85
-16 -105 -60 -21 -43 -32 -44 -41 -6 -8 35 -22 49 -65 61 -44 13 -89 -10 -97
-50 -8 -44 -6 -45 42 -42 37 3 49 -1 70 -22 28 -28 32 -58 10 -76 -8 -7 -15
-25 -15 -40 0 -40 -48 -108 -113 -159 -15 -12 -17 -10 -17 23 0 30 4 37 25 42
14 3 25 9 25 11 0 14 -38 32 -67 33 l-31 0 3 58 c2 31 4 59 4 62 1 3 10 -5 21
-18 10 -13 30 -25 44 -28 20 -3 26 2 39 33 18 44 9 60 -23 43 -32 -17 -46 -7
-53 39 -7 58 0 77 38 100 33 19 33 20 29 78 -6 76 -23 163 -33 163 -4 0 -13
-28 -19 -62 -6 -35 -17 -91 -23 -125 -6 -35 -15 -63 -18 -63 -4 0 -9 161 -10
358 -4 383 -16 722 -21 577z m-31 -400 c6 -33 12 -121 12 -195 2 -93 4 -121 9
-90 5 31 7 8 8 -75 0 -74 -3 -110 -8 -95 -7 21 -8 21 -9 5 0 -11 6 -38 14 -60
8 -22 14 -53 14 -70 -1 -32 -3 -28 -13 18 -4 15 -11 27 -16 27 -13 0 -13 -97
-1 -102 5 -2 10 -16 11 -33 4 -66 0 -90 -20 -103 -19 -12 -20 -10 -19 35 1 41
2 44 8 18 l7 -30 7 25 c10 35 9 62 -2 56 -11 -7 -19 183 -24 549 -2 151 0 250
4 225 4 -25 13 -72 18 -105z m308 -803 c-7 -55 -70 -145 -131 -187 -28 -19
-55 -35 -59 -35 -21 0 0 29 62 87 47 42 79 82 96 118 14 30 28 55 32 55 3 0 3
-17 0 -38z m-643 -28 c26 -50 136 -164 158 -164 4 0 8 -7 8 -15 0 -23 -21 -18
-72 18 -71 51 -122 119 -133 181 -10 52 6 44 39 -20z m233 24 c-3 -8 -6 -5 -6
6 -1 11 2 17 5 13 3 -3 4 -12 1 -19z m32 -26 c0 -24 -1 -25 -9 -7 -12 28 -12
47 0 40 6 -3 10 -18 9 -33z m85 11 c-10 -40 -14 -41 -14 -5 0 18 5 32 10 32 6
0 8 -11 4 -27z m-47 -95 c-2 -13 -4 -5 -4 17 -1 22 1 32 4 23 2 -10 2 -28 0
-40z m-69 -75 c3 -43 1 -63 -7 -63 -7 0 -11 21 -11 56 0 48 -2 55 -16 50 -12
-5 -15 -2 -10 10 3 8 6 28 6 42 l1 27 16 -29 c8 -17 18 -58 21 -93z m172 76
c0 -24 -4 -38 -10 -34 -6 4 -10 -12 -10 -42 0 -26 -5 -55 -11 -63 -16 -23 -4
132 13 159 7 11 14 21 15 21 2 0 3 -18 3 -41z m-213 -111 c-3 -8 -6 -5 -6 6
-1 11 2 17 5 13 3 -3 4 -12 1 -19z m240 -100 c-3 -7 -5 -2 -5 12 0 14 2 19 5
13 2 -7 2 -19 0 -25z m22 -88 c0 -9 -4 -8 -9 5 -5 11 -9 27 -9 35 0 9 4 8 9
-5 5 -11 9 -27 9 -35z m-83 -8 c-4 -3 -12 0 -18 6 -9 9 -9 12 0 12 7 0 13 8
13 18 1 10 3 8 6 -6 3 -13 2 -26 -1 -30z m-123 2 c-8 -21 -23 -17 -23 6 0 13
5 18 14 14 8 -3 12 -12 9 -20z m144 4 c-3 -8 -6 -5 -6 6 -1 11 2 17 5 13 3 -3
4 -12 1 -19z m45 -67 c-7 -32 -32 -57 -32 -32 0 6 5 11 10 11 6 0 10 17 10 37
0 23 4 33 9 28 5 -6 6 -25 3 -44z m-249 -23 c6 -4 8 -10 5 -13 -14 -15 -28 8
-27 43 2 34 2 35 6 7 3 -16 10 -33 16 -37z m114 -170 c-3 -8 -6 -5 -6 6 -1 11
2 17 5 13 3 -3 4 -12 1 -19z m63 -94 c0 -8 4 -13 9 -9 12 7 31 -26 31 -54 0
-12 -4 -21 -10 -21 -5 0 -9 -17 -9 -37 1 -21 -6 -72 -14 -113 -9 -41 -24 -112
-33 -157 -9 -46 -21 -83 -26 -83 -5 0 -6 15 -3 33 3 17 7 138 8 267 l2 235 23
-23 c12 -13 22 -30 22 -38z m30 35 c0 -11 -4 -17 -10 -14 -5 3 -10 13 -10 21
0 8 5 14 10 14 6 0 10 -9 10 -21z m-83 -551 c-3 -7 -5 -2 -5 12 0 14 2 19 5
13 2 -7 2 -19 0 -25z"/>
<path d="M1264 1980 c0 -69 1 -97 3 -62 2 34 2 90 0 125 -2 34 -3 6 -3 -63z"/>
<path d="M1312 775 c0 -16 2 -22 5 -12 2 9 2 23 0 30 -3 6 -5 -1 -5 -18z"/>
<path d="M1153 2665 c0 -22 2 -30 4 -17 2 12 2 30 0 40 -3 9 -5 -1 -4 -23z"/>
<path d="M1070 1286 c0 -8 5 -18 10 -21 6 -3 10 1 10 9 0 8 -4 18 -10 21 -5 3
-10 -1 -10 -9z"/>
<path d="M1061 1244 c0 -11 3 -14 6 -6 3 7 2 16 -1 19 -3 4 -6 -2 -5 -13z"/>
<path d="M1051 1204 c0 -11 3 -14 6 -6 3 7 2 16 -1 19 -3 4 -6 -2 -5 -13z"/>
<path d="M1102 670 c0 -19 2 -27 5 -17 2 9 2 25 0 35 -3 9 -5 1 -5 -18z"/>
<path d="M1366 483 c9 -51 14 -54 14 -10 0 20 -5 39 -11 42 -7 5 -8 -5 -3 -32z"/>
</g>
</svg>
