<?xml version="1.0" standalone="no"?>
<!DOCTYPE svg PUBLIC "-//W3C//DTD SVG 20010904//EN"
 "http://www.w3.org/TR/2001/REC-SVG-20010904/DTD/svg10.dtd">
<svg version="1.0" xmlns="http://www.w3.org/2000/svg"
 width="244.000000pt" height="305.000000pt" viewBox="0 0 244.000000 305.000000"
 preserveAspectRatio="xMidYMid meet">
<metadata>
Created by potrace 1.16, written by Peter Selinger 2001-2019
</metadata>
<g transform="translate(0.000000,305.000000) scale(0.100000,-0.100000)"
fill="#000000" stroke="none">
<path d="M1102 2885 c0 -16 2 -22 5 -12 2 9 2 23 0 30 -3 6 -5 -1 -5 -18z"/>
<path d="M1535 2898 c-17 -49 -60 -320 -70 -443 -11 -131 -21 -374 -20 -449 2
-66 5 -80 21 -89 11 -5 31 -21 46 -35 l27 -25 30 26 c17 14 40 28 51 32 18 6
19 14 14 173 -7 248 -23 453 -43 577 -23 135 -26 115 -6 -32 22 -159 35 -358
35 -528 l0 -150 -34 -27 c-19 -16 -38 -28 -41 -28 -3 0 -5 227 -3 505 2 278 2
505 0 505 -1 0 -5 -6 -7 -12z"/>
<path d="M928 2895 c-8 -14 -44 -214 -63 -355 -16 -121 -36 -587 -26 -606 3
-6 25 -28 49 -48 l42 -38 40 36 c22 20 45 36 51 36 13 0 5 335 -12 505 -13
131 -52 402 -56 388 -2 -5 8 -95 22 -199 19 -136 28 -255 32 -425 l6 -236 -35
-26 c-19 -15 -38 -27 -41 -27 -4 0 -7 217 -6 483 0 278 4 474 9 462 10 -24 11
-1 1 35 -4 14 -10 20 -13 15z"/>
<path d="M1360 2874 c0 -10 -7 -109 -15 -219 -8 -110 -15 -332 -15 -494 0
-162 -3 -292 -6 -288 -6 6 -8 34 -19 257 -3 69 -10 163 -16 210 -10 88 -48
264 -55 257 -2 -2 -15 -59 -29 -127 -29 -138 -41 -263 -44 -454 -2 -139 -12
-182 -23 -101 -3 28 -13 86 -22 130 -12 63 -16 159 -17 445 -2 360 -2 363 -14
235 -7 -71 -16 -287 -20 -480 l-7 -350 26 -24 c15 -15 26 -35 26 -50 -1 -24
-2 -23 -21 12 -15 28 -26 37 -45 37 -45 0 -81 -27 -97 -72 l-15 -43 -11 30
c-21 51 -50 75 -92 75 -43 0 -69 -27 -69 -72 0 -25 2 -26 35 -21 30 5 39 1 70
-30 38 -38 43 -58 20 -77 -28 -23 -18 -89 25 -175 45 -90 48 -115 19 -156 -11
-16 -23 -45 -26 -64 -3 -19 -10 -35 -14 -35 -10 0 -11 4 -14 70 -3 69 -17 134
-29 142 -19 13 -45 9 -66 -12 -33 -33 -25 -79 31 -186 27 -53 48 -99 45 -102
-4 -3 -8 -3 -9 -1 -15 18 -85 126 -99 152 -25 44 -23 124 2 162 27 41 25 64
-6 75 -43 17 -79 12 -104 -15 -21 -22 -22 -27 -11 -67 29 -102 32 -126 26
-174 -5 -41 -11 -54 -31 -64 -18 -10 -23 -19 -18 -34 15 -45 11 -48 -151 -113
-88 -35 -163 -62 -166 -61 -4 2 71 56 166 121 95 65 175 124 178 131 3 7 -1
42 -9 77 -35 165 -33 161 -31 57 l3 -96 -31 5 c-28 4 -42 -8 -199 -166 -93
-94 -167 -173 -165 -175 4 -5 409 136 430 150 5 3 9 16 9 30 0 30 17 31 69 4
86 -43 119 -129 60 -157 -23 -11 -32 -33 -78 -195 -28 -101 -59 -205 -68 -233
-8 -27 -21 -74 -28 -104 l-13 -54 27 29 c14 16 74 88 131 159 58 72 107 132
110 135 3 3 28 34 56 70 47 61 50 67 37 90 -24 47 -18 60 31 60 37 0 44 -3 41
-17 -6 -28 -24 -165 -40 -308 -8 -71 -18 -150 -21 -175 -3 -25 -3 -42 0 -39 3
3 24 57 45 120 22 63 56 159 76 214 28 77 35 110 31 141 -3 23 -2 44 1 48 8 7
63 -43 63 -57 0 -5 -14 -25 -30 -44 -18 -20 -29 -42 -26 -51 3 -9 12 -55 21
-102 8 -47 28 -155 45 -240 16 -85 35 -186 41 -225 7 -38 14 -65 15 -60 5 14
81 412 99 515 8 47 17 95 20 107 4 15 -4 33 -25 56 -16 19 -30 39 -30 44 0 13
55 64 62 58 3 -4 4 -23 1 -43 -3 -28 10 -77 52 -197 32 -88 64 -182 73 -210
16 -51 31 -39 16 13 -4 15 -6 41 -6 57 1 23 0 26 -6 11 -6 -13 -15 11 -31 85
-12 57 -31 140 -42 183 -24 101 -24 116 1 116 20 0 26 -13 33 -75 2 -17 5 -7
6 23 l1 52 40 0 c44 0 51 -15 29 -63 -7 -15 -8 -31 -3 -40 18 -31 357 -438
361 -433 3 3 -15 76 -40 163 -25 87 -60 211 -78 277 -32 114 -34 119 -67 133
-32 13 -34 17 -29 50 8 45 48 89 105 115 47 21 62 18 62 -16 0 -21 14 -28 128
-69 284 -103 322 -116 322 -109 0 4 -78 86 -174 181 -165 164 -176 173 -205
166 l-30 -6 5 93 c7 122 -11 97 -21 -29 l-6 -93 43 6 43 5 140 -142 c127 -129
135 -139 90 -114 -113 63 -316 198 -335 222 -24 31 -26 99 -5 158 20 56 19
108 -3 128 -26 23 -87 22 -112 -3 -19 -19 -19 -20 5 -62 42 -74 31 -131 -47
-242 -26 -39 -48 -76 -48 -83 0 -7 -4 -13 -10 -13 -18 0 -11 21 40 115 56 104
66 167 32 198 -19 18 -49 22 -68 9 -14 -9 -28 -94 -26 -158 2 -35 -3 -55 -13
-64 -13 -11 -15 -7 -15 27 0 27 -9 54 -31 86 -35 53 -34 65 17 142 53 81 65
156 30 190 -35 35 28 105 95 105 33 0 39 3 39 20 0 33 -29 68 -61 75 -38 9
-74 -14 -96 -60 -20 -43 -29 -44 -38 -6 -9 42 -40 66 -85 66 -46 0 -48 -2 -65
-51 l-12 -37 -5 31 c-4 25 1 37 24 59 27 26 28 30 28 122 0 66 -3 91 -10 81
-8 -12 -10 -11 -10 8 0 12 -5 22 -10 22 -7 0 -10 129 -10 391 1 215 -1 393 -4
397 -3 3 -6 -3 -6 -14z m-101 -436 c-1 -13 1 -30 4 -38 9 -25 27 -204 27 -278
0 -38 -3 -111 -7 -163 l-8 -94 -5 160 c-5 141 -6 127 -8 -117 -1 -171 -6 -279
-12 -283 -11 -7 -15 791 -4 819 9 23 16 20 13 -6z m37 -648 c0 -38 -4 -64 -8
-57 -13 20 -8 127 6 127 1 0 2 -31 2 -70z m214 -95 c0 -9 -7 -18 -15 -21 -8
-4 -15 -16 -15 -28 -1 -31 -34 -96 -70 -136 l-31 -35 6 30 c4 17 6 58 5 93 -1
36 3 62 9 62 15 0 27 73 12 78 -20 7 -11 21 17 24 20 3 34 -3 55 -24 15 -16
27 -35 27 -43z m-440 55 c0 -5 -4 -10 -10 -10 -15 0 -12 -41 6 -75 11 -21 14
-44 10 -79 -3 -29 -1 -55 5 -62 6 -7 9 -21 7 -31 -5 -26 -76 72 -84 117 -3 19
-12 45 -20 57 -18 29 -18 43 2 71 11 15 25 22 50 22 19 0 34 -4 34 -10z m85
-116 c3 -12 14 -24 25 -27 30 -8 24 -27 -9 -27 -17 0 -31 6 -35 16 -8 21 -8
69 1 91 7 15 8 14 11 -7 1 -14 5 -35 7 -46z m136 20 c5 -6 6 -14 2 -17 -15
-16 -23 -5 -22 31 1 21 3 29 6 17 3 -11 9 -25 14 -31z m49 -8 c0 -47 -13 -66
-47 -66 -31 0 -29 18 2 30 21 8 25 16 25 50 0 25 4 39 10 35 6 -3 10 -25 10
-49z m-380 -80 c16 -59 7 -82 -14 -34 -17 40 -22 93 -7 84 4 -3 14 -26 21 -50z
m147 22 c-3 -7 -5 -2 -5 12 0 14 2 19 5 13 2 -7 2 -19 0 -25z m260 0 c-3 -7
-5 -2 -5 12 0 14 2 19 5 13 2 -7 2 -19 0 -25z m183 16 c0 -8 -10 -38 -21 -65
-30 -69 -45 -48 -18 24 21 55 39 74 39 41z m-304 -88 c-3 -12 -6 -28 -7 -36 0
-10 -3 -8 -9 5 -14 32 -11 52 6 52 11 0 14 -7 10 -21z m-92 -66 c16 -39 26
-74 22 -77 -3 -3 -8 3 -12 13 -3 10 -17 42 -30 69 -13 28 -24 56 -24 63 0 27
17 0 44 -68z m183 7 c-13 -29 -28 -61 -32 -72 -4 -11 -9 -15 -12 -8 -2 6 5 31
15 55 11 23 25 57 32 73 7 17 15 25 17 17 3 -7 -6 -36 -20 -65z m-297 -11 c0
-8 -4 -18 -10 -21 -5 -3 -10 3 -10 14 0 12 5 21 10 21 6 0 10 -6 10 -14z m410
-12 c0 -8 -4 -14 -10 -14 -5 0 -10 9 -10 21 0 11 5 17 10 14 6 -3 10 -13 10
-21z m-346 -30 c19 -19 21 -34 3 -34 -17 0 -37 20 -37 37 0 18 15 16 34 -3z
m286 -4 c0 -20 -25 -38 -37 -26 -5 5 24 46 34 46 1 0 3 -9 3 -20z m-423 -22
c-3 -8 -6 -5 -6 6 -1 11 2 17 5 13 3 -3 4 -12 1 -19z m82 -131 c7 -32 11 -61
8 -63 -8 -8 -37 87 -37 120 1 42 13 17 29 -57z m386 2 c-23 -76 -38 -77 -19
-1 21 80 25 90 31 73 3 -7 -3 -40 -12 -72z m-327 -51 c11 -11 16 -10 27 5 18
24 49 18 53 -11 3 -18 -1 -22 -22 -22 -14 0 -28 -4 -31 -10 -20 -33 -56 38
-54 107 l2 48 6 -52 c4 -29 12 -58 19 -65z m58 97 c-21 -16 -32 -13 -21 4 3 6
14 11 23 11 15 -1 15 -2 -2 -15z m159 4 c11 -17 0 -20 -21 -4 -17 13 -17 14
-2 15 9 0 20 -5 23 -11z m49 -111 c-17 -39 -28 -46 -39 -28 -3 6 -17 10 -31
10 -21 0 -25 4 -22 22 4 28 35 36 52 13 11 -15 13 -15 25 -1 7 8 14 34 16 58
5 59 8 61 12 9 3 -29 -2 -59 -13 -83z m181 -8 c-12 -11 -18 -11 -27 -2 -9 9
-8 15 7 26 25 18 41 -2 20 -24z m-603 -22 c-13 -13 -26 8 -17 30 6 16 7 16 17
-1 7 -13 7 -22 0 -29z m661 -73 c3 -16 0 -24 -7 -22 -14 4 -21 47 -8 47 5 0
12 -11 15 -25z m-723 -10 c0 -14 -4 -25 -10 -25 -11 0 -14 33 -3 43 11 11 13
8 13 -18z m14 -121 c2 -38 6 -76 10 -84 4 -10 -26 -57 -81 -130 -113 -149
-187 -240 -191 -235 -2 1 49 107 112 233 64 127 116 236 116 242 0 16 21 53
26 47 3 -2 6 -35 8 -73z m717 38 c8 -15 29 -33 45 -41 16 -7 36 -17 44 -21 12
-6 65 -169 137 -425 10 -35 -13 -4 -55 75 -21 41 -72 138 -112 215 -40 77 -76
145 -80 150 -4 6 -12 25 -18 43 -10 28 -9 32 6 32 9 0 24 -12 33 -28z m-371
-58 c0 -7 -4 -16 -10 -19 -5 -3 -10 -4 -10 -1 0 2 -2 11 -5 19 -4 8 0 14 10
14 8 0 15 -6 15 -13z m-160 -57 c0 -37 -16 -99 -54 -212 -30 -88 -55 -155 -55
-148 -1 12 19 104 66 310 27 118 43 137 43 50z m191 -102 l8 -40 -4 40 c-2 22
-7 51 -10 65 -6 23 -4 22 24 -10 38 -42 37 -46 -5 -270 -25 -133 -30 -149 -34
-110 l-4 45 -6 -60 c-4 -33 -7 55 -8 195 0 235 1 252 15 220 8 -19 19 -52 24
-75z"/>
<path d="M1253 2335 c0 -33 2 -45 4 -27 2 18 2 45 0 60 -2 15 -4 0 -4 -33z"/>
<path d="M1265 620 c-4 -61 -5 -113 -2 -116 2 -3 8 45 12 106 4 62 5 114 2
116 -3 3 -8 -45 -12 -106z"/>
<path d="M1551 2844 c0 -11 3 -14 6 -6 3 7 2 16 -1 19 -3 4 -6 -2 -5 -13z"/>
<path d="M1561 2794 c0 -11 3 -14 6 -6 3 7 2 16 -1 19 -3 4 -6 -2 -5 -13z"/>
<path d="M1112 2765 c0 -16 2 -22 5 -12 2 9 2 23 0 30 -3 6 -5 -1 -5 -18z"/>
<path d="M1383 2660 c0 -25 2 -35 4 -22 2 12 2 32 0 45 -2 12 -4 2 -4 -23z"/>
<path d="M1123 2605 c0 -33 2 -45 4 -27 2 18 2 45 0 60 -2 15 -4 0 -4 -33z"/>
<path d="M1393 2460 c0 -47 2 -66 4 -42 2 23 2 61 0 85 -2 23 -4 4 -4 -43z"/>
<path d="M1134 2395 c0 -55 1 -76 3 -47 2 29 2 74 0 100 -2 26 -3 2 -3 -53z"/>
<path d="M1462 795 c0 -16 3 -50 7 -75 6 -33 9 -37 9 -15 0 17 -3 50 -7 75 -6
33 -9 37 -9 15z"/>
<path d="M1482 630 c0 -19 2 -27 5 -17 2 9 2 25 0 35 -3 9 -5 1 -5 -18z"/>
</g>
</svg>
