<?xml version="1.0" standalone="no"?>
<!DOCTYPE svg PUBLIC "-//W3C//DTD SVG 20010904//EN"
 "http://www.w3.org/TR/2001/REC-SVG-20010904/DTD/svg10.dtd">
<svg version="1.0" xmlns="http://www.w3.org/2000/svg"
 width="244.000000pt" height="305.000000pt" viewBox="0 0 244.000000 305.000000"
 preserveAspectRatio="xMidYMid meet">
<metadata>
Created by potrace 1.16, written by Peter Selinger 2001-2019
</metadata>
<g transform="translate(0.000000,305.000000) scale(0.100000,-0.100000)"
fill="#000000" stroke="none">
<path d="M881 2875 c-49 -189 -80 -441 -88 -732 l-6 -223 34 -14 c19 -8 43
-24 53 -35 19 -21 20 -21 40 -3 12 11 36 27 54 38 l32 18 0 141 c0 178 -15
374 -40 540 -20 128 -46 241 -35 150 3 -22 14 -101 24 -175 23 -153 43 -475
36 -565 -2 -33 -4 -63 -5 -67 0 -5 -5 -8 -10 -8 -6 0 -24 -10 -40 -22 -16 -12
-32 -19 -35 -16 -3 3 -4 220 -3 484 3 393 5 473 15 444 l12 -35 -5 45 c-9 69
-20 81 -33 35z"/>
<path d="M1557 2843 c-45 -161 -75 -413 -84 -709 l-6 -210 31 -13 c17 -7 38
-21 48 -32 20 -23 37 -24 53 -5 7 8 28 22 48 31 l36 17 -6 227 c-7 234 -23
399 -56 562 -27 133 -25 90 4 -97 31 -196 56 -655 37 -662 -7 -2 -26 -15 -41
-28 -16 -13 -34 -24 -40 -24 -14 0 -15 936 -1 945 10 6 9 40 -2 50 -3 3 -12
-20 -21 -52z"/>
<path d="M1280 2760 c-1 -14 -2 -86 -2 -160 2 -136 -1 -139 -28 -40 -13 48
-18 45 -37 -25 -5 -21 -9 9 -11 98 -1 70 -6 127 -11 127 -4 0 -6 -64 -3 -142
2 -80 0 -181 -7 -228 -13 -103 -30 -332 -32 -453 -1 -49 -5 -85 -10 -80 -4 4
-15 53 -25 108 -18 107 -31 152 -41 142 -8 -9 -32 -144 -32 -187 -1 -30 4 -38
33 -54 40 -21 53 -64 35 -114 -11 -32 -41 -44 -54 -22 -12 19 -25 10 -25 -18
0 -57 65 -80 90 -31 17 30 28 22 27 -17 -1 -24 5 -41 16 -49 9 -7 17 -21 17
-32 0 -19 -2 -20 -36 -8 -43 14 -66 10 -89 -15 -16 -18 -15 -19 26 -27 48 -9
69 -36 69 -85 l0 -28 -48 34 c-75 54 -132 132 -132 181 0 14 -7 28 -15 31 -23
9 -18 52 11 81 22 22 32 25 70 20 41 -4 44 -3 44 20 0 93 -128 107 -166 17
-16 -38 -20 -38 -38 -3 -31 61 -122 84 -157 40 -11 -13 -19 -36 -19 -51 0 -27
2 -27 43 -23 36 4 48 1 74 -21 39 -33 46 -59 22 -87 -10 -12 -19 -35 -19 -50
0 -29 58 -150 89 -184 32 -36 31 -42 -9 -91 -22 -27 -40 -58 -40 -70 0 -43 84
-89 120 -65 12 8 12 15 2 44 -16 45 -15 76 3 83 25 10 147 -27 140 -43 -3 -7
-8 -19 -11 -27 -3 -7 2 -21 12 -30 13 -14 15 -23 6 -49 -7 -24 -11 -27 -12
-12 -1 11 -8 -2 -15 -30 l-13 -50 -1 43 -1 42 -43 0 c-24 0 -59 -7 -76 -16
-41 -21 -68 -10 -107 42 -22 29 -29 49 -30 88 -2 67 -14 138 -27 154 -12 16
-58 16 -80 -1 -10 -6 -20 -28 -23 -47 -6 -39 16 -87 99 -220 50 -80 70 -152
60 -214 -3 -20 0 -49 7 -66 16 -38 19 -33 -154 -232 -141 -163 -175 -196 -139
-137 12 19 74 128 138 244 116 207 117 210 112 261 -7 67 -37 134 -86 192 -84
101 -99 164 -56 228 44 65 27 94 -59 94 -35 0 -48 -5 -60 -22 -21 -30 -20 -53
5 -124 29 -85 22 -149 -21 -185 -28 -23 -30 -30 -20 -48 6 -12 9 -25 6 -30 -3
-5 -59 -28 -123 -51 -65 -23 -141 -51 -170 -62 -56 -22 -95 -20 -53 2 14 7
103 60 197 119 189 116 184 109 158 195 -8 27 -15 65 -15 85 0 20 -5 43 -11
51 -8 11 -9 -12 -6 -83 l5 -98 -33 7 c-31 6 -40 -1 -170 -118 -75 -67 -163
-147 -194 -176 -53 -50 -54 -53 -26 -47 17 3 128 38 248 76 204 67 217 73 217
95 0 35 21 39 77 14 59 -26 91 -55 110 -98 17 -40 7 -57 -36 -65 -16 -3 -31
-14 -34 -24 -3 -10 -43 -139 -91 -288 -47 -148 -84 -270 -83 -272 5 -4 302
319 390 423 27 32 27 34 12 70 -8 20 -12 40 -9 45 3 5 45 9 93 9 75 0 93 -3
121 -22 56 -39 59 -53 21 -92 l-33 -34 21 -102 c12 -57 22 -135 22 -174 2 -56
3 -63 8 -32 5 33 12 8 45 -155 31 -149 41 -187 47 -166 4 15 22 99 41 185 27
131 34 151 39 122 5 -26 7 -17 8 37 0 39 8 107 17 150 9 43 18 90 21 105 4 21
-2 36 -26 64 -29 33 -31 38 -18 57 26 41 75 57 171 57 l88 0 -6 -27 c-20 -79
-25 -70 110 -218 195 -214 274 -298 274 -288 0 5 -20 74 -44 153 -127 419
-125 413 -177 424 -33 6 -36 23 -13 68 22 43 62 75 116 93 53 18 68 14 68 -19
0 -25 -20 -17 293 -117 104 -33 191 -58 193 -56 4 4 -302 282 -361 328 -18 15
-33 19 -55 14 l-30 -7 7 91 c4 66 3 91 -6 91 -6 0 -11 -13 -11 -28 0 -16 -3
-63 -6 -106 l-7 -76 44 6 c43 6 46 4 116 -58 40 -34 106 -92 147 -128 123
-107 109 -104 -118 25 -211 120 -204 115 -221 151 -20 43 -19 80 5 149 25 73
25 90 0 115 -36 36 -141 20 -140 -21 0 -8 12 -32 25 -54 40 -65 29 -121 -40
-205 -62 -74 -85 -121 -85 -173 0 -76 15 -102 67 -118 l46 -14 29 -85 c63
-186 116 -360 109 -360 -6 0 -24 32 -110 185 -18 33 -43 76 -55 95 -104 163
-130 215 -131 266 0 44 7 61 49 130 27 43 60 98 73 121 30 51 33 116 8 143
-20 22 -67 27 -82 8 -13 -17 -27 -102 -25 -154 2 -31 -5 -51 -28 -83 -39 -54
-72 -67 -116 -46 -17 8 -50 15 -72 15 -40 0 -41 -1 -44 -38 -3 -36 -8 -15 -33
138 -3 24 1 27 68 47 54 17 73 19 79 10 11 -17 10 -51 -2 -83 -22 -58 38 -70
96 -21 34 29 29 57 -21 117 -19 23 -35 43 -35 45 0 1 14 20 31 41 40 50 89
151 89 185 0 14 -9 36 -19 48 -39 45 18 111 95 111 40 0 44 2 44 24 0 41 -33
71 -78 71 -47 0 -78 -23 -100 -75 l-14 -35 -21 44 c-22 47 -72 77 -108 66 -31
-10 -59 -46 -59 -77 0 -27 1 -27 44 -22 41 6 48 4 75 -24 36 -35 39 -57 11
-72 -12 -6 -20 -21 -20 -36 0 -48 -57 -128 -127 -175 l-44 -31 3 43 c3 44 12
53 61 64 37 8 34 23 -9 41 -31 13 -39 13 -65 0 -28 -14 -29 -14 -29 9 0 15 7
25 21 28 19 5 21 11 16 41 -7 45 4 52 31 21 33 -38 63 -31 82 19 13 34 -2 58
-22 38 -24 -24 -47 -13 -59 27 -14 47 1 96 31 106 38 12 42 29 30 127 -6 51
-17 99 -24 106 -11 12 -16 3 -25 -55 -7 -37 -17 -97 -23 -132 -15 -92 -28 -58
-28 79 0 63 -5 153 -11 200 -6 47 -14 200 -18 340 -4 140 -9 244 -11 230z m-2
-652 c-1 -120 1 -220 5 -224 4 -4 7 8 7 27 0 26 3 30 10 19 5 -8 10 -31 10
-50 0 -24 -3 -31 -9 -21 -7 11 -10 9 -13 -10 l-5 -24 -11 25 c-10 20 -11 8 -6
-65 8 -106 6 -157 -6 -169 -4 -4 -8 101 -8 240 1 137 -2 346 -5 464 l-6 215
19 -105 c17 -87 20 -142 18 -322z m19 40 c-3 -8 -6 -5 -6 6 -1 11 2 17 5 13 3
-3 4 -12 1 -19z m13 -448 c0 -32 -4 -62 -10 -65 -6 -4 -10 20 -10 65 0 45 4
69 10 65 6 -3 10 -33 10 -65z m-386 -124 c10 -24 43 -68 75 -99 55 -54 133
-102 145 -90 3 4 6 -3 6 -15 0 -29 -15 -28 -87 8 -87 44 -173 153 -173 220 0
33 15 23 34 -24z m656 17 c0 -70 -106 -190 -198 -226 -51 -20 -62 -21 -62 -4
0 6 22 22 49 35 63 28 154 120 178 177 21 51 33 58 33 18z m-373 -45 c-3 -7
-5 -2 -5 12 0 14 2 19 5 13 2 -7 2 -19 0 -25z m57 -17 c-4 -17 -9 -30 -11 -27
-3 2 -2 19 2 36 9 41 17 33 9 -9z m-47 -23 c-3 -8 -6 -5 -6 6 -1 11 2 17 5 13
3 -3 4 -12 1 -19z m20 -30 c-2 -13 -4 -5 -4 17 -1 22 1 32 4 23 2 -10 2 -28 0
-40z m-70 -175 c-3 -10 -5 -4 -5 12 0 17 2 24 5 18 2 -7 2 -21 0 -30z m170
-140 c-3 -10 -5 -4 -5 12 0 17 2 24 5 18 2 -7 2 -21 0 -30z m23 -83 c0 -5 -2
-10 -4 -10 -3 0 -8 5 -11 10 -3 6 -1 10 4 10 6 0 11 -4 11 -10z m-190 -10 c0
-5 -4 -10 -9 -10 -6 0 -13 5 -16 10 -3 6 1 10 9 10 9 0 16 -4 16 -10z m160 0
c0 -5 -4 -10 -9 -10 -5 0 -12 -8 -14 -17 -3 -11 -5 -7 -6 10 -1 18 4 27 14 27
8 0 15 -4 15 -10z m-43 -102 c-2 -13 -4 -5 -4 17 -1 22 1 32 4 23 2 -10 2 -28
0 -40z m-50 -50 c-3 -8 -6 -5 -6 6 -1 11 2 17 5 13 3 -3 4 -12 1 -19z m33 8
c0 -3 -4 -8 -10 -11 -5 -3 -10 -1 -10 4 0 6 5 11 10 11 6 0 10 -2 10 -4z m35
-218 c2 -101 -3 -144 -28 -264 -17 -79 -32 -142 -34 -141 -1 2 0 134 4 294 l6
291 25 -30 c23 -28 25 -38 27 -150z m34 29 c-15 -67 -17 -66 -18 8 0 61 1 68
13 52 10 -13 11 -28 5 -60z"/>
<path d="M1282 800 c0 -14 2 -19 5 -12 2 6 2 18 0 25 -3 6 -5 1 -5 -13z"/>
<path d="M1292 710 c0 -14 2 -19 5 -12 2 6 2 18 0 25 -3 6 -5 1 -5 -13z"/>
</g>
</svg>
