<?xml version="1.0" standalone="no"?>
<!DOCTYPE svg PUBLIC "-//W3C//DTD SVG 20010904//EN"
 "http://www.w3.org/TR/2001/REC-SVG-20010904/DTD/svg10.dtd">
<svg version="1.0" xmlns="http://www.w3.org/2000/svg"
 width="244.000000pt" height="305.000000pt" viewBox="0 0 244.000000 305.000000"
 preserveAspectRatio="xMidYMid meet">
<metadata>
Created by potrace 1.16, written by Peter Selinger 2001-2019
</metadata>
<g transform="translate(0.000000,305.000000) scale(0.100000,-0.100000)"
fill="#000000" stroke="none">
<path d="M916 2900 c-12 -31 -47 -229 -61 -350 -15 -132 -21 -221 -31 -466
l-6 -151 29 -18 c15 -9 40 -28 54 -41 l25 -24 25 26 c13 14 36 32 51 40 25 13
27 12 47 -20 28 -44 27 -47 -10 -34 -26 9 -35 7 -57 -9 -15 -11 -35 -35 -44
-54 l-16 -34 -17 38 c-37 88 -165 80 -165 -10 0 -20 5 -23 43 -23 34 0 49 -6
69 -27 34 -37 44 -71 24 -79 -23 -9 -21 -77 4 -142 25 -64 29 -222 6 -222 -8
0 -18 22 -26 63 -17 88 -16 87 -49 87 -72 0 -83 -83 -26 -188 41 -73 38 -94
-6 -42 -74 89 -88 172 -42 241 l27 41 -24 20 c-17 14 -36 18 -69 16 -39 -3
-48 -7 -59 -31 -12 -25 -11 -37 8 -100 35 -113 22 -191 -34 -210 -8 -3 -8 -13
1 -36 13 -37 19 -33 -117 -86 -52 -20 -124 -48 -158 -62 -35 -13 -66 -23 -68
-21 -2 2 70 52 159 111 89 59 175 117 190 129 l28 23 -15 60 c-8 33 -19 85
-25 115 -9 52 -9 49 -8 -42 l2 -98 -30 6 c-28 5 -43 -7 -208 -166 -97 -95
-177 -176 -177 -181 0 -5 78 19 173 52 94 34 198 70 229 81 48 16 57 24 60 46
4 32 20 32 85 1 55 -26 60 -46 28 -107 -14 -27 -23 -55 -20 -63 3 -8 -9 -62
-26 -119 -58 -195 -128 -445 -125 -448 2 -1 87 98 190 220 137 164 186 228
183 243 -3 11 -8 35 -12 53 -7 30 -6 32 19 32 33 0 33 3 -4 -245 -45 -305 -45
-293 -4 -206 19 40 60 135 91 210 47 114 56 144 54 189 l-2 52 32 -18 c18 -10
38 -27 46 -39 13 -19 11 -24 -17 -56 l-31 -36 24 -128 c83 -435 101 -523 104
-519 2 2 13 50 23 107 10 57 37 201 59 319 23 118 41 218 41 221 0 3 -14 20
-31 37 -29 30 -30 33 -16 54 8 13 29 31 46 41 l31 18 -2 -65 c-1 -35 3 -71 9
-78 6 -7 29 -58 52 -113 74 -186 132 -311 127 -275 -3 19 -15 100 -26 180 -12
80 -27 186 -35 235 -19 117 -19 115 11 115 23 0 25 -3 20 -22 -21 -75 -23 -70
75 -190 51 -62 132 -158 178 -213 47 -55 86 -102 88 -104 14 -19 6 25 -29 144
-21 77 -53 190 -70 250 -16 61 -35 119 -40 129 -9 16 -7 18 11 13 28 -7 27 1
-10 73 -17 33 -29 68 -27 78 4 21 92 66 113 58 8 -3 15 -16 15 -29 0 -20 13
-27 123 -65 67 -24 164 -58 216 -78 52 -19 97 -32 100 -29 3 4 -73 83 -169
176 -160 157 -177 170 -203 165 l-29 -6 3 63 c1 34 1 78 -1 97 -2 33 -3 31
-10 -15 -5 -27 -9 -78 -9 -113 l-1 -62 39 6 c38 6 38 6 172 -126 74 -73 125
-129 114 -126 -11 4 -93 53 -182 109 -152 95 -164 104 -180 145 -16 42 -16 48
2 111 10 36 20 78 23 93 9 58 -77 91 -129 49 -25 -20 -24 -22 17 -91 20 -33
11 -101 -20 -154 -24 -42 -63 -83 -70 -75 -3 2 11 35 30 73 19 38 34 84 34
101 0 44 -25 75 -60 75 -34 0 -40 -8 -46 -58 -13 -106 -50 -142 -41 -39 3 36
1 54 -3 42 -5 -11 -9 -30 -9 -42 -1 -13 -6 -23 -12 -23 -17 0 -2 84 32 172 32
85 37 139 14 158 -22 18 -19 35 17 76 29 32 36 36 70 31 25 -3 38 -1 39 6 10
103 -110 125 -155 29 l-18 -37 -18 36 c-33 64 -91 87 -125 49 -10 -11 -22 -17
-26 -14 -15 9 -10 21 11 27 11 3 24 16 29 30 15 39 26 40 77 1 38 -30 51 -34
63 -25 9 6 31 21 50 33 l34 22 -6 245 c-4 135 -11 282 -17 326 -16 138 -44
301 -48 283 -2 -10 4 -66 13 -125 24 -166 45 -424 45 -569 l0 -132 -35 -26
c-19 -15 -39 -25 -43 -22 -7 4 -8 896 -1 936 1 8 1 26 0 40 -3 24 -3 24 -12
-5 -40 -131 -87 -536 -91 -795 -1 -58 -5 26 -9 185 -8 328 -44 768 -50 614 -1
-19 -1 -43 0 -54 6 -101 -1 -721 -9 -723 -6 -2 -13 -22 -17 -45 l-8 -42 -6 55
c-4 40 -6 21 -7 -67 -2 -143 -17 -173 -21 -40 -4 201 -53 573 -81 626 -11 21
-48 -146 -65 -294 -9 -71 -18 -197 -22 -278 -3 -81 -9 -144 -13 -140 -4 4 -13
170 -19 368 -6 198 -17 416 -23 485 -13 123 -13 120 -20 -300 -3 -234 -9 -442
-13 -462 -15 -81 -25 -18 -27 175 l-2 202 -6 -205 c-4 -154 -6 -177 -8 -90 -5
255 -33 564 -66 730 -21 105 -32 138 -40 120z m43 -219 c26 -171 38 -308 46
-536 l7 -180 -40 -33 c-23 -17 -43 -32 -46 -32 -3 0 -6 219 -5 488 0 289 4
475 9 458 5 -15 18 -90 29 -165z m325 -586 c3 -146 2 -196 -4 -150 -11 97 -19
472 -8 415 4 -25 10 -144 12 -265z m-184 -250 c0 -8 -4 -15 -10 -15 -5 0 -10
7 -10 15 0 8 5 15 10 15 6 0 10 -7 10 -15z m197 -87 c-2 -18 -4 -6 -4 27 0 33
2 48 4 33 2 -15 2 -42 0 -60z m-256 -25 c0 -16 4 -37 8 -48 5 -11 4 -28 0 -37
-6 -10 -6 -41 -1 -73 5 -30 6 -55 2 -55 -15 0 -50 62 -56 99 -4 22 -13 46 -20
52 -20 16 -17 39 8 66 30 32 58 30 59 -4z m456 -8 c15 -32 15 -36 0 -53 -9
-10 -17 -29 -17 -41 0 -23 -34 -96 -48 -105 -8 -5 -9 41 -3 207 1 22 6 27 26
27 19 0 29 -9 42 -35z m-377 15 c0 -5 -5 -10 -11 -10 -5 0 -7 5 -4 10 3 6 8
10 11 10 2 0 4 -4 4 -10z m57 -131 c11 -4 28 -24 37 -44 17 -34 19 -35 32 -18
14 17 15 17 10 -2 -3 -11 -8 -33 -12 -49 -7 -28 -8 -27 -23 25 -16 51 -19 54
-51 57 -19 2 -41 8 -47 14 -17 13 -17 53 0 79 11 19 13 18 23 -17 6 -22 19
-40 31 -45z m122 34 c1 -7 -3 -13 -9 -13 -5 0 -10 15 -9 33 0 27 2 29 9 12 5
-11 9 -26 9 -32z m61 -19 c0 -28 -4 -33 -31 -39 -17 -4 -33 -4 -36 -1 -4 3
-13 0 -21 -7 -13 -10 -14 -9 -3 11 6 12 21 22 31 22 14 0 20 7 20 24 0 13 3
32 7 42 6 16 7 16 20 -2 7 -10 13 -32 13 -50z m-414 -39 c17 -42 17 -45 0 -45
-16 0 -26 21 -26 56 0 34 9 30 26 -11z m144 14 c0 -5 -4 -9 -10 -9 -5 0 -10 7
-10 16 0 8 5 12 10 9 6 -3 10 -10 10 -16z m306 -5 c-4 -9 -9 -15 -11 -12 -3 3
-3 13 1 22 4 9 9 15 11 12 3 -3 3 -13 -1 -22z m156 -4 c-4 -29 -27 -58 -38
-48 -7 8 23 78 34 78 5 0 7 -13 4 -30z m-436 -95 c16 -40 17 -45 5 -45 -8 0
-31 52 -31 71 0 19 12 7 26 -26z m248 -27 c-23 -44 -30 -20 -8 29 12 26 18 33
21 21 2 -9 -4 -32 -13 -50z m-344 2 c9 -17 8 -20 -10 -20 -13 0 -20 7 -20 20
0 11 4 20 10 20 5 0 14 -9 20 -20z m460 0 c0 -19 -20 -27 -33 -13 -8 7 11 33
24 33 5 0 9 -9 9 -20z m-551 -92 c1 -21 -3 -38 -9 -38 -6 0 -10 25 -9 58 0 41
3 51 9 37 5 -11 9 -37 9 -57z m501 47 c0 -17 -8 -29 -25 -37 -38 -17 -42 -2
-10 32 16 17 30 30 32 30 2 0 3 -11 3 -25z m-350 -10 c16 -17 20 -29 14 -35
-12 -12 -54 23 -54 45 0 22 13 18 40 -10z m100 -43 c0 -7 -4 -10 -10 -7 -5 3
-10 16 -10 28 0 18 2 19 10 7 5 -8 10 -21 10 -28z m121 -5 c-13 -13 -15 1 -4
30 7 17 8 17 11 -1 2 -10 -1 -23 -7 -29z m-237 -103 c3 -64 55 -102 57 -41 0
12 3 16 6 10 2 -7 13 -13 23 -13 22 0 44 -25 37 -44 -4 -9 -14 -12 -26 -9 -12
3 -28 0 -36 -7 -11 -9 -19 -7 -41 14 -23 21 -28 35 -32 88 -2 35 -1 60 3 56 4
-4 8 -28 9 -54z m358 24 c6 -35 -10 -108 -23 -108 -4 0 -15 -7 -24 -16 -12
-12 -19 -13 -30 -4 -7 6 -24 10 -37 8 -19 -2 -23 2 -23 22 0 18 7 26 25 30 19
4 26 13 28 38 3 27 0 32 -17 32 -12 0 -21 5 -21 11 0 6 7 8 16 5 9 -3 22 -6
30 -6 12 0 13 -10 8 -49 -8 -59 9 -77 39 -40 14 18 18 34 14 66 -5 49 8 59 15
11z m-252 12 c0 -5 -9 -10 -20 -10 -11 0 -20 -4 -20 -10 0 -5 -4 -10 -10 -10
-17 0 -11 28 8 33 30 8 42 7 42 -3z m-154 -56 c9 -30 14 -58 11 -60 -4 -5 -37
93 -37 110 0 21 12 -2 26 -50z m-117 -5 c15 -34 9 -48 -14 -29 -15 13 -21 60
-7 60 4 0 13 -14 21 -31z m568 -1 c-3 -8 -6 -5 -6 6 -1 11 2 17 5 13 3 -3 4
-12 1 -19z m-12 -48 c-4 -12 -9 -19 -12 -17 -3 3 -2 15 2 27 4 12 9 19 12 17
3 -3 2 -15 -2 -27z m115 20 c0 -5 -2 -10 -4 -10 -3 0 -8 5 -11 10 -3 6 -1 10
4 10 6 0 11 -4 11 -10z m-726 -46 c3 -9 6 -23 6 -32 0 -21 -15 -5 -25 26 -7
25 9 31 19 6z m780 -58 c-4 -18 -10 -24 -17 -17 -5 5 -6 22 -3 37 5 18 10 24
17 17 6 -6 7 -22 3 -37z m-729 -142 c2 -49 5 -96 7 -105 3 -16 -271 -374 -279
-365 -2 2 17 43 43 92 156 295 194 378 194 425 0 25 3 49 7 53 15 15 24 -16
28 -100z m710 98 c6 -4 17 -27 25 -52 12 -36 21 -47 48 -56 17 -5 37 -15 42
-20 11 -11 118 -357 126 -409 3 -18 -24 22 -66 100 -150 271 -200 374 -200
410 0 35 6 41 25 27z m-825 -10 c0 -5 -9 -17 -21 -28 -21 -19 -21 -19 -8 9 12
26 29 37 29 19z m939 -23 c13 -17 21 -33 17 -36 -8 -9 -56 37 -56 54 0 20 13
15 39 -18z m-930 -40 c-22 -14 -33 -10 -19 6 7 8 17 12 22 9 6 -4 5 -10 -3
-15z m906 11 c3 -5 -1 -10 -10 -10 -9 0 -13 5 -10 10 3 6 8 10 10 10 2 0 7 -4
10 -10z m-446 -63 c-13 -29 -24 -28 -32 3 -4 17 -3 19 9 9 11 -9 15 -8 20 5 4
9 8 15 11 13 2 -3 -2 -16 -8 -30z m-209 -11 c0 -6 -14 -60 -31 -121 -16 -60
-41 -154 -56 -208 -14 -53 -27 -96 -29 -94 -1 1 8 74 21 162 14 88 27 183 31
210 3 28 13 55 21 62 17 13 43 7 43 -11z m420 -96 c15 -58 41 -158 59 -223 17
-65 31 -121 30 -125 0 -4 -34 77 -75 181 -68 169 -75 192 -68 233 3 24 11 43
16 42 6 -2 22 -51 38 -108z m-124 -63 c-2 -12 -17 -86 -32 -165 -15 -78 -29
-140 -32 -138 -4 4 15 231 24 293 3 19 -1 44 -10 62 -25 47 -19 49 20 8 26
-28 34 -45 30 -60z m-69 -349 c-3 -8 -6 -5 -6 6 -1 11 2 17 5 13 3 -3 4 -12 1
-19z"/>
<path d="M1072 2880 c0 -14 2 -19 5 -12 2 6 2 18 0 25 -3 6 -5 1 -5 -13z"/>
<path d="M1062 2780 c0 -14 2 -19 5 -12 2 6 2 18 0 25 -3 6 -5 1 -5 -13z"/>
<path d="M1371 2714 c0 -11 3 -14 6 -6 3 7 2 16 -1 19 -3 4 -6 -2 -5 -13z"/>
<path d="M1053 2660 c0 -25 2 -35 4 -22 2 12 2 32 0 45 -2 12 -4 2 -4 -23z"/>
<path d="M1363 2595 c0 -33 2 -45 4 -27 2 18 2 45 0 60 -2 15 -4 0 -4 -33z"/>
<path d="M1043 2515 c0 -33 2 -45 4 -27 2 18 2 45 0 60 -2 15 -4 0 -4 -33z"/>
<path d="M1354 2390 c0 -52 1 -74 3 -47 2 26 2 68 0 95 -2 26 -3 4 -3 -48z"/>
</g>
</svg>
