<?xml version="1.0" standalone="no"?>
<!DOCTYPE svg PUBLIC "-//W3C//DTD SVG 20010904//EN"
 "http://www.w3.org/TR/2001/REC-SVG-20010904/DTD/svg10.dtd">
<svg version="1.0" xmlns="http://www.w3.org/2000/svg"
 width="244.000000pt" height="305.000000pt" viewBox="0 0 244.000000 305.000000"
 preserveAspectRatio="xMidYMid meet">
<metadata>
Created by potrace 1.16, written by Peter Selinger 2001-2019
</metadata>
<g transform="translate(0.000000,305.000000) scale(0.100000,-0.100000)"
fill="#000000" stroke="none">
<path d="M1548 2905 c-3 -6 -8 -30 -11 -55 -5 -32 -4 -38 2 -20 8 21 9 16 10
-25 3 -161 1 -898 -3 -902 -2 -3 -21 8 -40 24 l-36 28 0 145 c0 185 15 389 40
553 23 149 20 182 -4 50 -26 -142 -44 -343 -51 -570 -6 -210 -6 -211 15 -218
12 -4 36 -20 55 -36 l33 -29 20 24 c10 14 31 31 46 37 26 12 26 12 26 129 0
210 -20 470 -50 645 -32 187 -43 234 -52 220z"/>
<path d="M911 2877 c-13 -32 -14 -62 -1 -32 5 12 9 -184 9 -462 1 -266 -1
-483 -4 -483 -3 0 -24 12 -47 27 l-41 27 7 128 c5 88 4 128 -3 128 -7 0 -11
-49 -11 -145 0 -140 1 -145 23 -156 12 -6 34 -23 50 -37 l27 -26 28 26 c15 14
38 31 51 38 l24 12 -7 182 c-12 332 -38 564 -85 766 l-8 35 -12 -28z"/>
<path d="M1072 2770 c-15 -160 -36 -730 -30 -814 4 -49 9 -63 32 -83 18 -15
26 -31 24 -46 -3 -20 -5 -19 -21 11 -13 24 -24 32 -45 32 -40 0 -90 -35 -98
-67 -11 -46 -16 -47 -34 -5 -21 47 -44 62 -94 62 -40 0 -66 -28 -66 -72 0 -27
2 -28 38 -22 34 5 42 2 70 -26 35 -35 40 -63 16 -87 -12 -13 -14 -27 -9 -62 7
-46 55 -153 81 -178 16 -16 18 -39 5 -48 -5 -3 -12 5 -14 17 -3 17 -5 15 -6
-8 -1 -32 -39 -110 -54 -113 -5 0 -10 36 -13 81 -3 45 -10 88 -16 95 -19 23
-64 16 -83 -13 -24 -37 -15 -92 28 -164 19 -32 38 -69 42 -82 7 -22 7 -22 -12
-5 -42 37 -94 125 -105 179 -11 52 -10 56 15 93 15 22 27 45 27 51 0 42 -102
61 -135 24 -19 -21 -18 -46 8 -155 27 -118 17 -129 -296 -312 -40 -23 -76 -42
-81 -43 -6 0 51 59 125 130 l134 131 43 -6 44 -5 -7 98 c-4 53 -12 102 -17
107 -7 7 -9 -20 -4 -83 l6 -93 -33 6 c-30 5 -41 -3 -207 -164 -96 -93 -172
-172 -169 -175 3 -3 97 26 210 65 112 39 212 73 222 76 10 3 17 15 17 29 0 35
16 38 74 15 51 -21 86 -59 86 -94 0 -8 -12 -32 -27 -53 -27 -40 -182 -534
-183 -582 0 -13 82 77 261 291 66 78 117 147 115 153 -3 7 -8 29 -12 48 -6 36
-6 36 30 36 43 0 43 0 21 -134 -22 -140 -55 -399 -51 -403 2 -2 13 20 24 49
11 29 46 118 77 198 31 80 60 154 65 166 4 11 6 41 3 67 -6 50 0 56 35 31 42
-29 45 -49 11 -86 -36 -40 -39 -8 38 -402 42 -213 59 -281 64 -260 4 16 33
163 65 327 l57 298 -31 32 c-18 18 -32 38 -32 44 0 12 56 63 70 63 5 0 8 -24
7 -53 -1 -44 10 -82 78 -249 43 -109 80 -196 82 -194 2 1 0 32 -4 67 -4 42 -9
56 -12 41 -4 -16 -23 44 -55 175 -27 109 -51 203 -53 210 -3 8 17 11 67 12
l72 1 -7 -38 c-13 -60 -9 -69 57 -145 35 -40 119 -140 187 -221 68 -81 125
-145 127 -143 2 1 -19 79 -47 172 -27 94 -56 195 -65 225 -9 30 -22 72 -30 93
-8 20 -14 46 -14 56 0 10 -15 30 -33 44 -39 30 -44 60 -15 100 22 30 122 82
139 72 5 -4 9 -17 9 -31 0 -13 2 -24 4 -24 2 0 107 -36 234 -80 166 -57 228
-74 220 -62 -7 9 -88 91 -181 180 -162 157 -170 164 -202 158 l-32 -6 3 97 c2
65 1 89 -5 73 -5 -14 -10 -41 -10 -60 -1 -19 -8 -57 -16 -85 -9 -27 -13 -55
-11 -61 4 -11 87 -67 304 -208 41 -26 72 -50 69 -52 -4 -5 -284 99 -328 122
-26 13 -27 17 -17 39 10 21 7 28 -21 54 -28 26 -31 35 -31 88 0 32 9 87 21
123 19 63 19 65 1 90 -23 31 -95 39 -127 14 -20 -15 -20 -15 8 -65 39 -70 33
-137 -17 -201 -12 -14 -34 -46 -50 -69 -39 -56 -46 -33 -9 29 68 115 81 174
43 212 -22 22 -65 27 -76 9 -15 -25 -30 -137 -22 -160 7 -17 5 -27 -6 -35 -9
-6 -16 -18 -16 -26 0 -15 -19 -38 -32 -38 -15 0 -8 27 12 45 26 24 25 44 -5
85 -14 19 -25 40 -25 47 0 7 -4 13 -10 13 -5 0 -10 7 -10 16 0 8 5 12 10 9 6
-3 10 -1 10 5 0 6 16 45 36 86 43 86 56 160 30 170 -23 9 -20 44 8 78 18 23
34 31 72 35 45 6 49 8 46 31 -4 31 -46 70 -76 70 -31 0 -70 -32 -86 -70 -16
-38 -26 -38 -33 -1 -14 68 -117 93 -147 35 -12 -21 -15 -22 -23 -9 -6 11 0 23
22 44 17 16 31 33 32 38 0 4 2 16 4 26 2 9 0 17 -4 17 -22 0 -34 168 -40 530
-6 394 -8 398 -31 90 -5 -69 -10 -252 -11 -407 -1 -154 -5 -286 -9 -293 -4 -6
-10 53 -14 132 -10 204 -23 338 -47 457 -31 153 -33 156 -53 76 -32 -129 -45
-230 -57 -452 -7 -123 -15 -220 -18 -217 -3 3 -5 58 -5 122 1 96 0 104 -5 47
-4 -38 -10 -63 -13 -55 -16 36 -21 129 -27 515 l-6 410 -13 -135z m129 -650
c-6 -236 -8 -255 -15 -175 -11 114 4 460 19 443 2 -2 0 -122 -4 -268z m-24
-367 c-2 -21 -4 -6 -4 32 0 39 2 55 4 38 2 -18 2 -50 0 -70z m-135 -9 c-1 -10
2 -41 8 -69 12 -66 20 -175 12 -175 -15 0 -71 97 -74 126 -2 17 -11 39 -21 48
-21 21 -21 26 -1 54 29 41 81 52 76 16z m452 -6 c20 -28 20 -55 1 -74 -8 -9
-15 -27 -15 -40 0 -24 -57 -124 -71 -124 -10 0 1 163 13 187 6 12 8 33 4 47
-6 24 -4 26 23 26 20 0 35 -8 45 -22z m-294 -68 c0 -29 -4 -40 -15 -40 -8 0
-15 3 -15 7 0 9 23 73 27 73 2 0 3 -18 3 -40z m-50 -14 c0 -28 5 -38 27 -48
39 -19 40 -35 1 -30 -18 2 -39 9 -45 14 -14 11 -18 80 -6 91 15 15 23 5 23
-27z m198 -10 c4 -45 -11 -66 -49 -66 -16 0 -32 -7 -38 -17 -14 -24 -14 -7 0
18 5 11 21 24 35 29 19 8 24 17 24 46 0 48 24 40 28 -10z m-409 -57 c13 -39
14 -59 2 -59 -9 0 -31 53 -31 76 0 25 18 14 29 -17z m621 16 c0 -9 -7 -32 -15
-52 -23 -53 -40 -30 -18 25 16 42 33 56 33 27z m-183 -17 c-3 -8 -6 -5 -6 6
-1 11 2 17 5 13 3 -3 4 -12 1 -19z m-137 -59 c0 8 2 12 5 9 3 -3 2 -20 -2 -38
-7 -36 -13 -29 -27 35 l-6 30 15 -25 c8 -14 14 -19 15 -11z m-110 -46 c11 -25
18 -48 16 -51 -7 -7 -46 61 -46 81 0 28 8 20 30 -30z m240 30 c0 -20 -39 -88
-46 -81 -5 5 34 98 41 98 3 0 5 -8 5 -17z m-345 -63 c0 -7 -6 -15 -12 -17 -8
-3 -13 4 -13 17 0 13 5 20 13 18 6 -3 12 -11 12 -18z m445 -6 c0 -16 -16 -19
-25 -4 -8 13 4 32 16 25 5 -4 9 -13 9 -21z m-370 -54 c8 -15 8 -20 -2 -20 -21
0 -35 13 -43 38 -6 22 -5 23 14 13 11 -6 25 -20 31 -31z m310 16 c0 -16 -7
-27 -21 -31 -31 -10 -35 2 -9 30 29 31 30 31 30 1z m-230 -28 c0 -4 -4 -8 -10
-8 -5 0 -10 4 -10 9 0 5 -3 18 -6 28 -5 16 -4 16 10 -1 9 -11 16 -23 16 -28z
m126 -6 c-12 -11 -18 7 -10 30 l8 23 4 -23 c2 -13 1 -26 -2 -30z m-281 -112
c20 -83 15 -103 -9 -31 -15 46 -21 101 -12 101 2 0 12 -32 21 -70z m430 -13
c-17 -50 -44 -95 -32 -52 3 11 11 40 17 65 16 67 22 79 27 57 3 -9 -3 -41 -12
-70z m-358 -48 c13 -13 33 -4 33 16 0 10 7 11 28 6 20 -6 27 -14 27 -32 0 -19
-4 -23 -23 -21 -13 2 -32 -4 -42 -13 -16 -15 -18 -14 -24 2 -3 10 -13 29 -21
43 -16 27 -19 77 -7 107 5 12 9 0 12 -39 3 -31 10 -62 17 -69z m307 36 c-3
-22 -15 -50 -26 -62 -19 -20 -23 -21 -41 -8 -15 11 -24 12 -34 4 -9 -8 -14 -7
-19 5 -15 40 35 65 61 30 20 -29 45 8 46 69 0 45 2 48 10 27 6 -13 7 -43 3
-65z m-234 65 c0 -5 -4 -10 -9 -10 -5 0 -17 -7 -25 -16 -15 -14 -16 -14 -16 4
0 20 12 30 38 31 6 1 12 -3 12 -9z m179 -6 c2 -2 2 -6 0 -9 -8 -7 -49 7 -49
17 0 8 38 2 49 -8z m-419 -110 c0 -8 -4 -12 -10 -9 -5 3 -10 10 -10 16 0 5 5
9 10 9 6 0 10 -7 10 -16z m585 -34 c3 -5 1 -10 -4 -10 -6 0 -11 5 -11 10 0 6
2 10 4 10 3 0 8 -4 11 -10z m115 -37 c0 -20 -3 -24 -11 -16 -7 7 -9 19 -6 27
10 24 17 19 17 -11z m-761 -44 c-21 -39 -40 -8 -22 37 6 16 7 16 19 -1 9 -13
10 -23 3 -36z m741 -65 c5 -33 111 -260 140 -299 17 -23 110 -208 107 -212 -3
-2 -70 78 -150 177 -133 165 -145 183 -137 206 6 14 10 59 10 100 0 56 3 75
13 72 6 -3 14 -23 17 -44z m-726 9 c-3 -16 -19 -50 -34 -78 -114 -207 -205
-374 -222 -407 -26 -50 -32 -44 -14 13 14 41 102 334 112 372 3 9 28 27 55 38
27 12 49 27 49 33 0 19 30 56 46 56 11 0 13 -7 8 -27z m366 -72 c0 -9 -20 -37
-20 -29 0 3 -2 13 -5 21 -4 8 0 14 10 14 8 0 15 -3 15 -6z m-172 -57 c2 -35
-4 -67 -22 -114 -15 -36 -44 -112 -66 -170 -21 -58 -39 -102 -40 -97 0 6 60
261 92 390 15 60 32 56 36 -9z m113 -52 c-17 -32 -14 -121 15 -367 9 -78 -5
-47 -26 61 -53 262 -52 255 -39 272 44 58 74 78 50 34z"/>
<path d="M886 2783 c-29 -146 -56 -387 -55 -488 1 -66 4 -51 15 82 7 89 23
221 34 294 11 73 18 134 16 136 -2 3 -7 -8 -10 -24z"/>
<path d="M1102 2755 c0 -16 2 -22 5 -12 2 9 2 23 0 30 -3 6 -5 -1 -5 -18z"/>
<path d="M1113 2595 c0 -22 2 -30 4 -17 2 12 2 30 0 40 -3 9 -5 -1 -4 -23z"/>
<path d="M1402 2590 c0 -14 2 -19 5 -12 2 6 2 18 0 25 -3 6 -5 1 -5 -13z"/>
<path d="M1123 2410 c0 -41 2 -58 4 -37 2 20 2 54 0 75 -2 20 -4 3 -4 -38z"/>
<path d="M1412 2350 c0 -14 2 -19 5 -12 2 6 2 18 0 25 -3 6 -5 1 -5 -13z"/>
<path d="M1472 890 c0 -19 2 -27 5 -17 2 9 2 25 0 35 -3 9 -5 1 -5 -18z"/>
<path d="M1482 820 c0 -19 2 -27 5 -17 2 9 2 25 0 35 -3 9 -5 1 -5 -18z"/>
<path d="M1492 745 c0 -16 2 -22 5 -12 2 9 2 23 0 30 -3 6 -5 -1 -5 -18z"/>
<path d="M1503 675 c0 -22 2 -30 4 -17 2 12 2 30 0 40 -3 9 -5 -1 -4 -23z"/>
<path d="M1512 600 c0 -19 2 -27 5 -17 2 9 2 25 0 35 -3 9 -5 1 -5 -18z"/>
</g>
</svg>
