<?xml version="1.0" standalone="no"?>
<!DOCTYPE svg PUBLIC "-//W3C//DTD SVG 20010904//EN"
 "http://www.w3.org/TR/2001/REC-SVG-20010904/DTD/svg10.dtd">
<svg version="1.0" xmlns="http://www.w3.org/2000/svg"
 width="244.000000pt" height="305.000000pt" viewBox="0 0 244.000000 305.000000"
 preserveAspectRatio="xMidYMid meet">
<metadata>
Created by potrace 1.16, written by Peter Selinger 2001-2019
</metadata>
<g transform="translate(0.000000,305.000000) scale(0.100000,-0.100000)"
fill="#000000" stroke="none">
<path d="M1506 2902 c-2 -4 -7 -25 -11 -47 -11 -69 -18 -72 -31 -15 l-13 55 4
-70 c2 -38 0 -131 -5 -205 -5 -74 -14 -260 -21 -412 -7 -152 -16 -275 -21
-272 -4 3 -8 39 -8 81 0 66 -2 74 -15 63 -12 -10 -15 -10 -15 4 0 9 -4 16 -10
16 -5 0 -10 -6 -10 -12 0 -9 -3 -9 -9 1 -7 10 -11 0 -16 -35 -15 -121 -21
-104 -28 71 -8 231 -47 500 -67 464 -18 -32 -51 -303 -57 -467 -6 -173 -15
-198 -28 -79 -5 47 -10 57 -25 57 -15 0 -20 -10 -25 -47 -11 -82 -13 -72 -14
67 -2 281 -46 780 -69 780 -4 0 -6 -218 -4 -484 3 -494 1 -526 -33 -480 -11
16 -14 102 -12 474 1 250 4 443 8 430 4 -14 8 -50 8 -80 2 -88 21 -99 21 -12
0 39 -4 72 -9 72 -5 0 -12 18 -16 41 -4 22 -9 39 -11 37 -2 -2 -10 -37 -19
-77 -30 -142 -54 -400 -61 -644 l-7 -249 28 -22 c36 -29 26 -46 -25 -46 -44 0
-70 -26 -70 -72 0 -25 3 -27 30 -22 24 5 35 1 60 -24 30 -30 42 -82 19 -82
-19 0 -5 -120 19 -167 l21 -41 -32 -5 c-43 -6 -49 -1 -42 34 11 47 -6 58 -91
58 -68 0 -76 -2 -90 -25 -17 -25 -16 -33 6 -136 7 -31 9 -65 5 -75 -6 -16 -9
-14 -21 12 -7 17 -14 48 -15 70 -1 22 -5 54 -10 70 -5 20 -7 -3 -5 -68 l2 -98
-26 6 c-23 5 -36 -5 -105 -82 -43 -48 -86 -95 -95 -104 -8 -9 -28 -31 -44 -50
-16 -19 -43 -49 -59 -66 -37 -39 -32 -49 14 -29 70 30 161 66 166 66 3 0 -6
-15 -21 -34 -14 -19 -26 -39 -26 -45 0 -10 289 128 318 151 20 17 52 -21 59
-70 5 -38 3 -42 -20 -47 -14 -4 -29 -14 -32 -23 -15 -37 -142 -552 -136 -552
3 0 24 26 46 56 22 31 50 68 63 83 l23 26 -6 -30 c-4 -16 -11 -46 -16 -65 -10
-41 -11 -103 -1 -80 4 8 61 105 127 215 118 196 120 201 120 260 l0 60 52 0
c37 -1 58 -6 73 -20 39 -35 41 -49 13 -88 l-26 -36 21 -133 c12 -73 35 -218
52 -322 16 -104 32 -191 34 -193 4 -4 5 3 61 337 53 324 53 316 19 351 l-28
29 21 28 c28 37 61 53 108 50 42 -3 44 -6 31 -63 -6 -27 9 -57 120 -243 70
-117 129 -211 131 -208 2 2 -3 38 -11 80 -9 41 -16 78 -16 82 0 8 124 -157
140 -186 17 -31 17 -3 0 65 -10 39 -41 160 -69 270 -63 246 -60 235 -75 235
-7 0 -21 6 -31 14 -17 12 -17 17 -5 59 7 27 20 49 30 52 9 3 79 -25 162 -65
80 -38 148 -70 152 -70 4 0 -2 15 -13 34 -24 38 -27 53 -8 39 6 -5 50 -24 97
-42 47 -18 96 -37 109 -42 13 -5 25 -8 27 -7 3 3 -75 93 -215 247 -106 117
-101 113 -127 107 -24 -6 -24 -6 -25 86 -2 113 -16 75 -18 -46 l-1 -78 35 6
c33 7 38 4 93 -56 94 -101 191 -213 187 -216 -2 -2 -34 18 -72 44 -37 26 -90
63 -118 82 -96 68 -116 85 -140 127 -30 50 -31 78 -8 168 16 61 16 70 2 95
-14 26 -18 27 -102 28 -97 1 -114 -10 -101 -60 9 -36 -2 -48 -29 -33 -12 6
-24 13 -26 14 -2 1 6 22 18 46 30 62 38 138 17 156 -23 19 -20 39 10 78 23 30
31 34 63 31 33 -3 36 -1 39 24 2 19 -5 36 -22 53 -23 23 -31 25 -71 19 -55 -8
-58 4 -11 43 l33 28 -8 265 c-5 146 -13 292 -18 325 l-10 60 5 -75 c2 -41 7
-183 10 -316 l7 -240 -29 -23 -29 -23 -8 334 c-4 183 -6 408 -5 501 2 92 2
167 1 167 -1 0 -4 -3 -7 -8z m-426 -1001 c0 -11 6 -22 13 -24 6 -3 0 -6 -15
-6 -14 -1 -34 -4 -44 -8 -15 -6 -15 -2 5 25 25 36 41 41 41 13z m338 -3 c19
-19 14 -28 -13 -28 -27 0 -28 1 -19 24 7 19 16 20 32 4z m74 -50 c-15 -15 -26
-4 -18 18 5 13 9 15 18 6 9 -9 9 -15 0 -24z m-490 7 c0 -5 -5 -11 -11 -13 -6
-2 -11 4 -11 13 0 9 5 15 11 13 6 -2 11 -8 11 -13z m352 -10 c-9 -14 -19 -23
-22 -20 -5 4 26 45 35 45 2 0 -4 -11 -13 -25z m-218 -10 c9 -37 0 -40 -13 -5
-6 17 -7 30 -2 30 5 0 11 -11 15 -25z m1 -87 c-2 -8 -17 -12 -35 -10 -30 3
-32 1 -32 -27 0 -49 48 -79 78 -49 9 9 12 6 12 -15 0 -16 8 -30 21 -37 11 -7
27 -27 35 -46 8 -19 16 -34 19 -34 3 0 11 15 19 34 8 19 24 39 35 46 13 7 21
21 21 37 0 21 3 24 12 15 30 -30 78 0 78 48 0 27 -2 29 -30 24 -23 -5 -30 -3
-30 10 0 27 56 21 76 -9 15 -23 15 -31 4 -68 -7 -23 -17 -57 -22 -74 -11 -37
-15 -39 -42 -18 -11 8 -28 15 -37 15 -21 0 -62 -52 -76 -95 l-10 -30 -11 39
c-13 44 -48 86 -72 86 -10 0 -29 -9 -43 -20 l-25 -20 -11 32 c-6 17 -11 44
-11 59 0 16 -4 29 -10 29 -13 0 -13 46 0 71 8 14 21 19 51 19 28 0 39 -4 36
-12z m373 -174 c-5 -19 -12 -39 -16 -42 -4 -4 -4 4 -1 18 4 14 7 33 7 43 0 9
4 17 9 17 5 0 5 -15 1 -36z m-167 -91 c-67 -85 -62 -82 -53 -35 8 46 24 70 55
82 31 12 30 -7 -2 -47z m-190 30 c8 -10 19 -36 23 -58 l7 -40 -41 48 c-23 27
-42 52 -42 58 0 16 36 10 53 -8z m-168 -97 c13 -19 14 -29 5 -46 -16 -30 -30
-15 -30 31 0 46 4 48 25 15z m146 -19 c14 -10 34 -15 43 -11 12 4 16 0 16 -15
0 -12 -6 -21 -13 -21 -24 0 -97 59 -97 78 1 15 2 15 13 1 7 -8 24 -23 38 -32z
m559 8 c0 -35 -22 -129 -33 -140 -6 -6 -7 3 -4 25 3 19 9 61 13 92 6 55 24 72
24 23z m-885 -60 c6 -46 4 -57 -4 -49 -7 6 -15 38 -18 70 -8 80 13 60 22 -21z
m570 56 c-11 -11 -37 -29 -57 -40 l-38 -21 0 33 c0 24 3 28 10 17 8 -13 15
-12 47 7 47 27 64 29 38 4z m127 -11 c-4 -31 -17 -40 -25 -17 -5 14 10 47 22
47 4 0 6 -13 3 -30z m-312 -75 c0 -8 -4 -15 -10 -15 -5 0 -7 7 -4 15 4 8 8 15
10 15 2 0 4 -7 4 -15z m104 0 c3 -8 1 -15 -4 -15 -6 0 -10 7 -10 15 0 8 2 15
4 15 2 0 6 -7 10 -15z m-183 -7 c38 -11 39 -13 33 -44 -5 -29 -3 -35 19 -43
30 -12 39 -24 31 -44 -8 -22 -44 -28 -62 -11 -10 11 -25 14 -46 9 -59 -12 -80
-10 -83 5 -3 11 5 15 29 15 l33 0 -3 63 c-1 34 0 62 4 62 4 0 24 -5 45 -12z
m295 -2 c3 -8 1 -30 -4 -50 -11 -37 5 -75 25 -63 6 4 19 0 29 -8 18 -13 18
-14 2 -20 -10 -4 -32 -2 -49 4 -43 15 -55 14 -73 -5 -23 -22 -56 -9 -56 22 0
17 8 27 25 34 26 10 32 34 15 60 -7 12 -1 17 28 26 50 16 52 16 58 0z m139
-86 c-24 -52 -30 -46 -8 8 9 23 18 40 21 37 3 -3 -3 -23 -13 -45z m-840 1 c-3
-6 -11 -11 -17 -11 -6 0 -6 6 2 15 14 17 26 13 15 -4z m-87 -60 c-12 -16 -34
-43 -47 -61 -14 -18 -50 -43 -80 -57 -86 -38 -103 -44 -96 -33 11 17 228 178
243 180 2 0 -7 -13 -20 -29z m56 4 c4 -14 4 -30 1 -36 -5 -8 -70 -39 -81 -39
-7 0 61 100 67 100 4 0 10 -11 13 -25z m1102 -40 c4 -16 21 -31 48 -45 23 -11
55 -34 72 -51 l29 -31 -55 27 c-30 15 -81 43 -113 63 -53 33 -57 37 -41 49 28
21 53 16 60 -12z m-196 -85 c0 -49 -3 -58 -15 -54 -16 7 -19 32 -9 83 11 51
24 35 24 -29z m-379 -12 c7 -44 24 -88 35 -88 10 0 34 70 34 99 0 16 4 33 10
36 6 4 8 -5 5 -22 -2 -15 -7 -44 -10 -63 -3 -19 -14 -46 -24 -59 l-18 -24 -18
27 c-10 14 -20 48 -23 74 -2 26 -10 53 -16 61 -9 11 -8 13 4 9 9 -3 18 -23 21
-50z m-636 -2 c-22 -19 -42 -32 -44 -30 -8 8 52 64 68 64 10 0 0 -14 -24 -34z
m1107 -111 c10 -23 118 -429 115 -432 -6 -6 -131 254 -151 314 -23 70 -44 152
-39 157 9 9 66 -21 75 -39z m-732 -12 c0 -34 -9 -63 -36 -112 -42 -77 -74
-120 -74 -100 0 47 56 232 76 252 21 20 34 5 34 -40z m565 27 c3 -5 1 -26 -4
-46 -12 -42 -7 -53 51 -131 37 -49 115 -219 105 -229 -3 -3 -36 50 -75 118
-118 208 -122 217 -111 247 6 14 10 27 10 29 -6 21 13 31 24 12z m-688 -230
c-10 -40 -30 -83 -58 -125 -24 -35 -46 -61 -48 -59 -2 2 14 43 36 91 22 49 49
107 59 131 24 56 29 40 11 -38z m20 -101 c-13 -30 -27 -67 -31 -83 -12 -48
-17 -22 -6 34 10 50 51 130 58 111 2 -5 -8 -33 -21 -62z"/>
<path d="M1537 2729 c3 -37 9 -82 13 -100 l8 -34 0 30 c1 17 -5 62 -13 100
l-14 70 6 -66z"/>
<path d="M1422 2680 c0 -14 2 -19 5 -12 2 6 2 18 0 25 -3 6 -5 1 -5 -13z"/>
<path d="M972 2640 c0 -14 2 -19 5 -12 2 6 2 18 0 25 -3 6 -5 1 -5 -13z"/>
<path d="M1413 2590 c0 -25 2 -35 4 -22 2 12 2 32 0 45 -2 12 -4 2 -4 -23z"/>
<path d="M1403 2460 c0 -41 2 -58 4 -37 2 20 2 54 0 75 -2 20 -4 3 -4 -38z"/>
<path d="M1394 2245 c0 -60 1 -84 3 -52 2 32 2 81 0 110 -2 29 -3 3 -3 -58z"/>
</g>
</svg>
