<?xml version="1.0" standalone="no"?>
<!DOCTYPE svg PUBLIC "-//W3C//DTD SVG 20010904//EN"
 "http://www.w3.org/TR/2001/REC-SVG-20010904/DTD/svg10.dtd">
<svg version="1.0" xmlns="http://www.w3.org/2000/svg"
 width="244.000000pt" height="305.000000pt" viewBox="0 0 244.000000 305.000000"
 preserveAspectRatio="xMidYMid meet">
<metadata>
Created by potrace 1.16, written by Peter Selinger 2001-2019
</metadata>
<g transform="translate(0.000000,305.000000) scale(0.100000,-0.100000)"
fill="#000000" stroke="none">
<path d="M980 2905 c-1 -5 -2 -226 -2 -490 0 -264 -4 -466 -8 -450 l-8 30 -1
-27 c-3 -73 -49 -25 -54 57 -3 57 -3 56 -5 -17 -2 -78 -2 -78 36 -113 l37 -36
-50 6 c-62 7 -83 -6 -92 -58 -6 -37 -6 -37 30 -37 27 0 43 -7 62 -27 25 -28
35 -83 14 -83 -25 0 -3 -123 35 -199 40 -80 43 -93 21 -111 -13 -11 -15 -7
-16 24 -2 39 -2 44 -13 67 -5 10 -16 14 -36 11 -28 -4 -29 -3 -23 31 7 46 -12
56 -97 54 -59 -2 -66 -4 -77 -28 -10 -20 -10 -39 -3 -75 26 -121 26 -118 -23
-191 -43 -65 -87 -112 -133 -144 -12 -8 -46 -32 -75 -55 -30 -22 -61 -44 -69
-49 -19 -11 -15 -6 98 129 46 54 89 108 98 120 10 15 25 21 52 21 l37 0 -4 85
c-2 47 -8 94 -12 105 -6 13 -8 -13 -5 -72 3 -92 3 -93 -19 -87 -19 5 -35 -9
-98 -83 -126 -148 -225 -268 -223 -270 1 -2 42 13 90 33 84 33 114 38 88 12
-7 -7 -12 -17 -12 -24 0 -7 39 9 88 35 48 25 118 61 154 80 l68 34 19 -24 c30
-36 36 -88 14 -105 -10 -7 -23 -14 -29 -14 -6 0 -26 -62 -43 -137 -18 -76 -49
-202 -68 -281 -19 -79 -33 -148 -31 -154 2 -6 17 10 34 35 16 26 40 62 52 80
l24 32 -7 -65 -6 -65 51 85 c28 47 66 112 84 145 18 33 50 88 70 123 41 68 43
78 31 136 l-8 39 50 -5 c52 -5 98 -31 108 -61 4 -10 -3 -30 -16 -49 -26 -35
-26 -49 -4 -188 8 -52 28 -185 45 -295 17 -110 33 -201 35 -203 2 -2 7 18 10
45 4 26 13 84 20 128 7 44 26 169 41 278 24 171 26 201 14 220 -7 12 -18 29
-23 38 -7 12 -5 23 9 42 25 33 55 47 105 47 l39 0 -6 -52 c-7 -56 7 -89 90
-223 17 -27 47 -79 65 -115 19 -36 47 -85 63 -110 24 -40 28 -42 28 -20 0 14
-5 42 -11 63 -17 63 -6 60 40 -8 24 -36 45 -64 47 -62 2 2 -26 129 -61 282
-36 153 -65 280 -65 281 0 1 -10 4 -22 6 -35 5 -36 59 -4 109 27 40 46 50 46
25 0 -8 12 -21 28 -29 96 -51 285 -147 289 -147 3 0 -2 11 -11 25 -22 33 -21
48 3 36 28 -16 121 -51 121 -47 0 2 -37 49 -82 104 -46 55 -110 132 -142 171
-51 62 -63 71 -84 66 l-24 -6 4 90 c1 49 0 87 -4 84 -5 -2 -8 -28 -8 -58 0
-57 -13 -105 -29 -105 -17 0 -17 34 1 104 28 110 12 136 -85 136 -63 0 -80
-13 -71 -58 6 -29 4 -31 -27 -34 -21 -2 -35 -9 -36 -18 -1 -8 -5 -33 -8 -55
l-7 -40 -18 23 c-19 22 -18 24 15 87 18 36 39 90 46 121 11 50 11 59 -6 90
-16 31 -16 35 -2 57 30 47 49 59 79 53 23 -4 28 -2 28 14 0 28 -18 70 -32 74
-7 3 -30 7 -50 11 -40 6 -44 29 -7 40 18 6 19 18 19 170 0 260 -32 629 -68
795 l-8 35 -9 -35 -8 -35 -4 30 c-14 99 -18 -10 -15 -445 3 -457 2 -489 -14
-483 -16 6 -17 26 -11 247 4 133 9 275 11 316 4 67 4 70 -4 25 -5 -27 -12
-168 -16 -312 -4 -145 -11 -263 -16 -263 -4 0 -9 62 -10 138 l-2 137 -6 -135
c-3 -74 -7 -121 -8 -104 -1 17 -5 52 -8 77 -6 40 -9 45 -24 37 -14 -7 -19 -30
-26 -97 l-8 -88 -7 70 c-4 39 -7 113 -8 165 -2 170 -44 470 -61 439 -17 -31
-50 -314 -57 -494 -6 -167 -8 -182 -15 -120 -12 111 -17 132 -33 132 -10 0
-16 -17 -20 -56 -4 -31 -8 -60 -9 -65 -1 -5 -7 123 -14 285 -7 162 -17 330
-22 374 -26 207 -33 255 -38 250 -3 -3 -5 -40 -5 -83 l1 -77 -9 57 c-9 63 -26
129 -29 113z m509 -132 c-1 -75 -1 -76 -11 -34 -9 39 -4 111 7 111 3 0 5 -35
4 -77z m-259 -723 c0 -439 0 -440 -20 -423 -19 16 -20 30 -20 213 1 228 24
650 36 650 2 0 4 -198 4 -440z m-111 -184 c11 -11 21 -26 20 -35 0 -11 -3 -10
-11 6 -11 22 -59 40 -78 28 -18 -11 -11 8 12 32 20 22 23 22 29 6 4 -10 16
-27 28 -37z m312 13 c10 -20 9 -21 -23 -14 -41 9 -38 7 -31 33 4 17 9 20 24
12 10 -6 24 -20 30 -31z m-421 -24 c0 -8 -4 -15 -10 -15 -5 0 -10 7 -10 15 0
8 5 15 10 15 6 0 10 -7 10 -15z m465 -15 c-5 -8 -11 -8 -17 -2 -6 6 -7 16 -3
22 5 8 11 8 17 2 6 -6 7 -16 3 -22z m-132 5 c-3 -9 -8 -14 -10 -11 -3 3 -2 9
2 15 9 16 15 13 8 -4z m19 -85 c18 0 36 -8 44 -17 16 -21 18 -69 4 -78 -5 -3
-10 -19 -10 -35 0 -16 -5 -41 -11 -57 -9 -25 -12 -26 -23 -11 -7 9 -24 20 -38
23 -33 8 -64 -23 -79 -79 l-11 -41 -18 48 c-10 27 -24 55 -30 63 -17 20 -53
17 -78 -6 -21 -20 -21 -20 -32 -1 -5 11 -10 35 -10 55 0 19 -4 38 -10 41 -14
9 -12 57 4 78 17 21 76 24 76 2 0 -11 -8 -13 -30 -8 -26 5 -30 2 -30 -15 0
-62 39 -91 74 -56 15 14 16 12 16 -19 0 -22 6 -37 15 -41 9 -3 24 -25 34 -48
l18 -43 12 38 c7 21 21 43 32 50 12 8 19 23 19 45 0 30 1 32 16 18 33 -34 74
-3 74 56 0 17 -4 20 -29 15 -24 -5 -30 -2 -35 16 -3 12 -5 33 -4 47 1 19 2 17
5 -7 4 -29 8 -33 35 -33z m-229 -231 c14 -6 30 -23 37 -38 14 -30 26 -141 16
-141 -24 0 -106 64 -106 83 0 5 16 -5 35 -22 20 -17 42 -31 50 -31 17 0 21 45
4 55 -14 9 -69 86 -69 97 0 11 4 10 33 -3z m222 -26 c-10 -16 -29 -38 -42 -50
l-23 -22 0 23 c0 31 37 76 62 76 20 0 20 -1 3 -27z m35 -73 c-11 -21 -86 -80
-102 -80 -4 0 -8 9 -8 19 0 14 5 18 19 14 13 -3 32 7 58 31 44 41 47 43 33 16z
m-556 -92 c4 -28 3 -48 -2 -48 -13 0 -22 36 -22 85 1 51 15 29 24 -37z m286
-29 c36 -11 38 -14 33 -45 -5 -29 -2 -35 21 -45 30 -14 33 -31 10 -53 -19 -20
-23 -20 -46 0 -15 15 -23 15 -64 4 -39 -11 -47 -11 -55 1 -6 11 -1 15 24 19
l32 5 -3 63 c-2 34 0 62 4 62 3 0 24 -5 44 -11z m278 -51 l-3 -63 33 1 c34 2
43 -15 19 -35 -10 -8 -19 -7 -33 4 -25 19 -69 19 -88 0 -16 -17 -41 -11 -50
11 -8 21 3 41 25 47 16 4 20 12 17 39 -3 29 1 35 27 45 55 21 57 19 53 -49z
m332 -125 c0 -24 7 -31 48 -47 50 -20 146 -85 138 -93 -5 -5 -246 125 -246
132 0 2 7 11 16 19 24 25 44 20 44 -11z m49 -4 c12 -12 20 -23 18 -26 -7 -6
-57 27 -57 38 0 15 15 10 39 -12z m226 -119 c3 -5 -13 -1 -35 7 -41 16 -100
68 -100 87 0 5 -8 18 -17 30 -10 11 19 -11 64 -48 46 -37 85 -71 88 -76z
m-802 27 c8 -54 23 -97 36 -97 5 0 13 17 19 38 8 29 10 32 11 12 0 -14 -8 -38
-19 -55 -19 -28 -20 -48 -21 -315 l-1 -285 -23 160 c-42 284 -42 285 -9 343
27 48 28 53 15 94 -16 54 -29 148 -20 148 3 0 9 -19 12 -43z m79 13 c-2 -16
-6 -30 -8 -30 -2 0 -4 14 -4 30 0 17 4 30 8 30 5 0 7 -13 4 -30z m-352 -54
c-15 -15 -18 -5 -12 34 l5 35 8 -30 c5 -17 4 -34 -1 -39z m-330 30 c0 -2 -7
-7 -16 -10 -8 -3 -12 -2 -9 4 6 10 25 14 25 6z m260 -196 c-18 -84 -117 -346
-127 -336 -2 2 5 41 16 87 11 46 29 125 41 174 30 133 49 183 68 187 25 5 25
-9 2 -112z m55 73 c-20 -48 -25 -52 -25 -20 0 36 10 57 26 57 12 0 12 -6 -1
-37z m571 15 c-19 -68 -18 -71 46 -168 34 -52 69 -108 76 -125 21 -46 44 -116
40 -121 -4 -3 -126 215 -166 300 -19 38 -23 57 -17 92 3 24 11 44 17 44 6 0 8
-9 4 -22z m52 -86 c29 -90 28 -97 -8 -35 -28 49 -40 103 -22 103 4 0 17 -31
30 -68z m182 -315 c0 -13 -33 31 -52 68 -9 17 -19 50 -22 75 -6 41 -3 37 33
-45 23 -49 41 -93 41 -98z m-875 61 c-8 -37 -25 -61 -25 -35 0 17 20 67 27 67
3 0 2 -15 -2 -32z"/>
<path d="M1431 2814 c0 -11 3 -14 6 -6 3 7 2 16 -1 19 -3 4 -6 -2 -5 -13z"/>
<path d="M956 2793 c-19 -93 -38 -291 -41 -438 l-3 -170 8 150 c8 161 24 324
41 419 10 58 6 92 -5 39z"/>
<path d="M1422 2745 c0 -16 2 -22 5 -12 2 9 2 23 0 30 -3 6 -5 -1 -5 -18z"/>
<path d="M1413 2645 c0 -27 2 -38 4 -22 2 15 2 37 0 50 -2 12 -4 0 -4 -28z"/>
<path d="M1397 2510 c-4 -47 -6 -121 -5 -165 1 -62 3 -47 10 65 9 163 6 231
-5 100z"/>
<path d="M964 2170 c0 -96 2 -136 3 -87 2 48 2 126 0 175 -1 48 -3 8 -3 -88z"/>
</g>
</svg>
