<?xml version="1.0" standalone="no"?>
<!DOCTYPE svg PUBLIC "-//W3C//DTD SVG 20010904//EN"
 "http://www.w3.org/TR/2001/REC-SVG-20010904/DTD/svg10.dtd">
<svg version="1.0" xmlns="http://www.w3.org/2000/svg"
 width="244.000000pt" height="305.000000pt" viewBox="0 0 244.000000 305.000000"
 preserveAspectRatio="xMidYMid meet">
<metadata>
Created by potrace 1.16, written by Peter Selinger 2001-2019
</metadata>
<g transform="translate(0.000000,305.000000) scale(0.100000,-0.100000)"
fill="#000000" stroke="none">
<path d="M1112 2890 c0 -19 2 -27 5 -17 2 9 2 25 0 35 -3 9 -5 1 -5 -18z"/>
<path d="M1540 2898 c0 -9 -3 -24 -7 -34 -4 -12 -3 -15 5 -10 9 5 12 -109 12
-473 0 -269 -4 -481 -9 -481 -5 0 -15 7 -22 16 -7 9 -23 20 -36 25 -22 8 -23
14 -23 101 0 156 19 425 41 582 11 81 18 150 16 153 -5 4 -30 -158 -47 -296
-5 -46 -13 -191 -16 -322 l-7 -238 24 -9 c13 -6 33 -19 43 -31 25 -27 28 -27
80 12 l45 32 0 160 c1 246 -20 484 -66 725 -15 78 -33 127 -33 88z"/>
<path d="M927 2399 c2 -341 -1 -499 -8 -499 -5 0 -26 12 -45 28 l-35 27 2 116
c2 162 26 486 44 588 21 119 17 145 -6 36 -16 -79 -28 -186 -44 -400 -5 -73
-8 -365 -3 -370 1 -1 24 -19 50 -38 46 -35 46 -35 65 -15 10 11 31 27 47 35
l29 15 -7 217 c-8 252 -19 390 -46 556 -43 259 -45 242 -43 -296z"/>
<path d="M1351 2855 c-1 -22 -2 -231 -2 -465 0 -383 -6 -497 -22 -450 -6 17
-14 101 -22 235 -8 127 -22 221 -47 331 -17 74 -24 91 -30 75 -18 -50 -48
-229 -58 -353 -7 -73 -13 -134 -14 -136 -2 -1 -6 125 -10 280 -8 271 -20 486
-25 423 -1 -16 -2 -186 -1 -377 1 -192 -1 -348 -4 -348 -3 0 -12 12 -20 28
l-14 27 -7 -28 c-4 -15 -8 -72 -9 -127 l-1 -100 -35 -5 c-52 -9 -63 -17 -86
-64 l-20 -42 -19 41 c-21 47 -40 60 -88 60 -42 0 -67 -25 -67 -68 0 -30 1 -31
35 -25 30 5 39 1 70 -30 38 -38 43 -58 20 -77 -33 -28 -6 -141 54 -222 17 -23
31 -47 31 -54 0 -6 -14 -28 -30 -49 -30 -38 -41 -97 -20 -110 13 -8 13 -35 0
-35 -24 0 -41 51 -46 141 -2 51 -9 98 -15 105 -36 43 -99 3 -99 -63 0 -28 16
-67 61 -148 54 -97 60 -115 56 -150 -5 -38 -5 -39 8 -15 19 34 19 6 0 -30 -9
-17 -17 -30 -18 -30 -1 0 -3 18 -4 41 -4 70 -21 112 -73 184 -75 104 -86 170
-40 235 11 15 20 35 20 44 0 40 -102 52 -132 15 -23 -27 -23 -46 3 -131 27
-87 17 -133 -36 -175 -45 -36 -317 -203 -330 -203 -5 0 51 61 126 135 130 129
138 135 163 125 15 -5 32 -10 37 -10 10 0 12 90 3 167 -11 89 -27 49 -19 -48
l7 -89 -30 6 c-28 6 -41 -4 -204 -164 -95 -94 -171 -173 -168 -175 5 -5 113
31 348 114 81 28 92 35 92 56 0 32 18 37 66 17 46 -19 80 -48 100 -86 23 -45
18 -66 -18 -76 -27 -7 -36 -16 -46 -48 -29 -86 -153 -526 -150 -529 3 -3 284
326 349 409 20 26 21 33 11 70 -6 22 -7 45 -3 49 5 4 41 7 82 5 67 -3 74 -5
73 -23 0 -11 -18 -105 -40 -209 -30 -146 -41 -182 -46 -160 -5 21 -6 15 -4
-18 2 -27 0 -48 -5 -48 -5 0 -9 -19 -9 -42 1 -35 13 -6 63 151 l61 194 17 -69
c9 -38 38 -183 65 -322 l48 -254 23 114 c50 256 83 436 89 481 4 26 10 47 14
47 4 0 12 -18 19 -41 7 -23 15 -39 17 -36 3 3 -4 37 -16 77 -21 70 -24 138 -6
143 9 2 76 -308 75 -343 -1 -8 -10 14 -21 49 -10 34 -22 61 -25 58 -5 -6 73
-266 82 -276 3 -2 3 9 1 25 -3 16 -10 72 -16 124 -6 52 -17 152 -25 222 -21
174 -25 158 45 158 65 0 66 -1 49 -61 l-12 -38 151 -183 c193 -233 221 -265
222 -252 0 9 -91 331 -142 504 -11 36 -21 49 -51 63 -44 22 -48 48 -14 98 24
36 86 75 127 81 21 2 26 -2 28 -23 3 -25 17 -31 232 -108 127 -44 233 -81 236
-81 4 0 -76 81 -177 180 -172 169 -186 180 -216 176 l-32 -5 5 92 c4 67 3 88
-5 77 -6 -8 -11 -32 -11 -53 0 -22 -7 -63 -16 -93 -12 -41 -13 -58 -4 -69 6
-7 90 -66 186 -130 97 -64 174 -118 172 -120 -2 -2 -69 21 -148 51 -80 31
-157 60 -172 66 -29 10 -32 19 -19 53 6 15 1 26 -21 46 -25 24 -28 34 -28 87
0 33 7 79 15 102 19 55 19 104 -1 124 -20 20 -93 21 -120 2 -19 -14 -18 -15 9
-69 15 -30 27 -67 27 -83 -1 -39 -33 -109 -76 -161 -20 -24 -44 -67 -54 -95
-10 -29 -23 -54 -29 -56 -25 -8 -7 43 50 145 71 126 86 195 51 226 -12 11 -31
17 -48 15 -34 -4 -43 -30 -49 -135 -2 -46 -10 -83 -21 -103 -31 -52 -48 -30
-20 25 17 32 10 59 -29 109 -14 18 -25 36 -25 41 0 4 16 32 35 61 62 94 82
179 49 215 -14 16 -15 23 -4 49 17 42 47 60 97 60 48 0 53 11 28 60 -17 33
-62 47 -97 29 -30 -15 -57 -49 -58 -71 0 -28 -15 -21 -31 14 -23 51 -56 69
-109 60 -43 -7 -46 -9 -57 -52 l-11 -45 -1 38 c-1 30 5 43 31 66 l32 28 -12
109 c-6 60 -15 213 -18 339 -7 229 -30 586 -33 510z m-122 -833 c1 -266 -2
-401 -9 -397 -6 4 -11 78 -12 183 0 97 -4 157 -7 132 -5 -32 -9 -2 -14 105 -7
137 -4 193 19 365 16 118 23 4 23 -388z m-82 -144 c-3 -7 -5 -2 -5 12 0 14 2
19 5 13 2 -7 2 -19 0 -25z m180 0 c-3 -8 -6 -5 -6 6 -1 11 2 17 5 13 3 -3 4
-12 1 -19z m-137 -90 c0 -39 -3 -68 -7 -64 -9 9 -10 145 -1 139 5 -2 8 -36 8
-75z m-70 18 c0 -39 -6 -31 -14 19 -5 29 -4 36 3 25 6 -8 11 -28 11 -44z m-42
-52 c27 -19 20 -39 -8 -22 -11 7 -22 9 -26 6 -10 -11 5 -57 26 -78 22 -22 26
-60 9 -91 -8 -16 -7 -25 4 -37 17 -20 29 -62 17 -62 -18 0 -100 114 -106 148
-4 20 -14 45 -22 55 -30 34 15 96 68 97 9 0 26 -7 38 -16z m407 -9 c28 -27 33
-63 10 -71 -9 -4 -15 -19 -15 -38 0 -36 -21 -72 -79 -136 -39 -44 -40 -45 -41
-18 0 16 9 36 22 48 17 16 19 23 10 32 -18 18 -16 98 2 98 15 0 42 67 32 78
-4 3 -15 1 -26 -6 -21 -13 -37 0 -17 16 36 28 72 27 102 -3z m-309 -135 c29
-11 31 -26 5 -33 -30 -8 -41 13 -39 73 1 50 2 51 5 12 3 -35 9 -45 29 -52z
m155 33 c-2 -55 -17 -75 -48 -67 -27 7 -21 21 13 34 20 8 24 16 24 51 0 23 3
39 7 36 3 -4 5 -28 4 -54z m-131 17 c0 -21 -5 -30 -16 -30 -9 0 -13 5 -10 13
3 6 9 20 12 30 9 25 14 21 14 -13z m-260 -52 c0 -7 11 -35 25 -63 25 -52 33
-91 15 -80 -33 20 -76 155 -50 155 6 0 10 -6 10 -12z m177 -20 c-3 -7 -5 -2
-5 12 0 14 2 19 5 13 2 -7 2 -19 0 -25z m433 7 c0 -30 -41 -115 -64 -134 -27
-22 -20 13 17 90 34 73 47 84 47 44z m-301 -69 c-2 -23 -17 -60 -18 -46 -1 8
-4 24 -7 36 -4 14 -1 21 10 21 9 0 16 -5 15 -11z m-90 -76 c23 -59 26 -80 12
-64 -8 9 -51 118 -51 131 0 18 21 -18 39 -67z m178 33 c-8 -41 -37 -106 -44
-99 -6 6 36 126 44 126 3 0 3 -12 0 -27z m-287 -60 c0 -19 -3 -24 -10 -17 -6
6 -8 18 -4 27 9 24 14 21 14 -10z m380 -5 c0 -18 -2 -20 -9 -8 -6 8 -7 18 -5
22 9 14 14 9 14 -14z m-55 -37 c-7 -24 -35 -29 -35 -6 0 13 31 38 38 30 2 -2
1 -13 -3 -24z m-251 3 c4 -9 4 -19 2 -22 -10 -9 -36 8 -36 23 0 20 26 19 34
-1z m343 -106 c-2 -13 -4 -3 -4 22 0 25 2 35 4 23 2 -13 2 -33 0 -45z m-403
-22 c9 -38 14 -71 12 -73 -7 -7 -36 96 -36 125 0 38 7 24 24 -52z m356 15 c-5
-29 -14 -60 -20 -69 -12 -19 -7 19 11 92 15 55 21 39 9 -23z m-410 40 c0 -6
-4 -13 -10 -16 -5 -3 -10 1 -10 9 0 9 5 16 10 16 6 0 10 -4 10 -9z m161 -14
c-13 -13 -26 -3 -16 12 3 6 11 8 17 5 6 -4 6 -10 -1 -17z m149 2 c0 -5 -7 -9
-15 -9 -15 0 -20 12 -9 23 8 8 24 -1 24 -14z m-199 -95 c15 -19 29 -18 29 2 0
24 35 12 38 -14 3 -16 -2 -22 -15 -22 -11 0 -24 -5 -30 -11 -6 -6 -16 -9 -21
-5 -12 7 -32 87 -31 123 1 21 3 17 10 -16 4 -24 14 -49 20 -57z m245 2 c-10
-53 -18 -58 -55 -40 -20 10 -31 22 -29 32 4 22 38 29 38 8 0 -9 4 -16 10 -16
15 0 30 36 32 77 l1 38 4 -34 c3 -19 2 -48 -1 -65z m-409 -14 c10 -7 10 -12 0
-25 -15 -20 -43 -7 -34 17 7 18 16 20 34 8z m553 -21 c14 -27 13 -31 -10 -31
-15 0 -20 7 -20 25 0 30 15 33 30 6z m84 -147 c3 -8 2 -12 -4 -9 -6 3 -10 10
-10 16 0 14 7 11 14 -7z m50 -129 c161 -310 206 -399 203 -402 -2 -1 -59 67
-128 153 -68 85 -132 165 -142 176 -13 17 -16 29 -10 52 4 17 7 53 5 79 -1 33
2 47 9 45 7 -2 35 -49 63 -103z m-832 -46 c-38 -68 -92 -169 -122 -224 -82
-155 -87 -154 -36 10 18 61 46 153 61 206 26 94 28 96 63 107 23 7 38 8 40 2
2 -5 16 2 30 15 15 14 28 21 30 17 1 -5 -28 -65 -66 -133z m438 95 c0 -14 -14
-33 -21 -28 -15 9 -10 31 6 31 8 0 15 -1 15 -3z m-89 -67 c9 -15 6 -24 -12
-43 -12 -13 -25 -24 -28 -24 -3 0 -4 25 -3 55 3 48 6 54 18 44 9 -7 20 -21 25
-32z m189 -14 l0 -56 -25 23 c-14 13 -25 28 -25 34 0 9 39 56 47 56 2 0 3 -26
3 -57z m-122 -235 c-1 -154 -4 -226 -8 -183 l-6 70 -3 -55 c-3 -54 -4 -54 -26
55 -12 61 -30 140 -38 176 -19 77 -15 98 26 145 22 24 33 31 39 22 5 -9 8 -8
8 5 0 9 2 17 5 17 3 0 4 -114 3 -252z m229 -90 c-3 -8 -6 -5 -6 6 -1 11 2 17
5 13 3 -3 4 -12 1 -19z"/>
<path d="M1213 2300 c0 -47 2 -66 4 -42 2 23 2 61 0 85 -2 23 -4 4 -4 -43z"/>
<path d="M1196 825 c-3 -9 -5 -47 -4 -83 l1 -67 7 80 c6 86 6 95 -4 70z"/>
<path d="M1203 585 c0 -27 2 -38 4 -22 2 15 2 37 0 50 -2 12 -4 0 -4 -28z"/>
<path d="M1522 2810 c0 -14 2 -19 5 -12 2 6 2 18 0 25 -3 6 -5 1 -5 -13z"/>
<path d="M1331 2674 c0 -11 3 -14 6 -6 3 7 2 16 -1 19 -3 4 -6 -2 -5 -13z"/>
<path d="M1093 2625 c0 -22 2 -30 4 -17 2 12 2 30 0 40 -3 9 -5 -1 -4 -23z"/>
<path d="M1331 2624 c0 -11 3 -14 6 -6 3 7 2 16 -1 19 -3 4 -6 -2 -5 -13z"/>
<path d="M1323 2425 c0 -44 2 -61 4 -37 2 23 2 59 0 80 -2 20 -4 1 -4 -43z"/>
<path d="M1084 2360 c0 -58 1 -81 3 -52 2 28 2 76 0 105 -2 28 -3 5 -3 -53z"/>
<path d="M1033 885 c0 -22 2 -30 4 -17 2 12 2 30 0 40 -3 9 -5 -1 -4 -23z"/>
<path d="M1016 759 c-4 -44 -5 -83 -3 -85 3 -3 8 31 12 76 4 45 5 83 2 86 -2
3 -8 -32 -11 -77z"/>
<path d="M1003 615 c0 -22 2 -30 4 -17 2 12 2 30 0 40 -3 9 -5 -1 -4 -23z"/>
</g>
</svg>
