<?xml version="1.0" standalone="no"?>
<!DOCTYPE svg PUBLIC "-//W3C//DTD SVG 20010904//EN"
 "http://www.w3.org/TR/2001/REC-SVG-20010904/DTD/svg10.dtd">
<svg version="1.0" xmlns="http://www.w3.org/2000/svg"
 width="244.000000pt" height="305.000000pt" viewBox="0 0 244.000000 305.000000"
 preserveAspectRatio="xMidYMid meet">
<metadata>
Created by potrace 1.16, written by Peter Selinger 2001-2019
</metadata>
<g transform="translate(0.000000,305.000000) scale(0.100000,-0.100000)"
fill="#000000" stroke="none">
<path d="M929 2909 c-1 -2 -3 -13 -5 -24 -1 -11 -5 -31 -9 -45 -5 -21 -4 -22
4 -5 6 13 10 -73 11 -255 1 -151 3 -311 5 -355 1 -44 0 -135 -3 -202 l-5 -122
-39 27 -40 27 6 210 c6 210 18 372 36 474 6 30 10 64 9 75 -1 32 -26 -92 -34
-170 -4 -38 -9 -78 -12 -89 -2 -11 -6 -136 -10 -277 -4 -188 -3 -258 5 -258 6
0 27 -13 45 -30 41 -35 41 -35 69 -11 13 11 34 28 47 39 l24 19 -12 274 c-12
261 -32 446 -67 617 -14 69 -22 93 -25 81z"/>
<path d="M1371 2894 c0 -11 3 -14 6 -6 3 7 2 16 -1 19 -3 4 -6 -2 -5 -13z"/>
<path d="M1092 2870 c0 -19 2 -27 5 -17 2 9 2 25 0 35 -3 9 -5 1 -5 -18z"/>
<path d="M1527 2886 c-10 -26 -8 -56 3 -56 7 0 10 -149 8 -462 -2 -308 -6
-463 -13 -463 -6 0 -24 11 -40 23 l-30 24 3 191 c1 106 7 237 12 292 19 188
21 224 11 185 -14 -53 -30 -262 -37 -491 l-7 -205 34 -22 c19 -12 42 -27 51
-34 14 -10 21 -9 40 9 13 11 34 26 47 33 l23 12 -6 191 c-9 265 -23 428 -52
592 -30 176 -38 206 -47 181z"/>
<path d="M1381 2483 c0 -235 -5 -383 -11 -383 -5 0 -13 -28 -17 -62 -7 -55 -9
-44 -14 97 l-5 160 -1 -203 c-1 -112 -4 -206 -7 -210 -3 -3 -6 6 -6 19 0 13
-7 120 -15 237 -14 190 -41 384 -64 445 -8 21 -8 21 -14 2 -25 -82 -49 -247
-58 -395 -5 -96 -14 -209 -18 -250 -7 -65 -8 -54 -10 90 -2 284 -32 855 -41
770 l-2 -25 -9 25 c-7 21 -8 20 -2 -5 4 -16 8 -164 10 -327 3 -241 1 -310 -12
-363 -8 -37 -16 -87 -17 -113 -1 -26 -5 27 -8 118 l-6 165 -2 -179 c-2 -166 0
-181 19 -212 11 -19 25 -32 30 -28 5 3 9 -4 9 -15 0 -27 -4 -26 -34 4 -46 46
-105 24 -130 -49 l-13 -39 -12 36 c-29 87 -133 103 -160 24 -14 -39 -7 -47 39
-47 31 0 44 -6 69 -35 35 -40 38 -57 15 -76 -24 -20 -13 -98 25 -171 39 -76
40 -118 3 -192 -31 -61 -45 -63 -37 -7 3 20 0 63 -7 96 -12 57 -15 60 -45 63
-37 4 -63 -26 -63 -73 0 -32 37 -118 71 -166 11 -16 19 -36 17 -45 -6 -30
-106 122 -119 180 -11 49 -10 56 15 102 14 27 26 54 26 61 0 35 -98 45 -130
13 -25 -25 -25 -33 0 -112 40 -128 25 -165 -98 -245 -172 -111 -272 -172 -272
-165 0 4 60 67 134 141 l133 133 43 -7 42 -7 -8 81 c-11 132 -24 161 -21 48
l3 -97 -31 5 c-28 6 -41 -5 -209 -174 -99 -100 -176 -181 -171 -181 15 0 429
152 443 163 6 5 12 18 12 28 0 29 16 31 61 8 90 -46 112 -100 64 -158 -14 -16
-37 -67 -50 -113 -116 -400 -142 -502 -122 -477 2 2 38 47 80 99 81 102 159
200 233 292 44 56 45 58 34 98 -13 49 -8 60 32 60 l31 0 -7 -55 c-15 -128 -14
-162 1 -57 16 107 18 112 41 112 22 0 23 -3 17 -37 -14 -81 -93 -387 -94 -364
-2 42 -8 18 -15 -54 l-7 -70 44 110 c93 237 111 292 117 349 l5 59 33 -27 c17
-15 32 -33 32 -39 0 -7 -13 -27 -28 -46 l-28 -33 23 -132 c13 -72 36 -201 52
-286 16 -85 33 -173 37 -195 7 -38 8 -33 29 70 12 61 32 166 44 235 12 69 30
167 40 218 l17 93 -28 32 c-15 17 -27 37 -28 44 0 12 56 63 70 63 5 0 7 -21 4
-47 -4 -34 0 -64 15 -103 45 -123 81 -220 114 -305 42 -105 42 -113 1 190 -14
105 -28 209 -31 232 -6 42 -5 43 25 43 36 0 42 -11 28 -60 -9 -34 -7 -40 30
-87 101 -130 317 -393 320 -390 2 2 -19 79 -45 173 -27 93 -61 214 -76 269
-15 55 -38 124 -51 153 -30 65 -30 83 -1 110 21 20 86 52 106 52 5 0 11 -12
13 -27 3 -29 19 -36 223 -107 39 -14 101 -36 138 -50 38 -14 67 -22 65 -17 -2
5 -76 84 -165 176 -152 157 -163 167 -191 160 l-30 -6 5 93 c3 67 2 89 -6 78
-6 -8 -11 -36 -11 -61 0 -26 -7 -66 -15 -89 -8 -23 -12 -48 -7 -55 7 -13 81
-67 258 -190 47 -32 82 -61 77 -62 -9 -3 -303 114 -316 126 -4 4 -2 20 5 35
10 23 10 29 -2 37 -8 4 -21 13 -29 18 -24 16 -25 99 -2 186 21 78 21 80 3 105
-26 34 -83 39 -112 10 l-21 -21 25 -44 c14 -24 26 -59 26 -77 0 -41 -30 -107
-72 -162 -17 -22 -33 -43 -35 -45 -2 -2 -6 -2 -9 1 -3 3 13 42 35 87 46 91 52
140 21 171 -23 23 -55 26 -67 8 -4 -7 -13 -51 -19 -98 -10 -78 -12 -83 -22
-57 -6 15 -16 27 -22 27 -6 0 -10 28 -10 69 0 53 6 82 26 125 34 75 41 127 20
145 -25 21 -19 54 16 90 27 28 37 32 66 28 24 -4 35 -2 39 9 8 22 -12 60 -41
79 -35 23 -86 0 -110 -49 -17 -35 -36 -41 -36 -10 0 25 -56 74 -84 74 -14 0
-33 -10 -44 -25 -24 -30 -32 -31 -32 -5 0 11 6 20 14 20 7 0 21 15 30 34 20
42 21 238 5 579 -19 416 -26 418 -28 10z m-153 -661 c-2 -169 -5 -202 -15
-182 -9 20 -12 21 -12 7 -1 -11 -6 -17 -13 -14 -7 2 -11 11 -9 18 2 8 9 31 14
51 8 27 8 80 -1 185 -15 186 -15 258 1 402 12 115 12 116 18 56 l6 -60 1 70
c0 39 2 77 4 85 4 24 9 -394 6 -618z m-48 -47 l-7 -50 -1 65 c-1 39 2 59 7 50
4 -8 5 -37 1 -65z m308 -51 c14 -31 14 -35 -1 -52 -9 -10 -17 -29 -17 -41 0
-24 -28 -82 -59 -121 l-20 -25 5 60 c3 33 7 78 11 100 3 22 6 56 7 75 0 19 5
38 10 41 17 13 48 -5 64 -37z m-431 -6 c1 -24 6 -83 11 -133 5 -49 8 -91 7
-92 -7 -11 -68 96 -72 127 -3 22 -12 45 -19 51 -32 26 -1 89 44 89 25 0 28 -3
29 -42z m119 -108 c35 -14 30 -32 -8 -28 -31 3 -33 5 -36 47 -2 24 0 51 5 60
5 11 8 3 11 -27 3 -35 8 -45 28 -52z m168 15 c-9 -42 -12 -45 -44 -45 -33 0
-45 -16 -56 -75 l-7 -39 -13 49 c-12 50 -12 75 1 35 7 -21 9 -19 32 19 13 22
30 41 38 41 8 0 16 17 20 42 7 39 8 41 21 23 10 -13 12 -30 8 -50z m-382 -97
c-8 -8 -14 -5 -22 16 -5 15 -10 39 -9 54 0 25 2 23 22 -16 16 -32 18 -45 9
-54z m135 60 c-3 -7 -5 -2 -5 12 0 14 2 19 5 13 2 -7 2 -19 0 -25z m280 0 c-3
-7 -5 -2 -5 12 0 14 2 19 5 13 2 -7 2 -19 0 -25z m163 4 c0 -31 -24 -71 -36
-60 -9 9 16 88 28 88 4 0 8 -13 8 -28z m-410 -97 c0 -6 11 -34 25 -60 14 -26
24 -53 22 -59 -2 -6 -12 5 -21 24 -9 19 -23 46 -30 60 -8 14 -17 36 -21 50 -7
22 -6 23 9 11 9 -7 16 -19 16 -26z m227 -10 c-8 -22 -19 -41 -25 -43 -13 -4 3
53 21 76 16 21 18 8 4 -33z m103 -36 c0 -11 -4 -17 -10 -14 -5 3 -10 15 -10
26 0 11 5 17 10 14 6 -3 10 -15 10 -26z m-434 -16 c-11 -11 -19 6 -11 24 8 17
8 17 12 0 3 -10 2 -21 -1 -24z m84 -50 c0 -19 -14 -16 -34 6 -24 27 -11 48 15
25 10 -9 19 -23 19 -31z m300 27 c0 -16 -26 -40 -44 -40 -12 0 -6 24 11 42 21
23 33 23 33 -2z m111 -53 c-13 -13 -15 31 -3 60 5 14 8 10 10 -16 2 -18 -1
-38 -7 -44z m-564 16 c-3 -10 -5 -2 -5 17 0 19 2 27 5 18 2 -10 2 -26 0 -35z
m344 4 c-13 -13 -15 1 -4 30 7 17 8 17 11 -1 2 -10 -1 -23 -7 -29z m-267 -110
c21 -91 20 -104 -4 -37 -17 47 -28 121 -16 109 3 -2 12 -35 20 -72z m411 -38
c-24 -72 -28 -54 -8 32 13 53 19 66 21 46 2 -15 -4 -50 -13 -78z m-361 38 c1
-25 8 -52 16 -62 13 -16 15 -16 26 0 18 24 58 16 62 -12 3 -18 -1 -23 -20 -23
-13 0 -29 -5 -35 -11 -8 -8 -17 -5 -33 11 -17 17 -24 38 -28 89 -2 36 -1 63 3
59 4 -4 8 -27 9 -51z m86 35 c0 -4 -9 -13 -20 -20 -16 -10 -20 -10 -20 2 0 8
6 17 13 19 19 8 27 8 27 -1z m154 2 c23 -9 20 -23 -4 -17 -11 3 -20 9 -20 14
0 11 3 11 24 3z m74 -52 c-3 -44 -10 -64 -27 -81 -17 -17 -26 -20 -34 -12 -6
6 -22 11 -35 11 -18 0 -23 5 -20 21 2 12 14 26 26 30 19 7 25 5 29 -11 7 -25
15 -25 38 0 12 13 16 31 13 60 -2 22 1 40 5 40 5 0 8 -26 5 -58z m-468 -65
c-8 -9 -15 -7 -25 6 -22 30 -8 50 17 25 15 -15 17 -23 8 -31z m611 -14 c-9
-16 -10 -14 -11 12 0 21 3 26 11 18 8 -8 8 -16 0 -30z m-668 -47 c6 -15 -1
-26 -15 -26 -4 0 -8 9 -8 20 0 23 15 27 23 6z m730 -19 c7 -18 -8 -41 -21 -33
-11 7 -4 46 8 46 4 0 10 -6 13 -13z m-707 -97 c-3 -22 -14 -54 -25 -72 -10
-18 -64 -123 -121 -233 -99 -193 -129 -244 -117 -200 77 283 127 435 142 435
27 0 65 23 71 44 9 32 33 66 46 66 7 0 8 -14 4 -40z m692 -1 c2 -19 54 -139
117 -267 112 -226 130 -268 99 -227 -8 11 -46 61 -84 110 -39 50 -92 119 -119
155 l-48 65 5 103 c3 69 8 102 16 99 6 -2 12 -19 14 -38z m92 1 c0 -5 -4 -10
-10 -10 -5 0 -10 5 -10 10 0 6 5 10 10 10 6 0 10 -4 10 -10z m-430 -66 c0 -14
-14 -33 -21 -28 -15 9 -10 31 6 31 8 0 15 -1 15 -3z m168 -41 c6 -21 17 -69
26 -108 8 -38 27 -119 41 -179 14 -59 25 -110 23 -111 -2 -2 -31 74 -66 170
-54 150 -61 179 -56 219 8 56 20 59 32 9z m-190 -405 l-3 -133 -12 115 c-11
110 -11 111 -8 26 2 -49 3 -87 1 -85 -2 2 -16 67 -31 144 -14 77 -30 159 -34
181 -7 38 -5 45 26 80 30 34 34 36 28 14 -14 -50 -16 -96 -6 -170 l10 -75 -5
93 c-4 73 -2 103 13 145 l18 52 3 -127 c1 -70 1 -187 0 -260z"/>
<path d="M1204 2045 c0 -99 2 -138 3 -87 2 51 2 132 0 180 -1 48 -3 6 -3 -93z"/>
<path d="M1511 2804 c0 -11 3 -14 6 -6 3 7 2 16 -1 19 -3 4 -6 -2 -5 -13z"/>
<path d="M902 2770 c0 -14 2 -19 5 -12 2 6 2 18 0 25 -3 6 -5 1 -5 -13z"/>
<path d="M1502 2755 c0 -16 2 -22 5 -12 2 9 2 23 0 30 -3 6 -5 -1 -5 -18z"/>
<path d="M1492 2690 c0 -19 2 -27 5 -17 2 9 2 25 0 35 -3 9 -5 1 -5 -18z"/>
<path d="M1073 2660 c0 -25 2 -35 4 -22 2 12 2 32 0 45 -2 12 -4 2 -4 -23z"/>
<path d="M1353 2660 c0 -25 2 -35 4 -22 2 12 2 32 0 45 -2 12 -4 2 -4 -23z"/>
<path d="M1343 2505 c0 -27 2 -38 4 -22 2 15 2 37 0 50 -2 12 -4 0 -4 -28z"/>
<path d="M1063 2470 c0 -41 2 -58 4 -37 2 20 2 54 0 75 -2 20 -4 3 -4 -38z"/>
<path d="M972 680 c0 -19 2 -27 5 -17 2 9 2 25 0 35 -3 9 -5 1 -5 -18z"/>
<path d="M963 605 c0 -22 2 -30 4 -17 2 12 2 30 0 40 -3 9 -5 -1 -4 -23z"/>
</g>
</svg>
