<?xml version="1.0" standalone="no"?>
<!DOCTYPE svg PUBLIC "-//W3C//DTD SVG 20010904//EN"
 "http://www.w3.org/TR/2001/REC-SVG-20010904/DTD/svg10.dtd">
<svg version="1.0" xmlns="http://www.w3.org/2000/svg"
 width="244.000000pt" height="305.000000pt" viewBox="0 0 244.000000 305.000000"
 preserveAspectRatio="xMidYMid meet">
<metadata>
Created by potrace 1.16, written by Peter Selinger 2001-2019
</metadata>
<g transform="translate(0.000000,305.000000) scale(0.100000,-0.100000)"
fill="#000000" stroke="none">
<path d="M975 2885 c-3 -22 -8 -49 -11 -60 -18 -81 -45 -362 -49 -520 -3 -104
-7 -233 -9 -285 l-5 -95 44 -38 44 -38 42 41 42 40 -7 198 c-11 293 -22 450
-46 617 -25 169 -35 200 -45 140z"/>
<path d="M1477 2900 c-33 -129 -63 -441 -73 -747 l-7 -222 43 -40 43 -40 44
37 44 37 -6 195 c-11 365 -36 635 -70 760 -11 40 -13 42 -18 20z m10 -773 c-1
-128 -2 -20 -2 238 0 259 1 363 2 232 2 -131 2 -343 0 -470z"/>
<path d="M1227 2587 c-20 -53 -49 -317 -55 -512 l-7 -220 -13 100 c-16 129
-22 155 -32 155 -10 0 -19 -48 -27 -143 -6 -76 -5 -79 21 -104 24 -22 27 -31
24 -76 -3 -50 -4 -52 -30 -49 -24 2 -28 -1 -28 -23 0 -64 47 -87 74 -37 l15
27 1 -46 c0 -33 5 -49 15 -53 9 -3 23 -22 31 -41 8 -19 16 -35 19 -35 3 0 11
16 19 35 8 19 22 38 31 41 10 4 15 20 15 53 l1 46 15 -27 c27 -50 74 -27 74
36 0 27 -18 34 -38 14 -15 -15 -25 10 -26 69 -1 38 3 48 27 65 31 22 34 53 17
172 -17 117 -25 108 -48 -55 l-17 -124 -7 215 c-7 204 -37 482 -56 517 -8 14
-10 14 -15 0z"/>
<path d="M860 1848 c-14 -15 -20 -33 -18 -53 3 -26 8 -30 35 -33 20 -2 40 -13
53 -29 21 -27 27 -73 10 -73 -29 0 1 -149 45 -224 l28 -47 -27 -48 c-34 -64
-35 -113 0 -135 14 -10 35 -16 47 -14 21 3 22 7 18 72 -3 55 -1 67 10 63 8 -3
31 -11 52 -18 34 -11 37 -15 37 -49 0 -29 5 -39 20 -43 31 -8 27 -53 -5 -61
-17 -4 -25 -14 -26 -29 -1 -13 -4 -8 -8 13 -7 42 -31 50 -79 24 -63 -34 -102
21 -108 154 -5 139 -30 174 -84 117 -19 -21 -22 -31 -17 -72 3 -26 19 -79 36
-116 37 -82 22 -79 -20 5 -41 82 -48 142 -20 196 11 23 21 48 21 55 0 23 -25
37 -65 39 -67 2 -76 -31 -45 -178 14 -64 6 -121 -10 -79 -4 11 -11 60 -15 109
-9 113 -29 103 -24 -13 4 -81 4 -81 -21 -81 -19 -1 -42 -21 -97 -88 -135 -163
-213 -261 -213 -266 0 -11 24 -6 55 10 17 8 66 30 110 49 170 70 215 96 215
121 0 31 18 30 60 -1 73 -53 91 -118 41 -146 -26 -15 -31 -28 -56 -135 -14
-66 -41 -177 -58 -249 -16 -71 -32 -148 -34 -170 l-4 -40 21 25 c12 14 33 43
47 65 14 22 75 114 134 204 92 137 108 168 102 190 -16 63 -14 66 55 65 46 -1
67 -6 83 -20 37 -34 40 -48 14 -85 -27 -38 -27 -28 19 -324 8 -55 22 -145 31
-200 20 -132 27 -167 31 -162 4 4 24 125 69 427 l34 224 -25 33 c-24 32 -25
35 -10 58 28 42 59 56 118 53 57 -3 61 -8 45 -70 -6 -23 12 -56 129 -230 140
-210 174 -254 174 -228 0 16 -27 142 -59 280 -66 285 -63 276 -93 293 -34 19
-36 47 -7 93 33 54 121 97 103 50 -3 -7 5 -20 18 -28 20 -12 303 -135 351
-151 26 -10 20 12 -15 52 -18 21 -46 55 -63 76 -16 22 -65 81 -108 132 -61 73
-83 93 -104 93 -25 0 -26 1 -21 53 7 61 0 119 -13 111 -5 -3 -9 4 -9 14 0 36
-32 64 -73 64 -64 0 -80 -27 -51 -85 28 -53 14 -197 -18 -197 -6 0 -7 8 -3 18
5 9 13 43 19 75 9 55 9 59 -16 83 -18 19 -32 24 -46 20 -25 -8 -34 -43 -37
-146 -2 -75 -17 -123 -50 -150 -13 -11 -22 -10 -54 5 -56 25 -75 18 -82 -30
-4 -28 -7 -32 -8 -14 -1 20 -8 29 -26 33 -20 5 -25 13 -25 36 0 23 4 30 20 30
16 0 20 7 20 38 0 33 4 38 33 48 17 6 40 15 51 19 17 7 18 3 15 -61 -4 -66 -3
-69 19 -72 34 -5 72 34 72 73 0 18 -11 49 -25 69 -14 20 -25 41 -25 45 0 5 16
42 35 82 41 86 54 159 35 194 -26 48 10 107 65 107 l36 0 -3 41 c-2 32 -9 45
-29 56 -39 22 -73 8 -97 -39 -19 -39 -20 -40 -26 -16 -8 33 -44 66 -71 66 -29
0 -55 -30 -62 -73 l-5 -36 43 -3 c35 -2 46 -8 59 -30 12 -23 13 -31 2 -48 -6
-11 -12 -26 -12 -34 0 -41 -45 -129 -86 -170 -45 -45 -60 -85 -36 -94 23 -8
127 109 150 169 19 48 21 50 21 23 1 -35 -54 -132 -96 -168 -15 -14 -43 -33
-61 -42 -28 -13 -33 -20 -29 -40 2 -13 0 -24 -4 -24 -13 0 -10 107 4 160 10
37 19 48 50 63 44 22 46 31 12 53 -42 27 -70 12 -96 -52 l-23 -55 -21 48 c-27
60 -47 77 -80 69 -33 -8 -53 -44 -28 -52 35 -11 48 -21 61 -47 16 -33 29 -187
15 -187 -6 0 -8 11 -6 24 4 21 -1 27 -29 39 -71 30 -159 150 -157 217 0 18 6
9 21 -29 23 -60 127 -177 150 -169 23 9 10 46 -33 90 -46 47 -73 96 -83 148
-4 19 -12 45 -19 58 -9 19 -8 29 4 50 12 22 23 28 57 30 39 3 42 5 42 33 0 41
-41 81 -78 77 -21 -2 -32 -13 -48 -47 -20 -42 -22 -43 -29 -20 -11 36 -45 69
-71 69 -13 0 -33 -10 -44 -22z m912 -631 c20 -19 61 -52 90 -75 57 -44 137
-122 125 -122 -7 0 -29 16 -148 106 -30 23 -69 58 -87 78 -30 35 -32 41 -30
109 l1 72 6 -67 c5 -61 9 -70 43 -101z m-822 -157 c4 -67 -3 -84 -10 -25 -4
33 -10 71 -14 85 l-7 25 15 -25 c8 -14 15 -41 16 -60z m586 -5 c-6 -63 -5 -68
60 -227 88 -217 104 -261 100 -265 -3 -4 -56 103 -56 113 0 2 -29 74 -65 159
-66 156 -74 195 -54 254 17 49 22 37 15 -34z m-335 -27 c4 -25 12 -56 19 -68
17 -31 31 -13 45 57 7 33 17 59 26 61 11 4 12 2 2 -9 -7 -7 -13 -31 -13 -53 0
-45 -34 -111 -51 -100 -17 10 -39 70 -39 107 0 18 -6 39 -12 46 -11 11 -10 13
2 9 9 -3 18 -23 21 -50z"/>
</g>
</svg>
