<?xml version="1.0" standalone="no"?>
<!DOCTYPE svg PUBLIC "-//W3C//DTD SVG 20010904//EN"
 "http://www.w3.org/TR/2001/REC-SVG-20010904/DTD/svg10.dtd">
<svg version="1.0" xmlns="http://www.w3.org/2000/svg"
 width="244.000000pt" height="305.000000pt" viewBox="0 0 244.000000 305.000000"
 preserveAspectRatio="xMidYMid meet">
<metadata>
Created by potrace 1.16, written by Peter Selinger 2001-2019
</metadata>
<g transform="translate(0.000000,305.000000) scale(0.100000,-0.100000)"
fill="#000000" stroke="none">
<path d="M1527 2896 c-10 -26 -9 -48 3 -41 6 4 10 -166 10 -475 0 -264 -3
-480 -7 -480 -4 0 -25 12 -46 27 l-40 28 7 190 c4 104 9 217 12 250 11 128 26
254 40 339 8 48 13 90 11 92 -5 5 -23 -83 -36 -181 -6 -38 -13 -86 -16 -105
-7 -52 -25 -410 -25 -522 0 -91 1 -98 23 -109 12 -6 34 -23 48 -36 26 -24 27
-24 40 -6 8 10 29 29 48 42 l33 24 -6 191 c-10 267 -24 429 -51 591 -30 174
-39 206 -48 181z"/>
<path d="M930 2890 c0 -8 -3 -26 -6 -40 -4 -20 -3 -22 5 -10 8 11 11 -120 11
-462 0 -263 -2 -478 -5 -478 -3 0 -21 10 -40 23 l-35 22 0 147 c0 80 5 215 11
298 6 84 8 154 6 156 -7 7 -26 -264 -32 -453 -6 -171 -5 -172 17 -184 13 -6
35 -23 50 -36 l26 -25 19 22 c10 12 30 28 46 36 27 14 27 15 27 118 0 246 -28
567 -67 776 -15 77 -33 126 -33 90z"/>
<path d="M1378 2503 c3 -322 1 -381 -12 -415 -9 -21 -17 -55 -18 -76 -1 -20
-5 4 -8 53 -6 88 -6 86 -8 -47 -1 -77 -6 -139 -12 -143 -6 -3 -7 1 -4 10 6 15
-7 216 -27 425 -6 58 -20 148 -33 200 l-22 95 -22 -90 c-27 -117 -38 -206 -53
-447 -7 -109 -15 -196 -18 -193 -2 3 -8 173 -13 378 -4 204 -14 428 -22 497
l-13 125 -3 -380 c-2 -355 -16 -585 -33 -545 -4 8 -8 62 -10 120 l-3 105 -2
-122 c-2 -108 0 -126 19 -157 12 -20 28 -36 36 -36 10 0 13 -6 9 -16 -3 -9 -6
-18 -6 -21 0 -3 -9 6 -21 21 -11 14 -31 26 -43 26 -34 0 -73 -35 -87 -77 l-12
-36 -14 34 c-22 52 -42 69 -83 69 -37 0 -61 -17 -73 -53 -12 -32 2 -46 39 -40
29 5 38 1 64 -27 32 -34 37 -64 16 -92 -16 -21 -6 -100 18 -147 11 -20 16 -57
16 -114 0 -76 -2 -85 -20 -90 -14 -4 -19 0 -18 12 2 14 -3 46 -18 119 -3 17
-11 22 -34 22 -67 0 -77 -88 -21 -190 40 -71 39 -96 0 -50 -40 46 -65 96 -74
147 -6 35 -2 50 22 93 l28 51 -24 20 c-30 25 -83 25 -106 -1 -19 -21 -18 -51
6 -153 11 -49 11 -64 -1 -99 -13 -35 -28 -50 -91 -92 -138 -93 -260 -168 -264
-164 -2 2 54 63 125 135 127 130 130 132 161 123 18 -5 34 -8 36 -6 9 8 -11
206 -20 206 -6 0 -7 -32 -3 -90 l7 -91 -25 7 c-17 4 -33 0 -49 -13 -39 -30
-320 -323 -315 -328 2 -2 78 23 169 56 90 34 182 66 204 73 32 9 42 18 50 44
5 18 14 32 19 32 18 0 93 -40 110 -59 16 -18 16 -22 1 -50 -18 -36 -11 -40 16
-8 10 12 18 17 19 10 0 -7 -7 -18 -16 -25 -51 -42 -66 -60 -61 -79 3 -11 -23
-125 -58 -254 -35 -128 -66 -248 -69 -266 l-6 -34 17 25 c10 13 41 52 68 85
28 33 60 72 70 87 11 14 58 73 104 130 46 56 88 108 93 114 5 7 2 27 -7 48
-18 43 -13 56 22 56 29 0 29 26 -3 -210 -15 -116 -26 -226 -18 -195 3 11 17
106 32 210 l27 190 29 3 c21 3 27 0 24 -10 -3 -7 -29 -109 -58 -225 -30 -117
-57 -208 -61 -202 -3 6 -9 -15 -13 -47 -3 -31 -5 -58 -4 -60 2 -1 41 93 87
209 75 188 84 219 82 270 -2 66 10 73 53 31 32 -33 32 -42 1 -78 -14 -16 -25
-39 -25 -50 0 -12 18 -120 41 -241 22 -121 47 -258 55 -305 9 -47 17 -86 18
-87 1 -2 22 104 46 235 23 130 49 269 56 307 18 99 17 112 -11 137 -32 28 -32
49 1 82 41 40 56 35 49 -16 -5 -36 2 -63 45 -173 28 -71 65 -167 81 -213 17
-45 33 -82 36 -82 3 0 3 17 0 37 -4 21 -18 126 -32 233 -14 107 -28 207 -32
223 -5 25 -3 27 26 27 27 0 31 -4 31 -26 0 -14 -5 -34 -10 -44 -9 -16 2 -35
62 -113 130 -168 291 -367 294 -364 8 8 -151 566 -177 619 -20 41 -21 51 -10
71 15 27 73 63 111 69 21 2 26 -2 28 -24 3 -24 17 -31 219 -107 119 -44 219
-79 221 -76 3 2 -73 83 -169 180 -161 163 -175 175 -202 169 l-28 -6 3 91 c2
50 0 91 -4 91 -5 0 -8 -15 -8 -32 0 -18 -7 -60 -15 -93 -23 -96 -24 -94 71
-160 320 -222 311 -215 239 -187 -130 51 -205 82 -257 105 -57 25 -57 26 -46
55 11 27 9 32 -16 53 -38 34 -43 86 -17 180 26 93 26 104 1 129 -27 27 -90 27
-115 0 -17 -18 -16 -21 9 -64 29 -50 32 -86 12 -143 -16 -45 -86 -144 -98
-137 -4 3 10 39 32 80 61 115 52 194 -22 194 -32 0 -36 -10 -44 -110 l-7 -79
-23 35 c-33 49 -33 132 1 206 34 73 44 145 21 154 -25 10 -19 53 13 85 23 23
38 29 71 29 l43 0 -7 33 c-17 88 -109 88 -155 -1 l-19 -37 -17 41 c-25 65 -78
82 -121 39 -30 -30 -34 -31 -34 -5 0 11 5 19 11 17 7 -1 21 12 31 30 18 29 19
52 19 245 -1 212 -27 696 -40 729 -3 10 -5 -151 -3 -358z m-148 -470 c0 -351
-2 -424 -13 -409 -7 9 -17 17 -22 16 -23 -5 -24 2 -9 41 13 32 15 59 10 132
-17 242 -18 322 -5 449 11 105 15 125 20 93 5 -33 6 -27 8 33 0 39 3 72 6 72
3 0 5 -192 5 -427z m-53 -275 c-2 -18 -4 -6 -4 27 0 33 2 48 4 33 2 -15 2 -42
0 -60z m-120 -90 c2 -46 5 -98 7 -115 3 -18 1 -33 -4 -33 -14 0 -51 67 -57
104 -3 20 -12 41 -19 47 -23 19 -16 45 17 74 22 18 35 23 42 16 6 -6 12 -47
14 -93z m430 61 c16 -26 14 -37 -7 -69 -5 -8 -14 -34 -20 -57 -6 -24 -21 -54
-33 -68 l-22 -26 3 88 c3 74 8 148 11 161 1 2 13 2 27 0 15 -2 32 -14 41 -29z
m-306 -122 c11 -3 26 -22 35 -43 l16 -39 19 37 c11 21 28 42 39 48 11 6 22 26
26 47 6 33 8 35 20 18 17 -23 18 -67 2 -83 -7 -7 -24 -12 -39 -12 -28 0 -40
-19 -55 -84 -7 -28 -8 -27 -23 25 -15 48 -20 54 -46 57 -41 5 -55 19 -55 56 0
18 6 38 13 45 10 10 14 4 21 -28 5 -25 15 -41 27 -44z m-223 -24 c14 -45 -2
-71 -18 -29 -12 33 -13 66 -2 66 5 0 14 -17 20 -37z m577 0 c-7 -40 -20 -61
-31 -50 -10 9 17 87 29 87 5 0 6 -16 2 -37z m-438 5 c-3 -8 -6 -5 -6 6 -1 11
2 17 5 13 3 -3 4 -12 1 -19z m280 0 c-3 -8 -6 -5 -6 6 -1 11 2 17 5 13 3 -3 4
-12 1 -19z m-251 -93 c19 -46 17 -55 -6 -26 -18 21 -28 61 -14 61 3 0 12 -16
20 -35z m228 -22 c-9 -21 -18 -33 -21 -26 -2 6 3 28 13 50 9 21 18 33 21 26 2
-6 -3 -28 -13 -50z m-325 -7 c9 -10 8 -15 -3 -19 -16 -7 -26 1 -26 20 0 17 14
17 29 -1z m431 -6 c0 -21 -15 -27 -25 -10 -7 12 2 30 16 30 5 0 9 -9 9 -20z
m-511 -87 c1 -18 -3 -33 -9 -33 -6 0 -10 25 -9 58 1 43 3 51 9 32 4 -14 8 -40
9 -57z m140 41 c24 -30 19 -49 -8 -34 -19 9 -35 60 -20 60 4 0 17 -12 28 -26z
m321 0 c0 -16 -27 -43 -42 -44 -14 0 -9 23 9 42 20 22 33 23 33 2z m111 -61
c-9 -16 -10 -15 -11 7 0 14 4 36 8 50 7 24 7 24 10 -7 2 -18 -1 -41 -7 -50z
m-220 24 c-8 -8 -11 -7 -11 4 0 9 3 19 7 23 4 4 9 2 11 -4 3 -7 -1 -17 -7 -23z
m-117 8 c3 -9 0 -15 -9 -15 -8 0 -15 7 -15 15 0 8 4 15 9 15 5 0 11 -7 15 -15z
m-87 -186 c15 -15 33 -3 33 21 0 17 2 17 31 3 40 -20 38 -56 -4 -58 -16 0 -32
-7 -37 -15 -8 -12 -10 -12 -10 -2 0 8 -9 21 -21 30 -23 20 -36 86 -23 129 7
24 9 19 13 -34 4 -34 11 -67 18 -74z m-68 47 c10 -36 15 -66 12 -66 -4 0 -13
24 -20 53 -7 28 -15 61 -18 72 -3 11 -3 17 1 14 4 -3 15 -36 25 -73z m376 -2
c-3 -24 -16 -55 -28 -68 -20 -21 -25 -22 -41 -10 -14 10 -23 11 -33 3 -15 -13
-29 12 -19 36 6 17 56 21 56 5 0 -16 37 -11 44 6 3 9 6 37 6 62 1 38 3 44 11
29 7 -11 8 -37 4 -63z m55 34 c-4 -18 -10 -40 -13 -48 -3 -8 -8 -24 -11 -34
-4 -10 -9 -17 -12 -14 -8 8 27 138 36 133 4 -3 4 -20 0 -37z m-290 22 c0 -5
-5 -10 -11 -10 -7 0 -18 -8 -25 -17 -12 -17 -13 -16 -14 4 0 15 7 23 23 26 12
2 23 5 25 6 1 0 2 -3 2 -9z m150 0 c0 -5 -4 -10 -10 -10 -5 0 -10 5 -10 10 0
6 5 10 10 10 6 0 10 -4 10 -10z m30 -4 c0 -3 -4 -8 -10 -11 -5 -3 -10 -1 -10
4 0 6 5 11 10 11 6 0 10 -2 10 -4z m-431 -62 c14 -32 3 -54 -16 -29 -14 21
-18 55 -5 55 5 0 14 -12 21 -26z m641 -38 c0 -2 -7 -9 -15 -16 -12 -10 -15
-10 -15 4 0 9 7 16 15 16 8 0 15 -2 15 -4z m-690 -57 c0 -11 -4 -17 -10 -14
-5 3 -10 15 -10 26 0 11 5 17 10 14 6 -3 10 -15 10 -26z m733 -50 c-4 -13 -9
-17 -16 -10 -12 12 -1 45 12 37 5 -3 7 -15 4 -27z m-700 -72 c-5 -32 -236
-493 -256 -512 -7 -7 -8 -5 -4 6 3 9 20 68 37 130 18 63 43 152 56 199 25 87
39 107 86 117 20 4 29 13 34 37 7 35 32 68 45 60 5 -2 6 -19 2 -37z m687 -2
c0 -38 19 -84 115 -275 63 -126 115 -232 115 -236 0 -14 -28 16 -93 103 -190
252 -186 245 -176 270 5 14 9 57 9 97 0 40 3 76 7 79 16 16 23 4 23 -38z m88
-10 c-3 -3 -9 2 -12 12 -6 14 -5 15 5 6 7 -7 10 -15 7 -18z m-432 -54 c13 11
14 9 3 -14 -11 -25 -29 -37 -29 -19 0 4 -3 18 -6 32 -5 22 -4 23 6 7 9 -15 14
-16 26 -6z m179 -54 c4 -17 24 -106 46 -196 22 -90 38 -165 36 -167 -1 -2 -29
65 -60 149 -39 104 -57 166 -57 198 0 68 22 79 35 16z m-196 -279 l-2 -263
-13 110 c-11 98 -12 101 -10 35 2 -52 0 -66 -5 -45 -14 53 -59 296 -59 319 1
11 15 37 32 56 18 21 27 27 23 15 -5 -11 -9 -51 -11 -90 l-2 -70 7 70 c7 60
26 125 38 125 1 0 2 -118 2 -262z"/>
<path d="M1204 2105 c0 -93 2 -133 3 -88 2 45 2 122 0 170 -1 48 -3 12 -3 -82z"/>
<path d="M1193 630 c0 -30 2 -43 4 -27 2 15 2 39 0 55 -2 15 -4 2 -4 -28z"/>
<path d="M1363 2740 c0 -25 2 -35 4 -22 2 12 2 32 0 45 -2 12 -4 2 -4 -23z"/>
<path d="M890 2678 c-7 -46 -11 -92 -8 -103 2 -11 10 24 17 78 16 121 9 139
-9 25z"/>
<path d="M1063 2635 c0 -22 2 -30 4 -17 2 12 2 30 0 40 -3 9 -5 -1 -4 -23z"/>
<path d="M1353 2615 c0 -27 2 -38 4 -22 2 15 2 37 0 50 -2 12 -4 0 -4 -28z"/>
<path d="M1053 2480 c0 -36 2 -50 4 -32 2 17 2 47 0 65 -2 17 -4 3 -4 -33z"/>
<path d="M1343 2425 c0 -44 2 -61 4 -37 2 23 2 59 0 80 -2 20 -4 1 -4 -43z"/>
</g>
</svg>
