<?xml version="1.0" standalone="no"?>
<!DOCTYPE svg PUBLIC "-//W3C//DTD SVG 20010904//EN"
 "http://www.w3.org/TR/2001/REC-SVG-20010904/DTD/svg10.dtd">
<svg version="1.0" xmlns="http://www.w3.org/2000/svg"
 width="244.000000pt" height="305.000000pt" viewBox="0 0 244.000000 305.000000"
 preserveAspectRatio="xMidYMid meet">
<metadata>
Created by potrace 1.16, written by Peter Selinger 2001-2019
</metadata>
<g transform="translate(0.000000,305.000000) scale(0.100000,-0.100000)"
fill="#000000" stroke="none">
<path d="M871 2820 c-48 -201 -81 -516 -81 -777 0 -114 1 -122 21 -128 11 -4
35 -20 54 -36 l33 -29 42 35 c23 19 46 35 51 35 5 0 9 65 9 146 0 80 -4 143
-9 140 -4 -3 -6 -58 -4 -123 2 -65 1 -122 -4 -128 -13 -16 -71 -55 -83 -55
-13 0 -14 929 0 950 8 12 10 8 11 -15 1 -22 3 -24 6 -9 2 12 -2 37 -10 55
l-14 34 -22 -95z"/>
<path d="M1291 2894 c0 -11 3 -14 6 -6 3 7 2 16 -1 19 -3 4 -6 -2 -5 -13z"/>
<path d="M1172 2880 c0 -14 2 -19 5 -12 2 6 2 18 0 25 -3 6 -5 1 -5 -13z"/>
<path d="M1562 2870 c-43 -133 -81 -444 -89 -726 l-6 -222 36 -17 c20 -9 41
-23 48 -31 15 -19 33 -18 50 3 8 9 29 23 48 30 l34 15 -7 212 c-8 259 -40 563
-62 585 -5 5 -1 -32 16 -139 21 -132 44 -597 31 -619 -9 -14 -72 -61 -83 -61
-11 0 -10 947 0 952 5 2 5 14 2 28 -6 24 -7 24 -18 -10z"/>
<path d="M1597 2785 c3 -22 7 -42 9 -44 8 -9 2 45 -6 64 -7 14 -8 8 -3 -20z"/>
<path d="M924 2765 c2 -16 11 -79 21 -140 9 -60 22 -177 30 -260 l14 -150 -4
135 c-3 128 -33 350 -55 415 l-10 30 4 -30z"/>
<path d="M1287 2690 c-6 -53 -5 -79 7 -185 4 -27 2 -63 -3 -80 l-9 -30 -1 31
c-1 17 -7 50 -15 75 -8 24 -17 57 -21 73 -3 15 -8 26 -11 24 -2 -3 -13 -38
-23 -79 l-20 -74 -2 120 c-3 114 -3 111 -10 -65 -4 -102 -12 -246 -18 -320 -5
-74 -10 -177 -11 -227 0 -94 -14 -125 -25 -55 -13 79 -37 197 -41 201 -13 13
-28 -43 -39 -146 l-7 -63 35 -20 c39 -23 53 -60 42 -111 -8 -33 -30 -48 -48
-30 -20 20 -37 12 -37 -18 0 -32 22 -61 46 -61 8 0 25 11 38 25 31 34 37 32
36 -12 -1 -21 2 -50 5 -64 6 -24 5 -25 -28 -21 -34 4 -77 -11 -77 -27 0 -4 15
-12 33 -17 28 -8 32 -14 35 -47 2 -23 -1 -37 -8 -37 -24 0 -120 115 -131 155
-15 53 -16 57 -34 81 -15 20 -14 23 15 54 28 30 34 32 75 28 44 -5 45 -5 45
23 0 87 -130 98 -166 13 -17 -40 -18 -40 -43 8 -20 37 -76 62 -117 52 -31 -8
-57 -45 -52 -76 3 -20 8 -22 46 -20 37 3 47 -1 77 -31 37 -37 44 -64 20 -73
-21 -9 -19 -89 4 -139 10 -22 35 -62 54 -89 20 -27 33 -54 30 -60 -4 -6 -19
-27 -34 -46 -43 -56 -45 -76 -10 -110 30 -30 63 -38 91 -20 12 7 12 14 2 43
-29 79 -12 100 64 78 55 -16 55 -16 50 -51 -4 -25 -3 -29 3 -15 15 35 24 -7
11 -55 -8 -31 -14 -39 -24 -31 -15 13 -58 6 -109 -16 -33 -14 -41 -14 -64 -2
-14 8 -39 32 -55 54 -23 31 -28 47 -23 72 3 17 1 51 -4 75 -5 24 -12 55 -16
71 -4 22 -11 27 -34 27 -47 0 -74 -29 -73 -79 1 -36 14 -65 73 -163 73 -121
97 -190 86 -247 -3 -14 -1 -45 5 -68 l10 -43 -73 -86 c-41 -47 -91 -107 -113
-132 -53 -65 -115 -132 -122 -132 -3 0 8 24 24 53 232 413 232 413 232 453 0
60 -34 150 -77 203 -21 25 -40 48 -44 51 -19 15 -39 75 -39 117 0 36 7 59 27
87 l26 39 -23 19 c-31 25 -104 24 -130 -2 -25 -25 -25 -39 0 -120 11 -36 20
-85 20 -109 0 -37 -5 -49 -33 -75 -26 -24 -32 -36 -26 -51 4 -11 8 -25 8 -31
1 -12 -341 -138 -358 -132 -6 1 77 56 184 121 107 65 196 124 198 130 2 7 -2
30 -10 52 -8 22 -17 68 -20 103 -10 106 -27 87 -20 -22 l5 -97 -29 6 c-32 7
-46 -1 -112 -61 -23 -22 -87 -80 -142 -129 -142 -126 -165 -148 -165 -156 0
-4 33 3 73 16 39 14 150 50 245 80 158 52 172 58 172 80 0 35 16 39 68 19 63
-23 98 -51 117 -90 23 -49 19 -62 -23 -75 -43 -13 -29 22 -151 -369 -29 -91
-56 -176 -62 -189 -5 -13 -8 -25 -6 -27 4 -4 106 101 171 176 22 25 83 91 135
148 112 121 115 126 101 151 -5 11 -10 31 -10 45 0 26 0 26 86 26 47 0 95 -5
107 -11 34 -17 66 -59 60 -76 -5 -12 -7 -12 -14 -1 -7 10 -9 8 -9 -6 0 -11 -7
-27 -15 -36 -14 -15 -14 -29 2 -131 9 -63 20 -116 24 -119 3 -3 12 -32 19 -65
6 -33 18 -89 26 -125 7 -36 21 -103 31 -150 l18 -85 12 55 c7 30 27 122 44
204 17 83 38 156 45 164 8 8 14 35 14 66 0 29 5 78 11 110 9 49 8 61 -5 75
-21 24 -21 94 1 112 11 10 46 14 117 14 112 0 104 6 90 -71 -7 -34 -14 -24
171 -224 34 -36 96 -104 139 -153 44 -48 81 -86 83 -83 6 6 -164 546 -177 561
-6 7 -24 15 -41 19 -28 5 -31 9 -24 33 17 70 73 121 152 138 29 6 32 4 35 -22
3 -26 10 -30 128 -69 296 -98 352 -115 357 -111 5 6 -4 14 -227 216 -144 130
-145 131 -184 125 -31 -5 -38 -3 -33 8 12 33 19 147 9 164 -8 14 -11 2 -16
-52 -4 -38 -9 -88 -12 -112 l-5 -43 48 6 c44 5 51 3 84 -27 20 -18 87 -78 148
-132 61 -55 109 -102 106 -104 -2 -3 -91 44 -196 104 -135 77 -197 118 -210
139 -23 36 -25 102 -4 152 21 49 19 106 -3 126 -21 19 -83 22 -113 7 -25 -14
-24 -37 3 -80 41 -68 24 -139 -57 -235 -58 -69 -65 -85 -64 -152 1 -81 8 -94
64 -113 l48 -16 68 -214 c38 -118 69 -216 69 -218 0 -14 -25 21 -66 91 -26 45
-89 154 -140 243 -123 210 -123 202 -6 388 63 101 79 170 47 206 -20 22 -67
27 -82 8 -12 -15 -25 -93 -27 -158 -1 -34 -8 -54 -31 -82 -44 -56 -68 -65
-110 -45 -20 9 -46 17 -59 17 -30 0 -42 15 -50 63 -4 21 -9 44 -12 52 -7 18
96 57 114 43 15 -13 15 -42 0 -85 -10 -27 -10 -36 0 -42 22 -13 80 1 102 24
29 31 22 62 -25 114 -19 21 -35 41 -35 45 0 3 20 32 45 64 25 31 45 64 45 72
0 9 4 20 9 25 5 6 11 26 15 46 5 28 2 42 -15 62 -25 33 -19 59 25 92 23 17 46
25 74 25 34 0 42 3 42 19 0 10 -9 30 -21 45 -30 38 -95 37 -132 -2 -15 -15
-27 -33 -27 -39 0 -28 -20 -20 -37 15 -26 50 -62 67 -108 52 -39 -13 -55 -35
-55 -74 0 -24 2 -25 43 -20 34 5 47 2 70 -16 30 -24 36 -60 12 -80 -8 -7 -15
-25 -15 -39 0 -34 -46 -107 -89 -144 -41 -34 -47 -34 -54 0 -7 35 -3 40 33 48
57 13 21 45 -49 45 -44 0 -51 9 -25 31 12 10 14 23 10 51 -7 44 2 48 32 13 36
-41 69 -29 79 28 6 40 3 43 -26 25 -27 -17 -48 -4 -55 35 -9 46 6 80 44 107
31 22 32 24 26 79 -12 100 -27 164 -37 154 -6 -6 -17 -52 -25 -104 -8 -52 -17
-105 -20 -118 -15 -69 -23 30 -29 374 -4 209 -10 405 -14 435 l-7 55 -7 -55z
m-12 -355 c10 -75 16 -178 15 -275 -1 -85 -1 -164 0 -175 l1 -20 9 20 c5 12 6
-4 3 -40 -7 -69 -13 -85 -13 -32 0 34 -14 59 -22 37 -2 -6 -3 40 -2 102 1 98
1 104 -5 43 -6 -55 -8 -34 -9 100 -1 94 -4 229 -7 300 -5 150 5 130 30 -60z
m11 -591 c10 -40 -2 -101 -27 -131 -13 -17 -19 -21 -16 -10 4 10 7 33 7 50 0
25 2 29 11 17 8 -11 9 0 5 43 -6 58 8 80 20 31z m-359 -172 c21 -46 87 -116
163 -173 51 -39 28 -48 -36 -15 -78 41 -164 154 -164 216 0 33 14 23 37 -28z
m653 28 c0 -75 -118 -208 -207 -235 -33 -9 -31 23 2 35 39 15 161 141 176 183
14 40 29 49 29 17z m-383 -42 c-3 -7 -5 -2 -5 12 0 14 2 19 5 13 2 -7 2 -19 0
-25z m80 0 c-3 -8 -6 -5 -6 6 -1 11 2 17 5 13 3 -3 4 -12 1 -19z m-57 -53 c0
-5 -5 -3 -10 5 -5 8 -10 20 -10 25 0 6 5 3 10 -5 5 -8 10 -19 10 -25z m17 -22
c-3 -10 -5 -2 -5 17 0 19 2 27 5 18 2 -10 2 -26 0 -35z m93 -28 c0 -17 -2 -17
-10 -5 -7 10 -10 -9 -11 -65 -1 -66 -3 -74 -10 -45 -10 42 9 170 22 149 5 -8
9 -23 9 -34z m-165 0 c11 -56 12 -71 5 -95 -6 -18 -9 -8 -10 40 -1 49 -4 59
-10 40 -8 -24 -8 -23 -9 8 -1 38 16 43 24 7z m214 -330 c1 -49 -16 -7 -22 55
l-5 55 13 -40 c8 -22 14 -53 14 -70z m-222 63 c-3 -7 -5 -2 -5 12 0 14 2 19 5
13 2 -7 2 -19 0 -25z m143 2 c0 -11 -4 -20 -9 -20 -5 0 -7 9 -4 20 3 11 7 20
9 20 2 0 4 -9 4 -20z m-123 -12 c-3 -8 -6 -5 -6 6 -1 11 2 17 5 13 3 -3 4 -12
1 -19z m-37 -98 c0 -5 -7 -10 -15 -10 -8 0 -15 5 -15 10 0 6 7 10 15 10 8 0
15 -4 15 -10z m220 0 c0 -5 -7 -10 -16 -10 -8 0 -12 5 -9 10 3 6 10 10 16 10
5 0 9 -4 9 -10z m-53 -32 c-3 -7 -5 -2 -5 12 0 14 2 19 5 13 2 -7 2 -19 0 -25z
m-70 -130 c-3 -8 -6 -5 -6 6 -1 11 2 17 5 13 3 -3 4 -12 1 -19z m53 -83 c0 -8
5 -14 12 -12 7 1 15 -11 19 -28 11 -47 10 -115 -1 -115 -5 0 -10 -19 -10 -41
0 -39 -22 -149 -55 -279 -14 -54 -14 -52 -8 65 3 66 6 197 7 290 1 162 2 169
19 153 9 -10 17 -25 17 -33z"/>
<path d="M1301 764 c0 -11 3 -14 6 -6 3 7 2 16 -1 19 -3 4 -6 -2 -5 -13z"/>
<path d="M1312 720 c0 -14 2 -19 5 -12 2 6 2 18 0 25 -3 6 -5 1 -5 -13z"/>
<path d="M1162 2555 c0 -16 2 -22 5 -12 2 9 2 23 0 30 -3 6 -5 -1 -5 -18z"/>
<path d="M1117 530 c-4 -14 -6 -38 -6 -55 1 -27 2 -26 10 10 11 45 7 85 -4 45z"/>
<path d="M1346 523 c-2 -10 -1 -36 4 -58 8 -39 8 -39 9 18 1 57 -3 72 -13 40z"/>
</g>
</svg>
