<?xml version="1.0" standalone="no"?>
<!DOCTYPE svg PUBLIC "-//W3C//DTD SVG 20010904//EN"
 "http://www.w3.org/TR/2001/REC-SVG-20010904/DTD/svg10.dtd">
<svg version="1.0" xmlns="http://www.w3.org/2000/svg"
 width="244.000000pt" height="305.000000pt" viewBox="0 0 244.000000 305.000000"
 preserveAspectRatio="xMidYMid meet">
<metadata>
Created by potrace 1.16, written by Peter Selinger 2001-2019
</metadata>
<g transform="translate(0.000000,305.000000) scale(0.100000,-0.100000)"
fill="#000000" stroke="none">
<path d="M1272 2900 c0 -14 2 -19 5 -12 2 6 2 18 0 25 -3 6 -5 1 -5 -13z"/>
<path d="M881 2875 c-20 -72 -59 -298 -70 -410 -7 -60 -14 -208 -18 -327 l-6
-217 29 -11 c16 -6 41 -23 56 -37 l26 -25 22 25 c12 14 36 31 53 38 l30 13 -7
228 c-7 232 -22 392 -52 550 -26 131 -29 98 -5 -49 33 -206 63 -675 44 -698
-13 -16 -71 -55 -83 -55 -7 0 -10 155 -10 482 0 292 4 478 9 473 5 -6 11 -21
14 -35 l4 -25 2 26 c0 15 -5 42 -13 60 l-14 33 -11 -39z"/>
<path d="M1194 2760 c0 -80 2 -112 3 -72 2 39 2 105 0 145 -1 39 -3 7 -3 -73z"/>
<path d="M1566 2877 c-52 -186 -81 -426 -92 -749 l-7 -207 34 -14 c19 -8 40
-21 48 -30 18 -23 22 -22 81 15 l51 32 -2 180 c-3 220 -28 490 -56 604 -11 45
-12 15 -2 -53 25 -176 39 -324 45 -486 7 -182 3 -229 -20 -229 -7 0 -21 -9
-31 -20 -45 -50 -45 -48 -45 443 0 254 4 477 9 494 5 18 6 35 1 38 -4 3 -11
-5 -14 -18z"/>
<path d="M1602 2775 c0 -16 2 -22 5 -12 2 9 2 23 0 30 -3 6 -5 -1 -5 -18z"/>
<path d="M1227 2584 c-3 -10 -8 -32 -12 -49 -6 -26 -8 -27 -14 -11 -13 35 -51
-394 -51 -576 0 -48 -4 -89 -9 -92 -4 -3 -13 27 -20 67 -35 217 -49 229 -72
61 -14 -95 -14 -94 47 -130 15 -9 19 -23 19 -62 0 -60 -16 -83 -45 -64 -30 19
-40 15 -40 -17 0 -32 22 -61 46 -61 8 0 25 11 38 25 32 35 39 31 31 -15 -4
-26 -3 -40 4 -40 17 0 50 -41 44 -56 -5 -13 -8 -13 -27 0 -12 7 -31 16 -41 18
-22 5 -75 -17 -75 -31 0 -11 25 -21 49 -21 35 0 53 -35 58 -114 l5 -75 -51 19
c-28 10 -66 28 -85 39 -63 39 -136 147 -136 201 0 32 15 23 29 -17 36 -99 257
-260 227 -165 -3 9 -21 26 -41 36 -34 18 -101 90 -123 133 -7 12 -12 31 -12
43 0 12 -9 33 -20 47 -20 25 -20 25 1 54 23 33 56 44 99 35 28 -5 30 -3 30 24
0 33 -29 65 -66 74 -37 10 -77 -14 -98 -58 -18 -36 -21 -38 -30 -21 -31 53
-61 76 -103 78 -53 2 -85 -24 -81 -66 3 -27 6 -29 49 -31 51 -2 73 -15 95 -58
13 -26 13 -29 -6 -45 -24 -21 -25 -55 -5 -112 12 -36 32 -68 93 -151 12 -16 9
-23 -22 -57 -51 -57 -55 -85 -18 -123 31 -30 64 -38 92 -20 12 7 12 14 2 43
-30 83 -11 102 77 74 50 -15 68 -17 83 -8 10 6 18 8 18 3 0 -4 -9 -13 -21 -20
-15 -10 -19 -21 -17 -45 2 -19 8 -31 16 -30 14 3 16 -35 2 -57 -5 -8 -10 -11
-10 -5 0 5 -7 -1 -16 -13 -9 -13 -13 -31 -9 -43 5 -15 4 -19 -4 -15 -6 4 -11
25 -11 47 0 39 0 39 -40 39 -21 0 -55 -8 -74 -17 -44 -21 -72 -10 -112 43 -22
29 -29 49 -30 88 -2 67 -14 138 -27 154 -14 18 -51 15 -78 -7 -42 -34 -33 -81
41 -206 91 -157 91 -157 94 -248 2 -45 6 -93 10 -107 5 -21 -8 -42 -95 -140
-130 -147 -181 -207 -190 -222 -5 -7 -11 -10 -14 -6 -4 3 41 89 98 190 176
309 171 296 141 399 -17 57 -37 91 -91 151 -66 75 -79 146 -38 206 30 44 32
68 6 82 -29 15 -93 12 -119 -6 -28 -19 -28 -52 -2 -130 11 -32 20 -79 20 -103
0 -37 -5 -48 -35 -76 -33 -30 -35 -34 -24 -59 7 -14 10 -28 8 -29 -9 -8 -350
-127 -362 -127 -12 0 32 39 45 40 3 0 62 34 130 76 67 42 142 88 165 103 48
29 49 33 28 111 -8 30 -15 71 -15 90 0 19 -5 42 -11 50 -7 11 -9 -13 -7 -82
l4 -98 -36 6 c-34 4 -42 -1 -219 -163 -102 -92 -186 -173 -188 -180 -3 -7 14
-5 49 7 29 10 140 46 246 80 177 57 192 64 192 85 0 35 16 39 68 20 57 -21
100 -58 119 -103 17 -40 7 -57 -36 -65 -30 -6 -34 -15 -143 -367 -11 -36 -31
-98 -45 -138 -13 -41 -22 -76 -20 -78 2 -2 40 35 83 83 43 49 109 120 145 158
36 39 81 87 100 109 19 21 42 47 51 57 28 29 37 54 27 70 -5 7 -9 26 -9 42 l0
27 89 0 c75 0 93 -3 121 -22 56 -39 59 -53 21 -92 l-33 -34 26 -133 c14 -74
26 -149 26 -166 0 -18 3 -33 8 -33 7 0 19 -48 59 -239 20 -97 17 -101 59 99
15 69 30 127 34 130 4 3 10 34 14 70 3 36 16 111 27 168 l21 104 -33 34 c-38
39 -35 53 21 92 28 19 46 22 128 22 l94 0 -6 -27 c-20 -78 -22 -73 65 -168 45
-49 107 -117 137 -150 110 -120 175 -186 179 -181 4 4 -43 161 -107 358 -16
47 -34 106 -40 130 -13 48 -35 78 -59 78 -39 1 -45 16 -27 63 18 48 62 84 128
106 44 14 58 9 58 -24 0 -21 12 -27 133 -65 72 -23 181 -58 240 -77 60 -19
110 -33 113 -30 3 2 -10 17 -28 32 -18 15 -80 72 -138 125 -180 167 -214 193
-250 185 l-30 -7 7 91 c4 59 2 91 -4 91 -9 0 -23 -110 -23 -182 0 -29 1 -29
44 -23 41 7 46 5 97 -41 121 -107 239 -217 235 -221 -3 -3 -145 74 -317 173
-109 63 -130 115 -89 222 25 66 25 97 0 122 -34 34 -140 21 -140 -17 0 -10 11
-35 25 -55 42 -63 28 -129 -45 -215 -62 -73 -80 -109 -80 -166 0 -76 15 -102
67 -118 l46 -15 69 -204 c38 -113 67 -212 66 -220 -3 -13 -29 28 -115 180 -11
19 -56 94 -99 165 -105 175 -105 187 -11 341 91 149 101 189 59 237 -18 20
-65 23 -79 5 -11 -14 -23 -87 -26 -158 -2 -35 -10 -56 -35 -87 -40 -51 -60
-58 -107 -38 -21 8 -55 15 -76 15 -39 0 -39 0 -39 -39 0 -22 -4 -42 -9 -46 -6
-3 -9 3 -9 12 1 10 -4 38 -11 62 -7 24 -9 60 -6 82 6 32 3 40 -14 51 -12 7
-21 20 -21 28 1 12 3 11 11 -2 13 -23 32 -23 101 0 30 10 60 16 66 14 15 -5
15 -49 1 -91 -6 -18 -8 -35 -5 -39 14 -13 81 0 103 20 33 31 28 61 -17 114
-36 40 -39 49 -28 64 104 142 136 235 88 260 -29 16 -25 38 16 76 29 28 43 34
80 34 40 0 44 2 44 25 0 39 -33 65 -84 65 -37 0 -48 -5 -70 -31 -14 -17 -26
-37 -26 -45 0 -26 -18 -14 -37 24 -31 63 -93 76 -142 31 -12 -12 -21 -32 -21
-49 0 -29 1 -30 43 -24 36 5 47 2 69 -17 37 -34 44 -65 18 -79 -13 -7 -20 -21
-20 -38 0 -36 -46 -109 -94 -147 -20 -16 -48 -40 -61 -52 l-25 -22 0 44 c0 51
15 70 65 79 19 4 35 11 35 16 0 29 -98 41 -120 15 -7 -8 -16 -12 -21 -9 -18
11 -8 35 22 52 27 15 30 20 25 55 -7 43 2 47 32 12 33 -38 58 -32 80 19 15 33
1 59 -20 38 -15 -15 -45 -15 -54 0 -4 6 -7 32 -6 57 0 40 5 50 37 77 l38 31
-8 59 c-10 90 -26 155 -35 149 -4 -3 -13 -35 -20 -72 -25 -143 -32 -173 -41
-173 -5 0 -9 50 -9 113 -1 61 -5 159 -10 217 -6 58 -13 155 -17 215 -5 75 -9
100 -14 80 -6 -27 -7 -28 -8 -5 0 14 -9 47 -20 74 -14 38 -20 45 -24 30z m34
-269 l3 -140 6 95 c4 68 7 29 7 -135 1 -178 -2 -238 -13 -265 l-14 -35 6 40
c8 50 8 43 4 145 l-4 85 -6 -70 c-4 -38 -7 58 -7 215 0 174 3 269 8 245 4 -22
9 -103 10 -180z m45 -395 c6 -253 5 -277 -11 -290 -16 -13 -16 -9 -11 61 3 41
8 95 11 122 5 30 3 47 -3 47 -6 0 -13 -17 -15 -37 -2 -21 -2 -18 0 7 2 25 6
118 9 208 3 90 7 162 9 160 2 -2 7 -127 11 -278z m-36 -229 c0 -47 -4 -72 -14
-80 -12 -10 -13 -5 -5 31 6 23 7 59 4 80 -5 25 -3 38 4 38 7 0 11 -26 11 -69z
m284 -168 c-48 -83 -112 -136 -205 -168 l-39 -14 0 31 c0 24 3 29 11 21 30
-30 170 80 221 172 31 56 33 58 36 32 2 -17 -7 -46 -24 -74z m-323 -8 c6 15 8
10 8 -20 l1 -40 -15 29 c-8 15 -14 36 -14 45 1 9 4 5 7 -9 4 -23 5 -24 13 -5z
m26 -7 c-3 -7 -5 -2 -5 12 0 14 2 19 5 13 2 -7 2 -19 0 -25z m70 -350 c-3 -7
-5 -2 -5 12 0 14 2 19 5 13 2 -7 2 -19 0 -25z m18 -78 c3 -5 1 -10 -4 -10 -6
0 -11 5 -11 10 0 6 2 10 4 10 3 0 8 -4 11 -10z m-160 -56 c8 -63 0 -86 -10
-28 -3 22 -10 47 -16 56 -12 24 -12 28 5 28 9 0 16 -18 21 -56z m128 24 c-3
-18 -10 -42 -14 -53 -6 -16 -8 -12 -8 17 -1 41 7 68 20 68 5 0 6 -15 2 -32z
m-76 -130 c-3 -8 -6 -5 -6 6 -1 11 2 17 5 13 3 -3 4 -12 1 -19z m26 2 c-3 -12
-8 -19 -11 -16 -5 6 5 36 12 36 2 0 2 -9 -1 -20z m8 -80 c0 -23 1 -24 10 -5 6
14 8 0 5 -45 -3 -48 -2 -57 4 -35 7 22 8 8 5 -48 -2 -46 0 -75 6 -72 5 4 9 47
9 98 l0 91 21 -20 c19 -20 20 -23 6 -80 -8 -32 -27 -117 -42 -189 -56 -267
-53 -270 -49 55 2 162 4 297 4 300 1 17 20 -29 21 -50z"/>
</g>
</svg>
