<?xml version="1.0" standalone="no"?>
<!DOCTYPE svg PUBLIC "-//W3C//DTD SVG 20010904//EN"
 "http://www.w3.org/TR/2001/REC-SVG-20010904/DTD/svg10.dtd">
<svg version="1.0" xmlns="http://www.w3.org/2000/svg"
 width="244.000000pt" height="305.000000pt" viewBox="0 0 244.000000 305.000000"
 preserveAspectRatio="xMidYMid meet">
<metadata>
Created by potrace 1.16, written by Peter Selinger 2001-2019
</metadata>
<g transform="translate(0.000000,305.000000) scale(0.100000,-0.100000)"
fill="#000000" stroke="none">
<path d="M1497 2828 c-9 -46 -22 -127 -29 -180 -7 -54 -15 -93 -19 -87 -3 6
-9 -137 -13 -318 -4 -180 -12 -332 -17 -338 -5 -5 -9 190 -9 495 0 277 -2 501
-4 499 -9 -9 -37 -384 -46 -619 -6 -135 -14 -261 -19 -280 l-9 -35 -1 36 c-1
20 -4 51 -8 70 -5 28 -7 30 -14 14 -5 -13 -8 7 -8 50 -2 125 -46 443 -64 461
-13 14 -54 -246 -63 -401 -4 -72 -10 -119 -14 -105 -6 24 -7 23 -13 -9 -4 -18
-8 -50 -8 -70 -1 -27 -4 -20 -13 31 -6 36 -14 69 -17 73 -7 7 -29 -103 -30
-151 0 -16 -4 -38 -9 -49 -5 -12 -8 185 -7 483 1 276 -1 502 -4 502 -6 0 -28
-196 -30 -261 0 -19 -4 -43 -8 -54 -6 -14 -12 13 -21 83 -7 57 -14 101 -17 98
-3 -2 3 -64 12 -138 14 -107 17 -188 13 -410 -4 -252 -6 -279 -23 -298 -10
-11 -22 -20 -27 -20 -4 0 -8 214 -8 476 0 314 3 473 10 469 12 -8 13 25 1 44
-11 17 -46 -166 -66 -349 -20 -180 -32 -630 -17 -630 6 0 27 -14 47 -31 27
-24 35 -39 35 -65 0 -19 -4 -34 -10 -34 -5 0 -10 6 -10 14 0 7 -9 25 -21 40
-40 51 -117 26 -122 -40 -2 -27 0 -29 36 -29 30 0 44 -6 63 -28 25 -29 32 -71
14 -82 -5 -3 -10 -30 -10 -58 -1 -55 -22 -151 -32 -142 -12 12 -59 -20 -65
-44 -3 -14 -1 -48 4 -75 14 -68 0 -95 -21 -44 -22 52 -20 121 5 170 l21 42
-23 18 c-34 28 -90 21 -106 -13 -11 -22 -10 -41 8 -117 25 -106 20 -154 -16
-178 -25 -17 -33 -48 -15 -59 21 -13 8 -26 -46 -51 -89 -41 -247 -104 -251
-100 -2 1 66 54 149 116 84 62 158 119 164 127 9 11 9 27 -2 66 -8 29 -14 76
-14 105 0 32 -4 52 -11 52 -9 0 -10 -25 -6 -90 4 -50 4 -90 1 -90 -3 0 -14 5
-24 10 -17 9 -26 4 -57 -32 -21 -23 -63 -70 -94 -103 -31 -33 -82 -89 -114
-125 -33 -36 -63 -68 -69 -72 -6 -4 -8 -9 -5 -13 3 -3 44 10 90 28 46 18 135
53 197 77 98 39 112 47 112 67 0 27 26 41 43 24 8 -8 4 -26 -18 -69 -17 -31
-32 -59 -35 -62 -20 -20 -48 -70 -42 -74 4 -2 47 20 95 50 98 61 117 66 117
29 0 -18 -9 -31 -30 -43 -20 -11 -34 -29 -40 -52 -15 -59 -78 -298 -109 -417
-16 -62 -26 -113 -22 -112 6 0 145 184 229 302 23 34 42 53 42 43 0 -9 -12
-89 -26 -177 -14 -88 -24 -163 -21 -165 2 -2 50 94 106 213 99 214 101 219 94
272 l-6 54 33 -7 c35 -7 65 -28 82 -59 7 -14 2 -26 -22 -53 -18 -21 -29 -42
-26 -52 3 -9 12 -57 20 -107 8 -49 31 -183 50 -298 20 -114 36 -212 36 -219 0
-34 11 13 34 147 14 83 37 213 51 290 32 183 32 211 -2 247 l-27 28 20 28 c24
32 69 56 90 48 12 -5 14 -16 9 -50 -6 -39 -2 -56 32 -128 22 -46 66 -140 99
-211 32 -70 60 -121 62 -113 2 8 -8 83 -22 167 -14 84 -24 154 -22 156 2 2 63
-75 135 -171 124 -165 151 -197 151 -180 0 7 -82 325 -110 424 -10 36 -21 80
-25 98 -5 25 -15 36 -42 47 -31 13 -34 18 -28 42 3 16 9 31 13 35 4 4 42 -16
85 -43 43 -28 81 -49 83 -46 2 2 -16 41 -42 86 -47 85 -48 98 -4 103 21 3 26
-2 28 -25 2 -16 11 -31 20 -34 9 -3 100 -39 202 -79 101 -40 186 -71 189 -69
2 3 -20 31 -50 62 -30 32 -103 111 -164 176 -99 106 -112 117 -137 112 l-27
-6 5 93 c7 122 -11 97 -21 -30 l-7 -92 39 6 c41 6 41 6 238 -206 85 -93 66
-84 -156 71 -101 71 -129 95 -143 128 -19 41 -19 48 8 166 13 62 14 72 0 92
-25 39 -124 26 -124 -15 0 -9 9 -32 20 -50 26 -43 26 -111 -1 -164 -28 -56
-46 -37 -25 26 20 58 20 70 1 105 -15 29 -64 48 -76 29 -10 -16 -19 93 -12
149 5 43 3 54 -11 59 -24 9 -19 48 10 83 21 25 33 31 65 31 35 0 39 3 39 25 0
31 -41 75 -70 75 -25 0 -80 -51 -80 -74 0 -9 -4 -16 -10 -16 -5 0 -10 7 -10
15 0 32 -24 64 -51 70 -32 7 -36 17 -14 35 11 9 19 7 40 -14 31 -32 32 -32 61
-3 13 12 32 29 42 38 18 15 19 29 15 205 -3 104 -8 230 -13 279 -4 51 -5 -27
-2 -180 l5 -270 -36 -28 -37 -28 -1 118 c-1 65 0 280 1 478 3 471 3 469 -23
333z m-237 -553 c2 -56 4 -63 9 -35 10 55 21 -97 19 -259 l-2 -136 -6 165 c-5
155 -6 150 -8 -103 -2 -223 -5 -271 -17 -283 -13 -14 -15 33 -13 423 1 378 9
477 18 228z m-218 -407 c-4 -4 -21 -4 -37 0 l-29 8 25 17 c23 16 25 16 37 0 6
-9 9 -20 4 -25z m53 2 c3 -5 -1 -10 -9 -10 -9 0 -16 5 -16 10 0 6 4 10 9 10 6
0 13 -4 16 -10z m299 -11 c-3 -5 -10 -7 -15 -3 -5 3 -7 10 -3 15 3 5 10 7 15
3 5 -3 7 -10 3 -15z m-260 -98 c3 -4 -1 -17 -9 -27 -11 -15 -16 -16 -26 -7
-10 10 -9 15 1 28 14 17 26 19 34 6z m240 -16 c3 -8 0 -17 -6 -21 -11 -7 -28
13 -28 33 0 16 27 6 34 -12z m116 -50 c0 -7 -7 -15 -15 -19 -8 -3 -15 -17 -15
-31 0 -42 -18 -28 -25 19 -5 28 -2 52 5 67 l13 23 18 -23 c11 -13 19 -29 19
-36z m-456 29 c8 -20 8 -59 0 -67 -10 -10 -44 17 -44 35 0 26 11 48 25 48 7 0
16 -7 19 -16z m253 -71 c-3 -10 -5 -2 -5 17 0 19 2 27 5 18 2 -10 2 -26 0 -35z
m-130 -13 c3 -10 15 -26 28 -34 13 -8 29 -32 36 -53 l12 -38 18 43 c10 23 26
45 34 49 9 3 21 17 26 30 6 18 15 23 32 21 18 -2 23 -10 25 -41 l3 -39 -39 7
c-45 7 -55 -1 -82 -72 l-18 -48 -12 47 c-15 57 -32 73 -79 73 -32 0 -36 3 -39
29 -5 43 44 67 55 26z m-174 -72 c13 -29 41 -77 61 -107 46 -68 46 -85 0 -40
-39 37 -94 140 -94 177 0 33 6 27 33 -30z m116 -66 c7 -14 8 -22 1 -22 -15 0
-40 68 -39 109 1 35 2 35 14 -14 6 -28 17 -60 24 -73z m291 8 c-12 -23 -24
-40 -27 -37 -3 3 2 20 11 38 9 18 20 51 24 73 l7 41 3 -37 c2 -23 -5 -52 -18
-78z m105 7 c-32 -65 -78 -121 -94 -116 -8 3 0 23 25 59 20 30 49 80 63 110
24 50 26 53 29 27 2 -15 -8 -50 -23 -80z m-322 -43 c6 -35 -7 -29 -26 11 -22
46 -21 52 2 31 10 -9 21 -28 24 -42z m151 12 c-19 -40 -39 -49 -28 -13 7 24
35 60 41 53 2 -2 -4 -20 -13 -40z m-364 -101 c0 -30 -4 -55 -10 -55 -11 0 -14
93 -3 103 12 12 13 8 13 -48z m562 -33 c-4 -11 -6 -11 -13 0 -11 16 -12 72 -1
82 9 9 22 -63 14 -82z m55 1 c-3 -10 -5 -2 -5 17 0 19 2 27 5 18 2 -10 2 -26
0 -35z m-392 26 c10 -15 -1 -23 -20 -15 -9 3 -13 10 -10 16 8 13 22 13 30 -1z
m130 1 c3 -6 -1 -13 -10 -16 -19 -8 -30 0 -20 15 8 14 22 14 30 1z m-268 -81
c-6 -47 7 -95 30 -103 27 -11 33 4 27 60 -7 57 -3 62 40 45 14 -5 16 -10 8
-15 -22 -14 -14 -56 13 -66 18 -7 25 -17 25 -36 0 -23 -3 -25 -27 -20 -16 4
-45 7 -66 8 -20 1 -42 7 -48 15 -18 20 -25 153 -9 153 9 0 11 -12 7 -41z m390
-35 c-6 -81 -17 -94 -77 -94 -27 0 -50 -5 -52 -10 -2 -7 -10 -6 -22 3 -24 18
-13 55 17 59 29 4 36 47 11 65 -17 12 -17 13 3 13 12 0 29 3 39 7 15 6 17 1
11 -50 -8 -63 3 -79 34 -51 15 13 19 30 19 76 0 41 3 57 11 52 8 -4 10 -29 6
-70z m213 -33 c0 -20 -27 -48 -37 -37 -8 7 17 56 29 56 4 0 8 -8 8 -19z m-780
-41 c0 -5 -4 -10 -10 -10 -5 0 -10 5 -10 10 0 6 5 10 10 10 6 0 10 -4 10 -10z
m592 -32 c-7 -7 -12 -8 -12 -2 0 14 12 26 19 19 2 -3 -1 -11 -7 -17z m-534
-189 c4 -125 1 -136 -56 -218 -110 -157 -177 -248 -180 -242 -1 4 23 61 54
127 61 131 76 163 127 275 31 68 33 81 26 125 -4 27 -8 63 -8 79 l0 30 17 -30
c12 -22 17 -62 20 -146z m822 93 l31 -57 -47 47 c-32 32 -45 51 -41 63 10 23
22 12 57 -53z m-161 -17 c2 -65 10 -80 54 -101 47 -21 37 4 117 -293 22 -84
38 -156 36 -159 -3 -3 -17 19 -30 49 -13 30 -67 143 -120 251 -79 162 -96 206
-96 244 0 25 5 55 12 67 11 21 11 21 19 2 4 -11 8 -38 8 -60z m-782 45 c3 -14
-116 -104 -125 -95 -2 2 18 29 44 60 47 54 76 66 81 35z m428 -150 c3 0 11 14
17 31 6 16 12 28 15 25 6 -6 -18 -86 -26 -86 -11 0 -41 57 -41 77 1 11 6 6 15
-14 8 -18 17 -33 20 -33z m-191 -31 c3 -17 6 -40 6 -50 0 -19 -152 -371 -157
-365 -2 1 15 65 38 142 22 76 42 148 44 158 3 11 12 42 21 70 8 28 17 57 19
64 8 22 22 12 29 -19z m461 -24 c0 -27 7 -61 14 -75 14 -23 64 -290 57 -297
-3 -4 -126 406 -126 420 0 5 12 7 28 5 25 -3 27 -6 27 -53z m-235 -314 c-13
-122 -25 -221 -27 -221 -1 0 -3 123 -3 273 l0 272 27 -52 27 -52 -24 -220z
m51 187 c0 -23 -7 -68 -15 -98 l-14 -55 2 112 c1 95 3 110 15 98 8 -8 13 -31
12 -57z m-34 -205 c-3 -10 -5 -4 -5 12 0 17 2 24 5 18 2 -7 2 -21 0 -30z"/>
<path d="M972 2800 c0 -14 2 -19 5 -12 2 6 2 18 0 25 -3 6 -5 1 -5 -13z"/>
<path d="M1542 2755 c0 -16 2 -22 5 -12 2 9 2 23 0 30 -3 6 -5 -1 -5 -18z"/>
<path d="M1421 2724 c0 -11 3 -14 6 -6 3 7 2 16 -1 19 -3 4 -6 -2 -5 -13z"/>
<path d="M1552 2695 c0 -16 6 -68 13 -115 8 -55 13 -71 13 -45 1 22 -5 74 -12
115 -8 41 -14 62 -14 45z"/>
<path d="M1432 2645 c0 -16 2 -22 5 -12 2 9 2 23 0 30 -3 6 -5 -1 -5 -18z"/>
<path d="M1093 2540 c0 -30 2 -43 4 -27 2 15 2 39 0 55 -2 15 -4 2 -4 -28z"/>
<path d="M1104 2300 c0 -91 2 -128 3 -82 2 45 2 119 0 165 -1 45 -3 8 -3 -83z"/>
</g>
</svg>
