<?xml version="1.0" standalone="no"?>
<!DOCTYPE svg PUBLIC "-//W3C//DTD SVG 20010904//EN"
 "http://www.w3.org/TR/2001/REC-SVG-20010904/DTD/svg10.dtd">
<svg version="1.0" xmlns="http://www.w3.org/2000/svg"
 width="244.000000pt" height="305.000000pt" viewBox="0 0 244.000000 305.000000"
 preserveAspectRatio="xMidYMid meet">
<metadata>
Created by potrace 1.16, written by Peter Selinger 2001-2019
</metadata>
<g transform="translate(0.000000,305.000000) scale(0.100000,-0.100000)"
fill="#000000" stroke="none">
<path d="M1027 2773 c1 -126 0 -139 -8 -88 -5 33 -8 74 -6 92 1 17 -1 30 -5
27 -4 -2 -10 12 -13 33 -10 61 -17 72 -25 43 -5 -14 -8 -34 -8 -45 l-1 -20 8
20 c5 11 8 -182 7 -430 0 -247 -3 -400 -7 -340 l-5 110 -2 -125 c-1 -87 2
-130 10 -138 7 -7 8 -12 2 -12 -6 0 -23 13 -39 30 l-28 29 7 228 c4 125 14
295 22 376 9 82 13 151 11 153 -3 3 -7 -19 -11 -48 -20 -164 -27 -278 -32
-503 l-6 -250 33 -18 c26 -15 30 -20 18 -28 -7 -5 -31 -9 -51 -9 -42 0 -68
-27 -68 -72 0 -24 4 -27 32 -26 23 1 39 -7 60 -31 31 -35 36 -62 13 -81 -8 -7
-15 -22 -15 -35 0 -19 25 -101 44 -146 5 -12 0 -18 -21 -22 -36 -7 -46 3 -34
36 16 42 -6 55 -89 55 -64 0 -72 -2 -87 -25 -15 -23 -15 -31 2 -119 l19 -95
-40 -56 c-27 -38 -79 -87 -157 -146 -65 -50 -119 -88 -121 -86 -2 2 45 64 106
137 95 114 112 131 128 122 10 -5 23 -10 29 -10 13 0 13 149 0 195 -5 20 -7
-3 -5 -68 l2 -98 -26 6 c-23 5 -36 -7 -130 -121 -58 -70 -120 -144 -139 -166
-19 -21 -31 -41 -27 -45 3 -3 45 10 92 31 47 21 88 35 91 32 3 -3 -4 -18 -16
-34 -21 -30 -28 -57 -13 -50 35 16 270 144 282 154 22 18 37 5 55 -46 15 -42
15 -46 -2 -57 -9 -7 -22 -13 -29 -13 -16 0 -12 11 -74 -255 -27 -121 -55 -237
-61 -258 -6 -22 -8 -42 -5 -45 3 -3 7 -3 9 -1 1 2 13 19 25 37 13 18 37 53 54
78 17 25 32 43 35 40 3 -2 -3 -43 -12 -91 -10 -47 -15 -89 -11 -92 3 -4 6 -2
6 4 0 6 18 41 40 77 22 36 40 69 40 72 0 4 15 32 34 63 18 31 54 95 79 142 43
80 46 91 40 138 l-6 51 37 0 c43 0 74 -14 98 -44 21 -26 22 -40 5 -58 -32 -31
-35 -52 -22 -138 7 -47 29 -190 49 -319 20 -129 38 -236 41 -239 3 -3 5 0 5 5
0 12 52 355 75 497 20 120 19 152 -6 185 -14 20 -19 36 -14 51 10 30 63 60
108 60 l38 0 -7 -49 c-6 -44 -2 -56 31 -117 103 -189 198 -354 201 -351 2 2
-3 39 -12 81 -9 43 -14 80 -11 82 2 3 25 -26 50 -63 26 -37 58 -81 73 -98 25
-29 25 -30 20 -5 -3 14 -33 140 -67 280 -59 249 -71 280 -106 280 -7 0 -13 11
-13 25 0 31 26 95 38 95 8 0 114 -53 247 -124 45 -24 48 -20 21 21 -14 20 -24
38 -23 40 2 1 57 -20 123 -46 65 -27 121 -48 123 -45 2 2 -25 37 -60 77 -35
41 -102 120 -149 176 -77 92 -88 101 -112 96 l-27 -6 5 93 c3 63 1 86 -5 73
-5 -11 -10 -36 -10 -56 -1 -20 -6 -62 -13 -94 -10 -53 -10 -59 9 -74 195 -156
271 -219 288 -234 11 -10 -27 3 -90 30 l-110 49 -62 93 c-71 106 -75 126 -46
248 15 67 15 73 -1 97 -17 27 -65 36 -95 17 -9 -6 -21 -5 -32 2 -13 8 -25 8
-44 -1 -26 -12 -27 -15 -20 -58 5 -37 4 -45 -7 -40 -7 3 -21 9 -30 12 -16 6
-16 9 2 53 30 76 36 138 15 161 -32 36 15 110 70 110 42 0 48 9 34 49 -14 41
-39 53 -89 45 -49 -8 -53 6 -9 38 l32 23 -7 275 c-6 273 -11 345 -42 553 -13
86 -20 107 -33 107 -11 0 -12 -3 -4 -8 8 -5 10 -51 8 -155 -1 -81 -5 -150 -8
-153 -2 -3 -8 44 -11 103 -6 100 -19 182 -35 226 -3 10 -5 -194 -4 -453 2
-288 -1 -470 -7 -470 -5 0 -8 92 -6 233 3 207 3 215 -4 77 -4 -85 -8 -195 -9
-245 -1 -63 -4 -86 -12 -78 -6 6 -11 89 -12 229 -1 178 -2 191 -4 67 -2 -91
-8 -153 -13 -153 -6 0 -10 6 -10 14 0 9 -7 12 -19 9 -16 -4 -21 -17 -26 -81
-9 -105 -13 -111 -14 -22 -2 114 -11 242 -27 378 -18 158 -34 230 -45 211 -16
-29 -49 -310 -56 -480 l-7 -174 -11 83 c-5 45 -13 83 -17 82 -5 0 -12 0 -16 0
-5 0 -13 -17 -18 -37 -8 -29 -11 18 -16 202 -4 132 -12 276 -17 320 -5 44 -15
125 -21 181 -17 162 -25 165 -23 7z m203 -723 c0 -439 0 -440 -20 -423 -19 16
-20 30 -20 213 1 228 24 650 36 650 2 0 4 -198 4 -440z m-137 -159 c4 -15 -2
-20 -24 -23 -33 -5 -33 -5 -17 22 16 25 34 26 41 1z m327 -12 c0 -5 -11 -9
-25 -9 -13 0 -33 -10 -45 -22 -11 -12 -20 -18 -20 -13 0 5 14 24 32 42 24 25
35 30 45 22 7 -6 13 -15 13 -20z m-400 -25 c0 -8 -7 -14 -15 -14 -17 0 -18 2
-9 24 7 18 24 12 24 -10z m460 0 c0 -16 -16 -19 -25 -4 -8 13 4 32 16 25 5 -4
9 -13 9 -21z m-340 -109 c0 -10 -9 -14 -30 -11 -26 3 -30 0 -30 -21 0 -56 40
-81 74 -47 15 14 16 12 16 -19 0 -22 6 -37 15 -41 9 -3 23 -22 31 -41 8 -19
16 -35 19 -35 3 0 11 16 19 35 8 19 22 38 31 41 9 4 15 19 15 43 1 29 3 33 11
19 23 -40 79 -9 79 43 0 27 -2 29 -30 24 -23 -4 -30 -2 -30 10 0 12 8 15 32
13 40 -4 68 -49 49 -80 -6 -10 -11 -23 -11 -30 0 -7 -5 -30 -11 -51 l-10 -37
-30 16 c-50 25 -77 3 -104 -85 -7 -21 -9 -19 -29 29 -27 69 -46 81 -88 57 -36
-21 -44 -14 -53 43 -4 19 -10 43 -16 52 -11 22 -11 30 1 62 8 21 16 26 45 26
24 0 35 -5 35 -15z m-152 -190 c0 -16 -2 -15 -8 5 -4 14 -8 34 -8 45 0 16 2
15 8 -5 4 -14 8 -34 8 -45z m512 43 c-1 -13 -8 -36 -16 -53 -8 -16 -12 -22 -9
-12 3 10 5 34 5 53 0 19 5 34 10 34 6 0 10 -10 10 -22z m-350 -78 c19 -10 40
-84 40 -140 0 -28 -1 -28 -29 -19 -16 6 -39 21 -52 35 -27 29 -14 32 21 4 14
-11 31 -20 38 -20 18 0 15 46 -5 66 -22 21 -53 66 -53 77 0 10 18 9 40 -3z
m210 3 c0 -11 -31 -57 -54 -79 -19 -19 -19 -18 -13 19 3 22 11 45 18 53 12 15
49 20 49 7z m288 -180 c-5 -37 -15 -72 -20 -78 -7 -7 -8 -1 -4 20 4 17 9 61
13 100 4 50 8 63 14 48 4 -12 3 -52 -3 -90z m-814 5 c4 -39 3 -68 -3 -68 -13
0 -21 37 -21 100 0 73 16 52 24 -32z m170 56 c8 -21 -3 -56 -15 -49 -12 8 -12
65 0 65 5 0 12 -7 15 -16z m352 -13 c-10 -11 -31 -24 -47 -30 -27 -9 -29 -8
-28 17 0 15 3 21 6 15 7 -18 24 -16 53 7 30 23 40 17 16 -9z m124 -3 c0 -23
-3 -29 -11 -21 -6 6 -8 20 -4 32 9 30 15 26 15 -11z m-343 -85 c18 -4 21 -10
16 -39 -5 -29 -2 -35 21 -44 31 -12 35 -45 6 -60 -16 -9 -24 -7 -36 5 -19 18
-37 19 -81 3 -29 -10 -36 -10 -43 2 -15 23 -12 25 23 25 l32 0 1 55 c1 72 1
73 22 65 9 -4 27 -10 39 -12z m250 -42 c-7 -63 -2 -71 45 -71 11 0 18 -5 15
-12 -4 -14 -23 -15 -73 -3 -22 5 -35 2 -47 -9 -17 -17 -42 -13 -51 10 -8 21 3
41 25 47 14 4 19 14 19 39 0 28 5 36 28 45 44 18 45 16 39 -46z m141 -36 c-12
-25 -23 -43 -25 -41 -7 6 31 95 39 90 4 -3 -2 -25 -14 -49z m-578 0 c0 -5 -5
-3 -10 5 -5 8 -10 20 -10 25 0 6 5 3 10 -5 5 -8 10 -19 10 -25z m794 -100 c5
-11 27 -31 48 -45 22 -14 49 -38 61 -54 l20 -28 -24 12 c-25 14 -171 101 -178
106 -2 2 2 11 9 19 17 21 53 15 64 -10z m-199 -90 c-5 -32 -11 -43 -18 -36 -7
7 -7 23 2 52 7 22 15 39 17 36 3 -3 2 -26 -1 -52z m-338 -16 c7 -34 16 -66 21
-71 14 -14 32 23 39 82 5 43 9 50 27 49 15 -1 16 -3 5 -6 -11 -3 -18 -20 -22
-54 -4 -28 -15 -65 -27 -83 -19 -31 -20 -50 -21 -317 -1 -315 -3 -314 -45 25
l-18 139 29 53 c28 52 29 56 16 101 -17 59 -29 143 -21 143 3 0 11 -28 17 -61z
m-592 11 c-41 -42 -58 -47 -31 -9 14 20 51 48 66 49 2 0 -13 -18 -35 -40z
m325 -17 c0 -23 -5 -33 -15 -33 -17 0 -18 12 -9 60 8 39 24 21 24 -27z m-55
-100 c-10 -67 -28 -127 -65 -208 -50 -112 -57 -128 -74 -167 -14 -35 -31 -55
-21 -25 2 6 23 89 45 182 58 243 57 241 82 253 37 17 40 14 33 -35z m601 -23
c-7 -51 6 -90 42 -128 20 -22 54 -91 78 -162 44 -126 29 -106 -80 104 -73 138
-77 151 -71 192 4 31 11 44 22 44 13 0 14 -8 9 -50z m-572 25 c-4 -8 -8 -15
-10 -15 -2 0 -4 7 -4 15 0 8 4 15 10 15 5 0 7 -7 4 -15z m606 -70 c0 -8 -2
-15 -4 -15 -2 0 -6 7 -10 15 -3 8 -1 15 4 15 6 0 10 -7 10 -15z m158 -193 c39
-89 67 -160 63 -157 -5 2 -32 40 -61 85 -37 56 -56 98 -66 142 -13 63 -18 105
-10 97 3 -2 36 -77 74 -167z m-819 -66 c-17 -48 -33 -85 -35 -83 -9 9 19 113
38 145 11 18 22 31 24 29 3 -2 -10 -43 -27 -91z"/>
<path d="M1487 2896 c-4 -10 -5 -21 -2 -24 9 -9 17 6 13 25 -3 17 -4 17 -11
-1z"/>
<path d="M1472 2810 c0 -19 2 -27 5 -17 2 9 2 25 0 35 -3 9 -5 1 -5 -18z"/>
<path d="M1422 2800 c0 -14 2 -19 5 -12 2 6 2 18 0 25 -3 6 -5 1 -5 -13z"/>
<path d="M952 2775 c0 -16 2 -22 5 -12 2 9 2 23 0 30 -3 6 -5 -1 -5 -18z"/>
<path d="M1412 2710 c0 -19 2 -27 5 -17 2 9 2 25 0 35 -3 9 -5 1 -5 -18z"/>
<path d="M1395 2547 c-4 -64 -5 -121 -3 -129 3 -7 8 42 12 110 4 68 6 126 3
128 -3 3 -8 -46 -12 -109z"/>
</g>
</svg>
