<?xml version="1.0" standalone="no"?>
<!DOCTYPE svg PUBLIC "-//W3C//DTD SVG 20010904//EN"
 "http://www.w3.org/TR/2001/REC-SVG-20010904/DTD/svg10.dtd">
<svg version="1.0" xmlns="http://www.w3.org/2000/svg"
 width="244.000000pt" height="305.000000pt" viewBox="0 0 244.000000 305.000000"
 preserveAspectRatio="xMidYMid meet">
<metadata>
Created by potrace 1.16, written by Peter Selinger 2001-2019
</metadata>
<g transform="translate(0.000000,305.000000) scale(0.100000,-0.100000)"
fill="#000000" stroke="none">
<path d="M921 2855 c-6 -30 -15 -79 -21 -107 -22 -120 -41 -316 -50 -528 -14
-320 -16 -292 24 -314 19 -10 37 -25 40 -32 8 -21 25 -17 63 16 18 17 39 30
45 30 26 0 -6 594 -43 808 -21 117 -20 55 1 -94 21 -154 40 -431 40 -590 l0
-91 -40 -27 c-22 -14 -40 -23 -40 -19 -4 91 0 947 4 951 9 9 7 40 -3 47 -5 3
-14 -20 -20 -50z"/>
<path d="M1382 2890 c0 -14 2 -19 5 -12 2 6 2 18 0 25 -3 6 -5 1 -5 -13z"/>
<path d="M1067 2685 c-9 -121 -20 -340 -24 -486 -6 -261 -6 -267 15 -302 27
-43 28 -51 3 -37 -11 5 -28 10 -37 10 -23 0 -74 -49 -74 -71 0 -33 -18 -30
-30 5 -24 73 -118 87 -146 21 -21 -50 -18 -55 28 -55 52 0 98 -38 98 -82 0
-15 -4 -28 -10 -28 -18 0 -11 -99 10 -140 16 -31 20 -59 20 -130 0 -66 -3 -90
-13 -90 -13 0 -37 65 -37 103 0 48 -56 65 -84 25 -25 -36 -19 -86 20 -161 19
-37 34 -73 32 -79 -2 -6 -22 14 -45 43 -68 91 -80 159 -38 221 14 20 25 44 25
52 0 20 -31 36 -69 36 -75 0 -89 -31 -61 -137 30 -114 24 -165 -22 -203 -19
-15 -21 -21 -11 -43 9 -19 9 -28 0 -35 -18 -14 -318 -135 -322 -130 -3 2 75
60 171 128 l176 123 -6 46 c-4 25 -10 77 -15 114 -13 103 -24 94 -19 -16 l5
-97 -31 5 c-34 6 -8 29 -276 -249 -76 -78 -98 -106 -80 -101 51 15 405 148
418 158 6 5 12 20 12 34 0 21 3 23 23 18 12 -4 42 -18 65 -32 49 -28 49 -32
19 -123 -9 -25 -25 -85 -38 -135 -22 -90 -69 -266 -107 -402 -13 -47 -16 -70
-9 -67 7 3 53 58 102 122 50 64 125 160 168 214 77 97 78 99 75 151 -3 47 -1
52 20 55 12 2 22 2 22 0 0 -9 -61 -457 -66 -488 -4 -19 -4 -33 -1 -30 4 3 43
96 87 205 69 168 81 208 81 253 -2 61 11 67 53 26 33 -33 33 -45 0 -78 -23
-23 -26 -31 -21 -68 7 -42 61 -353 91 -518 9 -47 16 -89 16 -94 0 -35 14 33
59 274 70 387 69 369 36 409 -25 29 -27 34 -14 57 15 29 45 48 64 41 9 -4 11
-19 8 -50 -5 -38 6 -73 83 -265 48 -122 89 -221 90 -219 1 1 -3 43 -10 92 -8
54 -14 76 -15 55 -2 -24 -20 31 -57 170 -29 113 -54 211 -54 218 0 6 8 12 19
12 10 0 23 -6 28 -12 6 -7 21 -89 34 -183 13 -93 25 -161 26 -150 2 11 -8 92
-21 180 -24 160 -22 181 11 168 11 -4 13 -15 7 -42 -4 -20 -7 -44 -6 -53 1
-15 325 -429 342 -436 4 -1 -6 44 -21 100 -52 198 -111 411 -116 426 -5 11 -1
13 16 7 l22 -7 -21 44 c-11 23 -27 55 -35 70 -26 46 -16 62 54 93 42 19 61 13
61 -18 0 -21 13 -28 118 -66 64 -24 157 -58 206 -77 49 -19 90 -33 92 -31 3 2
-69 81 -158 176 -154 162 -165 172 -193 166 l-31 -5 3 97 c2 75 0 88 -7 58 -7
-36 -14 -141 -11 -172 1 -7 14 -9 39 -6 37 5 39 4 162 -128 69 -73 117 -130
107 -126 -28 10 -310 199 -324 216 -31 39 -35 91 -14 170 26 95 26 96 1 121
-33 33 -120 21 -120 -16 0 -8 10 -33 21 -56 35 -68 15 -152 -56 -242 -29 -38
-28 -4 2 57 39 78 46 108 32 144 -12 32 -26 43 -56 43 -28 0 -39 -21 -46 -89
-8 -65 -23 -86 -33 -46 -5 20 -9 23 -15 13 -7 -10 -9 -8 -10 7 -4 47 5 94 28
149 34 81 40 146 18 179 -16 25 -16 29 -1 52 23 36 61 57 93 53 26 -3 28 -1
26 32 -2 39 -24 60 -64 60 -33 0 -75 -32 -83 -65 -8 -32 -22 -32 -30 1 -9 34
-50 74 -76 74 -12 0 -32 -11 -45 -25 -23 -22 -25 -23 -25 -5 0 11 4 20 9 20
10 0 51 65 51 80 0 5 -6 7 -14 4 -24 -9 -38 218 -34 583 2 183 0 329 -3 325
-12 -13 -30 -327 -38 -649 -4 -178 -10 -326 -14 -330 -4 -3 -7 16 -7 43 0 53
-26 391 -36 464 -3 25 -15 85 -26 135 -24 104 -26 102 -57 -59 -19 -94 -29
-201 -49 -496 l-6 -95 -12 97 c-7 54 -20 113 -28 130 -13 28 -16 96 -18 423
l-3 390 -18 -220z m192 -335 l3 45 10 -50 c12 -64 15 -409 4 -540 -7 -82 -5
-105 7 -129 16 -30 14 -51 -4 -40 -5 3 -16 0 -24 -6 -13 -11 -15 41 -13 406 1
231 4 385 8 344 5 -61 7 -67 9 -30z m-149 -497 c0 -5 -5 -15 -10 -23 -8 -12
-10 -11 -10 8 0 12 5 22 10 22 6 0 10 -3 10 -7z m187 -45 c-3 -7 -5 -2 -5 12
0 14 2 19 5 13 2 -7 2 -19 0 -25z m0 -65 c-3 -10 -5 -4 -5 12 0 17 2 24 5 18
2 -7 2 -21 0 -30z m-243 -45 c15 -171 15 -189 1 -178 -19 16 -55 92 -55 117 0
11 -7 26 -15 33 -21 18 -19 37 10 65 40 41 53 33 59 -37z m433 27 c15 -31 15
-36 1 -52 -9 -10 -19 -34 -23 -53 -6 -30 -41 -100 -49 -100 -3 0 -2 75 3 213
1 22 6 27 26 27 19 0 29 -9 42 -35z m-129 0 c-3 -3 -9 2 -12 12 -6 14 -5 15 5
6 7 -7 10 -15 7 -18z m-175 -121 c27 -12 34 -34 10 -29 -74 15 -73 14 -73 46
0 17 5 40 12 52 12 21 13 20 21 -19 6 -25 17 -44 30 -50z m163 52 c12 -49 2
-71 -36 -74 -19 -2 -41 -10 -47 -19 -19 -24 -16 -7 3 22 9 14 22 25 29 25 7 0
16 16 19 35 8 40 23 46 32 11z m-387 -72 c15 -41 6 -58 -15 -30 -15 21 -19 66
-6 66 4 0 14 -16 21 -36z m428 4 c-3 -7 -5 -2 -5 12 0 14 2 19 5 13 2 -7 2
-19 0 -25z m153 18 c0 -24 -19 -66 -30 -66 -13 0 -13 21 0 54 10 28 30 35 30
12z m-440 -6 c0 -5 -4 -10 -10 -10 -5 0 -10 5 -10 10 0 6 5 10 10 10 6 0 10
-4 10 -10z m37 -154 c-6 -17 -37 50 -36 76 0 17 5 12 20 -21 11 -24 18 -49 16
-55z m105 85 c7 11 8 9 4 -4 -3 -10 -6 -28 -7 -40 0 -21 -1 -21 -9 -2 -5 11
-9 29 -9 40 1 12 3 15 6 6 5 -11 7 -11 15 0z m128 -24 c0 -24 -25 -66 -33 -57
-5 5 22 80 29 80 2 0 4 -10 4 -23z m-342 -58 c-18 -11 -32 6 -24 28 7 17 8 17
22 -1 11 -16 11 -21 2 -27z m442 21 c0 -11 -7 -20 -15 -20 -15 0 -21 21 -8 33
12 13 23 7 23 -13z m-521 -98 c1 -20 -3 -31 -9 -27 -5 3 -10 30 -9 58 1 41 3
47 9 27 4 -14 8 -40 9 -58z m140 42 c11 -15 18 -30 15 -35 -7 -12 -40 6 -48
27 -16 41 3 46 33 8z m331 6 c0 -16 -26 -40 -44 -40 -12 0 -6 24 11 42 21 23
33 23 33 -2z m-240 -36 c0 -8 -4 -12 -10 -9 -5 3 -10 13 -10 21 0 8 5 12 10 9
6 -3 10 -13 10 -21z m121 -17 c-8 -8 -11 -5 -11 9 0 27 14 41 18 19 2 -9 -1
-22 -7 -28z m-225 -82 c-5 -23 -2 -45 9 -65 27 -53 47 -32 38 39 -4 25 -2 41
5 41 6 0 17 3 26 6 9 3 16 1 16 -5 0 -6 -6 -11 -14 -11 -17 0 -29 -31 -20 -53
3 -9 15 -17 27 -19 16 -2 22 -10 22 -28 0 -21 -4 -25 -27 -22 -14 2 -29 -2
-33 -7 -7 -13 -36 12 -54 46 -12 24 -15 96 -4 106 13 14 15 6 9 -28z m329 -61
c-4 -30 -12 -45 -26 -49 -10 -4 -19 -11 -19 -18 0 -8 -3 -8 -12 1 -7 7 -25 12
-41 12 -24 0 -28 4 -25 23 2 14 11 23 25 25 12 2 24 9 26 17 8 20 -4 55 -19
55 -8 0 -14 5 -14 11 0 6 7 8 16 5 9 -3 20 -6 26 -6 7 0 9 -16 5 -43 -3 -23
-2 -49 4 -57 16 -24 51 25 49 69 -2 48 2 63 7 27 3 -17 2 -49 -2 -72z m-376
24 c15 -63 13 -83 -3 -31 -23 70 -28 99 -18 88 5 -5 14 -31 21 -57z m428 0
c-3 -8 -6 -5 -6 6 -1 11 2 17 5 13 3 -3 4 -12 1 -19z m122 -19 c-5 -10 -14
-21 -19 -24 -13 -8 -13 21 1 47 9 16 13 18 19 7 5 -7 4 -21 -1 -30z m-140 -43
c-9 -8 -10 -7 -5 7 3 10 7 24 7 30 1 7 3 4 6 -7 3 -10 -1 -23 -8 -30z m-509
12 c0 -16 -3 -19 -11 -11 -6 6 -8 16 -5 22 11 17 16 13 16 -11z m700 -25 c0
-14 -19 -38 -25 -32 -8 8 5 39 16 39 5 0 9 -3 9 -7z m-746 -59 c8 -22 -4 -40
-15 -23 -11 18 -11 39 0 39 5 0 12 -7 15 -16z m826 -108 c0 -5 -9 3 -20 17
-11 14 -20 33 -20 44 1 12 7 7 20 -17 11 -19 19 -39 20 -44z m-798 -58 c5
-105 4 -115 -16 -139 -11 -15 -70 -93 -130 -173 -60 -81 -111 -145 -113 -143
-2 2 48 109 112 238 96 196 115 241 115 280 0 45 6 62 20 54 4 -2 10 -55 12
-117z m697 61 c5 -28 14 -38 49 -54 41 -19 44 -23 67 -100 13 -44 31 -105 39
-135 8 -30 24 -88 36 -129 11 -40 19 -78 18 -82 -2 -5 -61 104 -131 243 -116
231 -140 292 -120 312 11 11 35 -20 42 -55z m-810 14 c-11 -13 -11 -17 -1 -20
14 -5 16 -23 3 -23 -12 0 -24 37 -16 50 3 5 11 10 17 10 6 0 5 -7 -3 -17z
m451 -89 c-8 -21 -13 -25 -19 -15 -5 8 -2 20 8 31 21 22 24 19 11 -16z m-175
-35 c6 -36 -1 -64 -56 -210 -35 -93 -65 -167 -66 -165 -7 6 99 416 107 416 5
0 11 -19 15 -41z m188 -324 l-20 -220 -1 265 -1 265 21 -45 20 -45 -19 -220z
m67 208 c0 -23 -30 -196 -45 -258 l-14 -60 7 105 c9 131 8 237 -2 270 -7 23
-4 22 23 -10 17 -19 31 -40 31 -47z m207 -305 c-3 -8 -6 -5 -6 6 -1 11 2 17 5
13 3 -3 4 -12 1 -19z m-270 -40 c-3 -8 -6 -5 -6 6 -1 11 2 17 5 13 3 -3 4 -12
1 -19z"/>
<path d="M1264 2150 c0 -80 2 -112 3 -72 2 39 2 105 0 145 -1 39 -3 7 -3 -73z"/>
<path d="M1526 2892 c-9 -15 -46 -230 -61 -357 -14 -115 -32 -487 -28 -570 1
-25 8 -44 19 -50 9 -5 27 -20 40 -32 30 -30 42 -29 87 11 l39 33 -1 159 c-2
181 -16 387 -37 519 -13 87 -13 88 -9 20 3 -38 10 -113 15 -165 5 -52 12 -188
16 -301 l7 -206 -35 -26 c-19 -15 -38 -27 -42 -27 -4 0 -6 225 -4 500 2 275 2
500 1 500 -1 0 -4 -4 -7 -8z"/>
<path d="M1541 2834 c0 -11 3 -14 6 -6 3 7 2 16 -1 19 -3 4 -6 -2 -5 -13z"/>
<path d="M1392 2800 c0 -14 2 -19 5 -12 2 6 2 18 0 25 -3 6 -5 1 -5 -13z"/>
<path d="M1552 2780 c0 -14 4 -38 8 -55 7 -27 8 -27 8 -5 0 14 -4 39 -8 55 -7
27 -8 27 -8 5z"/>
<path d="M1103 2700 c0 -25 2 -35 4 -22 2 12 2 32 0 45 -2 12 -4 2 -4 -23z"/>
<path d="M1403 2700 c0 -25 2 -35 4 -22 2 12 2 32 0 45 -2 12 -4 2 -4 -23z"/>
<path d="M1113 2560 c0 -36 2 -50 4 -32 2 17 2 47 0 65 -2 17 -4 3 -4 -33z"/>
<path d="M1413 2555 c0 -33 2 -45 4 -27 2 18 2 45 0 60 -2 15 -4 0 -4 -33z"/>
<path d="M1124 2310 c0 -63 1 -89 3 -57 2 31 2 83 0 115 -2 31 -3 5 -3 -58z"/>
<path d="M1424 2275 c0 -77 2 -107 3 -67 2 40 2 103 0 140 -2 37 -3 4 -3 -73z"/>
<path d="M1553 1405 c0 -33 2 -45 4 -27 2 18 2 45 0 60 -2 15 -4 0 -4 -33z"/>
</g>
</svg>
