<?xml version="1.0" standalone="no"?>
<!DOCTYPE svg PUBLIC "-//W3C//DTD SVG 20010904//EN"
 "http://www.w3.org/TR/2001/REC-SVG-20010904/DTD/svg10.dtd">
<svg version="1.0" xmlns="http://www.w3.org/2000/svg"
 width="244.000000pt" height="305.000000pt" viewBox="0 0 244.000000 305.000000"
 preserveAspectRatio="xMidYMid meet">
<metadata>
Created by potrace 1.16, written by Peter Selinger 2001-2019
</metadata>
<g transform="translate(0.000000,305.000000) scale(0.100000,-0.100000)"
fill="#000000" stroke="none">
<path d="M885 2888 c-4 -14 -3 -34 2 -45 11 -21 11 -928 1 -938 -4 -4 -25 8
-48 26 l-41 33 2 106 c2 142 16 341 35 480 25 183 27 205 21 200 -12 -11 -48
-265 -57 -403 -10 -161 -16 -414 -9 -421 2 -2 27 -20 56 -39 l52 -35 21 23
c12 13 36 29 53 36 l30 13 -7 210 c-3 116 -11 261 -17 321 -10 113 -50 335
-73 415 -13 43 -14 44 -21 18z"/>
<path d="M1192 2885 c0 -16 2 -22 5 -12 2 9 2 23 0 30 -3 6 -5 -1 -5 -18z"/>
<path d="M1578 2404 c2 -321 0 -504 -7 -504 -5 0 -28 12 -51 27 l-41 27 6 191
c7 200 25 401 51 549 16 96 13 131 -5 44 -24 -120 -42 -269 -51 -436 -13 -235
-13 -227 -11 -309 1 -59 4 -73 19 -77 9 -4 32 -20 51 -36 l34 -31 26 24 c14
12 39 29 55 37 l29 15 -6 215 c-4 118 -14 276 -22 350 -16 134 -56 355 -72
397 -4 12 -7 -205 -5 -483z"/>
<path d="M1271 2675 l-3 -180 -17 55 -18 55 -16 -57 c-9 -31 -18 -64 -19 -75
0 -10 -4 2 -8 27 l-7 45 -2 -60 c-1 -33 -8 -136 -16 -230 -8 -93 -15 -218 -15
-277 0 -108 -14 -151 -25 -81 -33 197 -48 244 -59 192 -37 -173 -36 -198 8
-226 40 -26 54 -70 36 -114 -12 -29 -42 -39 -55 -19 -3 6 -13 10 -22 10 -12 0
-14 -6 -8 -27 15 -62 61 -81 89 -38 24 37 37 31 30 -14 -6 -36 -4 -40 22 -53
18 -8 30 -23 32 -38 3 -20 2 -22 -11 -12 -28 24 -72 30 -105 16 -18 -7 -32
-17 -32 -22 0 -11 24 -22 49 -22 28 0 51 -33 51 -73 l0 -37 -48 34 c-73 53
-132 132 -132 178 0 13 -9 31 -20 41 -27 23 -25 33 10 69 28 27 36 30 75 25
43 -4 45 -3 45 22 -1 34 -20 59 -58 72 -43 15 -82 -6 -106 -55 -17 -36 -21
-38 -30 -22 -41 70 -83 93 -138 74 -31 -11 -48 -35 -48 -67 0 -17 6 -21 36
-21 52 0 84 -20 114 -71 7 -12 4 -23 -10 -39 -11 -13 -20 -31 -20 -40 0 -41
34 -120 75 -175 25 -33 45 -61 45 -62 0 -1 -18 -23 -40 -48 -46 -53 -50 -82
-17 -113 52 -49 119 -34 97 22 -13 35 -13 69 1 83 8 8 29 5 75 -10 53 -18 68
-19 84 -9 17 10 20 10 20 -4 0 -8 -4 -13 -9 -10 -16 10 -33 -22 -26 -52 3 -16
1 -49 -5 -73 -6 -24 -11 -57 -11 -74 1 -26 -1 -28 -10 -12 -6 11 -11 34 -12
53 -1 33 -2 34 -40 34 -21 0 -55 -7 -73 -16 -44 -21 -70 -11 -110 42 -22 28
-30 50 -31 88 -3 75 -14 139 -25 154 -14 17 -63 15 -82 -4 -37 -36 -28 -102
24 -179 15 -22 46 -72 69 -112 58 -102 55 -123 -57 -311 -48 -81 -112 -189
-142 -241 -30 -52 -56 -89 -57 -84 -3 9 59 212 115 373 18 51 22 55 65 69 41
13 48 19 57 50 24 88 10 136 -71 232 -73 87 -87 160 -44 219 14 19 25 42 25
52 0 36 -96 51 -138 22 -28 -19 -29 -61 -1 -133 23 -62 19 -115 -11 -154 -17
-21 -105 -75 -260 -160 -30 -17 -67 -39 -83 -49 -15 -11 -32 -18 -38 -16 -7 2
52 62 130 132 l142 129 46 -7 45 -6 -7 98 c-10 133 -27 156 -22 29 l3 -97 -33
6 c-30 6 -40 0 -130 -82 -203 -182 -283 -257 -279 -262 5 -4 52 10 329 100
142 46 157 54 157 74 0 32 14 37 58 23 61 -20 101 -51 123 -97 24 -49 17 -66
-31 -75 -28 -6 -31 -13 -80 -169 -29 -90 -69 -217 -90 -283 -21 -66 -36 -122
-33 -125 3 -3 16 9 30 25 14 17 92 102 173 190 218 236 206 219 192 269 -6 22
-7 45 -2 50 4 4 48 6 97 5 80 -4 94 -7 126 -32 20 -15 37 -33 37 -40 0 -6 -14
-26 -32 -44 l-32 -33 27 -127 c15 -71 27 -144 27 -164 0 -19 4 -39 9 -45 5 -5
24 -79 42 -164 23 -110 35 -147 39 -130 4 14 20 89 35 167 16 78 32 140 37
137 4 -3 8 14 8 38 0 24 5 61 10 84 5 22 16 79 24 125 l15 84 -32 33 c-35 36
-33 49 17 86 22 17 46 22 118 25 49 1 94 -1 98 -5 5 -5 4 -28 -2 -51 -11 -40
-10 -43 24 -85 20 -25 51 -60 70 -79 18 -19 71 -76 118 -128 141 -156 180
-196 180 -182 0 7 -39 136 -87 286 l-86 273 -39 11 c-41 13 -43 16 -27 58 16
45 68 91 121 109 54 17 68 13 68 -20 0 -21 14 -28 163 -76 89 -29 195 -63 234
-77 40 -14 78 -23 83 -21 6 2 -46 55 -117 118 -70 63 -149 134 -175 159 -70
65 -85 73 -118 66 l-29 -6 6 90 c7 110 -11 127 -21 20 -3 -39 -11 -79 -16 -89
-24 -44 -13 -64 63 -110 222 -135 328 -202 325 -206 -2 -2 -62 17 -134 42 -71
25 -155 55 -187 66 -57 20 -57 20 -51 52 5 28 1 38 -25 64 -38 37 -41 88 -11
184 25 79 25 93 0 118 -28 28 -102 28 -130 0 l-21 -21 31 -44 c47 -68 36 -128
-40 -222 -64 -79 -89 -132 -96 -201 -6 -57 -5 -60 55 -166 33 -59 61 -109 61
-111 0 -2 32 -58 71 -125 39 -67 69 -124 66 -126 -3 -3 -47 43 -99 102 -51 59
-119 137 -151 173 -51 58 -57 70 -51 96 4 17 8 64 9 107 3 85 19 125 105 263
41 66 50 88 50 127 0 37 -5 50 -22 62 -27 19 -62 21 -75 4 -13 -16 -25 -86
-27 -154 -1 -39 -8 -59 -29 -88 -39 -50 -72 -62 -115 -42 -18 9 -51 16 -72 16
-40 0 -40 0 -40 -39 0 -22 -5 -43 -12 -47 -7 -5 -8 -3 -4 5 9 14 -13 73 -24
66 -5 -3 -11 9 -15 26 -6 24 -3 34 9 41 19 11 21 49 4 66 -9 9 -8 12 8 12 10
1 44 9 74 20 48 16 57 17 69 5 13 -13 13 -22 2 -66 -11 -43 -11 -53 0 -60 20
-14 70 -2 96 23 36 34 34 41 -42 145 -15 20 -14 24 21 70 71 92 98 198 59 227
-42 31 35 110 102 104 30 -2 38 1 41 16 8 41 -38 86 -88 86 -23 0 -90 -56 -90
-75 0 -29 -20 -24 -36 10 -19 42 -65 69 -100 61 -36 -9 -64 -42 -64 -76 0 -29
0 -30 44 -24 39 6 48 3 70 -19 29 -29 34 -72 11 -81 -8 -3 -15 -18 -15 -33 0
-50 -82 -153 -149 -188 l-31 -16 0 34 c0 37 25 67 56 67 33 0 50 16 36 33 -21
25 -64 27 -100 6 -30 -17 -33 -17 -39 -2 -4 10 4 25 24 42 24 21 29 32 27 59
-4 38 8 41 30 7 9 -14 25 -25 36 -25 23 0 50 36 50 68 0 19 -4 23 -17 17 -37
-16 -56 -10 -66 18 -16 48 -1 93 38 116 39 23 40 27 24 134 -11 75 -23 107
-34 95 -4 -4 -16 -61 -28 -127 -11 -66 -23 -118 -27 -116 -4 2 -10 89 -14 192
-4 103 -12 220 -17 258 -6 39 -14 178 -18 310 l-8 240 -2 -180z m-42 -402 c-1
-164 -5 -240 -9 -208 -16 97 -10 465 6 465 2 0 3 -116 3 -257z m-26 -168 c3
-127 7 -241 11 -255 5 -20 5 -21 -3 -5 -7 17 -10 14 -14 -20 -2 -22 -3 -13 -2
20 1 33 0 50 -2 38 -2 -13 -9 -23 -15 -23 -7 0 -8 -18 -3 -57 11 -85 11 -158
0 -158 -10 0 -12 223 -5 425 l4 95 6 -130 c5 -119 6 -112 8 89 1 121 4 217 6
215 3 -2 7 -108 9 -234z m13 -392 c0 -32 3 -71 7 -87 7 -26 6 -28 -7 -17 -22
19 -22 161 0 161 1 0 1 -26 0 -57z m-287 -146 c35 -74 143 -171 201 -180 29
-5 41 -37 13 -37 -35 0 -123 49 -167 93 -50 51 -86 114 -86 152 0 38 12 30 39
-28z m651 30 c0 -66 -95 -182 -180 -219 -96 -42 -90 -43 -89 5 1 24 4 32 6 19
4 -18 9 -22 26 -16 63 18 171 121 202 192 21 46 35 54 35 19z m-323 -79 c-3
-8 -6 -5 -6 6 -1 11 2 17 5 13 3 -3 4 -12 1 -19z m-40 -10 c-3 -8 -6 -5 -6 6
-1 11 2 17 5 13 3 -3 4 -12 1 -19z m20 -25 c-3 -10 -5 -4 -5 12 0 17 2 24 5
18 2 -7 2 -21 0 -30z m-90 -320 c-3 -10 -5 -4 -5 12 0 17 2 24 5 18 2 -7 2
-21 0 -30z m27 -99 c3 -9 5 -32 5 -52 l-1 -37 -8 35 c-4 19 -11 43 -15 53 -4
9 -3 17 3 17 5 0 13 -7 16 -16z m141 -1 c-4 -10 -14 -38 -21 -63 l-14 -45 5
49 c3 27 5 55 5 62 0 8 7 14 16 14 11 0 14 -5 9 -17z m-95 -145 c0 -19 -2 -20
-10 -8 -13 19 -13 30 0 30 6 0 10 -10 10 -22z m17 -10 c-3 -7 -5 -2 -5 12 0
14 2 19 5 13 2 -7 2 -19 0 -25z m3 -38 c0 -5 -4 -12 -10 -15 -11 -7 -12 -235
-1 -385 3 -52 4 -113 1 -135 -4 -33 -14 1 -53 185 -48 228 -52 256 -41 284 14
37 24 11 24 -61 0 -43 5 -85 10 -93 7 -10 9 1 4 37 -8 65 5 178 17 148 6 -17
8 -15 8 11 1 17 4 33 7 37 8 7 34 -3 34 -13z"/>
<path d="M1182 745 c0 -16 2 -22 5 -12 2 9 2 23 0 30 -3 6 -5 -1 -5 -18z"/>
<path d="M862 2780 c0 -14 2 -19 5 -12 2 6 2 18 0 25 -3 6 -5 1 -5 -13z"/>
</g>
</svg>
