<?xml version="1.0" standalone="no"?>
<!DOCTYPE svg PUBLIC "-//W3C//DTD SVG 20010904//EN"
 "http://www.w3.org/TR/2001/REC-SVG-20010904/DTD/svg10.dtd">
<svg version="1.0" xmlns="http://www.w3.org/2000/svg"
 width="244.000000pt" height="305.000000pt" viewBox="0 0 244.000000 305.000000"
 preserveAspectRatio="xMidYMid meet">
<metadata>
Created by potrace 1.16, written by Peter Selinger 2001-2019
</metadata>
<g transform="translate(0.000000,305.000000) scale(0.100000,-0.100000)"
fill="#000000" stroke="none">
<path d="M1112 2885 c0 -16 2 -22 5 -12 2 9 2 23 0 30 -3 6 -5 -1 -5 -18z"/>
<path d="M1537 2889 c-10 -35 -8 -59 3 -34 5 12 9 -186 9 -467 1 -269 -1 -488
-4 -488 -3 0 -24 12 -47 27 l-41 28 7 205 c7 209 24 394 51 555 16 98 18 141
4 85 -38 -153 -69 -484 -69 -742 l0 -136 33 -21 c17 -11 39 -26 48 -32 12 -9
25 -5 63 22 l47 34 -5 250 c-3 145 -12 300 -21 368 -19 141 -50 313 -63 346
l-9 25 -6 -25z"/>
<path d="M926 2402 c2 -323 -1 -502 -7 -502 -6 0 -26 12 -45 28 l-34 27 0 105
c0 136 16 376 35 515 8 61 17 133 19 160 10 100 -22 -73 -39 -210 -15 -127
-34 -533 -26 -587 2 -16 9 -28 15 -28 6 0 27 -13 46 -29 l35 -29 32 28 c17 16
40 33 49 38 17 10 17 26 6 304 -7 161 -16 316 -21 343 -5 28 -17 95 -25 150
-40 246 -43 222 -40 -313z"/>
<path d="M1351 2870 c-1 -14 -2 -223 -2 -465 0 -394 -6 -514 -22 -465 -3 8
-12 106 -21 217 -14 178 -36 322 -64 418 -8 27 -11 22 -29 -60 -31 -134 -35
-157 -47 -315 l-12 -145 -8 295 c-13 482 -23 523 -24 103 -2 -349 -7 -414 -28
-350 -7 20 -8 19 -16 -13 -4 -19 -10 -78 -13 -130 l-5 -95 -37 -3 c-45 -3 -79
-33 -89 -75 l-6 -31 -20 39 c-26 52 -44 65 -88 65 -37 0 -61 -17 -73 -52 -12
-34 2 -49 39 -42 29 5 38 2 69 -29 38 -38 43 -58 20 -77 -33 -28 -6 -141 54
-222 37 -50 38 -57 10 -89 -11 -13 -27 -36 -35 -52 -13 -24 -13 -31 2 -62 21
-46 8 -67 -18 -27 -14 22 -20 55 -24 123 -2 51 -9 99 -16 106 -16 19 -62 16
-83 -7 -29 -32 -15 -94 49 -210 57 -104 65 -138 43 -177 -11 -19 -12 -15 -12
36 -1 54 -4 62 -54 130 -85 114 -99 175 -56 239 32 46 32 66 0 80 -43 20 -92
15 -109 -10 -21 -29 -20 -50 5 -128 26 -84 14 -137 -40 -178 -71 -54 -331
-216 -337 -209 -2 2 57 64 132 137 136 132 137 132 175 126 l39 -6 0 58 c0 81
-11 153 -22 146 -5 -3 -6 -42 -2 -90 l7 -84 -31 6 c-28 6 -40 -4 -204 -164
-95 -94 -170 -173 -167 -176 3 -3 27 3 55 13 27 10 124 44 216 76 155 53 168
59 168 81 0 33 18 38 66 18 65 -27 114 -84 114 -134 0 -15 -8 -22 -30 -27 -35
-7 -42 -17 -63 -93 -8 -30 -27 -95 -42 -145 -24 -79 -78 -273 -92 -330 -6 -25
-8 -26 187 207 189 225 192 229 181 242 -5 6 -12 26 -16 43 l-7 33 51 0 c62 0
66 -1 64 -18 0 -8 -3 -51 -6 -95 l-6 -82 14 95 c7 52 14 96 14 98 2 6 31 1 36
-8 3 -5 -3 -46 -14 -92 -11 -46 -30 -137 -42 -203 -17 -91 -25 -114 -30 -95
-6 20 -8 16 -8 -20 -1 -25 -3 -63 -6 -85 -5 -44 17 18 79 218 18 59 37 108 42
108 5 0 14 -31 21 -68 7 -37 33 -178 59 -312 l48 -244 58 289 c66 333 69 370
33 404 -14 13 -25 29 -25 35 0 6 11 22 25 35 l25 23 0 -49 c0 -32 20 -113 61
-239 69 -219 79 -246 73 -195 -11 82 -54 473 -54 487 0 11 13 13 58 11 62 -3
61 -1 47 -73 -5 -24 1 -38 28 -70 19 -22 105 -125 191 -228 86 -104 156 -187
156 -184 0 6 -126 444 -150 520 -19 60 -24 68 -51 74 -37 7 -42 16 -34 53 9
39 58 88 113 111 49 21 62 18 62 -15 0 -26 -12 -21 288 -125 94 -33 172 -58
172 -55 0 2 -80 83 -177 179 -168 165 -180 175 -209 170 l-32 -5 6 91 c4 68 2
90 -7 85 -6 -4 -11 -26 -11 -49 0 -24 -7 -69 -15 -102 -9 -32 -14 -62 -13 -66
2 -4 71 -52 154 -107 181 -118 216 -143 212 -148 -5 -5 -335 120 -346 130 -1
2 2 16 8 31 9 24 7 30 -20 55 -27 25 -30 34 -30 88 0 33 7 79 15 102 35 98 8
147 -76 141 -9 0 -27 -9 -40 -20 l-23 -18 27 -46 c45 -76 34 -131 -45 -239
-27 -36 -57 -90 -67 -120 -16 -46 -19 -50 -25 -30 -6 18 7 49 54 135 69 125
83 181 56 222 -14 21 -24 25 -48 23 -30 -3 -32 -6 -45 -68 -7 -36 -11 -78 -8
-94 5 -27 -29 -106 -45 -106 -17 0 -17 15 2 45 23 40 19 58 -22 110 -37 46
-37 52 -4 96 63 83 93 200 59 229 -23 19 -18 43 18 78 26 26 41 32 75 32 47 0
52 11 27 59 -34 67 -124 47 -156 -36 l-11 -28 -19 41 c-24 49 -52 64 -110 58
-41 -5 -43 -4 -25 10 18 15 19 22 8 143 -7 71 -17 256 -23 413 -10 275 -24
492 -28 440z m-122 -848 c1 -266 -2 -401 -9 -397 -6 4 -10 70 -11 163 -1 86
-4 146 -8 132 -5 -15 -10 30 -15 115 -6 127 -2 197 20 375 16 120 23 2 23
-388z m-82 -144 c-3 -7 -5 -2 -5 12 0 14 2 19 5 13 2 -7 2 -19 0 -25z m183 0
c0 -19 -2 -20 -10 -8 -13 19 -13 30 0 30 6 0 10 -10 10 -22z m-140 -89 c0 -38
-4 -69 -8 -69 -4 0 -8 33 -7 74 0 41 3 72 8 69 4 -2 7 -35 7 -74z m-74 57 c3
-8 4 -27 2 -43 -3 -25 -4 -24 -14 15 -10 38 -1 61 12 28z m259 -7 c-4 -6 -11
-23 -15 -37 -8 -25 -8 -24 -9 11 -1 27 3 37 15 37 8 0 12 -5 9 -11z m-304 -79
c10 -6 19 -17 19 -26 0 -12 -4 -13 -20 -4 -16 8 -22 8 -26 -4 -6 -17 22 -76
36 -76 13 0 13 -56 -1 -81 -8 -16 -7 -25 4 -37 8 -9 17 -30 21 -47 6 -29 4
-28 -40 20 -47 52 -74 100 -74 133 0 11 -7 25 -15 32 -22 18 -18 43 10 74 25
27 54 33 86 16z m414 -15 c28 -27 32 -57 11 -74 -7 -6 -16 -29 -20 -50 -4 -27
-22 -59 -57 -101 -28 -33 -54 -59 -56 -56 -12 11 10 66 28 71 19 6 19 8 5 24
-23 25 -20 83 4 103 21 18 37 65 26 76 -4 3 -16 1 -26 -6 -17 -10 -20 -10 -20
3 0 16 32 33 63 34 10 1 29 -10 42 -24z m-309 -135 c29 -11 31 -26 5 -33 -30
-8 -41 13 -39 73 1 50 2 51 5 12 3 -35 9 -45 29 -52z m141 -27 c-14 -14 -47
-8 -47 8 0 5 11 14 25 19 21 8 25 17 27 52 2 39 2 38 5 -11 3 -37 0 -59 -10
-68z m-119 52 c-2 -9 -8 -12 -16 -6 -12 7 -12 12 0 30 10 17 14 18 16 6 2 -8
2 -22 0 -30z m-239 -79 c32 -65 37 -86 23 -86 -14 0 -62 96 -62 124 0 14 2 26
4 26 2 0 17 -29 35 -64z m158 32 c-3 -7 -5 -2 -5 12 0 14 2 19 5 13 2 -7 2
-19 0 -25z m433 7 c0 -30 -41 -115 -64 -134 -28 -23 -19 23 14 76 17 26 30 55
30 65 0 10 5 18 10 18 6 0 10 -11 10 -25z m-309 -97 c-6 -23 -9 -27 -10 -11
-1 12 -4 29 -8 39 -4 12 -3 15 5 10 7 -4 12 -1 13 6 0 9 2 9 5 1 3 -6 1 -26
-5 -45z m-83 -44 c13 -36 21 -68 19 -70 -5 -5 -57 109 -57 125 0 29 17 5 38
-55z m162 -19 c-29 -68 -34 -51 -7 26 14 40 23 56 25 43 2 -11 -6 -42 -18 -69z
m-270 -6 c0 -11 -4 -18 -10 -14 -5 3 -7 12 -3 20 7 21 13 19 13 -6z m380 -10
c0 -11 -4 -17 -10 -14 -5 3 -10 13 -10 21 0 8 5 14 10 14 6 0 10 -9 10 -21z
m-62 -50 c-19 -13 -28 -11 -28 6 0 21 34 38 38 18 2 -9 -2 -19 -10 -24z m-254
25 c9 -3 16 -13 16 -21 0 -20 -34 -12 -38 10 -4 19 -1 20 22 11z m353 -116
c-2 -13 -4 -3 -4 22 0 25 2 35 4 23 2 -13 2 -33 0 -45z m-403 -22 c9 -38 14
-71 12 -73 -7 -7 -36 96 -36 125 0 38 7 24 24 -52z m-54 39 c0 -8 -4 -17 -10
-20 -6 -4 -10 5 -10 20 0 15 4 24 10 20 6 -3 10 -12 10 -20z m161 2 c-13 -13
-26 -3 -16 12 3 6 11 8 17 5 6 -4 6 -10 -1 -17z m146 -3 c-9 -9 -28 6 -21 18
4 6 10 6 17 -1 6 -6 8 -13 4 -17z m106 -6 c-3 -18 -12 -50 -20 -73 l-13 -40 6
49 c6 50 20 96 29 96 2 0 2 -14 -2 -32z m-300 -86 c9 -11 13 -11 23 3 16 22
44 12 44 -15 0 -13 -7 -20 -18 -20 -10 0 -23 -5 -29 -11 -6 -6 -16 -9 -21 -5
-12 7 -32 87 -31 123 1 21 3 17 11 -17 6 -25 15 -51 21 -58z m249 51 c-1 -30
-15 -83 -27 -101 -6 -8 -65 32 -65 44 0 23 29 29 44 8 13 -17 14 -17 25 4 6
11 11 37 11 58 0 21 3 34 7 31 3 -4 6 -24 5 -44z m-406 -64 c10 -17 -23 -46
-37 -32 -7 7 -9 19 -6 27 7 18 33 21 43 5z m544 -30 c0 -11 -7 -19 -15 -19
-10 0 -15 10 -15 31 0 27 2 30 15 19 8 -7 15 -21 15 -31z m-639 -140 c-25 -41
-27 -32 -5 19 9 20 18 32 21 26 2 -7 -5 -27 -16 -45z m725 -37 c6 -10 55 -103
109 -207 54 -105 109 -209 122 -233 14 -24 23 -46 20 -48 -2 -3 -68 75 -146
173 -131 164 -141 180 -135 208 4 17 8 51 8 78 0 51 5 57 22 29z m-777 -119
c-35 -65 -80 -149 -101 -188 -21 -38 -49 -92 -63 -118 -15 -27 -29 -47 -32
-44 -2 3 15 72 40 154 25 81 53 174 62 206 14 51 20 60 52 73 24 11 38 12 42
5 4 -7 16 -2 31 13 14 13 27 22 28 21 2 -2 -25 -57 -59 -122z m431 81 c0 -14
-14 -33 -21 -28 -15 9 -10 31 6 31 8 0 15 -1 15 -3z m169 -194 c17 -91 34
-176 38 -190 3 -14 3 -22 0 -19 -14 11 -97 304 -97 339 0 38 9 56 20 43 4 -5
21 -82 39 -173z m-249 115 c0 -6 -11 -22 -24 -34 l-24 -23 -3 52 c-2 28 -2 54
0 56 7 6 51 -38 51 -51z m58 -237 c-1 -154 -4 -226 -8 -183 -6 70 -6 70 -8 16
-2 -67 -8 -63 -21 14 -5 33 -21 114 -35 180 -26 128 -26 133 22 186 19 22 28
26 34 17 5 -10 8 -8 8 5 0 9 2 17 5 17 3 0 4 -114 3 -252z"/>
<path d="M1213 2300 c0 -47 2 -66 4 -42 2 23 2 61 0 85 -2 23 -4 4 -4 -43z"/>
<path d="M1196 825 c-3 -9 -5 -51 -4 -93 l1 -77 6 90 c7 97 7 104 -3 80z"/>
<path d="M1203 590 c0 -30 2 -43 4 -27 2 15 2 39 0 55 -2 15 -4 2 -4 -28z"/>
<path d="M1101 2804 c0 -11 3 -14 6 -6 3 7 2 16 -1 19 -3 4 -6 -2 -5 -13z"/>
<path d="M1333 2655 c0 -22 2 -30 4 -17 2 12 2 30 0 40 -3 9 -5 -1 -4 -23z"/>
<path d="M1093 2620 c0 -25 2 -35 4 -22 2 12 2 32 0 45 -2 12 -4 2 -4 -23z"/>
<path d="M1323 2405 c0 -38 2 -53 4 -32 2 20 2 52 0 70 -2 17 -4 1 -4 -38z"/>
<path d="M1084 2340 c0 -69 1 -97 3 -62 2 34 2 90 0 125 -2 34 -3 6 -3 -63z"/>
<path d="M1013 695 c0 -22 2 -30 4 -17 2 12 2 30 0 40 -3 9 -5 -1 -4 -23z"/>
<path d="M1003 615 c0 -22 2 -30 4 -17 2 12 2 30 0 40 -3 9 -5 -1 -4 -23z"/>
</g>
</svg>
