<?xml version="1.0" standalone="no"?>
<!DOCTYPE svg PUBLIC "-//W3C//DTD SVG 20010904//EN"
 "http://www.w3.org/TR/2001/REC-SVG-20010904/DTD/svg10.dtd">
<svg version="1.0" xmlns="http://www.w3.org/2000/svg"
 width="244.000000pt" height="305.000000pt" viewBox="0 0 244.000000 305.000000"
 preserveAspectRatio="xMidYMid meet">
<metadata>
Created by potrace 1.16, written by Peter Selinger 2001-2019
</metadata>
<g transform="translate(0.000000,305.000000) scale(0.100000,-0.100000)"
fill="#000000" stroke="none">
<path d="M947 2890 c-40 -166 -66 -407 -75 -714 l-7 -249 25 -16 c55 -35 59
-77 5 -53 -14 7 -33 12 -41 12 -24 0 -64 -47 -64 -75 0 -22 4 -25 39 -25 32 0
44 -6 65 -31 29 -35 34 -74 10 -83 -14 -5 -15 -15 -10 -58 4 -28 16 -69 27
-90 16 -31 18 -43 8 -54 -6 -7 -17 -31 -25 -51 l-13 -38 -1 39 c0 22 5 54 12
72 9 27 9 35 -5 48 -20 21 -63 21 -75 0 -9 -16 -11 -16 -33 0 -13 9 -40 16
-60 16 -28 0 -39 -5 -49 -25 -12 -22 -11 -38 4 -115 21 -102 17 -167 -12 -190
-10 -9 -22 -29 -26 -45 -4 -17 -15 -38 -23 -47 -16 -18 -93 -57 -163 -83 -19
-7 -52 -21 -73 -30 -22 -9 -36 -12 -33 -7 3 5 78 62 166 128 l162 119 -7 40
c-4 22 -12 76 -19 120 -15 88 -18 80 -16 -37 l1 -76 -28 1 c-23 2 -43 -14
-118 -93 -91 -97 -184 -198 -220 -240 l-20 -23 25 8 c14 4 85 31 158 60 72 29
132 49 132 46 0 -4 -11 -23 -25 -43 -14 -20 -25 -41 -25 -47 0 -5 53 19 118
54 154 83 166 86 186 46 25 -46 21 -70 -13 -82 -36 -13 -31 -1 -110 -309 -34
-129 -63 -245 -67 -258 -3 -12 -4 -22 0 -22 3 0 44 52 92 116 47 64 87 114 90
112 4 -4 -10 -84 -32 -188 -7 -32 6 -19 39 40 13 25 50 88 80 140 122 208 136
239 126 273 -5 18 -9 38 -9 44 0 20 71 15 107 -7 45 -27 52 -62 20 -100 -14
-16 -23 -37 -21 -47 2 -10 26 -155 54 -322 44 -264 59 -343 60 -305 0 5 25
151 54 324 50 294 53 317 38 340 -9 14 -22 31 -29 38 -30 31 48 92 117 92 l31
0 -6 -54 -7 -55 93 -163 c51 -90 105 -183 120 -206 15 -24 30 -49 32 -55 2 -7
7 -10 10 -7 3 3 -4 46 -14 95 -11 50 -18 97 -17 105 2 8 36 -29 76 -82 76
-101 98 -124 88 -92 -4 16 -93 359 -112 434 -22 91 -36 118 -61 125 -23 5 -25
9 -20 46 10 77 13 77 185 -11 85 -44 156 -79 158 -77 2 1 -10 23 -26 47 -20
30 -26 46 -17 48 10 2 82 -23 194 -69 36 -14 55 -6 31 14 -8 6 -55 59 -105
117 -134 155 -186 203 -211 196 -28 -9 -31 -1 -20 82 5 47 5 79 -1 90 -9 15
-10 13 -11 -8 0 -14 -3 -64 -7 -112 l-6 -87 36 6 c31 5 40 1 69 -28 72 -73
209 -229 200 -229 -9 0 -232 147 -242 160 -3 3 -19 16 -36 28 -60 41 -79 118
-49 202 8 23 15 57 15 75 0 54 -51 81 -102 54 -14 -8 -23 -8 -31 0 -6 6 -26
11 -44 11 -43 0 -56 -24 -41 -73 14 -45 6 -55 -22 -29 l-22 20 21 57 c24 64
27 122 6 149 -12 16 -12 23 -1 45 24 45 52 64 86 58 29 -6 30 -5 30 27 0 47
-29 70 -80 63 -22 -3 -42 -1 -45 3 -9 15 6 37 32 49 l26 12 -6 227 c-6 211
-25 439 -47 557 l-9 50 4 -60 c3 -33 11 -122 20 -198 8 -76 17 -228 21 -338
l6 -201 -33 -28 c-19 -16 -36 -29 -39 -30 -11 0 -13 922 -2 929 6 4 8 19 3 41
-9 41 -15 27 -27 -53 -10 -71 -21 -66 -29 13 -4 39 -10 72 -14 74 -3 2 -6 -91
-6 -207 0 -117 -4 -337 -9 -489 -9 -264 -10 -277 -28 -267 -16 9 -18 24 -20
132 -1 100 -3 111 -8 62 -4 -33 -8 -51 -9 -40 -2 17 -5 15 -16 -10 -13 -27
-14 -28 -15 -7 0 41 -20 13 -20 -29 0 -24 -4 -38 -10 -34 -5 3 -10 43 -10 89
0 139 -29 384 -57 480 -4 15 -7 16 -13 5 -19 -33 -52 -286 -57 -436 -3 -89
-10 -160 -15 -157 -4 3 -8 22 -8 42 0 44 -19 82 -21 42 0 -14 -3 -19 -6 -10
-2 8 -7 22 -9 30 -5 13 -6 13 -14 0 -7 -11 -10 -7 -10 15 -3 235 -51 787 -68
771 -2 -3 -5 -74 -4 -158 0 -129 -1 -144 -9 -93 -21 135 -33 198 -37 187 -2
-6 1 -36 7 -66 7 -38 7 -92 0 -168 -5 -62 -13 -180 -18 -263 -7 -130 -8 -103
-9 200 0 203 3 342 8 330 11 -25 11 0 0 35 l-7 25 -6 -25z m69 -656 c6 -268 5
-291 -11 -298 -9 -3 -22 -3 -27 1 -12 7 -4 516 9 628 l7 60 8 -50 c5 -27 11
-181 14 -341z m68 -350 c8 -22 5 -24 -21 -18 -13 4 -20 11 -16 20 7 19 29 18
37 -2z m340 0 c8 -20 8 -24 -1 -24 -17 0 -35 19 -29 29 10 16 23 14 30 -5z
m-420 -26 c-7 -10 -34 -10 -34 0 0 4 5 13 12 20 9 9 14 9 19 0 4 -7 5 -16 3
-20z m484 11 c-2 -6 -8 -10 -13 -10 -5 0 -11 4 -13 10 -2 6 4 11 13 11 9 0 15
-5 13 -11z m-358 -123 c0 -16 -52 -16 -57 1 -2 6 6 13 19 15 28 5 38 1 38 -16z
m274 6 c5 -3 1 -9 -8 -14 -21 -12 -56 -1 -56 18 0 11 7 13 28 8 15 -4 31 -9
36 -12z m10 -79 c-8 -12 -14 -35 -14 -50 0 -46 -14 -59 -45 -45 -14 7 -32 12
-40 12 -23 0 -54 -41 -66 -85 -11 -39 -12 -39 -21 -15 -31 80 -37 88 -67 95
-17 3 -39 1 -52 -5 -27 -15 -39 0 -39 47 0 17 -4 35 -10 38 -5 3 -10 18 -10
33 1 26 1 26 18 -8 16 -31 22 -35 55 -34 29 1 37 -2 37 -16 0 -10 11 -25 24
-33 13 -9 30 -33 37 -54 l12 -38 19 44 c10 25 26 45 38 48 13 3 20 14 20 29 0
21 3 23 30 18 37 -8 56 7 66 49 6 28 8 29 14 12 5 -12 2 -29 -6 -42z m-430
-125 c9 -32 19 -65 21 -75 3 -10 -8 9 -25 42 -16 33 -30 71 -30 85 0 36 16 13
34 -52z m49 52 c3 -11 1 -18 -4 -14 -5 3 -9 12 -9 20 0 20 7 17 13 -6z m463
-75 c-14 -30 -27 -55 -29 -55 -5 0 27 110 40 140 5 11 7 9 10 -8 3 -12 -7 -47
-21 -77z m-346 -15 c11 -11 20 -32 20 -46 0 -23 -2 -25 -16 -13 -14 12 -44 61
-44 74 0 12 21 4 40 -15z m210 15 c0 -27 -55 -94 -67 -82 -9 9 17 66 36 77 18
11 31 13 31 5z m-550 -72 c-1 -28 -3 -34 -10 -22 -8 14 -3 59 6 59 2 0 4 -17
4 -37z m860 -136 c-7 -42 -16 -65 -21 -60 -6 6 -3 27 6 54 9 24 15 60 14 79
-3 53 4 80 9 35 2 -22 -2 -71 -8 -108z m-885 49 c5 -46 3 -66 -4 -62 -13 9
-25 88 -16 116 10 30 12 25 20 -54z m565 24 c0 -8 -51 -40 -65 -40 -3 0 -5 6
-5 13 0 7 15 18 33 24 17 5 33 11 35 12 1 0 2 -3 2 -9z m150 1 c0 -6 -4 -13
-10 -16 -5 -3 -10 1 -10 9 0 9 5 16 10 16 6 0 10 -4 10 -9z m-316 -22 c5 -5 7
-11 4 -15 -6 -6 -68 23 -68 31 0 8 53 -6 64 -16z m-57 -66 c18 -4 21 -10 16
-39 -5 -29 -2 -35 21 -44 30 -11 35 -44 9 -59 -13 -7 -23 -5 -36 7 -15 13 -25
14 -59 5 -23 -6 -48 -9 -55 -6 -23 9 -8 28 23 28 l29 0 -3 64 c-3 59 -2 63 15
56 10 -4 28 -10 40 -12z m271 -45 l-3 -63 33 3 c27 2 33 -1 30 -15 -4 -18 -11
-19 -79 -7 -26 4 -40 2 -52 -10 -21 -21 -47 -10 -47 20 0 17 8 27 25 34 27 10
35 52 13 66 -10 6 41 29 75 33 5 1 7 -27 5 -61z m-578 9 c0 -18 -2 -19 -10 -7
-13 20 -13 43 0 35 6 -3 10 -16 10 -28z m140 -82 c7 -8 10 -18 8 -21 -3 -3
-16 12 -28 33 -34 59 -36 67 -32 88 3 14 10 5 22 -32 9 -29 23 -59 30 -68z
m584 34 c-33 -66 -49 -72 -19 -7 14 29 25 60 25 68 0 13 2 13 9 1 7 -10 2 -30
-15 -62z m-824 -78 c0 -10 -22 -31 -32 -31 -9 0 -11 34 -2 43 7 7 34 -2 34
-12z m1060 -16 c7 -14 17 -25 21 -25 5 0 37 -27 71 -61 l63 -61 -80 43 c-171
89 -182 98 -147 118 30 18 58 12 72 -14z m-859 -67 c11 -44 9 -70 -6 -68 -5 1
-15 30 -20 65 -9 52 -8 62 2 53 7 -6 18 -28 24 -50z m664 -29 c6 -54 8 -57 48
-75 l42 -19 57 -215 c31 -118 55 -216 53 -218 -2 -3 -27 44 -55 104 -29 60
-69 145 -89 189 -21 44 -41 97 -45 118 -4 21 -16 47 -27 58 -22 22 -26 88 -7
122 13 24 13 25 23 -64z m-951 30 c-28 -30 -64 -55 -64 -45 0 14 64 76 78 76
11 0 8 -8 -14 -31z m637 -76 c-6 -21 -17 -47 -24 -57 -13 -17 -14 -17 -30 8
-10 14 -19 47 -22 73 -5 48 -5 48 5 10 6 -21 15 -48 21 -59 11 -21 12 -21 25
-3 7 10 17 38 21 64 4 28 9 37 11 24 2 -12 -1 -39 -7 -60z m-336 -88 c6 -41 3
-52 -26 -98 -41 -65 -38 -61 -45 -55 -3 3 2 43 12 89 26 130 45 151 59 64z
m570 25 c3 -11 3 -34 0 -52 -5 -26 -1 -39 15 -58 12 -14 33 -47 47 -74 23 -46
93 -236 93 -253 0 -4 -15 19 -33 52 -18 33 -52 95 -76 138 -93 170 -93 169
-85 225 4 36 10 49 20 45 7 -3 16 -13 19 -23z m-535 -1 c0 -11 -4 -18 -10 -14
-5 3 -7 12 -3 20 7 21 13 19 13 -6z m-109 -96 c-6 -26 -13 -63 -16 -82 -7 -42
-17 -60 -74 -139 -58 -81 -96 -125 -83 -97 5 11 26 56 47 100 95 205 129 275
133 271 2 -3 -1 -27 -7 -53z m12 -170 c-13 -38 -30 -82 -38 -100 -8 -17 -15
-37 -15 -44 0 -7 -2 -10 -5 -7 -11 10 26 154 48 185 34 50 37 40 10 -34z"/>
<path d="M1432 2810 c0 -14 2 -19 5 -12 2 6 2 18 0 25 -3 6 -5 1 -5 -13z"/>
<path d="M1532 2785 c0 -16 2 -22 5 -12 2 9 2 23 0 30 -3 6 -5 -1 -5 -18z"/>
<path d="M1002 2780 c0 -14 2 -19 5 -12 2 6 2 18 0 25 -3 6 -5 1 -5 -13z"/>
<path d="M1422 2725 c0 -16 2 -22 5 -12 2 9 2 23 0 30 -3 6 -5 -1 -5 -18z"/>
<path d="M1413 2645 c0 -27 2 -38 4 -22 2 15 2 37 0 50 -2 12 -4 0 -4 -28z"/>
<path d="M1403 2530 c0 -30 2 -43 4 -27 2 15 2 39 0 55 -2 15 -4 2 -4 -28z"/>
<path d="M1394 2330 c0 -63 1 -89 3 -57 2 31 2 83 0 115 -2 31 -3 5 -3 -58z"/>
</g>
</svg>
