<?xml version="1.0" standalone="no"?>
<!DOCTYPE svg PUBLIC "-//W3C//DTD SVG 20010904//EN"
 "http://www.w3.org/TR/2001/REC-SVG-20010904/DTD/svg10.dtd">
<svg version="1.0" xmlns="http://www.w3.org/2000/svg"
 width="244.000000pt" height="305.000000pt" viewBox="0 0 244.000000 305.000000"
 preserveAspectRatio="xMidYMid meet">
<metadata>
Created by potrace 1.16, written by Peter Selinger 2001-2019
</metadata>
<g transform="translate(0.000000,305.000000) scale(0.100000,-0.100000)"
fill="#000000" stroke="none">
<path d="M996 2905 c-12 -31 -46 -316 -55 -467 -6 -84 -11 -235 -12 -334 l-2
-181 37 -38 38 -37 40 41 41 41 -7 222 c-9 293 -20 443 -46 618 -12 80 -23
146 -25 148 -1 2 -5 -4 -9 -13z m39 -300 c8 -82 18 -261 22 -397 l6 -247 -31
-32 -32 -33 1 480 c1 491 4 510 34 229z"/>
<path d="M1460 2905 c0 -3 -7 -47 -15 -99 -24 -149 -45 -413 -52 -653 l-6
-222 41 -41 41 -41 40 40 41 41 -6 187 c-9 348 -52 793 -75 793 -5 0 -9 -2 -9
-5z m34 -251 c17 -152 25 -275 32 -512 l5 -174 -31 -34 -30 -35 0 447 c0 246
2 445 5 443 2 -3 11 -63 19 -135z"/>
<path d="M1221 2554 c-16 -76 -41 -332 -48 -509 l-7 -160 -13 104 c-7 58 -15
112 -19 120 -10 25 -23 -31 -31 -132 -6 -87 -6 -89 21 -114 24 -22 27 -31 24
-76 -3 -50 -4 -52 -30 -50 -25 2 -28 -1 -28 -32 0 -60 45 -81 68 -32 9 20 11
17 11 -18 1 -28 7 -44 20 -52 11 -7 25 -29 32 -50 l12 -38 18 43 c10 23 25 45
34 48 10 4 15 20 15 47 0 40 0 41 16 19 28 -40 64 -17 64 43 0 22 -4 25 -27
23 -27 -3 -28 -1 -31 43 -2 38 2 52 24 78 26 32 27 34 20 128 -7 100 -19 143
-31 112 -3 -9 -12 -63 -19 -120 -13 -96 -14 -99 -15 -44 -6 264 -39 614 -61
654 -5 10 -11 -2 -19 -35z m55 -587 c7 -317 7 -318 -14 -338 l-22 -20 1 443
c2 416 3 437 15 338 7 -58 16 -248 20 -423z"/>
<path d="M887 1855 c-18 -17 -31 -70 -22 -85 3 -5 19 -10 35 -10 19 0 35 -9
49 -26 22 -28 29 -74 11 -74 -30 0 4 -167 49 -241 l20 -32 -25 -46 c-41 -78
-23 -156 34 -149 27 3 27 4 23 72 -3 64 -2 68 15 61 11 -4 33 -13 51 -19 28
-9 31 -14 26 -39 -5 -23 -1 -33 21 -51 31 -24 28 -47 -9 -64 -19 -9 -24 -8
-28 9 -6 24 -39 25 -78 2 -27 -16 -29 -16 -50 2 -33 31 -42 55 -46 120 -1 33
-6 85 -11 115 -7 51 -9 55 -32 52 -35 -3 -50 -28 -50 -81 1 -50 8 -71 66 -201
33 -76 38 -95 40 -176 1 -50 5 -101 9 -113 5 -17 -12 -53 -71 -154 -42 -73
-82 -142 -88 -154 -11 -24 -32 -33 -23 -10 3 6 35 89 71 182 37 94 72 180 78
192 13 26 5 150 -13 203 -7 19 -22 51 -34 70 -55 89 -70 182 -39 241 20 40 15
71 -16 86 -36 17 -66 6 -80 -28 -10 -23 -9 -43 5 -106 21 -93 16 -162 -12
-190 -16 -16 -20 -30 -16 -55 l4 -34 -111 -57 c-61 -31 -114 -57 -118 -57 -4
0 7 12 23 26 194 166 238 211 231 238 -3 11 -10 63 -17 115 -9 69 -14 89 -22
76 -5 -10 -6 -48 -2 -92 6 -69 5 -75 -10 -69 -12 4 -27 -5 -51 -31 -61 -68
-253 -328 -244 -331 5 -2 49 16 97 39 48 23 125 59 171 81 70 33 82 42 82 63
0 28 10 31 42 13 74 -43 101 -120 53 -155 -20 -15 -29 -38 -49 -133 -14 -63
-41 -190 -60 -283 -20 -92 -36 -172 -36 -178 0 -12 31 25 44 51 8 18 23 42 61
100 16 25 34 53 40 62 5 10 35 57 65 105 82 131 85 138 72 180 -6 20 -9 40 -6
45 10 16 98 8 131 -11 43 -27 51 -56 22 -94 l-22 -30 42 -301 c46 -322 52
-359 57 -353 4 4 59 364 81 534 l15 121 -22 32 c-20 28 -21 34 -9 57 18 34 59
53 115 53 l47 0 -7 -49 c-7 -52 3 -73 95 -216 11 -16 55 -86 98 -154 42 -69
82 -126 88 -128 11 -4 9 7 -43 237 -14 63 -32 142 -39 175 -37 166 -37 166
-61 177 -43 20 -25 90 36 142 40 33 60 33 60 1 0 -22 11 -31 83 -64 156 -74
262 -119 270 -114 4 2 -13 30 -38 61 -25 31 -87 110 -137 175 -65 82 -98 117
-112 117 -20 0 -21 5 -18 92 2 60 0 88 -6 79 -7 -10 -13 -4 -22 23 -13 41 -40
57 -79 47 -38 -11 -48 -35 -32 -73 8 -18 16 -57 19 -87 3 -46 -1 -63 -28 -118
-18 -35 -34 -62 -37 -59 -2 2 6 24 18 48 13 26 24 69 27 109 4 63 3 68 -20 83
-52 34 -67 5 -72 -131 -3 -78 -18 -126 -50 -152 -13 -11 -22 -11 -50 3 -45 21
-67 20 -73 -4 -5 -18 -7 -18 -34 -4 -37 19 -38 51 -3 64 23 9 26 15 21 45 -5
28 -3 35 11 35 9 0 26 7 36 15 40 30 48 20 45 -52 -4 -66 -3 -68 22 -71 28 -3
54 20 64 58 4 18 -3 42 -24 81 -28 53 -29 58 -14 79 46 66 79 230 52 257 -9 9
-9 19 1 42 16 39 35 55 68 56 59 1 25 105 -34 105 -27 0 -52 -23 -60 -56 -7
-26 -24 -33 -24 -10 0 7 -9 25 -21 40 -40 51 -99 20 -99 -52 0 -29 3 -33 23
-32 41 4 47 0 64 -35 15 -32 15 -36 0 -53 -9 -10 -17 -32 -17 -48 0 -41 -32
-104 -75 -150 -37 -39 -58 -94 -36 -94 38 0 108 85 148 179 19 45 23 49 18 21
-8 -41 -47 -127 -75 -163 -11 -14 -40 -37 -65 -50 l-45 -26 0 47 c0 81 17 122
56 138 39 17 42 24 14 49 -34 31 -71 10 -96 -54 l-22 -53 -17 52 c-21 63 -51
82 -90 56 -33 -21 -32 -35 4 -47 36 -13 52 -47 59 -127 l5 -63 -32 19 c-82 50
-143 139 -156 227 l-5 40 13 -40 c19 -58 61 -126 104 -168 70 -71 89 -30 23
49 -49 60 -80 121 -80 159 0 16 -8 37 -17 47 -15 17 -15 21 0 53 14 30 22 35
52 35 33 0 35 2 35 35 0 39 -28 75 -58 75 -24 0 -51 -29 -61 -66 l-8 -29 -12
30 c-25 62 -71 84 -104 50z m818 -516 l-7 -82 33 6 c30 6 37 3 65 -31 57 -70
146 -194 136 -191 -27 10 -225 184 -233 206 -10 28 -12 96 -3 142 12 57 16 32
9 -50z m-418 -31 c-3 -8 -6 -5 -6 6 -1 11 2 17 5 13 3 -3 4 -12 1 -19z m237
-217 c-10 -78 2 -119 41 -142 31 -18 35 -27 58 -127 14 -59 31 -132 37 -162 7
-30 14 -64 17 -75 13 -48 -18 5 -46 80 -16 44 -52 136 -80 203 -53 129 -61
179 -40 241 16 45 21 38 13 -18z m-320 -65 c4 -30 13 -62 21 -72 13 -18 14
-17 25 10 6 16 14 49 17 73 3 24 9 43 13 43 11 0 1 -78 -16 -123 -20 -54 -18
-75 15 -126 l30 -46 -34 -225 -33 -225 -1 285 c-2 284 -2 285 -26 325 -16 26
-25 55 -25 82 0 24 -5 43 -12 46 -8 4 -7 6 3 6 13 1 18 -12 23 -53z"/>
</g>
</svg>
