<?xml version="1.0" standalone="no"?>
<!DOCTYPE svg PUBLIC "-//W3C//DTD SVG 20010904//EN"
 "http://www.w3.org/TR/2001/REC-SVG-20010904/DTD/svg10.dtd">
<svg version="1.0" xmlns="http://www.w3.org/2000/svg"
 width="244.000000pt" height="305.000000pt" viewBox="0 0 244.000000 305.000000"
 preserveAspectRatio="xMidYMid meet">
<metadata>
Created by potrace 1.16, written by Peter Selinger 2001-2019
</metadata>
<g transform="translate(0.000000,305.000000) scale(0.100000,-0.100000)"
fill="#000000" stroke="none">
<path d="M910 2893 c0 -12 -3 -30 -6 -40 -5 -15 -4 -15 5 -3 8 11 11 -120 11
-467 0 -266 -3 -483 -6 -483 -3 0 -23 15 -45 32 l-40 33 6 205 c6 176 18 305
51 555 12 88 -4 43 -20 -55 -30 -192 -44 -357 -46 -565 -3 -176 -2 -181 23
-193 12 -7 34 -22 49 -34 l28 -22 22 20 c13 11 36 28 52 38 l29 18 -7 192
c-10 262 -30 466 -61 632 -24 127 -45 190 -45 137z"/>
<path d="M1342 2885 c0 -16 2 -22 5 -12 2 9 2 23 0 30 -3 6 -5 -1 -5 -18z"/>
<path d="M1530 2840 c-7 -33 -11 -63 -8 -66 3 -2 9 15 14 38 6 28 10 -124 12
-431 1 -261 0 -476 -3 -479 -2 -3 -21 8 -41 23 l-37 28 5 261 c2 144 1 241 -3
216 -4 -25 -11 -149 -15 -276 l-7 -232 30 -15 c16 -9 35 -23 42 -31 14 -17 51
-22 51 -8 0 5 16 17 35 28 19 10 36 23 38 29 9 22 -13 506 -27 620 -18 142
-54 337 -65 348 -5 4 -14 -19 -21 -53z"/>
<path d="M892 2800 c0 -14 2 -19 5 -12 2 6 2 18 0 25 -3 6 -5 1 -5 -13z"/>
<path d="M1131 2385 c-2 -287 -6 -420 -12 -400 -5 17 -13 77 -17 135 -7 102
-7 103 -13 45 -3 -33 -11 -85 -17 -115 -23 -119 -23 -149 -2 -170 23 -23 10
-36 -20 -20 -44 24 -120 -21 -120 -71 0 -28 -16 -23 -30 10 -33 81 -134 93
-159 19 -16 -46 -15 -48 33 -48 36 0 50 -6 75 -31 34 -33 41 -73 15 -83 -37
-14 6 -157 71 -235 30 -34 28 -41 -24 -100 -11 -13 -21 -37 -21 -53 0 -37 43
-78 82 -78 28 0 28 0 12 -25 -20 -31 -34 -32 -34 -2 -1 19 -2 20 -11 5 -9 -16
-13 -14 -39 16 -36 41 -50 75 -40 101 4 11 3 33 -1 50 -5 16 -9 44 -9 60 0 38
-16 55 -52 55 -18 0 -33 -8 -44 -25 -25 -39 -12 -102 39 -187 71 -117 87 -154
87 -201 0 -48 -19 -88 -169 -362 -86 -156 -122 -215 -109 -175 3 8 26 87 52
175 76 255 76 257 125 273 49 16 61 39 61 114 0 60 -16 96 -74 166 -70 86 -84
161 -41 224 29 43 30 51 9 72 -21 21 -97 21 -118 0 -20 -20 -20 -69 -1 -124
19 -53 19 -113 1 -148 -14 -27 -67 -72 -84 -72 -5 0 -15 -6 -21 -14 -6 -7 -48
-35 -94 -61 -45 -26 -103 -61 -128 -76 -25 -16 -50 -29 -55 -29 -5 1 54 62
131 136 l140 135 43 -6 44 -6 -7 93 c-10 127 -27 150 -22 30 l3 -94 -30 6
c-28 5 -39 -1 -108 -67 -136 -128 -288 -280 -285 -284 3 -3 190 60 425 144 34
12 42 20 42 39 0 20 5 24 28 24 42 0 116 -51 136 -94 23 -49 18 -68 -22 -80
-29 -8 -34 -15 -53 -80 -11 -39 -33 -111 -49 -161 -16 -49 -38 -126 -49 -170
-11 -44 -27 -100 -36 -124 -8 -24 -13 -46 -11 -48 3 -4 149 161 206 233 14 17
57 69 96 115 38 46 73 89 77 95 4 7 0 30 -7 52 -8 22 -12 43 -9 46 4 3 35 6
70 6 l63 0 1 -42 2 -43 6 39 c6 39 27 59 36 34 2 -7 -11 -92 -29 -188 -23
-119 -35 -165 -38 -145 -3 17 -3 8 -1 -18 2 -29 0 -46 -5 -43 -8 4 -24 -112
-18 -121 1 -1 24 74 51 167 28 93 53 166 56 162 3 -4 32 -142 65 -307 47 -245
59 -294 66 -265 8 39 66 343 93 487 10 51 21 91 25 88 4 -3 20 -50 35 -105 15
-55 30 -99 32 -96 5 4 -52 224 -68 264 -11 28 -11 80 1 107 11 27 14 15 35
-105 8 -52 24 -142 35 -198 10 -57 17 -109 14 -115 -2 -7 2 -32 10 -57 20 -64
19 -44 -9 220 -14 129 -25 245 -25 257 0 26 40 38 95 27 39 -7 40 -9 19 -80
-6 -21 19 -53 249 -323 113 -131 130 -148 123 -127 -4 11 -41 140 -84 287
l-77 268 -37 15 c-44 17 -46 28 -15 78 26 43 60 71 106 86 47 16 51 15 51 -12
0 -14 4 -27 9 -30 9 -6 360 -130 414 -146 15 -5 27 -5 27 0 0 4 -79 83 -175
175 -160 153 -177 166 -203 161 l-28 -7 3 93 c2 63 0 87 -6 73 -5 -11 -10 -36
-10 -56 -1 -19 -8 -59 -16 -87 -9 -29 -13 -56 -10 -61 4 -8 170 -120 313 -211
30 -19 50 -36 45 -37 -5 -2 -63 17 -129 43 -65 25 -138 52 -161 61 -52 18 -57
24 -41 58 10 23 10 28 -4 36 -39 22 -48 40 -48 98 0 32 7 78 15 101 34 96 9
147 -67 137 -62 -8 -73 -29 -41 -80 21 -34 24 -49 21 -94 -4 -44 -13 -65 -47
-111 -58 -80 -93 -156 -100 -221 l-6 -56 -13 42 c-15 51 -9 70 73 214 44 77
55 104 55 141 0 31 -6 50 -18 61 -22 20 -56 22 -69 5 -14 -17 -26 -92 -25
-147 1 -47 -14 -85 -46 -114 -18 -16 -20 -16 -26 -1 -4 10 4 28 20 47 30 36
27 63 -17 118 -16 20 -29 40 -29 44 0 4 16 29 35 55 19 26 42 64 50 84 20 46
20 120 0 136 -23 19 -18 39 20 77 28 28 41 34 69 32 42 -4 50 3 42 35 -16 63
-87 77 -137 27 -16 -16 -29 -37 -29 -45 0 -26 -14 -18 -30 16 -8 18 -27 41
-42 51 -22 16 -31 18 -57 9 l-30 -11 5 47 c3 26 0 76 -6 112 -10 58 -37 565
-39 730 -1 41 -5 60 -10 51 -7 -11 -9 -11 -14 0 -3 8 -6 4 -6 -9 -1 -13 3 -20
9 -17 11 7 14 -641 3 -769 -11 -142 -25 -55 -26 172 -1 152 -3 187 -7 117 l-5
-100 -7 86 c-7 80 -36 233 -56 304 l-9 30 -12 -40 c-12 -43 -48 -248 -53 -305
-2 -19 -7 30 -11 110 -24 465 -24 464 -26 15z m98 -366 l1 -396 -30 5 c-17 2
-30 10 -30 19 0 8 4 12 9 9 14 -9 31 50 31 105 0 26 -7 130 -16 231 -16 181
-14 258 13 438 7 43 7 44 14 15 4 -16 7 -208 8 -426z m-82 -151 c-3 -7 -5 -2
-5 12 0 14 2 19 5 13 2 -7 2 -19 0 -25z m180 0 c-3 -7 -5 -2 -5 12 0 14 2 19
5 13 2 -7 2 -19 0 -25z m-128 -83 c1 -48 -14 -79 -25 -52 -3 9 -1 24 6 32 10
12 10 25 1 59 -15 60 -13 79 4 36 7 -19 14 -53 14 -75z m-130 -21 c22 -5 31
-12 31 -26 0 -12 -5 -18 -12 -15 -48 19 -48 20 -48 -5 0 -29 26 -68 46 -68 9
0 14 -11 14 -32 0 -35 -33 -78 -61 -78 -19 0 -49 56 -49 92 0 13 -9 31 -20 41
-22 19 -18 39 13 75 22 23 35 26 86 16z m416 -19 c28 -27 32 -57 10 -75 -8 -7
-15 -23 -15 -37 0 -32 -26 -80 -50 -93 -11 -6 -22 -21 -26 -33 -3 -12 -16 -30
-30 -40 -23 -17 -24 -17 -24 0 0 39 13 63 36 69 29 7 31 20 4 36 -24 16 -30
91 -6 82 17 -7 46 33 46 63 0 24 -14 31 -25 13 -10 -16 -35 -12 -35 5 0 17 32
33 68 34 13 1 34 -10 47 -24z m-338 -67 c-3 -8 -6 -5 -6 6 -1 11 2 17 5 13 3
-3 4 -12 1 -19z m180 0 c-3 -8 -6 -5 -6 6 -1 11 2 17 5 13 3 -3 4 -12 1 -19z
m-388 -89 c6 -17 27 -53 46 -80 19 -27 35 -59 35 -70 0 -18 -5 -16 -35 17 -39
44 -62 87 -71 133 -8 41 11 41 25 0z m188 9 c-3 -8 -6 -5 -6 6 -1 11 2 17 5
13 3 -3 4 -12 1 -19z m69 0 c9 -15 -10 -30 -29 -22 -25 9 -22 43 3 37 11 -3
23 -10 26 -15z m151 0 c-3 -8 -6 -5 -6 6 -1 11 2 17 5 13 3 -3 4 -12 1 -19z
m207 -5 c-8 -36 -39 -102 -63 -132 -27 -35 -35 -3 -10 40 10 19 29 53 41 77
25 48 41 55 32 15z m-236 0 c-4 -20 -18 -26 -37 -14 -18 12 -5 31 20 31 14 0
19 -6 17 -17z m-220 -61 c7 -5 15 -26 19 -46 6 -37 5 -38 -15 -25 -17 11 -42
56 -42 75 0 7 25 4 38 -4z m142 -37 l-8 -40 -1 36 c0 20 2 39 6 42 11 11 11 4
3 -38z m-76 -39 c9 -27 14 -52 11 -54 -6 -6 -31 52 -41 94 -11 46 11 17 30
-40z m156 -11 c-18 -54 -31 -52 -15 2 8 26 15 50 16 53 0 3 3 -1 6 -7 2 -7 -1
-29 -7 -48z m97 -47 c-3 -7 -5 -2 -5 12 0 14 2 19 5 13 2 -7 2 -19 0 -25z
m-347 7 c0 -8 -4 -15 -10 -15 -5 0 -10 7 -10 15 0 8 5 15 10 15 6 0 10 -7 10
-15z m293 -36 c-17 -17 -37 -1 -22 17 8 10 15 12 23 4 7 -7 7 -13 -1 -21z
m-225 3 c3 -9 -2 -13 -14 -10 -9 1 -19 9 -22 16 -3 9 2 13 14 10 9 -1 19 -9
22 -16z m-108 -80 c0 -29 -6 -56 -16 -68 -8 -10 -13 -14 -10 -9 2 6 1 17 -4
25 -5 8 -3 21 3 32 10 15 9 21 -3 28 -13 9 -12 12 4 25 11 8 21 15 23 15 2 0
3 -22 3 -48z m421 -4 l-9 -33 -1 36 c-1 20 2 39 6 43 13 12 15 -10 4 -46z m26
20 c-3 -8 -6 -5 -6 6 -1 11 2 17 5 13 3 -3 4 -12 1 -19z m-393 -74 l6 -49 -15
45 c-16 50 -21 113 -5 74 5 -12 11 -43 14 -70z m96 77 c0 -12 -20 -25 -27 -18
-7 7 6 27 18 27 5 0 9 -4 9 -9z m130 -7 c0 -8 -4 -12 -10 -9 -5 3 -10 10 -10
16 0 5 5 9 10 9 6 0 10 -7 10 -16z m99 -31 c-5 -21 -13 -51 -19 -68 -9 -28 -9
-27 -5 10 9 68 16 95 25 95 4 0 4 -17 -1 -37z m-284 -50 c6 -24 31 -31 37 -11
5 15 28 1 28 -16 0 -20 -50 -50 -62 -38 -6 6 -12 41 -13 79 -2 37 -2 55 1 38
2 -16 7 -40 9 -52z m245 52 c0 -28 -22 -115 -31 -120 -12 -8 -59 24 -59 41 0
21 22 28 35 11 17 -24 35 -1 35 45 0 21 5 38 10 38 6 0 10 -7 10 -15z m130
-122 c0 -13 -3 -13 -15 -3 -8 7 -15 19 -15 27 0 13 3 13 15 3 8 -7 15 -19 15
-27z m116 -213 c10 -1 237 -430 230 -437 -2 -2 -21 18 -43 45 -21 26 -84 106
-141 177 -67 83 -101 134 -97 144 3 8 9 35 12 60 5 37 8 41 18 27 7 -9 16 -16
21 -16z m-376 -18 c0 -15 -2 -15 -10 -2 -13 20 -13 33 0 25 6 -3 10 -14 10
-23z m-80 -57 c0 -12 -7 -28 -15 -35 -13 -11 -15 -6 -15 35 0 41 2 46 15 35 8
-7 15 -23 15 -35z m180 -1 c0 -45 -10 -51 -30 -15 -6 13 -4 24 8 39 9 12 18
22 20 22 1 0 2 -21 2 -46z m-116 -454 l-7 -55 -12 52 c-7 29 -27 127 -46 218
l-33 165 39 40 c34 35 41 38 47 23 5 -15 7 -14 10 7 1 14 4 -69 6 -185 2 -115
0 -235 -4 -265z"/>
<path d="M1214 2220 c0 -52 1 -74 3 -47 2 26 2 68 0 95 -2 26 -3 4 -3 -48z"/>
<path d="M1193 765 c0 -22 2 -30 4 -17 2 12 2 30 0 40 -3 9 -5 -1 -4 -23z"/>
<path d="M1203 635 c0 -33 2 -45 4 -27 2 18 2 45 0 60 -2 15 -4 0 -4 -33z"/>
<path d="M1213 485 c0 -33 2 -45 4 -27 2 18 2 45 0 60 -2 15 -4 0 -4 -33z"/>
<path d="M1113 2735 c0 -22 2 -30 4 -17 2 12 2 30 0 40 -3 9 -5 -1 -4 -23z"/>
<path d="M1496 2656 c-9 -58 -15 -122 -15 -143 1 -24 3 -29 5 -13 26 171 35
252 31 256 -2 3 -12 -42 -21 -100z"/>
<path d="M1323 2580 c0 -25 2 -35 4 -22 2 12 2 32 0 45 -2 12 -4 2 -4 -23z"/>
<path d="M1103 2530 c0 -41 2 -58 4 -37 2 20 2 54 0 75 -2 20 -4 3 -4 -38z"/>
<path d="M1043 795 c0 -22 2 -30 4 -17 2 12 2 30 0 40 -3 9 -5 -1 -4 -23z"/>
<path d="M1033 695 c0 -22 2 -30 4 -17 2 12 2 30 0 40 -3 9 -5 -1 -4 -23z"/>
</g>
</svg>
