<?xml version="1.0" standalone="no"?>
<!DOCTYPE svg PUBLIC "-//W3C//DTD SVG 20010904//EN"
 "http://www.w3.org/TR/2001/REC-SVG-20010904/DTD/svg10.dtd">
<svg version="1.0" xmlns="http://www.w3.org/2000/svg"
 width="244.000000pt" height="305.000000pt" viewBox="0 0 244.000000 305.000000"
 preserveAspectRatio="xMidYMid meet">
<metadata>
Created by potrace 1.16, written by Peter Selinger 2001-2019
</metadata>
<g transform="translate(0.000000,305.000000) scale(0.100000,-0.100000)"
fill="#000000" stroke="none">
<path d="M951 2893 c-1 -12 -4 -29 -8 -39 -4 -12 -3 -15 5 -10 9 5 12 -108 12
-468 0 -262 -4 -476 -8 -476 -4 0 -23 15 -41 34 l-32 33 6 199 c4 109 11 242
16 294 18 184 22 235 16 230 -26 -24 -63 -770 -38 -770 6 0 29 -16 50 -36 35
-33 37 -39 28 -64 l-11 -28 -15 31 c-32 63 -121 56 -134 -10 -7 -36 -2 -43 33
-43 43 0 57 -9 81 -46 20 -33 20 -36 4 -60 -12 -18 -16 -41 -13 -75 1 -27 -1
-50 -5 -52 -4 -1 -14 -20 -22 -42 -8 -22 -14 -34 -15 -26 0 8 -14 -4 -31 -25
-29 -37 -30 -42 -24 -100 7 -69 -6 -93 -24 -42 -17 50 -13 119 9 153 25 38 25
61 1 75 -30 15 -87 12 -102 -6 -16 -20 -15 -78 4 -142 14 -46 11 -99 -7 -143
-10 -22 -294 -229 -315 -229 -5 0 -12 -6 -14 -12 -3 -7 -6 -8 -6 -3 0 6 16 28
37 50 20 22 75 82 122 133 83 92 84 93 122 87 l38 -7 -6 94 c-4 51 -11 100
-16 108 -6 10 -7 -19 -4 -78 l5 -93 -28 6 c-26 6 -39 -6 -189 -171 -89 -98
-160 -179 -159 -180 4 -4 65 18 242 88 136 55 160 67 165 88 6 24 40 42 40 21
0 -9 -30 -63 -82 -148 -11 -18 -15 -33 -10 -33 5 0 51 25 101 56 51 30 95 53
98 51 2 -3 7 -23 10 -45 5 -38 4 -40 -26 -47 -17 -4 -31 -9 -31 -11 0 -2 -32
-128 -70 -280 -39 -152 -70 -280 -68 -285 3 -7 121 147 218 283 18 27 35 46
37 45 2 -2 -1 -28 -7 -57 -5 -29 -10 -62 -9 -74 1 -11 5 -1 10 24 5 25 14 69
20 98 6 29 22 65 35 81 21 25 24 39 22 83 -3 51 -2 53 24 56 l26 3 -25 -78
c-14 -43 -44 -138 -67 -211 -33 -107 -42 -128 -46 -105 -4 21 -9 11 -18 -46
-7 -40 -11 -75 -9 -77 3 -4 27 42 140 273 69 139 74 155 67 189 -5 21 -7 42
-4 46 16 26 100 -17 110 -57 4 -18 -1 -33 -19 -55 -14 -16 -23 -37 -21 -47 2
-10 26 -155 54 -323 45 -266 60 -344 60 -302 0 6 23 145 50 309 28 164 50 309
50 321 0 13 -11 37 -25 54 -30 35 -22 58 28 88 60 37 86 21 69 -42 -8 -30 0
-52 104 -263 63 -127 112 -216 109 -200 -2 17 -12 75 -20 130 -9 55 -20 114
-24 132 -5 17 -7 34 -4 37 4 3 33 -31 66 -77 119 -161 170 -227 174 -224 4 5
-121 501 -137 542 -5 14 -16 25 -24 25 -24 0 -38 27 -31 60 4 16 12 30 18 29
7 0 39 -18 72 -39 33 -22 74 -46 91 -54 17 -8 35 -19 38 -25 4 -6 11 -11 17
-11 10 0 -24 71 -62 128 -11 17 -18 32 -15 32 6 0 295 -114 344 -135 44 -20
47 -19 24 9 -18 23 -104 124 -127 150 -5 6 -43 49 -84 94 -67 75 -78 83 -103
78 l-28 -5 7 89 c4 65 3 90 -6 90 -6 0 -11 -18 -12 -42 0 -24 -2 -52 -4 -63
-1 -11 -5 -42 -9 -70 l-6 -50 54 -43 c29 -23 71 -54 92 -68 22 -15 41 -29 44
-33 3 -3 31 -26 63 -50 32 -24 56 -45 54 -47 -4 -4 -212 83 -264 110 -29 14
-32 20 -26 47 4 23 0 36 -16 53 -33 35 -36 90 -12 185 21 84 18 113 -13 133
-20 14 -63 8 -86 -10 l-22 -18 25 -55 c25 -52 26 -66 11 -137 -3 -13 -10 -22
-17 -19 -8 2 -11 23 -9 63 3 46 0 63 -12 73 -9 8 -16 20 -16 28 0 8 -4 11 -10
8 -5 -3 -10 3 -10 14 0 11 -11 33 -25 49 -19 23 -24 37 -19 60 4 19 0 43 -10
63 -22 44 -21 52 14 89 25 27 35 31 61 26 39 -7 46 11 24 58 -15 30 -22 36
-50 36 -21 0 -41 -9 -57 -25 -25 -24 -26 -25 -31 -5 -5 21 34 72 63 82 12 4
14 32 12 164 -3 274 -22 509 -57 704 -8 47 -15 91 -15 98 0 6 -3 12 -7 12 -5
0 -7 -223 -5 -496 2 -391 0 -495 -10 -492 -6 2 -15 16 -19 31 -13 50 -13 687
0 765 7 40 11 78 8 85 -2 6 -10 -25 -17 -71 -7 -45 -14 -81 -15 -80 -2 2 -8
53 -15 115 -6 62 -15 124 -18 138 -4 13 -6 -204 -4 -483 2 -385 0 -504 -9
-495 -16 16 -27 80 -36 213 l-7 115 -8 -90 c-4 -50 -11 -101 -17 -115 -10 -25
-10 -24 -10 7 -1 17 -4 40 -8 50 -6 15 -9 13 -14 -12 -5 -24 -7 -18 -8 25 -4
188 -53 522 -71 489 -17 -29 -50 -266 -57 -402 -4 -78 -9 -132 -11 -119 -6 38
-22 24 -23 -20 0 -39 -1 -41 -11 -18 -5 14 -16 144 -23 290 -17 324 -45 598
-57 555 -4 -17 -6 -41 -3 -55 9 -49 16 -668 8 -673 -5 -3 -15 92 -21 211 -11
206 -47 475 -70 532 -10 23 -11 24 -11 3z m279 -854 c0 -398 -1 -429 -16 -414
-15 15 -16 51 -10 373 5 326 12 472 22 472 2 0 4 -194 4 -431z m-43 -116 c-1
-43 -3 -10 -3 72 0 83 2 118 3 78 2 -40 2 -107 0 -150z m-130 37 c-5 -88 -17
-66 -16 31 1 78 3 87 10 56 5 -20 7 -60 6 -87z m-24 -74 c8 -19 -1 -26 -36
-26 -29 0 -30 0 -12 20 21 23 41 26 48 6z m444 -3 c2 -6 -5 -14 -17 -18 -26
-8 -33 -3 -24 19 7 19 35 18 41 -1z m-78 -22 c-15 -5 -22 6 -14 19 6 9 10 9
16 -1 5 -8 4 -15 -2 -18z m-304 9 c3 -5 -1 -10 -9 -10 -9 0 -16 5 -16 10 0 6
4 10 9 10 6 0 13 -4 16 -10z m35 -109 c0 -21 -13 -41 -26 -41 -17 0 -18 22 -2
38 14 14 28 16 28 3z m240 -6 c10 -12 10 -19 2 -27 -9 -9 -15 -7 -26 7 -23 32
0 49 24 20z m-342 -47 c11 -40 -2 -59 -24 -36 -11 11 -14 25 -10 42 9 35 24
33 34 -6z m452 -8 c0 -19 -27 -46 -36 -37 -4 3 -3 22 0 42 6 30 10 34 22 25 8
-7 14 -20 14 -30z m-293 -47 c-3 -10 -5 -2 -5 17 0 19 2 27 5 18 2 -10 2 -26
0 -35z m-43 1 c9 -3 16 -12 16 -20 0 -7 9 -18 21 -24 11 -7 27 -27 35 -46 8
-19 16 -34 19 -34 3 0 11 15 19 34 8 19 24 39 35 46 12 6 21 17 21 24 0 19 28
28 51 16 12 -7 17 -18 15 -33 -3 -12 -5 -26 -5 -31 -1 -5 -17 -6 -36 -3 -45 7
-70 -14 -87 -76 l-14 -48 -13 50 c-15 61 -31 75 -81 73 -33 -2 -38 0 -44 24
-4 15 -2 32 5 40 13 16 20 17 43 8z m-169 -64 c3 -16 24 -56 45 -88 37 -57 57
-102 46 -102 -27 0 -116 154 -116 200 0 30 18 24 25 -10z m120 -90 c6 -9 4
-11 -4 -5 -18 11 -41 70 -40 102 1 21 5 14 18 -28 10 -31 22 -62 26 -69z m305
20 c-12 -23 -23 -40 -25 -38 -1 1 7 34 19 72 18 58 21 64 24 38 2 -17 -6 -49
-18 -72z m114 62 c-18 -71 -92 -188 -109 -171 -2 3 13 35 34 72 22 36 44 82
51 102 13 40 34 38 24 -3z m-339 -109 c4 -14 2 -23 -4 -23 -12 0 -41 52 -41
72 0 18 36 -22 45 -49z m165 42 c0 -14 -32 -65 -40 -65 -9 0 1 37 16 61 6 10
24 12 24 4z m194 -71 c10 -26 7 -134 -4 -134 -5 0 -10 20 -10 44 0 24 -3 58
-6 75 -7 32 9 44 20 15z m-578 -16 c-3 -13 -6 -43 -6 -68 0 -33 -3 -41 -10
-30 -11 17 -13 80 -4 104 9 25 27 19 20 -6z m232 -62 c3 -15 1 -16 -17 -6 -26
13 -28 29 -3 26 9 -2 19 -11 20 -20z m125 9 c0 -6 -7 -11 -16 -13 -12 -3 -15
1 -11 13 7 17 25 17 27 0z m-270 -92 c-4 -38 -1 -54 14 -72 28 -35 45 -19 41
37 -3 51 -3 52 44 52 29 0 30 -1 14 -13 -25 -18 -18 -61 12 -65 17 -3 22 -10
22 -32 0 -15 -7 -30 -15 -34 -8 -3 -15 -1 -15 4 0 6 -25 10 -55 10 l-54 0 -15
50 c-8 27 -12 65 -9 85 8 51 21 33 16 -22z m398 -18 c-3 -5 -8 6 -12 25 -4 19
-4 39 -1 45 8 12 20 -56 13 -70z m-69 -18 c-4 -62 6 -71 41 -40 18 17 19 17
16 -7 -4 -23 -9 -25 -61 -28 -32 -2 -58 -7 -58 -12 0 -5 -7 -7 -15 -4 -25 10
-18 53 10 64 27 10 35 53 13 66 -9 6 -5 10 12 15 41 11 45 5 42 -54z m-522
-26 l0 -26 -19 29 c-21 32 -18 54 5 35 8 -6 14 -23 14 -38z m634 -45 c-3 -9
-10 -16 -15 -16 -5 0 -4 9 3 20 14 22 21 20 12 -4z m-480 -1 c3 -8 1 -15 -4
-15 -6 0 -10 7 -10 15 0 8 2 15 4 15 2 0 6 -7 10 -15z m766 -37 c0 -19 -2 -20
-10 -8 -13 19 -13 30 0 30 6 0 10 -10 10 -22z m-199 -58 c-16 -73 -14 -93 14
-154 14 -30 25 -57 25 -61 0 -3 36 -82 80 -176 44 -94 80 -173 80 -176 0 -15
-30 24 -113 145 -79 116 -96 147 -107 201 -21 99 -18 212 5 255 24 45 30 32
16 -34z m-801 36 c-1 -6 -24 -33 -52 -61 l-51 -50 25 45 c14 25 30 55 37 67
11 22 41 22 41 -1z m144 -16 c29 -72 25 -83 -161 -473 -37 -75 -68 -135 -70
-133 -3 3 82 336 106 416 5 16 18 27 38 32 48 13 58 32 58 120 0 43 3 78 6 78
4 0 14 -18 23 -40z m844 -37 c34 -37 59 -70 56 -72 -4 -5 -142 88 -151 102 -5
9 15 37 27 37 5 0 35 -30 68 -67z m-512 -108 c10 13 14 15 14 4 -1 -15 -28
-55 -33 -48 -10 14 -27 63 -26 77 0 9 7 1 16 -18 14 -33 16 -34 29 -15z m231
-65 c5 -22 106 -352 119 -390 3 -10 2 -12 -4 -5 -12 12 -134 274 -152 326 -8
23 -10 53 -5 85 6 45 8 47 21 29 8 -11 17 -31 21 -45z m-248 -272 c-2 -292 -4
-291 -35 4 l-18 168 24 50 c13 27 25 50 27 50 2 0 2 -123 2 -272z m-63 170 c0
-18 2 -69 6 -113 l6 -80 -18 90 c-13 66 -15 96 -7 112 6 13 11 23 12 23 1 0 1
-15 1 -32z"/>
<path d="M1402 2810 c0 -19 2 -27 5 -17 2 9 2 25 0 35 -3 9 -5 1 -5 -18z"/>
<path d="M932 2800 c0 -14 2 -19 5 -12 2 6 2 18 0 25 -3 6 -5 1 -5 -13z"/>
<path d="M1033 2740 c0 -25 2 -35 4 -22 2 12 2 32 0 45 -2 12 -4 2 -4 -23z"/>
<path d="M1393 2735 c0 -22 2 -30 4 -17 2 12 2 30 0 40 -3 9 -5 -1 -4 -23z"/>
<path d="M922 2730 c0 -19 2 -27 5 -17 2 9 2 25 0 35 -3 9 -5 1 -5 -18z"/>
<path d="M1022 2630 c0 -19 2 -27 5 -17 2 9 2 25 0 35 -3 9 -5 1 -5 -18z"/>
<path d="M1383 2610 c0 -25 2 -35 4 -22 2 12 2 32 0 45 -2 12 -4 2 -4 -23z"/>
<path d="M1373 2435 c0 -44 2 -61 4 -37 2 23 2 59 0 80 -2 20 -4 1 -4 -43z"/>
</g>
</svg>
