<?xml version="1.0" standalone="no"?>
<!DOCTYPE svg PUBLIC "-//W3C//DTD SVG 20010904//EN"
 "http://www.w3.org/TR/2001/REC-SVG-20010904/DTD/svg10.dtd">
<svg version="1.0" xmlns="http://www.w3.org/2000/svg"
 width="244.000000pt" height="305.000000pt" viewBox="0 0 244.000000 305.000000"
 preserveAspectRatio="xMidYMid meet">
<metadata>
Created by potrace 1.16, written by Peter Selinger 2001-2019
</metadata>
<g transform="translate(0.000000,305.000000) scale(0.100000,-0.100000)"
fill="#000000" stroke="none">
<path d="M885 2888 c-4 -14 -3 -34 3 -45 8 -16 7 -932 -2 -940 -2 -2 -22 9
-46 24 l-43 28 7 190 c6 193 23 377 51 546 20 126 17 144 -6 36 -30 -141 -48
-303 -54 -488 -3 -96 -8 -204 -10 -241 l-5 -66 59 -40 c59 -39 60 -39 77 -20
10 10 33 26 51 35 l33 15 0 97 c0 130 -18 428 -31 526 -12 92 -56 316 -69 348
-8 21 -8 21 -15 -5z"/>
<path d="M1578 2404 c2 -321 0 -504 -7 -504 -5 0 -28 12 -51 28 l-43 27 7 180
c8 216 21 358 47 524 11 68 18 126 15 128 -5 5 -11 -21 -31 -142 -24 -147 -34
-267 -41 -502 l-7 -222 28 -11 c16 -6 39 -22 52 -36 l24 -26 34 30 c18 17 43
33 54 37 20 6 21 14 21 128 0 155 -16 379 -36 527 -16 117 -48 282 -61 319 -5
11 -7 -207 -5 -485z"/>
<path d="M1261 2705 c-2 -135 -5 -163 -13 -135 -10 35 -10 35 -20 10 -45 -118
-75 -354 -79 -614 -1 -105 -13 -147 -23 -84 -3 18 -12 72 -20 121 -24 142 -38
139 -57 -13 l-12 -93 36 -30 c34 -27 37 -33 37 -83 0 -60 -16 -77 -52 -55 -23
14 -37 7 -33 -17 2 -9 4 -20 4 -24 2 -13 32 -38 47 -38 8 0 24 11 36 25 28 32
42 32 34 -1 -9 -36 1 -61 28 -68 27 -7 53 -55 36 -66 -6 -4 -24 5 -39 21 -29
29 -61 29 -106 2 -17 -11 -18 -14 -5 -23 8 -5 25 -10 37 -10 47 0 66 -40 79
-163 l6 -64 -31 -11 c-24 -8 -31 -17 -31 -37 0 -14 7 -28 15 -31 25 -10 19
-67 -7 -79 -31 -13 -36 -45 -9 -52 27 -7 27 -23 1 -23 -25 0 -43 35 -36 71 5
28 5 29 -38 29 -25 0 -58 -8 -74 -17 -39 -22 -70 -9 -112 48 -22 32 -30 52
-29 83 1 55 -11 138 -24 154 -16 20 -64 14 -87 -10 -32 -34 -22 -88 30 -173
93 -151 113 -194 106 -235 -4 -23 -43 -101 -94 -187 -49 -81 -113 -190 -143
-240 -29 -51 -56 -93 -60 -93 -4 0 16 69 43 153 28 83 60 181 72 217 19 60 24
65 58 75 53 14 70 36 76 93 6 66 -9 106 -64 172 -86 103 -105 178 -59 240 14
19 25 41 25 50 0 38 -113 55 -143 22 -22 -25 -21 -58 4 -135 17 -53 19 -70 10
-104 -6 -22 -19 -47 -28 -56 -18 -15 -310 -185 -368 -214 -33 -16 48 66 188
191 77 68 77 68 123 61 l45 -6 -7 98 c-9 133 -25 156 -22 31 l3 -98 -32 6
c-34 6 -60 -13 -248 -186 -33 -30 -84 -77 -113 -104 -29 -26 -51 -50 -49 -53
3 -2 83 20 179 50 320 102 308 97 308 124 0 35 20 37 81 10 59 -27 92 -57 108
-100 14 -36 9 -43 -33 -57 -33 -11 -36 -16 -75 -133 -22 -67 -60 -187 -85
-267 -24 -80 -48 -153 -52 -164 -17 -44 18 -9 267 264 156 171 147 154 123
238 l-7 24 100 -4 c91 -3 103 -5 136 -31 20 -15 37 -33 37 -40 0 -6 -14 -26
-31 -43 l-32 -33 31 -153 c78 -379 102 -491 107 -496 3 -3 5 -1 5 4 0 5 13 72
29 149 16 77 46 220 66 319 l37 178 -33 34 c-37 38 -35 51 15 88 22 17 46 22
118 25 99 3 113 -4 97 -46 -5 -14 -9 -32 -9 -42 0 -16 116 -149 322 -370 43
-46 78 -79 78 -72 0 7 -29 103 -64 214 -35 111 -74 235 -86 274 -21 70 -23 73
-62 83 -38 11 -39 13 -33 43 10 46 70 104 127 123 27 9 52 13 56 9 7 -7 8 -12
11 -38 1 -8 60 -33 149 -61 81 -27 187 -61 236 -78 48 -16 93 -27 99 -25 5 1
-68 72 -164 157 -96 85 -183 163 -194 173 -14 13 -29 17 -52 12 l-32 -6 6 91
c4 64 3 90 -6 90 -6 0 -11 -15 -11 -35 0 -19 -7 -68 -17 -110 -19 -90 -44 -64
199 -210 156 -94 223 -141 177 -123 -8 3 -94 34 -191 68 -181 64 -193 72 -168
110 7 11 2 21 -21 41 -43 35 -49 93 -19 190 33 110 12 146 -78 136 -68 -7 -77
-27 -40 -87 29 -47 29 -50 18 -104 -9 -44 -23 -71 -62 -117 -58 -70 -87 -130
-95 -197 -6 -55 -1 -68 132 -302 123 -217 126 -222 122 -226 -3 -3 -60 59
-246 271 -51 58 -60 74 -55 95 4 14 8 62 9 107 3 92 17 128 107 273 61 98 69
149 29 181 -33 27 -79 25 -85 -3 -13 -60 -17 -97 -19 -144 -2 -38 -9 -59 -31
-88 -40 -53 -68 -64 -112 -43 -19 9 -52 17 -74 17 l-39 0 -3 -48 c-3 -44 -5
-47 -33 -50 l-30 -2 28 15 c15 9 27 21 27 28 0 18 -21 37 -41 37 -17 0 -38 55
-25 67 3 4 6 1 6 -5 0 -7 8 -5 20 5 29 25 26 61 -6 75 -26 12 -26 14 -22 95 5
102 24 134 87 146 41 8 42 9 25 28 -25 27 -91 26 -121 -3 -17 -16 -26 -19 -34
-11 -14 14 16 59 44 66 13 4 17 16 17 46 0 47 11 52 34 16 28 -43 80 -23 88
35 2 20 -1 24 -17 22 -54 -9 -58 -7 -67 23 -14 50 -2 87 38 113 l36 23 -7 62
c-23 203 -43 195 -77 -31 -15 -102 -28 -73 -28 63 0 121 -25 410 -37 428 -5 7
-11 113 -14 237 l-5 225 -3 -170z m-30 -485 c-1 -170 -5 -320 -8 -332 -3 -13
-9 -43 -13 -68 -7 -41 -8 -39 -7 25 1 39 0 172 -2 296 -2 153 1 253 10 312 7
47 15 84 18 82 2 -3 4 -145 2 -315z m-38 -272 l5 -328 -20 11 c-21 11 -21 16
-14 258 6 225 15 396 21 389 2 -2 5 -150 8 -330z m44 -170 c-3 -8 -6 -5 -6 6
-1 11 2 17 5 13 3 -3 4 -12 1 -19z m-8 -141 c1 -23 -3 -36 -9 -32 -6 3 -9 43
-9 88 2 78 2 79 9 32 5 -27 9 -67 9 -88z m21 -142 c0 -13 -4 -27 -10 -30 -11
-7 -25 39 -15 55 10 16 25 2 25 -25z m-74 -423 c12 4 18 -82 6 -94 -6 -6 -12
6 -17 34 -3 23 -9 52 -11 63 -4 14 -3 16 4 7 5 -8 13 -12 18 -10z m127 -51
c-4 -20 -9 -38 -13 -41 -4 -3 -10 -14 -13 -25 -3 -11 -3 7 0 40 2 33 7 67 9
75 9 28 23 -11 17 -49z m-82 -98 c0 -10 2 -101 4 -203 2 -102 6 -223 9 -270 3
-47 2 -101 -2 -120 -8 -33 -9 -29 -27 55 -10 50 -19 124 -20 165 -3 88 -5 95
-14 55 -6 -25 -10 -14 -28 70 -22 101 -20 119 13 152 21 21 24 16 24 -46 0
-33 4 -62 9 -65 4 -3 6 25 3 63 -3 51 -1 74 11 92 11 16 13 29 7 39 -13 19
-12 30 0 30 6 0 10 -8 11 -17z m16 -5 c-3 -8 -6 -5 -6 6 -1 11 2 17 5 13 3 -3
4 -12 1 -19z"/>
<path d="M1551 2824 c0 -11 3 -14 6 -6 3 7 2 16 -1 19 -3 4 -6 -2 -5 -13z"/>
<path d="M755 1863 c-34 -8 -55 -34 -55 -69 0 -32 0 -32 40 -27 47 7 82 -12
105 -57 14 -28 14 -31 -5 -47 -38 -33 -21 -109 45 -204 25 -35 45 -70 45 -78
0 -7 -16 -31 -35 -52 -41 -45 -44 -77 -12 -107 52 -49 119 -34 97 22 -14 37
-13 71 3 84 9 8 30 4 75 -11 48 -17 66 -19 79 -11 30 19 20 34 -38 58 -31 12
-70 32 -87 44 -59 42 -122 139 -122 187 0 38 13 30 34 -22 28 -67 137 -168
204 -188 18 -5 22 -2 22 14 0 12 -21 36 -57 63 -67 50 -123 128 -123 169 0 18
-7 32 -20 39 -28 15 -25 37 10 72 28 27 36 30 75 25 44 -4 45 -4 45 23 0 44
-30 72 -77 74 -49 1 -77 -20 -94 -72 l-12 -36 -19 37 c-26 52 -77 81 -123 70z"/>
<path d="M1435 1859 c-31 -17 -45 -40 -45 -71 0 -27 1 -28 39 -22 46 7 76 -6
96 -45 13 -26 13 -30 -5 -46 -11 -10 -20 -30 -20 -45 0 -40 -58 -118 -123
-168 -36 -27 -57 -51 -57 -63 0 -16 4 -19 23 -14 65 20 184 133 208 198 14 40
29 49 29 18 0 -37 -38 -107 -84 -154 -40 -42 -100 -77 -168 -100 -22 -8 -23
-21 -3 -37 13 -11 28 -9 85 7 94 28 101 19 75 -88 -6 -23 -3 -27 19 -33 31 -8
81 15 96 44 15 27 6 51 -36 101 -19 22 -31 46 -27 52 4 7 24 35 44 62 41 54
74 151 62 181 -4 10 -13 24 -21 30 -12 9 -12 15 2 42 23 44 57 64 102 60 41
-3 50 7 40 47 -8 32 -59 58 -95 50 -32 -7 -75 -49 -86 -83 -8 -28 -21 -21 -28
17 -10 48 -81 82 -122 60z"/>
</g>
</svg>
