<?xml version="1.0" standalone="no"?>
<!DOCTYPE svg PUBLIC "-//W3C//DTD SVG 20010904//EN"
 "http://www.w3.org/TR/2001/REC-SVG-20010904/DTD/svg10.dtd">
<svg version="1.0" xmlns="http://www.w3.org/2000/svg"
 width="244.000000pt" height="305.000000pt" viewBox="0 0 244.000000 305.000000"
 preserveAspectRatio="xMidYMid meet">
<metadata>
Created by potrace 1.16, written by Peter Selinger 2001-2019
</metadata>
<g transform="translate(0.000000,305.000000) scale(0.100000,-0.100000)"
fill="#000000" stroke="none">
<path d="M1122 2890 c0 -14 2 -19 5 -12 2 6 2 18 0 25 -3 6 -5 1 -5 -13z"/>
<path d="M1560 2905 c-1 -5 -3 -20 -6 -33 -2 -14 0 -21 6 -17 7 4 10 -154 9
-474 0 -365 -3 -481 -12 -481 -7 1 -27 14 -46 30 -33 28 -34 32 -32 92 1 35
-3 70 -9 78 -7 11 -10 -14 -10 -81 l0 -97 29 -12 c16 -6 39 -22 52 -36 l22
-23 31 27 c17 15 42 34 55 43 l25 15 -12 247 c-7 136 -19 300 -27 364 -23 175
-70 399 -75 358z"/>
<path d="M900 2888 c0 -9 -3 -24 -7 -34 -4 -12 -3 -15 5 -10 9 5 12 -108 12
-468 0 -262 -3 -476 -7 -476 -5 0 -19 9 -33 20 -14 11 -31 20 -37 20 -36 0 -1
550 53 849 4 20 4 33 0 30 -12 -12 -54 -282 -65 -419 -6 -74 -13 -213 -16
-308 l-6 -172 28 -11 c15 -6 40 -22 56 -37 l27 -26 16 22 c8 12 31 29 51 38
l36 18 -7 195 c-10 299 -26 450 -68 661 -19 95 -38 150 -38 108z"/>
<path d="M1341 2874 c0 -11 3 -14 6 -6 3 7 2 16 -1 19 -3 4 -6 -2 -5 -13z"/>
<path d="M1341 2834 c0 -11 3 -14 6 -6 3 7 2 16 -1 19 -3 4 -6 -2 -5 -13z"/>
<path d="M1106 2718 c-3 -62 -9 -223 -13 -358 -3 -135 -10 -250 -15 -257 -5
-7 -15 -58 -21 -114 -9 -80 -9 -103 1 -107 7 -2 12 -10 12 -18 0 -14 -13 -14
-73 3 -21 6 -77 -48 -77 -75 0 -35 -13 -32 -33 9 -24 49 -45 61 -99 57 -35 -2
-45 -8 -60 -34 -27 -46 -15 -65 33 -58 35 6 42 3 74 -29 37 -37 45 -71 19 -81
-36 -14 7 -163 66 -231 32 -37 31 -44 -5 -83 -19 -22 -38 -53 -41 -69 -5 -25
-1 -34 25 -56 17 -14 31 -33 31 -41 0 -29 -29 -17 -56 23 -21 32 -26 55 -30
118 -5 91 -7 104 -17 121 -13 20 -64 14 -87 -10 -37 -40 -29 -67 89 -281 55
-100 53 -131 -14 -249 -27 -45 -61 -105 -76 -133 -73 -133 -159 -279 -159
-270 0 11 48 169 99 324 l37 115 42 14 c50 16 62 35 67 106 4 60 -12 99 -74
176 -50 62 -60 84 -67 134 -5 36 -2 50 20 82 31 46 33 70 7 84 -25 13 -87 13
-112 0 -24 -13 -26 -84 -4 -137 19 -45 19 -106 0 -143 -10 -19 -58 -54 -157
-113 -249 -147 -253 -147 -98 3 l135 131 45 -3 45 -3 -2 50 c-5 101 -14 155
-25 149 -10 -7 -3 -129 9 -161 5 -13 0 -15 -31 -9 -40 8 -21 23 -359 -293 -26
-24 -45 -46 -43 -49 5 -4 429 134 459 149 9 6 17 21 17 34 0 31 19 32 75 5 45
-22 86 -62 102 -100 14 -34 7 -47 -32 -60 -25 -8 -37 -20 -44 -43 -42 -130
-161 -530 -161 -540 0 -6 15 6 33 28 17 22 55 65 82 96 28 30 80 89 116 130
179 203 170 188 152 241 -7 22 -11 43 -8 47 11 10 125 5 136 -6 8 -8 3 -81
-16 -251 -15 -133 -25 -248 -23 -257 2 -14 48 127 89 278 11 40 29 50 29 16 0
-20 109 -571 114 -576 2 -2 29 131 61 295 32 163 61 301 65 305 4 4 22 -43 39
-105 42 -145 73 -235 66 -189 -3 18 -5 54 -6 80 -1 33 -3 39 -8 23 -4 -16 -19
43 -43 174 -20 109 -35 201 -33 205 7 11 183 11 190 0 3 -6 -1 -27 -10 -47
-16 -40 -15 -43 31 -94 17 -19 104 -117 193 -218 88 -100 161 -178 161 -171 0
11 -33 120 -127 421 -44 139 -48 147 -75 153 -78 18 -37 114 70 162 57 25 72
23 72 -7 0 -10 6 -22 12 -27 7 -4 112 -40 233 -80 121 -40 226 -75 234 -78 12
-5 12 -3 0 12 -7 10 -19 23 -26 29 -20 17 -228 210 -288 267 -44 42 -54 47
-83 43 l-33 -5 7 90 c9 114 -8 118 -25 7 -7 -46 -15 -97 -18 -114 -5 -30 -1
-33 94 -93 54 -34 107 -68 117 -74 55 -33 171 -109 176 -114 9 -10 -115 32
-313 107 l-58 22 6 37 c5 32 3 39 -19 50 -42 23 -48 92 -16 193 25 79 25 93 0
118 -24 24 -96 27 -126 5 -19 -14 -18 -15 9 -65 45 -83 35 -131 -52 -245 -33
-42 -56 -86 -67 -123 -8 -31 -17 -62 -19 -69 -8 -23 16 -81 86 -208 139 -255
170 -315 162 -314 -4 0 -30 27 -58 61 -44 53 -84 101 -159 188 -73 86 -80 98
-67 139 6 22 10 70 10 108 -2 75 5 93 94 242 59 99 70 154 37 189 -21 22 -55
29 -75 14 -16 -10 -38 -133 -30 -165 5 -19 1 -35 -16 -59 -31 -46 -58 -70 -68
-63 -5 3 -11 0 -13 -6 -13 -40 -76 58 -85 132 -5 40 -3 47 15 51 13 4 23 0 26
-9 8 -21 8 -23 -9 -23 -8 0 -15 -7 -15 -15 0 -8 5 -15 11 -15 7 0 9 -11 5 -30
-5 -25 -2 -32 18 -41 36 -17 99 21 105 64 2 14 -27 62 -53 86 -33 31 -33 36 4
77 44 51 71 110 77 171 5 45 3 56 -13 68 -19 13 -19 14 -1 48 22 41 47 55 102
59 36 3 40 5 37 28 -5 40 -49 73 -90 67 -42 -7 -61 -23 -79 -64 -14 -36 -33
-44 -33 -15 0 52 -62 90 -117 71 -39 -13 -57 -4 -30 15 21 16 22 65 1 166 -9
41 -19 120 -23 175 l-6 100 -7 -160 c-3 -88 -11 -173 -16 -190 -7 -21 -11 92
-13 400 -2 380 -3 411 -11 265 -5 -91 -11 -217 -15 -280 l-7 -115 -12 86 c-6
47 -22 130 -34 185 l-23 99 -14 -45 c-21 -65 -53 -245 -55 -304 -1 -47 -2 -46
-8 19 -4 48 -7 7 -8 -130 -2 -186 -10 -251 -25 -211 -3 8 -6 212 -7 453 0 240
-2 438 -4 440 -1 2 -6 -47 -10 -109z m105 -553 c-6 -293 -7 -297 -16 -175 -6
88 -11 116 -16 95 -10 -42 0 105 17 252 8 67 14 125 14 129 0 4 2 5 4 3 2 -2
1 -139 -3 -304z m-64 -287 c-3 -8 -6 -5 -6 6 -1 11 2 17 5 13 3 -3 4 -12 1
-19z m180 -10 c-3 -7 -5 -2 -5 12 0 14 2 19 5 13 2 -7 2 -19 0 -25z m-130 -41
c3 -20 2 -53 -2 -74 -7 -36 -8 -37 -18 -15 -8 18 -8 25 2 32 13 7 10 52 -6 98
-4 13 -3 14 6 6 6 -6 14 -27 18 -47z m-128 -63 c21 -5 31 -12 31 -25 0 -21
-20 -25 -38 -7 -9 9 -15 9 -23 1 -18 -18 8 -72 37 -79 37 -9 33 -63 -6 -92
-16 -12 -34 -22 -39 -22 -18 0 -51 53 -51 81 0 17 -9 37 -20 46 -27 24 -25 39
9 74 30 30 46 33 100 23z m428 -16 c31 -35 34 -54 12 -79 -10 -12 -19 -31 -19
-43 0 -29 -36 -86 -55 -86 -8 0 -15 4 -15 8 0 5 -11 15 -25 22 -35 19 -36 75
-2 84 36 9 65 86 33 86 -8 0 -18 -4 -21 -10 -10 -16 -35 -12 -35 5 0 37 96 46
127 13z m-350 -70 c-3 -8 -6 -5 -6 6 -1 11 2 17 5 13 3 -3 4 -12 1 -19z m59
-44 c-6 -17 -32 -9 -40 13 -4 11 -2 13 9 9 10 -3 17 3 22 22 l8 27 3 -28 c2
-16 1 -35 -2 -43z m121 44 c-3 -8 -6 -5 -6 6 -1 11 2 17 5 13 3 -3 4 -12 1
-19z m-383 -119 c16 -32 33 -59 38 -59 4 0 8 -7 8 -15 0 -8 5 -15 10 -15 6 0
10 -12 10 -27 l0 -27 -36 40 c-41 43 -73 107 -74 142 0 36 13 25 44 -39z m183
39 c-3 -8 -6 -5 -6 6 -1 11 2 17 5 13 3 -3 4 -12 1 -19z m60 -11 c-7 -21 -32
-13 -35 11 -3 21 -1 22 18 12 12 -6 19 -17 17 -23z m160 11 c-3 -8 -6 -5 -6 6
-1 11 2 17 5 13 3 -3 4 -12 1 -19z m223 0 c0 -29 -33 -95 -70 -138 -28 -33
-29 -33 -30 -12 0 13 14 43 31 68 16 24 35 58 41 74 12 35 28 40 28 8z m-250
-3 c0 -21 -30 -31 -40 -14 -11 17 -3 29 21 29 10 0 19 -7 19 -15z m-215 -67
c1 -2 5 -20 9 -41 7 -37 6 -38 -14 -27 -19 10 -40 47 -40 70 0 8 39 6 45 -2z
m300 -15 c-5 -25 -44 -67 -53 -58 -10 9 12 75 27 78 31 9 33 7 26 -20z m-165
-13 c0 -16 -2 -30 -4 -30 -2 0 -6 14 -8 30 -3 17 -1 30 4 30 4 0 8 -13 8 -30z
m-80 -44 c4 -17 11 -40 15 -51 6 -14 5 -17 -3 -10 -9 9 -43 108 -42 124 1 13
23 -34 30 -63z m160 -11 c-7 -25 -17 -48 -23 -52 -6 -4 -8 0 -4 9 3 9 11 34
18 57 17 56 25 43 9 -14z m137 -17 c-3 -7 -5 -2 -5 12 0 14 2 19 5 13 2 -7 2
-19 0 -25z m-400 -30 c-3 -8 -6 -5 -6 6 -1 11 2 17 5 13 3 -3 4 -12 1 -19z
m359 -5 c-10 -10 -19 5 -10 18 6 11 8 11 12 0 2 -7 1 -15 -2 -18z m-281 -24
c-11 -17 -35 -9 -35 11 0 18 3 19 20 10 11 -6 18 -15 15 -21z m235 11 c0 -13
-7 -20 -20 -20 -25 0 -26 16 -2 29 23 14 22 14 22 -9z m-370 -67 c0 -20 -3
-24 -11 -16 -7 7 -9 19 -6 27 10 24 17 19 17 -11z m11 -106 c-6 -6 -11 -19
-11 -28 0 -9 -7 -19 -15 -23 -20 -7 -19 3 5 39 13 20 21 50 22 90 l2 60 3 -64
c2 -36 0 -68 -6 -74z m68 40 c17 -81 7 -83 -13 -3 -18 74 -19 84 -8 71 5 -6
14 -36 21 -68z m92 50 c-13 -13 -26 -3 -16 12 3 6 11 8 17 5 6 -4 6 -10 -1
-17z m149 8 c0 -9 -6 -12 -15 -9 -8 4 -12 10 -9 15 8 14 24 10 24 -6z m80 -70
c-13 -61 -26 -76 -16 -17 13 75 19 97 23 85 3 -7 -1 -37 -7 -68z m-35 11 c-7
-47 -24 -96 -34 -96 -3 1 -17 10 -30 20 -20 17 -21 23 -10 36 12 14 14 14 25
-1 11 -15 13 -15 24 5 7 13 12 37 13 56 1 18 5 30 10 27 4 -3 6 -24 2 -47z
m-233 -43 c9 -11 13 -10 23 3 13 18 35 11 35 -10 0 -16 -47 -49 -59 -42 -11 7
-31 87 -30 118 1 15 4 9 10 -16 5 -22 14 -45 21 -53z m235 -115 c-3 -8 -6 -5
-6 6 -1 11 2 17 5 13 3 -3 4 -12 1 -19z m-124 -165 c-5 -12 -7 -12 -14 -1 -13
20 -11 28 5 22 8 -3 12 -12 9 -21z m-128 -32 c6 -28 -20 -143 -69 -306 -25
-81 -34 -88 -17 -12 6 23 22 111 37 195 15 83 31 152 35 152 4 0 10 -13 14
-29z m45 -21 c0 -10 -7 -23 -15 -30 -13 -11 -15 -7 -15 30 0 37 2 41 15 30 8
-7 15 -20 15 -30z m180 -10 c0 -39 0 -39 -20 -23 -24 21 -25 27 -4 47 22 23
24 21 24 -24z m-130 -6 c0 -8 -5 -24 -10 -34 -10 -18 0 -253 16 -395 10 -88
-6 -41 -41 121 -53 246 -53 237 -14 283 37 43 49 49 49 25z"/>
<path d="M1516 2703 c-33 -184 -62 -551 -43 -569 4 -4 7 26 7 67 0 102 17 288
40 448 11 74 18 136 16 138 -2 2 -11 -36 -20 -84z"/>
<path d="M1132 2750 c0 -19 2 -27 5 -17 2 9 2 25 0 35 -3 9 -5 1 -5 -18z"/>
<path d="M1143 2580 c0 -25 2 -35 4 -22 2 12 2 32 0 45 -2 12 -4 2 -4 -23z"/>
<path d="M1422 810 c0 -19 2 -27 5 -17 2 9 2 25 0 35 -3 9 -5 1 -5 -18z"/>
<path d="M1433 715 c0 -22 2 -30 4 -17 2 12 2 30 0 40 -3 9 -5 -1 -4 -23z"/>
<path d="M1443 615 c0 -22 2 -30 4 -17 2 12 2 30 0 40 -3 9 -5 -1 -4 -23z"/>
</g>
</svg>
