<?xml version="1.0" standalone="no"?>
<!DOCTYPE svg PUBLIC "-//W3C//DTD SVG 20010904//EN"
 "http://www.w3.org/TR/2001/REC-SVG-20010904/DTD/svg10.dtd">
<svg version="1.0" xmlns="http://www.w3.org/2000/svg"
 width="244.000000pt" height="305.000000pt" viewBox="0 0 244.000000 305.000000"
 preserveAspectRatio="xMidYMid meet">
<metadata>
Created by potrace 1.16, written by Peter Selinger 2001-2019
</metadata>
<g transform="translate(0.000000,305.000000) scale(0.100000,-0.100000)"
fill="#000000" stroke="none">
<path d="M890 2893 c0 -12 -3 -30 -6 -40 -5 -15 -4 -15 5 -3 8 11 11 -120 11
-467 0 -266 -2 -483 -5 -483 -3 0 -24 12 -47 27 l-41 28 6 215 c6 206 24 400
47 523 6 32 10 66 8 75 -4 18 -31 -125 -48 -253 -14 -108 -33 -589 -23 -592 8
-3 56 -34 83 -54 12 -8 27 -3 67 23 l52 33 0 160 c1 251 -23 486 -76 735 -15
75 -33 113 -33 73z"/>
<path d="M1560 2886 c0 -8 -3 -23 -6 -33 -5 -15 -4 -15 5 -3 8 11 11 -120 11
-467 0 -266 -2 -483 -5 -483 -3 0 -23 12 -45 26 l-40 27 0 126 c0 201 29 504
67 703 3 18 3 30 -1 27 -22 -21 -62 -338 -76 -608 -12 -233 -8 -276 24 -292
11 -7 33 -22 47 -36 l26 -24 29 24 c16 13 39 29 52 36 21 11 22 16 22 179 0
182 -12 349 -35 506 -21 146 -56 306 -66 306 -5 0 -9 -6 -9 -14z"/>
<path d="M871 2804 c0 -11 3 -14 6 -6 3 7 2 16 -1 19 -3 4 -6 -2 -5 -13z"/>
<path d="M1267 2722 c-5 -7 -6 -61 -2 -120 l5 -107 -18 55 c-15 46 -19 51 -23
30 -2 -14 -2 -184 1 -378 4 -269 2 -351 -7 -348 -6 3 -14 0 -17 -7 -3 -9 -8
-8 -15 3 -8 12 -11 6 -11 -25 0 -58 11 -115 21 -109 13 8 11 -28 -3 -59 -37
-78 -45 21 -28 353 18 350 28 394 26 117 0 -130 2 -237 7 -237 4 0 7 3 7 8 1
54 1 650 1 715 -1 54 -5 87 -12 87 -7 0 -8 -30 -3 -93 5 -67 2 -120 -10 -193
-22 -129 -24 -155 -32 -372 -7 -182 -16 -230 -29 -150 -19 128 -38 218 -45
218 -10 0 -27 -75 -34 -152 -5 -49 -3 -61 14 -78 11 -11 24 -20 29 -20 17 0
33 -59 27 -95 -8 -40 -29 -54 -57 -37 -26 16 -29 15 -29 -11 0 -28 26 -67 46
-67 8 0 25 11 38 25 32 34 37 32 31 -15 -4 -36 -2 -42 20 -50 18 -7 25 -17 25
-36 0 -26 -1 -26 -19 -10 -26 24 -78 24 -102 0 -19 -19 -19 -20 25 -33 38 -11
47 -19 60 -52 9 -22 16 -69 16 -108 0 -63 -2 -69 -25 -79 -26 -12 -35 -54 -15
-67 6 -3 10 -16 11 -28 1 -20 2 -20 9 3 8 24 8 23 9 -8 1 -26 -4 -34 -24 -42
-27 -10 -34 -47 -13 -68 8 -8 8 -12 1 -12 -19 0 -35 29 -35 65 0 34 -1 35 -39
35 -22 0 -54 -7 -71 -16 -40 -21 -78 -5 -118 50 -25 33 -30 48 -25 76 3 19 -1
64 -8 100 -13 63 -15 65 -46 68 -89 9 -95 -84 -14 -213 117 -187 118 -197 27
-355 -37 -63 -102 -177 -146 -253 -44 -76 -82 -136 -84 -134 -3 2 23 89 57
193 34 104 64 199 66 211 6 28 18 37 66 52 46 16 59 38 60 110 0 64 -8 83 -72
166 -57 73 -71 104 -71 157 0 28 8 51 25 74 14 18 25 37 25 42 0 21 -40 43
-79 44 -76 1 -99 -48 -66 -142 19 -54 19 -113 0 -149 -10 -21 -131 -111 -149
-111 -2 0 -59 -31 -127 -70 -68 -38 -126 -67 -128 -64 -3 3 0 8 6 12 6 4 55
48 109 98 179 165 168 157 220 149 l45 -6 -7 73 c-3 40 -10 91 -14 113 -7 38
-7 39 -14 13 -4 -15 -4 -59 1 -98 l10 -71 -36 5 c-35 6 -41 1 -196 -139 -88
-80 -173 -160 -190 -177 l-30 -30 30 6 c17 4 128 39 247 78 205 67 217 72 220
97 2 21 8 26 28 23 43 -4 114 -47 138 -82 32 -48 26 -80 -18 -94 -32 -10 -36
-16 -61 -96 -15 -47 -54 -172 -88 -279 -33 -107 -61 -199 -61 -205 1 -6 13 3
28 20 15 17 69 78 121 135 292 321 265 287 251 324 -23 61 -19 65 79 65 75 0
93 -3 121 -23 56 -37 59 -52 22 -90 l-33 -34 35 -179 c39 -198 97 -468 100
-471 2 -2 15 57 30 130 34 160 32 149 39 167 3 8 8 35 11 60 3 25 16 99 30
165 22 107 23 122 10 143 -9 13 -22 26 -30 29 -17 6 -18 32 -1 54 26 35 74 49
163 49 l86 0 -6 -36 c-4 -19 -9 -41 -12 -49 -3 -7 39 -62 93 -122 232 -260
298 -331 301 -324 1 4 -29 111 -68 237 -109 353 -95 319 -141 337 -35 14 -40
19 -34 39 17 57 71 106 139 128 41 13 55 5 56 -30 0 -12 50 -32 178 -74 97
-32 203 -67 235 -78 32 -11 60 -19 62 -16 3 3 -38 45 -92 94 -53 49 -124 114
-157 145 -113 105 -123 111 -156 104 l-30 -7 7 91 c4 66 3 91 -6 91 -6 0 -11
-16 -11 -38 0 -21 -7 -64 -15 -95 -8 -32 -15 -66 -15 -75 0 -11 64 -57 191
-136 104 -65 188 -120 186 -122 -4 -5 -101 28 -279 93 -78 28 -93 44 -66 71 9
9 5 18 -21 40 -29 24 -35 36 -38 83 -3 38 2 72 16 113 26 74 26 91 1 116 -34
34 -140 21 -140 -18 0 -10 11 -33 25 -52 45 -61 29 -130 -56 -234 -55 -68 -96
-175 -85 -226 3 -17 62 -132 131 -256 70 -124 124 -228 122 -230 -2 -3 -40 37
-83 88 -43 51 -81 95 -85 98 -3 3 -34 38 -67 78 l-61 74 5 96 c8 133 15 153
90 278 79 129 90 176 51 212 -17 16 -34 22 -53 20 -27 -3 -30 -8 -42 -63 -7
-33 -10 -75 -8 -94 6 -42 -12 -78 -59 -120 -39 -34 -60 -38 -89 -16 -11 8 -39
15 -63 15 -42 0 -43 -1 -43 -34 0 -19 -3 -41 -6 -50 -7 -17 -34 -22 -34 -6 0
6 5 10 10 10 16 0 12 50 -5 56 -17 7 -21 69 -5 79 21 13 11 55 -16 67 -27 12
-27 13 -21 97 7 98 25 132 76 142 41 8 47 15 31 34 -16 20 -79 19 -108 -1 -21
-14 -22 -14 -22 11 0 18 6 29 20 32 16 4 20 14 20 49 0 24 2 44 5 44 2 0 15
-11 29 -25 14 -14 32 -25 40 -25 20 0 46 39 46 68 0 19 -4 23 -17 17 -41 -18
-58 -11 -67 26 -13 52 -1 84 40 108 33 20 35 24 30 59 -19 132 -29 182 -36
182 -7 0 -29 -102 -45 -207 -13 -85 -25 -54 -25 64 0 65 -7 181 -16 258 -9 77
-19 223 -23 325 -3 102 -10 179 -14 172z m-50 -974 c-3 -8 -6 -5 -6 6 -1 11 2
17 5 13 3 -3 4 -12 1 -19z m13 -95 c0 -42 -3 -54 -11 -46 -11 11 -5 103 7 103
2 0 4 -26 4 -57z m8 -140 c7 -2 12 8 13 25 0 24 1 25 9 7 4 -11 4 -24 -1 -29
-5 -6 -9 -18 -9 -28 0 -31 -27 -20 -34 13 -8 40 -6 72 3 39 3 -14 12 -26 19
-27z m-53 -465 c4 -18 8 -40 11 -49 3 -9 -2 -16 -11 -16 -9 0 -15 10 -15 26 0
14 -3 36 -6 49 -4 12 -2 22 4 22 6 0 13 -15 17 -32z m121 10 c-3 -13 -6 -36
-6 -51 0 -16 -4 -26 -9 -22 -5 3 -12 -7 -14 -22 -3 -20 -4 -15 -6 15 0 27 3
41 9 37 6 -4 10 8 10 29 0 20 5 36 11 36 7 0 9 -9 5 -22z m-86 -140 c0 -19 -2
-20 -10 -8 -13 19 -13 30 0 30 6 0 10 -10 10 -22z m17 0 c-3 -8 -6 -5 -6 6 -1
11 2 17 5 13 3 -3 4 -12 1 -19z m-10 -325 l1 -298 -24 105 c-13 58 -24 137
-25 175 -2 45 -4 58 -7 35 -4 -29 -9 -18 -28 70 -23 105 -23 105 -3 125 28 29
38 7 40 -85 2 -73 2 -73 14 45 14 135 12 125 23 125 4 0 8 -134 9 -297z m-40
230 c-3 -10 -5 -4 -5 12 0 17 2 24 5 18 2 -7 2 -21 0 -30z"/>
<path d="M745 1858 c-31 -18 -45 -41 -42 -68 2 -23 6 -24 45 -22 37 3 47 -1
77 -31 38 -38 43 -58 20 -77 -41 -34 -6 -139 90 -266 7 -10 1 -23 -22 -46 -48
-50 -59 -86 -35 -117 22 -30 86 -51 103 -34 8 8 8 25 -2 62 -11 44 -11 53 2
65 12 12 23 11 77 -7 47 -16 67 -19 80 -11 30 20 18 36 -45 61 -40 16 -79 41
-109 71 -45 46 -94 131 -94 165 0 30 16 19 36 -25 35 -78 152 -188 201 -188
37 0 27 27 -23 63 -59 42 -134 140 -134 177 0 15 -7 33 -15 40 -22 18 -18 48
10 76 21 21 34 25 73 23 44 -3 47 -1 44 21 -10 92 -124 106 -160 20 -9 -22
-20 -40 -24 -40 -4 0 -14 16 -23 35 -10 24 -25 40 -49 50 -42 18 -54 18 -81 3z"/>
<path d="M1429 1855 c-26 -14 -54 -69 -44 -85 3 -4 24 -6 47 -3 36 4 47 0 71
-22 30 -28 34 -50 14 -74 -8 -9 -19 -34 -25 -57 -15 -53 -71 -123 -122 -154
-36 -22 -61 -62 -47 -76 3 -3 25 4 50 16 57 27 142 115 168 175 11 25 24 45
29 45 13 0 13 -10 -5 -59 -32 -93 -107 -166 -205 -201 -32 -11 -45 -21 -45
-35 0 -28 41 -30 106 -6 29 12 57 17 61 13 11 -11 12 -50 4 -93 -7 -32 -5 -37
14 -42 44 -11 100 27 100 68 0 13 -16 44 -35 69 -19 26 -35 48 -35 51 0 3 20
34 45 70 61 89 85 188 50 201 -20 8 -19 44 3 70 25 31 58 46 95 42 27 -2 33 1
35 20 2 13 -4 34 -12 48 -13 19 -25 24 -57 24 -54 0 -75 -13 -101 -63 l-21
-42 -8 31 c-17 61 -82 96 -130 69z"/>
</g>
</svg>
