<?xml version="1.0" standalone="no"?>
<!DOCTYPE svg PUBLIC "-//W3C//DTD SVG 20010904//EN"
 "http://www.w3.org/TR/2001/REC-SVG-20010904/DTD/svg10.dtd">
<svg version="1.0" xmlns="http://www.w3.org/2000/svg"
 width="244.000000pt" height="305.000000pt" viewBox="0 0 244.000000 305.000000"
 preserveAspectRatio="xMidYMid meet">
<metadata>
Created by potrace 1.16, written by Peter Selinger 2001-2019
</metadata>
<g transform="translate(0.000000,305.000000) scale(0.100000,-0.100000)"
fill="#000000" stroke="none">
<path d="M958 2402 l3 -506 -28 24 c-15 13 -36 33 -45 43 -17 19 -18 18 -18
-11 0 -21 6 -33 18 -36 31 -10 75 -63 68 -81 -5 -15 -10 -13 -37 9 -17 14 -39
26 -50 26 -28 0 -69 -44 -69 -75 0 -22 4 -25 39 -25 31 0 44 -6 60 -26 31 -39
35 -63 15 -85 -13 -14 -16 -30 -11 -67 5 -40 3 -50 -14 -60 -10 -7 -19 -23
-19 -37 0 -14 -8 -29 -20 -35 -31 -17 -43 -49 -41 -112 2 -62 -12 -77 -29 -32
-16 42 -11 92 15 143 23 47 23 49 6 65 -26 24 -90 24 -107 1 -18 -24 -17 -56
1 -125 35 -131 17 -165 -152 -280 -11 -8 -50 -35 -85 -61 -90 -64 -107 -67
-56 -10 24 27 77 88 118 135 73 84 76 86 113 81 l37 -5 -1 67 c0 38 -4 88 -8
113 -7 38 -9 30 -10 -52 l-1 -97 -27 4 c-25 4 -43 -12 -185 -172 -87 -97 -156
-178 -154 -180 3 -4 20 2 106 38 25 10 88 34 140 54 52 20 105 41 117 47 13 6
25 9 28 7 2 -3 -11 -31 -31 -63 -19 -32 -33 -61 -30 -63 2 -3 48 21 101 51 53
31 101 56 106 56 10 0 29 -43 29 -66 0 -8 -14 -20 -30 -26 -35 -12 -32 -3
-119 -348 -54 -215 -64 -271 -41 -229 5 8 42 60 82 114 41 55 89 121 108 147
18 27 35 47 37 45 1 -2 -4 -41 -13 -88 -28 -158 -34 -193 -29 -197 2 -2 52 91
110 208 101 205 105 215 99 262 -6 46 -5 48 17 48 36 0 88 -36 95 -65 5 -19 1
-32 -15 -49 -11 -12 -21 -34 -21 -48 0 -28 98 -630 104 -635 3 -4 107 623 106
646 0 7 -11 26 -25 43 -18 21 -22 34 -16 46 17 31 48 53 86 59 l38 6 -6 -52
c-6 -52 -4 -57 105 -277 61 -123 112 -223 114 -222 1 2 -9 68 -22 148 -13 80
-23 149 -21 154 1 4 16 -11 31 -35 54 -82 181 -249 190 -249 4 0 6 7 2 15 -3
8 -31 113 -61 233 -84 326 -82 319 -111 326 -22 6 -25 11 -22 44 2 25 8 38 20
40 10 2 66 -26 125 -62 59 -36 109 -63 111 -61 3 2 -13 35 -36 72 -22 37 -39
69 -37 71 3 3 101 -35 150 -58 11 -5 56 -23 100 -40 44 -17 87 -34 95 -38 14
-6 -17 36 -75 103 -15 17 -48 55 -73 85 -114 134 -145 162 -173 156 l-26 -5 3
97 3 97 -13 -85 c-8 -47 -17 -99 -21 -116 -6 -27 -2 -34 47 -75 29 -24 71 -58
93 -74 22 -16 42 -31 45 -34 3 -4 31 -26 63 -50 32 -24 56 -45 54 -48 -2 -2
-51 17 -108 43 -57 25 -121 53 -142 62 -36 15 -38 18 -32 48 4 26 1 37 -20 58
-21 21 -25 34 -25 84 0 32 7 81 15 108 20 65 19 97 -3 117 -32 29 -112 16
-112 -18 0 -8 9 -32 20 -52 22 -41 26 -87 10 -127 -15 -40 -34 -33 -27 11 8
49 -11 126 -29 119 -10 -4 -14 4 -14 29 0 26 -6 39 -25 51 -21 14 -25 24 -25
65 0 26 -4 51 -10 54 -5 3 -10 19 -10 35 0 39 51 82 94 78 28 -3 31 -1 28 22
-9 63 -60 90 -106 55 -49 -37 -50 13 -1 52 l35 28 0 140 c0 146 -13 364 -31
525 -9 88 -45 299 -51 306 -2 1 -2 -223 0 -498 3 -409 1 -499 -10 -496 -10 4
-14 63 -20 259 -3 140 -7 299 -9 354 -1 55 0 129 4 165 6 63 6 63 -5 20 -13
-51 -12 -53 -29 93 -6 59 -14 105 -16 103 -3 -2 -4 -228 -3 -503 0 -447 -1
-496 -15 -477 -8 12 -20 66 -26 120 -6 55 -12 100 -14 102 -2 2 -6 -16 -10
-40 -11 -63 -24 -82 -25 -33 0 42 -15 39 -23 -5 -2 -14 -5 2 -6 35 -4 193 -53
528 -71 494 -20 -37 -58 -332 -61 -479 -1 -41 -4 -64 -6 -50 -8 43 -23 47 -23
5 0 -21 -3 -36 -6 -32 -17 16 -33 145 -34 259 0 126 -24 453 -39 538 -5 27 -9
-102 -10 -324 0 -203 -3 -367 -5 -365 -2 2 -6 81 -10 174 -7 184 -12 240 -26
325 -5 30 -17 100 -26 155 -8 55 -19 103 -22 107 -4 4 -6 -221 -4 -500z m272
-363 c0 -383 -2 -429 -15 -415 -8 8 -15 27 -16 43 0 25 -1 26 -9 8 -8 -19 -9
-19 -9 2 -1 12 3 24 8 27 4 3 11 151 15 328 6 298 13 438 22 438 2 0 4 -194 4
-431z m-43 -116 c-2 -37 -3 -9 -3 62 0 72 1 102 3 68 2 -34 2 -93 0 -130z
m-140 -15 c-3 -8 -6 -5 -6 6 -1 11 2 17 5 13 3 -3 4 -12 1 -19z m-22 -29 c0
-8 -10 -15 -22 -17 -25 -4 -30 7 -11 26 15 15 33 10 33 -9z m455 0 c0 -12 -29
-24 -37 -16 -3 4 -3 13 0 21 6 16 37 11 37 -5z m-70 -10 c0 -5 -7 -9 -15 -9
-15 0 -20 12 -9 23 8 8 24 -1 24 -14z m-310 1 c0 -5 -7 -10 -15 -10 -8 0 -15
5 -15 10 0 6 7 10 15 10 8 0 15 -4 15 -10z m30 -112 c0 -7 -5 -20 -10 -28 -8
-12 -11 -13 -22 -2 -11 11 -9 16 6 28 24 17 26 17 26 2z m240 -3 c10 -12 10
-19 2 -27 -13 -13 -47 16 -37 32 9 14 21 12 35 -5z m-344 -63 c7 -34 -5 -42
-25 -18 -13 16 -3 72 10 59 5 -5 12 -23 15 -41z m444 8 c0 -20 -5 -30 -15 -30
-17 0 -18 4 -9 38 9 32 24 27 24 -8z m-326 -46 c9 -3 16 -12 16 -20 0 -7 9
-18 21 -24 11 -7 27 -27 35 -46 8 -19 16 -34 19 -34 3 0 11 15 19 34 8 19 24
39 35 46 12 6 21 17 21 24 0 18 22 26 50 19 17 -4 20 -12 18 -37 -3 -29 -5
-31 -45 -31 -51 -1 -61 -9 -83 -74 l-17 -50 -12 50 c-15 58 -41 80 -83 72 -33
-6 -48 7 -48 44 0 27 23 39 54 27z m-159 -81 c10 -27 32 -69 48 -95 37 -62 30
-83 -10 -31 -31 39 -73 130 -73 158 0 30 18 14 35 -32z m435 6 c-4 -22 -13
-46 -20 -52 -10 -9 -12 -8 -7 5 3 9 9 33 13 52 3 20 10 36 14 36 4 0 4 -18 0
-41z m80 -33 c-14 -42 -67 -126 -79 -126 -6 0 7 36 28 79 21 44 42 90 46 103
l8 23 4 -23 c2 -12 -1 -37 -7 -56z m-410 -46 c0 -3 -9 9 -20 25 -11 17 -20 44
-19 60 0 25 3 21 19 -25 11 -30 20 -57 20 -60z m62 13 c20 -23 32 -63 19 -63
-9 0 -51 60 -51 74 0 12 17 6 32 -11z m179 -26 c-27 -42 -45 -48 -31 -11 14
37 30 55 42 48 5 -3 0 -20 -11 -37z m214 -66 c7 -41 -3 -136 -13 -126 -9 9
-10 175 -1 169 4 -2 10 -22 14 -43z m-589 17 c-3 -13 -6 -50 -6 -82 0 -46 -3
-57 -12 -48 -13 13 -17 120 -5 140 14 21 30 14 23 -10z m232 -72 c3 -15 1 -16
-17 -6 -26 13 -28 29 -3 26 9 -2 19 -11 20 -20z m127 15 c3 -6 -4 -15 -15 -21
-16 -8 -20 -8 -20 3 0 25 23 36 35 18z m-284 -93 l-9 -33 -1 36 c-1 20 2 39 6
43 13 12 15 -10 4 -46z m408 20 c0 -27 -2 -29 -8 -13 -5 11 -6 26 -4 33 8 21
13 13 12 -20z m-291 -8 c24 0 24 -1 8 -13 -25 -18 -18 -61 12 -65 17 -3 22
-10 22 -32 0 -15 -7 -30 -15 -34 -8 -3 -15 -1 -15 4 0 6 -27 10 -60 10 -59 0
-60 1 -60 28 1 25 1 26 15 8 8 -11 20 -16 30 -12 14 5 15 15 9 63 -6 51 -5 56
10 50 10 -4 29 -7 44 -7z m230 -46 c-3 -61 8 -76 36 -49 15 15 16 14 16 -11 0
-25 -2 -26 -38 -21 -23 4 -47 1 -62 -6 -33 -18 -50 -11 -50 19 0 17 8 27 25
34 27 10 35 53 13 66 -9 6 -5 10 12 15 50 14 51 12 48 -47z m-532 -9 c9 -14
13 -29 9 -33 -7 -7 -45 34 -45 49 0 18 20 9 36 -16z m152 -80 c-3 -3 -9 2 -12
12 -6 14 -5 15 5 6 7 -7 10 -15 7 -18z m485 5 c-3 -12 -8 -19 -11 -16 -5 6 5
36 12 36 2 0 2 -9 -1 -20z m-775 -43 c-7 -14 -13 -17 -16 -9 -6 19 6 44 18 37
7 -4 6 -14 -2 -28z m205 -15 c28 -63 22 -115 -22 -206 -22 -44 -76 -157 -120
-251 -45 -93 -81 -161 -81 -150 1 11 25 110 54 220 l53 200 37 20 c52 28 59
46 54 131 -3 41 -2 74 2 74 3 0 14 -17 23 -38z m-148 19 c3 -5 -20 -36 -50
-68 -52 -55 -76 -63 -36 -12 10 13 26 39 35 57 16 31 39 42 51 23z m806 -42
c-23 -99 -23 -100 130 -433 38 -82 67 -151 65 -153 -3 -4 -135 180 -178 250
-22 34 -52 192 -52 273 0 42 5 70 18 88 23 37 29 28 17 -25z m198 -25 c34 -36
60 -68 58 -70 -3 -4 -144 83 -166 102 -7 6 21 34 34 34 7 0 41 -30 74 -66z
m-533 -124 c3 0 11 15 19 33 8 17 14 26 15 19 0 -18 -30 -82 -39 -82 -9 0 -31
61 -30 81 0 8 7 -1 15 -18 8 -18 17 -33 20 -33z m244 -47 c7 -27 38 -124 67
-216 30 -93 53 -170 51 -173 -3 -2 -40 69 -83 159 -71 146 -79 167 -77 215 3
88 21 94 42 15z m-476 20 c-4 -16 -11 -37 -17 -48 -10 -18 -11 -17 -19 14 -11
42 -4 61 22 61 17 0 19 -4 14 -27z m225 -295 c-1 -150 -4 -262 -6 -248 -3 14
-15 112 -27 219 l-22 193 25 54 c13 30 25 54 27 54 2 0 3 -123 3 -272z m-309
37 c-51 -152 -58 -147 -24 19 12 62 64 163 71 140 1 -5 -20 -76 -47 -159z
m246 149 c-3 -9 -2 -55 4 -101 14 -109 6 -119 -10 -14 -11 73 -9 131 6 131 3
0 3 -7 0 -16z"/>
<path d="M942 2840 c0 -14 2 -19 5 -12 2 6 2 18 0 25 -3 6 -5 1 -5 -13z"/>
<path d="M926 2749 c-4 -33 -5 -63 -3 -66 3 -2 8 23 12 57 4 34 5 63 2 66 -2
3 -7 -23 -11 -57z"/>
<path d="M1482 2785 c0 -16 2 -22 5 -12 2 9 2 23 0 30 -3 6 -5 -1 -5 -18z"/>
<path d="M1032 2775 c0 -16 2 -22 5 -12 2 9 2 23 0 30 -3 6 -5 -1 -5 -18z"/>
<path d="M1396 2749 c-3 -17 -5 -43 -5 -58 1 -14 5 -2 10 28 10 58 6 83 -5 30z"/>
<path d="M1022 2675 c0 -16 2 -22 5 -12 2 9 2 23 0 30 -3 6 -5 -1 -5 -18z"/>
<path d="M901 2570 c-7 -58 -14 -213 -16 -345 l-3 -240 8 225 c4 124 14 272
21 330 6 58 10 112 7 120 -2 8 -10 -32 -17 -90z"/>
<path d="M1383 2580 c0 -25 2 -35 4 -22 2 12 2 32 0 45 -2 12 -4 2 -4 -23z"/>
<path d="M1373 2360 c0 -36 2 -50 4 -32 2 17 2 47 0 65 -2 17 -4 3 -4 -33z"/>
</g>
</svg>
