<?xml version="1.0" standalone="no"?>
<!DOCTYPE svg PUBLIC "-//W3C//DTD SVG 20010904//EN"
 "http://www.w3.org/TR/2001/REC-SVG-20010904/DTD/svg10.dtd">
<svg version="1.0" xmlns="http://www.w3.org/2000/svg"
 width="244.000000pt" height="305.000000pt" viewBox="0 0 244.000000 305.000000"
 preserveAspectRatio="xMidYMid meet">
<metadata>
Created by potrace 1.16, written by Peter Selinger 2001-2019
</metadata>
<g transform="translate(0.000000,305.000000) scale(0.100000,-0.100000)"
fill="#000000" stroke="none">
<path d="M1144 2713 c-4 -109 -8 -344 -8 -522 -1 -177 -4 -310 -8 -295 -4 16
-13 64 -19 107 -22 135 -40 130 -58 -17 -12 -90 -12 -91 11 -108 13 -10 29
-23 36 -28 7 -6 12 -34 12 -66 0 -60 -16 -77 -52 -55 -25 15 -37 7 -31 -22 14
-57 61 -74 89 -32 23 35 30 25 26 -37 -3 -50 -6 -54 -30 -56 -14 -1 -34 -10
-44 -19 -16 -15 -17 -18 -3 -25 16 -10 21 -48 6 -48 -29 0 -101 105 -101 146
0 10 -7 25 -16 35 -39 43 20 104 94 97 27 -2 37 1 38 12 1 29 -25 67 -55 80
-43 17 -102 -12 -115 -57 -11 -39 -23 -42 -32 -9 -22 89 -166 94 -176 6 -3
-23 1 -25 44 -30 34 -4 56 -14 78 -35 32 -31 40 -69 15 -79 -18 -7 -20 -59 -3
-107 9 -28 42 -82 92 -154 7 -9 -2 -26 -27 -56 -60 -70 -47 -125 33 -143 45
-11 54 5 39 63 -11 44 -11 54 2 66 12 12 21 12 52 3 20 -6 37 -18 37 -25 0 -8
-4 -12 -9 -9 -5 3 -17 -24 -27 -60 -16 -59 -21 -67 -53 -80 -32 -14 -39 -14
-66 1 -53 28 -76 74 -80 162 -5 110 -15 133 -60 133 -26 0 -39 -6 -51 -25 -28
-42 -13 -93 62 -218 91 -151 95 -184 32 -288 -25 -41 -62 -105 -83 -144 -22
-38 -54 -93 -72 -122 -18 -29 -33 -54 -33 -57 0 -6 -62 -106 -65 -106 -6 0 19
82 78 259 l62 184 45 16 c36 13 47 23 57 51 26 75 10 129 -63 222 -79 101 -93
166 -49 230 14 20 25 43 25 51 0 19 -43 37 -89 37 -71 0 -88 -50 -50 -149 34
-92 12 -155 -74 -204 -23 -13 -102 -58 -175 -100 -129 -75 -176 -95 -136 -59
10 9 75 68 143 131 l124 113 44 -7 45 -7 -7 99 c-10 134 -27 157 -22 30 l3
-97 -31 6 c-30 5 -44 -5 -222 -168 -105 -95 -188 -174 -183 -176 6 -2 299 90
448 141 24 8 32 17 32 34 0 36 25 38 88 7 60 -31 102 -79 102 -120 0 -17 -9
-25 -34 -34 -19 -6 -37 -19 -41 -28 -21 -53 -172 -548 -168 -552 3 -3 10 2 16
11 10 13 151 170 207 229 99 105 180 204 176 215 -3 8 -8 30 -12 49 l-6 36 88
0 c49 0 95 -4 103 -9 11 -7 12 -38 1 -193 -8 -109 -9 -191 -4 -201 6 -10 10
11 11 61 1 42 6 88 12 102 9 23 10 23 10 4 1 -12 -4 -45 -9 -74 -12 -64 -5
-80 8 -18 l9 43 11 -55 c48 -234 94 -455 96 -457 2 -2 15 57 29 130 15 72 36
173 47 222 11 50 22 108 26 130 4 22 9 33 11 25 2 -8 15 -62 28 -120 14 -58
22 -82 19 -55 -4 28 -6 77 -6 110 0 41 -2 52 -7 35 -6 -21 -8 -15 -14 30 -4
30 -6 69 -6 85 l1 30 8 -30 c7 -28 8 -27 9 13 0 24 -3 41 -8 38 -13 -8 -31 49
-31 95 0 50 20 51 22 2 1 -38 1 -38 7 7 l6 45 99 3 98 3 -5 -28 c-3 -15 -8
-39 -12 -53 -6 -26 -5 -27 344 -406 35 -38 61 -61 58 -52 -3 9 -22 70 -42 135
-131 425 -134 433 -166 440 -43 8 -53 25 -36 65 19 43 51 72 110 98 55 25 77
21 77 -13 0 -21 18 -29 243 -104 133 -44 244 -78 247 -76 3 3 -6 14 -20 25
-14 11 -47 41 -75 67 -27 26 -104 96 -169 155 -111 100 -122 107 -151 102
l-32 -6 4 97 c3 71 1 94 -6 83 -6 -8 -11 -33 -11 -56 0 -22 -7 -63 -15 -90
-21 -70 -20 -76 28 -105 181 -111 356 -223 353 -226 -2 -2 -28 5 -57 16 -211
76 -315 114 -318 117 -2 2 1 16 8 30 11 25 9 29 -19 53 -43 36 -49 88 -21 179
26 86 26 114 3 135 -33 30 -142 16 -142 -18 0 -8 12 -33 26 -55 45 -68 26
-136 -76 -264 -43 -55 -78 -166 -65 -208 8 -25 201 -378 242 -441 44 -69 18
-50 -74 55 -197 225 -222 259 -212 285 5 14 10 64 12 111 l2 87 74 123 c84
141 99 194 62 231 -23 23 -79 29 -85 9 -20 -67 -31 -140 -23 -153 13 -24 -9
-69 -54 -110 -45 -41 -57 -42 -101 -15 -18 11 -43 20 -55 20 -18 0 -23 9 -33
56 -7 30 -9 58 -6 61 3 4 6 -3 6 -15 0 -15 5 -20 15 -16 10 4 13 14 9 30 -5
19 -2 24 13 24 10 0 24 5 31 12 9 9 15 9 23 1 13 -13 14 -44 4 -95 -9 -43 6
-55 50 -44 71 18 84 80 30 143 -19 23 -35 45 -35 51 0 5 14 27 31 48 45 57 69
109 76 164 5 40 3 51 -11 56 -26 10 -18 49 17 83 28 28 38 32 77 29 53 -3 60
11 31 59 -38 61 -124 49 -158 -22 -9 -19 -19 -35 -22 -35 -3 0 -13 15 -21 32
-21 44 -62 72 -93 64 -38 -9 -65 -38 -69 -71 -3 -30 -3 -30 43 -27 39 3 51 -1
73 -23 29 -29 33 -56 11 -75 -8 -7 -15 -21 -15 -32 0 -36 -51 -118 -90 -145
-19 -13 -20 -12 -20 16 0 21 5 31 15 31 8 0 15 4 15 9 0 12 -61 40 -75 35 -8
-4 -14 14 -18 53 -3 31 -4 59 -3 61 2 2 15 -8 29 -22 31 -31 41 -32 67 -6 26
26 28 76 3 65 -49 -21 -58 -13 -61 51 -3 61 -2 62 31 83 33 20 34 23 30 73 -3
29 -9 77 -14 107 -16 96 -24 87 -50 -60 -10 -62 -20 -114 -22 -115 -1 -1 -2
79 -1 179 l1 182 -6 -150 -6 -150 -7 100 c-5 55 -9 246 -10 425 -1 308 -2 316
-9 147 -4 -98 -9 -180 -11 -182 -2 -3 -15 36 -28 85 -12 50 -25 89 -27 87 -2
-2 -14 -46 -28 -98 l-24 -94 -3 50 c-1 28 -5 -6 -8 -75 -4 -84 -6 -20 -7 198
-1 178 -3 326 -6 328 -3 3 -8 -84 -13 -193z m77 -468 c-3 -243 -5 -265 -17
-225 -12 43 -13 40 -9 -55 3 -55 7 -126 11 -159 4 -37 2 -62 -5 -69 -14 -14
-15 -77 -1 -77 6 0 10 -9 10 -20 0 -18 -3 -19 -20 -10 -17 9 -20 21 -20 71 0
44 4 61 15 65 20 8 19 68 -1 89 -12 12 -15 26 -11 52 4 20 3 42 -2 47 -12 17
22 438 45 545 3 13 6 22 7 20 1 -2 1 -125 -2 -274z m-291 -676 c15 -31 48 -73
87 -109 63 -58 87 -103 42 -79 -68 36 -150 139 -164 207 -10 48 8 39 35 -19z
m645 19 c-13 -58 -62 -130 -123 -180 -76 -63 -70 -17 8 61 34 33 70 81 81 106
23 53 44 61 34 13z m-288 -25 c-4 -17 -4 -17 -12 0 -4 9 -4 25 0 35 8 16 8 16
12 0 3 -10 3 -26 0 -35z m-87 23 c0 -8 -4 -18 -10 -21 -5 -3 -10 3 -10 14 0
12 5 21 10 21 6 0 10 -6 10 -14z m-50 -104 c14 -50 13 -132 -1 -132 -7 0 -9
11 -6 29 8 37 -2 71 -19 71 -10 0 -14 13 -14 40 0 50 25 45 40 -8z m87 1 c-3
-10 -5 -4 -5 12 0 17 2 24 5 18 2 -7 2 -21 0 -30z m123 -10 c0 -13 -6 -23 -14
-23 -17 0 -28 -42 -20 -75 6 -24 -8 -36 -20 -16 -7 11 15 133 27 149 13 16 27
-2 27 -35z m-253 -95 c-3 -8 -6 -5 -6 6 -1 11 2 17 5 13 3 -3 4 -12 1 -19z
m10 -125 c-3 -10 -5 -2 -5 17 0 19 2 27 5 18 2 -10 2 -26 0 -35z m240 15 c-3
-7 -5 -2 -5 12 0 14 2 19 5 13 2 -7 2 -19 0 -25z m-286 -79 c-6 -16 -10 -18
-10 -7 -1 22 12 55 16 42 2 -6 -1 -22 -6 -35z m56 9 c-3 -7 -5 -2 -5 12 0 14
2 19 5 13 2 -7 2 -19 0 -25z m189 -13 c-6 -22 -9 -25 -21 -15 -17 14 -21 35
-5 25 6 -3 13 1 16 10 10 25 17 9 10 -20z m-136 -11 c-15 -17 -30 -9 -30 17 0
17 3 18 21 9 16 -9 18 -14 9 -26z m-71 -89 l0 -20 -9 20 c-5 11 -9 29 -9 40
l0 20 9 -20 c5 -11 9 -29 9 -40z m261 5 c-17 -32 -22 -18 -8 21 8 22 13 28 16
17 2 -9 -2 -27 -8 -38z m-132 -171 c-3 -8 -7 -3 -11 10 -4 17 -3 21 5 13 5 -5
8 -16 6 -23z m-88 -52 c0 -23 -16 -55 -23 -47 -2 3 -2 22 1 42 4 39 22 43 22
5z m64 -24 c-10 -47 -10 -42 -1 -298 l7 -210 -20 90 c-46 213 -59 283 -64 330
-3 35 -2 42 4 25 l8 -25 1 26 c1 26 48 98 65 99 4 0 5 -17 0 -37z"/>
<path d="M890 2886 c0 -8 -3 -22 -7 -32 -4 -12 -3 -15 5 -10 9 5 12 -108 12
-468 0 -262 -2 -476 -5 -476 -3 0 -24 12 -47 27 l-41 28 7 217 c6 212 19 340
52 541 9 54 14 100 11 103 -6 7 -45 -199 -57 -306 -18 -154 -33 -584 -20 -588
6 -2 32 -20 57 -39 l45 -35 27 25 c14 13 36 30 49 36 22 11 22 15 22 189 -1
228 -21 448 -59 640 -17 84 -31 155 -31 158 0 2 -4 4 -10 4 -5 0 -10 -6 -10
-14z"/>
<path d="M1568 2400 c1 -275 0 -500 -3 -500 -3 0 -24 12 -47 27 l-41 28 7 218
c6 208 29 424 61 595 16 85 18 108 6 77 -9 -22 -45 -227 -60 -345 -6 -41 -15
-185 -22 -320 l-12 -244 22 -16 c13 -8 37 -27 55 -42 l33 -27 53 40 c33 25 55
49 56 62 6 67 -19 503 -37 622 -21 148 -58 325 -68 325 -3 0 -5 -225 -3 -500z"/>
<path d="M1322 2640 c0 -14 2 -19 5 -12 2 6 2 18 0 25 -3 6 -5 1 -5 -13z"/>
<path d="M1322 2590 c0 -14 2 -19 5 -12 2 6 2 18 0 25 -3 6 -5 1 -5 -13z"/>
<path d="M1421 1234 c0 -11 3 -14 6 -6 3 7 2 16 -1 19 -3 4 -6 -2 -5 -13z"/>
<path d="M1071 475 l1 -60 10 42 c6 28 6 49 -1 60 -8 14 -10 4 -10 -42z"/>
</g>
</svg>
