<?xml version="1.0" standalone="no"?>
<!DOCTYPE svg PUBLIC "-//W3C//DTD SVG 20010904//EN"
 "http://www.w3.org/TR/2001/REC-SVG-20010904/DTD/svg10.dtd">
<svg version="1.0" xmlns="http://www.w3.org/2000/svg"
 width="244.000000pt" height="305.000000pt" viewBox="0 0 244.000000 305.000000"
 preserveAspectRatio="xMidYMid meet">
<metadata>
Created by potrace 1.16, written by Peter Selinger 2001-2019
</metadata>
<g transform="translate(0.000000,305.000000) scale(0.100000,-0.100000)"
fill="#000000" stroke="none">
<path d="M938 2905 c-3 -6 -9 -28 -12 -50 -4 -30 -3 -34 3 -15 6 15 9 -167 10
-457 l1 -483 -40 28 c-39 27 -39 28 -39 92 0 151 20 457 39 609 12 89 19 165
17 167 -5 5 -33 -175 -47 -301 -16 -150 -25 -575 -12 -575 6 0 27 -13 45 -30
35 -30 57 -38 57 -21 0 5 14 19 30 31 33 23 50 18 71 -22 9 -16 7 -18 -15 -12
-35 8 -65 -12 -86 -59 l-18 -40 -15 35 c-17 41 -51 68 -85 68 -31 0 -72 -43
-72 -75 0 -23 4 -25 40 -25 62 0 119 -72 86 -109 -21 -23 -20 -68 3 -133 36
-101 51 -255 20 -207 -7 11 -9 10 -9 -3 0 -10 -4 -18 -9 -18 -10 0 -21 49 -21
96 0 57 -61 77 -92 30 -16 -23 -7 -91 18 -147 43 -96 7 -92 -41 4 -32 65 -32
115 0 175 l25 47 -22 18 c-33 27 -99 20 -115 -13 -12 -25 -9 -46 18 -152 10
-40 10 -53 -5 -93 -16 -41 -29 -54 -135 -124 -170 -114 -233 -153 -230 -143 2
5 60 69 129 141 l125 132 43 -6 43 -6 -7 78 c-11 131 -24 162 -21 50 l3 -98
-29 7 c-26 5 -36 -1 -99 -67 -38 -41 -115 -120 -170 -177 -56 -56 -99 -104
-96 -107 2 -3 33 6 69 19 326 122 354 133 358 152 8 47 35 47 101 3 l24 -15
-32 -68 c-18 -38 -32 -70 -32 -73 0 -2 20 10 44 27 50 34 66 37 66 14 0 -9
-13 -21 -30 -27 -23 -9 -33 -22 -44 -57 -14 -41 -88 -310 -122 -440 -8 -30
-17 -63 -20 -73 -9 -29 12 -13 49 38 83 110 300 385 303 382 2 -2 -1 -30 -6
-63 -6 -32 -9 -70 -9 -84 1 -14 11 38 23 115 l21 140 29 3 c28 3 29 2 22 -30
-8 -42 -94 -355 -107 -388 l-9 -25 4 25 c3 14 7 50 10 80 3 30 -4 6 -14 -55
-11 -60 -19 -116 -18 -123 2 -7 43 83 93 200 79 189 89 219 86 265 l-2 53 26
-10 c29 -11 64 -47 65 -67 0 -6 -12 -26 -27 -43 l-26 -32 28 -161 c15 -89 38
-216 50 -282 13 -66 26 -140 30 -165 5 -25 9 -40 11 -35 2 6 20 100 39 210 74
416 77 433 65 455 -6 11 -15 20 -20 20 -5 0 -12 9 -15 20 -9 29 17 65 56 79
l32 11 -5 -52 c-5 -48 1 -67 69 -228 41 -96 81 -189 89 -206 7 -17 18 -42 24
-55 9 -22 10 -22 5 6 -25 161 -56 389 -53 400 2 8 75 -78 163 -191 157 -202
179 -228 170 -202 -2 7 -29 108 -60 223 -92 342 -92 342 -126 349 -17 3 -29
12 -29 21 0 24 21 18 83 -25 31 -22 60 -40 63 -40 2 0 -16 38 -41 85 -25 46
-45 86 -45 89 0 8 67 46 82 46 9 0 18 -12 21 -29 5 -24 15 -32 64 -49 32 -12
101 -37 153 -57 140 -53 203 -75 206 -72 2 2 -42 49 -249 265 -70 72 -84 82
-107 77 l-26 -6 4 98 c5 110 -6 119 -19 16 -4 -37 -11 -87 -15 -111 -6 -35 -3
-45 12 -57 11 -8 85 -63 167 -121 81 -59 146 -109 144 -110 -6 -7 -293 110
-310 126 -5 4 -4 18 3 30 10 19 8 26 -15 50 -34 36 -41 89 -21 166 21 82 21
133 -1 150 -35 26 -113 11 -113 -22 0 -8 10 -33 21 -56 28 -55 22 -129 -16
-187 -45 -68 -61 -50 -24 27 41 85 20 167 -40 160 -23 -3 -26 -8 -29 -48 -2
-25 -8 -49 -14 -55 -7 -7 -9 3 -5 33 3 24 1 40 -4 36 -5 -3 -9 -30 -9 -60 0
-33 -4 -54 -11 -54 -13 0 -5 128 12 195 23 88 27 139 13 156 -22 25 -16 58 16
91 26 26 36 30 65 25 34 -6 35 -5 35 27 0 84 -112 91 -146 10 -15 -35 -34 -38
-34 -6 -1 9 -11 30 -24 46 -20 24 -29 28 -55 23 -29 -6 -30 -5 -19 18 15 33
43 31 80 -5 l30 -30 34 30 c19 16 40 30 46 30 8 0 9 77 5 278 -7 301 -18 407
-69 660 -10 54 -11 56 -19 27 -5 -18 -5 -31 1 -33 16 -6 13 -942 -2 -942 -7 1
-26 11 -42 24 l-29 24 6 224 c3 122 11 271 17 330 6 60 10 116 8 125 -3 10
-10 -44 -18 -119 -7 -76 -15 -137 -16 -135 -1 1 -10 97 -19 212 -18 230 -31
347 -34 300 -1 -16 -2 -210 -3 -430 0 -220 -2 -390 -5 -377 -5 23 -22 31 -24
10 -1 -7 -5 -2 -9 12 -6 18 -8 3 -9 -50 -1 -41 -5 -93 -9 -115 -6 -34 -8 -26
-14 55 -11 165 -27 333 -38 400 -16 100 -42 212 -47 206 -13 -12 -43 -184 -53
-296 -6 -69 -15 -159 -21 -200 -5 -41 -9 -101 -9 -132 0 -32 -4 -58 -10 -58
-6 0 -10 29 -10 68 -2 281 -32 847 -49 894 -3 9 -6 -199 -6 -462 0 -263 -4
-482 -8 -486 -20 -20 -27 35 -28 221 -1 116 -4 190 -9 175 -6 -18 -8 -5 -9 45
-2 153 -66 567 -83 540z m292 -866 c0 -374 -2 -420 -15 -409 -12 10 -15 43
-16 164 -1 91 -4 139 -9 121 -10 -40 -12 204 -2 315 l7 85 6 -115 c6 -113 6
-112 5 35 -1 83 1 137 5 120 5 -21 7 -10 8 38 0 37 3 67 6 67 3 0 5 -190 5
-421z m-134 -196 c-10 -10 -19 5 -10 18 6 11 8 11 12 0 2 -7 1 -15 -2 -18z
m294 6 c0 -5 -4 -9 -10 -9 -5 0 -10 7 -10 16 0 8 5 12 10 9 6 -3 10 -10 10
-16z m-213 -81 c-2 -13 -4 -3 -4 22 0 25 2 35 4 23 2 -13 2 -33 0 -45z m186
-41 c-7 -11 -23 12 -23 33 1 12 4 11 15 -4 8 -10 12 -23 8 -29z m-318 11 c8
-31 9 -61 7 -138 l-2 -65 -19 25 c-11 13 -22 44 -26 67 -3 23 -10 45 -16 48
-15 10 -11 47 8 67 22 24 41 23 48 -4z m76 -5 c-8 -15 -10 -15 -11 -2 0 17 10
32 18 25 2 -3 -1 -13 -7 -23z m359 -5 c13 -25 13 -30 -3 -57 -9 -16 -17 -38
-17 -50 0 -11 -9 -35 -21 -53 l-20 -33 7 48 c4 31 2 57 -6 71 -9 17 -9 33 0
65 13 49 35 52 60 9z m-290 -69 c0 -16 -4 -28 -9 -25 -8 5 -3 56 5 56 2 0 4
-14 4 -31z m-35 -19 c4 -17 12 -30 20 -30 7 0 20 -11 29 -25 19 -28 21 -48 3
-24 -7 9 -30 20 -52 25 -34 8 -41 14 -43 37 -4 29 14 61 28 52 5 -3 11 -19 15
-35z m205 -14 c0 -31 -11 -41 -50 -45 -40 -4 -46 -10 -62 -71 -11 -41 -12 -43
-19 -20 -10 36 -10 52 -1 46 5 -3 16 11 26 30 9 20 26 38 36 41 11 3 20 12 20
20 0 8 5 24 11 35 11 21 12 21 25 3 8 -10 14 -28 14 -39z m-390 -68 c0 -10 -4
-18 -9 -18 -12 0 -21 26 -21 58 l1 27 14 -25 c8 -14 14 -33 15 -42z m421 19
c-8 -8 -11 -5 -11 9 0 27 14 41 18 19 2 -9 -1 -22 -7 -28z m135 -2 c-4 -21
-13 -35 -21 -35 -19 0 -19 14 1 51 19 38 28 31 20 -16z m-438 4 c-3 -8 -7 -3
-11 10 -4 17 -3 21 5 13 5 -5 8 -16 6 -23z m41 -124 c0 -5 -9 1 -19 14 -11 13
-20 35 -19 50 0 24 2 22 19 -14 10 -22 19 -44 19 -50z m246 46 c-3 -16 -13
-35 -21 -42 -18 -15 -18 -9 2 41 19 46 29 47 19 1z m105 -10 c0 -21 -6 -30
-21 -34 -11 -3 -23 -15 -26 -26 -6 -23 -49 -55 -57 -42 -4 6 92 130 102 131 1
0 2 -13 2 -29z m-388 -84 c5 -10 7 -21 5 -24 -10 -10 -47 18 -52 40 -4 13 -16
27 -28 32 -13 6 -22 20 -23 33 -1 21 3 19 43 -20 25 -24 49 -51 55 -61z m88
-33 c0 -8 -4 -12 -10 -9 -5 3 -10 13 -10 21 0 8 5 12 10 9 6 -3 10 -13 10 -21z
m121 -7 c-8 -8 -11 -7 -11 4 0 9 3 19 7 23 4 4 9 2 11 -4 3 -7 -1 -17 -7 -23z
m-237 -85 c-4 -29 -1 -43 16 -65 30 -38 44 -25 36 33 -6 46 -5 48 21 53 37 7
39 3 13 -23 -26 -26 -22 -41 14 -58 19 -10 26 -20 24 -35 -3 -19 -9 -21 -51
-21 -30 1 -54 7 -65 17 -19 20 -31 137 -13 137 7 0 9 -13 5 -38z m358 4 c5
-42 -7 -90 -27 -106 -9 -7 -37 -13 -63 -14 -43 0 -47 2 -47 24 0 17 6 26 20
29 27 5 36 21 29 54 -4 21 -2 27 11 27 14 0 16 -7 10 -49 -7 -55 6 -74 33 -47
11 11 17 34 17 66 0 57 11 67 17 16z m-508 -38 c8 -31 7 -38 -2 -38 -12 0 -32
46 -25 54 12 11 21 6 27 -16z m646 -24 c0 -8 -5 -12 -10 -9 -6 4 -8 11 -5 16
9 14 15 11 15 -7z m-690 -67 c0 -20 -25 1 -28 24 -2 23 -2 23 13 5 8 -11 15
-24 15 -29z m577 21 c-3 -8 -6 -5 -6 6 -1 11 2 17 5 13 3 -3 4 -12 1 -19z
m163 -31 c0 -7 -7 -22 -15 -33 -12 -16 -14 -17 -15 -2 0 23 11 48 21 48 5 0 9
-6 9 -13z m-29 -125 c-2 -42 7 -68 69 -198 39 -82 90 -184 112 -227 22 -43 37
-81 34 -84 -2 -3 -53 59 -111 138 -58 79 -115 155 -125 169 -20 25 -21 50 -4
219 7 68 29 54 25 -17z m-811 11 l-22 -28 7 25 c10 33 28 56 33 41 2 -6 -6
-23 -18 -38z m138 -2 c-4 -36 -35 -109 -128 -294 -68 -136 -125 -245 -127
-243 -3 3 57 229 98 368 18 63 22 69 63 87 38 16 44 24 50 57 11 62 16 74 33
74 13 0 15 -9 11 -49z m795 15 c15 -19 27 -40 27 -46 0 -19 -68 43 -69 63 -1
26 11 21 42 -17z m-457 -92 c17 24 18 16 2 -19 -14 -31 -24 -32 -32 -2 -9 35
-6 55 5 27 10 -24 11 -24 25 -6z m-276 -54 c0 -22 -4 -40 -9 -40 -10 0 -23 58
-15 71 13 21 24 6 24 -31z m474 -12 c38 -134 97 -370 93 -374 -2 -2 -34 72
-71 165 -61 153 -67 173 -61 215 4 25 11 46 15 46 5 0 15 -24 24 -52z m76 21
c0 -17 -4 -28 -10 -24 -5 3 -10 17 -10 31 0 13 5 24 10 24 6 0 10 -14 10 -31z
m-291 -291 l-1 -263 -23 215 -23 215 20 48 c11 26 22 47 24 47 2 0 3 -118 3
-262z m-43 205 c-13 -26 -13 -46 -1 -174 8 -79 14 -153 14 -164 -1 -26 -24 75
-45 202 l-17 102 29 34 c34 40 41 40 20 0z"/>
<path d="M1502 2800 c0 -14 2 -19 5 -12 2 6 2 18 0 25 -3 6 -5 1 -5 -13z"/>
<path d="M1062 2780 c0 -14 2 -19 5 -12 2 6 2 18 0 25 -3 6 -5 1 -5 -13z"/>
<path d="M1485 2720 c-4 -28 -5 -53 -2 -56 2 -3 7 19 11 47 4 28 5 53 3 56 -3
2 -8 -19 -12 -47z"/>
<path d="M1372 2730 c0 -19 2 -27 5 -17 2 9 2 25 0 35 -3 9 -5 1 -5 -18z"/>
<path d="M1053 2655 c0 -22 2 -30 4 -17 2 12 2 30 0 40 -3 9 -5 -1 -4 -23z"/>
<path d="M1363 2595 c0 -22 2 -30 4 -17 2 12 2 30 0 40 -3 9 -5 -1 -4 -23z"/>
<path d="M1043 2480 c0 -36 2 -50 4 -32 2 17 2 47 0 65 -2 17 -4 3 -4 -33z"/>
<path d="M1354 2395 c0 -55 1 -76 3 -47 2 29 2 74 0 100 -2 26 -3 2 -3 -53z"/>
<path d="M903 1400 c0 -36 2 -50 4 -32 2 17 2 47 0 65 -2 17 -4 3 -4 -33z"/>
</g>
</svg>
