<?xml version="1.0" standalone="no"?>
<!DOCTYPE svg PUBLIC "-//W3C//DTD SVG 20010904//EN"
 "http://www.w3.org/TR/2001/REC-SVG-20010904/DTD/svg10.dtd">
<svg version="1.0" xmlns="http://www.w3.org/2000/svg"
 width="244.000000pt" height="305.000000pt" viewBox="0 0 244.000000 305.000000"
 preserveAspectRatio="xMidYMid meet">
<metadata>
Created by potrace 1.16, written by Peter Selinger 2001-2019
</metadata>
<g transform="translate(0.000000,305.000000) scale(0.100000,-0.100000)"
fill="#000000" stroke="none">
<path d="M989 2880 c-1 -19 0 -51 0 -70 1 -25 -1 -31 -8 -21 -6 9 -7 -3 -4
-35 3 -27 10 -54 14 -60 11 -13 12 -774 1 -774 -4 0 -19 11 -34 24 l-28 23 2
129 2 129 6 -125 c5 -117 5 -110 12 120 4 135 12 288 19 340 6 52 7 115 3 140
l-7 45 -9 -40 c-5 -22 -10 -114 -11 -205 -1 -102 -3 -140 -7 -100 -4 55 -6 43
-12 -80 -5 -80 -8 -200 -8 -268 l0 -124 41 -38 42 -39 40 40 40 39 -7 242 c-7
250 -27 503 -51 642 -15 88 -34 122 -36 66z m-22 -252 c-2 -13 -4 -5 -4 17 -1
22 1 32 4 23 2 -10 2 -28 0 -40z m-10 -100 c-2 -13 -4 -5 -4 17 -1 22 1 32 4
23 2 -10 2 -28 0 -40z"/>
<path d="M1451 2848 c-34 -193 -61 -546 -61 -813 l0 -110 39 -38 39 -39 42 41
42 41 -11 282 c-7 156 -16 321 -22 368 -18 165 -41 315 -49 323 -4 5 -13 -20
-19 -55z m10 -926 c-2 -9 -10 -7 -27 9 -23 22 -24 28 -24 168 1 167 13 382 32
556 13 118 13 114 18 -300 3 -231 3 -426 1 -433z"/>
<path d="M1226 2580 c-26 -104 -54 -433 -56 -644 0 -33 -2 -57 -4 -55 -3 2 -9
50 -15 105 -6 56 -14 109 -17 119 -7 16 -8 16 -16 -5 -5 -13 -12 -65 -15 -116
-6 -90 -5 -94 21 -124 19 -23 26 -43 26 -73 0 -46 -13 -76 -24 -58 -4 6 -14
11 -22 11 -19 0 -19 -64 1 -80 18 -15 52 -4 58 18 3 9 5 -2 6 -24 1 -28 6 -44
16 -48 9 -3 23 -22 31 -41 8 -19 16 -35 19 -35 3 0 11 16 19 35 8 19 22 38 31
41 10 4 15 19 15 47 0 40 0 41 16 19 19 -27 40 -28 54 -3 24 46 4 91 -27 60
-9 -9 -14 -5 -19 15 -11 45 2 106 27 124 21 14 21 20 15 106 -7 101 -19 156
-29 139 -4 -6 -12 -56 -19 -112 -6 -55 -13 -99 -15 -97 -2 2 -8 104 -13 227
-9 209 -30 401 -49 452 -9 22 -9 22 -15 -3z m3 -532 c0 -244 -3 -437 -6 -430
-2 6 -12 12 -20 12 -14 0 -15 33 -10 308 4 261 22 552 34 552 2 0 3 -199 2
-442z"/>
<path d="M877 1853 c-22 -25 -31 -69 -16 -79 7 -4 26 -10 43 -13 20 -5 37 -18
49 -39 18 -31 18 -34 2 -69 -22 -46 -11 -105 40 -203 l34 -67 -25 -36 c-13
-20 -25 -42 -25 -49 -2 -24 -17 47 -18 88 -1 55 -30 82 -67 65 -27 -12 -27 -8
-7 45 7 18 -26 44 -55 45 -78 4 -85 -10 -79 -138 3 -57 2 -103 -2 -103 -5 0
-12 42 -17 93 l-9 92 -3 -92 c-2 -85 -5 -93 -22 -93 -12 0 -41 -26 -74 -67
-150 -186 -227 -286 -222 -290 2 -2 13 0 24 6 12 6 29 11 40 11 35 0 314 141
319 161 7 26 25 24 56 -5 25 -24 57 -85 57 -112 0 -7 -12 -19 -27 -26 -31 -15
-29 -10 -81 -243 -70 -314 -75 -336 -68 -342 3 -4 6 -1 6 5 0 7 6 12 13 12 14
0 43 44 179 267 99 162 99 162 92 213 l-7 50 47 0 c56 0 97 -19 115 -53 12
-23 11 -30 -9 -62 -22 -35 -22 -40 -10 -128 26 -194 81 -551 85 -555 3 -3 5
-2 5 1 0 4 16 116 35 249 63 433 60 393 36 434 -12 21 -19 44 -16 55 11 34 59
59 115 59 l53 0 -6 -52 c-7 -55 1 -72 133 -283 20 -33 59 -95 85 -138 76 -125
78 -94 11 203 -15 63 -36 157 -47 208 -18 78 -25 95 -45 104 -30 14 -31 47 -3
98 20 35 64 70 88 70 6 0 11 -11 11 -25 0 -27 2 -29 206 -125 69 -33 127 -54
134 -50 8 5 -16 44 -78 126 -168 220 -166 219 -194 222 l-27 3 6 84 c5 71 3
85 -10 90 -8 4 -21 20 -27 36 -11 25 -18 29 -49 29 -61 0 -78 -38 -45 -102 21
-40 15 -110 -16 -172 -28 -59 -37 -55 -10 5 23 52 27 151 7 168 -8 6 -24 12
-37 13 -30 4 -40 -28 -44 -137 -3 -80 -18 -128 -51 -155 -14 -11 -21 -11 -45
3 -38 23 -71 22 -77 -2 -4 -17 -9 -18 -28 -9 -37 17 -40 40 -9 64 21 18 26 28
22 53 -3 18 0 31 6 31 6 0 24 7 40 15 15 8 33 12 38 9 5 -4 8 -34 6 -68 -3
-60 -3 -61 24 -64 22 -3 32 3 47 28 23 39 13 93 -26 141 -11 14 -8 27 22 91
38 79 60 208 36 208 -20 0 -12 48 14 78 18 22 31 28 49 25 30 -6 38 6 30 47
-14 69 -89 78 -119 14 l-17 -37 -14 31 c-18 44 -55 60 -89 38 -20 -13 -25 -25
-25 -56 0 -37 2 -40 28 -40 47 0 82 -54 57 -87 -8 -10 -15 -31 -15 -47 0 -40
-35 -109 -77 -154 -38 -40 -55 -92 -31 -92 24 0 107 96 134 155 28 60 37 71
25 28 -16 -54 -41 -105 -67 -136 -26 -31 -90 -77 -108 -77 -12 0 -1 108 14
142 7 15 26 31 41 37 16 5 29 14 29 19 0 14 -35 42 -53 42 -24 0 -56 -39 -68
-84 l-11 -40 -21 54 c-27 67 -64 87 -98 53 -24 -23 -18 -43 11 -43 31 0 50
-42 57 -119 l6 -71 -46 25 c-50 28 -88 73 -117 137 -28 63 -24 82 5 22 28 -56
106 -144 130 -144 24 0 17 37 -14 72 -52 60 -91 131 -91 165 0 19 -6 44 -14
56 -13 19 -13 27 -1 55 8 18 22 32 32 33 59 4 58 3 54 34 -5 43 -18 64 -47 71
-27 7 -59 -15 -69 -47 -7 -22 -25 -25 -25 -5 0 20 -48 56 -75 56 -12 0 -29 -8
-38 -17z m818 -543 l-15 -45 6 63 c6 79 18 111 22 62 1 -19 -4 -55 -13 -80z
m-568 -4 c28 -9 31 -13 26 -43 -5 -28 -2 -34 21 -43 30 -11 36 -47 9 -57 -10
-3 -25 -12 -34 -20 -14 -11 -15 -10 -15 9 1 30 -29 35 -72 12 l-34 -18 -24 27
c-32 38 -30 50 4 30 50 -29 62 -14 55 63 -6 64 -5 67 13 59 10 -4 33 -13 51
-19z m-444 -48 c-6 -7 -49 -66 -96 -130 -47 -64 -96 -122 -109 -129 -19 -10
-21 -10 -12 2 53 69 173 220 193 242 25 27 42 38 24 15z m77 -13 c0 -16 -23
-38 -124 -120 -63 -52 -63 -38 -1 40 17 22 39 52 48 68 20 31 77 40 77 12z
m1133 -187 c18 -15 28 -28 24 -28 -4 0 -50 21 -102 48 l-93 47 1 41 2 42 68
-62 c38 -33 83 -73 100 -88z m-380 -15 c-5 -70 -2 -86 27 -163 38 -101 74
-195 89 -232 6 -16 7 -28 2 -28 -15 0 -153 239 -145 251 4 7 6 42 6 78 -2 58
14 171 23 171 2 0 1 -35 -2 -77z m-546 -28 c-2 -22 -23 -85 -46 -140 -23 -55
-52 -125 -65 -155 -13 -30 -26 -64 -30 -74 -14 -42 -16 -4 -2 55 8 35 23 99
32 143 10 43 24 84 32 90 57 45 62 54 63 113 0 49 2 54 10 33 6 -14 9 -43 6
-65z m236 22 c3 -24 11 -57 17 -73 11 -27 12 -28 25 -10 8 10 17 42 21 72 3
30 10 54 13 54 14 0 -8 -110 -28 -144 -20 -32 -21 -48 -22 -317 l-1 -284 -34
224 c-35 236 -35 235 7 290 22 27 24 62 8 93 -14 25 -28 138 -19 138 4 0 10
-19 13 -43z m-393 -324 c-11 -17 -11 -17 -6 0 3 10 7 26 7 35 1 15 2 15 6 0 2
-10 -1 -25 -7 -35z m-12 -75 c-6 -29 -14 -60 -19 -68 -8 -12 -9 -11 -5 5 2 11
7 38 11 60 6 38 12 55 19 55 2 0 -1 -24 -6 -52z m-31 -120 c-3 -7 -5 -2 -5 12
0 14 2 19 5 13 2 -7 2 -19 0 -25z"/>
</g>
</svg>
