<?xml version="1.0" standalone="no"?>
<!DOCTYPE svg PUBLIC "-//W3C//DTD SVG 20010904//EN"
 "http://www.w3.org/TR/2001/REC-SVG-20010904/DTD/svg10.dtd">
<svg version="1.0" xmlns="http://www.w3.org/2000/svg"
 width="244.000000pt" height="305.000000pt" viewBox="0 0 244.000000 305.000000"
 preserveAspectRatio="xMidYMid meet">
<metadata>
Created by potrace 1.16, written by Peter Selinger 2001-2019
</metadata>
<g transform="translate(0.000000,305.000000) scale(0.100000,-0.100000)"
fill="#000000" stroke="none">
<path d="M903 2408 c-1 -275 -4 -503 -7 -506 -4 -3 -16 4 -29 16 -13 12 -28
22 -34 22 -6 0 -13 21 -16 48 -9 80 13 438 39 619 24 174 29 226 13 163 -35
-144 -69 -509 -69 -748 0 -98 1 -103 23 -111 13 -5 37 -21 54 -35 l30 -25 23
24 c12 13 36 29 52 36 l31 13 -7 180 c-10 260 -23 412 -52 576 -48 280 -49
276 -51 -272z"/>
<path d="M1172 2890 c0 -14 2 -19 5 -12 2 6 2 18 0 25 -3 6 -5 1 -5 -13z"/>
<path d="M1558 2883 c-2 -18 -1 -30 4 -27 4 3 8 -211 8 -475 0 -265 -3 -481
-7 -481 -4 0 -24 12 -45 26 l-38 27 0 156 c0 179 12 339 40 529 22 146 23 162
9 117 -30 -97 -56 -354 -65 -626 -6 -205 -6 -207 15 -214 12 -3 35 -18 52 -32
21 -18 35 -24 44 -17 6 5 31 22 55 38 l43 28 -7 212 c-9 295 -51 631 -94 746
-9 24 -9 24 -14 -7z"/>
<path d="M1290 2780 c-1 -58 -2 -172 -2 -255 0 -109 -2 -136 -7 -99 -5 28 -13
66 -19 85 -6 19 -13 47 -16 62 -10 42 -21 25 -37 -55 l-14 -73 -6 115 -5 115
-2 -115 c-1 -63 -7 -167 -12 -230 -5 -63 -13 -191 -16 -285 -4 -93 -8 -172
-10 -174 -9 -10 -14 10 -28 100 -8 51 -18 105 -24 119 l-9 24 -12 -22 c-6 -12
-14 -64 -18 -115 l-6 -94 32 -19 c37 -22 47 -52 35 -103 -9 -37 -26 -44 -66
-26 -14 6 -18 2 -18 -17 0 -32 27 -68 50 -68 10 0 27 11 38 25 27 34 33 32 32
-12 -1 -21 1 -48 5 -60 6 -19 3 -21 -29 -20 -25 1 -43 -6 -58 -20 l-21 -22 34
-8 c19 -5 34 -15 33 -21 -1 -7 -2 -21 -2 -32 -3 -30 -18 -24 -60 21 -54 60
-72 90 -72 122 0 15 -9 35 -20 44 -27 24 -25 39 10 75 26 25 36 29 73 26 36
-3 42 0 45 17 1 11 -8 33 -21 49 -18 22 -31 28 -60 28 -44 0 -62 -13 -86 -61
l-19 -35 -21 41 c-21 43 -45 56 -96 55 -36 -1 -78 -44 -73 -76 3 -18 9 -21 41
-18 43 4 78 -14 103 -54 16 -24 16 -27 -5 -55 -17 -23 -20 -37 -15 -67 8 -43
41 -112 78 -161 31 -41 32 -55 8 -79 -32 -32 -52 -66 -52 -87 0 -49 98 -97
118 -58 7 12 7 25 1 34 -11 17 -12 86 -1 92 4 3 35 -4 70 -15 61 -21 62 -21
62 -58 0 -48 -26 -113 -35 -88 -5 13 -12 14 -43 6 -20 -6 -49 -17 -64 -26 -35
-20 -65 -7 -104 44 -22 29 -29 50 -31 88 -4 111 -14 157 -39 168 -18 8 -29 6
-54 -12 -30 -22 -32 -26 -28 -74 4 -41 19 -74 77 -171 90 -149 91 -167 14
-296 -27 -46 -83 -142 -123 -214 -90 -161 -100 -178 -106 -172 -3 3 24 98 60
211 36 114 66 208 66 210 0 2 21 9 46 16 53 15 65 37 65 117 0 59 -4 69 -69
155 -82 108 -91 156 -44 240 26 48 27 49 8 64 -11 8 -41 14 -67 14 -38 0 -51
-5 -63 -22 -21 -30 -20 -52 5 -126 23 -70 20 -115 -10 -154 -23 -28 -391 -250
-391 -235 0 3 64 65 142 137 l142 132 45 -6 44 -6 -6 67 c-4 38 -7 85 -7 106
0 21 -5 37 -11 37 -9 0 -10 -26 -6 -91 l6 -90 -30 6 c-34 8 -58 -11 -229 -172
-52 -49 -114 -107 -138 -128 -23 -21 -40 -40 -38 -43 3 -2 111 31 240 74 219
72 236 79 236 101 0 36 25 38 88 7 93 -47 137 -138 72 -150 -16 -4 -33 -11
-38 -18 -5 -6 -33 -87 -61 -181 -29 -93 -66 -212 -82 -264 -17 -52 -29 -100
-27 -106 2 -7 39 28 83 77 317 355 306 342 301 369 -3 15 -8 38 -12 53 l-6 26
86 0 c109 0 145 -16 147 -63 l1 -32 7 30 c5 25 8 27 14 12 10 -25 11 -22 -23
-60 l-30 -35 15 -83 c17 -98 19 -149 5 -149 -5 0 -10 -13 -10 -30 0 -16 5 -30
10 -30 6 0 10 14 10 30 0 17 5 30 10 30 6 0 10 -3 10 -6 0 -9 82 -409 84 -411
2 -3 86 407 86 420 0 4 6 4 13 1 11 -4 15 21 20 117 3 68 2 128 -2 133 -13 16
-22 80 -13 91 16 23 67 35 142 35 43 0 81 -3 84 -8 2 -4 -1 -26 -7 -49 -10
-40 -10 -42 34 -94 24 -29 55 -65 69 -80 14 -14 66 -73 115 -129 50 -57 109
-124 133 -149 l42 -46 -16 55 c-38 129 -145 477 -155 502 -7 17 -23 31 -45 38
-23 8 -34 18 -34 31 0 53 60 115 132 138 44 14 58 9 58 -24 0 -22 16 -29 233
-100 127 -42 239 -78 247 -81 16 -5 -19 30 -238 235 -126 118 -134 123 -166
117 l-34 -6 6 91 c4 68 2 90 -7 85 -6 -4 -11 -29 -11 -55 0 -27 -7 -68 -15
-91 -8 -23 -15 -50 -15 -59 0 -14 71 -66 145 -106 20 -11 32 -19 168 -105 37
-23 67 -46 67 -51 0 -5 -30 3 -67 17 -38 14 -119 44 -181 66 -117 42 -117 42
-97 89 4 12 -3 23 -24 38 -42 30 -49 86 -22 178 27 90 27 118 -1 137 -30 22
-91 20 -118 -2 l-23 -19 27 -45 c46 -79 33 -141 -48 -241 -53 -64 -86 -145
-86 -208 0 -42 1 -45 210 -424 18 -33 37 -66 43 -73 5 -7 7 -15 5 -18 -3 -3
-52 50 -109 117 -57 68 -114 134 -127 147 -49 51 -73 98 -64 123 5 13 9 60 9
104 0 90 8 109 96 250 58 93 73 161 42 195 -20 22 -68 27 -82 8 -15 -21 -34
-132 -27 -164 4 -22 -2 -39 -26 -72 -42 -58 -72 -71 -113 -49 -18 9 -45 17
-62 19 -27 3 -31 8 -42 58 -7 30 -11 60 -9 66 6 15 95 46 108 38 6 -4 7 -32 3
-70 -8 -73 3 -86 56 -64 46 19 64 53 49 89 -6 16 -21 38 -32 48 -39 35 -40 48
-6 89 68 85 100 203 63 234 -23 19 -18 39 19 76 29 29 41 34 80 34 50 0 55 9
35 53 -11 25 -47 47 -75 47 -32 0 -73 -31 -85 -65 -16 -43 -25 -44 -42 -2 -19
44 -40 59 -83 60 -28 1 -42 -5 -60 -27 -13 -15 -24 -38 -24 -52 0 -24 2 -24
48 -18 46 6 50 4 75 -26 32 -37 34 -56 9 -69 -12 -6 -19 -22 -20 -40 0 -16 -6
-40 -13 -53 -19 -35 -110 -128 -120 -122 -5 3 -9 20 -9 39 0 31 3 35 35 41 34
6 35 7 19 25 -11 12 -31 19 -56 19 l-38 0 6 58 c4 31 8 59 10 61 2 2 14 -9 27
-24 17 -20 29 -26 44 -21 20 6 43 44 43 71 0 17 -26 20 -35 5 -3 -5 -14 -10
-24 -10 -21 0 -31 26 -31 82 0 32 5 41 35 60 31 21 35 28 35 69 0 54 -18 160
-30 172 -8 10 -24 -51 -40 -158 -6 -38 -15 -74 -19 -78 -10 -10 -21 211 -22
467 -1 111 -5 280 -8 376 -7 160 -8 166 -11 70z m-62 -387 c-1 -76 -2 -275 0
-443 2 -168 0 -314 -4 -323 -18 -48 -53 52 -39 113 11 48 24 24 19 -33 -4 -38
-3 -48 5 -37 12 17 13 165 1 315 l-8 100 2 -122 c0 -67 -2 -115 -5 -105 -6 14
-8 15 -13 2 -3 -8 -7 -31 -8 -50 -3 -32 -4 -31 -8 12 -3 25 -2 44 1 42 14 -8
19 66 19 258 0 140 5 232 17 304 9 57 18 104 21 104 2 0 2 -62 0 -137z m-51
-470 c-3 -10 -5 -4 -5 12 0 17 2 24 5 18 2 -7 2 -21 0 -30z m369 -396 c-29
-59 -83 -116 -141 -146 -37 -20 -40 -20 -44 -4 -2 9 2 19 9 21 36 12 132 113
162 170 29 54 33 59 36 36 2 -14 -8 -49 -22 -77z m-605 32 c31 -57 103 -130
157 -158 12 -6 22 -18 22 -26 0 -58 -152 60 -200 155 -18 35 -27 90 -16 90 3
0 19 -27 37 -61z m256 4 c-3 -10 -5 -4 -5 12 0 17 2 24 5 18 2 -7 2 -21 0 -30z
m83 10 c0 -21 -3 -24 -9 -14 -5 8 -7 20 -4 28 8 21 13 15 13 -14z m-65 -43 c3
-5 1 -10 -4 -10 -6 0 -11 5 -11 10 0 6 2 10 4 10 3 0 8 -4 11 -10z m48 -15
c-3 -9 -8 -14 -10 -11 -3 3 -2 9 2 15 9 16 15 13 8 -4z m-26 -42 c-3 -10 -5
-2 -5 17 0 19 2 27 5 18 2 -10 2 -26 0 -35z m-68 -34 c14 -63 14 -99 1 -99 -6
0 -10 28 -10 63 0 44 -3 58 -10 47 -7 -11 -10 -7 -10 18 0 47 16 31 29 -29z
m160 8 c0 -27 -2 -29 -9 -12 -6 15 -9 6 -9 -32 -1 -28 -5 -55 -11 -58 -13 -8
-13 32 2 94 12 54 28 59 27 8z m-192 -89 c-3 -8 -6 -5 -6 6 -1 11 2 17 5 13 3
-3 4 -12 1 -19z m220 -150 c-3 -8 -6 -5 -6 6 -1 11 2 17 5 13 3 -3 4 -12 1
-19z m-40 -20 c-3 -7 -5 -2 -5 12 0 14 2 19 5 13 2 -7 2 -19 0 -25z m-160 0
c-3 -8 -6 -5 -6 6 -1 11 2 17 5 13 3 -3 4 -12 1 -19z m140 0 c-3 -8 -6 -5 -6
6 -1 11 2 17 5 13 3 -3 4 -12 1 -19z m-107 -9 c0 -5 -4 -9 -10 -9 -5 0 -10 7
-10 16 0 8 5 12 10 9 6 -3 10 -10 10 -16z m188 -64 c1 -18 0 -18 -12 4 -7 12
-10 35 -7 50 l5 26 7 -30 c4 -16 7 -39 7 -50z m-243 -43 c-8 -8 -25 10 -19 20
4 6 9 5 15 -3 4 -7 6 -15 4 -17z m225 8 c0 -5 -7 -10 -15 -10 -8 0 -15 5 -15
10 0 6 7 10 15 10 8 0 15 -4 15 -10z m-123 -162 c-3 -8 -6 -5 -6 6 -1 11 2 17
5 13 3 -3 4 -12 1 -19z m-9 -356 c-2 -144 -4 -259 -5 -255 -2 5 -18 85 -37
179 -34 170 -34 173 -20 264 8 58 20 100 31 112 17 19 18 19 25 -9 4 -15 7
-146 6 -291z m-87 195 c-8 -8 -11 -4 -11 14 0 33 14 47 18 19 2 -12 -1 -27 -7
-33z"/>
<path d="M1213 760 c0 -36 2 -50 4 -32 2 17 2 47 0 65 -2 17 -4 3 -4 -33z"/>
<path d="M1541 2814 c0 -11 3 -14 6 -6 3 7 2 16 -1 19 -3 4 -6 -2 -5 -13z"/>
<path d="M1163 2615 c0 -22 2 -30 4 -17 2 12 2 30 0 40 -3 9 -5 -1 -4 -23z"/>
<path d="M1090 1275 c0 -8 5 -15 10 -15 6 0 10 7 10 15 0 8 -4 15 -10 15 -5 0
-10 -7 -10 -15z"/>
<path d="M1081 1224 c0 -11 3 -14 6 -6 3 7 2 16 -1 19 -3 4 -6 -2 -5 -13z"/>
<path d="M1346 490 c8 -56 14 -64 14 -19 0 19 -5 41 -10 49 -7 10 -8 1 -4 -30z"/>
<path d="M1112 465 c0 -16 2 -22 5 -12 2 9 2 23 0 30 -3 6 -5 -1 -5 -18z"/>
</g>
</svg>
