<?xml version="1.0" standalone="no"?>
<!DOCTYPE svg PUBLIC "-//W3C//DTD SVG 20010904//EN"
 "http://www.w3.org/TR/2001/REC-SVG-20010904/DTD/svg10.dtd">
<svg version="1.0" xmlns="http://www.w3.org/2000/svg"
 width="244.000000pt" height="305.000000pt" viewBox="0 0 244.000000 305.000000"
 preserveAspectRatio="xMidYMid meet">
<metadata>
Created by potrace 1.16, written by Peter Selinger 2001-2019
</metadata>
<g transform="translate(0.000000,305.000000) scale(0.100000,-0.100000)"
fill="#000000" stroke="none">
<path d="M896 2900 c-13 -33 -57 -279 -72 -398 -8 -70 -18 -229 -21 -353 l-6
-227 22 -7 c12 -4 37 -20 55 -36 l33 -28 22 23 c13 14 37 30 53 37 l30 12 -6
196 c-8 230 -30 460 -55 586 -22 108 -27 82 -7 -36 25 -141 46 -404 46 -565
l0 -151 -40 -27 c-22 -14 -42 -26 -45 -26 -3 0 -5 217 -4 483 0 423 2 478 14
447 l14 -35 -6 40 c-9 58 -19 84 -27 65z"/>
<path d="M1332 2885 c0 -16 2 -22 5 -12 2 9 2 23 0 30 -3 6 -5 -1 -5 -18z"/>
<path d="M1542 2813 c-43 -187 -64 -374 -78 -714 l-7 -167 43 -28 c24 -16 48
-33 55 -38 8 -6 24 -1 46 16 19 14 43 28 53 32 18 6 19 16 12 219 -8 238 -27
436 -56 577 -22 105 -19 68 10 -148 21 -154 45 -560 36 -595 -7 -25 -72 -70
-87 -61 -7 4 -9 186 -7 500 2 272 3 494 2 494 -1 0 -11 -39 -22 -87z"/>
<path d="M1127 2807 c-4 -49 -4 -93 -1 -99 8 -13 11 -778 3 -778 -8 0 -19 79
-20 154 -1 49 -3 55 -9 31 -4 -16 -8 -23 -9 -16 -2 31 -20 -6 -30 -63 -18 -98
-15 -151 11 -168 13 -9 18 -19 14 -27 -6 -9 -13 -8 -27 5 -24 22 -81 23 -105
4 -9 -8 -24 -31 -32 -50 -13 -32 -15 -33 -26 -16 -6 11 -23 33 -38 50 -22 26
-33 31 -69 30 -50 -2 -82 -32 -77 -73 3 -24 7 -25 44 -23 32 3 47 -2 71 -22
40 -33 46 -60 21 -88 -16 -18 -18 -31 -13 -62 7 -49 48 -132 81 -167 27 -28
30 -51 11 -71 -28 -29 -57 -77 -57 -95 1 -28 23 -52 62 -66 31 -10 34 -15 27
-34 -11 -31 -42 -20 -85 31 -31 36 -35 46 -30 81 2 22 1 58 -4 80 -6 22 -12
52 -15 68 -5 23 -10 27 -39 27 -44 0 -69 -28 -68 -79 1 -37 51 -140 112 -231
28 -41 43 -100 42 -167 -1 -35 3 -76 9 -90 8 -22 6 -32 -12 -57 -32 -44 -280
-336 -285 -336 -6 0 -6 -1 137 262 85 155 119 227 119 251 0 61 -30 136 -80
203 -67 88 -80 115 -80 169 0 32 8 57 26 85 26 39 26 41 9 60 -24 27 -105 28
-128 2 -23 -25 -21 -58 5 -147 19 -64 20 -79 9 -115 -8 -27 -21 -45 -37 -52
-25 -12 -26 -19 -13 -67 4 -16 -47 -39 -238 -107 -68 -24 -123 -40 -123 -36 0
4 84 59 186 122 102 63 190 120 195 126 6 8 4 32 -5 70 -8 33 -19 84 -25 114
-9 52 -9 49 -8 -42 l2 -97 -35 5 c-34 5 -42 -1 -220 -166 -102 -95 -186 -176
-188 -180 -4 -10 24 -2 273 80 105 35 196 68 203 73 6 5 12 18 12 29 0 29 23
31 72 8 57 -26 104 -76 113 -118 6 -30 5 -33 -24 -38 -17 -4 -35 -12 -41 -19
-12 -15 -183 -566 -177 -572 3 -2 17 11 32 29 15 18 48 56 74 84 25 28 74 82
107 120 34 38 89 101 123 139 54 61 62 74 57 100 -14 76 -21 70 81 70 52 0 97
-5 103 -11 8 -8 3 -55 -17 -165 -24 -135 -29 -149 -35 -114 -4 23 -5 11 -2
-30 3 -43 1 -65 -4 -57 -6 9 -11 -11 -15 -60 -2 -40 -4 -74 -3 -76 2 -1 19 62
40 140 20 79 41 147 45 151 4 4 18 -43 30 -105 62 -319 95 -469 101 -452 4 11
31 142 60 292 30 150 57 267 61 260 4 -7 19 -58 33 -113 15 -55 31 -101 36
-103 5 -2 7 -9 4 -15 -2 -7 0 -25 5 -42 l9 -30 1 30 c0 17 -10 133 -22 258
-13 125 -20 233 -16 239 9 14 139 12 153 -2 6 -6 5 -19 -2 -35 -18 -39 -15
-58 16 -91 39 -43 346 -388 349 -393 2 -2 6 -2 9 1 3 4 -9 53 -26 110 -106
349 -133 434 -141 444 -5 7 -23 14 -39 18 -65 12 -21 103 72 150 63 31 88 29
88 -7 0 -22 12 -28 163 -77 89 -28 193 -63 230 -76 38 -13 73 -24 78 -24 10 0
-124 130 -276 269 -82 74 -93 81 -122 76 l-32 -6 6 93 c4 64 2 90 -5 83 -6 -5
-13 -54 -17 -108 l-7 -98 40 7 c46 7 55 2 140 -77 150 -140 189 -179 179 -179
-10 0 -245 133 -330 187 -43 27 -77 77 -77 113 0 14 9 54 20 90 25 81 25 95 0
120 -26 26 -89 27 -120 2 l-23 -19 27 -45 c39 -67 32 -136 -23 -207 -79 -101
-91 -124 -91 -177 0 -83 14 -110 66 -124 l44 -13 36 -116 c19 -64 44 -141 54
-171 28 -84 49 -160 45 -160 -3 0 -79 128 -118 200 -11 19 -45 78 -75 130 -85
146 -102 181 -102 214 0 35 40 125 74 171 69 91 95 194 58 228 -19 18 -59 22
-78 9 -13 -8 -26 -95 -25 -158 1 -31 -7 -52 -29 -82 -40 -56 -66 -69 -80 -41
-13 24 -15 21 27 43 60 30 64 85 11 133 -39 35 -40 50 -9 85 73 85 107 203 68
242 -16 17 -16 19 0 48 25 43 56 60 100 56 32 -2 38 0 41 18 2 11 -7 32 -18
47 -16 21 -30 27 -59 27 -46 0 -79 -23 -98 -69 l-16 -36 -18 42 c-13 30 -29
48 -53 59 -33 16 -36 16 -70 -4 -33 -19 -36 -20 -36 -4 0 9 8 22 19 29 20 13
20 20 1 147 -12 77 -19 94 -30 76 -4 -7 -11 104 -15 246 -14 498 -22 505 -24
19 -2 -308 -5 -452 -12 -436 -5 13 -12 94 -15 180 -5 146 -32 332 -65 453
l-12 43 -13 -38 c-16 -45 -52 -233 -56 -292 -2 -22 -7 79 -12 225 -5 146 -11
294 -15 330 l-6 65 -8 -88z m148 -459 c23 -165 33 -459 18 -495 -17 -39 -16
-72 2 -89 17 -17 21 -39 5 -29 -5 3 -10 1 -10 -6 0 -9 -3 -10 -11 -2 -8 8 -27
462 -29 707 0 65 8 37 25 -86z m-202 -584 c22 -4 37 -12 37 -21 0 -20 -30 -28
-52 -14 -26 16 -31 9 -23 -28 9 -40 27 -54 56 -42 23 8 24 7 20 -35 -2 -26 -8
-44 -15 -44 -7 0 -23 -11 -36 -25 -13 -14 -27 -25 -31 -25 -12 0 -46 63 -54
99 -4 19 -14 41 -21 49 -20 20 -18 30 15 63 31 30 42 33 104 23z m431 -24 c29
-35 33 -58 12 -66 -8 -3 -17 -22 -21 -42 -7 -38 -41 -102 -54 -102 -4 0 -18
11 -31 25 -13 14 -29 25 -37 25 -9 0 -13 13 -13 40 0 38 2 40 24 34 28 -7 56
25 56 63 0 27 -1 27 -35 11 -19 -8 -29 -8 -37 0 -22 22 -1 37 55 40 50 3 57 0
81 -28z m-197 -62 c-2 -32 -8 -43 -25 -49 -21 -8 -22 -6 -21 34 1 23 4 32 6
20 6 -32 19 -28 27 7 8 44 16 37 13 -12z m-372 -108 c14 -27 38 -65 55 -83 16
-19 30 -45 30 -58 0 -22 0 -22 -31 7 -41 39 -89 122 -89 157 0 15 2 27 5 27 2
0 16 -22 30 -50z m402 18 c-3 -7 -5 -2 -5 12 0 14 2 19 5 13 2 -7 2 -19 0 -25z
m213 -58 c-22 -44 -87 -120 -101 -120 -20 0 -7 35 30 76 22 25 50 66 62 92 22
44 24 45 27 20 2 -14 -6 -45 -18 -68z m-413 58 c-3 -8 -6 -5 -6 6 -1 11 2 17
5 13 3 -3 4 -12 1 -19z m56 8 c6 -16 -16 -40 -26 -29 -4 3 -7 15 -7 25 0 21
25 24 33 4z m117 -5 c0 -28 -17 -35 -29 -13 -11 21 -6 32 16 32 7 0 13 -9 13
-19z m-190 -84 c5 -17 10 -38 10 -49 0 -17 -1 -18 -25 -2 -18 12 -25 25 -25
48 0 42 25 44 40 3z m117 -24 c-3 -10 -5 -2 -5 17 0 19 2 27 5 18 2 -10 2 -26
0 -35z m153 18 c0 -20 -8 -34 -25 -45 -24 -16 -25 -15 -25 3 0 33 19 71 35 71
10 0 15 -10 15 -29z m-79 -62 c-6 -16 -10 -18 -10 -7 -1 22 12 55 16 42 2 -6
-1 -22 -6 -35z m-274 -31 c-3 -8 -6 -5 -6 6 -1 11 2 17 5 13 3 -3 4 -12 1 -19z
m40 -20 c-3 -8 -6 -5 -6 6 -1 11 2 17 5 13 3 -3 4 -12 1 -19z m333 13 c0 -6
-4 -13 -10 -16 -5 -3 -10 1 -10 9 0 9 5 16 10 16 6 0 10 -4 10 -9z m-272 -30
c3 -8 -1 -12 -9 -9 -7 2 -15 10 -17 17 -3 8 1 12 9 9 7 -2 15 -10 17 -17z
m222 12 c-1 -20 -16 -31 -30 -22 -13 8 -13 10 0 19 18 12 30 13 30 3z m-340
-60 c0 -7 6 -12 13 -10 8 1 11 -10 9 -38 -5 -54 -26 -101 -51 -115 -26 -13
-28 0 -4 36 14 21 14 31 5 58 -13 34 -16 69 -7 78 10 10 35 4 35 -9z m470 -13
c1 -8 2 -24 1 -35 -2 -19 -2 -19 -14 3 -7 12 -16 19 -20 16 -4 -4 -7 2 -7 14
0 35 36 37 40 2z m-318 -12 c-9 -9 -12 -7 -12 12 0 19 3 21 12 12 9 -9 9 -15
0 -24z m134 5 c-10 -10 -19 5 -10 18 6 11 8 11 12 0 2 -7 1 -15 -2 -18z m153
-107 c6 -16 9 -31 7 -33 -11 -11 -36 73 -35 116 l2 46 7 -50 c4 -27 12 -63 19
-79z m-366 49 l6 -50 -14 40 c-16 47 -19 83 -6 70 5 -6 11 -32 14 -60z m303
19 c-4 -20 -10 -34 -12 -31 -3 3 -2 21 2 41 3 21 9 35 11 32 3 -3 2 -21 -1
-42z m-238 -60 c22 14 34 -5 16 -25 -23 -25 -40 -24 -48 4 -10 39 -7 53 7 32
8 -10 19 -15 25 -11z m188 -6 c-8 -42 -24 -51 -49 -27 -17 15 -18 21 -7 34 11
13 15 13 22 3 7 -10 12 -9 21 5 17 25 20 21 13 -15z m31 0 c-3 -8 -6 -5 -6 6
-1 11 2 17 5 13 3 -3 4 -12 1 -19z m-270 -30 c-3 -8 -6 -5 -6 6 -1 11 2 17 5
13 3 -3 4 -12 1 -19z m260 -10 c-3 -8 -6 -5 -6 6 -1 11 2 17 5 13 3 -3 4 -12
1 -19z m-10 -80 c-3 -8 -6 -5 -6 6 -1 11 2 17 5 13 3 -3 4 -12 1 -19z m-120
-160 c-3 -8 -6 -5 -6 6 -1 11 2 17 5 13 3 -3 4 -12 1 -19z m162 -202 c17 -104
29 -191 28 -193 -6 -5 -57 199 -57 227 0 14 -7 38 -15 54 -16 30 -19 73 -9
101 12 32 22 -1 53 -189z m-239 149 c0 -8 -4 -17 -10 -20 -6 -4 -10 5 -10 20
0 15 4 24 10 20 6 -3 10 -12 10 -20z m170 -1 c0 -22 -2 -25 -15 -14 -12 10
-13 16 -4 26 16 20 19 18 19 -12z m10 -84 c1 -23 -83 -430 -88 -426 -2 3 2 91
8 197 7 106 9 223 6 259 l-7 65 40 -40 c23 -21 41 -46 41 -55z"/>
<path d="M1278 2046 c-12 -75 -10 -192 2 -180 7 7 10 54 8 120 -3 92 -4 101
-10 60z"/>
<path d="M1000 1285 c0 -8 7 -15 15 -15 8 0 15 7 15 15 0 8 -7 15 -15 15 -8 0
-15 -7 -15 -15z"/>
<path d="M1323 2725 c0 -22 2 -30 4 -17 2 12 2 30 0 40 -3 9 -5 -1 -4 -23z"/>
<path d="M1113 2525 c0 -38 2 -53 4 -32 2 20 2 52 0 70 -2 17 -4 1 -4 -38z"/>
<path d="M1313 2520 c0 -36 2 -50 4 -32 2 17 2 47 0 65 -2 17 -4 3 -4 -33z"/>
<path d="M1063 860 c0 -25 2 -35 4 -22 2 12 2 32 0 45 -2 12 -4 2 -4 -23z"/>
<path d="M1053 755 c0 -22 2 -30 4 -17 2 12 2 30 0 40 -3 9 -5 -1 -4 -23z"/>
</g>
</svg>
