<?xml version="1.0" standalone="no"?>
<!DOCTYPE svg PUBLIC "-//W3C//DTD SVG 20010904//EN"
 "http://www.w3.org/TR/2001/REC-SVG-20010904/DTD/svg10.dtd">
<svg version="1.0" xmlns="http://www.w3.org/2000/svg"
 width="244.000000pt" height="305.000000pt" viewBox="0 0 244.000000 305.000000"
 preserveAspectRatio="xMidYMid meet">
<metadata>
Created by potrace 1.16, written by Peter Selinger 2001-2019
</metadata>
<g transform="translate(0.000000,305.000000) scale(0.100000,-0.100000)"
fill="#000000" stroke="none">
<path d="M1541 2813 c-43 -196 -66 -404 -77 -699 l-6 -192 23 -7 c13 -4 38
-20 55 -36 l31 -30 34 31 c19 16 43 33 53 36 18 6 19 16 13 243 -4 130 -13
288 -21 351 -24 187 -60 375 -76 393 -4 4 -17 -36 -29 -90z m25 -910 c-2 -3
-23 8 -47 24 l-42 28 6 225 c4 161 13 276 32 402 49 340 50 335 53 -196 1
-264 0 -481 -2 -483z"/>
<path d="M871 2798 c-47 -227 -67 -419 -73 -727 l-3 -144 25 -15 c14 -9 38
-27 53 -39 l29 -23 33 29 c19 16 43 32 55 36 21 7 21 10 15 187 -3 99 -10 233
-15 297 -17 192 -72 501 -90 501 -4 0 -17 -46 -29 -102z m25 -895 c-2 -3 -23
8 -46 23 l-43 28 7 194 c8 251 23 391 64 622 l17 95 3 -479 c1 -264 0 -481 -2
-483z"/>
<path d="M1141 2884 c0 -11 3 -14 6 -6 3 7 2 16 -1 19 -3 4 -6 -2 -5 -13z"/>
<path d="M1316 2728 c-3 -90 -9 -215 -13 -278 -6 -101 -8 -109 -15 -70 -11 62
-28 138 -41 184 -10 34 -12 36 -19 16 -4 -12 -5 -34 -2 -48 4 -19 3 -23 -4
-13 -7 10 -14 -6 -26 -57 -9 -39 -17 -84 -18 -99 -1 -15 -4 1 -8 37 -5 46 -7
7 -10 -130 -6 -396 -17 -339 -20 105 -3 477 -11 456 -24 -64 -4 -146 -8 -266
-10 -269 -2 -2 -7 10 -11 27 -10 46 -21 38 -33 -26 -23 -121 -23 -143 4 -168
15 -14 24 -33 24 -51 l0 -29 -20 33 c-11 17 -25 33 -32 33 -7 1 -24 3 -36 4
-31 3 -73 -34 -88 -76 l-11 -34 -16 36 c-19 47 -52 69 -99 69 -47 0 -78 -28
-78 -70 0 -29 1 -30 43 -24 40 6 45 4 80 -35 42 -47 45 -56 17 -71 -40 -21
-11 -136 55 -219 40 -50 42 -63 16 -88 -10 -10 -28 -33 -39 -52 -19 -31 -20
-37 -6 -63 16 -30 49 -48 90 -48 24 0 24 -1 8 -25 -23 -35 -41 -31 -91 20 -39
41 -44 51 -43 93 1 65 -10 145 -22 160 -19 22 -65 14 -88 -15 -29 -37 -21 -78
32 -168 96 -164 102 -177 99 -224 -2 -44 -45 -129 -178 -351 -18 -30 -49 -86
-69 -125 -20 -38 -39 -65 -40 -60 -2 6 27 107 65 225 l69 214 38 13 c55 19 65
33 71 100 6 68 -6 100 -68 173 -43 52 -79 123 -78 160 0 14 11 43 24 65 43 69
27 95 -59 95 -35 0 -48 -5 -56 -19 -15 -28 -12 -86 5 -128 18 -42 19 -110 2
-140 -7 -12 -23 -30 -37 -40 -41 -31 -331 -197 -349 -199 -15 -2 60 72 206
202 57 51 65 55 105 52 l43 -3 -3 60 c-4 102 -12 149 -24 137 -8 -8 -8 -36 -2
-92 l10 -81 -36 6 c-32 5 -40 1 -91 -47 -31 -29 -78 -73 -105 -97 -120 -109
-206 -193 -201 -197 2 -3 110 30 238 73 229 76 234 79 237 107 3 26 6 28 35
22 49 -10 121 -62 140 -101 23 -49 22 -52 -20 -72 -37 -17 -39 -22 -80 -148
-37 -115 -116 -369 -129 -417 -3 -10 -2 -18 3 -17 4 0 94 98 198 216 195 222
196 223 180 291 l-8 33 89 -3 89 -3 -1 -60 c0 -33 -8 -138 -17 -233 -10 -95
-17 -185 -16 -200 l1 -27 9 30 c5 17 6 38 3 49 -4 13 -3 16 7 11 9 -6 11 -2 6
16 -9 34 24 252 37 239 6 -6 4 -37 -8 -91 -10 -44 -15 -83 -13 -85 2 -3 10 23
17 56 7 33 14 59 16 57 2 -2 12 -48 23 -103 38 -188 93 -449 95 -452 3 -2 12
43 67 318 17 85 35 172 39 193 4 21 10 40 12 42 3 3 16 -38 29 -91 17 -69 25
-89 30 -72 3 12 2 30 -2 38 -12 22 -60 340 -53 351 10 17 23 9 27 -19 4 -25 4
-25 6 6 l1 32 91 0 92 0 -8 -32 c-4 -18 -9 -42 -11 -53 -3 -12 6 -31 23 -50
15 -16 102 -113 192 -215 91 -102 169 -189 174 -195 14 -15 5 22 -48 190 -25
83 -62 201 -81 263 -34 108 -37 114 -70 128 -43 18 -50 34 -31 71 24 45 71 83
120 98 49 15 57 12 57 -19 0 -19 29 -31 245 -103 135 -45 245 -78 245 -73 0 4
-19 24 -42 45 -43 37 -201 182 -287 263 -41 38 -50 42 -81 38 l-36 -6 10 81
c6 53 6 83 -1 90 -7 7 -12 -9 -17 -48 -3 -32 -13 -80 -21 -107 -8 -26 -13 -52
-10 -56 4 -6 307 -199 356 -226 24 -13 46 -34 37 -34 -4 0 -19 5 -35 11 -15 6
-89 33 -163 59 -74 26 -143 51 -153 55 -15 6 -17 15 -12 46 4 26 3 39 -4 39
-6 0 -20 9 -31 20 -27 27 -26 104 2 192 l22 68 -21 27 c-15 21 -30 29 -61 31
-73 5 -101 -27 -66 -76 49 -71 30 -162 -53 -250 -30 -31 -62 -102 -74 -160
l-13 -63 68 -132 c38 -73 77 -143 86 -157 31 -46 109 -200 101 -200 -6 0 -84
89 -243 282 -53 64 -56 70 -47 100 5 18 9 64 10 103 1 85 7 103 87 237 73 124
84 176 42 210 -32 26 -73 20 -81 -12 -23 -82 -29 -123 -20 -138 20 -35 -63
-142 -110 -142 -11 0 -22 7 -25 15 -4 9 -11 15 -18 14 -6 -1 -17 -1 -23 0 -19
2 -43 68 -42 115 2 30 3 33 6 14 2 -16 10 -28 17 -28 8 0 19 -21 26 -46 8 -27
16 -41 20 -33 4 6 13 8 19 5 17 -11 80 13 91 34 17 32 11 55 -25 103 -19 25
-35 50 -35 55 0 5 16 29 35 53 61 76 96 202 60 215 -25 10 -17 53 15 86 25 25
37 29 72 27 45 -4 54 6 44 46 -7 26 -51 55 -84 55 -29 0 -72 -39 -90 -79 l-15
-36 -11 32 c-25 74 -88 97 -146 55 -36 -27 -40 -27 -40 -4 0 10 11 25 25 32
29 15 32 51 14 160 -13 81 -26 97 -35 42 -4 -23 -10 -39 -15 -36 -5 3 -9 -16
-10 -43 0 -26 -4 -57 -9 -68 -5 -12 -9 183 -9 469 0 268 -2 490 -4 492 -2 3
-7 -69 -11 -158z m-103 -555 c-6 -227 -9 -265 -13 -178 l-5 110 -8 -107 c-6
-72 -5 -114 2 -127 14 -26 15 -162 1 -141 -7 11 -10 4 -10 -27 0 -43 14 -59
23 -25 3 9 5 0 6 -20 0 -21 -2 -38 -6 -38 -22 1 -33 21 -39 71 -5 44 -3 59 10
71 18 19 21 79 5 95 -20 20 -7 331 22 536 6 43 13 76 16 73 2 -2 1 -134 -4
-293z m-105 -427 c-3 -22 -26 -26 -60 -11 -25 10 -24 -35 0 -65 18 -22 20 -23
51 -7 33 16 33 16 27 -6 -3 -12 -6 -34 -6 -49 0 -19 -5 -28 -17 -28 -24 0 -53
-30 -53 -54 -1 -38 -66 43 -73 91 -4 22 -14 46 -22 53 -22 18 -18 40 12 72 24
25 33 28 85 27 54 -2 59 -3 56 -23z m396 -2 c29 -30 33 -56 12 -73 -8 -7 -17
-26 -20 -45 -7 -39 -64 -119 -78 -110 -5 3 -7 12 -4 19 6 16 -24 45 -47 45 -9
0 -17 3 -18 8 0 4 -3 27 -5 52 -5 43 -5 44 14 27 26 -24 47 -21 66 8 22 34 22
70 -1 60 -32 -13 -57 -10 -61 7 -2 12 5 18 25 21 70 10 90 7 117 -19z m-575
-169 c11 -25 43 -69 71 -99 32 -34 50 -62 48 -73 -3 -15 -11 -10 -50 25 -53
49 -92 111 -101 160 -9 46 9 39 32 -13z m218 23 c-3 -8 -6 -5 -6 6 -1 11 2 17
5 13 3 -3 4 -12 1 -19z m421 -25 c-12 -43 -56 -111 -96 -148 -61 -57 -57 -7 5
60 25 28 55 69 65 93 23 51 41 47 26 -5z m-375 6 c-7 -24 -19 -24 -26 0 -6 23
0 31 18 25 7 -3 11 -14 8 -25z m107 6 c0 -14 -4 -25 -9 -25 -12 0 -23 29 -15
41 10 18 24 9 24 -16z m-166 -98 c11 -44 5 -53 -23 -35 -28 17 -31 81 -3 76
10 -2 21 -18 26 -41z m103 -4 c-3 -10 -5 -2 -5 17 0 19 2 27 5 18 2 -10 2 -26
0 -35z m141 17 c-1 -21 -9 -37 -28 -50 l-27 -19 7 38 c8 46 17 61 35 61 9 0
13 -11 13 -30z m39 -102 c-3 -8 -6 -5 -6 6 -1 11 2 17 5 13 3 -3 4 -12 1 -19z
m-30 -20 c-3 -7 -5 -2 -5 12 0 14 2 19 5 13 2 -7 2 -19 0 -25z m-300 0 c-3 -8
-6 -5 -6 6 -1 11 2 17 5 13 3 -3 4 -12 1 -19z m63 -14 c0 -16 -16 -19 -25 -4
-8 13 4 32 16 25 5 -4 9 -13 9 -21z m197 3 c-6 -20 -27 -19 -27 2 0 14 5 19
15 14 9 -3 14 -10 12 -16z m-323 -33 c9 -3 16 -15 16 -26 0 -10 -4 -17 -9 -13
-5 3 -15 -10 -22 -30 -7 -19 -14 -33 -16 -31 -11 11 -19 65 -12 84 9 23 17 26
43 16z m464 -23 c2 -13 1 -40 -3 -60 l-7 -36 -25 54 c-21 44 -23 55 -12 62 23
15 44 6 47 -20z m-438 -93 c-6 -21 -15 -38 -21 -38 -5 0 -3 13 6 30 8 16 16
48 17 72 1 41 1 41 5 8 3 -19 0 -52 -7 -72z m130 92 c0 -5 -4 -10 -10 -10 -5
0 -10 5 -10 10 0 6 5 10 10 10 6 0 10 -4 10 -10z m125 0 c3 -5 1 -10 -4 -10
-6 0 -11 5 -11 10 0 6 2 10 4 10 3 0 8 -4 11 -10z m-201 -61 c9 -70 2 -72 -11
-4 -5 30 -6 55 -3 55 4 0 10 -23 14 -51z m272 5 c-4 -20 -10 -34 -12 -31 -3 3
-2 21 2 41 3 21 9 35 11 32 3 -3 2 -21 -1 -42z m-211 -50 c12 16 13 16 19 -1
4 -10 -1 -24 -13 -37 -20 -20 -20 -20 -31 8 -13 36 -12 56 2 32 10 -18 12 -18
23 -2z m168 -16 c-6 -29 -21 -36 -40 -17 -15 15 -5 39 12 33 7 -3 16 0 20 6
11 17 14 8 8 -22z m24 -20 c-3 -7 -5 -2 -5 12 0 14 2 19 5 13 2 -7 2 -19 0
-25z m-114 -244 c-7 -19 -10 -18 -16 5 -3 13 -1 18 9 14 7 -2 10 -11 7 -19z
m-122 -110 l-22 -39 7 60 c8 75 16 89 27 49 7 -24 5 -39 -12 -70z m199 49 c0
-19 -3 -24 -10 -17 -6 6 -8 18 -4 27 9 24 14 21 14 -10z m-163 -5 c-3 -8 -6
-5 -6 6 -1 11 2 17 5 13 3 -3 4 -12 1 -19z m49 -95 c-1 -60 2 -180 6 -268 l7
-160 -29 135 c-16 74 -36 169 -45 210 -19 87 -14 114 28 158 17 17 31 32 32
32 1 0 1 -48 1 -107z"/>
<path d="M1343 2525 c0 -27 2 -38 4 -22 2 15 2 37 0 50 -2 12 -4 0 -4 -28z"/>
<path d="M1393 805 c0 -27 2 -38 4 -22 2 15 2 37 0 50 -2 12 -4 0 -4 -28z"/>
<path d="M1402 700 c0 -19 2 -27 5 -17 2 9 2 25 0 35 -3 9 -5 1 -5 -18z"/>
<path d="M1071 554 c0 -11 3 -14 6 -6 3 7 2 16 -1 19 -3 4 -6 -2 -5 -13z"/>
<path d="M1412 485 c0 -11 4 -31 8 -45 l8 -25 0 25 c0 14 -3 34 -8 45 l-9 20
1 -20z"/>
</g>
</svg>
