<?xml version="1.0" standalone="no"?>
<!DOCTYPE svg PUBLIC "-//W3C//DTD SVG 20010904//EN"
 "http://www.w3.org/TR/2001/REC-SVG-20010904/DTD/svg10.dtd">
<svg version="1.0" xmlns="http://www.w3.org/2000/svg"
 width="244.000000pt" height="305.000000pt" viewBox="0 0 244.000000 305.000000"
 preserveAspectRatio="xMidYMid meet">
<metadata>
Created by potrace 1.16, written by Peter Selinger 2001-2019
</metadata>
<g transform="translate(0.000000,305.000000) scale(0.100000,-0.100000)"
fill="#000000" stroke="none">
<path d="M1560 2895 c0 -11 -3 -31 -5 -45 -5 -22 -4 -22 4 -5 6 13 10 -150 10
-462 1 -266 -1 -483 -4 -483 -3 0 -23 12 -45 26 l-40 27 0 111 c0 158 17 389
40 541 10 72 21 150 24 175 5 42 5 43 -4 10 -36 -136 -64 -391 -76 -687 l-6
-171 23 -12 c13 -7 38 -26 55 -42 l31 -29 40 33 c22 18 48 38 57 43 15 9 16
31 6 260 -11 254 -34 457 -72 620 -20 88 -38 130 -38 90z"/>
<path d="M890 2888 c0 -7 -3 -24 -5 -38 -5 -22 -4 -22 4 -5 6 13 10 -150 10
-462 1 -266 -2 -483 -6 -483 -5 0 -19 9 -33 20 -14 11 -31 20 -38 20 -29 0 -5
473 37 739 12 74 20 136 17 138 -4 5 -41 -198 -56 -312 -8 -61 -27 -429 -30
-567 0 -9 9 -19 19 -23 11 -3 36 -19 56 -35 l38 -30 32 28 c17 15 40 32 49 37
16 9 18 28 17 173 -1 90 -6 220 -11 290 -13 182 -73 522 -91 522 -5 0 -9 -6
-9 -12z"/>
<path d="M1146 2715 c-5 -71 -9 -291 -10 -487 -1 -197 -2 -354 -3 -350 -2 4
-12 54 -23 111 -27 143 -32 146 -55 27 -22 -114 -21 -123 20 -147 34 -20 35
-23 35 -80 0 -65 -15 -83 -51 -61 -26 16 -29 15 -29 -11 0 -28 26 -67 46 -67
8 0 26 11 39 25 l25 24 0 -59 c0 -58 -1 -60 -27 -60 -14 0 -34 -7 -44 -16 -16
-14 -16 -18 -4 -31 16 -16 20 -43 6 -43 -5 0 -27 20 -50 45 -28 30 -43 57 -47
84 -4 23 -13 46 -20 52 -21 17 -17 47 11 75 21 21 34 25 73 23 44 -3 47 -1 44
21 -10 93 -131 104 -163 15 -16 -43 -23 -44 -39 -5 -17 42 -47 60 -96 60 -48
0 -74 -22 -77 -66 -2 -28 -1 -29 39 -26 35 3 47 -2 78 -28 38 -34 48 -73 21
-84 -18 -7 -20 -59 -3 -107 9 -29 56 -106 93 -155 7 -9 2 -21 -17 -41 -15 -15
-34 -41 -42 -57 -13 -26 -13 -33 0 -58 20 -39 72 -59 103 -39 11 7 11 17 1 61
-11 44 -10 54 2 67 13 13 19 13 52 -1 20 -8 36 -20 36 -27 0 -7 -3 -9 -7 -5
-4 4 -16 -21 -28 -56 -17 -53 -25 -65 -58 -82 -37 -20 -37 -20 -65 1 -15 11
-40 38 -55 59 -22 31 -26 45 -19 63 7 21 -6 114 -22 157 -3 8 -19 14 -40 14
-27 0 -40 -6 -52 -25 -27 -41 -11 -97 63 -220 53 -88 67 -120 71 -161 4 -49 1
-55 -98 -225 -143 -242 -170 -290 -170 -299 0 -4 -7 -13 -15 -20 -13 -11 -15
-10 -11 1 44 138 75 234 105 323 l36 109 45 17 c97 38 93 157 -9 278 -74 88
-89 161 -46 224 14 20 25 42 25 49 0 22 -35 38 -82 39 -37 0 -50 -5 -62 -22
-21 -30 -20 -55 5 -132 37 -111 10 -154 -151 -244 -19 -11 -80 -45 -135 -76
-55 -31 -104 -56 -108 -56 -9 0 40 49 180 177 l93 85 46 -7 45 -6 -7 98 c-3
54 -11 103 -16 108 -7 7 -9 -21 -5 -83 l5 -92 -34 6 c-31 6 -39 1 -96 -53 -35
-32 -105 -97 -157 -143 -139 -125 -154 -140 -149 -145 5 -6 -6 -9 271 81 192
63 207 69 207 91 0 36 25 38 88 7 93 -47 137 -138 72 -151 -17 -3 -35 -14 -40
-24 -6 -10 -33 -91 -61 -181 -28 -90 -66 -210 -84 -268 -32 -104 -35 -131 -11
-98 7 10 58 66 113 125 204 220 275 305 268 322 -4 9 -9 31 -12 48 l-6 33 89
0 c49 0 95 -4 103 -9 11 -7 11 -36 2 -172 -19 -277 -22 -348 -12 -309 5 19 7
49 4 65 -3 17 -1 25 4 19 4 -7 9 25 10 73 1 50 6 90 13 97 9 8 11 -2 6 -44 -4
-35 -3 -48 3 -35 8 19 9 19 14 -5 14 -61 39 -177 68 -323 18 -86 33 -156 35
-155 3 3 84 401 90 438 2 14 7 37 12 50 8 21 11 14 25 -50 9 -41 21 -93 27
-115 9 -39 9 -38 3 10 -3 28 -6 82 -5 120 0 52 -2 61 -7 35 -6 -34 -7 -33 -14
20 -4 30 -6 69 -6 85 2 30 2 30 9 -5 l7 -35 2 43 c1 29 -6 52 -20 71 -21 28
-25 103 -5 100 5 0 12 5 17 13 6 9 38 14 104 16 104 4 105 4 84 -56 -6 -18 -7
-37 -2 -46 11 -19 397 -446 400 -442 2 1 -6 29 -16 62 -11 32 -40 127 -66 209
-94 304 -94 304 -129 313 -89 23 6 162 120 174 25 3 29 -1 32 -24 3 -25 12
-30 180 -84 97 -31 207 -67 245 -80 37 -12 67 -22 67 -20 0 8 -52 58 -209 200
-165 149 -177 157 -207 151 l-33 -6 6 92 c5 69 3 90 -5 85 -7 -4 -12 -26 -12
-50 0 -24 -7 -65 -15 -92 -8 -27 -15 -56 -15 -64 0 -12 124 -96 228 -155 57
-32 172 -109 168 -112 -2 -3 -46 11 -98 30 -51 18 -135 49 -185 67 -51 19 -93
38 -93 43 0 4 5 17 11 29 9 17 6 24 -21 47 -43 36 -49 87 -21 179 11 39 21 80
21 91 0 51 -73 78 -135 49 -31 -14 -32 -29 0 -76 47 -69 33 -124 -60 -243 -42
-55 -55 -80 -69 -143 l-18 -77 32 -62 c19 -34 78 -142 132 -241 55 -98 97
-180 95 -182 -4 -4 -208 227 -269 303 -26 33 -28 40 -23 107 13 172 12 168 87
292 81 133 94 184 58 222 -21 22 -55 29 -75 14 -15 -10 -38 -136 -30 -161 8
-27 -16 -71 -60 -110 -42 -36 -53 -38 -100 -11 -19 11 -39 19 -43 19 -24 -4
-32 7 -42 57 -7 30 -9 58 -6 61 3 4 6 -3 6 -15 0 -15 5 -20 15 -16 11 5 12 11
5 25 -12 21 12 39 53 39 31 0 39 -25 25 -81 -13 -47 0 -63 42 -53 78 18 91 66
35 138 -19 26 -35 50 -35 56 0 5 13 25 30 43 65 74 100 198 65 227 -22 18 -18
44 12 74 26 27 43 33 98 38 26 3 30 7 27 28 -6 40 -37 65 -81 65 -44 0 -73
-21 -91 -66 -13 -30 -30 -39 -30 -15 0 21 -40 66 -67 77 -33 12 -90 -13 -103
-45 -16 -42 -5 -54 45 -48 37 4 47 1 69 -21 29 -29 33 -58 12 -76 -7 -6 -16
-26 -19 -45 -6 -38 -72 -136 -92 -136 -7 0 -15 6 -17 13 -7 18 2 37 18 37 8 0
14 4 14 10 0 14 -35 30 -64 30 -25 0 -26 2 -26 61 l0 62 21 -27 c11 -14 29
-26 39 -26 23 0 50 36 50 67 0 26 -3 27 -29 11 -36 -22 -51 -4 -51 61 0 56 1
60 33 79 33 19 34 21 30 73 -5 73 -22 157 -33 164 -9 6 -23 -53 -41 -168 -12
-76 -23 -106 -18 -47 2 19 -1 41 -5 49 -5 7 -12 200 -15 429 -4 230 -9 363
-11 297 -1 -66 -5 -154 -9 -195 -6 -73 -6 -74 -13 -30 -4 25 -16 72 -26 105
l-20 60 -10 -40 c-32 -119 -44 -176 -49 -230 -5 -56 -9 -74 -16 -64 -1 2 0
105 3 229 3 123 3 251 0 285 -5 53 -7 44 -14 -70z m74 -490 c-4 -165 -8 -280
-9 -255 -2 25 -7 59 -11 75 -9 31 -5 -124 6 -247 4 -46 2 -68 -5 -68 -6 0 -11
-16 -11 -35 0 -19 5 -35 10 -35 6 0 10 -9 10 -20 0 -18 -3 -19 -20 -10 -17 9
-20 21 -20 71 0 44 4 61 15 65 19 8 20 68 1 87 -26 25 -7 425 30 646 3 18 6
31 8 30 1 -2 -1 -139 -4 -304z m-287 -659 c16 -30 55 -80 88 -111 57 -55 70
-75 48 -75 -36 0 -121 85 -155 155 -44 91 -27 119 19 31z m647 39 c0 -71 -150
-249 -182 -217 -7 7 10 29 54 71 38 36 74 81 88 111 23 50 40 64 40 35z m-299
-48 c-8 -8 -11 -4 -11 14 0 33 14 47 18 19 2 -12 -1 -27 -7 -33z m-81 29 c0
-8 -4 -18 -10 -21 -5 -3 -10 3 -10 14 0 12 5 21 10 21 6 0 10 -6 10 -14z m37
-103 c-3 -10 -5 -2 -5 17 0 19 2 27 5 18 2 -10 2 -26 0 -35z m-88 0 c17 -67
17 -133 0 -133 -7 0 -9 11 -6 29 8 37 -2 71 -19 71 -9 0 -14 12 -14 35 0 48
26 47 39 -2z m208 2 c1 -23 -4 -35 -12 -35 -19 0 -28 -34 -20 -71 6 -24 4 -30
-6 -27 -16 5 -16 12 -5 88 11 79 41 111 43 45z m-240 -217 c-3 -7 -5 -2 -5 12
0 14 2 19 5 13 2 -7 2 -19 0 -25z m240 0 c-3 -7 -5 -2 -5 12 0 14 2 19 5 13 2
-7 2 -19 0 -25z m-287 -75 c-11 -17 -11 -17 -6 0 3 10 7 26 7 35 1 15 2 15 6
0 2 -10 -1 -25 -7 -35z m57 -5 c-3 -7 -5 -2 -5 12 0 14 2 19 5 13 2 -7 2 -19
0 -25z m63 2 c0 -12 -26 -30 -33 -23 -4 3 -7 14 -7 24 0 12 6 16 20 12 11 -3
20 -9 20 -13z m126 -16 c-5 -14 -9 -14 -22 -3 -14 12 -14 14 2 26 21 15 30 3
20 -23z m-212 -67 c4 -19 3 -26 -4 -22 -5 3 -10 18 -10 32 0 32 5 28 14 -10z
m263 -24 c-13 -13 -13 -10 -3 22 9 30 12 32 14 15 2 -13 -3 -29 -11 -37z
m-130 -165 c-3 -8 -6 -5 -6 6 -1 11 2 17 5 13 3 -3 4 -12 1 -19z m-87 -57 c0
-17 -6 -31 -16 -35 -12 -5 -15 -2 -10 10 3 8 6 24 6 35 0 10 5 19 10 19 6 0
10 -13 10 -29z m62 -34 c-6 -20 -6 -93 -1 -183 4 -82 8 -185 7 -229 l0 -80
-18 90 c-11 50 -29 134 -41 188 -20 86 -21 105 -11 154 8 37 21 67 39 85 31
33 39 25 25 -25z m-72 -49 c0 -18 -2 -20 -9 -8 -6 8 -7 18 -5 22 9 14 14 9 14
-14z"/>
<path d="M1323 2615 c0 -22 2 -30 4 -17 2 12 2 30 0 40 -3 9 -5 -1 -4 -23z"/>
<path d="M1334 2085 c0 -82 2 -115 3 -72 2 43 2 110 0 150 -1 40 -3 5 -3 -78z"/>
<path d="M1421 1234 c0 -11 3 -14 6 -6 3 7 2 16 -1 19 -3 4 -6 -2 -5 -13z"/>
<path d="M1362 880 c0 -14 2 -19 5 -12 2 6 2 18 0 25 -3 6 -5 1 -5 -13z"/>
<path d="M1101 584 c0 -11 3 -14 6 -6 3 7 2 16 -1 19 -3 4 -6 -2 -5 -13z"/>
</g>
</svg>
