<?xml version="1.0" standalone="no"?>
<!DOCTYPE svg PUBLIC "-//W3C//DTD SVG 20010904//EN"
 "http://www.w3.org/TR/2001/REC-SVG-20010904/DTD/svg10.dtd">
<svg version="1.0" xmlns="http://www.w3.org/2000/svg"
 width="244.000000pt" height="305.000000pt" viewBox="0 0 244.000000 305.000000"
 preserveAspectRatio="xMidYMid meet">
<metadata>
Created by potrace 1.16, written by Peter Selinger 2001-2019
</metadata>
<g transform="translate(0.000000,305.000000) scale(0.100000,-0.100000)"
fill="#000000" stroke="none">
<path d="M911 2874 c-43 -169 -68 -378 -82 -679 l-12 -259 28 -21 c16 -11 39
-31 52 -44 l23 -24 28 25 c15 14 37 31 50 37 20 11 22 18 22 104 0 128 -18
447 -30 537 -18 128 -43 270 -48 266 -2 -3 3 -51 12 -108 35 -235 62 -630 49
-725 -5 -36 -24 -56 -75 -81 -5 -2 -8 211 -8 473 0 310 3 474 10 470 6 -4 7 6
3 27 -8 45 -10 46 -22 2z"/>
<path d="M1081 2500 c-2 -431 -13 -590 -39 -545 -9 16 -11 17 -12 3 0 -25 42
-98 57 -98 15 0 18 -26 4 -35 -5 -3 -12 4 -16 15 -16 51 -104 31 -132 -31 -20
-45 -28 -49 -37 -14 -23 90 -166 85 -166 -7 0 -27 1 -28 40 -22 35 6 43 3 70
-24 31 -31 39 -69 19 -89 -18 -18 -4 -113 25 -168 23 -44 22 -171 -1 -184 -15
-8 -20 -3 -30 32 -7 23 -13 53 -13 67 0 32 -17 50 -45 50 -33 0 -58 -35 -57
-76 2 -49 9 -68 43 -122 41 -65 36 -86 -8 -37 -76 85 -92 166 -47 243 l27 45
-23 19 c-22 18 -85 24 -106 10 -32 -21 -35 -51 -14 -125 11 -40 20 -87 20
-104 0 -45 -19 -91 -41 -98 -21 -7 -24 -26 -9 -56 12 -22 28 -14 -183 -95 -81
-31 -150 -54 -152 -52 -4 4 142 102 296 200 31 20 59 40 62 45 3 5 -1 36 -8
69 -8 32 -19 84 -24 114 -9 51 -10 47 -7 -43 l2 -97 -32 6 c-31 6 -40 -2 -199
-157 -91 -90 -172 -167 -178 -171 -6 -4 -9 -10 -5 -13 3 -4 57 12 120 33 62
22 163 58 223 79 101 35 110 40 113 66 2 19 9 27 22 27 10 0 21 -4 24 -9 3 -5
18 -12 33 -16 23 -5 73 -47 73 -61 0 -2 -13 -31 -30 -64 -16 -33 -30 -66 -30
-74 0 -14 -53 -204 -119 -425 -17 -57 -30 -106 -28 -108 2 -2 49 49 103 114
54 64 139 163 188 221 l89 104 -12 38 c-16 54 -14 60 19 60 28 0 30 -3 31 -37
l2 -38 6 35 c5 29 11 36 35 38 24 3 28 0 24 -15 -3 -10 -27 -105 -54 -212 -39
-154 -50 -187 -54 -160 -4 26 -8 11 -17 -60 -7 -52 -11 -96 -10 -97 1 -1 42
97 91 219 80 201 88 225 83 269 -4 34 -3 48 6 48 18 0 55 -28 68 -52 9 -17 6
-25 -21 -53 l-31 -32 11 -64 c12 -68 109 -568 113 -582 2 -8 95 452 117 582
11 64 11 64 -19 95 -17 18 -31 37 -31 43 0 13 57 63 71 63 5 0 9 -21 8 -47 -1
-36 10 -76 45 -163 26 -63 63 -157 83 -208 20 -51 38 -91 40 -89 3 4 -37 314
-57 442 -5 33 -10 63 -10 68 0 4 16 7 35 7 38 0 41 -6 25 -58 -11 -41 -9 -44
172 -257 218 -258 214 -254 183 -157 -8 26 -43 146 -79 268 -40 137 -74 235
-90 258 -33 49 -33 72 1 104 33 30 109 66 123 57 6 -3 10 -17 10 -29 0 -21 20
-30 223 -101 122 -43 229 -80 237 -82 8 -3 -68 77 -170 176 -175 172 -187 181
-217 176 l-31 -6 4 98 c7 129 -11 103 -21 -30 l-7 -99 44 7 43 6 140 -135 c77
-74 135 -135 129 -135 -6 -1 -61 31 -123 69 -62 39 -115 70 -118 70 -12 0
-124 83 -137 102 -20 28 -20 109 -1 163 31 85 10 135 -56 135 -47 0 -79 -14
-79 -36 0 -8 11 -32 25 -52 32 -47 32 -94 0 -158 -23 -46 -105 -148 -105 -131
0 4 20 46 45 93 26 50 45 98 45 117 0 60 -48 99 -88 71 -20 -13 -34 -81 -33
-151 1 -18 -4 -33 -9 -33 -6 0 -10 6 -10 13 0 6 -9 23 -20 37 -31 40 -27 118
9 183 37 65 52 154 27 163 -23 9 -20 49 8 80 17 21 35 29 72 33 45 6 49 8 46
31 -1 14 -14 36 -29 48 -44 39 -106 16 -133 -49 -16 -38 -23 -37 -38 5 -16 43
-28 52 -74 61 -31 6 -40 3 -59 -19 -17 -19 -25 -23 -31 -14 -12 20 -9 31 6 25
10 -4 23 6 35 27 19 30 21 50 21 177 0 292 -40 930 -50 794 -2 -22 -2 -47 -1
-55 1 -8 2 -163 1 -345 0 -311 -5 -386 -31 -453 -5 -13 -9 -44 -9 -70 0 -26
-4 -53 -9 -60 -4 -7 -11 55 -15 145 -10 236 -37 445 -73 568 -6 19 -6 19 -13
-1 -34 -91 -80 -462 -80 -654 0 -46 -4 -69 -9 -60 -5 8 -11 159 -14 335 -6
307 -19 554 -36 660 -5 30 -9 -117 -10 -365z m205 -370 c3 -117 2 -211 -4
-235 -8 -31 -10 5 -11 155 -1 107 -3 233 -6 280 -3 71 -3 78 5 40 6 -25 13
-133 16 -240z m11 -372 c-2 -18 -4 -4 -4 32 0 36 2 50 4 33 2 -18 2 -48 0 -65z
m-251 -70 c2 -35 6 -90 10 -122 5 -55 4 -58 -11 -46 -23 19 -55 85 -55 113 0
14 -7 30 -15 37 -20 17 -19 42 3 67 21 24 44 33 56 23 4 -5 10 -37 12 -72z
m446 55 c26 -31 29 -52 8 -70 -11 -10 -20 -29 -20 -44 0 -15 -6 -37 -12 -51
-16 -30 -57 -82 -61 -77 -2 2 1 47 5 99 5 52 10 110 10 128 1 28 5 32 28 32
15 0 34 -8 42 -17z m-144 -123 c-3 -32 -6 -35 -38 -38 -40 -4 -46 -11 -62 -72
l-12 -45 -16 55 c-15 53 -17 55 -55 60 -35 4 -40 9 -43 34 -5 38 6 78 18 71 6
-3 10 -20 10 -36 0 -22 6 -32 25 -39 16 -6 32 -25 42 -47 l15 -38 20 38 c10
21 30 42 43 47 17 7 25 17 25 34 0 13 3 32 7 42 5 15 8 14 15 -7 5 -13 8 -39
6 -59z m-48 22 c0 -26 -25 -5 -28 24 -2 28 -2 28 13 10 8 -11 15 -26 15 -34z
m-355 -58 c18 -44 18 -44 1 -44 -18 0 -22 6 -31 48 -9 44 11 42 30 -4z m142 4
c-3 -7 -5 -2 -5 12 0 14 2 19 5 13 2 -7 2 -19 0 -25z m303 12 c0 -11 -4 -20
-9 -20 -5 0 -7 9 -4 20 3 11 7 20 9 20 2 0 4 -9 4 -20z m160 -34 c-11 -34 -20
-43 -32 -30 -3 3 1 23 10 45 20 50 40 37 22 -15z m-427 -78 c9 -23 15 -43 13
-46 -6 -5 -32 38 -41 66 -11 39 11 23 28 -20z m247 18 c0 -14 -11 -38 -25 -53
l-26 -28 17 40 c8 22 18 46 21 53 8 19 13 14 13 -12z m-347 -32 c8 -8 -3 -34
-14 -34 -5 0 -9 9 -9 20 0 19 11 26 23 14z m447 -25 c0 -18 -2 -19 -15 -9 -15
12 -12 30 6 30 5 0 9 -10 9 -21z m-530 -71 c0 -21 -4 -38 -10 -38 -5 0 -10 24
-10 53 0 37 3 48 10 37 5 -8 10 -32 10 -52z m160 5 c0 -7 -4 -13 -9 -13 -17 0
-41 31 -41 52 0 21 0 21 25 -2 14 -13 25 -29 25 -37z m320 35 c0 -14 -30 -48
-42 -48 -14 0 -9 28 8 44 18 19 34 21 34 4z m116 -56 c-13 -12 -17 8 -10 40
l9 33 3 -33 c2 -19 1 -36 -2 -40z m-356 16 c0 -5 -4 -8 -10 -8 -5 0 -10 10
-10 23 0 18 2 19 10 7 5 -8 10 -18 10 -22z m121 -11 c-8 -8 -11 -5 -11 9 0 27
14 41 18 19 2 -9 -1 -22 -7 -28z m154 -134 c-25 -78 -31 -57 -9 29 13 48 20
65 22 49 2 -13 -4 -48 -13 -78z m-435 16 c12 -39 19 -73 17 -76 -5 -5 -47 114
-47 134 0 28 9 10 30 -58z m70 -44 c13 -16 15 -16 30 2 22 27 65 16 65 -17 0
-21 -4 -25 -28 -22 -17 2 -29 -2 -33 -11 -4 -12 -9 -11 -28 7 -31 29 -48 82
-39 125 l7 36 6 -51 c3 -28 12 -59 20 -69z m320 65 c0 -42 -11 -74 -34 -104
-12 -15 -18 -17 -30 -7 -8 7 -25 11 -38 9 -19 -2 -23 2 -23 21 0 33 50 50 58
19 5 -16 9 -18 25 -9 24 13 36 57 26 96 -5 20 -4 26 5 21 6 -4 11 -25 11 -46z
m-256 32 c2 -4 -4 -13 -15 -20 -15 -10 -19 -10 -19 1 0 24 23 36 34 19z m180
2 c9 -3 16 -16 16 -28 -1 -19 -2 -19 -11 -3 -5 9 -17 17 -24 17 -8 0 -15 5
-15 10 0 11 11 13 34 4z m-420 -106 c-15 -24 -51 21 -39 50 5 13 9 11 25 -13
10 -16 17 -32 14 -37z m651 -28 c-3 -6 -10 -10 -16 -10 -10 0 -12 33 -2 44 9
9 26 -22 18 -34z m-717 -41 c-3 -8 -7 -3 -11 10 -4 17 -3 21 5 13 5 -5 8 -16
6 -23z m782 -45 c0 -26 -17 -33 -26 -9 -8 20 3 48 16 40 5 -3 10 -17 10 -31z
m-740 -61 c0 -21 2 -70 4 -109 3 -55 0 -77 -12 -96 -35 -53 -246 -308 -255
-308 -5 0 16 46 46 103 155 291 187 358 187 395 0 21 3 42 7 45 15 16 23 5 23
-30z m746 -26 c8 -24 21 -36 52 -47 22 -9 43 -18 46 -21 6 -6 136 -432 136
-446 0 -10 -79 129 -188 332 -71 132 -92 180 -92 210 0 37 1 38 18 22 9 -10
22 -32 28 -50z m-846 44 c0 -5 -7 -14 -15 -21 -16 -14 -18 -10 -9 14 6 17 24
22 24 7z m458 -106 c-11 -25 -13 -25 -25 -9 -18 24 -16 39 2 24 12 -10 16 -9
21 4 4 9 8 15 11 13 2 -3 -2 -17 -9 -32z m182 -32 c28 -104 90 -366 87 -369
-2 -2 -16 26 -30 63 -14 38 -42 110 -62 162 -30 78 -36 103 -30 138 8 53 21
55 35 6z m-96 -141 c-19 -107 -65 -336 -69 -340 -4 -5 -1 36 16 188 12 111 12
207 -1 215 -5 3 -10 14 -10 23 1 12 11 6 35 -21 25 -29 32 -45 29 -65z"/>
<path d="M1547 2903 c-9 -17 -38 -165 -56 -298 -19 -129 -41 -463 -41 -609 0
-61 0 -61 49 -103 l49 -42 32 29 c18 16 42 32 52 36 16 5 18 17 16 137 l-2
132 -3 -111 -4 -111 -39 -32 c-21 -17 -41 -31 -44 -31 -3 0 -6 216 -6 481 0
264 4 478 8 475 5 -3 6 8 4 25 -4 30 -8 35 -15 22z"/>
<path d="M1570 2814 c0 -5 9 -69 20 -141 11 -73 25 -197 31 -275 6 -79 13
-145 15 -147 16 -17 -11 299 -41 469 -14 83 -25 123 -25 94z"/>
<path d="M1062 2705 c0 -16 2 -22 5 -12 2 9 2 23 0 30 -3 6 -5 -1 -5 -18z"/>
<path d="M1362 2690 c0 -19 2 -27 5 -17 2 9 2 25 0 35 -3 9 -5 1 -5 -18z"/>
<path d="M1053 2565 c0 -38 2 -53 4 -32 2 20 2 52 0 70 -2 17 -4 1 -4 -38z"/>
<path d="M1353 2550 c0 -25 2 -35 4 -22 2 12 2 32 0 45 -2 12 -4 2 -4 -23z"/>
<path d="M1044 2305 c0 -88 2 -123 3 -77 2 46 2 118 0 160 -1 42 -3 5 -3 -83z"/>
<path d="M1344 2265 c0 -71 1 -99 3 -62 2 37 2 96 0 130 -2 34 -3 4 -3 -68z"/>
<path d="M955 730 c-10 -72 -16 -133 -13 -135 3 -3 8 18 12 47 3 29 12 90 20
136 7 45 10 82 6 82 -4 0 -15 -59 -25 -130z"/>
</g>
</svg>
