<?xml version="1.0" standalone="no"?>
<!DOCTYPE svg PUBLIC "-//W3C//DTD SVG 20010904//EN"
 "http://www.w3.org/TR/2001/REC-SVG-20010904/DTD/svg10.dtd">
<svg version="1.0" xmlns="http://www.w3.org/2000/svg"
 width="244.000000pt" height="305.000000pt" viewBox="0 0 244.000000 305.000000"
 preserveAspectRatio="xMidYMid meet">
<metadata>
Created by potrace 1.16, written by Peter Selinger 2001-2019
</metadata>
<g transform="translate(0.000000,305.000000) scale(0.100000,-0.100000)"
fill="#000000" stroke="none">
<path d="M918 2900 c-3 -8 -3 -26 -1 -40 6 -37 13 -933 8 -948 -4 -10 -16 -6
-45 15 l-40 28 0 164 c0 90 -2 162 -4 160 -2 -2 -6 -84 -8 -182 l-5 -178 31
-13 c17 -7 37 -20 45 -29 19 -23 28 -21 66 12 18 16 39 31 45 33 23 7 -4 561
-35 743 -30 176 -49 255 -57 235z"/>
<path d="M1111 2855 c-1 -27 -1 -211 -1 -408 0 -346 0 -358 -18 -348 -13 7
-19 6 -19 -2 0 -7 -4 -58 -8 -114 -5 -64 -4 -103 2 -103 23 0 53 -42 52 -73
l-1 -32 -14 41 c-13 36 -20 42 -50 47 -55 9 -93 -10 -113 -56 l-17 -41 -20 40
c-10 21 -32 45 -47 52 -50 24 -104 -3 -109 -53 -3 -29 -1 -30 43 -35 71 -8
123 -77 84 -110 -33 -27 -11 -122 49 -212 20 -29 36 -56 36 -61 0 -4 -16 -30
-35 -58 -19 -28 -35 -56 -35 -61 0 -23 35 -67 58 -73 23 -6 24 -7 7 -25 -23
-25 -35 -25 -35 0 0 11 -6 20 -13 20 -25 0 -39 44 -43 132 -4 105 -14 128 -54
128 -36 0 -60 -32 -60 -80 0 -36 4 -45 79 -183 35 -63 42 -84 37 -110 -6 -29
-5 -30 8 -12 12 15 15 16 15 5 0 -8 -6 -23 -14 -33 -12 -17 -15 -13 -26 42 -9
46 -24 80 -61 132 -86 122 -96 171 -52 246 25 43 25 45 8 64 -12 13 -30 19
-59 19 -72 0 -92 -48 -60 -140 8 -23 15 -60 15 -82 0 -79 -18 -95 -280 -256
-58 -35 -109 -67 -115 -69 -5 -3 53 58 130 136 l140 141 43 -6 43 -6 -7 98
c-9 129 -26 151 -22 27 l3 -92 -31 2 c-28 2 -50 -16 -208 -172 -97 -95 -175
-175 -173 -178 3 -2 22 3 43 11 22 8 118 43 214 77 96 34 181 66 188 71 6 6
12 19 12 29 0 31 19 32 76 4 40 -20 61 -38 80 -70 32 -55 28 -77 -13 -88 -38
-11 -31 6 -128 -332 -36 -126 -68 -236 -71 -243 -10 -31 21 0 121 123 59 72
133 161 164 199 101 123 95 113 82 157 -7 22 -9 44 -6 49 3 6 29 10 56 10 l50
0 -5 -77 -5 -78 9 64 c11 81 15 91 36 91 20 0 19 -7 -26 -230 -26 -125 -36
-159 -42 -140 -5 17 -6 10 -3 -18 3 -26 2 -41 -4 -38 -7 5 -22 -92 -15 -102 1
-1 27 77 59 175 31 98 61 182 65 186 10 11 35 -109 126 -598 6 -37 9 -32 31
80 55 282 73 375 84 457 l13 88 -27 28 c-33 34 -33 43 -4 70 33 31 38 28 31
-17 -5 -31 7 -79 66 -257 39 -121 74 -223 76 -229 6 -15 -3 74 -31 318 -14
120 -24 221 -21 225 3 5 26 5 53 2 35 -4 47 -9 45 -20 -19 -82 -19 -82 108
-230 31 -36 96 -114 144 -173 49 -59 90 -106 93 -103 3 2 -23 100 -56 218 -99
344 -94 331 -129 347 -41 19 -44 31 -20 81 23 46 81 90 123 93 23 2 30 -3 35
-23 6 -27 0 -24 288 -126 83 -29 152 -50 152 -46 0 4 -76 83 -169 176 -160
159 -171 168 -200 161 l-30 -6 6 90 c4 65 3 91 -6 91 -6 0 -11 -18 -11 -46 0
-25 -7 -73 -15 -105 -9 -33 -13 -63 -11 -68 3 -4 84 -61 180 -126 97 -65 174
-121 171 -123 -5 -5 -299 106 -320 122 -13 9 -14 17 -6 37 8 22 5 30 -20 52
-26 23 -29 31 -29 89 1 34 7 81 15 103 37 103 -8 160 -99 125 -31 -11 -33 -34
-6 -78 39 -64 19 -154 -53 -240 -20 -23 -42 -58 -48 -77 -7 -19 -17 -35 -21
-35 -15 0 -8 31 16 73 13 23 36 64 51 90 54 96 51 170 -8 183 -36 8 -57 -13
-57 -57 0 -16 -5 -38 -11 -51 -6 -15 -7 -32 -1 -48 7 -18 5 -34 -6 -57 -22
-46 -34 -41 -27 10 6 42 1 54 -49 122 -14 18 -12 24 19 70 38 56 75 143 75
179 0 13 -7 29 -15 36 -24 20 -17 54 19 89 27 26 40 32 67 29 39 -4 50 18 28
59 -31 57 -114 45 -146 -21 -9 -20 -19 -36 -23 -36 -3 0 -12 16 -19 35 -12 35
-62 72 -81 60 -22 -13 -35 12 -35 65 -2 253 -31 918 -41 929 -2 2 -4 -180 -5
-405 0 -420 -2 -454 -18 -495 -7 -17 -11 41 -13 191 l-2 215 -6 -205 c-4 -142
-6 -171 -8 -95 -1 61 -8 162 -16 225 -14 110 -51 298 -60 308 -3 2 -8 -9 -12
-24 -3 -16 -10 -45 -14 -64 -25 -102 -43 -243 -49 -395 l-8 -170 -2 175 c-2
282 -35 882 -40 735z m118 -833 c1 -266 -2 -401 -9 -397 -6 4 -11 88 -12 213
-1 137 -4 180 -7 127 -6 -76 -7 -72 -14 75 -6 120 -5 182 7 275 9 66 16 127
17 135 0 10 3 8 9 -5 5 -11 9 -201 9 -423z m101 -128 c0 -14 -4 -23 -10 -19
-5 3 -10 15 -10 26 0 10 5 19 10 19 6 0 10 -12 10 -26z m-183 -16 c-3 -7 -5
-2 -5 12 0 14 2 19 5 13 2 -7 2 -19 0 -25z m43 -90 c0 -31 -3 -59 -8 -62 -4
-2 -8 29 -8 69 0 41 4 69 8 62 4 -7 8 -38 8 -69z m184 45 c-11 -46 -23 -62
-24 -31 0 32 9 58 21 58 5 0 6 -12 3 -27z m-292 -87 c14 -20 8 -27 -12 -16
-16 8 -22 8 -26 -3 -7 -19 13 -66 31 -73 20 -8 20 -63 -1 -92 -14 -20 -14 -22
0 -22 16 0 31 -39 24 -61 -7 -22 -96 99 -103 141 -4 21 -13 44 -21 51 -21 18
-17 43 13 73 22 22 32 26 57 20 17 -4 34 -12 38 -18z m402 -7 c29 -34 33 -57
12 -65 -8 -3 -17 -25 -21 -49 -8 -56 -98 -174 -103 -136 -2 13 4 32 14 42 15
17 16 24 6 39 -17 28 -15 57 8 88 11 15 21 38 22 52 3 21 -1 24 -19 22 -13 -2
-23 2 -23 8 0 12 35 28 62 29 9 1 28 -13 42 -30z m-308 -127 c32 -15 31 -34
-3 -30 -25 3 -29 8 -35 52 -4 28 -4 55 0 60 4 6 8 -8 10 -30 2 -32 8 -44 28
-52z m157 31 c-6 -54 -22 -77 -46 -67 -24 9 -21 23 8 34 21 8 25 16 25 50 0
23 4 39 9 36 5 -3 6 -27 4 -53z m-133 17 c0 -21 -5 -30 -16 -30 -9 0 -13 5
-10 13 3 6 9 20 12 30 9 25 14 21 14 -13z m-241 -104 c41 -80 39 -119 -3 -56
-24 37 -48 120 -34 120 3 0 20 -29 37 -64z m158 32 c-3 -7 -5 -2 -5 12 0 14 2
19 5 13 2 -7 2 -19 0 -25z m240 10 c-3 -8 -6 -5 -6 6 -1 11 2 17 5 13 3 -3 4
-12 1 -19z m188 -15 c-8 -44 -34 -94 -53 -101 -18 -6 -15 14 16 79 31 67 47
77 37 22z m-304 -84 c-6 -30 -9 -35 -10 -17 -1 14 -4 35 -7 45 -5 15 -4 15 5
3 9 -13 11 -12 11 4 0 11 2 17 5 15 2 -3 1 -25 -4 -50z m-85 -39 c15 -39 25
-73 21 -76 -6 -7 -46 79 -54 119 -10 48 4 29 33 -43z m176 -3 c-11 -23 -22
-51 -26 -61 -4 -10 -9 -16 -12 -13 -5 5 28 106 43 131 17 27 13 -19 -5 -57z
m108 -28 c0 -11 -4 -17 -10 -14 -5 3 -10 13 -10 21 0 8 5 14 10 14 6 0 10 -9
10 -21z m-390 -4 c0 -8 -4 -15 -10 -15 -5 0 -10 7 -10 15 0 8 5 15 10 15 6 0
10 -7 10 -15z m64 -31 c9 -8 14 -20 11 -24 -9 -15 -35 1 -35 21 0 23 4 24 24
3z m276 2 c0 -19 -27 -39 -40 -31 -8 5 -6 13 6 26 20 22 34 25 34 5z m-327
-146 c9 -35 14 -66 12 -68 -3 -4 -30 76 -40 123 -13 59 12 10 28 -55z m357
-10 c-16 -51 -19 -56 -15 -25 7 54 28 124 32 105 2 -8 -6 -44 -17 -80z m-247
65 c0 -6 -7 -11 -16 -13 -12 -3 -15 1 -11 13 7 17 25 17 27 0z m144 -11 c-9
-9 -28 6 -21 18 4 6 10 6 17 -1 6 -6 8 -13 4 -17z m-320 -16 c-3 -8 -6 -5 -6
6 -1 11 2 17 5 13 3 -3 4 -12 1 -19z m124 -74 c10 -12 13 -12 24 3 16 21 45
10 45 -17 0 -13 -7 -20 -18 -20 -10 0 -23 -5 -29 -11 -6 -6 -16 -8 -22 -5 -14
9 -31 74 -30 116 1 34 1 34 10 -9 4 -24 14 -49 20 -57z m249 -1 c-11 -50 -30
-68 -45 -43 -3 6 -15 10 -26 10 -12 0 -19 7 -19 20 0 29 30 38 46 15 14 -18
14 -18 29 1 8 10 15 37 16 59 1 28 3 33 6 15 3 -14 0 -49 -7 -77z m154 -30 c4
-9 1 -20 -6 -25 -20 -12 -28 -10 -28 10 0 33 23 43 34 15z m74 -131 c5 -31
-15 -27 -21 3 -3 16 0 24 7 22 6 -2 12 -13 14 -25z m7 -74 c10 -24 50 -104 89
-178 98 -188 150 -298 133 -280 -9 8 -72 87 -142 175 -119 150 -126 162 -121
195 3 19 6 56 6 83 0 26 4 47 8 47 5 0 17 -19 27 -42z m-743 -31 c-11 -17 -68
-122 -127 -232 -97 -183 -140 -254 -121 -200 4 11 28 90 52 175 71 243 74 251
118 267 21 7 50 21 64 32 35 26 42 5 14 -42z m378 -13 c0 -8 -4 -12 -10 -9 -5
3 -10 13 -10 21 0 8 5 12 10 9 6 -3 10 -13 10 -21z m150 12 c0 -2 18 -92 40
-201 22 -109 39 -202 38 -207 -3 -9 -95 282 -99 312 -4 40 2 100 11 100 6 0
10 -2 10 -4z m-241 -42 c22 -28 18 -45 -16 -76 -17 -16 -18 -14 -18 43 0 32 3
59 7 59 4 0 16 -12 27 -26z m74 -515 c-5 -5 -7 24 -7 64 2 68 1 69 -5 17 -6
-54 -7 -51 -39 115 -18 94 -35 179 -38 190 -7 27 65 113 77 93 7 -10 9 -8 11
7 2 11 4 -92 5 -229 2 -137 0 -253 -4 -257z"/>
<path d="M1213 2300 c0 -47 2 -66 4 -42 2 23 2 61 0 85 -2 23 -4 4 -4 -43z"/>
<path d="M1196 825 c-3 -9 -6 -22 -5 -28 0 -7 5 -1 10 12 5 13 8 26 5 28 -2 2
-6 -3 -10 -12z"/>
<path d="M1193 720 c0 -30 2 -43 4 -27 2 15 2 39 0 55 -2 15 -4 2 -4 -28z"/>
<path d="M1203 580 c0 -30 2 -43 4 -27 2 15 2 39 0 55 -2 15 -4 2 -4 -28z"/>
<path d="M1536 2892 c-4 -7 -3 -27 3 -45 11 -32 8 -934 -3 -944 -2 -3 -21 7
-40 22 l-36 27 0 112 c0 156 17 413 35 531 18 123 18 165 -1 70 -24 -120 -44
-381 -44 -565 l0 -177 46 -33 c38 -27 50 -31 63 -21 9 6 31 21 50 33 l34 22
-6 200 c-8 243 -21 392 -48 551 -28 171 -43 232 -53 217z"/>
<path d="M901 2814 c0 -11 3 -14 6 -6 3 7 2 16 -1 19 -3 4 -6 -2 -5 -13z"/>
<path d="M892 2765 c0 -16 2 -22 5 -12 2 9 2 23 0 30 -3 6 -5 -1 -5 -18z"/>
<path d="M1512 2765 c0 -16 2 -22 5 -12 2 9 2 23 0 30 -3 6 -5 -1 -5 -18z"/>
<path d="M1342 2720 c0 -14 2 -19 5 -12 2 6 2 18 0 25 -3 6 -5 1 -5 -13z"/>
<path d="M866 2623 c-21 -133 -34 -323 -24 -329 5 -3 8 19 8 48 0 29 7 107 15
173 9 66 19 141 22 168 3 26 3 47 1 47 -3 0 -13 -48 -22 -107z"/>
<path d="M1093 2660 c0 -25 2 -35 4 -22 2 12 2 32 0 45 -2 12 -4 2 -4 -23z"/>
<path d="M1333 2580 c0 -25 2 -35 4 -22 2 12 2 32 0 45 -2 12 -4 2 -4 -23z"/>
<path d="M1083 2455 c0 -44 2 -61 4 -37 2 23 2 59 0 80 -2 20 -4 1 -4 -43z"/>
<path d="M1013 745 c0 -22 2 -30 4 -17 2 12 2 30 0 40 -3 9 -5 -1 -4 -23z"/>
<path d="M1003 660 c0 -25 2 -35 4 -22 2 12 2 32 0 45 -2 12 -4 2 -4 -23z"/>
</g>
</svg>
