<?xml version="1.0" standalone="no"?>
<!DOCTYPE svg PUBLIC "-//W3C//DTD SVG 20010904//EN"
 "http://www.w3.org/TR/2001/REC-SVG-20010904/DTD/svg10.dtd">
<svg version="1.0" xmlns="http://www.w3.org/2000/svg"
 width="244.000000pt" height="305.000000pt" viewBox="0 0 244.000000 305.000000"
 preserveAspectRatio="xMidYMid meet">
<metadata>
Created by potrace 1.16, written by Peter Selinger 2001-2019
</metadata>
<g transform="translate(0.000000,305.000000) scale(0.100000,-0.100000)"
fill="#000000" stroke="none">
<path d="M1102 2885 c0 -16 2 -22 5 -12 2 9 2 23 0 30 -3 6 -5 -1 -5 -18z"/>
<path d="M1535 2897 c-4 -9 -4 -28 -1 -42 7 -28 9 -946 2 -953 -3 -2 -21 9
-41 25 l-37 28 5 245 c4 135 10 268 16 295 16 85 33 226 28 231 -7 7 -37 -199
-47 -326 -5 -63 -11 -197 -14 -297 l-4 -181 28 -12 c16 -7 36 -20 46 -31 21
-23 25 -24 50 -1 10 9 31 25 47 35 26 17 27 20 27 105 0 161 -20 456 -41 602
-26 183 -53 302 -64 277z"/>
<path d="M920 2888 c0 -7 -3 -24 -5 -38 -5 -22 -4 -22 4 -5 6 13 10 -150 10
-463 1 -266 -2 -482 -6 -480 -5 2 -23 12 -42 23 l-33 20 6 240 c5 211 20 380
52 585 4 25 4 43 1 40 -22 -21 -63 -411 -73 -692 -7 -188 -6 -198 12 -204 10
-4 34 -21 52 -38 29 -27 35 -29 45 -16 7 9 28 28 47 42 l35 27 -7 238 c-7 284
-25 446 -74 691 -7 33 -24 54 -24 30z"/>
<path d="M1361 2870 c-1 -3 -3 -203 -4 -445 -3 -421 -8 -504 -29 -473 -5 8 -7
-6 -4 -37 4 -34 3 -42 -3 -25 -4 14 -11 108 -15 209 -6 173 -28 339 -59 456
l-13 50 -17 -70 c-38 -163 -54 -306 -59 -533 -1 -68 -6 -126 -11 -129 -6 -4
-7 16 -3 48 7 59 -11 715 -23 844 -5 53 -8 -47 -9 -293 -2 -273 -5 -371 -13
-370 -19 5 -40 -91 -36 -164 l3 -68 -36 -6 c-57 -9 -60 -12 -82 -60 l-20 -47
-17 39 c-20 44 -37 61 -66 65 -39 6 -72 -10 -85 -41 -18 -44 -8 -60 34 -53 31
5 40 1 66 -27 33 -36 38 -65 14 -91 -23 -26 -3 -107 47 -191 45 -73 45 -90 3
-135 -20 -21 -24 -36 -22 -67 2 -24 8 -41 15 -41 19 0 36 -22 30 -39 -8 -21
-26 -20 -34 2 -4 9 -15 29 -26 44 -13 18 -18 37 -15 58 4 29 -2 84 -17 146 -7
32 -45 38 -72 12 -40 -37 -32 -95 28 -205 50 -93 65 -156 18 -75 -13 23 -42
66 -63 96 -53 76 -60 136 -21 202 l27 46 -20 21 c-14 14 -33 20 -58 19 -70 -3
-89 -46 -59 -132 18 -52 19 -126 2 -160 -14 -27 -82 -76 -227 -163 -52 -31
-100 -61 -107 -67 -7 -5 -18 -10 -25 -10 -7 0 49 61 124 135 129 126 139 134
163 125 42 -16 45 -13 45 49 0 79 -11 151 -22 151 -7 0 -7 -34 -3 -91 l7 -91
-29 6 c-26 6 -41 -6 -202 -164 -96 -93 -172 -172 -170 -175 3 -2 88 25 190 61
101 37 199 71 217 77 26 8 32 16 32 39 0 16 5 28 13 28 23 -1 94 -38 117 -61
50 -53 56 -119 11 -119 -10 0 -23 -6 -29 -12 -10 -12 -141 -462 -157 -538 -9
-42 -18 -51 127 125 229 277 238 290 232 305 -3 8 -8 30 -11 47 -5 27 -2 33
13 34 11 0 30 2 42 3 13 2 26 -3 29 -10 2 -7 -3 -63 -11 -125 -9 -62 -15 -127
-15 -144 1 -16 10 33 20 110 22 164 22 165 50 165 17 0 20 -4 16 -21 -3 -12
-25 -109 -49 -216 -28 -126 -45 -187 -49 -172 -3 15 -8 -4 -12 -50 -4 -41 -6
-75 -4 -77 1 -2 21 52 44 119 23 67 56 163 73 212 18 51 31 107 30 130 -3 69
-2 70 21 49 41 -37 43 -52 11 -89 l-30 -33 19 -104 c10 -56 37 -204 61 -328
l43 -225 16 85 c9 47 28 150 44 230 66 346 65 337 30 378 -14 17 -25 34 -25
39 0 10 42 53 53 53 3 0 6 -21 5 -48 0 -26 10 -74 21 -107 12 -33 43 -122 69
-198 26 -77 48 -132 50 -124 2 9 -8 112 -22 230 -35 287 -36 267 20 267 l47 0
-6 -33 c-3 -17 -8 -39 -11 -48 -5 -10 27 -57 95 -140 174 -213 272 -329 275
-326 5 5 -136 493 -157 549 -6 15 -23 31 -40 37 -24 8 -29 16 -29 42 0 40 66
108 122 125 41 13 54 8 52 -22 -1 -22 1 -23 216 -99 52 -19 126 -46 164 -60
38 -14 71 -24 72 -22 2 2 -75 82 -172 178 -160 159 -178 174 -207 172 l-33 -2
3 92 c2 62 0 86 -6 72 -5 -11 -10 -36 -10 -55 -1 -19 -8 -60 -16 -90 -11 -43
-12 -57 -2 -67 12 -12 61 -45 260 -180 53 -37 95 -68 93 -70 -5 -5 -316 116
-332 129 -9 7 -9 16 0 40 8 23 8 32 0 35 -41 14 -49 31 -48 105 0 42 7 93 17
121 22 61 21 69 -3 95 -26 27 -88 30 -119 5 l-21 -18 25 -48 c43 -84 33 -138
-47 -245 -22 -29 -44 -67 -50 -83 -7 -21 -14 -27 -21 -20 -7 7 8 42 46 111 47
84 57 109 57 149 0 34 -5 53 -18 64 -19 18 -49 22 -68 9 -12 -8 -26 -94 -25
-152 1 -40 -17 -90 -31 -90 -6 0 -7 16 -3 39 7 41 -9 85 -39 110 -24 20 -20
46 14 92 33 46 70 137 70 173 0 13 -9 33 -20 46 -16 18 -17 26 -8 44 24 48 50
66 95 66 39 0 43 2 43 25 0 32 -41 75 -72 75 -33 0 -65 -25 -87 -68 l-19 -36
-18 39 c-36 76 -121 85 -152 17 -16 -37 -16 -37 -20 -10 -2 20 5 35 27 55 l30
28 -9 317 c-5 175 -12 355 -15 400 -10 130 -22 263 -24 258z m-131 -843 c0
-270 -3 -406 -10 -402 -6 4 -11 112 -12 283 -2 244 -3 258 -8 117 l-5 -160 -8
155 c-7 121 -5 184 7 288 9 74 16 139 16 145 0 7 5 5 10 -3 6 -9 10 -177 10
-423z m-116 -182 c2 -7 1 -26 -3 -42 l-7 -28 -7 30 c-3 17 -9 38 -12 48 -5 13
-3 16 8 11 9 -3 18 -12 21 -19z m76 -55 c0 -32 -4 -61 -8 -64 -4 -2 -8 26 -8
64 0 38 4 66 8 64 4 -3 8 -32 8 -64z m-123 -33 c3 -4 -1 -13 -11 -20 -14 -10
-15 -17 -5 -45 6 -17 15 -32 21 -32 6 0 9 -24 7 -57 -1 -32 1 -66 5 -75 4 -9
6 -25 4 -35 -6 -32 -86 80 -93 131 -4 25 -13 47 -21 50 -22 8 -16 35 14 65 26
26 62 34 79 18z m427 -29 c20 -28 20 -30 -3 -57 -11 -13 -17 -29 -14 -36 5
-15 -56 -124 -82 -145 -22 -18 -27 -7 -14 26 7 16 11 55 10 87 -2 32 1 57 7
57 5 0 13 11 16 24 3 13 9 31 12 40 5 12 0 16 -17 16 -26 0 -15 16 16 22 26 6
50 -6 69 -34z m-318 -118 c33 -13 30 -30 -5 -30 -31 0 -41 18 -41 76 0 47 15
51 18 4 3 -33 8 -43 28 -50z m157 23 c-6 -53 -6 -53 -40 -53 -30 0 -34 2 -23
15 7 8 18 15 26 15 8 0 15 18 20 46 9 62 23 42 17 -23z m-137 0 c-14 -14 -23
9 -13 32 l12 25 3 -26 c2 -14 1 -28 -2 -31z m-237 -69 c23 -61 25 -74 13 -74
-11 0 -52 86 -52 110 0 37 17 21 39 -36z m148 34 c-3 -8 -6 -5 -6 6 -1 11 2
17 5 13 3 -3 4 -12 1 -19z m429 -46 c-19 -55 -46 -89 -46 -56 0 10 10 42 22
71 28 68 47 55 24 -15z m-291 -37 c-7 -28 -14 -43 -14 -35 -1 8 -4 26 -8 39
-4 16 -3 22 5 17 6 -3 14 3 17 15 13 41 14 12 0 -36z m-70 -123 c3 -15 -7 -1
-24 33 -17 33 -30 69 -30 80 1 23 46 -71 54 -113z m146 33 c-38 -75 -40 -57
-4 32 18 44 29 61 31 48 1 -11 -11 -47 -27 -80z m-285 -2 c-11 -11 -19 6 -11
24 8 17 8 17 12 0 3 -10 2 -21 -1 -24z m404 5 c0 -19 -2 -20 -10 -8 -13 19
-13 30 0 30 6 0 10 -10 10 -22z m-332 -30 c7 -7 12 -18 12 -25 0 -11 -5 -11
-20 -3 -11 6 -20 17 -20 25 0 18 12 19 28 3z m282 -3 c0 -8 -9 -19 -20 -25
-17 -9 -20 -8 -20 9 0 17 11 28 33 30 4 1 7 -6 7 -14z m-338 -142 c9 -35 13
-63 9 -63 -8 0 -41 108 -41 132 0 28 18 -11 32 -69z m373 -18 c-24 -81 -31
-60 -9 27 11 42 20 64 22 51 2 -11 -4 -47 -13 -78z m-331 26 c2 -38 19 -71 37
-71 5 0 9 7 9 16 0 25 44 13 48 -13 3 -17 -2 -23 -17 -23 -11 0 -27 -7 -35
-16 -15 -14 -18 -12 -36 28 -11 24 -20 63 -20 87 0 54 12 48 14 -8z m76 40 c0
-5 -7 -11 -15 -15 -15 -5 -20 5 -8 17 9 10 23 9 23 -2z m150 -1 c0 -5 -7 -10
-15 -10 -8 0 -15 5 -15 10 0 6 7 10 15 10 8 0 15 -4 15 -10z m59 -85 c-6 -21
-17 -48 -24 -57 -11 -16 -14 -17 -25 -3 -7 8 -21 15 -31 15 -12 0 -19 7 -19
19 0 28 18 36 47 20 31 -17 42 -2 44 61 1 43 1 43 10 15 5 -19 5 -45 -2 -70z
m149 -47 c2 -9 -4 -18 -13 -21 -11 -5 -15 0 -15 19 0 28 23 29 28 2z m-648
-82 c0 -13 -7 -26 -14 -29 -10 -4 -13 -1 -10 9 2 7 6 21 9 29 7 23 15 18 15
-9z m720 -44 c0 -7 -4 -10 -10 -7 -5 3 -10 16 -10 28 0 18 2 19 10 7 5 -8 10
-21 10 -28z m-770 -170 c-145 -274 -193 -362 -197 -358 -4 4 42 178 72 271 7
22 19 64 26 94 7 29 18 55 24 56 5 2 22 6 37 9 15 4 42 22 60 42 55 60 46 16
-22 -114z m779 93 c17 -47 147 -306 213 -422 59 -106 15 -59 -174 183 l-87
110 6 92 c3 51 10 91 15 90 6 -2 18 -26 27 -53z m-359 -21 c0 -14 -14 -33 -21
-28 -15 9 -10 31 6 31 8 0 15 -1 15 -3z m159 -84 c6 -30 24 -118 41 -195 16
-76 28 -140 26 -142 -1 -2 -26 70 -54 160 -50 156 -60 206 -46 242 10 24 19 4
33 -65z m-181 -232 c-1 -147 -4 -228 -8 -193 -6 59 -7 59 -9 15 -2 -36 -10
-12 -37 120 -41 201 -42 217 -8 258 35 42 48 41 29 -4 -8 -20 -15 -46 -14 -58
0 -13 2 -15 5 -6 26 83 39 120 41 120 2 0 2 -114 1 -252z"/>
<path d="M1213 2320 c0 -36 2 -50 4 -32 2 17 2 47 0 65 -2 17 -4 3 -4 -33z"/>
<path d="M1193 685 c0 -33 2 -45 4 -27 2 18 2 45 0 60 -2 15 -4 0 -4 -33z"/>
<path d="M1203 555 c0 -33 2 -45 4 -27 2 18 2 45 0 60 -2 15 -4 0 -4 -33z"/>
<path d="M1521 2824 c0 -11 3 -14 6 -6 3 7 2 16 -1 19 -3 4 -6 -2 -5 -13z"/>
<path d="M1511 2774 c0 -11 3 -14 6 -6 3 7 2 16 -1 19 -3 4 -6 -2 -5 -13z"/>
<path d="M1343 2695 c0 -27 2 -38 4 -22 2 15 2 37 0 50 -2 12 -4 0 -4 -28z"/>
<path d="M1083 2625 c0 -22 2 -30 4 -17 2 12 2 30 0 40 -3 9 -5 -1 -4 -23z"/>
<path d="M1333 2505 c0 -33 2 -45 4 -27 2 18 2 45 0 60 -2 15 -4 0 -4 -33z"/>
<path d="M1073 2445 c0 -38 2 -53 4 -32 2 20 2 52 0 70 -2 17 -4 1 -4 -38z"/>
<path d="M1324 2135 c0 -93 2 -133 3 -88 2 45 2 122 0 170 -1 48 -3 12 -3 -82z"/>
<path d="M983 595 c0 -22 2 -30 4 -17 2 12 2 30 0 40 -3 9 -5 -1 -4 -23z"/>
</g>
</svg>
