<?xml version="1.0" standalone="no"?>
<!DOCTYPE svg PUBLIC "-//W3C//DTD SVG 20010904//EN"
 "http://www.w3.org/TR/2001/REC-SVG-20010904/DTD/svg10.dtd">
<svg version="1.0" xmlns="http://www.w3.org/2000/svg"
 width="244.000000pt" height="305.000000pt" viewBox="0 0 244.000000 305.000000"
 preserveAspectRatio="xMidYMid meet">
<metadata>
Created by potrace 1.16, written by Peter Selinger 2001-2019
</metadata>
<g transform="translate(0.000000,305.000000) scale(0.100000,-0.100000)"
fill="#000000" stroke="none">
<path d="M1062 2900 c0 -14 2 -19 5 -12 2 6 2 18 0 25 -3 6 -5 1 -5 -13z"/>
<path d="M1521 2905 c-1 -5 -1 -234 -1 -507 1 -339 -2 -498 -10 -498 -5 0 -10
5 -10 10 0 6 -12 16 -26 22 l-26 12 5 261 c3 184 11 306 26 419 12 87 20 161
17 163 -3 3 -8 -24 -36 -224 -5 -39 -11 -89 -11 -110 -1 -21 -10 59 -20 177
-10 118 -22 223 -26 233 -5 10 -7 -182 -6 -425 1 -312 -2 -428 -8 -393 -6 28
-14 54 -20 59 -5 6 -10 71 -11 145 l-2 136 -7 -185 c-9 -266 -9 -259 -19 -235
-5 11 -9 46 -9 78 -1 31 -5 57 -9 57 -4 0 -14 67 -20 149 -10 123 -45 337 -57
349 -14 15 -65 -326 -65 -436 0 -35 -4 -61 -9 -58 -5 3 -12 -31 -16 -77 l-8
-82 -8 60 c-4 33 -13 193 -19 355 -7 162 -18 345 -25 405 -11 103 -12 77 -16
-380 -3 -381 -7 -485 -16 -470 -7 13 -14 106 -18 260 -5 224 -12 309 -35 460
-28 183 -44 265 -52 265 -4 0 -8 -8 -8 -17 0 -10 -3 -29 -5 -43 -5 -22 -4 -22
4 -5 6 13 10 -150 10 -463 l1 -483 -40 32 c-38 30 -40 36 -40 85 0 132 23 474
41 618 11 87 18 160 16 163 -6 5 -35 -182 -46 -299 -6 -51 -13 -199 -17 -328
l-7 -236 26 -17 c14 -9 35 -27 46 -38 l20 -22 30 32 c30 32 55 40 64 19 10
-27 5 -33 -23 -30 -26 3 -32 -1 -45 -32 -8 -19 -15 -45 -15 -56 0 -30 -17 -24
-23 8 -17 85 -122 99 -150 20 -11 -31 2 -47 33 -43 57 7 118 -69 85 -105 -15
-16 -15 -34 -5 -167 6 -81 12 -157 12 -168 3 -39 -2 -75 -9 -75 -5 0 -9 43
-11 96 -1 53 -5 100 -7 104 -10 16 -70 -6 -84 -32 -15 -27 -14 -44 15 -155 10
-39 -13 -25 -34 20 -34 72 -35 107 -7 161 31 59 31 70 0 84 -44 20 -83 15
-102 -14 -16 -25 -16 -30 0 -93 20 -76 22 -139 6 -174 -6 -13 -32 -37 -57 -55
-26 -17 -100 -67 -166 -112 -65 -45 -120 -80 -121 -78 -2 2 51 62 118 133 117
125 122 130 161 130 l41 0 -4 70 c-1 39 -7 88 -11 110 -7 30 -8 16 -7 -58 l2
-98 -27 6 c-24 6 -36 -3 -106 -77 -103 -108 -242 -262 -239 -264 1 -2 93 32
205 73 198 74 202 77 202 105 0 15 4 28 9 28 11 0 71 -21 71 -25 0 -2 -22 -46
-50 -99 -27 -53 -48 -96 -46 -96 11 0 106 64 106 71 0 5 9 9 19 9 11 0 23 5
26 10 11 18 25 10 25 -14 0 -18 -8 -27 -29 -34 -23 -8 -32 -20 -40 -49 -6 -21
-24 -90 -40 -153 -17 -63 -46 -173 -64 -243 -19 -70 -30 -126 -26 -125 9 3 39
42 201 255 58 76 94 116 96 105 1 -9 -11 -100 -27 -202 -16 -102 -28 -186 -27
-187 1 -1 26 53 55 120 30 67 75 169 102 227 43 95 47 110 42 158 l-6 53 29
-7 c67 -16 87 -60 49 -110 l-26 -34 20 -118 c55 -313 91 -518 94 -526 1 -4 27
128 56 295 29 167 55 313 57 324 3 13 -6 35 -25 59 -29 36 -30 39 -14 62 16
25 61 54 83 54 8 0 10 -15 5 -49 -6 -44 -2 -59 45 -162 113 -252 135 -297 138
-285 2 7 -9 86 -23 176 -24 153 -25 195 -5 160 5 -8 30 -43 57 -77 26 -34 91
-118 143 -187 52 -68 96 -122 98 -121 4 3 -17 87 -83 335 -64 241 -63 237 -95
249 -23 7 -30 16 -30 35 0 15 5 26 10 26 11 0 92 -49 100 -60 3 -4 16 -11 29
-15 l24 -7 -20 28 c-19 28 -73 129 -73 138 0 9 71 37 80 31 6 -3 10 -17 10
-29 0 -21 21 -31 212 -104 117 -45 213 -80 215 -78 2 2 -71 83 -163 180 -155
164 -168 177 -195 171 l-28 -6 6 92 c5 69 3 90 -5 85 -7 -4 -12 -29 -12 -55 0
-26 -7 -70 -15 -97 -11 -39 -12 -52 -2 -66 11 -16 121 -99 281 -212 30 -22 54
-42 51 -44 -4 -4 -67 21 -252 101 -40 17 -73 32 -73 33 0 2 5 15 10 30 10 24
8 30 -16 49 -35 28 -43 99 -20 178 18 64 20 110 6 138 -8 14 -21 19 -53 19
-70 0 -84 -30 -46 -95 17 -29 20 -46 16 -86 -6 -48 -42 -129 -58 -129 -18 0
-18 21 0 57 22 41 29 95 17 130 -9 28 -50 40 -81 23 -20 -11 -24 -22 -30 -106
-4 -51 -4 -98 0 -104 3 -5 1 -10 -4 -10 -19 0 -12 162 15 378 5 43 4 55 -10
65 -14 10 -15 18 -7 39 17 46 47 68 91 68 36 0 40 2 40 25 0 29 -40 75 -65 75
-33 0 -74 -30 -86 -65 -16 -43 -25 -44 -32 -5 -8 39 -41 70 -74 70 -25 0 -26
0 -8 20 24 26 28 26 69 -10 34 -30 35 -30 45 -11 6 11 25 28 42 38 l32 18 -6
245 c-6 240 -20 396 -52 582 -18 105 -32 168 -34 153z m-291 -861 c0 -387 -2
-434 -15 -420 -12 12 -15 55 -17 238 -2 187 -3 205 -8 108 l-6 -115 -1 160 c0
88 3 189 7 225 l7 65 3 -75 c3 -74 3 -74 10 35 4 61 8 134 9 163 0 28 3 52 6
52 3 0 5 -196 5 -436z m-130 -184 c0 -5 -4 -10 -10 -10 -5 0 -10 5 -10 10 0 6
5 10 10 10 6 0 10 -4 10 -10z m290 0 c0 -5 -4 -10 -10 -10 -5 0 -10 5 -10 10
0 6 5 10 10 10 6 0 10 -4 10 -10z m-260 -109 c0 -22 -15 -35 -30 -26 -7 4 -7
13 0 26 14 25 30 25 30 0z m240 -17 c0 -8 -6 -11 -15 -8 -8 4 -15 15 -15 26 0
17 3 18 15 8 8 -7 15 -19 15 -26z m-335 -4 c17 -33 20 -70 5 -70 -5 0 -10 -17
-10 -37 0 -28 -3 -34 -10 -23 -5 8 -10 25 -10 36 0 12 -7 27 -15 34 -20 16
-19 36 3 65 9 14 18 25 19 25 1 0 9 -13 18 -30z m445 -13 c13 -23 13 -28 -3
-45 -9 -10 -17 -29 -17 -43 -1 -13 -7 -35 -14 -48 -12 -21 -13 -17 -19 54 -10
108 16 148 53 82z m-293 -69 c-2 -13 -4 -5 -4 17 -1 22 1 32 4 23 2 -10 2 -28
0 -40z m-27 -18 c0 -10 9 -20 20 -23 11 -3 27 -21 35 -41 9 -20 17 -36 20 -36
3 0 11 15 19 34 8 19 24 39 35 46 12 6 21 17 21 24 0 8 6 19 13 25 21 16 47
-17 40 -50 -4 -23 -10 -27 -39 -27 -45 0 -59 -13 -75 -69 l-13 -47 -15 46
c-23 65 -36 78 -75 71 -30 -5 -34 -3 -39 23 -7 36 19 70 40 53 7 -6 13 -19 13
-29z m-182 -64 c13 -30 38 -72 56 -93 35 -40 60 -82 54 -88 -4 -4 -39 29 -79
73 -19 20 -55 96 -64 135 -12 46 9 30 33 -27z m419 2 c-2 -13 -4 -5 -4 17 -1
22 1 32 4 23 2 -10 2 -28 0 -40z m133 36 c0 -24 -61 -145 -76 -151 -8 -3 -14
-11 -14 -19 0 -16 -48 -50 -57 -40 -3 3 17 36 45 72 28 37 59 87 69 110 18 44
33 57 33 28z m-450 -24 c0 -17 9 -48 20 -70 24 -47 25 -57 5 -40 -14 11 -21
33 -41 113 -4 17 -2 27 5 27 6 0 11 -14 11 -30z m305 -73 c-4 -15 -13 -31 -21
-38 -18 -15 -18 -10 2 36 17 41 29 42 19 2z m-215 -31 c-1 -20 -2 -20 -15 4
-19 33 -19 46 0 30 8 -7 15 -22 15 -34z m149 8 c-6 -16 -13 -24 -16 -17 -5 13
16 58 23 50 3 -2 -1 -17 -7 -33z m-349 -98 c0 -19 -4 -38 -10 -41 -6 -4 -10
10 -10 34 0 23 5 41 10 41 6 0 10 -15 10 -34z m539 -3 c0 -34 -1 -36 -11 -16
-6 12 -8 29 -5 37 11 27 17 18 16 -21z m-321 -11 c2 -7 -3 -12 -12 -12 -9 0
-16 7 -16 16 0 17 22 14 28 -4z m120 6 c-2 -6 -10 -14 -16 -16 -7 -2 -10 2 -6
12 7 18 28 22 22 4z m-254 -86 c-7 -44 17 -102 41 -102 12 0 15 14 15 61 0 52
2 60 16 55 9 -3 23 -6 32 -6 15 -1 15 -2 0 -11 -11 -6 -18 -22 -18 -39 0 -22
5 -29 23 -32 16 -2 23 -11 25 -30 3 -28 3 -28 -45 -22 -86 10 -88 11 -99 52
-11 43 -7 112 7 112 5 0 6 -17 3 -38z m376 -14 c0 -79 -16 -103 -68 -104 -23
0 -45 -4 -49 -7 -17 -17 -34 -6 -31 21 2 19 9 28 26 30 12 2 22 11 23 20 3 49
5 57 14 57 6 0 10 -18 10 -40 1 -69 27 -87 49 -33 8 17 11 48 9 70 -4 25 -2
38 6 38 7 0 11 -20 11 -52z m-572 -100 c-2 -6 -12 1 -21 16 -10 15 -15 32 -11
38 8 13 37 -37 32 -54z m160 -13 c-3 -3 -9 2 -12 12 -6 14 -5 15 5 6 7 -7 10
-15 7 -18z m442 15 c0 -5 -5 -10 -11 -10 -5 0 -7 5 -4 10 3 6 8 10 11 10 2 0
4 -4 4 -10z m150 -17 c0 -22 -17 -50 -25 -42 -5 6 14 59 22 59 1 0 3 -8 3 -17z
m-823 -60 c2 -6 -17 -32 -42 -59 l-46 -49 31 63 c28 58 48 73 57 45z m127 -19
c12 -30 6 -76 -16 -127 -12 -29 -26 -53 -30 -55 -4 -2 -8 -8 -8 -14 0 -15
-182 -379 -187 -374 -3 3 6 44 20 93 13 48 39 142 57 209 l32 121 41 15 c38
13 42 19 50 59 14 77 17 89 26 89 5 0 12 -7 15 -16z m666 -28 c-14 -38 6 -110
65 -231 86 -178 155 -326 155 -334 0 -8 -36 38 -104 132 -178 246 -165 224
-155 259 5 18 9 66 9 106 0 76 15 126 30 102 5 -7 5 -23 0 -34z m135 -6 c15
-22 26 -42 24 -45 -9 -9 -82 62 -75 73 12 20 22 14 51 -28z m-469 -95 c10 14
14 15 14 4 0 -8 -9 -25 -19 -38 l-18 -24 -6 29 c-3 16 -8 38 -12 49 -3 11 1 7
11 -9 16 -28 17 -29 30 -11z m-216 -20 c0 -17 -128 -455 -129 -442 -2 22 51
322 59 337 5 9 7 26 4 36 -9 35 13 74 41 74 14 0 25 -2 25 -5z m436 -86 c12
-46 34 -127 48 -179 14 -52 29 -106 32 -120 14 -51 -8 -9 -71 139 -61 143 -74
195 -59 236 12 31 28 7 50 -76z m51 59 c-3 -7 -5 -2 -5 12 0 14 2 19 5 13 2
-7 2 -19 0 -25z m-288 -290 c0 -150 -2 -268 -4 -263 -2 6 -13 105 -25 221
l-21 210 23 52 c13 29 24 52 26 52 1 0 2 -123 1 -272z m-54 150 c0 -40 3 -111
7 -158 7 -95 6 -91 -24 67 -20 109 -20 112 -2 137 11 14 19 26 19 26 0 0 0
-33 0 -72z"/>
<path d="M1501 2824 c0 -11 3 -14 6 -6 3 7 2 16 -1 19 -3 4 -6 -2 -5 -13z"/>
<path d="M1052 2805 c0 -16 2 -22 5 -12 2 9 2 23 0 30 -3 6 -5 -1 -5 -18z"/>
<path d="M1382 2755 c0 -16 2 -22 5 -12 2 9 2 23 0 30 -3 6 -5 -1 -5 -18z"/>
<path d="M1043 2690 c0 -30 2 -43 4 -27 2 15 2 39 0 55 -2 15 -4 2 -4 -28z"/>
<path d="M1373 2635 c0 -27 2 -38 4 -22 2 15 2 37 0 50 -2 12 -4 0 -4 -28z"/>
<path d="M1033 2560 c0 -36 2 -50 4 -32 2 17 2 47 0 65 -2 17 -4 3 -4 -33z"/>
<path d="M1363 2495 c0 -27 2 -38 4 -22 2 15 2 37 0 50 -2 12 -4 0 -4 -28z"/>
</g>
</svg>
