<?xml version="1.0" standalone="no"?>
<!DOCTYPE svg PUBLIC "-//W3C//DTD SVG 20010904//EN"
 "http://www.w3.org/TR/2001/REC-SVG-20010904/DTD/svg10.dtd">
<svg version="1.0" xmlns="http://www.w3.org/2000/svg"
 width="244.000000pt" height="305.000000pt" viewBox="0 0 244.000000 305.000000"
 preserveAspectRatio="xMidYMid meet">
<metadata>
Created by potrace 1.16, written by Peter Selinger 2001-2019
</metadata>
<g transform="translate(0.000000,305.000000) scale(0.100000,-0.100000)"
fill="#000000" stroke="none">
<path d="M1272 2900 c0 -14 2 -19 5 -12 2 6 2 18 0 25 -3 6 -5 1 -5 -13z"/>
<path d="M890 2895 c0 -11 -3 -31 -6 -45 -4 -20 -3 -22 5 -10 8 11 11 -120 11
-462 0 -263 -3 -478 -6 -478 -3 0 -23 12 -45 28 l-39 27 0 120 c0 210 15 379
65 717 l5 33 -10 -30 c-34 -103 -65 -395 -75 -697 -6 -173 -6 -176 15 -183 12
-4 37 -20 56 -37 l34 -30 28 27 c15 15 38 31 51 36 l24 10 -6 247 c-7 261 -19
385 -62 597 -24 119 -45 179 -45 130z"/>
<path d="M1193 2840 c0 -36 2 -50 4 -32 2 17 2 47 0 65 -2 17 -4 3 -4 -33z"/>
<path d="M1560 2886 c0 -8 -3 -23 -6 -33 -5 -15 -4 -15 5 -3 8 11 11 -120 11
-467 0 -266 -2 -483 -5 -483 -3 0 -23 12 -45 26 l-40 27 0 141 c0 166 13 344
35 488 9 57 18 123 20 148 10 94 -14 -13 -34 -155 -22 -149 -47 -598 -37 -640
4 -14 13 -25 20 -25 8 0 28 -11 44 -25 34 -29 54 -31 73 -9 7 8 26 22 42 31
l30 15 -6 237 c-7 253 -23 410 -62 604 -14 67 -25 125 -25 129 0 5 -4 8 -10 8
-5 0 -10 -6 -10 -14z"/>
<path d="M1542 2800 c0 -14 2 -19 5 -12 2 6 2 18 0 25 -3 6 -5 1 -5 -13z"/>
<path d="M1220 2560 c-7 -25 -16 -47 -20 -50 -13 -8 -39 -271 -46 -469 -7
-174 -17 -223 -29 -143 -18 115 -29 170 -37 192 -10 24 -10 24 -18 5 -4 -11
-13 -60 -19 -108 -13 -94 -9 -110 29 -122 28 -9 45 -60 34 -103 -9 -38 -12
-39 -69 -30 -16 2 -19 -2 -17 -22 4 -29 29 -60 49 -60 8 0 24 11 37 25 32 35
40 31 32 -15 -6 -36 -4 -41 18 -50 30 -11 37 -22 26 -40 -7 -11 -12 -11 -23
-2 -20 17 -61 18 -91 2 -35 -18 -33 -28 10 -36 57 -11 74 -37 74 -116 0 -53
-3 -68 -15 -68 -32 0 -123 49 -162 89 -43 43 -93 131 -93 163 0 31 15 20 38
-28 30 -61 110 -145 167 -173 26 -13 49 -21 52 -17 14 14 -12 54 -57 86 -60
42 -109 107 -117 155 -3 19 -12 40 -19 46 -19 16 -17 43 5 70 16 19 29 24 73
25 50 1 53 2 50 25 -10 91 -130 100 -167 12 l-17 -38 -19 38 c-45 86 -152 82
-174 -5 -7 -27 -6 -28 39 -28 75 0 144 -74 101 -110 -8 -7 -15 -27 -15 -44 0
-61 17 -98 104 -221 7 -9 0 -24 -23 -50 -60 -69 -61 -109 -1 -140 33 -17 49
-18 69 -6 11 7 11 17 0 60 -11 44 -11 53 2 65 12 12 23 11 79 -6 49 -15 69
-17 82 -9 10 6 18 8 18 3 0 -4 -9 -13 -20 -20 -20 -12 -25 -37 -14 -66 3 -9
10 -13 15 -10 12 7 11 -37 -1 -56 -5 -8 -10 -10 -10 -5 0 6 -5 3 -10 -5 -14
-21 -12 -57 3 -64 6 -3 3 -5 -8 -3 -16 2 -21 11 -23 45 -3 42 -3 42 -42 42
-22 0 -55 -8 -75 -17 -31 -15 -38 -15 -61 -2 -51 27 -73 76 -79 173 -3 48 -10
96 -15 107 -15 28 -74 26 -94 -3 -32 -45 -15 -112 54 -213 49 -71 80 -143 80
-183 0 -32 -26 -84 -139 -282 -125 -218 -175 -296 -159 -250 3 8 35 109 72
223 61 191 69 209 94 217 65 23 77 34 86 84 12 66 -3 110 -67 193 -84 107 -96
163 -50 240 l27 46 -23 18 c-15 12 -39 19 -66 19 -74 0 -92 -47 -57 -148 24
-66 16 -133 -19 -166 -36 -34 -389 -235 -389 -222 0 2 65 63 145 136 l145 132
46 -7 45 -6 -7 88 c-9 111 -21 159 -24 93 -3 -52 -2 -73 6 -118 l5 -33 -35 7
c-35 6 -40 2 -231 -171 -108 -98 -194 -179 -192 -181 4 -4 449 141 476 155 11
6 21 21 23 33 2 18 9 22 28 20 43 -4 114 -47 138 -82 32 -48 26 -80 -17 -94
-23 -7 -37 -19 -42 -36 -4 -14 -44 -142 -88 -284 -45 -143 -80 -260 -78 -262
3 -3 195 206 326 355 58 65 80 98 76 110 -4 9 -9 31 -12 50 l-6 33 95 -3 c85
-4 98 -7 131 -32 20 -15 37 -33 37 -40 0 -6 -14 -25 -31 -43 l-31 -32 26 -125
c14 -70 26 -144 26 -166 0 -22 4 -41 8 -43 5 -1 23 -73 40 -157 18 -85 34
-156 36 -158 2 -2 18 71 37 162 21 100 36 158 41 147 4 -10 7 5 7 35 1 42 25
194 45 286 3 10 -9 33 -26 52 -37 43 -31 68 22 95 30 15 59 20 126 20 l87 0
-7 -27 c-3 -16 -8 -38 -12 -49 -6 -23 49 -90 256 -314 54 -58 107 -116 119
-130 11 -14 20 -21 21 -16 0 6 -36 127 -81 270 -44 144 -82 269 -85 278 -3 9
-20 22 -39 28 -45 15 -49 22 -31 63 18 44 50 75 104 98 58 25 68 24 75 -9 6
-27 15 -32 238 -105 128 -42 235 -74 237 -72 5 4 -65 72 -263 254 -93 86 -102
91 -133 86 l-34 -6 7 84 c8 99 -9 131 -19 37 -4 -33 -13 -80 -21 -105 -11 -39
-11 -47 1 -60 8 -8 96 -65 195 -127 99 -62 176 -114 171 -116 -5 -1 -86 25
-181 59 l-172 62 6 37 c6 33 4 39 -15 45 -44 14 -52 100 -20 203 25 80 25 87
-2 112 -36 33 -138 21 -138 -17 0 -10 12 -36 25 -58 42 -68 28 -125 -56 -229
-54 -66 -82 -137 -83 -206 -1 -40 14 -72 127 -274 70 -126 126 -230 124 -233
-5 -4 -78 78 -210 235 l-86 102 6 108 c6 121 16 151 93 277 76 124 85 186 30
215 -39 21 -64 9 -73 -35 -5 -22 -12 -53 -17 -68 -5 -17 -5 -39 1 -53 12 -32
-7 -70 -56 -113 -39 -34 -60 -38 -89 -16 -11 8 -39 15 -63 15 -41 0 -43 -1
-43 -29 0 -16 -3 -37 -7 -47 -10 -27 -34 103 -27 147 4 24 2 39 -7 45 -8 5 8
14 47 25 32 9 67 20 76 24 26 11 39 -31 25 -83 -14 -51 -2 -67 41 -58 39 9 72
41 72 71 0 13 -16 44 -35 69 -19 26 -35 50 -35 55 0 4 16 28 35 52 61 76 96
202 60 215 -17 7 -20 37 -5 65 16 29 68 52 107 46 31 -5 33 -4 33 21 0 94
-125 106 -167 17 -9 -19 -19 -35 -22 -35 -3 0 -15 17 -26 37 -11 21 -33 44
-49 52 -25 12 -33 11 -63 -3 -34 -16 -58 -58 -49 -83 4 -10 17 -12 46 -7 36 6
45 3 71 -22 32 -31 37 -55 14 -74 -8 -7 -15 -20 -15 -29 -1 -52 -99 -180 -151
-196 -19 -6 -34 -39 -24 -54 21 -34 179 100 216 183 23 54 44 62 34 14 -17
-81 -92 -170 -179 -211 -87 -41 -89 -40 -81 46 7 74 24 107 56 107 23 0 49 10
49 20 0 4 -16 15 -35 24 -32 15 -37 15 -65 1 -16 -8 -30 -21 -30 -28 0 -6 -5
-4 -11 6 -14 24 -4 50 23 62 19 8 22 16 20 48 -4 43 3 46 30 12 11 -14 26 -25
34 -25 22 0 54 38 54 65 0 29 0 29 -36 13 -23 -11 -28 -10 -40 7 -14 19 -19
71 -8 99 3 9 20 25 38 35 l32 20 -7 75 c-18 189 -36 181 -69 -30 -12 -78 -30
-108 -31 -53 -1 69 -19 426 -24 494 -4 39 -11 79 -16 90 -5 11 -18 47 -28 80
l-19 60 -12 -45z m8 -322 c-1 -185 -4 -257 -8 -208 -15 155 -10 490 6 490 2 0
3 -127 2 -282z m-14 -388 c3 -19 -3 -6 -13 30 l-19 65 -1 -45 c-3 -99 -1 -148
5 -209 5 -51 3 -62 -8 -59 -18 6 -21 137 -8 368 21 345 24 358 31 110 4 -124
10 -241 13 -260z m-5 -90 c5 0 8 -26 7 -57 0 -32 3 -69 8 -83 7 -22 6 -23 -7
-10 -11 11 -16 46 -19 130 -3 63 -3 94 -1 68 2 -27 8 -48 12 -48z m8 -252 c-3
-8 -6 -5 -6 6 -1 11 2 17 5 13 3 -3 4 -12 1 -19z m40 0 c-3 -8 -6 -5 -6 6 -1
11 2 17 5 13 3 -3 4 -12 1 -19z m-20 -25 c-3 -10 -5 -4 -5 12 0 17 2 24 5 18
2 -7 2 -21 0 -30z m90 -325 c-3 -7 -5 -2 -5 12 0 14 2 19 5 13 2 -7 2 -19 0
-25z m23 -78 c0 -5 -5 -10 -11 -10 -5 0 -7 5 -4 10 3 6 8 10 11 10 2 0 4 -4 4
-10z m-170 -14 c0 -7 2 -35 5 -62 l5 -49 -14 35 c-17 41 -20 90 -6 90 6 0 10
-6 10 -14z m133 2 c-4 -7 -10 -31 -14 -53 -6 -40 -7 -40 -8 13 -1 41 2 52 15
52 10 0 12 -5 7 -12z m-93 -144 c0 -8 -4 -12 -10 -9 -5 3 -10 10 -10 16 0 5 5
9 10 9 6 0 10 -7 10 -16z m17 -6 c-3 -8 -6 -5 -6 6 -1 11 2 17 5 13 3 -3 4
-12 1 -19z m-10 -329 c1 -160 0 -289 -2 -287 -1 1 -15 61 -29 133 -26 122 -26
135 -16 245 14 141 30 227 39 211 4 -6 8 -142 8 -302z m-50 199 c-2 -13 -4 -5
-4 17 -1 22 1 32 4 23 2 -10 2 -28 0 -40z m-8 -107 c1 -75 -12 -72 -28 7 -14
69 -14 105 2 121 10 10 13 5 19 -26 4 -21 7 -67 7 -102z"/>
</g>
</svg>
