<?xml version="1.0" standalone="no"?>
<!DOCTYPE svg PUBLIC "-//W3C//DTD SVG 20010904//EN"
 "http://www.w3.org/TR/2001/REC-SVG-20010904/DTD/svg10.dtd">
<svg version="1.0" xmlns="http://www.w3.org/2000/svg"
 width="244.000000pt" height="305.000000pt" viewBox="0 0 244.000000 305.000000"
 preserveAspectRatio="xMidYMid meet">
<metadata>
Created by potrace 1.16, written by Peter Selinger 2001-2019
</metadata>
<g transform="translate(0.000000,305.000000) scale(0.100000,-0.100000)"
fill="#000000" stroke="none">
<path d="M888 2879 c-3 -19 -2 -35 3 -37 13 -5 12 -929 -2 -937 -6 -4 -20 2
-32 12 -12 11 -30 23 -41 27 -17 6 -18 16 -11 184 9 252 35 502 65 637 9 38 6
62 -4 34 -34 -97 -73 -473 -76 -721 l-1 -157 33 -17 c18 -9 42 -25 54 -35 20
-19 21 -19 39 1 11 12 34 28 54 37 l34 17 -6 205 c-9 275 -22 405 -59 596 -34
178 -43 205 -50 154z"/>
<path d="M1569 2904 c0 -5 -2 -17 -4 -26 -2 -10 1 -20 6 -24 12 -7 12 -954 0
-954 -5 0 -28 12 -50 27 -41 26 -41 27 -41 87 0 142 21 446 40 573 11 76 22
156 25 178 l5 40 -10 -35 c-35 -126 -69 -456 -71 -699 l-1 -143 41 -25 c23
-13 41 -28 41 -34 0 -16 36 -10 54 10 10 11 31 25 47 31 l29 12 0 107 c0 251
-37 606 -82 791 -20 82 -27 104 -29 84z"/>
<path d="M1182 2880 c0 -14 2 -19 5 -12 2 6 2 18 0 25 -3 6 -5 1 -5 -13z"/>
<path d="M1283 2840 c0 -36 2 -50 4 -32 2 17 2 47 0 65 -2 17 -4 3 -4 -33z"/>
<path d="M1172 2475 c-2 -82 -7 -205 -12 -271 -5 -67 -10 -170 -11 -228 -1
-100 -9 -136 -23 -100 -3 9 -6 27 -6 40 0 36 -30 177 -40 187 -9 10 -26 -61
-36 -149 -7 -56 -7 -57 30 -88 33 -27 38 -37 38 -77 1 -25 -2 -51 -6 -57 -9
-15 -39 -15 -54 0 -21 21 -34 -4 -21 -40 16 -48 67 -54 90 -11 17 32 28 21 26
-23 -1 -30 2 -42 11 -41 7 2 12 -7 12 -23 0 -15 -4 -23 -11 -19 -17 11 -79 8
-94 -5 -23 -19 -18 -26 25 -39 37 -11 40 -15 40 -46 0 -51 -22 -45 -87 22 -57
60 -73 87 -73 129 0 14 -7 27 -15 30 -26 10 -18 60 12 84 21 16 38 21 70 18
51 -4 58 7 35 53 -12 23 -27 36 -50 41 -47 12 -83 -8 -108 -61 -19 -40 -22
-42 -28 -23 -4 12 -19 36 -33 52 -21 25 -32 30 -69 30 -53 0 -84 -26 -84 -70
0 -29 0 -30 45 -23 42 5 47 4 80 -31 41 -43 43 -56 14 -82 -17 -15 -20 -26
-15 -57 8 -49 47 -126 86 -170 16 -19 30 -37 30 -40 0 -3 -18 -27 -40 -53 -46
-56 -50 -81 -17 -112 53 -50 124 -32 98 24 -13 29 -14 64 -3 82 8 12 28 9 105
-20 29 -11 33 -28 21 -99 -6 -36 -7 -36 -63 -42 -32 -2 -67 -11 -79 -18 -49
-30 -126 51 -129 135 0 28 -5 76 -10 106 l-8 55 -39 0 c-30 0 -43 -6 -58 -26
-29 -39 -16 -82 68 -221 80 -134 87 -161 56 -226 -10 -20 -61 -109 -113 -197
-53 -88 -111 -187 -129 -219 -19 -33 -35 -56 -37 -50 -1 5 28 103 65 218 l68
208 49 17 c55 19 63 33 64 109 1 61 -14 97 -70 164 -65 78 -101 184 -69 203 6
4 19 24 30 45 l20 39 -22 15 c-33 23 -103 21 -128 -4 -25 -25 -25 -51 0 -118
45 -118 18 -169 -135 -252 -33 -17 -64 -35 -70 -40 -22 -17 -187 -101 -191
-97 -2 2 13 19 33 38 21 18 65 58 98 89 144 131 145 132 192 125 42 -6 43 -6
43 23 0 72 -14 182 -23 182 -6 0 -8 -32 -4 -90 l7 -91 -33 6 c-30 6 -40 1 -98
-52 -36 -32 -122 -109 -192 -172 -70 -63 -126 -116 -123 -118 4 -5 146 37 342
101 135 44 142 48 148 76 7 37 22 38 85 5 50 -25 95 -70 106 -105 8 -25 -10
-50 -36 -50 -10 0 -25 -10 -33 -23 -18 -28 -176 -521 -176 -550 0 -14 342 352
386 414 19 27 20 33 8 67 -7 20 -9 41 -4 46 4 4 49 6 98 5 73 -3 96 -8 119
-25 38 -28 41 -60 8 -94 -25 -26 -26 -28 -15 -95 6 -38 13 -72 16 -76 2 -5 5
-52 6 -106 1 -62 4 -83 7 -58 3 22 9 35 13 29 4 -5 23 -91 43 -189 19 -98 37
-180 38 -182 3 -3 42 179 68 314 13 71 26 81 32 26 2 -21 4 3 4 52 -1 50 7
126 18 172 l18 82 -32 36 c-26 30 -29 39 -20 56 22 42 68 59 161 59 96 0 104
-5 82 -59 -13 -31 -12 -35 12 -65 28 -33 141 -159 235 -260 30 -34 75 -82 99
-109 23 -26 45 -45 48 -43 4 5 -18 76 -125 415 -46 144 -46 144 -84 159 -47
18 -50 41 -14 94 23 35 81 69 136 82 23 5 27 2 32 -24 6 -28 12 -31 243 -105
129 -42 239 -74 242 -70 4 4 -4 16 -18 27 -14 11 -65 57 -115 103 -232 212
-237 216 -272 210 l-33 -6 7 91 c4 65 3 90 -6 90 -6 0 -11 -16 -11 -38 0 -21
-7 -64 -15 -95 -20 -77 -19 -90 8 -107 13 -8 103 -64 201 -124 97 -60 175
-111 173 -113 -2 -2 -80 24 -173 58 -93 33 -177 63 -187 66 -15 5 -17 12 -12
42 5 32 3 39 -19 50 -43 23 -48 97 -14 203 l22 68 -21 27 c-26 36 -97 44 -131
16 -21 -17 -21 -19 -6 -48 45 -81 45 -81 34 -130 -7 -32 -30 -71 -71 -124 -61
-80 -89 -147 -89 -220 0 -33 28 -88 187 -364 41 -71 72 -131 69 -134 -2 -3
-20 12 -38 33 -18 22 -51 59 -74 84 -22 25 -75 87 -118 137 -69 82 -77 96 -71
120 4 16 9 64 10 108 2 90 9 107 99 250 47 75 56 96 56 135 0 33 -6 52 -18 63
-22 20 -65 22 -79 5 -14 -18 -26 -83 -27 -149 -1 -45 -6 -63 -29 -93 -39 -50
-72 -62 -115 -42 -45 22 -108 21 -121 -1 -8 -16 -11 -15 -20 10 -14 37 -14 67
0 67 8 0 10 12 6 34 -5 34 -5 34 56 54 53 17 64 18 77 6 12 -12 12 -21 2 -59
-16 -60 -16 -62 13 -69 30 -8 80 16 96 45 13 25 -2 67 -33 96 -41 37 -42 51
-3 98 67 83 97 194 60 225 -23 19 -18 39 20 77 30 30 40 34 77 31 40 -2 43 -1
46 23 4 30 -46 79 -80 79 -32 0 -75 -30 -92 -66 -20 -43 -31 -43 -42 -1 -7 23
-20 37 -48 51 -36 18 -40 18 -72 2 -25 -11 -36 -25 -40 -46 -9 -41 -5 -45 43
-42 34 3 47 -1 68 -22 28 -28 32 -58 10 -76 -8 -7 -15 -24 -15 -38 0 -34 -35
-89 -88 -139 -43 -41 -52 -46 -69 -40 -27 9 -3 77 27 77 25 0 50 10 50 21 0
10 -50 36 -65 34 -5 0 -20 -4 -32 -9 -34 -11 -48 3 -23 24 14 12 20 29 20 59
0 22 2 41 5 41 2 0 15 -11 29 -25 14 -14 32 -25 40 -25 20 0 46 39 46 67 0 24
-14 31 -25 13 -10 -17 -44 -11 -55 9 -5 11 -10 36 -10 55 0 36 8 47 59 85 l24
18 -15 102 c-24 153 -29 151 -58 -14 -12 -66 -25 -124 -29 -128 -5 -5 -11 90
-15 210 -4 120 -12 241 -17 268 -6 28 -8 88 -5 135 3 54 2 74 -3 55 l-9 -30
-2 35 -3 35 -6 -35 -6 -35 -14 54 c-15 58 -25 55 -37 -14 l-8 -40 -7 30 c-6
25 -7 21 -10 -25 -2 -47 -4 -42 -9 35 -6 84 -6 79 -8 -60z m49 -277 c-7 -141
-9 -304 -5 -364 6 -87 5 -106 -6 -99 -10 6 -12 1 -6 -26 4 -19 10 -50 12 -69
5 -32 4 -34 -9 -17 -15 19 -16 69 -2 185 5 33 3 52 -3 52 -6 0 -13 -17 -15
-37 -2 -21 -3 -15 -1 12 2 28 6 64 9 80 4 28 4 28 -5 5 -5 -16 -8 44 -6 170 3
179 13 302 33 405 l8 40 3 -40 c2 -22 -1 -155 -7 -297z m16 -265 c-3 -10 -5
-2 -5 17 0 19 2 27 5 18 2 -10 2 -26 0 -35z m-58 -46 c1 -5 -3 -5 -9 -2 -5 3
-10 16 -9 28 0 21 1 21 9 2 5 -11 9 -24 9 -28z m0 -192 c0 -16 -4 -37 -9 -45
-7 -10 -9 6 -9 55 1 50 3 63 9 45 4 -14 8 -38 9 -55z m-251 -125 c28 -60 100
-132 165 -166 50 -26 61 -44 27 -44 -78 0 -230 153 -230 232 0 41 12 34 38
-22z m649 14 c-13 -78 -105 -179 -202 -220 -43 -17 -45 -17 -45 1 0 8 22 26
48 39 59 30 156 132 172 181 15 46 34 46 27 -1z m-390 -16 c-3 -7 -5 -2 -5 12
0 14 2 19 5 13 2 -7 2 -19 0 -25z m20 -20 c-3 -7 -5 -2 -5 12 0 14 2 19 5 13
2 -7 2 -19 0 -25z m58 -18 c-4 -23 -9 -39 -11 -37 -3 2 -2 23 2 46 4 23 9 40
11 37 3 -3 2 -23 -2 -46z m-48 -32 c-3 -7 -5 -2 -5 12 0 14 2 19 5 13 2 -7 2
-19 0 -25z m20 -20 c-2 -13 -4 -5 -4 17 -1 22 1 32 4 23 2 -10 2 -28 0 -40z
m-80 -70 c-2 -13 -4 -5 -4 17 -1 22 1 32 4 23 2 -10 2 -28 0 -40z m160 30 c-3
-8 -6 -5 -6 6 -1 11 2 17 5 13 3 -3 4 -12 1 -19z m0 -80 c-2 -13 -4 -3 -4 22
0 25 2 35 4 23 2 -13 2 -33 0 -45z m-140 -5 c-3 -10 -5 -2 -5 17 0 19 2 27 5
18 2 -10 2 -26 0 -35z m-20 5 c-3 -8 -6 -5 -6 6 -1 11 2 17 5 13 3 -3 4 -12 1
-19z m10 -170 c-3 -8 -6 -5 -6 6 -1 11 2 17 5 13 3 -3 4 -12 1 -19z m-41 -46
c-12 -11 -17 7 -9 34 l8 29 3 -28 c2 -16 1 -31 -2 -35z m34 -70 c0 -5 -7 -9
-15 -9 -8 0 -15 4 -15 9 0 4 7 8 15 8 8 0 15 -4 15 -8z m17 -39 c-3 -10 -5 -2
-5 17 0 19 2 27 5 18 2 -10 2 -26 0 -35z m120 -30 c-2 -16 -4 -3 -4 27 0 30 2
43 4 28 2 -16 2 -40 0 -55z m40 71 c-3 -3 -12 -4 -19 -1 -8 3 -5 6 6 6 11 1
17 -2 13 -5z m-100 -156 c-3 -8 -6 -5 -6 6 -1 11 2 17 5 13 3 -3 4 -12 1 -19z
m-11 -615 c-2 -2 -18 70 -37 159 -24 114 -34 187 -33 243 1 97 11 146 25 124
7 -11 9 -11 9 4 0 10 6 28 13 40 10 18 13 -30 19 -273 4 -162 5 -296 4 -297z
m-87 455 c-1 -39 -2 -41 -8 -13 -4 17 -5 36 -3 43 8 23 12 12 11 -30z"/>
<path d="M1171 764 c0 -11 3 -14 6 -6 3 7 2 16 -1 19 -3 4 -6 -2 -5 -13z"/>
<path d="M1162 680 c0 -14 2 -19 5 -12 2 6 2 18 0 25 -3 6 -5 1 -5 -13z"/>
</g>
</svg>
