<?xml version="1.0" standalone="no"?>
<!DOCTYPE svg PUBLIC "-//W3C//DTD SVG 20010904//EN"
 "http://www.w3.org/TR/2001/REC-SVG-20010904/DTD/svg10.dtd">
<svg version="1.0" xmlns="http://www.w3.org/2000/svg"
 width="244.000000pt" height="305.000000pt" viewBox="0 0 244.000000 305.000000"
 preserveAspectRatio="xMidYMid meet">
<metadata>
Created by potrace 1.16, written by Peter Selinger 2001-2019
</metadata>
<g transform="translate(0.000000,305.000000) scale(0.100000,-0.100000)"
fill="#000000" stroke="none">
<path d="M1018 2781 c4 -100 2 -132 -6 -127 -7 4 -12 34 -12 71 0 35 -5 67
-11 71 -12 7 -7 -86 10 -176 5 -30 13 -192 17 -360 6 -277 6 -306 -9 -319 -14
-11 -20 -11 -34 0 -14 13 -15 39 -10 275 4 143 9 300 11 350 3 67 2 76 -4 39
-5 -33 -7 7 -6 118 0 92 -2 167 -5 167 -11 0 -58 -326 -69 -470 -14 -187 -16
-503 -3 -507 24 -8 45 -31 39 -41 -4 -7 -25 -12 -46 -12 -42 0 -67 -18 -76
-55 -8 -33 3 -46 31 -39 31 8 61 -10 81 -47 14 -28 14 -34 -1 -66 -14 -30 -15
-42 -4 -85 6 -28 18 -63 25 -77 12 -23 12 -28 -3 -38 -32 -24 -43 -16 -43 31
0 52 -3 54 -103 54 -54 0 -72 -3 -88 -19 -23 -23 -23 -39 -4 -103 17 -54 20
-132 6 -140 -12 -8 -20 25 -28 112 -9 111 -28 104 -20 -7 l7 -93 -28 7 c-26 5
-39 -6 -178 -161 -82 -91 -151 -171 -153 -177 -2 -6 3 -7 15 -2 18 7 50 20
161 64 29 12 53 18 53 13 0 -4 -14 -25 -30 -46 -17 -22 -28 -42 -25 -44 6 -6
283 134 307 155 14 13 18 12 36 -7 26 -28 38 -90 20 -101 -7 -5 -19 -9 -26 -9
-18 0 -25 -21 -83 -245 -57 -219 -80 -318 -75 -322 3 -3 38 41 110 140 15 21
30 37 32 34 2 -2 -5 -45 -16 -97 -12 -51 -19 -97 -18 -102 2 -4 63 95 136 222
132 230 133 231 122 270 -6 22 -8 45 -5 50 18 29 125 -4 152 -46 11 -18 10
-24 -12 -54 -14 -19 -25 -42 -25 -53 0 -10 18 -130 40 -265 52 -320 62 -374
66 -370 5 5 95 544 101 603 5 45 2 55 -21 83 -21 24 -25 35 -17 49 19 36 49
54 101 60 l53 6 -7 -52 c-7 -57 -13 -44 164 -341 31 -52 60 -104 64 -114 15
-41 16 -4 2 75 -8 46 -13 85 -11 87 2 2 38 -44 81 -102 43 -58 80 -103 82
-102 2 2 -28 129 -67 281 -39 153 -71 279 -71 282 0 2 -16 11 -35 19 -31 13
-35 17 -29 42 11 44 22 70 33 76 6 4 76 -26 156 -65 80 -40 148 -70 151 -66 3
3 -6 18 -20 34 -26 28 -33 43 -18 43 4 0 66 -22 137 -50 71 -27 130 -48 132
-47 1 2 -70 82 -158 178 -139 150 -165 174 -189 173 l-29 -2 5 92 c6 115 -10
86 -21 -38 l-7 -88 39 6 c38 7 39 6 124 -86 125 -136 159 -175 159 -182 0 -5
-61 35 -223 147 -129 88 -157 147 -122 247 17 49 19 103 5 131 -11 20 -72 27
-99 10 -7 -5 -27 -4 -47 2 -48 15 -68 -4 -60 -56 8 -50 0 -61 -26 -35 -19 19
-20 24 -8 52 7 17 17 57 23 88 9 50 8 60 -7 77 -20 22 -16 46 15 85 16 20 29
26 60 26 39 0 40 1 37 32 -2 20 -13 38 -31 52 -24 18 -32 19 -59 8 -17 -6 -37
-8 -45 -3 -12 6 -8 13 17 34 17 15 36 27 41 27 5 0 8 35 7 78 -2 67 -2 70 -5
21 -3 -49 -8 -61 -37 -87 l-34 -30 -7 444 c-4 245 -4 472 -1 505 5 40 4 59 -3
55 -5 -4 -13 -32 -17 -64 -3 -31 -9 -61 -12 -67 -8 -13 -20 31 -21 79 -1 22
-4 37 -7 34 -3 -3 -7 -102 -8 -219 -4 -302 -17 -711 -22 -729 -5 -12 -8 -12
-20 4 -9 12 -14 44 -14 84 0 35 -4 61 -9 58 -5 -4 -12 0 -14 6 -4 10 -8 9 -16
-2 -10 -13 -11 -13 -12 0 -1 31 -18 -25 -18 -65 -1 -22 -6 -47 -11 -55 -7 -10
-10 22 -10 100 0 164 -37 476 -60 519 -10 19 -15 2 -34 -114 -24 -145 -28
-190 -35 -359 -7 -154 -13 -168 -26 -63 -5 38 -10 47 -26 47 -12 0 -19 -7 -19
-20 0 -11 -4 -20 -10 -20 -6 0 -10 54 -10 143 0 159 -13 354 -36 527 -24 183
-32 198 -26 51z m65 -890 c3 -15 -2 -20 -22 -24 -34 -7 -38 -1 -16 23 23 25
31 25 38 1z m342 -2 c9 -14 2 -20 -33 -24 -30 -4 -30 -3 -14 15 19 21 38 25
47 9z m-429 -46 c-11 -11 -19 6 -11 24 8 17 8 17 12 0 3 -10 2 -21 -1 -24z
m499 17 c0 -7 -6 -15 -12 -17 -8 -3 -13 4 -13 17 0 13 5 20 13 18 6 -3 12 -11
12 -18z m-365 -115 c-3 -5 -17 -10 -32 -9 -24 0 -28 -4 -28 -27 0 -47 49 -76
78 -47 9 9 12 6 12 -15 0 -16 8 -30 21 -37 11 -7 27 -27 35 -46 8 -19 16 -34
19 -34 3 0 11 15 19 34 8 19 24 39 35 46 12 6 21 19 21 30 0 16 5 18 28 14 32
-7 62 16 62 46 0 10 4 21 9 25 14 8 24 -34 12 -48 -5 -7 -13 -31 -17 -54 -9
-58 -18 -70 -39 -50 -38 39 -91 8 -115 -68 l-13 -40 -14 40 c-16 45 -49 85
-73 85 -8 0 -26 -7 -39 -16 -28 -20 -37 -10 -46 46 -4 19 -10 43 -16 52 -12
23 -12 45 2 69 8 16 19 19 47 17 21 -2 35 -7 32 -13z m274 6 c7 -10 -17 -21
-45 -21 -10 0 -19 7 -19 15 0 17 55 22 64 6z m111 -168 c-4 -21 -13 -49 -21
-63 l-15 -25 6 30 c3 17 8 45 11 63 4 17 11 32 16 32 6 0 7 -15 3 -37z m-541
-18 c5 -22 4 -26 -4 -15 -5 8 -10 24 -10 34 0 26 6 18 14 -19z m181 -58 c8
-13 18 -39 21 -58 l7 -34 -41 50 c-23 27 -42 53 -42 57 0 18 41 6 55 -15z
m215 15 c0 -4 -19 -30 -42 -57 l-41 -50 6 39 c3 21 14 47 23 57 17 19 54 26
54 11z m299 -204 c-6 -32 -15 -58 -19 -58 -5 0 -1 21 7 48 8 27 12 66 9 93 -3
26 -2 50 2 54 13 13 14 -79 1 -137z m-865 60 c3 -29 5 -66 5 -83 -1 -29 -2
-28 -14 10 -15 46 -19 125 -6 125 4 0 11 -24 15 -52z m186 6 c0 -37 -17 -28
-22 11 -3 27 -1 32 9 23 7 -6 13 -21 13 -34z m183 -4 c9 0 17 -7 17 -16 0 -19
-31 -11 -72 18 -39 27 -35 42 5 18 17 -11 40 -20 50 -20z m202 27 c-3 -7 -26
-25 -50 -39 l-45 -28 0 33 c0 24 3 28 10 17 8 -13 14 -12 47 6 21 12 39 22 40
23 1 1 0 -5 -2 -12z m322 -54 c-2 -16 -4 -5 -4 22 0 28 2 40 4 28 2 -13 2 -35
0 -50z m-197 38 c0 -11 -4 -23 -10 -26 -6 -4 -10 5 -10 19 0 14 5 26 10 26 6
0 10 -9 10 -19z m-378 -84 c28 -10 35 -16 27 -27 -16 -26 -10 -50 16 -60 31
-12 33 -45 5 -60 -16 -9 -24 -7 -37 5 -12 12 -25 15 -47 10 -49 -12 -79 -11
-83 2 -3 7 9 13 29 15 33 3 33 3 34 58 1 81 -3 77 56 57z m68 3 c0 -5 -5 -10
-11 -10 -5 0 -7 5 -4 10 3 6 8 10 11 10 2 0 4 -4 4 -10z m105 0 c3 -5 1 -10
-4 -10 -6 0 -11 5 -11 10 0 6 2 10 4 10 3 0 8 -4 11 -10z m109 2 c2 -4 0 -29
-6 -56 -11 -52 -1 -71 34 -62 21 5 34 -12 20 -26 -6 -6 -23 -5 -50 3 -35 10
-45 10 -66 -4 -27 -18 -51 -14 -60 10 -8 20 1 32 31 44 22 8 24 14 19 43 -6
31 -4 34 26 43 43 14 46 14 52 5z m141 -92 c-23 -45 -27 -33 -7 24 12 32 18
41 20 27 2 -11 -4 -34 -13 -51z m-613 5 c9 -20 9 -20 -6 -1 -9 11 -16 27 -15
35 0 14 1 14 6 1 3 -8 10 -24 15 -35z m-323 -86 c-41 -57 -51 -65 -133 -101
-49 -21 -91 -37 -93 -34 -5 5 260 206 266 200 2 -1 -16 -31 -40 -65z m70 -1
c1 -9 -59 -41 -65 -36 -2 2 8 22 23 43 24 35 27 37 34 19 4 -10 8 -22 8 -26z
m1096 -8 c3 -11 25 -33 48 -49 40 -28 96 -81 85 -81 -13 0 -208 112 -208 120
0 12 31 29 52 30 9 0 20 -9 23 -20z m-189 -157 c-1 -2 -11 3 -21 11 -22 16
-23 74 -2 110 10 18 12 12 19 -49 4 -38 6 -71 4 -72z m-385 55 c7 -42 24 -88
34 -88 10 0 27 46 34 88 3 27 12 47 21 50 12 4 13 2 3 -9 -7 -7 -13 -29 -13
-48 0 -38 -29 -104 -45 -104 -16 1 -45 66 -45 103 0 20 -6 42 -12 49 -11 11
-10 13 2 9 9 -3 18 -23 21 -50z m-616 7 c-22 -18 -42 -31 -45 -29 -7 8 58 64
73 64 6 -1 -6 -16 -28 -35z m336 -48 c-8 -8 -11 2 -10 34 l1 44 10 -34 c6 -23
6 -37 -1 -44z m721 -42 c33 -13 37 -19 57 -97 29 -115 78 -297 90 -335 5 -18
6 -33 1 -33 -5 0 -12 10 -16 23 -3 12 -35 80 -70 151 -61 122 -79 167 -109
264 -15 48 -10 51 47 27z m-707 -34 c5 -30 1 -52 -15 -87 -26 -60 -67 -114
-86 -114 -7 0 -14 -8 -14 -18 0 -18 -60 -119 -103 -172 l-19 -25 7 24 c4 13
36 85 72 160 59 123 64 132 59 89 -3 -29 -2 -48 4 -48 6 0 10 11 10 24 0 13 9
58 19 100 28 111 54 137 66 67z m567 -31 c-2 -29 1 -56 6 -59 16 -11 83 -127
103 -182 60 -155 42 -139 -70 65 -73 133 -81 152 -75 185 8 45 13 53 27 48 8
-3 11 -24 9 -57z m-666 -301 c-49 -126 -55 -129 -27 -17 16 64 57 145 68 134
2 -2 -17 -54 -41 -117z"/>
<path d="M971 2834 c0 -11 3 -14 6 -6 3 7 2 16 -1 19 -3 4 -6 -2 -5 -13z"/>
<path d="M1432 2800 c0 -14 2 -19 5 -12 2 6 2 18 0 25 -3 6 -5 1 -5 -13z"/>
<path d="M1531 2794 c0 -11 3 -14 6 -6 3 7 2 16 -1 19 -3 4 -6 -2 -5 -13z"/>
<path d="M1542 2715 c0 -16 2 -22 5 -12 2 9 2 23 0 30 -3 6 -5 -1 -5 -18z"/>
<path d="M1557 2605 c3 -44 7 -82 9 -84 7 -8 3 84 -6 124 -6 29 -7 19 -3 -40z"/>
<path d="M1413 2615 c0 -22 2 -30 4 -17 2 12 2 30 0 40 -3 9 -5 -1 -4 -23z"/>
<path d="M1403 2500 c0 -25 2 -35 4 -22 2 12 2 32 0 45 -2 12 -4 2 -4 -23z"/>
<path d="M1573 2455 c0 -27 2 -38 4 -22 2 15 2 37 0 50 -2 12 -4 0 -4 -28z"/>
<path d="M1394 2275 c0 -71 1 -99 3 -62 2 37 2 96 0 130 -2 34 -3 4 -3 -68z"/>
<path d="M1583 2285 c0 -33 2 -45 4 -27 2 18 2 45 0 60 -2 15 -4 0 -4 -33z"/>
<path d="M1593 2135 c0 -27 2 -38 4 -22 2 15 2 37 0 50 -2 12 -4 0 -4 -28z"/>
</g>
</svg>
