<?xml version="1.0" standalone="no"?>
<!DOCTYPE svg PUBLIC "-//W3C//DTD SVG 20010904//EN"
 "http://www.w3.org/TR/2001/REC-SVG-20010904/DTD/svg10.dtd">
<svg version="1.0" xmlns="http://www.w3.org/2000/svg"
 width="244.000000pt" height="305.000000pt" viewBox="0 0 244.000000 305.000000"
 preserveAspectRatio="xMidYMid meet">
<metadata>
Created by potrace 1.16, written by Peter Selinger 2001-2019
</metadata>
<g transform="translate(0.000000,305.000000) scale(0.100000,-0.100000)"
fill="#000000" stroke="none">
<path d="M886 2886 c-4 -15 -2 -33 3 -40 12 -14 12 -946 0 -946 -4 0 -26 12
-49 27 l-41 27 1 101 c2 165 19 379 46 564 13 95 23 175 21 177 -6 7 -37 -167
-52 -292 -16 -137 -24 -264 -27 -449 l-2 -129 44 -28 c68 -42 68 -42 100 -15
16 14 39 28 50 32 18 6 20 15 20 105 0 294 -50 742 -98 869 l-9 25 -7 -28z"/>
<path d="M1567 2893 c-4 -6 -3 -21 1 -34 11 -37 14 -959 3 -959 -5 0 -28 12
-50 27 l-41 27 0 78 c0 196 32 553 66 738 4 22 4 23 -5 4 -32 -71 -71 -466
-71 -714 l0 -140 25 -10 c14 -5 38 -21 52 -34 l27 -25 32 29 c18 15 42 31 53
35 19 6 21 14 21 108 0 56 -5 174 -10 261 -18 283 -80 647 -103 609z"/>
<path d="M1281 2635 l-3 -170 -22 70 -23 70 -18 -60 c-10 -33 -21 -78 -25
-100 -5 -25 -9 31 -11 145 l-3 185 -6 -255 c-11 -398 -22 -650 -31 -656 -4 -2
-12 19 -17 48 -5 29 -15 82 -22 118 -19 105 -29 102 -49 -14 -17 -94 -14 -134
9 -141 37 -12 60 -53 54 -97 -2 -23 -7 -45 -10 -49 -8 -13 -38 -11 -52 3 -20
20 -35 -4 -22 -38 20 -50 49 -57 82 -19 30 35 39 31 32 -15 -5 -31 -3 -41 10
-46 9 -3 16 -15 16 -25 0 -16 -4 -17 -25 -9 -19 7 -36 6 -60 -5 -45 -18 -44
-31 3 -42 35 -8 37 -11 40 -52 l3 -44 -28 18 c-68 43 -133 129 -133 176 0 18
-7 32 -20 39 -26 14 -19 45 17 78 20 18 35 23 67 20 43 -3 46 -1 46 32 0 60
-109 85 -149 34 -12 -15 -21 -33 -21 -40 0 -30 -21 -22 -40 15 -15 30 -29 42
-54 49 -67 19 -120 -11 -114 -64 3 -27 5 -29 46 -26 37 3 47 -1 77 -31 40 -40
44 -62 15 -77 -41 -22 -16 -120 55 -214 45 -60 47 -81 12 -103 -21 -13 -47
-56 -47 -78 0 -48 92 -94 120 -61 10 13 10 22 1 42 -14 31 -14 67 0 81 7 7 26
6 64 -6 30 -9 57 -19 59 -22 3 -3 1 -33 -5 -66 l-11 -60 -37 0 c-20 0 -54 -8
-75 -18 -46 -22 -72 -13 -112 41 -22 29 -29 49 -30 88 -2 51 -17 153 -25 160
-2 2 -14 7 -27 10 -28 9 -82 -41 -82 -77 0 -28 36 -100 105 -211 43 -68 50
-87 50 -130 0 -47 -9 -66 -101 -221 -56 -93 -121 -204 -144 -245 -24 -41 -45
-70 -47 -65 -1 6 28 104 65 220 l68 209 46 14 c53 15 68 42 68 121 0 50 -18
87 -81 162 -76 91 -87 155 -39 224 l31 44 -21 21 c-27 27 -109 28 -133 2 -22
-25 -21 -55 4 -130 24 -70 20 -115 -11 -155 -21 -27 -400 -248 -400 -234 0 3
65 65 145 137 l146 133 45 -7 46 -6 -7 98 c-10 133 -27 156 -22 29 l4 -97 -31
5 c-27 5 -39 -1 -86 -41 -89 -76 -330 -296 -330 -301 0 -8 44 4 273 78 201 66
217 72 217 94 0 32 10 36 52 25 69 -20 130 -75 143 -132 6 -24 4 -28 -32 -37
-32 -9 -42 -17 -50 -43 -118 -368 -172 -543 -169 -545 3 -3 104 106 334 361
78 85 79 87 56 164 -6 22 -5 22 87 22 80 0 97 -3 126 -23 40 -27 45 -73 12
-103 -17 -15 -20 -26 -15 -54 4 -19 11 -62 17 -95 5 -33 19 -98 30 -145 11
-47 34 -150 50 -229 16 -80 30 -146 32 -147 2 -2 16 59 31 134 38 184 64 284
65 250 1 -16 6 -28 11 -28 13 0 13 63 0 76 -7 7 -3 44 11 112 l20 103 -30 35
c-17 19 -31 37 -31 39 0 11 37 48 62 61 31 16 193 20 203 4 3 -5 -1 -26 -10
-46 -14 -35 -14 -39 3 -58 18 -20 146 -163 306 -339 44 -48 81 -85 84 -83 2 3
-9 47 -26 98 -17 51 -53 167 -81 258 -66 212 -64 206 -105 220 -43 14 -47 40
-13 91 23 34 119 91 147 86 8 -1 17 -13 20 -27 5 -23 27 -32 240 -102 129 -43
239 -77 244 -75 10 3 -19 31 -229 221 -128 116 -143 127 -174 124 l-34 -3 1
90 0 90 -12 -70 c-7 -38 -18 -87 -25 -108 -9 -26 -10 -42 -3 -49 11 -11 72
-49 187 -118 123 -74 196 -123 191 -127 -5 -5 -96 26 -271 90 -63 24 -89 38
-86 48 13 49 12 55 -13 69 -46 24 -53 109 -17 203 17 43 13 92 -7 110 -25 23
-94 22 -123 -2 l-23 -19 27 -39 c29 -42 36 -99 16 -150 -5 -15 -35 -60 -65
-99 -57 -75 -84 -142 -84 -208 0 -38 24 -85 257 -498 17 -31 -27 15 -157 165
-140 159 -151 174 -144 202 3 17 8 66 9 110 2 88 11 111 95 245 55 88 70 127
63 164 -9 46 -76 75 -100 44 -13 -16 -26 -88 -28 -154 -1 -38 -8 -60 -28 -86
-39 -50 -70 -65 -104 -48 -16 7 -49 16 -75 20 l-48 6 -1 -30 -1 -31 -13 35
c-17 43 -19 97 -4 106 6 3 9 14 6 25 -5 18 9 26 85 49 43 13 55 -9 39 -72 -14
-52 -8 -67 27 -68 22 0 71 29 82 50 13 25 -7 75 -44 109 -14 14 -26 28 -26 33
0 4 16 29 36 55 21 27 45 66 55 88 23 49 25 118 4 135 -24 20 -18 40 21 77 32
30 43 34 78 31 35 -3 41 0 44 18 4 27 -31 70 -63 78 -42 11 -89 -17 -113 -64
l-21 -43 -17 43 c-23 56 -67 77 -118 56 -21 -9 -37 -24 -43 -42 -15 -45 -7
-54 42 -47 38 5 47 2 69 -20 29 -29 33 -58 12 -76 -7 -6 -16 -29 -20 -50 -6
-41 -68 -127 -112 -156 -30 -19 -31 -19 -34 15 -4 43 -1 50 23 50 12 0 28 4
36 9 13 8 13 12 1 26 -11 13 -25 16 -62 13 -40 -4 -48 -2 -48 11 0 10 5 22 11
28 6 6 11 30 11 54 l-1 42 29 -31 c16 -18 35 -32 43 -32 22 0 47 34 47 64 0
23 -3 27 -17 21 -41 -18 -57 -11 -66 28 -13 53 -2 82 39 106 l36 21 -7 59 c-4
33 -12 83 -19 113 -12 50 -14 52 -23 28 -6 -14 -19 -74 -28 -133 -10 -59 -21
-107 -25 -107 -6 0 -18 245 -21 455 -1 44 -4 69 -8 55 -3 -14 -8 81 -11 210
l-6 235 -3 -170z m-49 -232 c2 -44 0 -76 -4 -70 -4 7 -8 -73 -8 -178 0 -107
-4 -184 -9 -177 -12 20 -22 -54 -10 -84 12 -33 12 -47 -1 -39 -5 3 -10 -3 -10
-14 0 -12 -4 -21 -10 -21 -5 0 -10 4 -10 9 0 5 -3 24 -6 42 -6 30 -5 32 7 16
12 -15 14 12 13 185 -1 131 1 176 6 128 6 -70 7 -66 8 52 1 70 8 162 14 205
13 83 16 77 20 -54z m-21 -661 c-14 -5 -14 -82 -1 -82 6 0 10 -14 10 -31 0
-27 -2 -29 -15 -15 -17 17 -21 141 -5 151 6 3 11 21 12 38 1 23 3 20 5 -13 3
-26 0 -46 -6 -48z m26 -14 c-3 -8 -6 -5 -6 6 -1 11 2 17 5 13 3 -3 4 -12 1
-19z m-70 -55 c-2 -16 -4 -5 -4 22 0 28 2 40 4 28 2 -13 2 -35 0 -50z m-239
-105 c37 -65 92 -122 155 -160 64 -40 64 -64 0 -36 -92 40 -193 155 -193 220
0 15 2 28 4 28 2 0 18 -24 34 -52z m652 32 c0 -34 -48 -118 -91 -161 -38 -38
-108 -78 -136 -79 -28 0 -11 28 27 45 50 23 154 131 171 179 14 40 29 47 29
16z m-371 -38 c0 -14 -2 -13 -9 3 -8 19 -9 19 -9 1 -1 -11 -4 -17 -7 -13 -4 3
-4 13 0 22 7 20 26 10 25 -13z m80 0 c0 -14 -2 -13 -9 3 -7 17 -9 16 -9 -10
-1 -16 -6 -37 -12 -45 -7 -11 -8 -4 -3 25 4 22 9 43 11 48 7 12 23 -3 22 -21z
m-72 -54 c-3 -8 -6 -5 -6 6 -1 11 2 17 5 13 3 -3 4 -12 1 -19z m20 -25 c-3
-10 -5 -2 -5 17 0 19 2 27 5 18 2 -10 2 -26 0 -35z m-80 -35 c-3 -7 -5 -2 -5
12 0 14 2 19 5 13 2 -7 2 -19 0 -25z m160 10 c-3 -8 -6 -5 -6 6 -1 11 2 17 5
13 3 -3 4 -12 1 -19z m-140 -135 c-2 -16 -4 -5 -4 22 0 28 2 40 4 28 2 -13 2
-35 0 -50z m150 35 c-3 -8 -6 -5 -6 6 -1 11 2 17 5 13 3 -3 4 -12 1 -19z m-30
-40 c-3 -8 -6 -5 -6 6 -1 11 2 17 5 13 3 -3 4 -12 1 -19z m-179 -153 c-5 -28
-10 -56 -11 -62 0 -7 -4 -13 -9 -13 -8 0 -6 15 14 94 13 54 18 41 6 -19z m232
-90 c0 -9 -6 -12 -15 -9 -8 4 -12 10 -9 15 8 14 24 10 24 -6z m-173 -82 c-3
-10 -5 -4 -5 12 0 17 2 24 5 18 2 -7 2 -21 0 -30z m60 -75 c-3 -8 -6 -5 -6 6
-1 11 2 17 5 13 3 -3 4 -12 1 -19z m-19 -205 c0 -98 3 -234 6 -303 4 -97 3
-115 -5 -80 -5 25 -21 96 -35 159 -19 81 -27 146 -28 225 -1 110 -1 111 29
143 17 18 30 32 30 33 1 0 2 -80 3 -177z m-79 55 c0 -31 -1 -31 -10 -10 -5 13
-7 28 -3 33 10 16 14 9 13 -23z"/>
<path d="M1172 800 c0 -14 2 -19 5 -12 2 6 2 18 0 25 -3 6 -5 1 -5 -13z"/>
<path d="M1162 730 c0 -14 2 -19 5 -12 2 6 2 18 0 25 -3 6 -5 1 -5 -13z"/>
<path d="M1371 1214 c0 -11 3 -14 6 -6 3 7 2 16 -1 19 -3 4 -6 -2 -5 -13z"/>
<path d="M1127 533 c-4 -3 -6 -27 -6 -52 l1 -46 9 50 c8 51 7 60 -4 48z"/>
<path d="M1341 454 c0 -11 3 -14 6 -6 3 7 2 16 -1 19 -3 4 -6 -2 -5 -13z"/>
</g>
</svg>
