<?xml version="1.0" standalone="no"?>
<!DOCTYPE svg PUBLIC "-//W3C//DTD SVG 20010904//EN"
 "http://www.w3.org/TR/2001/REC-SVG-20010904/DTD/svg10.dtd">
<svg version="1.0" xmlns="http://www.w3.org/2000/svg"
 width="244.000000pt" height="305.000000pt" viewBox="0 0 244.000000 305.000000"
 preserveAspectRatio="xMidYMid meet">
<metadata>
Created by potrace 1.16, written by Peter Selinger 2001-2019
</metadata>
<g transform="translate(0.000000,305.000000) scale(0.100000,-0.100000)"
fill="#000000" stroke="none">
<path d="M1527 2896 c-10 -25 -9 -48 2 -41 11 6 16 -937 5 -948 -4 -3 -24 6
-45 21 l-39 27 0 75 c0 86 17 398 26 480 5 50 25 203 38 290 3 19 -1 10 -9
-20 -43 -166 -88 -860 -55 -860 5 0 25 -13 43 -30 40 -35 44 -36 66 -12 9 10
29 26 45 36 l28 18 -7 176 c-11 298 -24 457 -50 605 -31 178 -39 208 -48 183z"/>
<path d="M930 2890 c0 -8 -3 -26 -6 -40 -4 -20 -3 -22 5 -10 8 11 11 -120 11
-462 0 -263 -2 -478 -5 -478 -3 0 -21 10 -41 23 l-36 22 6 240 c4 145 14 301
26 395 21 161 24 218 9 140 -23 -117 -40 -307 -48 -540 -5 -140 -7 -258 -4
-262 2 -5 10 -8 17 -8 7 0 25 -13 40 -29 l28 -29 50 37 50 36 -6 215 c-3 118
-11 267 -16 330 -12 135 -58 411 -71 425 -6 5 -9 3 -9 -5z"/>
<path d="M1088 2518 c3 -333 -10 -590 -29 -571 -5 5 -10 62 -12 128 l-3 120
-2 -137 c-1 -76 2 -138 6 -138 4 0 13 -13 19 -30 6 -16 18 -30 27 -30 18 0 19
-2 10 -24 -5 -13 -9 -12 -26 9 -11 15 -30 25 -44 25 -31 0 -84 -50 -84 -79 0
-29 -17 -35 -24 -8 -12 48 -45 77 -86 77 -44 0 -70 -26 -70 -72 0 -25 2 -26
35 -21 29 5 39 1 65 -25 33 -33 39 -72 14 -92 -19 -16 -12 -73 17 -139 24 -56
28 -211 5 -211 -13 0 -28 50 -38 125 -5 31 -61 33 -82 3 -25 -36 -19 -85 20
-161 19 -37 34 -73 31 -80 -7 -22 -86 105 -98 158 -11 51 -10 56 15 98 14 25
26 50 26 56 0 40 -93 57 -125 21 -19 -21 -18 -51 6 -153 20 -87 2 -129 -76
-182 -117 -79 -276 -178 -280 -173 -2 2 55 63 126 135 128 128 131 131 160
121 17 -6 32 -8 36 -5 10 10 -9 217 -20 210 -6 -4 -7 -38 -3 -94 l7 -89 -28 6
c-25 5 -43 -10 -197 -165 -93 -94 -167 -173 -165 -176 3 -2 100 31 217 73 205
75 212 78 212 105 0 15 6 27 13 27 22 -1 92 -37 110 -58 17 -19 17 -22 2 -51
-8 -17 -11 -31 -6 -31 5 0 13 9 16 20 6 20 25 28 25 10 0 -13 -41 -50 -50 -45
-11 7 -33 -52 -25 -65 4 -6 -14 -81 -38 -168 -66 -229 -100 -362 -96 -366 2
-3 38 39 79 91 41 53 80 101 85 107 6 6 28 34 50 61 21 28 42 52 45 55 3 3 17
21 32 42 15 20 35 43 43 52 19 19 21 39 7 84 -10 30 -9 34 11 41 12 5 26 5 31
1 5 -5 1 -61 -9 -129 -9 -66 -15 -126 -13 -133 3 -7 12 46 22 116 9 71 19 133
22 138 9 13 57 10 52 -4 -3 -7 -29 -108 -59 -225 -30 -121 -57 -207 -61 -200
-5 7 -8 3 -8 -13 0 -14 -3 -43 -6 -65 -4 -31 3 -20 32 50 124 306 134 336 134
396 0 67 9 73 52 32 34 -33 34 -36 3 -77 -14 -18 -25 -41 -25 -52 0 -22 105
-606 114 -629 1 -5 6 10 10 35 5 25 24 131 43 235 19 105 41 224 49 265 19
103 18 117 -11 142 -32 28 -32 48 3 81 41 39 53 35 46 -16 -5 -35 5 -68 60
-211 36 -93 66 -171 66 -173 0 -2 4 -1 10 2 5 3 7 0 5 -8 -3 -7 1 -29 10 -48
l16 -34 -6 50 c-13 114 -55 422 -61 448 -6 27 -4 28 28 25 19 -2 32 -8 31 -15
-16 -83 -15 -87 24 -138 21 -27 43 -55 49 -62 6 -6 69 -84 139 -172 70 -89
130 -159 132 -157 3 3 -2 26 -11 53 -15 48 -76 267 -116 418 -11 44 -32 106
-46 139 -33 74 -25 94 51 131 58 29 67 28 72 -7 2 -12 5 -23 7 -25 9 -9 430
-163 434 -159 2 3 -74 84 -169 181 -158 160 -177 176 -201 171 l-28 -6 -1 93
-2 92 -13 -75 c-7 -41 -16 -93 -20 -115 l-6 -41 171 -118 c95 -66 174 -123
177 -128 6 -10 -93 26 -229 84 l-98 42 6 37 c6 32 3 38 -14 44 -13 4 -25 21
-32 46 -11 34 -9 54 11 139 22 93 22 100 6 124 -21 32 -81 36 -117 7 l-23 -19
27 -50 c43 -78 33 -136 -38 -228 -40 -51 -45 -55 -45 -32 0 15 4 28 9 30 5 2
20 26 35 55 46 93 30 173 -36 173 -30 0 -34 -11 -44 -120 -5 -48 -10 -67 -14
-54 -4 11 -15 26 -24 33 -27 22 -21 127 10 195 34 75 41 127 20 148 -23 24
-20 52 10 87 22 26 33 31 70 31 48 0 51 5 30 54 -28 67 -105 56 -145 -22 l-19
-37 -17 41 c-24 62 -73 80 -118 44 -30 -24 -37 -25 -37 -5 0 8 7 15 15 15 8 0
21 13 30 30 12 24 15 73 15 267 0 230 -25 681 -38 695 -4 4 -6 -160 -4 -364 2
-317 0 -376 -13 -404 -8 -17 -16 -49 -17 -71 -1 -21 -4 -4 -8 37 -6 68 -7 62
-8 -54 -1 -71 -4 -127 -6 -125 -2 2 -9 81 -15 174 -16 235 -20 281 -32 350
-16 100 -41 206 -46 201 -24 -24 -83 -510 -83 -682 0 -26 -3 -44 -7 -40 -4 4
-10 165 -14 359 -6 325 -25 627 -38 627 -3 0 -5 -154 -3 -342z m142 -479 c0
-359 -2 -420 -14 -410 -8 6 -18 11 -22 10 -22 -4 -23 4 -8 41 13 32 15 60 10
128 -17 236 -18 360 -5 472 12 101 15 109 20 70 5 -38 6 -32 7 33 1 42 4 77 7
77 3 0 5 -190 5 -421z m-53 -281 c-2 -18 -4 -6 -4 27 0 33 2 48 4 33 2 -15 2
-42 0 -60z m-126 -20 c1 -13 4 -67 8 -121 3 -53 3 -97 -2 -97 -13 0 -47 64
-53 102 -4 21 -13 43 -20 49 -19 15 -18 35 4 64 23 32 62 33 63 3z m428 -4
c25 -31 27 -52 6 -60 -8 -4 -15 -18 -15 -33 0 -31 -31 -101 -52 -118 -12 -11
-14 -2 -11 70 3 67 9 152 12 165 1 1 10 2 20 2 11 0 29 -12 40 -26z m-327 -66
c0 -13 2 -29 2 -37 1 -8 11 -17 22 -21 11 -5 29 -25 39 -46 l18 -38 18 37 c11
20 28 41 39 47 11 6 22 26 26 45 5 29 9 33 20 24 17 -14 18 -73 2 -87 -7 -6
-26 -12 -43 -14 -27 -3 -31 -8 -44 -57 l-14 -53 -17 53 c-15 51 -18 54 -50 57
-39 4 -50 15 -50 54 0 51 28 84 32 36z m-198 -72 c3 -13 9 -31 12 -40 4 -11 1
-16 -10 -16 -9 0 -16 4 -16 9 0 5 -3 23 -6 40 -8 37 11 43 20 7z m423 -8 c-3
-7 -5 -2 -5 12 0 14 2 19 5 13 2 -7 2 -19 0 -25z m160 -5 c-7 -38 -22 -61 -33
-50 -10 9 17 87 29 87 6 0 7 -16 4 -37z m-437 12 c0 -8 -4 -15 -10 -15 -5 0
-10 7 -10 15 0 8 5 15 10 15 6 0 10 -7 10 -15z m254 -120 c-24 -51 -30 -34 -8
22 11 29 20 41 22 31 2 -10 -4 -33 -14 -53z m-229 18 c20 -47 13 -68 -8 -26
-16 31 -22 63 -12 63 3 0 12 -17 20 -37z m-95 -34 c0 -24 -23 -21 -28 4 -2 10
3 17 12 17 10 0 16 -9 16 -21z m430 1 c0 -21 -15 -27 -25 -10 -7 12 2 30 16
30 5 0 9 -9 9 -20z m-511 -87 c1 -18 -3 -33 -9 -33 -6 0 -10 25 -9 58 1 43 3
51 9 32 4 -14 8 -40 9 -57z m140 41 c11 -15 18 -30 15 -35 -7 -12 -40 6 -48
27 -16 41 3 46 33 8z m313 -26 c-5 -5 -18 -8 -27 -6 -15 3 -14 6 7 33 23 30
23 30 26 6 2 -13 -1 -28 -6 -33z m119 -41 c-13 -13 -15 24 -3 63 6 22 7 21 10
-14 2 -21 -1 -43 -7 -49z m-220 30 c-8 -8 -11 -7 -11 4 0 9 3 19 7 23 4 4 9 2
11 -4 3 -7 -1 -17 -7 -23z m-121 2 c0 -11 -4 -17 -10 -14 -5 3 -10 13 -10 21
0 8 5 14 10 14 6 0 10 -9 10 -21z m-102 -102 c-1 -47 17 -90 35 -84 7 2 12 16
12 30 -1 15 3 27 7 27 4 0 8 -6 8 -14 0 -8 10 -16 23 -18 16 -2 22 -10 22 -27
0 -20 -5 -24 -29 -26 -16 0 -31 -6 -34 -13 -2 -7 -14 1 -29 18 -18 22 -26 46
-30 90 -4 39 -2 60 5 60 5 0 10 -19 10 -43z m327 -33 c-3 -24 -16 -55 -28 -68
-20 -21 -25 -22 -41 -10 -13 9 -23 10 -31 4 -15 -12 -25 -3 -25 22 0 10 10 23
23 27 17 7 25 5 36 -10 13 -18 15 -19 32 -3 14 12 19 31 19 68 1 41 3 47 11
33 7 -11 8 -37 4 -63z m-376 -9 c0 -30 -15 1 -23 45 l-6 35 15 -30 c8 -16 14
-39 14 -50z m141 68 c0 -5 -12 -16 -25 -26 -24 -17 -25 -17 -25 2 0 17 12 25
43 30 4 0 7 -2 7 -6z m166 -7 c15 -12 17 -17 7 -27 -11 -11 -13 -10 -13 4 0
10 -8 17 -21 17 -11 0 -17 5 -14 10 8 14 18 13 41 -4z m114 -51 c-7 -31 -18
-59 -23 -62 -5 -3 -7 3 -4 13 4 11 11 41 18 67 6 26 14 45 17 42 3 -2 -1 -30
-8 -60z m-531 -11 c14 -32 3 -54 -16 -29 -14 21 -18 55 -5 55 5 0 14 -12 21
-26z m118 -46 c-3 -8 -6 -5 -6 6 -1 11 2 17 5 13 3 -3 4 -12 1 -19z m509 -5
c-10 -10 -19 5 -10 18 6 11 8 11 12 0 2 -7 1 -15 -2 -18z m-676 -44 c0 -10 -4
-19 -10 -19 -5 0 -10 12 -10 26 0 14 4 23 10 19 6 -3 10 -15 10 -26z m732 -44
c-3 -17 -8 -23 -14 -17 -11 11 -1 55 11 47 5 -2 6 -16 3 -30z m-702 -96 c-8
-26 -237 -477 -251 -493 -4 -5 -2 13 5 40 40 147 79 285 93 333 13 48 19 55
58 72 27 12 46 28 50 42 4 12 14 33 23 47 14 23 16 23 22 5 4 -11 4 -32 0 -46z
m690 16 c0 -36 20 -85 119 -282 65 -131 117 -240 115 -242 -2 -2 -5 -2 -7 0
-2 2 -55 72 -119 154 -158 207 -147 181 -141 308 4 81 9 107 19 107 10 0 14
-14 14 -45z m88 -10 c-3 -3 -9 2 -12 12 -6 14 -5 15 5 6 7 -7 10 -15 7 -18z
m-432 -54 c13 11 14 9 3 -14 -11 -25 -29 -37 -29 -19 0 4 -3 18 -6 32 -5 22
-4 23 6 7 9 -15 14 -16 26 -6z m218 -220 c26 -106 45 -195 43 -197 -7 -8 -110
285 -115 328 -5 51 3 87 17 72 5 -5 29 -96 55 -203z m-235 -113 c-2 -261 -2
-262 -14 -158 -11 92 -12 98 -15 50 l-2 -55 -13 65 c-7 36 -21 110 -31 166
l-18 100 29 37 c31 38 44 43 26 9 -12 -23 -13 -118 -1 -207 6 -42 7 -26 3 55
-4 94 -2 123 12 158 9 23 19 42 21 42 2 0 3 -118 3 -262z m-22 -190 c-3 -8 -6
-5 -6 6 -1 11 2 17 5 13 3 -3 4 -12 1 -19z"/>
<path d="M1204 2130 c0 -74 1 -105 3 -67 2 37 2 97 0 135 -2 37 -3 6 -3 -68z"/>
<path d="M1202 1945 c0 -16 2 -22 5 -12 2 9 2 23 0 30 -3 6 -5 -1 -5 -18z"/>
<path d="M911 2794 c0 -11 3 -14 6 -6 3 7 2 16 -1 19 -3 4 -6 -2 -5 -13z"/>
<path d="M1363 2745 c0 -22 2 -30 4 -17 2 12 2 30 0 40 -3 9 -5 -1 -4 -23z"/>
<path d="M1071 2754 c0 -11 3 -14 6 -6 3 7 2 16 -1 19 -3 4 -6 -2 -5 -13z"/>
<path d="M1063 2635 c0 -22 2 -30 4 -17 2 12 2 30 0 40 -3 9 -5 -1 -4 -23z"/>
<path d="M1353 2615 c0 -27 2 -38 4 -22 2 15 2 37 0 50 -2 12 -4 0 -4 -28z"/>
<path d="M1053 2465 c0 -38 2 -53 4 -32 2 20 2 52 0 70 -2 17 -4 1 -4 -38z"/>
<path d="M1343 2420 c0 -47 2 -66 4 -42 2 23 2 61 0 85 -2 23 -4 4 -4 -43z"/>
<path d="M952 630 c0 -19 2 -27 5 -17 2 9 2 25 0 35 -3 9 -5 1 -5 -18z"/>
<path d="M943 555 c0 -22 2 -30 4 -17 2 12 2 30 0 40 -3 9 -5 -1 -4 -23z"/>
</g>
</svg>
