<?xml version="1.0" standalone="no"?>
<!DOCTYPE svg PUBLIC "-//W3C//DTD SVG 20010904//EN"
 "http://www.w3.org/TR/2001/REC-SVG-20010904/DTD/svg10.dtd">
<svg version="1.0" xmlns="http://www.w3.org/2000/svg"
 width="244.000000pt" height="305.000000pt" viewBox="0 0 244.000000 305.000000"
 preserveAspectRatio="xMidYMid meet">
<metadata>
Created by potrace 1.16, written by Peter Selinger 2001-2019
</metadata>
<g transform="translate(0.000000,305.000000) scale(0.100000,-0.100000)"
fill="#000000" stroke="none">
<path d="M886 2869 c-8 -42 -6 -60 4 -29 4 14 8 -192 9 -457 1 -266 -1 -483
-4 -483 -3 0 -24 12 -47 27 l-41 28 6 220 c6 191 16 294 53 560 14 98 -5 37
-25 -80 -25 -152 -39 -310 -47 -546 l-7 -185 31 -13 c17 -7 38 -21 48 -32 24
-26 41 -24 81 11 18 17 38 30 43 30 13 0 13 276 0 450 -14 185 -73 530 -90
530 -4 0 -10 -14 -14 -31z"/>
<path d="M1560 2888 c0 -7 -3 -24 -5 -38 -5 -22 -4 -22 4 -5 6 13 10 -152 10
-468 l1 -488 -45 32 -45 32 0 141 c1 193 14 362 45 548 26 160 28 185 20 177
-6 -7 -34 -164 -50 -284 -12 -94 -20 -227 -30 -493 l-4 -112 27 -17 c15 -9 39
-28 55 -42 l27 -25 28 26 c15 14 37 31 50 37 21 11 22 16 22 174 -1 261 -22
481 -71 715 -12 56 -26 102 -30 102 -5 0 -9 -6 -9 -12z"/>
<path d="M1309 2789 c-3 -218 -15 -413 -22 -384 -4 17 -17 67 -29 113 -12 48
-24 78 -28 70 -4 -7 -15 -47 -24 -88 -10 -41 -21 -83 -27 -92 -5 -10 -9 -46
-10 -80 0 -35 -4 -83 -8 -108 -6 -28 -10 67 -11 260 -3 268 -4 288 -11 165 -3
-77 -8 -275 -9 -440 -1 -196 -5 -284 -11 -255 -21 115 -31 151 -42 147 -7 -2
-18 -47 -25 -103 -13 -99 -13 -99 10 -116 13 -10 29 -23 36 -29 9 -7 12 -30
10 -67 -3 -60 -13 -68 -60 -47 -14 6 -18 2 -18 -17 0 -29 26 -68 46 -68 8 0
26 12 39 26 l25 27 0 -62 c0 -60 -1 -61 -27 -61 -16 0 -37 -8 -48 -16 -18 -14
-18 -16 -3 -25 15 -8 15 -49 -1 -49 -20 0 -91 114 -91 146 0 12 -7 27 -15 34
-23 19 -18 46 13 75 22 21 35 25 72 23 43 -3 45 -2 42 22 -5 49 -29 70 -77 70
-50 0 -80 -22 -91 -65 -8 -34 -17 -32 -37 10 -33 70 -116 82 -160 23 -28 -38
-16 -58 34 -58 33 0 47 -6 75 -34 37 -37 42 -57 19 -76 -37 -30 -5 -142 65
-230 17 -21 30 -42 30 -47 0 -5 -13 -22 -30 -38 -35 -34 -50 -72 -39 -102 10
-26 62 -55 92 -51 23 3 26 23 13 83 -5 19 -2 36 6 48 11 15 18 16 46 6 32 -11
40 -23 23 -34 -5 -3 -15 -31 -22 -61 -10 -46 -19 -60 -43 -75 -41 -25 -49 -24
-91 12 -48 43 -57 62 -60 133 -3 68 -13 128 -23 137 -20 19 -51 18 -75 -2 -22
-16 -27 -29 -27 -63 0 -35 13 -65 75 -169 105 -177 107 -163 -43 -420 -65
-111 -131 -226 -147 -256 -16 -29 -31 -49 -32 -44 -2 4 30 107 69 227 l73 220
40 13 c48 16 61 32 70 83 10 58 -10 112 -70 188 -63 81 -75 107 -75 166 0 30
6 48 20 61 52 47 27 95 -51 95 -81 0 -97 -41 -60 -149 21 -59 18 -110 -7 -149
-14 -21 -108 -80 -321 -200 -41 -23 -76 -41 -77 -39 -4 4 76 81 199 191 l87
79 46 -7 45 -6 -7 88 c-4 48 -10 98 -14 112 l-7 25 -7 -25 c-4 -14 -3 -57 2
-97 l8 -71 -37 1 c-34 2 -48 -9 -223 -167 -102 -93 -186 -173 -186 -177 0 -4
17 -2 38 5 20 7 130 43 244 80 197 65 207 69 210 94 2 22 8 27 28 24 43 -4
114 -47 138 -82 32 -48 26 -80 -18 -94 l-34 -11 -88 -280 c-48 -154 -88 -284
-88 -290 0 -10 18 8 161 165 193 212 250 282 244 299 -4 9 -9 31 -12 48 l-6
33 90 0 c62 0 94 -4 101 -13 8 -9 7 -62 -3 -187 -17 -209 -18 -233 -5 -225 5
3 7 20 4 38 -5 26 -3 29 6 17 9 -12 10 -9 5 14 -7 35 4 138 15 131 4 -2 4 -24
-1 -47 -12 -62 -9 -79 5 -33 l12 40 7 -48 c4 -26 24 -129 46 -230 21 -100 42
-200 46 -222 l8 -40 8 35 c9 36 86 408 99 470 6 32 8 26 29 -65 38 -166 39
-168 40 -107 1 30 -3 52 -10 52 -6 0 -9 24 -6 68 3 39 2 50 -2 27 -7 -42 -8
-37 -27 145 -2 19 -8 55 -14 80 -5 25 -9 51 -10 57 0 26 57 43 145 43 93 0 94
-1 74 -58 -6 -17 -7 -37 -2 -45 16 -29 388 -436 391 -429 5 15 -168 556 -180
564 -7 4 -20 8 -29 8 -35 0 -42 27 -20 72 22 46 62 77 125 98 41 13 56 5 56
-32 0 -12 54 -34 236 -93 129 -42 238 -75 240 -72 2 2 -39 44 -93 93 -53 49
-138 126 -188 172 -83 77 -93 83 -123 78 l-34 -5 7 83 c5 57 4 86 -4 90 -7 5
-11 -4 -11 -26 0 -18 -7 -60 -15 -93 -26 -107 -49 -81 249 -266 65 -40 114
-75 109 -76 -9 -3 -114 32 -290 98 -63 23 -74 37 -54 68 7 10 -1 23 -25 46
-30 28 -34 38 -34 82 0 27 9 76 20 108 11 32 20 66 20 77 0 47 -70 73 -134 48
-32 -12 -33 -38 -5 -73 46 -60 31 -140 -47 -235 -60 -73 -86 -133 -88 -202 -1
-53 4 -64 127 -284 70 -125 126 -230 124 -232 -2 -2 -55 56 -118 128 -63 73
-122 142 -132 153 -33 36 -57 72 -50 78 3 4 9 55 13 114 l7 108 60 100 c106
176 112 197 68 240 -47 48 -95 25 -95 -45 0 -17 -4 -40 -10 -50 -6 -11 -6 -28
-1 -42 6 -16 3 -33 -10 -59 -18 -37 -72 -89 -91 -89 -18 0 -67 34 -71 49 -4
13 -5 12 -6 -2 -2 -33 -40 -1 -46 41 -3 20 -8 46 -10 58 -4 17 3 24 37 38 48
18 62 11 59 -31 -7 -86 -6 -98 11 -101 28 -6 88 28 94 53 8 32 0 54 -36 95
-16 19 -30 40 -30 46 0 6 17 33 39 60 60 76 92 196 56 210 -25 10 -17 50 18
84 29 28 36 31 75 26 41 -5 42 -5 42 23 0 43 -31 75 -72 75 -46 0 -81 -24
-103 -71 l-18 -38 -11 32 c-31 91 -136 107 -167 26 -15 -40 -2 -54 43 -47 34
6 43 3 69 -22 32 -30 37 -55 15 -73 -8 -7 -17 -27 -20 -45 -7 -38 -59 -121
-81 -130 -11 -4 -15 2 -15 18 0 14 6 26 13 29 22 7 -13 37 -44 37 -25 0 -29 4
-29 29 0 16 -3 44 -6 62 l-7 34 26 -27 c14 -16 31 -28 37 -28 17 0 50 39 50
58 0 27 -9 32 -36 20 -13 -6 -27 -8 -31 -5 -3 4 -7 34 -8 67 -2 57 0 61 30 79
28 16 31 22 28 57 -6 73 -25 174 -33 179 -8 5 -30 -77 -30 -110 0 -8 -9 -29
-20 -47 l-20 -33 1 478 c0 263 -2 481 -5 484 -3 4 -7 -36 -7 -88z m-86 -511
c-4 -269 -12 -352 -24 -238 -4 41 -5 17 -3 -65 1 -71 6 -147 10 -167 8 -46 -2
-92 -18 -82 -8 5 -9 0 -5 -17 4 -13 7 -32 7 -42 0 -10 5 -15 10 -12 6 3 10 -3
10 -13 0 -35 -37 -15 -42 21 -5 48 6 102 20 99 13 -2 16 37 6 76 -5 15 -12 21
-22 17 -11 -4 -13 0 -7 17 4 13 11 120 15 238 4 130 14 256 25 318 10 56 19
102 20 102 1 0 0 -114 -2 -252z m114 -400 c-3 -7 -5 -2 -5 12 0 14 2 19 5 13
2 -7 2 -19 0 -25z m-197 2 c0 -11 -2 -20 -4 -20 -2 0 -6 9 -9 20 -3 11 -1 20
4 20 5 0 9 -9 9 -20z m-207 -315 c16 -30 51 -75 78 -100 42 -39 63 -75 43 -75
-43 0 -164 152 -164 208 0 35 13 26 43 -33z m647 47 c0 -5 -7 -30 -16 -56 -26
-76 -164 -212 -164 -161 0 8 25 37 55 66 30 28 67 76 81 105 23 48 44 69 44
46z m-423 -24 c-3 -8 -6 -5 -6 6 -1 11 2 17 5 13 3 -3 4 -12 1 -19z m37 -23
c-7 -18 -8 -18 -15 1 -4 10 -8 26 -8 34 -1 12 1 12 14 -1 10 -10 13 -22 9 -34z
m105 33 c0 -7 -4 -22 -8 -33 -8 -19 -8 -19 -15 2 -8 24 -1 43 15 43 5 0 9 -6
8 -12z m-148 -140 c12 -61 11 -108 -2 -108 -7 0 -9 12 -5 35 5 27 2 39 -14 55
-13 13 -20 33 -20 57 0 34 1 36 16 21 9 -9 20 -36 25 -60z m212 35 c5 -24 3
-33 -7 -33 -13 0 -36 -41 -36 -65 0 -8 4 -15 10 -15 5 0 7 -7 4 -15 -10 -26
-24 -16 -24 18 1 43 18 118 32 134 13 16 14 16 21 -24z m-126 -10 c-3 -10 -5
-4 -5 12 0 17 2 24 5 18 2 -7 2 -21 0 -30z m-160 -105 c-3 -8 -6 -5 -6 6 -1
11 2 17 5 13 3 -3 4 -12 1 -19z m30 -10 c-3 -7 -5 -2 -5 12 0 14 2 19 5 13 2
-7 2 -19 0 -25z m70 -60 c-3 -8 -6 -5 -6 6 -1 11 2 17 5 13 3 -3 4 -12 1 -19z
m-107 -102 c-6 -16 -13 -27 -16 -24 -2 3 0 17 6 32 5 15 11 44 12 64 l1 37 4
-41 c2 -22 -1 -53 -7 -68z m50 45 c0 -32 -6 -24 -14 19 -4 25 -3 31 4 20 5 -8
10 -26 10 -39z m247 17 c-3 -7 -5 -2 -5 12 0 14 2 19 5 13 2 -7 2 -19 0 -25z
m-10 -50 c-3 -8 -6 -5 -6 6 -1 11 2 17 5 13 3 -3 4 -12 1 -19z m-186 -18 c23
0 25 -13 4 -30 -19 -15 -20 -14 -28 25 -4 17 -4 24 -1 18 3 -7 14 -13 25 -13z
m153 -14 c-7 -29 -14 -32 -32 -14 -17 17 -15 31 3 24 9 -3 18 1 22 10 9 24 15
9 7 -20z m-197 2 c-3 -8 -6 -5 -6 6 -1 11 2 17 5 13 3 -3 4 -12 1 -19z m220
-20 c-3 -7 -5 -2 -5 12 0 14 2 19 5 13 2 -7 2 -19 0 -25z m-247 -40 c0 -7 3
-24 7 -38 9 -36 -6 -19 -17 19 -5 19 -5 31 1 31 5 0 9 -6 9 -12z m277 -20 c-3
-8 -6 -5 -6 6 -1 11 2 17 5 13 3 -3 4 -12 1 -19z m-140 -190 c-3 -8 -6 -5 -6
6 -1 11 2 17 5 13 3 -3 4 -12 1 -19z m-87 -48 c0 -25 -10 -50 -21 -50 -10 0
-12 40 -3 64 8 20 24 11 24 -14z m62 -42 c-9 -32 -8 -102 1 -270 6 -124 10
-224 7 -222 -2 3 -14 53 -27 112 -12 59 -30 143 -39 186 -22 108 -15 169 28
213 17 18 34 31 36 28 3 -2 0 -24 -6 -47z m-81 -51 c-10 -9 -11 -8 -5 6 3 10
9 15 12 12 3 -3 0 -11 -7 -18z"/>
<path d="M1163 2660 c0 -25 2 -35 4 -22 2 12 2 32 0 45 -2 12 -4 2 -4 -23z"/>
<path d="M1333 2555 c0 -33 2 -45 4 -27 2 18 2 45 0 60 -2 15 -4 0 -4 -33z"/>
<path d="M1331 2474 c0 -11 3 -14 6 -6 3 7 2 16 -1 19 -3 4 -6 -2 -5 -13z"/>
<path d="M1417 1294 c-10 -11 -9 -36 2 -30 5 4 13 -8 17 -26 4 -18 9 -28 11
-22 5 15 -22 86 -30 78z"/>
<path d="M1373 865 c0 -27 2 -38 4 -22 2 15 2 37 0 50 -2 12 -4 0 -4 -28z"/>
<path d="M1383 745 c0 -27 2 -38 4 -22 2 15 2 37 0 50 -2 12 -4 0 -4 -28z"/>
<path d="M1067 493 c-4 -3 -7 -22 -6 -42 l1 -36 9 39 c9 39 8 52 -4 39z"/>
</g>
</svg>
