<?xml version="1.0" standalone="no"?>
<!DOCTYPE svg PUBLIC "-//W3C//DTD SVG 20010904//EN"
 "http://www.w3.org/TR/2001/REC-SVG-20010904/DTD/svg10.dtd">
<svg version="1.0" xmlns="http://www.w3.org/2000/svg"
 width="244.000000pt" height="305.000000pt" viewBox="0 0 244.000000 305.000000"
 preserveAspectRatio="xMidYMid meet">
<metadata>
Created by potrace 1.16, written by Peter Selinger 2001-2019
</metadata>
<g transform="translate(0.000000,305.000000) scale(0.100000,-0.100000)"
fill="#000000" stroke="none">
<path d="M940 2905 c0 -5 0 -234 0 -508 l1 -497 -40 27 c-38 26 -40 31 -41 78
0 139 22 498 40 621 24 173 24 214 -1 75 -26 -150 -40 -305 -47 -555 -6 -189
-5 -219 8 -224 32 -11 88 -74 83 -93 -7 -25 -10 -24 -43 11 -33 35 -67 38
-104 9 -17 -14 -26 -30 -26 -50 0 -28 2 -29 45 -29 40 0 47 -4 70 -37 29 -44
31 -56 9 -74 -11 -9 -15 -26 -12 -63 2 -38 -1 -55 -14 -68 -10 -10 -18 -28
-18 -41 0 -15 -9 -26 -29 -35 -38 -17 -54 -62 -41 -116 9 -40 6 -56 -10 -56
-11 0 -30 64 -30 101 0 14 11 47 24 73 24 47 24 48 5 67 -30 30 -94 26 -115
-7 -18 -26 -16 -39 17 -159 20 -71 0 -116 -74 -167 -127 -88 -287 -191 -291
-187 -2 2 53 64 123 137 125 132 127 133 166 130 46 -3 43 -15 30 136 -9 105
-24 78 -17 -30 l5 -84 -29 6 c-26 5 -36 -2 -93 -63 -35 -37 -112 -116 -170
-175 -58 -59 -103 -110 -100 -112 6 -6 36 4 254 87 148 57 170 68 173 89 5 32
19 45 34 30 8 -8 4 -21 -17 -53 -51 -77 -85 -139 -76 -139 5 0 52 26 106 57
93 54 98 56 111 38 24 -33 17 -65 -16 -76 -34 -12 -32 -8 -120 -329 -27 -102
-54 -201 -60 -219 -11 -41 -5 -53 14 -25 72 102 246 312 246 297 0 -18 -34
-215 -47 -273 -5 -24 -5 -24 9 -5 9 11 61 109 118 218 100 195 102 200 96 249
l-7 51 37 -6 c37 -6 94 -50 94 -73 0 -7 -12 -27 -27 -44 l-27 -32 37 -212 c48
-272 79 -437 83 -434 2 3 96 534 109 613 5 34 2 44 -21 68 -44 48 -8 107 68
111 l33 1 -2 -48 c-3 -50 28 -121 176 -397 59 -111 61 -103 26 85 -13 71 -22
131 -21 133 4 3 177 -212 216 -267 44 -63 43 -60 -69 363 -42 155 -44 161 -83
180 -28 14 -34 44 -14 71 14 20 14 20 53 -1 85 -47 169 -96 178 -105 12 -11
25 -12 25 0 0 5 -15 31 -33 57 -19 27 -39 59 -45 70 -11 22 -11 22 33 9 24 -8
52 -18 62 -23 23 -13 296 -112 299 -109 1 1 -70 79 -158 172 -148 157 -163
170 -193 168 l-32 -2 3 97 c3 88 2 92 -7 42 -5 -30 -15 -81 -23 -113 l-13 -59
31 -29 c17 -16 34 -29 37 -29 3 0 38 -24 77 -52 39 -29 98 -73 132 -97 33 -24
59 -45 57 -48 -2 -2 -49 15 -103 38 -54 23 -121 50 -149 61 -61 24 -73 34 -57
50 19 19 14 41 -14 63 -36 29 -40 82 -15 183 22 84 19 113 -13 134 -16 11 -64
10 -87 -2 -24 -14 -24 -37 1 -75 22 -33 26 -97 10 -140 -16 -42 -28 -20 -27
46 2 55 -1 63 -25 83 -14 11 -29 36 -33 55 -5 21 -14 35 -27 39 -18 4 -19 10
-14 52 5 36 3 50 -9 60 -24 20 -17 55 18 90 26 26 38 31 65 26 29 -4 32 -3 32
22 0 66 -68 95 -123 52 -22 -17 -26 -18 -31 -4 -6 15 28 55 66 79 14 9 15 38
7 280 -8 267 -26 443 -66 629 -12 57 -19 74 -24 60 -4 -10 -8 -28 -8 -39 -1
-17 1 -17 9 -5 6 10 10 -151 10 -462 0 -422 -2 -478 -15 -478 -9 0 -18 12 -22
30 -4 22 -9 28 -18 20 -21 -18 -25 1 -25 120 0 176 13 399 21 370 4 -14 7 23
8 86 1 74 -3 116 -11 127 -11 14 -13 -4 -15 -101 -1 -64 -6 -184 -11 -267 -8
-137 -9 -117 -12 225 -1 216 -6 358 -10 335 -14 -72 -39 -367 -45 -535 -4 -91
-11 -194 -18 -230 l-11 -65 -12 50 c-8 34 -12 42 -13 23 -1 -15 -5 -29 -9 -32
-4 -2 -9 32 -10 77 -4 121 -21 270 -43 371 -10 49 -21 91 -23 93 -15 15 -57
-243 -63 -382 -3 -71 -9 -134 -14 -140 -6 -5 -9 -1 -10 10 -1 11 -7 -2 -13
-30 l-12 -50 -7 50 c-12 87 -23 82 -36 -17 -16 -116 -21 -138 -33 -138 -5 0
-8 194 -6 500 2 275 0 488 -4 474 -4 -14 -12 -78 -19 -141 -7 -63 -15 -109
-19 -101 -4 7 -13 49 -20 93 -12 84 -37 197 -40 180z m239 -929 c-9 -8 -10 -6
-5 7 3 10 7 64 8 120 l2 102 3 -109 c3 -75 0 -113 -8 -120z m8 -83 c-3 -10 -5
-4 -5 12 0 17 2 24 5 18 2 -7 2 -21 0 -30z m-172 -14 c0 -9 -13 -15 -35 -17
l-35 -4 24 21 c26 23 46 23 46 0z m470 0 c0 -7 -8 -15 -17 -17 -18 -3 -25 18
-11 32 10 10 28 1 28 -15z m-65 -10 c0 -5 -7 -9 -15 -9 -15 0 -20 12 -9 23 8
8 24 -1 24 -14z m-330 1 c0 -5 -7 -10 -15 -10 -8 0 -15 5 -15 10 0 6 7 10 15
10 8 0 15 -4 15 -10z m27 -137 c-14 -14 -19 -15 -29 -4 -11 10 -9 15 6 27 27
20 47 0 23 -23z m259 23 c15 -11 16 -17 7 -27 -9 -9 -15 -8 -27 4 -31 31 -16
49 20 23z m-356 -73 c0 -25 -10 -29 -28 -11 -13 13 -16 51 -5 62 11 10 33 -24
33 -51z m468 23 c5 -22 -18 -50 -30 -38 -12 12 2 64 16 59 6 -2 12 -11 14 -21z
m-311 -58 c-3 -7 -5 -2 -5 12 0 14 2 19 5 13 2 -7 2 -19 0 -25z m-26 2 c5 0 9
-8 9 -19 0 -10 8 -21 18 -23 10 -3 28 -25 39 -48 l20 -44 12 37 c7 21 24 45
37 54 13 8 24 21 24 28 0 8 9 16 20 20 26 8 63 -12 56 -32 -3 -8 -6 -20 -6
-28 0 -8 -16 -13 -47 -13 -54 -1 -77 -23 -88 -82 l-7 -35 -19 49 c-24 64 -27
66 -81 68 -41 0 -47 3 -51 27 -6 29 17 55 41 46 8 -3 18 -5 23 -5z m-195 -54
c3 -14 28 -60 55 -102 27 -43 49 -83 49 -88 0 -20 -72 60 -95 105 -28 57 -41
109 -26 109 6 0 13 -11 17 -24z m126 -83 c7 -9 7 -13 -1 -13 -17 0 -41 55 -40
92 0 31 2 29 16 -17 8 -27 20 -56 25 -62z m333 17 c-22 -43 -27 -34 -10 15 8
22 15 49 16 60 1 11 4 6 6 -12 2 -17 -3 -46 -12 -63z m88 -15 c-26 -53 -78
-114 -87 -104 -3 3 13 33 34 67 22 35 40 65 40 68 0 2 8 21 17 42 l17 37 4
-28 c2 -16 -8 -49 -25 -82z m-353 -7 c11 -12 20 -31 20 -42 -1 -19 -3 -18 -25
9 -38 46 -34 74 5 33z m200 8 c0 -19 -49 -76 -50 -58 0 17 20 55 34 64 15 10
16 10 16 -6z m210 -90 c11 -34 6 -96 -11 -126 -5 -10 -9 5 -9 41 0 31 -3 71
-6 88 -9 43 11 40 26 -3z m-620 -30 c0 -30 -3 -62 -6 -71 -17 -43 -32 49 -18
103 11 40 24 23 24 -32z m243 -21 c4 -8 3 -16 -1 -19 -10 -6 -43 20 -35 27 11
12 31 8 36 -8z m130 -10 c-21 -16 -28 -12 -20 9 4 9 13 13 22 10 14 -6 13 -8
-2 -19z m-282 -85 c-2 -35 -6 -48 -12 -39 -10 16 -12 60 -3 83 11 30 19 8 15
-44z m428 13 c-1 -34 -2 -35 -9 -13 -11 36 -11 50 0 50 6 0 10 -17 9 -37z
m-318 7 c18 0 19 -2 5 -21 -18 -26 -11 -48 21 -60 29 -11 30 -55 1 -53 -10 0
-43 1 -73 2 -48 2 -57 5 -64 25 -12 30 -5 34 18 13 29 -26 41 -11 41 51 0 46
3 54 16 49 9 -3 25 -6 35 -6z m241 -48 c-4 -56 9 -73 38 -47 12 11 20 13 25 5
14 -22 -17 -40 -69 -40 -29 0 -57 -5 -62 -10 -8 -8 -15 -6 -23 4 -18 22 -9 50
16 54 12 2 24 9 26 17 8 19 -3 55 -17 56 -6 1 3 5 19 9 46 12 50 7 47 -48z
m282 -19 c-16 -25 -19 -26 -22 -9 -2 11 4 25 14 33 26 19 29 8 8 -24z m-824
-34 c0 -6 -4 -7 -10 -4 -5 3 -10 11 -10 16 0 6 5 7 10 4 6 -3 10 -11 10 -16z
m150 -29 c6 -11 8 -20 6 -20 -3 0 -10 9 -16 20 -6 11 -8 20 -6 20 3 0 10 -9
16 -20z m506 -6 c-4 -9 -9 -15 -11 -12 -3 3 -3 13 1 22 4 9 9 15 11 12 3 -3 3
-13 -1 -22z m308 -20 c3 -8 2 -12 -4 -9 -6 3 -10 10 -10 16 0 14 7 11 14 -7z
m-900 -67 c3 -16 6 -40 6 -54 0 -24 -250 -536 -258 -528 -2 2 3 28 11 57 9 29
28 96 42 148 63 229 63 230 106 247 32 13 41 22 50 57 6 22 8 66 5 96 l-6 55
19 -25 c11 -13 22 -37 25 -53z m911 -1 c25 -38 43 -71 41 -74 -7 -7 -126 110
-126 125 0 11 19 23 32 20 4 -1 27 -33 53 -71z m-224 7 c-24 -84 -14 -113 134
-412 42 -84 74 -155 72 -157 -2 -3 -50 56 -106 131 l-102 135 -21 111 c-18 95
-20 120 -10 167 11 54 33 94 40 74 2 -6 -1 -28 -7 -49z m-821 22 c10 -12 3
-20 -42 -48 -99 -63 -105 -63 -47 1 57 65 69 71 89 47z m464 -165 c3 0 12 12
20 28 8 15 15 21 16 14 0 -14 -28 -72 -35 -72 -8 0 -35 59 -35 77 1 11 6 5 15
-14 8 -18 16 -33 19 -33z m276 0 c16 -8 17 -15 9 -42 -11 -39 -5 -60 31 -113
15 -22 30 -49 33 -60 10 -30 47 -239 43 -242 -2 -2 -29 77 -60 174 -32 98 -61
187 -66 198 -4 11 -13 33 -19 48 -16 41 -5 55 29 37z m-486 -16 c17 -43 3 -87
-79 -250 -47 -93 -84 -162 -82 -154 2 8 32 106 68 218 60 189 78 225 93 186z
m533 -81 c-4 -17 -4 -17 -12 0 -4 9 -4 25 0 35 8 16 8 16 12 0 3 -10 3 -26 0
-35z m-390 -121 l1 -97 -15 82 c-13 67 -13 85 -3 98 7 8 13 15 14 15 0 0 2
-44 3 -98z m10 -134 c-3 -7 -5 -2 -5 12 0 14 2 19 5 13 2 -7 2 -19 0 -25z"/>
<path d="M921 2834 c0 -11 3 -14 6 -6 3 7 2 16 -1 19 -3 4 -6 -2 -5 -13z"/>
<path d="M1052 2805 c0 -16 2 -22 5 -12 2 9 2 23 0 30 -3 6 -5 -1 -5 -18z"/>
<path d="M1442 2800 c0 -14 2 -19 5 -12 2 6 2 18 0 25 -3 6 -5 1 -5 -13z"/>
<path d="M1502 2800 c0 -14 2 -19 5 -12 2 6 2 18 0 25 -3 6 -5 1 -5 -13z"/>
<path d="M1492 2745 c0 -16 2 -22 5 -12 2 9 2 23 0 30 -3 6 -5 -1 -5 -18z"/>
<path d="M1452 2705 c0 -16 2 -22 5 -12 2 9 2 23 0 30 -3 6 -5 -1 -5 -18z"/>
<path d="M1482 2680 c0 -19 2 -27 5 -17 2 9 2 25 0 35 -3 9 -5 1 -5 -18z"/>
<path d="M1062 2680 c0 -14 2 -19 5 -12 2 6 2 18 0 25 -3 6 -5 1 -5 -13z"/>
<path d="M1073 2595 c0 -27 2 -38 4 -22 2 15 2 37 0 50 -2 12 -4 0 -4 -28z"/>
<path d="M1083 2470 c0 -41 2 -58 4 -37 2 20 2 54 0 75 -2 20 -4 3 -4 -38z"/>
<path d="M1094 2225 c0 -49 1 -71 3 -48 2 23 2 64 0 90 -2 26 -3 8 -3 -42z"/>
<path d="M1484 2140 c0 -91 2 -128 3 -82 2 45 2 119 0 165 -1 45 -3 8 -3 -83z"/>
</g>
</svg>
