<?xml version="1.0" standalone="no"?>
<!DOCTYPE svg PUBLIC "-//W3C//DTD SVG 20010904//EN"
 "http://www.w3.org/TR/2001/REC-SVG-20010904/DTD/svg10.dtd">
<svg version="1.0" xmlns="http://www.w3.org/2000/svg"
 width="244.000000pt" height="305.000000pt" viewBox="0 0 244.000000 305.000000"
 preserveAspectRatio="xMidYMid meet">
<metadata>
Created by potrace 1.16, written by Peter Selinger 2001-2019
</metadata>
<g transform="translate(0.000000,305.000000) scale(0.100000,-0.100000)"
fill="#000000" stroke="none">
<path d="M897 2883 c-3 -15 -1 -29 4 -31 10 -4 13 -952 3 -952 -3 0 -23 12
-45 28 l-39 27 0 125 c0 213 26 489 66 720 4 19 4 33 1 30 -17 -16 -63 -323
-72 -485 -12 -219 -15 -425 -6 -425 5 0 31 -16 57 -36 41 -32 48 -34 56 -20 5
9 28 28 50 42 l41 26 -7 206 c-4 114 -11 254 -17 312 -11 121 -67 441 -78 453
-5 5 -11 -4 -14 -20z"/>
<path d="M1548 2871 c-2 -17 -1 -28 4 -25 4 3 8 -209 8 -471 0 -262 -3 -475
-7 -473 -49 23 -74 47 -79 75 -10 51 16 475 37 618 11 72 22 150 24 175 4 43
4 44 -5 10 -34 -127 -70 -490 -70 -716 l0 -142 33 -21 c17 -11 40 -26 50 -33
14 -10 20 -10 35 0 9 7 32 22 51 34 l34 22 -6 230 c-6 250 -24 422 -62 613
-14 67 -25 125 -25 128 0 3 -4 5 -9 5 -5 0 -11 -13 -13 -29z"/>
<path d="M1302 2855 c0 -16 2 -22 5 -12 2 9 2 23 0 30 -3 6 -5 -1 -5 -18z"/>
<path d="M1161 2825 c-1 -22 -4 -229 -6 -460 -3 -231 -5 -439 -5 -462 -1 -71
-16 -48 -30 45 -6 48 -18 105 -25 127 l-12 40 -12 -29 c-17 -43 -27 -206 -12
-206 7 0 23 -11 36 -25 29 -28 34 -89 11 -121 -13 -16 -18 -17 -35 -6 -31 18
-41 15 -41 -13 0 -27 32 -65 54 -65 8 0 23 11 34 25 11 14 23 25 26 25 3 0 5
-27 5 -60 l-1 -60 -33 0 c-18 0 -39 -8 -49 -19 -16 -17 -16 -19 4 -24 14 -3
20 -13 20 -31 0 -34 -10 -33 -47 7 -37 39 -63 88 -63 119 0 13 -9 31 -20 41
-27 23 -25 33 10 69 26 25 36 29 73 26 41 -3 42 -2 40 27 -3 43 -47 79 -86 71
-39 -8 -57 -23 -74 -65 -16 -37 -17 -37 -42 11 -13 23 -31 37 -58 47 -37 13
-44 13 -67 -3 -28 -18 -50 -61 -40 -77 3 -5 23 -9 46 -9 32 0 47 -7 74 -34 37
-37 42 -57 19 -76 -37 -31 -5 -149 63 -234 34 -41 33 -54 -6 -89 -11 -10 -26
-32 -33 -48 -10 -26 -9 -34 8 -57 26 -35 78 -51 100 -30 12 12 13 20 4 36 -12
23 -15 89 -3 95 4 3 23 0 42 -7 30 -10 35 -15 33 -41 -2 -22 0 -26 7 -15 9 13
10 13 11 0 0 -8 5 -4 10 10 7 19 8 16 4 -17 -7 -60 -23 -99 -36 -86 -7 7 -26
2 -60 -15 -44 -23 -51 -24 -75 -11 -51 27 -78 76 -81 143 -1 34 -5 81 -10 106
-7 41 -11 45 -40 48 -40 4 -73 -29 -73 -72 0 -36 27 -99 68 -158 50 -73 82
-146 82 -185 0 -27 -15 -64 -51 -128 -28 -49 -72 -128 -99 -175 -107 -191
-131 -232 -136 -227 -2 2 20 82 50 178 84 269 76 250 120 266 56 19 64 28 71
87 8 64 -6 103 -70 186 -80 104 -94 167 -50 232 14 20 25 44 25 52 0 24 -36
37 -88 34 -40 -3 -49 -7 -60 -31 -12 -24 -11 -37 7 -97 12 -37 21 -80 21 -95
0 -41 -27 -88 -64 -112 -83 -54 -348 -205 -352 -201 -2 3 42 48 99 101 198
183 177 168 225 162 l42 -6 0 38 c0 75 -13 173 -23 173 -6 0 -8 -32 -4 -90 l7
-91 -33 6 c-29 5 -40 -2 -127 -81 -134 -123 -282 -266 -278 -269 2 -2 109 33
238 76 129 43 236 79 238 79 1 0 2 8 2 18 0 34 19 41 66 25 76 -26 138 -101
121 -147 -3 -7 -19 -16 -35 -19 -29 -6 -32 -12 -70 -134 -22 -70 -61 -195 -86
-276 -25 -82 -46 -156 -46 -165 0 -9 15 2 37 29 21 24 81 91 133 150 52 58
125 140 162 182 l66 76 -13 45 c-7 24 -11 47 -8 50 10 10 150 7 177 -4 20 -7
26 -17 27 -42 2 -31 2 -31 6 -6 2 16 9 28 15 28 17 0 3 -92 -16 -102 -11 -6
-16 -23 -16 -54 0 -32 3 -43 12 -38 8 5 9 -2 5 -26 -4 -18 -7 -44 -7 -59 0
-20 -2 -23 -10 -11 -6 10 -9 -4 -8 -45 0 -33 -2 -82 -5 -110 -4 -27 3 -4 15
53 11 56 24 102 28 102 4 0 12 -26 19 -57 6 -32 27 -139 47 -238 19 -99 37
-181 38 -183 2 -1 25 109 52 247 29 146 52 244 57 238 5 -7 6 4 3 25 -2 22 0
40 6 44 7 5 9 -13 6 -55 -3 -37 -1 -56 5 -49 5 8 7 0 3 -22 -3 -19 1 -62 8
-95 18 -80 19 -48 1 190 -21 279 -22 260 23 273 34 10 149 8 160 -3 3 -2 0
-23 -6 -47 -8 -32 -8 -46 1 -57 28 -36 368 -420 375 -425 8 -5 -69 262 -132
459 -30 94 -34 101 -70 118 -31 15 -36 21 -31 40 17 54 42 83 97 111 63 31 88
29 88 -6 0 -22 18 -30 223 -97 122 -41 229 -76 237 -79 15 -4 -60 72 -249 251
-98 93 -106 98 -137 93 l-33 -7 6 91 c4 64 3 90 -6 90 -6 0 -11 -17 -11 -42 0
-24 -7 -68 -15 -98 -20 -76 -19 -83 18 -104 17 -11 82 -51 142 -91 61 -39 132
-84 159 -100 27 -16 45 -30 39 -32 -9 -3 -341 113 -352 122 -1 2 1 16 7 32 8
25 6 31 -20 53 -41 35 -47 93 -19 184 26 84 26 108 3 129 -27 24 -97 22 -122
-3 l-21 -21 26 -43 c45 -76 32 -143 -45 -236 -50 -60 -66 -93 -80 -167 l-12
-62 37 -73 c71 -137 187 -353 201 -373 8 -11 14 -26 14 -34 0 -16 -23 10 -183
203 -106 129 -108 132 -101 171 3 22 5 65 5 96 -2 73 13 116 88 242 51 87 61
111 61 150 0 38 -4 49 -24 63 -14 8 -35 14 -48 12 -18 -2 -24 -12 -33 -59 -6
-30 -15 -60 -18 -66 -4 -6 -3 -22 2 -35 12 -33 -7 -76 -53 -116 -20 -17 -41
-32 -46 -32 -5 0 -27 9 -49 21 -37 19 -41 25 -52 80 -7 34 -16 56 -22 52 -5
-3 -8 0 -5 8 5 14 62 33 81 26 8 -2 12 -28 12 -68 l0 -64 35 2 c39 2 70 32 70
68 0 13 -16 44 -35 69 -19 26 -35 50 -35 55 0 4 12 21 26 37 63 72 107 216 70
230 -28 11 -18 50 20 84 29 25 44 31 72 28 39 -3 48 8 38 48 -4 16 -19 30 -41
40 -47 19 -93 1 -120 -49 -11 -21 -22 -37 -25 -37 -3 0 -12 16 -19 35 -12 34
-53 65 -85 65 -8 0 -29 -12 -46 -26 -23 -20 -30 -34 -28 -53 3 -24 6 -26 43
-23 52 4 95 -26 95 -68 0 -16 -7 -30 -15 -34 -8 -3 -15 -15 -15 -26 0 -45 -73
-160 -101 -160 -16 0 -10 42 9 56 16 12 16 14 1 29 -9 9 -30 17 -47 17 l-32 1
0 59 c0 32 2 58 5 58 3 0 16 -12 29 -26 28 -33 58 -26 76 17 16 38 2 57 -28
38 -31 -20 -52 3 -52 57 0 44 15 69 56 92 17 10 17 16 5 114 -12 97 -22 131
-34 111 -3 -4 -12 -55 -22 -113 -9 -58 -19 -108 -23 -112 -4 -4 -6 120 -4 275
1 155 -1 361 -6 457 l-9 175 -3 -280 c-2 -154 -5 -266 -7 -250 -12 100 -38
246 -53 294 l-17 56 -11 -40 c-7 -22 -18 -69 -25 -105 l-12 -65 -3 65 c-14
307 -19 399 -21 365z m66 -417 c-1 -62 -1 -261 1 -443 1 -251 -1 -331 -11
-337 -18 -12 -30 -4 -40 26 -11 32 0 119 14 111 5 -4 9 14 9 40 0 27 -5 48
-12 50 -16 6 -14 299 2 440 13 114 31 225 35 225 2 0 3 -51 2 -112z m-289
-837 c23 -51 43 -75 105 -129 25 -21 37 -39 35 -52 -3 -17 -8 -16 -50 16 -57
40 -116 126 -125 177 -8 51 8 45 35 -12z m632 32 c-1 -23 -34 -96 -61 -135
-25 -34 -95 -88 -116 -88 -25 0 -13 21 46 75 32 30 71 80 87 110 30 56 44 69
44 38z m-289 -46 c-8 -8 -11 -4 -11 14 0 33 14 47 18 19 2 -12 -1 -27 -7 -33z
m-81 16 c0 -22 -2 -25 -10 -13 -13 20 -13 40 0 40 6 0 10 -12 10 -27z m107 5
c-3 -8 -6 -5 -6 6 -1 11 2 17 5 13 3 -3 4 -12 1 -19z m-158 -77 c16 -30 26
-161 12 -161 -7 0 -11 19 -11 50 0 36 -4 52 -15 56 -9 4 -15 19 -15 40 0 38
14 44 29 15z m88 -18 c-3 -10 -5 -4 -5 12 0 17 2 24 5 18 2 -7 2 -21 0 -30z
m113 3 c0 -21 -6 -36 -15 -40 -10 -4 -15 -20 -15 -50 0 -25 -5 -48 -12 -52 -8
-5 -10 8 -5 52 11 101 47 171 47 90z m-233 -118 c-3 -8 -6 -5 -6 6 -1 11 2 17
5 13 3 -3 4 -12 1 -19z m240 0 c-3 -8 -6 -5 -6 6 -1 11 2 17 5 13 3 -3 4 -12
1 -19z m20 -100 c-3 -7 -5 -2 -5 12 0 14 2 19 5 13 2 -7 2 -19 0 -25z m17 -63
c5 -22 4 -26 -4 -15 -5 8 -10 24 -10 34 0 26 6 18 14 -19z m-257 -17 c-3 -7
-5 -2 -5 12 0 14 2 19 5 13 2 -7 2 -19 0 -25z m173 -9 c-10 -17 -14 -19 -21
-8 -12 19 -11 32 1 24 6 -3 13 2 17 11 4 10 8 13 10 7 3 -7 -1 -22 -7 -34z
m27 9 c-3 -7 -5 -2 -5 12 0 14 2 19 5 13 2 -7 2 -19 0 -25z m-164 16 c9 -3 13
-13 10 -25 -7 -27 -20 -24 -25 6 -6 28 -6 27 15 19z m-63 -71 c0 -10 3 -29 6
-43 5 -24 5 -24 -10 -6 -18 22 -22 66 -6 66 6 0 10 -8 10 -17z m261 -39 c-15
-34 -20 -28 -14 14 4 23 9 30 16 23 7 -7 7 -18 -2 -37z m-134 -176 c-3 -8 -6
-5 -6 6 -1 11 2 17 5 13 3 -3 4 -12 1 -19z m102 -75 c1 -7 -3 -13 -8 -13 -12
0 -21 38 -13 58 5 14 7 12 13 -8 4 -14 7 -31 8 -37z m-110 -178 c-1 -104 -4
-219 -8 -255 l-6 -65 -37 185 c-36 176 -37 188 -24 243 15 63 54 117 68 95 4
-7 7 -98 7 -203z m-2 -347 c-3 -8 -6 -5 -6 6 -1 11 2 17 5 13 3 -3 4 -12 1
-19z"/>
<path d="M1196 1980 c-5 -56 -4 -95 3 -113 14 -36 15 -150 1 -142 -6 4 -10 -8
-10 -29 0 -20 4 -36 9 -36 18 0 22 84 14 245 l-9 160 -8 -85z"/>
<path d="M1211 824 c0 -11 3 -14 6 -6 3 7 2 16 -1 19 -3 4 -6 -2 -5 -13z"/>
<path d="M1213 640 c0 -36 2 -50 4 -32 2 17 2 47 0 65 -2 17 -4 3 -4 -33z"/>
<path d="M1293 2620 c0 -25 2 -35 4 -22 2 12 2 32 0 45 -2 12 -4 2 -4 -23z"/>
<path d="M1144 2375 c0 -49 1 -71 3 -48 2 23 2 64 0 90 -2 26 -3 8 -3 -42z"/>
<path d="M1051 1224 c0 -11 3 -14 6 -6 3 7 2 16 -1 19 -3 4 -6 -2 -5 -13z"/>
</g>
</svg>
