<?xml version="1.0" standalone="no"?>
<!DOCTYPE svg PUBLIC "-//W3C//DTD SVG 20010904//EN"
 "http://www.w3.org/TR/2001/REC-SVG-20010904/DTD/svg10.dtd">
<svg version="1.0" xmlns="http://www.w3.org/2000/svg"
 width="244.000000pt" height="305.000000pt" viewBox="0 0 244.000000 305.000000"
 preserveAspectRatio="xMidYMid meet">
<metadata>
Created by potrace 1.16, written by Peter Selinger 2001-2019
</metadata>
<g transform="translate(0.000000,305.000000) scale(0.100000,-0.100000)"
fill="#000000" stroke="none">
<path d="M920 2893 c0 -12 -3 -30 -6 -40 -5 -15 -4 -15 5 -3 8 11 11 -118 11
-461 -1 -262 -3 -479 -7 -482 -3 -4 -24 8 -46 25 l-40 32 7 185 c7 208 20 359
41 503 8 54 15 106 14 115 -2 33 -18 -51 -39 -202 -25 -178 -41 -645 -22 -645
6 0 27 -13 45 -30 19 -16 38 -30 42 -30 4 0 23 14 42 30 18 17 38 30 43 30 15
0 12 290 -5 495 -15 180 -57 453 -75 484 -8 14 -9 13 -10 -6z"/>
<path d="M1361 2885 c-1 -16 -2 -212 -2 -435 1 -315 -2 -417 -13 -460 l-14
-55 -3 135 -3 135 -6 -120 c-5 -92 -6 -103 -8 -49 -6 197 -34 413 -70 539 -11
37 -13 31 -42 -111 -26 -133 -39 -261 -41 -409 -2 -93 -4 -71 -10 100 -13 378
-30 699 -37 712 -4 6 -6 -169 -5 -390 0 -221 -1 -394 -4 -385 -2 9 -10 15 -17
12 -10 -4 -16 -38 -21 -109 l-7 -104 32 -28 c27 -24 30 -33 24 -58 l-7 -30
-11 40 c-10 34 -17 41 -49 48 -47 11 -82 -9 -103 -60 -17 -39 -19 -39 -42 9
-40 79 -152 70 -152 -13 0 -27 2 -29 40 -29 64 0 119 -72 85 -111 -14 -14 -16
-29 -12 -64 7 -48 55 -153 81 -174 22 -19 20 -54 -5 -77 -34 -30 -48 -73 -37
-106 6 -16 7 -32 3 -36 -16 -17 -33 35 -39 125 -4 53 -12 103 -18 110 -18 23
-66 16 -84 -12 -26 -39 -12 -95 47 -197 30 -52 52 -104 52 -120 0 -16 4 -24 7
-17 11 18 19 -4 10 -27 -11 -28 -34 -44 -26 -18 10 33 -18 103 -69 171 -79
107 -91 162 -50 228 30 49 31 71 6 85 -32 17 -96 12 -114 -8 -22 -24 -21 -39
4 -133 21 -75 21 -80 6 -121 -14 -36 -30 -52 -99 -98 -134 -88 -288 -180 -288
-170 0 4 62 67 137 140 136 130 138 131 175 125 37 -7 38 -6 38 23 0 72 -14
182 -23 182 -6 0 -7 -33 -3 -91 l7 -91 -29 7 c-26 5 -42 -7 -205 -166 -166
-161 -201 -201 -159 -184 9 4 62 23 117 42 55 18 116 40 135 47 19 8 68 26
108 41 61 23 72 30 72 50 0 35 23 37 82 7 93 -47 129 -136 62 -155 -29 -8 -34
-16 -52 -81 -12 -39 -48 -165 -82 -279 -34 -115 -60 -213 -58 -218 3 -8 104
108 203 231 17 20 61 75 98 121 73 88 71 83 54 172 -1 8 16 13 45 15 l47 3 4
-43 4 -43 1 43 c2 38 5 42 27 42 14 0 25 -2 25 -3 0 -2 -9 -46 -20 -98 -11
-52 -30 -141 -42 -199 -19 -89 -23 -101 -30 -75 -5 22 -6 17 -3 -17 3 -27 0
-48 -6 -50 -6 -2 -9 -18 -7 -37 5 -50 138 347 138 412 0 54 11 58 43 15 l19
-26 -30 -39 -31 -38 39 -210 c21 -116 49 -262 61 -325 l23 -115 33 170 c18 94
37 193 43 220 16 79 40 233 40 258 0 13 -11 34 -25 47 -14 13 -25 29 -25 35 0
12 41 55 53 55 4 0 7 -21 7 -47 -1 -34 21 -112 72 -265 40 -119 74 -215 76
-213 2 1 -9 101 -23 221 -15 121 -29 246 -32 278 l-6 59 44 -7 c24 -4 45 -9
48 -12 3 -2 0 -24 -6 -47 -14 -51 -32 -24 216 -321 95 -114 133 -157 137 -153
2 2 -32 127 -75 278 -77 267 -79 274 -110 288 -25 12 -31 21 -31 44 0 42 40
90 96 116 53 25 74 22 74 -11 0 -20 15 -28 123 -66 67 -24 163 -59 214 -78 51
-19 96 -34 100 -34 4 0 -71 79 -167 175 -157 157 -178 175 -205 173 -16 -2
-29 2 -28 7 9 64 13 165 6 165 -5 0 -14 -37 -21 -82 -7 -46 -15 -96 -18 -113
-5 -33 -23 -18 229 -188 65 -44 116 -81 114 -83 -4 -4 -55 15 -280 102 -47 18
-48 20 -42 51 5 28 1 37 -20 56 -37 31 -42 86 -16 174 12 38 21 80 21 92 0 53
-83 81 -130 43 l-23 -18 27 -50 c42 -79 32 -134 -39 -227 -20 -26 -44 -64 -53
-85 -13 -31 -17 -33 -20 -16 -2 12 19 63 47 116 56 105 66 161 33 191 -22 20
-56 22 -69 5 -12 -16 -26 -90 -25 -138 2 -81 -21 -110 -31 -40 -3 23 -17 56
-31 75 -14 18 -26 40 -26 49 0 8 19 45 42 82 34 54 43 78 46 125 3 44 0 62
-12 74 -14 15 -14 19 -1 46 21 40 57 61 97 57 31 -3 33 -1 31 26 -3 38 -30 66
-65 66 -43 0 -68 -17 -88 -62 l-17 -40 -22 45 c-22 45 -53 67 -98 67 -18 0
-24 4 -20 14 9 23 -13 726 -27 886 -8 80 -14 132 -15 115z m-131 -846 c0 -283
-3 -418 -10 -414 -6 4 -11 95 -12 243 -2 189 -3 212 -8 117 l-5 -120 -8 155
c-8 144 -4 239 19 398 16 113 23 6 24 -379z m-70 -144 c0 -8 -4 -17 -10 -20
-6 -4 -10 5 -10 20 0 15 4 24 10 20 6 -3 10 -12 10 -20z m170 -1 c0 -14 -4
-23 -10 -19 -5 3 -10 15 -10 26 0 10 5 19 10 19 6 0 10 -12 10 -26z m45 -69
c-9 -32 -14 -42 -16 -27 -1 12 -2 26 -3 32 -1 9 26 51 30 47 1 -1 -4 -24 -11
-52z m-185 -47 c0 -32 -4 -58 -8 -58 -4 0 -8 31 -8 70 0 38 4 64 8 57 4 -6 8
-38 8 -69z m-117 -25 c15 -9 6 -21 -13 -16 -27 7 -26 -21 1 -66 14 -24 20 -48
18 -80 -1 -25 3 -59 10 -75 22 -53 5 -50 -41 7 -30 37 -49 71 -53 96 -4 22
-13 45 -21 52 -20 17 -17 33 12 68 21 25 31 30 52 25 15 -4 30 -9 35 -11z
m404 -5 c28 -32 34 -55 18 -71 -7 -8 -17 -32 -21 -53 -7 -39 -76 -144 -95
-144 -13 0 -1 42 16 56 9 7 10 15 4 25 -15 25 -10 80 12 116 20 32 20 71 0 58
-5 -3 -12 -1 -16 4 -6 11 22 30 46 31 8 0 25 -10 36 -22z m-301 -138 c27 -11
31 -25 9 -34 -23 -9 -45 4 -46 28 -1 11 -3 32 -5 46 -1 14 0 32 4 40 4 9 8 -3
10 -28 3 -35 8 -45 28 -52z m160 27 c-6 -54 -17 -68 -47 -60 -26 7 -24 22 6
33 21 8 25 16 25 50 0 28 4 39 11 34 7 -4 9 -25 5 -57z m-136 23 c0 -21 -5
-30 -16 -30 -9 0 -13 5 -10 13 3 6 9 20 12 30 9 25 14 21 14 -13z m-242 -93
c23 -54 28 -87 13 -87 -11 0 -51 93 -51 119 0 35 14 23 38 -32z m592 45 c0
-27 -33 -111 -45 -116 -20 -7 -19 9 7 71 19 47 38 69 38 45z m-309 -71 c11 17
10 -12 -1 -56 -7 -28 -8 -28 -9 -5 -1 14 -4 36 -6 50 -3 14 -2 19 1 11 5 -11
8 -11 15 0z m-62 -156 c0 -11 -13 7 -29 40 -16 33 -29 69 -29 80 1 26 58 -93
58 -120z m146 51 c-44 -94 -45 -64 -2 39 13 30 23 43 25 33 2 -9 -9 -42 -23
-72z m116 -19 c-8 -8 -11 -3 -11 19 1 25 2 27 11 11 8 -14 8 -22 0 -30z m-391
19 c0 -8 -4 -18 -10 -21 -5 -3 -10 3 -10 14 0 12 5 21 10 21 6 0 10 -6 10 -14z
m59 -35 c8 -5 11 -16 7 -26 -5 -14 -9 -15 -21 -5 -16 13 -21 40 -7 40 4 0 13
-4 21 -9z m281 -6 c0 -16 -27 -32 -37 -21 -7 7 16 36 28 36 5 0 9 -7 9 -15z
m-335 -132 c20 -82 18 -97 -5 -33 -19 50 -27 111 -14 98 3 -3 12 -32 19 -65z
m395 58 c0 -18 -42 -143 -46 -138 -7 7 29 147 38 147 4 0 8 -4 8 -9z m-275
-22 c-8 -12 -35 -12 -35 0 0 11 22 20 33 14 4 -2 5 -9 2 -14z m142 -5 c-9 -9
-28 6 -21 18 4 6 10 6 17 -1 6 -6 8 -13 4 -17z m69 -46 c-11 -80 -40 -122 -61
-88 -3 6 -15 10 -26 10 -15 0 -20 6 -17 23 4 26 48 38 48 13 0 -9 4 -16 10
-16 16 0 30 37 30 80 0 28 4 39 11 34 7 -4 9 -24 5 -56z m-286 18 c0 -19 3
-41 6 -50 7 -18 34 -22 34 -5 0 19 45 5 48 -16 2 -15 -6 -23 -33 -31 -42 -13
-50 -7 -64 56 -13 57 -14 80 -1 80 6 0 10 -15 10 -34z m-152 -64 c15 -10 5
-42 -13 -42 -15 0 -28 27 -19 41 6 11 15 11 32 1z m582 -31 c0 -23 -16 -36
-25 -21 -9 14 1 40 15 40 5 0 10 -9 10 -19z m70 -122 c0 -11 -4 -17 -10 -14
-5 3 -10 15 -10 26 0 11 5 17 10 14 6 -3 10 -15 10 -26z m-801 -231 c-50 -95
-110 -207 -132 -248 -21 -41 -42 -77 -44 -80 -11 -10 6 59 51 210 69 232 71
238 110 246 20 3 47 21 67 42 61 64 45 12 -52 -170z m797 175 c4 -16 60 -133
124 -260 65 -128 116 -233 114 -233 -2 0 -64 76 -138 169 l-135 169 4 78 c3
44 5 85 5 92 0 23 20 12 26 -15z m-353 -69 c-6 -17 -23 -9 -23 11 0 8 6 12 14
9 8 -3 12 -12 9 -20z m192 -184 c21 -102 40 -196 42 -210 2 -14 -21 49 -51
140 -53 156 -64 216 -50 255 4 9 10 13 14 8 4 -4 25 -91 45 -193z m-207 -112
c-1 -151 -4 -227 -8 -188 l-7 65 -2 -50 -3 -50 -14 60 c-7 33 -22 110 -33 170
-12 61 -23 119 -26 130 -4 14 7 34 35 65 35 39 40 42 36 20 -5 -23 -4 -23 6 3
7 15 13 27 15 27 2 0 2 -114 1 -252z"/>
<path d="M1213 2320 c0 -36 2 -50 4 -32 2 17 2 47 0 65 -2 17 -4 3 -4 -33z"/>
<path d="M1187 801 c-4 -17 -3 -21 5 -13 5 5 8 16 6 23 -3 8 -7 3 -11 -10z"/>
<path d="M1193 695 c0 -33 2 -45 4 -27 2 18 2 45 0 60 -2 15 -4 0 -4 -33z"/>
<path d="M1203 570 c0 -30 2 -43 4 -27 2 15 2 39 0 55 -2 15 -4 2 -4 -28z"/>
<path d="M1538 2400 c2 -275 0 -500 -3 -500 -4 0 -22 12 -42 27 l-36 28 7 225
c3 124 8 254 11 290 4 63 4 63 -5 15 -5 -27 -14 -165 -21 -305 -9 -201 -9
-255 1 -258 6 -2 27 -17 45 -33 31 -28 65 -38 65 -21 0 5 16 17 35 28 20 10
38 29 41 41 8 32 -14 478 -31 618 -16 128 -53 325 -63 337 -4 4 -6 -218 -4
-492z"/>
<path d="M901 2804 c0 -11 3 -14 6 -6 3 7 2 16 -1 19 -3 4 -6 -2 -5 -13z"/>
<path d="M1510 2789 c-1 -8 -9 -67 -19 -132 -10 -65 -15 -115 -11 -110 10 11
43 243 36 251 -3 3 -6 -1 -6 -9z"/>
<path d="M1093 2735 c0 -22 2 -30 4 -17 2 12 2 30 0 40 -3 9 -5 -1 -4 -23z"/>
<path d="M1343 2685 c0 -22 2 -30 4 -17 2 12 2 30 0 40 -3 9 -5 -1 -4 -23z"/>
<path d="M1083 2550 c0 -30 2 -43 4 -27 2 15 2 39 0 55 -2 15 -4 2 -4 -28z"/>
<path d="M1333 2515 c0 -33 2 -45 4 -27 2 18 2 45 0 60 -2 15 -4 0 -4 -33z"/>
<path d="M1074 2260 c0 -69 1 -97 3 -62 2 34 2 90 0 125 -2 34 -3 6 -3 -63z"/>
<path d="M1013 800 c0 -25 2 -35 4 -22 2 12 2 32 0 45 -2 12 -4 2 -4 -23z"/>
<path d="M1002 720 c0 -19 2 -27 5 -17 2 9 2 25 0 35 -3 9 -5 1 -5 -18z"/>
<path d="M992 640 c0 -19 2 -27 5 -17 2 9 2 25 0 35 -3 9 -5 1 -5 -18z"/>
</g>
</svg>
