<?xml version="1.0" standalone="no"?>
<!DOCTYPE svg PUBLIC "-//W3C//DTD SVG 20010904//EN"
 "http://www.w3.org/TR/2001/REC-SVG-20010904/DTD/svg10.dtd">
<svg version="1.0" xmlns="http://www.w3.org/2000/svg"
 width="244.000000pt" height="305.000000pt" viewBox="0 0 244.000000 305.000000"
 preserveAspectRatio="xMidYMid meet">
<metadata>
Created by potrace 1.16, written by Peter Selinger 2001-2019
</metadata>
<g transform="translate(0.000000,305.000000) scale(0.100000,-0.100000)"
fill="#000000" stroke="none">
<path d="M970 2903 c-1 -5 0 -232 0 -507 l1 -499 -35 29 -35 29 0 90 c-1 110
16 440 29 550 5 44 11 105 14 135 5 50 4 49 -8 -15 -33 -171 -63 -795 -37
-795 4 0 20 -12 35 -27 32 -32 21 -53 -19 -35 -14 7 -32 12 -40 12 -23 0 -55
-42 -55 -72 0 -25 3 -28 34 -28 46 0 91 -51 80 -89 -4 -14 -8 -56 -8 -92 0
-59 -2 -65 -17 -56 -21 13 -69 1 -69 -18 0 -12 -5 -10 -20 5 -30 30 -93 27
-110 -4 -10 -20 -10 -37 5 -102 26 -118 22 -158 -23 -202 -18 -17 -155 -122
-202 -154 -79 -54 -100 -68 -100 -64 0 3 52 65 117 138 109 124 118 133 152
133 l36 0 -4 95 c-1 52 -8 100 -13 105 -7 7 -9 -20 -5 -83 l6 -93 -27 6 c-25
5 -35 -4 -107 -86 -130 -150 -215 -253 -215 -261 0 -9 46 8 170 61 52 23 98
40 102 39 5 -2 -3 -19 -17 -38 -37 -50 -32 -65 13 -37 20 13 79 46 130 72 103
53 113 52 131 -12 10 -35 6 -44 -29 -59 -23 -10 -30 -31 -83 -255 -32 -134
-63 -261 -68 -282 -6 -22 -9 -41 -6 -43 2 -2 22 21 43 52 21 31 46 66 54 78
43 62 63 87 66 83 2 -2 -3 -38 -11 -81 -26 -137 -21 -137 50 -1 26 50 62 115
78 145 86 156 95 178 87 217 -5 20 -7 41 -4 45 10 16 72 8 98 -13 47 -37 51
-56 21 -95 l-27 -35 52 -322 c28 -177 52 -323 54 -325 3 -3 8 27 71 432 l35
220 -25 32 c-14 18 -25 37 -25 42 0 6 16 24 35 41 25 22 46 31 70 31 42 0 49
-10 36 -57 -12 -41 -13 -36 59 -168 88 -161 141 -261 156 -298 27 -63 32 -41
12 55 -10 51 -17 101 -16 111 3 19 22 -4 101 -120 35 -52 50 -63 42 -31 -2 12
-29 124 -59 248 -30 124 -57 240 -61 258 -5 25 -14 36 -36 44 -21 7 -29 16
-29 34 0 25 26 84 37 84 3 0 29 -13 57 -29 28 -16 78 -43 111 -61 33 -18 75
-41 93 -51 39 -22 40 -14 7 35 -14 20 -25 41 -25 46 0 5 48 -11 108 -36 59
-25 114 -48 122 -52 16 -6 -16 36 -156 203 -111 132 -139 160 -149 146 -17
-28 -27 -8 -23 47 3 31 1 71 -2 87 l-8 30 -1 -35 c-3 -42 -8 -79 -19 -140 l-9
-45 -13 28 c-12 24 -11 38 3 100 35 148 25 166 -95 164 l-83 -2 2 -57 c1 -32
0 -58 -3 -58 -2 0 -13 9 -24 20 -21 21 -25 40 -11 55 10 12 31 95 31 126 0 12
-8 31 -17 41 -16 18 -16 21 1 52 21 39 56 61 85 53 18 -4 21 -1 21 27 0 44
-26 66 -78 66 -49 0 -53 10 -15 40 l28 22 -3 176 c-5 298 -22 508 -59 707 -14
78 -18 86 -27 65 -8 -17 -8 -24 2 -28 9 -3 12 -56 11 -215 l-1 -212 -15 140
c-7 77 -12 169 -10 205 2 36 2 54 -1 40 -4 -20 -8 -11 -21 38 l-16 63 0 -183
c0 -101 -3 -273 -6 -383 -4 -110 -3 -164 0 -120 6 65 8 47 9 -99 2 -186 -9
-230 -19 -78 l-6 87 -2 -100 c-1 -90 -3 -98 -16 -81 -10 13 -15 43 -15 86 0
53 -3 67 -15 67 -8 0 -15 -5 -15 -11 0 -6 -7 -3 -14 7 -13 16 -15 11 -22 -50
-8 -63 -9 -53 -21 127 -11 184 -35 367 -53 414 -8 20 -8 20 -14 -4 -27 -112
-54 -368 -57 -545 l-1 -70 -13 70 c-7 39 -13 64 -14 58 -2 -19 -21 -16 -21 3
0 8 -4 13 -9 10 -14 -9 -21 49 -21 188 0 72 -5 174 -10 226 -32 324 -36 353
-50 345 -5 -3 -7 -34 -5 -68 12 -165 13 -232 4 -202 -5 17 -10 65 -10 108 -1
44 -5 74 -9 67 -4 -6 -13 23 -19 64 -7 42 -14 76 -17 76 -2 0 -4 -3 -4 -7z
m260 -858 l0 -436 -22 20 c-21 20 -21 22 -15 297 6 248 25 554 34 554 1 0 3
-196 3 -435z m-131 -179 c-3 -3 -15 -3 -27 1 -18 4 -20 8 -11 20 11 12 14 12
28 -1 8 -9 13 -18 10 -20z m318 19 c3 -9 3 -18 1 -21 -9 -9 -38 8 -38 22 0 19
29 18 37 -1z m-402 -25 c-5 -8 -11 -8 -17 -2 -6 6 -7 16 -3 22 5 8 11 8 17 2
6 -6 7 -16 3 -22z m455 5 c0 -8 -4 -15 -10 -15 -5 0 -10 7 -10 15 0 8 5 15 10
15 6 0 10 -7 10 -15z m-73 -124 c15 -19 17 -67 3 -76 -5 -3 -10 -21 -10 -38 0
-49 -10 -58 -49 -47 -17 5 -39 6 -47 3 -17 -6 -38 -44 -49 -88 -7 -30 -7 -30
-27 23 -23 62 -46 78 -91 63 -36 -13 -47 -3 -47 46 0 17 -4 35 -10 38 -5 3
-10 18 -10 33 1 26 1 26 18 -8 15 -30 22 -35 52 -36 23 0 35 -5 35 -15 0 -7
13 -26 28 -41 15 -15 27 -34 27 -42 0 -31 20 -26 34 9 8 19 22 38 31 41 8 3
15 17 15 29 0 21 3 23 34 18 31 -5 36 -2 51 27 20 40 16 52 -19 56 -33 3 -40
9 -32 22 8 13 48 2 63 -17z m-257 10 c0 -10 -40 -22 -52 -15 -18 11 -6 24 22
24 17 0 30 -4 30 -9z m-124 -266 c3 -11 -6 2 -20 28 -15 27 -26 63 -25 80 1
27 4 23 20 -28 11 -33 22 -69 25 -80z m479 87 c-3 -22 -13 -48 -22 -59 -14
-17 -14 -17 -8 2 3 11 9 34 12 50 7 44 13 59 19 52 3 -3 3 -24 -1 -45z m-349
-50 c16 -10 34 -48 34 -69 -1 -14 -9 -8 -35 21 -19 22 -35 43 -35 48 0 10 21
10 36 0z m214 0 c0 -5 -16 -26 -36 -48 l-35 -39 6 30 c4 17 14 38 22 48 17 18
43 23 43 9z m-410 -32 c9 -16 7 -26 -8 -48 -11 -15 -22 -34 -25 -42 -3 -10 -6
-6 -6 9 -1 23 19 101 25 101 2 0 8 -9 14 -20z m-117 -51 c-8 -29 -13 -23 -13
14 0 22 3 28 9 18 5 -7 6 -22 4 -32z m826 -31 c-1 -44 -22 -145 -33 -155 -5
-4 -6 8 -2 27 3 19 9 63 12 98 7 64 24 87 23 30z m-848 -92 c-7 -15 -20 25
-20 65 -1 58 14 56 19 -3 3 -29 3 -57 1 -62z m669 72 c0 -21 -3 -29 -10 -22
-5 5 -7 19 -4 32 9 31 14 27 14 -10z m-483 -10 c-3 -7 -5 -2 -5 12 0 14 2 19
5 13 2 -7 2 -19 0 -25z m179 6 c9 3 14 -1 14 -14 0 -24 -4 -25 -41 -3 -33 20
-40 40 -8 23 11 -7 27 -9 35 -6z m174 8 c0 -8 -52 -42 -64 -42 -3 0 -6 9 -6
20 0 13 5 18 14 14 8 -3 23 -1 33 5 22 13 23 13 23 3z m-213 -89 c19 -4 20 -9
12 -30 -10 -27 3 -53 26 -53 16 0 26 -25 19 -44 -9 -22 -34 -28 -50 -11 -18
17 -28 18 -71 6 -24 -7 -35 -6 -44 5 -12 15 -10 16 31 18 24 1 25 3 21 65 -3
59 -2 63 15 56 11 -4 29 -10 41 -12z m251 -45 l-3 -63 29 0 c16 0 31 -6 34
-14 4 -11 -6 -13 -51 -8 -43 5 -59 4 -71 -8 -18 -19 -21 -19 -40 1 -18 18 -6
54 19 54 18 0 29 35 16 57 -8 14 -4 20 22 29 18 6 36 12 40 13 5 0 7 -27 5
-61z m-538 11 c0 -10 -4 -19 -10 -19 -5 0 -10 12 -10 26 0 14 4 23 10 19 6 -3
10 -15 10 -26z m114 -68 c4 -6 5 -11 2 -11 -13 0 -47 83 -40 98 5 12 10 4 19
-29 7 -26 15 -52 19 -58z m556 10 c-11 -23 -22 -41 -24 -41 -2 0 6 26 18 58
11 31 22 49 24 40 2 -9 -6 -35 -18 -57z m334 -50 c51 -43 116 -96 144 -117 28
-21 50 -40 48 -42 -6 -6 -169 68 -191 86 -11 9 -39 45 -62 80 -66 97 -62 96
61 -7z m-1104 -20 c0 -12 -29 -35 -36 -28 -11 10 5 37 21 37 8 0 15 -4 15 -9z
m991 -15 c6 -13 19 -28 30 -32 24 -12 111 -95 105 -101 -3 -3 -197 107 -215
123 -8 7 33 33 52 34 9 0 22 -11 28 -24z m-813 -31 c17 -36 15 -112 -2 -118
-7 -3 -19 -27 -25 -54 -18 -70 -189 -457 -190 -428 -1 6 23 104 52 220 l54
209 38 21 c32 16 41 27 48 60 4 22 7 57 5 78 -4 43 4 48 20 12z m-248 -15 c0
-10 -55 -70 -65 -70 -11 0 17 45 39 62 25 21 26 21 26 8z m865 -56 c-7 -46
-25 -61 -25 -20 0 31 22 94 28 78 2 -7 1 -33 -3 -58z m-348 34 c-3 -8 -6 -5
-6 6 -1 11 2 17 5 13 3 -3 4 -12 1 -19z m96 15 c-7 -2 -14 -17 -14 -31 -1 -18
-3 -21 -6 -9 -6 24 3 47 19 46 10 0 10 -2 1 -6z m-80 -82 c15 -53 29 -56 44
-11 10 28 12 31 12 11 1 -13 -9 -39 -21 -59 l-21 -35 -18 54 c-17 53 -24 98
-14 87 3 -3 11 -24 18 -47z m-231 -83 c-9 -9 -12 -7 -12 12 0 19 3 21 12 12 9
-9 9 -15 0 -24z m505 -17 c-5 -44 -3 -54 25 -93 31 -41 60 -111 99 -232 11
-32 17 -61 15 -63 -4 -4 -144 265 -171 327 -15 34 0 110 22 110 13 0 15 -9 10
-49z m-258 -278 l-1 -278 -30 225 -31 224 29 53 c15 29 30 53 31 53 2 0 3
-125 2 -277z m485 -37 c14 -33 24 -61 22 -63 -3 -4 -82 112 -103 152 -15 29
-43 142 -43 173 0 17 18 -14 49 -88 26 -63 60 -142 75 -174z m-557 182 c-3 -8
-6 -5 -6 6 -1 11 2 17 5 13 3 -3 4 -12 1 -19z m-274 -136 c-20 -56 -38 -101
-40 -98 -10 10 20 124 44 164 14 24 26 42 28 40 2 -2 -13 -49 -32 -106z"/>
<path d="M952 2820 c0 -14 2 -19 5 -12 2 6 2 18 0 25 -3 6 -5 1 -5 -13z"/>
<path d="M1412 2725 c0 -16 2 -22 5 -12 2 9 2 23 0 30 -3 6 -5 -1 -5 -18z"/>
<path d="M1403 2645 c0 -27 2 -38 4 -22 2 15 2 37 0 50 -2 12 -4 0 -4 -28z"/>
<path d="M1392 2520 c0 -14 2 -19 5 -12 2 6 2 18 0 25 -3 6 -5 1 -5 -13z"/>
<path d="M1384 2350 c0 -52 1 -74 3 -47 2 26 2 68 0 95 -2 26 -3 4 -3 -48z"/>
</g>
</svg>
