<?xml version="1.0" standalone="no"?>
<!DOCTYPE svg PUBLIC "-//W3C//DTD SVG 20010904//EN"
 "http://www.w3.org/TR/2001/REC-SVG-20010904/DTD/svg10.dtd">
<svg version="1.0" xmlns="http://www.w3.org/2000/svg"
 width="244.000000pt" height="305.000000pt" viewBox="0 0 244.000000 305.000000"
 preserveAspectRatio="xMidYMid meet">
<metadata>
Created by potrace 1.16, written by Peter Selinger 2001-2019
</metadata>
<g transform="translate(0.000000,305.000000) scale(0.100000,-0.100000)"
fill="#000000" stroke="none">
<path d="M898 2904 c-9 -14 -44 -189 -63 -312 -18 -124 -35 -382 -35 -550 l0
-122 28 -11 c15 -5 37 -21 50 -35 l24 -25 33 30 c19 16 43 32 55 36 22 7 22 8
16 194 -11 302 -41 572 -75 686 -14 46 -13 15 4 -71 30 -162 47 -335 52 -549
l6 -221 -41 -27 c-23 -15 -44 -27 -47 -27 -3 0 -5 219 -4 488 0 281 4 479 9
467 10 -24 11 -1 1 35 -4 14 -10 20 -13 14z"/>
<path d="M1546 2833 c-45 -202 -68 -407 -82 -734 l-7 -167 43 -28 c24 -16 48
-33 55 -38 8 -6 30 2 64 24 l51 33 0 139 c0 80 -4 138 -10 138 -5 0 -7 -46 -4
-117 3 -65 2 -122 -3 -128 -10 -12 -70 -55 -78 -55 -3 0 -5 215 -4 478 0 275
4 469 9 457 8 -19 9 -19 9 3 1 12 -3 22 -8 22 -5 0 -7 9 -4 20 3 11 1 20 -5
20 -6 0 -17 -30 -26 -67z"/>
<path d="M1331 2855 c-1 -5 -3 -219 -3 -475 0 -293 -3 -432 -8 -375 -4 50 -8
137 -9 194 -1 58 -5 118 -10 135 -6 17 -17 68 -26 114 -10 46 -22 100 -27 120
-10 37 -11 37 -20 12 -6 -14 -20 -74 -33 -135 -13 -60 -25 -103 -28 -95 -3 8
-8 116 -11 240 -4 123 -10 228 -14 232 -4 4 -6 -203 -5 -460 0 -257 -2 -456
-7 -442 -4 14 -8 44 -9 68 -1 23 -5 42 -11 42 -5 0 -10 12 -10 28 0 15 -4 34
-10 42 -14 23 -30 -32 -37 -128 -6 -77 -5 -84 15 -98 12 -8 22 -25 22 -36 0
-21 0 -21 -25 2 -48 45 -133 19 -149 -46 -7 -27 -26 -33 -26 -8 0 28 -65 84
-98 84 -45 0 -84 -35 -80 -74 3 -28 6 -31 35 -28 41 4 89 -21 108 -58 14 -27
14 -30 -6 -49 -39 -36 -14 -130 57 -218 19 -23 34 -47 34 -53 0 -6 -16 -32
-35 -57 -57 -74 -40 -123 49 -143 34 -7 36 -6 47 27 6 19 8 37 5 40 -3 4 -6
-2 -6 -13 0 -16 -2 -17 -10 -4 -5 8 -10 31 -10 51 0 36 13 50 38 42 14 -5 16
-33 2 -33 -5 0 -10 -7 -10 -15 0 -27 29 -16 33 13 3 20 4 16 6 -14 2 -66 -16
-102 -62 -124 -22 -11 -46 -20 -53 -20 -6 0 -30 21 -54 46 -37 40 -41 50 -37
82 4 36 -14 149 -28 171 -11 18 -61 12 -81 -10 -26 -29 -22 -87 8 -141 14 -24
42 -72 63 -108 21 -36 44 -76 51 -90 8 -15 14 -56 14 -100 0 -41 4 -90 9 -107
11 -38 29 -13 -276 -372 -12 -14 -22 -23 -23 -19 0 4 37 74 82 155 198 360
193 346 159 445 -22 65 -41 96 -92 156 -23 27 -42 62 -49 93 -11 47 -11 53 14
100 14 28 26 57 26 65 0 37 -106 48 -141 13 -23 -23 -21 -54 7 -134 27 -78 14
-167 -26 -180 -19 -6 -21 -12 -15 -44 l6 -38 -123 -45 c-164 -61 -228 -81
-235 -75 -2 3 6 11 19 18 43 22 358 221 363 228 2 4 -2 27 -9 52 -7 24 -17 74
-20 112 -5 43 -11 65 -18 61 -7 -5 -8 -37 -4 -95 l7 -88 -33 5 c-31 5 -44 -5
-226 -172 -106 -97 -191 -178 -189 -180 2 -2 51 12 108 32 57 19 118 39 134
44 44 11 217 71 238 82 9 5 17 20 17 34 0 24 3 25 27 19 74 -18 127 -58 150
-112 16 -41 7 -58 -35 -66 -27 -5 -31 -15 -115 -288 -48 -155 -86 -284 -83
-286 5 -5 79 72 162 169 27 31 91 105 143 163 l94 107 -12 39 c-7 22 -9 44 -6
49 8 13 146 13 181 0 24 -9 26 -14 21 -48 -36 -239 -52 -330 -58 -321 -3 6 -9
-20 -11 -57 -3 -38 -4 -70 -3 -72 1 -1 17 53 34 120 45 172 46 175 59 103 12
-68 101 -495 105 -509 3 -8 16 53 68 304 42 207 51 250 55 250 2 0 10 -21 18
-47 19 -63 20 -34 1 37 -8 30 -15 69 -15 87 0 17 -4 35 -10 38 -12 8 -13 92
-1 99 5 4 14 -27 21 -66 6 -40 18 -113 25 -162 8 -49 15 -99 14 -110 0 -21 -1
-21 -10 -1 -8 17 -9 17 -4 -5 2 -14 5 -29 5 -35 0 -5 5 -3 11 5 8 11 9 8 4
-15 -3 -16 1 -50 9 -75 18 -59 19 -42 2 141 -8 85 -18 198 -22 252 l-6 97 48
2 c63 2 116 -1 122 -7 3 -2 -1 -25 -7 -50 l-11 -46 71 -82 c40 -45 109 -122
154 -172 45 -49 99 -109 120 -133 21 -23 40 -40 42 -38 8 8 -151 532 -168 552
-5 6 -23 14 -40 18 -29 5 -31 9 -25 37 13 65 80 123 152 131 24 2 30 -1 32
-20 4 -28 11 -31 152 -77 63 -21 162 -53 218 -72 57 -19 106 -33 108 -30 4 4
-25 32 -230 221 -133 122 -141 127 -173 121 l-33 -6 5 58 c4 32 8 67 10 78 2
11 0 26 -4 34 -10 15 -16 -15 -27 -132 l-6 -68 48 6 49 6 65 -63 c36 -35 99
-93 140 -130 41 -38 68 -68 61 -68 -15 0 -291 158 -348 199 -26 19 -43 42 -52
69 -13 37 -12 47 8 105 26 78 27 119 3 140 -27 24 -97 22 -122 -3 -21 -21 -20
-25 12 -72 11 -16 18 -44 18 -75 0 -53 -16 -84 -89 -178 -37 -47 -45 -65 -49
-110 -2 -29 1 -68 7 -88 10 -29 19 -37 56 -47 l45 -13 61 -191 c33 -105 64
-203 69 -219 17 -52 -5 -26 -59 71 -30 53 -92 161 -138 239 -60 104 -84 155
-88 190 -6 46 -4 53 66 168 80 134 98 198 64 235 -20 22 -67 27 -82 8 -13 -16
-25 -98 -23 -158 0 -39 -5 -51 -41 -92 -46 -53 -70 -60 -87 -24 -10 23 -9 25
21 31 40 9 77 42 77 70 0 21 -19 53 -52 89 -25 27 -24 32 22 98 42 59 70 124
70 163 0 12 -9 32 -20 45 -19 22 -19 24 -2 52 24 41 57 60 100 56 31 -2 37 0
40 18 2 11 -7 32 -18 47 -17 22 -30 27 -64 27 -47 0 -76 -23 -96 -75 l-11 -29
-18 39 c-10 22 -26 47 -35 54 -26 22 -84 17 -112 -10 l-24 -22 0 21 c0 12 9
27 20 34 24 15 27 83 9 170 -15 69 -26 80 -34 32 -4 -22 -8 -43 -9 -49 -2 -5
-6 143 -10 330 -7 300 -19 529 -25 500z m-56 -508 c24 -178 34 -455 18 -487
-15 -28 -17 -90 -4 -90 12 0 21 -63 14 -104 -3 -22 -12 -36 -24 -39 -17 -4
-19 0 -18 36 1 23 4 32 6 20 7 -36 23 -27 23 13 0 23 -4 33 -11 28 -11 -6 -10
27 6 206 4 36 2 83 -3 105 -9 35 -10 26 -13 -65 -1 -58 -6 17 -10 165 -4 149
-10 297 -12 330 -8 95 9 22 28 -118z m-202 -583 c21 -4 37 -12 37 -20 0 -20
-16 -25 -44 -13 -33 15 -40 8 -31 -30 8 -38 37 -56 65 -41 18 10 20 8 20 -29
0 -34 -4 -42 -27 -53 -16 -7 -32 -23 -38 -36 -5 -12 -13 -22 -17 -22 -15 0
-59 76 -64 112 -4 20 -13 39 -20 42 -24 9 -15 43 17 70 32 28 42 29 102 20z
m429 -21 c30 -29 37 -60 14 -69 -7 -3 -16 -22 -20 -42 -5 -36 -49 -112 -64
-112 -4 0 -12 10 -17 22 -6 13 -22 29 -37 36 -24 11 -28 19 -28 53 0 37 2 39
20 29 28 -15 57 3 65 41 8 38 3 44 -25 29 -27 -14 -50 -6 -50 18 0 16 9 19 57
20 50 1 61 -2 85 -25z m-572 -167 c11 -24 39 -64 60 -89 22 -25 40 -55 40 -68
0 -21 -3 -20 -39 15 -41 40 -84 112 -95 159 -10 42 10 32 34 -17z m640 3 c-14
-49 -56 -114 -97 -150 -57 -50 -56 -12 1 52 25 28 55 71 66 96 22 50 44 51 30
2z m-382 18 c13 -15 -1 -42 -17 -33 -13 8 -15 46 -2 46 5 0 13 -6 19 -13z
m122 -5 c0 -4 -5 -14 -10 -22 -9 -13 -11 -13 -19 0 -6 9 -6 19 1 27 10 12 28
9 28 -5z m-180 -103 c13 -48 10 -55 -19 -37 -14 9 -21 23 -21 45 0 48 27 43
40 -8z m107 -6 c-3 -10 -5 -2 -5 17 0 19 2 27 5 18 2 -10 2 -26 0 -35z m143
14 c0 -21 -7 -36 -20 -44 -25 -17 -31 -4 -19 40 13 47 39 50 39 4z m-333 -99
c-3 -7 -5 -2 -5 12 0 14 2 19 5 13 2 -7 2 -19 0 -25z m350 -10 c-3 -8 -6 -5
-6 6 -1 11 2 17 5 13 3 -3 4 -12 1 -19z m-307 2 c0 -5 -2 -10 -4 -10 -3 0 -8
5 -11 10 -3 6 -1 10 4 10 6 0 11 -4 11 -10z m55 -30 c-5 -8 -11 -8 -17 -2 -6
6 -7 16 -3 22 5 8 11 8 17 2 6 -6 7 -16 3 -22z m205 16 c0 -8 -4 -17 -9 -21
-12 -7 -24 12 -16 25 9 15 25 12 25 -4z m140 -87 c0 -44 -14 -52 -24 -14 -4
14 -11 23 -16 20 -6 -3 -10 3 -10 14 0 18 25 32 43 24 4 -2 7 -22 7 -44z
m-315 21 c3 -5 1 -10 -4 -10 -6 0 -11 5 -11 10 0 6 2 10 4 10 3 0 8 -4 11 -10z
m135 0 c0 -5 -4 -10 -10 -10 -5 0 -10 5 -10 10 0 6 5 10 10 10 6 0 10 -4 10
-10z m135 -115 c6 -30 6 -30 -10 4 -8 18 -14 54 -14 80 l2 46 8 -50 c4 -27 10
-63 14 -80z m-341 40 c7 -56 -7 -34 -18 30 -5 26 -4 36 2 30 5 -5 12 -32 16
-60z m243 33 c-3 -7 -5 -2 -5 12 0 14 2 19 5 13 2 -7 2 -19 0 -25z m32 -32
c-7 -31 -14 -54 -16 -52 -3 3 1 30 8 60 7 31 14 54 16 52 3 -3 -1 -30 -8 -60z
m-220 -32 c22 14 31 -5 14 -31 -16 -24 -17 -24 -30 -7 -7 10 -13 27 -13 38 0
16 2 18 9 7 5 -7 14 -10 20 -7z m181 -9 c0 -32 -26 -43 -48 -21 -13 13 -14 18
-4 28 10 10 15 10 22 -2 8 -12 10 -12 16 3 9 24 14 21 14 -8z m-223 -37 c-3
-8 -6 -5 -6 6 -1 11 2 17 5 13 3 -3 4 -12 1 -19z m120 -240 c-3 -8 -6 -5 -6 6
-1 11 2 17 5 13 3 -3 4 -12 1 -19z m-77 -54 c0 -8 -4 -12 -10 -9 -5 3 -10 13
-10 21 0 8 5 12 10 9 6 -3 10 -13 10 -21z m161 -7 c-8 -8 -11 -7 -11 4 0 20
13 34 18 19 3 -7 -1 -17 -7 -23z m-22 -19 c42 -43 46 -64 27 -150 -9 -40 -29
-134 -46 -208 l-29 -135 7 145 c9 192 9 330 -1 358 -12 32 5 28 42 -10z"/>
<path d="M1591 2797 c0 -9 8 -75 20 -145 11 -70 26 -199 34 -287 l14 -160 -4
135 c-4 128 -20 266 -49 410 -8 36 -14 57 -15 47z"/>
<path d="M1122 2640 c0 -14 2 -19 5 -12 2 6 2 18 0 25 -3 6 -5 1 -5 -13z"/>
<path d="M1312 2615 c0 -16 2 -22 5 -12 2 9 2 23 0 30 -3 6 -5 -1 -5 -18z"/>
<path d="M1114 2340 c0 -69 1 -97 3 -62 2 34 2 90 0 125 -2 34 -3 6 -3 -63z"/>
<path d="M1073 875 c0 -22 2 -30 4 -17 2 12 2 30 0 40 -3 9 -5 -1 -4 -23z"/>
<path d="M1062 770 c0 -19 2 -27 5 -17 2 9 2 25 0 35 -3 9 -5 1 -5 -18z"/>
<path d="M1052 650 c0 -19 2 -27 5 -17 2 9 2 25 0 35 -3 9 -5 1 -5 -18z"/>
</g>
</svg>
