<?xml version="1.0" standalone="no"?>
<!DOCTYPE svg PUBLIC "-//W3C//DTD SVG 20010904//EN"
 "http://www.w3.org/TR/2001/REC-SVG-20010904/DTD/svg10.dtd">
<svg version="1.0" xmlns="http://www.w3.org/2000/svg"
 width="244.000000pt" height="305.000000pt" viewBox="0 0 244.000000 305.000000"
 preserveAspectRatio="xMidYMid meet">
<metadata>
Created by potrace 1.16, written by Peter Selinger 2001-2019
</metadata>
<g transform="translate(0.000000,305.000000) scale(0.100000,-0.100000)"
fill="#000000" stroke="none">
<path d="M881 2875 c-54 -203 -90 -534 -91 -828 l0 -127 28 -11 c15 -6 39 -22
54 -36 l26 -25 22 25 c12 14 36 31 53 38 l30 13 -7 228 c-7 232 -22 392 -52
550 -26 131 -29 98 -5 -49 33 -206 63 -675 44 -698 -13 -16 -71 -55 -83 -55
-7 0 -10 155 -10 482 0 292 4 478 9 473 5 -6 11 -21 14 -35 l4 -25 2 26 c0 15
-5 42 -13 60 l-14 33 -11 -39z"/>
<path d="M1566 2877 c-52 -186 -81 -426 -92 -749 l-7 -207 34 -14 c19 -8 40
-21 48 -30 18 -23 22 -22 81 15 l51 32 -2 180 c-3 251 -35 575 -61 616 -6 10
-7 6 -4 -15 39 -216 70 -696 50 -749 -3 -9 -12 -16 -19 -16 -6 0 -20 -9 -30
-20 -45 -50 -45 -48 -45 443 0 254 4 477 9 494 5 18 6 35 1 38 -4 3 -11 -5
-14 -18z"/>
<path d="M1602 2775 c0 -16 2 -22 5 -12 2 9 2 23 0 30 -3 6 -5 -1 -5 -18z"/>
<path d="M1261 2630 c-2 -80 -3 -83 -15 -55 l-13 30 -12 -40 c-40 -141 -71
-407 -71 -620 0 -46 -4 -86 -9 -89 -4 -3 -13 27 -20 67 -35 217 -49 229 -72
61 -14 -95 -14 -94 47 -130 15 -9 19 -23 19 -62 0 -60 -16 -83 -45 -64 -30 19
-40 15 -40 -17 0 -32 22 -61 46 -61 8 0 25 11 38 25 32 34 39 31 32 -12 -6
-35 -4 -40 24 -55 24 -13 30 -24 30 -49 l0 -32 -26 26 c-14 14 -35 27 -47 29
-25 5 -77 -18 -77 -32 0 -5 12 -12 28 -15 15 -4 34 -10 42 -14 28 -14 49 -74
52 -151 3 -71 2 -75 -20 -78 -48 -7 -46 -65 3 -74 39 -6 22 -68 -18 -68 -21 0
-38 -25 -31 -43 6 -18 32 -30 45 -21 5 3 9 -1 9 -9 0 -10 -8 -13 -27 -9 -35 6
-43 18 -43 65 0 37 -1 37 -40 37 -21 0 -55 -8 -74 -17 -44 -21 -72 -10 -112
43 -22 29 -29 49 -30 88 -2 67 -14 138 -27 154 -25 32 -91 1 -102 -48 -7 -34
15 -87 90 -210 63 -104 66 -114 69 -205 2 -44 6 -91 10 -105 5 -21 -8 -41 -91
-136 -54 -61 -122 -139 -152 -173 -30 -34 -56 -60 -58 -57 -3 2 22 51 55 108
217 375 217 376 186 475 -19 62 -39 97 -91 155 -66 75 -79 146 -38 206 30 44
32 68 6 82 -29 15 -93 12 -119 -6 -28 -19 -28 -52 -2 -130 11 -32 20 -79 20
-103 0 -37 -5 -48 -35 -76 -33 -30 -35 -34 -24 -59 7 -14 10 -28 8 -29 -9 -8
-350 -127 -362 -127 -12 0 32 39 45 40 4 0 34 17 65 37 32 21 74 47 94 58 101
57 179 112 179 125 0 8 -7 40 -15 70 -8 30 -15 71 -15 90 0 19 -5 42 -11 50
-7 11 -9 -13 -7 -82 l4 -98 -36 5 c-33 5 -42 -1 -180 -126 -227 -206 -232
-211 -226 -216 3 -3 85 20 183 52 97 31 206 66 240 76 54 17 63 23 63 44 0 35
16 39 68 20 57 -21 100 -58 119 -103 17 -40 7 -57 -36 -65 -31 -7 -27 5 -126
-312 -31 -99 -63 -199 -72 -223 -8 -24 -13 -45 -11 -47 2 -3 44 39 93 93 48
53 124 136 169 183 143 152 160 176 145 200 -5 7 -9 26 -9 42 l0 27 89 0 c75
0 93 -3 121 -22 56 -39 59 -53 22 -91 -33 -34 -33 -35 -23 -88 12 -66 61 -303
96 -463 14 -65 25 -123 26 -130 2 -31 27 81 105 468 l36 178 -33 34 c-30 31
-31 34 -16 57 26 41 76 57 172 57 l87 0 -6 -27 c-21 -86 -46 -50 248 -367 56
-60 109 -118 119 -129 16 -19 17 -19 17 -2 0 10 -30 111 -66 224 -36 113 -74
231 -83 261 -15 46 -24 58 -55 75 -21 11 -38 23 -37 28 0 4 1 17 1 29 0 33 79
103 130 116 51 13 60 9 60 -23 0 -21 12 -27 133 -65 72 -23 181 -58 240 -77
60 -19 110 -33 113 -31 2 3 -35 41 -83 84 -49 43 -113 102 -143 129 -152 139
-149 137 -184 131 l-32 -6 3 97 c5 127 -12 103 -21 -30 l-7 -98 45 6 46 7 88
-78 c48 -43 114 -105 147 -137 l60 -59 -85 45 c-185 98 -305 173 -327 207 -28
41 -29 70 -3 145 11 32 20 69 20 82 0 52 -67 79 -134 53 -32 -12 -32 -34 -1
-85 42 -67 28 -129 -46 -213 -55 -63 -79 -112 -79 -165 0 -76 15 -102 67 -118
l47 -15 68 -204 c38 -113 67 -212 65 -220 -3 -10 -7 -7 -16 10 -6 14 -24 46
-40 72 -16 25 -40 66 -54 90 -13 23 -59 102 -102 173 -42 72 -79 144 -82 162
-7 44 6 77 76 189 34 53 66 117 73 141 9 39 8 48 -9 71 -21 29 -66 40 -87 23
-14 -11 -25 -77 -29 -161 -2 -35 -10 -56 -35 -87 -40 -51 -62 -59 -104 -39
-17 9 -50 16 -73 16 l-42 0 1 -40 c1 -46 -13 -63 -45 -57 l-24 4 23 8 c32 11
30 52 -3 65 -14 5 -25 16 -25 24 0 8 -3 21 -6 30 -4 11 0 16 14 16 19 0 32 18
32 45 0 8 -12 20 -27 27 -35 16 -38 32 -23 118 14 82 37 115 85 124 39 8 45
20 16 36 -33 17 -83 12 -108 -12 l-23 -21 0 24 c0 31 10 45 39 54 21 6 23 11
17 46 -7 45 2 49 32 14 33 -38 58 -32 80 19 15 33 1 59 -20 38 -15 -15 -45
-15 -54 0 -4 6 -7 32 -6 57 0 40 5 50 37 77 l38 31 -8 59 c-10 90 -26 155 -35
149 -4 -3 -13 -35 -20 -72 -24 -140 -32 -173 -39 -173 -5 0 -12 89 -16 198 -3
108 -14 235 -22 282 -9 47 -19 150 -23 230 -5 119 -7 130 -9 60z m-4 -470 c0
-151 -3 -202 -7 -155 -4 39 -7 174 -7 300 0 156 3 206 7 155 4 -41 7 -176 7
-300z m45 -204 c11 -300 11 -309 -8 -323 -17 -12 -19 -12 -23 4 -2 13 -6 11
-15 -11 -9 -23 -11 -7 -12 100 0 71 1 118 3 104 17 -122 16 -117 24 -85 12 54
10 102 -6 109 -8 3 -15 17 -15 31 0 15 4 24 10 20 7 -4 10 71 11 217 2 303 15
229 31 -166z m-52 -456 c0 -20 -5 -30 -15 -30 -10 0 -15 10 -15 30 0 20 5 30
15 30 10 0 15 -10 15 -30z m54 -457 c-10 -72 -15 -88 -23 -74 -9 14 -23 -39
-20 -74 2 -11 2 -46 2 -77 -1 -72 15 -77 19 -7 l3 51 32 -40 33 -41 -30 -133
c-17 -73 -40 -180 -51 -238 -11 -58 -23 -107 -25 -109 -3 -3 -4 128 -3 290 0
162 -2 308 -6 324 -5 21 -4 26 3 16 11 -15 11 -15 33 79 11 45 23 69 36 70 1
0 -1 -17 -3 -37z m-111 -14 c6 -45 0 -72 -14 -63 -12 7 -12 104 0 104 4 0 11
-19 14 -41z m24 -101 c-3 -8 -6 -5 -6 6 -1 11 2 17 5 13 3 -3 4 -12 1 -19z"/>
<path d="M1277 668 c-3 -18 -2 -55 3 -83 7 -47 7 -45 9 33 1 86 -3 104 -12 50z"/>
<path d="M1202 2675 c0 -16 2 -22 5 -12 2 9 2 23 0 30 -3 6 -5 -1 -5 -18z"/>
<path d="M745 1860 c-31 -12 -47 -36 -43 -65 3 -25 7 -27 49 -29 51 -2 73 -15
95 -58 13 -26 13 -29 -6 -45 -45 -39 -19 -117 88 -263 11 -15 8 -23 -22 -59
-45 -54 -52 -76 -31 -107 21 -32 57 -48 90 -40 24 6 26 10 20 34 -26 106 -17
118 74 89 44 -13 69 -17 80 -10 26 16 24 32 -6 44 -84 32 -137 66 -173 109
-42 51 -70 106 -70 140 0 32 15 23 29 -17 18 -50 114 -149 174 -179 43 -23 48
-23 54 -7 5 12 -3 24 -27 42 -82 62 -150 148 -150 189 0 13 -9 35 -20 49 -20
25 -20 25 1 54 23 33 56 44 99 35 28 -5 30 -3 30 24 0 33 -29 65 -66 74 -37
10 -77 -14 -98 -58 -18 -36 -21 -38 -30 -21 -37 62 -94 93 -141 75z"/>
<path d="M1435 1855 c-36 -20 -45 -32 -45 -67 0 -27 1 -27 43 -22 36 5 47 2
69 -17 37 -34 44 -65 18 -79 -13 -7 -20 -21 -20 -38 0 -16 -13 -48 -28 -73
-29 -44 -95 -109 -112 -109 -14 0 -43 -48 -36 -59 20 -32 170 87 218 174 31
56 33 58 36 32 4 -35 -37 -107 -91 -160 -38 -37 -126 -87 -154 -87 -19 0 -16
-40 3 -47 9 -3 44 3 78 14 34 11 67 18 74 15 15 -5 16 -49 1 -91 -6 -18 -8
-35 -5 -39 14 -13 81 0 103 20 33 31 28 61 -17 114 -36 40 -39 49 -28 64 104
142 136 235 88 260 -29 16 -25 38 16 76 29 28 43 34 80 34 40 0 44 2 44 25 0
39 -33 65 -84 65 -37 0 -48 -5 -70 -31 -14 -17 -26 -37 -26 -45 0 -25 -19 -15
-33 19 -25 58 -72 78 -122 52z"/>
</g>
</svg>
