<?xml version="1.0" standalone="no"?>
<!DOCTYPE svg PUBLIC "-//W3C//DTD SVG 20010904//EN"
 "http://www.w3.org/TR/2001/REC-SVG-20010904/DTD/svg10.dtd">
<svg version="1.0" xmlns="http://www.w3.org/2000/svg"
 width="244.000000pt" height="305.000000pt" viewBox="0 0 244.000000 305.000000"
 preserveAspectRatio="xMidYMid meet">
<metadata>
Created by potrace 1.16, written by Peter Selinger 2001-2019
</metadata>
<g transform="translate(0.000000,305.000000) scale(0.100000,-0.100000)"
fill="#000000" stroke="none">
<path d="M1539 2905 c-2 -6 -2 -234 1 -508 3 -328 2 -497 -5 -497 -5 1 -25 14
-44 30 l-34 29 6 218 c4 120 13 276 22 346 25 210 25 216 10 147 -8 -36 -20
-130 -27 -209 -8 -89 -15 -135 -19 -120 -4 13 -7 -71 -8 -187 -1 -163 -4 -214
-15 -229 -12 -17 -15 -12 -21 55 -3 41 -5 260 -3 487 2 226 1 409 -2 406 -12
-11 -29 -238 -39 -523 -7 -168 -15 -334 -18 -370 l-6 -65 -13 105 c-7 58 -18
155 -24 215 -10 107 -44 308 -59 348 -6 17 -10 12 -20 -27 -24 -97 -42 -205
-52 -311 -5 -60 -15 -164 -22 -230 l-13 -120 -7 64 c-4 35 -7 81 -7 102 0 32
-3 39 -20 39 -14 0 -20 -7 -21 -22 -1 -22 -1 -22 -7 2 -4 14 -5 201 -2 415 5
368 1 475 -13 353 -7 -64 -25 -270 -36 -428 -7 -102 -8 -107 -10 -42 -2 100
-56 460 -78 512 -4 11 -8 9 -13 -10 -5 -14 -8 -34 -8 -45 l-1 -20 9 20 c5 12
9 -182 9 -457 1 -263 -1 -478 -4 -478 -3 0 -21 10 -40 23 l-35 22 0 166 c0
192 13 368 41 558 10 74 17 136 14 139 -3 3 -5 1 -5 -4 0 -5 -9 -63 -20 -129
-25 -153 -38 -310 -46 -557 -7 -188 -6 -198 12 -204 10 -4 34 -21 52 -38 l33
-31 17 21 c9 12 29 29 43 38 25 15 28 16 43 1 25 -25 20 -43 -9 -37 -31 6 -61
-19 -82 -68 l-14 -35 -13 30 c-16 37 -43 61 -77 70 -36 9 -91 -37 -87 -73 3
-23 8 -26 47 -27 36 -1 48 -7 67 -31 27 -33 31 -66 9 -84 -18 -15 -19 -48 -4
-87 26 -68 54 -306 29 -248 -5 11 -9 38 -9 60 -1 22 -6 47 -12 55 -7 11 -8 2
-3 -31 4 -30 2 -49 -5 -53 -7 -5 -11 9 -11 42 0 42 -3 50 -24 60 -20 9 -29 7
-50 -9 -21 -17 -26 -29 -26 -65 0 -25 9 -62 20 -84 38 -75 21 -95 -23 -26 -42
66 -46 130 -13 192 l26 49 -21 18 c-12 9 -38 17 -60 17 -65 0 -85 -52 -54
-140 20 -57 19 -119 -4 -155 -18 -31 -334 -239 -352 -233 -5 2 49 61 121 132
l130 129 40 -7 c39 -6 40 -5 40 22 0 71 -14 182 -23 182 -6 0 -7 -33 -3 -90 4
-50 5 -90 1 -90 -3 0 -15 5 -25 10 -16 9 -44 -14 -196 -165 -98 -96 -176 -177
-173 -180 3 -3 103 30 222 72 194 69 217 80 217 100 0 12 4 24 9 27 10 6 101
-29 101 -39 0 -3 -18 -38 -40 -79 -22 -40 -40 -78 -40 -84 0 -13 55 17 87 48
23 21 63 27 63 10 0 -5 -17 -18 -37 -27 -34 -17 -39 -24 -59 -93 -113 -397
-134 -474 -132 -481 2 -5 65 67 141 159 196 238 219 263 213 232 -3 -14 -10
-56 -16 -95 -6 -38 -20 -126 -30 -194 -11 -69 -18 -126 -17 -128 2 -1 48 97
102 220 89 199 99 227 97 275 -2 40 1 52 12 52 27 0 64 -22 76 -46 12 -21 10
-27 -19 -59 -17 -20 -31 -37 -31 -39 0 -2 13 -73 30 -158 32 -170 38 -202 70
-368 12 -63 23 -116 25 -118 2 -2 6 16 10 40 4 24 15 86 25 138 10 52 28 147
40 210 12 63 28 148 36 189 l14 75 -30 31 c-16 17 -30 36 -30 41 0 16 52 61
79 67 23 6 23 4 17 -43 -6 -46 -1 -60 91 -264 53 -118 98 -214 99 -213 1 1 0
24 -3 50 -4 34 -9 45 -15 35 -6 -8 -7 -3 -3 17 3 17 -3 87 -15 155 -23 143
-24 153 -10 145 6 -4 45 -50 88 -103 118 -148 265 -322 268 -319 2 2 -6 35
-17 73 -11 38 -31 107 -43 154 -52 189 -97 334 -108 347 -6 7 -18 13 -28 13
-10 0 -23 7 -30 15 -25 31 18 28 67 -4 25 -17 48 -29 51 -27 2 3 -12 36 -32
74 -39 77 -39 79 28 106 51 21 52 21 62 -15 9 -31 16 -34 228 -110 121 -43
221 -77 223 -75 3 2 -76 83 -174 180 -162 160 -181 176 -205 170 l-28 -6 0 92
c0 107 -15 112 -24 8 -3 -40 -9 -89 -12 -108 l-6 -36 149 -101 c81 -55 166
-112 187 -127 21 -14 34 -26 28 -26 -13 0 -212 77 -295 113 -56 25 -57 26 -45
53 11 23 10 28 -10 44 -46 38 -52 95 -22 208 27 102 13 132 -61 132 -67 0 -85
-31 -49 -85 31 -46 27 -118 -10 -182 -16 -28 -34 -55 -40 -58 -24 -15 -23 8 3
59 42 83 38 160 -9 172 -41 10 -51 -2 -69 -80 -9 -42 -19 -76 -22 -76 -3 0 -3
35 0 78 4 57 4 67 -3 37 -5 -22 -9 -56 -10 -75 0 -27 -3 -31 -10 -20 -15 22
-1 133 26 218 28 85 29 101 9 128 -21 28 -18 48 11 83 22 26 33 31 70 31 40 0
44 2 44 25 0 32 -41 75 -72 75 -33 0 -65 -25 -87 -68 l-19 -37 -15 37 c-18 44
-58 72 -87 63 -26 -8 -27 15 -2 38 19 17 23 16 95 -35 11 -9 20 -10 25 -3 4 6
24 23 46 39 l38 29 -6 201 c-4 111 -11 253 -17 316 -16 181 -68 479 -80 455z
m-332 -557 c-3 -7 -5 -2 -5 12 0 14 2 19 5 13 2 -7 2 -19 0 -25z m-15 -348
l-9 -145 -2 166 c0 91 2 195 7 230 l7 64 3 -85 c1 -47 -2 -150 -6 -230z m-102
-146 c0 -8 -5 -12 -10 -9 -6 4 -8 11 -5 16 9 14 15 11 15 -7z m304 -5 c-3 -5
-10 -7 -15 -3 -5 3 -7 10 -3 15 3 5 10 7 15 3 5 -3 7 -10 3 -15z m-217 -66
c-3 -10 -5 -4 -5 12 0 17 2 24 5 18 2 -7 2 -21 0 -30z m-57 -44 c-10 -17 -30
-27 -30 -13 0 15 22 44 31 39 5 -4 5 -13 -1 -26z m-88 4 c0 -10 2 -59 2 -110
1 -103 -12 -109 -36 -18 -7 28 -18 56 -25 63 -17 18 -16 25 8 56 23 30 48 34
51 9z m337 4 c6 -8 8 -17 4 -20 -7 -8 -33 11 -33 24 0 13 16 11 29 -4z m120
-13 c25 -31 26 -38 7 -56 -7 -8 -17 -30 -21 -49 -8 -37 -32 -89 -41 -89 -3 0
-5 21 -3 48 1 26 -2 59 -5 73 -8 28 16 99 33 99 5 0 19 -12 30 -26z m-299 -71
c0 -26 -3 -34 -11 -26 -9 9 -3 63 7 63 2 0 4 -17 4 -37z m-40 -26 c0 -10 11
-22 25 -27 13 -5 33 -26 43 -47 l20 -38 16 39 c9 21 24 40 35 43 10 3 25 21
33 41 l14 37 18 -28 c15 -23 17 -32 8 -52 -10 -21 -19 -25 -51 -25 -40 0 -40
0 -58 -56 l-17 -56 -16 44 c-21 61 -27 68 -60 68 -29 0 -60 22 -60 43 0 7 7
23 16 36 13 18 18 20 25 10 5 -8 9 -22 9 -32z m-198 -57 c14 -34 14 -40 2 -40
-14 0 -34 38 -34 66 0 26 15 14 32 -26z m598 15 c0 -23 -36 -72 -46 -63 -6 7
28 88 38 88 4 0 8 -11 8 -25z m-470 -11 c0 -14 -4 -23 -10 -19 -5 3 -10 15
-10 26 0 10 5 19 10 19 6 0 10 -12 10 -26z m323 -9 c-7 -21 -13 -19 -13 6 0
11 4 18 10 14 5 -3 7 -12 3 -20z m-298 -76 c19 -36 12 -52 -10 -23 -14 18 -21
54 -10 54 2 0 12 -14 20 -31z m275 -9 c-7 -16 -16 -30 -21 -30 -12 0 -11 6 7
41 20 39 31 30 14 -11z m-220 -5 c0 -5 -5 -3 -10 5 -5 8 -10 20 -10 25 0 6 5
3 10 -5 5 -8 10 -19 10 -25z m-80 -90 c0 -22 -32 -4 -49 29 -8 14 -22 28 -33
32 -12 3 -18 15 -18 32 0 26 2 25 50 -25 28 -28 50 -59 50 -68z m410 90 c0
-18 -7 -28 -25 -35 -14 -5 -25 -14 -25 -20 0 -13 -37 -50 -50 -50 -21 0 -8 23
41 76 29 30 53 54 55 54 2 0 4 -11 4 -25z m-525 -94 c3 -5 1 -12 -5 -16 -5 -3
-10 1 -10 9 0 18 6 21 15 7z m215 -17 c0 -8 -4 -14 -10 -14 -5 0 -10 9 -10 21
0 11 5 17 10 14 6 -3 10 -13 10 -21z m134 1 c-4 -8 -10 -15 -15 -15 -5 0 -9 7
-9 15 0 8 7 15 15 15 9 0 12 -6 9 -15z m-259 -107 c0 -38 5 -53 19 -64 32 -23
38 -17 34 39 -3 55 -2 57 38 57 l26 0 -22 -18 c-28 -22 -20 -59 13 -64 16 -2
22 -10 22 -28 0 -24 -2 -25 -55 -21 -30 1 -61 8 -67 13 -19 15 -30 68 -25 111
6 52 17 36 17 -25z m373 -4 c-5 -75 -22 -97 -73 -92 -17 1 -36 -2 -44 -6 -7
-5 -17 -4 -23 2 -17 17 -4 46 22 52 35 8 41 57 8 69 -21 8 -20 8 10 13 l32 5
0 -59 c0 -32 3 -58 8 -58 30 1 55 57 46 106 -4 24 -2 34 6 34 9 0 11 -18 8
-66z m172 -8 c0 -22 -11 -46 -21 -46 -10 0 -12 43 -2 53 11 12 23 8 23 -7z
m-695 -25 c3 -5 1 -12 -5 -16 -5 -3 -10 1 -10 9 0 18 6 21 15 7z m552 -53 c-3
-8 -6 -5 -6 6 -1 11 2 17 5 13 3 -3 4 -12 1 -19z m191 -11 c-7 -14 -13 -17
-16 -9 -6 19 6 44 18 37 7 -4 6 -14 -2 -28z m-628 13 c0 -5 -2 -10 -4 -10 -3
0 -8 5 -11 10 -3 6 -1 10 4 10 6 0 11 -4 11 -10z m-154 -45 c4 -14 3 -29 0
-33 -9 -8 -26 18 -26 41 0 26 19 20 26 -8z m868 -81 c9 -20 15 -38 13 -41 -8
-7 -57 58 -51 68 10 17 20 9 38 -27z m-947 3 c-5 -15 -76 -71 -82 -65 -10 9
60 85 73 80 7 -2 11 -9 9 -15z m104 1 c3 -56 -8 -83 -95 -248 -51 -96 -110
-208 -131 -248 -21 -40 -39 -71 -41 -69 -2 2 16 73 42 158 25 85 54 184 64
220 19 63 21 66 60 78 43 13 60 34 60 78 0 46 39 75 41 31z m711 -34 c-3 -46
4 -65 114 -279 64 -127 121 -236 127 -243 5 -7 7 -15 4 -18 -3 -3 -68 76 -146
176 l-140 181 5 87 c7 121 13 154 27 149 8 -2 11 -21 9 -53z m-356 -73 c18 15
18 -2 0 -27 -14 -18 -15 -17 -30 18 -20 47 -20 62 0 25 12 -23 18 -26 30 -16z
m-291 -31 c0 -7 -6 -15 -12 -17 -8 -3 -13 4 -13 17 0 13 5 20 13 18 6 -3 12
-11 12 -18z m100 -24 c6 -39 -1 -62 -71 -229 -43 -103 -79 -185 -80 -184 -3 3
23 99 66 247 16 52 31 111 35 130 19 89 40 105 50 36z m439 36 c5 -9 66 -377
65 -395 0 -7 -5 -1 -10 13 -10 25 -109 375 -109 385 0 8 48 6 54 -3z m46 -19
c0 -26 -20 -71 -20 -47 0 6 -3 26 -6 43 -5 24 -3 31 10 31 11 0 16 -9 16 -27z
m-361 -96 c-12 -26 -11 -46 16 -317 2 -25 -11 29 -29 120 l-34 165 25 33 c28
38 39 37 22 -1z"/>
<path d="M1411 2774 c0 -11 3 -14 6 -6 3 7 2 16 -1 19 -3 4 -6 -2 -5 -13z"/>
<path d="M1512 2765 c0 -16 2 -22 5 -12 2 9 2 23 0 30 -3 6 -5 -1 -5 -18z"/>
<path d="M1082 2750 c0 -19 2 -27 5 -17 2 9 2 25 0 35 -3 9 -5 1 -5 -18z"/>
<path d="M1421 2674 c0 -11 3 -14 6 -6 3 7 2 16 -1 19 -3 4 -6 -2 -5 -13z"/>
<path d="M1092 2640 c0 -19 2 -27 5 -17 2 9 2 25 0 35 -3 9 -5 1 -5 -18z"/>
<path d="M1421 2634 c0 -11 3 -14 6 -6 3 7 2 16 -1 19 -3 4 -6 -2 -5 -13z"/>
<path d="M1433 2515 c0 -27 2 -38 4 -22 2 15 2 37 0 50 -2 12 -4 0 -4 -28z"/>
<path d="M1103 2465 c0 -44 2 -61 4 -37 2 23 2 59 0 80 -2 20 -4 1 -4 -43z"/>
<path d="M1114 2215 c0 -55 1 -76 3 -47 2 29 2 74 0 100 -2 26 -3 2 -3 -53z"/>
</g>
</svg>
