<?xml version="1.0" standalone="no"?>
<!DOCTYPE svg PUBLIC "-//W3C//DTD SVG 20010904//EN"
 "http://www.w3.org/TR/2001/REC-SVG-20010904/DTD/svg10.dtd">
<svg version="1.0" xmlns="http://www.w3.org/2000/svg"
 width="244.000000pt" height="305.000000pt" viewBox="0 0 244.000000 305.000000"
 preserveAspectRatio="xMidYMid meet">
<metadata>
Created by potrace 1.16, written by Peter Selinger 2001-2019
</metadata>
<g transform="translate(0.000000,305.000000) scale(0.100000,-0.100000)"
fill="#000000" stroke="none">
<path d="M906 2893 c-8 -20 -40 -187 -55 -288 -16 -104 -29 -287 -37 -496 -6
-184 -6 -187 15 -194 11 -3 35 -20 51 -37 l31 -31 27 25 c15 13 38 31 52 40
l25 15 -6 234 c-4 129 -14 293 -23 364 -15 117 -62 374 -70 383 -2 1 -7 -5
-10 -15z m43 -208 c30 -193 51 -434 51 -596 l0 -136 -40 -27 c-22 -14 -42 -26
-45 -26 -3 0 -5 217 -4 483 0 265 4 473 9 462 4 -12 18 -84 29 -160z"/>
<path d="M1102 2890 c0 -14 2 -19 5 -12 2 6 2 18 0 25 -3 6 -5 1 -5 -13z"/>
<path d="M1542 2853 c-53 -242 -81 -520 -82 -785 0 -133 2 -147 18 -152 10 -4
31 -19 46 -35 l28 -29 45 34 c24 19 49 34 55 34 13 0 3 396 -13 550 -12 115
-48 343 -56 350 -5 5 1 -48 22 -180 18 -111 33 -293 41 -505 l6 -170 -40 -32
c-23 -18 -43 -33 -46 -33 -3 0 -6 217 -5 483 0 312 4 475 10 462 8 -17 9 -17
4 5 -2 14 -5 33 -5 43 0 37 -16 14 -28 -40z"/>
<path d="M1361 2870 c-1 -8 -1 -206 -1 -440 0 -234 -3 -440 -6 -458 -14 -70
-24 -24 -26 121 -2 143 -2 147 -8 57 l-6 -95 -2 75 c-4 130 -48 415 -72 459
-5 9 -16 -23 -29 -82 -32 -137 -40 -203 -48 -375 -3 -84 -8 -151 -9 -149 -2 2
-9 158 -15 348 -17 532 -26 571 -28 129 -2 -212 -5 -379 -8 -372 -9 24 -32 12
-38 -20 -3 -18 -7 -71 -9 -118 l-3 -85 -29 3 c-39 4 -79 -28 -95 -75 l-12 -37
-18 37 c-24 45 -55 67 -96 67 -42 0 -73 -30 -73 -71 0 -28 2 -30 28 -24 39 8
75 -8 102 -45 21 -30 21 -31 4 -58 -33 -50 -16 -123 50 -219 20 -29 36 -55 36
-59 0 -3 -14 -24 -32 -46 -30 -38 -40 -80 -28 -117 3 -7 0 -15 -6 -18 -16 -6
-37 52 -30 81 3 14 2 44 -4 68 -5 24 -12 55 -15 71 -4 22 -11 27 -33 27 -48 0
-67 -22 -66 -77 0 -40 10 -65 58 -147 31 -55 55 -106 54 -115 -2 -10 -12 1
-26 28 -13 24 -43 68 -67 97 -30 38 -47 70 -56 108 -11 52 -11 57 15 99 14 25
26 52 26 61 0 35 -87 49 -128 20 -28 -19 -28 -51 -2 -150 24 -89 17 -135 -26
-169 -24 -19 -25 -24 -14 -44 6 -13 8 -27 3 -32 -12 -12 -335 -131 -340 -125
-3 3 15 17 39 32 23 15 72 46 108 69 36 23 97 63 136 88 40 25 75 50 78 56 4
6 0 37 -9 70 -8 32 -15 76 -15 97 0 22 -5 46 -11 54 -7 11 -9 -12 -6 -83 l4
-97 -32 6 c-31 6 -39 0 -142 -99 -59 -57 -141 -135 -181 -172 -39 -38 -70 -70
-68 -72 4 -4 437 140 456 152 6 3 10 15 10 26 0 30 23 33 71 9 56 -26 81 -48
97 -83 20 -47 15 -64 -22 -77 -19 -6 -36 -19 -39 -28 -3 -9 -22 -71 -42 -137
-76 -247 -124 -415 -119 -415 5 0 54 55 144 160 40 47 98 114 130 150 122 138
115 126 101 177 -6 25 -10 47 -9 48 2 2 26 5 53 6 57 3 53 16 42 -131 l-6 -85
14 98 c13 102 23 124 49 114 13 -5 13 -13 1 -64 -7 -32 -28 -128 -46 -213 -25
-119 -35 -149 -41 -130 -6 20 -7 18 -5 -12 2 -21 -1 -38 -5 -38 -4 0 -8 -16
-8 -37 0 -20 2 -34 5 -31 6 5 102 279 135 382 13 42 16 65 9 83 -12 31 -11 43
1 43 8 0 60 -46 60 -54 0 -1 -13 -18 -30 -36 -16 -18 -30 -41 -30 -49 0 -15
116 -613 123 -636 4 -11 105 484 123 603 6 39 4 46 -25 76 -35 36 -34 51 5 79
l25 19 -2 -41 c-2 -28 18 -102 67 -246 38 -114 70 -198 72 -187 2 11 -6 93
-17 183 -11 90 -23 197 -27 237 l-7 72 57 0 c61 0 62 -1 45 -63 l-10 -38 88
-102 c166 -193 295 -338 299 -334 5 5 -87 321 -143 489 -23 71 -28 79 -57 86
-27 8 -31 13 -30 40 2 46 37 87 99 117 61 30 85 28 85 -8 0 -28 -13 -22 278
-121 105 -36 192 -62 192 -58 0 4 -43 48 -96 97 -53 50 -135 127 -182 173 -80
75 -90 82 -120 77 l-32 -6 6 86 c5 54 3 85 -3 85 -10 0 -23 -97 -23 -168 l0
-34 41 7 c38 7 43 5 97 -46 174 -162 224 -210 220 -214 -5 -5 -240 129 -324
185 -54 35 -84 81 -84 128 0 15 9 54 20 86 25 74 25 91 0 116 -25 25 -90 27
-119 3 l-21 -18 25 -47 c41 -78 31 -135 -42 -230 -51 -67 -73 -115 -73 -160 0
-25 -3 -29 -10 -18 -20 32 -9 74 50 178 68 123 79 178 38 206 -27 19 -62 21
-75 4 -12 -15 -25 -107 -24 -155 2 -35 -23 -93 -39 -93 -13 0 -13 37 0 45 20
12 9 54 -25 99 -19 26 -35 48 -35 51 0 3 20 34 45 70 66 97 83 175 45 208 -20
17 -20 18 -3 48 25 44 55 61 99 57 43 -3 52 9 34 52 -30 73 -140 55 -165 -27
-9 -32 -19 -29 -34 12 -16 45 -39 57 -103 53 -49 -3 -52 -5 -63 -37 -9 -28
-13 -31 -18 -17 -10 25 -11 24 29 60 l37 34 -11 123 c-6 68 -14 223 -18 344
-5 190 -28 548 -33 505z m-87 -527 c4 -37 9 -81 12 -97 6 -27 -5 -381 -11
-374 -2 2 -6 100 -9 218 -4 118 -8 251 -11 295 -5 95 9 63 19 -42z m-124 -445
c0 -23 -3 -29 -11 -21 -6 6 -8 20 -4 32 9 30 15 26 15 -11z m190 -14 c0 -8 -4
-14 -10 -14 -5 0 -10 9 -10 21 0 11 5 17 10 14 6 -3 10 -13 10 -21z m-231 -73
l0 -36 -15 45 c-17 56 -17 55 1 40 9 -7 15 -28 14 -49z m187 -21 c0 -38 -4
-70 -8 -70 -10 0 -11 124 -1 133 3 4 7 7 8 7 0 0 1 -31 1 -70z m-235 -30 c25
-14 25 -33 -1 -25 -17 5 -20 2 -20 -22 0 -16 9 -39 20 -51 24 -25 26 -69 4
-100 -13 -19 -13 -22 0 -22 17 0 21 -5 30 -42 10 -42 -8 -34 -58 27 -28 35
-47 69 -51 94 -4 22 -13 45 -21 52 -21 17 -17 40 13 71 28 30 52 35 84 18z
m434 -15 c28 -27 32 -57 10 -75 -8 -7 -15 -25 -15 -40 0 -35 -89 -160 -115
-160 -10 0 7 55 22 67 11 9 12 16 4 32 -15 28 -14 78 2 88 8 4 19 23 25 41 9
28 9 34 -4 39 -9 3 -20 0 -26 -8 -7 -11 -8 -10 -6 6 3 17 30 31 66 34 7 1 24
-10 37 -24z m-345 -85 c0 -34 4 -42 24 -50 13 -5 27 -15 32 -22 4 -7 4 -10 -1
-6 -4 4 -17 2 -28 -4 -16 -8 -23 -7 -34 8 -15 21 -18 114 -3 114 6 0 10 -18
10 -40z m188 -10 c-5 -54 -22 -82 -44 -73 -21 8 -17 30 6 36 16 4 20 14 20 46
0 24 5 41 11 41 8 0 10 -17 7 -50z m-38 -15 c0 -2 -7 -5 -15 -9 -12 -4 -15 3
-15 32 l0 37 15 -29 c8 -15 15 -30 15 -31z m-370 -32 c0 -10 9 -33 21 -52 11
-18 19 -45 17 -59 -3 -23 -6 -21 -30 25 -28 51 -37 103 -18 103 6 0 10 -8 10
-17z m177 -5 c-3 -8 -6 -5 -6 6 -1 11 2 17 5 13 3 -3 4 -12 1 -19z m453 -28
c-5 -18 -22 -52 -37 -74 -41 -62 -43 -19 -2 60 33 66 56 75 39 14z m-311 -44
c-2 -23 -17 -60 -18 -46 -1 8 -4 24 -7 36 -4 14 -1 21 10 21 9 0 16 -5 15 -11z
m-101 -58 c11 -29 23 -61 27 -70 4 -10 3 -18 -3 -18 -5 0 -12 8 -15 18 -3 9
-15 41 -26 70 -12 28 -17 52 -12 52 4 0 17 -24 29 -52z m181 -29 c-13 -32 -27
-59 -31 -59 -11 0 -11 3 19 77 15 37 29 61 31 54 2 -7 -6 -39 -19 -72z m-298
-22 c-8 -8 -11 -7 -11 4 0 20 13 34 18 19 3 -7 -1 -17 -7 -23z m406 1 c-3 -8
-6 -5 -6 6 -1 11 2 17 5 13 3 -3 4 -12 1 -19z m-323 -31 c13 -20 5 -30 -18
-21 -9 3 -16 15 -16 26 0 22 18 20 34 -5z m276 10 c0 -14 -20 -37 -32 -37 -12
0 -10 24 4 38 16 16 28 15 28 -1z m-338 -144 c9 -35 12 -63 8 -63 -8 0 -40
105 -40 130 0 30 18 -7 32 -67z m379 1 c-7 -30 -17 -57 -23 -60 -8 -5 -9 1 -4
17 3 13 11 47 18 74 6 28 13 44 16 36 2 -7 -1 -38 -7 -67z m-103 48 c2 -7 -3
-12 -12 -12 -9 0 -16 7 -16 16 0 17 22 14 28 -4z m149 -4 c-3 -8 -6 -5 -6 6
-1 11 2 17 5 13 3 -3 4 -12 1 -19z m-307 2 c0 -5 -7 -10 -16 -10 -8 0 -12 5
-9 10 3 6 10 10 16 10 5 0 9 -4 9 -10z m209 -78 c-13 -63 -24 -81 -41 -64 -6
6 -22 12 -35 12 -16 0 -23 6 -23 19 0 28 18 36 47 20 31 -17 42 -2 43 61 1 38
3 41 10 22 6 -14 6 -41 -1 -70z m-281 37 c0 -47 26 -86 38 -56 5 14 44 25 44
13 0 -2 3 -11 6 -20 4 -11 -5 -20 -32 -31 -21 -8 -41 -12 -44 -8 -24 27 -41
143 -21 143 6 0 9 -18 9 -41z m-159 -58 c17 -11 7 -41 -13 -41 -19 0 -29 17
-22 35 6 17 15 18 35 6z m591 -26 c14 -16 6 -35 -16 -35 -8 0 -14 10 -14 25 0
28 12 32 30 10z m-669 -122 c-10 -17 -10 -16 -11 3 0 23 13 41 18 25 2 -6 -1
-18 -7 -28z m769 -46 c0 -5 -6 -5 -12 -1 -7 4 -1 -6 14 -22 15 -16 39 -31 53
-32 54 -4 63 -17 110 -170 26 -81 57 -180 70 -219 13 -40 21 -73 17 -73 -6 0
-102 168 -233 408 -30 54 -47 97 -47 119 0 31 1 32 14 16 7 -10 14 -22 14 -26z
m-746 -13 c3 -8 3 -26 0 -39 -3 -12 -1 -40 5 -61 12 -45 11 -47 -81 -157 -35
-41 -92 -109 -126 -152 -35 -42 -66 -74 -69 -72 -2 3 39 85 92 184 53 98 111
208 128 245 33 71 41 78 51 52z m366 -53 c0 -9 -20 -37 -20 -29 0 3 -2 13 -5
21 -4 8 0 14 10 14 8 0 15 -3 15 -6z m184 -193 c21 -101 39 -194 42 -208 2
-14 -21 49 -51 140 -60 179 -70 250 -35 250 4 0 23 -82 44 -182z m-124 77 l33
-34 -11 -58 c-7 -32 -21 -104 -32 -160 -30 -158 -41 -185 -35 -88 16 269 17
332 6 353 -17 33 0 27 39 -13z"/>
<path d="M1091 2804 c0 -11 3 -14 6 -6 3 7 2 16 -1 19 -3 4 -6 -2 -5 -13z"/>
<path d="M1342 2700 c0 -14 2 -19 5 -12 2 6 2 18 0 25 -3 6 -5 1 -5 -13z"/>
<path d="M1083 2640 c0 -36 2 -50 4 -32 2 17 2 47 0 65 -2 17 -4 3 -4 -33z"/>
<path d="M1333 2505 c0 -33 2 -45 4 -27 2 18 2 45 0 60 -2 15 -4 0 -4 -33z"/>
<path d="M1072 2500 c0 -19 2 -27 5 -17 2 9 2 25 0 35 -3 9 -5 1 -5 -18z"/>
<path d="M1072 2430 c0 -19 2 -27 5 -17 2 9 2 25 0 35 -3 9 -5 1 -5 -18z"/>
<path d="M1072 2330 c0 -19 2 -27 5 -17 2 9 2 25 0 35 -3 9 -5 1 -5 -18z"/>
<path d="M993 685 c0 -22 2 -30 4 -17 2 12 2 30 0 40 -3 9 -5 -1 -4 -23z"/>
<path d="M983 605 c0 -22 2 -30 4 -17 2 12 2 30 0 40 -3 9 -5 -1 -4 -23z"/>
</g>
</svg>
