<?xml version="1.0" standalone="no"?>
<!DOCTYPE svg PUBLIC "-//W3C//DTD SVG 20010904//EN"
 "http://www.w3.org/TR/2001/REC-SVG-20010904/DTD/svg10.dtd">
<svg version="1.0" xmlns="http://www.w3.org/2000/svg"
 width="244.000000pt" height="305.000000pt" viewBox="0 0 244.000000 305.000000"
 preserveAspectRatio="xMidYMid meet">
<metadata>
Created by potrace 1.16, written by Peter Selinger 2001-2019
</metadata>
<g transform="translate(0.000000,305.000000) scale(0.100000,-0.100000)"
fill="#000000" stroke="none">
<path d="M886 2888 c-57 -204 -96 -540 -96 -820 l0 -149 33 -14 c18 -7 41 -23
51 -34 19 -21 20 -21 40 -2 12 10 36 26 55 36 l34 17 -6 222 c-7 230 -17 349
-42 501 -16 89 -49 232 -39 165 3 -19 16 -107 29 -195 25 -172 52 -571 41
-626 -6 -32 -60 -89 -85 -89 -7 0 -11 160 -11 481 0 321 3 478 10 474 12 -7
13 25 1 43 -6 10 -10 8 -15 -10z"/>
<path d="M1570 2884 c0 -11 -4 -24 -9 -29 -9 -10 -42 -183 -61 -315 -15 -108
-30 -356 -30 -497 0 -113 1 -122 20 -128 11 -4 34 -18 51 -32 25 -22 34 -24
48 -15 9 7 33 22 55 34 l38 23 -5 225 c-6 238 -26 430 -57 570 -22 94 -19 61
11 -134 26 -171 48 -628 30 -634 -6 -2 -25 -15 -40 -28 -16 -13 -34 -24 -40
-24 -14 0 -15 936 -1 945 10 6 8 40 -3 51 -4 4 -7 -2 -7 -12z"/>
<path d="M1252 2610 c-2 -27 -5 -31 -12 -20 -9 13 -10 13 -10 0 0 -13 -1 -13
-10 0 -7 11 -10 5 -10 -25 0 -22 -9 -84 -20 -138 -20 -100 -40 -344 -40 -496
0 -109 -14 -96 -36 34 -29 175 -42 183 -63 42 -16 -113 -15 -120 20 -141 40
-24 54 -60 39 -108 -11 -37 -40 -52 -55 -28 -12 19 -25 10 -25 -18 0 -57 65
-80 90 -31 14 26 34 24 27 -2 -8 -29 8 -66 31 -73 10 -4 26 -22 35 -41 21 -43
30 -44 48 -2 8 17 27 38 43 46 25 12 28 17 23 47 -7 43 4 50 31 19 33 -38 63
-31 82 19 13 34 -2 58 -22 38 -24 -24 -47 -13 -59 27 -14 47 1 96 31 106 38
12 42 29 30 127 -6 51 -17 99 -24 106 -11 12 -15 3 -25 -52 -6 -36 -16 -96
-22 -132 -16 -94 -29 -63 -29 71 0 144 -16 314 -40 445 -11 58 -21 130 -23
160 -2 32 -4 40 -5 20z m7 -445 c3 259 3 260 17 175 14 -88 34 -447 34 -608 0
-87 -1 -93 -22 -101 -19 -7 -24 -5 -29 13 -5 17 -7 14 -11 -14 -2 -19 -4 7 -4
58 1 51 4 83 8 70 3 -14 6 2 7 40 1 35 -3 62 -9 62 -7 0 -9 118 -8 338 l3 337
5 -315 5 -315 4 260z"/>
<path d="M753 1863 c-29 -5 -53 -40 -53 -74 0 -25 2 -26 43 -22 36 4 48 1 74
-21 43 -36 50 -63 24 -87 -12 -11 -21 -32 -21 -49 0 -33 60 -154 96 -191 30
-32 30 -40 -2 -70 -36 -33 -57 -77 -50 -104 7 -29 69 -59 103 -50 22 5 24 10
18 33 -26 105 -18 113 81 86 62 -16 66 -16 82 0 16 16 16 18 -2 32 -11 8 -27
14 -36 14 -25 0 -111 57 -148 98 -39 42 -71 106 -72 140 0 35 14 26 34 -23 23
-54 118 -148 178 -175 23 -10 44 -17 46 -15 11 10 -10 54 -28 60 -25 8 -104
85 -130 127 -11 18 -20 46 -20 61 0 15 -7 30 -15 33 -23 9 -18 52 11 81 22 22
32 25 70 20 41 -4 44 -3 44 20 0 36 -15 59 -49 73 -43 17 -102 -12 -116 -57
-11 -40 -20 -41 -37 -6 -23 46 -77 75 -125 66z"/>
<path d="M1435 1858 c-30 -17 -44 -40 -45 -70 0 -27 1 -27 44 -22 41 6 48 4
75 -24 36 -35 39 -57 11 -72 -12 -7 -20 -21 -20 -38 0 -49 -68 -135 -154 -195
-14 -10 -26 -27 -26 -37 0 -25 1 -25 59 4 62 32 145 117 168 173 21 49 33 55
33 16 0 -75 -108 -193 -210 -230 -56 -21 -68 -38 -39 -56 13 -8 35 -5 85 11
53 17 70 19 76 9 11 -17 10 -51 -2 -83 -9 -21 -8 -31 4 -42 21 -21 88 -1 105
32 17 30 8 55 -35 107 -30 36 -33 44 -22 59 105 142 132 225 89 262 -43 37 19
108 95 108 40 0 44 2 44 24 0 41 -33 71 -78 71 -47 0 -78 -23 -100 -75 l-15
-35 -17 40 c-9 22 -23 45 -31 51 -22 18 -72 25 -94 12z"/>
<path d="M1084 1579 c-11 -4 -25 -14 -33 -22 -11 -14 -7 -17 26 -23 21 -4 44
-12 52 -18 23 -18 39 -67 46 -142 l7 -71 -32 -11 c-26 -10 -31 -16 -28 -39 2
-20 10 -29 28 -33 18 -4 26 -14 28 -32 3 -23 -2 -28 -29 -35 -62 -17 -64 -58
-3 -69 36 -7 36 -6 37 -48 0 -19 3 -33 6 -31 8 9 31 -56 25 -67 -11 -17 -44
34 -44 67 0 39 -13 58 -41 62 -30 5 -39 19 -39 66 0 36 -1 37 -39 37 -21 0
-55 -7 -75 -15 -32 -14 -39 -14 -65 0 -47 24 -76 73 -77 130 -2 66 -14 137
-27 153 -13 17 -62 15 -81 -4 -42 -42 -31 -91 51 -220 75 -119 85 -146 88
-234 1 -41 5 -87 9 -101 8 -30 12 -25 -173 -236 -68 -79 -126 -141 -129 -138
-3 2 2 15 10 27 8 13 68 117 133 233 116 207 117 210 112 261 -7 67 -37 134
-86 192 -50 61 -81 120 -81 156 0 16 14 52 30 82 l31 52 -23 16 c-13 9 -43 16
-70 16 -37 0 -50 -5 -62 -22 -21 -29 -20 -53 4 -123 11 -32 20 -78 20 -103 0
-37 -5 -49 -34 -76 -30 -27 -32 -34 -24 -59 6 -16 8 -30 7 -31 -11 -10 -353
-126 -361 -124 -5 2 70 52 169 112 244 147 220 122 200 205 -9 38 -17 87 -17
109 0 23 -5 44 -12 48 -8 5 -10 -18 -5 -90 l5 -97 -33 7 c-31 6 -40 0 -132
-82 -210 -188 -283 -257 -279 -261 3 -3 26 2 53 10 451 144 433 138 433 163 0
38 25 39 94 5 51 -25 68 -39 87 -75 26 -50 19 -69 -29 -79 -30 -6 -35 -21
-141 -357 -16 -52 -39 -122 -49 -155 -11 -33 -18 -62 -15 -65 2 -2 18 11 36
31 65 71 341 375 359 395 18 20 18 24 4 59 -9 20 -13 41 -10 46 3 5 45 9 93 9
75 0 93 -3 121 -22 56 -39 59 -53 21 -92 l-33 -34 52 -253 c29 -140 60 -288
68 -329 19 -90 10 -115 92 280 l63 301 -34 35 c-37 38 -35 51 15 88 22 17 46
22 128 24 l101 4 -7 -29 c-21 -86 -40 -57 240 -358 56 -61 111 -122 123 -135
14 -17 20 -20 21 -10 0 8 -32 116 -71 240 -39 124 -75 241 -81 260 -13 46 -32
66 -69 74 -32 6 -36 23 -15 64 20 39 55 68 109 92 55 25 77 21 77 -13 0 -26
-7 -23 303 -122 98 -31 180 -55 183 -52 4 4 -328 307 -368 335 -11 8 -30 11
-47 7 l-29 -6 5 93 c4 62 2 90 -5 83 -5 -5 -13 -54 -16 -107 l-7 -98 44 6 c44
6 45 6 133 -72 49 -43 111 -99 137 -124 27 -25 53 -46 58 -48 5 -2 9 -8 9 -13
0 -13 -20 -3 -194 96 -211 120 -202 114 -220 152 -21 43 -20 75 4 143 25 70
25 95 0 120 -36 36 -140 20 -140 -21 0 -8 11 -31 25 -51 43 -63 26 -140 -50
-223 -68 -73 -91 -157 -65 -232 9 -24 21 -33 58 -44 l47 -15 58 -174 c77 -234
88 -272 77 -265 -5 3 -43 65 -85 138 -42 73 -99 170 -127 217 -116 197 -116
185 -3 365 75 120 88 166 55 208 -23 29 -70 37 -87 15 -12 -16 -25 -98 -24
-151 1 -44 -16 -82 -51 -113 -33 -31 -61 -37 -94 -19 -16 8 -48 15 -71 15 -40
0 -41 -1 -40 -34 1 -41 -17 -66 -49 -66 -19 0 -24 -7 -29 -37 -3 -21 -15 -57
-26 -81 -10 -23 -19 -48 -19 -55 0 -6 21 -34 45 -62 36 -39 45 -55 40 -73 -7
-28 -47 -214 -78 -362 l-22 -105 -3 308 c-1 193 -6 307 -12 307 -6 0 -10 7
-10 15 0 8 6 15 13 15 16 0 28 24 48 93 10 37 18 47 34 47 12 0 28 6 37 13 21
16 6 57 -20 57 -10 0 -27 9 -37 20 -21 23 -8 47 28 52 17 2 22 10 22 33 0 23
-5 30 -25 35 -30 7 -34 24 -25 106 8 79 37 126 83 135 18 4 36 10 39 13 10 10
-18 34 -47 41 -33 8 -110 -41 -110 -70 0 -16 -2 -17 -9 -6 -7 11 -10 7 -14
-15 l-4 -29 -2 30 c-1 23 -3 27 -11 15 -8 -12 -10 -10 -10 9 0 13 -3 22 -6 19
-3 -3 -16 4 -30 17 -28 26 -62 35 -90 24z"/>
<path d="M1257 788 c-3 -13 -1 -57 3 -98 l7 -75 2 98 c1 96 -2 118 -12 75z"/>
</g>
</svg>
