<?xml version="1.0" standalone="no"?>
<!DOCTYPE svg PUBLIC "-//W3C//DTD SVG 20010904//EN"
 "http://www.w3.org/TR/2001/REC-SVG-20010904/DTD/svg10.dtd">
<svg version="1.0" xmlns="http://www.w3.org/2000/svg"
 width="244.000000pt" height="305.000000pt" viewBox="0 0 244.000000 305.000000"
 preserveAspectRatio="xMidYMid meet">
<metadata>
Created by potrace 1.16, written by Peter Selinger 2001-2019
</metadata>
<g transform="translate(0.000000,305.000000) scale(0.100000,-0.100000)"
fill="#000000" stroke="none">
<path d="M1561 2898 c-1 -9 -4 -24 -8 -34 -4 -12 -3 -15 5 -10 9 5 12 -109 12
-473 0 -265 -3 -481 -7 -481 -4 0 -25 12 -46 27 l-40 28 6 230 c4 138 14 288
26 375 11 80 22 165 25 190 5 42 5 43 -4 10 -30 -110 -57 -367 -66 -641 l-6
-196 30 -12 c16 -7 40 -23 53 -37 l22 -23 33 28 c18 16 42 32 53 36 19 6 21
14 21 73 0 126 -20 447 -36 572 -21 170 -71 400 -73 338z"/>
<path d="M899 2900 c-5 -25 -4 -52 3 -56 5 -3 8 -217 7 -475 0 -495 -1 -497
-44 -449 -10 11 -24 20 -32 20 -16 0 -18 232 -3 426 10 122 45 386 57 429 3
13 2 17 -5 10 -11 -12 -48 -236 -62 -381 -5 -55 -12 -191 -16 -302 l-6 -202
28 -10 c16 -6 41 -22 55 -36 l26 -24 18 20 c11 12 34 28 53 37 l35 17 -7 200
c-9 248 -29 450 -62 620 -22 111 -40 175 -45 156z"/>
<path d="M1328 2730 c-4 -69 -11 -206 -15 -305 l-7 -180 -13 90 c-7 49 -23
130 -35 180 l-22 90 -13 -45 c-31 -99 -52 -244 -63 -425 -7 -104 -16 -197 -21
-205 -5 -9 -9 186 -10 450 -2 512 -13 526 -25 32 -5 -241 -10 -312 -20 -308
-8 3 -15 -19 -23 -70 -16 -106 -14 -151 5 -162 26 -15 3 -21 -44 -12 -52 9
-84 -12 -103 -67 l-12 -37 -19 40 c-26 52 -44 64 -93 64 -42 0 -65 -15 -78
-53 -12 -32 2 -45 42 -40 30 4 43 0 68 -21 43 -36 49 -60 25 -91 -18 -23 -19
-30 -8 -79 12 -52 56 -139 76 -151 5 -3 15 -15 20 -25 9 -16 4 -27 -25 -58
-19 -22 -38 -53 -41 -69 -5 -26 -1 -34 31 -61 26 -21 36 -36 32 -47 -9 -21
-38 -6 -68 37 -18 24 -23 47 -26 107 -4 111 -13 135 -50 139 -40 4 -73 -29
-73 -74 0 -32 21 -75 104 -219 64 -109 62 -130 -34 -300 -40 -71 -87 -152
-103 -180 -17 -27 -44 -75 -60 -105 -51 -95 -60 -93 -28 6 10 32 40 127 66
210 l47 150 44 13 c54 16 67 38 67 111 0 62 -8 81 -71 164 -76 98 -88 160 -47
226 14 22 25 45 25 51 0 40 -105 54 -140 19 -25 -25 -25 -50 0 -120 45 -127
29 -153 -164 -268 -177 -105 -216 -126 -216 -113 0 5 19 26 43 47 23 21 82 75
132 122 89 83 90 84 132 78 42 -5 43 -5 43 23 0 74 -14 180 -23 174 -6 -3 -7
-38 -3 -90 l7 -84 -33 6 c-31 6 -40 0 -138 -91 -161 -149 -261 -246 -257 -251
2 -2 108 31 235 72 224 74 231 77 237 105 8 37 25 38 90 2 54 -29 95 -81 95
-119 0 -18 -7 -25 -30 -30 -17 -3 -35 -14 -40 -23 -12 -23 -156 -488 -165
-532 -6 -33 -6 -33 12 -12 10 11 92 103 183 203 208 231 201 221 183 273 -7
22 -12 43 -9 45 7 7 135 5 147 -3 7 -4 9 -22 5 -48 -11 -75 -46 -430 -45 -456
1 -24 1 -23 10 5 5 17 7 36 4 43 -3 7 -1 11 3 8 4 -2 23 52 41 120 19 68 38
124 41 124 4 0 10 -19 13 -42 6 -46 107 -541 111 -546 2 -1 20 82 40 185 20
104 48 238 60 298 l24 110 16 -38 c9 -20 23 -65 31 -100 19 -80 57 -193 50
-148 -3 18 -5 49 -5 68 0 19 -4 32 -8 29 -5 -3 -19 54 -31 127 -12 73 -27 155
-33 184 -6 28 -8 58 -5 65 6 17 181 25 191 9 4 -6 0 -26 -8 -45 -17 -42 -25
-29 138 -216 180 -206 239 -270 243 -266 5 4 -45 176 -123 423 -43 139 -45
143 -77 151 -89 23 9 162 123 174 21 3 26 -2 28 -24 3 -26 14 -30 243 -107
131 -43 239 -76 239 -71 0 4 -19 25 -42 46 -24 20 -95 86 -158 144 -173 161
-175 163 -210 155 l-30 -7 7 91 c4 66 3 91 -6 91 -6 0 -11 -17 -11 -43 0 -23
-7 -69 -15 -100 -8 -32 -15 -63 -15 -70 0 -7 46 -41 103 -76 209 -132 288
-184 284 -188 -3 -3 -202 67 -339 119 -29 11 -32 19 -19 53 7 15 2 26 -22 45
-40 35 -47 101 -18 184 26 74 26 101 1 126 -24 24 -95 27 -125 4 -20 -15 -20
-15 8 -65 46 -82 37 -130 -45 -235 -59 -75 -76 -116 -85 -194 l-6 -59 100
-183 c56 -101 113 -205 128 -231 14 -27 25 -51 22 -53 -4 -4 -11 3 -137 151
-166 195 -162 190 -151 232 6 21 11 70 11 108 0 79 9 103 94 244 45 76 56 104
56 138 0 34 -5 46 -24 59 -29 18 -66 15 -76 -6 -17 -33 -31 -121 -25 -150 5
-25 1 -40 -21 -71 -37 -54 -63 -68 -81 -43 -12 17 -13 16 -13 -6 0 -23 0 -23
-21 -4 -32 29 -49 68 -52 121 -2 46 -1 48 27 51 l28 4 -7 -66 c-5 -56 -4 -67
9 -72 23 -9 75 15 93 42 19 29 11 52 -33 105 -33 39 -34 43 -19 63 46 62 76
114 85 146 15 53 12 101 -6 115 -15 11 -15 14 0 47 20 41 61 63 106 56 39 -6
50 23 23 61 -45 59 -122 47 -157 -26 -19 -39 -21 -39 -44 9 -10 18 -30 39 -46
47 -24 11 -34 11 -67 -2 -34 -13 -39 -13 -39 -1 0 8 7 17 15 20 18 7 18 67 1
163 -14 79 -31 89 -40 24 -4 -26 -10 -66 -14 -88 -4 -22 -9 167 -12 420 -4
348 -7 430 -12 335z m-115 -570 c-4 -168 -7 -300 -9 -295 -1 6 -6 64 -11 130
-7 117 -8 118 -14 55 -4 -36 -5 -9 -2 60 2 69 11 174 19 234 8 61 14 114 14
120 0 5 2 7 4 5 3 -2 2 -141 -1 -309z m-66 -282 c-3 -8 -6 -5 -6 6 -1 11 2 17
5 13 3 -3 4 -12 1 -19z m53 -85 c0 -23 -3 -48 -6 -57 -5 -14 -8 -14 -22 0 -15
15 -14 18 2 30 14 10 17 21 13 42 -3 17 -9 43 -12 58 l-5 29 14 -30 c9 -16 15
-49 16 -72z m-131 -29 c21 -5 31 -12 31 -25 0 -22 -12 -24 -40 -7 -26 17 -35
5 -24 -34 7 -25 17 -35 42 -43 45 -13 44 -50 -2 -87 -19 -16 -39 -28 -45 -28
-18 0 -51 52 -51 81 0 17 -9 37 -20 46 -27 24 -25 39 9 74 30 30 46 33 100 23z
m435 -25 c31 -37 31 -40 6 -69 -11 -13 -20 -32 -20 -42 0 -22 -15 -55 -37 -80
-14 -16 -18 -15 -54 15 -30 25 -39 39 -39 64 0 25 3 30 19 26 22 -6 49 19 57
53 8 32 -2 41 -26 26 -28 -17 -40 -15 -40 7 0 20 18 27 77 30 24 1 37 -6 57
-30z m-294 -79 c0 -22 -4 -40 -9 -40 -16 0 -42 31 -35 42 4 6 9 5 15 -3 5 -9
10 -5 14 14 10 38 15 34 15 -13z m-277 -84 c10 -24 33 -62 52 -84 32 -36 45
-72 28 -72 -14 0 -77 76 -94 115 -19 41 -25 85 -11 85 4 0 15 -20 25 -44z
m637 22 c0 -31 -35 -99 -75 -144 l-34 -39 -1 30 c0 19 7 35 18 42 10 6 32 38
48 72 30 64 44 76 44 39z m-376 3 c3 -5 -1 -15 -10 -22 -13 -10 -17 -10 -24 1
-5 8 -6 18 -4 22 7 11 31 10 38 -1z m116 -10 c0 -11 -4 -22 -9 -25 -12 -8 -34
21 -26 34 11 17 35 11 35 -9z m-194 -97 c8 -43 4 -48 -24 -28 -20 14 -30 53
-16 67 13 13 34 -7 40 -39z m284 21 c0 -13 -10 -33 -22 -45 -25 -23 -39 -26
-34 -7 3 6 7 24 10 39 3 14 14 29 24 31 9 3 18 5 20 6 1 0 2 -10 2 -24z m-163
-32 c-3 -10 -5 -2 -5 17 0 19 2 27 5 18 2 -10 2 -26 0 -35z m-72 -37 c8 -25
12 -46 9 -46 -5 0 -21 40 -30 78 -11 43 6 18 21 -32z m146 -17 c-6 -16 -10
-18 -10 -7 -1 22 12 55 16 42 2 -6 -1 -22 -6 -35z m136 -11 c-3 -7 -5 -2 -5
12 0 14 2 19 5 13 2 -7 2 -19 0 -25z m-377 -20 c0 -18 -2 -20 -9 -8 -6 8 -7
18 -5 22 9 14 14 9 14 -14z m337 -10 c-3 -7 -5 -2 -5 12 0 14 2 19 5 13 2 -7
2 -19 0 -25z m-272 -8 c11 -17 -5 -32 -21 -19 -8 6 -14 15 -14 20 0 12 27 11
35 -1z m225 -4 c0 -8 -4 -17 -9 -21 -12 -7 -24 12 -16 25 9 15 25 12 25 -4z
m-352 -70 c-2 -10 -7 -13 -17 -7 -8 6 -11 16 -7 27 8 21 30 4 24 -20z m6 -111
c-9 -22 -19 -34 -21 -28 -3 7 3 27 11 44 9 18 17 53 18 78 l2 46 3 -50 c3 -32
-2 -65 -13 -90z m65 88 c16 -66 22 -108 13 -98 -19 21 -42 135 -27 135 2 0 8
-17 14 -37z m101 27 c0 -5 -7 -10 -16 -10 -8 0 -12 5 -9 10 3 6 10 10 16 10 5
0 9 -4 9 -10z m130 -6 c0 -8 -4 -12 -10 -9 -5 3 -10 10 -10 16 0 5 5 9 10 9 6
0 10 -7 10 -16z m84 -51 c-7 -32 -13 -62 -14 -67 0 -5 -2 -7 -5 -4 -9 8 19
128 29 128 2 0 -2 -26 -10 -57z m-260 -52 c8 -12 11 -11 22 3 13 19 34 14 34
-8 0 -12 -40 -46 -54 -46 -10 0 -26 76 -25 115 l2 40 6 -45 c4 -25 10 -51 15
-59z m221 24 c-8 -66 -22 -80 -54 -54 -19 16 -21 22 -11 34 10 12 16 13 27 3
20 -16 32 5 34 57 0 22 3 34 6 27 3 -7 2 -38 -2 -67z m-112 -302 c-5 -12 -7
-12 -14 -1 -13 20 -11 28 5 22 8 -3 12 -12 9 -21z m-126 -65 c-11 -83 -76
-343 -84 -334 -3 3 55 350 63 380 11 34 26 -1 21 -46z m41 18 c4 -20 -6 -51
-14 -43 -3 3 -8 20 -10 37 -4 24 -2 31 8 28 7 -3 15 -12 16 -22z m182 2 c0
-36 -14 -52 -29 -34 -9 11 -10 20 -1 35 14 28 30 27 30 -1z m-130 -22 c0 -8
-4 -26 -10 -40 -6 -16 -4 -97 6 -237 8 -117 13 -216 11 -222 -1 -5 -11 33 -21
84 -10 52 -26 128 -36 169 -10 41 -21 99 -25 128 -7 50 -5 55 27 91 36 42 48
49 48 27z"/>
<path d="M1450 1281 c0 -14 5 -19 15 -14 17 6 15 25 -3 31 -7 2 -12 -5 -12
-17z"/>
<path d="M1412 830 c0 -19 2 -27 5 -17 2 9 2 25 0 35 -3 9 -5 1 -5 -18z"/>
<path d="M1422 730 c0 -19 2 -27 5 -17 2 9 2 25 0 35 -3 9 -5 1 -5 -18z"/>
<path d="M1433 640 c0 -25 2 -35 4 -22 2 12 2 32 0 45 -2 12 -4 2 -4 -23z"/>
</g>
</svg>
