<?xml version="1.0" standalone="no"?>
<!DOCTYPE svg PUBLIC "-//W3C//DTD SVG 20010904//EN"
 "http://www.w3.org/TR/2001/REC-SVG-20010904/DTD/svg10.dtd">
<svg version="1.0" xmlns="http://www.w3.org/2000/svg"
 width="244.000000pt" height="305.000000pt" viewBox="0 0 244.000000 305.000000"
 preserveAspectRatio="xMidYMid meet">
<metadata>
Created by potrace 1.16, written by Peter Selinger 2001-2019
</metadata>
<g transform="translate(0.000000,305.000000) scale(0.100000,-0.100000)"
fill="#000000" stroke="none">
<path d="M950 2910 c-8 -15 -6 -57 2 -67 6 -7 6 -188 2 -476 l-7 -465 -35 26
-34 27 6 230 c3 127 13 289 21 360 15 137 18 171 11 164 -18 -17 -44 -355 -47
-593 -2 -167 0 -189 15 -198 28 -16 57 -51 48 -60 -5 -5 -21 -4 -36 2 -15 5
-34 10 -42 10 -24 0 -64 -47 -64 -75 0 -22 4 -25 38 -25 61 0 118 -72 85 -106
-18 -18 -22 -61 -9 -114 7 -29 6 -33 -5 -22 -18 17 -49 15 -70 -4 -16 -15 -20
-15 -41 0 -29 20 -82 21 -102 0 -20 -20 -20 -52 0 -140 15 -61 15 -78 4 -115
-11 -38 -24 -53 -89 -100 -83 -61 -247 -169 -257 -169 -8 0 43 58 153 173 90
95 95 98 128 91 l35 -6 0 59 c0 81 -11 153 -22 153 -7 0 -7 -34 -3 -91 l7 -92
-25 7 c-21 5 -37 -7 -114 -87 -111 -113 -243 -260 -238 -265 1 -2 67 22 146
52 79 31 147 56 152 56 4 0 -4 -20 -19 -45 -14 -25 -23 -45 -19 -45 4 0 64 29
133 65 69 36 131 65 138 65 14 0 44 -60 44 -86 0 -8 -15 -20 -33 -27 -29 -13
-34 -21 -49 -83 -10 -38 -42 -165 -73 -283 -30 -118 -54 -216 -51 -218 2 -2
19 18 39 44 107 145 147 195 147 181 0 -9 -7 -50 -16 -92 -8 -42 -14 -82 -12
-88 5 -13 39 42 134 212 114 204 112 200 102 237 -12 46 -3 56 44 50 42 -6 98
-49 98 -75 0 -8 -11 -27 -25 -44 -16 -19 -23 -37 -20 -51 3 -12 9 -49 14 -82
25 -157 92 -540 96 -544 3 -2 5 -1 5 2 0 7 45 283 79 482 27 154 26 171 -4
207 -23 27 -24 33 -12 52 19 29 75 56 116 56 l34 0 -7 -50 c-7 -54 1 -73 103
-250 27 -47 71 -122 96 -168 26 -46 49 -81 51 -79 3 2 -5 48 -16 101 -12 53
-20 102 -18 108 2 6 37 -34 78 -88 89 -121 95 -126 86 -94 -4 14 -34 131 -66
260 -75 293 -77 300 -100 300 -35 0 -44 26 -25 75 9 25 19 45 22 45 2 0 75
-36 160 -80 86 -44 158 -78 160 -77 1 2 -11 25 -28 51 -16 27 -28 50 -26 52 1
2 37 -10 78 -27 101 -42 160 -61 166 -56 2 3 -18 29 -45 58 -27 30 -95 105
-152 167 -85 93 -107 112 -128 110 l-26 -3 1 95 1 95 -15 -90 c-24 -146 -25
-143 33 -189 29 -23 100 -77 158 -120 59 -43 105 -81 103 -83 -4 -3 -46 13
-112 42 -16 8 -46 20 -67 28 -25 11 -48 33 -75 74 -22 32 -50 73 -62 90 -26
35 -26 81 0 194 11 51 11 60 -4 83 -19 28 -61 35 -97 16 -13 -7 -21 -7 -25 0
-3 5 -21 10 -40 10 -40 0 -48 -15 -39 -84 l7 -51 -27 28 c-27 29 -32 46 -18
62 13 15 32 88 32 122 0 17 -7 36 -15 43 -23 19 -18 39 20 77 30 30 40 34 65
29 27 -5 30 -3 30 22 0 46 -26 74 -69 72 -55 -3 -61 -1 -61 15 0 8 14 22 32
31 l31 16 -6 207 c-8 244 -28 471 -57 634 -11 66 -20 124 -20 130 0 6 -3 7 -7
4 -3 -4 -6 -216 -5 -471 0 -484 -2 -508 -41 -493 -15 6 -16 53 -16 487 1 265
-1 483 -3 486 -5 5 -33 -225 -48 -396 -5 -58 -9 -157 -10 -221 0 -137 -9 -217
-21 -197 -7 11 -11 10 -19 -2 -8 -13 -10 -12 -11 5 l0 20 -9 -20 c-5 -11 -9
-36 -9 -55 -1 -19 -5 -41 -10 -48 -4 -7 -11 60 -14 155 -7 171 -27 334 -51
414 l-13 44 -12 -41 c-21 -77 -42 -248 -48 -402 -3 -84 -10 -155 -15 -158 -4
-3 -8 12 -8 33 0 41 -19 86 -20 48 -1 -18 -2 -17 -15 5 -9 16 -15 19 -15 10
-1 -10 -4 -9 -10 5 -6 13 -9 -8 -9 -64 -1 -71 -4 -87 -23 -110 l-23 -27 -1
201 c-1 418 -9 794 -16 763 -4 -18 -10 -55 -14 -83 l-7 -50 -22 90 c-13 50
-24 88 -25 85z m565 -1000 c3 -5 1 -10 -4 -10 -6 0 -11 5 -11 10 0 6 2 10 4
10 3 0 8 -4 11 -10z m-91 -40 c-6 -6 -18 -8 -27 -4 -13 5 -14 10 -6 26 10 19
12 19 27 4 11 -11 13 -19 6 -26z m-340 14 c8 -22 8 -24 -8 -24 -18 0 -29 16
-21 30 9 15 22 12 29 -6z m-87 -31 c-3 -3 -11 -2 -17 2 -8 5 -7 11 2 22 12 15
13 14 16 -1 2 -10 1 -20 -1 -23z m493 12 c0 -8 -7 -15 -15 -15 -8 0 -15 7 -15
15 0 8 7 15 15 15 8 0 15 -7 15 -15z m-83 -117 c20 -16 25 -59 8 -77 -8 -10
-15 -34 -15 -54 0 -44 -12 -53 -51 -37 -46 19 -73 2 -97 -62 l-20 -53 -11 43
c-13 46 -42 82 -65 82 -8 0 -27 -5 -42 -10 -33 -13 -44 -1 -44 47 0 17 -4 35
-10 38 -5 3 -10 18 -10 33 1 26 1 26 18 -8 15 -31 22 -35 55 -35 31 0 37 -3
37 -21 0 -13 8 -24 20 -27 11 -3 27 -21 35 -41 9 -20 18 -36 21 -36 3 0 10 13
15 29 6 16 21 37 35 46 13 8 24 24 24 35 0 16 5 18 33 13 38 -6 54 8 59 52 2
20 -1 29 -9 28 -21 -4 -65 16 -58 27 7 11 52 3 72 -12z m-277 6 c0 -16 -35
-32 -47 -22 -21 17 -15 28 17 28 17 0 30 -3 30 -6z m-144 -211 c13 -37 23 -72
21 -77 -6 -17 -57 100 -57 129 0 39 8 27 36 -52z m529 41 c-3 -20 -11 -47 -17
-60 -20 -44 -25 -25 -9 36 17 65 38 83 26 24z m-375 -64 c19 -10 44 -69 34
-79 -7 -7 -63 60 -64 77 0 15 6 15 30 2z m220 -3 c0 -17 -56 -84 -64 -76 -4 3
-2 19 4 35 16 42 60 72 60 41z m-425 -60 c-3 -7 -12 -23 -20 -37 -8 -14 -12
-34 -9 -45 4 -16 3 -17 -5 -5 -14 20 -14 54 1 101 11 37 12 38 25 19 8 -12 12
-26 8 -33z m-128 -19 c-2 -13 -4 -3 -4 22 0 25 2 35 4 23 2 -13 2 -33 0 -45z
m868 -135 c-3 -24 -11 -43 -17 -43 -7 0 -8 16 -2 48 5 26 9 65 10 87 2 63 7
65 12 5 2 -30 1 -74 -3 -97z m-886 60 c1 -46 -2 -64 -9 -57 -15 15 -24 78 -16
109 11 44 24 18 25 -52z m201 21 c0 -8 -5 -12 -10 -9 -6 4 -8 11 -5 16 9 14
15 11 15 -7z m175 1 c18 -1 37 -35 20 -35 -11 0 -49 23 -65 39 -13 13 -13 14
5 7 11 -5 29 -9 40 -11z m195 10 c0 -6 -62 -45 -72 -45 -20 0 -4 21 25 34 36
16 47 19 47 11z m135 -4 c3 -5 1 -12 -5 -16 -5 -3 -10 1 -10 9 0 18 6 21 15 7z
m-363 -88 c23 -4 26 -8 18 -24 -16 -30 -11 -49 15 -59 32 -12 35 -55 5 -63
-11 -3 -20 -1 -20 3 0 15 -37 21 -79 11 -31 -7 -43 -6 -52 5 -12 15 -9 16 31
18 24 1 25 3 22 65 -3 59 -2 63 15 57 10 -4 30 -10 45 -13z m266 -45 l-3 -63
33 3 c27 2 33 -1 30 -15 -4 -19 -10 -19 -67 -9 -23 5 -41 2 -58 -9 -19 -13
-27 -14 -39 -4 -23 19 -17 48 12 59 23 9 26 15 21 44 -5 31 -3 34 26 44 18 5
36 10 40 11 5 1 7 -27 5 -61z m-469 -18 c0 -8 -6 -4 -13 9 -8 14 -11 32 -8 40
5 12 8 10 13 -9 4 -14 7 -32 8 -40z m617 -19 c-27 -51 -36 -44 -13 10 12 29
23 45 25 36 2 -9 -4 -29 -12 -46z m-576 -53 c0 -18 -27 11 -33 35 -6 22 -6 22
14 -2 10 -13 19 -28 19 -33z m810 -29 c0 -18 -2 -19 -15 -9 -15 12 -12 30 6
30 5 0 9 -10 9 -21z m48 0 c7 -12 11 -23 8 -26 -8 -9 -36 17 -36 33 0 20 13
17 28 -7z m-1069 -13 c13 -16 -25 -44 -130 -96 l-64 -31 70 69 c70 70 102 85
124 58z m146 -26 c21 -41 19 -106 -4 -131 -10 -11 -22 -35 -25 -52 -7 -33 -12
-44 -92 -212 -26 -55 -60 -127 -76 -160 -40 -84 -35 -49 26 180 l52 200 42 20
c36 17 42 25 51 65 6 27 6 61 1 83 -10 44 3 49 25 7z m663 -57 c-9 -60 -14
-71 -25 -60 -8 9 16 117 26 117 4 0 4 -26 -1 -57z m317 10 c19 -20 35 -40 35
-46 0 -12 -82 55 -88 71 -7 23 18 11 53 -25z m-649 -110 c6 -2 17 17 24 42 7
25 15 44 17 41 9 -8 -9 -72 -27 -95 l-18 -24 -15 29 c-8 16 -18 48 -22 69 -6
39 -5 39 12 -9 10 -27 23 -51 29 -53z m-232 -25 c10 -41 6 -76 -13 -110 -10
-18 -51 -93 -91 -166 -39 -73 -74 -132 -76 -129 -4 4 42 133 75 210 11 26 32
63 47 82 20 27 24 41 19 64 -12 57 24 102 39 49z m503 0 c-3 -8 -6 -5 -6 6 -1
11 2 17 5 13 3 -3 4 -12 1 -19z m84 -58 c36 -157 34 -161 -25 -70 -35 55 -38
64 -31 106 5 35 10 44 23 42 11 -2 21 -25 33 -78z m39 -20 c0 -11 31 -81 97
-219 24 -51 42 -95 40 -98 -11 -10 -127 162 -132 196 -4 20 -10 55 -16 78 -12
53 -11 66 1 58 6 -3 10 -10 10 -15z m19 -259 c11 -47 18 -88 15 -90 -4 -4 -12
16 -60 149 l-34 95 30 -34 c21 -25 34 -58 49 -120z"/>
<path d="M926 2798 c-3 -13 -5 -36 -5 -53 1 -21 4 -15 10 20 8 52 6 72 -5 33z"/>
<path d="M1462 2800 c0 -14 2 -19 5 -12 2 6 2 18 0 25 -3 6 -5 1 -5 -13z"/>
<path d="M1043 2745 c0 -22 2 -30 4 -17 2 12 2 30 0 40 -3 9 -5 -1 -4 -23z"/>
<path d="M1478 2760 c-3 -14 -9 -61 -12 -105 -2 -44 -3 -69 0 -55 3 14 9 34
15 45 6 12 9 48 7 80 -2 43 -5 53 -10 35z"/>
<path d="M1051 2643 c-1 -23 3 -44 7 -47 4 -2 6 12 4 32 -5 56 -10 62 -11 15z"/>
<path d="M1067 2455 c3 -66 7 -122 9 -124 6 -7 2 109 -6 179 -6 45 -7 29 -3
-55z"/>
<path d="M1492 2510 c0 -19 2 -27 5 -17 2 9 2 25 0 35 -3 9 -5 1 -5 -18z"/>
<path d="M1083 2175 c0 -27 2 -38 4 -22 2 15 2 37 0 50 -2 12 -4 0 -4 -28z"/>
</g>
</svg>
