<?xml version="1.0" standalone="no"?>
<!DOCTYPE svg PUBLIC "-//W3C//DTD SVG 20010904//EN"
 "http://www.w3.org/TR/2001/REC-SVG-20010904/DTD/svg10.dtd">
<svg version="1.0" xmlns="http://www.w3.org/2000/svg"
 width="244.000000pt" height="305.000000pt" viewBox="0 0 244.000000 305.000000"
 preserveAspectRatio="xMidYMid meet">
<metadata>
Created by potrace 1.16, written by Peter Selinger 2001-2019
</metadata>
<g transform="translate(0.000000,305.000000) scale(0.100000,-0.100000)"
fill="#000000" stroke="none">
<path d="M1549 2905 c-6 -35 -5 -55 2 -55 5 0 9 -214 9 -475 0 -261 -3 -475
-7 -475 -4 0 -25 12 -46 27 l-40 28 6 220 c6 224 24 414 53 563 9 46 14 85 11
88 -6 7 -44 -199 -56 -311 -16 -146 -35 -589 -25 -592 9 -3 55 -33 84 -54 24
-17 120 56 120 91 -1 93 -22 462 -30 540 -21 186 -73 448 -81 405z"/>
<path d="M903 2861 c-7 -21 -15 -58 -17 -82 -4 -39 -4 -38 6 9 6 28 14 52 19
52 4 0 8 -211 8 -470 0 -258 -3 -470 -6 -470 -4 0 -25 12 -46 27 l-40 28 6
217 c4 119 16 286 27 370 20 155 25 226 9 153 -28 -136 -55 -487 -59 -758 0
-10 10 -21 23 -26 13 -5 37 -21 54 -35 28 -24 32 -24 44 -10 8 9 30 27 49 39
l36 22 -3 184 c-2 101 -10 252 -19 334 -15 145 -55 390 -71 433 -7 19 -10 17
-20 -17z"/>
<path d="M1326 2372 c1 -271 -2 -455 -6 -427 -5 28 -9 131 -10 230 -1 107 -5
170 -10 155 -8 -25 -8 -24 -9 5 -1 32 -33 190 -49 240 l-9 30 -12 -40 c-6 -22
-19 -82 -28 -132 -9 -51 -20 -93 -25 -93 -4 0 -9 66 -9 148 -1 81 -5 194 -9
252 -4 67 -8 -67 -9 -370 -3 -464 -6 -498 -31 -342 -18 109 -31 98 -51 -43
-12 -84 -12 -86 11 -110 25 -26 21 -47 -4 -25 -23 19 -82 16 -105 -4 -11 -10
-26 -34 -32 -54 l-12 -36 -19 40 c-26 51 -44 64 -88 64 -44 0 -80 -33 -80 -74
0 -27 2 -28 38 -21 33 5 44 2 70 -20 40 -34 49 -61 26 -86 -13 -15 -16 -29
-11 -69 6 -52 23 -90 68 -150 14 -19 29 -40 32 -47 4 -6 -8 -30 -27 -52 -19
-23 -38 -51 -41 -62 -9 -27 19 -68 56 -81 31 -11 37 -29 15 -47 -10 -8 -19 -6
-40 10 -44 34 -58 75 -62 172 -4 98 -13 117 -54 117 -39 0 -60 -28 -60 -81 0
-35 10 -62 46 -124 109 -191 114 -213 60 -310 -279 -508 -268 -491 -217 -325
108 351 99 327 129 335 51 12 70 32 77 80 11 70 -2 109 -57 183 -28 37 -57 81
-65 99 -19 46 -16 103 7 141 37 61 19 92 -54 92 -36 0 -76 -27 -76 -53 0 -6 9
-44 20 -82 39 -136 27 -158 -134 -256 -189 -115 -246 -148 -246 -141 0 3 26
30 58 60 31 30 94 90 138 133 76 74 84 79 109 69 14 -5 31 -10 36 -10 10 0 12
90 2 168 -10 85 -24 39 -17 -54 l6 -81 -34 1 c-31 1 -50 -14 -211 -168 -97
-93 -175 -171 -173 -173 2 -2 84 24 182 57 99 34 201 68 227 76 40 13 49 20
54 44 7 36 7 36 72 9 38 -16 58 -33 81 -67 16 -25 30 -52 30 -60 0 -7 -18 -21
-39 -29 -31 -12 -41 -22 -47 -47 -3 -17 -26 -96 -51 -176 -74 -243 -92 -304
-98 -335 l-7 -30 29 31 c42 46 308 355 334 387 19 26 21 34 12 73 -6 25 -8 46
-4 48 7 5 72 8 119 7 31 -1 32 -3 34 -43 l1 -43 4 38 c3 24 9 37 19 37 16 0
18 -34 5 -95 -5 -22 -17 -94 -27 -160 -15 -99 -20 -114 -25 -85 -6 29 -7 25
-8 -25 -1 -33 -3 -82 -6 -110 -3 -37 3 -21 25 60 16 61 35 130 42 154 16 60
16 58 79 -264 l53 -269 28 139 c15 77 39 198 53 270 39 198 35 187 50 140 18
-55 17 -44 -1 50 -23 114 -28 165 -17 176 8 8 39 -158 59 -311 l4 -35 -14 40
c-18 51 -20 24 -2 -35 8 -29 15 -39 20 -30 3 8 4 3 1 -11 -2 -14 2 -46 10 -70
13 -41 14 -41 10 -9 -5 33 -34 390 -38 455 l-2 30 74 3 c47 2 77 -1 81 -8 4
-6 2 -28 -3 -50 -10 -37 -10 -39 58 -121 38 -46 110 -130 159 -187 50 -57 106
-122 124 -144 17 -22 32 -35 32 -29 0 16 -40 156 -106 376 -52 170 -69 205
-101 205 -23 0 -32 33 -18 65 18 42 63 82 114 100 50 17 61 13 61 -21 0 -13 2
-24 4 -24 2 0 108 -36 235 -79 127 -44 231 -77 231 -74 0 3 -55 58 -122 122
-68 64 -151 142 -185 174 -55 53 -65 58 -92 52 l-30 -6 6 92 c5 69 3 90 -5 85
-7 -4 -12 -30 -12 -57 0 -27 -7 -66 -15 -86 -21 -51 -19 -80 8 -94 12 -7 81
-50 152 -97 72 -47 147 -96 168 -109 22 -14 37 -26 35 -29 -5 -4 -346 121
-356 130 -3 3 0 18 7 32 11 25 9 29 -20 53 -42 36 -49 93 -20 178 27 81 27
118 -1 137 -42 30 -128 15 -128 -22 0 -9 9 -30 20 -47 23 -35 27 -109 8 -152
-7 -15 -34 -56 -60 -91 -48 -63 -77 -138 -80 -204 -1 -32 45 -135 123 -275 10
-17 43 -80 74 -140 57 -108 57 -108 20 -68 -33 35 -86 99 -228 274 -31 38 -37
51 -31 76 3 17 7 66 9 110 2 87 11 109 91 241 23 39 47 89 53 112 18 65 -12
116 -65 110 -25 -3 -29 -9 -41 -68 -7 -36 -11 -78 -8 -93 12 -70 -101 -190
-118 -125 -4 12 -5 22 -4 23 41 14 80 40 86 57 11 29 -3 69 -35 99 -32 30 -30
53 7 100 60 76 86 184 53 220 -19 21 -13 45 21 82 21 22 35 27 70 27 42 0 45
2 45 25 0 31 -41 75 -70 75 -36 0 -77 -28 -95 -65 -19 -41 -20 -40 -43 7 -23
44 -64 64 -102 48 -16 -7 -32 -19 -35 -28 -6 -15 -8 -15 -15 3 -5 14 -1 25 17
38 21 17 23 24 17 70 -15 133 -36 192 -47 135 -2 -13 -5 33 -6 102 -2 197 -22
654 -30 662 -3 4 -5 -208 -5 -470z m-97 -377 c0 -249 -3 -375 -9 -365 -5 8
-10 10 -10 3 0 -6 -9 -9 -20 -6 -18 5 -20 14 -20 74 0 44 4 69 11 69 7 0 9 14
4 43 -4 23 -8 87 -9 142 l-3 100 9 -95 c19 -207 20 -242 9 -236 -7 5 -11 -7
-11 -35 0 -35 2 -40 13 -30 16 16 12 388 -5 408 -13 16 -6 203 14 318 l13 80
7 -45 c3 -25 7 -216 7 -425z m-119 -252 c0 -16 -6 -23 -19 -23 -11 0 -23 5
-26 10 -12 19 -25 10 -25 -17 1 -42 24 -67 54 -59 24 6 26 4 26 -28 0 -27 -6
-38 -22 -47 -13 -6 -31 -21 -41 -33 l-17 -21 -20 23 c-11 13 -25 43 -32 65 -6
23 -18 50 -26 59 -18 21 -8 52 25 78 19 15 38 19 74 18 44 -2 49 -5 49 -25z
m381 -2 c32 -33 37 -56 14 -69 -9 -4 -18 -23 -20 -40 -4 -35 -19 -68 -43 -95
-14 -16 -16 -15 -33 13 -11 17 -27 30 -38 30 -15 0 -20 9 -22 44 -4 39 -2 43
13 35 33 -17 68 14 68 61 0 17 -4 20 -17 15 -44 -18 -53 -18 -53 3 0 15 8 22
28 25 61 9 74 6 103 -22z m-561 -134 c0 -22 41 -91 76 -127 20 -22 34 -46 34
-60 -1 -23 -5 -21 -47 25 -49 53 -82 115 -83 153 0 12 5 22 10 22 6 0 10 -6
10 -13z m630 -14 c0 -35 -48 -118 -89 -157 -30 -29 -31 -29 -31 -7 0 13 16 41
35 63 19 22 42 60 52 84 21 50 33 56 33 17z m-371 8 c12 -8 13 -12 1 -26 -10
-13 -15 -13 -21 -3 -20 30 -8 46 20 29z m121 -5 c0 -7 -6 -19 -14 -25 -11 -9
-15 -8 -20 5 -3 9 -4 20 0 25 8 14 34 11 34 -5z m72 -99 c-3 -25 -11 -38 -28
-46 -25 -11 -25 -10 -18 27 6 35 29 66 44 57 3 -2 4 -19 2 -38z m-257 6 c12
-58 13 -63 7 -63 -19 1 -43 31 -48 59 -6 27 -4 31 15 31 14 0 22 -8 26 -27z
m112 -20 c-3 -10 -5 -4 -5 12 0 17 2 24 5 18 2 -7 2 -21 0 -30z m-69 -43 c0
-9 -3 -7 -8 5 -5 11 -8 29 -8 40 0 16 2 15 8 -5 4 -14 8 -32 8 -40z m143 13
c-12 -20 -14 -14 -5 12 4 9 9 14 11 11 3 -2 0 -13 -6 -23z m116 -45 c-3 -7 -5
-2 -5 12 0 14 2 19 5 13 2 -7 2 -19 0 -25z m-350 -20 c-3 -7 -5 -2 -5 12 0 14
2 19 5 13 2 -7 2 -19 0 -25z m310 0 c-3 -8 -6 -5 -6 6 -1 11 2 17 5 13 3 -3 4
-12 1 -19z m-239 -20 c-5 -15 -23 -11 -26 6 -2 11 2 14 13 10 9 -4 14 -11 13
-16z m198 -4 c-5 -14 -9 -15 -19 -5 -9 9 -9 14 3 21 18 11 24 6 16 -16z m-316
-63 c0 -19 -3 -22 -9 -12 -7 11 -11 8 -17 -10 l-8 -24 -6 25 c-4 14 -3 33 2
42 12 25 38 11 38 -21z m448 -4 c2 -21 -1 -37 -7 -37 -6 0 -11 9 -11 21 0 15
-5 19 -15 15 -18 -7 -20 15 -3 32 20 20 33 8 36 -31z m-438 -67 c-12 -45 -51
-93 -58 -71 -2 7 0 23 6 34 6 12 13 34 16 49 4 19 11 26 21 22 12 -5 15 3 17
32 1 36 1 37 5 7 2 -17 -1 -50 -7 -73z m132 68 c-9 -9 -12 -7 -12 12 0 19 3
21 12 12 9 -9 9 -15 0 -24z m134 5 c-10 -10 -19 5 -10 18 6 11 8 11 12 0 2 -7
1 -15 -2 -18z m69 -73 l-14 -55 5 50 c6 60 16 97 21 75 1 -8 -4 -40 -12 -70z
m42 43 c-3 -10 -5 -4 -5 12 0 17 2 24 5 18 2 -7 2 -21 0 -30z m-309 -88 c0
-11 -6 3 -13 30 -7 28 -13 59 -13 70 0 11 6 -2 13 -30 7 -27 13 -59 13 -70z
m19 93 c-3 -8 -6 -5 -6 6 -1 11 2 17 5 13 3 -3 4 -12 1 -19z m220 -15 c-3 -10
-5 -4 -5 12 0 17 2 24 5 18 2 -7 2 -21 0 -30z m-197 -63 c5 0 12 5 16 11 5 8
10 6 16 -5 7 -13 5 -23 -8 -37 -30 -33 -37 -24 -48 56 -6 39 -6 39 4 8 6 -18
15 -33 20 -33z m297 -27 c-10 -9 -14 -2 -21 37 l-6 35 17 -32 c9 -18 13 -36
10 -40z m-111 12 c-7 -29 -14 -31 -42 -11 -15 12 -17 17 -6 28 11 11 14 10 22
-2 8 -12 10 -12 16 3 10 26 18 12 10 -18z m-94 -258 c-4 -14 -7 -16 -13 -5
-12 19 -11 25 5 25 8 0 11 -8 8 -20z m-78 -79 c-12 -19 -24 -5 -24 25 l1 32
13 -25 c8 -14 12 -28 10 -32z m157 5 c-9 -17 -10 -17 -16 0 -4 9 -1 25 6 34
13 15 14 15 17 0 2 -9 -1 -24 -7 -34z m-99 -3 c8 38 8 -408 0 -460 -7 -43 -8
-41 -29 70 -12 63 -31 159 -43 213 -22 107 -21 117 29 170 l26 28 6 -23 6 -23
5 25z"/>
<path d="M1214 2145 c0 -88 2 -123 3 -77 2 46 2 118 0 160 -1 42 -3 5 -3 -83z"/>
<path d="M1203 680 c0 -36 2 -50 4 -32 2 17 2 47 0 65 -2 17 -4 3 -4 -33z"/>
<path d="M1213 515 c0 -38 2 -53 4 -32 2 20 2 52 0 70 -2 17 -4 1 -4 -38z"/>
<path d="M1123 2690 c0 -25 2 -35 4 -22 2 12 2 32 0 45 -2 12 -4 2 -4 -23z"/>
<path d="M1313 2620 c0 -25 2 -35 4 -22 2 12 2 32 0 45 -2 12 -4 2 -4 -23z"/>
<path d="M1114 2415 c0 -66 1 -92 3 -57 2 34 2 88 0 120 -2 31 -3 3 -3 -63z"/>
<path d="M1063 795 c0 -22 2 -30 4 -17 2 12 2 30 0 40 -3 9 -5 -1 -4 -23z"/>
<path d="M1053 680 c0 -25 2 -35 4 -22 2 12 2 32 0 45 -2 12 -4 2 -4 -23z"/>
</g>
</svg>
