<?xml version="1.0" standalone="no"?>
<!DOCTYPE svg PUBLIC "-//W3C//DTD SVG 20010904//EN"
 "http://www.w3.org/TR/2001/REC-SVG-20010904/DTD/svg10.dtd">
<svg version="1.0" xmlns="http://www.w3.org/2000/svg"
 width="244.000000pt" height="305.000000pt" viewBox="0 0 244.000000 305.000000"
 preserveAspectRatio="xMidYMid meet">
<metadata>
Created by potrace 1.16, written by Peter Selinger 2001-2019
</metadata>
<g transform="translate(0.000000,305.000000) scale(0.100000,-0.100000)"
fill="#000000" stroke="none">
<path d="M882 2869 c-57 -217 -91 -522 -92 -822 l0 -127 28 -11 c15 -6 39 -22
54 -36 l26 -25 22 25 c12 14 36 31 53 38 l30 13 -7 228 c-7 232 -22 392 -52
550 -26 131 -29 98 -5 -49 24 -147 39 -321 48 -543 l5 -155 -42 -28 c-23 -15
-46 -25 -51 -21 -13 8 -12 951 2 956 6 2 7 12 1 27 -8 22 -9 21 -20 -20z"/>
<path d="M1566 2878 c-52 -187 -81 -426 -92 -750 l-7 -207 34 -14 c19 -8 40
-21 48 -30 18 -23 24 -22 82 16 l50 32 -5 225 c-5 222 -35 524 -56 559 -7 12
-9 9 -5 -14 35 -227 55 -446 55 -622 0 -108 -5 -133 -25 -133 -6 0 -20 -9 -30
-20 -45 -50 -45 -48 -45 444 0 297 4 475 10 492 7 16 7 31 2 36 -6 6 -12 0
-16 -14z"/>
<path d="M911 2824 c0 -11 3 -14 6 -6 3 7 2 16 -1 19 -3 4 -6 -2 -5 -13z"/>
<path d="M1602 2775 c0 -16 2 -22 5 -12 2 9 2 23 0 30 -3 6 -5 -1 -5 -18z"/>
<path d="M1243 2660 c0 -25 2 -35 4 -22 2 12 2 32 0 45 -2 12 -4 2 -4 -23z"/>
<path d="M1221 2613 c0 -34 -5 -73 -10 -86 -24 -63 -51 -285 -57 -474 -7 -199
-16 -250 -29 -155 -10 67 -36 196 -41 202 -10 10 -22 -26 -33 -97 -16 -107
-15 -111 23 -134 38 -22 52 -59 41 -110 -8 -33 -30 -48 -48 -30 -20 20 -37 12
-37 -18 0 -32 22 -61 46 -61 8 0 25 11 38 25 32 34 39 31 31 -13 -5 -34 -3
-40 19 -50 38 -17 58 -54 47 -83 -5 -13 -10 -19 -10 -13 -1 18 -51 63 -74 66
-25 5 -77 -18 -77 -32 0 -5 12 -12 28 -15 15 -4 34 -10 42 -14 28 -14 49 -74
52 -151 3 -71 2 -75 -20 -78 -48 -7 -46 -65 3 -74 13 -2 20 -11 20 -27 0 -22
-6 -28 -55 -51 -8 -4 -13 -16 -12 -26 5 -25 7 -26 36 -29 37 -4 43 -11 50 -54
13 -81 45 -117 61 -68 7 21 8 20 12 -8 3 -16 0 -31 -6 -33 -7 -2 -10 -48 -9
-135 l2 -132 3 112 4 111 44 -47 45 -48 -31 -139 c-16 -76 -40 -186 -52 -244
l-22 -105 -3 304 -2 304 -35 34 c-25 24 -35 43 -35 64 0 43 -17 69 -44 69 -27
0 -36 17 -36 66 0 33 -1 34 -40 34 -21 0 -55 -8 -74 -17 -46 -21 -74 -9 -116
49 -24 33 -30 50 -26 72 7 32 -12 143 -27 164 -14 18 -51 15 -78 -7 -41 -33
-31 -83 42 -208 90 -155 91 -156 94 -246 1 -45 5 -93 9 -107 5 -21 -8 -41 -91
-136 -54 -61 -122 -139 -152 -173 -30 -34 -56 -60 -58 -57 -4 3 27 59 140 256
124 217 128 230 102 326 -16 59 -58 127 -112 182 -20 21 -43 81 -43 114 0 16
11 46 25 66 14 20 25 43 25 51 0 41 -104 57 -140 21 -25 -25 -25 -59 0 -130
11 -30 19 -75 20 -99 0 -37 -5 -48 -34 -75 -26 -24 -32 -35 -25 -51 13 -34 10
-41 -23 -52 -18 -6 -98 -34 -177 -62 -133 -48 -201 -62 -141 -31 14 7 103 60
197 118 189 116 184 110 158 196 -8 27 -15 65 -15 85 0 20 -5 43 -11 51 -7 11
-9 -12 -6 -83 l4 -97 -34 6 c-20 4 -38 3 -42 -2 -3 -5 -26 -27 -51 -48 -180
-156 -321 -288 -315 -294 5 -5 7 -4 293 88 176 57 192 64 192 86 0 12 5 26 11
29 18 12 102 -26 141 -63 60 -57 60 -103 -1 -117 -24 -5 -31 -15 -49 -68 -90
-277 -142 -448 -148 -477 l-6 -35 39 41 c21 22 77 83 124 135 48 52 106 115
130 141 105 111 122 137 108 159 -5 7 -9 26 -9 42 l0 27 85 0 c94 0 130 -12
163 -55 l21 -26 -36 -32 -35 -33 11 -54 c12 -67 61 -302 96 -464 14 -65 25
-123 26 -130 2 -25 32 103 85 367 l56 279 -32 33 c-31 32 -32 35 -17 58 26 41
76 57 172 57 l87 0 -6 -27 c-20 -79 -25 -70 110 -218 70 -77 161 -176 202
-220 73 -78 75 -79 68 -45 -3 19 -34 121 -67 225 -34 105 -69 215 -79 245 -14
46 -23 58 -56 76 -21 11 -38 23 -36 27 1 4 2 17 2 29 0 31 77 101 128 116 49
15 62 10 62 -23 0 -21 12 -27 133 -65 72 -23 183 -58 245 -79 61 -21 112 -35
112 -31 0 4 -62 63 -138 132 -255 231 -241 220 -278 214 l-32 -7 4 98 c7 129
-11 103 -20 -30 l-7 -98 45 6 46 7 88 -78 c48 -43 114 -105 147 -137 l60 -59
-100 52 c-180 96 -289 165 -312 200 -28 41 -29 79 -3 150 11 30 20 65 20 77 0
53 -72 80 -135 51 -32 -14 -32 -34 0 -80 43 -63 28 -132 -46 -216 -55 -63 -79
-112 -79 -165 0 -76 15 -102 67 -118 l47 -15 68 -204 c38 -113 67 -212 65
-220 -3 -10 -7 -7 -16 10 -6 14 -24 46 -40 72 -16 25 -40 66 -54 90 -14 23
-50 85 -82 137 -96 160 -108 187 -102 231 3 25 28 77 63 133 98 158 109 195
74 240 -23 29 -70 37 -87 15 -11 -14 -23 -87 -26 -158 -2 -49 -38 -106 -81
-129 -20 -11 -29 -11 -57 3 -17 9 -52 16 -77 16 -42 0 -44 -1 -38 -24 10 -39
-9 -76 -38 -76 -29 0 -38 -11 -43 -54 -2 -17 -6 -40 -9 -51 -7 -19 -7 -19 -14
1 -5 11 -6 41 -3 66 5 44 7 46 45 52 35 6 39 9 36 33 -2 21 -10 29 -34 35 -48
12 -55 68 -8 68 17 0 25 7 30 24 7 31 -1 46 -26 46 -26 0 -33 31 -25 106 8 81
37 125 88 137 41 10 47 21 18 37 -39 20 -87 12 -114 -20 -21 -24 -26 -26 -31
-13 -9 21 19 62 51 74 23 9 25 13 19 49 -7 46 2 50 32 15 33 -38 58 -32 80 19
15 33 1 59 -20 38 -15 -15 -45 -15 -54 0 -4 6 -7 32 -6 57 0 40 5 50 37 77
l38 31 -8 59 c-10 90 -26 155 -35 149 -4 -3 -13 -35 -20 -72 -24 -140 -32
-173 -39 -173 -5 0 -11 89 -15 198 -8 230 -40 451 -77 537 -4 11 -10 34 -12
50 -2 17 -5 2 -6 -32z m39 -158 c5 -22 12 -65 15 -95 3 -30 10 -86 15 -125 5
-38 12 -188 16 -331 l7 -262 -30 -16 -31 -15 -5 42 c-6 53 -7 901 -1 867 3
-14 9 -43 14 -65z m-14 -947 c-3 -13 -6 -27 -6 -31 0 -5 -4 -5 -10 -2 -17 10
-12 55 6 55 12 0 15 -6 10 -22z"/>
<path d="M743 1860 c-26 -11 -45 -44 -41 -72 2 -17 11 -20 49 -22 51 -2 73
-15 95 -57 12 -25 12 -30 -3 -45 -38 -38 -20 -117 47 -209 20 -27 39 -55 43
-62 4 -6 -8 -30 -27 -52 -45 -54 -52 -76 -31 -107 21 -32 57 -48 90 -40 24 6
26 10 20 34 -26 106 -17 118 74 89 44 -13 69 -17 80 -10 26 16 24 32 -6 44
-84 32 -137 66 -173 109 -42 51 -70 106 -70 140 0 32 15 23 29 -17 18 -50 114
-149 174 -179 43 -23 48 -23 54 -7 5 12 -3 24 -27 42 -66 49 -130 125 -141
166 -15 54 -16 57 -35 82 -15 21 -15 24 15 54 29 28 37 31 76 26 44 -4 45 -4
45 24 0 31 -21 56 -58 70 -46 17 -96 -12 -107 -62 -9 -39 -19 -37 -46 11 -15
26 -32 43 -49 46 -14 3 -32 7 -40 9 -8 2 -25 0 -37 -5z"/>
<path d="M1435 1855 c-36 -20 -45 -32 -45 -67 0 -27 1 -27 43 -22 36 5 47 2
69 -17 37 -34 44 -65 18 -79 -13 -7 -20 -21 -20 -38 0 -16 -13 -48 -28 -73
-29 -44 -95 -109 -112 -109 -14 0 -43 -48 -36 -59 26 -41 236 151 236 214 0 8
5 15 10 15 6 0 10 -13 10 -28 0 -34 -50 -115 -99 -161 -34 -32 -123 -81 -147
-81 -17 0 -24 -26 -11 -39 16 -16 36 -14 102 9 46 16 60 17 67 8 11 -18 10
-46 -4 -85 -6 -18 -9 -36 -5 -40 15 -14 82 -2 105 20 31 29 24 67 -23 119 -38
41 -38 42 6 98 44 56 65 102 73 154 7 42 5 50 -13 63 -30 20 -26 41 15 79 29
28 43 34 80 34 40 0 44 2 44 25 0 39 -33 65 -84 65 -37 0 -48 -5 -70 -31 -14
-17 -26 -37 -26 -45 0 -25 -19 -15 -33 19 -25 58 -72 78 -122 52z"/>
</g>
</svg>
