<?xml version="1.0" standalone="no"?>
<!DOCTYPE svg PUBLIC "-//W3C//DTD SVG 20010904//EN"
 "http://www.w3.org/TR/2001/REC-SVG-20010904/DTD/svg10.dtd">
<svg version="1.0" xmlns="http://www.w3.org/2000/svg"
 width="244.000000pt" height="305.000000pt" viewBox="0 0 244.000000 305.000000"
 preserveAspectRatio="xMidYMid meet">
<metadata>
Created by potrace 1.16, written by Peter Selinger 2001-2019
</metadata>
<g transform="translate(0.000000,305.000000) scale(0.100000,-0.100000)"
fill="#000000" stroke="none">
<path d="M995 2865 c-7 -53 -11 -54 -18 -7 -8 50 -12 47 -26 -19 -8 -33 -11
-63 -7 -66 3 -3 6 5 6 18 0 13 5 31 11 39 7 11 9 -20 4 -105 -3 -66 -10 -205
-15 -310 -6 -104 -10 -256 -10 -337 0 -82 -4 -148 -8 -148 -5 0 -15 6 -23 13
-13 10 -14 47 -8 257 4 135 9 281 13 325 4 57 3 69 -3 40 -10 -47 -31 -415
-31 -551 0 -87 2 -94 23 -105 47 -25 37 -47 -25 -48 -35 -1 -70 -38 -66 -71 3
-21 9 -25 40 -28 26 -2 44 -11 58 -29 21 -27 27 -68 10 -78 -16 -10 -12 -71
10 -132 17 -49 28 -69 65 -119 11 -15 -13 -67 -27 -58 -4 3 -8 22 -8 43 0 44
-14 61 -52 61 -27 0 -28 3 -26 36 1 22 -3 39 -12 44 -18 12 -130 13 -147 2
-26 -16 -32 -58 -17 -113 18 -68 18 -113 0 -128 -11 -9 -15 -4 -20 26 -3 21
-6 62 -6 91 0 32 -4 52 -11 52 -9 0 -10 -24 -5 -85 l6 -85 -24 6 c-19 4 -32
-3 -68 -43 -93 -99 -260 -294 -257 -298 2 -2 41 12 87 30 45 18 82 31 82 28 0
-3 -9 -18 -21 -35 -12 -16 -19 -31 -17 -33 7 -7 322 147 334 163 15 21 32 7
55 -42 26 -58 24 -73 -10 -81 -18 -4 -31 -14 -35 -28 -32 -115 -136 -541 -132
-544 2 -3 19 16 38 42 18 25 43 58 55 73 l21 27 -14 -79 c-8 -43 -14 -79 -12
-81 2 -2 62 94 133 213 125 208 130 218 130 271 l0 56 52 0 c37 -1 58 -6 73
-20 39 -35 41 -49 13 -88 -25 -36 -26 -38 -14 -114 43 -271 93 -568 97 -572 2
-2 4 -2 4 2 0 7 40 258 75 472 14 82 25 157 25 166 0 10 -12 31 -26 48 -21 25
-23 34 -14 51 18 33 70 60 118 60 l44 0 -7 -49 c-6 -48 -4 -54 56 -158 34 -59
72 -121 84 -138 11 -16 40 -63 64 -103 24 -40 45 -71 48 -69 2 2 -2 27 -8 56
-6 28 -9 56 -7 61 2 6 28 -23 58 -64 30 -41 58 -75 61 -75 8 -1 8 -1 -74 318
-59 235 -63 245 -92 261 -16 9 -30 21 -30 26 1 29 19 74 34 88 17 16 28 12
175 -59 86 -41 159 -75 162 -75 3 0 -4 16 -16 35 l-22 35 24 -9 c12 -5 61 -25
108 -44 47 -20 87 -34 89 -31 4 4 -17 29 -133 159 -39 43 -93 105 -121 137
-42 49 -54 57 -77 53 l-28 -5 -2 93 c-1 50 -3 74 -5 52 -5 -65 -25 -155 -34
-155 -18 0 -21 53 -5 109 20 72 20 101 0 129 -13 19 -23 22 -82 21 -89 -2
-104 -11 -100 -57 3 -36 2 -37 -32 -37 -34 0 -35 -1 -38 -45 -4 -56 -14 -68
-32 -35 -12 22 -11 28 6 53 37 50 66 126 72 184 3 40 1 58 -7 58 -6 0 -11 14
-11 30 0 45 43 82 90 78 33 -2 35 -1 33 27 -1 18 -13 39 -29 53 -22 19 -33 22
-71 16 -44 -6 -45 -6 -33 15 6 12 23 27 37 34 l26 12 -7 235 c-9 295 -45 650
-75 732 -3 9 -5 -198 -4 -461 3 -408 1 -480 -12 -497 -32 -42 -35 1 -33 483 1
260 -1 475 -4 478 -5 5 -31 -192 -48 -365 -6 -58 -13 -202 -17 -320 -5 -155
-9 -202 -15 -170 -11 62 -15 71 -31 64 -10 -3 -18 -36 -26 -97 -7 -50 -14 -93
-17 -96 -2 -2 -4 43 -4 100 0 191 -32 497 -59 571 -8 22 -8 22 -14 3 -27 -90
-57 -366 -58 -540 0 -76 -4 -113 -9 -100 -5 11 -9 36 -9 56 -2 65 -12 99 -31
99 -18 0 -28 -29 -32 -94 -1 -17 -5 23 -8 89 l-6 120 -2 -132 c-1 -72 -6 -134
-10 -137 -5 -3 -12 95 -16 217 -4 122 -12 263 -17 312 -6 50 -12 166 -15 259
-2 94 -6 171 -8 173 -2 2 -7 -17 -11 -42z m93 -990 c-2 -1 -18 -5 -36 -8 -30
-6 -32 -5 -22 13 6 10 18 24 28 29 13 7 19 5 25 -11 4 -12 6 -22 5 -23z m341
16 c9 -16 6 -19 -25 -24 -43 -7 -63 -31 -64 -74 0 -31 2 -33 35 -33 24 0 37
-6 45 -19 13 -25 13 -68 0 -76 -5 -3 -10 -22 -10 -41 0 -20 -5 -44 -10 -55
-11 -19 -11 -19 -40 2 -49 37 -90 8 -116 -81 l-7 -25 -10 25 c-38 97 -67 118
-117 82 l-27 -21 -12 25 c-6 14 -11 33 -11 43 0 10 -6 34 -14 52 -12 29 -12
37 0 61 12 22 21 28 48 28 19 0 37 6 40 13 3 6 4 1 3 -13 -2 -22 -6 -25 -34
-22 -35 3 -40 -7 -27 -56 8 -26 48 -39 69 -22 13 10 15 8 15 -13 0 -16 8 -31
21 -37 11 -7 27 -27 35 -46 14 -34 34 -38 34 -8 0 8 11 26 25 40 14 14 28 36
31 50 5 18 10 22 17 15 29 -29 77 7 77 57 0 20 -4 23 -32 20 -33 -3 -33 -3
-36 45 -3 42 1 53 30 87 37 43 53 48 67 21z m-429 -41 c0 -11 -4 -20 -10 -20
-5 0 -10 9 -10 20 0 11 5 20 10 20 6 0 10 -9 10 -20z m139 -39 c0 -10 -4 -7
-10 8 -5 14 -13 30 -17 36 -4 6 1 2 11 -8 9 -11 17 -27 16 -36z m356 41 c0
-18 -20 -15 -23 4 -3 10 1 15 10 12 7 -3 13 -10 13 -16z m-129 -339 c-8 -16
-28 -43 -45 -60 -26 -28 -31 -30 -31 -14 0 36 19 70 47 85 40 22 45 20 29 -11z
m-219 9 c14 -9 33 -56 33 -83 0 -16 -9 -10 -40 26 -22 25 -40 50 -40 56 0 11
30 12 47 1z m16 -142 c8 0 18 6 20 13 3 6 6 -12 6 -40 1 -29 -3 -53 -8 -53 -4
0 -6 10 -4 23 3 17 -6 28 -43 52 -26 17 -54 41 -63 55 -13 20 -8 18 30 -13 25
-20 53 -37 62 -37z m219 27 c-12 -13 -40 -33 -62 -45 l-40 -21 0 24 c0 17 4
22 18 19 9 -3 35 8 57 25 45 33 59 32 27 -2z m308 -19 c0 -45 -22 -119 -28
-94 -6 28 8 126 19 126 5 0 9 -15 9 -32z m-887 -52 c5 -28 3 -36 -4 -29 -6 6
-13 33 -15 60 -5 55 9 33 19 -31z m491 -21 c3 -8 1 -15 -4 -15 -6 0 -10 7 -10
15 0 8 2 15 4 15 2 0 6 -7 10 -15z m-176 -7 c28 -11 33 -16 29 -37 -6 -31 1
-51 19 -51 7 0 18 -9 24 -20 9 -16 6 -22 -15 -36 -22 -15 -26 -15 -40 0 -20
19 -36 20 -78 3 -37 -16 -57 -12 -57 11 0 13 9 17 33 17 l32 0 -3 63 c-4 68
-2 70 56 50z m290 -50 l-3 -63 33 -3 c20 -2 32 -8 29 -15 -4 -13 -34 -14 -83
-2 -22 5 -35 2 -47 -9 -20 -20 -31 -20 -51 -1 -19 20 -10 44 21 56 22 8 24 14
19 42 -6 30 -4 34 26 44 59 19 60 19 56 -49z m-734 4 c10 -17 -105 -135 -188
-193 -48 -34 -89 -59 -91 -57 -3 3 63 81 174 205 33 38 53 52 73 53 15 0 29
-4 32 -8z m1111 -42 c10 -11 16 -20 13 -20 -3 0 -13 9 -23 20 -10 11 -16 20
-13 20 3 0 13 -9 23 -20z m304 -222 c1 -9 -36 5 -114 43 -47 22 -69 42 -102
88 -24 32 -43 62 -43 65 0 9 259 -187 259 -196z m-245 142 c38 -53 32 -62 -22
-30 -23 14 -32 26 -28 36 3 9 6 22 6 30 0 22 6 17 44 -36z m-1091 6 c9 -7 17
-16 17 -19 0 -8 -243 -138 -248 -132 -13 13 91 77 161 99 10 3 17 15 17 29 0
39 20 48 53 23z m448 -118 c7 -42 24 -88 34 -88 10 0 27 46 34 89 5 35 11 46
26 49 18 2 19 2 3 -8 -12 -7 -18 -24 -18 -48 0 -38 -28 -103 -45 -106 -16 -2
-45 66 -45 105 0 19 -6 41 -12 48 -11 11 -10 13 2 9 9 -3 18 -23 21 -50z m729
-9 c0 -5 -11 -2 -25 7 -14 9 -25 20 -25 25 0 5 11 2 25 -7 14 -9 25 -20 25
-25z m-1016 -24 c-10 -24 -27 -17 -20 8 3 12 6 29 6 37 1 9 5 6 10 -8 5 -12 7
-29 4 -37z m649 -52 c19 -22 62 -150 72 -217 6 -45 5 -49 -9 -37 -9 7 -34 49
-56 93 -30 61 -40 92 -40 129 0 52 7 59 33 32z m-703 0 c-1 -32 -43 -198 -60
-238 -41 -95 -94 -204 -98 -201 -3 4 74 318 97 395 6 19 16 38 23 43 16 10 38
10 38 1z m134 -53 c7 -44 10 -37 -109 -245 -32 -55 -64 -113 -72 -128 -26 -49
-24 -23 2 48 27 72 54 127 65 135 3 3 21 26 38 52 18 25 39 54 48 63 14 14 15
24 6 63 -6 26 -8 50 -5 54 9 16 20 -2 27 -42z m717 -265 c46 -101 60 -135 55
-135 -1 0 -24 30 -49 68 -32 46 -51 88 -62 132 -25 110 -24 109 56 -65z m-58
-22 c8 -16 17 -44 20 -63 6 -29 5 -32 -5 -16 -13 23 -39 106 -33 106 3 0 11
-12 18 -27z"/>
<path d="M1022 2810 c0 -14 2 -19 5 -12 2 6 2 18 0 25 -3 6 -5 1 -5 -13z"/>
<path d="M1470 2763 c0 -32 5 -65 10 -73 7 -10 10 7 10 58 0 41 -4 72 -10 72
-6 0 -10 -26 -10 -57z"/>
<path d="M1032 2745 c0 -16 2 -22 5 -12 2 9 2 23 0 30 -3 6 -5 -1 -5 -18z"/>
<path d="M932 2710 c0 -19 2 -27 5 -17 2 9 2 25 0 35 -3 9 -5 1 -5 -18z"/>
<path d="M1043 2640 c0 -25 2 -35 4 -22 2 12 2 32 0 45 -2 12 -4 2 -4 -23z"/>
<path d="M922 2645 c0 -16 2 -22 5 -12 2 9 2 23 0 30 -3 6 -5 -1 -5 -18z"/>
<path d="M1493 2620 c0 -25 2 -35 4 -22 2 12 2 32 0 45 -2 12 -4 2 -4 -23z"/>
<path d="M1052 2540 c0 -19 2 -27 5 -17 2 9 2 25 0 35 -3 9 -5 1 -5 -18z"/>
<path d="M1063 2380 c0 -47 2 -66 4 -42 2 23 2 61 0 85 -2 23 -4 4 -4 -43z"/>
</g>
</svg>
