<?xml version="1.0" standalone="no"?>
<!DOCTYPE svg PUBLIC "-//W3C//DTD SVG 20010904//EN"
 "http://www.w3.org/TR/2001/REC-SVG-20010904/DTD/svg10.dtd">
<svg version="1.0" xmlns="http://www.w3.org/2000/svg"
 width="244.000000pt" height="305.000000pt" viewBox="0 0 244.000000 305.000000"
 preserveAspectRatio="xMidYMid meet">
<metadata>
Created by potrace 1.16, written by Peter Selinger 2001-2019
</metadata>
<g transform="translate(0.000000,305.000000) scale(0.100000,-0.100000)"
fill="#000000" stroke="none">
<path d="M887 2895 c-7 -21 -33 -144 -42 -197 -3 -18 -8 -40 -10 -48 -15 -52
-37 -309 -42 -502 l-6 -226 42 -21 c23 -12 44 -28 48 -36 7 -20 14 -19 43 8
14 12 38 28 54 35 l29 13 -7 217 c-3 119 -11 262 -16 317 -10 105 -41 287 -48
281 -2 -2 3 -53 12 -113 31 -220 56 -646 39 -669 -14 -18 -80 -54 -86 -47 -4
3 -7 220 -7 481 0 262 3 472 6 469 4 -4 13 -30 20 -59 12 -44 13 -47 9 -13 -2
22 -11 60 -18 85 -11 36 -15 41 -20 25z"/>
<path d="M1562 2862 c-45 -154 -79 -428 -88 -713 l-7 -225 31 -13 c17 -7 38
-21 48 -32 22 -24 36 -24 58 0 10 11 31 25 48 32 l31 13 -7 235 c-6 223 -19
367 -47 526 -19 108 -22 59 -4 -62 22 -148 33 -283 41 -491 l6 -177 -42 -28
c-23 -15 -45 -25 -50 -22 -4 3 -8 211 -8 463 0 430 6 553 23 438 4 -26 10 -45
13 -42 6 7 -19 125 -28 131 -4 2 -12 -12 -18 -33z"/>
<path d="M1241 2623 c0 -13 -5 -23 -11 -23 -5 0 -10 -12 -10 -27 0 -16 -7 -50
-15 -76 -25 -82 -46 -264 -52 -454 -6 -181 -16 -227 -28 -135 -10 72 -34 184
-40 191 -11 11 -23 -22 -34 -96 -16 -104 -15 -108 24 -134 38 -27 49 -54 39
-105 -8 -41 -23 -50 -54 -34 -40 21 -48 -21 -12 -62 21 -24 38 -22 68 7 32 32
38 31 30 -1 -9 -34 0 -61 23 -67 25 -6 55 -53 47 -73 -5 -13 -11 -10 -37 15
-17 17 -38 32 -47 32 -36 3 -58 -3 -75 -21 -18 -17 -18 -18 20 -25 67 -12 85
-42 99 -171 l6 -61 -31 -11 c-25 -9 -31 -16 -31 -41 0 -25 4 -30 28 -33 21 -2
28 -9 30 -31 3 -23 -1 -28 -27 -33 -17 -4 -36 -13 -43 -21 -17 -20 2 -48 33
-48 41 0 49 -13 49 -73 0 -41 3 -53 10 -42 7 11 10 8 10 -15 -1 -29 -1 -29
-16 -10 -8 11 -17 31 -20 45 -14 64 -21 75 -47 78 -28 4 -42 29 -39 75 2 26 0
27 -43 27 -25 0 -57 -7 -70 -16 -56 -37 -139 40 -141 130 -2 68 -14 138 -27
154 -10 13 -55 16 -73 4 -22 -14 -36 -54 -30 -87 4 -18 35 -79 69 -136 83
-137 89 -155 92 -252 1 -45 5 -89 9 -99 6 -12 -32 -62 -144 -192 -83 -97 -153
-176 -155 -176 -7 0 16 49 49 105 146 252 206 369 206 398 0 62 -30 136 -83
204 -97 127 -105 163 -57 249 l31 52 -23 16 c-29 20 -97 21 -126 0 -28 -19
-28 -47 -1 -136 28 -92 22 -143 -21 -179 -27 -23 -30 -30 -21 -47 17 -31 14
-38 -21 -49 -18 -6 -91 -32 -163 -58 -159 -57 -187 -66 -181 -56 3 4 71 48
151 97 81 49 163 99 183 112 21 12 43 25 50 28 16 8 15 40 -3 89 -8 22 -14 60
-15 85 0 25 -5 52 -11 60 -7 11 -9 -12 -6 -83 l4 -97 -32 6 c-35 6 -63 -15
-275 -210 -30 -28 -77 -71 -103 -94 -27 -24 -47 -45 -45 -47 2 -2 97 28 213
66 116 38 227 74 248 79 30 9 37 16 37 35 0 33 13 38 59 24 52 -15 110 -64
128 -107 16 -40 7 -57 -36 -65 -26 -6 -31 -15 -79 -164 -96 -301 -132 -417
-128 -420 2 -2 39 36 82 84 44 48 104 115 134 148 31 33 87 95 125 138 l69 78
-11 42 c-6 23 -9 45 -7 49 3 5 45 8 93 8 75 0 93 -3 121 -22 56 -39 60 -54 23
-89 -18 -16 -33 -36 -33 -44 0 -8 13 -74 29 -147 15 -73 46 -216 67 -318 l38
-185 17 75 c44 197 89 413 104 494 l16 89 -33 34 c-36 37 -34 50 16 87 22 17
46 22 128 24 l101 4 -7 -27 c-20 -81 -25 -71 110 -220 150 -165 273 -295 278
-295 3 0 -4 26 -14 57 -16 52 -126 398 -151 480 -9 26 -18 35 -51 43 -37 10
-39 13 -33 38 11 46 56 93 112 119 61 28 83 25 83 -11 0 -22 8 -28 63 -45 34
-10 142 -44 240 -76 98 -31 180 -55 183 -53 4 5 -15 23 -229 217 -139 126
-149 133 -180 127 l-33 -6 4 97 c5 133 -13 111 -22 -25 l-7 -103 45 6 46 7 97
-87 c155 -139 195 -177 191 -181 -2 -1 -69 33 -148 78 -80 44 -162 90 -183
101 -55 31 -75 52 -88 98 -11 35 -10 49 9 108 27 83 27 106 2 131 -34 34 -140
19 -140 -20 0 -9 11 -31 25 -50 47 -63 31 -126 -61 -241 -63 -80 -76 -127 -55
-205 10 -37 15 -42 58 -55 55 -17 43 8 133 -272 28 -87 54 -165 57 -173 3 -8
1 -14 -3 -14 -5 0 -28 35 -52 78 -23 42 -68 120 -99 172 -141 239 -148 253
-148 300 0 38 12 63 72 162 39 65 74 133 77 153 7 34 -5 72 -28 87 -21 14 -65
8 -74 -9 -13 -25 -25 -101 -23 -149 1 -31 -6 -51 -29 -83 -42 -57 -71 -69
-116 -48 -19 9 -53 17 -76 17 -36 0 -40 -2 -35 -21 9 -35 -12 -79 -39 -79 -25
0 -44 -25 -44 -62 -1 -13 -9 -39 -20 -58 l-19 -35 0 40 c-1 30 2 36 10 25 8
-12 10 -10 8 10 -1 14 -1 40 0 58 1 29 4 32 30 32 40 0 64 25 51 51 -6 10 -19
19 -29 19 -23 0 -55 35 -48 53 3 8 19 17 36 20 25 5 31 11 31 32 0 20 -7 29
-31 37 l-32 11 7 75 c9 100 37 152 80 152 12 0 27 4 35 9 24 15 -12 41 -55 41
-27 0 -46 -7 -66 -27 -33 -32 -45 -25 -28 16 7 18 24 34 42 40 29 10 30 13 24
51 -3 22 -4 40 -2 40 3 0 16 -11 30 -25 39 -39 70 -31 85 23 11 37 1 48 -27
31 -31 -19 -49 -5 -55 43 -5 49 11 83 49 100 19 9 24 18 23 47 0 44 -24 179
-32 188 -10 10 -22 -35 -42 -149 -10 -60 -21 -108 -25 -108 -4 0 -10 87 -13
193 -6 203 -17 311 -44 417 -9 36 -19 92 -23 125 -4 33 -8 50 -9 38z m28 -228
c7 -49 16 -121 20 -160 5 -38 13 -188 17 -332 l7 -261 -31 -16 -30 -15 -5 42
c-10 89 -9 852 1 842 6 -5 15 -50 21 -100z m-19 -895 c0 -19 -17 -36 -27 -26
-3 3 -2 17 1 31 7 28 26 25 26 -5z m2 -682 c2 -114 2 -116 5 -31 l4 91 44 -46
c49 -53 48 -37 10 -207 -8 -38 -27 -126 -41 -195 -14 -69 -28 -127 -30 -129
-2 -2 -4 133 -4 302 0 193 -4 308 -10 312 -15 9 -12 25 5 25 12 0 15 -21 17
-122z"/>
<path d="M1252 600 c0 -14 2 -19 5 -12 2 6 2 18 0 25 -3 6 -5 1 -5 -13z"/>
<path d="M755 1861 c-21 -4 -35 -16 -47 -40 -22 -45 -15 -61 26 -54 42 7 91
-18 111 -57 14 -27 14 -30 -7 -50 -21 -19 -21 -24 -11 -75 10 -47 40 -103 98
-181 14 -19 13 -23 -14 -53 -46 -52 -57 -86 -37 -116 20 -31 61 -48 94 -40 20
5 23 10 17 33 -26 106 -17 119 62 91 68 -23 99 -24 107 -3 7 19 0 34 -17 34
-7 0 -36 11 -64 25 -89 41 -182 155 -183 223 0 33 14 27 29 -14 18 -49 119
-155 176 -183 25 -13 48 -21 51 -18 11 11 -9 55 -30 65 -63 28 -146 132 -146
182 0 14 -9 33 -20 43 -27 23 -25 33 10 69 28 27 35 30 75 23 l45 -6 0 35 c0
39 -23 61 -75 70 -38 7 -73 -16 -91 -60 -18 -43 -27 -43 -42 0 -8 22 -24 39
-46 50 -19 9 -36 15 -38 15 -1 -1 -16 -4 -33 -8z"/>
<path d="M1434 1855 c-33 -13 -44 -32 -44 -70 0 -21 3 -22 45 -18 39 5 47 2
75 -25 35 -35 38 -57 10 -72 -13 -7 -20 -21 -20 -39 0 -40 -55 -118 -115 -163
-81 -61 -90 -107 -13 -69 59 28 153 124 175 177 10 24 22 43 26 41 5 -1 8 -6
8 -10 -1 -4 -1 -15 -1 -25 0 -29 -73 -136 -114 -167 -19 -15 -61 -38 -93 -50
-63 -26 -71 -36 -48 -55 13 -11 27 -10 80 5 98 26 106 18 80 -87 -6 -23 -3
-28 17 -33 47 -12 108 27 108 70 0 13 -18 44 -40 71 -36 40 -39 49 -28 64 60
82 81 115 93 151 21 59 19 96 -5 109 -30 16 -24 38 18 77 31 29 43 34 76 31
43 -3 52 7 42 47 -8 32 -59 58 -96 50 -31 -7 -80 -57 -80 -81 0 -25 -19 -15
-33 19 -24 56 -70 75 -123 52z"/>
</g>
</svg>
