<?xml version="1.0" standalone="no"?>
<!DOCTYPE svg PUBLIC "-//W3C//DTD SVG 20010904//EN"
 "http://www.w3.org/TR/2001/REC-SVG-20010904/DTD/svg10.dtd">
<svg version="1.0" xmlns="http://www.w3.org/2000/svg"
 width="244.000000pt" height="305.000000pt" viewBox="0 0 244.000000 305.000000"
 preserveAspectRatio="xMidYMid meet">
<metadata>
Created by potrace 1.16, written by Peter Selinger 2001-2019
</metadata>
<g transform="translate(0.000000,305.000000) scale(0.100000,-0.100000)"
fill="#000000" stroke="none">
<path d="M900 2893 c0 -10 -3 -29 -5 -43 -5 -22 -4 -22 4 -5 6 13 10 -150 10
-462 1 -266 -2 -483 -5 -483 -3 0 -24 14 -46 32 l-41 32 7 175 c8 222 21 371
46 535 11 71 18 132 15 134 -3 3 -5 3 -5 -1 0 -3 -11 -70 -25 -149 -27 -158
-45 -402 -45 -606 0 -117 2 -133 18 -139 9 -3 31 -16 49 -29 l31 -24 52 33 51
32 -5 225 c-7 292 -28 476 -78 708 -11 50 -28 71 -28 35z"/>
<path d="M1558 2404 c2 -277 0 -504 -4 -504 -5 0 -26 12 -47 27 l-40 28 6 220
c4 127 15 281 26 365 11 80 22 165 25 190 5 42 5 43 -4 10 -31 -117 -58 -406
-61 -654 -2 -159 -2 -160 22 -175 13 -8 36 -25 50 -38 l26 -23 19 21 c10 11
34 27 53 35 l33 14 -6 193 c-7 207 -11 273 -27 412 -12 101 -57 354 -67 372
-4 6 -6 -215 -4 -493z"/>
<path d="M1321 2870 c-2 -19 -3 -228 -3 -465 0 -335 -2 -396 -8 -275 -8 150
-35 338 -63 430 l-14 45 -12 -44 c-7 -24 -20 -87 -30 -140 l-17 -96 -8 243
c-12 405 -21 309 -18 -190 2 -268 -1 -475 -6 -480 -5 -5 -10 78 -11 204 -1
117 -4 215 -7 217 -2 2 -4 -72 -5 -165 -1 -159 -1 -166 -13 -112 -15 71 -21
77 -34 39 -15 -43 -27 -201 -15 -201 5 0 19 -9 31 -20 16 -15 20 -27 15 -55
-3 -20 -1 -41 6 -49 9 -10 8 -16 -4 -26 -13 -11 -20 -11 -40 0 -14 7 -28 11
-31 7 -17 -16 22 -87 47 -87 6 0 22 12 36 26 l26 26 -7 -32 c-3 -18 -6 -44 -6
-59 0 -20 -5 -27 -21 -28 -34 -3 -49 -22 -42 -54 3 -18 1 -29 -6 -29 -19 0
-71 82 -77 122 -4 20 -13 43 -20 49 -21 18 -17 47 12 75 21 22 32 25 70 22 42
-3 44 -2 44 23 0 14 -9 35 -20 47 -46 49 -112 36 -138 -28 -17 -40 -32 -52
-32 -25 0 8 -13 29 -29 47 -24 27 -36 33 -71 33 -50 0 -83 -32 -78 -74 3 -24
7 -26 42 -23 32 3 44 -1 72 -29 36 -35 44 -73 19 -83 -36 -13 2 -146 64 -224
17 -22 31 -43 31 -47 0 -4 -16 -26 -35 -49 -40 -49 -45 -86 -15 -116 23 -23
63 -35 86 -26 13 5 15 13 9 39 -16 66 -12 92 14 95 30 5 50 -13 33 -30 -7 -7
-12 -19 -12 -28 0 -13 1 -13 10 0 5 8 10 11 11 5 1 -5 5 4 9 20 7 28 8 27 9
-13 1 -51 -22 -112 -43 -112 -12 0 -13 6 -4 36 5 20 7 38 5 41 -3 2 -8 -11
-12 -29 -9 -44 -32 -78 -52 -78 -52 0 -130 99 -114 144 4 11 4 32 0 46 -4 14
-7 41 -8 60 -1 43 -16 60 -51 60 -37 0 -60 -29 -60 -77 0 -41 13 -70 93 -208
72 -122 69 -142 -41 -336 -49 -85 -110 -193 -136 -241 -42 -78 -73 -121 -62
-86 3 7 25 76 50 153 24 77 52 168 62 203 18 68 20 70 79 92 43 17 52 35 54
109 1 52 -24 110 -74 169 -71 82 -84 164 -39 232 26 39 26 41 9 60 -24 27
-105 28 -128 2 -22 -24 -21 -50 4 -134 24 -80 18 -127 -23 -165 -30 -27 -360
-224 -367 -218 -2 3 34 40 80 83 46 43 109 102 139 131 53 49 57 51 99 45 l43
-6 -7 104 c-9 137 -29 159 -23 25 l5 -98 -29 6 c-26 6 -41 -5 -171 -123 -145
-133 -246 -232 -236 -232 4 0 111 36 240 80 128 44 234 80 236 80 2 0 3 11 3
25 0 67 148 -6 179 -88 13 -35 9 -43 -33 -61 -30 -12 -34 -21 -68 -132 -20
-65 -58 -192 -85 -282 -28 -89 -47 -162 -43 -162 7 0 77 78 333 372 l58 67
-11 41 c-6 22 -8 45 -5 51 4 6 42 9 91 8 78 -2 84 -3 85 -23 0 -11 3 -15 6 -8
2 6 9 12 14 12 12 0 12 -46 0 -107 -6 -26 -15 -95 -22 -152 -8 -67 -15 -97
-20 -85 -5 12 -8 -1 -8 -37 -1 -31 -3 -72 -6 -90 -6 -43 16 39 41 148 11 46
21 83 24 83 3 0 27 -111 54 -247 27 -137 52 -259 56 -272 4 -16 22 58 53 220
26 134 50 258 54 274 l6 30 12 -29 c11 -27 12 -22 9 45 l-3 74 19 -105 c21
-120 24 -168 5 -95 -16 62 -19 44 -4 -25 6 -27 15 -50 20 -50 12 0 11 47 -6
240 -8 91 -15 173 -15 183 0 15 11 17 91 17 l92 0 -8 -32 c-4 -18 -9 -42 -11
-53 -3 -14 14 -42 58 -91 35 -39 119 -135 187 -214 69 -79 126 -139 128 -133
2 5 -32 130 -77 277 -44 147 -80 268 -80 271 0 2 -16 9 -35 15 -29 10 -35 16
-35 41 0 39 59 103 115 124 48 19 65 14 65 -18 0 -20 23 -30 228 -99 125 -42
229 -75 231 -73 3 4 -157 160 -301 294 -50 46 -60 52 -87 46 l-30 -6 6 92 c5
69 3 90 -5 85 -7 -4 -12 -26 -12 -50 0 -24 -7 -65 -15 -92 -8 -27 -15 -56 -15
-64 0 -8 46 -44 103 -80 191 -120 268 -172 264 -176 -2 -3 -35 7 -73 21 -38
14 -112 42 -164 61 -52 19 -99 39 -103 43 -5 5 -4 19 3 31 10 20 8 26 -18 50
-43 39 -49 85 -23 175 26 91 26 110 1 135 -22 22 -66 26 -105 8 -32 -14 -31
-28 1 -84 24 -41 25 -47 15 -95 -8 -36 -27 -74 -61 -119 -61 -82 -78 -123 -86
-199 l-7 -58 88 -164 c48 -90 105 -198 127 -239 l40 -75 -39 41 c-42 44 -38
40 -171 203 -66 80 -91 118 -86 130 4 9 8 55 9 102 3 98 16 133 94 263 58 95
72 151 47 189 -37 56 -89 35 -101 -40 -4 -26 -7 -69 -6 -95 1 -38 -5 -54 -32
-90 -41 -54 -83 -71 -103 -43 -23 31 -17 43 21 42 23 -1 42 6 55 19 33 33 32
59 -6 114 -19 27 -34 53 -34 57 0 4 17 32 38 63 61 87 80 173 47 210 -20 22
-7 59 32 90 21 17 37 21 66 17 35 -5 37 -3 37 22 0 46 -26 71 -74 71 -47 0
-76 -23 -96 -75 l-11 -29 -18 39 c-10 22 -26 46 -35 54 -44 37 -126 -3 -126
-61 0 -27 1 -28 41 -22 35 6 44 3 70 -22 32 -30 37 -55 15 -73 -8 -7 -17 -28
-21 -49 -7 -41 -49 -112 -66 -112 -6 0 -9 8 -7 18 4 26 -20 52 -48 52 -20 0
-24 5 -24 33 0 17 -3 43 -7 57 l-6 25 22 -22 c12 -13 28 -23 35 -23 21 0 46
34 46 63 0 27 -13 36 -25 17 -10 -16 -42 -12 -49 6 -3 8 -1 24 4 34 6 10 10
33 10 51 0 24 7 39 26 54 l26 20 -13 103 c-14 115 -31 133 -45 50 -8 -41 -12
25 -18 282 -9 342 -21 603 -25 540z m-94 -787 c-1 -378 -2 -408 -7 -193 -4
176 -7 222 -10 150 l-4 -105 -6 85 -6 85 -5 -75 c-4 -64 -5 -56 -7 50 -1 69 3
166 8 215 11 95 31 235 35 235 1 0 2 -201 2 -447z m-32 -214 c4 -27 4 -53 1
-56 -3 -4 -6 6 -6 20 0 15 -4 27 -10 27 -5 0 -10 14 -10 30 0 49 18 34 25 -21z
m5 -125 c0 -14 -4 -23 -10 -19 -5 3 -10 -3 -10 -14 0 -28 11 -52 21 -45 5 3 9
-6 9 -19 0 -20 -4 -24 -20 -20 -18 5 -20 14 -20 74 0 55 3 69 15 69 9 0 15
-10 15 -26z m-191 -269 c38 -36 54 -75 31 -75 -20 0 -94 86 -117 138 -36 77
-21 105 17 32 16 -30 47 -73 69 -95z m531 51 c-11 -24 -44 -66 -73 -93 -42
-39 -52 -45 -55 -30 -2 11 16 39 48 73 28 30 61 75 73 101 20 45 22 46 25 20
2 -15 -6 -47 -18 -71z m-346 75 c8 -13 -4 -42 -15 -35 -12 7 -12 44 0 44 6 0
12 -4 15 -9z m106 -8 c0 -10 -4 -24 -9 -31 -6 -10 -10 -8 -14 9 -3 12 -4 26
-1 31 9 14 24 9 24 -9z m-166 -80 c3 -10 8 -35 12 -56 l7 -39 -27 27 c-29 29
-37 85 -12 85 8 0 17 -8 20 -17z m103 -30 c-3 -10 -5 -2 -5 17 0 19 2 27 5 18
2 -10 2 -26 0 -35z m133 17 c0 -18 -10 -39 -26 -55 l-26 -26 7 43 c11 67 45
96 45 38z m-303 -112 c-3 -7 -5 -2 -5 12 0 14 2 19 5 13 2 -7 2 -19 0 -25z
m30 -10 c-3 -8 -6 -5 -6 6 -1 11 2 17 5 13 3 -3 4 -12 1 -19z m59 -13 c-6 -17
-26 -20 -26 -5 0 16 24 40 28 29 2 -5 1 -16 -2 -24z m221 13 c-3 -8 -6 -5 -6
6 -1 11 2 17 5 13 3 -3 4 -12 1 -19z m-42 -18 c-5 -8 -11 -8 -17 -2 -6 6 -7
16 -3 22 5 8 11 8 17 2 6 -6 7 -16 3 -22z m147 -61 c0 -13 -4 -40 -9 -59 l-9
-35 -13 47 c-8 26 -17 45 -22 42 -5 -3 -9 4 -9 15 0 13 8 21 23 23 28 5 39 -4
39 -33z m-305 9 c-3 -8 -6 -5 -6 6 -1 11 2 17 5 13 3 -3 4 -12 1 -19z m120 0
c-3 -8 -6 -5 -6 6 -1 11 2 17 5 13 3 -3 4 -12 1 -19z m128 -113 c4 -14 1 -12
-9 5 -8 14 -15 45 -14 70 l0 45 8 -50 c4 -27 11 -59 15 -70z m-318 68 c-3 -10
-5 -4 -5 12 0 17 2 24 5 18 2 -7 2 -21 0 -30z m263 -3 l-8 -35 -1 31 c-1 17 2
34 6 37 11 12 12 3 3 -33z m-253 -52 c-3 -8 -6 -5 -6 6 -1 11 2 17 5 13 3 -3
4 -12 1 -19z m51 -4 c19 11 25 -15 8 -32 -15 -15 -18 -15 -26 -2 -5 8 -10 24
-10 35 0 15 2 17 9 6 5 -7 13 -11 19 -7z m189 -16 c-3 -7 -5 -2 -5 12 0 14 2
19 5 13 2 -7 2 -19 0 -25z m-41 13 c11 9 14 7 14 -9 0 -12 -5 -24 -11 -28 -16
-9 -43 21 -33 37 6 10 9 10 12 1 3 -10 7 -10 18 -1z m-189 -43 c-3 -8 -6 -5
-6 6 -1 11 2 17 5 13 3 -3 4 -12 1 -19z m110 -240 c-3 -8 -6 -5 -6 6 -1 11 2
17 5 13 3 -3 4 -12 1 -19z m113 -25 c0 -10 3 -36 6 -58 5 -38 4 -39 -10 -21
-18 22 -22 96 -6 96 6 0 10 -8 10 -17z m-30 -18 c0 -8 -4 -15 -10 -15 -5 0 -7
7 -4 15 4 8 8 15 10 15 2 0 4 -7 4 -15z m-163 -17 c-3 -8 -6 -5 -6 6 -1 11 2
17 5 13 3 -3 4 -12 1 -19z m73 -180 c0 -106 -3 -224 -7 -263 l-6 -70 -38 180
c-48 228 -49 263 -8 310 56 64 59 57 59 -157z"/>
<path d="M1203 765 c0 -33 2 -45 4 -27 2 18 2 45 0 60 -2 15 -4 0 -4 -33z"/>
<path d="M1213 570 c0 -30 2 -43 4 -27 2 15 2 39 0 55 -2 15 -4 2 -4 -28z"/>
<path d="M1532 2805 c0 -16 2 -22 5 -12 2 9 2 23 0 30 -3 6 -5 -1 -5 -18z"/>
<path d="M1133 2605 c0 -33 2 -45 4 -27 2 18 2 45 0 60 -2 15 -4 0 -4 -33z"/>
<path d="M1302 2570 c0 -19 2 -27 5 -17 2 9 2 25 0 35 -3 9 -5 1 -5 -18z"/>
<path d="M1083 805 c0 -22 2 -30 4 -17 2 12 2 30 0 40 -3 9 -5 -1 -4 -23z"/>
<path d="M1073 675 c0 -22 2 -30 4 -17 2 12 2 30 0 40 -3 9 -5 -1 -4 -23z"/>
<path d="M1405 478 c-3 -7 -1 -26 4 -43 9 -29 9 -29 10 13 1 41 -5 54 -14 30z"/>
</g>
</svg>
