<?xml version="1.0" standalone="no"?>
<!DOCTYPE svg PUBLIC "-//W3C//DTD SVG 20010904//EN"
 "http://www.w3.org/TR/2001/REC-SVG-20010904/DTD/svg10.dtd">
<svg version="1.0" xmlns="http://www.w3.org/2000/svg"
 width="244.000000pt" height="305.000000pt" viewBox="0 0 244.000000 305.000000"
 preserveAspectRatio="xMidYMid meet">
<metadata>
Created by potrace 1.16, written by Peter Selinger 2001-2019
</metadata>
<g transform="translate(0.000000,305.000000) scale(0.100000,-0.100000)"
fill="#000000" stroke="none">
<path d="M967 2900 c-8 -19 -33 -192 -52 -350 -9 -69 -18 -237 -21 -375 l-6
-250 36 -24 c20 -13 36 -27 36 -32 0 -5 9 -9 20 -9 13 0 20 -7 20 -20 0 -26
-15 -26 -34 1 -21 30 -108 33 -131 4 -18 -25 -16 -81 4 -77 7 1 28 -2 46 -8
43 -14 64 -59 45 -95 -20 -38 -7 -117 34 -199 42 -85 43 -96 16 -121 -23 -21
-28 -13 -32 55 -3 42 -5 45 -33 48 -51 5 -57 9 -45 33 9 17 8 25 -6 40 -15 16
-29 19 -78 17 -54 -3 -62 -6 -73 -28 -10 -21 -9 -38 2 -85 18 -76 19 -128 3
-123 -17 6 -26 42 -27 105 -1 28 -6 55 -12 59 -9 5 -11 -17 -7 -84 l5 -91 -26
5 c-23 5 -33 -3 -78 -58 -29 -35 -64 -76 -80 -93 -65 -69 -172 -200 -164 -203
4 -1 29 7 55 18 53 22 70 25 61 10 -15 -24 21 -10 227 88 58 28 108 57 111 64
7 20 61 -35 76 -79 13 -35 12 -38 -10 -55 -13 -10 -29 -22 -34 -26 -9 -8 -120
-437 -140 -542 l-7 -35 34 45 33 44 5 -29 6 -30 18 30 c11 17 40 62 65 100 25
39 48 75 50 80 2 6 18 30 34 54 17 24 47 73 68 108 32 56 36 69 28 96 -15 53
-13 57 39 57 51 0 103 -25 121 -58 8 -15 4 -27 -16 -55 l-25 -35 16 -104 c36
-227 46 -288 66 -413 12 -71 23 -131 25 -133 3 -3 5 8 59 348 53 328 51 300
22 339 -28 38 -25 55 21 91 21 16 38 20 77 18 l51 -3 -3 -53 c-2 -38 2 -61 15
-80 10 -15 23 -36 30 -47 48 -80 209 -333 219 -344 10 -11 11 -6 7 30 l-5 44
26 -34 c21 -28 26 -31 26 -15 0 28 -21 123 -76 343 -46 185 -50 194 -76 203
-32 11 -35 32 -14 81 19 44 54 73 99 81 30 6 37 4 37 -10 0 -11 -6 -15 -20
-11 -27 7 -34 -7 -12 -24 27 -22 296 -149 315 -149 4 0 7 7 7 16 0 11 5 14 18
9 9 -4 26 -10 37 -13 19 -5 19 -5 1 23 -20 30 -27 39 -137 164 -41 46 -87 99
-102 118 -18 21 -37 33 -53 33 l-24 0 6 88 c4 50 3 84 -2 79 -5 -5 -11 -43
-14 -85 -3 -52 -9 -77 -19 -80 -12 -4 -13 9 -7 74 4 44 9 89 12 101 12 47 -58
77 -134 56 -21 -5 -23 -11 -20 -44 4 -39 3 -39 -33 -39 -40 0 -49 -14 -49 -77
0 -39 -17 -51 -35 -27 -20 27 -18 60 5 92 44 59 76 201 50 217 -17 10 -11 58
10 84 14 16 30 23 55 23 19 0 36 5 36 12 6 58 -25 91 -87 91 l-46 0 36 31 c23
20 36 40 36 55 -1 21 -2 22 -11 7 -5 -10 -14 -18 -19 -18 -4 0 -9 78 -9 173
-2 189 -15 428 -32 551 -6 43 -10 102 -9 130 3 81 1 98 -10 91 -5 -3 -10 1
-10 9 0 9 -3 16 -7 16 -5 0 -9 -45 -9 -100 -2 -131 -11 -190 -30 -190 -11 0
-14 -13 -12 -57 l1 -58 7 50 c7 48 7 27 -2 -145 -1 -21 -4 -10 -8 30 -5 39 -6
-6 -5 -115 2 -132 1 -155 -4 -85 -6 79 -7 60 -9 -109 l-2 -204 33 -31 c17 -18
40 -35 50 -39 19 -7 22 -22 6 -32 -5 -4 -21 5 -34 19 -23 25 -59 33 -81 18
-18 -11 -34 -48 -34 -76 0 -23 4 -26 36 -26 23 0 42 -6 50 -17 16 -21 18 -73
4 -73 -5 0 -10 -14 -10 -31 0 -42 -42 -123 -91 -176 -39 -43 -48 -66 -29 -78
14 -9 44 12 100 66 37 37 41 39 26 14 -29 -47 -66 -83 -103 -100 -29 -14 -34
-21 -30 -41 2 -13 0 -24 -4 -24 -13 0 -10 107 4 160 10 37 19 48 49 63 32 16
36 21 28 37 -12 22 -43 34 -69 25 -11 -3 -29 -29 -42 -61 -22 -51 -24 -54 -32
-32 -36 92 -66 114 -112 84 -32 -21 -32 -34 -1 -42 34 -8 53 -32 62 -79 l7
-40 -39 41 c-46 47 -94 138 -94 176 0 15 -4 30 -10 33 -13 8 -13 38 2 70 9 20
18 25 50 25 36 0 38 2 38 30 0 45 -42 84 -81 76 -36 -7 -37 3 -4 34 25 23 25
24 25 209 0 102 -5 251 -10 331 -13 188 -60 528 -60 435 0 -23 -16 -9 -22 20
-4 16 -6 17 -11 5z m10 -102 c-2 -13 -4 -3 -4 22 0 25 2 35 4 23 2 -13 2 -33
0 -45z m21 -477 c-2 -264 -6 -405 -13 -404 -6 2 -11 118 -13 315 -3 343 5 559
19 519 5 -13 8 -206 7 -430z m135 -926 c22 -14 30 -15 42 -5 13 11 15 6 15
-39 0 -28 -4 -51 -9 -51 -4 0 -6 11 -3 25 4 21 -1 28 -29 40 -41 18 -57 31
-87 69 -34 44 -25 56 11 15 18 -20 44 -44 60 -54z m12 -125 c-6 -28 2 -44 28
-53 23 -9 22 -44 -3 -57 -16 -9 -24 -7 -36 5 -19 19 -35 19 -81 0 -33 -14 -38
-14 -55 1 -27 25 -22 31 20 30 l37 -1 -2 55 c-4 79 -2 81 52 62 40 -15 45 -20
40 -42z m273 -13 l-3 -62 38 1 c42 1 46 -5 18 -30 -18 -16 -22 -16 -50 -2 -38
20 -65 20 -85 0 -24 -24 -56 -9 -56 27 0 22 5 29 20 29 20 0 25 13 21 58 -1
15 4 22 16 22 10 1 29 7 43 14 14 8 28 12 33 9 4 -2 6 -32 5 -66z m457 -34
c148 -177 175 -214 148 -199 -42 23 -54 35 -118 116 -33 41 -63 77 -66 80 -3
3 -11 15 -18 28 -22 41 12 25 54 -25z m-1153 15 c-3 -13 -14 -29 -24 -36 -10
-7 -18 -23 -18 -36 0 -17 -16 -34 -59 -65 -110 -77 -103 -45 17 78 42 44 80
80 84 81 3 0 4 -10 0 -22z m-204 -170 c-24 -31 -104 -85 -113 -76 -6 5 117
107 129 108 5 0 -3 -15 -16 -32z m682 -29 c0 -16 7 -46 15 -66 20 -47 34 -34
50 44 6 32 18 59 26 62 11 3 11 1 3 -10 -6 -8 -14 -35 -16 -61 -3 -26 -14 -61
-25 -79 l-20 -31 -21 44 c-21 45 -36 142 -21 132 5 -3 9 -19 9 -35z m760 -30
c0 -4 -13 -2 -30 4 -16 6 -30 15 -30 18 0 4 14 2 30 -4 17 -6 30 -15 30 -18z
m-1020 -88 c-23 -94 -139 -339 -147 -314 -8 23 67 230 119 332 16 29 29 60 29
70 1 9 4 3 6 -13 3 -16 -1 -50 -7 -75z m709 -4 c9 -23 88 -340 97 -387 4 -22
3 -23 -7 -6 -33 54 -126 416 -107 416 4 0 12 -10 17 -23z m1 -322 c37 -63 62
-115 55 -115 -5 0 -80 121 -105 170 -19 39 -20 42 -3 25 10 -11 34 -47 53 -80z
m-895 -56 c-10 -21 -22 -39 -27 -39 -5 0 -8 3 -6 8 31 70 43 91 46 82 3 -7 -4
-29 -13 -51z"/>
<path d="M1452 2820 c0 -14 2 -19 5 -12 2 6 2 18 0 25 -3 6 -5 1 -5 -13z"/>
<path d="M1521 2724 c0 -11 3 -14 6 -6 3 7 2 16 -1 19 -3 4 -6 -2 -5 -13z"/>
<path d="M1526 2670 c8 -43 14 -51 14 -19 0 13 -5 31 -10 39 -7 11 -8 5 -4
-20z"/>
<path d="M1432 2660 c0 -14 2 -19 5 -12 2 6 2 18 0 25 -3 6 -5 1 -5 -13z"/>
<path d="M1227 2584 c-29 -94 -56 -368 -58 -574 -1 -140 -10 -138 -24 4 -6 72
-18 106 -31 93 -11 -10 -23 -94 -23 -163 -1 -53 2 -63 25 -83 22 -19 25 -28
22 -74 -3 -50 -4 -52 -33 -52 -27 0 -30 -3 -28 -28 1 -16 7 -35 14 -43 15 -18
48 -18 55 1 8 20 23 9 17 -13 -2 -11 8 -30 26 -50 17 -17 31 -38 31 -46 0 -30
19 -25 36 9 9 20 25 40 36 46 16 9 19 17 14 42 -6 29 -5 29 12 14 31 -28 56
-21 71 18 16 44 7 58 -30 50 l-29 -7 0 56 c0 47 4 59 27 80 26 24 26 26 20
118 -3 52 -9 102 -13 112 -14 37 -30 5 -41 -89 -7 -54 -14 -103 -17 -109 -2
-6 -5 43 -5 110 -2 207 -36 539 -60 583 -7 12 -10 11 -14 -5z"/>
<path d="M1541 2574 c0 -11 3 -14 6 -6 3 7 2 16 -1 19 -3 4 -6 -2 -5 -13z"/>
<path d="M1553 2425 c0 -22 2 -30 4 -17 2 12 2 30 0 40 -3 9 -5 -1 -4 -23z"/>
<path d="M1563 2285 c0 -38 2 -53 4 -32 2 20 2 52 0 70 -2 17 -4 1 -4 -38z"/>
</g>
</svg>
