<?xml version="1.0" standalone="no"?>
<!DOCTYPE svg PUBLIC "-//W3C//DTD SVG 20010904//EN"
 "http://www.w3.org/TR/2001/REC-SVG-20010904/DTD/svg10.dtd">
<svg version="1.0" xmlns="http://www.w3.org/2000/svg"
 width="244.000000pt" height="305.000000pt" viewBox="0 0 244.000000 305.000000"
 preserveAspectRatio="xMidYMid meet">
<metadata>
Created by potrace 1.16, written by Peter Selinger 2001-2019
</metadata>
<g transform="translate(0.000000,305.000000) scale(0.100000,-0.100000)"
fill="#000000" stroke="none">
<path d="M1548 2845 c-47 -198 -74 -425 -84 -726 l-7 -195 31 -13 c17 -7 38
-21 48 -32 22 -24 36 -24 58 0 10 11 31 25 48 32 l31 13 -7 195 c-3 108 -10
246 -16 306 -11 122 -52 384 -58 367 -2 -6 6 -73 18 -149 25 -164 38 -334 41
-537 l2 -149 -38 -28 c-21 -16 -42 -26 -46 -23 -11 7 -12 920 -1 942 5 9 6 28
3 42 -5 19 -10 10 -23 -45z"/>
<path d="M892 2858 c-45 -178 -70 -381 -82 -662 -6 -136 -8 -256 -5 -267 4
-10 13 -19 20 -19 8 0 30 -13 48 -30 l34 -30 29 26 c16 14 39 29 52 34 21 9
22 15 22 104 0 143 -19 439 -35 556 -20 141 -54 313 -64 323 -5 4 -13 -11 -19
-35z m32 -45 c35 -166 66 -503 66 -718 l0 -140 -34 -27 c-19 -16 -39 -28 -44
-28 -6 0 -10 184 -11 470 -1 294 2 470 8 470 5 0 12 -12 15 -27z"/>
<path d="M1289 2714 c-1 -76 -4 -166 -8 -199 l-6 -60 -14 60 c-21 93 -26 94
-47 7 -10 -44 -22 -78 -26 -76 -4 3 -9 -21 -11 -53 -2 -32 -4 55 -3 194 1 139
-2 243 -6 232 -5 -11 -11 -229 -15 -485 -3 -256 -9 -467 -13 -469 -4 -2 -12
35 -19 83 -16 112 -30 167 -41 156 -10 -12 -30 -129 -30 -180 0 -34 5 -42 35
-62 31 -20 35 -27 35 -65 0 -24 -6 -52 -14 -63 -13 -16 -18 -17 -35 -6 -43 25
-54 5 -26 -48 19 -38 46 -38 80 -3 l25 28 0 -36 c0 -20 3 -51 6 -68 6 -30 5
-31 -17 -23 -27 11 -58 2 -78 -22 -12 -14 -11 -16 5 -16 35 0 47 -15 39 -50
l-7 -32 -40 38 c-43 43 -78 102 -78 134 0 11 -9 29 -19 39 -24 24 -18 54 18
82 21 17 35 20 69 15 40 -5 42 -4 42 20 0 33 -51 84 -83 84 -34 0 -74 -34 -82
-70 -8 -38 -31 -39 -38 0 -8 36 -45 62 -91 62 -44 0 -55 -7 -71 -45 -19 -46
-10 -58 36 -51 35 6 42 3 74 -29 38 -38 43 -58 20 -77 -35 -29 -10 -126 56
-221 l42 -60 -31 -32 c-61 -63 -62 -111 -1 -142 49 -26 92 2 69 45 -14 26 -12
77 3 83 6 2 30 -3 52 -11 43 -16 67 -32 48 -32 -7 0 -15 -20 -18 -43 -9 -59
-12 -62 -74 -86 -42 -16 -58 -18 -75 -9 -47 25 -88 94 -80 135 3 15 -1 57 -8
93 -13 62 -15 65 -45 68 -22 2 -38 -3 -54 -19 -33 -33 -22 -90 38 -191 87
-144 95 -165 98 -248 2 -41 6 -91 9 -110 6 -33 1 -41 -88 -148 -52 -62 -120
-141 -152 -175 l-56 -62 36 70 c19 39 52 99 72 135 123 219 147 273 145 316
-2 64 -36 147 -86 207 -78 96 -93 162 -50 225 43 63 26 92 -54 92 -31 0 -44
-6 -60 -26 -26 -33 -26 -41 -1 -111 11 -32 20 -79 20 -106 0 -41 -5 -53 -31
-80 -28 -28 -31 -34 -21 -60 9 -25 8 -29 -11 -36 -12 -5 -60 -23 -107 -40 -47
-18 -116 -44 -153 -58 -37 -14 -70 -23 -73 -20 -3 3 18 21 48 39 29 19 112 71
185 117 72 45 134 88 136 96 3 7 -1 35 -8 61 -7 27 -17 76 -20 108 -10 91 -26
47 -19 -51 l7 -82 -34 5 c-30 4 -40 -1 -89 -48 -31 -29 -113 -107 -184 -173
-70 -66 -124 -121 -119 -122 5 -2 112 32 238 74 205 70 230 80 233 101 5 33
21 36 73 13 49 -22 79 -50 103 -95 19 -37 12 -52 -30 -66 -33 -11 -35 -16 -70
-128 -95 -308 -123 -399 -129 -427 -7 -34 -7 -34 188 185 218 244 207 229 194
277 -6 23 -8 45 -5 48 12 12 159 6 186 -7 20 -10 26 -20 24 -38 -11 -107 -13
-320 -3 -336 9 -15 10 -8 6 36 -3 30 -2 48 1 40 22 -58 20 -50 42 -165 34
-177 65 -325 68 -322 2 1 21 97 44 212 23 116 44 219 47 230 4 13 13 -12 25
-70 10 -52 15 -67 11 -35 -9 75 -10 205 -2 263 3 26 2 50 -2 53 -5 3 -9 15 -9
27 0 17 -2 19 -9 8 -8 -12 -11 -9 -16 11 -9 36 1 62 28 77 29 15 118 27 175
23 43 -3 43 -3 37 -35 -4 -18 -11 -37 -16 -43 -10 -12 38 -80 112 -159 20 -22
77 -85 125 -140 141 -157 154 -171 154 -158 0 14 -82 291 -154 518 -10 32 -19
42 -46 51 -38 13 -45 24 -36 60 10 37 56 80 111 104 56 24 75 21 75 -14 0 -26
-28 -14 358 -144 67 -23 122 -37 122 -33 0 5 -17 24 -38 42 -22 19 -90 82
-153 140 -183 171 -184 172 -218 164 l-30 -6 6 93 c4 62 2 90 -5 83 -5 -5 -13
-54 -16 -107 l-7 -98 45 6 c50 7 35 18 237 -174 36 -34 74 -69 85 -76 10 -8
17 -17 14 -19 -6 -6 -358 198 -389 225 -11 9 -25 35 -32 57 -10 35 -9 49 10
106 26 80 27 117 3 138 -25 23 -94 22 -122 -1 l-23 -19 27 -45 c45 -78 35
-134 -44 -233 -58 -73 -72 -104 -71 -165 0 -70 13 -94 60 -110 46 -15 55 -23
66 -60 4 -14 31 -101 60 -195 30 -93 56 -181 60 -195 6 -23 5 -23 -13 5 -28
46 -125 212 -162 280 -17 33 -50 90 -72 128 -68 114 -65 148 36 306 55 86 68
120 64 167 -4 45 -38 71 -80 61 -21 -6 -26 -14 -33 -59 -5 -29 -8 -73 -7 -98
1 -53 -36 -117 -82 -138 -23 -12 -32 -11 -60 2 -18 8 -50 17 -72 18 -34 3 -39
7 -47 35 -11 39 -1 76 14 53 6 -10 7 -5 3 16 -6 30 -4 32 41 48 26 8 52 13 57
10 6 -4 7 -32 3 -70 -6 -56 -4 -65 11 -71 20 -7 82 23 97 48 13 21 -4 64 -38
102 -32 34 -31 51 5 97 63 79 91 190 55 220 -23 19 -18 39 20 77 31 31 40 35
75 31 44 -4 55 8 40 46 -10 28 -47 56 -73 56 -31 0 -76 -32 -92 -67 -9 -18
-18 -33 -20 -33 -3 0 -11 15 -18 33 -17 40 -33 53 -74 62 -28 6 -37 2 -64 -24
-20 -20 -29 -39 -27 -53 3 -20 8 -22 37 -20 47 5 87 -15 101 -49 10 -24 10
-33 -2 -47 -8 -9 -20 -36 -27 -59 -11 -40 -101 -153 -122 -153 -5 0 -9 16 -9
35 0 32 3 36 31 42 30 6 30 6 12 25 -11 10 -35 19 -56 20 l-37 1 6 56 c4 31 8
58 10 60 2 2 13 -8 25 -22 11 -15 29 -27 39 -27 20 0 50 45 50 75 0 17 -25 21
-35 5 -11 -18 -43 -10 -49 13 -13 48 -6 88 19 112 13 14 29 25 35 25 21 0 4
198 -20 223 -9 10 -25 -52 -40 -160 -7 -46 -16 -83 -21 -83 -5 0 -10 118 -11
263 -1 176 -4 234 -8 177 -4 -48 -7 52 -7 227 1 172 -2 316 -6 319 -4 4 -7
-55 -8 -132z m-9 -574 c5 -146 11 -281 13 -300 2 -19 2 -23 0 -7 -2 15 -8 27
-14 27 -5 0 -10 54 -11 123 -1 114 -2 110 -10 -73 -6 -130 -6 -206 1 -230 9
-31 10 -29 6 23 -4 45 -2 58 7 55 8 -3 14 -25 16 -55 2 -38 -2 -55 -17 -74
l-19 -24 -8 29 c-4 16 -5 187 -2 380 3 193 2 378 -1 411 -9 89 0 110 16 40 8
-36 18 -166 23 -325z m-13 -312 c-3 -7 -5 -2 -5 12 0 14 2 19 5 13 2 -7 2 -19
0 -25z m-333 -252 c19 -49 55 -92 129 -150 40 -33 61 -66 41 -66 -18 0 -99 58
-127 90 -39 46 -77 119 -77 149 0 35 16 24 34 -23z m636 17 c0 -44 -55 -128
-116 -177 -31 -25 -62 -46 -70 -46 -24 0 -16 27 14 45 45 29 120 117 139 162
21 49 33 55 33 16z m-373 -40 c-3 -10 -5 -2 -5 17 0 19 2 27 5 18 2 -10 2 -26
0 -35z m80 0 c-3 -10 -5 -2 -5 17 0 19 2 27 5 18 2 -10 2 -26 0 -35z m20 25
c-3 -8 -6 -5 -6 6 -1 11 2 17 5 13 3 -3 4 -12 1 -19z m-60 -95 c-3 -10 -5 -2
-5 17 0 19 2 27 5 18 2 -10 2 -26 0 -35z m96 -10 c5 -23 3 -32 -6 -30 -8 1
-14 -22 -17 -78 l-5 -80 -7 53 c-8 56 -3 98 14 145 12 32 13 32 21 -10z m-166
-38 c4 -27 6 -70 3 -95 -4 -40 -5 -36 -10 30 -3 52 -9 74 -17 73 -14 -3 -17
16 -7 42 10 25 22 6 31 -50z m170 -77 c-3 -8 -6 -5 -6 6 -1 11 2 17 5 13 3 -3
4 -12 1 -19z m-233 -162 c-3 -21 -8 -35 -11 -32 -2 2 -1 20 3 40 3 21 8 35 11
32 2 -2 1 -20 -3 -40z m198 -11 c-5 -18 -11 -25 -15 -18 -4 7 -2 21 5 32 16
26 19 22 10 -14z m-125 -17 c-3 -8 -6 -5 -6 6 -1 11 2 17 5 13 3 -3 4 -12 1
-19z m-41 -96 c-9 -9 -37 8 -31 18 5 8 11 7 21 -1 8 -6 12 -14 10 -17z m234
18 c0 -13 -28 -25 -38 -16 -3 4 0 11 8 16 20 13 30 12 30 0z m-133 -172 c-3
-8 -6 -5 -6 6 -1 11 2 17 5 13 3 -3 4 -12 1 -19z m72 -166 c12 -73 10 -86 -24
-257 -19 -99 -37 -183 -38 -187 -5 -20 -7 529 -1 554 l6 29 23 -31 c15 -20 27
-57 34 -108z m-152 106 c-3 -8 -6 -5 -6 6 -1 11 2 17 5 13 3 -3 4 -12 1 -19z
m180 -105 c-3 -10 -5 -2 -5 17 0 19 2 27 5 18 2 -10 2 -26 0 -35z"/>
<path d="M1253 710 c0 -30 2 -43 4 -27 2 15 2 39 0 55 -2 15 -4 2 -4 -28z"/>
<path d="M1251 634 c0 -11 3 -14 6 -6 3 7 2 16 -1 19 -3 4 -6 -2 -5 -13z"/>
<path d="M1183 2500 c0 -25 2 -35 4 -22 2 12 2 32 0 45 -2 12 -4 2 -4 -23z"/>
<path d="M1391 1214 c0 -11 3 -14 6 -6 3 7 2 16 -1 19 -3 4 -6 -2 -5 -13z"/>
<path d="M1101 480 l1 -65 9 48 c6 31 6 54 0 65 -8 12 -10 0 -10 -48z"/>
</g>
</svg>
