<?xml version="1.0" standalone="no"?>
<!DOCTYPE svg PUBLIC "-//W3C//DTD SVG 20010904//EN"
 "http://www.w3.org/TR/2001/REC-SVG-20010904/DTD/svg10.dtd">
<svg version="1.0" xmlns="http://www.w3.org/2000/svg"
 width="244.000000pt" height="305.000000pt" viewBox="0 0 244.000000 305.000000"
 preserveAspectRatio="xMidYMid meet">
<metadata>
Created by potrace 1.16, written by Peter Selinger 2001-2019
</metadata>
<g transform="translate(0.000000,305.000000) scale(0.100000,-0.100000)"
fill="#000000" stroke="none">
<path d="M898 2881 c-2 -17 -1 -31 4 -31 4 0 8 -214 8 -475 0 -261 -2 -475 -5
-475 -3 0 -23 12 -45 26 l-40 27 0 123 c0 168 17 403 41 558 20 133 23 187 8
126 -33 -134 -64 -511 -69 -827 0 -6 9 -15 20 -18 11 -4 34 -18 51 -32 21 -18
35 -24 44 -17 6 5 31 22 55 38 l43 28 -6 202 c-8 239 -28 442 -63 620 -29 147
-39 175 -46 127z"/>
<path d="M1558 2400 c2 -275 0 -500 -4 -500 -8 0 -67 41 -77 55 -9 12 -1 311
14 475 6 63 19 169 30 235 21 130 22 141 14 133 -9 -9 -44 -226 -55 -343 -15
-169 -25 -535 -13 -535 5 0 28 -16 52 -36 l42 -37 27 25 c15 14 37 31 50 37
21 11 22 16 22 154 0 173 -15 395 -35 531 -19 130 -56 306 -64 306 -3 0 -5
-225 -3 -500z"/>
<path d="M1161 2835 c-1 -27 -4 -239 -6 -470 -3 -231 -5 -439 -5 -463 -1 -53
-16 -47 -24 11 -27 183 -38 218 -55 173 -18 -45 -27 -206 -12 -206 7 0 23 -11
36 -25 29 -28 34 -89 11 -121 -13 -16 -18 -17 -35 -6 -43 25 -54 5 -26 -48 19
-37 38 -38 71 -5 14 14 27 25 29 25 3 0 5 -27 5 -60 l0 -60 -34 0 c-41 0 -69
-27 -43 -41 17 -10 24 -59 9 -59 -13 0 -69 63 -86 97 -9 18 -16 42 -16 55 0
13 -9 31 -20 41 -22 19 -18 39 13 75 16 17 31 22 69 22 41 0 48 3 48 19 0 36
-44 75 -83 75 -42 0 -65 -17 -84 -61 -7 -18 -15 -33 -18 -33 -2 0 -12 16 -21
36 -39 82 -164 76 -164 -8 0 -27 2 -28 44 -28 38 0 48 -5 75 -35 35 -40 38
-57 16 -75 -35 -29 -8 -139 53 -219 44 -56 44 -58 13 -94 -45 -50 -55 -84 -36
-114 19 -29 61 -46 93 -38 19 5 23 10 18 28 -14 48 -18 85 -10 100 8 12 15 13
44 3 32 -10 35 -15 32 -46 -1 -26 0 -31 8 -20 5 8 10 11 11 5 1 -5 5 4 10 20
6 22 7 17 3 -20 -7 -71 -13 -86 -32 -84 -9 2 -38 -8 -64 -21 -56 -28 -81 -21
-124 35 -24 32 -28 46 -30 125 -3 109 -13 130 -59 130 -26 0 -39 -6 -51 -25
-26 -39 -13 -96 44 -189 80 -131 94 -164 90 -210 -2 -31 -38 -103 -143 -288
-77 -136 -141 -243 -143 -238 -3 9 80 282 118 385 15 43 22 51 59 63 51 17 63
38 64 111 0 63 -14 96 -69 162 -77 91 -92 167 -48 232 32 47 28 69 -14 83 -47
15 -90 6 -109 -23 -15 -23 -15 -30 5 -99 43 -144 31 -167 -137 -267 -69 -41
-143 -85 -164 -96 -21 -12 -49 -29 -63 -38 -55 -35 -29 -1 63 84 208 191 188
176 233 169 l40 -6 0 37 c0 75 -13 173 -23 173 -6 0 -7 -32 -3 -91 l7 -90 -33
6 c-29 5 -38 1 -68 -28 -19 -18 -66 -62 -105 -97 -98 -89 -236 -222 -233 -225
2 -2 109 32 238 76 129 43 236 79 238 79 1 0 2 11 2 25 0 21 5 25 28 25 42 0
114 -41 140 -80 32 -47 26 -80 -17 -94 -32 -11 -35 -15 -71 -136 -21 -69 -59
-194 -85 -278 -25 -84 -45 -157 -43 -162 2 -4 27 20 57 54 30 33 80 90 111
126 32 36 91 103 132 150 96 110 99 115 81 157 -7 19 -11 38 -8 43 8 13 146
13 179 0 20 -7 26 -17 27 -42 l1 -33 8 30 c6 25 8 27 15 12 10 -24 -3 -84 -20
-91 -10 -4 -15 -20 -15 -53 0 -37 3 -45 11 -33 8 12 9 10 5 -10 -3 -14 -6 -45
-6 -70 0 -33 -3 -41 -10 -30 -7 11 -10 1 -8 -35 1 -27 -1 -75 -4 -105 -4 -30
2 -9 14 47 12 57 24 103 27 103 4 0 26 -98 50 -217 24 -119 47 -228 50 -242 5
-18 21 45 55 214 26 132 52 243 58 246 6 4 9 23 6 43 -2 20 0 32 5 27 4 -4 9
-45 10 -90 1 -44 6 -81 11 -81 8 0 5 96 -10 311 -6 79 -5 88 12 97 21 11 66
16 138 13 l48 -1 -6 -36 c-4 -19 -9 -41 -12 -49 -6 -15 373 -451 383 -441 3 2
-30 118 -72 258 -42 139 -78 261 -81 271 -3 11 -21 25 -40 33 -19 8 -37 20
-40 28 -14 36 45 107 114 138 50 23 72 18 72 -15 0 -21 18 -29 231 -100 128
-43 234 -76 236 -74 1 2 -61 64 -139 138 -79 74 -161 151 -183 172 -34 32 -45
37 -72 32 l-33 -6 7 92 c5 69 3 90 -5 85 -7 -4 -12 -28 -12 -54 -1 -26 -7 -65
-15 -87 -26 -73 -27 -72 138 -177 83 -53 170 -106 191 -119 68 -40 22 -32
-116 19 -73 28 -150 56 -170 63 -38 13 -46 30 -28 59 7 11 2 22 -20 41 -42 39
-47 84 -20 185 18 67 21 89 12 109 -13 29 -48 40 -97 31 -50 -10 -58 -32 -28
-79 21 -34 25 -49 21 -97 -4 -51 -10 -65 -58 -126 -62 -79 -92 -149 -93 -219
-1 -46 8 -68 107 -250 60 -110 115 -210 123 -222 8 -12 13 -27 11 -32 -1 -6
-67 66 -145 159 l-141 170 5 98 c7 132 13 151 88 277 36 60 66 119 67 130 5
71 -19 108 -66 103 -28 -3 -32 -7 -44 -58 -7 -30 -10 -73 -8 -94 6 -48 -11
-82 -59 -125 -42 -37 -43 -37 -93 -11 -36 19 -41 26 -52 80 -7 35 -17 57 -23
53 -5 -3 -8 0 -5 8 2 7 23 19 46 26 41 11 42 11 48 -13 6 -22 2 -52 -12 -87
-7 -19 29 -40 55 -32 30 9 61 45 61 70 0 13 -16 44 -35 69 -19 26 -35 49 -35
53 0 3 18 29 40 58 62 81 93 197 55 211 -20 8 -18 44 3 70 26 31 59 46 95 42
28 -3 32 0 35 22 4 37 -31 70 -74 70 -44 0 -78 -22 -94 -60 -13 -32 -30 -40
-30 -15 0 8 -13 29 -28 47 -38 41 -85 43 -119 4 -12 -15 -23 -38 -23 -51 0
-23 2 -24 48 -18 44 5 51 3 70 -22 26 -32 28 -58 7 -75 -8 -7 -15 -22 -15 -33
0 -33 -37 -100 -75 -137 l-35 -34 0 33 c0 25 5 34 20 38 20 5 20 7 4 24 -10
11 -31 19 -51 19 l-33 0 0 60 c0 33 2 60 5 60 2 0 15 -11 29 -25 14 -14 30
-25 36 -25 14 0 43 35 46 56 4 28 -4 33 -37 22 -39 -14 -49 -1 -49 64 0 44 3
50 35 70 40 26 43 45 24 157 -20 126 -31 120 -53 -29 -9 -57 -19 -107 -24
-112 -4 -4 -6 106 -4 245 1 139 -1 349 -6 467 l-9 215 -3 -295 c-2 -162 -5
-279 -7 -260 -10 95 -36 241 -52 295 l-19 60 -11 -40 c-6 -22 -17 -69 -24
-105 -12 -63 -12 -58 -23 180 -6 135 -12 223 -13 195z m67 -422 c-1 -65 -1
-266 0 -446 1 -181 -2 -335 -6 -343 -7 -12 -11 -12 -26 -1 -26 19 -33 99 -12
132 20 30 18 101 -1 97 -15 -2 -17 36 -3 58 8 12 10 12 10 -5 0 -11 5 -27 10
-35 7 -10 9 21 8 95 -1 82 -3 97 -7 60 -6 -44 -7 -39 -12 45 -2 52 -2 142 2
200 7 102 28 260 35 260 2 0 3 -53 2 -117z m-283 -855 c19 -40 48 -77 82 -106
29 -25 53 -54 53 -64 0 -16 -2 -16 -34 3 -70 41 -145 148 -146 207 0 36 13 25
45 -40z m621 30 c-14 -74 -125 -208 -172 -208 -18 0 -18 15 0 32 81 74 121
121 139 160 25 55 42 63 33 16z m-399 0 c-3 -8 -6 -5 -6 6 -1 11 2 17 5 13 3
-3 4 -12 1 -19z m114 -31 c-8 -8 -11 -4 -11 14 0 33 14 47 18 19 2 -12 -1 -27
-7 -33z m26 21 c-3 -7 -5 -2 -5 12 0 14 2 19 5 13 2 -7 2 -19 0 -25z m-107 -4
c0 -14 -4 -23 -10 -19 -5 3 -10 15 -10 26 0 10 5 19 10 19 6 0 10 -12 10 -26z
m37 -96 c-2 -13 -4 -5 -4 17 -1 22 1 32 4 23 2 -10 2 -28 0 -40z m-88 24 c15
-29 26 -162 12 -162 -7 0 -11 20 -11 50 0 36 -4 52 -15 56 -9 4 -15 19 -15 40
0 37 14 45 29 16z m201 -16 c0 -21 -6 -36 -15 -40 -10 -4 -15 -20 -15 -50 0
-25 -5 -48 -12 -52 -14 -9 -3 114 14 151 16 35 28 31 28 -9z m7 -118 c-3 -8
-6 -5 -6 6 -1 11 2 17 5 13 3 -3 4 -12 1 -19z m20 -100 c-3 -7 -5 -2 -5 12 0
14 2 19 5 13 2 -7 2 -19 0 -25z m22 -83 c0 -5 -4 -3 -9 5 -5 8 -9 22 -9 30 0
16 17 -16 18 -35z m-262 13 c-3 -8 -6 -5 -6 6 -1 11 2 17 5 13 3 -3 4 -12 1
-19z m177 -5 c-9 -36 -13 -40 -24 -23 -13 20 -12 33 0 25 6 -3 13 1 16 9 10
26 15 18 8 -11z m23 -5 c-3 -7 -5 -2 -5 12 0 14 2 19 5 13 2 -7 2 -19 0 -25z
m-159 14 c7 -5 10 -16 6 -25 -7 -18 -24 -23 -24 -8 0 5 -3 16 -6 25 -7 17 3
20 24 8z m-56 -119 c7 -9 7 -13 -1 -13 -17 0 -35 46 -25 67 6 15 8 13 12 -12
2 -16 8 -36 14 -42z m258 39 c0 -10 -7 -27 -16 -38 -14 -17 -15 -17 -10 -1 3
10 6 27 6 38 0 10 5 19 10 19 6 0 10 -8 10 -18z m-143 -204 c-3 -8 -6 -5 -6 6
-1 11 2 17 5 13 3 -3 4 -12 1 -19z m102 -75 c1 -18 -18 -16 -25 2 -4 8 -3 23
1 33 7 16 8 15 15 -3 5 -11 9 -26 9 -32z m-114 16 c6 -18 4 -551 -2 -545 -1 1
-16 71 -33 156 -17 85 -36 172 -41 193 -13 49 4 139 34 184 26 38 33 41 42 12z"/>
<path d="M1212 1787 c-1 -43 -6 -66 -12 -62 -6 4 -10 -8 -10 -29 0 -20 4 -36
9 -36 13 0 23 74 19 140 -4 54 -4 54 -6 -13z"/>
<path d="M1213 640 c0 -36 2 -50 4 -32 2 17 2 47 0 65 -2 17 -4 3 -4 -33z"/>
<path d="M1293 2620 c0 -25 2 -35 4 -22 2 12 2 32 0 45 -2 12 -4 2 -4 -23z"/>
<path d="M1144 2340 c0 -69 1 -97 3 -62 2 34 2 90 0 125 -2 34 -3 6 -3 -63z"/>
<path d="M1352 590 c0 -14 2 -19 5 -12 2 6 2 18 0 25 -3 6 -5 1 -5 -13z"/>
<path d="M1375 498 c-2 -7 0 -29 4 -48 l9 -35 1 48 c1 45 -5 60 -14 35z"/>
</g>
</svg>
