<?xml version="1.0" standalone="no"?>
<!DOCTYPE svg PUBLIC "-//W3C//DTD SVG 20010904//EN"
 "http://www.w3.org/TR/2001/REC-SVG-20010904/DTD/svg10.dtd">
<svg version="1.0" xmlns="http://www.w3.org/2000/svg"
 width="244.000000pt" height="305.000000pt" viewBox="0 0 244.000000 305.000000"
 preserveAspectRatio="xMidYMid meet">
<metadata>
Created by potrace 1.16, written by Peter Selinger 2001-2019
</metadata>
<g transform="translate(0.000000,305.000000) scale(0.100000,-0.100000)"
fill="#000000" stroke="none">
<path d="M899 2903 c-2 -16 -4 -24 -12 -43 -11 -29 -47 -236 -61 -360 -8 -69
-18 -227 -22 -351 l-7 -227 22 -7 c12 -4 37 -20 55 -36 31 -26 35 -27 47 -13
8 9 31 28 52 41 l38 24 -6 202 c-4 111 -13 264 -21 339 -20 200 -77 491 -85
431z m7 -534 c0 -258 -2 -469 -6 -469 -3 0 -24 13 -45 28 l-38 29 2 164 c2
187 23 432 52 596 10 61 19 117 19 124 0 7 3 9 8 5 4 -4 7 -219 8 -477z"/>
<path d="M1123 2855 c0 -27 2 -38 4 -22 2 15 2 37 0 50 -2 12 -4 0 -4 -28z"/>
<path d="M1556 2889 c-7 -24 -16 -75 -10 -61 3 6 9 12 13 12 9 0 8 -927 -1
-936 -6 -6 -67 32 -80 51 -19 26 10 489 43 698 11 70 18 133 16 140 -3 6 -6 0
-6 -14 -1 -14 -5 -39 -11 -55 -21 -62 -51 -369 -57 -579 l-6 -220 56 -37 55
-36 23 24 c12 13 30 26 41 30 36 11 38 34 28 276 -10 253 -27 407 -65 592 -25
121 -31 139 -39 115z"/>
<path d="M1336 2798 c-6 -82 -23 -434 -27 -543 -1 -22 -7 7 -14 65 -13 107
-35 215 -54 260 -5 14 -10 22 -10 18 -1 -4 -12 -51 -26 -105 -13 -54 -28 -129
-32 -168 l-8 -70 -6 45 c-3 25 -7 -47 -8 -160 -1 -215 -14 -291 -24 -153 -4
43 -7 237 -7 432 0 195 -2 356 -5 359 -3 3 -5 -30 -6 -74 0 -43 -2 -86 -3 -94
-2 -8 -6 -125 -10 -260 -4 -138 -11 -247 -17 -250 -11 -8 -29 -108 -29 -169 0
-30 5 -48 17 -57 27 -19 10 -27 -33 -15 -51 14 -84 -3 -110 -57 l-20 -43 -18
40 c-41 89 -165 90 -169 1 -2 -34 -2 -34 39 -31 32 2 48 -3 72 -24 43 -36 49
-62 22 -87 -18 -17 -20 -27 -14 -62 8 -52 45 -125 85 -170 33 -39 32 -52 -15
-95 -37 -35 -43 -77 -15 -107 12 -13 29 -24 36 -24 9 0 13 -8 11 -23 -5 -33
-27 -27 -62 16 -26 32 -31 48 -33 95 -2 72 -12 133 -25 150 -15 18 -63 15 -81
-6 -39 -42 -20 -102 83 -272 71 -116 69 -134 -35 -312 -79 -135 -137 -239
-177 -315 -25 -48 -42 -57 -28 -15 21 62 89 281 106 337 22 75 25 79 74 94 49
14 60 37 60 119 0 60 -8 75 -100 198 -23 30 -33 55 -37 95 -4 47 -2 59 22 94
32 47 26 64 -29 83 -31 10 -43 10 -64 0 -43 -21 -49 -55 -22 -144 27 -93 19
-139 -33 -178 -45 -35 -359 -218 -364 -213 -2 2 56 60 129 128 73 68 136 127
139 132 4 6 27 7 54 3 l47 -8 -7 99 c-9 130 -29 151 -23 25 l4 -93 -28 6 c-16
4 -35 1 -46 -7 -34 -23 -362 -331 -362 -339 0 -7 120 30 363 113 104 36 117
43 117 64 0 32 12 36 60 19 53 -19 90 -48 112 -88 26 -48 22 -64 -16 -77 -39
-13 -39 -12 -97 -200 -23 -74 -59 -191 -80 -259 -22 -68 -37 -127 -34 -130 4
-3 9 -1 13 5 4 6 86 100 182 209 96 108 181 206 188 217 11 15 12 29 4 61 -6
22 -9 44 -6 49 3 4 36 8 75 8 83 0 78 33 45 -285 -14 -126 -23 -232 -21 -234
2 -1 9 17 15 40 6 24 17 62 25 84 7 22 15 56 19 75 4 24 -1 18 -14 -20 -18
-52 -18 -53 -13 -14 14 107 59 325 68 327 20 4 16 -54 -10 -149 -14 -53 -23
-99 -21 -102 3 -2 11 17 17 44 10 39 14 44 20 29 5 -11 31 -139 59 -285 28
-146 54 -276 59 -290 6 -19 11 -6 25 65 40 209 98 491 103 505 8 22 9 18 73
-200 38 -130 38 -131 39 -77 1 29 -3 46 -9 42 -6 -4 -8 12 -5 42 3 33 2 40 -3
23 -7 -21 -11 -12 -21 50 -7 41 -24 128 -37 193 -14 65 -22 122 -19 128 12 19
34 8 38 -19 l4 -27 2 28 c1 29 5 30 91 27 25 -1 48 -5 53 -9 4 -4 0 -24 -8
-45 l-16 -38 53 -62 c121 -141 341 -386 344 -384 1 2 -29 107 -68 233 -38 127
-76 252 -84 279 -13 50 -26 66 -55 66 -81 1 0 142 97 169 44 12 54 8 54 -22 0
-20 23 -30 236 -101 129 -43 237 -76 240 -74 2 3 -35 40 -83 84 -48 43 -132
121 -186 172 -92 87 -102 93 -131 88 l-32 -6 3 97 c2 66 0 91 -6 78 -5 -11
-10 -37 -10 -58 -1 -22 -8 -64 -17 -94 -11 -38 -13 -58 -6 -65 11 -11 153
-103 292 -189 46 -29 80 -54 74 -56 -6 -2 -67 17 -135 42 -232 86 -220 78
-204 131 5 15 0 23 -19 32 -16 7 -29 25 -37 52 -11 36 -10 51 5 103 10 34 20
81 23 103 4 35 1 44 -18 58 -41 28 -129 14 -129 -21 0 -10 12 -36 25 -58 14
-22 25 -51 25 -65 -1 -38 -33 -101 -89 -174 -49 -64 -63 -98 -75 -180 -5 -38
23 -101 136 -306 87 -157 110 -202 105 -206 -2 -3 -34 30 -70 73 -36 43 -99
119 -141 168 -41 50 -76 96 -76 104 0 30 23 90 33 84 7 -4 8 1 2 13 -4 10 -10
42 -12 71 -5 46 -1 59 32 120 21 37 50 87 65 109 72 109 58 193 -33 194 -25 0
-38 -41 -42 -137 -3 -68 -7 -88 -27 -112 -28 -36 -49 -46 -60 -29 -5 9 2 22
22 38 41 34 40 72 -5 129 -33 41 -34 46 -20 65 67 92 95 154 95 213 0 21 -6
36 -15 39 -25 10 -17 44 20 81 32 32 39 35 75 29 39 -6 40 -6 40 24 0 27 -28
69 -47 71 -5 0 -17 2 -27 4 -32 6 -77 -24 -92 -61 -18 -43 -27 -43 -43 2 -16
44 -65 69 -106 54 -34 -13 -35 -13 -35 5 0 8 5 15 11 15 12 0 7 118 -7 190
-10 48 -30 35 -41 -27 -8 -44 -11 50 -11 390 0 247 -2 451 -5 453 -2 3 -7 -37
-11 -88z m-124 -633 l-7 -310 -10 125 c-10 104 -12 117 -17 75 -3 -27 -3 0 -1
60 3 97 33 369 39 362 1 -1 0 -142 -4 -312z m115 -297 c-3 -7 -5 -2 -5 12 0
14 2 19 5 13 2 -7 2 -19 0 -25z m-131 -54 c3 -24 3 -55 0 -69 -5 -21 -9 -23
-21 -13 -12 11 -12 15 1 24 18 14 18 40 -1 95 -13 38 -13 41 0 25 8 -10 17
-38 21 -62z m-122 -54 c14 -5 26 -16 26 -25 0 -17 -35 -21 -45 -5 -11 18 -25
11 -25 -13 0 -36 29 -70 54 -63 20 5 22 2 18 -31 -5 -38 -43 -82 -72 -83 -20
0 -50 50 -50 84 0 14 -9 34 -20 43 -27 24 -25 39 9 74 31 30 61 36 105 19z
m421 -15 c28 -27 32 -57 10 -75 -8 -7 -15 -24 -15 -39 0 -33 -35 -91 -55 -91
-8 0 -19 9 -25 20 -6 11 -17 20 -25 20 -10 0 -15 11 -15 34 0 27 5 35 24 40
13 3 29 18 36 35 15 37 6 55 -20 41 -28 -15 -40 -12 -40 9 0 14 8 21 28 24 59
9 74 6 97 -18z m-285 -81 c0 -31 -3 -35 -22 -32 -12 2 -24 9 -26 17 -3 10 0
12 12 8 11 -5 18 1 22 18 9 35 14 31 14 -11z m-277 -88 c10 -25 29 -56 43 -71
13 -15 24 -38 24 -53 l-1 -27 -30 35 c-36 41 -68 106 -69 138 0 35 13 26 33
-22z m194 22 c-3 -8 -6 -5 -6 6 -1 11 2 17 5 13 3 -3 4 -12 1 -19z m181 -24
c-11 -12 -15 -11 -26 6 -11 18 -10 22 10 29 27 10 38 -13 16 -35z m39 14 c-3
-7 -5 -2 -5 12 0 14 2 19 5 13 2 -7 2 -19 0 -25z m218 -5 c-7 -41 -67 -138
-90 -147 -27 -10 -16 31 19 73 19 23 40 57 46 76 16 47 34 46 25 -2z m-381 18
c4 -5 3 -16 0 -25 -5 -13 -9 -14 -20 -5 -8 6 -14 18 -14 25 0 16 26 19 34 5z
m-87 -69 c14 -9 29 -82 16 -82 -16 0 -40 33 -47 63 -6 27 5 35 31 19z m145
-38 c-5 -42 -7 -41 -15 8 -4 27 -2 36 7 32 7 -3 10 -18 8 -40z m168 27 c0 -23
-45 -79 -55 -70 -12 13 7 78 24 82 29 8 31 7 31 -12z m-246 -68 c9 -25 14 -49
11 -51 -6 -6 -35 62 -35 83 0 26 8 16 24 -32z m156 -9 c-17 -49 -24 -36 -9 17
6 24 14 38 16 32 3 -7 -1 -29 -7 -49z m-303 -16 c-3 -7 -5 -2 -5 12 0 14 2 19
5 13 2 -7 2 -19 0 -25z m400 -30 c-3 -7 -5 -2 -5 12 0 14 2 19 5 13 2 -7 2
-19 0 -25z m-347 1 c0 -5 -4 -9 -10 -9 -5 0 -10 7 -10 16 0 8 5 12 10 9 6 -3
10 -10 10 -16z m63 -34 c-4 -12 -9 -13 -19 -4 -8 6 -14 18 -14 26 0 11 4 11
20 3 11 -6 17 -16 13 -25z m229 3 c-6 -6 -16 -7 -23 -3 -9 6 -7 12 7 22 21 15
34 -1 16 -19z m-354 -62 c-2 -10 -8 -13 -16 -7 -7 4 -10 15 -6 25 8 21 28 6
22 -18z m11 -84 c-12 -50 -24 -70 -35 -59 -3 3 4 23 15 46 12 22 22 60 22 83
2 34 3 37 6 13 3 -16 -1 -54 -8 -83z m153 76 c-15 -15 -26 -4 -18 18 5 13 9
15 18 6 9 -9 9 -15 0 -24z m140 0 c-9 -9 -12 -7 -12 12 0 19 3 21 12 12 9 -9
9 -15 0 -24z m160 -39 c6 -4 7 -16 3 -30 -8 -23 -8 -23 -16 -4 -4 11 -7 40 -7
65 1 39 2 41 5 10 3 -19 9 -38 15 -41z m10 39 c-9 -9 -12 -7 -12 12 0 19 3 21
12 12 9 -9 9 -15 0 -24z m-77 -53 c-21 -77 -33 -80 -15 -3 16 71 19 82 26 75
4 -3 -2 -36 -11 -72z m-321 -15 l6 -45 -15 45 c-8 25 -14 54 -14 65 l0 20 8
-20 c5 -11 11 -40 15 -65z m28 38 c-8 -8 -9 -4 -5 13 4 13 8 18 11 10 2 -7 -1
-18 -6 -23z m257 0 c-1 -44 -22 -113 -34 -113 -22 0 -55 33 -49 49 8 20 23 21
30 1 4 -8 10 -15 14 -15 13 0 33 69 27 91 -3 10 -1 19 4 19 5 0 9 -15 8 -32z
m-237 -66 c8 -10 14 -8 24 5 12 16 15 16 23 3 8 -11 4 -21 -14 -37 -13 -13
-26 -23 -29 -23 -7 0 -26 62 -25 84 1 20 2 20 6 1 3 -11 10 -26 15 -33z m372
-12 c24 -9 38 -50 18 -50 -9 0 -33 25 -46 48 -9 15 -5 15 28 2z m-397 -102
c-3 -7 -5 -2 -5 12 0 14 2 19 5 13 2 -7 2 -19 0 -25z m136 -164 c-7 -19 -10
-18 -16 5 -3 13 -1 18 9 14 7 -2 10 -11 7 -19z m97 -60 c0 -40 -2 -44 -15 -30
-18 17 -19 30 -5 57 16 29 20 23 20 -27z m-180 -1 c0 -8 -7 -21 -15 -29 -13
-14 -15 -11 -15 27 0 36 2 40 15 29 8 -7 15 -19 15 -27z m41 -42 c-8 -14 -7
-83 4 -242 9 -122 14 -223 12 -225 -3 -4 -78 350 -85 404 -4 29 2 40 34 73 28
28 40 36 42 25 2 -8 -1 -24 -7 -35z"/>
<path d="M1132 2760 c0 -14 2 -19 5 -12 2 6 2 18 0 25 -3 6 -5 1 -5 -13z"/>
<path d="M1362 2615 c0 -16 2 -22 5 -12 2 9 2 23 0 30 -3 6 -5 -1 -5 -18z"/>
<path d="M1143 2580 c0 -25 2 -35 4 -22 2 12 2 32 0 45 -2 12 -4 2 -4 -23z"/>
<path d="M1374 2335 c0 -66 1 -92 3 -57 2 34 2 88 0 120 -2 31 -3 3 -3 -63z"/>
<path d="M1372 2160 c0 -14 2 -19 5 -12 2 6 2 18 0 25 -3 6 -5 1 -5 -13z"/>
<path d="M1422 845 c0 -16 2 -22 5 -12 2 9 2 23 0 30 -3 6 -5 -1 -5 -18z"/>
<path d="M1432 750 c0 -19 2 -27 5 -17 2 9 2 25 0 35 -3 9 -5 1 -5 -18z"/>
<path d="M1443 645 c0 -22 2 -30 4 -17 2 12 2 30 0 40 -3 9 -5 -1 -4 -23z"/>
</g>
</svg>
