<?xml version="1.0" standalone="no"?>
<!DOCTYPE svg PUBLIC "-//W3C//DTD SVG 20010904//EN"
 "http://www.w3.org/TR/2001/REC-SVG-20010904/DTD/svg10.dtd">
<svg version="1.0" xmlns="http://www.w3.org/2000/svg"
 width="244.000000pt" height="305.000000pt" viewBox="0 0 244.000000 305.000000"
 preserveAspectRatio="xMidYMid meet">
<metadata>
Created by potrace 1.16, written by Peter Selinger 2001-2019
</metadata>
<g transform="translate(0.000000,305.000000) scale(0.100000,-0.100000)"
fill="#000000" stroke="none">
<path d="M936 2901 c-9 -14 -54 -305 -65 -416 -17 -169 -26 -565 -13 -565 19
0 82 -61 82 -79 0 -31 -12 -31 -40 -1 -18 19 -38 30 -54 30 -34 0 -76 -41 -76
-75 0 -23 4 -25 41 -25 33 0 47 -6 70 -31 33 -35 37 -63 12 -77 -13 -8 -15
-20 -10 -65 4 -42 2 -57 -8 -61 -8 -3 -17 -21 -21 -40 -3 -20 -12 -36 -18 -36
-7 0 -23 -11 -35 -24 -20 -21 -23 -33 -20 -87 5 -73 -12 -89 -29 -31 -18 59
-15 91 14 140 l27 45 -23 19 c-13 10 -38 18 -61 18 -30 0 -42 -5 -55 -26 -15
-22 -15 -32 -5 -72 30 -116 33 -136 27 -177 -5 -31 -14 -48 -32 -60 -21 -13
-24 -21 -19 -49 7 -37 20 -29 -179 -112 -71 -30 -131 -53 -133 -50 -2 2 73 58
166 125 93 67 171 127 174 134 2 7 -2 35 -9 62 -8 28 -14 66 -15 85 0 19 -5
46 -9 60 -6 17 -8 -7 -8 -70 l2 -95 -29 3 c-24 3 -38 -7 -88 -60 -33 -35 -111
-116 -174 -180 -62 -65 -109 -118 -104 -118 4 0 102 35 217 78 182 69 209 82
214 103 3 13 14 25 24 27 15 3 17 0 11 -19 -4 -13 -14 -29 -21 -37 -13 -12
-84 -129 -84 -137 0 -3 89 45 188 101 28 17 34 17 42 4 5 -8 10 -27 10 -42 0
-22 -7 -31 -32 -41 -32 -13 -34 -19 -67 -143 -19 -71 -54 -198 -77 -283 -24
-85 -42 -156 -40 -158 4 -5 71 76 186 226 44 57 80 97 80 89 0 -8 -9 -66 -20
-129 -28 -162 -28 -159 -21 -159 3 0 20 28 37 63 16 34 65 128 108 209 70 134
77 152 74 195 l-3 48 34 -2 c42 -2 102 -55 86 -77 -6 -7 -19 -25 -29 -40 -22
-31 -28 23 59 -465 19 -107 35 -199 35 -204 0 -39 16 39 66 320 l56 321 -27
36 c-26 34 -27 39 -14 62 16 31 62 56 92 52 20 -3 22 -8 20 -54 -2 -45 6 -66
88 -225 49 -96 100 -195 112 -221 12 -26 25 -47 28 -48 3 0 -4 53 -16 118 -12
64 -26 139 -30 167 l-7 49 124 -156 c67 -86 124 -153 126 -148 3 8 -36 164
-104 413 -36 134 -38 139 -71 152 -18 8 -33 18 -33 24 0 15 22 61 29 61 11 0
144 -74 204 -113 48 -32 47 -14 -4 62 -27 41 -47 77 -44 79 2 3 19 -2 37 -11
48 -22 337 -127 350 -127 11 0 -16 30 -209 233 -93 98 -106 108 -131 103 l-27
-7 2 93 c1 72 0 84 -7 53 -4 -22 -10 -69 -11 -105 l-4 -65 40 3 c40 3 42 2
160 -124 111 -116 151 -166 114 -139 -8 6 -85 58 -171 115 -88 59 -161 115
-167 128 -16 33 -14 97 5 174 15 63 15 69 0 93 -18 28 -57 33 -101 13 -30 -14
-32 -33 -5 -73 22 -33 27 -113 9 -146 -18 -35 -31 -10 -23 47 6 50 5 55 -25
84 -17 18 -31 40 -31 51 0 10 -11 29 -25 41 -21 18 -23 27 -18 63 4 30 1 46
-11 57 -25 25 -19 51 18 87 29 28 40 33 65 28 29 -6 31 -5 31 23 0 62 -71 91
-123 50 -23 -18 -25 -19 -32 -2 -6 16 28 56 68 78 14 8 15 41 6 289 -6 187
-15 325 -29 415 -26 171 -31 202 -37 197 -2 -2 7 -80 20 -173 13 -93 24 -178
25 -189 10 -188 13 -515 5 -515 -5 0 -19 -9 -32 -21 -12 -12 -25 -19 -28 -16
-9 9 -16 904 -8 924 10 22 10 82 1 72 -7 -7 -46 -209 -47 -243 -1 -63 -18 6
-30 127 -6 64 -14 117 -18 117 -3 0 -5 -226 -3 -502 2 -395 0 -500 -9 -491
-19 19 -38 154 -41 288 -2 100 -3 106 -5 35 -1 -47 -8 -116 -15 -155 l-12 -70
-12 55 c-6 30 -12 45 -13 33 0 -13 -5 -23 -11 -23 -6 0 -10 34 -10 83 0 93
-13 211 -37 337 -19 99 -28 123 -36 94 -21 -71 -49 -259 -54 -369 -3 -71 -9
-137 -14 -145 -6 -11 -9 -9 -10 10 -1 18 -4 13 -13 -19 l-12 -45 -12 65 c-6
35 -14 143 -18 239 -3 96 -14 258 -25 360 -10 102 -19 191 -19 199 0 8 -3 12
-6 8 -3 -3 -6 -185 -6 -404 -1 -338 -2 -374 -9 -238 -13 247 -26 381 -47 490
-24 122 -28 102 -6 -38 8 -56 16 -169 16 -252 1 -114 3 -132 8 -75 5 69 6 62
13 -80 11 -199 6 -342 -10 -348 -10 -3 -13 26 -15 120 l-2 123 -5 -130 c-6
-127 -13 -161 -32 -150 -5 4 -9 199 -9 481 0 261 4 473 8 470 5 -3 6 8 4 25
-5 31 -7 34 -16 20z m355 -855 c0 -87 -2 -161 -5 -164 -3 -3 -6 70 -6 163 0
93 2 166 5 163 3 -2 5 -75 6 -162z m-254 -138 c-3 -8 -6 -5 -6 6 -1 11 2 17 5
13 3 -3 4 -12 1 -19z m-22 -28 c0 -8 -10 -16 -22 -18 -22 -3 -32 16 -16 32 12
11 38 2 38 -14z m474 6 c10 -11 8 -16 -8 -21 -29 -9 -45 3 -30 21 15 18 23 18
38 0z m-78 -19 c-13 -13 -26 -3 -16 12 3 6 11 8 17 5 6 -4 6 -10 -1 -17z
m-321 3 c0 -5 -7 -10 -15 -10 -8 0 -15 5 -15 10 0 6 7 10 15 10 8 0 15 -4 15
-10z m27 -130 c-14 -24 -23 -25 -31 -5 -3 8 2 19 12 24 24 13 34 3 19 -19z
m273 -5 c0 -8 -5 -15 -11 -15 -16 0 -41 29 -34 40 9 14 45 -6 45 -25z m100
-36 c0 -9 -7 -22 -15 -29 -21 -17 -29 8 -15 45 9 23 13 26 20 15 6 -8 10 -22
10 -31z m-474 7 c8 -33 -3 -51 -22 -35 -22 18 -17 59 7 59 5 0 11 -11 15 -24z
m281 -58 c-3 -7 -5 -2 -5 12 0 14 2 19 5 13 2 -7 2 -19 0 -25z m-146 2 c5 0 9
-8 9 -19 0 -10 9 -21 20 -24 11 -3 27 -21 35 -41 9 -20 17 -36 20 -36 2 0 12
16 21 36 10 20 26 39 36 42 10 2 18 12 18 22 0 22 24 32 56 24 25 -6 28 -14
17 -53 -5 -20 -10 -23 -44 -18 -50 7 -73 -11 -89 -69 l-14 -48 -15 45 c-23 65
-27 69 -80 69 -45 0 -49 2 -54 28 -6 30 17 56 41 47 8 -3 18 -5 23 -5z m-191
-58 c0 -10 15 -40 33 -68 49 -76 69 -115 64 -120 -7 -7 -74 74 -97 118 -21 40
-28 104 -10 93 6 -3 10 -14 10 -23z m119 -80 c18 -34 3 -26 -19 11 -11 17 -20
48 -19 67 l1 35 12 -45 c7 -25 18 -55 25 -68z m336 18 c-24 -46 -26 -33 -7 33
15 50 17 54 20 28 2 -16 -4 -44 -13 -61z m91 -13 c-29 -59 -78 -116 -84 -99
-2 7 15 41 37 77 23 35 41 67 41 69 0 3 5 17 12 33 l12 28 4 -28 c2 -17 -7
-50 -22 -80z m-336 -53 c0 -8 -2 -14 -5 -14 -8 0 -45 63 -45 75 1 16 50 -44
50 -61z m180 54 c0 -7 -11 -26 -25 -43 -22 -27 -24 -28 -25 -9 0 11 9 30 20
42 24 25 30 27 30 10z m-414 -130 c-2 -40 -5 -74 -5 -76 -1 -2 -5 0 -11 3 -21
13 -7 145 16 145 3 0 3 -33 0 -72z m618 56 c10 -26 7 -132 -4 -139 -6 -4 -10
13 -10 43 0 27 -3 64 -6 81 -7 32 9 44 20 15z m-376 -78 c3 -15 1 -16 -17 -5
-11 7 -17 17 -14 22 8 13 28 2 31 -17z m152 14 c0 -9 -37 -29 -43 -23 -11 11
5 32 24 30 10 -1 19 -4 19 -7z m-304 -92 c-8 -33 -12 -37 -14 -19 -5 30 6 73
17 67 5 -3 3 -25 -3 -48z m433 4 l0 -37 -13 35 c-13 37 -11 54 5 45 5 -4 9
-23 8 -43z m-317 8 c18 0 18 -1 4 -16 -27 -26 -17 -59 19 -65 14 -3 20 -12 20
-29 0 -21 -4 -25 -25 -22 -14 1 -46 2 -72 2 -37 -1 -49 3 -57 19 -19 34 -12
45 13 22 35 -33 50 -19 42 39 -7 49 -1 64 22 55 7 -3 23 -5 34 -5z m242 -50
c-7 -66 -1 -72 41 -44 24 16 25 15 25 -5 0 -11 -1 -21 -2 -22 -2 0 -30 -3 -62
-5 -33 -2 -65 -9 -71 -14 -7 -6 -16 -5 -23 2 -20 20 -14 48 12 58 13 5 26 15
28 22 8 22 -3 48 -21 49 -9 1 0 5 19 9 64 13 62 15 54 -50z m-564 -5 c7 -14
10 -28 7 -32 -8 -8 -36 26 -37 45 0 20 16 14 30 -13z m830 -29 c0 -3 -4 -8
-10 -11 -5 -3 -10 -1 -10 4 0 6 5 11 10 11 6 0 10 -2 10 -4z m-662 -57 c-3 -8
-7 -3 -11 10 -4 17 -3 21 5 13 5 -5 8 -16 6 -23z m503 -2 c-8 -8 -11 -7 -11 4
0 20 13 34 18 19 3 -7 -1 -17 -7 -23z m-591 -69 c17 -57 15 -193 -4 -258 -11
-36 -47 -94 -123 -195 -59 -79 -109 -142 -111 -140 -2 2 42 97 98 212 140 287
135 271 121 346 -7 34 -15 71 -18 82 -5 17 -3 18 9 8 8 -7 21 -32 28 -55z
m702 -4 c-5 -82 10 -121 48 -129 16 -3 33 -12 38 -18 10 -13 106 -347 117
-407 3 -19 -50 75 -119 212 -115 226 -126 253 -126 302 0 39 6 60 21 80 11 14
21 26 22 26 1 0 0 -30 -1 -66z m-867 40 c0 -12 -40 -60 -80 -94 l-28 -25 23
40 c42 71 62 96 74 92 6 -2 11 -8 11 -13z m1058 -61 c36 -37 64 -69 62 -71 -6
-7 -164 93 -165 104 0 11 20 34 31 34 4 0 36 -30 72 -67z m-558 -123 c3 0 12
15 20 33 9 19 14 25 15 14 0 -18 -27 -77 -35 -77 -8 0 -35 59 -35 77 1 11 6 5
15 -14 8 -18 17 -33 20 -33z m314 -224 c40 -120 70 -220 68 -222 -1 -2 -43 77
-91 174 -84 169 -88 180 -81 222 9 53 14 65 25 53 4 -4 40 -106 79 -227z
m-550 212 c0 -7 -8 -31 -18 -52 l-17 -39 -12 42 c-7 23 -10 46 -7 51 9 15 55
12 54 -2z m-77 -80 c-7 -7 -12 -8 -12 -2 0 14 12 26 19 19 2 -3 -1 -11 -7 -17z
m36 -40 c-3 -7 -24 -71 -48 -143 -23 -71 -47 -134 -52 -140 -7 -7 -8 -3 -5 10
3 11 13 61 22 112 11 61 26 105 43 132 25 38 50 56 40 29z m356 -122 c-9 -58
-19 -104 -21 -102 -3 2 1 47 7 100 7 53 10 105 7 117 -5 20 -4 21 9 7 14 -14
14 -26 -2 -122z"/>
<path d="M1012 2680 c0 -14 2 -19 5 -12 2 6 2 18 0 25 -3 6 -5 1 -5 -13z"/>
<path d="M1393 2590 c0 -25 2 -35 4 -22 2 12 2 32 0 45 -2 12 -4 2 -4 -23z"/>
<path d="M1383 2435 c0 -27 2 -38 4 -22 2 15 2 37 0 50 -2 12 -4 0 -4 -28z"/>
</g>
</svg>
