<?xml version="1.0" standalone="no"?>
<!DOCTYPE svg PUBLIC "-//W3C//DTD SVG 20010904//EN"
 "http://www.w3.org/TR/2001/REC-SVG-20010904/DTD/svg10.dtd">
<svg version="1.0" xmlns="http://www.w3.org/2000/svg"
 width="244.000000pt" height="305.000000pt" viewBox="0 0 244.000000 305.000000"
 preserveAspectRatio="xMidYMid meet">
<metadata>
Created by potrace 1.16, written by Peter Selinger 2001-2019
</metadata>
<g transform="translate(0.000000,305.000000) scale(0.100000,-0.100000)"
fill="#000000" stroke="none">
<path d="M885 2888 c-4 -14 -2 -34 3 -45 9 -16 7 -931 -2 -940 -2 -2 -22 9
-46 24 l-43 28 7 185 c6 194 24 387 51 554 9 54 14 100 12 102 -6 7 -35 -146
-52 -272 -8 -61 -17 -189 -20 -285 -3 -96 -8 -204 -10 -241 l-5 -66 59 -40
c59 -39 60 -39 77 -20 10 10 33 26 51 35 l33 15 0 107 c0 130 -17 408 -31 516
-12 92 -56 316 -69 348 -8 21 -8 21 -15 -5z"/>
<path d="M1578 2404 c2 -318 -1 -504 -7 -504 -5 0 -28 12 -51 28 l-43 27 7
180 c8 216 21 358 47 524 11 68 18 126 15 128 -5 5 -11 -21 -31 -142 -25 -148
-35 -268 -42 -502 l-6 -222 28 -11 c16 -6 39 -22 52 -36 l24 -26 34 30 c18 17
43 33 54 37 20 6 21 14 21 128 0 155 -16 379 -36 527 -16 117 -48 282 -61 319
-5 11 -7 -207 -5 -485z"/>
<path d="M1551 2824 c0 -11 3 -14 6 -6 3 7 2 16 -1 19 -3 4 -6 -2 -5 -13z"/>
<path d="M1251 2695 c-1 -76 -6 -122 -10 -110 -7 16 -11 9 -24 -35 -46 -164
-65 -334 -68 -608 -1 -85 -14 -117 -23 -60 -3 18 -12 72 -20 121 -24 142 -38
139 -57 -13 l-12 -93 36 -30 c34 -27 37 -33 37 -83 0 -60 -16 -77 -52 -55 -23
14 -37 7 -33 -17 2 -9 4 -20 4 -24 2 -13 32 -38 47 -38 8 0 24 11 36 25 28 32
42 32 34 -1 -9 -36 1 -61 28 -68 16 -4 29 -19 40 -46 9 -22 18 -40 21 -40 3 0
13 18 21 41 10 24 26 44 40 50 20 7 24 16 24 49 0 46 11 51 34 15 28 -43 80
-23 88 35 2 20 -1 24 -17 22 -54 -9 -58 -7 -67 23 -14 50 -2 87 37 113 23 15
35 30 34 45 -1 46 -26 178 -36 188 -10 10 -32 -81 -49 -205 -12 -87 -21 -28
-33 209 -7 142 -17 257 -27 300 -10 42 -20 140 -24 245 l-6 175 -3 -130z m-18
-360 c-3 -88 -8 -227 -12 -310 -8 -148 -7 -170 7 -148 4 6 7 -8 7 -32 0 -47
-21 -53 -28 -7 -2 15 -2 -28 1 -95 5 -126 2 -135 -33 -109 -17 12 -18 26 -7
322 8 237 16 341 33 448 29 169 37 151 32 -69z m7 -582 c0 -5 -5 -15 -10 -23
-8 -12 -10 -11 -10 8 0 12 5 22 10 22 6 0 10 -3 10 -7z m0 -115 c0 -13 -5 -30
-10 -38 -7 -11 -10 -5 -10 23 0 20 5 37 10 37 6 0 10 -10 10 -22z"/>
<path d="M1213 2775 c0 -22 2 -30 4 -17 2 12 2 30 0 40 -3 9 -5 -1 -4 -23z"/>
<path d="M755 1863 c-34 -8 -55 -34 -55 -69 0 -32 0 -32 40 -27 47 7 82 -12
105 -57 14 -27 14 -30 -6 -49 -19 -17 -21 -27 -15 -67 6 -47 44 -121 92 -180
l25 -32 -41 -47 c-46 -53 -50 -82 -17 -113 52 -49 119 -34 97 22 -13 35 -13
69 1 83 8 8 29 5 75 -10 49 -16 69 -19 82 -11 29 19 19 34 -39 58 -31 12 -70
32 -87 44 -59 42 -122 139 -122 187 0 38 13 30 34 -21 27 -67 138 -169 204
-189 18 -5 22 -2 22 14 0 12 -21 36 -57 63 -67 50 -123 128 -123 169 0 18 -7
32 -20 39 -28 15 -25 37 10 72 28 27 36 30 75 25 44 -4 45 -4 45 23 0 44 -30
72 -77 74 -49 1 -77 -20 -94 -72 l-12 -36 -19 37 c-26 52 -77 81 -123 70z"/>
<path d="M1428 1855 c-26 -14 -51 -69 -41 -88 2 -4 21 -4 42 -1 46 7 76 -7 96
-45 13 -26 13 -30 -5 -46 -11 -10 -20 -30 -20 -45 0 -40 -58 -118 -123 -168
-36 -27 -57 -51 -57 -63 0 -16 4 -19 23 -14 65 20 184 133 208 198 17 48 33
48 24 0 -19 -101 -113 -191 -247 -236 -22 -8 -23 -21 -3 -37 13 -11 28 -9 85
7 94 28 101 19 75 -88 -6 -23 -3 -27 19 -33 31 -8 81 15 97 45 13 25 -2 67
-33 96 -40 36 -40 47 3 104 22 30 47 70 55 89 21 49 21 118 0 133 -14 10 -15
18 -7 38 16 43 59 71 106 67 36 -2 40 0 43 23 8 71 -89 101 -147 45 -16 -15
-32 -39 -35 -53 -8 -30 -22 -23 -29 16 -11 52 -81 82 -129 56z"/>
<path d="M1110 1581 c-14 -3 -34 -12 -45 -18 -17 -11 -18 -14 -5 -23 8 -5 25
-10 37 -10 50 0 77 -60 78 -174 0 -56 -2 -60 -25 -66 -17 -4 -26 -14 -28 -32
-3 -21 3 -28 27 -36 47 -17 39 -64 -13 -73 -25 -5 -44 -35 -30 -49 5 -5 22
-11 37 -12 33 -3 57 -48 57 -109 0 -40 -1 -42 -14 -23 -8 11 -17 41 -21 67 -7
44 -9 47 -36 47 -23 0 -32 6 -40 27 -5 15 -8 38 -4 50 5 21 2 23 -39 23 -24 0
-58 -8 -74 -17 -39 -22 -70 -9 -112 48 -22 32 -30 52 -29 83 1 55 -11 138 -24
154 -16 20 -64 14 -87 -10 -32 -34 -22 -88 30 -173 93 -150 113 -194 106 -235
-3 -23 -43 -101 -94 -187 -49 -81 -113 -190 -142 -240 -30 -51 -57 -93 -61
-93 -4 0 17 73 46 163 97 297 85 270 127 282 53 14 70 36 76 93 6 66 -9 106
-64 172 -86 103 -105 178 -59 240 14 19 25 41 25 50 0 38 -113 55 -143 22 -22
-25 -21 -60 4 -134 24 -71 20 -115 -14 -153 -19 -21 -281 -177 -372 -222 -33
-16 48 66 188 191 77 68 77 68 123 61 l45 -6 -7 98 c-9 133 -26 157 -21 30 l3
-97 -33 6 c-31 6 -41 -2 -209 -152 -97 -88 -183 -165 -192 -171 -37 -30 7 -21
175 32 318 101 303 95 303 122 0 34 22 38 77 13 59 -26 91 -55 110 -98 17 -40
13 -47 -32 -62 -37 -12 -35 -7 -178 -465 -14 -44 -29 -88 -33 -99 -17 -44 18
-9 267 264 156 171 147 154 123 238 -6 22 -5 22 88 22 82 0 100 -3 128 -22 56
-39 59 -52 21 -92 l-34 -35 31 -153 c78 -379 102 -491 107 -496 3 -3 5 -1 5 4
0 5 9 52 20 104 11 52 40 196 65 319 l46 224 -32 33 c-29 30 -31 36 -20 57 21
40 72 57 165 57 88 0 101 -7 85 -45 -18 -46 -8 -63 118 -201 70 -76 132 -144
138 -150 5 -6 39 -43 74 -83 35 -39 66 -70 68 -68 1 2 -21 77 -51 168 -29 90
-70 219 -91 287 l-38 122 -40 11 c-37 10 -39 12 -33 42 9 45 70 104 128 123
54 17 68 13 68 -20 0 -22 13 -28 148 -71 81 -26 187 -60 236 -76 48 -17 93
-28 99 -26 5 1 -68 72 -164 157 -96 85 -183 163 -194 173 -14 13 -29 17 -51
12 l-31 -5 5 96 c6 109 -11 126 -21 22 -3 -35 -11 -85 -18 -111 -16 -56 -35
-39 203 -182 162 -97 225 -141 172 -121 -10 4 -97 35 -191 68 -176 62 -188 70
-163 108 7 11 2 21 -21 41 -42 34 -48 91 -20 183 26 85 26 101 0 127 -18 18
-30 21 -72 16 -73 -7 -84 -26 -46 -85 21 -33 28 -55 24 -74 -3 -16 -8 -42 -11
-59 -3 -16 -28 -57 -56 -90 -58 -70 -87 -130 -95 -197 -6 -55 1 -72 127 -292
112 -196 131 -232 127 -236 -3 -3 -60 59 -246 271 -51 58 -60 74 -55 95 4 14
8 59 9 100 3 99 5 105 86 241 80 133 91 171 59 212 -29 36 -87 39 -94 5 -13
-60 -17 -97 -19 -144 -2 -38 -9 -59 -31 -88 -40 -53 -68 -64 -112 -43 -19 9
-53 17 -74 17 -39 0 -40 0 -40 -37 0 -21 -4 -43 -8 -49 -8 -12 -72 -25 -72
-14 0 3 15 10 33 15 42 13 43 44 2 64 -53 25 -63 68 -17 73 23 2 27 8 27 33 0
23 -5 30 -25 35 -31 7 -35 29 -21 117 12 79 36 115 80 124 41 8 47 15 31 34
-20 24 -83 19 -114 -10 -14 -13 -26 -29 -26 -35 0 -6 -4 -9 -9 -5 -5 3 -11 -5
-13 -17 -3 -26 -21 -27 -26 -2 -5 19 -50 73 -72 83 -8 4 -26 5 -40 2z m185
-601 c-3 -10 -18 -31 -34 -47 l-28 -30 3 -296 c2 -163 -1 -299 -5 -302 -5 -2
-18 44 -30 103 -12 59 -34 165 -50 237 -21 91 -27 134 -20 147 15 28 66 77 73
71 7 -7 9 18 6 55 -1 18 3 23 17 21 28 -5 43 9 43 41 0 15 3 36 7 46 6 15 7
14 15 -6 5 -13 6 -31 3 -40z"/>
<path d="M1191 645 l2 -70 7 60 c4 33 3 64 -2 70 -4 5 -7 -22 -7 -60z"/>
</g>
</svg>
