<?xml version="1.0" standalone="no"?>
<!DOCTYPE svg PUBLIC "-//W3C//DTD SVG 20010904//EN"
 "http://www.w3.org/TR/2001/REC-SVG-20010904/DTD/svg10.dtd">
<svg version="1.0" xmlns="http://www.w3.org/2000/svg"
 width="244.000000pt" height="305.000000pt" viewBox="0 0 244.000000 305.000000"
 preserveAspectRatio="xMidYMid meet">
<metadata>
Created by potrace 1.16, written by Peter Selinger 2001-2019
</metadata>
<g transform="translate(0.000000,305.000000) scale(0.100000,-0.100000)"
fill="#000000" stroke="none">
<path d="M885 2886 c-5 -18 -4 -36 4 -48 8 -13 10 -139 7 -474 -2 -250 -7
-458 -10 -461 -3 -4 -16 3 -29 14 -12 11 -30 23 -40 26 -16 6 -18 19 -16 124
3 172 25 439 49 591 12 74 19 136 17 138 -6 6 -32 -137 -47 -251 -6 -44 -13
-93 -16 -110 -2 -16 -7 -138 -10 -270 l-5 -240 55 -37 c54 -36 55 -36 72 -17
10 11 33 27 53 36 l34 17 -6 210 c-4 116 -12 261 -18 321 -12 122 -51 345 -72
415 l-14 45 -8 -29z"/>
<path d="M1569 2900 c-6 -17 -5 -50 2 -50 5 0 9 -214 9 -475 0 -279 -4 -475
-9 -475 -5 0 -28 12 -51 28 l-42 27 6 180 c9 224 21 365 47 524 11 68 18 125
15 128 -2 2 -7 -8 -10 -24 -41 -205 -66 -462 -66 -686 l0 -157 27 -11 c14 -5
37 -21 50 -35 l24 -26 34 30 c18 17 43 33 54 37 20 6 21 14 21 123 -1 243 -29
540 -70 732 -17 79 -36 141 -41 130z"/>
<path d="M1551 2824 c0 -11 3 -14 6 -6 3 7 2 16 -1 19 -3 4 -6 -2 -5 -13z"/>
<path d="M1217 2550 c-43 -154 -66 -353 -68 -598 -1 -93 -13 -130 -23 -70 -3
18 -12 72 -20 121 -24 142 -36 140 -57 -12 l-12 -94 36 -30 c34 -27 37 -33 37
-83 0 -60 -16 -77 -52 -55 -23 14 -37 7 -33 -17 2 -9 4 -20 4 -24 2 -13 32
-38 47 -38 8 0 24 11 36 25 28 32 42 32 34 -1 -9 -36 1 -61 28 -68 14 -3 30
-20 40 -41 9 -19 19 -35 21 -35 2 0 12 16 21 36 9 20 28 40 41 45 19 7 23 16
23 49 0 46 11 51 34 14 23 -34 55 -28 79 14 24 41 13 59 -27 41 -37 -17 -51 0
-51 62 0 36 5 53 16 59 9 5 26 18 39 28 l23 19 -15 102 c-24 155 -31 152 -61
-23 -12 -74 -24 -121 -29 -114 -4 7 -8 63 -8 123 -1 194 -36 473 -74 582 l-13
38 -16 -55z m22 -498 c0 -254 -4 -444 -9 -452 -6 -10 -10 -11 -10 -3 0 7 -14
20 -31 29 l-31 16 7 251 c7 266 14 351 42 535 13 84 19 107 25 87 3 -15 7
-223 7 -463z"/>
<path d="M1223 1815 c0 -27 2 -38 4 -22 2 15 2 37 0 50 -2 12 -4 0 -4 -28z"/>
<path d="M739 1852 c-28 -14 -35 -23 -37 -54 l-3 -36 40 5 c48 7 83 -12 106
-57 14 -28 14 -31 -6 -51 -39 -39 -11 -137 65 -228 20 -24 36 -44 36 -46 0 -2
-18 -25 -40 -50 -46 -53 -50 -82 -17 -113 52 -49 119 -34 97 22 -13 35 -13 69
1 83 8 8 26 6 65 -8 65 -23 88 -24 104 -4 16 19 7 28 -39 44 -112 37 -221 156
-221 241 0 33 14 23 33 -25 27 -65 140 -170 205 -190 18 -5 22 -2 22 14 0 12
-21 36 -57 63 -67 50 -123 128 -123 169 0 18 -7 32 -20 39 -26 14 -19 45 18
79 21 19 33 22 69 18 41 -4 43 -4 43 23 0 44 -30 72 -77 74 -49 1 -77 -20 -94
-72 l-12 -36 -17 35 c-35 68 -84 89 -141 61z"/>
<path d="M1428 1855 c-26 -14 -51 -69 -41 -88 2 -4 21 -4 42 -1 46 7 76 -7 96
-45 13 -26 13 -30 -5 -46 -11 -10 -20 -30 -20 -44 -1 -46 -59 -123 -132 -177
-30 -21 -48 -42 -48 -54 0 -24 1 -24 46 -5 50 21 152 121 182 180 31 60 44 38
18 -30 -31 -81 -127 -161 -238 -198 -22 -8 -23 -21 -3 -37 13 -11 28 -9 85 7
94 28 101 19 75 -88 -6 -23 -3 -27 19 -33 31 -8 81 15 96 44 15 27 6 51 -36
101 -36 43 -36 44 6 99 47 61 70 116 70 169 0 34 -4 51 -15 55 -24 9 -17 36
20 73 30 30 40 34 77 31 40 -2 43 -1 46 23 4 35 -26 69 -69 75 -30 5 -41 1
-71 -25 -20 -17 -39 -43 -42 -57 -8 -31 -21 -24 -29 15 -11 52 -81 82 -129 56z"/>
<path d="M1110 1581 c-14 -3 -34 -12 -45 -18 -17 -11 -18 -14 -5 -23 8 -5 25
-10 37 -10 35 0 60 -36 72 -104 18 -102 15 -125 -15 -132 -50 -13 -49 -74 2
-74 19 0 24 -5 24 -24 0 -26 -15 -42 -45 -48 -13 -2 -21 -12 -23 -29 -3 -23 1
-27 36 -32 38 -7 39 -8 51 -64 6 -32 14 -71 17 -88 l5 -30 -20 25 c-21 25 -25
36 -36 103 -5 33 -9 37 -35 37 -32 0 -45 23 -42 73 2 26 1 27 -45 27 -27 0
-57 -7 -67 -15 -28 -21 -50 -19 -86 11 -41 35 -60 74 -59 121 1 53 -12 135
-24 151 -10 13 -55 16 -73 4 -23 -15 -36 -54 -29 -89 3 -20 25 -65 47 -102 91
-146 111 -190 104 -231 -3 -22 -43 -102 -94 -187 -48 -81 -112 -190 -142 -240
-30 -51 -57 -93 -61 -93 -6 0 103 342 133 422 4 9 23 20 42 23 47 9 68 36 74
94 6 65 -9 105 -64 171 -85 102 -104 179 -59 240 14 19 25 40 25 48 0 42 -104
58 -140 22 -26 -26 -25 -54 1 -135 19 -57 20 -71 10 -105 -7 -24 -25 -49 -44
-64 -31 -24 -182 -111 -317 -183 l-65 -35 72 70 c40 38 106 100 147 137 76 67
76 67 122 60 l45 -6 -7 98 c-9 129 -28 151 -22 26 l4 -93 -35 5 c-32 5 -41 0
-87 -42 -28 -27 -112 -104 -188 -172 -75 -68 -135 -126 -132 -128 3 -3 20 0
38 5 415 131 448 143 448 168 0 35 21 39 77 14 59 -26 91 -55 110 -98 17 -40
13 -47 -32 -62 -34 -11 -34 -12 -95 -203 -34 -106 -74 -232 -90 -282 -16 -49
-27 -92 -24 -94 4 -4 69 65 283 298 132 144 129 138 105 219 -6 22 -5 22 88
22 82 0 100 -3 128 -22 56 -39 59 -52 21 -92 l-34 -35 33 -158 c18 -87 47
-232 66 -322 18 -90 35 -165 37 -167 5 -5 44 179 118 550 l19 99 -30 30 c-33
32 -36 44 -17 68 26 34 74 49 161 49 94 0 101 -5 81 -57 -12 -28 -11 -34 8
-60 23 -30 64 -77 107 -123 14 -14 61 -66 105 -115 44 -50 104 -115 132 -145
l53 -55 -14 45 c-81 264 -160 509 -171 526 -8 12 -28 24 -46 28 -29 6 -31 8
-25 37 12 62 92 127 163 132 24 2 28 -2 31 -25 3 -26 12 -30 195 -88 106 -34
209 -68 230 -76 63 -24 77 -18 37 18 -19 17 -78 70 -130 117 -52 47 -115 104
-139 126 -25 22 -55 48 -66 58 -14 13 -29 17 -51 12 l-31 -5 5 96 c4 71 2 95
-7 90 -6 -4 -11 -24 -11 -44 -1 -20 -5 -57 -11 -82 -25 -119 -44 -94 157 -215
228 -136 227 -136 221 -141 -2 -2 -53 13 -113 35 -60 22 -144 52 -186 67 -79
27 -88 37 -68 75 9 16 7 21 -14 30 -49 23 -59 96 -26 201 25 80 25 93 -1 119
-18 18 -30 21 -72 16 -73 -7 -84 -26 -46 -85 23 -37 28 -53 23 -82 -9 -59 -26
-93 -71 -146 -53 -63 -83 -129 -90 -197 -4 -49 -1 -59 52 -157 32 -58 77 -137
100 -175 23 -39 57 -99 75 -135 30 -62 31 -64 7 -40 -14 14 -84 93 -156 175
-122 140 -131 152 -124 180 4 17 8 53 9 80 2 116 3 120 75 239 77 127 97 183
78 219 -16 30 -28 37 -66 37 -28 0 -33 -4 -38 -27 -3 -16 -10 -47 -15 -70 -5
-23 -7 -56 -4 -73 8 -39 -33 -104 -80 -126 -30 -15 -36 -15 -64 0 -17 9 -49
16 -72 16 -40 0 -40 0 -40 -39 0 -40 -11 -56 -45 -63 -19 -3 -28 -21 -40 -80
-3 -15 -16 -38 -30 -52 l-25 -25 0 -300 c0 -165 -4 -302 -8 -305 -5 -3 -14 23
-21 57 -19 97 -41 195 -62 284 -29 124 -27 143 24 197 24 25 47 43 50 39 4 -3
7 8 7 25 0 18 4 32 9 32 12 0 41 74 41 105 0 27 10 36 47 40 52 5 48 58 -6 70
-50 11 -49 60 2 67 17 2 22 10 22 33 0 23 -5 30 -25 35 -31 7 -35 30 -20 120
13 76 40 120 73 120 12 0 28 4 36 9 25 16 -6 41 -51 41 -32 0 -46 -6 -69 -31
-16 -17 -32 -42 -35 -55 -8 -31 -30 -31 -38 -1 -7 29 -41 74 -64 85 -9 5 -28
6 -42 3z"/>
<path d="M1222 720 c0 -14 2 -19 5 -12 2 6 2 18 0 25 -3 6 -5 1 -5 -13z"/>
</g>
</svg>
