<?xml version="1.0" standalone="no"?>
<!DOCTYPE svg PUBLIC "-//W3C//DTD SVG 20010904//EN"
 "http://www.w3.org/TR/2001/REC-SVG-20010904/DTD/svg10.dtd">
<svg version="1.0" xmlns="http://www.w3.org/2000/svg"
 width="244.000000pt" height="305.000000pt" viewBox="0 0 244.000000 305.000000"
 preserveAspectRatio="xMidYMid meet">
<metadata>
Created by potrace 1.16, written by Peter Selinger 2001-2019
</metadata>
<g transform="translate(0.000000,305.000000) scale(0.100000,-0.100000)"
fill="#000000" stroke="none">
<path d="M1550 2900 c0 -8 -3 -26 -6 -40 -4 -20 -3 -22 5 -10 8 11 11 -122 11
-467 0 -266 -2 -483 -5 -483 -3 0 -23 12 -45 26 l-40 27 0 131 c0 176 15 382
40 549 21 143 23 163 16 156 -2 -2 -13 -60 -25 -129 -25 -154 -40 -342 -43
-565 -3 -167 -3 -169 20 -181 12 -6 33 -21 46 -33 12 -11 26 -21 30 -21 8 0
88 60 98 75 22 30 -17 585 -57 797 -23 128 -43 201 -45 168z"/>
<path d="M908 2877 c-3 -15 -1 -30 4 -33 11 -7 6 -944 -5 -944 -4 0 -24 12
-43 28 l-34 27 0 105 c0 216 39 639 66 727 4 15 4 15 -4 3 -29 -46 -68 -401
-75 -683 l-5 -188 32 -13 c17 -7 39 -23 50 -34 l19 -22 32 28 c17 15 40 32 50
37 16 10 18 27 16 175 -1 91 -6 226 -11 300 -11 145 -52 415 -74 477 -13 37
-13 37 -18 10z"/>
<path d="M1131 2884 c0 -11 3 -14 6 -6 3 7 2 16 -1 19 -3 4 -6 -2 -5 -13z"/>
<path d="M1142 2371 c-1 -261 -5 -472 -8 -468 -3 3 -12 47 -20 98 -7 50 -16
94 -19 97 -13 14 -24 -20 -35 -107 -10 -91 -10 -95 11 -117 22 -24 19 -48 -3
-26 -7 7 -31 12 -53 12 -47 0 -68 -17 -86 -70 l-12 -33 -19 39 c-24 50 -43 64
-89 64 -29 0 -42 -6 -59 -27 -11 -15 -20 -36 -18 -47 3 -18 9 -20 41 -18 32 3
43 -2 72 -31 38 -38 43 -58 20 -77 -36 -30 -3 -151 63 -234 26 -31 30 -42 21
-58 -6 -10 -16 -21 -24 -24 -7 -3 -21 -24 -30 -46 -14 -36 -14 -43 -1 -63 8
-12 28 -28 45 -35 32 -13 39 -28 20 -47 -16 -16 -52 9 -80 53 -15 25 -21 55
-24 112 -2 42 -8 89 -14 103 -13 35 -44 42 -76 17 -39 -31 -35 -97 11 -174 77
-127 104 -186 104 -228 0 -39 -27 -96 -150 -311 -12 -22 -41 -74 -63 -115 -38
-72 -77 -125 -65 -90 3 8 18 56 32 105 99 326 92 311 135 323 56 17 66 35 66
113 0 72 7 58 -96 203 -46 64 -51 130 -14 191 26 44 26 47 9 66 -25 28 -97 26
-124 -3 -23 -25 -23 -35 5 -138 21 -76 16 -107 -23 -150 -24 -26 -351 -230
-369 -230 -4 0 4 10 18 22 13 12 79 75 145 140 115 112 123 118 149 108 42
-16 45 -13 45 49 0 79 -11 151 -22 151 -6 0 -7 -33 -3 -89 l7 -88 -34 1 c-31
1 -50 -14 -211 -168 -97 -93 -175 -171 -173 -173 2 -2 70 19 152 47 82 28 183
62 225 76 70 22 77 27 83 55 5 28 9 31 33 24 56 -13 109 -53 133 -99 20 -37
22 -47 11 -60 -8 -9 -21 -16 -31 -16 -10 0 -22 -6 -28 -12 -9 -12 -68 -194
-97 -303 -7 -27 -20 -70 -28 -95 -27 -80 -48 -162 -44 -166 2 -2 21 17 43 43
21 26 55 66 75 88 20 22 87 99 148 170 120 139 116 131 98 217 -3 16 55 26
108 20 44 -4 45 -6 47 -41 l1 -36 4 33 c3 19 10 32 19 32 19 0 19 1 -13 -200
-23 -141 -29 -168 -35 -140 -5 24 -6 15 -3 -28 2 -35 -1 -60 -6 -56 -5 3 -9
-18 -8 -48 l1 -53 24 90 c57 218 57 220 65 199 4 -10 32 -140 61 -287 l52
-268 22 103 c34 165 87 442 87 456 1 30 16 8 27 -39 19 -80 24 -48 5 38 -22
100 -44 174 -44 148 -1 -18 -2 -18 -17 -3 -13 13 -14 19 -3 39 12 23 12 23 20
4 7 -19 8 -19 8 2 3 89 44 -90 66 -287 4 -36 3 -40 -5 -20 l-10 25 4 -25 c5
-35 38 -161 41 -158 2 2 -1 46 -6 98 -18 187 -29 326 -29 373 l0 47 74 0 c41
0 77 -3 80 -8 2 -4 -1 -26 -7 -49 -12 -47 -21 -34 166 -253 55 -63 123 -143
153 -178 30 -35 54 -58 54 -51 0 7 -27 103 -59 213 -111 372 -100 344 -140
363 -31 15 -36 22 -33 48 4 39 76 110 127 124 45 12 55 8 55 -25 0 -13 1 -24
3 -24 2 0 108 -36 235 -80 128 -44 232 -77 232 -75 0 4 -114 115 -297 289 -65
62 -74 67 -102 61 l-31 -6 7 97 c5 73 3 95 -5 90 -7 -4 -12 -26 -12 -49 0 -23
-5 -60 -11 -82 -6 -22 -13 -53 -15 -70 -5 -32 -8 -30 299 -227 43 -27 76 -52
74 -55 -3 -2 -40 9 -83 26 -44 16 -123 46 -176 66 -54 21 -98 41 -98 45 0 5 4
20 9 33 8 21 5 28 -19 46 -42 30 -48 90 -21 180 25 83 26 100 5 129 -19 27
-87 31 -122 6 l-23 -16 26 -43 c30 -51 33 -120 9 -168 -17 -32 -72 -107 -86
-118 -16 -11 -49 -123 -50 -168 0 -45 20 -91 118 -269 70 -126 135 -252 130
-252 -6 0 -161 185 -245 293 -51 65 -53 69 -44 106 6 21 8 51 6 67 -9 57 15
141 60 216 71 117 90 160 91 205 1 50 -23 74 -68 70 -28 -2 -30 -6 -43 -67 -7
-36 -11 -79 -8 -95 4 -23 -2 -43 -24 -77 -38 -59 -69 -78 -88 -52 -18 25 -16
34 6 34 23 0 69 39 72 60 4 34 -3 50 -36 90 -19 23 -32 47 -28 53 4 7 22 33
40 58 59 82 79 174 47 210 -19 22 -12 48 23 83 20 20 36 26 69 26 39 0 44 3
44 23 0 32 -25 64 -56 71 -41 11 -82 -12 -105 -56 -22 -44 -24 -44 -47 4 -10
18 -30 39 -45 46 -25 12 -33 11 -68 -6 -32 -16 -39 -17 -39 -5 0 8 10 23 21
32 21 17 21 20 10 102 -14 99 -19 119 -31 119 -5 0 -10 -8 -12 -17 -2 -10 -8
108 -12 262 -15 520 -23 528 -26 25 -1 -275 -6 -454 -10 -425 -5 28 -9 129
-10 225 -1 108 -5 167 -10 155 -7 -16 -9 -14 -9 15 -1 33 -46 249 -54 257 -6
5 -46 -156 -53 -215 -13 -102 -24 -62 -25 90 -1 84 -5 203 -9 263 -4 69 -7
-67 -8 -364z m87 -325 l2 -423 -23 2 c-13 1 -26 3 -30 4 -5 0 -7 22 -6 49 1
36 2 39 5 15 6 -43 19 -42 27 3 10 49 -5 374 -16 374 -9 0 -6 -96 8 -272 5
-68 4 -77 -10 -72 -18 7 -22 44 -5 44 7 0 9 14 4 43 -14 89 -16 214 -6 342 13
167 33 315 41 315 4 0 8 -191 9 -424z m-119 -303 c0 -16 -6 -23 -19 -23 -11 0
-23 5 -26 10 -11 18 -25 11 -25 -13 0 -38 27 -68 56 -61 23 6 24 4 24 -35 0
-29 -4 -41 -14 -41 -8 0 -27 -12 -43 -26 l-28 -26 -17 22 c-10 12 -23 41 -30
63 -6 23 -18 50 -26 59 -18 21 -8 52 25 78 19 15 38 19 74 18 44 -2 49 -5 49
-25z m381 -2 c32 -32 37 -58 14 -67 -8 -4 -15 -15 -15 -25 0 -26 -27 -89 -47
-111 -15 -17 -17 -17 -34 12 -11 17 -27 30 -38 30 -15 0 -20 9 -22 44 -4 42
-3 43 20 33 20 -10 26 -8 42 12 11 13 19 34 19 47 0 24 -14 32 -25 14 -11 -18
-45 -11 -45 9 0 14 8 21 28 24 61 9 74 6 103 -22z m-543 -174 c12 -28 38 -69
57 -89 33 -35 46 -68 26 -68 -14 0 -79 76 -101 119 -20 40 -27 91 -12 91 4 0
17 -24 30 -53z m612 30 c0 -35 -45 -118 -85 -157 -33 -32 -35 -33 -35 -11 0
13 16 41 35 63 19 22 42 60 52 84 20 48 33 57 33 21z m-365 -7 c0 -22 -29 -18
-33 3 -3 14 1 18 15 15 10 -2 18 -10 18 -18z m115 8 c0 -7 -4 -19 -9 -26 -6
-10 -10 -10 -20 2 -7 8 -10 20 -6 26 9 14 35 13 35 -2z m-184 -97 c3 -14 7
-32 10 -38 5 -17 -21 -16 -35 1 -14 16 -23 55 -15 67 9 15 34 -3 40 -30z m254
-1 c0 -29 -4 -40 -15 -40 -8 0 -15 -5 -15 -11 0 -5 -4 -8 -8 -5 -14 8 -2 70
16 84 22 17 22 17 22 -28z m-143 -17 c-3 -10 -5 -2 -5 17 0 19 2 27 5 18 2
-10 2 -26 0 -35z m-68 -43 c0 -9 -4 -8 -9 5 -5 11 -9 27 -9 35 0 9 4 8 9 -5 5
-11 9 -27 9 -35z m138 -2 c-3 -8 -6 -5 -6 6 -1 11 2 17 5 13 3 -3 4 -12 1 -19z
m120 -30 c-3 -7 -5 -2 -5 12 0 14 2 19 5 13 2 -7 2 -19 0 -25z m-350 -20 c-3
-7 -5 -2 -5 12 0 14 2 19 5 13 2 -7 2 -19 0 -25z m310 0 c-3 -8 -6 -5 -6 6 -1
11 2 17 5 13 3 -3 4 -12 1 -19z m-242 -16 c0 -18 -20 -15 -23 4 -3 10 1 15 10
12 7 -3 13 -10 13 -16z m205 4 c0 -8 -4 -17 -9 -21 -12 -7 -24 12 -16 25 9 15
25 12 25 -4z m-322 -65 c2 -14 0 -21 -6 -17 -6 3 -14 -4 -17 -15 -6 -19 -9
-20 -16 -6 -12 20 7 70 24 65 6 -3 14 -15 15 -27z m450 -14 c2 -21 -1 -37 -7
-37 -6 0 -11 9 -11 20 0 26 -39 28 -41 3 -1 -16 -2 -16 -6 0 -6 23 25 59 46
55 11 -2 17 -16 19 -41z m-438 -63 c-7 -23 -22 -53 -34 -65 -19 -21 -21 -22
-24 -5 -2 9 3 25 12 35 9 10 16 29 16 44 0 19 4 25 15 21 12 -5 15 3 16 32 2
33 3 35 6 10 3 -16 -1 -49 -7 -72z m140 76 c0 -5 -4 -10 -10 -10 -5 0 -10 5
-10 10 0 6 5 10 10 10 6 0 10 -4 10 -10z m130 -6 c0 -8 -4 -12 -10 -9 -5 3
-10 10 -10 16 0 5 5 9 10 9 6 0 10 -7 10 -16z m65 -74 l-14 -55 5 50 c6 60 16
97 21 75 1 -8 -4 -40 -12 -70z m-267 -45 c1 -37 -16 17 -22 71 l-5 49 13 -50
c8 -27 14 -59 14 -70z m36 17 c6 -10 11 -9 21 5 13 17 14 17 21 0 7 -19 -29
-67 -42 -55 -10 11 -24 81 -22 118 1 32 1 31 7 -10 4 -25 10 -51 15 -58z m203
66 c-3 -8 -6 -5 -6 6 -1 11 2 17 5 13 3 -3 4 -12 1 -19z m103 -91 c0 -23 -18
9 -24 43 l-7 35 16 -34 c8 -18 15 -38 15 -44z m-110 23 c-14 -47 -19 -51 -42
-30 -18 16 -19 22 -8 35 11 13 15 13 22 3 7 -10 11 -9 19 5 15 26 19 21 9 -13z
m-100 -278 c0 -15 -2 -15 -10 -2 -13 20 -13 33 0 25 6 -3 10 -14 10 -23z m-73
-66 c-9 -26 -27 -15 -27 16 1 31 1 32 15 13 9 -10 14 -24 12 -29z m54 -6 c9
33 9 -401 -1 -465 -4 -27 -8 -39 -9 -25 -1 14 -17 102 -36 195 -52 253 -52
227 -8 276 37 41 38 41 42 18 l4 -24 8 25z"/>
<path d="M1214 2100 c0 -91 2 -128 3 -82 2 45 2 119 0 165 -1 45 -3 8 -3 -83z"/>
<path d="M1203 680 c0 -36 2 -50 4 -32 2 17 2 47 0 65 -2 17 -4 3 -4 -33z"/>
<path d="M1213 515 c0 -33 2 -45 4 -27 2 18 2 45 0 60 -2 15 -4 0 -4 -33z"/>
<path d="M1531 2814 c0 -11 3 -14 6 -6 3 7 2 16 -1 19 -3 4 -6 -2 -5 -13z"/>
<path d="M1123 2700 c0 -25 2 -35 4 -22 2 12 2 32 0 45 -2 12 -4 2 -4 -23z"/>
<path d="M1313 2625 c0 -27 2 -38 4 -22 2 15 2 37 0 50 -2 12 -4 0 -4 -28z"/>
<path d="M1114 2435 c0 -60 1 -84 3 -52 2 32 2 81 0 110 -2 29 -3 3 -3 -58z"/>
<path d="M1063 795 c0 -22 2 -30 4 -17 2 12 2 30 0 40 -3 9 -5 -1 -4 -23z"/>
<path d="M1053 690 c0 -25 2 -35 4 -22 2 12 2 32 0 45 -2 12 -4 2 -4 -23z"/>
</g>
</svg>
