<?xml version="1.0" standalone="no"?>
<!DOCTYPE svg PUBLIC "-//W3C//DTD SVG 20010904//EN"
 "http://www.w3.org/TR/2001/REC-SVG-20010904/DTD/svg10.dtd">
<svg version="1.0" xmlns="http://www.w3.org/2000/svg"
 width="244.000000pt" height="305.000000pt" viewBox="0 0 244.000000 305.000000"
 preserveAspectRatio="xMidYMid meet">
<metadata>
Created by potrace 1.16, written by Peter Selinger 2001-2019
</metadata>
<g transform="translate(0.000000,305.000000) scale(0.100000,-0.100000)"
fill="#000000" stroke="none">
<path d="M1007 2873 l-3 -38 -9 35 -9 35 -8 -30 c-32 -119 -68 -535 -68 -797
0 -157 0 -158 25 -174 34 -22 32 -34 -6 -34 -17 0 -38 -4 -48 -10 -37 -19 -54
-108 -18 -94 24 9 66 -14 82 -46 15 -29 15 -35 1 -65 -21 -44 -8 -116 38 -202
29 -55 33 -69 24 -89 -6 -13 -15 -24 -19 -24 -10 0 -19 27 -19 55 0 40 -11 55
-39 55 -35 0 -43 8 -30 32 19 35 -14 58 -81 58 -51 0 -60 -3 -75 -26 -15 -23
-15 -31 -1 -94 20 -85 20 -120 2 -120 -15 0 -26 50 -26 123 0 27 -5 47 -11 47
-8 0 -9 -26 -4 -89 l7 -89 -25 5 c-21 4 -37 -11 -123 -118 -55 -68 -117 -142
-138 -166 -21 -24 -36 -46 -33 -49 6 -7 94 23 115 39 18 14 15 -8 -4 -38 -14
-22 -15 -25 -1 -25 8 0 17 4 19 8 2 4 66 39 142 78 82 40 141 76 144 86 4 16
6 16 27 2 32 -21 59 -89 45 -114 -6 -11 -17 -20 -26 -20 -20 0 -28 -23 -64
-180 -18 -74 -45 -190 -61 -258 -16 -68 -29 -128 -29 -134 0 -6 16 14 36 43
60 89 64 90 48 14 -8 -38 -13 -70 -11 -72 4 -3 67 94 67 102 0 3 22 42 49 87
133 227 151 265 140 298 -6 16 -8 37 -5 45 8 22 74 19 113 -4 43 -27 50 -56
24 -92 -25 -34 -26 -48 -6 -176 8 -54 28 -190 45 -303 17 -112 33 -206 34
-208 4 -4 9 26 55 328 47 305 48 322 21 360 -19 27 -21 35 -10 54 16 32 62 56
103 56 44 0 51 -10 39 -54 -9 -30 -5 -43 48 -137 117 -212 185 -329 194 -329
4 0 5 7 2 16 -3 9 -9 34 -12 57 l-5 42 20 -25 c12 -14 25 -30 31 -37 5 -7 10
-16 10 -20 0 -4 12 -21 26 -38 19 -23 24 -25 20 -10 -2 11 -10 47 -17 80 -16
77 -13 64 -96 409 -14 60 -20 70 -45 80 -16 6 -28 18 -28 28 0 29 30 96 46
102 9 3 80 -28 160 -70 130 -68 180 -86 146 -52 -27 27 -12 36 26 18 53 -26
142 -59 142 -53 0 2 -65 83 -145 179 -133 158 -148 174 -171 168 l-25 -6 7 84
c4 59 3 87 -5 92 -7 5 -11 -8 -11 -41 0 -26 -3 -72 -6 -101 -6 -42 -9 -50 -20
-41 -18 15 -18 66 2 144 15 60 15 67 0 90 -17 26 -24 28 -96 25 -66 -3 -81
-14 -78 -58 3 -35 1 -37 -24 -34 -32 4 -48 -20 -48 -75 l-1 -38 -19 23 c-18
22 -18 23 21 100 46 91 60 168 36 202 -30 43 15 110 75 110 25 0 28 3 28 35 0
47 -32 68 -90 59 l-42 -7 17 26 c9 14 25 29 36 32 17 6 19 15 17 78 -1 60 -2
64 -5 22 -3 -27 -11 -58 -20 -67 -17 -19 -38 -25 -28 -8 3 5 0 7 -9 4 -13 -5
-15 49 -15 458 1 532 1 527 -12 478 -6 -19 -14 -60 -18 -90 l-9 -55 1 73 c0
40 -3 75 -6 79 -4 3 -7 2 -7 -3 0 -5 -7 -63 -15 -129 -17 -138 -32 -351 -42
-610 -4 -99 -8 -169 -10 -155 -2 14 -6 44 -9 68 -3 27 -10 42 -20 42 -17 0
-14 12 -29 -100 -10 -78 -13 -86 -14 -45 -8 270 -39 595 -61 634 -19 34 -55
-245 -66 -514 -6 -136 -10 -168 -15 -130 -4 28 -8 72 -8 98 -1 33 -6 49 -16
54 -23 8 -27 1 -34 -74 l-6 -68 -6 90 -5 90 -2 -92 c-1 -51 -6 -93 -10 -93 -5
0 -12 116 -16 258 -3 141 -13 307 -20 367 -8 61 -13 161 -12 223 1 108 -9 152
-17 75z m-7 -83 c0 -14 -5 -32 -10 -40 -7 -11 -10 1 -10 40 0 39 3 51 10 40 5
-8 10 -26 10 -40z m46 -586 c6 -238 6 -261 -9 -267 -16 -6 -17 20 -16 316 2
370 13 348 25 -49z m230 -237 c7 -317 7 -318 -14 -338 l-22 -20 1 443 c2 414
3 436 15 338 7 -58 16 -248 20 -423z m-186 -60 c0 -7 14 -26 30 -42 28 -26 31
-35 28 -80 -3 -50 -3 -50 -35 -47 -26 3 -33 0 -33 -15 0 -34 11 -59 31 -71 16
-10 22 -9 39 8 l20 20 0 -33 c0 -21 7 -36 19 -44 11 -7 25 -29 32 -50 l12 -38
18 43 c10 23 25 45 34 48 9 4 15 19 15 43 1 32 2 34 14 19 27 -36 61 -16 72
42 7 32 6 32 -23 26 -27 -6 -31 -4 -37 20 -4 14 -5 29 -1 32 3 3 5 -2 5 -11 0
-13 9 -17 33 -17 28 0 37 -6 52 -34 18 -33 18 -36 2 -54 -9 -10 -17 -30 -17
-45 0 -14 -4 -37 -10 -52 l-10 -26 -30 22 c-43 32 -72 16 -98 -52 l-19 -53
-18 53 c-21 64 -50 83 -90 57 -30 -20 -28 -40 3 -44 24 -4 52 -48 52 -83 l0
-22 -26 24 c-37 34 -84 132 -84 173 0 19 -4 38 -10 41 -13 8 -13 51 0 76 8 13
21 19 45 19 32 0 35 3 35 29 0 38 -35 81 -66 81 -13 0 -33 -9 -44 -20 -24 -24
-40 -26 -40 -5 0 8 7 15 16 15 8 0 27 14 41 30 26 32 43 38 43 17z m330 -17
c10 -18 8 -20 -19 -20 -30 0 -38 -5 -66 -45 -8 -11 -15 -15 -15 -9 0 17 63 93
77 93 7 1 17 -8 23 -19z m60 -40 c0 -11 -4 -20 -10 -20 -5 0 -10 9 -10 20 0
11 5 20 10 20 6 0 10 -9 10 -20z m-120 -342 c-7 -12 -25 -35 -41 -50 -31 -29
-40 -78 -15 -78 8 0 31 16 52 35 20 19 39 33 42 30 8 -8 -47 -63 -85 -85 l-33
-19 0 40 c0 22 5 61 11 86 10 36 18 48 43 58 38 16 41 14 26 -17z m-188 -125
c13 4 18 0 18 -14 0 -10 -3 -19 -7 -19 -18 0 -73 41 -97 73 -40 52 -31 54 21
2 31 -31 52 -45 65 -42z m483 -50 c-3 -18 -10 -33 -14 -33 -8 0 -7 15 6 85 6
37 7 38 11 11 2 -16 1 -44 -3 -63z m-368 -25 c-3 -8 -6 -5 -6 6 -1 11 2 17 5
13 3 -3 4 -12 1 -19z m-150 -5 c19 -4 21 -10 16 -35 -5 -24 -1 -34 21 -52 31
-24 28 -47 -10 -65 -14 -6 -23 -7 -20 -2 3 5 -1 14 -9 21 -12 10 -24 10 -55 1
-52 -15 -53 -15 -68 7 -12 18 -10 19 25 18 l38 -1 -4 64 c-3 63 -3 64 20 57
13 -4 34 -10 46 -13z m259 -42 c-7 -62 -2 -71 45 -71 21 0 24 -11 8 -27 -8 -8
-20 -7 -45 3 -44 18 -74 18 -74 -1 0 -18 -14 -19 -41 -5 -28 15 -24 49 7 60
23 9 26 15 21 44 -5 31 -3 34 26 44 59 19 60 18 53 -47z m466 -43 c38 -45 92
-109 177 -212 19 -24 -84 47 -164 112 -32 26 -72 66 -89 90 -25 36 -28 45 -16
52 29 18 48 9 92 -42z m-1081 -69 c16 -8 18 -13 9 -24 -16 -19 -230 -138 -237
-132 -8 9 75 64 133 88 45 19 56 29 61 51 6 32 7 32 34 17z m-57 -8 c6 -10
-10 -25 -37 -34 -13 -5 -16 -3 -10 6 21 35 37 44 47 28z m-114 -16 c0 -24 -56
-80 -104 -105 -26 -13 -48 -21 -50 -19 -3 3 20 25 51 49 30 25 65 55 77 67 26
27 26 27 26 8z m594 -99 c4 -30 13 -62 21 -72 13 -18 14 -17 25 10 6 16 14 49
17 73 3 24 10 43 15 43 9 0 7 -15 -19 -122 -18 -71 -16 -78 25 -143 19 -29 19
-33 1 -165 -10 -74 -24 -175 -32 -225 l-15 -90 -1 282 c-1 281 -1 282 -26 329
-14 26 -25 64 -25 85 0 20 -6 40 -12 42 -8 4 -7 6 3 6 13 1 18 -12 23 -53z
m348 -35 c-9 -24 -24 17 -16 42 8 22 8 22 14 -3 4 -14 4 -31 2 -39z m338 34
c11 -13 10 -14 -4 -9 -9 3 -16 10 -16 15 0 13 6 11 20 -6z m-321 -92 c5 -10
12 -36 15 -58 l5 -40 -24 45 c-13 25 -24 51 -25 58 0 18 18 15 29 -5z m63 -2
c5 -5 58 -212 104 -411 11 -49 -15 -6 -57 95 -50 120 -55 135 -78 248 l-19 88
22 -7 c11 -3 24 -9 28 -13z m-635 -38 c-3 -10 -5 -2 -5 17 0 19 2 27 5 18 2
-10 2 -26 0 -35z m-27 -24 c0 -24 -23 -71 -44 -88 -16 -14 -16 -14 15 81 12
38 29 42 29 7z m30 -36 c-11 -17 -11 -17 -6 0 3 10 6 24 7 30 0 9 2 9 5 0 3
-7 0 -20 -6 -30z m-64 -125 c-98 -183 -118 -216 -111 -183 12 61 139 285 162
285 2 0 -20 -46 -51 -102z m-115 -63 c-17 -61 -63 -144 -69 -126 -2 5 8 33 22
62 14 30 32 71 40 92 23 58 27 44 7 -28z m832 -115 c6 -34 6 -34 -7 -10 -8 14
-17 43 -20 65 l-6 40 14 -30 c7 -16 16 -46 19 -65z"/>
<path d="M1032 2810 c0 -19 2 -27 5 -17 2 9 2 25 0 35 -3 9 -5 1 -5 -18z"/>
<path d="M1043 2730 c0 -25 2 -35 4 -22 2 12 2 32 0 45 -2 12 -4 2 -4 -23z"/>
<path d="M1512 2745 c0 -16 2 -22 5 -12 2 9 2 23 0 30 -3 6 -5 -1 -5 -18z"/>
<path d="M1527 2630 c3 -47 9 -114 14 -150 6 -50 7 -41 2 40 -3 58 -9 125 -13
150 -6 32 -7 20 -3 -40z"/>
<path d="M1047 2659 c4 -13 8 -18 11 -10 2 7 -1 18 -6 23 -8 8 -9 4 -5 -13z"/>
<path d="M1057 2560 c3 -41 7 -77 9 -79 7 -8 2 94 -6 124 -5 18 -6 -1 -3 -45z"/>
<path d="M1074 2345 c0 -66 1 -92 3 -57 2 34 2 88 0 120 -2 31 -3 3 -3 -63z"/>
<path d="M1554 2285 c0 -55 1 -76 3 -47 2 29 2 74 0 100 -2 26 -3 2 -3 -53z"/>
<path d="M1504 2150 c0 -96 2 -136 3 -87 2 48 2 126 0 175 -1 48 -3 8 -3 -88z"/>
</g>
</svg>
