<?xml version="1.0" standalone="no"?>
<!DOCTYPE svg PUBLIC "-//W3C//DTD SVG 20010904//EN"
 "http://www.w3.org/TR/2001/REC-SVG-20010904/DTD/svg10.dtd">
<svg version="1.0" xmlns="http://www.w3.org/2000/svg"
 width="244.000000pt" height="305.000000pt" viewBox="0 0 244.000000 305.000000"
 preserveAspectRatio="xMidYMid meet">
<metadata>
Created by potrace 1.16, written by Peter Selinger 2001-2019
</metadata>
<g transform="translate(0.000000,305.000000) scale(0.100000,-0.100000)"
fill="#000000" stroke="none">
<path d="M971 2910 c-1 -3 -4 -75 -6 -160 -2 -85 -8 -186 -14 -225 -5 -38 -13
-186 -17 -327 -6 -212 -9 -256 -20 -247 -9 8 -14 46 -17 122 l-3 112 -2 -132
c-1 -76 2 -133 7 -133 5 0 22 -13 38 -30 15 -17 36 -30 45 -30 10 0 18 -6 18
-14 0 -24 -18 -28 -32 -7 -8 12 -31 22 -60 26 -39 6 -48 4 -67 -16 -11 -12
-21 -35 -21 -50 0 -23 5 -27 39 -33 26 -4 47 -15 60 -32 22 -28 29 -74 11 -74
-13 0 -13 -75 1 -123 6 -21 24 -61 40 -88 34 -58 36 -80 10 -103 -17 -15 -19
-15 -25 -1 -3 9 -6 29 -6 45 0 48 -9 60 -47 60 -35 0 -35 1 -29 34 8 44 -11
56 -88 56 -49 0 -58 -3 -73 -26 -16 -25 -16 -30 0 -93 23 -88 23 -124 0 -119
-15 3 -19 16 -21 78 -2 41 -8 79 -14 85 -7 7 -9 -17 -4 -83 l6 -94 -29 7 c-20
4 -32 2 -38 -8 -4 -8 -33 -43 -65 -78 -112 -127 -227 -264 -223 -267 1 -2 20
4 41 13 86 37 86 37 79 15 -6 -18 -5 -19 27 -5 125 52 291 136 303 151 13 18
14 18 34 0 28 -25 63 -100 55 -119 -3 -8 -16 -18 -29 -21 -15 -4 -27 -17 -34
-38 -13 -42 -118 -472 -126 -518 l-5 -35 17 25 c10 13 28 36 40 50 l23 25 -7
-35 c-6 -31 -5 -33 8 -20 16 17 203 311 241 380 19 33 23 52 18 70 -17 53 -13
60 33 60 54 0 109 -28 121 -61 7 -21 4 -32 -14 -57 l-23 -31 23 -143 c35 -231
81 -502 84 -506 4 -4 11 34 30 158 8 52 28 184 45 294 17 109 28 203 24 210
-3 6 -15 21 -26 33 -19 21 -19 24 -3 47 27 42 59 57 113 54 l48 -3 -3 -51 c-3
-48 1 -56 91 -200 141 -224 188 -296 193 -291 3 2 -1 16 -7 31 -17 35 -2 47
21 16 10 -14 21 -22 24 -20 2 3 -10 64 -28 135 -18 72 -47 192 -65 268 -29
122 -36 139 -62 158 -16 11 -29 29 -29 40 0 29 26 74 56 98 34 27 54 27 54 0
0 -16 23 -31 118 -75 64 -30 124 -59 133 -64 9 -5 33 -16 54 -24 35 -15 36
-15 29 6 -7 22 2 22 50 3 16 -7 17 -5 8 11 -6 11 -34 47 -64 81 -29 33 -88
102 -131 152 -61 71 -84 91 -104 91 l-26 0 6 85 c3 47 2 83 -2 81 -5 -3 -11
-41 -15 -85 -5 -49 -12 -81 -20 -84 -13 -5 -13 2 4 122 9 64 2 96 -24 113 -21
14 -93 8 -115 -9 -19 -17 -20 -20 -7 -45 l15 -28 -40 2 c-21 1 -41 -1 -44 -4
-3 -3 -10 -31 -15 -63 -5 -32 -11 -60 -13 -62 -3 -2 -14 11 -25 29 l-21 32 39
75 c48 95 59 158 34 200 -17 29 -17 30 7 65 22 34 39 41 82 37 13 -2 17 5 17
32 0 45 -30 72 -81 72 -46 0 -48 6 -13 34 l26 21 -1 207 c-2 211 -19 440 -46
613 -21 134 -25 151 -36 144 -5 -3 -9 0 -9 7 0 8 -3 9 -9 4 -10 -11 -34 -167
-51 -330 -6 -55 -13 -220 -17 -368 l-6 -267 29 -31 c16 -16 39 -34 52 -39 12
-5 22 -16 22 -25 0 -22 -16 -18 -44 10 -36 36 -81 34 -101 -5 -8 -16 -15 -40
-15 -55 0 -22 4 -25 36 -25 23 0 42 -6 50 -17 16 -21 18 -59 4 -68 -5 -3 -10
-20 -10 -36 0 -53 -41 -127 -107 -196 l-31 -33 10 42 c12 54 14 57 55 74 39
17 39 32 0 54 -36 20 -55 8 -89 -59 l-27 -52 -10 37 c-12 43 -47 84 -72 84
-23 0 -64 -34 -56 -47 4 -6 20 -13 36 -16 21 -4 32 -15 40 -38 22 -63 14 -72
-24 -32 -48 51 -82 110 -90 158 -3 22 -11 50 -17 62 -8 16 -7 30 2 52 11 27
17 31 51 31 35 0 39 3 39 25 0 57 -42 98 -85 82 -28 -11 -24 10 7 38 30 27 31
29 24 94 -3 36 -7 131 -8 211 l-2 145 -6 -200 -6 -200 -2 166 c-2 181 -15 376
-34 509 -6 47 -12 124 -12 172 -1 48 -2 83 -4 78 -6 -18 -21 -11 -25 13 -2 12
-5 20 -6 17z m528 -627 c1 -188 -2 -348 -5 -357 -3 -9 -10 -13 -15 -10 -11 6
-12 770 -2 840 8 47 8 46 14 -41 4 -49 7 -244 8 -432z m-96 -850 c-21 -26 -56
-55 -77 -66 -31 -16 -37 -24 -33 -43 2 -13 0 -24 -4 -24 -5 0 -9 24 -9 53 0
33 3 47 9 38 5 -8 16 -11 29 -7 22 7 112 95 113 111 0 5 3 4 6 -3 3 -7 -12
-34 -34 -59z m-267 -40 c25 -16 27 -16 40 2 13 17 14 16 14 -18 l0 -37 -42 25
c-58 34 -60 36 -86 69 -35 45 -25 55 13 14 19 -21 46 -45 61 -55z m54 -78 c0
-8 -4 -15 -10 -15 -5 0 -7 7 -4 15 4 8 8 15 10 15 2 0 4 -7 4 -15z m225 -61
c-7 -61 -6 -64 14 -64 12 0 31 5 42 10 26 14 26 -11 0 -34 -18 -16 -22 -16
-50 -2 -38 20 -65 20 -85 0 -23 -22 -56 -9 -56 22 0 14 7 27 18 31 24 9 31 23
26 53 -5 22 -1 27 38 41 24 8 47 13 51 11 5 -2 5 -33 2 -68z m-297 54 c29 -11
33 -16 28 -38 -5 -30 2 -44 27 -53 10 -4 17 -17 17 -31 0 -29 -36 -42 -57 -20
-18 18 -35 18 -80 -1 -27 -11 -39 -12 -49 -4 -24 20 -17 37 13 31 37 -7 53 18
43 65 -14 62 -2 72 58 51z m-458 -51 c0 -19 -117 -154 -171 -198 -53 -43 -89
-63 -89 -50 0 5 4 11 8 13 4 2 34 35 67 73 120 143 150 175 168 175 9 0 17 -6
17 -13z m1121 -34 c77 -66 183 -173 177 -179 -15 -15 -168 97 -184 134 -6 15
-18 33 -27 41 -15 11 -24 41 -14 41 2 0 24 -17 48 -37z m-1021 -93 c0 -10 -39
-24 -47 -17 -3 3 -2 15 2 26 5 17 10 19 26 11 10 -6 19 -15 19 -20z m441 -102
c7 -44 24 -88 35 -88 10 0 34 70 34 99 0 16 4 32 9 35 5 3 6 -16 4 -42 -5 -49
-34 -118 -49 -116 -16 3 -44 69 -44 104 0 20 -6 42 -12 49 -11 11 -10 13 2 9
9 -3 18 -23 21 -50z m824 -3 c17 -14 26 -25 22 -25 -16 0 -64 32 -76 52 -11
17 -10 18 6 9 10 -6 32 -22 48 -36z m-1455 10 c0 -2 -13 -11 -30 -20 -38 -19
-40 -11 -2 9 31 17 32 18 32 11z m979 -79 c22 -28 141 -335 141 -364 0 -16
-27 22 -54 76 -71 142 -108 245 -112 312 -3 59 -3 62 6 26 6 -22 14 -44 19
-50z m-699 -22 c0 -13 -53 -233 -67 -279 -24 -74 -55 -142 -60 -129 -5 15 86
385 100 402 10 12 27 17 27 6z m27 -271 c-27 -49 -90 -153 -93 -153 -7 0 20
55 53 108 18 28 35 52 38 52 4 0 4 -3 2 -7z m863 -142 c-1 -13 -30 34 -30 48
0 9 7 3 15 -13 8 -15 15 -31 15 -35z"/>
<path d="M1012 2810 c0 -14 2 -19 5 -12 2 6 2 18 0 25 -3 6 -5 1 -5 -13z"/>
<path d="M942 2755 c0 -16 2 -22 5 -12 2 9 2 23 0 30 -3 6 -5 -1 -5 -18z"/>
<path d="M932 2690 c0 -14 2 -19 5 -12 2 6 2 18 0 25 -3 6 -5 1 -5 -13z"/>
<path d="M1033 2665 c0 -22 2 -30 4 -17 2 12 2 30 0 40 -3 9 -5 -1 -4 -23z"/>
<path d="M911 2533 c-6 -71 -10 -166 -9 -213 1 -48 3 -64 5 -35 1 28 8 121 13
208 6 88 10 161 7 163 -2 2 -9 -53 -16 -123z"/>
<path d="M1043 2570 c0 -25 2 -35 4 -22 2 12 2 32 0 45 -2 12 -4 2 -4 -23z"/>
<path d="M1227 2585 c-28 -89 -57 -371 -57 -553 0 -128 -14 -142 -24 -25 -13
148 -42 139 -52 -16 -7 -102 -7 -103 20 -128 24 -22 27 -31 24 -76 l-3 -52
-34 3 c-33 4 -34 3 -27 -29 3 -18 11 -38 17 -46 15 -18 48 -17 55 2 11 27 24
16 18 -14 -5 -23 -2 -32 16 -41 12 -6 28 -27 36 -46 8 -19 16 -34 19 -34 3 0
11 15 19 34 8 19 23 39 34 45 14 8 19 18 16 41 -4 31 10 41 20 14 9 -24 49
-13 64 19 20 41 9 60 -28 52 l-30 -7 0 56 c0 47 4 60 25 78 21 18 25 31 25 72
0 56 -16 165 -25 175 -12 12 -24 -25 -30 -95 -13 -138 -23 -146 -24 -19 -2
219 -32 511 -60 587 -8 22 -8 22 -14 3z"/>
<path d="M1053 2440 c0 -47 2 -66 4 -42 2 23 2 61 0 85 -2 23 -4 4 -4 -43z"/>
</g>
</svg>
