<?xml version="1.0" standalone="no"?>
<!DOCTYPE svg PUBLIC "-//W3C//DTD SVG 20010904//EN"
 "http://www.w3.org/TR/2001/REC-SVG-20010904/DTD/svg10.dtd">
<svg version="1.0" xmlns="http://www.w3.org/2000/svg"
 width="244.000000pt" height="305.000000pt" viewBox="0 0 244.000000 305.000000"
 preserveAspectRatio="xMidYMid meet">
<metadata>
Created by potrace 1.16, written by Peter Selinger 2001-2019
</metadata>
<g transform="translate(0.000000,305.000000) scale(0.100000,-0.100000)"
fill="#000000" stroke="none">
<path d="M886 2888 c-9 -34 -7 -50 4 -43 7 4 10 -155 10 -469 0 -262 -3 -476
-7 -476 -5 0 -19 9 -33 20 -14 11 -30 20 -36 20 -20 0 -24 80 -14 280 11 221
21 305 65 575 4 25 4 27 -4 8 -13 -29 -48 -227 -60 -343 -6 -52 -13 -195 -17
-317 l-7 -222 29 -11 c16 -6 41 -22 55 -36 l25 -24 23 24 c13 13 36 30 52 36
l29 12 0 147 c0 262 -40 615 -89 799 -13 48 -16 51 -25 20z"/>
<path d="M1566 2878 c11 -32 16 -966 5 -973 -5 -3 -28 7 -51 22 l-43 28 7 205
c7 211 21 357 55 565 20 121 22 171 2 73 -43 -219 -69 -469 -71 -684 -1 -205
-3 -193 23 -203 12 -5 35 -21 50 -35 l29 -27 33 30 c19 16 43 32 54 36 19 6
21 14 21 103 0 155 -19 426 -40 568 -23 162 -58 314 -72 314 -6 0 -7 -8 -2
-22z"/>
<path d="M1211 2565 c-1 -27 -5 -66 -11 -85 -22 -79 -40 -250 -46 -427 -9
-245 -13 -252 -44 -68 -11 65 -23 121 -26 124 -11 12 -22 -25 -34 -117 l-13
-95 37 -31 c36 -31 42 -47 38 -109 -2 -32 -27 -45 -54 -28 -28 17 -38 6 -27
-31 15 -54 47 -62 83 -23 29 31 37 32 35 3 -4 -46 2 -63 23 -73 12 -6 29 -23
38 -40 8 -16 18 -31 23 -33 4 -2 6 -18 6 -35 l-2 -32 -4 29 c-4 22 -7 26 -14
15 -7 -11 -9 -10 -9 6 -1 11 -15 31 -32 45 -37 28 -84 29 -112 0 -19 -19 -19
-19 10 -25 16 -4 36 -9 46 -11 25 -7 46 -63 54 -145 l7 -76 -32 -11 c-27 -10
-32 -16 -29 -39 2 -19 10 -29 28 -33 18 -4 25 -13 25 -29 0 -23 -11 -34 -47
-45 -22 -7 -25 -55 -3 -57 8 -1 20 -3 25 -4 6 -1 14 -3 19 -4 5 0 19 -32 30
-71 17 -54 26 -70 40 -70 14 0 21 10 25 35 4 19 11 35 16 35 6 0 10 16 10 35
0 30 3 35 24 35 35 0 59 26 46 51 -6 10 -19 19 -30 19 -22 0 -50 25 -50 45 0
8 15 18 33 23 25 6 33 14 35 36 3 23 -2 29 -28 39 l-32 12 7 69 c10 105 36
156 79 156 12 0 27 4 35 9 12 8 12 12 2 25 -19 23 -82 20 -109 -4 -12 -11 -26
-20 -31 -20 -5 0 -12 -10 -14 -22 -3 -15 -5 -11 -5 12 -2 37 20 73 51 83 12 5
17 17 17 47 0 46 11 51 34 15 9 -14 25 -25 36 -25 23 0 50 36 50 68 0 19 -4
23 -17 17 -45 -19 -53 -17 -64 11 -13 35 -5 95 14 106 8 4 24 15 36 25 22 18
22 20 11 108 -7 50 -17 99 -23 110 -10 19 -10 19 -17 0 -4 -11 -15 -71 -25
-133 -10 -63 -22 -108 -25 -100 -4 7 -13 112 -19 233 -6 121 -18 258 -26 305
-17 98 -52 215 -55 185 -2 -17 -3 -16 -10 5 -6 20 -8 15 -9 -25z m9 -703 c-5
-2 -10 -31 -9 -65 0 -34 3 -54 7 -45 4 10 8 -24 8 -75 1 -51 0 -82 -3 -69 -2
12 -9 20 -14 17 -5 -3 -18 -1 -29 5 -19 10 -20 20 -20 178 0 163 20 447 40
567 5 33 13 87 17 120 5 37 9 -70 11 -285 1 -226 -1 -346 -8 -348z"/>
<path d="M754 1859 c-33 -9 -58 -45 -52 -75 3 -15 11 -18 44 -16 32 3 48 -2
72 -23 42 -36 48 -58 21 -94 -20 -27 -21 -34 -10 -76 13 -50 49 -114 89 -157
24 -26 24 -28 8 -50 -77 -106 -76 -102 -46 -141 21 -27 86 -45 102 -29 7 7 6
28 -3 61 -10 39 -10 53 0 64 10 13 20 12 77 -6 49 -16 69 -19 82 -11 28 18 20
36 -22 51 -112 38 -226 161 -226 244 0 31 14 22 35 -24 35 -75 138 -172 203
-192 18 -5 22 -2 22 14 0 14 -17 33 -48 55 -75 54 -132 132 -132 181 0 14 -7
28 -15 31 -25 10 -18 60 12 84 21 16 38 21 73 18 43 -3 45 -2 42 22 -6 40 -28
67 -62 74 -45 8 -85 -16 -106 -64 l-18 -40 -18 37 c-10 21 -22 41 -26 45 -16
16 -68 25 -98 17z"/>
<path d="M1430 1857 c-30 -15 -55 -58 -47 -80 5 -13 15 -16 51 -11 39 6 48 3
70 -19 29 -29 33 -58 12 -76 -7 -6 -16 -27 -19 -47 -8 -47 -66 -125 -127 -168
-32 -23 -50 -43 -50 -57 0 -17 4 -19 23 -13 65 20 176 126 203 194 16 40 34
53 34 25 0 -24 -28 -85 -58 -129 -30 -43 -126 -111 -172 -121 -38 -8 -47 -23
-27 -43 15 -14 22 -14 86 5 61 18 72 19 83 6 9 -11 9 -24 0 -59 -7 -24 -12
-48 -12 -53 0 -18 50 -21 81 -6 56 29 55 86 -1 140 -17 16 -30 34 -30 39 0 6
14 27 30 46 69 80 103 199 65 230 -23 19 -18 39 20 77 30 30 40 34 77 31 38
-2 43 0 46 20 4 28 -47 82 -78 82 -38 0 -77 -28 -98 -72 l-20 -43 -18 44 c-12
32 -26 47 -50 57 -40 17 -43 17 -74 1z"/>
<path d="M570 1518 c-25 -27 -25 -31 0 -110 37 -118 23 -165 -62 -214 -29 -17
-91 -54 -138 -81 -134 -79 -201 -115 -206 -110 -3 3 7 14 21 25 15 12 71 62
125 112 144 133 145 133 190 126 21 -3 41 -3 43 1 3 5 0 55 -7 113 -14 123
-32 108 -21 -16 l7 -75 -33 6 c-33 5 -42 -1 -219 -161 -102 -92 -187 -171
-189 -177 -4 -11 -13 -13 262 74 212 68 218 71 224 99 7 37 19 37 88 4 59 -27
92 -64 101 -113 6 -27 3 -31 -22 -37 -42 -10 -52 -21 -68 -73 -8 -25 -46 -149
-86 -274 -39 -126 -69 -231 -67 -233 5 -6 363 384 388 423 14 21 14 30 4 61
-7 20 -11 40 -8 44 2 5 44 8 92 8 75 0 93 -3 121 -22 56 -39 59 -52 21 -92
-34 -35 -34 -35 -23 -88 6 -29 36 -174 67 -322 48 -236 65 -305 65 -270 0 5
21 108 45 229 25 121 52 256 61 300 8 44 17 88 20 97 3 11 -6 29 -25 47 -45
44 -38 72 26 104 31 17 192 25 205 11 4 -3 -1 -26 -9 -50 l-15 -45 43 -47
c225 -246 363 -392 366 -388 2 2 -36 129 -84 282 l-88 278 -37 14 c-46 18 -49
41 -13 94 24 36 89 75 134 80 19 2 26 -3 30 -22 6 -23 27 -32 240 -103 129
-42 239 -76 245 -74 5 2 -75 79 -179 173 -171 153 -192 169 -222 167 l-33 -2
5 82 c6 101 -9 137 -19 43 -3 -35 -13 -83 -21 -106 -8 -23 -11 -48 -7 -55 8
-16 93 -72 242 -160 108 -64 175 -114 135 -100 -11 4 -89 31 -172 61 -201 70
-194 66 -180 105 10 26 9 33 -2 37 -7 2 -22 13 -32 23 -26 26 -25 117 1 192
25 72 25 79 -5 107 -20 19 -32 22 -71 17 -25 -2 -53 -12 -62 -20 -14 -15 -13
-20 11 -56 18 -27 27 -54 27 -81 0 -39 -22 -109 -39 -120 -27 -19 -93 -120
-106 -162 -31 -106 -28 -115 108 -353 114 -199 139 -245 133 -245 -3 0 -74 78
-156 173 -141 161 -151 174 -144 202 4 17 7 50 6 75 -4 91 15 147 84 258 52
82 68 118 72 155 6 59 -15 87 -64 87 -29 0 -34 -4 -39 -27 -3 -16 -11 -45 -16
-67 -6 -21 -8 -55 -4 -75 5 -32 1 -43 -29 -83 -41 -54 -82 -69 -118 -44 -12 9
-42 16 -65 16 l-43 0 0 -38 c0 -43 -14 -62 -46 -62 -23 0 -34 -23 -34 -74 0
-20 -11 -39 -35 -62 l-35 -33 -1 -303 -1 -303 -24 110 c-14 61 -38 169 -53
242 l-28 132 20 28 c10 15 31 37 45 47 l25 19 -6 -89 c-4 -54 -3 -79 2 -64 13
35 13 210 1 210 -14 0 -38 52 -46 99 -6 37 -9 41 -35 41 -30 0 -44 24 -41 73
2 26 0 27 -42 27 -24 0 -58 -8 -74 -17 -38 -22 -68 -10 -108 43 -23 29 -29 48
-31 98 -1 33 -6 81 -10 106 -8 43 -10 45 -44 48 -47 4 -74 -25 -72 -78 2 -29
21 -72 77 -166 101 -170 102 -163 -15 -363 -50 -86 -109 -187 -132 -226 -61
-107 -68 -117 -73 -112 -3 2 27 101 65 219 l71 214 47 15 c41 12 48 18 56 49
5 19 7 58 5 87 -4 45 -12 62 -63 128 -86 113 -99 170 -55 235 9 14 20 33 23
42 16 45 -104 67 -143 26z"/>
<path d="M1182 1000 c0 -14 2 -19 5 -12 2 6 2 18 0 25 -3 6 -5 1 -5 -13z"/>
<path d="M1203 540 c0 -25 2 -35 4 -22 2 12 2 32 0 45 -2 12 -4 2 -4 -23z"/>
</g>
</svg>
