<?xml version="1.0" standalone="no"?>
<!DOCTYPE svg PUBLIC "-//W3C//DTD SVG 20010904//EN"
 "http://www.w3.org/TR/2001/REC-SVG-20010904/DTD/svg10.dtd">
<svg version="1.0" xmlns="http://www.w3.org/2000/svg"
 width="244.000000pt" height="305.000000pt" viewBox="0 0 244.000000 305.000000"
 preserveAspectRatio="xMidYMid meet">
<metadata>
Created by potrace 1.16, written by Peter Selinger 2001-2019
</metadata>
<g transform="translate(0.000000,305.000000) scale(0.100000,-0.100000)"
fill="#000000" stroke="none">
<path d="M946 2902 c-11 -17 -55 -304 -65 -418 -6 -66 -13 -219 -17 -340 l-6
-219 34 -20 c18 -11 34 -30 36 -43 4 -26 -6 -28 -34 -7 -45 34 -104 5 -104
-51 0 -31 3 -34 29 -34 44 0 58 -8 82 -46 20 -33 20 -36 4 -61 -13 -19 -16
-38 -12 -75 6 -45 5 -48 -17 -48 -28 0 -42 -15 -52 -55 -4 -16 -14 -36 -22
-44 -11 -11 -13 -31 -9 -78 3 -47 1 -63 -8 -63 -32 0 -35 121 -5 160 25 32 25
45 -2 64 -30 22 -81 20 -101 -2 -21 -23 -21 -54 -1 -123 22 -74 14 -167 -16
-191 -17 -13 -21 -26 -18 -48 3 -23 -1 -33 -18 -44 -29 -20 -286 -128 -291
-123 -2 2 47 41 109 86 62 45 121 88 130 96 10 8 36 27 59 42 45 29 43 21 20
133 -6 25 -10 62 -11 83 0 21 -5 37 -11 37 -9 0 -10 -25 -6 -90 l7 -89 -28 5
c-24 5 -39 -8 -142 -117 -167 -176 -219 -234 -215 -238 2 -2 28 6 57 18 165
66 308 118 308 112 0 -3 -16 -28 -34 -56 -19 -27 -31 -51 -27 -53 4 -1 61 27
126 62 134 72 142 72 152 -2 5 -38 4 -40 -25 -47 -17 -3 -33 -14 -36 -23 -3
-9 -24 -89 -46 -177 -23 -88 -55 -209 -72 -268 -16 -60 -28 -111 -25 -113 2
-3 44 48 93 112 124 162 124 162 124 144 0 -8 -9 -62 -20 -119 -11 -58 -18
-106 -16 -108 2 -2 17 20 33 49 16 29 69 124 117 210 85 154 87 158 80 207
l-7 51 34 0 c44 0 97 -33 105 -65 5 -20 0 -33 -20 -54 l-26 -27 19 -115 c69
-400 92 -534 96 -538 3 -2 5 -1 5 4 0 4 25 151 55 327 l56 318 -26 35 c-19 24
-25 40 -20 55 9 29 63 60 104 60 l34 0 -6 -52 c-7 -57 -12 -45 133 -308 35
-63 73 -133 84 -154 11 -22 21 -35 23 -30 2 6 -8 66 -22 134 -13 68 -23 125
-21 127 2 2 47 -53 101 -122 53 -70 99 -125 101 -123 3 3 -101 416 -129 508
-9 32 -21 49 -41 58 -15 8 -29 19 -32 26 -4 11 22 86 30 86 4 0 91 -46 199
-106 44 -24 82 -42 85 -39 3 3 -12 30 -33 60 -21 31 -36 58 -33 61 5 4 16 1
93 -31 17 -7 41 -16 55 -20 14 -4 51 -18 82 -31 104 -43 105 -45 -101 179
-115 126 -128 137 -154 133 l-28 -6 7 84 c4 58 3 85 -5 90 -7 5 -11 -3 -11
-22 0 -16 -3 -64 -6 -106 l-7 -77 40 7 39 6 95 -103 c137 -151 139 -153 134
-157 -4 -5 -173 107 -272 180 -67 49 -83 93 -64 176 24 101 25 131 6 152 -20
22 -50 25 -89 10 -21 -8 -25 -17 -28 -57 -4 -50 -10 -45 -24 22 -8 36 -12 40
-42 43 l-33 3 7 48 c5 37 2 51 -11 65 -36 36 22 119 79 114 27 -3 31 0 34 24
5 39 -31 71 -71 66 -18 -3 -38 -7 -46 -9 -7 -2 -15 1 -18 8 -4 11 18 37 49 58
13 9 14 45 6 290 -5 161 -14 314 -23 360 -16 88 -16 88 5 -140 5 -55 9 -185
10 -288 l0 -188 -27 -24 c-16 -13 -32 -25 -38 -25 -7 0 -8 167 -5 492 3 271 2
497 -1 501 -3 4 -15 -39 -26 -95 l-19 -103 -15 105 c-14 104 -14 103 -21 -330
-4 -239 -9 -464 -10 -500 -3 -62 -4 -64 -17 -40 -8 14 -17 58 -20 99 -6 81
-22 101 -38 49 -11 -32 -11 -32 -12 -6 -2 44 -21 44 -21 -1 0 -22 -4 -43 -10
-46 -6 -4 -10 26 -10 83 0 110 -15 269 -37 382 -19 99 -28 123 -36 94 -30
-102 -57 -334 -58 -499 0 -65 -3 -93 -9 -80 -5 11 -9 37 -9 58 -1 39 -20 53
-22 15 -1 -21 -2 -20 -11 5 -5 15 -14 27 -19 27 -5 0 -9 44 -9 98 0 122 -16
358 -35 521 -8 69 -15 130 -15 135 0 5 -3 6 -6 3 -4 -4 -7 -100 -6 -214 0
-115 -3 -194 -7 -178 -4 17 -7 -96 -7 -250 l1 -280 -22 -3 c-13 -2 -23 -10
-23 -17 0 -8 -5 -17 -11 -20 -7 -5 -9 145 -7 499 2 278 2 506 1 506 -1 0 -4
-4 -7 -8z m341 -859 c-2 -16 -4 -3 -4 27 0 30 2 43 4 28 2 -16 2 -40 0 -55z
m-197 -174 c0 -12 -27 -11 -35 1 -11 17 5 32 21 19 8 -6 14 -15 14 -20z m330
5 c0 -8 -7 -14 -15 -14 -15 0 -21 21 -9 33 10 9 24 -2 24 -19z m-410 1 c0 -8
-9 -15 -20 -15 -20 0 -26 11 -13 23 12 13 33 7 33 -8z m478 -2 c-4 -22 -22
-20 -26 1 -2 10 3 16 13 16 10 0 15 -7 13 -17z m-358 -121 c0 -4 -9 -13 -19
-19 -15 -10 -22 -9 -31 2 -10 12 -8 16 11 24 24 9 39 6 39 -7z m265 -2 c3 -4
-2 -13 -10 -20 -11 -10 -18 -9 -30 4 -9 9 -14 20 -11 25 7 10 43 3 51 -9z
m-393 -72 c-13 -13 -26 8 -17 30 6 16 7 16 17 -1 7 -13 7 -22 0 -29z m480 0
c-13 -13 -24 5 -16 27 7 16 8 16 17 0 6 -11 6 -20 -1 -27z m-412 2 c12 -23 12
-24 -3 -11 -10 7 -17 20 -17 29 0 18 3 16 20 -18z m90 -46 c0 -13 8 -24 20
-27 11 -3 27 -21 35 -41 9 -20 17 -36 20 -36 2 0 12 16 21 36 10 20 26 39 36
42 10 2 18 13 18 26 0 18 6 21 45 21 49 0 54 -9 35 -59 -8 -23 -12 -25 -37
-15 -55 21 -73 6 -111 -91 -9 -24 -10 -24 -21 15 -18 68 -32 80 -90 78 -34 -2
-51 2 -51 10 0 7 -3 22 -6 34 -5 17 -1 22 18 25 53 7 68 3 68 -18z m-189 -51
c6 -21 22 -59 35 -85 27 -54 31 -77 11 -59 -18 14 -63 108 -72 149 -9 45 11
41 26 -5z m80 -18 c8 -28 8 -29 -6 -11 -8 11 -15 31 -14 45 1 26 3 23 20 -34z
m389 14 c-10 -33 -20 -50 -20 -32 0 28 13 72 20 68 5 -3 4 -19 0 -36z m74 -25
c-15 -47 -62 -120 -70 -111 -3 2 9 33 26 68 16 35 30 71 30 80 0 21 11 32 22
21 5 -5 2 -31 -8 -58z m-373 -36 c18 -15 42 -68 31 -68 -12 0 -27 14 -45 40
-27 38 -18 55 14 28z m219 6 c0 -3 -12 -23 -27 -45 -28 -39 -50 -52 -39 -23 3
9 6 20 6 25 0 12 37 49 50 49 6 0 10 -3 10 -6z m216 -102 c4 -19 1 -60 -6 -91
-18 -83 -21 -84 -14 -4 4 54 1 79 -10 102 -9 16 -13 37 -9 47 6 16 7 16 19 -1
8 -10 17 -34 20 -53z m-639 42 c3 -8 1 -20 -6 -27 -6 -6 -11 -46 -12 -91 l-1
-81 -14 60 c-12 48 -12 70 -3 108 11 48 25 60 36 31z m770 -101 c-4 -39 -21
-75 -30 -62 -1 2 -1 40 1 84 4 79 4 79 19 51 10 -19 14 -44 10 -73z m-528 14
c6 -8 8 -17 5 -20 -8 -7 -54 14 -54 25 0 13 36 9 49 -5z m142 -7 c-22 -19 -41
-19 -41 0 0 7 22 15 55 18 6 1 -1 -7 -14 -18z m-170 -78 c-6 -2 -11 -17 -11
-33 0 -22 6 -32 25 -39 29 -11 34 -44 8 -58 -11 -7 -21 -6 -30 3 -9 10 -29 12
-68 8 -46 -5 -55 -3 -55 10 0 21 13 28 30 17 25 -16 38 6 30 52 -11 61 -7 67
41 54 22 -6 36 -12 30 -14z m243 10 c2 -4 1 -26 -3 -49 -10 -52 -2 -66 32 -57
21 5 27 3 27 -11 0 -14 -8 -16 -48 -11 -30 3 -58 0 -73 -8 -32 -17 -49 -10
-49 20 0 17 8 27 25 34 19 7 25 17 25 40 0 17 -6 31 -12 31 -7 1 1 5 17 9 42
11 53 11 59 2z m-564 -62 c0 -14 -14 -12 -28 2 -19 19 -14 30 8 18 11 -6 20
-15 20 -20z m688 -56 c-7 -15 -14 -21 -16 -15 -2 7 2 18 8 26 18 22 21 18 8
-11z m-544 -9 c3 -8 1 -15 -3 -15 -5 0 -11 7 -15 15 -3 8 -1 15 3 15 5 0 11
-7 15 -15z m-249 -40 c3 -12 -123 -131 -130 -123 -3 3 13 25 35 50 22 26 40
53 40 61 0 25 51 35 55 12z m185 -54 c13 -46 13 -98 1 -106 -6 -3 -13 11 -16
32 -3 21 -8 53 -11 71 -3 18 -8 41 -11 50 -6 15 -5 15 10 3 9 -7 21 -30 27
-50z m916 -16 c42 -41 72 -75 68 -75 -5 0 -31 14 -59 30 -27 16 -71 40 -97 55
-52 27 -58 38 -30 54 30 18 40 13 118 -64z m-223 -92 c4 -6 20 -14 36 -18 46
-10 36 16 127 -322 18 -68 29 -123 26 -123 -4 1 -19 26 -34 58 -60 127 -181
379 -194 404 -19 36 -18 92 3 131 l18 32 5 -75 c3 -41 9 -80 13 -87z m-296
101 c-3 -3 -12 -4 -19 -1 -8 3 -5 6 6 6 11 1 17 -2 13 -5z m-72 -134 c3 0 12
15 20 33 9 19 14 25 15 14 0 -18 -27 -77 -35 -77 -8 0 -35 59 -35 77 1 11 6 5
15 -14 8 -18 17 -33 20 -33z m-345 -30 c-33 -183 -30 -176 -140 -323 -35 -47
-66 -84 -68 -83 -3 4 24 65 103 231 32 66 68 144 81 174 14 30 26 52 28 50 2
-2 0 -24 -4 -49z m614 -31 c3 -26 14 -62 26 -81 11 -19 38 -84 59 -144 22 -60
44 -122 51 -139 30 -78 -43 44 -136 227 -56 109 -60 130 -38 197 9 27 32 -11
38 -60z m-575 -15 c1 -28 -35 -92 -45 -81 -3 2 3 40 13 83 14 63 19 74 24 54
4 -14 7 -39 8 -56z m51 59 c0 -10 -4 -24 -9 -32 -7 -11 -10 -9 -16 8 -7 22 0
41 16 41 5 0 9 -8 9 -17z m341 -184 l-9 -44 -1 41 c-1 22 2 44 6 47 12 12 13
1 4 -44z m-409 -11 c-6 -18 -22 -67 -37 -108 -46 -130 -57 -132 -29 -7 15 67
60 165 71 154 2 -3 0 -20 -5 -39z"/>
<path d="M1012 2800 c0 -14 2 -19 5 -12 2 6 2 18 0 25 -3 6 -5 1 -5 -13z"/>
<path d="M1422 2800 c0 -14 2 -19 5 -12 2 6 2 18 0 25 -3 6 -5 1 -5 -13z"/>
<path d="M972 2780 c0 -14 2 -19 5 -12 2 6 2 18 0 25 -3 6 -5 1 -5 -13z"/>
<path d="M1547 2715 c3 -33 7 -62 9 -64 8 -8 2 74 -7 99 -5 16 -6 4 -2 -35z"/>
<path d="M987 2658 c3 -47 9 -101 14 -120 6 -22 7 -4 4 57 -3 50 -10 104 -15
120 -6 21 -7 4 -3 -57z"/>
<path d="M983 2480 c0 -25 2 -35 4 -22 2 12 2 32 0 45 -2 12 -4 2 -4 -23z"/>
<path d="M1393 2480 c0 -25 2 -35 4 -22 2 12 2 32 0 45 -2 12 -4 2 -4 -23z"/>
<path d="M1384 2275 c0 -77 2 -107 3 -67 2 40 2 103 0 140 -2 37 -3 4 -3 -73z"/>
<path d="M974 2250 c0 -63 1 -89 3 -57 2 31 2 83 0 115 -2 31 -3 5 -3 -58z"/>
</g>
</svg>
