<?xml version="1.0" standalone="no"?>
<!DOCTYPE svg PUBLIC "-//W3C//DTD SVG 20010904//EN"
 "http://www.w3.org/TR/2001/REC-SVG-20010904/DTD/svg10.dtd">
<svg version="1.0" xmlns="http://www.w3.org/2000/svg"
 width="244.000000pt" height="305.000000pt" viewBox="0 0 244.000000 305.000000"
 preserveAspectRatio="xMidYMid meet">
<metadata>
Created by potrace 1.16, written by Peter Selinger 2001-2019
</metadata>
<g transform="translate(0.000000,305.000000) scale(0.100000,-0.100000)"
fill="#000000" stroke="none">
<path d="M871 2812 c-40 -172 -61 -351 -72 -617 l-12 -259 22 -16 c13 -8 37
-27 56 -43 l33 -27 29 23 c15 12 40 30 54 39 25 16 26 17 23 130 -7 295 -28
529 -63 688 -23 105 -26 86 -6 -35 29 -171 45 -341 52 -540 l6 -200 -42 -28
c-24 -16 -45 -26 -48 -24 -7 8 -7 908 1 953 4 23 3 44 -2 48 -5 3 -19 -38 -31
-92z"/>
<path d="M1556 2868 c-60 -296 -86 -537 -85 -783 l0 -160 51 -34 c41 -27 55
-31 67 -22 29 20 76 51 84 54 11 3 -11 495 -28 613 -19 134 -47 286 -51 281
-2 -2 7 -75 21 -163 27 -171 45 -411 45 -590 l0 -111 -40 -27 c-22 -14 -42
-26 -45 -26 -3 0 -5 217 -4 483 0 312 4 475 10 462 8 -17 9 -17 4 5 -2 14 -5
31 -5 38 0 25 -18 11 -24 -20z"/>
<path d="M1302 2860 c0 -14 2 -19 5 -12 2 6 2 18 0 25 -3 6 -5 1 -5 -13z"/>
<path d="M1162 2825 c-1 -22 -4 -227 -7 -455 -2 -228 -8 -437 -13 -465 -5 -27
-10 -44 -11 -38 -11 109 -45 252 -56 241 -7 -7 -24 -105 -29 -166 -4 -52 -3
-54 29 -73 37 -22 49 -54 39 -105 -7 -40 -28 -53 -55 -36 -27 17 -29 15 -29
-16 0 -29 26 -62 49 -62 7 0 25 14 40 31 l29 31 1 -66 c1 -66 1 -66 -27 -64
-28 2 -72 -17 -72 -31 0 -5 9 -11 20 -14 15 -4 20 -14 20 -37 0 -28 -2 -30
-19 -18 -40 28 -91 101 -97 139 -4 21 -13 44 -20 50 -21 18 -17 47 12 76 22
22 32 25 70 20 44 -5 44 -5 44 28 0 72 -89 95 -141 37 -16 -18 -29 -39 -29
-47 0 -26 -16 -16 -33 21 -19 40 -73 68 -111 58 -35 -8 -68 -48 -64 -75 3 -21
8 -23 46 -21 37 3 47 -1 77 -31 38 -38 43 -58 20 -77 -36 -30 -9 -135 59 -223
20 -26 36 -50 36 -54 0 -4 -14 -21 -30 -38 -41 -42 -53 -85 -31 -112 31 -40
96 -58 107 -30 3 8 0 33 -5 57 -6 28 -6 50 0 61 8 16 13 17 47 5 32 -12 37
-18 35 -42 0 -16 1 -23 4 -15 5 11 7 11 14 0 6 -10 9 -7 9 10 0 13 3 22 6 18
11 -11 -17 -117 -32 -117 -8 0 -14 6 -14 13 0 8 -3 8 -8 1 -9 -13 -89 -54
-106 -54 -17 0 -73 56 -92 92 -7 15 -11 39 -9 55 3 15 -1 57 -8 93 -14 65 -14
65 -50 68 -29 3 -39 -2 -53 -23 -27 -42 -14 -99 43 -190 86 -137 96 -163 98
-240 1 -38 6 -87 10 -108 8 -43 12 -38 -184 -264 -105 -122 -145 -160 -108
-101 9 12 68 118 132 233 103 184 117 216 117 255 -1 67 -35 147 -92 215 -75
90 -89 162 -45 227 14 20 25 41 25 46 0 22 -39 42 -82 42 -80 0 -95 -41 -57
-160 30 -93 14 -163 -42 -182 -11 -4 -12 -11 -2 -37 10 -27 9 -33 -5 -40 -34
-18 -335 -122 -344 -119 -5 2 69 52 165 111 240 147 225 133 205 198 -9 30
-19 81 -23 113 -5 41 -10 55 -16 45 -9 -14 -5 -97 7 -152 6 -27 5 -27 -33 -22
-38 6 -40 5 -198 -140 -88 -81 -173 -160 -190 -177 l-30 -30 30 6 c17 4 128
39 247 78 202 66 218 73 218 95 0 36 23 38 87 6 64 -31 106 -82 101 -123 -2
-19 -10 -26 -30 -28 -34 -4 -42 -15 -61 -77 -8 -27 -47 -153 -87 -278 -39
-126 -69 -231 -67 -233 3 -3 15 8 27 23 12 15 43 51 68 78 93 99 297 327 305
340 4 7 3 25 -3 40 -23 61 -18 65 73 65 95 0 127 -7 127 -26 0 -8 6 -11 17 -7
14 5 15 0 10 -37 -3 -25 -13 -47 -22 -53 -14 -8 -16 -23 -11 -110 4 -66 2 -93
-4 -77 -7 20 -8 12 -8 -35 1 -33 -2 -85 -5 -115 -5 -38 -1 -28 13 34 28 130
30 132 51 26 30 -154 83 -400 85 -397 5 5 87 396 92 434 2 24 8 43 13 43 5 0
10 19 10 43 1 42 2 41 10 -13 5 -30 6 -72 3 -94 -5 -28 -3 -37 5 -31 8 4 10
-1 7 -17 -3 -12 -2 -39 3 -58 14 -54 13 -15 -5 238 -19 269 -26 252 109 252
l90 0 -6 -33 c-3 -17 -8 -39 -11 -47 -6 -16 31 -62 213 -261 58 -63 122 -133
144 -157 21 -24 40 -42 42 -40 1 2 -20 75 -47 163 -27 88 -66 214 -86 279 -36
117 -38 120 -74 134 -45 18 -49 42 -15 93 24 38 127 95 152 85 8 -3 15 -16 15
-29 0 -21 9 -27 68 -46 37 -11 143 -46 236 -76 163 -52 203 -60 162 -29 -11 7
-47 40 -80 72 -34 32 -110 103 -170 156 -100 90 -111 97 -140 92 l-32 -6 3 92
c5 121 -12 96 -21 -30 l-7 -93 46 6 45 7 97 -88 c53 -49 119 -111 147 -137
l51 -48 -60 30 c-33 16 -105 55 -160 87 -55 33 -113 66 -128 74 -77 39 -100
107 -68 202 26 76 27 110 3 131 -25 23 -94 22 -122 -1 l-23 -19 27 -45 c46
-79 30 -143 -69 -266 -40 -50 -59 -111 -50 -161 10 -55 21 -67 70 -81 25 -7
45 -14 45 -15 0 -1 31 -100 70 -220 38 -121 68 -220 66 -222 -2 -2 -32 45 -66
104 -35 60 -91 156 -126 214 -135 231 -135 229 -10 431 59 94 70 154 37 187
-16 16 -32 21 -54 19 -27 -3 -32 -8 -39 -38 -5 -19 -10 -67 -12 -107 -3 -63
-8 -77 -35 -112 -39 -49 -67 -56 -124 -31 -42 19 -45 22 -57 80 -7 33 -17 57
-21 54 -5 -3 -9 -1 -9 5 0 14 75 35 95 27 17 -6 17 -28 0 -98 -10 -36 23 -46
73 -21 31 15 37 24 40 53 2 28 -4 44 -33 77 -19 23 -35 44 -35 48 0 3 18 29
39 58 67 89 92 187 56 217 -23 19 -18 39 20 77 32 32 40 35 75 30 43 -6 55 8
41 46 -13 34 -36 49 -75 49 -46 0 -70 -15 -90 -57 -9 -19 -20 -35 -24 -35 -5
0 -14 16 -21 36 -18 51 -70 73 -118 50 -24 -11 -35 -25 -39 -46 -9 -41 -5 -45
43 -42 34 3 47 -1 68 -22 28 -28 33 -71 10 -80 -8 -3 -15 -16 -15 -28 0 -42
-78 -158 -106 -158 -23 0 -17 51 6 57 11 3 20 9 20 14 0 14 -60 40 -79 34 -15
-5 -17 1 -15 52 1 32 3 59 3 60 1 1 12 -9 26 -22 13 -14 31 -25 39 -25 20 0
46 39 46 67 0 26 -3 27 -29 11 -28 -17 -48 -4 -55 40 -7 49 6 88 33 97 39 12
43 28 31 117 -21 158 -32 163 -56 22 -33 -195 -39 -170 -36 148 1 150 -2 363
-6 473 l-9 200 -3 -285 c-2 -275 -3 -282 -15 -195 -6 50 -23 128 -35 175 l-24
85 -18 -60 c-10 -33 -21 -82 -25 -110 -6 -37 -11 10 -19 190 -6 132 -12 222
-12 200z m114 -485 c20 -139 31 -400 16 -400 -5 0 -15 28 -20 63 -9 62 -9 61
-10 -43 0 -98 1 -102 12 -65 l13 39 12 -48 c12 -48 9 -77 -4 -37 -10 34 -25
14 -25 -34 0 -26 5 -45 13 -48 18 -6 16 -125 -3 -137 -26 -16 -30 -11 -29 33
1 23 4 32 6 20 7 -39 23 -25 23 20 0 28 -3 37 -9 28 -11 -17 -19 177 -24 534
-3 266 0 275 29 75z m-345 -771 c14 -32 47 -73 86 -109 69 -63 88 -106 32 -73
-70 41 -159 161 -159 215 0 32 16 19 41 -33z m649 29 c0 -57 -110 -196 -172
-217 -24 -9 -28 -8 -28 10 0 10 4 19 9 19 23 0 128 112 151 159 25 54 40 65
40 29z m-413 -20 c-3 -7 -5 -2 -5 12 0 14 2 19 5 13 2 -7 2 -19 0 -25z m33 -4
c0 -14 -4 -22 -10 -19 -5 3 -10 17 -10 31 0 14 4 22 10 19 6 -3 10 -17 10 -31z
m81 -17 c-8 -8 -11 -5 -11 9 0 27 14 41 18 19 2 -9 -1 -22 -7 -28z m-44 -79
c-2 -13 -4 -5 -4 17 -1 22 1 32 4 23 2 -10 2 -28 0 -40z m113 8 c0 -19 -5 -36
-11 -38 -6 -2 -14 -27 -17 -56 -2 -31 -9 -49 -14 -45 -19 11 12 173 32 173 6
0 10 -15 10 -34z m-193 -27 c14 -56 16 -116 3 -124 -6 -4 -10 13 -10 44 0 31
-6 55 -15 65 -18 18 -20 69 -2 64 6 -3 17 -24 24 -49z m200 -91 c-3 -8 -6 -5
-6 6 -1 11 2 17 5 13 3 -3 4 -12 1 -19z m43 -178 c0 -13 -1 -13 -10 0 -5 8
-10 22 -10 30 0 13 1 13 10 0 5 -8 10 -22 10 -30z m-263 8 c-3 -8 -6 -5 -6 6
-1 11 2 17 5 13 3 -3 4 -12 1 -19z m38 -2 c12 -12 12 -16 0 -26 -9 -8 -15 -8
-15 -2 0 6 -3 17 -6 26 -8 20 3 21 21 2z m132 6 c14 11 15 10 8 -12 -4 -14 -9
-27 -12 -30 -6 -7 -23 23 -22 40 0 11 2 11 6 2 4 -10 8 -10 20 0z m-204 -82
c-3 -11 -7 -20 -9 -20 -2 0 -4 9 -4 20 0 11 4 20 9 20 5 0 7 -9 4 -20z m273
-25 c-4 -14 -11 -25 -16 -25 -10 0 -4 43 8 65 9 15 14 -14 8 -40z m-256 -15
c0 -5 -2 -10 -4 -10 -3 0 -8 5 -11 10 -3 6 -1 10 4 10 6 0 11 -4 11 -10z m117
-162 c-3 -8 -6 -5 -6 6 -1 11 2 17 5 13 3 -3 4 -12 1 -19z m50 -71 c39 -57 46
-135 22 -246 -45 -213 -68 -308 -63 -251 3 30 6 162 7 292 1 131 4 238 7 238
3 0 15 -15 27 -33z m50 -50 c1 -52 -1 -57 -8 -32 -5 17 -7 39 -5 50 3 11 1 27
-4 35 -5 8 -6 18 -3 23 11 18 20 -16 20 -76z"/>
<path d="M1293 2580 c0 -25 2 -35 4 -22 2 12 2 32 0 45 -2 12 -4 2 -4 -23z"/>
<path d="M1143 2420 c0 -47 2 -66 4 -42 2 23 2 61 0 85 -2 23 -4 4 -4 -43z"/>
<path d="M1352 600 c0 -14 2 -19 5 -12 2 6 2 18 0 25 -3 6 -5 1 -5 -13z"/>
</g>
</svg>
