<?xml version="1.0" standalone="no"?>
<!DOCTYPE svg PUBLIC "-//W3C//DTD SVG 20010904//EN"
 "http://www.w3.org/TR/2001/REC-SVG-20010904/DTD/svg10.dtd">
<svg version="1.0" xmlns="http://www.w3.org/2000/svg"
 width="244.000000pt" height="305.000000pt" viewBox="0 0 244.000000 305.000000"
 preserveAspectRatio="xMidYMid meet">
<metadata>
Created by potrace 1.16, written by Peter Selinger 2001-2019
</metadata>
<g transform="translate(0.000000,305.000000) scale(0.100000,-0.100000)"
fill="#000000" stroke="none">
<path d="M981 2828 c-28 -195 -42 -358 -51 -578 -12 -303 -11 -315 35 -364
l36 -39 39 39 40 39 0 110 c0 323 -51 875 -80 875 -4 0 -12 -37 -19 -82z m44
-125 c3 -43 8 -94 11 -113 10 -93 24 -370 24 -495 0 -145 -1 -150 -45 -177 -6
-4 -10 156 -11 433 -1 417 5 523 21 352z"/>
<path d="M1451 2848 c-30 -176 -61 -586 -61 -818 l0 -102 39 -40 40 -39 39 39
39 39 -8 279 c-7 255 -18 389 -51 622 -6 45 -14 82 -18 82 -5 0 -13 -28 -19
-62z m43 -183 c18 -172 36 -467 36 -604 0 -90 -1 -95 -30 -128 l-30 -34 0 462
c0 254 2 460 4 458 3 -3 12 -72 20 -154z"/>
<path d="M1221 2554 c-16 -76 -41 -332 -48 -509 l-7 -160 -13 104 c-7 58 -15
112 -19 120 -10 25 -23 -31 -31 -132 -6 -87 -6 -89 21 -114 24 -22 27 -31 24
-76 -3 -50 -4 -52 -30 -50 -25 2 -28 -1 -28 -32 0 -60 45 -81 68 -32 9 20 11
17 11 -18 1 -28 7 -44 20 -52 11 -7 25 -29 32 -50 l12 -38 18 43 c10 23 25 45
34 48 10 4 15 20 15 47 0 40 0 41 16 19 28 -40 64 -17 64 43 0 22 -4 25 -27
23 -27 -3 -28 -1 -31 43 -2 38 2 52 24 78 26 32 27 34 20 128 -7 100 -19 143
-31 112 -3 -9 -12 -63 -19 -120 -13 -96 -14 -99 -15 -44 -6 264 -39 614 -61
654 -5 10 -11 -2 -19 -35z m55 -587 c7 -317 7 -318 -14 -338 l-22 -20 1 443
c2 416 3 437 15 338 7 -58 16 -248 20 -423z"/>
<path d="M887 1855 c-18 -17 -31 -70 -22 -85 3 -5 19 -10 35 -10 19 0 35 -9
49 -26 22 -28 29 -74 11 -74 -29 0 0 -153 44 -231 l24 -42 -29 -56 c-21 -39
-28 -63 -24 -81 10 -38 36 -61 64 -58 25 3 26 4 22 72 -3 64 -2 68 15 61 11
-4 33 -13 51 -19 28 -9 31 -14 26 -39 -5 -23 -1 -33 21 -51 31 -24 28 -47 -9
-64 -19 -9 -24 -8 -28 9 -6 24 -39 25 -77 2 -24 -14 -31 -14 -45 -3 -34 28
-48 74 -51 163 -4 117 -8 127 -49 127 -25 0 -34 -5 -39 -22 -12 -47 -6 -119
15 -159 22 -43 20 -67 -3 -27 -40 72 -47 152 -18 213 26 55 10 80 -51 80 -38
0 -45 -4 -59 -30 -8 -16 -19 -33 -24 -36 -4 -4 -7 -42 -5 -85 4 -78 4 -79 -21
-82 -16 -2 -37 -20 -59 -50 -19 -26 -40 -51 -45 -57 -27 -25 -187 -247 -183
-252 4 -3 64 21 134 53 204 93 228 107 228 129 1 36 63 5 95 -48 27 -44 25
-72 -7 -95 -23 -17 -30 -35 -50 -133 -24 -117 -31 -152 -58 -274 -27 -120 -35
-168 -31 -173 6 -5 29 17 39 38 10 19 25 43 62 100 16 25 34 53 40 62 5 10 35
57 65 105 82 131 85 138 72 180 -6 20 -9 40 -6 45 10 16 98 8 131 -11 44 -27
51 -56 22 -94 l-22 -31 42 -300 c46 -323 52 -359 57 -353 4 4 59 364 81 534
l15 121 -22 32 c-20 28 -21 34 -9 57 18 34 59 53 113 53 50 0 56 -8 43 -59 -9
-33 -5 -43 42 -121 181 -296 231 -374 237 -368 4 4 -18 114 -102 498 -7 36
-14 68 -14 73 0 4 -11 13 -25 19 -48 22 -20 113 46 152 37 22 49 20 49 -8 0
-20 13 -30 83 -64 176 -85 260 -122 265 -118 2 3 -55 84 -128 181 -109 144
-137 175 -157 175 -25 0 -25 1 -18 65 3 36 3 80 -1 97 l-8 33 -7 -45 c-4 -25
-8 -80 -8 -123 -1 -74 0 -77 18 -67 11 5 24 10 29 10 8 0 87 -94 122 -146 8
-12 31 -42 50 -65 19 -24 28 -39 20 -35 -15 9 -100 75 -110 86 -3 3 -35 31
-71 62 -91 78 -97 97 -77 217 20 116 12 144 -40 149 -62 6 -75 -24 -44 -99 19
-44 20 -139 2 -139 -4 0 -11 -12 -15 -27 -6 -24 -45 -84 -45 -69 0 4 10 26 21
49 13 25 24 68 27 108 4 63 3 68 -20 83 -14 9 -32 14 -39 11 -17 -6 -40 -136
-32 -176 5 -28 -24 -96 -51 -118 -13 -11 -22 -11 -50 3 -45 21 -67 20 -73 -4
-5 -18 -7 -18 -34 -4 -37 19 -38 51 -3 64 23 9 26 15 21 45 -5 28 -3 35 11 35
9 0 26 7 36 15 40 30 48 20 44 -52 -3 -65 -2 -68 20 -71 13 -2 32 4 42 13 31
28 31 65 0 126 -27 53 -27 58 -13 79 43 62 83 250 53 250 -19 0 -10 49 14 77
15 17 34 27 52 28 24 0 30 5 32 29 6 50 -55 94 -95 68 -7 -4 -20 -26 -29 -47
l-17 -40 -8 29 c-26 92 -119 84 -119 -11 0 -31 2 -33 29 -31 16 1 36 -4 44
-10 24 -20 30 -62 12 -81 -8 -10 -15 -31 -15 -47 0 -41 -32 -104 -75 -150 -37
-39 -58 -94 -36 -94 40 0 120 101 153 192 18 50 19 51 14 14 -6 -43 -45 -129
-76 -169 -11 -14 -40 -37 -65 -50 l-45 -26 0 47 c0 81 17 122 56 138 39 17 42
24 14 49 -34 31 -71 10 -96 -54 l-22 -53 -17 52 c-21 63 -51 82 -90 56 -33
-21 -32 -35 4 -47 36 -13 50 -45 58 -126 l6 -65 -31 20 c-83 50 -147 142 -158
228 -5 39 -5 38 14 -11 24 -64 60 -121 102 -162 68 -66 83 -23 20 53 -49 60
-80 121 -80 159 0 16 -8 37 -17 47 -15 17 -15 21 0 53 14 30 22 35 52 35 33 0
35 2 35 35 0 39 -28 75 -58 75 -24 0 -51 -29 -61 -66 l-8 -29 -12 30 c-25 62
-71 84 -104 50z m-108 -509 c2 -45 -6 -27 -12 29 -4 34 -3 42 3 25 4 -14 8
-38 9 -54z m508 -38 c-3 -8 -6 -5 -6 6 -1 11 2 17 5 13 3 -3 4 -12 1 -19z
m-549 -185 c-9 -12 -188 -104 -188 -97 0 7 63 74 70 74 4 0 32 23 61 52 l53
52 7 -35 c4 -19 3 -39 -3 -46z m804 40 c-16 -31 -24 -99 -17 -148 6 -39 13
-50 45 -70 31 -20 39 -32 45 -67 4 -24 23 -110 41 -192 18 -83 32 -151 30
-153 -2 -2 -22 45 -44 104 -22 59 -63 164 -91 231 -55 133 -63 190 -37 253 7
19 16 43 20 53 3 10 9 16 12 13 3 -3 1 -14 -4 -24z m-567 -183 c3 -62 7 -115
10 -118 3 -3 -7 -26 -22 -51 -175 -304 -181 -302 -56 13 52 132 55 144 51 213
-2 40 0 69 5 64 4 -4 10 -59 12 -121z m229 46 c4 -30 13 -62 21 -72 13 -18 14
-17 25 10 6 16 14 49 17 73 3 24 9 43 13 43 11 0 1 -78 -16 -123 -20 -54 -18
-75 15 -126 l30 -46 -34 -225 -33 -225 -1 282 c-1 281 -1 282 -26 329 -14 26
-25 64 -25 85 0 20 -6 40 -12 42 -8 4 -7 6 3 6 13 1 18 -12 23 -53z"/>
</g>
</svg>
