<?xml version="1.0" standalone="no"?>
<!DOCTYPE svg PUBLIC "-//W3C//DTD SVG 20010904//EN"
 "http://www.w3.org/TR/2001/REC-SVG-20010904/DTD/svg10.dtd">
<svg version="1.0" xmlns="http://www.w3.org/2000/svg"
 width="244.000000pt" height="305.000000pt" viewBox="0 0 244.000000 305.000000"
 preserveAspectRatio="xMidYMid meet">
<metadata>
Created by potrace 1.16, written by Peter Selinger 2001-2019
</metadata>
<g transform="translate(0.000000,305.000000) scale(0.100000,-0.100000)"
fill="#000000" stroke="none">
<path d="M1081 2890 c-1 -14 -4 -36 -8 -49 -3 -14 -2 -22 3 -19 10 7 0 -785
-11 -846 -5 -26 -10 -34 -16 -25 -4 7 -11 11 -14 7 -9 -9 33 -88 50 -95 16 -5
21 -33 7 -33 -5 0 -17 9 -27 20 -38 42 -106 12 -130 -55 l-13 -40 -12 30 c-24
63 -69 91 -120 74 -34 -12 -50 -35 -50 -73 0 -25 2 -26 40 -20 35 6 43 3 70
-24 30 -30 40 -75 20 -87 -20 -12 -11 -100 15 -151 20 -39 25 -64 25 -121 0
-64 -3 -75 -26 -98 -23 -23 -25 -24 -19 -5 4 12 2 45 -5 73 -6 29 -13 62 -16
75 -6 28 -42 30 -75 3 -35 -28 -30 -84 15 -167 48 -86 43 -111 -7 -44 -74 99
-85 163 -41 238 l27 45 -23 19 c-24 20 -80 24 -110 8 -27 -14 -33 -59 -15
-109 36 -103 28 -202 -17 -217 -19 -6 -20 -14 -7 -63 3 -10 -18 -23 -66 -41
-217 -83 -267 -101 -271 -97 -2 2 40 32 93 67 294 189 276 173 258 237 -7 26
-17 75 -21 108 -7 55 -8 57 -13 25 -4 -19 -3 -57 0 -85 4 -27 5 -53 2 -57 -2
-4 -17 -5 -33 -1 -28 5 -42 -6 -205 -168 -96 -95 -173 -174 -171 -176 2 -3
359 118 429 146 19 7 27 18 27 36 0 14 6 25 13 25 23 -1 100 -40 119 -62 21
-24 18 -38 -18 -101 -13 -23 -24 -50 -24 -60 0 -9 -23 -95 -51 -190 -28 -94
-62 -212 -75 -262 l-23 -90 36 40 c19 22 80 94 136 160 56 66 125 149 155 184
41 48 52 68 48 85 -21 72 -20 76 13 76 39 0 39 11 1 -255 -16 -115 -32 -230
-35 -255 -4 -34 15 3 75 150 99 236 104 253 96 307 -4 35 -3 43 10 43 17 0 74
-53 74 -68 0 -6 -13 -22 -30 -35 -16 -14 -30 -33 -30 -42 0 -14 91 -489 118
-615 7 -33 40 116 123 558 l12 63 -33 34 c-31 32 -32 33 -15 59 16 24 44 46
60 46 3 0 5 -21 4 -47 -1 -39 14 -88 81 -255 46 -114 85 -206 87 -204 2 1 -13
117 -32 257 -19 140 -35 255 -35 257 0 1 16 2 36 2 36 0 36 0 30 -36 -4 -19
-9 -41 -12 -48 -5 -13 73 -112 241 -306 50 -58 101 -118 113 -134 35 -46 31
-21 -42 224 -76 257 -98 323 -122 357 -31 46 -30 73 4 105 30 28 108 62 123
53 5 -4 9 -16 9 -29 0 -21 20 -30 223 -101 122 -43 229 -80 237 -82 8 -3 -68
77 -170 177 -176 172 -187 181 -217 175 l-32 -6 6 93 c4 62 2 90 -5 83 -5 -5
-13 -54 -16 -108 l-7 -98 43 6 43 6 145 -141 c80 -77 134 -136 120 -129 -72
33 -353 215 -370 239 -24 34 -26 96 -5 166 29 95 12 134 -59 134 -77 0 -94
-31 -51 -90 44 -59 31 -123 -47 -231 -70 -96 -77 -69 -11 42 43 72 54 140 28
169 -20 22 -67 27 -82 8 -13 -16 -25 -97 -24 -158 l1 -45 -21 40 c-12 22 -26
41 -30 43 -5 2 -9 30 -9 61 0 45 7 71 31 119 38 72 50 148 25 158 -25 10 -19
49 14 84 26 28 35 32 70 28 44 -4 55 8 40 46 -11 29 -47 56 -76 56 -29 0 -69
-33 -84 -70 -16 -39 -23 -38 -39 6 -9 25 -23 40 -47 50 -46 19 -52 18 -85 -17
-16 -17 -29 -27 -29 -21 0 6 -3 18 -7 28 -5 13 -3 16 10 11 11 -4 23 5 38 30
22 35 22 38 15 337 -4 166 -8 313 -10 327 -3 13 -10 97 -16 187 -7 89 -14 161
-17 159 -2 -2 -5 -186 -6 -408 -2 -289 -7 -417 -16 -449 -7 -25 -16 -73 -19
-107 -4 -34 -10 -64 -13 -67 -3 -4 -9 60 -12 141 -11 236 -30 395 -66 546 -17
70 -19 67 -50 -90 -22 -106 -51 -408 -51 -526 0 -37 -4 -66 -8 -63 -5 3 -12
153 -15 333 -6 314 -19 550 -37 658 -4 28 -8 39 -9 25z m208 -810 c0 -69 -4
-147 -8 -175 -6 -35 -9 4 -10 135 0 102 -3 230 -6 285 l-4 100 14 -110 c8 -60
14 -166 14 -235z m8 -322 c-2 -18 -4 -4 -4 32 0 36 2 50 4 33 2 -18 2 -48 0
-65z m-255 -39 c5 -24 10 -84 12 -134 l5 -90 -35 55 c-19 30 -34 66 -34 81 0
15 -7 32 -15 39 -22 18 -18 48 10 76 34 34 48 27 57 -27z m450 24 c22 -20 23
-56 3 -73 -8 -7 -15 -23 -15 -37 0 -33 -63 -147 -73 -132 -2 2 1 47 5 99 5 52
9 110 10 128 1 27 5 32 26 32 14 0 34 -7 44 -17z m-342 -88 c0 -25 5 -37 18
-42 19 -7 52 -43 51 -58 0 -5 -5 -2 -12 7 -7 9 -29 18 -48 20 -29 3 -34 7 -37
32 -4 36 5 76 18 76 6 0 10 -16 10 -35z m150 -13 c0 -26 -25 -5 -28 24 -2 28
-2 28 13 10 8 -11 15 -26 15 -34z m45 -8 l0 -49 -37 -3 c-21 -2 -38 -8 -38
-14 0 -6 -3 -9 -6 -6 -11 12 17 48 36 48 17 0 20 7 20 41 0 28 4 39 13 37 7
-3 12 -23 12 -54z m-397 -56 c8 -19 8 -29 1 -34 -14 -8 -18 -3 -28 34 -16 53
4 53 27 0z m139 10 c-3 -7 -5 -2 -5 12 0 14 2 19 5 13 2 -7 2 -19 0 -25z m473
17 c0 -9 -7 -32 -15 -53 -22 -51 -38 -24 -17 29 15 39 32 52 32 24z m-170 -10
c0 -8 -4 -15 -10 -15 -5 0 -7 7 -4 15 4 8 8 15 10 15 2 0 4 -7 4 -15z m-141
-74 c-1 -23 -17 -60 -18 -41 -1 8 -4 24 -7 36 -4 14 -1 21 10 21 9 0 16 -7 15
-16z m-126 -33 c9 -23 15 -43 13 -46 -6 -5 -32 38 -41 66 -11 39 11 23 28 -20z
m232 -24 c-25 -38 -31 -20 -9 28 16 36 19 39 22 20 2 -13 -4 -35 -13 -48z
m-335 2 c0 -17 -14 -29 -23 -20 -8 8 3 34 14 34 5 0 9 -6 9 -14z m450 -11 c0
-8 -7 -15 -15 -15 -16 0 -20 12 -8 23 11 12 23 8 23 -8z m-531 -82 c1 -18 -3
-33 -9 -33 -5 0 -10 24 -9 53 0 38 3 47 9 32 5 -11 9 -35 9 -52z m143 40 c18
-16 25 -43 11 -43 -16 1 -43 28 -43 44 0 20 9 20 32 -1z m338 5 c0 -14 -30
-48 -42 -48 -13 0 -9 22 9 42 18 21 33 23 33 6z m-108 -23 c-4 -26 -22 -35
-22 -12 0 10 18 37 26 37 1 0 -1 -11 -4 -25z m224 -33 c-12 -12 -18 8 -10 35
l8 28 4 -28 c2 -16 1 -31 -2 -35z m-356 12 c0 -8 -4 -12 -10 -9 -5 3 -10 13
-10 21 0 8 5 12 10 9 6 -3 10 -13 10 -21z m275 -141 c-24 -77 -29 -60 -8 28
11 47 19 65 21 50 2 -13 -4 -48 -13 -78z m-434 9 c10 -36 16 -68 14 -71 -3 -2
-7 2 -9 10 -2 8 -11 36 -20 63 -9 27 -16 56 -16 64 0 30 14 0 31 -66z m63 -34
c11 -24 32 -23 39 1 4 16 10 19 33 12 22 -6 29 -13 29 -32 0 -19 -4 -23 -23
-21 -13 2 -29 -1 -35 -7 -17 -14 -52 16 -65 56 -6 18 -8 50 -4 70 l7 38 6 -50
c3 -27 9 -58 13 -67z m322 17 c-4 -18 -17 -42 -30 -54 -20 -19 -25 -20 -36 -7
-8 11 -17 13 -30 6 -20 -11 -30 -4 -30 22 0 11 11 23 26 28 33 13 31 13 37
-11 5 -17 9 -19 26 -10 21 12 38 71 26 90 -3 6 -3 17 2 24 10 16 17 -46 9 -88z
m-236 75 c0 -5 -7 -10 -15 -10 -7 0 -19 -8 -24 -17 -9 -16 -10 -15 -11 5 0 13
4 21 9 17 5 -3 12 -1 16 5 8 13 25 13 25 0z m171 0 c5 0 9 -10 9 -22 -1 -21
-2 -21 -11 -5 -5 9 -17 17 -24 17 -8 0 -15 5 -15 11 0 6 7 8 16 5 9 -3 20 -6
25 -6z m-438 -70 c18 -35 4 -52 -18 -24 -16 21 -19 37 -8 47 10 10 10 10 26
-23z m660 -56 c-9 -23 -23 -16 -23 12 0 22 2 24 14 14 8 -6 12 -18 9 -26z
m-710 -29 c4 -8 2 -17 -3 -20 -6 -4 -10 -4 -10 -1 0 2 -3 11 -6 20 -3 9 -2 16
4 16 5 0 12 -7 15 -15z m667 5 c0 -5 -5 -10 -11 -10 -5 0 -7 5 -4 10 3 6 8 10
11 10 2 0 4 -4 4 -10z m110 -72 c0 -11 -5 -15 -15 -12 -15 6 -20 35 -8 47 9 9
23 -13 23 -35z m-737 -130 l6 -112 -117 -143 c-158 -195 -162 -199 -162 -189
0 5 17 41 39 80 142 262 201 386 201 423 0 38 6 53 20 53 4 0 10 -50 13 -112z
m-103 95 c-1 -10 -39 -60 -40 -51 0 14 23 58 32 58 4 0 8 -3 8 -7z m843 -37
c13 -27 30 -43 62 -57 25 -11 45 -22 45 -24 0 -3 30 -102 66 -221 36 -119 64
-218 62 -220 -2 -2 -46 75 -98 172 -174 321 -189 351 -183 374 8 29 25 20 46
-24z m-385 -71 c-11 -25 -13 -25 -25 -9 -18 24 -16 39 2 24 12 -10 16 -9 21 4
4 9 8 15 11 13 2 -3 -2 -17 -9 -32z m-202 -17 c-3 -13 -27 -107 -53 -210 -26
-103 -49 -186 -51 -183 -4 4 46 377 54 403 2 6 15 12 30 12 22 0 25 -3 20 -22z
m384 -15 c24 -88 89 -367 86 -370 -2 -2 -11 18 -21 44 -10 27 -38 99 -62 162
-38 97 -44 122 -38 158 8 53 21 55 35 6z m-109 -94 l20 -28 -36 -178 c-35
-172 -53 -234 -41 -143 27 219 31 338 11 385 -8 18 -7 19 9 6 9 -8 26 -27 37
-42z m-384 -321 c-3 -8 -6 -5 -6 6 -1 11 2 17 5 13 3 -3 4 -12 1 -19z"/>
<path d="M1537 2878 c-39 -216 -49 -282 -61 -398 -8 -74 -17 -229 -21 -345
l-6 -210 51 -32 51 -32 49 32 49 32 0 115 c1 172 -17 438 -39 585 -25 160 -51
285 -60 285 -4 0 -10 -15 -13 -32z m44 -138 c6 -36 12 -81 14 -100 3 -19 7
-48 10 -65 11 -67 25 -270 31 -436 l6 -176 -40 -32 c-22 -17 -43 -31 -46 -31
-3 0 -6 217 -5 483 1 475 4 514 30 357z"/>
<path d="M896 2813 c-39 -214 -56 -363 -66 -573 -14 -311 -14 -318 8 -324 9
-3 33 -20 51 -37 l34 -30 26 24 c14 14 37 30 50 37 l24 12 -7 212 c-4 116 -11
258 -17 316 -11 119 -50 372 -56 366 -2 -2 5 -68 16 -147 27 -192 40 -361 44
-552 l4 -158 -38 -29 c-20 -17 -40 -30 -43 -30 -3 0 -6 217 -5 483 0 312 4
475 10 462 8 -17 9 -17 4 5 -2 14 -5 31 -5 38 0 6 -4 12 -9 12 -5 0 -16 -39
-25 -87z"/>
<path d="M1063 2700 c0 -25 2 -35 4 -22 2 12 2 32 0 45 -2 12 -4 2 -4 -23z"/>
<path d="M1362 2700 c0 -19 2 -27 5 -17 2 9 2 25 0 35 -3 9 -5 1 -5 -18z"/>
<path d="M1353 2575 c0 -27 2 -38 4 -22 2 15 2 37 0 50 -2 12 -4 0 -4 -28z"/>
<path d="M1053 2560 c0 -30 2 -43 4 -27 2 15 2 39 0 55 -2 15 -4 2 -4 -28z"/>
<path d="M1044 2320 c0 -74 1 -105 3 -67 2 37 2 97 0 135 -2 37 -3 6 -3 -68z"/>
<path d="M1343 2330 c0 -47 2 -66 4 -42 2 23 2 61 0 85 -2 23 -4 4 -4 -43z"/>
</g>
</svg>
