<?xml version="1.0" standalone="no"?>
<!DOCTYPE svg PUBLIC "-//W3C//DTD SVG 20010904//EN"
 "http://www.w3.org/TR/2001/REC-SVG-20010904/DTD/svg10.dtd">
<svg version="1.0" xmlns="http://www.w3.org/2000/svg"
 width="244.000000pt" height="305.000000pt" viewBox="0 0 244.000000 305.000000"
 preserveAspectRatio="xMidYMid meet">
<metadata>
Created by potrace 1.16, written by Peter Selinger 2001-2019
</metadata>
<g transform="translate(0.000000,305.000000) scale(0.100000,-0.100000)"
fill="#000000" stroke="none">
<path d="M967 2797 c-32 -210 -46 -382 -53 -629 -5 -173 -4 -248 4 -248 6 0
23 -13 39 -30 15 -16 36 -30 45 -30 10 0 18 -6 18 -14 0 -25 -21 -29 -36 -8
-8 12 -31 23 -56 27 -36 6 -44 4 -60 -15 -10 -12 -18 -34 -18 -49 0 -23 6 -28
43 -38 31 -9 47 -20 55 -38 15 -33 15 -65 1 -65 -25 0 -3 -123 36 -201 l37
-74 -18 -33 c-21 -39 -34 -27 -34 33 0 48 -14 65 -50 65 -24 0 -26 3 -22 32 6
41 -17 58 -79 58 -80 0 -91 -26 -64 -150 18 -83 18 -90 0 -90 -17 0 -22 17
-34 115 l-8 70 -2 -98 c-1 -89 -3 -98 -18 -93 -10 3 -23 2 -29 -2 -18 -12
-217 -255 -273 -334 -14 -20 -14 -20 25 -3 94 40 95 41 88 20 -4 -8 -3 -15 0
-15 16 0 292 144 303 159 11 14 16 12 43 -19 16 -19 30 -43 30 -52 0 -9 3 -23
6 -31 5 -14 -2 -24 -38 -50 -11 -8 -30 -71 -58 -192 -23 -99 -52 -227 -66
-284 -14 -57 -23 -105 -21 -107 2 -2 17 16 33 42 l29 46 5 -29 c5 -27 8 -24
51 47 26 41 66 109 90 150 24 41 51 89 61 105 56 96 60 106 50 146 -5 21 -7
41 -4 44 3 3 23 5 45 5 45 0 90 -23 108 -57 11 -20 9 -27 -11 -56 l-24 -32 44
-305 c39 -274 56 -375 59 -345 1 6 17 111 35 235 63 414 63 413 36 450 -20 28
-21 34 -9 57 18 33 59 53 109 53 46 0 57 -15 42 -57 -6 -18 -6 -38 0 -53 9
-24 109 -197 190 -327 21 -34 38 -67 38 -72 0 -4 7 -15 16 -22 15 -12 16 -10
9 29 -8 51 -1 54 21 7 15 -33 39 -50 29 -22 -2 6 -23 95 -45 197 -79 353 -81
360 -104 360 -44 0 -30 96 21 137 35 29 51 29 55 1 2 -17 37 -38 158 -99 85
-43 156 -79 158 -79 2 0 0 10 -3 22 -6 18 -4 20 11 13 11 -4 28 -10 39 -13 22
-6 26 -12 -46 80 -176 225 -205 258 -226 258 -22 0 -23 4 -23 82 0 45 -2 79
-4 77 -2 -2 -7 -38 -10 -79 -4 -41 -12 -79 -18 -85 -7 -7 -9 22 -4 99 8 129 0
146 -69 146 -52 0 -70 -18 -61 -60 6 -30 5 -31 -32 -28 l-37 3 -9 -67 c-5 -38
-12 -68 -15 -68 -4 0 -15 14 -25 31 l-18 31 37 78 c38 83 57 181 36 194 -17
11 -12 58 8 84 14 15 30 22 56 22 38 0 38 0 32 36 -8 47 -22 62 -65 70 -32 6
-39 4 -64 -27 -15 -18 -28 -29 -28 -23 0 21 -42 54 -69 54 -31 0 -50 -26 -54
-75 -2 -28 1 -30 38 -35 32 -4 41 -10 49 -33 7 -20 7 -34 -2 -47 -7 -11 -12
-33 -12 -48 0 -38 -55 -146 -86 -171 -29 -23 -45 -81 -21 -81 17 0 56 36 105
95 l33 40 -20 -40 c-20 -41 -65 -89 -113 -118 l-28 -17 0 47 c0 82 17 123 56
139 39 17 42 24 14 49 -34 31 -71 10 -96 -54 l-22 -53 -17 52 c-21 63 -51 82
-90 56 -33 -21 -32 -35 4 -47 15 -6 33 -21 39 -34 13 -29 27 -145 18 -145 -29
0 -109 68 -132 112 -23 43 -16 43 21 -2 40 -48 78 -80 94 -80 20 0 11 39 -17
72 -40 47 -80 123 -87 166 -4 20 -11 47 -17 58 -7 16 -6 29 3 50 11 23 22 30
52 32 34 3 37 6 37 33 0 44 -42 83 -81 75 -35 -7 -38 8 -5 29 23 15 39 48 29
59 -3 2 -5 91 -6 198 -1 175 -1 181 -6 68 l-5 -125 -7 140 c-5 120 -6 111 -4
-67 2 -183 0 -209 -15 -223 -9 -8 -20 -15 -23 -15 -4 0 -7 158 -7 350 0 356
11 451 26 233 6 -73 10 -101 12 -73 2 25 -4 108 -13 184 -10 76 -15 158 -12
181 4 23 2 55 -2 71 -8 27 -9 26 -15 -21 -11 -78 -16 -86 -11 -18 8 104 -10
79 -28 -40z m435 -1542 l-3 -68 40 6 c45 6 51 -1 21 -28 -18 -16 -22 -17 -54
-1 -45 21 -67 20 -73 -4 -5 -18 -7 -18 -34 -4 -37 19 -38 51 -3 64 23 9 26 15
21 45 -5 29 -3 35 12 35 9 0 26 7 37 15 32 24 39 12 36 -60z m-283 53 c37 -12
38 -13 33 -50 -3 -29 -1 -38 10 -38 22 0 40 -24 32 -43 -9 -24 -45 -33 -56
-13 -11 20 -35 20 -72 1 -28 -15 -31 -14 -50 5 l-20 20 30 0 c43 0 53 14 43
58 -18 76 -14 80 50 60z m781 -168 c54 -69 97 -127 94 -129 -2 -2 -17 7 -34
20 -30 24 -180 217 -180 232 0 22 28 -8 120 -123z m-108 73 c17 -27 38 -54 45
-61 25 -26 13 -33 -18 -11 -47 33 -109 94 -109 107 0 7 11 12 25 12 18 0 33
-13 57 -47z m-1068 -69 c9 -24 9 -23 -40 -44 -62 -27 -63 -26 -18 19 45 45 50
47 58 25z m66 -9 c0 -2 -9 -9 -20 -15 -18 -9 -20 -8 -20 15 0 23 2 24 20 15
11 -6 20 -13 20 -15z m-220 -65 c-29 -40 -69 -70 -94 -70 -19 0 -18 3 9 24 17
13 44 36 60 50 40 35 51 33 25 -4z m634 -44 c4 -30 13 -62 21 -72 13 -18 14
-17 25 10 6 16 14 49 17 73 3 24 9 43 14 43 10 0 1 -62 -17 -119 -20 -63 -18
-78 15 -130 l30 -46 -34 -225 -33 -225 -1 282 c-1 281 -1 282 -26 329 -14 26
-25 64 -25 85 0 20 -6 40 -12 42 -8 4 -7 6 3 6 13 1 18 -12 23 -53z m313 -38
c-3 -7 -5 -2 -5 12 0 14 2 19 5 13 2 -7 2 -19 0 -25z m28 -38 c3 -5 14 -10 24
-10 14 0 22 -20 40 -106 13 -58 21 -108 18 -110 -2 -3 -24 42 -47 98 -24 57
-47 107 -52 113 -4 5 -8 13 -8 17 0 11 18 10 25 -2z m79 -27 c6 -20 26 -106
61 -263 13 -58 27 -113 30 -122 4 -10 3 -18 -3 -18 -14 0 -56 139 -83 280 -12
63 -24 121 -27 128 -2 6 1 12 6 12 6 0 13 -8 16 -17z m-650 -44 c4 -20 -6 -46
-46 -112 -28 -48 -53 -85 -55 -84 -1 2 11 41 28 88 17 46 36 99 41 118 10 36
22 32 32 -10z m-115 -293 c-34 -63 -50 -71 -22 -10 18 39 44 76 50 70 2 -1
-11 -28 -28 -60z m-79 -55 c-30 -59 -33 -50 -7 21 15 41 23 54 25 41 2 -12 -6
-40 -18 -62z m893 -13 c9 -31 2 -33 -11 -3 -6 14 -8 25 -3 25 5 0 11 -10 14
-22z"/>
<path d="M1447 2865 c-34 -212 -57 -524 -57 -781 l0 -162 41 -36 40 -37 38 33
c21 18 41 42 44 53 2 11 1 112 -3 225 l-7 205 -3 -215 c-2 -137 -6 -195 -10
-160 l-7 55 -1 -47 c-2 -37 -7 -50 -23 -58 l-20 -11 3 475 c2 358 0 476 -9
476 -6 0 -13 6 -16 13 -2 6 -7 -6 -10 -28z"/>
<path d="M1502 2730 c0 -14 3 -45 7 -70 6 -34 9 -37 9 -15 1 17 -3 48 -7 70
-6 25 -9 31 -9 15z"/>
<path d="M1042 2680 c0 -14 2 -19 5 -12 2 6 2 18 0 25 -3 6 -5 1 -5 -13z"/>
<path d="M1493 2620 c0 -25 2 -35 4 -22 2 12 2 32 0 45 -2 12 -4 2 -4 -23z"/>
<path d="M1053 2585 c0 -22 2 -30 4 -17 2 12 2 30 0 40 -3 9 -5 -1 -4 -23z"/>
<path d="M1221 2554 c-17 -78 -41 -325 -48 -499 l-7 -160 -12 92 c-6 51 -14
100 -18 109 -14 36 -27 -4 -34 -104 l-8 -102 29 -28 c24 -23 28 -33 25 -77 -3
-48 -4 -50 -31 -47 -34 4 -44 -17 -27 -58 14 -34 52 -41 69 -12 9 14 10 11 11
-18 0 -24 6 -39 19 -47 11 -7 25 -29 32 -50 l12 -38 18 43 c10 23 25 45 34 48
10 4 15 20 15 47 0 40 0 41 16 19 23 -33 50 -28 64 13 14 42 6 59 -25 51 -44
-11 -50 75 -9 124 26 31 27 33 20 133 -6 91 -16 130 -31 116 -2 -3 -11 -55
-19 -115 -12 -98 -14 -103 -15 -49 -6 259 -39 604 -61 644 -5 10 -11 -2 -19
-35z m55 -587 c7 -317 7 -318 -14 -338 l-22 -20 1 443 c1 416 2 437 15 338 7
-58 16 -248 20 -423z"/>
<path d="M1523 2555 c-1 -27 3 -79 7 -115 l7 -65 0 55 c1 30 -3 82 -7 115 l-7
60 0 -50z"/>
<path d="M1508 2380 c3 -102 6 -187 8 -189 7 -8 2 253 -6 314 -4 33 -5 -23 -2
-125z"/>
<path d="M1063 2450 c0 -36 2 -50 4 -32 2 17 2 47 0 65 -2 17 -4 3 -4 -33z"/>
</g>
</svg>
