<?xml version="1.0" standalone="no"?>
<!DOCTYPE svg PUBLIC "-//W3C//DTD SVG 20010904//EN"
 "http://www.w3.org/TR/2001/REC-SVG-20010904/DTD/svg10.dtd">
<svg version="1.0" xmlns="http://www.w3.org/2000/svg"
 width="244.000000pt" height="305.000000pt" viewBox="0 0 244.000000 305.000000"
 preserveAspectRatio="xMidYMid meet">
<metadata>
Created by potrace 1.16, written by Peter Selinger 2001-2019
</metadata>
<g transform="translate(0.000000,305.000000) scale(0.100000,-0.100000)"
fill="#000000" stroke="none">
<path d="M1558 2888 c-68 -307 -82 -426 -94 -779 -6 -186 -6 -187 15 -194 12
-4 37 -20 56 -36 33 -29 34 -29 52 -11 10 10 33 27 52 38 l34 19 -6 215 c-8
266 -19 379 -58 590 -30 165 -42 202 -51 158z m8 -985 c-2 -3 -23 8 -45 23
l-41 27 0 147 c0 225 19 428 61 665 6 33 14 69 18 80 3 11 7 -196 9 -459 1
-264 0 -481 -2 -483z"/>
<path d="M891 2877 c-14 -35 -15 -73 -1 -42 5 12 9 -182 9 -458 1 -263 -2
-477 -6 -475 -5 2 -25 14 -47 27 l-39 25 7 169 c8 212 21 363 47 541 11 76 18
140 16 142 -6 6 -37 -171 -53 -301 -8 -66 -17 -224 -21 -352 l-6 -232 24 -10
c13 -5 37 -22 52 -36 l29 -27 26 24 c15 13 40 32 56 42 l29 18 -7 167 c-13
339 -46 610 -90 761 l-14 45 -11 -28z"/>
<path d="M1126 2793 c-3 -60 -9 -254 -13 -433 -5 -275 -8 -319 -18 -285 -8 26
-14 35 -18 25 -14 -33 -27 -108 -27 -158 0 -43 4 -57 22 -71 14 -12 19 -24 15
-35 -7 -16 -9 -16 -26 5 -38 47 -129 18 -145 -47 -7 -26 -26 -33 -26 -10 0 8
-12 28 -26 45 -21 26 -33 31 -68 31 -48 0 -86 -30 -86 -68 0 -19 6 -22 37 -22
41 0 96 -33 112 -66 8 -18 5 -27 -10 -46 -17 -18 -19 -31 -14 -63 7 -50 37
-112 76 -161 16 -20 29 -42 29 -48 0 -6 -13 -26 -30 -44 -58 -64 -50 -122 20
-143 41 -13 44 -16 34 -43 -9 -23 -28 -20 -64 10 -42 36 -59 72 -58 125 0 24
-4 69 -9 99 -7 51 -10 55 -36 58 -16 2 -39 -4 -53 -13 -20 -13 -24 -24 -24
-63 0 -39 8 -61 46 -121 83 -134 104 -183 98 -227 -6 -37 -282 -540 -291 -530
-3 2 27 103 66 223 l70 218 46 14 c54 16 65 36 65 112 0 58 -15 90 -81 176
-46 60 -66 114 -60 158 1 11 14 40 28 64 l26 44 -23 19 c-30 24 -101 24 -123
0 -23 -25 -21 -62 4 -142 l22 -66 -20 -45 c-18 -41 -32 -53 -129 -111 -226
-136 -311 -178 -253 -126 13 12 77 71 142 131 l117 109 46 -7 46 -6 -7 93
c-10 127 -27 151 -22 30 l3 -92 -32 6 c-31 6 -42 -2 -216 -162 -101 -93 -184
-172 -186 -176 -7 -15 23 -6 248 70 201 69 225 80 228 100 5 34 25 37 85 9 55
-25 91 -63 102 -108 7 -29 -6 -43 -46 -52 -20 -5 -29 -16 -37 -44 -5 -21 -44
-148 -85 -283 -64 -206 -81 -272 -64 -249 5 6 233 263 315 353 76 85 75 83 56
159 l-6 27 87 0 87 0 -6 -88 c-4 -48 -14 -154 -22 -236 -8 -82 -14 -163 -13
-180 l1 -31 9 30 c5 17 7 38 5 48 -2 9 -1 15 3 13 3 -3 20 46 35 107 16 62 31
107 33 102 1 -6 28 -134 58 -285 31 -151 57 -276 59 -277 2 -3 67 305 103 491
10 48 19 73 23 65 4 -8 22 -72 40 -144 31 -128 50 -179 36 -100 -4 22 -7 63
-7 90 0 33 -2 44 -8 31 -5 -12 -17 42 -35 157 -16 96 -25 180 -21 186 14 23
24 9 28 -36 l3 -48 2 53 2 52 86 0 87 0 -8 -32 c-4 -18 -9 -42 -11 -53 -3 -15
28 -57 117 -155 66 -74 155 -174 197 -222 42 -48 77 -86 79 -84 7 6 -165 556
-178 572 -5 7 -23 14 -40 18 -29 5 -30 8 -24 38 11 48 40 84 88 107 60 29 90
31 95 6 2 -11 8 -24 12 -29 11 -11 474 -165 480 -159 3 3 -3 11 -13 18 -10 7
-48 42 -85 76 -239 226 -273 254 -310 254 l-36 0 1 95 c1 90 1 92 -8 40 -5
-30 -14 -75 -21 -100 -20 -84 -29 -74 184 -209 109 -68 196 -126 195 -128 -4
-4 -222 72 -312 109 -41 16 -59 29 -56 39 13 49 12 55 -13 67 -39 17 -51 77
-31 150 36 131 36 125 16 152 -24 34 -96 40 -131 12 l-24 -20 27 -41 c48 -73
35 -146 -43 -241 -52 -63 -77 -116 -85 -181 -8 -65 -7 -67 157 -363 54 -98 97
-180 95 -182 -3 -3 -243 274 -284 329 -12 17 -19 35 -16 40 3 6 9 58 13 116
l6 106 72 121 c61 103 72 127 72 167 0 36 -5 49 -22 61 -27 19 -62 21 -75 4
-13 -16 -25 -86 -27 -154 -1 -56 -38 -116 -83 -137 -21 -9 -27 -8 -39 8 -20
27 -17 35 10 35 33 0 86 46 86 74 0 13 -17 44 -37 70 -41 53 -43 42 18 132 27
40 59 125 59 154 0 9 -9 27 -20 40 -18 20 -18 25 -4 51 21 41 56 61 101 57 34
-3 38 -1 41 22 3 35 -27 70 -68 76 -43 7 -85 -22 -107 -74 -11 -27 -17 -32
-24 -21 -5 8 -9 21 -9 30 0 23 -41 58 -76 65 -24 4 -37 0 -62 -21 -30 -26 -32
-26 -32 -6 0 11 9 26 20 33 15 10 20 24 20 57 0 60 -20 171 -31 171 -10 0 -27
-59 -39 -138 -5 -30 -12 -57 -15 -60 -3 -4 -4 208 -3 470 3 502 -7 619 -18
207 -7 -250 -16 -317 -28 -213 -4 33 -16 100 -28 149 l-21 90 -13 -38 c-7 -20
-21 -76 -30 -123 -11 -54 -20 -81 -25 -72 -5 7 -9 -50 -10 -132 -1 -80 -5
-185 -9 -235 -4 -55 -7 101 -8 398 0 269 -2 490 -5 493 -2 2 -7 -44 -11 -103z
m86 -658 c-5 -148 -10 -226 -10 -172 -1 61 -6 97 -13 97 -10 0 -9 -67 7 -262
4 -64 3 -77 -8 -73 -11 4 -13 -3 -10 -30 5 -39 18 -47 25 -12 2 12 5 3 6 -20
1 -36 -1 -41 -16 -36 -10 4 -21 11 -25 16 -11 17 -2 121 10 125 16 5 15 61 -1
92 -19 38 1 411 31 570 l6 35 3 -30 c2 -16 -1 -151 -5 -300z m-107 -391 c0
-20 -24 -24 -57 -9 -14 6 -18 2 -18 -17 0 -51 48 -86 78 -56 9 9 12 2 12 -35
0 -36 -4 -47 -16 -47 -9 0 -29 -14 -44 -30 l-28 -30 -21 26 c-12 15 -26 45
-33 68 -6 22 -17 48 -25 57 -21 25 -16 45 18 74 27 22 39 25 83 22 42 -4 51
-8 51 -23z m388 6 c33 -27 43 -57 24 -78 -8 -9 -17 -30 -21 -47 -13 -56 -76
-133 -76 -93 0 19 -31 48 -52 48 -15 0 -18 8 -18 45 0 42 2 45 19 35 26 -13
46 -5 60 26 17 38 14 58 -6 49 -45 -19 -63 -18 -63 3 0 34 94 42 133 12z
m-559 -182 c14 -29 44 -70 66 -92 22 -21 40 -47 40 -57 0 -11 -2 -19 -5 -19
-16 0 -90 81 -111 122 -21 41 -32 98 -20 98 3 0 16 -24 30 -52z m611 -47 c-15
-27 -45 -66 -66 -87 -37 -36 -39 -37 -39 -15 0 13 16 41 35 62 19 21 47 62 62
91 26 49 28 51 31 26 2 -17 -8 -48 -23 -77z m-357 65 c3 -12 -1 -17 -10 -14
-7 3 -15 13 -16 22 -3 12 1 17 10 14 7 -3 15 -13 16 -22z m122 15 c0 -17 -12
-41 -20 -41 -15 0 -21 33 -8 42 17 10 28 10 28 -1z m-183 -105 c6 -19 8 -38 4
-44 -11 -18 -43 15 -47 48 -5 45 29 42 43 -4z m110 -13 c-3 -10 -5 -2 -5 17 0
19 2 27 5 18 2 -10 2 -26 0 -35z m147 15 c-6 -30 -28 -57 -47 -58 -7 0 -4 24
10 73 2 9 13 17 24 17 18 0 20 -4 13 -32z m-217 -60 c-3 -8 -6 -5 -6 6 -1 11
2 17 5 13 3 -3 4 -12 1 -19z m260 -40 c-3 -7 -5 -2 -5 12 0 14 2 19 5 13 2 -7
2 -19 0 -25z m-350 -10 c-3 -8 -6 -5 -6 6 -1 11 2 17 5 13 3 -3 4 -12 1 -19z
m323 2 c0 -5 -4 -10 -10 -10 -5 0 -10 5 -10 10 0 6 5 10 10 10 6 0 10 -4 10
-10z m-253 -23 c-6 -20 -27 -19 -27 2 0 14 5 19 15 14 9 -3 14 -10 12 -16z
m199 -3 c-5 -14 -9 -15 -19 -5 -9 9 -9 14 3 21 18 11 24 6 16 -16z m-332 -30
c9 -3 16 -15 16 -26 0 -10 -4 -16 -10 -13 -5 3 -12 -6 -16 -20 -9 -38 -24 -30
-24 13 0 49 6 57 34 46z m474 -32 c2 -17 -1 -39 -6 -48 -8 -15 -11 -12 -17 14
-3 18 -11 32 -16 32 -14 0 -11 28 4 33 22 9 32 1 35 -31z m-449 -89 c-6 -24
-16 -43 -20 -43 -12 0 -11 11 6 40 8 14 15 48 16 75 2 47 3 48 6 10 3 -21 -1
-58 -8 -82z m141 96 c0 -5 -4 -9 -10 -9 -5 0 -10 7 -10 16 0 8 5 12 10 9 6 -3
10 -10 10 -16z m264 -43 c8 3 18 -15 29 -53 8 -32 15 -59 13 -60 -1 -1 -12 4
-24 13 -25 17 -43 73 -40 129 l1 40 4 -37 c3 -25 8 -35 17 -32z m-134 44 c0
-5 -4 -10 -10 -10 -5 0 -10 5 -10 10 0 6 5 10 10 10 6 0 10 -4 10 -10z m65
-85 c-14 -47 -14 -48 -10 -10 9 68 19 103 22 80 2 -11 -4 -42 -12 -70z m-267
-40 c1 -37 -16 17 -22 71 l-5 49 13 -50 c8 -27 14 -59 14 -70z m55 19 c8 19
27 12 27 -9 0 -18 -39 -40 -50 -28 -4 4 -10 22 -14 38 l-7 30 19 -24 c17 -21
20 -21 25 -7z m177 -5 c-12 -39 -13 -41 -34 -33 -9 3 -16 17 -16 31 0 22 2 24
16 12 13 -11 17 -10 25 4 15 26 19 20 9 -14z m17 -51 c-3 -8 -6 -5 -6 6 -1 11
2 17 5 13 3 -3 4 -12 1 -19z m-114 -225 c-5 -12 -7 -12 -14 -1 -13 20 -11 28
5 22 8 -3 12 -12 9 -21z m-113 -57 c0 -39 -18 -76 -36 -76 -5 0 1 44 12 98 8
39 24 24 24 -22z m33 -13 c-9 -24 -23 -13 -23 19 0 30 1 30 14 13 8 -11 12
-25 9 -32z m162 6 c-7 -20 -8 -21 -17 -4 -8 12 -7 20 3 26 18 11 22 5 14 -22z
m-120 -116 c0 -71 3 -191 7 -268 l7 -140 -23 110 c-42 196 -66 317 -66 331 0
11 66 94 74 94 1 0 1 -57 1 -127z m-121 -104 c-16 -59 -30 -107 -32 -105 -3 3
22 170 34 226 5 23 6 23 16 6 8 -13 3 -46 -18 -127z"/>
<path d="M1343 2655 c0 -22 2 -30 4 -17 2 12 2 30 0 40 -3 9 -5 -1 -4 -23z"/>
<path d="M1153 2625 c0 -22 2 -30 4 -17 2 12 2 30 0 40 -3 9 -5 -1 -4 -23z"/>
<path d="M1354 2330 c0 -63 1 -89 3 -57 2 31 2 83 0 115 -2 31 -3 5 -3 -58z"/>
<path d="M1403 775 c0 -22 2 -30 4 -17 2 12 2 30 0 40 -3 9 -5 -1 -4 -23z"/>
<path d="M1412 660 c0 -19 2 -27 5 -17 2 9 2 25 0 35 -3 9 -5 1 -5 -18z"/>
</g>
</svg>
