<?xml version="1.0" standalone="no"?>
<!DOCTYPE svg PUBLIC "-//W3C//DTD SVG 20010904//EN"
 "http://www.w3.org/TR/2001/REC-SVG-20010904/DTD/svg10.dtd">
<svg version="1.0" xmlns="http://www.w3.org/2000/svg"
 width="244.000000pt" height="305.000000pt" viewBox="0 0 244.000000 305.000000"
 preserveAspectRatio="xMidYMid meet">
<metadata>
Created by potrace 1.16, written by Peter Selinger 2001-2019
</metadata>
<g transform="translate(0.000000,305.000000) scale(0.100000,-0.100000)"
fill="#000000" stroke="none">
<path d="M907 2903 c-14 -23 -65 -328 -76 -453 -17 -200 -25 -530 -13 -530 6
0 31 -15 55 -34 45 -34 45 -34 63 -15 10 11 31 28 46 37 l28 16 0 181 c0 99
-7 250 -15 335 -14 150 -53 385 -62 377 -2 -3 5 -61 17 -130 27 -167 47 -399
49 -583 l2 -151 -40 -26 c-22 -15 -43 -27 -46 -27 -3 0 -5 219 -4 488 1 268 5
476 9 462 6 -20 8 -21 8 -5 0 35 -13 71 -21 58z"/>
<path d="M1361 2894 c0 -11 3 -14 6 -6 3 7 2 16 -1 19 -3 4 -6 -2 -5 -13z"/>
<path d="M1101 2504 c-1 -349 -3 -401 -16 -401 -11 0 -15 12 -16 41 -1 23 -6
-24 -10 -104 l-9 -145 30 -26 c24 -21 30 -33 29 -65 -1 -21 -3 -30 -6 -19 -13
59 -24 73 -66 79 -49 8 -83 -12 -108 -64 l-16 -34 -16 30 c-23 45 -54 68 -93
68 -50 0 -81 -36 -75 -91 1 -7 14 -9 39 -6 43 6 87 -22 103 -65 8 -20 6 -29
-11 -45 -18 -16 -20 -26 -14 -61 7 -46 44 -124 80 -172 13 -17 24 -33 24 -36
0 -3 -16 -30 -36 -59 -33 -50 -36 -62 -23 -108 6 -21 -17 -24 -26 -4 -5 10 -9
43 -11 73 -7 136 -27 173 -81 154 -63 -22 -56 -93 22 -222 52 -86 66 -122 46
-122 -5 0 -11 10 -15 23 -3 13 -28 54 -56 91 -86 113 -100 172 -55 238 14 20
25 44 25 52 0 23 -36 37 -86 34 -37 -2 -48 -8 -62 -30 -15 -26 -15 -31 6 -96
34 -107 27 -193 -18 -207 -19 -6 -21 -12 -15 -44 l6 -37 -93 -37 c-165 -65
-258 -97 -258 -89 0 4 15 16 33 27 46 26 347 224 347 227 0 2 -6 24 -14 49 -8
25 -17 76 -21 113 -11 98 -27 62 -20 -41 l7 -83 -30 6 c-22 5 -35 0 -58 -21
-193 -178 -346 -326 -342 -331 4 -4 372 121 441 149 29 13 37 21 37 41 0 33
12 32 80 -2 95 -48 132 -136 63 -154 -30 -8 -33 -14 -66 -121 -39 -125 -127
-421 -134 -452 -3 -12 14 1 44 34 159 180 225 256 282 325 l64 77 -12 40 c-7
22 -9 44 -6 49 3 6 28 10 55 10 38 0 50 -4 53 -17 4 -17 5 -17 6 0 1 10 9 17
22 17 25 0 27 10 -27 -229 -31 -138 -40 -168 -46 -145 -6 25 -7 24 -5 -8 2
-21 0 -38 -4 -38 -4 0 -9 -22 -11 -50 -1 -27 0 -46 3 -42 3 4 39 99 79 211 57
162 71 213 67 243 -5 40 0 46 24 25 41 -33 42 -44 10 -78 -17 -18 -31 -39 -31
-48 0 -9 28 -158 62 -331 l62 -314 12 49 c6 28 36 173 65 323 29 149 56 272
60 272 6 0 28 -55 110 -288 19 -51 35 -89 37 -84 1 5 -9 100 -23 213 -40 314
-40 310 -25 319 12 7 79 3 89 -6 2 -2 -2 -23 -9 -48 l-12 -45 58 -69 c183
-216 319 -369 322 -362 2 5 -20 87 -49 182 -28 95 -64 215 -79 266 -31 103
-40 117 -77 127 -23 5 -25 9 -20 42 8 45 49 90 106 115 51 22 71 18 71 -14 0
-21 19 -30 227 -101 124 -42 228 -75 230 -73 3 3 -117 123 -267 265 -78 74
-88 81 -117 76 l-33 -6 6 93 c5 63 3 90 -4 83 -5 -5 -13 -54 -17 -107 l-7 -98
44 6 43 5 137 -130 c76 -72 132 -131 126 -131 -24 0 -349 203 -367 229 -28 40
-32 73 -16 132 27 97 29 117 11 144 -21 32 -82 35 -117 6 l-24 -20 23 -41 c43
-76 28 -154 -44 -238 -19 -22 -43 -60 -54 -84 -14 -33 -20 -39 -25 -25 -5 11
12 49 47 110 58 98 74 153 56 193 -12 25 -42 38 -75 32 -19 -4 -33 -59 -37
-153 -2 -54 -12 -85 -28 -85 -6 0 -8 14 -4 33 5 26 1 41 -19 68 -53 72 -53 71
0 148 39 58 49 81 53 124 3 39 0 61 -12 79 -15 22 -14 26 9 61 26 38 55 51 96
45 18 -2 25 2 27 19 5 32 -13 59 -47 71 -39 14 -91 -12 -111 -55 -19 -41 -26
-41 -44 1 -14 33 -62 69 -89 65 -6 -1 -16 -1 -22 0 -6 1 -11 70 -13 179 -4
234 -20 626 -29 732 -6 60 -10 -44 -14 -350 -4 -239 -10 -447 -14 -461 -5 -18
-12 -25 -23 -22 -14 3 -17 22 -19 121 -4 179 -45 470 -73 521 -21 39 -79 -322
-81 -509 -1 -68 -4 -96 -9 -80 -4 14 -8 106 -9 205 -1 184 -16 490 -30 625 -6
49 -9 -62 -10 -326z m179 -211 c9 -84 10 -167 4 -279 l-8 -159 -7 185 c-4 102
-9 239 -12 305 -6 142 5 116 23 -52z m-134 -421 c-12 -11 -17 7 -9 34 l8 29 3
-28 c2 -16 1 -31 -2 -35z m186 6 c-9 -9 -12 -4 -11 23 0 32 1 33 11 11 8 -17
8 -26 0 -34z m-35 -83 c0 -41 -4 -72 -9 -69 -14 9 -8 144 7 144 1 0 2 -34 2
-75z m79 23 c-10 -40 -11 -41 -14 -15 -4 33 3 57 17 57 5 0 4 -18 -3 -42z
m-304 -72 c12 -18 9 -31 -4 -18 -7 7 -18 12 -26 12 -19 0 -7 -48 19 -76 21
-23 25 -65 8 -95 -8 -16 -7 -25 5 -38 9 -10 16 -28 16 -42 -1 -22 -4 -20 -41
21 -41 46 -69 99 -69 130 0 10 -7 23 -15 30 -22 18 -18 42 11 73 22 24 31 27
57 21 18 -3 35 -12 39 -18z m422 -7 c29 -35 33 -57 11 -65 -8 -4 -15 -14 -15
-23 0 -41 -24 -90 -65 -136 -43 -48 -44 -49 -45 -23 0 15 7 34 16 42 8 9 12
21 8 27 -12 19 -6 91 9 108 34 38 27 90 -8 61 -16 -13 -20 -3 -7 16 21 33 66
29 96 -7z m-344 -79 c0 -34 4 -42 25 -50 14 -5 25 -14 25 -19 0 -14 -43 -21
-57 -9 -15 12 -18 118 -3 118 6 0 10 -18 10 -40z m141 -4 c14 -15 11 -26 -6
-26 -11 0 -15 10 -14 38 1 21 3 28 6 17 3 -11 9 -24 14 -29z m49 -11 c0 -55
-17 -79 -47 -68 -21 7 -15 33 7 33 17 0 20 7 20 45 0 25 5 45 10 45 6 0 10
-25 10 -55z m-395 -78 c41 -87 27 -120 -15 -37 -18 35 -27 90 -15 90 2 0 16
-24 30 -53z m162 21 c-3 -7 -5 -2 -5 12 0 14 2 19 5 13 2 -7 2 -19 0 -25z
m260 0 c-3 -7 -5 -2 -5 12 0 14 2 19 5 13 2 -7 2 -19 0 -25z m176 -53 c-18
-46 -43 -67 -43 -38 0 9 12 41 27 72 22 46 28 52 31 33 2 -13 -5 -43 -15 -67z
m-301 2 c8 4 9 -2 5 -18 -4 -13 -7 -33 -8 -44 -1 -14 -4 -10 -9 10 -9 34 -11
77 -3 57 2 -6 10 -9 15 -5z m113 -34 c-8 -34 -55 -133 -62 -133 -9 0 5 43 32
103 28 61 41 74 30 30z m-202 -50 c15 -36 25 -68 22 -71 -7 -7 -7 -6 -38 64
-29 66 -31 74 -19 74 4 0 19 -30 35 -67z m-113 -17 c0 -8 -4 -18 -10 -21 -5
-3 -10 3 -10 14 0 12 5 21 10 21 6 0 10 -6 10 -14z m410 -8 c0 -19 -2 -20 -10
-8 -13 19 -13 30 0 30 6 0 10 -10 10 -22z m-330 -49 c0 -18 -35 -5 -38 14 -3
16 -1 17 17 7 12 -6 21 -15 21 -21z m278 14 c-3 -19 -48 -32 -48 -14 0 10 28
30 43 31 5 0 7 -8 5 -17z m-359 -100 c5 -21 12 -54 15 -73 4 -25 0 -20 -14 20
-18 54 -25 90 -15 90 2 0 9 -17 14 -37z m395 -55 c-24 -81 -30 -64 -8 24 10
40 20 64 22 54 2 -11 -4 -46 -14 -78z m-264 67 c0 -9 -9 -15 -22 -15 -21 0
-21 0 -2 15 24 18 24 18 24 0z m170 -10 c0 -3 -9 -5 -20 -5 -11 0 -20 7 -20
15 0 13 4 14 20 5 11 -6 20 -13 20 -15z m35 -112 c-16 -41 -18 -43 -34 -29
-10 9 -28 16 -40 16 -17 0 -22 5 -19 22 4 27 37 37 50 14 5 -9 13 -16 17 -16
13 0 31 48 33 88 1 35 2 35 5 -7 3 -27 -2 -62 -12 -88z m-272 30 c10 -15 37
-17 37 -3 0 6 9 10 20 10 11 0 21 -4 22 -10 3 -24 3 -30 -2 -27 -3 1 -18 -6
-33 -16 -15 -10 -32 -15 -37 -12 -14 8 -30 74 -29 115 l2 35 6 -40 c4 -22 10
-46 14 -52z m-160 -34 c-6 -21 -28 -26 -38 -9 -12 19 3 39 23 33 14 -3 18 -11
15 -24z m601 -5 c9 -23 8 -24 -14 -24 -19 0 -27 20 -13 33 11 11 20 8 27 -9z
m-674 -98 c0 -8 -4 -18 -10 -21 -5 -3 -10 3 -10 14 0 12 5 21 10 21 6 0 10 -6
10 -14z m763 -48 c4 -10 2 -18 -3 -18 -15 0 -42 48 -35 60 7 12 26 -9 38 -42z
m-753 -25 c0 -10 3 -51 5 -91 l5 -74 -115 -141 c-150 -186 -174 -214 -175
-203 0 8 83 164 119 226 29 49 141 277 141 288 0 6 5 12 10 12 6 0 10 -8 10
-17z m778 -39 c12 -12 34 -21 48 -21 14 0 29 -4 34 -9 11 -12 143 -444 135
-444 -2 0 -20 28 -39 63 -19 34 -80 144 -135 245 -100 180 -120 229 -83 201 9
-8 27 -23 40 -35z m-408 -20 c0 -14 -14 -33 -21 -28 -15 9 -10 31 6 31 8 0 15
-1 15 -3z m116 -83 c-1 -75 -6 -77 -46 -21 l-19 27 31 31 c17 18 31 32 32 32
1 0 2 -31 2 -69z m39 47 c2 -13 23 -103 46 -202 22 -98 38 -180 36 -183 -3 -2
-28 65 -56 149 -35 106 -51 169 -51 206 0 52 15 71 25 30z m-70 -123 c3 -11
-13 -103 -34 -205 -42 -201 -47 -192 -27 50 11 130 11 161 0 189 -8 18 -14 38
-14 44 0 17 70 -56 75 -78z"/>
<path d="M1550 2898 c0 -4 -14 -76 -30 -160 -17 -84 -37 -227 -45 -318 -17
-189 -20 -500 -5 -500 5 0 25 -13 43 -30 42 -36 47 -37 84 -7 15 13 36 27 46
30 16 6 17 20 12 184 -8 235 -32 504 -56 617 -20 99 -18 73 11 -163 11 -87 22
-253 26 -380 l5 -226 -37 -23 c-20 -12 -39 -20 -42 -17 -7 6 -10 829 -4 892 2
24 8 40 13 37 12 -7 0 47 -12 61 -5 5 -9 6 -9 3z"/>
<path d="M1083 2675 c0 -22 2 -30 4 -17 2 12 2 30 0 40 -3 9 -5 -1 -4 -23z"/>
<path d="M1343 2615 c0 -27 2 -38 4 -22 2 15 2 37 0 50 -2 12 -4 0 -4 -28z"/>
<path d="M1073 2470 c0 -41 2 -58 4 -37 2 20 2 54 0 75 -2 20 -4 3 -4 -38z"/>
<path d="M1333 2385 c0 -44 2 -61 4 -37 2 23 2 59 0 80 -2 20 -4 1 -4 -43z"/>
<path d="M1005 835 c-4 -36 -5 -68 -3 -71 3 -2 8 25 12 62 4 37 5 69 2 71 -2
3 -7 -25 -11 -62z"/>
<path d="M992 720 c0 -19 2 -27 5 -17 2 9 2 25 0 35 -3 9 -5 1 -5 -18z"/>
<path d="M983 645 c0 -22 2 -30 4 -17 2 12 2 30 0 40 -3 9 -5 -1 -4 -23z"/>
</g>
</svg>
