<?xml version="1.0" standalone="no"?>
<!DOCTYPE svg PUBLIC "-//W3C//DTD SVG 20010904//EN"
 "http://www.w3.org/TR/2001/REC-SVG-20010904/DTD/svg10.dtd">
<svg version="1.0" xmlns="http://www.w3.org/2000/svg"
 width="244.000000pt" height="305.000000pt" viewBox="0 0 244.000000 305.000000"
 preserveAspectRatio="xMidYMid meet">
<metadata>
Created by potrace 1.16, written by Peter Selinger 2001-2019
</metadata>
<g transform="translate(0.000000,305.000000) scale(0.100000,-0.100000)"
fill="#000000" stroke="none">
<path d="M887 2903 c-9 -9 -9 -48 1 -57 10 -10 11 -936 0 -942 -4 -3 -26 9
-48 27 l-40 32 0 101 c0 171 25 459 51 597 6 31 9 64 7 75 -5 21 -33 -129 -47
-251 -9 -76 -18 -233 -25 -457 l-3 -96 58 -40 57 -40 22 23 c12 13 36 29 53
36 l30 13 -7 214 c-7 250 -18 365 -52 557 -27 149 -46 220 -57 208z"/>
<path d="M1578 2399 c1 -301 -1 -499 -7 -499 -5 0 -28 12 -51 27 l-42 28 7
190 c6 201 25 401 51 549 16 96 13 131 -5 44 -36 -178 -61 -462 -61 -696 0
-108 2 -123 18 -129 9 -4 31 -17 48 -30 36 -27 47 -28 64 -7 8 8 28 21 47 29
l33 14 0 113 c0 288 -49 719 -97 845 -4 12 -7 -203 -5 -478z"/>
<path d="M862 2780 c0 -14 2 -19 5 -12 2 6 2 18 0 25 -3 6 -5 1 -5 -13z"/>
<path d="M1215 2544 c-40 -137 -65 -362 -65 -576 0 -108 -13 -144 -25 -70 -42
250 -49 259 -75 108 -17 -98 -14 -118 23 -141 26 -16 33 -28 35 -59 7 -78 -13
-102 -58 -74 -10 7 -22 9 -26 6 -10 -11 15 -76 32 -82 26 -10 33 -7 56 19 30
35 39 31 32 -15 -6 -36 -4 -40 20 -50 15 -5 36 -26 47 -45 12 -19 23 -35 25
-35 2 0 13 18 24 40 13 26 27 40 40 40 21 0 23 6 22 58 -2 38 10 41 32 7 20
-30 39 -32 66 -5 26 26 28 76 3 65 -37 -16 -56 -10 -66 18 -16 48 -1 93 38
116 39 23 40 27 24 134 -11 75 -23 107 -34 95 -4 -4 -16 -61 -28 -127 -11 -67
-24 -121 -27 -121 -4 0 -10 87 -13 193 -4 105 -13 238 -21 294 -15 99 -49 249
-59 260 -3 2 -13 -22 -22 -53z m15 -479 l0 -464 -35 20 -35 21 0 161 c0 201
15 410 40 580 11 71 20 133 20 138 0 5 2 9 5 9 3 0 5 -209 5 -465z"/>
<path d="M755 1863 c-32 -8 -55 -34 -55 -63 0 -26 3 -28 50 -32 81 -8 130 -69
87 -109 -20 -18 -20 -23 -9 -76 10 -51 31 -89 97 -179 15 -21 14 -24 -25 -68
-46 -54 -50 -83 -17 -114 52 -49 119 -34 97 22 -13 35 -13 69 1 83 8 8 29 5
75 -10 49 -16 69 -19 82 -11 29 19 19 34 -39 58 -30 12 -73 36 -94 52 -49 37
-115 138 -115 176 0 41 12 34 38 -22 33 -71 136 -165 200 -185 33 -10 29 29
-5 52 -39 26 -111 100 -134 136 -10 18 -19 43 -19 57 0 14 -9 33 -20 43 -27
23 -25 33 10 69 28 27 36 30 75 25 43 -4 45 -3 45 22 -1 34 -20 59 -58 72 -43
15 -82 -6 -106 -55 -18 -36 -21 -38 -30 -21 -35 60 -83 89 -131 78z"/>
<path d="M1435 1858 c-30 -16 -45 -39 -45 -70 0 -27 1 -27 44 -22 39 6 48 3
70 -19 29 -29 34 -72 11 -81 -8 -3 -15 -18 -15 -33 0 -15 -9 -43 -20 -61 -26
-42 -104 -119 -130 -127 -20 -6 -35 -38 -25 -54 20 -34 176 95 216 178 13 28
28 51 33 51 17 0 -2 -67 -34 -118 -38 -62 -86 -102 -160 -132 -72 -30 -78 -36
-57 -57 16 -16 21 -16 87 4 88 25 98 18 80 -58 -10 -42 -10 -53 1 -60 22 -15
72 -1 97 27 33 38 33 36 -43 141 -15 20 -14 24 21 70 20 26 45 66 55 88 23 50
25 130 4 139 -25 9 -17 37 21 73 32 29 43 34 78 31 37 -2 41 0 44 22 3 30 -28
67 -65 76 -36 9 -88 -21 -108 -62 -9 -19 -19 -34 -23 -34 -5 0 -14 16 -21 35
-7 21 -24 41 -41 50 -34 18 -48 18 -75 3z"/>
<path d="M1083 1575 c-18 -8 -33 -18 -33 -23 0 -11 24 -22 49 -22 34 0 60 -42
71 -117 15 -94 11 -116 -20 -123 -20 -5 -25 -12 -25 -35 0 -25 5 -31 26 -33
50 -6 39 -72 -11 -72 -22 0 -42 -30 -32 -47 4 -6 23 -15 42 -20 29 -8 35 -15
42 -46 4 -21 15 -51 23 -67 13 -25 15 -79 13 -352 l-3 -323 -32 155 c-18 85
-39 184 -48 220 -24 106 -21 121 30 175 l46 47 -26 43 c-14 24 -25 55 -25 70
0 40 -18 65 -46 65 -29 0 -48 37 -38 76 6 23 4 24 -36 24 -23 0 -58 -7 -76
-16 -45 -21 -72 -10 -114 47 -23 32 -30 52 -29 83 2 37 -3 74 -17 144 -3 18
-11 22 -38 22 -87 0 -97 -88 -24 -202 93 -143 102 -161 101 -213 -1 -45 -14
-71 -137 -280 -74 -126 -140 -237 -146 -245 -20 -28 0 44 64 237 l62 187 47
15 c41 13 48 19 57 50 25 89 12 130 -74 236 -69 85 -83 158 -41 215 14 19 25
42 25 52 0 36 -96 51 -138 22 -28 -20 -29 -59 -1 -135 24 -66 21 -111 -11
-152 -18 -22 -322 -204 -375 -223 -18 -7 -19 -6 -5 11 8 10 73 70 143 133
l128 114 45 -7 46 -7 -7 99 c-8 106 -23 157 -26 88 -3 -56 -3 -55 4 -108 l7
-47 -38 5 c-33 5 -42 2 -77 -32 -22 -21 -63 -58 -90 -82 -136 -121 -245 -225
-241 -229 3 -2 33 5 68 16 35 11 143 46 241 77 162 53 177 59 177 81 0 31 9
35 57 22 52 -13 111 -61 130 -106 17 -40 7 -57 -37 -65 -28 -6 -31 -13 -90
-199 -34 -106 -74 -233 -90 -283 -16 -49 -27 -92 -24 -94 4 -4 60 55 278 294
116 127 127 143 122 170 -14 76 -21 70 85 70 89 0 98 -2 132 -28 20 -15 37
-33 37 -40 0 -6 -14 -26 -32 -44 l-32 -33 63 -302 c67 -325 71 -342 77 -335 4
3 115 530 128 608 6 32 3 40 -24 62 -36 31 -38 46 -7 75 34 32 71 42 157 42
82 0 94 -7 79 -45 -18 -47 -9 -64 114 -197 67 -74 156 -171 197 -216 41 -45
76 -79 78 -74 4 14 -169 557 -181 564 -7 4 -19 8 -28 8 -37 0 -43 27 -18 77
20 39 34 53 79 76 67 33 94 32 98 -4 3 -25 13 -30 180 -83 97 -32 201 -66 230
-76 76 -28 94 -26 57 7 -16 14 -70 63 -120 108 -232 212 -237 216 -272 210
l-33 -6 7 91 c7 105 -10 127 -21 26 -3 -36 -13 -83 -21 -105 -18 -52 -23 -48
189 -176 91 -55 176 -108 188 -118 l23 -18 -25 7 c-14 4 -101 34 -193 67
l-168 60 6 37 c6 33 4 39 -15 45 -44 14 -52 100 -20 203 25 79 25 87 0 112
-28 28 -102 28 -130 0 l-20 -20 26 -40 c19 -29 26 -52 26 -83 -2 -60 -12 -82
-72 -157 -63 -78 -78 -112 -86 -188 l-6 -57 95 -170 c52 -93 111 -199 131
-234 20 -35 35 -66 32 -68 -2 -2 -48 47 -103 109 -213 244 -206 235 -198 265
4 15 9 62 10 104 3 86 18 125 106 265 59 96 68 154 29 186 -26 21 -63 24 -77
6 -12 -16 -26 -90 -25 -138 1 -56 -5 -73 -40 -112 -41 -45 -68 -54 -107 -34
-17 9 -48 16 -71 16 -40 0 -40 0 -40 -37 0 -47 -8 -60 -40 -64 -24 -4 -32 -18
-45 -80 -6 -31 -40 -77 -50 -67 -4 4 2 27 14 51 11 24 21 55 21 70 0 29 12 39
49 43 56 6 52 51 -7 66 -27 7 -32 13 -32 38 0 24 5 29 28 32 21 2 28 9 30 31
3 23 -2 29 -28 39 l-32 11 6 61 c12 111 39 166 80 166 12 0 28 5 36 10 24 15
-10 42 -54 43 -30 1 -42 -6 -71 -37 -19 -21 -35 -46 -35 -56 0 -30 -27 -18
-44 20 -29 66 -70 88 -123 65z"/>
</g>
</svg>
