<?xml version="1.0" standalone="no"?>
<!DOCTYPE svg PUBLIC "-//W3C//DTD SVG 20010904//EN"
 "http://www.w3.org/TR/2001/REC-SVG-20010904/DTD/svg10.dtd">
<svg version="1.0" xmlns="http://www.w3.org/2000/svg"
 width="244.000000pt" height="305.000000pt" viewBox="0 0 244.000000 305.000000"
 preserveAspectRatio="xMidYMid meet">
<metadata>
Created by potrace 1.16, written by Peter Selinger 2001-2019
</metadata>
<g transform="translate(0.000000,305.000000) scale(0.100000,-0.100000)"
fill="#000000" stroke="none">
<path d="M980 2900 c0 -8 -3 -26 -7 -39 -4 -18 -3 -22 6 -16 14 8 12 -56 -10
-340 -6 -77 -9 -165 -7 -195 3 -35 5 -18 6 49 1 71 5 102 12 95 16 -16 9 -506
-7 -511 -9 -3 -13 26 -16 114 l-3 118 -2 -118 c-1 -90 -5 -118 -14 -115 -9 3
-14 41 -16 129 -3 122 13 480 24 529 4 18 3 21 -4 11 -8 -12 -17 -99 -27 -271
-1 -19 -3 -119 -5 -222 l-2 -187 31 -27 c44 -36 40 -48 -13 -40 -37 6 -48 4
-65 -13 -12 -12 -21 -34 -21 -49 0 -25 5 -29 43 -38 34 -7 46 -16 62 -46 18
-35 18 -38 2 -56 -9 -10 -17 -30 -17 -44 0 -38 37 -147 64 -192 20 -32 22 -43
14 -62 -20 -43 -33 -26 -40 51 -3 26 -7 30 -37 33 -29 3 -33 6 -28 29 8 41
-23 63 -87 63 -87 0 -100 -26 -71 -145 19 -80 19 -92 -5 -98 -19 -5 -20 0 -21
66 -1 40 -5 83 -10 97 -5 17 -7 -8 -6 -73 l3 -98 -26 6 c-22 5 -33 -4 -85 -67
-33 -40 -76 -93 -95 -119 -19 -25 -56 -70 -82 -101 -27 -30 -48 -58 -48 -61 0
-4 24 3 53 14 106 43 99 41 92 19 -3 -11 -4 -20 -1 -20 7 0 166 78 180 88 6 5
27 15 46 22 19 7 45 22 57 33 19 17 25 18 38 7 40 -33 62 -130 31 -130 -29 0
-44 -31 -71 -147 -55 -242 -85 -369 -96 -406 -6 -22 -8 -41 -6 -43 2 -3 22 22
43 56 22 33 42 60 45 60 4 0 5 -21 2 -47 -5 -56 -14 -68 95 122 166 287 153
260 146 315 l-7 50 44 0 c50 0 104 -28 114 -59 4 -14 -1 -32 -16 -53 -13 -17
-22 -43 -21 -58 4 -49 92 -623 96 -627 3 -3 8 17 11 44 4 26 13 84 20 128 7
44 25 170 41 281 l27 201 -23 33 c-22 30 -22 35 -9 59 19 34 54 51 108 51 l44
0 -6 -52 c-7 -56 -13 -44 188 -388 l67 -115 -7 57 c-4 32 -4 58 -1 58 3 0 17
-20 32 -45 14 -25 28 -44 30 -42 4 4 -21 120 -70 337 -7 30 -21 92 -31 138
-16 70 -23 85 -44 95 -34 16 -37 39 -11 89 33 63 66 85 72 47 2 -17 37 -39
148 -95 184 -93 176 -90 156 -59 -20 31 -8 32 53 5 24 -11 45 -20 48 -20 5 0
-58 82 -180 230 -72 88 -99 115 -118 115 -24 1 -24 1 -20 90 2 50 1 87 -3 84
-3 -3 -10 -39 -16 -79 -10 -72 -22 -101 -36 -87 -4 4 1 47 11 96 17 84 17 91
1 115 -14 23 -23 26 -70 26 -63 0 -81 -15 -71 -60 6 -29 5 -30 -28 -30 -39 0
-47 -11 -47 -70 0 -49 -13 -57 -35 -23 -17 26 -17 27 20 96 28 52 39 85 42
132 4 40 2 65 -6 69 -18 12 -12 53 12 82 16 18 34 27 57 28 33 2 35 4 32 31
-5 42 -26 62 -72 69 -47 7 -50 17 -14 43 l26 19 -11 300 c-8 208 -19 352 -36
474 -14 96 -25 179 -25 185 0 5 -7 1 -15 -9 -14 -19 -15 -18 -15 10 0 18 -3
24 -8 16 -5 -6 -7 -110 -5 -230 7 -404 8 -742 3 -742 -28 1 -32 23 -33 226 -1
154 -2 173 -4 72 -3 -116 -6 -136 -18 -132 -12 5 -15 -8 -16 -77 l-2 -84 -11
84 c-11 83 -28 114 -39 69 -3 -13 -9 -59 -13 -103 l-8 -80 -7 65 c-4 36 -7
112 -8 170 -2 179 -43 481 -62 449 -16 -30 -48 -319 -55 -504 -7 -165 -9 -181
-16 -125 -17 137 -19 150 -31 147 -15 -3 -24 -38 -26 -101 -2 -107 -10 -31
-16 154 -7 215 -18 378 -40 573 -18 152 -36 202 -30 82 l4 -80 -9 65 c-8 63
-28 130 -30 100z m497 -107 c-3 -10 -5 -2 -5 17 0 19 2 27 5 18 2 -10 2 -26 0
-35z m-247 -743 c0 -439 0 -440 -20 -423 -19 16 -20 30 -20 213 1 228 24 650
36 650 2 0 4 -198 4 -440z m167 -67 c-2 -16 -4 -3 -4 27 0 30 2 43 4 28 2 -16
2 -40 0 -55z m-275 -122 c25 -28 29 -40 26 -80 -4 -45 -4 -46 -36 -43 -26 3
-32 0 -32 -17 0 -31 22 -71 38 -71 9 0 24 7 34 17 17 15 18 14 18 -19 0 -23 6
-38 15 -42 9 -3 23 -22 31 -41 8 -19 16 -35 19 -35 3 0 11 16 19 35 8 19 22
38 31 41 9 4 15 19 15 43 1 32 2 34 14 19 23 -30 53 -22 66 17 14 42 6 59 -25
51 -26 -7 -35 8 -35 55 0 33 16 69 30 69 5 0 2 -12 -6 -27 -7 -16 -14 -38 -14
-50 0 -18 7 -22 37 -25 30 -2 41 -9 52 -32 10 -21 10 -34 3 -50 -6 -11 -14
-37 -18 -56 -8 -42 -48 -124 -72 -148 -10 -10 -26 -29 -36 -43 l-17 -24 6 30
c13 60 27 84 56 94 16 5 29 14 29 20 0 12 -40 41 -57 41 -21 0 -53 -42 -64
-84 l-11 -40 -21 54 c-27 66 -44 78 -86 60 -39 -16 -40 -38 -2 -51 15 -6 34
-22 41 -37 14 -30 26 -142 16 -142 -19 0 -66 33 -95 65 -47 54 -37 61 14 10
24 -25 51 -45 60 -45 25 0 17 40 -15 77 -39 44 -80 125 -80 158 0 14 -7 39
-15 55 -14 27 -14 33 0 60 13 25 22 30 50 30 32 0 35 2 35 30 0 41 -42 84 -76
77 -30 -5 -30 3 -1 35 18 20 23 22 26 9 2 -9 17 -31 33 -50z m297 34 c17 -19
35 -35 40 -35 14 0 23 -18 16 -30 -4 -7 -16 -1 -30 15 -16 16 -35 25 -55 25
-22 0 -29 3 -23 13 4 6 6 20 5 30 -5 27 13 20 47 -18z m-413 -62 c-11 -11 -19
6 -11 24 8 17 8 17 12 0 3 -10 2 -21 -1 -24z m397 -385 c-19 -32 -95 -98 -114
-98 -5 0 -9 9 -9 19 0 14 5 18 19 14 14 -4 33 9 68 46 26 28 50 50 51 51 2 0
-5 -15 -15 -32z m-250 -185 c-5 -28 -2 -34 21 -44 34 -16 33 -45 -3 -63 -27
-14 -29 -14 -34 4 -6 24 -40 26 -77 5 -18 -9 -29 -10 -37 -3 -21 17 -15 28 16
28 36 0 40 9 33 82 l-5 56 46 -16 c43 -15 45 -18 40 -49z m245 -5 l-3 -63 38
1 c41 1 43 -2 23 -29 -13 -17 -16 -17 -45 -3 -38 20 -60 20 -81 1 -19 -17 -45
-12 -54 11 -8 21 3 41 25 47 14 4 19 14 19 40 0 29 5 37 28 45 52 19 54 17 50
-50z m-703 2 c7 -12 -61 -120 -75 -120 -5 0 -12 -9 -15 -20 -3 -11 -12 -20
-18 -20 -7 0 -37 -21 -67 -46 -55 -45 -90 -69 -90 -60 0 2 6 11 13 18 15 15
174 210 196 239 15 21 46 25 56 9z m47 -17 c-6 -10 -23 -29 -38 -43 -30 -27
-25 -14 13 38 26 34 42 38 25 5z m978 -113 c0 -28 -2 -30 -20 -20 -23 12 -25
21 -8 38 20 20 28 14 28 -18z m68 -1 c39 -38 36 -46 -10 -23 -36 18 -50 33
-42 46 9 14 19 9 52 -23z m133 -46 c8 -10 32 -33 54 -50 44 -36 41 -42 -8 -17
-31 16 -76 61 -77 77 0 13 15 8 31 -10z m-44 -51 c38 -20 63 -42 48 -42 -10 0
-140 72 -155 87 -16 15 29 -4 107 -45z m-670 -13 c11 -60 26 -89 39 -77 3 3
11 36 17 72 6 36 14 66 18 66 12 0 -12 -115 -31 -146 -19 -29 -20 -52 -21
-315 l-1 -284 -28 190 c-36 242 -36 256 -3 315 26 46 27 51 14 92 -15 52 -29
148 -21 148 3 0 11 -28 17 -61z m-280 -21 c-3 -8 -6 -5 -6 6 -1 11 2 17 5 13
3 -3 4 -12 1 -19z m-20 -123 c-17 -41 -33 -72 -35 -70 -8 8 20 130 31 137 32
20 33 3 4 -67z m-31 48 c-2 -10 -14 -64 -25 -120 -21 -100 -26 -116 -62 -199
-10 -23 -21 -54 -25 -68 -7 -28 -24 -46 -24 -25 0 7 23 106 51 221 45 183 53
208 71 208 14 0 18 -5 14 -17z m671 -103 c18 -49 29 -90 25 -90 -4 0 -23 28
-43 61 -25 43 -34 69 -31 90 2 16 7 29 11 29 3 0 21 -40 38 -90z m20 -127 c41
-62 92 -169 93 -193 0 -14 -139 227 -140 243 0 15 9 5 47 -50z m126 -120 c20
-52 16 -69 -6 -26 -21 41 -30 73 -20 73 5 0 16 -21 26 -47z m-865 -28 c-6 -14
-13 -24 -14 -22 -6 6 9 47 17 47 5 0 3 -11 -3 -25z"/>
<path d="M962 2800 c0 -14 2 -19 5 -12 2 6 2 18 0 25 -3 6 -5 1 -5 -13z"/>
<path d="M946 2689 c-4 -28 -5 -53 -3 -56 3 -2 8 19 12 47 4 28 5 53 2 56 -2
3 -7 -19 -11 -47z"/>
<path d="M1413 2610 c0 -25 2 -35 4 -22 2 12 2 32 0 45 -2 12 -4 2 -4 -23z"/>
<path d="M1425 2518 c-4 -51 -5 -104 -3 -118 2 -14 7 26 11 89 4 63 6 116 3
118 -2 2 -7 -38 -11 -89z"/>
<path d="M1403 2490 c0 -30 2 -43 4 -27 2 15 2 39 0 55 -2 15 -4 2 -4 -28z"/>
<path d="M1394 2265 c0 -71 1 -99 3 -62 2 37 2 96 0 130 -2 34 -3 4 -3 -68z"/>
</g>
</svg>
