<?xml version="1.0" standalone="no"?>
<!DOCTYPE svg PUBLIC "-//W3C//DTD SVG 20010904//EN"
 "http://www.w3.org/TR/2001/REC-SVG-20010904/DTD/svg10.dtd">
<svg version="1.0" xmlns="http://www.w3.org/2000/svg"
 width="244.000000pt" height="305.000000pt" viewBox="0 0 244.000000 305.000000"
 preserveAspectRatio="xMidYMid meet">
<metadata>
Created by potrace 1.16, written by Peter Selinger 2001-2019
</metadata>
<g transform="translate(0.000000,305.000000) scale(0.100000,-0.100000)"
fill="#000000" stroke="none">
<path d="M1515 2828 c-10 -46 -26 -132 -35 -193 -9 -60 -20 -103 -23 -95 -2 8
-10 82 -17 164 -7 83 -15 158 -19 167 -3 10 -5 -206 -4 -479 1 -292 -2 -489
-7 -477 -5 11 -9 38 -10 60 0 22 -6 58 -12 80 -6 22 -14 90 -18 150 l-6 110
-2 -106 c-3 -135 -12 -230 -23 -223 -5 3 -9 27 -9 53 0 27 -6 53 -13 59 -7 6
-13 38 -15 74 -5 136 -47 406 -65 425 -15 14 -58 -237 -64 -379 -5 -100 -9
-125 -19 -121 -10 4 -14 -5 -15 -33 -1 -22 -4 -50 -8 -64 -10 -33 -18 60 -31
354 -6 126 -17 295 -25 375 -8 80 -15 152 -15 159 0 6 -3 12 -7 12 -5 0 -7
-226 -6 -502 1 -277 -2 -494 -6 -483 -9 23 -27 445 -25 605 1 73 -1 91 -6 60
-4 -25 -8 -34 -8 -20 -3 42 -45 280 -50 276 -2 -3 6 -67 18 -143 31 -199 61
-743 41 -743 -6 0 -12 46 -14 118 l-3 117 -2 -126 c-2 -112 -4 -128 -22 -144
-11 -10 -22 -16 -24 -14 -8 8 -8 923 -1 952 4 16 3 33 -2 38 -18 18 -64 -255
-83 -491 -5 -63 -10 -195 -11 -293 l-2 -179 46 -40 47 -40 31 32 c25 24 34 28
45 19 22 -18 16 -29 -15 -29 -35 0 -48 -15 -59 -66 l-9 -39 -16 37 c-37 86
-147 76 -147 -14 0 -25 2 -26 35 -21 29 5 39 1 65 -25 29 -30 39 -69 21 -87
-5 -6 -12 -37 -14 -70 -7 -82 -17 -126 -28 -119 -5 3 -9 1 -9 -3 0 -5 -13 -14
-29 -20 -35 -13 -50 -64 -32 -114 24 -69 2 -98 -25 -33 -22 53 -20 117 5 157
11 19 21 42 21 50 0 38 -87 50 -120 17 -24 -24 -25 -49 -4 -131 21 -83 15
-156 -16 -179 -19 -14 -22 -23 -17 -51 l7 -34 -157 -62 c-86 -35 -158 -61
-161 -59 -2 2 41 35 95 72 225 157 246 174 239 203 -4 14 -12 63 -18 109 -16
112 -33 107 -24 -8 l7 -90 -28 6 c-25 5 -42 -9 -180 -148 -136 -137 -192 -198
-180 -198 2 0 77 27 168 61 90 34 182 67 204 74 38 12 48 21 59 58 4 14 12 17
28 11 13 -3 24 -8 26 -9 1 -1 -24 -47 -57 -101 -33 -54 -58 -100 -56 -102 2
-3 47 21 98 52 52 31 99 56 105 56 17 0 25 -39 12 -55 -7 -8 -20 -15 -30 -15
-24 0 -34 -25 -81 -200 -22 -85 -54 -199 -70 -254 -16 -54 -29 -104 -29 -110
1 -14 32 22 177 202 64 78 117 141 118 140 1 -2 -10 -79 -26 -173 -16 -93 -28
-176 -26 -184 1 -8 20 23 41 70 22 46 71 147 108 224 65 131 69 143 63 187
l-7 48 35 0 c24 0 42 -8 61 -26 32 -33 33 -44 1 -74 -14 -13 -25 -33 -25 -46
0 -12 25 -157 55 -323 30 -166 55 -307 55 -313 0 -6 2 -9 4 -7 6 5 116 609
116 633 0 11 -11 34 -25 52 -14 18 -25 37 -25 41 0 19 58 64 86 66 29 2 29 2
26 -49 -3 -48 3 -65 102 -260 58 -115 105 -202 105 -194 0 8 -12 88 -27 177
-15 90 -25 163 -22 163 3 0 17 -18 32 -39 15 -21 38 -51 52 -67 55 -64 143
-173 180 -222 22 -28 41 -50 43 -48 4 3 -29 128 -120 451 -32 115 -35 120 -65
129 -28 8 -32 13 -32 42 0 19 5 34 11 34 11 0 107 -51 143 -75 35 -25 38 -17
10 33 -67 116 -69 121 -59 131 6 5 21 11 35 13 21 2 26 -2 28 -24 2 -14 11
-29 20 -33 17 -7 151 -56 325 -119 53 -19 97 -32 97 -28 0 4 -78 85 -173 180
-161 161 -176 173 -201 166 l-28 -7 6 84 c4 52 3 90 -3 99 -8 11 -11 4 -11
-30 0 -25 -3 -76 -7 -114 l-6 -68 39 6 c38 6 41 5 114 -68 150 -148 206 -209
179 -195 -49 26 -291 184 -325 212 -51 43 -60 92 -35 177 25 82 26 99 5 128
-19 28 -82 30 -113 5 l-21 -18 25 -47 c29 -54 31 -95 7 -157 -21 -56 -48 -70
-38 -20 4 19 10 57 13 85 4 47 2 53 -22 72 -15 12 -32 19 -37 16 -6 -4 -14 0
-19 7 -6 10 -9 7 -10 -11 -1 -14 -5 0 -10 30 -5 30 -6 81 -3 112 5 47 3 59
-10 64 -25 10 -19 53 13 85 23 23 39 29 70 29 36 0 41 3 41 23 0 57 -68 94
-115 63 -14 -9 -33 -33 -43 -53 l-19 -36 -14 44 c-11 36 -20 46 -46 54 -37 10
-41 20 -14 34 14 8 24 4 46 -19 l28 -29 39 34 c21 19 43 35 49 35 25 0 -6 576
-41 777 -11 61 -20 117 -20 124 0 7 -3 10 -6 7 -3 -4 3 -64 15 -135 32 -206
62 -713 44 -738 -5 -5 -23 -20 -41 -33 -26 -19 -33 -20 -38 -8 -3 8 -4 235 -2
505 2 270 3 491 2 491 -1 0 -9 -37 -19 -82z m-227 -689 c5 -85 6 -183 2 -219
-5 -50 -7 -28 -8 96 -1 89 -5 190 -8 225 -4 35 -4 61 -1 58 4 -3 11 -75 15
-160z m-203 -269 c3 -5 -1 -10 -9 -10 -9 0 -16 5 -16 10 0 6 4 10 9 10 6 0 13
-4 16 -10z m311 -17 c-10 -10 -19 5 -10 18 6 11 8 11 12 0 2 -7 1 -15 -2 -18z
m-276 -114 c-11 -20 -25 -25 -35 -10 -7 12 24 43 36 35 5 -3 5 -13 -1 -25z
m260 -13 c-8 -8 -15 -6 -25 8 -20 26 -7 41 16 20 14 -13 16 -21 9 -28z m115
-10 c8 -23 6 -30 -8 -41 -9 -7 -17 -24 -17 -39 0 -41 -18 -21 -25 28 -12 74
28 115 50 52z m-473 -1 c8 -18 8 -31 0 -48 -6 -12 -13 -29 -15 -37 -4 -11 -6
-9 -6 4 -1 11 -8 28 -18 38 -13 15 -14 23 -5 43 15 32 29 32 44 0z m278 -57
c0 -10 -4 -18 -10 -18 -5 0 -10 15 -10 33 0 24 3 28 10 17 5 -8 10 -23 10 -32z
m80 -33 c0 -35 -15 -48 -46 -41 -39 9 -60 -9 -83 -69 l-19 -50 -11 40 c-18 68
-37 87 -78 79 -38 -7 -53 4 -53 43 0 13 8 24 20 28 23 7 50 -10 50 -30 0 -7 9
-15 20 -18 11 -3 27 -21 35 -41 9 -20 17 -36 20 -36 3 0 11 16 19 35 9 20 26
39 41 45 14 5 25 15 25 23 0 7 5 18 11 24 16 16 49 -6 49 -32z m-425 -35 c4
-17 26 -56 49 -88 78 -104 88 -146 17 -70 -45 47 -91 132 -91 166 0 32 17 27
25 -8z m133 -77 c14 -26 15 -33 3 -33 -14 0 -41 77 -40 113 1 30 2 29 13 -13
6 -25 17 -55 24 -67z m312 2 c-12 -25 -26 -45 -31 -45 -5 0 -1 17 10 38 11 21
23 56 28 77 l8 40 3 -33 c2 -19 -6 -51 -18 -77z m140 83 c0 -46 -103 -208
-131 -208 -19 0 -7 24 45 96 30 41 57 88 61 104 8 35 25 40 25 8z m-216 -120
c-14 -26 -19 -29 -22 -15 -4 20 29 78 35 60 2 -6 -4 -27 -13 -45z m-154 -14
c0 -8 -2 -14 -5 -14 -6 0 -35 56 -35 67 1 14 40 -39 40 -53z m-222 -71 c0 -55
-7 -71 -19 -52 -10 16 -12 60 -3 83 12 31 23 15 22 -31z m592 -14 c0 -21 -4
-39 -10 -39 -5 0 -10 21 -10 46 0 27 4 43 10 39 6 -3 10 -24 10 -46z m55 -27
c-4 -26 -10 -41 -12 -34 -3 7 -2 34 2 60 4 26 10 41 12 34 3 -7 2 -34 -2 -60z
m-418 12 c-9 -9 -28 6 -21 18 4 6 10 6 17 -1 6 -6 8 -13 4 -17z m141 14 c-6
-18 -28 -21 -28 -4 0 9 7 16 16 16 9 0 14 -5 12 -12z m-282 -99 c-1 -49 3 -63
19 -75 30 -22 40 -11 40 42 0 52 1 54 41 54 23 0 24 -1 9 -16 -23 -23 -15 -57
15 -64 29 -7 38 -41 15 -60 -10 -8 -15 -9 -15 -1 0 7 -20 11 -52 11 -29 0 -59
4 -66 9 -22 13 -30 161 -9 161 2 0 4 -27 3 -61z m414 14 c0 -56 -18 -111 -38
-117 -9 -3 -42 -6 -72 -8 -53 -3 -55 -2 -55 22 0 18 6 26 22 28 27 4 39 37 22
58 -14 17 -12 21 21 26 24 3 25 1 22 -49 -4 -59 8 -73 39 -42 18 18 21 30 17
70 -4 37 -2 49 8 49 9 0 14 -13 14 -37z m137 -40 c-3 -10 -5 -2 -5 17 0 19 2
27 5 18 2 -10 2 -26 0 -35z m-762 -24 c9 -17 14 -34 10 -37 -10 -10 -44 40
-38 55 7 19 11 17 28 -18z m173 -70 c-3 -8 -7 -3 -11 10 -4 17 -3 21 5 13 5
-5 8 -16 6 -23z m478 5 c-4 -9 -9 -15 -11 -12 -3 3 -3 13 1 22 4 9 9 15 11 12
3 -3 3 -13 -1 -22z m164 13 c0 -15 -29 -57 -30 -42 0 6 3 20 6 33 7 24 24 31
24 9z m-884 -58 c6 -10 -95 -123 -103 -115 -2 2 13 31 33 65 35 59 55 73 70
50z m148 -54 c4 -17 7 -73 8 -126 2 -97 2 -97 -35 -150 -20 -30 -52 -72 -70
-95 -17 -22 -56 -73 -86 -113 -29 -40 -55 -70 -58 -67 -3 2 44 103 104 223
l108 218 -1 88 c-2 74 0 85 11 70 7 -10 15 -32 19 -48z m706 -14 c0 -61 18
-92 59 -106 19 -6 38 -18 43 -26 10 -18 128 -432 124 -437 -2 -1 -10 10 -17
25 -8 15 -67 130 -132 254 -119 229 -129 259 -111 326 11 39 34 15 34 -36z
m150 4 c24 -24 42 -47 39 -50 -7 -6 -109 63 -109 74 0 9 11 21 20 21 3 0 26
-20 50 -45z m-525 -115 c3 0 12 15 20 33 8 17 14 26 15 19 0 -16 -27 -82 -34
-82 -9 0 -36 58 -36 77 1 11 6 5 15 -14 8 -18 17 -33 20 -33z m-225 -7 c0 -4
-11 -41 -25 -83 -13 -41 -45 -141 -71 -223 -26 -81 -48 -146 -49 -145 -2 2 10
72 25 157 19 105 34 162 48 181 18 24 19 32 10 65 -10 30 -9 38 3 46 17 11 59
12 59 2z m464 -34 c5 -19 33 -112 63 -208 29 -96 51 -176 50 -178 -2 -2 -21
34 -42 79 -21 46 -56 121 -78 168 -37 80 -49 143 -31 171 11 18 29 3 38 -32z
m-144 -128 c0 -14 -4 -42 -9 -61 -5 -19 -15 -71 -22 -115 -19 -118 -22 -77 -5
70 12 95 13 133 4 149 -11 21 -11 21 11 2 11 -11 21 -31 21 -45z"/>
<path d="M1402 2805 c0 -16 2 -22 5 -12 2 9 2 23 0 30 -3 6 -5 -1 -5 -18z"/>
<path d="M1031 2794 c0 -11 3 -14 6 -6 3 7 2 16 -1 19 -3 4 -6 -2 -5 -13z"/>
<path d="M1023 2695 c0 -22 2 -30 4 -17 2 12 2 30 0 40 -3 9 -5 -1 -4 -23z"/>
<path d="M1392 2690 c0 -19 2 -27 5 -17 2 9 2 25 0 35 -3 9 -5 1 -5 -18z"/>
<path d="M1382 2590 c0 -19 2 -27 5 -17 2 9 2 25 0 35 -3 9 -5 1 -5 -18z"/>
<path d="M1373 2440 c0 -47 2 -66 4 -42 2 23 2 61 0 85 -2 23 -4 4 -4 -43z"/>
</g>
</svg>
