<?xml version="1.0" standalone="no"?>
<!DOCTYPE svg PUBLIC "-//W3C//DTD SVG 20010904//EN"
 "http://www.w3.org/TR/2001/REC-SVG-20010904/DTD/svg10.dtd">
<svg version="1.0" xmlns="http://www.w3.org/2000/svg"
 width="244.000000pt" height="305.000000pt" viewBox="0 0 244.000000 305.000000"
 preserveAspectRatio="xMidYMid meet">
<metadata>
Created by potrace 1.16, written by Peter Selinger 2001-2019
</metadata>
<g transform="translate(0.000000,305.000000) scale(0.100000,-0.100000)"
fill="#000000" stroke="none">
<path d="M890 2905 c0 -3 -11 -56 -25 -117 -35 -154 -53 -301 -65 -529 -15
-299 -14 -336 11 -344 11 -4 35 -20 53 -36 l33 -29 36 28 c19 15 43 32 52 37
15 9 17 29 16 168 -2 249 -20 443 -57 622 -26 126 -32 112 -8 -21 29 -165 44
-328 51 -530 l6 -200 -39 -24 c-21 -14 -43 -25 -49 -25 -12 0 -16 933 -3 941
11 7 10 51 -2 59 -5 3 -10 3 -10 0z"/>
<path d="M1300 2825 c-2 -49 -3 -182 -3 -295 1 -113 -1 -189 -3 -170 -7 52
-31 160 -47 205 -11 32 -15 36 -20 20 -3 -11 -13 -51 -24 -90 l-18 -70 -5 160
-6 160 -2 -230 c-2 -126 -8 -286 -14 -355 -6 -69 -12 -156 -13 -195 -4 -105
-5 -109 -9 -104 -3 2 -12 49 -21 104 -28 173 -43 183 -64 42 -16 -112 -15
-115 23 -138 41 -24 53 -63 36 -114 -11 -35 -41 -48 -55 -25 -12 19 -25 10
-25 -18 0 -29 26 -62 49 -62 7 0 25 14 40 31 l29 31 1 -66 c1 -66 1 -66 -27
-64 -29 2 -72 -17 -72 -31 0 -5 11 -12 25 -15 21 -5 25 -12 25 -42 0 -34 -1
-35 -21 -20 -43 30 -99 108 -105 147 -4 21 -13 44 -20 50 -21 18 -17 47 12 76
22 22 32 25 70 20 44 -5 44 -5 44 28 0 87 -130 96 -161 11 -7 -20 -17 -36 -21
-36 -4 0 -14 16 -23 35 -19 47 -72 71 -119 55 -36 -11 -60 -46 -54 -76 3 -15
11 -18 46 -16 37 3 47 -1 77 -31 38 -38 43 -58 20 -77 -37 -30 8 -182 71 -241
31 -29 30 -39 -5 -73 -40 -39 -56 -78 -42 -105 15 -26 66 -53 94 -49 23 3 26
22 14 82 -3 16 -2 37 3 47 9 17 13 17 56 2 40 -14 45 -18 40 -39 -4 -16 -2
-23 6 -22 17 4 21 -32 9 -65 -12 -31 -27 -35 -34 -9 -4 16 -5 16 -6 -1 0 -10
-6 -15 -11 -12 -6 3 -30 -4 -55 -16 -53 -27 -71 -20 -123 44 -28 34 -32 46
-27 75 6 35 -11 138 -28 160 -14 18 -62 15 -81 -7 -18 -20 -23 -62 -12 -99 4
-12 38 -74 76 -137 56 -95 69 -126 75 -175 4 -32 4 -64 0 -70 -4 -6 -2 -31 5
-56 12 -43 12 -44 -26 -91 -21 -27 -43 -53 -49 -59 -5 -6 -57 -66 -114 -132
-58 -67 -107 -120 -109 -118 -2 2 26 55 61 118 181 316 197 348 197 392 0 70
-27 142 -78 204 -88 108 -104 175 -57 244 31 45 31 53 3 72 -36 25 -100 21
-128 -9 l-24 -25 22 -75 c36 -124 29 -183 -26 -214 -14 -8 -15 -14 -5 -40 6
-17 8 -33 5 -35 -8 -4 -149 -57 -275 -101 -42 -15 -80 -26 -83 -23 -2 3 75 54
172 113 236 145 220 130 201 191 -9 27 -19 77 -23 111 -10 99 -28 66 -19 -38
l6 -88 -33 5 c-30 5 -42 -3 -137 -88 -58 -51 -146 -132 -195 -180 l-91 -87
140 44 c303 96 360 118 363 143 2 13 9 25 16 28 20 8 99 -31 134 -66 52 -51
56 -110 9 -110 -14 0 -29 -6 -34 -12 -20 -25 -187 -558 -177 -567 3 -3 8 0 12
6 4 6 48 55 98 109 308 334 298 322 284 358 -23 62 -18 66 76 66 82 0 113 -8
142 -37 16 -15 12 -79 -4 -76 -19 4 -25 -40 -14 -97 6 -29 10 -67 9 -84 -1
-30 -1 -30 -10 -6 -6 18 -7 10 -4 -27 3 -29 1 -72 -6 -96 -6 -25 -9 -53 -7
-63 2 -11 10 15 17 56 23 138 15 159 107 -290 10 -46 19 -79 22 -72 2 7 25
115 51 240 29 133 51 219 54 207 4 -11 5 0 2 25 -3 35 -1 41 7 26 6 -10 8 -38
4 -62 -4 -29 -2 -44 5 -44 6 0 9 -10 6 -22 -3 -13 -1 -41 3 -63 6 -26 7 1 3
80 -3 66 -7 154 -8 195 -2 41 -6 100 -10 130 -7 54 -6 56 19 68 15 7 65 12
111 12 93 0 98 -4 75 -65 -12 -32 -9 -35 119 -175 77 -83 260 -288 268 -299 2
-2 5 -2 8 1 3 2 -13 60 -34 129 -22 68 -61 194 -88 279 -48 153 -49 155 -83
166 -71 23 -37 108 62 158 63 31 88 29 88 -7 0 -21 9 -27 73 -47 39 -12 148
-47 240 -77 93 -30 171 -53 173 -50 3 2 -81 82 -186 177 -187 169 -191 172
-226 165 -35 -6 -36 -6 -30 22 6 32 9 84 6 128 -3 54 -17 -2 -24 -98 l-7 -88
48 6 48 6 140 -127 c77 -70 142 -132 144 -136 4 -13 -72 27 -215 110 -180 106
-177 103 -198 154 -19 47 -19 47 2 111 27 78 28 119 4 140 -25 23 -94 22 -122
-1 l-23 -19 27 -45 c27 -46 33 -98 17 -140 -5 -13 -34 -57 -65 -98 -62 -81
-80 -131 -70 -188 10 -57 21 -70 67 -83 23 -7 43 -13 44 -14 7 -4 143 -438
139 -442 -2 -2 -40 58 -83 134 -44 76 -110 190 -146 252 -90 155 -89 184 12
335 72 106 87 168 55 214 -12 18 -24 22 -52 20 -32 -3 -37 -7 -44 -38 -4 -19
-10 -68 -12 -107 -3 -63 -8 -78 -35 -112 -37 -46 -73 -59 -107 -36 -13 8 -33
15 -44 15 -24 0 -36 27 -45 97 l-7 48 38 12 c64 19 73 -1 49 -99 -6 -23 -4
-28 18 -33 30 -8 82 17 97 45 13 24 -8 75 -46 111 -13 12 -24 26 -24 31 0 4
16 29 36 55 21 27 45 66 55 88 23 49 25 118 4 135 -23 19 -18 39 20 77 31 31
40 34 77 31 42 -3 43 -2 41 26 -3 39 -32 67 -72 68 -44 1 -77 -19 -96 -58 -9
-19 -19 -34 -23 -34 -5 0 -14 16 -21 36 -17 46 -69 71 -112 54 -27 -12 -65
-72 -55 -89 3 -5 25 -6 48 -4 34 4 49 0 71 -17 30 -24 38 -74 12 -84 -8 -3
-15 -18 -15 -34 0 -31 -43 -102 -84 -141 -29 -27 -32 -27 -41 10 -6 23 -3 27
19 33 47 12 20 47 -38 49 l-34 1 3 55 c2 31 3 58 4 60 1 2 10 -8 22 -23 11
-14 29 -26 39 -26 23 0 50 36 50 67 0 26 -3 27 -29 11 -28 -17 -49 -3 -57 37
-8 46 9 86 46 107 17 9 30 25 30 35 0 29 -28 195 -34 200 -9 10 -23 -40 -35
-128 -7 -47 -17 -92 -22 -100 -5 -8 -9 -12 -9 -9 0 3 -3 177 -6 387 -3 210 -9
444 -14 520 -7 135 -7 136 -10 48z m-21 -670 c5 -137 13 -268 19 -290 7 -22
11 -51 11 -65 -1 -30 -5 -19 -14 33 -3 21 -10 35 -16 32 -11 -8 -12 -92 0 -99
27 -17 20 -131 -10 -147 -17 -9 -19 -6 -18 38 1 41 2 44 8 18 l7 -30 7 25 c10
37 9 78 -2 61 -11 -17 -19 177 -24 534 -3 240 -2 255 11 200 8 -36 17 -161 21
-310z m18 -172 c-2 -32 -3 -8 -3 52 0 61 1 87 3 58 2 -29 2 -78 0 -110z m-371
-405 c22 -50 92 -129 140 -159 34 -21 46 -49 21 -49 -17 0 -92 53 -124 89 -28
30 -73 118 -73 144 0 30 16 19 36 -25z m654 20 c0 -58 -113 -200 -179 -225
-27 -10 -31 -9 -31 6 0 9 13 24 29 34 49 29 120 107 143 159 23 52 38 62 38
26z m-380 -35 c0 -32 -5 -28 -14 10 -4 19 -3 26 4 22 5 -3 10 -18 10 -32z m81
1 c-9 -28 -9 -29 -10 -3 -1 14 2 29 6 32 11 12 13 2 4 -29z m-44 -86 c-2 -13
-4 -5 -4 17 -1 22 1 32 4 23 2 -10 2 -28 0 -40z m96 -26 c-8 -2 -13 -22 -13
-55 0 -29 -5 -59 -11 -67 -16 -23 -5 128 12 165 l14 29 5 -34 c3 -23 1 -36 -7
-38z m-173 10 c13 -49 13 -143 0 -122 -5 8 -10 37 -10 63 0 30 -4 46 -10 42
-6 -4 -10 8 -10 30 0 44 16 38 30 -13z m-33 -94 c-3 -8 -6 -5 -6 6 -1 11 2 17
5 13 3 -3 4 -12 1 -19z m220 0 c-3 -8 -6 -5 -6 6 -1 11 2 17 5 13 3 -3 4 -12
1 -19z m42 -183 l0 -20 -9 20 c-5 11 -9 29 -9 40 l0 20 9 -20 c5 -11 9 -29 9
-40z m-206 -12 c-7 -18 -23 -5 -23 18 0 16 2 18 14 7 7 -7 11 -19 9 -25z m122
-1 c-5 -13 -8 -14 -15 -3 -5 8 -3 19 3 26 14 15 22 1 12 -23z m-158 -4 c-3 -7
-5 -2 -5 12 0 14 2 19 5 13 2 -7 2 -19 0 -25z m180 0 c-3 -8 -6 -5 -6 6 -1 11
2 17 5 13 3 -3 4 -12 1 -19z m-220 -40 c-3 -7 -5 -2 -5 12 0 14 2 19 5 13 2
-7 2 -19 0 -25z m254 -51 c-6 -6 -14 -7 -18 -2 -5 4 -2 10 5 12 6 3 13 19 14
36 l1 32 4 -34 c3 -18 0 -38 -6 -44z m-236 3 c3 -5 2 -10 -4 -10 -5 0 -13 5
-16 10 -3 6 -2 10 4 10 5 0 13 -4 16 -10z m112 -162 c-3 -8 -6 -5 -6 6 -1 11
2 17 5 13 3 -3 4 -12 1 -19z m63 -96 c0 -7 5 -10 11 -6 17 10 29 -16 29 -61 0
-27 -3 -35 -9 -26 -6 9 -9 -2 -10 -35 0 -27 -18 -128 -40 -224 l-40 -175 6
100 c3 55 7 189 7 297 l1 197 22 -27 c12 -15 22 -33 23 -40z m30 37 c0 -11 -4
-17 -10 -14 -5 3 -10 13 -10 21 0 8 5 14 10 14 6 0 10 -9 10 -21z"/>
<path d="M1264 1980 c0 -69 1 -97 3 -62 2 34 2 90 0 125 -2 34 -3 6 -3 -63z"/>
<path d="M1312 775 c0 -16 2 -22 5 -12 2 9 2 23 0 30 -3 6 -5 -1 -5 -18z"/>
<path d="M1567 2890 c-10 -24 -34 -137 -51 -235 -25 -149 -46 -405 -46 -573
l0 -157 38 -23 c20 -12 45 -28 54 -34 14 -10 21 -8 40 9 13 12 36 26 51 32
l28 11 -6 177 c-3 98 -8 216 -11 263 -6 93 -49 387 -63 435 -13 41 -13 18 -1
-46 37 -195 60 -447 60 -671 l0 -127 -37 -26 c-21 -14 -41 -25 -45 -25 -5 0
-8 215 -8 478 0 311 4 472 10 462 9 -13 10 -13 9 0 -1 8 -4 26 -9 40 -5 18 -9
21 -13 10z"/>
<path d="M1153 2600 c0 -36 2 -50 4 -32 2 17 2 47 0 65 -2 17 -4 3 -4 -33z"/>
<path d="M1061 1224 c0 -11 3 -14 6 -6 3 7 2 16 -1 19 -3 4 -6 -2 -5 -13z"/>
</g>
</svg>
