<?xml version="1.0" standalone="no"?>
<!DOCTYPE svg PUBLIC "-//W3C//DTD SVG 20010904//EN"
 "http://www.w3.org/TR/2001/REC-SVG-20010904/DTD/svg10.dtd">
<svg version="1.0" xmlns="http://www.w3.org/2000/svg"
 width="244.000000pt" height="305.000000pt" viewBox="0 0 244.000000 305.000000"
 preserveAspectRatio="xMidYMid meet">
<metadata>
Created by potrace 1.16, written by Peter Selinger 2001-2019
</metadata>
<g transform="translate(0.000000,305.000000) scale(0.100000,-0.100000)"
fill="#000000" stroke="none">
<path d="M1043 2890 c1 -14 -1 -30 -5 -35 -3 -6 -12 -73 -19 -150 -7 -77 -14
-135 -15 -130 -2 6 -15 77 -29 159 -14 83 -28 152 -30 155 -9 8 -15 -4 -20
-40 -4 -29 -3 -30 4 -9 6 15 9 -163 10 -457 1 -266 -2 -483 -5 -483 -3 0 -21
12 -40 26 l-34 26 0 102 c0 152 18 426 36 558 9 65 14 123 12 130 -7 19 -37
-220 -48 -370 -5 -71 -10 -200 -10 -286 l-2 -156 50 -45 c40 -36 48 -49 44
-70 -4 -26 -22 -35 -22 -12 0 19 -41 53 -73 61 -36 8 -80 -34 -75 -73 3 -23 7
-26 36 -23 26 3 39 -3 67 -31 38 -38 43 -58 19 -78 -10 -8 -15 -27 -13 -58 1
-25 -5 -62 -13 -81 -9 -19 -18 -42 -21 -50 -4 -10 -6 -11 -6 -2 -1 7 -17 -3
-36 -24 -34 -35 -35 -40 -29 -83 11 -66 10 -80 -1 -82 -16 -3 -35 43 -35 88 0
23 10 62 21 87 12 24 19 51 16 59 -8 21 -72 32 -102 19 -36 -17 -40 -53 -16
-137 29 -98 18 -141 -50 -194 -64 -49 -289 -194 -294 -189 -3 2 50 62 117 132
121 127 122 128 160 123 l38 -5 -1 76 c-2 119 -16 156 -18 45 l-1 -93 -28 6
c-26 5 -41 -8 -188 -161 -87 -92 -160 -171 -162 -176 -3 -8 67 15 306 103 99
37 112 44 112 65 0 18 6 23 25 23 29 0 26 -14 -19 -80 -84 -122 -85 -138 -9
-95 164 93 173 96 173 51 0 -26 -15 -42 -45 -48 -14 -2 -23 -16 -32 -48 -6
-25 -41 -153 -77 -284 -37 -132 -65 -241 -63 -243 2 -2 58 66 124 150 67 84
130 160 141 170 19 17 19 17 16 -5 -2 -13 -15 -89 -29 -169 -14 -80 -25 -150
-24 -155 0 -5 51 92 113 216 112 221 114 226 108 279 l-5 53 34 -7 c43 -10 65
-24 80 -51 10 -20 8 -27 -15 -54 -14 -17 -26 -41 -26 -53 0 -20 14 -97 84
-480 14 -76 26 -143 26 -149 0 -38 13 27 54 262 26 146 51 284 56 307 15 63
12 79 -15 104 -13 13 -25 31 -25 40 0 24 52 68 89 75 l34 7 -7 -51 c-7 -51 -5
-55 104 -269 60 -120 110 -210 110 -200 0 10 -11 79 -25 153 -14 74 -25 144
-25 156 0 13 45 -37 128 -140 71 -87 136 -170 145 -183 10 -13 17 -17 17 -10
0 16 -83 327 -110 411 -9 30 -22 78 -29 106 -10 42 -18 53 -44 65 -25 11 -31
19 -29 39 1 13 7 29 11 33 5 5 46 -12 97 -42 86 -51 113 -58 81 -23 -10 10
-17 23 -17 28 0 5 -16 34 -36 64 -32 51 -33 56 -17 67 26 20 43 15 43 -12 0
-31 10 -36 230 -118 96 -36 183 -69 194 -73 36 -14 11 15 -158 186 -153 156
-171 171 -196 165 l-27 -6 4 98 c3 71 1 94 -6 83 -6 -8 -11 -35 -11 -60 0 -25
-7 -69 -14 -99 -18 -66 -26 -57 187 -206 87 -60 154 -111 149 -113 -8 -2 -321
124 -331 134 -2 2 1 16 8 31 12 25 10 29 -15 49 -22 18 -28 32 -32 76 -2 30 1
72 8 93 26 87 28 108 18 131 -13 29 -45 39 -94 30 -45 -9 -52 -28 -25 -76 25
-45 28 -127 6 -170 -21 -41 -39 -39 -31 3 23 107 16 142 -29 153 -14 3 -25 11
-25 18 0 6 -5 4 -10 -4 -8 -12 -10 -11 -10 7 0 12 -5 34 -11 50 -6 15 -11 52
-10 80 2 37 -2 58 -13 69 -13 12 -14 20 -5 37 25 49 51 67 96 67 48 0 51 6 27
56 -12 25 -24 35 -50 40 -38 7 -63 -8 -94 -59 l-18 -29 -7 31 c-7 33 -38 61
-68 61 -10 0 -17 5 -15 13 8 21 39 20 63 -3 l23 -21 46 33 47 33 -5 260 c-3
143 -12 312 -20 375 -17 131 -58 352 -64 345 -2 -2 -3 -230 -3 -507 l2 -502
-25 24 c-25 22 -26 29 -28 149 l-2 126 -3 -122 c-2 -76 -8 -123 -14 -123 -7 0
-10 47 -8 135 1 74 -1 138 -4 142 -4 3 -7 -66 -7 -155 0 -100 -4 -163 -10
-167 -7 -5 -10 149 -8 489 2 272 0 486 -4 476 -14 -37 -38 -317 -44 -495 -6
-212 -23 -383 -35 -364 -5 8 -9 31 -9 53 0 28 -4 37 -14 33 -10 -4 -14 21 -19
123 -6 116 -18 195 -49 335 -9 42 -12 46 -19 27 -20 -53 -51 -247 -58 -356 -5
-78 -11 -121 -19 -124 -7 -2 -12 -23 -12 -47 0 -67 -17 -63 -25 6 -10 83 -23
64 -40 -56 -8 -53 -16 -100 -19 -103 -10 -9 -10 915 -1 941 3 7 1 26 -5 42 -8
26 -9 27 -7 5z m145 -852 c-1 -128 -3 -160 -7 -107 -6 80 -3 289 5 289 2 0 3
-82 2 -182z m-163 -148 c11 -18 -3 -27 -35 -22 -25 3 -28 7 -19 18 13 16 45
19 54 4z m55 -20 c0 -5 -4 -10 -10 -10 -5 0 -10 5 -10 10 0 6 5 10 10 10 6 0
10 -4 10 -10z m325 0 c-3 -5 -11 -10 -16 -10 -6 0 -7 5 -4 10 3 6 11 10 16 10
6 0 7 -4 4 -10z m-288 -137 c-14 -14 -19 -15 -29 -4 -11 10 -9 15 6 27 27 20
47 0 23 -23z m273 7 c0 -18 -22 -22 -37 -7 -21 21 -8 40 18 27 10 -6 19 -15
19 -20z m-368 -25 c9 -21 9 -29 -3 -40 -12 -13 -18 -13 -33 -2 -14 10 -15 18
-7 40 13 34 28 34 43 2z m470 -1 c10 -22 10 -28 -5 -39 -9 -7 -18 -23 -18 -36
-2 -24 -2 -24 -6 -1 -2 12 -9 22 -14 22 -12 0 -12 37 1 61 15 26 28 24 42 -7z
m-306 -72 c-12 -12 -18 8 -10 35 l8 28 4 -28 c2 -16 1 -31 -2 -35z m-31 -9 c5
-12 17 -24 27 -26 10 -3 25 -22 33 -42 15 -34 35 -40 35 -10 0 8 20 35 44 61
35 36 49 44 66 39 17 -5 20 -13 18 -38 -3 -31 -5 -32 -46 -32 -49 0 -65 -15
-84 -78 l-11 -38 -19 48 c-23 61 -41 74 -90 67 l-38 -7 0 36 c0 50 45 64 65
20z m-182 -71 c15 -31 41 -78 59 -105 38 -57 33 -69 -12 -25 -50 50 -111 189
-82 188 4 -1 19 -26 35 -58z m443 -17 c-4 -18 -15 -40 -27 -51 -19 -17 -20
-17 -13 2 4 10 10 24 14 29 4 6 11 30 16 55 6 33 9 39 12 21 2 -13 1 -38 -2
-56z m121 46 c-14 -68 -96 -191 -128 -191 -12 0 2 27 53 101 21 31 43 71 49
88 14 40 34 41 26 2z m-448 -91 l13 -25 -20 20 c-21 20 -45 99 -34 110 4 4 12
-13 18 -37 6 -24 16 -54 23 -68z m77 -16 c10 -38 -1 -39 -25 -1 -26 43 -26 51
-1 37 11 -6 23 -22 26 -36z m164 2 c-24 -41 -30 -44 -30 -18 0 19 39 67 47 58
3 -3 -5 -21 -17 -40z m-399 -159 c-8 -8 -11 7 -11 49 0 79 14 93 18 18 2 -31
-2 -62 -7 -67z m619 58 c0 -42 -15 -64 -23 -33 -9 31 -9 73 0 81 10 11 23 -15
23 -48z m-370 -10 c0 -8 -4 -15 -9 -15 -13 0 -22 16 -14 24 11 11 23 6 23 -9z
m140 6 c0 -12 -20 -25 -27 -18 -7 7 6 27 18 27 5 0 9 -4 9 -9z m-287 -105 c-5
-50 -4 -55 20 -71 38 -25 48 -12 40 52 -6 56 -6 56 18 50 13 -4 30 -7 37 -7
10 0 10 -4 -1 -21 -19 -26 -11 -57 16 -61 25 -4 34 -33 16 -54 -8 -10 -15 -12
-23 -4 -5 5 -30 10 -55 10 -26 0 -51 4 -57 8 -16 11 -35 96 -28 131 10 50 23
25 17 -33z m415 -45 c-14 -52 -25 -59 -98 -63 -64 -3 -65 -2 -65 22 0 18 6 26
22 28 29 4 37 30 18 58 -14 22 -14 24 4 24 11 0 27 3 37 7 15 6 17 1 11 -49
-7 -61 -5 -68 23 -61 25 7 44 56 36 96 -3 18 -3 37 1 41 13 13 21 -65 11 -103z
m232 12 c0 -5 -9 -19 -19 -32 -22 -28 -38 -12 -19 19 12 19 38 28 38 13z
m-843 -55 c-3 -8 -6 -5 -6 6 -1 11 2 17 5 13 3 -3 4 -12 1 -19z m157 -14 c3
-8 2 -12 -4 -9 -6 3 -10 10 -10 16 0 14 7 11 14 -7z m483 -16 c-3 -8 -6 -5 -6
6 -1 11 2 17 5 13 3 -3 4 -12 1 -19z m-571 -95 c3 -22 3 -52 -1 -64 -13 -38
-247 -491 -252 -485 -4 4 69 271 103 378 13 41 20 48 57 61 38 12 42 17 50 58
4 24 5 67 2 94 l-5 50 19 -25 c11 -14 23 -44 27 -67z m689 -10 l-7 -88 117
-234 c63 -128 114 -235 112 -237 -5 -5 -228 290 -247 325 -15 28 -16 222 -1
261 5 14 12 33 15 43 13 40 17 12 11 -70z m184 26 c17 -28 30 -54 27 -56 -8
-8 -86 75 -86 91 0 32 28 15 59 -35z m-1005 23 c16 -18 14 -21 -36 -54 -115
-76 -128 -71 -41 15 32 32 58 57 59 57 0 0 8 -8 18 -18z m460 -162 c3 0 12 12
20 28 20 37 20 9 0 -30 -13 -26 -18 -28 -30 -17 -7 8 -16 30 -19 49 l-6 35 15
-32 c8 -18 17 -33 20 -33z m-201 -47 c4 -42 -2 -62 -81 -230 -47 -101 -87
-182 -88 -180 -2 2 21 80 50 173 30 93 62 195 71 227 20 70 40 75 48 10z m497
28 c0 -11 -4 -31 -10 -46 -8 -21 -5 -33 14 -63 16 -25 31 -77 46 -160 12 -68
20 -125 18 -127 -3 -3 -32 82 -65 188 -34 105 -64 200 -68 210 -6 14 -1 17 29
17 29 0 36 -4 36 -19z m-360 -111 c-8 -14 -8 -50 0 -122 5 -56 9 -103 7 -105
-2 -1 -12 43 -21 98 -15 84 -16 106 -5 125 7 13 16 24 21 24 5 0 4 -9 -2 -20z"/>
<path d="M1432 2790 c0 -19 2 -27 5 -17 2 9 2 25 0 35 -3 9 -5 1 -5 -18z"/>
<path d="M1062 2765 c0 -16 2 -22 5 -12 2 9 2 23 0 30 -3 6 -5 -1 -5 -18z"/>
<path d="M1502 2770 c0 -14 2 -19 5 -12 2 6 2 18 0 25 -3 6 -5 1 -5 -13z"/>
<path d="M1482 2665 c-7 -44 -13 -91 -13 -105 -1 -17 -4 -11 -9 15 -4 24 -8
-35 -9 -144 0 -101 2 -182 5 -179 3 4 9 78 14 165 5 87 14 188 20 225 7 37 10
75 8 85 -2 10 -9 -18 -16 -62z"/>
<path d="M1073 2660 c0 -25 2 -35 4 -22 2 12 2 32 0 45 -2 12 -4 2 -4 -23z"/>
<path d="M1442 2670 c0 -19 2 -27 5 -17 2 9 2 25 0 35 -3 9 -5 1 -5 -18z"/>
<path d="M1083 2515 c0 -33 2 -45 4 -27 2 18 2 45 0 60 -2 15 -4 0 -4 -33z"/>
<path d="M1094 2340 c0 -58 1 -81 3 -52 2 28 2 76 0 105 -2 28 -3 5 -3 -53z"/>
</g>
</svg>
