<?xml version="1.0" standalone="no"?>
<!DOCTYPE svg PUBLIC "-//W3C//DTD SVG 20010904//EN"
 "http://www.w3.org/TR/2001/REC-SVG-20010904/DTD/svg10.dtd">
<svg version="1.0" xmlns="http://www.w3.org/2000/svg"
 width="244.000000pt" height="305.000000pt" viewBox="0 0 244.000000 305.000000"
 preserveAspectRatio="xMidYMid meet">
<metadata>
Created by potrace 1.16, written by Peter Selinger 2001-2019
</metadata>
<g transform="translate(0.000000,305.000000) scale(0.100000,-0.100000)"
fill="#000000" stroke="none">
<path d="M887 2883 c-3 -16 -1 -32 4 -37 10 -11 13 -946 3 -946 -3 0 -26 14
-51 31 l-45 32 6 146 c14 297 24 411 51 561 8 47 14 96 14 110 -2 60 -48 -210
-63 -370 -3 -30 -9 -153 -12 -272 l-7 -216 34 -15 c19 -7 40 -21 48 -30 18
-23 24 -22 81 16 l49 32 -1 160 c-1 207 -20 424 -52 605 -25 139 -43 220 -50
220 -2 0 -6 -12 -9 -27z"/>
<path d="M1567 2894 c-3 -4 -3 -29 0 -58 7 -70 10 -923 2 -930 -4 -4 -25 6
-48 20 l-41 28 0 110 c0 162 17 377 45 570 14 93 23 171 21 173 -5 5 -13 -39
-36 -187 -21 -140 -26 -200 -40 -443 -10 -187 -6 -256 19 -265 9 -3 31 -18 49
-34 l34 -29 33 30 c19 16 43 32 54 36 25 8 26 24 11 315 -11 222 -31 385 -65
549 -25 118 -28 125 -38 115z"/>
<path d="M1289 2699 c0 -79 -4 -166 -7 -193 l-7 -49 -19 74 c-21 81 -22 81
-51 -26 l-14 -50 -2 45 c-2 25 -6 0 -9 -55 -5 -84 -7 -66 -10 115 l-4 215 -6
-205 c-4 -113 -8 -315 -9 -450 -1 -135 -5 -251 -9 -258 -6 -8 -13 15 -21 60
-22 133 -34 179 -45 175 -13 -4 -35 -112 -36 -172 0 -36 4 -43 34 -59 19 -10
37 -27 39 -38 6 -20 0 -85 -9 -99 -8 -13 -38 -11 -52 3 -20 20 -35 -4 -22 -38
20 -50 49 -57 82 -19 30 35 39 31 32 -14 -4 -24 -2 -41 5 -45 6 -4 11 -14 11
-23 0 -11 -6 -14 -22 -10 -23 7 -88 -17 -88 -31 0 -5 14 -12 30 -15 27 -6 30
-11 30 -42 0 -19 -4 -35 -9 -35 -35 0 -131 125 -131 170 0 15 -9 35 -19 44
-41 37 15 100 84 94 42 -3 45 -1 45 32 0 60 -109 85 -149 34 -12 -15 -21 -33
-21 -40 0 -30 -21 -22 -40 15 -22 44 -64 63 -114 54 -32 -7 -59 -43 -54 -75 3
-20 8 -22 44 -20 32 3 47 -2 72 -23 43 -36 49 -61 22 -90 -19 -20 -21 -30 -15
-61 8 -45 38 -106 75 -154 43 -56 43 -57 5 -98 -47 -52 -54 -90 -23 -119 53
-50 125 -34 99 23 -14 31 -14 67 0 81 8 8 24 6 60 -5 l49 -16 -7 -40 c-13 -84
-17 -90 -57 -97 -20 -3 -48 -12 -61 -19 -54 -29 -129 48 -132 134 0 28 -4 75
-8 104 -6 44 -12 55 -32 63 -45 17 -86 -21 -86 -80 0 -40 9 -58 102 -210 75
-123 75 -123 -60 -355 -164 -281 -181 -308 -186 -302 -3 2 9 44 25 93 16 48
46 140 66 203 20 63 40 120 44 126 4 7 26 17 50 23 50 14 62 36 62 112 0 58
-17 95 -71 161 -46 54 -78 121 -79 159 0 14 10 41 23 60 13 19 26 39 30 46 5
7 -1 21 -13 33 -28 28 -109 28 -135 0 -19 -21 -18 -46 11 -145 31 -108 8 -139
-175 -244 -68 -39 -125 -71 -127 -71 -2 0 -26 -14 -55 -30 -28 -17 -53 -29
-55 -27 -3 2 15 21 38 42 24 21 85 77 137 124 51 47 100 90 108 95 8 4 33 5
56 2 l40 -7 -7 103 c-4 57 -12 108 -18 113 -7 7 -9 -19 -5 -88 l5 -98 -32 6
c-31 6 -43 -3 -224 -165 -106 -94 -192 -176 -192 -181 0 -6 3 -8 7 -6 5 3 114
39 244 81 233 75 237 77 243 106 5 27 8 30 33 24 62 -15 122 -56 143 -99 26
-54 25 -63 -7 -71 -16 -4 -34 -11 -40 -17 -7 -5 -42 -102 -79 -216 -36 -113
-76 -239 -90 -280 -13 -41 -22 -76 -20 -78 4 -4 322 339 383 414 34 41 34 42
19 78 -9 21 -13 41 -10 46 10 16 172 11 206 -7 29 -15 30 -18 24 -61 -3 -25
-11 -52 -17 -59 -7 -8 -8 -25 -4 -41 4 -16 6 -67 6 -115 -1 -51 3 -89 9 -93 7
-4 9 8 5 37 -5 37 -4 40 5 18 6 -14 13 -36 15 -50 5 -36 85 -414 88 -417 2 -1
16 60 31 135 16 75 38 180 50 232 l22 95 14 -90 c14 -85 15 -87 18 -41 2 28
-2 60 -8 72 -9 16 -9 51 -2 135 7 71 7 118 1 123 -5 6 -10 26 -10 45 l-1 36
-8 -30 c-5 -24 -8 -27 -14 -13 -13 28 -3 51 33 75 29 20 47 23 121 23 48 0 89
-3 93 -6 3 -3 -1 -24 -9 -46 -11 -33 -12 -44 -2 -57 34 -44 391 -431 394 -428
2 2 -5 30 -15 63 -11 32 -47 149 -81 259 -77 251 -72 241 -114 255 -42 14 -47
37 -17 87 23 36 97 83 137 86 22 2 29 -3 34 -23 5 -21 20 -30 95 -56 147 -51
387 -126 391 -121 4 4 -83 85 -279 261 -91 81 -101 88 -131 82 l-32 -6 3 92
c2 63 0 87 -6 73 -5 -11 -10 -36 -10 -55 -1 -19 -8 -57 -16 -84 -8 -27 -15
-53 -15 -57 0 -10 68 -56 210 -142 63 -38 130 -79 148 -89 42 -26 35 -34 -15
-18 -89 29 -309 112 -318 121 -5 6 -5 13 3 21 19 19 14 44 -13 58 -41 22 -52
76 -30 157 28 108 30 131 10 153 -24 26 -94 27 -125 2 l-23 -19 27 -45 c45
-77 32 -140 -49 -241 -55 -69 -86 -142 -88 -212 -1 -24 33 -92 130 -266 73
-128 129 -236 127 -239 -3 -3 -11 3 -18 13 -7 9 -38 45 -68 80 -210 238 -219
250 -212 287 3 19 7 71 8 116 l2 80 77 129 c60 100 77 136 77 166 0 51 -29 81
-73 77 -29 -3 -33 -7 -40 -48 -4 -25 -9 -70 -11 -101 -2 -60 -19 -95 -65 -135
-30 -27 -50 -30 -77 -9 -10 8 -33 15 -51 15 -21 0 -33 6 -36 18 -4 16 -5 16
-6 0 -3 -54 -41 17 -41 78 0 33 6 38 92 64 43 13 55 -9 39 -72 -11 -42 -11
-52 0 -59 22 -13 41 -11 77 11 45 28 44 72 -3 127 -19 23 -35 45 -35 49 0 4
18 30 40 59 63 82 90 186 55 215 -23 19 -18 39 20 77 31 31 40 34 77 31 42 -3
43 -2 41 26 -6 88 -123 97 -168 13 -11 -21 -22 -37 -25 -37 -3 0 -12 16 -19
36 -27 74 -128 79 -157 7 -8 -19 -12 -38 -9 -43 3 -5 26 -7 50 -3 38 5 47 2
69 -20 29 -29 33 -58 12 -76 -7 -6 -16 -27 -19 -47 -10 -58 -127 -198 -127
-152 0 7 -3 23 -6 36 -5 17 -2 22 12 22 11 0 25 4 33 9 27 17 -6 41 -56 41
l-45 0 7 38 c4 20 7 51 6 67 l-2 30 30 -32 c34 -38 38 -39 69 -17 28 20 32 81
5 69 -37 -16 -56 -10 -66 18 -16 48 -1 93 40 117 35 21 35 21 29 73 -12 94
-28 167 -37 162 -8 -5 -20 -58 -40 -177 -6 -38 -14 -66 -19 -63 -12 7 -23 274
-26 633 -1 184 -5 336 -8 339 -3 4 -6 -59 -7 -138z m-68 -499 c-4 -247 -7
-299 -12 -215 l-6 110 1 -140 c1 -77 0 -130 -2 -117 -5 33 -20 27 -24 -10 l-3
-33 -6 37 c-2 20 -2 35 1 33 3 -2 6 74 6 168 1 95 7 217 13 272 11 100 33 227
37 222 1 -1 -1 -148 -5 -327z m-16 -497 c-3 -42 -2 -50 4 -28 8 28 9 26 10
-17 1 -38 -2 -46 -14 -42 -27 11 -32 144 -5 144 6 0 8 -23 5 -57z m-278 -131
c24 -51 72 -106 131 -149 42 -32 53 -44 46 -55 -5 -8 -62 22 -110 57 -41 31
-93 114 -101 159 -8 50 8 44 34 -12z m653 26 c0 -31 -52 -120 -97 -164 -42
-42 -116 -80 -122 -62 -2 7 6 19 19 27 60 41 140 126 161 171 26 54 39 63 39
28z m-303 -45 c-3 -10 -5 -2 -5 17 0 19 2 27 5 18 2 -10 2 -26 0 -35z m-100
15 c-3 -8 -6 -5 -6 6 -1 11 2 17 5 13 3 -3 4 -12 1 -19z m20 -15 c-3 -10 -5
-4 -5 12 0 17 2 24 5 18 2 -7 2 -21 0 -30z m40 -70 c-3 -10 -5 -2 -5 17 0 19
2 27 5 18 2 -10 2 -26 0 -35z m26 27 c-3 -12 -8 -19 -11 -16 -5 6 5 36 12 36
2 0 2 -9 -1 -20z m-94 -83 c4 -31 4 -75 1 -99 -6 -35 -8 -28 -9 41 -1 72 -3
82 -17 77 -12 -5 -15 -2 -10 10 3 8 6 23 6 32 0 37 22 -8 29 -61z m171 28 c0
-16 -2 -17 -9 -6 -12 19 -20 -10 -24 -94 l-3 -60 -2 71 c-2 77 14 146 29 122
5 -7 9 -22 9 -33z m-203 -97 c-3 -8 -6 -5 -6 6 -1 11 2 17 5 13 3 -3 4 -12 1
-19z m-33 -163 c-3 -14 -2 -31 4 -38 7 -8 6 -16 -4 -25 -12 -11 -14 -7 -14 22
0 34 8 66 16 66 3 0 2 -11 -2 -25z m197 -16 c-6 -16 -10 -18 -10 -7 -1 22 12
55 16 42 2 -6 -1 -22 -6 -35z m26 19 c-3 -8 -6 -5 -6 6 -1 11 2 17 5 13 3 -3
4 -12 1 -19z m-149 -24 c-3 -14 -5 -12 -10 9 -3 19 -2 25 4 19 6 -6 8 -18 6
-28z m-43 -93 c3 -6 -4 -9 -15 -8 -11 1 -20 5 -20 9 0 11 28 10 35 -1z m235 0
c0 -12 -28 -22 -34 -12 -3 5 -3 11 1 15 9 9 33 7 33 -3z m-133 -163 c-3 -8 -6
-5 -6 6 -1 11 2 17 5 13 3 -3 4 -12 1 -19z m-21 -211 c0 -100 3 -236 6 -302 4
-66 4 -109 1 -95 -2 14 -20 93 -38 175 -35 159 -53 304 -39 326 6 10 10 7 15
-11 7 -24 7 -24 8 5 1 17 11 43 23 58 12 15 22 27 22 27 1 0 1 -82 2 -183z"/>
<path d="M1182 1920 c0 -14 2 -19 5 -12 2 6 2 18 0 25 -3 6 -5 1 -5 -13z"/>
<path d="M1152 740 c0 -14 2 -19 5 -12 2 6 2 18 0 25 -3 6 -5 1 -5 -13z"/>
<path d="M1314 2395 c0 -49 1 -71 3 -48 2 23 2 64 0 90 -2 26 -3 8 -3 -42z"/>
<path d="M1377 1294 c-4 -4 -7 -14 -7 -23 0 -11 3 -12 11 -4 6 6 10 16 7 23
-2 6 -7 8 -11 4z"/>
<path d="M1391 1234 c0 -11 3 -14 6 -6 3 7 2 16 -1 19 -3 4 -6 -2 -5 -13z"/>
<path d="M1107 513 c-4 -3 -7 -22 -6 -42 l1 -36 9 39 c9 39 8 52 -4 39z"/>
</g>
</svg>
