<?xml version="1.0" standalone="no"?>
<!DOCTYPE svg PUBLIC "-//W3C//DTD SVG 20010904//EN"
 "http://www.w3.org/TR/2001/REC-SVG-20010904/DTD/svg10.dtd">
<svg version="1.0" xmlns="http://www.w3.org/2000/svg"
 width="244.000000pt" height="305.000000pt" viewBox="0 0 244.000000 305.000000"
 preserveAspectRatio="xMidYMid meet">
<metadata>
Created by potrace 1.16, written by Peter Selinger 2001-2019
</metadata>
<g transform="translate(0.000000,305.000000) scale(0.100000,-0.100000)"
fill="#000000" stroke="none">
<path d="M882 2808 c-50 -245 -72 -467 -72 -736 0 -136 2 -153 18 -159 9 -3
31 -19 48 -35 l31 -29 32 30 c18 16 41 33 53 37 21 6 21 9 14 229 -3 122 -11
269 -16 325 -11 111 -50 353 -57 346 -2 -2 7 -82 21 -177 26 -177 55 -624 43
-670 -5 -20 -38 -47 -79 -67 -5 -2 -8 214 -8 480 0 348 3 479 11 468 9 -12 10
-12 5 3 -3 10 -6 27 -6 38 0 10 -4 19 -8 19 -5 0 -18 -46 -30 -102z"/>
<path d="M1532 2798 c-46 -226 -72 -496 -72 -766 0 -107 1 -113 23 -121 12 -5
31 -18 41 -30 23 -25 49 -27 67 -5 7 8 25 22 41 30 l28 15 0 137 c0 239 -34
588 -70 722 l-10 35 5 -40 c3 -22 14 -101 25 -175 17 -118 39 -447 40 -596 0
-49 -2 -53 -40 -78 -22 -14 -42 -26 -45 -26 -3 0 -5 217 -4 483 1 294 4 472
10 457 7 -21 8 -20 4 9 -3 18 -5 37 -5 42 0 5 -4 9 -9 9 -4 0 -18 -46 -29
-102z"/>
<path d="M1110 2475 c-1 -308 -5 -411 -12 -387 -20 61 -26 46 -44 -127 l-7
-63 37 -34 c26 -23 36 -41 35 -61 l0 -28 -11 25 c-20 50 -26 55 -64 61 -56 10
-99 -11 -115 -55 -16 -44 -23 -45 -39 -7 -18 46 -47 66 -92 66 -47 0 -81 -33
-76 -74 3 -23 7 -25 44 -23 34 3 45 -1 72 -29 34 -35 42 -73 17 -83 -36 -13
-5 -132 56 -213 21 -29 39 -55 39 -58 0 -4 -16 -26 -35 -49 -19 -24 -35 -54
-35 -67 0 -35 25 -66 60 -74 26 -6 28 -9 20 -26 -12 -21 -40 -26 -40 -6 0 7
-10 17 -22 22 -31 14 -64 81 -49 99 8 10 8 21 1 40 -5 15 -10 41 -10 57 0 46
-17 69 -49 69 -40 0 -61 -28 -61 -81 0 -36 11 -63 61 -147 56 -95 84 -172 62
-172 -5 0 -15 23 -22 50 -8 31 -29 70 -55 101 -94 116 -108 176 -61 262 l26
45 -23 16 c-31 22 -101 21 -121 -2 -21 -23 -21 -52 0 -122 31 -105 25 -155
-23 -196 -23 -18 -24 -23 -13 -47 7 -15 10 -29 8 -31 -4 -3 -78 -31 -281 -107
-43 -16 -78 -25 -78 -21 0 4 35 29 77 55 95 58 296 187 303 193 2 3 -4 33 -13
68 -9 36 -17 79 -17 98 0 18 -5 40 -11 48 -8 11 -9 -11 -6 -78 l5 -93 -29 6
c-35 8 -45 1 -151 -100 -206 -195 -259 -247 -255 -251 2 -2 109 32 237 76 128
44 235 80 237 80 2 0 3 11 3 24 0 33 10 37 53 24 49 -15 106 -64 124 -105 16
-40 12 -49 -32 -67 -27 -12 -36 -23 -45 -58 -7 -24 -25 -83 -40 -133 -16 -49
-42 -137 -60 -195 -17 -58 -38 -125 -46 -149 -8 -25 -12 -46 -11 -48 6 -5 84
83 331 370 65 75 67 79 57 109 -22 62 -17 68 49 68 55 0 60 -2 61 -22 l0 -23
9 22 c10 25 40 31 40 9 0 -8 -16 -90 -35 -183 -19 -92 -35 -172 -36 -178 -1
-5 -5 1 -10 15 -6 19 -8 13 -4 -23 3 -30 1 -46 -5 -42 -6 4 -10 -11 -10 -36 0
-23 2 -40 4 -38 2 2 27 76 56 164 29 88 56 163 60 168 3 4 23 -79 44 -185 79
-404 90 -452 96 -427 4 13 33 158 66 321 32 163 60 295 62 293 2 -2 33 -88 68
-192 73 -215 73 -215 29 130 -15 120 -25 220 -22 223 5 5 55 8 96 6 21 -2 23
-5 17 -38 -4 -19 -9 -41 -12 -48 -3 -7 13 -33 34 -57 34 -39 142 -162 234
-269 71 -82 118 -132 118 -126 0 4 -14 53 -31 109 -17 56 -53 179 -81 272 -27
94 -54 175 -59 181 -5 7 -23 14 -40 18 -29 6 -31 8 -25 38 13 63 70 117 143
132 28 7 32 5 38 -22 6 -28 14 -32 232 -105 125 -42 228 -75 230 -73 3 3 -83
88 -274 270 -79 76 -83 78 -119 72 -30 -6 -36 -5 -31 7 12 32 19 154 9 161
-10 6 -19 -54 -25 -164 l-2 -35 45 3 45 2 140 -136 140 -136 -70 38 c-160 86
-307 183 -326 213 -25 41 -24 92 1 165 21 59 20 85 -6 111 -21 21 -87 19 -114
-3 l-23 -19 27 -45 c46 -79 36 -132 -50 -244 -48 -63 -56 -80 -61 -129 -6 -57
-6 -57 -20 -30 -19 35 -12 61 43 151 57 94 74 135 74 177 0 39 -25 67 -61 67
-35 0 -49 -18 -49 -63 0 -21 -5 -47 -10 -57 -6 -11 -7 -28 -1 -42 9 -26 2 -51
-28 -88 -26 -32 -37 -20 -17 19 24 45 20 69 -19 117 -19 23 -35 47 -35 52 0 5
15 29 33 53 68 89 95 179 63 211 -25 25 -19 51 18 87 28 28 40 32 72 29 37 -3
39 -2 37 26 -3 41 -30 66 -70 66 -48 0 -70 -14 -94 -62 l-21 -42 -14 40 c-8
21 -14 40 -14 42 0 11 -71 29 -98 25 -32 -5 -32 -5 -21 20 9 19 9 49 0 120 -6
52 -16 234 -22 403 -17 496 -26 504 -28 28 -1 -415 -4 -494 -21 -494 -14 0
-21 48 -30 208 -9 149 -33 314 -60 412 -12 43 -13 44 -22 20 -30 -80 -67 -333
-70 -482 0 -46 -5 34 -10 177 -4 143 -14 341 -22 440 l-13 180 -3 -420z m165
-140 c13 -103 15 -163 9 -285 -6 -129 -9 -146 -15 -100 -6 51 -19 523 -13 518
1 -2 10 -61 19 -133z m-128 -457 c-3 -7 -5 -2 -5 12 0 14 2 19 5 13 2 -7 2
-19 0 -25z m193 6 c0 -8 -4 -14 -10 -14 -5 0 -10 9 -10 21 0 11 5 17 10 14 6
-3 10 -13 10 -21z m-46 -69 c-4 -36 -3 -55 4 -55 5 0 8 -9 5 -20 -11 -42 -23
-17 -23 48 0 60 4 82 17 82 2 0 0 -25 -3 -55z m67 -22 c-9 -16 -10 -16 -11 4
0 12 3 30 7 40 7 16 8 16 11 -4 2 -12 -1 -30 -7 -40z m-281 -50 c13 -14 12
-15 -12 -9 -15 3 -29 2 -32 -3 -9 -14 13 -63 34 -78 24 -17 26 -51 4 -82 -15
-21 -15 -23 4 -36 20 -15 35 -62 21 -70 -4 -3 -17 7 -28 22 -12 16 -35 42 -51
60 -18 19 -32 48 -36 72 -4 22 -13 46 -20 52 -21 17 -17 47 11 75 21 21 31 24
58 19 18 -4 39 -14 47 -22z m415 2 c28 -27 32 -57 11 -74 -7 -6 -16 -29 -20
-51 -3 -22 -17 -52 -30 -67 -14 -16 -38 -44 -55 -63 l-30 -35 -1 32 c0 21 7
37 21 47 20 14 20 16 5 37 -21 31 -20 65 2 81 21 15 48 76 38 85 -4 4 -16 1
-27 -6 -30 -18 -38 -3 -10 20 32 26 67 24 96 -6z m-322 -137 c24 -19 13 -43
-15 -33 -16 7 -31 99 -19 120 3 6 7 -8 9 -30 2 -27 10 -46 25 -57z m166 75 c0
-10 -4 -27 -9 -38 -7 -16 -9 -13 -9 18 -1 20 4 37 9 37 6 0 10 -8 9 -17z m-48
-23 c5 0 9 -7 9 -15 0 -8 -7 -15 -15 -15 -10 0 -15 10 -14 33 1 17 3 24 6 15
2 -10 9 -18 14 -18z m-371 -48 c0 -5 16 -34 35 -66 19 -32 35 -68 35 -79 0
-20 0 -20 -21 -1 -39 36 -85 154 -60 154 6 0 11 -4 11 -8z m197 -14 c-3 -8 -6
-5 -6 6 -1 11 2 17 5 13 3 -3 4 -12 1 -19z m200 -15 c-16 -17 -37 -10 -37 12
0 15 43 25 49 12 2 -5 -4 -16 -12 -24z m248 5 c-8 -37 -46 -108 -69 -127 -12
-10 -14 -9 -9 11 8 34 67 148 76 148 5 0 6 -15 2 -32z m-316 -62 c-1 -6 -5
-22 -9 -36 -7 -23 -8 -23 -9 -3 -1 12 -3 28 -6 36 -4 8 0 14 10 14 8 0 15 -5
14 -11z m96 -33 c-9 -36 -44 -113 -51 -113 -9 0 2 39 26 93 23 52 36 62 25 20z
m-195 -23 c11 -21 20 -50 19 -62 0 -18 -4 -15 -18 17 -38 85 -39 119 -1 45z
m-100 -50 c0 -11 -4 -20 -10 -20 -5 0 -10 9 -10 20 0 11 5 20 10 20 6 0 10 -9
10 -20z m390 -2 c0 -18 -2 -20 -9 -8 -6 8 -7 18 -5 22 9 14 14 9 14 -14z
m-321 -32 c8 -10 9 -16 1 -21 -13 -8 -30 3 -30 21 0 18 14 18 29 0z m261 0 c0
-16 -18 -31 -27 -22 -8 8 5 36 17 36 5 0 10 -6 10 -14z m-379 -104 c-9 -25 -9
-24 -10 18 0 36 2 41 10 27 7 -12 7 -27 0 -45z m58 -9 c6 -27 14 -59 17 -72 5
-16 3 -22 -3 -18 -6 4 -16 28 -22 54 -7 27 -14 56 -17 66 -3 9 -1 17 4 17 6 0
15 -21 21 -47z m111 32 c0 -8 -7 -15 -15 -15 -9 0 -12 6 -9 15 4 8 10 15 15
15 5 0 9 -7 9 -15z m154 0 c3 -9 0 -15 -9 -15 -16 0 -27 14 -18 24 10 10 21 7
27 -9z m101 -62 c-21 -77 -33 -69 -15 10 14 58 20 71 28 63 3 -3 -3 -36 -13
-73z m52 30 c-3 -10 -5 -2 -5 17 0 19 2 27 5 18 2 -10 2 -26 0 -35z m-358 -66
c7 -7 16 -6 26 3 12 10 18 10 30 0 8 -7 15 -16 15 -20 0 -12 -61 -41 -71 -34
-13 7 -29 75 -28 114 1 34 1 34 10 -9 5 -25 13 -49 18 -54z m257 18 c-4 -23
-12 -50 -19 -59 -11 -16 -15 -16 -45 -1 -35 18 -42 42 -16 52 10 4 22 -1 30
-12 8 -10 15 -17 18 -14 14 16 26 53 27 81 1 19 3 25 6 14 3 -10 2 -37 -1 -61z
m148 -51 c10 -26 -5 -39 -21 -19 -7 11 -13 22 -13 27 0 15 28 8 34 -8z m-756
-481 c-68 -80 -133 -157 -145 -172 -31 -36 -28 -20 5 42 16 29 46 84 67 122
21 39 50 93 65 120 15 28 40 75 55 105 16 30 36 63 45 74 14 17 16 12 23 -64
l7 -82 -122 -145z m885 267 c12 0 39 -5 59 -10 32 -9 38 -16 51 -58 73 -228
118 -384 114 -388 -7 -8 -266 460 -259 470 3 6 7 5 10 -2 2 -7 13 -12 25 -12z
m-410 -31 c-4 -15 -8 -17 -14 -8 -6 11 4 28 18 29 0 0 -1 -9 -4 -21z m161 -71
c52 -241 73 -357 61 -333 -2 6 -26 80 -53 166 -34 112 -47 168 -44 198 2 22 8
41 12 41 5 0 16 -33 24 -72z m-246 20 c11 -14 10 -20 -10 -38 l-23 -21 -6 43
c-10 65 -2 68 39 16z m197 -18 c0 -28 -3 -50 -7 -50 -4 0 -16 12 -27 26 l-20
26 21 29 c12 16 24 26 27 24 3 -3 5 -28 6 -55z m-15 -83 c0 -11 -7 -49 -15
-86 -8 -36 -26 -118 -40 -181 l-25 -115 8 135 c9 171 8 288 -2 320 -8 22 -4
20 33 -15 22 -21 41 -48 41 -58z"/>
<path d="M1342 2720 c0 -14 2 -19 5 -12 2 6 2 18 0 25 -3 6 -5 1 -5 -13z"/>
<path d="M1332 2585 c0 -16 2 -22 5 -12 2 9 2 23 0 30 -3 6 -5 -1 -5 -18z"/>
<path d="M1083 2490 c0 -30 2 -43 4 -27 2 15 2 39 0 55 -2 15 -4 2 -4 -28z"/>
<path d="M1322 2315 c0 -16 2 -22 5 -12 2 9 2 23 0 30 -3 6 -5 -1 -5 -18z"/>
<path d="M1324 2190 c0 -52 1 -74 3 -47 2 26 2 68 0 95 -2 26 -3 4 -3 -48z"/>
<path d="M1022 830 c0 -19 2 -27 5 -17 2 9 2 25 0 35 -3 9 -5 1 -5 -18z"/>
<path d="M1013 745 c0 -22 2 -30 4 -17 2 12 2 30 0 40 -3 9 -5 -1 -4 -23z"/>
<path d="M1003 655 c0 -22 2 -30 4 -17 2 12 2 30 0 40 -3 9 -5 -1 -4 -23z"/>
</g>
</svg>
