<?xml version="1.0" standalone="no"?>
<!DOCTYPE svg PUBLIC "-//W3C//DTD SVG 20010904//EN"
 "http://www.w3.org/TR/2001/REC-SVG-20010904/DTD/svg10.dtd">
<svg version="1.0" xmlns="http://www.w3.org/2000/svg"
 width="244.000000pt" height="305.000000pt" viewBox="0 0 244.000000 305.000000"
 preserveAspectRatio="xMidYMid meet">
<metadata>
Created by potrace 1.16, written by Peter Selinger 2001-2019
</metadata>
<g transform="translate(0.000000,305.000000) scale(0.100000,-0.100000)"
fill="#000000" stroke="none">
<path d="M882 2869 c-57 -217 -91 -522 -92 -822 l0 -127 28 -11 c15 -6 39 -22
54 -36 l26 -25 22 25 c12 14 36 31 53 38 l30 13 -7 228 c-7 232 -22 392 -52
550 -26 131 -29 98 -5 -49 24 -147 39 -321 48 -543 l5 -155 -42 -28 c-23 -15
-46 -25 -51 -21 -13 8 -12 951 2 956 6 2 7 12 1 27 -8 22 -9 21 -20 -20z"/>
<path d="M1566 2877 c-52 -186 -81 -426 -92 -749 l-7 -207 34 -14 c19 -8 40
-21 48 -30 18 -23 22 -22 82 15 l52 33 -6 225 c-6 196 -21 379 -42 507 -17 98
-28 96 -14 -2 25 -176 39 -324 45 -486 7 -182 3 -229 -20 -229 -7 0 -21 -9
-31 -20 -45 -50 -45 -48 -45 443 0 254 4 477 9 494 5 18 6 35 1 38 -4 3 -11
-5 -14 -18z"/>
<path d="M912 2825 c0 -16 2 -22 5 -12 2 9 2 23 0 30 -3 6 -5 -1 -5 -18z"/>
<path d="M1602 2775 c0 -16 2 -22 5 -12 2 9 2 23 0 30 -3 6 -5 -1 -5 -18z"/>
<path d="M1251 2595 c-2 -26 -3 -28 -11 -10 -7 17 -9 17 -9 3 -1 -10 -5 -18
-11 -18 -5 0 -10 -9 -10 -21 0 -11 -9 -64 -19 -117 -21 -104 -41 -346 -41
-492 0 -96 -15 -121 -25 -42 -10 67 -36 196 -41 202 -10 10 -22 -26 -33 -97
-16 -107 -15 -111 23 -134 38 -22 52 -59 41 -110 -8 -33 -30 -48 -48 -30 -20
20 -37 12 -37 -18 0 -32 22 -61 46 -61 8 0 25 11 38 25 32 34 39 31 31 -14 -6
-34 -4 -40 14 -46 33 -10 81 -88 80 -127 -2 -33 -2 -33 -6 -4 -4 22 -7 26 -14
15 -6 -10 -9 -6 -9 15 0 16 -3 26 -7 23 -3 -4 -12 2 -20 13 -20 29 -72 40
-105 23 -16 -7 -28 -18 -28 -23 0 -5 12 -12 28 -15 15 -4 34 -10 42 -14 28
-14 49 -74 52 -151 3 -71 2 -75 -20 -78 -48 -7 -46 -65 3 -74 13 -2 20 -11 20
-27 0 -22 -6 -28 -55 -51 -17 -8 -14 -41 3 -52 7 -4 22 -8 35 -8 15 0 22 -6
22 -20 0 -11 4 -28 9 -38 5 -9 15 -32 22 -50 16 -43 41 -38 53 11 5 20 13 37
18 37 4 0 8 13 8 29 0 25 5 30 36 35 31 6 35 10 32 34 -2 19 -10 28 -25 30
-27 4 -54 38 -46 58 3 8 16 14 29 14 17 0 25 7 30 26 7 28 -1 40 -31 46 -25 4
-31 56 -15 133 14 68 40 101 85 109 39 8 45 20 16 36 -50 26 -131 -5 -144 -56
-4 -16 -5 -15 -6 4 -2 40 25 90 51 94 20 3 23 8 21 46 -2 48 5 52 35 17 33
-38 58 -32 80 19 15 33 1 59 -20 38 -15 -15 -45 -15 -54 0 -4 6 -7 32 -6 57 0
40 5 50 37 77 l38 31 -8 59 c-10 90 -26 155 -35 149 -4 -3 -13 -35 -20 -72
-24 -140 -32 -173 -39 -173 -4 0 -11 88 -15 195 -4 132 -14 243 -31 343 -13
81 -26 165 -28 187 -3 32 -4 34 -6 10z m8 -440 c3 253 3 258 16 182 15 -87 35
-432 35 -594 0 -91 -2 -105 -17 -109 -10 -3 -22 -5 -28 -4 -5 1 -13 -9 -17
-22 -3 -13 -6 18 -5 69 1 50 5 89 9 86 5 -2 8 18 8 46 0 27 -4 53 -10 56 -6 4
-9 125 -8 338 l3 332 5 -320 5 -320 4 260z"/>
<path d="M745 1860 c-31 -12 -47 -36 -43 -65 3 -25 7 -27 49 -29 51 -2 73 -15
95 -57 12 -25 12 -30 -3 -45 -38 -38 -20 -119 46 -209 21 -27 40 -55 44 -62 4
-6 -8 -30 -27 -52 -45 -54 -52 -76 -31 -107 21 -32 57 -48 90 -40 24 6 26 10
20 34 -26 106 -17 118 74 89 44 -13 69 -17 80 -10 26 16 24 32 -6 44 -84 32
-137 66 -173 109 -42 51 -70 106 -70 140 0 32 15 23 29 -17 18 -50 114 -149
174 -179 43 -23 48 -23 54 -7 5 12 -3 24 -27 42 -66 49 -130 125 -141 166 -15
54 -16 57 -35 82 -15 21 -15 24 15 54 29 28 37 31 76 26 44 -4 45 -4 45 24 0
16 -9 37 -21 48 -50 46 -112 31 -143 -34 -17 -37 -20 -38 -30 -21 -37 64 -94
94 -141 76z"/>
<path d="M1435 1855 c-36 -20 -45 -32 -45 -67 0 -27 1 -27 43 -22 36 5 47 2
69 -17 37 -34 44 -65 18 -79 -13 -7 -20 -21 -20 -38 0 -16 -13 -48 -28 -73
-29 -44 -95 -109 -112 -109 -14 0 -43 -48 -36 -59 26 -41 236 151 236 214 0 8
5 15 10 15 21 0 9 -58 -21 -106 -52 -83 -118 -132 -222 -168 -21 -7 -19 -25 6
-40 12 -8 34 -5 83 11 37 12 71 20 76 17 12 -7 10 -52 -4 -91 -6 -18 -9 -36
-5 -40 15 -14 82 -2 104 19 33 31 28 61 -17 113 -23 26 -37 52 -33 58 4 7 19
28 34 47 44 56 67 104 74 155 7 40 5 48 -14 61 -30 21 -26 42 15 80 29 28 43
34 80 34 40 0 44 2 44 25 0 39 -33 65 -84 65 -37 0 -48 -5 -70 -31 -14 -17
-26 -37 -26 -45 0 -25 -19 -15 -33 19 -25 58 -72 78 -122 52z"/>
<path d="M572 1524 c-28 -19 -28 -59 -2 -134 11 -30 19 -75 20 -99 0 -37 -5
-48 -36 -76 -31 -28 -34 -36 -25 -53 17 -31 14 -38 -21 -49 -18 -6 -98 -34
-177 -62 -133 -48 -201 -62 -141 -31 14 7 103 60 198 118 188 116 183 110 157
196 -8 27 -15 65 -15 85 0 20 -5 43 -11 51 -7 11 -9 -12 -6 -83 l4 -97 -33 6
c-27 5 -38 1 -66 -24 -204 -181 -349 -317 -342 -319 5 -2 102 27 214 63 113
36 220 70 238 76 25 7 32 14 32 33 0 35 16 39 68 20 57 -21 100 -58 119 -103
17 -40 7 -57 -36 -67 -32 -7 -22 19 -131 -325 -33 -107 -65 -207 -70 -223 -5
-15 -6 -27 -2 -27 4 0 41 37 82 82 69 76 148 162 225 244 87 92 108 124 94
145 -5 7 -9 26 -9 42 l0 27 89 0 c75 0 93 -3 121 -22 56 -39 59 -53 22 -91
-33 -34 -33 -35 -23 -88 12 -66 61 -303 96 -463 14 -65 25 -123 26 -130 2 -25
31 102 85 367 l56 279 -31 32 c-17 18 -31 37 -31 43 0 7 17 25 37 40 33 26 45
28 136 31 l100 4 -7 -29 c-20 -80 -25 -69 110 -218 70 -77 161 -176 202 -220
73 -78 75 -79 68 -45 -3 19 -34 121 -67 225 -33 105 -69 215 -78 245 -15 46
-24 58 -55 75 -21 11 -38 23 -37 28 0 4 1 17 1 29 0 31 77 101 128 116 49 15
62 10 62 -23 0 -21 12 -27 133 -65 72 -23 183 -58 245 -79 61 -21 112 -35 112
-31 0 4 -62 63 -137 132 -255 231 -242 220 -278 214 l-32 -6 4 97 c5 128 -12
103 -21 -30 l-7 -98 45 6 46 7 88 -78 c48 -43 114 -105 147 -137 l60 -59 -85
45 c-185 98 -305 173 -327 207 -28 41 -29 70 -3 145 11 32 20 69 20 82 0 53
-71 80 -135 51 -31 -14 -31 -32 0 -83 42 -67 28 -129 -46 -213 -55 -63 -79
-112 -79 -165 0 -76 15 -102 67 -118 l47 -15 68 -204 c38 -113 67 -212 65
-220 -3 -10 -7 -7 -16 10 -6 14 -24 46 -40 72 -16 25 -41 66 -55 91 -14 25
-36 63 -49 84 -73 116 -129 220 -134 249 -7 45 6 77 76 190 34 53 66 117 73
141 9 39 8 48 -9 71 -21 29 -66 40 -87 23 -14 -11 -25 -77 -29 -161 -2 -35
-10 -56 -35 -87 -40 -51 -62 -59 -104 -39 -17 9 -51 16 -76 16 -42 0 -44 -1
-38 -24 10 -39 -9 -74 -41 -78 -24 -3 -29 -9 -39 -54 -6 -28 -21 -65 -33 -81
-20 -27 -21 -33 -10 -52 8 -11 17 -21 21 -21 3 0 20 -17 37 -39 l31 -39 -45
-208 c-25 -115 -50 -225 -54 -244 -6 -22 -9 76 -10 270 -2 307 -5 340 -38 340
-12 0 -27 36 -41 90 -6 26 -14 36 -33 39 -31 4 -39 17 -39 64 0 37 -1 37 -40
37 -21 0 -55 -8 -74 -17 -44 -21 -72 -10 -112 43 -22 29 -29 49 -30 88 -2 67
-14 138 -27 154 -14 18 -51 15 -78 -7 -41 -33 -31 -83 42 -208 90 -155 91
-156 94 -246 1 -45 5 -93 9 -107 5 -21 -8 -41 -91 -136 -54 -61 -122 -139
-152 -173 -30 -34 -56 -60 -58 -57 -4 3 27 59 140 256 126 221 130 234 98 337
-15 50 -34 83 -71 127 -84 97 -99 159 -55 224 30 44 32 68 6 82 -29 15 -93 12
-119 -6z"/>
<path d="M1257 693 c3 -49 7 -90 9 -92 2 -2 4 37 4 87 0 51 -4 92 -9 92 -5 0
-6 -39 -4 -87z"/>
<path d="M1262 520 c0 -14 2 -19 5 -12 2 6 2 18 0 25 -3 6 -5 1 -5 -13z"/>
</g>
</svg>
