<?xml version="1.0" standalone="no"?>
<!DOCTYPE svg PUBLIC "-//W3C//DTD SVG 20010904//EN"
 "http://www.w3.org/TR/2001/REC-SVG-20010904/DTD/svg10.dtd">
<svg version="1.0" xmlns="http://www.w3.org/2000/svg"
 width="244.000000pt" height="305.000000pt" viewBox="0 0 244.000000 305.000000"
 preserveAspectRatio="xMidYMid meet">
<metadata>
Created by potrace 1.16, written by Peter Selinger 2001-2019
</metadata>
<g transform="translate(0.000000,305.000000) scale(0.100000,-0.100000)"
fill="#000000" stroke="none">
<path d="M898 2905 c-11 -18 -56 -258 -73 -385 -20 -154 -33 -600 -17 -600 6
0 31 -15 55 -34 l45 -34 22 23 c12 13 35 29 51 35 28 12 29 15 29 74 -1 237
-32 599 -64 741 -20 86 -19 56 3 -97 27 -184 41 -363 41 -532 l0 -143 -40 -27
c-22 -14 -42 -26 -45 -26 -3 0 -5 217 -4 483 0 420 2 477 14 442 l14 -40 -6
40 c-9 60 -19 90 -25 80z"/>
<path d="M1331 2860 c-1 -25 -1 -247 -1 -495 0 -247 -2 -447 -4 -444 -7 7 -14
151 -15 314 -1 78 -5 125 -10 116 -6 -9 -11 4 -16 40 -7 52 -41 198 -48 206
-6 5 -36 -110 -48 -187 -7 -40 -15 -66 -19 -58 -4 7 -10 115 -14 241 -12 393
-21 285 -19 -216 1 -279 -2 -469 -7 -452 -5 17 -16 65 -25 108 -10 43 -21 75
-25 70 -12 -12 -30 -118 -30 -174 0 -38 4 -51 20 -59 11 -6 20 -20 20 -32 0
-21 0 -21 -25 2 -49 46 -118 26 -145 -41 -13 -31 -30 -39 -30 -14 0 8 -13 29
-28 46 -54 60 -152 37 -152 -36 0 -32 0 -33 43 -28 38 5 47 2 75 -27 34 -33
42 -74 17 -84 -36 -13 -1 -139 60 -215 19 -24 35 -48 35 -53 0 -5 -16 -30 -35
-55 -59 -77 -43 -122 52 -143 30 -7 33 -6 44 27 6 19 8 37 5 40 -3 4 -6 1 -6
-6 0 -7 -4 -9 -10 -6 -12 8 -13 82 -1 89 14 9 41 -4 41 -20 0 -8 -4 -14 -10
-14 -16 0 -12 -27 5 -34 11 -4 15 3 16 27 l2 32 4 -29 c10 -63 -35 -151 -66
-132 -5 3 -11 -1 -15 -9 -10 -26 -37 -16 -83 29 -41 41 -44 48 -42 93 3 58
-10 143 -24 161 -10 13 -55 16 -74 4 -19 -12 -34 -61 -27 -90 9 -37 37 -91 88
-171 54 -84 69 -130 68 -207 -1 -34 3 -76 8 -93 7 -24 4 -36 -13 -58 -31 -40
-256 -304 -280 -328 -18 -18 18 55 74 150 91 156 179 330 179 354 0 62 -38
151 -98 231 -80 106 -88 148 -43 222 30 48 31 52 15 69 -24 27 -107 26 -134
-1 -25 -25 -25 -40 0 -110 33 -94 23 -191 -20 -205 -18 -6 -21 -12 -15 -44 7
-42 22 -33 -180 -106 -66 -24 -132 -48 -147 -54 -63 -24 -18 10 147 112 235
146 221 133 202 187 -8 25 -18 76 -22 114 -11 98 -27 62 -19 -41 l6 -82 -33 5
c-32 5 -43 -3 -219 -165 -102 -93 -186 -174 -188 -180 -2 -5 46 6 105 26 135
43 366 122 368 126 0 1 6 14 13 30 14 33 20 33 80 3 54 -28 86 -59 102 -100
13 -34 2 -51 -38 -59 -26 -5 -30 -16 -86 -194 -32 -103 -72 -230 -88 -281 -16
-51 -28 -97 -26 -101 2 -5 27 19 57 53 30 33 89 99 131 146 216 237 212 232
204 270 -13 69 -18 65 83 65 59 0 96 -4 104 -12 10 -10 6 -51 -17 -193 -17
-111 -31 -174 -36 -163 -4 11 -7 1 -6 -27 0 -25 -2 -63 -6 -85 -3 -22 7 10 24
70 44 164 52 191 56 180 2 -5 29 -134 60 -285 31 -151 57 -276 58 -277 3 -3
53 229 92 432 l28 140 17 -55 c10 -30 18 -47 18 -38 1 9 -4 29 -10 45 -6 15
-12 52 -14 82 -2 30 -9 59 -15 65 -12 12 -14 93 -1 100 4 3 20 -70 35 -162 39
-243 38 -230 26 -207 -9 18 -10 17 -5 -5 2 -14 5 -31 5 -38 0 -7 5 -10 11 -6
7 4 9 0 5 -12 -3 -11 -2 -32 3 -49 9 -29 9 -30 10 -4 1 14 -5 93 -13 175 -8
82 -17 190 -21 241 l-6 91 63 4 c102 5 111 2 103 -35 -16 -68 -15 -69 180
-287 104 -117 191 -208 193 -202 4 13 -155 531 -168 547 -6 7 -24 15 -41 19
-29 6 -31 8 -25 38 3 18 13 42 21 55 18 27 91 71 133 79 30 6 32 5 32 -23 0
-28 3 -30 103 -62 56 -19 162 -54 236 -78 73 -24 135 -42 137 -40 2 2 -19 26
-48 52 -29 27 -113 104 -187 173 -126 117 -135 123 -166 118 l-33 -6 4 92 c5
116 -10 90 -21 -34 l-7 -88 45 6 45 6 112 -103 c62 -57 127 -117 144 -132 28
-26 29 -27 7 -21 -31 8 -330 181 -359 207 -39 36 -46 89 -23 167 26 84 26 112
3 133 -25 23 -94 22 -123 -2 l-23 -19 27 -39 c51 -73 34 -145 -62 -268 -37
-47 -45 -65 -49 -110 -2 -29 1 -68 7 -88 10 -29 19 -37 57 -47 25 -7 47 -18
49 -24 2 -6 33 -105 69 -220 37 -115 65 -211 62 -213 -6 -6 -277 473 -289 512
-15 49 0 90 78 214 56 90 65 111 65 151 0 33 -6 52 -18 63 -22 20 -65 22 -79
5 -13 -16 -25 -99 -23 -159 1 -40 -4 -51 -40 -92 -43 -48 -73 -59 -84 -31 -10
26 -7 32 17 38 38 9 77 45 77 71 0 12 -18 44 -40 71 -23 28 -36 52 -31 58 4 6
22 29 40 52 35 45 71 130 71 168 0 14 -7 31 -15 40 -23 23 -18 49 17 85 27 28
38 32 72 29 35 -2 41 0 44 18 2 11 -7 32 -18 47 -41 52 -127 30 -157 -41 l-15
-35 -18 41 c-13 28 -30 47 -53 58 -31 15 -36 15 -65 0 -18 -9 -32 -22 -32 -29
0 -6 -6 -3 -12 7 -9 16 -7 22 14 37 18 14 24 26 22 46 -15 143 -22 183 -34
183 -4 0 -12 -17 -17 -37 -7 -27 -12 60 -17 297 -8 329 -21 589 -25 500z m-56
-511 c24 -175 34 -457 18 -491 -17 -36 -16 -76 2 -95 11 -11 15 -31 13 -71 -3
-46 -7 -56 -26 -63 -21 -8 -22 -6 -21 34 1 23 4 32 6 20 7 -36 23 -27 23 13 0
23 -4 33 -11 28 -7 -4 -9 17 -5 72 16 199 17 254 7 271 -8 13 -10 -9 -11 -86
0 -57 -2 -102 -4 -100 -5 6 -18 594 -12 589 2 -3 12 -57 21 -121z m-202 -585
c22 -4 37 -12 37 -21 0 -20 -30 -28 -52 -14 -26 16 -31 9 -23 -28 10 -47 31
-59 67 -38 27 15 30 16 24 1 -3 -8 -6 -30 -6 -49 0 -28 -4 -33 -30 -39 -24 -4
-32 -12 -37 -36 -5 -30 -6 -30 -26 -13 -24 22 -56 90 -57 119 0 12 -7 24 -15
28 -23 9 -18 35 14 67 31 30 42 33 104 23z m431 -25 c29 -34 33 -57 12 -65 -7
-3 -16 -22 -20 -42 -9 -57 -76 -145 -76 -100 0 18 -31 48 -51 48 -13 0 -18 10
-21 48 l-3 48 28 -15 c27 -15 29 -15 48 8 10 13 19 34 19 47 0 27 -3 29 -29
12 -23 -14 -51 -4 -51 19 0 15 10 18 59 21 55 2 61 0 85 -29z m-573 -164 c11
-24 38 -64 60 -89 21 -24 39 -54 39 -67 0 -22 -2 -21 -36 12 -66 63 -124 189
-87 189 1 0 12 -20 24 -45z m613 -55 c-35 -64 -107 -133 -112 -107 -2 10 16
39 41 67 24 27 55 71 68 97 22 45 24 46 27 21 2 -17 -8 -48 -24 -78z m-351 77
c3 -8 1 -20 -4 -28 -8 -12 -10 -12 -19 1 -5 8 -10 21 -10 28 0 16 27 16 33 -1z
m117 4 c0 -17 -12 -41 -20 -41 -15 0 -21 33 -8 42 17 10 28 10 28 -1z m-179
-113 c12 -47 8 -54 -20 -36 -15 9 -21 23 -21 50 0 50 26 41 41 -14z m106 -5
c-3 -10 -5 -2 -5 17 0 19 2 27 5 18 2 -10 2 -26 0 -35z m149 19 c4 -20 -29
-62 -47 -62 -11 0 2 74 15 82 17 12 29 4 32 -20z m-79 -64 c-3 -8 -6 -5 -6 6
-1 11 2 17 5 13 3 -3 4 -12 1 -19z m-260 -40 c-3 -7 -5 -2 -5 12 0 14 2 19 5
13 2 -7 2 -19 0 -25z m43 -9 c0 -6 -4 -7 -10 -4 -5 3 -10 11 -10 16 0 6 5 7
10 4 6 -3 10 -11 10 -16z m307 -1 c-3 -8 -6 -5 -6 6 -1 11 2 17 5 13 3 -3 4
-12 1 -19z m-249 -20 c-5 -15 -23 -11 -26 6 -2 11 2 14 13 10 9 -4 14 -11 13
-16z m198 -16 c-4 -3 -12 0 -19 7 -9 9 -9 14 3 21 11 7 16 5 18 -6 2 -9 1 -18
-2 -22z m143 -30 c11 -20 4 -62 -9 -62 -5 0 -12 9 -15 20 -4 11 -11 18 -16 15
-5 -4 -9 3 -9 14 0 17 11 28 32 30 4 1 12 -7 17 -17z m-317 -24 c-9 -9 -12 -7
-12 12 0 19 3 21 12 12 9 -9 9 -15 0 -24z m134 5 c-10 -10 -19 5 -10 18 6 11
8 11 12 0 2 -7 1 -15 -2 -18z m142 -105 c6 -16 8 -28 4 -28 -14 0 -32 65 -31
111 l2 44 7 -50 c4 -27 12 -62 18 -77z m-345 27 l6 -50 -14 50 c-8 28 -14 59
-14 70 l0 20 8 -20 c5 -11 11 -42 14 -70z m244 53 c-3 -8 -6 -5 -6 6 -1 11 2
17 5 13 3 -3 4 -12 1 -19z m32 -47 c-6 -34 -14 -60 -16 -57 -2 2 1 32 8 65 6
34 14 60 16 57 2 -2 -1 -32 -8 -65z m-218 -30 c6 10 11 11 20 2 8 -8 5 -17
-11 -33 -25 -25 -40 -14 -40 30 1 23 2 23 11 6 9 -15 13 -16 20 -5z m149 -2
c0 -8 5 -8 15 1 12 10 15 9 15 -6 0 -37 -15 -47 -40 -26 -13 11 -20 24 -16 30
9 15 26 15 26 1z m-73 -281 c-3 -8 -6 -5 -6 6 -1 11 2 17 5 13 3 -3 4 -12 1
-19z m-77 -49 c0 -10 -4 -19 -10 -19 -5 0 -10 12 -10 26 0 14 4 23 10 19 6 -3
10 -15 10 -26z m166 -16 c-11 -11 -19 6 -11 24 8 17 8 17 12 0 3 -10 2 -21 -1
-24z m0 -49 c17 -30 16 -37 -21 -215 -53 -258 -55 -261 -47 -99 4 80 7 197 7
261 l-1 117 23 -17 c12 -9 30 -30 39 -47z"/>
<path d="M1542 2808 c-45 -192 -63 -362 -78 -709 l-7 -167 43 -28 c24 -16 49
-33 56 -38 8 -7 23 -2 46 15 18 14 42 29 52 33 18 6 19 16 13 239 -6 236 -24
406 -58 570 -21 106 -18 60 11 -135 17 -121 39 -441 40 -584 0 -49 -2 -53 -41
-78 -22 -15 -44 -25 -47 -21 -8 8 -4 951 4 978 3 9 1 17 -3 17 -5 0 -19 -42
-31 -92z"/>
<path d="M1582 2840 c0 -14 2 -19 5 -12 2 6 2 18 0 25 -3 6 -5 1 -5 -13z"/>
<path d="M1123 2650 c0 -30 2 -43 4 -27 2 15 2 39 0 55 -2 15 -4 2 -4 -28z"/>
<path d="M1313 2625 c0 -27 2 -38 4 -22 2 15 2 37 0 50 -2 12 -4 0 -4 -28z"/>
<path d="M1113 2380 c0 -47 2 -66 4 -42 2 23 2 61 0 85 -2 23 -4 4 -4 -43z"/>
<path d="M1111 2234 c0 -11 3 -14 6 -6 3 7 2 16 -1 19 -3 4 -6 -2 -5 -13z"/>
<path d="M1072 880 c0 -19 2 -27 5 -17 2 9 2 25 0 35 -3 9 -5 1 -5 -18z"/>
<path d="M1063 775 c0 -22 2 -30 4 -17 2 12 2 30 0 40 -3 9 -5 -1 -4 -23z"/>
<path d="M1052 660 c0 -19 2 -27 5 -17 2 9 2 25 0 35 -3 9 -5 1 -5 -18z"/>
<path d="M1391 584 c0 -11 3 -14 6 -6 3 7 2 16 -1 19 -3 4 -6 -2 -5 -13z"/>
</g>
</svg>
