<?xml version="1.0" standalone="no"?>
<!DOCTYPE svg PUBLIC "-//W3C//DTD SVG 20010904//EN"
 "http://www.w3.org/TR/2001/REC-SVG-20010904/DTD/svg10.dtd">
<svg version="1.0" xmlns="http://www.w3.org/2000/svg"
 width="244.000000pt" height="305.000000pt" viewBox="0 0 244.000000 305.000000"
 preserveAspectRatio="xMidYMid meet">
<metadata>
Created by potrace 1.16, written by Peter Selinger 2001-2019
</metadata>
<g transform="translate(0.000000,305.000000) scale(0.100000,-0.100000)"
fill="#000000" stroke="none">
<path d="M955 2898 c-3 -7 -16 -80 -29 -163 -27 -161 -43 -381 -48 -643 l-3
-163 33 -25 c45 -36 41 -48 -13 -40 -39 6 -48 4 -70 -18 -14 -14 -25 -37 -25
-51 0 -23 4 -25 39 -25 34 0 44 -5 65 -33 30 -39 32 -59 10 -78 -21 -17 -13
-90 16 -151 l20 -43 -22 -17 c-33 -25 -41 -22 -35 15 2 17 0 42 -6 54 -9 19
-16 21 -95 20 -82 -2 -87 -3 -101 -28 -13 -24 -13 -34 2 -97 19 -76 22 -152 8
-152 -9 0 -21 46 -40 160 -9 52 -10 50 -8 -38 l2 -93 -26 6 c-23 5 -40 -9
-156 -137 -220 -242 -217 -238 -126 -197 105 47 129 57 156 63 l28 7 -16 -32
c-9 -17 -14 -33 -12 -36 3 -2 68 28 146 66 77 39 147 71 155 71 14 0 46 -67
46 -96 0 -8 -13 -20 -29 -25 -24 -9 -31 -20 -46 -72 -40 -140 -130 -507 -125
-507 3 0 28 29 55 65 93 121 87 116 81 70 -21 -142 -24 -140 47 -20 36 61 81
135 100 165 89 143 99 167 88 206 -13 47 -8 54 37 54 81 0 136 -68 93 -114
-24 -25 -26 -48 -11 -127 5 -30 28 -166 50 -303 35 -213 50 -291 50 -250 0 5
9 61 20 124 52 309 80 483 80 507 0 14 -11 39 -25 55 l-25 30 21 30 c24 34 55
48 104 48 42 0 49 -10 36 -56 -11 -41 -2 -65 69 -179 21 -33 70 -116 110 -185
41 -68 75 -119 78 -112 2 6 -4 44 -13 83 -9 39 -14 74 -11 76 2 3 33 -34 67
-81 35 -47 64 -84 66 -83 1 1 -19 83 -43 182 -25 99 -47 187 -49 195 -6 32
-27 107 -41 152 -11 34 -21 48 -39 52 -31 8 -35 33 -13 78 21 43 34 53 51 40
20 -17 311 -162 315 -157 2 2 -6 18 -18 35 -12 16 -20 35 -18 40 2 5 41 -6 88
-25 46 -19 88 -35 92 -35 17 0 -14 40 -148 189 -117 131 -140 152 -160 147
-12 -3 -25 -3 -27 1 -3 5 -2 43 2 86 4 43 4 82 0 88 -5 9 -19 -118 -19 -183 0
-25 3 -26 33 -22 17 3 37 1 42 -3 26 -21 225 -253 217 -253 -5 0 -36 19 -68
43 -33 23 -75 53 -95 65 -45 27 -131 118 -154 161 -18 35 -17 54 6 152 11 50
11 60 -4 82 -15 24 -22 26 -92 25 -64 0 -77 -3 -90 -21 -10 -15 -11 -25 -4
-40 14 -26 -1 -40 -35 -31 -31 7 -31 9 -7 61 23 46 30 128 13 145 -20 20 -13
54 18 88 25 27 35 31 60 26 31 -6 34 -1 30 39 -4 36 -30 55 -77 55 -50 0 -60
23 -18 42 l25 11 -1 151 c-1 83 -5 194 -9 246 -4 58 -5 5 -2 -135 l4 -230 -33
-22 c-38 -26 -45 -24 -29 7 8 16 9 93 0 308 -6 158 -10 367 -9 465 2 178 -3
224 -16 148 -9 -52 -20 -45 -31 16 -7 46 -8 47 -15 18 -3 -16 -7 -39 -7 -50 0
-16 2 -15 8 5 13 41 11 -103 -4 -335 -8 -115 -18 -290 -22 -387 -3 -98 -11
-175 -15 -172 -5 3 -9 33 -9 67 0 41 -3 57 -9 48 -8 -12 -11 -9 -16 12 -5 17
-14 27 -25 27 -15 0 -20 -10 -25 -47 -14 -113 -23 -108 -24 12 -1 125 -22 355
-41 440 -21 101 -21 101 -30 85 -18 -34 -52 -296 -59 -460 -7 -166 -12 -183
-26 -80 -4 35 -10 46 -24 47 -13 1 -21 -8 -27 -30 -6 -24 -9 -8 -11 68 -5 184
-23 462 -39 582 -20 154 -34 205 -28 98 3 -44 1 -93 -5 -110 -9 -28 -9 -27
-11 20 -4 95 -18 105 -18 12 0 -49 4 -85 9 -81 5 3 10 -3 10 -13 1 -10 3 -29
5 -43 2 -14 6 -164 10 -335 6 -280 6 -311 -9 -324 -9 -7 -23 -11 -31 -8 -13 5
-15 72 -13 492 1 267 1 485 -1 485 -1 0 -5 -6 -7 -12z m136 -1018 c5 0 9 -5 9
-10 0 -6 -11 -8 -27 -4 -39 9 -41 13 -18 30 18 13 20 13 23 0 2 -9 8 -16 13
-16z m334 10 c22 -24 16 -33 -18 -25 -18 5 -23 12 -20 26 7 24 15 24 38 -1z
m-425 -24 c0 -8 -4 -17 -9 -21 -12 -7 -24 12 -16 25 9 15 25 12 25 -4z m482
-18 c-9 -9 -12 -7 -12 12 0 19 3 21 12 12 9 -9 9 -15 0 -24z m-352 -103 c-3
-5 -17 -9 -32 -8 -24 1 -28 -2 -28 -23 0 -54 45 -85 78 -52 9 9 12 6 12 -14 0
-16 9 -32 24 -41 13 -9 30 -33 37 -54 l12 -38 18 42 c10 23 27 47 38 53 13 7
21 21 21 37 0 21 3 24 12 15 25 -25 58 -14 74 23 18 44 13 53 -26 49 -21 -3
-30 1 -30 11 0 10 11 15 34 15 28 0 36 -5 46 -31 9 -22 10 -36 2 -52 -6 -12
-13 -40 -16 -61 -7 -53 -18 -62 -50 -41 -48 32 -77 10 -114 -85 -9 -24 -10
-24 -21 15 -20 75 -77 108 -116 69 -21 -22 -34 -8 -41 42 -3 21 -10 49 -16 61
-8 16 -7 30 2 53 11 28 17 31 49 28 20 -2 34 -7 31 -13z m-163 -177 c-3 -7 -5
-2 -5 12 0 14 2 19 5 13 2 -7 2 -19 0 -25z m533 -15 c-11 -17 -11 -17 -6 0 3
10 7 26 7 35 1 15 2 15 6 0 2 -10 -1 -25 -7 -35z m-360 -33 c18 -10 47 -76 37
-86 -5 -6 -77 76 -77 88 0 11 17 10 40 -2z m230 2 c0 -4 -18 -29 -40 -56 -33
-39 -40 -44 -40 -27 0 27 25 77 42 84 20 8 38 8 38 -1z m-563 -159 c5 -43 8
-84 5 -92 -9 -25 -21 12 -28 92 -9 102 9 102 23 0z m698 -1 c-5 -14 -7 -14
-22 1 -15 15 -15 18 3 44 l19 28 3 -28 c2 -16 1 -36 -3 -45z m-516 40 c12 -23
-4 -55 -18 -33 -8 12 -4 51 5 51 2 0 8 -8 13 -18z m180 -22 c12 0 21 -6 21
-15 0 -19 -2 -19 -43 1 -18 9 -39 25 -46 36 -12 20 -12 20 17 -1 17 -11 40
-21 51 -21z m199 21 c-10 -16 -67 -51 -83 -51 -3 0 -5 9 -5 19 0 13 5 18 18
15 9 -3 31 4 47 15 38 25 37 25 23 2z m312 -80 c-6 -23 -14 -41 -19 -41 -9 0
3 113 15 132 14 21 17 -44 4 -91z m-555 -17 c20 -5 23 -10 18 -40 -5 -29 -2
-35 21 -44 30 -11 35 -44 9 -58 -12 -7 -24 -5 -40 5 -20 13 -30 14 -69 3 -39
-11 -47 -11 -55 1 -6 11 -1 15 24 19 31 5 32 6 33 60 0 71 1 73 20 66 9 -3 26
-9 39 -12z m281 2 c3 -8 1 -31 -5 -52 -12 -43 1 -68 30 -61 23 6 40 -6 30 -21
-6 -10 -17 -10 -53 -1 -40 11 -49 10 -71 -4 -32 -21 -57 -12 -57 19 0 17 8 27
25 34 26 10 32 34 15 60 -7 12 -1 17 28 26 50 16 52 16 58 0z m-473 -78 c9
-21 14 -38 12 -38 -7 0 -35 58 -35 71 0 18 6 9 23 -33z m-286 -45 c-37 -69
-84 -109 -182 -152 -53 -23 -98 -41 -100 -39 -4 4 289 226 293 222 2 -1 -3
-15 -11 -31z m23 -43 c0 -13 -10 -24 -26 -31 -35 -13 -38 -7 -13 24 24 32 39
34 39 7z m1098 -12 c2 -18 11 -28 28 -32 47 -12 147 -87 133 -100 -8 -8 -229
119 -229 132 0 13 38 33 55 28 6 -1 11 -14 13 -28z m-476 -60 c-7 -7 -12 -26
-12 -42 0 -38 -36 -120 -49 -112 -18 12 -41 75 -40 113 l1 38 8 -42 c5 -23 14
-51 20 -63 19 -36 29 -18 54 93 4 15 12 27 18 27 9 0 9 -3 0 -12z m287 -55 c1
-23 -4 -33 -14 -33 -16 0 -21 53 -8 86 6 16 7 16 14 -2 4 -10 8 -34 8 -51z
m-979 40 c0 -5 -12 -17 -27 -27 -25 -18 -25 -11 0 22 10 13 27 16 27 5z m320
-57 c-7 -7 -10 4 -9 30 1 39 1 39 10 9 5 -18 5 -33 -1 -39z m-8 -188 c-34 -72
-71 -123 -72 -97 0 36 51 213 67 232 18 19 18 18 27 -27 7 -40 4 -53 -22 -108z
m727 138 c25 -13 31 -30 81 -218 29 -112 55 -210 58 -218 3 -10 2 -12 -6 -5
-15 14 -121 249 -142 315 -21 64 -35 140 -25 140 3 0 18 -6 34 -14z m-135 -32
c0 -10 -3 -31 -7 -45 -5 -20 2 -36 33 -78 22 -28 53 -80 69 -114 36 -74 86
-206 73 -192 -24 25 -202 354 -202 372 0 41 13 84 24 80 6 -2 11 -13 10 -23z
m-679 -202 c-9 -37 -26 -80 -38 -97 -12 -16 -36 -52 -54 -80 -39 -58 -43 -45
-9 28 13 29 43 94 67 146 24 51 45 88 47 82 2 -6 -4 -41 -13 -79z m9 -127
c-29 -81 -47 -106 -33 -47 11 50 27 93 41 109 20 24 18 7 -8 -62z"/>
<path d="M1522 2800 c0 -14 2 -19 5 -12 2 6 2 18 0 25 -3 6 -5 1 -5 -13z"/>
<path d="M1432 2750 c0 -19 2 -27 5 -17 2 9 2 25 0 35 -3 9 -5 1 -5 -18z"/>
<path d="M1532 2740 c0 -14 2 -19 5 -12 2 6 2 18 0 25 -3 6 -5 1 -5 -13z"/>
<path d="M1546 2650 c12 -165 18 -210 24 -200 4 6 1 61 -7 123 -15 130 -25
171 -17 77z"/>
<path d="M1422 2670 c0 -19 2 -27 5 -17 2 9 2 25 0 35 -3 9 -5 1 -5 -18z"/>
<path d="M973 2580 c0 -25 2 -35 4 -22 2 12 2 32 0 45 -2 12 -4 2 -4 -23z"/>
<path d="M1413 2575 c0 -22 2 -30 4 -17 2 12 2 30 0 40 -3 9 -5 -1 -4 -23z"/>
<path d="M1403 2475 c0 -33 2 -45 4 -27 2 18 2 45 0 60 -2 15 -4 0 -4 -33z"/>
<path d="M1394 2240 c0 -58 1 -81 3 -52 2 28 2 76 0 105 -2 28 -3 5 -3 -53z"/>
</g>
</svg>
