<?xml version="1.0" standalone="no"?>
<!DOCTYPE svg PUBLIC "-//W3C//DTD SVG 20010904//EN"
 "http://www.w3.org/TR/2001/REC-SVG-20010904/DTD/svg10.dtd">
<svg version="1.0" xmlns="http://www.w3.org/2000/svg"
 width="244.000000pt" height="305.000000pt" viewBox="0 0 244.000000 305.000000"
 preserveAspectRatio="xMidYMid meet">
<metadata>
Created by potrace 1.16, written by Peter Selinger 2001-2019
</metadata>
<g transform="translate(0.000000,305.000000) scale(0.100000,-0.100000)"
fill="#000000" stroke="none">
<path d="M1476 2903 c-26 -87 -55 -383 -68 -685 l-11 -287 43 -40 43 -40 43
37 43 37 -4 85 c-3 47 -7 175 -10 286 -5 195 -21 363 -50 533 -16 92 -20 102
-29 74z"/>
<path d="M976 2889 c-38 -191 -56 -369 -66 -676 -5 -158 -6 -290 -2 -293 4 -3
23 -20 44 -39 l36 -33 42 42 42 42 -6 217 c-8 257 -20 406 -47 601 -21 144
-33 185 -43 139z"/>
<path d="M1228 2585 c-28 -96 -49 -285 -55 -510 l-7 -220 -18 124 c-9 68 -20
126 -23 129 -12 12 -19 -14 -28 -114 l-10 -105 27 -26 c24 -22 27 -31 24 -76
-3 -50 -4 -52 -30 -49 -24 2 -28 -1 -28 -23 0 -61 43 -86 73 -42 16 22 16 21
16 -19 1 -28 6 -44 16 -48 9 -3 23 -22 31 -41 14 -35 34 -40 34 -9 0 8 12 27
26 41 20 20 26 36 26 67 l-1 41 15 -27 c26 -50 74 -27 74 36 0 27 -18 34 -38
14 -13 -13 -20 -1 -23 42 -4 51 2 70 28 94 l27 25 -11 106 c-17 162 -27 159
-51 -16 l-17 -124 -7 210 c-9 278 -51 587 -70 520z"/>
<path d="M856 1848 c-9 -12 -16 -38 -16 -56 0 -32 2 -34 27 -29 20 4 34 -2 55
-23 27 -28 39 -80 18 -80 -13 0 -13 -65 1 -115 6 -22 24 -67 41 -101 l31 -61
-27 -45 c-32 -54 -33 -87 -5 -122 15 -20 29 -26 48 -24 26 3 26 4 22 72 -3 55
-1 68 10 64 8 -3 31 -11 52 -19 34 -12 37 -16 37 -50 0 -28 5 -38 20 -42 28
-7 27 -49 -2 -62 -12 -6 -25 -21 -29 -35 -5 -21 -7 -19 -10 15 -5 48 -27 56
-77 29 -24 -13 -38 -15 -50 -8 -27 16 -63 96 -57 123 3 13 0 56 -6 97 -14 79
-29 96 -69 74 -39 -21 -39 -105 1 -181 29 -59 41 -91 29 -84 -14 9 -52 82 -67
130 -18 56 -16 90 7 135 11 22 20 46 20 53 0 23 -27 39 -67 39 -63 0 -76 -40
-48 -149 17 -64 19 -93 7 -93 -11 0 -32 92 -32 141 0 21 -4 39 -10 39 -6 0
-10 -37 -10 -90 0 -88 -1 -90 -23 -90 -17 0 -37 -17 -68 -54 -24 -30 -88 -109
-143 -176 -54 -67 -95 -124 -92 -127 3 -4 16 -2 29 4 12 6 42 20 67 31 242
105 280 125 280 148 0 29 13 30 56 3 68 -41 98 -132 49 -145 -18 -4 -27 -16
-34 -43 -15 -53 -57 -232 -80 -341 -12 -52 -28 -121 -35 -152 -8 -32 -11 -58
-6 -58 4 0 74 100 155 221 107 160 147 229 146 248 -1 14 -3 37 -4 51 -2 24 0
25 61 24 46 -1 67 -6 83 -20 38 -34 40 -48 13 -86 l-25 -34 16 -100 c8 -54 22
-142 30 -194 8 -52 20 -126 25 -165 6 -38 16 -99 22 -135 10 -60 12 -63 20
-35 4 17 15 77 23 135 8 58 28 193 45 300 l29 194 -26 34 -25 34 19 26 c28 37
60 52 116 52 55 0 65 -13 48 -61 -8 -24 -7 -37 6 -62 9 -18 19 -34 22 -37 4
-3 65 -92 136 -199 71 -107 131 -189 133 -183 3 9 -25 137 -97 446 -23 101
-31 121 -54 138 -16 11 -27 29 -27 42 0 32 39 86 77 109 35 20 53 16 53 -13 0
-12 15 -25 43 -38 100 -48 329 -143 333 -139 4 4 -97 136 -170 222 -19 22 -51
60 -71 85 -21 25 -49 47 -63 50 -25 5 -25 6 -23 93 1 51 -2 87 -8 87 -5 0 -12
-6 -14 -12 -3 -7 -6 -1 -6 13 -1 40 -23 61 -63 62 -38 1 -68 -16 -68 -39 0 -8
9 -31 20 -51 33 -63 23 -130 -34 -228 -39 -65 -42 -50 -6 26 51 109 35 225
-29 204 -24 -7 -33 -43 -35 -146 -2 -54 -8 -85 -22 -109 -29 -50 -46 -57 -86
-36 -48 26 -72 18 -79 -24 -4 -19 -7 -27 -8 -17 0 9 -12 23 -26 29 -31 14 -35
57 -5 65 16 4 20 14 20 44 0 22 5 39 11 39 6 0 26 7 45 16 41 20 48 15 45 -28
-7 -94 -7 -93 17 -96 33 -5 72 34 72 71 0 17 -12 50 -26 75 l-26 44 37 78 c38
83 57 181 36 194 -17 11 -12 58 8 84 14 15 30 22 55 22 31 0 36 3 36 24 0 42
-18 75 -44 82 -39 9 -62 -4 -82 -47 l-18 -41 -18 40 c-35 84 -128 60 -128 -33
0 -21 5 -24 42 -27 34 -2 45 -8 57 -30 12 -21 13 -31 4 -50 -7 -13 -15 -39
-18 -58 -9 -48 -44 -106 -98 -162 l-44 -47 7 38 c9 50 16 61 56 77 30 13 33
17 24 34 -14 26 -56 36 -77 19 -9 -8 -26 -36 -39 -63 l-22 -48 -11 37 c-12 44
-47 85 -72 85 -23 0 -64 -34 -56 -47 4 -6 20 -13 36 -16 21 -5 32 -15 40 -39
16 -46 27 -188 14 -188 -6 0 -8 11 -6 24 4 21 -1 27 -29 39 -70 29 -159 152
-158 218 1 19 4 16 14 -14 27 -73 131 -194 159 -184 20 7 8 48 -22 76 -42 39
-91 121 -91 150 0 15 -7 39 -15 55 -20 37 -19 48 5 76 15 17 30 23 55 22 31
-1 35 2 35 23 0 96 -105 115 -135 25 l-12 -35 -6 27 c-16 62 -90 90 -121 46z
m601 -341 c-28 -61 -86 -123 -136 -144 -27 -12 -32 -18 -28 -39 2 -13 0 -24
-4 -24 -5 0 -9 23 -9 51 0 44 2 50 14 40 11 -9 20 -9 34 -2 38 20 112 114 129
163 13 35 19 44 21 29 2 -12 -8 -45 -21 -74z m289 -89 c-3 -18 -8 -54 -11 -80
-4 -27 -11 -48 -17 -48 -11 0 -6 53 13 123 12 46 22 49 15 5z m48 -237 c-2 -3
-12 3 -22 13 -16 17 -16 18 5 5 12 -7 20 -15 17 -18z m-839 -126 c4 -22 2 -51
-3 -64 -7 -20 -10 -12 -15 45 -3 38 -8 78 -12 89 -4 14 -2 12 9 -5 8 -14 18
-43 21 -65z m583 15 c-5 -36 -7 -81 -4 -100 4 -24 3 -30 -4 -20 -20 32 -23
100 -5 146 9 25 18 44 20 42 1 -2 -2 -32 -7 -68z m-337 -42 c7 -48 24 -88 38
-88 11 0 31 70 31 109 0 17 4 31 9 31 4 0 6 -24 3 -52 -5 -56 -37 -122 -54
-112 -16 10 -38 71 -38 107 0 18 -6 39 -12 46 -11 11 -10 13 2 9 9 -3 18 -23
21 -50z m373 -164 c3 -8 2 -12 -4 -9 -6 3 -10 10 -10 16 0 14 7 11 14 -7z"/>
</g>
</svg>
