<?xml version="1.0" standalone="no"?>
<!DOCTYPE svg PUBLIC "-//W3C//DTD SVG 20010904//EN"
 "http://www.w3.org/TR/2001/REC-SVG-20010904/DTD/svg10.dtd">
<svg version="1.0" xmlns="http://www.w3.org/2000/svg"
 width="244.000000pt" height="305.000000pt" viewBox="0 0 244.000000 305.000000"
 preserveAspectRatio="xMidYMid meet">
<metadata>
Created by potrace 1.16, written by Peter Selinger 2001-2019
</metadata>
<g transform="translate(0.000000,305.000000) scale(0.100000,-0.100000)"
fill="#000000" stroke="none">
<path d="M910 2898 c0 -7 -3 -24 -6 -38 -4 -20 -3 -22 5 -10 8 11 11 -122 11
-467 0 -266 -2 -483 -5 -483 -3 0 -23 12 -45 26 l-40 27 0 94 c0 165 20 433
46 607 14 92 23 170 21 172 -6 6 -36 -159 -53 -296 -15 -113 -35 -575 -27
-595 10 -22 97 -77 108 -69 7 5 31 21 54 37 l41 27 0 73 c0 238 -33 567 -87
865 -6 32 -23 55 -23 30z"/>
<path d="M1376 2868 c-20 -119 -47 -770 -40 -930 2 -32 -1 -60 -5 -63 -5 -3
-12 66 -16 153 -9 202 -27 363 -55 482 -26 108 -27 107 -60 -40 -23 -102 -37
-241 -46 -452 -8 -179 -23 -207 -19 -36 2 91 1 98 -4 38 l-6 -75 -15 75 c-11
58 -15 162 -15 458 0 210 -3 382 -7 382 -5 0 -8 -6 -8 -12 0 -7 -7 -110 -15
-228 -8 -118 -15 -330 -16 -470 l-1 -254 30 -27 c25 -23 29 -32 24 -54 l-7
-26 -13 35 c-14 39 -38 51 -82 41 -30 -7 -70 -47 -70 -71 0 -29 -20 -23 -34
10 -18 42 -66 70 -106 61 -37 -8 -52 -27 -53 -67 -2 -32 -1 -32 39 -29 36 2
46 -2 73 -31 33 -35 40 -72 16 -82 -32 -12 -11 -119 39 -193 34 -49 34 -100 1
-149 -14 -20 -25 -47 -25 -60 0 -13 -4 -24 -9 -24 -14 0 -22 30 -13 46 8 14
-1 87 -16 144 -9 32 -55 39 -83 14 -37 -34 -17 -129 47 -224 13 -19 24 -43 24
-54 0 -21 -103 115 -120 158 -18 47 -12 104 15 143 38 57 8 89 -76 81 -26 -2
-37 -10 -48 -32 -12 -25 -11 -37 8 -100 25 -86 26 -105 4 -150 -13 -29 -47
-54 -187 -140 -94 -58 -180 -108 -191 -112 -11 -4 43 54 120 129 l140 137 41
-5 c29 -4 43 -2 46 7 3 7 0 56 -6 108 -13 115 -31 106 -21 -10 l7 -80 -34 3
c-33 2 -48 -10 -217 -172 -100 -96 -180 -175 -178 -177 2 -2 107 31 233 74
208 72 229 81 232 103 6 37 14 40 64 23 48 -16 118 -75 118 -99 0 -26 -22 -63
-44 -73 -17 -7 -28 -30 -45 -88 -12 -44 -31 -106 -42 -139 -38 -118 -101 -347
-96 -351 2 -3 24 19 48 48 54 65 213 253 281 331 l50 58 -7 55 -6 54 41 0 c35
0 40 -3 36 -17 -3 -10 -12 -72 -21 -138 -9 -66 -23 -173 -31 -238 -9 -65 -13
-121 -11 -123 3 -3 14 21 25 53 11 32 44 117 72 188 68 172 72 184 64 228 -6
36 -5 37 18 27 12 -6 31 -22 40 -35 17 -23 17 -24 -15 -60 l-32 -36 56 -287
c31 -158 59 -304 63 -326 4 -21 9 -36 11 -35 3 4 105 529 120 619 5 29 1 41
-24 69 -35 40 -30 61 21 87 l31 16 -6 -49 c-5 -43 2 -68 69 -238 41 -104 82
-206 90 -225 l15 -35 -6 49 c-3 27 -5 58 -6 70 0 19 -1 19 -8 2 -5 -12 -26 56
-63 205 -31 123 -54 227 -52 231 3 4 15 3 27 -1 17 -6 24 -21 34 -72 l12 -64
-6 74 c-5 67 -4 73 12 68 9 -4 26 -7 37 -7 21 0 21 -10 2 -76 -4 -17 6 -35 43
-77 26 -30 101 -118 167 -195 65 -77 130 -151 143 -164 29 -26 30 -37 -11 102
-94 322 -131 436 -140 445 -17 15 -36 63 -36 89 0 27 56 71 110 86 40 11 50 6
50 -25 0 -18 8 -26 33 -34 17 -5 117 -39 222 -74 104 -36 192 -64 194 -62 2 2
-10 17 -26 32 -16 15 -95 93 -176 171 -140 137 -148 143 -178 137 l-31 -7 7
80 c10 110 -6 129 -21 27 -7 -44 -15 -96 -19 -115 l-6 -35 182 -120 c99 -65
177 -121 171 -123 -5 -1 -82 26 -171 60 l-162 63 6 33 c5 26 1 36 -20 55 -39
33 -43 89 -15 187 26 91 20 125 -25 136 -36 9 -95 -4 -102 -23 -3 -8 7 -39 23
-69 27 -50 28 -55 16 -101 -7 -26 -31 -71 -53 -100 -22 -29 -42 -60 -45 -68
-7 -18 -24 -20 -24 -2 0 6 18 41 40 77 22 36 43 79 46 97 11 59 -17 103 -66
103 -26 0 -29 -4 -40 -57 -7 -32 -12 -77 -12 -101 1 -50 -8 -48 -37 8 -26 50
-29 145 -6 170 26 28 57 129 50 161 -4 16 -11 29 -16 29 -21 0 -7 50 24 80 27
27 37 31 70 27 35 -5 37 -4 37 23 0 89 -117 100 -157 15 -9 -19 -19 -35 -23
-35 -3 0 -12 16 -19 36 -9 25 -23 40 -47 50 -52 22 -71 18 -91 -18 -17 -32
-18 -32 -21 -9 -2 15 2 28 12 33 37 21 46 62 44 195 l-2 128 -5 -115 -6 -115
-18 95 c-16 84 -18 139 -15 473 2 207 2 377 1 377 -1 0 -4 -15 -7 -32z m-173
-744 c-8 -281 -20 -305 -22 -42 -1 114 16 334 25 325 2 -2 1 -129 -3 -283z
m-26 -371 c-2 -21 -4 -6 -4 32 0 39 2 55 4 38 2 -18 2 -50 0 -70z m-121 -4 c3
-5 0 -9 -7 -9 -7 0 -9 -11 -5 -32 4 -18 11 -70 15 -114 5 -45 12 -87 15 -93
15 -23 -6 -10 -32 20 -39 46 -51 70 -52 102 0 15 -9 35 -20 44 -26 23 -25 35
5 71 19 22 31 28 50 24 14 -2 28 -8 31 -13z m437 -11 c21 -25 22 -51 2 -68 -8
-7 -15 -27 -15 -45 0 -28 -47 -116 -70 -130 -11 -7 -2 138 12 194 9 35 9 46
-1 49 -9 3 -9 7 0 18 15 18 48 9 72 -18z m-319 -128 c13 -5 26 -15 29 -22 4
-11 -3 -13 -27 -10 -44 6 -56 19 -56 61 0 20 6 43 13 50 10 10 13 4 15 -29 3
-32 8 -43 26 -50z m26 55 c0 -24 -5 -35 -15 -35 -18 0 -18 -1 -4 39 14 40 19
39 19 -4z m150 -30 c0 -45 -10 -55 -56 -55 -31 0 -31 18 1 30 21 8 25 16 25
51 0 36 2 40 15 29 9 -8 15 -29 15 -55z m-406 -61 c14 -33 16 -48 8 -56 -9 -9
-16 -2 -27 25 -16 39 -20 77 -7 77 4 0 15 -21 26 -46z m153 14 c-3 -7 -5 -2
-5 12 0 14 2 19 5 13 2 -7 2 -19 0 -25z m463 17 c0 -9 -7 -32 -15 -53 -12 -28
-18 -33 -25 -22 -5 9 -3 27 6 48 8 19 14 36 14 38 0 2 5 4 10 4 6 0 10 -7 10
-15z m-183 -17 c-3 -8 -6 -5 -6 6 -1 11 2 17 5 13 3 -3 4 -12 1 -19z m-135
-47 c7 10 8 3 4 -20 -3 -18 -6 -41 -7 -50 0 -9 -7 7 -14 34 -17 61 -17 65 -4
41 9 -15 13 -16 21 -5z m-98 -87 c21 -41 36 -78 33 -80 -6 -7 -65 98 -73 130
-11 44 1 29 40 -50z m207 13 c-12 -17 -28 -47 -37 -66 -8 -18 -17 -31 -20 -28
-3 3 12 40 33 83 23 48 39 72 41 61 2 -10 -6 -32 -17 -50z m119 -18 c0 -11 -4
-17 -10 -14 -5 3 -10 15 -10 26 0 11 5 17 10 14 6 -3 10 -15 10 -26z m-448
-11 c-15 -15 -24 -6 -16 16 5 12 10 14 17 7 8 -8 8 -14 -1 -23z m88 -55 c0 -7
-6 -13 -13 -13 -19 0 -37 21 -37 42 0 18 1 18 25 1 13 -10 25 -24 25 -30z
m290 2 c-13 -15 -40 -21 -40 -8 0 4 10 18 23 31 18 20 23 21 25 7 2 -9 -2 -22
-8 -30z m136 -23 c-12 -12 -18 8 -10 35 l8 28 4 -28 c2 -16 1 -31 -2 -35z
m-589 6 c-3 -7 -5 -2 -5 12 0 14 2 19 5 13 2 -7 2 -19 0 -25z m84 -110 c10
-40 18 -77 18 -83 -1 -22 -48 112 -48 139 -1 44 8 26 30 -56z m423 -25 c-27
-80 -34 -64 -10 25 14 52 22 69 24 53 2 -14 -4 -49 -14 -78z m-357 -28 c13
-19 13 -19 27 -2 20 26 60 19 64 -10 3 -18 -2 -23 -18 -23 -12 0 -30 -5 -41
-11 -17 -8 -23 -7 -35 8 -22 28 -35 89 -27 120 7 26 8 25 13 -17 3 -25 11 -54
17 -65z m73 96 c0 -5 -11 -11 -25 -13 -26 -5 -35 6 -12 15 20 9 37 8 37 -2z
m164 3 c9 -3 16 -12 16 -19 0 -10 -5 -11 -25 -2 -38 18 -31 36 9 21z m74 -54
c-5 -54 -35 -103 -58 -93 -8 3 -27 8 -42 11 -29 4 -32 10 -22 36 8 20 50 21
58 1 15 -40 49 6 49 67 0 22 4 35 10 31 5 -3 7 -27 5 -53z m172 -56 c-7 -7
-16 -14 -21 -14 -15 0 -10 29 9 50 l17 21 3 -21 c2 -12 -2 -28 -8 -36z m-642
-23 c3 -16 -1 -22 -10 -19 -7 3 -15 15 -16 27 -3 16 1 22 10 19 7 -3 15 -15
16 -27z m32 -21 c0 -5 -5 -10 -11 -10 -5 0 -7 5 -4 10 3 6 8 10 11 10 2 0 4
-4 4 -10z m663 -30 c-3 -11 -9 -20 -14 -20 -10 0 -12 33 -3 43 12 12 22 -3 17
-23z m-763 -34 c0 -13 -7 -26 -15 -30 -16 -6 -20 10 -9 38 9 24 24 19 24 -8z
m-31 -169 c-23 -45 -55 -103 -70 -129 -15 -26 -54 -96 -85 -155 -61 -115 -84
-153 -84 -138 0 19 123 420 131 430 5 5 28 16 51 25 31 11 43 22 49 43 4 16
16 35 26 42 36 27 27 -32 -18 -118z m771 92 c0 -30 40 -114 169 -358 101 -192
99 -191 -93 47 l-116 143 6 92 c3 51 8 98 10 105 7 23 24 2 24 -29z m85 11 c3
-5 1 -10 -4 -10 -6 0 -11 5 -11 10 0 6 2 10 4 10 3 0 8 -4 11 -10z m-445 -86
c0 -7 -4 -16 -10 -19 -5 -3 -10 -4 -10 -1 0 2 -2 11 -5 19 -4 8 0 14 10 14 8
0 15 -6 15 -13z m-172 -45 c3 -33 -10 -80 -54 -202 -31 -87 -59 -156 -61 -153
-2 2 16 88 41 190 25 103 46 193 46 202 0 9 6 14 13 12 6 -3 13 -24 15 -49z
m112 -64 c-11 -21 -11 -55 3 -217 9 -105 15 -193 14 -195 -2 -1 -21 83 -42
188 l-38 190 33 35 c37 38 50 37 30 -1z"/>
<path d="M1551 2895 c-1 -5 -1 -232 -1 -503 0 -272 -3 -492 -7 -490 -4 2 -23
12 -42 23 l-33 20 5 245 c5 186 12 289 32 429 14 101 24 185 22 188 -2 2 -8
-16 -12 -39 -33 -202 -46 -330 -57 -567 -11 -260 -11 -275 6 -285 10 -6 34
-23 54 -39 l35 -28 26 25 c14 13 37 29 50 36 l24 12 -6 202 c-8 243 -21 391
-48 551 -20 122 -46 238 -48 220z"/>
<path d="M1392 2770 c0 -19 2 -27 5 -17 2 9 2 25 0 35 -3 9 -5 1 -5 -18z"/>
<path d="M1102 2755 c0 -16 2 -22 5 -12 2 9 2 23 0 30 -3 6 -5 -1 -5 -18z"/>
<path d="M1403 2635 c0 -27 2 -38 4 -22 2 15 2 37 0 50 -2 12 -4 0 -4 -28z"/>
<path d="M1113 2620 c0 -25 2 -35 4 -22 2 12 2 32 0 45 -2 12 -4 2 -4 -23z"/>
<path d="M1413 2460 c0 -47 2 -66 4 -42 2 23 2 61 0 85 -2 23 -4 4 -4 -43z"/>
<path d="M1123 2380 c0 -47 2 -66 4 -42 2 23 2 61 0 85 -2 23 -4 4 -4 -43z"/>
<path d="M1492 775 c0 -16 2 -22 5 -12 2 9 2 23 0 30 -3 6 -5 -1 -5 -18z"/>
<path d="M1501 709 c0 -19 4 -52 9 -74 7 -31 7 -24 3 30 -6 74 -13 101 -12 44z"/>
<path d="M1522 560 c0 -19 2 -27 5 -17 2 9 2 25 0 35 -3 9 -5 1 -5 -18z"/>
</g>
</svg>
