<?xml version="1.0" standalone="no"?>
<!DOCTYPE svg PUBLIC "-//W3C//DTD SVG 20010904//EN"
 "http://www.w3.org/TR/2001/REC-SVG-20010904/DTD/svg10.dtd">
<svg version="1.0" xmlns="http://www.w3.org/2000/svg"
 width="244.000000pt" height="305.000000pt" viewBox="0 0 244.000000 305.000000"
 preserveAspectRatio="xMidYMid meet">
<metadata>
Created by potrace 1.16, written by Peter Selinger 2001-2019
</metadata>
<g transform="translate(0.000000,305.000000) scale(0.100000,-0.100000)"
fill="#000000" stroke="none">
<path d="M910 2895 c0 -11 -3 -31 -5 -45 -5 -22 -4 -22 4 -5 6 13 10 -150 10
-463 1 -266 -2 -482 -6 -480 -5 2 -25 14 -46 28 l-38 25 6 180 c9 267 21 391
61 645 12 78 -3 39 -20 -50 -36 -196 -56 -435 -56 -683 0 -123 1 -128 23 -136
12 -5 34 -20 48 -35 24 -24 28 -25 40 -10 8 9 30 27 50 40 l37 23 -3 153 c-7
308 -24 485 -66 708 -19 98 -39 151 -39 105z"/>
<path d="M1341 2894 c0 -11 3 -14 6 -6 3 7 2 16 -1 19 -3 4 -6 -2 -5 -13z"/>
<path d="M1122 2875 c0 -16 2 -22 5 -12 2 9 2 23 0 30 -3 6 -5 -1 -5 -18z"/>
<path d="M1522 2803 c-40 -187 -58 -368 -67 -660 l-7 -221 29 -15 c16 -9 35
-23 42 -31 14 -17 51 -22 51 -8 0 5 16 17 35 28 19 10 38 27 41 36 9 29 -15
502 -32 628 -19 144 -53 323 -63 333 -4 4 -17 -36 -29 -90z m24 -901 c-5 -4
-66 35 -76 49 -3 4 -2 114 2 246 7 240 23 412 55 578 l18 90 3 -479 c1 -264 0
-481 -2 -484z"/>
<path d="M1352 2409 c-1 -218 -5 -417 -8 -443 -14 -97 -24 -17 -26 199 -1 145
-4 191 -7 135 l-6 -85 -13 110 c-11 89 -34 203 -56 270 -8 24 -60 -234 -68
-340 -2 -22 -7 37 -12 130 -20 419 -23 419 -25 0 -2 -298 -5 -403 -13 -385 -6
14 -14 75 -18 135 -6 91 -7 98 -8 42 -1 -38 -6 -77 -12 -87 -5 -10 -14 -60
-18 -110 -7 -84 -6 -92 11 -102 29 -15 6 -31 -27 -18 -15 5 -38 7 -52 4 -29
-7 -64 -49 -64 -75 0 -28 -16 -23 -30 10 -33 81 -134 93 -159 19 -14 -40 -8
-48 41 -48 32 0 46 -6 69 -31 32 -34 38 -73 13 -83 -14 -5 -16 -16 -11 -56 7
-55 23 -91 74 -167 l36 -52 -37 -42 c-46 -55 -48 -94 -6 -129 31 -26 29 -57
-3 -44 -34 13 -54 66 -62 163 -8 116 -10 121 -46 121 -39 0 -69 -32 -69 -74 0
-33 11 -56 105 -231 58 -108 54 -124 -100 -407 -115 -211 -157 -281 -143 -238
3 8 26 87 52 175 76 257 76 257 125 273 49 16 61 39 61 113 0 56 -15 90 -71
164 -74 99 -85 158 -43 231 25 43 26 46 9 64 -20 22 -83 27 -116 10 -24 -13
-26 -69 -4 -130 19 -54 19 -113 0 -150 -8 -16 -39 -45 -68 -63 -143 -91 -309
-188 -313 -184 -3 2 57 64 133 136 l138 132 43 -7 43 -6 -7 93 c-10 132 -24
157 -21 37 l2 -98 -30 5 c-25 5 -37 -1 -75 -36 -93 -87 -320 -312 -317 -316 5
-4 440 148 455 159 6 6 12 19 12 29 0 31 19 32 75 4 62 -30 97 -71 99 -117 1
-27 -3 -32 -31 -40 -36 -9 -30 7 -123 -313 -34 -115 -65 -223 -70 -238 -20
-60 6 -34 234 242 33 41 80 96 103 122 38 44 41 51 32 81 -18 65 -16 68 56 68
l65 0 1 -37 c2 -34 2 -35 6 -8 5 36 19 53 33 39 6 -6 3 -44 -9 -109 -11 -55
-25 -134 -32 -175 -12 -70 -13 -73 -20 -40 -5 23 -6 12 -3 -30 3 -46 2 -61 -6
-50 -7 11 -10 3 -10 -32 0 -25 -3 -55 -6 -65 -4 -14 -4 -15 4 -3 5 8 29 84 53
167 24 84 46 150 50 145 6 -6 17 -62 85 -417 14 -72 27 -143 30 -158 3 -16 7
-27 9 -25 2 2 10 41 19 88 8 47 22 121 31 165 9 44 28 145 43 224 32 168 25
173 93 -66 24 -83 45 -150 47 -148 2 2 -8 121 -24 264 -15 144 -24 264 -21
268 7 7 118 5 125 -2 3 -2 -1 -24 -8 -49 l-12 -44 92 -108 c51 -60 135 -160
187 -222 53 -62 97 -111 99 -109 2 2 -17 73 -42 158 -25 85 -54 186 -65 224
-51 174 -53 179 -93 198 -31 15 -36 21 -30 40 14 47 45 85 93 110 62 34 79 34
83 0 3 -26 12 -31 128 -71 69 -24 161 -57 205 -72 44 -16 91 -31 105 -35 16
-5 -37 54 -155 169 -168 165 -182 176 -210 171 l-31 -5 3 97 c2 66 0 91 -6 78
-5 -11 -10 -41 -10 -66 -1 -26 -8 -66 -16 -89 -8 -23 -15 -46 -15 -51 0 -8 22
-24 235 -167 88 -59 129 -91 110 -87 -37 8 -307 114 -318 124 -4 4 -2 20 5 35
10 23 10 29 -2 37 -8 4 -21 13 -29 18 -25 17 -26 111 -1 191 22 72 22 72 3 99
-30 40 -111 42 -132 2 -8 -13 -4 -27 14 -54 45 -66 32 -143 -40 -232 -47 -58
-73 -115 -81 -175 l-7 -53 -14 28 c-20 36 -14 54 62 188 54 95 65 123 65 160
0 36 -5 49 -22 61 -36 26 -67 21 -73 -11 -3 -16 -10 -47 -15 -69 -5 -23 -7
-56 -4 -75 5 -27 -1 -43 -26 -78 -27 -37 -34 -42 -42 -28 -7 13 -2 24 17 44
34 37 32 63 -11 119 -41 53 -42 42 17 130 48 73 65 168 34 194 -23 19 -18 39
20 77 29 29 40 34 72 31 34 -3 38 0 41 22 4 40 -30 74 -73 74 -30 0 -44 -7
-66 -32 -16 -18 -29 -39 -29 -47 0 -25 -16 -17 -31 17 -8 17 -26 41 -42 52
-23 17 -32 18 -57 9 -34 -13 -43 -8 -28 16 8 13 7 46 -1 117 -7 54 -16 189
-22 299 -26 535 -26 536 -27 114z m-123 -405 l1 -381 -30 5 c-17 2 -30 10 -30
18 0 8 5 13 12 11 25 -5 31 81 18 265 -8 106 -17 174 -21 162 -9 -23 -4 42 18
241 15 129 18 144 24 105 4 -25 8 -216 8 -426z m-82 -136 c-3 -7 -5 -2 -5 12
0 14 2 19 5 13 2 -7 2 -19 0 -25z m180 0 c-3 -7 -5 -2 -5 12 0 14 2 19 5 13 2
-7 2 -19 0 -25z m-127 -89 c0 -49 -13 -72 -24 -43 -4 9 -2 22 4 29 7 9 7 26 1
56 -15 62 -13 80 4 40 8 -18 15 -55 15 -82z m-98 -31 c11 -20 -8 -31 -31 -18
-12 6 -25 8 -30 5 -21 -13 18 -85 46 -85 22 0 15 -56 -11 -84 -13 -15 -28 -26
-35 -26 -16 0 -51 61 -51 90 0 14 -9 33 -20 43 -26 22 -25 29 7 67 25 30 30
32 72 26 25 -3 48 -12 53 -18z m382 -4 c29 -30 33 -56 11 -74 -8 -7 -15 -24
-15 -39 0 -32 -35 -91 -54 -91 -8 0 -17 -12 -21 -27 -3 -16 -17 -36 -31 -46
-23 -17 -24 -17 -24 0 0 38 13 62 36 67 29 8 31 22 4 38 -25 16 -30 91 -6 82
9 -4 21 6 31 26 18 35 13 72 -7 52 -18 -18 -38 -14 -38 7 0 19 17 26 66 30 12
0 33 -11 48 -25z m-337 -66 c-3 -8 -6 -5 -6 6 -1 11 2 17 5 13 3 -3 4 -12 1
-19z m180 0 c-3 -8 -6 -5 -6 6 -1 11 2 17 5 13 3 -3 4 -12 1 -19z m-397 -72
c0 -8 16 -37 35 -66 19 -29 35 -56 35 -61 0 -5 5 -9 10 -9 6 0 10 -12 9 -27 0
-25 -1 -26 -9 -8 -5 11 -9 16 -9 11 -1 -5 -17 11 -36 35 -43 55 -71 139 -45
139 6 0 10 -6 10 -14z m263 -3 c4 -3 3 -11 -3 -18 -15 -18 -40 -8 -40 16 0 17
13 18 43 2z m154 -5 c-3 -8 -6 -5 -6 6 -1 11 2 17 5 13 3 -3 4 -12 1 -19z
m208 -10 c-12 -55 -66 -148 -86 -148 -16 0 -10 36 11 63 12 14 30 47 41 72 23
53 44 61 34 13z m-235 15 c-1 -19 -18 -33 -33 -27 -18 6 -21 16 -10 27 9 9 43
9 43 0z m-210 -83 c6 -12 10 -32 8 -45 -3 -23 -4 -23 -24 -7 -12 9 -24 29 -28
45 -5 22 -3 27 13 27 11 0 25 -9 31 -20z m130 -20 c-5 -22 -8 -27 -9 -13 -1
21 9 56 14 51 2 -2 0 -19 -5 -38z m-76 -47 c18 -52 20 -77 5 -51 -15 26 -38
109 -29 103 4 -3 15 -26 24 -52z m166 30 c-14 -48 -30 -86 -35 -81 -4 4 21 83
31 100 10 16 12 7 4 -19z m87 -85 c-3 -7 -5 -2 -5 12 0 14 2 19 5 13 2 -7 2
-19 0 -25z m-347 12 c0 -5 -4 -10 -10 -10 -5 0 -10 5 -10 10 0 6 5 10 10 10 6
0 10 -4 10 -10z m61 -35 c-1 -15 -24 -12 -29 3 -3 9 2 13 12 10 10 -1 17 -7
17 -13z m239 6 c0 -14 -18 -23 -30 -16 -6 4 -8 11 -5 16 8 12 35 12 35 0z
m-343 -103 c-8 -60 -27 -90 -27 -40 0 18 5 32 12 32 6 0 4 8 -6 19 -20 21 -14
41 11 41 13 0 15 -9 10 -52z m145 20 c-15 -15 -24 -6 -16 16 5 12 10 14 17 7
8 -8 8 -14 -1 -23z m280 -10 c-6 -6 -7 0 -4 19 5 21 7 23 10 9 2 -10 0 -22 -6
-28z m-141 19 c-1 -12 -15 -9 -19 4 -3 6 1 10 8 8 6 -3 11 -8 11 -12z m-227
-72 l6 -50 -15 50 c-8 28 -15 57 -15 65 1 33 18 -15 24 -65z m333 68 c-3 -5
-10 -34 -17 -66 -6 -32 -14 -56 -17 -54 -8 8 19 127 29 127 5 0 7 -3 5 -7z
m-285 -100 c9 -11 13 -10 23 3 12 17 35 12 35 -7 0 -11 -40 -48 -52 -49 -9 0
-27 58 -29 95 -2 51 4 63 8 15 3 -24 9 -50 15 -57z m227 9 c-13 -62 -20 -68
-54 -46 -28 18 -29 22 -15 44 9 13 12 13 21 -3 14 -24 35 -7 44 34 4 17 9 29
11 26 2 -2 -1 -27 -7 -55z m122 -24 c24 -33 26 -56 4 -38 -8 7 -15 21 -15 31
0 10 -4 21 -10 24 -5 3 -10 14 -9 23 0 14 2 14 6 2 3 -8 14 -27 24 -42z m-493
-18 c-17 -27 -38 -33 -38 -11 0 23 9 31 32 31 16 0 16 -3 6 -20z m688 -329
c27 -53 77 -149 112 -215 34 -65 60 -121 58 -123 -2 -2 -68 76 -145 173 -99
123 -140 182 -135 193 3 9 9 35 11 58 5 41 6 42 27 26 13 -10 45 -60 72 -112z
m-436 81 c0 -15 -2 -15 -10 -2 -13 20 -13 33 0 25 6 -3 10 -14 10 -23z m169
-190 c18 -101 31 -185 29 -187 -6 -7 -88 297 -88 327 0 34 11 62 20 51 4 -4
21 -90 39 -191z m-250 149 c8 -14 6 -24 -9 -41 l-20 -23 0 41 c0 45 13 54 29
23z m181 -23 l-1 -43 -19 23 c-15 18 -17 28 -10 43 17 32 30 22 30 -23z m-134
-20 l-6 -33 14 35 c13 32 14 12 14 -200 0 -129 -3 -246 -7 -260 -5 -18 -19 38
-50 193 l-44 218 39 40 c21 21 40 39 42 39 2 0 1 -15 -2 -32z m241 -330 c-3
-8 -6 -5 -6 6 -1 11 2 17 5 13 3 -3 4 -12 1 -19z"/>
<path d="M1214 2240 c0 -58 1 -81 3 -52 2 28 2 76 0 105 -2 28 -3 5 -3 -53z"/>
<path d="M1192 770 c0 -19 2 -27 5 -17 2 9 2 25 0 35 -3 9 -5 1 -5 -18z"/>
<path d="M1203 640 c0 -36 2 -50 4 -32 2 17 2 47 0 65 -2 17 -4 3 -4 -33z"/>
<path d="M1213 485 c0 -38 2 -53 4 -32 2 20 2 52 0 70 -2 17 -4 1 -4 -38z"/>
<path d="M1112 2740 c0 -19 2 -27 5 -17 2 9 2 25 0 35 -3 9 -5 1 -5 -18z"/>
<path d="M1323 2580 c0 -25 2 -35 4 -22 2 12 2 32 0 45 -2 12 -4 2 -4 -23z"/>
<path d="M1103 2530 c0 -30 2 -43 4 -27 2 15 2 39 0 55 -2 15 -4 2 -4 -28z"/>
<path d="M1043 805 c0 -22 2 -30 4 -17 2 12 2 30 0 40 -3 9 -5 -1 -4 -23z"/>
<path d="M1033 705 c0 -22 2 -30 4 -17 2 12 2 30 0 40 -3 9 -5 -1 -4 -23z"/>
</g>
</svg>
