<?xml version="1.0" standalone="no"?>
<!DOCTYPE svg PUBLIC "-//W3C//DTD SVG 20010904//EN"
 "http://www.w3.org/TR/2001/REC-SVG-20010904/DTD/svg10.dtd">
<svg version="1.0" xmlns="http://www.w3.org/2000/svg"
 width="244.000000pt" height="305.000000pt" viewBox="0 0 244.000000 305.000000"
 preserveAspectRatio="xMidYMid meet">
<metadata>
Created by potrace 1.16, written by Peter Selinger 2001-2019
</metadata>
<g transform="translate(0.000000,305.000000) scale(0.100000,-0.100000)"
fill="#000000" stroke="none">
<path d="M951 2905 c-1 -5 -2 -234 -1 -509 l1 -498 -37 31 -38 30 3 158 c3
192 15 379 36 532 20 155 17 181 -6 47 -33 -196 -64 -776 -41 -776 6 0 27 -14
47 -31 l36 -32 23 22 c25 24 66 28 66 7 0 -8 -12 -17 -27 -21 -32 -8 -52 -32
-53 -62 0 -13 -4 -23 -10 -23 -5 0 -10 7 -10 16 0 25 -56 74 -84 74 -35 0 -66
-33 -66 -70 0 -28 2 -30 39 -30 34 0 44 -5 65 -33 30 -39 32 -59 10 -78 -13
-11 -15 -26 -11 -74 3 -33 2 -80 -2 -105 -5 -25 -9 -40 -10 -33 -2 19 -53 8
-73 -17 -22 -28 -23 -67 -2 -120 12 -29 13 -45 6 -52 -18 -18 -46 39 -50 103
-3 46 0 65 17 92 11 19 21 42 21 50 0 22 -31 37 -74 37 -27 0 -40 -6 -52 -26
-16 -24 -16 -30 1 -97 20 -77 21 -126 4 -169 -9 -23 -52 -58 -159 -130 -14
-10 -61 -42 -105 -72 -44 -30 -82 -53 -84 -50 -2 2 54 65 124 139 128 135 129
136 165 130 l37 -6 -4 81 c-7 121 -24 157 -19 42 l4 -93 -28 6 c-25 5 -38 -6
-146 -121 -65 -70 -140 -150 -166 -178 -26 -27 -46 -52 -44 -53 2 -2 14 1 27
6 13 6 67 26 119 45 232 85 264 101 272 135 5 17 11 31 14 31 5 0 45 -19 52
-25 2 -2 -17 -40 -43 -85 -25 -46 -44 -85 -41 -87 3 -4 99 52 143 83 22 15 23
15 33 -11 15 -40 13 -45 -25 -61 -24 -10 -37 -23 -41 -42 -7 -31 -72 -278
-114 -432 -16 -58 -27 -107 -24 -109 4 -4 35 32 64 75 47 68 230 306 230 298
0 -5 -11 -78 -25 -162 -29 -177 -30 -200 -7 -152 184 386 184 386 177 442 -6
44 -5 48 14 48 25 0 91 -56 91 -78 0 -9 -11 -28 -25 -42 l-25 -26 30 -179 c42
-250 81 -470 84 -473 3 -2 39 206 91 513 23 136 21 152 -17 188 -17 17 -18 21
-5 40 19 30 74 60 93 53 13 -5 15 -15 9 -54 -6 -43 -2 -57 50 -166 31 -66 65
-140 77 -165 12 -25 34 -73 50 -106 29 -60 29 -60 24 -20 -8 67 -37 248 -46
287 -4 21 -5 38 0 38 4 0 64 -76 134 -170 123 -164 158 -206 142 -164 -5 10
-30 105 -57 209 -94 359 -89 344 -118 358 -26 12 -40 52 -24 68 5 5 37 -10 73
-33 85 -55 130 -80 130 -72 0 4 -23 46 -51 95 -50 86 -57 119 -24 119 9 0 18
-12 21 -29 5 -24 15 -33 48 -45 22 -8 84 -31 136 -52 52 -20 115 -45 140 -54
25 -10 54 -21 64 -26 18 -7 18 -6 5 13 -18 26 -77 92 -203 226 -90 97 -104
108 -128 103 l-28 -5 7 89 c4 58 2 90 -4 90 -6 0 -13 -35 -17 -77 -4 -43 -9
-94 -12 -113 -6 -39 -20 -26 224 -205 51 -37 91 -70 89 -72 -3 -2 -71 25 -153
60 l-149 63 3 33 c3 23 -3 40 -18 56 -32 34 -35 90 -11 184 21 84 18 113 -13
133 -20 14 -64 8 -87 -11 l-24 -20 24 -43 c27 -47 31 -110 11 -159 -14 -32
-37 -34 -32 -3 16 124 18 112 -22 148 -27 25 -36 30 -37 17 0 -9 -7 7 -15 34
-8 28 -15 57 -14 65 2 67 1 83 -9 93 -38 38 22 121 83 115 29 -3 31 -1 28 27
-5 40 -29 65 -62 65 -34 0 -80 -35 -80 -61 0 -30 -17 -22 -24 11 -5 27 -1 35
31 63 20 18 43 37 51 43 13 9 14 45 9 250 -7 255 -24 439 -58 624 -18 92 -24
110 -31 90 -5 -15 -5 -27 2 -34 12 -12 14 -946 2 -946 -5 0 -17 9 -28 21 -18
20 -19 41 -19 363 0 187 -3 323 -6 301 l-5 -40 -7 35 c-5 29 -27 268 -27 301
0 5 -3 9 -7 9 -5 0 -7 -224 -5 -497 1 -273 0 -494 -3 -491 -5 5 -33 178 -35
211 0 4 -4 7 -10 7 -5 0 -11 -19 -11 -42 -1 -24 -4 -56 -8 -73 -6 -26 -8 -21
-15 33 -4 34 -11 60 -15 58 -5 -3 -11 45 -15 107 -6 110 -40 338 -55 380 -8
21 -8 21 -14 2 -26 -89 -57 -328 -57 -435 0 -36 -4 -59 -9 -55 -6 3 -13 -22
-17 -57 l-8 -63 -8 40 c-4 22 -12 155 -18 295 -5 140 -14 300 -20 355 -6 55
-13 124 -16 153 -3 30 -8 52 -10 49 -3 -2 -4 -221 -4 -486 0 -282 -3 -480 -9
-477 -5 3 -12 152 -16 331 -4 178 -10 323 -14 321 -4 -3 -15 52 -24 122 -17
120 -43 249 -46 227z m279 -866 c0 -383 -2 -429 -15 -415 -12 12 -15 57 -17
263 -2 226 -3 235 -8 103 l-6 -145 -1 160 c-1 165 11 330 17 235 4 -59 8 -30
15 113 4 64 9 117 11 117 2 0 4 -194 4 -431z m248 -151 c20 -20 14 -24 -23
-20 -19 2 -35 7 -35 11 0 23 39 28 58 9z m-78 -16 c0 -13 -12 -22 -22 -16 -10
6 -1 24 13 24 5 0 9 -4 9 -8z m-300 -12 c0 -5 -4 -10 -10 -10 -5 0 -10 5 -10
10 0 6 5 10 10 10 6 0 10 -4 10 -10z m267 -110 c9 -13 9 -21 2 -26 -12 -7 -29
13 -29 34 0 18 14 15 27 -8z m-237 3 c-1 -18 -19 -35 -29 -28 -9 5 -9 10 0 21
12 15 29 19 29 7z m-97 -44 c6 -22 5 -44 -3 -64 l-13 -30 -8 32 c-5 18 -13 35
-19 38 -13 8 9 67 24 62 6 -2 15 -19 19 -38z m445 -3 c2 -19 -2 -32 -12 -38
-9 -5 -16 -17 -17 -26 0 -11 -4 -9 -10 8 -15 36 -2 92 19 88 10 -2 18 -15 20
-32z m-291 -53 c-3 -10 -5 -2 -5 17 0 19 2 27 5 18 2 -10 2 -26 0 -35z m6 -55
c15 -15 27 -34 27 -42 0 -31 20 -26 34 9 8 19 22 38 31 42 9 3 21 17 26 30 6
18 15 23 32 21 18 -2 22 -9 22 -38 0 -34 -1 -35 -43 -38 -48 -4 -66 -23 -78
-87 l-7 -40 -9 35 c-20 81 -26 89 -77 92 -43 3 -46 5 -49 33 -3 19 2 33 14 42
15 11 20 10 33 -10 9 -12 28 -35 44 -49z m-217 -22 c8 -21 34 -67 60 -102 45
-64 58 -109 18 -67 -59 64 -94 124 -110 187 -10 43 16 29 32 -18z m115 -49
c11 -27 17 -52 15 -55 -11 -10 -46 84 -44 118 0 27 2 29 5 10 3 -13 14 -46 24
-73z m299 -13 c-11 -26 -23 -45 -26 -41 -3 3 1 18 9 34 8 15 18 48 23 73 8 43
9 43 12 13 2 -18 -6 -53 -18 -79z m130 82 c0 -46 -82 -187 -116 -200 -23 -9
-17 5 37 89 27 44 53 92 56 108 7 33 23 36 23 3z m-360 -95 c17 -33 11 -47
-10 -21 -11 14 -20 28 -20 33 0 14 20 7 30 -12z m180 10 c0 -5 -9 -19 -20 -32
-21 -26 -27 -11 -10 22 11 19 30 26 30 10z m190 -132 c0 -31 -4 -48 -10 -44
-5 3 -10 29 -10 56 0 31 4 48 10 44 6 -3 10 -29 10 -56z m-565 -3 c-8 -39 -25
-40 -25 -1 0 35 11 58 22 47 5 -5 6 -26 3 -46z m-68 -23 c-3 -10 -5 -2 -5 17
0 19 2 27 5 18 2 -10 2 -26 0 -35z m288 26 c10 -15 -1 -23 -20 -15 -9 3 -13
10 -10 16 8 13 22 13 30 -1z m125 -4 c0 -8 -7 -15 -15 -15 -9 0 -12 6 -9 15 4
8 10 15 15 15 5 0 9 -7 9 -15z m-264 -80 c-8 -58 17 -111 47 -99 14 5 16 15
11 58 l-6 52 37 -4 c20 -2 33 -7 27 -11 -6 -3 -13 -18 -17 -33 -6 -24 -3 -29
19 -38 19 -7 26 -17 26 -35 0 -24 -2 -26 -37 -20 -21 3 -52 8 -70 11 -27 4
-34 11 -43 42 -16 59 -12 122 7 122 3 0 2 -20 -1 -45z m391 -32 c-3 -36 -11
-71 -18 -78 -8 -7 -42 -15 -76 -18 -61 -5 -63 -5 -63 19 0 17 8 27 25 34 19 7
25 17 25 40 0 21 -5 30 -17 31 -10 1 -4 5 12 8 42 10 48 4 42 -43 -3 -23 -2
-48 3 -56 8 -13 13 -12 31 7 18 18 22 32 21 78 -1 38 2 54 10 49 7 -4 9 -30 5
-71z m-587 -43 c15 -28 2 -46 -16 -23 -7 10 -14 24 -14 31 0 19 18 14 30 -8z
m770 -30 c0 -5 -2 -10 -4 -10 -3 0 -8 5 -11 10 -3 6 -1 10 4 10 6 0 11 -4 11
-10z m-46 -133 c-5 -71 -4 -88 14 -127 12 -25 59 -128 106 -230 48 -101 86
-186 86 -188 0 -17 -30 23 -202 269 l-38 54 0 112 c0 80 5 124 16 153 9 22 18
40 21 40 2 0 1 -37 -3 -83z m-794 51 c-1 -15 -77 -104 -84 -98 -8 8 58 110 71
110 7 0 13 -6 13 -12z m140 -70 c0 -41 -18 -84 -122 -298 -67 -137 -123 -248
-125 -246 -2 2 17 82 42 177 26 96 52 194 59 219 9 34 17 46 33 48 12 2 33 14
47 27 20 19 26 34 26 67 0 24 3 54 7 67 6 23 7 23 20 6 7 -11 13 -40 13 -67z
m830 11 c29 -33 50 -62 48 -64 -4 -4 -118 71 -135 89 -9 9 6 36 20 36 8 0 38
-27 67 -61z m-504 -95 c10 14 14 16 14 5 -1 -15 -28 -55 -33 -48 -7 7 -27 72
-27 83 1 6 8 -5 16 -24 15 -33 16 -34 30 -16z m-249 -110 c-40 -141 -100 -334
-103 -331 -7 7 38 255 51 285 8 18 15 55 15 83 0 42 3 51 23 58 12 5 26 5 30
1 5 -4 -3 -47 -16 -96z m519 -129 c36 -120 63 -219 61 -221 -2 -2 -13 17 -25
44 -11 26 -33 74 -47 107 -82 184 -87 197 -80 254 5 36 10 50 17 43 6 -6 39
-108 74 -227z m-288 -233 l-3 -137 -24 220 -23 221 23 51 24 50 3 -133 c1 -74
1 -196 0 -272z m-53 281 c0 -38 3 -106 7 -153 7 -85 7 -84 -18 44 -23 118 -23
130 -9 152 8 13 16 24 18 24 1 0 2 -30 2 -67z"/>
<path d="M1491 2804 c0 -11 3 -14 6 -6 3 7 2 16 -1 19 -3 4 -6 -2 -5 -13z"/>
<path d="M1391 2794 c0 -11 3 -14 6 -6 3 7 2 16 -1 19 -3 4 -6 -2 -5 -13z"/>
<path d="M1042 2755 c0 -16 2 -22 5 -12 2 9 2 23 0 30 -3 6 -5 -1 -5 -18z"/>
<path d="M1482 2745 c0 -16 2 -22 5 -12 2 9 2 23 0 30 -3 6 -5 -1 -5 -18z"/>
<path d="M1382 2660 c0 -14 2 -19 5 -12 2 6 2 18 0 25 -3 6 -5 1 -5 -13z"/>
<path d="M1032 2645 c0 -16 2 -22 5 -12 2 9 2 23 0 30 -3 6 -5 -1 -5 -18z"/>
<path d="M1471 2654 c0 -11 3 -14 6 -6 3 7 2 16 -1 19 -3 4 -6 -2 -5 -13z"/>
<path d="M1373 2540 c0 -25 2 -35 4 -22 2 12 2 32 0 45 -2 12 -4 2 -4 -23z"/>
<path d="M1363 2360 c0 -36 2 -50 4 -32 2 17 2 47 0 65 -2 17 -4 3 -4 -33z"/>
</g>
</svg>
