<svg xmlns="http://www.w3.org/2000/svg" viewBox="0 0 80 80">
<g fill="none" stroke="#d8d1bc" stroke-width="3.4" stroke-linecap="round" stroke-linejoin="round">
<path d="M40 40 L58.0 40.0"/><path d="M58.0 40.0 L53.4 36.1"/><path d="M58.0 40.0 L53.4 43.9"/><path d="M40 40 L49.0 55.6"/><path d="M49.0 55.6 L50.0 49.7"/><path d="M49.0 55.6 L43.4 53.5"/><path d="M40 40 L31.0 55.6"/><path d="M31.0 55.6 L36.6 53.5"/><path d="M31.0 55.6 L30.0 49.7"/><path d="M40 40 L22.0 40.0"/><path d="M22.0 40.0 L26.6 43.9"/><path d="M22.0 40.0 L26.6 36.1"/><path d="M40 40 L31.0 24.4"/><path d="M31.0 24.4 L30.0 30.3"/><path d="M31.0 24.4 L36.6 26.5"/><path d="M40 40 L49.0 24.4"/><path d="M49.0 24.4 L43.4 26.5"/><path d="M49.0 24.4 L50.0 30.3"/>
</g>
</svg>
